<?xml version="1.0" encoding="utf-8"?>
<!-- Generator: Adobe Illustrator 19.0.0, SVG Export Plug-In . SVG Version: 6.00 Build 0)  -->
<svg version="1.1" id="Livello_1" xmlns="http://www.w3.org/2000/svg" xmlns:xlink="http://www.w3.org/1999/xlink" x="0px" y="0px"
	 viewBox="0 0 45.3 62.4" enable-background="new 0 0 45.3 62.4" xml:space="preserve">
<g>
	<path fill="none" stroke="#393839" stroke-width="2.5175" stroke-miterlimit="10" d="M9.4,32.8l13,27.9c0.3,0.7,0.8,0.7,1.1,0
		l13-27.9"/>
	<path fill="none" stroke="#393839" stroke-width="2.8132" stroke-miterlimit="10" d="M37.5,16.6c0-0.1,0-0.1,0-0.2
		c0-8.3-6.7-15-15-15s-15,6.7-15,15c0,0.1,0,0.1,0,0.2c-3.5,0.8-6.1,4-6.1,7.7c0,4.4,3.5,7.9,7.9,7.9c1.2,0,2.4-0.3,3.4-0.8
		c1.7,1.8,5.5,3,9.9,3c4.4,0,8.2-1.2,9.9-3c1,0.5,2.2,0.8,3.4,0.8c4.4,0,7.9-3.5,7.9-7.9C43.8,20.5,41.1,17.3,37.5,16.6z"/>
</g>
</svg>
