<?xml version="1.0" encoding="utf-8"?>
<!-- Generator: Adobe Illustrator 16.0.0, SVG Export Plug-In . SVG Version: 6.00 Build 0)  -->
<!DOCTYPE svg PUBLIC "-//W3C//DTD SVG 1.1//EN" "http://www.w3.org/Graphics/SVG/1.1/DTD/svg11.dtd">
<svg version="1.1" xmlns="http://www.w3.org/2000/svg" xmlns:xlink="http://www.w3.org/1999/xlink" x="0px" y="0px" width="810px"
	 height="730px" viewBox="0 0 810 730" enable-background="new 0 0 810 730" xml:space="preserve">
<g id="fratospain">
	<g opacity="0.9">
		<g>
			<g>
				<defs>
					<path id="SVGID_1_" d="M299.944,474.307c0,0-0.356,0.132-0.57,0.211c-0.919,0.351-2.284,0.886-4.015,1.615
						c-3.465,1.448-8.398,3.667-14.185,6.639c-2.896,1.481-6.002,3.155-9.241,5.014c-3.248,1.844-6.612,3.896-10.054,6.089
						c-3.43,2.208-6.93,4.565-10.398,7.088c-1.737,1.258-3.481,2.536-5.19,3.876c-1.736,1.307-3.425,2.685-5.115,4.063
						c-1.715,1.354-3.327,2.82-4.991,4.224c-1.642,1.426-3.217,2.911-4.816,4.352c-1.545,1.497-3.077,2.981-4.592,4.449
						c-1.46,1.519-2.927,3.003-4.332,4.497c-1.372,1.525-2.723,3.025-4.044,4.493c-1.272,1.513-2.518,2.993-3.729,4.435
						c-1.159,1.486-2.286,2.932-3.376,4.329c-1.094,1.399-2.05,2.822-3.023,4.151c-0.478,0.671-0.945,1.328-1.403,1.971
						c-0.433,0.659-0.855,1.303-1.268,1.93c-0.82,1.259-1.619,2.442-2.334,3.576c-1.362,2.306-2.6,4.296-3.538,5.979
						c-1.829,3.397-2.874,5.339-2.874,5.339l-0.247-0.115c0,0,0.913-2.015,2.511-5.54c0.826-1.752,1.928-3.83,3.141-6.246
						c0.642-1.188,1.361-2.432,2.102-3.756c0.372-0.661,0.754-1.34,1.146-2.033c0.416-0.679,0.843-1.374,1.277-2.083
						c0.89-1.406,1.76-2.913,2.767-4.401c1.007-1.49,2.047-3.03,3.117-4.614c1.128-1.545,2.287-3.131,3.472-4.753
						c1.239-1.582,2.506-3.199,3.794-4.843c1.323-1.616,2.709-3.226,4.094-4.876c1.439-1.601,2.897-3.22,4.367-4.853
						c1.526-1.577,3.033-3.205,4.609-4.775c1.597-1.546,3.148-3.162,4.803-4.663c1.632-1.526,3.266-3.057,4.949-4.514
						c1.656-1.492,3.353-2.923,5.045-4.334c3.379-2.829,6.805-5.493,10.173-8.004c3.381-2.493,6.7-4.843,9.916-6.972
						c3.206-2.144,6.294-4.091,9.185-5.828c5.776-3.484,10.751-6.146,14.303-7.925c1.341-0.676,3.381-1.649,3.381-1.649l-0.001,8.46
						L299.944,474.307z"/>
				</defs>
				<clipPath id="SVGID_2_">
					<use xlink:href="#SVGID_1_"  overflow="visible"/>
				</clipPath>
				<polygon clip-path="url(#SVGID_2_)" fill="#B23B3F" points="196.608,561.31 200.873,562.625 196.608,562.625 				"/>
				<polygon clip-path="url(#SVGID_2_)" fill="#B33C40" points="196.608,559.377 207.14,562.625 200.873,562.625 196.608,561.31 
									"/>
				<polygon clip-path="url(#SVGID_2_)" fill="#B43D40" points="196.608,557.444 213.407,562.625 207.14,562.625 196.608,559.377 
									"/>
				<polygon clip-path="url(#SVGID_2_)" fill="#B53E41" points="196.608,555.723 196.667,555.53 219.673,562.625 213.407,562.625 
					196.608,557.444 				"/>
				<polygon clip-path="url(#SVGID_2_)" fill="#B63F41" points="196.667,555.53 197.21,553.766 225.94,562.625 219.673,562.625 				
					"/>
				<polygon clip-path="url(#SVGID_2_)" fill="#B74042" points="197.21,553.766 197.755,552.001 232.207,562.625 225.94,562.625 
									"/>
				<polygon clip-path="url(#SVGID_2_)" fill="#B84142" points="197.755,552.001 198.299,550.236 238.473,562.625 232.207,562.625 
									"/>
				<polygon clip-path="url(#SVGID_2_)" fill="#B94243" points="198.299,550.236 198.843,548.472 244.74,562.625 238.473,562.625 
									"/>
				<polygon clip-path="url(#SVGID_2_)" fill="#BA4344" points="198.843,548.472 199.387,546.707 251.006,562.625 244.74,562.625 
									"/>
				<polygon clip-path="url(#SVGID_2_)" fill="#BA4444" points="199.387,546.707 199.932,544.942 257.273,562.625 251.006,562.625 
									"/>
				<polygon clip-path="url(#SVGID_2_)" fill="#BB4545" points="199.932,544.942 200.476,543.178 263.54,562.625 257.273,562.625 
									"/>
				<polygon clip-path="url(#SVGID_2_)" fill="#BC4645" points="200.476,543.178 201.02,541.413 269.807,562.625 263.54,562.625 
									"/>
				<polygon clip-path="url(#SVGID_2_)" fill="#BD4746" points="201.02,541.413 201.564,539.648 275.569,562.469 275.52,562.625 
					269.807,562.625 				"/>
				
					<rect x="237.915" y="511.455" transform="matrix(-0.2946 0.9556 -0.9556 -0.2946 834.9578 483.9999)" clip-path="url(#SVGID_2_)" fill="#BE4846" width="1.847" height="77.443"/>
				
					<rect x="238.459" y="509.69" transform="matrix(-0.2951 0.9555 -0.9555 -0.2951 834.0096 481.4961)" clip-path="url(#SVGID_2_)" fill="#BF4947" width="1.847" height="77.443"/>
				
					<rect x="239.003" y="507.926" transform="matrix(-0.2946 0.9556 -0.9556 -0.2946 832.9941 478.3909)" clip-path="url(#SVGID_2_)" fill="#C04A48" width="1.847" height="77.443"/>
				
					<rect x="239.548" y="506.162" transform="matrix(-0.2947 0.9556 -0.9556 -0.2947 832.0232 475.6795)" clip-path="url(#SVGID_2_)" fill="#C14B48" width="1.846" height="77.443"/>
				
					<rect x="240.091" y="504.396" transform="matrix(-0.2944 0.9557 -0.9557 -0.2944 831.0199 472.6907)" clip-path="url(#SVGID_2_)" fill="#C24D49" width="1.848" height="77.443"/>
				
					<rect x="240.636" y="502.632" transform="matrix(-0.2947 0.9556 -0.9556 -0.2947 830.0598 470.07)" clip-path="url(#SVGID_2_)" fill="#C34E49" width="1.846" height="77.443"/>
				
					<rect x="241.18" y="500.868" transform="matrix(-0.2951 0.9555 -0.9555 -0.2951 829.1035 467.4712)" clip-path="url(#SVGID_2_)" fill="#C44F4A" width="1.847" height="77.443"/>
				
					<rect x="241.724" y="499.103" transform="matrix(-0.2946 0.9556 -0.9556 -0.2946 828.0854 464.3699)" clip-path="url(#SVGID_2_)" fill="#C5504A" width="1.847" height="77.443"/>
				
					<rect x="242.268" y="497.339" transform="matrix(-0.2946 0.9556 -0.9556 -0.2946 827.1033 461.5656)" clip-path="url(#SVGID_2_)" fill="#C6514B" width="1.847" height="77.443"/>
				
					<rect x="242.813" y="495.574" transform="matrix(-0.2946 0.9556 -0.9556 -0.2946 826.1217 458.7609)" clip-path="url(#SVGID_2_)" fill="#C7524C" width="1.847" height="77.443"/>
				
					<rect x="243.356" y="493.81" transform="matrix(-0.2951 0.9555 -0.9555 -0.2951 825.1782 456.2501)" clip-path="url(#SVGID_2_)" fill="#C8534C" width="1.847" height="77.443"/>
				
					<rect x="243.901" y="492.045" transform="matrix(-0.2946 0.9556 -0.9556 -0.2946 824.158 453.1519)" clip-path="url(#SVGID_2_)" fill="#C8544D" width="1.847" height="77.443"/>
				
					<rect x="244.445" y="490.28" transform="matrix(-0.2946 0.9556 -0.9556 -0.2946 823.1758 450.3476)" clip-path="url(#SVGID_2_)" fill="#C9554D" width="1.847" height="77.443"/>
				
					<rect x="244.989" y="488.515" transform="matrix(-0.2946 0.9556 -0.9556 -0.2946 822.1942 447.5429)" clip-path="url(#SVGID_2_)" fill="#CA564E" width="1.847" height="77.443"/>
				
					<rect x="245.533" y="486.75" transform="matrix(-0.2946 0.9556 -0.9556 -0.2946 821.2121 444.7386)" clip-path="url(#SVGID_2_)" fill="#CB574E" width="1.847" height="77.443"/>
				
					<rect x="246.077" y="484.986" transform="matrix(-0.2951 0.9555 -0.9555 -0.2951 820.2711 442.224)" clip-path="url(#SVGID_2_)" fill="#CC584F" width="1.847" height="77.443"/>
				
					<rect x="246.622" y="483.222" transform="matrix(-0.2946 0.9556 -0.9556 -0.2946 819.2484 439.1296)" clip-path="url(#SVGID_2_)" fill="#CD594F" width="1.847" height="77.443"/>
				
					<rect x="247.166" y="481.457" transform="matrix(-0.2946 0.9556 -0.9556 -0.2946 818.2662 436.3253)" clip-path="url(#SVGID_2_)" fill="#CE5A50" width="1.847" height="77.443"/>
				
					<rect x="247.71" y="479.692" transform="matrix(-0.2946 0.9556 -0.9556 -0.2946 817.2846 433.5206)" clip-path="url(#SVGID_2_)" fill="#CF5B51" width="1.847" height="77.443"/>
				
					<rect x="248.254" y="477.927" transform="matrix(-0.2946 0.9556 -0.9556 -0.2946 816.3024 430.7163)" clip-path="url(#SVGID_2_)" fill="#D05C51" width="1.847" height="77.443"/>
				
					<rect x="248.798" y="476.163" transform="matrix(-0.2951 0.9555 -0.9555 -0.2951 815.3641 428.1979)" clip-path="url(#SVGID_2_)" fill="#D15D52" width="1.847" height="77.443"/>
				
					<rect x="249.342" y="474.398" transform="matrix(-0.2946 0.9556 -0.9556 -0.2946 814.3387 425.1073)" clip-path="url(#SVGID_2_)" fill="#D25E52" width="1.847" height="77.443"/>
				
					<rect x="249.886" y="472.634" transform="matrix(-0.2946 0.9556 -0.9556 -0.2946 813.3566 422.303)" clip-path="url(#SVGID_2_)" fill="#D35F53" width="1.847" height="77.443"/>
				
					<rect x="250.431" y="470.869" transform="matrix(-0.2946 0.9556 -0.9556 -0.2946 812.375 419.4983)" clip-path="url(#SVGID_2_)" fill="#D46053" width="1.847" height="77.443"/>
				
					<rect x="250.975" y="469.104" transform="matrix(-0.2946 0.9556 -0.9556 -0.2946 811.3928 416.694)" clip-path="url(#SVGID_2_)" fill="#D56154" width="1.847" height="77.443"/>
				
					<rect x="251.518" y="467.34" transform="matrix(-0.2951 0.9555 -0.9555 -0.2951 810.4572 414.1717)" clip-path="url(#SVGID_2_)" fill="#D66255" width="1.847" height="77.443"/>
				
					<rect x="252.063" y="465.575" transform="matrix(-0.2946 0.9556 -0.9556 -0.2946 809.4291 411.085)" clip-path="url(#SVGID_2_)" fill="#D66355" width="1.847" height="77.443"/>
				
					<rect x="252.607" y="463.81" transform="matrix(-0.2946 0.9556 -0.9556 -0.2946 808.447 408.2808)" clip-path="url(#SVGID_2_)" fill="#D76456" width="1.847" height="77.443"/>
				
					<rect x="253.151" y="462.045" transform="matrix(-0.2946 0.9556 -0.9556 -0.2946 807.4654 405.476)" clip-path="url(#SVGID_2_)" fill="#D86556" width="1.847" height="77.443"/>
				
					<rect x="253.695" y="460.281" transform="matrix(-0.2946 0.9556 -0.9556 -0.2946 806.4832 402.6718)" clip-path="url(#SVGID_2_)" fill="#D96657" width="1.847" height="77.443"/>
				
					<rect x="254.239" y="458.517" transform="matrix(-0.2951 0.9555 -0.9555 -0.2951 805.5502 400.1456)" clip-path="url(#SVGID_2_)" fill="#DA6757" width="1.847" height="77.443"/>
				
					<rect x="254.784" y="456.752" transform="matrix(-0.2946 0.9556 -0.9556 -0.2946 804.5195 397.0627)" clip-path="url(#SVGID_2_)" fill="#DB6858" width="1.847" height="77.443"/>
				
					<rect x="255.328" y="454.987" transform="matrix(-0.2946 0.9556 -0.9556 -0.2946 803.5373 394.2585)" clip-path="url(#SVGID_2_)" fill="#DC6958" width="1.847" height="77.443"/>
				
					<rect x="255.872" y="453.222" transform="matrix(-0.2946 0.9556 -0.9556 -0.2946 802.5558 391.4537)" clip-path="url(#SVGID_2_)" fill="#DD6A59" width="1.847" height="77.443"/>
				
					<rect x="256.416" y="451.457" transform="matrix(-0.2946 0.9556 -0.9556 -0.2946 801.5736 388.6495)" clip-path="url(#SVGID_2_)" fill="#DE6B5A" width="1.847" height="77.443"/>
				
					<rect x="256.96" y="449.693" transform="matrix(-0.2951 0.9555 -0.9555 -0.2951 800.6432 386.1194)" clip-path="url(#SVGID_2_)" fill="#DF6C5A" width="1.847" height="77.443"/>
				
					<rect x="257.504" y="447.929" transform="matrix(-0.2946 0.9556 -0.9556 -0.2946 799.6099 383.0405)" clip-path="url(#SVGID_2_)" fill="#E06D5B" width="1.847" height="77.443"/>
				
					<rect x="258.049" y="446.164" transform="matrix(-0.2946 0.9556 -0.9556 -0.2946 798.6283 380.2357)" clip-path="url(#SVGID_2_)" fill="#E16E5B" width="1.847" height="77.443"/>
				
					<rect x="258.593" y="444.399" transform="matrix(-0.2946 0.9556 -0.9556 -0.2946 797.6461 377.4315)" clip-path="url(#SVGID_2_)" fill="#E16F5C" width="1.847" height="77.443"/>
				
					<rect x="259.137" y="442.634" transform="matrix(-0.2946 0.9556 -0.9556 -0.2946 796.664 374.6272)" clip-path="url(#SVGID_2_)" fill="#E2705C" width="1.847" height="77.443"/>
				
					<rect x="259.681" y="440.87" transform="matrix(-0.2951 0.9555 -0.9555 -0.2951 795.7362 372.0933)" clip-path="url(#SVGID_2_)" fill="#E3715D" width="1.847" height="77.443"/>
				
					<rect x="260.225" y="439.105" transform="matrix(-0.2946 0.9556 -0.9556 -0.2946 794.7003 369.0182)" clip-path="url(#SVGID_2_)" fill="#E4725D" width="1.847" height="77.443"/>
				<polygon clip-path="url(#SVGID_2_)" fill="#E5735E" points="224.418,465.534 224.652,464.777 228.229,464.777 298.967,486.59 
					298.422,488.354 				"/>
				<polygon clip-path="url(#SVGID_2_)" fill="#E6745F" points="234.496,464.777 299.511,484.825 298.967,486.59 228.229,464.777 
									"/>
				<polygon clip-path="url(#SVGID_2_)" fill="#E7755F" points="240.763,464.777 300.055,483.061 299.511,484.825 234.496,464.777 
									"/>
				<polygon clip-path="url(#SVGID_2_)" fill="#E87660" points="247.03,464.777 300.599,481.296 300.055,483.061 240.763,464.777 
									"/>
				<polygon clip-path="url(#SVGID_2_)" fill="#E97760" points="253.296,464.777 300.754,479.411 300.754,480.795 300.599,481.296 
					247.03,464.777 				"/>
				<polygon clip-path="url(#SVGID_2_)" fill="#EA7861" points="259.563,464.777 300.754,477.479 300.754,479.411 253.296,464.777 
									"/>
				<polygon clip-path="url(#SVGID_2_)" fill="#EB7961" points="265.83,464.777 300.754,475.547 300.754,477.479 259.563,464.777 
									"/>
				<polygon clip-path="url(#SVGID_2_)" fill="#EB7A62" points="272.096,464.777 300.754,473.614 300.754,475.547 265.83,464.777 
									"/>
				<polygon clip-path="url(#SVGID_2_)" fill="#EC7B62" points="278.363,464.777 300.754,471.682 300.754,473.614 272.096,464.777 
									"/>
				<polygon clip-path="url(#SVGID_2_)" fill="#ED7C63" points="284.629,464.777 300.754,469.749 300.754,471.682 278.363,464.777 
									"/>
				<polygon clip-path="url(#SVGID_2_)" fill="#EE7D63" points="290.896,464.777 300.754,467.816 300.754,469.749 284.629,464.777 
									"/>
				<polygon clip-path="url(#SVGID_2_)" fill="#EF7E64" points="297.164,464.777 300.754,465.885 300.754,467.816 290.896,464.777 
									"/>
				<polygon clip-path="url(#SVGID_2_)" fill="#EF7E64" points="300.754,465.885 297.164,464.777 300.754,464.777 				"/>
			</g>
		</g>
	</g>
</g>
<g id="fratobelgium">
	<g opacity="0.9">
		<g>
			<g>
				<defs>
					<path id="SVGID_3_" d="M306.846,463.229c0,0,0.011-0.258,0.019-0.424c0.015-0.282,0.032-0.631,0.054-1.04
						c0.03-0.389,0.065-0.836,0.104-1.337c0.067-1.004,0.218-2.196,0.358-3.573c0.2-1.364,0.354-2.911,0.658-4.574
						c0.141-0.833,0.286-1.7,0.438-2.598c0.182-0.891,0.369-1.812,0.563-2.758c0.352-1.896,0.9-3.862,1.386-5.903
						c0.567-2.024,1.154-4.112,1.837-6.205c0.747-2.076,1.383-4.214,2.28-6.267c0.422-1.033,0.843-2.065,1.263-3.094
						c0.425-1.024,0.944-2.009,1.406-3.002c0.475-0.986,0.946-1.964,1.411-2.931c0.528-0.936,1.049-1.859,1.562-2.769
						c0.515-0.903,1.02-1.792,1.515-2.662c0.555-0.833,1.098-1.649,1.626-2.443c0.527-0.791,1.04-1.561,1.535-2.305
						c0.488-0.747,1.073-1.396,1.571-2.056c1.031-1.299,1.957-2.496,2.806-3.533c0.921-0.976,1.724-1.827,2.385-2.527
						c1.316-1.395,2.068-2.191,2.068-2.191l0.207,0.192c0,0-0.657,0.871-1.809,2.396c-0.572,0.76-1.268,1.682-2.065,2.738
						c-0.703,1.121-1.497,2.385-2.362,3.765c-0.415,0.698-0.91,1.382-1.306,2.165c-0.402,0.777-0.817,1.581-1.244,2.407
						c-0.426,0.822-0.862,1.667-1.31,2.531c-0.385,0.894-0.778,1.808-1.178,2.736c-0.396,0.927-0.799,1.868-1.206,2.822
						c-0.345,0.979-0.692,1.97-1.044,2.969c-0.337,1.003-0.729,1.989-1.026,3.018c-0.292,1.027-0.586,2.06-0.879,3.091
						c-0.639,2.042-1.019,4.164-1.511,6.205c-0.428,2.06-0.765,4.105-1.09,6.076c-0.244,1.989-0.559,3.893-0.69,5.722
						c-0.083,0.91-0.164,1.795-0.242,2.651c-0.049,0.857-0.095,1.687-0.14,2.481c-0.114,1.588-0.095,3.045-0.143,4.331
						c0.013,1.282-0.006,2.406,0.035,3.313c0.015,0.454,0.028,0.86,0.039,1.214c0.02,0.333,0.036,0.616,0.05,0.846
						c0.014,0.202,0.033,0.487,0.033,0.487L306.846,463.229z"/>
				</defs>
				<clipPath id="SVGID_4_">
					<use xlink:href="#SVGID_3_"  overflow="visible"/>
				</clipPath>
				<polygon clip-path="url(#SVGID_4_)" fill="#B43D40" points="333.896,400.396 333.417,399.037 333.896,399.037 				"/>
				<polygon clip-path="url(#SVGID_4_)" fill="#B53E41" points="333.896,402.584 332.645,399.037 333.417,399.037 333.896,400.396 
									"/>
				<polygon clip-path="url(#SVGID_4_)" fill="#B63F41" points="333.896,404.771 331.873,399.037 332.645,399.037 333.896,402.584 
									"/>
				<polygon clip-path="url(#SVGID_4_)" fill="#B74042" points="333.896,406.957 331.101,399.037 331.873,399.037 333.896,404.771 
									"/>
				<polygon clip-path="url(#SVGID_4_)" fill="#B84142" points="333.896,409.144 330.329,399.037 331.101,399.037 333.896,406.957 
									"/>
				<polygon clip-path="url(#SVGID_4_)" fill="#B94243" points="333.896,411.33 329.557,399.037 330.329,399.037 333.896,409.144 
									"/>
				<polygon clip-path="url(#SVGID_4_)" fill="#BA4344" points="333.896,413.518 328.785,399.037 329.557,399.037 333.896,411.33 
									"/>
				<polygon clip-path="url(#SVGID_4_)" fill="#BA4444" points="333.896,415.704 328.014,399.037 328.785,399.037 333.896,413.518 
									"/>
				<polygon clip-path="url(#SVGID_4_)" fill="#BB4545" points="333.896,417.891 327.29,399.175 327.682,399.037 328.014,399.037 
					333.896,415.704 				"/>
				<polygon clip-path="url(#SVGID_4_)" fill="#BC4645" points="333.896,420.077 326.604,399.418 327.29,399.175 333.896,417.891 
									"/>
				<polygon clip-path="url(#SVGID_4_)" fill="#BD4746" points="333.896,422.264 325.917,399.66 326.604,399.418 333.896,420.077 
									"/>
				<polygon clip-path="url(#SVGID_4_)" fill="#BE4846" points="333.896,424.451 325.23,399.902 325.917,399.66 333.896,422.264 
									"/>
				<polygon clip-path="url(#SVGID_4_)" fill="#BF4947" points="333.896,426.638 324.545,400.145 325.23,399.902 333.896,424.451 
									"/>
				<polygon clip-path="url(#SVGID_4_)" fill="#C04A48" points="333.896,428.824 323.858,400.387 324.545,400.145 333.896,426.638 
									"/>
				<polygon clip-path="url(#SVGID_4_)" fill="#C14B48" points="333.896,431.011 323.172,400.629 323.858,400.387 333.896,428.824 
									"/>
				<polygon clip-path="url(#SVGID_4_)" fill="#C24D49" points="333.896,433.197 322.485,400.871 323.172,400.629 333.896,431.011 
									"/>
				<polygon clip-path="url(#SVGID_4_)" fill="#C34E49" points="333.896,435.385 321.799,401.113 322.485,400.871 333.896,433.197 
									"/>
				<polygon clip-path="url(#SVGID_4_)" fill="#C44F4A" points="333.896,437.571 321.112,401.355 321.799,401.113 333.896,435.385 
									"/>
				<polygon clip-path="url(#SVGID_4_)" fill="#C5504A" points="333.896,439.758 320.426,401.599 321.112,401.355 333.896,437.571 
									"/>
				<polygon clip-path="url(#SVGID_4_)" fill="#C6514B" points="333.896,441.944 319.74,401.841 320.426,401.599 333.896,439.758 
									"/>
				<polygon clip-path="url(#SVGID_4_)" fill="#C7524C" points="333.896,444.131 319.054,402.083 319.74,401.841 333.896,441.944 
									"/>
				<polygon clip-path="url(#SVGID_4_)" fill="#C8534C" points="333.896,446.318 318.367,402.325 319.054,402.083 333.896,444.131 
									"/>
				<polygon clip-path="url(#SVGID_4_)" fill="#C8544D" points="333.896,448.505 317.681,402.567 318.367,402.325 333.896,446.318 
									"/>
				<polygon clip-path="url(#SVGID_4_)" fill="#C9554D" points="333.896,450.691 316.994,402.81 317.681,402.567 333.896,448.505 
									"/>
				<polygon clip-path="url(#SVGID_4_)" fill="#CA564E" points="333.896,452.878 316.308,403.052 316.994,402.81 333.896,450.691 
									"/>
				<polygon clip-path="url(#SVGID_4_)" fill="#CB574E" points="333.896,455.064 315.621,403.294 316.308,403.052 333.896,452.878 
									"/>
				<polygon clip-path="url(#SVGID_4_)" fill="#CC584F" points="333.896,457.252 314.936,403.536 315.621,403.294 333.896,455.064 
									"/>
				<polygon clip-path="url(#SVGID_4_)" fill="#CD594F" points="333.896,458.844 333.71,458.909 314.249,403.779 314.936,403.536 
					333.896,457.252 				"/>
				
					<rect x="323.272" y="402.233" transform="matrix(0.9426 -0.3339 0.3339 0.9426 -125.4834 132.8112)" clip-path="url(#SVGID_4_)" fill="#CE5A50" width="0.728" height="58.465"/>
				
					<rect x="322.586" y="402.476" transform="matrix(0.943 -0.3327 0.3327 0.943 -125.2253 132.029)" clip-path="url(#SVGID_4_)" fill="#CF5B51" width="0.728" height="58.465"/>
				
					<rect x="321.899" y="402.718" transform="matrix(0.943 -0.3327 0.3327 0.943 -125.3449 131.8144)" clip-path="url(#SVGID_4_)" fill="#D05C51" width="0.728" height="58.465"/>
				
					<rect x="321.213" y="402.96" transform="matrix(0.9429 -0.3331 0.3331 0.9429 -125.5989 131.7996)" clip-path="url(#SVGID_4_)" fill="#D15D52" width="0.727" height="58.465"/>
				
					<rect x="320.527" y="403.202" transform="matrix(0.943 -0.3327 0.3327 0.943 -125.5843 131.3853)" clip-path="url(#SVGID_4_)" fill="#D25E52" width="0.728" height="58.465"/>
				
					<rect x="319.841" y="403.444" transform="matrix(0.943 -0.3327 0.3327 0.943 -125.7039 131.1709)" clip-path="url(#SVGID_4_)" fill="#D35F53" width="0.728" height="58.465"/>
				
					<rect x="319.154" y="403.687" transform="matrix(0.943 -0.3327 0.3327 0.943 -125.8236 130.9564)" clip-path="url(#SVGID_4_)" fill="#D46053" width="0.728" height="58.465"/>
				
					<rect x="318.468" y="403.929" transform="matrix(0.943 -0.3327 0.3327 0.943 -125.9432 130.7418)" clip-path="url(#SVGID_4_)" fill="#D56154" width="0.728" height="58.465"/>
				
					<rect x="317.781" y="404.17" transform="matrix(0.9426 -0.3339 0.3339 0.9426 -126.4456 131.0891)" clip-path="url(#SVGID_4_)" fill="#D66255" width="0.728" height="58.466"/>
				
					<rect x="317.095" y="404.414" transform="matrix(0.943 -0.3327 0.3327 0.943 -126.1829 130.3126)" clip-path="url(#SVGID_4_)" fill="#D66355" width="0.728" height="58.465"/>
				<polygon clip-path="url(#SVGID_4_)" fill="#D76456" points="326.846,461.333 326.16,461.575 306.829,406.813 306.829,406.398 
					307.385,406.202 				"/>
				<polygon clip-path="url(#SVGID_4_)" fill="#D86556" points="326.16,461.575 325.474,461.817 306.829,409 306.829,406.813 				
					"/>
				<polygon clip-path="url(#SVGID_4_)" fill="#D96657" points="325.474,461.817 324.787,462.06 306.829,411.187 306.829,409 				
					"/>
				<polygon clip-path="url(#SVGID_4_)" fill="#DA6757" points="324.787,462.06 324.101,462.302 306.829,413.373 306.829,411.187 
									"/>
				<polygon clip-path="url(#SVGID_4_)" fill="#DB6858" points="324.101,462.302 323.414,462.544 306.829,415.56 306.829,413.373 
									"/>
				<polygon clip-path="url(#SVGID_4_)" fill="#DC6958" points="323.414,462.544 322.728,462.786 306.829,417.746 306.829,415.56 
									"/>
				<polygon clip-path="url(#SVGID_4_)" fill="#DD6A59" points="322.728,462.786 322.041,463.028 306.829,419.934 306.829,417.746 
									"/>
				<polygon clip-path="url(#SVGID_4_)" fill="#DE6B5A" points="322.041,463.028 321.355,463.271 306.829,422.12 306.829,419.934 
									"/>
				<polygon clip-path="url(#SVGID_4_)" fill="#DF6C5A" points="321.355,463.271 320.669,463.514 306.829,424.307 306.829,422.12 
									"/>
				<polygon clip-path="url(#SVGID_4_)" fill="#E06D5B" points="320.669,463.514 320.344,463.628 319.938,463.628 306.829,426.493 
					306.829,424.307 				"/>
				<polygon clip-path="url(#SVGID_4_)" fill="#E16E5B" points="319.165,463.628 306.829,428.68 306.829,426.493 319.938,463.628 
									"/>
				<polygon clip-path="url(#SVGID_4_)" fill="#E16F5C" points="318.394,463.628 306.829,430.867 306.829,428.68 319.165,463.628 
									"/>
				<polygon clip-path="url(#SVGID_4_)" fill="#E2705C" points="317.621,463.628 306.829,433.054 306.829,430.867 318.394,463.628 
									"/>
				<polygon clip-path="url(#SVGID_4_)" fill="#E3715D" points="316.85,463.628 306.829,435.24 306.829,433.054 317.621,463.628 
									"/>
				<polygon clip-path="url(#SVGID_4_)" fill="#E4725D" points="316.078,463.628 306.829,437.427 306.829,435.24 316.85,463.628 
									"/>
				<polygon clip-path="url(#SVGID_4_)" fill="#E5735E" points="315.306,463.628 306.829,439.613 306.829,437.427 316.078,463.628 
									"/>
				<polygon clip-path="url(#SVGID_4_)" fill="#E6745F" points="314.534,463.628 306.829,441.801 306.829,439.613 315.306,463.628 
									"/>
				<polygon clip-path="url(#SVGID_4_)" fill="#E7755F" points="313.762,463.628 306.829,443.987 306.829,441.801 314.534,463.628 
									"/>
				<polygon clip-path="url(#SVGID_4_)" fill="#E87660" points="312.99,463.628 306.829,446.174 306.829,443.987 313.762,463.628 
									"/>
				<polygon clip-path="url(#SVGID_4_)" fill="#E97760" points="312.218,463.628 306.829,448.36 306.829,446.174 312.99,463.628 
									"/>
				<polygon clip-path="url(#SVGID_4_)" fill="#EA7861" points="311.446,463.628 306.829,450.547 306.829,448.36 312.218,463.628 
									"/>
				<polygon clip-path="url(#SVGID_4_)" fill="#EB7961" points="310.674,463.628 306.829,452.734 306.829,450.547 311.446,463.628 
									"/>
				<polygon clip-path="url(#SVGID_4_)" fill="#EB7A62" points="309.902,463.628 306.829,454.921 306.829,452.734 310.674,463.628 
									"/>
				<polygon clip-path="url(#SVGID_4_)" fill="#EC7B62" points="309.131,463.628 306.829,457.107 306.829,454.921 309.902,463.628 
									"/>
				<polygon clip-path="url(#SVGID_4_)" fill="#ED7C63" points="308.358,463.628 306.829,459.294 306.829,457.107 309.131,463.628 
									"/>
				<polygon clip-path="url(#SVGID_4_)" fill="#EE7D63" points="307.587,463.628 306.829,461.48 306.829,459.294 308.358,463.628 
									"/>
				<polygon clip-path="url(#SVGID_4_)" fill="#EF7E64" points="306.829,461.48 307.587,463.628 306.829,463.628 				"/>
			</g>
		</g>
	</g>
</g>
<g id="fratoger">
	<g opacity="0.9">
		<g>
			<g>
				<defs>
					<path id="SVGID_5_" d="M318.352,463.285c-0.018,0.039,0.229-0.337,0.604-1.038c0.383-0.707,0.94-1.729,1.696-2.978
						c1.502-2.508,3.769-5.97,6.784-9.876c3.013-3.905,6.771-8.257,11.161-12.535c2.176-2.156,4.537-4.264,6.979-6.344
						c2.476-2.043,5.021-4.072,7.685-5.94l1.987-1.408l2.028-1.341c1.335-0.912,2.722-1.733,4.082-2.566
						c2.732-1.649,5.486-3.155,8.196-4.515c1.336-0.715,2.707-1.306,4.023-1.93c1.312-0.634,2.629-1.179,3.91-1.709
						c2.539-1.11,5.021-1.959,7.279-2.805c1.147-0.374,2.247-0.732,3.292-1.074c0.522-0.17,1.031-0.336,1.525-0.497
						c0.501-0.142,0.987-0.279,1.459-0.412c1.89-0.513,3.513-1.033,4.889-1.327c2.729-0.648,4.289-1.02,4.289-1.02l0.076,0.305
						c0,0-1.525,0.475-4.196,1.306c-1.343,0.383-2.923,1.012-4.758,1.647c-0.458,0.163-0.93,0.332-1.415,0.505
						c-0.479,0.193-0.972,0.393-1.477,0.597c-1.01,0.407-2.07,0.836-3.178,1.282c-2.175,0.988-4.558,1.988-6.98,3.252
						c-1.223,0.606-2.478,1.229-3.722,1.939c-1.248,0.7-2.548,1.367-3.809,2.156c-2.558,1.51-5.142,3.162-7.688,4.947
						c-1.268,0.9-2.558,1.788-3.793,2.762l-1.875,1.433l-1.831,1.495c-2.45,1.98-4.772,4.109-7.018,6.234
						c-2.213,2.163-4.339,4.337-6.279,6.544c-3.92,4.379-7.209,8.763-9.802,12.646c-2.595,3.883-4.49,7.267-5.706,9.652
						c-0.615,1.191-1.047,2.135-1.336,2.768c-0.262,0.609-0.508,1.144-0.508,1.144v-3.332L318.352,463.285z"/>
				</defs>
				<clipPath id="SVGID_6_">
					<use xlink:href="#SVGID_5_"  overflow="visible"/>
				</clipPath>
				<polygon clip-path="url(#SVGID_6_)" fill="#B23B3F" points="400.297,405.613 399.438,403.971 400.297,403.971 				"/>
				<polygon clip-path="url(#SVGID_6_)" fill="#B33C40" points="400.297,408.864 397.739,403.971 399.438,403.971 400.297,405.613 
									"/>
				<polygon clip-path="url(#SVGID_6_)" fill="#B43D40" points="400.297,412.114 396.039,403.971 397.739,403.971 400.297,408.864 
									"/>
				<polygon clip-path="url(#SVGID_6_)" fill="#B53E41" points="400.297,415.365 394.34,403.971 396.039,403.971 400.297,412.114 
									"/>
				<polygon clip-path="url(#SVGID_6_)" fill="#B63F41" points="400.297,418.615 392.641,403.971 394.34,403.971 400.297,415.365 
									"/>
				<polygon clip-path="url(#SVGID_6_)" fill="#B74042" points="400.297,421.865 390.941,403.971 392.641,403.971 400.297,418.615 
									"/>
				<polygon clip-path="url(#SVGID_6_)" fill="#B84142" points="400.297,425.116 389.242,403.971 390.941,403.971 400.297,421.865 
									"/>
				<polygon clip-path="url(#SVGID_6_)" fill="#B94243" points="400.297,428.366 387.543,403.971 389.242,403.971 400.297,425.116 
									"/>
				<polygon clip-path="url(#SVGID_6_)" fill="#BA4344" points="400.297,429.283 399.339,429.784 385.843,403.971 387.543,403.971 
					400.297,428.366 				"/>
				<polygon clip-path="url(#SVGID_6_)" fill="#BA4444" points="399.339,429.784 398.004,430.481 384.485,404.623 385.732,403.971 
					385.843,403.971 				"/>
				
					<rect x="389.824" y="403.312" transform="matrix(0.886 -0.4637 0.4637 0.886 -149.2607 228.7792)" clip-path="url(#SVGID_6_)" fill="#BB4545" width="1.506" height="29.179"/>
				
					<rect x="388.49" y="404.009" transform="matrix(0.8864 -0.463 0.463 0.8864 -149.5696 227.7683)" clip-path="url(#SVGID_6_)" fill="#BC4645" width="1.506" height="29.179"/>
				
					<rect x="387.155" y="404.707" transform="matrix(0.8861 -0.4635 0.4635 0.8861 -150.1545 227.5389)" clip-path="url(#SVGID_6_)" fill="#BD4746" width="1.507" height="29.179"/>
				
					<rect x="385.821" y="405.405" transform="matrix(0.8862 -0.4632 0.4632 0.8862 -150.577 226.8523)" clip-path="url(#SVGID_6_)" fill="#BE4846" width="1.505" height="29.179"/>
				
					<rect x="384.486" y="406.102" transform="matrix(0.8861 -0.4635 0.4635 0.8861 -151.105 226.4608)" clip-path="url(#SVGID_6_)" fill="#BF4947" width="1.507" height="29.18"/>
				
					<rect x="383.152" y="406.8" transform="matrix(0.8862 -0.4632 0.4632 0.8862 -151.5271 225.7747)" clip-path="url(#SVGID_6_)" fill="#C04A48" width="1.505" height="29.179"/>
				
					<rect x="381.817" y="407.497" transform="matrix(0.8861 -0.4635 0.4635 0.8861 -152.0559 225.3825)" clip-path="url(#SVGID_6_)" fill="#C14B48" width="1.507" height="29.18"/>
				
					<rect x="380.482" y="408.196" transform="matrix(0.8864 -0.463 0.463 0.8864 -152.4176 224.5369)" clip-path="url(#SVGID_6_)" fill="#C24D49" width="1.506" height="29.179"/>
				
					<rect x="379.148" y="408.893" transform="matrix(0.886 -0.4637 0.4637 0.886 -153.0665 224.4644)" clip-path="url(#SVGID_6_)" fill="#C34E49" width="1.506" height="29.18"/>
				
					<rect x="377.813" y="409.592" transform="matrix(0.8864 -0.463 0.463 0.8864 -153.3669 223.4598)" clip-path="url(#SVGID_6_)" fill="#C44F4A" width="1.506" height="29.179"/>
				
					<rect x="376.479" y="410.288" transform="matrix(0.886 -0.4637 0.4637 0.886 -154.018 223.3858)" clip-path="url(#SVGID_6_)" fill="#C5504A" width="1.506" height="29.18"/>
				
					<rect x="375.144" y="410.987" transform="matrix(0.8864 -0.463 0.463 0.8864 -154.3163 222.3826)" clip-path="url(#SVGID_6_)" fill="#C6514B" width="1.506" height="29.179"/>
				
					<rect x="373.809" y="411.684" transform="matrix(0.8864 -0.463 0.463 0.8864 -154.7908 221.844)" clip-path="url(#SVGID_6_)" fill="#C7524C" width="1.506" height="29.179"/>
				
					<rect x="372.475" y="412.382" transform="matrix(0.886 -0.4637 0.4637 0.886 -155.4453 221.7678)" clip-path="url(#SVGID_6_)" fill="#C8534C" width="1.506" height="29.179"/>
				
					<rect x="371.14" y="413.08" transform="matrix(0.8864 -0.463 0.463 0.8864 -155.7402 220.7667)" clip-path="url(#SVGID_6_)" fill="#C8544D" width="1.506" height="29.179"/>
				
					<rect x="369.806" y="413.778" transform="matrix(0.886 -0.4637 0.4637 0.886 -156.3968 220.6892)" clip-path="url(#SVGID_6_)" fill="#C9554D" width="1.506" height="29.179"/>
				
					<rect x="368.471" y="414.475" transform="matrix(0.8864 -0.463 0.463 0.8864 -156.6895 219.6896)" clip-path="url(#SVGID_6_)" fill="#CA564E" width="1.506" height="29.179"/>
				
					<rect x="367.136" y="415.173" transform="matrix(0.8861 -0.4635 0.4635 0.8861 -157.2851 219.4528)" clip-path="url(#SVGID_6_)" fill="#CB574E" width="1.507" height="29.179"/>
				
					<rect x="365.802" y="415.871" transform="matrix(0.8862 -0.4632 0.4632 0.8862 -157.7025 218.7698)" clip-path="url(#SVGID_6_)" fill="#CC584F" width="1.505" height="29.179"/>
				
					<rect x="364.467" y="416.569" transform="matrix(0.8861 -0.4635 0.4635 0.8861 -158.2358 218.3745)" clip-path="url(#SVGID_6_)" fill="#CD594F" width="1.507" height="29.179"/>
				
					<rect x="363.133" y="417.267" transform="matrix(0.8864 -0.463 0.463 0.8864 -158.5882 217.5352)" clip-path="url(#SVGID_6_)" fill="#CE5A50" width="1.506" height="29.179"/>
				
					<rect x="361.798" y="417.964" transform="matrix(0.886 -0.4637 0.4637 0.886 -159.2513 217.453)" clip-path="url(#SVGID_6_)" fill="#CF5B51" width="1.506" height="29.179"/>
				
					<rect x="360.464" y="418.662" transform="matrix(0.8864 -0.463 0.463 0.8864 -159.5375 216.4582)" clip-path="url(#SVGID_6_)" fill="#D05C51" width="1.506" height="29.179"/>
				
					<rect x="359.129" y="419.36" transform="matrix(0.886 -0.4637 0.4637 0.886 -160.2029 216.3745)" clip-path="url(#SVGID_6_)" fill="#D15D52" width="1.506" height="29.179"/>
				
					<rect x="357.794" y="420.057" transform="matrix(0.8864 -0.463 0.463 0.8864 -160.4869 215.3809)" clip-path="url(#SVGID_6_)" fill="#D25E52" width="1.506" height="29.179"/>
				
					<rect x="356.46" y="420.755" transform="matrix(0.886 -0.4637 0.4637 0.886 -161.1544 215.2959)" clip-path="url(#SVGID_6_)" fill="#D35F53" width="1.506" height="29.179"/>
				
					<rect x="355.125" y="421.453" transform="matrix(0.8864 -0.463 0.463 0.8864 -161.4362 214.3038)" clip-path="url(#SVGID_6_)" fill="#D46053" width="1.506" height="29.179"/>
				
					<rect x="353.791" y="422.151" transform="matrix(0.8861 -0.4635 0.4635 0.8861 -162.0389 214.0621)" clip-path="url(#SVGID_6_)" fill="#D56154" width="1.507" height="29.179"/>
				
					<rect x="352.456" y="422.848" transform="matrix(0.8862 -0.4632 0.4632 0.8862 -162.4529 213.3814)" clip-path="url(#SVGID_6_)" fill="#D66255" width="1.505" height="29.179"/>
				
					<rect x="351.121" y="423.546" transform="matrix(0.8861 -0.4635 0.4635 0.8861 -162.9897 212.9838)" clip-path="url(#SVGID_6_)" fill="#D66355" width="1.507" height="29.179"/>
				
					<rect x="349.787" y="424.244" transform="matrix(0.8864 -0.463 0.463 0.8864 -163.3349 212.1495)" clip-path="url(#SVGID_6_)" fill="#D76456" width="1.506" height="29.179"/>
				
					<rect x="348.452" y="424.942" transform="matrix(0.886 -0.4637 0.4637 0.886 -164.0089 212.0598)" clip-path="url(#SVGID_6_)" fill="#D86556" width="1.506" height="29.179"/>
				
					<rect x="347.118" y="425.64" transform="matrix(0.8864 -0.463 0.463 0.8864 -164.2843 211.0724)" clip-path="url(#SVGID_6_)" fill="#D96657" width="1.506" height="29.179"/>
				
					<rect x="345.783" y="426.337" transform="matrix(0.886 -0.4637 0.4637 0.886 -164.9604 210.9812)" clip-path="url(#SVGID_6_)" fill="#DA6757" width="1.506" height="29.179"/>
				
					<rect x="344.449" y="427.035" transform="matrix(0.8864 -0.463 0.463 0.8864 -165.2336 209.9951)" clip-path="url(#SVGID_6_)" fill="#DB6858" width="1.506" height="29.179"/>
				
					<rect x="343.114" y="427.732" transform="matrix(0.8861 -0.4635 0.4635 0.8861 -165.8418 209.7493)" clip-path="url(#SVGID_6_)" fill="#DC6958" width="1.507" height="29.18"/>
				
					<rect x="341.78" y="428.43" transform="matrix(0.8862 -0.4632 0.4632 0.8862 -166.2533 209.0706)" clip-path="url(#SVGID_6_)" fill="#DD6A59" width="1.505" height="29.179"/>
				
					<rect x="340.445" y="429.127" transform="matrix(0.8861 -0.4635 0.4635 0.8861 -166.7925 208.6713)" clip-path="url(#SVGID_6_)" fill="#DE6B5A" width="1.507" height="29.18"/>
				
					<rect x="339.111" y="429.826" transform="matrix(0.8862 -0.4632 0.4632 0.8862 -167.2034 207.993)" clip-path="url(#SVGID_6_)" fill="#DF6C5A" width="1.505" height="29.179"/>
				
					<rect x="337.776" y="430.523" transform="matrix(0.8861 -0.4635 0.4635 0.8861 -167.7433 207.593)" clip-path="url(#SVGID_6_)" fill="#E06D5B" width="1.507" height="29.18"/>
				
					<rect x="336.441" y="431.222" transform="matrix(0.8864 -0.463 0.463 0.8864 -168.0817 206.7637)" clip-path="url(#SVGID_6_)" fill="#E16E5B" width="1.506" height="29.179"/>
				
					<rect x="335.107" y="431.918" transform="matrix(0.886 -0.4637 0.4637 0.886 -168.7663 206.6664)" clip-path="url(#SVGID_6_)" fill="#E16F5C" width="1.506" height="29.18"/>
				
					<rect x="333.772" y="432.617" transform="matrix(0.8864 -0.463 0.463 0.8864 -169.0311 205.6864)" clip-path="url(#SVGID_6_)" fill="#E2705C" width="1.506" height="29.179"/>
				
					<rect x="332.438" y="433.314" transform="matrix(0.8862 -0.4632 0.4632 0.8862 -169.5784 205.2988)" clip-path="url(#SVGID_6_)" fill="#E3715D" width="1.505" height="29.179"/>
				
					<rect x="331.103" y="434.012" transform="matrix(0.8861 -0.4635 0.4635 0.8861 -170.1202 204.8976)" clip-path="url(#SVGID_6_)" fill="#E4725D" width="1.507" height="29.179"/>
				
					<rect x="329.768" y="434.71" transform="matrix(0.8864 -0.463 0.463 0.8864 -170.4548 204.0707)" clip-path="url(#SVGID_6_)" fill="#E5735E" width="1.506" height="29.179"/>
				
					<rect x="328.434" y="435.407" transform="matrix(0.886 -0.4637 0.4637 0.886 -171.145 203.9697)" clip-path="url(#SVGID_6_)" fill="#E6745F" width="1.506" height="29.179"/>
				
					<rect x="327.099" y="436.105" transform="matrix(0.8864 -0.463 0.463 0.8864 -171.4042 202.9934)" clip-path="url(#SVGID_6_)" fill="#E7755F" width="1.506" height="29.179"/>
				
					<rect x="325.765" y="436.803" transform="matrix(0.886 -0.4637 0.4637 0.886 -172.0966 202.8912)" clip-path="url(#SVGID_6_)" fill="#E87660" width="1.506" height="29.179"/>
				<polygon clip-path="url(#SVGID_6_)" fill="#E97760" points="332.61,464.671 331.275,465.368 318.352,440.649 318.352,439.198 
					319.091,438.813 				"/>
				<polygon clip-path="url(#SVGID_6_)" fill="#EA7861" points="331.275,465.368 329.94,466.066 318.352,443.9 318.352,440.649 				
					"/>
				<polygon clip-path="url(#SVGID_6_)" fill="#EB7961" points="329.94,466.066 329.35,466.375 328.403,466.375 318.352,447.15 
					318.352,443.9 				"/>
				<polygon clip-path="url(#SVGID_6_)" fill="#EB7A62" points="326.704,466.375 318.352,450.401 318.352,447.15 328.403,466.375 
									"/>
				<polygon clip-path="url(#SVGID_6_)" fill="#EC7B62" points="325.004,466.375 318.352,453.651 318.352,450.401 326.704,466.375 
									"/>
				<polygon clip-path="url(#SVGID_6_)" fill="#ED7C63" points="323.409,466.584 318.456,457.11 318.456,453.86 325.108,466.584 
									"/>
				<polygon clip-path="url(#SVGID_6_)" fill="#EE7D63" points="321.605,466.375 318.352,460.152 318.352,456.901 323.305,466.375 
									"/>
				<polygon clip-path="url(#SVGID_6_)" fill="#EF7E64" points="319.906,466.375 318.352,463.402 318.352,460.152 321.605,466.375 
									"/>
				<polygon clip-path="url(#SVGID_6_)" fill="#EF7E64" points="318.352,463.402 319.906,466.375 318.352,466.375 				"/>
			</g>
		</g>
	</g>
</g>
</svg>
