<?xml version="1.0" encoding="utf-8"?>
<!-- Generator: Adobe Illustrator 18.1.1, SVG Export Plug-In . SVG Version: 6.00 Build 0)  -->
<svg version="1.0" id="Layer_1" xmlns="http://www.w3.org/2000/svg" xmlns:xlink="http://www.w3.org/1999/xlink" x="0px" y="0px"
	 viewBox="0 0 425.99 370.46" enable-background="new 0 0 425.99 370.46" xml:space="preserve">
<g>
	<line fill="#FFFFFF" stroke="#5CC1A1" stroke-width="2" stroke-miterlimit="10" x1="12.57" y1="351.51" x2="3.48" y2="367.01"/>
	<polyline fill="#FFFFFF" stroke="#5CC1A1" stroke-width="2" stroke-miterlimit="10" points="12.34,4.28 3.12,20.74 3.12,367.63 
		413.29,367.63 422.93,351.83 	"/>
	
		<rect x="12.57" y="4.62" fill="#FFFFFF" stroke="#5CC1A1" stroke-width="2" stroke-miterlimit="10" width="410.17" height="346.89"/>
	<line fill="#FFFFFF" stroke="#5CC1A1" stroke-width="2" stroke-miterlimit="10" x1="12.57" y1="351.51" x2="3.12" y2="367.63"/>
	<line fill="#FFFFFF" stroke="#5CC1A1" stroke-width="2" stroke-miterlimit="10" x1="20.44" y1="351.51" x2="10.99" y2="367.63"/>
	<line fill="#FFFFFF" stroke="#5CC1A1" stroke-width="2" stroke-miterlimit="10" x1="28.31" y1="351.51" x2="18.87" y2="367.63"/>
	<line fill="#FFFFFF" stroke="#5CC1A1" stroke-width="2" stroke-miterlimit="10" x1="36.19" y1="351.51" x2="26.74" y2="367.63"/>
	<line fill="#FFFFFF" stroke="#5CC1A1" stroke-width="2" stroke-miterlimit="10" x1="44.06" y1="351.51" x2="34.61" y2="367.63"/>
	<line fill="#FFFFFF" stroke="#5CC1A1" stroke-width="2" stroke-miterlimit="10" x1="51.93" y1="351.51" x2="42.48" y2="367.63"/>
	<line fill="#FFFFFF" stroke="#5CC1A1" stroke-width="2" stroke-miterlimit="10" x1="59.8" y1="351.51" x2="50.36" y2="367.63"/>
	<line fill="#FFFFFF" stroke="#5CC1A1" stroke-width="2" stroke-miterlimit="10" x1="67.68" y1="351.51" x2="58.23" y2="367.63"/>
	<line fill="#FFFFFF" stroke="#5CC1A1" stroke-width="2" stroke-miterlimit="10" x1="75.55" y1="351.51" x2="66.1" y2="367.63"/>
	<line fill="#FFFFFF" stroke="#5CC1A1" stroke-width="2" stroke-miterlimit="10" x1="83.42" y1="351.51" x2="73.97" y2="367.63"/>
	<line fill="#FFFFFF" stroke="#5CC1A1" stroke-width="2" stroke-miterlimit="10" x1="91.29" y1="351.51" x2="81.85" y2="367.63"/>
	<line fill="#FFFFFF" stroke="#5CC1A1" stroke-width="2" stroke-miterlimit="10" x1="99.17" y1="351.51" x2="89.72" y2="367.63"/>
	<line fill="#FFFFFF" stroke="#5CC1A1" stroke-width="2" stroke-miterlimit="10" x1="107.04" y1="351.51" x2="97.59" y2="367.63"/>
	<line fill="#FFFFFF" stroke="#5CC1A1" stroke-width="2" stroke-miterlimit="10" x1="114.91" y1="351.51" x2="105.47" y2="367.63"/>
	<line fill="#FFFFFF" stroke="#5CC1A1" stroke-width="2" stroke-miterlimit="10" x1="122.79" y1="351.51" x2="113.34" y2="367.63"/>
	<line fill="#FFFFFF" stroke="#5CC1A1" stroke-width="2" stroke-miterlimit="10" x1="130.66" y1="351.51" x2="121.21" y2="367.63"/>
	<line fill="#FFFFFF" stroke="#5CC1A1" stroke-width="2" stroke-miterlimit="10" x1="138.53" y1="351.51" x2="129.08" y2="367.63"/>
	<line fill="#FFFFFF" stroke="#5CC1A1" stroke-width="2" stroke-miterlimit="10" x1="146.4" y1="351.51" x2="136.96" y2="367.63"/>
	<line fill="#FFFFFF" stroke="#5CC1A1" stroke-width="2" stroke-miterlimit="10" x1="154.28" y1="351.51" x2="144.83" y2="367.63"/>
	<line fill="#FFFFFF" stroke="#5CC1A1" stroke-width="2" stroke-miterlimit="10" x1="162.15" y1="351.51" x2="152.7" y2="367.63"/>
	<line fill="#FFFFFF" stroke="#5CC1A1" stroke-width="2" stroke-miterlimit="10" x1="170.02" y1="351.51" x2="160.57" y2="367.63"/>
	<line fill="#FFFFFF" stroke="#5CC1A1" stroke-width="2" stroke-miterlimit="10" x1="178.23" y1="351.51" x2="168.78" y2="367.63"/>
	<line fill="#FFFFFF" stroke="#5CC1A1" stroke-width="2" stroke-miterlimit="10" x1="186.1" y1="351.51" x2="176.65" y2="367.63"/>
	<line fill="#FFFFFF" stroke="#5CC1A1" stroke-width="2" stroke-miterlimit="10" x1="193.97" y1="351.51" x2="184.52" y2="367.63"/>
	<line fill="#FFFFFF" stroke="#5CC1A1" stroke-width="2" stroke-miterlimit="10" x1="201.85" y1="351.51" x2="192.4" y2="367.63"/>
	<line fill="#FFFFFF" stroke="#5CC1A1" stroke-width="2" stroke-miterlimit="10" x1="209.72" y1="351.51" x2="200.27" y2="367.63"/>
	<line fill="#FFFFFF" stroke="#5CC1A1" stroke-width="2" stroke-miterlimit="10" x1="217.59" y1="351.51" x2="208.14" y2="367.63"/>
	<line fill="#FFFFFF" stroke="#5CC1A1" stroke-width="2" stroke-miterlimit="10" x1="225.46" y1="351.51" x2="216.02" y2="367.63"/>
	<line fill="#FFFFFF" stroke="#5CC1A1" stroke-width="2" stroke-miterlimit="10" x1="233.34" y1="351.51" x2="223.89" y2="367.63"/>
	<line fill="#FFFFFF" stroke="#5CC1A1" stroke-width="2" stroke-miterlimit="10" x1="241.21" y1="351.51" x2="231.76" y2="367.63"/>
	<line fill="#FFFFFF" stroke="#5CC1A1" stroke-width="2" stroke-miterlimit="10" x1="249.08" y1="351.51" x2="239.63" y2="367.63"/>
	<line fill="#FFFFFF" stroke="#5CC1A1" stroke-width="2" stroke-miterlimit="10" x1="256.95" y1="351.51" x2="247.51" y2="367.63"/>
	<line fill="#FFFFFF" stroke="#5CC1A1" stroke-width="2" stroke-miterlimit="10" x1="264.83" y1="351.51" x2="255.38" y2="367.63"/>
	<line fill="#FFFFFF" stroke="#5CC1A1" stroke-width="2" stroke-miterlimit="10" x1="272.7" y1="351.51" x2="263.25" y2="367.63"/>
	<line fill="#FFFFFF" stroke="#5CC1A1" stroke-width="2" stroke-miterlimit="10" x1="280.57" y1="351.51" x2="271.13" y2="367.63"/>
	<line fill="#FFFFFF" stroke="#5CC1A1" stroke-width="2" stroke-miterlimit="10" x1="288.45" y1="351.51" x2="279" y2="367.63"/>
	<line fill="#FFFFFF" stroke="#5CC1A1" stroke-width="2" stroke-miterlimit="10" x1="296.32" y1="351.51" x2="286.87" y2="367.63"/>
	<line fill="#FFFFFF" stroke="#5CC1A1" stroke-width="2" stroke-miterlimit="10" x1="304.19" y1="351.51" x2="294.74" y2="367.63"/>
	<line fill="#FFFFFF" stroke="#5CC1A1" stroke-width="2" stroke-miterlimit="10" x1="312.06" y1="351.51" x2="302.62" y2="367.63"/>
	<line fill="#FFFFFF" stroke="#5CC1A1" stroke-width="2" stroke-miterlimit="10" x1="319.94" y1="351.51" x2="310.49" y2="367.63"/>
	<line fill="#FFFFFF" stroke="#5CC1A1" stroke-width="2" stroke-miterlimit="10" x1="327.81" y1="351.51" x2="318.36" y2="367.63"/>
	<line fill="#FFFFFF" stroke="#5CC1A1" stroke-width="2" stroke-miterlimit="10" x1="335.68" y1="351.51" x2="326.23" y2="367.63"/>
	<line fill="#FFFFFF" stroke="#5CC1A1" stroke-width="2" stroke-miterlimit="10" x1="343.89" y1="351.51" x2="334.44" y2="367.63"/>
	<line fill="#FFFFFF" stroke="#5CC1A1" stroke-width="2" stroke-miterlimit="10" x1="351.76" y1="351.51" x2="342.31" y2="367.63"/>
	<line fill="#FFFFFF" stroke="#5CC1A1" stroke-width="2" stroke-miterlimit="10" x1="359.63" y1="351.51" x2="350.18" y2="367.63"/>
	<line fill="#FFFFFF" stroke="#5CC1A1" stroke-width="2" stroke-miterlimit="10" x1="367.5" y1="351.51" x2="358.06" y2="367.63"/>
	<line fill="#FFFFFF" stroke="#5CC1A1" stroke-width="2" stroke-miterlimit="10" x1="375.38" y1="351.51" x2="365.93" y2="367.63"/>
	<line fill="#FFFFFF" stroke="#5CC1A1" stroke-width="2" stroke-miterlimit="10" x1="383.25" y1="351.51" x2="373.8" y2="367.63"/>
	<line fill="#FFFFFF" stroke="#5CC1A1" stroke-width="2" stroke-miterlimit="10" x1="391.12" y1="351.51" x2="381.68" y2="367.63"/>
	<line fill="#FFFFFF" stroke="#5CC1A1" stroke-width="2" stroke-miterlimit="10" x1="399" y1="351.51" x2="389.55" y2="367.63"/>
	<line fill="#FFFFFF" stroke="#5CC1A1" stroke-width="2" stroke-miterlimit="10" x1="406.87" y1="351.51" x2="397.42" y2="367.63"/>
	<line fill="#FFFFFF" stroke="#5CC1A1" stroke-width="2" stroke-miterlimit="10" x1="414.74" y1="351.51" x2="405.29" y2="367.63"/>
</g>
<g>
	<rect x="38.04" y="27.62" fill="none" width="112.52" height="15.73"/>
	<text transform="matrix(1 0 0 1 38.0449 41.1179)" fill="#1E4382" font-family="'Cabin-Medium'" font-size="18">sources</text>
</g>
<line fill="#FFFFFF" stroke="#5CC1A1" stroke-width="2" stroke-miterlimit="10" x1="13.87" y1="61.93" x2="422.64" y2="61.93"/>
<g>
	<rect x="39.45" y="101.3" fill="none" width="356.6" height="230.25"/>
	<text transform="matrix(1 0 0 1 39.4514 111.8011)"><tspan x="0" y="0" fill="#1E4382" font-family="'Cabin-Regular'" font-size="14" letter-spacing="1">Crowd Companies, Timeline of Large Brands </tspan><tspan x="0" y="22" fill="#1E4382" font-family="'Cabin-Regular'" font-size="14" letter-spacing="1">in the Collaborative Economy, 2015</tspan><tspan x="0" y="66" fill="#1E4382" font-family="'Cabin-Regular'" font-size="14" letter-spacing="1">CrunchBase Database</tspan></text>
</g>
</svg>
