<?xml version="1.0" encoding="utf-8"?>
<!-- Generator: Adobe Illustrator 18.1.1, SVG Export Plug-In . SVG Version: 6.00 Build 0)  -->
<svg version="1.0" id="Layer_1" xmlns="http://www.w3.org/2000/svg" xmlns:xlink="http://www.w3.org/1999/xlink" x="0px" y="0px"
	 viewBox="0 0 1024 768" enable-background="new 0 0 1024 768" xml:space="preserve">
<rect x="-7" y="-5.19" fill="#455770" width="1040" height="780.19"/>
<rect x="153.86" y="420.66" transform="matrix(0.7071 -0.7071 0.7071 0.7071 -249.5304 250.847)" fill="none" width="48.35" height="11.95"/>
<text transform="matrix(0.7071 -0.7071 0.7071 0.7071 163.1335 445.9119)" fill="#FBF7F3" font-family="'Cabin-Regular'" font-size="12">Australia</text>
<rect x="47.15" y="519.09" fill="none" width="87.76" height="10.87"/>
<text transform="matrix(1 0 0 1 47.1484 528.0916)" fill="#FBF7F3" font-family="'Cabin-Regular'" font-size="12">Low controversy</text>
<rect x="47.15" y="558.63" fill="none" width="74.98" height="10.87"/>
<text transform="matrix(1 0 0 1 47.1475 567.6287)" fill="#FBF7F3" font-family="'Cabin-Regular'" font-size="12">Neutral image</text>
<rect x="47.15" y="598.17" fill="none" width="60.57" height="10.87"/>
<text transform="matrix(1 0 0 1 47.1475 607.1677)" fill="#FBF7F3" font-family="'Cabin-Regular'" font-size="12">Promotion</text>
<rect x="47.15" y="479.55" fill="none" width="90.4" height="10.87"/>
<text transform="matrix(1 0 0 1 47.1484 488.5515)"><tspan x="0" y="0" fill="#FBF7F3" font-family="'Cabin-Regular'" font-size="12">Hight controver</tspan><tspan x="79.87" y="0" fill="#FBF7F3" font-family="'Cabin-Regular'" font-size="12">-</tspan></text>
<line opacity="0.5" fill="none" stroke="#FBF7F3" stroke-miterlimit="10" x1="143.76" y1="486.39" x2="867" y2="486.39"/>
<line opacity="0.5" fill="none" stroke="#FBF7F3" stroke-miterlimit="10" x1="143.56" y1="525.57" x2="866.8" y2="525.57"/>
<line opacity="0.5" fill="none" stroke="#FBF7F3" stroke-miterlimit="10" x1="143.18" y1="564.66" x2="855.01" y2="564.66"/>
<line opacity="0.5" fill="none" stroke="#FBF7F3" stroke-miterlimit="10" x1="144.2" y1="603.78" x2="867.44" y2="603.78"/>
<line opacity="0.5" fill="none" stroke="#FBF7F3" stroke-miterlimit="10" x1="242.62" y1="603.25" x2="242.62" y2="458.18"/>
<circle fill="#FBF7F3" cx="242.6" cy="525.49" r="4.15"/>
<circle fill="#FBF7F3" cx="242.32" cy="564.62" r="2.4"/>
<circle fill="#FBF7F3" cx="243.08" cy="603.78" r="9.58"/>
<line opacity="0.5" fill="none" stroke="#FBF7F3" stroke-miterlimit="10" x1="163.52" y1="603.25" x2="163.52" y2="458.18"/>
<circle fill="#FBF7F3" cx="163.53" cy="525.49" r="2.4"/>
<circle fill="#FBF7F3" cx="163.61" cy="564.62" r="3.39"/>
<circle fill="#FBF7F3" cx="163.47" cy="603.78" r="9.88"/>
<line opacity="0.5" fill="none" stroke="#FBF7F3" stroke-miterlimit="10" x1="189.65" y1="603.25" x2="189.65" y2="458.18"/>
<circle fill="#FBF7F3" cx="189.68" cy="486.42" r="4.79"/>
<circle fill="#FBF7F3" cx="189.52" cy="525.49" r="5.36"/>
<circle fill="#FBF7F3" cx="189.24" cy="564.62" r="2.4"/>
<circle fill="#FBF7F3" cx="190.01" cy="603.78" r="7.58"/>
<line opacity="0.5" fill="none" stroke="#FBF7F3" stroke-miterlimit="10" x1="216.28" y1="603.25" x2="216.28" y2="458.18"/>
<circle fill="#FBF7F3" cx="216.21" cy="486.42" r="5.87"/>
<circle fill="#FBF7F3" cx="215.78" cy="564.62" r="2.4"/>
<circle fill="#FBF7F3" cx="216.55" cy="603.78" r="8.64"/>
<line opacity="0.5" fill="none" stroke="#FBF7F3" stroke-miterlimit="10" x1="268.86" y1="603.25" x2="268.86" y2="458.18"/>
<circle fill="#FBF7F3" cx="269.29" cy="486.42" r="3.39"/>
<circle fill="#FBF7F3" cx="269.13" cy="525.49" r="4.79"/>
<circle fill="#FBF7F3" cx="269.62" cy="603.78" r="8.97"/>
<line opacity="0.5" fill="none" stroke="#FBF7F3" stroke-miterlimit="10" x1="295.73" y1="603.25" x2="295.73" y2="458.18"/>
<circle fill="#FBF7F3" cx="295.67" cy="525.49" r="3.39"/>
<circle fill="#FBF7F3" cx="295.39" cy="564.62" r="2.4"/>
<circle fill="#FBF7F3" cx="296.16" cy="603.78" r="9.88"/>
<line opacity="0.5" fill="none" stroke="#FBF7F3" stroke-miterlimit="10" x1="322.74" y1="603.25" x2="322.74" y2="458.18"/>
<circle fill="#FBF7F3" cx="322.21" cy="525.49" r="7.19"/>
<circle fill="#FBF7F3" cx="322.7" cy="603.78" r="7.95"/>
<line opacity="0.5" fill="none" stroke="#FBF7F3" stroke-miterlimit="10" x1="348.67" y1="603.25" x2="348.67" y2="458.18"/>
<circle fill="#FBF7F3" cx="348.9" cy="486.42" r="2.4"/>
<circle fill="#FBF7F3" cx="348.75" cy="525.49" r="5.36"/>
<circle fill="#FBF7F3" cx="348.46" cy="564.62" r="3.39"/>
<circle fill="#FBF7F3" cx="349.23" cy="603.78" r="8.3"/>
<line opacity="0.5" fill="none" stroke="#FBF7F3" stroke-miterlimit="10" x1="374.72" y1="603.25" x2="374.72" y2="458.18"/>
<circle fill="#FBF7F3" cx="375.44" cy="486.42" r="2.4"/>
<circle fill="#FBF7F3" cx="375" cy="564.62" r="5.36"/>
<circle fill="#FBF7F3" cx="375.77" cy="603.78" r="8.97"/>
<line opacity="0.5" fill="none" stroke="#FBF7F3" stroke-miterlimit="10" x1="402.4" y1="603.25" x2="402.4" y2="458.18"/>
<circle fill="#FBF7F3" cx="402.31" cy="486.42" r="8.97"/>
<circle fill="#FBF7F3" cx="402.15" cy="525.49" r="2.4"/>
<circle fill="#FBF7F3" cx="402.64" cy="603.78" r="4.79"/>
<line opacity="0.5" fill="none" stroke="#FBF7F3" stroke-miterlimit="10" x1="428.29" y1="603.25" x2="428.29" y2="458.18"/>
<circle fill="#FBF7F3" cx="428.54" cy="486.42" r="5.36"/>
<circle fill="#FBF7F3" cx="428.38" cy="525.49" r="6.34"/>
<circle fill="#FBF7F3" cx="428.87" cy="603.78" r="6.78"/>
<line opacity="0.5" fill="none" stroke="#FBF7F3" stroke-miterlimit="10" x1="454.68" y1="603.25" x2="454.68" y2="458.18"/>
<circle fill="#FBF7F3" cx="455.05" cy="486.42" r="3.39"/>
<circle fill="#FBF7F3" cx="454.9" cy="525.49" r="2.4"/>
<circle fill="#FBF7F3" cx="454.61" cy="564.62" r="2.4"/>
<circle fill="#FBF7F3" cx="455.38" cy="603.78" r="9.58"/>
<line opacity="0.5" fill="none" stroke="#FBF7F3" stroke-miterlimit="10" x1="481.4" y1="603.25" x2="481.4" y2="458.18"/>
<circle fill="#FBF7F3" cx="481.59" cy="486.42" r="2.4"/>
<circle fill="#FBF7F3" cx="481.43" cy="525.49" r="4.79"/>
<circle fill="#FBF7F3" cx="481.92" cy="603.78" r="9.28"/>
<line opacity="0.5" fill="none" stroke="#FBF7F3" stroke-miterlimit="10" x1="508.41" y1="603.25" x2="508.41" y2="458.18"/>
<circle fill="#FBF7F3" cx="508.12" cy="486.42" r="4.79"/>
<circle fill="#FBF7F3" cx="507.69" cy="564.62" r="2.4"/>
<circle fill="#FBF7F3" cx="508.46" cy="603.78" r="9.28"/>
<line opacity="0.5" fill="none" stroke="#FBF7F3" stroke-miterlimit="10" x1="534.46" y1="603.25" x2="534.46" y2="458.18"/>
<circle fill="#FBF7F3" cx="534.66" cy="486.42" r="2.4"/>
<circle fill="#FBF7F3" cx="534.51" cy="525.49" r="2.4"/>
<circle fill="#FBF7F3" cx="534.22" cy="564.62" r="4.15"/>
<circle fill="#FBF7F3" cx="534.99" cy="603.78" r="9.28"/>
<line opacity="0.5" fill="none" stroke="#FBF7F3" stroke-miterlimit="10" x1="560.94" y1="603.25" x2="560.94" y2="458.18"/>
<circle fill="#FBF7F3" cx="561.2" cy="486.42" r="2.4"/>
<circle fill="#FBF7F3" cx="561.04" cy="525.49" r="2.4"/>
<circle fill="#FBF7F3" cx="561.53" cy="603.78" r="10.17"/>
<line opacity="0.5" fill="none" stroke="#FBF7F3" stroke-miterlimit="10" x1="587.17" y1="603.25" x2="587.17" y2="458.18"/>
<circle fill="#FBF7F3" cx="587.58" cy="525.49" r="4.79"/>
<circle fill="#FBF7F3" cx="587.3" cy="564.62" r="2.4"/>
<circle fill="#FBF7F3" cx="588.07" cy="603.78" r="9.28"/>
<line opacity="0.5" fill="none" stroke="#FBF7F3" stroke-miterlimit="10" x1="613.76" y1="603.25" x2="613.76" y2="458.18"/>
<circle fill="#FBF7F3" cx="613.98" cy="525.49" r="4.15"/>
<circle fill="#FBF7F3" cx="614.61" cy="603.78" r="9.88"/>
<line opacity="0.5" fill="none" stroke="#FBF7F3" stroke-miterlimit="10" x1="640.81" y1="603.25" x2="640.81" y2="458.18"/>
<circle fill="#FBF7F3" cx="640.81" cy="486.42" r="2.4"/>
<circle fill="#FBF7F3" cx="640.66" cy="525.49" r="5.87"/>
<circle fill="#FBF7F3" cx="640.37" cy="564.62" r="2.4"/>
<circle fill="#FBF7F3" cx="641.14" cy="603.78" r="8.3"/>
<line opacity="0.5" fill="none" stroke="#FBF7F3" stroke-miterlimit="10" x1="667.38" y1="603.25" x2="667.38" y2="458.18"/>
<circle fill="#FBF7F3" cx="667.19" cy="525.49" r="4.15"/>
<circle fill="#FBF7F3" cx="666.91" cy="564.62" r="3.39"/>
<circle fill="#FBF7F3" cx="667.68" cy="603.78" r="9.28"/>
<line opacity="0.5" fill="none" stroke="#FBF7F3" stroke-miterlimit="10" x1="693.62" y1="603.25" x2="693.62" y2="458.18"/>
<circle fill="#FBF7F3" cx="693.88" cy="486.42" r="2.4"/>
<circle fill="#FBF7F3" cx="693.73" cy="525.49" r="4.15"/>
<circle fill="#FBF7F3" cx="693.45" cy="564.62" r="4.15"/>
<circle fill="#FBF7F3" cx="694.22" cy="603.78" r="8.64"/>
<line opacity="0.5" fill="none" stroke="#FBF7F3" stroke-miterlimit="10" x1="720.12" y1="603.25" x2="720.12" y2="458.18"/>
<circle fill="#FBF7F3" cx="720.75" cy="486.42" r="8.3"/>
<circle fill="#FBF7F3" cx="720.6" cy="525.49" r="4.79"/>
<circle fill="#FBF7F3" cx="721.09" cy="603.78" r="4.79"/>
<line opacity="0.5" fill="none" stroke="#FBF7F3" stroke-miterlimit="10" x1="747.07" y1="603.25" x2="747.07" y2="458.18"/>
<circle fill="#FBF7F3" cx="747.35" cy="525.49" r="4.15"/>
<circle fill="#FBF7F3" cx="747.07" cy="564.62" r="4.79"/>
<circle fill="#FBF7F3" cx="747.29" cy="603.78" r="8.64"/>
<line opacity="0.5" fill="none" stroke="#FBF7F3" stroke-miterlimit="10" x1="773.59" y1="603.25" x2="773.59" y2="458.18"/>
<circle fill="#FBF7F3" cx="773.34" cy="525.49" r="2.4"/>
<circle fill="#FBF7F3" cx="773.06" cy="564.62" r="3.39"/>
<circle fill="#FBF7F3" cx="773.83" cy="603.78" r="9.88"/>
<line opacity="0.5" fill="none" stroke="#FBF7F3" stroke-miterlimit="10" x1="799.54" y1="603.25" x2="799.54" y2="458.18"/>
<circle fill="#FBF7F3" cx="800.03" cy="486.42" r="4.79"/>
<circle fill="#FBF7F3" cx="799.88" cy="525.49" r="4.15"/>
<circle fill="#FBF7F3" cx="800.37" cy="603.78" r="8.64"/>
<line opacity="0.5" fill="none" stroke="#FBF7F3" stroke-miterlimit="10" x1="826.22" y1="603.25" x2="826.22" y2="458.18"/>
<circle fill="#FBF7F3" cx="826.42" cy="525.49" r="4.79"/>
<circle fill="#FBF7F3" cx="826.13" cy="564.62" r="4.15"/>
<circle fill="#FBF7F3" cx="826.9" cy="603.78" r="8.64"/>
<text transform="matrix(0.7071 -0.7071 0.7071 0.7071 190.4683 445.6613)" fill="#FBF7F3" font-family="'Cabin-Regular'" font-size="12">Belgium </text>
<text transform="matrix(0.7071 -0.7071 0.7071 0.7071 216.5652 445.6612)" fill="#FBF7F3" font-family="'Cabin-Regular'" font-size="12">Brazil</text>
<text transform="matrix(0.7071 -0.7071 0.7071 0.7071 243.0208 445.6614)" fill="#FBF7F3" font-family="'Cabin-Regular'" font-size="12">Bulgaria</text>
<text transform="matrix(0.7071 -0.7071 0.7071 0.7071 270.6104 445.6616)" fill="#FBF7F3" font-family="'Cabin-Regular'" font-size="12">Canada</text>
<text transform="matrix(0.7071 -0.7071 0.7071 0.7071 296.4161 445.6613)" fill="#FBF7F3" font-family="'Cabin-Regular'" font-size="12">China</text>
<text transform="matrix(0.7071 -0.7071 0.7071 0.7071 323.8297 445.662)" fill="#FBF7F3" font-family="'Cabin-Regular'" font-size="12">Croatia</text>
<text transform="matrix(0.7071 -0.7071 0.7071 0.7071 349.3967 445.6614)" fill="#FBF7F3" font-family="'Cabin-Regular'" font-size="12">Denmark</text>
<text transform="matrix(0.7071 -0.7071 0.7071 0.7071 375.0181 445.6617)" fill="#FBF7F3" font-family="'Cabin-Regular'" font-size="12">Philippine</text>
<text transform="matrix(0.7071 -0.7071 0.7071 0.7071 402.405 445.6615)" fill="#FBF7F3" font-family="'Cabin-Regular'" font-size="12">France</text>
<text transform="matrix(0.7071 -0.7071 0.7071 0.7071 427.8489 445.6612)" fill="#FBF7F3" font-family="'Cabin-Regular'" font-size="12">Germany</text>
<text transform="matrix(0.7071 -0.7071 0.7071 0.7071 456.0206 445.6606)" fill="#FBF7F3" font-family="'Cabin-Regular'" font-size="12">Hong Kong</text>
<text transform="matrix(0.7071 -0.7071 0.7071 0.7071 482.3127 445.6614)" fill="#FBF7F3" font-family="'Cabin-Regular'" font-size="12">India</text>
<text transform="matrix(0.7071 -0.7071 0.7071 0.7071 508.3432 445.6601)" fill="#FBF7F3" font-family="'Cabin-Regular'" font-size="12">Italy</text>
<text transform="matrix(0.7071 -0.7071 0.7071 0.7071 533.2205 445.6614)" fill="#FBF7F3" font-family="'Cabin-Regular'" font-size="12">Malaysia</text>
<text transform="matrix(0.7071 -0.7071 0.7071 0.7071 560.4352 445.6621)" fill="#FBF7F3" font-family="'Cabin-Regular'" font-size="12">Netherlands</text>
<text transform="matrix(0.7071 -0.7071 0.7071 0.7071 587.8888 445.6615)" fill="#FBF7F3" font-family="'Cabin-Regular'" font-size="12">New Zeland</text>
<text transform="matrix(0.7071 -0.7071 0.7071 0.7071 615.9534 445.6618)" fill="#FBF7F3" font-family="'Cabin-Regular'" font-size="12">Poland</text>
<text transform="matrix(0.7071 -0.7071 0.7071 0.7071 640.9222 445.6614)" fill="#FBF7F3" font-family="'Cabin-Regular'" font-size="12">Romania</text>
<text transform="matrix(0.7071 -0.7071 0.7071 0.7071 668.8379 445.6613)" fill="#FBF7F3" font-family="'Cabin-Regular'" font-size="12">South Africa</text>
<text transform="matrix(0.7071 -0.7071 0.7071 0.7071 694.9987 445.6609)" fill="#FBF7F3" font-family="'Cabin-Regular'" font-size="12">South Korea</text>
<text transform="matrix(0.7071 -0.7071 0.7071 0.7071 721.1295 445.6613)" fill="#FBF7F3" font-family="'Cabin-Regular'" font-size="12">Spain</text>
<text transform="matrix(0.7071 -0.7071 0.7071 0.7071 775.5307 445.6606)" fill="#FBF7F3" font-family="'Cabin-Regular'" font-size="12">Thailand</text>
<text transform="matrix(0.7071 -0.7071 0.7071 0.7071 827.0677 445.6612)" fill="#FBF7F3" font-family="'Cabin-Regular'" font-size="12">United Kingdom</text>
<text transform="matrix(0.7071 -0.7071 0.7071 0.7071 801.6895 445.6622)" fill="#FBF7F3" font-family="'Cabin-Regular'" font-size="10.6801">USA</text>
<text transform="matrix(0.7071 -0.7071 0.7071 0.7071 748.6317 445.6619)" fill="#FBF7F3" font-family="'Cabin-Regular'" font-size="12">Taiwan</text>
<rect x="853.24" y="458.36" opacity="0.2" fill="#FBF7F3" width="128.47" height="176.01"/>
<line opacity="0.5" fill="none" stroke="#455770" stroke-miterlimit="10" x1="853.2" y1="633.75" x2="853.2" y2="457.81"/>
<line opacity="0.5" fill="none" stroke="#455770" stroke-miterlimit="10" x1="878.77" y1="634.37" x2="878.77" y2="458.43"/>
<line opacity="0.5" fill="none" stroke="#455770" stroke-miterlimit="10" x1="904.3" y1="634.37" x2="904.3" y2="458.43"/>
<line opacity="0.5" fill="none" stroke="#455770" stroke-miterlimit="10" x1="930.11" y1="634.37" x2="930.11" y2="458.43"/>
<line opacity="0.5" fill="none" stroke="#455770" stroke-miterlimit="10" x1="955.64" y1="634.37" x2="955.64" y2="458.43"/>
<line opacity="0.5" fill="none" stroke="#455770" stroke-miterlimit="10" x1="981.45" y1="634.37" x2="981.45" y2="458.43"/>
<text transform="matrix(1 0 0 1 973.7539 646.4392)" fill="#FBF7F3" font-family="'Cabin-Regular'" font-size="9">500</text>
<text transform="matrix(1 0 0 1 947.0107 646.4392)" fill="#FBF7F3" font-family="'Cabin-Regular'" font-size="9">400</text>
<text transform="matrix(1 0 0 1 920.6465 646.4392)" fill="#FBF7F3" font-family="'Cabin-Regular'" font-size="9">300</text>
<text transform="matrix(1 0 0 1 895.2217 646.4392)" fill="#FBF7F3" font-family="'Cabin-Regular'" font-size="9">200</text>
<text transform="matrix(1 0 0 1 869.4648 646.4402)" fill="#FBF7F3" font-family="'Cabin-Regular'" font-size="9">100</text>
<text transform="matrix(1 0 0 1 850.8955 646.4402)" fill="#FBF7F3" font-family="'Cabin-Regular'" font-size="9">0</text>
<line opacity="0.5" fill="none" stroke="#455770" stroke-miterlimit="10" x1="853.84" y1="603.76" x2="981.61" y2="603.76"/>
<line opacity="0.5" fill="none" stroke="#455770" stroke-miterlimit="10" x1="853.84" y1="564.43" x2="981.61" y2="564.43"/>
<line opacity="0.5" fill="none" stroke="#455770" stroke-miterlimit="10" x1="853.84" y1="525.43" x2="981.61" y2="525.43"/>
<line opacity="0.5" fill="none" stroke="#455770" stroke-miterlimit="10" x1="853.84" y1="486.09" x2="981.61" y2="486.09"/>
<rect x="853.32" y="476.61" fill="#455770" stroke="#FBF7F3" stroke-miterlimit="10" width="20.9" height="19.91"/>
<rect x="853.32" y="515.82" fill="#455770" stroke="#FBF7F3" stroke-miterlimit="10" width="27.27" height="19.91"/>
<rect x="853.32" y="554.41" fill="#455770" stroke="#FBF7F3" stroke-miterlimit="10" width="12.18" height="19.91"/>
<rect x="853.32" y="594.25" fill="#455770" stroke="#FBF7F3" stroke-miterlimit="10" width="121.25" height="19.91"/>
<rect x="36.92" y="170.7" fill="none" width="310.48" height="153.99"/>
<text transform="matrix(1 0 0 1 36.9243 181.2008)"><tspan x="0" y="0" fill="#FBF7F3" font-family="'Cabin-Regular'" font-size="14">The visualization shows the analysis of Uber </tspan><tspan x="0" y="22" fill="#FBF7F3" font-family="'Cabin-Regular'" font-size="14">perception in the 26 countries that undertook legal </tspan><tspan x="0" y="44" fill="#FBF7F3" font-family="'Cabin-Regular'" font-size="14">action against the San Francisco company. </tspan><tspan x="0" y="66" fill="#FBF7F3" font-family="'Cabin-Regular'" font-size="14">The pictures have been collected using the query </tspan><tspan x="0" y="88" fill="#FBF7F3" font-family="'Cabin-Italic'" font-size="14">uber + ”name country”</tspan><tspan x="124.86" y="88" fill="#FBF7F3" font-family="'Cabin-Regular'" font-size="14"> on the related country </tspan><tspan x="0" y="110" fill="#FBF7F3" font-family="'Cabin-Regular'" font-size="14">domain. We collected 520 pictures, saving the first </tspan><tspan x="0" y="132" fill="#FBF7F3" font-family="'Cabin-Regular'" font-size="14">20 pictures for each query. Then we tagged each </tspan></text>
<rect x="369.91" y="169.7" fill="none" width="320.15" height="177.99"/>
<text transform="matrix(1 0 0 1 369.9072 180.1997)"><tspan x="0" y="0" fill="#FBF7F3" font-family="'Cabin-Regular'" font-size="14">picture: the “high controversy” tag is related to </tspan><tspan x="0" y="22" fill="#FBF7F3" font-family="'Cabin-Regular'" font-size="14">pictures of protest and demonstration; the “low </tspan><tspan x="0" y="44" fill="#FBF7F3" font-family="'Cabin-Regular'" font-size="14">controversy” tag is assigned when Uber is juxtaposed </tspan><tspan x="0" y="66" fill="#FBF7F3" font-family="'Cabin-Regular'" font-size="14">to taxis; the tag “neutral image” is related to pictures </tspan><tspan x="0" y="88" fill="#FBF7F3" font-family="'Cabin-Regular'" font-size="14">that are not in compliance with the theme; the </tspan><tspan x="0" y="110" fill="#FBF7F3" font-family="'Cabin-Regular'" font-size="14">“promotion tag” is assigned to promoting pictures. </tspan></text>
<line fill="none" stroke="#27E0AD" stroke-width="2" stroke-miterlimit="10" x1="42.37" y1="133.37" x2="326.36" y2="133.37"/>
<rect x="41.04" y="95.15" fill="none" width="329.91" height="30.35"/>
<text transform="matrix(1 0 0 1 41.0396 119.1489)" fill="#FBF7F3" font-family="'Cabin-Bold'" font-size="32" letter-spacing="2">uber perception </text>
<g>
	<polyline fill="none" stroke="#27E0AD" stroke-width="2" stroke-miterlimit="10" points="346.68,115.24 340.78,109.49 
		346.68,103.74 	"/>
	<polyline fill="none" stroke="#27E0AD" stroke-width="2" stroke-miterlimit="10" points="354.14,115.24 348.23,109.49 
		354.14,103.74 	"/>
	<polyline fill="none" stroke="#27E0AD" stroke-width="2" stroke-miterlimit="10" points="361.59,115.24 355.69,109.49 
		361.59,103.74 	"/>
</g>
</svg>
