<?xml version="1.0" encoding="utf-8"?>
<!-- Generator: Adobe Illustrator 18.1.1, SVG Export Plug-In . SVG Version: 6.00 Build 0)  -->
<svg version="1.0" id="Layer_1" xmlns="http://www.w3.org/2000/svg" xmlns:xlink="http://www.w3.org/1999/xlink" x="0px" y="0px"
	 viewBox="0 0 435.93 383.21" enable-background="new 0 0 435.93 383.21" xml:space="preserve">
<g>
	<line fill="#FFFFFF" stroke="#5CC1A1" stroke-width="2" stroke-miterlimit="10" x1="18.54" y1="356.89" x2="9.45" y2="372.39"/>
	<polyline fill="#FFFFFF" stroke="#5CC1A1" stroke-width="2" stroke-miterlimit="10" points="18.31,9.65 9.09,26.11 9.09,373.01 
		419.26,373.01 428.9,357.2 	"/>
	
		<rect x="18.54" y="9.99" fill="#FFFFFF" stroke="#5CC1A1" stroke-width="2" stroke-miterlimit="10" width="410.17" height="346.89"/>
	<line fill="#FFFFFF" stroke="#5CC1A1" stroke-width="2" stroke-miterlimit="10" x1="18.54" y1="356.89" x2="9.09" y2="373.01"/>
	<line fill="#FFFFFF" stroke="#5CC1A1" stroke-width="2" stroke-miterlimit="10" x1="26.41" y1="356.89" x2="16.96" y2="373.01"/>
	<line fill="#FFFFFF" stroke="#5CC1A1" stroke-width="2" stroke-miterlimit="10" x1="34.28" y1="356.89" x2="24.84" y2="373.01"/>
	<line fill="#FFFFFF" stroke="#5CC1A1" stroke-width="2" stroke-miterlimit="10" x1="42.16" y1="356.89" x2="32.71" y2="373.01"/>
	<line fill="#FFFFFF" stroke="#5CC1A1" stroke-width="2" stroke-miterlimit="10" x1="50.03" y1="356.89" x2="40.58" y2="373.01"/>
	<line fill="#FFFFFF" stroke="#5CC1A1" stroke-width="2" stroke-miterlimit="10" x1="57.9" y1="356.89" x2="48.45" y2="373.01"/>
	<line fill="#FFFFFF" stroke="#5CC1A1" stroke-width="2" stroke-miterlimit="10" x1="65.77" y1="356.89" x2="56.33" y2="373.01"/>
	<line fill="#FFFFFF" stroke="#5CC1A1" stroke-width="2" stroke-miterlimit="10" x1="73.65" y1="356.89" x2="64.2" y2="373.01"/>
	<line fill="#FFFFFF" stroke="#5CC1A1" stroke-width="2" stroke-miterlimit="10" x1="81.52" y1="356.89" x2="72.07" y2="373.01"/>
	<line fill="#FFFFFF" stroke="#5CC1A1" stroke-width="2" stroke-miterlimit="10" x1="89.39" y1="356.89" x2="79.94" y2="373.01"/>
	<line fill="#FFFFFF" stroke="#5CC1A1" stroke-width="2" stroke-miterlimit="10" x1="97.26" y1="356.89" x2="87.82" y2="373.01"/>
	<line fill="#FFFFFF" stroke="#5CC1A1" stroke-width="2" stroke-miterlimit="10" x1="105.14" y1="356.89" x2="95.69" y2="373.01"/>
	<line fill="#FFFFFF" stroke="#5CC1A1" stroke-width="2" stroke-miterlimit="10" x1="113.01" y1="356.89" x2="103.56" y2="373.01"/>
	<line fill="#FFFFFF" stroke="#5CC1A1" stroke-width="2" stroke-miterlimit="10" x1="120.88" y1="356.89" x2="111.44" y2="373.01"/>
	<line fill="#FFFFFF" stroke="#5CC1A1" stroke-width="2" stroke-miterlimit="10" x1="128.76" y1="356.89" x2="119.31" y2="373.01"/>
	<line fill="#FFFFFF" stroke="#5CC1A1" stroke-width="2" stroke-miterlimit="10" x1="136.63" y1="356.89" x2="127.18" y2="373.01"/>
	<line fill="#FFFFFF" stroke="#5CC1A1" stroke-width="2" stroke-miterlimit="10" x1="144.5" y1="356.89" x2="135.05" y2="373.01"/>
	<line fill="#FFFFFF" stroke="#5CC1A1" stroke-width="2" stroke-miterlimit="10" x1="152.37" y1="356.89" x2="142.93" y2="373.01"/>
	<line fill="#FFFFFF" stroke="#5CC1A1" stroke-width="2" stroke-miterlimit="10" x1="160.25" y1="356.89" x2="150.8" y2="373.01"/>
	<line fill="#FFFFFF" stroke="#5CC1A1" stroke-width="2" stroke-miterlimit="10" x1="168.12" y1="356.89" x2="158.67" y2="373.01"/>
	<line fill="#FFFFFF" stroke="#5CC1A1" stroke-width="2" stroke-miterlimit="10" x1="175.99" y1="356.89" x2="166.54" y2="373.01"/>
	<line fill="#FFFFFF" stroke="#5CC1A1" stroke-width="2" stroke-miterlimit="10" x1="184.2" y1="356.89" x2="174.75" y2="373.01"/>
	<line fill="#FFFFFF" stroke="#5CC1A1" stroke-width="2" stroke-miterlimit="10" x1="192.07" y1="356.89" x2="182.62" y2="373.01"/>
	<line fill="#FFFFFF" stroke="#5CC1A1" stroke-width="2" stroke-miterlimit="10" x1="199.94" y1="356.89" x2="190.5" y2="373.01"/>
	<line fill="#FFFFFF" stroke="#5CC1A1" stroke-width="2" stroke-miterlimit="10" x1="207.82" y1="356.89" x2="198.37" y2="373.01"/>
	<line fill="#FFFFFF" stroke="#5CC1A1" stroke-width="2" stroke-miterlimit="10" x1="215.69" y1="356.89" x2="206.24" y2="373.01"/>
	<line fill="#FFFFFF" stroke="#5CC1A1" stroke-width="2" stroke-miterlimit="10" x1="223.56" y1="356.89" x2="214.11" y2="373.01"/>
	<line fill="#FFFFFF" stroke="#5CC1A1" stroke-width="2" stroke-miterlimit="10" x1="231.43" y1="356.89" x2="221.99" y2="373.01"/>
	<line fill="#FFFFFF" stroke="#5CC1A1" stroke-width="2" stroke-miterlimit="10" x1="239.31" y1="356.89" x2="229.86" y2="373.01"/>
	<line fill="#FFFFFF" stroke="#5CC1A1" stroke-width="2" stroke-miterlimit="10" x1="247.18" y1="356.89" x2="237.73" y2="373.01"/>
	<line fill="#FFFFFF" stroke="#5CC1A1" stroke-width="2" stroke-miterlimit="10" x1="255.05" y1="356.89" x2="245.6" y2="373.01"/>
	<line fill="#FFFFFF" stroke="#5CC1A1" stroke-width="2" stroke-miterlimit="10" x1="262.92" y1="356.89" x2="253.48" y2="373.01"/>
	<line fill="#FFFFFF" stroke="#5CC1A1" stroke-width="2" stroke-miterlimit="10" x1="270.8" y1="356.89" x2="261.35" y2="373.01"/>
	<line fill="#FFFFFF" stroke="#5CC1A1" stroke-width="2" stroke-miterlimit="10" x1="278.67" y1="356.89" x2="269.22" y2="373.01"/>
	<line fill="#FFFFFF" stroke="#5CC1A1" stroke-width="2" stroke-miterlimit="10" x1="286.54" y1="356.89" x2="277.1" y2="373.01"/>
	<line fill="#FFFFFF" stroke="#5CC1A1" stroke-width="2" stroke-miterlimit="10" x1="294.42" y1="356.89" x2="284.97" y2="373.01"/>
	<line fill="#FFFFFF" stroke="#5CC1A1" stroke-width="2" stroke-miterlimit="10" x1="302.29" y1="356.89" x2="292.84" y2="373.01"/>
	<line fill="#FFFFFF" stroke="#5CC1A1" stroke-width="2" stroke-miterlimit="10" x1="310.16" y1="356.89" x2="300.71" y2="373.01"/>
	<line fill="#FFFFFF" stroke="#5CC1A1" stroke-width="2" stroke-miterlimit="10" x1="318.03" y1="356.89" x2="308.59" y2="373.01"/>
	<line fill="#FFFFFF" stroke="#5CC1A1" stroke-width="2" stroke-miterlimit="10" x1="325.91" y1="356.89" x2="316.46" y2="373.01"/>
	<line fill="#FFFFFF" stroke="#5CC1A1" stroke-width="2" stroke-miterlimit="10" x1="333.78" y1="356.89" x2="324.33" y2="373.01"/>
	<line fill="#FFFFFF" stroke="#5CC1A1" stroke-width="2" stroke-miterlimit="10" x1="341.65" y1="356.89" x2="332.2" y2="373.01"/>
	<line fill="#FFFFFF" stroke="#5CC1A1" stroke-width="2" stroke-miterlimit="10" x1="349.86" y1="356.89" x2="340.41" y2="373.01"/>
	<line fill="#FFFFFF" stroke="#5CC1A1" stroke-width="2" stroke-miterlimit="10" x1="357.73" y1="356.89" x2="348.28" y2="373.01"/>
	<line fill="#FFFFFF" stroke="#5CC1A1" stroke-width="2" stroke-miterlimit="10" x1="365.6" y1="356.89" x2="356.16" y2="373.01"/>
	<line fill="#FFFFFF" stroke="#5CC1A1" stroke-width="2" stroke-miterlimit="10" x1="373.48" y1="356.89" x2="364.03" y2="373.01"/>
	<line fill="#FFFFFF" stroke="#5CC1A1" stroke-width="2" stroke-miterlimit="10" x1="381.35" y1="356.89" x2="371.9" y2="373.01"/>
	<line fill="#FFFFFF" stroke="#5CC1A1" stroke-width="2" stroke-miterlimit="10" x1="389.22" y1="356.89" x2="379.77" y2="373.01"/>
	<line fill="#FFFFFF" stroke="#5CC1A1" stroke-width="2" stroke-miterlimit="10" x1="397.09" y1="356.89" x2="387.65" y2="373.01"/>
	<line fill="#FFFFFF" stroke="#5CC1A1" stroke-width="2" stroke-miterlimit="10" x1="404.97" y1="356.89" x2="395.52" y2="373.01"/>
	<line fill="#FFFFFF" stroke="#5CC1A1" stroke-width="2" stroke-miterlimit="10" x1="412.84" y1="356.89" x2="403.39" y2="373.01"/>
	<line fill="#FFFFFF" stroke="#5CC1A1" stroke-width="2" stroke-miterlimit="10" x1="420.71" y1="356.89" x2="411.26" y2="373.01"/>
</g>
<g>
	<rect x="44.01" y="32.99" fill="none" width="112.52" height="15.73"/>
	<text transform="matrix(1 0 0 1 44.0151 46.4919)" fill="#1E4382" font-family="'Cabin-Medium'" font-size="18">sources</text>
</g>
<line fill="#FFFFFF" stroke="#5CC1A1" stroke-width="2" stroke-miterlimit="10" x1="19.84" y1="67.31" x2="428.61" y2="67.31"/>
<g>
	<rect x="45.42" y="106.68" fill="none" width="356.6" height="230.25"/>
	<text transform="matrix(1 0 0 1 45.4216 117.1756)"><tspan x="0" y="0" fill="#1E4382" font-family="'Cabin-Regular'" font-size="14" letter-spacing="1">Jeremiah Owyang, The Collaborative Economy, </tspan><tspan x="0" y="22" fill="#1E4382" font-family="'Cabin-Regular'" font-size="14" letter-spacing="1">Altimeter Group, 2013</tspan><tspan x="0" y="66" fill="#1E4382" font-family="'Cabin-Regular'" font-size="14" letter-spacing="1">Internet Society, Global Internet Report, 2015</tspan><tspan x="0" y="110" fill="#1E4382" font-family="'Cabin-Regular'" font-size="14" letter-spacing="1">Crowd Companies, Timeline of Large Brands </tspan><tspan x="0" y="132" fill="#1E4382" font-family="'Cabin-Regular'" font-size="14" letter-spacing="1">in the Collaborative Economy, 2015</tspan><tspan x="0" y="176" fill="#1E4382" font-family="'Cabin-Regular'" font-size="14" letter-spacing="1">FAOSTAT, World Urban Population (1961-2015)</tspan></text>
</g>
</svg>
