<?xml version="1.0" encoding="utf-8"?>
<!-- Generator: Adobe Illustrator 19.0.0, SVG Export Plug-In . SVG Version: 6.00 Build 0)  -->
<svg version="1.1" id="Layer_1" xmlns="http://www.w3.org/2000/svg" xmlns:xlink="http://www.w3.org/1999/xlink" x="0px" y="0px"
	 viewBox="-265 157.8 448.2 336.2" style="enable-background:new -265 157.8 448.2 336.2;" xml:space="preserve">
<style type="text/css">
	.st0{fill:none;stroke:#27E0AD;stroke-width:2;stroke-miterlimit:10;}
	.st1{fill:#FFFFFF;stroke:#27E0AD;stroke-width:2;stroke-miterlimit:10;}
	.st2{fill:none;}
	.st3{fill:#27E0AD;}
	.st4{font-family:'OstrichSansInline';}
	.st5{font-size:40px;}
	.st6{fill:none;stroke:#27E0AD;stroke-miterlimit:10;}
</style>
<g>
	<line class="st0" x1="-183.2" y1="449.8" x2="-189.7" y2="460.9"/>
	<polyline class="st1" points="-183.4,201.7 -189.9,213.5 -189.9,461.4 103.1,461.4 110,450.1 	"/>
	<rect x="-183.2" y="202" class="st1" width="293.1" height="247.9"/>
	<line class="st0" x1="-183.2" y1="449.8" x2="-189.9" y2="461.4"/>
	<line class="st0" x1="-177.6" y1="449.8" x2="-184.3" y2="461.4"/>
	<line class="st0" x1="-171.9" y1="449.8" x2="-178.7" y2="461.4"/>
	<line class="st0" x1="-166.3" y1="449.8" x2="-173.1" y2="461.4"/>
	<line class="st0" x1="-160.7" y1="449.8" x2="-167.4" y2="461.4"/>
	<line class="st0" x1="-155.1" y1="449.8" x2="-161.8" y2="461.4"/>
	<line class="st0" x1="-149.4" y1="449.8" x2="-156.2" y2="461.4"/>
	<line class="st0" x1="-143.8" y1="449.8" x2="-150.6" y2="461.4"/>
	<line class="st0" x1="-138.2" y1="449.8" x2="-144.9" y2="461.4"/>
	<line class="st0" x1="-132.6" y1="449.8" x2="-139.3" y2="461.4"/>
	<line class="st0" x1="-126.9" y1="449.8" x2="-133.7" y2="461.4"/>
	<line class="st0" x1="-121.3" y1="449.8" x2="-128.1" y2="461.4"/>
	<line class="st0" x1="-115.7" y1="449.8" x2="-122.4" y2="461.4"/>
	<line class="st0" x1="-110.1" y1="449.8" x2="-116.8" y2="461.4"/>
	<line class="st0" x1="-104.4" y1="449.8" x2="-111.2" y2="461.4"/>
	<line class="st0" x1="-98.8" y1="449.8" x2="-105.6" y2="461.4"/>
	<line class="st0" x1="-93.2" y1="449.8" x2="-99.9" y2="461.4"/>
	<line class="st0" x1="-87.6" y1="449.8" x2="-94.3" y2="461.4"/>
	<line class="st0" x1="-81.9" y1="449.8" x2="-88.7" y2="461.4"/>
	<line class="st0" x1="-76.3" y1="449.8" x2="-83.1" y2="461.4"/>
	<line class="st0" x1="-70.7" y1="449.8" x2="-77.4" y2="461.4"/>
	<line class="st0" x1="-64.8" y1="449.8" x2="-71.6" y2="461.4"/>
	<line class="st0" x1="-59.2" y1="449.8" x2="-66" y2="461.4"/>
	<line class="st0" x1="-53.6" y1="449.8" x2="-60.3" y2="461.4"/>
	<line class="st0" x1="-48" y1="449.8" x2="-54.7" y2="461.4"/>
	<line class="st0" x1="-42.3" y1="449.8" x2="-49.1" y2="461.4"/>
	<line class="st0" x1="-36.7" y1="449.8" x2="-43.5" y2="461.4"/>
	<line class="st0" x1="-31.1" y1="449.8" x2="-37.8" y2="461.4"/>
	<line class="st0" x1="-25.5" y1="449.8" x2="-32.2" y2="461.4"/>
	<line class="st0" x1="-19.8" y1="449.8" x2="-26.6" y2="461.4"/>
	<line class="st0" x1="-14.2" y1="449.8" x2="-21" y2="461.4"/>
	<line class="st0" x1="-8.6" y1="449.8" x2="-15.3" y2="461.4"/>
	<line class="st0" x1="-3" y1="449.8" x2="-9.7" y2="461.4"/>
	<line class="st0" x1="2.7" y1="449.8" x2="-4.1" y2="461.4"/>
	<line class="st0" x1="8.3" y1="449.8" x2="1.5" y2="461.4"/>
	<line class="st0" x1="13.9" y1="449.8" x2="7.2" y2="461.4"/>
	<line class="st0" x1="19.5" y1="449.8" x2="12.8" y2="461.4"/>
	<line class="st0" x1="25.2" y1="449.8" x2="18.4" y2="461.4"/>
	<line class="st0" x1="30.8" y1="449.8" x2="24" y2="461.4"/>
	<line class="st0" x1="36.4" y1="449.8" x2="29.7" y2="461.4"/>
	<line class="st0" x1="42" y1="449.8" x2="35.3" y2="461.4"/>
	<line class="st0" x1="47.7" y1="449.8" x2="40.9" y2="461.4"/>
	<line class="st0" x1="53.5" y1="449.8" x2="46.8" y2="461.4"/>
	<line class="st0" x1="59.2" y1="449.8" x2="52.4" y2="461.4"/>
	<line class="st0" x1="64.8" y1="449.8" x2="58" y2="461.4"/>
	<line class="st0" x1="70.4" y1="449.8" x2="63.7" y2="461.4"/>
	<line class="st0" x1="76" y1="449.8" x2="69.3" y2="461.4"/>
	<line class="st0" x1="81.7" y1="449.8" x2="74.9" y2="461.4"/>
	<line class="st0" x1="87.3" y1="449.8" x2="80.5" y2="461.4"/>
	<line class="st0" x1="92.9" y1="449.8" x2="86.2" y2="461.4"/>
	<line class="st0" x1="98.5" y1="449.8" x2="91.8" y2="461.4"/>
	<line class="st0" x1="104.2" y1="449.8" x2="97.4" y2="461.4"/>
</g>
<rect x="-151.6" y="228.5" class="st2" width="224.1" height="198.2"/>
<text transform="matrix(1 0 0 1 -151.6001 255.5099)"><tspan x="0" y="0" class="st3 st4 st5">What are the </tspan><tspan x="0" y="42" class="st3 st4 st5">main themes </tspan><tspan x="0" y="84" class="st3 st4 st5">connected to </tspan><tspan x="0" y="126" class="st3 st4 st5">the Sharing </tspan><tspan x="0" y="168" class="st3 st4 st5">Economy?</tspan></text>
<rect x="-151.6" y="228.5" class="st2" width="224.1" height="198.2"/>
<g>
	<line class="st6" x1="136.7" y1="429" x2="139.4" y2="426"/>
	<line class="st6" x1="136.7" y1="430.2" x2="139.4" y2="433.1"/>
	<line class="st6" x1="135.2" y1="429" x2="132.5" y2="426"/>
	<line class="st6" x1="135.2" y1="430" x2="132.5" y2="432.9"/>
</g>
<g>
	<line class="st6" x1="152.8" y1="452.8" x2="155.5" y2="449.8"/>
	<line class="st6" x1="152.8" y1="454" x2="155.5" y2="456.9"/>
	<line class="st6" x1="151.3" y1="452.8" x2="148.6" y2="449.8"/>
	<line class="st6" x1="151.3" y1="453.8" x2="148.6" y2="456.8"/>
</g>
<g>
	<line class="st6" x1="122.2" y1="485" x2="125" y2="482.1"/>
	<line class="st6" x1="122.2" y1="486.2" x2="125" y2="489.1"/>
	<line class="st6" x1="120.8" y1="485" x2="118" y2="482.1"/>
	<line class="st6" x1="120.8" y1="486.1" x2="118" y2="489"/>
</g>
<g>
	<line class="st6" x1="-218.4" y1="230.6" x2="-221.1" y2="233.5"/>
	<line class="st6" x1="-218.4" y1="229.4" x2="-221.1" y2="226.5"/>
	<line class="st6" x1="-217" y1="230.6" x2="-214.2" y2="233.5"/>
	<line class="st6" x1="-217" y1="229.5" x2="-214.2" y2="226.6"/>
</g>
<g>
	<line class="st6" x1="-234.6" y1="206.8" x2="-237.3" y2="209.7"/>
	<line class="st6" x1="-234.6" y1="205.6" x2="-237.3" y2="202.7"/>
	<line class="st6" x1="-233.1" y1="206.8" x2="-230.4" y2="209.7"/>
	<line class="st6" x1="-233.1" y1="205.8" x2="-230.4" y2="202.9"/>
</g>
<g>
	<line class="st6" x1="-204" y1="174.6" x2="-206.7" y2="177.5"/>
	<line class="st6" x1="-204" y1="173.3" x2="-206.7" y2="170.4"/>
	<line class="st6" x1="-202.5" y1="174.6" x2="-199.8" y2="177.5"/>
	<line class="st6" x1="-202.5" y1="173.5" x2="-199.8" y2="170.6"/>
</g>
</svg>
