<?xml version="1.0" encoding="utf-8"?>
<!-- Generator: Adobe Illustrator 19.0.0, SVG Export Plug-In . SVG Version: 6.00 Build 0)  -->
<svg version="1.1" id="Layer_1" xmlns="http://www.w3.org/2000/svg" xmlns:xlink="http://www.w3.org/1999/xlink" x="0px" y="0px"
	 viewBox="-283 156.5 412.5 338.5" style="enable-background:new -283 156.5 412.5 338.5;" xml:space="preserve">
<style type="text/css">
	.st0{fill:none;stroke:#27E0AD;stroke-width:2;stroke-miterlimit:10;}
	.st1{fill:#FFFFFF;stroke:#27E0AD;stroke-width:2;stroke-miterlimit:10;}
	.st2{fill:none;}
	.st3{fill:#27E0AD;}
	.st4{font-family:'OstrichSansInline';}
	.st5{font-size:40px;}
	.st6{fill:none;stroke:#27E0AD;stroke-miterlimit:10;}
	.st7{fill:#FFFFFF;stroke:#27E0AD;stroke-miterlimit:10;}
</style>
<g>
	<line class="st0" x1="-221" y1="454.4" x2="-227.5" y2="465.5"/>
	<polyline class="st1" points="-221.2,189.4 -227.9,201.1 -227.9,466 71.3,466 78.2,454.6 	"/>
	<rect x="-221" y="189.6" class="st1" width="299.1" height="264.9"/>
	<line class="st0" x1="-221" y1="454.4" x2="-227.9" y2="466"/>
	<line class="st0" x1="-215.4" y1="454.4" x2="-222.1" y2="466"/>
	<line class="st0" x1="-209.9" y1="454.4" x2="-216.5" y2="466"/>
	<line class="st0" x1="-204.1" y1="454.4" x2="-210.9" y2="466"/>
	<line class="st0" x1="-198.5" y1="454.4" x2="-205.4" y2="466"/>
	<line class="st0" x1="-192.9" y1="454.4" x2="-199.6" y2="466"/>
	<line class="st0" x1="-187.4" y1="454.4" x2="-194" y2="466"/>
	<line class="st0" x1="-181.6" y1="454.4" x2="-188.4" y2="466"/>
	<line class="st0" x1="-176" y1="454.4" x2="-182.9" y2="466"/>
	<line class="st0" x1="-170.4" y1="454.4" x2="-177.1" y2="466"/>
	<line class="st0" x1="-164.9" y1="454.4" x2="-171.5" y2="466"/>
	<line class="st0" x1="-159.1" y1="454.4" x2="-165.9" y2="466"/>
	<line class="st0" x1="-153.5" y1="454.4" x2="-160.4" y2="466"/>
	<line class="st0" x1="-147.9" y1="454.4" x2="-154.6" y2="466"/>
	<line class="st0" x1="-142.4" y1="454.4" x2="-149" y2="466"/>
	<line class="st0" x1="-136.6" y1="454.4" x2="-143.4" y2="466"/>
	<line class="st0" x1="-131" y1="454.4" x2="-137.9" y2="466"/>
	<line class="st0" x1="-125.4" y1="454.4" x2="-132.1" y2="466"/>
	<line class="st0" x1="-119.8" y1="454.4" x2="-126.5" y2="466"/>
	<line class="st0" x1="-114.1" y1="454.4" x2="-120.9" y2="466"/>
	<line class="st0" x1="-108.5" y1="454.4" x2="-115.3" y2="466"/>
	<line class="st0" x1="-102.7" y1="454.4" x2="-109.4" y2="466"/>
	<line class="st0" x1="-97" y1="454.4" x2="-103.8" y2="466"/>
	<line class="st0" x1="-91.4" y1="454.4" x2="-98.2" y2="466"/>
	<line class="st0" x1="-85.8" y1="454.4" x2="-92.5" y2="466"/>
	<line class="st0" x1="-80.2" y1="454.4" x2="-86.9" y2="466"/>
	<line class="st0" x1="-74.5" y1="454.4" x2="-81.3" y2="466"/>
	<line class="st0" x1="-68.9" y1="454.4" x2="-75.7" y2="466"/>
	<line class="st0" x1="-63.3" y1="454.4" x2="-70" y2="466"/>
	<line class="st0" x1="-57.7" y1="454.4" x2="-64.4" y2="466"/>
	<line class="st0" x1="-52" y1="454.4" x2="-58.8" y2="466"/>
	<line class="st0" x1="-46.4" y1="454.4" x2="-53.2" y2="466"/>
	<line class="st0" x1="-40.8" y1="454.4" x2="-47.5" y2="466"/>
	<line class="st0" x1="-35.2" y1="454.4" x2="-41.9" y2="466"/>
	<line class="st0" x1="-29.5" y1="454.4" x2="-36.3" y2="466"/>
	<line class="st0" x1="-23.9" y1="454.4" x2="-30.7" y2="466"/>
	<line class="st0" x1="-18.3" y1="454.4" x2="-25" y2="466"/>
	<line class="st0" x1="-12.7" y1="454.4" x2="-19.4" y2="466"/>
	<line class="st0" x1="-7" y1="454.4" x2="-13.8" y2="466"/>
	<line class="st0" x1="-1.4" y1="454.4" x2="-8.2" y2="466"/>
	<line class="st0" x1="4.2" y1="454.4" x2="-2.5" y2="466"/>
	<line class="st0" x1="9.8" y1="454.4" x2="3.1" y2="466"/>
	<line class="st0" x1="15.7" y1="454.4" x2="9" y2="466"/>
	<line class="st0" x1="21.3" y1="454.4" x2="14.6" y2="466"/>
	<line class="st0" x1="27" y1="454.4" x2="20.2" y2="466"/>
	<line class="st0" x1="32.6" y1="454.4" x2="25.8" y2="466"/>
	<line class="st0" x1="38.2" y1="454.4" x2="31.5" y2="466"/>
	<line class="st0" x1="43.8" y1="454.4" x2="37.1" y2="466"/>
	<line class="st0" x1="49.5" y1="454.4" x2="42.7" y2="466"/>
	<line class="st0" x1="55.1" y1="454.4" x2="48.3" y2="466"/>
	<line class="st0" x1="60.7" y1="454.4" x2="54" y2="466"/>
	<line class="st0" x1="72.3" y1="454.4" x2="65.6" y2="466"/>
	<line class="st0" x1="66.6" y1="454.4" x2="59.9" y2="466"/>
</g>
<rect x="-194" y="220.3" class="st2" width="238.7" height="222.4"/>
<text transform="matrix(1 0 0 1 -193.9749 247.2903)"><tspan x="0" y="0" class="st3 st4 st5">are you ready to </tspan><tspan x="0" y="42" class="st3 st4 st5">be part of</tspan><tspan x="0" y="84" class="st3 st4 st5">this growing</tspan><tspan x="0" y="126" class="st3 st4 st5">economic model?</tspan><tspan x="0" y="168" class="st3 st4 st5">hands on!</tspan></text>
<rect x="-193.9" y="220.4" class="st2" width="238.7" height="222.4"/>
<g>
	<line class="st6" x1="104.8" y1="433.5" x2="107.6" y2="430.6"/>
	<line class="st6" x1="104.8" y1="434.8" x2="107.6" y2="437.6"/>
	<line class="st6" x1="103.4" y1="433.5" x2="100.7" y2="430.6"/>
	<line class="st6" x1="103.4" y1="434.5" x2="100.7" y2="437.5"/>
</g>
<g>
	<line class="st6" x1="121" y1="457.2" x2="123.7" y2="454.4"/>
	<line class="st6" x1="121" y1="458.5" x2="123.7" y2="461.5"/>
	<line class="st6" x1="119.5" y1="457.2" x2="116.8" y2="454.4"/>
	<line class="st6" x1="119.5" y1="458.4" x2="116.8" y2="461.2"/>
</g>
<g>
	<line class="st6" x1="-256.2" y1="218.1" x2="-259" y2="221.1"/>
	<line class="st6" x1="-256.2" y1="216.9" x2="-259" y2="214.1"/>
	<line class="st6" x1="-254.9" y1="218.1" x2="-252" y2="221.1"/>
	<line class="st6" x1="-254.9" y1="217.1" x2="-252" y2="214.2"/>
</g>
<g>
	<line class="st6" x1="-272.4" y1="194.4" x2="-275.1" y2="197.4"/>
	<line class="st6" x1="-272.4" y1="193.1" x2="-275.1" y2="190.2"/>
	<line class="st6" x1="-270.9" y1="194.4" x2="-268.2" y2="197.4"/>
	<line class="st6" x1="-270.9" y1="193.4" x2="-268.2" y2="190.4"/>
</g>
<g>
	<line class="st6" x1="-241.9" y1="162.1" x2="-244.5" y2="165.1"/>
	<line class="st6" x1="-241.9" y1="160.9" x2="-244.5" y2="157.9"/>
	<line class="st6" x1="-240.4" y1="162.1" x2="-237.6" y2="165.1"/>
	<line class="st6" x1="-240.4" y1="161.1" x2="-237.6" y2="158.1"/>
</g>
<g>
	<line class="st6" x1="90.4" y1="489.5" x2="93.1" y2="486.6"/>
	<line class="st6" x1="90.4" y1="490.9" x2="93.1" y2="493.8"/>
	<line class="st6" x1="88.9" y1="489.5" x2="86.2" y2="486.6"/>
	<line class="st6" x1="88.9" y1="490.6" x2="86.2" y2="493.5"/>
</g>
<rect x="-193.3" y="423" class="st7" width="116" height="1.9"/>
</svg>
