<?xml version="1.0" encoding="utf-8"?>
<!-- Generator: Adobe Illustrator 19.0.0, SVG Export Plug-In . SVG Version: 6.00 Build 0)  -->
<svg version="1.1" id="Livello_1" xmlns="http://www.w3.org/2000/svg" xmlns:xlink="http://www.w3.org/1999/xlink" x="0px" y="0px"
	 viewBox="-18 57 942 537" style="enable-background:new -18 57 942 537;" xml:space="preserve">
<style type="text/css">
	.st0{fill:#FFFFFF;stroke:#27E0AD;stroke-width:2;stroke-miterlimit:10;}
	.st1{fill:none;stroke:#27E0AD;stroke-width:2;stroke-miterlimit:10;}
	.st2{enable-background:new    ;}
	.st3{fill:#063F84;}
	.st4{fill:#FBF7F3;}
	.st5{fill:none;stroke:#FBF7F3;stroke-miterlimit:10;}
	.st6{fill:none;}
	.st7{fill:#27E0AD;}
	.st8{fill:none;stroke:#27E0AD;stroke-width:2;stroke-linecap:round;stroke-miterlimit:10;}
	.st9{font-family:'Cabin-Regular';}
	.st10{font-size:12px;}
</style>
<path class="st0" d="M679.7,570.4"/>
<path class="st0" d="M130.8,492.9"/>
<line class="st1" x1="49.1" y1="493.9" x2="40.5" y2="502.5"/>
<polyline class="st0" points="48.9,443.6 40.2,452.7 40.2,502.9 130.8,502.9 139.9,494.1 "/>
<rect x="49.1" y="443.6" class="st0" width="90.6" height="50.1"/>
<line class="st1" x1="50.1" y1="493.9" x2="41.1" y2="502.9"/>
<line class="st1" x1="57.6" y1="493.9" x2="48.6" y2="502.9"/>
<line class="st1" x1="65" y1="493.9" x2="56.1" y2="502.9"/>
<line class="st1" x1="72.5" y1="493.9" x2="63.5" y2="502.9"/>
<line class="st1" x1="80" y1="493.9" x2="71" y2="502.9"/>
<line class="st1" x1="87.4" y1="493.9" x2="78.5" y2="502.9"/>
<line class="st1" x1="94.9" y1="493.9" x2="85.9" y2="502.9"/>
<line class="st1" x1="102.4" y1="493.9" x2="93.4" y2="502.9"/>
<line class="st1" x1="109.8" y1="493.9" x2="100.9" y2="502.9"/>
<line class="st1" x1="117.3" y1="493.9" x2="108.3" y2="502.9"/>
<line class="st1" x1="124.8" y1="493.9" x2="115.8" y2="502.9"/>
<line class="st1" x1="132.2" y1="493.9" x2="123.3" y2="502.9"/>
<path class="st0" d="M139.7,493.9"/>
<g>
	<g id="XMLID_232_" class="st2">
		<path class="st3" d="M72.9,469.9v2.4h-1.5v-2.4h-2.6v-1.6h2.6v-2.3h1.5v2.3h2.6v1.6H72.9z"/>
		<path class="st3" d="M77.3,470.7c0-1.1,0.5-2.3,2.2-3.4c-1.2-0.9-1.5-1.9-1.5-2.9c0-1.5,0.9-3.1,3.8-3.1c2.8,0,3.6,1.4,3.6,2.9
			c0,1.3-0.6,2-1.9,3c1.7,0.6,2.6,1.7,2.6,3.4c0,1.7-1.4,3.9-4.6,3.9C78.6,474.3,77.3,472.5,77.3,470.7z M79.3,470.6
			c0,1.4,0.9,2,2.4,2c1.5,0,2.5-0.9,2.5-2.2c0-1.3-1.1-2.2-2.4-2.5C80.4,468.3,79.3,469.1,79.3,470.6z M79.8,464.5
			c0,0.8,0.6,1.5,1.9,2c1.4-0.4,2-1.3,2-2.1c0-0.9-0.6-1.5-1.9-1.5S79.8,463.5,79.8,464.5z"/>
		<path class="st3" d="M94.8,470.7v3.4h-2v-3.4h-5.4l5.8-9.2h1.6v7.5h1.5v1.7H94.8z M92.9,464.7l-2.6,4.3h2.6V464.7z"/>
		<path class="st3" d="M98,464.8c0-2.2,1.2-3.4,2.7-3.4c1.5,0,2.6,1.2,2.6,3.3c0,2.2-1.1,3.4-2.7,3.4C99.1,468.1,98,466.9,98,464.8z
			 M99.2,464.8c0,1.4,0.7,2.2,1.5,2.2c0.9,0,1.6-0.8,1.6-2.4c0-1.4-0.7-2.2-1.5-2.2C99.9,462.5,99.2,463.3,99.2,464.8z M101.8,474.3
			h-1.5l7.6-12.8h1.5L101.8,474.3z M106.5,471c0-2.1,1.3-3.4,2.8-3.4c1.5,0,2.7,1.2,2.7,3.3c0,2.1-1.1,3.4-2.8,3.4
			C107.6,474.3,106.5,473.1,106.5,471z M107.6,471c0,1.5,0.6,2.3,1.6,2.3c1,0,1.7-0.8,1.7-2.4c0-1.5-0.7-2.3-1.6-2.3
			C108.3,468.6,107.6,469.4,107.6,471z"/>
	</g>
</g>
<g id="XMLID_19_">
	<path id="XMLID_20_" class="st4" d="M50.5,219.6l-0.9-6.9l-2.8,4.7l-2.8-4.7l-0.9,6.9H41l1.5-10.2H44l2.7,4.7l2.7-4.7h1.5l1.5,10.2
		C52.4,219.6,50.5,219.6,50.5,219.6z"/>
	<path id="XMLID_22_" class="st4" d="M54.7,214.5c0-3.2,2.2-5.3,5.3-5.3s5.3,2.1,5.3,5.3s-2.2,5.3-5.3,5.3S54.7,217.8,54.7,214.5z
		 M56.8,214.5c0,2.1,1.1,3.6,3.3,3.6c2.2,0,3.3-1.5,3.3-3.6c0-2-1.1-3.5-3.3-3.5S56.8,212.5,56.8,214.5z"/>
	<path id="XMLID_25_" class="st4" d="M68.3,219.6v-10.2h2.8c2.5,0,4.1,0.4,4.1,2.6c0,0.9-0.2,1.6-0.9,2.1c1.3,0.5,1.8,1.2,1.8,2.5
		c0,2.4-2,3-3.8,3L68.3,219.6L68.3,219.6z M70.1,211v2.5H72c0.6,0,1.4-0.2,1.4-1.2c0-1.1-0.7-1.3-1.7-1.3H70.1z M70.1,215v3.1H72
		c1.4,0,2.2-0.3,2.2-1.5s-0.9-1.5-2-1.5C72.2,215,70.1,215,70.1,215z"/>
	<path id="XMLID_33_" class="st4" d="M79,219.6v-10.2h1.8v10.2H79z"/>
	<path id="XMLID_37_" class="st4" d="M84.3,219.6v-10.2h1.8v8.4h4.6v1.8H84.3z"/>
	<path id="XMLID_39_" class="st4" d="M93.2,219.6v-10.2h6.9v1.8h-4.9v2.2h3.9v1.8h-3.9v2.7h5.1v1.8L93.2,219.6L93.2,219.6z"/>
	<path id="XMLID_41_" class="st4" d="M108,219.6v-10.2h4.1c3.1,0,5.4,1.9,5.4,5.1c0,3.2-2.2,5.1-5.4,5.1L108,219.6L108,219.6z
		 M109.9,211.2v6.7h2.2c2.2,0,3.3-1.3,3.3-3.3s-1.1-3.3-3.3-3.3L109.9,211.2L109.9,211.2z"/>
	<path id="XMLID_44_" class="st4" d="M120.3,219.6v-10.2h6.9v1.8h-4.9v2.2h3.9v1.8h-3.9v2.7h5.1v1.8L120.3,219.6L120.3,219.6z"/>
	<path id="XMLID_46_" class="st4" d="M135.1,219.6h-2.2l-4-10.2h1.9l3.1,7.8l3.1-7.8h1.9L135.1,219.6z"/>
	<path id="XMLID_48_" class="st4" d="M141.3,219.6v-10.2h1.9v10.2H141.3z"/>
	<path id="XMLID_50_" class="st4" d="M146,214.5c0-3.2,2.3-5.3,5.4-5.3c1.1,0,2.3,0.2,3.1,0.6l-0.2,1.8c-0.9-0.3-1.7-0.6-2.9-0.6
		c-2.2,0-3.3,1.5-3.3,3.5c0,2.1,1.1,3.6,3.3,3.6c1.1,0,1.9-0.2,2.9-0.6l0.2,1.8c-0.8,0.4-1.9,0.6-3.1,0.6
		C148.3,219.8,146,217.8,146,214.5z"/>
	<path id="XMLID_52_" class="st4" d="M157.3,219.6v-10.2h6.9v1.8h-4.9v2.2h3.9v1.8h-3.9v2.7h5.1v1.8L157.3,219.6L157.3,219.6z"/>
	<path id="XMLID_54_" class="st4" d="M166.7,219.1l0.2-2.1c0.6,0.5,1.8,1.1,3.4,1.1c1.2,0,2.1-0.3,2.1-1.1c0-1-1.2-1.4-2.6-1.8
		c-1.6-0.5-3.3-1-3.3-2.8c0-1.3,1-3.1,3.9-3.1c1.5,0,2.9,0.5,3.4,0.8l-0.2,1.9c-1.1-0.6-2.1-0.9-3.2-0.9c-0.9,0-2.1,0.2-2.1,1.1
		c0,0.8,1,1.1,2.2,1.5c1.7,0.5,3.8,1.1,3.8,3.3c0,1.1-0.5,2.9-4.2,2.9C168.7,219.8,167.4,219.5,166.7,219.1z"/>
	<path id="XMLID_56_" class="st4" d="M47.9,241.6l-0.9-2.5h-3.7l-0.9,2.5h-1.9l3.8-10.2H46l3.8,10.2H47.9z M45,234.3l-1.2,3h2.5
		L45,234.3z"/>
	<path id="XMLID_59_" class="st4" d="M59.1,241.6l-5.1-7.1v7.1h-1.9v-10.2H54l4.8,6.6v-6.6h1.9v10.2H59.1z"/>
	<path id="XMLID_61_" class="st4" d="M64.1,241.6v-10.2h4.1c3.1,0,5.3,1.9,5.3,5.1c0,3.2-2.2,5.1-5.3,5.1L64.1,241.6L64.1,241.6z
		 M66,233.2v6.7h2.2c2.2,0,3.3-1.3,3.3-3.3s-1.1-3.3-3.3-3.3L66,233.2L66,233.2z"/>
	<path id="XMLID_64_" class="st4" d="M83.3,238.3v3.4h-1.9v-10.2h3.2c2.8,0,4.4,0.4,4.4,3.2c0,2.9-2.2,3.6-3.7,3.6H83.3z M83.3,233
		v3.6h1.8c1.5,0,2.1-0.5,2.1-1.9c0-1.2-0.5-1.7-2.2-1.7L83.3,233L83.3,233z"/>
	<path id="XMLID_67_" class="st4" d="M91.6,241.6v-10.2h1.8v8.4H98v1.8H91.6z"/>
	<path id="XMLID_69_" class="st4" d="M106.9,241.6l-0.9-2.5h-3.7l-0.9,2.5h-1.9l3.9-10.2h1.8l3.9,10.2H106.9z M104,234.3l-1.2,3h2.5
		L104,234.3z"/>
	<path id="XMLID_72_" class="st4" d="M114.2,233.2v8.4h-1.9v-8.4h-3.1v-1.8h8.1v1.8H114.2z"/>
	<path id="XMLID_74_" class="st4" d="M121.7,233.2v2.2h3.7v1.8h-3.7v4.4h-1.9v-10.2h6.7v1.8H121.7L121.7,233.2z"/>
	<path id="XMLID_76_" class="st4" d="M128.4,236.5c0-3.2,2.2-5.3,5.4-5.3s5.4,2.1,5.4,5.3s-2.2,5.3-5.4,5.3S128.4,239.8,128.4,236.5
		z M130.4,236.5c0,2.1,1.1,3.6,3.3,3.6s3.3-1.5,3.3-3.6c0-2-1.1-3.5-3.3-3.5S130.4,234.5,130.4,236.5z"/>
	<path id="XMLID_79_" class="st4" d="M148.1,241.6l-2.3-3.8h-2.1v3.8h-1.9v-10.2h3.9c2.1,0,3.7,0.7,3.7,2.9c0,1.6-0.8,2.4-1.9,3
		l2.5,4.3H148.1z M143.8,233v3.1h1.6c1.6,0,2.1-0.6,2.1-1.6s-0.5-1.6-2.1-1.6C145.4,233,143.8,233,143.8,233z"/>
	<path id="XMLID_82_" class="st4" d="M161.7,241.6l-0.9-6.9l-2.8,4.7l-2.8-4.7l-0.9,6.9h-1.9l1.5-10.2h1.5l2.7,4.7l2.7-4.7h1.5
		l1.5,10.2C163.6,241.6,161.7,241.6,161.7,241.6z"/>
	<path id="XMLID_84_" class="st4" d="M166.2,241.1l0.2-2.1c0.6,0.5,1.8,1.1,3.4,1.1c1.2,0,2.1-0.3,2.1-1.1c0-1-1.2-1.4-2.6-1.8
		c-1.6-0.5-3.3-1-3.3-2.8c0-1.3,1-3.1,3.9-3.1c1.5,0,2.9,0.5,3.4,0.8l-0.2,1.9c-1.1-0.6-2.1-0.9-3.2-0.9c-0.9,0-2.1,0.2-2.1,1.1
		c0,0.8,1,1.1,2.2,1.5c1.7,0.5,3.8,1.1,3.8,3.3c0,1.1-0.5,2.9-4.2,2.9C168.1,241.8,166.8,241.5,166.2,241.1z"/>
</g>
<line class="st5" x1="42" y1="259.2" x2="42" y2="401.7"/>
<line class="st5" x1="151.2" y1="259.2" x2="151.2" y2="401.7"/>
<rect id="XMLID_17_" x="22.6" y="408" class="st6" width="40.9" height="11.6"/>
<g class="st2">
	<path class="st4" d="M23.2,417c3.2-4.5,3.5-5.5,3.5-6.1c0-0.9-0.6-1.4-1.5-1.4c-1,0-1.6,0.7-2,1.1l-0.1-1c0.1-0.3,0.9-1.2,2.4-1.2
		c1.8,0,2.3,1.2,2.3,2.3c0,1.1-0.7,2.6-2.6,5.2h2.9v1H23.2z"/>
	<path class="st4" d="M29.6,412.9c0-2.7,1.6-4.5,3.6-4.5c2,0,3.5,1.7,3.5,4.3c0,2.7-1.5,4.4-3.6,4.4C31,417.1,29.6,415.5,29.6,412.9
		z M30.8,412.9c0,2.2,0.9,3.2,2.3,3.2c1.4,0,2.4-1.1,2.4-3.4c0-2.1-1-3.3-2.3-3.3C32,409.4,30.8,410.6,30.8,412.9z"/>
	<path class="st4" d="M38.2,412.9c0-2.7,1.6-4.5,3.6-4.5c2,0,3.5,1.7,3.5,4.3c0,2.7-1.5,4.4-3.6,4.4
		C39.6,417.1,38.2,415.5,38.2,412.9z M39.4,412.9c0,2.2,0.9,3.2,2.3,3.2c1.4,0,2.4-1.1,2.4-3.4c0-2.1-1-3.3-2.3-3.3
		C40.5,409.4,39.4,410.6,39.4,412.9z"/>
	<path class="st4" d="M46.8,412.9c0-2.7,1.6-4.5,3.6-4.5c2,0,3.5,1.7,3.5,4.3c0,2.7-1.5,4.4-3.6,4.4
		C48.2,417.1,46.8,415.5,46.8,412.9z M48,412.9c0,2.2,0.9,3.2,2.3,3.2c1.4,0,2.4-1.1,2.4-3.4c0-2.1-1-3.3-2.3-3.3
		C49.1,409.4,48,410.6,48,412.9z"/>
</g>
<rect id="XMLID_16_" x="130.7" y="408" class="st6" width="40.9" height="11.6"/>
<g class="st2">
	<path class="st4" d="M137.2,417c3.2-4.5,3.5-5.5,3.5-6.1c0-0.9-0.6-1.4-1.5-1.4c-1,0-1.6,0.7-2,1.1l-0.1-1c0.1-0.3,0.9-1.2,2.4-1.2
		c1.8,0,2.3,1.2,2.3,2.3c0,1.1-0.7,2.6-2.6,5.2h2.9v1H137.2z"/>
	<path class="st4" d="M143.6,412.9c0-2.7,1.6-4.5,3.6-4.5c2,0,3.5,1.7,3.5,4.3c0,2.7-1.5,4.4-3.6,4.4
		C145,417.1,143.6,415.5,143.6,412.9z M144.8,412.9c0,2.2,0.9,3.2,2.3,3.2c1.4,0,2.4-1.1,2.4-3.4c0-2.1-1-3.3-2.3-3.3
		C145.9,409.4,144.8,410.6,144.8,412.9z"/>
	<path class="st4" d="M153.3,417v-6.8c-0.6,0.5-0.9,0.6-1.2,0.7l-0.2-1.1c0.6-0.2,1.4-0.7,1.8-1.3h0.9v8.4H153.3z"/>
	<path class="st4" d="M156.3,416.7l0.3-1.1c0.5,0.3,1.2,0.5,1.7,0.5c1.1,0,2-0.8,2-1.9c0-1-0.7-1.5-2.5-1.5h-1l0.5-4.1h3.8l-0.1,1
		h-2.8l-0.2,2.1c2.6,0,3.6,0.8,3.6,2.4c0,1.8-1.6,3-3.2,3C157.5,417.1,156.5,416.9,156.3,416.7z"/>
</g>
<rect id="XMLID_15_" x="-4.5" y="366.1" class="st6" width="40.9" height="11.6"/>
<g class="st2">
	<path class="st4" d="M15.2,375.2v-6.8c-0.6,0.5-0.9,0.6-1.2,0.7l-0.2-1.1c0.6-0.2,1.4-0.7,1.8-1.3h0.9v8.4H15.2z"/>
	<path class="st4" d="M18.3,375.2c3.2-4.5,3.5-5.5,3.5-6.1c0-0.9-0.6-1.4-1.5-1.4c-1,0-1.6,0.7-2,1.1l-0.1-1
		c0.1-0.3,0.9-1.2,2.4-1.2c1.8,0,2.3,1.2,2.3,2.3c0,1.1-0.7,2.6-2.6,5.2h2.9v1H18.3z"/>
	<path class="st4" d="M24.3,369c0-1.5,0.8-2.3,1.8-2.3c1,0,1.8,0.8,1.8,2.2c0,1.5-0.8,2.3-1.8,2.3C25,371.2,24.3,370.4,24.3,369z
		 M25,369c0,0.9,0.5,1.6,1.1,1.6c0.6,0,1.1-0.6,1.1-1.7c0-0.9-0.5-1.6-1.1-1.6C25.5,367.3,25,368,25,369z M26.7,375.3h-0.9l5-8.5
		h0.9L26.7,375.3z M29.9,373.1c0-1.5,0.9-2.3,1.8-2.3c1,0,1.8,0.8,1.8,2.2c0,1.5-0.8,2.3-1.8,2.3C30.7,375.3,29.9,374.5,29.9,373.1z
		 M30.5,373.1c0,1,0.5,1.6,1.2,1.6c0.7,0,1.2-0.6,1.2-1.7c0-1-0.5-1.6-1.2-1.6S30.5,372,30.5,373.1z"/>
</g>
<rect id="XMLID_14_" x="155.8" y="260.7" class="st6" width="40.9" height="11.6"/>
<g class="st2">
	<path class="st4" d="M161.9,264.1c0,3.6-2.3,5.5-3.5,5.5l-0.9-0.5c1.2-0.5,2.7-1.4,3-3.6c-0.3,0.4-1,0.7-1.7,0.7
		c-1.5,0-2.5-0.8-2.5-2.4c0-1.6,1.1-2.8,2.9-2.8C160.6,261.1,161.9,261.8,161.9,264.1z M160.7,263.7c0-1.1-0.8-1.6-1.6-1.6
		c-1.1,0-1.6,0.9-1.6,1.7c0,0.6,0.3,1.5,1.5,1.5C159.9,265.3,160.7,264.7,160.7,263.7z"/>
	<path class="st4" d="M163.4,266.8c0-3.2,2.3-5.5,3.6-5.5l0.8,0.5c-1.2,0.5-2.5,1.3-3.1,3.7c0.4-0.6,1.1-0.8,1.7-0.8
		c1.4,0,2.5,0.8,2.5,2.4c0,1.5-1.1,2.8-2.9,2.8C164.5,269.8,163.4,269,163.4,266.8z M164.6,267.3c0,1.1,0.8,1.6,1.6,1.6
		c1.1,0,1.6-0.9,1.6-1.7c0-0.6-0.3-1.5-1.5-1.5C165.3,265.6,164.6,266.3,164.6,267.3z"/>
	<path class="st4" d="M169.9,263.5c0-1.5,0.8-2.3,1.8-2.3c1,0,1.8,0.8,1.8,2.2c0,1.5-0.8,2.3-1.8,2.3
		C170.6,265.7,169.9,264.9,169.9,263.5z M170.5,263.5c0,0.9,0.5,1.6,1.1,1.6c0.6,0,1.1-0.6,1.1-1.7c0-0.9-0.5-1.6-1.1-1.6
		C171,261.8,170.5,262.5,170.5,263.5z M172.3,269.8h-0.9l5-8.5h0.9L172.3,269.8z M175.5,267.6c0-1.5,0.9-2.3,1.8-2.3
		c1,0,1.8,0.8,1.8,2.2c0,1.5-0.8,2.3-1.8,2.3C176.2,269.8,175.5,269,175.5,267.6z M176.1,267.6c0,1,0.5,1.6,1.2,1.6
		c0.7,0,1.2-0.6,1.2-1.7c0-1-0.5-1.6-1.2-1.6S176.1,266.5,176.1,267.6z"/>
</g>
<g>
	<g>
		<g>
			<rect x="40.8" y="370.7" class="st7" width="2.4" height="2.3"/>
		</g>
	</g>
</g>
<g>
	<g>
		<g>
			<rect x="150.1" y="264.1" class="st7" width="2.4" height="2.3"/>
		</g>
	</g>
</g>
<line class="st8" x1="151.1" y1="265.3" x2="41.9" y2="372"/>
<g class="st2">
	<path class="st4" d="M40.6,527.8c0-1.8,1.1-3.2,3-3.2s3,1.4,3,3.2s-1.1,3.2-3,3.2C41.7,530.9,40.6,529.5,40.6,527.8z M41.7,527.8
		c0,1.4,0.7,2.2,1.9,2.2s1.9-0.8,1.9-2.2c0-1.4-0.7-2.2-1.9-2.2S41.7,526.4,41.7,527.8z"/>
	<path class="st4" d="M50.3,525.6v5.2h-1.1v-5.2h-1.1l0.1-0.9h0.9v-1.5c0-1,0.5-1.7,1.4-1.7c0.7,0,1,0.1,1.3,0.2l-0.2,0.9
		c-0.3-0.1-0.5-0.1-0.7-0.1c-0.6,0-0.6,0.2-0.6,1.5v0.7h1.6v0.9H50.3z"/>
	<path class="st4" d="M58.8,530v3.8h-1.1v-9.1h0.9l0.1,0.9c0.5-0.6,1.1-1,2-1c1.7,0,2.7,1.5,2.7,3.2c0,1.8-0.9,3.2-2.7,3.2
		C60.2,530.9,59.3,530.6,58.8,530z M58.8,527.8c0,1.5,1,2.2,1.9,2.2c1.1,0,1.7-1,1.7-2.2s-0.6-2.2-1.7-2.2
		C59.7,525.6,58.8,526.3,58.8,527.8z"/>
	<path class="st4" d="M66.4,527.8c0.2,1.7,1.1,2.2,2.3,2.2c0.6,0,1.2-0.1,1.8-0.4l0.1,0.9c-0.5,0.2-1.2,0.5-2,0.5
		c-2.1,0-3.3-1.5-3.3-3.2s1.1-3.1,3-3.1c1.5,0,2.6,0.9,2.6,2.6c0,0.2,0,0.4,0,0.6h-4.5V527.8z M66.5,527h3.2c0-0.9-0.5-1.4-1.5-1.4
		S66.7,526.1,66.5,527z"/>
	<path class="st4" d="M72.7,527.8c0-1.8,1.1-3.2,3-3.2s3,1.4,3,3.2s-1.1,3.2-3,3.2C73.8,530.9,72.7,529.5,72.7,527.8z M73.8,527.8
		c0,1.4,0.7,2.2,1.9,2.2c1.2,0,1.9-0.8,1.9-2.2c0-1.4-0.7-2.2-1.9-2.2S73.8,526.4,73.8,527.8z"/>
	<path class="st4" d="M82,530v3.8h-1.1v-9.1h0.9l0.1,0.9c0.5-0.6,1.1-1,2-1c1.7,0,2.7,1.5,2.7,3.2c0,1.8-0.9,3.2-2.7,3.2
		C83.4,530.9,82.5,530.6,82,530z M82,527.8c0,1.5,1,2.2,1.9,2.2c1.1,0,1.7-1,1.7-2.2s-0.6-2.2-1.7-2.2C82.9,525.6,82,526.3,82,527.8
		z"/>
	<path class="st4" d="M90.8,530.9h-0.4c-1.2,0-1.6-0.7-1.6-1.5v-8h1.1v7.3c0,1,0.1,1.2,1,1.2L90.8,530.9z"/>
	<path class="st4" d="M93.5,527.8c0.2,1.7,1.1,2.2,2.3,2.2c0.6,0,1.2-0.1,1.8-0.4l0.1,0.9c-0.5,0.2-1.2,0.5-2,0.5
		c-2.1,0-3.3-1.5-3.3-3.2s1.1-3.1,3-3.1c1.5,0,2.6,0.9,2.6,2.6c0,0.2,0,0.4,0,0.6h-4.5V527.8z M93.6,527h3.2c0-0.9-0.5-1.4-1.5-1.4
		C94.4,525.6,93.9,526.1,93.6,527z"/>
	<path class="st4" d="M108,530.8l-0.1-0.7c-0.4,0.5-0.9,0.8-1.7,0.8c-1.4,0-2.2-0.8-2.2-2.7v-3.5h1.1v3.2c0,1.3,0.4,2,1.4,2
		c0.6,0,1.1-0.2,1.4-0.7v-4.5h1.1v6.1L108,530.8L108,530.8z"/>
	<path class="st4" d="M111.2,530.4l0.1-1.1c0.3,0.2,1,0.6,1.9,0.6c0.8,0,1.2-0.3,1.2-0.8c0-0.6-0.7-0.9-1.2-1
		c-0.8-0.2-1.9-0.5-1.9-1.8c0-0.9,0.6-1.8,2.3-1.8c0.8,0,1.3,0.2,1.7,0.4l-0.1,1c-0.4-0.3-0.8-0.5-1.5-0.5s-1.2,0.2-1.2,0.8
		c0,0.6,0.5,0.7,1.4,1c0.6,0.2,1.7,0.5,1.7,1.8c0,0.8-0.5,1.8-2.3,1.8C112.2,530.9,111.5,530.6,111.2,530.4z"/>
	<path class="st4" d="M118.5,527.8c0.2,1.7,1.1,2.2,2.3,2.2c0.6,0,1.2-0.1,1.8-0.4l0.1,0.9c-0.5,0.2-1.2,0.5-2,0.5
		c-2.1,0-3.3-1.5-3.3-3.2s1.1-3.1,3-3.1c1.5,0,2.6,0.9,2.6,2.6c0,0.2,0,0.4,0,0.6h-4.5V527.8z M118.6,527h3.2c0-0.9-0.5-1.4-1.5-1.4
		S118.8,526.1,118.6,527z"/>
	<path class="st4" d="M133.9,530.9L133.9,530.9c-1.2,0-1.4-0.3-1.7-0.9c-0.5,0.5-1.1,0.9-1.9,0.9c-1.1,0-1.9-0.7-1.9-1.8
		c0-1.7,2.1-2.1,3.6-2.2c0-1.2-0.5-1.4-1.3-1.4c-0.5,0-1,0.1-1.6,0.5l-0.2-0.9c0.5-0.4,1.3-0.6,2.1-0.6c1.5,0,2.1,0.7,2.1,2.9v1.2
		c0,0.9,0,1.3,0.7,1.3h0.1L133.9,530.9z M132.1,527.8c-1.8,0.1-2.5,0.4-2.5,1.3c0,0.7,0.4,0.9,0.9,0.9c0.6,0,1.2-0.3,1.6-0.8V527.8z
		"/>
	<path class="st4" d="M139.4,530.4l0.1-1.1c0.3,0.2,1,0.6,1.9,0.6c0.8,0,1.2-0.3,1.2-0.8c0-0.6-0.7-0.9-1.2-1
		c-0.8-0.2-1.9-0.5-1.9-1.8c0-0.9,0.6-1.8,2.3-1.8c0.8,0,1.3,0.2,1.7,0.4l-0.1,1c-0.4-0.3-0.8-0.5-1.5-0.5s-1.2,0.2-1.2,0.8
		c0,0.6,0.5,0.7,1.4,1c0.6,0.2,1.7,0.5,1.7,1.8c0,0.8-0.5,1.8-2.3,1.8C140.4,530.9,139.7,530.6,139.4,530.4z"/>
	<path class="st4" d="M154.3,530.8v-3.6c0-1.1-0.4-1.6-1.4-1.6c-1.4,0-1.6,1-1.6,1.7v3.5h-1.1v-3.4c0-1.5-0.6-1.9-1.4-1.9
		c-0.7,0-1.3,0.2-1.6,0.8v4.4h-1.1v-6.1h0.9l0.1,0.6c0.7-0.6,1.2-0.8,1.8-0.8c0.7,0,1.5,0.2,2.1,1.2c0.4-0.8,1.1-1.2,2.2-1.2
		c1.5,0,2.3,0.8,2.3,2.6v3.6h-1.2V530.8z"/>
	<path class="st4" d="M162.8,530.9L162.8,530.9c-1.2,0-1.4-0.3-1.7-0.9c-0.5,0.5-1.1,0.9-1.9,0.9c-1.1,0-1.9-0.7-1.9-1.8
		c0-1.7,2.1-2.1,3.6-2.2c0-1.2-0.5-1.4-1.3-1.4c-0.5,0-1,0.1-1.6,0.5l-0.2-0.9c0.5-0.4,1.3-0.6,2.1-0.6c1.5,0,2.1,0.7,2.1,2.9v1.2
		c0,0.9,0,1.3,0.7,1.3h0.1L162.8,530.9z M161,527.8c-1.8,0.1-2.5,0.4-2.5,1.3c0,0.7,0.4,0.9,0.9,0.9c0.6,0,1.2-0.3,1.6-0.8V527.8z"
		/>
	<path class="st4" d="M167.8,525.7h-0.4c-0.5,0-1.2,0.4-1.4,0.8v4.3h-1.2v-6.1h0.9l0.1,1c0.7-0.8,1.3-1.2,2.1-1.2h0.1L167.8,525.7z"
		/>
	<path class="st4" d="M173,530.9h-1c-1.2,0-1.6-0.7-1.6-1.5v-3.9h-1l0.1-0.9h0.9v-1.5l1.1-0.1v1.6h1.6v0.9h-1.6v3.2
		c0,1.2,0.1,1.2,1.3,1.2h0.3L173,530.9z"/>
	<path class="st4" d="M176.2,530v3.8h-1.1v-9.1h0.9l0.1,0.9c0.5-0.6,1.1-1,2-1c1.7,0,2.7,1.5,2.7,3.2c0,1.8-0.9,3.2-2.7,3.2
		C177.6,530.9,176.7,530.6,176.2,530z M176.2,527.8c0,1.5,1,2.2,1.9,2.2c1.1,0,1.7-1,1.7-2.2s-0.6-2.2-1.7-2.2
		C177.1,525.6,176.2,526.3,176.2,527.8z"/>
	<path class="st4" d="M187.2,530.8v-3.3c0-1.4-0.4-2-1.5-2c-0.7,0-1.2,0.2-1.6,0.8v4.4H183v-9.3h1.1v3.9c0.4-0.5,1-0.8,1.8-0.8
		c1.8,0,2.4,1.2,2.4,3v3.3H187.2z"/>
	<path class="st4" d="M190.5,527.8c0-1.8,1.1-3.2,3-3.2s3,1.4,3,3.2s-1.1,3.2-3,3.2C191.6,530.9,190.5,529.5,190.5,527.8z
		 M191.6,527.8c0,1.4,0.7,2.2,1.9,2.2s1.9-0.8,1.9-2.2c0-1.4-0.7-2.2-1.9-2.2S191.6,526.4,191.6,527.8z"/>
	<path class="st4" d="M203.1,530.8v-3.4c0-1.3-0.4-1.9-1.6-1.9c-0.7,0-1.4,0.2-1.7,0.8v4.4h-1.1v-6.1h0.9l0.1,0.6
		c0.7-0.6,1.4-0.8,2-0.8c1.8,0,2.5,1.1,2.5,2.9v3.4h-1.1V530.8z"/>
	<path class="st4" d="M207.4,527.8c0.2,1.7,1.1,2.2,2.3,2.2c0.6,0,1.2-0.1,1.8-0.4l0.1,0.9c-0.5,0.2-1.2,0.5-2,0.5
		c-2.1,0-3.3-1.5-3.3-3.2s1.1-3.1,3-3.1c1.5,0,2.6,0.9,2.6,2.6c0,0.2,0,0.4,0,0.6h-4.5V527.8z M207.5,527h3.2c0-0.9-0.5-1.4-1.5-1.4
		C208.3,525.6,207.8,526.1,207.5,527z"/>
</g>
<g class="st2">
	<path class="st4" d="M47.2,551.5h-1.3l-1.3-4.5l-1.3,4.5H42l-1.8-6.1h1.3l1.2,4.9l1.3-4.7h1.2l1.3,4.7l1.2-4.9H49L47.2,551.5z"/>
	<path class="st4" d="M51,544.1v-1.2h1.1v1.2H51z M51,551.5v-6.1h1.1v6.1H51z"/>
	<path class="st4" d="M57.7,551.6h-1c-1.2,0-1.6-0.7-1.6-1.5v-3.9h-1l0.1-0.9h0.9v-1.5l1.1-0.1v1.6h1.6v0.9h-1.6v3.2
		c0,1.2,0.1,1.2,1.3,1.2h0.3L57.7,551.6z"/>
	<path class="st4" d="M64,551.5v-3.3c0-1.4-0.4-2-1.5-2c-0.7,0-1.2,0.2-1.6,0.8v4.4h-1.1v-9.3H61v3.9c0.4-0.5,1-0.8,1.8-0.8
		c1.8,0,2.4,1.2,2.4,3v3.3H64z"/>
	<path class="st4" d="M71.4,544.1v-1.2h1.1v1.2H71.4z M71.4,551.5v-6.1h1.1v6.1H71.4z"/>
	<path class="st4" d="M79.5,551.5v-3.4c0-1.3-0.4-1.9-1.6-1.9c-0.7,0-1.4,0.2-1.7,0.8v4.4h-1.1v-6.1H76l0.1,0.6
		c0.7-0.6,1.4-0.8,2-0.8c1.8,0,2.5,1.1,2.5,2.9v3.4L79.5,551.5L79.5,551.5z"/>
	<path class="st4" d="M86.1,551.6h-1c-1.2,0-1.6-0.7-1.6-1.5v-3.9h-1l0.1-0.9h0.9v-1.5l1.1-0.1v1.6h1.6v0.9h-1.6v3.2
		c0,1.2,0.1,1.2,1.3,1.2h0.3L86.1,551.6z"/>
	<path class="st4" d="M88.9,548.5c0.2,1.7,1.1,2.2,2.3,2.2c0.6,0,1.2-0.1,1.8-0.4l0.1,0.9c-0.5,0.2-1.2,0.5-2,0.5
		c-2.1,0-3.3-1.5-3.3-3.2s1.1-3.1,3-3.1c1.5,0,2.6,0.9,2.6,2.6c0,0.2,0,0.4,0,0.6L88.9,548.5L88.9,548.5z M89,547.7h3.2
		c0-0.9-0.5-1.4-1.5-1.4C89.7,546.3,89.3,546.8,89,547.7z"/>
	<path class="st4" d="M98.5,546.4h-0.4c-0.5,0-1.2,0.4-1.4,0.8v4.3h-1.2v-6.1h0.9l0.1,1c0.7-0.8,1.3-1.2,2.1-1.2h0.1L98.5,546.4z"/>
	<path class="st4" d="M104.9,551.5v-3.4c0-1.3-0.4-1.9-1.6-1.9c-0.7,0-1.4,0.2-1.7,0.8v4.4h-1.1v-6.1h0.9l0.1,0.6
		c0.7-0.6,1.4-0.8,2-0.8c1.8,0,2.5,1.1,2.5,2.9v3.4L104.9,551.5L104.9,551.5z"/>
	<path class="st4" d="M109.3,548.5c0.2,1.7,1.1,2.2,2.3,2.2c0.6,0,1.2-0.1,1.8-0.4l0.1,0.9c-0.5,0.2-1.2,0.5-2,0.5
		c-2.1,0-3.3-1.5-3.3-3.2s1.1-3.1,3-3.1c1.5,0,2.6,0.9,2.6,2.6c0,0.2,0,0.4,0,0.6L109.3,548.5L109.3,548.5z M109.4,547.7h3.2
		c0-0.9-0.5-1.4-1.5-1.4C110.1,546.3,109.6,546.8,109.4,547.7z"/>
	<path class="st4" d="M119.1,551.6h-1c-1.2,0-1.6-0.7-1.6-1.5v-3.9h-1l0.1-0.9h0.9v-1.5l1.1-0.1v1.6h1.6v0.9h-1.6v3.2
		c0,1.2,0.1,1.2,1.3,1.2h0.3L119.1,551.6z"/>
	<path class="st4" d="M124.6,548.5c0-1.8,1-3.2,3-3.2c0.9,0,1.5,0.2,1.9,0.4l-0.2,1c-0.5-0.2-1-0.4-1.6-0.4c-1.4,0-2,0.8-2,2.2
		c0,1.3,0.6,2.2,2,2.2c0.6,0,1.1-0.1,1.6-0.4l0.1,0.9c-0.4,0.2-0.9,0.5-1.9,0.5C125.7,551.6,124.6,550.2,124.6,548.5z"/>
	<path class="st4" d="M131.2,548.5c0-1.8,1.1-3.2,3-3.2s3,1.4,3,3.2c0,1.8-1.1,3.2-3,3.2C132.3,551.6,131.2,550.2,131.2,548.5z
		 M132.4,548.5c0,1.4,0.7,2.2,1.9,2.2s1.9-0.8,1.9-2.2s-0.7-2.2-1.9-2.2C133,546.3,132.4,547.1,132.4,548.5z"/>
	<path class="st4" d="M143.8,551.5v-3.4c0-1.3-0.4-1.9-1.6-1.9c-0.7,0-1.4,0.2-1.7,0.8v4.4h-1.1v-6.1h0.9l0.1,0.6
		c0.7-0.6,1.4-0.8,2-0.8c1.8,0,2.5,1.1,2.5,2.9v3.4L143.8,551.5L143.8,551.5z"/>
	<path class="st4" d="M151.8,551.5v-3.4c0-1.3-0.4-1.9-1.6-1.9c-0.7,0-1.4,0.2-1.7,0.8v4.4h-1.1v-6.1h0.9l0.1,0.6
		c0.7-0.6,1.4-0.8,2-0.8c1.8,0,2.5,1.1,2.5,2.9v3.4L151.8,551.5L151.8,551.5z"/>
	<path class="st4" d="M156.2,548.5c0.2,1.7,1.1,2.2,2.3,2.2c0.6,0,1.2-0.1,1.8-0.4l0.1,0.9c-0.5,0.2-1.2,0.5-2,0.5
		c-2.1,0-3.3-1.5-3.3-3.2s1.1-3.1,3-3.1c1.5,0,2.6,0.9,2.6,2.6c0,0.2,0,0.4,0,0.6L156.2,548.5L156.2,548.5z M156.3,547.7h3.2
		c0-0.9-0.5-1.4-1.5-1.4C157,546.3,156.5,546.8,156.3,547.7z"/>
	<path class="st4" d="M162.4,548.5c0-1.8,1-3.2,3-3.2c0.9,0,1.5,0.2,1.9,0.4l-0.2,1c-0.5-0.2-1-0.4-1.6-0.4c-1.4,0-2,0.8-2,2.2
		c0,1.3,0.6,2.2,2,2.2c0.6,0,1.1-0.1,1.6-0.4l0.1,0.9c-0.4,0.2-0.9,0.5-1.9,0.5C163.5,551.6,162.4,550.2,162.4,548.5z"/>
	<path class="st4" d="M172.6,551.6h-1c-1.2,0-1.6-0.7-1.6-1.5v-3.9h-1l0.1-0.9h0.9v-1.5l1.1-0.1v1.6h1.6v0.9h-1.6v3.2
		c0,1.2,0.1,1.2,1.3,1.2h0.3L172.6,551.6z"/>
	<path class="st4" d="M174.7,544.1v-1.2h1.1v1.2H174.7z M174.7,551.5v-6.1h1.1v6.1H174.7z"/>
	<path class="st4" d="M178,548.5c0-1.8,1.1-3.2,3-3.2s3,1.4,3,3.2c0,1.8-1.1,3.2-3,3.2C179.1,551.6,178,550.2,178,548.5z
		 M179.1,548.5c0,1.4,0.7,2.2,1.9,2.2s1.9-0.8,1.9-2.2s-0.7-2.2-1.9-2.2S179.1,547.1,179.1,548.5z"/>
	<path class="st4" d="M190.6,551.5v-3.4c0-1.3-0.4-1.9-1.6-1.9c-0.7,0-1.4,0.2-1.7,0.8v4.4h-1.1v-6.1h0.9l0.1,0.6
		c0.7-0.6,1.4-0.8,2-0.8c1.8,0,2.5,1.1,2.5,2.9v3.4L190.6,551.5L190.6,551.5z"/>
</g>
<line class="st1" x1="369.2" y1="493.6" x2="360.6" y2="502.2"/>
<polyline class="st0" points="369,443.3 360.2,452.4 360.2,502.5 450.9,502.5 460,493.7 "/>
<rect x="369.1" y="443.3" class="st0" width="90.6" height="50.1"/>
<line class="st1" x1="370.1" y1="493.6" x2="361.2" y2="502.5"/>
<line class="st1" x1="377.6" y1="493.6" x2="368.7" y2="502.5"/>
<line class="st1" x1="385.1" y1="493.6" x2="376.1" y2="502.5"/>
<line class="st1" x1="392.6" y1="493.6" x2="383.6" y2="502.5"/>
<line class="st1" x1="400" y1="493.6" x2="391.1" y2="502.5"/>
<line class="st1" x1="407.5" y1="493.6" x2="398.5" y2="502.5"/>
<line class="st1" x1="415" y1="493.6" x2="406" y2="502.5"/>
<line class="st1" x1="422.4" y1="493.6" x2="413.5" y2="502.5"/>
<line class="st1" x1="429.9" y1="493.6" x2="421" y2="502.5"/>
<line class="st1" x1="437.4" y1="493.6" x2="428.4" y2="502.5"/>
<line class="st1" x1="444.9" y1="493.6" x2="435.9" y2="502.5"/>
<line class="st1" x1="452.3" y1="493.6" x2="443.4" y2="502.5"/>
<path class="st0" d="M459.8,493.6"/>
<g>
	<g id="XMLID_233_" class="st2">
		<path class="st3" d="M391,469.5v2.4h-1.5v-2.4h-2.6v-1.6h2.6v-2.3h1.5v2.3h2.6v1.6H391z"/>
		<path class="st3" d="M394.7,473.8c4.7-6.8,5.2-8.2,5.2-9.2c0-1.3-0.8-2-2-2c-1.5,0-2.4,1.1-2.9,1.8l-0.2-1.7
			c0.3-0.5,1.5-1.8,3.6-1.8c2.6,0,3.5,1.9,3.5,3.4c0,1.7-1,3.8-3.7,7.6h4.1v1.8H394.7z"/>
		<path class="st3" d="M406.8,473.8h-2l4.6-10.8H404v-1.8h8.2L406.8,473.8z"/>
		<path class="st3" d="M413.7,473.8v-12.6h3c2.9,0,4.8,0.5,4.8,3.2c0,1.1-0.1,1.9-1,2.7c1.6,0.6,2.1,1.5,2.1,3
			c0,3.1-2.3,3.7-4.4,3.7H413.7z M415.7,462.8v3.5h2.2c0.9,0,1.8-0.2,1.8-1.8c0-1.5-1-1.7-2.3-1.7H415.7z M415.7,468v4.1h1.9
			c1.9,0,3.1-0.3,3.1-2c0-1.7-1.1-2.1-2.4-2.1H415.7z"/>
		<path class="st3" d="M428.7,474.3H427l0.3-2c-1.5-0.1-2.6-0.4-3.2-0.7l0.3-2.1c0.7,0.6,1.8,1.1,3.4,1.1c1.2,0,1.9-0.3,1.9-1.1
			c0-2-5.7-1.3-5.7-4.3c0-1.2,0.8-2.6,3.3-2.8l-0.3-2.1h1.7l-0.3,2.1c1.2,0.1,2.4,0.4,2.9,0.7l-0.2,1.8c-1-0.5-2.2-0.9-3-0.9
			c-1,0-2.1,0.2-2.1,1c0,1.9,5.9,1,5.9,4.5c0,1-0.5,2.5-3.5,2.8L428.7,474.3z"/>
	</g>
</g>
<rect id="XMLID_12_" x="311.6" y="383" class="st6" width="40.9" height="11.6"/>
<g class="st2">
	<path class="st4" d="M344.6,388c0-2.7,1.6-4.5,3.6-4.5c2,0,3.5,1.7,3.5,4.3c0,2.7-1.5,4.4-3.6,4.4
		C346.1,392.2,344.6,390.6,344.6,388z M345.9,388c0,2.2,0.9,3.2,2.3,3.2c1.4,0,2.4-1.1,2.4-3.4c0-2.1-1-3.3-2.3-3.3
		C347,384.5,345.9,385.6,345.9,388z"/>
</g>
<rect id="XMLID_11_" x="475.3" y="267.8" class="st6" width="40.9" height="11.6"/>
<g class="st2">
	<path class="st4" d="M475.9,276.8c3.2-4.5,3.5-5.5,3.5-6.1c0-0.9-0.6-1.4-1.5-1.4c-1,0-1.6,0.7-2,1.1l-0.1-1
		c0.1-0.3,0.9-1.2,2.4-1.2c1.8,0,2.3,1.2,2.3,2.3c0,1.1-0.7,2.6-2.6,5.2h2.9v1H475.9z"/>
	<path class="st4" d="M483.8,276.8h-1.2l3.2-7.4H482v-1h5.4L483.8,276.8z"/>
	<path class="st4" d="M488.5,276.8v-8.4h1.9c2,0,3.2,0.3,3.2,2.1c0,0.7,0,1.2-0.7,1.8c1.1,0.4,1.4,1.1,1.4,2c0,2.1-1.5,2.5-2.9,2.5
		H488.5z M489.7,269.4v2.5h1.4c0.7,0,1.3-0.1,1.3-1.3c0-1.1-0.7-1.1-1.7-1.1H489.7z M489.7,272.9v2.8h1.2c1.4,0,2.3-0.1,2.3-1.4
		c0-1.2-0.8-1.5-1.7-1.5H489.7z"/>
</g>
<g>
	<g>
		<g>
			<rect x="360.2" y="386.9" class="st7" width="2.4" height="2.3"/>
		</g>
	</g>
</g>
<g>
	<g>
		<g>
			<rect x="469.6" y="272.4" class="st7" width="2.4" height="2.3"/>
		</g>
	</g>
</g>
<g>
	<g>
		<g>
			<line class="st8" x1="470.7" y1="273.6" x2="361.6" y2="388.1"/>
		</g>
	</g>
</g>
<line class="st5" x1="361.5" y1="258.9" x2="361.5" y2="401.4"/>
<line class="st5" x1="470.6" y1="258.9" x2="470.6" y2="401.4"/>
<rect id="XMLID_10_" x="342" y="407.6" class="st6" width="40.9" height="11.6"/>
<g class="st2">
	<path class="st4" d="M342.7,416.7c3.2-4.5,3.5-5.5,3.5-6.1c0-0.9-0.6-1.4-1.5-1.4c-1,0-1.6,0.7-2,1.1l-0.1-1
		c0.1-0.3,0.9-1.2,2.4-1.2c1.8,0,2.3,1.2,2.3,2.3c0,1.1-0.7,2.6-2.6,5.2h2.9v1H342.7z"/>
	<path class="st4" d="M349.1,412.6c0-2.7,1.6-4.5,3.6-4.5c2,0,3.5,1.7,3.5,4.3c0,2.7-1.5,4.4-3.6,4.4
		C350.5,416.8,349.1,415.2,349.1,412.6z M350.3,412.6c0,2.2,0.9,3.2,2.3,3.2c1.4,0,2.4-1.1,2.4-3.4c0-2.1-1-3.3-2.3-3.3
		C351.4,409.1,350.3,410.3,350.3,412.6z"/>
	<path class="st4" d="M357.7,412.6c0-2.7,1.6-4.5,3.6-4.5c2,0,3.5,1.7,3.5,4.3c0,2.7-1.5,4.4-3.6,4.4
		C359.1,416.8,357.7,415.2,357.7,412.6z M358.9,412.6c0,2.2,0.9,3.2,2.3,3.2c1.4,0,2.4-1.1,2.4-3.4c0-2.1-1-3.3-2.3-3.3
		C360,409.1,358.9,410.3,358.9,412.6z"/>
	<path class="st4" d="M366.2,412.6c0-2.7,1.6-4.5,3.6-4.5c2,0,3.5,1.7,3.5,4.3c0,2.7-1.5,4.4-3.6,4.4
		C367.6,416.8,366.2,415.2,366.2,412.6z M367.4,412.6c0,2.2,0.9,3.2,2.3,3.2c1.4,0,2.4-1.1,2.4-3.4c0-2.1-1-3.3-2.3-3.3
		C368.6,409.1,367.4,410.3,367.4,412.6z"/>
</g>
<rect id="XMLID_9_" x="450.2" y="407.6" class="st6" width="40.9" height="11.6"/>
<g class="st2">
	<path class="st4" d="M456.7,416.7c3.2-4.5,3.5-5.5,3.5-6.1c0-0.9-0.6-1.4-1.5-1.4c-1,0-1.6,0.7-2,1.1l-0.1-1
		c0.1-0.3,0.9-1.2,2.4-1.2c1.8,0,2.3,1.2,2.3,2.3c0,1.1-0.7,2.6-2.6,5.2h2.9v1H456.7z"/>
	<path class="st4" d="M463.1,412.6c0-2.7,1.6-4.5,3.6-4.5c2,0,3.5,1.7,3.5,4.3c0,2.7-1.5,4.4-3.6,4.4
		C464.5,416.8,463.1,415.2,463.1,412.6z M464.3,412.6c0,2.2,0.9,3.2,2.3,3.2c1.4,0,2.4-1.1,2.4-3.4c0-2.1-1-3.3-2.3-3.3
		C465.4,409.1,464.3,410.3,464.3,412.6z"/>
	<path class="st4" d="M472.7,416.7v-6.8c-0.6,0.5-0.9,0.6-1.2,0.7l-0.2-1.1c0.6-0.2,1.4-0.7,1.8-1.3h0.9v8.4H472.7z"/>
	<path class="st4" d="M475.8,416.4l0.3-1.1c0.5,0.3,1.2,0.5,1.7,0.5c1.1,0,2-0.8,2-1.9c0-1-0.7-1.5-2.5-1.5h-1l0.5-4.1h3.8l-0.1,1
		h-2.8l-0.2,2.1c2.6,0,3.6,0.8,3.6,2.4c0,1.8-1.6,3-3.2,3C477,416.8,475.9,416.5,475.8,416.4z"/>
</g>
<g id="XMLID_18_">
	<path id="XMLID_86_" class="st4" d="M362,219.3v-10.2h1.9v10.2H362L362,219.3z"/>
	<path id="XMLID_88_" class="st4" d="M374.3,219.3l-5.1-7.1v7.1h-1.9v-10.2h1.9l4.8,6.6v-6.6h1.9v10.2H374.3L374.3,219.3z"/>
	<path id="XMLID_90_" class="st4" d="M378.7,214.2c0-3.2,2.3-5.3,5.4-5.3c1.1,0,2.3,0.2,3.1,0.6l-0.2,1.8c-0.9-0.3-1.7-0.6-2.9-0.6
		c-2.2,0-3.3,1.5-3.3,3.5c0,2.1,1.1,3.6,3.3,3.6c1.1,0,2-0.2,2.9-0.6l0.2,1.8c-0.8,0.4-1.9,0.6-3.1,0.6
		C381,219.5,378.7,217.4,378.7,214.2z"/>
	<path id="XMLID_92_" class="st4" d="M396.2,219.3l-2.3-3.8h-2v3.8H390v-10.2h3.9c2.1,0,3.7,0.7,3.7,2.9c0,1.6-0.8,2.4-1.9,3
		l2.5,4.3H396.2L396.2,219.3z M391.9,210.6v3.1h1.6c1.6,0,2.1-0.6,2.1-1.6s-0.5-1.6-2.1-1.6C393.5,210.6,391.9,210.6,391.9,210.6z"
		/>
	<path id="XMLID_95_" class="st4" d="M400.7,219.3v-10.2h6.9v1.8h-5v2.2h3.9v1.8h-3.9v2.6h5.1v1.8L400.7,219.3L400.7,219.3z"/>
	<path id="XMLID_97_" class="st4" d="M417,219.3l-1-2.5h-3.7l-1,2.5h-1.9l3.9-10.2h1.8l3.9,10.2H417z M414.1,212l-1.2,3h2.5
		L414.1,212z"/>
	<path id="XMLID_100_" class="st4" d="M420.8,218.8l0.2-2.1c0.6,0.5,1.8,1.1,3.4,1.1c1.2,0,2.1-0.3,2.1-1.1c0-1-1.2-1.4-2.6-1.8
		c-1.6-0.5-3.3-1-3.3-2.8c0-1.4,1-3.1,3.9-3.1c1.5,0,2.9,0.4,3.4,0.8l-0.2,1.9c-1.1-0.6-2.1-0.9-3.2-0.9c-0.9,0-2.1,0.2-2.1,1.1
		c0,0.8,1,1.2,2.2,1.5c1.7,0.5,3.8,1.1,3.8,3.3c0,1.2-0.5,2.9-4.2,2.9C422.8,219.5,421.4,219.1,420.8,218.8z"/>
	<path id="XMLID_102_" class="st4" d="M431.4,219.3v-10.2h6.9v1.8h-5v2.2h3.9v1.8h-3.9v2.6h5.1v1.8L431.4,219.3L431.4,219.3z"/>
	<path id="XMLID_104_" class="st4" d="M448,210.9v2.2h3.7v1.8H448v4.4h-1.9v-10.2h6.7v1.8H448z"/>
	<path id="XMLID_106_" class="st4" d="M455.4,219.3v-10.2h1.9v10.2H455.4L455.4,219.3z"/>
	<path id="XMLID_108_" class="st4" d="M467.7,219.3l-5.1-7.1v7.1h-1.9v-10.2h1.9l4.8,6.6v-6.6h1.9v10.2H467.7L467.7,219.3z"/>
	<path id="XMLID_110_" class="st4" d="M479.2,219.3l-1-2.5h-3.7l-1,2.5h-1.9l3.9-10.2h1.8l3.8,10.2H479.2z M476.3,212l-1.2,3h2.5
		L476.3,212z"/>
	<path id="XMLID_113_" class="st4" d="M490.4,219.3l-5.1-7.1v7.1h-1.8v-10.2h1.9l4.8,6.6v-6.6h1.9v10.2H490.4L490.4,219.3z"/>
	<path id="XMLID_115_" class="st4" d="M494.8,214.2c0-3.2,2.3-5.3,5.4-5.3c1.1,0,2.3,0.2,3.1,0.6l-0.2,1.8c-0.9-0.3-1.7-0.6-2.9-0.6
		c-2.2,0-3.3,1.5-3.3,3.5c0,2.1,1.1,3.6,3.3,3.6c1.1,0,2-0.2,2.8-0.6l0.2,1.8c-0.8,0.4-1.9,0.6-3.1,0.6
		C497.1,219.5,494.8,217.4,494.8,214.2z"/>
	<path id="XMLID_117_" class="st4" d="M506.1,219.3v-10.2h1.9v10.2H506.1L506.1,219.3z"/>
	<path id="XMLID_119_" class="st4" d="M517.8,219.3l-1-2.5h-3.7l-1,2.5h-1.9l3.8-10.2h1.8l3.8,10.2H517.8z M515,212l-1.2,3h2.5
		L515,212z"/>
	<path id="XMLID_122_" class="st4" d="M522,219.3v-10.2h1.8v8.4h4.6v1.8H522L522,219.3z"/>
	<path id="XMLID_124_" class="st4" d="M363.8,232.9v2.2h3.7v1.8h-3.7v4.4H362v-10.2h6.7v1.8H363.8L363.8,232.9z"/>
	<path id="XMLID_126_" class="st4" d="M371.2,241.3v-10.2h1.9v8.4h4.6v1.8H371.2z"/>
	<path id="XMLID_128_" class="st4" d="M380,241.3v-10.2h6.9v1.8h-5v2.2h3.9v1.8h-3.9v2.6h5.1v1.8L380,241.3L380,241.3z"/>
	<path id="XMLID_130_" class="st4" d="M396.2,241.3l-2.8-3.8l-2.6,3.8h-2.1l3.8-5.1l-3.6-5.1h2.2l2.6,3.6l2.5-3.6h2.1l-3.6,4.9
		l3.8,5.3L396.2,241.3L396.2,241.3z"/>
	<path id="XMLID_132_" class="st4" d="M400.7,241.3v-10.2h1.9v10.2H400.7z"/>
	<path id="XMLID_134_" class="st4" d="M406,241.3v-10.2h2.8c2.5,0,4.1,0.4,4.1,2.6c0,0.9-0.2,1.6-0.9,2.1c1.3,0.4,1.9,1.1,1.9,2.4
		c0,2.4-2,3-3.8,3L406,241.3L406,241.3z M407.9,232.7v2.5h1.9c0.6,0,1.4-0.2,1.4-1.2c0-1.1-0.7-1.3-1.7-1.3H407.9z M407.9,236.7v3.1
		h1.9c1.4,0,2.2-0.3,2.2-1.5s-0.9-1.6-2-1.6H407.9z"/>
	<path id="XMLID_138_" class="st4" d="M416.7,241.3v-10.2h1.9v10.2H416.7z"/>
	<path id="XMLID_140_" class="st4" d="M422.1,241.3v-10.2h1.9v8.4h4.6v1.8H422.1z"/>
	<path id="XMLID_142_" class="st4" d="M430.9,241.3v-10.2h1.9v10.2H430.9z"/>
	<path id="XMLID_144_" class="st4" d="M440.2,232.9v8.4h-1.9v-8.4h-3.1v-1.8h8v1.8H440.2z"/>
	<path id="XMLID_146_" class="st4" d="M450.1,236.8v4.5h-1.9v-4.5l-3.8-5.7h2l2.7,4l2.7-4h2L450.1,236.8z"/>
</g>
<g class="st2">
	<path class="st4" d="M361.6,525.3v5.3h-1.1v-5.3h-1.1l0.2-0.9h0.9v-1.6c0-1,0.5-1.7,1.4-1.7c0.7,0,1,0.1,1.3,0.2l-0.2,1
		c-0.3-0.1-0.5-0.1-0.8-0.1c-0.6,0-0.7,0.3-0.7,1.5v0.8h1.7v0.9L361.6,525.3L361.6,525.3z"/>
	<path class="st4" d="M369.2,530.6l-0.1-0.7c-0.4,0.5-0.9,0.8-1.7,0.8c-1.4,0-2.3-0.9-2.3-2.7v-3.6h1.1v3.3c0,1.3,0.4,2,1.4,2
		c0.6,0,1.1-0.2,1.4-0.7v-4.6h1.1v6.2H369.2L369.2,530.6z"/>
	<path class="st4" d="M377.2,530.6v-3.4c0-1.3-0.4-1.9-1.6-1.9c-0.7,0-1.4,0.3-1.7,0.8v4.5h-1.1v-6.2h0.9l0.1,0.7
		c0.7-0.6,1.4-0.8,2-0.8c1.8,0,2.5,1.1,2.5,2.9v3.4H377.2z"/>
	<path class="st4" d="M385.3,530.6l-0.1-0.8c-0.5,0.6-1.3,0.9-1.9,0.9c-1.6,0-2.8-1.4-2.8-3.2c0-1.7,1.1-3.2,2.8-3.2
		c0.6,0,1.4,0.1,1.9,0.8v-3.9h1.1v9.4H385.3L385.3,530.6z M381.7,527.5c0,1.2,0.7,2.2,1.7,2.2c0.9,0,1.9-0.6,1.9-2.2
		c0-1.5-1-2.2-1.9-2.2C382.3,525.3,381.7,526.3,381.7,527.5z"/>
	<path class="st4" d="M389.7,527.5c0.2,1.7,1.1,2.2,2.3,2.2c0.6,0,1.2-0.1,1.8-0.4l0.2,0.9c-0.5,0.2-1.2,0.5-2.1,0.5
		c-2.2,0-3.3-1.5-3.3-3.3c0-1.7,1.1-3.2,3-3.2c1.5,0,2.6,0.9,2.6,2.6c0,0.2,0,0.4-0.1,0.6L389.7,527.5L389.7,527.5z M389.8,526.7
		h3.2c0-0.9-0.5-1.4-1.5-1.4C390.5,525.3,390,525.8,389.8,526.7z"/>
	<path class="st4" d="M400.8,530.6l-0.1-0.8c-0.5,0.6-1.3,0.9-1.9,0.9c-1.6,0-2.8-1.4-2.8-3.2c0-1.7,1.1-3.2,2.8-3.2
		c0.6,0,1.4,0.1,1.9,0.8v-3.9h1.1v9.4H400.8L400.8,530.6z M397.2,527.5c0,1.2,0.7,2.2,1.7,2.2c0.9,0,1.9-0.6,1.9-2.2
		c0-1.5-1-2.2-1.9-2.2C397.8,525.3,397.2,526.3,397.2,527.5z"/>
	<path class="st4" d="M408.3,523v-1.3h1.1v1.3H408.3z M408.3,530.6v-6.2h1.1v6.2H408.3z"/>
	<path class="st4" d="M416.4,530.6v-3.4c0-1.3-0.4-1.9-1.6-1.9c-0.7,0-1.4,0.3-1.7,0.8v4.5H412v-6.2h0.9l0.1,0.7
		c0.7-0.6,1.4-0.8,2-0.8c1.8,0,2.5,1.1,2.5,2.9v3.4H416.4z"/>
	<path class="st4" d="M423.5,530.2l0.1-1.1c0.3,0.2,1,0.6,1.9,0.6c0.8,0,1.2-0.3,1.2-0.8c0-0.6-0.7-0.9-1.2-1
		c-0.8-0.2-1.9-0.5-1.9-1.8c0-0.9,0.6-1.8,2.3-1.8c0.8,0,1.3,0.2,1.7,0.4l-0.1,1c-0.4-0.3-0.8-0.5-1.5-0.5s-1.2,0.3-1.2,0.8
		s0.5,0.7,1.4,1c0.6,0.2,1.8,0.6,1.8,1.8c0,0.8-0.5,1.8-2.3,1.8C424.6,530.7,423.8,530.4,423.5,530.2z"/>
	<path class="st4" d="M434.4,530.6v-3.3c0-1.5-0.4-2-1.5-2c-0.8,0-1.3,0.3-1.6,0.8v4.5h-1.1v-9.4h1.1v3.9c0.4-0.5,1-0.8,1.8-0.8
		c1.8,0,2.4,1.2,2.4,3v3.3H434.4z"/>
	<path class="st4" d="M443,530.7L443,530.7c-1.2,0-1.4-0.3-1.7-0.9c-0.5,0.5-1.1,0.9-1.9,0.9c-1.1,0-1.9-0.8-1.9-1.8
		c0-1.7,2.1-2.2,3.7-2.2c0-1.2-0.5-1.4-1.3-1.4c-0.5,0-1,0.1-1.6,0.6l-0.2-0.9c0.5-0.4,1.3-0.6,2.1-0.6c1.6,0,2.2,0.7,2.2,3v1.3
		c0,0.9,0.1,1.3,0.7,1.3h0.1L443,530.7z M441.2,527.5c-1.8,0.1-2.5,0.4-2.5,1.4c0,0.7,0.4,0.9,1,0.9s1.2-0.3,1.6-0.8v-1.5H441.2z"/>
	<path class="st4" d="M448.1,525.4h-0.4c-0.5,0-1.2,0.4-1.4,0.8v4.3h-1.2v-6.2h0.9l0.1,1c0.7-0.8,1.3-1.2,2.1-1.2h0.1L448.1,525.4z"
		/>
	<path class="st4" d="M450.2,523v-1.3h1.1v1.3H450.2z M450.2,530.6v-6.2h1.1v6.2H450.2z"/>
	<path class="st4" d="M458.3,530.6v-3.4c0-1.3-0.4-1.9-1.6-1.9c-0.7,0-1.4,0.3-1.7,0.8v4.5h-1.1v-6.2h0.9l0.1,0.7
		c0.7-0.6,1.4-0.8,2-0.8c1.8,0,2.5,1.1,2.5,2.9v3.4H458.3z"/>
	<path class="st4" d="M461.5,531.9c0-0.3,0.1-1,1.1-1.4c-0.5-0.3-0.6-0.6-0.6-0.8s0.1-0.6,0.7-0.9c-0.9-0.6-1.1-1.4-1.1-2
		c0-1.4,0.9-2.5,2.5-2.5c0.6,0,1.1,0.1,1.6,0.5c0.4-0.2,0.9-0.4,1.5-0.4h0.1l-0.1,0.8h-0.3c-0.1,0-0.5,0-0.7,0.1
		c0.5,0.5,0.6,1,0.6,1.5c0,1.2-0.9,2.4-2.5,2.4c-0.3,0-0.6,0-0.9-0.1c-0.2,0.1-0.3,0.2-0.3,0.4c0,0.3,0.5,0.4,1.9,0.7
		c1,0.2,2.5,0.5,2.5,1.7c0,1-1.1,1.9-3.1,1.9C462.2,533.7,461.5,532.7,461.5,531.9z M463.5,530.8c-0.6,0.2-1,0.6-1,1.1
		c0,0.6,0.7,1,1.8,1c1.3,0,1.9-0.5,1.9-1c0-0.4-0.5-0.8-1.6-1C464.6,530.9,463.7,530.8,463.5,530.8z M462.7,526.7
		c0,1,0.6,1.6,1.5,1.6s1.5-0.7,1.5-1.6c0-1-0.6-1.5-1.5-1.5C463.2,525.2,462.7,525.8,462.7,526.7z"/>
	<path class="st4" d="M472.7,530.2l0.1-1.1c0.3,0.2,1,0.6,1.9,0.6c0.8,0,1.2-0.3,1.2-0.8c0-0.6-0.7-0.9-1.2-1
		c-0.8-0.2-1.9-0.5-1.9-1.8c0-0.9,0.6-1.8,2.3-1.8c0.8,0,1.3,0.2,1.7,0.4l-0.1,1c-0.4-0.3-0.8-0.5-1.5-0.5s-1.2,0.3-1.2,0.8
		s0.5,0.7,1.4,1c0.6,0.2,1.8,0.6,1.8,1.8c0,0.8-0.5,1.8-2.3,1.8C473.7,530.7,473,530.4,472.7,530.2z"/>
	<path class="st4" d="M482.5,530.7h-1c-1.2,0-1.6-0.7-1.6-1.5v-3.9h-1.1l0.1-0.9h1v-1.5l1.1-0.1v1.6h1.6v0.9H481v3.2
		c0,1.2,0.1,1.3,1.3,1.3h0.3L482.5,530.7z"/>
	<path class="st4" d="M489.6,530.7L489.6,530.7c-1.2,0-1.4-0.3-1.7-0.9c-0.5,0.5-1.1,0.9-1.9,0.9c-1.1,0-1.9-0.8-1.9-1.8
		c0-1.7,2.1-2.2,3.7-2.2c0-1.2-0.5-1.4-1.3-1.4c-0.5,0-1,0.1-1.6,0.6l-0.2-0.9c0.5-0.4,1.3-0.6,2.1-0.6c1.6,0,2.2,0.7,2.2,3v1.3
		c0,0.9,0.1,1.3,0.7,1.3h0.1L489.6,530.7z M487.8,527.5c-1.8,0.1-2.5,0.4-2.5,1.4c0,0.7,0.4,0.9,1,0.9s1.2-0.3,1.6-0.8v-1.5H487.8z"
		/>
	<path class="st4" d="M494.7,525.4h-0.4c-0.5,0-1.2,0.4-1.4,0.8v4.3h-1.2v-6.2h0.9l0.1,1c0.7-0.8,1.3-1.2,2.1-1.2h0.1L494.7,525.4z"
		/>
	<path class="st4" d="M499.9,530.7h-1c-1.2,0-1.6-0.7-1.6-1.5v-3.9h-1.1l0.1-0.9h1v-1.5l1.1-0.1v1.6h1.6v0.9h-1.6v3.2
		c0,1.2,0.1,1.3,1.3,1.3h0.3L499.9,530.7z"/>
	<path class="st4" d="M506.1,530.6l-0.1-0.7c-0.4,0.5-0.9,0.8-1.7,0.8c-1.4,0-2.3-0.9-2.3-2.7v-3.6h1.1v3.3c0,1.3,0.4,2,1.4,2
		c0.6,0,1.1-0.2,1.4-0.7v-4.6h1.1v6.2H506.1L506.1,530.6z"/>
	<path class="st4" d="M510.8,529.8v3.8h-1.1v-9.2h0.9l0.1,0.9c0.5-0.6,1.1-1,2.1-1c1.7,0,2.7,1.5,2.7,3.2c0,1.8-0.9,3.2-2.8,3.2
		C512.2,530.7,511.3,530.4,510.8,529.8z M510.7,527.5c0,1.5,1,2.2,1.9,2.2c1.1,0,1.7-1,1.7-2.2c0-1.3-0.6-2.2-1.7-2.2
		C511.7,525.3,510.7,526,510.7,527.5z"/>
	<path class="st4" d="M517.3,530.2l0.1-1.1c0.3,0.2,1,0.6,1.9,0.6c0.8,0,1.2-0.3,1.2-0.8c0-0.6-0.7-0.9-1.2-1
		c-0.8-0.2-1.9-0.5-1.9-1.8c0-0.9,0.6-1.8,2.3-1.8c0.8,0,1.3,0.2,1.7,0.4l-0.1,1c-0.4-0.3-0.8-0.5-1.5-0.5s-1.2,0.3-1.2,0.8
		s0.5,0.7,1.4,1c0.6,0.2,1.8,0.6,1.8,1.8c0,0.8-0.5,1.8-2.3,1.8C518.4,530.7,517.6,530.4,517.3,530.2z"/>
</g>
<g class="st2">
	<path class="st4" d="M361.1,550.7l-0.1,0.8h-1v-9.4h1.1v3.9c0.5-0.6,1.4-0.8,1.9-0.8c1.7,0,2.8,1.5,2.8,3.2c0,1.8-1.2,3.2-2.8,3.2
		C362.5,551.6,361.6,551.3,361.1,550.7z M361.1,548.4c0,1.5,0.9,2.2,1.8,2.2c1.1,0,1.8-1,1.8-2.2c0-1.3-0.7-2.2-1.8-2.2
		C362,546.2,361.1,547,361.1,548.4z"/>
	<path class="st4" d="M369.6,554.6h-1.3l1.4-3.3l-2.6-5.9h1.3l1.9,4.6l1.7-4.6h1.3L369.6,554.6z"/>
	<path class="st4" d="M379.1,551.5c3.3-4.7,3.7-5.8,3.7-6.4c0-0.9-0.6-1.4-1.5-1.4c-1.1,0-1.7,0.7-2,1.2l-0.2-1.1
		c0.1-0.3,1-1.2,2.5-1.2c1.8,0,2.4,1.3,2.4,2.4c0,1.2-0.7,2.7-2.7,5.5h3v1.1L379.1,551.5L379.1,551.5z"/>
	<path class="st4" d="M386.8,547.3c0-2.9,1.7-4.7,3.8-4.7c2.1,0,3.6,1.8,3.6,4.5c0,2.8-1.5,4.7-3.8,4.7
		C388.2,551.7,386.8,550,386.8,547.3z M388,547.3c0,2.3,1,3.3,2.4,3.3c1.5,0,2.5-1.1,2.5-3.6c0-2.2-1.1-3.4-2.4-3.4
		S388,544.8,388,547.3z"/>
	<path class="st4" d="M396.8,547.3c0-2.9,1.7-4.7,3.8-4.7c2.1,0,3.6,1.8,3.6,4.5c0,2.8-1.5,4.7-3.8,4.7
		C398.3,551.7,396.8,550,396.8,547.3z M398.1,547.3c0,2.3,1,3.3,2.4,3.3c1.5,0,2.5-1.1,2.5-3.6c0-2.2-1.1-3.4-2.4-3.4
		C399.2,543.6,398.1,544.8,398.1,547.3z"/>
	<path class="st4" d="M406.8,547.3c0-2.9,1.7-4.7,3.8-4.7c2.1,0,3.6,1.8,3.6,4.5c0,2.8-1.5,4.7-3.8,4.7
		C408.3,551.7,406.8,550,406.8,547.3z M408.1,547.3c0,2.3,1,3.3,2.4,3.3c1.5,0,2.5-1.1,2.5-3.6c0-2.2-1.1-3.4-2.4-3.4
		C409.3,543.6,408.1,544.8,408.1,547.3z"/>
	<path class="st4" d="M420.7,544v-1.3h1.1v1.3H420.7z M420.7,551.5v-6.2h1.1v6.2H420.7z"/>
	<path class="st4" d="M428.8,551.5v-3.4c0-1.3-0.4-1.9-1.6-1.9c-0.7,0-1.4,0.3-1.7,0.8v4.5h-1.1v-6.2h0.9l0.1,0.7
		c0.7-0.6,1.4-0.8,2-0.8c1.8,0,2.5,1.1,2.5,2.9v3.4H428.8z"/>
	<path class="st4" d="M435.2,551.5H434l-2.3-6.2h1.3l1.7,4.9l1.7-4.9h1.3L435.2,551.5z"/>
	<path class="st4" d="M440.2,548.4c0.2,1.7,1.1,2.2,2.3,2.2c0.6,0,1.2-0.1,1.8-0.4l0.2,0.9c-0.5,0.2-1.2,0.5-2.1,0.5
		c-2.2,0-3.3-1.5-3.3-3.3c0-1.7,1.1-3.2,3-3.2c1.5,0,2.6,0.9,2.6,2.6c0,0.2,0,0.4-0.1,0.6L440.2,548.4L440.2,548.4z M440.3,547.7
		h3.2c0-0.9-0.5-1.4-1.5-1.4C441,546.2,440.5,546.8,440.3,547.7z"/>
	<path class="st4" d="M446.5,551.1l0.1-1.1c0.3,0.2,1,0.6,1.9,0.6c0.8,0,1.2-0.3,1.2-0.8c0-0.6-0.7-0.9-1.2-1
		c-0.8-0.2-1.9-0.5-1.9-1.8c0-0.9,0.6-1.8,2.3-1.8c0.8,0,1.3,0.2,1.7,0.4l-0.1,1c-0.4-0.3-0.8-0.5-1.5-0.5s-1.2,0.3-1.2,0.8
		s0.5,0.7,1.4,1c0.6,0.2,1.8,0.6,1.8,1.8c0,0.8-0.5,1.8-2.3,1.8C447.5,551.6,446.8,551.3,446.5,551.1z"/>
	<path class="st4" d="M456.2,551.6h-1c-1.2,0-1.6-0.7-1.6-1.5v-3.9h-1.1l0.1-0.9h1v-1.5l1.1-0.1v1.6h1.6v0.9h-1.6v3.2
		c0,1.2,0.1,1.3,1.3,1.3h0.3L456.2,551.6z"/>
	<path class="st4" d="M458,548.4c0-1.8,1.1-3.2,3.1-3.2c1.9,0,3.1,1.4,3.1,3.2c0,1.8-1.1,3.2-3.1,3.2S458,550.2,458,548.4z
		 M459.1,548.4c0,1.4,0.7,2.2,1.9,2.2s1.9-0.8,1.9-2.2s-0.7-2.2-1.9-2.2S459.1,547.1,459.1,548.4z"/>
	<path class="st4" d="M469.3,546.4h-0.4c-0.5,0-1.2,0.4-1.4,0.8v4.3h-1.2v-6.2h0.9l0.1,1c0.7-0.8,1.3-1.2,2.1-1.2h0.1L469.3,546.4z"
		/>
	<path class="st4" d="M471,551.1l0.1-1.1c0.3,0.2,1,0.6,1.9,0.6c0.8,0,1.2-0.3,1.2-0.8c0-0.6-0.7-0.9-1.2-1
		c-0.8-0.2-1.9-0.5-1.9-1.8c0-0.9,0.6-1.8,2.3-1.8c0.8,0,1.3,0.2,1.7,0.4l-0.1,1c-0.4-0.3-0.8-0.5-1.5-0.5s-1.2,0.3-1.2,0.8
		s0.5,0.7,1.4,1c0.6,0.2,1.8,0.6,1.8,1.8c0,0.8-0.5,1.8-2.3,1.8C472,551.6,471.3,551.3,471,551.1z"/>
</g>
<line class="st1" x1="762" y1="493.2" x2="753.4" y2="501.9"/>
<polyline class="st0" points="690.2,442.9 681.4,452.1 681.4,502.2 772,502.2 781.2,493.4 "/>
<rect x="690.3" y="443" class="st0" width="90.6" height="50.1"/>
<line class="st1" x1="765" y1="493.2" x2="756.1" y2="502.2"/>
<line class="st1" x1="690.4" y1="493.2" x2="681.4" y2="502.2"/>
<line class="st1" x1="697.9" y1="493.2" x2="688.9" y2="502.2"/>
<line class="st1" x1="705.3" y1="493.2" x2="696.4" y2="502.2"/>
<line class="st1" x1="712.8" y1="493.2" x2="703.8" y2="502.2"/>
<line class="st1" x1="720.3" y1="493.2" x2="711.3" y2="502.2"/>
<line class="st1" x1="727.8" y1="493.2" x2="718.8" y2="502.2"/>
<line class="st1" x1="735.2" y1="493.2" x2="726.2" y2="502.2"/>
<line class="st1" x1="742.7" y1="493.2" x2="733.7" y2="502.2"/>
<line class="st1" x1="750.2" y1="493.2" x2="741.2" y2="502.2"/>
<line class="st1" x1="757.6" y1="493.2" x2="748.7" y2="502.2"/>
<line class="st1" x1="773.5" y1="493.2" x2="764.5" y2="502.2"/>
<g>
	<g id="XMLID_234_" class="st2">
		<path class="st3" d="M714.2,469.2v2.4h-1.5v-2.4h-2.6v-1.6h2.6v-2.3h1.5v2.3h2.6v1.6H714.2z"/>
		<path class="st3" d="M718.1,472.7l0.5-1.8c0.9,0.6,1.8,1,2.9,1c1.2,0,2.6-0.5,2.6-2.3c0-1.2-0.5-2.3-2.7-2.3h-1.4l0.2-1.5h0.7
			c2.1,0,2.8-0.8,2.8-1.9c0-1.1-0.7-1.6-2-1.6c-1.1,0-1.9,0.3-2.4,0.7l-0.3-1.5c0.3-0.3,1.3-0.8,2.9-0.8c3.2,0,3.9,1.9,3.9,3.3
			c0,1-0.4,1.8-1.5,2.6c1.5,0.6,1.9,1.8,1.9,3.1c0,2.8-2.3,4.1-4.6,4.1C719.9,473.7,718.4,473,718.1,472.7z"/>
		<path class="st3" d="M728.3,467.3c0-4.1,2.4-6.8,5.4-6.8c3,0,5.2,2.6,5.2,6.4c0,4.1-2.2,6.7-5.4,6.7
			C730.4,473.7,728.3,471.2,728.3,467.3z M730.3,467.3c0,3.2,1.4,4.6,3.2,4.6c2,0,3.4-1.5,3.4-5c0-3.1-1.5-4.7-3.3-4.7
			S730.3,463.9,730.3,467.3z"/>
		<path class="st3" d="M740.6,464.2c0-2.2,1.2-3.4,2.7-3.4c1.5,0,2.6,1.2,2.6,3.3c0,2.2-1.1,3.4-2.7,3.4
			C741.7,467.4,740.6,466.2,740.6,464.2z M741.8,464.2c0,1.4,0.7,2.2,1.5,2.2c0.9,0,1.6-0.8,1.6-2.4c0-1.4-0.7-2.2-1.5-2.2
			C742.5,461.8,741.8,462.6,741.8,464.2z M744.3,473.6h-1.5l7.6-12.8h1.5L744.3,473.6z M749.1,470.4c0-2.1,1.3-3.4,2.8-3.4
			c1.5,0,2.7,1.2,2.7,3.3c0,2.1-1.1,3.4-2.8,3.4C750.1,473.6,749.1,472.4,749.1,470.4z M750.1,470.4c0,1.5,0.6,2.3,1.6,2.3
			c1,0,1.7-0.8,1.7-2.4c0-1.5-0.7-2.3-1.6-2.3C750.9,467.9,750.1,468.8,750.1,470.4z"/>
	</g>
</g>
<path class="st0" d="M772.2,434.7"/>
<line class="st5" x1="681.2" y1="259" x2="681.2" y2="401.5"/>
<line class="st5" x1="790.3" y1="259" x2="790.3" y2="401.5"/>
<rect id="XMLID_6_" x="661.7" y="407.8" class="st6" width="40.9" height="11.6"/>
<g class="st2">
	<path class="st4" d="M662.4,416.8c3.2-4.5,3.5-5.5,3.5-6.1c0-0.9-0.6-1.4-1.5-1.4c-1,0-1.6,0.7-2,1.1l-0.1-1
		c0.1-0.3,0.9-1.2,2.4-1.2c1.8,0,2.3,1.2,2.3,2.3c0,1.1-0.7,2.6-2.6,5.2h2.9v1H662.4z"/>
	<path class="st4" d="M668.8,412.7c0-2.7,1.6-4.5,3.6-4.5c2,0,3.5,1.7,3.5,4.3c0,2.7-1.5,4.4-3.6,4.4
		C670.2,416.9,668.8,415.3,668.8,412.7z M670,412.7c0,2.2,0.9,3.2,2.3,3.2c1.4,0,2.4-1.1,2.4-3.4c0-2.1-1-3.3-2.3-3.3
		C671.1,409.2,670,410.4,670,412.7z"/>
	<path class="st4" d="M677.3,412.7c0-2.7,1.6-4.5,3.6-4.5c2,0,3.5,1.7,3.5,4.3c0,2.7-1.5,4.4-3.6,4.4
		C678.7,416.9,677.3,415.3,677.3,412.7z M678.6,412.7c0,2.2,0.9,3.2,2.3,3.2c1.4,0,2.4-1.1,2.4-3.4c0-2.1-1-3.3-2.3-3.3
		C679.7,409.2,678.6,410.4,678.6,412.7z"/>
	<path class="st4" d="M685.9,412.7c0-2.7,1.6-4.5,3.6-4.5c2,0,3.5,1.7,3.5,4.3c0,2.7-1.5,4.4-3.6,4.4
		C687.3,416.9,685.9,415.3,685.9,412.7z M687.1,412.7c0,2.2,0.9,3.2,2.3,3.2c1.4,0,2.4-1.1,2.4-3.4c0-2.1-1-3.3-2.3-3.3
		C688.3,409.2,687.1,410.4,687.1,412.7z"/>
</g>
<rect id="XMLID_5_" x="634.5" y="349" class="st6" width="40.9" height="11.6"/>
<g class="st2">
	<path class="st4" d="M649.2,358c3.2-4.5,3.5-5.5,3.5-6.1c0-0.9-0.6-1.4-1.5-1.4c-1,0-1.6,0.7-2,1.1l-0.1-1c0.1-0.3,0.9-1.2,2.4-1.2
		c1.8,0,2.3,1.2,2.3,2.3c0,1.1-0.7,2.6-2.6,5.2h2.9v1H649.2z"/>
	<path class="st4" d="M655.7,359.3l-0.3-0.2l0.4-1l-0.4-0.1v-1h1.2v1L655.7,359.3z"/>
	<path class="st4" d="M658.1,355.7c0-0.7,0.3-1.5,1.6-2.2c-0.9-0.7-1.1-1.3-1.1-2c0-1,0.6-2.1,2.5-2.1c1.8,0,2.4,1,2.4,1.9
		c0,0.9-0.4,1.3-1.4,2c1.3,0.4,1.9,1.1,1.9,2.3c0,1.1-0.9,2.5-3,2.5C658.9,358.1,658.1,356.9,658.1,355.7z M659.3,355.7
		c0,0.9,0.6,1.4,1.6,1.4c1,0,1.8-0.6,1.8-1.5c0-0.9-0.8-1.4-1.7-1.7C660,354.1,659.3,354.7,659.3,355.7z M659.6,351.6
		c0,0.6,0.5,1.1,1.3,1.4c1-0.3,1.4-0.9,1.4-1.5c0-0.6-0.5-1-1.3-1S659.6,350.9,659.6,351.6z"/>
	<path class="st4" d="M665.6,358v-8.4h1.9c2,0,3.2,0.3,3.2,2.1c0,0.7,0,1.2-0.7,1.8c1.1,0.4,1.4,1.1,1.4,2c0,2.1-1.5,2.5-2.9,2.5
		H665.6z M666.8,350.6v2.5h1.4c0.7,0,1.3-0.1,1.3-1.3c0-1.1-0.7-1.1-1.7-1.1H666.8z M666.8,354.1v2.8h1.2c1.4,0,2.3-0.1,2.3-1.4
		c0-1.2-0.8-1.5-1.7-1.5H666.8z"/>
</g>
<g id="XMLID_4_">
	<rect x="794.8" y="296.4" class="st6" width="40.9" height="11.6"/>
</g>
<text transform="matrix(1 0 0 1 794.8367 305.4186)" class="st4 st9 st10">4B</text>
<rect id="XMLID_3_" x="769.9" y="407.8" class="st6" width="40.9" height="11.6"/>
<g class="st2">
	<path class="st4" d="M776.4,416.8c3.2-4.5,3.5-5.5,3.5-6.1c0-0.9-0.6-1.4-1.5-1.4c-1,0-1.6,0.7-2,1.1l-0.1-1
		c0.1-0.3,0.9-1.2,2.4-1.2c1.8,0,2.3,1.2,2.3,2.3c0,1.1-0.7,2.6-2.6,5.2h2.9v1H776.4z"/>
	<path class="st4" d="M782.8,412.7c0-2.7,1.6-4.5,3.6-4.5c2,0,3.5,1.7,3.5,4.3c0,2.7-1.5,4.4-3.6,4.4
		C784.2,416.9,782.8,415.3,782.8,412.7z M784,412.7c0,2.2,0.9,3.2,2.3,3.2c1.4,0,2.4-1.1,2.4-3.4c0-2.1-1-3.3-2.3-3.3
		C785.1,409.2,784,410.4,784,412.7z"/>
	<path class="st4" d="M792.4,416.8V410c-0.6,0.5-0.9,0.6-1.2,0.7l-0.2-1.1c0.6-0.2,1.4-0.7,1.8-1.3h0.9v8.4H792.4z"/>
	<path class="st4" d="M795.4,416.5l0.3-1.1c0.5,0.3,1.2,0.5,1.7,0.5c1.1,0,2-0.8,2-1.9c0-1-0.7-1.5-2.5-1.5h-1l0.5-4.1h3.8l-0.1,1
		h-2.8l-0.2,2.1c2.6,0,3.6,0.8,3.6,2.4c0,1.8-1.6,3-3.2,3C796.7,416.9,795.6,416.7,795.4,416.5z"/>
</g>
<g>
	<g>
		<g>
			<rect x="679.8" y="352.8" class="st7" width="2.4" height="2.3"/>
		</g>
	</g>
</g>
<g>
	<g>
		<g>
			<rect x="789.1" y="302.4" class="st7" width="2.4" height="2.3"/>
		</g>
	</g>
</g>
<g>
	<g>
		<g>
			<line class="st8" x1="790.2" y1="303.5" x2="681.2" y2="354.2"/>
		</g>
	</g>
</g>
<g id="XMLID_8_">
	<path id="XMLID_148_" class="st4" d="M682.2,219.4v-10.2h1.8v10.2H682.2z"/>
	<path id="XMLID_150_" class="st4" d="M694.5,219.4l-5.1-7.1v7.1h-1.9v-10.2h1.9l4.8,6.6v-6.6h1.9v10.2H694.5z"/>
	<path id="XMLID_152_" class="st4" d="M698.9,214.3c0-3.2,2.3-5.3,5.4-5.3c1.1,0,2.3,0.2,3.1,0.6l-0.2,1.8c-0.9-0.3-1.7-0.6-2.9-0.6
		c-2.2,0-3.3,1.5-3.3,3.5c0,2.1,1.1,3.6,3.3,3.6c1.1,0,2-0.2,2.8-0.6l0.2,1.8c-0.8,0.4-1.9,0.6-3.1,0.6
		C701.2,219.6,698.9,217.5,698.9,214.3z"/>
	<path id="XMLID_154_" class="st4" d="M716.4,219.4l-2.3-3.8h-2v3.8h-1.9v-10.2h3.8c2.1,0,3.7,0.7,3.7,2.9c0,1.6-0.8,2.4-1.9,3
		l2.5,4.3H716.4z M712,210.8v3.1h1.6c1.6,0,2.1-0.7,2.1-1.6c0-1-0.5-1.5-2.1-1.5C713.7,210.8,712,210.8,712,210.8z"/>
	<path id="XMLID_157_" class="st4" d="M720.9,219.4v-10.2h6.9v1.8h-5v2.2h3.9v1.8h-3.9v2.6h5.1v1.8L720.9,219.4L720.9,219.4z"/>
	<path id="XMLID_159_" class="st4" d="M737.2,219.4l-1-2.5h-3.7l-1,2.5h-1.9l3.8-10.2h1.8l3.8,10.2H737.2z M734.3,212.1l-1.2,3h2.5
		L734.3,212.1z"/>
	<path id="XMLID_162_" class="st4" d="M741,218.9l0.2-2.1c0.6,0.5,1.8,1.1,3.4,1.1c1.2,0,2.1-0.3,2.1-1.1c0-1-1.2-1.4-2.6-1.8
		c-1.6-0.5-3.3-1-3.3-2.8c0-1.3,1-3.1,3.9-3.1c1.5,0,2.9,0.5,3.4,0.8l-0.2,1.9c-1.1-0.6-2.1-0.9-3.2-0.9c-0.9,0-2.1,0.2-2.1,1.1
		c0,0.8,1,1.1,2.2,1.5c1.7,0.5,3.8,1.1,3.8,3.3c0,1.1-0.5,2.9-4.2,2.9C742.9,219.6,741.6,219.3,741,218.9z"/>
	<path id="XMLID_164_" class="st4" d="M751.5,219.4v-10.2h1.9v10.2H751.5z"/>
	<path id="XMLID_166_" class="st4" d="M763.9,219.4l-5.1-7.1v7.1h-1.9v-10.2h1.9l4.8,6.6v-6.6h1.9v10.2H763.9z"/>
	<path id="XMLID_168_" class="st4" d="M768.3,214.3c0-3.2,2.2-5.3,5.4-5.3c1.1,0,2.5,0.2,3.2,0.6l-0.2,1.8c-0.8-0.3-2-0.6-3-0.6
		c-2.3,0-3.4,1.5-3.4,3.5c0,2.1,1.2,3.6,3.5,3.6c0.5,0,1-0.1,1.5-0.2v-1.8H774v-1.5h3.2v4.6c-0.8,0.4-2.5,0.8-3.7,0.8
		C770.6,219.6,768.3,217.5,768.3,214.3z"/>
	<path id="XMLID_170_" class="st4" d="M785.2,215.1v-5.8h1.9v5.2c0,1.9,0.4,3.4,2.6,3.4c2.2,0,2.6-1.5,2.6-3.4v-5.2h1.9v5.8
		c0,2.8-1.4,4.6-4.5,4.6C786.6,219.6,785.2,217.8,785.2,215.1z"/>
	<path id="XMLID_172_" class="st4" d="M803.8,219.4l-2.3-3.8h-2v3.8h-1.9v-10.2h3.8c2.1,0,3.7,0.7,3.7,2.9c0,1.6-0.8,2.4-1.9,3
		l2.5,4.3H803.8z M799.5,210.8v3.1h1.6c1.6,0,2.1-0.7,2.1-1.6c0-1-0.5-1.5-2.1-1.5H799.5z"/>
	<path id="XMLID_175_" class="st4" d="M808.3,219.4v-10.2h2.8c2.5,0,4.1,0.4,4.1,2.6c0,0.9-0.2,1.6-0.9,2.1c1.3,0.5,1.9,1.2,1.9,2.5
		c0,2.4-2,3-3.8,3L808.3,219.4L808.3,219.4z M810.2,210.8v2.5h1.9c0.6,0,1.4-0.2,1.4-1.2c0-1.1-0.7-1.3-1.7-1.3H810.2z M810.2,214.8
		v3.1h1.9c1.4,0,2.2-0.3,2.2-1.5s-0.9-1.5-2-1.5C812.3,214.8,810.2,214.8,810.2,214.8z"/>
	<path id="XMLID_179_" class="st4" d="M825.4,219.4l-1-2.5h-3.7l-1,2.5h-2l3.8-10.2h1.8l3.8,10.2H825.4z M822.6,212.1l-1.2,3h2.5
		L822.6,212.1z"/>
	<path id="XMLID_182_" class="st4" d="M836.6,219.4l-5.1-7.1v7.1h-1.9v-10.2h1.9l4.8,6.6v-6.6h1.9v10.2H836.6z"/>
	<path id="XMLID_184_" class="st4" d="M684,238.1v3.4h-1.9v-10.2h3.2c2.8,0,4.5,0.4,4.5,3.2c0,2.9-2.2,3.6-3.7,3.6H684z M684,232.8
		v3.6h1.8c1.5,0,2-0.5,2-1.9c0-1.2-0.5-1.7-2.2-1.7L684,232.8L684,232.8z"/>
	<path id="XMLID_187_" class="st4" d="M691.8,236.3c0-3.2,2.2-5.3,5.3-5.3s5.3,2.1,5.3,5.3s-2.2,5.3-5.3,5.3
		S691.8,239.5,691.8,236.3z M693.8,236.3c0,2.1,1.1,3.6,3.3,3.6s3.3-1.5,3.3-3.6c0-2-1.1-3.5-3.3-3.5
		C694.9,232.8,693.8,234.3,693.8,236.3z"/>
	<path id="XMLID_190_" class="st4" d="M707.2,238.1v3.4h-1.9v-10.2h3.2c2.8,0,4.5,0.4,4.5,3.2c0,2.9-2.2,3.6-3.7,3.6H707.2z
		 M707.2,232.8v3.6h1.8c1.5,0,2-0.5,2-1.9c0-1.2-0.5-1.7-2.2-1.7L707.2,232.8L707.2,232.8z"/>
	<path id="XMLID_193_" class="st4" d="M715.5,237.1v-5.8h1.8v5.2c0,1.9,0.4,3.4,2.6,3.4c2.2,0,2.6-1.5,2.6-3.4v-5.2h1.9v5.8
		c0,2.8-1.4,4.6-4.5,4.6C716.9,241.6,715.5,239.8,715.5,237.1z"/>
	<path id="XMLID_195_" class="st4" d="M727.8,241.4v-10.2h1.9v8.4h4.6v1.8H727.8z"/>
	<path id="XMLID_197_" class="st4" d="M743.1,241.4l-1-2.5h-3.7l-1,2.5h-1.9l3.8-10.2h1.8l3.8,10.2H743.1z M740.2,234.1l-1.2,3h2.5
		L740.2,234.1z"/>
	<path id="XMLID_200_" class="st4" d="M750.5,233v8.4h-1.9V233h-3.1v-1.8h8v1.8H750.5z"/>
	<path id="XMLID_202_" class="st4" d="M756,241.4v-10.2h1.9v10.2H756z"/>
	<path id="XMLID_204_" class="st4" d="M760.8,236.3c0-3.2,2.2-5.3,5.3-5.3s5.3,2.1,5.3,5.3s-2.2,5.3-5.3,5.3
		S760.8,239.5,760.8,236.3z M762.8,236.3c0,2.1,1.1,3.6,3.3,3.6s3.3-1.5,3.3-3.6c0-2-1.1-3.5-3.3-3.5S762.8,234.3,762.8,236.3z"/>
	<path id="XMLID_207_" class="st4" d="M781.3,241.4l-5.1-7.1v7.1h-1.9v-10.2h1.9l4.8,6.6v-6.6h1.9v10.2H781.3z"/>
	<path id="XMLID_209_" class="st4" d="M791.3,241.4v-10.2h4c3.1,0,5.3,1.9,5.3,5.1c0,3.2-2.2,5.1-5.3,5.1L791.3,241.4L791.3,241.4z
		 M793.2,233v6.7h2.2c2.2,0,3.3-1.3,3.3-3.3s-1.1-3.3-3.3-3.3C795.4,233,793.2,233,793.2,233z"/>
	<path id="XMLID_212_" class="st4" d="M803.6,241.4v-10.2h6.9v1.8h-5v2.2h3.9v1.8h-3.9v2.6h5.1v1.8L803.6,241.4L803.6,241.4z"/>
	<path id="XMLID_214_" class="st4" d="M820.5,241.4l-5.1-7.1v7.1h-1.9v-10.2h1.9l4.8,6.6v-6.6h1.9v10.2H820.5z"/>
	<path id="XMLID_216_" class="st4" d="M825.1,240.9l0.2-2.1c0.6,0.5,1.8,1.1,3.4,1.1c1.2,0,2.1-0.3,2.1-1.1c0-1-1.2-1.4-2.6-1.8
		c-1.6-0.5-3.3-1-3.3-2.8c0-1.3,1-3.1,3.9-3.1c1.5,0,2.9,0.5,3.4,0.8l-0.2,1.9c-1.1-0.6-2.1-0.9-3.2-0.9c-0.9,0-2.1,0.2-2.1,1.1
		c0,0.8,1,1.1,2.2,1.5c1.7,0.5,3.8,1.1,3.8,3.3c0,1.1-0.5,2.9-4.2,2.9C827,241.6,825.7,241.3,825.1,240.9z"/>
	<path id="XMLID_218_" class="st4" d="M835.7,241.4v-10.2h1.9v10.2H835.7z"/>
	<path id="XMLID_220_" class="st4" d="M845,233v8.4h-1.9V233H840v-1.8h8v1.8H845z"/>
	<path id="XMLID_222_" class="st4" d="M854.8,236.9v4.5H853v-4.5l-3.8-5.7h2l2.7,4l2.7-4h2L854.8,236.9z"/>
</g>
<rect id="XMLID_1_" x="679.4" y="521.3" class="st6" width="135.9" height="38.6"/>
<g class="st2">
	<path class="st4" d="M679.8,527.6c0-1.8,1.1-3.2,3-3.2s3,1.4,3,3.2c0,1.8-1.1,3.2-3,3.2C680.9,530.8,679.8,529.4,679.8,527.6z
		 M681,527.6c0,1.4,0.7,2.2,1.9,2.2s1.9-0.8,1.9-2.2c0-1.4-0.7-2.2-1.9-2.2C681.6,525.4,681,526.2,681,527.6z"/>
	<path class="st4" d="M689.6,525.4v5.2h-1.1v-5.2h-1.1l0.1-0.9h0.9V523c0-1,0.5-1.7,1.4-1.7c0.7,0,1,0.1,1.3,0.2l-0.2,0.9
		c-0.3-0.1-0.5-0.1-0.7-0.1c-0.6,0-0.6,0.2-0.6,1.5v0.7h1.6v0.9H689.6z"/>
	<path class="st4" d="M698.1,529.9v3.8H697v-9.1h0.9l0.1,0.9c0.5-0.6,1.1-1,2.1-1c1.7,0,2.7,1.5,2.7,3.2c0,1.8-0.9,3.2-2.7,3.2
		C699.5,530.8,698.6,530.5,698.1,529.9z M698.1,527.6c0,1.5,1,2.2,1.9,2.2c1.1,0,1.7-1,1.7-2.2c0-1.2-0.6-2.2-1.7-2.2
		C699,525.4,698.1,526.1,698.1,527.6z"/>
	<path class="st4" d="M705.8,527.6c0.2,1.7,1.1,2.2,2.3,2.2c0.6,0,1.2-0.1,1.8-0.4l0.2,0.9c-0.5,0.2-1.2,0.5-2,0.5
		c-2.2,0-3.3-1.5-3.3-3.2c0-1.7,1.1-3.1,3-3.1c1.5,0,2.6,0.9,2.6,2.6c0,0.2,0,0.4,0,0.6h-4.6V527.6z M705.9,526.8h3.2
		c0-0.9-0.5-1.4-1.5-1.4C706.6,525.4,706.1,525.9,705.9,526.8z"/>
	<path class="st4" d="M712.1,527.6c0-1.8,1.1-3.2,3-3.2s3,1.4,3,3.2c0,1.8-1.1,3.2-3,3.2C713.2,530.8,712.1,529.4,712.1,527.6z
		 M713.2,527.6c0,1.4,0.7,2.2,1.9,2.2s1.9-0.8,1.9-2.2c0-1.4-0.7-2.2-1.9-2.2S713.2,526.2,713.2,527.6z"/>
	<path class="st4" d="M721.5,529.9v3.8h-1.1v-9.1h0.9l0.1,0.9c0.5-0.6,1.1-1,2.1-1c1.7,0,2.7,1.5,2.7,3.2c0,1.8-0.9,3.2-2.7,3.2
		C722.8,530.8,721.9,530.5,721.5,529.9z M721.4,527.6c0,1.5,1,2.2,1.9,2.2c1.1,0,1.7-1,1.7-2.2c0-1.2-0.6-2.2-1.7-2.2
		C722.4,525.4,721.4,526.1,721.4,527.6z"/>
	<path class="st4" d="M730.3,530.8h-0.4c-1.2,0-1.6-0.7-1.6-1.5v-8h1.1v7.4c0,1,0.1,1.2,1,1.2L730.3,530.8z"/>
	<path class="st4" d="M733,527.6c0.2,1.7,1.1,2.2,2.3,2.2c0.6,0,1.2-0.1,1.8-0.4l0.2,0.9c-0.5,0.2-1.2,0.5-2,0.5
		c-2.2,0-3.3-1.5-3.3-3.2c0-1.7,1.1-3.1,3-3.1c1.5,0,2.6,0.9,2.6,2.6c0,0.2,0,0.4,0,0.6H733V527.6z M733.1,526.8h3.2
		c0-0.9-0.5-1.4-1.5-1.4C733.9,525.4,733.4,525.9,733.1,526.8z"/>
	<path class="st4" d="M745.5,530.8h-0.4c-1.2,0-1.6-0.7-1.6-1.5v-8h1.1v7.4c0,1,0.1,1.2,1,1.2L745.5,530.8z"/>
	<path class="st4" d="M747.5,523.1v-1.2h1.1v1.2H747.5z M747.5,530.6v-6.1h1.1v6.1H747.5z"/>
	<path class="st4" d="M754.2,530.6h-1.3l-2.3-6.1h1.2l1.7,4.9l1.7-4.9h1.3L754.2,530.6z"/>
	<path class="st4" d="M758.4,523.1v-1.2h1.1v1.2H758.4z M758.4,530.6v-6.1h1.1v6.1H758.4z"/>
	<path class="st4" d="M766.5,530.6v-3.4c0-1.3-0.4-1.9-1.6-1.9c-0.7,0-1.4,0.2-1.7,0.8v4.4h-1.1v-6.1h0.9l0.1,0.6
		c0.7-0.6,1.4-0.8,2-0.8c1.8,0,2.5,1.1,2.5,2.9v3.4L766.5,530.6L766.5,530.6z"/>
	<path class="st4" d="M769.7,531.9c0-0.3,0.1-1,1.1-1.4c-0.5-0.2-0.6-0.6-0.6-0.8s0.1-0.6,0.7-0.9c-0.9-0.6-1.1-1.4-1.1-2
		c0-1.3,0.9-2.5,2.5-2.5c0.6,0,1.1,0.1,1.6,0.5c0.4-0.2,0.9-0.3,1.5-0.3h0.1l-0.1,0.7H775c-0.1,0-0.5,0-0.7,0.1
		c0.4,0.5,0.6,1,0.6,1.5c0,1.2-0.9,2.4-2.5,2.4c-0.3,0-0.6,0-0.9-0.1c-0.2,0.1-0.3,0.2-0.3,0.4c0,0.3,0.4,0.4,1.9,0.6
		c1,0.2,2.5,0.5,2.5,1.7c0,1-1,1.9-3.1,1.9C770.4,533.8,769.7,532.7,769.7,531.9z M771.7,530.8c-0.6,0.2-1,0.6-1,1.1
		c0,0.6,0.7,1,1.8,1c1.2,0,1.9-0.5,1.9-1c0-0.4-0.5-0.7-1.6-0.9C772.8,531,771.9,530.8,771.7,530.8z M770.9,526.8
		c0,1,0.6,1.5,1.5,1.5s1.4-0.7,1.4-1.6c0-1-0.6-1.5-1.5-1.5C771.4,525.3,770.9,525.9,770.9,526.8z"/>
	<path class="st4" d="M781.2,523.1v-1.2h1.1v1.2H781.2z M781.2,530.6v-6.1h1.1v6.1H781.2z"/>
	<path class="st4" d="M789.3,530.6v-3.4c0-1.3-0.4-1.9-1.6-1.9c-0.7,0-1.4,0.2-1.7,0.8v4.4h-1.1v-6.1h0.9l0.1,0.6
		c0.7-0.6,1.4-0.8,2-0.8c1.8,0,2.5,1.1,2.5,2.9v3.4L789.3,530.6L789.3,530.6z"/>
</g>
<g class="st2">
	<path class="st4" d="M684.2,551.5l-0.1-0.7c-0.4,0.5-0.9,0.8-1.7,0.8c-1.4,0-2.3-0.8-2.3-2.7v-3.6h1.1v3.2c0,1.3,0.4,2,1.4,2
		c0.6,0,1.1-0.2,1.4-0.7v-4.5h1.1v6.1h-0.9V551.5z"/>
	<path class="st4" d="M690.7,546.3h-0.4c-0.5,0-1.2,0.4-1.4,0.8v4.3h-1.2v-6.1h0.9l0.1,1c0.7-0.8,1.3-1.2,2.1-1.2h0.1L690.7,546.3z"
		/>
	<path class="st4" d="M693.9,550.7l-0.1,0.8h-1v-9.4h1.1v3.9c0.5-0.6,1.3-0.8,1.9-0.8c1.7,0,2.8,1.5,2.8,3.2c0,1.8-1.2,3.2-2.8,3.2
		C695.2,551.6,694.4,551.3,693.9,550.7z M693.8,548.4c0,1.5,0.9,2.2,1.8,2.2c1.1,0,1.7-1,1.7-2.2c0-1.2-0.7-2.2-1.7-2.2
		C694.8,546.2,693.8,546.9,693.8,548.4z"/>
	<path class="st4" d="M705.7,551.6L705.7,551.6c-1.2,0-1.4-0.3-1.7-0.9c-0.5,0.5-1.1,0.9-1.9,0.9c-1.1,0-1.9-0.7-1.9-1.8
		c0-1.7,2.1-2.2,3.7-2.2c0-1.2-0.5-1.4-1.3-1.4c-0.5,0-1,0.1-1.6,0.5l-0.2-0.9c0.5-0.4,1.3-0.6,2.1-0.6c1.5,0,2.2,0.7,2.2,2.9v1.2
		c0,0.9,0,1.3,0.7,1.3h0.1L705.7,551.6z M704,548.4c-1.8,0.1-2.5,0.4-2.5,1.3c0,0.7,0.4,0.9,0.9,0.9c0.6,0,1.2-0.3,1.6-0.8V548.4z"
		/>
	<path class="st4" d="M712.2,551.5v-3.4c0-1.3-0.4-1.9-1.6-1.9c-0.7,0-1.4,0.3-1.7,0.8v4.4h-1.1v-6.1h0.9l0.1,0.6
		c0.7-0.6,1.4-0.8,2-0.8c1.8,0,2.5,1.1,2.5,2.9v3.4L712.2,551.5L712.2,551.5z"/>
	<path class="st4" d="M724.6,551.6L724.6,551.6c-1.2,0-1.4-0.3-1.7-0.9c-0.5,0.5-1.1,0.9-1.9,0.9c-1.1,0-1.9-0.7-1.9-1.8
		c0-1.7,2.1-2.2,3.7-2.2c0-1.2-0.5-1.4-1.3-1.4c-0.5,0-1,0.1-1.6,0.5l-0.2-0.9c0.5-0.4,1.3-0.6,2.1-0.6c1.5,0,2.2,0.7,2.2,2.9v1.2
		c0,0.9,0,1.3,0.7,1.3h0.1L724.6,551.6z M722.8,548.4c-1.8,0.1-2.5,0.4-2.5,1.3c0,0.7,0.4,0.9,0.9,0.9c0.6,0,1.2-0.3,1.6-0.8V548.4z
		"/>
	<path class="st4" d="M729.7,546.3h-0.4c-0.5,0-1.2,0.4-1.4,0.8v4.3h-1.2v-6.1h0.9l0.1,1c0.7-0.8,1.3-1.2,2.1-1.2h0.1L729.7,546.3z"
		/>
	<path class="st4" d="M732.3,548.4c0.2,1.7,1.1,2.2,2.3,2.2c0.6,0,1.2-0.1,1.8-0.4l0.2,0.9c-0.5,0.2-1.2,0.5-2,0.5
		c-2.2,0-3.3-1.5-3.3-3.2c0-1.7,1.1-3.1,3-3.1c1.5,0,2.6,0.9,2.6,2.6c0,0.2,0,0.4,0,0.6L732.3,548.4L732.3,548.4z M732.4,547.6h3.2
		c0-0.9-0.5-1.4-1.5-1.4C733.2,546.2,732.7,546.7,732.4,547.6z"/>
	<path class="st4" d="M744,551.6L744,551.6c-1.2,0-1.4-0.3-1.7-0.9c-0.5,0.5-1.1,0.9-1.9,0.9c-1.1,0-1.9-0.7-1.9-1.8
		c0-1.7,2.1-2.2,3.7-2.2c0-1.2-0.5-1.4-1.3-1.4c-0.5,0-1,0.1-1.6,0.5l-0.2-0.9c0.5-0.4,1.3-0.6,2.1-0.6c1.5,0,2.2,0.7,2.2,2.9v1.2
		c0,0.9,0,1.3,0.7,1.3h0.1L744,551.6z M742.2,548.4c-1.8,0.1-2.5,0.4-2.5,1.3c0,0.7,0.4,0.9,0.9,0.9c0.6,0,1.2-0.3,1.6-0.8V548.4z"
		/>
	<path class="st4" d="M745.7,551l0.1-1.1c0.3,0.2,1,0.6,1.9,0.6c0.8,0,1.2-0.3,1.2-0.8c0-0.6-0.7-0.9-1.2-1
		c-0.8-0.2-1.9-0.5-1.9-1.8c0-0.9,0.6-1.8,2.3-1.8c0.8,0,1.3,0.2,1.7,0.4l-0.1,1c-0.4-0.3-0.8-0.5-1.5-0.5s-1.2,0.2-1.2,0.8
		s0.5,0.7,1.4,1c0.6,0.2,1.7,0.5,1.7,1.8c0,0.8-0.5,1.8-2.3,1.8C746.7,551.6,746,551.2,745.7,551z"/>
</g>
</svg>
