<?xml version="1.0" encoding="utf-8"?>
<!-- Generator: Adobe Illustrator 19.0.0, SVG Export Plug-In . SVG Version: 6.00 Build 0)  -->
<svg version="1.1" id="Livello_1" xmlns="http://www.w3.org/2000/svg" xmlns:xlink="http://www.w3.org/1999/xlink" x="0px" y="0px"
	 viewBox="0 0 448.4 303.3" enable-background="new 0 0 448.4 303.3" xml:space="preserve">
<g id="XMLID_1375_">
	<polygon id="XMLID_1857_" fill="none" stroke="#C6C7C9" stroke-width="0.5" stroke-miterlimit="10" points="56.6,299.2 219,18.1 
		381.3,299.2 	"/>
	<polygon id="XMLID_1856_" fill="none" stroke="#C6C7C9" stroke-width="0.5" stroke-miterlimit="10" points="137.8,252.3 219,111.7 
		300.1,252.3 	"/>
	<polygon id="XMLID_1855_" fill="none" stroke="#C6C7C9" stroke-width="0.5" stroke-miterlimit="10" points="178.4,229.1 219,158.8 
		259.5,229.1 	"/>
	<polygon id="XMLID_1851_" fill="none" stroke="#C6C7C9" stroke-width="0.5" stroke-miterlimit="10" points="97.2,276.4 219,65.6 
		340.7,276.4 	"/>
	
		<line id="XMLID_1605_" fill="none" stroke="#C6C7C9" stroke-width="0.5" stroke-miterlimit="10" x1="219" y1="18.1" x2="219" y2="206.1"/>
	
		<line id="XMLID_1377_" fill="none" stroke="#C6C7C9" stroke-width="0.5" stroke-miterlimit="10" x1="382.1" y1="299.7" x2="218.8" y2="205.4"/>
	
		<line id="XMLID_1376_" fill="none" stroke="#C6C7C9" stroke-width="0.5" stroke-miterlimit="10" x1="219" y1="205.6" x2="56.7" y2="299.3"/>
</g>
<text id="XMLID_1374_" transform="matrix(1 0 0 1 391 283.4568)"><tspan x="0" y="0" fill="#000100" font-family="'SourceSansPro-Regular'" font-size="13px">Domestic </tspan><tspan x="0" y="15.6" fill="#000100" font-family="'SourceSansPro-Regular'" font-size="13px">Food Price</tspan></text>
<text id="XMLID_1373_" transform="matrix(1 0 0 1 201 10.7902)" fill="#000100" font-family="'SourceSansPro-Regular'" font-size="13px">Supply</text>
<text id="XMLID_1372_" transform="matrix(1 0 0 1 0 298.7903)" fill="#000100" font-family="'SourceSansPro-Regular'" font-size="13px">GDP/PPP</text>
<polygon id="XMLID_1371_" display="none" opacity="0.8" fill="#C02B5D" points="219,125.8 233.2,213.9 69.1,292.2 "/>
<polygon id="XMLID_656_" display="none" opacity="0.8" fill="#3C9181" points="218.9,174.1 214,208.8 341,276 "/>
<polygon id="XMLID_655_" display="none" opacity="0.8" fill="#F6914A" points="218.9,153.7 250.3,223.6 142.2,250 "/>
<polygon id="XMLID_654_" display="none" opacity="0.8" fill="#F1644D" points="218.9,151.5 258.8,228.8 178,229.4 "/>
<polygon id="XMLID_653_" opacity="0.8" fill="#A8CAB5" points="219.3,161.2 284.4,243.2 195.5,219.3 "/>
<polygon id="XMLID_652_" display="none" opacity="0.8" fill="#91CFDB" points="219,142.1 181.1,227.5 219,205.7 "/>
</svg>
