<?xml version="1.0" encoding="utf-8"?>
<!-- Generator: Adobe Illustrator 19.1.0, SVG Export Plug-In . SVG Version: 6.00 Build 0)  -->
<svg version="1.1" xmlns="http://www.w3.org/2000/svg" xmlns:xlink="http://www.w3.org/1999/xlink" x="0px" y="0px"
	 viewBox="0 0 960.1 573.1" style="enable-background:new 0 0 960.1 573.1;" xml:space="preserve">
<style type="text/css">
	.st0{fill:#F2EDD8;}
	.st1{fill:none;stroke:#1D1D1D;stroke-width:0.25;stroke-miterlimit:10;}
	.st2{fill:#44B3C2;}
	.st3{fill:#F1A94E;}
	.st4{fill:#7B8D8E;}
	.st5{fill:#E45641;}
	.st6{fill:none;}
	.st7{font-family:'NeutraText-Book';}
	.st8{font-size:15px;}
	.st9{font-size:9px;}
	.st10{font-size:12px;}
</style>
<g id="Livello_1">
	<rect x="-198.8" y="-72.4" class="st0" width="1364.9" height="741"/>
</g>
<g id="Livello_3">
	<path class="st1" d="M772.3,262.5l-140.8,55.3 M480.7,322l291.6-59.5l-35.2,40.3l-105.6,15 M772.3,262.5l-46.9-40.2 M631.5,317.8
		l169.2,72.1 M772.3,262.5L459,171.2 M252.8,339.6l5.9-47.8 M692.7,447.6l-61.2-129.9 M631.5,317.8L769.8,420 M772.3,262.5
		l28.5,127.4 M746.3,446.8l-114.8-129 M631.5,317.8L459,171.2 M631.5,317.8l93.8-95.5 M429.6,125.9l29.3,45.2 M210.1,322.8
		l42.7,16.8 M474.9,82.4L459,171.2 M772.3,262.5L769.8,420 M474.9,82.4l297.4,180.1 M474.9,82.4l156.7,235.4 M772.3,262.5
		l-229.6-22.6 M631.5,317.8l-88.8-77.9 M258.7,291.8l372.8,26 M772.3,262.5l-26,184.3 M772.3,262.5l30.2,59.5 M459,171.2L480.7,322
		 M459,171.2l266.4,51.1 M252.8,339.6l378.7-21.8 M631.5,317.8l46.9,19.3 M772.3,262.5l-79.6,185.2 M221.8,275.1l36.9,16.8
		 M258.7,291.8l188.6-114.9 M252.8,339.6l-39.4-101.4 M182.5,266.7l76.2,25.1 M631.5,317.8L598,356.3 M459,171.2l83.8,68.7
		 M213.5,238.2l45.2,53.6 M474.9,82.4l250.5,139.9 M407.8,294.3l223.7,23.5 M258.7,291.8L154,303.5 M746.3,446.8l23.5-26.8
		 M210.1,322.8l48.6-31 M772.3,262.5L429.6,125.9 M258.7,291.8l466.7-69.5 M440.5,216.4l18.4-45.2 M772.3,262.5l-513.6,29.3
		 M772.3,262.5l-16.8,88 M252.8,339.6l-98.9-36 M692.7,447.6l77.1-27.6 M692.7,447.6l108.1-57.8 M631.5,317.8L496.7,536.5"/>
</g>
<g id="Livello_7">
	<path class="st2" d="M730.4,331.6c0,1.2-0.9,2.1-2.1,2.1s-2.1-0.9-2.1-2.1c0-1.2,0.9-2.1,2.1-2.1S730.4,330.5,730.4,331.6
		L730.4,331.6z"/>
	<path class="st2" d="M655.8,100.4c0,1.2-0.9,2.1-2.1,2.1c-1.2,0-2.1-0.9-2.1-2.1c0-1.2,0.9-2.1,2.1-2.1
		C654.9,98.3,655.8,99.2,655.8,100.4L655.8,100.4z"/>
	<path class="st2" d="M618.1,426.3c0,1.2-0.9,2.1-2.1,2.1c-1.2,0-2.1-0.9-2.1-2.1c0-1.2,0.9-2.1,2.1-2.1
		C617.2,424.2,618.1,425.1,618.1,426.3L618.1,426.3z"/>
	<path class="st2" d="M543.6,285.1c0,1.4-1.1,2.5-2.5,2.5s-2.5-1.1-2.5-2.5c0-1.4,1.1-2.5,2.5-2.5S543.6,283.7,543.6,285.1
		L543.6,285.1z"/>
	<path class="st2" d="M681.8,86.5c0,1.4-1.1,2.5-2.5,2.5c-1.4,0-2.5-1.1-2.5-2.5c0-1.4,1.1-2.5,2.5-2.5
		C680.7,84,681.8,85.2,681.8,86.5L681.8,86.5z"/>
	<path class="st2" d="M502.5,361.8c0,1.6-1.3,2.9-2.9,2.9s-2.9-1.3-2.9-2.9c0-1.6,1.3-2.9,2.9-2.9S502.5,360.2,502.5,361.8
		L502.5,361.8z"/>
	<path class="st2" d="M614,197.6c0,1.6-1.3,2.9-2.9,2.9c-1.6,0-2.9-1.3-2.9-2.9c0-1.6,1.3-2.9,2.9-2.9
		C612.6,194.6,614,195.9,614,197.6L614,197.6z"/>
	<path class="st2" d="M646.6,246.1c0,1.6-1.3,2.9-2.9,2.9s-2.9-1.3-2.9-2.9s1.3-2.9,2.9-2.9S646.6,244.5,646.6,246.1L646.6,246.1z"
		/>
	<path class="st2" d="M760.6,173.3c0,1.6-1.3,2.9-2.9,2.9s-2.9-1.3-2.9-2.9c0-1.6,1.3-2.9,2.9-2.9S760.6,171.6,760.6,173.3
		L760.6,173.3z"/>
	<path class="st2" d="M602.2,244.9c0,1.9-1.5,3.4-3.4,3.4s-3.4-1.5-3.4-3.4c0-1.9,1.5-3.4,3.4-3.4S602.2,243,602.2,244.9
		L602.2,244.9z"/>
	<path class="st2" d="M693.5,284.3c0,1.9-1.5,3.4-3.4,3.4s-3.4-1.5-3.4-3.4c0-1.9,1.5-3.4,3.4-3.4S693.5,282.4,693.5,284.3
		L693.5,284.3z"/>
	<path class="st2" d="M770.6,203c0,2.7-2.2,5-5,5c-2.7,0-5-2.2-5-5c0-2.7,2.2-5,5-5C768.3,198,770.6,200.3,770.6,203L770.6,203z"/>
	<path class="st2" d="M660,377.7c0,2.1-1.7,3.8-3.8,3.8c-2.1,0-3.8-1.7-3.8-3.8c0-2.1,1.7-3.8,3.8-3.8
		C658.3,373.9,660,375.6,660,377.7L660,377.7z"/>
	<path class="st2" d="M760.6,351.3c0,2.3-1.9,4.2-4.2,4.2c-2.3,0-4.2-1.9-4.2-4.2c0-2.3,1.9-4.2,4.2-4.2
		C758.7,347.1,760.6,349,760.6,351.3L760.6,351.3z"/>
	<path class="st2" d="M706.1,138.5c0,2.3-1.9,4.2-4.2,4.2c-2.3,0-4.2-1.9-4.2-4.2s1.9-4.2,4.2-4.2
		C704.2,134.3,706.1,136.2,706.1,138.5L706.1,138.5z"/>
	<path class="st2" d="M504.2,420.4c0,2.5-2.1,4.6-4.6,4.6s-4.6-2.1-4.6-4.6c0-2.5,2.1-4.6,4.6-4.6S504.2,417.9,504.2,420.4
		L504.2,420.4z"/>
	<path class="st2" d="M585.5,274.6c0,2.5-2.1,4.6-4.6,4.6s-4.6-2.1-4.6-4.6c0-2.5,2.1-4.6,4.6-4.6S585.5,272.1,585.5,274.6
		L585.5,274.6z"/>
	<path class="st2" d="M679.3,188.8c0,2.8-2.3,5-5,5s-5-2.3-5-5c0-2.8,2.3-5,5-5S679.3,186,679.3,188.8L679.3,188.8z"/>
	<path class="st3" d="M684.3,337.9c0,2.8-2.3,5-5,5c-2.8,0-5-2.3-5-5s2.3-5,5-5C682.1,332.9,684.3,335.1,684.3,337.9L684.3,337.9z"
		/>
	<path class="st2" d="M808.3,322.4c0,3-2.4,5.4-5.4,5.4c-3,0-5.4-2.4-5.4-5.4c0-3,2.4-5.4,5.4-5.4
		C805.9,316.9,808.3,319.4,808.3,322.4L808.3,322.4z"/>
	<path class="st2" d="M604.7,356.7c0,3.5-2.8,6.3-6.3,6.3c-3.5,0-6.3-2.8-6.3-6.3c0-3.5,2.8-6.3,6.3-6.3
		C601.9,350.5,604.7,353.3,604.7,356.7L604.7,356.7z"/>
	<path class="st2" d="M552,240.7c0,4.6-3.8,8.4-8.4,8.4c-4.6,0-8.4-3.8-8.4-8.4c0-4.6,3.8-8.4,8.4-8.4
		C548.2,232.3,552,236.1,552,240.7L552,240.7z"/>
	<path class="st2" d="M736.3,223.1c0,5.6-4.5,10.1-10.1,10.1c-5.6,0-10.1-4.5-10.1-10.1c0-5.6,4.5-10.1,10.1-10.1
		C731.8,213.1,736.3,217.6,736.3,223.1L736.3,223.1z"/>
	<path class="st2" d="M789.9,262.9c0,9.5-7.7,17.2-17.2,17.2c-9.5,0-17.2-7.7-17.2-17.2c0-9.5,7.7-17.2,17.2-17.2
		C782.2,245.7,789.9,253.4,789.9,262.9L789.9,262.9z"/>
</g>
<g id="Livello_5">
	<path class="st3" d="M577.9,489.1c0,1.2-0.9,2.1-2.1,2.1s-2.1-0.9-2.1-2.1s0.9-2.1,2.1-2.1S577.9,488,577.9,489.1L577.9,489.1z"/>
	<path class="st3" d="M836,437.2c0,1.6-1.3,2.9-2.9,2.9s-2.9-1.3-2.9-2.9c0-1.6,1.3-2.9,2.9-2.9S836,435.6,836,437.2L836,437.2z"/>
	<path class="st3" d="M744.1,301.9c0,3.8-3.1,7-7,7c-3.8,0-7-3.1-7-7c0-3.8,3.1-7,7-7C741,294.9,744.1,298,744.1,301.9L744.1,301.9z
		"/>
	<path class="st3" d="M514.2,481.2c0,2.8-2.3,5-5,5s-5-2.3-5-5s2.3-5,5-5S514.2,478.4,514.2,481.2L514.2,481.2z"/>
	<path class="st3" d="M503.4,537.3c0,3.2-2.6,5.9-5.9,5.9c-3.2,0-5.9-2.6-5.9-5.9c0-3.2,2.6-5.9,5.9-5.9
		C500.7,531.4,503.4,534.1,503.4,537.3L503.4,537.3z"/>
	<path class="st3" d="M776.5,420.4c0,3.5-2.8,6.3-6.3,6.3c-3.5,0-6.3-2.8-6.3-6.3c0-3.5,2.8-6.3,6.3-6.3
		C773.7,414.1,776.5,416.9,776.5,420.4L776.5,420.4z"/>
	<path class="st3" d="M753.9,447.2c0,3.9-3.2,7.1-7.1,7.1c-3.9,0-7.1-3.2-7.1-7.1c0-3.9,3.2-7.1,7.1-7.1
		C750.7,440.1,753.9,443.3,753.9,447.2L753.9,447.2z"/>
	<path class="st3" d="M700.2,448.1c0,3.9-3.2,7.1-7.1,7.1c-3.9,0-7.1-3.2-7.1-7.1c0-3.9,3.2-7.1,7.1-7.1
		C697.1,440.9,700.2,444.1,700.2,448.1L700.2,448.1z"/>
	<path class="st3" d="M810,390.7c0,4.6-3.8,8.4-8.4,8.4c-4.6,0-8.4-3.8-8.4-8.4c0-4.6,3.8-8.4,8.4-8.4
		C806.3,382.3,810,386,810,390.7L810,390.7z"/>
	<path class="st3" d="M651.7,318.6c0,10.6-8.6,19.3-19.3,19.3s-19.3-8.6-19.3-19.3c0-10.6,8.6-19.3,19.3-19.3S651.7,308,651.7,318.6
		L651.7,318.6z"/>
</g>
<g id="Livello_4">
	<path class="st4" d="M278,378.1c0,0.9-0.7,1.7-1.7,1.7s-1.7-0.7-1.7-1.7c0-0.9,0.7-1.7,1.7-1.7S278,377.2,278,378.1L278,378.1z"/>
	<path class="st4" d="M376,419.6c0,1.6-1.3,2.9-2.9,2.9c-1.6,0-2.9-1.3-2.9-2.9c0-1.6,1.3-2.9,2.9-2.9
		C374.7,416.6,376,418,376,419.6L376,419.6z"/>
	<path class="st4" d="M328.2,388.6c0,1.6-1.3,2.9-2.9,2.9c-1.6,0-2.9-1.3-2.9-2.9s1.3-2.9,2.9-2.9
		C326.9,385.6,328.2,387,328.2,388.6L328.2,388.6z"/>
	<path class="st4" d="M236.1,420.4c0,1.6-1.3,2.9-2.9,2.9c-1.6,0-2.9-1.3-2.9-2.9s1.3-2.9,2.9-2.9
		C234.8,417.5,236.1,418.8,236.1,420.4L236.1,420.4z"/>
	<path class="st4" d="M383.5,251.2c0,1.6-1.3,2.9-2.9,2.9c-1.6,0-2.9-1.3-2.9-2.9c0-1.6,1.3-2.9,2.9-2.9
		C382.2,248.2,383.5,249.6,383.5,251.2L383.5,251.2z"/>
	<path class="st4" d="M339.1,457.7c0,1.9-1.5,3.4-3.4,3.4c-1.9,0-3.4-1.5-3.4-3.4c0-1.9,1.5-3.4,3.4-3.4
		C337.6,454.4,339.1,455.9,339.1,457.7L339.1,457.7z"/>
	<path class="st4" d="M310.7,306.1c0,1.9-1.5,3.4-3.4,3.4s-3.4-1.5-3.4-3.4c0-1.9,1.5-3.4,3.4-3.4S310.7,304.2,310.7,306.1
		L310.7,306.1z"/>
	<path class="st4" d="M351.7,320.3c0,2.3-1.9,4.2-4.2,4.2s-4.2-1.9-4.2-4.2s1.9-4.2,4.2-4.2S351.7,318,351.7,320.3L351.7,320.3z"/>
	<path class="st4" d="M211,361.4c0,2.3-1.9,4.2-4.2,4.2c-2.3,0-4.2-1.9-4.2-4.2c0-2.3,1.9-4.2,4.2-4.2
		C209.1,357.2,211,359,211,361.4L211,361.4z"/>
	<path class="st4" d="M433,521c0,2.5-2.1,4.6-4.6,4.6c-2.5,0-4.6-2.1-4.6-4.6c0-2.5,2.1-4.6,4.6-4.6C430.9,516.4,433,518.4,433,521
		L433,521z"/>
	<path class="st4" d="M159,304c0,2.5-2.1,4.6-4.6,4.6c-2.5,0-4.6-2.1-4.6-4.6c0-2.5,2.1-4.6,4.6-4.6C156.9,299.4,159,301.4,159,304
		L159,304z"/>
	<path class="st4" d="M437.2,475.7c0,2.5-2.1,4.6-4.6,4.6c-2.5,0-4.6-2.1-4.6-4.6c0-2.5,2.1-4.6,4.6-4.6
		C435.1,471.1,437.2,473.2,437.2,475.7L437.2,475.7z"/>
	<path class="st4" d="M227.7,275.9c0,2.8-2.3,5-5,5c-2.8,0-5-2.3-5-5c0-2.8,2.3-5,5-5C225.5,270.9,227.7,273.1,227.7,275.9
		L227.7,275.9z"/>
	<path class="st4" d="M188.3,267.5c0,2.8-2.3,5-5,5s-5-2.3-5-5c0-2.8,2.3-5,5-5S188.3,264.7,188.3,267.5L188.3,267.5z"/>
	<path class="st4" d="M373.5,353.4c0,3-2.4,5.4-5.4,5.4c-3,0-5.4-2.4-5.4-5.4c0-3,2.4-5.4,5.4-5.4
		C371.1,347.9,373.5,350.4,373.5,353.4L373.5,353.4z"/>
	<path class="st4" d="M216,323.2c0,3-2.4,5.4-5.4,5.4s-5.4-2.4-5.4-5.4c0-3,2.4-5.4,5.4-5.4S216,320.2,216,323.2L216,323.2z"/>
	<path class="st4" d="M220.2,239c0,3.2-2.6,5.9-5.9,5.9c-3.2,0-5.9-2.6-5.9-5.9c0-3.2,2.6-5.9,5.9-5.9
		C217.5,233.2,220.2,235.8,220.2,239L220.2,239z"/>
	<path class="st4" d="M414.5,294.7c0,3.5-2.8,6.3-6.3,6.3c-3.5,0-6.3-2.8-6.3-6.3c0-3.5,2.8-6.3,6.3-6.3
		C411.7,288.5,414.5,291.3,414.5,294.7L414.5,294.7z"/>
	<path class="st4" d="M270.4,292.2c0,6.2-5.1,11.3-11.3,11.3c-6.2,0-11.3-5.1-11.3-11.3c0-6.2,5.1-11.3,11.3-11.3
		C265.4,280.9,270.4,286,270.4,292.2L270.4,292.2z"/>
	<path class="st4" d="M266.2,340c0,7.2-5.8,13-13,13c-7.2,0-13-5.8-13-13s5.8-13,13-13C260.4,327,266.2,332.8,266.2,340L266.2,340z"
		/>
</g>
<g id="Livello_2">
	<path class="st5" d="M555.3,29.6c0,0.9-0.7,1.7-1.7,1.7s-1.7-0.8-1.7-1.7s0.7-1.7,1.7-1.7S555.3,28.6,555.3,29.6L555.3,29.6z"/>
	<path class="st5" d="M373.5,132.2c0,1.2-0.9,2.1-2.1,2.1c-1.2,0-2.1-0.9-2.1-2.1s0.9-2.1,2.1-2.1
		C372.6,130.1,373.5,131,373.5,132.2L373.5,132.2z"/>
	<path class="st5" d="M412,85.3c0,1.2-0.9,2.1-2.1,2.1c-1.2,0-2.1-0.9-2.1-2.1c0-1.2,0.9-2.1,2.1-2.1C411.1,83.2,412,84.1,412,85.3
		L412,85.3z"/>
	<path class="st5" d="M399.5,53.9c0,1.4-1.1,2.5-2.5,2.5c-1.4,0-2.5-1.1-2.5-2.5c0-1.4,1.1-2.5,2.5-2.5
		C398.3,51.4,399.5,52.5,399.5,53.9L399.5,53.9z"/>
	<path class="st5" d="M322.4,149c0,1.6-1.3,2.9-2.9,2.9c-1.6,0-2.9-1.3-2.9-2.9s1.3-2.9,2.9-2.9C321.1,146,322.4,147.3,322.4,149
		L322.4,149z"/>
	<path class="st5" d="M437.2,242.8c0,1.6-1.3,2.9-2.9,2.9c-1.6,0-2.9-1.3-2.9-2.9s1.3-2.9,2.9-2.9
		C435.9,239.9,437.2,241.2,437.2,242.8L437.2,242.8z"/>
	<path class="st5" d="M462.3,433.8c0,1.6-1.3,2.9-2.9,2.9s-2.9-1.3-2.9-2.9c0-1.6,1.3-2.9,2.9-2.9S462.3,432.2,462.3,433.8
		L462.3,433.8z"/>
	<path class="st5" d="M500.8,204.7c0,1.9-1.5,3.4-3.4,3.4s-3.4-1.5-3.4-3.4c0-1.9,1.5-3.4,3.4-3.4S500.8,202.8,500.8,204.7
		L500.8,204.7z"/>
	<path class="st5" d="M549.4,135.1c0,1.9-1.5,3.4-3.4,3.4c-1.9,0-3.4-1.5-3.4-3.4c0-1.9,1.5-3.4,3.4-3.4
		C547.9,131.8,549.4,133.3,549.4,135.1L549.4,135.1z"/>
	<path class="st5" d="M540.2,45.5c0,2.3-1.9,4.2-4.2,4.2c-2.3,0-4.2-1.9-4.2-4.2s1.9-4.2,4.2-4.2C538.3,41.3,540.2,43.2,540.2,45.5
		L540.2,45.5z"/>
	<path class="st5" d="M482.4,265c0,2.3-1.9,4.2-4.2,4.2c-2.3,0-4.2-1.9-4.2-4.2c0-2.3,1.9-4.2,4.2-4.2
		C480.5,260.8,482.4,262.7,482.4,265L482.4,265z"/>
	<path class="st5" d="M446.4,216.8c0,3-2.4,5.4-5.4,5.4c-3,0-5.4-2.4-5.4-5.4c0-3,2.4-5.4,5.4-5.4
		C443.9,211.4,446.4,213.8,446.4,216.8L446.4,216.8z"/>
	<path class="st5" d="M487.4,322.4c0,3.5-2.8,6.3-6.3,6.3c-3.5,0-6.3-2.8-6.3-6.3c0-3.5,2.8-6.3,6.3-6.3
		C484.6,316.1,487.4,318.9,487.4,322.4L487.4,322.4z"/>
	<path class="st5" d="M438,126.8c0,4.2-3.4,7.5-7.5,7.5c-4.2,0-7.5-3.4-7.5-7.5s3.4-7.5,7.5-7.5C434.6,119.2,438,122.6,438,126.8
		L438,126.8z"/>
	<path class="st5" d="M484.9,83.2c0,5.1-4.1,9.2-9.2,9.2c-5.1,0-9.2-4.1-9.2-9.2c0-5.1,4.1-9.2,9.2-9.2
		C480.8,74,484.9,78.1,484.9,83.2L484.9,83.2z"/>
	<path class="st5" d="M473.2,172c0,7.4-6,13.4-13.4,13.4c-7.4,0-13.4-6-13.4-13.4s6-13.4,13.4-13.4
		C467.2,158.6,473.2,164.6,473.2,172L473.2,172z"/>
</g>
<g id="Livello_6">
</g>
<g id="Livello_8">
	<rect x="407.9" y="163.5" class="st6" width="106.5" height="26.8"/>
	<text transform="matrix(1 0 0 1 407.9413 174.3075)" class="st7 st8">Peer Review</text>
	<rect x="400.3" y="117.6" class="st6" width="49.8" height="16.6"/>
	<text transform="matrix(1 0 0 1 400.3009 128.4711)" class="st7 st8">Editor</text>
	<rect x="458.6" y="68.7" class="st6" width="49.8" height="16.6"/>
	<text transform="matrix(1 0 0 1 458.6035 79.5587)" class="st7 st8">Author</text>
	<rect x="398" y="79.1" class="st6" width="49.8" height="16.6"/>
	<text transform="matrix(1 0 0 1 398.0471 85.599)" class="st7 st9">Submission</text>
	<rect x="528.7" y="134.3" class="st6" width="49.8" height="16.6"/>
	<text transform="matrix(1 0 0 1 528.7498 140.7952)" class="st7 st9">Reputation</text>
	<rect x="608.7" y="191.8" class="st6" width="49.8" height="16.6"/>
	<text transform="matrix(1 0 0 1 608.6912 198.2882)" class="st7 st9">Medium</text>
	<rect x="668.7" y="179.2" class="st6" width="49.8" height="16.6"/>
	<text transform="matrix(1 0 0 1 668.7036 187.8194)" class="st7 st10">Source</text>
	<rect x="725.8" y="214.8" class="st6" width="95.1" height="16.6"/>
	<text transform="matrix(1 0 0 1 725.7891 225.6603)" class="st7 st8">Publisher</text>
	<rect x="760.4" y="256.6" class="st6" width="116.2" height="16.6"/>
	<text transform="matrix(1 0 0 1 760.3577 267.4576)" class="st7 st8">Business Model</text>
	<rect x="486.2" y="232.4" class="st6" width="91.6" height="16.6"/>
	<text transform="matrix(1 0 0 1 486.158 241.0894)" class="st7 st10">Plos Journal</text>
	<rect x="537" y="45.6" class="st6" width="49.8" height="16.6"/>
	<text transform="matrix(1 0 0 1 537.0041 52.0855)" class="st7 st9">Interest</text>
	<rect x="548" y="23" class="st6" width="49.8" height="16.6"/>
	<text transform="matrix(1 0 0 1 548.0178 29.464)" class="st7 st9">Conflict</text>
	<rect x="618.3" y="98.7" class="st6" width="49.8" height="16.6"/>
	<text transform="matrix(1 0 0 1 618.3286 105.2271)" class="st7 st9">Journalist</text>
	<rect x="659.3" y="80.1" class="st6" width="49.8" height="16.6"/>
	<text transform="matrix(1 0 0 1 659.3235 86.572)" class="st7 st9">Story</text>
	<rect x="700.5" y="131.7" class="st6" width="49.8" height="16.6"/>
	<text transform="matrix(1 0 0 1 700.5065 138.1816)" class="st7 st9">Reader</text>
	<rect x="743.6" y="165" class="st6" width="49.8" height="16.6"/>
	<text transform="matrix(1 0 0 1 743.5772 171.4774)" class="st7 st9">Elsevier</text>
	<rect x="761.7" y="196.4" class="st6" width="49.8" height="16.6"/>
	<text transform="matrix(1 0 0 1 761.6686 205.0623)" class="st7 st10">Profit</text>
	<rect x="388.3" y="48.1" class="st6" width="49.8" height="16.6"/>
	<text transform="matrix(1 0 0 1 388.2508 54.5991)" class="st7 st9">Manuscript</text>
	<rect x="331.5" y="123.4" class="st6" width="49.8" height="16.6"/>
	<text transform="matrix(1 0 0 1 331.4987 132.0703)" class="st7 st10">Concept</text>
	<rect x="296.8" y="139.4" class="st6" width="49.8" height="16.6"/>
	<text transform="matrix(1 0 0 1 296.8487 148.0703)" class="st7 st10">Database</text>
	<rect x="176.4" y="226.1" class="st6" width="71" height="16.6"/>
	<text transform="matrix(1 0 0 1 176.3923 234.7404)" class="st7 st10">Experiment</text>
	<rect x="159.1" y="258.4" class="st6" width="71" height="16.6"/>
	<text transform="matrix(1 0 0 1 159.0782 267.0623)" class="st7 st10">Effect</text>
	<rect x="197.6" y="272.6" class="st6" width="71" height="16.6"/>
	<text transform="matrix(1 0 0 1 197.6472 281.3056)" class="st7 st10">Bias</text>
	<rect x="76.6" y="294.3" class="st6" width="79.8" height="16.6"/>
	<text transform="matrix(1 0 0 1 76.5942 302.9892)" class="st7 st10">Publishing </text>
	<rect x="171.1" y="318.7" class="st6" width="79.8" height="16.6"/>
	<text transform="matrix(1 0 0 1 171.1345 327.3867)" class="st7 st10">Analysis</text>
	<rect x="306.4" y="304.8" class="st6" width="29.7" height="16.6"/>
	<text transform="matrix(1 0 0 1 306.4026 311.2952)" class="st7 st9">Biology</text>
	<rect x="335.2" y="316.2" class="st6" width="79.8" height="16.6"/>
	<text transform="matrix(1 0 0 1 335.1857 322.7071)" class="st7 st9">Area</text>
	<rect x="317.5" y="382" class="st6" width="79.8" height="16.6"/>
	<text transform="matrix(1 0 0 1 317.4922 388.5179)" class="st7 st9">Progress</text>
	<rect x="263.7" y="371.4" class="st6" width="79.8" height="16.6"/>
	<text transform="matrix(1 0 0 1 263.737 377.8493)" class="st7 st9">Psychology</text>
	<rect x="209" y="413" class="st6" width="79.8" height="16.6"/>
	<text transform="matrix(1 0 0 1 208.9823 419.5067)" class="st7 st9">Evidence</text>
	<rect x="317.5" y="449.4" class="st6" width="79.8" height="16.6"/>
	<text transform="matrix(1 0 0 1 317.4922 455.9233)" class="st7 st9">Physic</text>
	<rect x="353.7" y="412.2" class="st6" width="79.8" height="16.6"/>
	<text transform="matrix(1 0 0 1 353.6725 418.7167)" class="st7 st9">Software</text>
	<rect x="406.4" y="468.1" class="st6" width="79.8" height="16.6"/>
	<text transform="matrix(1 0 0 1 406.386 476.7721)" class="st7 st10">Project</text>
	<rect x="401.7" y="516.8" class="st6" width="79.8" height="16.6"/>
	<text transform="matrix(1 0 0 1 401.7046 525.4335)" class="st7 st10">Cern</text>
	<rect x="456.8" y="535.8" class="st6" width="79.8" height="16.6"/>
	<text transform="matrix(1 0 0 1 456.7509 544.4517)" class="st7 st10">Student</text>
	<rect x="549.6" y="486.2" class="st6" width="79.8" height="16.6"/>
	<text transform="matrix(1 0 0 1 549.6407 492.6871)" class="st7 st9">Layman</text>
	<rect x="631.5" y="375.8" class="st6" width="79.8" height="16.6"/>
	<text transform="matrix(1 0 0 1 631.4995 382.2674)" class="st7 st9">Benefit</text>
	<rect x="603.4" y="418.6" class="st6" width="79.8" height="16.6"/>
	<text transform="matrix(1 0 0 1 603.4255 425.0492)" class="st7 st9">Arxiv</text>
	<rect x="573.2" y="353.5" class="st6" width="79.8" height="16.6"/>
	<text transform="matrix(1 0 0 1 573.2103 359.991)" class="st7 st9">World</text>
	<rect x="484.5" y="354.7" class="st6" width="79.8" height="16.6"/>
	<text transform="matrix(1 0 0 1 484.4999 361.2477)" class="st7 st9">Technology</text>
	<rect x="489.5" y="413" class="st6" width="79.8" height="16.6"/>
	<text transform="matrix(1 0 0 1 489.5217 419.5068)" class="st7 st9">Scientific publishing</text>
	<rect x="422.4" y="427.5" class="st6" width="79.8" height="16.6"/>
	<text transform="matrix(1 0 0 1 422.3995 434.045)" class="st7 st9">Scientific community</text>
	<rect x="487" y="474.7" class="st6" width="79.8" height="16.6"/>
	<text transform="matrix(1 0 0 1 486.9885 481.1597)" class="st7 st9">Career</text>
	<rect x="178.3" y="361.4" class="st6" width="79.8" height="16.6"/>
	<text transform="matrix(1 0 0 1 178.2758 370.0153)" class="st7 st10">Statistic</text>
	<rect x="360.4" y="346.8" class="st6" width="79.8" height="16.6"/>
	<text transform="matrix(1 0 0 1 360.3977 355.4542)" class="st7 st10">Knowledge</text>
	<rect x="385.8" y="286.2" class="st6" width="79.8" height="16.6"/>
	<text transform="matrix(1 0 0 1 385.7702 294.8731)" class="st7 st10">Case</text>
	<rect x="360.1" y="242.9" class="st6" width="79.8" height="16.6"/>
	<text transform="matrix(1 0 0 1 360.1075 251.5623)" class="st7 st10">Book</text>
	<rect x="395.2" y="214" class="st6" width="79.8" height="16.6"/>
	<text transform="matrix(1 0 0 1 395.1652 222.657)" class="st7 st10">Impact factor</text>
	<rect x="444.6" y="315.5" class="st6" width="79.8" height="16.6"/>
	<text transform="matrix(1 0 0 1 444.5967 324.1828)" class="st7 st10">Process</text>
	<rect x="404.7" y="236.6" class="st6" width="79.8" height="16.6"/>
	<text transform="matrix(1 0 0 1 404.6935 243.143)" class="st7 st9">Citation</text>
	<rect x="479.3" y="203.1" class="st6" width="79.8" height="16.6"/>
	<text transform="matrix(1 0 0 1 479.2539 209.599)" class="st7 st9">Goal</text>
	<rect x="586.6" y="245.4" class="st6" width="79.8" height="16.6"/>
	<text transform="matrix(1 0 0 1 586.6157 251.8657)" class="st7 st9">Ability</text>
	<rect x="562.3" y="270.5" class="st6" width="79.8" height="16.6"/>
	<text transform="matrix(1 0 0 1 562.3185 277.045)" class="st7 st9">Content</text>
	<rect x="533.3" y="284.2" class="st6" width="79.8" height="16.6"/>
	<text transform="matrix(1 0 0 1 533.3071 290.7071)" class="st7 st9">Wikipedia</text>
	<rect x="637.2" y="238.8" class="st6" width="79.8" height="16.6"/>
	<text transform="matrix(1 0 0 1 637.178 245.3017)" class="st7 st9">Society</text>
	<rect x="802.1" y="318.2" class="st6" width="79.8" height="16.6"/>
	<text transform="matrix(1 0 0 1 802.0933 326.8596)" class="st7 st10">Fund</text>
	<rect x="699.3" y="292.5" class="st6" width="79.8" height="16.6"/>
	<text transform="matrix(1 0 0 1 699.2513 301.1504)" class="st7 st10">Copyright</text>
	<rect x="672.5" y="281.9" class="st6" width="79.8" height="16.6"/>
	<text transform="matrix(1 0 0 1 672.5405 288.3558)" class="st7 st9">Industry</text>
	<rect x="712.7" y="326.5" class="st6" width="25.4" height="16.6"/>
	<text transform="matrix(1 0 0 1 712.671 332.9709)" class="st7 st9">Law</text>
	<rect x="833" y="435.8" class="st6" width="50" height="16.6"/>
	<text transform="matrix(1 0 0 1 833.046 442.3217)" class="st7 st9">Budget</text>
	<g>
		<rect x="729" y="345.1" class="st6" width="76.4" height="16.6"/>
		<text transform="matrix(1 0 0 1 729.006 353.7786)" class="st7 st10">Government</text>
	</g>
	<rect x="589.5" y="314.1" class="st6" width="102.4" height="16.6"/>
	<text transform="matrix(1 0 0 1 589.5439 324.9436)" class="st7 st8">Open Access</text>
	<rect x="799.6" y="386.2" class="st6" width="79.8" height="16.6"/>
	<text transform="matrix(1 0 0 1 799.6193 394.8362)" class="st7 st10">University</text>
	<rect x="671.4" y="338.5" class="st6" width="79.8" height="16.6"/>
	<text transform="matrix(1 0 0 1 671.4028 347.177)" class="st7 st10">Public</text>
	<rect x="728.2" y="446.9" class="st6" width="79.8" height="16.6"/>
	<text transform="matrix(1 0 0 1 728.2104 455.5758)" class="st7 st10">Institution</text>
	<rect x="766.5" y="415.6" class="st6" width="79.8" height="16.6"/>
	<text transform="matrix(1 0 0 1 766.4895 424.2441)" class="st7 st10">Subscription</text>
	<rect x="662.6" y="446.1" class="st6" width="79.8" height="16.6"/>
	<text transform="matrix(1 0 0 1 662.6373 454.738)" class="st7 st10">Library</text>
	<rect x="477.7" y="262.6" class="st6" width="79.8" height="16.6"/>
	<text transform="matrix(1 0 0 1 477.7002 269.0855)" class="st7 st9">Community</text>
	<rect x="241.2" y="334.7" class="st6" width="79.8" height="16.6"/>
	<text transform="matrix(1 0 0 1 241.1866 345.5107)" class="st7 st8">Data</text>
	<rect x="246.7" y="289.4" class="st6" width="79.8" height="16.6"/>
	<text transform="matrix(1 0 0 1 246.7125 300.2279)" class="st7 st8">Finding</text>
</g>
</svg>
