<?xml version="1.0" encoding="utf-8"?>
<!-- Generator: Adobe Illustrator 19.0.0, SVG Export Plug-In . SVG Version: 6.00 Build 0)  -->
<svg version="1.1" id="Livello_1" xmlns="http://www.w3.org/2000/svg" xmlns:xlink="http://www.w3.org/1999/xlink" x="0px" y="0px"
	 viewBox="0 0 202.7 56.4" enable-background="new 0 0 202.7 56.4" xml:space="preserve">
<g>
	<path fill="#BD3060" d="M23.3,5.1c-0.3-0.2-0.6-0.3-0.9-0.3c-0.5,0-0.9,0.2-1.2,0.6c-0.5,0.6-0.4,1.6,0.3,2.1
		c0.3,0.2,0.6,0.3,0.9,0.3c0.5,0,0.9-0.2,1.2-0.6c0.2-0.3,0.3-0.7,0.3-1.1C23.8,5.7,23.6,5.3,23.3,5.1z"/>
	<path fill="#BD3060" d="M28.3,6.5c-1-2.7-3.2-4.9-5.9-5.9c-2.3-0.9-4.7-0.7-6.9,0c-3.3,1.1-6.4,3-9.1,5.3C5.1,7.1,3.9,8.3,2.7,9.7
		c-1,1.2-2.3,2.7-2.6,4.3c-0.2,0.9-0.1,1.9,0.2,2.8C1,18.5,2.4,19.7,4.2,20C5,20.1,6,20.1,6.7,19.8c1.2-0.5,2-1.1,3.3-1.2
		c1.3-0.1,2.7-0.1,4,0.3c1.3,0.3,2.5,1,3.8,1.2c1.5,0.2,3.1-0.1,4.6-0.6C27.6,17.4,30.2,11.7,28.3,6.5z M10.9,9l-3,6.4
		c-0.1,0.1-0.2,0.2-0.3,0.2c0,0-0.1,0-0.1,0c-0.2-0.1-0.2-0.3-0.2-0.4l3-6.4c0.1-0.2,0.3-0.2,0.4-0.2C10.9,8.7,11,8.8,10.9,9z
		 M11.9,14.4c0,0-0.1,0-0.1,0c-0.2-0.1-0.2-0.3-0.2-0.4l3.1-6.8C14.8,7,15,6.9,15.2,7c0.2,0.1,0.2,0.3,0.2,0.4l-3.1,6.8
		C12.2,14.3,12,14.4,11.9,14.4z M17.6,10.3l-3,6.4c-0.1,0.1-0.2,0.2-0.3,0.2c0,0-0.1,0-0.1,0C14,16.7,14,16.6,14,16.4l3-6.4
		c0.1-0.2,0.3-0.2,0.4-0.2C17.6,9.9,17.6,10.1,17.6,10.3z M24.1,7.5c-0.4,0.5-1,0.8-1.7,0.8c-0.5,0-0.9-0.1-1.3-0.4
		c-0.9-0.7-1.1-2-0.4-3c0.4-0.5,1-0.8,1.7-0.8c0.5,0,0.9,0.1,1.3,0.4c0.5,0.3,0.7,0.8,0.8,1.4C24.6,6.5,24.4,7.1,24.1,7.5z"/>
</g>
<path opacity="0.7" fill="#BD3060" d="M27.5,39.6c-0.2-0.2-0.5-0.4-0.7-0.6c0,0,0.1-0.1,0.1-0.1c1.7-1.7,1.7-4.4,0-6.1
	c-1.7-1.7-4.4-1.7-6.1,0c-0.1,0.1-0.2,0.2-0.3,0.3c-0.2-0.5-0.5-1-1-1.5c-1.7-1.7-4.4-1.7-6.1,0c-0.6,0.6-1,1.4-1.2,2.2
	c-1.6-0.7-3.5-0.4-4.7,0.9c-1.1,1.1-1.5,2.8-1.1,4.2c-0.4,0.2-0.8,0.5-1.2,0.8c-1.7,1.7-1.7,4.4,0,6.1c0.8,0.8,1.5,1.4,2.5,1.5
	l-5.1,6.6l2.5,2.5l6.5-5.2c0.1,1,0.6,1.9,1.3,2.6c1.7,1.7,4.4,1.6,6.1-0.1c0.4-0.4,0.7-0.8,0.9-1.2c1.5,0.4,3.1,0,4.3-1.1
	c1.3-1.3,1.6-3.2,0.9-4.7c0.8-0.2,1.6-0.5,2.2-1.2C29.2,44,29.2,41.2,27.5,39.6z M23.7,39.1c-0.2,0.1-0.4-0.1-0.4-0.2
	c-0.1-0.3-0.3-0.4-0.4-0.5c-0.6-0.2-1.7,0.4-2.1,0.6l0,0l0,0c0,0-0.1,0-0.1,0l-5.2,5.2c1.7-0.7,4.4-1.6,6.3-1
	c0.8,0.3,1.5,0.8,1.8,1.6c0.1,0.2,0,0.4-0.2,0.5c-0.2,0.1-0.4,0-0.5-0.2c-0.3-0.6-0.7-1-1.4-1.3c-2.7-0.9-7.4,1.8-7.5,1.8
	c0,0,0,0,0,0c0,0,0,0,0,0l-3,3c2.2-1,5.7-2.2,8.2-1.4c1,0.3,1.8,1,2.3,2c0.1,0.2,0,0.4-0.2,0.5c-0.2,0.1-0.4,0-0.5-0.2
	c-0.4-0.8-1-1.4-1.8-1.6c-3.3-1.1-9.1,2-9.5,2.3l-1.2,1.2c-0.1,0.1-0.4,0.1-0.5,0c-0.1-0.1-0.1-0.4,0-0.5l1.2-1.2
	c0.2-0.4,3.5-6,2.5-9.2c-0.3-0.9-0.8-1.4-1.6-1.8c-0.2-0.1-0.3-0.3-0.2-0.5c0.1-0.2,0.3-0.3,0.5-0.2c1,0.5,1.7,1.2,2,2.2
	c0.7,2.4-0.5,5.7-1.5,7.8l3-3c0.5-0.8,2.6-4.8,1.9-7.1c-0.2-0.7-0.6-1.1-1.2-1.4c-0.2-0.1-0.3-0.3-0.2-0.5c0.1-0.2,0.3-0.3,0.5-0.2
	c0.8,0.4,1.4,1,1.6,1.8c0.5,1.7-0.2,4.1-1,5.8l5.2-5.2c0.3-0.5,0.7-1.4,0.5-1.9c0-0.1-0.1-0.2-0.3-0.3c-0.2-0.1-0.3-0.3-0.2-0.4
	c0.1-0.2,0.3-0.3,0.4-0.2c0.4,0.1,0.6,0.4,0.7,0.7c0.2,0.5,0,1.1-0.2,1.6c0.5-0.2,1.2-0.4,1.7-0.2c0.3,0.1,0.6,0.4,0.8,1
	C24,38.9,23.9,39,23.7,39.1z"/>
<g id="XMLID_61_">
	<path id="XMLID_62_" d="M42.8,8.4h2.4c1.7,0,2.9,0.6,2.9,2.3c0,1.7-1.2,2.4-2.9,2.4h-1.4v3.1h-1V8.4z M45.1,12.3c1.4,0,2-0.5,2-1.6
		c0-1.1-0.7-1.5-2-1.5h-1.3v3.1H45.1z"/>
	<path id="XMLID_65_" d="M54,16.3l-1.9-3.3h-1.4v3.3h-1V8.4h2.5c1.6,0,2.7,0.6,2.7,2.2c0,1.2-0.7,2-1.8,2.2l2,3.4H54z M50.7,12.1H52
		c1.2,0,1.9-0.5,1.9-1.5c0-1-0.7-1.4-1.9-1.4h-1.3V12.1z"/>
	<path id="XMLID_68_" d="M56.1,12.3c0-2.5,1.4-4,3.4-4c2,0,3.4,1.5,3.4,4c0,2.5-1.4,4.1-3.4,4.1C57.5,16.4,56.1,14.8,56.1,12.3z
		 M61.8,12.3c0-2-0.9-3.2-2.3-3.2c-1.4,0-2.3,1.2-2.3,3.2c0,2,0.9,3.2,2.3,3.2C60.9,15.5,61.8,14.3,61.8,12.3z"/>
	<path id="XMLID_71_" d="M65.9,9.2h-2.4V8.4h5.8v0.8h-2.4v7h-1V9.2z"/>
	<path id="XMLID_73_" d="M70.6,8.4h4.5v0.8h-3.5v2.5h3v0.9h-3v2.9h3.6v0.9h-4.7V8.4z"/>
	<path id="XMLID_75_" d="M76.9,8.4h1v7.9h-1V8.4z"/>
	<path id="XMLID_77_" d="M80,8.4h1l2.9,4.9l0.9,1.6h0c0-0.8-0.1-1.7-0.1-2.5V8.4h0.9v7.9h-1l-2.8-5l-0.9-1.6h0
		c0,0.8,0.1,1.6,0.1,2.5v4.1H80V8.4z"/>
	<path id="XMLID_79_" d="M87.7,8.4h4.5v0.8h-3.5v2.5h3v0.9h-3v2.9h3.6v0.9h-4.7V8.4z"/>
	<path id="XMLID_81_" d="M96.3,8.4h2c2.4,0,3.7,1.4,3.7,3.9c0,2.5-1.3,4-3.7,4h-2V8.4z M98.2,15.5c1.8,0,2.8-1.2,2.8-3.2
		c0-2-0.9-3.1-2.8-3.1h-0.9v6.2H98.2z"/>
	<path id="XMLID_84_" d="M103.7,8.4h1v7.9h-1V8.4z"/>
	<path id="XMLID_86_" d="M108.7,12.3c0-2.5,1.4-4,3.4-4c2,0,3.4,1.5,3.4,4c0,2.5-1.4,4.1-3.4,4.1C110.1,16.4,108.7,14.8,108.7,12.3z
		 M114.4,12.3c0-2-0.9-3.2-2.3-3.2c-1.4,0-2.3,1.2-2.3,3.2c0,2,0.9,3.2,2.3,3.2C113.5,15.5,114.4,14.3,114.4,12.3z"/>
	<path id="XMLID_89_" d="M121.4,16.3l-1.9-3.3h-1.4v3.3h-1V8.4h2.5c1.6,0,2.7,0.6,2.7,2.2c0,1.2-0.7,2-1.8,2.2l2,3.4H121.4z
		 M118.1,12.1h1.3c1.2,0,1.9-0.5,1.9-1.5c0-1-0.7-1.4-1.9-1.4h-1.3V12.1z"/>
	<path id="XMLID_92_" d="M124,8.4h1v7.9h-1V8.4z"/>
	<path id="XMLID_94_" d="M130.3,8.3c1.1,0,1.8,0.5,2.3,1L132,9.9c-0.4-0.4-0.9-0.7-1.7-0.7c-1.6,0-2.6,1.2-2.6,3.2
		c0,2,0.9,3.2,2.6,3.2c0.6,0,1.1-0.2,1.4-0.5V13h-1.7v-0.8h2.6v3.3c-0.5,0.5-1.4,0.9-2.4,0.9c-2.1,0-3.5-1.5-3.5-4.1
		C126.7,9.8,128.2,8.3,130.3,8.3z"/>
	<path id="XMLID_96_" d="M134.5,8.4h1v7.9h-1V8.4z"/>
	<path id="XMLID_98_" d="M137.5,8.4h1l2.9,4.9l0.9,1.6h0c0-0.8-0.1-1.7-0.1-2.5V8.4h0.9v7.9h-1l-2.8-5l-0.9-1.6h0
		c0,0.8,0.1,1.6,0.1,2.5v4.1h-0.9V8.4z"/>
	<path id="XMLID_100_" d="M145.3,8.4h4.5v0.8h-3.5v2.5h3v0.9h-3v2.9h3.6v0.9h-4.7V8.4z"/>
	<path id="XMLID_102_" d="M157.5,13.9h-2.9l-0.8,2.4h-1l2.7-7.9h1.1l2.7,7.9h-1.1L157.5,13.9z M157.3,13.1l-0.4-1.2
		c-0.3-0.9-0.5-1.7-0.8-2.7h0c-0.3,0.9-0.5,1.8-0.8,2.7l-0.4,1.2H157.3z"/>
	<path id="XMLID_105_" d="M160.4,8.4h1l2.9,4.9l0.9,1.6h0c0-0.8-0.1-1.7-0.1-2.5V8.4h0.9v7.9h-1l-2.8-5l-0.9-1.6h0
		c0,0.8,0.1,1.6,0.1,2.5v4.1h-0.9V8.4z"/>
	<path id="XMLID_107_" d="M168.1,8.4h1v7.9h-1V8.4z"/>
	<path id="XMLID_109_" d="M171.2,8.4h1.2l1.5,4.2l0.6,1.6h0l0.6-1.6l1.5-4.2h1.2v7.9h-0.9v-4.3c0-0.7,0.1-1.6,0.1-2.3h0l-0.6,1.8
		l-1.5,4.1h-0.6l-1.5-4.1L172,9.6h0c0,0.7,0.1,1.6,0.1,2.3v4.3h-0.9V8.4z"/>
	<path id="XMLID_111_" d="M183.5,13.9h-2.9l-0.8,2.4h-1l2.7-7.9h1.1l2.7,7.9h-1.1L183.5,13.9z M183.2,13.1l-0.4-1.2
		c-0.3-0.9-0.5-1.7-0.8-2.7h0c-0.3,0.9-0.5,1.8-0.8,2.7l-0.4,1.2H183.2z"/>
	<path id="XMLID_114_" d="M186.3,8.4h1v7h3.4v0.9h-4.4V8.4z"/>
	<path id="XMLID_116_" d="M192.1,8.4h4.5v0.8h-3.5v2.5h3v0.9h-3v2.9h3.6v0.9h-4.7V8.4z"/>
</g>
<g id="XMLID_3_">
	<path id="XMLID_4_" d="M42.8,37.8h2.4c1.7,0,2.9,0.6,2.9,2.3c0,1.7-1.2,2.4-2.9,2.4h-1.4v3.1h-1V37.8z M45.1,41.7
		c1.4,0,2-0.5,2-1.6c0-1.1-0.7-1.5-2-1.5h-1.3v3.1H45.1z"/>
	<path id="XMLID_7_" d="M54,45.6l-1.9-3.3h-1.4v3.3h-1v-7.9h2.5c1.6,0,2.7,0.6,2.7,2.2c0,1.2-0.7,2-1.8,2.2l2,3.4H54z M50.7,41.5H52
		c1.2,0,1.9-0.5,1.9-1.5c0-1-0.7-1.4-1.9-1.4h-1.3V41.5z"/>
	<path id="XMLID_10_" d="M56.1,41.7c0-2.5,1.4-4,3.4-4c2,0,3.4,1.5,3.4,4c0,2.5-1.4,4.1-3.4,4.1C57.5,45.8,56.1,44.2,56.1,41.7z
		 M61.8,41.7c0-2-0.9-3.2-2.3-3.2c-1.4,0-2.3,1.2-2.3,3.2c0,2,0.9,3.2,2.3,3.2C60.9,44.9,61.8,43.6,61.8,41.7z"/>
	<path id="XMLID_13_" d="M65.9,38.6h-2.4v-0.8h5.8v0.8h-2.4v7h-1V38.6z"/>
	<path id="XMLID_15_" d="M70.6,37.8h4.5v0.8h-3.5v2.5h3v0.9h-3v2.9h3.6v0.9h-4.7V37.8z"/>
	<path id="XMLID_17_" d="M76.9,37.8h1v7.9h-1V37.8z"/>
	<path id="XMLID_19_" d="M80,37.8h1l2.9,4.9l0.9,1.6h0c0-0.8-0.1-1.7-0.1-2.5v-4.1h0.9v7.9h-1l-2.8-5l-0.9-1.6h0
		c0,0.8,0.1,1.6,0.1,2.5v4.1H80V37.8z"/>
	<path id="XMLID_21_" d="M87.7,37.8h4.5v0.8h-3.5v2.5h3v0.9h-3v2.9h3.6v0.9h-4.7V37.8z"/>
	<path id="XMLID_23_" d="M96.3,37.8h2c2.4,0,3.7,1.4,3.7,3.9c0,2.5-1.3,4-3.7,4h-2V37.8z M98.2,44.8c1.8,0,2.8-1.2,2.8-3.2
		c0-2-0.9-3.1-2.8-3.1h-0.9v6.2H98.2z"/>
	<path id="XMLID_26_" d="M103.7,37.8h1v7.9h-1V37.8z"/>
	<path id="XMLID_28_" d="M108.7,41.7c0-2.5,1.4-4,3.4-4c2,0,3.4,1.5,3.4,4c0,2.5-1.4,4.1-3.4,4.1C110.1,45.8,108.7,44.2,108.7,41.7z
		 M114.4,41.7c0-2-0.9-3.2-2.3-3.2c-1.4,0-2.3,1.2-2.3,3.2c0,2,0.9,3.2,2.3,3.2C113.5,44.9,114.4,43.6,114.4,41.7z"/>
	<path id="XMLID_31_" d="M121.4,45.6l-1.9-3.3h-1.4v3.3h-1v-7.9h2.5c1.6,0,2.7,0.6,2.7,2.2c0,1.2-0.7,2-1.8,2.2l2,3.4H121.4z
		 M118.1,41.5h1.3c1.2,0,1.9-0.5,1.9-1.5c0-1-0.7-1.4-1.9-1.4h-1.3V41.5z"/>
	<path id="XMLID_34_" d="M124,37.8h1v7.9h-1V37.8z"/>
	<path id="XMLID_36_" d="M130.3,37.6c1.1,0,1.8,0.5,2.3,1l-0.6,0.6c-0.4-0.4-0.9-0.7-1.7-0.7c-1.6,0-2.6,1.2-2.6,3.2
		c0,2,0.9,3.2,2.6,3.2c0.6,0,1.1-0.2,1.4-0.5v-2.1h-1.7v-0.8h2.6v3.3c-0.5,0.5-1.4,0.9-2.4,0.9c-2.1,0-3.5-1.5-3.5-4.1
		C126.7,39.2,128.2,37.6,130.3,37.6z"/>
	<path id="XMLID_38_" d="M134.5,37.8h1v7.9h-1V37.8z"/>
	<path id="XMLID_40_" d="M137.5,37.8h1l2.9,4.9l0.9,1.6h0c0-0.8-0.1-1.7-0.1-2.5v-4.1h0.9v7.9h-1l-2.8-5l-0.9-1.6h0
		c0,0.8,0.1,1.6,0.1,2.5v4.1h-0.9V37.8z"/>
	<path id="XMLID_42_" d="M145.3,37.8h4.5v0.8h-3.5v2.5h3v0.9h-3v2.9h3.6v0.9h-4.7V37.8z"/>
	<path id="XMLID_44_" d="M152.9,37.8h1.1l1.3,4.2c0.3,0.9,0.5,1.7,0.8,2.6h0c0.3-0.9,0.5-1.7,0.8-2.6l1.3-4.2h1l-2.5,7.9h-1.2
		L152.9,37.8z"/>
	<path id="XMLID_46_" d="M160.1,37.8h4.5v0.8h-3.5v2.5h3v0.9h-3v2.9h3.6v0.9h-4.7V37.8z"/>
	<path id="XMLID_48_" d="M169.5,37.6c1.1,0,1.8,0.5,2.3,1l-0.6,0.6c-0.4-0.4-0.9-0.7-1.7-0.7c-1.6,0-2.6,1.2-2.6,3.2
		c0,2,0.9,3.2,2.6,3.2c0.6,0,1.1-0.2,1.4-0.5v-2.1h-1.7v-0.8h2.6v3.3c-0.5,0.5-1.4,0.9-2.4,0.9c-2.1,0-3.5-1.5-3.5-4.1
		C165.9,39.2,167.4,37.6,169.5,37.6z"/>
	<path id="XMLID_50_" d="M173.7,37.8h4.5v0.8h-3.5v2.5h3v0.9h-3v2.9h3.6v0.9h-4.7V37.8z"/>
	<path id="XMLID_52_" d="M181.6,38.6h-2.4v-0.8h5.8v0.8h-2.4v7h-1V38.6z"/>
	<path id="XMLID_54_" d="M189.4,43.2h-2.9l-0.8,2.4h-1l2.7-7.9h1.1l2.7,7.9h-1.1L189.4,43.2z M189.2,42.4l-0.4-1.2
		c-0.3-0.9-0.5-1.7-0.8-2.7h0c-0.3,0.9-0.5,1.8-0.8,2.7l-0.4,1.2H189.2z"/>
	<path id="XMLID_57_" d="M192.3,37.8h1v7h3.4v0.9h-4.4V37.8z"/>
	<path id="XMLID_59_" d="M198.1,37.8h4.5v0.8h-3.5v2.5h3v0.9h-3v2.9h3.6v0.9h-4.7V37.8z"/>
</g>
</svg>
