<?xml version="1.0" encoding="utf-8"?>
<!-- Generator: Adobe Illustrator 16.0.0, SVG Export Plug-In . SVG Version: 6.00 Build 0)  -->
<!DOCTYPE svg PUBLIC "-//W3C//DTD SVG 1.1//EN" "http://www.w3.org/Graphics/SVG/1.1/DTD/svg11.dtd">
<svg version="1.1" xmlns="http://www.w3.org/2000/svg" xmlns:xlink="http://www.w3.org/1999/xlink" x="0px" y="0px"
	 width="1258.437px" height="473.983px" viewBox="0 0 1258.437 473.983" enable-background="new 0 0 1258.437 473.983"
	 xml:space="preserve">
<g id="Layer_20" opacity="0.5">
	
		<line fill="none" stroke="#FFFFFF" stroke-width="0.4" stroke-miterlimit="10" x1="250.176" y1="150.806" x2="1235.101" y2="150.806"/>
	
		<line fill="none" stroke="#FFFFFF" stroke-width="0.4" stroke-miterlimit="10" x1="250.176" y1="291.011" x2="1235.101" y2="291.011"/>
	
		<line fill="none" stroke="#FFFFFF" stroke-width="0.4" stroke-miterlimit="10" x1="250.176" y1="395.518" x2="1235.101" y2="395.518"/>
	
		<line fill="none" stroke="#FFFFFF" stroke-width="0.4" stroke-miterlimit="10" x1="328.698" y1="454.759" x2="328.698" y2="47.362"/>
	
		<line fill="none" stroke="#FFFFFF" stroke-width="0.4" stroke-miterlimit="10" x1="386.116" y1="465.697" x2="386.116" y2="47.362"/>
	
		<line fill="none" stroke="#FFFFFF" stroke-width="0.4" stroke-miterlimit="10" x1="449.915" y1="465.697" x2="449.915" y2="47.362"/>
	
		<line fill="none" stroke="#FFFFFF" stroke-width="0.4" stroke-miterlimit="10" x1="513.713" y1="465.697" x2="513.713" y2="47.362"/>
	<g>
		<g>
			<line fill="none" stroke="#FFFFFF" stroke-miterlimit="10" x1="176.48" y1="465.697" x2="176.48" y2="464.197"/>
			
				<line fill="none" stroke="#FFFFFF" stroke-miterlimit="10" stroke-dasharray="2.988,2.988" x1="176.48" y1="461.208" x2="176.48" y2="50.356"/>
			<line fill="none" stroke="#FFFFFF" stroke-miterlimit="10" x1="176.48" y1="48.862" x2="176.48" y2="47.362"/>
		</g>
	</g>
	
		<line fill="none" stroke="#FFFFFF" stroke-width="0.4" stroke-miterlimit="10" x1="577.511" y1="465.697" x2="577.511" y2="47.362"/>
	<line fill="none" stroke="#FFFFFF" stroke-width="0.4" stroke-miterlimit="10" x1="641.31" y1="465.697" x2="641.31" y2="47.362"/>
	
		<line fill="none" stroke="#FFFFFF" stroke-width="0.4" stroke-miterlimit="10" x1="705.107" y1="465.697" x2="705.107" y2="47.362"/>
	
		<line fill="none" stroke="#FFFFFF" stroke-width="0.4" stroke-miterlimit="10" x1="768.905" y1="465.697" x2="768.905" y2="47.362"/>
	
		<line fill="none" stroke="#FFFFFF" stroke-width="0.4" stroke-miterlimit="10" x1="832.704" y1="465.697" x2="832.704" y2="47.362"/>
	
		<line fill="none" stroke="#FFFFFF" stroke-width="0.4" stroke-miterlimit="10" x1="896.502" y1="465.697" x2="896.502" y2="47.362"/>
	
		<line fill="none" stroke="#FFFFFF" stroke-width="0.4" stroke-miterlimit="10" x1="966.681" y1="465.697" x2="966.681" y2="47.362"/>
	<line fill="none" stroke="#FFFFFF" stroke-width="0.4" stroke-miterlimit="10" x1="1024.1" y1="465.697" x2="1024.1" y2="47.362"/>
	
		<line fill="none" stroke="#FFFFFF" stroke-width="0.4" stroke-miterlimit="10" x1="1087.897" y1="465.697" x2="1087.897" y2="47.362"/>
	
		<line fill="none" stroke="#FFFFFF" stroke-width="0.4" stroke-miterlimit="10" x1="1151.695" y1="465.697" x2="1151.695" y2="47.362"/>
	
		<line fill="none" stroke="#FFFFFF" stroke-width="0.4" stroke-miterlimit="10" x1="1215.494" y1="465.697" x2="1215.494" y2="47.362"/>
</g>
<g id="crim" opacity="0.5">
	<circle fill="#FFFFFF" cx="328.698" cy="395.519" r="30.196"/>
	<circle fill="#55FF5D" cx="328.698" cy="150.807" r="73.168"/>
	<circle fill="none" stroke="#FFFFFF" stroke-miterlimit="10" cx="81.64" cy="145.612" r="73.167"/>
	<circle fill="#00FF0C" cx="328.698" cy="290.555" r="36.003"/>
</g>
<g id="america" opacity="0.5">
	<circle fill="#55FF5D" cx="386.64" cy="290.555" r="23.227"/>
	<circle fill="#55FF5D" cx="386.64" cy="150.807" r="45.294"/>
	<circle fill="#FFFFFF" cx="386.116" cy="395.52" r="20.905"/>
</g>
<g id="life" opacity="0.5">
	<circle fill="#FFFFFF" cx="449.915" cy="395.52" r="12.775"/>
	<circle fill="#55FF5D" cx="449.915" cy="290.556" r="5.807"/>
	<circle fill="#00FF0C" cx="449.915" cy="150.807" r="29.035"/>
</g>
<g id="people" opacity="0.5">
	<circle fill="#AAFFAE" cx="513.713" cy="395.519" r="8.129"/>
	<circle fill="#55FF5D" cx="513.713" cy="290.555" r="8.129"/>
	<circle fill="#55FF5D" cx="513.713" cy="150.807" r="27.874"/>
</g>
<g id="human" opacity="0.5">
	<circle fill="#AAFFAE" cx="577.511" cy="395.519" r="8.129"/>
	<circle fill="#AAFFAE" cx="577.387" cy="291.011" r="18.582"/>
	<circle fill="#55FF5D" cx="577.387" cy="150.807" r="12.776"/>
</g>
<g id="famil" opacity="0.5">
	<circle fill="#FFFFFF" cx="641.31" cy="395.519" r="18.583"/>
	<circle fill="#00FF0C" cx="641.31" cy="290.556" r="12.775"/>
	<circle fill="#00FF0C" cx="641.31" cy="150.807" r="5.806"/>
</g>
<g id="illeg" opacity="0.5">
	<circle fill="#AAFFAE" cx="705.107" cy="395.52" r="11.614"/>
	<circle fill="#AAFFAE" cx="704.985" cy="290.555" r="8.129"/>
	<circle fill="#55FF5D" cx="704.985" cy="150.807" r="16.259"/>
</g>
<g id="hope" opacity="0.5">
	<circle fill="#55FF5D" cx="768.905" cy="395.519" r="4.646"/>
	<circle fill="#00FF0C" cx="768.783" cy="290.555" r="16.26"/>
	<circle fill="#55FF5D" cx="768.783" cy="150.807" r="4.646"/>
</g>
<g id="land" opacity="0.5">
	<circle fill="#FFFFFF" cx="896.511" cy="395.519" r="4.646"/>
	<circle fill="#FF7B5E" cx="896.389" cy="290.555" r="3.484"/>
	<circle fill="#00FF0C" cx="896.389" cy="150.807" r="16.259"/>
</g>
<g id="job" opacity="0.5">
	<circle fill="#AAFFAE" cx="966.562" cy="291.011" r="5.245"/>
	<circle fill="#00FF0C" cx="966.562" cy="150.807" r="5.245"/>
	<circle fill="#FFFFFF" cx="966.562" cy="395.519" r="3.747"/>
</g>
<g id="strugg" opacity="0.5">
	<circle fill="#00FF0C" cx="1087.897" cy="150.807" r="6.744"/>
	<circle fill="#FFFFFF" cx="1087.897" cy="395.519" r="2.997"/>
	<circle fill="#55FF5D" cx="1087.897" cy="291.011" r="2.248"/>
	<path fill="none" stroke="#FFFFFF" stroke-miterlimit="10" d="M81.639,255.847c1.243,0,2.249,1.007,2.249,2.248
		c0,1.242-1.006,2.248-2.249,2.248c-1.239,0-2.246-1.006-2.246-2.248C79.393,256.854,80.399,255.847,81.639,255.847z"/>
	<circle fill="#55FF5D" cx="1151.695" cy="291.011" r="3.747"/>
	<circle fill="#00FF0C" cx="1151.695" cy="150.807" r="7.493"/>
</g>
<g id="force" opacity="0.5">
	<circle fill="#55FF5D" cx="1023.984" cy="291.011" r="3.747"/>
	<circle fill="#AAFFAE" cx="1023.984" cy="150.807" r="5.995"/>
	<circle fill="#FFFFFF" cx="1023.984" cy="395.519" r="2.997"/>
</g>
<g id="emigr" opacity="0.5">
	<circle fill="#FFFFFF" cx="832.589" cy="395.519" r="3.747"/>
	<circle fill="#55FF5D" cx="832.589" cy="291.011" r="3.747"/>
	<circle fill="#00FF0C" cx="832.589" cy="150.808" r="7.493"/>
</g>
<g id="eleven" opacity="0.5">
	<circle fill="#00FF0C" cx="1215.494" cy="150.807" r="12.776"/>
</g>
<g id="Layer_4">
	<g opacity="0.5">
		<rect x="38.744" y="293.388" fill="#55FF5D" width="11.856" height="18.305"/>
		<rect x="38.744" y="311.693" fill="#8EFF93" width="11.856" height="18.304"/>
		<rect x="38.744" y="329.997" fill="#C6FFC9" width="11.856" height="18.305"/>
		<rect x="38.744" y="403.213" fill="#FF0037" width="11.856" height="18.305"/>
		<rect x="38.744" y="384.909" fill="#FF557A" width="11.856" height="18.305"/>
		<rect x="38.744" y="366.605" fill="#FFAABC" width="11.856" height="18.304"/>
		<rect x="38.744" y="348.301" fill="#FFFFFF" width="11.856" height="18.304"/>
	</g>
</g>
<g id="Layer_5">
	<text transform="matrix(1 0 0 1 307.1294 39.8296)" fill="#FFFFFF" font-family="'Roboto-Regular'" font-size="12">immigr*</text>
	<text transform="matrix(1 0 0 1 53.9404 68.6118)" fill="#FFFFFF" font-family="'Roboto-Bold'" font-size="12.7597">63 TIMES</text>
	<text transform="matrix(1 0 0 1 57.6006 251.2729)" fill="#FFFFFF" font-family="'Roboto-Bold'" font-size="12.7597">3 TIMES</text>
	<text transform="matrix(1 0 0 1 62.6074 304.3032)" fill="#FFFFFF" font-family="'Roboto-Bold'" font-size="12.7597">POSITIVE</text>
	<text transform="matrix(1 0 0 1 64.2061 418.0601)" fill="#FFFFFF" font-family="'Roboto-Bold'" font-size="12.7597">NEGATIVE</text>
	<text transform="matrix(1 0 0 1 205.0693 154.1978)" fill="#FFFFFF" font-family="'Roboto-Regular'" font-size="12">THEME</text>
	<text transform="matrix(1 0 0 1 197.2764 294.9946)" fill="#FFFFFF" font-family="'Roboto-Regular'" font-size="12">OPINION</text>
	<text transform="matrix(1 0 0 1 215.7183 399.3511)" fill="#FFFFFF" font-family="'Roboto-Regular'" font-size="12">PLOT</text>
	<text transform="matrix(1 0 0 1 365.0576 39.8301)" fill="#FFFFFF" font-family="'Roboto-Regular'" font-size="12">americ*</text>
	<g>
		<text transform="matrix(1 0 0 1 439.0571 41.894)" fill="#FFFFFF" font-family="'Roboto-Regular'" font-size="12">life*</text>
	</g>
	<text transform="matrix(1 0 0 1 496.2075 39.8296)" fill="#FFFFFF" font-family="'Roboto-Regular'" font-size="12">peopl*</text>
	<text transform="matrix(1 0 0 1 556.1475 39.8296)" fill="#FFFFFF" font-family="'Roboto-Regular'" font-size="12">human*</text>
	<text transform="matrix(1 0 0 1 625.082 39.8291)" fill="#FFFFFF" font-family="'Roboto-Regular'" font-size="12">famil*</text>
	<text transform="matrix(1 0 0 1 691.3999 39.8296)" fill="#FFFFFF" font-family="'Roboto-Regular'" font-size="12">illeg*</text>
	<text transform="matrix(1 0 0 1 752.9121 39.8296)" fill="#FFFFFF" font-family="'Roboto-Regular'" font-size="12">hope*</text>
	<text transform="matrix(1 0 0 1 882.0439 39.8301)" fill="#FFFFFF" font-family="'Roboto-Regular'" font-size="12">land*</text>
	<text transform="matrix(1 0 0 1 814.6045 39.8301)" fill="#FFFFFF" font-family="'Roboto-Regular'" font-size="12">emigr*</text>
	<text transform="matrix(1 0 0 1 955.7168 39.8301)" fill="#FFFFFF" font-family="'Roboto-Regular'" font-size="12">job*</text>
	<text transform="matrix(1 0 0 1 1007.6133 39.8301)" fill="#FFFFFF" font-family="'Roboto-Regular'" font-size="12">force*</text>
	<text transform="matrix(1 0 0 1 1067.8086 39.8301)" fill="#FFFFFF" font-family="'Roboto-Regular'" font-size="12">strugg*</text>
	<text transform="matrix(1 0 0 1 1131.9229 39.8301)" fill="#FFFFFF" font-family="'Roboto-Regular'" font-size="12">dream*</text>
	<text transform="matrix(1 0 0 1 1207.8535 39.8291)" fill="#FFFFFF" font-family="'Roboto-Regular'" font-size="12">11*</text>
</g>
</svg>
