<?xml version="1.0" encoding="utf-8"?>
<!-- Generator: Adobe Illustrator 17.0.0, SVG Export Plug-In . SVG Version: 6.00 Build 0)  -->
<!DOCTYPE svg PUBLIC "-//W3C//DTD SVG 1.1//EN" "http://www.w3.org/Graphics/SVG/1.1/DTD/svg11.dtd">
<svg version="1.1" id="Livello_1" xmlns="http://www.w3.org/2000/svg" xmlns:xlink="http://www.w3.org/1999/xlink" x="0px" y="0px"
	 width="768px" height="321.338px" viewBox="0 0 768 321.338" enable-background="new 0 0 768 321.338" xml:space="preserve">
<g opacity="0.75">
	<g>
		<g>
			<defs>
				<rect id="SVGID_1_" x="373.222" y="24.83" width="18.75" height="19.338"/>
			</defs>
			<clipPath id="SVGID_2_">
				<use xlink:href="#SVGID_1_"  overflow="visible"/>
			</clipPath>
			
				<line clip-path="url(#SVGID_2_)" fill="none" stroke="#BAA494" stroke-width="0.75" x1="382.597" y1="31.83" x2="382.597" y2="43.169"/>
		</g>
	</g>
</g>
<path fill="none" stroke="#262625" stroke-width="0.6" d="M345.002,9.212c0,0-1.2,0-1.2,1.2v5.946c0,0,0,1.2,1.2,1.2h5.946
	c0,0,1.2,0,1.2-1.2v-5.946c0,0,0-1.2-1.2-1.2H345.002z"/>
<line fill="none" stroke="#262625" stroke-width="0.6" x1="343.66" y1="11.583" x2="352.318" y2="11.583"/>
<path fill="#EBE1D6" d="M347.975,15.758c1.311,0,2.373-1.062,2.373-2.373c0-1.31-1.062-2.373-2.373-2.373
	c-1.311,0-2.373,1.063-2.373,2.373C345.602,14.696,346.664,15.758,347.975,15.758"/>
<circle fill="none" stroke="#262625" stroke-width="0.6" cx="347.975" cy="13.385" r="2.373"/>
<polygon fill="#262625" points="350.405,9.992 350.405,9.992 350.405,10.814 351.227,10.814 351.227,9.992 "/>
<g>
	<path fill="#262625" d="M358.311,17.859V8.602h0.988v9.257C359.299,17.859,358.311,17.859,358.311,17.859z"/>
	<path fill="#262625" d="M366.553,17.859V13.92c0-1.131-0.611-1.703-1.573-1.703s-1.586,0.585-1.586,1.703v3.939h-0.936v-6.396
		h0.936v0.702c0.455-0.52,1.079-0.78,1.794-0.78c0.689,0,1.248,0.208,1.638,0.599c0.455,0.441,0.663,1.04,0.663,1.781v4.095
		L366.553,17.859L366.553,17.859z"/>
	<path fill="#262625" d="M372.416,17.937c-1.079,0-1.924-0.247-2.626-0.923l0.624-0.624c0.507,0.532,1.196,0.741,1.989,0.741
		c1.053,0,1.703-0.378,1.703-1.132c0-0.559-0.325-0.871-1.066-0.936l-1.053-0.091c-1.248-0.104-1.911-0.663-1.911-1.717
		c0-1.17,0.988-1.872,2.353-1.872c0.91,0,1.729,0.222,2.301,0.689l-0.611,0.611c-0.455-0.352-1.04-0.508-1.703-0.508
		c-0.936,0-1.43,0.403-1.43,1.054c0,0.546,0.312,0.871,1.118,0.936l1.027,0.091c1.118,0.104,1.885,0.533,1.885,1.729
		C375.016,17.222,373.963,17.937,372.416,17.937z"/>
	<path fill="#262625" d="M379.163,17.859c-1.092,0-1.638-0.767-1.638-1.716v-3.927h-0.806v-0.715h0.806V9.499h0.936v2.002h1.365
		v0.715h-1.365v3.9c0,0.585,0.273,0.937,0.871,0.937h0.494v0.806H379.163z"/>
	<path fill="#262625" d="M385.846,17.859v-0.611c-0.521,0.521-0.989,0.689-1.847,0.689c-0.884,0-1.404-0.169-1.807-0.585
		c-0.312-0.312-0.481-0.793-0.481-1.3c0-1.118,0.78-1.847,2.21-1.847h1.925v-0.611c0-0.936-0.469-1.403-1.639-1.403
		c-0.819,0-1.235,0.194-1.612,0.728l-0.637-0.585c0.572-0.741,1.222-0.949,2.262-0.949c1.717,0,2.562,0.741,2.562,2.133v4.342
		h-0.936V17.859z M385.846,14.908h-1.795c-0.962,0-1.43,0.39-1.43,1.131s0.455,1.093,1.469,1.093c0.546,0,1.027-0.039,1.431-0.43
		c0.221-0.208,0.325-0.572,0.325-1.104V14.908z"/>
	<path fill="#262625" d="M391.76,20.797c-0.962,0-1.495-0.247-2.171-0.858l0.611-0.598c0.468,0.416,0.793,0.637,1.534,0.637
		c1.234,0,1.755-0.871,1.755-1.963v-1.001c-0.521,0.663-1.105,0.832-1.794,0.832c-0.65,0-1.209-0.234-1.548-0.572
		c-0.637-0.637-0.779-1.625-0.779-2.665s0.143-2.028,0.779-2.665c0.339-0.338,0.91-0.56,1.561-0.56c0.702,0,1.274,0.156,1.794,0.832
		v-0.754h0.923v6.592C394.425,19.64,393.438,20.797,391.76,20.797z M391.903,12.216c-1.392,0-1.6,1.196-1.6,2.393
		s0.208,2.392,1.6,2.392c1.391,0,1.586-1.195,1.586-2.392S393.294,12.216,391.903,12.216z"/>
	<path fill="#262625" d="M400.977,12.685c-0.351-0.352-0.61-0.469-1.104-0.469c-0.937,0-1.534,0.741-1.534,1.717v3.926h-0.937
		v-6.396h0.937v0.78c0.351-0.533,1.053-0.858,1.794-0.858c0.611,0,1.079,0.144,1.534,0.599L400.977,12.685z"/>
	<path fill="#262625" d="M407.021,17.859v-0.611c-0.52,0.521-0.988,0.689-1.846,0.689c-0.885,0-1.404-0.169-1.808-0.585
		c-0.312-0.312-0.48-0.793-0.48-1.3c0-1.118,0.779-1.847,2.21-1.847h1.924v-0.611c0-0.936-0.468-1.403-1.638-1.403
		c-0.819,0-1.235,0.194-1.612,0.728l-0.637-0.585c0.571-0.741,1.222-0.949,2.262-0.949c1.716,0,2.562,0.741,2.562,2.133v4.342
		h-0.937V17.859z M407.021,14.908h-1.794c-0.962,0-1.43,0.39-1.43,1.131s0.454,1.093,1.469,1.093c0.546,0,1.027-0.039,1.43-0.43
		c0.222-0.208,0.325-0.572,0.325-1.104V14.908z"/>
	<path fill="#262625" d="M419.099,17.859V13.92c0-1.131-0.611-1.703-1.573-1.703c-0.936,0-1.599,0.585-1.599,1.6v4.043h-0.937
		v-3.939c0-1.131-0.611-1.703-1.573-1.703s-1.599,0.585-1.599,1.703v3.939h-0.937v-6.396h0.937v0.702
		c0.455-0.52,1.092-0.78,1.807-0.78c0.885,0,1.573,0.364,1.963,1.066c0.494-0.702,1.21-1.066,2.106-1.066
		c0.689,0,1.261,0.222,1.651,0.599c0.455,0.441,0.688,1.04,0.688,1.781v4.095h-0.934V17.859z"/>
</g>
<path fill="none" stroke="#AE1821" stroke-width="0.75" stroke-miterlimit="10" d="M243.806,0c0,0-2.835,0-2.835,2.835V22.95
	c0,0,0,2.835,2.835,2.835h277.581c0,0,2.834,0,2.834-2.835V2.835c0,0,0-2.835-2.834-2.835H243.806z"/>
<g>
	<path fill="#262625" d="M235.955,66.375l-0.299,1.833h1.157v0.832h-1.287l-0.468,2.951h-0.962l0.468-2.951h-2.08l-0.455,2.951
		h-0.962l0.468-2.951h-1.157v-0.832h1.3l0.299-1.833h-1.196v-0.858h1.313l0.442-2.795h0.975l-0.455,2.795h2.067l0.442-2.795h0.949
		l-0.442,2.795h1.131v0.858H235.955z M232.926,66.375l-0.299,1.833h2.067l0.299-1.833H232.926z"/>
	<path fill="#262625" d="M243.313,71.992V71.38c-0.52,0.521-0.988,0.689-1.846,0.689c-0.884,0-1.404-0.169-1.807-0.585
		c-0.312-0.312-0.481-0.793-0.481-1.3c0-1.118,0.78-1.847,2.21-1.847h1.924v-0.611c0-0.936-0.468-1.403-1.638-1.403
		c-0.819,0-1.235,0.194-1.612,0.728l-0.637-0.585c0.572-0.741,1.222-0.949,2.262-0.949c1.716,0,2.562,0.741,2.562,2.133v4.342
		C244.25,71.992,243.313,71.992,243.313,71.992z M243.313,69.041h-1.794c-0.962,0-1.43,0.39-1.43,1.131s0.455,1.093,1.469,1.093
		c0.546,0,1.027-0.039,1.43-0.43c0.221-0.208,0.325-0.572,0.325-1.104L243.313,69.041L243.313,69.041z"/>
	<path fill="#262625" d="M248.772,71.992c-1.118,0-1.625-0.728-1.625-1.703v-7.554h0.936v7.515c0,0.624,0.208,0.937,0.858,0.937
		h0.507v0.806L248.772,71.992L248.772,71.992z"/>
	<path fill="#262625" d="M259.9,71.992v-3.939c0-1.131-0.611-1.703-1.573-1.703c-0.936,0-1.599,0.585-1.599,1.6v4.043h-0.936v-3.939
		c0-1.131-0.611-1.703-1.573-1.703s-1.599,0.585-1.599,1.703v3.939h-0.936v-6.396h0.936v0.702c0.455-0.52,1.092-0.78,1.807-0.78
		c0.884,0,1.573,0.364,1.963,1.066c0.494-0.702,1.209-1.066,2.106-1.066c0.689,0,1.261,0.222,1.651,0.599
		c0.455,0.441,0.689,1.04,0.689,1.781v4.095H259.9V71.992z"/>
	<path fill="#262625" d="M267.856,71.341c-0.442,0.442-1.053,0.729-1.833,0.729s-1.391-0.286-1.833-0.729
		c-0.65-0.663-0.78-1.56-0.78-2.548s0.13-1.885,0.78-2.548c0.442-0.442,1.053-0.729,1.833-0.729s1.391,0.286,1.833,0.729
		c0.65,0.663,0.78,1.56,0.78,2.548S268.506,70.678,267.856,71.341z M267.193,66.818c-0.299-0.3-0.715-0.469-1.17-0.469
		s-0.858,0.169-1.157,0.469c-0.468,0.468-0.52,1.261-0.52,1.976s0.052,1.508,0.52,1.977c0.299,0.299,0.702,0.468,1.157,0.468
		s0.871-0.169,1.17-0.468c0.468-0.469,0.507-1.262,0.507-1.977S267.661,67.286,267.193,66.818z"/>
	<path fill="#262625" d="M275.383,71.992v-3.939c0-1.131-0.611-1.703-1.573-1.703s-1.586,0.585-1.586,1.703v3.939h-0.936v-6.396
		h0.936v0.702c0.455-0.52,1.079-0.78,1.794-0.78c0.689,0,1.248,0.208,1.638,0.599c0.455,0.441,0.663,1.04,0.663,1.781v4.095
		L275.383,71.992L275.383,71.992z"/>
	<path fill="#262625" d="M283.066,71.992v-0.767c-0.52,0.676-1.118,0.845-1.82,0.845c-0.65,0-1.222-0.221-1.56-0.56
		c-0.65-0.649-0.78-1.716-0.78-2.717s0.13-2.067,0.78-2.717c0.338-0.338,0.91-0.56,1.56-0.56c0.702,0,1.287,0.156,1.807,0.819
		v-3.602h0.936v9.257h-0.923V71.992z M281.454,66.349c-1.391,0-1.612,1.196-1.612,2.444s0.221,2.444,1.612,2.444
		s1.599-1.196,1.599-2.444S282.845,66.349,281.454,66.349z"/>
	<path fill="#262625" d="M295.182,71.992v-3.939c0-1.131-0.611-1.703-1.573-1.703c-0.936,0-1.599,0.585-1.599,1.6v4.043h-0.936
		v-3.939c0-1.131-0.611-1.703-1.573-1.703s-1.599,0.585-1.599,1.703v3.939h-0.936v-6.396h0.936v0.702
		c0.455-0.52,1.092-0.78,1.807-0.78c0.884,0,1.573,0.364,1.963,1.066c0.494-0.702,1.209-1.066,2.106-1.066
		c0.689,0,1.261,0.222,1.651,0.599c0.455,0.441,0.689,1.04,0.689,1.781v4.095h-0.936V71.992z"/>
	<path fill="#262625" d="M298.991,63.776v-1.054h1.053v1.054H298.991z M299.043,71.992v-6.396h0.936v6.396
		C299.979,71.992,299.043,71.992,299.043,71.992z"/>
	<path fill="#262625" d="M304.581,71.992c-1.118,0-1.625-0.728-1.625-1.703v-7.554h0.936v7.515c0,0.624,0.208,0.937,0.858,0.937
		h0.507v0.806L304.581,71.992L304.581,71.992z"/>
	<path fill="#262625" d="M311.705,71.992l-2.028-3.276l-1.248,1.431v1.846h-0.936v-9.257h0.936v6.188l2.886-3.328h1.17l-2.171,2.444
		l2.548,3.952H311.705z"/>
</g>
<path fill="none" stroke="#AE1821" stroke-width="0.75" stroke-miterlimit="10" d="M169.806,54.133c0,0-2.835,0-2.835,2.835v20.115
	c0,0,0,2.835,2.835,2.835h203.581c0,0,2.834,0,2.834-2.835V56.968c0,0,0-2.835-2.834-2.835H169.806z"/>
<g>
	<path fill="#262625" d="M456.805,66.375l-0.299,1.833h1.156v0.832h-1.286l-0.469,2.951h-0.962l0.468-2.951h-2.08l-0.455,2.951
		h-0.962l0.469-2.951h-1.157v-0.832h1.3l0.299-1.833h-1.196v-0.858h1.313l0.442-2.795h0.975l-0.455,2.795h2.067l0.441-2.795h0.949
		l-0.441,2.795h1.131v0.858H456.805z M453.775,66.375l-0.299,1.833h2.067l0.299-1.833H453.775z"/>
	<path fill="#262625" d="M463.019,72.07c-1.612,0-2.834-1.092-2.834-3.276s1.222-3.276,2.834-3.276c0.884,0,1.443,0.234,2.106,0.949
		l-0.638,0.599c-0.48-0.533-0.857-0.716-1.469-0.716c-0.624,0-1.144,0.247-1.482,0.729c-0.299,0.416-0.416,0.91-0.416,1.716
		c0,0.807,0.117,1.3,0.416,1.716c0.339,0.481,0.858,0.729,1.482,0.729c0.611,0,0.988-0.195,1.469-0.729l0.638,0.611
		C464.462,71.835,463.902,72.07,463.019,72.07z"/>
	<path fill="#262625" d="M471.469,71.341c-0.442,0.442-1.054,0.729-1.833,0.729c-0.78,0-1.392-0.286-1.834-0.729
		c-0.649-0.663-0.779-1.56-0.779-2.548s0.13-1.885,0.779-2.548c0.442-0.442,1.054-0.729,1.834-0.729
		c0.779,0,1.391,0.286,1.833,0.729c0.649,0.663,0.779,1.56,0.779,2.548S472.118,70.678,471.469,71.341z M470.806,66.818
		c-0.3-0.3-0.716-0.469-1.17-0.469c-0.455,0-0.858,0.169-1.157,0.469c-0.469,0.468-0.521,1.261-0.521,1.976s0.052,1.508,0.521,1.977
		c0.299,0.299,0.702,0.468,1.157,0.468c0.454,0,0.87-0.169,1.17-0.468c0.468-0.469,0.507-1.262,0.507-1.977
		S471.273,67.286,470.806,66.818z"/>
	<path fill="#262625" d="M477.37,72.07c-1.612,0-2.834-1.092-2.834-3.276s1.222-3.276,2.834-3.276c0.884,0,1.443,0.234,2.106,0.949
		l-0.638,0.599c-0.48-0.533-0.857-0.716-1.469-0.716c-0.624,0-1.144,0.247-1.482,0.729c-0.299,0.416-0.416,0.91-0.416,1.716
		c0,0.807,0.117,1.3,0.416,1.716c0.339,0.481,0.858,0.729,1.482,0.729c0.611,0,0.988-0.195,1.469-0.729l0.638,0.611
		C478.813,71.835,478.254,72.07,477.37,72.07z"/>
	<path fill="#262625" d="M485.82,71.341c-0.442,0.442-1.053,0.729-1.833,0.729s-1.391-0.286-1.833-0.729
		c-0.65-0.663-0.78-1.56-0.78-2.548s0.13-1.885,0.78-2.548c0.442-0.442,1.053-0.729,1.833-0.729s1.391,0.286,1.833,0.729
		c0.65,0.663,0.78,1.56,0.78,2.548S486.471,70.678,485.82,71.341z M485.157,66.818c-0.299-0.3-0.715-0.469-1.17-0.469
		s-0.858,0.169-1.157,0.469c-0.468,0.468-0.52,1.261-0.52,1.976s0.052,1.508,0.52,1.977c0.299,0.299,0.702,0.468,1.157,0.468
		s0.871-0.169,1.17-0.468c0.468-0.469,0.507-1.262,0.507-1.977S485.625,67.286,485.157,66.818z"/>
	<path fill="#262625" d="M493.334,71.992v-3.939c0-1.131-0.61-1.703-1.573-1.703c-0.962,0-1.586,0.585-1.586,1.703v3.939h-0.936
		v-6.396h0.936v0.702c0.455-0.52,1.079-0.78,1.794-0.78c0.689,0,1.248,0.208,1.639,0.599c0.455,0.441,0.663,1.04,0.663,1.781v4.095
		L493.334,71.992L493.334,71.992z"/>
	<path fill="#262625" d="M501.238,71.992v-0.715c-0.455,0.52-1.092,0.793-1.807,0.793c-0.689,0-1.262-0.208-1.651-0.599
		c-0.455-0.441-0.65-1.053-0.65-1.794v-4.082h0.937v3.939c0,1.131,0.598,1.703,1.56,1.703s1.6-0.585,1.6-1.703v-3.939h0.936v6.396
		L501.238,71.992L501.238,71.992z"/>
	<path fill="#262625" d="M506.932,71.992c-1.092,0-1.638-0.767-1.638-1.716v-3.927h-0.806v-0.715h0.806v-2.002h0.937v2.002h1.364
		v0.715h-1.364v3.9c0,0.585,0.272,0.937,0.871,0.937h0.493v0.806C507.595,71.992,506.932,71.992,506.932,71.992z"/>
	<path fill="#262625" d="M518.32,71.992v-3.939c0-1.131-0.611-1.703-1.573-1.703c-0.936,0-1.599,0.585-1.599,1.6v4.043h-0.937
		v-3.939c0-1.131-0.611-1.703-1.573-1.703s-1.599,0.585-1.599,1.703v3.939h-0.937v-6.396h0.937v0.702
		c0.455-0.52,1.092-0.78,1.807-0.78c0.885,0,1.573,0.364,1.963,1.066c0.494-0.702,1.21-1.066,2.106-1.066
		c0.689,0,1.261,0.222,1.651,0.599c0.455,0.441,0.688,1.04,0.688,1.781v4.095h-0.934V71.992z"/>
	<path fill="#262625" d="M522.116,63.776v-1.054h1.053v1.054H522.116z M522.168,71.992v-6.396h0.936v6.396
		C523.104,71.992,522.168,71.992,522.168,71.992z"/>
	<path fill="#262625" d="M527.706,71.992c-1.118,0-1.625-0.728-1.625-1.703v-7.554h0.936v7.515c0,0.624,0.208,0.937,0.858,0.937
		h0.507v0.806L527.706,71.992L527.706,71.992z"/>
	<path fill="#262625" d="M534.816,71.992l-2.028-3.276l-1.248,1.431v1.846h-0.936v-9.257h0.936v6.188l2.887-3.328h1.17l-2.171,2.444
		l2.548,3.952H534.816z"/>
</g>
<path fill="none" stroke="#AE1821" stroke-width="0.75" stroke-miterlimit="10" d="M391.806,54.133c0,0-2.835,0-2.835,2.835v20.115
	c0,0,0,2.835,2.835,2.835h203.581c0,0,2.834,0,2.834-2.835V56.968c0,0,0-2.835-2.834-2.835H391.806z"/>
<g opacity="0.75">
	<g>
		<g>
			<defs>
				<rect id="SVGID_3_" x="262.597" y="35.418" width="240" height="8.75"/>
			</defs>
			<clipPath id="SVGID_4_">
				<use xlink:href="#SVGID_3_"  overflow="visible"/>
			</clipPath>
			
				<line clip-path="url(#SVGID_4_)" fill="none" stroke="#BAA494" stroke-width="0.75" x1="271.597" y1="42.793" x2="493.597" y2="42.793"/>
		</g>
	</g>
</g>
<g>
	<path fill="#AE1821" d="M534.454,117.059v-7.833h0.836v7.833H534.454z"/>
	<path fill="#AE1821" d="M541.428,117.059v-3.333c0-0.958-0.517-1.441-1.331-1.441c-0.813,0-1.342,0.495-1.342,1.441v3.333h-0.792
		v-5.413h0.792v0.595c0.385-0.44,0.913-0.66,1.518-0.66c0.584,0,1.057,0.176,1.387,0.506c0.385,0.374,0.561,0.88,0.561,1.507v3.466
		L541.428,117.059L541.428,117.059z"/>
	<path fill="#AE1821" d="M546.399,117.125c-0.913,0-1.628-0.209-2.223-0.781l0.528-0.528c0.43,0.451,1.013,0.627,1.684,0.627
		c0.891,0,1.441-0.319,1.441-0.957c0-0.473-0.275-0.737-0.902-0.792l-0.892-0.077c-1.056-0.088-1.617-0.562-1.617-1.452
		c0-0.99,0.836-1.584,1.991-1.584c0.771,0,1.464,0.187,1.947,0.583l-0.517,0.517c-0.385-0.297-0.88-0.429-1.441-0.429
		c-0.792,0-1.21,0.341-1.21,0.891c0,0.463,0.264,0.737,0.946,0.793l0.869,0.076c0.946,0.089,1.595,0.451,1.595,1.464
		C548.6,116.52,547.709,117.125,546.399,117.125z"/>
	<path fill="#AE1821" d="M552.109,117.059c-0.925,0-1.387-0.649-1.387-1.452v-3.322h-0.682v-0.605h0.682v-1.694h0.792v1.694h1.155
		v0.605h-1.155v3.3c0,0.495,0.231,0.793,0.737,0.793h0.418v0.682L552.109,117.059L552.109,117.059z"/>
	<path fill="#AE1821" d="M557.773,117.059v-0.517c-0.44,0.439-0.836,0.583-1.562,0.583c-0.748,0-1.188-0.144-1.529-0.495
		c-0.264-0.265-0.406-0.672-0.406-1.101c0-0.946,0.659-1.562,1.87-1.562h1.628v-0.517c0-0.792-0.396-1.188-1.386-1.188
		c-0.693,0-1.046,0.165-1.364,0.616l-0.539-0.495c0.483-0.627,1.034-0.803,1.914-0.803c1.452,0,2.167,0.627,2.167,1.804v3.675
		H557.773z M557.773,114.562h-1.519c-0.813,0-1.21,0.33-1.21,0.957s0.385,0.924,1.243,0.924c0.462,0,0.869-0.033,1.21-0.363
		c0.188-0.176,0.275-0.483,0.275-0.935L557.773,114.562L557.773,114.562z"/>
	<path fill="#AE1821" d="M562.778,119.545c-0.814,0-1.266-0.209-1.837-0.727l0.517-0.506c0.396,0.353,0.671,0.539,1.298,0.539
		c1.046,0,1.485-0.736,1.485-1.661v-0.847c-0.439,0.561-0.935,0.704-1.518,0.704c-0.551,0-1.023-0.198-1.31-0.484
		c-0.539-0.539-0.66-1.375-0.66-2.255c0-0.881,0.121-1.717,0.66-2.256c0.286-0.286,0.771-0.473,1.32-0.473
		c0.594,0,1.078,0.132,1.518,0.704v-0.639h0.781v5.578C565.033,118.566,564.197,119.545,562.778,119.545z M562.899,112.285
		c-1.178,0-1.354,1.012-1.354,2.024s0.176,2.023,1.354,2.023c1.177,0,1.342-1.012,1.342-2.023
		C564.241,113.296,564.076,112.285,562.899,112.285z"/>
	<path fill="#AE1821" d="M570.577,112.68c-0.297-0.297-0.518-0.396-0.936-0.396c-0.792,0-1.298,0.627-1.298,1.452v3.322h-0.792
		v-5.413h0.792v0.66c0.297-0.451,0.892-0.726,1.519-0.726c0.517,0,0.913,0.121,1.298,0.506L570.577,112.68z"/>
	<path fill="#AE1821" d="M575.692,117.059v-0.517c-0.44,0.439-0.836,0.583-1.562,0.583c-0.748,0-1.188-0.144-1.529-0.495
		c-0.264-0.265-0.406-0.672-0.406-1.101c0-0.946,0.659-1.562,1.87-1.562h1.628v-0.517c0-0.792-0.396-1.188-1.386-1.188
		c-0.693,0-1.046,0.165-1.364,0.616l-0.539-0.495c0.483-0.627,1.034-0.803,1.914-0.803c1.452,0,2.167,0.627,2.167,1.804v3.675
		H575.692z M575.692,114.562h-1.519c-0.813,0-1.21,0.33-1.21,0.957s0.385,0.924,1.243,0.924c0.462,0,0.869-0.033,1.21-0.363
		c0.188-0.176,0.275-0.483,0.275-0.935L575.692,114.562L575.692,114.562z"/>
	<path fill="#AE1821" d="M585.912,117.059v-3.333c0-0.958-0.518-1.441-1.331-1.441c-0.792,0-1.354,0.495-1.354,1.353v3.422h-0.792
		v-3.333c0-0.958-0.518-1.441-1.331-1.441c-0.814,0-1.354,0.495-1.354,1.441v3.333h-0.792v-5.413h0.792v0.595
		c0.385-0.44,0.924-0.66,1.529-0.66c0.748,0,1.331,0.308,1.661,0.902c0.418-0.595,1.023-0.902,1.782-0.902
		c0.583,0,1.067,0.187,1.397,0.506c0.385,0.374,0.583,0.88,0.583,1.507v3.466h-0.79V117.059z"/>
	<path fill="#AE1821" d="M597.153,117.059v-3.575h-3.718v3.575h-0.837v-7.833h0.837v3.51h3.718v-3.51h0.837v7.833H597.153z"/>
	<path fill="#AE1821" d="M603.731,117.059v-0.517c-0.44,0.439-0.836,0.583-1.562,0.583c-0.748,0-1.188-0.144-1.529-0.495
		c-0.264-0.265-0.406-0.672-0.406-1.101c0-0.946,0.659-1.562,1.87-1.562h1.628v-0.517c0-0.792-0.396-1.188-1.386-1.188
		c-0.693,0-1.046,0.165-1.364,0.616l-0.539-0.495c0.483-0.627,1.034-0.803,1.914-0.803c1.452,0,2.167,0.627,2.167,1.804v3.675
		H603.731z M603.731,114.562h-1.519c-0.813,0-1.21,0.33-1.21,0.957s0.385,0.924,1.243,0.924c0.462,0,0.869-0.033,1.21-0.363
		c0.188-0.176,0.275-0.483,0.275-0.935L603.731,114.562L603.731,114.562z"/>
	<path fill="#AE1821" d="M608.702,117.125c-0.913,0-1.628-0.209-2.223-0.781l0.528-0.528c0.43,0.451,1.013,0.627,1.684,0.627
		c0.891,0,1.441-0.319,1.441-0.957c0-0.473-0.275-0.737-0.902-0.792l-0.892-0.077c-1.056-0.088-1.617-0.562-1.617-1.452
		c0-0.99,0.836-1.584,1.991-1.584c0.771,0,1.464,0.187,1.947,0.583l-0.517,0.517c-0.385-0.297-0.88-0.429-1.441-0.429
		c-0.792,0-1.21,0.341-1.21,0.891c0,0.463,0.264,0.737,0.946,0.793l0.869,0.076c0.946,0.089,1.595,0.451,1.595,1.464
		C610.902,116.52,610.012,117.125,608.702,117.125z"/>
	<path fill="#AE1821" d="M616.469,117.059v-3.345c0-0.946-0.507-1.43-1.32-1.43c-0.814,0-1.354,0.495-1.354,1.43v3.345h-0.792
		v-7.833h0.792v3.015c0.396-0.451,0.913-0.66,1.519-0.66c1.221,0,1.947,0.781,1.947,2.002v3.477L616.469,117.059L616.469,117.059z"
		/>
	<path fill="#AE1821" d="M621.254,117.059c-0.925,0-1.387-0.649-1.387-1.452v-3.322h-0.682v-0.605h0.682v-1.694h0.792v1.694h1.155
		v0.605h-1.155v3.3c0,0.495,0.231,0.793,0.737,0.793h0.418v0.682L621.254,117.059L621.254,117.059z"/>
	<path fill="#AE1821" d="M626.907,117.059v-0.517c-0.44,0.439-0.836,0.583-1.562,0.583c-0.748,0-1.188-0.144-1.529-0.495
		c-0.264-0.265-0.406-0.672-0.406-1.101c0-0.946,0.659-1.562,1.87-1.562h1.628v-0.517c0-0.792-0.396-1.188-1.386-1.188
		c-0.693,0-1.046,0.165-1.364,0.616l-0.539-0.495c0.483-0.627,1.034-0.803,1.914-0.803c1.452,0,2.167,0.627,2.167,1.804v3.675
		H626.907z M626.907,114.562h-1.519c-0.813,0-1.21,0.33-1.21,0.957s0.385,0.924,1.243,0.924c0.462,0,0.869-0.033,1.21-0.363
		c0.188-0.176,0.275-0.483,0.275-0.935L626.907,114.562L626.907,114.562z"/>
	<path fill="#AE1821" d="M631.912,119.545c-0.814,0-1.266-0.209-1.837-0.727l0.517-0.506c0.396,0.353,0.671,0.539,1.298,0.539
		c1.046,0,1.485-0.736,1.485-1.661v-0.847c-0.439,0.561-0.935,0.704-1.518,0.704c-0.551,0-1.023-0.198-1.31-0.484
		c-0.539-0.539-0.66-1.375-0.66-2.255c0-0.881,0.121-1.717,0.66-2.256c0.286-0.286,0.771-0.473,1.32-0.473
		c0.594,0,1.078,0.132,1.518,0.704v-0.639h0.781v5.578C634.167,118.566,633.331,119.545,631.912,119.545z M632.033,112.285
		c-1.178,0-1.354,1.012-1.354,2.024s0.176,2.023,1.354,2.023c1.177,0,1.342-1.012,1.342-2.023
		C633.375,113.296,633.21,112.285,632.033,112.285z"/>
	<path fill="#AE1821" d="M640.117,117.059v-7.833h4.863v0.748h-4.026v2.762h3.432v0.748h-3.432v2.827h4.026v0.748
		C644.98,117.059,640.117,117.059,640.117,117.059z"/>
	<path fill="#AE1821" d="M650.073,117.059l-1.298-2.102l-1.32,2.102h-0.957l1.837-2.762l-1.76-2.651h0.957l1.243,2.003l1.221-2.003
		h0.957l-1.76,2.651l1.837,2.762H650.073z"/>
	<path fill="#AE1821" d="M656.563,116.652c-0.286,0.286-0.771,0.474-1.32,0.474c-0.594,0-1.089-0.144-1.529-0.704v3.058h-0.792
		v-7.833h0.792v0.639c0.44-0.572,0.936-0.704,1.529-0.704c0.55,0,1.034,0.187,1.32,0.473c0.55,0.55,0.66,1.452,0.66,2.3
		C657.224,115.2,657.113,116.102,656.563,116.652z M655.078,112.285c-1.177,0-1.364,1.012-1.364,2.068s0.188,2.068,1.364,2.068
		s1.354-1.013,1.354-2.068C656.432,113.296,656.255,112.285,655.078,112.285z"/>
	<path fill="#AE1821" d="M660.82,117.059c-0.946,0-1.376-0.616-1.376-1.441v-6.392h0.793v6.358c0,0.528,0.176,0.793,0.726,0.793
		h0.429v0.682H660.82z"/>
	<path fill="#AE1821" d="M666.54,116.509c-0.374,0.374-0.892,0.616-1.552,0.616s-1.177-0.242-1.551-0.616
		c-0.55-0.562-0.66-1.32-0.66-2.156c0-0.837,0.11-1.596,0.66-2.156c0.374-0.374,0.891-0.616,1.551-0.616s1.178,0.242,1.552,0.616
		c0.55,0.561,0.66,1.319,0.66,2.156C667.2,115.189,667.09,115.948,666.54,116.509z M665.979,112.68
		c-0.253-0.253-0.604-0.396-0.99-0.396c-0.385,0-0.726,0.143-0.979,0.396c-0.396,0.396-0.44,1.067-0.44,1.673
		c0,0.604,0.044,1.275,0.44,1.672c0.253,0.253,0.594,0.396,0.979,0.396c0.386,0,0.737-0.144,0.99-0.396
		c0.396-0.396,0.43-1.067,0.43-1.672C666.408,113.748,666.375,113.077,665.979,112.68z"/>
	<path fill="#AE1821" d="M672.458,112.68c-0.297-0.297-0.518-0.396-0.936-0.396c-0.792,0-1.298,0.627-1.298,1.452v3.322h-0.792
		v-5.413h0.792v0.66c0.297-0.451,0.892-0.726,1.519-0.726c0.517,0,0.913,0.121,1.298,0.506L672.458,112.68z"/>
	<path fill="#AE1821" d="M674.734,114.562c0,1.188,0.561,1.87,1.595,1.87c0.628,0,0.99-0.188,1.42-0.616l0.539,0.473
		c-0.551,0.551-1.057,0.837-1.98,0.837c-1.431,0-2.365-0.858-2.365-2.772c0-1.75,0.847-2.772,2.222-2.772
		c1.397,0,2.223,1.012,2.223,2.618v0.363L674.734,114.562L674.734,114.562z M677.43,113.066c-0.209-0.495-0.693-0.814-1.266-0.814
		c-0.571,0-1.056,0.319-1.265,0.814c-0.121,0.297-0.144,0.462-0.165,0.901h2.86C677.572,113.528,677.551,113.363,677.43,113.066z"/>
	<path fill="#AE1821" d="M683.645,112.68c-0.297-0.297-0.518-0.396-0.936-0.396c-0.792,0-1.298,0.627-1.298,1.452v3.322h-0.792
		v-5.413h0.792v0.66c0.297-0.451,0.892-0.726,1.519-0.726c0.517,0,0.913,0.121,1.298,0.506L683.645,112.68z"/>
</g>
<g opacity="0.75">
	<g>
		<g>
			<defs>
				<rect id="SVGID_5_" x="522.415" y="101.406" width="12.235" height="23.669"/>
			</defs>
			<clipPath id="SVGID_6_">
				<use xlink:href="#SVGID_5_"  overflow="visible"/>
			</clipPath>
			<polygon clip-path="url(#SVGID_6_)" fill="#AE1821" points="527.65,113.24 523.415,110.405 523.415,116.075 			"/>
		</g>
	</g>
</g>
<g opacity="0.75">
	<g>
		<g>
			<defs>
				<rect id="SVGID_7_" x="261.247" y="83.883" width="18.75" height="19.338"/>
			</defs>
			<clipPath id="SVGID_8_">
				<use xlink:href="#SVGID_7_"  overflow="visible"/>
			</clipPath>
			
				<line clip-path="url(#SVGID_8_)" fill="none" stroke="#BAA494" stroke-width="0.75" x1="270.622" y1="90.883" x2="270.622" y2="102.222"/>
		</g>
	</g>
</g>
<g opacity="0.75">
	<g>
		<g>
			<defs>
				<rect id="SVGID_9_" x="261.247" y="178.235" width="18.75" height="19.339"/>
			</defs>
			<clipPath id="SVGID_10_">
				<use xlink:href="#SVGID_9_"  overflow="visible"/>
			</clipPath>
			
				<line clip-path="url(#SVGID_10_)" fill="none" stroke="#BAA494" stroke-width="0.75" x1="270.622" y1="185.235" x2="270.622" y2="196.574"/>
		</g>
	</g>
</g>
<g opacity="0.75">
	<g>
		<g>
			<defs>
				<rect id="SVGID_11_" x="261.247" y="287.286" width="18.75" height="19.339"/>
			</defs>
			<clipPath id="SVGID_12_">
				<use xlink:href="#SVGID_11_"  overflow="visible"/>
			</clipPath>
			
				<line clip-path="url(#SVGID_12_)" fill="none" stroke="#BAA494" stroke-width="0.75" x1="270.622" y1="294.286" x2="270.622" y2="305.625"/>
		</g>
	</g>
</g>
<g opacity="0.75">
	<g>
		<g>
			<defs>
				<rect id="SVGID_13_" x="483.247" y="83.883" width="18.75" height="19.338"/>
			</defs>
			<clipPath id="SVGID_14_">
				<use xlink:href="#SVGID_13_"  overflow="visible"/>
			</clipPath>
			
				<line clip-path="url(#SVGID_14_)" fill="none" stroke="#BAA494" stroke-width="0.75" x1="492.622" y1="90.883" x2="492.622" y2="102.222"/>
		</g>
	</g>
</g>
<g opacity="0.75">
	<g>
		<g>
			<defs>
				<rect id="SVGID_15_" x="483.247" y="178.235" width="18.75" height="19.339"/>
			</defs>
			<clipPath id="SVGID_16_">
				<use xlink:href="#SVGID_15_"  overflow="visible"/>
			</clipPath>
			
				<line clip-path="url(#SVGID_16_)" fill="none" stroke="#BAA494" stroke-width="0.75" x1="492.622" y1="185.235" x2="492.622" y2="196.574"/>
		</g>
	</g>
</g>
<g opacity="0.75">
	<g>
		<g>
			<defs>
				<rect id="SVGID_17_" x="483.247" y="287.286" width="18.75" height="19.339"/>
			</defs>
			<clipPath id="SVGID_18_">
				<use xlink:href="#SVGID_17_"  overflow="visible"/>
			</clipPath>
			
				<line clip-path="url(#SVGID_18_)" fill="none" stroke="#BAA494" stroke-width="0.75" x1="492.622" y1="294.286" x2="492.622" y2="305.625"/>
		</g>
	</g>
</g>
<g opacity="0.75">
	<g>
		<g>
			<defs>
				<rect id="SVGID_19_" x="261.247" y="116.492" width="18.75" height="19.338"/>
			</defs>
			<clipPath id="SVGID_20_">
				<use xlink:href="#SVGID_19_"  overflow="visible"/>
			</clipPath>
			
				<line clip-path="url(#SVGID_20_)" fill="none" stroke="#BAA494" stroke-width="0.75" x1="270.622" y1="123.492" x2="270.622" y2="134.831"/>
		</g>
	</g>
</g>
<g opacity="0.75">
	<g>
		<g>
			<defs>
				<rect id="SVGID_21_" x="261.247" y="210.844" width="18.75" height="19.339"/>
			</defs>
			<clipPath id="SVGID_22_">
				<use xlink:href="#SVGID_21_"  overflow="visible"/>
			</clipPath>
			
				<line clip-path="url(#SVGID_22_)" fill="none" stroke="#BAA494" stroke-width="0.75" x1="270.622" y1="217.844" x2="270.622" y2="229.183"/>
		</g>
	</g>
</g>
<g opacity="0.75">
	<g>
		<g>
			<defs>
				<rect id="SVGID_23_" x="483.247" y="116.492" width="18.75" height="19.338"/>
			</defs>
			<clipPath id="SVGID_24_">
				<use xlink:href="#SVGID_23_"  overflow="visible"/>
			</clipPath>
			
				<line clip-path="url(#SVGID_24_)" fill="none" stroke="#BAA494" stroke-width="0.75" x1="492.622" y1="123.492" x2="492.622" y2="134.831"/>
		</g>
	</g>
</g>
<g opacity="0.75">
	<g>
		<g>
			<defs>
				<rect id="SVGID_25_" x="483.247" y="210.844" width="18.75" height="19.339"/>
			</defs>
			<clipPath id="SVGID_26_">
				<use xlink:href="#SVGID_25_"  overflow="visible"/>
			</clipPath>
			
				<line clip-path="url(#SVGID_26_)" fill="none" stroke="#BAA494" stroke-width="0.75" x1="492.622" y1="217.844" x2="492.622" y2="229.183"/>
		</g>
	</g>
</g>
<g>
	<path fill="#262625" d="M255.255,117.823v-0.832l3.653-4.642c0.351-0.454,0.52-0.857,0.52-1.364c0-1.001-0.598-1.664-1.612-1.664
		c-0.858,0-1.612,0.48-1.612,1.677h-0.936c0-1.456,1.001-2.509,2.548-2.509c1.521,0,2.548,0.975,2.548,2.496
		c0,0.74-0.234,1.222-0.741,1.872l-3.237,4.134h3.978v0.832C260.364,117.823,255.255,117.823,255.255,117.823z"/>
	<path fill="#262625" d="M262.951,117.823v-1.222h1.222v1.222H262.951z"/>
	<path fill="#262625" d="M269.359,117.901c-1.443,0-2.535-1.014-2.535-2.548v-4.316c0-1.534,1.092-2.548,2.535-2.548
		s2.535,1.014,2.535,2.548v4.316C271.895,116.887,270.803,117.901,269.359,117.901z M270.958,111.088
		c0-1.014-0.572-1.768-1.599-1.768s-1.599,0.754-1.599,1.768v4.212c0,1.015,0.572,1.769,1.599,1.769s1.599-0.754,1.599-1.769
		V111.088z"/>
	<path fill="#262625" d="M276.795,117.901c-1.443,0-2.535-1.014-2.535-2.548v-4.316c0-1.534,1.092-2.548,2.535-2.548
		s2.535,1.014,2.535,2.548v4.316C279.331,116.887,278.238,117.901,276.795,117.901z M278.395,111.088
		c0-1.014-0.572-1.768-1.599-1.768s-1.599,0.754-1.599,1.768v4.212c0,1.015,0.572,1.769,1.599,1.769s1.599-0.754,1.599-1.769
		V111.088z"/>
	<path fill="#262625" d="M284.231,117.901c-1.443,0-2.535-1.014-2.535-2.548v-4.316c0-1.534,1.092-2.548,2.535-2.548
		s2.535,1.014,2.535,2.548v4.316C286.766,116.887,285.674,117.901,284.231,117.901z M285.83,111.088
		c0-1.014-0.572-1.768-1.599-1.768s-1.599,0.754-1.599,1.768v4.212c0,1.015,0.572,1.769,1.599,1.769s1.599-0.754,1.599-1.769
		V111.088z"/>
</g>
<g>
	<path fill="#262625" d="M263.522,212.177v-8.217l-1.729,1.521v-1.066l1.729-1.494h0.936v9.256H263.522z"/>
	<path fill="#262625" d="M270.998,212.255c-1.443,0-2.535-1.014-2.535-2.548v-4.316c0-1.534,1.092-2.548,2.535-2.548
		s2.535,1.014,2.535,2.548v4.316C273.533,211.241,272.44,212.255,270.998,212.255z M272.597,205.442
		c0-1.014-0.572-1.768-1.599-1.768s-1.599,0.754-1.599,1.768v4.212c0,1.015,0.572,1.769,1.599,1.769s1.599-0.754,1.599-1.769
		V205.442z"/>
	<path fill="#262625" d="M278.433,212.255c-1.443,0-2.535-1.014-2.535-2.548v-4.316c0-1.534,1.092-2.548,2.535-2.548
		s2.535,1.014,2.535,2.548v4.316C280.968,211.241,279.876,212.255,278.433,212.255z M280.032,205.442
		c0-1.014-0.572-1.768-1.599-1.768s-1.599,0.754-1.599,1.768v4.212c0,1.015,0.572,1.769,1.599,1.769s1.599-0.754,1.599-1.769
		V205.442z"/>
</g>
<g>
	<path fill="#262625" d="M267.15,321.325c-1.456,0-2.639-0.767-2.717-2.444h0.936c0.078,1.157,0.897,1.612,1.781,1.612
		c1.001,0,1.781-0.663,1.781-1.794c0-1.118-0.559-1.794-1.82-1.794h-0.195v-0.819h0.195c1.131,0,1.651-0.637,1.651-1.677
		c0-1.105-0.715-1.69-1.612-1.69c-0.975,0-1.573,0.599-1.664,1.548h-0.936c0.104-1.495,1.196-2.38,2.6-2.38
		c1.508,0,2.548,1.001,2.548,2.51c0,0.975-0.416,1.677-1.248,2.054c0.936,0.351,1.417,1.105,1.417,2.262
		C269.867,320.415,268.658,321.325,267.15,321.325z"/>
	<path fill="#262625" d="M274.716,321.312c-1.443,0-2.535-1.015-2.535-2.548v-4.316c0-1.534,1.092-2.548,2.535-2.548
		s2.535,1.014,2.535,2.548v4.316C277.251,320.298,276.159,321.312,274.716,321.312z M276.315,314.5c0-1.014-0.572-1.768-1.599-1.768
		s-1.599,0.754-1.599,1.768v4.212c0,1.015,0.572,1.769,1.599,1.769s1.599-0.754,1.599-1.769V314.5z"/>
</g>
<g>
	<path fill="#262625" d="M477.256,117.835v-0.832l3.653-4.642c0.351-0.455,0.52-0.857,0.52-1.364c0-1.001-0.598-1.664-1.611-1.664
		c-0.858,0-1.612,0.48-1.612,1.677h-0.937c0-1.456,1.001-2.509,2.549-2.509c1.521,0,2.548,0.975,2.548,2.496
		c0,0.74-0.234,1.222-0.741,1.872l-3.237,4.134h3.979v0.832C482.367,117.835,477.256,117.835,477.256,117.835z"/>
	<path fill="#262625" d="M484.952,117.835v-1.222h1.222v1.222H484.952z"/>
	<path fill="#262625" d="M491.36,117.914c-1.442,0-2.535-1.015-2.535-2.548v-4.316c0-1.534,1.093-2.548,2.535-2.548
		c1.443,0,2.535,1.014,2.535,2.548v4.316C493.896,116.899,492.804,117.914,491.36,117.914z M492.96,111.101
		c0-1.014-0.572-1.768-1.6-1.768c-1.026,0-1.599,0.754-1.599,1.768v4.212c0,1.015,0.572,1.769,1.599,1.769s1.6-0.754,1.6-1.769
		V111.101z"/>
	<path fill="#262625" d="M498.797,117.914c-1.443,0-2.535-1.015-2.535-2.548v-4.316c0-1.534,1.092-2.548,2.535-2.548
		c1.442,0,2.535,1.014,2.535,2.548v4.316C501.332,116.899,500.239,117.914,498.797,117.914z M500.396,111.101
		c0-1.014-0.572-1.768-1.599-1.768s-1.6,0.754-1.6,1.768v4.212c0,1.015,0.572,1.769,1.6,1.769c1.026,0,1.599-0.754,1.599-1.769
		V111.101z"/>
	<path fill="#262625" d="M506.232,117.914c-1.443,0-2.535-1.015-2.535-2.548v-4.316c0-1.534,1.092-2.548,2.535-2.548
		c1.442,0,2.535,1.014,2.535,2.548v4.316C508.768,116.899,507.675,117.914,506.232,117.914z M507.831,111.101
		c0-1.014-0.572-1.768-1.599-1.768s-1.6,0.754-1.6,1.768v4.212c0,1.015,0.572,1.769,1.6,1.769c1.026,0,1.599-0.754,1.599-1.769
		V111.101z"/>
</g>
<g>
	<path fill="#262625" d="M485.523,212.19v-8.217l-1.729,1.521v-1.066l1.729-1.494h0.937v9.256H485.523z"/>
	<path fill="#262625" d="M492.999,212.269c-1.443,0-2.535-1.014-2.535-2.548v-4.316c0-1.534,1.092-2.548,2.535-2.548
		c1.442,0,2.535,1.014,2.535,2.548v4.316C495.534,211.255,494.441,212.269,492.999,212.269z M494.598,205.456
		c0-1.014-0.572-1.768-1.599-1.768s-1.6,0.754-1.6,1.768v4.212c0,1.015,0.572,1.769,1.6,1.769c1.026,0,1.599-0.754,1.599-1.769
		V205.456z"/>
	<path fill="#262625" d="M500.435,212.269c-1.443,0-2.535-1.014-2.535-2.548v-4.316c0-1.534,1.092-2.548,2.535-2.548
		c1.442,0,2.535,1.014,2.535,2.548v4.316C502.97,211.255,501.877,212.269,500.435,212.269z M502.033,205.456
		c0-1.014-0.572-1.768-1.599-1.768s-1.6,0.754-1.6,1.768v4.212c0,1.015,0.572,1.769,1.6,1.769c1.026,0,1.599-0.754,1.599-1.769
		V205.456z"/>
</g>
<g>
	<path fill="#262625" d="M489.151,321.338c-1.456,0-2.64-0.767-2.718-2.444h0.937c0.078,1.157,0.896,1.612,1.781,1.612
		c1.001,0,1.78-0.663,1.78-1.794c0-1.118-0.559-1.794-1.819-1.794h-0.195v-0.819h0.195c1.131,0,1.65-0.637,1.65-1.677
		c0-1.105-0.715-1.69-1.611-1.69c-0.976,0-1.573,0.599-1.664,1.547h-0.937c0.104-1.494,1.196-2.379,2.601-2.379
		c1.508,0,2.548,1.001,2.548,2.51c0,0.975-0.416,1.677-1.248,2.054c0.936,0.351,1.417,1.105,1.417,2.262
		C491.868,320.428,490.659,321.338,489.151,321.338z"/>
	<path fill="#262625" d="M496.717,321.325c-1.442,0-2.535-1.014-2.535-2.548v-4.316c0-1.534,1.093-2.548,2.535-2.548
		c1.443,0,2.535,1.014,2.535,2.548v4.316C499.252,320.311,498.16,321.325,496.717,321.325z M498.316,314.513
		c0-1.014-0.572-1.768-1.6-1.768c-1.026,0-1.599,0.754-1.599,1.768v4.212c0,1.015,0.572,1.769,1.599,1.769s1.6-0.754,1.6-1.769
		V314.513z"/>
</g>
<rect x="323.503" y="146.101" fill="none" stroke="#262625" stroke-width="0.75" width="6.519" height="6.519"/>
<polyline fill="none" stroke="#262625" stroke-width="0.75" points="323.362,147.531 326.812,151.024 334.288,143.456 "/>
<g>
	<path fill="#262625" d="M343.863,149.233h-2.457v3.81h-0.988v-9.257h3.445c1.69,0,2.86,1.054,2.86,2.718
		S345.553,149.233,343.863,149.233z M343.772,144.671h-2.366v3.679h2.366c1.157,0,1.963-0.624,1.963-1.846
		C345.735,145.281,344.929,144.671,343.772,144.671z"/>
	<path fill="#262625" d="M353.067,152.393c-0.442,0.442-1.053,0.729-1.833,0.729s-1.391-0.286-1.833-0.729
		c-0.65-0.663-0.78-1.56-0.78-2.548s0.13-1.885,0.78-2.548c0.442-0.442,1.053-0.729,1.833-0.729s1.391,0.286,1.833,0.729
		c0.65,0.663,0.78,1.56,0.78,2.548S353.717,151.729,353.067,152.393z M352.404,147.869c-0.299-0.3-0.715-0.469-1.17-0.469
		c-0.455,0-0.858,0.169-1.157,0.469c-0.468,0.468-0.52,1.261-0.52,1.976s0.052,1.508,0.52,1.977
		c0.299,0.299,0.702,0.468,1.157,0.468c0.455,0,0.871-0.169,1.17-0.468c0.468-0.469,0.507-1.262,0.507-1.977
		S352.872,148.337,352.404,147.869z"/>
	<path fill="#262625" d="M358.513,153.121c-1.079,0-1.924-0.247-2.626-0.923l0.624-0.624c0.507,0.532,1.196,0.741,1.989,0.741
		c1.053,0,1.703-0.378,1.703-1.132c0-0.559-0.325-0.871-1.066-0.936l-1.053-0.091c-1.248-0.104-1.911-0.663-1.911-1.717
		c0-1.17,0.988-1.872,2.353-1.872c0.91,0,1.729,0.222,2.301,0.689l-0.611,0.611c-0.455-0.352-1.04-0.508-1.703-0.508
		c-0.936,0-1.43,0.403-1.43,1.054c0,0.546,0.312,0.871,1.118,0.936l1.027,0.091c1.118,0.104,1.885,0.533,1.885,1.729
		C361.113,152.406,360.061,153.121,358.513,153.121z"/>
	<path fill="#262625" d="M365.261,153.043c-1.092,0-1.638-0.767-1.638-1.716V147.4h-0.806v-0.715h0.806v-2.002h0.936v2.002h1.365
		v0.715h-1.365v3.9c0,0.585,0.273,0.937,0.871,0.937h0.494v0.806L365.261,153.043L365.261,153.043z"/>
	<path fill="#262625" d="M370.447,153.121c-1.079,0-1.924-0.247-2.626-0.923l0.624-0.624c0.507,0.532,1.196,0.741,1.989,0.741
		c1.053,0,1.703-0.378,1.703-1.132c0-0.559-0.325-0.871-1.066-0.936l-1.053-0.091c-1.248-0.104-1.911-0.663-1.911-1.717
		c0-1.17,0.988-1.872,2.353-1.872c0.91,0,1.729,0.222,2.301,0.689l-0.611,0.611c-0.455-0.352-1.04-0.508-1.703-0.508
		c-0.936,0-1.43,0.403-1.43,1.054c0,0.546,0.312,0.871,1.118,0.936l1.027,0.091c1.118,0.104,1.885,0.533,1.885,1.729
		C373.047,152.406,371.994,153.121,370.447,153.121z"/>
	<path fill="#262625" d="M382.199,153.043h-0.806l-3.042-9.257h1.04l2.405,7.488l2.405-7.488h1.041L382.199,153.043z"/>
	<path fill="#262625" d="M390.272,153.043v-0.611c-0.521,0.521-0.988,0.689-1.847,0.689c-0.884,0-1.404-0.169-1.807-0.585
		c-0.312-0.312-0.481-0.793-0.481-1.3c0-1.118,0.78-1.847,2.21-1.847h1.925v-0.611c0-0.936-0.469-1.403-1.639-1.403
		c-0.819,0-1.235,0.194-1.612,0.728l-0.637-0.585c0.572-0.741,1.222-0.949,2.262-0.949c1.717,0,2.562,0.741,2.562,2.133v4.342
		L390.272,153.043L390.272,153.043z M390.272,150.092h-1.795c-0.962,0-1.43,0.39-1.43,1.131s0.455,1.093,1.469,1.093
		c0.546,0,1.027-0.039,1.431-0.43c0.221-0.208,0.325-0.572,0.325-1.104V150.092z"/>
	<path fill="#262625" d="M395.731,153.043c-1.118,0-1.625-0.728-1.625-1.703v-7.554h0.937v7.515c0,0.624,0.208,0.937,0.857,0.937
		h0.508v0.806L395.731,153.043L395.731,153.043z"/>
	<path fill="#262625" d="M398.592,144.827v-1.054h1.053v1.054H398.592z M398.644,153.043v-6.396h0.936v6.396H398.644z"/>
	<path fill="#262625" d="M406.404,153.043v-0.767c-0.52,0.676-1.118,0.845-1.82,0.845c-0.649,0-1.222-0.221-1.56-0.56
		c-0.65-0.649-0.78-1.716-0.78-2.717s0.13-2.067,0.78-2.717c0.338-0.338,0.91-0.56,1.56-0.56c0.702,0,1.287,0.156,1.808,0.819
		v-3.602h0.936v9.257h-0.924V153.043z M404.792,147.4c-1.391,0-1.611,1.196-1.611,2.444s0.221,2.444,1.611,2.444
		c1.392,0,1.6-1.196,1.6-2.444S406.184,147.4,404.792,147.4z"/>
	<path fill="#262625" d="M413.945,153.043v-0.611c-0.521,0.521-0.988,0.689-1.847,0.689c-0.884,0-1.404-0.169-1.807-0.585
		c-0.312-0.312-0.481-0.793-0.481-1.3c0-1.118,0.78-1.847,2.21-1.847h1.925v-0.611c0-0.936-0.469-1.403-1.639-1.403
		c-0.819,0-1.235,0.194-1.612,0.728l-0.637-0.585c0.572-0.741,1.222-0.949,2.262-0.949c1.717,0,2.562,0.741,2.562,2.133v4.342
		L413.945,153.043L413.945,153.043z M413.945,150.092h-1.795c-0.962,0-1.43,0.39-1.43,1.131s0.455,1.093,1.469,1.093
		c0.546,0,1.027-0.039,1.431-0.43c0.221-0.208,0.325-0.572,0.325-1.104V150.092z"/>
	<path fill="#262625" d="M419.6,153.043c-1.092,0-1.638-0.767-1.638-1.716V147.4h-0.807v-0.715h0.807v-2.002h0.936v2.002h1.365
		v0.715h-1.365v3.9c0,0.585,0.273,0.937,0.871,0.937h0.494v0.806L419.6,153.043L419.6,153.043z"/>
	<path fill="#262625" d="M422.72,144.827v-1.054h1.053v1.054H422.72z M422.771,153.043v-6.396h0.936v6.396H422.771z"/>
	<path fill="#262625" d="M430.818,152.393c-0.442,0.442-1.054,0.729-1.833,0.729c-0.78,0-1.392-0.286-1.834-0.729
		c-0.649-0.663-0.779-1.56-0.779-2.548s0.13-1.885,0.779-2.548c0.442-0.442,1.054-0.729,1.834-0.729
		c0.779,0,1.391,0.286,1.833,0.729c0.649,0.663,0.779,1.56,0.779,2.548S431.468,151.729,430.818,152.393z M430.155,147.869
		c-0.3-0.3-0.716-0.469-1.17-0.469c-0.455,0-0.858,0.169-1.157,0.469c-0.469,0.468-0.521,1.261-0.521,1.976s0.052,1.508,0.521,1.977
		c0.299,0.299,0.702,0.468,1.157,0.468c0.454,0,0.87-0.169,1.17-0.468c0.468-0.469,0.507-1.262,0.507-1.977
		S430.623,148.337,430.155,147.869z"/>
	<path fill="#262625" d="M438.332,153.043v-3.939c0-1.131-0.61-1.703-1.573-1.703c-0.962,0-1.586,0.585-1.586,1.703v3.939h-0.936
		v-6.396h0.936v0.702c0.455-0.52,1.079-0.78,1.794-0.78c0.689,0,1.248,0.208,1.639,0.599c0.455,0.441,0.663,1.04,0.663,1.781v4.095
		h-0.937V153.043z"/>
</g>
<path fill="none" stroke="#BAA494" stroke-width="0.75" stroke-miterlimit="10" d="M169.207,135.205c0,0-2.835,0-2.835,2.835v20.073
	c0,0,0,2.835,2.835,2.835h425.956c0,0,2.834,0,2.834-2.835V138.04c0,0,0-2.835-2.834-2.835L169.207,135.205L169.207,135.205z"/>
<path fill="none" stroke="#AE1821" stroke-width="0.75" stroke-miterlimit="10" d="M169.207,229.558c0,0-2.835,0-2.835,2.835v20.073
	c0,0,0,2.835,2.835,2.835h425.956c0,0,2.834,0,2.834-2.835v-20.073c0,0,0-2.835-2.834-2.835H169.207z"/>
<g>
	<path fill="#BAA494" d="M169.144,177.548c-1.177,0-1.947-0.298-2.685-1.034l0.572-0.572c0.649,0.648,1.254,0.858,2.134,0.858
		c1.144,0,1.848-0.539,1.848-1.453c0-0.406-0.121-0.759-0.374-0.979s-0.451-0.286-1.023-0.374l-0.913-0.144
		c-0.616-0.099-1.1-0.297-1.441-0.594c-0.396-0.352-0.594-0.836-0.594-1.463c0-1.331,0.958-2.212,2.509-2.212
		c1.001,0,1.661,0.253,2.332,0.858l-0.539,0.539c-0.484-0.44-1.001-0.671-1.826-0.671c-1.045,0-1.65,0.583-1.65,1.452
		c0,0.385,0.11,0.693,0.352,0.902s0.649,0.362,1.056,0.429l0.858,0.132c0.737,0.11,1.1,0.265,1.43,0.55
		c0.429,0.363,0.66,0.902,0.66,1.552C171.85,176.7,170.772,177.548,169.144,177.548z"/>
	<path fill="#BAA494" d="M177.471,176.932c-0.374,0.374-0.891,0.616-1.551,0.616s-1.177-0.242-1.551-0.616
		c-0.55-0.562-0.66-1.32-0.66-2.156c0-0.837,0.11-1.596,0.66-2.156c0.374-0.374,0.891-0.616,1.551-0.616s1.177,0.242,1.551,0.616
		c0.55,0.561,0.66,1.319,0.66,2.156C178.131,175.611,178.021,176.37,177.471,176.932z M176.91,173.103
		c-0.253-0.253-0.605-0.396-0.99-0.396c-0.385,0-0.726,0.143-0.979,0.396c-0.396,0.396-0.44,1.067-0.44,1.673
		c0,0.604,0.044,1.275,0.44,1.672c0.253,0.253,0.594,0.396,0.979,0.396c0.385,0,0.737-0.144,0.99-0.396
		c0.396-0.396,0.429-1.067,0.429-1.672C177.338,174.17,177.306,173.499,176.91,173.103z"/>
	<path fill="#BAA494" d="M183.399,173.103c-0.297-0.297-0.517-0.396-0.935-0.396c-0.792,0-1.298,0.627-1.298,1.452v3.322h-0.792
		v-5.413h0.792v0.66c0.297-0.451,0.891-0.726,1.518-0.726c0.517,0,0.913,0.121,1.298,0.506L183.399,173.103z"/>
	<path fill="#BAA494" d="M187.073,177.481c-0.924,0-1.386-0.649-1.386-1.452v-3.322h-0.682v-0.605h0.682v-1.694h0.792v1.694h1.155
		v0.605h-1.155v3.3c0,0.495,0.231,0.793,0.737,0.793h0.418v0.682h-0.561V177.481z"/>
	<path fill="#BAA494" d="M190.164,174.984c0,1.188,0.561,1.87,1.595,1.87c0.627,0,0.99-0.188,1.419-0.616l0.539,0.473
		c-0.55,0.551-1.056,0.837-1.98,0.837c-1.43,0-2.366-0.858-2.366-2.772c0-1.75,0.847-2.772,2.223-2.772
		c1.397,0,2.222,1.012,2.222,2.618v0.363h-3.652V174.984z M192.859,173.488c-0.209-0.495-0.693-0.814-1.265-0.814
		s-1.056,0.319-1.265,0.814c-0.121,0.297-0.143,0.462-0.165,0.901h2.86C193.002,173.95,192.98,173.785,192.859,173.488z"/>
	<path fill="#BAA494" d="M199.283,177.481v-0.649c-0.44,0.572-0.946,0.716-1.54,0.716c-0.55,0-1.034-0.188-1.32-0.474
		c-0.55-0.55-0.66-1.452-0.66-2.299c0-0.848,0.11-1.75,0.66-2.3c0.286-0.286,0.77-0.473,1.32-0.473c0.594,0,1.089,0.132,1.529,0.692
		v-3.047h0.792v7.833L199.283,177.481L199.283,177.481z M197.919,172.707c-1.177,0-1.364,1.012-1.364,2.068s0.187,2.068,1.364,2.068
		s1.353-1.013,1.353-2.068C199.272,173.719,199.096,172.707,197.919,172.707z"/>
	<path fill="#BAA494" d="M209.502,177.074c-0.286,0.286-0.771,0.474-1.32,0.474c-0.594,0-1.089-0.144-1.529-0.716v0.649h-0.792
		v-7.833h0.792v3.047c0.44-0.561,0.935-0.692,1.529-0.692c0.55,0,1.034,0.187,1.32,0.473c0.55,0.55,0.66,1.452,0.66,2.3
		C210.163,175.622,210.052,176.524,209.502,177.074z M208.017,172.707c-1.177,0-1.364,1.012-1.364,2.068s0.187,2.068,1.364,2.068
		s1.353-1.013,1.353-2.068C209.37,173.719,209.194,172.707,208.017,172.707z"/>
	<path fill="#BAA494" d="M213.748,178.791c-0.11,0.297-0.231,0.495-0.385,0.638c-0.286,0.275-0.671,0.374-1.056,0.374h-0.341v-0.704
		h0.242c0.55,0,0.715-0.176,0.891-0.671l0.385-1.057l-1.947-5.303h0.858l1.485,4.346l1.474-4.346h0.858L213.748,178.791z"/>
	<path fill="#BAA494" d="M224.396,177.481v-0.649c-0.44,0.572-0.946,0.716-1.54,0.716c-0.55,0-1.034-0.188-1.32-0.474
		c-0.55-0.55-0.66-1.452-0.66-2.299c0-0.848,0.11-1.75,0.66-2.3c0.286-0.286,0.77-0.473,1.32-0.473c0.594,0,1.089,0.132,1.529,0.692
		v-3.047h0.792v7.833L224.396,177.481L224.396,177.481z M223.032,172.707c-1.177,0-1.364,1.012-1.364,2.068s0.187,2.068,1.364,2.068
		s1.353-1.013,1.353-2.068C224.385,173.719,224.209,172.707,223.032,172.707z"/>
	<path fill="#BAA494" d="M228.191,174.984c0,1.188,0.561,1.87,1.595,1.87c0.627,0,0.99-0.188,1.419-0.616l0.539,0.473
		c-0.55,0.551-1.056,0.837-1.98,0.837c-1.43,0-2.366-0.858-2.366-2.772c0-1.75,0.847-2.772,2.223-2.772
		c1.397,0,2.222,1.012,2.222,2.618v0.363h-3.652V174.984z M230.886,173.488c-0.209-0.495-0.693-0.814-1.265-0.814
		s-1.056,0.319-1.265,0.814c-0.121,0.297-0.143,0.462-0.165,0.901h2.86C231.029,173.95,231.007,173.785,230.886,173.488z"/>
	<path fill="#BAA494" d="M235.781,177.548c-0.913,0-1.628-0.209-2.222-0.781l0.528-0.528c0.429,0.451,1.012,0.627,1.684,0.627
		c0.891,0,1.441-0.319,1.441-0.957c0-0.473-0.275-0.737-0.902-0.792l-0.891-0.077c-1.056-0.088-1.617-0.562-1.617-1.452
		c0-0.99,0.836-1.584,1.991-1.584c0.77,0,1.463,0.187,1.947,0.583l-0.517,0.517c-0.385-0.297-0.88-0.429-1.441-0.429
		c-0.792,0-1.21,0.341-1.21,0.891c0,0.463,0.264,0.737,0.946,0.793l0.869,0.076c0.946,0.089,1.595,0.451,1.595,1.464
		C237.981,176.942,237.09,177.548,235.781,177.548z"/>
	<path fill="#BAA494" d="M242.183,177.548c-1.364,0-2.398-0.925-2.398-2.772c0-1.849,1.034-2.772,2.398-2.772
		c0.748,0,1.221,0.197,1.782,0.803l-0.539,0.506c-0.407-0.451-0.726-0.604-1.243-0.604c-0.528,0-0.968,0.209-1.254,0.616
		c-0.253,0.352-0.352,0.77-0.352,1.452c0,0.682,0.099,1.1,0.352,1.452c0.286,0.407,0.726,0.616,1.254,0.616
		c0.517,0,0.836-0.165,1.243-0.616l0.539,0.517C243.404,177.35,242.931,177.548,242.183,177.548z"/>
	<path fill="#BAA494" d="M246.352,174.984c0,1.188,0.561,1.87,1.595,1.87c0.627,0,0.99-0.188,1.419-0.616l0.539,0.473
		c-0.55,0.551-1.056,0.837-1.98,0.837c-1.43,0-2.366-0.858-2.366-2.772c0-1.75,0.847-2.772,2.223-2.772
		c1.397,0,2.222,1.012,2.222,2.618v0.363h-3.652V174.984z M249.047,173.488c-0.209-0.495-0.693-0.814-1.265-0.814
		s-1.056,0.319-1.265,0.814c-0.121,0.297-0.143,0.462-0.165,0.901h2.86C249.19,173.95,249.168,173.785,249.047,173.488z"/>
	<path fill="#BAA494" d="M255.691,177.481v-3.333c0-0.958-0.517-1.441-1.331-1.441s-1.342,0.495-1.342,1.441v3.333h-0.792v-5.413
		h0.792v0.595c0.385-0.44,0.913-0.66,1.518-0.66c0.583,0,1.056,0.176,1.386,0.506c0.385,0.374,0.561,0.88,0.561,1.507v3.466h-0.792
		V177.481z"/>
	<path fill="#BAA494" d="M262.192,177.481v-0.649c-0.44,0.572-0.946,0.716-1.54,0.716c-0.55,0-1.034-0.188-1.32-0.474
		c-0.55-0.55-0.66-1.452-0.66-2.299c0-0.848,0.11-1.75,0.66-2.3c0.286-0.286,0.77-0.473,1.32-0.473c0.594,0,1.089,0.132,1.529,0.692
		v-3.047h0.792v7.833L262.192,177.481L262.192,177.481z M260.828,172.707c-1.177,0-1.364,1.012-1.364,2.068s0.187,2.068,1.364,2.068
		s1.353-1.013,1.353-2.068C262.181,173.719,262.005,172.707,260.828,172.707z"/>
	<path fill="#BAA494" d="M265.458,170.528v-0.891h0.891v0.891H265.458z M265.502,177.481v-5.413h0.792v5.413H265.502z"/>
	<path fill="#BAA494" d="M272.301,177.481v-3.333c0-0.958-0.517-1.441-1.331-1.441s-1.342,0.495-1.342,1.441v3.333h-0.792v-5.413
		h0.792v0.595c0.385-0.44,0.913-0.66,1.518-0.66c0.583,0,1.056,0.176,1.386,0.506c0.385,0.374,0.561,0.88,0.561,1.507v3.466h-0.792
		V177.481z"/>
	<path fill="#BAA494" d="M277.306,179.968c-0.814,0-1.265-0.209-1.837-0.727l0.517-0.506c0.396,0.353,0.671,0.539,1.298,0.539
		c1.045,0,1.485-0.736,1.485-1.661v-0.847c-0.44,0.561-0.935,0.704-1.518,0.704c-0.55,0-1.023-0.198-1.309-0.484
		c-0.539-0.539-0.66-1.375-0.66-2.255c0-0.881,0.121-1.717,0.66-2.256c0.286-0.286,0.77-0.473,1.32-0.473
		c0.594,0,1.078,0.132,1.518,0.704v-0.639h0.781v5.578C279.561,178.988,278.725,179.968,277.306,179.968z M277.427,172.707
		c-1.177,0-1.354,1.012-1.354,2.024c0,1.012,0.176,2.023,1.354,2.023c1.177,0,1.342-1.012,1.342-2.023
		C278.769,173.719,278.604,172.707,277.427,172.707z"/>
	<path fill="#BAA494" d="M288.448,177.481v-0.517c-0.44,0.439-0.836,0.583-1.562,0.583c-0.749,0-1.188-0.144-1.529-0.495
		c-0.264-0.265-0.407-0.672-0.407-1.101c0-0.946,0.66-1.562,1.87-1.562h1.628v-0.517c0-0.792-0.396-1.188-1.386-1.188
		c-0.693,0-1.045,0.165-1.364,0.616l-0.539-0.495c0.484-0.627,1.034-0.803,1.915-0.803c1.452,0,2.167,0.627,2.167,1.804v3.675
		L288.448,177.481L288.448,177.481z M288.448,174.984h-1.518c-0.814,0-1.21,0.33-1.21,0.957s0.385,0.924,1.243,0.924
		c0.462,0,0.869-0.033,1.21-0.363c0.187-0.176,0.275-0.483,0.275-0.935V174.984z"/>
	<path fill="#BAA494" d="M298.668,177.481v-3.333c0-0.958-0.517-1.441-1.332-1.441c-0.792,0-1.353,0.495-1.353,1.353v3.422h-0.792
		v-3.333c0-0.958-0.517-1.441-1.332-1.441c-0.814,0-1.353,0.495-1.353,1.441v3.333h-0.792v-5.413h0.792v0.595
		c0.385-0.44,0.924-0.66,1.529-0.66c0.748,0,1.331,0.308,1.661,0.902c0.418-0.595,1.023-0.902,1.782-0.902
		c0.583,0,1.067,0.187,1.397,0.506c0.385,0.374,0.583,0.88,0.583,1.507v3.466h-0.79V177.481z"/>
	<path fill="#BAA494" d="M305.411,176.932c-0.374,0.374-0.891,0.616-1.551,0.616s-1.177-0.242-1.551-0.616
		c-0.55-0.562-0.66-1.32-0.66-2.156c0-0.837,0.11-1.596,0.66-2.156c0.374-0.374,0.891-0.616,1.551-0.616s1.177,0.242,1.551,0.616
		c0.55,0.561,0.66,1.319,0.66,2.156C306.071,175.611,305.96,176.37,305.411,176.932z M304.85,173.103
		c-0.253-0.253-0.605-0.396-0.99-0.396c-0.385,0-0.726,0.143-0.979,0.396c-0.396,0.396-0.44,1.067-0.44,1.673
		c0,0.604,0.044,1.275,0.44,1.672c0.253,0.253,0.594,0.396,0.979,0.396s0.737-0.144,0.99-0.396c0.396-0.396,0.429-1.067,0.429-1.672
		C305.278,174.17,305.246,173.499,304.85,173.103z"/>
	<path fill="#BAA494" d="M311.735,177.481v-0.605c-0.385,0.44-0.924,0.672-1.529,0.672c-0.583,0-1.067-0.177-1.397-0.507
		c-0.385-0.374-0.55-0.891-0.55-1.518v-3.455h0.792v3.334c0,0.957,0.506,1.441,1.32,1.441s1.354-0.495,1.354-1.441v-3.334h0.792
		v5.413L311.735,177.481L311.735,177.481z"/>
	<path fill="#BAA494" d="M318.511,177.481v-3.333c0-0.958-0.517-1.441-1.331-1.441s-1.342,0.495-1.342,1.441v3.333h-0.792v-5.413
		h0.792v0.595c0.385-0.44,0.913-0.66,1.518-0.66c0.583,0,1.056,0.176,1.386,0.506c0.385,0.374,0.561,0.88,0.561,1.507v3.466h-0.792
		V177.481z"/>
	<path fill="#BAA494" d="M323.296,177.481c-0.924,0-1.386-0.649-1.386-1.452v-3.322h-0.682v-0.605h0.682v-1.694h0.792v1.694h1.155
		v0.605h-1.155v3.3c0,0.495,0.231,0.793,0.737,0.793h0.418v0.682h-0.561V177.481z"/>
	<path fill="#BAA494" d="M332.745,176.932c-0.374,0.374-0.891,0.616-1.551,0.616s-1.177-0.242-1.551-0.616
		c-0.55-0.562-0.66-1.32-0.66-2.156c0-0.837,0.11-1.596,0.66-2.156c0.374-0.374,0.891-0.616,1.551-0.616s1.177,0.242,1.551,0.616
		c0.55,0.561,0.66,1.319,0.66,2.156C333.405,175.611,333.295,176.37,332.745,176.932z M332.184,173.103
		c-0.253-0.253-0.605-0.396-0.99-0.396c-0.385,0-0.726,0.143-0.979,0.396c-0.396,0.396-0.44,1.067-0.44,1.673
		c0,0.604,0.044,1.275,0.44,1.672c0.253,0.253,0.594,0.396,0.979,0.396s0.737-0.144,0.99-0.396c0.396-0.396,0.429-1.067,0.429-1.672
		C332.613,174.17,332.58,173.499,332.184,173.103z"/>
	<path fill="#BAA494" d="M336.617,172.707v4.774h-0.792v-4.774h-0.693v-0.605h0.693v-1.023c0-0.803,0.451-1.452,1.375-1.452h0.572
		v0.683h-0.429c-0.506,0-0.726,0.297-0.726,0.792v1.001h1.155v0.605h-1.155V172.707z"/>
	<path fill="#BAA494" d="M344.294,177.481c-0.946,0-1.375-0.616-1.375-1.441v-6.392h0.792v6.358c0,0.528,0.176,0.793,0.726,0.793
		h0.429v0.682L344.294,177.481L344.294,177.481z"/>
	<path fill="#BAA494" d="M346.704,170.528v-0.891h0.891v0.891H346.704z M346.748,177.481v-5.413h0.792v5.413H346.748z"/>
	<path fill="#BAA494" d="M353.645,177.481l-1.716-2.772l-1.056,1.21v1.562h-0.792v-7.833h0.792v5.236l2.442-2.816h0.99l-1.837,2.068
		l2.156,3.345H353.645z"/>
	<path fill="#BAA494" d="M356.801,174.984c0,1.188,0.561,1.87,1.595,1.87c0.627,0,0.99-0.188,1.419-0.616l0.539,0.473
		c-0.55,0.551-1.056,0.837-1.98,0.837c-1.43,0-2.366-0.858-2.366-2.772c0-1.75,0.847-2.772,2.223-2.772
		c1.397,0,2.222,1.012,2.222,2.618v0.363h-3.652V174.984z M359.497,173.488c-0.209-0.495-0.693-0.814-1.265-0.814
		c-0.572,0-1.056,0.319-1.265,0.814c-0.121,0.297-0.143,0.462-0.165,0.901h2.86C359.64,173.95,359.618,173.785,359.497,173.488z"/>
	<path fill="#BAA494" d="M364.38,177.548c-0.913,0-1.628-0.209-2.222-0.781l0.528-0.528c0.429,0.451,1.012,0.627,1.684,0.627
		c0.891,0,1.441-0.319,1.441-0.957c0-0.473-0.275-0.737-0.902-0.792l-0.891-0.077c-1.056-0.088-1.617-0.562-1.617-1.452
		c0-0.99,0.836-1.584,1.991-1.584c0.77,0,1.463,0.187,1.947,0.583l-0.517,0.517c-0.385-0.297-0.88-0.429-1.441-0.429
		c-0.792,0-1.21,0.341-1.21,0.891c0,0.463,0.264,0.737,0.946,0.793l0.869,0.076c0.946,0.089,1.595,0.451,1.595,1.464
		C366.581,176.942,365.689,177.548,364.38,177.548z"/>
	<path fill="#BAA494" d="M368.659,177.481v-1.034h1.034v1.034H368.659z"/>
</g>
<g>
	<g>
		<path fill="#BBA595" d="M169.664,272.708c-0.771,0-1.475-0.286-2.002-0.814c-0.737-0.737-0.737-1.507-0.737-3.169
			c0-1.661,0-2.431,0.737-3.168c0.528-0.528,1.232-0.814,2.002-0.814c1.408,0,2.453,0.858,2.717,2.333h-0.858
			c-0.209-0.958-0.88-1.585-1.859-1.585c-0.517,0-1.012,0.198-1.354,0.551c-0.495,0.506-0.55,1.045-0.55,2.684
			c0,1.64,0.055,2.179,0.55,2.685c0.341,0.353,0.836,0.551,1.354,0.551c0.979,0,1.672-0.628,1.881-1.585h0.836
			C172.128,271.85,171.061,272.708,169.664,272.708z"/>
		<path fill="#BBA595" d="M178.101,272.092c-0.374,0.374-0.891,0.616-1.551,0.616s-1.177-0.242-1.551-0.616
			c-0.55-0.562-0.66-1.32-0.66-2.156c0-0.837,0.11-1.596,0.66-2.156c0.374-0.374,0.891-0.616,1.551-0.616s1.177,0.242,1.551,0.616
			c0.55,0.561,0.66,1.319,0.66,2.156C178.761,270.772,178.651,271.53,178.101,272.092z M177.54,268.263
			c-0.253-0.253-0.605-0.396-0.99-0.396c-0.385,0-0.726,0.143-0.979,0.396c-0.396,0.396-0.44,1.067-0.44,1.673
			c0,0.604,0.044,1.275,0.44,1.672c0.253,0.253,0.594,0.396,0.979,0.396c0.385,0,0.737-0.144,0.99-0.396
			c0.396-0.396,0.429-1.067,0.429-1.672C177.969,269.33,177.936,268.659,177.54,268.263z"/>
		<path fill="#BBA595" d="M184.47,272.642v-3.333c0-0.958-0.517-1.441-1.331-1.441s-1.342,0.495-1.342,1.441v3.333h-0.792v-5.413
			h0.792v0.595c0.385-0.44,0.913-0.66,1.518-0.66c0.583,0,1.056,0.176,1.386,0.506c0.385,0.374,0.561,0.88,0.561,1.507v3.466H184.47
			z"/>
		<path fill="#BBA595" d="M189.441,272.708c-0.913,0-1.628-0.209-2.222-0.781l0.528-0.528c0.429,0.451,1.012,0.627,1.684,0.627
			c0.891,0,1.441-0.319,1.441-0.957c0-0.473-0.275-0.737-0.902-0.792l-0.891-0.077c-1.056-0.088-1.617-0.562-1.617-1.452
			c0-0.99,0.836-1.584,1.991-1.584c0.77,0,1.463,0.187,1.947,0.583l-0.517,0.517c-0.385-0.297-0.88-0.429-1.441-0.429
			c-0.792,0-1.21,0.341-1.21,0.891c0,0.463,0.264,0.737,0.946,0.793l0.869,0.076c0.946,0.089,1.595,0.451,1.595,1.464
			C191.642,272.103,190.75,272.708,189.441,272.708z"/>
		<path fill="#BBA595" d="M193.698,265.689v-0.891h0.891v0.891H193.698z M193.742,272.642v-5.413h0.792v5.413H193.742z"/>
		<path fill="#BBA595" d="M200.31,272.642v-0.649c-0.44,0.572-0.946,0.716-1.54,0.716c-0.55,0-1.034-0.188-1.32-0.474
			c-0.55-0.55-0.66-1.452-0.66-2.299c0-0.848,0.11-1.75,0.66-2.3c0.286-0.286,0.77-0.473,1.32-0.473
			c0.594,0,1.089,0.132,1.529,0.692v-3.047h0.792v7.833H200.31z M198.945,267.867c-1.177,0-1.364,1.012-1.364,2.068
			c0,1.056,0.187,2.068,1.364,2.068s1.353-1.013,1.353-2.068C200.298,268.879,200.123,267.867,198.945,267.867z"/>
		<path fill="#BBA595" d="M204.104,270.145c0,1.188,0.561,1.87,1.595,1.87c0.627,0,0.99-0.188,1.419-0.616l0.539,0.473
			c-0.55,0.551-1.056,0.837-1.98,0.837c-1.43,0-2.366-0.858-2.366-2.772c0-1.75,0.847-2.772,2.223-2.772
			c1.397,0,2.222,1.012,2.222,2.618v0.363H204.104z M206.8,268.648c-0.209-0.495-0.693-0.814-1.265-0.814
			c-0.572,0-1.056,0.319-1.265,0.814c-0.121,0.297-0.143,0.462-0.165,0.901h2.86C206.943,269.11,206.921,268.945,206.8,268.648z"/>
		<path fill="#BBA595" d="M213.003,268.263c-0.297-0.297-0.517-0.396-0.935-0.396c-0.792,0-1.298,0.627-1.298,1.452v3.322h-0.792
			v-5.413h0.792v0.66c0.297-0.451,0.891-0.726,1.518-0.726c0.517,0,0.913,0.121,1.298,0.506L213.003,268.263z"/>
		<path fill="#BBA595" d="M219.966,272.642c-0.924,0-1.386-0.649-1.386-1.452v-3.322h-0.682v-0.605h0.682v-1.694h0.792v1.694h1.155
			v0.605h-1.155v3.3c0,0.495,0.231,0.793,0.737,0.793h0.418v0.682H219.966z"/>
		<path fill="#BBA595" d="M226.115,272.642v-3.345c0-0.946-0.506-1.43-1.32-1.43c-0.814,0-1.353,0.495-1.353,1.43v3.345h-0.792
			v-7.833h0.792v3.015c0.396-0.451,0.913-0.66,1.518-0.66c1.221,0,1.947,0.781,1.947,2.002v3.477H226.115z"/>
		<path fill="#BBA595" d="M229.877,270.145c0,1.188,0.561,1.87,1.595,1.87c0.627,0,0.99-0.188,1.419-0.616l0.539,0.473
			c-0.55,0.551-1.056,0.837-1.98,0.837c-1.43,0-2.366-0.858-2.366-2.772c0-1.75,0.847-2.772,2.223-2.772
			c1.397,0,2.222,1.012,2.222,2.618v0.363H229.877z M232.572,268.648c-0.209-0.495-0.693-0.814-1.265-0.814
			c-0.572,0-1.056,0.319-1.265,0.814c-0.121,0.297-0.143,0.462-0.165,0.901h2.86C232.715,269.11,232.693,268.945,232.572,268.648z"
			/>
		<path fill="#BBA595" d="M240.569,272.642c-0.924,0-1.386-0.649-1.386-1.452v-3.322H238.5v-0.605h0.682v-1.694h0.792v1.694h1.155
			v0.605h-1.155v3.3c0,0.495,0.231,0.793,0.737,0.793h0.418v0.682H240.569z"/>
		<path fill="#BBA595" d="M246.641,272.092c-0.374,0.374-0.891,0.616-1.551,0.616s-1.177-0.242-1.551-0.616
			c-0.55-0.562-0.66-1.32-0.66-2.156c0-0.837,0.11-1.596,0.66-2.156c0.374-0.374,0.891-0.616,1.551-0.616s1.177,0.242,1.551,0.616
			c0.55,0.561,0.66,1.319,0.66,2.156C247.301,270.772,247.191,271.53,246.641,272.092z M246.08,268.263
			c-0.253-0.253-0.605-0.396-0.99-0.396c-0.385,0-0.726,0.143-0.979,0.396c-0.396,0.396-0.44,1.067-0.44,1.673
			c0,0.604,0.044,1.275,0.44,1.672c0.253,0.253,0.594,0.396,0.979,0.396c0.385,0,0.737-0.144,0.99-0.396
			c0.396-0.396,0.429-1.067,0.429-1.672C246.509,269.33,246.476,268.659,246.08,268.263z"/>
		<path fill="#BBA595" d="M251.062,272.642c-0.924,0-1.386-0.649-1.386-1.452v-3.322h-0.682v-0.605h0.682v-1.694h0.792v1.694h1.155
			v0.605h-1.155v3.3c0,0.495,0.231,0.793,0.737,0.793h0.418v0.682H251.062z"/>
		<path fill="#BBA595" d="M256.728,272.642v-0.517c-0.44,0.439-0.836,0.583-1.562,0.583c-0.749,0-1.188-0.144-1.529-0.495
			c-0.264-0.265-0.407-0.672-0.407-1.101c0-0.946,0.66-1.562,1.87-1.562h1.628v-0.517c0-0.792-0.396-1.188-1.386-1.188
			c-0.693,0-1.045,0.165-1.364,0.616l-0.539-0.495c0.484-0.627,1.034-0.803,1.915-0.803c1.452,0,2.167,0.627,2.167,1.804v3.675
			H256.728z M256.728,270.145h-1.518c-0.814,0-1.21,0.33-1.21,0.957s0.385,0.924,1.243,0.924c0.462,0,0.869-0.033,1.21-0.363
			c0.187-0.176,0.275-0.483,0.275-0.935V270.145z"/>
		<path fill="#BBA595" d="M261.347,272.642c-0.946,0-1.375-0.616-1.375-1.441v-6.392h0.792v6.358c0,0.528,0.176,0.793,0.726,0.793
			h0.429v0.682H261.347z"/>
		<path fill="#BBA595" d="M270.565,272.642v-3.333c0-0.958-0.517-1.441-1.331-1.441s-1.342,0.495-1.342,1.441v3.333H267.1v-5.413
			h0.792v0.595c0.385-0.44,0.913-0.66,1.518-0.66c0.583,0,1.056,0.176,1.386,0.506c0.385,0.374,0.561,0.88,0.561,1.507v3.466
			H270.565z"/>
		<path fill="#BBA595" d="M277.253,272.642v-0.605c-0.385,0.44-0.924,0.672-1.529,0.672c-0.583,0-1.067-0.177-1.397-0.507
			c-0.385-0.374-0.55-0.891-0.55-1.518v-3.455h0.792v3.334c0,0.957,0.506,1.441,1.32,1.441s1.354-0.495,1.354-1.441v-3.334h0.792
			v5.413H277.253z"/>
		<path fill="#BBA595" d="M287.517,272.642v-3.333c0-0.958-0.517-1.441-1.332-1.441c-0.792,0-1.353,0.495-1.353,1.353v3.422h-0.792
			v-3.333c0-0.958-0.517-1.441-1.332-1.441c-0.814,0-1.353,0.495-1.353,1.441v3.333h-0.792v-5.413h0.792v0.595
			c0.385-0.44,0.924-0.66,1.529-0.66c0.748,0,1.331,0.308,1.661,0.902c0.418-0.595,1.023-0.902,1.782-0.902
			c0.583,0,1.067,0.187,1.397,0.506c0.385,0.374,0.583,0.88,0.583,1.507v3.466H287.517z"/>
		<path fill="#BBA595" d="M294.425,272.234c-0.286,0.286-0.771,0.474-1.32,0.474c-0.594,0-1.089-0.144-1.529-0.716v0.649h-0.792
			v-7.833h0.792v3.047c0.44-0.561,0.935-0.692,1.529-0.692c0.55,0,1.034,0.187,1.32,0.473c0.55,0.55,0.66,1.452,0.66,2.3
			C295.085,270.782,294.975,271.685,294.425,272.234z M292.939,267.867c-1.177,0-1.364,1.012-1.364,2.068
			c0,1.056,0.187,2.068,1.364,2.068s1.353-1.013,1.353-2.068C294.292,268.879,294.117,267.867,292.939,267.867z"/>
		<path fill="#BBA595" d="M297.812,270.145c0,1.188,0.561,1.87,1.595,1.87c0.627,0,0.99-0.188,1.419-0.616l0.539,0.473
			c-0.55,0.551-1.056,0.837-1.98,0.837c-1.43,0-2.366-0.858-2.366-2.772c0-1.75,0.847-2.772,2.223-2.772
			c1.397,0,2.222,1.012,2.222,2.618v0.363H297.812z M300.507,268.648c-0.209-0.495-0.693-0.814-1.265-0.814
			c-0.572,0-1.056,0.319-1.265,0.814c-0.121,0.297-0.143,0.462-0.165,0.901h2.86C300.65,269.11,300.628,268.945,300.507,268.648z"/>
		<path fill="#BBA595" d="M306.722,268.263c-0.297-0.297-0.517-0.396-0.935-0.396c-0.792,0-1.298,0.627-1.298,1.452v3.322h-0.792
			v-5.413h0.792v0.66c0.297-0.451,0.891-0.726,1.518-0.726c0.517,0,0.913,0.121,1.298,0.506L306.722,268.263z"/>
		<path fill="#BBA595" d="M315.644,272.092c-0.374,0.374-0.891,0.616-1.551,0.616s-1.177-0.242-1.551-0.616
			c-0.55-0.562-0.66-1.32-0.66-2.156c0-0.837,0.11-1.596,0.66-2.156c0.374-0.374,0.891-0.616,1.551-0.616s1.177,0.242,1.551,0.616
			c0.55,0.561,0.66,1.319,0.66,2.156C316.304,270.772,316.193,271.53,315.644,272.092z M315.083,268.263
			c-0.253-0.253-0.605-0.396-0.99-0.396c-0.385,0-0.726,0.143-0.979,0.396c-0.396,0.396-0.44,1.067-0.44,1.673
			c0,0.604,0.044,1.275,0.44,1.672c0.253,0.253,0.594,0.396,0.979,0.396c0.385,0,0.737-0.144,0.99-0.396
			c0.396-0.396,0.429-1.067,0.429-1.672C315.511,269.33,315.479,268.659,315.083,268.263z"/>
		<path fill="#BBA595" d="M319.515,267.867v4.774h-0.792v-4.774h-0.693v-0.605h0.693v-1.023c0-0.803,0.451-1.452,1.375-1.452h0.572
			v0.683h-0.429c-0.506,0-0.726,0.297-0.726,0.792v1.001h1.155v0.605H319.515z"/>
		<path fill="#BBA595" d="M329.481,272.234c-0.286,0.286-0.771,0.474-1.32,0.474c-0.594,0-1.089-0.144-1.529-0.704v3.058h-0.792
			v-7.833h0.792v0.639c0.44-0.572,0.935-0.704,1.529-0.704c0.55,0,1.034,0.187,1.32,0.473c0.55,0.55,0.66,1.452,0.66,2.3
			C330.142,270.782,330.031,271.685,329.481,272.234z M327.996,267.867c-1.177,0-1.364,1.012-1.364,2.068
			c0,1.056,0.187,2.068,1.364,2.068s1.353-1.013,1.353-2.068C329.349,268.879,329.173,267.867,327.996,267.867z"/>
		<path fill="#BBA595" d="M335.861,272.092c-0.374,0.374-0.891,0.616-1.551,0.616s-1.177-0.242-1.551-0.616
			c-0.55-0.562-0.66-1.32-0.66-2.156c0-0.837,0.11-1.596,0.66-2.156c0.374-0.374,0.891-0.616,1.551-0.616s1.177,0.242,1.551,0.616
			c0.55,0.561,0.66,1.319,0.66,2.156C336.521,270.772,336.411,271.53,335.861,272.092z M335.3,268.263
			c-0.253-0.253-0.605-0.396-0.99-0.396c-0.385,0-0.726,0.143-0.979,0.396c-0.396,0.396-0.44,1.067-0.44,1.673
			c0,0.604,0.044,1.275,0.44,1.672c0.253,0.253,0.594,0.396,0.979,0.396c0.385,0,0.737-0.144,0.99-0.396
			c0.396-0.396,0.429-1.067,0.429-1.672C335.729,269.33,335.696,268.659,335.3,268.263z"/>
		<path fill="#BBA595" d="M340.47,272.708c-0.913,0-1.628-0.209-2.222-0.781l0.528-0.528c0.429,0.451,1.012,0.627,1.684,0.627
			c0.891,0,1.441-0.319,1.441-0.957c0-0.473-0.275-0.737-0.902-0.792l-0.891-0.077c-1.056-0.088-1.617-0.562-1.617-1.452
			c0-0.99,0.836-1.584,1.991-1.584c0.77,0,1.463,0.187,1.947,0.583l-0.517,0.517c-0.385-0.297-0.88-0.429-1.441-0.429
			c-0.792,0-1.21,0.341-1.21,0.891c0,0.463,0.264,0.737,0.946,0.793l0.869,0.076c0.946,0.089,1.595,0.451,1.595,1.464
			C342.67,272.103,341.779,272.708,340.47,272.708z"/>
		<path fill="#BBA595" d="M346.179,272.642c-0.924,0-1.386-0.649-1.386-1.452v-3.322h-0.682v-0.605h0.682v-1.694h0.792v1.694h1.155
			v0.605h-1.155v3.3c0,0.495,0.231,0.793,0.737,0.793h0.418v0.682H346.179z"/>
		<path fill="#BBA595" d="M350.567,272.708c-0.913,0-1.628-0.209-2.222-0.781l0.528-0.528c0.429,0.451,1.012,0.627,1.684,0.627
			c0.891,0,1.441-0.319,1.441-0.957c0-0.473-0.275-0.737-0.902-0.792l-0.891-0.077c-1.056-0.088-1.617-0.562-1.617-1.452
			c0-0.99,0.836-1.584,1.991-1.584c0.77,0,1.463,0.187,1.947,0.583l-0.517,0.517c-0.385-0.297-0.88-0.429-1.441-0.429
			c-0.792,0-1.21,0.341-1.21,0.891c0,0.463,0.264,0.737,0.946,0.793l0.869,0.076c0.946,0.089,1.595,0.451,1.595,1.464
			C352.768,272.103,351.876,272.708,350.567,272.708z"/>
		<path fill="#BBA595" d="M361.788,272.234c-0.286,0.286-0.771,0.474-1.32,0.474c-0.594,0-1.089-0.144-1.529-0.704v3.058h-0.792
			v-7.833h0.792v0.639c0.44-0.572,0.935-0.704,1.529-0.704c0.55,0,1.034,0.187,1.32,0.473c0.55,0.55,0.66,1.452,0.66,2.3
			C362.448,270.782,362.337,271.685,361.788,272.234z M360.302,267.867c-1.177,0-1.364,1.012-1.364,2.068
			c0,1.056,0.187,2.068,1.364,2.068s1.353-1.013,1.353-2.068C361.655,268.879,361.479,267.867,360.302,267.867z"/>
		<path fill="#BBA595" d="M368.112,272.642v-0.605c-0.385,0.44-0.924,0.672-1.529,0.672c-0.583,0-1.067-0.177-1.397-0.507
			c-0.385-0.374-0.55-0.891-0.55-1.518v-3.455h0.792v3.334c0,0.957,0.506,1.441,1.32,1.441s1.353-0.495,1.353-1.441v-3.334h0.792
			v5.413H368.112z"/>
		<path fill="#BBA595" d="M375.054,272.234c-0.286,0.286-0.771,0.474-1.32,0.474c-0.594,0-1.089-0.144-1.529-0.716v0.649h-0.792
			v-7.833h0.792v3.047c0.44-0.561,0.935-0.692,1.529-0.692c0.55,0,1.034,0.187,1.32,0.473c0.55,0.55,0.66,1.452,0.66,2.3
			C375.714,270.782,375.604,271.685,375.054,272.234z M373.568,267.867c-1.177,0-1.364,1.012-1.364,2.068
			c0,1.056,0.187,2.068,1.364,2.068s1.353-1.013,1.353-2.068C374.921,268.879,374.746,267.867,373.568,267.867z"/>
		<path fill="#BBA595" d="M379.299,272.642c-0.946,0-1.375-0.616-1.375-1.441v-6.392h0.792v6.358c0,0.528,0.176,0.793,0.726,0.793
			h0.429v0.682H379.299z"/>
		<path fill="#BBA595" d="M381.708,265.689v-0.891h0.891v0.891H381.708z M381.752,272.642v-5.413h0.792v5.413H381.752z"/>
		<path fill="#BBA595" d="M386.79,272.708c-0.913,0-1.628-0.209-2.222-0.781l0.527-0.528c0.43,0.451,1.013,0.627,1.684,0.627
			c0.892,0,1.441-0.319,1.441-0.957c0-0.473-0.275-0.737-0.902-0.792l-0.891-0.077c-1.057-0.088-1.617-0.562-1.617-1.452
			c0-0.99,0.836-1.584,1.991-1.584c0.77,0,1.463,0.187,1.947,0.583l-0.518,0.517c-0.385-0.297-0.88-0.429-1.441-0.429
			c-0.792,0-1.21,0.341-1.21,0.891c0,0.463,0.264,0.737,0.946,0.793l0.869,0.076c0.946,0.089,1.595,0.451,1.595,1.464
			C388.99,272.103,388.1,272.708,386.79,272.708z"/>
		<path fill="#BBA595" d="M394.557,272.642v-3.345c0-0.946-0.506-1.43-1.32-1.43s-1.354,0.495-1.354,1.43v3.345h-0.792v-7.833h0.792
			v3.015c0.396-0.451,0.913-0.66,1.519-0.66c1.221,0,1.947,0.781,1.947,2.002v3.477H394.557z"/>
		<path fill="#BBA595" d="M398.307,270.145c0,1.188,0.562,1.87,1.596,1.87c0.627,0,0.99-0.188,1.419-0.616l0.539,0.473
			c-0.55,0.551-1.057,0.837-1.98,0.837c-1.43,0-2.365-0.858-2.365-2.772c0-1.75,0.847-2.772,2.223-2.772
			c1.396,0,2.222,1.012,2.222,2.618v0.363H398.307z M401.002,268.648c-0.209-0.495-0.693-0.814-1.265-0.814
			c-0.572,0-1.057,0.319-1.266,0.814c-0.121,0.297-0.143,0.462-0.165,0.901h2.86C401.146,269.11,401.123,268.945,401.002,268.648z"
			/>
		<path fill="#BBA595" d="M407.415,272.642v-0.649c-0.439,0.572-0.946,0.716-1.54,0.716c-0.55,0-1.034-0.188-1.32-0.474
			c-0.55-0.55-0.66-1.452-0.66-2.299c0-0.848,0.11-1.75,0.66-2.3c0.286-0.286,0.771-0.473,1.32-0.473
			c0.594,0,1.089,0.132,1.529,0.692v-3.047h0.792v7.833H407.415z M406.051,267.867c-1.177,0-1.364,1.012-1.364,2.068
			c0,1.056,0.188,2.068,1.364,2.068c1.178,0,1.354-1.013,1.354-2.068C407.404,268.879,407.229,267.867,406.051,267.867z"/>
		<path fill="#BBA595" d="M417.073,272.642v-0.517c-0.44,0.439-0.836,0.583-1.562,0.583c-0.748,0-1.188-0.144-1.529-0.495
			c-0.264-0.265-0.407-0.672-0.407-1.101c0-0.946,0.66-1.562,1.87-1.562h1.629v-0.517c0-0.792-0.396-1.188-1.387-1.188
			c-0.692,0-1.045,0.165-1.364,0.616l-0.539-0.495c0.484-0.627,1.034-0.803,1.915-0.803c1.452,0,2.167,0.627,2.167,1.804v3.675
			H417.073z M417.073,270.145h-1.519c-0.814,0-1.21,0.33-1.21,0.957s0.385,0.924,1.243,0.924c0.462,0,0.869-0.033,1.21-0.363
			c0.188-0.176,0.275-0.483,0.275-0.935V270.145z"/>
		<path fill="#BBA595" d="M423.805,272.642v-3.333c0-0.958-0.517-1.441-1.331-1.441c-0.813,0-1.342,0.495-1.342,1.441v3.333h-0.792
			v-5.413h0.792v0.595c0.385-0.44,0.913-0.66,1.518-0.66c0.584,0,1.057,0.176,1.387,0.506c0.385,0.374,0.561,0.88,0.561,1.507v3.466
			H423.805z"/>
		<path fill="#BBA595" d="M430.306,272.642v-0.649c-0.439,0.572-0.946,0.716-1.54,0.716c-0.55,0-1.034-0.188-1.32-0.474
			c-0.55-0.55-0.66-1.452-0.66-2.299c0-0.848,0.11-1.75,0.66-2.3c0.286-0.286,0.771-0.473,1.32-0.473
			c0.594,0,1.089,0.132,1.529,0.692v-3.047h0.792v7.833H430.306z M428.941,267.867c-1.177,0-1.364,1.012-1.364,2.068
			c0,1.056,0.188,2.068,1.364,2.068c1.178,0,1.354-1.013,1.354-2.068C430.295,268.879,430.119,267.867,428.941,267.867z"/>
		<path fill="#BBA595" d="M438.401,272.642c-0.924,0-1.386-0.649-1.386-1.452v-3.322h-0.683v-0.605h0.683v-1.694h0.792v1.694h1.155
			v0.605h-1.155v3.3c0,0.495,0.231,0.793,0.737,0.793h0.418v0.682H438.401z"/>
		<path fill="#BBA595" d="M444.551,272.642v-3.345c0-0.946-0.506-1.43-1.32-1.43s-1.354,0.495-1.354,1.43v3.345h-0.792v-7.833h0.792
			v3.015c0.396-0.451,0.913-0.66,1.519-0.66c1.221,0,1.947,0.781,1.947,2.002v3.477H444.551z"/>
		<path fill="#BBA595" d="M448.302,270.145c0,1.188,0.561,1.87,1.595,1.87c0.627,0,0.99-0.188,1.419-0.616l0.539,0.473
			c-0.55,0.551-1.056,0.837-1.979,0.837c-1.431,0-2.366-0.858-2.366-2.772c0-1.75,0.848-2.772,2.223-2.772
			c1.397,0,2.223,1.012,2.223,2.618v0.363H448.302z M450.997,268.648c-0.209-0.495-0.693-0.814-1.266-0.814
			s-1.056,0.319-1.265,0.814c-0.121,0.297-0.144,0.462-0.165,0.901h2.86C451.14,269.11,451.118,268.945,450.997,268.648z"/>
		<path fill="#BBA595" d="M460.919,272.642v-3.333c0-0.958-0.518-1.441-1.331-1.441c-0.814,0-1.343,0.495-1.343,1.441v3.333h-0.792
			v-5.413h0.792v0.595c0.386-0.44,0.913-0.66,1.519-0.66c0.583,0,1.056,0.176,1.386,0.506c0.386,0.374,0.562,0.88,0.562,1.507v3.466
			H460.919z"/>
		<path fill="#BBA595" d="M467.606,272.642v-0.605c-0.385,0.44-0.924,0.672-1.529,0.672c-0.583,0-1.066-0.177-1.396-0.507
			c-0.386-0.374-0.551-0.891-0.551-1.518v-3.455h0.792v3.334c0,0.957,0.507,1.441,1.32,1.441c0.814,0,1.354-0.495,1.354-1.441
			v-3.334h0.792v5.413H467.606z"/>
		<path fill="#BBA595" d="M477.87,272.642v-3.333c0-0.958-0.517-1.441-1.331-1.441c-0.792,0-1.354,0.495-1.354,1.353v3.422h-0.792
			v-3.333c0-0.958-0.517-1.441-1.331-1.441s-1.354,0.495-1.354,1.441v3.333h-0.792v-5.413h0.792v0.595
			c0.386-0.44,0.925-0.66,1.529-0.66c0.748,0,1.331,0.308,1.661,0.902c0.418-0.595,1.023-0.902,1.782-0.902
			c0.583,0,1.067,0.187,1.397,0.506c0.385,0.374,0.583,0.88,0.583,1.507v3.466H477.87z"/>
		<path fill="#BBA595" d="M484.767,272.234c-0.286,0.286-0.771,0.474-1.32,0.474c-0.594,0-1.089-0.144-1.529-0.716v0.649h-0.792
			v-7.833h0.792v3.047c0.44-0.561,0.936-0.692,1.529-0.692c0.55,0,1.034,0.187,1.32,0.473c0.55,0.55,0.66,1.452,0.66,2.3
			C485.427,270.782,485.316,271.685,484.767,272.234z M483.281,267.867c-1.177,0-1.364,1.012-1.364,2.068
			c0,1.056,0.188,2.068,1.364,2.068c1.178,0,1.354-1.013,1.354-2.068C484.635,268.879,484.459,267.867,483.281,267.867z"/>
		<path fill="#BBA595" d="M488.154,270.145c0,1.188,0.561,1.87,1.595,1.87c0.627,0,0.99-0.188,1.419-0.616l0.539,0.473
			c-0.55,0.551-1.056,0.837-1.979,0.837c-1.431,0-2.366-0.858-2.366-2.772c0-1.75,0.848-2.772,2.223-2.772
			c1.397,0,2.223,1.012,2.223,2.618v0.363H488.154z M490.85,268.648c-0.209-0.495-0.693-0.814-1.266-0.814s-1.056,0.319-1.265,0.814
			c-0.121,0.297-0.144,0.462-0.165,0.901h2.86C490.992,269.11,490.971,268.945,490.85,268.648z"/>
		<path fill="#BBA595" d="M497.064,268.263c-0.297-0.297-0.518-0.396-0.936-0.396c-0.792,0-1.298,0.627-1.298,1.452v3.322h-0.792
			v-5.413h0.792v0.66c0.297-0.451,0.891-0.726,1.518-0.726c0.518,0,0.913,0.121,1.299,0.506L497.064,268.263z"/>
		<path fill="#BBA595" d="M505.975,272.092c-0.374,0.374-0.892,0.616-1.552,0.616s-1.177-0.242-1.551-0.616
			c-0.551-0.562-0.66-1.32-0.66-2.156c0-0.837,0.109-1.596,0.66-2.156c0.374-0.374,0.891-0.616,1.551-0.616s1.178,0.242,1.552,0.616
			c0.55,0.561,0.66,1.319,0.66,2.156C506.635,270.772,506.524,271.53,505.975,272.092z M505.413,268.263
			c-0.253-0.253-0.605-0.396-0.99-0.396s-0.726,0.143-0.979,0.396c-0.396,0.396-0.44,1.067-0.44,1.673
			c0,0.604,0.044,1.275,0.44,1.672c0.253,0.253,0.594,0.396,0.979,0.396s0.737-0.144,0.99-0.396
			c0.396-0.396,0.429-1.067,0.429-1.672C505.842,269.33,505.81,268.659,505.413,268.263z"/>
		<path fill="#BBA595" d="M509.835,267.867v4.774h-0.792v-4.774h-0.693v-0.605h0.693v-1.023c0-0.803,0.451-1.452,1.375-1.452h0.572
			v0.683h-0.429c-0.507,0-0.727,0.297-0.727,0.792v1.001h1.155v0.605H509.835z"/>
		<path fill="#BBA595" d="M519.79,272.234c-0.286,0.286-0.771,0.474-1.32,0.474c-0.594,0-1.089-0.144-1.529-0.704v3.058h-0.792
			v-7.833h0.792v0.639c0.44-0.572,0.936-0.704,1.529-0.704c0.55,0,1.034,0.187,1.32,0.473c0.55,0.55,0.66,1.452,0.66,2.3
			C520.45,270.782,520.34,271.685,519.79,272.234z M518.305,267.867c-1.177,0-1.364,1.012-1.364,2.068
			c0,1.056,0.188,2.068,1.364,2.068c1.178,0,1.354-1.013,1.354-2.068C519.658,268.879,519.482,267.867,518.305,267.867z"/>
		<path fill="#BBA595" d="M526.17,272.092c-0.374,0.374-0.891,0.616-1.551,0.616s-1.178-0.242-1.552-0.616
			c-0.55-0.562-0.66-1.32-0.66-2.156c0-0.837,0.11-1.596,0.66-2.156c0.374-0.374,0.892-0.616,1.552-0.616s1.177,0.242,1.551,0.616
			c0.55,0.561,0.66,1.319,0.66,2.156C526.83,270.772,526.72,271.53,526.17,272.092z M525.609,268.263
			c-0.254-0.253-0.605-0.396-0.99-0.396c-0.386,0-0.727,0.143-0.979,0.396c-0.396,0.396-0.44,1.067-0.44,1.673
			c0,0.604,0.044,1.275,0.44,1.672c0.253,0.253,0.594,0.396,0.979,0.396c0.385,0,0.736-0.144,0.99-0.396
			c0.396-0.396,0.429-1.067,0.429-1.672C526.038,269.33,526.005,268.659,525.609,268.263z"/>
		<path fill="#BBA595" d="M530.768,272.708c-0.913,0-1.628-0.209-2.222-0.781l0.527-0.528c0.43,0.451,1.013,0.627,1.684,0.627
			c0.892,0,1.441-0.319,1.441-0.957c0-0.473-0.275-0.737-0.902-0.792l-0.891-0.077c-1.057-0.088-1.617-0.562-1.617-1.452
			c0-0.99,0.836-1.584,1.991-1.584c0.77,0,1.463,0.187,1.947,0.583l-0.518,0.517c-0.385-0.297-0.88-0.429-1.441-0.429
			c-0.792,0-1.21,0.341-1.21,0.891c0,0.463,0.264,0.737,0.946,0.793l0.869,0.076c0.946,0.089,1.595,0.451,1.595,1.464
			C532.968,272.103,532.077,272.708,530.768,272.708z"/>
		<path fill="#BBA595" d="M536.477,272.642c-0.924,0-1.386-0.649-1.386-1.452v-3.322h-0.683v-0.605h0.683v-1.694h0.792v1.694h1.155
			v0.605h-1.155v3.3c0,0.495,0.231,0.793,0.737,0.793h0.418v0.682H536.477z"/>
		<path fill="#BBA595" d="M540.865,272.708c-0.913,0-1.628-0.209-2.222-0.781l0.527-0.528c0.43,0.451,1.013,0.627,1.684,0.627
			c0.892,0,1.441-0.319,1.441-0.957c0-0.473-0.275-0.737-0.902-0.792l-0.891-0.077c-1.057-0.088-1.617-0.562-1.617-1.452
			c0-0.99,0.836-1.584,1.991-1.584c0.77,0,1.463,0.187,1.947,0.583l-0.518,0.517c-0.385-0.297-0.88-0.429-1.441-0.429
			c-0.792,0-1.21,0.341-1.21,0.891c0,0.463,0.264,0.737,0.946,0.793l0.869,0.076c0.946,0.089,1.596,0.451,1.596,1.464
			C543.066,272.103,542.175,272.708,540.865,272.708z"/>
	</g>
	<g>
		<path fill="#BBA595" d="M170.104,281.462c-0.297-0.297-0.517-0.396-0.935-0.396c-0.792,0-1.298,0.627-1.298,1.452v3.322h-0.792
			v-5.413h0.792v0.66c0.297-0.451,0.891-0.726,1.518-0.726c0.517,0,0.913,0.121,1.298,0.506L170.104,281.462z"/>
		<path fill="#BBA595" d="M172.381,283.344c0,1.188,0.561,1.87,1.595,1.87c0.627,0,0.99-0.188,1.419-0.616l0.539,0.473
			c-0.55,0.551-1.056,0.837-1.98,0.837c-1.43,0-2.366-0.858-2.366-2.772c0-1.75,0.847-2.772,2.223-2.772
			c1.397,0,2.222,1.012,2.222,2.618v0.363H172.381z M175.076,281.848c-0.209-0.495-0.693-0.814-1.265-0.814
			c-0.572,0-1.056,0.319-1.265,0.814c-0.121,0.297-0.143,0.462-0.165,0.901h2.86C175.219,282.31,175.197,282.145,175.076,281.848z"
			/>
		<path fill="#BBA595" d="M179.607,285.841c-0.946,0-1.375-0.616-1.375-1.441v-6.392h0.792v6.358c0,0.528,0.176,0.793,0.726,0.793
			h0.429v0.682H179.607z"/>
		<path fill="#BBA595" d="M185.13,285.841v-0.517c-0.44,0.439-0.836,0.583-1.562,0.583c-0.749,0-1.188-0.144-1.529-0.495
			c-0.264-0.265-0.407-0.672-0.407-1.101c0-0.946,0.66-1.562,1.87-1.562h1.628v-0.517c0-0.792-0.396-1.188-1.386-1.188
			c-0.693,0-1.045,0.165-1.364,0.616l-0.539-0.495c0.484-0.627,1.034-0.803,1.915-0.803c1.452,0,2.167,0.627,2.167,1.804v3.675
			H185.13z M185.13,283.344h-1.518c-0.814,0-1.21,0.33-1.21,0.957s0.385,0.924,1.243,0.924c0.462,0,0.869-0.033,1.21-0.363
			c0.187-0.176,0.275-0.483,0.275-0.935V283.344z"/>
		<path fill="#BBA595" d="M189.915,285.841c-0.924,0-1.386-0.649-1.386-1.452v-3.322h-0.682v-0.605h0.682v-1.694h0.792v1.694h1.155
			v0.605h-1.155v3.3c0,0.495,0.231,0.793,0.737,0.793h0.418v0.682H189.915z"/>
		<path fill="#BBA595" d="M192.994,283.344c0,1.188,0.561,1.87,1.595,1.87c0.627,0,0.99-0.188,1.419-0.616l0.539,0.473
			c-0.55,0.551-1.056,0.837-1.98,0.837c-1.43,0-2.366-0.858-2.366-2.772c0-1.75,0.847-2.772,2.223-2.772
			c1.397,0,2.222,1.012,2.222,2.618v0.363H192.994z M195.689,281.848c-0.209-0.495-0.693-0.814-1.265-0.814
			c-0.572,0-1.056,0.319-1.265,0.814c-0.121,0.297-0.143,0.462-0.165,0.901h2.86C195.833,282.31,195.811,282.145,195.689,281.848z"
			/>
		<path fill="#BBA595" d="M202.113,285.841v-0.649c-0.44,0.572-0.946,0.716-1.54,0.716c-0.55,0-1.034-0.188-1.32-0.474
			c-0.55-0.55-0.66-1.452-0.66-2.299c0-0.848,0.11-1.75,0.66-2.3c0.286-0.286,0.77-0.473,1.32-0.473
			c0.594,0,1.089,0.132,1.529,0.692v-3.047h0.792v7.833H202.113z M200.749,281.066c-1.177,0-1.364,1.012-1.364,2.068
			c0,1.056,0.187,2.068,1.364,2.068s1.353-1.013,1.353-2.068C202.102,282.078,201.926,281.066,200.749,281.066z"/>
		<path fill="#BBA595" d="M210.209,285.841c-0.924,0-1.386-0.649-1.386-1.452v-3.322h-0.682v-0.605h0.682v-1.694h0.792v1.694h1.155
			v0.605h-1.155v3.3c0,0.495,0.231,0.793,0.737,0.793h0.418v0.682H210.209z"/>
		<path fill="#BBA595" d="M216.281,285.291c-0.374,0.374-0.891,0.616-1.551,0.616s-1.177-0.242-1.551-0.616
			c-0.55-0.562-0.66-1.32-0.66-2.156c0-0.837,0.11-1.596,0.66-2.156c0.374-0.374,0.891-0.616,1.551-0.616s1.177,0.242,1.551,0.616
			c0.55,0.561,0.66,1.319,0.66,2.156C216.941,283.971,216.831,284.73,216.281,285.291z M215.72,281.462
			c-0.253-0.253-0.605-0.396-0.99-0.396c-0.385,0-0.726,0.143-0.979,0.396c-0.396,0.396-0.44,1.067-0.44,1.673
			c0,0.604,0.044,1.275,0.44,1.672c0.253,0.253,0.594,0.396,0.979,0.396c0.385,0,0.737-0.144,0.99-0.396
			c0.396-0.396,0.429-1.067,0.429-1.672C216.149,282.529,216.116,281.858,215.72,281.462z"/>
		<path fill="#BBA595" d="M223.992,285.841c-0.924,0-1.386-0.649-1.386-1.452v-3.322h-0.682v-0.605h0.682v-1.694h0.792v1.694h1.155
			v0.605h-1.155v3.3c0,0.495,0.231,0.793,0.737,0.793h0.418v0.682H223.992z"/>
		<path fill="#BBA595" d="M230.141,285.841v-3.345c0-0.946-0.506-1.43-1.32-1.43c-0.814,0-1.353,0.495-1.353,1.43v3.345h-0.792
			v-7.833h0.792v3.015c0.396-0.451,0.913-0.66,1.518-0.66c1.221,0,1.947,0.781,1.947,2.002v3.477H230.141z"/>
		<path fill="#BBA595" d="M233.892,283.344c0,1.188,0.561,1.87,1.595,1.87c0.627,0,0.99-0.188,1.419-0.616l0.539,0.473
			c-0.55,0.551-1.056,0.837-1.98,0.837c-1.43,0-2.366-0.858-2.366-2.772c0-1.75,0.847-2.772,2.223-2.772
			c1.397,0,2.222,1.012,2.222,2.618v0.363H233.892z M236.587,281.848c-0.209-0.495-0.693-0.814-1.265-0.814
			c-0.572,0-1.056,0.319-1.265,0.814c-0.121,0.297-0.143,0.462-0.165,0.901h2.86C236.73,282.31,236.708,282.145,236.587,281.848z"/>
		<path fill="#BBA595" d="M244.583,285.841c-0.924,0-1.386-0.649-1.386-1.452v-3.322h-0.682v-0.605h0.682v-1.694h0.792v1.694h1.155
			v0.605h-1.155v3.3c0,0.495,0.231,0.793,0.737,0.793h0.418v0.682H244.583z"/>
		<path fill="#BBA595" d="M250.645,285.291c-0.374,0.374-0.891,0.616-1.551,0.616s-1.177-0.242-1.551-0.616
			c-0.55-0.562-0.66-1.32-0.66-2.156c0-0.837,0.11-1.596,0.66-2.156c0.374-0.374,0.891-0.616,1.551-0.616s1.177,0.242,1.551,0.616
			c0.55,0.561,0.66,1.319,0.66,2.156C251.305,283.971,251.195,284.73,250.645,285.291z M250.084,281.462
			c-0.253-0.253-0.605-0.396-0.99-0.396c-0.385,0-0.726,0.143-0.979,0.396c-0.396,0.396-0.44,1.067-0.44,1.673
			c0,0.604,0.044,1.275,0.44,1.672c0.253,0.253,0.594,0.396,0.979,0.396c0.385,0,0.737-0.144,0.99-0.396
			c0.396-0.396,0.429-1.067,0.429-1.672C250.513,282.529,250.48,281.858,250.084,281.462z"/>
		<path fill="#BBA595" d="M257.19,285.434c-0.286,0.286-0.771,0.474-1.32,0.474c-0.594,0-1.089-0.144-1.529-0.704v3.058h-0.792
			v-7.833h0.792v0.639c0.44-0.572,0.935-0.704,1.529-0.704c0.55,0,1.034,0.187,1.32,0.473c0.55,0.55,0.66,1.452,0.66,2.3
			C257.85,283.982,257.74,284.884,257.19,285.434z M255.705,281.066c-1.177,0-1.364,1.012-1.364,2.068
			c0,1.056,0.187,2.068,1.364,2.068s1.353-1.013,1.353-2.068C257.058,282.078,256.882,281.066,255.705,281.066z"/>
		<path fill="#BBA595" d="M260.049,278.888v-0.891h0.891v0.891H260.049z M260.093,285.841v-5.413h0.792v5.413H260.093z"/>
		<path fill="#BBA595" d="M265.527,285.907c-1.364,0-2.398-0.925-2.398-2.772c0-1.849,1.034-2.772,2.398-2.772
			c0.748,0,1.221,0.197,1.782,0.803l-0.539,0.506c-0.407-0.451-0.726-0.604-1.243-0.604c-0.528,0-0.968,0.209-1.254,0.616
			c-0.253,0.352-0.352,0.77-0.352,1.452c0,0.682,0.099,1.1,0.352,1.452c0.286,0.407,0.726,0.616,1.254,0.616
			c0.517,0,0.836-0.165,1.243-0.616l0.539,0.517C266.749,285.709,266.275,285.907,265.527,285.907z"/>
		<path fill="#BBA595" d="M269.344,285.841v-1.034h1.034v1.034H269.344z"/>
	</g>
</g>
<g>
	<path fill="#262625" d="M311.533,238.841v3.406h4.056v0.884h-4.056v4.082h-0.988v-9.257h5.747v0.885H311.533z"/>
	<path fill="#262625" d="M318.514,238.997v-1.054h1.053v1.054H318.514z M318.566,247.213v-6.396h0.936v6.396H318.566z"/>
	<path fill="#262625" d="M326.6,247.213v-3.939c0-1.131-0.611-1.703-1.573-1.703c-0.962,0-1.586,0.585-1.586,1.703v3.939h-0.936
		v-6.396h0.936v0.702c0.455-0.52,1.079-0.78,1.794-0.78c0.689,0,1.248,0.208,1.638,0.599c0.455,0.441,0.663,1.04,0.663,1.781v4.095
		H326.6z"/>
	<path fill="#262625" d="M334.27,247.213v-0.767c-0.52,0.676-1.118,0.845-1.82,0.845c-0.65,0-1.222-0.221-1.56-0.56
		c-0.65-0.649-0.78-1.716-0.78-2.717s0.13-2.067,0.78-2.717c0.338-0.338,0.91-0.56,1.56-0.56c0.702,0,1.287,0.156,1.807,0.819
		v-3.602h0.936v9.257H334.27z M332.658,241.57c-1.391,0-1.612,1.196-1.612,2.444s0.221,2.444,1.612,2.444
		c1.391,0,1.599-1.196,1.599-2.444S334.049,241.57,332.658,241.57z"/>
	<path fill="#262625" d="M349.168,247.213v-7.033l-2.535,5.577h-0.845l-2.574-5.577v7.033h-0.988v-9.257h0.988l3.016,6.565
		l2.938-6.565h0.988v9.257H349.168z"/>
	<path fill="#262625" d="M357.41,246.563c-0.442,0.442-1.053,0.729-1.833,0.729c-0.78,0-1.391-0.286-1.833-0.729
		c-0.65-0.663-0.78-1.56-0.78-2.548s0.13-1.885,0.78-2.548c0.442-0.442,1.053-0.729,1.833-0.729c0.78,0,1.391,0.286,1.833,0.729
		c0.65,0.663,0.78,1.56,0.78,2.548S358.06,245.899,357.41,246.563z M356.747,242.039c-0.299-0.3-0.715-0.469-1.17-0.469
		s-0.858,0.169-1.157,0.469c-0.468,0.468-0.52,1.261-0.52,1.976s0.052,1.508,0.52,1.977c0.299,0.299,0.702,0.468,1.157,0.468
		s0.871-0.169,1.17-0.468c0.468-0.469,0.507-1.262,0.507-1.977S357.214,242.507,356.747,242.039z"/>
	<path fill="#262625" d="M362.856,247.291c-1.079,0-1.924-0.247-2.626-0.923l0.624-0.624c0.507,0.532,1.196,0.741,1.989,0.741
		c1.053,0,1.703-0.378,1.703-1.132c0-0.559-0.325-0.871-1.066-0.936l-1.053-0.091c-1.248-0.104-1.911-0.663-1.911-1.717
		c0-1.17,0.988-1.872,2.353-1.872c0.91,0,1.729,0.222,2.301,0.689l-0.611,0.611c-0.455-0.352-1.04-0.508-1.703-0.508
		c-0.936,0-1.43,0.403-1.43,1.054c0,0.546,0.312,0.871,1.118,0.936l1.027,0.091c1.118,0.104,1.885,0.533,1.885,1.729
		C365.457,246.576,364.404,247.291,362.856,247.291z"/>
	<path fill="#262625" d="M369.603,247.213c-1.092,0-1.638-0.767-1.638-1.716v-3.927h-0.806v-0.715h0.806v-2.002h0.936v2.002h1.365
		v0.715h-1.365v3.9c0,0.585,0.273,0.937,0.871,0.937h0.494v0.806H369.603z"/>
	<path fill="#262625" d="M382.227,247.213l-0.741-2.093h-4.043l-0.741,2.093h-1.053l3.406-9.257h0.832l3.393,9.257H382.227z
		 M379.483,239.374l-1.742,4.888h3.458L379.483,239.374z"/>
	<path fill="#262625" d="M387.725,247.291c-1.612,0-2.834-1.092-2.834-3.276c0-2.184,1.222-3.276,2.834-3.276
		c0.884,0,1.443,0.234,2.106,0.949l-0.638,0.599c-0.48-0.533-0.857-0.716-1.469-0.716c-0.624,0-1.144,0.247-1.482,0.729
		c-0.299,0.416-0.416,0.91-0.416,1.716c0,0.807,0.117,1.3,0.416,1.716c0.339,0.481,0.858,0.729,1.482,0.729
		c0.611,0,0.988-0.195,1.469-0.729l0.638,0.611C389.168,247.057,388.608,247.291,387.725,247.291z"/>
	<path fill="#262625" d="M394.056,247.213c-1.092,0-1.638-0.767-1.638-1.716v-3.927h-0.807v-0.715h0.807v-2.002h0.936v2.002h1.365
		v0.715h-1.365v3.9c0,0.585,0.273,0.937,0.871,0.937h0.494v0.806H394.056z"/>
	<path fill="#262625" d="M397.176,238.997v-1.054h1.053v1.054H397.176z M397.228,247.213v-6.396h0.936v6.396H397.228z"/>
	<path fill="#262625" d="M403.312,247.213h-0.832l-2.34-6.396h1.014l1.742,5.136l1.755-5.136h1.014L403.312,247.213z"/>
	<path fill="#262625" d="M408.069,244.262c0,1.404,0.663,2.21,1.885,2.21c0.741,0,1.17-0.221,1.678-0.728l0.637,0.559
		c-0.65,0.65-1.248,0.988-2.34,0.988c-1.69,0-2.796-1.015-2.796-3.276c0-2.067,1.001-3.276,2.627-3.276
		c1.65,0,2.626,1.196,2.626,3.095v0.429H408.069z M411.254,242.494c-0.246-0.585-0.818-0.963-1.494-0.963
		c-0.677,0-1.248,0.378-1.495,0.963c-0.144,0.351-0.169,0.546-0.195,1.065h3.38C411.424,243.04,411.397,242.845,411.254,242.494z"/>
	<path fill="#262625" d="M422.148,247.291c-1.872,0-3.225-1.287-3.225-3.133v-6.202h0.988v6.124c0,1.403,0.884,2.327,2.236,2.327
		c1.352,0,2.249-0.924,2.249-2.327v-6.124h0.988v6.202C425.386,246.004,424.021,247.291,422.148,247.291z"/>
	<path fill="#262625" d="M430.429,247.291c-1.079,0-1.924-0.247-2.626-0.923l0.624-0.624c0.507,0.532,1.196,0.741,1.989,0.741
		c1.053,0,1.703-0.378,1.703-1.132c0-0.559-0.325-0.871-1.066-0.936L430,244.327c-1.248-0.104-1.911-0.663-1.911-1.717
		c0-1.17,0.988-1.872,2.354-1.872c0.909,0,1.729,0.222,2.301,0.689l-0.611,0.611c-0.455-0.352-1.04-0.508-1.703-0.508
		c-0.936,0-1.43,0.403-1.43,1.054c0,0.546,0.312,0.871,1.118,0.936l1.026,0.091c1.118,0.104,1.886,0.533,1.886,1.729
		C433.029,246.576,431.976,247.291,430.429,247.291z"/>
	<path fill="#262625" d="M436.097,244.262c0,1.404,0.663,2.21,1.886,2.21c0.741,0,1.17-0.221,1.677-0.728l0.637,0.559
		c-0.649,0.65-1.248,0.988-2.34,0.988c-1.69,0-2.795-1.015-2.795-3.276c0-2.067,1.001-3.276,2.626-3.276
		c1.651,0,2.626,1.196,2.626,3.095v0.429H436.097z M439.282,242.494c-0.247-0.585-0.819-0.963-1.495-0.963s-1.248,0.378-1.495,0.963
		c-0.143,0.351-0.169,0.546-0.195,1.065h3.381C439.451,243.04,439.425,242.845,439.282,242.494z"/>
	<path fill="#262625" d="M446.627,242.039c-0.351-0.352-0.61-0.469-1.104-0.469c-0.937,0-1.534,0.741-1.534,1.717v3.926h-0.937
		v-6.396h0.937v0.78c0.351-0.533,1.053-0.858,1.794-0.858c0.611,0,1.079,0.144,1.534,0.599L446.627,242.039z"/>
	<path fill="#262625" d="M451.06,247.291c-1.079,0-1.924-0.247-2.626-0.923l0.624-0.624c0.507,0.532,1.196,0.741,1.989,0.741
		c1.053,0,1.703-0.378,1.703-1.132c0-0.559-0.325-0.871-1.066-0.936l-1.053-0.091c-1.248-0.104-1.911-0.663-1.911-1.717
		c0-1.17,0.988-1.872,2.354-1.872c0.909,0,1.729,0.222,2.301,0.689l-0.611,0.611c-0.455-0.352-1.04-0.508-1.703-0.508
		c-0.936,0-1.43,0.403-1.43,1.054c0,0.546,0.312,0.871,1.118,0.936l1.026,0.091c1.118,0.104,1.886,0.533,1.886,1.729
		C453.66,246.576,452.606,247.291,451.06,247.291z"/>
</g>
</svg>
