<?xml version="1.0" encoding="utf-8"?>
<!-- Generator: Adobe Illustrator 17.0.0, SVG Export Plug-In . SVG Version: 6.00 Build 0)  -->
<!DOCTYPE svg PUBLIC "-//W3C//DTD SVG 1.1//EN" "http://www.w3.org/Graphics/SVG/1.1/DTD/svg11.dtd">
<svg version="1.1" id="Layer_2" xmlns="http://www.w3.org/2000/svg" xmlns:xlink="http://www.w3.org/1999/xlink" x="0px" y="0px"
	 width="755.5px" height="765.5px" viewBox="-264 30.4 755.5 765.5" style="enable-background:new -264 30.4 755.5 765.5;"
	 xml:space="preserve">
<style type="text/css">
	.st0{fill:#FF934F;}
	.st1{fill:#333332;}
	.st2{fill:none;}
	.st3{fill:#FFFFFF;}
	.st4{font-family:'SourceSansPro-Regular';}
	.st5{font-size:15;}
	.st6{fill:#FFFCE6;}
</style>
<g id="panama">
	<circle class="st0" cx="272.9" cy="155.1" r="44.7"/>
	<g>
		<rect x="272.9" y="139.3" class="st1" width="80.5" height="28.3"/>
		<rect x="282.9" y="144.8" class="st2" width="58.6" height="17.3"/>
		<text transform="matrix(1 0 0 1 282.9131 157.2444)" class="st3 st4 st5">Panama</text>
	</g>
</g>
<g id="dominica">
	<circle class="st0" cx="122.9" cy="74.9" r="44.6"/>
	<g>
		<rect x="122.9" y="59.1" class="st1" width="89.5" height="28.3"/>
		<text transform="matrix(1 0 0 1 132.9351 77.0645)" class="st3 st4 st5">Dominica</text>
	</g>
</g>
<g id="st_x5F_kitts">
	<circle class="st0" cx="-67.3" cy="89.4" r="39.4"/>
	<g>
		<rect x="-67.1" y="73.4" class="st1" width="137.6" height="28.3"/>
		<g>
			<text transform="matrix(1 0 0 1 -57.0609 91.3115)" class="st3 st4 st5">St. Kitts &amp; Nevis</text>
		</g>
	</g>
</g>
<g id="grenada">
	<circle class="st6" cx="14.1" cy="729.5" r="66.3"/>
	<path class="st0" d="M14.1,663.2c-36.6,0-66.3,29.8-66.3,66.3s29.8,66.3,66.3,66.3c36.6,0,66.3-29.8,66.3-66.3
		S50.7,663.2,14.1,663.2z M78.1,736.1c-0.2,1.8-0.5,3.5-0.8,5.3L35.9,700l-1.4,1.4l42.3,42.2c-0.4,1.6-0.8,3.2-1.3,4.8l-31.9-32
		l-1.4,1.4l32.6,32.7c-0.5,1.5-1.1,3-1.7,4.4l-47.1-47.2l-1.4,1.4L72.3,757c-0.6,1.3-1.3,2.7-2.1,4l-35.5-35.5l-1.4,1.4l35.9,35.9
		c-0.8,1.3-1.6,2.5-2.5,3.7L6.4,706.3L5,707.7l60.5,60.4c-0.9,1.2-1.8,2.3-2.7,3.4l-89.5-89.4l-1.4,1.4L61.5,773
		c-1,1.1-2,2.1-3.1,3.1L9.3,727.1l-1.4,1.4l49.1,49.1c-1.1,1-2.2,1.9-3.3,2.8l-33.9-33.9l-1.4,1.4L52,781.5
		c-1.2,0.9-2.4,1.7-3.6,2.5l-23.5-23.6l-1.4,1.4L46.6,785c-1.3,0.8-2.6,1.5-3.9,2.1L6.2,750.9l-1.4,1.4l35.9,35.8
		c-1.4,0.6-2.8,1.2-4.3,1.8l-42.9-42.9l-1.4,1.4l42.3,42.3c-1.6,0.5-3.2,1-4.9,1.4l-51.2-51.3l-1.4,1.4l50.3,50.5
		c-1.7,0.4-3.5,0.6-5.3,0.9L0.3,771.8l-1.4,1.4l20.4,20.4c-1.7,0.1-3.5,0.2-5.2,0.2c-0.2,0-0.4,0-0.5,0l-25.2-25.1l-1.4,1.4
		l23.7,23.6c-2.3-0.1-4.6-0.4-6.8-0.7l-8.5-8.5l-1.4,1.4l6.5,6.5c-3-0.7-5.9-1.5-8.8-2.6l-22.1-21.9l-1.4,1.4l18.5,18.4
		c-13.4-6.3-24.2-17.2-30.6-30.5l0.5,0.5l1.4-1.4l-4-4c-1.1-2.9-2-5.8-2.6-8.9l26.5,26.5l1.4-1.4l-28.6-28.5
		c-0.4-2.2-0.6-4.5-0.7-6.8l24.5,24.5l1.4-1.4l-26-26c0-0.2,0-0.5,0-0.7c0-1.8,0.1-3.5,0.2-5.2l33.7,33.7l1.4-1.4l-34.8-34.8
		c0.2-1.8,0.5-3.6,0.9-5.4l20.4,20.3l1.4-1.4l-21.3-21.2c0.4-1.6,0.8-3.1,1.4-4.7l30.3,30.3l1.4-1.4l-31-31c0.5-1.5,1.2-2.9,1.8-4.3
		l38.5,38.5l1.4-1.4l-39-39c0.7-1.4,1.4-2.7,2.1-4l29.6,29.6l8.8,8.8l1.4-1.4l-8.8-8.8l-29.9-29.9c0.8-1.3,1.6-2.5,2.5-3.7L2,731.5
		l1.4-1.4l-40-40.1c0.9-1.1,1.8-2.2,2.7-3.3L-5,715.6l1.4-1.4l-28.9-28.9c2.5-2.6,5.1-5,8-7.1l10.9,10.9l1.4-1.4L-22.9,677
		c1.2-0.9,2.5-1.7,3.8-2.5l36.8,37l1.4-1.4l-36.4-36.6c1.3-0.7,2.6-1.4,3.9-2l26.8,26.8l1.4-1.4l-26.3-26.3c1.4-0.6,2.9-1.2,4.4-1.7
		l32.4,32.4l1.4-1.4l-31.7-31.7c1.6-0.5,3.2-0.9,4.8-1.3l24.8,24.8l1.4-1.4L2.3,666.3c1.8-0.3,3.7-0.6,5.5-0.8l28.7,28.9l1.4-1.4
		l-27.5-27.7c1.2-0.1,2.5-0.1,3.7-0.1c0.8,0,1.5,0,2.3,0.1L30.9,680l1.4-1.4l-13-13.1c2.3,0.2,4.7,0.5,6.9,0.9l18.9,18.9l1.4-1.4
		L30,667.2c3.3,0.8,6.5,1.9,9.5,3.2l5.9,5.9l1.3-1.3l-2.3-2.3c11.2,6,20.4,15.1,26.4,26.3l-12.7-12.6l-1.4,1.4l16.6,16.5
		c1.3,3,2.3,6,3.1,9.2l-17.6-17.6l-1.4,1.4l19.8,19.8c0.5,2.3,0.8,4.7,1,7.2l-32.6-32.5l-1.4,1.4l34.1,34.1l0,0
		c0,0.8,0.1,1.5,0.1,2.3c0,1.3-0.1,2.6-0.1,3.9l-27.2-27.2l-1.4,1.4L78.1,736.1z"/>
	<g>
		<rect x="17.4" y="715.4" class="st1" width="82.5" height="28.3"/>
		<rect x="27.4" y="720.9" class="st2" width="58.6" height="17.3"/>
		<text transform="matrix(1 0 0 1 27.4431 733.3515)" class="st3 st4 st5">Grenada</text>
	</g>
</g>
<g id="antigua">
	<circle class="st6" cx="334.5" cy="486.1" r="54.1"/>
	<path class="st0" d="M334.5,432.1c-29.8,0-54.1,24.3-54.1,54.1c0,29.8,24.3,54.1,54.1,54.1c29.8,0,54.1-24.3,54.1-54.1
		C388.6,456.3,364.3,432.1,334.5,432.1z M386.7,491.5c-0.1,1.5-0.4,2.9-0.6,4.3l-33.8-33.7l-1.2,1.2l34.5,34.4
		c-0.3,1.3-0.6,2.6-1,3.9l-26-26.1l-1.2,1.2l26.6,26.7c-0.4,1.2-0.9,2.4-1.4,3.6l-38.4-38.5l-1.2,1.2l38.8,38.9
		c-0.5,1.1-1.1,2.2-1.7,3.2l-29-29l-1.2,1.2l29.3,29.3c-0.6,1-1.3,2-2,3l-49.2-49.1l-1.2,1.2l49.4,49.3c-0.7,0.9-1.5,1.9-2.2,2.7
		l-73-72.9l-1.2,1.2l73.1,73c-0.8,0.9-1.7,1.7-2.5,2.6l-40-40l-1.2,1.2l40,40c-0.9,0.8-1.8,1.5-2.7,2.3L339,499.9l-1.2,1.2
		l27.5,27.5c-1,0.7-1.9,1.4-3,2l-19.2-19.3l-1.2,1.1l18.9,19c-1,0.6-2.1,1.2-3.2,1.7l-29.7-29.6l-1.2,1.2l29.3,29.2
		c-1.1,0.5-2.3,1-3.5,1.5l-35-35l-1.2,1.2l34.5,34.5c-1.3,0.4-2.6,0.8-4,1.2l-41.7-41.9l-1.2,1.2l41,41.2c-1.4,0.3-2.9,0.5-4.3,0.7
		l-17.6-17.6l-1.2,1.2l16.7,16.7c-1.4,0.1-2.8,0.2-4.3,0.2c-0.1,0-0.3,0-0.4,0l-20.6-20.5l-1.1,1.2l19.4,19.3
		c-1.9-0.1-3.7-0.3-5.5-0.6l-7-7l-1.2,1.2l5.3,5.3c-2.4-0.5-4.8-1.2-7.1-2.1l-18-17.9l-1.1,1.2l15.1,15c-10.9-5.2-19.8-14-25-24.9
		l0.4,0.4l1.2-1.2l-3.2-3.2c-0.9-2.3-1.6-4.8-2.2-7.3l21.6,21.6l1.2-1.2l-23.3-23.3c-0.3-1.8-0.5-3.6-0.6-5.5l20,20l1.1-1.1
		L282,486.7c0-0.2,0-0.4,0-0.6c0-1.4,0.1-2.9,0.2-4.3l27.5,27.5l1.2-1.2l-28.4-28.4c0.2-1.5,0.4-2.9,0.7-4.4l16.6,16.6l1.2-1.2
		l-17.3-17.3c0.3-1.3,0.7-2.6,1.1-3.8l24.7,24.7l1.2-1.2L285.3,468c0.4-1.2,0.9-2.4,1.5-3.5l31.4,31.4l1.2-1.2l-31.8-31.8
		c0.5-1.1,1.1-2.2,1.8-3.2l24.1,24.1l7.2,7.2l1.2-1.2l-7.2-7.2l-24.4-24.4c0.7-1,1.3-2,2.1-3l32.4,32.5l1.2-1.2l-32.6-32.7
		c0.7-0.9,1.5-1.8,2.2-2.7l23.5,23.5l1.2-1.2l-23.5-23.6c2-2.1,4.2-4.1,6.5-5.8l8.9,8.9l1.2-1.2l-8.7-8.7c1-0.7,2-1.4,3.1-2l30,30.1
		l1.2-1.2l-29.7-29.8c1-0.6,2.1-1.1,3.2-1.7l21.9,21.9l1.2-1.2L313.6,438c1.2-0.5,2.4-1,3.6-1.4l26.4,26.4l1.2-1.2L319,436.1
		c1.3-0.4,2.6-0.8,3.9-1.1l20.2,20.2l1.2-1.2l-19.4-19.4c1.5-0.3,3-0.5,4.5-0.6l23.4,23.6l1.2-1.1l-22.4-22.6c1-0.1,2-0.1,3-0.1
		c0.6,0,1.2,0,1.9,0l11.9,12l1.2-1.1l-10.6-10.7c1.9,0.2,3.8,0.4,5.7,0.8l15.4,15.4l1.2-1.2l-13.6-13.6c2.7,0.7,5.3,1.6,7.8,2.6
		l4.8,4.8l1-1l-1.9-1.9c9.1,4.9,16.6,12.3,21.5,21.4L370.3,451l-1.1,1.1l13.5,13.5c1,2.4,1.9,4.9,2.6,7.5L371,458.7l-1.2,1.2
		l16.1,16.2c0.4,1.9,0.6,3.9,0.8,5.8l-26.6-26.5l-1.2,1.2l27.8,27.8l0,0c0,0.6,0,1.3,0,1.9c0,1.1,0,2.1-0.1,3.2l-22.1-22.1l-1.2,1.2
		L386.7,491.5z"/>
	<g>
		<rect x="334.5" y="472" class="st1" width="157" height="28.3"/>
		<text transform="matrix(1 0 0 1 344.4791 489.9505)" class="st3 st4 st5">Antigua &amp; Barbuda</text>
	</g>
</g>
<g id="st_x5F_vincent">
	<circle class="st6" cx="214.6" cy="652.6" r="57.4"/>
	<path class="st0" d="M214.6,595.2c-31.7,0-57.4,25.8-57.4,57.4c0,31.7,25.8,57.4,57.4,57.4c31.7,0,57.4-25.8,57.4-57.4
		C272,620.9,246.2,595.2,214.6,595.2z M270,658.2c-0.2,1.5-0.4,3.1-0.7,4.6L233.5,627l-1.2,1.2l36.7,36.6c-0.3,1.4-0.7,2.8-1.1,4.2
		l-27.7-27.7l-1.2,1.2l28.3,28.3c-0.5,1.3-0.9,2.6-1.5,3.8l-40.7-40.8l-1.2,1.2l41.2,41.3c-0.6,1.2-1.1,2.3-1.8,3.4L232.4,649
		l-1.2,1.2l31.1,31.1c-0.7,1.1-1.4,2.2-2.1,3.2l-52.2-52.1l-1.2,1.2l52.4,52.3c-0.8,1-1.5,2-2.4,2.9l-77.5-77.4l-1.2,1.2l77.6,77.5
		c-0.9,0.9-1.8,1.8-2.7,2.7l-42.5-42.5l-1.2,1.2l42.5,42.5c-0.9,0.8-1.9,1.6-2.9,2.4l-29.4-29.4l-1.2,1.2l29.2,29.2
		c-1,0.7-2.1,1.5-3.1,2.1l-20.3-20.5l-1.2,1.2l20.1,20.2c-1.1,0.6-2.2,1.3-3.4,1.8L207.7,671l-1.2,1.2l31.1,31
		c-1.2,0.6-2.4,1.1-3.7,1.5l-37.2-37.2l-1.2,1.2l36.6,36.6c-1.4,0.5-2.8,0.9-4.2,1.2l-44.3-44.5l-1.2,1.2l43.6,43.7
		c-1.5,0.3-3,0.6-4.6,0.7l-18.7-18.7l-1.2,1.2l17.7,17.7c-1.5,0.1-3,0.2-4.5,0.2c-0.2,0-0.3,0-0.5,0l-21.9-21.7l-1.2,1.2l20.6,20.4
		c-2-0.1-4-0.3-5.9-0.6l-7.4-7.4l-1.2,1.2l5.6,5.6c-2.6-0.6-5.1-1.3-7.6-2.2l-19.1-19l-1.2,1.2l16,16c-11.6-5.5-21-14.9-26.5-26.4
		l0.4,0.4l1.2-1.2l-3.4-3.4c-0.9-2.5-1.7-5.1-2.3-7.7l22.9,22.9l1.2-1.2l-24.7-24.7c-0.3-1.9-0.5-3.9-0.6-5.9l21.2,21.2l1.2-1.2
		l-22.5-22.5c0-0.2,0-0.4,0-0.6c0-1.5,0.1-3,0.2-4.5l29.2,29.2l1.2-1.2l-30.2-30.2c0.2-1.6,0.4-3.1,0.8-4.6l17.6,17.6l1.2-1.2
		l-18.4-18.3c0.3-1.4,0.7-2.7,1.2-4l26.2,26.2l1.2-1.2l-26.8-26.8c0.5-1.3,1-2.5,1.6-3.7l33.4,33.4l1.2-1.2l-33.8-33.8
		c0.6-1.2,1.2-2.3,1.9-3.4l25.6,25.6l7.6,7.6l1.2-1.2l-7.6-7.6L167.4,623c0.7-1.1,1.4-2.2,2.2-3.2l34.4,34.5l1.2-1.2l-34.6-34.7
		c0.8-1,1.5-1.9,2.4-2.8l25,25l1.2-1.2l-25-25c2.1-2.2,4.4-4.3,6.9-6.2l9.5,9.5l1.2-1.2l-9.3-9.3c1.1-0.8,2.2-1.5,3.3-2.2l31.9,32
		l1.2-1.2L187.4,604c1.1-0.6,2.2-1.2,3.4-1.8l23.2,23.2l1.2-1.2l-22.7-22.7c1.2-0.5,2.5-1,3.8-1.5l28.1,28.1l1.2-1.2l-27.5-27.5
		c1.4-0.4,2.8-0.8,4.2-1.1l21.5,21.5l1.2-1.2l-20.6-20.6c1.6-0.3,3.2-0.5,4.8-0.7l24.9,25l1.2-1.2l-23.8-24c1.1-0.1,2.1-0.1,3.2-0.1
		c0.7,0,1.3,0,2,0.1l12.6,12.7l1.2-1.2l-11.2-11.3c2,0.2,4,0.4,6,0.8l16.4,16.4l1.2-1.2l-14.5-14.5c2.8,0.7,5.6,1.7,8.2,2.8l5.1,5.1
		l1.1-1.1l-2-2c9.7,5.2,17.6,13.1,22.8,22.7l-11-10.9l-1.2,1.2l14.3,14.3c1.1,2.6,2,5.2,2.7,8l-15.2-15.2l-1.2,1.2l17.1,17.2
		c0.4,2,0.7,4.1,0.8,6.2l-28.2-28.2l-1.2,1.2l29.6,29.5l0,0c0,0.7,0.1,1.3,0.1,2c0,1.1,0,2.3-0.1,3.4l-23.5-23.5l-1.2,1.2L270,658.2
		z"/>
	<g>
		<rect x="214.6" y="638.4" class="st1" width="228.5" height="28.3"/>
		<text transform="matrix(1 0 0 1 224.5691 656.3935)" class="st3 st4 st5">St. Vincent &amp; the Grenadines</text>
	</g>
</g>
<g id="haiti">
	<circle class="st6" cx="341.5" cy="314.3" r="51.4"/>
	<path class="st0" d="M341.5,263c-28.3,0-51.4,23-51.4,51.4s23,51.4,51.4,51.4c28.3,0,51.4-23,51.4-51.4S369.8,263,341.5,263z
		 M391.1,319.4c-0.1,1.4-0.3,2.7-0.6,4.1l-32.1-32l-1.1,1.1l32.8,32.7c-0.3,1.3-0.6,2.5-1,3.7l-24.7-24.8l-1.1,1.1l25.3,25.4
		c-0.4,1.2-0.8,2.3-1.3,3.4l-36.4-36.5l-1.1,1.1l36.9,36.9c-0.5,1-1,2.1-1.6,3.1l-27.5-27.5l-1.1,1.1l27.8,27.8
		c-0.6,1-1.2,1.9-1.9,2.9l-46.7-46.6l-1.1,1.1l46.9,46.8c-0.7,0.9-1.4,1.8-2.1,2.6l-69.3-69.2l-1.1,1.1l69.4,69.3
		c-0.8,0.8-1.6,1.7-2.4,2.4l-38-38l-1.1,1.1l38,38c-0.8,0.7-1.7,1.5-2.6,2.2l-26.3-26.3l-1.1,1.1l26.1,26.1
		c-0.9,0.7-1.8,1.3-2.8,1.9l-18.2-18.3l-1.1,1.1l17.9,18c-1,0.6-2,1.1-3,1.6l-28.2-28.1l-1.1,1.1l27.8,27.7c-1.1,0.5-2.2,1-3.3,1.4
		l-33.3-33.3l-1.1,1.1l32.7,32.7c-1.2,0.4-2.5,0.8-3.8,1.1l-39.6-39.8l-1.1,1.1l39,39.1c-1.3,0.3-2.7,0.5-4.1,0.7l-16.7-16.7
		l-1.1,1.1l15.8,15.8c-1.3,0.1-2.7,0.2-4.1,0.2c-0.1,0-0.3,0-0.4,0l-19.6-19.4l-1.1,1.1l18.4,18.3c-1.8-0.1-3.5-0.3-5.3-0.6
		l-6.6-6.6l-1.1,1.1l5,5c-2.3-0.5-4.6-1.2-6.8-2L307,344l-1.1,1.1l14.4,14.3c-10.4-4.9-18.8-13.3-23.7-23.6l0.4,0.4l1.1-1.1
		l-3.1-3.1c-0.8-2.2-1.5-4.5-2-6.9l20.5,20.5l1.1-1.1l-22.1-22.1c-0.3-1.7-0.5-3.5-0.6-5.2l19,19l1.1-1.1l-20.1-20.1
		c0-0.2,0-0.4,0-0.6c0-1.4,0.1-2.7,0.2-4.1l26.1,26.1l1.1-1.1l-27-27c0.2-1.4,0.4-2.8,0.7-4.1l15.8,15.7l1.1-1.1l-16.5-16.4
		c0.3-1.2,0.7-2.4,1-3.6l23.5,23.5l1.1-1.1l-24-24c0.4-1.1,0.9-2.3,1.4-3.3l29.8,29.8l1.1-1.1l-30.2-30.2c0.5-1,1.1-2.1,1.7-3.1
		l22.9,22.9l6.8,6.8l1.1-1.1l-6.8-6.8l-23.2-23.2c0.6-1,1.3-1.9,2-2.9l30.8,30.9l1.1-1.1l-30.9-31c0.7-0.9,1.4-1.7,2.1-2.5
		l22.3,22.3l1.1-1.1l-22.4-22.4c1.9-2,4-3.8,6.2-5.5l8.5,8.5l1.1-1.1l-8.3-8.3c1-0.7,1.9-1.3,2.9-1.9l28.5,28.6l1.1-1.1l-28.2-28.3
		c1-0.6,2-1.1,3-1.6l20.8,20.8l1.1-1.1l-20.3-20.3c1.1-0.5,2.3-0.9,3.4-1.3l25.1,25.1l1.1-1.1l-24.6-24.6c1.2-0.4,2.5-0.7,3.7-1
		l19.2,19.2l1.1-1.1l-18.5-18.5c1.4-0.3,2.8-0.5,4.3-0.6l22.3,22.4l1.1-1.1l-21.3-21.5c1-0.1,1.9-0.1,2.9-0.1c0.6,0,1.2,0,1.8,0
		l11.3,11.4l1.1-1.1l-10-10.1c1.8,0.1,3.6,0.4,5.4,0.7l14.7,14.7l1.1-1.1l-12.9-12.9c2.5,0.6,5,1.5,7.4,2.5l4.6,4.6l1-1l-1.8-1.8
		c8.6,4.6,15.8,11.7,20.4,20.3l-9.8-9.8l-1.1,1.1l12.8,12.8c1,2.3,1.8,4.7,2.4,7.1l-13.6-13.6l-1.1,1.1l15.3,15.4
		c0.4,1.8,0.6,3.7,0.8,5.6l-25.3-25.2l-1.1,1.1l26.4,26.4l0,0c0,0.6,0,1.2,0,1.8c0,1,0,2-0.1,3l-21-21l-1.1,1.1L391.1,319.4z"/>
	<g>
		<rect x="340.8" y="300.2" class="st1" width="58.3" height="28.3"/>
		<text transform="matrix(1 0 0 1 350.8481 318.1388)" class="st3 st4 st5">Haiti</text>
	</g>
</g>
<g id="argentina">
	<circle class="st0" cx="9.3" cy="360" r="6.6"/>
	<g>
		<rect x="9.3" y="344.2" class="st1" width="94.5" height="28.3"/>
		<text transform="matrix(1 0 0 1 19.2889 362.1661)" class="st3 st4 st5">Argentina</text>
	</g>
</g>
<g id="tobago">
	<circle class="st0" cx="58" cy="491" r="12.3"/>
	<g>
		<rect x="58" y="476.9" class="st1" width="108.1" height="28.3"/>
		<g>
			<text transform="matrix(1 0 0 1 68.0222 494.8397)" class="st3 st4 st5">T. &amp; Tobago</text>
		</g>
	</g>
</g>
<g id="nicaragua">
	<circle class="st0" cx="47.9" cy="589.7" r="26"/>
	<g>
		<rect x="46.3" y="575.5" class="st1" width="94.7" height="28.3"/>
		<g>
			<text transform="matrix(1 0 0 1 56.3069 593.4527)" class="st3 st4 st5">Nicaragua</text>
		</g>
	</g>
</g>
<g id="bahamas">
	<circle class="st0" cx="-172.7" cy="521.6" r="31.1"/>
	<g>
		<rect x="-169.6" y="507.5" class="st1" width="88.3" height="28.3"/>
		<g>
			<text transform="matrix(1 0 0 1 -159.5605 525.4434)" class="st3 st4 st5">Bahamas</text>
		</g>
	</g>
</g>
<g id="st_x5F_lucia">
	<circle class="st0" cx="-228.6" cy="412.3" r="32.6"/>
	<g>
		<rect x="-228.6" y="398.1" class="st1" width="88.3" height="28.3"/>
		<g>
			<text transform="matrix(1 0 0 1 -218.5638 416.0927)" class="st3 st4 st5">St. Lucia</text>
		</g>
	</g>
</g>
<g id="barbados">
	<circle class="st0" cx="-181.3" cy="173.2" r="33.1"/>
	<g>
		<rect x="-171.9" y="159" class="st1" width="89.9" height="28.3"/>
		<g>
			<text transform="matrix(1 0 0 1 -161.8972 176.9872)" class="st3 st4 st5">Barbados</text>
		</g>
	</g>
</g>
<g id="canada">
	<circle class="st0" cx="9.5" cy="271.8" r="10.4"/>
	<g>
		<rect x="9.3" y="257.6" class="st1" width="76.9" height="28.3"/>
		<text transform="matrix(1 0 0 1 19.2889 275.6002)" class="st3 st4 st5">Canada</text>
	</g>
</g>
<g id="mexico">
	<circle class="st0" cx="80" cy="302" r="11.5"/>
	<g>
		<rect x="82.7" y="287.9" class="st1" width="72.7" height="28.3"/>
		<rect x="92.7" y="293.4" class="st2" width="73" height="17.3"/>
		<text transform="matrix(1 0 0 1 92.6599 305.8461)" class="st3 st4 st5">Mexico</text>
	</g>
</g>
<g id="bolivia">
	<circle class="st0" cx="103.8" cy="439" r="11.5"/>
	<g>
		<rect x="103.8" y="424.8" class="st1" width="72.7" height="28.3"/>
		<rect x="113.8" y="430.3" class="st2" width="73" height="17.3"/>
		<g>
			<text transform="matrix(1 0 0 1 113.7854 442.759)" class="st3 st4 st5">Bolivia</text>
		</g>
	</g>
</g>
<g id="ecuador">
	<circle class="st0" cx="119.9" cy="378.8" r="11.5"/>
	<g>
		<rect x="124.2" y="364.7" class="st1" width="83" height="28.3"/>
		<rect x="134.2" y="370.2" class="st2" width="73" height="17.3"/>
		<g>
			<text transform="matrix(1 0 0 1 134.1879 382.6247)" class="st3 st4 st5">Ecuador</text>
		</g>
	</g>
</g>
<g id="suriname">
	<circle class="st0" cx="-54.6" cy="319.8" r="10.4"/>
	<g>
		<rect x="-54.6" y="305.6" class="st1" width="92.8" height="28.3"/>
		<rect x="-42.8" y="311.1" class="st2" width="73" height="17.3"/>
		<g>
			<text transform="matrix(1 0 0 1 -44.604 323.5647)" class="st3 st4 st5">Suriname</text>
		</g>
	</g>
</g>
<g id="uruguay">
	<circle class="st0" cx="-136.8" cy="295.8" r="14"/>
	<g>
		<rect x="-138.1" y="281.1" class="st1" width="84.9" height="28.3"/>
		<rect x="-126.3" y="286.6" class="st2" width="73" height="17.3"/>
		<g>
			<text transform="matrix(1 0 0 1 -129.1321 299.5825)" class="st3 st4 st5">Uruguay</text>
		</g>
	</g>
</g>
<g id="costa_x5F_rica">
	<circle class="st0" cx="-108.1" cy="229.6" r="15.4"/>
	<g>
		<rect x="-107.4" y="215.4" class="st1" width="96.9" height="28.3"/>
		<rect x="-95.6" y="220.9" class="st2" width="73" height="17.3"/>
		<g>
			<text transform="matrix(1 0 0 1 -98.4195 233.363)" class="st3 st4 st5">Costa Rica</text>
		</g>
	</g>
</g>
<g id="guatemala">
	<circle class="st0" cx="160.9" cy="256.8" r="19.1"/>
	<g>
		<rect x="161.2" y="242.6" class="st1" width="98.9" height="28.3"/>
		<rect x="173" y="248.1" class="st2" width="73" height="17.3"/>
		<g>
			<text transform="matrix(1 0 0 1 170.213 260.5665)" class="st3 st4 st5">Guatemala</text>
		</g>
	</g>
</g>
<g id="belize">
	<circle class="st0" cx="209" cy="423.2" r="21.8"/>
	<g>
		<rect x="209" y="408.2" class="st1" width="65" height="28.3"/>
		<g>
			<text transform="matrix(1 0 0 1 218.0204 426.1222)" class="st3 st4 st5">Belize</text>
		</g>
	</g>
</g>
<g id="salvador">
	<circle class="st0" cx="165.7" cy="537.9" r="23.6"/>
	<g>
		<rect x="165.7" y="523.8" class="st1" width="84.3" height="28.3"/>
		<g>
			<text transform="matrix(1 0 0 1 174.7094 541.7301)" class="st3 st4 st5">Salvador</text>
		</g>
	</g>
</g>
<g id="guyana">
	<circle class="st0" cx="100.4" cy="208.6" r="19.1"/>
	<g>
		<rect x="100.4" y="194.5" class="st1" width="74.5" height="28.3"/>
		<rect x="112.2" y="200" class="st2" width="73" height="17.3"/>
		<g>
			<text transform="matrix(1 0 0 1 109.3849 212.4233)" class="st3 st4 st5">Guyana</text>
		</g>
	</g>
</g>
<g id="colombia">
	<circle class="st0" cx="-129.8" cy="431.8" r="12.3"/>
	<g>
		<rect x="-128.9" y="417.6" class="st1" width="92.8" height="28.3"/>
		<g>
			<text transform="matrix(1 0 0 1 -118.9308 435.6006)" class="st3 st4 st5">Colombia</text>
		</g>
	</g>
</g>
<g id="brazil">
	<circle class="st0" cx="36.3" cy="398.5" r="8.1"/>
	<g>
		<rect x="36.9" y="384.4" class="st1" width="65.3" height="28.3"/>
		<text transform="matrix(1 0 0 1 46.85 402.3117)" class="st3 st4 st5">Brazil</text>
	</g>
</g>
<g id="chile">
	<circle class="st0" cx="-20.6" cy="418.2" r="9.3"/>
	<g>
		<rect x="-20.5" y="404.4" class="st1" width="59.6" height="28.3"/>
		<text transform="matrix(1 0 0 1 -10.5273 422.3196)" class="st3 st4 st5">Chile</text>
	</g>
</g>
<g id="peru">
	<circle class="st0" cx="-13.6" cy="500.5" r="12.3"/>
	<g>
		<rect x="-13.9" y="486.4" class="st1" width="57.2" height="28.3"/>
		<text transform="matrix(1 0 0 1 -3.8519 504.3253)" class="st3 st4 st5">Peru</text>
	</g>
</g>
<g id="cuba">
	<circle class="st0" cx="-66.6" cy="578.9" r="27.6"/>
	<g>
		<rect x="-66.1" y="564.8" class="st1" width="59.1" height="28.3"/>
		<text transform="matrix(1 0 0 1 -56.1476 582.7148)" class="st3 st4 st5">Cuba</text>
	</g>
</g>
<g id="usa">
	<circle class="st0" cx="-58" cy="377" r="10.4"/>
	<g>
		<rect x="-58" y="362.9" class="st1" width="52.5" height="28.3"/>
		<text transform="matrix(1 0 0 1 -48.0044 380.8352)" class="st3 st4 st5">USA</text>
	</g>
</g>
<g id="jamaica">
	<circle class="st0" cx="-231.4" cy="284.9" r="32.6"/>
	<g>
		<rect x="-228.6" y="270.7" class="st1" width="81.2" height="28.3"/>
		<g>
			<text transform="matrix(1 0 0 1 -218.5638 288.6652)" class="st3 st4 st5">Jamaica</text>
		</g>
	</g>
</g>
<g id="honduras">
	<circle class="st0" cx="-0.9" cy="188.8" r="18.1"/>
	<g>
		<rect x="2" y="174.6" class="st1" width="92" height="28.3"/>
		<rect x="13.9" y="180.1" class="st2" width="73" height="17.3"/>
		<g>
			<text transform="matrix(1 0 0 1 11.0264 192.5579)" class="st3 st4 st5">Honduras</text>
		</g>
	</g>
</g>
<g id="dom_x5F_rep">
	<circle class="st0" cx="206.2" cy="330.1" r="19.1"/>
	<g>
		<rect x="209" y="316" class="st1" width="94.5" height="28.3"/>
		<g>
			<text transform="matrix(1 0 0 1 218.0204 333.9446)" class="st3 st4 st5">Dom. Rep.</text>
		</g>
	</g>
</g>
<g id="paraguay">
	<circle class="st0" cx="-148.9" cy="366.7" r="13.1"/>
	<g>
		<rect x="-147.7" y="352.5" class="st1" width="89.4" height="28.3"/>
		<g>
			<text transform="matrix(1 0 0 1 -137.7294 370.4552)" class="st3 st4 st5">Paraguay</text>
		</g>
	</g>
</g>
<g id="venezuela">
	<circle class="st0" cx="-82.5" cy="474.9" r="12.3"/>
	<g>
		<rect x="-83" y="460.8" class="st1" width="96.6" height="28.3"/>
		<g>
			<text transform="matrix(1 0 0 1 -72.9682 478.732)" class="st3 st4 st5">Venezuela</text>
		</g>
	</g>
</g>
</svg>
