<?xml version="1.0" encoding="utf-8"?>
<!-- Generator: Adobe Illustrator 17.0.0, SVG Export Plug-In . SVG Version: 6.00 Build 0)  -->
<!DOCTYPE svg PUBLIC "-//W3C//DTD SVG 1.1//EN" "http://www.w3.org/Graphics/SVG/1.1/DTD/svg11.dtd">
<svg version="1.1" id="Livello_1" xmlns="http://www.w3.org/2000/svg" xmlns:xlink="http://www.w3.org/1999/xlink" x="0px" y="0px"
	 width="1280px" height="800px" viewBox="0 0 1280 800" style="enable-background:new 0 0 1280 800;" xml:space="preserve">
<style type="text/css">
	.st0{clip-path:url(#SVGID_2_);}
	.st1{fill:none;stroke:#FF934F;stroke-width:5;stroke-miterlimit:10;}
	.st2{fill:#FF934F;}
	.st3{fill:#343335;}
	.st4{font-family:'SourceSansPro-Regular';}
	.st5{font-size:157.5758;}
</style>
<g id="XMLID_189_">
	<g id="XMLID_1_">
		<g>
			<defs>
				<ellipse id="SVGID_1_" cx="1010.3" cy="246.1" rx="197.6" ry="196.4"/>
			</defs>
			<clipPath id="SVGID_2_">
				<use xlink:href="#SVGID_1_"  style="overflow:visible;"/>
			</clipPath>
			<g id="XMLID_191_" class="st0">
				<line id="XMLID_231_" class="st1" x1="950.9" y1="413.3" x2="1000.6" y2="461.8"/>
				<line id="XMLID_230_" class="st1" x1="557" y1="23" x2="902.4" y2="364.8"/>
				<line id="XMLID_229_" class="st1" x1="873.3" y1="362.4" x2="973.9" y2="461.8"/>
				<line id="XMLID_228_" class="st1" x1="530.3" y1="23" x2="838.2" y2="328.5"/>
				<line id="XMLID_227_" class="st1" x1="930.3" y1="366.1" x2="1028.5" y2="461.8"/>
				<line id="XMLID_226_" class="st1" x1="693.9" y1="130.9" x2="892.7" y2="328.5"/>
				<line id="XMLID_225_" class="st1" x1="966.7" y1="374.5" x2="1041.8" y2="448.5"/>
				<line id="XMLID_224_" class="st1" x1="674.5" y1="84.8" x2="920.6" y2="329.7"/>
				<line id="XMLID_223_" class="st1" x1="900" y1="281.2" x2="1078.2" y2="459.4"/>
				<line id="XMLID_222_" class="st1" x1="736.4" y1="120" x2="884.2" y2="265.5"/>
				<line id="XMLID_221_" class="st1" x1="946.1" y1="300.6" x2="1101.2" y2="453.3"/>
				<line id="XMLID_220_" class="st1" x1="727.9" y1="83.6" x2="919.4" y2="273.9"/>
				<line id="XMLID_219_" class="st1" x1="984.8" y1="311.5" x2="1136.4" y2="461.8"/>
				<line id="XMLID_218_" class="st1" x1="692.7" y1="23" x2="952.1" y2="280"/>
				<line id="XMLID_217_" class="st1" x1="1040.6" y1="340.6" x2="1136.4" y2="435.2"/>
				<line id="XMLID_216_" class="st1" x1="935.2" y1="235.2" x2="960.6" y2="261.8"/>
				<line id="XMLID_215_" class="st1" x1="747.3" y1="49.7" x2="935.2" y2="235.2"/>
				<line id="XMLID_214_" class="st1" x1="1024.8" y1="298.2" x2="1176.4" y2="448.5"/>
				<line id="XMLID_213_" class="st1" x1="789.7" y1="64.2" x2="976.4" y2="249.7"/>
				<line id="XMLID_212_" class="st1" x1="994.5" y1="241.2" x2="1209.1" y2="454.5"/>
				<line id="XMLID_211_" class="st1" x1="832.1" y1="80" x2="954.5" y2="202.4"/>
				<line id="XMLID_210_" class="st1" x1="885.5" y1="106.7" x2="1235.8" y2="453.3"/>
				<line id="XMLID_209_" class="st1" x1="984.8" y1="178.2" x2="1255.2" y2="446.1"/>
				<line id="XMLID_208_" class="st1" x1="855.2" y1="49.7" x2="929.1" y2="122.4"/>
				<line id="XMLID_207_" class="st1" x1="1070.9" y1="236.4" x2="1255.2" y2="419.4"/>
				<line id="XMLID_206_" class="st1" x1="897.6" y1="64.2" x2="1023.6" y2="190.3"/>
				<line id="XMLID_205_" class="st1" x1="1044.2" y1="184.2" x2="1280.6" y2="418.2"/>
				<line id="XMLID_204_" class="st1" x1="881.8" y1="23" x2="1010.3" y2="150.3"/>
				<line id="XMLID_203_" class="st1" x1="1097.6" y1="209.7" x2="1304.8" y2="414.5"/>
				<line id="XMLID_202_" class="st1" x1="971.5" y1="84.8" x2="1046.7" y2="158.8"/>
				<line id="XMLID_201_" class="st1" x1="1074.5" y1="160" x2="1355.8" y2="437.6"/>
				<line id="XMLID_200_" class="st1" x1="963" y1="49.7" x2="1044.2" y2="129.7"/>
				<line id="XMLID_199_" class="st1" x1="1120.6" y1="178.2" x2="1375.2" y2="431.5"/>
				<line id="XMLID_198_" class="st1" x1="1018.8" y1="77.6" x2="1080.6" y2="139.4"/>
				<line id="XMLID_197_" class="st1" x1="1103.6" y1="134.5" x2="1383.6" y2="412.1"/>
				<line id="XMLID_196_" class="st1" x1="1007.9" y1="40" x2="1063.6" y2="95.8"/>
				<line id="XMLID_195_" class="st1" x1="1143.6" y1="147.9" x2="1387.3" y2="389.1"/>
				<line id="XMLID_194_" class="st1" x1="999.4" y1="4.8" x2="1107.3" y2="111.5"/>
				<line id="XMLID_193_" class="st1" x1="1141.2" y1="118.8" x2="1405.5" y2="380.6"/>
				<line id="XMLID_192_" class="st1" x1="1044.2" y1="23" x2="1107.3" y2="84.8"/>
			</g>
		</g>
	</g>
	<g>
		<ellipse id="XMLID_190_" class="st1" cx="1010.3" cy="246.1" rx="197.6" ry="196.4"/>
	</g>
</g>
<circle id="XMLID_5057_" class="st2" cx="268.5" cy="241.2" r="209.7"/>
<text id="XMLID_4977_" transform="matrix(1 0 0 1 46.6637 749.1809)" class="st3 st4 st5">&lt;100%</text>
<text id="XMLID_5021_" transform="matrix(1 0 0 1 783.7731 749.1809)" class="st3 st4 st5">&gt;100%</text>
</svg>
