<?xml version="1.0" encoding="utf-8"?>
<!-- Generator: Adobe Illustrator 18.0.0, SVG Export Plug-In . SVG Version: 6.00 Build 0)  -->
<!DOCTYPE svg PUBLIC "-//W3C//DTD SVG 1.1//EN" "http://www.w3.org/Graphics/SVG/1.1/DTD/svg11.dtd">
<svg version="1.1" xmlns="http://www.w3.org/2000/svg" xmlns:xlink="http://www.w3.org/1999/xlink" x="0px" y="0px"
	 viewBox="0 0 1206.4 308.2" enable-background="new 0 0 1206.4 308.2" xml:space="preserve">
<g id="Political">
	<g id="Layer_1">
	</g>
	<g id="Excel">
	</g>
	<g id="Testo">
	</g>
	<g id="Linee">
	</g>
	<g id="Cerchio_0">
	</g>
</g>
<g id="Economic">
	<g id="Raw">
	</g>
	<g id="Palle">
	</g>
	<g id="Testi">
	</g>
</g>
<g id="Guide">
	<g id="CirclesE">
	</g>
</g>
<g id="Prezzi">
	<g id="LineeBase">
	</g>
	<g id="Testi_1_">
	</g>
	<g id="Bar">
	</g>
</g>
<g id="NuovoPolitica">
	<g id="Testo_1_">
	</g>
	<g id="Barre">
	</g>
	<g id="Guide_1_">
	</g>
</g>
<g id="GOODBAD">
	<g id="Layer_22">
		<g>
			<line fill="none" stroke="#CFD1D2" stroke-width="0.5" stroke-miterlimit="10" x1="68.4" y1="12.5" x2="1206.4" y2="12.5"/>
			<line fill="none" stroke="#CFD1D2" stroke-width="0.5" stroke-miterlimit="10" x1="68.4" y1="32.5" x2="1206.4" y2="32.5"/>
			<line fill="none" stroke="#CFD1D2" stroke-width="0.5" stroke-miterlimit="10" x1="68.4" y1="51.7" x2="1206.4" y2="51.7"/>
			<line fill="none" stroke="#CFD1D2" stroke-width="0.5" stroke-miterlimit="10" x1="68.4" y1="71.7" x2="1206.4" y2="71.7"/>
			<line fill="none" stroke="#000000" stroke-width="0.5" stroke-miterlimit="10" x1="68.4" y1="91.7" x2="1206.4" y2="91.7"/>
		</g>
		<g>
			<line fill="none" stroke="#000000" stroke-width="0.5" stroke-miterlimit="10" x1="68.4" y1="223.4" x2="1206.4" y2="223.4"/>
			<line fill="none" stroke="#CFD1D2" stroke-width="0.5" stroke-miterlimit="10" x1="68.4" y1="263.4" x2="1206.4" y2="263.4"/>
			<line fill="none" stroke="#CFD1D2" stroke-width="0.5" stroke-miterlimit="10" x1="68.4" y1="243.4" x2="1206.4" y2="243.4"/>
			<line fill="none" stroke="#CFD1D2" stroke-width="0.5" stroke-miterlimit="10" x1="68.4" y1="303.4" x2="1206.4" y2="303.4"/>
			<line fill="none" stroke="#CFD1D2" stroke-width="0.5" stroke-miterlimit="10" x1="68.4" y1="283.4" x2="1206.4" y2="283.4"/>
		</g>
	</g>
	<g id="BARRE">
		<line fill="none" stroke="#EA6653" stroke-width="6" stroke-miterlimit="10" x1="232.5" y1="223.7" x2="232.5" y2="254.7"/>
		<line fill="none" stroke="#EA6653" stroke-width="6" stroke-miterlimit="10" x1="82.5" y1="223.7" x2="82.5" y2="285.2"/>
		<line fill="none" stroke="#EA6653" stroke-width="6" stroke-miterlimit="10" x1="112.5" y1="223.7" x2="112.5" y2="271.3"/>
		<line fill="none" stroke="#EA6653" stroke-width="6" stroke-miterlimit="10" x1="142.5" y1="223.7" x2="142.5" y2="263.6"/>
		<line fill="none" stroke="#EA6653" stroke-width="6" stroke-miterlimit="10" x1="172.5" y1="223.7" x2="172.5" y2="262"/>
		<line fill="none" stroke="#EA6653" stroke-width="6" stroke-miterlimit="10" x1="202.5" y1="223.7" x2="202.5" y2="257.5"/>
		<line fill="none" stroke="#EA6653" stroke-width="6" stroke-miterlimit="10" x1="352.5" y1="223.6" x2="352.5" y2="242"/>
		<line fill="none" stroke="#EA6653" stroke-width="6" stroke-miterlimit="10" x1="382.5" y1="223.6" x2="382.5" y2="240.4"/>
		<line fill="none" stroke="#EA6653" stroke-width="6" stroke-miterlimit="10" x1="412.5" y1="223.6" x2="412.5" y2="237.9"/>
		<line fill="none" stroke="#EA6653" stroke-width="6" stroke-miterlimit="10" x1="442.5" y1="223.6" x2="442.5" y2="234.2"/>
		<line fill="none" stroke="#EA6653" stroke-width="6" stroke-miterlimit="10" x1="262.5" y1="223.7" x2="262.5" y2="251.8"/>
		<line fill="none" stroke="#EA6653" stroke-width="6" stroke-miterlimit="10" x1="292.5" y1="223.7" x2="292.5" y2="250.1"/>
		<line fill="none" stroke="#EA6653" stroke-width="6" stroke-miterlimit="10" x1="322.5" y1="223.6" x2="322.5" y2="243.2"/>
		<line fill="none" stroke="#EA6653" stroke-width="6" stroke-miterlimit="10" x1="472.5" y1="223.6" x2="472.5" y2="225.4"/>
		<line fill="none" stroke="#EA6653" stroke-width="6" stroke-miterlimit="10" x1="532.5" y1="223.6" x2="532.5" y2="224.2"/>
		<line fill="none" stroke="#EA6653" stroke-width="6" stroke-miterlimit="10" x1="502.5" y1="223.6" x2="502.5" y2="224.2"/>
		<line fill="none" stroke="#EA6653" stroke-width="6" stroke-miterlimit="10" x1="562.5" y1="223.6" x2="562.5" y2="223.8"/>
		<line fill="none" stroke="#419383" stroke-width="6" stroke-miterlimit="10" x1="1192.5" y1="46.2" x2="1192.5" y2="91.4"/>
		<line fill="none" stroke="#419383" stroke-width="6" stroke-miterlimit="10" x1="1162.5" y1="49.6" x2="1162.5" y2="91.4"/>
		<line fill="none" stroke="#419383" stroke-width="6" stroke-miterlimit="10" x1="1132.5" y1="51.2" x2="1132.5" y2="91.4"/>
		<line fill="none" stroke="#419383" stroke-width="6" stroke-miterlimit="10" x1="1102.5" y1="52.8" x2="1102.5" y2="91.4"/>
		<line fill="none" stroke="#419383" stroke-width="6" stroke-miterlimit="10" x1="1072.5" y1="53.3" x2="1072.5" y2="91.4"/>
		<line fill="none" stroke="#419383" stroke-width="6" stroke-miterlimit="10" x1="1042.5" y1="56.1" x2="1042.5" y2="91.4"/>
		<line fill="none" stroke="#419383" stroke-width="6" stroke-miterlimit="10" x1="1012.5" y1="57.7" x2="1012.5" y2="91.4"/>
		<line fill="none" stroke="#419383" stroke-width="6" stroke-miterlimit="10" x1="982.5" y1="58.5" x2="982.5" y2="91.4"/>
		<line fill="none" stroke="#419383" stroke-width="6" stroke-miterlimit="10" x1="952.5" y1="59.3" x2="952.5" y2="91.4"/>
		<line fill="none" stroke="#419383" stroke-width="6" stroke-miterlimit="10" x1="922.5" y1="68.2" x2="922.5" y2="91.4"/>
		<line fill="none" stroke="#419383" stroke-width="6" stroke-miterlimit="10" x1="892.5" y1="69" x2="892.5" y2="91.4"/>
		<line fill="none" stroke="#419383" stroke-width="6" stroke-miterlimit="10" x1="802.5" y1="79.2" x2="802.5" y2="91.4"/>
		<line fill="none" stroke="#419383" stroke-width="6" stroke-miterlimit="10" x1="862.5" y1="72.3" x2="862.5" y2="91.4"/>
		<line fill="none" stroke="#419383" stroke-width="6" stroke-miterlimit="10" x1="832.5" y1="75" x2="832.5" y2="91.4"/>
		<line fill="none" stroke="#419383" stroke-width="6" stroke-miterlimit="10" x1="712.5" y1="89.7" x2="712.5" y2="91.5"/>
		<line fill="none" stroke="#419383" stroke-width="6" stroke-miterlimit="10" x1="742.5" y1="88.9" x2="742.5" y2="91.5"/>
		<line fill="none" stroke="#419383" stroke-width="6" stroke-miterlimit="10" x1="772.5" y1="87.2" x2="772.5" y2="91.5"/>
		<line fill="none" stroke="#419383" stroke-width="6" stroke-miterlimit="10" x1="682.5" y1="91.3" x2="682.5" y2="91.5"/>
	</g>
	<g id="Testo_2_">
		
			<text transform="matrix(0.7071 -0.7071 0.7071 0.7071 562.5592 214.4551)" fill="#323234" font-family="'SourceSansPro-Regular'" font-size="15">Trinidad &amp;Tobago</text>
		
			<text transform="matrix(0.7071 -0.7071 0.7071 0.7071 474.0066 213.7119)" fill="#323234" font-family="'SourceSansPro-Regular'" font-size="15">Argentina</text>
		
			<text transform="matrix(0.7071 -0.7071 0.7071 0.7071 504.3637 213.7129)" fill="#323234" font-family="'SourceSansPro-Regular'" font-size="15">Panama</text>
		
			<text transform="matrix(0.7071 -0.7071 0.7071 0.7071 532.5297 213.6732)" fill="#323234" font-family="'SourceSansPro-Regular'" font-size="15">Dominican Republic</text>
		
			<text transform="matrix(0.7071 -0.7071 0.7071 0.7071 354.1288 214.3981)" fill="#323234" font-family="'SourceSansPro-Regular'" font-size="15">Bolivia</text>
		
			<text transform="matrix(0.7071 -0.7071 0.7071 0.7071 384.5678 213.7129)" fill="#323234" font-family="'SourceSansPro-Regular'" font-size="15">Honduras</text>
		
			<text transform="matrix(0.7071 -0.7071 0.7071 0.7071 414.3558 213.7123)" fill="#323234" font-family="'SourceSansPro-Regular'" font-size="15">Nicaragua</text>
		
			<text transform="matrix(0.7071 -0.7071 0.7071 0.7071 442.5022 213.7129)" fill="#323234" font-family="'SourceSansPro-Regular'" font-size="15">Jamaica</text>
		
			<text transform="matrix(0.7071 -0.7071 0.7071 0.7071 234.1645 213.7119)" fill="#323234" font-family="'SourceSansPro-Regular'" font-size="15">Paraguay</text>
		
			<text transform="matrix(0.7071 -0.7071 0.7071 0.7071 264.0681 213.7119)" fill="#323234" font-family="'SourceSansPro-Regular'" font-size="15">Mexico</text>
		
			<text transform="matrix(0.7071 -0.7071 0.7071 0.7071 294.5121 213.7125)" fill="#323234" font-family="'SourceSansPro-Regular'" font-size="15">Ecuador</text>
		
			<text transform="matrix(0.7071 -0.7071 0.7071 0.7071 322.5023 215.2305)" fill="#323234" font-family="'SourceSansPro-Regular'" font-size="15">Guyana</text>
		
			<text transform="matrix(0.7071 -0.7071 0.7071 0.7071 82.5017 215.2302)" fill="#323234" font-family="'SourceSansPro-Regular'" font-size="15">Colombia</text>
		
			<text transform="matrix(0.7071 -0.7071 0.7071 0.7071 112.5026 215.2305)" fill="#323234" font-family="'SourceSansPro-Regular'" font-size="15">Venezuela</text>
		
			<text transform="matrix(0.7071 -0.7071 0.7071 0.7071 144.1911 213.7119)" fill="#323234" font-family="'SourceSansPro-Regular'" font-size="15">Haiti</text>
		
			<text transform="matrix(0.7071 -0.7071 0.7071 0.7071 174.586 213.7123)" fill="#323234" font-family="'SourceSansPro-Regular'" font-size="15">Peru</text>
		
			<text transform="matrix(0.7071 -0.7071 0.7071 0.7071 202.5017 215.2301)" fill="#323234" font-family="'SourceSansPro-Regular'" font-size="15">Guatemala</text>
		
			<text transform="matrix(0.7071 -0.7071 0.7071 0.7071 1154.4169 148.987)" fill="#323234" font-family="'SourceSansPro-Regular'" font-size="15">Barbados</text>
		<g>
			
				<text transform="matrix(0.7071 -0.7071 0.7071 0.7071 1097.6368 175.6772)" fill="#323234" font-family="'SourceSansPro-Regular'" font-size="15">St. Kitts &amp; Nevis</text>
		</g>
		
			<text transform="matrix(0.7071 -0.7071 0.7071 0.7071 1102.5356 140.1585)" fill="#323234" font-family="'SourceSansPro-Regular'" font-size="15">Canada</text>
		
			<text transform="matrix(0.7071 -0.7071 0.7071 0.7071 1065.2889 147.9873)" fill="#323234" font-family="'SourceSansPro-Regular'" font-size="15">Bahamas</text>
		
			<text transform="matrix(0.7071 -0.7071 0.7071 0.7071 1034.1887 147.9873)" fill="#323234" font-family="'SourceSansPro-Regular'" font-size="15">Dominica</text>
		
			<text transform="matrix(0.7071 -0.7071 0.7071 0.7071 963.4102 189.0823)" fill="#323234" font-family="'SourceSansPro-Regular'" font-size="15">Antigua &amp; Barbuda</text>
		
			<text transform="matrix(0.7071 -0.7071 0.7071 0.7071 979.1047 144.6344)" fill="#323234" font-family="'SourceSansPro-Regular'" font-size="15">Uruguay</text>
		
			<text transform="matrix(0.7071 -0.7071 0.7071 0.7071 878.3682 215.0371)" fill="#323234" font-family="'SourceSansPro-Regular'" font-size="15">St. Vincent &amp; Granadines</text>
		
			<text transform="matrix(0.7071 -0.7071 0.7071 0.7071 919.072 143.5097)" fill="#323234" font-family="'SourceSansPro-Regular'" font-size="15">St. Lucia</text>
		
			<text transform="matrix(0.7071 -0.7071 0.7071 0.7071 880.6177 152.0895)" fill="#323234" font-family="'SourceSansPro-Regular'" font-size="15">Costa Rica</text>
		
			<text transform="matrix(0.7071 -0.7071 0.7071 0.7071 874.4032 128.3258)" fill="#323234" font-family="'SourceSansPro-Regular'" font-size="15">Chile</text>
		
			<text transform="matrix(0.7071 -0.7071 0.7071 0.7071 848.5355 124.9463)" fill="#323234" font-family="'SourceSansPro-Regular'" font-size="15">USA</text>
		
			<text transform="matrix(0.7071 -0.7071 0.7071 0.7071 799.0867 143.5097)" fill="#323234" font-family="'SourceSansPro-Regular'" font-size="15">Grenada</text>
		
			<text transform="matrix(0.7071 -0.7071 0.7071 0.7071 783.3858 128.8258)" fill="#323234" font-family="'SourceSansPro-Regular'" font-size="15">Cuba</text>
		
			<text transform="matrix(0.7071 -0.7071 0.7071 0.7071 733.6776 148.9873)" fill="#323234" font-family="'SourceSansPro-Regular'" font-size="15">Suriname</text>
		
			<text transform="matrix(0.7071 -0.7071 0.7071 0.7071 720.2585 132.737)" fill="#323234" font-family="'SourceSansPro-Regular'" font-size="15">Belize</text>
		
			<text transform="matrix(0.7071 -0.7071 0.7071 0.7071 667.8975 157.1533)" fill="#323234" font-family="'SourceSansPro-Regular'" font-size="15">El Salvador</text>
		
			<text transform="matrix(0.7071 -0.7071 0.7071 0.7071 661.2029 133.6126)" fill="#323234" font-family="'SourceSansPro-Regular'" font-size="15">Brazil</text>
		<text transform="matrix(1 0 0 1 49.9368 91.7005)" fill="#323234" font-family="'SourceSansPro-Regular'" font-size="15">0</text>
		<text transform="matrix(1 0 0 1 49.937 223.3523)" fill="#323234" font-family="'SourceSansPro-Regular'" font-size="15">0</text>
		<text transform="matrix(1 0 0 1 42.6245 51.7006)" fill="#323234" font-family="'SourceSansPro-Regular'" font-size="15">+1</text>
		<text transform="matrix(1 0 0 1 42.6245 12.4503)" fill="#323234" font-family="'SourceSansPro-Regular'" font-size="15">+2</text>
		<text transform="matrix(1 0 0 1 45.2524 263.3521)" fill="#323234" font-family="'SourceSansPro-Regular'" font-size="15">-1</text>
		<text transform="matrix(1 0 0 1 45.2527 303.3522)" fill="#323234" font-family="'SourceSansPro-Regular'" font-size="15">-2</text>
		<text id="XMLID_1_" transform="matrix(0 -1 1 0 12.45 161.3335)" font-family="'SourceSansPro-Regular'" font-size="15">Index</text>
	</g>
</g>
</svg>
