<?xml version="1.0" encoding="utf-8"?>
<!-- Generator: Adobe Illustrator 16.0.0, SVG Export Plug-In . SVG Version: 6.00 Build 0)  -->
<!DOCTYPE svg PUBLIC "-//W3C//DTD SVG 1.1//EN" "http://www.w3.org/Graphics/SVG/1.1/DTD/svg11.dtd">
<svg version="1.1" xmlns="http://www.w3.org/2000/svg" xmlns:xlink="http://www.w3.org/1999/xlink" x="0px" y="0px" width="1012px"
	 height="160.405px" viewBox="0 -17.405 1012 160.405" enable-background="new 0 -17.405 1012 160.405" xml:space="preserve">
<g id="genereBaseStat">
	<line fill="none" stroke="#FFFFFF" stroke-miterlimit="10" x1="23" y1="115.75" x2="990" y2="115.75"/>
	<g>
		<g>
			<line fill="none" stroke="#666666" stroke-miterlimit="10" stroke-dasharray="3,3" x1="28" y1="0" x2="987" y2="0"/>
			<line fill="none" stroke="#666666" stroke-miterlimit="10" x1="989" y1="0" x2="990" y2="0"/>
		</g>
	</g>
	<g>
		<g>
			<line fill="none" stroke="#666666" stroke-miterlimit="10" x1="989" y1="109.963" x2="990" y2="109.963"/>
		</g>
	</g>
	<g>
		<g>
			<line fill="none" stroke="#666666" stroke-miterlimit="10" stroke-dasharray="3,3" x1="28" y1="104.175" x2="987" y2="104.175"/>
			<line fill="none" stroke="#666666" stroke-miterlimit="10" x1="989" y1="104.175" x2="990" y2="104.175"/>
		</g>
	</g>
	<g>
		<g>
			<line fill="none" stroke="#666666" stroke-miterlimit="10" x1="989" y1="98.388" x2="990" y2="98.388"/>
		</g>
	</g>
	<g>
		<g>
			<line fill="none" stroke="#666666" stroke-miterlimit="10" stroke-dasharray="3,3" x1="28" y1="92.6" x2="987" y2="92.6"/>
			<line fill="none" stroke="#666666" stroke-miterlimit="10" x1="989" y1="92.6" x2="990" y2="92.6"/>
		</g>
	</g>
	<g>
		<g>
			<line fill="none" stroke="#666666" stroke-miterlimit="10" x1="989" y1="86.813" x2="990" y2="86.813"/>
		</g>
	</g>
	<g>
		<g>
			<line fill="none" stroke="#666666" stroke-miterlimit="10" stroke-dasharray="3,3" x1="28" y1="81.025" x2="987" y2="81.025"/>
			<line fill="none" stroke="#666666" stroke-miterlimit="10" x1="989" y1="81.025" x2="990" y2="81.025"/>
		</g>
	</g>
	<g>
		<g>
			<line fill="none" stroke="#666666" stroke-miterlimit="10" x1="989" y1="75.237" x2="990" y2="75.237"/>
		</g>
	</g>
	<g>
		<g>
			<line fill="none" stroke="#666666" stroke-miterlimit="10" stroke-dasharray="3,3" x1="28" y1="69.45" x2="987" y2="69.45"/>
			<line fill="none" stroke="#666666" stroke-miterlimit="10" x1="989" y1="69.45" x2="990" y2="69.45"/>
		</g>
	</g>
	<g>
		<g>
			<line fill="none" stroke="#666666" stroke-miterlimit="10" x1="989" y1="63.663" x2="990" y2="63.663"/>
		</g>
	</g>
	<g>
		<g>
			<line fill="none" stroke="#666666" stroke-miterlimit="10" stroke-dasharray="3,3" x1="28" y1="57.875" x2="987" y2="57.875"/>
			<line fill="none" stroke="#666666" stroke-miterlimit="10" x1="989" y1="57.875" x2="990" y2="57.875"/>
		</g>
	</g>
	<g>
		<g>
			<line fill="none" stroke="#666666" stroke-miterlimit="10" x1="989" y1="52.087" x2="990" y2="52.087"/>
		</g>
	</g>
	<g>
		<g>
			<line fill="none" stroke="#666666" stroke-miterlimit="10" stroke-dasharray="3,3" x1="28" y1="46.3" x2="987" y2="46.3"/>
			<line fill="none" stroke="#666666" stroke-miterlimit="10" x1="989" y1="46.3" x2="990" y2="46.3"/>
		</g>
	</g>
	<g>
		<g>
			<line fill="none" stroke="#666666" stroke-miterlimit="10" x1="989" y1="40.513" x2="990" y2="40.513"/>
		</g>
	</g>
	<g>
		<g>
			<line fill="none" stroke="#666666" stroke-miterlimit="10" stroke-dasharray="3,3" x1="28" y1="34.725" x2="987" y2="34.725"/>
			<line fill="none" stroke="#666666" stroke-miterlimit="10" x1="989" y1="34.725" x2="990" y2="34.725"/>
		</g>
	</g>
	<g>
		<g>
			<line fill="none" stroke="#666666" stroke-miterlimit="10" x1="989" y1="28.938" x2="990" y2="28.938"/>
		</g>
	</g>
	<g>
		<g>
			<line fill="none" stroke="#666666" stroke-miterlimit="10" stroke-dasharray="3,3" x1="28" y1="23.15" x2="987" y2="23.15"/>
			<line fill="none" stroke="#666666" stroke-miterlimit="10" x1="989" y1="23.15" x2="990" y2="23.15"/>
		</g>
	</g>
	<g>
		<g>
			<line fill="none" stroke="#666666" stroke-miterlimit="10" x1="989" y1="17.362" x2="990" y2="17.362"/>
		</g>
	</g>
	<g>
		<g>
			<line fill="none" stroke="#666666" stroke-miterlimit="10" stroke-dasharray="3,3" x1="28" y1="11.575" x2="987" y2="11.575"/>
			<line fill="none" stroke="#666666" stroke-miterlimit="10" x1="989" y1="11.575" x2="990" y2="11.575"/>
		</g>
	</g>
	<g>
		<g>
			<line fill="none" stroke="#666666" stroke-miterlimit="10" x1="989" y1="5.788" x2="990" y2="5.788"/>
		</g>
	</g>
</g>
<g id="westernStat">
	<g>
		<text transform="matrix(1 0 0 1 925.3193 136)" fill="#FFFFFF" font-family="'Raleway'" font-size="13">western</text>
		<g id="western_2_">
			<rect x="932" y="113.666" fill="#E6E6E6" width="35" height="1.834"/>
			<text transform="matrix(1 0 0 1 945.7578 107.3896)" fill="#FFFFFF" font-family="'Raleway'" font-size="18">1</text>
		</g>
	</g>
</g>
<g id="shortStat">
	<g>
		<text transform="matrix(1 0 0 1 844.7246 136)" fill="#FFFFFF" font-family="'Raleway'" font-size="13">short</text>
		<g id="short">
			<rect x="842" y="113.833" fill="#E6E6E6" width="35" height="2"/>
			<text transform="matrix(1 0 0 1 855.1377 106.7236)" fill="#FFFFFF" font-family="'Raleway'" font-size="18">1</text>
		</g>
	</g>
</g>
<g id="romanceStat">
	<g>
		<text transform="matrix(1 0 0 1 743.6504 136)" fill="#FFFFFF" font-family="'Raleway'" font-size="13">romance</text>
		<g id="romace_2_">
			<rect x="753" y="97.167" fill="#E6E6E6" width="35" height="18.833"/>
			<text transform="matrix(1 0 0 1 761.0059 91.5566)" fill="#FFFFFF" font-family="'Raleway'" font-size="18">16</text>
		</g>
	</g>
</g>
<g id="musicStat">
	<g>
		<text transform="matrix(1 0 0 1 662.7178 136)" fill="#FFFFFF" font-family="'Raleway'" font-size="13">music</text>
		<g id="music">
			<rect x="663" y="111.667" fill="#E6E6E6" width="35" height="4.167"/>
			<text transform="matrix(1 0 0 1 675.7852 105.5566)" fill="#FFFFFF" font-family="'Raleway'" font-size="18">3</text>
		</g>
	</g>
</g>
<g id="flim-noirStat">
	<g>
		<text transform="matrix(1 0 0 1 565.9639 136)" fill="#FFFFFF" font-family="'Raleway'" font-size="13">flim-noir</text>
		<g id="film-noir_2_">
			<rect x="574" y="111.667" fill="#E6E6E6" width="35" height="4.166"/>
			<text transform="matrix(1 0 0 1 586.1914 105.3066)" fill="#FFFFFF" font-family="'Raleway'" font-size="18">3</text>
		</g>
	</g>
</g>
<g id="dramaStat">
	<g>
		<text transform="matrix(1 0 0 1 507.6602 136)" fill="#FFFFFF" font-family="'Raleway'" font-size="13">drama</text>
		<g id="film-noir_1_">
			<rect x="509.504" y="5.027" fill="#E6E6E6" width="35" height="110.639"/>
			<text transform="matrix(1 0 0 1 516.168 -1.3335)" fill="#FFFFFF" font-family="'Raleway'" font-size="18">95</text>
		</g>
	</g>
</g>
<g id="documentaryStat">
	<g>
		<text transform="matrix(1 0 0 1 405.1924 136)" fill="#FFFFFF" font-family="'Raleway'" font-size="13">documentary</text>
		<rect x="427.933" y="107" fill="#E6E6E6" width="35" height="8.833"/>
		<text transform="matrix(1 0 0 1 440.0688 102.3896)" fill="#FFFFFF" font-family="'Raleway'" font-size="18">8</text>
	</g>
</g>
<g id="comedyStat">
	<g>
		<text transform="matrix(1 0 0 1 358.7012 136)" fill="#FFFFFF" font-family="'Raleway'" font-size="13">crime</text>
		<g id="crime_1_">
			<rect x="358" y="92.667" fill="#E6E6E6" width="35" height="22.999"/>
			<text transform="matrix(1 0 0 1 365.3857 87.5566)" fill="#FFFFFF" font-family="'Raleway'" font-size="18">20</text>
		</g>
	</g>
</g>
<g id="biographyStat">
	<g>
		<text transform="matrix(1 0 0 1 281.4736 136)" fill="#FFFFFF" font-family="'Raleway'" font-size="13">comedy</text>
		<g id="comedy">
			<rect x="289" y="89.5" fill="#E6E6E6" width="35" height="26.166"/>
			<text transform="matrix(1 0 0 1 296.4478 84.1396)" fill="#FFFFFF" font-family="'Raleway'" font-size="18">22</text>
		</g>
	</g>
</g>
<g id="animationStat">
	<g>
		<g>
			<text transform="matrix(1 0 0 1 197.3135 136)" fill="#FFFFFF" font-family="'Raleway'" font-size="13">biography</text>
		</g>
		<g id="biography_2_">
			<rect x="209.928" y="112" fill="#E6E6E6" width="35" height="3.833"/>
			<text transform="matrix(1 0 0 1 222.5244 104.3896)" fill="#FFFFFF" font-family="'Raleway'" font-size="18">3</text>
		</g>
	</g>
</g>
<g id="adventureStat">
	<g>
		<text transform="matrix(1 0 0 1 107.29 136)" fill="#FFFFFF" font-family="'Raleway'" font-size="13">adventure</text>
		<g id="adventure">
			<rect x="120.502" y="106.5" fill="#E6E6E6" width="35" height="9.166"/>
			<text transform="matrix(1 0 0 1 132.3237 98.8896)" fill="#FFFFFF" font-family="'Raleway'" font-size="18">7</text>
		</g>
	</g>
</g>
<g id="actionStat">
	<text transform="matrix(1 0 0 1 31.9888 136)" fill="#FFFFFF" font-family="'Raleway'" font-size="13">action</text>
	<g id="action_2_">
		<text transform="matrix(1 0 0 1 44.9697 101.6396)" fill="#FFFFFF" font-family="'Raleway'" font-size="18">5</text>
		<rect x="32.806" y="109.75" fill="#E6E6E6" width="35" height="6.083"/>
	</g>
</g>
</svg>
