<?xml version="1.0" encoding="utf-8"?>
<!-- Generator: Adobe Illustrator 16.0.0, SVG Export Plug-In . SVG Version: 6.00 Build 0)  -->
<!DOCTYPE svg PUBLIC "-//W3C//DTD SVG 1.1//EN" "http://www.w3.org/Graphics/SVG/1.1/DTD/svg11.dtd">
<svg version="1.1" xmlns="http://www.w3.org/2000/svg" xmlns:xlink="http://www.w3.org/1999/xlink" x="0px" y="0px" width="1012px"
	 height="143px" viewBox="0 0 1012 143" enable-background="new 0 0 1012 143" xml:space="preserve">
<g id="Capa_1">
</g>
<g id="maleBar">
	<text transform="matrix(1 0 0 1 218.6021 77.6035)"><tspan x="0" y="0" fill="#63C9C9" font-family="'Raleway'" font-size="18">male: 29,2%</tspan><tspan x="0" y="21" fill="#CCCCCC" font-family="'Raleway'" font-size="14">33 films</tspan></text>
	<rect x="221" y="38" fill="#63C9C9" width="166" height="21"/>
</g>
<g id="femalBar">
	<text transform="matrix(1 0 0 1 376.2051 77.6035)"><tspan x="0" y="0" fill="#457F6F" font-family="'Raleway'" font-size="18">female: 15,3%</tspan><tspan x="31.467" y="21" fill="#CCCCCC" font-family="'Raleway'" font-size="14">17 films</tspan></text>
	<rect x="387" y="38" fill="#457F6F" width="89" height="21"/>
</g>
<g id="bothBar">
	<text transform="matrix(1 0 0 1 518.1787 77.6035)"><tspan x="0" y="0" fill="#FFBB62" font-family="'Raleway'" font-size="18">both: 46,6%</tspan><tspan x="22.73" y="21" fill="#CCCCCC" font-family="'Raleway'" font-size="14">53 films</tspan></text>
	<rect x="476" y="38" fill="#FFBB62" width="266" height="21"/>
</g>
<g id="notspecifiedBar">
	<text transform="matrix(1 0 0 1 641.3809 77.6035)"><tspan x="0" y="0" fill="#FF8062" font-family="'Raleway'" font-size="18">not specified: 8.9%</tspan><tspan x="104.054" y="21" fill="#CCCCCC" font-family="'Raleway'" font-size="14">10 films</tspan></text>
	<rect x="742" y="38" fill="#FF8062" width="52" height="21"/>
</g>
</svg>
