<?xml version="1.0" encoding="utf-8"?>
<!-- Generator: Adobe Illustrator 17.0.0, SVG Export Plug-In . SVG Version: 6.00 Build 0)  -->
<!DOCTYPE svg PUBLIC "-//W3C//DTD SVG 1.1//EN" "http://www.w3.org/Graphics/SVG/1.1/DTD/svg11.dtd">
<svg version="1.1" xmlns="http://www.w3.org/2000/svg" xmlns:xlink="http://www.w3.org/1999/xlink" x="0px" y="0px" width="426.2px"
	 height="266px" viewBox="0 0 426.2 266" style="enable-background:new 0 0 426.2 266;" xml:space="preserve">
<style type="text/css">
	.st0{display:none;opacity:0.5;}
	.st1{display:inline;fill:#F8BF9A;}
	.st2{fill:#FFFFFF;}
	.st3{fill:none;stroke:#000000;stroke-width:1.043;stroke-miterlimit:10;}
</style>
<g id="Layer_12" class="st0">
</g>
<g id="Layer_7">
	<g>
		<g>
			<path d="M68.9,244.9l-1.5,1.9c-1.1-1.2-2.7-1.9-4.2-1.9c-3,0-5.4,2.4-5.4,5.4c0,3,2.4,5.4,5.4,5.4c1.5,0,3.1-0.7,4.2-1.8l1.5,1.7
				c-1.5,1.5-3.7,2.5-5.9,2.5c-4.5,0-7.9-3.4-7.9-7.7c0-4.3,3.5-7.7,8-7.7C65.3,242.6,67.4,243.5,68.9,244.9z"/>
			<path d="M84.7,251.6c0,4-2.5,6.4-6.6,6.4c-4.1,0-6.6-2.4-6.6-6.4v-8.9H74v8.9c0,2.6,1.6,4.1,4.1,4.1c2.5,0,4-1.5,4-4.1v-8.9h2.6
				V251.6z"/>
			<path d="M94.7,242.7c3.8,0,6,1.9,6,5.2c0,3.4-2.2,5.4-6,5.4h-3.5v4.6h-2.6v-15.2H94.7z M91.2,251h3.4c2.4,0,3.7-1,3.7-3.1
				c0-2-1.3-3-3.7-3h-3.4V251z"/>
			<path d="M113.8,244.1l-1.1,2.3c-1.7-1-3.3-1.4-4.5-1.4c-1.5,0-2.5,0.6-2.5,1.6c0,3.3,8.2,1.5,8.2,7c0,2.7-2.4,4.4-5.7,4.4
				c-2.4,0-4.7-1-6.2-2.4l1.1-2.2c1.6,1.4,3.5,2.2,5.2,2.2c1.8,0,2.9-0.7,2.9-1.9c0-3.4-8.2-1.5-8.2-6.9c0-2.6,2.2-4.2,5.6-4.2
				C110.5,242.5,112.4,243.2,113.8,244.1z"/>
			<path d="M137.9,250.3c0,4.4-3.5,7.7-8.1,7.7c-4.5,0-8.1-3.4-8.1-7.7c0-4.4,3.5-7.7,8.1-7.7C134.4,242.6,137.9,245.9,137.9,250.3z
				 M124.4,250.3c0,3,2.5,5.4,5.5,5.4c3,0,5.4-2.4,5.4-5.4c0-3-2.4-5.4-5.4-5.4C126.9,244.9,124.4,247.2,124.4,250.3z"/>
			<path d="M143.5,245v4.4h6.9v2.3h-6.9v6.2h-2.6v-15.2h10.2l0,2.3H143.5z"/>
			<path d="M165.5,242.7c3.8,0,6,1.9,6,5.2c0,3.4-2.2,5.4-6,5.4H162v4.6h-2.6v-15.2H165.5z M162,251h3.4c2.4,0,3.7-1,3.7-3.1
				c0-2-1.3-3-3.7-3H162V251z"/>
			<path d="M175.5,254.5l-1.5,3.4h-2.7l6.7-15.2h2.6l6.7,15.2h-2.7l-1.5-3.4H175.5z M179.3,245.4l-2.9,6.8h5.7L179.3,245.4z"/>
			<path d="M199.8,244.1l-1.1,2.3c-1.7-1-3.3-1.4-4.5-1.4c-1.5,0-2.5,0.6-2.5,1.6c0,3.3,8.2,1.5,8.2,7c0,2.7-2.4,4.4-5.7,4.4
				c-2.4,0-4.7-1-6.2-2.4l1.1-2.2c1.6,1.4,3.5,2.2,5.2,2.2c1.8,0,2.9-0.7,2.9-1.9c0-3.4-8.2-1.5-8.2-6.9c0-2.6,2.2-4.2,5.6-4.2
				C196.5,242.5,198.4,243.2,199.8,244.1z"/>
			<path d="M208.8,245v12.9h-2.6V245h-4.8v-2.3h12.2v2.3H208.8z"/>
			<path d="M218.6,245v4.1h7.4v2.3h-7.4v4.2h8.6v2.3h-11.1v-15.2H227v2.3H218.6z"/>
			<path d="M243.5,251.6c0,4-2.5,6.4-6.6,6.4c-4.1,0-6.6-2.4-6.6-6.4v-8.9h2.6v8.9c0,2.6,1.6,4.1,4.1,4.1c2.5,0,4-1.5,4-4.1v-8.9
				h2.6V251.6z"/>
			<path d="M254.3,253.3c-0.2,0-0.5,0-0.7,0H250v4.6h-2.6v-15.2h6.2c3.9,0,6.1,1.9,6.1,5.2c0,2.4-1.1,4.2-3.2,4.9l3.4,5.1h-2.9
				L254.3,253.3z M253.6,251c2.4,0,3.7-1,3.7-3.1c0-2-1.3-3-3.7-3H250v6H253.6z"/>
			<path d="M263.4,257.9v-15.2h2.6v15.2H263.4z"/>
			<path d="M272.4,255.6h9.4v2.3H269V256l9.3-11.1h-9v-2.3h12.5v1.9L272.4,255.6z"/>
			<path d="M287.4,245v4.1h7.4v2.3h-7.4v4.2h8.6v2.3h-11.1v-15.2h10.9v2.3H287.4z"/>
			<path d="M305.6,242.7c4.6,0,7.9,3.2,7.9,7.6c0,4.4-3.3,7.6-7.9,7.6h-6.2v-15.2H305.6z M301.9,255.6h3.7c3,0,5.2-2.2,5.2-5.3
				c0-3.1-2.3-5.3-5.3-5.3h-3.6V255.6z"/>
			<path d="M336,257.9l0-11.4l-4.8,9.8h-1.7l-4.8-9.8v11.4h-2.4v-15.2h3l5,10.1l5-10.1h3v15.2H336z"/>
			<path d="M342.6,257.9v-15.2h2.6v15.2H342.6z"/>
			<path d="M358.6,255.6v2.3h-9.2v-15.2h2.6v12.9H358.6z"/>
			<path d="M366.4,251.2l-2.6,2.9v3.9h-2.6v-15.2h2.6v7.9l7.3-7.9h3l-5.9,6.5l6.3,8.7h-3.1L366.4,251.2z"/>
		</g>
		<g>
			<g>
				<path d="M148.5,60V42.2h-4.1V38h9.1v22H148.5z"/>
				<path d="M177.7,48.9c0,7.2-3.4,11.2-9.6,11.2c-6.2,0-9.6-4-9.6-11.2c0-7.2,3.4-11.1,9.6-11.1C174.2,37.8,177.7,41.8,177.7,48.9z
					 M163.6,48.9c0,5.2,1.4,7.4,4.5,7.4c3.1,0,4.5-2.2,4.5-7.4c0-5.2-1.4-7.3-4.5-7.3C165,41.6,163.6,43.8,163.6,48.9z"/>
				<path d="M200,48.9c0,7.2-3.4,11.2-9.6,11.2c-6.2,0-9.6-4-9.6-11.2c0-7.2,3.4-11.1,9.6-11.1C196.5,37.8,200,41.8,200,48.9z
					 M185.8,48.9c0,5.2,1.4,7.4,4.5,7.4c3.1,0,4.5-2.2,4.5-7.4c0-5.2-1.4-7.3-4.5-7.3C187.3,41.6,185.8,43.8,185.8,48.9z"/>
				<path d="M222.2,48.9c0,7.2-3.4,11.2-9.6,11.2c-6.2,0-9.6-4-9.6-11.2c0-7.2,3.4-11.1,9.6-11.1C218.8,37.8,222.2,41.8,222.2,48.9z
					 M208.1,48.9c0,5.2,1.4,7.4,4.5,7.4c3.1,0,4.5-2.2,4.5-7.4c0-5.2-1.4-7.3-4.5-7.3C209.5,41.6,208.1,43.8,208.1,48.9z"/>
				<path d="M262.6,49.4V60h-4.8v-9.2c0-2.2-1.3-3.5-3.3-3.5c-2.3,0-3.7,1.9-3.7,4.3V60H246v-9.2c0-2.2-1.3-3.5-3.2-3.5
					c-2.4,0-3.8,1.9-3.8,4.3V60h-4.8V43.1h4.8V46c1.2-2.1,3.2-3.1,5.7-3.1c2.9,0,4.9,1.4,5.7,3.9c1.1-2.6,3.2-3.9,6.1-3.9
					C260.3,42.9,262.6,45.4,262.6,49.4z"/>
				<path d="M283,58.4c0,4.8-3.6,7.9-9,7.9c-2.9,0-5.4-0.9-7.4-2.2l1.8-3.4c1.5,1.1,3.3,1.7,5.3,1.7c2.8,0,4.5-1.5,4.5-3.8v-1.9
					c-1.1,1.6-2.9,2.5-5.1,2.5c-4.4,0-7.4-3.3-7.4-8.2c0-4.8,3-8,7.3-8c2.3,0,4.1,0.9,5.2,2.5v-2.3h4.8V58.4z M278.2,51
					c0-2.6-1.6-4.4-4-4.4s-4,1.8-4,4.4c0,2.6,1.6,4.4,4,4.4C276.6,55.4,278.2,53.6,278.2,51z"/>
			</g>
		</g>
		<g>
			<g>
				<path d="M167.9,24.4l2.3-0.3v-4.9l-4.8-8.4l-1.4-0.3V9.3h5.8v1.2l-1.6,0.3l3,5.8l0.6,1.5l0.7-1.5l2.8-5.8l-1.7-0.3V9.3h5v1.2
					l-1.4,0.3l-4.5,8.4v4.9l2.4,0.2v1.2h-7.3V24.4z"/>
				<path d="M179.5,19.5c0-1,0.2-1.8,0.5-2.6c0.3-0.8,0.8-1.4,1.3-1.9c0.5-0.5,1.2-0.9,1.8-1.2c0.7-0.3,1.4-0.4,2.1-0.4
					c1,0,1.8,0.2,2.5,0.5c0.7,0.3,1.3,0.7,1.7,1.3c0.4,0.5,0.8,1.2,1,1.9c0.2,0.7,0.3,1.5,0.3,2.4c0,1-0.2,1.8-0.5,2.6
					s-0.8,1.4-1.3,1.9c-0.5,0.5-1.2,0.9-1.8,1.2c-0.7,0.3-1.4,0.4-2.1,0.4c-1,0-1.8-0.2-2.5-0.5c-0.7-0.3-1.3-0.7-1.7-1.3
					c-0.4-0.5-0.8-1.2-1-1.9C179.6,21.1,179.5,20.3,179.5,19.5z M185.1,24.2c2,0,2.9-1.5,2.9-4.5c0-0.7-0.1-1.4-0.2-2
					c-0.1-0.6-0.3-1.1-0.5-1.6c-0.2-0.4-0.5-0.8-0.9-1s-0.8-0.4-1.4-0.4c-1,0-1.7,0.4-2.2,1.1c-0.5,0.8-0.7,1.9-0.7,3.4
					c0,0.7,0.1,1.4,0.2,2c0.1,0.6,0.3,1.1,0.5,1.6c0.2,0.4,0.5,0.8,0.9,1C184.1,24.1,184.6,24.2,185.1,24.2z"/>
				<path d="M193.8,14.7l-1.2-0.4v-1l3.1-0.3h0l0.4,0.3v7.5c0,0.6,0,1.1,0.1,1.5s0.2,0.7,0.3,1c0.2,0.3,0.4,0.4,0.7,0.6
					c0.3,0.1,0.6,0.2,1.1,0.2c0.3,0,0.6,0,0.9-0.1s0.5-0.2,0.8-0.3c0.2-0.1,0.4-0.2,0.6-0.3s0.4-0.2,0.5-0.3v-8.2l-1.5-0.4v-1
					l3.4-0.3h0l0.6,0.3v10.9h1.3v1.1c-0.2,0.1-0.5,0.2-0.9,0.3c-0.4,0.1-0.8,0.1-1.2,0.1c-0.4,0-0.8-0.1-1-0.2
					c-0.2-0.2-0.3-0.5-0.3-0.9v-0.6c-0.2,0.2-0.4,0.4-0.7,0.6s-0.6,0.4-0.9,0.5s-0.7,0.3-1.1,0.4c-0.4,0.1-0.8,0.2-1.1,0.2
					c-0.7,0-1.2-0.1-1.7-0.3c-0.5-0.2-0.9-0.4-1.2-0.8c-0.3-0.4-0.5-0.9-0.7-1.5s-0.2-1.3-0.2-2.2V14.7z"/>
				<path d="M213.7,24.4l1.4-0.2v-8.6l-1.5-0.4v-1.3l3.1-0.4h0.1l0.5,0.4v0.9l0,0.5c0.2-0.2,0.5-0.4,0.9-0.7
					c0.3-0.2,0.7-0.4,1.1-0.6c0.4-0.2,0.8-0.3,1.2-0.4c0.4-0.1,0.8-0.2,1.2-0.2c0.7,0,1.3,0.1,1.7,0.3c0.4,0.2,0.8,0.5,1.1,0.9
					c0.3,0.4,0.4,0.9,0.5,1.5c0.1,0.6,0.2,1.4,0.2,2.2v5.9l1.5,0.2v1.1h-5.3v-1.1l1.4-0.2v-5.9c0-0.6,0-1-0.1-1.5
					c-0.1-0.4-0.2-0.8-0.3-1c-0.2-0.3-0.4-0.5-0.6-0.6c-0.3-0.1-0.6-0.2-1.1-0.2c-0.3,0-0.5,0-0.8,0.1c-0.3,0.1-0.6,0.2-0.8,0.3
					c-0.3,0.1-0.5,0.2-0.8,0.4c-0.2,0.1-0.5,0.3-0.6,0.4v8l1.5,0.2v1.1h-5.3V24.4z"/>
				<path d="M228.4,19.5c0-0.9,0.1-1.7,0.4-2.5s0.7-1.4,1.2-1.9c0.5-0.5,1.1-0.9,1.8-1.2s1.5-0.4,2.3-0.4c1.4,0,2.4,0.3,3.2,1
					c0.7,0.7,1.1,1.7,1.2,3c0,0.4,0,0.8,0,1.1c0,0.3-0.1,0.6-0.1,0.8h-7.4c0,0.8,0.1,1.5,0.3,2.1c0.2,0.6,0.5,1.1,0.8,1.4
					c0.3,0.4,0.7,0.6,1.1,0.8c0.4,0.2,0.9,0.3,1.4,0.3c0.3,0,0.6,0,0.9-0.1s0.6-0.1,0.9-0.2c0.3-0.1,0.6-0.2,0.8-0.3
					c0.2-0.1,0.4-0.2,0.6-0.4l0.4,1c-0.2,0.2-0.5,0.4-0.8,0.6c-0.3,0.2-0.7,0.4-1.1,0.5s-0.8,0.3-1.2,0.4c-0.4,0.1-0.9,0.1-1.3,0.1
					c-0.9,0-1.7-0.1-2.4-0.4c-0.7-0.3-1.3-0.7-1.7-1.2c-0.5-0.5-0.8-1.2-1-1.9C228.5,21.2,228.4,20.4,228.4,19.5z M235.9,18.1
					c0-0.1,0-0.3,0-0.4c0-0.1,0-0.3,0-0.4c0-0.4,0-0.7-0.1-1c-0.1-0.3-0.2-0.6-0.4-0.8c-0.2-0.2-0.4-0.4-0.7-0.6
					c-0.3-0.1-0.6-0.2-1.1-0.2c-0.4,0-0.7,0.1-1,0.2s-0.6,0.3-0.8,0.5c-0.2,0.3-0.4,0.6-0.6,1c-0.1,0.4-0.2,1-0.3,1.6H235.9z"/>
				<path d="M240.4,19.5c0-0.9,0.1-1.7,0.4-2.5c0.3-0.7,0.7-1.4,1.2-1.9c0.5-0.5,1.1-0.9,1.8-1.2s1.5-0.4,2.3-0.4
					c1.4,0,2.4,0.3,3.2,1c0.7,0.7,1.1,1.7,1.2,3c0,0.4,0,0.8,0,1.1c0,0.3-0.1,0.6-0.1,0.8H243c0,0.8,0.1,1.5,0.3,2.1
					c0.2,0.6,0.5,1.1,0.8,1.4c0.3,0.4,0.7,0.6,1.1,0.8c0.4,0.2,0.9,0.3,1.4,0.3c0.3,0,0.6,0,0.9-0.1c0.3-0.1,0.6-0.1,0.9-0.2
					c0.3-0.1,0.6-0.2,0.8-0.3c0.2-0.1,0.4-0.2,0.6-0.4l0.4,1c-0.2,0.2-0.5,0.4-0.8,0.6c-0.3,0.2-0.7,0.4-1.1,0.5s-0.8,0.3-1.2,0.4
					c-0.4,0.1-0.9,0.1-1.3,0.1c-0.9,0-1.7-0.1-2.4-0.4c-0.7-0.3-1.3-0.7-1.7-1.2c-0.5-0.5-0.8-1.2-1-1.9
					C240.5,21.2,240.4,20.4,240.4,19.5z M247.9,18.1c0-0.1,0-0.3,0-0.4s0-0.3,0-0.4c0-0.4,0-0.7-0.1-1c-0.1-0.3-0.2-0.6-0.4-0.8
					c-0.2-0.2-0.4-0.4-0.7-0.6c-0.3-0.1-0.6-0.2-1.1-0.2c-0.4,0-0.7,0.1-1,0.2c-0.3,0.1-0.6,0.3-0.8,0.5c-0.2,0.3-0.4,0.6-0.6,1
					c-0.1,0.4-0.2,1-0.3,1.6H247.9z"/>
				<path d="M257.2,25.5c-0.6,0-1.2-0.1-1.8-0.3c-0.6-0.2-1.1-0.6-1.5-1.1c-0.4-0.5-0.8-1.1-1-1.8c-0.3-0.7-0.4-1.6-0.4-2.6
					c0-0.9,0.1-1.7,0.4-2.5s0.7-1.4,1.2-2c0.5-0.6,1.2-1,2-1.4c0.8-0.3,1.7-0.5,2.6-0.5c0.3,0,0.7,0,1,0.1c0.3,0,0.6,0.1,0.9,0.1v-4
					l-2.1-0.2v-1l4-0.4h0.1l0.5,0.4v15.7h1.3v1.1c-0.3,0.1-0.7,0.2-1.1,0.2c-0.4,0.1-0.8,0.1-1.3,0.1c-0.2,0-0.4,0-0.5,0
					c-0.1,0-0.3-0.1-0.4-0.2c-0.1-0.1-0.2-0.2-0.2-0.3s-0.1-0.3-0.1-0.6v-0.6c-0.2,0.2-0.4,0.4-0.7,0.6s-0.5,0.4-0.8,0.5
					s-0.6,0.3-1,0.4C258,25.5,257.6,25.5,257.2,25.5z M258.2,24.1c0.3,0,0.6,0,0.8-0.1c0.3-0.1,0.5-0.2,0.7-0.3
					c0.2-0.1,0.4-0.2,0.6-0.4c0.2-0.1,0.3-0.3,0.4-0.4v-7.5c-0.1-0.1-0.2-0.2-0.3-0.3c-0.1-0.1-0.3-0.2-0.5-0.2
					c-0.2-0.1-0.4-0.1-0.6-0.1c-0.2,0-0.5-0.1-0.7-0.1c-0.5,0-0.9,0.1-1.4,0.3c-0.4,0.2-0.8,0.5-1.1,0.8c-0.3,0.4-0.6,0.9-0.7,1.5
					s-0.3,1.4-0.3,2.2c0,0.8,0.1,1.5,0.2,2c0.2,0.6,0.4,1,0.7,1.4c0.3,0.4,0.6,0.6,1,0.8C257.3,24,257.7,24.1,258.2,24.1z"/>
			</g>
		</g>
		<g>
			<g>
				<path d="M158.1,83.6c0-1,0.2-1.8,0.5-2.6s0.8-1.4,1.3-1.9c0.5-0.5,1.2-0.9,1.8-1.2c0.7-0.3,1.4-0.4,2.1-0.4c1,0,1.8,0.2,2.5,0.5
					c0.7,0.3,1.3,0.7,1.7,1.3c0.4,0.5,0.8,1.2,1,1.9c0.2,0.7,0.3,1.5,0.3,2.4c0,1-0.2,1.8-0.5,2.6s-0.8,1.4-1.3,1.9
					c-0.5,0.5-1.2,0.9-1.8,1.2c-0.7,0.3-1.4,0.4-2.1,0.4c-1,0-1.8-0.2-2.5-0.5c-0.7-0.3-1.3-0.7-1.7-1.3c-0.4-0.5-0.8-1.2-1-1.9
					C158.2,85.3,158.1,84.5,158.1,83.6z M163.7,88.4c2,0,2.9-1.5,2.9-4.5c0-0.7-0.1-1.4-0.2-2c-0.1-0.6-0.3-1.1-0.5-1.6
					c-0.2-0.4-0.5-0.8-0.9-1c-0.4-0.2-0.8-0.4-1.4-0.4c-1,0-1.7,0.4-2.2,1.1c-0.5,0.8-0.7,1.9-0.7,3.4c0,0.7,0.1,1.4,0.2,2
					c0.1,0.6,0.3,1.1,0.5,1.6c0.2,0.4,0.5,0.8,0.9,1C162.7,88.2,163.2,88.4,163.7,88.4z"/>
				<path d="M171.3,88.5l1.8-0.2v-9.2h-2v-1.1l2-0.5v-1c0-0.7,0.1-1.3,0.4-1.8c0.3-0.6,0.7-1.1,1.2-1.5c0.5-0.4,1-0.8,1.6-1
					s1.2-0.4,1.9-0.4c0.4,0,0.6,0,0.8,0.1c0.2,0,0.3,0.1,0.5,0.1v2.3c-0.1,0-0.1-0.1-0.3-0.2s-0.3-0.1-0.5-0.2
					c-0.2-0.1-0.4-0.1-0.6-0.1c-0.2,0-0.5-0.1-0.7-0.1c-0.3,0-0.6,0-0.9,0.1c-0.2,0.1-0.4,0.2-0.6,0.3c-0.1,0.1-0.3,0.3-0.3,0.6
					c-0.1,0.2-0.1,0.6-0.1,1l0,1.7h2.9v1.5h-2.9v9.2l2.3,0.2v1.1h-6.5V88.5z"/>
				<path d="M187,83.8c0-0.9,0.1-1.7,0.4-2.4c0.3-0.8,0.6-1.4,1.2-2c0.5-0.6,1.2-1,1.9-1.4s1.7-0.5,2.7-0.5c0.4,0,0.7,0,1.1,0.1
					s0.6,0.1,0.9,0.2c0.3,0.1,0.5,0.1,0.8,0.2c0.2,0.1,0.4,0.1,0.5,0.2l-0.1,3.1h-1.5l-0.5-1.9c-0.1-0.2-0.3-0.4-0.6-0.5
					c-0.3-0.1-0.7-0.2-1-0.2c-0.5,0-0.9,0.1-1.3,0.3c-0.4,0.2-0.7,0.4-1,0.8s-0.5,0.8-0.6,1.3c-0.1,0.5-0.2,1.2-0.2,1.9
					c0,0.9,0.1,1.6,0.3,2.2c0.2,0.6,0.4,1.1,0.7,1.5c0.3,0.4,0.7,0.7,1.1,0.9c0.4,0.2,0.9,0.3,1.4,0.3c0.3,0,0.6,0,1-0.1
					c0.3-0.1,0.6-0.1,0.8-0.2c0.3-0.1,0.5-0.2,0.7-0.3c0.2-0.1,0.4-0.2,0.6-0.3l0.5,0.9c-0.2,0.2-0.4,0.4-0.7,0.6
					c-0.3,0.2-0.6,0.4-1,0.5c-0.4,0.2-0.7,0.3-1.1,0.4c-0.4,0.1-0.8,0.1-1.2,0.1c-0.9,0-1.7-0.1-2.4-0.4c-0.7-0.3-1.3-0.7-1.7-1.2
					s-0.8-1.1-1-1.9C187.1,85.4,187,84.7,187,83.8z"/>
				<path d="M198.4,86.2c0-0.7,0.2-1.4,0.6-1.9c0.4-0.5,0.9-0.9,1.6-1.3c0.7-0.3,1.4-0.6,2.3-0.7s1.7-0.2,2.7-0.2v-0.5
					c0-0.4,0-0.8-0.1-1.1s-0.2-0.5-0.4-0.7c-0.2-0.2-0.4-0.3-0.7-0.4s-0.7-0.1-1.2-0.1c-0.4,0-0.8,0-1.2,0.1c-0.4,0.1-0.7,0.1-1,0.2
					c-0.3,0.1-0.6,0.2-0.9,0.3s-0.5,0.2-0.7,0.3h0l-0.5-1c0.1-0.1,0.3-0.3,0.7-0.5c0.3-0.2,0.7-0.4,1.2-0.6c0.5-0.2,1-0.3,1.5-0.5
					c0.5-0.1,1.1-0.2,1.6-0.2c0.8,0,1.4,0.1,1.9,0.2c0.5,0.1,0.9,0.4,1.3,0.7c0.3,0.3,0.6,0.7,0.7,1.3c0.1,0.5,0.2,1.1,0.2,1.9v6.6
					h1.3v1c-0.1,0-0.3,0.1-0.5,0.1c-0.2,0-0.4,0.1-0.6,0.1s-0.4,0.1-0.6,0.1s-0.4,0-0.6,0c-0.2,0-0.4,0-0.5,0s-0.3-0.1-0.4-0.1
					c-0.1-0.1-0.2-0.2-0.2-0.3c0-0.1-0.1-0.3-0.1-0.6v-0.5c-0.1,0.1-0.3,0.3-0.5,0.4c-0.2,0.2-0.5,0.4-0.8,0.5s-0.7,0.3-1,0.4
					c-0.4,0.1-0.8,0.2-1.2,0.2c-0.5,0-1-0.1-1.4-0.2c-0.4-0.1-0.8-0.3-1.2-0.6c-0.3-0.3-0.6-0.6-0.8-1.1
					C198.5,87.3,198.4,86.8,198.4,86.2z M201.1,85.9c0,0.4,0.1,0.7,0.2,1c0.1,0.3,0.2,0.5,0.4,0.7c0.2,0.2,0.4,0.3,0.6,0.4
					c0.3,0.1,0.5,0.1,0.8,0.1c0.2,0,0.3,0,0.6-0.1s0.4-0.1,0.6-0.2c0.2-0.1,0.4-0.2,0.6-0.3c0.2-0.1,0.4-0.2,0.6-0.4v-3.8
					c-0.8,0-1.5,0.1-2.1,0.2c-0.6,0.1-1,0.3-1.4,0.6c-0.4,0.2-0.6,0.5-0.8,0.8C201.1,85.2,201.1,85.6,201.1,85.9z"/>
				<path d="M210.7,88.5l1.7-0.2V73.5l-1.7-0.2v-1l3.6-0.5h0l0.5,0.4v16.1l1.8,0.2v1.2h-6V88.5z"/>
				<path d="M218.3,83.8c0-0.9,0.1-1.7,0.4-2.4c0.3-0.8,0.6-1.4,1.2-2s1.2-1,1.9-1.4s1.7-0.5,2.7-0.5c0.4,0,0.7,0,1.1,0.1
					s0.6,0.1,0.9,0.2c0.3,0.1,0.5,0.1,0.8,0.2c0.2,0.1,0.4,0.1,0.5,0.2l-0.1,3.1h-1.5l-0.5-1.9c-0.1-0.2-0.3-0.4-0.6-0.5
					c-0.3-0.1-0.7-0.2-1-0.2c-0.5,0-0.9,0.1-1.3,0.3c-0.4,0.2-0.7,0.4-1,0.8s-0.5,0.8-0.6,1.3c-0.1,0.5-0.2,1.2-0.2,1.9
					c0,0.9,0.1,1.6,0.3,2.2c0.2,0.6,0.4,1.1,0.7,1.5c0.3,0.4,0.7,0.7,1.1,0.9c0.4,0.2,0.9,0.3,1.4,0.3c0.3,0,0.6,0,1-0.1
					c0.3-0.1,0.6-0.1,0.8-0.2c0.3-0.1,0.5-0.2,0.7-0.3c0.2-0.1,0.4-0.2,0.6-0.3l0.5,0.9c-0.2,0.2-0.4,0.4-0.7,0.6
					c-0.3,0.2-0.6,0.4-1,0.5c-0.4,0.2-0.7,0.3-1.1,0.4c-0.4,0.1-0.8,0.1-1.2,0.1c-0.9,0-1.7-0.1-2.4-0.4c-0.7-0.3-1.3-0.7-1.7-1.2
					s-0.8-1.1-1-1.9C218.4,85.4,218.3,84.7,218.3,83.8z"/>
				<path d="M229.6,88.5l1.7-0.2v-8.9l-1.5-0.4v-1.3l3.4-0.4h0.1l0.5,0.4v10.6l1.7,0.2v1.2h-5.9V88.5z M231.7,75
					c-0.2-0.1-0.3-0.2-0.4-0.3c-0.1-0.1-0.2-0.3-0.3-0.5s-0.1-0.4-0.1-0.6c0-0.2,0-0.4,0.1-0.6c0.1-0.2,0.2-0.4,0.3-0.5
					c0.1-0.2,0.3-0.3,0.5-0.4c0.2-0.1,0.4-0.1,0.7-0.1h0c0.2,0,0.4,0,0.6,0.1c0.2,0.1,0.3,0.2,0.5,0.3c0.1,0.1,0.2,0.3,0.3,0.5
					s0.1,0.4,0.1,0.6c0,0.2,0,0.5-0.1,0.7c-0.1,0.2-0.2,0.4-0.3,0.5c-0.1,0.2-0.3,0.3-0.5,0.4c-0.2,0.1-0.5,0.1-0.7,0.1h0
					C232,75.2,231.8,75.1,231.7,75z"/>
				<path d="M238.3,78.8l-1.2-0.4v-1l3.1-0.3h0l0.4,0.3v7.5c0,0.6,0,1.1,0.1,1.5s0.2,0.7,0.3,1c0.2,0.3,0.4,0.4,0.7,0.6
					c0.3,0.1,0.6,0.2,1.1,0.2c0.3,0,0.6,0,0.9-0.1s0.5-0.2,0.8-0.3c0.2-0.1,0.4-0.2,0.6-0.3c0.2-0.1,0.4-0.2,0.5-0.3v-8.2l-1.5-0.4
					v-1l3.4-0.3h0l0.6,0.3v10.9h1.3v1.1c-0.2,0.1-0.5,0.2-0.9,0.3s-0.8,0.1-1.2,0.1c-0.4,0-0.8-0.1-1-0.2c-0.2-0.2-0.3-0.5-0.3-0.9
					V88c-0.2,0.2-0.4,0.4-0.7,0.6c-0.3,0.2-0.6,0.4-0.9,0.5s-0.7,0.3-1.1,0.4c-0.4,0.1-0.8,0.2-1.1,0.2c-0.7,0-1.2-0.1-1.7-0.3
					c-0.5-0.2-0.9-0.4-1.2-0.8s-0.5-0.9-0.7-1.5c-0.1-0.6-0.2-1.3-0.2-2.2V78.8z"/>
				<path d="M251.5,88.6l1.3-0.2v-8.6l-1.5-0.4V78l3.1-0.4h0.1l0.5,0.4v0.9l0,0.5c0.2-0.2,0.5-0.4,0.9-0.7c0.4-0.2,0.7-0.4,1.1-0.6
					c0.4-0.2,0.8-0.3,1.2-0.4c0.4-0.1,0.8-0.2,1.2-0.2c0.8,0,1.4,0.1,1.9,0.4c0.5,0.3,0.8,0.7,1.1,1.2c0.2-0.2,0.5-0.4,0.8-0.5
					c0.3-0.2,0.7-0.4,1.1-0.5c0.4-0.2,0.8-0.3,1.2-0.4c0.4-0.1,0.8-0.2,1.2-0.2c0.7,0,1.3,0.1,1.7,0.3c0.5,0.2,0.8,0.5,1.1,0.9
					c0.3,0.4,0.5,0.9,0.6,1.5c0.1,0.6,0.2,1.3,0.2,2.2v5.9l1.5,0.2v1.1h-5.2v-1.1l1.3-0.2v-5.8c0-0.6,0-1.1-0.1-1.5
					c-0.1-0.4-0.2-0.8-0.3-1c-0.2-0.3-0.4-0.5-0.7-0.6c-0.3-0.1-0.7-0.2-1.2-0.2c-0.2,0-0.5,0-0.7,0.1s-0.5,0.1-0.7,0.2
					c-0.2,0.1-0.5,0.2-0.7,0.3c-0.2,0.1-0.4,0.2-0.6,0.4c0.1,0.3,0.1,0.7,0.1,1.1c0,0.4,0,0.8,0,1.3v5.8l1.6,0.2v1.1H259v-1.1
					l1.4-0.2v-5.9c0-0.6,0-1-0.1-1.5c0-0.4-0.2-0.8-0.3-1c-0.2-0.3-0.4-0.5-0.7-0.6c-0.3-0.1-0.6-0.2-1.1-0.2c-0.3,0-0.5,0-0.8,0.1
					c-0.3,0.1-0.5,0.1-0.8,0.3c-0.3,0.1-0.5,0.2-0.7,0.4c-0.2,0.1-0.5,0.3-0.6,0.4v8l1.4,0.2v1.1h-5.2V88.6z"/>
			</g>
		</g>
		<g>
			<g>
				<polygon class="st2" points="138.1,150.3 201.1,150.3 192.8,219 146.4,219 				"/>
				<g id="Illlatte_9_">
					<polygon class="st3" points="190.6,217.1 144.2,217.1 133.7,129.8 201.1,129.8 					"/>
					<line class="st3" x1="198.9" y1="148.4" x2="135.9" y2="148.4"/>
				</g>
			</g>
			<g>
				<polygon class="st2" points="229.5,150.3 292.5,150.3 284.2,219 237.8,219 				"/>
				<g id="Illlatte_8_">
					<polygon class="st3" points="282,217.1 235.6,217.1 225.1,129.8 292.5,129.8 					"/>
					<line class="st3" x1="290.3" y1="148.4" x2="227.3" y2="148.4"/>
				</g>
			</g>
			<g>
				<polygon class="st2" points="326.4,196.1 329.2,219 375.6,219 378.4,196.1 				"/>
				<g id="Illlatte_7_">
					<polygon class="st3" points="373.4,217.1 327,217.1 316.5,129.8 383.9,129.8 					"/>
					<line class="st3" x1="376.1" y1="194.4" x2="324.2" y2="194.4"/>
				</g>
			</g>
			<g>
				<polygon class="st2" points="46.7,150.3 109.7,150.3 101.4,219 55,219 				"/>
				<g id="Illlatte_6_">
					<polygon class="st3" points="99.2,217.1 52.8,217.1 42.2,129.8 109.7,129.8 					"/>
					<line class="st3" x1="107.5" y1="148.4" x2="44.5" y2="148.4"/>
				</g>
			</g>
		</g>
	</g>
</g>
</svg>
