<?xml version="1.0" encoding="utf-8"?>
<!-- Generator: Adobe Illustrator 17.0.0, SVG Export Plug-In . SVG Version: 6.00 Build 0)  -->
<!DOCTYPE svg PUBLIC "-//W3C//DTD SVG 1.1//EN" "http://www.w3.org/Graphics/SVG/1.1/DTD/svg11.dtd">
<svg version="1.1" xmlns="http://www.w3.org/2000/svg" xmlns:xlink="http://www.w3.org/1999/xlink" x="0px" y="0px" width="515.4px"
	 height="266px" viewBox="0 0 515.4 266" style="enable-background:new 0 0 515.4 266;" xml:space="preserve">
<style type="text/css">
	.st0{display:none;opacity:0.5;}
	.st1{display:inline;fill:#F8BF9A;}
	.st2{fill:#FFFFFF;}
	.st3{fill:none;stroke:#000000;stroke-width:1.043;stroke-miterlimit:10;}
</style>
<g id="Layer_12" class="st0">
</g>
<g id="Layer_7">
	<g>
		<g>
			<path d="M113.5,244.9l-1.5,1.9c-1.1-1.2-2.7-1.9-4.2-1.9c-3,0-5.4,2.4-5.4,5.4c0,3,2.4,5.4,5.4,5.4c1.5,0,3.1-0.7,4.2-1.8
				l1.5,1.7c-1.5,1.5-3.7,2.5-5.9,2.5c-4.5,0-7.9-3.4-7.9-7.7c0-4.3,3.5-7.7,8-7.7C109.9,242.6,112,243.5,113.5,244.9z"/>
			<path d="M129.3,251.6c0,4-2.5,6.4-6.6,6.4c-4.1,0-6.6-2.4-6.6-6.4v-8.9h2.6v8.9c0,2.6,1.6,4.1,4.1,4.1c2.5,0,4-1.5,4-4.1v-8.9
				h2.6V251.6z"/>
			<path d="M139.3,242.7c3.8,0,6,1.9,6,5.2c0,3.4-2.2,5.4-6,5.4h-3.5v4.6h-2.6v-15.2H139.3z M135.8,251h3.4c2.4,0,3.7-1,3.7-3.1
				c0-2-1.3-3-3.7-3h-3.4V251z"/>
			<path d="M158.4,244.1l-1.1,2.3c-1.7-1-3.3-1.4-4.5-1.4c-1.5,0-2.5,0.6-2.5,1.6c0,3.3,8.2,1.5,8.2,7c0,2.7-2.4,4.4-5.7,4.4
				c-2.4,0-4.7-1-6.2-2.4l1.1-2.2c1.6,1.4,3.5,2.2,5.2,2.2c1.8,0,2.9-0.7,2.9-1.9c0-3.4-8.2-1.5-8.2-6.9c0-2.6,2.2-4.2,5.6-4.2
				C155.1,242.5,157,243.2,158.4,244.1z"/>
			<path d="M182.5,250.3c0,4.4-3.5,7.7-8.1,7.7c-4.5,0-8.1-3.4-8.1-7.7c0-4.4,3.5-7.7,8.1-7.7C179,242.6,182.5,245.9,182.5,250.3z
				 M169,250.3c0,3,2.5,5.4,5.5,5.4s5.4-2.4,5.4-5.4c0-3-2.4-5.4-5.4-5.4C171.5,244.9,169,247.2,169,250.3z"/>
			<path d="M188.1,245v4.4h6.9v2.3h-6.9v6.2h-2.6v-15.2h10.2l0,2.3H188.1z"/>
			<path d="M210.1,242.7c3.8,0,6,1.9,6,5.2c0,3.4-2.2,5.4-6,5.4h-3.5v4.6h-2.6v-15.2H210.1z M206.6,251h3.4c2.4,0,3.7-1,3.7-3.1
				c0-2-1.3-3-3.7-3h-3.4V251z"/>
			<path d="M220.1,254.5l-1.5,3.4H216l6.7-15.2h2.6l6.7,15.2h-2.7l-1.5-3.4H220.1z M223.9,245.4l-2.9,6.8h5.7L223.9,245.4z"/>
			<path d="M244.4,244.1l-1.1,2.3c-1.7-1-3.3-1.4-4.5-1.4c-1.5,0-2.5,0.6-2.5,1.6c0,3.3,8.2,1.5,8.2,7c0,2.7-2.4,4.4-5.7,4.4
				c-2.4,0-4.7-1-6.2-2.4l1.1-2.2c1.6,1.4,3.5,2.2,5.2,2.2c1.8,0,2.9-0.7,2.9-1.9c0-3.4-8.2-1.5-8.2-6.9c0-2.6,2.2-4.2,5.6-4.2
				C241.1,242.5,243,243.2,244.4,244.1z"/>
			<path d="M253.4,245v12.9h-2.6V245h-4.8v-2.3h12.2v2.3H253.4z"/>
			<path d="M263.2,245v4.1h7.4v2.3h-7.4v4.2h8.6v2.3h-11.1v-15.2h10.9v2.3H263.2z"/>
			<path d="M288.1,251.6c0,4-2.5,6.4-6.6,6.4c-4.1,0-6.6-2.4-6.6-6.4v-8.9h2.6v8.9c0,2.6,1.6,4.1,4.1,4.1c2.5,0,4-1.5,4-4.1v-8.9
				h2.6V251.6z"/>
			<path d="M298.9,253.3c-0.2,0-0.5,0-0.7,0h-3.6v4.6H292v-15.2h6.2c3.9,0,6.1,1.9,6.1,5.2c0,2.4-1.1,4.2-3.2,4.9l3.4,5.1h-2.9
				L298.9,253.3z M298.2,251c2.4,0,3.7-1,3.7-3.1c0-2-1.3-3-3.7-3h-3.6v6H298.2z"/>
			<path d="M308,257.9v-15.2h2.6v15.2H308z"/>
			<path d="M317,255.6h9.4v2.3h-12.9V256l9.3-11.1h-9v-2.3h12.5v1.9L317,255.6z"/>
			<path d="M332,245v4.1h7.4v2.3H332v4.2h8.6v2.3h-11.1v-15.2h10.9v2.3H332z"/>
			<path d="M350.2,242.7c4.6,0,7.9,3.2,7.9,7.6c0,4.4-3.3,7.6-7.9,7.6H344v-15.2H350.2z M346.5,255.6h3.7c3,0,5.2-2.2,5.2-5.3
				c0-3.1-2.3-5.3-5.3-5.3h-3.6V255.6z"/>
			<path d="M380.6,257.9l0-11.4l-4.8,9.8h-1.7l-4.8-9.8v11.4h-2.4v-15.2h3l5,10.1l5-10.1h3v15.2H380.6z"/>
			<path d="M387.2,257.9v-15.2h2.6v15.2H387.2z"/>
			<path d="M403.2,255.6v2.3H394v-15.2h2.6v12.9H403.2z"/>
			<path d="M411,251.2l-2.6,2.9v3.9h-2.6v-15.2h2.6v7.9l7.3-7.9h3l-5.9,6.5l6.3,8.7H416L411,251.2z"/>
		</g>
		<g>
			<g>
				<path d="M195.4,60V42.2h-4.1V38h9.1v22H195.4z"/>
				<path d="M214.5,47.1c3.3,0.5,5.7,2.6,5.7,6c0,4.2-3.2,7.1-8.3,7.1c-2.9,0-6-1-8-2.6l2-3.9c1.6,1.7,3.6,2.5,5.6,2.5
					c2.4,0,3.8-1.2,3.8-3.1c0-2-1.4-3-3.8-3h-3.4v-2.8l5.2-5.4h-8.3v-4h14.1v3l-5.8,6L214.5,47.1z"/>
				<path d="M242.2,48.9c0,7.2-3.4,11.2-9.6,11.2c-6.2,0-9.6-4-9.6-11.2c0-7.2,3.4-11.1,9.6-11.1C238.8,37.8,242.2,41.8,242.2,48.9z
					 M228.1,48.9c0,5.2,1.4,7.4,4.5,7.4c3.1,0,4.5-2.2,4.5-7.4c0-5.2-1.4-7.3-4.5-7.3C229.5,41.6,228.1,43.8,228.1,48.9z"/>
				<path d="M264.5,48.9c0,7.2-3.4,11.2-9.6,11.2c-6.2,0-9.6-4-9.6-11.2c0-7.2,3.4-11.1,9.6-11.1C261.1,37.8,264.5,41.8,264.5,48.9z
					 M250.4,48.9c0,5.2,1.4,7.4,4.5,7.4c3.1,0,4.5-2.2,4.5-7.4c0-5.2-1.4-7.3-4.5-7.3C251.8,41.6,250.4,43.8,250.4,48.9z"/>
				<path d="M304.9,49.4V60h-4.8v-9.2c0-2.2-1.3-3.5-3.3-3.5c-2.3,0-3.7,1.9-3.7,4.3V60h-4.8v-9.2c0-2.2-1.3-3.5-3.2-3.5
					c-2.4,0-3.8,1.9-3.8,4.3V60h-4.8V43.1h4.8V46c1.2-2.1,3.2-3.1,5.7-3.1c2.9,0,4.9,1.4,5.7,3.9c1.1-2.6,3.2-3.9,6.1-3.9
					C302.6,42.9,304.9,45.4,304.9,49.4z"/>
				<path d="M325.3,58.4c0,4.8-3.6,7.9-9,7.9c-2.9,0-5.4-0.9-7.4-2.2l1.8-3.4c1.5,1.1,3.3,1.7,5.2,1.7c2.8,0,4.5-1.5,4.5-3.8v-1.9
					c-1.1,1.6-2.9,2.5-5.1,2.5c-4.4,0-7.4-3.3-7.4-8.2c0-4.8,3-8,7.3-8c2.3,0,4.1,0.9,5.2,2.5v-2.3h4.8V58.4z M320.4,51
					c0-2.6-1.6-4.4-4-4.4s-4,1.8-4,4.4c0,2.6,1.6,4.4,4,4.4C318.8,55.4,320.4,53.6,320.4,51z"/>
			</g>
		</g>
		<g>
			<g>
				<path d="M212.5,24.4l2.3-0.3v-4.9l-4.8-8.4l-1.4-0.3V9.3h5.8v1.2l-1.6,0.3l3,5.8l0.6,1.5l0.7-1.5l2.8-5.8l-1.7-0.3V9.3h5v1.2
					l-1.4,0.3l-4.5,8.4v4.9l2.4,0.2v1.2h-7.3V24.4z"/>
				<path d="M224.1,19.5c0-1,0.2-1.8,0.5-2.6s0.8-1.4,1.3-1.9c0.5-0.5,1.2-0.9,1.8-1.2c0.7-0.3,1.4-0.4,2.1-0.4c1,0,1.8,0.2,2.5,0.5
					c0.7,0.3,1.3,0.7,1.7,1.3c0.4,0.5,0.8,1.2,1,1.9c0.2,0.7,0.3,1.5,0.3,2.4c0,1-0.2,1.8-0.5,2.6s-0.8,1.4-1.3,1.9
					c-0.5,0.5-1.2,0.9-1.8,1.2c-0.7,0.3-1.4,0.4-2.1,0.4c-1,0-1.8-0.2-2.5-0.5s-1.3-0.7-1.7-1.3c-0.4-0.5-0.8-1.2-1-1.9
					C224.2,21.1,224.1,20.3,224.1,19.5z M229.7,24.2c2,0,2.9-1.5,2.9-4.5c0-0.7-0.1-1.4-0.2-2c-0.1-0.6-0.3-1.1-0.5-1.6
					c-0.2-0.4-0.5-0.8-0.9-1c-0.4-0.2-0.8-0.4-1.4-0.4c-1,0-1.7,0.4-2.2,1.1c-0.5,0.8-0.7,1.9-0.7,3.4c0,0.7,0.1,1.4,0.2,2
					c0.1,0.6,0.3,1.1,0.5,1.6c0.2,0.4,0.5,0.8,0.9,1C228.7,24.1,229.2,24.2,229.7,24.2z"/>
				<path d="M238.4,14.7l-1.2-0.4v-1l3.1-0.3h0l0.4,0.3v7.5c0,0.6,0,1.1,0.1,1.5s0.2,0.7,0.3,1s0.4,0.4,0.7,0.6
					c0.3,0.1,0.6,0.2,1.1,0.2c0.3,0,0.6,0,0.9-0.1c0.3-0.1,0.5-0.2,0.8-0.3c0.2-0.1,0.4-0.2,0.6-0.3s0.4-0.2,0.5-0.3v-8.2l-1.5-0.4
					v-1l3.4-0.3h0l0.6,0.3v10.9h1.3v1.1c-0.2,0.1-0.5,0.2-0.9,0.3c-0.4,0.1-0.8,0.1-1.2,0.1c-0.4,0-0.8-0.1-1-0.2s-0.3-0.5-0.3-0.9
					v-0.6c-0.2,0.2-0.4,0.4-0.7,0.6s-0.6,0.4-0.9,0.5s-0.7,0.3-1.1,0.4c-0.4,0.1-0.8,0.2-1.1,0.2c-0.7,0-1.2-0.1-1.7-0.3
					c-0.5-0.2-0.9-0.4-1.2-0.8c-0.3-0.4-0.5-0.9-0.7-1.5s-0.2-1.3-0.2-2.2V14.7z"/>
				<path d="M258.3,24.4l1.4-0.2v-8.6l-1.5-0.4v-1.3l3.1-0.4h0.1l0.5,0.4v0.9l0,0.5c0.2-0.2,0.5-0.4,0.9-0.7
					c0.3-0.2,0.7-0.4,1.1-0.6c0.4-0.2,0.8-0.3,1.2-0.4c0.4-0.1,0.8-0.2,1.2-0.2c0.7,0,1.3,0.1,1.7,0.3c0.4,0.2,0.8,0.5,1.1,0.9
					c0.3,0.4,0.4,0.9,0.5,1.5c0.1,0.6,0.2,1.4,0.2,2.2v5.9l1.5,0.2v1.1H266v-1.1l1.4-0.2v-5.9c0-0.6,0-1-0.1-1.5
					c-0.1-0.4-0.2-0.8-0.3-1c-0.2-0.3-0.4-0.5-0.6-0.6c-0.3-0.1-0.6-0.2-1.1-0.2c-0.3,0-0.5,0-0.8,0.1c-0.3,0.1-0.6,0.2-0.8,0.3
					c-0.3,0.1-0.5,0.2-0.8,0.4c-0.2,0.1-0.5,0.3-0.6,0.4v8l1.5,0.2v1.1h-5.3V24.4z"/>
				<path d="M273,19.5c0-0.9,0.1-1.7,0.4-2.5s0.7-1.4,1.2-1.9s1.1-0.9,1.8-1.2c0.7-0.3,1.5-0.4,2.3-0.4c1.4,0,2.4,0.3,3.2,1
					c0.7,0.7,1.1,1.7,1.2,3c0,0.4,0,0.8,0,1.1c0,0.3-0.1,0.6-0.1,0.8h-7.4c0,0.8,0.1,1.5,0.3,2.1c0.2,0.6,0.5,1.1,0.8,1.4
					c0.3,0.4,0.7,0.6,1.1,0.8c0.4,0.2,0.9,0.3,1.4,0.3c0.3,0,0.6,0,0.9-0.1c0.3-0.1,0.6-0.1,0.9-0.2c0.3-0.1,0.6-0.2,0.8-0.3
					c0.2-0.1,0.4-0.2,0.6-0.4l0.4,1c-0.2,0.2-0.5,0.4-0.8,0.6s-0.7,0.4-1.1,0.5c-0.4,0.1-0.8,0.3-1.2,0.4c-0.4,0.1-0.9,0.1-1.3,0.1
					c-0.9,0-1.7-0.1-2.4-0.4c-0.7-0.3-1.3-0.7-1.7-1.2c-0.5-0.5-0.8-1.2-1-1.9C273.1,21.2,273,20.4,273,19.5z M280.5,18.1
					c0-0.1,0-0.3,0-0.4s0-0.3,0-0.4c0-0.4,0-0.7-0.1-1c-0.1-0.3-0.2-0.6-0.4-0.8c-0.2-0.2-0.4-0.4-0.7-0.6c-0.3-0.1-0.6-0.2-1.1-0.2
					c-0.4,0-0.7,0.1-1,0.2c-0.3,0.1-0.6,0.3-0.8,0.5c-0.2,0.3-0.4,0.6-0.6,1c-0.1,0.4-0.2,1-0.3,1.6H280.5z"/>
				<path d="M285,19.5c0-0.9,0.1-1.7,0.4-2.5s0.7-1.4,1.2-1.9s1.1-0.9,1.8-1.2c0.7-0.3,1.5-0.4,2.3-0.4c1.4,0,2.4,0.3,3.2,1
					c0.7,0.7,1.1,1.7,1.2,3c0,0.4,0,0.8,0,1.1s-0.1,0.6-0.1,0.8h-7.4c0,0.8,0.1,1.5,0.3,2.1c0.2,0.6,0.5,1.1,0.8,1.4
					c0.3,0.4,0.7,0.6,1.1,0.8c0.4,0.2,0.9,0.3,1.4,0.3c0.3,0,0.6,0,0.9-0.1s0.6-0.1,0.9-0.2c0.3-0.1,0.6-0.2,0.8-0.3
					c0.2-0.1,0.4-0.2,0.6-0.4l0.4,1c-0.2,0.2-0.5,0.4-0.8,0.6s-0.7,0.4-1.1,0.5s-0.8,0.3-1.2,0.4c-0.4,0.1-0.9,0.1-1.3,0.1
					c-0.9,0-1.7-0.1-2.4-0.4c-0.7-0.3-1.3-0.7-1.7-1.2c-0.5-0.5-0.8-1.2-1-1.9C285.1,21.2,285,20.4,285,19.5z M292.5,18.1
					c0-0.1,0-0.3,0-0.4s0-0.3,0-0.4c0-0.4,0-0.7-0.1-1c-0.1-0.3-0.2-0.6-0.4-0.8c-0.2-0.2-0.4-0.4-0.7-0.6c-0.3-0.1-0.6-0.2-1.1-0.2
					c-0.4,0-0.7,0.1-1,0.2c-0.3,0.1-0.6,0.3-0.8,0.5c-0.2,0.3-0.4,0.6-0.6,1c-0.1,0.4-0.2,1-0.3,1.6H292.5z"/>
				<path d="M301.8,25.5c-0.6,0-1.2-0.1-1.8-0.3c-0.6-0.2-1.1-0.6-1.5-1.1c-0.4-0.5-0.8-1.1-1-1.8s-0.4-1.6-0.4-2.6
					c0-0.9,0.1-1.7,0.4-2.5c0.3-0.8,0.7-1.4,1.2-2c0.5-0.6,1.2-1,2-1.4c0.8-0.3,1.7-0.5,2.6-0.5c0.3,0,0.7,0,1,0.1s0.6,0.1,0.9,0.1
					v-4l-2.1-0.2v-1l4-0.4h0.1l0.5,0.4v15.7h1.3v1.1c-0.3,0.1-0.6,0.2-1.1,0.2c-0.4,0.1-0.8,0.1-1.3,0.1c-0.2,0-0.4,0-0.5,0
					c-0.1,0-0.3-0.1-0.4-0.2c-0.1-0.1-0.2-0.2-0.2-0.3s-0.1-0.3-0.1-0.6v-0.6c-0.2,0.2-0.4,0.4-0.7,0.6s-0.5,0.4-0.8,0.5
					s-0.6,0.3-1,0.4C302.6,25.5,302.2,25.5,301.8,25.5z M302.8,24.1c0.3,0,0.6,0,0.8-0.1c0.3-0.1,0.5-0.2,0.7-0.3
					c0.2-0.1,0.4-0.2,0.6-0.4c0.2-0.1,0.3-0.3,0.4-0.4v-7.5c-0.1-0.1-0.1-0.2-0.3-0.3c-0.1-0.1-0.3-0.2-0.5-0.2
					c-0.2-0.1-0.4-0.1-0.6-0.1c-0.2,0-0.5-0.1-0.7-0.1c-0.5,0-0.9,0.1-1.4,0.3c-0.4,0.2-0.8,0.5-1.1,0.8c-0.3,0.4-0.6,0.9-0.7,1.5
					s-0.3,1.4-0.3,2.2c0,0.8,0.1,1.5,0.2,2c0.2,0.6,0.4,1,0.7,1.4c0.3,0.4,0.6,0.6,1,0.8C301.9,24,302.3,24.1,302.8,24.1z"/>
			</g>
		</g>
		<g>
			<g>
				<path d="M202.7,83.6c0-1,0.2-1.8,0.5-2.6s0.8-1.4,1.3-1.9c0.5-0.5,1.2-0.9,1.8-1.2c0.7-0.3,1.4-0.4,2.1-0.4c1,0,1.8,0.2,2.5,0.5
					c0.7,0.3,1.3,0.7,1.7,1.3c0.4,0.5,0.8,1.2,1,1.9c0.2,0.7,0.3,1.5,0.3,2.4c0,1-0.2,1.8-0.5,2.6c-0.3,0.8-0.8,1.4-1.3,1.9
					c-0.5,0.5-1.2,0.9-1.8,1.2c-0.7,0.3-1.4,0.4-2.1,0.4c-1,0-1.8-0.2-2.5-0.5c-0.7-0.3-1.3-0.7-1.7-1.3c-0.4-0.5-0.8-1.2-1-1.9
					C202.8,85.3,202.7,84.5,202.7,83.6z M208.3,88.4c2,0,2.9-1.5,2.9-4.5c0-0.7-0.1-1.4-0.2-2c-0.1-0.6-0.3-1.1-0.5-1.6
					c-0.2-0.4-0.5-0.8-0.9-1c-0.4-0.2-0.8-0.4-1.4-0.4c-1,0-1.7,0.4-2.2,1.1c-0.5,0.8-0.7,1.9-0.7,3.4c0,0.7,0.1,1.4,0.2,2
					c0.1,0.6,0.3,1.1,0.5,1.6c0.2,0.4,0.5,0.8,0.9,1C207.3,88.2,207.8,88.4,208.3,88.4z"/>
				<path d="M215.9,88.5l1.8-0.2v-9.2h-2v-1.1l2-0.5v-1c0-0.7,0.1-1.3,0.4-1.8c0.3-0.6,0.7-1.1,1.2-1.5c0.5-0.4,1-0.8,1.6-1
					s1.2-0.4,1.9-0.4c0.4,0,0.6,0,0.8,0.1c0.2,0,0.3,0.1,0.5,0.1v2.3c-0.1,0-0.1-0.1-0.3-0.2s-0.3-0.1-0.5-0.2
					c-0.2-0.1-0.4-0.1-0.6-0.1c-0.2,0-0.5-0.1-0.7-0.1c-0.3,0-0.6,0-0.9,0.1c-0.2,0.1-0.4,0.2-0.6,0.3c-0.1,0.1-0.2,0.3-0.3,0.6
					c-0.1,0.2-0.1,0.6-0.1,1l0,1.7h2.9v1.5h-2.9v9.2l2.3,0.2v1.1h-6.5V88.5z"/>
				<path d="M231.6,83.8c0-0.9,0.1-1.7,0.4-2.4c0.3-0.8,0.6-1.4,1.2-2c0.5-0.6,1.2-1,1.9-1.4s1.7-0.5,2.7-0.5c0.4,0,0.7,0,1.1,0.1
					s0.6,0.1,0.9,0.2c0.3,0.1,0.5,0.1,0.8,0.2c0.2,0.1,0.4,0.1,0.5,0.2l-0.1,3.1h-1.5l-0.5-1.9c-0.1-0.2-0.3-0.4-0.6-0.5
					c-0.3-0.1-0.7-0.2-1-0.2c-0.5,0-0.9,0.1-1.3,0.3c-0.4,0.2-0.7,0.4-1,0.8s-0.5,0.8-0.6,1.3c-0.1,0.5-0.2,1.2-0.2,1.9
					c0,0.9,0.1,1.6,0.3,2.2c0.2,0.6,0.4,1.1,0.7,1.5c0.3,0.4,0.7,0.7,1.1,0.9c0.4,0.2,0.9,0.3,1.4,0.3c0.3,0,0.7,0,1-0.1
					c0.3-0.1,0.6-0.1,0.8-0.2c0.3-0.1,0.5-0.2,0.7-0.3c0.2-0.1,0.4-0.2,0.6-0.3l0.5,0.9c-0.2,0.2-0.4,0.4-0.7,0.6s-0.6,0.4-1,0.5
					c-0.4,0.2-0.7,0.3-1.1,0.4c-0.4,0.1-0.8,0.1-1.2,0.1c-0.9,0-1.7-0.1-2.4-0.4c-0.7-0.3-1.3-0.7-1.7-1.2s-0.8-1.1-1-1.9
					C231.7,85.4,231.6,84.7,231.6,83.8z"/>
				<path d="M243,86.2c0-0.7,0.2-1.4,0.6-1.9c0.4-0.5,0.9-0.9,1.6-1.3c0.7-0.3,1.4-0.6,2.3-0.7s1.7-0.2,2.7-0.2v-0.5
					c0-0.4,0-0.8-0.1-1.1s-0.2-0.5-0.4-0.7c-0.2-0.2-0.4-0.3-0.7-0.4s-0.7-0.1-1.2-0.1c-0.4,0-0.8,0-1.2,0.1c-0.4,0.1-0.7,0.1-1,0.2
					c-0.3,0.1-0.6,0.2-0.9,0.3s-0.5,0.2-0.7,0.3h0l-0.5-1c0.1-0.1,0.3-0.3,0.7-0.5c0.3-0.2,0.7-0.4,1.2-0.6c0.5-0.2,1-0.3,1.5-0.5
					c0.5-0.1,1.1-0.2,1.6-0.2c0.8,0,1.4,0.1,1.9,0.2c0.5,0.1,0.9,0.4,1.3,0.7c0.3,0.3,0.6,0.7,0.7,1.3c0.1,0.5,0.2,1.1,0.2,1.9v6.6
					h1.3v1c-0.1,0-0.3,0.1-0.5,0.1c-0.2,0-0.4,0.1-0.6,0.1s-0.4,0.1-0.6,0.1c-0.2,0-0.4,0-0.6,0c-0.2,0-0.4,0-0.5,0
					s-0.3-0.1-0.4-0.1c-0.1-0.1-0.2-0.2-0.2-0.3c0-0.1-0.1-0.3-0.1-0.6v-0.5c-0.1,0.1-0.3,0.3-0.5,0.4s-0.5,0.4-0.8,0.5
					s-0.7,0.3-1,0.4s-0.8,0.2-1.2,0.2c-0.5,0-1-0.1-1.4-0.2c-0.4-0.1-0.8-0.3-1.2-0.6c-0.3-0.3-0.6-0.6-0.8-1.1
					C243.1,87.3,243,86.8,243,86.2z M245.7,85.9c0,0.4,0.1,0.7,0.2,1c0.1,0.3,0.2,0.5,0.4,0.7c0.2,0.2,0.4,0.3,0.6,0.4
					c0.3,0.1,0.5,0.1,0.8,0.1c0.2,0,0.3,0,0.6-0.1s0.4-0.1,0.6-0.2c0.2-0.1,0.4-0.2,0.6-0.3c0.2-0.1,0.4-0.2,0.6-0.4v-3.8
					c-0.8,0-1.5,0.1-2.1,0.2c-0.6,0.1-1,0.3-1.4,0.6c-0.4,0.2-0.6,0.5-0.8,0.8S245.7,85.6,245.7,85.9z"/>
				<path d="M255.3,88.5l1.7-0.2V73.5l-1.7-0.2v-1l3.6-0.5h0l0.5,0.4v16.1l1.8,0.2v1.2h-6V88.5z"/>
				<path d="M262.9,83.8c0-0.9,0.1-1.7,0.4-2.4c0.3-0.8,0.6-1.4,1.2-2c0.5-0.6,1.2-1,1.9-1.4c0.8-0.3,1.7-0.5,2.7-0.5
					c0.4,0,0.7,0,1.1,0.1c0.3,0,0.6,0.1,0.9,0.2c0.3,0.1,0.5,0.1,0.8,0.2c0.2,0.1,0.4,0.1,0.5,0.2l-0.1,3.1h-1.5l-0.5-1.9
					c-0.1-0.2-0.3-0.4-0.6-0.5c-0.3-0.1-0.7-0.2-1-0.2c-0.5,0-0.9,0.1-1.3,0.3c-0.4,0.2-0.7,0.4-1,0.8s-0.5,0.8-0.6,1.3
					c-0.1,0.5-0.2,1.2-0.2,1.9c0,0.9,0.1,1.6,0.3,2.2c0.2,0.6,0.4,1.1,0.7,1.5c0.3,0.4,0.7,0.7,1.1,0.9c0.4,0.2,0.9,0.3,1.4,0.3
					c0.3,0,0.7,0,1-0.1c0.3-0.1,0.6-0.1,0.8-0.2c0.3-0.1,0.5-0.2,0.7-0.3c0.2-0.1,0.4-0.2,0.6-0.3l0.5,0.9c-0.2,0.2-0.4,0.4-0.7,0.6
					c-0.3,0.2-0.6,0.4-1,0.5c-0.4,0.2-0.7,0.3-1.1,0.4c-0.4,0.1-0.8,0.1-1.2,0.1c-0.9,0-1.7-0.1-2.4-0.4c-0.7-0.3-1.3-0.7-1.7-1.2
					c-0.5-0.5-0.8-1.1-1-1.9C263,85.4,262.9,84.7,262.9,83.8z"/>
				<path d="M274.2,88.5l1.7-0.2v-8.9l-1.5-0.4v-1.3l3.4-0.4h0.1l0.5,0.4v10.6l1.7,0.2v1.2h-5.9V88.5z M276.3,75
					c-0.2-0.1-0.3-0.2-0.4-0.3c-0.1-0.1-0.2-0.3-0.3-0.5s-0.1-0.4-0.1-0.6c0-0.2,0-0.4,0.1-0.6c0.1-0.2,0.2-0.4,0.3-0.5
					c0.1-0.2,0.3-0.3,0.5-0.4c0.2-0.1,0.4-0.1,0.7-0.1h0c0.2,0,0.4,0,0.6,0.1c0.2,0.1,0.3,0.2,0.5,0.3c0.1,0.1,0.2,0.3,0.3,0.5
					c0.1,0.2,0.1,0.4,0.1,0.6c0,0.2,0,0.5-0.1,0.7c-0.1,0.2-0.2,0.4-0.3,0.5c-0.1,0.2-0.3,0.3-0.5,0.4c-0.2,0.1-0.5,0.1-0.7,0.1h0
					C276.6,75.2,276.4,75.1,276.3,75z"/>
				<path d="M282.9,78.8l-1.2-0.4v-1l3.1-0.3h0l0.4,0.3v7.5c0,0.6,0,1.1,0.1,1.5s0.2,0.7,0.3,1c0.2,0.3,0.4,0.4,0.7,0.6
					c0.3,0.1,0.6,0.2,1.1,0.2c0.3,0,0.6,0,0.9-0.1c0.3-0.1,0.5-0.2,0.8-0.3s0.4-0.2,0.6-0.3s0.4-0.2,0.5-0.3v-8.2l-1.5-0.4v-1
					l3.4-0.3h0l0.6,0.3v10.9h1.3v1.1c-0.2,0.1-0.5,0.2-0.9,0.3c-0.4,0.1-0.8,0.1-1.2,0.1c-0.4,0-0.8-0.1-1-0.2s-0.3-0.5-0.3-0.9V88
					c-0.2,0.2-0.4,0.4-0.7,0.6s-0.6,0.4-0.9,0.5c-0.3,0.2-0.7,0.3-1.1,0.4s-0.8,0.2-1.1,0.2c-0.7,0-1.2-0.1-1.7-0.3
					c-0.5-0.2-0.9-0.4-1.2-0.8s-0.5-0.9-0.7-1.5c-0.1-0.6-0.2-1.3-0.2-2.2V78.8z"/>
				<path d="M296.1,88.6l1.3-0.2v-8.6l-1.5-0.4V78l3.1-0.4h0.1l0.5,0.4v0.9l0,0.5c0.2-0.2,0.5-0.4,0.9-0.7c0.4-0.2,0.7-0.4,1.1-0.6
					c0.4-0.2,0.8-0.3,1.2-0.4c0.4-0.1,0.8-0.2,1.2-0.2c0.8,0,1.4,0.1,1.9,0.4c0.5,0.3,0.8,0.7,1.1,1.2c0.2-0.2,0.5-0.4,0.8-0.5
					c0.3-0.2,0.7-0.4,1.1-0.5c0.4-0.2,0.8-0.3,1.2-0.4c0.4-0.1,0.8-0.2,1.2-0.2c0.7,0,1.3,0.1,1.7,0.3c0.5,0.2,0.8,0.5,1.1,0.9
					c0.3,0.4,0.5,0.9,0.6,1.5c0.1,0.6,0.2,1.3,0.2,2.2v5.9l1.5,0.2v1.1H311v-1.1l1.3-0.2v-5.8c0-0.6,0-1.1-0.1-1.5
					c-0.1-0.4-0.2-0.8-0.3-1s-0.4-0.5-0.7-0.6c-0.3-0.1-0.7-0.2-1.2-0.2c-0.2,0-0.5,0-0.7,0.1s-0.5,0.1-0.7,0.2
					c-0.2,0.1-0.5,0.2-0.7,0.3c-0.2,0.1-0.4,0.2-0.6,0.4c0.1,0.3,0.1,0.7,0.1,1.1c0,0.4,0,0.8,0,1.3v5.8l1.6,0.2v1.1h-5.4v-1.1
					l1.4-0.2v-5.9c0-0.6,0-1-0.1-1.5c0-0.4-0.2-0.8-0.3-1c-0.2-0.3-0.4-0.5-0.7-0.6c-0.3-0.1-0.6-0.2-1.1-0.2c-0.3,0-0.5,0-0.8,0.1
					c-0.3,0.1-0.5,0.1-0.8,0.3c-0.3,0.1-0.5,0.2-0.7,0.4c-0.2,0.1-0.5,0.3-0.6,0.4v8l1.4,0.2v1.1h-5.2V88.6z"/>
			</g>
		</g>
		<g>
			<g>
				<polygon class="st2" points="228.4,150.3 291.4,150.3 283.1,219 236.7,219 				"/>
				<g id="Illlatte_20_">
					<polygon class="st3" points="280.9,217.1 234.5,217.1 224,129.8 291.4,129.8 					"/>
					<line class="st3" x1="289.2" y1="148.4" x2="226.2" y2="148.4"/>
				</g>
			</g>
			<g>
				<polygon class="st2" points="319.8,150.3 382.8,150.3 374.5,219 328.1,219 				"/>
				<g id="Illlatte_19_">
					<polygon class="st3" points="372.3,217.1 325.9,217.1 315.4,129.8 382.8,129.8 					"/>
					<line class="st3" x1="380.6" y1="148.4" x2="317.6" y2="148.4"/>
				</g>
			</g>
			<g>
				<polygon class="st2" points="416.7,196.1 419.5,219 465.9,219 468.7,196.1 				"/>
				<g id="Illlatte_18_">
					<polygon class="st3" points="463.7,217.1 417.3,217.1 406.8,129.8 474.2,129.8 					"/>
					<line class="st3" x1="466.4" y1="194.4" x2="414.5" y2="194.4"/>
				</g>
			</g>
			<g>
				<polygon class="st2" points="137,150.3 200,150.3 191.7,219 145.3,219 				"/>
				<g id="Illlatte_17_">
					<polygon class="st3" points="189.5,217.1 143,217.1 132.5,129.8 200,129.8 					"/>
					<line class="st3" x1="197.8" y1="148.4" x2="134.8" y2="148.4"/>
				</g>
			</g>
			<g>
				<polygon class="st2" points="45.3,150.3 108.3,150.3 100,219 53.6,219 				"/>
				<g id="Illlatte_16_">
					<polygon class="st3" points="98.1,217.1 51.6,217.1 41.1,129.8 108.6,129.8 					"/>
					<line class="st3" x1="106.4" y1="148.4" x2="43.4" y2="148.4"/>
				</g>
			</g>
		</g>
	</g>
</g>
</svg>
