<?xml version="1.0" encoding="utf-8"?>
<!-- Generator: Adobe Illustrator 17.0.0, SVG Export Plug-In . SVG Version: 6.00 Build 0)  -->
<!DOCTYPE svg PUBLIC "-//W3C//DTD SVG 1.1//EN" "http://www.w3.org/Graphics/SVG/1.1/DTD/svg11.dtd">
<svg version="1.1" xmlns="http://www.w3.org/2000/svg" xmlns:xlink="http://www.w3.org/1999/xlink" x="0px" y="0px" width="426.2px"
	 height="266px" viewBox="0 0 426.2 266" style="enable-background:new 0 0 426.2 266;" xml:space="preserve">
<style type="text/css">
	.st0{display:none;opacity:0.5;}
	.st1{display:inline;fill:#F8BF9A;}
	.st2{fill:#FFFFFF;}
	.st3{fill:none;stroke:#000000;stroke-width:1.043;stroke-miterlimit:10;}
</style>
<g id="Layer_12" class="st0">
	<rect x="0" class="st1" width="426.2" height="266"/>
</g>
<g id="Layer_7">
	<g>
		<g>
			<path d="M67.2,244.9l-1.5,1.9c-1.1-1.2-2.7-1.9-4.2-1.9c-3,0-5.4,2.4-5.4,5.4c0,3,2.4,5.4,5.4,5.4c1.5,0,3.1-0.7,4.2-1.8l1.5,1.7
				c-1.5,1.5-3.7,2.5-5.9,2.5c-4.5,0-7.9-3.4-7.9-7.7c0-4.3,3.5-7.7,8-7.7C63.6,242.6,65.7,243.5,67.2,244.9z"/>
			<path d="M83,251.6c0,4-2.5,6.4-6.6,6.4c-4.1,0-6.6-2.4-6.6-6.4v-8.9h2.6v8.9c0,2.6,1.6,4.1,4.1,4.1c2.5,0,4-1.5,4-4.1v-8.9H83
				V251.6z"/>
			<path d="M93,242.7c3.8,0,6,1.9,6,5.2c0,3.4-2.2,5.4-6,5.4h-3.5v4.6h-2.6v-15.2H93z M89.4,251h3.4c2.4,0,3.7-1,3.7-3.1
				c0-2-1.3-3-3.7-3h-3.4V251z"/>
			<path d="M112.1,244.1l-1.1,2.3c-1.7-1-3.3-1.4-4.5-1.4c-1.5,0-2.5,0.6-2.5,1.6c0,3.3,8.2,1.5,8.2,7c0,2.7-2.4,4.4-5.7,4.4
				c-2.4,0-4.7-1-6.2-2.4l1.1-2.2c1.6,1.4,3.5,2.2,5.2,2.2c1.8,0,2.9-0.7,2.9-1.9c0-3.4-8.2-1.5-8.2-6.9c0-2.6,2.2-4.2,5.6-4.2
				C108.7,242.5,110.7,243.2,112.1,244.1z"/>
			<path d="M136.2,250.3c0,4.4-3.5,7.7-8.1,7.7c-4.5,0-8.1-3.4-8.1-7.7c0-4.4,3.5-7.7,8.1-7.7C132.7,242.6,136.2,245.9,136.2,250.3z
				 M122.7,250.3c0,3,2.5,5.4,5.5,5.4s5.4-2.4,5.4-5.4c0-3-2.4-5.4-5.4-5.4C125.2,244.9,122.7,247.2,122.7,250.3z"/>
			<path d="M141.7,245v4.4h6.9v2.3h-6.9v6.2h-2.6v-15.2h10.2l0,2.3H141.7z"/>
			<path d="M163.8,242.7c3.8,0,6,1.9,6,5.2c0,3.4-2.2,5.4-6,5.4h-3.5v4.6h-2.6v-15.2H163.8z M160.3,251h3.4c2.4,0,3.7-1,3.7-3.1
				c0-2-1.3-3-3.7-3h-3.4V251z"/>
			<path d="M173.8,254.5l-1.5,3.4h-2.7l6.7-15.2h2.6l6.7,15.2h-2.7l-1.5-3.4H173.8z M177.6,245.4l-2.9,6.8h5.7L177.6,245.4z"/>
			<path d="M198.1,244.1l-1.1,2.3c-1.7-1-3.3-1.4-4.5-1.4c-1.5,0-2.5,0.6-2.5,1.6c0,3.3,8.2,1.5,8.2,7c0,2.7-2.4,4.4-5.7,4.4
				c-2.4,0-4.7-1-6.2-2.4l1.1-2.2c1.6,1.4,3.5,2.2,5.2,2.2c1.8,0,2.9-0.7,2.9-1.9c0-3.4-8.2-1.5-8.2-6.9c0-2.6,2.2-4.2,5.6-4.2
				C194.8,242.5,196.7,243.2,198.1,244.1z"/>
			<path d="M207.1,245v12.9h-2.6V245h-4.8v-2.3h12.2v2.3H207.1z"/>
			<path d="M216.9,245v4.1h7.4v2.3h-7.4v4.2h8.6v2.3h-11.1v-15.2h10.9v2.3H216.9z"/>
			<path d="M241.8,251.6c0,4-2.5,6.4-6.6,6.4c-4.1,0-6.6-2.4-6.6-6.4v-8.9h2.6v8.9c0,2.6,1.6,4.1,4.1,4.1c2.5,0,4-1.5,4-4.1v-8.9
				h2.6V251.6z"/>
			<path d="M252.6,253.3c-0.2,0-0.5,0-0.7,0h-3.6v4.6h-2.6v-15.2h6.2c3.9,0,6.1,1.9,6.1,5.2c0,2.4-1.1,4.2-3.2,4.9l3.4,5.1h-2.9
				L252.6,253.3z M251.9,251c2.4,0,3.7-1,3.7-3.1c0-2-1.3-3-3.7-3h-3.6v6H251.9z"/>
			<path d="M261.6,257.9v-15.2h2.6v15.2H261.6z"/>
			<path d="M270.7,255.6h9.4v2.3h-12.9V256l9.3-11.1h-9v-2.3H280v1.9L270.7,255.6z"/>
			<path d="M285.7,245v4.1h7.4v2.3h-7.4v4.2h8.6v2.3h-11.1v-15.2H294v2.3H285.7z"/>
			<path d="M303.9,242.7c4.6,0,7.9,3.2,7.9,7.6c0,4.4-3.3,7.6-7.9,7.6h-6.2v-15.2H303.9z M300.2,255.6h3.7c3,0,5.2-2.2,5.2-5.3
				c0-3.1-2.3-5.3-5.3-5.3h-3.6V255.6z"/>
			<path d="M334.3,257.9l0-11.4l-4.8,9.8h-1.7l-4.8-9.8v11.4h-2.4v-15.2h3l5,10.1l5-10.1h3v15.2H334.3z"/>
			<path d="M340.9,257.9v-15.2h2.6v15.2H340.9z"/>
			<path d="M356.8,255.6v2.3h-9.2v-15.2h2.6v12.9H356.8z"/>
			<path d="M364.7,251.2l-2.6,2.9v3.9h-2.6v-15.2h2.6v7.9l7.3-7.9h3l-5.9,6.5l6.3,8.7h-3.1L364.7,251.2z"/>
		</g>
		<g>
			<g>
				<path d="M160.1,60h-5.3l8.1-17.9h-6.9v3.1h-4.4V38h16.8v3.6L160.1,60z"/>
				<path d="M189.9,48.9c0,7.2-3.4,11.2-9.6,11.2c-6.2,0-9.6-4-9.6-11.2c0-7.2,3.4-11.1,9.6-11.1C186.5,37.8,189.9,41.8,189.9,48.9z
					 M175.8,48.9c0,5.2,1.4,7.4,4.5,7.4c3.1,0,4.5-2.2,4.5-7.4c0-5.2-1.4-7.3-4.5-7.3C177.2,41.6,175.8,43.8,175.8,48.9z"/>
				<path d="M212.2,48.9c0,7.2-3.4,11.2-9.6,11.2c-6.2,0-9.6-4-9.6-11.2c0-7.2,3.4-11.1,9.6-11.1C208.8,37.8,212.2,41.8,212.2,48.9z
					 M198.1,48.9c0,5.2,1.4,7.4,4.5,7.4c3.1,0,4.5-2.2,4.5-7.4c0-5.2-1.4-7.3-4.5-7.3C199.5,41.6,198.1,43.8,198.1,48.9z"/>
				<path d="M252.6,49.4V60h-4.8v-9.2c0-2.2-1.3-3.5-3.3-3.5c-2.3,0-3.7,1.9-3.7,4.3V60H236v-9.2c0-2.2-1.3-3.5-3.2-3.5
					c-2.4,0-3.8,1.9-3.8,4.3V60h-4.8V43.1h4.8V46c1.2-2.1,3.2-3.1,5.7-3.1c2.9,0,4.9,1.4,5.7,3.9c1.1-2.6,3.2-3.9,6.1-3.9
					C250.3,42.9,252.6,45.4,252.6,49.4z"/>
				<path d="M273,58.4c0,4.8-3.6,7.9-9,7.9c-2.9,0-5.4-0.9-7.4-2.2l1.8-3.4c1.5,1.1,3.3,1.7,5.2,1.7c2.8,0,4.5-1.5,4.5-3.8v-1.9
					c-1.1,1.6-2.9,2.5-5.1,2.5c-4.4,0-7.4-3.3-7.4-8.2c0-4.8,3-8,7.3-8c2.3,0,4.1,0.9,5.2,2.5v-2.3h4.8V58.4z M268.2,51
					c0-2.6-1.6-4.4-4-4.4s-4,1.8-4,4.4c0,2.6,1.6,4.4,4,4.4C266.5,55.4,268.2,53.6,268.2,51z"/>
			</g>
		</g>
		<g>
			<g>
				<path d="M166.2,24.4l2.3-0.3v-4.9l-4.8-8.4l-1.4-0.3V9.3h5.8v1.2l-1.6,0.3l3,5.8l0.6,1.5l0.7-1.5l2.8-5.8l-1.7-0.3V9.3h5v1.2
					l-1.4,0.3l-4.5,8.4v4.9l2.4,0.2v1.2h-7.3V24.4z"/>
				<path d="M177.7,19.5c0-1,0.2-1.8,0.5-2.6s0.8-1.4,1.3-1.9c0.5-0.5,1.2-0.9,1.8-1.2c0.7-0.3,1.4-0.4,2.1-0.4c1,0,1.8,0.2,2.5,0.5
					c0.7,0.3,1.3,0.7,1.7,1.3c0.4,0.5,0.8,1.2,1,1.9c0.2,0.7,0.3,1.5,0.3,2.4c0,1-0.2,1.8-0.5,2.6s-0.8,1.4-1.3,1.9
					c-0.5,0.5-1.2,0.9-1.8,1.2c-0.7,0.3-1.4,0.4-2.1,0.4c-1,0-1.8-0.2-2.5-0.5c-0.7-0.3-1.3-0.7-1.7-1.3c-0.4-0.5-0.8-1.2-1-1.9
					C177.8,21.1,177.7,20.3,177.7,19.5z M183.4,24.2c2,0,2.9-1.5,2.9-4.5c0-0.7-0.1-1.4-0.2-2c-0.1-0.6-0.3-1.1-0.5-1.6
					c-0.2-0.4-0.5-0.8-0.9-1s-0.8-0.4-1.4-0.4c-1,0-1.7,0.4-2.2,1.1c-0.5,0.8-0.7,1.9-0.7,3.4c0,0.7,0.1,1.4,0.2,2
					c0.1,0.6,0.3,1.1,0.5,1.6c0.2,0.4,0.5,0.8,0.9,1C182.4,24.1,182.8,24.2,183.4,24.2z"/>
				<path d="M192.1,14.7l-1.2-0.4v-1l3.1-0.3h0l0.4,0.3v7.5c0,0.6,0,1.1,0.1,1.5s0.2,0.7,0.3,1c0.2,0.3,0.4,0.4,0.7,0.6
					c0.3,0.1,0.6,0.2,1.1,0.2c0.3,0,0.6,0,0.9-0.1s0.5-0.2,0.8-0.3s0.4-0.2,0.6-0.3s0.4-0.2,0.5-0.3v-8.2l-1.5-0.4v-1l3.4-0.3h0
					l0.6,0.3v10.9h1.3v1.1c-0.2,0.1-0.5,0.2-0.9,0.3c-0.4,0.1-0.8,0.1-1.2,0.1c-0.4,0-0.8-0.1-1-0.2c-0.2-0.2-0.3-0.5-0.3-0.9v-0.6
					c-0.2,0.2-0.4,0.4-0.7,0.6c-0.3,0.2-0.6,0.4-0.9,0.5s-0.7,0.3-1.1,0.4c-0.4,0.1-0.8,0.2-1.1,0.2c-0.7,0-1.2-0.1-1.7-0.3
					c-0.5-0.2-0.9-0.4-1.2-0.8c-0.3-0.4-0.5-0.9-0.7-1.5c-0.1-0.6-0.2-1.3-0.2-2.2V14.7z"/>
				<path d="M212,24.4l1.4-0.2v-8.6l-1.5-0.4v-1.3l3.1-0.4h0.1l0.5,0.4v0.9l0,0.5c0.2-0.2,0.5-0.4,0.9-0.7c0.3-0.2,0.7-0.4,1.1-0.6
					c0.4-0.2,0.8-0.3,1.2-0.4c0.4-0.1,0.8-0.2,1.2-0.2c0.7,0,1.3,0.1,1.7,0.3c0.4,0.2,0.8,0.5,1.1,0.9s0.4,0.9,0.5,1.5
					c0.1,0.6,0.2,1.4,0.2,2.2v5.9l1.5,0.2v1.1h-5.3v-1.1l1.4-0.2v-5.9c0-0.6,0-1-0.1-1.5c-0.1-0.4-0.2-0.8-0.3-1
					c-0.2-0.3-0.4-0.5-0.6-0.6s-0.6-0.2-1.1-0.2c-0.3,0-0.5,0-0.8,0.1c-0.3,0.1-0.6,0.2-0.8,0.3c-0.3,0.1-0.5,0.2-0.8,0.4
					c-0.2,0.1-0.5,0.3-0.6,0.4v8l1.5,0.2v1.1H212V24.4z"/>
				<path d="M226.6,19.5c0-0.9,0.1-1.7,0.4-2.5s0.7-1.4,1.2-1.9c0.5-0.5,1.1-0.9,1.8-1.2c0.7-0.3,1.5-0.4,2.3-0.4
					c1.4,0,2.4,0.3,3.2,1c0.7,0.7,1.1,1.7,1.2,3c0,0.4,0,0.8,0,1.1c0,0.3-0.1,0.6-0.1,0.8h-7.4c0,0.8,0.1,1.5,0.3,2.1
					c0.2,0.6,0.5,1.1,0.8,1.4c0.3,0.4,0.7,0.6,1.1,0.8c0.4,0.2,0.9,0.3,1.4,0.3c0.3,0,0.6,0,0.9-0.1s0.6-0.1,0.9-0.2
					c0.3-0.1,0.6-0.2,0.8-0.3c0.2-0.1,0.4-0.2,0.6-0.4l0.4,1c-0.2,0.2-0.5,0.4-0.8,0.6c-0.3,0.2-0.7,0.4-1.1,0.5
					c-0.4,0.1-0.8,0.3-1.2,0.4c-0.4,0.1-0.9,0.1-1.3,0.1c-0.9,0-1.7-0.1-2.4-0.4c-0.7-0.3-1.3-0.7-1.7-1.2c-0.5-0.5-0.8-1.2-1-1.9
					C226.8,21.2,226.6,20.4,226.6,19.5z M234.2,18.1c0-0.1,0-0.3,0-0.4s0-0.3,0-0.4c0-0.4,0-0.7-0.1-1c-0.1-0.3-0.2-0.6-0.4-0.8
					c-0.2-0.2-0.4-0.4-0.7-0.6c-0.3-0.1-0.6-0.2-1.1-0.2c-0.4,0-0.7,0.1-1,0.2s-0.6,0.3-0.8,0.5c-0.2,0.3-0.4,0.6-0.6,1
					c-0.1,0.4-0.2,1-0.3,1.6H234.2z"/>
				<path d="M238.7,19.5c0-0.9,0.1-1.7,0.4-2.5s0.7-1.4,1.2-1.9c0.5-0.5,1.1-0.9,1.8-1.2s1.5-0.4,2.3-0.4c1.4,0,2.4,0.3,3.2,1
					c0.7,0.7,1.1,1.7,1.2,3c0,0.4,0,0.8,0,1.1c0,0.3-0.1,0.6-0.1,0.8h-7.4c0,0.8,0.1,1.5,0.3,2.1c0.2,0.6,0.5,1.1,0.8,1.4
					c0.3,0.4,0.7,0.6,1.1,0.8c0.4,0.2,0.9,0.3,1.4,0.3c0.3,0,0.6,0,0.9-0.1s0.6-0.1,0.9-0.2c0.3-0.1,0.6-0.2,0.8-0.3
					c0.2-0.1,0.4-0.2,0.6-0.4l0.4,1c-0.2,0.2-0.5,0.4-0.8,0.6c-0.3,0.2-0.7,0.4-1.1,0.5s-0.8,0.3-1.2,0.4c-0.4,0.1-0.9,0.1-1.3,0.1
					c-0.9,0-1.7-0.1-2.4-0.4c-0.7-0.3-1.3-0.7-1.7-1.2c-0.5-0.5-0.8-1.2-1-1.9C238.8,21.2,238.7,20.4,238.7,19.5z M246.2,18.1
					c0-0.1,0-0.3,0-0.4c0-0.1,0-0.3,0-0.4c0-0.4,0-0.7-0.1-1c-0.1-0.3-0.2-0.6-0.4-0.8c-0.2-0.2-0.4-0.4-0.7-0.6
					c-0.3-0.1-0.6-0.2-1.1-0.2c-0.4,0-0.7,0.1-1,0.2s-0.6,0.3-0.8,0.5c-0.2,0.3-0.4,0.6-0.6,1c-0.1,0.4-0.2,1-0.3,1.6H246.2z"/>
				<path d="M255.5,25.5c-0.6,0-1.2-0.1-1.8-0.3c-0.6-0.2-1.1-0.6-1.5-1.1c-0.4-0.5-0.8-1.1-1-1.8c-0.3-0.7-0.4-1.6-0.4-2.6
					c0-0.9,0.1-1.7,0.4-2.5c0.3-0.8,0.7-1.4,1.2-2c0.5-0.6,1.2-1,2-1.4c0.8-0.3,1.7-0.5,2.6-0.5c0.3,0,0.7,0,1,0.1s0.6,0.1,0.9,0.1
					v-4l-2.1-0.2v-1l4-0.4h0.1l0.5,0.4v15.7h1.3v1.1c-0.3,0.1-0.6,0.2-1.1,0.2c-0.4,0.1-0.8,0.1-1.3,0.1c-0.2,0-0.4,0-0.5,0
					c-0.1,0-0.3-0.1-0.4-0.2c-0.1-0.1-0.2-0.2-0.2-0.3s-0.1-0.3-0.1-0.6v-0.6c-0.2,0.2-0.4,0.4-0.7,0.6s-0.5,0.4-0.8,0.5
					s-0.6,0.3-1,0.4C256.3,25.5,255.9,25.5,255.5,25.5z M256.4,24.1c0.3,0,0.6,0,0.8-0.1c0.3-0.1,0.5-0.2,0.7-0.3
					c0.2-0.1,0.4-0.2,0.6-0.4c0.2-0.1,0.3-0.3,0.4-0.4v-7.5c-0.1-0.1-0.1-0.2-0.3-0.3c-0.1-0.1-0.3-0.2-0.5-0.2
					c-0.2-0.1-0.4-0.1-0.6-0.1c-0.2,0-0.5-0.1-0.7-0.1c-0.5,0-0.9,0.1-1.4,0.3c-0.4,0.2-0.8,0.5-1.1,0.8c-0.3,0.4-0.6,0.9-0.7,1.5
					s-0.3,1.4-0.3,2.2c0,0.8,0.1,1.5,0.2,2c0.2,0.6,0.4,1,0.7,1.4c0.3,0.4,0.6,0.6,1,0.8C255.6,24,256,24.1,256.4,24.1z"/>
			</g>
		</g>
		<g>
			<g>
				<path d="M156.3,83.6c0-1,0.2-1.8,0.5-2.6s0.8-1.4,1.3-1.9c0.5-0.5,1.2-0.9,1.8-1.2s1.4-0.4,2.1-0.4c1,0,1.8,0.2,2.5,0.5
					c0.7,0.3,1.3,0.7,1.7,1.3c0.4,0.5,0.8,1.2,1,1.9c0.2,0.7,0.3,1.5,0.3,2.4c0,1-0.2,1.8-0.5,2.6c-0.3,0.8-0.8,1.4-1.3,1.9
					c-0.5,0.5-1.2,0.9-1.8,1.2c-0.7,0.3-1.4,0.4-2.1,0.4c-1,0-1.8-0.2-2.5-0.5c-0.7-0.3-1.3-0.7-1.7-1.3c-0.4-0.5-0.8-1.2-1-1.9
					C156.5,85.3,156.3,84.5,156.3,83.6z M162,88.4c2,0,2.9-1.5,2.9-4.5c0-0.7-0.1-1.4-0.2-2c-0.1-0.6-0.3-1.1-0.5-1.6
					c-0.2-0.4-0.5-0.8-0.9-1c-0.4-0.2-0.8-0.4-1.4-0.4c-1,0-1.7,0.4-2.2,1.1c-0.5,0.8-0.7,1.9-0.7,3.4c0,0.7,0.1,1.4,0.2,2
					c0.1,0.6,0.3,1.1,0.5,1.6c0.2,0.4,0.5,0.8,0.9,1C161,88.2,161.4,88.4,162,88.4z"/>
				<path d="M169.6,88.5l1.8-0.2v-9.2h-2v-1.1l2-0.5v-1c0-0.7,0.1-1.3,0.4-1.8c0.3-0.6,0.7-1.1,1.2-1.5c0.5-0.4,1-0.8,1.6-1
					s1.2-0.4,1.9-0.4c0.4,0,0.6,0,0.8,0.1c0.2,0,0.3,0.1,0.5,0.1v2.3c-0.1,0-0.1-0.1-0.3-0.2s-0.3-0.1-0.5-0.2
					c-0.2-0.1-0.4-0.1-0.6-0.1c-0.2,0-0.5-0.1-0.7-0.1c-0.3,0-0.6,0-0.9,0.1c-0.2,0.1-0.4,0.2-0.6,0.3c-0.1,0.1-0.2,0.3-0.3,0.6
					c-0.1,0.2-0.1,0.6-0.1,1l0,1.7h2.9v1.5h-2.9v9.2l2.3,0.2v1.1h-6.5V88.5z"/>
				<path d="M185.3,83.8c0-0.9,0.1-1.7,0.4-2.4c0.3-0.8,0.6-1.4,1.2-2s1.2-1,1.9-1.4c0.8-0.3,1.7-0.5,2.7-0.5c0.4,0,0.7,0,1.1,0.1
					c0.3,0,0.6,0.1,0.9,0.2c0.3,0.1,0.5,0.1,0.8,0.2c0.2,0.1,0.4,0.1,0.5,0.2l-0.1,3.1h-1.5l-0.5-1.9c-0.1-0.2-0.3-0.4-0.6-0.5
					c-0.3-0.1-0.7-0.2-1-0.2c-0.5,0-0.9,0.1-1.3,0.3c-0.4,0.2-0.7,0.4-1,0.8s-0.5,0.8-0.6,1.3c-0.1,0.5-0.2,1.2-0.2,1.9
					c0,0.9,0.1,1.6,0.3,2.2c0.2,0.6,0.4,1.1,0.7,1.5c0.3,0.4,0.7,0.7,1.1,0.9c0.4,0.2,0.9,0.3,1.4,0.3c0.3,0,0.7,0,1-0.1
					c0.3-0.1,0.6-0.1,0.8-0.2c0.3-0.1,0.5-0.2,0.7-0.3c0.2-0.1,0.4-0.2,0.6-0.3l0.5,0.9c-0.2,0.2-0.4,0.4-0.7,0.6s-0.6,0.4-1,0.5
					c-0.4,0.2-0.7,0.3-1.1,0.4c-0.4,0.1-0.8,0.1-1.2,0.1c-0.9,0-1.7-0.1-2.4-0.4c-0.7-0.3-1.3-0.7-1.7-1.2s-0.8-1.1-1-1.9
					C185.4,85.4,185.3,84.7,185.3,83.8z"/>
				<path d="M196.7,86.2c0-0.7,0.2-1.4,0.6-1.9c0.4-0.5,0.9-0.9,1.6-1.3c0.7-0.3,1.4-0.6,2.3-0.7s1.7-0.2,2.7-0.2v-0.5
					c0-0.4,0-0.8-0.1-1.1s-0.2-0.5-0.4-0.7c-0.2-0.2-0.4-0.3-0.7-0.4s-0.7-0.1-1.2-0.1c-0.4,0-0.8,0-1.2,0.1c-0.4,0.1-0.7,0.1-1,0.2
					c-0.3,0.1-0.6,0.2-0.9,0.3s-0.5,0.2-0.7,0.3h0l-0.5-1c0.1-0.1,0.3-0.3,0.7-0.5c0.3-0.2,0.7-0.4,1.2-0.6c0.5-0.2,1-0.3,1.5-0.5
					c0.5-0.1,1.1-0.2,1.6-0.2c0.8,0,1.4,0.1,1.9,0.2c0.5,0.1,0.9,0.4,1.3,0.7c0.3,0.3,0.6,0.7,0.7,1.3c0.1,0.5,0.2,1.1,0.2,1.9v6.6
					h1.3v1c-0.1,0-0.3,0.1-0.5,0.1c-0.2,0-0.4,0.1-0.6,0.1s-0.4,0.1-0.6,0.1s-0.4,0-0.6,0c-0.2,0-0.4,0-0.5,0
					c-0.1,0-0.3-0.1-0.4-0.1c-0.1-0.1-0.2-0.2-0.2-0.3c0-0.1-0.1-0.3-0.1-0.6v-0.5c-0.1,0.1-0.3,0.3-0.5,0.4s-0.5,0.4-0.8,0.5
					s-0.7,0.3-1,0.4c-0.4,0.1-0.8,0.2-1.2,0.2c-0.5,0-1-0.1-1.4-0.2c-0.4-0.1-0.8-0.3-1.2-0.6c-0.3-0.3-0.6-0.6-0.8-1.1
					C196.8,87.3,196.7,86.8,196.7,86.2z M199.3,85.9c0,0.4,0.1,0.7,0.2,1c0.1,0.3,0.2,0.5,0.4,0.7c0.2,0.2,0.4,0.3,0.6,0.4
					s0.5,0.1,0.8,0.1c0.2,0,0.3,0,0.6-0.1s0.4-0.1,0.6-0.2c0.2-0.1,0.4-0.2,0.6-0.3c0.2-0.1,0.4-0.2,0.6-0.4v-3.8
					c-0.8,0-1.5,0.1-2.1,0.2c-0.6,0.1-1,0.3-1.4,0.6c-0.4,0.2-0.6,0.5-0.8,0.8C199.4,85.2,199.3,85.6,199.3,85.9z"/>
				<path d="M209,88.5l1.7-0.2V73.5l-1.7-0.2v-1l3.6-0.5h0l0.5,0.4v16.1l1.8,0.2v1.2h-6V88.5z"/>
				<path d="M216.5,83.8c0-0.9,0.1-1.7,0.4-2.4c0.3-0.8,0.6-1.4,1.2-2s1.2-1,1.9-1.4s1.7-0.5,2.7-0.5c0.4,0,0.7,0,1.1,0.1
					s0.6,0.1,0.9,0.2c0.3,0.1,0.5,0.1,0.8,0.2c0.2,0.1,0.4,0.1,0.5,0.2l-0.1,3.1h-1.5l-0.5-1.9c-0.1-0.2-0.3-0.4-0.6-0.5
					c-0.3-0.1-0.7-0.2-1-0.2c-0.5,0-0.9,0.1-1.3,0.3c-0.4,0.2-0.7,0.4-1,0.8s-0.5,0.8-0.6,1.3c-0.1,0.5-0.2,1.2-0.2,1.9
					c0,0.9,0.1,1.6,0.3,2.2c0.2,0.6,0.4,1.1,0.7,1.5c0.3,0.4,0.7,0.7,1.1,0.9c0.4,0.2,0.9,0.3,1.4,0.3c0.3,0,0.7,0,1-0.1
					c0.3-0.1,0.6-0.1,0.8-0.2c0.3-0.1,0.5-0.2,0.7-0.3c0.2-0.1,0.4-0.2,0.6-0.3l0.5,0.9c-0.2,0.2-0.4,0.4-0.7,0.6
					c-0.3,0.2-0.6,0.4-1,0.5c-0.4,0.2-0.7,0.3-1.1,0.4c-0.4,0.1-0.8,0.1-1.2,0.1c-0.9,0-1.7-0.1-2.4-0.4c-0.7-0.3-1.3-0.7-1.7-1.2
					s-0.8-1.1-1-1.9C216.7,85.4,216.6,84.7,216.5,83.8z"/>
				<path d="M227.9,88.5l1.7-0.2v-8.9l-1.5-0.4v-1.3l3.4-0.4h0.1l0.5,0.4v10.6l1.7,0.2v1.2h-5.9V88.5z M229.9,75
					c-0.2-0.1-0.3-0.2-0.4-0.3c-0.1-0.1-0.2-0.3-0.3-0.5c-0.1-0.2-0.1-0.4-0.1-0.6c0-0.2,0-0.4,0.1-0.6c0.1-0.2,0.2-0.4,0.3-0.5
					c0.1-0.2,0.3-0.3,0.5-0.4c0.2-0.1,0.4-0.1,0.7-0.1h0c0.2,0,0.4,0,0.6,0.1c0.2,0.1,0.3,0.2,0.5,0.3c0.1,0.1,0.2,0.3,0.3,0.5
					s0.1,0.4,0.1,0.6c0,0.2,0,0.5-0.1,0.7c-0.1,0.2-0.2,0.4-0.3,0.5c-0.1,0.2-0.3,0.3-0.5,0.4c-0.2,0.1-0.5,0.1-0.7,0.1h0
					C230.3,75.2,230.1,75.1,229.9,75z"/>
				<path d="M236.6,78.8l-1.2-0.4v-1l3.1-0.3h0l0.4,0.3v7.5c0,0.6,0,1.1,0.1,1.5s0.2,0.7,0.3,1c0.2,0.3,0.4,0.4,0.7,0.6
					c0.3,0.1,0.6,0.2,1.1,0.2c0.3,0,0.6,0,0.9-0.1c0.3-0.1,0.5-0.2,0.8-0.3c0.2-0.1,0.4-0.2,0.6-0.3c0.2-0.1,0.4-0.2,0.5-0.3v-8.2
					l-1.5-0.4v-1l3.4-0.3h0l0.6,0.3v10.9h1.3v1.1c-0.2,0.1-0.5,0.2-0.9,0.3c-0.4,0.1-0.8,0.1-1.2,0.1c-0.4,0-0.8-0.1-1-0.2
					s-0.3-0.5-0.3-0.9V88c-0.2,0.2-0.4,0.4-0.7,0.6s-0.6,0.4-0.9,0.5c-0.3,0.2-0.7,0.3-1.1,0.4c-0.4,0.1-0.8,0.2-1.1,0.2
					c-0.7,0-1.2-0.1-1.7-0.3c-0.5-0.2-0.9-0.4-1.2-0.8s-0.5-0.9-0.7-1.5s-0.2-1.3-0.2-2.2V78.8z"/>
				<path d="M249.8,88.6l1.3-0.2v-8.6l-1.5-0.4V78l3.1-0.4h0.1l0.5,0.4v0.9l0,0.5c0.2-0.2,0.5-0.4,0.9-0.7c0.4-0.2,0.7-0.4,1.1-0.6
					c0.4-0.2,0.8-0.3,1.2-0.4c0.4-0.1,0.8-0.2,1.2-0.2c0.8,0,1.4,0.1,1.9,0.4c0.5,0.3,0.8,0.7,1.1,1.2c0.2-0.2,0.5-0.4,0.8-0.5
					c0.3-0.2,0.7-0.4,1.1-0.5c0.4-0.2,0.8-0.3,1.2-0.4c0.4-0.1,0.8-0.2,1.2-0.2c0.7,0,1.3,0.1,1.7,0.3c0.5,0.2,0.8,0.5,1.1,0.9
					c0.3,0.4,0.5,0.9,0.6,1.5c0.1,0.6,0.2,1.3,0.2,2.2v5.9l1.5,0.2v1.1h-5.2v-1.1l1.3-0.2v-5.8c0-0.6,0-1.1-0.1-1.5
					c-0.1-0.4-0.2-0.8-0.3-1s-0.4-0.5-0.7-0.6c-0.3-0.1-0.7-0.2-1.2-0.2c-0.2,0-0.5,0-0.7,0.1s-0.5,0.1-0.7,0.2
					c-0.2,0.1-0.5,0.2-0.7,0.3c-0.2,0.1-0.4,0.2-0.6,0.4c0.1,0.3,0.1,0.7,0.1,1.1c0,0.4,0,0.8,0,1.3v5.8l1.6,0.2v1.1h-5.4v-1.1
					l1.4-0.2v-5.9c0-0.6,0-1-0.1-1.5c0-0.4-0.2-0.8-0.3-1c-0.2-0.3-0.4-0.5-0.7-0.6c-0.3-0.1-0.6-0.2-1.1-0.2c-0.3,0-0.5,0-0.8,0.1
					c-0.3,0.1-0.5,0.1-0.8,0.3c-0.3,0.1-0.5,0.2-0.7,0.4c-0.2,0.1-0.5,0.3-0.6,0.4v8l1.4,0.2v1.1h-5.2V88.6z"/>
			</g>
		</g>
		<g>
			<g>
				<polygon class="st2" points="90.7,150.3 153.7,150.3 145.4,219 99,219 				"/>
				<g id="Illlatte_10_">
					<polygon class="st3" points="143.2,217.1 96.7,217.1 86.2,129.8 153.7,129.8 					"/>
					<line class="st3" x1="151.4" y1="148.4" x2="88.5" y2="148.4"/>
				</g>
			</g>
			<g>
				<polygon class="st2" points="182.1,150.3 245.1,150.3 236.8,219 190.4,219 				"/>
				<g id="Illlatte_4_">
					<polygon class="st3" points="234.6,217.1 188.1,217.1 177.6,129.8 245.1,129.8 					"/>
					<line class="st3" x1="242.9" y1="148.4" x2="179.9" y2="148.4"/>
				</g>
			</g>
			<g>
				<polygon class="st2" points="279,196.1 281.8,219 328.2,219 331,196.1 				"/>
				<g id="Illlatte_3_">
					<polygon class="st3" points="326,217.1 279.5,217.1 269,129.8 336.5,129.8 					"/>
					<line class="st3" x1="328.7" y1="194.4" x2="276.8" y2="194.4"/>
				</g>
			</g>
		</g>
	</g>
</g>
</svg>
