<?xml version="1.0" encoding="utf-8"?>
<!-- Generator: Adobe Illustrator 17.0.0, SVG Export Plug-In . SVG Version: 6.00 Build 0)  -->
<!DOCTYPE svg PUBLIC "-//W3C//DTD SVG 1.1//EN" "http://www.w3.org/Graphics/SVG/1.1/DTD/svg11.dtd">
<svg version="1.1" id="Layer_1" xmlns="http://www.w3.org/2000/svg" xmlns:xlink="http://www.w3.org/1999/xlink" x="0px" y="0px"
	 width="583.885px" height="208.578px" viewBox="0 0 583.885 208.578" enable-background="new 0 0 583.885 208.578"
	 xml:space="preserve">
<g>
	<g>
		<path d="M160.489,2.538v10.191h-2.845V2.538h-3.835V0.126h10.533v2.412H160.489z"/>
		<path d="M174.421,12.729V7.76h-5.708v4.97h-2.845V0.126h2.845v5.257h5.708V0.126h2.845v12.604H174.421z"/>
		<path d="M182.879,2.484v2.737h6.086V7.58h-6.086v2.791h6.95v2.358h-9.795V0.126h9.597v2.358H182.879z"/>
		<path d="M205.795,1.368l-1.099,2.358c-1.332-0.792-2.916-1.296-3.925-1.296c-0.954,0-1.603,0.342-1.603,1.026
			c0,2.322,6.716,1.026,6.698,5.563c0,2.467-2.143,3.799-4.934,3.799c-2.07,0-4.142-0.792-5.563-1.998l1.134-2.323
			c1.297,1.152,3.133,1.891,4.466,1.891c1.17,0,1.872-0.432,1.872-1.206c0-2.377-6.716-0.99-6.716-5.456
			c0-2.286,1.963-3.727,4.88-3.727C202.771,0,204.534,0.54,205.795,1.368z"/>
		<path d="M210.275,10.281l-0.99,2.448h-2.935l5.474-12.604h2.935l5.384,12.604h-3.043l-0.99-2.448H210.275z M213.209,3.097
			l-1.998,4.897h3.979L213.209,3.097z"/>
		<path d="M232.579,12.729V4.23l-3.349,7.221h-1.854l-3.35-7.221v8.499h-2.574V0.126h3.187l3.673,7.706l3.655-7.706h3.169v12.604
			H232.579z"/>
		<path d="M240.767,2.484v2.737h6.086V7.58h-6.086v2.791h6.95v2.358h-9.795V0.126h9.597v2.358H240.767z"/>
		<path d="M256.769,10.281l-0.99,2.448h-2.935l5.474-12.604h2.935l5.384,12.604h-3.043l-0.99-2.448H256.769z M259.703,3.097
			l-1.998,4.897h3.979L259.703,3.097z"/>
		<path d="M279.073,12.729V4.23l-3.349,7.221h-1.854l-3.35-7.221v8.499h-2.574V0.126h3.187l3.673,7.706l3.655-7.706h3.169v12.604
			H279.073z"/>
		<path d="M297.056,6.428c0,3.637-2.917,6.428-6.771,6.428c-3.853,0-6.77-2.772-6.77-6.428c0-3.673,2.917-6.392,6.77-6.392
			C294.139,0.036,297.056,2.772,297.056,6.428z M286.433,6.428c0,2.215,1.782,3.943,3.889,3.943s3.817-1.729,3.817-3.943
			s-1.711-3.907-3.817-3.907C288.198,2.521,286.433,4.213,286.433,6.428z"/>
		<path d="M310.07,7.454c0,3.331-2.179,5.401-5.654,5.401c-3.493,0-5.726-2.07-5.726-5.401V0.126h2.845v7.328
			c0,1.818,1.188,2.917,2.881,2.917s2.809-1.099,2.809-2.917V0.126h2.846V7.454z"/>
		<path d="M321.427,12.729l-6.104-8.084v8.084h-2.719V0.126h2.593l6.122,8.103V0.126h2.701v12.604H321.427z"/>
		<path d="M332.225,2.538v10.191h-2.845V2.538h-3.836V0.126h10.533v2.412H332.225z"/>
		<path d="M354.584,6.428c0,3.637-2.917,6.428-6.771,6.428c-3.853,0-6.77-2.772-6.77-6.428c0-3.673,2.917-6.392,6.77-6.392
			C351.667,0.036,354.584,2.772,354.584,6.428z M343.961,6.428c0,2.215,1.782,3.943,3.889,3.943s3.817-1.729,3.817-3.943
			s-1.711-3.907-3.817-3.907C345.725,2.521,343.961,4.213,343.961,6.428z"/>
		<path d="M359.297,2.484v3.097h5.689v2.377h-5.689v4.771h-2.845V0.126h9.057l-0.019,2.358H359.297z"/>
		<path d="M382.285,2.124l-1.656,2.017c-0.865-0.99-2.107-1.639-3.277-1.639c-2.161,0-3.835,1.675-3.835,3.872
			c0,2.196,1.674,3.889,3.835,3.889c1.134,0,2.377-0.576,3.277-1.477l1.674,1.818c-1.332,1.369-3.259,2.251-5.096,2.251
			c-3.763,0-6.607-2.791-6.607-6.446c0-3.637,2.898-6.373,6.716-6.373C379.134,0.036,381.043,0.846,382.285,2.124z"/>
		<path d="M386.351,10.281l-0.99,2.448h-2.935L387.9,0.126h2.935l5.384,12.604h-3.043l-0.99-2.448H386.351z M389.286,3.097
			l-1.998,4.897h3.979L389.286,3.097z"/>
		<path d="M405.775,10.245v2.484h-8.246V0.126h2.845v10.119H405.775z"/>
		<path d="M418.25,2.124l-1.656,2.017c-0.865-0.99-2.107-1.639-3.277-1.639c-2.161,0-3.835,1.675-3.835,3.872
			c0,2.196,1.674,3.889,3.835,3.889c1.134,0,2.377-0.576,3.277-1.477l1.674,1.818c-1.332,1.369-3.259,2.251-5.096,2.251
			c-3.763,0-6.607-2.791-6.607-6.446c0-3.637,2.898-6.373,6.716-6.373C415.098,0.036,417.008,0.846,418.25,2.124z"/>
		<path d="M419.957,12.729V0.126h2.845v12.604H419.957z"/>
		<path d="M436.734,7.454c0,3.331-2.178,5.401-5.653,5.401c-3.493,0-5.726-2.07-5.726-5.401V0.126h2.845v7.328
			c0,1.818,1.188,2.917,2.881,2.917s2.809-1.099,2.809-2.917V0.126h2.845V7.454z"/>
		<path d="M450.396,12.729V4.23l-3.349,7.221h-1.854l-3.35-7.221v8.499h-2.574V0.126h3.187l3.673,7.706l3.655-7.706h3.169v12.604
			H450.396z"/>
		<path d="M460.078,12.729V0.126h2.845v12.604H460.078z"/>
		<path d="M475.109,1.368l-1.099,2.358c-1.332-0.792-2.917-1.296-3.925-1.296c-0.954,0-1.603,0.342-1.603,1.026
			c0,2.322,6.716,1.026,6.698,5.563c0,2.467-2.143,3.799-4.934,3.799c-2.07,0-4.142-0.792-5.563-1.998l1.134-2.323
			c1.297,1.152,3.133,1.891,4.466,1.891c1.17,0,1.872-0.432,1.872-1.206c0-2.377-6.716-0.99-6.716-5.456
			c0-2.286,1.963-3.727,4.88-3.727C472.085,0,473.848,0.54,475.109,1.368z"/>
		<path d="M481.515,12.729V0.126h2.845v12.604H481.515z"/>
		<path d="M495.97,12.729l-6.104-8.084v8.084h-2.719V0.126h2.593l6.121,8.103V0.126h2.701v12.604H495.97z"/>
	</g>
</g>
<g>
	<path d="M316.355,117.574v-3.923h15.981v3.923H316.355z M316.355,125.313v-3.924h15.981v3.924H316.355z"/>
</g>
<g>
	<polygon fill="#FFFFFF" points="4.922,73.194 70.721,73.194 62.085,144.945 13.559,144.945 	"/>
	<polygon fill="#FFFFFF" points="110.72,73.194 176.519,73.194 167.883,144.945 119.357,144.945 	"/>
	<polygon fill="#FFFFFF" points="216.86,73.194 282.659,73.194 274.022,144.945 225.497,144.945 	"/>
	<g>
		<g>
			<g id="Illlatte">
				<polygon fill="none" stroke="#000000" stroke-width="1.043" stroke-miterlimit="10" points="271.688,142.945 223.162,142.945 
					212.191,51.801 282.659,51.801 				"/>
				
					<line fill="none" stroke="#000000" stroke-width="1.043" stroke-miterlimit="10" x1="280.325" y1="71.194" x2="214.526" y2="71.194"/>
			</g>
			<g id="Illlatte_1_">
				<polygon fill="none" stroke="#000000" stroke-width="1.043" stroke-miterlimit="10" points="165.548,142.945 117.023,142.945 
					106.052,51.801 176.519,51.801 				"/>
				
					<line fill="none" stroke="#000000" stroke-width="1.043" stroke-miterlimit="10" x1="174.185" y1="71.194" x2="108.386" y2="71.194"/>
			</g>
			<g id="Illlatte_2_">
				<polygon fill="none" stroke="#000000" stroke-width="1.043" stroke-miterlimit="10" points="60.085,142.945 11.559,142.945 
					0.588,51.801 71.056,51.801 				"/>
				
					<line fill="none" stroke="#000000" stroke-width="1.043" stroke-miterlimit="10" x1="68.721" y1="71.194" x2="2.922" y2="71.194"/>
			</g>
		</g>
		<g>
			<path d="M6.996,174.766c2.107,0.18,3.548,1.404,3.548,3.385c0,2.359-1.783,3.997-4.592,3.997c-1.549,0-3.169-0.54-4.249-1.368
				l0.882-1.729c0.9,0.847,2.07,1.314,3.223,1.314c1.675,0,2.647-0.864,2.647-2.16c0-1.369-0.99-2.071-2.665-2.071H4.044v-1.242
				l3.276-3.529H2.279v-1.891h7.67v1.333l-3.601,3.889L6.996,174.766z"/>
			<path d="M28.364,171.345l-1.242,1.549c-0.918-0.991-2.232-1.603-3.511-1.603c-2.521,0-4.502,1.944-4.502,4.429
				c0,2.485,1.981,4.447,4.502,4.447c1.26,0,2.557-0.576,3.511-1.494l1.261,1.404c-1.278,1.261-3.098,2.07-4.88,2.07
				c-3.691,0-6.554-2.79-6.554-6.409c0-3.583,2.898-6.338,6.626-6.338C25.357,169.401,27.139,170.139,28.364,171.345z"/>
			<path d="M41.432,176.836c0,3.295-2.071,5.312-5.474,5.312c-3.403,0-5.492-2.017-5.492-5.312v-7.382h2.125v7.382
				c0,2.125,1.314,3.403,3.385,3.403c2.053,0,3.331-1.261,3.331-3.403v-7.382h2.125V176.836z"/>
			<path d="M49.674,169.455c3.169,0,4.987,1.566,4.987,4.304c0,2.845-1.818,4.501-4.987,4.501h-2.898v3.799H44.65v-12.604H49.674z
				 M46.775,176.351h2.809c1.944,0,3.043-0.829,3.043-2.539c0-1.656-1.099-2.449-3.043-2.449h-2.809V176.351z"/>
			<path d="M65.497,170.661l-0.882,1.873c-1.369-0.828-2.737-1.171-3.691-1.171c-1.242,0-2.053,0.469-2.053,1.314
				c0,2.755,6.806,1.278,6.788,5.816c0,2.25-1.98,3.637-4.754,3.637c-1.98,0-3.853-0.811-5.149-1.999l0.919-1.836
				c1.296,1.188,2.917,1.836,4.267,1.836c1.477,0,2.359-0.558,2.359-1.53c0-2.809-6.807-1.242-6.807-5.726
				c0-2.16,1.854-3.511,4.592-3.511C62.724,169.365,64.327,169.886,65.497,170.661z"/>
			<path d="M85.46,175.756c0,3.602-2.916,6.392-6.68,6.392c-3.763,0-6.68-2.79-6.68-6.392c0-3.619,2.917-6.355,6.68-6.355
				C82.544,169.401,85.46,172.156,85.46,175.756z M74.261,175.756c0,2.503,2.071,4.483,4.538,4.483s4.483-1.98,4.483-4.483
				s-2.017-4.447-4.483-4.447C76.313,171.309,74.261,173.253,74.261,175.756z"/>
			<path d="M90.029,171.363V175h5.726v1.891h-5.726v5.167h-2.125v-12.604h8.463l-0.019,1.908H90.029z"/>
			<path d="M108.281,169.455c3.169,0,4.987,1.566,4.987,4.304c0,2.845-1.818,4.501-4.987,4.501h-2.898v3.799h-2.125v-12.604H108.281
				z M105.383,176.351h2.809c1.944,0,3.043-0.829,3.043-2.539c0-1.656-1.099-2.449-3.043-2.449h-2.809V176.351z"/>
			<path d="M116.543,179.213l-1.207,2.845h-2.215l5.564-12.604h2.179l5.509,12.604h-2.269l-1.206-2.845H116.543z M119.712,171.723
				l-2.377,5.6h4.753L119.712,171.723z"/>
			<path d="M136.669,170.661l-0.882,1.873c-1.369-0.828-2.737-1.171-3.691-1.171c-1.242,0-2.053,0.469-2.053,1.314
				c0,2.755,6.806,1.278,6.788,5.816c0,2.25-1.98,3.637-4.754,3.637c-1.98,0-3.853-0.811-5.149-1.999l0.919-1.836
				c1.296,1.188,2.917,1.836,4.267,1.836c1.477,0,2.359-0.558,2.359-1.53c0-2.809-6.807-1.242-6.807-5.726
				c0-2.16,1.854-3.511,4.592-3.511C133.896,169.365,135.499,169.886,136.669,170.661z"/>
			<path d="M144.1,171.363v10.695h-2.124v-10.695h-3.979v-1.908h10.101v1.908H144.1z"/>
			<path d="M152.219,171.363v3.403h6.157v1.908h-6.157v3.476h7.094v1.908h-9.219v-12.604h9.003v1.908H152.219z"/>
			<path d="M172.795,176.836c0,3.295-2.071,5.312-5.474,5.312c-3.403,0-5.492-2.017-5.492-5.312v-7.382h2.125v7.382
				c0,2.125,1.314,3.403,3.385,3.403c2.053,0,3.331-1.261,3.331-3.403v-7.382h2.125V176.836z"/>
			<path d="M181.704,178.241c-0.181,0.019-0.379,0.019-0.576,0.019h-2.989v3.799h-2.125v-12.604h5.114
				c3.223,0,5.077,1.566,5.077,4.304c0,2.017-0.937,3.438-2.611,4.087l2.827,4.213h-2.412L181.704,178.241z M181.128,176.351
				c1.944,0,3.061-0.829,3.061-2.539c0-1.656-1.116-2.449-3.061-2.449h-2.989v4.988H181.128z"/>
			<path d="M189.207,182.058v-12.604h2.125v12.604H189.207z"/>
			<path d="M196.714,180.15h7.761v1.908h-10.642v-1.53l7.688-9.165h-7.454v-1.908h10.317v1.53L196.714,180.15z"/>
			<path d="M209.115,171.363v3.403h6.157v1.908h-6.157v3.476h7.094v1.908h-9.219v-12.604h9.003v1.908H209.115z"/>
			<path d="M224.146,169.455c3.781,0,6.518,2.646,6.518,6.302c0,3.637-2.755,6.302-6.571,6.302h-5.114v-12.604H224.146z
				 M221.103,180.15h3.097c2.449,0,4.321-1.818,4.321-4.375c0-2.575-1.927-4.412-4.411-4.412h-3.007V180.15z"/>
			<path d="M249.294,182.058l-0.018-9.417l-3.979,8.103h-1.386l-3.979-8.103v9.417h-1.999v-12.604h2.521l4.159,8.372l4.141-8.372
				h2.503v12.604H249.294z"/>
			<path d="M254.761,182.058v-12.604h2.125v12.604H254.761z"/>
			<path d="M267.958,180.131v1.927h-7.58v-12.604h2.125v10.677H267.958z"/>
			<path d="M274.437,176.495l-2.143,2.358v3.205h-2.125v-12.604h2.125v6.518l6.014-6.518h2.503l-4.88,5.384l5.204,7.22h-2.557
				L274.437,176.495z"/>
		</g>
	</g>
</g>
<g>
	<line fill="none" stroke="#000000" stroke-miterlimit="10" x1="370.737" y1="77.96" x2="385.969" y2="50.965"/>
	<path fill="none" stroke="#000000" stroke-miterlimit="10" d="M386.97,48.67c0,0,10.279-2.658,6.874-12.183
		C393.844,36.487,384.763,37.559,386.97,48.67z"/>
	<g>
		<path fill="none" stroke="#000000" stroke-miterlimit="10" d="M387.018,53.847c0,0,9.148,5.389,13.475-3.754
			C400.493,50.093,393.314,44.429,387.018,53.847z"/>
		<path fill="none" stroke="#000000" stroke-miterlimit="10" d="M381.479,63.663c0,0,9.148,5.389,13.475-3.754
			C394.954,59.909,387.775,54.246,381.479,63.663z"/>
		<path fill="none" stroke="#000000" stroke-miterlimit="10" d="M375.94,73.48c0,0,9.148,5.389,13.475-3.754
			C389.415,69.726,382.237,64.062,375.94,73.48z"/>
	</g>
	<g>
		<path fill="none" stroke="#000000" stroke-miterlimit="10" d="M383.393,51.801c0,0-9.343-5.044-3.754-13.475
			C379.639,38.326,388.198,41.543,383.393,51.801z"/>
		<path fill="none" stroke="#000000" stroke-miterlimit="10" d="M377.854,61.618c0,0-9.343-5.044-3.754-13.475
			C374.1,48.143,382.659,51.359,377.854,61.618z"/>
		<path fill="none" stroke="#000000" stroke-miterlimit="10" d="M372.315,71.434c0,0-9.343-5.044-3.754-13.475
			C368.561,57.959,377.121,61.176,372.315,71.434z"/>
	</g>
</g>
<g>
	<path d="M427.535,44.292c2.107,0.18,3.548,1.404,3.548,3.385c0,2.359-1.783,3.997-4.592,3.997c-1.549,0-3.169-0.54-4.249-1.368
		l0.882-1.729c0.9,0.846,2.07,1.314,3.223,1.314c1.675,0,2.647-0.864,2.647-2.161c0-1.369-0.99-2.071-2.665-2.071h-1.746v-1.242
		l3.276-3.529h-5.041v-1.891h7.67v1.333l-3.601,3.889L427.535,44.292z"/>
	<path d="M442.117,39.845l-0.829,1.602c-0.773-0.504-1.836-0.792-2.79-0.792c-2.449,0-3.583,1.836-3.512,4.555
		c0.667-1.17,1.854-1.782,3.439-1.782c2.521,0,4.051,1.566,4.051,4.015c0,2.611-1.746,4.231-4.429,4.231
		c-3.188,0-5.132-2.269-5.132-6.14c0-4.015,2.106-6.644,5.438-6.644C439.595,38.89,441.091,39.269,442.117,39.845z M435.329,47.497
		c-0.019,1.099,0.792,2.341,2.61,2.341c1.53,0,2.557-0.882,2.557-2.413c0-1.44-0.937-2.323-2.467-2.323
		C436.319,45.102,435.31,46.2,435.329,47.497z"/>
	<path d="M458.334,40.187l-0.882,1.873c-1.369-0.828-2.737-1.17-3.691-1.17c-1.242,0-2.053,0.468-2.053,1.314
		c0,2.755,6.806,1.278,6.788,5.816c0,2.25-1.98,3.637-4.753,3.637c-1.981,0-3.854-0.811-5.15-1.999l0.919-1.836
		c1.296,1.188,2.917,1.836,4.267,1.836c1.477,0,2.359-0.558,2.359-1.53c0-2.809-6.807-1.242-6.807-5.726
		c0-2.161,1.854-3.511,4.592-3.511C455.561,38.89,457.164,39.412,458.334,40.187z"/>
	<path d="M463.282,40.889v3.403h6.158V46.2h-6.158v3.475h7.094v1.909h-9.219V38.98h9.003v1.908H463.282z"/>
	<path d="M478.835,47.767c-0.18,0.018-0.378,0.018-0.576,0.018h-2.988v3.799h-2.125V38.98h5.113c3.224,0,5.078,1.566,5.078,4.303
		c0,2.017-0.937,3.439-2.611,4.087l2.827,4.213h-2.413L478.835,47.767z M478.259,45.876c1.945,0,3.062-0.829,3.062-2.539
		c0-1.656-1.116-2.449-3.062-2.449h-2.988v4.988H478.259z"/>
	<path d="M489.616,51.584l-5.023-12.604h2.287l3.889,10.245l3.926-10.245h2.215l-5.096,12.604H489.616z"/>
	<path d="M498.795,51.584V38.98h2.125v12.604H498.795z"/>
	<path d="M513.252,51.584l-6.716-9.039v9.039h-2.125V38.98h2.089l6.752,9.057V38.98h2.089v12.604H513.252z"/>
	<path d="M529.326,45.39v4.646c-1.278,0.972-3.169,1.638-4.897,1.638c-3.728,0-6.626-2.791-6.626-6.392s2.935-6.356,6.752-6.356
		c1.801,0,3.601,0.684,4.844,1.765l-1.207,1.566c-0.972-0.9-2.322-1.44-3.637-1.44c-2.575,0-4.592,1.962-4.592,4.465
		c0,2.521,2.035,4.483,4.609,4.483c0.937,0,1.999-0.324,2.899-0.864V45.39H529.326z"/>
	<path d="M549.647,45.282c0,3.601-2.916,6.392-6.68,6.392c-3.763,0-6.68-2.791-6.68-6.392c0-3.619,2.917-6.356,6.68-6.356
		C546.731,38.926,549.647,41.681,549.647,45.282z M538.448,45.282c0,2.502,2.071,4.483,4.538,4.483s4.483-1.981,4.483-4.483
		c0-2.503-2.017-4.447-4.483-4.447C540.501,40.835,538.448,42.779,538.448,45.282z"/>
	<path d="M554.218,40.889v3.637h5.726v1.891h-5.726v5.167h-2.125V38.98h8.463l-0.019,1.908H554.218z"/>
	<path d="M434.611,73.184l-2.988-9.831l-3.025,9.831h-2.196l-4.178-12.604h2.287l3.061,10.245l3.043-10.227l2.089-0.018
		l3.061,10.245l3.043-10.245h2.197l-4.214,12.604H434.611z"/>
	<path d="M451.459,73.184v-5.222h-6.68v5.222h-2.125V60.58h2.125v5.474h6.68V60.58h2.125v12.604H451.459z"/>
	<path d="M469.387,66.882c0,3.601-2.916,6.392-6.68,6.392c-3.763,0-6.68-2.791-6.68-6.392c0-3.619,2.917-6.356,6.68-6.356
		C466.471,60.526,469.387,63.281,469.387,66.882z M458.188,66.882c0,2.502,2.071,4.483,4.538,4.483s4.483-1.981,4.483-4.483
		c0-2.503-2.017-4.447-4.483-4.447C460.241,62.435,458.188,64.379,458.188,66.882z"/>
	<path d="M479.412,71.257v1.927h-7.58V60.58h2.125v10.677H479.412z"/>
	<path d="M483.749,62.489v3.403h6.158V67.8h-6.158v3.475h7.094v1.909h-9.219V60.58h9.003v1.909H483.749z"/>
	<path d="M508.915,66.99v4.646c-1.278,0.972-3.169,1.638-4.897,1.638c-3.728,0-6.626-2.791-6.626-6.392s2.935-6.356,6.752-6.356
		c1.801,0,3.601,0.684,4.844,1.765l-1.207,1.566c-0.972-0.9-2.322-1.44-3.637-1.44c-2.575,0-4.592,1.962-4.592,4.465
		c0,2.521,2.035,4.483,4.609,4.483c0.937,0,1.999-0.324,2.899-0.864V66.99H508.915z"/>
	<path d="M517.788,69.367c-0.181,0.018-0.379,0.018-0.576,0.018h-2.989v3.799h-2.125V60.58h5.114c3.223,0,5.077,1.567,5.077,4.304
		c0,2.017-0.937,3.439-2.611,4.087l2.827,4.213h-2.412L517.788,69.367z M517.212,67.477c1.944,0,3.061-0.829,3.061-2.539
		c0-1.656-1.116-2.449-3.061-2.449h-2.989v4.988H517.212z"/>
	<path d="M527.074,70.339l-1.207,2.845h-2.215l5.564-12.604h2.179l5.509,12.604h-2.269l-1.206-2.845H527.074z M530.243,62.849
		l-2.377,5.6h4.753L530.243,62.849z"/>
	<path d="M538.755,73.184V60.58h2.125v12.604H538.755z"/>
	<path d="M553.212,73.184l-6.716-9.039v9.039h-2.125V60.58h2.089l6.752,9.057V60.58h2.089v12.604H553.212z"/>
	<path d="M567.359,61.787l-0.882,1.873c-1.369-0.828-2.737-1.17-3.691-1.17c-1.242,0-2.053,0.468-2.053,1.314
		c0,2.755,6.806,1.278,6.788,5.816c0,2.25-1.98,3.637-4.753,3.637c-1.981,0-3.854-0.81-5.15-1.999l0.919-1.836
		c1.296,1.188,2.917,1.836,4.267,1.836c1.477,0,2.359-0.558,2.359-1.53c0-2.809-6.807-1.242-6.807-5.726
		c0-2.161,1.854-3.511,4.592-3.511C564.587,60.49,566.189,61.013,567.359,61.787z"/>
</g>
<g>
	<path fill="none" stroke="#000000" stroke-miterlimit="10" d="M399.258,127.334c0-2.833-1.541-5.3-3.827-6.626
		c0.265-0.776,0.415-1.606,0.415-2.472c0-3.354-2.159-6.197-5.16-7.235c0.393-0.921,0.611-1.935,0.611-3
		c0-4.231-3.43-7.662-7.662-7.662c-4.231,0-7.662,3.43-7.662,7.662c0,1.065,0.218,2.078,0.611,3c-3.001,1.038-5.16,3.881-5.16,7.235
		c0,0.866,0.15,1.696,0.415,2.472c-2.286,1.326-3.827,3.793-3.827,6.626c0,2.674,1.23,5.025,3.306,6.395
		c0.358,3.899,3.484,6.952,7.484,6.952v3.85h10v-3.879c4-0.273,6.693-3.211,7.034-6.924
		C397.914,132.358,399.258,130.007,399.258,127.334z"/>
	<line fill="none" stroke="#000000" stroke-miterlimit="10" x1="383.804" y1="137.032" x2="383.804" y2="117.032"/>
	<line fill="none" stroke="#000000" stroke-miterlimit="10" x1="385.888" y1="132.057" x2="390.436" y2="127.509"/>
	<line fill="none" stroke="#000000" stroke-miterlimit="10" x1="385.888" y1="124.096" x2="390.436" y2="119.548"/>
	<line fill="none" stroke="#000000" stroke-miterlimit="10" x1="375.653" y1="119.548" x2="380.201" y2="124.096"/>
	<line fill="none" stroke="#000000" stroke-miterlimit="10" x1="375.653" y1="127.509" x2="380.201" y2="132.057"/>
</g>
<g>
	<path d="M431.371,107.296c0,1.278-0.973,2.7-2.305,4.141l-3.277,3.476h6.158v1.908h-8.967v-1.548l4.646-4.988
		c0.918-0.936,1.53-1.962,1.53-2.683c0-1.008-0.792-1.62-2.106-1.62c-1.099,0-2.377,0.612-3.439,1.584l-0.847-1.638
		c1.369-1.117,2.972-1.801,4.592-1.801C429.732,104.127,431.371,105.37,431.371,107.296z"/>
	<path d="M444.51,110.519c0,4.087-1.908,6.356-5.348,6.356c-3.457,0-5.365-2.27-5.365-6.356s1.908-6.355,5.365-6.355
		C442.602,104.164,444.51,106.432,444.51,110.519z M435.976,110.519c0,3.188,1.062,4.682,3.187,4.682
		c2.107,0,3.169-1.494,3.169-4.682c0-3.205-1.062-4.682-3.169-4.682C437.039,105.837,435.976,107.314,435.976,110.519z"/>
	<path d="M462.403,106.108l-1.242,1.549c-0.918-0.991-2.232-1.603-3.511-1.603c-2.521,0-4.502,1.944-4.502,4.429
		c0,2.485,1.981,4.447,4.502,4.447c1.26,0,2.557-0.576,3.511-1.494l1.261,1.404c-1.278,1.261-3.098,2.07-4.88,2.07
		c-3.691,0-6.554-2.79-6.554-6.409c0-3.583,2.898-6.338,6.626-6.338C459.396,104.164,461.178,104.902,462.403,106.108z"/>
	<path d="M475.471,111.599c0,3.295-2.071,5.312-5.474,5.312c-3.403,0-5.492-2.017-5.492-5.312v-7.382h2.125v7.382
		c0,2.125,1.314,3.403,3.385,3.403c2.053,0,3.331-1.261,3.331-3.403v-7.382h2.125V111.599z"/>
	<path d="M483.713,104.217c3.169,0,4.987,1.566,4.987,4.304c0,2.845-1.818,4.501-4.987,4.501h-2.898v3.799h-2.125v-12.604H483.713z
		 M480.814,111.114h2.809c1.944,0,3.043-0.829,3.043-2.539c0-1.656-1.099-2.449-3.043-2.449h-2.809V111.114z"/>
	<path d="M499.536,105.423l-0.882,1.873c-1.369-0.828-2.737-1.171-3.691-1.171c-1.242,0-2.053,0.469-2.053,1.314
		c0,2.755,6.806,1.278,6.788,5.816c0,2.25-1.98,3.637-4.754,3.637c-1.98,0-3.853-0.811-5.149-1.999l0.919-1.836
		c1.296,1.188,2.917,1.836,4.267,1.836c1.477,0,2.359-0.558,2.359-1.53c0-2.809-6.807-1.242-6.807-5.726
		c0-2.16,1.854-3.511,4.592-3.511C496.763,104.127,498.366,104.649,499.536,105.423z"/>
	<path d="M436.141,132.12c0,3.601-2.916,6.392-6.68,6.392c-3.763,0-6.68-2.791-6.68-6.392c0-3.619,2.917-6.356,6.68-6.356
		C433.225,125.763,436.141,128.518,436.141,132.12z M424.942,132.12c0,2.502,2.071,4.483,4.538,4.483s4.483-1.981,4.483-4.483
		c0-2.503-2.017-4.447-4.483-4.447C426.995,127.672,424.942,129.617,424.942,132.12z"/>
	<path d="M440.711,127.726v3.637h5.726v1.891h-5.726v5.168h-2.125v-12.604h8.463l-0.019,1.909H440.711z"/>
	<path d="M459.63,134.604c-0.18,0.018-0.378,0.018-0.576,0.018h-2.988v3.8h-2.125v-12.604h5.113c3.224,0,5.078,1.567,5.078,4.304
		c0,2.017-0.937,3.439-2.611,4.087l2.827,4.214h-2.413L459.63,134.604z M459.053,132.713c1.945,0,3.062-0.828,3.062-2.539
		c0-1.656-1.116-2.448-3.062-2.448h-2.988v4.987H459.053z"/>
	<path d="M468.917,135.577l-1.207,2.845h-2.215l5.564-12.604h2.179l5.509,12.604h-2.269l-1.206-2.845H468.917z M472.086,128.086
		l-2.377,5.6h4.753L472.086,128.086z"/>
	<path d="M490.501,138.421l-2.988-9.831l-3.025,9.831h-2.196l-4.178-12.604h2.287l3.061,10.245l3.043-10.227l2.089-0.019
		l3.061,10.245l3.043-10.245h2.197l-4.214,12.604H490.501z"/>
	<path d="M511.92,127.024l-0.882,1.872c-1.369-0.828-2.737-1.17-3.691-1.17c-1.242,0-2.053,0.468-2.053,1.314
		c0,2.755,6.806,1.278,6.788,5.815c0,2.251-1.98,3.637-4.753,3.637c-1.981,0-3.854-0.81-5.15-1.998l0.919-1.837
		c1.296,1.188,2.917,1.837,4.267,1.837c1.477,0,2.359-0.559,2.359-1.53c0-2.81-6.807-1.242-6.807-5.726
		c0-2.161,1.854-3.512,4.592-3.512C509.147,125.727,510.75,126.25,511.92,127.024z"/>
	<path d="M519.766,125.817c3.169,0,4.988,1.567,4.988,4.304c0,2.845-1.819,4.501-4.988,4.501h-2.898v3.8h-2.125v-12.604H519.766z
		 M516.868,132.713h2.809c1.944,0,3.043-0.828,3.043-2.539c0-1.656-1.099-2.448-3.043-2.448h-2.809V132.713z"/>
	<path d="M527.037,138.421v-12.604h2.125v12.604H527.037z"/>
	<path d="M541.494,138.421l-6.716-9.039v9.039h-2.125v-12.604h2.089l6.752,9.058v-9.058h2.089v12.604H541.494z"/>
	<path d="M548.872,135.577l-1.207,2.845h-2.215l5.564-12.604h2.179l5.509,12.604h-2.269l-1.206-2.845H548.872z M552.041,128.086
		l-2.377,5.6h4.753L552.041,128.086z"/>
	<path d="M570.599,127.708l-1.242,1.549c-0.918-0.99-2.232-1.603-3.511-1.603c-2.521,0-4.502,1.944-4.502,4.43
		c0,2.484,1.98,4.447,4.502,4.447c1.26,0,2.557-0.576,3.511-1.495l1.261,1.405c-1.278,1.26-3.098,2.07-4.88,2.07
		c-3.691,0-6.554-2.791-6.554-6.41c0-3.583,2.898-6.338,6.626-6.338C567.593,125.763,569.376,126.501,570.599,127.708z"/>
	<path d="M581.76,138.421V133.2h-6.68v5.222h-2.125v-12.604h2.125v5.474h6.68v-5.474h2.125v12.604H581.76z"/>
</g>
<g>
	<g>
		<path fill="none" stroke="#000000" stroke-miterlimit="10" d="M366.005,201.897c-2.171-2.833-1.851-6.906,0.832-9.36
			c1.612-1.475,3.731-2.047,5.735-1.746"/>
		<path fill="none" stroke="#000000" stroke-miterlimit="10" d="M374.27,194.94c-2.475-2.838-2.244-7.149,0.55-9.704
			c1.595-1.459,3.685-2.035,5.671-1.755"/>
		<path fill="none" stroke="#000000" stroke-miterlimit="10" d="M382.523,187.931c-0.053-0.055-0.106-0.11-0.158-0.167
			c-2.594-2.835-2.397-7.237,0.438-9.83c1.612-1.475,3.73-2.047,5.735-1.746"/>
		<path fill="none" stroke="#000000" stroke-miterlimit="10" d="M390.348,180.462c-2.594-2.835-2.397-7.237,0.438-9.83
			c2.658-2.431,6.693-2.411,9.323-0.063"/>
	</g>
	<path fill="none" stroke="#000000" stroke-miterlimit="10" d="M383.356,187.197c-1.758,1.608-21.292,18.024-21.292,18.024
		s4.961,3.997,9.4,2.536c4.565-1.503,14.281-10.717,17.902-14.029c3.516-3.216,13.643-12.151,15.546-16.564
		c1.85-4.291-1.71-9.57-1.71-9.57S385.114,185.589,383.356,187.197z"/>
	<path fill="#F7F3E4" stroke="#000000" stroke-miterlimit="10" d="M361.826,205.31c0,0,0.553-2.618,3.092-4.823"/>
	<path fill="#F7F3E4" stroke="#000000" stroke-miterlimit="10" d="M403.369,167.319c0,0-2.158,0.597-4.462,2.389"/>
</g>
<g>
	<path d="M424.871,182.058v-10.713h-2.467v-1.891h4.591v12.604H424.871z"/>
	<path d="M439.182,172.624c0,1.225-0.702,2.179-1.873,2.701c1.53,0.504,2.503,1.674,2.503,3.204c0,2.251-1.872,3.619-4.861,3.619
		c-2.971,0-4.844-1.368-4.844-3.583c0-1.548,0.99-2.736,2.593-3.24c-1.225-0.559-1.962-1.549-1.962-2.773
		c0-1.98,1.638-3.187,4.213-3.187C437.544,169.365,439.182,170.607,439.182,172.624z M432.124,178.332
		c0,1.368,1.026,2.143,2.827,2.143s2.845-0.774,2.845-2.143c0-1.314-1.044-2.089-2.845-2.089
		C433.169,176.243,432.124,177.017,432.124,178.332z M432.538,172.75c0,1.17,0.9,1.837,2.413,1.837c1.53,0,2.413-0.667,2.413-1.837
		s-0.883-1.854-2.413-1.854C433.438,170.895,432.538,171.58,432.538,172.75z"/>
	<path d="M455.797,170.661l-0.882,1.873c-1.369-0.828-2.737-1.171-3.691-1.171c-1.242,0-2.053,0.469-2.053,1.314
		c0,2.755,6.806,1.278,6.788,5.816c0,2.25-1.98,3.637-4.753,3.637c-1.981,0-3.854-0.811-5.15-1.999l0.919-1.836
		c1.296,1.188,2.917,1.836,4.267,1.836c1.477,0,2.359-0.558,2.359-1.53c0-2.809-6.807-1.242-6.807-5.726
		c0-2.16,1.854-3.511,4.592-3.511C453.024,169.365,454.627,169.886,455.797,170.661z"/>
	<path d="M460.745,171.363v3.403h6.158v1.908h-6.158v3.476h7.094v1.908h-9.219v-12.604h9.003v1.908H460.745z"/>
	<path d="M476.298,178.241c-0.181,0.019-0.379,0.019-0.576,0.019h-2.989v3.799h-2.125v-12.604h5.114
		c3.223,0,5.077,1.566,5.077,4.304c0,2.017-0.937,3.438-2.611,4.087l2.827,4.213h-2.412L476.298,178.241z M475.721,176.351
		c1.944,0,3.061-0.829,3.061-2.539c0-1.656-1.116-2.449-3.061-2.449h-2.989v4.988H475.721z"/>
	<path d="M487.078,182.058l-5.023-12.604h2.287l3.889,10.245l3.926-10.245h2.215l-5.096,12.604H487.078z"/>
	<path d="M496.257,182.058v-12.604h2.125v12.604H496.257z"/>
	<path d="M510.714,182.058l-6.716-9.038v9.038h-2.125v-12.604h2.089l6.752,9.057v-9.057h2.089v12.604H510.714z"/>
	<path d="M526.788,175.865v4.646c-1.278,0.972-3.169,1.638-4.897,1.638c-3.728,0-6.626-2.79-6.626-6.392
		c0-3.601,2.935-6.355,6.752-6.355c1.801,0,3.601,0.684,4.844,1.765l-1.207,1.566c-0.972-0.9-2.322-1.44-3.637-1.44
		c-2.575,0-4.592,1.962-4.592,4.465c0,2.521,2.035,4.483,4.609,4.483c0.937,0,1.999-0.324,2.899-0.864v-3.511H526.788z"/>
	<path d="M538.523,170.661l-0.882,1.873c-1.369-0.828-2.737-1.171-3.691-1.171c-1.242,0-2.053,0.469-2.053,1.314
		c0,2.755,6.806,1.278,6.788,5.816c0,2.25-1.98,3.637-4.753,3.637c-1.981,0-3.854-0.811-5.15-1.999l0.919-1.836
		c1.296,1.188,2.917,1.836,4.267,1.836c1.477,0,2.359-0.558,2.359-1.53c0-2.809-6.807-1.242-6.807-5.726
		c0-2.16,1.854-3.511,4.592-3.511C535.751,169.365,537.353,169.886,538.523,170.661z"/>
	<path d="M436.141,197.357c0,3.601-2.916,6.392-6.68,6.392c-3.763,0-6.68-2.791-6.68-6.392c0-3.619,2.917-6.356,6.68-6.356
		C433.225,191,436.141,193.755,436.141,197.357z M424.942,197.357c0,2.502,2.071,4.483,4.538,4.483s4.483-1.981,4.483-4.483
		c0-2.503-2.017-4.447-4.483-4.447C426.995,192.91,424.942,194.854,424.942,197.357z"/>
	<path d="M440.711,192.963v3.637h5.726v1.891h-5.726v5.168h-2.125v-12.604h8.463l-0.019,1.909H440.711z"/>
	<path d="M461.52,201.732v1.927h-7.58v-12.604h2.125v10.678H461.52z"/>
	<path d="M465.856,192.963v3.403h6.158v1.908h-6.158v3.475h7.094v1.909h-9.219v-12.604h9.003v1.909H465.856z"/>
	<path d="M486.199,197.464v4.646c-1.278,0.973-3.169,1.639-4.897,1.639c-3.728,0-6.626-2.791-6.626-6.392
		c0-3.602,2.935-6.356,6.752-6.356c1.801,0,3.601,0.685,4.844,1.765l-1.207,1.566c-0.972-0.9-2.322-1.44-3.637-1.44
		c-2.575,0-4.592,1.963-4.592,4.466c0,2.521,2.035,4.483,4.609,4.483c0.937,0,1.999-0.324,2.899-0.864v-3.512H486.199z"/>
	<path d="M500.095,198.437c0,3.295-2.071,5.312-5.474,5.312c-3.403,0-5.492-2.017-5.492-5.312v-7.383h2.125v7.383
		c0,2.124,1.314,3.403,3.385,3.403c2.053,0,3.331-1.261,3.331-3.403v-7.383h2.125V198.437z"/>
	<path d="M514.675,203.659l-0.018-9.417l-3.979,8.103h-1.386l-3.979-8.103v9.417h-1.999v-12.604h2.521l4.159,8.373l4.141-8.373
		h2.503v12.604H514.675z"/>
	<path d="M522.268,192.963v3.403h6.158v1.908h-6.158v3.475h7.094v1.909h-9.219v-12.604h9.003v1.909H522.268z"/>
	<path d="M540.683,192.261l-0.882,1.872c-1.369-0.828-2.737-1.17-3.691-1.17c-1.242,0-2.053,0.468-2.053,1.314
		c0,2.755,6.806,1.278,6.788,5.815c0,2.251-1.98,3.637-4.753,3.637c-1.981,0-3.854-0.81-5.15-1.998l0.919-1.837
		c1.296,1.188,2.917,1.837,4.267,1.837c1.477,0,2.359-0.559,2.359-1.53c0-2.81-6.807-1.242-6.807-5.726
		c0-2.161,1.854-3.512,4.592-3.512C537.911,190.964,539.513,191.487,540.683,192.261z"/>
</g>
</svg>
