<?xml version="1.0" encoding="utf-8"?>
<!-- Generator: Adobe Illustrator 17.0.0, SVG Export Plug-In . SVG Version: 6.00 Build 0)  -->
<!DOCTYPE svg PUBLIC "-//W3C//DTD SVG 1.1//EN" "http://www.w3.org/Graphics/SVG/1.1/DTD/svg11.dtd">
<svg version="1.1" id="Layer_1" xmlns="http://www.w3.org/2000/svg" xmlns:xlink="http://www.w3.org/1999/xlink" x="0px" y="0px"
	 width="461.39px" height="290.858px" viewBox="0 0 461.39 290.858" enable-background="new 0 0 461.39 290.858"
	 xml:space="preserve">
<g>
	<polyline fill="#FFFFFF" points="266.911,20.302 267.705,154.068 266.911,20.302 	"/>
	<polyline fill="#FFFFFF" points="266.411,20.305 267.205,154.07 268.205,154.065 267.411,20.299 266.411,20.305 	"/>
	<polyline fill="#FFFFFF" points="136.903,125.406 267.705,154.068 136.903,125.406 	"/>
	<polyline fill="#FFFFFF" points="136.796,125.895 267.598,154.556 267.812,153.579 137.01,124.918 136.796,125.895 	"/>
	<polyline fill="#FFFFFF" points="195.881,267.065 268.15,154.348 267.308,153.808 195.039,266.525 195.881,267.065 	"/>
	<polyline fill="#FFFFFF" points="267.287,154.342 340.893,266.204 341.728,265.654 268.122,153.793 267.287,154.342 	"/>
	<polyline fill="#FFFFFF" points="267.818,154.555 397.928,124.433 397.703,123.458 267.592,153.58 267.818,154.555 	"/>
	<path fill="#FFFFFF" d="M167.555,132.635c-1.265,6.418-1.929,13.055-1.929,19.844c0,36.215,18.869,68.023,47.312,86.13l0.54-0.842
		c-6.255-3.981-12.042-8.632-17.261-13.851c-18.283-18.284-29.59-43.537-29.59-71.437c0-6.716,0.656-13.281,1.906-19.63
		L167.555,132.635 M266.59,50.457c-48.74,0.497-89.292,35.17-98.837,81.197l0.977,0.214c4.069-19.628,13.832-37.172,27.486-50.827
		c18.012-18.011,42.788-29.252,70.194-29.583l0.185-0.21L266.59,50.457 M267.653,50.451c-0.021,0-0.042,0-0.063,0l0.006,1
		c0.019,0,0.038,0,0.057,0c27.899,0,53.153,11.307,71.437,29.59c13.387,13.388,23.035,30.515,27.241,49.68l0.974-0.226
		C357.254,84.712,316.455,50.452,267.653,50.451"/>
	<path fill="#FFFFFF" d="M267.59,50.451c-0.334,0-0.667,0.002-1,0.005l0.005,0.793l0.258-0.293l0.287,0.496
		c0.151-0.001,0.304-0.001,0.456-0.001L267.59,50.451"/>
	<path fill="#FFFFFF" d="M167.753,131.654c-0.068,0.327-0.134,0.652-0.198,0.98l0.977,0.214c0.065-0.328,0.13-0.653,0.198-0.98
		L167.753,131.654"/>
	<path fill="#FFFFFF" d="M322.077,237.608c-15.708,10.063-34.383,15.897-54.424,15.897c-19.578,0-37.851-5.567-53.329-15.206
		l-0.54,0.842c15.634,9.739,34.094,15.364,53.869,15.364c20.243,0,39.107-5.894,54.973-16.062L322.077,237.608 M369.68,152.478h-0.5
		h-0.5c0,27.9-11.307,53.153-29.59,71.437c-4.916,4.916-10.335,9.326-16.174,13.149l0.55,0.835
		C351.295,219.679,369.68,188.226,369.68,152.478"/>
	<path fill="#FFFFFF" d="M213.478,237.766l-0.54,0.842c0.281,0.179,0.563,0.357,0.846,0.533l0.54-0.842
		C214.041,238.123,213.758,237.945,213.478,237.766"/>
	<path fill="#FFFFFF" d="M322.916,237.064c-0.278,0.182-0.559,0.364-0.839,0.544l0.55,0.835c0.28-0.18,0.561-0.361,0.839-0.544
		L322.916,237.064"/>
	<path fill="#FFFFFF" d="M369.68,152.478L369.68,152.478L369.68,152.478 M367.515,131.473l-0.974,0.226
		c1.402,6.706,2.139,13.656,2.139,20.779h0.5h0.5l0,0C369.68,145.277,368.935,138.254,367.515,131.473"/>
	<path fill="#FFFFFF" d="M367.306,130.496l-0.974,0.226c0.072,0.326,0.141,0.651,0.21,0.978l0.974-0.226
		C367.448,131.15,367.376,130.818,367.306,130.496"/>
	<path opacity="0.75" fill="#FFFFFF" d="M267.726,155.009l-28.523,44.487l71.403,21.068l0.04-0.327L267.726,155.009
		 M319.835,142.512l-51.318,11.881l42.317,64.311l9.299-75.677L319.835,142.512 M190.41,137.643l-0.624,0.707l48.736,60.355
		l28.401-44.296L190.41,137.643 M267.601,52.249l0.6,101.191l51.11-11.833L267.601,52.249 M266.596,51.457
		c-0.063,0.001-0.123,0.001-0.186,0.002l-75.243,85.326l76.035,16.661L266.596,51.457"/>
	<path fill="#FFFFFF" d="M267.14,51.453c-0.182,0.001-0.362,0.002-0.544,0.004l0.605,101.988l0.501,0.11l0.499-0.116l-0.6-101.191
		L267.14,51.453"/>
	<polyline fill="#FFFFFF" points="191.167,136.785 190.41,137.643 266.923,154.408 267.308,153.808 267.704,154.062 267.592,153.58 
		267.702,153.555 267.201,153.445 191.167,136.785 	"/>
	<polyline fill="#FFFFFF" points="267.308,153.808 266.923,154.408 238.522,198.704 239.148,199.479 239.203,199.496 
		267.726,155.009 267.287,154.342 267.705,154.068 267.704,154.062 267.308,153.808 	"/>
	<polyline fill="#FFFFFF" points="267.705,154.068 267.287,154.342 267.726,155.009 310.646,220.237 310.835,218.704 
		268.517,154.393 267.818,154.555 267.705,154.068 	"/>
	<polyline fill="#FFFFFF" points="319.312,141.607 268.201,153.439 267.702,153.555 267.592,153.58 267.704,154.062 
		267.705,154.068 267.818,154.555 268.517,154.393 319.835,142.512 319.312,141.607 	"/>
	<path fill="#FFFFFF" d="M266.595,51.249l-0.185,0.21c0.063-0.001,0.123-0.001,0.186-0.002L266.595,51.249"/>
	<path fill="#FFFFFF" d="M266.853,50.957l-0.258,0.293l0.001,0.207c0.182-0.002,0.362-0.003,0.544-0.004L266.853,50.957"/>
	<path fill="#FFFFFF" d="M309.259,37.85h-35.731c-1.315,0-2.382,1.067-2.382,2.382v21.438c0,1.315,1.067,2.382,2.382,2.382h35.731
		c1.315,0,2.382-1.067,2.382-2.382V40.232C311.641,38.917,310.574,37.85,309.259,37.85z"/>
	<path fill="#FFFFFF" d="M275.531,51.292l-3.704,3.704c-0.187,0.187-0.494,0.187-0.681,0l-3.704-3.704
		c-0.187-0.187-0.187-0.494,0-0.681l3.704-3.704c0.187-0.187,0.494-0.187,0.681,0l3.704,3.704
		C275.719,50.798,275.719,51.105,275.531,51.292z"/>
	<g>
		<path fill="#11110B" d="M279.537,54.897l1.863-0.183v-6.621c-0.098,0.039-0.232,0.082-0.403,0.128
			c-0.172,0.047-0.352,0.091-0.539,0.132c-0.188,0.042-0.375,0.079-0.558,0.11c-0.184,0.032-0.339,0.052-0.467,0.062l-0.183-0.901
			c0.264-0.059,0.529-0.136,0.796-0.23c0.267-0.096,0.524-0.204,0.773-0.326c0.25-0.122,0.486-0.254,0.709-0.396
			c0.222-0.142,0.424-0.288,0.604-0.439h0.008l0.961,0.154v8.328l1.702,0.183v0.798h-5.268V54.897z"/>
		<path fill="#11110B" d="M289.862,55.703c-0.681,0-1.262-0.129-1.743-0.388s-0.874-0.61-1.178-1.055
			c-0.303-0.444-0.524-0.962-0.664-1.553c-0.139-0.591-0.204-1.221-0.194-1.89c0.005-0.747,0.117-1.414,0.338-2
			c0.22-0.586,0.515-1.081,0.884-1.483c0.369-0.403,0.799-0.711,1.288-0.923c0.489-0.213,1.005-0.319,1.548-0.319
			c0.689,0,1.273,0.117,1.75,0.352c0.478,0.234,0.863,0.562,1.159,0.981s0.509,0.918,0.639,1.494s0.192,1.204,0.188,1.882
			c-0.005,0.742-0.111,1.415-0.319,2.018c-0.208,0.604-0.492,1.119-0.852,1.546s-0.782,0.757-1.27,0.988
			C290.948,55.587,290.424,55.703,289.862,55.703z M289.986,54.883c0.387,0,0.713-0.09,0.979-0.271s0.481-0.442,0.643-0.784
			s0.277-0.758,0.349-1.249c0.07-0.491,0.106-1.046,0.106-1.667c0-0.605-0.034-1.154-0.103-1.644
			c-0.069-0.491-0.184-0.911-0.346-1.26c-0.161-0.349-0.374-0.619-0.638-0.81c-0.265-0.19-0.59-0.286-0.977-0.286
			c-0.391,0-0.721,0.087-0.99,0.26c-0.269,0.173-0.486,0.422-0.653,0.747c-0.166,0.325-0.287,0.723-0.363,1.193
			c-0.075,0.472-0.113,1.005-0.113,1.601c0,0.581,0.037,1.124,0.11,1.63c0.073,0.505,0.193,0.946,0.359,1.322
			s0.384,0.673,0.653,0.89C289.272,54.774,289.6,54.883,289.986,54.883z"/>
		<path fill="#11110B" d="M295.9,51.162c0-0.659,0.084-1.289,0.253-1.89s0.401-1.161,0.697-1.681
			c0.296-0.52,0.644-0.997,1.042-1.432s0.828-0.816,1.288-1.146c0.459-0.329,0.938-0.602,1.435-0.816
			c0.496-0.215,0.991-0.364,1.485-0.447l0.359,0.688c-0.602,0.195-1.146,0.453-1.636,0.773s-0.921,0.685-1.295,1.095
			c-0.375,0.41-0.691,0.854-0.95,1.333c-0.26,0.479-0.46,0.969-0.603,1.472c0.113-0.112,0.249-0.225,0.407-0.337
			c0.159-0.112,0.341-0.212,0.543-0.3c0.203-0.088,0.43-0.159,0.679-0.212c0.25-0.054,0.521-0.081,0.814-0.081
			c0.519,0,0.978,0.08,1.376,0.238s0.732,0.384,1.002,0.677c0.269,0.293,0.472,0.649,0.608,1.069
			c0.138,0.42,0.206,0.889,0.206,1.406c0,0.537-0.085,1.054-0.253,1.549c-0.169,0.496-0.416,0.935-0.741,1.318
			s-0.727,0.689-1.203,0.919c-0.478,0.229-1.024,0.344-1.641,0.344c-0.636,0-1.194-0.121-1.677-0.363
			c-0.481-0.241-0.885-0.568-1.21-0.981c-0.326-0.412-0.571-0.895-0.737-1.446C295.983,52.361,295.9,51.777,295.9,51.162z
			 M299.869,54.89c0.342,0,0.639-0.088,0.888-0.264c0.25-0.176,0.455-0.403,0.616-0.681c0.162-0.278,0.28-0.589,0.356-0.934
			c0.075-0.344,0.113-0.685,0.113-1.021c0-0.518-0.049-0.955-0.146-1.311s-0.231-0.647-0.4-0.872
			c-0.168-0.225-0.369-0.387-0.602-0.487c-0.232-0.1-0.483-0.15-0.752-0.15s-0.52,0.029-0.752,0.088s-0.441,0.134-0.627,0.227
			c-0.187,0.093-0.346,0.193-0.478,0.3s-0.234,0.208-0.308,0.3c-0.015,0.112-0.026,0.225-0.033,0.337
			c-0.008,0.112-0.014,0.225-0.019,0.337c-0.015,0.532,0.006,1.046,0.062,1.542c0.056,0.496,0.165,0.935,0.326,1.318
			s0.384,0.691,0.668,0.923C299.067,54.774,299.429,54.89,299.869,54.89z"/>
	</g>
	<path fill="#FFFFFF" d="M361.95,129.585H326.22c-1.315,0-2.382,1.067-2.382,2.382v21.438c0,1.315,1.067,2.382,2.382,2.382h35.731
		c1.315,0,2.382-1.067,2.382-2.382v-21.438C364.332,130.652,363.265,129.585,361.95,129.585z"/>
	<path fill="#FFFFFF" d="M328.223,143.027l-3.704,3.704c-0.187,0.187-0.494,0.187-0.681,0l-3.704-3.704
		c-0.187-0.187-0.187-0.494,0-0.681l3.704-3.704c0.187-0.187,0.494-0.187,0.681,0l3.704,3.704
		C328.41,142.533,328.41,142.84,328.223,143.027z"/>
	<g>
		<path fill="#11110B" d="M336.732,148.996c0.156,0,0.303,0,0.439,0c0.514,0,1-0.08,1.457-0.241c0.457-0.16,0.857-0.389,1.203-0.683
			c0.344-0.295,0.617-0.648,0.818-1.06c0.199-0.412,0.301-0.866,0.301-1.362c0-0.429-0.055-0.792-0.162-1.088
			c-0.107-0.297-0.26-0.538-0.459-0.723c-0.197-0.185-0.434-0.318-0.707-0.398c-0.273-0.08-0.576-0.121-0.902-0.121
			c-0.152,0-0.314,0.014-0.488,0.041s-0.346,0.062-0.518,0.106s-0.338,0.097-0.502,0.158s-0.314,0.128-0.451,0.201l-0.426-0.315
			l0.66-5.391h4.211l0.154-0.286h1.006l-0.287,1.663h-3.91l-0.588,3.34c0.143-0.078,0.301-0.152,0.475-0.223
			s0.357-0.132,0.549-0.183c0.193-0.051,0.393-0.092,0.6-0.121c0.205-0.029,0.408-0.044,0.607-0.044
			c0.471,0,0.893,0.062,1.268,0.187c0.373,0.125,0.689,0.316,0.949,0.575s0.459,0.586,0.598,0.981
			c0.141,0.396,0.209,0.864,0.209,1.406c0,0.386-0.059,0.764-0.18,1.135c-0.119,0.371-0.291,0.722-0.518,1.051
			c-0.225,0.33-0.498,0.633-0.82,0.908c-0.324,0.276-0.688,0.514-1.094,0.715c-0.406,0.199-0.852,0.355-1.336,0.469
			c-0.484,0.111-0.998,0.168-1.541,0.168c-0.166,0-0.34-0.009-0.521-0.025c-0.18-0.018-0.355-0.046-0.527-0.084l0.008-0.784
			C336.433,148.986,336.573,148.996,336.732,148.996z"/>
		<path fill="#11110B" d="M344.978,142.895c0-0.659,0.084-1.289,0.254-1.89c0.168-0.601,0.4-1.161,0.697-1.681
			c0.295-0.52,0.643-0.997,1.041-1.432s0.828-0.816,1.289-1.146c0.459-0.329,0.938-0.602,1.434-0.816s0.992-0.364,1.486-0.447
			l0.359,0.688c-0.602,0.195-1.146,0.453-1.637,0.773c-0.488,0.32-0.92,0.685-1.295,1.095s-0.691,0.854-0.949,1.333
			c-0.26,0.479-0.461,0.969-0.604,1.472c0.113-0.112,0.25-0.225,0.408-0.337s0.34-0.212,0.543-0.3s0.43-0.159,0.678-0.212
			c0.25-0.054,0.521-0.081,0.814-0.081c0.52,0,0.979,0.08,1.377,0.238s0.732,0.384,1.002,0.677c0.268,0.293,0.471,0.649,0.607,1.069
			c0.139,0.42,0.207,0.889,0.207,1.406c0,0.537-0.086,1.054-0.254,1.549s-0.416,0.935-0.74,1.318
			c-0.326,0.383-0.727,0.689-1.203,0.919c-0.479,0.229-1.025,0.345-1.641,0.345c-0.637,0-1.195-0.121-1.678-0.363
			c-0.48-0.241-0.885-0.568-1.209-0.981c-0.326-0.412-0.572-0.895-0.738-1.446S344.978,143.51,344.978,142.895z M348.948,146.623
			c0.342,0,0.639-0.088,0.887-0.264c0.25-0.176,0.455-0.403,0.617-0.681s0.279-0.589,0.355-0.934
			c0.076-0.344,0.113-0.685,0.113-1.021c0-0.518-0.049-0.955-0.146-1.311s-0.23-0.647-0.4-0.872
			c-0.168-0.225-0.369-0.387-0.602-0.487c-0.232-0.1-0.482-0.15-0.752-0.15c-0.268,0-0.52,0.029-0.752,0.088
			s-0.441,0.134-0.627,0.227s-0.346,0.193-0.477,0.3c-0.133,0.107-0.234,0.208-0.309,0.3c-0.014,0.112-0.025,0.225-0.033,0.337
			s-0.014,0.225-0.018,0.337c-0.016,0.532,0.006,1.046,0.062,1.542c0.055,0.496,0.164,0.935,0.326,1.318
			c0.16,0.383,0.383,0.691,0.668,0.923C348.146,146.507,348.507,146.623,348.948,146.623z"/>
	</g>
	<path fill="#FFFFFF" d="M233.138,186.738h-35.731c-1.315,0-2.382,1.067-2.382,2.382v21.438c0,1.315,1.067,2.382,2.382,2.382h35.731
		c1.315,0,2.382-1.067,2.382-2.382V189.12C235.52,187.805,234.453,186.738,233.138,186.738z"/>
	<path fill="#FFFFFF" d="M239.148,200.179l-3.704,3.704c-0.187,0.187-0.494,0.187-0.681,0l-3.704-3.704
		c-0.187-0.187-0.187-0.494,0-0.681l3.704-3.704c0.187-0.187,0.494-0.187,0.681,0l3.704,3.704
		C239.335,199.686,239.335,199.992,239.148,200.179z"/>
	<g>
		<path fill="#11110B" d="M208.109,206.148c0.156,0,0.303,0,0.44,0c0.514,0,0.999-0.08,1.456-0.241
			c0.457-0.16,0.858-0.389,1.203-0.683c0.345-0.295,0.618-0.648,0.818-1.06s0.301-0.865,0.301-1.362
			c0-0.429-0.054-0.791-0.161-1.089c-0.107-0.297-0.261-0.538-0.459-0.723c-0.198-0.186-0.434-0.318-0.708-0.398
			c-0.273-0.08-0.575-0.12-0.902-0.12c-0.151,0-0.314,0.013-0.488,0.04c-0.174,0.026-0.346,0.062-0.517,0.106
			c-0.172,0.044-0.339,0.096-0.503,0.157c-0.164,0.061-0.314,0.128-0.451,0.201l-0.426-0.314l0.66-5.391h4.212l0.154-0.286h1.005
			l-0.286,1.663h-3.911l-0.587,3.34c0.143-0.078,0.3-0.153,0.474-0.224c0.174-0.071,0.357-0.132,0.55-0.184
			c0.193-0.051,0.393-0.091,0.599-0.12c0.205-0.029,0.408-0.044,0.608-0.044c0.47,0,0.892,0.062,1.267,0.187
			c0.374,0.124,0.69,0.316,0.95,0.575c0.259,0.259,0.458,0.586,0.598,0.981s0.209,0.864,0.209,1.406c0,0.386-0.06,0.764-0.18,1.135
			s-0.292,0.722-0.518,1.051c-0.225,0.33-0.499,0.633-0.821,0.908c-0.323,0.276-0.688,0.514-1.094,0.715
			c-0.406,0.199-0.851,0.355-1.335,0.469c-0.484,0.111-0.998,0.168-1.541,0.168c-0.166,0-0.34-0.009-0.521-0.025
			c-0.181-0.018-0.356-0.046-0.528-0.084l0.008-0.784C207.81,206.138,207.952,206.148,208.109,206.148z"/>
		<path fill="#11110B" d="M216.26,201.861c0-0.271,0.046-0.54,0.136-0.805c0.091-0.265,0.23-0.519,0.419-0.763
			c0.188-0.243,0.427-0.474,0.715-0.688c0.289-0.216,0.629-0.41,1.021-0.584c-0.26-0.162-0.503-0.339-0.73-0.527
			c-0.228-0.189-0.427-0.401-0.598-0.636c-0.172-0.234-0.308-0.496-0.407-0.783c-0.101-0.287-0.15-0.61-0.15-0.97
			c0-0.436,0.095-0.82,0.286-1.152c0.19-0.333,0.443-0.613,0.759-0.841s0.677-0.398,1.083-0.514
			c0.405-0.115,0.821-0.172,1.247-0.172c0.484,0,0.925,0.056,1.32,0.169c0.396,0.112,0.737,0.273,1.023,0.482
			c0.287,0.208,0.508,0.462,0.664,0.759c0.157,0.298,0.235,0.631,0.235,1.001c0,0.264-0.044,0.525-0.132,0.784
			c-0.089,0.259-0.215,0.509-0.378,0.748c-0.164,0.24-0.366,0.47-0.605,0.688c-0.24,0.219-0.512,0.417-0.814,0.594
			c0.327,0.179,0.642,0.368,0.942,0.569s0.567,0.424,0.8,0.668c0.232,0.243,0.419,0.513,0.558,0.808
			c0.14,0.295,0.209,0.625,0.209,0.99c0,0.445-0.104,0.847-0.312,1.205s-0.488,0.663-0.84,0.913c-0.353,0.251-0.76,0.444-1.222,0.58
			c-0.463,0.136-0.945,0.204-1.449,0.204c-0.445,0-0.892-0.051-1.339-0.151c-0.448-0.101-0.853-0.261-1.215-0.479
			s-0.656-0.5-0.884-0.847S216.26,202.348,216.26,201.861z M217.801,201.528c0,0.335,0.049,0.64,0.147,0.914
			c0.098,0.274,0.244,0.512,0.439,0.712c0.196,0.2,0.438,0.355,0.727,0.465c0.289,0.109,0.621,0.163,0.998,0.163
			c0.279,0,0.543-0.043,0.793-0.129c0.249-0.086,0.468-0.207,0.656-0.362c0.188-0.156,0.338-0.343,0.447-0.559
			c0.11-0.217,0.165-0.455,0.165-0.716c0-0.326-0.087-0.609-0.26-0.852c-0.174-0.242-0.402-0.463-0.687-0.663
			c-0.283-0.2-0.603-0.389-0.957-0.565c-0.355-0.177-0.714-0.361-1.075-0.552c-0.201,0.111-0.386,0.242-0.554,0.391
			c-0.169,0.149-0.316,0.314-0.44,0.496c-0.125,0.182-0.223,0.378-0.294,0.59C217.838,201.073,217.801,201.294,217.801,201.528z
			 M220.671,198.355c0.19-0.122,0.36-0.263,0.51-0.421c0.149-0.159,0.277-0.328,0.386-0.51c0.107-0.18,0.189-0.367,0.245-0.56
			c0.057-0.193,0.085-0.387,0.085-0.583c0-0.346-0.046-0.651-0.136-0.915c-0.091-0.264-0.219-0.483-0.386-0.659
			c-0.166-0.176-0.366-0.309-0.602-0.399c-0.234-0.09-0.496-0.136-0.785-0.136c-0.278,0-0.533,0.037-0.763,0.11
			c-0.23,0.073-0.427,0.18-0.591,0.318c-0.164,0.14-0.291,0.308-0.382,0.506c-0.09,0.197-0.136,0.421-0.136,0.67
			c0,0.293,0.071,0.558,0.213,0.795c0.142,0.236,0.332,0.458,0.569,0.663c0.236,0.205,0.508,0.397,0.814,0.578
			C220.019,197.994,220.338,198.174,220.671,198.355z"/>
	</g>
	<path fill="#FFFFFF" d="M183.636,125.316h-35.731c-1.315,0-2.382,1.067-2.382,2.382v21.438c0,1.315,1.067,2.382,2.382,2.382h35.731
		c1.315,0,2.382-1.067,2.382-2.382v-21.438C186.018,126.383,184.951,125.316,183.636,125.316z"/>
	<path fill="#FFFFFF" d="M189.646,138.758l-3.704,3.704c-0.187,0.187-0.494,0.187-0.681,0l-3.704-3.704
		c-0.187-0.187-0.187-0.494,0-0.681l3.704-3.704c0.187-0.187,0.494-0.187,0.681,0l3.704,3.704
		C189.833,138.264,189.833,138.57,189.646,138.758z"/>
	<g>
		<path fill="#11110B" d="M158.136,140.439c0-0.272,0.046-0.54,0.136-0.805c0.091-0.265,0.23-0.519,0.419-0.763
			c0.188-0.244,0.427-0.473,0.715-0.689c0.289-0.215,0.629-0.41,1.021-0.583c-0.26-0.163-0.503-0.338-0.73-0.528
			c-0.228-0.189-0.427-0.401-0.598-0.635c-0.172-0.235-0.308-0.496-0.407-0.783c-0.101-0.287-0.15-0.61-0.15-0.97
			c0-0.436,0.095-0.82,0.286-1.153c0.19-0.333,0.443-0.613,0.759-0.84s0.677-0.398,1.083-0.514c0.405-0.115,0.821-0.172,1.247-0.172
			c0.484,0,0.925,0.057,1.32,0.169c0.396,0.113,0.737,0.274,1.023,0.482c0.287,0.209,0.508,0.462,0.664,0.759
			c0.157,0.298,0.235,0.631,0.235,1c0,0.264-0.044,0.525-0.132,0.785c-0.089,0.259-0.215,0.509-0.378,0.749
			c-0.164,0.24-0.366,0.469-0.605,0.688c-0.24,0.218-0.512,0.416-0.814,0.594c0.327,0.178,0.642,0.368,0.942,0.569
			c0.301,0.202,0.567,0.424,0.8,0.667s0.419,0.513,0.558,0.808c0.14,0.295,0.209,0.625,0.209,0.991c0,0.445-0.104,0.847-0.312,1.205
			c-0.208,0.358-0.488,0.663-0.84,0.914c-0.353,0.25-0.76,0.444-1.222,0.58c-0.463,0.136-0.945,0.204-1.449,0.204
			c-0.445,0-0.892-0.05-1.339-0.151c-0.448-0.101-0.853-0.26-1.215-0.478c-0.362-0.218-0.656-0.5-0.884-0.847
			S158.136,140.926,158.136,140.439z M159.677,140.105c0,0.335,0.049,0.64,0.147,0.915c0.098,0.274,0.244,0.512,0.439,0.712
			c0.196,0.2,0.438,0.355,0.727,0.464c0.289,0.109,0.621,0.164,0.998,0.164c0.279,0,0.543-0.043,0.793-0.129
			c0.249-0.086,0.468-0.208,0.656-0.363s0.338-0.342,0.447-0.559c0.11-0.216,0.165-0.455,0.165-0.715c0-0.326-0.087-0.61-0.26-0.852
			c-0.174-0.242-0.402-0.463-0.687-0.663c-0.283-0.2-0.603-0.389-0.957-0.566c-0.355-0.177-0.714-0.36-1.075-0.551
			c-0.201,0.112-0.386,0.242-0.554,0.391c-0.169,0.149-0.316,0.314-0.44,0.496c-0.125,0.181-0.223,0.378-0.294,0.59
			C159.714,139.651,159.677,139.873,159.677,140.105z M162.547,136.933c0.19-0.122,0.36-0.262,0.51-0.421s0.277-0.329,0.386-0.509
			c0.107-0.181,0.189-0.367,0.245-0.56c0.057-0.193,0.085-0.387,0.085-0.583c0-0.347-0.046-0.652-0.136-0.916
			c-0.091-0.264-0.219-0.483-0.386-0.659c-0.166-0.176-0.366-0.309-0.602-0.399c-0.234-0.09-0.496-0.135-0.785-0.135
			c-0.278,0-0.533,0.037-0.763,0.11c-0.23,0.073-0.427,0.18-0.591,0.318c-0.164,0.14-0.291,0.308-0.382,0.506
			c-0.09,0.197-0.136,0.421-0.136,0.67c0,0.293,0.071,0.558,0.213,0.795s0.332,0.458,0.569,0.663
			c0.236,0.205,0.508,0.398,0.814,0.579C161.895,136.572,162.214,136.752,162.547,136.933z"/>
		<path fill="#11110B" d="M167.793,144.542c0.103,0.018,0.208,0.034,0.315,0.047c0.107,0.013,0.216,0.02,0.323,0.02s0.208,0,0.301,0
			c0.572,0,1.086-0.07,1.541-0.209s0.842-0.331,1.163-0.575c0.32-0.244,0.564-0.53,0.733-0.857c0.169-0.328,0.253-0.679,0.253-1.055
			c0-0.322-0.044-0.613-0.132-0.872s-0.23-0.48-0.426-0.663s-0.446-0.327-0.752-0.432s-0.677-0.158-1.111-0.158
			c-0.01,0-0.063,0.012-0.162,0.037c-0.098,0.024-0.204,0.05-0.318,0.077c-0.115,0.027-0.223,0.052-0.323,0.073
			c-0.101,0.022-0.153,0.033-0.158,0.033l-0.278-0.869c0.21-0.029,0.416-0.073,0.616-0.132c0.2-0.059,0.394-0.125,0.58-0.198
			c0.298-0.127,0.569-0.279,0.814-0.455c0.244-0.176,0.454-0.368,0.631-0.576c0.176-0.208,0.314-0.43,0.414-0.667
			c0.101-0.237,0.15-0.481,0.15-0.73c0.005-0.293-0.039-0.539-0.132-0.737s-0.219-0.358-0.378-0.481
			c-0.159-0.122-0.343-0.209-0.55-0.26c-0.208-0.051-0.425-0.077-0.649-0.077c-0.245,0-0.48,0.024-0.708,0.071
			s-0.443,0.109-0.646,0.186c-0.202,0.077-0.393,0.166-0.568,0.269s-0.333,0.21-0.47,0.321l-0.426-0.707
			c0.118-0.119,0.288-0.252,0.511-0.4c0.223-0.147,0.48-0.288,0.773-0.42c0.294-0.132,0.613-0.244,0.958-0.334
			c0.345-0.091,0.698-0.136,1.061-0.136c0.42,0,0.815,0.044,1.185,0.132c0.369,0.088,0.69,0.229,0.965,0.422
			c0.274,0.193,0.49,0.442,0.649,0.748c0.159,0.306,0.238,0.673,0.238,1.104c0,0.367-0.077,0.717-0.23,1.052
			c-0.154,0.335-0.36,0.642-0.617,0.92c-0.257,0.279-0.555,0.525-0.895,0.741c-0.34,0.215-0.693,0.384-1.061,0.506
			c0.519-0.044,0.983-0.01,1.395,0.103c0.41,0.112,0.76,0.28,1.049,0.505c0.289,0.224,0.51,0.495,0.664,0.812
			c0.154,0.317,0.233,0.659,0.238,1.024c0.005,0.551-0.116,1.061-0.363,1.529s-0.601,0.874-1.06,1.215
			c-0.46,0.341-1.018,0.607-1.674,0.798c-0.655,0.19-1.389,0.285-2.201,0.285c-0.117,0-0.243-0.005-0.378-0.015
			c-0.134-0.01-0.269-0.023-0.403-0.041s-0.266-0.036-0.393-0.058s-0.239-0.045-0.337-0.07v-0.91
			C167.597,144.501,167.69,144.524,167.793,144.542z"/>
	</g>
	<path fill="#FFFFFF" d="M352.236,206.952h-35.731c-1.315,0-2.382,1.067-2.382,2.382v21.438c0,1.315,1.067,2.382,2.382,2.382h35.731
		c1.315,0,2.382-1.067,2.382-2.382v-21.438C354.618,208.019,353.551,206.952,352.236,206.952z"/>
	<path fill="#FFFFFF" d="M318.509,220.394l-3.704,3.704c-0.187,0.187-0.494,0.187-0.681,0l-3.704-3.704
		c-0.187-0.187-0.187-0.494,0-0.681l3.704-3.704c0.187-0.187,0.494-0.187,0.681,0l3.704,3.704
		C318.696,219.9,318.696,220.207,318.509,220.394z"/>
	<g>
		<path fill="#11110B" d="M326.091,222.076c0-0.271,0.047-0.54,0.137-0.805s0.23-0.519,0.418-0.763
			c0.188-0.243,0.428-0.474,0.715-0.688c0.289-0.216,0.629-0.41,1.021-0.584c-0.26-0.162-0.504-0.339-0.73-0.527
			c-0.229-0.189-0.428-0.401-0.598-0.636c-0.172-0.234-0.309-0.496-0.408-0.783s-0.15-0.61-0.15-0.97
			c0-0.436,0.096-0.82,0.287-1.152c0.189-0.333,0.443-0.613,0.758-0.841c0.316-0.228,0.678-0.398,1.084-0.514
			c0.404-0.115,0.82-0.172,1.246-0.172c0.484,0,0.926,0.056,1.32,0.169c0.396,0.112,0.738,0.273,1.023,0.482
			c0.287,0.208,0.508,0.462,0.664,0.759c0.158,0.298,0.236,0.631,0.236,1.001c0,0.264-0.045,0.525-0.133,0.784
			s-0.215,0.509-0.377,0.748c-0.164,0.24-0.367,0.47-0.605,0.688c-0.24,0.219-0.512,0.417-0.814,0.594
			c0.326,0.179,0.641,0.368,0.941,0.569s0.568,0.424,0.801,0.668c0.232,0.243,0.418,0.513,0.557,0.808
			c0.141,0.295,0.209,0.625,0.209,0.99c0,0.445-0.104,0.847-0.311,1.205c-0.209,0.358-0.488,0.663-0.84,0.913
			c-0.354,0.251-0.76,0.444-1.223,0.58s-0.945,0.204-1.449,0.204c-0.445,0-0.891-0.051-1.338-0.151
			c-0.449-0.101-0.854-0.261-1.215-0.479c-0.363-0.218-0.656-0.5-0.885-0.847C326.206,222.98,326.091,222.563,326.091,222.076z
			 M327.632,221.743c0,0.335,0.049,0.64,0.148,0.914c0.098,0.274,0.244,0.512,0.439,0.712s0.438,0.355,0.727,0.465
			s0.621,0.163,0.998,0.163c0.279,0,0.543-0.043,0.793-0.129c0.248-0.086,0.467-0.207,0.656-0.362
			c0.188-0.156,0.338-0.343,0.447-0.559c0.109-0.217,0.164-0.455,0.164-0.716c0-0.326-0.086-0.609-0.26-0.852
			s-0.402-0.463-0.686-0.663s-0.604-0.389-0.957-0.565c-0.355-0.177-0.715-0.361-1.076-0.552c-0.201,0.111-0.385,0.242-0.553,0.391
			c-0.17,0.149-0.316,0.314-0.441,0.496s-0.223,0.378-0.293,0.59S327.632,221.509,327.632,221.743z M330.501,218.57
			c0.191-0.122,0.361-0.263,0.51-0.421c0.15-0.159,0.277-0.328,0.387-0.51c0.107-0.18,0.189-0.367,0.244-0.56
			c0.057-0.193,0.086-0.387,0.086-0.583c0-0.346-0.047-0.651-0.137-0.915s-0.219-0.483-0.385-0.659s-0.367-0.309-0.602-0.399
			c-0.234-0.09-0.496-0.136-0.785-0.136c-0.279,0-0.533,0.037-0.764,0.11s-0.426,0.18-0.59,0.318
			c-0.164,0.14-0.291,0.308-0.383,0.506c-0.09,0.197-0.135,0.421-0.135,0.67c0,0.293,0.07,0.558,0.213,0.795
			c0.141,0.236,0.332,0.458,0.568,0.663s0.508,0.397,0.814,0.578S330.169,218.389,330.501,218.57z"/>
		<path fill="#11110B" d="M335.8,222.701c0.254-0.498,0.514-1.021,0.777-1.567s0.531-1.107,0.803-1.681
			c0.271-0.574,0.539-1.144,0.801-1.71s0.514-1.118,0.756-1.656c0.242-0.536,0.465-1.039,0.67-1.508h0.396l1.32,0.725l-4.078,7.534
			l-0.617,0.918h3.852l0.053-2.886l1.43-0.132v2.769h1.938v1.289h-1.938v2.432h-1.482v-2.432h-4.967l-0.426-0.732
			C335.308,223.653,335.544,223.199,335.8,222.701z"/>
	</g>
	<g>
		<path d="M251.154,10.544l-2.49-8.189l-2.52,8.189h-1.83l-3.48-10.5h1.906l2.549,8.535l2.535-8.52l1.74-0.015l2.549,8.535
			l2.535-8.535h1.83l-3.51,10.5H251.154z"/>
		<path d="M268.044,5.294c0,3-2.43,5.325-5.564,5.325c-3.137,0-5.566-2.325-5.566-5.325c0-3.015,2.43-5.294,5.566-5.294
			C265.614,0,268.044,2.295,268.044,5.294z M258.714,5.294c0,2.085,1.725,3.735,3.779,3.735s3.734-1.65,3.734-3.735
			s-1.68-3.705-3.734-3.705C260.423,1.59,258.714,3.209,258.714,5.294z"/>
		<path d="M279.923,5.294c0,3-2.43,5.325-5.564,5.325s-5.564-2.325-5.564-5.325c0-3.015,2.43-5.294,5.564-5.294
			S279.923,2.295,279.923,5.294z M270.593,5.294c0,2.085,1.727,3.735,3.781,3.735s3.734-1.65,3.734-3.735s-1.68-3.705-3.734-3.705
			C272.304,1.59,270.593,3.209,270.593,5.294z"/>
		<path d="M286.269,0.045c3.15,0,5.43,2.205,5.43,5.25c0,3.03-2.295,5.25-5.475,5.25h-4.26v-10.5H286.269z M283.734,8.955h2.58
			c2.039,0,3.6-1.515,3.6-3.645c0-2.145-1.605-3.675-3.676-3.675h-2.504V8.955z"/>
	</g>
	<g>
		<path d="M408.546,113.731v3.03h4.77v1.575h-4.77v4.305h-1.77v-10.5h7.049l-0.014,1.59H408.546z"/>
		<path d="M416.632,120.271l-1.006,2.37h-1.846l4.635-10.5h1.816l4.59,10.5h-1.891l-1.006-2.37H416.632z M419.271,114.032
			l-1.98,4.665h3.961L419.271,114.032z"/>
		<path d="M430.911,112.142c2.174,0,3.525,0.99,3.525,2.625c0,1.185-0.705,2.07-1.846,2.34c1.41,0.24,2.25,1.245,2.25,2.655
			c0,1.8-1.455,2.88-3.824,2.88h-4.666v-10.5H430.911z M428.12,116.491h2.701c1.125,0,1.799-0.525,1.799-1.41
			c0-0.885-0.674-1.365-1.799-1.365h-2.701V116.491z M428.12,121.066h2.701c1.379,0,2.205-0.54,2.205-1.53
			c0-0.93-0.826-1.485-2.205-1.485h-2.701V121.066z"/>
		<path d="M441.831,119.461c-0.15,0.015-0.316,0.015-0.48,0.015h-2.49v3.165h-1.77v-10.5h4.26c2.684,0,4.229,1.305,4.229,3.585
			c0,1.68-0.779,2.865-2.174,3.405l2.355,3.51h-2.01L441.831,119.461z M441.351,117.886c1.619,0,2.549-0.69,2.549-2.115
			c0-1.38-0.93-2.04-2.549-2.04h-2.49v4.155H441.351z"/>
		<path d="M448.072,122.641v-10.5h1.77v10.5H448.072z"/>
		<path d="M461.374,113.716l-1.035,1.29c-0.764-0.825-1.859-1.335-2.924-1.335c-2.1,0-3.75,1.62-3.75,3.69s1.65,3.705,3.75,3.705
			c1.049,0,2.129-0.479,2.924-1.245l1.051,1.17c-1.064,1.05-2.58,1.725-4.064,1.725c-3.076,0-5.461-2.325-5.461-5.34
			c0-2.985,2.416-5.28,5.52-5.28C458.87,112.097,460.355,112.711,461.374,113.716z"/>
	</g>
	<g>
		<path d="M334.746,281.858l-1.035,1.29c-0.765-0.825-1.859-1.335-2.925-1.335c-2.1,0-3.75,1.62-3.75,3.689
			c0,2.07,1.65,3.705,3.75,3.705c1.05,0,2.13-0.479,2.925-1.244l1.05,1.17c-1.064,1.05-2.579,1.725-4.064,1.725
			c-3.075,0-5.46-2.325-5.46-5.34c0-2.985,2.415-5.28,5.52-5.28C332.241,280.238,333.727,280.853,334.746,281.858z"/>
		<path d="M338.481,281.874v2.834h5.13v1.59h-5.13v2.896h5.91v1.59h-7.68v-10.499h7.5v1.59H338.481z"/>
		<path d="M351.427,287.603c-0.15,0.015-0.315,0.015-0.48,0.015h-2.49v3.165h-1.77v-10.499h4.26c2.685,0,4.229,1.305,4.229,3.584
			c0,1.681-0.779,2.865-2.175,3.405l2.355,3.51h-2.01L351.427,287.603z M350.947,286.028c1.62,0,2.55-0.689,2.55-2.115
			c0-1.38-0.93-2.039-2.55-2.039h-2.49v4.154H350.947z"/>
		<path d="M359.166,288.413l-1.005,2.37h-1.846l4.635-10.499h1.815l4.59,10.499h-1.89l-1.005-2.37H359.166z M361.806,282.173
			l-1.98,4.665h3.96L361.806,282.173z"/>
		<path d="M378.351,290.783l-0.016-7.845l-3.314,6.75h-1.155l-3.314-6.75v7.845h-1.665v-10.499h2.1l3.465,6.975l3.45-6.975h2.085
			v10.499H378.351z"/>
		<path d="M382.911,290.783v-10.499h1.77v10.499H382.911z"/>
		<path d="M396.215,281.858l-1.035,1.29c-0.765-0.825-1.859-1.335-2.925-1.335c-2.1,0-3.75,1.62-3.75,3.689
			c0,2.07,1.65,3.705,3.75,3.705c1.05,0,2.13-0.479,2.925-1.244l1.05,1.17c-1.064,1.05-2.579,1.725-4.064,1.725
			c-3.075,0-5.46-2.325-5.46-5.34c0-2.985,2.415-5.28,5.52-5.28C393.71,280.238,395.196,280.853,396.215,281.858z"/>
		<path d="M405.306,281.288l-0.735,1.561c-1.14-0.69-2.279-0.975-3.075-0.975c-1.034,0-1.709,0.39-1.709,1.095
			c0,2.295,5.669,1.064,5.654,4.845c0,1.875-1.65,3.029-3.96,3.029c-1.649,0-3.21-0.675-4.29-1.664l0.766-1.53
			c1.08,0.99,2.43,1.53,3.555,1.53c1.229,0,1.965-0.466,1.965-1.275c0-2.34-5.67-1.035-5.67-4.77c0-1.8,1.545-2.925,3.825-2.925
			C402.995,280.208,404.33,280.643,405.306,281.288z"/>
	</g>
	<g>
		<path d="M159.55,285.623v3.87c-1.064,0.811-2.64,1.365-4.08,1.365c-3.104,0-5.52-2.325-5.52-5.325s2.445-5.295,5.625-5.295
			c1.5,0,3,0.57,4.035,1.471l-1.005,1.305c-0.811-0.75-1.936-1.2-3.03-1.2c-2.145,0-3.825,1.635-3.825,3.72
			c0,2.101,1.695,3.735,3.84,3.735c0.78,0,1.665-0.271,2.415-0.721v-2.925H159.55z"/>
		<path d="M168.505,289.178v1.604h-6.314v-10.499h1.77v8.895H168.505z"/>
		<path d="M171.91,288.413l-1.005,2.37h-1.846l4.635-10.499h1.815l4.59,10.499h-1.89l-1.006-2.37H171.91z M174.55,282.173
			l-1.98,4.665h3.96L174.55,282.173z"/>
		<path d="M188.68,281.288l-0.735,1.561c-1.14-0.69-2.279-0.975-3.075-0.975c-1.034,0-1.709,0.39-1.709,1.095
			c0,2.295,5.669,1.064,5.654,4.845c0,1.875-1.65,3.029-3.96,3.029c-1.649,0-3.21-0.675-4.29-1.664l0.766-1.53
			c1.08,0.99,2.43,1.53,3.555,1.53c1.229,0,1.965-0.466,1.965-1.275c0-2.34-5.67-1.035-5.67-4.77c0-1.8,1.545-2.925,3.825-2.925
			C186.369,280.208,187.704,280.643,188.68,281.288z"/>
		<path d="M198.16,281.288l-0.735,1.561c-1.14-0.69-2.279-0.975-3.075-0.975c-1.034,0-1.709,0.39-1.709,1.095
			c0,2.295,5.669,1.064,5.654,4.845c0,1.875-1.65,3.029-3.96,3.029c-1.649,0-3.21-0.675-4.29-1.664l0.766-1.53
			c1.08,0.99,2.43,1.53,3.555,1.53c1.229,0,1.965-0.466,1.965-1.275c0-2.34-5.67-1.035-5.67-4.77c0-1.8,1.545-2.925,3.825-2.925
			C195.85,280.208,197.185,280.643,198.16,281.288z"/>
	</g>
	<g>
		<path d="M88.459,96.747v3.03h4.771v1.575h-4.771v4.305h-1.77v-10.5h7.05l-0.015,1.59H88.459z"/>
		<path d="M100.189,102.477c-0.15,0.015-0.315,0.015-0.48,0.015h-2.49v3.165h-1.77v-10.5h4.26c2.685,0,4.229,1.305,4.229,3.585
			c0,1.68-0.779,2.865-2.175,3.405l2.355,3.51h-2.01L100.189,102.477z M99.709,100.902c1.62,0,2.55-0.69,2.55-2.115
			c0-1.38-0.93-2.04-2.55-2.04h-2.49v4.155H99.709z"/>
		<path d="M115.354,101.307c0,2.745-1.725,4.425-4.56,4.425s-4.575-1.68-4.575-4.425v-6.15h1.77v6.15c0,1.77,1.096,2.835,2.82,2.835
			c1.71,0,2.774-1.05,2.774-2.835v-6.15h1.771V101.307z"/>
		<path d="M118.039,105.657v-10.5h1.77v10.5H118.039z"/>
		<path d="M126.544,96.747v8.91h-1.77v-8.91h-3.315v-1.59h8.415v1.59H126.544z"/>
	</g>
	<g>
		<path d="M98.045,120.287l-1.005,2.37h-1.846l4.635-10.5h1.815l4.59,10.5h-1.89l-1.005-2.37H98.045z M100.684,114.047l-1.98,4.665
			h3.96L100.684,114.047z"/>
		<path d="M115.13,122.657l-5.596-7.53v7.53h-1.77v-10.5h1.74l5.625,7.544v-7.544h1.739v10.5H115.13z"/>
		<path d="M124.084,112.157c3.15,0,5.43,2.205,5.43,5.25c0,3.03-2.295,5.25-5.475,5.25h-4.26v-10.5H124.084z M121.549,121.067h2.58
			c2.04,0,3.601-1.515,3.601-3.645c0-2.145-1.605-3.675-3.676-3.675h-2.505V121.067z"/>
	</g>
	<g>
		<path d="M75.709,129.157c2.641,0,4.155,1.305,4.155,3.585c0,2.37-1.515,3.75-4.155,3.75h-2.415v3.165h-1.77v-10.5H75.709z
			 M73.294,134.902h2.341c1.619,0,2.534-0.69,2.534-2.115c0-1.38-0.915-2.04-2.534-2.04h-2.341V134.902z"/>
		<path d="M88.068,138.052v1.605h-6.314v-10.5h1.77v8.895H88.068z"/>
		<path d="M91.474,137.287l-1.005,2.37h-1.846l4.635-10.5h1.815l4.59,10.5h-1.89l-1.005-2.37H91.474z M94.114,131.047l-1.98,4.665
			h3.96L94.114,131.047z"/>
		<path d="M108.574,139.657l-5.596-7.53v7.53h-1.77v-10.5h1.74l5.625,7.544v-7.544h1.739v10.5H108.574z"/>
		<path d="M117.063,130.747v8.91h-1.77v-8.91h-3.315v-1.59h8.415v1.59H117.063z"/>
		<path d="M129.183,130.162l-0.735,1.56c-1.14-0.69-2.279-0.975-3.075-0.975c-1.034,0-1.709,0.39-1.709,1.095
			c0,2.295,5.669,1.064,5.654,4.845c0,1.875-1.65,3.03-3.96,3.03c-1.649,0-3.21-0.675-4.29-1.665l0.766-1.53
			c1.08,0.99,2.43,1.53,3.555,1.53c1.229,0,1.965-0.465,1.965-1.275c0-2.34-5.67-1.035-5.67-4.77c0-1.8,1.545-2.925,3.825-2.925
			C126.873,129.082,128.208,129.517,129.183,130.162z"/>
	</g>
	<g>
		<path fill="#11110B" d="M11.193,19.807l1.491-0.146v-5.297c-0.078,0.031-0.186,0.065-0.323,0.103
			c-0.137,0.037-0.28,0.072-0.431,0.105c-0.151,0.033-0.3,0.062-0.446,0.088s-0.271,0.042-0.373,0.05l-0.146-0.721
			c0.211-0.047,0.424-0.108,0.637-0.185s0.42-0.163,0.619-0.261c0.2-0.098,0.389-0.203,0.566-0.316
			c0.179-0.113,0.34-0.23,0.484-0.352h0.006l0.77,0.123v6.662l1.361,0.146v0.639h-4.215V19.807z"/>
		<path fill="#11110B" d="M19.452,20.451c-0.544,0-1.009-0.104-1.395-0.311c-0.385-0.207-0.699-0.488-0.941-0.844
			c-0.243-0.355-0.42-0.77-0.531-1.242c-0.112-0.473-0.164-0.977-0.156-1.512c0.004-0.598,0.095-1.131,0.271-1.6
			s0.412-0.864,0.707-1.187c0.296-0.322,0.639-0.568,1.03-0.738s0.805-0.255,1.238-0.255c0.552,0,1.019,0.094,1.4,0.281
			s0.69,0.449,0.928,0.785c0.236,0.336,0.406,0.734,0.511,1.195c0.104,0.461,0.153,0.963,0.149,1.506
			c-0.004,0.594-0.089,1.132-0.256,1.614c-0.166,0.482-0.393,0.895-0.681,1.236c-0.287,0.342-0.626,0.605-1.016,0.791
			S19.903,20.451,19.452,20.451z M19.552,19.795c0.31,0,0.57-0.072,0.784-0.217c0.213-0.145,0.384-0.354,0.514-0.627
			c0.129-0.273,0.222-0.606,0.278-0.999s0.085-0.837,0.085-1.333c0-0.484-0.027-0.923-0.082-1.315s-0.146-0.729-0.275-1.008
			c-0.13-0.279-0.3-0.495-0.511-0.647c-0.212-0.152-0.472-0.229-0.781-0.229c-0.313,0-0.577,0.069-0.792,0.208
			c-0.216,0.139-0.39,0.338-0.522,0.598c-0.134,0.26-0.23,0.578-0.291,0.955s-0.091,0.804-0.091,1.28
			c0,0.465,0.029,0.899,0.088,1.304s0.154,0.757,0.288,1.058c0.133,0.301,0.307,0.538,0.522,0.712
			C18.981,19.708,19.243,19.795,19.552,19.795z"/>
		<path fill="#11110B" d="M28.074,12.359l-0.846-0.15v-0.682h3.275v0.682l-0.997,0.15v4.413c0,0.558,0.053,1.027,0.158,1.407
			c0.105,0.381,0.255,0.688,0.449,0.92c0.193,0.233,0.426,0.4,0.695,0.502c0.271,0.102,0.569,0.153,0.898,0.153
			c0.352,0,0.659-0.065,0.921-0.196c0.263-0.13,0.481-0.321,0.658-0.571c0.176-0.25,0.308-0.556,0.396-0.917
			c0.089-0.361,0.133-0.773,0.133-1.234v-4.476l-0.969-0.15v-0.682h2.812v0.682l-0.869,0.15v4.424c0,0.635-0.082,1.184-0.246,1.646
			s-0.392,0.843-0.681,1.144c-0.29,0.3-0.632,0.522-1.027,0.664c-0.396,0.143-0.824,0.214-1.286,0.214
			c-0.606,0-1.129-0.075-1.566-0.225c-0.438-0.15-0.799-0.38-1.08-0.69c-0.282-0.31-0.49-0.705-0.626-1.184
			c-0.135-0.479-0.202-1.048-0.202-1.707V12.359z"/>
		<path fill="#11110B" d="M36.422,19.807l0.969-0.135V12.33l-0.969-0.152v-0.65h2.318l3.951,5.76l0.622,1.16v-6.123l-1.051-0.146
			v-0.65h2.911v0.65l-0.975,0.152v8.115h-0.962l-4.045-5.877l-0.916-1.594v6.691l1.122,0.141v0.639h-2.977V19.807z"/>
		<path fill="#11110B" d="M46.119,19.807l1.074-0.141V12.33l-1.074-0.152v-0.65h3.534v0.65l-1.074,0.146v7.342l1.092,0.158v0.621
			h-3.552V19.807z"/>
		<path fill="#11110B" d="M52.219,19.807l1.531-0.141v-7.412h-1.954l-0.44,2.479h-0.852l0.206-3.205h7.431l0.188,3.205h-0.84
			l-0.446-2.479h-1.878v7.412l1.661,0.141v0.639h-4.607V19.807z"/>
		<path fill="#11110B" d="M59.385,17.796h0.816l0.234,1.457c0.062,0.064,0.148,0.127,0.256,0.188
			c0.107,0.061,0.231,0.114,0.373,0.159c0.141,0.045,0.294,0.082,0.46,0.108c0.167,0.027,0.342,0.04,0.525,0.04
			c0.595,0,1.037-0.128,1.327-0.385c0.289-0.256,0.435-0.605,0.435-1.047c0-0.228-0.05-0.43-0.147-0.604s-0.236-0.334-0.416-0.477
			c-0.181-0.143-0.396-0.276-0.649-0.402c-0.252-0.125-0.531-0.255-0.836-0.388c-0.243-0.106-0.502-0.234-0.778-0.382
			c-0.275-0.148-0.532-0.328-0.769-0.539c-0.237-0.211-0.434-0.46-0.59-0.747s-0.235-0.623-0.235-1.007
			c0-0.323,0.069-0.623,0.206-0.898s0.331-0.513,0.584-0.713c0.252-0.2,0.559-0.355,0.919-0.468
			c0.359-0.112,0.765-0.168,1.215-0.168c0.285,0,0.553,0.02,0.801,0.059c0.249,0.039,0.474,0.084,0.676,0.135
			c0.201,0.051,0.377,0.1,0.528,0.146c0.15,0.047,0.271,0.076,0.36,0.088l-0.076,1.959h-0.786l-0.271-1.383
			c-0.035-0.038-0.092-0.076-0.17-0.114c-0.078-0.038-0.173-0.072-0.285-0.103c-0.111-0.03-0.234-0.055-0.369-0.074
			c-0.136-0.019-0.275-0.028-0.42-0.028c-0.54,0-0.939,0.105-1.197,0.317c-0.259,0.211-0.388,0.52-0.388,0.927
			c0,0.229,0.048,0.427,0.144,0.596c0.096,0.169,0.234,0.325,0.414,0.468s0.397,0.28,0.651,0.411
			c0.255,0.131,0.538,0.271,0.852,0.419c0.281,0.137,0.568,0.283,0.859,0.437c0.292,0.154,0.557,0.333,0.796,0.537
			c0.238,0.203,0.434,0.437,0.584,0.699s0.226,0.569,0.226,0.918c0,0.301-0.065,0.6-0.196,0.898
			c-0.131,0.299-0.329,0.568-0.593,0.808c-0.265,0.24-0.597,0.435-0.998,0.585c-0.401,0.15-0.874,0.225-1.418,0.225
			c-0.348,0-0.67-0.026-0.965-0.079c-0.296-0.053-0.561-0.112-0.793-0.179s-0.434-0.129-0.602-0.188s-0.3-0.092-0.394-0.1
			L59.385,17.796z"/>
	</g>
	<g>
		<path fill="#11110B" d="M11.292,30.832c0-0.582,0.06-1.125,0.177-1.629s0.269-0.966,0.455-1.386
			c0.186-0.42,0.392-0.797,0.619-1.131c0.227-0.334,0.451-0.623,0.672-0.867s0.426-0.443,0.613-0.598
			c0.188-0.154,0.335-0.261,0.44-0.319l0.552,0.375c-0.086,0.055-0.198,0.148-0.338,0.281c-0.139,0.133-0.29,0.307-0.454,0.521
			c-0.165,0.215-0.33,0.47-0.496,0.765c-0.167,0.295-0.32,0.631-0.461,1.008c-0.142,0.377-0.259,0.795-0.353,1.254
			s-0.146,0.958-0.158,1.497c-0.016,0.602,0.018,1.158,0.1,1.67s0.191,0.98,0.329,1.406c0.137,0.426,0.293,0.807,0.469,1.143
			c0.177,0.336,0.353,0.628,0.528,0.876c0.177,0.248,0.342,0.451,0.496,0.609c0.155,0.158,0.281,0.272,0.379,0.343l-0.593,0.404
			c-0.09-0.055-0.226-0.152-0.408-0.293c-0.182-0.141-0.383-0.328-0.602-0.562s-0.445-0.52-0.678-0.855
			c-0.233-0.336-0.445-0.726-0.637-1.169c-0.192-0.443-0.349-0.942-0.47-1.497S11.292,31.507,11.292,30.832z"/>
		<path fill="#11110B" d="M16.359,34.207l1.491-0.146v-5.297c-0.078,0.031-0.186,0.065-0.323,0.103
			c-0.137,0.037-0.28,0.072-0.431,0.105c-0.151,0.033-0.3,0.062-0.446,0.088s-0.271,0.042-0.373,0.05l-0.146-0.721
			c0.211-0.047,0.424-0.108,0.637-0.185s0.42-0.163,0.619-0.261c0.2-0.098,0.389-0.203,0.566-0.316
			c0.179-0.113,0.34-0.23,0.484-0.352h0.006l0.77,0.123v6.662l1.361,0.146v0.639h-4.215V34.207z"/>
		<path fill="#11110B" d="M24.617,34.851c-0.544,0-1.009-0.104-1.395-0.311c-0.385-0.207-0.699-0.488-0.941-0.844
			c-0.243-0.355-0.42-0.77-0.531-1.242c-0.112-0.473-0.164-0.977-0.156-1.512c0.004-0.598,0.095-1.131,0.271-1.6
			s0.412-0.864,0.707-1.187c0.296-0.322,0.639-0.568,1.03-0.738s0.805-0.255,1.238-0.255c0.552,0,1.019,0.094,1.4,0.281
			s0.69,0.449,0.928,0.785c0.236,0.336,0.406,0.734,0.511,1.195c0.104,0.461,0.153,0.963,0.149,1.506
			c-0.004,0.594-0.089,1.132-0.256,1.614c-0.166,0.482-0.393,0.895-0.681,1.236c-0.287,0.342-0.626,0.605-1.016,0.791
			S25.068,34.851,24.617,34.851z M24.717,34.195c0.31,0,0.57-0.072,0.784-0.217c0.213-0.145,0.384-0.354,0.514-0.627
			c0.129-0.273,0.222-0.606,0.278-0.999s0.085-0.837,0.085-1.333c0-0.484-0.027-0.923-0.082-1.315s-0.146-0.729-0.275-1.008
			c-0.13-0.279-0.3-0.495-0.511-0.647c-0.212-0.152-0.472-0.229-0.781-0.229c-0.313,0-0.577,0.069-0.792,0.208
			c-0.216,0.139-0.39,0.338-0.522,0.598c-0.134,0.26-0.23,0.578-0.291,0.955s-0.091,0.804-0.091,1.28
			c0,0.465,0.029,0.899,0.088,1.304s0.154,0.757,0.288,1.058c0.133,0.301,0.307,0.538,0.522,0.712
			C24.146,34.108,24.408,34.195,24.717,34.195z"/>
		<path fill="#11110B" d="M33.24,26.759l-0.846-0.15v-0.682h3.275v0.682l-0.997,0.15v4.413c0,0.558,0.053,1.027,0.158,1.407
			c0.105,0.381,0.255,0.688,0.449,0.92c0.193,0.233,0.426,0.4,0.695,0.502c0.271,0.102,0.569,0.153,0.898,0.153
			c0.352,0,0.659-0.065,0.921-0.196c0.263-0.13,0.481-0.321,0.658-0.571c0.176-0.25,0.308-0.556,0.396-0.917
			c0.089-0.362,0.133-0.773,0.133-1.234v-4.476l-0.969-0.15v-0.682h2.812v0.682l-0.869,0.15v4.424c0,0.635-0.082,1.184-0.246,1.646
			s-0.392,0.843-0.681,1.144c-0.29,0.3-0.632,0.522-1.027,0.664c-0.396,0.143-0.824,0.214-1.286,0.214
			c-0.606,0-1.129-0.075-1.566-0.225c-0.438-0.15-0.799-0.38-1.08-0.69c-0.282-0.31-0.49-0.705-0.626-1.184
			c-0.135-0.479-0.202-1.048-0.202-1.707V26.759z"/>
		<path fill="#11110B" d="M41.587,34.207l0.969-0.135V26.73l-0.969-0.152v-0.65h2.318l3.951,5.76l0.622,1.16v-6.123l-1.051-0.146
			v-0.65h2.911v0.65l-0.975,0.152v8.115h-0.962l-4.045-5.877l-0.916-1.594v6.691l1.122,0.141v0.639h-2.977V34.207z"/>
		<path fill="#11110B" d="M51.284,34.207l1.074-0.141V26.73l-1.074-0.152v-0.65h3.534v0.65l-1.074,0.146v7.342l1.092,0.158v0.621
			h-3.552V34.207z"/>
		<path fill="#11110B" d="M57.384,34.207l1.531-0.141v-7.412h-1.954l-0.44,2.479h-0.852l0.206-3.205h7.431l0.188,3.205h-0.84
			l-0.446-2.479H60.33v7.412l1.661,0.141v0.639h-4.607V34.207z"/>
		<path fill="#11110B" d="M64.55,32.196h0.816l0.234,1.457c0.062,0.064,0.148,0.127,0.256,0.188
			c0.107,0.061,0.231,0.114,0.373,0.159c0.141,0.045,0.294,0.082,0.46,0.108c0.167,0.027,0.342,0.04,0.525,0.04
			c0.595,0,1.037-0.128,1.327-0.385c0.289-0.256,0.435-0.605,0.435-1.047c0-0.228-0.05-0.43-0.147-0.604s-0.236-0.334-0.416-0.477
			c-0.181-0.143-0.396-0.276-0.649-0.402c-0.252-0.125-0.531-0.255-0.836-0.388c-0.243-0.106-0.502-0.234-0.778-0.382
			c-0.275-0.148-0.532-0.328-0.769-0.539c-0.237-0.211-0.434-0.46-0.59-0.747s-0.235-0.623-0.235-1.007
			c0-0.324,0.069-0.623,0.206-0.899s0.331-0.513,0.584-0.713c0.252-0.2,0.559-0.355,0.919-0.468
			c0.359-0.112,0.765-0.168,1.215-0.168c0.285,0,0.553,0.02,0.801,0.059c0.249,0.039,0.474,0.084,0.676,0.135
			c0.201,0.051,0.377,0.1,0.528,0.146c0.15,0.047,0.271,0.076,0.36,0.088l-0.076,1.959h-0.786l-0.271-1.383
			c-0.035-0.038-0.092-0.076-0.17-0.114c-0.078-0.038-0.173-0.072-0.285-0.103c-0.111-0.03-0.234-0.055-0.369-0.074
			c-0.136-0.019-0.275-0.028-0.42-0.028c-0.54,0-0.939,0.105-1.197,0.317c-0.259,0.211-0.388,0.52-0.388,0.927
			c0,0.229,0.048,0.427,0.144,0.596c0.096,0.169,0.234,0.325,0.414,0.468s0.397,0.28,0.651,0.411
			c0.255,0.131,0.538,0.271,0.852,0.419c0.281,0.137,0.568,0.283,0.859,0.437c0.292,0.154,0.557,0.333,0.796,0.537
			c0.238,0.203,0.434,0.437,0.584,0.699c0.15,0.263,0.226,0.568,0.226,0.918c0,0.3-0.065,0.6-0.196,0.898
			c-0.131,0.299-0.329,0.568-0.593,0.808c-0.265,0.24-0.597,0.435-0.998,0.585c-0.401,0.15-0.874,0.225-1.418,0.225
			c-0.348,0-0.67-0.026-0.965-0.079c-0.296-0.053-0.561-0.112-0.793-0.179s-0.434-0.129-0.602-0.188s-0.3-0.092-0.394-0.1
			L64.55,32.196z"/>
		<path fill="#11110B" d="M75.733,29.162h5.412v0.932h-5.412V29.162z M75.733,32.384h5.412v0.932h-5.412V32.384z"/>
		<path fill="#11110B" d="M90.284,34.207l1.491-0.146v-5.297c-0.078,0.031-0.186,0.065-0.323,0.103
			c-0.137,0.037-0.28,0.072-0.431,0.105c-0.151,0.033-0.3,0.062-0.446,0.088s-0.271,0.042-0.373,0.05l-0.146-0.721
			c0.211-0.047,0.424-0.108,0.637-0.185s0.42-0.163,0.619-0.261c0.2-0.098,0.389-0.203,0.566-0.316
			c0.179-0.113,0.34-0.23,0.484-0.352h0.006l0.77,0.123v6.662l1.361,0.146v0.639h-4.215V34.207z"/>
		<path fill="#11110B" d="M98.544,34.851c-0.544,0-1.009-0.104-1.395-0.311c-0.385-0.207-0.699-0.488-0.941-0.844
			c-0.243-0.355-0.42-0.77-0.531-1.242c-0.112-0.473-0.164-0.977-0.156-1.512c0.004-0.598,0.095-1.131,0.271-1.6
			s0.412-0.864,0.707-1.187c0.296-0.322,0.639-0.568,1.03-0.738s0.805-0.255,1.238-0.255c0.552,0,1.019,0.094,1.4,0.281
			s0.69,0.449,0.928,0.785c0.236,0.336,0.406,0.734,0.511,1.195c0.104,0.461,0.153,0.963,0.149,1.506
			c-0.004,0.594-0.089,1.132-0.256,1.614c-0.166,0.482-0.393,0.895-0.681,1.236c-0.287,0.342-0.626,0.605-1.016,0.791
			S98.994,34.851,98.544,34.851z M98.644,34.195c0.31,0,0.57-0.072,0.784-0.217c0.213-0.145,0.384-0.354,0.514-0.627
			c0.129-0.273,0.222-0.606,0.278-0.999s0.085-0.837,0.085-1.333c0-0.484-0.027-0.923-0.082-1.315s-0.146-0.729-0.275-1.008
			c-0.13-0.279-0.3-0.495-0.511-0.647c-0.212-0.152-0.472-0.229-0.781-0.229c-0.313,0-0.577,0.069-0.792,0.208
			c-0.216,0.139-0.39,0.338-0.522,0.598c-0.134,0.26-0.23,0.578-0.291,0.955s-0.091,0.804-0.091,1.28
			c0,0.465,0.029,0.899,0.088,1.304s0.154,0.757,0.288,1.058c0.133,0.301,0.307,0.538,0.522,0.712
			C98.072,34.108,98.335,34.195,98.644,34.195z"/>
		<path fill="#11110B" d="M106.744,34.207l1.074-0.141V26.73l-1.074-0.152v-0.65h3.534v0.65l-1.074,0.146v7.342l1.092,0.158v0.621
			h-3.552V34.207z"/>
		<path fill="#11110B" d="M110.947,34.207l1.045-0.135l0.881-7.348l-1.257-0.146v-0.65h3.205l1.844,5.373l0.305,1.348l0.265-1.348
			l1.626-5.373h3.205v0.65l-1.304,0.152l1.139,7.336l1.051,0.141v0.639h-3.486v-0.639l1.039-0.135l-0.74-5.32l-0.258-2.338
			l-0.405,1.605l-1.913,6.428h-0.758l-2.119-5.771l-0.651-2.256l-0.188,2.326l-0.476,5.32l1.156,0.141v0.639h-3.205V34.207z"/>
		<path fill="#11110B" d="M122.752,34.207l0.745-0.14l2.894-8.14h1.397l2.917,8.14l0.746,0.14v0.639h-3.223v-0.639l0.957-0.141
			l-0.558-1.711h-3.452l-0.534,1.711l1.004,0.141v0.639h-2.888L122.752,34.207z M128.387,31.611l-1.256-3.79l-0.259-0.969
			l-0.258,0.98l-1.203,3.778H128.387z"/>
		<path fill="#11110B" d="M131.78,30.5c0-0.724,0.117-1.369,0.353-1.935c0.234-0.566,0.558-1.045,0.968-1.438
			c0.411-0.393,0.896-0.691,1.453-0.897c0.558-0.206,1.157-0.309,1.799-0.309c0.313,0,0.617,0.015,0.91,0.044
			c0.294,0.029,0.564,0.064,0.813,0.105c0.248,0.041,0.466,0.083,0.654,0.126c0.188,0.043,0.334,0.076,0.44,0.1l-0.118,1.977h-0.903
			l-0.317-1.308c-0.035-0.033-0.089-0.07-0.161-0.113s-0.17-0.081-0.294-0.116c-0.123-0.035-0.276-0.065-0.461-0.091
			c-0.184-0.026-0.402-0.039-0.657-0.039c-0.423,0-0.811,0.075-1.165,0.225c-0.354,0.15-0.659,0.375-0.916,0.675
			c-0.256,0.3-0.455,0.673-0.599,1.121c-0.143,0.448-0.214,0.969-0.214,1.565c0,0.342,0.024,0.676,0.073,1.002
			s0.124,0.636,0.226,0.931c0.103,0.294,0.229,0.565,0.382,0.814c0.152,0.248,0.334,0.463,0.543,0.643
			c0.209,0.181,0.446,0.321,0.71,0.421c0.265,0.101,0.559,0.151,0.884,0.151c0.164,0,0.33-0.01,0.496-0.029s0.325-0.05,0.476-0.091
			s0.288-0.093,0.414-0.155c0.125-0.062,0.232-0.137,0.322-0.223v-2.566l-1.438-0.135v-0.756h3.504v0.756l-0.687,0.123v3.164
			c-0.152,0-0.332,0.033-0.537,0.098c-0.206,0.065-0.44,0.136-0.704,0.213c-0.265,0.077-0.56,0.146-0.884,0.207
			c-0.325,0.062-0.685,0.092-1.08,0.092c-0.677,0-1.281-0.11-1.811-0.332c-0.531-0.221-0.979-0.526-1.348-0.915
			s-0.647-0.848-0.84-1.378C131.875,31.697,131.78,31.122,131.78,30.5z"/>
		<path fill="#11110B" d="M140.767,34.207l0.986-0.141v-7.324l-0.969-0.162v-0.653h6.116l0.165,1.859h-0.758l-0.363-1.15h-2.812
			v3.252h1.908l0.176-0.99h0.758v2.777h-0.758l-0.17-1.043h-1.914v3.422h3.229l0.664-1.535l0.751,0.223l-0.347,2.104h-6.662V34.207z
			"/>
		<path fill="#11110B" d="M148.849,32.196h0.816l0.234,1.457c0.062,0.064,0.148,0.127,0.256,0.188
			c0.107,0.061,0.231,0.114,0.373,0.159c0.141,0.045,0.294,0.082,0.46,0.108c0.167,0.027,0.342,0.04,0.525,0.04
			c0.595,0,1.037-0.128,1.327-0.385c0.289-0.256,0.435-0.605,0.435-1.047c0-0.228-0.05-0.43-0.147-0.604s-0.236-0.334-0.416-0.477
			c-0.181-0.143-0.396-0.276-0.649-0.402c-0.252-0.125-0.531-0.255-0.836-0.388c-0.243-0.106-0.502-0.234-0.778-0.382
			c-0.275-0.148-0.532-0.328-0.769-0.539c-0.237-0.211-0.434-0.46-0.59-0.747s-0.235-0.623-0.235-1.007
			c0-0.324,0.069-0.623,0.206-0.899s0.331-0.513,0.584-0.713c0.252-0.2,0.559-0.355,0.919-0.468
			c0.359-0.112,0.765-0.168,1.215-0.168c0.285,0,0.553,0.02,0.801,0.059c0.249,0.039,0.474,0.084,0.676,0.135
			c0.201,0.051,0.377,0.1,0.528,0.146c0.15,0.047,0.271,0.076,0.36,0.088l-0.076,1.959h-0.786l-0.271-1.383
			c-0.035-0.038-0.092-0.076-0.17-0.114c-0.078-0.038-0.173-0.072-0.285-0.103c-0.111-0.03-0.234-0.055-0.369-0.074
			c-0.136-0.019-0.275-0.028-0.42-0.028c-0.54,0-0.939,0.105-1.197,0.317c-0.259,0.211-0.388,0.52-0.388,0.927
			c0,0.229,0.048,0.427,0.144,0.596c0.096,0.169,0.234,0.325,0.414,0.468s0.397,0.28,0.651,0.411
			c0.255,0.131,0.538,0.271,0.852,0.419c0.281,0.137,0.568,0.283,0.859,0.437c0.292,0.154,0.557,0.333,0.796,0.537
			c0.238,0.203,0.434,0.437,0.584,0.699c0.15,0.263,0.226,0.568,0.226,0.918c0,0.3-0.065,0.6-0.196,0.898
			c-0.131,0.299-0.329,0.568-0.593,0.808c-0.265,0.24-0.597,0.435-0.998,0.585c-0.401,0.15-0.874,0.225-1.418,0.225
			c-0.348,0-0.67-0.026-0.965-0.079c-0.296-0.053-0.561-0.112-0.793-0.179s-0.434-0.129-0.602-0.188s-0.3-0.092-0.394-0.1
			L148.849,32.196z"/>
		<path fill="#11110B" d="M159.563,31.124c0,0.583-0.059,1.125-0.176,1.629s-0.27,0.966-0.455,1.386s-0.393,0.797-0.619,1.131
			s-0.451,0.623-0.672,0.867c-0.222,0.244-0.426,0.443-0.613,0.598c-0.188,0.154-0.335,0.261-0.44,0.319l-0.552-0.375
			c0.086-0.055,0.198-0.148,0.337-0.281c0.14-0.133,0.291-0.307,0.455-0.521c0.165-0.215,0.33-0.47,0.496-0.765
			s0.32-0.631,0.461-1.008s0.258-0.795,0.353-1.254c0.094-0.458,0.146-0.958,0.158-1.497c0.016-0.601-0.018-1.158-0.1-1.669
			c-0.083-0.512-0.192-0.98-0.329-1.406s-0.293-0.807-0.47-1.143c-0.176-0.336-0.352-0.628-0.528-0.876
			c-0.176-0.248-0.341-0.451-0.496-0.609c-0.154-0.158-0.28-0.272-0.378-0.343l0.593-0.404c0.09,0.055,0.226,0.152,0.408,0.293
			c0.182,0.141,0.382,0.328,0.602,0.562c0.219,0.234,0.444,0.52,0.678,0.855c0.232,0.336,0.445,0.726,0.637,1.169
			s0.349,0.942,0.47,1.497S159.563,30.449,159.563,31.124z"/>
	</g>
	<polygon fill="#FFFFFF" points="170.479,45.695 170.479,45.195 1,45.195 1,1.823 169.979,1.823 169.979,45.695 170.479,45.695 
		170.479,45.195 170.479,45.695 170.979,45.695 170.979,0.823 0,0.823 0,46.195 170.979,46.195 170.979,45.695 	"/>
</g>
</svg>
