<?xml version="1.0" encoding="utf-8"?>
<!-- Generator: Adobe Illustrator 17.0.0, SVG Export Plug-In . SVG Version: 6.00 Build 0)  -->
<!DOCTYPE svg PUBLIC "-//W3C//DTD SVG 1.1//EN" "http://www.w3.org/Graphics/SVG/1.1/DTD/svg11.dtd">
<svg version="1.1" id="Layer_1" xmlns="http://www.w3.org/2000/svg" xmlns:xlink="http://www.w3.org/1999/xlink" x="0px" y="0px"
	 width="457.1px" height="415.8px" viewBox="0 0 457.1 415.8" style="enable-background:new 0 0 457.1 415.8;" xml:space="preserve"
	>
<style type="text/css">
	.st0{opacity:0.75;}
	.st1{fill:none;stroke:#000000;stroke-miterlimit:10;}
	.st2{fill:none;stroke:#666666;stroke-miterlimit:10;}
	.st3{opacity:0.6;fill:#356069;}
	.st4{opacity:0.6;fill:#5196A3;}
	.st5{opacity:0.6;fill:#36BFD9;}
	.st6{opacity:0.6;fill:#86D9E8;}
	.st7{fill:#F3FEFF;}
</style>
<g>
	<g>
		<g>
			<path d="M86.8,108.3l-0.9,1.1c-0.7-0.7-1.6-1.1-2.5-1.1c-1.8,0-3.2,1.4-3.2,3.1s1.4,3.2,3.2,3.2c0.9,0,1.8-0.4,2.5-1.1l0.9,1
				c-0.9,0.9-2.2,1.5-3.5,1.5c-2.6,0-4.7-2-4.7-4.6c0-2.5,2.1-4.5,4.7-4.5C84.7,106.9,85.9,107.4,86.8,108.3z"/>
			<path d="M89.6,113.9l-0.9,2h-1.6l4-9h1.5l3.9,9h-1.6l-0.9-2H89.6z M91.8,108.6l-1.7,4h3.4L91.8,108.6z"/>
			<path d="M103.1,114.5v1.4h-5.4v-9h1.5v7.6H103.1z"/>
			<path d="M113.3,111.4c0,2.6-2.1,4.5-4.8,4.5s-4.7-2-4.7-4.5c0-2.6,2.1-4.5,4.7-4.5S113.3,108.9,113.3,111.4z M105.4,111.4
				c0,1.8,1.5,3.2,3.2,3.2s3.2-1.4,3.2-3.2c0-1.8-1.4-3.2-3.2-3.2C106.8,108.3,105.4,109.6,105.4,111.4z"/>
			<path d="M119,113.2c-0.1,0-0.3,0-0.4,0h-2.1v2.7h-1.5v-9h3.6c2.3,0,3.6,1.1,3.6,3.1c0,1.4-0.7,2.4-1.9,2.9l2,3h-1.7L119,113.2z
				 M118.6,111.8c1.4,0,2.2-0.6,2.2-1.8c0-1.2-0.8-1.7-2.2-1.7h-2.1v3.5H118.6z"/>
			<path d="M124.2,115.9v-9h1.5v9H124.2z"/>
			<path d="M129.6,108.3v2.4h4.4v1.4h-4.4v2.5h5v1.4h-6.6v-9h6.4v1.4H129.6z"/>
			<path d="M142.5,107.8l-0.6,1.3c-1-0.6-1.9-0.8-2.6-0.8c-0.9,0-1.5,0.3-1.5,0.9c0,2,4.8,0.9,4.8,4.1c0,1.6-1.4,2.6-3.4,2.6
				c-1.4,0-2.7-0.6-3.7-1.4l0.7-1.3c0.9,0.8,2.1,1.3,3,1.3c1,0,1.7-0.4,1.7-1.1c0-2-4.8-0.9-4.8-4.1c0-1.5,1.3-2.5,3.3-2.5
				C140.6,106.9,141.7,107.2,142.5,107.8z"/>
		</g>
	</g>
	<g>
		<g>
			<path d="M192.8,80.5v7.6h-1.5v-7.6h-2.8v-1.4h7.2v1.4H192.8z"/>
			<path d="M205.2,83.6c0,2.6-2.1,4.5-4.8,4.5s-4.7-2-4.7-4.5c0-2.6,2.1-4.5,4.7-4.5S205.2,81,205.2,83.6z M197.2,83.6
				c0,1.8,1.5,3.2,3.2,3.2s3.2-1.4,3.2-3.2c0-1.8-1.4-3.2-3.2-3.2C198.7,80.4,197.2,81.8,197.2,83.6z"/>
			<path d="M209.9,80.5v7.6h-1.5v-7.6h-2.8v-1.4h7.2v1.4H209.9z"/>
			<path d="M214.4,86l-0.9,2h-1.6l4-9h1.5l3.9,9h-1.6l-0.9-2H214.4z M216.6,80.7l-1.7,4h3.4L216.6,80.7z"/>
			<path d="M227.9,86.7v1.4h-5.4v-9h1.5v7.6H227.9z"/>
			<path d="M234.2,80.5V83h4.1v1.3h-4.1v3.7h-1.5v-9h6l0,1.4H234.2z"/>
			<path d="M241,86l-0.9,2h-1.6l4-9h1.5l3.9,9h-1.6l-0.9-2H241z M243.2,80.7l-1.7,4h3.4L243.2,80.7z"/>
			<path d="M251.5,80.5v7.6H250v-7.6h-2.8v-1.4h7.2v1.4H251.5z"/>
		</g>
	</g>
	<g>
		<g>
			<path d="M310.2,108.3l-0.9,1.1c-0.7-0.7-1.6-1.1-2.5-1.1c-1.8,0-3.2,1.4-3.2,3.1s1.4,3.2,3.2,3.2c0.9,0,1.8-0.4,2.5-1.1l0.9,1
				c-0.9,0.9-2.2,1.5-3.5,1.5c-2.6,0-4.7-2-4.7-4.6c0-2.5,2.1-4.5,4.7-4.5C308,106.9,309.3,107.4,310.2,108.3z"/>
			<path d="M318,115.9v-3.7h-4.8v3.7h-1.5v-9h1.5v3.9h4.8v-3.9h1.5v9H318z"/>
			<path d="M330.6,111.4c0,2.6-2.1,4.5-4.8,4.5s-4.7-2-4.7-4.5c0-2.6,2.1-4.5,4.7-4.5S330.6,108.9,330.6,111.4z M322.6,111.4
				c0,1.8,1.5,3.2,3.2,3.2s3.2-1.4,3.2-3.2c0-1.8-1.4-3.2-3.2-3.2C324.1,108.3,322.6,109.6,322.6,111.4z"/>
			<path d="M337.6,114.5v1.4h-5.4v-9h1.5v7.6H337.6z"/>
			<path d="M340.5,108.3v2.4h4.4v1.4h-4.4v2.5h5v1.4H339v-9h6.4v1.4H340.5z"/>
			<path d="M353.5,107.8l-0.6,1.3c-1-0.6-1.9-0.8-2.6-0.8c-0.9,0-1.5,0.3-1.5,0.9c0,2,4.8,0.9,4.8,4.1c0,1.6-1.4,2.6-3.4,2.6
				c-1.4,0-2.7-0.6-3.7-1.4l0.7-1.3c0.9,0.8,2.1,1.3,3,1.3c1,0,1.7-0.4,1.7-1.1c0-2-4.8-0.9-4.8-4.1c0-1.5,1.3-2.5,3.3-2.5
				C351.5,106.9,352.7,107.2,353.5,107.8z"/>
			<path d="M358.7,108.3v7.6h-1.5v-7.6h-2.8v-1.4h7.2v1.4H358.7z"/>
			<path d="M364.3,108.3v2.4h4.4v1.4h-4.4v2.5h5v1.4h-6.6v-9h6.4v1.4H364.3z"/>
			<path d="M375.2,113.2c-0.1,0-0.3,0-0.4,0h-2.1v2.7h-1.5v-9h3.6c2.3,0,3.6,1.1,3.6,3.1c0,1.4-0.7,2.4-1.9,2.9l2,3h-1.7
				L375.2,113.2z M374.8,111.8c1.4,0,2.2-0.6,2.2-1.8c0-1.2-0.8-1.7-2.2-1.7h-2.1v3.5H374.8z"/>
			<path d="M389.2,111.4c0,2.6-2.1,4.5-4.8,4.5s-4.7-2-4.7-4.5c0-2.6,2.1-4.5,4.7-4.5S389.2,108.9,389.2,111.4z M381.2,111.4
				c0,1.8,1.5,3.2,3.2,3.2s3.2-1.4,3.2-3.2c0-1.8-1.4-3.2-3.2-3.2C382.7,108.3,381.2,109.6,381.2,111.4z"/>
			<path d="M396.2,114.5v1.4h-5.4v-9h1.5v7.6H396.2z"/>
		</g>
	</g>
	<g>
		<g>
			<path d="M369.9,163.1l-0.9,1.1c-0.7-0.7-1.6-1.1-2.5-1.1c-1.8,0-3.2,1.4-3.2,3.1s1.4,3.2,3.2,3.2c0.9,0,1.8-0.4,2.5-1.1l0.9,1
				c-0.9,0.9-2.2,1.5-3.5,1.5c-2.6,0-4.7-2-4.7-4.6c0-2.5,2.1-4.5,4.7-4.5C367.8,161.7,369,162.3,369.9,163.1z"/>
			<path d="M372.7,168.7l-0.9,2h-1.6l4-9h1.5l3.9,9H378l-0.9-2H372.7z M374.9,163.4l-1.7,4h3.4L374.9,163.4z"/>
			<path d="M386.2,169.4v1.4h-5.4v-9h1.5v7.6H386.2z"/>
			<path d="M395,163.1l-0.9,1.1c-0.7-0.7-1.6-1.1-2.5-1.1c-1.8,0-3.2,1.4-3.2,3.1s1.4,3.2,3.2,3.2c0.9,0,1.8-0.4,2.5-1.1l0.9,1
				c-0.9,0.9-2.2,1.5-3.5,1.5c-2.6,0-4.7-2-4.7-4.6c0-2.5,2.1-4.5,4.7-4.5C392.9,161.7,394.2,162.3,395,163.1z"/>
			<path d="M396.6,170.7v-9h1.5v9H396.6z"/>
			<path d="M408.1,167c0,2.3-1.5,3.8-3.9,3.8s-3.9-1.4-3.9-3.8v-5.2h1.5v5.2c0,1.5,0.9,2.4,2.4,2.4c1.5,0,2.4-0.9,2.4-2.4v-5.2h1.5
				V167z"/>
			<path d="M418.3,170.7l0-6.7l-2.8,5.8h-1l-2.8-5.8v6.7h-1.4v-9h1.8l3,6l2.9-6h1.8v9H418.3z"/>
		</g>
	</g>
	<g>
		<g>
			<path d="M3.6,254.2l-3.6-9h1.6l2.8,7.3l2.8-7.3h1.6l-3.6,9H3.6z"/>
			<path d="M10,254.2v-9h1.5v9H10z"/>
			<path d="M17.1,246.6v7.6h-1.5v-7.6h-2.8v-1.4H20v1.4H17.1z"/>
			<path d="M21.6,252.1l-0.9,2h-1.6l4-9h1.5l3.9,9H27l-0.9-2H21.6z M23.9,246.8l-1.7,4h3.4L23.9,246.8z"/>
			<path d="M37.9,254.2l0-6.7l-2.8,5.8h-1l-2.8-5.8v6.7h-1.4v-9h1.8l3,6l2.9-6h1.8v9H37.9z"/>
			<path d="M41.6,254.2v-9h1.5v9H41.6z"/>
			<path d="M51.8,254.2l-4.8-6.4v6.4h-1.5v-9H47l4.8,6.4v-6.4h1.5v9H51.8z"/>
			<path d="M60.2,252.1l-0.9,2h-1.6l4-9h1.5l3.9,9h-1.6l-0.9-2H60.2z M62.5,246.8l-1.7,4h3.4L62.5,246.8z"/>
		</g>
	</g>
	<g>
		<g>
			<path d="M48.2,174l-4.8-6.4v6.4h-1.5v-9h1.5l4.8,6.4V165h1.5v9H48.2z"/>
			<path d="M52,174v-9h1.5v9H52z"/>
			<path d="M57.2,171.9l-0.9,2h-1.6l4-9h1.5l3.9,9h-1.6l-0.9-2H57.2z M59.4,166.6l-1.7,4h3.4L59.4,166.6z"/>
			<path d="M72.5,166.3l-0.9,1.1c-0.7-0.7-1.6-1.1-2.5-1.1c-1.8,0-3.2,1.4-3.2,3.1s1.4,3.2,3.2,3.2c0.9,0,1.8-0.4,2.5-1.1l0.9,1
				c-0.9,0.9-2.2,1.5-3.5,1.5c-2.6,0-4.7-2-4.7-4.6c0-2.5,2.1-4.5,4.7-4.5C70.3,165,71.6,165.5,72.5,166.3z"/>
			<path d="M74,174v-9h1.5v9H74z"/>
			<path d="M84.2,174l-4.8-6.4v6.4h-1.5v-9h1.5l4.8,6.4V165h1.5v9H84.2z"/>
		</g>
	</g>
	<g>
		<g>
			<path d="M317.6,381.6c-0.1,0-0.3,0-0.4,0h-2.1v2.7h-1.5v-9h3.6c2.3,0,3.6,1.1,3.6,3.1c0,1.4-0.7,2.4-1.9,2.9l2,3h-1.7
				L317.6,381.6z M317.2,380.3c1.4,0,2.2-0.6,2.2-1.8c0-1.2-0.8-1.7-2.2-1.7h-2.1v3.5H317.2z"/>
			<path d="M322.8,384.3v-9h1.5v9H322.8z"/>
			<path d="M330.6,375.4c1.9,0,3,0.8,3,2.2c0,1-0.6,1.8-1.6,2c1.2,0.2,1.9,1.1,1.9,2.3c0,1.5-1.2,2.5-3.3,2.5h-4v-9H330.6z
				 M328.2,379.1h2.3c1,0,1.5-0.4,1.5-1.2c0-0.8-0.6-1.2-1.5-1.2h-2.3V379.1z M328.2,383h2.3c1.2,0,1.9-0.5,1.9-1.3
				c0-0.8-0.7-1.3-1.9-1.3h-2.3V383z"/>
			<path d="M344.5,379.8c0,2.6-2.1,4.5-4.8,4.5s-4.7-2-4.7-4.5c0-2.6,2.1-4.5,4.7-4.5S344.5,377.3,344.5,379.8z M336.5,379.8
				c0,1.8,1.5,3.2,3.2,3.2s3.2-1.4,3.2-3.2s-1.4-3.2-3.2-3.2C338,376.7,336.5,378.1,336.5,379.8z"/>
			<path d="M347.6,376.7v2.6h4.1v1.3h-4.1v3.7h-1.5v-9h6l0,1.4H347.6z"/>
			<path d="M358.8,383v1.4h-5.4v-9h1.5v7.6H358.8z"/>
			<path d="M361.6,382.3l-0.9,2h-1.6l4-9h1.5l3.9,9H367l-0.9-2H361.6z M363.9,377l-1.7,4h3.4L363.9,377z"/>
			<path d="M371.6,384.3l-3.6-9h1.6l2.8,7.3l2.8-7.3h1.6l-3.6,9H371.6z"/>
			<path d="M378,384.3v-9h1.5v9H378z"/>
			<path d="M388.2,384.3l-4.8-6.4v6.4h-1.5v-9h1.5l4.8,6.4v-6.4h1.5v9H388.2z"/>
		</g>
	</g>
	<g>
		<g>
			<path d="M388.2,254.2l-3.6-9h1.6l2.8,7.3l2.8-7.3h1.6l-3.6,9H388.2z"/>
			<path d="M394.6,254.2v-9h1.5v9H394.6z"/>
			<path d="M401.7,246.6v7.6h-1.5v-7.6h-2.8v-1.4h7.2v1.4H401.7z"/>
			<path d="M406.2,252.1l-0.9,2h-1.6l4-9h1.5l3.9,9h-1.6l-0.9-2H406.2z M408.5,246.8l-1.7,4h3.4L408.5,246.8z"/>
			<path d="M422.5,254.2l0-6.7l-2.8,5.8h-1l-2.8-5.8v6.7h-1.4v-9h1.8l3,6l2.9-6h1.8v9H422.5z"/>
			<path d="M426.3,254.2v-9h1.5v9H426.3z"/>
			<path d="M436.4,254.2l-4.8-6.4v6.4h-1.5v-9h1.5l4.8,6.4v-6.4h1.5v9H436.4z"/>
			<path d="M447.2,245.2c2.7,0,4.6,1.9,4.6,4.5c0,2.6-2,4.5-4.7,4.5h-3.6v-9H447.2z M445.1,252.8h2.2c1.7,0,3.1-1.3,3.1-3.1
				c0-1.8-1.4-3.1-3.1-3.1h-2.1V252.8z"/>
		</g>
	</g>
	<g>
		<g>
			<path d="M65.6,383.4l-3.6-9h1.6l2.8,7.3l2.8-7.3h1.6l-3.6,9H65.6z"/>
			<path d="M72,383.4v-9h1.5v9H72z"/>
			<path d="M79.2,375.8v7.6h-1.5v-7.6h-2.8v-1.4H82v1.4H79.2z"/>
			<path d="M83.7,381.4l-0.9,2h-1.6l4-9h1.5l3.9,9h-1.6l-0.9-2H83.7z M85.9,376.1l-1.7,4h3.4L85.9,376.1z"/>
			<path d="M100,383.4l0-6.7l-2.8,5.8h-1l-2.8-5.8v6.7h-1.4v-9h1.8l3,6l2.9-6h1.8v9H100z"/>
			<path d="M103.7,383.4v-9h1.5v9H103.7z"/>
			<path d="M113.9,383.4l-4.8-6.4v6.4h-1.5v-9h1.5l4.8,6.4v-6.4h1.5v9H113.9z"/>
			<path d="M124.9,374.5c1.9,0,3,0.8,3,2.2c0,1-0.6,1.8-1.6,2c1.2,0.2,1.9,1.1,1.9,2.3c0,1.5-1.2,2.5-3.3,2.5h-4v-9H124.9z
				 M122.5,378.2h2.3c1,0,1.5-0.4,1.5-1.2c0-0.8-0.6-1.2-1.5-1.2h-2.3V378.2z M122.5,382.1h2.3c1.2,0,1.9-0.5,1.9-1.3
				c0-0.8-0.7-1.3-1.9-1.3h-2.3V382.1z"/>
			<path d="M130.8,383.4v-7.6H129v-1.3h3.3v9H130.8z"/>
			<path d="M140.4,376.6c0,0.9-0.7,1.9-1.6,2.9l-2.3,2.5h4.4v1.4h-6.4v-1.1l3.3-3.5c0.7-0.7,1.1-1.4,1.1-1.9c0-0.7-0.6-1.2-1.5-1.2
				c-0.8,0-1.7,0.4-2.4,1.1l-0.6-1.2c1-0.8,2.1-1.3,3.3-1.3C139.2,374.4,140.4,375.3,140.4,376.6z"/>
		</g>
	</g>
	<g>
		<g>
			<path d="M201.8,406.8c2.3,0,3.5,1.1,3.5,3.1c0,2-1.3,3.2-3.5,3.2h-2.1v2.7h-1.5v-9H201.8z M199.8,411.7h2c1.4,0,2.2-0.6,2.2-1.8
				c0-1.2-0.8-1.7-2.2-1.7h-2V411.7z"/>
			<path d="M210.9,413c-0.1,0-0.3,0-0.4,0h-2.1v2.7h-1.5v-9h3.6c2.3,0,3.6,1.1,3.6,3.1c0,1.4-0.7,2.4-1.9,2.9l2,3h-1.7L210.9,413z
				 M210.5,411.7c1.4,0,2.2-0.6,2.2-1.8c0-1.2-0.8-1.7-2.2-1.7h-2.1v3.5H210.5z"/>
			<path d="M224.9,411.3c0,2.6-2.1,4.5-4.8,4.5s-4.7-2-4.7-4.5c0-2.6,2.1-4.5,4.7-4.5S224.9,408.7,224.9,411.3z M216.9,411.3
				c0,1.8,1.5,3.2,3.2,3.2s3.2-1.4,3.2-3.2s-1.4-3.2-3.2-3.2C218.4,408.1,216.9,409.5,216.9,411.3z"/>
			<path d="M229.6,408.1v7.6h-1.5v-7.6h-2.8v-1.4h7.2v1.4H229.6z"/>
			<path d="M235.2,408.1v2.4h4.4v1.4h-4.4v2.5h5v1.4h-6.6v-9h6.4v1.4H235.2z"/>
			<path d="M242.1,415.7v-9h1.5v9H242.1z"/>
			<path d="M252.2,415.7l-4.8-6.4v6.4H246v-9h1.5l4.8,6.4v-6.4h1.5v9H252.2z"/>
		</g>
	</g>
	<g>
		<g>
			<path d="M17.7,323.8c2.3,0,3.5,1.1,3.5,3.1c0,2-1.3,3.2-3.5,3.2h-2.1v2.7h-1.5v-9H17.7z M15.6,328.7h2c1.4,0,2.2-0.6,2.2-1.8
				c0-1.2-0.8-1.7-2.2-1.7h-2V328.7z"/>
			<path d="M31.5,328.3c0,2.6-2.1,4.5-4.8,4.5s-4.7-2-4.7-4.5c0-2.6,2.1-4.5,4.7-4.5S31.5,325.8,31.5,328.3z M23.5,328.3
				c0,1.8,1.5,3.2,3.2,3.2s3.2-1.4,3.2-3.2s-1.4-3.2-3.2-3.2C25,325.2,23.5,326.5,23.5,328.3z"/>
			<path d="M36.2,325.2v7.6h-1.5v-7.6h-2.8v-1.4H39v1.4H36.2z"/>
			<path d="M40.7,330.8l-0.9,2h-1.6l4-9h1.5l3.9,9h-1.6l-0.9-2H40.7z M43,325.5l-1.7,4h3.4L43,325.5z"/>
			<path d="M54.9,324.7l-0.6,1.3c-1-0.6-1.9-0.8-2.6-0.8c-0.9,0-1.5,0.3-1.5,0.9c0,2,4.8,0.9,4.8,4.1c0,1.6-1.4,2.6-3.4,2.6
				c-1.4,0-2.7-0.6-3.7-1.4l0.7-1.3c0.9,0.8,2.1,1.3,3,1.3c1,0,1.7-0.4,1.7-1.1c0-2-4.8-0.9-4.8-4.1c0-1.5,1.3-2.5,3.3-2.5
				C52.9,323.8,54.1,324.2,54.9,324.7z"/>
			<path d="M62.9,324.7l-0.6,1.3c-1-0.6-1.9-0.8-2.6-0.8c-0.9,0-1.5,0.3-1.5,0.9c0,2,4.8,0.9,4.8,4.1c0,1.6-1.4,2.6-3.4,2.6
				c-1.4,0-2.7-0.6-3.7-1.4l0.7-1.3c0.9,0.8,2.1,1.3,3,1.3c1,0,1.7-0.4,1.7-1.1c0-2-4.8-0.9-4.8-4.1c0-1.5,1.3-2.5,3.3-2.5
				C60.9,323.8,62,324.2,62.9,324.7z"/>
			<path d="M64.7,332.8v-9h1.5v9H64.7z"/>
			<path d="M76.2,329.1c0,2.3-1.5,3.8-3.9,3.8s-3.9-1.4-3.9-3.8v-5.2h1.5v5.2c0,1.5,0.9,2.4,2.4,2.4c1.5,0,2.4-0.9,2.4-2.4v-5.2h1.5
				V329.1z"/>
			<path d="M86.4,332.8l0-6.7l-2.8,5.8h-1l-2.8-5.8v6.7h-1.4v-9h1.8l3,6l2.9-6h1.8v9H86.4z"/>
		</g>
	</g>
	<g>
		<g>
			<path d="M369.3,323.8c2.3,0,3.5,1.1,3.5,3.1c0,2-1.3,3.2-3.5,3.2h-2.1v2.7h-1.5v-9H369.3z M367.3,328.7h2c1.4,0,2.2-0.6,2.2-1.8
				c0-1.2-0.8-1.7-2.2-1.7h-2V328.7z"/>
			<path d="M380.6,332.8v-3.7h-4.8v3.7h-1.5v-9h1.5v3.9h4.8v-3.9h1.5v9H380.6z"/>
			<path d="M393.3,328.3c0,2.6-2.1,4.5-4.8,4.5s-4.7-2-4.7-4.5c0-2.6,2.1-4.5,4.7-4.5S393.3,325.8,393.3,328.3z M385.3,328.3
				c0,1.8,1.5,3.2,3.2,3.2s3.2-1.4,3.2-3.2s-1.4-3.2-3.2-3.2C386.8,325.2,385.3,326.5,385.3,328.3z"/>
			<path d="M400.9,324.7l-0.6,1.3c-1-0.6-1.9-0.8-2.6-0.8c-0.9,0-1.5,0.3-1.5,0.9c0,2,4.8,0.9,4.8,4.1c0,1.6-1.4,2.6-3.4,2.6
				c-1.4,0-2.7-0.6-3.7-1.4l0.7-1.3c0.9,0.8,2.1,1.3,3,1.3c1,0,1.7-0.4,1.7-1.1c0-2-4.8-0.9-4.8-4.1c0-1.5,1.3-2.5,3.3-2.5
				C399,323.8,400.1,324.2,400.9,324.7z"/>
			<path d="M406.4,323.8c2.3,0,3.5,1.1,3.5,3.1c0,2-1.3,3.2-3.5,3.2h-2.1v2.7h-1.5v-9H406.4z M404.3,328.7h2c1.4,0,2.2-0.6,2.2-1.8
				c0-1.2-0.8-1.7-2.2-1.7h-2V328.7z"/>
			<path d="M417.7,332.8v-3.7h-4.8v3.7h-1.5v-9h1.5v3.9h4.8v-3.9h1.5v9H417.7z"/>
			<path d="M430.3,328.3c0,2.6-2.1,4.5-4.8,4.5s-4.7-2-4.7-4.5c0-2.6,2.1-4.5,4.7-4.5S430.3,325.8,430.3,328.3z M422.3,328.3
				c0,1.8,1.5,3.2,3.2,3.2s3.2-1.4,3.2-3.2s-1.4-3.2-3.2-3.2C423.8,325.2,422.3,326.5,422.3,328.3z"/>
			<path d="M436,330.1c-0.1,0-0.3,0-0.4,0h-2.1v2.7h-1.5v-9h3.6c2.3,0,3.6,1.1,3.6,3.1c0,1.4-0.7,2.4-1.9,2.9l2,3h-1.7L436,330.1z
				 M435.6,328.7c1.4,0,2.2-0.6,2.2-1.8c0-1.2-0.8-1.7-2.2-1.7h-2.1v3.5H435.6z"/>
			<path d="M448.8,329.1c0,2.3-1.5,3.8-3.9,3.8s-3.9-1.4-3.9-3.8v-5.2h1.5v5.2c0,1.5,0.9,2.4,2.4,2.4c1.5,0,2.4-0.9,2.4-2.4v-5.2
				h1.5V329.1z"/>
			<path d="M457,324.7l-0.6,1.3c-1-0.6-1.9-0.8-2.6-0.8c-0.9,0-1.5,0.3-1.5,0.9c0,2,4.8,0.9,4.8,4.1c0,1.6-1.4,2.6-3.4,2.6
				c-1.4,0-2.7-0.6-3.7-1.4l0.7-1.3c0.9,0.8,2.1,1.3,3,1.3c1,0,1.7-0.4,1.7-1.1c0-2-4.8-0.9-4.8-4.1c0-1.5,1.3-2.5,3.3-2.5
				C455.1,323.8,456.2,324.2,457,324.7z"/>
		</g>
	</g>
	<g class="st0">
		<circle class="st1" cx="226" cy="247.2" r="146.7"/>
		<line class="st1" x1="226" y1="241.3" x2="226" y2="100.5"/>
		<line class="st1" x1="222.9" y1="242.1" x2="152.5" y2="120.2"/>
		<line class="st1" x1="220.8" y1="244.4" x2="98.7" y2="174"/>
		<line class="st1" x1="220.1" y1="247.4" x2="79" y2="247.4"/>
		<line class="st1" x1="221" y1="250.3" x2="98.7" y2="320.9"/>
		<line class="st1" x1="223.1" y1="252.4" x2="152.5" y2="374.7"/>
		<line class="st1" x1="226" y1="253.1" x2="226" y2="394.4"/>
		<line class="st1" x1="228.9" y1="252.4" x2="299.5" y2="374.7"/>
		<line class="st1" x1="231" y1="250.3" x2="353.3" y2="320.9"/>
		<line class="st1" x1="231.9" y1="247.4" x2="372.9" y2="247.4"/>
		<line class="st1" x1="231.2" y1="244.4" x2="353.3" y2="174"/>
		<line class="st1" x1="229.1" y1="242.1" x2="299.5" y2="120.2"/>
	</g>
	<g>
		<g>
			<path d="M80.3,21.3l-5.6-7.5v7.5h-1.8V10.8h1.7l5.6,7.5v-7.5H82v10.5H80.3z"/>
			<path d="M93.7,16.9c0,2.7-1.7,4.4-4.6,4.4c-2.8,0-4.6-1.7-4.6-4.4v-6.2h1.8v6.2c0,1.8,1.1,2.8,2.8,2.8c1.7,0,2.8-1,2.8-2.8v-6.2
				h1.8V16.9z"/>
			<path d="M100.1,12.4v8.9h-1.8v-8.9H95v-1.6h8.4v1.6H100.1z"/>
			<path d="M109.7,18.1c-0.1,0-0.3,0-0.5,0h-2.5v3.2H105V10.8h4.3c2.7,0,4.2,1.3,4.2,3.6c0,1.7-0.8,2.9-2.2,3.4l2.4,3.5h-2
				L109.7,18.1z M109.2,16.5c1.6,0,2.5-0.7,2.5-2.1c0-1.4-0.9-2-2.5-2h-2.5v4.2H109.2z"/>
			<path d="M115.8,21.3V10.8h1.8v10.5H115.8z"/>
			<path d="M124.2,12.4v8.9h-1.8v-8.9h-3.3v-1.6h8.4v1.6H124.2z"/>
			<path d="M129,21.3V10.8h1.8v10.5H129z"/>
			<path d="M143.8,16c0,3-2.4,5.3-5.6,5.3s-5.6-2.3-5.6-5.3c0-3,2.4-5.3,5.6-5.3S143.8,13,143.8,16z M134.5,16
				c0,2.1,1.7,3.7,3.8,3.7s3.7-1.7,3.7-3.7s-1.7-3.7-3.7-3.7C136.2,12.3,134.5,13.9,134.5,16z"/>
			<path d="M153.1,21.3l-5.6-7.5v7.5h-1.8V10.8h1.7l5.6,7.5v-7.5h1.7v10.5H153.1z"/>
			<path d="M159.1,18.9l-1,2.4h-1.8l4.6-10.5h1.8l4.6,10.5h-1.9l-1-2.4H159.1z M161.7,12.7l-2,4.7h4L161.7,12.7z"/>
			<path d="M175,19.7v1.6h-6.3V10.8h1.8v8.9H175z"/>
			<path d="M189.2,12.4l-1,1.3c-0.8-0.8-1.9-1.3-2.9-1.3c-2.1,0-3.8,1.6-3.8,3.7c0,2.1,1.7,3.7,3.8,3.7c1.1,0,2.1-0.5,2.9-1.2l1,1.2
				c-1.1,1.1-2.6,1.7-4.1,1.7c-3.1,0-5.5-2.3-5.5-5.3c0-3,2.4-5.3,5.5-5.3C186.7,10.7,188.1,11.4,189.2,12.4z"/>
			<path d="M201,16c0,3-2.4,5.3-5.6,5.3s-5.6-2.3-5.6-5.3c0-3,2.4-5.3,5.6-5.3S201,13,201,16z M191.7,16c0,2.1,1.7,3.7,3.8,3.7
				s3.7-1.7,3.7-3.7s-1.7-3.7-3.7-3.7C193.4,12.3,191.7,13.9,191.7,16z"/>
			<path d="M212.4,21.3l0-7.8l-3.3,6.8h-1.2l-3.3-6.8v7.8h-1.7V10.8h2.1l3.5,7l3.4-7h2.1v10.5H212.4z"/>
			<path d="M221,10.8c2.6,0,4.2,1.3,4.2,3.6c0,2.4-1.5,3.8-4.2,3.8h-2.4v3.2h-1.8V10.8H221z M218.6,16.5h2.3c1.6,0,2.5-0.7,2.5-2.1
				c0-1.4-0.9-2-2.5-2h-2.3V16.5z"/>
			<path d="M237.1,16c0,3-2.4,5.3-5.6,5.3S226,19,226,16c0-3,2.4-5.3,5.6-5.3S237.1,13,237.1,16z M227.8,16c0,2.1,1.7,3.7,3.8,3.7
				s3.7-1.7,3.7-3.7s-1.7-3.7-3.7-3.7C229.5,12.3,227.8,13.9,227.8,16z"/>
			<path d="M246.4,21.3l-5.6-7.5v7.5H239V10.8h1.7l5.6,7.5v-7.5h1.7v10.5H246.4z"/>
			<path d="M252.7,12.4v2.8h5.1v1.6h-5.1v2.9h5.9v1.6h-7.7V10.8h7.5v1.6H252.7z"/>
			<path d="M268.1,21.3l-5.6-7.5v7.5h-1.8V10.8h1.7l5.6,7.5v-7.5h1.7v10.5H268.1z"/>
			<path d="M276.5,12.4v8.9h-1.8v-8.9h-3.3v-1.6h8.4v1.6H276.5z"/>
			<path d="M288.4,11.8l-0.7,1.6c-1.1-0.7-2.3-1-3.1-1c-1,0-1.7,0.4-1.7,1.1c0,2.3,5.7,1.1,5.7,4.8c0,1.9-1.7,3-4,3
				c-1.6,0-3.2-0.7-4.3-1.7l0.8-1.5c1.1,1,2.4,1.5,3.6,1.5c1.2,0,2-0.5,2-1.3c0-2.3-5.7-1-5.7-4.8c0-1.8,1.5-2.9,3.8-2.9
				C286.1,10.7,287.5,11.1,288.4,11.8z"/>
		</g>
	</g>
	<rect x="62.1" y="0.5" class="st2" width="237" height="32"/>
</g>
<path id="skim" class="st3" d="M286.1,351.5c-15.7,3.8-44-21.8-60.1-23.6c-12.9-1.4-41.7,17.1-51.3,8.3
	c-11.4-10.4,4.6-46.2,4.3-61.7c-0.1-6.9-7.2-22-3-27.3c6.4-8.1,35,3.4,40.9-5c2.6-3.7-8.1-15.7-4-17.7c4.8-2.3,7.8,16.3,13.1,16.7
	c2.5,0.2,5.4-5.3,7.5-6.8c26.7-18.4,89.4-77,115.9-58.3c14.6,10.3-4.2,53.4-7.5,71c-2.7,14.8-8.5,44.9-15.6,58.1
	C319.1,318.8,300.9,347.8,286.1,351.5z"/>
<path id="_x31__x5F_fat" class="st4" d="M288.3,355.3c-16.7,5.1-45.4-27.2-62.3-31.8c-10.3-2.8-35.2,5.2-42.5-2.5
	c-8.4-8.9,1.5-36.8-0.3-48.9c-0.9-6.4-10.8-19.3-7.3-24.7c5.6-8.7,35.2,3.3,41-5.2c2.8-4.1-8.1-15.3-5-19.1
	c2.2-2.7,10.6,0.1,14.1,0.6c3,0.5,8.8,3.4,11.9,3.2c28.3-2.2,76.1-52.4,103.9-46.3c18,3.9,34.2,48.7,30.9,66.8
	c-3.4,18.7-42.5,38.4-54,53.5C309.2,313.3,303.2,350.8,288.3,355.3z"/>
<path id="_x32__x5F_fat" class="st5" d="M288.3,355.3c-16.7,5.1-45.2-27.9-62.3-31.8c-10.9-2.5-36.8,9.2-44.7,1.3
	c-9.3-9.3,2-39.3,1.5-52.5c-0.2-6.3-6.2-20-2.4-24.9c5.7-7.3,31.6,2.5,36.5-5.3c3.2-5.1-9.5-17.3-7.3-22.9
	c1.7-4.3,11.6-8.9,16.3-8.8c4.8,0.1,13.9,5.2,18.7,5c25.8-1.1,75.5-48.9,97-34.8c14,9.1,7.9,50.3,4.6,66.6
	c-3.1,14.8-20.5,40.4-27.6,53.7C311.3,314.7,303.2,350.8,288.3,355.3z"/>
<path id="whole" class="st6" d="M286.1,351.5c-15.7,5.2-44-23.9-60.1-28c-10.3-2.6-35.1,5.1-42.4-2.6c-8.4-8.8-3.9-36.8-0.7-48.6
	c1.9-7.1,9.3-20.7,15.2-25.1c3.9-2.9,16.6-0.7,18.9-5.1c3.3-6.3-10.4-19.7-9.5-26.7c1.1-8.1,10.3-27.7,18.5-27
	c7.7,0.7,13.2,21.1,20.7,23.2c23.1,6.3,72-43,91.3-28.8c13,9.6,2.9,48.7-0.4,64.4c-2.9,13.8-16.4,38.9-22.7,51.5
	C308.2,312.2,300.3,346.8,286.1,351.5z"/>
<circle class="st7" cx="226" cy="247.2" r="1.7"/>
</svg>
