<?xml version="1.0" encoding="utf-8"?>
<!-- Generator: Adobe Illustrator 17.0.0, SVG Export Plug-In . SVG Version: 6.00 Build 0)  -->
<!DOCTYPE svg PUBLIC "-//W3C//DTD SVG 1.1//EN" "http://www.w3.org/Graphics/SVG/1.1/DTD/svg11.dtd">
<svg version="1.1" id="Layer_1" xmlns="http://www.w3.org/2000/svg" xmlns:xlink="http://www.w3.org/1999/xlink" x="0px" y="0px"
	 width="517.092px" height="252.912px" viewBox="0 0 517.092 252.912" enable-background="new 0 0 517.092 252.912"
	 xml:space="preserve">
<g>
	<path d="M77.545,104.776c3.205,0,5.042,1.584,5.042,4.375c0,2.935-1.836,4.627-5.042,4.627h-2.503v3.602h-2.845v-12.604H77.545z
		 M75.042,111.402h2.359c1.584,0,2.485-0.721,2.485-2.161c0-1.404-0.9-2.106-2.485-2.106h-2.359V111.402z"/>
	<path d="M90.145,113.778h-0.27h-2.629v3.602h-2.845v-12.604h5.474c3.295,0,5.167,1.584,5.167,4.375
		c0,1.944-0.828,3.349-2.359,4.069l2.683,4.159h-3.223L90.145,113.778z M89.875,111.402c1.566,0,2.467-0.721,2.467-2.161
		c0-1.404-0.9-2.106-2.467-2.106h-2.629v4.268H89.875z"/>
	<path d="M110.073,111.078c0,3.637-2.917,6.428-6.771,6.428c-3.853,0-6.77-2.772-6.77-6.428c0-3.673,2.917-6.392,6.77-6.392
		C107.156,104.686,110.073,107.423,110.073,111.078z M99.45,111.078c0,2.215,1.782,3.943,3.889,3.943
		c2.107,0,3.817-1.729,3.817-3.943s-1.71-3.907-3.817-3.907C101.214,107.171,99.45,108.863,99.45,111.078z"/>
	<path d="M11.686,128.374l-1.656,2.017c-0.864-0.99-2.107-1.638-3.277-1.638c-2.161,0-3.835,1.674-3.835,3.871
		c0,2.196,1.674,3.889,3.835,3.889c1.135,0,2.377-0.576,3.277-1.477l1.674,1.818c-1.333,1.369-3.259,2.251-5.096,2.251
		c-3.763,0-6.608-2.791-6.608-6.446c0-3.637,2.899-6.373,6.716-6.373C8.535,126.286,10.443,127.095,11.686,128.374z"/>
	<path d="M25.78,132.678c0,3.637-2.917,6.428-6.771,6.428c-3.853,0-6.77-2.772-6.77-6.428c0-3.673,2.917-6.392,6.77-6.392
		C22.863,126.286,25.78,129.022,25.78,132.678z M15.157,132.678c0,2.215,1.782,3.943,3.889,3.943c2.107,0,3.817-1.729,3.817-3.943
		s-1.71-3.907-3.817-3.907C16.921,128.77,15.157,130.463,15.157,132.678z"/>
	<path d="M38.308,138.979l-2.539-8.984l-2.593,8.984h-2.935l-4.159-12.604h3.061l2.647,9.507l2.628-9.507h2.791l2.665,9.507
		l2.629-9.507h2.917l-4.177,12.604H38.308z"/>
	<path d="M52.326,128.14c0.36,0.252,0.541,0.647,0.541,1.098c0,0.828-0.576,1.404-1.369,1.404c-0.72,0-1.35-0.504-1.35-1.386
		c0-0.433,0.144-0.793,0.378-1.135l1.207-1.818h1.351L52.326,128.14z"/>
	<path d="M64.569,127.618l-1.098,2.358c-1.333-0.792-2.917-1.296-3.925-1.296c-0.955,0-1.603,0.342-1.603,1.026
		c0,2.322,6.716,1.026,6.698,5.563c0,2.467-2.143,3.799-4.933,3.799c-2.071,0-4.141-0.792-5.564-1.998l1.135-2.323
		c1.296,1.152,3.133,1.891,4.465,1.891c1.171,0,1.873-0.432,1.873-1.206c0-2.377-6.716-0.99-6.716-5.456
		c0-2.286,1.962-3.727,4.879-3.727C61.544,126.25,63.309,126.79,64.569,127.618z"/>
	<path d="M82.101,138.979v-8.498l-3.349,7.22h-1.854l-3.349-7.22v8.498h-2.575v-12.604h3.187l3.673,7.706l3.655-7.706h3.169v12.604
		H82.101z"/>
	<path d="M87.444,138.979v-12.604h2.845v12.604H87.444z"/>
	<path d="M101.324,136.495v2.484h-8.247v-12.604h2.845v10.119H101.324z"/>
	<path d="M107.677,133.847l-1.818,2.017v3.115h-2.845v-12.604h2.845v5.726l5.239-5.726h3.295l-4.735,5.258l5.06,7.346h-3.421
		L107.677,133.847z"/>
</g>
<g>
	<path d="M385.602,104.776c3.205,0,5.042,1.584,5.042,4.375c0,2.935-1.837,4.627-5.042,4.627H383.1v3.602h-2.846v-12.604H385.602z
		 M383.1,111.402h2.358c1.585,0,2.484-0.721,2.484-2.161c0-1.404-0.899-2.106-2.484-2.106H383.1V111.402z"/>
	<path d="M398.202,113.778h-0.271h-2.629v3.602h-2.845v-12.604h5.474c3.295,0,5.168,1.584,5.168,4.375
		c0,1.944-0.828,3.349-2.359,4.069l2.684,4.159H400.2L398.202,113.778z M397.932,111.402c1.566,0,2.467-0.721,2.467-2.161
		c0-1.404-0.9-2.106-2.467-2.106h-2.629v4.268H397.932z"/>
	<path d="M418.13,111.078c0,3.637-2.917,6.428-6.771,6.428c-3.853,0-6.77-2.772-6.77-6.428c0-3.673,2.917-6.392,6.77-6.392
		C415.213,104.686,418.13,107.423,418.13,111.078z M407.507,111.078c0,2.215,1.782,3.943,3.89,3.943
		c2.105,0,3.816-1.729,3.816-3.943s-1.711-3.907-3.816-3.907C409.271,107.171,407.507,108.863,407.507,111.078z"/>
	<path d="M435.463,117.38v-8.498l-3.349,7.22h-1.854l-3.349-7.22v8.498h-2.575v-12.604h3.188l3.673,7.706l3.655-7.706h3.169v12.604
		H435.463z"/>
	<path d="M440.807,117.38v-12.604h2.844v12.604H440.807z"/>
	<path d="M454.687,114.895v2.484h-8.247v-12.604h2.846v10.119H454.687z"/>
	<path d="M461.039,112.248l-1.818,2.017v3.115h-2.845v-12.604h2.845v5.726l5.239-5.726h3.295l-4.735,5.258l5.06,7.346h-3.421
		L461.039,112.248z"/>
	<path d="M471.73,106.162c0,0.433-0.145,0.793-0.379,1.117l-1.206,1.818h-1.351l0.757-1.818c-0.378-0.271-0.559-0.667-0.559-1.117
		c0-0.81,0.595-1.404,1.387-1.404C471.1,104.758,471.73,105.262,471.73,106.162z"/>
	<path d="M483.217,106.018l-1.099,2.358c-1.333-0.792-2.917-1.296-3.925-1.296c-0.955,0-1.604,0.342-1.604,1.026
		c0,2.322,6.717,1.026,6.698,5.563c0,2.467-2.143,3.799-4.933,3.799c-2.071,0-4.142-0.792-5.564-1.998l1.135-2.323
		c1.296,1.152,3.133,1.891,4.465,1.891c1.171,0,1.873-0.432,1.873-1.206c0-2.377-6.717-0.99-6.717-5.456
		c0-2.286,1.963-3.727,4.88-3.727C480.191,104.65,481.956,105.19,483.217,106.018z"/>
	<path d="M382.739,136.53l-0.99,2.449h-2.935l5.473-12.604h2.936l5.383,12.604h-3.043l-0.99-2.449H382.739z M385.674,129.346
		l-1.998,4.897h3.979L385.674,129.346z"/>
	<path d="M402.162,136.495v2.484h-8.246v-12.604h2.845v10.119H402.162z"/>
	<path d="M409.289,128.788v10.191h-2.845v-10.191h-3.835v-2.412h10.533v2.412H409.289z"/>
	<path d="M417.515,128.734v2.737h6.086v2.358h-6.086v2.791h6.95v2.358h-9.795v-12.604h9.597v2.358H417.515z"/>
	<path d="M432.438,135.378h-0.27h-2.629v3.602h-2.846v-12.604h5.475c3.295,0,5.167,1.584,5.167,4.375
		c0,1.944-0.828,3.349-2.358,4.069l2.683,4.159h-3.224L432.438,135.378z M432.168,133.002c1.566,0,2.467-0.721,2.467-2.161
		c0-1.404-0.9-2.106-2.467-2.106h-2.629v4.268H432.168z"/>
	<path d="M448.549,138.979l-6.104-8.084v8.084h-2.719v-12.604h2.593l6.122,8.103v-8.103h2.7v12.604H448.549z"/>
	<path d="M456.395,136.53l-0.99,2.449h-2.936l5.475-12.604h2.935l5.384,12.604h-3.043l-0.99-2.449H456.395z M459.329,129.346
		l-1.999,4.897h3.979L459.329,129.346z"/>
	<path d="M471.695,128.788v10.191h-2.845v-10.191h-3.835v-2.412h10.533v2.412H471.695z"/>
	<path d="M477.075,138.979v-12.604h2.845v12.604H477.075z"/>
	<path d="M486.274,138.979l-4.952-12.604h3.062l3.438,9.507l3.457-9.507h2.936l-5.006,12.604H486.274z"/>
	<path d="M498.441,128.734v2.737h6.086v2.358h-6.086v2.791h6.951v2.358h-9.795v-12.604h9.596v2.358H498.441z"/>
	<path d="M517.02,127.618l-1.098,2.358c-1.333-0.792-2.917-1.296-3.926-1.296c-0.954,0-1.603,0.342-1.603,1.026
		c0,2.322,6.716,1.026,6.698,5.563c0,2.467-2.143,3.799-4.934,3.799c-2.07,0-4.141-0.792-5.563-1.998l1.134-2.323
		c1.297,1.152,3.134,1.891,4.466,1.891c1.171,0,1.872-0.432,1.872-1.206c0-2.377-6.715-0.99-6.715-5.456
		c0-2.286,1.962-3.727,4.879-3.727C513.995,126.25,515.76,126.79,517.02,127.618z"/>
</g>
<g>
	<g>
		<path d="M154.521,153.297l-0.164-11.342l-2.64,0.038l-0.038-2.66l5.801-0.084l0.202,14.002L154.521,153.297z"/>
		<path d="M160.788,152.225l1.166-2.338c0.848,0.568,1.933,0.873,3.013,0.857c2.401-0.035,3.518-1.632,3.422-4.111
			c-0.665,1.029-1.856,1.667-3.477,1.69c-2.779,0.04-4.526-1.734-4.565-4.454c-0.043-2.961,1.95-4.83,5.05-4.875
			c3.681-0.054,5.979,2.534,6.042,6.834c0.064,4.461-2.374,7.396-6.235,7.453C163.703,153.303,161.958,152.889,160.788,152.225z
			 M167.967,143.72c0.004-1.081-0.771-2.11-2.392-2.087c-1.42,0.021-2.31,0.813-2.289,2.214c0.019,1.301,0.851,2.068,2.271,2.048
			C167.117,145.872,168.004,144.919,167.967,143.72z"/>
	</g>
</g>
<g>
	<g>
		<path d="M167.713,85.612l0.026-11.343l-2.641-0.006l0.006-2.66l5.802,0.013l-0.032,14.003L167.713,85.612z"/>
		<path d="M184.278,75.227c-0.002,1.24-0.725,2.338-1.866,2.916c1.578,0.624,2.576,1.967,2.573,3.567
			c-0.006,2.5-2.211,4.075-5.631,4.067c-3.461-0.008-5.638-1.572-5.633-4.053c0.004-1.621,1.067-2.979,2.749-3.596
			c-1.239-0.643-2.017-1.764-2.014-3.004c0.005-2.241,1.929-3.637,4.909-3.63C182.367,71.502,184.284,72.946,184.278,75.227z
			 M176.724,81.391c-0.003,1.28,0.936,1.982,2.637,1.986c1.66,0.004,2.641-0.694,2.644-1.954c0.003-1.24-0.955-1.942-2.655-1.946
			C177.668,79.473,176.727,80.171,176.724,81.391z M177.117,75.391c-0.002,1.08,0.816,1.702,2.257,1.705
			c1.42,0.003,2.222-0.615,2.224-1.695c0.003-1.101-0.796-1.723-2.216-1.726C177.941,73.672,177.12,74.29,177.117,75.391z"/>
	</g>
</g>
<g>
	<g>
		<path d="M227.538,182.414l0.232-11.34l-2.641-0.054l0.055-2.66l5.801,0.118l-0.287,14L227.538,182.414z"/>
		<path d="M235.616,182.579l0.232-11.34l-2.64-0.054l0.055-2.66l5.801,0.119l-0.287,14L235.616,182.579z"/>
	</g>
</g>
<g>
	<path d="M317.049,31.02l-0.041-3.08l2.94-0.039l0.042,3.08l1.939-0.026l0.035,2.56l-1.94,0.026l0.042,3.161l-2.94,0.039
		l-0.042-3.161l-6.661,0.09l-0.03-2.239l4.426-8.663l3.04-0.04l-4.169,8.338L317.049,31.02z"/>
	<path d="M328.385,36.591l-3.34,0.045l5.008-11.431l-4.381,0.059l0.026,1.96l-2.8,0.037l-0.062-4.601l10.682-0.143l0.03,2.261
		L328.385,36.591z"/>
</g>
<g>
	<g>
		<path d="M311.293,140.717c-0.011,1.501-1.123,3.072-2.654,4.622l-3.124,3.218l6.201,0.045l-0.019,2.641l-10.302-0.074l0.016-2.16
			l5.099-5.324c0.867-0.874,1.475-1.851,1.479-2.531c0.006-0.88-0.671-1.405-1.831-1.413c-1.16-0.009-2.585,0.662-3.833,1.733
			l-1.204-2.369c1.71-1.289,3.576-2.054,5.517-2.04C309.379,137.083,311.309,138.516,311.293,140.717z"/>
		<path d="M315.275,151.267l0.081-11.343l-2.641-0.019l0.02-2.659l5.802,0.042l-0.101,14.002L315.275,151.267z"/>
	</g>
</g>
<g>
	<path d="M61.005,226.505l1.488-0.146v-5.297c-0.078,0.031-0.186,0.065-0.322,0.103s-0.28,0.072-0.431,0.105
		s-0.299,0.062-0.445,0.088s-0.271,0.042-0.372,0.05l-0.146-0.721c0.211-0.047,0.423-0.108,0.636-0.185s0.419-0.163,0.618-0.261
		s0.388-0.203,0.565-0.316s0.339-0.23,0.483-0.352h0.006l0.768,0.123v6.662l1.359,0.146v0.639h-4.207V226.505z"/>
	<path d="M66.589,219.057l-0.844-0.149v-0.683h3.27v0.683l-0.996,0.149v4.412c0,0.558,0.053,1.027,0.158,1.408
		c0.105,0.38,0.255,0.687,0.448,0.92c0.193,0.232,0.425,0.399,0.694,0.502c0.27,0.102,0.568,0.152,0.896,0.152
		c0.352,0,0.658-0.065,0.92-0.196s0.48-0.321,0.656-0.571c0.176-0.249,0.308-0.555,0.396-0.917c0.088-0.361,0.132-0.772,0.132-1.234
		v-4.476l-0.967-0.149v-0.683h2.807v0.683l-0.867,0.149v4.424c0,0.636-0.082,1.185-0.246,1.646s-0.391,0.844-0.68,1.144
		c-0.289,0.301-0.631,0.521-1.025,0.664s-0.822,0.214-1.283,0.214c-0.605,0-1.127-0.075-1.564-0.226
		c-0.438-0.149-0.797-0.38-1.078-0.689c-0.281-0.311-0.489-0.705-0.624-1.185s-0.202-1.048-0.202-1.706V219.057z"/>
	<path d="M79.175,221.46h5.402v0.932h-5.402V221.46z M79.175,224.682h5.402v0.932h-5.402V224.682z"/>
	<path d="M90.091,226.505l1.488-0.146v-5.297c-0.078,0.031-0.186,0.065-0.322,0.103s-0.28,0.072-0.431,0.105
		s-0.299,0.062-0.445,0.088s-0.271,0.042-0.372,0.05l-0.146-0.721c0.211-0.047,0.423-0.108,0.636-0.185s0.419-0.163,0.618-0.261
		s0.388-0.203,0.565-0.316s0.339-0.23,0.483-0.352h0.006l0.768,0.123v6.662l1.359,0.146v0.639h-4.207V226.505z"/>
	<path d="M98.769,226.505l0.984-0.129v-7.308l-0.926-0.149v-0.693h1.611c0.16,0,0.315,0,0.466,0s0.3,0,0.448,0s0.299,0,0.451,0
		s0.312,0,0.48,0c0.598,0,1.104,0.048,1.518,0.144c0.414,0.097,0.749,0.24,1.005,0.432c0.256,0.192,0.441,0.433,0.557,0.723
		c0.115,0.289,0.173,0.628,0.173,1.015c0,0.265-0.038,0.526-0.114,0.783s-0.189,0.495-0.34,0.716s-0.334,0.415-0.551,0.584
		s-0.466,0.296-0.747,0.38c0.168,0.098,0.331,0.245,0.489,0.442s0.311,0.416,0.457,0.656s0.286,0.489,0.419,0.747
		s0.261,0.495,0.384,0.712s0.24,0.4,0.352,0.551s0.218,0.237,0.319,0.261l0.457,0.141v0.633h-1.734
		c-0.078,0-0.159-0.049-0.243-0.146s-0.172-0.229-0.264-0.391s-0.187-0.349-0.284-0.561c-0.098-0.211-0.197-0.43-0.299-0.657
		c-0.102-0.227-0.205-0.454-0.311-0.684c-0.105-0.229-0.213-0.44-0.322-0.637c-0.109-0.195-0.22-0.366-0.331-0.513
		c-0.111-0.147-0.222-0.254-0.331-0.32c-0.113,0-0.242,0-0.387,0s-0.286,0-0.425,0s-0.264,0-0.375,0s-0.188-0.002-0.231-0.006v3.146
		l1.154,0.129v0.639h-3.51V226.505z M101.124,222.544c0.066,0,0.16,0,0.281,0s0.248,0,0.381,0s0.26,0,0.381,0s0.215,0,0.281,0
		c0.246,0,0.467-0.039,0.662-0.118s0.362-0.197,0.501-0.354c0.139-0.158,0.245-0.357,0.319-0.6s0.111-0.529,0.111-0.859
		c0-0.254-0.029-0.486-0.088-0.698s-0.161-0.394-0.308-0.548c-0.146-0.153-0.343-0.273-0.589-0.36s-0.555-0.13-0.926-0.13
		c-0.145,0-0.27,0-0.375,0s-0.197,0.004-0.275,0.012s-0.146,0.016-0.202,0.023s-0.108,0.014-0.155,0.018V222.544z"/>
	<path d="M107.142,223.821c0-0.501,0.078-0.957,0.234-1.367c0.156-0.411,0.374-0.764,0.653-1.057s0.611-0.521,0.996-0.681
		c0.385-0.161,0.806-0.241,1.263-0.241c0.75,0,1.33,0.186,1.74,0.557c0.41,0.372,0.629,0.914,0.656,1.628
		c0.004,0.229,0.001,0.429-0.009,0.6c-0.01,0.172-0.03,0.321-0.062,0.45h-4.061c0.012,0.445,0.073,0.828,0.185,1.148
		s0.256,0.583,0.434,0.788s0.385,0.356,0.621,0.454s0.487,0.146,0.753,0.146c0.168,0,0.338-0.016,0.51-0.047
		s0.337-0.073,0.495-0.126s0.305-0.111,0.439-0.176s0.247-0.132,0.337-0.202l0.246,0.562c-0.109,0.113-0.252,0.224-0.428,0.331
		s-0.37,0.202-0.583,0.284s-0.44,0.148-0.683,0.199s-0.486,0.076-0.732,0.076c-0.504,0-0.944-0.081-1.321-0.244
		c-0.377-0.162-0.69-0.391-0.94-0.686c-0.25-0.296-0.437-0.646-0.56-1.054S107.142,224.31,107.142,223.821z M111.278,223.03
		c0.008-0.067,0.014-0.14,0.018-0.219s0.006-0.15,0.006-0.214c0-0.194-0.023-0.377-0.07-0.548s-0.12-0.321-0.22-0.45
		s-0.229-0.23-0.39-0.305c-0.16-0.073-0.357-0.11-0.592-0.11c-0.199,0-0.385,0.029-0.557,0.088s-0.323,0.159-0.454,0.302
		s-0.236,0.332-0.316,0.568s-0.13,0.532-0.149,0.888H111.278z"/>
	<path d="M113.856,225.177h0.826l0.234,0.848c0.035,0.056,0.096,0.111,0.182,0.167c0.086,0.057,0.188,0.106,0.305,0.151
		c0.117,0.044,0.247,0.079,0.39,0.105s0.288,0.039,0.437,0.039c0.234,0,0.431-0.022,0.589-0.067s0.284-0.107,0.378-0.188
		c0.094-0.081,0.16-0.175,0.199-0.283s0.059-0.227,0.059-0.354c0-0.149-0.037-0.283-0.111-0.401
		c-0.074-0.117-0.186-0.229-0.334-0.336s-0.333-0.211-0.554-0.314c-0.221-0.103-0.479-0.21-0.776-0.322
		c-0.301-0.112-0.563-0.233-0.788-0.364s-0.411-0.278-0.56-0.443c-0.148-0.164-0.259-0.348-0.331-0.55
		c-0.072-0.201-0.108-0.432-0.108-0.689s0.062-0.49,0.185-0.698c0.123-0.207,0.294-0.386,0.513-0.535s0.478-0.265,0.776-0.346
		c0.299-0.08,0.624-0.12,0.976-0.12c0.254,0,0.486,0.016,0.697,0.047c0.211,0.032,0.398,0.068,0.562,0.109
		c0.164,0.042,0.307,0.083,0.428,0.124c0.121,0.042,0.221,0.072,0.299,0.092v1.424h-0.75l-0.252-0.782
		c-0.023-0.044-0.066-0.088-0.129-0.131s-0.14-0.081-0.231-0.115c-0.092-0.033-0.195-0.061-0.311-0.08
		c-0.115-0.021-0.235-0.031-0.36-0.031c-0.191,0-0.359,0.02-0.504,0.059s-0.266,0.094-0.363,0.163
		c-0.098,0.068-0.171,0.153-0.22,0.252s-0.073,0.206-0.073,0.322c0,0.187,0.044,0.343,0.132,0.468s0.204,0.235,0.349,0.33
		c0.145,0.096,0.31,0.181,0.495,0.255c0.186,0.075,0.378,0.153,0.577,0.235c0.262,0.108,0.517,0.223,0.765,0.342
		c0.248,0.12,0.467,0.258,0.656,0.415s0.342,0.339,0.457,0.546c0.115,0.208,0.173,0.457,0.173,0.748c0,0.28-0.059,0.536-0.176,0.768
		c-0.117,0.232-0.286,0.431-0.507,0.597c-0.221,0.167-0.49,0.294-0.809,0.384s-0.681,0.135-1.087,0.135
		c-0.223,0-0.449-0.018-0.68-0.053s-0.449-0.079-0.656-0.132s-0.395-0.107-0.562-0.164s-0.303-0.108-0.404-0.155V225.177z"/>
	<path d="M120.401,221.161l-0.65-0.217v-0.568l1.734-0.176h0.006l0.246,0.158v4.137c0,0.32,0.017,0.593,0.05,0.817
		s0.094,0.407,0.182,0.548s0.208,0.242,0.36,0.305s0.348,0.094,0.586,0.094c0.172,0,0.335-0.02,0.489-0.059s0.296-0.088,0.425-0.146
		s0.246-0.121,0.352-0.188s0.193-0.129,0.264-0.188v-4.512l-0.838-0.229v-0.568l1.852-0.17h0.012l0.311,0.158v5.994h0.703v0.586
		c-0.137,0.043-0.303,0.089-0.498,0.138s-0.416,0.073-0.662,0.073c-0.242,0-0.425-0.046-0.548-0.138s-0.185-0.255-0.185-0.489
		v-0.305c-0.105,0.105-0.235,0.213-0.39,0.322s-0.323,0.209-0.507,0.299s-0.379,0.164-0.586,0.223s-0.416,0.088-0.627,0.088
		c-0.363,0-0.676-0.048-0.938-0.144s-0.478-0.247-0.647-0.454s-0.295-0.475-0.375-0.803s-0.12-0.725-0.12-1.189V221.161z"/>
	<path d="M127.356,226.505l0.949-0.1v-8.174l-0.961-0.117v-0.557l1.998-0.252h0.012l0.287,0.199v8.9l0.996,0.1v0.639h-3.281V226.505
		z"/>
	<path d="M132.19,221.319h-0.838v-0.557c0.051-0.013,0.108-0.03,0.173-0.053c0.064-0.023,0.129-0.046,0.193-0.068
		c0.064-0.023,0.123-0.046,0.176-0.068c0.053-0.023,0.091-0.043,0.114-0.06c0.066-0.05,0.125-0.113,0.176-0.189
		c0.051-0.077,0.098-0.176,0.141-0.296c0.031-0.074,0.068-0.175,0.111-0.302c0.043-0.126,0.085-0.257,0.126-0.392
		s0.079-0.265,0.114-0.39c0.035-0.124,0.061-0.222,0.076-0.292h0.762l0.012,1.828h1.969v0.838h-1.963v3.472
		c0,0.329,0.006,0.587,0.018,0.774s0.04,0.327,0.085,0.419s0.112,0.149,0.202,0.172c0.09,0.023,0.211,0.035,0.363,0.035h0.006
		c0.109,0,0.228-0.008,0.354-0.023c0.127-0.015,0.249-0.033,0.366-0.057c0.117-0.022,0.226-0.047,0.325-0.073
		s0.179-0.052,0.237-0.074h0.006l0.199,0.562c-0.09,0.071-0.213,0.145-0.369,0.218c-0.156,0.074-0.328,0.141-0.516,0.199
		s-0.381,0.107-0.58,0.147s-0.387,0.06-0.562,0.06h-0.012c-0.23,0-0.437-0.022-0.618-0.068s-0.335-0.123-0.46-0.23
		c-0.125-0.106-0.221-0.247-0.287-0.421c-0.066-0.175-0.1-0.388-0.1-0.641V221.319z"/>
	<path d="M136.544,225.177h0.826l0.234,0.848c0.035,0.056,0.096,0.111,0.182,0.167c0.086,0.057,0.188,0.106,0.305,0.151
		c0.117,0.044,0.247,0.079,0.39,0.105s0.288,0.039,0.437,0.039c0.234,0,0.431-0.022,0.589-0.067s0.284-0.107,0.378-0.188
		c0.094-0.081,0.16-0.175,0.199-0.283s0.059-0.227,0.059-0.354c0-0.149-0.037-0.283-0.111-0.401
		c-0.074-0.117-0.186-0.229-0.334-0.336s-0.333-0.211-0.554-0.314c-0.221-0.103-0.479-0.21-0.776-0.322
		c-0.301-0.112-0.563-0.233-0.788-0.364s-0.411-0.278-0.56-0.443c-0.148-0.164-0.259-0.348-0.331-0.55
		c-0.072-0.201-0.108-0.432-0.108-0.689s0.062-0.49,0.185-0.698c0.123-0.207,0.294-0.386,0.513-0.535s0.478-0.265,0.776-0.346
		c0.299-0.08,0.624-0.12,0.976-0.12c0.254,0,0.486,0.016,0.697,0.047c0.211,0.032,0.398,0.068,0.562,0.109
		c0.164,0.042,0.307,0.083,0.428,0.124c0.121,0.042,0.221,0.072,0.299,0.092v1.424h-0.75l-0.252-0.782
		c-0.023-0.044-0.066-0.088-0.129-0.131s-0.14-0.081-0.231-0.115c-0.092-0.033-0.195-0.061-0.311-0.08
		c-0.115-0.021-0.235-0.031-0.36-0.031c-0.191,0-0.359,0.02-0.504,0.059s-0.266,0.094-0.363,0.163
		c-0.098,0.068-0.171,0.153-0.22,0.252s-0.073,0.206-0.073,0.322c0,0.187,0.044,0.343,0.132,0.468s0.204,0.235,0.349,0.33
		c0.145,0.096,0.31,0.181,0.495,0.255c0.186,0.075,0.378,0.153,0.577,0.235c0.262,0.108,0.517,0.223,0.765,0.342
		c0.248,0.12,0.467,0.258,0.656,0.415s0.342,0.339,0.457,0.546c0.115,0.208,0.173,0.457,0.173,0.748c0,0.28-0.059,0.536-0.176,0.768
		c-0.117,0.232-0.286,0.431-0.507,0.597c-0.221,0.167-0.49,0.294-0.809,0.384s-0.681,0.135-1.087,0.135
		c-0.223,0-0.449-0.018-0.68-0.053s-0.449-0.079-0.656-0.132s-0.395-0.107-0.562-0.164s-0.303-0.108-0.404-0.155V225.177z"/>
	<path d="M146.03,223.809c0-0.534,0.091-1.009,0.272-1.423c0.182-0.415,0.421-0.764,0.718-1.046
		c0.297-0.281,0.636-0.496,1.017-0.644s0.771-0.222,1.169-0.222c0.527,0,0.982,0.086,1.365,0.258s0.697,0.407,0.943,0.706
		s0.429,0.651,0.548,1.06c0.119,0.406,0.179,0.846,0.179,1.316c0,0.542-0.09,1.02-0.27,1.435c-0.18,0.414-0.418,0.763-0.715,1.045
		s-0.637,0.495-1.02,0.639s-0.775,0.216-1.178,0.216c-0.527,0-0.981-0.086-1.362-0.258s-0.694-0.407-0.94-0.706
		s-0.429-0.651-0.548-1.059S146.03,224.28,146.03,223.809z M149.136,226.423c1.082,0,1.623-0.836,1.623-2.508
		c0-0.388-0.029-0.747-0.088-1.077s-0.152-0.617-0.281-0.86c-0.129-0.244-0.296-0.434-0.501-0.57s-0.456-0.205-0.753-0.205
		c-0.535,0-0.94,0.209-1.216,0.626s-0.413,1.044-0.413,1.882c0,0.388,0.03,0.747,0.091,1.08c0.061,0.332,0.155,0.619,0.284,0.86
		c0.129,0.242,0.297,0.431,0.504,0.567S148.843,226.423,149.136,226.423z"/>
	<path d="M153.226,226.511l0.99-0.111v-5.074h-1.119v-0.58l1.119-0.264v-0.523c0-0.36,0.08-0.697,0.24-1.01s0.372-0.584,0.636-0.816
		c0.264-0.231,0.562-0.413,0.896-0.546c0.334-0.132,0.675-0.198,1.022-0.198c0.195,0,0.345,0.011,0.448,0.032
		s0.188,0.042,0.255,0.062v1.296c-0.031-0.026-0.082-0.056-0.152-0.089s-0.154-0.064-0.252-0.094
		c-0.098-0.03-0.209-0.055-0.334-0.075s-0.258-0.03-0.398-0.03c-0.191,0-0.353,0.016-0.483,0.048s-0.236,0.089-0.316,0.169
		s-0.138,0.188-0.173,0.325c-0.035,0.138-0.053,0.312-0.053,0.526l0.006,0.924h1.611v0.844h-1.611v5.08l1.271,0.105v0.633h-3.604
		V226.511z"/>
	<path d="M60.823,237.199c0-0.724,0.117-1.369,0.352-1.935c0.234-0.566,0.557-1.046,0.967-1.438s0.894-0.691,1.45-0.897
		s1.155-0.309,1.796-0.309c0.312,0,0.615,0.015,0.908,0.044s0.563,0.064,0.812,0.105s0.466,0.083,0.653,0.126s0.334,0.076,0.439,0.1
		l-0.117,1.977h-0.902l-0.316-1.308c-0.035-0.033-0.089-0.07-0.161-0.113c-0.072-0.042-0.17-0.08-0.293-0.115
		s-0.276-0.065-0.46-0.091c-0.184-0.026-0.402-0.039-0.656-0.039c-0.422,0-0.81,0.075-1.163,0.225
		c-0.354,0.15-0.658,0.375-0.914,0.675s-0.455,0.674-0.598,1.121s-0.214,0.97-0.214,1.565c0,0.341,0.024,0.675,0.073,1.001
		c0.049,0.327,0.124,0.637,0.226,0.931s0.229,0.565,0.381,0.814c0.152,0.248,0.333,0.463,0.542,0.643
		c0.209,0.181,0.445,0.321,0.709,0.422s0.558,0.15,0.882,0.15c0.164,0,0.329-0.01,0.495-0.029s0.324-0.05,0.475-0.091
		s0.288-0.093,0.413-0.155s0.232-0.137,0.322-0.223v-2.566l-1.436-0.135v-0.756h3.498v0.756l-0.686,0.123v3.164
		c-0.152,0-0.331,0.032-0.536,0.098s-0.439,0.136-0.703,0.213s-0.558,0.146-0.882,0.207c-0.324,0.062-0.684,0.092-1.078,0.092
		c-0.676,0-1.278-0.11-1.808-0.331c-0.529-0.222-0.978-0.526-1.345-0.915s-0.646-0.849-0.838-1.378S60.823,237.82,60.823,237.199z"
		/>
	<path d="M69.694,238.21c0-0.534,0.091-1.009,0.272-1.423c0.182-0.415,0.421-0.764,0.718-1.046c0.297-0.281,0.636-0.496,1.017-0.644
		s0.771-0.222,1.169-0.222c0.527,0,0.982,0.086,1.365,0.258s0.697,0.407,0.943,0.706s0.429,0.651,0.548,1.06
		c0.119,0.406,0.179,0.846,0.179,1.316c0,0.542-0.09,1.02-0.27,1.435c-0.18,0.414-0.418,0.763-0.715,1.045s-0.637,0.495-1.02,0.639
		s-0.775,0.216-1.178,0.216c-0.527,0-0.981-0.086-1.362-0.258s-0.694-0.407-0.94-0.706s-0.429-0.651-0.548-1.059
		S69.694,238.68,69.694,238.21z M72.8,240.823c1.082,0,1.623-0.836,1.623-2.508c0-0.388-0.029-0.747-0.088-1.077
		s-0.152-0.617-0.281-0.86c-0.129-0.244-0.296-0.434-0.501-0.57s-0.456-0.205-0.753-0.205c-0.535,0-0.94,0.209-1.216,0.626
		s-0.413,1.044-0.413,1.882c0,0.388,0.03,0.747,0.091,1.08c0.061,0.332,0.155,0.619,0.284,0.86c0.129,0.242,0.297,0.431,0.504,0.567
		S72.507,240.823,72.8,240.823z"/>
	<path d="M76.831,238.21c0-0.534,0.091-1.009,0.272-1.423c0.182-0.415,0.421-0.764,0.718-1.046c0.297-0.281,0.636-0.496,1.017-0.644
		s0.771-0.222,1.169-0.222c0.527,0,0.982,0.086,1.365,0.258s0.697,0.407,0.943,0.706s0.429,0.651,0.548,1.06
		c0.119,0.406,0.179,0.846,0.179,1.316c0,0.542-0.09,1.02-0.27,1.435c-0.18,0.414-0.418,0.763-0.715,1.045s-0.637,0.495-1.02,0.639
		s-0.775,0.216-1.178,0.216c-0.527,0-0.981-0.086-1.362-0.258s-0.694-0.407-0.94-0.706s-0.429-0.651-0.548-1.059
		S76.831,238.68,76.831,238.21z M79.937,240.823c1.082,0,1.623-0.836,1.623-2.508c0-0.388-0.029-0.747-0.088-1.077
		s-0.152-0.617-0.281-0.86c-0.129-0.244-0.296-0.434-0.501-0.57s-0.456-0.205-0.753-0.205c-0.535,0-0.94,0.209-1.216,0.626
		s-0.413,1.044-0.413,1.882c0,0.388,0.03,0.747,0.091,1.08c0.061,0.332,0.155,0.619,0.284,0.86c0.129,0.242,0.297,0.431,0.504,0.567
		S79.644,240.823,79.937,240.823z"/>
	<path d="M84.044,242.921c0-0.191,0.031-0.373,0.094-0.545s0.145-0.329,0.246-0.472s0.218-0.268,0.349-0.375
		s0.265-0.196,0.401-0.267c-0.184-0.102-0.324-0.232-0.422-0.393s-0.146-0.357-0.146-0.592c0-0.152,0.022-0.298,0.067-0.437
		s0.108-0.268,0.19-0.387s0.179-0.229,0.29-0.328s0.233-0.187,0.366-0.261c-0.391-0.171-0.69-0.411-0.899-0.722
		s-0.313-0.679-0.313-1.106c0-0.342,0.079-0.646,0.237-0.914s0.367-0.493,0.627-0.677s0.557-0.325,0.891-0.424
		s0.679-0.147,1.034-0.147h0.006c0.418,0,0.795,0.047,1.131,0.141s0.621,0.236,0.855,0.428c0.039-0.046,0.099-0.102,0.179-0.166
		c0.08-0.065,0.177-0.128,0.29-0.188c0.113-0.059,0.244-0.109,0.393-0.151s0.312-0.063,0.492-0.063h0.316v1.125h-1.23
		c0.066,0.128,0.117,0.265,0.152,0.41c0.035,0.145,0.053,0.303,0.053,0.476c0,0.337-0.07,0.645-0.211,0.921
		c-0.141,0.277-0.336,0.515-0.586,0.713c-0.25,0.197-0.544,0.351-0.882,0.459s-0.704,0.162-1.099,0.162h-0.006
		c-0.32,0-0.619-0.033-0.896-0.1c-0.105,0.094-0.19,0.204-0.255,0.331s-0.097,0.259-0.097,0.396c0,0.148,0.026,0.27,0.079,0.363
		s0.133,0.167,0.24,0.22s0.244,0.089,0.41,0.108s0.362,0.029,0.589,0.029h1.277c0.785,0,1.363,0.148,1.734,0.445
		s0.557,0.734,0.557,1.312c0,0.23-0.043,0.453-0.129,0.668s-0.207,0.414-0.363,0.598s-0.343,0.352-0.56,0.504
		s-0.455,0.283-0.715,0.393s-0.537,0.193-0.832,0.252s-0.599,0.088-0.911,0.088h-0.006c-0.547,0-1.01-0.044-1.389-0.132
		s-0.688-0.211-0.926-0.369s-0.41-0.35-0.516-0.574S84.044,243.198,84.044,242.921z M85.356,242.575
		c0,0.227,0.031,0.428,0.094,0.604s0.164,0.325,0.305,0.448s0.324,0.217,0.551,0.281s0.504,0.097,0.832,0.097h0.012
		c0.254,0,0.506-0.03,0.756-0.091s0.474-0.15,0.671-0.27s0.356-0.267,0.478-0.442s0.182-0.381,0.182-0.615
		c0-0.176-0.019-0.329-0.056-0.46s-0.107-0.239-0.211-0.325s-0.248-0.15-0.434-0.193s-0.425-0.064-0.718-0.064H86.64
		c-0.172,0-0.333-0.007-0.483-0.021s-0.292-0.032-0.425-0.056c-0.102,0.125-0.189,0.277-0.264,0.457S85.356,242.321,85.356,242.575z
		 M87.044,238.444c0.23,0,0.426-0.033,0.586-0.099s0.291-0.161,0.393-0.287s0.176-0.279,0.223-0.459
		c0.047-0.181,0.07-0.386,0.07-0.616c0-0.495-0.109-0.856-0.328-1.083c-0.219-0.226-0.553-0.339-1.002-0.339h-0.006
		c-0.199,0-0.38,0.023-0.542,0.071c-0.162,0.047-0.302,0.124-0.419,0.229s-0.208,0.246-0.272,0.421
		c-0.064,0.176-0.097,0.391-0.097,0.646c0,0.212,0.024,0.41,0.073,0.594c0.049,0.185,0.127,0.345,0.234,0.481
		s0.25,0.244,0.428,0.323c0.178,0.078,0.396,0.117,0.653,0.117H87.044z"/>
	<path d="M91.274,240.905l0.949-0.1v-8.174l-0.961-0.117v-0.557l1.998-0.252h0.012l0.287,0.199v8.9l0.996,0.1v0.639h-3.281V240.905z
		"/>
	<path d="M95.376,238.221c0-0.501,0.078-0.957,0.234-1.367c0.156-0.411,0.374-0.764,0.653-1.057s0.611-0.521,0.996-0.681
		c0.385-0.161,0.806-0.241,1.263-0.241c0.75,0,1.33,0.186,1.74,0.557c0.41,0.372,0.629,0.914,0.656,1.628
		c0.004,0.229,0.001,0.429-0.009,0.6c-0.01,0.172-0.03,0.321-0.062,0.45h-4.061c0.012,0.445,0.073,0.828,0.185,1.148
		s0.256,0.583,0.434,0.788s0.385,0.356,0.621,0.454s0.487,0.146,0.753,0.146c0.168,0,0.338-0.016,0.51-0.047
		s0.337-0.073,0.495-0.126s0.305-0.111,0.439-0.176s0.247-0.132,0.337-0.202l0.246,0.562c-0.109,0.113-0.252,0.224-0.428,0.331
		s-0.37,0.202-0.583,0.284s-0.44,0.148-0.683,0.199s-0.486,0.076-0.732,0.076c-0.504,0-0.944-0.081-1.321-0.244
		c-0.377-0.162-0.69-0.391-0.94-0.686c-0.25-0.296-0.437-0.646-0.56-1.054S95.376,238.711,95.376,238.221z M99.513,237.43
		c0.008-0.067,0.014-0.14,0.018-0.219s0.006-0.15,0.006-0.214c0-0.194-0.023-0.377-0.07-0.548s-0.12-0.321-0.22-0.45
		s-0.229-0.23-0.39-0.305c-0.16-0.073-0.357-0.11-0.592-0.11c-0.199,0-0.385,0.029-0.557,0.088s-0.323,0.159-0.454,0.302
		s-0.236,0.332-0.316,0.568s-0.13,0.532-0.149,0.888H99.513z"/>
	<path d="M105.466,238.21c0-0.534,0.091-1.009,0.272-1.423c0.182-0.415,0.421-0.764,0.718-1.046
		c0.297-0.281,0.636-0.496,1.017-0.644s0.771-0.222,1.169-0.222c0.527,0,0.982,0.086,1.365,0.258s0.697,0.407,0.943,0.706
		s0.429,0.651,0.548,1.06c0.119,0.406,0.179,0.846,0.179,1.316c0,0.542-0.09,1.02-0.27,1.435c-0.18,0.414-0.418,0.763-0.715,1.045
		s-0.637,0.495-1.02,0.639s-0.775,0.216-1.178,0.216c-0.527,0-0.981-0.086-1.362-0.258s-0.694-0.407-0.94-0.706
		s-0.429-0.651-0.548-1.059S105.466,238.68,105.466,238.21z M108.571,240.823c1.082,0,1.623-0.836,1.623-2.508
		c0-0.388-0.029-0.747-0.088-1.077s-0.152-0.617-0.281-0.86c-0.129-0.244-0.296-0.434-0.501-0.57s-0.456-0.205-0.753-0.205
		c-0.535,0-0.94,0.209-1.216,0.626s-0.413,1.044-0.413,1.882c0,0.388,0.03,0.747,0.091,1.08c0.061,0.332,0.155,0.619,0.284,0.86
		c0.129,0.242,0.297,0.431,0.504,0.567S108.278,240.823,108.571,240.823z"/>
	<path d="M112.685,240.911l0.92-0.092v-4.748l-0.832-0.234v-0.703l1.676-0.234h0.029l0.281,0.229v0.385l-0.012,0.795h0.012
		c0.02-0.041,0.06-0.104,0.12-0.191s0.139-0.183,0.234-0.288s0.208-0.214,0.337-0.327s0.272-0.217,0.431-0.31
		s0.329-0.169,0.513-0.228s0.381-0.088,0.592-0.088c0.09,0,0.166,0.006,0.229,0.019c0.062,0.012,0.115,0.027,0.158,0.048v1.482
		c-0.066-0.051-0.16-0.096-0.281-0.136c-0.121-0.039-0.258-0.06-0.41-0.06c-0.219,0-0.417,0.016-0.595,0.046
		c-0.178,0.031-0.338,0.072-0.48,0.124c-0.143,0.051-0.269,0.108-0.378,0.172c-0.109,0.064-0.205,0.127-0.287,0.188v4.104h1.541
		v0.68h-3.797V240.911z"/>
	<path d="M123.226,240.905l1.283-0.141v-2.689l-2.648-4.641l-0.75-0.158v-0.65h3.211v0.65l-0.908,0.152l1.652,3.182l0.334,0.85
		l0.381-0.838l1.57-3.199l-0.949-0.146v-0.65h2.771v0.65l-0.779,0.146l-2.461,4.623v2.725l1.312,0.135v0.639h-4.02V240.905z"/>
	<path d="M129.454,238.21c0-0.534,0.091-1.009,0.272-1.423c0.182-0.415,0.421-0.764,0.718-1.046
		c0.297-0.281,0.636-0.496,1.017-0.644s0.771-0.222,1.169-0.222c0.527,0,0.982,0.086,1.365,0.258s0.697,0.407,0.943,0.706
		s0.429,0.651,0.548,1.06c0.119,0.406,0.179,0.846,0.179,1.316c0,0.542-0.09,1.02-0.27,1.435c-0.18,0.414-0.418,0.763-0.715,1.045
		s-0.637,0.495-1.02,0.639s-0.775,0.216-1.178,0.216c-0.527,0-0.981-0.086-1.362-0.258s-0.694-0.407-0.94-0.706
		s-0.429-0.651-0.548-1.059S129.454,238.68,129.454,238.21z M132.56,240.823c1.082,0,1.623-0.836,1.623-2.508
		c0-0.388-0.029-0.747-0.088-1.077s-0.152-0.617-0.281-0.86c-0.129-0.244-0.296-0.434-0.501-0.57s-0.456-0.205-0.753-0.205
		c-0.535,0-0.94,0.209-1.216,0.626s-0.413,1.044-0.413,1.882c0,0.388,0.03,0.747,0.091,1.08c0.061,0.332,0.155,0.619,0.284,0.86
		c0.129,0.242,0.297,0.431,0.504,0.567S132.267,240.823,132.56,240.823z"/>
	<path d="M137.259,235.561l-0.65-0.217v-0.568l1.734-0.176h0.006l0.246,0.158v4.137c0,0.32,0.017,0.593,0.05,0.817
		s0.094,0.407,0.182,0.548s0.208,0.242,0.36,0.305s0.348,0.094,0.586,0.094c0.172,0,0.335-0.02,0.489-0.059s0.296-0.088,0.425-0.146
		s0.246-0.121,0.352-0.188s0.193-0.129,0.264-0.188v-4.512l-0.838-0.229v-0.568l1.852-0.17h0.012l0.311,0.158v5.994h0.703v0.586
		c-0.137,0.043-0.303,0.089-0.498,0.138s-0.416,0.073-0.662,0.073c-0.242,0-0.425-0.046-0.548-0.138s-0.185-0.255-0.185-0.489
		v-0.305c-0.105,0.105-0.235,0.213-0.39,0.322s-0.323,0.209-0.507,0.299s-0.379,0.164-0.586,0.223s-0.416,0.088-0.627,0.088
		c-0.363,0-0.676-0.048-0.938-0.144s-0.478-0.247-0.647-0.454s-0.295-0.475-0.375-0.803s-0.12-0.725-0.12-1.189V235.561z"/>
	<path d="M145.017,235.72h-0.838v-0.557c0.051-0.013,0.108-0.03,0.173-0.053c0.064-0.023,0.129-0.046,0.193-0.068
		c0.064-0.023,0.123-0.046,0.176-0.068c0.053-0.023,0.091-0.043,0.114-0.06c0.066-0.05,0.125-0.113,0.176-0.189
		c0.051-0.077,0.098-0.176,0.141-0.296c0.031-0.074,0.068-0.175,0.111-0.302c0.043-0.126,0.085-0.257,0.126-0.392
		s0.079-0.265,0.114-0.39c0.035-0.124,0.061-0.222,0.076-0.292h0.762l0.012,1.828h1.969v0.838h-1.963v3.472
		c0,0.329,0.006,0.587,0.018,0.774s0.04,0.327,0.085,0.419s0.112,0.149,0.202,0.172c0.09,0.023,0.211,0.035,0.363,0.035h0.006
		c0.109,0,0.228-0.008,0.354-0.023c0.127-0.015,0.249-0.033,0.366-0.057c0.117-0.022,0.226-0.047,0.325-0.073
		s0.179-0.052,0.237-0.074h0.006l0.199,0.562c-0.09,0.071-0.213,0.145-0.369,0.218c-0.156,0.074-0.328,0.141-0.516,0.199
		s-0.381,0.107-0.58,0.147s-0.387,0.06-0.562,0.06h-0.012c-0.23,0-0.437-0.022-0.618-0.068s-0.335-0.123-0.46-0.23
		c-0.125-0.106-0.221-0.247-0.287-0.421c-0.066-0.175-0.1-0.388-0.1-0.641V235.72z"/>
	<path d="M149.804,235.561l-0.65-0.217v-0.568l1.734-0.176h0.006l0.246,0.158v4.137c0,0.32,0.017,0.593,0.05,0.817
		s0.094,0.407,0.182,0.548s0.208,0.242,0.36,0.305s0.348,0.094,0.586,0.094c0.172,0,0.335-0.02,0.489-0.059s0.296-0.088,0.425-0.146
		s0.246-0.121,0.352-0.188s0.193-0.129,0.264-0.188v-4.512l-0.838-0.229v-0.568l1.852-0.17h0.012l0.311,0.158v5.994h0.703v0.586
		c-0.137,0.043-0.303,0.089-0.498,0.138s-0.416,0.073-0.662,0.073c-0.242,0-0.425-0.046-0.548-0.138s-0.185-0.255-0.185-0.489
		v-0.305c-0.105,0.105-0.235,0.213-0.39,0.322s-0.323,0.209-0.507,0.299s-0.379,0.164-0.586,0.223s-0.416,0.088-0.627,0.088
		c-0.363,0-0.676-0.048-0.938-0.144s-0.478-0.247-0.647-0.454s-0.295-0.475-0.375-0.803s-0.12-0.725-0.12-1.189V235.561z"/>
	<path d="M157.269,232.802l-0.967-0.117v-0.551l1.975-0.252h0.029l0.293,0.199v3.58c0.098-0.098,0.212-0.193,0.343-0.287
		s0.275-0.178,0.434-0.252s0.33-0.134,0.516-0.179s0.386-0.067,0.601-0.067c0.34,0,0.667,0.059,0.981,0.177
		c0.314,0.117,0.593,0.303,0.835,0.555s0.436,0.576,0.58,0.972c0.145,0.396,0.217,0.873,0.217,1.43c0,0.492-0.08,0.954-0.24,1.384
		s-0.39,0.804-0.688,1.123s-0.662,0.572-1.09,0.757s-0.911,0.277-1.45,0.277c-0.305,0-0.593-0.017-0.864-0.05
		s-0.512-0.074-0.721-0.123s-0.382-0.1-0.519-0.152s-0.225-0.099-0.264-0.138V232.802z M158.599,240.518
		c0.027,0.059,0.076,0.11,0.146,0.154s0.155,0.081,0.255,0.112s0.212,0.054,0.337,0.069c0.125,0.014,0.254,0.021,0.387,0.021
		c0.277,0,0.533-0.055,0.768-0.163s0.438-0.273,0.609-0.495c0.172-0.221,0.307-0.499,0.404-0.834
		c0.098-0.336,0.15-0.729,0.158-1.178c0.004-0.421-0.037-0.782-0.123-1.087c-0.086-0.304-0.206-0.556-0.36-0.755
		c-0.154-0.198-0.336-0.345-0.545-0.439c-0.209-0.094-0.437-0.141-0.683-0.141c-0.156,0-0.304,0.02-0.442,0.058
		c-0.139,0.039-0.266,0.089-0.381,0.151c-0.115,0.062-0.218,0.129-0.308,0.2s-0.164,0.14-0.223,0.206V240.518z"/>
	<path d="M164.101,238.221c0-0.501,0.078-0.957,0.234-1.367c0.156-0.411,0.374-0.764,0.653-1.057s0.611-0.521,0.996-0.681
		c0.385-0.161,0.806-0.241,1.263-0.241c0.75,0,1.33,0.186,1.74,0.557c0.41,0.372,0.629,0.914,0.656,1.628
		c0.004,0.229,0.001,0.429-0.009,0.6c-0.01,0.172-0.03,0.321-0.062,0.45h-4.061c0.012,0.445,0.073,0.828,0.185,1.148
		s0.256,0.583,0.434,0.788s0.385,0.356,0.621,0.454s0.487,0.146,0.753,0.146c0.168,0,0.338-0.016,0.51-0.047
		s0.337-0.073,0.495-0.126s0.305-0.111,0.439-0.176s0.247-0.132,0.337-0.202l0.246,0.562c-0.109,0.113-0.252,0.224-0.428,0.331
		s-0.37,0.202-0.583,0.284s-0.44,0.148-0.683,0.199s-0.486,0.076-0.732,0.076c-0.504,0-0.944-0.081-1.321-0.244
		c-0.377-0.162-0.69-0.391-0.94-0.686c-0.25-0.296-0.437-0.646-0.56-1.054S164.101,238.711,164.101,238.221z M168.237,237.43
		c0.008-0.067,0.014-0.14,0.018-0.219s0.006-0.15,0.006-0.214c0-0.194-0.023-0.377-0.07-0.548s-0.12-0.321-0.22-0.45
		s-0.229-0.23-0.39-0.305c-0.16-0.073-0.357-0.11-0.592-0.11c-0.199,0-0.385,0.029-0.557,0.088s-0.323,0.159-0.454,0.302
		s-0.236,0.332-0.316,0.568s-0.13,0.532-0.149,0.888H168.237z"/>
</g>
<rect x="49.965" y="208.023" fill="none" stroke="#000000" stroke-miterlimit="10" width="130.007" height="44.389"/>
<polyline fill="#E7DFDF" points="336.28,29.632 336.28,29.632 336.975,29.272 336.28,29.632 "/>
<g>
	<polyline fill="#FFFFFF" points="343.998,32.489 349.646,29.563 343.998,26.616 343.998,32.489 	"/>
	<g>
		<polyline fill="#E7DFDF" points="348.951,29.923 343.998,26.616 349.646,29.563 348.951,29.923 		"/>
		<g>
			<defs>
				<path id="SVGID_1_" d="M356.401,25.598c0,0-0.204-1.441-0.831-2.075c-0.795-0.833-1.686-0.837-2.095-0.885
					c-2.925-0.211-7.314-0.211-7.314-0.211h-0.009c0,0-4.388,0-7.314,0.211c-0.409,0.049-1.299,0.053-2.095,0.885
					c-0.627,0.634-0.831,2.075-0.831,2.075s-0.209,1.692-0.209,3.383v1.586c0,1.692,0.209,3.383,0.209,3.383
					s0.204,1.441,0.831,2.075c0.795,0.833,1.84,0.806,2.305,0.894c1.672,0.16,7.108,0.21,7.108,0.21s4.393-0.007,7.318-0.218
					c0.409-0.049,1.3-0.053,2.095-0.886c0.627-0.634,0.831-2.075,0.831-2.075s0.209-1.692,0.209-3.383v-1.586
					C356.609,27.29,356.401,25.598,356.401,25.598 M343.999,32.489l-0.001-5.874l5.649,2.947L343.999,32.489z"/>
			</defs>
			<clipPath id="SVGID_2_">
				<use xlink:href="#SVGID_1_"  overflow="visible"/>
			</clipPath>
			<g clip-path="url(#SVGID_2_)">
				<defs>
					<rect id="SVGID_3_" x="335.705" y="22.426" width="20.904" height="14.702"/>
				</defs>
				<clipPath id="SVGID_4_">
					<use xlink:href="#SVGID_3_"  overflow="visible"/>
				</clipPath>
				
					<linearGradient id="SVGID_5_" gradientUnits="userSpaceOnUse" x1="-245.7572" y1="485.1592" x2="-245.7368" y2="485.1592" gradientTransform="matrix(0 718.423 718.423 0 -348203.3438 176580.0625)">
					<stop  offset="0" style="stop-color:#E32E28"/>
					<stop  offset="0.5402" style="stop-color:#D12827"/>
					<stop  offset="1" style="stop-color:#BE2126"/>
				</linearGradient>
				<rect x="335.705" y="22.426" clip-path="url(#SVGID_4_)" fill="url(#SVGID_5_)" width="20.904" height="14.702"/>
			</g>
		</g>
	</g>
</g>
<g>
	<polyline fill="#FFFFFF" points="197.737,80.965 203.385,78.038 197.737,75.091 197.737,80.965 	"/>
	<g>
		<polyline fill="#E7DFDF" points="202.69,78.399 197.737,75.091 203.385,78.038 202.69,78.399 		"/>
		<g>
			<defs>
				<path id="SVGID_6_" d="M210.14,74.074c0,0-0.204-1.441-0.831-2.075c-0.795-0.833-1.686-0.837-2.095-0.885
					c-2.925-0.211-7.314-0.211-7.314-0.211h-0.009c0,0-4.388,0-7.314,0.211c-0.409,0.049-1.299,0.053-2.095,0.885
					c-0.627,0.634-0.831,2.075-0.831,2.075s-0.209,1.692-0.209,3.383v1.586c0,1.692,0.209,3.383,0.209,3.383
					s0.204,1.441,0.831,2.075c0.795,0.833,1.84,0.806,2.305,0.894c1.672,0.16,7.108,0.21,7.108,0.21s4.393-0.007,7.318-0.218
					c0.409-0.049,1.3-0.053,2.095-0.886c0.627-0.634,0.831-2.075,0.831-2.075s0.209-1.692,0.209-3.383v-1.586
					C210.348,75.765,210.14,74.074,210.14,74.074 M197.738,80.965l-0.001-5.874l5.649,2.947L197.738,80.965z"/>
			</defs>
			<clipPath id="SVGID_7_">
				<use xlink:href="#SVGID_6_"  overflow="visible"/>
			</clipPath>
			<g clip-path="url(#SVGID_7_)">
				<defs>
					<rect id="SVGID_8_" x="189.444" y="70.902" width="20.904" height="14.702"/>
				</defs>
				<clipPath id="SVGID_9_">
					<use xlink:href="#SVGID_8_"  overflow="visible"/>
				</clipPath>
				
					<linearGradient id="SVGID_10_" gradientUnits="userSpaceOnUse" x1="-245.6897" y1="484.9556" x2="-245.6693" y2="484.9556" gradientTransform="matrix(0 718.423 718.423 0 -348203.3438 176580.0625)">
					<stop  offset="0" style="stop-color:#E32E28"/>
					<stop  offset="0.5402" style="stop-color:#D12827"/>
					<stop  offset="1" style="stop-color:#BE2126"/>
				</linearGradient>
				<rect x="189.444" y="70.902" clip-path="url(#SVGID_9_)" fill="url(#SVGID_10_)" width="20.904" height="14.702"/>
			</g>
		</g>
	</g>
</g>
<g>
	<path fill="#FFFFFF" d="M179.963,139.902c-1.703,0.583-3.154,1.857-3.962,3.47c-0.282,0.556-0.485,1.147-0.609,1.759
		c-0.308,1.519-0.094,3.139,0.605,4.522c0.455,0.902,1.109,1.707,1.898,2.334c0.748,0.594,1.616,1.037,2.541,1.282
		c1.165,0.312,2.406,0.304,3.579,0.038c1.06-0.244,2.064-0.752,2.864-1.489c0.846-0.778,1.451-1.801,1.771-2.902
		c0.35-1.199,0.395-2.481,0.177-3.714c-2.192,0-4.387,0-6.578,0c0,0.91,0,1.819,0,2.729c1.271,0,2.541,0,3.812,0
		c-0.147,0.872-0.665,1.669-1.398,2.161c-0.462,0.312-0.992,0.511-1.541,0.609c-0.549,0.094-1.12,0.105-1.669-0.004
		c-0.56-0.113-1.09-0.346-1.556-0.673c-0.744-0.523-1.312-1.286-1.601-2.146c-0.297-0.876-0.301-1.849,0-2.722
		c0.21-0.616,0.556-1.184,1.015-1.65c0.564-0.579,1.297-0.992,2.09-1.162c0.677-0.143,1.391-0.117,2.052,0.083
		c0.564,0.169,1.083,0.481,1.507,0.887c0.429-0.429,0.857-0.857,1.286-1.286c0.226-0.229,0.462-0.451,0.68-0.688
		c-0.65-0.601-1.417-1.086-2.252-1.395C183.17,139.391,181.478,139.379,179.963,139.902z"/>
	<g>
		<path fill="#EA4335" d="M179.963,139.902c1.511-0.523,3.206-0.511,4.71,0.041c0.835,0.308,1.598,0.789,2.252,1.395
			c-0.218,0.237-0.455,0.459-0.68,0.688c-0.429,0.429-0.857,0.857-1.286,1.286c-0.425-0.406-0.944-0.714-1.507-0.887
			c-0.662-0.199-1.376-0.229-2.052-0.083c-0.789,0.169-1.522,0.583-2.09,1.162c-0.459,0.462-0.804,1.034-1.015,1.65
			c-0.763-0.594-1.526-1.184-2.293-1.778C176.809,141.759,178.26,140.485,179.963,139.902z"/>
	</g>
	<g>
		<path fill="#FBBC05" d="M175.396,145.127c0.124-0.609,0.327-1.203,0.609-1.759c0.763,0.594,1.526,1.184,2.293,1.778
			c-0.301,0.876-0.301,1.849,0,2.722c-0.763,0.594-1.526,1.188-2.289,1.778C175.302,148.266,175.088,146.646,175.396,145.127z"/>
	</g>
	<g>
		<path fill="#4285F4" d="M182.249,145.198c2.192,0,4.387,0,6.578,0c0.218,1.229,0.169,2.511-0.177,3.714
			c-0.32,1.101-0.925,2.124-1.771,2.902c-0.741-0.575-1.481-1.15-2.222-1.725c0.733-0.492,1.252-1.289,1.398-2.161
			c-1.271,0-2.541,0-3.812,0C182.249,147.018,182.249,146.108,182.249,145.198z"/>
	</g>
	<g>
		<path fill="#34A853" d="M176.001,149.649c0.763-0.59,1.526-1.184,2.289-1.778c0.293,0.861,0.857,1.624,1.601,2.146
			c0.466,0.327,1,0.56,1.556,0.673c0.549,0.113,1.116,0.098,1.669,0.004c0.549-0.098,1.079-0.297,1.541-0.609
			c0.741,0.575,1.481,1.15,2.222,1.725c-0.801,0.741-1.804,1.244-2.864,1.489c-1.173,0.267-2.413,0.274-3.579-0.038
			c-0.925-0.244-1.793-0.684-2.541-1.282C177.11,151.356,176.456,150.551,176.001,149.649z"/>
	</g>
</g>
<g>
	<path fill="#FFFFFF" d="M246.697,169.36c-1.703,0.583-3.154,1.857-3.962,3.47c-0.282,0.556-0.485,1.146-0.609,1.759
		c-0.308,1.519-0.094,3.139,0.605,4.522c0.455,0.902,1.109,1.707,1.898,2.334c0.748,0.594,1.616,1.037,2.541,1.282
		c1.165,0.312,2.406,0.304,3.579,0.038c1.06-0.244,2.064-0.752,2.864-1.489c0.846-0.778,1.451-1.801,1.771-2.902
		c0.35-1.199,0.395-2.481,0.177-3.714c-2.192,0-4.387,0-6.578,0c0,0.91,0,1.819,0,2.729c1.271,0,2.541,0,3.812,0
		c-0.147,0.872-0.665,1.669-1.398,2.161c-0.462,0.312-0.992,0.511-1.541,0.609c-0.549,0.094-1.12,0.105-1.669-0.004
		c-0.56-0.113-1.09-0.346-1.556-0.673c-0.744-0.523-1.312-1.286-1.601-2.146c-0.297-0.876-0.301-1.849,0-2.722
		c0.211-0.616,0.556-1.184,1.015-1.65c0.564-0.579,1.297-0.992,2.09-1.162c0.677-0.143,1.391-0.117,2.052,0.083
		c0.564,0.169,1.083,0.481,1.507,0.887c0.429-0.429,0.857-0.857,1.286-1.286c0.226-0.229,0.462-0.451,0.68-0.688
		c-0.65-0.601-1.417-1.086-2.252-1.395C249.903,168.848,248.212,168.837,246.697,169.36z"/>
	<g>
		<path fill="#EA4335" d="M246.697,169.36c1.511-0.523,3.206-0.511,4.71,0.041c0.835,0.308,1.598,0.789,2.252,1.395
			c-0.218,0.237-0.455,0.459-0.68,0.688c-0.429,0.429-0.857,0.857-1.286,1.286c-0.425-0.406-0.944-0.714-1.507-0.887
			c-0.662-0.199-1.376-0.229-2.052-0.083c-0.789,0.169-1.522,0.583-2.09,1.162c-0.459,0.462-0.804,1.034-1.015,1.65
			c-0.763-0.594-1.526-1.184-2.293-1.778C243.543,171.217,244.994,169.942,246.697,169.36z"/>
	</g>
	<g>
		<path fill="#FBBC05" d="M242.13,174.585c0.124-0.609,0.327-1.203,0.609-1.759c0.763,0.594,1.526,1.184,2.293,1.778
			c-0.301,0.876-0.301,1.849,0,2.722c-0.763,0.594-1.526,1.188-2.289,1.778C242.036,177.723,241.821,176.103,242.13,174.585z"/>
	</g>
	<g>
		<path fill="#4285F4" d="M248.982,174.656c2.192,0,4.387,0,6.578,0c0.218,1.229,0.169,2.511-0.177,3.714
			c-0.32,1.101-0.925,2.124-1.771,2.902c-0.741-0.575-1.481-1.15-2.222-1.725c0.733-0.492,1.252-1.289,1.398-2.161
			c-1.271,0-2.541,0-3.812,0C248.982,176.475,248.982,175.566,248.982,174.656z"/>
	</g>
	<g>
		<path fill="#34A853" d="M242.735,179.107c0.763-0.59,1.526-1.184,2.289-1.778c0.293,0.861,0.857,1.624,1.601,2.146
			c0.466,0.327,1,0.56,1.556,0.673c0.549,0.113,1.116,0.098,1.669,0.004c0.549-0.098,1.079-0.297,1.541-0.609
			c0.741,0.575,1.481,1.15,2.222,1.725c-0.801,0.741-1.804,1.244-2.864,1.489c-1.173,0.267-2.413,0.274-3.579-0.038
			c-0.925-0.244-1.793-0.684-2.541-1.282C243.844,180.813,243.19,180.009,242.735,179.107z"/>
	</g>
</g>
<g>
	<path fill="#FFFFFF" d="M327.565,137.559c-1.703,0.583-3.154,1.857-3.962,3.47c-0.282,0.556-0.485,1.146-0.609,1.759
		c-0.308,1.519-0.094,3.139,0.605,4.522c0.455,0.902,1.109,1.707,1.898,2.334c0.748,0.594,1.616,1.037,2.541,1.282
		c1.165,0.312,2.406,0.304,3.579,0.038c1.06-0.244,2.064-0.752,2.864-1.489c0.846-0.778,1.451-1.801,1.771-2.902
		c0.35-1.199,0.395-2.481,0.177-3.714c-2.191,0-4.387,0-6.578,0c0,0.91,0,1.819,0,2.729c1.271,0,2.541,0,3.812,0
		c-0.147,0.872-0.665,1.669-1.398,2.161c-0.462,0.312-0.992,0.511-1.541,0.609c-0.549,0.094-1.12,0.105-1.669-0.004
		c-0.56-0.113-1.09-0.346-1.556-0.673c-0.744-0.523-1.312-1.286-1.601-2.146c-0.297-0.876-0.301-1.849,0-2.722
		c0.211-0.616,0.556-1.184,1.015-1.65c0.564-0.579,1.297-0.992,2.09-1.162c0.677-0.143,1.391-0.117,2.052,0.083
		c0.564,0.169,1.083,0.481,1.507,0.887c0.429-0.429,0.857-0.857,1.286-1.286c0.226-0.229,0.462-0.451,0.68-0.688
		c-0.65-0.601-1.417-1.086-2.252-1.395C330.772,137.047,329.08,137.036,327.565,137.559z"/>
	<g>
		<path fill="#EA4335" d="M327.565,137.559c1.511-0.523,3.206-0.511,4.71,0.041c0.835,0.308,1.598,0.789,2.252,1.395
			c-0.218,0.237-0.455,0.459-0.68,0.688c-0.429,0.429-0.857,0.857-1.286,1.286c-0.425-0.406-0.944-0.714-1.507-0.887
			c-0.662-0.199-1.376-0.229-2.052-0.083c-0.789,0.169-1.522,0.583-2.09,1.162c-0.459,0.462-0.804,1.034-1.015,1.65
			c-0.763-0.594-1.526-1.184-2.293-1.778C324.412,139.415,325.863,138.141,327.565,137.559z"/>
	</g>
	<g>
		<path fill="#FBBC05" d="M322.998,142.784c0.124-0.609,0.327-1.203,0.609-1.759c0.763,0.594,1.526,1.184,2.293,1.778
			c-0.301,0.876-0.301,1.849,0,2.722c-0.763,0.594-1.526,1.188-2.289,1.778C322.904,145.922,322.69,144.302,322.998,142.784z"/>
	</g>
	<g>
		<path fill="#4285F4" d="M329.851,142.855c2.192,0,4.387,0,6.578,0c0.218,1.229,0.169,2.511-0.177,3.714
			c-0.32,1.101-0.925,2.124-1.771,2.902c-0.741-0.575-1.481-1.15-2.222-1.725c0.733-0.492,1.252-1.289,1.398-2.161
			c-1.271,0-2.541,0-3.812,0C329.851,144.674,329.851,143.765,329.851,142.855z"/>
	</g>
	<g>
		<path fill="#34A853" d="M323.603,147.306c0.763-0.59,1.526-1.184,2.289-1.778c0.293,0.861,0.857,1.624,1.601,2.146
			c0.466,0.327,1,0.56,1.556,0.673c0.549,0.113,1.116,0.098,1.669,0.004c0.549-0.098,1.079-0.297,1.541-0.609
			c0.741,0.575,1.481,1.15,2.222,1.725c-0.801,0.741-1.804,1.244-2.864,1.489c-1.173,0.267-2.413,0.274-3.579-0.038
			c-0.925-0.244-1.793-0.684-2.541-1.282C324.712,149.012,324.058,148.208,323.603,147.306z"/>
	</g>
</g>
<g>
	<path fill="#E6C457" d="M246.929,3.926l113.639,82.616l-113.675,36.896L246.929,3.926 M244.93,0l-0.037,126.191L364.92,87.233
		L244.93,0L244.93,0z"/>
</g>
<g>
	<path fill="#AD9341" d="M297.415,118.121l-18.158,55.54l-29.142-40.266L297.415,118.121 M300.535,115.011l-53.655,17.326
		l33.058,45.675L300.535,115.011L300.535,115.011z"/>
</g>
<g>
	<path fill="#83BFCA" d="M236.452,79.102l-0.006,44.335l-42.164-13.705L236.452,79.102 M238.453,75.177l-48.521,35.243l48.514,15.77
		L238.453,75.177L238.453,75.177z"/>
</g>
<g>
	<path fill="#628F98" d="M193.623,120.495l39.61,12.876l-24.485,33.693L193.623,120.495 M190.508,117.38l17.55,54.035l28.411-39.095
		L190.508,117.38L190.508,117.38z"/>
</g>
<g>
	<path d="M241.665,138.685l13.435,18.491H228.23L241.665,138.685 M241.665,135.283l-17.36,23.893h34.72L241.665,135.283
		L241.665,135.283z"/>
</g>
</svg>
