<?xml version="1.0" encoding="utf-8"?>
<!-- Generator: Adobe Illustrator 17.0.0, SVG Export Plug-In . SVG Version: 6.00 Build 0)  -->
<!DOCTYPE svg PUBLIC "-//W3C//DTD SVG 1.1//EN" "http://www.w3.org/Graphics/SVG/1.1/DTD/svg11.dtd">
<svg version="1.1" id="Layer_1" xmlns="http://www.w3.org/2000/svg" xmlns:xlink="http://www.w3.org/1999/xlink" x="0px" y="0px"
	 width="351.093px" height="372.339px" viewBox="0 0 351.093 372.339" enable-background="new 0 0 351.093 372.339"
	 xml:space="preserve">
<g>
	<g>
		<rect x="66.848" y="348.401" fill="none" width="200.85" height="15.938"/>
		<g enable-background="new    ">
			<path d="M98.963,352.241v8.909h-1.77v-8.909h-3.315v-1.591h8.415v1.591H98.963z"/>
			<path d="M111.144,361.15v-4.35h-5.565v4.35h-1.77v-10.5h1.77v4.561h5.565v-4.561h1.77v10.5H111.144z"/>
			<path d="M117.443,352.241v2.834h5.13v1.591h-5.13v2.895h5.91v1.59h-7.68v-10.5h7.5v1.591H117.443z"/>
			<path d="M133.688,350.65c3.15,0,5.43,2.205,5.43,5.25c0,3.03-2.295,5.25-5.475,5.25h-4.26v-10.5H133.688z M131.153,359.56h2.58
				c2.04,0,3.6-1.515,3.6-3.645c0-2.146-1.605-3.675-3.675-3.675h-2.505V359.56z"/>
			<path d="M142.223,358.78l-1.005,2.37h-1.845l4.635-10.5h1.815l4.59,10.5h-1.89l-1.005-2.37H142.223z M144.863,352.541
				l-1.98,4.664h3.96L144.863,352.541z"/>
			<path d="M151.808,361.15v-10.5h1.77v10.5H151.808z"/>
			<path d="M161.078,357.97c-0.15,0.015-0.315,0.015-0.48,0.015h-2.49v3.165h-1.77v-10.5h4.26c2.685,0,4.23,1.306,4.23,3.585
				c0,1.681-0.78,2.865-2.175,3.405l2.355,3.51h-2.01L161.078,357.97z M160.598,356.395c1.62,0,2.55-0.689,2.55-2.115
				c0-1.38-0.93-2.039-2.55-2.039h-2.49v4.154H160.598z"/>
			<path d="M171.367,361.15h-1.755v-3.435l-3.915-7.065h1.785l3,5.115l2.94-5.115h1.8l-3.855,7.005V361.15z"/>
			<path d="M187.612,351.656l-0.735,1.56c-1.14-0.69-2.279-0.975-3.074-0.975c-1.035,0-1.71,0.39-1.71,1.095
				c0,2.295,5.67,1.064,5.654,4.845c0,1.875-1.649,3.029-3.96,3.029c-1.649,0-3.21-0.675-4.289-1.664l0.765-1.53
				c1.08,0.99,2.43,1.53,3.555,1.53c1.23,0,1.965-0.466,1.965-1.275c0-2.34-5.67-1.035-5.67-4.77c0-1.8,1.545-2.925,3.825-2.925
				C185.302,350.576,186.637,351.01,187.612,351.656z"/>
			<path d="M191.588,352.241v2.834h5.13v1.591h-5.13v2.895h5.909v1.59h-7.68v-10.5h7.5v1.591H191.588z"/>
			<path d="M208.296,352.225l-1.034,1.29c-0.766-0.825-1.86-1.335-2.926-1.335c-2.1,0-3.749,1.62-3.749,3.69
				c0,2.069,1.649,3.704,3.749,3.704c1.051,0,2.13-0.479,2.926-1.245l1.05,1.17c-1.065,1.051-2.58,1.726-4.065,1.726
				c-3.074,0-5.46-2.325-5.46-5.34c0-2.985,2.415-5.28,5.521-5.28C205.792,350.605,207.277,351.22,208.296,352.225z"/>
			<path d="M213.952,352.241v8.909h-1.77v-8.909h-3.315v-1.591h8.415v1.591H213.952z"/>
			<path d="M228.426,355.9c0,3-2.43,5.325-5.564,5.325s-5.565-2.325-5.565-5.325c0-3.015,2.431-5.295,5.565-5.295
				S228.426,352.9,228.426,355.9z M219.097,355.9c0,2.085,1.725,3.735,3.779,3.735s3.735-1.65,3.735-3.735s-1.681-3.705-3.735-3.705
				C220.807,352.195,219.097,353.815,219.097,355.9z"/>
			<path d="M235.057,357.97c-0.15,0.015-0.315,0.015-0.48,0.015h-2.489v3.165h-1.771v-10.5h4.26c2.686,0,4.23,1.306,4.23,3.585
				c0,1.681-0.78,2.865-2.175,3.405l2.354,3.51h-2.01L235.057,357.97z M234.577,356.395c1.62,0,2.55-0.689,2.55-2.115
				c0-1.38-0.93-2.039-2.55-2.039h-2.489v4.154H234.577z"/>
		</g>
	</g>
	<rect x="84.273" y="340.839" fill="none" stroke="#95CBC8" stroke-miterlimit="10" width="165" height="31"/>
	<g>
		<path fill="#FFFFFF" d="M202.214,244.024c-10.286,3.998-21.472,6.191-33.171,6.191c-50.589,0-91.599-41.01-91.599-91.599
			c0-22.297,7.967-42.734,21.209-58.618l19.864,16.542c-9.505,11.402-15.224,26.071-15.224,42.076
			c0,36.313,29.437,65.75,65.75,65.75c8.398,0,16.427-1.574,23.81-4.444L202.214,244.024z"/>
		<path fill="#FFFFFF" d="M102.694,95.464c16.685-17.525,40.242-28.447,66.349-28.447c18.396,0,35.526,5.423,49.878,14.758
			l-14.076,21.684c-10.302-6.701-22.597-10.593-35.802-10.593c-18.74,0-35.649,7.84-47.626,20.419L102.694,95.464z"/>
		<path fill="#FFFFFF" d="M223.91,85.261c22.301,16.707,36.732,43.346,36.732,73.355c0,18.608-5.549,35.921-15.082,50.373
			l-21.593-14.215c6.843-10.374,10.826-22.8,10.826-36.158c0-21.541-10.359-40.662-26.366-52.654L223.91,85.261z"/>
		<path fill="#FFFFFF" d="M208.016,241.534c13.461-6.338,25.129-15.858,34.034-27.589l-20.618-15.625
			c-6.392,8.417-14.763,15.249-24.42,19.804L208.016,241.534z"/>
		<path fill="none" stroke="#000000" stroke-miterlimit="10" d="M200.214,242.024c-10.286,3.998-21.472,6.191-33.171,6.191
			c-50.589,0-91.599-41.01-91.599-91.599c0-22.297,7.967-42.734,21.209-58.618l19.864,16.542
			c-9.505,11.402-15.224,26.071-15.224,42.076c0,36.313,29.437,65.75,65.75,65.75c8.398,0,16.427-1.574,23.81-4.444L200.214,242.024
			z"/>
		<path fill="none" stroke="#000000" stroke-miterlimit="10" d="M100.694,93.464c16.685-17.525,40.242-28.447,66.349-28.447
			c18.396,0,35.526,5.423,49.878,14.758l-14.076,21.684c-10.302-6.701-22.597-10.593-35.802-10.593
			c-18.74,0-35.649,7.84-47.626,20.419L100.694,93.464z"/>
		<path fill="none" stroke="#000000" stroke-miterlimit="10" d="M221.91,83.261c22.301,16.707,36.732,43.346,36.732,73.355
			c0,18.608-5.549,35.921-15.082,50.373l-21.593-14.215c6.843-10.374,10.826-22.8,10.826-36.158
			c0-21.541-10.359-40.662-26.366-52.654L221.91,83.261z"/>
		<line fill="none" stroke="#000000" stroke-miterlimit="10" x1="159.001" y1="65.017" x2="159.001" y2="1.672"/>
		<line fill="none" stroke="#000000" stroke-miterlimit="10" x1="258.221" y1="145.062" x2="336.273" y2="145.062"/>
		<g enable-background="new    ">
			<path d="M179.942,2.25c2.175,0,3.525,0.99,3.525,2.625c0,1.186-0.705,2.07-1.846,2.34c1.41,0.24,2.25,1.245,2.25,2.655
				c0,1.8-1.455,2.88-3.824,2.88h-4.666V2.25H179.942z M177.152,6.601h2.7c1.125,0,1.8-0.525,1.8-1.41s-0.675-1.365-1.8-1.365h-2.7
				V6.601z M177.152,11.175h2.7c1.38,0,2.205-0.54,2.205-1.529c0-0.931-0.825-1.485-2.205-1.485h-2.7V11.175z"/>
			<path d="M194.897,8.4c0,2.745-1.726,4.425-4.561,4.425s-4.574-1.68-4.574-4.425V2.25h1.77V8.4c0,1.77,1.095,2.835,2.82,2.835
				c1.71,0,2.774-1.05,2.774-2.835V2.25h1.771V8.4z"/>
			<path d="M201.272,3.841v8.909h-1.771V3.841h-3.314V2.25h8.415v1.591H201.272z"/>
			<path d="M209.957,3.841v8.909h-1.77V3.841h-3.315V2.25h8.415v1.591H209.957z"/>
			<path d="M216.572,3.841v2.834h5.13v1.591h-5.13v2.895h5.909v1.59h-7.68V2.25h7.5v1.591H216.572z"/>
			<path d="M229.381,9.57c-0.15,0.015-0.315,0.015-0.48,0.015h-2.489v3.165h-1.771V2.25h4.26c2.686,0,4.23,1.306,4.23,3.585
				c0,1.681-0.78,2.865-2.175,3.405l2.354,3.51h-2.01L229.381,9.57z M228.901,7.995c1.62,0,2.55-0.689,2.55-2.115
				c0-1.38-0.93-2.039-2.55-2.039h-2.489v4.154H228.901z"/>
			<path d="M240.841,10.38l-1.005,2.37h-1.845l4.635-10.5h1.814l4.59,10.5h-1.89l-1.005-2.37H240.841z M243.481,4.141l-1.979,4.664
				h3.96L243.481,4.141z"/>
			<path d="M257.791,12.75l-5.595-7.529v7.529h-1.77V2.25h1.74l5.624,7.545V2.25h1.74v10.5H257.791z"/>
			<path d="M266.611,2.25c3.149,0,5.43,2.205,5.43,5.25c0,3.03-2.295,5.25-5.475,5.25h-4.26V2.25H266.611z M264.076,11.16h2.58
				c2.04,0,3.6-1.515,3.6-3.645c0-2.146-1.604-3.675-3.675-3.675h-2.505V11.16z"/>
			<path d="M286.531,7.59v3.87c-1.065,0.81-2.64,1.365-4.08,1.365c-3.104,0-5.52-2.325-5.52-5.325s2.445-5.295,5.625-5.295
				c1.5,0,3,0.57,4.034,1.471l-1.005,1.305c-0.81-0.75-1.935-1.2-3.029-1.2c-2.146,0-3.825,1.635-3.825,3.72
				c0,2.101,1.695,3.735,3.84,3.735c0.78,0,1.665-0.271,2.415-0.721V7.59H286.531z"/>
			<path d="M296.371,12.75V8.4h-5.564v4.35h-1.771V2.25h1.771v4.561h5.564V2.25h1.77v10.5H296.371z"/>
			<path d="M302.671,3.841v2.834h5.13v1.591h-5.13v2.895h5.91v1.59h-7.68V2.25h7.5v1.591H302.671z"/>
			<path d="M312.51,3.841v2.834h5.13v1.591h-5.13v2.895h5.91v1.59h-7.68V2.25h7.5v1.591H312.51z"/>
		</g>
		<g enable-background="new    ">
			<path d="M184.684,24.228c0,1.501-1.1,3.081-2.62,4.642l-3.101,3.24h6.201v2.641h-10.302v-2.16l5.061-5.361
				c0.86-0.88,1.46-1.86,1.46-2.541c0-0.88-0.68-1.4-1.84-1.4s-2.581,0.681-3.821,1.761l-1.22-2.36
				c1.701-1.301,3.561-2.08,5.501-2.08C182.744,20.607,184.684,22.027,184.684,24.228z"/>
			<path d="M192.624,26.548c2.12,0.301,3.621,1.641,3.621,3.821c0,2.66-2.041,4.521-5.262,4.521c-1.86,0-3.801-0.66-5.061-1.64
				l1.28-2.501c1.04,1.061,2.28,1.62,3.54,1.62c1.541,0,2.421-0.74,2.401-1.96c0-1.261-0.86-1.9-2.421-1.9h-2.141v-1.761
				l3.281-3.421h-5.262v-2.561h9.002v1.881l-3.66,3.82L192.624,26.548z"/>
			<path d="M200.823,33.33c0,0.479-0.16,0.88-0.42,1.24l-1.341,2.021h-1.5l0.84-2.021c-0.42-0.301-0.62-0.74-0.62-1.24
				c0-0.921,0.66-1.561,1.54-1.561C200.123,31.77,200.823,32.329,200.823,33.33z"/>
			<path d="M204.422,34.75V23.407h-2.641v-2.66h5.802V34.75H204.422z"/>
			<path d="M218.023,24.888c0,2.621-1.46,4.241-3.841,4.241c-2.36,0-3.82-1.62-3.82-4.241c0-2.601,1.46-4.201,3.82-4.201
				C216.563,20.687,218.023,22.287,218.023,24.888z M212.342,24.888c0,1.58,0.68,2.501,1.84,2.501c1.181,0,1.86-0.921,1.86-2.501
				c0-1.54-0.68-2.48-1.86-2.48C213.022,22.407,212.342,23.348,212.342,24.888z M223.304,20.747h2.881L216.103,34.75h-2.921
				L223.304,20.747z M229.146,30.589c0,2.621-1.461,4.221-3.841,4.221c-2.361,0-3.821-1.6-3.821-4.221
				c0-2.601,1.46-4.221,3.821-4.221C227.685,26.368,229.146,27.988,229.146,30.589z M223.464,30.589c0,1.561,0.68,2.501,1.841,2.501
				c1.18,0,1.86-0.94,1.86-2.501s-0.681-2.5-1.86-2.5C224.144,28.089,223.464,29.028,223.464,30.589z"/>
		</g>
		<line fill="none" stroke="#000000" stroke-miterlimit="10" x1="223.444" y1="293.006" x2="223.444" y2="228.595"/>
		<g enable-background="new    ">
			<path d="M283.662,161.032l-1.035,1.29c-0.765-0.825-1.86-1.335-2.925-1.335c-2.1,0-3.75,1.62-3.75,3.69
				c0,2.069,1.65,3.704,3.75,3.704c1.05,0,2.13-0.479,2.925-1.245l1.05,1.17c-1.064,1.051-2.58,1.726-4.064,1.726
				c-3.075,0-5.46-2.325-5.46-5.34c0-2.985,2.415-5.28,5.52-5.28C281.157,159.412,282.641,160.027,283.662,161.032z"/>
			<path d="M292.812,169.957v-4.35h-5.565v4.35h-1.77v-10.5h1.77v4.561h5.565v-4.561h1.77v10.5H292.812z"/>
			<path d="M299.112,161.048v2.834h5.13v1.591h-5.13v2.895h5.909v1.59h-7.68v-10.5h7.5v1.591H299.112z"/>
			<path d="M308.952,161.048v2.834h5.13v1.591h-5.13v2.895h5.909v1.59h-7.68v-10.5h7.5v1.591H308.952z"/>
			<path d="M324.146,160.463l-0.735,1.56c-1.14-0.69-2.279-0.975-3.074-0.975c-1.035,0-1.71,0.39-1.71,1.095
				c0,2.295,5.67,1.064,5.654,4.845c0,1.875-1.649,3.029-3.96,3.029c-1.649,0-3.21-0.675-4.289-1.664l0.765-1.53
				c1.08,0.99,2.43,1.53,3.555,1.53c1.23,0,1.965-0.466,1.965-1.275c0-2.34-5.67-1.035-5.67-4.77c0-1.8,1.545-2.925,3.825-2.925
				C321.837,159.383,323.172,159.817,324.146,160.463z"/>
			<path d="M328.121,161.048v2.834h5.13v1.591h-5.13v2.895h5.91v1.59h-7.68v-10.5h7.5v1.591H328.121z"/>
		</g>
		<g enable-background="new    ">
			<path d="M284.324,181.435c0,1.501-1.1,3.081-2.62,4.642l-3.101,3.241h6.201v2.641h-10.302v-2.16l5.061-5.362
				c0.86-0.88,1.46-1.86,1.46-2.541c0-0.88-0.68-1.4-1.84-1.4s-2.581,0.681-3.821,1.761l-1.22-2.36c1.7-1.301,3.561-2.08,5.501-2.08
				C282.383,177.815,284.324,179.234,284.324,181.435z"/>
			<path d="M289.963,180.595v2.46l1.461-0.02c3.16,0,5.201,1.74,5.201,4.242c0,2.92-2.141,4.801-5.441,4.801
				c-1.78,0-3.841-0.681-5.262-1.7l1.261-2.501c1.08,1.08,2.381,1.66,3.641,1.66c1.521,0,2.421-0.76,2.421-2.04
				c0-1.201-0.9-1.881-2.421-1.881c-0.76,0-2.881,0.04-3.78,0.101l0.02-7.762h8.962v2.641H289.963z"/>
			<path d="M301.203,190.538c0,0.479-0.16,0.88-0.42,1.24l-1.341,2.021h-1.5l0.84-2.021c-0.42-0.301-0.62-0.74-0.62-1.24
				c0-0.921,0.66-1.561,1.54-1.561C300.503,188.977,301.203,189.537,301.203,190.538z"/>
			<path d="M312.664,181.435c0,1.501-1.101,3.081-2.621,4.642l-3.101,3.241h6.202v2.641h-10.303v-2.16l5.062-5.362
				c0.859-0.88,1.46-1.86,1.46-2.541c0-0.88-0.68-1.4-1.841-1.4c-1.16,0-2.58,0.681-3.82,1.761l-1.221-2.36
				c1.701-1.301,3.562-2.08,5.502-2.08C310.723,177.815,312.664,179.234,312.664,181.435z"/>
			<path d="M322.243,182.095c0,2.621-1.46,4.241-3.841,4.241c-2.36,0-3.82-1.62-3.82-4.241c0-2.601,1.46-4.201,3.82-4.201
				C320.783,177.894,322.243,179.494,322.243,182.095z M316.562,182.095c0,1.58,0.68,2.501,1.84,2.501
				c1.181,0,1.86-0.921,1.86-2.501c0-1.54-0.68-2.48-1.86-2.48C317.242,179.614,316.562,180.555,316.562,182.095z M327.524,177.954
				h2.881l-10.082,14.003h-2.921L327.524,177.954z M333.366,187.796c0,2.621-1.461,4.221-3.841,4.221
				c-2.361,0-3.821-1.6-3.821-4.221c0-2.601,1.46-4.221,3.821-4.221C331.905,183.575,333.366,185.195,333.366,187.796z
				 M327.684,187.796c0,1.561,0.68,2.501,1.841,2.501c1.18,0,1.86-0.94,1.86-2.501c0-1.561-0.681-2.5-1.86-2.5
				C328.364,185.296,327.684,186.235,327.684,187.796z"/>
		</g>
		<g enable-background="new    ">
			<path d="M249.289,269.534l-0.015-7.845l-3.315,6.75h-1.154l-3.315-6.75v7.845h-1.665v-10.5h2.101l3.465,6.976l3.449-6.976h2.085
				v10.5H249.289z"/>
			<path d="M253.699,269.534v-10.5h1.771v10.5H253.699z"/>
			<path d="M264.544,267.929v1.604h-6.314v-10.5h1.77v8.896H264.544z"/>
			<path d="M269.794,264.899l-1.785,1.965v2.67h-1.77v-10.5h1.77v5.431l5.01-5.431h2.085l-4.064,4.485l4.335,6.015h-2.13
				L269.794,264.899z"/>
			<path d="M285.063,259.034c2.64,0,4.155,1.306,4.155,3.585c0,2.37-1.516,3.75-4.155,3.75h-2.415v3.165h-1.77v-10.5H285.063z
				 M282.648,264.779h2.34c1.62,0,2.535-0.689,2.535-2.115c0-1.38-0.915-2.039-2.535-2.039h-2.34V264.779z"/>
			<path d="M301.233,264.284c0,3-2.431,5.325-5.565,5.325s-5.564-2.325-5.564-5.325c0-3.015,2.43-5.295,5.564-5.295
				S301.233,261.284,301.233,264.284z M291.903,264.284c0,2.085,1.725,3.735,3.78,3.735c2.055,0,3.734-1.65,3.734-3.735
				s-1.68-3.705-3.734-3.705C293.613,260.579,291.903,262.199,291.903,264.284z"/>
			<path d="M311.959,269.534l-2.49-8.189l-2.52,8.189h-1.83l-3.48-10.5h1.905l2.55,8.535l2.535-8.52l1.739-0.016l2.551,8.535
				l2.534-8.535h1.83l-3.51,10.5H311.959z"/>
			<path d="M322.818,259.034c3.149,0,5.43,2.205,5.43,5.25c0,3.03-2.295,5.25-5.475,5.25h-4.26v-10.5H322.818z M320.283,267.944
				h2.58c2.04,0,3.6-1.515,3.6-3.645c0-2.146-1.604-3.675-3.675-3.675h-2.505V267.944z"/>
			<path d="M331.908,260.625v2.834h5.13v1.591h-5.13v2.895h5.91v1.59h-7.68v-10.5h7.499v1.591H331.908z"/>
			<path d="M344.717,266.354c-0.149,0.015-0.314,0.015-0.479,0.015h-2.49v3.165h-1.77v-10.5h4.26c2.685,0,4.229,1.306,4.229,3.585
				c0,1.681-0.779,2.865-2.175,3.405l2.355,3.51h-2.011L344.717,266.354z M344.238,264.779c1.62,0,2.55-0.689,2.55-2.115
				c0-1.38-0.93-2.039-2.55-2.039h-2.49v4.154H344.238z"/>
		</g>
		<g enable-background="new    ">
			<path d="M249.726,281.112c0,1.24-0.72,2.34-1.86,2.92c1.581,0.62,2.581,1.961,2.581,3.562c0,2.5-2.2,4.08-5.621,4.08
				c-3.461,0-5.642-1.56-5.642-4.04c0-1.621,1.061-2.981,2.741-3.602c-1.241-0.64-2.021-1.76-2.021-3c0-2.241,1.92-3.641,4.9-3.641
				C247.806,277.391,249.726,278.831,249.726,281.112z M242.185,287.293c0,1.28,0.94,1.98,2.641,1.98c1.66,0,2.641-0.7,2.641-1.96
				c0-1.24-0.961-1.94-2.661-1.94C243.126,285.373,242.185,286.073,242.185,287.293z M242.565,281.292c0,1.08,0.82,1.7,2.261,1.7
				c1.42,0,2.221-0.62,2.221-1.7c0-1.101-0.801-1.721-2.221-1.721C243.385,279.571,242.565,280.191,242.565,281.292z"/>
			<path d="M255.045,290.114c0,0.479-0.16,0.88-0.42,1.24l-1.34,2.021h-1.501l0.841-2.021c-0.421-0.301-0.62-0.74-0.62-1.24
				c0-0.921,0.66-1.561,1.54-1.561C254.344,288.553,255.045,289.113,255.045,290.114z"/>
			<path d="M267.106,281.112c0,1.24-0.72,2.34-1.86,2.92c1.581,0.62,2.581,1.961,2.581,3.562c0,2.5-2.2,4.08-5.621,4.08
				c-3.461,0-5.642-1.56-5.642-4.04c0-1.621,1.061-2.981,2.741-3.602c-1.241-0.64-2.021-1.76-2.021-3c0-2.241,1.92-3.641,4.9-3.641
				C265.186,277.391,267.106,278.831,267.106,281.112z M259.565,287.293c0,1.28,0.94,1.98,2.641,1.98c1.66,0,2.641-0.7,2.641-1.96
				c0-1.24-0.961-1.94-2.661-1.94C260.505,285.373,259.565,286.073,259.565,287.293z M259.945,281.292c0,1.08,0.82,1.7,2.261,1.7
				c1.42,0,2.221-0.62,2.221-1.7c0-1.101-0.801-1.721-2.221-1.721C260.765,279.571,259.945,280.191,259.945,281.292z"/>
			<path d="M276.906,281.671c0,2.621-1.461,4.241-3.841,4.241c-2.36,0-3.821-1.62-3.821-4.241c0-2.601,1.461-4.201,3.821-4.201
				C275.445,277.47,276.906,279.071,276.906,281.671z M271.224,281.671c0,1.58,0.681,2.501,1.841,2.501
				c1.18,0,1.86-0.921,1.86-2.501c0-1.54-0.681-2.48-1.86-2.48C271.905,279.191,271.224,280.131,271.224,281.671z M282.187,277.531
				h2.88l-10.082,14.003h-2.92L282.187,277.531z M288.028,287.373c0,2.621-1.46,4.221-3.841,4.221c-2.36,0-3.82-1.6-3.82-4.221
				c0-2.601,1.46-4.221,3.82-4.221C286.568,283.152,288.028,284.772,288.028,287.373z M282.346,287.373
				c0,1.561,0.681,2.501,1.841,2.501c1.181,0,1.86-0.94,1.86-2.501s-0.68-2.5-1.86-2.5
				C283.027,284.873,282.346,285.812,282.346,287.373z"/>
		</g>
		<line fill="none" stroke="#000000" stroke-miterlimit="10" x1="0" y1="215.368" x2="96.773" y2="215.368"/>
		<g enable-background="new    ">
			<path d="M3.15,231.944v3.029h4.77v1.575H3.15v4.305H1.38v-10.5h7.05l-0.015,1.591H3.15z"/>
			<path d="M14.745,237.673c-0.15,0.015-0.315,0.015-0.48,0.015h-2.49v3.165h-1.77v-10.5h4.26c2.685,0,4.23,1.306,4.23,3.585
				c0,1.681-0.78,2.865-2.175,3.405l2.355,3.51h-2.01L14.745,237.673z M14.265,236.098c1.62,0,2.55-0.689,2.55-2.115
				c0-1.38-0.93-2.039-2.55-2.039h-2.49v4.154H14.265z"/>
			<path d="M22.62,231.944v2.834h5.13v1.591h-5.13v2.895h5.91v1.59h-7.68v-10.5h7.5v1.591H22.62z"/>
			<path d="M37.815,231.359l-0.735,1.56c-1.14-0.69-2.28-0.975-3.075-0.975c-1.035,0-1.71,0.39-1.71,1.095
				c0,2.295,5.67,1.064,5.655,4.845c0,1.875-1.65,3.029-3.96,3.029c-1.65,0-3.21-0.675-4.29-1.664l0.765-1.53
				c1.08,0.99,2.43,1.53,3.555,1.53c1.23,0,1.965-0.466,1.965-1.275c0-2.34-5.67-1.035-5.67-4.77c0-1.8,1.545-2.925,3.825-2.925
				C35.505,230.279,36.839,230.713,37.815,231.359z"/>
			<path d="M47.355,240.853v-4.35H41.79v4.35h-1.77v-10.5h1.77v4.561h5.565v-4.561h1.77v10.5H47.355z"/>
			<path d="M65.219,240.853l-0.015-7.845l-3.315,6.75h-1.155l-3.315-6.75v7.845h-1.665v-10.5h2.1l3.465,6.976l3.45-6.976h2.085v10.5
				H65.219z"/>
			<path d="M69.629,240.853v-10.5h1.77v10.5H69.629z"/>
			<path d="M80.474,239.249v1.604h-6.315v-10.5h1.77v8.896H80.474z"/>
			<path d="M85.724,236.218l-1.785,1.965v2.67h-1.77v-10.5h1.77v5.431l5.01-5.431h2.085l-4.065,4.485l4.335,6.015h-2.13
				L85.724,236.218z"/>
		</g>
		<g enable-background="new    ">
			<path d="M2.865,256.483l-1.005,2.37H0.015l4.635-10.5h1.815l4.59,10.5h-1.89l-1.005-2.37H2.865z M5.505,250.244l-1.98,4.664h3.96
				L5.505,250.244z"/>
			<path d="M19.815,258.853l-5.595-7.529v7.529h-1.77v-10.5h1.74l5.625,7.545v-7.545h1.74v10.5H19.815z"/>
			<path d="M28.634,248.353c3.15,0,5.43,2.205,5.43,5.25c0,3.03-2.295,5.25-5.475,5.25h-4.26v-10.5H28.634z M26.1,257.263h2.58
				c2.04,0,3.6-1.515,3.6-3.645c0-2.146-1.605-3.675-3.675-3.675H26.1V257.263z"/>
			<path d="M50.085,253.603c0,3-2.43,5.325-5.565,5.325s-5.565-2.325-5.565-5.325c0-3.015,2.43-5.295,5.565-5.295
				S50.085,250.603,50.085,253.603z M40.755,253.603c0,2.085,1.725,3.735,3.78,3.735c2.055,0,3.735-1.65,3.735-3.735
				s-1.68-3.705-3.735-3.705C42.465,249.898,40.755,251.518,40.755,253.603z"/>
			<path d="M55.605,249.944v8.909h-1.77v-8.909H50.52v-1.591h8.415v1.591H55.605z"/>
			<path d="M67.785,258.853v-4.35H62.22v4.35h-1.77v-10.5h1.77v4.561h5.565v-4.561h1.77v10.5H67.785z"/>
			<path d="M74.085,249.944v2.834h5.13v1.591h-5.13v2.895h5.91v1.59h-7.68v-10.5h7.5v1.591H74.085z"/>
			<path d="M86.894,255.673c-0.15,0.015-0.315,0.015-0.48,0.015h-2.49v3.165h-1.77v-10.5h4.26c2.685,0,4.23,1.306,4.23,3.585
				c0,1.681-0.78,2.865-2.175,3.405l2.355,3.51h-2.01L86.894,255.673z M86.414,254.098c1.62,0,2.55-0.689,2.55-2.115
				c0-1.38-0.93-2.039-2.55-2.039h-2.49v4.154H86.414z"/>
		</g>
		<g enable-background="new    ">
			<path d="M7.222,275.131v-3.08h2.94v3.08h1.94v2.561h-1.94v3.161h-2.94v-3.161H0.56v-2.24l4.541-8.602h3.041l-4.281,8.281H7.222z"
				/>
			<path d="M23.122,270.331c0,1.501-1.1,3.081-2.621,4.642l-3.101,3.24h6.202v2.641H13.3v-2.16l5.061-5.361
				c0.86-0.88,1.46-1.86,1.46-2.541c0-0.88-0.68-1.4-1.84-1.4c-1.16,0-2.581,0.681-3.821,1.761l-1.22-2.36
				c1.701-1.301,3.561-2.08,5.501-2.08C21.182,266.711,23.122,268.13,23.122,270.331z"/>
			<path d="M28.221,279.433c0,0.479-0.16,0.88-0.42,1.24l-1.34,2.021h-1.5l0.84-2.021c-0.42-0.301-0.62-0.74-0.62-1.24
				c0-0.921,0.66-1.561,1.54-1.561C27.521,277.873,28.221,278.432,28.221,279.433z"/>
			<path d="M30.02,279.873l1.201-2.32c0.84,0.58,1.92,0.9,3,0.9c2.4,0,3.541-1.58,3.48-4.061c-0.68,1.02-1.88,1.64-3.5,1.64
				c-2.781,0-4.501-1.8-4.501-4.521c0-2.961,2.021-4.801,5.121-4.801c3.681,0,5.941,2.62,5.941,6.921
				c0,4.461-2.481,7.361-6.341,7.361C32.921,280.993,31.18,280.553,30.02,279.873z M37.321,271.471c0.02-1.08-0.74-2.121-2.36-2.121
				c-1.42,0-2.321,0.78-2.321,2.181c0,1.301,0.82,2.081,2.241,2.081C36.441,273.612,37.341,272.671,37.321,271.471z"/>
			<path d="M49.881,270.991c0,2.621-1.46,4.241-3.841,4.241c-2.36,0-3.821-1.62-3.821-4.241c0-2.601,1.46-4.201,3.821-4.201
				C48.421,266.79,49.881,268.39,49.881,270.991z M44.2,270.991c0,1.58,0.68,2.501,1.84,2.501c1.18,0,1.86-0.921,1.86-2.501
				c0-1.54-0.68-2.48-1.86-2.48C44.88,268.51,44.2,269.451,44.2,270.991z M55.163,266.85h2.88l-10.082,14.003h-2.92L55.163,266.85z
				 M61.004,276.692c0,2.621-1.46,4.221-3.841,4.221c-2.361,0-3.821-1.6-3.821-4.221c0-2.601,1.46-4.221,3.821-4.221
				C59.544,272.471,61.004,274.091,61.004,276.692z M55.322,276.692c0,1.561,0.68,2.501,1.841,2.501c1.18,0,1.86-0.94,1.86-2.501
				s-0.68-2.5-1.86-2.5C56.003,274.192,55.322,275.131,55.322,276.692z"/>
		</g>
		<path fill="none" stroke="#000000" stroke-miterlimit="10" d="M195.018,216.135"/>
		<path fill="none" stroke="#000000" stroke-miterlimit="10" d="M206.016,239.534c13.461-6.338,25.129-15.858,34.034-27.589
			l-20.618-15.625c-6.392,8.417-14.763,15.249-24.42,19.804L206.016,239.534z"/>
	</g>
</g>
</svg>
