<?xml version="1.0" encoding="utf-8"?>
<!-- Generator: Adobe Illustrator 17.0.0, SVG Export Plug-In . SVG Version: 6.00 Build 0)  -->
<!DOCTYPE svg PUBLIC "-//W3C//DTD SVG 1.1//EN" "http://www.w3.org/Graphics/SVG/1.1/DTD/svg11.dtd">
<svg version="1.1" id="Layer_1" xmlns="http://www.w3.org/2000/svg" xmlns:xlink="http://www.w3.org/1999/xlink" x="0px" y="0px"
	 width="707.836px" height="256.647px" viewBox="0 0 707.836 256.647" enable-background="new 0 0 707.836 256.647"
	 xml:space="preserve">
<g>
	<g>
		<line fill="none" stroke="#333333" stroke-miterlimit="10" x1="41.44" y1="37.165" x2="41.44" y2="232.686"/>
		<line fill="none" stroke="#333333" stroke-miterlimit="10" x1="704.084" y1="232.686" x2="41.44" y2="232.686"/>
	</g>
	<path fill="#FBC19B" d="M45.193,41.022h125.48c6.529,0,12.06,4.543,12.968,10.65l16.386,110.25
		c0.908,6.107,6.439,10.65,12.968,10.65h494.842v56.258l-662.644,0L45.193,41.022z"/>
	<g>
		<path d="M1.583,37.165v-6.8H0V28.77h3.478v8.396H1.583z"/>
		<path d="M12.715,32.956c0,2.746-1.307,4.27-3.658,4.27c-2.375,0-3.67-1.523-3.67-4.27c0-2.735,1.295-4.246,3.67-4.246
			C11.408,28.709,12.715,30.221,12.715,32.956z M7.331,32.956c0,1.979,0.54,2.818,1.727,2.818c1.175,0,1.715-0.84,1.715-2.818
			c0-1.967-0.54-2.795-1.715-2.795C7.87,30.161,7.331,30.988,7.331,32.956z"/>
		<path d="M21.223,32.956c0,2.746-1.307,4.27-3.658,4.27c-2.375,0-3.67-1.523-3.67-4.27c0-2.735,1.295-4.246,3.67-4.246
			C19.916,28.709,21.223,30.221,21.223,32.956z M15.838,32.956c0,1.979,0.54,2.818,1.727,2.818c1.175,0,1.715-0.84,1.715-2.818
			c0-1.967-0.54-2.795-1.715-2.795C16.378,30.161,15.838,30.988,15.838,32.956z"/>
		<path d="M26.877,31.252c0,1.571-0.875,2.542-2.303,2.542c-1.416,0-2.291-0.972-2.291-2.542c0-1.559,0.875-2.519,2.291-2.519
			C26.002,28.734,26.877,29.693,26.877,31.252z M23.471,31.252c0,0.947,0.408,1.499,1.104,1.499c0.708,0,1.115-0.552,1.115-1.499
			c0-0.924-0.408-1.487-1.115-1.487C23.879,29.765,23.471,30.329,23.471,31.252z M30.043,28.77h1.727l-6.044,8.396h-1.751
			L30.043,28.77z M33.545,34.67c0,1.571-0.875,2.531-2.303,2.531c-1.415,0-2.291-0.959-2.291-2.531c0-1.559,0.875-2.531,2.291-2.531
			C32.67,32.14,33.545,33.111,33.545,34.67z M30.14,34.67c0,0.936,0.408,1.499,1.103,1.499c0.708,0,1.116-0.563,1.116-1.499
			s-0.408-1.499-1.116-1.499C30.547,33.171,30.14,33.735,30.14,34.67z"/>
	</g>
	<g>
		<g>
			<path d="M309.286,128.775c1.59,0.226,2.715,1.23,2.715,2.865c0,1.995-1.53,3.39-3.945,3.39c-1.395,0-2.85-0.495-3.795-1.229
				l0.96-1.875c0.78,0.795,1.71,1.215,2.655,1.215c1.155,0,1.815-0.555,1.8-1.47c0-0.945-0.645-1.425-1.814-1.425h-1.605v-1.32
				l2.459-2.564h-3.945v-1.92h6.75v1.41l-2.745,2.865L309.286,128.775z"/>
			<path d="M315.991,126.406v1.845l1.095-0.016c2.37,0,3.899,1.306,3.899,3.181c0,2.189-1.604,3.6-4.08,3.6
				c-1.335,0-2.88-0.51-3.945-1.275l0.945-1.875c0.81,0.811,1.785,1.245,2.73,1.245c1.14,0,1.815-0.569,1.815-1.529
				c0-0.9-0.675-1.41-1.815-1.41c-0.57,0-2.16,0.03-2.835,0.075l0.015-5.82h6.72v1.98H315.991z"/>
			<path d="M327.931,127.531c0,1.965-1.095,3.18-2.88,3.18c-1.77,0-2.865-1.215-2.865-3.18c0-1.95,1.095-3.15,2.865-3.15
				C326.835,124.381,327.931,125.581,327.931,127.531z M323.671,127.531c0,1.185,0.51,1.874,1.38,1.874
				c0.885,0,1.395-0.689,1.395-1.874c0-1.155-0.51-1.86-1.395-1.86C324.181,125.671,323.671,126.376,323.671,127.531z
				 M331.89,124.426h2.16l-7.56,10.5h-2.19L331.89,124.426z M336.27,131.806c0,1.965-1.095,3.165-2.88,3.165
				c-1.77,0-2.865-1.2-2.865-3.165c0-1.95,1.095-3.165,2.865-3.165C335.175,128.641,336.27,129.855,336.27,131.806z M332.01,131.806
				c0,1.17,0.51,1.875,1.38,1.875c0.885,0,1.395-0.705,1.395-1.875s-0.51-1.875-1.395-1.875
				C332.521,129.931,332.01,130.636,332.01,131.806z"/>
		</g>
	</g>
	<g>
		<path d="M48.935,249.232c0,2.747-1.307,4.27-3.658,4.27c-2.375,0-3.67-1.522-3.67-4.27c0-2.734,1.295-4.245,3.67-4.245
			C47.627,244.987,48.935,246.498,48.935,249.232z M43.55,249.232c0,1.979,0.54,2.818,1.727,2.818c1.175,0,1.715-0.839,1.715-2.818
			c0-1.967-0.54-2.794-1.715-2.794C44.089,246.438,43.55,247.266,43.55,249.232z"/>
	</g>
	<g>
		<path d="M250.2,253.442v-6.8h-1.583v-1.596h3.478v8.396H250.2z"/>
		<path d="M261.332,249.232c0,2.747-1.307,4.27-3.658,4.27c-2.375,0-3.67-1.522-3.67-4.27c0-2.734,1.295-4.245,3.67-4.245
			C260.025,244.987,261.332,246.498,261.332,249.232z M255.947,249.232c0,1.979,0.54,2.818,1.727,2.818
			c1.175,0,1.715-0.839,1.715-2.818c0-1.967-0.54-2.794-1.715-2.794C256.487,246.438,255.947,247.266,255.947,249.232z"/>
	</g>
	<g>
		<path d="M450.433,247.134c0,0.899-0.659,1.847-1.571,2.782l-1.858,1.943h3.718v1.583h-6.177v-1.295l3.034-3.215
			c0.516-0.527,0.876-1.115,0.876-1.522c0-0.528-0.408-0.84-1.104-0.84s-1.547,0.407-2.291,1.056l-0.731-1.416
			c1.02-0.779,2.135-1.247,3.298-1.247C449.27,244.963,450.433,245.814,450.433,247.134z"/>
		<path d="M459.155,249.232c0,2.747-1.307,4.27-3.658,4.27c-2.374,0-3.67-1.522-3.67-4.27c0-2.734,1.296-4.245,3.67-4.245
			C457.849,244.987,459.155,246.498,459.155,249.232z M453.771,249.232c0,1.979,0.54,2.818,1.727,2.818
			c1.176,0,1.716-0.839,1.716-2.818c0-1.967-0.54-2.794-1.716-2.794C454.311,246.438,453.771,247.266,453.771,249.232z"/>
	</g>
	<g>
		<path d="M651.566,248.525c1.271,0.18,2.171,0.983,2.171,2.29c0,1.596-1.224,2.711-3.154,2.711c-1.115,0-2.278-0.396-3.034-0.983
			l0.768-1.499c0.624,0.636,1.367,0.972,2.123,0.972c0.923,0,1.451-0.444,1.439-1.176c0-0.756-0.517-1.14-1.451-1.14h-1.284v-1.056
			l1.968-2.051h-3.154v-1.535h5.396v1.128l-2.194,2.291L651.566,248.525z"/>
		<path d="M662.148,249.232c0,2.747-1.307,4.27-3.658,4.27c-2.374,0-3.67-1.522-3.67-4.27c0-2.734,1.296-4.245,3.67-4.245
			C660.842,244.987,662.148,246.498,662.148,249.232z M656.764,249.232c0,1.979,0.54,2.818,1.727,2.818
			c1.176,0,1.716-0.839,1.716-2.818c0-1.967-0.54-2.794-1.716-2.794C657.304,246.438,656.764,247.266,656.764,249.232z"/>
		<path d="M666.423,250.145v2.026h-1.176v-2.026h-2.051v-1.224h2.051v-2.039h1.176v2.039h2.051v1.224H666.423z"/>
		<path d="M672.503,251.541c0-0.41,0.11-0.759,0.331-1.044c0.221-0.286,0.514-0.519,0.879-0.698s0.783-0.313,1.254-0.399
			s0.958-0.129,1.462-0.129v-0.261c0-0.227-0.02-0.421-0.059-0.581s-0.108-0.291-0.208-0.391c-0.1-0.101-0.233-0.174-0.401-0.221
			s-0.381-0.07-0.639-0.07c-0.219,0-0.431,0.017-0.636,0.049s-0.397,0.073-0.577,0.122c-0.18,0.05-0.344,0.103-0.492,0.158
			c-0.148,0.057-0.275,0.108-0.381,0.156h-0.006l-0.293-0.538c0.066-0.062,0.192-0.146,0.378-0.249s0.404-0.205,0.656-0.305
			s0.524-0.186,0.817-0.258s0.58-0.108,0.861-0.108c0.422,0,0.777,0.04,1.066,0.12c0.289,0.081,0.522,0.211,0.7,0.391
			c0.178,0.179,0.306,0.412,0.384,0.698s0.117,0.633,0.117,1.04v3.646h0.715v0.574c-0.074,0.02-0.163,0.041-0.267,0.064
			s-0.214,0.045-0.331,0.064s-0.235,0.037-0.354,0.053s-0.231,0.023-0.337,0.023c-0.113,0-0.209-0.006-0.287-0.018
			s-0.143-0.038-0.193-0.079s-0.088-0.102-0.111-0.182s-0.035-0.187-0.035-0.319v-0.281c-0.066,0.062-0.161,0.144-0.284,0.243
			s-0.27,0.196-0.439,0.29s-0.361,0.175-0.574,0.243s-0.442,0.103-0.688,0.103c-0.27,0-0.527-0.037-0.773-0.111
			s-0.462-0.188-0.647-0.344c-0.186-0.154-0.333-0.352-0.442-0.592C672.558,252.16,672.503,251.874,672.503,251.541z
			 M673.962,251.374c0,0.215,0.028,0.397,0.085,0.548s0.135,0.273,0.234,0.369s0.219,0.165,0.357,0.208s0.288,0.064,0.448,0.064
			c0.09,0,0.192-0.014,0.308-0.041s0.233-0.065,0.354-0.114s0.24-0.105,0.357-0.17s0.225-0.134,0.322-0.208v-2.104
			c-0.453,0-0.836,0.04-1.148,0.12s-0.566,0.186-0.762,0.316s-0.337,0.284-0.425,0.46S673.962,251.183,673.962,251.374z"/>
		<path d="M679.39,254.819c0-0.191,0.031-0.373,0.094-0.545s0.145-0.329,0.246-0.472s0.218-0.268,0.349-0.375
			s0.265-0.196,0.401-0.267c-0.184-0.102-0.324-0.232-0.422-0.393s-0.146-0.357-0.146-0.592c0-0.152,0.022-0.298,0.067-0.437
			s0.108-0.268,0.19-0.387s0.179-0.229,0.29-0.328s0.233-0.187,0.366-0.261c-0.391-0.171-0.69-0.411-0.899-0.722
			s-0.313-0.679-0.313-1.106c0-0.342,0.079-0.646,0.237-0.914s0.367-0.493,0.627-0.677s0.557-0.325,0.891-0.424
			s0.679-0.147,1.034-0.147h0.006c0.418,0,0.795,0.047,1.131,0.141s0.621,0.236,0.855,0.428c0.039-0.046,0.099-0.102,0.179-0.166
			c0.08-0.065,0.177-0.128,0.29-0.188c0.113-0.059,0.244-0.109,0.393-0.151s0.312-0.063,0.492-0.063h0.316v1.125h-1.23
			c0.066,0.128,0.117,0.265,0.152,0.41c0.035,0.145,0.053,0.303,0.053,0.476c0,0.337-0.07,0.645-0.211,0.921
			c-0.141,0.277-0.336,0.515-0.586,0.713c-0.25,0.197-0.544,0.351-0.882,0.459s-0.704,0.162-1.099,0.162h-0.006
			c-0.32,0-0.619-0.033-0.896-0.1c-0.105,0.094-0.19,0.204-0.255,0.331s-0.097,0.259-0.097,0.396c0,0.148,0.026,0.27,0.079,0.363
			s0.133,0.167,0.24,0.22s0.244,0.089,0.41,0.108s0.362,0.029,0.589,0.029h1.277c0.785,0,1.363,0.148,1.734,0.445
			s0.557,0.734,0.557,1.312c0,0.23-0.043,0.453-0.129,0.668s-0.207,0.414-0.363,0.598s-0.343,0.352-0.56,0.504
			s-0.455,0.283-0.715,0.393s-0.537,0.193-0.832,0.252s-0.599,0.088-0.911,0.088h-0.006c-0.547,0-1.01-0.044-1.389-0.132
			s-0.688-0.211-0.926-0.369s-0.41-0.35-0.516-0.574S679.39,255.097,679.39,254.819z M680.702,254.474
			c0,0.227,0.031,0.428,0.094,0.604s0.164,0.325,0.305,0.448s0.324,0.217,0.551,0.281s0.504,0.097,0.832,0.097h0.012
			c0.254,0,0.506-0.03,0.756-0.091s0.474-0.15,0.671-0.27s0.356-0.267,0.478-0.442s0.182-0.381,0.182-0.615
			c0-0.176-0.019-0.329-0.056-0.46s-0.107-0.239-0.211-0.325s-0.248-0.15-0.434-0.193s-0.425-0.064-0.718-0.064h-1.178
			c-0.172,0-0.333-0.007-0.483-0.021s-0.292-0.032-0.425-0.056c-0.102,0.125-0.189,0.277-0.264,0.457
			S680.702,254.22,680.702,254.474z M682.39,250.343c0.23,0,0.426-0.033,0.586-0.099s0.291-0.161,0.393-0.287
			s0.176-0.279,0.223-0.459c0.047-0.181,0.07-0.386,0.07-0.616c0-0.495-0.109-0.856-0.328-1.083
			c-0.219-0.226-0.553-0.339-1.002-0.339h-0.006c-0.199,0-0.38,0.023-0.542,0.071c-0.162,0.047-0.302,0.124-0.419,0.229
			s-0.208,0.246-0.272,0.421c-0.064,0.176-0.097,0.391-0.097,0.646c0,0.212,0.024,0.41,0.073,0.594
			c0.049,0.185,0.127,0.345,0.234,0.481s0.25,0.244,0.428,0.323c0.178,0.078,0.396,0.117,0.653,0.117H682.39z"/>
		<path d="M686.811,250.12c0-0.501,0.078-0.957,0.234-1.367c0.156-0.411,0.374-0.764,0.653-1.057s0.611-0.521,0.996-0.681
			c0.385-0.161,0.806-0.241,1.263-0.241c0.75,0,1.33,0.186,1.74,0.557c0.41,0.372,0.629,0.914,0.656,1.628
			c0.004,0.229,0.001,0.429-0.009,0.6c-0.01,0.172-0.03,0.321-0.062,0.45h-4.061c0.012,0.445,0.073,0.828,0.185,1.148
			s0.256,0.583,0.434,0.788s0.385,0.356,0.621,0.454s0.487,0.146,0.753,0.146c0.168,0,0.338-0.016,0.51-0.047
			s0.337-0.073,0.495-0.126s0.305-0.111,0.439-0.176s0.247-0.132,0.337-0.202l0.246,0.562c-0.109,0.113-0.252,0.224-0.428,0.331
			s-0.37,0.202-0.583,0.284s-0.44,0.148-0.683,0.199s-0.486,0.076-0.732,0.076c-0.504,0-0.944-0.081-1.321-0.244
			c-0.377-0.162-0.69-0.391-0.94-0.686c-0.25-0.296-0.437-0.646-0.56-1.054S686.811,250.609,686.811,250.12z M690.947,249.329
			c0.008-0.067,0.014-0.14,0.018-0.219s0.006-0.15,0.006-0.214c0-0.194-0.023-0.377-0.07-0.548s-0.12-0.321-0.22-0.45
			s-0.229-0.23-0.39-0.305c-0.16-0.073-0.357-0.11-0.592-0.11c-0.199,0-0.385,0.029-0.557,0.088s-0.323,0.159-0.454,0.302
			s-0.236,0.332-0.316,0.568s-0.13,0.532-0.149,0.888H690.947z"/>
	</g>
	<path fill="none" stroke="#000000" stroke-width="2" stroke-miterlimit="10" d="M41.44,44.879h125.48
		c6.529,0,12.06,4.543,12.968,10.65l16.386,110.25c0.908,6.107,6.439,10.65,12.968,10.65h494.842"/>
	<line fill="none" stroke="#000000" stroke-miterlimit="10" x1="209.242" y1="176.428" x2="298.499" y2="134.756"/>
</g>
<g>
	<g>
		<path d="M204.881,2.538v10.191h-2.845V2.538h-3.835V0.126h10.532v2.412H204.881z"/>
		<path d="M218.815,12.729V7.76h-5.708v4.97h-2.845V0.126h2.845v5.257h5.708V0.126h2.845v12.604H218.815z"/>
		<path d="M227.273,2.484v2.737h6.086V7.58h-6.086v2.791h6.95v2.358h-9.795V0.126h9.597v2.358H227.273z"/>
		<path d="M243.275,10.281l-0.99,2.448h-2.935l5.474-12.604h2.935l5.384,12.604h-3.043l-0.99-2.448H243.275z M246.209,3.097
			l-1.998,4.897h3.979L246.209,3.097z"/>
		<path d="M260.25,0.126c2.772,0,4.501,1.206,4.501,3.15c0,1.369-0.828,2.431-2.179,2.773c1.62,0.306,2.629,1.53,2.629,3.187
			c0,2.161-1.818,3.493-4.754,3.493h-5.995V0.126H260.25z M257.297,5.203h2.809c1.062,0,1.729-0.522,1.729-1.404
			c0-0.864-0.666-1.351-1.729-1.351h-2.809V5.203z M257.297,10.407h2.809c1.351,0,2.161-0.559,2.161-1.531
			c0-0.918-0.811-1.476-2.161-1.476h-2.809V10.407z"/>
		<path d="M267.268,12.729V0.126h2.845v12.604H267.268z"/>
		<path d="M281.148,10.245v2.484h-8.246V0.126h2.845v10.119H281.148z"/>
		<path d="M282.837,12.729V0.126h2.845v12.604H282.837z"/>
		<path d="M293.909,2.538v10.191h-2.845V2.538h-3.835V0.126h10.532v2.412H293.909z"/>
		<path d="M305.357,12.729h-2.845V8.732l-4.663-8.606h2.862l3.224,5.653l3.15-5.653h2.863l-4.592,8.534V12.729z"/>
		<path d="M321.052,2.538v10.191h-2.845V2.538h-3.836V0.126h10.533v2.412H321.052z"/>
		<path d="M338.389,6.428c0,3.637-2.917,6.428-6.771,6.428c-3.853,0-6.77-2.772-6.77-6.428c0-3.673,2.917-6.392,6.77-6.392
			C335.472,0.036,338.389,2.772,338.389,6.428z M327.766,6.428c0,2.215,1.782,3.943,3.889,3.943s3.817-1.729,3.817-3.943
			s-1.711-3.907-3.817-3.907C329.531,2.521,327.766,4.213,327.766,6.428z"/>
		<path d="M349.943,0.126c3.907,0,6.626,2.574,6.626,6.302c0,3.709-2.755,6.302-6.735,6.302h-5.239V0.126H349.943z M347.44,10.335
			h2.574c2.107,0,3.655-1.585,3.655-3.89c0-2.322-1.62-3.925-3.781-3.925h-2.448V10.335z"/>
		<path d="M358.438,12.729V0.126h2.845v12.604H358.438z"/>
		<path d="M375,6.374v4.843c-1.332,0.973-3.367,1.639-5.113,1.639c-3.817,0-6.716-2.772-6.716-6.428
			c0-3.637,2.953-6.392,6.878-6.392c1.872,0,3.781,0.72,5.06,1.836l-1.603,2.035c-0.937-0.864-2.232-1.405-3.457-1.405
			c-2.232,0-3.961,1.711-3.961,3.926c0,2.232,1.746,3.943,3.979,3.943c0.757,0,1.657-0.271,2.467-0.685V6.374H375z"/>
		<path d="M380.326,2.484v2.737h6.086V7.58h-6.086v2.791h6.95v2.358h-9.795V0.126h9.597v2.358H380.326z"/>
		<path d="M398.904,1.368l-1.099,2.358c-1.332-0.792-2.916-1.296-3.925-1.296c-0.954,0-1.603,0.342-1.603,1.026
			c0,2.322,6.716,1.026,6.698,5.563c0,2.467-2.143,3.799-4.934,3.799c-2.07,0-4.142-0.792-5.563-1.998l1.134-2.323
			c1.297,1.152,3.133,1.891,4.466,1.891c1.17,0,1.872-0.432,1.872-1.206c0-2.377-6.716-0.99-6.716-5.456
			c0-2.286,1.963-3.727,4.88-3.727C395.88,0,397.644,0.54,398.904,1.368z"/>
		<path d="M406.409,2.538v10.191h-2.845V2.538h-3.835V0.126h10.532v2.412H406.409z"/>
		<path d="M424.374,10.245v2.484h-8.246V0.126h2.845v10.119H424.374z"/>
		<path d="M428.619,10.281l-0.99,2.448h-2.935l5.474-12.604h2.935l5.384,12.604h-3.043l-0.99-2.448H428.619z M431.554,3.097
			l-1.998,4.897h3.979L431.554,3.097z"/>
		<path d="M450.24,2.124l-1.657,2.017c-0.863-0.99-2.106-1.639-3.276-1.639c-2.161,0-3.835,1.675-3.835,3.872
			c0,2.196,1.674,3.889,3.835,3.889c1.134,0,2.377-0.576,3.276-1.477l1.675,1.818c-1.332,1.369-3.259,2.251-5.096,2.251
			c-3.763,0-6.607-2.791-6.607-6.446c0-3.637,2.898-6.373,6.716-6.373C447.089,0.036,448.998,0.846,450.24,2.124z"/>
		<path d="M457.385,2.538v10.191h-2.845V2.538h-3.836V0.126h10.533v2.412H457.385z"/>
		<path d="M474.722,6.428c0,3.637-2.917,6.428-6.771,6.428c-3.853,0-6.77-2.772-6.77-6.428c0-3.673,2.917-6.392,6.77-6.392
			C471.805,0.036,474.722,2.772,474.722,6.428z M464.099,6.428c0,2.215,1.782,3.943,3.889,3.943s3.817-1.729,3.817-3.943
			s-1.711-3.907-3.817-3.907C465.863,2.521,464.099,4.213,464.099,6.428z"/>
		<path d="M485.988,1.368l-1.099,2.358c-1.332-0.792-2.916-1.296-3.925-1.296c-0.954,0-1.603,0.342-1.603,1.026
			c0,2.322,6.716,1.026,6.698,5.563c0,2.467-2.143,3.799-4.934,3.799c-2.07,0-4.142-0.792-5.563-1.998l1.134-2.323
			c1.297,1.152,3.133,1.891,4.466,1.891c1.17,0,1.872-0.432,1.872-1.206c0-2.377-6.716-0.99-6.716-5.456
			c0-2.286,1.963-3.727,4.88-3.727C482.964,0,484.728,0.54,485.988,1.368z"/>
		<path d="M490.9,2.484v2.737h6.086V7.58H490.9v2.791h6.95v2.358h-9.795V0.126h9.597v2.358H490.9z"/>
	</g>
</g>
</svg>
