<?xml version="1.0" encoding="utf-8"?>
<!-- Generator: Adobe Illustrator 17.0.0, SVG Export Plug-In . SVG Version: 6.00 Build 0)  -->
<!DOCTYPE svg PUBLIC "-//W3C//DTD SVG 1.1//EN" "http://www.w3.org/Graphics/SVG/1.1/DTD/svg11.dtd">
<svg version="1.1" id="Layer_1" xmlns="http://www.w3.org/2000/svg" xmlns:xlink="http://www.w3.org/1999/xlink" x="0px" y="0px"
	 width="160px" height="160px" viewBox="0 0 160 160" style="enable-background:new 0 0 160 160;" xml:space="preserve">
<style type="text/css">
	.st0{fill:none;stroke:#FFFFFF;stroke-width:3;stroke-miterlimit:10;}
</style>
<g>
	<path d="M66.6,130c0-0.2,0-0.3,0-0.5c0-15.8,0-31.5,0-47.3c0-0.1,0-0.2,0-0.3c0-0.2-0.1-0.2-0.2-0.2c-0.1,0-0.2,0-0.3,0
		c-3.2,0-6.4,0-9.6,0c-0.5,0-0.5,0-0.5-0.5c0-5.6,0-11.3,0-16.9c0-0.5,0-0.5,0.5-0.5c3.3,0,6.5,0,9.8,0c0.4,0,0.4,0,0.4-0.4
		c0-3.4,0-6.7,0-10.1c0-2.9,0.2-5.9,0.9-8.7c0.7-3.1,2-5.9,4.1-8.3c2.3-2.5,5.1-4.1,8.3-5c1.9-0.6,3.8-0.9,5.8-1
		c1.4-0.1,2.8-0.2,4.2-0.2c4.6,0,9.1,0,13.7,0c0.4,0,0.4,0,0.4,0.4c0,5.7,0,11.3,0,17c0,0.4,0,0.4-0.4,0.4c-3.1,0-6.1,0-9.2,0
		c-1.1,0-2.2,0.1-3.3,0.5c-1.7,0.5-2.6,1.7-2.9,3.4c-0.1,0.8-0.2,1.7-0.2,2.6c0,3.1,0,6.1,0,9.2c0,0.3,0.1,0.4,0.4,0.4
		c5.1,0,10.1,0,15.2,0c0.2,0,0.3,0,0.5,0c-0.6,6-1.3,11.9-1.9,17.8c-0.2,0-0.3,0-0.4,0c-4.4,0-8.9,0-13.3,0c-0.4,0-0.4,0-0.4,0.4
		c0,15.8,0,31.6,0,47.4c0,0.2,0,0.3,0,0.5C80.9,130,73.7,130,66.6,130z"/>
</g>
</svg>
