<?xml version="1.0" encoding="utf-8"?>
<!-- Generator: Adobe Illustrator 17.0.0, SVG Export Plug-In . SVG Version: 6.00 Build 0)  -->
<!DOCTYPE svg PUBLIC "-//W3C//DTD SVG 1.1//EN" "http://www.w3.org/Graphics/SVG/1.1/DTD/svg11.dtd">
<svg version="1.1" id="Layer_1" xmlns="http://www.w3.org/2000/svg" xmlns:xlink="http://www.w3.org/1999/xlink" x="0px" y="0px"
	 width="160px" height="160px" viewBox="0 0 160 160" style="enable-background:new 0 0 160 160;" xml:space="preserve">
<style type="text/css">
	.st0{fill:none;stroke:#FFFFFF;stroke-width:3;stroke-miterlimit:10;}
</style>
<g>
	<g>
		<g>
			<path d="M51.3,70.1v19.8c0,0,19.2,0,27,0c-4.2,12.8-10.8,19.8-27,19.8c-16.4,0-29.2-13.3-29.2-29.7c0-16.4,12.8-29.7,29.2-29.7
				c8.7,0,14.3,3,19.4,7.3c4.1-4.1,3.8-4.7,14.2-14.6c-8.9-8.1-20.7-13-33.6-13c-27.6,0-50,22.4-50,50c0,27.6,22.4,50,50,50
				c41.3,0,51.4-35.9,48-59.9C89.5,70.1,51.3,70.1,51.3,70.1z M141.4,71.1V53.8H129v17.3h-17.8v12.4H129v17.8h12.4V83.5h17.3V71.1
				H141.4z"/>
		</g>
	</g>
</g>
</svg>
