<?xml version="1.0" encoding="utf-8"?>
<!-- Generator: Adobe Illustrator 17.0.0, SVG Export Plug-In . SVG Version: 6.00 Build 0)  -->
<!DOCTYPE svg PUBLIC "-//W3C//DTD SVG 1.1//EN" "http://www.w3.org/Graphics/SVG/1.1/DTD/svg11.dtd">
<svg version="1.1" id="Layer_1" xmlns="http://www.w3.org/2000/svg" xmlns:xlink="http://www.w3.org/1999/xlink" x="0px" y="0px"
	 width="582.694px" height="550.738px" viewBox="0 0 582.694 550.738" enable-background="new 0 0 582.694 550.738"
	 xml:space="preserve">
<line opacity="0.5" fill="none" stroke="#666666" stroke-miterlimit="10" x1="222.237" y1="507.426" x2="222.237" y2="39.252"/>
<line opacity="0.5" fill="none" stroke="#666666" stroke-miterlimit="10" x1="251.912" y1="507.426" x2="251.912" y2="40.403"/>
<line opacity="0.5" fill="none" stroke="#666666" stroke-miterlimit="10" x1="282.145" y1="507.426" x2="282.145" y2="40.403"/>
<line opacity="0.5" fill="none" stroke="#666666" stroke-miterlimit="10" x1="311.812" y1="507.426" x2="311.812" y2="40.403"/>
<line opacity="0.5" fill="none" stroke="#666666" stroke-miterlimit="10" x1="341.579" y1="507.426" x2="341.579" y2="40.403"/>
<line opacity="0.5" fill="none" stroke="#666666" stroke-miterlimit="10" x1="371.379" y1="507.426" x2="371.379" y2="40.403"/>
<line opacity="0.5" fill="none" stroke="#666666" stroke-miterlimit="10" x1="401.129" y1="507.426" x2="401.129" y2="40.403"/>
<line opacity="0.5" fill="none" stroke="#666666" stroke-miterlimit="10" x1="431.245" y1="507.426" x2="431.245" y2="40.403"/>
<line opacity="0.5" fill="none" stroke="#666666" stroke-miterlimit="10" x1="460.645" y1="507.426" x2="460.645" y2="40.403"/>
<line opacity="0.5" fill="none" stroke="#666666" stroke-miterlimit="10" x1="490.812" y1="507.426" x2="490.812" y2="40.403"/>
<line opacity="0.5" fill="none" stroke="#666666" stroke-miterlimit="10" x1="520.545" y1="507.426" x2="520.545" y2="40.403"/>
<line opacity="0.5" fill="none" stroke="#666666" stroke-miterlimit="10" x1="550.279" y1="507.426" x2="550.279" y2="40.403"/>
<line opacity="0.5" fill="none" stroke="#666666" stroke-miterlimit="10" x1="580.059" y1="476.446" x2="580.059" y2="40.403"/>
<g>
	<path d="M178.829,390.979l-0.141-0.967h-7.342l-0.146,0.984h-0.65v-6.398l2.051-0.123v0.85l-1.342,0.387v2.924h3.363v-2.039
		l-0.996-0.234v-0.721h2.795v0.721l-1.025,0.234v2.039h3.293l0.141-1.781h0.639v4.125H178.829z"/>
	<path d="M178.835,383.454l-0.092-0.92h-4.748l-0.234,0.832h-0.703l-0.234-1.676v-0.029l0.229-0.281h0.385l0.794,0.012v-0.012
		c-0.041-0.02-0.104-0.061-0.191-0.121s-0.183-0.139-0.288-0.234s-0.214-0.207-0.328-0.336c-0.113-0.129-0.216-0.273-0.309-0.432
		c-0.093-0.158-0.169-0.328-0.228-0.512s-0.088-0.381-0.088-0.592c0-0.09,0.006-0.166,0.018-0.229s0.028-0.115,0.048-0.158h1.482
		c-0.05,0.066-0.095,0.16-0.135,0.281s-0.06,0.258-0.06,0.41c0,0.219,0.016,0.416,0.046,0.594s0.072,0.338,0.123,0.48
		s0.109,0.27,0.172,0.379c0.064,0.109,0.126,0.205,0.188,0.287h4.105v-1.541h0.68v3.797H178.835z"/>
	<path d="M176.145,377.854c-0.5,0-0.956-0.078-1.367-0.234c-0.411-0.156-0.763-0.373-1.056-0.652
		c-0.293-0.279-0.52-0.611-0.681-0.996s-0.241-0.807-0.241-1.264c0-0.75,0.186-1.33,0.557-1.74c0.371-0.41,0.914-0.629,1.627-0.656
		c0.229-0.004,0.429,0,0.6,0.01s0.321,0.029,0.45,0.061v4.061c0.445-0.012,0.828-0.072,1.148-0.184s0.583-0.256,0.788-0.434
		s0.356-0.385,0.454-0.621s0.146-0.488,0.146-0.754c0-0.168-0.016-0.338-0.047-0.51s-0.073-0.336-0.126-0.494
		s-0.111-0.305-0.176-0.439s-0.132-0.248-0.202-0.338l0.562-0.246c0.113,0.109,0.224,0.252,0.331,0.428s0.202,0.371,0.284,0.584
		s0.148,0.439,0.199,0.682s0.076,0.486,0.076,0.732c0,0.504-0.081,0.945-0.244,1.322s-0.391,0.689-0.687,0.939
		c-0.295,0.25-0.646,0.438-1.053,0.561S176.635,377.854,176.145,377.854z M175.355,373.718c-0.067-0.008-0.14-0.014-0.219-0.018
		s-0.15-0.006-0.214-0.006c-0.194,0-0.377,0.023-0.548,0.07c-0.171,0.047-0.321,0.121-0.45,0.221c-0.129,0.1-0.23,0.229-0.304,0.389
		s-0.111,0.357-0.111,0.592c0,0.199,0.029,0.385,0.088,0.557c0.059,0.172,0.16,0.324,0.302,0.455
		c0.143,0.131,0.332,0.236,0.568,0.316s0.532,0.129,0.888,0.148V373.718z"/>
	<path d="M179.474,368.601c0,0.34-0.062,0.668-0.188,0.984c-0.125,0.316-0.318,0.596-0.577,0.838c-0.26,0.242-0.59,0.436-0.992,0.58
		c-0.401,0.145-0.879,0.217-1.432,0.217c-0.485,0-0.94-0.078-1.364-0.234s-0.793-0.383-1.107-0.68
		c-0.313-0.297-0.561-0.659-0.742-1.087s-0.272-0.913-0.272-1.456c0-0.27,0.021-0.534,0.064-0.794s0.092-0.487,0.146-0.683
		l-0.188-0.65v-0.012l0.229-0.252h8.549l0.139-0.814h0.634v3.41h-0.634l-0.139-1.266h-1.944l-1.021-0.041
		c0.105,0.102,0.208,0.22,0.308,0.354s0.189,0.283,0.27,0.445s0.144,0.339,0.19,0.53S179.474,368.386,179.474,368.601z
		 M178.595,368.062c0-0.156-0.019-0.304-0.055-0.442c-0.037-0.139-0.083-0.266-0.138-0.381c-0.055-0.115-0.115-0.219-0.181-0.311
		s-0.128-0.167-0.187-0.226h-4.191c-0.048,0.023-0.095,0.07-0.139,0.141s-0.085,0.157-0.121,0.261s-0.065,0.219-0.088,0.346
		c-0.022,0.127-0.033,0.259-0.033,0.396c0,0.266,0.047,0.516,0.141,0.75s0.246,0.438,0.456,0.612
		c0.21,0.174,0.482,0.312,0.816,0.416c0.334,0.104,0.738,0.157,1.214,0.161c0.431,0.008,0.804-0.033,1.117-0.123
		s0.573-0.213,0.78-0.369s0.359-0.34,0.459-0.551S178.595,368.304,178.595,368.062z"/>
	<path d="M173.486,363.16l-0.217,0.65H172.7l-0.176-1.734v-0.006l0.158-0.246h4.137c0.32,0,0.593-0.017,0.817-0.05
		s0.407-0.094,0.548-0.182s0.242-0.208,0.305-0.36s0.094-0.348,0.094-0.586c0-0.172-0.02-0.335-0.059-0.489
		s-0.088-0.296-0.146-0.425s-0.121-0.246-0.188-0.352s-0.129-0.193-0.188-0.264h-4.512l-0.229,0.838h-0.568l-0.17-1.852v-0.012
		l0.158-0.311h5.994v-0.703h0.586c0.043,0.137,0.089,0.303,0.138,0.498s0.073,0.416,0.073,0.662c0,0.242-0.046,0.425-0.138,0.548
		s-0.255,0.185-0.489,0.185h-0.305c0.105,0.105,0.213,0.235,0.322,0.39s0.209,0.323,0.299,0.507s0.164,0.379,0.223,0.586
		s0.088,0.416,0.088,0.627c0,0.363-0.048,0.676-0.144,0.938s-0.247,0.478-0.454,0.647s-0.475,0.295-0.803,0.375
		s-0.725,0.12-1.189,0.12H173.486z"/>
	<path d="M176.145,356.015c-0.5,0-0.956-0.078-1.367-0.234c-0.411-0.156-0.763-0.374-1.056-0.653
		c-0.293-0.279-0.52-0.611-0.681-0.996s-0.241-0.806-0.241-1.263c0-0.75,0.186-1.33,0.557-1.74c0.371-0.41,0.914-0.629,1.627-0.656
		c0.229-0.004,0.429-0.001,0.6,0.009s0.321,0.03,0.45,0.062v4.061c0.445-0.012,0.828-0.073,1.148-0.185s0.583-0.256,0.788-0.434
		s0.356-0.385,0.454-0.621s0.146-0.487,0.146-0.753c0-0.168-0.016-0.338-0.047-0.51s-0.073-0.337-0.126-0.495
		s-0.111-0.305-0.176-0.439s-0.132-0.247-0.202-0.337l0.562-0.246c0.113,0.109,0.224,0.252,0.331,0.428s0.202,0.37,0.284,0.583
		s0.148,0.44,0.199,0.683s0.076,0.486,0.076,0.732c0,0.504-0.081,0.944-0.244,1.321s-0.391,0.69-0.687,0.94
		c-0.295,0.25-0.646,0.437-1.053,0.56S176.635,356.015,176.145,356.015z M175.355,351.878c-0.067-0.008-0.14-0.014-0.219-0.018
		s-0.15-0.006-0.214-0.006c-0.194,0-0.377,0.023-0.548,0.07c-0.171,0.047-0.321,0.12-0.45,0.22c-0.129,0.1-0.23,0.229-0.304,0.39
		s-0.111,0.357-0.111,0.592c0,0.199,0.029,0.385,0.088,0.557c0.059,0.172,0.16,0.323,0.302,0.454
		c0.143,0.131,0.332,0.236,0.568,0.316s0.532,0.13,0.888,0.149V351.878z"/>
	<path d="M178.849,349.279l-0.097-0.768h-4.756l-0.228,0.838h-0.74l-0.234-1.734v-0.029l0.229-0.275h0.498l0.283,0.006
		c-0.122-0.129-0.242-0.287-0.362-0.475c-0.119-0.188-0.227-0.39-0.322-0.606s-0.172-0.441-0.231-0.674
		c-0.059-0.232-0.088-0.458-0.088-0.677c0-0.383,0.052-0.698,0.155-0.946c0.104-0.248,0.265-0.444,0.485-0.589
		s0.501-0.245,0.844-0.302c0.343-0.057,0.751-0.085,1.226-0.085h3.243l0.097-0.844h0.619v2.941h-0.619l-0.097-0.75h-3.237
		c-0.309,0-0.577,0.015-0.803,0.044c-0.227,0.029-0.415,0.086-0.563,0.17c-0.148,0.084-0.259,0.203-0.332,0.357
		c-0.073,0.154-0.109,0.356-0.109,0.606c0,0.148,0.018,0.3,0.054,0.454c0.037,0.154,0.084,0.305,0.145,0.451
		s0.129,0.286,0.205,0.419c0.077,0.133,0.155,0.252,0.235,0.357h4.405l0.097-0.809h0.619v2.918H178.849z"/>
	<path d="M176.258,341.249c-0.471,0-0.916-0.07-1.334-0.211c-0.418-0.141-0.785-0.352-1.101-0.635
		c-0.315-0.283-0.565-0.637-0.748-1.059c-0.183-0.422-0.274-0.912-0.274-1.471c0-0.203,0.014-0.396,0.041-0.58
		s0.06-0.354,0.097-0.51s0.077-0.295,0.12-0.416s0.078-0.221,0.105-0.299l1.721,0.059v0.814l-1.034,0.27
		c-0.125,0.055-0.217,0.166-0.273,0.334c-0.058,0.168-0.086,0.359-0.086,0.574c0,0.254,0.049,0.484,0.146,0.691
		s0.244,0.387,0.439,0.537s0.44,0.266,0.735,0.348s0.638,0.123,1.028,0.123c0.479,0.004,0.891-0.045,1.236-0.146
		s0.627-0.238,0.849-0.412c0.221-0.174,0.384-0.377,0.489-0.609c0.105-0.232,0.158-0.482,0.158-0.748
		c0-0.184-0.015-0.357-0.044-0.523s-0.067-0.32-0.113-0.461c-0.045-0.141-0.097-0.27-0.154-0.387
		c-0.057-0.117-0.114-0.219-0.173-0.305l0.507-0.252c0.105,0.102,0.21,0.23,0.313,0.387s0.197,0.334,0.281,0.531
		s0.152,0.406,0.205,0.629s0.079,0.449,0.079,0.68c0,0.508-0.082,0.951-0.247,1.33s-0.39,0.695-0.678,0.949
		c-0.288,0.254-0.627,0.445-1.02,0.572S176.713,341.245,176.258,341.249z"/>
	<path d="M181.235,334.476c0.011-0.053,0.021-0.111,0.031-0.178s0.017-0.135,0.022-0.205c0.005-0.07,0.008-0.137,0.008-0.199
		c0-0.152-0.021-0.307-0.062-0.461s-0.127-0.307-0.257-0.459s-0.315-0.307-0.556-0.461s-0.559-0.307-0.954-0.459v0.662l-5.889,2.191
		l-0.152,0.557h-0.621v-2.982h0.621l0.152,0.92l3.539-1.131l1.699-0.521l-1.705-0.469l-3.539-1.061l-0.146,0.785h-0.621v-2.461
		h0.621l0.145,0.598c1.821,0.594,3.231,1.061,4.233,1.402c1.001,0.342,1.604,0.559,1.81,0.648c0.457,0.184,0.858,0.363,1.203,0.539
		s0.633,0.367,0.866,0.574s0.407,0.439,0.523,0.697s0.174,0.559,0.174,0.902c0,0.059,0,0.121,0,0.189s-0.005,0.135-0.015,0.199
		s-0.02,0.123-0.029,0.176s-0.021,0.094-0.032,0.121h-1.108C181.211,334.567,181.223,334.528,181.235,334.476z"/>
	<path d="M171.403,323.103c-0.041,0.096-0.098,0.178-0.17,0.244s-0.157,0.117-0.255,0.154s-0.203,0.057-0.316,0.057
		c-0.125,0-0.244-0.02-0.357-0.057s-0.214-0.092-0.302-0.166s-0.158-0.166-0.211-0.275s-0.079-0.236-0.079-0.381v-0.006
		c0-0.129,0.022-0.244,0.067-0.344s0.105-0.184,0.182-0.252s0.163-0.119,0.261-0.154s0.199-0.053,0.305-0.053
		c0.129,0,0.251,0.018,0.366,0.055s0.215,0.094,0.299,0.17s0.15,0.172,0.199,0.287s0.073,0.25,0.073,0.402v0.006
		C171.464,322.903,171.444,323.007,171.403,323.103z M178.829,324.226l-0.1-0.949h-4.91l-0.24,0.85h-0.691l-0.24-1.863v-0.029
		l0.229-0.299h5.854l0.1-0.938h0.639v3.229H178.829z"/>
	<path d="M178.849,319.951l-0.097-0.768h-4.756l-0.228,0.838h-0.74l-0.234-1.734v-0.029l0.229-0.275h0.498l0.283,0.006
		c-0.122-0.129-0.242-0.287-0.362-0.475c-0.119-0.188-0.227-0.39-0.322-0.606s-0.172-0.441-0.231-0.674
		c-0.059-0.232-0.088-0.458-0.088-0.677c0-0.383,0.052-0.698,0.155-0.946c0.104-0.248,0.265-0.444,0.485-0.589
		s0.501-0.245,0.844-0.302c0.343-0.057,0.751-0.085,1.226-0.085h3.243l0.097-0.844h0.619v2.941h-0.619l-0.097-0.75h-3.237
		c-0.309,0-0.577,0.015-0.803,0.044c-0.227,0.029-0.415,0.086-0.563,0.17c-0.148,0.084-0.259,0.203-0.332,0.357
		c-0.073,0.154-0.109,0.356-0.109,0.606c0,0.148,0.018,0.3,0.054,0.454c0.037,0.154,0.084,0.305,0.145,0.451
		s0.129,0.286,0.205,0.419c0.077,0.133,0.155,0.252,0.235,0.357h4.405l0.097-0.809h0.619v2.918H178.849z"/>
	<path d="M179.474,309.261c0,0.348-0.063,0.679-0.19,0.993s-0.32,0.592-0.58,0.832s-0.588,0.432-0.986,0.574
		c-0.397,0.143-0.867,0.214-1.409,0.214c-0.485,0-0.941-0.078-1.367-0.234s-0.798-0.383-1.115-0.68s-0.568-0.659-0.751-1.087
		c-0.183-0.428-0.274-0.913-0.274-1.456c0-0.191,0.011-0.376,0.032-0.554s0.048-0.347,0.079-0.507h-2.186l-0.117,1.178h-0.568
		l-0.234-2.186v-0.035l0.211-0.287h8.643v-0.691h0.609c0.043,0.164,0.088,0.358,0.135,0.583s0.07,0.46,0.07,0.706
		c0,0.105-0.007,0.197-0.021,0.275c-0.013,0.078-0.042,0.144-0.084,0.196c-0.043,0.053-0.104,0.092-0.184,0.117
		s-0.183,0.038-0.312,0.038h-0.308c0.112,0.105,0.223,0.227,0.332,0.363c0.109,0.137,0.206,0.289,0.291,0.457
		s0.154,0.352,0.207,0.551S179.474,309.034,179.474,309.261z M178.659,308.722c0-0.156-0.021-0.304-0.062-0.442
		c-0.042-0.139-0.095-0.267-0.16-0.384s-0.136-0.221-0.213-0.311c-0.078-0.09-0.154-0.166-0.229-0.229h-4.131
		c-0.049,0.031-0.096,0.083-0.141,0.155c-0.044,0.072-0.084,0.16-0.119,0.264s-0.062,0.217-0.082,0.34
		c-0.021,0.123-0.031,0.251-0.031,0.384c0,0.266,0.048,0.515,0.144,0.747s0.249,0.436,0.461,0.609s0.487,0.312,0.827,0.413
		s0.752,0.156,1.24,0.164c0.439,0.008,0.816-0.032,1.131-0.12s0.573-0.209,0.776-0.363c0.202-0.154,0.352-0.337,0.447-0.548
		C178.612,309.19,178.659,308.964,178.659,308.722z"/>
	<path d="M176.145,304.301c-0.5,0-0.956-0.078-1.367-0.234c-0.411-0.156-0.763-0.374-1.056-0.653
		c-0.293-0.279-0.52-0.611-0.681-0.996s-0.241-0.806-0.241-1.263c0-0.75,0.186-1.33,0.557-1.74c0.371-0.41,0.914-0.629,1.627-0.656
		c0.229-0.004,0.429-0.001,0.6,0.009s0.321,0.03,0.45,0.062v4.061c0.445-0.012,0.828-0.073,1.148-0.185s0.583-0.256,0.788-0.434
		s0.356-0.385,0.454-0.621s0.146-0.487,0.146-0.753c0-0.168-0.016-0.338-0.047-0.51s-0.073-0.337-0.126-0.495
		s-0.111-0.305-0.176-0.439s-0.132-0.247-0.202-0.337l0.562-0.246c0.113,0.109,0.224,0.252,0.331,0.428s0.202,0.37,0.284,0.583
		s0.148,0.44,0.199,0.683s0.076,0.486,0.076,0.732c0,0.504-0.081,0.944-0.244,1.321s-0.391,0.69-0.687,0.94
		c-0.295,0.25-0.646,0.437-1.053,0.56S176.635,304.301,176.145,304.301z M175.355,300.164c-0.067-0.008-0.14-0.014-0.219-0.018
		s-0.15-0.006-0.214-0.006c-0.194,0-0.377,0.023-0.548,0.07c-0.171,0.047-0.321,0.12-0.45,0.22c-0.129,0.1-0.23,0.229-0.304,0.39
		s-0.111,0.357-0.111,0.592c0,0.199,0.029,0.385,0.088,0.557c0.059,0.172,0.16,0.323,0.302,0.454
		c0.143,0.131,0.332,0.236,0.568,0.316s0.532,0.13,0.888,0.149V300.164z"/>
	<path d="M178.847,298.081l-0.111-0.803l-2.596-2.033l-2.561,1.98l-0.152,0.691h-0.621v-3.105h0.621l0.152,0.809l1.441-1.031
		l0.527-0.346l-0.521-0.299l-1.447-1.078l-0.152,0.861h-0.621v-2.584h0.621l0.152,0.732l2.414,1.928l2.748-2.074l0.105-0.686h0.621
		v3.123h-0.621l-0.111-0.768l-1.547,1.055l-0.539,0.369l0.521,0.299l1.559,1.084l0.117-0.967h0.621v2.842H178.847z"/>
	<path d="M176.134,286.714c-0.534,0-1.008-0.09-1.423-0.271c-0.415-0.182-0.763-0.422-1.045-0.719
		c-0.282-0.297-0.497-0.635-0.645-1.016c-0.147-0.381-0.221-0.771-0.221-1.17c0-0.527,0.086-0.982,0.258-1.365
		s0.407-0.697,0.706-0.943s0.652-0.428,1.059-0.547s0.846-0.18,1.317-0.18c0.542,0,1.02,0.09,1.435,0.27
		c0.415,0.18,0.763,0.418,1.045,0.715s0.495,0.637,0.639,1.02c0.144,0.383,0.216,0.775,0.216,1.178c0,0.527-0.086,0.982-0.258,1.363
		s-0.407,0.693-0.706,0.939s-0.652,0.43-1.059,0.549S176.605,286.714,176.134,286.714z M178.747,283.608
		c0-1.082-0.836-1.623-2.508-1.623c-0.388,0-0.747,0.029-1.077,0.088c-0.33,0.059-0.617,0.152-0.861,0.281
		c-0.243,0.129-0.434,0.297-0.57,0.502c-0.137,0.205-0.205,0.455-0.205,0.752c0,0.535,0.208,0.941,0.625,1.217
		s1.044,0.412,1.882,0.412c0.388,0,0.748-0.029,1.08-0.09s0.619-0.156,0.861-0.285s0.431-0.297,0.568-0.504
		C178.679,284.151,178.747,283.901,178.747,283.608z"/>
	<path d="M178.835,279.399l-0.111-0.99h-5.074v1.119h-0.58l-0.264-1.119h-0.524c-0.36,0-0.697-0.08-1.009-0.24
		s-0.584-0.373-0.816-0.637c-0.232-0.264-0.414-0.562-0.546-0.896s-0.199-0.674-0.199-1.021c0-0.195,0.011-0.346,0.032-0.449
		s0.042-0.188,0.062-0.254h1.295c-0.026,0.031-0.055,0.082-0.088,0.152s-0.064,0.154-0.094,0.252
		c-0.029,0.098-0.054,0.209-0.075,0.334c-0.02,0.125-0.03,0.258-0.03,0.398c0,0.191,0.016,0.352,0.048,0.482
		c0.032,0.131,0.088,0.236,0.168,0.316s0.189,0.139,0.326,0.174c0.137,0.035,0.312,0.053,0.526,0.053l0.924-0.006v-1.611h0.844
		v1.611h5.08l0.105-1.271h0.633v3.604H178.835z"/>
	<path d="M178.835,270.675l-0.092-0.92h-4.748l-0.234,0.832h-0.703l-0.234-1.676v-0.029l0.229-0.281h0.385l0.794,0.012v-0.012
		c-0.041-0.02-0.104-0.06-0.191-0.12s-0.183-0.139-0.288-0.234s-0.214-0.208-0.328-0.337c-0.113-0.129-0.216-0.272-0.309-0.431
		c-0.093-0.158-0.169-0.329-0.228-0.513s-0.088-0.381-0.088-0.592c0-0.09,0.006-0.166,0.018-0.229s0.028-0.115,0.048-0.158h1.482
		c-0.05,0.066-0.095,0.16-0.135,0.281s-0.06,0.258-0.06,0.41c0,0.219,0.016,0.417,0.046,0.595s0.072,0.338,0.123,0.48
		s0.109,0.269,0.172,0.378c0.064,0.109,0.126,0.205,0.188,0.287h4.105v-1.541h0.68v3.797H178.835z"/>
	<path d="M176.145,265.076c-0.5,0-0.956-0.078-1.367-0.234c-0.411-0.156-0.763-0.374-1.056-0.653
		c-0.293-0.279-0.52-0.611-0.681-0.996s-0.241-0.806-0.241-1.263c0-0.75,0.186-1.33,0.557-1.74c0.371-0.41,0.914-0.629,1.627-0.656
		c0.229-0.004,0.429-0.001,0.6,0.009s0.321,0.03,0.45,0.062v4.061c0.445-0.012,0.828-0.073,1.148-0.185s0.583-0.256,0.788-0.434
		s0.356-0.385,0.454-0.621s0.146-0.487,0.146-0.753c0-0.168-0.016-0.338-0.047-0.51s-0.073-0.337-0.126-0.495
		s-0.111-0.305-0.176-0.439s-0.132-0.247-0.202-0.337l0.562-0.246c0.113,0.109,0.224,0.252,0.331,0.428s0.202,0.37,0.284,0.583
		s0.148,0.44,0.199,0.683s0.076,0.486,0.076,0.732c0,0.504-0.081,0.944-0.244,1.321s-0.391,0.69-0.687,0.94
		c-0.295,0.25-0.646,0.437-1.053,0.56S176.635,265.076,176.145,265.076z M175.355,260.939c-0.067-0.008-0.14-0.014-0.219-0.018
		s-0.15-0.006-0.214-0.006c-0.194,0-0.377,0.023-0.548,0.07c-0.171,0.047-0.321,0.12-0.45,0.22c-0.129,0.1-0.23,0.229-0.304,0.39
		s-0.111,0.357-0.111,0.592c0,0.199,0.029,0.385,0.088,0.557c0.059,0.172,0.16,0.323,0.302,0.454
		c0.143,0.131,0.332,0.236,0.568,0.316s0.532,0.13,0.888,0.149V260.939z"/>
	<path d="M177.501,258.241v-0.826l0.848-0.234c0.056-0.035,0.112-0.096,0.167-0.182s0.106-0.188,0.15-0.305s0.08-0.247,0.106-0.39
		s0.039-0.288,0.039-0.437c0-0.234-0.022-0.431-0.067-0.589s-0.107-0.284-0.188-0.378c-0.08-0.094-0.174-0.16-0.283-0.199
		s-0.227-0.059-0.354-0.059c-0.149,0-0.283,0.037-0.401,0.111s-0.23,0.186-0.336,0.334c-0.107,0.148-0.211,0.333-0.314,0.554
		c-0.103,0.221-0.21,0.479-0.322,0.776c-0.112,0.301-0.233,0.563-0.364,0.788s-0.279,0.411-0.443,0.56s-0.348,0.259-0.549,0.331
		c-0.202,0.072-0.432,0.108-0.69,0.108s-0.491-0.062-0.698-0.185s-0.386-0.294-0.536-0.513c-0.149-0.219-0.264-0.478-0.345-0.776
		s-0.121-0.624-0.121-0.976c0-0.254,0.016-0.486,0.047-0.697c0.031-0.211,0.068-0.398,0.109-0.562
		c0.041-0.164,0.083-0.307,0.124-0.428c0.042-0.121,0.072-0.221,0.092-0.299h1.424v0.75l-0.782,0.252
		c-0.045,0.023-0.089,0.066-0.131,0.129c-0.043,0.062-0.081,0.14-0.115,0.231s-0.061,0.195-0.081,0.311s-0.031,0.235-0.031,0.36
		c0,0.191,0.02,0.359,0.059,0.504c0.039,0.145,0.093,0.266,0.162,0.363c0.069,0.098,0.153,0.171,0.252,0.22
		c0.099,0.049,0.206,0.073,0.322,0.073c0.187,0,0.343-0.044,0.468-0.132c0.125-0.088,0.235-0.204,0.331-0.349s0.18-0.31,0.255-0.495
		s0.153-0.378,0.235-0.577c0.108-0.262,0.222-0.517,0.342-0.765s0.258-0.467,0.415-0.656s0.339-0.342,0.546-0.457
		c0.207-0.115,0.457-0.173,0.748-0.173c0.28,0,0.536,0.059,0.768,0.176c0.231,0.117,0.43,0.286,0.597,0.507
		c0.166,0.221,0.294,0.49,0.384,0.809c0.089,0.318,0.134,0.681,0.134,1.087c0,0.223-0.018,0.449-0.053,0.68
		s-0.079,0.449-0.132,0.656s-0.107,0.395-0.164,0.562s-0.108,0.303-0.155,0.404H177.501z"/>
	<path d="M176.145,252.209c-0.5,0-0.956-0.078-1.367-0.234c-0.411-0.156-0.763-0.374-1.056-0.653
		c-0.293-0.279-0.52-0.611-0.681-0.996s-0.241-0.806-0.241-1.263c0-0.75,0.186-1.33,0.557-1.74c0.371-0.41,0.914-0.629,1.627-0.656
		c0.229-0.004,0.429-0.001,0.6,0.009s0.321,0.03,0.45,0.062v4.061c0.445-0.012,0.828-0.073,1.148-0.185s0.583-0.256,0.788-0.434
		s0.356-0.385,0.454-0.621s0.146-0.487,0.146-0.753c0-0.168-0.016-0.338-0.047-0.51s-0.073-0.337-0.126-0.495
		s-0.111-0.305-0.176-0.439s-0.132-0.247-0.202-0.337l0.562-0.246c0.113,0.109,0.224,0.252,0.331,0.428s0.202,0.37,0.284,0.583
		s0.148,0.44,0.199,0.683s0.076,0.486,0.076,0.732c0,0.504-0.081,0.944-0.244,1.321s-0.391,0.69-0.687,0.94
		c-0.295,0.25-0.646,0.437-1.053,0.56S176.635,252.209,176.145,252.209z M175.355,248.072c-0.067-0.008-0.14-0.014-0.219-0.018
		s-0.15-0.006-0.214-0.006c-0.194,0-0.377,0.023-0.548,0.07c-0.171,0.047-0.321,0.12-0.45,0.22c-0.129,0.1-0.23,0.229-0.304,0.39
		s-0.111,0.357-0.111,0.592c0,0.199,0.029,0.385,0.088,0.557c0.059,0.172,0.16,0.323,0.302,0.454
		c0.143,0.131,0.332,0.236,0.568,0.316s0.532,0.13,0.888,0.149V248.072z"/>
	<path d="M177.567,245.574c-0.411,0-0.759-0.11-1.044-0.331c-0.286-0.221-0.519-0.514-0.698-0.879
		c-0.18-0.365-0.313-0.783-0.399-1.254c-0.086-0.471-0.129-0.958-0.129-1.462h-0.261c-0.227,0-0.421,0.02-0.581,0.059
		c-0.161,0.039-0.291,0.108-0.391,0.208c-0.1,0.1-0.173,0.233-0.22,0.401s-0.07,0.381-0.07,0.639c0,0.219,0.016,0.431,0.048,0.636
		c0.033,0.205,0.073,0.397,0.123,0.577c0.05,0.18,0.103,0.344,0.159,0.492s0.108,0.275,0.156,0.381v0.006l-0.538,0.293
		c-0.062-0.066-0.146-0.192-0.249-0.378s-0.205-0.404-0.305-0.656s-0.186-0.524-0.258-0.817s-0.108-0.58-0.108-0.861
		c0-0.422,0.04-0.777,0.121-1.066s0.21-0.522,0.39-0.7c0.18-0.178,0.413-0.306,0.698-0.384c0.286-0.078,0.633-0.117,1.041-0.117
		h3.646v-0.715h0.574c0.02,0.074,0.041,0.163,0.064,0.267s0.045,0.214,0.064,0.331s0.037,0.235,0.053,0.354s0.023,0.231,0.023,0.337
		c0,0.113-0.006,0.209-0.018,0.287s-0.038,0.143-0.079,0.193s-0.102,0.088-0.182,0.111s-0.187,0.035-0.319,0.035h-0.281
		c0.062,0.066,0.144,0.161,0.243,0.284s0.196,0.27,0.29,0.439s0.175,0.361,0.243,0.574s0.103,0.442,0.103,0.688
		c0,0.27-0.037,0.527-0.111,0.773s-0.189,0.462-0.343,0.647c-0.155,0.186-0.352,0.333-0.593,0.442S177.9,245.574,177.567,245.574z
		 M177.4,244.115c0.215,0,0.397-0.028,0.548-0.085s0.273-0.135,0.369-0.234s0.165-0.219,0.208-0.357s0.064-0.288,0.064-0.448
		c0-0.09-0.014-0.192-0.041-0.308s-0.065-0.233-0.114-0.354s-0.105-0.24-0.17-0.357s-0.134-0.225-0.208-0.322h-2.104
		c0,0.453,0.04,0.836,0.12,1.148s0.186,0.566,0.316,0.762s0.284,0.337,0.46,0.425S177.208,244.115,177.4,244.115z"/>
	<path d="M178.835,238.68l-0.092-0.92h-4.748l-0.234,0.832h-0.703l-0.234-1.676v-0.029l0.229-0.281h0.385l0.794,0.012v-0.012
		c-0.041-0.02-0.104-0.06-0.191-0.12s-0.183-0.139-0.288-0.234s-0.214-0.208-0.328-0.337c-0.113-0.129-0.216-0.272-0.309-0.431
		c-0.093-0.158-0.169-0.329-0.228-0.513s-0.088-0.381-0.088-0.592c0-0.09,0.006-0.166,0.018-0.229s0.028-0.115,0.048-0.158h1.482
		c-0.05,0.066-0.095,0.16-0.135,0.281s-0.06,0.258-0.06,0.41c0,0.219,0.016,0.417,0.046,0.595s0.072,0.338,0.123,0.48
		s0.109,0.269,0.172,0.378c0.064,0.109,0.126,0.205,0.188,0.287h4.105v-1.541h0.68v3.797H178.835z"/>
	<path d="M176.258,233.128c-0.471,0-0.916-0.07-1.334-0.211c-0.418-0.141-0.785-0.353-1.101-0.636
		c-0.315-0.283-0.565-0.636-0.748-1.058c-0.183-0.422-0.274-0.912-0.274-1.471c0-0.203,0.014-0.396,0.041-0.58
		s0.06-0.354,0.097-0.51s0.077-0.295,0.12-0.416s0.078-0.221,0.105-0.299l1.721,0.059v0.814l-1.034,0.27
		c-0.125,0.055-0.217,0.166-0.273,0.334c-0.058,0.168-0.086,0.359-0.086,0.574c0,0.254,0.049,0.484,0.146,0.691
		s0.244,0.386,0.439,0.536s0.44,0.267,0.735,0.349s0.638,0.123,1.028,0.123c0.479,0.004,0.891-0.045,1.236-0.146
		s0.627-0.239,0.849-0.413c0.221-0.174,0.384-0.377,0.489-0.609c0.105-0.232,0.158-0.481,0.158-0.747
		c0-0.184-0.015-0.358-0.044-0.524s-0.067-0.319-0.113-0.46c-0.045-0.141-0.097-0.27-0.154-0.387
		c-0.057-0.117-0.114-0.219-0.173-0.305l0.507-0.252c0.105,0.102,0.21,0.23,0.313,0.387s0.197,0.333,0.281,0.53
		s0.152,0.407,0.205,0.63s0.079,0.449,0.079,0.68c0,0.508-0.082,0.951-0.247,1.33s-0.39,0.695-0.678,0.949
		c-0.288,0.254-0.627,0.444-1.02,0.571S176.713,233.125,176.258,233.128z"/>
	<path d="M178.849,226.803l-0.091-0.703h-8.056l-0.117,0.967h-0.557l-0.252-1.986v-0.029l0.199-0.281l2.746-0.006l1.059,0.053
		c-0.098-0.105-0.203-0.241-0.317-0.407s-0.22-0.352-0.319-0.557c-0.1-0.205-0.182-0.427-0.247-0.665s-0.098-0.484-0.098-0.738
		c0-0.379,0.053-0.692,0.158-0.94c0.105-0.248,0.269-0.444,0.491-0.589c0.222-0.145,0.503-0.246,0.844-0.305
		c0.34-0.059,0.746-0.088,1.217-0.088h3.243l0.097-0.844h0.619v2.947h-0.613l-0.096-0.768h-3.243c-0.305,0-0.571,0.015-0.798,0.044
		c-0.227,0.029-0.415,0.087-0.563,0.173c-0.149,0.086-0.26,0.207-0.335,0.363c-0.074,0.156-0.111,0.361-0.111,0.615
		c0,0.148,0.016,0.299,0.048,0.451s0.077,0.302,0.133,0.448c0.057,0.146,0.123,0.288,0.2,0.425c0.076,0.137,0.159,0.262,0.248,0.375
		h4.416l0.097-0.832h0.619v2.877H178.849z"/>
	<path d="M176.134,215.067c-0.534,0-1.008-0.091-1.423-0.272c-0.415-0.182-0.763-0.421-1.045-0.718
		c-0.282-0.297-0.497-0.636-0.645-1.017c-0.147-0.381-0.221-0.771-0.221-1.169c0-0.527,0.086-0.982,0.258-1.365
		s0.407-0.697,0.706-0.943s0.652-0.429,1.059-0.548s0.846-0.179,1.317-0.179c0.542,0,1.02,0.09,1.435,0.27
		c0.415,0.18,0.763,0.418,1.045,0.715s0.495,0.637,0.639,1.02c0.144,0.383,0.216,0.775,0.216,1.178c0,0.527-0.086,0.981-0.258,1.362
		s-0.407,0.694-0.706,0.94s-0.652,0.429-1.059,0.548S176.605,215.067,176.134,215.067z M178.747,211.962
		c0-1.082-0.836-1.623-2.508-1.623c-0.388,0-0.747,0.029-1.077,0.088c-0.33,0.059-0.617,0.152-0.861,0.281
		c-0.243,0.129-0.434,0.296-0.57,0.501c-0.137,0.205-0.205,0.456-0.205,0.753c0,0.535,0.208,0.94,0.625,1.216
		s1.044,0.413,1.882,0.413c0.388,0,0.748-0.03,1.08-0.091s0.619-0.155,0.861-0.284s0.431-0.297,0.568-0.504
		C178.679,212.505,178.747,212.255,178.747,211.962z"/>
	<path d="M178.849,207.676l-0.097-0.768h-4.756l-0.228,0.838h-0.74l-0.234-1.734v-0.029l0.229-0.275h0.498l0.283,0.006
		c-0.122-0.129-0.242-0.287-0.362-0.475c-0.119-0.188-0.227-0.39-0.322-0.606s-0.172-0.441-0.231-0.674
		c-0.059-0.232-0.088-0.458-0.088-0.677c0-0.383,0.052-0.698,0.155-0.946c0.104-0.248,0.265-0.444,0.485-0.589
		s0.501-0.245,0.844-0.302c0.343-0.057,0.751-0.085,1.226-0.085h3.243l0.097-0.844h0.619v2.941h-0.619l-0.097-0.75h-3.237
		c-0.309,0-0.577,0.015-0.803,0.044c-0.227,0.029-0.415,0.086-0.563,0.17c-0.148,0.084-0.259,0.203-0.332,0.357
		c-0.073,0.154-0.109,0.356-0.109,0.606c0,0.148,0.018,0.3,0.054,0.454c0.037,0.154,0.084,0.305,0.145,0.451
		s0.129,0.286,0.205,0.419c0.077,0.133,0.155,0.252,0.235,0.357h4.405l0.097-0.809h0.619v2.918H178.849z"/>
	<path d="M175.123,195.857c-0.724,0-1.369-0.117-1.935-0.352s-1.045-0.557-1.438-0.967s-0.691-0.894-0.897-1.45
		c-0.206-0.557-0.309-1.155-0.309-1.796c0-0.312,0.015-0.615,0.044-0.908s0.064-0.563,0.105-0.812s0.083-0.466,0.126-0.653
		s0.076-0.334,0.1-0.439l1.977,0.117v0.902l-1.308,0.316c-0.033,0.035-0.07,0.089-0.113,0.161s-0.081,0.17-0.116,0.293
		c-0.035,0.123-0.065,0.276-0.091,0.46s-0.039,0.402-0.039,0.656c0,0.422,0.075,0.81,0.225,1.163
		c0.15,0.354,0.375,0.658,0.675,0.914s0.673,0.455,1.121,0.598s0.969,0.214,1.565,0.214c0.342,0,0.676-0.024,1.002-0.073
		s0.636-0.124,0.931-0.226c0.294-0.102,0.565-0.229,0.814-0.381c0.248-0.152,0.463-0.333,0.643-0.542
		c0.181-0.209,0.321-0.445,0.421-0.709s0.151-0.558,0.151-0.882c0-0.164-0.01-0.329-0.029-0.495s-0.05-0.324-0.091-0.475
		s-0.093-0.288-0.155-0.413s-0.137-0.232-0.223-0.322h-2.566l-0.135,1.436h-0.756v-3.498h0.756l0.123,0.686h3.164
		c0,0.152,0.033,0.331,0.098,0.536s0.136,0.439,0.213,0.703c0.077,0.264,0.146,0.558,0.207,0.882
		c0.062,0.324,0.092,0.684,0.092,1.078c0,0.676-0.11,1.278-0.332,1.808s-0.526,0.978-0.915,1.345s-0.848,0.646-1.378,0.838
		S175.745,195.857,175.123,195.857z"/>
	<path d="M176.134,186.867c-0.534,0-1.008-0.091-1.423-0.272c-0.415-0.182-0.763-0.421-1.045-0.718
		c-0.282-0.297-0.497-0.636-0.645-1.017c-0.147-0.381-0.221-0.771-0.221-1.169c0-0.527,0.086-0.982,0.258-1.365
		s0.407-0.697,0.706-0.943s0.652-0.429,1.059-0.548s0.846-0.179,1.317-0.179c0.542,0,1.02,0.09,1.435,0.27
		c0.415,0.18,0.763,0.418,1.045,0.715s0.495,0.637,0.639,1.02c0.144,0.383,0.216,0.775,0.216,1.178c0,0.527-0.086,0.981-0.258,1.362
		s-0.407,0.694-0.706,0.94s-0.652,0.429-1.059,0.548S176.605,186.867,176.134,186.867z M178.747,183.761
		c0-1.082-0.836-1.623-2.508-1.623c-0.388,0-0.747,0.029-1.077,0.088c-0.33,0.059-0.617,0.152-0.861,0.281
		c-0.243,0.129-0.434,0.296-0.57,0.501c-0.137,0.205-0.205,0.456-0.205,0.753c0,0.535,0.208,0.94,0.625,1.216
		s1.044,0.413,1.882,0.413c0.388,0,0.748-0.03,1.08-0.091s0.619-0.155,0.861-0.284s0.431-0.297,0.568-0.504
		C178.679,184.304,178.747,184.054,178.747,183.761z"/>
	<path d="M176.134,179.61c-0.534,0-1.008-0.091-1.423-0.272c-0.415-0.182-0.763-0.421-1.045-0.718
		c-0.282-0.297-0.497-0.636-0.645-1.017c-0.147-0.381-0.221-0.771-0.221-1.169c0-0.527,0.086-0.982,0.258-1.365
		s0.407-0.697,0.706-0.943s0.652-0.429,1.059-0.548s0.846-0.179,1.317-0.179c0.542,0,1.02,0.09,1.435,0.27
		c0.415,0.18,0.763,0.418,1.045,0.715s0.495,0.637,0.639,1.02c0.144,0.383,0.216,0.775,0.216,1.178c0,0.527-0.086,0.981-0.258,1.362
		s-0.407,0.694-0.706,0.94s-0.652,0.429-1.059,0.548S176.605,179.61,176.134,179.61z M178.747,176.504
		c0-1.082-0.836-1.623-2.508-1.623c-0.388,0-0.747,0.029-1.077,0.088c-0.33,0.059-0.617,0.152-0.861,0.281
		c-0.243,0.129-0.434,0.296-0.57,0.501c-0.137,0.205-0.205,0.456-0.205,0.753c0,0.535,0.208,0.94,0.625,1.216
		s1.044,0.413,1.882,0.413c0.388,0,0.748-0.03,1.08-0.091s0.619-0.155,0.861-0.284s0.431-0.297,0.568-0.504
		C178.679,177.047,178.747,176.797,178.747,176.504z"/>
	<path d="M180.845,172.277c-0.191,0-0.373-0.031-0.545-0.094s-0.329-0.145-0.472-0.246s-0.268-0.218-0.375-0.349
		s-0.196-0.265-0.267-0.401c-0.102,0.184-0.232,0.324-0.393,0.422s-0.357,0.146-0.592,0.146c-0.152,0-0.298-0.022-0.437-0.067
		s-0.268-0.108-0.387-0.19s-0.229-0.179-0.328-0.29s-0.187-0.233-0.261-0.366c-0.171,0.391-0.412,0.69-0.722,0.899
		s-0.679,0.313-1.106,0.313c-0.342,0-0.646-0.079-0.914-0.237c-0.268-0.158-0.494-0.367-0.677-0.627
		c-0.184-0.26-0.325-0.557-0.424-0.891c-0.098-0.334-0.147-0.679-0.147-1.034v-0.006c0-0.418,0.047-0.795,0.141-1.131
		s0.236-0.621,0.428-0.855c-0.046-0.039-0.102-0.099-0.167-0.179s-0.127-0.177-0.187-0.29s-0.11-0.244-0.152-0.393
		c-0.042-0.148-0.063-0.312-0.063-0.492v-0.316h1.125v1.23c0.128-0.066,0.265-0.117,0.41-0.152c0.145-0.035,0.304-0.053,0.476-0.053
		c0.337,0,0.644,0.07,0.921,0.211s0.515,0.336,0.712,0.586c0.198,0.25,0.351,0.544,0.459,0.882c0.108,0.338,0.162,0.704,0.162,1.099
		v0.006c0,0.32-0.033,0.619-0.1,0.896c0.094,0.105,0.204,0.19,0.331,0.255s0.259,0.097,0.396,0.097c0.148,0,0.27-0.026,0.363-0.079
		s0.167-0.133,0.22-0.24s0.089-0.244,0.108-0.41s0.029-0.362,0.029-0.589v-1.277c0-0.785,0.148-1.363,0.445-1.734
		s0.734-0.557,1.312-0.557c0.23,0,0.453,0.043,0.668,0.129s0.414,0.207,0.598,0.363s0.352,0.343,0.504,0.56s0.283,0.455,0.393,0.715
		s0.193,0.537,0.252,0.832s0.088,0.599,0.088,0.911v0.006c0,0.547-0.044,1.01-0.132,1.389s-0.211,0.688-0.369,0.926
		s-0.35,0.41-0.574,0.516S181.122,172.277,180.845,172.277z M176.368,169.277c0-0.23-0.033-0.426-0.099-0.586
		c-0.065-0.16-0.161-0.291-0.287-0.393c-0.125-0.102-0.279-0.176-0.459-0.223s-0.386-0.07-0.615-0.07
		c-0.496,0-0.857,0.109-1.083,0.328s-0.339,0.553-0.339,1.002v0.006c0,0.199,0.024,0.38,0.071,0.542s0.124,0.302,0.229,0.419
		c0.106,0.117,0.246,0.208,0.421,0.272c0.175,0.064,0.39,0.097,0.646,0.097c0.211,0,0.409-0.024,0.593-0.073
		c0.185-0.049,0.345-0.127,0.481-0.234s0.245-0.25,0.323-0.428c0.079-0.178,0.118-0.396,0.118-0.653V169.277z M180.499,170.964
		c0.227,0,0.428-0.031,0.604-0.094s0.325-0.164,0.448-0.305s0.217-0.324,0.281-0.551s0.097-0.504,0.097-0.832v-0.012
		c0-0.254-0.03-0.506-0.091-0.756s-0.15-0.474-0.27-0.671s-0.267-0.356-0.442-0.478s-0.381-0.182-0.615-0.182
		c-0.176,0-0.329,0.019-0.46,0.056s-0.239,0.107-0.325,0.211s-0.15,0.248-0.193,0.434s-0.064,0.425-0.064,0.718v1.178
		c0,0.172-0.007,0.333-0.021,0.483s-0.032,0.292-0.056,0.425c0.125,0.102,0.277,0.189,0.457,0.264S180.245,170.964,180.499,170.964z
		"/>
	<path d="M178.829,164.926l-0.1-0.949h-8.174l-0.117,0.961h-0.557l-0.252-1.998v-0.012l0.199-0.287h8.9l0.1-0.996h0.639v3.281
		H178.829z"/>
	<path d="M176.145,160.705c-0.5,0-0.956-0.078-1.367-0.234c-0.411-0.156-0.763-0.374-1.056-0.653
		c-0.293-0.279-0.52-0.611-0.681-0.996s-0.241-0.806-0.241-1.263c0-0.75,0.186-1.33,0.557-1.74c0.371-0.41,0.914-0.629,1.627-0.656
		c0.229-0.004,0.429-0.001,0.6,0.009s0.321,0.03,0.45,0.062v4.061c0.445-0.012,0.828-0.073,1.148-0.185s0.583-0.256,0.788-0.434
		s0.356-0.385,0.454-0.621s0.146-0.487,0.146-0.753c0-0.168-0.016-0.338-0.047-0.51s-0.073-0.337-0.126-0.495
		s-0.111-0.305-0.176-0.439s-0.132-0.247-0.202-0.337l0.562-0.246c0.113,0.109,0.224,0.252,0.331,0.428s0.202,0.37,0.284,0.583
		s0.148,0.44,0.199,0.683s0.076,0.486,0.076,0.732c0,0.504-0.081,0.944-0.244,1.321s-0.391,0.69-0.687,0.94
		c-0.295,0.25-0.646,0.437-1.053,0.56S176.635,160.705,176.145,160.705z M175.355,156.568c-0.067-0.008-0.14-0.014-0.219-0.018
		s-0.15-0.006-0.214-0.006c-0.194,0-0.377,0.023-0.548,0.07c-0.171,0.047-0.321,0.12-0.45,0.22c-0.129,0.1-0.23,0.229-0.304,0.39
		s-0.111,0.357-0.111,0.592c0,0.199,0.029,0.385,0.088,0.557c0.059,0.172,0.16,0.323,0.302,0.454
		c0.143,0.131,0.332,0.236,0.568,0.316s0.532,0.13,0.888,0.149V156.568z"/>
</g>
<g>
	<path d="M385.911,549.593c0.053,0.012,0.112,0.021,0.179,0.031c0.066,0.009,0.135,0.016,0.205,0.021s0.137,0.009,0.199,0.009
		c0.152,0,0.306-0.021,0.46-0.062c0.154-0.042,0.308-0.127,0.46-0.258c0.152-0.129,0.306-0.314,0.46-0.555
		c0.154-0.241,0.308-0.559,0.46-0.954h-0.662l-2.191-5.889l-0.557-0.152v-0.621h2.982v0.621l-0.92,0.152l1.131,3.539l0.521,1.699
		l0.469-1.705l1.061-3.539l-0.785-0.146v-0.621h2.461v0.621l-0.598,0.146c-0.594,1.82-1.062,3.23-1.403,4.232
		c-0.342,1.001-0.558,1.604-0.647,1.81c-0.184,0.457-0.363,0.858-0.539,1.202c-0.176,0.346-0.367,0.634-0.574,0.866
		s-0.439,0.407-0.697,0.522c-0.258,0.117-0.559,0.175-0.902,0.175c-0.059,0-0.122,0-0.19,0s-0.135-0.005-0.199-0.015
		s-0.123-0.02-0.176-0.029s-0.093-0.021-0.12-0.032v-1.108C385.821,549.569,385.859,549.581,385.911,549.593z"/>
	<path d="M392.474,544.503c0-0.5,0.078-0.955,0.234-1.367c0.156-0.41,0.374-0.763,0.653-1.056c0.279-0.294,0.611-0.521,0.996-0.681
		s0.806-0.241,1.263-0.241c0.75,0,1.33,0.186,1.74,0.558c0.41,0.371,0.629,0.913,0.656,1.627c0.004,0.229,0.001,0.429-0.009,0.6
		c-0.01,0.172-0.03,0.322-0.062,0.45h-4.061c0.012,0.445,0.073,0.828,0.185,1.148s0.256,0.583,0.434,0.788s0.385,0.356,0.621,0.454
		s0.487,0.146,0.753,0.146c0.168,0,0.338-0.016,0.51-0.047s0.337-0.073,0.495-0.126s0.305-0.111,0.439-0.176
		s0.247-0.132,0.337-0.202l0.246,0.562c-0.109,0.113-0.252,0.224-0.428,0.331s-0.37,0.202-0.583,0.284s-0.44,0.148-0.683,0.199
		s-0.486,0.076-0.732,0.076c-0.504,0-0.944-0.081-1.321-0.243c-0.377-0.163-0.69-0.392-0.94-0.688
		c-0.25-0.295-0.437-0.646-0.56-1.053S392.474,544.993,392.474,544.503z M396.611,543.713c0.008-0.067,0.014-0.14,0.018-0.219
		s0.006-0.149,0.006-0.214c0-0.194-0.023-0.377-0.07-0.548s-0.12-0.321-0.22-0.45s-0.229-0.23-0.39-0.305
		c-0.16-0.073-0.357-0.11-0.592-0.11c-0.199,0-0.385,0.029-0.557,0.088c-0.172,0.06-0.323,0.159-0.454,0.302
		s-0.236,0.332-0.316,0.568s-0.13,0.532-0.149,0.888H396.611z"/>
	<path d="M399.11,545.925c0-0.41,0.11-0.759,0.331-1.044c0.221-0.286,0.514-0.519,0.879-0.698s0.783-0.312,1.254-0.399
		c0.471-0.086,0.958-0.129,1.462-0.129v-0.261c0-0.227-0.02-0.421-0.059-0.581c-0.039-0.161-0.108-0.29-0.208-0.392
		c-0.1-0.1-0.233-0.173-0.401-0.22s-0.381-0.07-0.639-0.07c-0.219,0-0.431,0.017-0.636,0.048c-0.205,0.033-0.397,0.074-0.577,0.123
		c-0.18,0.05-0.344,0.103-0.492,0.158c-0.148,0.057-0.275,0.108-0.381,0.156h-0.006l-0.293-0.538
		c0.066-0.062,0.192-0.146,0.378-0.249s0.404-0.205,0.656-0.305s0.524-0.186,0.817-0.258s0.58-0.108,0.861-0.108
		c0.422,0,0.777,0.04,1.066,0.12c0.289,0.081,0.522,0.211,0.7,0.391s0.306,0.412,0.384,0.697c0.078,0.287,0.117,0.633,0.117,1.041
		v3.646h0.715v0.574c-0.074,0.02-0.163,0.041-0.267,0.064s-0.214,0.045-0.331,0.064s-0.235,0.037-0.354,0.053
		s-0.231,0.023-0.337,0.023c-0.113,0-0.209-0.006-0.287-0.018s-0.143-0.038-0.193-0.079s-0.088-0.102-0.111-0.182
		s-0.035-0.187-0.035-0.319v-0.281c-0.066,0.062-0.161,0.144-0.284,0.243s-0.27,0.196-0.439,0.29s-0.361,0.175-0.574,0.243
		s-0.442,0.103-0.688,0.103c-0.27,0-0.527-0.037-0.773-0.111s-0.462-0.188-0.647-0.343c-0.186-0.155-0.333-0.353-0.442-0.594
		C399.164,546.544,399.11,546.258,399.11,545.925z M400.569,545.758c0,0.215,0.028,0.397,0.085,0.548s0.135,0.273,0.234,0.369
		s0.219,0.165,0.357,0.208s0.288,0.064,0.448,0.064c0.09,0,0.192-0.014,0.308-0.041s0.233-0.065,0.354-0.114s0.24-0.105,0.357-0.17
		s0.225-0.134,0.322-0.208v-2.104c-0.453,0-0.836,0.04-1.148,0.12s-0.566,0.186-0.762,0.316s-0.337,0.284-0.425,0.46
		S400.569,545.566,400.569,545.758z"/>
	<path d="M406.002,547.193l0.92-0.092v-4.748l-0.832-0.234v-0.703l1.676-0.234h0.029l0.281,0.229v0.385l-0.012,0.794h0.012
		c0.02-0.04,0.06-0.104,0.12-0.19s0.139-0.183,0.234-0.288s0.208-0.215,0.337-0.328c0.129-0.112,0.272-0.216,0.431-0.309
		c0.158-0.094,0.329-0.169,0.513-0.228s0.381-0.088,0.592-0.088c0.09,0,0.166,0.006,0.229,0.019
		c0.062,0.012,0.115,0.027,0.158,0.048v1.481c-0.066-0.049-0.16-0.094-0.281-0.135c-0.121-0.039-0.258-0.06-0.41-0.06
		c-0.219,0-0.417,0.016-0.595,0.046c-0.178,0.031-0.338,0.072-0.48,0.123c-0.143,0.052-0.269,0.109-0.378,0.173
		s-0.205,0.126-0.287,0.188v4.104h1.541v0.68h-3.797V547.193z"/>
	<path d="M411.8,545.859h0.826l0.234,0.848c0.035,0.056,0.096,0.112,0.182,0.167c0.086,0.057,0.188,0.106,0.305,0.15
		c0.117,0.045,0.247,0.08,0.39,0.106s0.288,0.039,0.437,0.039c0.234,0,0.431-0.022,0.589-0.067s0.284-0.107,0.378-0.188
		s0.16-0.175,0.199-0.283s0.059-0.227,0.059-0.354c0-0.149-0.037-0.283-0.111-0.4c-0.074-0.118-0.186-0.23-0.334-0.337
		s-0.333-0.212-0.554-0.314s-0.479-0.21-0.776-0.322c-0.301-0.112-0.563-0.233-0.788-0.364s-0.411-0.279-0.56-0.443
		s-0.259-0.348-0.331-0.549c-0.072-0.203-0.108-0.433-0.108-0.69s0.062-0.491,0.185-0.698s0.294-0.386,0.513-0.535
		c0.219-0.15,0.478-0.265,0.776-0.346c0.299-0.08,0.624-0.12,0.976-0.12c0.254,0,0.486,0.016,0.697,0.048
		c0.211,0.031,0.398,0.067,0.562,0.109c0.164,0.041,0.307,0.082,0.428,0.123s0.221,0.072,0.299,0.092v1.424h-0.75l-0.252-0.781
		c-0.023-0.045-0.066-0.09-0.129-0.132c-0.062-0.043-0.14-0.081-0.231-0.114c-0.092-0.034-0.195-0.061-0.311-0.082
		c-0.115-0.02-0.235-0.03-0.36-0.03c-0.191,0-0.359,0.02-0.504,0.06c-0.145,0.039-0.266,0.093-0.363,0.162
		c-0.098,0.068-0.171,0.152-0.22,0.252c-0.049,0.099-0.073,0.206-0.073,0.322c0,0.187,0.044,0.342,0.132,0.468
		c0.088,0.125,0.204,0.235,0.349,0.331c0.145,0.095,0.31,0.18,0.495,0.254c0.186,0.075,0.378,0.153,0.577,0.236
		c0.262,0.107,0.517,0.222,0.765,0.342c0.248,0.119,0.467,0.258,0.656,0.414s0.342,0.339,0.457,0.547
		c0.115,0.207,0.173,0.456,0.173,0.747c0,0.28-0.059,0.536-0.176,0.769c-0.117,0.23-0.286,0.43-0.507,0.596s-0.49,0.295-0.809,0.385
		c-0.318,0.089-0.681,0.134-1.087,0.134c-0.223,0-0.449-0.018-0.68-0.053s-0.449-0.079-0.656-0.132s-0.395-0.107-0.562-0.164
		s-0.303-0.108-0.404-0.155V545.859z"/>
</g>
<g>
	<path d="M194.888,37.944c0,0.899-0.66,1.847-1.571,2.782l-1.859,1.943h3.718v1.583H189v-1.295l3.035-3.215
		c0.516-0.527,0.875-1.115,0.875-1.522c0-0.528-0.408-0.84-1.104-0.84c-0.696,0-1.547,0.407-2.291,1.056l-0.731-1.416
		c1.02-0.779,2.135-1.247,3.298-1.247C193.725,35.773,194.888,36.625,194.888,37.944z"/>
	<path d="M198.395,37.44v1.476l0.875-0.012c1.895,0,3.118,1.043,3.118,2.542c0,1.751-1.283,2.879-3.262,2.879
		c-1.067,0-2.303-0.408-3.154-1.02l0.756-1.499c0.647,0.647,1.427,0.995,2.183,0.995c0.912,0,1.451-0.456,1.451-1.224
		c0-0.72-0.54-1.127-1.451-1.127c-0.456,0-1.727,0.023-2.267,0.06l0.012-4.653h5.373v1.583H198.395z"/>
	<path d="M210.8,40.042c0,2.747-1.307,4.27-3.658,4.27c-2.375,0-3.67-1.522-3.67-4.27c0-2.734,1.295-4.245,3.67-4.245
		C209.492,35.797,210.8,37.308,210.8,40.042z M205.415,40.042c0,1.979,0.54,2.818,1.727,2.818c1.175,0,1.715-0.839,1.715-2.818
		c0-1.967-0.54-2.794-1.715-2.794C205.954,37.249,205.415,38.076,205.415,40.042z"/>
</g>
<g>
	<path d="M193.569,130.486c0,0.899-0.66,1.847-1.571,2.782l-1.859,1.943h3.718v1.583h-6.177V135.5l3.035-3.215
		c0.516-0.527,0.875-1.115,0.875-1.522c0-0.528-0.408-0.84-1.104-0.84c-0.696,0-1.547,0.407-2.291,1.056l-0.731-1.416
		c1.02-0.779,2.135-1.247,3.298-1.247C192.406,128.315,193.569,129.167,193.569,130.486z"/>
	<path d="M202.292,132.585c0,2.747-1.307,4.27-3.658,4.27c-2.375,0-3.67-1.522-3.67-4.27c0-2.734,1.295-4.245,3.67-4.245
		C200.985,128.34,202.292,129.851,202.292,132.585z M196.907,132.585c0,1.979,0.54,2.818,1.727,2.818
		c1.175,0,1.715-0.839,1.715-2.818c0-1.967-0.54-2.794-1.715-2.794C197.447,129.791,196.907,130.618,196.907,132.585z"/>
	<path d="M210.8,132.585c0,2.747-1.307,4.27-3.658,4.27c-2.375,0-3.67-1.522-3.67-4.27c0-2.734,1.295-4.245,3.67-4.245
		C209.493,128.34,210.8,129.851,210.8,132.585z M205.415,132.585c0,1.979,0.54,2.818,1.727,2.818c1.175,0,1.715-0.839,1.715-2.818
		c0-1.967-0.54-2.794-1.715-2.794C205.955,129.791,205.415,130.618,205.415,132.585z"/>
</g>
<g>
	<path d="M192.48,230.353v-6.8h-1.583v-1.596h3.478v8.396H192.48z"/>
	<path d="M198.395,223.54v1.476l0.875-0.012c1.895,0,3.118,1.043,3.118,2.542c0,1.751-1.283,2.879-3.262,2.879
		c-1.067,0-2.303-0.408-3.154-1.02l0.756-1.499c0.647,0.647,1.427,0.995,2.183,0.995c0.912,0,1.451-0.456,1.451-1.224
		c0-0.72-0.54-1.127-1.451-1.127c-0.456,0-1.727,0.023-2.267,0.06l0.012-4.653h5.373v1.583H198.395z"/>
	<path d="M210.8,226.143c0,2.747-1.307,4.27-3.658,4.27c-2.375,0-3.67-1.522-3.67-4.27c0-2.734,1.295-4.245,3.67-4.245
		C209.493,221.897,210.8,223.408,210.8,226.143z M205.415,226.143c0,1.979,0.54,2.818,1.727,2.818c1.175,0,1.715-0.839,1.715-2.818
		c0-1.967-0.54-2.794-1.715-2.794C205.955,223.349,205.415,224.176,205.415,226.143z"/>
</g>
<g>
	<g>
		<path d="M191.159,323.128v-6.8h-1.583v-1.596h3.478v8.396H191.159z"/>
		<path d="M202.292,318.918c0,2.747-1.307,4.27-3.658,4.27c-2.375,0-3.67-1.522-3.67-4.27c0-2.734,1.295-4.245,3.67-4.245
			C200.985,314.673,202.292,316.184,202.292,318.918z M196.907,318.918c0,1.979,0.54,2.818,1.727,2.818
			c1.175,0,1.715-0.839,1.715-2.818c0-1.967-0.54-2.794-1.715-2.794C197.447,316.124,196.907,316.951,196.907,318.918z"/>
		<path d="M210.8,318.918c0,2.747-1.307,4.27-3.658,4.27c-2.375,0-3.67-1.522-3.67-4.27c0-2.734,1.295-4.245,3.67-4.245
			C209.492,314.673,210.8,316.184,210.8,318.918z M205.415,318.918c0,1.979,0.54,2.818,1.727,2.818c1.175,0,1.715-0.839,1.715-2.818
			c0-1.967-0.54-2.794-1.715-2.794C205.954,316.124,205.415,316.951,205.415,318.918z"/>
	</g>
</g>
<g>
	<g>
		<path d="M198.395,410.355v1.476l0.875-0.012c1.895,0,3.118,1.043,3.118,2.542c0,1.751-1.283,2.879-3.262,2.879
			c-1.067,0-2.303-0.408-3.154-1.02l0.756-1.499c0.647,0.647,1.427,0.995,2.183,0.995c0.912,0,1.451-0.456,1.451-1.224
			c0-0.72-0.54-1.127-1.451-1.127c-0.456,0-1.727,0.023-2.267,0.06l0.012-4.653h5.373v1.583H198.395z"/>
		<path d="M210.8,412.958c0,2.747-1.307,4.27-3.658,4.27c-2.375,0-3.67-1.522-3.67-4.27c0-2.734,1.295-4.245,3.67-4.245
			C209.493,408.713,210.8,410.224,210.8,412.958z M205.415,412.958c0,1.979,0.54,2.818,1.727,2.818c1.175,0,1.715-0.839,1.715-2.818
			c0-1.967-0.54-2.794-1.715-2.794C205.955,410.164,205.415,410.991,205.415,412.958z"/>
	</g>
</g>
<g>
	<g>
		<path d="M210.8,503.216c0,2.747-1.307,4.27-3.658,4.27c-2.375,0-3.67-1.522-3.67-4.27c0-2.734,1.295-4.245,3.67-4.245
			C209.493,498.971,210.8,500.481,210.8,503.216z M205.415,503.216c0,1.979,0.54,2.818,1.727,2.818c1.175,0,1.715-0.839,1.715-2.818
			c0-1.967-0.54-2.794-1.715-2.794C205.955,500.422,205.415,501.249,205.415,503.216z"/>
	</g>
</g>
<g>
	<path d="M240.449,519.356c0,1.125-0.825,2.31-1.965,3.479l-2.325,2.431h4.65v1.979h-7.725v-1.62l3.795-4.02
		c0.645-0.66,1.095-1.396,1.095-1.905c0-0.66-0.51-1.05-1.38-1.05s-1.935,0.51-2.865,1.32l-0.915-1.771
		c1.275-0.975,2.67-1.56,4.125-1.56C238.994,516.642,240.449,517.706,240.449,519.356z"/>
	<path d="M251.354,521.981c0,3.435-1.635,5.34-4.575,5.34c-2.97,0-4.59-1.905-4.59-5.34c0-3.42,1.62-5.31,4.59-5.31
		C249.718,516.672,251.354,518.562,251.354,521.981z M244.619,521.981c0,2.475,0.675,3.524,2.16,3.524
		c1.47,0,2.145-1.05,2.145-3.524c0-2.46-0.675-3.495-2.145-3.495C245.294,518.486,244.619,519.521,244.619,521.981z"/>
	<path d="M261.988,521.981c0,3.435-1.635,5.34-4.575,5.34c-2.97,0-4.59-1.905-4.59-5.34c0-3.42,1.62-5.31,4.59-5.31
		C260.353,516.672,261.988,518.562,261.988,521.981z M255.254,521.981c0,2.475,0.675,3.524,2.16,3.524
		c1.47,0,2.145-1.05,2.145-3.524c0-2.46-0.675-3.495-2.145-3.495C255.928,518.486,255.254,519.521,255.254,521.981z"/>
	<path d="M266.098,518.727v1.845l1.095-0.015c2.37,0,3.899,1.305,3.899,3.18c0,2.189-1.604,3.6-4.08,3.6
		c-1.335,0-2.88-0.51-3.945-1.274l0.945-1.875c0.81,0.81,1.785,1.245,2.73,1.245c1.14,0,1.815-0.57,1.815-1.53
		c0-0.9-0.675-1.41-1.815-1.41c-0.57,0-2.16,0.03-2.835,0.075l0.015-5.82h6.72v1.98H266.098z"/>
</g>
<g>
	<path d="M300.129,519.356c0,1.125-0.825,2.31-1.965,3.479l-2.325,2.431h4.649v1.979h-7.724v-1.62l3.795-4.02
		c0.645-0.66,1.095-1.396,1.095-1.905c0-0.66-0.51-1.05-1.38-1.05s-1.935,0.51-2.865,1.32l-0.915-1.771
		c1.275-0.975,2.67-1.56,4.125-1.56C298.674,516.642,300.129,517.706,300.129,519.356z"/>
	<path d="M311.033,521.981c0,3.435-1.635,5.34-4.574,5.34c-2.971,0-4.59-1.905-4.59-5.34c0-3.42,1.619-5.31,4.59-5.31
		C309.399,516.672,311.033,518.562,311.033,521.981z M304.299,521.981c0,2.475,0.675,3.524,2.16,3.524
		c1.47,0,2.145-1.05,2.145-3.524c0-2.46-0.675-3.495-2.145-3.495C304.974,518.486,304.299,519.521,304.299,521.981z"/>
	<path d="M321.668,521.981c0,3.435-1.635,5.34-4.574,5.34c-2.971,0-4.59-1.905-4.59-5.34c0-3.42,1.619-5.31,4.59-5.31
		C320.033,516.672,321.668,518.562,321.668,521.981z M314.934,521.981c0,2.475,0.675,3.524,2.16,3.524
		c1.47,0,2.145-1.05,2.145-3.524c0-2.46-0.675-3.495-2.145-3.495C315.609,518.486,314.934,519.521,314.934,521.981z"/>
	<path d="M327.008,527.246h-2.505l3.87-8.52h-3.285v1.47h-2.1v-3.45h8.01v1.695L327.008,527.246z"/>
</g>
<g>
	<path d="M359.479,519.356c0,1.125-0.825,2.31-1.965,3.479l-2.325,2.431h4.649v1.979h-7.725v-1.62l3.795-4.02
		c0.646-0.66,1.095-1.396,1.095-1.905c0-0.66-0.51-1.05-1.38-1.05s-1.935,0.51-2.864,1.32l-0.915-1.771
		c1.274-0.975,2.67-1.56,4.125-1.56C358.024,516.642,359.479,517.706,359.479,519.356z"/>
	<path d="M370.383,521.981c0,3.435-1.635,5.34-4.574,5.34c-2.971,0-4.59-1.905-4.59-5.34c0-3.42,1.619-5.31,4.59-5.31
		C368.748,516.672,370.383,518.562,370.383,521.981z M363.649,521.981c0,2.475,0.675,3.524,2.16,3.524
		c1.47,0,2.145-1.05,2.145-3.524c0-2.46-0.675-3.495-2.145-3.495C364.323,518.486,363.649,519.521,363.649,521.981z"/>
	<path d="M381.018,521.981c0,3.435-1.635,5.34-4.574,5.34c-2.971,0-4.59-1.905-4.59-5.34c0-3.42,1.619-5.31,4.59-5.31
		C379.383,516.672,381.018,518.562,381.018,521.981z M374.283,521.981c0,2.475,0.675,3.524,2.16,3.524
		c1.47,0,2.145-1.05,2.145-3.524c0-2.46-0.675-3.495-2.145-3.495C374.958,518.486,374.283,519.521,374.283,521.981z"/>
	<path d="M382.593,526.511l0.9-1.739c0.63,0.435,1.439,0.675,2.25,0.675c1.8,0,2.654-1.186,2.609-3.045
		c-0.51,0.765-1.41,1.229-2.625,1.229c-2.085,0-3.375-1.35-3.375-3.39c0-2.22,1.516-3.6,3.84-3.6c2.76,0,4.455,1.965,4.455,5.189
		c0,3.345-1.86,5.521-4.755,5.521C384.768,527.352,383.463,527.021,382.593,526.511z M388.068,520.211
		c0.016-0.81-0.555-1.59-1.77-1.59c-1.065,0-1.74,0.585-1.74,1.636c0,0.975,0.615,1.56,1.68,1.56
		C387.407,521.816,388.083,521.111,388.068,520.211z"/>
</g>
<g>
	<path d="M423.022,519.356c0,1.125-0.826,2.31-1.965,3.479l-2.326,2.431h4.65v1.979h-7.725v-1.62l3.795-4.02
		c0.645-0.66,1.095-1.396,1.095-1.905c0-0.66-0.51-1.05-1.38-1.05s-1.936,0.51-2.865,1.32l-0.914-1.771
		c1.274-0.975,2.67-1.56,4.125-1.56C421.567,516.642,423.022,517.706,423.022,519.356z"/>
	<path d="M433.926,521.981c0,3.435-1.635,5.34-4.574,5.34c-2.971,0-4.59-1.905-4.59-5.34c0-3.42,1.619-5.31,4.59-5.31
		C432.291,516.672,433.926,518.562,433.926,521.981z M427.192,521.981c0,2.475,0.674,3.524,2.16,3.524
		c1.469,0,2.145-1.05,2.145-3.524c0-2.46-0.676-3.495-2.145-3.495C427.865,518.486,427.192,519.521,427.192,521.981z"/>
	<path d="M436.851,527.246v-8.505h-1.979v-1.995h4.35v10.5H436.851z"/>
	<path d="M443.061,527.246v-8.505h-1.98v-1.995h4.351v10.5H443.061z"/>
</g>
<g>
	<path d="M481.57,519.356c0,1.125-0.825,2.31-1.965,3.479l-2.325,2.431h4.649v1.979h-7.725v-1.62l3.795-4.02
		c0.646-0.66,1.095-1.396,1.095-1.905c0-0.66-0.51-1.05-1.38-1.05s-1.935,0.51-2.864,1.32l-0.915-1.771
		c1.274-0.975,2.67-1.56,4.125-1.56C480.114,516.642,481.57,517.706,481.57,519.356z"/>
	<path d="M492.474,521.981c0,3.435-1.635,5.34-4.574,5.34c-2.971,0-4.59-1.905-4.59-5.34c0-3.42,1.619-5.31,4.59-5.31
		C490.839,516.672,492.474,518.562,492.474,521.981z M485.739,521.981c0,2.475,0.675,3.524,2.16,3.524
		c1.47,0,2.145-1.05,2.145-3.524c0-2.46-0.675-3.495-2.145-3.495C486.414,518.486,485.739,519.521,485.739,521.981z"/>
	<path d="M495.399,527.246v-8.505h-1.979v-1.995h4.35v10.5H495.399z"/>
	<path d="M504.519,521.097c1.59,0.225,2.715,1.229,2.715,2.864c0,1.995-1.529,3.391-3.944,3.391c-1.396,0-2.851-0.495-3.795-1.23
		l0.96-1.875c0.779,0.795,1.71,1.215,2.654,1.215c1.155,0,1.815-0.555,1.8-1.47c0-0.945-0.645-1.425-1.814-1.425h-1.604v-1.32
		l2.459-2.564h-3.944v-1.92h6.75v1.41l-2.745,2.864L504.519,521.097z"/>
</g>
<g>
	<path d="M540.949,519.356c0,1.125-0.826,2.31-1.965,3.479l-2.326,2.431h4.65v1.979h-7.725v-1.62l3.795-4.02
		c0.645-0.66,1.095-1.396,1.095-1.905c0-0.66-0.51-1.05-1.38-1.05s-1.936,0.51-2.865,1.32l-0.914-1.771
		c1.274-0.975,2.67-1.56,4.125-1.56C539.494,516.642,540.949,517.706,540.949,519.356z"/>
	<path d="M551.854,521.981c0,3.435-1.635,5.34-4.574,5.34c-2.971,0-4.59-1.905-4.59-5.34c0-3.42,1.619-5.31,4.59-5.31
		C550.219,516.672,551.854,518.562,551.854,521.981z M545.119,521.981c0,2.475,0.674,3.524,2.16,3.524
		c1.469,0,2.145-1.05,2.145-3.524c0-2.46-0.676-3.495-2.145-3.495C545.793,518.486,545.119,519.521,545.119,521.981z"/>
	<path d="M554.779,527.246v-8.505h-1.979v-1.995h4.35v10.5H554.779z"/>
	<path d="M562.174,518.727v1.845l1.095-0.015c2.37,0,3.899,1.305,3.899,3.18c0,2.189-1.604,3.6-4.08,3.6
		c-1.334,0-2.879-0.51-3.944-1.274l0.944-1.875c0.811,0.81,1.785,1.245,2.73,1.245c1.141,0,1.814-0.57,1.814-1.53
		c0-0.9-0.674-1.41-1.814-1.41c-0.57,0-2.16,0.03-2.835,0.075l0.015-5.82h6.721v1.98H562.174z"/>
</g>
<g opacity="0.5">
	<path fill="none" stroke="#4D4D4D" stroke-linejoin="round" stroke-miterlimit="10" d="M219.564,40.403h363.13 M219.564,133.42
		h363.13 M219.564,227.205h363.13 M219.564,320.222h363.13 M219.564,414.008h363.13"/>
</g>
<g>
	<path fill="#A7CECB" d="M581.121,472.047v35.362h-2v-35.362H581.121z M576.343,477.428v29.981h-2v-29.981H576.343z
		 M571.198,477.428v29.981h-2v-29.981H571.198z M566.052,477.428v29.981h-2v-29.981H566.052z M561.274,478.966v28.443h-2v-28.443
		H561.274z M556.496,475.122v32.287h-2v-32.287H556.496z M551.351,475.122v32.287h-2v-32.287H551.351z M546.205,477.428v29.981h-2
		v-29.981H546.205z M541.427,475.122v32.287h-2v-32.287H541.427z M536.649,477.428v29.981h-2v-29.981H536.649z M531.503,475.122
		v32.287h-2v-32.287H531.503z M526.358,473.585v33.824h-2v-33.824H526.358z M521.58,472.047v35.362h-2v-35.362H521.58z
		 M516.434,477.428v29.981h-2v-29.981H516.434z M511.656,477.428v29.981h-2v-29.981H511.656z M506.511,477.428v29.981h-2v-29.981
		H506.511z M501.365,477.428v29.981h-2v-29.981H501.365z M496.587,475.122v32.287h-2v-32.287H496.587z M491.809,475.122v32.287h-2
		v-32.287H491.809z M486.664,481.272v26.137h-2v-26.137H486.664z M481.518,478.966v28.443h-2v-28.443H481.518z M476.74,481.272
		v26.137h-2v-26.137H476.74z M471.962,481.272v26.137h-2v-26.137H471.962z M466.816,478.966v28.443h-2v-28.443H466.816z
		 M461.671,478.966v28.443h-2v-28.443H461.671z M456.893,482.81v24.6h-2v-24.6H456.893z M452.115,482.81v24.6h-2v-24.6H452.115z
		 M446.969,485.116v22.293h-2v-22.293H446.969z M441.824,482.81v24.6h-2v-24.6H441.824z M437.046,478.966v28.443h-2v-28.443H437.046
		z M432.267,478.966v28.443h-2v-28.443H432.267z M427.122,485.116v22.293h-2v-22.293H427.122z M421.976,482.81v24.6h-2v-24.6
		H421.976z M417.198,485.116v22.293h-2v-22.293H417.198z M412.053,478.966v28.443h-2v-28.443H412.053z M407.275,481.272v26.137h-2
		v-26.137H407.275z M402.129,478.966v28.443h-2v-28.443H402.129z M396.984,482.81v24.6h-2v-24.6H396.984z M392.206,485.116v22.293
		h-2v-22.293H392.206z M387.428,486.653v20.756h-2v-20.756H387.428z M382.282,486.653v20.756h-2v-20.756H382.282z M377.136,482.81
		v24.6h-2v-24.6H377.136z M372.358,482.81v24.6h-2v-24.6H372.358z M367.58,486.653v20.756h-2v-20.756H367.58z M362.435,488.191
		v19.218h-2v-19.218H362.435z M357.289,488.191v19.218h-2v-19.218H357.289z M352.511,488.191v19.218h-2v-19.218H352.511z
		 M347.733,486.653v20.756h-2v-20.756H347.733z M342.588,488.191v19.218h-2v-19.218H342.588z M337.442,490.497v16.912h-2v-16.912
		H337.442z M332.664,490.497v16.912h-2v-16.912H332.664z M327.518,488.191v19.218h-2v-19.218H327.518z M322.74,492.034v15.375h-2
		v-15.375H322.74z M317.595,488.191v19.218h-2v-19.218H317.595z M312.817,488.191v19.218h-2v-19.218H312.817z M307.671,490.497
		v16.912h-2v-16.912H307.671z M302.893,490.497v16.912h-2v-16.912H302.893z M297.748,494.341v13.068h-2v-13.068H297.748z
		 M292.602,492.034v15.375h-2v-15.375H292.602z M287.824,492.034v15.375h-2v-15.375H287.824z M283.046,486.653v20.756h-2v-20.756
		H283.046z M277.9,488.191v19.218h-2v-19.218H277.9z M272.755,492.034v15.375h-2v-15.375H272.755z M267.977,488.191v19.218h-2
		v-19.218H267.977z M263.199,488.191v19.218h-2v-19.218H263.199z M258.053,486.653v20.756h-2v-20.756H258.053z M252.908,485.116
		v22.293h-2v-22.293H252.908z M248.13,486.653v20.756h-2v-20.756H248.13z M238.206,481.272v26.137h-2v-26.137H238.206z"/>
</g>
<g>
	<path fill="#697268" d="M581.121,408.242v63.805h-2v-63.805H581.121z M576.343,425.155v52.274h-2v-52.274H576.343z
		 M571.198,422.848v54.58h-2v-54.58H571.198z M566.052,425.155v52.274h-2v-52.274H566.052z M561.274,425.155v53.811h-2v-53.811
		H561.274z M556.496,417.467v57.655h-2v-57.655H556.496z M551.351,413.624v61.499h-2v-61.499H551.351z M546.205,421.311v56.118h-2
		v-56.118H546.205z M541.427,419.005v56.118h-2v-56.118H541.427z M536.649,422.848v54.58h-2v-54.58H536.649z M531.503,413.624
		v61.499h-2v-61.499H531.503z M526.358,408.242v65.342h-2v-65.342H526.358z M521.58,402.861v69.186h-2v-69.186H521.58z
		 M516.434,421.311v56.118h-2v-56.118H516.434z M511.656,417.467v59.961h-2v-59.961H511.656z M506.511,415.93v61.499h-2V415.93
		H506.511z M501.365,412.086v65.342h-2v-65.342H501.365z M496.587,408.242v66.88h-2v-66.88H496.587z M491.809,402.861v72.261h-2
		v-72.261H491.809z M486.664,425.155v56.118h-2v-56.118H486.664z M481.518,413.624v65.342h-2v-65.342H481.518z M476.74,422.848
		v58.424h-2v-58.424H476.74z M471.962,417.467v63.805h-2v-63.805H471.962z M466.816,413.624v65.342h-2v-65.342H466.816z
		 M461.671,413.624v65.342h-2v-65.342H461.671z M456.893,425.155v57.655h-2v-57.655H456.893z M452.115,425.155v57.655h-2v-57.655
		H452.115z M446.969,430.536v54.58h-2v-54.58H446.969z M441.824,422.848v59.961h-2v-59.961H441.824z M437.046,419.005v59.961h-2
		v-59.961H437.046z M432.267,417.467v61.499h-2v-61.499H432.267z M427.122,428.998v56.118h-2v-56.118H427.122z M421.976,425.155
		v57.655h-2v-57.655H421.976z M417.198,428.998v56.118h-2v-56.118H417.198z M412.053,415.93v63.036h-2V415.93H412.053z
		 M407.275,417.467v63.805h-2v-63.805H407.275z M402.129,412.086v66.88h-2v-66.88H402.129z M396.984,404.399v78.411h-2v-78.411
		H396.984z M392.206,425.155v59.961h-2v-59.961H392.206z M387.428,422.848v63.805h-2v-63.805H387.428z M382.282,435.917v50.737h-2
		v-50.737H382.282z M377.136,421.311v61.499h-2v-61.499H377.136z M372.358,426.692v56.118h-2v-56.118H372.358z M367.58,413.624
		v73.03h-2v-73.03H367.58z M362.435,432.073v56.118h-2v-56.118H362.435z M357.289,430.536v57.655h-2v-57.655H357.289z
		 M352.511,432.073v56.118h-2v-56.118H352.511z M347.733,426.692v59.961h-2v-59.961H347.733z M342.588,430.536v57.655h-2v-57.655
		H342.588z M337.442,434.379v56.118h-2v-56.118H337.442z M332.664,434.379v56.118h-2v-56.118H332.664z M327.518,435.917v52.274h-2
		v-52.274H327.518z M322.74,438.223v53.811h-2v-53.811H322.74z M317.595,432.073v56.118h-2v-56.118H317.595z M312.817,422.848
		v65.342h-2v-65.342H312.817z M307.671,443.604v46.893h-2v-46.893H307.671z M302.893,435.917v54.58h-2v-54.58H302.893z
		 M297.748,445.142v49.199h-2v-49.199H297.748z M292.602,443.604v48.43h-2v-48.43H292.602z M287.824,438.223v53.811h-2v-53.811
		H287.824z M283.046,428.998v57.655h-2v-57.655H283.046z M277.9,430.536v57.655h-2v-57.655H277.9z M272.755,435.917v56.118h-2
		v-56.118H272.755z M267.977,434.379v53.811h-2v-53.811H267.977z M263.199,426.692v61.499h-2v-61.499H263.199z M258.053,421.311
		v65.342h-2v-65.342H258.053z M252.908,422.848v62.268h-2v-62.268H252.908z M248.13,425.155v61.499h-2v-61.499H248.13z
		 M243.352,445.142v62.268h-2v-62.268H243.352z M238.206,415.93v65.342h-2V415.93H238.206z M233.06,438.223v69.186h-2v-69.186
		H233.06z M228.282,442.067v65.342h-2v-65.342H228.282z M223.137,448.985v58.424h-2v-58.424H223.137z"/>
</g>
<g>
	<path fill="#CACC90" d="M581.121,239.889v168.353h-2V239.889H581.121z M576.343,322.144v103.01h-2v-103.01H576.343z
		 M571.198,311.382v111.467h-2V311.382H571.198z M566.052,305.232v119.923h-2V305.232H566.052z M561.274,311.382v113.773h-2V311.382
		H561.274z M556.496,285.245v132.222h-2V285.245H556.496z M551.351,255.264v158.359h-2V255.264H551.351z M546.205,318.3v103.01h-2
		V318.3H546.205z M541.427,301.388v117.616h-2V301.388H541.427z M536.649,299.851v122.998h-2V299.851H536.649z M531.503,286.782
		v126.841h-2V286.782H531.503z M526.358,264.489v143.753h-2V264.489H526.358z M521.58,225.283v177.578h-2V225.283H521.58z
		 M516.434,322.144v99.167h-2v-99.167H516.434z M511.656,305.232v112.235h-2V305.232H511.656z M506.511,294.47v121.46h-2V294.47
		H506.511z M501.365,314.457v97.629h-2v-97.629H501.365z M496.587,301.388v106.854h-2V301.388H496.587z M491.809,301.388v101.473h-2
		V301.388H491.809z M486.664,363.656v61.499h-2v-61.499H486.664z M481.518,340.594v73.03h-2v-73.03H481.518z M476.74,355.968v66.88
		h-2v-66.88H476.74z M471.962,353.662v63.805h-2v-63.805H471.962z M466.816,346.744v66.88h-2v-66.88H466.816z M461.671,352.125
		v61.499h-2v-61.499H461.671z M456.893,378.262v46.893h-2v-46.893H456.893z M452.115,379.799v45.355h-2v-45.355H452.115z
		 M446.969,389.793v40.743h-2v-40.743H446.969z M441.824,379.799v43.049h-2v-43.049H441.824z M437.046,372.881v46.124h-2v-46.124
		H437.046z M432.267,376.724v40.743h-2v-40.743H432.267z M427.122,396.711v32.287h-2v-32.287H427.122z M421.976,391.33v33.824h-2
		V391.33H421.976z M417.198,399.018v29.981h-2v-29.981H417.198z M412.053,379.799v36.131h-2v-36.131H412.053z M407.275,379.799
		v37.668h-2v-37.668H407.275z M402.129,389.793v22.293h-2v-22.293H402.129z M396.984,389.793v14.606h-2v-14.606H396.984z
		 M392.206,409.78v15.375h-2V409.78H392.206z M387.428,412.086v10.762h-2v-10.762H387.428z M382.282,425.155v10.762h-2v-10.762
		H382.282z M377.136,408.242v13.068h-2v-13.068H377.136z M372.358,412.086v14.606h-2v-14.606H372.358z M367.58,404.399v9.225h-2
		v-9.225H367.58z M362.435,422.848v9.225h-2v-9.225H362.435z M357.289,419.005v11.531h-2v-11.531H357.289z M352.511,422.848v9.225
		h-2v-9.225H352.511z M347.733,419.005v7.687h-2v-7.687H347.733z M342.588,421.311v9.225h-2v-9.225H342.588z M337.442,425.155v9.225
		h-2v-9.225H337.442z M332.664,426.692v7.687h-2v-7.687H332.664z M327.518,428.998v6.919h-2v-6.919H327.518z M322.74,430.536v7.687
		h-2v-7.687H322.74z M317.595,422.848v9.225h-2v-9.225H317.595z M312.817,415.93v6.919h-2v-6.919H312.817z M307.671,435.917v7.687
		h-2v-7.687H307.671z"/>
</g>
<g>
	<path fill="#AF7A6D" d="M581.121,62.312v177.578h-2V62.312H581.121z M576.343,189.922v132.222h-2V189.922H576.343z
		 M571.198,178.391v132.991h-2V178.391H571.198z M566.052,169.166v136.066h-2V169.166H566.052z M561.274,176.853v134.529h-2V176.853
		H561.274z M556.496,131.498v153.747h-2V131.498H556.496z M551.351,103.823v151.441h-2V103.823H551.351z M546.308,195.303V318.3
		h-2.205V195.303H546.308z M541.427,183.772v117.616h-2V183.772H541.427z M536.649,169.166v130.685h-2V169.166H536.649z
		 M531.503,153.791v132.991h-2V153.791H531.503z M526.358,127.654v136.835h-2V127.654H526.358z M521.58,79.224v146.06h-2V79.224
		H521.58z M516.434,204.528v117.616h-2V204.528H516.434z M511.656,191.459v113.773h-2V191.459H511.656z M506.511,173.01v121.46h-2
		V173.01H506.511z M501.365,200.684v113.773h-2V200.684H501.365z M496.587,182.234v119.154h-2V182.234H496.587z M491.809,182.234
		v119.154h-2V182.234H491.809z M486.664,269.87v93.786h-2V269.87H486.664z M481.518,243.733v96.861h-2v-96.861H481.518z
		 M476.74,259.108v96.861h-2v-96.861H476.74z M471.962,262.183v91.479h-2v-91.479H471.962z M466.816,251.42v95.323h-2V251.42
		H466.816z M461.671,262.183v89.942h-2v-89.942H461.671z M456.893,299.851v78.411h-2v-78.411H456.893z M452.115,303.694v76.105h-2
		v-76.105H452.115z M446.969,309.076v80.717h-2v-80.717H446.969z M441.824,307.538v72.261h-2v-72.261H441.824z M437.046,294.47
		v78.411h-2V294.47H437.046z M432.267,298.313v78.411h-2v-78.411H432.267z M427.122,331.369v65.342h-2v-65.342H427.122z
		 M421.976,325.988v65.342h-2v-65.342H421.976z M417.198,333.675v65.342h-2v-65.342H417.198z M412.053,316.763v63.036h-2v-63.036
		H412.053z M407.275,316.763v63.036h-2v-63.036H407.275z M402.129,324.45v65.342h-2V324.45H402.129z M397.086,335.213v54.58h-2.205
		v-54.58H397.086z M392.206,359.812v49.968h-2v-49.968H392.206z M387.428,363.656v48.43h-2v-48.43H387.428z M382.282,378.262v46.893
		h-2v-46.893H382.282z M377.239,361.35v46.893h-2.205V361.35H377.239z M372.358,365.193v46.893h-2v-46.893H372.358z M367.58,370.574
		v33.824h-2v-33.824H367.58z M362.435,387.487v35.362h-2v-35.362H362.435z M357.289,378.262v40.743h-2v-40.743H357.289z
		 M352.511,385.949v36.899h-2v-36.899H352.511z M347.733,383.643v35.362h-2v-35.362H347.733z M342.588,385.949v35.362h-2v-35.362
		H342.588z M337.442,389.793v35.362h-2v-35.362H337.442z M332.664,399.018v27.674h-2v-27.674H332.664z M327.518,395.174v33.824h-2
		v-33.824H327.518z M322.74,402.861v27.674h-2v-27.674H322.74z M317.595,387.487v35.362h-2v-35.362H317.595z M312.817,382.105
		v33.824h-2v-33.824H312.817z M307.671,404.399v31.518h-2v-31.518H307.671z M302.893,405.936v29.981h-2v-29.981H302.893z
		 M297.748,413.624v31.518h-2v-31.518H297.748z M292.602,415.93v27.674h-2V415.93H292.602z M287.824,404.399v33.824h-2v-33.824
		H287.824z M283.149,392.868v36.131h-2.205v-36.131H283.149z M277.9,396.711v33.824h-2v-33.824H277.9z M272.755,412.086v23.831h-2
		v-23.831H272.755z M267.977,400.555v33.824h-2v-33.824H267.977z M263.199,399.018v27.674h-2v-27.674H263.199z M258.053,389.793
		v31.518h-2v-31.518H258.053z M252.908,387.487v35.362h-2v-35.362H252.908z M248.13,391.33v33.824h-2V391.33H248.13z
		 M243.352,417.467v27.674h-2v-27.674H243.352z M238.206,379.799v36.131h-2v-36.131H238.206z M233.06,405.936v32.287h-2v-32.287
		H233.06z M228.282,408.242v33.824h-2v-33.824H228.282z"/>
</g>
<g>
	
		<line fill="none" stroke="#333333" stroke-linejoin="round" stroke-miterlimit="10" x1="582.694" y1="507.025" x2="219.564" y2="507.025"/>
</g>
<g>
	<g>
		<path d="M322.968,6.374v4.843c-1.332,0.973-3.367,1.639-5.113,1.639c-3.817,0-6.716-2.772-6.716-6.428
			c0-3.637,2.952-6.392,6.878-6.392c1.872,0,3.781,0.72,5.06,1.836l-1.603,2.035c-0.937-0.864-2.233-1.405-3.457-1.405
			c-2.233,0-3.962,1.711-3.962,3.926c0,2.232,1.747,3.943,3.979,3.943c0.757,0,1.656-0.271,2.467-0.685V6.374H322.968z"/>
		<path d="M338.089,6.428c0,3.637-2.917,6.428-6.771,6.428s-6.77-2.772-6.77-6.428c0-3.673,2.916-6.392,6.77-6.392
			S338.089,2.772,338.089,6.428z M327.465,6.428c0,2.215,1.783,3.943,3.89,3.943s3.817-1.729,3.817-3.943s-1.711-3.907-3.817-3.907
			C329.23,2.521,327.465,4.213,327.465,6.428z"/>
		<path d="M352.273,6.428c0,3.637-2.917,6.428-6.771,6.428c-3.853,0-6.77-2.772-6.77-6.428c0-3.673,2.917-6.392,6.77-6.392
			C349.356,0.036,352.273,2.772,352.273,6.428z M341.65,6.428c0,2.215,1.782,3.943,3.889,3.943s3.817-1.729,3.817-3.943
			s-1.711-3.907-3.817-3.907C343.414,2.521,341.65,4.213,341.65,6.428z"/>
		<path d="M364.746,6.374v4.843c-1.332,0.973-3.367,1.639-5.113,1.639c-3.817,0-6.716-2.772-6.716-6.428
			c0-3.637,2.953-6.392,6.878-6.392c1.872,0,3.781,0.72,5.06,1.836l-1.603,2.035c-0.937-0.864-2.232-1.405-3.457-1.405
			c-2.232,0-3.961,1.711-3.961,3.926c0,2.232,1.746,3.943,3.979,3.943c0.757,0,1.657-0.271,2.467-0.685V6.374H364.746z"/>
		<path d="M375.474,10.245v2.484h-8.246V0.126h2.845v10.119H375.474z"/>
		<path d="M380.008,2.484v2.737h6.086V7.58h-6.086v2.791h6.95v2.358h-9.795V0.126h9.597v2.358H380.008z"/>
		<path d="M398.963,2.538v10.191h-2.845V2.538h-3.836V0.126h10.533v2.412H398.963z"/>
		<path d="M410.087,9.129h-0.27h-2.629v3.601h-2.845V0.126h5.474c3.295,0,5.167,1.584,5.167,4.375c0,1.944-0.828,3.349-2.358,4.069
			l2.683,4.159h-3.223L410.087,9.129z M409.818,6.752c1.566,0,2.467-0.721,2.467-2.161c0-1.404-0.9-2.106-2.467-2.106h-2.629v4.268
			H409.818z"/>
		<path d="M420.221,2.484v2.737h6.086V7.58h-6.086v2.791h6.95v2.358h-9.795V0.126h9.597v2.358H420.221z"/>
		<path d="M438.223,12.729l-6.104-8.084v8.084h-2.719V0.126h2.593l6.121,8.103V0.126h2.701v12.604H438.223z"/>
		<path d="M448.932,0.126c3.907,0,6.626,2.574,6.626,6.302c0,3.709-2.755,6.302-6.734,6.302h-5.239V0.126H448.932z M446.429,10.335
			h2.574c2.107,0,3.655-1.585,3.655-3.89c0-2.322-1.62-3.925-3.781-3.925h-2.448V10.335z"/>
		<path d="M466.824,1.368l-1.099,2.358c-1.332-0.792-2.916-1.296-3.925-1.296c-0.954,0-1.603,0.342-1.603,1.026
			c0,2.322,6.716,1.026,6.698,5.563c0,2.467-2.143,3.799-4.934,3.799c-2.07,0-4.142-0.792-5.563-1.998l1.134-2.323
			c1.297,1.152,3.133,1.891,4.466,1.891c1.17,0,1.872-0.432,1.872-1.206c0-2.377-6.716-0.99-6.716-5.456
			c0-2.286,1.963-3.727,4.88-3.727C463.8,0,465.564,0.54,466.824,1.368z"/>
	</g>
</g>
<g>
	
		<rect x="0.5" y="412.803" fill="none" stroke="#808080" stroke-linejoin="round" stroke-miterlimit="10" width="147.489" height="94.221"/>
	<g>
		<g>
			<path fill="#11110B" d="M30.304,431.575l0.692-0.134l2.687-7.789h1.297l2.708,7.789l0.692,0.134v0.611h-2.992v-0.611l0.889-0.135
				l-0.518-1.637h-3.204l-0.496,1.637l0.932,0.135v0.611H30.31L30.304,431.575z M35.535,429.091l-1.166-3.626l-0.24-0.928
				l-0.239,0.938l-1.117,3.615H35.535z"/>
			<path fill="#11110B" d="M38.609,431.575l0.883-0.095v-7.823l-0.894-0.111v-0.533l1.858-0.241h0.011l0.267,0.19v8.519l0.927,0.095
				v0.611h-3.052V431.575z"/>
			<path fill="#11110B" d="M42.549,431.6l0.681-0.092v-4.558l-0.779-0.218v-0.708l1.607-0.225h0.027l0.262,0.219v0.477l-0.011,0.271
				c0.12-0.117,0.27-0.233,0.449-0.35s0.372-0.219,0.578-0.309c0.205-0.089,0.413-0.161,0.624-0.218
				c0.21-0.057,0.408-0.084,0.594-0.084c0.403,0,0.726,0.069,0.967,0.207c0.242,0.139,0.426,0.354,0.554,0.645
				c0.102-0.089,0.235-0.185,0.402-0.285c0.167-0.102,0.35-0.194,0.548-0.278s0.403-0.153,0.616-0.207
				c0.212-0.055,0.415-0.081,0.607-0.081c0.355,0,0.651,0.05,0.886,0.15s0.419,0.256,0.556,0.465
				c0.136,0.208,0.231,0.475,0.286,0.799s0.081,0.712,0.081,1.162v3.126l0.779,0.092v0.587h-2.67V431.6l0.644-0.098v-3.07
				c0-0.3-0.016-0.56-0.047-0.78c-0.03-0.221-0.089-0.404-0.174-0.55c-0.086-0.146-0.206-0.255-0.36-0.326s-0.353-0.106-0.597-0.106
				c-0.119,0-0.243,0.016-0.37,0.047c-0.127,0.03-0.254,0.072-0.379,0.125s-0.243,0.11-0.354,0.175
				c-0.11,0.064-0.209,0.129-0.297,0.195c0.036,0.17,0.062,0.356,0.076,0.56c0.015,0.202,0.022,0.424,0.022,0.662v3.069l0.795,0.098
				v0.587h-2.768V431.6l0.725-0.098V428.4c0-0.296-0.013-0.553-0.038-0.77c-0.025-0.218-0.078-0.397-0.158-0.54
				s-0.191-0.248-0.335-0.317s-0.332-0.104-0.564-0.104c-0.134,0-0.271,0.017-0.411,0.05s-0.277,0.077-0.411,0.134
				c-0.135,0.057-0.263,0.121-0.385,0.192c-0.121,0.072-0.231,0.149-0.329,0.23v4.227l0.73,0.098v0.587h-2.659V431.6z"/>
			<path fill="#11110B" d="M53.583,428.996c0-0.512,0.084-0.965,0.253-1.362c0.169-0.396,0.392-0.73,0.668-1
				c0.275-0.27,0.591-0.476,0.945-0.616c0.354-0.142,0.717-0.212,1.087-0.212c0.49,0,0.914,0.082,1.27,0.246
				c0.356,0.165,0.648,0.39,0.878,0.676c0.229,0.286,0.398,0.624,0.509,1.014c0.111,0.39,0.166,0.81,0.166,1.26
				c0,0.519-0.083,0.977-0.25,1.373c-0.167,0.397-0.389,0.73-0.665,1c-0.276,0.271-0.592,0.474-0.948,0.611
				c-0.355,0.138-0.721,0.207-1.095,0.207c-0.491,0-0.913-0.082-1.268-0.247c-0.354-0.164-0.646-0.39-0.874-0.676
				c-0.229-0.286-0.399-0.624-0.51-1.014C53.638,429.866,53.583,429.446,53.583,428.996z M56.471,431.497c1.007,0,1.51-0.8,1.51-2.4
				c0-0.371-0.027-0.714-0.082-1.03s-0.142-0.591-0.262-0.824c-0.12-0.232-0.275-0.415-0.466-0.546
				c-0.19-0.13-0.424-0.195-0.7-0.195c-0.498,0-0.874,0.199-1.131,0.599c-0.256,0.398-0.384,0.999-0.384,1.801
				c0,0.371,0.028,0.716,0.084,1.033c0.057,0.318,0.145,0.593,0.265,0.824s0.276,0.412,0.469,0.543S56.198,431.497,56.471,431.497z"
				/>
			<path fill="#11110B" d="M60.345,431.595l0.714-0.093v-4.552l-0.779-0.218v-0.708l1.613-0.225h0.027l0.256,0.219v0.477
				l-0.006,0.271c0.12-0.117,0.268-0.232,0.441-0.347c0.175-0.114,0.362-0.217,0.564-0.309c0.201-0.091,0.41-0.164,0.627-0.221
				c0.216-0.057,0.426-0.084,0.629-0.084c0.356,0,0.649,0.049,0.88,0.148c0.23,0.099,0.413,0.253,0.548,0.464
				s0.228,0.479,0.28,0.808s0.079,0.719,0.079,1.173v3.104l0.785,0.093v0.592h-2.735v-0.592l0.697-0.093v-3.098
				c0-0.296-0.014-0.552-0.041-0.77c-0.027-0.217-0.08-0.396-0.158-0.539c-0.078-0.142-0.188-0.248-0.332-0.317
				s-0.332-0.104-0.564-0.104c-0.138,0-0.278,0.017-0.422,0.052c-0.144,0.034-0.283,0.081-0.42,0.139
				c-0.136,0.058-0.266,0.123-0.39,0.196c-0.123,0.073-0.234,0.148-0.332,0.226v4.215l0.752,0.093v0.592h-2.714V431.595z"/>
			<path fill="#11110B" d="M70.175,432.192c-0.323,0-0.631-0.061-0.924-0.183c-0.292-0.121-0.55-0.307-0.773-0.555
				c-0.224-0.249-0.401-0.563-0.534-0.944s-0.199-0.83-0.199-1.349c0-0.465,0.073-0.9,0.218-1.309
				c0.146-0.407,0.356-0.763,0.633-1.066c0.275-0.305,0.612-0.544,1.011-0.719c0.397-0.176,0.849-0.263,1.354-0.263
				c0.179,0,0.35,0.01,0.516,0.03c0.165,0.021,0.322,0.046,0.471,0.076v-2.092l-1.095-0.112v-0.544l2.032-0.225h0.033l0.267,0.202
				v8.271h0.643v0.583c-0.152,0.041-0.333,0.084-0.542,0.129s-0.428,0.067-0.656,0.067c-0.099,0-0.184-0.007-0.256-0.02
				c-0.073-0.013-0.134-0.04-0.183-0.081c-0.05-0.041-0.086-0.1-0.109-0.176c-0.023-0.075-0.035-0.175-0.035-0.298v-0.295
				c-0.099,0.107-0.211,0.214-0.338,0.317c-0.127,0.104-0.269,0.197-0.425,0.278c-0.156,0.082-0.327,0.147-0.513,0.198
				C70.583,432.167,70.386,432.192,70.175,432.192z M70.676,431.413c0.146,0,0.282-0.021,0.412-0.061
				c0.129-0.04,0.247-0.091,0.356-0.152c0.109-0.062,0.205-0.131,0.289-0.204c0.083-0.074,0.154-0.147,0.212-0.22v-3.953
				c-0.028-0.047-0.077-0.092-0.144-0.134c-0.067-0.043-0.149-0.081-0.246-0.114c-0.096-0.033-0.201-0.06-0.315-0.079
				s-0.233-0.029-0.357-0.029c-0.247,0-0.479,0.046-0.694,0.138c-0.217,0.091-0.405,0.238-0.566,0.441
				c-0.162,0.202-0.29,0.466-0.385,0.791c-0.095,0.324-0.146,0.72-0.152,1.187c-0.008,0.42,0.03,0.78,0.111,1.082
				c0.082,0.301,0.194,0.549,0.338,0.742s0.313,0.336,0.51,0.428S70.451,431.413,70.676,431.413z"/>
			<path fill="#11110B" d="M77.575,431.575l0.97-0.129l0.817-7.031l-1.166-0.141v-0.622h2.975l1.711,5.142l0.284,1.29l0.245-1.29
				l1.509-5.142h2.976v0.622l-1.21,0.146l1.058,7.021l0.975,0.135v0.611h-3.236v-0.611l0.965-0.129l-0.687-5.092l-0.24-2.237
				l-0.376,1.537l-1.776,6.151h-0.703l-1.967-5.523l-0.605-2.159l-0.174,2.227l-0.441,5.091l1.073,0.135v0.611h-2.975V431.575z"/>
			<path fill="#11110B" d="M89.143,431.575l0.883-0.095v-4.699l-0.79-0.23v-0.661l1.732-0.23h0.027l0.278,0.219v5.603l0.872,0.095
				v0.611h-3.003V431.575z M90.187,424.468c-0.089-0.039-0.165-0.093-0.227-0.162s-0.109-0.15-0.145-0.244
				c-0.034-0.094-0.052-0.194-0.052-0.303c0-0.12,0.018-0.233,0.052-0.342c0.035-0.108,0.087-0.205,0.155-0.289
				c0.069-0.084,0.154-0.151,0.257-0.202c0.102-0.051,0.22-0.075,0.354-0.075h0.006c0.12,0,0.226,0.021,0.318,0.064
				s0.171,0.101,0.234,0.174c0.063,0.072,0.112,0.156,0.145,0.249c0.033,0.094,0.049,0.19,0.049,0.292
				c0,0.123-0.017,0.24-0.052,0.351c-0.034,0.11-0.087,0.205-0.157,0.285c-0.071,0.081-0.16,0.145-0.268,0.191
				s-0.231,0.069-0.373,0.069h-0.006C90.372,424.526,90.276,424.507,90.187,424.468z"/>
			<path fill="#11110B" d="M92.848,431.575l0.883-0.095v-7.823l-0.894-0.111v-0.533l1.858-0.241h0.011l0.267,0.19v8.519l0.927,0.095
				v0.611h-3.052V431.575z"/>
			<path fill="#11110B" d="M96.619,431.575l0.714-0.095v-7.823l-0.851-0.111v-0.533l1.814-0.241h0.017l0.262,0.19v5.552l-0.021,0.64
				l2.43-2.607l-0.877-0.163v-0.572h2.773v0.572l-0.855,0.19l-1.586,1.593l2.136,3.314l0.654,0.095v0.611h-2.729v-0.605l0.653-0.106
				l-1.536-2.562L98.548,430l0.027,0.594v0.887l0.784,0.101v0.605h-2.74V431.575z"/>
			<path fill="#11110B" d="M30.849,448.895c0-0.66,0.104-1.254,0.313-1.779s0.495-0.971,0.858-1.336
				c0.363-0.364,0.791-0.645,1.283-0.84s1.021-0.293,1.589-0.293c0.246,0,0.492,0.014,0.735,0.042s0.471,0.062,0.684,0.101
				c0.213,0.04,0.404,0.079,0.575,0.118s0.309,0.068,0.414,0.087l-0.104,2.048h-0.812l-0.305-1.391
				c-0.073-0.094-0.222-0.173-0.447-0.236c-0.225-0.063-0.535-0.096-0.932-0.096c-0.345,0-0.663,0.074-0.953,0.224
				c-0.291,0.148-0.542,0.369-0.752,0.659c-0.211,0.291-0.375,0.65-0.493,1.079s-0.178,0.923-0.178,1.482
				c0,0.483,0.049,0.951,0.145,1.404c0.097,0.452,0.246,0.853,0.45,1.201c0.203,0.35,0.463,0.629,0.779,0.84
				c0.315,0.211,0.695,0.315,1.139,0.315c0.188,0,0.353-0.012,0.49-0.037s0.257-0.058,0.356-0.096
				c0.101-0.038,0.183-0.08,0.248-0.128c0.065-0.047,0.12-0.094,0.164-0.141l0.474-1.149l0.773,0.106l-0.239,1.679
				c-0.146,0.011-0.283,0.039-0.414,0.085s-0.277,0.094-0.438,0.146c-0.162,0.051-0.349,0.098-0.559,0.14
				c-0.211,0.042-0.467,0.063-0.769,0.063c-0.654,0-1.234-0.098-1.741-0.293s-0.934-0.478-1.28-0.846
				c-0.347-0.369-0.609-0.818-0.787-1.35C30.938,450.173,30.849,449.57,30.849,448.895z"/>
			<path fill="#11110B" d="M38.195,449.996c0-0.512,0.084-0.965,0.253-1.362c0.169-0.396,0.392-0.73,0.668-1
				c0.275-0.27,0.591-0.476,0.945-0.616c0.354-0.142,0.717-0.212,1.087-0.212c0.49,0,0.914,0.082,1.27,0.246
				c0.356,0.165,0.648,0.39,0.878,0.676c0.229,0.286,0.398,0.624,0.509,1.014c0.111,0.39,0.166,0.81,0.166,1.26
				c0,0.519-0.083,0.977-0.25,1.373c-0.167,0.397-0.389,0.73-0.665,1c-0.276,0.271-0.592,0.474-0.948,0.611
				c-0.355,0.138-0.721,0.207-1.095,0.207c-0.491,0-0.913-0.082-1.268-0.247c-0.354-0.164-0.646-0.39-0.874-0.676
				c-0.229-0.286-0.399-0.624-0.51-1.014C38.249,450.866,38.195,450.446,38.195,449.996z M41.082,452.497c1.007,0,1.51-0.8,1.51-2.4
				c0-0.371-0.027-0.714-0.082-1.03s-0.142-0.591-0.262-0.824c-0.12-0.232-0.275-0.415-0.466-0.546
				c-0.19-0.13-0.424-0.195-0.7-0.195c-0.498,0-0.874,0.199-1.131,0.599c-0.256,0.398-0.384,0.999-0.384,1.801
				c0,0.371,0.028,0.716,0.084,1.033c0.057,0.318,0.145,0.593,0.265,0.824s0.276,0.412,0.469,0.543S40.81,452.497,41.082,452.497z"
				/>
			<path fill="#11110B" d="M44.821,450.114c0-0.45,0.065-0.876,0.196-1.276c0.13-0.4,0.327-0.752,0.591-1.054
				c0.264-0.303,0.591-0.541,0.983-0.716c0.393-0.176,0.849-0.263,1.368-0.263c0.188,0,0.368,0.013,0.539,0.039
				s0.329,0.057,0.475,0.093c0.145,0.035,0.273,0.073,0.387,0.114c0.112,0.041,0.205,0.075,0.277,0.102l-0.055,1.646h-0.757
				l-0.251-0.989c-0.051-0.119-0.154-0.207-0.311-0.262s-0.334-0.082-0.534-0.082c-0.236,0-0.45,0.047-0.643,0.141
				c-0.192,0.093-0.359,0.233-0.499,0.42c-0.14,0.188-0.248,0.422-0.324,0.704s-0.114,0.61-0.114,0.983
				c-0.004,0.459,0.042,0.853,0.137,1.183c0.094,0.33,0.222,0.601,0.384,0.812c0.161,0.211,0.351,0.367,0.566,0.468
				c0.217,0.101,0.448,0.15,0.695,0.15c0.171,0,0.333-0.014,0.487-0.042c0.154-0.027,0.297-0.063,0.428-0.107
				s0.251-0.093,0.359-0.147c0.109-0.054,0.204-0.109,0.284-0.165l0.234,0.485c-0.095,0.101-0.215,0.2-0.36,0.3
				c-0.146,0.099-0.31,0.188-0.493,0.269c-0.184,0.081-0.379,0.146-0.586,0.196c-0.207,0.051-0.417,0.076-0.632,0.076
				c-0.472,0-0.885-0.079-1.236-0.236c-0.353-0.157-0.647-0.373-0.883-0.648c-0.236-0.275-0.414-0.601-0.531-0.977
				C44.885,450.956,44.823,450.55,44.821,450.114z"/>
			<path fill="#11110B" d="M50.536,449.996c0-0.512,0.084-0.965,0.253-1.362c0.169-0.396,0.392-0.73,0.668-1
				c0.275-0.27,0.591-0.476,0.945-0.616c0.354-0.142,0.717-0.212,1.087-0.212c0.49,0,0.914,0.082,1.27,0.246
				c0.356,0.165,0.648,0.39,0.878,0.676c0.229,0.286,0.398,0.624,0.509,1.014c0.111,0.39,0.166,0.81,0.166,1.26
				c0,0.519-0.083,0.977-0.25,1.373c-0.167,0.397-0.389,0.73-0.665,1c-0.276,0.271-0.592,0.474-0.948,0.611
				c-0.355,0.138-0.721,0.207-1.095,0.207c-0.491,0-0.913-0.082-1.268-0.247c-0.354-0.164-0.646-0.39-0.874-0.676
				c-0.229-0.286-0.399-0.624-0.51-1.014C50.591,450.866,50.536,450.446,50.536,449.996z M53.424,452.497c1.007,0,1.51-0.8,1.51-2.4
				c0-0.371-0.027-0.714-0.082-1.03s-0.142-0.591-0.262-0.824c-0.12-0.232-0.275-0.415-0.466-0.546
				c-0.19-0.13-0.424-0.195-0.7-0.195c-0.498,0-0.874,0.199-1.131,0.599c-0.256,0.398-0.384,0.999-0.384,1.801
				c0,0.371,0.028,0.716,0.084,1.033c0.057,0.318,0.145,0.593,0.265,0.824s0.276,0.412,0.469,0.543S53.152,452.497,53.424,452.497z"
				/>
			<path fill="#11110B" d="M57.298,452.595l0.714-0.093v-4.552l-0.779-0.218v-0.708l1.613-0.225h0.027l0.256,0.219v0.477
				l-0.006,0.271c0.12-0.117,0.268-0.232,0.441-0.347c0.175-0.114,0.362-0.217,0.564-0.309c0.201-0.091,0.41-0.164,0.627-0.221
				c0.216-0.057,0.426-0.084,0.629-0.084c0.356,0,0.649,0.049,0.88,0.148c0.23,0.099,0.413,0.253,0.548,0.464
				s0.228,0.479,0.28,0.808s0.079,0.719,0.079,1.173v3.104l0.785,0.093v0.592h-2.735v-0.592l0.697-0.093v-3.098
				c0-0.296-0.014-0.552-0.041-0.77c-0.027-0.217-0.08-0.396-0.158-0.539c-0.078-0.142-0.188-0.248-0.332-0.317
				s-0.332-0.104-0.564-0.104c-0.138,0-0.278,0.017-0.422,0.052c-0.144,0.034-0.283,0.081-0.42,0.139
				c-0.136,0.058-0.266,0.123-0.39,0.196c-0.123,0.073-0.234,0.148-0.332,0.226v4.215l0.752,0.093v0.592h-2.714V452.595z"/>
			<path fill="#11110B" d="M65.286,447.461l-0.604-0.207v-0.544l1.612-0.168H66.3l0.229,0.151v3.959
				c0,0.307,0.016,0.567,0.047,0.782c0.03,0.215,0.087,0.39,0.169,0.524c0.081,0.134,0.193,0.231,0.335,0.291s0.323,0.09,0.545,0.09
				c0.159,0,0.312-0.019,0.455-0.056c0.144-0.038,0.274-0.085,0.395-0.141s0.229-0.116,0.327-0.18
				c0.098-0.063,0.18-0.123,0.245-0.179v-4.318l-0.779-0.219v-0.544l1.722-0.162H70l0.288,0.151v5.736h0.654v0.561
				c-0.127,0.041-0.281,0.085-0.463,0.132c-0.183,0.047-0.388,0.07-0.616,0.07c-0.226,0-0.396-0.044-0.51-0.132
				s-0.171-0.244-0.171-0.469v-0.291c-0.099,0.101-0.22,0.203-0.363,0.309c-0.144,0.104-0.3,0.199-0.471,0.285
				c-0.171,0.087-0.353,0.157-0.545,0.214c-0.192,0.056-0.387,0.084-0.583,0.084c-0.338,0-0.629-0.046-0.872-0.138
				s-0.444-0.236-0.603-0.435c-0.157-0.198-0.273-0.454-0.349-0.769c-0.074-0.313-0.111-0.693-0.111-1.138V447.461z"/>
			<path fill="#11110B" d="M72.501,447.612h-0.779v-0.532c0.047-0.012,0.101-0.028,0.16-0.051c0.061-0.021,0.12-0.044,0.181-0.065
				c0.06-0.021,0.114-0.044,0.163-0.065s0.084-0.041,0.106-0.057c0.062-0.048,0.116-0.108,0.163-0.182s0.091-0.168,0.131-0.283
				c0.029-0.071,0.063-0.167,0.104-0.288s0.079-0.246,0.117-0.375s0.073-0.254,0.106-0.373c0.032-0.118,0.057-0.212,0.07-0.279
				h0.709l0.011,1.749h1.831v0.802h-1.825v3.323c0,0.314,0.005,0.562,0.016,0.741c0.011,0.179,0.037,0.312,0.079,0.4
				s0.104,0.143,0.188,0.165c0.083,0.021,0.196,0.033,0.338,0.033h0.005c0.102,0,0.212-0.008,0.33-0.022
				c0.118-0.014,0.231-0.032,0.341-0.054c0.108-0.021,0.209-0.046,0.302-0.071c0.093-0.024,0.166-0.049,0.221-0.07h0.006
				l0.186,0.537c-0.084,0.068-0.198,0.139-0.344,0.209s-0.305,0.134-0.479,0.19c-0.175,0.056-0.354,0.103-0.539,0.141
				c-0.186,0.038-0.36,0.058-0.523,0.058h-0.011c-0.215,0-0.406-0.022-0.575-0.066s-0.312-0.117-0.428-0.22
				s-0.205-0.236-0.267-0.403c-0.062-0.167-0.093-0.37-0.093-0.612V447.612z"/>
			<path fill="#11110B" d="M79.264,452.575l0.97-0.129l0.817-7.031l-1.166-0.141v-0.622h2.975l1.711,5.142l0.284,1.29l0.245-1.29
				l1.509-5.142h2.976v0.622l-1.21,0.146l1.058,7.021l0.975,0.135v0.611H87.17v-0.611l0.965-0.129l-0.687-5.092l-0.24-2.237
				l-0.376,1.537l-1.776,6.151h-0.703l-1.967-5.523l-0.605-2.159l-0.174,2.227l-0.441,5.091l1.073,0.135v0.611h-2.975V452.575z"/>
			<path fill="#11110B" d="M90.831,452.575l0.883-0.095v-4.699l-0.79-0.23v-0.661l1.732-0.23h0.027l0.278,0.219v5.603l0.872,0.095
				v0.611h-3.003V452.575z M91.875,445.468c-0.089-0.039-0.165-0.093-0.227-0.162s-0.109-0.15-0.145-0.244
				c-0.034-0.094-0.052-0.194-0.052-0.303c0-0.12,0.018-0.233,0.052-0.342c0.035-0.108,0.087-0.205,0.155-0.289
				c0.069-0.084,0.154-0.151,0.257-0.202c0.102-0.051,0.22-0.075,0.354-0.075h0.006c0.12,0,0.226,0.021,0.318,0.064
				s0.171,0.101,0.234,0.174c0.063,0.072,0.112,0.156,0.145,0.249c0.033,0.094,0.049,0.19,0.049,0.292
				c0,0.123-0.017,0.24-0.052,0.351c-0.034,0.11-0.087,0.205-0.157,0.285c-0.071,0.081-0.16,0.145-0.268,0.191
				s-0.231,0.069-0.373,0.069h-0.006C92.061,445.526,91.964,445.507,91.875,445.468z"/>
			<path fill="#11110B" d="M94.536,452.575l0.883-0.095v-7.823l-0.894-0.111v-0.533l1.858-0.241h0.011l0.267,0.19v8.519l0.927,0.095
				v0.611h-3.052V452.575z"/>
			<path fill="#11110B" d="M98.308,452.575l0.714-0.095v-7.823l-0.851-0.111v-0.533l1.814-0.241h0.017l0.262,0.19v5.552l-0.021,0.64
				l2.43-2.607l-0.877-0.163v-0.572h2.773v0.572l-0.855,0.19l-1.586,1.593l2.136,3.314l0.654,0.095v0.611h-2.729v-0.605l0.653-0.106
				l-1.536-2.562L100.237,451l0.027,0.594v0.887l0.784,0.101v0.605h-2.74V452.575z"/>
			<path fill="#11110B" d="M31.22,471.651h0.757l0.219,1.395c0.058,0.062,0.137,0.121,0.236,0.18c0.1,0.058,0.216,0.108,0.347,0.152
				c0.13,0.043,0.272,0.078,0.428,0.104c0.154,0.025,0.316,0.038,0.487,0.038c0.552,0,0.963-0.123,1.231-0.369
				c0.269-0.245,0.403-0.579,0.403-1.002c0-0.218-0.046-0.411-0.137-0.578c-0.091-0.168-0.22-0.319-0.387-0.456
				s-0.367-0.265-0.602-0.385s-0.493-0.244-0.776-0.371c-0.226-0.103-0.467-0.224-0.723-0.366c-0.256-0.142-0.494-0.313-0.714-0.516
				s-0.402-0.44-0.548-0.716c-0.145-0.274-0.218-0.596-0.218-0.963c0-0.31,0.063-0.597,0.191-0.86
				c0.127-0.264,0.308-0.491,0.542-0.683c0.234-0.19,0.519-0.34,0.853-0.447s0.71-0.161,1.128-0.161
				c0.266,0,0.513,0.019,0.744,0.056c0.23,0.038,0.439,0.081,0.626,0.129c0.188,0.049,0.351,0.096,0.491,0.141
				c0.14,0.045,0.251,0.073,0.335,0.084l-0.071,1.875h-0.729l-0.251-1.323c-0.033-0.036-0.086-0.072-0.158-0.108
				c-0.072-0.037-0.161-0.069-0.265-0.099s-0.218-0.053-0.343-0.07c-0.125-0.019-0.256-0.027-0.39-0.027
				c-0.501,0-0.872,0.101-1.111,0.303c-0.24,0.202-0.36,0.498-0.36,0.888c0,0.218,0.045,0.408,0.134,0.57s0.217,0.312,0.384,0.447
				c0.167,0.137,0.369,0.268,0.605,0.394s0.499,0.259,0.79,0.401c0.262,0.131,0.527,0.271,0.798,0.418
				c0.271,0.146,0.517,0.318,0.738,0.513s0.402,0.418,0.543,0.669c0.14,0.251,0.209,0.544,0.209,0.879
				c0,0.288-0.061,0.574-0.183,0.86c-0.121,0.285-0.305,0.543-0.55,0.772s-0.554,0.416-0.927,0.56
				c-0.372,0.144-0.811,0.216-1.315,0.216c-0.323,0-0.622-0.025-0.896-0.076c-0.274-0.05-0.52-0.107-0.735-0.171
				c-0.217-0.063-0.402-0.123-0.559-0.18c-0.156-0.056-0.278-0.087-0.365-0.095L31.22,471.651z"/>
			<path fill="#11110B" d="M37.541,470.996c0-0.512,0.084-0.965,0.253-1.362c0.169-0.396,0.392-0.73,0.668-1
				c0.275-0.27,0.591-0.476,0.945-0.616c0.354-0.142,0.717-0.212,1.087-0.212c0.49,0,0.914,0.082,1.27,0.246
				c0.356,0.165,0.648,0.39,0.878,0.676c0.229,0.286,0.398,0.624,0.509,1.014c0.111,0.39,0.166,0.81,0.166,1.26
				c0,0.519-0.083,0.977-0.25,1.373c-0.167,0.397-0.389,0.73-0.665,1c-0.276,0.271-0.592,0.474-0.948,0.611
				c-0.355,0.138-0.721,0.207-1.095,0.207c-0.491,0-0.913-0.082-1.268-0.247c-0.354-0.164-0.646-0.39-0.874-0.676
				c-0.229-0.286-0.399-0.624-0.51-1.014C37.596,471.866,37.541,471.446,37.541,470.996z M40.429,473.497c1.007,0,1.51-0.8,1.51-2.4
				c0-0.371-0.027-0.714-0.082-1.03s-0.142-0.591-0.262-0.824c-0.12-0.232-0.275-0.415-0.466-0.546
				c-0.19-0.13-0.424-0.195-0.7-0.195c-0.498,0-0.874,0.199-1.131,0.599c-0.256,0.398-0.384,0.999-0.384,1.801
				c0,0.371,0.028,0.716,0.084,1.033c0.057,0.318,0.145,0.593,0.265,0.824s0.276,0.412,0.469,0.543S40.156,473.497,40.429,473.497z"
				/>
			<path fill="#11110B" d="M44.649,475.877c0.05,0.011,0.104,0.021,0.167,0.029c0.062,0.01,0.125,0.017,0.19,0.021
				c0.065,0.006,0.127,0.008,0.186,0.008c0.142,0,0.284-0.02,0.428-0.059c0.144-0.04,0.286-0.122,0.428-0.246
				s0.284-0.302,0.428-0.531c0.144-0.231,0.286-0.535,0.428-0.913h-0.616l-2.038-5.636l-0.518-0.146v-0.595h2.773v0.595
				l-0.855,0.146l1.052,3.387l0.485,1.627l0.436-1.632l0.986-3.387l-0.729-0.141v-0.595h2.288v0.595l-0.556,0.139
				c-0.553,1.742-0.987,3.093-1.305,4.051c-0.318,0.958-0.519,1.535-0.603,1.732c-0.171,0.438-0.338,0.82-0.501,1.15
				c-0.164,0.33-0.342,0.606-0.534,0.829c-0.192,0.222-0.409,0.389-0.648,0.5c-0.24,0.111-0.52,0.167-0.839,0.167
				c-0.055,0-0.114,0-0.178,0s-0.125-0.005-0.186-0.015c-0.06-0.009-0.114-0.019-0.163-0.027c-0.049-0.01-0.086-0.02-0.111-0.031
				v-1.061C44.565,475.854,44.6,475.866,44.649,475.877z"/>
			<path fill="#11110B" d="M53.539,473.575l0.97-0.129l0.817-7.031l-1.166-0.141v-0.622h2.975l1.711,5.142l0.284,1.29l0.245-1.29
				l1.509-5.142h2.976v0.622l-1.21,0.146l1.058,7.021l0.975,0.135v0.611h-3.236v-0.611l0.965-0.129l-0.687-5.092l-0.24-2.237
				l-0.376,1.537l-1.776,6.151h-0.703l-1.967-5.523l-0.605-2.159l-0.174,2.227l-0.441,5.091l1.073,0.135v0.611h-2.975V473.575z"/>
			<path fill="#11110B" d="M65.107,473.575l0.883-0.095v-4.699l-0.79-0.23v-0.661l1.732-0.23h0.027l0.278,0.219v5.603l0.872,0.095
				v0.611h-3.003V473.575z M66.151,466.468c-0.089-0.039-0.165-0.093-0.227-0.162s-0.109-0.15-0.145-0.244
				c-0.034-0.094-0.052-0.194-0.052-0.303c0-0.12,0.018-0.233,0.052-0.342c0.035-0.108,0.087-0.205,0.155-0.289
				c0.069-0.084,0.154-0.151,0.257-0.202c0.102-0.051,0.22-0.075,0.354-0.075h0.006c0.12,0,0.226,0.021,0.318,0.064
				s0.171,0.101,0.234,0.174c0.063,0.072,0.112,0.156,0.145,0.249c0.033,0.094,0.049,0.19,0.049,0.292
				c0,0.123-0.017,0.24-0.052,0.351c-0.034,0.11-0.087,0.205-0.157,0.285c-0.071,0.081-0.16,0.145-0.268,0.191
				s-0.231,0.069-0.373,0.069h-0.006C66.336,466.526,66.239,466.507,66.151,466.468z"/>
			<path fill="#11110B" d="M68.812,473.575l0.883-0.095v-7.823l-0.894-0.111v-0.533l1.858-0.241h0.011l0.267,0.19v8.519l0.927,0.095
				v0.611h-3.052V473.575z"/>
			<path fill="#11110B" d="M72.583,473.575l0.714-0.095v-7.823l-0.851-0.111v-0.533l1.814-0.241h0.017l0.262,0.19v5.552l-0.021,0.64
				l2.43-2.607l-0.877-0.163v-0.572h2.773v0.572l-0.855,0.19l-1.586,1.593l2.136,3.314l0.654,0.095v0.611h-2.729v-0.605l0.653-0.106
				l-1.536-2.562L74.512,472l0.027,0.594v0.887l0.784,0.101v0.605h-2.74V473.575z"/>
			<path fill="#11110B" d="M31.013,494.575l0.915-0.123v-6.993l-0.861-0.144v-0.663h1.499c0.148,0,0.293,0,0.434,0
				c0.14,0,0.278,0,0.416,0c0.139,0,0.278,0,0.42,0s0.291,0,0.447,0c0.556,0,1.025,0.046,1.411,0.138
				c0.385,0.092,0.696,0.229,0.935,0.413c0.237,0.184,0.41,0.413,0.518,0.69c0.106,0.277,0.16,0.602,0.16,0.972
				c0,0.254-0.035,0.503-0.105,0.749c-0.071,0.246-0.177,0.475-0.316,0.686s-0.311,0.397-0.513,0.559
				c-0.201,0.162-0.433,0.283-0.694,0.363c0.156,0.094,0.308,0.235,0.455,0.424s0.289,0.398,0.425,0.628
				c0.137,0.229,0.267,0.469,0.39,0.715c0.124,0.247,0.242,0.474,0.357,0.682c0.114,0.207,0.223,0.383,0.326,0.527
				c0.104,0.144,0.203,0.227,0.298,0.249l0.425,0.135v0.605h-1.613c-0.072,0-0.148-0.047-0.226-0.141
				c-0.078-0.094-0.16-0.218-0.246-0.373c-0.085-0.155-0.173-0.334-0.264-0.536s-0.184-0.412-0.278-0.629
				c-0.095-0.218-0.19-0.436-0.288-0.654c-0.099-0.22-0.198-0.423-0.3-0.609c-0.103-0.188-0.205-0.352-0.309-0.491
				c-0.104-0.141-0.206-0.243-0.308-0.307c-0.105,0-0.226,0-0.359,0c-0.135,0-0.267,0-0.396,0s-0.245,0-0.349,0
				s-0.175-0.002-0.215-0.006v3.012l1.073,0.123v0.611h-3.264V494.575z M33.203,490.785c0.062,0,0.148,0,0.262,0
				c0.112,0,0.23,0,0.354,0c0.124,0,0.242,0,0.354,0s0.2,0,0.262,0c0.229,0,0.434-0.038,0.615-0.113
				c0.182-0.076,0.337-0.188,0.466-0.34c0.129-0.15,0.229-0.342,0.298-0.574c0.068-0.231,0.104-0.506,0.104-0.822
				c0-0.242-0.027-0.465-0.082-0.668c-0.055-0.202-0.15-0.377-0.286-0.523c-0.137-0.147-0.319-0.263-0.548-0.346
				c-0.229-0.082-0.516-0.124-0.86-0.124c-0.135,0-0.251,0-0.35,0c-0.098,0-0.183,0.004-0.256,0.011
				c-0.072,0.008-0.135,0.016-0.188,0.022c-0.053,0.008-0.102,0.014-0.145,0.017V490.785z"/>
			<path fill="#11110B" d="M38.761,494.575l0.883-0.095v-4.699l-0.79-0.23v-0.661l1.732-0.23h0.027l0.278,0.219v5.603l0.872,0.095
				v0.611h-3.003V494.575z M39.805,487.468c-0.089-0.039-0.165-0.093-0.227-0.162s-0.109-0.15-0.145-0.244
				c-0.034-0.094-0.052-0.194-0.052-0.303c0-0.12,0.018-0.233,0.052-0.342c0.035-0.108,0.087-0.205,0.155-0.289
				c0.069-0.084,0.154-0.151,0.257-0.202c0.102-0.051,0.22-0.075,0.354-0.075h0.006c0.12,0,0.226,0.021,0.318,0.064
				s0.171,0.101,0.234,0.174c0.063,0.072,0.112,0.156,0.145,0.249c0.033,0.094,0.049,0.19,0.049,0.292
				c0,0.123-0.017,0.24-0.052,0.351c-0.034,0.11-0.087,0.205-0.157,0.285c-0.071,0.081-0.16,0.145-0.268,0.191
				s-0.231,0.069-0.373,0.069h-0.006C39.99,487.526,39.894,487.507,39.805,487.468z"/>
			<path fill="#11110B" d="M42.488,492.114c0-0.45,0.065-0.876,0.196-1.276c0.13-0.4,0.327-0.752,0.591-1.054
				c0.264-0.303,0.591-0.541,0.983-0.716c0.393-0.176,0.849-0.263,1.368-0.263c0.188,0,0.368,0.013,0.539,0.039
				s0.329,0.057,0.475,0.093c0.145,0.035,0.273,0.073,0.387,0.114c0.112,0.041,0.205,0.075,0.277,0.102L47.25,490.8h-0.757
				l-0.251-0.989c-0.051-0.119-0.154-0.207-0.311-0.262s-0.334-0.082-0.534-0.082c-0.236,0-0.45,0.047-0.643,0.141
				c-0.192,0.093-0.359,0.233-0.499,0.42c-0.14,0.188-0.248,0.422-0.324,0.704s-0.114,0.61-0.114,0.983
				c-0.004,0.459,0.042,0.853,0.137,1.183c0.094,0.33,0.222,0.601,0.384,0.812c0.161,0.211,0.351,0.367,0.566,0.468
				c0.217,0.101,0.448,0.15,0.695,0.15c0.171,0,0.333-0.014,0.487-0.042c0.154-0.027,0.297-0.063,0.428-0.107
				s0.251-0.093,0.359-0.147c0.109-0.054,0.204-0.109,0.284-0.165l0.234,0.485c-0.095,0.101-0.215,0.2-0.36,0.3
				c-0.146,0.099-0.31,0.188-0.493,0.269c-0.184,0.081-0.379,0.146-0.586,0.196c-0.207,0.051-0.417,0.076-0.632,0.076
				c-0.472,0-0.885-0.079-1.236-0.236c-0.353-0.157-0.647-0.373-0.883-0.648c-0.236-0.275-0.414-0.601-0.531-0.977
				C42.553,492.956,42.491,492.55,42.488,492.114z"/>
			<path fill="#11110B" d="M48.237,492.007c0-0.479,0.073-0.915,0.218-1.309c0.146-0.394,0.349-0.73,0.608-1.011
				s0.568-0.498,0.926-0.651c0.358-0.154,0.749-0.23,1.175-0.23c0.697,0,1.236,0.178,1.618,0.532
				c0.381,0.355,0.585,0.875,0.61,1.559c0.004,0.219,0.001,0.409-0.009,0.573c-0.009,0.164-0.027,0.308-0.057,0.431H49.55
				c0.011,0.427,0.068,0.793,0.172,1.1s0.237,0.558,0.403,0.754c0.165,0.196,0.357,0.341,0.577,0.435s0.453,0.14,0.7,0.14
				c0.156,0,0.314-0.015,0.475-0.044c0.159-0.03,0.312-0.07,0.46-0.121s0.283-0.106,0.409-0.168
				c0.125-0.062,0.229-0.126,0.312-0.193l0.229,0.538c-0.102,0.108-0.234,0.214-0.397,0.316c-0.164,0.104-0.345,0.193-0.543,0.272
				c-0.197,0.078-0.409,0.142-0.635,0.19c-0.225,0.049-0.452,0.073-0.681,0.073c-0.469,0-0.879-0.078-1.229-0.233
				c-0.352-0.155-0.643-0.375-0.875-0.657s-0.406-0.618-0.521-1.008S48.237,492.476,48.237,492.007z M52.084,491.25
				c0.007-0.064,0.013-0.134,0.016-0.209c0.004-0.075,0.006-0.144,0.006-0.205c0-0.186-0.021-0.36-0.065-0.524
				c-0.044-0.163-0.111-0.307-0.204-0.431c-0.093-0.123-0.214-0.221-0.362-0.291c-0.149-0.07-0.333-0.106-0.551-0.106
				c-0.186,0-0.357,0.028-0.518,0.085c-0.16,0.056-0.301,0.152-0.422,0.288c-0.122,0.137-0.22,0.318-0.295,0.544
				c-0.074,0.227-0.12,0.51-0.139,0.85H52.084z"/>
			<path fill="#11110B" d="M57.196,494.575l0.97-0.129l0.817-7.031l-1.166-0.141v-0.622h2.975l1.711,5.142l0.284,1.29l0.245-1.29
				l1.509-5.142h2.976v0.622l-1.21,0.146l1.058,7.021l0.975,0.135v0.611h-3.236v-0.611l0.965-0.129l-0.687-5.092l-0.24-2.237
				l-0.376,1.537l-1.776,6.151h-0.703l-1.967-5.523l-0.605-2.159l-0.174,2.227l-0.441,5.091l1.073,0.135v0.611h-2.975V494.575z"/>
			<path fill="#11110B" d="M68.763,494.575l0.883-0.095v-4.699l-0.79-0.23v-0.661l1.732-0.23h0.027l0.278,0.219v5.603l0.872,0.095
				v0.611h-3.003V494.575z M69.807,487.468c-0.089-0.039-0.165-0.093-0.227-0.162s-0.109-0.15-0.145-0.244
				c-0.034-0.094-0.052-0.194-0.052-0.303c0-0.12,0.018-0.233,0.052-0.342c0.035-0.108,0.087-0.205,0.155-0.289
				c0.069-0.084,0.154-0.151,0.257-0.202c0.102-0.051,0.22-0.075,0.354-0.075h0.006c0.12,0,0.226,0.021,0.318,0.064
				s0.171,0.101,0.234,0.174c0.063,0.072,0.112,0.156,0.145,0.249c0.033,0.094,0.049,0.19,0.049,0.292
				c0,0.123-0.017,0.24-0.052,0.351c-0.034,0.11-0.087,0.205-0.157,0.285c-0.071,0.081-0.16,0.145-0.268,0.191
				s-0.231,0.069-0.373,0.069h-0.006C69.992,487.526,69.896,487.507,69.807,487.468z"/>
			<path fill="#11110B" d="M72.468,494.575l0.883-0.095v-7.823l-0.894-0.111v-0.533l1.858-0.241h0.011l0.267,0.19v8.519l0.927,0.095
				v0.611h-3.052V494.575z"/>
			<path fill="#11110B" d="M76.239,494.575l0.714-0.095v-7.823l-0.851-0.111v-0.533l1.814-0.241h0.017l0.262,0.19v5.552l-0.021,0.64
				l2.43-2.607l-0.877-0.163v-0.572H82.5v0.572l-0.855,0.19l-1.586,1.593l2.136,3.314l0.654,0.095v0.611h-2.729v-0.605l0.653-0.106
				l-1.536-2.562L78.168,493l0.027,0.594v0.887l0.784,0.101v0.605h-2.74V494.575z"/>
		</g>
	</g>
	
		<line fill="none" stroke="#AF7A6D" stroke-width="2" stroke-linecap="square" stroke-linejoin="round" stroke-miterlimit="10" x1="10.5" y1="428.437" x2="20.5" y2="428.437"/>
	
		<line fill="none" stroke="#CACC90" stroke-width="2" stroke-linecap="square" stroke-linejoin="round" stroke-miterlimit="10" x1="10.5" y1="449.437" x2="20.5" y2="449.437"/>
	
		<line fill="none" stroke="#697268" stroke-width="2" stroke-linecap="square" stroke-linejoin="round" stroke-miterlimit="10" x1="10.5" y1="470.437" x2="20.5" y2="470.437"/>
	
		<line fill="none" stroke="#A7CECB" stroke-width="2" stroke-linecap="square" stroke-linejoin="round" stroke-miterlimit="10" x1="10.5" y1="491.437" x2="20.5" y2="491.437"/>
</g>
</svg>
