<?xml version="1.0" encoding="utf-8"?>
<!-- Generator: Adobe Illustrator 17.0.0, SVG Export Plug-In . SVG Version: 6.00 Build 0)  -->
<!DOCTYPE svg PUBLIC "-//W3C//DTD SVG 1.1//EN" "http://www.w3.org/Graphics/SVG/1.1/DTD/svg11.dtd">
<svg version="1.1" id="Layer_1" xmlns="http://www.w3.org/2000/svg" xmlns:xlink="http://www.w3.org/1999/xlink" x="0px" y="0px"
	 width="259.473px" height="34.61px" viewBox="0 0 259.473 34.61" enable-background="new 0 0 259.473 34.61" xml:space="preserve">
<rect x="57.973" y="20.096" fill="#DADAD9" width="201.5" height="10.417"/>
<g>
	<path fill="#A0A0A0" d="M58.879,21.427l-0.844-0.149v-0.683h3.27v0.683l-0.996,0.149v4.412c0,0.558,0.053,1.027,0.158,1.408
		c0.105,0.38,0.255,0.687,0.448,0.92c0.193,0.232,0.425,0.399,0.694,0.502c0.27,0.102,0.568,0.152,0.896,0.152
		c0.352,0,0.658-0.065,0.92-0.196s0.48-0.321,0.656-0.571c0.176-0.249,0.308-0.555,0.396-0.917c0.088-0.361,0.132-0.772,0.132-1.234
		v-4.476l-0.967-0.149v-0.683h2.807v0.683l-0.867,0.149v4.424c0,0.636-0.082,1.185-0.246,1.646s-0.391,0.844-0.68,1.144
		c-0.289,0.301-0.631,0.521-1.025,0.664s-0.822,0.214-1.283,0.214c-0.605,0-1.127-0.075-1.564-0.226
		c-0.438-0.149-0.797-0.38-1.078-0.689c-0.281-0.311-0.489-0.705-0.624-1.185s-0.202-1.048-0.202-1.706V21.427z"/>
	<path fill="#A0A0A0" d="M67.823,28.874l0.967-0.141v-7.336l-0.932-0.152v-0.65h3.316v0.65l-1.008,0.146v3.164h4.102v-3.164
		l-0.961-0.146v-0.65h3.275v0.65l-0.938,0.146v7.348l0.938,0.135v0.639h-3.27v-0.639l0.955-0.135v-3.41h-4.102v3.404l1.008,0.141
		v0.639h-3.352V28.874z"/>
	<path fill="#A0A0A0" d="M79.696,28.874l1.529-0.141v-7.412h-1.951L78.835,23.8h-0.85l0.205-3.205h7.418l0.188,3.205h-0.838
		l-0.445-2.479h-1.875v7.412l1.658,0.141v0.639h-4.6V28.874z"/>
	<path fill="#A0A0A0" d="M91.402,21.473l-0.785-0.156v-0.722h3.275v0.722l-1.072,0.156l1.635,5.456l0.305,1.563l0.357-1.563
		l1.342-4.447l-0.328-1.015l-0.826-0.15v-0.722h3.387v0.722l-1.125,0.15l1.605,5.462l0.357,1.696l0.311-1.696l1.529-5.456
		l-1.184-0.156v-0.722h2.918v0.722l-0.779,0.156l-2.42,8.04h-1.266l-1.77-5.745l-1.729,5.745h-1.207L91.402,21.473z"/>
	<path fill="#A0A0A0" d="M103.984,28.894l0.703-0.091v-8.056l-0.967-0.117v-0.557l1.986-0.252h0.029l0.281,0.199l0.006,2.745
		l-0.053,1.06c0.105-0.098,0.241-0.203,0.407-0.316c0.166-0.114,0.352-0.221,0.557-0.32s0.427-0.182,0.665-0.246
		c0.238-0.065,0.484-0.098,0.738-0.098c0.379,0,0.692,0.053,0.94,0.158c0.248,0.104,0.444,0.269,0.589,0.49
		c0.145,0.223,0.246,0.504,0.305,0.844c0.059,0.341,0.088,0.746,0.088,1.217v3.244l0.844,0.096v0.619h-2.947v-0.613l0.768-0.097
		v-3.242c0-0.306-0.015-0.571-0.044-0.798c-0.029-0.228-0.087-0.415-0.173-0.563s-0.207-0.261-0.363-0.335s-0.361-0.111-0.615-0.111
		c-0.148,0-0.299,0.016-0.451,0.049c-0.152,0.031-0.302,0.076-0.448,0.133c-0.146,0.056-0.288,0.122-0.425,0.199
		c-0.137,0.076-0.262,0.159-0.375,0.248v4.416l0.832,0.096v0.619h-2.877V28.894z"/>
	<path fill="#A0A0A0" d="M112.472,26.179c0-0.534,0.091-1.009,0.272-1.423c0.182-0.415,0.421-0.764,0.718-1.046
		c0.297-0.281,0.636-0.496,1.017-0.644s0.771-0.222,1.169-0.222c0.527,0,0.982,0.086,1.365,0.258s0.697,0.407,0.943,0.706
		s0.429,0.651,0.548,1.06c0.119,0.406,0.179,0.846,0.179,1.316c0,0.542-0.09,1.02-0.27,1.435c-0.18,0.414-0.418,0.763-0.715,1.045
		s-0.637,0.495-1.02,0.639s-0.775,0.216-1.178,0.216c-0.527,0-0.981-0.086-1.362-0.258s-0.694-0.407-0.94-0.706
		s-0.429-0.651-0.548-1.059S112.472,26.649,112.472,26.179z M115.577,28.792c1.082,0,1.623-0.836,1.623-2.508
		c0-0.388-0.029-0.747-0.088-1.077s-0.152-0.617-0.281-0.86c-0.129-0.244-0.296-0.434-0.501-0.57s-0.456-0.205-0.753-0.205
		c-0.535,0-0.94,0.209-1.216,0.626s-0.413,1.044-0.413,1.882c0,0.388,0.03,0.747,0.091,1.08c0.061,0.332,0.155,0.619,0.284,0.86
		c0.129,0.242,0.297,0.431,0.504,0.567S115.284,28.792,115.577,28.792z"/>
	<path fill="#A0A0A0" d="M120.173,28.874l0.949-0.1v-8.174l-0.961-0.117v-0.557l1.998-0.252h0.012l0.287,0.199v8.9l0.996,0.1v0.639
		h-3.281V28.874z"/>
	<path fill="#A0A0A0" d="M124.874,26.19c0-0.501,0.078-0.957,0.234-1.367c0.156-0.411,0.374-0.764,0.653-1.057
		s0.611-0.521,0.996-0.681c0.385-0.161,0.806-0.241,1.263-0.241c0.75,0,1.33,0.186,1.74,0.557c0.41,0.372,0.629,0.914,0.656,1.628
		c0.004,0.229,0.001,0.429-0.009,0.6c-0.01,0.172-0.03,0.321-0.062,0.45h-4.061c0.012,0.445,0.073,0.828,0.185,1.148
		s0.256,0.583,0.434,0.788s0.385,0.356,0.621,0.454s0.487,0.146,0.753,0.146c0.168,0,0.338-0.016,0.51-0.047
		s0.337-0.073,0.495-0.126s0.305-0.111,0.439-0.176s0.247-0.132,0.337-0.202l0.246,0.562c-0.109,0.113-0.252,0.224-0.428,0.331
		s-0.37,0.202-0.583,0.284s-0.44,0.148-0.683,0.199s-0.486,0.076-0.732,0.076c-0.504,0-0.944-0.081-1.321-0.244
		c-0.377-0.162-0.69-0.391-0.94-0.686c-0.25-0.296-0.437-0.646-0.56-1.054S124.874,26.68,124.874,26.19z M129.011,25.399
		c0.008-0.067,0.014-0.14,0.018-0.219s0.006-0.15,0.006-0.214c0-0.194-0.023-0.377-0.07-0.548s-0.12-0.321-0.22-0.45
		s-0.229-0.23-0.39-0.305c-0.16-0.073-0.357-0.11-0.592-0.11c-0.199,0-0.385,0.029-0.557,0.088s-0.323,0.159-0.454,0.302
		s-0.236,0.332-0.316,0.568s-0.13,0.532-0.149,0.888H129.011z"/>
	<path fill="#A0A0A0" d="M135.707,28.874l1.043-0.135l0.879-7.348l-1.254-0.146v-0.65h3.199l1.84,5.373l0.305,1.348l0.264-1.348
		l1.623-5.373h3.199v0.65l-1.301,0.152l1.137,7.336l1.049,0.141v0.639h-3.48v-0.639l1.037-0.135l-0.738-5.32l-0.258-2.338
		l-0.404,1.605l-1.91,6.428h-0.756l-2.115-5.771l-0.65-2.256l-0.188,2.326l-0.475,5.32l1.154,0.141v0.639h-3.199V28.874z"/>
	<path fill="#A0A0A0" d="M148.747,28.874l0.949-0.1v-4.91l-0.85-0.24v-0.691l1.863-0.24h0.029l0.299,0.229v5.854l0.938,0.1v0.639
		h-3.229V28.874z M149.869,21.447c-0.096-0.041-0.177-0.098-0.243-0.17s-0.118-0.157-0.155-0.255s-0.056-0.203-0.056-0.316
		c0-0.125,0.019-0.244,0.056-0.357s0.093-0.214,0.167-0.302s0.166-0.158,0.275-0.211s0.236-0.079,0.381-0.079h0.006
		c0.129,0,0.243,0.022,0.343,0.067s0.184,0.105,0.252,0.182s0.12,0.163,0.155,0.261s0.053,0.199,0.053,0.305
		c0,0.129-0.019,0.251-0.056,0.366s-0.094,0.215-0.17,0.299s-0.172,0.15-0.287,0.199s-0.249,0.073-0.401,0.073h-0.006
		C150.069,21.509,149.965,21.488,149.869,21.447z"/>
	<path fill="#A0A0A0" d="M153.331,28.874l0.949-0.1v-8.174l-0.961-0.117v-0.557l1.998-0.252h0.012l0.287,0.199v8.9l0.996,0.1v0.639
		h-3.281V28.874z"/>
	<path fill="#A0A0A0" d="M157.985,28.874l0.768-0.1v-8.174l-0.914-0.117v-0.557l1.951-0.252h0.018l0.281,0.199v5.801l-0.023,0.668
		l2.613-2.725l-0.943-0.17v-0.598h2.982v0.598l-0.92,0.199l-1.705,1.664l2.297,3.463l0.703,0.1v0.639h-2.936V28.88l0.703-0.111
		l-1.652-2.678l-1.148,1.137l0.029,0.621v0.926l0.844,0.105v0.633h-2.947V28.874z"/>
</g>
<g>
	<path d="M27.32,3.024h2.269L26.51,7.688l3.295,4.915h-2.377l-2.287-3.511l-2.449,3.511h-2.305l3.385-4.915l-3.151-4.664h2.376
		l2.143,3.277L27.32,3.024z"/>
	<path d="M33.708,12.604V1.891h-2.467V0h4.591v12.604H33.708z"/>
	<path d="M0,29.806l1.187-0.125v-6.138l-1.062-0.3v-0.864l2.329-0.301H2.49l0.374,0.286v7.316l1.172,0.125v0.798H0V29.806z
		 M1.402,20.521c-0.12-0.051-0.221-0.121-0.304-0.212c-0.083-0.09-0.148-0.196-0.194-0.318s-0.069-0.254-0.069-0.396
		c0-0.156,0.023-0.306,0.069-0.447s0.116-0.268,0.209-0.377c0.093-0.11,0.208-0.198,0.344-0.264
		c0.137-0.066,0.295-0.099,0.476-0.099h0.007c0.161,0,0.304,0.028,0.428,0.084c0.125,0.057,0.229,0.132,0.315,0.227
		c0.085,0.096,0.15,0.204,0.194,0.326s0.066,0.249,0.066,0.381c0,0.161-0.023,0.314-0.069,0.458
		c-0.047,0.145-0.117,0.269-0.213,0.373c-0.095,0.105-0.215,0.188-0.358,0.249c-0.145,0.062-0.312,0.092-0.502,0.092H1.794
		C1.653,20.599,1.522,20.573,1.402,20.521z"/>
	<path d="M5.943,29.83l0.959-0.12v-5.946L5.855,23.48v-0.926l2.168-0.293H8.06l0.344,0.285v0.622l-0.007,0.354
		c0.161-0.151,0.359-0.303,0.593-0.452s0.487-0.283,0.758-0.402c0.271-0.119,0.552-0.216,0.843-0.289
		c0.29-0.073,0.572-0.11,0.846-0.11c0.479,0,0.873,0.064,1.183,0.194c0.31,0.129,0.556,0.331,0.736,0.606
		c0.181,0.274,0.306,0.626,0.377,1.055c0.071,0.428,0.106,0.938,0.106,1.531v4.055l1.055,0.12v0.773h-3.677V29.83l0.938-0.12v-4.047
		c0-0.386-0.019-0.721-0.055-1.004c-0.037-0.284-0.108-0.519-0.213-0.704c-0.105-0.187-0.254-0.324-0.446-0.415
		c-0.193-0.091-0.446-0.136-0.758-0.136c-0.186,0-0.375,0.022-0.568,0.067c-0.193,0.046-0.381,0.106-0.563,0.182
		c-0.184,0.075-0.358,0.161-0.524,0.256c-0.166,0.096-0.315,0.194-0.447,0.295v5.506l1.011,0.12v0.773H5.943V29.83z"/>
	<path d="M16.69,32.325c0-0.239,0.039-0.467,0.117-0.682s0.181-0.411,0.308-0.589c0.127-0.179,0.272-0.335,0.436-0.469
		c0.164-0.135,0.331-0.246,0.502-0.334c-0.229-0.127-0.405-0.29-0.527-0.49s-0.183-0.447-0.183-0.74c0-0.19,0.028-0.372,0.084-0.546
		c0.056-0.173,0.135-0.334,0.238-0.483c0.103-0.148,0.223-0.285,0.363-0.41c0.139-0.124,0.292-0.232,0.458-0.325
		c-0.488-0.214-0.863-0.515-1.125-0.902s-0.392-0.849-0.392-1.383c0-0.427,0.099-0.808,0.297-1.143
		c0.197-0.334,0.458-0.616,0.783-0.847c0.325-0.229,0.696-0.406,1.113-0.529c0.418-0.123,0.849-0.185,1.293-0.185h0.007
		c0.522,0,0.994,0.059,1.414,0.176s0.776,0.296,1.069,0.535c0.049-0.058,0.123-0.127,0.224-0.208c0.1-0.082,0.221-0.159,0.362-0.233
		s0.305-0.138,0.491-0.19s0.391-0.079,0.615-0.079h0.396v1.406h-1.538c0.083,0.161,0.146,0.331,0.19,0.513
		c0.044,0.181,0.066,0.379,0.066,0.595c0,0.422-0.088,0.806-0.264,1.151s-0.42,0.643-0.732,0.891
		c-0.312,0.247-0.68,0.438-1.103,0.574c-0.422,0.135-0.88,0.202-1.373,0.202h-0.007c-0.4,0-0.774-0.041-1.121-0.124
		c-0.132,0.117-0.238,0.255-0.318,0.413c-0.081,0.159-0.121,0.324-0.121,0.495c0,0.186,0.033,0.337,0.099,0.454
		c0.066,0.117,0.166,0.208,0.301,0.274c0.134,0.065,0.305,0.111,0.513,0.136c0.207,0.024,0.453,0.036,0.736,0.036h1.597
		c0.981,0,1.704,0.186,2.168,0.557s0.696,0.918,0.696,1.641c0,0.288-0.054,0.566-0.161,0.835s-0.259,0.518-0.454,0.747
		s-0.429,0.439-0.699,0.63c-0.271,0.19-0.569,0.354-0.894,0.491c-0.325,0.137-0.672,0.241-1.04,0.314
		c-0.369,0.073-0.749,0.11-1.139,0.11h-0.007c-0.684,0-1.262-0.056-1.736-0.165c-0.474-0.11-0.859-0.264-1.157-0.462
		c-0.298-0.197-0.513-0.437-0.645-0.718C16.756,32.985,16.69,32.672,16.69,32.325z M18.331,31.893c0,0.283,0.039,0.535,0.117,0.755
		s0.205,0.406,0.381,0.56c0.176,0.154,0.405,0.271,0.688,0.352c0.283,0.081,0.63,0.121,1.04,0.121h0.015
		c0.317,0,0.632-0.038,0.945-0.113c0.312-0.076,0.592-0.188,0.838-0.337c0.247-0.149,0.446-0.333,0.597-0.553
		s0.227-0.477,0.227-0.77c0-0.22-0.023-0.411-0.069-0.575c-0.047-0.163-0.135-0.299-0.264-0.406
		c-0.13-0.107-0.311-0.188-0.542-0.241c-0.232-0.054-0.531-0.081-0.897-0.081h-1.472c-0.215,0-0.417-0.008-0.604-0.025
		c-0.188-0.017-0.365-0.04-0.531-0.069c-0.127,0.156-0.237,0.347-0.33,0.571S18.331,31.575,18.331,31.893z M20.44,26.729
		c0.288,0,0.532-0.041,0.732-0.123s0.364-0.202,0.491-0.359s0.22-0.349,0.278-0.574s0.088-0.482,0.088-0.77
		c0-0.62-0.137-1.071-0.41-1.354c-0.273-0.283-0.691-0.424-1.252-0.424H20.36c-0.249,0-0.475,0.029-0.677,0.089
		c-0.203,0.06-0.377,0.154-0.524,0.287c-0.146,0.132-0.26,0.308-0.34,0.526c-0.081,0.219-0.121,0.487-0.121,0.807
		c0,0.265,0.03,0.512,0.092,0.742c0.061,0.23,0.158,0.431,0.293,0.602c0.134,0.171,0.312,0.306,0.534,0.403
		c0.222,0.099,0.495,0.147,0.817,0.147H20.44z"/>
	<path d="M26.625,29.812l1.15-0.114v-5.936l-1.04-0.293v-0.879l2.095-0.293h0.037l0.352,0.286v0.48l-0.015,0.993h0.015
		c0.024-0.051,0.074-0.13,0.15-0.238c0.076-0.109,0.173-0.229,0.293-0.36c0.12-0.132,0.26-0.268,0.421-0.409s0.34-0.271,0.539-0.387
		c0.197-0.116,0.411-0.211,0.641-0.284s0.476-0.11,0.74-0.11c0.112,0,0.208,0.008,0.286,0.022c0.078,0.016,0.144,0.035,0.198,0.061
		v1.853c-0.083-0.062-0.2-0.118-0.352-0.168c-0.151-0.051-0.322-0.075-0.513-0.075c-0.273,0-0.521,0.02-0.744,0.058
		s-0.422,0.09-0.601,0.154s-0.335,0.136-0.472,0.216c-0.137,0.079-0.256,0.157-0.359,0.234v5.131h1.926v0.85h-4.746V29.812z"/>
	<path d="M34.663,29.615c0-0.166,0.034-0.321,0.103-0.466c0.068-0.144,0.16-0.267,0.275-0.369c0.114-0.103,0.244-0.184,0.388-0.242
		s0.292-0.088,0.443-0.088c0.176,0,0.33,0.027,0.461,0.081s0.24,0.127,0.326,0.22s0.149,0.199,0.19,0.318
		c0.042,0.12,0.062,0.245,0.062,0.377c0,0.176-0.033,0.336-0.099,0.479c-0.066,0.145-0.155,0.268-0.268,0.37
		s-0.242,0.181-0.388,0.234s-0.303,0.081-0.469,0.081c-0.132,0-0.26-0.023-0.384-0.07c-0.125-0.046-0.234-0.113-0.33-0.201
		c-0.095-0.088-0.171-0.192-0.227-0.314C34.69,29.903,34.663,29.767,34.663,29.615z"/>
</g>
<g>
	<g>
		<line fill="none" stroke="#383838" stroke-miterlimit="10" x1="48.085" y1="21" x2="48.085" y2="30"/>
		<g>
			<rect x="44.585" y="20" fill="#383838" width="7" height="1"/>
		</g>
		<g>
			<rect x="44.585" y="30" fill="#383838" width="7" height="1"/>
		</g>
	</g>
</g>
</svg>
