<?xml version="1.0" encoding="utf-8"?>
<!-- Generator: Adobe Illustrator 17.0.0, SVG Export Plug-In . SVG Version: 6.00 Build 0)  -->
<!DOCTYPE svg PUBLIC "-//W3C//DTD SVG 1.1//EN" "http://www.w3.org/Graphics/SVG/1.1/DTD/svg11.dtd">
<svg version="1.1" id="Layer_1" xmlns="http://www.w3.org/2000/svg" xmlns:xlink="http://www.w3.org/1999/xlink" x="0px" y="0px"
	 width="108.8px" height="133.4px" viewBox="0 0 108.8 133.4" style="enable-background:new 0 0 108.8 133.4;" xml:space="preserve"
	>
<style type="text/css">
	.st0{opacity:0.6;fill:#356069;}
	.st1{fill:none;}
	.st2{font-family:'Montserrat-Regular';}
	.st3{font-size:15;}
	.st4{fill:none;stroke:#FFFFFF;stroke-miterlimit:10;}
	.st5{opacity:0.6;fill:#5196A3;}
	.st6{opacity:0.6;fill:#36BFD9;}
	.st7{fill:#86D9E8;}
	.st8{opacity:0.6;fill:#86D9E8;}
</style>
<g id="skim">
	<rect x="3.5" y="116.8" class="st0" width="93.3" height="16.7"/>
	<g>
		<rect x="10.6" y="115.7" class="st1" width="74.2" height="14"/>
		<text transform="matrix(1 0 0 1 10.6473 128.4458)" class="st2 st3">Skim Milk</text>
	</g>
	<rect x="1.5" y="114.8" class="st4" width="93.3" height="16.7"/>
</g>
<g id="_x31__x5F_fat">
	<rect x="3.5" y="88.1" class="st5" width="105.3" height="16.7"/>
	<g>
		<rect x="10.6" y="87.1" class="st1" width="86.3" height="14"/>
		<text transform="matrix(1 0 0 1 10.6473 99.8038)" class="st2 st3">1% Fat Milk</text>
	</g>
	<rect x="1.5" y="86.1" class="st4" width="105.3" height="16.7"/>
</g>
<g id="_x32__x5F_fat">
	<rect x="2.5" y="59.5" class="st6" width="105.3" height="16.7"/>
	<g>
		<rect x="9.6" y="58.4" class="st1" width="86.3" height="14"/>
		<text transform="matrix(1 0 0 1 9.6473 71.1621)" class="st2 st3">2% Fat Milk</text>
	</g>
	<rect x="0.5" y="57.5" class="st4" width="105.3" height="16.7"/>
</g>
<g id="whole">
	<rect x="2.4" y="30.8" class="st7" width="103" height="16.7"/>
	<rect x="2.4" y="30.8" class="st8" width="103" height="16.7"/>
	<g>
		<rect x="9.5" y="29.8" class="st1" width="91.9" height="14"/>
		<text transform="matrix(1 0 0 1 9.5463 42.5203)" class="st2 st3">Whole Milk</text>
	</g>
	<rect x="0.5" y="29.1" class="st4" width="103" height="16.2"/>
</g>
<g id="all">
	<g>
		<rect x="9.5" y="1.1" class="st1" width="91.9" height="14"/>
		<text transform="matrix(1 0 0 1 9.5463 13.8784)" class="st2 st3">All</text>
	</g>
	<rect x="0.5" y="0.5" class="st4" width="103" height="16.2"/>
</g>
</svg>
