<?xml version="1.0" encoding="utf-8"?>
<!-- Generator: Adobe Illustrator 17.0.0, SVG Export Plug-In . SVG Version: 6.00 Build 0)  -->
<!DOCTYPE svg PUBLIC "-//W3C//DTD SVG 1.1//EN" "http://www.w3.org/Graphics/SVG/1.1/DTD/svg11.dtd">
<svg version="1.1" id="Layer_1" xmlns="http://www.w3.org/2000/svg" xmlns:xlink="http://www.w3.org/1999/xlink" x="0px" y="0px"
	 width="104px" height="80px" viewBox="0 0 104 80" style="enable-background:new 0 0 104 80;" xml:space="preserve">
<style type="text/css">
	.st0{fill:#FFFFFF;}
</style>
<g>
	<path class="st0" d="M45.6,79.7c-0.8,0-1.5,0-2.2,0c-0.2,0-0.4-0.3-0.4-0.5c-0.7-2.9-1.5-5.8-2.2-8.7c-0.2-0.8-0.4-1.6-0.7-2.3
		c0,3.8,0,7.6,0,11.4c-0.9,0-1.7,0-2.6,0c0-6.7,0-13.4,0-20.1c1,0,1.9,0,2.9,0c0.8,3.8,1.7,7.5,2.5,11.3c0,0,0.1,0,0.1,0
		c0-3.7,0-7.5,0-11.3c0.9,0,1.7,0,2.6,0C45.6,66.2,45.6,72.9,45.6,79.7z"/>
	<path class="st0" d="M17.6,0c1.6,0.1,3.1,0.1,4.7,0.3c1.8,0.3,2.8,1.5,3.1,3.2c0.2,1.6,0.4,3.2,0.4,4.8c0,2.6-0.2,5.2-0.3,7.8
		c0,0.3-0.1,0.6-0.2,1c-0.4,1.7-1.5,2.8-3.2,3c-1.5,0.2-3,0.2-4.5,0.3C17.6,13.5,17.6,6.9,17.6,0z M20.6,17.3
		c1.2,0.1,1.9-0.3,1.9-1.5c0.1-3.2,0.1-6.5,0.2-9.7c0-0.5-0.1-1.1-0.2-1.6c-0.2-1.1-0.7-1.5-1.9-1.3C20.6,7.8,20.6,12.5,20.6,17.3z"
		/>
	<path class="st0" d="M22.2,72.2c-0.3,0-0.5,0-0.7-0.1c0-0.8,0-1.6,0-2.4c1.3,0,2.5,0,3.8,0c0,3.3,0,6.6,0,9.9c-0.5,0-1,0-1.5,0
		c-0.1,0-0.3-0.1-0.3-0.2c-0.1-0.2-0.2-0.4-0.3-0.7c-0.6,1-1.5,1.4-2.6,1.3c-1.7-0.2-2.9-1.4-3.1-3.2c0-0.3,0-0.6,0-0.9
		c0-4.2,0-8.4,0-12.6c0-2,1.1-3.5,2.9-4c2.3-0.6,4.6,0.8,4.8,3.2c0.1,1.4,0,2.8,0,4.3c-0.9,0-1.9,0-2.9,0c0-1.2,0-2.5,0-3.7
		c0-0.6-0.3-0.9-0.9-0.9c-0.4,0-0.7,0.3-0.7,0.7c0,0.1,0,0.2,0,0.3c0,4.3,0,8.5,0,12.8c0,0.8,0.3,1.1,0.8,1.1c0.5,0,0.8-0.2,0.8-0.7
		C22.2,75.1,22.2,73.7,22.2,72.2z"/>
	<path class="st0" d="M60.1,20.2c-0.7,0-1.3,0-2,0c0-6.7,0-13.4,0-20.1c0.6,0,1.1,0,1.7,0c0.1,0,0.3,0.3,0.4,0.4
		c1.2,4,2.4,7.9,3.6,11.9c0.1,0.3,0.2,0.6,0.3,0.9c0-4.4,0-8.8,0-13.2c0.7,0,1.3,0,2,0c0,6.7,0,13.4,0,20.1c-0.4,0-0.9,0-1.3,0
		c-0.1,0-0.3-0.3-0.4-0.4c-1.3-4-2.7-8.1-4-12.1c-0.1-0.2-0.1-0.3-0.2-0.4C60.1,11.5,60.1,15.9,60.1,20.2z"/>
	<path class="st0" d="M20.2,45.1c0,0.4,0,0.7,0,1c0,0.3,0,0.6,0,0.9c0.1,0.6,0.4,0.9,1,0.9c0.5,0,1-0.3,1-0.9c0-0.8-0.1-1.7-0.4-2.4
		c-0.5-1.2-1.1-2.4-1.8-3.5c-1-1.7-1.9-3.4-2.4-5.3c-0.3-1.3-0.2-2.6,0.4-3.8c0.7-1.5,2.3-2.3,4.1-2c1.4,0.2,2.5,1.3,2.8,2.9
		c0.1,0.7,0.1,1.4,0.2,2.2c-0.9,0.1-1.8,0.2-2.8,0.3c0-0.5,0-1,0-1.5c0-0.8-0.3-1.1-0.9-1.1c-0.6,0-0.9,0.4-0.9,1.1
		c0,1.2,0.3,2.3,0.9,3.4c0.9,1.7,1.9,3.4,2.8,5.2c0.8,1.6,1.1,3.3,0.8,5c-0.4,2-2,3.3-4.1,3.1c-2.1-0.1-3.4-1.5-3.6-3.7
		c0-0.4,0-0.8,0-1.2c0-0.4,0.1-0.5,0.5-0.5C18.6,45.3,19.3,45.2,20.2,45.1z"/>
	<path class="st0" d="M38.6,20.2c0-6.7,0-13.4,0-20.1c2.2,0,4.3,0,6.5,0c0,0.9,0,1.9,0,2.8c-1.1,0-2.2,0-3.4,0c0,1.9,0,3.7,0,5.5
		c0.7,0,1.4,0,2.2,0c0,0.9,0,1.8,0,2.8c-0.7,0-1.4,0-2.2,0c0,2,0,4,0,6c1.1,0,2.2,0,3.4,0c0,1,0,2,0,3
		C42.9,20.2,40.8,20.2,38.6,20.2z"/>
	<path class="st0" d="M40.1,30.3c1,0,2,0,3.1,0c0,6.7,0,13.4,0,20.1c-1,0-2,0-3.1,0C40.1,43.7,40.1,37,40.1,30.3z"/>
	<path class="st0" d="M81.2,39.3c0.7-3,1.4-6,2.1-9.1c0.7,0,1.3,0,2.1,0c0,0.2-0.1,0.3-0.1,0.5c-1,3.7-2,7.4-3,11.1
		c-0.1,0.4-0.2,0.8-0.2,1.2c0,2.4,0,4.8,0,7.2c-0.7,0-1.4,0-2.2,0c0-0.2,0-0.4,0-0.6c0-2-0.1-3.9,0-5.9c0.1-1.7-0.5-3.3-0.9-4.9
		c-0.7-2.7-1.4-5.5-2.1-8.2c0-0.2-0.1-0.3-0.1-0.5c0.7,0,1.4,0,2.1,0c0.7,3,1.4,6.1,2.1,9.1C81.1,39.3,81.1,39.3,81.2,39.3z"/>
	<path class="st0" d="M63.2,50.4c-0.8,0-1.4,0-2.2,0c0-6,0-12,0-18.1c-0.9,0-1.8,0-2.7,0c0-0.7,0-1.4,0-2.1c2.5,0,4.9,0,7.4,0
		c0,0.7,0,1.3,0,2c-0.8,0-1.6,0-2.5,0C63.2,38.3,63.2,44.3,63.2,50.4z"/>
	<path class="st0" d="M67.6,70.4c-1.4,0-2.8,0-4.3,0c0,1.5,0,2.9,0,4.4c-0.8,0-1.6,0-2.4,0c0-1.4,0-2.9,0-4.4c-1.5,0-2.9,0-4.4,0
		c0-0.8,0-1.5,0-2.4c0.5,0,1,0,1.5,0c0.8,0,1.6,0,2.4,0c0.4,0,0.5-0.1,0.5-0.5c0-1.1,0-2.2,0-3.2c0-0.2,0-0.4,0-0.7
		c0.8,0,1.5,0,2.4,0c0,1.4,0,2.9,0,4.3c1.5,0,2.9,0,4.4,0C67.6,68.8,67.6,69.5,67.6,70.4z"/>
	<path class="st0" d="M86.6,10.2c-3.7,0-7.4,0-11.1,0c0-0.6,0-1.2,0-1.8c3.7,0,7.4,0,11.1,0C86.6,9,86.6,9.6,86.6,10.2z"/>
</g>
</svg>
