<?xml version="1.0" encoding="utf-8"?>
<!-- Generator: Adobe Illustrator 17.0.0, SVG Export Plug-In . SVG Version: 6.00 Build 0)  -->
<!DOCTYPE svg PUBLIC "-//W3C//DTD SVG 1.1//EN" "http://www.w3.org/Graphics/SVG/1.1/DTD/svg11.dtd">
<svg version="1.1" id="Layer_1" xmlns="http://www.w3.org/2000/svg" xmlns:xlink="http://www.w3.org/1999/xlink" x="0px" y="0px"
	 width="110px" height="79.1px" viewBox="0 0 110 79.1" style="enable-background:new 0 0 110 79.1;" xml:space="preserve">
<style type="text/css">
	.st0{fill:#FFFFFF;}
	.st1{fill:#8EB6CE;}
</style>
<g>
	<g>
		<path class="st0" d="M55.1,48.3l0-2.1l0.4,0l0,2.1L55.1,48.3z M54.3,48.3l-0.4,0l0.1-2.1l0.4,0L54.3,48.3z M56.2,48.3L56,46.2
			l0.4,0l0.1,2.1L56.2,48.3z M53.2,48.2l-0.4,0l0.2-2.1l0.4,0L53.2,48.2z M57.3,48.2l-0.2-2.1l0.4,0l0.2,2.1L57.3,48.2z M52.1,48.1
			l-0.4-0.1L52,46l0.4,0.1L52.1,48.1z M58.4,48L58.1,46l0.4-0.1l0.3,2.1L58.4,48z M51,48l-0.4-0.1l0.4-2.1l0.4,0.1L51,48z
			 M59.5,47.9l-0.4-2.1l0.4-0.1l0.4,2.1L59.5,47.9z M49.9,47.7l-0.4-0.1l0.5-2.1l0.4,0.1L49.9,47.7z M60.6,47.6l-0.5-2l0.4-0.1
			l0.5,2L60.6,47.6z M48.9,47.5l-0.4-0.1l0.6-2l0.4,0.1L48.9,47.5z M61.6,47.4l-0.6-2l0.4-0.1l0.6,2L61.6,47.4z M47.8,47.2l-0.4-0.1
			l0.7-2l0.4,0.1L47.8,47.2z M62.7,47L62,45l0.4-0.1l0.7,2L62.7,47z M46.7,46.8l-0.4-0.1l0.8-2l0.4,0.1L46.7,46.8z M63.7,46.6
			l-0.8-2l0.4-0.1l0.8,2L63.7,46.6z M45.7,46.4l-0.4-0.2l0.8-1.9l0.4,0.2L45.7,46.4z M64.7,46.2l-0.9-1.9l0.4-0.2l0.9,1.9L64.7,46.2
			z M44.7,46l-0.4-0.2l0.9-1.9l0.4,0.2L44.7,46z M65.7,45.7l-1-1.9l0.3-0.2l1,1.9L65.7,45.7z M43.7,45.4l-0.3-0.2l1-1.8l0.3,0.2
			L43.7,45.4z M66.7,45.2l-1.1-1.8l0.3-0.2l1.1,1.8L66.7,45.2z M42.8,44.9l-0.3-0.2l1.1-1.8l0.3,0.2L42.8,44.9z M67.7,44.6l-1.1-1.8
			l0.3-0.2l1.1,1.8L67.7,44.6z M41.8,44.3l-0.3-0.2l1.2-1.7l0.3,0.2L41.8,44.3z M68.6,44l-1.2-1.7l0.3-0.2l1.2,1.7L68.6,44z
			 M40.9,43.7l-0.3-0.2l1.3-1.7l0.3,0.2L40.9,43.7z M69.5,43.4l-1.3-1.7l0.3-0.2l1.3,1.7L69.5,43.4z M40,43l-0.3-0.2l1.3-1.6
			l0.3,0.2L40,43z M70.3,42.7L69,41.1l0.3-0.3l1.4,1.6L70.3,42.7z M39.2,42.3L38.9,42l1.4-1.6l0.3,0.3L39.2,42.3z M71.2,41.9
			l-1.4-1.5l0.3-0.3l1.4,1.5L71.2,41.9z M38.4,41.5l-0.3-0.3l1.5-1.5l0.3,0.3L38.4,41.5z M72,41.2l-1.5-1.5l0.3-0.3l1.5,1.5L72,41.2
			z M37.6,40.7l-0.3-0.3l1.5-1.4l0.3,0.3L37.6,40.7z M72.7,40.4L71.2,39l0.3-0.3l1.6,1.4L72.7,40.4z M36.9,39.9l-0.3-0.3l1.6-1.4
			l0.3,0.3L36.9,39.9z M73.5,39.5l-1.6-1.3l0.2-0.3l1.6,1.3L73.5,39.5z M36.2,39l-0.2-0.3l1.7-1.3l0.2,0.3L36.2,39z M74.1,38.6
			l-1.7-1.2l0.2-0.3l1.7,1.2L74.1,38.6z M35.5,38.1l-0.2-0.3l1.7-1.2l0.2,0.3L35.5,38.1z M74.8,37.7L73,36.6l0.2-0.3l1.8,1.2
			L74.8,37.7z M34.9,37.2l-0.2-0.3l1.8-1.1l0.2,0.3L34.9,37.2z M75.4,36.8l-1.8-1.1l0.2-0.3l1.8,1.1L75.4,36.8z M34.3,36.3l-0.2-0.3
			l1.8-1l0.2,0.3L34.3,36.3z M75.9,35.8l-1.9-1l0.2-0.3l1.9,1L75.9,35.8z M33.8,35.3l-0.2-0.4l1.9-1l0.2,0.4L33.8,35.3z M76.4,34.8
			l-1.9-0.9l0.2-0.4l1.9,0.9L76.4,34.8z M33.3,34.3l-0.2-0.4l1.9-0.9l0.2,0.4L33.3,34.3z M76.9,33.8L74.9,33l0.2-0.4l1.9,0.8
			L76.9,33.8z M32.9,33.3l-0.1-0.4l2-0.8l0.1,0.4L32.9,33.3z M77.3,32.8l-2-0.7l0.1-0.4l2,0.7L77.3,32.8z M32.5,32.2l-0.1-0.4l2-0.7
			l0.1,0.4L32.5,32.2z M77.7,31.8l-2-0.6l0.1-0.4l2,0.6L77.7,31.8z M32.2,31.2l-0.1-0.4l2-0.6l0.1,0.4L32.2,31.2z M78,30.7l-2-0.5
			l0.1-0.4l2,0.5L78,30.7z M31.9,30.1l-0.1-0.4l2.1-0.5l0.1,0.4L31.9,30.1z M78.2,29.6l-2.1-0.4l0.1-0.4l2.1,0.4L78.2,29.6z
			 M31.6,29l-0.1-0.4l2.1-0.4l0.1,0.4L31.6,29z M78.4,28.5l-2.1-0.3l0.1-0.4l2.1,0.3L78.4,28.5z M31.5,27.9l-0.1-0.4l2.1-0.3
			l0.1,0.4L31.5,27.9z M78.6,27.4l-2.1-0.2l0-0.4l2.1,0.2L78.6,27.4z M31.3,26.8l0-0.4l2.1-0.2l0,0.4L31.3,26.8z M78.7,26.3
			l-2.1-0.1l0-0.4l2.1,0.1L78.7,26.3z M31.2,25.7l0-0.4l2.1-0.1l0,0.4L31.2,25.7z M78.8,25.5l-2.1-0.1l0-0.4l2.1,0.1L78.8,25.5z
			 M33.3,24.6l-2.1,0l0-0.4l2.1,0L33.3,24.6z M76.7,24.4l0-0.4l2.1,0l0,0.4L76.7,24.4z M33.3,23.6l-2.1-0.1l0-0.4l2.1,0.1L33.3,23.6
			z M76.7,23.4l0-0.4l2.1-0.1l0,0.4L76.7,23.4z M33.4,22.6l-2.1-0.2l0-0.4l2.1,0.2L33.4,22.6z M76.6,22.3l0-0.4l2.1-0.2l0,0.4
			L76.6,22.3z M33.5,21.6l-2.1-0.3l0.1-0.4l2.1,0.3L33.5,21.6z M76.5,21.3L76.4,21l2.1-0.3l0.1,0.4L76.5,21.3z M33.7,20.6l-2.1-0.4
			l0.1-0.4l2.1,0.4L33.7,20.6z M76.3,20.4L76.2,20l2.1-0.4l0.1,0.4L76.3,20.4z M33.9,19.6l-2.1-0.5l0.1-0.4l2.1,0.5L33.9,19.6z
			 M76.1,19.4L76,19l2-0.5l0.1,0.4L76.1,19.4z M34.1,18.6l-2-0.6l0.1-0.4l2,0.6L34.1,18.6z M75.8,18.4L75.7,18l2-0.6l0.1,0.4
			L75.8,18.4z M34.4,17.7l-2-0.7l0.1-0.4l2,0.7L34.4,17.7z M75.5,17.4l-0.1-0.4l2-0.7l0.1,0.4L75.5,17.4z M34.8,16.7l-2-0.8l0.1-0.4
			l2,0.8L34.8,16.7z M75.1,16.5L75,16.1l2-0.8l0.1,0.4L75.1,16.5z M35.1,15.8l-1.9-0.9l0.2-0.4l1.9,0.9L35.1,15.8z M74.8,15.6
			l-0.2-0.4l1.9-0.9l0.2,0.4L74.8,15.6z M35.6,14.9l-1.9-0.9l0.2-0.4l1.9,0.9L35.6,14.9z M74.3,14.6l-0.2-0.3l1.9-1l0.2,0.3
			L74.3,14.6z M36,14l-1.8-1l0.2-0.3l1.8,1L36,14z M73.8,13.8l-0.2-0.3l1.8-1.1l0.2,0.3L73.8,13.8z M36.6,13.1L34.8,12l0.2-0.3
			l1.8,1.1L36.6,13.1z M73.3,12.9l-0.2-0.3l1.8-1.1l0.2,0.3L73.3,12.9z M37.1,12.3L35.4,11l0.2-0.3l1.7,1.2L37.1,12.3z M72.7,12
			l-0.2-0.3l1.7-1.2l0.2,0.3L72.7,12z M37.7,11.4L36,10.1l0.2-0.3l1.7,1.3L37.7,11.4z M72.1,11.2l-0.2-0.3l1.7-1.3l0.2,0.3
			L72.1,11.2z M38.3,10.6l-1.6-1.4L37,9l1.6,1.4L38.3,10.6z M71.5,10.5l-0.3-0.3l1.6-1.4l0.3,0.3L71.5,10.5z M39,9.9l-1.5-1.4
			l0.3-0.3l1.5,1.4L39,9.9z M70.8,9.7l-0.3-0.3L72.1,8l0.3,0.3L70.8,9.7z M39.7,9.1l-1.5-1.5l0.3-0.3L40,8.9L39.7,9.1z M70.1,9
			l-0.3-0.3l1.5-1.5l0.3,0.3L70.1,9z M40.4,8.5L39,6.9l0.3-0.3l1.4,1.6L40.4,8.5z M69.4,8.3L69.1,8l1.4-1.6l0.3,0.3L69.4,8.3z
			 M41.2,7.8l-1.3-1.6l0.3-0.2l1.3,1.6L41.2,7.8z M68.6,7.6l-0.3-0.2l1.3-1.6L69.9,6L68.6,7.6z M42,7.2l-1.3-1.7L41,5.2l1.3,1.7
			L42,7.2z M67.8,7l-0.3-0.2l1.2-1.7l0.3,0.2L67.8,7z M42.8,6.6l-1.2-1.8L42,4.6l1.2,1.8L42.8,6.6z M67,6.4l-0.3-0.2l1.2-1.8
			l0.3,0.2L67,6.4z M43.6,6l-1.1-1.8L42.9,4L44,5.8L43.6,6z M66.1,5.9l-0.3-0.2l1.1-1.8l0.3,0.2L66.1,5.9z M44.5,5.5l-1-1.9l0.3-0.2
			l1,1.9L44.5,5.5z M65.3,5.4l-0.3-0.2l1-1.9l0.3,0.2L65.3,5.4z M45.4,5.1l-0.9-1.9L44.9,3l0.9,1.9L45.4,5.1z M64.4,4.9L64,4.8
			l0.9-1.9L65.2,3L64.4,4.9z M46.3,4.6l-0.8-1.9l0.4-0.2l0.8,1.9L46.3,4.6z M63.4,4.5l-0.4-0.1l0.8-1.9l0.4,0.1L63.4,4.5z M47.3,4.2
			l-0.7-2l0.4-0.1l0.7,2L47.3,4.2z M62.5,4.2L62.1,4l0.7-2l0.4,0.1L62.5,4.2z M48.2,3.9l-0.6-2L48,1.8l0.6,2L48.2,3.9z M61.5,3.8
			l-0.4-0.1l0.6-2l0.4,0.1L61.5,3.8z M49.2,3.6l-0.5-2L49,1.5l0.5,2L49.2,3.6z M60.6,3.5l-0.4-0.1l0.5-2l0.4,0.1L60.6,3.5z
			 M50.2,3.4l-0.4-2.1l0.4-0.1l0.4,2.1L50.2,3.4z M59.6,3.3l-0.4-0.1l0.4-2.1L60,1.2L59.6,3.3z M51.2,3.2l-0.4-2.1L51.2,1l0.4,2.1
			L51.2,3.2z M58.6,3.1l-0.4-0.1L58.5,1L58.9,1L58.6,3.1z M52.2,3l-0.3-2.1l0.4,0L52.6,3L52.2,3z M57.6,3l-0.4,0l0.2-2.1l0.4,0
			L57.6,3z M53.2,2.9L53,0.8l0.4,0l0.2,2.1L53.2,2.9z M56.6,2.9l-0.4,0l0.1-2.1l0.4,0L56.6,2.9z M54.2,2.8l0-2.1l0.4,0l0,2.1
			L54.2,2.8z M55.6,2.8l-0.4,0l0-2.1l0.4,0L55.6,2.8z"/>
		<g>
			<path class="st0" d="M61.3,21.2l-0.9,0.2c-0.1,0-0.1,0.1-0.1,0.1c0,0.1,0.1,0.1,0.1,0.1l0.3-0.1l0.1,0.1c0,0,0.1,0,0.1,0
				c0,0,0.1,0,0.1,0c0,0,0.1-0.1,0-0.2l0,0l0.4-0.1c0.1,0,0.1-0.1,0.1-0.1C61.4,21.2,61.4,21.2,61.3,21.2z"/>
			<path class="st0" d="M53.7,25.1C53.7,25.1,53.8,25.1,53.7,25.1c0.1,0,0.1,0,0.2,0L54,25c0.1,0,0.1,0,0.2,0.1c0.1,0,0.1,0,0.1-0.1
				s0-0.1-0.1-0.1c-0.1,0-0.4-0.1-0.4-0.2c0-0.1-0.1-0.1-0.2,0c-0.1,0-0.1,0.1,0,0.2c0,0.1,0.1,0.1,0.2,0.2l0,0
				C53.7,25,53.7,25.1,53.7,25.1z"/>
			<path class="st0" d="M50.9,11.7c-0.1,0-0.1,0-0.2,0c0,0.1,0,0.1,0,0.2l0.2,0.1l-0.1,0.1c0,0.1,0,0.1,0,0.2c0.1,0,0.1,0,0.2,0
				l0.1-0.1l0.2,0.1c0,0,0,0,0.1,0c0,0,0.1,0,0.1-0.1c0-0.1,0-0.1,0-0.2L50.9,11.7z"/>
			<path class="st0" d="M73.2,34.9c-0.5-0.1-1-1.9-0.7-3.3c0-0.1,0.1-0.2,0.1-0.4c0.4-1.6,1.3-4.9,0.8-8.7c-0.3-2.3-0.6-3.7-1-4.8
				c0,0,0,0,0,0c0.2-0.3,0.4-0.7,0.4-1c0-0.4-0.2-1-0.7-1.4c-0.3-0.2-0.7-0.5-1.4-0.4L70,15.3c-0.7-0.5-1.3-0.5-1.7-0.5
				c-0.1,0-0.3,0-0.3,0c0,0-0.4-0.2-0.8-0.1c0,0,0,0,0,0c-0.7-0.1-1.3-0.1-2,0c-0.1-0.1-0.3-0.4-0.7-0.7c0,0,0,0,0,0
				c0,0,0-0.1,0-0.1c0-0.3-0.3-0.9-0.4-1c-0.9-1.5-2.3-2.1-2.5-2.2c0.1-0.2,0.1-0.7,0.1-0.8c0,0,0-0.1,0-0.2c0-0.1,0.1-0.2,0.1-0.2
				c0-0.2-0.1-0.5-0.3-0.9c0-0.1-0.1-0.2-0.1-0.3c-0.2-0.3-0.6-0.4-0.8-0.4C60,7.4,59.1,7.5,59,7.5c-0.2,0-0.8,0.2-0.9,0.3
				C58,7.8,57.8,8,57.7,8.2c-0.7-0.4-1.4,0-1.6,0.1l-0.6,0.1c-0.3,0-0.5,0.2-1.1,0.8c-0.6,0.7-0.3,1.3-0.3,1.4
				c-0.2,0.1-0.5,0.3-0.6,0.4c-0.2,0.2-0.2,0.6-0.2,0.8c0,0-0.1,0-0.1,0c-0.4,0-0.9,0.3-0.9,0.3c-0.2,0.1-0.4,0.2-0.4,0.3
				c0,0,0,0.1,0,0.1c0.1,0.1,0.2,0.3,0.5,0.3c0,0,0,0,0,0c0.2,0,0.3,0,0.4-0.1l0,0c0,0,0,0,0,0c0.1,0.1,0.5,0.5,0.8,0.7
				c0,0,0.5,0.3,1,0c0.1-0.1,0.2-0.1,0.3-0.2c0.2-0.1,0.3-0.1,0.4-0.3c0.1,0,0.4-0.1,0.5-0.2c0.1,0,0.2-0.1,0.2-0.2c0,0,0,0,0,0
				c0.2-0.2,0.3-0.3,0.4-0.3c0.7,1.7,0,2.7,0,2.7c0,0-0.2,0.4-0.3,0.8c-0.1-0.1-0.2-0.2-0.2-0.2c0-0.1-0.1-0.2-0.2-0.3
				c0-0.3-0.2-0.3-0.3-0.4c0,0-0.1,0-0.1-0.1c0-0.2-0.3-0.3-0.4-0.4c-0.2-0.2-0.5-0.3-0.6-0.3c-0.1,0-0.5,0.1-0.7,0.2
				c-0.1,0-0.3,0-0.5,0c-0.2,0-0.7,0-0.9,0.5c-0.1,0.1-0.3,0.2-0.4,0.5c0,0.1-0.4,1.3-0.5,1.7c0,0.2,0,0.3,0,0.3c0,0.1,0,0.1,0,0.1
				c0,0-0.1,0.1-0.2,0.2c-0.2,0.3-0.5,0.6-0.5,0.9c0,0.1,0,0.1,0.1,0.2c-0.4,0.3-1.7,1.5-1.4,4c-0.5-0.2-1-0.3-1.1-0.4
				c-0.1-0.1-0.2-0.1-0.3-0.2c-0.2-0.1-0.5-0.2-0.5-0.3c-0.1-0.1-0.4-0.2-0.6-0.2c-0.1-0.1-0.4-0.6-0.6-1.2
				c-0.1-0.4-0.3-1.1-0.3-1.9c0-0.6-0.4-1.5-0.6-1.9c0-0.1-0.1-0.1-0.1-0.2c0,0,0,0,0-0.1l0.7-0.3c0,0.2,0,0.4,0.1,0.5
				c0,0,0.4,1.1,1.5,1.1c0.1,0,1,0,1.1,0c0,0,0,0,0,0c0.4,0.2,0.9,0.5,1.4,0.1c0,0,0.4-0.2,0.3-0.7c0.1-0.1,0.2-0.2,0.2-0.3
				c0-0.1,0-0.2,0-0.3l-0.1-0.1l0.4-0.1c0,0,0.2-0.1,0.3-0.2c0-0.1,0-0.1,0-0.2c0,0,0-0.1-0.1-0.1c-0.1,0-0.5-0.1-0.6-0.1
				c0,0-0.4-0.1-0.6-0.1c0,0,0,0,0,0l-0.2,0l-0.2-0.1c0,0,0,0,0,0c-0.1-0.2-0.6-0.6-0.7-0.7c0.1-0.1,0.2-0.1,0.2-0.2
				c0-0.2,0-0.6,0-0.6c0,0,0,0,0,0c0.2-0.3,0.2-0.6,0.2-0.8l0.5,0.3c0.1,0.1,0.5,0.3,0.7,0.2c0.2,0,0.3-0.2,0.3-0.3
				c0,0,0.1-0.1,0.1-0.1c0.1,0,0.1-0.1,0.2-0.2c0.1,0,0.2,0,0.3-0.1c0,0,0.1-0.1,0.1-0.1c0.1,0,0.1,0.1,0.2,0.1
				c0.1,0,0.2-0.1,0.2-0.3c0.1-0.3,0.3-0.8,0.4-1.1c0-0.1,0.1-0.2,0.1-0.2c0-0.1,0.1-0.1,0.1-0.2c0.1,0,0.2,0.1,0.3,0
				c0.3-0.1,0.4-0.2,0.4-0.3l-0.1,0l0.1,0c0.2-0.9-0.1-1.2-0.4-1.2c-0.1-0.2-0.4-0.8-1-0.7c-0.2-0.1-0.9-0.6-1.7-0.5
				c-0.2,0-1.3-0.2-1.7,0.2C48.1,9,48,9.1,48,9.2c-0.3,0.1-1.1,0.2-1.1,0.6c-0.1,0-0.1,0-0.1,0c-0.2,0.1-0.4,0.3-0.4,0.5
				c-0.4-0.2-0.8-0.2-1-0.2c-0.1,0-0.1,0-0.1,0c-0.1,0-1.4-0.2-2.2,0l-0.3,0.1c-0.7,0.2-1.4,0.3-1.7,0.5c-0.2,0.1-0.4,0.4-0.6,0.6
				c-0.2,0.2-0.3,0.4-0.5,0.5c0,0-0.1,0-0.1,0.1c-0.3,0.2-0.7,0.4-0.8,0.9c0,0.1,0,0.2-0.1,0.3c-0.1,0-0.9,0.3-1.7,1.7
				c0,0-0.5,0.6-0.7,0.8c-0.1,0.1-0.1,0.2-0.1,0.4c0,0.3,0.1,0.6,0.2,0.8c0,0,0.1,0.1,0.1,0.1c0.1,0.1,0.1,0.1,0.2,0.2
				c-0.1,0.2-0.3,0.6,0.2,1.4c-0.2,0.2-0.8,0.7-1,2.2c0,0-0.1,1.9-0.3,2.6c-0.5,1-1.5,2-1.5,2c0,0-0.1,0.2-0.1,0.4
				c0,0.1,0.1,0.3,0.2,0.4l0.7,0.5c0,0,0,0,0.1,0c0,0,0,0.1,0,0.1c0,0.1,0.1,0.1,0.2,0.2c0.1,0.1,0.8,0.3,1,0.3c0,0,0.1,0.1,0.2,0.1
				c0.1,0,0.1,0,0.2,0c0.3,0,0.5,0,0.6,0.2c0.1,0.1,0.2,0.2,0.3,0.3c0,0,0,0,0,0c0,0,0.1,0,0.3,0c-0.3,0.2-0.6,0.5-0.7,0.8
				c0,0.1,0,0.1,0,0.2c-0.1,0.4-0.2,1,0.2,1.4c0.2,0.2,0.4,0.3,0.7,0.3c0,0,0.1,0,0.1,0c0,0,0.4-0.2,0.7-0.4c0,0.2,0.1,0.7,0.3,1
				c0,0,0,0,0,0c0,0.2-0.2,1.3,0.5,2c-0.1,0.1-0.2,0.2-0.2,0.4l0,0.1c0,0.2,0,0.6-0.2,0.9c0,0-0.6,1.3-0.5,1.6
				c0,0.2,0.2,0.5,0.4,0.9c0.1,0.1,0.1,0.2,0.1,0.2c0,0.1,0.2,0.3,0.2,0.3c0,0,0.3,0,0.3,0c0,0,0,0,0.1,0c0.1,0,0.1,0,0.2,0
				c0.2,0,0.3-0.1,0.3-0.2l0,0c0,0,0,0,0-0.1c0.1-0.1,0.3-0.3,0.3-0.4c0-0.1,0-0.1-0.1-0.1c-0.1,0-0.3-0.1-0.3-0.1c0,0-0.1,0-0.1,0
				c-0.1,0-0.1,0-0.1-0.1l0-0.1c0-0.1,0-0.1,0-0.1c0-0.1,0.1-0.1,0.2-0.2c0.9-0.6,1.1-0.7,1.1-0.7c0.3,0.1,0.5,0.1,0.6,0.2
				c0.1,0.1,1.5,1.3,1.8,1.4c0.1,0,0.2,0.1,0.3,0.2c0.5,0.3,1.3,0.7,1.7,0.7c0.6,0.1,1.6,0.3,2,0.4c0.4,0.1,1.4,0.3,1.9-0.2
				c0.1-0.2,0.3-0.3,0.3-0.4c0.2-0.2,0.3-0.3,0.3-0.5c0,0,0-0.1,0-0.1c0-0.4,0.1-1.1-0.1-1.5c-0.2-0.4-0.5-0.7-0.5-0.7c0,0,0,0,0,0
				c0,0,0,0,0,0c0.1-0.5-0.1-0.8-0.2-1c0,0,0-0.1,0-0.1c0-0.1-0.1-0.4-0.3-0.9c-0.1-0.3-0.2-0.5-0.2-0.8c0.1-0.1,0.3-0.3,0.6-0.6
				c0.2,0.2,1.9,1.9,2.5,2.1c0,0,0,0,0.1,0c0,0,0.8,0,1.5-0.3c0.2-0.1,0.4-0.2,0.6-0.3c0.4-0.2,0.7-0.4,1.1-0.2c0,0,0,0,0,0
				c0,0.1,0.1,0.1,0.2,0.2l0.1,1.4c0,0,0,0.2,0.1,0.4c0,0,0.1,0.1,0.1,0.1l-0.2,1.4l-3.5,0.8c0,0,0,0,0,0c-0.1,0-0.1,0.1-0.1,0.1
				l0,0.9c0,0,0,0.1,0.1,0.1l3.5,1.2c0,0,0,0,0,0c0,0,0,0,0,0l6.3-1.9c0,0,0.1-0.1,0.1-0.1v-0.9c0,0,0,0,0,0c0,0,0,0,0,0
				c0,0,0-0.1,0-0.1c0,0,0,0,0,0s0,0,0,0c0,0,0,0,0,0c0,0,0,0,0,0s0,0,0,0c0,0,0,0,0,0l-3.6-0.7c0,0,0,0,0,0L58,36l-0.4-2.6
				c0,0,0,0,0,0c0.2-0.3,0.4-0.7,0.3-1.3c-0.2-0.9-0.2-1.1-0.1-1.3c0,0,0.2-0.3,0.4-0.5c0.4-0.6,1.1-1.5,1.6-2.5c0,0,0,0,0,0
				c0,0.6,0,1.8,0,1.9l0,0c0,0.5,0,0.9-0.1,1.1c-0.2,0.3-0.4,0.8-0.4,1.1c0,0.2,0,0.6,0,0.6c0,0.1-0.3,0.8-0.3,0.8
				c0,0,0,0.3,0.1,0.5c0.1,0.1,0.2,0.2,0.4,0.2c0.5,0.1,1.2,0.1,1.5-0.1c0.3-0.2,0.6-0.5,0.5-0.7c-0.1-0.1-0.2-0.2-0.3-0.3
				c-0.1-0.1-0.1-0.1-0.2-0.2c-0.1-0.2-0.3-0.5-0.2-0.6c0,0,0.1-0.3,0.1-0.5c0-0.5,0-0.6,0.1-0.7c0.1-0.2,0.9-1.4,1-1.5
				c0,0,0.4-0.7,0.6-2.5c0,0,0,0,0,0c0.5,0,0.8,0,1-0.1l0,0.1l-0.4,0.9c0,0.1-0.7,1.4-0.8,1.7c0,0,0,0.1,0,0.1
				c-0.2,0.4-0.6,1.5-0.1,2.9l0.2,0.9c0.4,1.3,0.6,1.4,1.1,1.5c0,0,0,0,0,0c0,0.2-0.1,0.3-0.1,0.4l0,0.1c-0.1,0.1-0.1,0.3-0.2,0.5
				c0,0.1-0.1,0.3,0,0.4c0,0.3,0.1,0.7,0.4,0.7c0.2,0,0.5,0,0.6,0c0.1,0,0.4,0.1,0.5,0.1l0.1,0c0.2,0,0.3,0,0.5-0.1
				c0.1,0,0.1-0.1,0.2-0.1c0.1,0,0.2-0.1,0.3-0.1c0,0,0.5-0.3,0.5-0.7c0-0.2-0.4-0.8-0.5-1c0,0,0,0,0-0.1c0.2,0,1,0.1,3.3,0.2
				c0.3,0,0.4,0,0.5,0c0.1,0,0.2,0,0.4,0c1,0,3.2-0.2,3.3-0.2c0.1,0,0.1,0,0.1-0.1C73.2,35,73.2,35,73.2,34.9z M67.9,15.1
				C67.9,15.1,68,15.1,67.9,15.1c0.1,0,0.2,0,0.3,0c0.4,0,1,0,1.6,0.5c0,0,0.1,0,0.1,0l0.7-0.2c0.5-0.1,0.9,0,1.3,0.3
				c0.4,0.3,0.6,0.8,0.6,1.2c0,0.6-0.9,1.5-0.9,1.5l-1,0.8c0,0,0,0,0,0c-0.2,0.3-0.9,0.7-1.3,1c-0.1,0.1-0.2,0.1-0.2,0.1
				c-1.6-0.4-2.5-1.1-2.8-2C66.1,16.9,67.6,15.4,67.9,15.1z M67.7,15c-0.4,0.4-1.9,2-1.5,3.4c0.2,0.9,1.1,1.6,2.7,2.1
				c-0.3,0.2-0.7,0.2-1.2,0.1c-1.5-0.3-2.8-2.1-2.9-2.1c0-0.2-0.1-0.4-0.1-0.5c0,0,0,0,0-0.1c0-0.2,0.8-2.3,2-2.8
				C67.2,14.9,67.5,14.9,67.7,15z M63.2,20.1c-0.1,0-0.1,0-0.1,0.1c0,0-0.1,0.6-0.2,1c-0.1,0.1-0.1,0.2-0.1,0.2
				c-0.1,0.1-0.1,0.2-0.2,0.3c-0.6,0.8-1,0.7-1.2,0.7l0.1-0.1c0.1,0,0.1-0.1,0-0.2c0-0.1-0.1-0.1-0.2,0l-0.2,0.1c0,0,0,0,0,0
				c-0.1,0-0.2-0.1-0.2-0.1c0,0-0.1,0-0.1,0l-0.2,0.2c-0.2,0-0.3-0.3-0.4-0.5c0,0,0-0.1,0-0.1c-0.1-0.2-0.3-0.3-0.4-0.3
				c0,0-0.2,0-0.2,0c-0.2-0.2-0.6-0.5-0.6-0.5c-0.3-0.3-0.3-0.7-0.3-0.7c0-0.2-0.1-0.5,0-0.7c0-0.9,0.5-1.4,0.5-1.4l0.4-0.3
				c0.1-0.1,0.3-0.3,0.3-0.3c0,0,0.1-0.1,0.2-0.1c0.1-0.1,0.3-0.1,0.3-0.2c0.1,0,0.2,0,0.3,0c0.1,0,0.1,0,0.2,0c0,0,0,0,0.1,0
				c0.1,0,0.6,0.1,0.7,0.1c0.1,0,0.5,0.3,0.5,0.3c0,0,0.1,0.2,0,0.3c-0.1,0.2-0.4,0.8-0.6,1c-0.1,0.1-0.2,0.3,0.1,0.6
				c0,0,0,0.1,0,0.1c0,0,0,0.1-0.1,0.1c-0.1,0.1-0.1,0.1-0.1,0.2c0,0.1,0,0.5,0,0.7c0,0,0.1,0.1,0.1,0.1c0.1,0,0.3,0,0.5-0.1
				c0,0,0.1,0,0.1,0c0.1,0,0.5-0.1,0.6-0.3c0,0,0.1,0,0.1,0c0.1,0,0.2,0,0.2-0.1c0.1,0,0.1-0.2,0.2-0.3c0-0.1,0.1-0.1,0.1-0.1
				c0,0,0.1-0.1,0.1-0.1c0,0,0.1-0.1,0.1-0.1c0.1-0.1,0.1-0.2,0.1-0.4c0,0,0,0,0,0c0,0,0,0,0,0c0.1-0.1,0.1-0.3,0.1-0.4
				c0-0.1-0.1-0.1-0.1-0.3c0-0.1-0.1-0.2-0.1-0.2c0,0,0-0.1,0.1-0.1c0,0,0-0.1,0-0.1c0-0.1-0.1-0.2-0.3-0.3c0,0,0,0,0,0
				c0,0,0-0.1,0-0.1c0,0,0,0,0-0.1c0.2,0,0.6,0,0.9,0.2c0.3,0.2,0.4,0.5,0.4,1c0,0,0,0,0,0c0,0.2,0,0.3,0,0.3c0,0.1-0.3,1-1,1.2
				c0,0-0.1,0.1-0.2,0.1c-0.1,0-0.1,0.1-0.1,0.1c0,0,0,0,0,0c0,0,0-0.1,0-0.1C63.3,20.2,63.3,20.1,63.2,20.1z M62.1,22.6
				c-0.2,0.3-0.4,0.7-0.5,0.8c-0.1,0.1-0.3,0.2-0.6,0.3c-0.2,0.1-0.3,0.1-0.3,0.1l-2.3,0.3c-0.1-0.2-0.2-0.8-0.3-1.2
				c-0.1-0.4,0.4-1.1,0.5-1.2c0.1-0.1,0.2-0.3,0.2-0.4c0.2,0.2,0.5,0.4,0.6,0.5c0,0,0,0,0,0c0,0,0.2,0,0.3,0c0,0,0.1,0,0.2,0.2
				c0,0,0,0.1,0,0.1c0.1,0.2,0.3,0.8,0.7,0.6c0,0,0,0,0,0l0.2-0.2c0.1,0,0.3,0.1,0.4,0.1C61.4,22.7,61.7,22.8,62.1,22.6z M58.3,18.9
				C58.3,18.9,58.3,18.9,58.3,18.9C58.3,18.9,58.3,18.8,58.3,18.9c0-0.1,0-0.2,0-0.2c0.1-0.1,0.1-0.2,0.2-0.3c0-0.1,0.1-0.2,0.1-0.3
				c0.1-0.1,0.1-0.1,0.2-0.2c0.3-0.1,0.4-0.2,0.4-0.4c0-0.1,0.1-0.2,0.2-0.2c0.2-0.1,0.3-0.1,0.5-0.2c0.1,0,0.2-0.1,0.2-0.1
				c0.1,0,0.2,0,0.5-0.1c0.1,0,0.2-0.1,0.2-0.1c0.1,0,0.2,0,0.3,0c0.2,0,0.3,0,0.3,0c0.1,0,0.3,0.1,0.5,0.2c0.1,0,0.3,0.1,0.4,0.1
				c0.1,0,0.3,0.1,0.4,0.1c0.2,0.1,0.3,0.1,0.4,0.1c0.2,0,0.2,0,0.3,0c0,0,0,0,0,0.1c0,0.1-0.1,0.2,0.1,0.3c0.1,0,0.1,0.1,0.2,0.1
				c0,0,0,0,0,0c0,0.1-0.1,0.2-0.1,0.3c0,0.1,0.1,0.1,0.1,0.3c0,0.1,0.1,0.2,0.1,0.2c0,0.1,0,0.2,0,0.2c-0.1,0.1-0.1,0.1-0.1,0.2
				c0,0,0,0.1,0,0.1c0,0,0,0.1,0,0.1c0,0-0.1,0.1-0.1,0.2c0,0-0.1,0.1-0.1,0.1c0,0-0.1,0.1-0.1,0.2c-0.1,0.1-0.1,0.2-0.2,0.2
				c0,0-0.1,0-0.1,0c-0.1,0-0.3,0-0.3,0.2c0,0.1-0.3,0.1-0.3,0.1c0,0,0,0,0,0c0,0-0.1,0-0.2,0.1c-0.1,0-0.2,0.1-0.3,0.1c0,0,0,0,0,0
				c-0.1-0.1-0.1-0.4,0-0.5c0,0,0.1-0.1,0.1-0.1c0,0,0.1-0.1,0.1-0.2c0-0.1,0-0.3-0.1-0.4c-0.1-0.1-0.1-0.2-0.1-0.2
				c0.2-0.2,0.5-0.9,0.6-1.1c0.1-0.2,0-0.4-0.1-0.5c-0.1-0.1-0.5-0.3-0.6-0.4c-0.1,0-0.6-0.2-0.8-0.2c0,0,0,0,0,0c0,0-0.1,0-0.1,0
				c-0.2,0-0.4,0-0.6,0.1c-0.1,0-0.2,0.1-0.3,0.2c-0.1,0.1-0.2,0.1-0.3,0.1c-0.1,0.1-0.3,0.3-0.4,0.3L58.9,18c0,0-0.5,0.4-0.5,1.4
				c0,0,0-0.1,0-0.1C58.3,19.1,58.3,19,58.3,18.9z M66.7,14.9c-1.2,0.5-1.9,2.2-2,2.8c-0.1-0.1-0.1-0.2-0.2-0.3
				c-0.5-0.4-1.1-0.3-1.2-0.3c0,0,0,0,0,0c-0.1,0-0.2,0-0.3,0c0,0-0.2-0.1-0.3-0.1c-0.2-0.1-0.4-0.1-0.5-0.1c0,0-0.1,0-0.3-0.1
				c-0.2-0.1-0.4-0.2-0.4-0.2c0,0-0.1,0-0.3,0c0.1-0.1,0.4-0.4,0.8-0.6l0.1,0C62.8,15.5,64.8,14.7,66.7,14.9z M63.9,13
				c0.1,0.2,0.3,0.6,0.3,0.9c-0.3-0.2-0.5-0.3-0.8-0.4c-0.1,0-0.1,0-0.1,0.1c0,0.1,0,0.1,0.1,0.1c0.3,0.1,0.6,0.3,0.9,0.5
				c0.4,0.3,0.6,0.5,0.7,0.6c-1.3,0.2-2.4,0.7-3,1c-1.3-0.9-1.1-1.8-1.1-1.9c0,0,0.1-0.1,0.1-0.1c0.2-0.2,0.1-0.6,0.1-0.8
				c0,0,0-0.1,0-0.1c0,0,0-0.1,0.1-0.2c0.1-0.1,0.2-0.3,0.2-0.6v0c0,0,0.1-0.1,0.1-0.1c0,0,0.1-0.1,0.1-0.1c0.1-0.1,0.1-0.3,0-0.6
				c0-0.1,0-0.1,0-0.1c0-0.1,0-0.1,0-0.2C61.7,11,63,11.5,63.9,13z M57.7,8.5C57.8,8.5,57.8,8.5,57.7,8.5
				C57.8,8.4,57.8,8.4,57.7,8.5C58,8.2,58.2,8,58.3,8c0.1-0.1,0.5-0.2,0.8-0.3c0,0,0.9-0.1,1.3,0.4c0,0,0,0,0.1,0c0,0,0.5,0,0.6,0.3
				c0,0.1,0.1,0.2,0.1,0.3c0.1,0.2,0.3,0.7,0.3,0.8c0,0.1,0,0.1-0.1,0.2c0,0.1-0.1,0.2-0.1,0.3c0,0.1,0,0.6-0.1,0.7c0,0,0,0,0,0.1
				c0,0.1-0.1,0.2-0.1,0.4c0,0,0,0.1,0,0.2c0,0.1,0.1,0.3,0.1,0.4c0,0,0,0-0.1,0.1c-0.1,0.1-0.2,0.1-0.2,0.2l0,0
				c0,0.4-0.1,0.4-0.1,0.4c-0.2,0.1-0.2,0.3-0.2,0.4c0,0,0,0.1,0,0.1c0,0.1,0.1,0.5,0,0.6c0,0-0.1,0.1-0.1,0.1c-0.1,0-0.1,0-0.2,0.1
				l-0.1,0.1c0,0,0,0,0,0.1c0,0.1-0.1,0.3-0.1,0.4c0-0.1-0.1-0.2-0.2-0.2l0.2-0.8l0.1-1l0.8-1.3c0,0,0,0,0,0c0-0.1-0.1-0.6-0.2-0.8
				c-0.1-0.1-0.3-0.4-0.4-0.4c0-0.1-0.1-0.5-0.1-0.5c0,0,0-0.1-0.1-0.1c0,0-0.1,0-0.1,0c-0.2,0.2-0.6,0.5-0.7,0.5
				c-0.1,0-0.4,0-0.5,0c-0.1,0-0.1,0-0.1,0c-0.2,0-0.5,0.1-0.6,0.3c-0.1,0.1-0.3,0.5-0.4,0.6c-0.1,0.1-0.2,0.6-0.2,0.8
				c0,0.1,0,0.1-0.1,0.2l0,0c0,0.1-0.1,0.1-0.1,0.2c0,0.1,0,0.3,0,0.4c0,0.1,0,0.1,0,0.2c0,0.2,0,0.6,0,0.7c0,0-0.1,0-0.2,0
				c0,0,0,0-0.2,0c0-0.1,0-0.1,0-0.2c0-0.1,0-0.2-0.2-0.5c0-0.1-0.1-0.2-0.1-0.2c0-0.1-0.2-1.2-0.2-1.5c0-0.1,0.1-0.5,0.2-0.7
				c0.1-0.2,0.1-0.3,0.1-0.3c0-0.1,0.2-0.6,0.3-0.8C57.6,8.7,57.6,8.6,57.7,8.5z M59.8,11.3c0,0,0.1,0,0.2,0.1l0,0.1
				c0,0.1,0,0.1,0.1,0.1c0.1,0,0.1,0,0.1-0.1l0,0c0.1,0,0.2,0,0.3,0.1L60.1,12c0,0,0,0,0,0c0,0,0,0,0,0c-0.6,0.5-1.3,0.4-1.3,0.4
				c-0.4-0.1-0.6-0.8-0.7-1c0,0,0,0,0,0c0-0.1,0.1-0.1,0.1-0.2c0-0.2,0.1-0.6,0.1-0.7c0.1-0.1,0.3-0.5,0.4-0.6
				c0-0.1,0.2-0.1,0.3-0.1c0,0,0.1,0,0.1,0c0.3,0,0.5,0.1,0.6,0c0.1-0.1,0.4-0.3,0.6-0.5c0,0.1,0.1,0.3,0.1,0.3
				c0,0.2,0.4,0.5,0.4,0.6c0.1,0.1,0.1,0.4,0.1,0.5l-0.4,0.6c0,0,0,0,0,0c-0.3,0-0.6-0.2-0.6-0.2c-0.1,0-0.1,0-0.2,0
				C59.7,11.2,59.8,11.3,59.8,11.3z M54.9,13.1c-0.1,0-0.2,0.1-0.4,0.2c-0.4,0.2-0.8,0-0.8,0c-0.3-0.3-0.7-0.6-0.7-0.7
				c0-0.1-0.1-0.1-0.2-0.1c0,0,0,0,0,0c-0.1,0-0.1,0-0.2,0.1l0,0c0,0-0.2,0-0.2,0c-0.2,0-0.2-0.1-0.3-0.1c0.1,0,0.2-0.1,0.3-0.1
				c0,0,0.4-0.2,0.8-0.3c0.1,0,0.1,0,0.1,0l0,0c0.3,0,0.5,0,0.7,0.1l0.4,0.2c0,0,0,0,0,0c0.1,0.1,0.1,0.2,0.1,0.2l0.2-0.1
				c0,0-0.1-0.2-0.2-0.3c0-0.1-0.1-0.1-0.1-0.2c0,0,0-0.1,0-0.1c0,0,0.1,0,0.1,0l0,0c0,0,0.1,0.1,0.2,0.2c0,0,0,0,0.1,0
				c0,0,0,0,0.1,0.4c0,0.1,0,0.2,0,0.2C55.1,13,55.1,13.1,54.9,13.1z M55.9,12.6c0,0.1-0.1,0.1-0.2,0.1c-0.1,0.1-0.3,0.1-0.4,0.1
				c0,0,0-0.1,0-0.2c-0.1-0.4-0.1-0.5-0.2-0.5c0,0,0,0-0.1,0C55,12,54.9,12,54.9,11.9c0,0,0,0,0,0c0,0-0.1-0.1-0.2-0.1c0,0,0,0,0,0
				c-0.1,0-0.1,0-0.2,0.1c-0.1,0.1-0.1,0.2-0.1,0.2L54.2,12c-0.3-0.2-0.5-0.2-0.7-0.2c0-0.2,0.1-0.6,0.1-0.7
				c0.1-0.1,0.4-0.3,0.6-0.3c0.1,0,0.2,0,0.2,0c0.2,0.1,1.2,0.5,1.5,1.1C56,12.2,56,12.4,55.9,12.6z M56.7,15.3c0,0,0.7-1,0.1-2.7
				c0,0,0,0,0,0l-0.3-1.3c0-0.1-0.1-0.1-0.1-0.1c-0.1,0-0.1,0.1-0.1,0.1l0.2,0.9c-0.1,0-0.1,0-0.2,0.1c0-0.1,0-0.3-0.1-0.4
				c-0.3-0.6-1.3-1.1-1.6-1.2c-0.1,0-0.2,0-0.2,0c0,0,0,0,0,0c0,0-0.3-0.6,0.2-1.2c0.6-0.7,0.7-0.7,0.9-0.8l0.7-0.1c0,0,0,0,0.1,0
				c0,0,0.7-0.5,1.3-0.1c-0.1,0.1-0.1,0.1-0.2,0.2C57.2,8.9,57,9.4,57,9.5c0,0,0,0.2-0.1,0.3c-0.1,0.3-0.2,0.6-0.2,0.8
				c0,0.3,0.1,1.4,0.2,1.5c0,0.1,0.1,0.2,0.1,0.3c0.1,0.1,0.1,0.3,0.1,0.4c0,0.1-0.1,0.4-0.1,0.4c0,0,0,0.1,0,0.1c0,0,0.1,0,0.1,0
				c0.1-0.1,0.2-0.1,0.2-0.1c0.2,0,0.3,0,0.4-0.2c0-0.1,0.1-0.5,0-0.8c0-0.1,0-0.1,0-0.2c0-0.1,0-0.2,0-0.3c0,0,0,0,0-0.1
				c0.1,0.3,0.4,0.9,0.8,1c0,0,0.7,0,1.4-0.4L60,13.1L59.8,14c0,0,0,0.1,0,0.1c0.2,0.4,0.3,0.4,0.4,0.4c0,0,0.1,0,0.1,0
				c0,0,0.1-0.1,0.2-0.5l0.1-0.1c0,0.3,0.1,1.1,1.1,1.9c-0.5,0.3-0.8,0.7-0.8,0.7c0,0,0,0,0,0.1c-0.1,0-0.2,0-0.2,0
				c0,0-0.1,0-0.2,0.1c-0.1,0-0.3,0.1-0.4,0.1c0,0,0,0,0,0c-0.1,0-0.2,0-0.3,0.1c-0.1,0.1-0.3,0.2-0.4,0.2c-0.2,0.1-0.3,0.2-0.3,0.3
				c0,0.1-0.1,0.2-0.3,0.2c-0.2,0-0.3,0.1-0.4,0.3c-0.1,0.1-0.1,0.2-0.1,0.3c0,0.1-0.1,0.2-0.1,0.2c-0.1,0-0.1,0.1-0.1,0.2l-1.3-0.6
				c0-0.1,0-0.1,0-0.2c0.1-0.2,0-0.4-0.1-0.5c0,0,0-0.1,0-0.1c0-0.1-0.2-0.3-0.3-0.4c0-0.1,0-0.1,0-0.2c0-0.1-0.1-0.3-0.1-0.4
				c0,0,0-0.1,0-0.1C56.4,15.9,56.7,15.3,56.7,15.3z M54.4,14.5c0.1,0,0.3,0.1,0.4,0.2c0,0,0,0,0,0c0.1,0.1,0.3,0.2,0.3,0.2
				c0,0.1,0.1,0.2,0.2,0.2c0.1,0.1,0.2,0.1,0.1,0.2c0,0,0,0.1,0.1,0.1c0,0,0.2,0.1,0.2,0.2c0,0,0,0.1,0.1,0.1c0,0,0.2,0.1,0.2,0.3
				l0,0c0,0.1,0,0.2,0.1,0.2c0,0,0.1,0.3,0.1,0.4c0,0,0,0.1,0,0.1c0,0,0,0.1,0.1,0.2c0,0,0.2,0.1,0.2,0.2c0,0-0.1,0-0.1,0.1
				c0,0,0,0.1,0,0.1c0,0,0.2,0.2,0.1,0.3c0,0.1,0,0.2,0,0.3c0,0.1,0,0.2-0.1,0.3c0,0-0.2,0.2-0.3,0.2c-0.1,0-0.2,0.1-0.3,0
				c0,0,0-0.1-0.1-0.1c0,0,0,0,0,0c0,0,0,0,0-0.1c0,0,0-0.1-0.1-0.1c-0.1-0.1-0.2-0.2-0.2-0.6c0.1-0.1,0.3-0.2,0.5-0.3
				c0.1-0.1,0.1-0.4,0-0.7c0,0,0-0.1,0-0.1c0,0,0-0.1-0.1-0.5c0-0.2,0-0.3,0-0.3c0,0,0,0,0,0c0,0,0-0.1,0-0.1c0,0,0-0.1,0-0.1
				c0,0-0.2-0.1-0.3-0.2c0,0,0,0,0,0c0-0.1-0.1-0.2-0.2-0.4c-0.1-0.1-0.3-0.2-0.3-0.2l-0.1,0c0,0-0.3-0.3-0.3-0.3c0,0,0,0,0,0
				c-0.1,0-0.3-0.1-0.4-0.1C54.2,14.5,54.3,14.5,54.4,14.5z M55.1,22.9c0.2,0.1,0.5,0.3,0.5,0.5c0,0.1,0.1,0.3,0,0.5
				c0,0.1-0.1,0.1-0.2,0.2c-0.2,0-0.4,0-0.5,0.1c0-0.1-0.1-0.2-0.2-0.2c-0.1,0-0.3,0-0.4,0.1c-0.1,0.1-0.5,0.3-0.6,0.4
				c0,0-0.1,0-0.1,0c-0.2,0-0.3,0.1-0.3,0.2c-0.1,0.1-0.3,0.3-0.5,0.4c0,0-0.3,0.1-0.6,0.1c-0.5,0.1-0.8,0.2-0.9,0.2
				c-0.3-0.5-1-1.5-1.2-1.7c0,0,0,0,0,0c0,0,0,0,0,0c0,0,0,0,0,0c0,0-0.1-0.1-0.1-0.1c0,0,0,0,0,0c-0.1-0.3-0.1-0.7,0.1-0.8
				c0,0,0,0,0,0l0,0c0.1-0.1,0.2-0.2,0.2-0.2l0,0c0.2-0.2,0.3-0.3,0.4-0.3c0.2,0,0.3-0.2,0.5-0.3l0,0c0.1-0.1,0.4-0.4,0.7-0.4
				c0.2,0,0.4,0.1,0.7,0.1c0.3,0,0.8,0.1,0.9,0.1c0,0,0.7,0.5,0.9,0.6l0,0c0,0,0.1,0,0.2,0c0.2,0,0.3,0.1,0.4,0.3c0,0,0,0,0,0.1
				c0,0,0.2,0.1,0,0.4C55.1,22.7,55.1,22.8,55.1,22.9C55.1,22.8,55.1,22.8,55.1,22.9z M53.9,25.8c0,0.1-0.1,0.1-0.1,0.1
				c0,0-0.1,0-0.1,0c0,0,0,0,0,0l-0.2-0.1c0,0-0.1,0-0.2,0c0,0,0,0.1,0,0.2l0.1,0.1c0,0,0,0,0,0c-0.1,0-0.1,0.1-0.2,0.1
				c0,0-0.1,0.1-0.1,0.1c-0.3,0.1-0.9-0.1-1-0.3c-0.2-0.2-0.3-0.5-0.3-0.5c0-0.1-0.1-0.1-0.1-0.1c-0.1,0-0.1,0.1-0.1,0.1
				c0,0,0,0,0.1,0.1c0,0,0,0,0,0l-0.1,0.1c0-0.1-0.1-0.2-0.1-0.4c0.2,0,0.5-0.1,0.8-0.2c0.6-0.1,0.6-0.1,0.6-0.2
				c0.5-0.3,0.6-0.4,0.6-0.5c0,0,0.1,0,0.2-0.1c0,0,0.1,0,0.1,0c0.1,0,0.6-0.3,0.7-0.4c0.1-0.1,0.2-0.1,0.3,0c0,0,0,0.1,0.1,0.1
				c-0.1,0.4-0.3,0.5-0.3,0.5c0,0-0.1,0.1-0.1,0.1c0,0,0,0.6,0,0.8c0,0,0,0,0,0c0,0-0.2,0-0.2,0c0,0,0,0,0,0c-0.1,0-0.2-0.1-0.2-0.1
				c0,0-0.1-0.1-0.1-0.1c-0.1,0-0.1,0-0.1,0.1C53.7,25.6,53.8,25.7,53.9,25.8z M53.5,19.5c0.1-0.3,0.2-0.6,0.2-0.7
				c0-0.2,0-0.4,0-0.7c0-0.1-0.1-0.2-0.1-0.3c0.3,0.1,0.8,0.2,1.6,0.2c0,0.4,0.2,0.6,0.3,0.7c0,0,0,0,0,0
				C55.2,19.8,53.8,19.6,53.5,19.5z M54.9,15.3c0,0,0.1,0.1,0.1,0.1c0,0,0.1,0.1,0.1,0.1c-0.1,0-0.1-0.1-0.2-0.1
				C54.9,15.4,54.9,15.3,54.9,15.3C54.9,15.3,54.9,15.3,54.9,15.3z M54.4,14.8c0.1,0.1,0.3,0.2,0.3,0.3c0,0,0,0,0.1,0c0,0,0,0,0,0
				c0,0.1-0.1,0.1-0.1,0.2c0,0.1,0.1,0.2,0.2,0.2c0.2,0.1,0.5,0.3,0.7,0.4c0,0.1-0.1,0.2-0.3,0.2c-0.1,0-0.1,0.1-0.1,0.2
				c0,0,0.1,0.1,0.1,0.1c0,0,0,0,0.1,0c0.1,0,0.2-0.1,0.2-0.2c0,0.1,0,0.1,0,0.2c0,0,0,0.1,0,0.1c0,0,0,0-0.1,0
				c-0.2,0.1-0.5,0.2-0.5,0.2c-0.1,0-0.1,0.1-0.1,0.1c0,0.1,0.1,0.1,0.1,0.1c0,0,0.3-0.1,0.6-0.2c0,0.1,0,0.1,0,0.1c0,0,0,0.1,0,0.1
				c0.1,0.3,0.1,0.4,0.1,0.5c-0.1,0.1-0.3,0.2-0.4,0.3l-0.1,0h0c-1.1,0-1.7-0.2-1.8-0.2c-0.1-0.2-0.1-0.4-0.1-0.6
				c0-0.2-0.1-0.5-0.2-0.7l0-0.1c-0.1-0.1-0.2-0.3-0.2-0.5c0-0.3,0.3-0.7,0.4-0.7c0,0,0.1,0,0.1,0C53.5,14.9,53.8,14.7,54.4,14.8z
				 M51.3,18c0.1-0.1,0.2-0.2,0.2-0.3c0-0.1,0-0.1,0-0.2c0-0.1,0-0.1,0-0.3c0.1-0.4,0.5-1.6,0.5-1.6c0.1-0.2,0.4-0.4,0.4-0.4
				c0,0,0,0,0,0c0.2-0.5,0.7-0.4,0.7-0.4c0,0,0,0,0.1,0c0,0,0,0,0.1,0c0,0,0,0,0,0c0,0,0,0-0.1,0c-0.2,0.1-0.5,0.6-0.5,0.9
				c0,0.3,0.1,0.5,0.2,0.7l0,0.1c0.1,0.1,0.2,0.4,0.2,0.5c0,0.2,0,0.6,0.2,0.9c0,0.1,0.1,0.2,0.1,0.3c0.1,0.3,0.1,0.4,0,0.6
				c-0.1,0.3-0.2,0.9-0.4,0.9c-0.3,0.1-1.4-0.1-1.5-0.2c-0.1-0.2-0.2-0.3-0.5-0.5c-0.1,0-0.1-0.1-0.2-0.2c0,0-0.1-0.1-0.1-0.1
				C50.9,18.6,51.1,18.2,51.3,18z M50.9,19.1c0.1,0,0.1,0.1,0.2,0.1c0.3,0.2,0.3,0.2,0.4,0.4c0,0.1,0.1,0.1,0.2,0.2
				c0.4,0.2,1.3,0.3,1.6,0.1c0.1,0,0.1-0.1,0.2-0.2c0,0,0.3,0.1,0.6,0.1c0.1,0,0.3,0,0.5,0l0,2c0,0-0.1,0-0.1,0
				c-0.1,0-0.6-0.4-0.8-0.5c-0.1-0.1-0.4-0.1-1-0.2c-0.2,0-0.5,0-0.7-0.1c-0.5-0.1-0.8,0.3-0.9,0.4l0,0c-0.1,0.1-0.2,0.2-0.3,0.2
				c-0.2,0-0.3,0.2-0.5,0.4l0,0c-0.1,0.1-0.2,0.2-0.2,0.2l0,0c-0.3,0.1-0.2,0.6-0.2,0.8c-0.1,0-0.2-0.1-0.2-0.1
				C49.2,20.4,50.6,19.3,50.9,19.1z M48.2,22.8c0.3,0.1,1.2,0.4,1.6,0.6l0,0c0.1,0,0.1,0.1,0.1,0.1c0.5,0.7,1.1,1.6,1.2,1.8
				c-0.6-0.7-1.8-1.1-1.9-1.1c-0.1,0-0.1,0-0.1,0.1c0,0.1,0,0.1,0.1,0.1c0,0,1.8,0.7,2.1,1.5c0,0.1,0.1,0.2,0.1,0.2
				c0,0.2,0.1,0.4,0.1,0.4c0,0.2-0.1,1.6-1.2,1.9c0.3-0.7,0.5-1.6-0.5-2.9c0-0.1-0.1-0.1-0.2,0c0,0-0.1,0.1,0,0.2
				c1,1.3,0.8,2.1,0.4,2.8c-0.3,0.4-0.9,0.9-1.7,1c0,0,0,0-0.1,0c-0.6,0-0.9-0.3-0.9-0.4c0,0,0,0-0.1,0c0.2-0.4,0.3-0.7,0.3-0.9
				c0.2,0,0.8-0.2,0.8-0.6c0,0,0-0.1,0-0.1c0.1-0.5-0.1-1.1-1.9-1.8c0.2-0.2,0.6-0.4,1.3-0.4c0,0,0.5,0,0.8,0c0.1,0,0.1-0.1,0.1-0.1
				c0-0.1-0.1-0.1-0.1-0.1c-0.4,0-0.8,0-0.8,0c-1.1,0-1.6,0.5-1.6,0.6c-0.1,0.1-0.7,0.5-1.1,1.2c-0.2,0.4-0.3,0.8-0.4,1.2
				c-0.6-0.4-1.7-1.6-2.1-2c-0.2-0.2-0.3-0.3-0.3-0.3c0,0-0.1,0-0.2,0c0,0,0,0.1,0,0.2c0,0,0.1,0.1,0.2,0.2
				c-0.1,0.1-0.4,0.2-0.6,0.4c-0.1,0-0.2-0.1-0.4-0.3c-0.1-0.1-0.1-0.2-0.1-0.5c0-0.1,0-0.3,0-0.5c0-0.5,0.9-0.7,1.2-0.8
				c0.3,0,1.4-0.3,1.4-0.3l0.5-0.2c0,0,0,0,0,0c0,0,0,0,0,0c0,0,0,0,0.1,0L45,24c0,0,0,0,0,0c0.1,0,0.1,0.1,0.2,0.2
				c0.1,0.1,0.1,0.1,0.2,0.2c0.1,0.1,0.4,0.1,0.5,0.1c0.1,0,0.4-0.2,0.4-0.2c0.1-0.1,0.1-0.2,0.1-0.4l0-0.1c0-0.1,0.1-0.4,0.1-0.5
				c0,0,0-0.1,0.1-0.3c0,0,0.1-0.1,0.2-0.1c0,0,0.1,0,0.1,0c0,0,0,0,0.1-0.1c0,0,0.1,0,0.1-0.1c0,0,0.1,0,0.2,0.1c0,0,0.3,0.1,0.7,0
				C48.1,22.9,48.2,22.8,48.2,22.8z M46.6,32L46.6,32c0.2,0,0.6,0.3,0.6,0.3c0.3,0.2,0.3,0.3,0.3,0.3c0,0.1,0.1,0.2,0.2,0.2
				c0.1,0,0.2,0.2,0.3,0.2c0,0,0.5,0.6,0.5,0.7c0,0,0,0,0,0.1c0,0,0,0,0,0L48,33.4l-0.5-0.2c-0.1,0-0.1,0-0.1,0c0,0,0,0.1,0,0.1
				c0.2,0.1,0.4,0.5,0.4,0.6c0,0,0.2,0.4,0.2,0.6c0,0.1,0,0.1,0,0.1c0,0-0.1,0-0.1-0.1l-0.3-0.5l-0.5-0.7c0-0.1-0.2-0.1-0.2,0
				c0,0,0,0,0,0c0,0,0,0,0,0l0.1,0.3l0.1,0.3l0.1,0.5c0,0,0.1,0.3,0.1,0.4c0,0,0,0,0,0c0,0,0,0-0.1,0l-0.5-1.1c0,0-0.1-0.1-0.1-0.1
				c-0.1,0-0.1,0-0.1,0.1l0,0.2c0,0.1-0.2,0.2-0.3,0.2c-0.1,0-0.2,0-0.3,0.2c0,0,0-0.1,0-0.1c0,0,0.1,0,0.1-0.1
				c0.1,0,0.1-0.1,0.1-0.1c0.1-0.1,0.1-0.2-0.1-0.5c0-0.1-0.1-0.1-0.3-0.3c0,0-0.1,0-0.1-0.1c0,0-0.4-0.3-0.4-0.3
				c-0.2-0.2-0.4-0.7-0.4-1.5c0,0,0,0,0,0c0-0.4,0-0.8-0.1-1.2l0-0.2c0-0.5,0-1.1,0.2-1.6c0.1-0.4,0.3-0.8,0.5-1.3
				c0.3-0.6,0.8-1,0.9-1.1c2,0.7,1.9,1.2,1.9,1.6c0,0,0,0.1,0,0.1c0,0.2-0.5,0.4-0.7,0.4c-0.1,0-0.1,0.1-0.1,0.1
				c0,0.1-0.1,0.3-0.4,1c-0.1,0.2-0.1,0.3-0.1,0.3l-0.3,0.7c0,0.1-0.5,1.1-0.5,1.3C46.1,31.9,46.4,32,46.6,32z M39.4,23.1
				c-0.1-0.7-0.2-1.6-0.2-2.3c0-1,0.6-1.7,0.7-1.8c1.5,0.1,3-0.1,3.4-0.2c0.1,0.4,0.3,0.7,0.4,0.9c0,0,0,0,0,0c0,0-0.1,0.9,0.1,2.1
				c0.2,1,0.5,1.9,0.6,2.2l-0.4,0.2c0,0-1.1,0.3-1.4,0.3c-0.3,0-1.4,0.3-1.4,1c0,0.2,0,0.3,0,0.5c0,0.3,0,0.5,0.2,0.6
				c0.1,0.1,0.2,0.2,0.3,0.2c-0.2,0.1-0.3,0.2-0.4,0.3c-0.2,0.2-0.5,0.6-0.6,0.9c-0.3-0.2-0.7-0.5-0.8-0.5c0,0-0.1,0-0.2,0
				c-0.1,0-0.2,0-0.3,0c0,0,0,0,0,0c-0.3-0.8-0.2-1.6-0.1-1.9l0,0c0.1-0.5,0.2-1.2,0.2-1.4C39.6,23.9,39.5,23.6,39.4,23.1z
				 M44.9,23.8L44.5,24c-0.1-0.3-0.4-1.2-0.5-2.1c-0.2-0.8-0.2-1.4-0.2-1.7c0,0,0,0,0,0c0,0.1,0.1,0.1,0.1,0.1
				c0.1,0.2,0.7,1,0.7,1.1c0.2,0.5,0.4,1.1,0.4,1.1c0,0,0,0.1-0.1,0.1c-0.1,0.1-0.2,0.4-0.2,0.6C44.8,23.5,44.8,23.7,44.9,23.8z
				 M49.6,16.2c0,0.1,0.1,0.1,0.1,0.1c-0.1,0.1-0.3,0.1-0.3,0.1l-0.1-0.1c-0.1,0-0.1,0-0.2,0c0,0.1,0,0.1,0,0.2l0.1,0.1
				c0.2,0.1,0.5-0.1,0.6-0.1c0.1-0.1,0.1-0.2,0-0.3l0,0c0.1,0,0.6,0.1,0.6,0.1c0,0,0.2,0,0.4,0.1c0,0-0.1,0-0.1,0l-0.5,0.1
				c0,0-0.1,0-0.1,0.1c0,0,0,0.1,0,0.1l0.2,0.3c0,0,0,0.1,0,0.1c0,0.1-0.1,0.2-0.2,0.2c0,0-0.1,0.1-0.1,0.1c0.1,0.4-0.2,0.5-0.2,0.6
				c-0.4,0.3-0.9,0-1.2-0.1l-0.1,0c-0.1,0-0.2-0.1-0.2-0.1c-0.2-0.1-0.2-0.2-0.2-0.5c0-0.1,0-0.1,0-0.2c0-0.3,0.1-0.6,0.2-0.7
				c0-0.1,0.3-0.2,0.4-0.2L49.6,16.2z M49.1,15.8l-0.2,0c0,0,0,0-0.1,0c-0.1,0-0.5,0.2-0.6,0.3c-0.1,0.1-0.3,0.4-0.2,0.8
				c0,0.1,0,0.1,0,0.2c0,0.2,0,0.5,0.2,0.7c-0.3,0-0.6,0-0.7,0c-1-0.1-1.3-0.9-1.3-1c-0.1-0.1,0-0.4,0-0.6l0.6-0.3
				c0,0,1-0.4,1.6-0.6c0,0,0,0,0,0c0,0,0,0,0,0C48.7,15.4,49,15.7,49.1,15.8z M48.6,14.3c0,0.1-0.1,0.1-0.2,0.2l-0.6,0.4
				c-0.1,0-0.1,0.1,0,0.2c0,0.1,0.1,0.1,0.2,0l0.6-0.4c0,0,0.1,0,0.1-0.1c0,0.1,0,0.3,0,0.3c0,0-0.1,0.1-0.3,0.2
				c-0.6,0.2-1.6,0.6-1.6,0.6l-1.4,0.7c0.3-0.3,0.5-0.9,0.6-1.3c0-0.1,0.1-0.2,0.1-0.2c0.1-0.3,0.2-0.3,0.4-0.4c0,0,0.1,0,0.1-0.1
				c0.2-0.1,0.4-0.3,0.6-0.6c0,0,0.1,0,0.1,0l1.6-0.4C48.9,13.5,48.9,14,48.6,14.3z M51.9,11.6c0,0,0,0.1-0.1,0.2
				c-0.1,0.3-0.3,0.9-0.4,1.2c0,0.1,0,0.1,0,0.1c0,0,0,0,0,0c0,0-0.1,0-0.1-0.1c0-0.1-0.1-0.1-0.2,0C51,13.1,51,13.2,51,13.2
				c0,0-0.1,0-0.2,0L50.6,13c0,0-0.1,0-0.2,0c0,0,0,0.1,0,0.2l0.2,0.2c0,0,0,0,0,0c-0.1,0-0.2,0.2-0.3,0.3c0,0.1,0,0.1-0.1,0.1
				c-0.1,0-0.3-0.1-0.5-0.2L49,13.1c0,0,0,0-0.1,0c0,0,0,0,0,0l-1.6,0.4c0.1-0.2,0.2-0.4,0.3-0.6c0.1-0.3,0.1-0.6,0.1-1
				c0,0,0,0.1,0.1,0.1c0.1,0.2,0.3,0.2,0.4,0.1c0.1,0,0.2,0,0.3,0c0.2,0.1,0.8,0,0.9,0c0.3,0,0.5-0.2,0.7-0.3c0,0,0.1-0.1,0.1-0.1
				c0.1,0,0.1-0.1,0.2-0.1c0.1-0.1,0.2-0.1,0.2-0.2c0.1,0,0.2,0,0.4-0.2c0.1-0.1,0.1-0.3,0.2-0.4l0.3,0.2c0.3,0.2,0.4,0.2,0.5,0.2
				c0,0,0.1,0,0.1,0C52,11.5,51.9,11.6,51.9,11.6z M46.8,10.1c0,0,0.2,0,0.2,0c0.1,0,0.1-0.1,0.1-0.2c0-0.2,0.5-0.4,1-0.4
				c0.1,0,0.1-0.1,0.1-0.1c0-0.1,0-0.2,0.1-0.2C48.6,8.9,49.5,9,49.8,9c0,0,0,0,0,0c0.8-0.1,1.6,0.5,1.6,0.5c0,0,0.1,0,0.1,0
				c0.6-0.1,0.9,0.6,0.9,0.6c0,0,0,0.1,0.1,0.1c0.4,0.1,0.4,0.6,0.3,1l0,0.1c0,0.1,0,0.1-0.2,0.2c-0.1,0-0.2,0-0.3-0.1
				c-0.1,0-0.2-0.1-0.2-0.1c-0.1,0-0.2-0.1-0.4-0.2l-0.5-0.3c0,0-0.1,0-0.1,0c0,0-0.1,0.1-0.1,0.1c0,0.1,0,0.3-0.1,0.4
				c-0.1,0.1-0.1,0.1-0.2,0.1c-0.1,0-0.2,0.1-0.4,0.2c-0.1,0-0.1,0.1-0.2,0.1c0,0-0.1,0.1-0.1,0.1c-0.1,0.1-0.3,0.2-0.6,0.2
				C49,12,48.7,12.1,48.6,12c-0.1,0-0.1,0-0.2,0c-0.1,0-0.1,0-0.2,0c-0.1,0-0.2,0-0.2,0c-0.1-0.2-0.2-0.3-0.4-0.4c0,0,0-0.1,0-0.1
				c-0.1-0.3-0.3-0.5-0.6-0.7c-0.1-0.1-0.2-0.1-0.3-0.2c0,0,0,0,0,0C46.5,10.3,46.8,10.1,46.8,10.1z M45.3,10.4
				C45.4,10.4,45.4,10.4,45.3,10.4c0.3,0,0.7,0.1,1.1,0.2c0.1,0.1,0.2,0.1,0.4,0.2c0.2,0.2,0.4,0.4,0.5,0.6c0.2,0.4,0.2,0.9,0.1,1.3
				c-0.1,0.2-0.2,0.5-0.4,0.7c-0.2,0.3-0.4,0.5-0.6,0.6c0,0-0.1,0-0.1,0.1c-0.2,0.1-0.4,0.2-0.6,0.6c0,0.1,0,0.2-0.1,0.2
				c-0.1,0.4-0.3,1-0.6,1.3c0,0-0.1,0.1-0.1,0.3c0,0.1,0,0.1,0.1,0.2c0,0.1,0.1,0.1,0.1,0.2c0.2,0.4,0.5,1.2,0.5,1.8
				c0,0.8,0.2,1.5,0.3,2c0.1,0.3,0.5,1.3,0.7,1.3c0.1,0,0.4,0.1,0.4,0.2c0.1,0.1,0.5,0.3,0.6,0.3c0.1,0,0.1,0.1,0.1,0.1
				c0,0,0,0-0.1,0c-0.3,0.1-0.6,0-0.6,0c-0.1-0.1-0.2-0.1-0.3-0.1c-0.1,0-0.1,0.1-0.2,0.1c0,0,0,0-0.1,0c0,0,0,0-0.1,0
				c-0.1,0-0.2,0.1-0.3,0.2c0,0,0,0,0,0c0,0,0,0,0,0c0,0,0,0,0,0c0,0.1-0.1,0.2-0.1,0.3c0,0.1-0.1,0.4-0.1,0.5l0,0.1
				c0,0,0,0.2,0,0.2c-0.1,0.1-0.2,0.1-0.3,0.1c-0.1,0-0.3,0-0.3,0c-0.1,0-0.1-0.1-0.2-0.2c-0.1-0.1-0.1-0.1-0.2-0.2c0,0,0,0-0.1-0.1
				c-0.1-0.1-0.2-0.3-0.1-0.6c0-0.2,0.1-0.4,0.2-0.6c0-0.1,0.1-0.2,0.1-0.2c0,0,0-0.1-0.4-1.2c0,0,0,0,0,0c-0.2-0.2-0.6-0.9-0.7-1.1
				c0,0,0-0.1-0.1-0.1c-0.1-0.2-0.4-0.6-0.6-1.3c-0.1-0.3-0.2-0.7-0.2-1.1c0,0-0.1-0.3-0.1-0.7c0-0.1,0-0.2,0-0.3
				c0.1-0.5,0.1-1.2,0.1-1.5c0-0.1,0-0.2,0-0.2c0,0,0-0.1,0-0.2c0-0.3,0.1-0.9,0.3-1.3c0.2-0.5,1-1.8,1-1.8c0-0.1,0-0.1,0-0.2
				c0,0,0,0-0.1,0c0,0-0.1,0-0.1,0.1c0,0.1-0.8,1.3-1,1.9c-0.2,0.4-0.2,1-0.3,1.3c0,0,0,0,0,0c-0.5,0.2-1.1-0.4-1.6-1
				c-0.5-0.6-0.2-1.1,0.6-2C42.9,10.6,45.1,10.5,45.3,10.4z M39.2,13.3c0-0.1,0-0.2,0.1-0.3c0.1-0.4,0.4-0.6,0.7-0.8
				c0,0,0.1-0.1,0.1-0.1c0.2-0.1,0.3-0.3,0.5-0.6c0.2-0.2,0.3-0.4,0.5-0.5c0.3-0.2,1-0.3,1.7-0.5l0.3-0.1c0.2-0.1,0.6-0.1,0.9-0.1
				c0.1,0,0.1,0,0.2,0c-0.8,0.1-1.8,0.4-2.2,0.9c-0.7,0.8-1.3,1.5-0.6,2.3c0.5,0.6,1.1,1.3,1.7,1.1c0,0,0,0.1,0,0.1c0,0,0,0.1,0,0.3
				c0,0.3,0,1-0.1,1.5c0,0.1,0,0.2,0,0.3c0,0,0,0,0,0l-0.1,0c0,0,0,0,0,0l-1-0.3c-0.1,0-0.2-0.1-0.4-0.1c-0.5-0.2-0.8-0.3-1-0.3
				c-0.2,0-0.7-0.2-0.9-0.3c-0.2-0.1-0.6-0.8-0.6-0.9C39,14.6,39.1,13.8,39.2,13.3z M37,16.7c0-0.1-0.1-0.1-0.1-0.1
				c-0.1-0.1-0.2-0.3-0.2-0.6c0-0.1,0-0.2,0-0.2c0.2-0.2,0.7-0.8,0.7-0.8c0.6-1.1,1.2-1.5,1.5-1.6c-0.1,0.6-0.1,1.2-0.2,1.3
				c0,0.2,0.5,1,0.7,1.1c0.2,0.2,0.8,0.4,1,0.4c0.1,0,0.6,0.2,0.9,0.3c0.2,0.1,0.3,0.1,0.4,0.1l0.9,0.3c-0.3,0.2-0.7,0.5-1.1,0.7
				c-0.5,0.4-1,0-1.4-0.3c-0.1,0-0.1-0.1-0.2-0.1c-0.1-0.1-0.3-0.1-0.5-0.1c-0.3,0-0.6,0.1-0.9,0.1c-0.2,0-0.4,0.1-0.5,0.1
				c-0.3,0-0.6-0.1-0.9-0.4C37.1,16.9,37,16.8,37,16.7z M37.1,17.2c0.3,0.3,0.7,0.4,1,0.4c0.2,0,0.4-0.1,0.5-0.1
				c0.5-0.1,1-0.2,1.2,0c0,0,0.1,0.1,0.2,0.1c0.4,0.3,1,0.8,1.7,0.3c0.5-0.3,1-0.7,1.2-0.8l0,0c0,0.4,0.1,0.6,0.1,0.6c0,0,0,0,0,0
				c0,0.4,0.1,0.7,0.2,1c-0.4,0.1-1.9,0.2-3.4,0.1c-0.5,0-1-0.1-1.4-0.2c-0.3,0-0.5-0.1-0.7-0.2c-0.1,0-0.2-0.1-0.3-0.1
				C37,17.7,37.1,17.4,37.1,17.2z M35.4,26.4C35.4,26.4,35.3,26.4,35.4,26.4l-0.7-0.5c-0.2-0.2-0.1-0.4-0.1-0.5c0,0,1-1.1,1.5-2.1
				c0.2-0.8,0.3-2.6,0.3-2.7c0.2-1.6,0.8-2,0.9-2.1c0.1,0,0.1,0,0.2,0.1c-0.2,0.3-0.8,1.1-0.8,2.3l-0.3,3.3c0,0,0,0,0,0
				c0,0,0,0.1-0.2,0.6c0,0-0.3,0.6-0.4,0.9c-0.1,0.2-0.1,0.3-0.1,0.3C35.6,26.2,35.4,26.4,35.4,26.4z M36.5,26.9
				c-0.3-0.1-0.9-0.2-0.9-0.3c0,0,0,0,0,0c0.1-0.1,0.3-0.3,0.3-0.4c0,0,0-0.1,0.2-0.3c0.2-0.3,0.4-0.9,0.4-0.9
				c0.1-0.3,0.2-0.6,0.2-0.7l0.3-3.3c0-1.3,0.8-2.1,0.9-2.2c0.1,0,0.3,0.1,0.5,0.1c-0.3,0.3-0.9,1-0.9,2.4c0,0.3,0,0.6,0,1
				c0,1.4,0.1,3-0.4,4c0,0.1-0.1,0.2-0.1,0.2C36.7,26.5,36.5,26.7,36.5,26.9z M38,27.5c-0.1,0-0.2-0.1-0.2-0.2
				C37.5,27,37.3,27,36.9,27c-0.1,0-0.1,0-0.2,0c0,0-0.1,0-0.1,0c0,0,0.1-0.2,0.2-0.4c0.1-0.1,0.1-0.2,0.2-0.3
				c0.6-1,0.5-2.6,0.5-4.1c0-0.3,0-0.7,0-1c0-1.6,1-2.3,1-2.3c0,0,0,0,0,0c0.3,0.1,0.7,0.1,1.1,0.1c-0.2,0.3-0.6,0.9-0.6,1.8
				c0,0.7,0.1,1.7,0.2,2.3c0.1,0.4,0.1,0.8,0.1,0.9c0,0.2-0.1,0.8-0.2,1.4l0,0c-0.1,0.4-0.2,1.1,0.1,2c-0.1,0-0.2,0-0.3,0
				c0,0,0,0,0,0c0,0,0,0-0.1,0c0,0,0,0,0,0C38.3,27.6,38,27.5,38,27.5z M39.1,29.7C39,29.8,39,29.8,39.1,29.7
				c-0.2,0.2-0.6,0.4-0.7,0.5c-0.3,0-0.4-0.1-0.6-0.2c-0.2-0.3-0.2-0.8-0.1-1.2c0-0.1,0-0.2,0-0.2c0-0.4,0.7-0.8,1-0.9
				c0,0,0,0,0.1,0c0.1,0,0.4,0,0.5,0c0.1,0,0.2,0,0.3,0c0.1,0,0.2,0,0.2,0c0.1,0,0.5,0.3,0.8,0.5c0,0,0,0,0,0c0,0.3,0.1,0.5,0.3,0.6
				c-0.1,0-0.3,0-0.4,0c-0.1,0-0.1,0-0.2,0c0,0,0,0,0,0C40.1,29,39.2,29.5,39.1,29.7z M39.3,29.9C39.3,29.9,39.3,29.8,39.3,29.9
				c0.2-0.3,0.9-0.7,1-0.7c0,0,0.1,0,0.2,0c0.2,0,0.4,0,0.7,0c0.4,0,0.4,0.1,0.4,0.1c0.1,0.1,0.1,0.3,0.2,0.5
				c0.1,0.2,0.1,0.4,0.2,0.4c0.1,0.1,0.8,0.6,0.8,0.6l0.1-0.2c0,0-0.7-0.6-0.8-0.6c0,0-0.1-0.2-0.1-0.3c-0.1-0.2-0.1-0.5-0.2-0.6
				c-0.1-0.1-0.2-0.1-0.5-0.2c0,0,0,0,0,0c0,0-0.4-0.3-0.4-0.6c0,0,0-0.1,0-0.1c0.1-0.3,0.3-0.6,0.6-1c0.1-0.1,0.2-0.2,0.5-0.4
				c0.3-0.2,0.6-0.4,0.7-0.4c0.5,0.5,1.6,1.6,2.1,2c0,0,0,0,0,0c-0.1,0.5-0.2,1-0.2,1.6l0,0.2c0,0.4,0,0.8,0.1,1.2
				c-0.6,0.5-1.5,0.4-2.5,0.3c-0.1,0-0.2,0-0.4,0c-1-0.1-1.8-0.6-2.1-0.9c0,0-0.1-0.1-0.1-0.1C39.4,30.5,39.3,29.9,39.3,29.9z
				 M49.9,35.3c0-0.1,0-0.1,0.1-0.2c0.1,0.1,0.2,0.3,0.4,0.6c0.2,0.3,0.1,1,0.1,1.3c0,0.1,0,0.1,0,0.2c0,0.1-0.1,0.2-0.2,0.4
				c-0.1,0.1-0.2,0.2-0.4,0.4c-0.4,0.4-1.4,0.2-1.7,0.1c-0.4-0.1-1.4-0.3-2-0.4c-0.4,0-1.2-0.5-1.6-0.7c-0.1-0.1-0.3-0.1-0.3-0.2
				c-0.3-0.1-1.6-1.2-1.7-1.4c-0.2-0.1-0.5-0.2-0.7-0.3c0,0,0,0,0,0c-0.1,0-0.3,0.1-1.3,0.7c-0.1,0.1-0.2,0.2-0.3,0.3
				c-0.1,0.1,0,0.2,0,0.3l0,0c0.1,0.1,0.2,0.2,0.3,0.2c0,0,0,0,0.1,0c0.1,0,0.2,0.1,0.3,0.1c0,0.1-0.1,0.2-0.1,0.2
				c-0.1,0-0.1,0.2-0.1,0.2l0,0c0,0-0.1,0-0.1,0c0,0-0.1,0-0.1,0c0,0-0.1,0-0.1,0c0,0,0,0,0,0c0,0-0.2,0-0.2,0c0,0-0.1-0.1-0.1-0.1
				c0,0,0-0.1-0.1-0.3c-0.1-0.2-0.4-0.7-0.4-0.8c0-0.1,0.3-0.9,0.5-1.5c0.2-0.4,0.2-0.8,0.2-1l0-0.1c0-0.1,0.1-0.2,0.1-0.3
				c0.2,0.2,0.4,0.4,0.6,0.6c0.6,0.6,1.3,1.2,2.1,1.5c1.1,0.5,3.4,1.4,3.6,1.5c0.1,0,0.1,0.1,0.3,0.1c0.6,0.2,1.3,0.6,1.4,0.7
				c0,0,0.1,0,0.2,0c0,0,0-0.1,0-0.2c-0.1-0.1-0.5-0.3-0.9-0.5c0,0,0.1,0,0.1,0c1.7,0,2-0.7,2.3-1.4C49.8,35.5,49.9,35.4,49.9,35.3z
				 M49.6,33.8c0,0,0,0.1,0.1,0.1c0.1,0.2,0.3,0.5,0.2,0.9c0,0,0,0.1,0,0.1c0,0.1-0.1,0.2-0.1,0.3c0,0.1-0.1,0.2-0.1,0.3
				c-0.3,0.7-0.6,1.3-2.3,1.3l-0.5,0c0,0,0,0,0,0c0,0,0,0,0,0c-0.1,0-0.2-0.1-0.2-0.1c-0.2-0.1-2.6-1-3.6-1.5
				c-0.8-0.4-1.4-0.9-2-1.5c-0.2-0.2-0.4-0.4-0.7-0.6c0,0,0,0-0.1,0c-0.6-0.6-0.6-1.4-0.5-1.8c0.4,0.3,1.2,0.8,2.1,0.8
				c0.1,0,0.2,0,0.4,0c0.9,0.1,1.9,0.1,2.5-0.3c0.1,0.8,0.2,1.3,0.5,1.5c0,0,0.4,0.3,0.4,0.3c0,0,0.1,0,0.1,0.1
				c0.1,0,0.2,0.2,0.3,0.2c0,0.1,0.1,0.2,0.1,0.2c0,0-0.1,0-0.1,0.1c-0.1,0.1-0.1,0.1-0.2,0.1c0,0-0.1,0.2,0,0.3
				c0,0.1,0.1,0.1,0.1,0.1c0.1,0,0.2,0.1,0.3-0.1c0-0.1,0.1-0.1,0.2-0.1c0,0,0.3-0.1,0.4-0.3l0.4,0.8c0,0,0,0,0.1,0.1
				c0.1,0.1,0.2,0.1,0.3,0c0,0,0.2-0.1,0.1-0.3c0-0.1-0.1-0.4-0.1-0.4l-0.1-0.4l0.4,0.6c0,0.1,0.2,0.2,0.4,0.1
				c0.1,0,0.3-0.1,0.2-0.4c-0.1-0.2-0.2-0.6-0.2-0.6c0,0-0.1-0.2-0.2-0.3l0.7,0.4c0,0,0,0,0.1,0c0,0,0.2,0,0.2-0.1
				c0.1-0.1,0-0.2-0.1-0.3c0-0.1-0.5-0.7-0.6-0.7c0,0-0.2-0.2-0.3-0.2c0,0-0.1-0.1-0.1-0.1c0,0-0.1-0.1-0.4-0.4
				c-0.1-0.1-0.5-0.3-0.7-0.4l-0.1,0c-0.1,0-0.4-0.1-0.3-0.2c0-0.2,0.3-0.8,0.5-1.3l0.3-0.7c0,0,0-0.1,0.1-0.2
				c0.1,0.1,0.4,0.4,1,0.4c0.1,0.3,0.5,1,0.5,1.3c0,0.2,0.2,0.8,0.5,1.8C49.5,33.4,49.6,33.8,49.6,33.8z M49.2,31.9
				c-0.1-0.4-0.2-0.6-0.2-0.7c0-0.3-0.4-1-0.5-1.3c0.8-0.2,1.4-0.6,1.7-1c0,0,0,0,0,0c0.4-0.1,0.7-0.3,0.9-0.5
				c-0.1,0.3-0.1,0.7-0.3,1.3c0,0-0.2,0.5-0.4,0.9C50.3,30.8,49.6,31.5,49.2,31.9z M50,31.4c0.3-0.3,0.5-0.6,0.6-0.8
				c0.1-0.1,0.1-0.3,0.2-0.4c0,0.7,0.1,1.7,0.1,2.1C50.6,32,50.3,31.7,50,31.4z M55.5,32.1c0,0.1,0,0.1,0,0.2c0,0.1,0,0.3,0,0.5
				c-0.4-0.1-0.8,0-1.1,0.2c-0.2,0.1-0.4,0.2-0.6,0.3c-0.5,0.2-1,0.2-1.3,0.2c0.2-0.5,0.7-1.9,0.8-3.1c0,0,0.1-0.7,0.1-1.7
				c0-0.1,0-0.1-0.1-0.1c0,0,0,0,0,0c-0.1,0-0.1,0-0.1,0.1c-0.1,1-0.1,1.7-0.1,1.7c-0.1,1.2-0.7,2.7-0.8,3.1
				c-0.3-0.1-0.7-0.5-1.2-0.9c0,0,0,0,0,0c0-0.7-0.2-2.6-0.1-2.9c0,0,0,0,0,0c0.2-0.5,0.3-0.9,0.3-1.3c0-0.2,0.1-0.3,0.1-0.4
				c0,0,0,0,0,0c0.2-0.5,0.3-1,0.3-1.1c0-0.1,0-0.2-0.1-0.5c0,0,0-0.1,0-0.2l0.2-0.2c0,0,0,0,0,0c0.1,0.1,0.1,0.2,0.2,0.3
				c0.2,0.2,0.8,0.5,1.3,0.4c0.1,0,0.2-0.1,0.2-0.1c0,0,0,0,0.1,0c0.1,0,0.1,0,0.2-0.1c0,0,0.1-0.1,0.1-0.1c0.1,0,0.2-0.2,0.3-0.3
				c0.1,0,0.2,0,0.3-0.1c0.1,0,0.1-0.1,0.1-0.2c0-0.2,0-0.6,0-0.7c0.1-0.1,0.3-0.3,0.4-0.6c0.2,0,0.5,0,0.5-0.1
				c0.2-0.1,0.3-0.1,0.3-0.3c0.1-0.3,0-0.6,0-0.7c-0.1-0.2-0.4-0.4-0.5-0.5c0.1-0.3,0-0.5-0.1-0.6c-0.1-0.2-0.2-0.3-0.5-0.4l0-2.1
				c0,0,0,0,0,0c0.4-0.1,0.8-0.3,1-0.8c0,0,0,0,0,0c0,0,0.2,0,0.4-0.1c0.2-0.1,0.4-0.3,0.4-0.3c0.1-0.1,0.2-0.2,0.2-0.3l1.3,0.6
				c0,0,0,0,0,0c0,0.1,0,0.2,0,0.2c-0.1,0.2,0.1,0.4,0.2,0.5c0,0,0,0,0,0c0,0.2,0,0.4,0,0.7c0,0,0.1,0.4,0.3,0.7c0,0,0,0,0,0
				c0,0.1-0.1,0.3-0.2,0.4c-0.1,0.1-0.8,0.9-0.6,1.4c0.1,0.5,0.4,1.3,0.4,1.3c0,0.1,0.1,0.1,0.1,0.1l0.1,0c-0.1,0.2-0.2,0.5-0.2,0.5
				l0,0c-0.1,0.1-0.4,0.4-0.7,1.2c-0.2-0.1-0.5-0.1-0.9,0.2c-0.3,0.2-0.4,0.3-0.4,0.4c0,0,0,0,0,0c0,0,0,0,0,0c0,0,0,0,0,0s0,0,0,0
				c0,0,0,0,0,0c-0.2-0.4-0.2-0.8,0-1.2c0.3-0.7,1.1-1.1,1.1-1.1c0.1,0,0.1-0.1,0.1-0.1c0-0.1-0.1-0.1-0.1-0.1c0,0-0.4,0.2-0.7,0.5
				c0-0.3,0-0.7-0.1-1.1c0.3-0.9,0.9-2.5,1.2-2.6c0.1,0,0.1-0.1,0.1-0.1c0-0.1-0.1-0.1-0.1-0.1c-0.3,0.1-0.7,1-1,1.8
				c0.1-0.4,0.2-1.1,0.4-1.9c0-0.1,0-0.1-0.1-0.1c-0.1,0-0.1,0-0.1,0.1c-0.2,1-0.5,2.3-0.5,2.6c0,0.4,0.1,1.5,0.1,1.6
				c-0.1,0.1-0.2,0.3-0.3,0.5c-0.2,0.4-0.2,0.9,0.1,1.5c0,0,0,0,0,0c-0.2,0.2-0.2,0.2-0.2,0.3c0,0.1-0.2,0.8-0.2,0.9
				c0,0.1,0,0.2,0,0.2c-0.1,0-0.2,0.1-0.2,0.1C55,28,54.9,28,54.9,28c-0.1,0-0.2,0-0.3,0.1c0,0,0,0.1,0,0.2c0,0,0,0,0,0
				c-0.1,0-0.2,0.1-0.2,0.2c0,0.1,0.1,0.2,0.2,0.3l0.3,0.3c0,0,0.3,0.3,0.5,0.3c0.1,0,0.4,0,0.6-0.1c0,0.1,0,0.1,0,0.1
				c0,0.1-0.2,0.5-0.2,0.7c0,0.1,0.1,0.3,0.3,0.3c0.1,0,0.2,0,0.3-0.2l0-0.1c-0.1,0.3-0.2,0.6-0.2,0.7c-0.1,0.2-0.2,0.3-0.2,0.4
				C55.7,31.5,55.5,31.8,55.5,32.1z M56.7,27.6c-0.1,0-0.1,0-0.1,0.1c0,0,0,0.1,0,0.1c-0.1,0.1-0.1,0.2-0.1,0.4
				c0,0.1-0.1,0.2-0.1,0.2c0,0-0.1,0-0.1-0.1c0-0.1,0-0.2,0-0.3c0,0,0,0,0-0.1c0-0.1,0-0.1-0.1-0.1c-0.1,0-0.1,0-0.1,0.1l0,0.1
				c0,0.1,0,0.2,0,0.4c0,0.1,0.1,0.2,0.1,0.3c0,0,0,0.2,0,0.3c0,0,0,0,0,0c-0.1,0.2-0.4,0.2-0.5,0.2c-0.1,0-0.3-0.2-0.4-0.3
				l-0.3-0.3c0,0,0,0-0.1-0.1c0,0,0,0,0,0c0.1,0,0.1-0.1,0.2-0.1c0,0,0-0.1,0-0.1c0,0,0,0,0.1,0c0,0,0.1,0.1,0.3,0.4
				c0,0.1,0.1,0.1,0.5-0.2c0.1-0.1,0.1-0.4,0.1-0.4c0-0.1,0.1-0.7,0.2-0.8c0-0.1,0-0.1,0.2-0.3l0.1-0.2c0,0,0.1-0.1,0.4-0.4
				c0.3-0.3,0.6-0.2,0.7-0.1c-0.2,0.5-0.3,1.1-0.4,1.8c0,0-0.2,0.6-0.4,1.3c0,0,0,0,0,0l-0.2,0.4L56.1,30c0,0.1-0.1,0.1-0.1,0.1
				c0,0-0.1-0.1-0.1-0.2c0-0.1,0.1-0.4,0.2-0.5c0,0,0.1-0.1,0.1-0.5c0-0.1,0-0.3,0.1-0.4c0.1,0,0.3-0.1,0.3-0.4
				c0-0.2,0.1-0.3,0.1-0.3c0,0,0-0.1,0.1-0.1C56.8,27.7,56.8,27.7,56.7,27.6z M55.7,39.3l-3.2-1.1l0-0.7l3.2,1L55.7,39.3z
				 M62.1,37.5l-6.2,1.8l0-0.7l6.2-1.8V37.5z M58.1,37.3c0.1,0,0.1-0.1,0.1-0.1l-0.1-1l0.5-0.1l3.2,0.7l-5.9,1.7l-3-1l3-0.7l-0.2,1
				c0,0.1,0,0.1,0.1,0.1c0.1,0,0.1,0,0.1-0.1l0.4-1.1l1.3-0.3l0.3,0.9C58,37.3,58.1,37.3,58.1,37.3z M56.4,36.4l0.6-1.6l0.5,1.4
				L56.4,36.4z M57.8,36L57.8,36l-0.6-1.7c0,0-0.1-0.1-0.1-0.1c0,0,0,0,0,0c0,0-0.1,0-0.1,0.1l-0.8,2l0,0l0.2-1.4c0,0,0,0,0,0
				c0.1-0.2,0.1-0.3,0.2-0.5c0.1-0.3,0.2-0.9,0.4-1.2c0.1-0.2,0.3-0.2,0.4-0.3l0,0.3L57.8,36z M59.6,27.6c-0.5,1-1.2,1.9-1.6,2.4
				c-0.3,0.4-0.4,0.5-0.4,0.6c-0.1,0.3-0.1,0.5,0.1,1.5c0.1,0.4,0,0.7-0.1,0.9l0-0.2c0-0.1-0.1-0.1-0.1-0.1c0,0-0.5,0-0.7,0.4
				c-0.2,0.3-0.4,1.1-0.5,1.3c0,0.1-0.1,0.2-0.1,0.4c0,0,0,0,0,0c0,0-0.1-0.2,0-0.2L56,33.1c0,0,0-0.1,0-0.1c-0.1,0-0.1-0.1-0.2-0.2
				c0,0,0,0,0,0c0,0,0,0,0-0.1c-0.1-0.2-0.1-0.4,0-0.6c0-0.1,0-0.1,0-0.2c0-0.2,0.1-0.4,0.3-0.7c0.1-0.1,0.2-0.3,0.2-0.5
				c0.1-0.2,0.2-0.7,0.5-1.4c0.2-0.7,0.4-1.4,0.4-1.4c0.1-0.8,0.2-1.4,0.4-1.9c0.3-0.8,0.6-1.1,0.7-1.2l0,0c0.1-0.1,0.3-0.6,0.3-0.7
				c0,0,0,0,0,0l2.1-0.3c0,0,0.1,0,0.3-0.1l-0.6,1.4c0,0,0,0,0,0.1c0,0.5-0.1,1.1-0.5,1.8C59.8,27.3,59.7,27.5,59.6,27.6z
				 M61.8,29.3c0,0-0.9,1.3-1,1.5c-0.1,0.2-0.1,0.6-0.1,0.8c0,0.1,0,0.3-0.1,0.4c-0.1,0.3,0.1,0.6,0.3,0.8c0.1,0.1,0.1,0.1,0.2,0.2
				c0.1,0.1,0.2,0.2,0.2,0.2c0,0.1-0.1,0.3-0.4,0.4c-0.2,0.1-0.9,0.1-1.4,0.1c-0.1,0-0.2-0.1-0.2-0.1c-0.1-0.1-0.1-0.3-0.1-0.3
				c0,0,0.2-0.7,0.3-0.8c0.1-0.1,0-0.5,0-0.7c0-0.2,0.2-0.6,0.4-0.9c0.2-0.3,0.2-0.8,0.2-1.2l0,0c0-0.1,0-1.5,0-2.3
				c0.8-0.2,1.5-0.3,2.3-0.4C62.2,28.7,61.8,29.3,61.8,29.3z M62.6,33.4l-0.2-0.9c-0.5-1.4-0.1-2.3,0.1-2.7c0,0,0-0.1,0-0.1
				c0.1-0.3,0.8-1.7,0.8-1.7l0.4-0.9l0.1-0.5c0.1-0.5,0.3-1.4,0.3-1.7c0-0.4-0.2-1.1-0.3-1.4c-0.1-0.3-0.1-0.5,0-0.7
				c0-0.1,0.1-0.5,0.2-0.9c0.1-0.3,0.1-0.5,0.2-0.7l1.4-0.1c0,0,0.5-0.1,0.8-0.2c0.1,0,0.1-0.1,0-0.2c0-0.1-0.1-0.1-0.2,0
				c-0.3,0.2-0.7,0.2-0.7,0.2l-2,0.1c-0.1,0-0.1,0.1-0.1,0.1c0,0.1,0.1,0.1,0.1,0.1c0,0,0,0,0,0l0.4,0c0,0.1-0.1,0.4-0.1,0.6
				c-0.1,0.4-0.2,0.8-0.2,0.9c0,0.2-0.1,0.5,0.1,0.8c0.1,0.3,0.3,1,0.3,1.3c0,0.3-0.2,1.2-0.3,1.7l0,0.2c-0.2,0-0.6,0-1.1,0.1
				c-0.8,0.1-1.5,0.2-2.3,0.4c0.3-0.7,0.4-1.3,0.4-1.7l0.7-1.5c0,0,0,0,0-0.1c0.2-0.1,0.3-0.2,0.5-0.3c0.3-0.3,1-1.5,1-1.6
				c0,0,0,0,0,0c0.1-0.1,0.1-0.2,0.2-0.3c0,0,0,0,0-0.1c0,0,0,0,0,0c0-0.1,0-0.1,0.1-0.2c0.1-0.2,0.2-0.5,0.4-0.8c0,0,0.1,0,0.1-0.1
				c0.1,0,0.2-0.1,0.2-0.1c0.8-0.3,1.1-1.3,1.1-1.4c0,0,0,0,0-0.1c0.4,0.5,1.5,1.6,2.6,1.9c-1,1.3-1.8,2.6-2.4,3.9
				c-0.1-0.8,0-1.3,0-1.4c0-0.1,0-0.1-0.1-0.1c0,0,0,0,0,0c-0.1,0-0.1,0-0.1,0.1c0,0,0,0.7,0.1,1.7c0,0,0,0,0,0
				c-1.4,3.4-1.7,6.3-1.7,6.4c0,0,0,0,0,0c0,0.1,0,0.1,0,0.2c0.1,0.3,0.4,0.5,0.9,0.7c0,0,0,0,0,0c0,0,0,0,0,0
				c-0.1,0.3-0.1,0.5-0.2,0.6c-0.3,0.7-0.5,1.1-0.5,1.4c0,0.1,0,0.2-0.1,0.4c0,0,0,0,0,0C63.2,34.7,63,34.7,62.6,33.4z M63.9,31
				c0.1-0.1,0.4-0.3,0.7-0.5c0,0.3-0.1,1.1-0.3,1.8c0,0,0,0,0,0c-0.5-0.1-0.7-0.3-0.8-0.5c0,0,0-0.1,0-0.1
				C63.6,31.3,63.8,31.1,63.9,31z M65.9,36.2c0,0.1-0.2,0.3-0.4,0.5c0,0-0.1,0.1-0.2,0.1c-0.1,0-0.2,0.1-0.2,0.1c-0.1,0-0.2,0-0.4,0
				l-0.1,0c-0.1,0-0.4-0.1-0.5-0.1c0,0,0,0,0,0c0,0,0,0,0,0c0,0-0.3,0.1-0.6,0c-0.1,0-0.2-0.2-0.2-0.5l0,0c0-0.1,0-0.2,0-0.3
				c0-0.2,0.1-0.3,0.2-0.4l0-0.1c0.1-0.2,0.3-0.8,0.3-1.1c0-0.2,0.2-0.8,0.4-1.3c0.3-0.6,0.5-2.7,0.5-2.8c0,0,0,0,0,0
				c1.2-1,2.7-2.2,3-2.7c0.1-0.1,0.1-0.1,0.2-0.2c0,2.1-1.7,4.9-2.4,5.9c-0.1,0.2-0.2,0.4-0.3,0.4c-0.2,0.3-0.1,0.9,0,1.3
				c0,0.1,0.1,0.2,0.1,0.2c0,0,0,0,0,0C65.7,35.6,65.9,36.1,65.9,36.2z M69.8,35.2c-0.2,0-0.3,0-0.4,0c-0.1,0-0.3,0-0.5,0
				c-0.2,0-0.5,0-0.7,0c0,0,0,0,0,0c-0.7-0.2-1.7-1.2-1.7-1.2c0,0-0.1-0.1-0.2,0c0,0-0.1,0.1,0,0.2c0,0,0.6,0.7,1.2,1.1
				c-1.7-0.1-2-0.1-2-0.2c0,0,0,0-0.1,0c-0.1-0.5-0.1-0.9,0-1.1c0-0.1,0.1-0.2,0.3-0.4c0.4-0.6,1.1-1.8,1.7-3.1
				c0.4,0.4,0.8,0.9,1.2,1.3c0,0,0,0,0,0.1c0.1,2.3,1.1,3.2,1.7,3.5C70.2,35.2,70,35.2,69.8,35.2z M71,35.1
				C70.9,35.1,70.9,35.1,71,35.1c-0.1,0-1.9-0.4-2-3.4C69.6,32.5,70,33,70,33c0,0,0.1,0,0.1,0c0,0,0.1,0,0.1,0c0,0,0-0.1,0-0.2
				c0,0-1.3-1.4-2.5-2.7c0,0,0,0,0,0c0.4-1,0.7-2,0.6-2.8c0.6-0.4,1.4-0.3,1.4-0.3c0.1,0,0.1,0,0.1-0.1c0-0.1,0-0.1-0.1-0.1
				c0,0-0.9-0.1-1.6,0.3c-0.2,0.1-0.3,0.2-0.4,0.4c-0.3,0.4-1.4,1.4-3.1,2.7c-0.4,0.3-0.6,0.5-0.8,0.7c0,0-0.1,0.1-0.1,0.1
				c0,0,0,0-0.1,0.1c0.2-1.5,1-6.3,4.2-10.2c0.2,0,0.4,0,0.5,0l-0.8,3.2c0,0.1,0,0.1,0.1,0.1c0.1,0,0.1,0,0.1-0.1l0.8-3.3
				c0,0,0,0,0,0c0.2-0.1,0.5-0.2,0.7-0.3c0.1,0,0.2-0.1,0.3-0.2c0.4-0.3,1.1-0.7,1.3-1l1-0.8c0,0,0.2-0.2,0.4-0.4
				c0.4,1,0.7,2.4,0.9,4.6c0.4,3.3-0.3,6.3-0.7,8.1c0-0.5-0.1-1.1-0.1-1.7c-0.1-1.6-0.3-3.7-0.1-4.6c0.3-1.6,0-3,0-3.1
				c0-0.1-0.1-0.1-0.1-0.1c-0.1,0-0.1,0.1-0.1,0.1c0,0,0.3,1.4,0,3c-0.2,0.9,0,2.9,0.1,4.7c0.1,1.2,0.1,2.2,0.1,2.6c0,0,0,0,0,0
				c0,0,0,0,0,0c-0.3,1.1,0,2.8,0.6,3.3C72.4,35,71.6,35.1,71,35.1z"/>
			<path class="st0" d="M59.2,11.7c-0.1,0-0.1,0-0.1,0c0,0,0,0-0.1-0.1c-0.1,0-0.1,0-0.1,0.1c0,0,0,0.1,0,0.1c0,0.1,0.1,0.1,0.3,0.1
				c0,0,0,0,0,0c0.1,0,0.1,0,0.1-0.1C59.3,11.8,59.2,11.7,59.2,11.7z"/>
			<path class="st0" d="M59.1,12.1c-0.2,0-0.3-0.1-0.3-0.1c0,0-0.1,0-0.2,0c0,0,0,0.1,0,0.2c0,0,0.2,0.1,0.4,0.2c0,0,0,0,0,0
				c0.1,0,0.1,0,0.1-0.1C59.2,12.2,59.2,12.1,59.1,12.1z"/>
			<path class="st0" d="M53.7,16C53.7,16,53.7,16,53.7,16c0.1-0.1,0.2-0.2,0.3-0.3c0,0,0,0,0,0l0,0.1c0,0.1,0.1,0.1,0.2,0
				c0.1,0,0.1-0.1,0-0.2l0-0.1c0,0,0,0,0,0c0,0,0,0,0,0c0,0,0.1,0,0.2,0c0,0,0-0.1,0-0.2c-0.1,0-0.1-0.1-0.2,0
				c-0.2,0-0.5,0.4-0.6,0.4C53.5,15.9,53.5,16,53.7,16C53.6,16,53.6,16,53.7,16z"/>
			<path class="st0" d="M58.6,11c0,0.1,0,0.1,0.1,0.1c0,0,0,0,0,0c0.1,0,0.1,0,0.1-0.1l0-0.1c0.1,0,0.2,0,0.3,0c0,0,0,0,0,0
				c0.1,0,0.1,0,0.1-0.1c0-0.1,0-0.1-0.1-0.1c-0.3,0-0.6-0.2-0.6-0.2c-0.1,0-0.1,0-0.2,0c0,0.1,0,0.1,0,0.2
				C58.4,10.8,58.5,10.8,58.6,11L58.6,11z"/>
			<path class="st0" d="M68.8,17.3C68.8,17.3,68.8,17.3,68.8,17.3l1-0.9c0,0,0-0.1,0-0.2c0,0-0.1,0-0.2,0l-0.9,0.9
				C68.7,17.2,68.7,17.3,68.8,17.3C68.7,17.3,68.8,17.3,68.8,17.3z"/>
		</g>
		<polyline class="st1" points="56.2,26.6 56.2,26.6 56.2,26.6 56.2,26.6 		"/>
		<path class="st1" d="M56.2,26.6C56.2,26.6,56.2,26.6,56.2,26.6L56.2,26.6z"/>
		<path class="st1" d="M56.2,26.6C56.2,26.7,56.2,26.7,56.2,26.6L56.2,26.6z"/>
	</g>
	<g>
		<path class="st0" d="M86,77.4c0.3,0.3,0.9,1,2.4,1c1.6,0,2.6-1,2.6-2.2c0-1-0.9-1.7-1.4-1.9v0c0.5-0.2,1.2-0.9,1.2-1.8
			c0-1.3-1.1-2.1-2.4-2.1c-1.3,0-2.2,1-2.2,1c-0.1,0.1-0.1,0.2,0,0.3l0.4,0.4c0.1,0.1,0.2,0.1,0.3,0c0.2-0.3,0.7-0.7,1.4-0.7
			c0.7,0,1.3,0.5,1.3,1.3c0,0.7-0.5,1.2-1.6,1.2h-0.7c-0.2,0-0.2,0.1-0.2,0.2v0.5c0,0.2,0.1,0.2,0.2,0.2h0.7c1.2,0,1.8,0.7,1.8,1.4
			c0,0.8-0.7,1.3-1.5,1.3c-0.9,0-1.5-0.6-1.6-0.7c-0.1-0.1-0.2-0.1-0.3,0L86,77.1C85.9,77.2,85.9,77.3,86,77.4 M82.5,77.4
			c-1.3,0-1.7-1.3-1.6-2.3c0.1-0.2,0.7-0.9,1.6-0.9c0.9,0,1.6,0.7,1.6,1.6C84,76.6,83.3,77.4,82.5,77.4 M79.7,75.1
			c0,1.8,0.9,3.3,2.8,3.3c1.4,0,2.6-1.2,2.6-2.7c0-1.6-1.2-2.5-2.4-2.5c-0.8,0-1.5,0.4-1.6,0.4c0.4-1.4,2.2-2.4,2.8-2.6
			c0.2-0.1,0.3-0.2,0.2-0.3l-0.2-0.5c0-0.1-0.2-0.2-0.3-0.1C82.5,70.5,79.7,71.9,79.7,75.1 M74.3,76.2c0-0.6,0.5-1.3,1.5-1.4
			c0.9,0.1,1.5,0.8,1.5,1.4c0,0.8-0.7,1.3-1.5,1.3C75,77.5,74.3,77,74.3,76.2 M75.8,73.7c-0.9-0.1-1.3-0.6-1.3-1.2
			c0-0.7,0.6-1.2,1.3-1.2c0.8,0,1.3,0.5,1.3,1.2C77.1,73,76.7,73.5,75.8,73.7 M73.1,76.2c0,1.3,1,2.2,2.7,2.2c1.7,0,2.7-1,2.7-2.2
			c0-1-0.9-1.7-1.4-1.9v0c0.5-0.3,1.2-0.9,1.2-1.8c0-1.3-1.1-2.1-2.5-2.1c-1.4,0-2.5,0.9-2.5,2.1c0,0.9,0.7,1.6,1.2,1.8v0
			C74.1,74.4,73.1,75.2,73.1,76.2 M67.5,78.3h4.1c0.1,0,0.2-0.1,0.2-0.2v-0.5c0-0.1-0.1-0.2-0.2-0.2h-1.3v-6.8
			c0-0.1-0.1-0.2-0.2-0.2h-0.6l-1.7,1.6c0,0-0.1,0.1,0,0.2l0.1,0.4c0,0.1,0.2,0.1,0.3,0.1l1-0.5v5.2h-1.6c-0.1,0-0.2,0.1-0.2,0.2
			v0.5C67.3,78.2,67.4,78.3,67.5,78.3 M56.9,74.2c0-1.7,1.4-3,3-3c1.7,0,3,1.4,3,3c0,1.7-1.4,3-3,3C58.3,77.2,56.9,75.9,56.9,74.2
			 M55.7,74.2c0,2.3,1.9,4.2,4.2,4.2c2.3,0,4.2-1.9,4.2-4.2c0-2.3-1.9-4.2-4.2-4.2C57.6,70,55.7,71.9,55.7,74.2 M47.3,78.1
			c0,0.1,0.1,0.2,0.2,0.2h0.7c0.1,0,0.2-0.1,0.2-0.2v-5.7h0l5.1,6h0.3c0.1,0,0.2-0.1,0.2-0.2v-7.8c0-0.1-0.1-0.2-0.2-0.2h-0.7
			c-0.1,0-0.2,0.1-0.2,0.2v5.5h0L47.8,70h-0.3c-0.1,0-0.2,0.1-0.2,0.2V78.1z M40.9,75.5l1.4-3.2h0.1l1.4,3.2H40.9z M38.7,78.3h0.7
			c0.1,0,0.2-0.1,0.3-0.2c0.2-0.5,0.5-1.1,0.7-1.6h3.8l0.7,1.6c0,0.1,0.1,0.2,0.3,0.2h0.7c0.2,0,0.3-0.2,0.2-0.3l-3.6-7.8
			c0-0.1-0.1-0.1-0.2-0.1h-0.1c-0.1,0-0.2,0.1-0.2,0.1L38.5,78C38.4,78.1,38.5,78.3,38.7,78.3 M33.2,78.1c0,0.1,0.1,0.2,0.2,0.2h4.2
			c0.1,0,0.2-0.1,0.2-0.2v-0.6c0-0.1-0.1-0.2-0.2-0.2h-3.2v-6.9c0-0.1-0.1-0.2-0.2-0.2h-0.8c-0.1,0-0.2,0.1-0.2,0.2V78.1z
			 M29.7,78.1c0,0.1,0.1,0.2,0.2,0.2h0.8c0.1,0,0.2-0.1,0.2-0.2v-7.7c0-0.1-0.1-0.2-0.2-0.2h-0.8c-0.1,0-0.2,0.1-0.2,0.2V78.1z
			 M19,78c0,0.2,0.1,0.3,0.2,0.3H20c0.1,0,0.2-0.1,0.2-0.2l0.8-5.2h0l2.1,5.4c0,0.1,0.1,0.1,0.2,0.1h0.2c0.1,0,0.2-0.1,0.2-0.1
			l2.1-5.4h0l0.9,5.2c0,0.1,0.1,0.2,0.2,0.2h0.8c0.2,0,0.2-0.1,0.2-0.3l-1.4-7.8c0-0.1-0.1-0.2-0.2-0.2h-0.2c-0.1,0-0.2,0.1-0.2,0.1
			l-2.4,6h0l-2.4-6c0-0.1-0.1-0.1-0.2-0.1h-0.2c-0.1,0-0.2,0.1-0.2,0.2L19,78z"/>
		<path class="st0" d="M99.2,58.8c0-2.1,1.7-3.8,3.8-3.8c2.1,0,3.8,1.7,3.8,3.8c0,2.1-1.7,3.8-3.8,3.8
			C100.9,62.6,99.2,60.9,99.2,58.8 M97,58.8c0,3.3,2.6,6,6,6s6-2.6,6-6c0-3.3-2.7-6-6-6S97,55.4,97,58.8 M85.4,58.8c0,3.3,2.7,6,6,6
			c1.5,0,2.9-0.5,4-1.6c0.1-0.1,0.1-0.3,0-0.4l-1-1.1c-0.1-0.1-0.3-0.1-0.4,0c-0.7,0.6-1.5,0.9-2.5,0.9c-2.1,0-3.7-1.8-3.7-3.8
			c0-2.1,1.6-3.9,3.7-3.9c0.9,0,1.9,0.4,2.6,1c0.1,0.1,0.3,0.1,0.4,0l1-1c0.1-0.1,0.1-0.3,0-0.5c-1.1-1-2.3-1.5-4-1.5
			C88.1,52.8,85.4,55.4,85.4,58.8 M81.1,64.3c0,0.2,0.1,0.3,0.3,0.3h1.5c0.2,0,0.3-0.1,0.3-0.3v-11c0-0.2-0.1-0.3-0.3-0.3h-1.5
			c-0.2,0-0.3,0.1-0.3,0.3V64.3z M68.3,64.3c0,0.2,0.1,0.3,0.3,0.3h1.5c0.2,0,0.3-0.1,0.3-0.3v-7.2h0l7,7.6h0.4
			c0.2,0,0.3-0.1,0.3-0.3V53.2c0-0.2-0.1-0.3-0.3-0.3h-1.5c-0.2,0-0.3,0.1-0.3,0.3v6.9h0l-6.9-7.4h-0.4c-0.2,0-0.3,0.1-0.3,0.3V64.3
			z M56.1,58.8c0,3.3,2.7,6,6,6c1.5,0,2.9-0.5,4-1.6c0.1-0.1,0.1-0.3,0-0.4l-1-1.1c-0.1-0.1-0.3-0.1-0.4,0c-0.7,0.6-1.5,0.9-2.5,0.9
			c-2.1,0-3.7-1.8-3.7-3.8c0-2.1,1.6-3.9,3.7-3.9c0.9,0,1.9,0.4,2.6,1c0.1,0.1,0.3,0.1,0.4,0l1-1c0.1-0.1,0.1-0.3,0-0.5
			c-1.1-1-2.3-1.5-4-1.5C58.7,52.8,56.1,55.4,56.1,58.8 M47,64.3c0,0.2,0.1,0.3,0.3,0.3h6.8c0.2,0,0.3-0.1,0.3-0.3v-1.4
			c0-0.2-0.1-0.3-0.3-0.3h-4.9v-2.9h4.1c0.2,0,0.3-0.1,0.3-0.3V58c0-0.2-0.1-0.3-0.3-0.3h-4.1v-2.7h4.9c0.2,0,0.3-0.1,0.3-0.3v-1.4
			c0-0.2-0.1-0.3-0.3-0.3h-6.8c-0.2,0-0.3,0.1-0.3,0.3V64.3z M40,64.3c0,0.2,0.2,0.3,0.3,0.3h1.5c0.2,0,0.3-0.1,0.3-0.3v-9.3h2.5
			c0.2,0,0.3-0.1,0.3-0.3v-1.4c0-0.2-0.1-0.3-0.3-0.3h-7.3c-0.2,0-0.3,0.1-0.3,0.3v1.4c0,0.2,0.1,0.3,0.3,0.3H40V64.3z M32.9,64.3
			c0,0.2,0.1,0.3,0.3,0.3h1.5c0.2,0,0.3-0.1,0.3-0.3v-11c0-0.2-0.1-0.3-0.3-0.3h-1.5c-0.2,0-0.3,0.1-0.3,0.3V64.3z M24,64.3
			c0,0.2,0.1,0.3,0.3,0.3h6.1c0.2,0,0.3-0.1,0.3-0.3v-1.4c0-0.2-0.1-0.3-0.3-0.3h-4.2v-9.3c0-0.2-0.2-0.3-0.3-0.3h-1.5
			c-0.2,0-0.3,0.1-0.3,0.3V64.3z M12.4,58.8c0-2.1,1.7-3.8,3.8-3.8c2.1,0,3.8,1.7,3.8,3.8c0,2.1-1.7,3.8-3.8,3.8
			C14.1,62.6,12.4,60.9,12.4,58.8 M10.2,58.8c0,3.3,2.6,6,6,6c3.3,0,6-2.6,6-6c0-3.3-2.7-6-6-6C12.9,52.8,10.2,55.4,10.2,58.8
			 M3.2,58.3V55h1.9c0.9,0,1.7,0.7,1.7,1.6c0,1-0.8,1.7-1.7,1.7H3.2z M1,64.3c0,0.2,0.1,0.3,0.3,0.3h1.5c0.2,0,0.3-0.1,0.3-0.3v-3.9
			h2.1c2,0,3.7-1.7,3.7-3.7c0-2-1.7-3.7-3.7-3.7H1.3c-0.2,0-0.3,0.1-0.3,0.3V64.3z"/>
	</g>
</g>
</svg>
