<?xml version="1.0" encoding="utf-8"?>
<!-- Generator: Adobe Illustrator 17.0.0, SVG Export Plug-In . SVG Version: 6.00 Build 0)  -->
<!DOCTYPE svg PUBLIC "-//W3C//DTD SVG 1.1//EN" "http://www.w3.org/Graphics/SVG/1.1/DTD/svg11.dtd">
<svg version="1.1" id="Layer_1" xmlns="http://www.w3.org/2000/svg" xmlns:xlink="http://www.w3.org/1999/xlink" x="0px" y="0px"
	 width="670px" height="218.4px" viewBox="0 0 670 218.4" style="enable-background:new 0 0 670 218.4;" xml:space="preserve">
<style type="text/css">
	.st0{fill:none;stroke:#808080;stroke-linejoin:round;stroke-miterlimit:10;}
	.st1{opacity:0.6;fill:none;stroke:#86D9E8;stroke-width:3;stroke-miterlimit:10;enable-background:new    ;}
	.st2{opacity:0.6;fill:none;stroke:#36BFD9;stroke-width:3;stroke-miterlimit:10;enable-background:new    ;}
	.st3{opacity:0.6;fill:none;stroke:#5196A3;stroke-width:3;stroke-miterlimit:10;enable-background:new    ;}
	.st4{opacity:0.6;fill:none;stroke:#356069;stroke-width:3;stroke-miterlimit:10;enable-background:new    ;}
	.st5{fill:#666666;}
	.st6{fill:#4D4D4D;}
	.st7{fill:none;stroke:#666666;stroke-miterlimit:10;}
</style>
<line class="st0" x1="246.3" y1="15.8" x2="670" y2="15.8"/>
<line class="st0" x1="246.3" y1="40.5" x2="670" y2="40.5"/>
<line class="st0" x1="246.3" y1="65.8" x2="670" y2="65.8"/>
<line class="st0" x1="246.3" y1="90.5" x2="670" y2="90.5"/>
<line class="st0" x1="246.3" y1="115.2" x2="670" y2="115.2"/>
<line class="st0" x1="246.3" y1="140.5" x2="670" y2="140.5"/>
<line class="st0" x1="246.3" y1="165.2" x2="670" y2="165.2"/>
<polyline class="st1" points="251.2,9.4 262.2,14.3 272.5,20.3 282.9,24.5 293.9,28.1 304.3,34.1 315.3,38.4 325.7,43.8 336,46.2 
	347,49.2 357.4,51.6 367.8,58.2 378.8,62.5 389.1,67.3 399.5,76.3 410.5,83.6 420.9,86.6 431.9,89.6 442.3,93.2 452.6,94.4 
	463.7,97.4 474,96.8 484.4,98.6 495.4,99.8 505.8,98 516.8,96.2 527.1,98.6 537.5,98.6 548.5,99.2 558.9,102.2 569.3,105.2 
	580.3,107.1 590.6,110.1 601,113.1 612,114.3 622.4,117.9 633.4,119.7 643.8,120.3 654.1,120.9 665.1,120.3 "/>
<polyline class="st2" points="251.2,146.8 262.2,142.6 272.5,138.4 282.9,135.4 293.9,131.8 304.3,128.1 315.3,125.1 325.7,122.7 
	336,119.7 347,114.9 357.4,108.9 367.8,104 378.8,102.2 389.1,98 399.5,92.6 410.5,92.6 420.9,91.4 431.9,91.4 442.3,92.6 
	452.6,93.8 463.7,98 474,99.2 484.4,101.6 495.4,104 505.8,102.8 516.8,102.8 527.1,103.4 537.5,103.4 548.5,102.8 558.9,102.8 
	569.3,101 580.3,99.8 590.6,98.6 601,97.4 612,95.6 622.4,94.4 633.4,95 643.8,96.8 654.1,98 665.1,100.4 "/>
<polyline class="st3" points="251.2,177 262.2,176.4 272.5,175.8 282.9,174.5 293.9,173.9 304.3,173.3 315.3,172.7 325.7,172.7 
	336,173.3 347,173.3 357.4,172.7 367.8,170.9 378.8,171.5 389.1,171.5 399.5,169.7 410.5,165.5 420.9,164.3 431.9,163.7 
	442.3,163.7 452.6,163.7 463.7,161.9 474,161.3 484.4,160.7 495.4,160.1 505.8,160.1 516.8,158.9 527.1,158.9 537.5,158.3 
	548.5,158.9 558.9,158.9 569.3,158.3 580.3,157.7 590.6,156.5 601,155.9 612,154.7 622.4,152.9 633.4,152.3 643.8,151.6 
	654.1,152.9 665.1,153.5 "/>
<polyline class="st4" points="251.2,178.2 262.2,177.6 272.5,177.6 282.9,177.6 293.9,177.6 304.3,177.6 315.3,177.6 325.7,178.2 
	336,178.2 347,177 357.4,175.2 367.8,174.5 378.8,173.3 389.1,170.3 399.5,165.5 410.5,161.9 420.9,160.7 431.9,158.9 442.3,156.5 
	452.6,153.5 463.7,148.6 474,146.2 484.4,145 495.4,144.4 505.8,145.6 516.8,148.6 527.1,149.8 537.5,149.8 548.5,151 558.9,151 
	569.3,149.8 580.3,149.8 590.6,149.2 601,148.6 612,149.2 622.4,148 633.4,149.2 643.8,151.6 654.1,154.7 665.1,158.9 "/>
<line class="st0" x1="246.3" y1="189.9" x2="670" y2="189.9"/>
<g>
	<g>
		<path class="st5" d="M222.9,193.4c-0.6,0-1.1-0.1-1.5-0.3s-0.8-0.5-1-0.8s-0.5-0.8-0.6-1.2c-0.1-0.5-0.2-1-0.2-1.5
			c0-0.6,0.1-1.1,0.3-1.6s0.5-0.9,0.8-1.2s0.7-0.6,1.1-0.7s0.9-0.3,1.4-0.3c0.6,0,1.1,0.1,1.5,0.3s0.8,0.4,1,0.8
			c0.3,0.3,0.4,0.7,0.6,1.2s0.2,1,0.2,1.5c0,0.6-0.1,1.1-0.3,1.6s-0.4,0.9-0.8,1.2s-0.7,0.6-1.1,0.8S223.4,193.4,222.9,193.4z
			 M223.1,192.8c0.3,0,0.6-0.1,0.9-0.2c0.2-0.1,0.4-0.4,0.6-0.6c0.1-0.3,0.2-0.6,0.3-1s0.1-0.8,0.1-1.3s0-0.9-0.1-1.3
			c-0.1-0.4-0.2-0.7-0.3-1s-0.3-0.5-0.6-0.6s-0.5-0.2-0.9-0.2c-0.3,0-0.6,0.1-0.9,0.2c-0.2,0.1-0.4,0.3-0.6,0.6
			c-0.1,0.3-0.3,0.6-0.3,1s-0.1,0.8-0.1,1.3s0,0.9,0.1,1.3c0.1,0.4,0.2,0.8,0.3,1.1s0.3,0.5,0.6,0.7S222.7,192.8,223.1,192.8z"/>
	</g>
</g>
<g>
	<g>
		<path class="st5" d="M193.7,169.7c0.1,0,0.3,0,0.4,0c0.5,0,0.9-0.1,1.3-0.2c0.4-0.1,0.8-0.3,1.1-0.5s0.5-0.5,0.7-0.8
			s0.3-0.7,0.3-1.1c0-0.3,0-0.6-0.1-0.9c-0.1-0.2-0.2-0.4-0.4-0.6s-0.4-0.3-0.6-0.3s-0.5-0.1-0.8-0.1c-0.1,0-0.3,0-0.4,0
			s-0.3,0-0.5,0.1c-0.2,0-0.3,0.1-0.4,0.1s-0.3,0.1-0.4,0.2l-0.4-0.3l0.6-4.3h3.7l0.1-0.2h0.9l-0.3,1.3H195l-0.5,2.7
			c0.1-0.1,0.3-0.1,0.4-0.2s0.3-0.1,0.5-0.1s0.3-0.1,0.5-0.1s0.4,0,0.5,0c0.4,0,0.8,0,1.1,0.1s0.6,0.3,0.8,0.5s0.4,0.5,0.5,0.8
			s0.2,0.7,0.2,1.1c0,0.3-0.1,0.6-0.2,0.9c-0.1,0.3-0.3,0.6-0.5,0.8c-0.2,0.3-0.4,0.5-0.7,0.7s-0.6,0.4-1,0.6
			c-0.4,0.2-0.8,0.3-1.2,0.4c-0.4,0.1-0.9,0.1-1.4,0.1c-0.1,0-0.3,0-0.5,0s-0.3,0-0.5-0.1v-0.6C193.4,169.7,193.6,169.7,193.7,169.7
			z"/>
		<path class="st5" d="M204.8,168.4c-0.6,0-1.1-0.1-1.5-0.3s-0.8-0.5-1-0.8s-0.5-0.8-0.6-1.2c-0.1-0.5-0.2-1-0.2-1.5
			c0-0.6,0.1-1.1,0.3-1.6s0.5-0.9,0.8-1.2s0.7-0.6,1.1-0.7s0.9-0.3,1.4-0.3c0.6,0,1.1,0.1,1.5,0.3s0.8,0.4,1,0.8
			c0.3,0.3,0.4,0.7,0.6,1.2s0.2,1,0.2,1.5c0,0.6-0.1,1.1-0.3,1.6s-0.4,0.9-0.8,1.2s-0.7,0.6-1.1,0.8S205.2,168.4,204.8,168.4z
			 M204.9,167.8c0.3,0,0.6-0.1,0.9-0.2c0.2-0.1,0.4-0.4,0.6-0.6c0.1-0.3,0.2-0.6,0.3-1s0.1-0.8,0.1-1.3s0-0.9-0.1-1.3
			c-0.1-0.4-0.2-0.7-0.3-1s-0.3-0.5-0.6-0.6s-0.5-0.2-0.9-0.2c-0.3,0-0.6,0.1-0.9,0.2c-0.2,0.1-0.4,0.3-0.6,0.6
			c-0.1,0.3-0.3,0.6-0.3,1s-0.1,0.8-0.1,1.3s0,0.9,0.1,1.3c0.1,0.4,0.2,0.8,0.3,1.1s0.3,0.5,0.6,0.7S204.5,167.8,204.9,167.8z"/>
		<path class="st5" d="M213.8,168.4c-0.6,0-1.1-0.1-1.5-0.3s-0.8-0.5-1-0.8s-0.5-0.8-0.6-1.2c-0.1-0.5-0.2-1-0.2-1.5
			c0-0.6,0.1-1.1,0.3-1.6s0.5-0.9,0.8-1.2s0.7-0.6,1.1-0.7s0.9-0.3,1.4-0.3c0.6,0,1.1,0.1,1.5,0.3s0.8,0.4,1,0.8
			c0.3,0.3,0.4,0.7,0.6,1.2s0.2,1,0.2,1.5c0,0.6-0.1,1.1-0.3,1.6s-0.4,0.9-0.8,1.2s-0.7,0.6-1.1,0.8S214.3,168.4,213.8,168.4z
			 M214,167.8c0.3,0,0.6-0.1,0.9-0.2c0.2-0.1,0.4-0.4,0.6-0.6c0.1-0.3,0.2-0.6,0.3-1s0.1-0.8,0.1-1.3s0-0.9-0.1-1.3
			c-0.1-0.4-0.2-0.7-0.3-1s-0.3-0.5-0.6-0.6s-0.5-0.2-0.9-0.2c-0.3,0-0.6,0.1-0.9,0.2c-0.2,0.1-0.4,0.3-0.6,0.6
			c-0.1,0.3-0.3,0.6-0.3,1s-0.1,0.8-0.1,1.3s0,0.9,0.1,1.3c0.1,0.4,0.2,0.8,0.3,1.1s0.3,0.5,0.6,0.7S213.6,167.8,214,167.8z"/>
		<path class="st5" d="M222.9,168.4c-0.6,0-1.1-0.1-1.5-0.3s-0.8-0.5-1-0.8s-0.5-0.8-0.6-1.2c-0.1-0.5-0.2-1-0.2-1.5
			c0-0.6,0.1-1.1,0.3-1.6s0.5-0.9,0.8-1.2s0.7-0.6,1.1-0.7s0.9-0.3,1.4-0.3c0.6,0,1.1,0.1,1.5,0.3s0.8,0.4,1,0.8
			c0.3,0.3,0.4,0.7,0.6,1.2s0.2,1,0.2,1.5c0,0.6-0.1,1.1-0.3,1.6s-0.4,0.9-0.8,1.2s-0.7,0.6-1.1,0.8S223.4,168.4,222.9,168.4z
			 M223.1,167.8c0.3,0,0.6-0.1,0.9-0.2c0.2-0.1,0.4-0.4,0.6-0.6c0.1-0.3,0.2-0.6,0.3-1s0.1-0.8,0.1-1.3s0-0.9-0.1-1.3
			c-0.1-0.4-0.2-0.7-0.3-1s-0.3-0.5-0.6-0.6s-0.5-0.2-0.9-0.2c-0.3,0-0.6,0.1-0.9,0.2c-0.2,0.1-0.4,0.3-0.6,0.6
			c-0.1,0.3-0.3,0.6-0.3,1s-0.1,0.8-0.1,1.3s0,0.9,0.1,1.3c0.1,0.4,0.2,0.8,0.3,1.1s0.3,0.5,0.6,0.7S222.7,167.8,223.1,167.8z"/>
	</g>
</g>
<g>
	<g>
		<path class="st5" d="M185.9,142.8l1.6-0.1v-5.3c-0.1,0-0.2,0.1-0.4,0.1s-0.3,0.1-0.5,0.1s-0.3,0.1-0.5,0.1s-0.3,0-0.4,0l-0.2-0.7
			c0.2,0,0.5-0.1,0.7-0.2s0.5-0.2,0.7-0.3s0.4-0.2,0.6-0.3s0.4-0.2,0.5-0.4l0,0l0.8,0.1v6.7l1.5,0.1v0.6h-4.6v-0.5H185.9z"/>
		<path class="st5" d="M195.7,143.5c-0.6,0-1.1-0.1-1.5-0.3s-0.8-0.5-1-0.8s-0.5-0.8-0.6-1.2c-0.1-0.5-0.2-1-0.2-1.5
			c0-0.6,0.1-1.1,0.3-1.6s0.5-0.9,0.8-1.2s0.7-0.6,1.1-0.7s0.9-0.3,1.4-0.3c0.6,0,1.1,0.1,1.5,0.3s0.8,0.4,1,0.8
			c0.3,0.3,0.4,0.7,0.6,1.2s0.2,1,0.2,1.5c0,0.6-0.1,1.1-0.3,1.6s-0.4,0.9-0.8,1.2s-0.7,0.6-1.1,0.8S196.2,143.5,195.7,143.5z
			 M195.8,142.8c0.3,0,0.6-0.1,0.9-0.2c0.2-0.1,0.4-0.4,0.6-0.6c0.1-0.3,0.2-0.6,0.3-1s0.1-0.8,0.1-1.3s0-0.9-0.1-1.3
			c-0.1-0.4-0.2-0.7-0.3-1s-0.3-0.5-0.6-0.6s-0.5-0.2-0.9-0.2c-0.3,0-0.6,0.1-0.9,0.2c-0.2,0.1-0.4,0.3-0.6,0.6
			c-0.1,0.3-0.3,0.6-0.3,1s-0.1,0.8-0.1,1.3s0,0.9,0.1,1.3c0.1,0.4,0.2,0.8,0.3,1.1s0.3,0.5,0.6,0.7S195.4,142.8,195.8,142.8z"/>
		<path class="st5" d="M204.8,143.5c-0.6,0-1.1-0.1-1.5-0.3s-0.8-0.5-1-0.8s-0.5-0.8-0.6-1.2c-0.1-0.5-0.2-1-0.2-1.5
			c0-0.6,0.1-1.1,0.3-1.6s0.5-0.9,0.8-1.2s0.7-0.6,1.1-0.7s0.9-0.3,1.4-0.3c0.6,0,1.1,0.1,1.5,0.3s0.8,0.4,1,0.8
			c0.3,0.3,0.4,0.7,0.6,1.2s0.2,1,0.2,1.5c0,0.6-0.1,1.1-0.3,1.6s-0.4,0.9-0.8,1.2s-0.7,0.6-1.1,0.8S205.2,143.5,204.8,143.5z
			 M204.9,142.8c0.3,0,0.6-0.1,0.9-0.2c0.2-0.1,0.4-0.4,0.6-0.6c0.1-0.3,0.2-0.6,0.3-1s0.1-0.8,0.1-1.3s0-0.9-0.1-1.3
			c-0.1-0.4-0.2-0.7-0.3-1s-0.3-0.5-0.6-0.6s-0.5-0.2-0.9-0.2c-0.3,0-0.6,0.1-0.9,0.2c-0.2,0.1-0.4,0.3-0.6,0.6
			c-0.1,0.3-0.3,0.6-0.3,1s-0.1,0.8-0.1,1.3s0,0.9,0.1,1.3c0.1,0.4,0.2,0.8,0.3,1.1s0.3,0.5,0.6,0.7S204.5,142.8,204.9,142.8z"/>
		<path class="st5" d="M213.8,143.5c-0.6,0-1.1-0.1-1.5-0.3s-0.8-0.5-1-0.8s-0.5-0.8-0.6-1.2c-0.1-0.5-0.2-1-0.2-1.5
			c0-0.6,0.1-1.1,0.3-1.6s0.5-0.9,0.8-1.2s0.7-0.6,1.1-0.7s0.9-0.3,1.4-0.3c0.6,0,1.1,0.1,1.5,0.3s0.8,0.4,1,0.8
			c0.3,0.3,0.4,0.7,0.6,1.2s0.2,1,0.2,1.5c0,0.6-0.1,1.1-0.3,1.6s-0.4,0.9-0.8,1.2s-0.7,0.6-1.1,0.8S214.3,143.5,213.8,143.5z
			 M214,142.8c0.3,0,0.6-0.1,0.9-0.2c0.2-0.1,0.4-0.4,0.6-0.6c0.1-0.3,0.2-0.6,0.3-1s0.1-0.8,0.1-1.3s0-0.9-0.1-1.3
			c-0.1-0.4-0.2-0.7-0.3-1s-0.3-0.5-0.6-0.6s-0.5-0.2-0.9-0.2c-0.3,0-0.6,0.1-0.9,0.2c-0.2,0.1-0.4,0.3-0.6,0.6
			c-0.1,0.3-0.3,0.6-0.3,1s-0.1,0.8-0.1,1.3s0,0.9,0.1,1.3c0.1,0.4,0.2,0.8,0.3,1.1s0.3,0.5,0.6,0.7S213.6,142.8,214,142.8z"/>
		<path class="st5" d="M222.9,143.5c-0.6,0-1.1-0.1-1.5-0.3s-0.8-0.5-1-0.8s-0.5-0.8-0.6-1.2c-0.1-0.5-0.2-1-0.2-1.5
			c0-0.6,0.1-1.1,0.3-1.6s0.5-0.9,0.8-1.2s0.7-0.6,1.1-0.7s0.9-0.3,1.4-0.3c0.6,0,1.1,0.1,1.5,0.3s0.8,0.4,1,0.8
			c0.3,0.3,0.4,0.7,0.6,1.2s0.2,1,0.2,1.5c0,0.6-0.1,1.1-0.3,1.6s-0.4,0.9-0.8,1.2s-0.7,0.6-1.1,0.8S223.4,143.5,222.9,143.5z
			 M223.1,142.8c0.3,0,0.6-0.1,0.9-0.2c0.2-0.1,0.4-0.4,0.6-0.6c0.1-0.3,0.2-0.6,0.3-1s0.1-0.8,0.1-1.3s0-0.9-0.1-1.3
			c-0.1-0.4-0.2-0.7-0.3-1s-0.3-0.5-0.6-0.6s-0.5-0.2-0.9-0.2c-0.3,0-0.6,0.1-0.9,0.2c-0.2,0.1-0.4,0.3-0.6,0.6
			c-0.1,0.3-0.3,0.6-0.3,1s-0.1,0.8-0.1,1.3s0,0.9,0.1,1.3c0.1,0.4,0.2,0.8,0.3,1.1s0.3,0.5,0.6,0.7S222.7,142.8,223.1,142.8z"/>
	</g>
</g>
<g>
	<g>
		<path class="st5" d="M186.6,117.8l1.6-0.1v-5.3c-0.1,0-0.2,0.1-0.4,0.1s-0.3,0.1-0.5,0.1s-0.3,0.1-0.5,0.1s-0.3,0-0.4,0l-0.2-0.7
			c0.2,0,0.5-0.1,0.7-0.2s0.5-0.2,0.7-0.3c0.2-0.1,0.4-0.2,0.6-0.3s0.4-0.2,0.5-0.4l0,0l0.8,0.1v6.7l1.5,0.1v0.6h-4.6v-0.5H186.6z"
			/>
		<path class="st5" d="M193.7,119.7c0.1,0,0.3,0,0.4,0c0.5,0,0.9-0.1,1.3-0.2c0.4-0.1,0.8-0.3,1.1-0.5s0.5-0.5,0.7-0.8
			s0.3-0.7,0.3-1.1c0-0.3,0-0.6-0.1-0.9c-0.1-0.2-0.2-0.4-0.4-0.6s-0.4-0.3-0.6-0.3s-0.5-0.1-0.8-0.1c-0.1,0-0.3,0-0.4,0
			s-0.3,0-0.5,0.1c-0.2,0-0.3,0.1-0.4,0.1s-0.3,0.1-0.4,0.2l-0.4-0.3l0.6-4.3h3.7l0.1-0.2h0.9l-0.3,1.3H195l-0.5,2.7
			c0.1-0.1,0.3-0.1,0.4-0.2s0.3-0.1,0.5-0.1s0.3-0.1,0.5-0.1s0.4,0,0.5,0c0.4,0,0.8,0,1.1,0.1s0.6,0.3,0.8,0.5s0.4,0.5,0.5,0.8
			s0.2,0.7,0.2,1.1c0,0.3-0.1,0.6-0.2,0.9c-0.1,0.3-0.3,0.6-0.5,0.8c-0.2,0.3-0.4,0.5-0.7,0.7s-0.6,0.4-1,0.6s-0.8,0.3-1.2,0.4
			s-0.9,0.1-1.4,0.1c-0.1,0-0.3,0-0.5,0s-0.3,0-0.5-0.1v-0.6C193.4,119.7,193.6,119.7,193.7,119.7z"/>
		<path class="st5" d="M204.8,118.5c-0.6,0-1.1-0.1-1.5-0.3s-0.8-0.5-1-0.8s-0.5-0.8-0.6-1.2c-0.1-0.5-0.2-1-0.2-1.5
			c0-0.6,0.1-1.1,0.3-1.6s0.5-0.9,0.8-1.2s0.7-0.6,1.1-0.7s0.9-0.3,1.4-0.3c0.6,0,1.1,0.1,1.5,0.3c0.4,0.2,0.8,0.4,1,0.8
			c0.3,0.3,0.4,0.7,0.6,1.2s0.2,1,0.2,1.5c0,0.6-0.1,1.1-0.3,1.6s-0.4,0.9-0.8,1.2s-0.7,0.6-1.1,0.8S205.2,118.5,204.8,118.5z
			 M204.9,117.8c0.3,0,0.6-0.1,0.9-0.2c0.2-0.1,0.4-0.4,0.6-0.6c0.1-0.3,0.2-0.6,0.3-1s0.1-0.8,0.1-1.3s0-0.9-0.1-1.3
			s-0.2-0.7-0.3-1s-0.3-0.5-0.6-0.6s-0.5-0.2-0.9-0.2c-0.3,0-0.6,0.1-0.9,0.2c-0.2,0.1-0.4,0.3-0.6,0.6c-0.1,0.3-0.3,0.6-0.3,1
			s-0.1,0.8-0.1,1.3s0,0.9,0.1,1.3s0.2,0.8,0.3,1.1c0.1,0.3,0.3,0.5,0.6,0.7S204.5,117.8,204.9,117.8z"/>
		<path class="st5" d="M213.8,118.5c-0.6,0-1.1-0.1-1.5-0.3s-0.8-0.5-1-0.8s-0.5-0.8-0.6-1.2c-0.1-0.5-0.2-1-0.2-1.5
			c0-0.6,0.1-1.1,0.3-1.6s0.5-0.9,0.8-1.2s0.7-0.6,1.1-0.7s0.9-0.3,1.4-0.3c0.6,0,1.1,0.1,1.5,0.3c0.4,0.2,0.8,0.4,1,0.8
			c0.3,0.3,0.4,0.7,0.6,1.2s0.2,1,0.2,1.5c0,0.6-0.1,1.1-0.3,1.6s-0.4,0.9-0.8,1.2s-0.7,0.6-1.1,0.8S214.3,118.5,213.8,118.5z
			 M214,117.8c0.3,0,0.6-0.1,0.9-0.2c0.2-0.1,0.4-0.4,0.6-0.6c0.1-0.3,0.2-0.6,0.3-1s0.1-0.8,0.1-1.3s0-0.9-0.1-1.3s-0.2-0.7-0.3-1
			s-0.3-0.5-0.6-0.6s-0.5-0.2-0.9-0.2c-0.3,0-0.6,0.1-0.9,0.2c-0.2,0.1-0.4,0.3-0.6,0.6c-0.1,0.3-0.3,0.6-0.3,1s-0.1,0.8-0.1,1.3
			s0,0.9,0.1,1.3s0.2,0.8,0.3,1.1c0.1,0.3,0.3,0.5,0.6,0.7S213.6,117.8,214,117.8z"/>
		<path class="st5" d="M222.9,118.5c-0.6,0-1.1-0.1-1.5-0.3s-0.8-0.5-1-0.8s-0.5-0.8-0.6-1.2c-0.1-0.5-0.2-1-0.2-1.5
			c0-0.6,0.1-1.1,0.3-1.6s0.5-0.9,0.8-1.2s0.7-0.6,1.1-0.7s0.9-0.3,1.4-0.3c0.6,0,1.1,0.1,1.5,0.3c0.4,0.2,0.8,0.4,1,0.8
			c0.3,0.3,0.4,0.7,0.6,1.2s0.2,1,0.2,1.5c0,0.6-0.1,1.1-0.3,1.6s-0.4,0.9-0.8,1.2s-0.7,0.6-1.1,0.8S223.4,118.5,222.9,118.5z
			 M223.1,117.8c0.3,0,0.6-0.1,0.9-0.2c0.2-0.1,0.4-0.4,0.6-0.6c0.1-0.3,0.2-0.6,0.3-1s0.1-0.8,0.1-1.3s0-0.9-0.1-1.3
			s-0.2-0.7-0.3-1s-0.3-0.5-0.6-0.6s-0.5-0.2-0.9-0.2c-0.3,0-0.6,0.1-0.9,0.2c-0.2,0.1-0.4,0.3-0.6,0.6c-0.1,0.3-0.3,0.6-0.3,1
			s-0.1,0.8-0.1,1.3s0,0.9,0.1,1.3s0.2,0.8,0.3,1.1c0.1,0.3,0.3,0.5,0.6,0.7S222.7,117.8,223.1,117.8z"/>
	</g>
</g>
<g>
	<g>
		<path class="st5" d="M183.5,93c0.4-0.2,0.8-0.4,1.2-0.7c0.4-0.2,0.7-0.5,1-0.7c0.3-0.3,0.6-0.5,0.9-0.8c0.3-0.3,0.5-0.6,0.7-0.8
			c0.2-0.3,0.3-0.6,0.5-0.8c0.1-0.3,0.2-0.5,0.2-0.8c0-0.2,0-0.4-0.1-0.6s-0.2-0.3-0.3-0.4s-0.3-0.2-0.5-0.3
			c-0.2-0.1-0.4-0.1-0.7-0.1s-0.5,0-0.8,0.1s-0.4,0.1-0.6,0.2c-0.2,0.1-0.4,0.2-0.5,0.3c-0.1,0.1-0.3,0.2-0.4,0.3l-0.4-0.6
			c0.1-0.1,0.3-0.3,0.5-0.4c0.2-0.2,0.5-0.3,0.7-0.4s0.6-0.2,0.9-0.3s0.7-0.1,1-0.1c0.5,0,0.9,0.1,1.3,0.2c0.4,0.1,0.6,0.3,0.9,0.5
			c0.2,0.2,0.4,0.4,0.5,0.7c0.1,0.3,0.2,0.5,0.2,0.8s-0.1,0.6-0.2,0.8c-0.1,0.3-0.3,0.6-0.5,0.8s-0.4,0.5-0.7,0.8s-0.6,0.5-0.9,0.8
			s-0.7,0.5-1,0.7c-0.4,0.2-0.7,0.4-1.1,0.6l4-0.3l0.5-0.9l0.7,0.1l-0.3,1.8h-6.4L183.5,93z"/>
		<path class="st5" d="M195.7,93.5c-0.6,0-1.1-0.1-1.5-0.3s-0.8-0.5-1-0.8s-0.5-0.8-0.6-1.2s-0.2-1-0.2-1.5c0-0.6,0.1-1.1,0.3-1.6
			s0.5-0.9,0.8-1.2c0.3-0.3,0.7-0.6,1.1-0.7s0.9-0.3,1.4-0.3c0.6,0,1.1,0.1,1.5,0.3c0.4,0.2,0.8,0.4,1,0.8c0.3,0.3,0.4,0.7,0.6,1.2
			s0.2,1,0.2,1.5c0,0.6-0.1,1.1-0.3,1.6s-0.4,0.9-0.8,1.2c-0.3,0.3-0.7,0.6-1.1,0.8C196.6,93.4,196.2,93.5,195.7,93.5z M195.8,92.8
			c0.3,0,0.6-0.1,0.9-0.2c0.2-0.1,0.4-0.4,0.6-0.6c0.1-0.3,0.2-0.6,0.3-1s0.1-0.8,0.1-1.3s0-0.9-0.1-1.3s-0.2-0.7-0.3-1
			s-0.3-0.5-0.6-0.6c-0.2-0.2-0.5-0.2-0.9-0.2c-0.3,0-0.6,0.1-0.9,0.2c-0.2,0.1-0.4,0.3-0.6,0.6c-0.1,0.3-0.3,0.6-0.3,1
			c-0.1,0.4-0.1,0.8-0.1,1.3s0,0.9,0.1,1.3s0.2,0.8,0.3,1.1s0.3,0.5,0.6,0.7S195.4,92.8,195.8,92.8z"/>
		<path class="st5" d="M204.8,93.5c-0.6,0-1.1-0.1-1.5-0.3s-0.8-0.5-1-0.8s-0.5-0.8-0.6-1.2c-0.1-0.5-0.2-1-0.2-1.5
			c0-0.6,0.1-1.1,0.3-1.6s0.5-0.9,0.8-1.2c0.3-0.3,0.7-0.6,1.1-0.7s0.9-0.3,1.4-0.3c0.6,0,1.1,0.1,1.5,0.3s0.8,0.4,1,0.8
			s0.4,0.7,0.6,1.2s0.2,1,0.2,1.5c0,0.6-0.1,1.1-0.3,1.6s-0.4,0.9-0.8,1.2c-0.3,0.3-0.7,0.6-1.1,0.8
			C205.7,93.4,205.2,93.5,204.8,93.5z M204.9,92.8c0.3,0,0.6-0.1,0.9-0.2s0.4-0.4,0.6-0.6s0.2-0.6,0.3-1s0.1-0.8,0.1-1.3
			s0-0.9-0.1-1.3s-0.2-0.7-0.3-1s-0.3-0.5-0.6-0.6c-0.2-0.2-0.5-0.2-0.9-0.2c-0.3,0-0.6,0.1-0.9,0.2s-0.4,0.3-0.6,0.6
			s-0.3,0.6-0.3,1c-0.1,0.4-0.1,0.8-0.1,1.3s0,0.9,0.1,1.3s0.2,0.8,0.3,1.1c0.1,0.3,0.3,0.5,0.6,0.7S204.5,92.8,204.9,92.8z"/>
		<path class="st5" d="M213.8,93.5c-0.6,0-1.1-0.1-1.5-0.3s-0.8-0.5-1-0.8s-0.5-0.8-0.6-1.2c-0.1-0.5-0.2-1-0.2-1.5
			c0-0.6,0.1-1.1,0.3-1.6s0.5-0.9,0.8-1.2c0.3-0.3,0.7-0.6,1.1-0.7s0.9-0.3,1.4-0.3c0.6,0,1.1,0.1,1.5,0.3s0.8,0.4,1,0.8
			s0.4,0.7,0.6,1.2s0.2,1,0.2,1.5c0,0.6-0.1,1.1-0.3,1.6s-0.4,0.9-0.8,1.2c-0.3,0.3-0.7,0.6-1.1,0.8
			C214.8,93.4,214.3,93.5,213.8,93.5z M214,92.8c0.3,0,0.6-0.1,0.9-0.2s0.4-0.4,0.6-0.6s0.2-0.6,0.3-1s0.1-0.8,0.1-1.3
			s0-0.9-0.1-1.3s-0.2-0.7-0.3-1s-0.3-0.5-0.6-0.6c-0.2-0.2-0.5-0.2-0.9-0.2c-0.3,0-0.6,0.1-0.9,0.2s-0.4,0.3-0.6,0.6
			s-0.3,0.6-0.3,1c-0.1,0.4-0.1,0.8-0.1,1.3s0,0.9,0.1,1.3s0.2,0.8,0.3,1.1c0.1,0.3,0.3,0.5,0.6,0.7S213.6,92.8,214,92.8z"/>
		<path class="st5" d="M222.9,93.5c-0.6,0-1.1-0.1-1.5-0.3s-0.8-0.5-1-0.8s-0.5-0.8-0.6-1.2c-0.1-0.5-0.2-1-0.2-1.5
			c0-0.6,0.1-1.1,0.3-1.6s0.5-0.9,0.8-1.2c0.3-0.3,0.7-0.6,1.1-0.7s0.9-0.3,1.4-0.3c0.6,0,1.1,0.1,1.5,0.3s0.8,0.4,1,0.8
			s0.4,0.7,0.6,1.2s0.2,1,0.2,1.5c0,0.6-0.1,1.1-0.3,1.6s-0.4,0.9-0.8,1.2c-0.3,0.3-0.7,0.6-1.1,0.8
			C223.9,93.4,223.4,93.5,222.9,93.5z M223.1,92.8c0.3,0,0.6-0.1,0.9-0.2s0.4-0.4,0.6-0.6s0.2-0.6,0.3-1s0.1-0.8,0.1-1.3
			s0-0.9-0.1-1.3s-0.2-0.7-0.3-1s-0.3-0.5-0.6-0.6c-0.2-0.2-0.5-0.2-0.9-0.2c-0.3,0-0.6,0.1-0.9,0.2s-0.4,0.3-0.6,0.6
			s-0.3,0.6-0.3,1c-0.1,0.4-0.1,0.8-0.1,1.3s0,0.9,0.1,1.3s0.2,0.8,0.3,1.1c0.1,0.3,0.3,0.5,0.6,0.7S222.7,92.8,223.1,92.8z"/>
	</g>
</g>
<g>
	<g>
		<path class="st5" d="M184.2,68c0.4-0.2,0.8-0.4,1.2-0.7c0.4-0.2,0.7-0.5,1-0.7s0.6-0.5,0.9-0.8c0.3-0.3,0.5-0.6,0.7-0.8
			c0.2-0.3,0.3-0.6,0.5-0.8s0.2-0.5,0.2-0.8c0-0.2,0-0.4-0.1-0.6s-0.2-0.3-0.3-0.4s-0.3-0.2-0.5-0.3s-0.4-0.1-0.7-0.1
			s-0.5,0-0.8,0.1c-0.2,0.1-0.4,0.1-0.6,0.2c-0.2,0.1-0.4,0.2-0.5,0.3s-0.3,0.2-0.4,0.3l-0.4-0.6c0.1-0.1,0.3-0.3,0.5-0.4
			s0.5-0.3,0.7-0.4c0.3-0.1,0.6-0.2,0.9-0.3s0.7-0.1,1-0.1c0.5,0,0.9,0.1,1.3,0.2c0.4,0.1,0.6,0.3,0.9,0.5s0.4,0.4,0.5,0.7
			s0.2,0.5,0.2,0.8s-0.1,0.6-0.2,0.8c-0.1,0.2-0.3,0.6-0.5,0.8s-0.4,0.5-0.7,0.8s-0.6,0.5-0.9,0.8s-0.7,0.5-1,0.7s-0.7,0.4-1.1,0.6
			l4-0.3l0.5-0.9l0.7,0.1l-0.3,1.8h-6.4L184.2,68z"/>
		<path class="st5" d="M193.7,69.8c0.1,0,0.3,0,0.4,0c0.5,0,0.9-0.1,1.3-0.2c0.4-0.1,0.8-0.3,1.1-0.5s0.5-0.5,0.7-0.8
			s0.3-0.7,0.3-1.1c0-0.3,0-0.6-0.1-0.9c-0.1-0.2-0.2-0.4-0.4-0.6s-0.4-0.3-0.6-0.3s-0.5-0.1-0.8-0.1c-0.1,0-0.3,0-0.4,0
			s-0.3,0-0.5,0.1c-0.2,0-0.3,0.1-0.4,0.1s-0.3,0.1-0.4,0.2l-0.4-0.3l0.6-4.3h3.7l0.1-0.2h0.9l-0.3,1.3H195l-0.5,2.7
			c0.1-0.1,0.3-0.1,0.4-0.2s0.3-0.1,0.5-0.1s0.3-0.1,0.5-0.1s0.4,0,0.5,0c0.4,0,0.8,0,1.1,0.1s0.6,0.3,0.8,0.5s0.4,0.5,0.5,0.8
			s0.2,0.7,0.2,1.1c0,0.3-0.1,0.6-0.2,0.9c-0.1,0.3-0.3,0.6-0.5,0.8c-0.2,0.3-0.4,0.5-0.7,0.7s-0.6,0.4-1,0.6s-0.8,0.3-1.2,0.4
			s-0.9,0.1-1.4,0.1c-0.1,0-0.3,0-0.5,0s-0.3,0-0.5-0.1v-0.6C193.4,69.8,193.6,69.8,193.7,69.8z"/>
		<path class="st5" d="M204.8,68.5c-0.6,0-1.1-0.1-1.5-0.3s-0.8-0.5-1-0.8s-0.5-0.8-0.6-1.2c-0.1-0.5-0.2-1-0.2-1.5
			c0-0.6,0.1-1.1,0.3-1.6s0.5-0.9,0.8-1.2s0.7-0.6,1.1-0.7s0.9-0.3,1.4-0.3c0.6,0,1.1,0.1,1.5,0.3s0.8,0.4,1,0.8
			c0.3,0.3,0.4,0.7,0.6,1.2s0.2,1,0.2,1.5c0,0.6-0.1,1.1-0.3,1.6s-0.4,0.9-0.8,1.2s-0.7,0.6-1.1,0.8S205.2,68.5,204.8,68.5z
			 M204.9,67.9c0.3,0,0.6-0.1,0.9-0.2c0.2-0.1,0.4-0.4,0.6-0.6c0.1-0.3,0.2-0.6,0.3-1s0.1-0.8,0.1-1.3s0-0.9-0.1-1.3
			c-0.1-0.4-0.2-0.7-0.3-1s-0.3-0.5-0.6-0.6s-0.5-0.2-0.9-0.2c-0.3,0-0.6,0.1-0.9,0.2c-0.2,0.1-0.4,0.3-0.6,0.6
			c-0.1,0.3-0.3,0.6-0.3,1s-0.1,0.5-0.1,1s0,0.9,0.1,1.3s0.2,0.8,0.3,1.1c0.1,0.3,0.3,0.5,0.6,0.7S204.5,67.9,204.9,67.9z"/>
		<path class="st5" d="M213.8,68.5c-0.6,0-1.1-0.1-1.5-0.3s-0.8-0.5-1-0.8s-0.5-0.8-0.6-1.2c-0.1-0.5-0.2-1-0.2-1.5
			c0-0.6,0.1-1.1,0.3-1.6s0.5-0.9,0.8-1.2s0.7-0.6,1.1-0.7s0.9-0.3,1.4-0.3c0.6,0,1.1,0.1,1.5,0.3s0.8,0.4,1,0.8
			c0.3,0.3,0.4,0.7,0.6,1.2s0.2,1,0.2,1.5c0,0.6-0.1,1.1-0.3,1.6s-0.4,0.9-0.8,1.2s-0.7,0.6-1.1,0.8S214.3,68.5,213.8,68.5z
			 M214,67.9c0.3,0,0.6-0.1,0.9-0.2c0.2-0.1,0.4-0.4,0.6-0.6c0.1-0.3,0.2-0.6,0.3-1s0.1-0.8,0.1-1.3s0-0.9-0.1-1.3
			c-0.1-0.4-0.2-0.7-0.3-1s-0.3-0.5-0.6-0.6s-0.5-0.2-0.9-0.2c-0.3,0-0.6,0.1-0.9,0.2c-0.2,0.1-0.4,0.3-0.6,0.6
			c-0.1,0.3-0.3,0.6-0.3,1s-0.1,0.8-0.1,1.3s0,0.9,0.1,1.3s0.2,0.8,0.3,1.1c0.1,0.3,0.3,0.5,0.6,0.7S213.6,67.9,214,67.9z"/>
		<path class="st5" d="M222.9,68.5c-0.6,0-1.1-0.1-1.5-0.3s-0.8-0.5-1-0.8s-0.5-0.8-0.6-1.2c-0.1-0.5-0.2-1-0.2-1.5
			c0-0.6,0.1-1.1,0.3-1.6s0.5-0.9,0.8-1.2s0.7-0.6,1.1-0.7s0.9-0.3,1.4-0.3c0.6,0,1.1,0.1,1.5,0.3s0.8,0.4,1,0.8
			c0.3,0.3,0.4,0.7,0.6,1.2s0.2,1,0.2,1.5c0,0.6-0.1,1.1-0.3,1.6s-0.4,0.9-0.8,1.2s-0.7,0.6-1.1,0.8S223.4,68.5,222.9,68.5z
			 M223.1,67.9c0.3,0,0.6-0.1,0.9-0.2c0.2-0.1,0.4-0.4,0.6-0.6c0.1-0.3,0.2-0.6,0.3-1s0.1-0.8,0.1-1.3s0-0.9-0.1-1.3
			c-0.1-0.4-0.2-0.7-0.3-1s-0.3-0.5-0.6-0.6s-0.5-0.2-0.9-0.2c-0.3,0-0.6,0.1-0.9,0.2c-0.2,0.1-0.4,0.3-0.6,0.6
			c-0.1,0.3-0.3,0.6-0.3,1s-0.1,0.8-0.1,1.3s0,0.9,0.1,1.3s0.2,0.8,0.3,1.1c0.1,0.3,0.3,0.5,0.6,0.7S222.7,67.9,223.1,67.9z"/>
	</g>
</g>
<g>
	<g>
		<path class="st5" d="M184.5,44.6c0.1,0,0.2,0,0.3,0s0.2,0,0.3,0s0.2,0,0.3,0c0.5,0,1-0.1,1.4-0.2c0.4-0.1,0.7-0.3,1-0.5
			s0.5-0.4,0.6-0.7s0.2-0.5,0.2-0.8s0-0.5-0.1-0.7s-0.2-0.4-0.4-0.5s-0.4-0.3-0.7-0.3c-0.3-0.1-0.6-0.1-1-0.1h-0.1
			c-0.1,0-0.2,0-0.3,0.1c-0.1,0-0.2,0-0.3,0.1s-0.1,0-0.1,0l-0.2-0.7c0.2,0,0.4-0.1,0.5-0.1c0.2,0,0.3-0.1,0.5-0.2
			c0.3-0.1,0.5-0.2,0.7-0.4c0.2-0.1,0.4-0.3,0.6-0.5c0.2-0.2,0.3-0.3,0.4-0.5c0.1-0.2,0.1-0.4,0.1-0.6c0-0.2,0-0.4-0.1-0.6
			c-0.1-0.2-0.2-0.3-0.3-0.4c-0.1-0.1-0.3-0.2-0.5-0.2s-0.4-0.1-0.6-0.1c-0.2,0-0.4,0-0.6,0.1c-0.2,0-0.4,0.1-0.6,0.1
			c-0.2,0.1-0.3,0.1-0.5,0.2c-0.2,0.1-0.3,0.2-0.4,0.3l-0.4-0.6c0.1-0.1,0.3-0.2,0.5-0.3s0.4-0.2,0.7-0.3s0.5-0.2,0.8-0.3
			s0.6-0.1,0.9-0.1c0.4,0,0.7,0,1,0.1s0.6,0.2,0.9,0.3c0.2,0.2,0.4,0.4,0.6,0.6s0.2,0.5,0.2,0.9c0,0.3-0.1,0.6-0.2,0.8
			c-0.1,0.3-0.3,0.5-0.5,0.7s-0.5,0.4-0.8,0.6c-0.3,0.2-0.6,0.3-0.9,0.4c0.5,0,0.9,0,1.2,0.1s0.7,0.2,0.9,0.4
			c0.3,0.2,0.5,0.4,0.6,0.7s0.2,0.5,0.2,0.8c0,0.4-0.1,0.8-0.3,1.2s-0.5,0.7-0.9,1s-0.9,0.5-1.5,0.6s-1.2,0.2-1.9,0.2
			c-0.1,0-0.2,0-0.3,0s-0.2,0-0.4,0s-0.2,0-0.3,0s-0.2,0-0.3-0.1v-0.7C184.3,44.6,184.4,44.6,184.5,44.6z"/>
		<path class="st5" d="M195.7,43.5c-0.6,0-1.1-0.1-1.5-0.3s-0.8-0.5-1-0.8s-0.5-0.8-0.6-1.2c-0.1-0.5-0.2-1-0.2-1.5
			c0-0.6,0.1-1.1,0.3-1.6s0.5-0.9,0.8-1.2s0.7-0.6,1.1-0.7s0.9-0.3,1.4-0.3c0.6,0,1.1,0.1,1.5,0.3s0.8,0.4,1,0.8
			c0.3,0.3,0.4,0.7,0.6,1.2s0.2,1,0.2,1.5c0,0.6-0.1,1.1-0.3,1.6s-0.4,0.9-0.8,1.2s-0.7,0.6-1.1,0.8S196.2,43.5,195.7,43.5z
			 M195.8,42.9c0.3,0,0.6-0.1,0.9-0.2c0.2-0.1,0.4-0.4,0.6-0.6c0.1-0.3,0.2-0.6,0.3-1s0.1-0.8,0.1-1.3s0-0.9-0.1-1.3
			c-0.1-0.4-0.2-0.7-0.3-1s-0.3-0.5-0.6-0.6s-0.5-0.2-0.9-0.2c-0.3,0-0.6,0.1-0.9,0.2c-0.2,0.1-0.4,0.3-0.6,0.6
			c-0.1,0.3-0.3,0.6-0.3,1s-0.1,0.8-0.1,1.3s0,0.9,0.1,1.3c0.1,0.4,0.2,0.8,0.3,1.1s0.3,0.5,0.6,0.7S195.4,42.9,195.8,42.9z"/>
		<path class="st5" d="M204.8,43.5c-0.6,0-1.1-0.1-1.5-0.3s-0.8-0.5-1-0.8s-0.5-0.8-0.6-1.2c-0.1-0.5-0.2-1-0.2-1.5
			c0-0.6,0.1-1.1,0.3-1.6s0.5-0.9,0.8-1.2s0.7-0.6,1.1-0.7s0.9-0.3,1.4-0.3c0.6,0,1.1,0.1,1.5,0.3s0.8,0.4,1,0.8
			c0.3,0.3,0.4,0.7,0.6,1.2s0.2,1,0.2,1.5c0,0.6-0.1,1.1-0.3,1.6s-0.4,0.9-0.8,1.2s-0.7,0.6-1.1,0.8S205.2,43.5,204.8,43.5z
			 M204.9,42.9c0.3,0,0.6-0.1,0.9-0.2c0.2-0.1,0.4-0.4,0.6-0.6c0.1-0.3,0.2-0.6,0.3-1s0.1-0.8,0.1-1.3s0-0.9-0.1-1.3
			c-0.1-0.4-0.2-0.7-0.3-1s-0.3-0.5-0.6-0.6s-0.5-0.2-0.9-0.2c-0.3,0-0.6,0.1-0.9,0.2c-0.2,0.1-0.4,0.3-0.6,0.6
			c-0.1,0.3-0.3,0.6-0.3,1s-0.1,0.8-0.1,1.3s0,0.9,0.1,1.3c0.1,0.4,0.2,0.8,0.3,1.1s0.3,0.5,0.6,0.7S204.5,42.9,204.9,42.9z"/>
		<path class="st5" d="M213.8,43.5c-0.6,0-1.1-0.1-1.5-0.3s-0.8-0.5-1-0.8s-0.5-0.8-0.6-1.2c-0.1-0.5-0.2-1-0.2-1.5
			c0-0.6,0.1-1.1,0.3-1.6s0.5-0.9,0.8-1.2s0.7-0.6,1.1-0.7s0.9-0.3,1.4-0.3c0.6,0,1.1,0.1,1.5,0.3s0.8,0.4,1,0.8
			c0.3,0.3,0.4,0.7,0.6,1.2s0.2,1,0.2,1.5c0,0.6-0.1,1.1-0.3,1.6s-0.4,0.9-0.8,1.2s-0.7,0.6-1.1,0.8S214.3,43.5,213.8,43.5z
			 M214,42.9c0.3,0,0.6-0.1,0.9-0.2c0.2-0.1,0.4-0.4,0.6-0.6c0.1-0.3,0.2-0.6,0.3-1s0.1-0.8,0.1-1.3s0-0.9-0.1-1.3
			c-0.1-0.4-0.2-0.7-0.3-1s-0.3-0.5-0.6-0.6s-0.5-0.2-0.9-0.2c-0.3,0-0.6,0.1-0.9,0.2c-0.2,0.1-0.4,0.3-0.6,0.6
			c-0.1,0.3-0.3,0.6-0.3,1s-0.1,0.8-0.1,1.3s0,0.9,0.1,1.3c0.1,0.4,0.2,0.8,0.3,1.1s0.3,0.5,0.6,0.7S213.6,42.9,214,42.9z"/>
		<path class="st5" d="M222.9,43.5c-0.6,0-1.1-0.1-1.5-0.3s-0.8-0.5-1-0.8s-0.5-0.8-0.6-1.2c-0.1-0.5-0.2-1-0.2-1.5
			c0-0.6,0.1-1.1,0.3-1.6s0.5-0.9,0.8-1.2s0.7-0.6,1.1-0.7s0.9-0.3,1.4-0.3c0.6,0,1.1,0.1,1.5,0.3s0.8,0.4,1,0.8
			c0.3,0.3,0.4,0.7,0.6,1.2s0.2,1,0.2,1.5c0,0.6-0.1,1.1-0.3,1.6s-0.4,0.9-0.8,1.2s-0.7,0.6-1.1,0.8S223.4,43.5,222.9,43.5z
			 M223.1,42.9c0.3,0,0.6-0.1,0.9-0.2c0.2-0.1,0.4-0.4,0.6-0.6c0.1-0.3,0.2-0.6,0.3-1s0.1-0.8,0.1-1.3s0-0.9-0.1-1.3
			c-0.1-0.4-0.2-0.7-0.3-1s-0.3-0.5-0.6-0.6s-0.5-0.2-0.9-0.2c-0.3,0-0.6,0.1-0.9,0.2c-0.2,0.1-0.4,0.3-0.6,0.6
			c-0.1,0.3-0.3,0.6-0.3,1s-0.1,0.8-0.1,1.3s0,0.9,0.1,1.3c0.1,0.4,0.2,0.8,0.3,1.1s0.3,0.5,0.6,0.7S222.7,42.9,223.1,42.9z"/>
	</g>
</g>
<g>
	<g>
		<path class="st5" d="M185.2,19.6c0.1,0,0.2,0,0.3,0s0.2,0,0.3,0s0.2,0,0.3,0c0.5,0,1-0.1,1.4-0.2s0.7-0.3,1-0.5s0.5-0.4,0.6-0.7
			c0.1-0.3,0.2-0.5,0.2-0.8s0-0.5-0.1-0.7s-0.2-0.4-0.4-0.5s-0.4-0.3-0.7-0.3c-0.3-0.1-0.6-0.1-1-0.1H187c-0.1,0-0.2,0-0.3,0.1
			c-0.1,0-0.2,0-0.3,0.1c-0.1,0.1-0.1,0-0.1,0l-0.2-0.7c0.2,0,0.4-0.1,0.5-0.1c0.2,0,0.3-0.1,0.5-0.2c0.3-0.1,0.5-0.2,0.7-0.4
			c0.2-0.1,0.4-0.3,0.6-0.5c0.2-0.2,0.3-0.3,0.4-0.5c0.1-0.2,0.1-0.4,0.1-0.6c0-0.2,0-0.4-0.1-0.6c-0.1-0.2-0.2-0.3-0.3-0.4
			c-0.1-0.1-0.3-0.2-0.5-0.2s-0.4-0.1-0.6-0.1c-0.2,0-0.4,0-0.6,0.1c-0.2,0-0.4,0.1-0.6,0.1c-0.2,0.1-0.3,0.1-0.5,0.2
			c-0.2,0.1-0.3,0.2-0.4,0.3l-0.4-0.6c0.1-0.1,0.3-0.2,0.5-0.3s0.4-0.2,0.7-0.3s0.5-0.2,0.8-0.3s0.6-0.1,0.9-0.1c0.4,0,0.7,0,1,0.1
			s0.6,0.2,0.9,0.3c0.2,0.2,0.4,0.4,0.6,0.6s0.2,0.5,0.2,0.9c0,0.3-0.1,0.6-0.2,0.8c-0.1,0.3-0.3,0.5-0.5,0.7s-0.5,0.4-0.8,0.6
			c-0.3,0.2-0.6,0.3-0.9,0.4c0.5,0,0.9,0,1.2,0.1s0.7,0.2,0.9,0.4c0.3,0.2,0.5,0.4,0.6,0.7s0.2,0.5,0.2,0.8c0,0.4-0.1,0.8-0.3,1.2
			c-0.2,0.4-0.5,0.7-0.9,1s-0.9,0.5-1.5,0.6s-1.2,0.2-1.9,0.2c-0.1,0-0.2,0-0.3,0s-0.2,0-0.4,0s-0.2,0-0.3,0s-0.2,0-0.3-0.1v-0.7
			C185,19.6,185.1,19.6,185.2,19.6z"/>
		<path class="st5" d="M193.7,19.8c0.1,0,0.3,0,0.4,0c0.5,0,0.9-0.1,1.3-0.2c0.4-0.1,0.8-0.3,1.1-0.5s0.5-0.5,0.7-0.8
			s0.3-0.7,0.3-1.1c0-0.3,0-0.6-0.1-0.9c-0.1-0.2-0.2-0.4-0.4-0.6s-0.4-0.3-0.6-0.3s-0.5-0.1-0.8-0.1c-0.1,0-0.3,0-0.4,0
			s-0.3,0-0.5,0.1c-0.2,0-0.3,0.1-0.4,0.1s-0.3,0.1-0.4,0.2l-0.4-0.3l0.6-4.3h3.7l0.1-0.2h0.9l-0.3,1.3H195l-0.5,2.7
			c0.1-0.1,0.3-0.1,0.4-0.2s0.3-0.1,0.5-0.1s0.3-0.1,0.5-0.1s0.4,0,0.5,0c0.4,0,0.8,0,1.1,0.1s0.6,0.3,0.8,0.5s0.4,0.5,0.5,0.8
			s0.2,0.7,0.2,1.1c0,0.3-0.1,0.6-0.2,0.9c-0.1,0.3-0.3,0.6-0.5,0.8c-0.2,0.3-0.4,0.5-0.7,0.7s-0.6,0.4-1,0.6s-0.8,0.3-1.2,0.4
			s-0.9,0.1-1.4,0.1c-0.1,0-0.3,0-0.5,0s-0.3,0-0.5-0.1v-0.6C193.4,19.8,193.6,19.8,193.7,19.8z"/>
		<path class="st5" d="M204.8,18.5c-0.6,0-1.1-0.1-1.5-0.3s-0.8-0.5-1-0.8s-0.5-0.8-0.6-1.2c-0.1-0.5-0.2-1-0.2-1.5
			c0-0.6,0.1-1.1,0.3-1.6s0.5-0.9,0.8-1.2s0.7-0.6,1.1-0.7s0.9-0.3,1.4-0.3c0.6,0,1.1,0.1,1.5,0.3s0.8,0.4,1,0.8
			c0.3,0.3,0.4,0.7,0.6,1.2s0.2,1,0.2,1.5c0,0.6-0.1,1.1-0.3,1.6s-0.4,0.9-0.8,1.2s-0.7,0.6-1.1,0.8S205.2,18.5,204.8,18.5z
			 M204.9,17.9c0.3,0,0.6-0.1,0.9-0.2c0.2-0.1,0.4-0.4,0.6-0.6c0.1-0.3,0.2-0.6,0.3-1s0.1-0.8,0.1-1.3s0-0.9-0.1-1.3
			c-0.1-0.4-0.2-0.7-0.3-1s-0.3-0.5-0.6-0.6s-0.5-0.2-0.9-0.2c-0.3,0-0.6,0.1-0.9,0.2c-0.2,0.1-0.4,0.3-0.6,0.6
			c-0.1,0.3-0.3,0.6-0.3,1s-0.1,0.8-0.1,1.3s0,0.9,0.1,1.3c0.1,0.4,0.2,0.8,0.3,1.1c0.1,0.3,0.3,0.5,0.6,0.7S204.5,17.9,204.9,17.9z
			"/>
		<path class="st5" d="M213.8,18.5c-0.6,0-1.1-0.1-1.5-0.3s-0.8-0.5-1-0.8s-0.5-0.8-0.6-1.2c-0.1-0.5-0.2-1-0.2-1.5
			c0-0.6,0.1-1.1,0.3-1.6s0.5-0.9,0.8-1.2s0.7-0.6,1.1-0.7s0.9-0.3,1.4-0.3c0.6,0,1.1,0.1,1.5,0.3s0.8,0.4,1,0.8
			c0.3,0.3,0.4,0.7,0.6,1.2s0.2,1,0.2,1.5c0,0.6-0.1,1.1-0.3,1.6s-0.4,0.9-0.8,1.2s-0.7,0.6-1.1,0.8S214.3,18.5,213.8,18.5z
			 M214,17.9c0.3,0,0.6-0.1,0.9-0.2c0.2-0.1,0.4-0.4,0.6-0.6c0.1-0.3,0.2-0.6,0.3-1s0.1-0.8,0.1-1.3s0-0.9-0.1-1.3
			c-0.1-0.4-0.2-0.7-0.3-1s-0.3-0.5-0.6-0.6s-0.5-0.2-0.9-0.2c-0.3,0-0.6,0.1-0.9,0.2c-0.2,0.1-0.4,0.3-0.6,0.6
			c-0.1,0.3-0.3,0.6-0.3,1s-0.1,0.8-0.1,1.3s0,0.9,0.1,1.3c0.1,0.4,0.2,0.8,0.3,1.1c0.1,0.3,0.3,0.5,0.6,0.7S213.6,17.9,214,17.9z"
			/>
		<path class="st5" d="M222.9,18.5c-0.6,0-1.1-0.1-1.5-0.3s-0.8-0.5-1-0.8s-0.5-0.8-0.6-1.2c-0.1-0.5-0.2-1-0.2-1.5
			c0-0.6,0.1-1.1,0.3-1.6s0.5-0.9,0.8-1.2s0.7-0.6,1.1-0.7s0.9-0.3,1.4-0.3c0.6,0,1.1,0.1,1.5,0.3s0.8,0.4,1,0.8
			c0.3,0.3,0.4,0.7,0.6,1.2s0.2,1,0.2,1.5c0,0.6-0.1,1.1-0.3,1.6s-0.4,0.9-0.8,1.2s-0.7,0.6-1.1,0.8S223.4,18.5,222.9,18.5z
			 M223.1,17.9c0.3,0,0.6-0.1,0.9-0.2c0.2-0.1,0.4-0.4,0.6-0.6c0.1-0.3,0.2-0.6,0.3-1s0.1-0.8,0.1-1.3s0-0.9-0.1-1.3
			c-0.1-0.4-0.2-0.7-0.3-1s-0.3-0.5-0.6-0.6s-0.5-0.2-0.9-0.2c-0.3,0-0.6,0.1-0.9,0.2c-0.2,0.1-0.4,0.3-0.6,0.6
			c-0.1,0.3-0.3,0.6-0.3,1s-0.1,0.8-0.1,1.3s0,0.9,0.1,1.3c0.1,0.4,0.2,0.8,0.3,1.1c0.1,0.3,0.3,0.5,0.6,0.7S222.7,17.9,223.1,17.9z
			"/>
	</g>
</g>
<g>
	<g>
		<path class="st6" d="M169.5,155.8l-0.1-1l-7.3-0.9l-0.1,1.2h-0.7V152l5.4-1.8l1.3-0.3l-1.3-0.3l-5.4-1.6v-3h0.7l0.2,1.3l7.3-1.1
			l0.1-1h0.6v3.4h-0.6l-0.1-1l-5.3,0.7l-2.3,0.2l1.6,0.4l6.4,1.9v0.7l-5.8,2.1l-2.3,0.6l2.3,0.2l5.3,0.5l0.1-1.1h0.6v3.1
			L169.5,155.8L169.5,155.8z"/>
		<path class="st6" d="M162.1,142.6c0,0.1-0.1,0.2-0.2,0.2s-0.2,0.1-0.3,0.2s-0.2,0.1-0.3,0.1s-0.2,0-0.4-0.1s-0.2-0.1-0.3-0.2
			s-0.2-0.2-0.2-0.3s-0.1-0.2-0.1-0.4l0,0c0-0.1,0-0.2,0.1-0.3s0.1-0.2,0.2-0.2s0.2-0.1,0.3-0.2s0.2-0.1,0.3-0.1s0.3,0,0.4,0.1
			s0.2,0.1,0.3,0.2s0.2,0.2,0.2,0.3s0.1,0.2,0.1,0.4l0,0C162.1,142.4,162.1,142.5,162.1,142.6z M169.5,143.7l-0.1-0.9h-4.9l-0.2,0.8
			h-0.7l-0.2-1.8l0,0l0.2-0.3h5.9l0.1-0.9h0.6v3.1L169.5,143.7L169.5,143.7z"/>
		<path class="st6" d="M169.5,139.8l-0.1-0.9h-8.2l-0.1,0.9h-0.6l-0.3-1.9l0,0l0.2-0.3h8.9l0.1-1h0.6v3.2H169.5z"/>
		<path class="st6" d="M169.5,135.9l-0.1-0.9h-8.2l-0.1,0.9h-0.6l-0.3-1.9l0,0l0.2-0.3h8.9l0.1-1h0.6v3.2H169.5z"/>
		<path class="st6" d="M162.1,130.9c0,0.1-0.1,0.2-0.2,0.2s-0.2,0.1-0.3,0.2s-0.2,0.1-0.3,0.1s-0.2,0-0.4-0.1s-0.2-0.1-0.3-0.2
			s-0.2-0.2-0.2-0.3s-0.1-0.2-0.1-0.4l0,0c0-0.1,0-0.2,0.1-0.3s0.1-0.2,0.2-0.2s0.2-0.1,0.3-0.2s0.2-0.1,0.3-0.1s0.3,0,0.4,0.1
			s0.2,0.1,0.3,0.2s0.2,0.2,0.2,0.3s0.1,0.2,0.1,0.4l0,0C162.1,130.7,162.1,130.8,162.1,130.9z M169.5,132l-0.1-0.9h-4.9l-0.2,0.8
			h-0.7l-0.2-1.8l0,0l0.2-0.3h5.9l0.1-0.9h0.6v3.1L169.5,132L169.5,132z"/>
		<path class="st6" d="M166.8,128.1c-0.5,0-1-0.1-1.4-0.3s-0.8-0.4-1-0.7c-0.3-0.3-0.5-0.6-0.6-1s-0.2-0.7-0.2-1.1
			c0-0.5,0.1-1,0.3-1.3s0.4-0.7,0.7-0.9s0.7-0.4,1.1-0.5c0.4-0.1,0.8-0.2,1.3-0.2s1,0.1,1.4,0.3c0.4,0.2,0.8,0.4,1,0.7
			c0.3,0.3,0.5,0.6,0.6,1s0.2,0.8,0.2,1.1c0,0.5-0.1,1-0.3,1.3s-0.4,0.7-0.7,0.9s-0.7,0.4-1.1,0.5
			C167.7,128,167.3,128.1,166.8,128.1z M169.4,125c0-1.1-0.8-1.6-2.5-1.6c-0.4,0-0.7,0-1.1,0.1c-0.3,0.1-0.6,0.1-0.9,0.3
			c-0.2,0.1-0.4,0.3-0.6,0.5c-0.1,0.2-0.2,0.4-0.2,0.7c0,0.5,0.2,0.9,0.6,1.2s1,0.4,1.9,0.4c0.4,0,0.7,0,1.1-0.1
			c0.3-0.1,0.6-0.2,0.9-0.3s0.4-0.3,0.6-0.5C169.4,125.6,169.4,125.3,169.4,125z"/>
		<path class="st6" d="M169.5,121l-0.1-0.7h-4.8l-0.2,0.8h-0.7l-0.2-1.7l0,0l0.2-0.3h0.5h0.3c-0.1-0.1-0.2-0.3-0.4-0.5
			c-0.1-0.2-0.2-0.4-0.3-0.6s-0.2-0.4-0.2-0.7c-0.1-0.2-0.1-0.4-0.1-0.7c0-0.4,0.1-0.7,0.2-0.9c0.1-0.2,0.3-0.4,0.5-0.6
			s0.5-0.2,0.8-0.3c0.3-0.1,0.8-0.1,1.2-0.1h3.2l0.1-0.8h0.6v2.9h-0.6l-0.1-0.7h-3.2c-0.3,0-0.6,0-0.8,0s-0.4,0.1-0.6,0.2
			c-0.1,0.1-0.3,0.2-0.3,0.3c-0.1,0.2-0.1,0.3-0.1,0.6c0,0.1,0,0.3,0.1,0.4c0,0.1,0.1,0.3,0.1,0.4c0.1,0.1,0.1,0.3,0.2,0.4
			c0.1,0.1,0.2,0.2,0.2,0.3h4.4l0.1-0.8h0.6v2.8h-0.6V121z"/>
		<path class="st6" d="M168.2,113.1v-0.8l0.8-0.2c0.1,0,0.1-0.1,0.2-0.2c0.1-0.1,0.1-0.2,0.2-0.3c0-0.1,0.1-0.2,0.1-0.4s0-0.3,0-0.4
			c0-0.2,0-0.4-0.1-0.6c0-0.2-0.1-0.3-0.2-0.4c-0.1-0.1-0.2-0.2-0.3-0.2s-0.2-0.1-0.4-0.1c-0.1,0-0.3,0-0.4,0.1s-0.2,0.2-0.3,0.3
			c-0.1,0.1-0.2,0.3-0.3,0.5s-0.2,0.5-0.3,0.8s-0.2,0.5-0.4,0.8c-0.1,0.2-0.3,0.4-0.4,0.5s-0.3,0.3-0.5,0.3
			c-0.2,0.1-0.4,0.1-0.7,0.1s-0.5-0.1-0.7-0.2s-0.4-0.3-0.5-0.5s-0.3-0.5-0.3-0.8c-0.1-0.3-0.1-0.6-0.1-0.9c0-0.2,0-0.5,0-0.7
			s0.1-0.4,0.1-0.5c0-0.2,0.1-0.3,0.1-0.4s0.1-0.2,0.1-0.3h1.4v0.7l-0.8,0.2l-0.1,0.1c0,0.1-0.1,0.1-0.1,0.2s-0.1,0.2-0.1,0.3
			s0,0.2,0,0.4c0,0.2,0,0.3,0.1,0.5c0,0.1,0.1,0.3,0.2,0.4c0.1,0.1,0.2,0.2,0.3,0.2s0.2,0.1,0.3,0.1c0.2,0,0.3,0,0.5-0.1
			c0.1-0.1,0.2-0.2,0.3-0.3s0.2-0.3,0.3-0.5s0.2-0.4,0.2-0.6c0.1-0.3,0.2-0.5,0.3-0.7s0.3-0.5,0.4-0.6c0.2-0.2,0.3-0.3,0.5-0.4
			s0.5-0.2,0.7-0.2c0.3,0,0.5,0.1,0.8,0.2c0.2,0.1,0.4,0.3,0.6,0.5c0.2,0.2,0.3,0.5,0.4,0.8c0.1,0.3,0.1,0.7,0.1,1.1
			c0,0.2,0,0.4-0.1,0.7s-0.1,0.4-0.1,0.6s-0.1,0.4-0.2,0.5s-0.1,0.3-0.2,0.4H168.2z"/>
		<path class="st6" d="M166.8,103.9c-0.5,0-1-0.1-1.4-0.3c-0.4-0.2-0.8-0.4-1-0.7c-0.3-0.3-0.5-0.6-0.6-1s-0.2-0.7-0.2-1.1
			c0-0.5,0.1-1,0.3-1.3s0.4-0.7,0.7-0.9s0.7-0.4,1.1-0.5c0.4-0.1,0.8-0.2,1.3-0.2s1,0.1,1.4,0.3c0.4,0.2,0.8,0.4,1,0.7
			c0.3,0.3,0.5,0.6,0.6,1s0.2,0.8,0.2,1.1c0,0.5-0.1,1-0.3,1.3s-0.4,0.7-0.7,0.9s-0.7,0.4-1.1,0.5S167.3,103.9,166.8,103.9z
			 M169.4,100.8c0-1.1-0.8-1.6-2.5-1.6c-0.4,0-0.7,0-1.1,0.1c-0.3,0.1-0.6,0.1-0.9,0.3c-0.2,0.1-0.4,0.3-0.6,0.5
			c-0.1,0.2-0.2,0.4-0.2,0.7c0,0.5,0.2,0.9,0.6,1.2s1,0.4,1.9,0.4c0.4,0,0.7,0,1.1-0.1c0.3-0.1,0.6-0.2,0.9-0.3s0.4-0.3,0.6-0.5
			C169.4,101.4,169.4,101.1,169.4,100.8z"/>
		<path class="st6" d="M169.5,96.9l-0.1-1h-5.1V97h-0.6l-0.3-1.1H163c-0.4,0-0.7-0.1-1-0.2c-0.3-0.2-0.6-0.4-0.8-0.6
			c-0.2-0.3-0.4-0.5-0.5-0.9s-0.2-0.7-0.2-1c0-0.2,0-0.3,0-0.4s0-0.2,0.1-0.2h1.3l-0.1,0.1l-0.1,0.2c0,0.1-0.1,0.2-0.1,0.3
			c0,0.1,0,0.3,0,0.4c0,0.2,0,0.3,0,0.5c0,0.1,0.1,0.2,0.2,0.3s0.2,0.1,0.3,0.2c0.1,0,0.3,0.1,0.5,0.1h0.9V93h0.8v1.6h5.1l0.1-1.2
			h0.6v3.5H169.5z"/>
		<path class="st6" d="M172.3,87.9h-7.6l-0.2,0.8h-0.7l-0.2-1.7l0,0l0.2-0.3h0.7c-0.1-0.1-0.2-0.2-0.3-0.3c-0.1-0.1-0.2-0.3-0.3-0.4
			c-0.1-0.2-0.2-0.3-0.2-0.5s-0.1-0.4-0.1-0.6c0-0.3,0.1-0.6,0.2-1s0.3-0.6,0.6-0.8c0.3-0.2,0.6-0.4,1-0.6s0.9-0.2,1.4-0.2
			s0.9,0.1,1.4,0.2c0.4,0.2,0.8,0.4,1.1,0.7c0.3,0.3,0.6,0.6,0.8,1s0.3,0.9,0.3,1.4c0,0.1,0,0.2,0,0.3s0,0.2,0,0.3s0,0.2,0,0.3
			c0,0.1,0,0.2-0.1,0.2h1h1.2l0.1-1.2h0.7v3.3h-0.7L172.3,87.9z M169.1,86.6l0.1-0.1c0,0,0.1-0.1,0.1-0.2s0.1-0.2,0.1-0.3
			s0-0.2,0-0.4c0-0.3,0-0.5-0.1-0.7s-0.3-0.4-0.5-0.6s-0.5-0.3-0.8-0.4s-0.7-0.2-1.2-0.2c-0.4,0-0.8,0-1.1,0.1s-0.6,0.2-0.8,0.4
			c-0.2,0.2-0.3,0.3-0.4,0.5s-0.1,0.4-0.1,0.7c0,0.1,0,0.3,0.1,0.4c0,0.1,0.1,0.3,0.1,0.4c0.1,0.1,0.1,0.2,0.2,0.3
			c0.1,0.1,0.1,0.2,0.2,0.2h4.1V86.6z"/>
		<path class="st6" d="M164.2,80.7l-0.2,0.6h-0.6l-0.2-1.7l0,0l0.2-0.2h4.1c0.3,0,0.6,0,0.8,0s0.4-0.1,0.5-0.2s0.2-0.2,0.3-0.4
			c0.1-0.1,0.1-0.3,0.1-0.6c0-0.2,0-0.3-0.1-0.5c0-0.1-0.1-0.3-0.1-0.4s-0.1-0.2-0.2-0.3s-0.1-0.2-0.2-0.3h-4.5l-0.2,0.8h-0.6
			l-0.2-1.8l0,0l0.2-0.3h6v-0.7h0.6c0,0.1,0.1,0.3,0.1,0.5s0.1,0.4,0.1,0.6s0,0.4-0.1,0.5s-0.3,0.2-0.5,0.2h-0.3
			c0.1,0.1,0.2,0.2,0.3,0.4c0.1,0.1,0.2,0.3,0.3,0.5s0.2,0.4,0.2,0.6s0.1,0.4,0.1,0.6c0,0.4,0,0.7-0.1,0.9c-0.1,0.3-0.2,0.5-0.5,0.6
			s-0.5,0.3-0.8,0.4s-0.7,0.1-1.2,0.1h-3.3V80.7z"/>
		<path class="st6" d="M169.5,73.8l-0.1-0.7h-4.8l-0.2,0.8h-0.7l-0.2-1.7l0,0l0.2-0.3h0.5h0.3c-0.1-0.1-0.2-0.3-0.4-0.5
			c-0.1-0.2-0.2-0.4-0.3-0.6s-0.2-0.4-0.2-0.7c-0.1-0.2-0.1-0.4-0.1-0.7c0-0.4,0.1-0.7,0.2-0.9c0.1-0.2,0.3-0.4,0.5-0.6
			s0.5-0.2,0.8-0.3c0.3-0.1,0.8-0.1,1.2-0.1h3.2l0.1-0.8h0.6v2.9h-0.6l-0.1-0.7h-3.2c-0.3,0-0.6,0-0.8,0s-0.4,0.1-0.6,0.2
			c-0.1,0.1-0.3,0.2-0.3,0.3c-0.1,0.2-0.1,0.3-0.1,0.6c0,0.1,0,0.3,0.1,0.4c0,0.1,0.1,0.3,0.1,0.4c0.1,0.1,0.1,0.3,0.2,0.4
			c0.1,0.1,0.2,0.2,0.2,0.3h4.4l0.1-0.8h0.6v2.8h-0.6V73.8z"/>
		<path class="st6" d="M170.2,63.5c0,0.3-0.1,0.7-0.2,1s-0.3,0.6-0.6,0.8s-0.6,0.4-1,0.6C168,66,167.5,66,167,66s-0.9-0.1-1.4-0.2
			c-0.4-0.2-0.8-0.4-1.1-0.7c-0.3-0.3-0.6-0.6-0.8-1.1c-0.2-0.4-0.3-0.9-0.3-1.4c0-0.2,0-0.4,0-0.5c0-0.2,0-0.3,0.1-0.5h-2.2
			l-0.1,1.1h-0.6l-0.2-2.1l0,0l0.2-0.3h8.6v-0.7h0.6c0,0.2,0.1,0.3,0.1,0.6c0,0.2,0.1,0.4,0.1,0.7c0,0.1,0,0.2,0,0.3s0,0.1-0.1,0.2
			c0,0.1-0.1,0.1-0.2,0.1s-0.2,0-0.3,0h-0.3c0.1,0.1,0.2,0.2,0.3,0.4c0.1,0.1,0.2,0.3,0.3,0.4c0.1,0.2,0.2,0.3,0.2,0.5
			C170.1,63.1,170.2,63.3,170.2,63.5z M169.3,63c0-0.2,0-0.3-0.1-0.4c0-0.1-0.1-0.3-0.2-0.4c-0.1-0.1-0.1-0.2-0.2-0.3
			c-0.1-0.1-0.2-0.2-0.2-0.2h-4.1c0,0-0.1,0.1-0.1,0.2c0,0.1-0.1,0.2-0.1,0.3s-0.1,0.2-0.1,0.3s0,0.2,0,0.4c0,0.3,0,0.5,0.1,0.7
			s0.2,0.4,0.5,0.6s0.5,0.3,0.8,0.4s0.8,0.2,1.2,0.2s0.8,0,1.1-0.1s0.6-0.2,0.8-0.4c0.2-0.1,0.4-0.3,0.4-0.5
			C169.3,63.4,169.3,63.2,169.3,63z"/>
		<path class="st6" d="M168.2,58.6v-0.8l0.8-0.2c0.1,0,0.1-0.1,0.2-0.2c0.1-0.1,0.1-0.2,0.2-0.3c0-0.1,0.1-0.2,0.1-0.4s0-0.3,0-0.4
			c0-0.2,0-0.4-0.1-0.6c0-0.2-0.1-0.3-0.2-0.4c-0.1-0.1-0.2-0.2-0.3-0.2s-0.2-0.1-0.4-0.1c-0.1,0-0.3,0-0.4,0.1s-0.2,0.2-0.3,0.3
			s-0.2,0.3-0.3,0.5s-0.2,0.5-0.3,0.8s-0.2,0.5-0.4,0.8c-0.1,0.2-0.3,0.4-0.4,0.5s-0.3,0.3-0.5,0.3c-0.2,0.1-0.4,0.1-0.7,0.1
			s-0.5-0.1-0.7-0.2c-0.2-0.1-0.4-0.3-0.5-0.5s-0.3-0.5-0.3-0.8c-0.1-0.3-0.1-0.6-0.1-0.9c0-0.2,0-0.5,0-0.7s0.1-0.4,0.1-0.5
			c0-0.2,0.1-0.3,0.1-0.4c0-0.1,0.1-0.2,0.1-0.3h1.4V55l-0.8,0.2l-0.1,0.1c0,0.1-0.1,0.1-0.1,0.2s-0.1,0.2-0.1,0.3s0,0.2,0,0.4
			s0,0.3,0.1,0.5c0,0.1,0.1,0.3,0.2,0.4c0.1,0.1,0.2,0.2,0.3,0.2s0.2,0.1,0.3,0.1c0.2,0,0.3,0,0.5-0.1c0.1-0.1,0.2-0.2,0.3-0.3
			s0.2-0.3,0.3-0.5s0.2-0.4,0.2-0.6c0.1-0.3,0.2-0.5,0.3-0.7s0.3-0.5,0.4-0.6c0.2-0.2,0.3-0.3,0.5-0.4c0.2-0.1,0.5-0.2,0.7-0.2
			c0.3,0,0.5,0.1,0.8,0.2c0.2,0.1,0.4,0.3,0.6,0.5c0.2,0.2,0.3,0.5,0.4,0.8c0.1,0.3,0.1,0.7,0.1,1.1c0,0.2,0,0.4-0.1,0.7
			s-0.1,0.4-0.1,0.6s-0.1,0.4-0.2,0.5s-0.1,0.3-0.2,0.4h-1.4V58.6z"/>
		<path class="st6" d="M160.8,49.8v-1.1l11.5,3.1v1.1L160.8,49.8z"/>
		<path class="st6" d="M169.5,46.4l-0.1-1.2h-2.7l-4.6,2.6l-0.2,0.7h-0.7v-3.1h0.7l0.2,0.9l3.2-1.6l0.8-0.3l-0.8-0.4l-3.2-1.5
			l-0.1,0.9h-0.7v-2.7h0.7l0.1,0.8l4.6,2.4h2.7l0.1-1.3h0.6v3.9h-0.6V46.4z"/>
		<path class="st6" d="M166.8,40.3c-0.5,0-1-0.1-1.4-0.2c-0.4-0.2-0.8-0.4-1.1-0.6c-0.3-0.3-0.5-0.6-0.7-1s-0.2-0.8-0.2-1.2
			c0-0.7,0.2-1.3,0.6-1.7c0.4-0.4,0.9-0.6,1.6-0.6c0.2,0,0.4,0,0.6,0c0.2,0,0.3,0,0.4,0.1V39c0.4,0,0.8-0.1,1.1-0.2
			c0.3-0.1,0.6-0.2,0.8-0.4s0.4-0.4,0.5-0.6s0.1-0.5,0.1-0.7s0-0.3,0-0.5s-0.1-0.3-0.1-0.5c-0.1-0.2-0.1-0.3-0.2-0.4
			c-0.1-0.1-0.1-0.2-0.2-0.3l0.6-0.2c0.1,0.1,0.2,0.2,0.3,0.4s0.2,0.4,0.3,0.6s0.1,0.4,0.2,0.7c0.1,0.2,0.1,0.5,0.1,0.7
			c0,0.5-0.1,0.9-0.2,1.3s-0.4,0.7-0.7,0.9s-0.6,0.4-1.1,0.5C167.8,40.3,167.3,40.3,166.8,40.3z M166,36.3c-0.1,0-0.1,0-0.2,0
			c-0.1,0-0.1,0-0.2,0c-0.2,0-0.4,0-0.5,0.1c-0.2,0-0.3,0.1-0.5,0.2c-0.1,0.1-0.2,0.2-0.3,0.4s-0.1,0.3-0.1,0.6c0,0.2,0,0.4,0.1,0.5
			c0.1,0.2,0.2,0.3,0.3,0.4c0.1,0.1,0.3,0.2,0.6,0.3c0.2,0.1,0.5,0.1,0.9,0.1v-2.6H166z"/>
		<path class="st6" d="M168.2,34c-0.4,0-0.8-0.1-1-0.3c-0.3-0.2-0.5-0.5-0.7-0.9s-0.3-0.8-0.4-1.2c-0.1-0.5-0.1-0.9-0.1-1.4h-0.3
			c-0.2,0-0.4,0-0.6,0.1c-0.2,0-0.3,0.1-0.4,0.2c-0.1,0.1-0.2,0.2-0.2,0.4c0,0.2-0.1,0.4-0.1,0.6s0,0.4,0,0.6c0,0.2,0.1,0.4,0.1,0.6
			c0,0.2,0.1,0.3,0.2,0.5s0.1,0.3,0.2,0.4l0,0l-0.5,0.3c-0.1-0.1-0.1-0.2-0.2-0.4c-0.1-0.2-0.2-0.4-0.3-0.6s-0.2-0.5-0.3-0.8
			s-0.1-0.6-0.1-0.8c0-0.4,0-0.8,0.1-1c0.1-0.3,0.2-0.5,0.4-0.7s0.4-0.3,0.7-0.4s0.6-0.1,1-0.1h3.6v-0.7h0.6c0,0.1,0,0.2,0.1,0.3
			s0,0.2,0.1,0.3c0,0.1,0,0.2,0.1,0.3c0,0.1,0,0.2,0,0.3c0,0.1,0,0.2,0,0.3c0,0.1,0,0.1-0.1,0.2c0,0-0.1,0.1-0.2,0.1
			c-0.1,0-0.2,0-0.3,0h-0.3c0.1,0.1,0.1,0.2,0.2,0.3c0.1,0.1,0.2,0.3,0.3,0.4c0.1,0.2,0.2,0.4,0.2,0.6s0.1,0.4,0.1,0.7
			s0,0.5-0.1,0.8s-0.2,0.4-0.3,0.6c-0.2,0.2-0.4,0.3-0.6,0.4S168.6,34,168.2,34z M168.1,32.6c0.2,0,0.4,0,0.5-0.1s0.3-0.1,0.4-0.2
			s0.2-0.2,0.2-0.3s0.1-0.3,0.1-0.4s0-0.2,0-0.3s-0.1-0.2-0.1-0.3c0-0.1-0.1-0.2-0.2-0.3c-0.1-0.1-0.1-0.2-0.2-0.3h-2.1
			c0,0.4,0,0.8,0.1,1.1s0.2,0.5,0.3,0.7s0.3,0.3,0.5,0.4C167.7,32.5,167.9,32.6,168.1,32.6z"/>
		<path class="st6" d="M169.5,27.4l-0.1-0.9h-4.7l-0.2,0.8h-0.7l-0.2-1.6l0,0l0.2-0.3h0.4h0.8l0,0c0,0-0.1-0.1-0.2-0.1
			s-0.2-0.1-0.3-0.2s-0.2-0.2-0.3-0.3c-0.1-0.1-0.2-0.3-0.3-0.4c-0.1-0.2-0.2-0.3-0.2-0.5s-0.1-0.4-0.1-0.6c0-0.1,0-0.2,0-0.2
			s0-0.1,0-0.2h1.5c0,0.1-0.1,0.2-0.1,0.3c0,0.1-0.1,0.3-0.1,0.4c0,0.2,0,0.4,0,0.6s0.1,0.3,0.1,0.5s0.1,0.3,0.2,0.4
			c0.1,0.1,0.1,0.2,0.2,0.3h4.1v-1.5h0.7v3.7h-0.7V27.4z"/>
	</g>
</g>
<g>
	<g>
		<path class="st5" d="M247.1,215.7l1.6-0.1v-5.3c-0.1,0-0.2,0.1-0.4,0.1s-0.3,0.1-0.5,0.1s-0.3,0.1-0.5,0.1s-0.3,0-0.4,0l-0.2-0.7
			c0.2,0,0.5-0.1,0.7-0.2s0.5-0.2,0.7-0.3s0.4-0.2,0.6-0.3s0.4-0.2,0.5-0.4l0,0l0.8,0.1v6.7l1.5,0.1v0.6h-4.6v-0.5H247.1z"/>
		<path class="st5" d="M255,217.7c0.5-0.2,1-0.4,1.4-0.6c0.4-0.3,0.8-0.5,1.1-0.9c0.3-0.3,0.6-0.7,0.8-1c0.2-0.4,0.4-0.8,0.5-1.2
			c-0.1,0.1-0.2,0.2-0.4,0.3s-0.3,0.2-0.5,0.2c-0.2,0.1-0.3,0.1-0.5,0.2s-0.4,0.1-0.6,0.1c-0.5,0-0.9-0.1-1.2-0.2
			c-0.4-0.1-0.7-0.3-0.9-0.6s-0.5-0.5-0.6-0.9s-0.2-0.7-0.2-1.2c0-0.4,0.1-0.8,0.2-1.2c0.2-0.4,0.4-0.7,0.7-1s0.7-0.5,1.1-0.7
			c0.4-0.2,0.9-0.3,1.5-0.3s1.1,0.1,1.5,0.3s0.8,0.4,1.1,0.8s0.5,0.7,0.6,1.1c0.1,0.4,0.2,0.9,0.2,1.4s-0.1,1.1-0.2,1.5
			c-0.1,0.5-0.3,0.9-0.6,1.4s-0.5,0.8-0.8,1.2c-0.3,0.3-0.7,0.7-1.1,0.9s-0.8,0.5-1.2,0.7c-0.4,0.2-0.9,0.3-1.3,0.4L255,217.7z
			 M257,214c0.2,0,0.4,0,0.6-0.1c0.2,0,0.4-0.1,0.5-0.2s0.3-0.1,0.4-0.2c0.1-0.1,0.2-0.2,0.3-0.2c0-0.2,0.1-0.5,0.1-0.7
			c0-0.4,0-0.8,0-1.2s-0.1-0.7-0.3-1c-0.1-0.3-0.3-0.5-0.6-0.7s-0.6-0.3-1-0.3c-0.3,0-0.6,0.1-0.8,0.2c-0.2,0.1-0.4,0.3-0.6,0.5
			c-0.1,0.2-0.3,0.5-0.3,0.7c-0.1,0.3-0.1,0.5-0.1,0.8c0,0.4,0,0.8,0.1,1.1s0.2,0.5,0.4,0.7s0.3,0.3,0.5,0.4S256.7,214,257,214z"/>
		<path class="st5" d="M265,216c0.3-0.7,0.7-1.4,1-2.1s0.6-1.4,0.9-2.1c0.3-0.7,0.6-1.4,0.9-2H264l-0.5,1.5l-0.9-0.1l0.3-2.3h6
			l0.3,0.3l-3.6,9.2L264,218C264.3,217.4,264.7,216.7,265,216z"/>
		<path class="st5" d="M271.8,217.6c0.1,0,0.3,0,0.4,0c0.5,0,0.9-0.1,1.3-0.2c0.4-0.1,0.8-0.3,1.1-0.5c0.3-0.2,0.5-0.5,0.7-0.8
			s0.3-0.7,0.3-1.1c0-0.3,0-0.6-0.1-0.9c-0.1-0.2-0.2-0.4-0.4-0.6s-0.4-0.3-0.6-0.3s-0.5-0.1-0.8-0.1c-0.1,0-0.3,0-0.4,0
			s-0.3,0-0.5,0.1c-0.2,0-0.3,0.1-0.4,0.1s-0.3,0.1-0.4,0.2l-0.4-0.3l0.6-4.3h3.7l0.1-0.2h0.9l-0.3,1.3h-3.4l-0.5,2.7
			c0.1-0.1,0.3-0.1,0.4-0.2s0.3-0.1,0.5-0.1s0.3-0.1,0.5-0.1s0.4,0,0.5,0c0.4,0,0.8,0,1.1,0.1s0.6,0.3,0.8,0.5s0.4,0.5,0.5,0.8
			s0.2,0.7,0.2,1.1c0,0.3-0.1,0.6-0.2,0.9c-0.1,0.3-0.3,0.6-0.5,0.8c-0.2,0.3-0.4,0.5-0.7,0.7c-0.3,0.2-0.6,0.4-1,0.6
			c-0.4,0.2-0.8,0.3-1.2,0.4c-0.4,0.1-0.9,0.1-1.4,0.1c-0.1,0-0.3,0-0.5,0s-0.3,0-0.5-0.1v-0.6C271.6,217.6,271.7,217.6,271.8,217.6
			z"/>
	</g>
</g>
<g>
	<g>
		<path class="st5" d="M357.1,215.7l1.6-0.1v-5.3c-0.1,0-0.2,0.1-0.4,0.1c-0.2,0-0.3,0.1-0.5,0.1s-0.3,0.1-0.5,0.1s-0.3,0-0.4,0
			l-0.2-0.7c0.2,0,0.5-0.1,0.7-0.2s0.5-0.2,0.7-0.3s0.4-0.2,0.6-0.3s0.4-0.2,0.5-0.4l0,0l0.8,0.1v6.7l1.5,0.1v0.6h-4.6v-0.5H357.1z"
			/>
		<path class="st5" d="M365,217.7c0.5-0.2,1-0.4,1.4-0.6s0.8-0.5,1.1-0.9s0.6-0.7,0.8-1c0.2-0.4,0.4-0.8,0.5-1.2
			c-0.1,0.1-0.2,0.2-0.4,0.3c-0.1,0.1-0.3,0.2-0.5,0.2c-0.2,0.1-0.3,0.1-0.5,0.2s-0.4,0.1-0.6,0.1c-0.5,0-0.9-0.1-1.2-0.2
			c-0.4-0.1-0.7-0.3-0.9-0.6c-0.3-0.2-0.5-0.5-0.6-0.9s-0.2-0.7-0.2-1.2c0-0.4,0.1-0.8,0.2-1.2s0.4-0.7,0.7-1
			c0.3-0.3,0.7-0.5,1.1-0.7s0.9-0.3,1.5-0.3s1.1,0.1,1.5,0.3s0.8,0.4,1.1,0.8s0.5,0.7,0.6,1.1c0.1,0.4,0.2,0.9,0.2,1.4
			s-0.1,1.1-0.2,1.5c-0.1,0.5-0.3,0.9-0.6,1.4s-0.5,0.8-0.8,1.2s-0.7,0.7-1.1,0.9s-0.8,0.5-1.2,0.7c-0.4,0.2-0.9,0.3-1.3,0.4
			L365,217.7z M367,214c0.2,0,0.4,0,0.6-0.1c0.2,0,0.4-0.1,0.5-0.2c0.2-0.1,0.3-0.1,0.4-0.2c0.1-0.1,0.2-0.2,0.3-0.2
			c0-0.2,0.1-0.5,0.1-0.7c0-0.4,0-0.8,0-1.2s-0.1-0.7-0.3-1s-0.3-0.5-0.6-0.7s-0.6-0.3-1-0.3c-0.3,0-0.6,0.1-0.8,0.2
			s-0.4,0.3-0.6,0.5s-0.3,0.5-0.3,0.7c-0.1,0.3-0.1,0.5-0.1,0.8c0,0.4,0,0.8,0.1,1.1s0.2,0.5,0.4,0.7s0.3,0.3,0.5,0.4
			S366.7,214,367,214z"/>
		<path class="st5" d="M373,214.1c0-0.2,0-0.4,0.1-0.6s0.2-0.4,0.4-0.6s0.4-0.4,0.6-0.6c0.3-0.2,0.6-0.3,0.9-0.5
			c-0.2-0.1-0.4-0.3-0.6-0.4c-0.2-0.2-0.4-0.3-0.5-0.5c-0.2-0.2-0.3-0.4-0.4-0.6c-0.1-0.2-0.1-0.5-0.1-0.8s0.1-0.7,0.3-0.9
			c0.2-0.3,0.4-0.5,0.7-0.7c0.3-0.2,0.6-0.3,1-0.4s0.7-0.1,1.1-0.1s0.8,0,1.2,0.1c0.3,0.1,0.7,0.2,0.9,0.4c0.3,0.2,0.4,0.4,0.6,0.6
			c0.1,0.2,0.2,0.5,0.2,0.8c0,0.2,0,0.4-0.1,0.6c-0.1,0.2-0.2,0.4-0.3,0.6c-0.1,0.2-0.3,0.4-0.5,0.5c-0.2,0.2-0.5,0.3-0.7,0.5
			c0.3,0.1,0.6,0.3,0.8,0.5c0.3,0.2,0.5,0.3,0.7,0.5s0.4,0.4,0.5,0.6c0.1,0.2,0.2,0.5,0.2,0.8c0,0.4-0.1,0.7-0.3,1
			c-0.2,0.3-0.4,0.5-0.7,0.7c-0.3,0.2-0.7,0.4-1.1,0.5s-0.8,0.2-1.3,0.2c-0.4,0-0.8,0-1.2-0.1c-0.4-0.1-0.8-0.2-1.1-0.4
			c-0.3-0.2-0.6-0.4-0.8-0.7C373.1,214.9,373,214.5,373,214.1z M374.3,213.9c0,0.3,0,0.5,0.1,0.7s0.2,0.4,0.4,0.6
			c0.2,0.2,0.4,0.3,0.6,0.4c0.3,0.1,0.5,0.1,0.9,0.1c0.2,0,0.5,0,0.7-0.1s0.4-0.2,0.6-0.3s0.3-0.3,0.4-0.4c0.1-0.2,0.1-0.4,0.1-0.6
			c0-0.3-0.1-0.5-0.2-0.7c-0.2-0.2-0.4-0.4-0.6-0.5s-0.5-0.3-0.8-0.5c-0.3-0.1-0.6-0.3-0.9-0.4c-0.2,0.1-0.3,0.2-0.5,0.3
			c-0.1,0.1-0.3,0.3-0.4,0.4c-0.1,0.1-0.2,0.3-0.3,0.5C374.4,213.5,374.3,213.7,374.3,213.9z M376.9,211.3c0.2-0.1,0.3-0.2,0.5-0.3
			s0.2-0.3,0.3-0.4s0.2-0.3,0.2-0.4s0.1-0.3,0.1-0.5c0-0.3,0-0.5-0.1-0.7s-0.2-0.4-0.3-0.5c-0.1-0.1-0.3-0.2-0.5-0.3
			s-0.4-0.1-0.7-0.1c-0.2,0-0.5,0-0.7,0.1s-0.4,0.1-0.5,0.3s-0.3,0.2-0.3,0.4s-0.1,0.3-0.1,0.5s0.1,0.4,0.2,0.6
			c0.1,0.2,0.3,0.4,0.5,0.5s0.4,0.3,0.7,0.5S376.6,211.2,376.9,211.3z"/>
		<path class="st5" d="M382.7,217.6c0.1,0,0.3,0,0.4,0c0.5,0,0.9-0.1,1.3-0.2c0.4-0.1,0.8-0.3,1.1-0.5c0.3-0.2,0.5-0.5,0.7-0.8
			s0.3-0.7,0.3-1.1c0-0.3,0-0.6-0.1-0.9c-0.1-0.2-0.2-0.4-0.4-0.6s-0.4-0.3-0.6-0.3c-0.2-0.1-0.5-0.1-0.8-0.1c-0.1,0-0.3,0-0.4,0
			s-0.3,0-0.5,0.1c-0.2,0-0.3,0.1-0.4,0.1s-0.3,0.1-0.4,0.2l-0.4-0.3l0.6-4.3h3.7l0.1-0.2h0.9l-0.3,1.3H384l-0.5,2.7
			c0.1-0.1,0.3-0.1,0.4-0.2s0.3-0.1,0.5-0.1s0.3-0.1,0.5-0.1s0.4,0,0.5,0c0.4,0,0.8,0,1.1,0.1s0.6,0.3,0.8,0.5s0.4,0.5,0.5,0.8
			s0.2,0.7,0.2,1.1c0,0.3-0.1,0.6-0.2,0.9s-0.3,0.6-0.5,0.8c-0.2,0.3-0.4,0.5-0.7,0.7c-0.3,0.2-0.6,0.4-1,0.6s-0.8,0.3-1.2,0.4
			s-0.9,0.1-1.4,0.1c-0.1,0-0.3,0-0.5,0s-0.3,0-0.5-0.1v-0.6C382.4,217.6,382.5,217.6,382.7,217.6z"/>
	</g>
</g>
<g>
	<g>
		<path class="st5" d="M412.2,215.7l1.6-0.1v-5.3c-0.1,0-0.2,0.1-0.4,0.1c-0.2,0-0.3,0.1-0.5,0.1s-0.3,0.1-0.5,0.1s-0.3,0-0.4,0
			l-0.2-0.7c0.2,0,0.5-0.1,0.7-0.2s0.5-0.2,0.7-0.3s0.4-0.2,0.6-0.3s0.4-0.2,0.5-0.4l0,0l0.8,0.1v6.7l1.5,0.1v0.6H412v-0.5H412.2z"
			/>
		<path class="st5" d="M420.1,217.7c0.5-0.2,1-0.4,1.4-0.6s0.8-0.5,1.1-0.9s0.6-0.7,0.8-1c0.2-0.4,0.4-0.8,0.5-1.2
			c-0.1,0.1-0.2,0.2-0.4,0.3c-0.1,0.1-0.3,0.2-0.5,0.2c-0.2,0.1-0.3,0.1-0.5,0.2s-0.4,0.1-0.6,0.1c-0.5,0-0.9-0.1-1.2-0.2
			c-0.4-0.1-0.7-0.3-0.9-0.6c-0.3-0.2-0.5-0.5-0.6-0.9s-0.2-0.7-0.2-1.2c0-0.4,0.1-0.8,0.2-1.2s0.4-0.7,0.7-1
			c0.3-0.3,0.7-0.5,1.1-0.7s0.9-0.3,1.5-0.3s1.1,0.1,1.5,0.3s0.8,0.4,1.1,0.8s0.5,0.7,0.6,1.1c0.1,0.4,0.2,0.9,0.2,1.4
			s-0.1,1.1-0.2,1.5c-0.1,0.5-0.3,0.9-0.6,1.4s-0.5,0.8-0.8,1.2s-0.7,0.7-1.1,0.9s-0.8,0.5-1.2,0.7c-0.4,0.2-0.9,0.3-1.3,0.4
			L420.1,217.7z M422.1,214c0.2,0,0.4,0,0.6-0.1c0.2,0,0.4-0.1,0.5-0.2c0.2-0.1,0.3-0.1,0.4-0.2c0.1-0.1,0.2-0.2,0.3-0.2
			c0-0.2,0.1-0.5,0.1-0.7c0-0.4,0-0.8,0-1.2s-0.1-0.7-0.3-1s-0.3-0.5-0.6-0.7s-0.6-0.3-1-0.3c-0.3,0-0.6,0.1-0.8,0.2
			s-0.4,0.3-0.6,0.5s-0.3,0.5-0.3,0.7c-0.1,0.3-0.1,0.5-0.1,0.8c0,0.4,0,0.8,0.1,1.1s0.2,0.5,0.4,0.7s0.3,0.3,0.5,0.4
			S421.8,214,422.1,214z"/>
		<path class="st5" d="M429.5,217.7c0.5-0.2,1-0.4,1.4-0.6s0.8-0.5,1.1-0.9s0.6-0.7,0.8-1c0.2-0.4,0.4-0.8,0.5-1.2
			c-0.1,0.1-0.2,0.2-0.4,0.3c-0.1,0.1-0.3,0.2-0.5,0.2c-0.2,0.1-0.3,0.1-0.5,0.2s-0.4,0.1-0.6,0.1c-0.5,0-0.9-0.1-1.2-0.2
			c-0.4-0.1-0.7-0.3-0.9-0.6c-0.3-0.2-0.5-0.5-0.6-0.9s-0.2-0.7-0.2-1.2c0-0.4,0.1-0.8,0.2-1.2s0.4-0.7,0.7-1
			c0.3-0.3,0.7-0.5,1.1-0.7s0.9-0.3,1.5-0.3s1.1,0.1,1.5,0.3s0.8,0.4,1.1,0.8s0.5,0.7,0.6,1.1c0.1,0.4,0.2,0.9,0.2,1.4
			s-0.1,1.1-0.2,1.5c-0.1,0.5-0.3,0.9-0.6,1.4s-0.5,0.8-0.8,1.2s-0.7,0.7-1.1,0.9s-0.8,0.5-1.2,0.7c-0.4,0.2-0.9,0.3-1.3,0.4
			L429.5,217.7z M431.5,214c0.2,0,0.4,0,0.6-0.1c0.2,0,0.4-0.1,0.5-0.2c0.2-0.1,0.3-0.1,0.4-0.2c0.1-0.1,0.2-0.2,0.3-0.2
			c0-0.2,0.1-0.5,0.1-0.7c0-0.4,0-0.8,0-1.2s-0.1-0.7-0.3-1s-0.3-0.5-0.6-0.7s-0.6-0.3-1-0.3c-0.3,0-0.6,0.1-0.8,0.2
			s-0.4,0.3-0.6,0.5s-0.3,0.5-0.3,0.7c-0.1,0.3-0.1,0.5-0.1,0.8c0,0.4,0,0.8,0.1,1.1s0.2,0.5,0.4,0.7s0.3,0.3,0.5,0.4
			S431.2,214,431.5,214z"/>
		<path class="st5" d="M440.7,216.3c-0.6,0-1.1-0.1-1.5-0.3s-0.8-0.5-1-0.8s-0.5-0.8-0.6-1.2s-0.2-1-0.2-1.5c0-0.6,0.1-1.1,0.3-1.6
			s0.5-0.9,0.8-1.2s0.7-0.6,1.1-0.7s0.9-0.3,1.4-0.3c0.6,0,1.1,0.1,1.5,0.3s0.8,0.4,1,0.8c0.3,0.3,0.4,0.7,0.6,1.2s0.2,1,0.2,1.5
			c0,0.6-0.1,1.1-0.3,1.6s-0.4,0.9-0.8,1.2c-0.3,0.3-0.7,0.6-1.1,0.8C441.7,216.2,441.2,216.3,440.7,216.3z M440.8,215.7
			c0.3,0,0.6-0.1,0.9-0.2c0.2-0.1,0.4-0.4,0.6-0.6c0.1-0.3,0.2-0.6,0.3-1s0.1-0.8,0.1-1.3s0-0.9-0.1-1.3c-0.1-0.4-0.2-0.7-0.3-1
			s-0.3-0.5-0.6-0.6c-0.2-0.2-0.5-0.2-0.9-0.2c-0.3,0-0.6,0.1-0.9,0.2c-0.2,0.1-0.4,0.3-0.6,0.6c-0.1,0.3-0.3,0.6-0.3,1
			c-0.1,0.4-0.1,0.8-0.1,1.3s0,0.9,0.1,1.3c0.1,0.4,0.2,0.8,0.3,1.1s0.3,0.5,0.6,0.7S440.5,215.7,440.8,215.7z"/>
	</g>
</g>
<g>
	<g>
		<path class="st5" d="M468.3,215.7l1.6-0.1v-5.3c-0.1,0-0.2,0.1-0.4,0.1s-0.3,0.1-0.5,0.1s-0.3,0.1-0.5,0.1s-0.3,0-0.4,0l-0.2-0.7
			c0.2,0,0.5-0.1,0.7-0.2s0.5-0.2,0.7-0.3s0.4-0.2,0.6-0.3s0.4-0.2,0.5-0.4l0,0l0.8,0.1v6.7l1.5,0.1v0.6h-4.6v-0.5H468.3z"/>
		<path class="st5" d="M476.2,217.7c0.5-0.2,1-0.4,1.4-0.6c0.4-0.3,0.8-0.5,1.1-0.9c0.3-0.3,0.6-0.7,0.8-1s0.4-0.8,0.5-1.2
			c-0.1,0.1-0.2,0.2-0.4,0.3c-0.1,0.1-0.3,0.2-0.5,0.2s-0.3,0.1-0.5,0.2s-0.4,0.1-0.6,0.1c-0.5,0-0.9-0.1-1.2-0.2s-0.7-0.3-0.9-0.6
			c-0.3-0.2-0.5-0.5-0.6-0.9s-0.2-0.7-0.2-1.2c0-0.4,0.1-0.8,0.2-1.2c0.2-0.4,0.4-0.7,0.7-1s0.7-0.5,1.1-0.7s0.9-0.3,1.5-0.3
			s1.1,0.1,1.5,0.3s0.8,0.4,1.1,0.8s0.5,0.7,0.6,1.1s0.2,0.9,0.2,1.4s-0.1,1.1-0.2,1.5s-0.3,0.9-0.6,1.4s-0.5,0.8-0.8,1.2
			c-0.3,0.3-0.7,0.7-1.1,0.9s-0.8,0.5-1.2,0.7s-0.9,0.3-1.3,0.4L476.2,217.7z M478.2,214c0.2,0,0.4,0,0.6-0.1s0.4-0.1,0.5-0.2
			c0.2-0.1,0.3-0.1,0.4-0.2c0.1-0.1,0.2-0.2,0.3-0.2c0-0.2,0.1-0.5,0.1-0.7c0-0.4,0-0.8,0-1.2s-0.1-0.7-0.3-1
			c-0.1-0.3-0.3-0.5-0.6-0.7s-0.6-0.3-1-0.3c-0.3,0-0.6,0.1-0.8,0.2c-0.2,0.1-0.4,0.3-0.6,0.5c-0.1,0.2-0.3,0.5-0.3,0.7
			s-0.1,0.5-0.1,0.8c0,0.4,0,0.8,0.1,1.1s0.2,0.5,0.4,0.7s0.3,0.3,0.5,0.4S477.9,214,478.2,214z"/>
		<path class="st5" d="M485.6,217.7c0.5-0.2,1-0.4,1.4-0.6c0.4-0.3,0.8-0.5,1.1-0.9c0.3-0.3,0.6-0.7,0.8-1s0.4-0.8,0.5-1.2
			c-0.1,0.1-0.2,0.2-0.4,0.3c-0.1,0.1-0.3,0.2-0.5,0.2s-0.3,0.1-0.5,0.2s-0.4,0.1-0.6,0.1c-0.5,0-0.9-0.1-1.2-0.2s-0.7-0.3-0.9-0.6
			c-0.3-0.2-0.5-0.5-0.6-0.9s-0.2-0.7-0.2-1.2c0-0.4,0.1-0.8,0.2-1.2c0.2-0.4,0.4-0.7,0.7-1s0.7-0.5,1.1-0.7s0.9-0.3,1.5-0.3
			s1.1,0.1,1.5,0.3s0.8,0.4,1.1,0.8s0.5,0.7,0.6,1.1s0.2,0.9,0.2,1.4s-0.1,1.1-0.2,1.5s-0.3,0.9-0.6,1.4s-0.5,0.8-0.8,1.2
			c-0.3,0.3-0.7,0.7-1.1,0.9s-0.8,0.5-1.2,0.7s-0.9,0.3-1.3,0.4L485.6,217.7z M487.6,214c0.2,0,0.4,0,0.6-0.1s0.4-0.1,0.5-0.2
			c0.2-0.1,0.3-0.1,0.4-0.2c0.1-0.1,0.2-0.2,0.3-0.2c0-0.2,0.1-0.5,0.1-0.7c0-0.4,0-0.8,0-1.2s-0.1-0.7-0.3-1
			c-0.1-0.3-0.3-0.5-0.6-0.7s-0.6-0.3-1-0.3c-0.3,0-0.6,0.1-0.8,0.2c-0.2,0.1-0.4,0.3-0.6,0.5c-0.1,0.2-0.3,0.5-0.3,0.7
			s-0.1,0.5-0.1,0.8c0,0.4,0,0.8,0.1,1.1s0.2,0.5,0.4,0.7s0.3,0.3,0.5,0.4S487.3,214,487.6,214z"/>
		<path class="st5" d="M494.2,217.6c0.1,0,0.3,0,0.4,0c0.5,0,0.9-0.1,1.3-0.2c0.4-0.1,0.8-0.3,1.1-0.5c0.3-0.2,0.5-0.5,0.7-0.8
			s0.3-0.7,0.3-1.1c0-0.3,0-0.6-0.1-0.9c-0.1-0.2-0.2-0.4-0.4-0.6s-0.4-0.3-0.6-0.3c-0.2-0.1-0.5-0.1-0.8-0.1c-0.1,0-0.3,0-0.4,0
			s-0.3,0-0.5,0.1c-0.2,0-0.3,0.1-0.4,0.1s-0.3,0.1-0.4,0.2l-0.4-0.3l0.6-4.3h3.7l0.1-0.2h0.9L499,210h-3.5l-0.5,2.7
			c0.1-0.1,0.3-0.1,0.4-0.2s0.3-0.1,0.5-0.1s0.3-0.1,0.5-0.1s0.4,0,0.5,0c0.4,0,0.8,0,1.1,0.1s0.6,0.3,0.8,0.5s0.4,0.5,0.5,0.8
			s0.2,0.7,0.2,1.1c0,0.3-0.1,0.6-0.2,0.9s-0.3,0.6-0.5,0.8c-0.2,0.3-0.4,0.5-0.7,0.7c-0.3,0.2-0.6,0.4-1,0.6s-0.8,0.3-1.2,0.4
			s-0.9,0.1-1.4,0.1c-0.1,0-0.3,0-0.5,0s-0.3,0-0.5-0.1v-0.6C494,217.6,494.1,217.6,494.2,217.6z"/>
	</g>
</g>
<g>
	<g>
		<path class="st5" d="M523.5,215.8c0.4-0.2,0.8-0.4,1.2-0.7s0.7-0.5,1-0.7c0.3-0.3,0.6-0.5,0.9-0.8s0.5-0.6,0.7-0.8
			s0.3-0.6,0.5-0.8c0.1-0.3,0.2-0.5,0.2-0.8c0-0.2,0-0.4-0.1-0.6s-0.2-0.3-0.3-0.4c-0.1-0.1-0.3-0.2-0.5-0.3s-0.4-0.1-0.7-0.1
			s-0.5,0-0.8,0.1c-0.2,0.1-0.4,0.1-0.6,0.2s-0.4,0.2-0.5,0.3s-0.3,0.2-0.4,0.3l-0.4-0.6c0.1-0.1,0.3-0.3,0.5-0.4
			c0.2-0.2,0.5-0.3,0.7-0.4c0.3-0.1,0.6-0.2,0.9-0.3s0.7-0.1,1-0.1c0.5,0,0.9,0.1,1.3,0.2s0.6,0.3,0.9,0.5c0.2,0.2,0.4,0.4,0.5,0.7
			s0.2,0.5,0.2,0.8s-0.1,0.6-0.2,0.8c-0.1,0.3-0.3,0.6-0.5,0.8s-0.4,0.5-0.7,0.8s-0.6,0.5-0.9,0.8s-0.7,0.5-1,0.7
			c-0.4,0.2-0.7,0.4-1.1,0.6l4-0.3l0.5-0.9l0.7,0.1l-0.3,1.8h-6.4L523.5,215.8z"/>
		<path class="st5" d="M535.6,216.3c-0.6,0-1.1-0.1-1.5-0.3s-0.8-0.5-1-0.8s-0.5-0.8-0.6-1.2c-0.1-0.5-0.2-1-0.2-1.5
			c0-0.6,0.1-1.1,0.3-1.6s0.5-0.9,0.8-1.2s0.7-0.6,1.1-0.7s0.9-0.3,1.4-0.3c0.6,0,1.1,0.1,1.5,0.3s0.8,0.4,1,0.8s0.4,0.7,0.6,1.2
			s0.2,1,0.2,1.5c0,0.6-0.1,1.1-0.3,1.6s-0.4,0.9-0.8,1.2c-0.3,0.3-0.7,0.6-1.1,0.8C536.6,216.2,536.1,216.3,535.6,216.3z
			 M535.7,215.7c0.3,0,0.6-0.1,0.9-0.2s0.4-0.4,0.6-0.6s0.2-0.6,0.3-1s0.1-0.8,0.1-1.3s0-0.9-0.1-1.3s-0.2-0.7-0.3-1
			s-0.3-0.5-0.6-0.6c-0.2-0.2-0.5-0.2-0.9-0.2c-0.3,0-0.6,0.1-0.9,0.2s-0.4,0.3-0.6,0.6s-0.3,0.6-0.3,1c-0.1,0.4-0.1,0.8-0.1,1.3
			s0,0.9,0.1,1.3s0.2,0.8,0.3,1.1s0.3,0.5,0.6,0.7S535.4,215.7,535.7,215.7z"/>
		<path class="st5" d="M544.7,216.3c-0.6,0-1.1-0.1-1.5-0.3s-0.8-0.5-1-0.8s-0.5-0.8-0.6-1.2s-0.2-1-0.2-1.5c0-0.6,0.1-1.1,0.3-1.6
			s0.5-0.9,0.8-1.2s0.7-0.6,1.1-0.7s0.9-0.3,1.4-0.3c0.6,0,1.1,0.1,1.5,0.3s0.8,0.4,1,0.8c0.3,0.3,0.4,0.7,0.6,1.2s0.2,1,0.2,1.5
			c0,0.6-0.1,1.1-0.3,1.6s-0.4,0.9-0.8,1.2c-0.3,0.3-0.7,0.6-1.1,0.8C545.7,216.2,545.2,216.3,544.7,216.3z M544.8,215.7
			c0.3,0,0.6-0.1,0.9-0.2c0.2-0.1,0.4-0.4,0.6-0.6c0.1-0.3,0.2-0.6,0.3-1s0.1-0.8,0.1-1.3s0-0.9-0.1-1.3c-0.1-0.4-0.2-0.7-0.3-1
			s-0.3-0.5-0.6-0.6c-0.2-0.2-0.5-0.2-0.9-0.2c-0.3,0-0.6,0.1-0.9,0.2c-0.2,0.1-0.4,0.3-0.6,0.6c-0.1,0.3-0.3,0.6-0.3,1
			c-0.1,0.4-0.1,0.8-0.1,1.3s0,0.9,0.1,1.3c0.1,0.4,0.2,0.8,0.3,1.1s0.3,0.5,0.6,0.7S544.5,215.7,544.8,215.7z"/>
		<path class="st5" d="M553.8,216.3c-0.6,0-1.1-0.1-1.5-0.3s-0.8-0.5-1-0.8s-0.5-0.8-0.6-1.2s-0.2-1-0.2-1.5c0-0.6,0.1-1.1,0.3-1.6
			s0.5-0.9,0.8-1.2s0.7-0.6,1.1-0.7s0.9-0.3,1.4-0.3c0.6,0,1.1,0.1,1.5,0.3s0.8,0.4,1,0.8c0.3,0.3,0.4,0.7,0.6,1.2s0.2,1,0.2,1.5
			c0,0.6-0.1,1.1-0.3,1.6s-0.4,0.9-0.8,1.2c-0.3,0.3-0.7,0.6-1.1,0.8C554.8,216.2,554.3,216.3,553.8,216.3z M553.9,215.7
			c0.3,0,0.6-0.1,0.9-0.2c0.2-0.1,0.4-0.4,0.6-0.6c0.1-0.3,0.2-0.6,0.3-1s0.1-0.8,0.1-1.3s0-0.9-0.1-1.3c-0.1-0.4-0.2-0.7-0.3-1
			s-0.3-0.5-0.6-0.6c-0.2-0.2-0.5-0.2-0.9-0.2c-0.3,0-0.6,0.1-0.9,0.2c-0.2,0.1-0.4,0.3-0.6,0.6c-0.1,0.3-0.3,0.6-0.3,1
			c-0.1,0.4-0.1,0.8-0.1,1.3s0,0.9,0.1,1.3c0.1,0.4,0.2,0.8,0.3,1.1s0.3,0.5,0.6,0.7S553.6,215.7,553.9,215.7z"/>
	</g>
</g>
<g>
	<g>
		<path class="st5" d="M301.3,215.7l1.6-0.1v-5.3c-0.1,0-0.2,0.1-0.4,0.1c-0.2,0-0.3,0.1-0.5,0.1s-0.3,0.1-0.5,0.1s-0.3,0-0.4,0
			l-0.2-0.7c0.2,0,0.5-0.1,0.7-0.2s0.5-0.2,0.7-0.3s0.4-0.2,0.6-0.3s0.4-0.2,0.5-0.4l0,0l0.8,0.1v6.7l1.5,0.1v0.6h-4.6v-0.5H301.3z"
			/>
		<path class="st5" d="M309.3,217.7c0.5-0.2,1-0.4,1.4-0.6c0.4-0.3,0.8-0.5,1.1-0.9c0.3-0.3,0.6-0.7,0.8-1c0.2-0.4,0.4-0.8,0.5-1.2
			c-0.1,0.1-0.2,0.2-0.4,0.3s-0.3,0.2-0.5,0.2c-0.2,0.1-0.3,0.1-0.5,0.2s-0.4,0.1-0.6,0.1c-0.5,0-0.9-0.1-1.2-0.2
			c-0.4-0.1-0.7-0.3-0.9-0.6s-0.5-0.5-0.6-0.9s-0.2-0.7-0.2-1.2c0-0.4,0.1-0.8,0.2-1.2c0.2-0.4,0.4-0.7,0.7-1
			c0.3-0.3,0.7-0.5,1.1-0.7s0.9-0.3,1.5-0.3s1.1,0.1,1.5,0.3s0.8,0.4,1.1,0.8s0.5,0.7,0.6,1.1c0.1,0.4,0.2,0.9,0.2,1.4
			s-0.1,1.1-0.2,1.5c-0.1,0.5-0.3,0.9-0.6,1.4s-0.5,0.8-0.8,1.2c-0.3,0.3-0.7,0.7-1.1,0.9s-0.8,0.5-1.2,0.7
			c-0.4,0.2-0.9,0.3-1.3,0.4L309.3,217.7z M311.2,214c0.2,0,0.4,0,0.6-0.1c0.2,0,0.4-0.1,0.5-0.2s0.3-0.1,0.4-0.2
			c0.1-0.1,0.2-0.2,0.3-0.2c0-0.2,0.1-0.5,0.1-0.7c0-0.4,0-0.8,0-1.2s-0.1-0.7-0.3-1c-0.1-0.3-0.3-0.5-0.6-0.7s-0.6-0.3-1-0.3
			c-0.3,0-0.6,0.1-0.8,0.2c-0.2,0.1-0.4,0.3-0.6,0.5c-0.1,0.2-0.3,0.5-0.3,0.7c-0.1,0.3-0.1,0.5-0.1,0.8c0,0.4,0,0.8,0.1,1.1
			s0.2,0.5,0.4,0.7s0.3,0.3,0.5,0.4S311,214,311.2,214z"/>
		<path class="st5" d="M317.2,214.1c0-0.2,0-0.4,0.1-0.6c0.1-0.2,0.2-0.4,0.4-0.6c0.2-0.2,0.4-0.4,0.6-0.6c0.3-0.2,0.6-0.3,0.9-0.5
			c-0.2-0.1-0.4-0.3-0.6-0.4s-0.4-0.3-0.5-0.5c-0.2-0.2-0.3-0.4-0.4-0.6c-0.1-0.2-0.1-0.5-0.1-0.8s0.1-0.7,0.3-0.9
			c0.2-0.3,0.4-0.5,0.7-0.7c0.3-0.2,0.6-0.3,1-0.4c0.4-0.1,0.7-0.1,1.1-0.1s0.8,0,1.2,0.1c0.3,0.1,0.7,0.2,0.9,0.4s0.4,0.4,0.6,0.6
			c0.1,0.2,0.2,0.5,0.2,0.8c0,0.2,0,0.4-0.1,0.6s-0.2,0.4-0.3,0.6c-0.1,0.2-0.3,0.4-0.5,0.5s-0.5,0.3-0.7,0.5
			c0.3,0.1,0.6,0.3,0.8,0.5c0.3,0.2,0.5,0.3,0.7,0.5s0.4,0.4,0.5,0.6c0.1,0.2,0.2,0.5,0.2,0.8c0,0.4-0.1,0.7-0.3,1
			c-0.2,0.3-0.4,0.5-0.7,0.7c-0.3,0.2-0.7,0.4-1.1,0.5s-0.8,0.2-1.3,0.2c-0.4,0-0.8,0-1.2-0.1c-0.4-0.1-0.8-0.2-1.1-0.4
			c-0.3-0.2-0.6-0.4-0.8-0.7S317.2,214.5,317.2,214.1z M318.6,213.9c0,0.3,0,0.5,0.1,0.7s0.2,0.4,0.4,0.6c0.2,0.2,0.4,0.3,0.6,0.4
			c0.3,0.1,0.5,0.1,0.9,0.1c0.2,0,0.5,0,0.7-0.1s0.4-0.2,0.6-0.3s0.3-0.3,0.4-0.4c0.1-0.2,0.1-0.4,0.1-0.6c0-0.3-0.1-0.5-0.2-0.7
			c-0.2-0.2-0.4-0.4-0.6-0.5c-0.3-0.2-0.5-0.3-0.8-0.5s-0.6-0.3-0.9-0.4c-0.2,0.1-0.3,0.2-0.5,0.3c-0.1,0.1-0.3,0.3-0.4,0.4
			c-0.1,0.1-0.2,0.3-0.3,0.5C318.6,213.5,318.6,213.7,318.6,213.9z M321.1,211.3c0.2-0.1,0.3-0.2,0.5-0.3c0.1-0.1,0.2-0.3,0.3-0.4
			c0.1-0.1,0.2-0.3,0.2-0.4c0-0.2,0.1-0.3,0.1-0.5c0-0.3,0-0.5-0.1-0.7s-0.2-0.4-0.3-0.5c-0.1-0.1-0.3-0.2-0.5-0.3s-0.4-0.1-0.7-0.1
			c-0.2,0-0.5,0-0.7,0.1s-0.4,0.1-0.5,0.3s-0.3,0.2-0.3,0.4c-0.1,0.2-0.1,0.3-0.1,0.5s0.1,0.4,0.2,0.6c0.1,0.2,0.3,0.4,0.5,0.5
			c0.2,0.2,0.4,0.3,0.7,0.5S320.8,211.2,321.1,211.3z"/>
		<path class="st5" d="M329.5,216.3c-0.6,0-1.1-0.1-1.5-0.3s-0.8-0.5-1-0.8s-0.5-0.8-0.6-1.2c-0.1-0.5-0.2-1-0.2-1.5
			c0-0.6,0.1-1.1,0.3-1.6s0.5-0.9,0.8-1.2s0.7-0.6,1.1-0.7s0.9-0.3,1.4-0.3c0.6,0,1.1,0.1,1.5,0.3s0.8,0.4,1,0.8
			c0.3,0.3,0.4,0.7,0.6,1.2s0.2,1,0.2,1.5c0,0.6-0.1,1.1-0.3,1.6c-0.2,0.5-0.4,0.9-0.8,1.2s-0.7,0.6-1.1,0.8S330,216.3,329.5,216.3z
			 M329.6,215.7c0.3,0,0.6-0.1,0.9-0.2c0.2-0.1,0.4-0.4,0.6-0.6c0.1-0.3,0.2-0.6,0.3-1s0.1-0.8,0.1-1.3s0-0.9-0.1-1.3
			c-0.1-0.4-0.2-0.7-0.3-1c-0.1-0.3-0.3-0.5-0.6-0.6s-0.5-0.2-0.9-0.2c-0.3,0-0.6,0.1-0.9,0.2c-0.2,0.1-0.4,0.3-0.6,0.6
			c-0.1,0.3-0.3,0.6-0.3,1s-0.1,0.8-0.1,1.3s0,0.9,0.1,1.3c0.1,0.4,0.2,0.8,0.3,1.1c0.1,0.3,0.3,0.5,0.6,0.7
			S329.3,215.7,329.6,215.7z"/>
	</g>
</g>
<g>
	<g>
		<path class="st5" d="M581.2,215.8c0.4-0.2,0.8-0.4,1.2-0.7c0.4-0.2,0.7-0.5,1-0.7c0.3-0.3,0.6-0.5,0.9-0.8
			c0.3-0.3,0.5-0.6,0.7-0.8c0.2-0.3,0.3-0.6,0.5-0.8c0.1-0.3,0.2-0.5,0.2-0.8c0-0.2,0-0.4-0.1-0.6s-0.2-0.3-0.3-0.4
			c-0.1-0.1-0.3-0.2-0.5-0.3s-0.4-0.1-0.7-0.1s-0.5,0-0.8,0.1s-0.4,0.1-0.6,0.2c-0.2,0.1-0.4,0.2-0.5,0.3s-0.3,0.2-0.4,0.3l-0.4-0.6
			c0.1-0.1,0.3-0.3,0.5-0.4c0.2-0.2,0.5-0.3,0.7-0.4s0.6-0.2,0.9-0.3s0.7-0.1,1-0.1c0.5,0,0.9,0.1,1.3,0.2c0.4,0.1,0.6,0.3,0.9,0.5
			c0.2,0.2,0.4,0.4,0.5,0.7s0.2,0.5,0.2,0.8s-0.1,0.6-0.2,0.8c-0.1,0.3-0.3,0.6-0.5,0.8s-0.4,0.5-0.7,0.8s-0.6,0.5-0.9,0.8
			s-0.7,0.5-1,0.7c-0.4,0.2-0.7,0.4-1.1,0.6l4-0.3l0.5-0.9l0.7,0.1l-0.3,1.8h-6.4L581.2,215.8z"/>
		<path class="st5" d="M593.3,216.3c-0.6,0-1.1-0.1-1.5-0.3s-0.8-0.5-1-0.8s-0.5-0.8-0.6-1.2s-0.2-1-0.2-1.5c0-0.6,0.1-1.1,0.3-1.6
			s0.5-0.9,0.8-1.2s0.7-0.6,1.1-0.7s0.9-0.3,1.4-0.3c0.6,0,1.1,0.1,1.5,0.3s0.8,0.4,1,0.8c0.3,0.3,0.4,0.7,0.6,1.2s0.2,1,0.2,1.5
			c0,0.6-0.1,1.1-0.3,1.6s-0.4,0.9-0.8,1.2c-0.3,0.3-0.7,0.6-1.1,0.8C594.2,216.2,593.8,216.3,593.3,216.3z M593.4,215.7
			c0.3,0,0.6-0.1,0.9-0.2c0.2-0.1,0.4-0.4,0.6-0.6c0.1-0.3,0.2-0.6,0.3-1s0.1-0.8,0.1-1.3s0-0.9-0.1-1.3c-0.1-0.4-0.2-0.7-0.3-1
			s-0.3-0.5-0.6-0.6c-0.2-0.2-0.5-0.2-0.9-0.2c-0.3,0-0.6,0.1-0.9,0.2c-0.2,0.1-0.4,0.3-0.6,0.6c-0.1,0.3-0.3,0.6-0.3,1
			c-0.1,0.4-0.1,0.8-0.1,1.3s0,0.9,0.1,1.3c0.1,0.4,0.2,0.8,0.3,1.1s0.3,0.5,0.6,0.7S593.1,215.7,593.4,215.7z"/>
		<path class="st5" d="M602.4,216.3c-0.6,0-1.1-0.1-1.5-0.3s-0.8-0.5-1-0.8s-0.5-0.8-0.6-1.2c-0.1-0.5-0.2-1-0.2-1.5
			c0-0.6,0.1-1.1,0.3-1.6s0.5-0.9,0.8-1.2s0.7-0.6,1.1-0.7s0.9-0.3,1.4-0.3c0.6,0,1.1,0.1,1.5,0.3s0.8,0.4,1,0.8s0.4,0.7,0.6,1.2
			s0.2,1,0.2,1.5c0,0.6-0.1,1.1-0.3,1.6s-0.4,0.9-0.8,1.2c-0.3,0.3-0.7,0.6-1.1,0.8C603.3,216.2,602.9,216.3,602.4,216.3z
			 M602.5,215.7c0.3,0,0.6-0.1,0.9-0.2s0.4-0.4,0.6-0.6s0.2-0.6,0.3-1s0.1-0.8,0.1-1.3s0-0.9-0.1-1.3s-0.2-0.7-0.3-1
			s-0.3-0.5-0.6-0.6c-0.2-0.2-0.5-0.2-0.9-0.2c-0.3,0-0.6,0.1-0.9,0.2s-0.4,0.3-0.6,0.6s-0.3,0.6-0.3,1c-0.1,0.4-0.1,0.8-0.1,1.3
			s0,0.9,0.1,1.3s0.2,0.8,0.3,1.1s0.3,0.5,0.6,0.7S602.1,215.7,602.5,215.7z"/>
		<path class="st5" d="M608.9,217.6c0.1,0,0.3,0,0.4,0c0.5,0,0.9-0.1,1.3-0.2c0.4-0.1,0.8-0.3,1.1-0.5s0.5-0.5,0.7-0.8
			s0.3-0.7,0.3-1.1c0-0.3,0-0.6-0.1-0.9c-0.1-0.2-0.2-0.4-0.4-0.6s-0.4-0.3-0.6-0.3c-0.2-0.1-0.5-0.1-0.8-0.1c-0.1,0-0.3,0-0.4,0
			s-0.3,0-0.5,0.1c-0.2,0-0.3,0.1-0.4,0.1s-0.3,0.1-0.4,0.2l-0.4-0.3l0.6-4.3h3.7l0.1-0.2h0.9l-0.3,1.3h-3.5l-0.5,2.7
			c0.1-0.1,0.3-0.1,0.4-0.2s0.3-0.1,0.5-0.1s0.3-0.1,0.5-0.1s0.4,0,0.5,0c0.4,0,0.8,0,1.1,0.1s0.6,0.3,0.8,0.5s0.4,0.5,0.5,0.8
			s0.2,0.7,0.2,1.1c0,0.3-0.1,0.6-0.2,0.9s-0.3,0.6-0.5,0.8c-0.2,0.3-0.4,0.5-0.7,0.7s-0.6,0.4-1,0.6s-0.8,0.3-1.2,0.4
			s-0.9,0.1-1.4,0.1c-0.1,0-0.3,0-0.5,0s-0.3,0-0.5-0.1v-0.6C608.6,217.6,608.8,217.6,608.9,217.6z"/>
	</g>
</g>
<g>
	<g>
		<path class="st5" d="M638.2,215.8c0.4-0.2,0.8-0.4,1.2-0.7s0.7-0.5,1-0.7c0.3-0.3,0.6-0.5,0.9-0.8s0.5-0.6,0.7-0.8
			s0.3-0.6,0.5-0.8c0.1-0.3,0.2-0.5,0.2-0.8c0-0.2,0-0.4-0.1-0.6s-0.2-0.3-0.3-0.4c-0.1-0.1-0.3-0.2-0.5-0.3s-0.4-0.1-0.7-0.1
			s-0.5,0-0.8,0.1c-0.2,0.1-0.4,0.1-0.6,0.2s-0.4,0.2-0.5,0.3s-0.3,0.2-0.4,0.3l-0.4-0.6c0.1-0.1,0.3-0.3,0.5-0.4
			c0.2-0.2,0.5-0.3,0.7-0.4c0.3-0.1,0.6-0.2,0.9-0.3s0.7-0.1,1-0.1c0.5,0,0.9,0.1,1.3,0.2s0.6,0.3,0.9,0.5c0.2,0.2,0.4,0.4,0.5,0.7
			s0.2,0.5,0.2,0.8s-0.1,0.6-0.2,0.8c-0.1,0.3-0.3,0.6-0.5,0.8s-0.4,0.5-0.7,0.8s-0.6,0.5-0.9,0.8s-0.7,0.5-1,0.7
			c-0.4,0.2-0.7,0.4-1.1,0.6l4-0.3l0.5-0.9l0.7,0.1l-0.3,1.8h-6.4L638.2,215.8z"/>
		<path class="st5" d="M650.3,216.3c-0.6,0-1.1-0.1-1.5-0.3s-0.8-0.5-1-0.8s-0.5-0.8-0.6-1.2c-0.1-0.5-0.2-1-0.2-1.5
			c0-0.6,0.1-1.1,0.3-1.6s0.5-0.9,0.8-1.2s0.7-0.6,1.1-0.7s0.9-0.3,1.4-0.3c0.6,0,1.1,0.1,1.5,0.3s0.8,0.4,1,0.8s0.4,0.7,0.6,1.2
			s0.2,1,0.2,1.5c0,0.6-0.1,1.1-0.3,1.6s-0.4,0.9-0.8,1.2c-0.3,0.3-0.7,0.6-1.1,0.8C651.3,216.2,650.8,216.3,650.3,216.3z
			 M650.4,215.7c0.3,0,0.6-0.1,0.9-0.2s0.4-0.4,0.6-0.6s0.2-0.6,0.3-1s0.1-0.8,0.1-1.3s0-0.9-0.1-1.3s-0.2-0.7-0.3-1
			s-0.3-0.5-0.6-0.6c-0.2-0.2-0.5-0.2-0.9-0.2c-0.3,0-0.6,0.1-0.9,0.2s-0.4,0.3-0.6,0.6s-0.3,0.6-0.3,1c-0.1,0.4-0.1,0.8-0.1,1.3
			s0,0.9,0.1,1.3s0.2,0.8,0.3,1.1s0.3,0.5,0.6,0.7S650.1,215.7,650.4,215.7z"/>
		<path class="st5" d="M656,215.7l1.6-0.1v-5.3c-0.1,0-0.2,0.1-0.4,0.1s-0.3,0.1-0.5,0.1s-0.3,0.1-0.5,0.1s-0.3,0-0.4,0l-0.2-0.7
			c0.2,0,0.5-0.1,0.7-0.2s0.5-0.2,0.7-0.3s0.4-0.2,0.6-0.3s0.4-0.2,0.5-0.4l0,0l0.8,0.1v6.7l1.5,0.1v0.6H656V215.7z"/>
		<path class="st5" d="M665.8,216.3c-0.6,0-1.1-0.1-1.5-0.3s-0.8-0.5-1-0.8s-0.5-0.8-0.6-1.2s-0.2-1-0.2-1.5c0-0.6,0.1-1.1,0.3-1.6
			s0.5-0.9,0.8-1.2s0.7-0.6,1.1-0.7s0.9-0.3,1.4-0.3c0.6,0,1.1,0.1,1.5,0.3s0.8,0.4,1,0.8c0.3,0.3,0.4,0.7,0.6,1.2s0.2,1,0.2,1.5
			c0,0.6-0.1,1.1-0.3,1.6s-0.4,0.9-0.8,1.2c-0.3,0.3-0.7,0.6-1.1,0.8C666.7,216.2,666.3,216.3,665.8,216.3z M665.9,215.7
			c0.3,0,0.6-0.1,0.9-0.2c0.2-0.1,0.4-0.4,0.6-0.6c0.1-0.3,0.2-0.6,0.3-1s0.1-0.8,0.1-1.3s0-0.9-0.1-1.3c-0.1-0.4-0.2-0.7-0.3-1
			s-0.3-0.5-0.6-0.6c-0.2-0.2-0.5-0.2-0.9-0.2c-0.3,0-0.6,0.1-0.9,0.2c-0.2,0.1-0.4,0.3-0.6,0.6c-0.1,0.3-0.3,0.6-0.3,1
			c-0.1,0.4-0.1,0.8-0.1,1.3s0,0.9,0.1,1.3c0.1,0.4,0.2,0.8,0.3,1.1s0.3,0.5,0.6,0.7S665.5,215.7,665.9,215.7z"/>
	</g>
</g>
<g>
	<g>
		<g>
			<path d="M20.9,21.8V14l-3.3,6.8h-1.2L13.1,14v7.8h-1.7V11.3h2.1l3.5,7l3.4-7h2.1v10.5H20.9z"/>
			<path d="M25.3,21.8V11.3H27v10.5H25.3z"/>
			<path d="M36.1,20.2v1.6h-6.3V11.3h1.8v8.9H36.1z"/>
			<path d="M41.4,17.2l-1.8,2v2.7h-1.8V11.3h1.8v5.4l5-5.4h2.1l-4.1,4.5l4.3,6h-2.1L41.4,17.2z"/>
			<path d="M59.6,12.3l-0.7,1.6c-1.1-0.7-2.3-1-3.1-1c-1,0-1.7,0.4-1.7,1.1c0,2.3,5.7,1.1,5.7,4.8c0,1.9-1.6,3-4,3
				c-1.6,0-3.2-0.7-4.3-1.7l0.8-1.5c1.1,1,2.4,1.5,3.6,1.5c1.2,0,2-0.5,2-1.3c0-2.3-5.7-1-5.7-4.8c0-1.8,1.5-2.9,3.8-2.9
				C57.3,11.2,58.6,11.7,59.6,12.3z"/>
			<path d="M63.2,19.4l-1,2.4h-1.8L65,11.3h1.8l4.6,10.5h-1.9l-1-2.4H63.2z M65.8,13.2l-2,4.7h4L65.8,13.2z"/>
			<path d="M79.1,20.2v1.6h-6.3V11.3h1.8v8.9H79.1z"/>
			<path d="M82.5,12.9v2.8h5.1v1.6h-5.1v2.9h5.9v1.6h-7.7V11.3h7.5v1.6C88.2,12.9,82.5,12.9,82.5,12.9z"/>
			<path d="M97.7,12.3L97,13.9c-1.1-0.7-2.3-1-3.1-1c-1,0-1.7,0.4-1.7,1.1c0,2.3,5.7,1.1,5.7,4.8c0,1.9-1.6,3-4,3
				c-1.6,0-3.2-0.7-4.3-1.7l0.8-1.5c1.1,1,2.4,1.5,3.6,1.5s2-0.5,2-1.3c0-2.3-5.7-1-5.7-4.8c0-1.8,1.5-2.9,3.8-2.9
				C95.4,11.2,96.8,11.7,97.7,12.3z"/>
		</g>
	</g>
	<rect x="0.5" y="0.5" class="st7" width="108" height="32"/>
</g>
</svg>
