<?xml version="1.0" encoding="utf-8"?>
<!-- Generator: Adobe Illustrator 17.0.0, SVG Export Plug-In . SVG Version: 6.00 Build 0)  -->
<!DOCTYPE svg PUBLIC "-//W3C//DTD SVG 1.1//EN" "http://www.w3.org/Graphics/SVG/1.1/DTD/svg11.dtd">
<svg version="1.1" id="Layer_1" xmlns="http://www.w3.org/2000/svg" xmlns:xlink="http://www.w3.org/1999/xlink" x="0px" y="0px"
	 width="222.279px" height="49.592px" viewBox="0 0 222.279 49.592" enable-background="new 0 0 222.279 49.592"
	 xml:space="preserve">
<rect x="0" y="9.226" fill="#8DCDD9" width="175.665" height="31.644"/>
<path id="Uomo_12_" fill="none" stroke="#323031" stroke-miterlimit="10" d="M21.949,26.586c0.308,1.418-0.51,2.578-1.819,2.578
	h-2.372l-0.216,2.632l-1.164,14.665c-0.116,1.447-1.202,2.631-2.419,2.631h-4.42c-1.218,0-2.306-1.184-2.42-2.63L5.955,31.797
	l-0.222-2.632H3.467c-1.253,0-2.027-1.16-1.719-2.578l2.349-10.826c0.308-1.418,1.748-2.579,3.2-2.579H9.21h5.277h1.913
	c1.453,0,2.891,1.161,3.199,2.579L21.949,26.586 M17.112,5.765c0-2.908-2.357-5.265-5.265-5.265S6.582,2.857,6.582,5.765
	c0,2.907,2.357,5.264,5.265,5.264S17.112,8.672,17.112,5.765"/>
<path id="Uomo_11_" fill="none" stroke="#323031" stroke-miterlimit="10" d="M52.263,26.586c0.308,1.418-0.51,2.578-1.819,2.578
	h-2.372l-0.216,2.632l-1.164,14.665c-0.116,1.447-1.202,2.631-2.419,2.631h-4.42c-1.218,0-2.306-1.184-2.42-2.63L36.27,31.797
	l-0.222-2.632h-2.265c-1.253,0-2.027-1.16-1.719-2.578l2.349-10.826c0.308-1.418,1.748-2.579,3.2-2.579h1.914h5.277h1.913
	c1.453,0,2.891,1.161,3.199,2.579L52.263,26.586 M47.426,5.765c0-2.908-2.357-5.265-5.265-5.265c-2.908,0-5.265,2.357-5.265,5.265
	c0,2.907,2.357,5.264,5.265,5.264C45.07,11.029,47.426,8.672,47.426,5.765"/>
<path id="Uomo_10_" fill="none" stroke="#323031" stroke-miterlimit="10" d="M82.578,26.586c0.308,1.418-0.51,2.578-1.819,2.578
	h-2.372l-0.216,2.632l-1.164,14.665c-0.116,1.447-1.202,2.631-2.419,2.631h-4.42c-1.217,0-2.306-1.184-2.42-2.63l-1.164-14.665
	l-0.222-2.632h-2.265c-1.253,0-2.027-1.16-1.719-2.578l2.349-10.826c0.308-1.418,1.748-2.579,3.2-2.579h1.914h5.277h1.913
	c1.453,0,2.891,1.161,3.199,2.579L82.578,26.586 M77.741,5.765c0-2.908-2.357-5.265-5.265-5.265c-2.908,0-5.265,2.357-5.265,5.265
	c0,2.907,2.357,5.264,5.265,5.264C75.384,11.029,77.741,8.672,77.741,5.765"/>
<path id="Uomo_9_" fill="none" stroke="#323031" stroke-miterlimit="10" d="M112.893,26.586c0.308,1.418-0.51,2.578-1.819,2.578
	h-2.372l-0.216,2.632l-1.164,14.665c-0.116,1.447-1.202,2.631-2.419,2.631h-4.42c-1.217,0-2.306-1.184-2.42-2.63l-1.164-14.665
	l-0.222-2.632h-2.265c-1.253,0-2.027-1.16-1.719-2.578l2.349-10.826c0.308-1.418,1.748-2.579,3.2-2.579h1.914h5.277h1.913
	c1.453,0,2.891,1.161,3.199,2.579L112.893,26.586 M108.056,5.765c0-2.908-2.357-5.265-5.265-5.265c-2.908,0-5.265,2.357-5.265,5.265
	c0,2.907,2.357,5.264,5.265,5.264C105.699,11.029,108.056,8.672,108.056,5.765"/>
<path id="Uomo_8_" fill="none" stroke="#323031" stroke-miterlimit="10" d="M143.208,26.586c0.308,1.418-0.51,2.578-1.819,2.578
	h-2.372l-0.216,2.632l-1.164,14.665c-0.116,1.447-1.202,2.631-2.419,2.631h-4.42c-1.218,0-2.306-1.184-2.42-2.63l-1.164-14.665
	l-0.222-2.632h-2.265c-1.253,0-2.027-1.16-1.719-2.578l2.349-10.826c0.308-1.418,1.748-2.579,3.2-2.579h1.914h5.277h1.913
	c1.453,0,2.891,1.161,3.199,2.579L143.208,26.586 M138.371,5.765c0-2.908-2.357-5.265-5.265-5.265c-2.908,0-5.265,2.357-5.265,5.265
	c0,2.907,2.357,5.264,5.265,5.264C136.014,11.029,138.371,8.672,138.371,5.765"/>
<path id="Uomo_7_" fill="none" stroke="#323031" stroke-miterlimit="10" d="M173.522,26.586c0.308,1.418-0.51,2.578-1.819,2.578
	h-2.372l-0.216,2.632l-1.163,14.665c-0.116,1.447-1.202,2.631-2.419,2.631h-4.42c-1.217,0-2.306-1.184-2.42-2.63l-1.163-14.665
	l-0.222-2.632h-2.265c-1.253,0-2.027-1.16-1.719-2.578l2.349-10.826c0.308-1.418,1.748-2.579,3.2-2.579h1.914h5.277h1.913
	c1.453,0,2.891,1.161,3.199,2.579L173.522,26.586 M168.685,5.765c0-2.908-2.357-5.265-5.265-5.265c-2.908,0-5.265,2.357-5.265,5.265
	c0,2.907,2.357,5.264,5.265,5.264C166.329,11.029,168.685,8.672,168.685,5.765"/>
<path id="Uomo_1_" fill="none" stroke="#323031" stroke-miterlimit="10" d="M203.837,26.586c0.308,1.418-0.51,2.578-1.819,2.578
	h-2.372l-0.216,2.632l-1.164,14.665c-0.116,1.447-1.202,2.631-2.419,2.631h-4.42c-1.217,0-2.306-1.184-2.42-2.63l-1.164-14.665
	l-0.222-2.632h-2.265c-1.253,0-2.027-1.16-1.719-2.578l2.349-10.826c0.308-1.418,1.748-2.579,3.2-2.579h1.914h5.277h1.913
	c1.453,0,2.891,1.161,3.199,2.579L203.837,26.586 M199,5.765c0-2.908-2.357-5.265-5.265-5.265s-5.265,2.357-5.265,5.265
	c0,2.907,2.357,5.264,5.265,5.264S199,8.672,199,5.765"/>
<g>
	<path fill="none" stroke="#323031" stroke-miterlimit="10" d="M222.092,0.885c-1.936,0.778-3.307,2.665-3.307,4.88
		c0,2.214,1.371,4.101,3.307,4.879"/>
	<path fill="none" stroke="#323031" stroke-miterlimit="10" d="M222.092,13.182h-0.679h-1.914c-1.452,0-2.892,1.161-3.199,2.579
		l-2.349,10.826c-0.308,1.418,0.466,2.578,1.719,2.578h2.266l0.223,2.632l1.163,14.665c0.114,1.446,1.203,2.63,2.42,2.63h0.35"/>
</g>
</svg>
