<?xml version="1.0" encoding="utf-8"?>
<!-- Generator: Adobe Illustrator 17.0.0, SVG Export Plug-In . SVG Version: 6.00 Build 0)  -->
<!DOCTYPE svg PUBLIC "-//W3C//DTD SVG 1.1//EN" "http://www.w3.org/Graphics/SVG/1.1/DTD/svg11.dtd">
<svg version="1.1" id="Layer_1" xmlns="http://www.w3.org/2000/svg" xmlns:xlink="http://www.w3.org/1999/xlink" x="0px" y="0px"
	 width="160px" height="160px" viewBox="0 0 160 160" style="enable-background:new 0 0 160 160;" xml:space="preserve">
<style type="text/css">
	.st0{fill:none;stroke:#FFFFFF;stroke-width:3;stroke-miterlimit:10;}
</style>
<path d="M134,43.3c-7.1,2.6-8.1,2.3-4.6-1.7c2.6-2.8,5.7-7.9,5.7-9.4c0-0.3-1.3,0.2-2.7,1c-1.5,0.9-4.9,2.2-7.4,3l-4.5,1.5l-4.1-2.9
	c-2.3-1.6-5.4-3.4-7.1-3.9c-4.3-1.2-10.8-1.1-14.6,0.4c-10.5,4-17.1,14.2-16.3,25.4l0.3,4.3l-4.2-0.5c-15.2-2-28.5-8.9-39.8-20.5
	L29,34.2l-1.4,4.2c-3,9.4-1.1,19.4,5.2,26.1c3.3,3.7,2.6,4.2-3.2,2c-2-0.7-3.8-1.2-3.9-1c-0.6,0.6,1.4,8.7,3,11.8
	c2.2,4.4,6.6,8.7,11.5,11.3l4.1,2l-4.9,0.1c-4.7,0-4.9,0.1-4.4,1.9c1.7,5.7,8.3,11.8,15.6,14.5l5.2,1.9l-4.5,2.8
	c-6.7,4.1-14.6,6.4-22.4,6.5c-3.8,0.1-6.9,0.4-6.9,0.7c0,0.9,10.2,5.8,16.1,7.8c17.8,5.7,39,3.3,54.9-6.5
	c11.3-7,22.6-20.8,27.9-34.2c2.8-7.1,5.7-20.2,5.7-26.5c0-4.1,0.3-4.6,4.9-9.4c2.8-2.8,5.4-5.9,5.9-6.8
	C138.3,41.8,138.2,41.8,134,43.3z"/>
</svg>
