<?xml version="1.0" encoding="utf-8"?>
<!-- Generator: Adobe Illustrator 17.0.0, SVG Export Plug-In . SVG Version: 6.00 Build 0)  -->
<!DOCTYPE svg PUBLIC "-//W3C//DTD SVG 1.1//EN" "http://www.w3.org/Graphics/SVG/1.1/DTD/svg11.dtd">
<svg version="1.1" id="Livello_2" xmlns="http://www.w3.org/2000/svg" xmlns:xlink="http://www.w3.org/1999/xlink" x="0px" y="0px"
	 width="74.788px" height="74.788px" viewBox="0 0 74.788 74.788" enable-background="new 0 0 74.788 74.788" xml:space="preserve">
<rect x="0" y="0" fill="#EBDFD5" width="74.788" height="74.788"/>
<g>
	<path fill="#FFFFFF" d="M26.011,66.991c-1.88,0-3.648-0.732-4.978-2.062L9.859,53.754c-2.745-2.744-2.745-7.21,0-9.954
		l23.342-23.342c1.28-1.28,2.979-2.008,4.791-2.056c0.052-0.004,0.106-0.004,0.161-0.002c0.203,0.001,0.353,0.008,0.504,0.018
		l0.093-0.001c1.649,0,5.794-0.309,8.66-3.174l0.266-0.266c-0.487-1.044-0.3-2.326,0.56-3.186c1.064-1.065,2.922-1.065,3.986,0
		l10.776,10.776c1.099,1.099,1.099,2.886,0,3.985c-0.828,0.829-2.155,1.045-3.188,0.562l-0.264,0.264
		c-3.015,3.015-3.191,7.513-3.174,8.82c0.005,0.07,0.01,0.159,0.013,0.256c0.016,0.08,0.023,0.162,0.023,0.246
		c0,0.095-0.01,0.188-0.03,0.277c-0.09,1.744-0.812,3.373-2.049,4.61L30.988,64.929C29.659,66.258,27.891,66.991,26.011,66.991z
		 M38.14,20.899c-0.01,0-0.021,0-0.03,0.001c-1.188,0.018-2.304,0.489-3.141,1.325L11.627,45.568c-1.77,1.77-1.77,4.649,0,6.419
		l11.174,11.174c0.857,0.857,1.997,1.33,3.21,1.33c1.212,0,2.352-0.472,3.209-1.33l23.342-23.342
		c0.834-0.835,1.305-1.947,1.325-3.133c0-0.007,0-0.014,0-0.021c0.002-0.125-0.004-0.249-0.012-0.373
		c-0.023-1.616,0.196-6.975,3.902-10.682l1.031-1.031c0.234-0.234,0.552-0.365,0.883-0.365h0.001c0.332,0,0.649,0.132,0.884,0.367
		l0.203,0.204c0.152,0.151,0.296,0.152,0.45-0.001c0.124-0.124,0.124-0.327,0-0.451L50.454,13.558c-0.154-0.154-0.297-0.154-0.451,0
		c-0.124,0.124-0.124,0.327,0,0.451l0.203,0.202c0.235,0.234,0.367,0.553,0.367,0.885c0,0.332-0.132,0.65-0.367,0.885l-1.03,1.029
		c-3.526,3.526-8.467,3.906-10.427,3.906l-0.192-0.001C38.372,20.905,38.277,20.902,38.14,20.899z"/>
	<path fill="#FFFFFF" d="M63.31,24.889c-0.982,0-1.906-0.382-2.602-1.077l-9.731-9.732c-0.695-0.695-1.078-1.619-1.078-2.603
		c0-0.983,0.383-1.907,1.078-2.602c1.391-1.39,3.813-1.39,5.204,0l9.731,9.732c1.435,1.435,1.435,3.77,0,5.205
		C65.217,24.507,64.293,24.889,63.31,24.889z M53.579,10.298c-0.315,0-0.612,0.123-0.835,0.346
		c-0.223,0.223-0.346,0.519-0.346,0.834c0,0.315,0.123,0.612,0.346,0.835l9.731,9.731c0.445,0.445,1.224,0.445,1.669,0
		c0.223-0.223,0.346-0.519,0.346-0.834c0-0.315-0.123-0.612-0.346-0.835l-9.731-9.731C54.191,10.42,53.894,10.298,53.579,10.298z"/>
	<path fill="#FFFFFF" d="M55.361,34.557H22.12c-0.69,0-1.25-0.56-1.25-1.25s0.56-1.25,1.25-1.25h33.24c0.69,0,1.25,0.56,1.25,1.25
		S56.051,34.557,55.361,34.557z"/>
</g>
</svg>
