<?xml version="1.0" encoding="utf-8"?>
<!-- Generator: Adobe Illustrator 17.0.0, SVG Export Plug-In . SVG Version: 6.00 Build 0)  -->
<!DOCTYPE svg PUBLIC "-//W3C//DTD SVG 1.1//EN" "http://www.w3.org/Graphics/SVG/1.1/DTD/svg11.dtd">
<svg version="1.1" xmlns="http://www.w3.org/2000/svg" xmlns:xlink="http://www.w3.org/1999/xlink" x="0px" y="0px" width="850px"
	 height="300px" viewBox="0 0 850 300" enable-background="new 0 0 850 300" xml:space="preserve">
<g id="sfondo">
	<rect fill="#2D2D2D" width="850" height="301"/>
</g>
<g id="Livello_1">
	<rect x="71.329" y="67.667" fill="none" width="83.162" height="12"/>
	<text transform="matrix(1 0 0 1 71.3291 74.3364)" fill="#F2F2F2" font-family="'ProximaNova-Regular'" font-size="10">sharing economy</text>
	<rect x="71.329" y="86.667" fill="none" width="104.829" height="12"/>
	<text transform="matrix(1 0 0 1 71.3291 93.3364)" fill="#F2F2F2" font-family="'ProximaNova-Regular'" font-size="10">collaborative economy</text>
	<rect x="71.329" y="106.667" fill="none" width="118.162" height="12"/>
	<text transform="matrix(1 0 0 1 71.3291 113.3364)" fill="#F2F2F2" font-family="'ProximaNova-Regular'" font-size="10">collaborative consumption </text>
	<rect x="71.329" y="125.333" fill="none" width="98.829" height="12"/>
	<text transform="matrix(1 0 0 1 71.3291 132.0036)" fill="#F2F2F2" font-family="'ProximaNova-Regular'" font-size="10">on demand economy </text>
	<rect x="27.344" y="96.5" fill="none" width="36.156" height="10"/>
	<text transform="matrix(1 0 0 1 27.344 103.1698)" fill="#F2F2F2" font-family="'ProximaNova-Regular'" font-size="10">QUERY</text>
	<line fill="none" stroke="#F2F2F2" stroke-miterlimit="10" x1="63.5" y1="70" x2="63.5" y2="132"/>
	<line fill="none" stroke="#F2F2F2" stroke-miterlimit="10" x1="23.5" y1="36" x2="23.5" y2="104"/>
	<polyline fill="none" stroke="#F2F2F2" stroke-miterlimit="10" points="185,71.5 195.5,71.5 195.5,133.5 184,133.5 	"/>
	<rect x="28.5" y="23.411" fill="none" width="39.829" height="8.5"/>
	<text transform="matrix(1 0 0 1 28.5002 30.0803)" fill="#F2F2F2" font-family="'ProximaNova-Regular'" font-size="10">SOURCE</text>
	<rect x="79.086" y="21.494" fill="none" width="73.581" height="10.333"/>
	<text transform="matrix(1 0 0 1 79.0852 29.4978)" fill="#F2F2F2" font-family="'ProximaNova-Regular'" font-size="12">Wikipedia.org</text>
	<rect x="23.5" y="16.5" fill="none" stroke="#F2F2F2" stroke-miterlimit="10" width="49" height="19"/>
	<g>
		<g>
			<line fill="none" stroke="#F2F2F2" stroke-miterlimit="10" x1="196" y1="101.5" x2="235" y2="101.5"/>
			<g>
				<polygon fill="#F2F2F2" points="231.602,105.25 230.92,104.518 234.532,101.161 230.92,97.804 231.602,97.072 236,101.161 				
					"/>
			</g>
		</g>
	</g>
	<rect x="326.833" y="115.414" fill="none" width="43.333" height="8"/>
	<text transform="matrix(1 0 0 1 333.7056 122.0835)" fill="#F2F2F2" font-family="'ProximaNova-Regular'" font-size="10">EXCEL</text>
	<g>
		<g>
			<line fill="none" stroke="#F2F2F2" stroke-miterlimit="10" x1="287" y1="101.5" x2="326" y2="101.5"/>
			<g>
				<polygon fill="#F2F2F2" points="322.602,105.25 321.92,104.518 325.532,101.161 321.92,97.804 322.602,97.072 327,101.161 				
					"/>
			</g>
		</g>
	</g>
	<g>
		<g>
			<line fill="none" stroke="#F2F2F2" stroke-miterlimit="10" x1="370" y1="99.5" x2="409" y2="99.5"/>
			<g>
				<polygon fill="#F2F2F2" points="405.602,103.25 404.92,102.518 408.532,99.161 404.92,95.804 405.602,95.072 410,99.161 				"/>
			</g>
		</g>
	</g>
	<rect x="235.714" y="115.414" fill="none" width="51.526" height="45.586"/>
	<text transform="matrix(1 0 0 1 251.6671 122.0834)"><tspan x="0" y="0" fill="#F2F2F2" font-family="'ProximaNova-Regular'" font-size="10">WIKI </tspan><tspan x="-10.725" y="12" fill="#F2F2F2" font-family="'ProximaNova-Regular'" font-size="10">HISTORY </tspan><tspan x="-3.65" y="24" fill="#F2F2F2" font-family="'ProximaNova-Regular'" font-size="10">FLOW</tspan></text>
	<g>
		<polygon fill="none" stroke="#F2F2F2" stroke-miterlimit="10" points="255.272,106.5 249.38,96.5 255.272,86.5 267.057,86.5 
			272.949,96.5 267.057,106.5 		"/>
		<polygon fill="none" stroke="#F2F2F2" stroke-miterlimit="10" points="257.424,102.5 253.683,96.5 257.424,90.5 264.905,90.5 
			268.646,96.5 264.905,102.5 		"/>
	</g>
	<g>
		<rect x="344" y="95.414" fill="#F2F2F2" width="9" height="1"/>
		<rect x="344" y="98.414" fill="#F2F2F2" width="9" height="1"/>
		<rect x="344" y="101.414" fill="#F2F2F2" width="9" height="1"/>
		<path fill="#F2F2F2" d="M352.194,86.414h-0.564H340v21h17V90.852v-0.196L352.194,86.414z M352.387,87.707l3.162,2.754
			l-3.356,0.503L352.387,87.707z M356,106.414h-15v-19h10.843l-0.414,4.408L356,90.939V106.414z"/>
	</g>
	<polyline fill="none" stroke="#F2F2F2" stroke-miterlimit="10" points="427.424,79.351 448.397,90.155 426.178,97.026 
		440.856,78.409 444.626,105.038 435.159,102.917 	"/>
	<circle fill="#2D2D2D" stroke="#F2F2F2" stroke-miterlimit="10" cx="441.936" cy="77.119" r="2.059"/>
	<circle fill="#2D2D2D" stroke="#F2F2F2" stroke-miterlimit="10" cx="448.634" cy="89.956" r="2.059"/>
	<polyline fill="none" stroke="#F2F2F2" stroke-miterlimit="10" points="425.192,96.654 427.424,79.351 435.238,102.793 	"/>
	<circle fill="#2D2D2D" stroke="#F2F2F2" stroke-miterlimit="10" cx="427.424" cy="79.351" r="2.059"/>
	<circle fill="#2D2D2D" stroke="#F2F2F2" stroke-miterlimit="10" cx="425.192" cy="96.654" r="2.059"/>
	<circle fill="#2D2D2D" stroke="#F2F2F2" stroke-miterlimit="10" cx="435.238" cy="102.793" r="2.059"/>
	<circle fill="#2D2D2D" stroke="#F2F2F2" stroke-miterlimit="10" cx="445.285" cy="105.026" r="2.059"/>
	<rect x="405.446" y="115.251" fill="none" width="63.703" height="8.163"/>
	<text transform="matrix(1 0 0 1 405.8323 121.9211)" fill="#F2F2F2" font-family="'ProximaNova-Regular'" font-size="10">ILLUSTRATOR</text>
	<g>
		<g>
			<g>
				<path fill="#929497" d="M137.228,270.656v-0.441l2.642-1.269l-2.642-1.283v-0.441l3.091,1.535v0.372L137.228,270.656z"/>
			</g>
			<g>
				<path fill="#929497" d="M140.503,271.953v-0.386h3.995v0.386H140.503z"/>
			</g>
			<g>
				<g>
					<path fill="#929497" d="M151.428,281.495h-16.939v-16.939h16.939V281.495z M135.189,280.795h15.539v-15.539h-15.539V280.795z"
						/>
				</g>
			</g>
		</g>
		<g>
			<g>
				<path fill="#929497" d="M136.077,288.953l0.28-0.358c0.241,0.28,0.644,0.537,1.17,0.537c0.666,0,0.879-0.358,0.879-0.649
					c0-0.962-2.211-0.425-2.211-1.757c0-0.616,0.549-1.041,1.287-1.041c0.565,0,1.008,0.196,1.321,0.526l-0.28,0.341
					c-0.28-0.313-0.672-0.448-1.08-0.448c-0.442,0-0.767,0.241-0.767,0.593c0,0.839,2.211,0.358,2.211,1.752
					c0,0.537-0.369,1.097-1.377,1.097C136.866,289.546,136.385,289.3,136.077,288.953z"/>
			</g>
			<g>
				<path fill="#929497" d="M139.409,288.125c0-0.8,0.543-1.416,1.349-1.416c0.493,0,0.783,0.202,0.991,0.47l-0.28,0.252
					c-0.179-0.246-0.409-0.347-0.688-0.347c-0.571,0-0.935,0.442-0.935,1.041c0,0.599,0.364,1.047,0.935,1.047
					c0.28,0,0.509-0.111,0.688-0.352l0.28,0.257c-0.207,0.269-0.498,0.47-0.991,0.47
					C139.952,289.546,139.409,288.925,139.409,288.125z"/>
			</g>
			<g>
				<path fill="#929497" d="M142.343,289.479v-2.704h0.42v0.431c0.218-0.28,0.532-0.493,0.901-0.493v0.431
					c-0.051-0.006-0.101-0.011-0.162-0.011c-0.263,0-0.616,0.213-0.739,0.431v1.914H142.343z"/>
			</g>
			<g>
				<path fill="#929497" d="M144.118,286.11c0-0.157,0.129-0.285,0.285-0.285c0.157,0,0.28,0.129,0.28,0.285
					c0,0.157-0.123,0.28-0.28,0.28C144.247,286.39,144.118,286.267,144.118,286.11z M144.191,289.479v-2.704h0.42v2.704H144.191z"/>
			</g>
			<g>
				<path fill="#929497" d="M145.87,289.071v1.438h-0.42v-3.733h0.42v0.403c0.196-0.274,0.532-0.47,0.912-0.47
					c0.711,0,1.203,0.537,1.203,1.416c0,0.874-0.493,1.422-1.203,1.422C146.413,289.546,146.094,289.367,145.87,289.071z
					 M147.544,288.125c0-0.599-0.324-1.041-0.867-1.041c-0.33,0-0.66,0.196-0.806,0.431v1.221c0.146,0.235,0.476,0.436,0.806,0.436
					C147.219,289.171,147.544,288.723,147.544,288.125z"/>
			</g>
			<g>
				<path fill="#929497" d="M148.738,288.914v-1.769h-0.448v-0.37h0.448v-0.739h0.425v0.739h0.549v0.37h-0.549v1.679
					c0,0.202,0.09,0.347,0.269,0.347c0.123,0,0.23-0.055,0.285-0.117l0.123,0.319c-0.107,0.101-0.258,0.174-0.498,0.174
					C148.939,289.546,148.738,289.317,148.738,288.914z"/>
			</g>
		</g>
	</g>
	<g>
		<g>
			<polygon fill="#929497" points="175,280 164,280 164,265 165,265 165,279 174,279 174,265 175,265 			"/>
		</g>
	</g>
	<g>
		<g>
			<path fill="#929497" d="M169.341,269.595c-1.222,0-2.217-0.995-2.217-2.217s0.995-2.217,2.217-2.217
				c1.222,0,2.217,0.995,2.217,2.217S170.563,269.595,169.341,269.595z M169.341,265.861c-0.837,0-1.517,0.68-1.517,1.517
				s0.68,1.517,1.517,1.517s1.517-0.68,1.517-1.517S170.178,265.861,169.341,265.861z"/>
		</g>
	</g>
	<g>
		<g>
			<polygon fill="#929497" points="164.52,266.292 164.091,265.74 169.32,261.678 174.494,265.741 174.062,266.292 169.317,262.567 
							"/>
		</g>
	</g>
	<g>
		<g>
			<path fill="#929497" d="M166.462,288.256v-3.319h-1.181v-0.414h2.832v0.414h-1.187v3.319H166.462z"/>
		</g>
		<g>
			<path fill="#929497" d="M169.872,288.256v-0.308c-0.218,0.247-0.531,0.375-0.896,0.375c-0.453,0-0.94-0.308-0.94-0.896
				c0-0.61,0.482-0.89,0.94-0.89c0.369,0,0.677,0.118,0.896,0.364v-0.487c0-0.358-0.291-0.565-0.683-0.565
				c-0.325,0-0.588,0.112-0.829,0.375l-0.196-0.291c0.291-0.302,0.638-0.448,1.08-0.448c0.577,0,1.047,0.258,1.047,0.913v1.858
				H169.872z M169.872,287.685v-0.515c-0.162-0.218-0.448-0.33-0.739-0.33c-0.398,0-0.672,0.246-0.672,0.588
				c0,0.347,0.274,0.593,0.672,0.593C169.424,288.02,169.709,287.908,169.872,287.685z"/>
		</g>
		<g>
			<path fill="#929497" d="M171.133,288.944l0.213-0.302c0.224,0.263,0.493,0.364,0.879,0.364c0.448,0,0.873-0.218,0.873-0.79
				v-0.408c-0.201,0.274-0.531,0.481-0.912,0.481c-0.705,0-1.203-0.526-1.203-1.4c0-0.867,0.493-1.405,1.203-1.405
				c0.364,0,0.694,0.179,0.912,0.476v-0.408h0.42v2.664c0,0.857-0.632,1.137-1.293,1.137
				C171.771,289.353,171.457,289.263,171.133,288.944z M173.097,287.478v-1.187c-0.151-0.229-0.476-0.431-0.806-0.431
				c-0.548,0-0.873,0.431-0.873,1.029c0,0.594,0.325,1.024,0.873,1.024C172.622,287.914,172.946,287.713,173.097,287.478z"/>
		</g>
	</g>
	<g>
		<g>
			<g>
				<g>
					<path fill="#929497" d="M203.646,280.987h-16.8v-16.8h16.8V280.987z M187.546,280.287h15.4v-15.4h-15.4V280.287z"/>
				</g>
			</g>
			<g>
				<g>
					<polygon fill="#929497" points="197.559,272.723 193.297,268.017 193.815,267.547 197.383,271.485 202.175,261.615 
						202.805,261.921 					"/>
				</g>
			</g>
		</g>
		<g>
			<g>
				<path fill="#929497" d="M183.117,287.108c0-1.147,0.845-1.931,1.92-1.931c0.66,0,1.119,0.313,1.416,0.739l-0.386,0.218
					c-0.213-0.319-0.605-0.543-1.03-0.543c-0.817,0-1.439,0.621-1.439,1.517c0,0.885,0.621,1.517,1.439,1.517
					c0.425,0,0.817-0.23,1.03-0.543l0.392,0.213c-0.313,0.431-0.761,0.744-1.422,0.744
					C183.963,289.039,183.117,288.256,183.117,287.108z"/>
			</g>
			<g>
				<path fill="#929497" d="M187.037,288.972v-3.733h0.42v3.733H187.037z"/>
			</g>
			<g>
				<path fill="#929497" d="M188.14,287.617c0-0.783,0.56-1.416,1.332-1.416c0.817,0,1.298,0.638,1.298,1.45v0.106h-2.183
					c0.033,0.509,0.386,0.934,0.968,0.934c0.314,0,0.621-0.123,0.84-0.347l0.201,0.274c-0.274,0.269-0.638,0.42-1.075,0.42
					C188.717,289.039,188.14,288.463,188.14,287.617z M189.467,286.548c-0.576,0-0.862,0.487-0.884,0.896h1.774
					C190.351,287.046,190.083,286.548,189.467,286.548z"/>
			</g>
			<g>
				<path fill="#929497" d="M193.14,288.972v-0.308c-0.218,0.247-0.531,0.375-0.896,0.375c-0.453,0-0.94-0.308-0.94-0.896
					c0-0.61,0.482-0.89,0.94-0.89c0.369,0,0.677,0.118,0.896,0.364v-0.487c0-0.358-0.291-0.565-0.683-0.565
					c-0.325,0-0.588,0.112-0.829,0.375l-0.196-0.291c0.291-0.302,0.638-0.448,1.08-0.448c0.577,0,1.047,0.258,1.047,0.913v1.858
					H193.14z M193.14,288.401v-0.515c-0.162-0.218-0.448-0.33-0.739-0.33c-0.398,0-0.672,0.246-0.672,0.588
					c0,0.347,0.274,0.593,0.672,0.593C192.692,288.737,192.978,288.625,193.14,288.401z"/>
			</g>
			<g>
				<path fill="#929497" d="M196.237,288.972v-1.769c0-0.482-0.246-0.627-0.61-0.627c-0.33,0-0.638,0.201-0.8,0.42v1.976h-0.42
					v-2.704h0.42v0.392c0.19-0.229,0.56-0.459,0.968-0.459c0.56,0,0.857,0.286,0.857,0.873v1.898H196.237z"/>
			</g>
			<g>
				<path fill="#929497" d="M200.638,288.972v-0.308c-0.218,0.247-0.531,0.375-0.896,0.375c-0.453,0-0.94-0.308-0.94-0.896
					c0-0.61,0.482-0.89,0.94-0.89c0.369,0,0.677,0.118,0.896,0.364v-0.487c0-0.358-0.291-0.565-0.683-0.565
					c-0.325,0-0.588,0.112-0.829,0.375l-0.196-0.291c0.291-0.302,0.638-0.448,1.08-0.448c0.577,0,1.047,0.258,1.047,0.913v1.858
					H200.638z M200.638,288.401v-0.515c-0.162-0.218-0.448-0.33-0.739-0.33c-0.398,0-0.672,0.246-0.672,0.588
					c0,0.347,0.274,0.593,0.672,0.593C200.19,288.737,200.476,288.625,200.638,288.401z"/>
			</g>
			<g>
				<path fill="#929497" d="M203.735,288.972v-1.769c0-0.482-0.246-0.627-0.61-0.627c-0.33,0-0.638,0.201-0.8,0.42v1.976h-0.42
					v-2.704h0.42v0.392c0.19-0.229,0.56-0.459,0.968-0.459c0.56,0,0.857,0.286,0.857,0.873v1.898H203.735z"/>
			</g>
			<g>
				<path fill="#929497" d="M206.955,288.972v-0.403c-0.201,0.274-0.531,0.47-0.912,0.47c-0.705,0-1.203-0.537-1.203-1.416
					c0-0.867,0.498-1.422,1.203-1.422c0.364,0,0.694,0.179,0.912,0.476v-1.438h0.42v3.733H206.955z M206.955,288.233v-1.22
					c-0.145-0.235-0.476-0.436-0.806-0.436c-0.548,0-0.873,0.448-0.873,1.047c0,0.599,0.325,1.041,0.873,1.041
					C206.479,288.664,206.81,288.468,206.955,288.233z"/>
			</g>
			<g>
				<path fill="#929497" d="M184.657,295.692l-1.125-2.703h0.459l0.896,2.216l0.901-2.216h0.454l-1.125,2.703H184.657z"/>
			</g>
			<g>
				<path fill="#929497" d="M188.369,295.692v-0.308c-0.218,0.246-0.531,0.375-0.896,0.375c-0.453,0-0.94-0.308-0.94-0.896
					c0-0.61,0.482-0.89,0.94-0.89c0.369,0,0.677,0.118,0.896,0.364v-0.487c0-0.358-0.291-0.565-0.683-0.565
					c-0.325,0-0.588,0.111-0.829,0.375l-0.196-0.291c0.291-0.302,0.638-0.448,1.08-0.448c0.577,0,1.047,0.258,1.047,0.913v1.858
					H188.369z M188.369,295.121v-0.515c-0.162-0.218-0.448-0.33-0.739-0.33c-0.398,0-0.672,0.246-0.672,0.588
					c0,0.347,0.274,0.593,0.672,0.593C187.921,295.457,188.207,295.345,188.369,295.121z"/>
			</g>
			<g>
				<path fill="#929497" d="M189.636,295.692v-3.733h0.42v3.733H189.636z"/>
			</g>
			<g>
				<path fill="#929497" d="M190.823,292.322c0-0.157,0.129-0.285,0.285-0.285c0.157,0,0.28,0.129,0.28,0.285
					c0,0.157-0.123,0.28-0.28,0.28C190.952,292.603,190.823,292.479,190.823,292.322z M190.896,295.692v-2.703h0.42v2.703H190.896z"
					/>
			</g>
			<g>
				<path fill="#929497" d="M194.114,295.692v-0.403c-0.201,0.274-0.531,0.47-0.912,0.47c-0.705,0-1.203-0.537-1.203-1.416
					c0-0.867,0.498-1.422,1.203-1.422c0.364,0,0.694,0.179,0.912,0.476v-1.438h0.42v3.733H194.114z M194.114,294.953v-1.22
					c-0.145-0.235-0.476-0.437-0.806-0.437c-0.548,0-0.873,0.448-0.873,1.047c0,0.599,0.325,1.041,0.873,1.041
					C193.639,295.384,193.969,295.188,194.114,294.953z"/>
			</g>
			<g>
				<path fill="#929497" d="M197.066,295.692v-0.308c-0.218,0.246-0.531,0.375-0.896,0.375c-0.453,0-0.94-0.308-0.94-0.896
					c0-0.61,0.482-0.89,0.94-0.89c0.369,0,0.677,0.118,0.896,0.364v-0.487c0-0.358-0.291-0.565-0.683-0.565
					c-0.325,0-0.588,0.111-0.829,0.375l-0.196-0.291c0.291-0.302,0.638-0.448,1.08-0.448c0.577,0,1.047,0.258,1.047,0.913v1.858
					H197.066z M197.066,295.121v-0.515c-0.162-0.218-0.448-0.33-0.739-0.33c-0.398,0-0.672,0.246-0.672,0.588
					c0,0.347,0.274,0.593,0.672,0.593C196.618,295.457,196.903,295.345,197.066,295.121z"/>
			</g>
			<g>
				<path fill="#929497" d="M198.417,295.126v-1.768h-0.448v-0.369h0.448v-0.739h0.425v0.739h0.549v0.369h-0.549v1.679
					c0,0.202,0.09,0.347,0.269,0.347c0.123,0,0.23-0.056,0.285-0.118l0.123,0.319c-0.106,0.1-0.258,0.174-0.498,0.174
					C198.618,295.759,198.417,295.53,198.417,295.126z"/>
			</g>
			<g>
				<path fill="#929497" d="M199.906,292.322c0-0.157,0.129-0.285,0.285-0.285c0.157,0,0.28,0.129,0.28,0.285
					c0,0.157-0.123,0.28-0.28,0.28C200.035,292.603,199.906,292.479,199.906,292.322z M199.979,295.692v-2.703h0.42v2.703H199.979z"
					/>
			</g>
			<g>
				<path fill="#929497" d="M201.082,294.337c0-0.783,0.515-1.416,1.337-1.416s1.338,0.633,1.338,1.416
					c0,0.783-0.515,1.422-1.338,1.422S201.082,295.121,201.082,294.337z M203.315,294.337c0-0.548-0.319-1.041-0.896-1.041
					c-0.576,0-0.896,0.493-0.896,1.041c0,0.554,0.319,1.047,0.896,1.047C202.996,295.384,203.315,294.891,203.315,294.337z"/>
			</g>
			<g>
				<path fill="#929497" d="M206.272,295.692v-1.768c0-0.481-0.246-0.627-0.61-0.627c-0.33,0-0.638,0.202-0.8,0.42v1.976h-0.42
					v-2.703h0.42v0.392c0.19-0.23,0.56-0.459,0.968-0.459c0.56,0,0.856,0.286,0.856,0.874v1.897H206.272z"/>
			</g>
		</g>
	</g>
	<rect x="107.353" y="269.054" fill="#2D2D2D" width="14.7" height="11.9"/>
	<path fill="#929497" d="M122.553,281.454h-15.7v-12.9h15.7V281.454z M107.853,280.454h13.7v-10.9h-13.7V280.454z"/>
	<rect x="103.992" y="266.487" fill="#2D2D2D" width="16.1" height="12.6"/>
	<path fill="#929497" d="M120.592,279.587h-17.1v-13.6h17.1V279.587z M104.492,278.587h15.1v-11.6h-15.1V278.587z"/>
	<rect x="101.892" y="264.387" fill="#2D2D2D" width="16.1" height="12.6"/>
	<path fill="#929497" d="M118.492,277.487h-17.1v-13.6h17.1V277.487z M102.392,276.487h15.1v-11.6h-15.1V276.487z"/>
	<g>
		<g>
			<path fill="#929497" d="M103.382,287.074c0-1.147,0.845-1.931,1.92-1.931c0.66,0,1.119,0.313,1.416,0.739l-0.386,0.218
				c-0.213-0.319-0.605-0.543-1.03-0.543c-0.817,0-1.439,0.621-1.439,1.517c0,0.885,0.621,1.517,1.439,1.517
				c0.425,0,0.817-0.23,1.03-0.543l0.392,0.213c-0.313,0.431-0.761,0.744-1.422,0.744
				C104.228,289.006,103.382,288.222,103.382,287.074z"/>
		</g>
		<g>
			<path fill="#929497" d="M107.146,287.584c0-0.783,0.515-1.416,1.337-1.416s1.338,0.633,1.338,1.416
				c0,0.784-0.515,1.422-1.338,1.422S107.146,288.368,107.146,287.584z M109.378,287.584c0-0.549-0.319-1.041-0.896-1.041
				c-0.576,0-0.896,0.492-0.896,1.041c0,0.554,0.319,1.047,0.896,1.047C109.06,288.63,109.378,288.138,109.378,287.584z"/>
		</g>
		<g>
			<path fill="#929497" d="M110.505,288.939v-2.704h0.42v0.431c0.218-0.28,0.532-0.493,0.901-0.493v0.431
				c-0.051-0.006-0.101-0.011-0.162-0.011c-0.263,0-0.616,0.213-0.739,0.431v1.914H110.505z"/>
		</g>
		<g>
			<path fill="#929497" d="M112.773,288.53v1.438h-0.42v-3.733h0.42v0.403c0.196-0.274,0.532-0.47,0.912-0.47
				c0.711,0,1.203,0.537,1.203,1.416c0,0.874-0.493,1.422-1.203,1.422C113.316,289.006,112.997,288.826,112.773,288.53z
				 M114.446,287.584c0-0.599-0.324-1.041-0.867-1.041c-0.33,0-0.66,0.196-0.806,0.431v1.221c0.146,0.235,0.476,0.436,0.806,0.436
				C114.122,288.63,114.446,288.182,114.446,287.584z"/>
		</g>
		<g>
			<path fill="#929497" d="M117.381,288.939v-0.381c-0.207,0.235-0.56,0.448-0.962,0.448c-0.565,0-0.862-0.28-0.862-0.862v-1.909
				h0.42v1.78c0,0.476,0.241,0.615,0.61,0.615c0.325,0,0.638-0.19,0.795-0.408v-1.987h0.42v2.704H117.381z"/>
		</g>
		<g>
			<path fill="#929497" d="M118.413,288.58l0.213-0.302c0.179,0.207,0.521,0.386,0.89,0.386c0.414,0,0.644-0.196,0.644-0.465
				c0-0.655-1.673-0.252-1.673-1.254c0-0.425,0.358-0.778,1.002-0.778c0.465,0,0.789,0.174,1.002,0.392l-0.196,0.291
				c-0.162-0.196-0.454-0.341-0.806-0.341c-0.369,0-0.599,0.185-0.599,0.426c0,0.588,1.673,0.201,1.673,1.254
				c0,0.453-0.364,0.817-1.058,0.817C119.056,289.006,118.687,288.865,118.413,288.58z"/>
		</g>
	</g>
	<g>
		<g>
			<g>
				<g>
					<g>
						<line fill="#929497" x1="79.299" y1="259.656" x2="79.299" y2="275.002"/>
					</g>
				</g>
				<g>
					<g>
						<g>
							<rect x="78.949" y="259.656" fill="#929497" width="0.7" height="14.587"/>
						</g>
					</g>
					<g>
						<g>
							<g>
								<polygon fill="#929497" points="76.436,271.924 76.949,271.446 79.298,273.974 81.648,271.446 82.161,271.924 
									79.298,275.002 								"/>
							</g>
						</g>
					</g>
				</g>
			</g>
			<g>
				<g>
					<path fill="#929497" d="M89.449,281.094h-20.3v-14h20.3V281.094z M69.849,280.394h18.9v-12.6h-18.9V280.394z"/>
				</g>
			</g>
		</g>
		<g>
			<g>
				<path fill="#929497" d="M67.245,289.017v-3.733h1.276c1.164,0,1.914,0.811,1.914,1.869c0,1.064-0.75,1.864-1.914,1.864H67.245z
					 M69.954,287.153c0-0.806-0.509-1.455-1.433-1.455H67.71v2.905h0.812C69.428,288.603,69.954,287.953,69.954,287.153z"/>
			</g>
			<g>
				<path fill="#929497" d="M70.992,287.662c0-0.783,0.515-1.416,1.337-1.416c0.823,0,1.338,0.633,1.338,1.416
					c0,0.784-0.515,1.422-1.338,1.422C71.507,289.084,70.992,288.446,70.992,287.662z M73.225,287.662
					c0-0.549-0.319-1.041-0.896-1.041c-0.576,0-0.896,0.492-0.896,1.041c0,0.554,0.319,1.047,0.896,1.047
					C72.906,288.709,73.225,288.217,73.225,287.662z"/>
			</g>
			<g>
				<path fill="#929497" d="M76.692,289.017l-0.705-2.172l-0.705,2.172h-0.42l-0.862-2.704h0.437l0.66,2.155l0.711-2.155h0.364
					l0.705,2.155l0.661-2.155h0.442l-0.862,2.704H76.692z"/>
			</g>
			<g>
				<path fill="#929497" d="M80.293,289.017v-1.769c0-0.482-0.246-0.627-0.61-0.627c-0.33,0-0.638,0.201-0.8,0.42v1.976h-0.42
					v-2.704h0.42v0.392c0.19-0.229,0.56-0.459,0.968-0.459c0.56,0,0.856,0.286,0.856,0.873v1.898H80.293z"/>
			</g>
			<g>
				<path fill="#929497" d="M81.554,289.017v-3.733h0.42v3.733H81.554z"/>
			</g>
			<g>
				<path fill="#929497" d="M82.657,287.662c0-0.783,0.515-1.416,1.337-1.416s1.338,0.633,1.338,1.416
					c0,0.784-0.515,1.422-1.338,1.422S82.657,288.446,82.657,287.662z M84.89,287.662c0-0.549-0.319-1.041-0.896-1.041
					c-0.576,0-0.896,0.492-0.896,1.041c0,0.554,0.319,1.047,0.896,1.047C84.571,288.709,84.89,288.217,84.89,287.662z"/>
			</g>
			<g>
				<path fill="#929497" d="M87.707,289.017v-0.308c-0.218,0.247-0.531,0.375-0.896,0.375c-0.453,0-0.94-0.308-0.94-0.896
					c0-0.61,0.482-0.89,0.94-0.89c0.369,0,0.677,0.118,0.896,0.364v-0.487c0-0.358-0.291-0.565-0.683-0.565
					c-0.325,0-0.588,0.112-0.829,0.375L86,286.694c0.291-0.302,0.638-0.448,1.08-0.448c0.577,0,1.047,0.258,1.047,0.913v1.858
					H87.707z M87.707,288.446v-0.515c-0.162-0.218-0.448-0.33-0.739-0.33c-0.398,0-0.672,0.246-0.672,0.588
					c0,0.347,0.274,0.593,0.672,0.593C87.259,288.782,87.545,288.67,87.707,288.446z"/>
			</g>
			<g>
				<path fill="#929497" d="M90.933,289.017v-0.403c-0.201,0.274-0.531,0.47-0.912,0.47c-0.705,0-1.203-0.537-1.203-1.416
					c0-0.867,0.498-1.422,1.203-1.422c0.364,0,0.694,0.179,0.912,0.476v-1.438h0.42v3.733H90.933z M90.933,288.278v-1.22
					c-0.145-0.235-0.476-0.436-0.806-0.436c-0.548,0-0.873,0.448-0.873,1.047c0,0.599,0.325,1.041,0.873,1.041
					C90.457,288.709,90.787,288.513,90.933,288.278z"/>
			</g>
		</g>
	</g>
	<g>
		<g>
			<g>
				<rect x="47.28" y="272.862" fill="#929497" width="6.3" height="0.7"/>
			</g>
			<g>
				<rect x="47.28" y="274.962" fill="#929497" width="6.3" height="0.7"/>
			</g>
			<g>
				<rect x="47.28" y="277.062" fill="#929497" width="6.3" height="0.7"/>
			</g>
			<g>
				<path fill="#929497" d="M53.016,266.562h-0.395H44.48v14.7h11.9v-11.593v-0.137L53.016,266.562z M53.151,267.467l2.214,1.928
					l-2.349,0.352L53.151,267.467z M55.68,280.562h-10.5v-13.3h7.59l-0.29,3.085l3.199-0.617V280.562z"/>
			</g>
		</g>
		<g>
			<g>
				<path fill="#929497" d="M40.941,289.185v-3.733h1.276c1.164,0,1.914,0.811,1.914,1.869c0,1.064-0.75,1.864-1.914,1.864H40.941z
					 M43.65,287.321c0-0.806-0.509-1.455-1.433-1.455h-0.812v2.905h0.812C43.124,288.771,43.65,288.122,43.65,287.321z"/>
			</g>
			<g>
				<path fill="#929497" d="M46.535,289.185v-0.308c-0.218,0.247-0.531,0.375-0.896,0.375c-0.453,0-0.94-0.308-0.94-0.896
					c0-0.61,0.482-0.89,0.94-0.89c0.369,0,0.677,0.118,0.896,0.364v-0.487c0-0.358-0.291-0.565-0.683-0.565
					c-0.325,0-0.588,0.112-0.829,0.375l-0.196-0.291c0.291-0.302,0.638-0.448,1.08-0.448c0.577,0,1.047,0.258,1.047,0.913v1.858
					H46.535z M46.535,288.615v-0.515c-0.162-0.218-0.448-0.33-0.739-0.33c-0.398,0-0.672,0.246-0.672,0.588
					c0,0.347,0.274,0.593,0.672,0.593C46.087,288.95,46.373,288.838,46.535,288.615z"/>
			</g>
			<g>
				<path fill="#929497" d="M47.886,288.62v-1.769h-0.448v-0.369h0.448v-0.739h0.425v0.739h0.549v0.369h-0.549v1.679
					c0,0.202,0.09,0.347,0.269,0.347c0.123,0,0.23-0.055,0.285-0.117l0.123,0.319c-0.106,0.101-0.258,0.174-0.498,0.174
					C48.087,289.252,47.886,289.023,47.886,288.62z"/>
			</g>
			<g>
				<path fill="#929497" d="M51.138,289.185v-0.308c-0.218,0.247-0.531,0.375-0.896,0.375c-0.453,0-0.94-0.308-0.94-0.896
					c0-0.61,0.482-0.89,0.94-0.89c0.369,0,0.677,0.118,0.896,0.364v-0.487c0-0.358-0.291-0.565-0.683-0.565
					c-0.325,0-0.588,0.112-0.829,0.375l-0.196-0.291c0.291-0.302,0.638-0.448,1.08-0.448c0.577,0,1.047,0.258,1.047,0.913v1.858
					H51.138z M51.138,288.615v-0.515c-0.162-0.218-0.448-0.33-0.739-0.33c-0.398,0-0.672,0.246-0.672,0.588
					c0,0.347,0.274,0.593,0.672,0.593C50.69,288.95,50.976,288.838,51.138,288.615z"/>
			</g>
			<g>
				<path fill="#929497" d="M52.176,288.827l0.213-0.302c0.179,0.207,0.521,0.386,0.89,0.386c0.414,0,0.644-0.196,0.644-0.465
					c0-0.655-1.673-0.252-1.673-1.254c0-0.425,0.358-0.778,1.002-0.778c0.465,0,0.789,0.174,1.002,0.392l-0.196,0.291
					c-0.162-0.196-0.454-0.341-0.806-0.341c-0.369,0-0.599,0.185-0.599,0.426c0,0.588,1.673,0.201,1.673,1.254
					c0,0.453-0.364,0.817-1.058,0.817C52.819,289.252,52.45,289.112,52.176,288.827z"/>
			</g>
			<g>
				<path fill="#929497" d="M54.853,287.83c0-0.783,0.56-1.416,1.332-1.416c0.817,0,1.298,0.638,1.298,1.45v0.106H55.3
					c0.033,0.509,0.386,0.934,0.968,0.934c0.314,0,0.621-0.123,0.84-0.347l0.201,0.274c-0.274,0.269-0.638,0.42-1.075,0.42
					C55.429,289.252,54.853,288.676,54.853,287.83z M56.179,286.762c-0.576,0-0.862,0.487-0.884,0.896h1.774
					C57.063,287.26,56.795,286.762,56.179,286.762z"/>
			</g>
			<g>
				<path fill="#929497" d="M58.246,288.62v-1.769h-0.448v-0.369h0.448v-0.739h0.425v0.739h0.549v0.369h-0.549v1.679
					c0,0.202,0.09,0.347,0.269,0.347c0.123,0,0.23-0.055,0.285-0.117l0.123,0.319c-0.107,0.101-0.258,0.174-0.498,0.174
					C58.447,289.252,58.246,289.023,58.246,288.62z"/>
			</g>
		</g>
	</g>
	<g>
		<g>
			<g>
				<g>
					<path fill="#929497" d="M27.21,282h-8.649l-4.331-7.5l4.331-7.5h8.649l4.331,7.5L27.21,282z M18.961,281h7.849l3.918-6.5
						L26.81,268h-7.849l-3.918,6.5L18.961,281z"/>
				</g>
			</g>
			<g>
				<g>
					<path fill="#929497" d="M25.698,279h-5.626l-2.837-4.5l2.837-4.5h5.626l2.837,4.5L25.698,279z M20.46,278h4.849l2.4-3.5
						l-2.4-3.5H20.46l-2.4,3.5L20.46,278z"/>
				</g>
			</g>
		</g>
		<g>
			<g>
				<path fill="#929497" d="M18.072,288.956v-3.319h-1.181v-0.414h2.832v0.414h-1.187v3.319H18.072z"/>
			</g>
			<g>
				<path fill="#929497" d="M19.524,287.601c0-0.783,0.515-1.416,1.337-1.416s1.338,0.633,1.338,1.416
					c0,0.784-0.515,1.422-1.338,1.422S19.524,288.385,19.524,287.601z M21.757,287.601c0-0.549-0.319-1.041-0.896-1.041
					c-0.576,0-0.896,0.492-0.896,1.041c0,0.554,0.319,1.047,0.896,1.047C21.438,288.647,21.757,288.155,21.757,287.601z"/>
			</g>
			<g>
				<path fill="#929497" d="M22.727,287.601c0-0.783,0.515-1.416,1.337-1.416c0.823,0,1.338,0.633,1.338,1.416
					c0,0.784-0.515,1.422-1.338,1.422C23.242,289.023,22.727,288.385,22.727,287.601z M24.96,287.601
					c0-0.549-0.319-1.041-0.896-1.041c-0.576,0-0.896,0.492-0.896,1.041c0,0.554,0.319,1.047,0.896,1.047
					C24.641,288.647,24.96,288.155,24.96,287.601z"/>
			</g>
			<g>
				<path fill="#929497" d="M26.087,288.956v-3.733h0.42v3.733H26.087z"/>
			</g>
		</g>
	</g>
	<g>
		<rect x="13.5" y="255.5" fill="#F2F2F2" stroke="#929497" stroke-miterlimit="10" width="194" height="1"/>
	</g>
</g>
<g id="guide" display="none">
</g>
</svg>
