<?xml version="1.0" encoding="utf-8"?>
<!-- Generator: Adobe Illustrator 17.0.0, SVG Export Plug-In . SVG Version: 6.00 Build 0)  -->
<!DOCTYPE svg PUBLIC "-//W3C//DTD SVG 1.1//EN" "http://www.w3.org/Graphics/SVG/1.1/DTD/svg11.dtd">
<svg version="1.1" xmlns="http://www.w3.org/2000/svg" xmlns:xlink="http://www.w3.org/1999/xlink" x="0px" y="0px" width="850px"
	 height="457.414px" viewBox="0 0 850 457.414" enable-background="new 0 0 850 457.414" xml:space="preserve">
<g id="sfondo">
	<rect y="-1.586" fill="#2D2D2D" width="850" height="459"/>
</g>
<g id="Livello_1">
	<rect x="28.5" y="22.411" fill="none" width="39.829" height="8.5"/>
	<text transform="matrix(1 0 0 1 28.5002 29.0803)" fill="#F2F2F2" font-family="'ProximaNova-Regular'" font-size="10">SOURCE</text>
	<rect x="79.086" y="20.494" fill="none" width="73.581" height="10.333"/>
	<text transform="matrix(1 0 0 1 79.0852 28.4978)" fill="#F2F2F2" font-family="'ProximaNova-Regular'" font-size="12">Wikipedia.org</text>
	<rect x="71.329" y="67.327" fill="none" width="83.162" height="12"/>
	<text transform="matrix(1 0 0 1 71.3291 73.9969)" fill="#F2F2F2" font-family="'ProximaNova-Regular'" font-size="10">sharing economy</text>
	<rect x="71.329" y="85.716" fill="none" width="208.579" height="6.944"/>
	<text transform="matrix(1 0 0 1 71.3291 92.3863)" fill="#F2F2F2" font-family="'ProximaNova-Regular'" font-size="10">online platform for collaborative consumption </text>
	<rect x="71.329" y="104.105" fill="none" width="118.162" height="7.889"/>
	<text transform="matrix(1 0 0 1 71.3291 110.7747)" fill="#F2F2F2" font-family="'ProximaNova-Regular'" font-size="10">access economy</text>
	<rect x="71.329" y="122.494" fill="none" width="98.829" height="12"/>
	<text transform="matrix(1 0 0 1 71.3291 129.1641)" fill="#F2F2F2" font-family="'ProximaNova-Regular'" font-size="10">anti-consumerism </text>
	<rect x="71.329" y="140.883" fill="none" width="98.829" height="12"/>
	<text transform="matrix(1 0 0 1 71.3291 147.553)" fill="#F2F2F2" font-family="'ProximaNova-Regular'" font-size="10">new economy</text>
	<rect x="71.329" y="159.272" fill="none" width="148.162" height="12"/>
	<text transform="matrix(1 0 0 1 71.3291 165.9414)" fill="#F2F2F2" font-family="'ProximaNova-Regular'" font-size="10">indipendent contractor</text>
	<rect x="71.329" y="177.661" fill="none" width="148.162" height="12"/>
	<text transform="matrix(1 0 0 1 71.3291 184.3303)" fill="#F2F2F2" font-family="'ProximaNova-Regular'" font-size="10">reputation system </text>
	<rect x="71.329" y="196.049" fill="none" width="148.162" height="12"/>
	<text transform="matrix(1 0 0 1 71.3291 202.7192)" fill="#F2F2F2" font-family="'ProximaNova-Regular'" font-size="10">Uber</text>
	<rect x="71.329" y="214.438" fill="none" width="148.162" height="12"/>
	<text transform="matrix(1 0 0 1 71.3291 221.1081)" fill="#F2F2F2" font-family="'ProximaNova-Regular'" font-size="10">Airbnb</text>
	<rect x="71.329" y="232.827" fill="none" width="148.162" height="12"/>
	<text transform="matrix(1 0 0 1 71.3291 239.4969)" fill="#F2F2F2" font-family="'ProximaNova-Regular'" font-size="10">Grab taxi</text>
	<rect x="71.329" y="251.216" fill="none" width="148.162" height="12"/>
	<text transform="matrix(1 0 0 1 71.3291 257.8858)" fill="#F2F2F2" font-family="'ProximaNova-Regular'" font-size="10">Didi Kuaidi</text>
	<rect x="71.329" y="269.605" fill="none" width="148.162" height="12"/>
	<text transform="matrix(1 0 0 1 71.3291 276.2747)" fill="#F2F2F2" font-family="'ProximaNova-Regular'" font-size="10">Lyft</text>
	<rect x="71.329" y="287.994" fill="none" width="148.162" height="12"/>
	<text transform="matrix(1 0 0 1 71.3291 294.6636)" fill="#F2F2F2" font-family="'ProximaNova-Regular'" font-size="10">Ola</text>
	<rect x="71.329" y="306.383" fill="none" width="148.162" height="12"/>
	<text transform="matrix(1 0 0 1 71.3291 313.0526)" fill="#F2F2F2" font-family="'ProximaNova-Regular'" font-size="10">Wework</text>
	<rect x="71.329" y="324.772" fill="none" width="148.162" height="12"/>
	<text transform="matrix(1 0 0 1 71.3291 331.4414)" fill="#F2F2F2" font-family="'ProximaNova-Regular'" font-size="10">Home away</text>
	<rect x="71.329" y="343.16" fill="none" width="148.162" height="12"/>
	<text transform="matrix(1 0 0 1 71.3291 349.8303)" fill="#F2F2F2" font-family="'ProximaNova-Regular'" font-size="10">Prosper</text>
	<rect x="27.344" y="207.401" fill="none" width="36.156" height="8.025"/>
	<text transform="matrix(1 0 0 1 27.344 214.0711)" fill="#F2F2F2" font-family="'ProximaNova-Regular'" font-size="10">SEEDS</text>
	<rect x="23.5" y="15.914" fill="none" stroke="#F2F2F2" stroke-miterlimit="10" width="49" height="19"/>
	<line fill="none" stroke="#F2F2F2" stroke-miterlimit="10" x1="63.5" y1="67.414" x2="63.5" y2="351.414"/>
	<polyline fill="none" stroke="#F2F2F2" stroke-miterlimit="10" points="266,66.914 276.5,66.914 276.5,352.914 265,352.914 	"/>
	<g>
		<g>
			<line fill="none" stroke="#F2F2F2" stroke-miterlimit="10" x1="276" y1="209.914" x2="315" y2="209.914"/>
			<g>
				<polygon fill="#F2F2F2" points="311.602,214.25 310.92,213.518 314.532,210.161 310.92,206.804 311.602,206.072 316,210.161 
									"/>
			</g>
		</g>
	</g>
	<rect x="406.833" y="224.414" fill="none" width="43.333" height="8"/>
	<text transform="matrix(1 0 0 1 411.3154 231.0835)" fill="#F2F2F2" font-family="'ProximaNova-Regular'" font-size="10">file.gexf</text>
	<g>
		<g>
			<line fill="none" stroke="#F2F2F2" stroke-miterlimit="10" x1="367" y1="209.914" x2="406" y2="209.914"/>
			<g>
				<polygon fill="#F2F2F2" points="402.602,214.25 401.92,213.518 405.532,210.161 401.92,206.804 402.602,206.072 407,210.161 
									"/>
			</g>
		</g>
	</g>
	<g>
		<g>
			<line fill="none" stroke="#F2F2F2" stroke-miterlimit="10" x1="450" y1="207.914" x2="489" y2="207.914"/>
			<g>
				<polygon fill="#F2F2F2" points="485.602,212.25 484.92,211.518 488.532,208.161 484.92,204.804 485.602,204.072 490,208.161 
									"/>
			</g>
		</g>
	</g>
	<line fill="none" stroke="#F2F2F2" stroke-miterlimit="10" x1="23.5" y1="35.414" x2="23.5" y2="214.414"/>
	<rect x="308.38" y="224.414" fill="none" width="67.86" height="8"/>
	<text transform="matrix(1 0 0 1 308.3805 231.0834)"><tspan x="0" y="0" fill="#F2F2F2" font-family="'ProximaNova-Regular'" font-size="10">SEEALSOLO</tspan><tspan x="54.84" y="0" fill="#F2F2F2" font-family="'ProximaNova-Regular'" font-size="10">-</tspan></text>
	<g>
		<polygon fill="none" stroke="#F2F2F2" stroke-miterlimit="10" points="335.272,215.914 329.38,205.914 335.272,195.914 
			347.057,195.914 352.949,205.914 347.057,215.914 		"/>
		<polygon fill="none" stroke="#F2F2F2" stroke-miterlimit="10" points="337.424,211.914 333.683,205.914 337.424,199.914 
			344.905,199.914 348.646,205.914 344.905,211.914 		"/>
	</g>
	<g>
		<rect x="424" y="204.414" fill="#F2F2F2" width="9" height="1"/>
		<rect x="424" y="207.414" fill="#F2F2F2" width="9" height="1"/>
		<rect x="424" y="210.414" fill="#F2F2F2" width="9" height="1"/>
		<path fill="#F2F2F2" d="M432.194,195.414h-0.564H420v21h17v-16.561v-0.196L432.194,195.414z M432.387,196.707l3.162,2.754
			l-3.356,0.503L432.387,196.707z M436,215.414h-15v-19h10.843l-0.414,4.408l4.571-0.882V215.414z"/>
	</g>
	<polyline fill="none" stroke="#F2F2F2" stroke-miterlimit="10" points="507.424,188.351 528.397,199.155 506.178,206.026 
		520.856,187.409 524.626,214.038 515.159,211.917 	"/>
	<circle fill="#2D2D2D" stroke="#F2F2F2" stroke-miterlimit="10" cx="521.936" cy="186.119" r="2.059"/>
	<circle fill="#2D2D2D" stroke="#F2F2F2" stroke-miterlimit="10" cx="528.634" cy="198.956" r="2.059"/>
	<polyline fill="none" stroke="#F2F2F2" stroke-miterlimit="10" points="505.192,205.654 507.424,188.351 515.238,211.793 	"/>
	<circle fill="#2D2D2D" stroke="#F2F2F2" stroke-miterlimit="10" cx="507.424" cy="188.351" r="2.059"/>
	<circle fill="#2D2D2D" stroke="#F2F2F2" stroke-miterlimit="10" cx="505.192" cy="205.654" r="2.059"/>
	<circle fill="#2D2D2D" stroke="#F2F2F2" stroke-miterlimit="10" cx="515.238" cy="211.793" r="2.059"/>
	<circle fill="#2D2D2D" stroke="#F2F2F2" stroke-miterlimit="10" cx="525.285" cy="214.026" r="2.059"/>
	<rect x="490.297" y="224.251" fill="none" width="54.001" height="31.635"/>
	<text transform="matrix(1 0 0 1 503.1979 230.9206)"><tspan x="0" y="0" fill="#F2F2F2" font-family="'ProximaNova-Regular'" font-size="10">GEPHI </tspan><tspan x="11.604" y="9" fill="#F2F2F2" font-family="'ProximaNova-Regular'" font-size="10">+ </tspan><tspan x="-7.385" y="18" fill="#F2F2F2" font-family="'ProximaNova-Regular'" font-size="10">SIGMA.JS</tspan></text>
	<g>
		<g>
			<g>
				<path fill="#929497" d="M139.228,421.07v-0.441l2.642-1.269l-2.642-1.283v-0.441l3.091,1.535v0.372L139.228,421.07z"/>
			</g>
			<g>
				<path fill="#929497" d="M142.503,422.366v-0.386h3.995v0.386H142.503z"/>
			</g>
			<g>
				<g>
					<path fill="#929497" d="M153.428,431.908h-16.939V414.97h16.939V431.908z M137.189,431.208h15.539V415.67h-15.539V431.208z"/>
				</g>
			</g>
		</g>
		<g>
			<g>
				<path fill="#929497" d="M138.077,439.367l0.28-0.358c0.241,0.28,0.644,0.537,1.17,0.537c0.666,0,0.879-0.358,0.879-0.649
					c0-0.962-2.211-0.425-2.211-1.757c0-0.616,0.549-1.041,1.287-1.041c0.565,0,1.008,0.196,1.321,0.526l-0.28,0.341
					c-0.28-0.313-0.672-0.448-1.08-0.448c-0.442,0-0.767,0.241-0.767,0.593c0,0.839,2.211,0.358,2.211,1.752
					c0,0.537-0.369,1.097-1.377,1.097C138.866,439.96,138.385,439.714,138.077,439.367z"/>
			</g>
			<g>
				<path fill="#929497" d="M141.409,438.538c0-0.8,0.543-1.416,1.349-1.416c0.493,0,0.783,0.202,0.991,0.47l-0.28,0.252
					c-0.179-0.246-0.409-0.347-0.688-0.347c-0.571,0-0.935,0.442-0.935,1.041c0,0.599,0.364,1.047,0.935,1.047
					c0.28,0,0.509-0.111,0.688-0.352l0.28,0.257c-0.207,0.269-0.498,0.47-0.991,0.47
					C141.952,439.96,141.409,439.339,141.409,438.538z"/>
			</g>
			<g>
				<path fill="#929497" d="M144.343,439.893v-2.704h0.42v0.431c0.218-0.28,0.532-0.493,0.901-0.493v0.431
					c-0.051-0.006-0.101-0.011-0.162-0.011c-0.263,0-0.616,0.213-0.739,0.431v1.914H144.343z"/>
			</g>
			<g>
				<path fill="#929497" d="M146.118,436.523c0-0.157,0.129-0.285,0.285-0.285c0.157,0,0.28,0.129,0.28,0.285
					c0,0.157-0.123,0.28-0.28,0.28C146.247,436.803,146.118,436.68,146.118,436.523z M146.191,439.893v-2.704h0.42v2.704H146.191z"
					/>
			</g>
			<g>
				<path fill="#929497" d="M147.87,439.484v1.438h-0.42v-3.733h0.42v0.403c0.196-0.274,0.532-0.47,0.912-0.47
					c0.711,0,1.203,0.537,1.203,1.416c0,0.874-0.493,1.422-1.203,1.422C148.413,439.96,148.094,439.781,147.87,439.484z
					 M149.544,438.538c0-0.599-0.324-1.041-0.867-1.041c-0.33,0-0.66,0.196-0.806,0.431v1.221c0.146,0.235,0.476,0.436,0.806,0.436
					C149.219,439.585,149.544,439.137,149.544,438.538z"/>
			</g>
			<g>
				<path fill="#929497" d="M150.738,439.328v-1.769h-0.448v-0.369h0.448v-0.739h0.425v0.739h0.549v0.369h-0.549v1.679
					c0,0.202,0.09,0.347,0.269,0.347c0.123,0,0.23-0.055,0.285-0.117l0.123,0.319c-0.107,0.101-0.258,0.174-0.498,0.174
					C150.939,439.96,150.738,439.73,150.738,439.328z"/>
			</g>
		</g>
	</g>
	<g>
		<g>
			<polygon fill="#929497" points="177,430.414 166,430.414 166,415.414 167,415.414 167,429.414 176,429.414 176,415.414 
				177,415.414 			"/>
		</g>
	</g>
	<g>
		<g>
			<path fill="#929497" d="M171.341,420.009c-1.222,0-2.217-0.995-2.217-2.217c0-1.222,0.995-2.217,2.217-2.217
				c1.222,0,2.217,0.995,2.217,2.217C173.558,419.014,172.563,420.009,171.341,420.009z M171.341,416.275
				c-0.837,0-1.517,0.68-1.517,1.517c0,0.837,0.68,1.517,1.517,1.517s1.517-0.68,1.517-1.517
				C172.858,416.955,172.178,416.275,171.341,416.275z"/>
		</g>
	</g>
	<g>
		<g>
			<polygon fill="#929497" points="166.52,416.706 166.091,416.154 171.32,412.092 176.494,416.154 176.062,416.705 171.317,412.98 
							"/>
		</g>
	</g>
	<g>
		<g>
			<path fill="#929497" d="M168.462,438.669v-3.319h-1.181v-0.414h2.832v0.414h-1.187v3.319H168.462z"/>
		</g>
		<g>
			<path fill="#929497" d="M171.872,438.669v-0.308c-0.218,0.247-0.531,0.375-0.896,0.375c-0.453,0-0.94-0.308-0.94-0.896
				c0-0.61,0.482-0.89,0.94-0.89c0.369,0,0.677,0.118,0.896,0.364v-0.487c0-0.358-0.291-0.565-0.683-0.565
				c-0.325,0-0.588,0.112-0.829,0.375l-0.196-0.291c0.291-0.302,0.638-0.448,1.08-0.448c0.577,0,1.047,0.258,1.047,0.913v1.858
				H171.872z M171.872,438.098v-0.515c-0.162-0.218-0.448-0.33-0.739-0.33c-0.398,0-0.672,0.246-0.672,0.588
				c0,0.347,0.274,0.593,0.672,0.593C171.424,438.434,171.709,438.322,171.872,438.098z"/>
		</g>
		<g>
			<path fill="#929497" d="M173.133,439.358l0.213-0.302c0.224,0.263,0.493,0.364,0.879,0.364c0.448,0,0.873-0.218,0.873-0.79
				v-0.408c-0.201,0.274-0.531,0.481-0.912,0.481c-0.705,0-1.203-0.526-1.203-1.4c0-0.867,0.493-1.405,1.203-1.405
				c0.364,0,0.694,0.179,0.912,0.476v-0.408h0.42v2.664c0,0.857-0.632,1.137-1.293,1.137
				C173.771,439.766,173.457,439.677,173.133,439.358z M175.097,437.891v-1.187c-0.151-0.229-0.476-0.431-0.806-0.431
				c-0.548,0-0.873,0.431-0.873,1.029c0,0.594,0.325,1.024,0.873,1.024C174.622,438.327,174.946,438.127,175.097,437.891z"/>
		</g>
	</g>
	<g>
		<g>
			<g>
				<g>
					<path fill="#929497" d="M205.646,431.401h-16.8v-16.8h16.8V431.401z M189.546,430.701h15.4v-15.4h-15.4V430.701z"/>
				</g>
			</g>
			<g>
				<g>
					<polygon fill="#929497" points="199.559,423.137 195.297,418.431 195.815,417.961 199.383,421.898 204.175,412.029 
						204.805,412.335 					"/>
				</g>
			</g>
		</g>
		<g>
			<g>
				<path fill="#929497" d="M185.117,437.521c0-1.147,0.845-1.931,1.92-1.931c0.66,0,1.119,0.313,1.416,0.739l-0.386,0.218
					c-0.213-0.319-0.605-0.543-1.03-0.543c-0.817,0-1.439,0.621-1.439,1.517c0,0.885,0.621,1.517,1.439,1.517
					c0.425,0,0.817-0.23,1.03-0.543l0.392,0.213c-0.313,0.431-0.761,0.744-1.422,0.744
					C185.963,439.453,185.117,438.669,185.117,437.521z"/>
			</g>
			<g>
				<path fill="#929497" d="M189.037,439.386v-3.733h0.42v3.733H189.037z"/>
			</g>
			<g>
				<path fill="#929497" d="M190.14,438.031c0-0.783,0.56-1.416,1.332-1.416c0.817,0,1.298,0.638,1.298,1.45v0.106h-2.183
					c0.033,0.509,0.386,0.934,0.968,0.934c0.314,0,0.621-0.123,0.84-0.347l0.201,0.274c-0.274,0.269-0.638,0.42-1.075,0.42
					C190.717,439.453,190.14,438.876,190.14,438.031z M191.467,436.962c-0.576,0-0.862,0.487-0.884,0.896h1.774
					C192.351,437.46,192.083,436.962,191.467,436.962z"/>
			</g>
			<g>
				<path fill="#929497" d="M195.14,439.386v-0.308c-0.218,0.247-0.531,0.375-0.896,0.375c-0.453,0-0.94-0.308-0.94-0.896
					c0-0.61,0.482-0.89,0.94-0.89c0.369,0,0.677,0.118,0.896,0.364v-0.487c0-0.358-0.291-0.565-0.683-0.565
					c-0.325,0-0.588,0.112-0.829,0.375l-0.196-0.291c0.291-0.302,0.638-0.448,1.08-0.448c0.577,0,1.047,0.258,1.047,0.913v1.858
					H195.14z M195.14,438.815v-0.515c-0.162-0.218-0.448-0.33-0.739-0.33c-0.398,0-0.672,0.246-0.672,0.588
					c0,0.347,0.274,0.593,0.672,0.593C194.692,439.15,194.978,439.038,195.14,438.815z"/>
			</g>
			<g>
				<path fill="#929497" d="M198.237,439.386v-1.769c0-0.482-0.246-0.627-0.61-0.627c-0.33,0-0.638,0.201-0.8,0.42v1.976h-0.42
					v-2.704h0.42v0.392c0.19-0.229,0.56-0.459,0.968-0.459c0.56,0,0.857,0.286,0.857,0.873v1.898H198.237z"/>
			</g>
			<g>
				<path fill="#929497" d="M202.638,439.386v-0.308c-0.218,0.247-0.531,0.375-0.896,0.375c-0.453,0-0.94-0.308-0.94-0.896
					c0-0.61,0.482-0.89,0.94-0.89c0.369,0,0.677,0.118,0.896,0.364v-0.487c0-0.358-0.291-0.565-0.683-0.565
					c-0.325,0-0.588,0.112-0.829,0.375l-0.196-0.291c0.291-0.302,0.638-0.448,1.08-0.448c0.577,0,1.047,0.258,1.047,0.913v1.858
					H202.638z M202.638,438.815v-0.515c-0.162-0.218-0.448-0.33-0.739-0.33c-0.398,0-0.672,0.246-0.672,0.588
					c0,0.347,0.274,0.593,0.672,0.593C202.19,439.15,202.476,439.038,202.638,438.815z"/>
			</g>
			<g>
				<path fill="#929497" d="M205.735,439.386v-1.769c0-0.482-0.246-0.627-0.61-0.627c-0.33,0-0.638,0.201-0.8,0.42v1.976h-0.42
					v-2.704h0.42v0.392c0.19-0.229,0.56-0.459,0.968-0.459c0.56,0,0.857,0.286,0.857,0.873v1.898H205.735z"/>
			</g>
			<g>
				<path fill="#929497" d="M208.955,439.386v-0.403c-0.201,0.274-0.531,0.47-0.912,0.47c-0.705,0-1.203-0.537-1.203-1.416
					c0-0.867,0.498-1.422,1.203-1.422c0.364,0,0.694,0.179,0.912,0.476v-1.438h0.42v3.733H208.955z M208.955,438.647v-1.22
					c-0.145-0.235-0.476-0.436-0.806-0.436c-0.548,0-0.873,0.448-0.873,1.047c0,0.599,0.325,1.041,0.873,1.041
					C208.479,439.077,208.81,438.882,208.955,438.647z"/>
			</g>
			<g>
				<path fill="#929497" d="M186.657,446.105l-1.125-2.703h0.459l0.896,2.216l0.901-2.216h0.454l-1.125,2.703H186.657z"/>
			</g>
			<g>
				<path fill="#929497" d="M190.369,446.105v-0.308c-0.218,0.246-0.531,0.375-0.896,0.375c-0.453,0-0.94-0.308-0.94-0.896
					c0-0.61,0.482-0.89,0.94-0.89c0.369,0,0.677,0.118,0.896,0.364v-0.487c0-0.358-0.291-0.565-0.683-0.565
					c-0.325,0-0.588,0.111-0.829,0.375l-0.196-0.291c0.291-0.302,0.638-0.448,1.08-0.448c0.577,0,1.047,0.258,1.047,0.913v1.858
					H190.369z M190.369,445.535v-0.515c-0.162-0.218-0.448-0.33-0.739-0.33c-0.398,0-0.672,0.246-0.672,0.588
					c0,0.347,0.274,0.593,0.672,0.593C189.921,445.87,190.207,445.759,190.369,445.535z"/>
			</g>
			<g>
				<path fill="#929497" d="M191.636,446.105v-3.733h0.42v3.733H191.636z"/>
			</g>
			<g>
				<path fill="#929497" d="M192.823,442.736c0-0.157,0.129-0.285,0.285-0.285c0.157,0,0.28,0.129,0.28,0.285
					c0,0.157-0.123,0.28-0.28,0.28C192.952,443.016,192.823,442.893,192.823,442.736z M192.896,446.105v-2.703h0.42v2.703H192.896z"
					/>
			</g>
			<g>
				<path fill="#929497" d="M196.114,446.105v-0.403c-0.201,0.274-0.531,0.47-0.912,0.47c-0.705,0-1.203-0.537-1.203-1.416
					c0-0.867,0.498-1.422,1.203-1.422c0.364,0,0.694,0.179,0.912,0.476v-1.438h0.42v3.733H196.114z M196.114,445.367v-1.22
					c-0.145-0.235-0.476-0.437-0.806-0.437c-0.548,0-0.873,0.448-0.873,1.047c0,0.599,0.325,1.041,0.873,1.041
					C195.639,445.798,195.969,445.602,196.114,445.367z"/>
			</g>
			<g>
				<path fill="#929497" d="M199.066,446.105v-0.308c-0.218,0.246-0.531,0.375-0.896,0.375c-0.453,0-0.94-0.308-0.94-0.896
					c0-0.61,0.482-0.89,0.94-0.89c0.369,0,0.677,0.118,0.896,0.364v-0.487c0-0.358-0.291-0.565-0.683-0.565
					c-0.325,0-0.588,0.111-0.829,0.375l-0.196-0.291c0.291-0.302,0.638-0.448,1.08-0.448c0.577,0,1.047,0.258,1.047,0.913v1.858
					H199.066z M199.066,445.535v-0.515c-0.162-0.218-0.448-0.33-0.739-0.33c-0.398,0-0.672,0.246-0.672,0.588
					c0,0.347,0.274,0.593,0.672,0.593C198.618,445.87,198.903,445.759,199.066,445.535z"/>
			</g>
			<g>
				<path fill="#929497" d="M200.417,445.54v-1.768h-0.448v-0.369h0.448v-0.739h0.425v0.739h0.549v0.369h-0.549v1.679
					c0,0.202,0.09,0.347,0.269,0.347c0.123,0,0.23-0.056,0.285-0.118l0.123,0.319c-0.106,0.1-0.258,0.174-0.498,0.174
					C200.618,446.173,200.417,445.943,200.417,445.54z"/>
			</g>
			<g>
				<path fill="#929497" d="M201.906,442.736c0-0.157,0.129-0.285,0.285-0.285c0.157,0,0.28,0.129,0.28,0.285
					c0,0.157-0.123,0.28-0.28,0.28C202.035,443.016,201.906,442.893,201.906,442.736z M201.979,446.105v-2.703h0.42v2.703H201.979z"
					/>
			</g>
			<g>
				<path fill="#929497" d="M203.082,444.751c0-0.783,0.515-1.416,1.337-1.416s1.338,0.633,1.338,1.416
					c0,0.783-0.515,1.422-1.338,1.422S203.082,445.535,203.082,444.751z M205.315,444.751c0-0.548-0.319-1.041-0.896-1.041
					c-0.576,0-0.896,0.493-0.896,1.041c0,0.554,0.319,1.047,0.896,1.047C204.996,445.798,205.315,445.305,205.315,444.751z"/>
			</g>
			<g>
				<path fill="#929497" d="M208.272,446.105v-1.768c0-0.481-0.246-0.627-0.61-0.627c-0.33,0-0.638,0.202-0.8,0.42v1.976h-0.42
					v-2.703h0.42v0.392c0.19-0.23,0.56-0.459,0.968-0.459c0.56,0,0.856,0.286,0.856,0.874v1.897H208.272z"/>
			</g>
		</g>
	</g>
	<rect x="109.353" y="419.467" fill="#2D2D2D" width="14.7" height="11.9"/>
	<path fill="#929497" d="M124.553,431.867h-15.7v-12.9h15.7V431.867z M109.853,430.867h13.7v-10.9h-13.7V430.867z"/>
	<rect x="105.992" y="416.901" fill="#2D2D2D" width="16.1" height="12.6"/>
	<path fill="#929497" d="M122.592,430.001h-17.1v-13.6h17.1V430.001z M106.492,429.001h15.1v-11.6h-15.1V429.001z"/>
	<rect x="103.892" y="414.801" fill="#2D2D2D" width="16.1" height="12.6"/>
	<path fill="#929497" d="M120.492,427.901h-17.1v-13.6h17.1V427.901z M104.392,426.901h15.1v-11.6h-15.1V426.901z"/>
	<g>
		<g>
			<path fill="#929497" d="M105.382,437.488c0-1.147,0.845-1.931,1.92-1.931c0.66,0,1.119,0.313,1.416,0.739l-0.386,0.218
				c-0.213-0.319-0.605-0.543-1.03-0.543c-0.817,0-1.439,0.621-1.439,1.517c0,0.885,0.621,1.517,1.439,1.517
				c0.425,0,0.817-0.23,1.03-0.543l0.392,0.213c-0.313,0.431-0.761,0.744-1.422,0.744
				C106.228,439.419,105.382,438.636,105.382,437.488z"/>
		</g>
		<g>
			<path fill="#929497" d="M109.146,437.997c0-0.783,0.515-1.416,1.337-1.416s1.338,0.633,1.338,1.416
				c0,0.784-0.515,1.422-1.338,1.422S109.146,438.781,109.146,437.997z M111.378,437.997c0-0.549-0.319-1.041-0.896-1.041
				c-0.576,0-0.896,0.492-0.896,1.041c0,0.554,0.319,1.047,0.896,1.047C111.06,439.044,111.378,438.552,111.378,437.997z"/>
		</g>
		<g>
			<path fill="#929497" d="M112.505,439.352v-2.704h0.42v0.431c0.218-0.28,0.532-0.493,0.901-0.493v0.431
				c-0.051-0.006-0.101-0.011-0.162-0.011c-0.263,0-0.616,0.213-0.739,0.431v1.914H112.505z"/>
		</g>
		<g>
			<path fill="#929497" d="M114.773,438.943v1.438h-0.42v-3.733h0.42v0.403c0.196-0.274,0.532-0.47,0.912-0.47
				c0.711,0,1.203,0.537,1.203,1.416c0,0.874-0.493,1.422-1.203,1.422C115.316,439.419,114.997,439.24,114.773,438.943z
				 M116.446,437.997c0-0.599-0.324-1.041-0.867-1.041c-0.33,0-0.66,0.196-0.806,0.431v1.221c0.146,0.235,0.476,0.436,0.806,0.436
				C116.122,439.044,116.446,438.596,116.446,437.997z"/>
		</g>
		<g>
			<path fill="#929497" d="M119.381,439.352v-0.381c-0.207,0.235-0.56,0.448-0.962,0.448c-0.565,0-0.862-0.28-0.862-0.862v-1.909
				h0.42v1.78c0,0.476,0.241,0.615,0.61,0.615c0.325,0,0.638-0.19,0.795-0.408v-1.987h0.42v2.704H119.381z"/>
		</g>
		<g>
			<path fill="#929497" d="M120.413,438.994l0.213-0.302c0.179,0.207,0.521,0.386,0.89,0.386c0.414,0,0.644-0.196,0.644-0.465
				c0-0.655-1.673-0.252-1.673-1.254c0-0.425,0.358-0.778,1.002-0.778c0.465,0,0.789,0.174,1.002,0.392l-0.196,0.291
				c-0.162-0.196-0.454-0.341-0.806-0.341c-0.369,0-0.599,0.185-0.599,0.426c0,0.588,1.673,0.201,1.673,1.254
				c0,0.453-0.364,0.817-1.058,0.817C121.056,439.419,120.687,439.279,120.413,438.994z"/>
		</g>
	</g>
	<g>
		<g>
			<g>
				<g>
					<g>
						<line fill="#929497" x1="81.299" y1="410.07" x2="81.299" y2="425.416"/>
					</g>
				</g>
				<g>
					<g>
						<g>
							<rect x="80.949" y="410.07" fill="#929497" width="0.7" height="14.587"/>
						</g>
					</g>
					<g>
						<g>
							<g>
								<polygon fill="#929497" points="78.436,422.337 78.949,421.86 81.298,424.388 83.648,421.86 84.161,422.337 81.298,425.416 
																	"/>
							</g>
						</g>
					</g>
				</g>
			</g>
			<g>
				<g>
					<path fill="#929497" d="M91.449,431.508h-20.3v-14h20.3V431.508z M71.849,430.808h18.9v-12.6h-18.9V430.808z"/>
				</g>
			</g>
		</g>
		<g>
			<g>
				<path fill="#929497" d="M69.245,439.431v-3.733h1.276c1.164,0,1.914,0.811,1.914,1.869c0,1.064-0.75,1.864-1.914,1.864H69.245z
					 M71.954,437.567c0-0.806-0.509-1.455-1.433-1.455H69.71v2.905h0.812C71.428,439.017,71.954,438.367,71.954,437.567z"/>
			</g>
			<g>
				<path fill="#929497" d="M72.992,438.076c0-0.783,0.515-1.416,1.337-1.416c0.823,0,1.338,0.633,1.338,1.416
					c0,0.784-0.515,1.422-1.338,1.422C73.507,439.498,72.992,438.86,72.992,438.076z M75.225,438.076
					c0-0.549-0.319-1.041-0.896-1.041c-0.576,0-0.896,0.492-0.896,1.041c0,0.554,0.319,1.047,0.896,1.047
					C74.906,439.123,75.225,438.63,75.225,438.076z"/>
			</g>
			<g>
				<path fill="#929497" d="M78.692,439.431l-0.705-2.172l-0.705,2.172h-0.42l-0.862-2.704h0.437l0.66,2.155l0.711-2.155h0.364
					l0.705,2.155l0.661-2.155h0.442l-0.862,2.704H78.692z"/>
			</g>
			<g>
				<path fill="#929497" d="M82.293,439.431v-1.769c0-0.482-0.246-0.627-0.61-0.627c-0.33,0-0.638,0.201-0.8,0.42v1.976h-0.42
					v-2.704h0.42v0.392c0.19-0.229,0.56-0.459,0.968-0.459c0.56,0,0.856,0.286,0.856,0.873v1.898H82.293z"/>
			</g>
			<g>
				<path fill="#929497" d="M83.554,439.431v-3.733h0.42v3.733H83.554z"/>
			</g>
			<g>
				<path fill="#929497" d="M84.657,438.076c0-0.783,0.515-1.416,1.337-1.416s1.338,0.633,1.338,1.416
					c0,0.784-0.515,1.422-1.338,1.422S84.657,438.86,84.657,438.076z M86.89,438.076c0-0.549-0.319-1.041-0.896-1.041
					c-0.576,0-0.896,0.492-0.896,1.041c0,0.554,0.319,1.047,0.896,1.047C86.571,439.123,86.89,438.63,86.89,438.076z"/>
			</g>
			<g>
				<path fill="#929497" d="M89.707,439.431v-0.308c-0.218,0.247-0.531,0.375-0.896,0.375c-0.453,0-0.94-0.308-0.94-0.896
					c0-0.61,0.482-0.89,0.94-0.89c0.369,0,0.677,0.118,0.896,0.364v-0.487c0-0.358-0.291-0.565-0.683-0.565
					c-0.325,0-0.588,0.112-0.829,0.375L88,437.108c0.291-0.302,0.638-0.448,1.08-0.448c0.577,0,1.047,0.258,1.047,0.913v1.858
					H89.707z M89.707,438.86v-0.515c-0.162-0.218-0.448-0.33-0.739-0.33c-0.398,0-0.672,0.246-0.672,0.588
					c0,0.347,0.274,0.593,0.672,0.593C89.259,439.196,89.545,439.084,89.707,438.86z"/>
			</g>
			<g>
				<path fill="#929497" d="M92.933,439.431v-0.403c-0.201,0.274-0.531,0.47-0.912,0.47c-0.705,0-1.203-0.537-1.203-1.416
					c0-0.867,0.498-1.422,1.203-1.422c0.364,0,0.694,0.179,0.912,0.476v-1.438h0.42v3.733H92.933z M92.933,438.692v-1.22
					c-0.145-0.235-0.476-0.436-0.806-0.436c-0.548,0-0.873,0.448-0.873,1.047c0,0.599,0.325,1.041,0.873,1.041
					C92.457,439.123,92.787,438.927,92.933,438.692z"/>
			</g>
		</g>
	</g>
	<g>
		<g>
			<g>
				<rect x="49.28" y="423.276" fill="#929497" width="6.3" height="0.7"/>
			</g>
			<g>
				<rect x="49.28" y="425.376" fill="#929497" width="6.3" height="0.7"/>
			</g>
			<g>
				<rect x="49.28" y="427.476" fill="#929497" width="6.3" height="0.7"/>
			</g>
			<g>
				<path fill="#929497" d="M55.016,416.976h-0.395H46.48v14.7h11.9v-11.593v-0.137L55.016,416.976z M55.151,417.881l2.214,1.928
					l-2.349,0.352L55.151,417.881z M57.68,430.976h-10.5v-13.3h7.59l-0.29,3.085l3.199-0.617V430.976z"/>
			</g>
		</g>
		<g>
			<g>
				<path fill="#929497" d="M42.941,439.599v-3.733h1.276c1.164,0,1.914,0.811,1.914,1.869c0,1.064-0.75,1.864-1.914,1.864H42.941z
					 M45.65,437.735c0-0.806-0.509-1.455-1.433-1.455h-0.812v2.905h0.812C45.124,439.185,45.65,438.535,45.65,437.735z"/>
			</g>
			<g>
				<path fill="#929497" d="M48.535,439.599v-0.308c-0.218,0.247-0.531,0.375-0.896,0.375c-0.453,0-0.94-0.308-0.94-0.896
					c0-0.61,0.482-0.89,0.94-0.89c0.369,0,0.677,0.118,0.896,0.364v-0.487c0-0.358-0.291-0.565-0.683-0.565
					c-0.325,0-0.588,0.112-0.829,0.375l-0.196-0.291c0.291-0.302,0.638-0.448,1.08-0.448c0.577,0,1.047,0.258,1.047,0.913v1.858
					H48.535z M48.535,439.028v-0.515c-0.162-0.218-0.448-0.33-0.739-0.33c-0.398,0-0.672,0.246-0.672,0.588
					c0,0.347,0.274,0.593,0.672,0.593C48.087,439.364,48.373,439.252,48.535,439.028z"/>
			</g>
			<g>
				<path fill="#929497" d="M49.886,439.034v-1.769h-0.448v-0.37h0.448v-0.739h0.425v0.739h0.549v0.37h-0.549v1.679
					c0,0.202,0.09,0.347,0.269,0.347c0.123,0,0.23-0.055,0.285-0.117l0.123,0.319c-0.106,0.101-0.258,0.174-0.498,0.174
					C50.087,439.666,49.886,439.436,49.886,439.034z"/>
			</g>
			<g>
				<path fill="#929497" d="M53.138,439.599v-0.308c-0.218,0.247-0.531,0.375-0.896,0.375c-0.453,0-0.94-0.308-0.94-0.896
					c0-0.61,0.482-0.89,0.94-0.89c0.369,0,0.677,0.118,0.896,0.364v-0.487c0-0.358-0.291-0.565-0.683-0.565
					c-0.325,0-0.588,0.112-0.829,0.375l-0.196-0.291c0.291-0.302,0.638-0.448,1.08-0.448c0.577,0,1.047,0.258,1.047,0.913v1.858
					H53.138z M53.138,439.028v-0.515c-0.162-0.218-0.448-0.33-0.739-0.33c-0.398,0-0.672,0.246-0.672,0.588
					c0,0.347,0.274,0.593,0.672,0.593C52.69,439.364,52.976,439.252,53.138,439.028z"/>
			</g>
			<g>
				<path fill="#929497" d="M54.176,439.241l0.213-0.302c0.179,0.207,0.521,0.386,0.89,0.386c0.414,0,0.644-0.196,0.644-0.465
					c0-0.655-1.673-0.252-1.673-1.254c0-0.425,0.358-0.778,1.002-0.778c0.465,0,0.789,0.174,1.002,0.392l-0.196,0.291
					c-0.162-0.196-0.454-0.341-0.806-0.341c-0.369,0-0.599,0.185-0.599,0.426c0,0.588,1.673,0.201,1.673,1.254
					c0,0.453-0.364,0.817-1.058,0.817C54.819,439.666,54.45,439.526,54.176,439.241z"/>
			</g>
			<g>
				<path fill="#929497" d="M56.853,438.244c0-0.783,0.56-1.416,1.332-1.416c0.817,0,1.298,0.638,1.298,1.45v0.106H57.3
					c0.033,0.509,0.386,0.934,0.968,0.934c0.314,0,0.621-0.123,0.84-0.347l0.201,0.274c-0.274,0.269-0.638,0.42-1.075,0.42
					C57.429,439.666,56.853,439.09,56.853,438.244z M58.179,437.175c-0.576,0-0.862,0.487-0.884,0.896h1.774
					C59.063,437.673,58.795,437.175,58.179,437.175z"/>
			</g>
			<g>
				<path fill="#929497" d="M60.246,439.034v-1.769h-0.448v-0.37h0.448v-0.739h0.425v0.739h0.549v0.37h-0.549v1.679
					c0,0.202,0.09,0.347,0.269,0.347c0.123,0,0.23-0.055,0.285-0.117l0.123,0.319c-0.107,0.101-0.258,0.174-0.498,0.174
					C60.447,439.666,60.246,439.436,60.246,439.034z"/>
			</g>
		</g>
	</g>
	<g>
		<g>
			<g>
				<g>
					<path fill="#929497" d="M29.21,432.414h-8.649l-4.331-7.5l4.331-7.5h8.649l4.331,7.5L29.21,432.414z M20.961,431.414h7.849
						l3.918-6.5l-3.918-6.5h-7.849l-3.918,6.5L20.961,431.414z"/>
				</g>
			</g>
			<g>
				<g>
					<path fill="#929497" d="M27.698,429.414h-5.626l-2.837-4.5l2.837-4.5h5.626l2.837,4.5L27.698,429.414z M22.46,428.414h4.849
						l2.4-3.5l-2.4-3.5H22.46l-2.4,3.5L22.46,428.414z"/>
				</g>
			</g>
		</g>
		<g>
			<g>
				<path fill="#929497" d="M20.072,439.369v-3.319h-1.181v-0.414h2.832v0.414h-1.187v3.319H20.072z"/>
			</g>
			<g>
				<path fill="#929497" d="M21.524,438.014c0-0.783,0.515-1.416,1.337-1.416s1.338,0.633,1.338,1.416
					c0,0.784-0.515,1.422-1.338,1.422S21.524,438.798,21.524,438.014z M23.757,438.014c0-0.549-0.319-1.041-0.896-1.041
					c-0.576,0-0.896,0.492-0.896,1.041c0,0.554,0.319,1.047,0.896,1.047C23.438,439.061,23.757,438.569,23.757,438.014z"/>
			</g>
			<g>
				<path fill="#929497" d="M24.727,438.014c0-0.783,0.515-1.416,1.337-1.416c0.823,0,1.338,0.633,1.338,1.416
					c0,0.784-0.515,1.422-1.338,1.422C25.242,439.436,24.727,438.798,24.727,438.014z M26.96,438.014
					c0-0.549-0.319-1.041-0.896-1.041c-0.576,0-0.896,0.492-0.896,1.041c0,0.554,0.319,1.047,0.896,1.047
					C26.641,439.061,26.96,438.569,26.96,438.014z"/>
			</g>
			<g>
				<path fill="#929497" d="M28.087,439.369v-3.733h0.42v3.733H28.087z"/>
			</g>
		</g>
	</g>
	<g>
		<rect x="15.5" y="405.914" fill="#F2F2F2" stroke="#929497" stroke-miterlimit="10" width="194" height="1"/>
	</g>
</g>
<g id="guide" display="none">
</g>
</svg>
