<?xml version="1.0" encoding="utf-8"?>
<!-- Generator: Adobe Illustrator 17.0.0, SVG Export Plug-In . SVG Version: 6.00 Build 0)  -->
<!DOCTYPE svg PUBLIC "-//W3C//DTD SVG 1.1//EN" "http://www.w3.org/Graphics/SVG/1.1/DTD/svg11.dtd">
<svg version="1.1" xmlns="http://www.w3.org/2000/svg" xmlns:xlink="http://www.w3.org/1999/xlink" x="0px" y="0px" width="850px"
	 height="450.039px" viewBox="0 0 850 450.039" enable-background="new 0 0 850 450.039" xml:space="preserve">
<g id="sfondo">
	<rect x="-1" y="-1" fill="#2D2D2D" width="851" height="451"/>
</g>
<g id="Livello_1">
	<rect x="70.329" y="67.667" fill="none" width="83.162" height="12"/>
	<text transform="matrix(1 0 0 1 70.3291 74.3364)" fill="#F2F2F2" font-family="'ProximaNova-Regular'" font-size="10">sharing economy</text>
	<rect x="70.329" y="86.667" fill="none" width="104.829" height="12"/>
	<text transform="matrix(1 0 0 1 70.3291 93.3364)" fill="#F2F2F2" font-family="'ProximaNova-Regular'" font-size="10">collaborative economy</text>
	<rect x="70.329" y="106.667" fill="none" width="118.162" height="12"/>
	<text transform="matrix(1 0 0 1 70.3291 113.3364)" fill="#F2F2F2" font-family="'ProximaNova-Regular'" font-size="10">collaborative consumption </text>
	<rect x="70.329" y="125.333" fill="none" width="98.829" height="12"/>
	<text transform="matrix(1 0 0 1 70.3291 132.0036)" fill="#F2F2F2" font-family="'ProximaNova-Regular'" font-size="10">on demand economy </text>
	<rect x="26.344" y="96.5" fill="none" width="36.156" height="10"/>
	<text transform="matrix(1 0 0 1 26.344 103.1697)" fill="#F2F2F2" font-family="'ProximaNova-Regular'" font-size="10">QUERY</text>
	<rect x="234" y="91.75" fill="none" width="81.831" height="27.5"/>
	<text transform="matrix(1 0 0 1 247.0106 98.4197)"><tspan x="0" y="0" fill="#F2F2F2" font-family="'ProximaNova-Regular'" font-size="10">X 15 ONLINE</tspan><tspan x="-3.805" y="12" fill="#F2F2F2" font-family="'ProximaNova-Regular'" font-size="10">NEWSPAPERS</tspan></text>
	<line fill="none" stroke="#F2F2F2" stroke-miterlimit="10" x1="62.5" y1="70" x2="62.5" y2="132"/>
	<line fill="none" stroke="#F2F2F2" stroke-miterlimit="10" x1="22.5" y1="36" x2="22.5" y2="104"/>
	<rect x="449.664" y="137.884" fill="none" width="51" height="19.92"/>
	<text transform="matrix(1 0 0 1 457.4892 144.5544)"><tspan x="0" y="0" fill="#F2F2F2" font-family="'ProximaNova-RegularIt'" font-size="10">exctract </tspan><tspan x="7.77" y="12" fill="#F2F2F2" font-family="'ProximaNova-RegularIt'" font-size="10">links</tspan></text>
	<rect x="721.703" y="245.34" fill="none" width="73.417" height="43.333"/>
	<text transform="matrix(1 0 0 1 736.8718 252.0098)"><tspan x="0" y="0" fill="#F2F2F2" font-family="'ProximaNova-RegularIt'" font-size="10">clean text</tspan><tspan x="-10.205" y="12" fill="#F2F2F2" font-family="'ProximaNova-RegularIt'" font-size="10">and extraction </tspan><tspan x="-6.795" y="24" fill="#F2F2F2" font-family="'ProximaNova-RegularIt'" font-size="10">of most used </tspan><tspan x="8.16" y="36" fill="#F2F2F2" font-family="'ProximaNova-RegularIt'" font-size="10">words</tspan></text>
	<rect x="636" y="137.702" fill="none" width="51" height="20.102"/>
	<text transform="matrix(1 0 0 1 639.5604 144.3721)"><tspan x="0" y="0" fill="#F2F2F2" font-family="'ProximaNova-RegularIt'" font-size="10">extraction </tspan><tspan x="8.175" y="12" fill="#F2F2F2" font-family="'ProximaNova-RegularIt'" font-size="10">of text</tspan></text>
	<rect x="463.38" y="126" fill="none" width="26.193" height="8"/>
	<text transform="matrix(1 0 0 1 463.38 132.6702)" fill="#F2F2F2" font-family="'ProximaNova-Regular'" font-size="10">MOZ</text>
	<rect x="540.75" y="126" fill="none" width="55" height="8"/>
	<text transform="matrix(1 0 0 1 547.9752 132.6697)" fill="#F2F2F2" font-family="'ProximaNova-Regular'" font-size="10">600 links</text>
	<rect x="353.851" y="126" fill="none" width="56.149" height="48.574"/>
	<text transform="matrix(1 0 0 1 361.4111 132.6699)"><tspan x="0" y="0" fill="#F2F2F2" font-family="'ProximaNova-Regular'" font-size="10">10 results </tspan><tspan x="-6.91" y="12" fill="#F2F2F2" font-family="'ProximaNova-Regular'" font-size="10">x4 query x15 </tspan><tspan x="-6.205" y="24" fill="#F2F2F2" font-family="'ProximaNova-Regular'" font-size="10">newspapers </tspan></text>
	<rect x="728.362" y="126" fill="none" width="52.943" height="8"/>
	<text transform="matrix(1 0 0 1 728.362 132.6697)" fill="#F2F2F2" font-family="'ProximaNova-Regular'" font-size="10">600 articles</text>
	<rect x="746.608" y="233.34" fill="none" width="23.825" height="7.435"/>
	<text transform="matrix(1 0 0 1 755.4751 240.0109)" fill="#F2F2F2" font-family="'ProximaNova-Regular'" font-size="10">R</text>
	<rect x="631.972" y="126" fill="none" width="58.385" height="8"/>
	<text transform="matrix(1 0 0 1 631.9719 132.6699)" fill="#F2F2F2" font-family="'ProximaNova-Regular'" font-size="10">TEXT RIPPER</text>
	<rect x="27.5" y="23.411" fill="none" width="39.829" height="8.5"/>
	<text transform="matrix(1 0 0 1 27.5002 30.0803)" fill="#F2F2F2" font-family="'ProximaNova-Regular'" font-size="10">SOURCE</text>
	<rect x="78.086" y="21.494" fill="none" width="254.081" height="10.333"/>
	<text transform="matrix(1 0 0 1 78.0857 29.4978)" fill="#F2F2F2" font-family="'ProximaNova-Regular'" font-size="12">Google advanced search</text>
	<rect x="22.5" y="16.5" fill="none" stroke="#F2F2F2" stroke-miterlimit="10" width="49" height="19"/>
	<polyline fill="none" stroke="#F2F2F2" stroke-miterlimit="10" points="184,72.5 194.5,72.5 194.5,134.5 183,134.5 	"/>
	<g>
		<rect x="375.75" y="99.333" fill="#2D2D2D" stroke="#F2F2F2" stroke-miterlimit="10" width="21" height="17"/>
		<rect x="370.949" y="95.667" fill="#2D2D2D" stroke="#F2F2F2" stroke-miterlimit="10" width="23" height="18"/>
		<rect x="367.949" y="92.667" fill="#2D2D2D" stroke="#F2F2F2" stroke-miterlimit="10" width="23" height="18"/>
	</g>
	<g>
		<rect x="561.801" y="100.5" fill="#2D2D2D" stroke="#F2F2F2" stroke-miterlimit="10" width="21" height="17"/>
		<rect x="557" y="96.833" fill="#2D2D2D" stroke="#F2F2F2" stroke-miterlimit="10" width="23" height="18"/>
		<rect x="554" y="93.833" fill="#2D2D2D" stroke="#F2F2F2" stroke-miterlimit="10" width="23" height="18"/>
	</g>
	<g>
		<rect x="748.135" y="100.5" fill="#2D2D2D" stroke="#F2F2F2" stroke-miterlimit="10" width="21" height="17"/>
		<rect x="743.333" y="96.833" fill="#2D2D2D" stroke="#F2F2F2" stroke-miterlimit="10" width="23" height="18"/>
		<rect x="740.333" y="93.833" fill="#2D2D2D" stroke="#F2F2F2" stroke-miterlimit="10" width="23" height="18"/>
	</g>
	<g>
		<polygon fill="none" stroke="#F2F2F2" stroke-miterlimit="10" points="469.272,114.5 463.38,104.5 469.272,94.5 481.057,94.5 
			486.949,104.5 481.057,114.5 		"/>
		<polygon fill="none" stroke="#F2F2F2" stroke-miterlimit="10" points="471.424,110.5 467.683,104.5 471.424,98.5 478.905,98.5 
			482.646,104.5 478.905,110.5 		"/>
	</g>
	<g>
		<polygon fill="none" stroke="#F2F2F2" stroke-miterlimit="10" points="655.272,115.5 649.38,105.5 655.272,95.5 667.057,95.5 
			672.949,105.5 667.057,115.5 		"/>
		<polygon fill="none" stroke="#F2F2F2" stroke-miterlimit="10" points="657.424,111.5 653.683,105.5 657.424,99.5 664.905,99.5 
			668.646,105.5 664.905,111.5 		"/>
	</g>
	<path fill="#F2F2F2" d="M750.464,210.265v-0.631l3.775-1.812l-3.775-1.832v-0.631l4.416,2.193v0.531L750.464,210.265z"/>
	<path fill="#F2F2F2" d="M755.143,212.118v-0.551h5.708v0.551H755.143z"/>
	<rect x="747.052" y="202.051" fill="none" stroke="#F2F2F2" stroke-miterlimit="10" width="23.198" height="23.198"/>
	<g>
		<g>
			<line fill="none" stroke="#F2F2F2" stroke-miterlimit="10" x1="411" y1="104.5" x2="450" y2="104.5"/>
			<g>
				<polygon fill="#F2F2F2" points="446.602,108.25 445.92,107.518 449.532,104.161 445.92,100.804 446.602,100.072 451,104.161 
									"/>
			</g>
		</g>
	</g>
	<g>
		<g>
			<line fill="none" stroke="#F2F2F2" stroke-miterlimit="10" x1="502" y1="104.5" x2="541" y2="104.5"/>
			<g>
				<polygon fill="#F2F2F2" points="537.602,108.25 536.92,107.518 540.532,104.161 536.92,100.804 537.602,100.072 542,104.161 
									"/>
			</g>
		</g>
	</g>
	<g>
		<g>
			<line fill="none" stroke="#F2F2F2" stroke-miterlimit="10" x1="597" y1="104.5" x2="636" y2="104.5"/>
			<g>
				<polygon fill="#F2F2F2" points="632.602,108.25 631.92,107.518 635.532,104.161 631.92,100.804 632.602,100.072 637,104.161 
									"/>
			</g>
		</g>
	</g>
	<g>
		<g>
			<line fill="none" stroke="#F2F2F2" stroke-miterlimit="10" x1="688" y1="104.5" x2="727" y2="104.5"/>
			<g>
				<polygon fill="#F2F2F2" points="723.602,108.25 722.92,107.518 726.532,104.161 722.92,100.804 723.602,100.072 728,104.161 
									"/>
			</g>
		</g>
	</g>
	<polyline fill="none" stroke="#F2F2F2" stroke-miterlimit="10" points="749.428,360.601 770.401,371.404 748.182,378.275 
		762.859,359.658 766.63,386.287 757.163,384.166 	"/>
	<circle fill="#2D2D2D" stroke="#F2F2F2" stroke-miterlimit="10" cx="763.94" cy="358.368" r="2.059"/>
	<circle fill="#2D2D2D" stroke="#F2F2F2" stroke-miterlimit="10" cx="770.638" cy="371.205" r="2.059"/>
	<polyline fill="none" stroke="#F2F2F2" stroke-miterlimit="10" points="747.196,377.903 749.428,360.601 757.242,384.043 	"/>
	<circle fill="#2D2D2D" stroke="#F2F2F2" stroke-miterlimit="10" cx="749.428" cy="360.6" r="2.059"/>
	<circle fill="#2D2D2D" stroke="#F2F2F2" stroke-miterlimit="10" cx="747.196" cy="377.903" r="2.059"/>
	<circle fill="#2D2D2D" stroke="#F2F2F2" stroke-miterlimit="10" cx="757.242" cy="384.042" r="2.059"/>
	<circle fill="#2D2D2D" stroke="#F2F2F2" stroke-miterlimit="10" cx="767.289" cy="386.275" r="2.059"/>
	<g>
		<g>
			<line fill="none" stroke="#F2F2F2" stroke-miterlimit="10" x1="759.5" y1="301" x2="759.5" y2="340"/>
			<g>
				<polygon fill="#F2F2F2" points="755.91,336.763 756.643,336.08 759.999,339.692 763.356,336.08 764.089,336.763 
					759.999,341.161 				"/>
			</g>
		</g>
	</g>
	<g>
		<g>
			<line fill="none" stroke="#F2F2F2" stroke-miterlimit="10" x1="757.5" y1="148" x2="757.5" y2="187"/>
			<g>
				<polygon fill="#F2F2F2" points="753.91,183.763 754.643,183.08 757.999,186.692 761.356,183.08 762.089,183.763 
					757.999,188.161 				"/>
			</g>
		</g>
	</g>
	<rect x="733.25" y="397" fill="none" width="51.501" height="31.635"/>
	<text transform="matrix(1 0 0 1 744.9 403.6698)"><tspan x="0" y="0" fill="#F2F2F2" font-family="'ProximaNova-Regular'" font-size="10">GEPHI </tspan><tspan x="11.604" y="9" fill="#F2F2F2" font-family="'ProximaNova-Regular'" font-size="10">+ </tspan><tspan x="-7.385" y="18" fill="#F2F2F2" font-family="'ProximaNova-Regular'" font-size="10">SIGMA.JS</tspan></text>
	<g>
		<g>
			<line fill="none" stroke="#F2F2F2" stroke-miterlimit="10" x1="316" y1="103.5" x2="355" y2="103.5"/>
			<g>
				<polygon fill="#F2F2F2" points="351.602,107.837 350.92,107.104 354.532,103.748 350.92,100.39 351.602,99.658 356,103.748 				
					"/>
			</g>
		</g>
	</g>
	<g>
		<g>
			<line fill="none" stroke="#F2F2F2" stroke-miterlimit="10" x1="194" y1="103.5" x2="233" y2="103.5"/>
			<g>
				<polygon fill="#F2F2F2" points="229.602,107.837 228.92,107.104 232.532,103.748 228.92,100.39 229.602,99.658 234,103.748 				
					"/>
			</g>
		</g>
	</g>
	<g>
		<g>
			<g>
				<path fill="#929497" d="M138.228,411.242v-0.441l2.642-1.269l-2.642-1.283v-0.441l3.091,1.535v0.372L138.228,411.242z"/>
			</g>
			<g>
				<path fill="#929497" d="M141.503,412.539v-0.386h3.995v0.386H141.503z"/>
			</g>
			<g>
				<g>
					<path fill="#929497" d="M152.428,422.081h-16.939v-16.939h16.939V422.081z M136.189,421.381h15.539v-15.539h-15.539V421.381z"
						/>
				</g>
			</g>
		</g>
		<g>
			<g>
				<path fill="#929497" d="M137.077,429.539l0.28-0.358c0.241,0.28,0.644,0.537,1.17,0.537c0.666,0,0.879-0.358,0.879-0.649
					c0-0.962-2.211-0.425-2.211-1.757c0-0.616,0.549-1.041,1.287-1.041c0.565,0,1.008,0.196,1.321,0.526l-0.28,0.341
					c-0.28-0.313-0.672-0.448-1.08-0.448c-0.442,0-0.767,0.241-0.767,0.593c0,0.839,2.211,0.358,2.211,1.752
					c0,0.537-0.369,1.097-1.377,1.097C137.866,430.133,137.385,429.887,137.077,429.539z"/>
			</g>
			<g>
				<path fill="#929497" d="M140.409,428.711c0-0.8,0.543-1.416,1.349-1.416c0.493,0,0.783,0.202,0.991,0.47l-0.28,0.252
					c-0.179-0.246-0.409-0.347-0.688-0.347c-0.571,0-0.935,0.442-0.935,1.041c0,0.599,0.364,1.047,0.935,1.047
					c0.28,0,0.509-0.111,0.688-0.352l0.28,0.257c-0.207,0.269-0.498,0.47-0.991,0.47
					C140.952,430.133,140.409,429.511,140.409,428.711z"/>
			</g>
			<g>
				<path fill="#929497" d="M143.343,430.066v-2.704h0.42v0.431c0.218-0.28,0.532-0.493,0.901-0.493v0.431
					c-0.051-0.006-0.101-0.011-0.162-0.011c-0.263,0-0.616,0.213-0.739,0.431v1.914H143.343z"/>
			</g>
			<g>
				<path fill="#929497" d="M145.118,426.696c0-0.157,0.129-0.285,0.285-0.285c0.157,0,0.28,0.129,0.28,0.285
					c0,0.157-0.123,0.28-0.28,0.28C145.247,426.976,145.118,426.853,145.118,426.696z M145.191,430.066v-2.704h0.42v2.704H145.191z"
					/>
			</g>
			<g>
				<path fill="#929497" d="M146.87,429.657v1.438h-0.42v-3.733h0.42v0.403c0.196-0.274,0.532-0.47,0.912-0.47
					c0.711,0,1.203,0.537,1.203,1.416c0,0.874-0.493,1.422-1.203,1.422C147.413,430.133,147.094,429.954,146.87,429.657z
					 M148.544,428.711c0-0.599-0.324-1.041-0.867-1.041c-0.33,0-0.66,0.196-0.806,0.431v1.221c0.146,0.235,0.476,0.436,0.806,0.436
					C148.219,429.757,148.544,429.31,148.544,428.711z"/>
			</g>
			<g>
				<path fill="#929497" d="M149.738,429.5v-1.769h-0.448v-0.37h0.448v-0.739h0.425v0.739h0.549v0.37h-0.549v1.679
					c0,0.202,0.09,0.347,0.269,0.347c0.123,0,0.23-0.055,0.285-0.117l0.123,0.319c-0.107,0.101-0.258,0.174-0.498,0.174
					C149.939,430.133,149.738,429.903,149.738,429.5z"/>
			</g>
		</g>
	</g>
	<g>
		<g>
			<polygon fill="#929497" points="176,421 165,421 165,406 166,406 166,420 175,420 175,406 176,406 			"/>
		</g>
	</g>
	<g>
		<g>
			<path fill="#929497" d="M170.341,410.181c-1.222,0-2.217-0.995-2.217-2.217s0.995-2.217,2.217-2.217
				c1.222,0,2.217,0.995,2.217,2.217S171.563,410.181,170.341,410.181z M170.341,406.447c-0.837,0-1.517,0.68-1.517,1.517
				s0.68,1.517,1.517,1.517s1.517-0.68,1.517-1.517S171.178,406.447,170.341,406.447z"/>
		</g>
	</g>
	<g>
		<g>
			<polygon fill="#929497" points="165.52,406.879 165.091,406.326 170.32,402.264 175.494,406.327 175.062,406.878 
				170.317,403.153 			"/>
		</g>
	</g>
	<g>
		<g>
			<path fill="#929497" d="M167.462,428.842v-3.319h-1.181v-0.414h2.832v0.414h-1.187v3.319H167.462z"/>
		</g>
		<g>
			<path fill="#929497" d="M170.872,428.842v-0.308c-0.218,0.247-0.531,0.375-0.896,0.375c-0.453,0-0.94-0.308-0.94-0.896
				c0-0.61,0.482-0.89,0.94-0.89c0.369,0,0.677,0.118,0.896,0.364V427c0-0.358-0.291-0.565-0.683-0.565
				c-0.325,0-0.588,0.112-0.829,0.375l-0.196-0.291c0.291-0.302,0.638-0.448,1.08-0.448c0.577,0,1.047,0.258,1.047,0.913v1.858
				H170.872z M170.872,428.271v-0.515c-0.162-0.218-0.448-0.33-0.739-0.33c-0.398,0-0.672,0.246-0.672,0.588
				c0,0.347,0.274,0.593,0.672,0.593C170.424,428.607,170.709,428.495,170.872,428.271z"/>
		</g>
		<g>
			<path fill="#929497" d="M172.133,429.53l0.213-0.302c0.224,0.263,0.493,0.364,0.879,0.364c0.448,0,0.873-0.218,0.873-0.79v-0.408
				c-0.201,0.274-0.531,0.481-0.912,0.481c-0.705,0-1.203-0.526-1.203-1.4c0-0.867,0.493-1.405,1.203-1.405
				c0.364,0,0.694,0.179,0.912,0.476v-0.408h0.42v2.664c0,0.857-0.632,1.137-1.293,1.137
				C172.771,429.939,172.457,429.85,172.133,429.53z M174.097,428.064v-1.187c-0.151-0.229-0.476-0.431-0.806-0.431
				c-0.548,0-0.873,0.431-0.873,1.029c0,0.594,0.325,1.024,0.873,1.024C173.622,428.5,173.946,428.299,174.097,428.064z"/>
		</g>
	</g>
	<g>
		<g>
			<g>
				<g>
					<path fill="#929497" d="M204.646,421.574h-16.8v-16.8h16.8V421.574z M188.546,420.874h15.4v-15.4h-15.4V420.874z"/>
				</g>
			</g>
			<g>
				<g>
					<polygon fill="#929497" points="198.559,413.31 194.297,408.604 194.815,408.133 198.383,412.071 203.175,402.201 
						203.805,402.507 					"/>
				</g>
			</g>
		</g>
		<g>
			<g>
				<path fill="#929497" d="M184.117,427.694c0-1.147,0.845-1.931,1.92-1.931c0.66,0,1.119,0.313,1.416,0.739l-0.386,0.218
					c-0.213-0.319-0.605-0.543-1.03-0.543c-0.817,0-1.439,0.621-1.439,1.517c0,0.885,0.621,1.517,1.439,1.517
					c0.425,0,0.817-0.23,1.03-0.543l0.392,0.213c-0.313,0.431-0.761,0.744-1.422,0.744
					C184.963,429.625,184.117,428.842,184.117,427.694z"/>
			</g>
			<g>
				<path fill="#929497" d="M188.037,429.558v-3.733h0.42v3.733H188.037z"/>
			</g>
			<g>
				<path fill="#929497" d="M189.14,428.203c0-0.783,0.56-1.416,1.332-1.416c0.817,0,1.298,0.638,1.298,1.45v0.106h-2.183
					c0.033,0.509,0.386,0.934,0.968,0.934c0.314,0,0.621-0.123,0.84-0.347l0.201,0.274c-0.274,0.269-0.638,0.42-1.075,0.42
					C189.717,429.625,189.14,429.049,189.14,428.203z M190.467,427.135c-0.576,0-0.862,0.487-0.884,0.896h1.774
					C191.351,427.633,191.083,427.135,190.467,427.135z"/>
			</g>
			<g>
				<path fill="#929497" d="M194.14,429.558v-0.308c-0.218,0.247-0.531,0.375-0.896,0.375c-0.453,0-0.94-0.308-0.94-0.896
					c0-0.61,0.482-0.89,0.94-0.89c0.369,0,0.677,0.118,0.896,0.364v-0.487c0-0.358-0.291-0.565-0.683-0.565
					c-0.325,0-0.588,0.112-0.829,0.375l-0.196-0.291c0.291-0.302,0.638-0.448,1.08-0.448c0.577,0,1.047,0.258,1.047,0.913v1.858
					H194.14z M194.14,428.987v-0.515c-0.162-0.218-0.448-0.33-0.739-0.33c-0.398,0-0.672,0.246-0.672,0.588
					c0,0.347,0.274,0.593,0.672,0.593C193.692,429.323,193.978,429.211,194.14,428.987z"/>
			</g>
			<g>
				<path fill="#929497" d="M197.237,429.558v-1.769c0-0.482-0.246-0.627-0.61-0.627c-0.33,0-0.638,0.201-0.8,0.42v1.976h-0.42
					v-2.704h0.42v0.392c0.19-0.229,0.56-0.459,0.968-0.459c0.56,0,0.857,0.286,0.857,0.873v1.898H197.237z"/>
			</g>
			<g>
				<path fill="#929497" d="M201.638,429.558v-0.308c-0.218,0.247-0.531,0.375-0.896,0.375c-0.453,0-0.94-0.308-0.94-0.896
					c0-0.61,0.482-0.89,0.94-0.89c0.369,0,0.677,0.118,0.896,0.364v-0.487c0-0.358-0.291-0.565-0.683-0.565
					c-0.325,0-0.588,0.112-0.829,0.375l-0.196-0.291c0.291-0.302,0.638-0.448,1.08-0.448c0.577,0,1.047,0.258,1.047,0.913v1.858
					H201.638z M201.638,428.987v-0.515c-0.162-0.218-0.448-0.33-0.739-0.33c-0.398,0-0.672,0.246-0.672,0.588
					c0,0.347,0.274,0.593,0.672,0.593C201.19,429.323,201.476,429.211,201.638,428.987z"/>
			</g>
			<g>
				<path fill="#929497" d="M204.735,429.558v-1.769c0-0.482-0.246-0.627-0.61-0.627c-0.33,0-0.638,0.201-0.8,0.42v1.976h-0.42
					v-2.704h0.42v0.392c0.19-0.229,0.56-0.459,0.968-0.459c0.56,0,0.857,0.286,0.857,0.873v1.898H204.735z"/>
			</g>
			<g>
				<path fill="#929497" d="M207.955,429.558v-0.403c-0.201,0.274-0.531,0.47-0.912,0.47c-0.705,0-1.203-0.537-1.203-1.416
					c0-0.867,0.498-1.422,1.203-1.422c0.364,0,0.694,0.179,0.912,0.476v-1.438h0.42v3.733H207.955z M207.955,428.819v-1.22
					c-0.145-0.235-0.476-0.436-0.806-0.436c-0.548,0-0.873,0.448-0.873,1.047c0,0.599,0.325,1.041,0.873,1.041
					C207.479,429.25,207.81,429.054,207.955,428.819z"/>
			</g>
			<g>
				<path fill="#929497" d="M185.657,436.278l-1.125-2.703h0.459l0.896,2.216l0.901-2.216h0.454l-1.125,2.703H185.657z"/>
			</g>
			<g>
				<path fill="#929497" d="M189.369,436.278v-0.308c-0.218,0.246-0.531,0.375-0.896,0.375c-0.453,0-0.94-0.308-0.94-0.896
					c0-0.61,0.482-0.89,0.94-0.89c0.369,0,0.677,0.118,0.896,0.364v-0.487c0-0.358-0.291-0.565-0.683-0.565
					c-0.325,0-0.588,0.111-0.829,0.375l-0.196-0.291c0.291-0.302,0.638-0.448,1.08-0.448c0.577,0,1.047,0.258,1.047,0.913v1.858
					H189.369z M189.369,435.707v-0.515c-0.162-0.218-0.448-0.33-0.739-0.33c-0.398,0-0.672,0.246-0.672,0.588
					c0,0.347,0.274,0.593,0.672,0.593C188.921,436.043,189.207,435.931,189.369,435.707z"/>
			</g>
			<g>
				<path fill="#929497" d="M190.636,436.278v-3.733h0.42v3.733H190.636z"/>
			</g>
			<g>
				<path fill="#929497" d="M191.823,432.909c0-0.157,0.129-0.285,0.285-0.285c0.157,0,0.28,0.129,0.28,0.285
					c0,0.157-0.123,0.28-0.28,0.28C191.952,433.189,191.823,433.066,191.823,432.909z M191.896,436.278v-2.703h0.42v2.703H191.896z"
					/>
			</g>
			<g>
				<path fill="#929497" d="M195.114,436.278v-0.403c-0.201,0.274-0.531,0.47-0.912,0.47c-0.705,0-1.203-0.537-1.203-1.416
					c0-0.867,0.498-1.422,1.203-1.422c0.364,0,0.694,0.179,0.912,0.476v-1.438h0.42v3.733H195.114z M195.114,435.54v-1.22
					c-0.145-0.235-0.476-0.437-0.806-0.437c-0.548,0-0.873,0.448-0.873,1.047c0,0.599,0.325,1.041,0.873,1.041
					C194.639,435.97,194.969,435.774,195.114,435.54z"/>
			</g>
			<g>
				<path fill="#929497" d="M198.066,436.278v-0.308c-0.218,0.246-0.531,0.375-0.896,0.375c-0.453,0-0.94-0.308-0.94-0.896
					c0-0.61,0.482-0.89,0.94-0.89c0.369,0,0.677,0.118,0.896,0.364v-0.487c0-0.358-0.291-0.565-0.683-0.565
					c-0.325,0-0.588,0.111-0.829,0.375l-0.196-0.291c0.291-0.302,0.638-0.448,1.08-0.448c0.577,0,1.047,0.258,1.047,0.913v1.858
					H198.066z M198.066,435.707v-0.515c-0.162-0.218-0.448-0.33-0.739-0.33c-0.398,0-0.672,0.246-0.672,0.588
					c0,0.347,0.274,0.593,0.672,0.593C197.618,436.043,197.903,435.931,198.066,435.707z"/>
			</g>
			<g>
				<path fill="#929497" d="M199.417,435.713v-1.768h-0.448v-0.369h0.448v-0.739h0.425v0.739h0.549v0.369h-0.549v1.679
					c0,0.202,0.09,0.347,0.269,0.347c0.123,0,0.23-0.056,0.285-0.118l0.123,0.319c-0.106,0.1-0.258,0.174-0.498,0.174
					C199.618,436.346,199.417,436.116,199.417,435.713z"/>
			</g>
			<g>
				<path fill="#929497" d="M200.906,432.909c0-0.157,0.129-0.285,0.285-0.285c0.157,0,0.28,0.129,0.28,0.285
					c0,0.157-0.123,0.28-0.28,0.28C201.035,433.189,200.906,433.066,200.906,432.909z M200.979,436.278v-2.703h0.42v2.703H200.979z"
					/>
			</g>
			<g>
				<path fill="#929497" d="M202.082,434.924c0-0.783,0.515-1.416,1.337-1.416s1.338,0.633,1.338,1.416
					c0,0.783-0.515,1.422-1.338,1.422S202.082,435.707,202.082,434.924z M204.315,434.924c0-0.548-0.319-1.041-0.896-1.041
					c-0.576,0-0.896,0.493-0.896,1.041c0,0.554,0.319,1.047,0.896,1.047C203.996,435.97,204.315,435.478,204.315,434.924z"/>
			</g>
			<g>
				<path fill="#929497" d="M207.272,436.278v-1.768c0-0.481-0.246-0.627-0.61-0.627c-0.33,0-0.638,0.202-0.8,0.42v1.976h-0.42
					v-2.703h0.42v0.392c0.19-0.23,0.56-0.459,0.968-0.459c0.56,0,0.856,0.286,0.856,0.874v1.897H207.272z"/>
			</g>
		</g>
	</g>
	<rect x="108.353" y="409.64" fill="#2D2D2D" width="14.7" height="11.9"/>
	<path fill="#929497" d="M123.553,422.04h-15.7v-12.9h15.7V422.04z M108.853,421.04h13.7v-10.9h-13.7V421.04z"/>
	<rect x="104.992" y="407.073" fill="#2D2D2D" width="16.1" height="12.6"/>
	<path fill="#929497" d="M121.592,420.173h-17.1v-13.6h17.1V420.173z M105.492,419.173h15.1v-11.6h-15.1V419.173z"/>
	<rect x="102.892" y="404.973" fill="#2D2D2D" width="16.1" height="12.6"/>
	<path fill="#929497" d="M119.492,418.074h-17.1v-13.6h17.1V418.074z M103.392,417.074h15.1v-11.6h-15.1V417.074z"/>
	<g>
		<g>
			<path fill="#929497" d="M104.382,427.661c0-1.147,0.845-1.931,1.92-1.931c0.66,0,1.119,0.313,1.416,0.739l-0.386,0.218
				c-0.213-0.319-0.605-0.543-1.03-0.543c-0.817,0-1.439,0.621-1.439,1.517c0,0.885,0.621,1.517,1.439,1.517
				c0.425,0,0.817-0.23,1.03-0.543l0.392,0.213c-0.313,0.431-0.761,0.744-1.422,0.744
				C105.228,429.592,104.382,428.808,104.382,427.661z"/>
		</g>
		<g>
			<path fill="#929497" d="M108.146,428.17c0-0.783,0.515-1.416,1.337-1.416s1.338,0.633,1.338,1.416
				c0,0.784-0.515,1.422-1.338,1.422S108.146,428.954,108.146,428.17z M110.378,428.17c0-0.549-0.319-1.041-0.896-1.041
				c-0.576,0-0.896,0.492-0.896,1.041c0,0.554,0.319,1.047,0.896,1.047C110.06,429.217,110.378,428.724,110.378,428.17z"/>
		</g>
		<g>
			<path fill="#929497" d="M111.505,429.525v-2.704h0.42v0.431c0.218-0.28,0.532-0.493,0.901-0.493v0.431
				c-0.051-0.006-0.101-0.011-0.162-0.011c-0.263,0-0.616,0.213-0.739,0.431v1.914H111.505z"/>
		</g>
		<g>
			<path fill="#929497" d="M113.773,429.116v1.438h-0.42v-3.733h0.42v0.403c0.196-0.274,0.532-0.47,0.912-0.47
				c0.711,0,1.203,0.537,1.203,1.416c0,0.874-0.493,1.422-1.203,1.422C114.316,429.592,113.997,429.413,113.773,429.116z
				 M115.446,428.17c0-0.599-0.324-1.041-0.867-1.041c-0.33,0-0.66,0.196-0.806,0.431v1.221c0.146,0.235,0.476,0.436,0.806,0.436
				C115.122,429.217,115.446,428.769,115.446,428.17z"/>
		</g>
		<g>
			<path fill="#929497" d="M118.381,429.525v-0.381c-0.207,0.235-0.56,0.448-0.962,0.448c-0.565,0-0.862-0.28-0.862-0.862v-1.909
				h0.42v1.78c0,0.476,0.241,0.615,0.61,0.615c0.325,0,0.638-0.19,0.795-0.408v-1.987h0.42v2.704H118.381z"/>
		</g>
		<g>
			<path fill="#929497" d="M119.413,429.167l0.213-0.302c0.179,0.207,0.521,0.386,0.89,0.386c0.414,0,0.644-0.196,0.644-0.465
				c0-0.655-1.673-0.252-1.673-1.254c0-0.425,0.358-0.778,1.002-0.778c0.465,0,0.789,0.174,1.002,0.392l-0.196,0.291
				c-0.162-0.196-0.454-0.341-0.806-0.341c-0.369,0-0.599,0.185-0.599,0.426c0,0.588,1.673,0.201,1.673,1.254
				c0,0.453-0.364,0.817-1.058,0.817C120.056,429.592,119.687,429.452,119.413,429.167z"/>
		</g>
	</g>
	<g>
		<g>
			<g>
				<g>
					<g>
						<line fill="#929497" x1="80.299" y1="400.243" x2="80.299" y2="415.589"/>
					</g>
				</g>
				<g>
					<g>
						<g>
							<rect x="79.949" y="400.243" fill="#929497" width="0.7" height="14.587"/>
						</g>
					</g>
					<g>
						<g>
							<g>
								<polygon fill="#929497" points="77.436,412.51 77.949,412.032 80.298,414.561 82.648,412.032 83.161,412.51 80.298,415.589 
																	"/>
							</g>
						</g>
					</g>
				</g>
			</g>
			<g>
				<g>
					<path fill="#929497" d="M90.449,421.68h-20.3v-14h20.3V421.68z M70.849,420.98h18.9v-12.6h-18.9V420.98z"/>
				</g>
			</g>
		</g>
		<g>
			<g>
				<path fill="#929497" d="M68.245,429.603v-3.733h1.276c1.164,0,1.914,0.811,1.914,1.869c0,1.064-0.75,1.864-1.914,1.864H68.245z
					 M70.954,427.739c0-0.806-0.509-1.455-1.433-1.455H68.71v2.905h0.812C70.428,429.189,70.954,428.54,70.954,427.739z"/>
			</g>
			<g>
				<path fill="#929497" d="M71.992,428.249c0-0.783,0.515-1.416,1.337-1.416c0.823,0,1.338,0.633,1.338,1.416
					c0,0.784-0.515,1.422-1.338,1.422C72.507,429.67,71.992,429.033,71.992,428.249z M74.225,428.249
					c0-0.549-0.319-1.041-0.896-1.041c-0.576,0-0.896,0.492-0.896,1.041c0,0.554,0.319,1.047,0.896,1.047
					C73.906,429.295,74.225,428.803,74.225,428.249z"/>
			</g>
			<g>
				<path fill="#929497" d="M77.692,429.603l-0.705-2.172l-0.705,2.172h-0.42l-0.862-2.704h0.437l0.66,2.155l0.711-2.155h0.364
					l0.705,2.155l0.661-2.155h0.442l-0.862,2.704H77.692z"/>
			</g>
			<g>
				<path fill="#929497" d="M81.293,429.603v-1.769c0-0.482-0.246-0.627-0.61-0.627c-0.33,0-0.638,0.201-0.8,0.42v1.976h-0.42V426.9
					h0.42v0.392c0.19-0.229,0.56-0.459,0.968-0.459c0.56,0,0.856,0.286,0.856,0.873v1.898H81.293z"/>
			</g>
			<g>
				<path fill="#929497" d="M82.554,429.603v-3.733h0.42v3.733H82.554z"/>
			</g>
			<g>
				<path fill="#929497" d="M83.657,428.249c0-0.783,0.515-1.416,1.337-1.416s1.338,0.633,1.338,1.416
					c0,0.784-0.515,1.422-1.338,1.422S83.657,429.033,83.657,428.249z M85.89,428.249c0-0.549-0.319-1.041-0.896-1.041
					c-0.576,0-0.896,0.492-0.896,1.041c0,0.554,0.319,1.047,0.896,1.047C85.571,429.295,85.89,428.803,85.89,428.249z"/>
			</g>
			<g>
				<path fill="#929497" d="M88.707,429.603v-0.308c-0.218,0.247-0.531,0.375-0.896,0.375c-0.453,0-0.94-0.308-0.94-0.896
					c0-0.61,0.482-0.89,0.94-0.89c0.369,0,0.677,0.118,0.896,0.364v-0.487c0-0.358-0.291-0.565-0.683-0.565
					c-0.325,0-0.588,0.112-0.829,0.375L87,427.28c0.291-0.302,0.638-0.448,1.08-0.448c0.577,0,1.047,0.258,1.047,0.913v1.858H88.707
					z M88.707,429.033v-0.515c-0.162-0.218-0.448-0.33-0.739-0.33c-0.398,0-0.672,0.246-0.672,0.588
					c0,0.347,0.274,0.593,0.672,0.593C88.259,429.368,88.545,429.256,88.707,429.033z"/>
			</g>
			<g>
				<path fill="#929497" d="M91.933,429.603V429.2c-0.201,0.274-0.531,0.47-0.912,0.47c-0.705,0-1.203-0.537-1.203-1.416
					c0-0.867,0.498-1.422,1.203-1.422c0.364,0,0.694,0.179,0.912,0.476v-1.438h0.42v3.733H91.933z M91.933,428.864v-1.22
					c-0.145-0.235-0.476-0.436-0.806-0.436c-0.548,0-0.873,0.448-0.873,1.047c0,0.599,0.325,1.041,0.873,1.041
					C91.457,429.295,91.787,429.1,91.933,428.864z"/>
			</g>
		</g>
	</g>
	<g>
		<g>
			<g>
				<rect x="48.28" y="413.448" fill="#929497" width="6.3" height="0.7"/>
			</g>
			<g>
				<rect x="48.28" y="415.548" fill="#929497" width="6.3" height="0.7"/>
			</g>
			<g>
				<rect x="48.28" y="417.648" fill="#929497" width="6.3" height="0.7"/>
			</g>
			<g>
				<path fill="#929497" d="M54.016,407.148h-0.395H45.48v14.7h11.9v-11.593v-0.137L54.016,407.148z M54.151,408.054l2.214,1.928
					l-2.349,0.352L54.151,408.054z M56.68,421.148h-10.5v-13.3h7.59l-0.29,3.085l3.199-0.617V421.148z"/>
			</g>
		</g>
		<g>
			<g>
				<path fill="#929497" d="M41.941,429.772v-3.733h1.276c1.164,0,1.914,0.811,1.914,1.869c0,1.064-0.75,1.864-1.914,1.864H41.941z
					 M44.65,427.907c0-0.806-0.509-1.455-1.433-1.455h-0.812v2.905h0.812C44.124,429.357,44.65,428.708,44.65,427.907z"/>
			</g>
			<g>
				<path fill="#929497" d="M47.535,429.772v-0.308c-0.218,0.247-0.531,0.375-0.896,0.375c-0.453,0-0.94-0.308-0.94-0.896
					c0-0.61,0.482-0.89,0.94-0.89c0.369,0,0.677,0.118,0.896,0.364v-0.487c0-0.358-0.291-0.565-0.683-0.565
					c-0.325,0-0.588,0.112-0.829,0.375l-0.196-0.291c0.291-0.302,0.638-0.448,1.08-0.448c0.577,0,1.047,0.258,1.047,0.913v1.858
					H47.535z M47.535,429.201v-0.515c-0.162-0.218-0.448-0.33-0.739-0.33c-0.398,0-0.672,0.246-0.672,0.588
					c0,0.347,0.274,0.593,0.672,0.593C47.087,429.536,47.373,429.424,47.535,429.201z"/>
			</g>
			<g>
				<path fill="#929497" d="M48.886,429.206v-1.769h-0.448v-0.369h0.448v-0.739h0.425v0.739h0.549v0.369h-0.549v1.679
					c0,0.202,0.09,0.347,0.269,0.347c0.123,0,0.23-0.055,0.285-0.117l0.123,0.319c-0.106,0.101-0.258,0.174-0.498,0.174
					C49.087,429.839,48.886,429.609,48.886,429.206z"/>
			</g>
			<g>
				<path fill="#929497" d="M52.138,429.772v-0.308c-0.218,0.247-0.531,0.375-0.896,0.375c-0.453,0-0.94-0.308-0.94-0.896
					c0-0.61,0.482-0.89,0.94-0.89c0.369,0,0.677,0.118,0.896,0.364v-0.487c0-0.358-0.291-0.565-0.683-0.565
					c-0.325,0-0.588,0.112-0.829,0.375l-0.196-0.291c0.291-0.302,0.638-0.448,1.08-0.448c0.577,0,1.047,0.258,1.047,0.913v1.858
					H52.138z M52.138,429.201v-0.515c-0.162-0.218-0.448-0.33-0.739-0.33c-0.398,0-0.672,0.246-0.672,0.588
					c0,0.347,0.274,0.593,0.672,0.593C51.69,429.536,51.976,429.424,52.138,429.201z"/>
			</g>
			<g>
				<path fill="#929497" d="M53.176,429.413l0.213-0.302c0.179,0.207,0.521,0.386,0.89,0.386c0.414,0,0.644-0.196,0.644-0.465
					c0-0.655-1.673-0.252-1.673-1.254c0-0.425,0.358-0.778,1.002-0.778c0.465,0,0.789,0.174,1.002,0.392l-0.196,0.291
					c-0.162-0.196-0.454-0.341-0.806-0.341c-0.369,0-0.599,0.185-0.599,0.426c0,0.588,1.673,0.201,1.673,1.254
					c0,0.453-0.364,0.817-1.058,0.817C53.819,429.839,53.45,429.698,53.176,429.413z"/>
			</g>
			<g>
				<path fill="#929497" d="M55.853,428.417c0-0.783,0.56-1.416,1.332-1.416c0.817,0,1.298,0.638,1.298,1.45v0.106H56.3
					c0.033,0.509,0.386,0.934,0.968,0.934c0.314,0,0.621-0.123,0.84-0.347l0.201,0.274c-0.274,0.269-0.638,0.42-1.075,0.42
					C56.429,429.839,55.853,429.262,55.853,428.417z M57.179,427.348c-0.576,0-0.862,0.487-0.884,0.896h1.774
					C58.063,427.846,57.795,427.348,57.179,427.348z"/>
			</g>
			<g>
				<path fill="#929497" d="M59.246,429.206v-1.769h-0.448v-0.369h0.448v-0.739h0.425v0.739h0.549v0.369h-0.549v1.679
					c0,0.202,0.09,0.347,0.269,0.347c0.123,0,0.23-0.055,0.285-0.117l0.123,0.319c-0.107,0.101-0.258,0.174-0.498,0.174
					C59.447,429.839,59.246,429.609,59.246,429.206z"/>
			</g>
		</g>
	</g>
	<g>
		<g>
			<g>
				<g>
					<path fill="#929497" d="M28.21,423h-8.649l-4.331-7.5l4.331-7.5h8.649l4.331,7.5L28.21,423z M19.961,422h7.849l3.918-6.5
						L27.81,409h-7.849l-3.918,6.5L19.961,422z"/>
				</g>
			</g>
			<g>
				<g>
					<path fill="#929497" d="M26.698,420h-5.626l-2.837-4.5l2.837-4.5h5.626l2.837,4.5L26.698,420z M21.46,419h4.849l2.4-3.5
						l-2.4-3.5H21.46l-2.4,3.5L21.46,419z"/>
				</g>
			</g>
		</g>
		<g>
			<g>
				<path fill="#929497" d="M19.072,429.542v-3.319h-1.181v-0.414h2.832v0.414h-1.187v3.319H19.072z"/>
			</g>
			<g>
				<path fill="#929497" d="M20.524,428.187c0-0.783,0.515-1.416,1.337-1.416s1.338,0.633,1.338,1.416
					c0,0.784-0.515,1.422-1.338,1.422S20.524,428.971,20.524,428.187z M22.757,428.187c0-0.549-0.319-1.041-0.896-1.041
					c-0.576,0-0.896,0.492-0.896,1.041c0,0.554,0.319,1.047,0.896,1.047C22.438,429.234,22.757,428.741,22.757,428.187z"/>
			</g>
			<g>
				<path fill="#929497" d="M23.727,428.187c0-0.783,0.515-1.416,1.337-1.416c0.823,0,1.338,0.633,1.338,1.416
					c0,0.784-0.515,1.422-1.338,1.422C24.242,429.609,23.727,428.971,23.727,428.187z M25.96,428.187
					c0-0.549-0.319-1.041-0.896-1.041c-0.576,0-0.896,0.492-0.896,1.041c0,0.554,0.319,1.047,0.896,1.047
					C25.641,429.234,25.96,428.741,25.96,428.187z"/>
			</g>
			<g>
				<path fill="#929497" d="M27.087,429.542v-3.733h0.42v3.733H27.087z"/>
			</g>
		</g>
	</g>
	<g>
		<rect x="14.5" y="396.5" fill="#F2F2F2" stroke="#929497" stroke-miterlimit="10" width="194" height="1"/>
	</g>
</g>
<g id="guide" display="none">
</g>
</svg>
