<?xml version="1.0" encoding="utf-8"?>
<!-- Generator: Adobe Illustrator 19.0.0, SVG Export Plug-In . SVG Version: 6.00 Build 0)  -->
<svg version="1.1" id="Livello_1" xmlns="http://www.w3.org/2000/svg" xmlns:xlink="http://www.w3.org/1999/xlink" x="0px" y="0px"
	 viewBox="0 0 850 902.87" style="enable-background:new 0 0 850 902.87;" xml:space="preserve">
<style type="text/css">
	.st0{fill:#2D2D2D;}
	.st1{fill:none;}
	.st2{fill:#F6F7F7;}
	.st3{font-family:'ProximaNova-Regular';}
	.st4{font-size:12px;}
	.st5{font-size:14.4px;}
	.st6{fill:#428371;}
	.st7{fill:#2D2D2D;stroke:#F6F7F7;stroke-miterlimit:10;}
	.st8{fill:none;stroke:#F6F7F7;stroke-miterlimit:10;}
	.st9{fill:none;stroke:#929497;stroke-miterlimit:10;}
	.st10{font-family:'ProximaNova-RegularIt';}
	.st11{fill:#63C2A6;}
	.st12{fill:#929497;}
	.st13{fill:#A2D7C7;}
	.st14{fill:#2D2D2D;stroke:#929497;stroke-miterlimit:10;}
</style>
<rect x="0.35" class="st0" width="849.65" height="902.87"/>
<rect x="59.56" y="39.17" class="st1" width="47.79" height="10.2"/>
<text transform="matrix(1 0 0 1 59.5576 47.1783)" class="st2 st3 st4">SOURCE</text>
<rect x="121.35" y="38.07" class="st1" width="97.8" height="12.4"/>
<text transform="matrix(1 0 0 1 121.3481 47.6793)" class="st2 st3 st5">Google Scholar</text>
<rect x="114.24" y="115.87" class="st1" width="99.79" height="14.4"/>
<text transform="matrix(1 0 0 1 114.2441 123.878)" class="st2 st3 st4">sharing economy</text>
<rect x="442.34" y="115.87" class="st1" width="89.61" height="14.4"/>
<text transform="matrix(1 0 0 1 442.3403 123.878)" class="st2 st3 st4">available full text</text>
<rect x="442.34" y="186.47" class="st1" width="89.61" height="14.4"/>
<text transform="matrix(1 0 0 1 442.3403 194.4781)" class="st2 st3 st4">metadata</text>
<rect x="114.24" y="138.67" class="st1" width="125.79" height="14.4"/>
<text transform="matrix(1 0 0 1 114.2441 146.6782)" class="st2 st3 st4">collaborative economy</text>
<rect x="114.24" y="162.67" class="st1" width="141.79" height="14.4"/>
<text transform="matrix(1 0 0 1 114.2441 170.6782)" class="st2 st3 st4">collaborative consumption </text>
<rect x="114.24" y="185.07" class="st1" width="118.59" height="14.4"/>
<text transform="matrix(1 0 0 1 114.2441 193.0792)" class="st2 st3 st4">on-demand economy </text>
<rect x="60.45" y="149.87" class="st1" width="43.39" height="12"/>
<text transform="matrix(1 0 0 1 60.4482 157.878)" class="st2 st3 st4">QUERY</text>
<rect x="546.38" y="211.81" class="st1" width="52.14" height="26.63"/>
<text transform="matrix(1 0 0 1 548.7651 219.817)"><tspan x="0" y="0" class="st2 st3 st4">PUBLISH </tspan><tspan x="-1.54" y="13.2" class="st2 st3 st4">&amp; PERISH</tspan></text>
<rect x="594.58" y="135.36" class="st1" width="70.55" height="30.82"/>
<text transform="matrix(1 0 0 1 595.1328 143.3595)"><tspan x="0" y="0" class="st6 st3 st4">CORPUS_GS</tspan><tspan x="5.75" y="13.2" class="st2 st3 st4">120 papers</tspan></text>
<g>
	<rect x="621.24" y="109.37" class="st7" width="24" height="19.2"/>
	<rect x="617.25" y="105.05" class="st7" width="25.2" height="20.4"/>
	<rect x="614.04" y="103.37" class="st7" width="25.2" height="19.2"/>
</g>
<g>
	<g>
		<rect x="474.45" y="419.24" class="st0" width="25.2" height="20.4"/>
		<path class="st2" d="M500.25,440.24h-26.4v-21.6h26.4V440.24z M475.05,439.04h24v-19.2h-24V439.04z"/>
	</g>
	<g>
		<rect x="468.8" y="415.04" class="st0" width="27.6" height="21.6"/>
		<path class="st2" d="M497,437.24h-28.8v-22.8H497V437.24z M469.4,436.04h26.4v-20.4h-26.4V436.04z"/>
	</g>
	<g>
		<rect x="466.05" y="412.04" class="st0" width="27.6" height="21.6"/>
		<path class="st2" d="M494.25,434.24h-28.8v-22.8h28.8V434.24z M466.65,433.04h26.4v-20.4h-26.4V433.04z"/>
	</g>
</g>
<g>
	<rect x="474.45" y="693.33" class="st7" width="25.2" height="20.4"/>
	<rect x="468.97" y="689.29" class="st7" width="27.6" height="21.6"/>
	<rect x="466.05" y="686.13" class="st7" width="27.6" height="21.6"/>
</g>
<g>
	<rect x="740.85" y="693.33" class="st7" width="25.2" height="20.4"/>
	<rect x="736.05" y="689.73" class="st7" width="27.6" height="21.6"/>
	<rect x="732.45" y="686.13" class="st7" width="27.6" height="21.6"/>
</g>
<g>
	<g>
		<line class="st8" x1="500.25" y1="193.67" x2="541.16" y2="193.67"/>
		<g>
			<polygon class="st2" points="537.85,197.76 537.17,197.03 540.78,193.68 537.17,190.32 537.85,189.59 542.25,193.68 			"/>
		</g>
	</g>
</g>
<g>
	<g>
		<line class="st8" x1="542.25" y1="120.47" x2="587.96" y2="120.47"/>
		<g>
			<polygon class="st2" points="584.65,124.56 583.97,123.83 587.58,120.48 583.97,117.12 584.65,116.39 589.05,120.48 			"/>
		</g>
	</g>
</g>
<polygon class="st8" points="565.38,205.03 558.3,193.03 565.38,181.03 579.52,181.03 586.59,193.03 579.52,205.03 "/>
<polygon class="st8" points="567.96,200.23 563.47,193.03 567.96,185.83 576.94,185.83 581.42,193.03 576.94,200.23 "/>
<rect x="53.56" y="31.67" class="st9" width="58.8" height="22.8"/>
<line class="st9" x1="104.85" y1="118.67" x2="104.85" y2="193.07"/>
<line class="st9" x1="53.56" y1="54.47" x2="53.56" y2="158.23"/>
<line class="st8" x1="53.56" y1="323.27" x2="53.56" y2="427.03"/>
<polyline class="st8" points="259.05,119.27 275.25,119.27 275.25,193.67 257.85,193.67 "/>
<polyline class="st8" points="433.05,119.27 415.65,119.27 415.65,193.67 433.05,193.67 "/>
<line class="st8" x1="259.05" y1="144.47" x2="274.65" y2="144.47"/>
<line class="st8" x1="259.05" y1="166.07" x2="274.65" y2="166.07"/>
<g>
	<g>
		<line class="st8" x1="275.85" y1="156.47" x2="322.76" y2="156.47"/>
		<g>
			<polygon class="st2" points="319.45,160.56 318.77,159.83 322.38,156.48 318.77,153.12 319.45,152.39 323.85,156.48 			"/>
		</g>
	</g>
</g>
<line class="st8" x1="399.45" y1="156.47" x2="415.05" y2="156.47"/>
<g>
	<g>
		<line class="st0" x1="360.45" y1="135" x2="360.45" y2="161.31"/>
		<g>
			<line class="st8" x1="360.45" y1="135" x2="360.45" y2="160.22"/>
			<g>
				<polygon class="st2" points="356.36,156.91 357.09,156.23 360.45,159.84 363.81,156.23 364.54,156.91 360.45,161.31 				"/>
			</g>
		</g>
	</g>
	<rect x="343.65" y="148.35" class="st8" width="33.6" height="22.8"/>
</g>
<rect x="724.8" y="105.05" class="st1" width="65.71" height="44.21"/>
<text transform="matrix(1 0 0 1 735.2217 113.0537)"><tspan x="0" y="0" class="st2 st10 st4">grouped </tspan><tspan x="2.74" y="13.2" class="st2 st10 st4">by year</tspan><tspan x="-9.53" y="26.4" class="st2 st10 st4">(2005-2015)</tspan></text>
<rect x="660.84" y="225.39" class="st1" width="57.88" height="44.21"/>
<text transform="matrix(1 0 0 1 669.749 233.3975)"><tspan x="0" y="0" class="st2 st10 st4">authors</tspan><tspan x="7.64" y="13.2" class="st2 st10 st4">titles</tspan><tspan x="7.78" y="26.4" class="st2 st10 st4">cites</tspan></text>
<g>
	<g>
		<line class="st8" x1="671.85" y1="120.47" x2="717.56" y2="120.47"/>
		<g>
			<polygon class="st2" points="714.25,124.56 713.57,123.83 717.18,120.48 713.57,117.12 714.25,116.39 718.65,120.48 			"/>
		</g>
	</g>
</g>
<rect x="636.5" y="212.03" class="st1" width="106.56" height="9.28"/>
<text transform="matrix(1 0 0 1 652.739 220.0386)" class="st6 st3 st4">DATASET_GS</text>
<g>
	<g>
		<line class="st8" x1="606.96" y1="194.87" x2="648.48" y2="194.87"/>
		<g>
			<polygon class="st2" points="645.16,198.96 644.48,198.23 648.09,194.88 644.48,191.52 645.16,190.79 649.56,194.88 			"/>
		</g>
	</g>
</g>
<g>
	<rect x="684.38" y="191.45" class="st2" width="10.8" height="1.2"/>
	<rect x="684.38" y="195.05" class="st2" width="10.8" height="1.2"/>
	<rect x="684.38" y="198.65" class="st2" width="10.8" height="1.2"/>
	<path class="st2" d="M694.21,180.65h-0.68h-13.96v25.2h20.4v-19.87v-0.24L694.21,180.65z M694.45,182.2l3.79,3.3l-4.03,0.6
		L694.45,182.2z M698.78,204.65h-18v-22.8h13.01l-0.5,5.29l5.48-1.06V204.65z"/>
</g>
<rect x="709.56" y="411.18" class="st1" width="67.71" height="55"/>
<text transform="matrix(1 0 0 1 720.9892 419.1797)"><tspan x="0" y="0" class="st2 st10 st4">grouped </tspan><tspan x="2.74" y="13.2" class="st2 st10 st4">by year</tspan><tspan x="-9.53" y="26.4" class="st2 st10 st4">(2005-2015)</tspan></text>
<g>
	<g>
		<line class="st8" x1="649.05" y1="426.47" x2="694.76" y2="426.47"/>
		<g>
			<polygon class="st2" points="691.45,430.56 690.77,429.83 694.38,426.48 690.77,423.12 691.45,422.39 695.85,426.48 			"/>
		</g>
	</g>
</g>
<rect x="59.56" y="307.97" class="st1" width="47.79" height="10.2"/>
<text transform="matrix(1 0 0 1 59.5576 315.9781)" class="st2 st3 st4">SOURCE</text>
<rect x="121.35" y="306.87" class="st1" width="97.8" height="12.4"/>
<text transform="matrix(1 0 0 1 121.3481 316.479)" class="st2 st3 st5">Lexis Nexis</text>
<rect x="114.24" y="384.67" class="st1" width="99.79" height="14.4"/>
<text transform="matrix(1 0 0 1 114.2441 392.6777)" class="st2 st3 st4">sharing economy</text>
<rect x="114.24" y="407.47" class="st1" width="125.79" height="14.4"/>
<text transform="matrix(1 0 0 1 114.2441 415.4786)" class="st2 st3 st4">collaborative economy</text>
<rect x="114.24" y="431.47" class="st1" width="141.79" height="14.4"/>
<text transform="matrix(1 0 0 1 114.2441 439.4786)" class="st2 st3 st4">collaborative consumption </text>
<rect x="114.24" y="453.87" class="st1" width="118.59" height="14.4"/>
<text transform="matrix(1 0 0 1 114.2441 461.8789)" class="st2 st3 st4">on-demand economy </text>
<rect x="60.38" y="418.67" class="st1" width="43.39" height="12"/>
<text transform="matrix(1 0 0 1 60.3799 426.6779)" class="st2 st3 st4">QUERY</text>
<line class="st9" x1="53.56" y1="596.87" x2="53.56" y2="700.63"/>
<rect x="60.38" y="692.27" class="st1" width="43.39" height="12"/>
<text transform="matrix(1 0 0 1 60.3799 700.2784)" class="st2 st3 st4">QUERY</text>
<rect x="447.35" y="450.24" class="st1" width="70.5" height="37.96"/>
<text transform="matrix(1 0 0 1 448.4712 458.2462)"><tspan x="0" y="0" class="st11 st3 st4">CORPUS_LN</tspan><tspan x="0.02" y="13.2" class="st12 st3 st4">6780 articles</tspan></text>
<rect x="579.75" y="450.24" class="st1" width="61.8" height="10.48"/>
<text transform="matrix(1 0 0 1 591.9775 458.2462)" class="st2 st3 st4">REGEX</text>
<g>
	<g>
		<line class="st8" x1="399.45" y1="425.27" x2="445.16" y2="425.27"/>
		<g>
			<polygon class="st2" points="441.85,429.36 441.17,428.63 444.78,425.28 441.17,421.92 441.85,421.19 446.25,425.28 			"/>
		</g>
	</g>
</g>
<rect x="53.56" y="300.47" class="st8" width="58.8" height="22.8"/>
<line class="st8" x1="104.85" y1="387.47" x2="104.85" y2="461.87"/>
<polyline class="st8" points="259.05,388.07 275.25,388.07 275.25,462.47 257.85,462.47 "/>
<line class="st8" x1="259.05" y1="413.27" x2="274.65" y2="413.27"/>
<line class="st8" x1="259.05" y1="434.87" x2="274.65" y2="434.87"/>
<g>
	<g>
		<line class="st8" x1="275.85" y1="425.27" x2="322.76" y2="425.27"/>
		<g>
			<polygon class="st2" points="319.45,429.36 318.77,428.63 322.38,425.28 318.77,421.92 319.45,421.19 323.85,425.28 			"/>
		</g>
	</g>
</g>
<g>
	<g>
		<g>
			<line class="st2" x1="360.45" y1="403.49" x2="360.45" y2="429.8"/>
		</g>
		<g>
			<g>
				<rect x="359.85" y="403.49" class="st2" width="1.2" height="25.01"/>
			</g>
			<g>
				<g>
					<polygon class="st2" points="355.54,424.52 356.42,423.7 360.45,428.04 364.48,423.7 365.36,424.52 360.45,429.8 					"/>
				</g>
			</g>
		</g>
	</g>
	<g>
		<path class="st2" d="M377.85,440.24h-34.8v-24h34.8V440.24z M344.25,439.04h32.4v-21.6h-32.4V439.04z"/>
	</g>
</g>
<rect x="323.84" y="450.01" class="st1" width="72.02" height="65.27"/>
<text transform="matrix(1 0 0 1 334.0258 458.0147)"><tspan x="0" y="0" class="st2 st10 st4">max 1000 </tspan><tspan x="-1.88" y="13.2" class="st2 st10 st4">articles for </tspan><tspan x="-3.88" y="26.4" class="st2 st10 st4">each query </tspan><tspan x="-9.26" y="39.6" class="st2 st10 st4">for each year</tspan></text>
<rect x="104.37" y="474.69" class="st1" width="123.26" height="8.46"/>
<text transform="matrix(1 0 0 1 104.3687 482.6905)" class="st2 st10 st4">title + subject</text>
<rect x="104.37" y="489.72" class="st1" width="123.26" height="8.46"/>
<text transform="matrix(1 0 0 1 104.3687 497.7256)" class="st2 st10 st4">2005 - 2015</text>
<rect x="104.37" y="205.1" class="st1" width="123.26" height="8.46"/>
<text transform="matrix(1 0 0 1 104.3687 213.1016)" class="st2 st10 st4">title</text>
<rect x="581.66" y="464.76" class="st1" width="57.98" height="46.88"/>
<text transform="matrix(1 0 0 1 584.3212 472.7656)"><tspan x="0" y="0" class="st2 st10 st4">extraction </tspan><tspan x="-1.96" y="13.2" class="st2 st10 st4">of text and </tspan><tspan x="6.29" y="26.4" class="st2 st10 st4">authors</tspan></text>
<g>
	<g>
		<line class="st8" x1="523.05" y1="425.27" x2="568.76" y2="425.27"/>
		<g>
			<polygon class="st2" points="565.45,429.36 564.77,428.63 568.38,425.28 564.77,421.92 565.45,421.19 569.85,425.28 			"/>
		</g>
	</g>
</g>
<g>
	<g>
		<polygon class="st2" points="600.9,420.92 605.23,418.84 600.9,416.73 600.9,415.63 606,418.42 606,419.24 600.9,422.02 		"/>
	</g>
	<g>
		<path class="st2" d="M600.75,415.37v0.51v0.76v0.19l0.17,0.08l3.97,1.93l-3.97,1.91l-0.17,0.08v0.19v0.76v0.51l0.44-0.24l4.8-2.62
			l0.16-0.09v-0.18v-0.64v-0.18l-0.16-0.09l-4.8-2.63L600.75,415.37L600.75,415.37z"/>
	</g>
</g>
<g>
	<path class="st2" d="M605.85,423.44L605.85,423.44h7.2l0,0H605.85z"/>
	<rect x="605.85" y="422.84" class="st2" width="7.2" height="1.2"/>
</g>
<g>
	<path class="st2" d="M625.05,440.24h-28.8v-28.8h28.8V440.24z M597.45,439.04h26.4v-26.4h-26.4V439.04z"/>
</g>
<g>
	<g>
		<line class="st8" x1="657.45" y1="700.07" x2="703.16" y2="700.07"/>
		<g>
			<polygon class="st2" points="699.85,704.16 699.17,703.43 702.78,700.08 699.17,696.72 699.85,695.99 704.25,700.08 			"/>
		</g>
	</g>
</g>
<rect x="59.56" y="581.57" class="st1" width="47.79" height="10.2"/>
<text transform="matrix(1 0 0 1 59.5576 589.5781)" class="st2 st3 st4">SOURCE</text>
<rect x="121.35" y="580.47" class="st1" width="97.8" height="12.4"/>
<text transform="matrix(1 0 0 1 121.3481 590.0792)" class="st2 st3 st5">Google Search</text>
<rect x="114.24" y="658.27" class="st1" width="99.79" height="14.4"/>
<text transform="matrix(1 0 0 1 114.2441 666.2784)" class="st2 st3 st4">sharing economy</text>
<rect x="114.24" y="681.07" class="st1" width="125.79" height="14.4"/>
<text transform="matrix(1 0 0 1 114.2441 689.0782)" class="st2 st3 st4">collaborative economy</text>
<rect x="114.24" y="705.07" class="st1" width="141.79" height="14.4"/>
<text transform="matrix(1 0 0 1 114.2441 713.0782)" class="st2 st3 st4">collaborative consumption </text>
<rect x="114.24" y="727.47" class="st1" width="118.59" height="14.4"/>
<text transform="matrix(1 0 0 1 114.2441 735.4796)" class="st2 st3 st4">on-demand economy </text>
<rect x="450.65" y="724.33" class="st1" width="65.34" height="24.4"/>
<text transform="matrix(1 0 0 1 459.7714 732.3379)"><tspan x="0" y="0" class="st2 st3 st4">CORPUS</tspan><tspan x="-1.47" y="13.2" class="st2 st3 st4">4000 link</tspan></text>
<rect x="329.55" y="724.33" class="st1" width="61.8" height="8.74"/>
<text transform="matrix(1 0 0 1 343.7574 732.3379)" class="st2 st3 st4">YOYO</text>
<rect x="578.16" y="724.33" class="st1" width="72.18" height="10.48"/>
<text transform="matrix(1 0 0 1 579.3296 732.3379)" class="st2 st3 st4">TEXT RIPPER</text>
<g>
	<g>
		<line class="st8" x1="399.45" y1="698.87" x2="445.16" y2="698.87"/>
		<g>
			<polygon class="st2" points="441.85,702.96 441.17,702.23 444.78,698.88 441.17,695.52 441.85,694.79 446.25,698.88 			"/>
		</g>
	</g>
</g>
<rect x="53.56" y="574.07" class="st9" width="58.8" height="22.8"/>
<line class="st9" x1="104.85" y1="661.07" x2="104.85" y2="735.47"/>
<polyline class="st8" points="259.05,661.67 275.25,661.67 275.25,736.07 257.85,736.07 "/>
<line class="st8" x1="259.05" y1="686.87" x2="274.65" y2="686.87"/>
<line class="st8" x1="259.05" y1="708.47" x2="274.65" y2="708.47"/>
<g>
	<g>
		<line class="st8" x1="275.85" y1="698.87" x2="322.76" y2="698.87"/>
		<g>
			<polygon class="st2" points="319.45,702.96 318.77,702.23 322.38,698.88 318.77,695.52 319.45,694.79 323.85,698.88 			"/>
		</g>
	</g>
</g>
<rect x="710.97" y="724.33" class="st1" width="77.75" height="38.83"/>
<text transform="matrix(1 0 0 1 711.7128 732.3369)"><tspan x="0" y="0" class="st13 st3 st4">CORPUS_GSE</tspan><tspan x="4.86" y="13.2" class="st2 st3 st4">4000 results</tspan></text>
<rect x="320.91" y="739.12" class="st1" width="77.88" height="38.44"/>
<text transform="matrix(1 0 0 1 337.0316 747.1192)"><tspan x="0" y="0" class="st2 st10 st4">100 links </tspan><tspan x="-15.56" y="13.2" class="st2 st10 st4">for each query </tspan><tspan x="-12.27" y="26.4" class="st2 st10 st4">for each year</tspan></text>
<rect x="104.37" y="748.29" class="st1" width="123.26" height="8.46"/>
<text transform="matrix(1 0 0 1 104.3687 756.2911)" class="st2 st10 st4">2005 - 2015</text>
<rect x="573.09" y="738.85" class="st1" width="82.16" height="38.7"/>
<text transform="matrix(1 0 0 1 587.8403 746.8575)"><tspan x="0" y="0" class="st2 st10 st4">extraction </tspan><tspan x="9.81" y="13.2" class="st2 st10 st4">of text</tspan></text>
<g>
	<g>
		<line class="st8" x1="523.05" y1="698.87" x2="568.76" y2="698.87"/>
		<g>
			<polygon class="st2" points="565.45,702.96 564.77,702.23 568.38,698.88 564.77,695.52 565.45,694.79 569.85,698.88 			"/>
		</g>
	</g>
</g>
<polygon class="st8" points="351.72,713.73 343.59,699.93 351.72,686.13 367.98,686.13 376.11,699.93 367.98,713.73 "/>
<polygon class="st8" points="354.69,708.21 349.52,699.93 354.69,691.65 365.01,691.65 370.17,699.93 365.01,708.21 "/>
<polygon class="st8" points="606.04,713.73 597.91,699.93 606.04,686.13 622.3,686.13 630.43,699.93 622.3,713.73 "/>
<polygon class="st8" points="609,708.21 603.84,699.93 609,691.65 619.33,691.65 624.49,699.93 619.33,708.21 "/>
<g>
	<g>
		<g>
			<path class="st12" d="M196.92,839.46v-0.53l3.17-1.52l-3.17-1.54v-0.53l3.71,1.84v0.45L196.92,839.46z"/>
			<path class="st12" d="M200.85,841.02v-0.46h4.79v0.46H200.85z"/>
			<g>
				<path class="st12" d="M213.96,852.47h-20.33v-20.33h20.33V852.47z M194.48,851.63h18.65v-18.65h-18.65V851.63z"/>
			</g>
		</g>
		<g>
			<path class="st12" d="M195.54,861.42l0.34-0.43c0.29,0.34,0.77,0.64,1.4,0.64c0.8,0,1.05-0.43,1.05-0.78
				c0-1.15-2.65-0.51-2.65-2.11c0-0.74,0.66-1.25,1.54-1.25c0.68,0,1.21,0.23,1.59,0.63l-0.34,0.41c-0.34-0.38-0.81-0.54-1.3-0.54
				c-0.53,0-0.92,0.29-0.92,0.71c0,1.01,2.65,0.43,2.65,2.1c0,0.64-0.44,1.32-1.65,1.32C196.49,862.13,195.91,861.83,195.54,861.42z
				"/>
			<path class="st12" d="M199.54,860.42c0-0.96,0.65-1.7,1.62-1.7c0.59,0,0.94,0.24,1.19,0.56l-0.34,0.3
				c-0.21-0.3-0.49-0.42-0.83-0.42c-0.69,0-1.12,0.53-1.12,1.25c0,0.72,0.44,1.26,1.12,1.26c0.34,0,0.61-0.13,0.83-0.42l0.34,0.31
				c-0.25,0.32-0.6,0.56-1.19,0.56C200.19,862.13,199.54,861.38,199.54,860.42z"/>
			<path class="st12" d="M203.06,862.05v-3.24h0.5v0.52c0.26-0.34,0.64-0.59,1.08-0.59v0.52c-0.06-0.01-0.12-0.01-0.19-0.01
				c-0.32,0-0.74,0.26-0.89,0.52v2.3H203.06z"/>
			<path class="st12" d="M205.19,858.01c0-0.19,0.15-0.34,0.34-0.34c0.19,0,0.34,0.15,0.34,0.34c0,0.19-0.15,0.34-0.34,0.34
				C205.34,858.34,205.19,858.19,205.19,858.01z M205.28,862.05v-3.24h0.5v3.24H205.28z"/>
			<path class="st12" d="M207.29,861.56v1.73h-0.5v-4.48h0.5v0.48c0.24-0.33,0.64-0.56,1.09-0.56c0.85,0,1.44,0.64,1.44,1.7
				c0,1.05-0.59,1.71-1.44,1.71C207.94,862.13,207.56,861.91,207.29,861.56z M209.3,860.42c0-0.72-0.39-1.25-1.04-1.25
				c-0.4,0-0.79,0.24-0.97,0.52v1.46c0.17,0.28,0.57,0.52,0.97,0.52C208.91,861.68,209.3,861.14,209.3,860.42z"/>
			<path class="st12" d="M210.73,861.37v-2.12h-0.54v-0.44h0.54v-0.89h0.51v0.89h0.66v0.44h-0.66v2.02c0,0.24,0.11,0.42,0.32,0.42
				c0.15,0,0.28-0.07,0.34-0.14l0.15,0.38c-0.13,0.12-0.31,0.21-0.6,0.21C210.98,862.13,210.73,861.85,210.73,861.37z"/>
		</g>
	</g>
	<g>
		<g>
			<g>
				<polygon class="st12" points="242.35,852 229.35,852 229.35,834 230.35,834.22 230.35,851 241.35,851 241.35,834.17 242.35,834 
									"/>
			</g>
			<g>
				<path class="st12" d="M235.85,839.19c-1.47,0-2.66-1.19-2.66-2.66s1.19-2.66,2.66-2.66s2.66,1.19,2.66,2.66
					S237.32,839.19,235.85,839.19z M235.85,834.71c-1,0-1.82,0.82-1.82,1.82c0,1,0.82,1.82,1.82,1.82s1.82-0.82,1.82-1.82
					C237.67,835.52,236.85,834.71,235.85,834.71z"/>
			</g>
			<g>
				<polygon class="st12" points="230.27,834.32 229.35,834 235.88,828.69 242.35,834 241.35,834.17 235.85,829.8 				"/>
			</g>
		</g>
		<g>
			<path class="st12" d="M232,861.58v-3.98h-1.42v-0.5h3.4v0.5h-1.42v3.98H232z"/>
			<path class="st12" d="M236.09,861.58v-0.37c-0.26,0.3-0.64,0.45-1.07,0.45c-0.54,0-1.13-0.37-1.13-1.07
				c0-0.73,0.58-1.07,1.13-1.07c0.44,0,0.81,0.14,1.07,0.44v-0.58c0-0.43-0.35-0.68-0.82-0.68c-0.39,0-0.71,0.13-0.99,0.45
				l-0.24-0.35c0.35-0.36,0.77-0.54,1.3-0.54c0.69,0,1.26,0.31,1.26,1.1v2.23H236.09z M236.09,860.9v-0.62
				c-0.19-0.26-0.54-0.4-0.89-0.4c-0.48,0-0.81,0.3-0.81,0.71c0,0.42,0.33,0.71,0.81,0.71C235.56,861.3,235.9,861.16,236.09,860.9z"
				/>
			<path class="st12" d="M237.61,862.41l0.26-0.36c0.27,0.32,0.59,0.44,1.05,0.44c0.54,0,1.05-0.26,1.05-0.95v-0.49
				c-0.24,0.33-0.64,0.58-1.09,0.58c-0.85,0-1.44-0.63-1.44-1.68c0-1.04,0.59-1.69,1.44-1.69c0.44,0,0.83,0.21,1.09,0.57v-0.49h0.5
				v3.2c0,1.03-0.76,1.36-1.55,1.36C238.37,862.9,238,862.79,237.61,862.41z M239.97,860.65v-1.42c-0.18-0.28-0.57-0.52-0.97-0.52
				c-0.66,0-1.05,0.52-1.05,1.24c0,0.71,0.39,1.23,1.05,1.23C239.39,861.17,239.78,860.93,239.97,860.65z"/>
		</g>
	</g>
	<g>
		<g>
			<g>
				<path class="st12" d="M276.62,851.86h-20.16V831.7h20.16V851.86z M257.3,851.02h18.48v-18.48H257.3V851.02z"/>
			</g>
			<g>
				<polygon class="st12" points="269.32,841.94 264.21,836.29 264.83,835.73 269.11,840.46 274.86,828.61 275.61,828.98 				"/>
			</g>
		</g>
		<g>
			<path class="st12" d="M251.99,859.2c0-1.38,1.01-2.32,2.3-2.32c0.79,0,1.34,0.38,1.7,0.89l-0.46,0.26
				c-0.26-0.38-0.73-0.65-1.24-0.65c-0.98,0-1.73,0.75-1.73,1.82c0,1.06,0.75,1.82,1.73,1.82c0.51,0,0.98-0.28,1.24-0.65l0.47,0.26
				c-0.38,0.52-0.91,0.89-1.71,0.89C253,861.52,251.99,860.58,251.99,859.2z"/>
			<path class="st12" d="M256.69,861.44v-4.48h0.5v4.48H256.69z"/>
			<path class="st12" d="M258.02,859.81c0-0.94,0.67-1.7,1.6-1.7c0.98,0,1.56,0.77,1.56,1.74v0.13h-2.62
				c0.04,0.61,0.46,1.12,1.16,1.12c0.38,0,0.75-0.15,1.01-0.42l0.24,0.33c-0.33,0.32-0.77,0.5-1.29,0.5
				C258.71,861.52,258.02,860.83,258.02,859.81z M259.61,858.53c-0.69,0-1.03,0.58-1.06,1.07h2.13
				C260.67,859.13,260.35,858.53,259.61,858.53z"/>
			<path class="st12" d="M264.02,861.44v-0.37c-0.26,0.3-0.64,0.45-1.07,0.45c-0.54,0-1.13-0.37-1.13-1.07
				c0-0.73,0.58-1.07,1.13-1.07c0.44,0,0.81,0.14,1.07,0.44v-0.58c0-0.43-0.35-0.68-0.82-0.68c-0.39,0-0.71,0.13-0.99,0.45
				l-0.24-0.35c0.35-0.36,0.77-0.54,1.3-0.54c0.69,0,1.26,0.31,1.26,1.1v2.23H264.02z M264.02,860.76v-0.62
				c-0.19-0.26-0.54-0.4-0.89-0.4c-0.48,0-0.81,0.3-0.81,0.71c0,0.42,0.33,0.71,0.81,0.71
				C263.48,861.16,263.82,861.02,264.02,860.76z"/>
			<path class="st12" d="M267.73,861.44v-2.12c0-0.58-0.3-0.75-0.73-0.75c-0.4,0-0.77,0.24-0.96,0.5v2.37h-0.5v-3.24h0.5v0.47
				c0.23-0.28,0.67-0.55,1.16-0.55c0.67,0,1.03,0.34,1.03,1.05v2.28H267.73z"/>
			<path class="st12" d="M273.01,861.44v-0.37c-0.26,0.3-0.64,0.45-1.07,0.45c-0.54,0-1.13-0.37-1.13-1.07
				c0-0.73,0.58-1.07,1.13-1.07c0.44,0,0.81,0.14,1.07,0.44v-0.58c0-0.43-0.35-0.68-0.82-0.68c-0.39,0-0.71,0.13-0.99,0.45
				l-0.24-0.35c0.35-0.36,0.77-0.54,1.3-0.54c0.69,0,1.26,0.31,1.26,1.1v2.23H273.01z M273.01,860.76v-0.62
				c-0.19-0.26-0.54-0.4-0.89-0.4c-0.48,0-0.81,0.3-0.81,0.71c0,0.42,0.33,0.71,0.81,0.71
				C272.48,861.16,272.82,861.02,273.01,860.76z"/>
			<path class="st12" d="M276.73,861.44v-2.12c0-0.58-0.3-0.75-0.73-0.75c-0.4,0-0.77,0.24-0.96,0.5v2.37h-0.5v-3.24h0.5v0.47
				c0.23-0.28,0.67-0.55,1.16-0.55c0.67,0,1.03,0.34,1.03,1.05v2.28H276.73z"/>
			<path class="st12" d="M280.59,861.44v-0.48c-0.24,0.33-0.64,0.56-1.09,0.56c-0.85,0-1.44-0.64-1.44-1.7
				c0-1.04,0.6-1.71,1.44-1.71c0.44,0,0.83,0.21,1.09,0.57v-1.73h0.5v4.48H280.59z M280.59,860.55v-1.46
				c-0.17-0.28-0.57-0.52-0.97-0.52c-0.66,0-1.05,0.54-1.05,1.26c0,0.72,0.39,1.25,1.05,1.25
				C280.02,861.07,280.42,860.84,280.59,860.55z"/>
			<path class="st12" d="M253.84,869.5l-1.35-3.24h0.55l1.07,2.66l1.08-2.66h0.54l-1.35,3.24H253.84z"/>
			<path class="st12" d="M258.29,869.5v-0.37c-0.26,0.3-0.64,0.45-1.07,0.45c-0.54,0-1.13-0.37-1.13-1.07
				c0-0.73,0.58-1.07,1.13-1.07c0.44,0,0.81,0.14,1.07,0.44v-0.58c0-0.43-0.35-0.68-0.82-0.68c-0.39,0-0.71,0.13-0.99,0.45
				l-0.24-0.35c0.35-0.36,0.77-0.54,1.3-0.54c0.69,0,1.26,0.31,1.26,1.1v2.23H258.29z M258.29,868.82v-0.62
				c-0.19-0.26-0.54-0.4-0.89-0.4c-0.48,0-0.81,0.3-0.81,0.71c0,0.42,0.33,0.71,0.81,0.71C257.75,869.22,258.1,869.09,258.29,868.82
				z"/>
			<path class="st12" d="M259.81,869.5v-4.48h0.5v4.48H259.81z"/>
			<path class="st12" d="M261.24,865.46c0-0.19,0.15-0.34,0.34-0.34c0.19,0,0.34,0.15,0.34,0.34c0,0.19-0.15,0.34-0.34,0.34
				C261.39,865.8,261.24,865.65,261.24,865.46z M261.32,869.5v-3.24h0.5v3.24H261.32z"/>
			<path class="st12" d="M265.19,869.5v-0.48c-0.24,0.33-0.64,0.56-1.09,0.56c-0.85,0-1.44-0.64-1.44-1.7c0-1.04,0.6-1.71,1.44-1.71
				c0.44,0,0.83,0.21,1.09,0.57v-1.73h0.5v4.48H265.19z M265.19,868.62v-1.46c-0.17-0.28-0.57-0.52-0.97-0.52
				c-0.66,0-1.05,0.54-1.05,1.26s0.39,1.25,1.05,1.25C264.61,869.13,265.01,868.9,265.19,868.62z"/>
			<path class="st12" d="M268.73,869.5v-0.37c-0.26,0.3-0.64,0.45-1.07,0.45c-0.54,0-1.13-0.37-1.13-1.07
				c0-0.73,0.58-1.07,1.13-1.07c0.44,0,0.81,0.14,1.07,0.44v-0.58c0-0.43-0.35-0.68-0.82-0.68c-0.39,0-0.71,0.13-0.99,0.45
				l-0.24-0.35c0.35-0.36,0.77-0.54,1.3-0.54c0.69,0,1.26,0.31,1.26,1.1v2.23H268.73z M268.73,868.82v-0.62
				c-0.19-0.26-0.54-0.4-0.89-0.4c-0.48,0-0.81,0.3-0.81,0.71c0,0.42,0.33,0.71,0.81,0.71
				C268.19,869.22,268.53,869.09,268.73,868.82z"/>
			<path class="st12" d="M270.35,868.83v-2.12h-0.54v-0.44h0.54v-0.89h0.51v0.89h0.66v0.44h-0.66v2.01c0,0.24,0.11,0.42,0.32,0.42
				c0.15,0,0.28-0.07,0.34-0.14l0.15,0.38c-0.13,0.12-0.31,0.21-0.6,0.21C270.59,869.59,270.35,869.31,270.35,868.83z"/>
			<path class="st12" d="M272.14,865.46c0-0.19,0.15-0.34,0.34-0.34c0.19,0,0.34,0.15,0.34,0.34c0,0.19-0.15,0.34-0.34,0.34
				C272.29,865.8,272.14,865.65,272.14,865.46z M272.22,869.5v-3.24h0.5v3.24H272.22z"/>
			<path class="st12" d="M273.55,867.88c0-0.94,0.62-1.7,1.6-1.7s1.61,0.76,1.61,1.7c0,0.94-0.62,1.71-1.61,1.71
				S273.55,868.82,273.55,867.88z M276.23,867.88c0-0.66-0.38-1.25-1.07-1.25c-0.69,0-1.07,0.59-1.07,1.25
				c0,0.66,0.38,1.26,1.07,1.26C275.84,869.13,276.23,868.54,276.23,867.88z"/>
			<path class="st12" d="M279.78,869.5v-2.12c0-0.58-0.3-0.75-0.73-0.75c-0.4,0-0.77,0.24-0.96,0.5v2.37h-0.5v-3.24h0.5v0.47
				c0.23-0.28,0.67-0.55,1.16-0.55c0.67,0,1.03,0.34,1.03,1.05v2.28H279.78z"/>
		</g>
	</g>
	<g>
		<g>
			<rect x="161.07" y="837.54" class="st14" width="17.64" height="14.28"/>
			<rect x="157.04" y="834.46" class="st14" width="19.32" height="15.12"/>
			<rect x="154.52" y="831.94" class="st14" width="19.32" height="15.12"/>
		</g>
		<g>
			<path class="st12" d="M156.31,859.16c0-1.38,1.01-2.32,2.3-2.32c0.79,0,1.34,0.38,1.7,0.89l-0.46,0.26
				c-0.26-0.38-0.73-0.65-1.24-0.65c-0.98,0-1.73,0.75-1.73,1.82c0,1.06,0.75,1.82,1.73,1.82c0.51,0,0.98-0.28,1.24-0.65l0.47,0.26
				c-0.38,0.52-0.91,0.89-1.71,0.89C157.32,861.48,156.31,860.54,156.31,859.16z"/>
			<path class="st12" d="M160.82,859.77c0-0.94,0.62-1.7,1.6-1.7c0.99,0,1.61,0.76,1.61,1.7c0,0.94-0.62,1.71-1.61,1.71
				C161.44,861.48,160.82,860.72,160.82,859.77z M163.5,859.77c0-0.66-0.38-1.25-1.07-1.25c-0.69,0-1.07,0.59-1.07,1.25
				c0,0.67,0.38,1.26,1.07,1.26C163.12,861.03,163.5,860.44,163.5,859.77z"/>
			<path class="st12" d="M164.86,861.4v-3.24h0.5v0.52c0.26-0.34,0.64-0.59,1.08-0.59v0.52c-0.06-0.01-0.12-0.01-0.19-0.01
				c-0.32,0-0.74,0.26-0.89,0.52v2.3H164.86z"/>
			<path class="st12" d="M167.58,860.91v1.73h-0.5v-4.48h0.5v0.48c0.24-0.33,0.64-0.56,1.09-0.56c0.85,0,1.44,0.64,1.44,1.7
				c0,1.05-0.59,1.71-1.44,1.71C168.23,861.48,167.84,861.27,167.58,860.91z M169.58,859.77c0-0.72-0.39-1.25-1.04-1.25
				c-0.4,0-0.79,0.23-0.97,0.52v1.46c0.17,0.28,0.57,0.52,0.97,0.52C169.19,861.03,169.58,860.49,169.58,859.77z"/>
			<path class="st12" d="M173.11,861.4v-0.46c-0.25,0.28-0.67,0.54-1.15,0.54c-0.68,0-1.03-0.34-1.03-1.03v-2.29h0.5v2.14
				c0,0.57,0.29,0.74,0.73,0.74c0.39,0,0.77-0.23,0.95-0.49v-2.38h0.5v3.24H173.11z"/>
			<path class="st12" d="M174.34,860.97l0.26-0.36c0.21,0.25,0.62,0.46,1.07,0.46c0.5,0,0.77-0.24,0.77-0.56
				c0-0.79-2.01-0.3-2.01-1.5c0-0.51,0.43-0.93,1.2-0.93c0.56,0,0.95,0.21,1.2,0.47l-0.24,0.35c-0.19-0.24-0.54-0.41-0.97-0.41
				c-0.44,0-0.72,0.22-0.72,0.51c0,0.71,2.01,0.24,2.01,1.5c0,0.54-0.44,0.98-1.27,0.98C175.12,861.48,174.67,861.31,174.34,860.97z
				"/>
		</g>
	</g>
	<g>
		<g>
			<g>
				<g>
					<line class="st12" x1="127.41" y1="826.26" x2="127.41" y2="844.68"/>
				</g>
				<g>
					<g>
						<rect x="126.99" y="826.26" class="st12" width="0.84" height="17.5"/>
					</g>
					<g>
						<g>
							<polygon class="st12" points="123.97,840.98 124.59,840.41 127.41,843.44 130.23,840.41 130.84,840.98 127.41,844.68 							
								"/>
						</g>
					</g>
				</g>
			</g>
			<g>
				<path class="st12" d="M139.59,851.99h-24.36v-16.8h24.36V851.99z M116.07,851.15h22.68v-15.12h-22.68V851.15z"/>
			</g>
		</g>
		<g>
			<path class="st12" d="M112.94,861.49v-4.48h1.53c1.4,0,2.3,0.97,2.3,2.24c0,1.28-0.9,2.24-2.3,2.24H112.94z M116.19,859.26
				c0-0.97-0.61-1.75-1.72-1.75h-0.97V861h0.97C115.56,861,116.19,860.22,116.19,859.26z"/>
			<path class="st12" d="M117.44,859.87c0-0.94,0.62-1.7,1.6-1.7s1.61,0.76,1.61,1.7c0,0.94-0.62,1.71-1.61,1.71
				S117.44,860.81,117.44,859.87z M120.12,859.87c0-0.66-0.38-1.25-1.07-1.25c-0.69,0-1.07,0.59-1.07,1.25
				c0,0.67,0.38,1.26,1.07,1.26C119.74,861.12,120.12,860.53,120.12,859.87z"/>
			<path class="st12" d="M124.28,861.49l-0.85-2.61l-0.85,2.61h-0.5l-1.03-3.24h0.52l0.79,2.59l0.85-2.59h0.44l0.85,2.59l0.79-2.59
				h0.53l-1.03,3.24H124.28z"/>
			<path class="st12" d="M128.6,861.49v-2.12c0-0.58-0.3-0.75-0.73-0.75c-0.4,0-0.77,0.24-0.96,0.5v2.37h-0.5v-3.24h0.5v0.47
				c0.23-0.28,0.67-0.55,1.16-0.55c0.67,0,1.03,0.34,1.03,1.05v2.28H128.6z"/>
			<path class="st12" d="M130.11,861.49v-4.48h0.5v4.48H130.11z"/>
			<path class="st12" d="M131.44,859.87c0-0.94,0.62-1.7,1.6-1.7s1.61,0.76,1.61,1.7c0,0.94-0.62,1.71-1.61,1.71
				S131.44,860.81,131.44,859.87z M134.12,859.87c0-0.66-0.38-1.25-1.07-1.25c-0.69,0-1.07,0.59-1.07,1.25
				c0,0.67,0.38,1.26,1.07,1.26C133.73,861.12,134.12,860.53,134.12,859.87z"/>
			<path class="st12" d="M137.5,861.49v-0.37c-0.26,0.3-0.64,0.45-1.07,0.45c-0.54,0-1.13-0.37-1.13-1.07
				c0-0.73,0.58-1.07,1.13-1.07c0.44,0,0.81,0.14,1.07,0.44v-0.58c0-0.43-0.35-0.68-0.82-0.68c-0.39,0-0.71,0.13-0.99,0.45
				l-0.24-0.35c0.35-0.36,0.77-0.54,1.3-0.54c0.69,0,1.26,0.31,1.26,1.1v2.23H137.5z M137.5,860.81v-0.62
				c-0.19-0.26-0.54-0.4-0.89-0.4c-0.48,0-0.81,0.3-0.81,0.71c0,0.42,0.33,0.71,0.81,0.71C136.96,861.21,137.3,861.08,137.5,860.81z
				"/>
			<path class="st12" d="M141.37,861.49v-0.48c-0.24,0.33-0.64,0.56-1.09,0.56c-0.85,0-1.44-0.64-1.44-1.7
				c0-1.04,0.6-1.71,1.44-1.71c0.44,0,0.83,0.21,1.09,0.57v-1.73h0.5v4.48H141.37z M141.37,860.61v-1.46
				c-0.17-0.28-0.57-0.52-0.97-0.52c-0.66,0-1.05,0.54-1.05,1.26c0,0.72,0.39,1.25,1.05,1.25
				C140.8,861.12,141.19,860.89,141.37,860.61z"/>
		</g>
	</g>
	<g>
		<g>
			<rect x="88.98" y="842.11" class="st12" width="7.56" height="0.84"/>
			<rect x="88.98" y="844.63" class="st12" width="7.56" height="0.84"/>
			<rect x="88.98" y="847.15" class="st12" width="7.56" height="0.84"/>
			<path class="st12" d="M95.87,834.55h-0.47h-9.77v17.64H99.9v-13.91v-0.16L95.87,834.55z M96.03,835.64l2.66,2.31l-2.82,0.42
				L96.03,835.64z M99.06,851.35h-12.6v-15.96h9.11l-0.35,3.7l3.84-0.74V851.35z"/>
		</g>
		<g>
			<path class="st12" d="M81.38,861.7v-4.48h1.53c1.4,0,2.3,0.97,2.3,2.24c0,1.28-0.9,2.24-2.3,2.24H81.38z M84.63,859.46
				c0-0.97-0.61-1.75-1.72-1.75h-0.97v3.49h0.97C84,861.2,84.63,860.42,84.63,859.46z"/>
			<path class="st12" d="M88.09,861.7v-0.37c-0.26,0.3-0.64,0.45-1.07,0.45c-0.54,0-1.13-0.37-1.13-1.07c0-0.73,0.58-1.07,1.13-1.07
				c0.44,0,0.81,0.14,1.07,0.44v-0.58c0-0.43-0.35-0.68-0.82-0.68c-0.39,0-0.71,0.13-0.99,0.45l-0.24-0.35
				c0.35-0.36,0.77-0.54,1.3-0.54c0.69,0,1.26,0.31,1.26,1.1v2.23H88.09z M88.09,861.01v-0.62c-0.19-0.26-0.54-0.4-0.89-0.4
				c-0.48,0-0.81,0.3-0.81,0.71c0,0.42,0.33,0.71,0.81,0.71C87.55,861.41,87.9,861.28,88.09,861.01z"/>
			<path class="st12" d="M89.71,861.02v-2.12h-0.54v-0.44h0.54v-0.89h0.51v0.89h0.66v0.44h-0.66v2.02c0,0.24,0.11,0.42,0.32,0.42
				c0.15,0,0.28-0.07,0.34-0.14l0.15,0.38c-0.13,0.12-0.31,0.21-0.6,0.21C89.95,861.78,89.71,861.5,89.71,861.02z"/>
			<path class="st12" d="M93.61,861.7v-0.37c-0.26,0.3-0.64,0.45-1.07,0.45c-0.54,0-1.13-0.37-1.13-1.07c0-0.73,0.58-1.07,1.13-1.07
				c0.44,0,0.81,0.14,1.07,0.44v-0.58c0-0.43-0.35-0.68-0.82-0.68c-0.39,0-0.71,0.13-0.99,0.45l-0.24-0.35
				c0.35-0.36,0.77-0.54,1.3-0.54c0.69,0,1.26,0.31,1.26,1.1v2.23H93.61z M93.61,861.01v-0.62c-0.19-0.26-0.54-0.4-0.89-0.4
				c-0.48,0-0.81,0.3-0.81,0.71c0,0.42,0.33,0.71,0.81,0.71C93.08,861.41,93.42,861.28,93.61,861.01z"/>
			<path class="st12" d="M94.86,861.27l0.26-0.36c0.21,0.25,0.62,0.46,1.07,0.46c0.5,0,0.77-0.24,0.77-0.56
				c0-0.79-2.01-0.3-2.01-1.5c0-0.51,0.43-0.93,1.2-0.93c0.56,0,0.95,0.21,1.2,0.47l-0.24,0.35c-0.19-0.24-0.54-0.41-0.97-0.41
				c-0.44,0-0.72,0.22-0.72,0.51c0,0.71,2.01,0.24,2.01,1.5c0,0.54-0.44,0.98-1.27,0.98C95.63,861.78,95.19,861.61,94.86,861.27z"/>
			<path class="st12" d="M98.07,860.07c0-0.94,0.67-1.7,1.6-1.7c0.98,0,1.56,0.77,1.56,1.74v0.13h-2.62
				c0.04,0.61,0.46,1.12,1.16,1.12c0.38,0,0.75-0.15,1.01-0.42l0.24,0.33c-0.33,0.32-0.77,0.5-1.29,0.5
				C98.76,861.78,98.07,861.09,98.07,860.07z M99.66,858.79c-0.69,0-1.03,0.58-1.06,1.07h2.13
				C100.72,859.39,100.4,858.79,99.66,858.79z"/>
			<path class="st12" d="M102.14,861.02v-2.12h-0.54v-0.44h0.54v-0.89h0.51v0.89h0.66v0.44h-0.66v2.02c0,0.24,0.11,0.42,0.32,0.42
				c0.15,0,0.28-0.07,0.34-0.14l0.15,0.38c-0.13,0.12-0.31,0.21-0.6,0.21C102.39,861.78,102.14,861.5,102.14,861.02z"/>
		</g>
	</g>
	<g>
		<g>
			<g>
				<path class="st12" d="M64.9,852H54.52l-5.2-9l5.2-9H64.9l5.2,9L64.9,852z M55,851h9.42l4.7-8l-4.7-8H55l-4.7,8L55,851z"/>
			</g>
			<g>
				<path class="st12" d="M63.09,848h-6.75l-3.4-5.5l3.4-5.5h6.75l3.4,5.5L63.09,848z M56.8,847h5.82l2.84-4.5l-2.73-4.5h-5.87
					l-2.85,4.5L56.8,847z"/>
			</g>
		</g>
		<g>
			<path class="st12" d="M53.94,861.42v-3.98h-1.42v-0.5h3.4v0.5h-1.42v3.98H53.94z"/>
			<path class="st12" d="M55.68,859.79c0-0.94,0.62-1.7,1.6-1.7c0.99,0,1.61,0.76,1.61,1.7c0,0.94-0.62,1.71-1.61,1.71
				C56.29,861.5,55.68,860.74,55.68,859.79z M58.36,859.79c0-0.66-0.38-1.25-1.07-1.25c-0.69,0-1.07,0.59-1.07,1.25
				c0,0.67,0.38,1.26,1.07,1.26C57.97,861.05,58.36,860.46,58.36,859.79z"/>
			<path class="st12" d="M59.52,859.79c0-0.94,0.62-1.7,1.6-1.7s1.61,0.76,1.61,1.7c0,0.94-0.62,1.71-1.61,1.71
				S59.52,860.74,59.52,859.79z M62.2,859.79c0-0.66-0.38-1.25-1.07-1.25c-0.69,0-1.07,0.59-1.07,1.25c0,0.67,0.38,1.26,1.07,1.26
				C61.82,861.05,62.2,860.46,62.2,859.79z"/>
			<path class="st12" d="M63.55,861.42v-4.48h0.5v4.48H63.55z"/>
		</g>
	</g>
	<line class="st9" x1="49.35" y1="821.5" x2="281.35" y2="821.5"/>
</g>
</svg>
