<?xml version="1.0" encoding="utf-8"?>
<!-- Generator: Adobe Illustrator 19.0.0, SVG Export Plug-In . SVG Version: 6.00 Build 0)  -->
<svg version="1.1" id="Livello_1" xmlns="http://www.w3.org/2000/svg" xmlns:xlink="http://www.w3.org/1999/xlink" x="0px" y="0px"
	 viewBox="0 0 850 570.21" style="enable-background:new 0 0 850 570.21;" xml:space="preserve">
<style type="text/css">
	.st0{fill:#2D2D2D;}
	.st1{fill:none;}
	.st2{fill:#F6F7F7;}
	.st3{font-family:'ProximaNova-Regular';}
	.st4{font-size:12px;}
	.st5{font-size:14.4px;}
	.st6{fill:#428371;}
	.st7{fill:#63C2A6;}
	.st8{fill:#A2D7C7;}
	.st9{fill:#2D2D2D;stroke:#F6F7F7;stroke-miterlimit:10;}
	.st10{fill:none;stroke:#F6F7F7;stroke-miterlimit:10;}
	.st11{font-family:'ProximaNova-RegularIt';}
	.st12{font-size:10.8px;}
	.st13{fill:#929497;}
	.st14{fill:#2D2D2D;stroke:#929497;stroke-miterlimit:10;}
	.st15{fill:none;stroke:#929497;stroke-miterlimit:10;}
</style>
<rect x="0.16" class="st0" width="849.84" height="570.21"/>
<rect x="40.77" y="45.47" class="st1" width="47.79" height="10.2"/>
<text transform="matrix(1 0 0 1 40.7709 53.4771)" class="st2 st3 st4">SOURCE</text>
<rect x="102.56" y="44.37" class="st1" width="567.47" height="12.4"/>
<text transform="matrix(1 0 0 1 102.5615 53.9781)" class="st2 st3 st5">CORPUS_GS + DATASET_GS + CORPUS_LN + CORPUS_GSE</text>
<rect x="34.77" y="122.17" class="st1" width="76.37" height="14.4"/>
<text transform="matrix(1 0 0 1 34.7709 130.1768)" class="st6 st3 st4">CORPUS_GS</text>
<rect x="34.77" y="158.85" class="st1" width="80.78" height="14.4"/>
<text transform="matrix(1 0 0 1 34.7709 166.8517)" class="st7 st3 st4">CORPUS_LN</text>
<rect x="34.77" y="191.37" class="st1" width="90.76" height="14.4"/>
<text transform="matrix(1 0 0 1 34.7709 199.3779)" class="st8 st3 st4">CORPUS_GSE</text>
<rect x="310.54" y="129.45" class="st1" width="62.47" height="30.82"/>
<text transform="matrix(1 0 0 1 324.0908 137.4552)"><tspan x="0" y="0" class="st2 st3 st4">TEXTS</tspan><tspan x="-12.95" y="13.2" class="st2 st3 st4">2005-2009</tspan></text>
<g>
	<rect x="333.16" y="103.47" class="st9" width="24" height="19.2"/>
	<rect x="329.17" y="99.14" class="st9" width="25.2" height="20.4"/>
	<rect x="325.96" y="97.47" class="st9" width="25.2" height="19.2"/>
</g>
<rect x="310.54" y="208" class="st1" width="62.47" height="30.82"/>
<text transform="matrix(1 0 0 1 324.0908 216.0054)"><tspan x="0" y="0" class="st2 st3 st4">TEXTS</tspan><tspan x="-9.8" y="13.2" class="st2 st3 st4">2010-2015</tspan></text>
<g>
	<rect x="333.16" y="182.01" class="st9" width="24" height="19.2"/>
	<rect x="329.17" y="177.69" class="st9" width="25.2" height="20.4"/>
	<rect x="325.96" y="176.01" class="st9" width="25.2" height="19.2"/>
</g>
<rect x="34.77" y="37.97" class="st10" width="58.8" height="22.8"/>
<polyline class="st10" points="124.98,125.57 141.18,125.57 141.18,199.97 123.78,199.97 "/>
<polyline class="st10" points="300.44,125.57 283.04,125.57 283.04,199.97 300.44,199.97 "/>
<g>
	<g>
		<line class="st10" x1="141.18" y1="162.77" x2="166.16" y2="162.77"/>
		<g>
			<polygon class="st2" points="162.85,166.86 162.17,166.13 165.78,162.77 162.17,159.42 162.85,158.68 167.25,162.77 			"/>
		</g>
	</g>
</g>
<line class="st10" x1="266.84" y1="162.77" x2="282.44" y2="162.77"/>
<polyline class="st10" points="378.62,125.57 396.02,125.57 396.02,199.97 378.62,199.97 "/>
<g>
	<g>
		<line class="st10" x1="424.58" y1="162.77" x2="396.62" y2="162.77"/>
		<g>
			<polygon class="st2" points="421.26,158.68 420.58,159.42 424.19,162.77 420.58,166.13 421.26,166.86 425.66,162.77 			"/>
		</g>
	</g>
</g>
<rect x="572.31" y="388.16" class="st1" width="91.57" height="64.77"/>
<text transform="matrix(1 0 0 1 577.667 396.1632)"><tspan x="0" y="0" class="st2 st11 st4">selection of the </tspan><tspan x="5.66" y="13.2" class="st2 st11 st4">most popular </tspan><tspan x="-4.81" y="26.4" class="st2 st11 st4">authors and links </tspan><tspan x="0.07" y="39.6" class="st2 st11 st4">for each period </tspan><tspan x="-0.83" y="52.8" class="st2 st11 st4">for each corpus </tspan></text>
<g>
	<g>
		<line class="st10" x1="525.69" y1="364.5" x2="571.41" y2="364.5"/>
		<g>
			<polygon class="st2" points="568.1,368.59 567.41,367.86 571.02,364.5 567.41,361.15 568.1,360.41 572.49,364.5 			"/>
		</g>
	</g>
</g>
<g>
	<g>
		<path class="st2" d="M632.49,378.27h-28.8v-28.8h28.8V378.27z M604.89,377.07h26.4v-26.4h-26.4V377.07z"/>
	</g>
	<g>
		<polygon class="st2" points="622.06,364.1 614.75,356.04 615.64,355.23 621.76,361.98 629.97,345.06 631.05,345.59 		"/>
	</g>
</g>
<rect x="175.78" y="154.52" class="st1" width="74.65" height="55"/>
<text transform="matrix(1 0 0 1 190.6753 162.5205)"><tspan x="0" y="0" class="st2 st11 st4">grouped </tspan><tspan x="-14.75" y="13.2" class="st2 st11 st4">in two periods</tspan></text>
<rect x="36.04" y="211.4" class="st1" width="123.26" height="8.46"/>
<text transform="matrix(1 0 0 1 36.0367 219.4)" class="st2 st11 st4">texts</text>
<rect x="450.71" y="385.21" class="st1" width="61.8" height="10.48"/>
<text transform="matrix(1 0 0 1 477.9609 393.2101)" class="st2 st3 st4">R</text>
<rect x="437.87" y="399.73" class="st1" width="87.48" height="67.86"/>
<text transform="matrix(1 0 0 1 438.5458 407.7306)"><tspan x="0" y="0" class="st2 st11 st4">count of authors </tspan><tspan x="11.98" y="13.2" class="st2 st11 st4">and Google </tspan><tspan x="11.02" y="26.4" class="st2 st11 st4">Search links</tspan></text>
<g>
	<g>
		<polygon class="st2" points="471.86,355.88 476.2,353.8 471.86,351.7 471.86,350.59 476.96,353.39 476.96,354.2 471.86,356.98 		
			"/>
	</g>
	<g>
		<path class="st2" d="M471.71,350.34v0.51v0.76v0.19l0.17,0.08l3.97,1.93l-3.97,1.91l-0.17,0.08v0.19v0.76v0.51l0.44-0.24l4.8-2.62
			l0.16-0.09v-0.18v-0.64v-0.18l-0.16-0.09l-4.8-2.63L471.71,350.34L471.71,350.34z"/>
	</g>
</g>
<g>
	<path class="st2" d="M476.81,358.41L476.81,358.41h7.2l0,0H476.81z"/>
	<rect x="476.81" y="357.81" class="st2" width="7.2" height="1.2"/>
</g>
<g>
	<path class="st2" d="M496.01,375.21h-28.8v-28.8h28.8V375.21z M468.41,374.01h26.4v-26.4h-26.4V374.01z"/>
</g>
<rect x="754.39" y="289.69" class="st1" width="69.34" height="7.83"/>
<text transform="matrix(1 0 0 1 755.0752 296.8922)" class="st2 st3 st12">ILLUSTRATOR</text>
<g>
	<polyline class="st10" points="773.45,246.89 798.62,259.85 771.96,268.1 789.57,245.76 794.09,277.71 782.73,275.17 	"/>
	<circle class="st9" cx="790.87" cy="244.21" r="2.47"/>
	<circle class="st9" cx="798.9" cy="259.61" r="2.47"/>
	<polyline class="st10" points="770.77,267.65 773.45,246.89 782.83,275.02 	"/>
	<circle class="st9" cx="773.45" cy="246.89" r="2.47"/>
	<circle class="st9" cx="770.77" cy="267.65" r="2.47"/>
	<circle class="st9" cx="782.83" cy="275.02" r="2.47"/>
	<circle class="st9" cx="794.89" cy="277.7" r="2.47"/>
</g>
<rect x="441.14" y="187.71" class="st1" width="61.8" height="8.74"/>
<text transform="matrix(1 0 0 1 450.4888 195.7095)" class="st2 st3 st4">MALLET</text>
<rect x="429.34" y="202.49" class="st1" width="84.2" height="47.7"/>
<text transform="matrix(1 0 0 1 438.4234 210.4912)"><tspan x="0" y="0" class="st2 st11 st4">extraction of </tspan><tspan x="2.76" y="13.2" class="st2 st11 st4">main topics </tspan><tspan x="-7.34" y="26.4" class="st2 st11 st4">for each period </tspan><tspan x="-8.24" y="39.6" class="st2 st11 st4">for each corpus</tspan></text>
<polygon class="st10" points="463.31,177.11 455.18,163.31 463.31,149.51 479.57,149.51 487.7,163.31 479.57,177.11 "/>
<polygon class="st10" points="466.28,171.59 461.11,163.31 466.28,155.03 476.6,155.03 481.76,163.31 476.6,171.59 "/>
<rect x="34.77" y="324.21" class="st1" width="76.37" height="14.4"/>
<text transform="matrix(1 0 0 1 34.7709 332.2159)" class="st6 st3 st4">DATASET_GS</text>
<rect x="34.77" y="360.89" class="st1" width="80.78" height="14.4"/>
<text transform="matrix(1 0 0 1 34.7709 368.8907)" class="st7 st3 st4">CORPUS_LN</text>
<rect x="34.77" y="393.41" class="st1" width="90.76" height="14.4"/>
<text transform="matrix(1 0 0 1 34.7709 401.417)" class="st8 st3 st4">CORPUS_GSE</text>
<rect x="305.38" y="331.49" class="st1" width="91.56" height="30.82"/>
<text transform="matrix(1 0 0 1 306.0151 339.4942)"><tspan x="0" y="0" class="st2 st3 st4">AUTHORS/LINKS</tspan><tspan x="14.51" y="13.2" class="st2 st3 st4">2005-2009</tspan></text>
<rect x="305.38" y="410.04" class="st1" width="91.56" height="30.82"/>
<text transform="matrix(1 0 0 1 306.0151 418.0431)"><tspan x="0" y="0" class="st2 st3 st4">AUTHORS/LINKS</tspan><tspan x="17.66" y="13.2" class="st2 st3 st4">2010-2015</tspan></text>
<polyline class="st10" points="124.98,327.61 141.18,327.61 141.18,402.01 123.78,402.01 "/>
<polyline class="st10" points="300.44,327.61 283.04,327.61 283.04,402.01 300.44,402.01 "/>
<g>
	<g>
		<line class="st10" x1="141.18" y1="364.81" x2="166.16" y2="364.81"/>
		<g>
			<polygon class="st2" points="162.85,368.9 162.17,368.17 165.78,364.81 162.17,361.46 162.85,360.72 167.25,364.81 			"/>
		</g>
	</g>
</g>
<polyline class="st10" points="513.35,162.77 690.55,162.77 690.55,364.81 673.15,364.81 "/>
<g>
	<g>
		<line class="st10" x1="690.55" y1="263.79" x2="738.07" y2="263.79"/>
		<g>
			<polygon class="st2" points="734.76,267.88 734.07,267.15 737.68,263.79 734.07,260.44 734.76,259.7 739.15,263.79 			"/>
		</g>
	</g>
</g>
<line class="st10" x1="266.84" y1="364.81" x2="282.44" y2="364.81"/>
<polyline class="st10" points="401.53,327.61 418.93,327.61 418.93,402.01 401.53,402.01 "/>
<g>
	<g>
		<line class="st10" x1="447.48" y1="364.81" x2="419.53" y2="364.81"/>
		<g>
			<polygon class="st2" points="444.17,360.72 443.48,361.45 447.1,364.81 443.48,368.17 444.17,368.9 448.56,364.81 			"/>
		</g>
	</g>
</g>
<rect x="175.78" y="356.47" class="st1" width="74.65" height="55"/>
<text transform="matrix(1 0 0 1 190.6753 364.4746)"><tspan x="0" y="0" class="st2 st11 st4">grouped </tspan><tspan x="-14.75" y="13.2" class="st2 st11 st4">in two periods</tspan></text>
<rect x="36.04" y="413.43" class="st1" width="123.26" height="8.46"/>
<text transform="matrix(1 0 0 1 36.0367 421.4395)" class="st2 st11 st4">authors + links</text>
<g>
	<rect x="347.34" y="310.76" class="st2" width="10.8" height="1.2"/>
	<rect x="347.34" y="314.36" class="st2" width="10.8" height="1.2"/>
	<rect x="347.34" y="317.96" class="st2" width="10.8" height="1.2"/>
	<path class="st2" d="M357.18,299.96h-0.68h-13.96v25.2h20.4v-19.87v-0.24L357.18,299.96z M357.41,301.52l3.79,3.3l-4.03,0.6
		L357.41,301.52z M361.74,323.96h-18v-22.8h13.01l-0.5,5.29l5.48-1.06V323.96z"/>
</g>
<g>
	<rect x="347.34" y="389.31" class="st2" width="10.8" height="1.2"/>
	<rect x="347.34" y="392.91" class="st2" width="10.8" height="1.2"/>
	<rect x="347.34" y="396.51" class="st2" width="10.8" height="1.2"/>
	<path class="st2" d="M357.18,378.51h-0.68h-13.96v25.2h20.4v-19.87v-0.24L357.18,378.51z M357.41,380.06l3.79,3.3l-4.03,0.6
		L357.41,380.06z M361.74,402.51h-18v-22.8h13.01l-0.5,5.29l5.48-1.06V402.51z"/>
</g>
<g>
	<g>
		<g>
			<path class="st13" d="M184.14,513.8v-0.53l3.17-1.52l-3.17-1.54v-0.53l3.71,1.84v0.45L184.14,513.8z"/>
			<path class="st13" d="M188.07,515.35v-0.46h4.79v0.46H188.07z"/>
			<g>
				<path class="st13" d="M201.18,526.8h-20.33v-20.33h20.33V526.8z M181.69,525.96h18.65v-18.65h-18.65V525.96z"/>
			</g>
		</g>
		<g>
			<path class="st13" d="M182.75,535.75l0.34-0.43c0.29,0.34,0.77,0.64,1.4,0.64c0.8,0,1.05-0.43,1.05-0.78
				c0-1.15-2.65-0.51-2.65-2.11c0-0.74,0.66-1.25,1.54-1.25c0.68,0,1.21,0.24,1.59,0.63l-0.34,0.41c-0.34-0.38-0.81-0.54-1.3-0.54
				c-0.53,0-0.92,0.29-0.92,0.71c0,1.01,2.65,0.43,2.65,2.1c0,0.64-0.44,1.32-1.65,1.32C183.7,536.47,183.12,536.17,182.75,535.75z"
				/>
			<path class="st13" d="M186.75,534.76c0-0.96,0.65-1.7,1.62-1.7c0.59,0,0.94,0.24,1.19,0.56l-0.34,0.3
				c-0.21-0.3-0.49-0.42-0.83-0.42c-0.69,0-1.12,0.53-1.12,1.25c0,0.72,0.44,1.26,1.12,1.26c0.34,0,0.61-0.13,0.83-0.42l0.34,0.31
				c-0.25,0.32-0.6,0.56-1.19,0.56C187.4,536.47,186.75,535.72,186.75,534.76z"/>
			<path class="st13" d="M190.27,536.39v-3.24h0.5v0.52c0.26-0.34,0.64-0.59,1.08-0.59v0.52c-0.06-0.01-0.12-0.01-0.19-0.01
				c-0.32,0-0.74,0.26-0.89,0.52v2.3H190.27z"/>
			<path class="st13" d="M192.4,532.34c0-0.19,0.15-0.34,0.34-0.34c0.19,0,0.34,0.15,0.34,0.34c0,0.19-0.15,0.34-0.34,0.34
				C192.56,532.68,192.4,532.53,192.4,532.34z M192.49,536.39v-3.24h0.5v3.24H192.49z"/>
			<path class="st13" d="M194.51,535.9v1.73H194v-4.48h0.5v0.48c0.24-0.33,0.64-0.56,1.09-0.56c0.85,0,1.44,0.64,1.44,1.7
				c0,1.05-0.59,1.71-1.44,1.71C195.16,536.47,194.78,536.25,194.51,535.9z M196.51,534.76c0-0.72-0.39-1.25-1.04-1.25
				c-0.4,0-0.79,0.24-0.97,0.52v1.46c0.17,0.28,0.57,0.52,0.97,0.52C196.13,536.02,196.51,535.48,196.51,534.76z"/>
			<path class="st13" d="M197.95,535.71v-2.12h-0.54v-0.44h0.54v-0.89h0.51v0.89h0.66v0.44h-0.66v2.02c0,0.24,0.11,0.42,0.32,0.42
				c0.15,0,0.28-0.07,0.34-0.14l0.15,0.38c-0.13,0.12-0.31,0.21-0.6,0.21C198.19,536.47,197.95,536.19,197.95,535.71z"/>
		</g>
	</g>
	<g>
		<g>
			<g>
				<polygon class="st13" points="229.16,525 216.16,525 216.16,507 217.16,507 217.16,524 228.16,524 228.16,507 229.16,507 				
					"/>
			</g>
			<g>
				<path class="st13" d="M222.67,512.52c-1.47,0-2.66-1.19-2.66-2.66c0-1.47,1.19-2.66,2.66-2.66s2.66,1.19,2.66,2.66
					C225.33,511.33,224.14,512.52,222.67,512.52z M222.67,508.04c-1,0-1.82,0.82-1.82,1.82c0,1,0.82,1.82,1.82,1.82
					s1.82-0.82,1.82-1.82C224.49,508.86,223.68,508.04,222.67,508.04z"/>
			</g>
			<g>
				<polygon class="st13" points="216.89,507.56 216.16,507 222.65,502.02 229.16,507 228.34,507.56 222.64,503.09 				"/>
			</g>
		</g>
		<g>
			<path class="st13" d="M219.22,534.92v-3.98h-1.42v-0.5h3.4v0.5h-1.42v3.98H219.22z"/>
			<path class="st13" d="M223.31,534.92v-0.37c-0.26,0.3-0.64,0.45-1.07,0.45c-0.54,0-1.13-0.37-1.13-1.07
				c0-0.73,0.58-1.07,1.13-1.07c0.44,0,0.81,0.14,1.07,0.44v-0.58c0-0.43-0.35-0.68-0.82-0.68c-0.39,0-0.71,0.13-0.99,0.45
				l-0.24-0.35c0.35-0.36,0.77-0.54,1.3-0.54c0.69,0,1.26,0.31,1.26,1.1v2.23H223.31z M223.31,534.23v-0.62
				c-0.19-0.26-0.54-0.4-0.89-0.4c-0.48,0-0.81,0.3-0.81,0.71c0,0.42,0.33,0.71,0.81,0.71C222.77,534.64,223.11,534.5,223.31,534.23
				z"/>
			<path class="st13" d="M224.82,535.74l0.26-0.36c0.27,0.32,0.59,0.44,1.05,0.44c0.54,0,1.05-0.26,1.05-0.95v-0.49
				c-0.24,0.33-0.64,0.58-1.09,0.58c-0.85,0-1.44-0.63-1.44-1.68c0-1.04,0.59-1.69,1.44-1.69c0.44,0,0.83,0.21,1.09,0.57v-0.49h0.5
				v3.2c0,1.03-0.76,1.36-1.55,1.36C225.59,536.23,225.21,536.13,224.82,535.74z M227.18,533.98v-1.42
				c-0.18-0.28-0.57-0.52-0.97-0.52c-0.66,0-1.05,0.52-1.05,1.24c0,0.71,0.39,1.23,1.05,1.23
				C226.61,534.51,227,534.27,227.18,533.98z"/>
		</g>
	</g>
	<g>
		<g>
			<g>
				<path class="st13" d="M263.84,526.2h-20.16v-20.16h20.16V526.2z M244.52,525.36H263v-18.48h-18.48V525.36z"/>
			</g>
			<g>
				<polygon class="st13" points="256.53,516.28 251.42,510.63 252.04,510.07 256.32,514.79 262.07,502.95 262.83,503.32 				"/>
			</g>
		</g>
		<g>
			<path class="st13" d="M239.2,533.54c0-1.38,1.01-2.32,2.3-2.32c0.79,0,1.34,0.38,1.7,0.89l-0.46,0.26
				c-0.26-0.38-0.73-0.65-1.24-0.65c-0.98,0-1.73,0.75-1.73,1.82c0,1.06,0.75,1.82,1.73,1.82c0.51,0,0.98-0.28,1.24-0.65l0.47,0.26
				c-0.38,0.52-0.91,0.89-1.71,0.89C240.22,535.86,239.2,534.92,239.2,533.54z"/>
			<path class="st13" d="M243.91,535.78v-4.48h0.5v4.48H243.91z"/>
			<path class="st13" d="M245.23,534.15c0-0.94,0.67-1.7,1.6-1.7c0.98,0,1.56,0.77,1.56,1.74v0.13h-2.62
				c0.04,0.61,0.46,1.12,1.16,1.12c0.38,0,0.75-0.15,1.01-0.42l0.24,0.33c-0.33,0.32-0.77,0.5-1.29,0.5
				C245.92,535.86,245.23,535.17,245.23,534.15z M246.82,532.87c-0.69,0-1.03,0.58-1.06,1.07h2.13
				C247.88,533.47,247.56,532.87,246.82,532.87z"/>
			<path class="st13" d="M251.23,535.78v-0.37c-0.26,0.3-0.64,0.45-1.07,0.45c-0.54,0-1.13-0.37-1.13-1.07
				c0-0.73,0.58-1.07,1.13-1.07c0.44,0,0.81,0.14,1.07,0.44v-0.58c0-0.43-0.35-0.68-0.82-0.68c-0.39,0-0.71,0.13-0.99,0.45
				l-0.24-0.35c0.35-0.36,0.77-0.54,1.3-0.54c0.69,0,1.26,0.31,1.26,1.1v2.23H251.23z M251.23,535.09v-0.62
				c-0.19-0.26-0.54-0.4-0.89-0.4c-0.48,0-0.81,0.3-0.81,0.71c0,0.42,0.33,0.71,0.81,0.71
				C250.69,535.49,251.04,535.36,251.23,535.09z"/>
			<path class="st13" d="M254.95,535.78v-2.12c0-0.58-0.3-0.75-0.73-0.75c-0.4,0-0.77,0.24-0.96,0.5v2.37h-0.5v-3.24h0.5V533
				c0.23-0.28,0.67-0.55,1.16-0.55c0.67,0,1.03,0.34,1.03,1.05v2.28H254.95z"/>
			<path class="st13" d="M260.23,535.78v-0.37c-0.26,0.3-0.64,0.45-1.07,0.45c-0.54,0-1.13-0.37-1.13-1.07
				c0-0.73,0.58-1.07,1.13-1.07c0.44,0,0.81,0.14,1.07,0.44v-0.58c0-0.43-0.35-0.68-0.82-0.68c-0.39,0-0.71,0.13-0.99,0.45
				l-0.24-0.35c0.35-0.36,0.77-0.54,1.3-0.54c0.69,0,1.26,0.31,1.26,1.1v2.23H260.23z M260.23,535.09v-0.62
				c-0.19-0.26-0.54-0.4-0.89-0.4c-0.48,0-0.81,0.3-0.81,0.71c0,0.42,0.33,0.71,0.81,0.71
				C259.69,535.49,260.03,535.36,260.23,535.09z"/>
			<path class="st13" d="M263.94,535.78v-2.12c0-0.58-0.3-0.75-0.73-0.75c-0.4,0-0.77,0.24-0.96,0.5v2.37h-0.5v-3.24h0.5V533
				c0.23-0.28,0.67-0.55,1.16-0.55c0.67,0,1.03,0.34,1.03,1.05v2.28H263.94z"/>
			<path class="st13" d="M267.81,535.78v-0.48c-0.24,0.33-0.64,0.56-1.09,0.56c-0.85,0-1.44-0.64-1.44-1.7
				c0-1.04,0.6-1.71,1.44-1.71c0.44,0,0.83,0.21,1.09,0.57v-1.73h0.5v4.48H267.81z M267.81,534.89v-1.46
				c-0.17-0.28-0.57-0.52-0.97-0.52c-0.66,0-1.05,0.54-1.05,1.26c0,0.72,0.39,1.25,1.05,1.25
				C267.24,535.41,267.63,535.17,267.81,534.89z"/>
			<path class="st13" d="M241.05,543.84l-1.35-3.24h0.55l1.07,2.66l1.08-2.66h0.54l-1.35,3.24H241.05z"/>
			<path class="st13" d="M245.5,543.84v-0.37c-0.26,0.3-0.64,0.45-1.07,0.45c-0.54,0-1.13-0.37-1.13-1.07
				c0-0.73,0.58-1.07,1.13-1.07c0.44,0,0.81,0.14,1.07,0.44v-0.58c0-0.43-0.35-0.68-0.82-0.68c-0.39,0-0.71,0.13-0.99,0.45
				l-0.24-0.35c0.35-0.36,0.77-0.54,1.3-0.54c0.69,0,1.26,0.31,1.26,1.1v2.23H245.5z M245.5,543.16v-0.62
				c-0.19-0.26-0.54-0.4-0.89-0.4c-0.48,0-0.81,0.3-0.81,0.71c0,0.42,0.33,0.71,0.81,0.71C244.97,543.56,245.31,543.42,245.5,543.16
				z"/>
			<path class="st13" d="M247.02,543.84v-4.48h0.5v4.48H247.02z"/>
			<path class="st13" d="M248.45,539.8c0-0.19,0.15-0.34,0.34-0.34c0.19,0,0.34,0.15,0.34,0.34c0,0.19-0.15,0.34-0.34,0.34
				C248.6,540.13,248.45,539.99,248.45,539.8z M248.54,543.84v-3.24h0.5v3.24H248.54z"/>
			<path class="st13" d="M252.4,543.84v-0.48c-0.24,0.33-0.64,0.56-1.09,0.56c-0.85,0-1.44-0.64-1.44-1.7c0-1.04,0.6-1.71,1.44-1.71
				c0.44,0,0.83,0.21,1.09,0.57v-1.73h0.5v4.48H252.4z M252.4,542.95v-1.46c-0.17-0.28-0.57-0.52-0.97-0.52
				c-0.66,0-1.05,0.54-1.05,1.26c0,0.72,0.39,1.25,1.05,1.25C251.83,543.47,252.22,543.24,252.4,542.95z"/>
			<path class="st13" d="M255.94,543.84v-0.37c-0.26,0.3-0.64,0.45-1.07,0.45c-0.54,0-1.13-0.37-1.13-1.07
				c0-0.73,0.58-1.07,1.13-1.07c0.44,0,0.81,0.14,1.07,0.44v-0.58c0-0.43-0.35-0.68-0.82-0.68c-0.39,0-0.71,0.13-0.99,0.45
				l-0.24-0.35c0.35-0.36,0.77-0.54,1.3-0.54c0.69,0,1.26,0.31,1.26,1.1v2.23H255.94z M255.94,543.16v-0.62
				c-0.19-0.26-0.54-0.4-0.89-0.4c-0.48,0-0.81,0.3-0.81,0.71c0,0.42,0.33,0.71,0.81,0.71C255.4,543.56,255.75,543.42,255.94,543.16
				z"/>
			<path class="st13" d="M257.56,543.16v-2.12h-0.54v-0.44h0.54v-0.89h0.51v0.89h0.66v0.44h-0.66v2.01c0,0.24,0.11,0.42,0.32,0.42
				c0.15,0,0.28-0.07,0.34-0.14l0.15,0.38c-0.13,0.12-0.31,0.21-0.6,0.21C257.8,543.92,257.56,543.65,257.56,543.16z"/>
			<path class="st13" d="M259.35,539.8c0-0.19,0.15-0.34,0.34-0.34c0.19,0,0.34,0.15,0.34,0.34c0,0.19-0.15,0.34-0.34,0.34
				C259.5,540.13,259.35,539.99,259.35,539.8z M259.44,543.84v-3.24h0.5v3.24H259.44z"/>
			<path class="st13" d="M260.76,542.22c0-0.94,0.62-1.7,1.6-1.7s1.61,0.76,1.61,1.7c0,0.94-0.62,1.71-1.61,1.71
				S260.76,543.16,260.76,542.22z M263.44,542.22c0-0.66-0.38-1.25-1.07-1.25c-0.69,0-1.07,0.59-1.07,1.25
				c0,0.66,0.38,1.26,1.07,1.26C263.06,543.47,263.44,542.88,263.44,542.22z"/>
			<path class="st13" d="M266.99,543.84v-2.12c0-0.58-0.3-0.75-0.73-0.75c-0.4,0-0.77,0.24-0.96,0.5v2.37h-0.5v-3.24h0.5v0.47
				c0.23-0.28,0.67-0.55,1.16-0.55c0.67,0,1.03,0.34,1.03,1.05v2.28H266.99z"/>
		</g>
	</g>
	<g>
		<g>
			<rect x="148.29" y="511.88" class="st14" width="17.64" height="14.28"/>
			<rect x="144.25" y="508.8" class="st14" width="19.32" height="15.12"/>
			<rect x="141.73" y="506.28" class="st14" width="19.32" height="15.12"/>
		</g>
		<g>
			<path class="st13" d="M143.52,533.5c0-1.38,1.01-2.32,2.3-2.32c0.79,0,1.34,0.38,1.7,0.89l-0.46,0.26
				c-0.26-0.38-0.73-0.65-1.24-0.65c-0.98,0-1.73,0.75-1.73,1.82c0,1.06,0.75,1.82,1.73,1.82c0.51,0,0.98-0.28,1.24-0.65l0.47,0.26
				c-0.38,0.52-0.91,0.89-1.71,0.89C144.54,535.82,143.52,534.88,143.52,533.5z"/>
			<path class="st13" d="M148.04,534.11c0-0.94,0.62-1.7,1.6-1.7c0.99,0,1.61,0.76,1.61,1.7c0,0.94-0.62,1.71-1.61,1.71
				C148.65,535.82,148.04,535.05,148.04,534.11z M150.72,534.11c0-0.66-0.38-1.25-1.07-1.25c-0.69,0-1.07,0.59-1.07,1.25
				c0,0.67,0.38,1.26,1.07,1.26C150.33,535.37,150.72,534.78,150.72,534.11z"/>
			<path class="st13" d="M152.07,535.74v-3.24h0.5v0.52c0.26-0.34,0.64-0.59,1.08-0.59v0.52c-0.06-0.01-0.12-0.01-0.19-0.01
				c-0.32,0-0.74,0.26-0.89,0.52v2.3H152.07z"/>
			<path class="st13" d="M154.79,535.25v1.73h-0.5v-4.48h0.5v0.48c0.24-0.33,0.64-0.56,1.09-0.56c0.85,0,1.44,0.64,1.44,1.7
				c0,1.05-0.59,1.71-1.44,1.71C155.44,535.82,155.06,535.6,154.79,535.25z M156.8,534.11c0-0.72-0.39-1.25-1.04-1.25
				c-0.4,0-0.79,0.23-0.97,0.52v1.46c0.17,0.28,0.57,0.52,0.97,0.52C156.41,535.37,156.8,534.83,156.8,534.11z"/>
			<path class="st13" d="M160.32,535.74v-0.46c-0.25,0.28-0.67,0.54-1.16,0.54c-0.68,0-1.03-0.34-1.03-1.03v-2.29h0.5v2.14
				c0,0.57,0.29,0.74,0.73,0.74c0.39,0,0.77-0.23,0.95-0.49v-2.38h0.5v3.24H160.32z"/>
			<path class="st13" d="M161.56,535.31l0.26-0.36c0.21,0.25,0.62,0.46,1.07,0.46c0.5,0,0.77-0.24,0.77-0.56
				c0-0.79-2.01-0.3-2.01-1.5c0-0.51,0.43-0.93,1.2-0.93c0.56,0,0.95,0.21,1.2,0.47l-0.24,0.35c-0.19-0.24-0.54-0.41-0.97-0.41
				c-0.44,0-0.72,0.22-0.72,0.51c0,0.71,2.01,0.24,2.01,1.5c0,0.54-0.44,0.98-1.27,0.98C162.33,535.82,161.89,535.65,161.56,535.31z
				"/>
		</g>
	</g>
	<g>
		<g>
			<g>
				<g>
					<line class="st13" x1="114.62" y1="500.6" x2="114.62" y2="519.01"/>
				</g>
				<g>
					<g>
						<rect x="114.2" y="500.6" class="st13" width="0.84" height="17.5"/>
					</g>
					<g>
						<g>
							<polygon class="st13" points="111.19,515.32 111.8,514.75 114.62,517.78 117.44,514.75 118.06,515.32 114.62,519.01 							
								"/>
						</g>
					</g>
				</g>
			</g>
			<g>
				<path class="st13" d="M126.8,526.32h-24.36v-16.8h24.36V526.32z M103.28,525.48h22.68v-15.12h-22.68V525.48z"/>
			</g>
		</g>
		<g>
			<path class="st13" d="M100.16,535.83v-4.48h1.53c1.4,0,2.3,0.97,2.3,2.24c0,1.28-0.9,2.24-2.3,2.24H100.16z M103.41,533.59
				c0-0.97-0.61-1.75-1.72-1.75h-0.97v3.49h0.97C102.78,535.33,103.41,534.55,103.41,533.59z"/>
			<path class="st13" d="M104.65,534.21c0-0.94,0.62-1.7,1.6-1.7c0.99,0,1.61,0.76,1.61,1.7c0,0.94-0.62,1.71-1.61,1.71
				C105.27,535.91,104.65,535.15,104.65,534.21z M107.33,534.21c0-0.66-0.38-1.25-1.07-1.25c-0.69,0-1.07,0.59-1.07,1.25
				c0,0.67,0.38,1.26,1.07,1.26C106.95,535.46,107.33,534.87,107.33,534.21z"/>
			<path class="st13" d="M111.49,535.83l-0.85-2.61l-0.85,2.61h-0.5l-1.03-3.24h0.52l0.79,2.59l0.85-2.59h0.44l0.85,2.59l0.79-2.59
				h0.53l-1.03,3.24H111.49z"/>
			<path class="st13" d="M115.81,535.83v-2.12c0-0.58-0.3-0.75-0.73-0.75c-0.4,0-0.77,0.24-0.96,0.5v2.37h-0.5v-3.24h0.5v0.47
				c0.23-0.28,0.67-0.55,1.16-0.55c0.67,0,1.03,0.34,1.03,1.05v2.28H115.81z"/>
			<path class="st13" d="M117.33,535.83v-4.48h0.5v4.48H117.33z"/>
			<path class="st13" d="M118.65,534.21c0-0.94,0.62-1.7,1.6-1.7c0.99,0,1.61,0.76,1.61,1.7c0,0.94-0.62,1.71-1.61,1.71
				C119.27,535.91,118.65,535.15,118.65,534.21z M121.33,534.21c0-0.66-0.38-1.25-1.07-1.25c-0.69,0-1.07,0.59-1.07,1.25
				c0,0.67,0.38,1.26,1.07,1.26C120.95,535.46,121.33,534.87,121.33,534.21z"/>
			<path class="st13" d="M124.71,535.83v-0.37c-0.26,0.3-0.64,0.45-1.07,0.45c-0.54,0-1.13-0.37-1.13-1.07
				c0-0.73,0.58-1.07,1.13-1.07c0.44,0,0.81,0.14,1.07,0.44v-0.58c0-0.43-0.35-0.68-0.82-0.68c-0.39,0-0.71,0.13-0.99,0.45
				l-0.24-0.35c0.35-0.36,0.77-0.54,1.3-0.54c0.69,0,1.26,0.31,1.26,1.1v2.23H124.71z M124.71,535.15v-0.62
				c-0.19-0.26-0.54-0.4-0.89-0.4c-0.48,0-0.81,0.3-0.81,0.71c0,0.42,0.33,0.71,0.81,0.71
				C124.17,535.55,124.52,535.41,124.71,535.15z"/>
			<path class="st13" d="M128.58,535.83v-0.48c-0.24,0.33-0.64,0.56-1.09,0.56c-0.85,0-1.44-0.64-1.44-1.7
				c0-1.04,0.6-1.71,1.44-1.71c0.44,0,0.83,0.21,1.09,0.57v-1.73h0.5v4.48H128.58z M128.58,534.94v-1.46
				c-0.17-0.28-0.57-0.52-0.97-0.52c-0.66,0-1.05,0.54-1.05,1.26c0,0.72,0.39,1.25,1.05,1.25
				C128.01,535.46,128.41,535.23,128.58,534.94z"/>
		</g>
	</g>
	<g>
		<g>
			<rect x="76.2" y="516.45" class="st13" width="7.56" height="0.84"/>
			<rect x="76.2" y="518.97" class="st13" width="7.56" height="0.84"/>
			<rect x="76.2" y="521.49" class="st13" width="7.56" height="0.84"/>
			<path class="st13" d="M83.08,508.89h-0.47h-9.77v17.64h14.28v-13.91v-0.16L83.08,508.89z M83.24,509.97l2.66,2.31l-2.82,0.42
				L83.24,509.97z M86.28,525.69h-12.6v-15.96h9.11l-0.35,3.7l3.84-0.74V525.69z"/>
		</g>
		<g>
			<path class="st13" d="M68.59,536.03v-4.48h1.53c1.4,0,2.3,0.97,2.3,2.24c0,1.28-0.9,2.24-2.3,2.24H68.59z M71.84,533.8
				c0-0.97-0.61-1.75-1.72-1.75h-0.97v3.49h0.97C71.21,535.54,71.84,534.76,71.84,533.8z"/>
			<path class="st13" d="M75.3,536.03v-0.37c-0.26,0.3-0.64,0.45-1.07,0.45c-0.54,0-1.13-0.37-1.13-1.07c0-0.73,0.58-1.07,1.13-1.07
				c0.44,0,0.81,0.14,1.07,0.44v-0.58c0-0.43-0.35-0.68-0.82-0.68c-0.39,0-0.71,0.13-0.99,0.45l-0.24-0.35
				c0.35-0.36,0.77-0.54,1.3-0.54c0.69,0,1.26,0.31,1.26,1.1v2.23H75.3z M75.3,535.35v-0.62c-0.19-0.26-0.54-0.4-0.89-0.4
				c-0.48,0-0.81,0.3-0.81,0.71c0,0.42,0.33,0.71,0.81,0.71C74.77,535.75,75.11,535.62,75.3,535.35z"/>
			<path class="st13" d="M76.92,535.35v-2.12h-0.54v-0.44h0.54v-0.89h0.51v0.89h0.66v0.44h-0.66v2.02c0,0.24,0.11,0.42,0.32,0.42
				c0.15,0,0.28-0.07,0.34-0.14l0.15,0.38c-0.13,0.12-0.31,0.21-0.6,0.21C77.17,536.11,76.92,535.84,76.92,535.35z"/>
			<path class="st13" d="M80.83,536.03v-0.37c-0.26,0.3-0.64,0.45-1.07,0.45c-0.54,0-1.13-0.37-1.13-1.07
				c0-0.73,0.58-1.07,1.13-1.07c0.44,0,0.81,0.14,1.07,0.44v-0.58c0-0.43-0.35-0.68-0.82-0.68c-0.39,0-0.71,0.13-0.99,0.45
				l-0.24-0.35c0.35-0.36,0.77-0.54,1.3-0.54c0.69,0,1.26,0.31,1.26,1.1v2.23H80.83z M80.83,535.35v-0.62
				c-0.19-0.26-0.54-0.4-0.89-0.4c-0.48,0-0.81,0.3-0.81,0.71c0,0.42,0.33,0.71,0.81,0.71C80.29,535.75,80.63,535.62,80.83,535.35z"
				/>
			<path class="st13" d="M82.07,535.6l0.26-0.36c0.21,0.25,0.62,0.46,1.07,0.46c0.5,0,0.77-0.24,0.77-0.56c0-0.79-2.01-0.3-2.01-1.5
				c0-0.51,0.43-0.93,1.2-0.93c0.56,0,0.95,0.21,1.2,0.47l-0.24,0.35c-0.19-0.24-0.54-0.41-0.97-0.41c-0.44,0-0.72,0.22-0.72,0.51
				c0,0.71,2.01,0.24,2.01,1.5c0,0.54-0.44,0.98-1.27,0.98C82.85,536.11,82.4,535.95,82.07,535.6z"/>
			<path class="st13" d="M85.29,534.41c0-0.94,0.67-1.7,1.6-1.7c0.98,0,1.56,0.77,1.56,1.74v0.13h-2.62
				c0.04,0.61,0.46,1.12,1.16,1.12c0.38,0,0.75-0.15,1.01-0.42l0.24,0.33c-0.33,0.32-0.77,0.5-1.29,0.5
				C85.98,536.11,85.29,535.42,85.29,534.41z M86.88,533.12c-0.69,0-1.03,0.58-1.06,1.07h2.13
				C87.94,533.72,87.62,533.12,86.88,533.12z"/>
			<path class="st13" d="M89.36,535.35v-2.12h-0.54v-0.44h0.54v-0.89h0.51v0.89h0.66v0.44h-0.66v2.02c0,0.24,0.11,0.42,0.32,0.42
				c0.15,0,0.28-0.07,0.34-0.14l0.15,0.38c-0.13,0.12-0.31,0.21-0.6,0.21C89.6,536.11,89.36,535.84,89.36,535.35z"/>
		</g>
	</g>
	<g>
		<g>
			<g>
				<path class="st13" d="M52.11,526H41.73l-5.2-9l5.2-9h10.38l5.2,9L52.11,526z M42.21,525h9.42l4.7-8l-4.7-8h-9.42l-4.7,8
					L42.21,525z"/>
			</g>
			<g>
				<path class="st13" d="M50.3,523h-6.75l-3.4-5.5l3.4-5.5h6.75l3.4,5.5L50.3,523z M44.01,522h5.82l2.88-4.5l-2.88-4.5h-5.82
					l-2.73,4.5L44.01,522z"/>
			</g>
		</g>
		<g>
			<path class="st13" d="M41.15,535.76v-3.98h-1.42v-0.5h3.4v0.5h-1.42v3.98H41.15z"/>
			<path class="st13" d="M42.89,534.13c0-0.94,0.62-1.7,1.6-1.7c0.99,0,1.61,0.76,1.61,1.7c0,0.94-0.62,1.71-1.61,1.71
				C43.51,535.84,42.89,535.07,42.89,534.13z M45.57,534.13c0-0.66-0.38-1.25-1.07-1.25c-0.69,0-1.07,0.59-1.07,1.25
				c0,0.67,0.38,1.26,1.07,1.26C45.19,535.39,45.57,534.8,45.57,534.13z"/>
			<path class="st13" d="M46.73,534.13c0-0.94,0.62-1.7,1.6-1.7c0.99,0,1.61,0.76,1.61,1.7c0,0.94-0.62,1.71-1.61,1.71
				C47.35,535.84,46.73,535.07,46.73,534.13z M49.41,534.13c0-0.66-0.38-1.25-1.07-1.25c-0.69,0-1.07,0.59-1.07,1.25
				c0,0.67,0.38,1.26,1.07,1.26C49.03,535.39,49.41,534.8,49.41,534.13z"/>
			<path class="st13" d="M50.77,535.76v-4.48h0.5v4.48H50.77z"/>
		</g>
	</g>
	<line class="st15" x1="36.16" y1="495.5" x2="269.16" y2="495.5"/>
</g>
</svg>
