<?xml version="1.0" encoding="utf-8"?>
<!-- Generator: Adobe Illustrator 19.0.0, SVG Export Plug-In . SVG Version: 6.00 Build 0)  -->
<svg version="1.1" id="Livello_1" xmlns="http://www.w3.org/2000/svg" xmlns:xlink="http://www.w3.org/1999/xlink" x="0px" y="0px"
	 viewBox="0 0 850 407.48" style="enable-background:new 0 0 850 407.48;" xml:space="preserve">
<style type="text/css">
	.st0{fill:#2D2D2D;}
	.st1{fill:none;}
	.st2{fill:#F6F7F7;}
	.st3{font-family:'ProximaNova-Regular';}
	.st4{font-size:12px;}
	.st5{font-size:14.4px;}
	.st6{fill:#2D2D2D;stroke:#F6F7F7;stroke-miterlimit:10;}
	.st7{fill:none;stroke:#F6F7F7;stroke-miterlimit:10;}
	.st8{font-family:'ProximaNova-RegularIt';}
	.st9{font-size:10.8px;}
	.st10{fill:#929497;}
	.st11{fill:#2D2D2D;stroke:#929497;stroke-miterlimit:10;}
	.st12{fill:none;stroke:#929497;stroke-miterlimit:10;}
</style>
<rect class="st0" width="850" height="407.48"/>
<rect x="27.89" y="31.07" class="st1" width="47.79" height="10.2"/>
<text transform="matrix(1 0 0 1 27.8925 39.0782)" class="st2 st3 st4">SOURCE</text>
<rect x="89.68" y="29.97" class="st1" width="752.88" height="12.4"/>
<text transform="matrix(1 0 0 1 89.683 39.5792)" class="st2 st3 st5">AUTHORS_GS + AUTHORS_LN + CORPUS_GS + CORPUS_LN + CORPUS_GSE</text>
<rect x="27.89" y="107.77" class="st1" width="85.91" height="14.4"/>
<text transform="matrix(1 0 0 1 27.8925 115.7784)" class="st2 st3 st4">AUTHORS_GS</text>
<rect x="27.89" y="130.57" class="st1" width="85.91" height="14.4"/>
<text transform="matrix(1 0 0 1 27.8925 138.5781)" class="st2 st3 st4">AUTHORS_LN</text>
<rect x="153.64" y="234.92" class="st1" width="85.41" height="37.9"/>
<text transform="matrix(1 0 0 1 161.6283 242.9277)"><tspan x="0" y="0" class="st2 st3 st4">CORPUS_GS</tspan><tspan x="0.59" y="13.2" class="st2 st3 st4">CORPUS_LN</tspan><tspan x="-3.41" y="26.4" class="st2 st3 st4">CORPUS_GSE</tspan></text>
<g>
	<rect x="187.74" y="208.94" class="st6" width="24" height="19.2"/>
	<rect x="183.75" y="204.62" class="st6" width="25.2" height="20.4"/>
	<rect x="180.54" y="202.94" class="st6" width="25.2" height="19.2"/>
</g>
<rect x="416.98" y="134.94" class="st1" width="85.41" height="12.11"/>
<text transform="matrix(1 0 0 1 424.9658 142.9429)" class="st2 st3 st4">CORPUS_GS</text>
<g>
	<rect x="451.07" y="108.95" class="st6" width="24" height="19.2"/>
	<rect x="447.09" y="104.63" class="st6" width="25.2" height="20.4"/>
	<rect x="443.87" y="102.95" class="st6" width="25.2" height="19.2"/>
</g>
<rect x="416.98" y="191.58" class="st1" width="85.41" height="12.11"/>
<text transform="matrix(1 0 0 1 425.5536 199.5816)" class="st2 st3 st4">CORPUS_LN</text>
<g>
	<rect x="451.07" y="165.59" class="st6" width="24" height="19.2"/>
	<rect x="447.09" y="161.27" class="st6" width="25.2" height="20.4"/>
	<rect x="443.87" y="159.59" class="st6" width="25.2" height="19.2"/>
</g>
<rect x="416.98" y="246.5" class="st1" width="85.41" height="12.11"/>
<text transform="matrix(1 0 0 1 421.5517 254.5068)" class="st2 st3 st4">CORPUS_GSE</text>
<g>
	<rect x="451.07" y="220.52" class="st6" width="24" height="19.2"/>
	<rect x="447.09" y="216.2" class="st6" width="25.2" height="20.4"/>
	<rect x="443.87" y="214.52" class="st6" width="25.2" height="19.2"/>
</g>
<g>
	<g>
		<line class="st7" x1="377.15" y1="176.06" x2="407.85" y2="176.06"/>
		<g>
			<polygon class="st2" points="404.54,180.15 403.86,179.42 407.47,176.06 403.86,172.71 404.54,171.97 408.94,176.06 			"/>
		</g>
	</g>
</g>
<rect x="21.89" y="23.57" class="st7" width="58.8" height="22.8"/>
<polyline class="st7" points="113.98,111.17 130.18,111.17 130.18,136.8 112.78,136.8 "/>
<polyline class="st7" points="235.85,123.99 253.25,123.99 253.25,228.14 235.85,228.14 "/>
<g>
	<g>
		<line class="st7" x1="130.78" y1="123.99" x2="156.76" y2="123.99"/>
		<g>
			<polygon class="st2" points="153.45,128.08 152.77,127.34 156.38,123.99 152.77,120.63 153.45,119.9 157.85,123.99 			"/>
		</g>
	</g>
</g>
<line class="st7" x1="269.45" y1="176.06" x2="253.85" y2="176.06"/>
<rect x="163.06" y="152.52" class="st1" width="63.04" height="44.21"/>
<text transform="matrix(1 0 0 1 164.1557 160.5221)"><tspan x="0" y="0" class="st2 st8 st4">selection of </tspan><tspan x="1.62" y="13.2" class="st2 st8 st4">50 authors</tspan></text>
<rect x="165.64" y="139.16" class="st1" width="57.88" height="9.28"/>
<text transform="matrix(1 0 0 1 183.0547 147.1647)" class="st2 st3 st4">CSV</text>
<g>
	<rect x="189.2" y="118.57" class="st2" width="10.8" height="1.2"/>
	<rect x="189.2" y="122.17" class="st2" width="10.8" height="1.2"/>
	<rect x="189.2" y="125.77" class="st2" width="10.8" height="1.2"/>
	<path class="st2" d="M199.03,107.77h-0.68H184.4v25.2h20.4V113.1v-0.24L199.03,107.77z M199.26,109.33l3.79,3.3l-4.03,0.6
		L199.26,109.33z M203.6,131.77h-18v-22.8h13.01l-0.5,5.29l5.48-1.06V131.77z"/>
</g>
<rect x="293.93" y="182.85" class="st1" width="61.8" height="10.48"/>
<text transform="matrix(1 0 0 1 301.0215 190.8555)" class="st2 st3 st4">PYTHON</text>
<polyline class="st7" points="511.43,118.81 527.63,118.81 527.63,235.28 510.23,235.28 "/>
<g>
	<g>
		<line class="st7" x1="528.23" y1="177.05" x2="575.15" y2="177.05"/>
		<g>
			<polygon class="st2" points="571.84,181.14 571.15,180.4 574.77,177.05 571.15,173.69 571.84,172.96 576.23,177.05 			"/>
		</g>
	</g>
</g>
<g>
	<rect x="770.93" y="151.04" class="st2" width="15.6" height="2.4"/>
	<rect x="770.93" y="157.04" class="st2" width="15.6" height="1.2"/>
	<rect x="770.93" y="161.84" class="st2" width="15.6" height="2.4"/>
	<path class="st2" d="M785.59,135.44h-0.99h-20.87v37.2h30v-29.01v-0.34L785.59,135.44z M785.93,138.12l5.53,4.82l-5.87,0.88
		L785.93,138.12z M792.53,171.44h-26.4v-33.6h18.84l-0.58,7.6l8.14-1.66V171.44z"/>
</g>
<rect x="272.5" y="197.37" class="st1" width="104.65" height="65.4"/>
<text transform="matrix(1 0 0 1 287.4432 205.3746)"><tspan x="0" y="0" class="st2 st8 st4">Search the 50 </tspan><tspan x="-3.53" y="13.2" class="st2 st8 st4">authors in each </tspan><tspan x="-13.79" y="26.4" class="st2 st8 st4">corpus and replace </tspan><tspan x="3.59" y="39.6" class="st2 st8 st4">with author’s </tspan><tspan x="-5.35" y="52.8" class="st2 st8 st4">“namesurname” </tspan></text>
<g>
	<g>
		<polygon class="st2" points="315.08,153.53 319.41,151.44 315.08,149.34 315.08,148.24 320.18,151.03 320.18,151.85 
			315.08,154.63 		"/>
	</g>
	<g>
		<path class="st2" d="M314.93,147.98v0.51v0.76v0.19l0.17,0.08l3.97,1.93l-3.97,1.91l-0.17,0.08v0.19v0.76v0.51l0.44-0.24l4.8-2.62
			l0.16-0.09v-0.18v-0.64v-0.18l-0.16-0.09l-4.8-2.63L314.93,147.98L314.93,147.98z"/>
	</g>
</g>
<g>
	<path class="st2" d="M320.03,156.05L320.03,156.05h7.2l0,0H320.03z"/>
	<rect x="320.03" y="155.45" class="st2" width="7.2" height="1.2"/>
</g>
<g>
	<path class="st2" d="M339.23,172.85h-28.8v-28.8h28.8V172.85z M311.63,171.65h26.4v-26.4h-26.4V171.65z"/>
</g>
<rect x="597.66" y="182.81" class="st1" width="61.8" height="10.48"/>
<text transform="matrix(1 0 0 1 624.9037 190.8185)" class="st2 st3 st4">R</text>
<rect x="576.23" y="197.33" class="st1" width="104.65" height="65.4"/>
<text transform="matrix(1 0 0 1 592.4077 205.338)"><tspan x="0" y="0" class="st2 st8 st4">count of each </tspan><tspan x="-1.81" y="13.2" class="st2 st8 st4">author’s name </tspan><tspan x="-2.65" y="26.4" class="st2 st8 st4">in each corpus</tspan></text>
<g>
	<g>
		<polygon class="st2" points="618.81,153.49 623.14,151.41 618.81,149.3 618.81,148.2 623.91,151 623.91,151.81 618.81,154.59 		
			"/>
	</g>
	<g>
		<path class="st2" d="M618.66,147.95v0.51v0.76v0.19l0.17,0.08l3.97,1.93l-3.97,1.91l-0.17,0.08v0.19v0.76v0.51l0.44-0.24l4.8-2.62
			l0.16-0.09v-0.18v-0.64v-0.18l-0.16-0.09l-4.8-2.63L618.66,147.95L618.66,147.95z"/>
	</g>
</g>
<g>
	<path class="st2" d="M623.76,156.01L623.76,156.01h7.2l0,0H623.76z"/>
	<rect x="623.76" y="155.41" class="st2" width="7.2" height="1.2"/>
</g>
<g>
	<path class="st2" d="M642.96,172.81h-28.8v-28.8h28.8V172.81z M615.36,171.61h26.4v-26.4h-26.4V171.61z"/>
</g>
<rect x="744.06" y="182.92" class="st1" width="69.34" height="20.49"/>
<text transform="matrix(1 0 0 1 768.3647 190.1265)" class="st2 st3 st9">CSV</text>
<g>
	<g>
		<line class="st7" x1="683.34" y1="176.98" x2="730.85" y2="176.98"/>
		<g>
			<polygon class="st2" points="727.54,181.07 726.86,180.33 730.47,176.98 726.86,173.62 727.54,172.89 731.94,176.98 			"/>
		</g>
	</g>
</g>
<rect x="744.66" y="337.67" class="st1" width="69.34" height="20.49"/>
<text transform="matrix(1 0 0 1 763.6293 344.8731)"><tspan x="0" y="0" class="st2 st3 st9">RAW + </tspan><tspan x="-18.28" y="10.8" class="st2 st3 st9">ILLUSTRATOR</tspan></text>
<g>
	<polyline class="st7" points="763.73,294.87 788.89,307.83 762.23,316.08 779.85,293.74 784.37,325.69 773.01,323.15 	"/>
	<circle class="st6" cx="781.14" cy="292.19" r="2.47"/>
	<circle class="st6" cx="789.18" cy="307.6" r="2.47"/>
	<polyline class="st7" points="761.05,315.63 763.73,294.87 773.11,323 	"/>
	<circle class="st6" cx="763.73" cy="294.87" r="2.47"/>
	<circle class="st6" cx="761.05" cy="315.63" r="2.47"/>
	<circle class="st6" cx="773.11" cy="323" r="2.47"/>
	<circle class="st6" cx="785.16" cy="325.68" r="2.47"/>
</g>
<g>
	<g>
		<line class="st7" x1="779.33" y1="215.42" x2="779.33" y2="262.93"/>
		<g>
			<polygon class="st2" points="775.24,259.62 775.97,258.94 779.33,262.55 782.69,258.94 783.42,259.62 779.33,264.02 			"/>
		</g>
	</g>
</g>
<g>
	<g>
		<g>
			<path class="st10" d="M176.06,352.56v-0.53l3.17-1.52l-3.17-1.54v-0.53l3.71,1.84v0.45L176.06,352.56z"/>
			<path class="st10" d="M179.99,354.12v-0.46h4.79v0.46H179.99z"/>
			<g>
				<path class="st10" d="M193.1,365.57h-20.33v-20.33h20.33V365.57z M173.61,364.73h18.65v-18.65h-18.65V364.73z"/>
			</g>
		</g>
		<g>
			<path class="st10" d="M174.68,374.52l0.34-0.43c0.29,0.34,0.77,0.64,1.4,0.64c0.8,0,1.05-0.43,1.05-0.78
				c0-1.15-2.65-0.51-2.65-2.11c0-0.74,0.66-1.25,1.54-1.25c0.68,0,1.21,0.24,1.59,0.63l-0.34,0.41c-0.34-0.38-0.81-0.54-1.3-0.54
				c-0.53,0-0.92,0.29-0.92,0.71c0,1.01,2.65,0.43,2.65,2.1c0,0.64-0.44,1.32-1.65,1.32C175.62,375.23,175.05,374.93,174.68,374.52z
				"/>
			<path class="st10" d="M178.67,373.52c0-0.96,0.65-1.7,1.62-1.7c0.59,0,0.94,0.24,1.19,0.56l-0.34,0.3
				c-0.21-0.3-0.49-0.42-0.83-0.42c-0.69,0-1.12,0.53-1.12,1.25s0.44,1.26,1.12,1.26c0.34,0,0.61-0.13,0.83-0.42l0.34,0.31
				c-0.25,0.32-0.6,0.56-1.19,0.56C179.33,375.23,178.67,374.48,178.67,373.52z"/>
			<path class="st10" d="M182.2,375.15v-3.24h0.5v0.52c0.26-0.34,0.64-0.59,1.08-0.59v0.52c-0.06-0.01-0.12-0.01-0.19-0.01
				c-0.32,0-0.74,0.26-0.89,0.52v2.3H182.2z"/>
			<path class="st10" d="M184.32,371.11c0-0.19,0.15-0.34,0.34-0.34c0.19,0,0.34,0.15,0.34,0.34c0,0.19-0.15,0.34-0.34,0.34
				C184.48,371.44,184.32,371.29,184.32,371.11z M184.41,375.15v-3.24h0.5v3.24H184.41z"/>
			<path class="st10" d="M186.43,374.66v1.73h-0.5v-4.48h0.5v0.48c0.24-0.33,0.64-0.56,1.09-0.56c0.85,0,1.44,0.64,1.44,1.7
				c0,1.05-0.59,1.71-1.44,1.71C187.08,375.23,186.7,375.01,186.43,374.66z M188.44,373.52c0-0.72-0.39-1.25-1.04-1.25
				c-0.4,0-0.79,0.24-0.97,0.52v1.46c0.17,0.28,0.57,0.52,0.97,0.52C188.05,374.78,188.44,374.24,188.44,373.52z"/>
			<path class="st10" d="M189.87,374.47v-2.12h-0.54v-0.44h0.54v-0.89h0.51v0.89h0.66v0.44h-0.66v2.02c0,0.24,0.11,0.42,0.32,0.42
				c0.15,0,0.28-0.07,0.34-0.14l0.15,0.38c-0.13,0.12-0.31,0.21-0.6,0.21C190.11,375.23,189.87,374.95,189.87,374.47z"/>
		</g>
	</g>
	<g>
		<g>
			<g>
				<polygon class="st10" points="221.31,364 208.31,364 208.31,346 209.31,346 209.31,363 220.31,363 220.31,346 221.31,346 				
					"/>
			</g>
			<g>
				<path class="st10" d="M214.59,351.29c-1.47,0-2.66-1.19-2.66-2.66c0-1.47,1.19-2.66,2.66-2.66s2.66,1.19,2.66,2.66
					C217.25,350.09,216.06,351.29,214.59,351.29z M214.59,346.81c-1,0-1.82,0.82-1.82,1.82c0,1,0.82,1.82,1.82,1.82
					s1.82-0.82,1.82-1.82C216.41,347.62,215.6,346.81,214.59,346.81z"/>
			</g>
			<g>
				<polygon class="st10" points="209.04,346.12 208.18,345.77 214.57,340.59 221.38,345.77 220.26,346.12 214.56,341.65 				"/>
			</g>
		</g>
		<g>
			<path class="st10" d="M211.14,373.68v-3.98h-1.42v-0.5h3.4v0.5h-1.42v3.98H211.14z"/>
			<path class="st10" d="M215.23,373.68v-0.37c-0.26,0.3-0.64,0.45-1.07,0.45c-0.54,0-1.13-0.37-1.13-1.07
				c0-0.73,0.58-1.07,1.13-1.07c0.44,0,0.81,0.14,1.07,0.44v-0.58c0-0.43-0.35-0.68-0.82-0.68c-0.39,0-0.71,0.13-0.99,0.45
				l-0.24-0.35c0.35-0.36,0.77-0.54,1.3-0.54c0.69,0,1.26,0.31,1.26,1.1v2.23H215.23z M215.23,373v-0.62
				c-0.19-0.26-0.54-0.4-0.89-0.4c-0.48,0-0.81,0.3-0.81,0.71c0,0.42,0.33,0.71,0.81,0.71C214.69,373.4,215.03,373.26,215.23,373z"
				/>
			<path class="st10" d="M216.74,374.51l0.26-0.36c0.27,0.32,0.59,0.44,1.05,0.44c0.54,0,1.05-0.26,1.05-0.95v-0.49
				c-0.24,0.33-0.64,0.58-1.09,0.58c-0.85,0-1.44-0.63-1.44-1.68c0-1.04,0.59-1.69,1.44-1.69c0.44,0,0.83,0.21,1.09,0.57v-0.49h0.5
				v3.2c0,1.03-0.76,1.36-1.55,1.36C217.51,375,217.13,374.89,216.74,374.51z M219.1,372.75v-1.42c-0.18-0.28-0.57-0.52-0.97-0.52
				c-0.66,0-1.05,0.52-1.05,1.24c0,0.71,0.39,1.23,1.05,1.23C218.53,373.27,218.92,373.03,219.1,372.75z"/>
		</g>
	</g>
	<g>
		<g>
			<g>
				<path class="st10" d="M255.76,364.96H235.6V344.8h20.16V364.96z M236.44,364.12h18.48v-18.48h-18.48V364.12z"/>
			</g>
			<g>
				<polygon class="st10" points="248.45,355.04 243.34,349.39 243.96,348.83 248.24,353.56 253.99,341.71 254.75,342.08 				"/>
			</g>
		</g>
		<g>
			<path class="st10" d="M231.12,372.3c0-1.38,1.01-2.32,2.3-2.32c0.79,0,1.34,0.38,1.7,0.89l-0.46,0.26
				c-0.26-0.38-0.73-0.65-1.24-0.65c-0.98,0-1.73,0.75-1.73,1.82c0,1.06,0.75,1.82,1.73,1.82c0.51,0,0.98-0.28,1.24-0.65l0.47,0.26
				c-0.38,0.52-0.91,0.89-1.71,0.89C232.14,374.62,231.12,373.68,231.12,372.3z"/>
			<path class="st10" d="M235.83,374.54v-4.48h0.5v4.48H235.83z"/>
			<path class="st10" d="M237.15,372.91c0-0.94,0.67-1.7,1.6-1.7c0.98,0,1.56,0.77,1.56,1.74v0.13h-2.62
				c0.04,0.61,0.46,1.12,1.16,1.12c0.38,0,0.75-0.15,1.01-0.42l0.24,0.33c-0.33,0.32-0.77,0.5-1.29,0.5
				C237.84,374.62,237.15,373.93,237.15,372.91z M238.74,371.63c-0.69,0-1.03,0.58-1.06,1.07h2.13
				C239.8,372.23,239.48,371.63,238.74,371.63z"/>
			<path class="st10" d="M243.15,374.54v-0.37c-0.26,0.3-0.64,0.45-1.07,0.45c-0.54,0-1.13-0.37-1.13-1.07
				c0-0.73,0.58-1.07,1.13-1.07c0.44,0,0.81,0.14,1.07,0.44v-0.58c0-0.43-0.35-0.68-0.82-0.68c-0.39,0-0.71,0.13-0.99,0.45
				l-0.24-0.35c0.35-0.36,0.77-0.54,1.3-0.54c0.69,0,1.26,0.31,1.26,1.1v2.23H243.15z M243.15,373.86v-0.62
				c-0.19-0.26-0.54-0.4-0.89-0.4c-0.48,0-0.81,0.3-0.81,0.71c0,0.42,0.33,0.71,0.81,0.71
				C242.61,374.26,242.96,374.12,243.15,373.86z"/>
			<path class="st10" d="M246.87,374.54v-2.12c0-0.58-0.3-0.75-0.73-0.75c-0.4,0-0.77,0.24-0.96,0.5v2.37h-0.5v-3.24h0.5v0.47
				c0.23-0.28,0.67-0.55,1.16-0.55c0.67,0,1.03,0.34,1.03,1.05v2.28H246.87z"/>
			<path class="st10" d="M252.15,374.54v-0.37c-0.26,0.3-0.64,0.45-1.07,0.45c-0.54,0-1.13-0.37-1.13-1.07
				c0-0.73,0.58-1.07,1.13-1.07c0.44,0,0.81,0.14,1.07,0.44v-0.58c0-0.43-0.35-0.68-0.82-0.68c-0.39,0-0.71,0.13-0.99,0.45
				l-0.24-0.35c0.35-0.36,0.77-0.54,1.3-0.54c0.69,0,1.26,0.31,1.26,1.1v2.23H252.15z M252.15,373.86v-0.62
				c-0.19-0.26-0.54-0.4-0.89-0.4c-0.48,0-0.81,0.3-0.81,0.71c0,0.42,0.33,0.71,0.81,0.71
				C251.61,374.26,251.95,374.12,252.15,373.86z"/>
			<path class="st10" d="M255.87,374.54v-2.12c0-0.58-0.3-0.75-0.73-0.75c-0.4,0-0.77,0.24-0.96,0.5v2.37h-0.5v-3.24h0.5v0.47
				c0.23-0.28,0.67-0.55,1.16-0.55c0.67,0,1.03,0.34,1.03,1.05v2.28H255.87z"/>
			<path class="st10" d="M259.73,374.54v-0.48c-0.24,0.33-0.64,0.56-1.09,0.56c-0.85,0-1.44-0.64-1.44-1.7
				c0-1.04,0.6-1.71,1.44-1.71c0.44,0,0.83,0.21,1.09,0.57v-1.73h0.5v4.48H259.73z M259.73,373.65v-1.46
				c-0.17-0.28-0.57-0.52-0.97-0.52c-0.66,0-1.05,0.54-1.05,1.26c0,0.72,0.39,1.25,1.05,1.25
				C259.16,374.17,259.56,373.94,259.73,373.65z"/>
			<path class="st10" d="M232.97,382.6l-1.35-3.24h0.55l1.07,2.66l1.08-2.66h0.54l-1.35,3.24H232.97z"/>
			<path class="st10" d="M237.43,382.6v-0.37c-0.26,0.3-0.64,0.45-1.07,0.45c-0.54,0-1.13-0.37-1.13-1.07
				c0-0.73,0.58-1.07,1.13-1.07c0.44,0,0.81,0.14,1.07,0.44v-0.58c0-0.43-0.35-0.68-0.82-0.68c-0.39,0-0.71,0.13-0.99,0.45
				l-0.24-0.35c0.35-0.36,0.77-0.54,1.3-0.54c0.69,0,1.26,0.31,1.26,1.1v2.23H237.43z M237.43,381.92v-0.62
				c-0.19-0.26-0.54-0.4-0.89-0.4c-0.48,0-0.81,0.3-0.81,0.71c0,0.42,0.33,0.71,0.81,0.71
				C236.89,382.32,237.23,382.19,237.43,381.92z"/>
			<path class="st10" d="M238.95,382.6v-4.48h0.5v4.48H238.95z"/>
			<path class="st10" d="M240.37,378.56c0-0.19,0.15-0.34,0.34-0.34c0.19,0,0.34,0.15,0.34,0.34c0,0.19-0.15,0.34-0.34,0.34
				C240.53,378.9,240.37,378.75,240.37,378.56z M240.46,382.6v-3.24h0.5v3.24H240.46z"/>
			<path class="st10" d="M244.32,382.6v-0.48c-0.24,0.33-0.64,0.56-1.09,0.56c-0.85,0-1.44-0.64-1.44-1.7c0-1.04,0.6-1.71,1.44-1.71
				c0.44,0,0.83,0.21,1.09,0.57v-1.73h0.5v4.48H244.32z M244.32,381.72v-1.46c-0.17-0.28-0.57-0.52-0.97-0.52
				c-0.66,0-1.05,0.54-1.05,1.26s0.39,1.25,1.05,1.25C243.75,382.23,244.15,382,244.32,381.72z"/>
			<path class="st10" d="M247.86,382.6v-0.37c-0.26,0.3-0.64,0.45-1.07,0.45c-0.54,0-1.13-0.37-1.13-1.07
				c0-0.73,0.58-1.07,1.13-1.07c0.44,0,0.81,0.14,1.07,0.44v-0.58c0-0.43-0.35-0.68-0.82-0.68c-0.39,0-0.71,0.13-0.99,0.45
				l-0.24-0.35c0.35-0.36,0.77-0.54,1.3-0.54c0.69,0,1.26,0.31,1.26,1.1v2.23H247.86z M247.86,381.92v-0.62
				c-0.19-0.26-0.54-0.4-0.89-0.4c-0.48,0-0.81,0.3-0.81,0.71c0,0.42,0.33,0.71,0.81,0.71
				C247.33,382.32,247.67,382.19,247.86,381.92z"/>
			<path class="st10" d="M249.48,381.93v-2.12h-0.54v-0.44h0.54v-0.89h0.51v0.89h0.66v0.44h-0.66v2.01c0,0.24,0.11,0.42,0.32,0.42
				c0.15,0,0.28-0.07,0.34-0.14l0.15,0.38c-0.13,0.12-0.31,0.21-0.6,0.21C249.72,382.69,249.48,382.41,249.48,381.93z"/>
			<path class="st10" d="M251.27,378.56c0-0.19,0.15-0.34,0.34-0.34c0.19,0,0.34,0.15,0.34,0.34c0,0.19-0.15,0.34-0.34,0.34
				C251.43,378.9,251.27,378.75,251.27,378.56z M251.36,382.6v-3.24h0.5v3.24H251.36z"/>
			<path class="st10" d="M252.68,380.98c0-0.94,0.62-1.7,1.6-1.7c0.99,0,1.61,0.76,1.61,1.7c0,0.94-0.62,1.71-1.61,1.71
				C253.3,382.69,252.68,381.92,252.68,380.98z M255.36,380.98c0-0.66-0.38-1.25-1.07-1.25c-0.69,0-1.07,0.59-1.07,1.25
				c0,0.66,0.38,1.26,1.07,1.26C254.98,382.23,255.36,381.64,255.36,380.98z"/>
			<path class="st10" d="M258.91,382.6v-2.12c0-0.58-0.3-0.75-0.73-0.75c-0.4,0-0.77,0.24-0.96,0.5v2.37h-0.5v-3.24h0.5v0.47
				c0.23-0.28,0.67-0.55,1.16-0.55c0.67,0,1.03,0.34,1.03,1.05v2.28H258.91z"/>
		</g>
	</g>
	<g>
		<g>
			<rect x="140.21" y="350.64" class="st11" width="17.64" height="14.28"/>
			<rect x="136.17" y="347.56" class="st11" width="19.32" height="15.12"/>
			<rect x="133.65" y="345.04" class="st11" width="19.32" height="15.12"/>
		</g>
		<g>
			<path class="st10" d="M135.44,372.26c0-1.38,1.01-2.32,2.3-2.32c0.79,0,1.34,0.38,1.7,0.89l-0.46,0.26
				c-0.26-0.38-0.73-0.65-1.24-0.65c-0.98,0-1.73,0.75-1.73,1.82c0,1.06,0.75,1.82,1.73,1.82c0.51,0,0.98-0.28,1.24-0.65l0.47,0.26
				c-0.38,0.52-0.91,0.89-1.71,0.89C136.46,374.58,135.44,373.64,135.44,372.26z"/>
			<path class="st10" d="M139.96,372.87c0-0.94,0.62-1.7,1.6-1.7s1.61,0.76,1.61,1.7c0,0.94-0.62,1.71-1.61,1.71
				S139.96,373.82,139.96,372.87z M142.64,372.87c0-0.66-0.38-1.25-1.07-1.25c-0.69,0-1.07,0.59-1.07,1.25
				c0,0.67,0.38,1.26,1.07,1.26C142.25,374.13,142.64,373.54,142.64,372.87z"/>
			<path class="st10" d="M143.99,374.5v-3.24h0.5v0.52c0.26-0.34,0.64-0.59,1.08-0.59v0.52c-0.06-0.01-0.12-0.01-0.19-0.01
				c-0.32,0-0.74,0.26-0.89,0.52v2.3H143.99z"/>
			<path class="st10" d="M146.71,374.01v1.73h-0.5v-4.48h0.5v0.48c0.24-0.33,0.64-0.56,1.09-0.56c0.85,0,1.44,0.64,1.44,1.7
				c0,1.05-0.59,1.71-1.44,1.71C147.36,374.58,146.98,374.37,146.71,374.01z M148.72,372.87c0-0.72-0.39-1.25-1.04-1.25
				c-0.4,0-0.79,0.24-0.97,0.52v1.46c0.17,0.28,0.57,0.52,0.97,0.52C148.33,374.13,148.72,373.59,148.72,372.87z"/>
			<path class="st10" d="M152.24,374.5v-0.46c-0.25,0.28-0.67,0.54-1.15,0.54c-0.68,0-1.03-0.34-1.03-1.03v-2.29h0.5v2.14
				c0,0.57,0.29,0.74,0.73,0.74c0.39,0,0.77-0.23,0.95-0.49v-2.38h0.5v3.24H152.24z"/>
			<path class="st10" d="M153.48,374.07l0.26-0.36c0.21,0.25,0.62,0.46,1.07,0.46c0.5,0,0.77-0.24,0.77-0.56
				c0-0.79-2.01-0.3-2.01-1.5c0-0.51,0.43-0.93,1.2-0.93c0.56,0,0.95,0.21,1.2,0.47l-0.24,0.35c-0.19-0.24-0.54-0.41-0.97-0.41
				c-0.44,0-0.72,0.22-0.72,0.51c0,0.71,2.01,0.24,2.01,1.5c0,0.54-0.44,0.98-1.27,0.98C154.25,374.58,153.81,374.41,153.48,374.07z
				"/>
		</g>
	</g>
	<g>
		<g>
			<g>
				<g>
					<line class="st10" x1="106.54" y1="339.36" x2="106.54" y2="357.78"/>
				</g>
				<g>
					<g>
						<rect x="106.12" y="339.36" class="st10" width="0.84" height="17.5"/>
					</g>
					<g>
						<g>
							<polygon class="st10" points="103.11,354.08 103.72,353.51 106.54,356.54 109.36,353.51 109.98,354.08 106.54,357.78 							
								"/>
						</g>
					</g>
				</g>
			</g>
			<g>
				<path class="st10" d="M118.72,365.09H94.36v-16.8h24.36V365.09z M95.2,364.25h22.68v-15.12H95.2V364.25z"/>
			</g>
		</g>
		<g>
			<path class="st10" d="M92.08,374.59v-4.48h1.53c1.4,0,2.3,0.97,2.3,2.24c0,1.28-0.9,2.24-2.3,2.24H92.08z M95.33,372.36
				c0-0.97-0.61-1.75-1.72-1.75h-0.97v3.49h0.97C94.7,374.1,95.33,373.32,95.33,372.36z"/>
			<path class="st10" d="M96.57,372.97c0-0.94,0.62-1.7,1.6-1.7c0.99,0,1.61,0.76,1.61,1.7c0,0.94-0.62,1.71-1.61,1.71
				C97.19,374.68,96.57,373.91,96.57,372.97z M99.25,372.97c0-0.66-0.38-1.25-1.07-1.25c-0.69,0-1.07,0.59-1.07,1.25
				c0,0.67,0.38,1.26,1.07,1.26C98.87,374.22,99.25,373.63,99.25,372.97z"/>
			<path class="st10" d="M103.41,374.59l-0.85-2.61l-0.85,2.61h-0.5l-1.03-3.24h0.52l0.79,2.59l0.85-2.59h0.44l0.85,2.59l0.79-2.59
				h0.53l-1.03,3.24H103.41z"/>
			<path class="st10" d="M107.73,374.59v-2.12c0-0.58-0.3-0.75-0.73-0.75c-0.4,0-0.77,0.24-0.96,0.5v2.37h-0.5v-3.24h0.5v0.47
				c0.23-0.28,0.67-0.55,1.16-0.55c0.67,0,1.03,0.34,1.03,1.05v2.28H107.73z"/>
			<path class="st10" d="M109.25,374.59v-4.48h0.5v4.48H109.25z"/>
			<path class="st10" d="M110.57,372.97c0-0.94,0.62-1.7,1.6-1.7s1.61,0.76,1.61,1.7c0,0.94-0.62,1.71-1.61,1.71
				S110.57,373.91,110.57,372.97z M113.25,372.97c0-0.66-0.38-1.25-1.07-1.25c-0.69,0-1.07,0.59-1.07,1.25
				c0,0.67,0.38,1.26,1.07,1.26C112.87,374.22,113.25,373.63,113.25,372.97z"/>
			<path class="st10" d="M116.63,374.59v-0.37c-0.26,0.3-0.64,0.45-1.07,0.45c-0.54,0-1.13-0.37-1.13-1.07
				c0-0.73,0.58-1.07,1.13-1.07c0.44,0,0.81,0.14,1.07,0.44v-0.58c0-0.43-0.35-0.68-0.82-0.68c-0.39,0-0.71,0.13-0.99,0.45
				l-0.24-0.35c0.35-0.36,0.77-0.54,1.3-0.54c0.69,0,1.26,0.31,1.26,1.1v2.23H116.63z M116.63,373.91v-0.62
				c-0.19-0.26-0.54-0.4-0.89-0.4c-0.48,0-0.81,0.3-0.81,0.71c0,0.42,0.33,0.71,0.81,0.71
				C116.09,374.31,116.44,374.18,116.63,373.91z"/>
			<path class="st10" d="M120.5,374.59v-0.48c-0.24,0.33-0.64,0.56-1.09,0.56c-0.85,0-1.44-0.64-1.44-1.7c0-1.04,0.6-1.71,1.44-1.71
				c0.44,0,0.83,0.21,1.09,0.57v-1.73h0.5v4.48H120.5z M120.5,373.71v-1.46c-0.17-0.28-0.57-0.52-0.97-0.52
				c-0.66,0-1.05,0.54-1.05,1.26c0,0.72,0.39,1.25,1.05,1.25C119.93,374.22,120.33,373.99,120.5,373.71z"/>
		</g>
	</g>
	<g>
		<g>
			<rect x="68.12" y="355.21" class="st10" width="7.56" height="0.84"/>
			<rect x="68.12" y="357.73" class="st10" width="7.56" height="0.84"/>
			<rect x="68.12" y="360.25" class="st10" width="7.56" height="0.84"/>
			<path class="st10" d="M75,347.65h-0.47h-9.77v17.64h14.28v-13.91v-0.16L75,347.65z M75.17,348.74l2.66,2.31L75,351.47
				L75.17,348.74z M78.2,364.45H65.6v-15.96h9.11l-0.35,3.7l3.84-0.74V364.45z"/>
		</g>
		<g>
			<path class="st10" d="M60.51,374.8v-4.48h1.53c1.4,0,2.3,0.97,2.3,2.24c0,1.28-0.9,2.24-2.3,2.24H60.51z M63.76,372.56
				c0-0.97-0.61-1.75-1.72-1.75h-0.97v3.49h0.97C63.13,374.3,63.76,373.52,63.76,372.56z"/>
			<path class="st10" d="M67.23,374.8v-0.37c-0.26,0.3-0.64,0.45-1.07,0.45c-0.54,0-1.13-0.37-1.13-1.07c0-0.73,0.58-1.07,1.13-1.07
				c0.44,0,0.81,0.14,1.07,0.44v-0.58c0-0.43-0.35-0.68-0.82-0.68c-0.39,0-0.71,0.13-0.99,0.45l-0.24-0.35
				c0.35-0.36,0.77-0.54,1.3-0.54c0.69,0,1.26,0.31,1.26,1.1v2.23H67.23z M67.23,374.11v-0.62c-0.19-0.26-0.54-0.4-0.89-0.4
				c-0.48,0-0.81,0.3-0.81,0.71c0,0.42,0.33,0.71,0.81,0.71C66.69,374.51,67.03,374.38,67.23,374.11z"/>
			<path class="st10" d="M68.85,374.12V372h-0.54v-0.44h0.54v-0.89h0.51v0.89h0.66V372h-0.66v2.02c0,0.24,0.11,0.42,0.32,0.42
				c0.15,0,0.28-0.07,0.34-0.14l0.15,0.38c-0.13,0.12-0.31,0.21-0.6,0.21C69.09,374.88,68.85,374.6,68.85,374.12z"/>
			<path class="st10" d="M72.75,374.8v-0.37c-0.26,0.3-0.64,0.45-1.07,0.45c-0.54,0-1.13-0.37-1.13-1.07c0-0.73,0.58-1.07,1.13-1.07
				c0.44,0,0.81,0.14,1.07,0.44v-0.58c0-0.43-0.35-0.68-0.82-0.68c-0.39,0-0.71,0.13-0.99,0.45l-0.24-0.35
				c0.35-0.36,0.77-0.54,1.3-0.54c0.69,0,1.26,0.31,1.26,1.1v2.23H72.75z M72.75,374.11v-0.62c-0.19-0.26-0.54-0.4-0.89-0.4
				c-0.48,0-0.81,0.3-0.81,0.71c0,0.42,0.33,0.71,0.81,0.71C72.21,374.51,72.55,374.38,72.75,374.11z"/>
			<path class="st10" d="M73.99,374.37l0.26-0.36c0.21,0.25,0.62,0.46,1.07,0.46c0.5,0,0.77-0.24,0.77-0.56
				c0-0.79-2.01-0.3-2.01-1.5c0-0.51,0.43-0.93,1.2-0.93c0.56,0,0.95,0.21,1.2,0.47l-0.24,0.35c-0.19-0.24-0.54-0.41-0.97-0.41
				c-0.44,0-0.72,0.22-0.72,0.51c0,0.71,2.01,0.24,2.01,1.5c0,0.54-0.44,0.98-1.27,0.98C74.77,374.88,74.32,374.71,73.99,374.37z"/>
			<path class="st10" d="M77.21,373.17c0-0.94,0.67-1.7,1.6-1.7c0.98,0,1.56,0.77,1.56,1.74v0.13h-2.62
				c0.04,0.61,0.46,1.12,1.16,1.12c0.38,0,0.75-0.15,1.01-0.42l0.24,0.33c-0.33,0.32-0.77,0.5-1.29,0.5
				C77.9,374.88,77.21,374.19,77.21,373.17z M78.8,371.89c-0.69,0-1.03,0.58-1.06,1.07h2.13C79.86,372.49,79.54,371.89,78.8,371.89z
				"/>
			<path class="st10" d="M81.28,374.12V372h-0.54v-0.44h0.54v-0.89h0.51v0.89h0.66V372h-0.66v2.02c0,0.24,0.11,0.42,0.32,0.42
				c0.15,0,0.28-0.07,0.34-0.14l0.15,0.38c-0.13,0.12-0.31,0.21-0.6,0.21C81.52,374.88,81.28,374.6,81.28,374.12z"/>
		</g>
	</g>
	<g>
		<g>
			<g>
				<path class="st10" d="M44.03,365H33.66l-5.2-9l5.2-9h10.38l5.2,9L44.03,365z M34.14,364h9.42l4.7-8l-4.7-8h-9.42l-4.7,8
					L34.14,364z"/>
			</g>
			<g>
				<path class="st10" d="M42.22,361h-6.75l-3.4-5l3.4-5h6.75l3.4,5L42.22,361z M35.94,360h5.82l2.88-4l-2.88-4h-5.82l-2.88,4
					L35.94,360z"/>
			</g>
		</g>
		<g>
			<path class="st10" d="M33.07,374.52v-3.98h-1.42v-0.5h3.4v0.5h-1.42v3.98H33.07z"/>
			<path class="st10" d="M34.81,372.89c0-0.94,0.62-1.7,1.6-1.7c0.99,0,1.61,0.76,1.61,1.7c0,0.94-0.62,1.71-1.61,1.71
				C35.43,374.6,34.81,373.84,34.81,372.89z M37.49,372.89c0-0.66-0.38-1.25-1.07-1.25c-0.69,0-1.07,0.59-1.07,1.25
				c0,0.67,0.38,1.26,1.07,1.26C37.11,374.15,37.49,373.56,37.49,372.89z"/>
			<path class="st10" d="M38.66,372.89c0-0.94,0.62-1.7,1.6-1.7s1.61,0.76,1.61,1.7c0,0.94-0.62,1.71-1.61,1.71
				S38.66,373.84,38.66,372.89z M41.34,372.89c0-0.66-0.38-1.25-1.07-1.25c-0.69,0-1.07,0.59-1.07,1.25c0,0.67,0.38,1.26,1.07,1.26
				C40.95,374.15,41.34,373.56,41.34,372.89z"/>
			<path class="st10" d="M42.69,374.52v-4.48h0.5v4.48H42.69z"/>
		</g>
	</g>
	<line class="st12" x1="28.31" y1="334.5" x2="261.31" y2="334.5"/>
</g>
</svg>
