<?xml version="1.0" encoding="utf-8"?>
<!-- Generator: Adobe Illustrator 19.0.0, SVG Export Plug-In . SVG Version: 6.00 Build 0)  -->
<svg version="1.1" id="Livello_1" xmlns="http://www.w3.org/2000/svg" xmlns:xlink="http://www.w3.org/1999/xlink" x="0px" y="0px"
	 viewBox="0 0 850 392.61" style="enable-background:new 0 0 850 392.61;" xml:space="preserve">
<style type="text/css">
	.st0{fill:#2D2D2D;}
	.st1{fill:none;}
	.st2{fill:#F6F7F7;}
	.st3{font-family:'ProximaNova-Regular';}
	.st4{font-size:12px;}
	.st5{font-size:14.4px;}
	.st6{fill:#428371;}
	.st7{fill:#63C2A6;}
	.st8{fill:#A2D7C7;}
	.st9{fill:#2D2D2D;stroke:#F6F7F7;stroke-miterlimit:10;}
	.st10{fill:none;stroke:#929497;stroke-miterlimit:10;}
	.st11{fill:none;stroke:#F6F7F7;stroke-miterlimit:10;}
	.st12{font-family:'ProximaNova-RegularIt';}
	.st13{font-size:10.8px;}
	.st14{fill:#929497;}
	.st15{fill:#2D2D2D;stroke:#929497;stroke-miterlimit:10;}
</style>
<rect class="st0" width="850" height="392.97"/>
<rect x="43.8" y="34.37" class="st1" width="47.79" height="10.2"/>
<text transform="matrix(1 0 0 1 43.8013 42.378)" class="st2 st3 st4">SOURCE</text>
<rect x="105.59" y="33.27" class="st1" width="529.64" height="12.4"/>
<text transform="matrix(1 0 0 1 105.5918 42.879)" class="st2 st3 st5">CORPUS_GS + CORPUS_LN + CORPUS_GSE</text>
<rect x="29.4" y="238.22" class="st1" width="85.41" height="37.9"/>
<text transform="matrix(1 0 0 1 37.3857 246.2277)"><tspan x="0" y="0" class="st6 st3 st4">CORPUS_GS</tspan><tspan x="0.59" y="13.2" class="st7 st3 st4">CORPUS_LN</tspan><tspan x="-3.41" y="26.4" class="st8 st3 st4">CORPUS_GSE</tspan></text>
<g>
	<rect x="63.49" y="212.24" class="st9" width="24" height="19.2"/>
	<rect x="59.51" y="207.92" class="st9" width="25.2" height="20.4"/>
	<rect x="56.29" y="206.24" class="st9" width="25.2" height="19.2"/>
</g>
<rect x="37.8" y="26.87" class="st10" width="58.8" height="22.8"/>
<polyline class="st11" points="124.81,110.83 142.21,110.83 142.21,236.59 124.81,236.59 "/>
<line class="st11" x1="158.41" y1="173.71" x2="142.81" y2="173.71"/>
<rect x="32.93" y="134.22" class="st1" width="74.84" height="41.94"/>
<text transform="matrix(1 0 0 1 46.4048 142.2218)"><tspan x="0" y="0" class="st2 st12 st4">list of the </tspan><tspan x="-9.04" y="13.2" class="st2 st12 st4">most funded </tspan><tspan x="-5.02" y="26.4" class="st2 st12 st4">companies </tspan></text>
<rect x="41.39" y="120.86" class="st1" width="57.88" height="9.28"/>
<text transform="matrix(1 0 0 1 58.8125 128.8638)" class="st2 st3 st4">CSV</text>
<g>
	<rect x="64.96" y="100.27" class="st2" width="10.8" height="1.2"/>
	<rect x="64.96" y="103.87" class="st2" width="10.8" height="1.2"/>
	<rect x="64.96" y="107.47" class="st2" width="10.8" height="1.2"/>
	<path class="st2" d="M74.79,89.47h-0.68H60.16v25.2h20.4V94.8v-0.24L74.79,89.47z M75.02,91.03l3.79,3.3l-4.03,0.6L75.02,91.03z
		 M79.36,113.47h-18v-22.8h13.01l-0.5,5.29l5.48-1.06V113.47z"/>
</g>
<rect x="476.78" y="185.91" class="st1" width="67.71" height="55"/>
<text transform="matrix(1 0 0 1 486.9091 193.9151)"><tspan x="0" y="0" class="st2 st12 st4">selection </tspan><tspan x="-9.82" y="13.2" class="st2 st12 st4">of the first 10 </tspan><tspan x="-5.24" y="26.4" class="st2 st12 st4">companies</tspan></text>
<g>
	<g>
		<line class="st11" x1="555.12" y1="173.49" x2="600.84" y2="173.49"/>
		<g>
			<polygon class="st2" points="597.52,177.58 596.84,176.85 600.45,173.49 596.84,170.14 597.52,169.4 601.92,173.49 			"/>
		</g>
	</g>
</g>
<g>
	<g>
		<path class="st2" d="M523.07,176.02h-28.8v-28.8h28.8V176.02z M495.47,174.82h26.4v-26.4h-26.4V174.82z"/>
	</g>
	<g>
		<polygon class="st2" points="512.64,161.85 505.33,153.79 506.22,152.98 512.33,159.73 520.55,142.81 521.63,143.34 		"/>
	</g>
</g>
<g>
	<rect x="359.83" y="154.05" class="st2" width="15.6" height="2.4"/>
	<rect x="359.83" y="160.05" class="st2" width="15.6" height="1.2"/>
	<rect x="359.83" y="164.85" class="st2" width="15.6" height="2.4"/>
	<path class="st2" d="M374.49,138.45h-0.99h-20.87v37.2h30v-29.01v-0.34L374.49,138.45z M374.83,141.14l5.53,4.82l-5.87,0.88
		L374.83,141.14z M381.43,174.45h-26.4v-33.6h18.85l-0.58,7.6l8.14-1.66V174.45z"/>
</g>
<rect x="189.01" y="186.11" class="st1" width="61.8" height="10.48"/>
<text transform="matrix(1 0 0 1 216.2617 194.1183)" class="st2 st3 st4">R</text>
<rect x="167.59" y="200.63" class="st1" width="104.65" height="65.4"/>
<text transform="matrix(1 0 0 1 183.7661 208.6377)"><tspan x="0" y="0" class="st2 st12 st4">count of each </tspan><tspan x="-8.95" y="13.2" class="st2 st12 st4">company’s name </tspan><tspan x="-2.65" y="26.4" class="st2 st12 st4">in each corpus</tspan><tspan x="1.06" y="39.6" class="st2 st12 st4">for each year </tspan><tspan x="4.19" y="52.8" class="st2 st12 st4">(2005-2015)</tspan></text>
<g>
	<g>
		<polygon class="st2" points="210.16,156.79 214.5,154.71 210.16,152.6 210.16,151.5 215.26,154.3 215.26,155.11 210.16,157.89 		
			"/>
	</g>
	<g>
		<path class="st2" d="M210.01,151.25v0.51v0.76v0.19l0.17,0.08l3.97,1.93l-3.97,1.91l-0.17,0.08v0.19v0.76v0.51l0.44-0.24l4.8-2.62
			l0.16-0.09v-0.18v-0.64v-0.18l-0.16-0.09l-4.8-2.63L210.01,151.25L210.01,151.25z"/>
	</g>
</g>
<g>
	<path class="st2" d="M215.11,159.31L215.11,159.31h7.2l0,0H215.11z"/>
	<rect x="215.11" y="158.71" class="st2" width="7.2" height="1.2"/>
</g>
<g>
	<path class="st2" d="M234.31,176.11h-28.8v-28.8h28.8V176.11z M206.71,174.91h26.4v-26.4h-26.4V174.91z"/>
</g>
<rect x="332.96" y="185.94" class="st1" width="69.34" height="20.49"/>
<text transform="matrix(1 0 0 1 357.2652 193.1406)" class="st2 st3 st13">CSV</text>
<g>
	<g>
		<line class="st11" x1="272.24" y1="173.46" x2="319.75" y2="173.46"/>
		<g>
			<polygon class="st2" points="316.44,177.55 315.76,176.81 319.37,173.46 315.76,170.1 316.44,169.37 320.84,173.46 			"/>
		</g>
	</g>
</g>
<rect x="617.66" y="185.94" class="st1" width="69.34" height="20.49"/>
<text transform="matrix(1 0 0 1 618.35 193.1406)" class="st2 st3 st13">ILLUSTRATOR</text>
<g>
	<polyline class="st11" points="636.73,142.6 661.89,155.56 635.23,163.81 652.85,141.47 657.37,173.42 646.01,170.88 	"/>
	<circle class="st9" cx="654.14" cy="139.92" r="2.47"/>
	<circle class="st9" cx="662.18" cy="155.33" r="2.47"/>
	<polyline class="st11" points="634.05,163.36 636.73,142.6 646.1,170.73 	"/>
	<circle class="st9" cx="636.73" cy="142.6" r="2.47"/>
	<circle class="st9" cx="634.05" cy="163.36" r="2.47"/>
	<circle class="st9" cx="646.1" cy="170.73" r="2.47"/>
	<circle class="st9" cx="658.16" cy="173.41" r="2.47"/>
</g>
<g>
	<g>
		<line class="st11" x1="411.2" y1="173.46" x2="458.72" y2="173.46"/>
		<g>
			<polygon class="st2" points="455.41,177.55 454.72,176.81 458.34,173.46 454.72,170.1 455.41,169.37 459.8,173.46 			"/>
		</g>
	</g>
</g>
<g>
	<g>
		<g>
			<path class="st14" d="M182.37,340.26v-0.53l3.17-1.52l-3.17-1.54v-0.53l3.71,1.84v0.45L182.37,340.26z"/>
			<path class="st14" d="M186.3,341.82v-0.46h4.79v0.46H186.3z"/>
			<g>
				<path class="st14" d="M199.41,353.27h-20.33v-20.33h20.33V353.27z M179.92,352.43h18.65v-18.65h-18.65V352.43z"/>
			</g>
		</g>
		<g>
			<path class="st14" d="M180.98,362.22l0.34-0.43c0.29,0.34,0.77,0.64,1.4,0.64c0.8,0,1.05-0.43,1.05-0.78
				c0-1.15-2.65-0.51-2.65-2.11c0-0.74,0.66-1.25,1.54-1.25c0.68,0,1.21,0.24,1.59,0.63l-0.34,0.41c-0.34-0.38-0.81-0.54-1.3-0.54
				c-0.53,0-0.92,0.29-0.92,0.71c0,1.01,2.65,0.43,2.65,2.1c0,0.64-0.44,1.32-1.65,1.32C181.93,362.93,181.35,362.63,180.98,362.22z
				"/>
			<path class="st14" d="M184.98,361.22c0-0.96,0.65-1.7,1.62-1.7c0.59,0,0.94,0.24,1.19,0.56l-0.34,0.3
				c-0.21-0.3-0.49-0.42-0.83-0.42c-0.69,0-1.12,0.53-1.12,1.25s0.44,1.26,1.12,1.26c0.34,0,0.61-0.13,0.83-0.42l0.34,0.31
				c-0.25,0.32-0.6,0.56-1.19,0.56C185.63,362.93,184.98,362.18,184.98,361.22z"/>
			<path class="st14" d="M188.5,362.85v-3.24h0.5v0.52c0.26-0.34,0.64-0.59,1.08-0.59v0.52c-0.06-0.01-0.12-0.01-0.19-0.01
				c-0.32,0-0.74,0.26-0.89,0.52v2.3H188.5z"/>
			<path class="st14" d="M190.63,358.81c0-0.19,0.15-0.34,0.34-0.34c0.19,0,0.34,0.15,0.34,0.34c0,0.19-0.15,0.34-0.34,0.34
				C190.79,359.14,190.63,358.99,190.63,358.81z M190.72,362.85v-3.24h0.5v3.24H190.72z"/>
			<path class="st14" d="M192.74,362.36v1.73h-0.5v-4.48h0.5v0.48c0.24-0.33,0.64-0.56,1.09-0.56c0.85,0,1.44,0.64,1.44,1.7
				c0,1.05-0.59,1.71-1.44,1.71C193.39,362.93,193.01,362.71,192.74,362.36z M194.75,361.22c0-0.72-0.39-1.25-1.04-1.25
				c-0.4,0-0.79,0.24-0.97,0.52v1.46c0.17,0.28,0.57,0.52,0.97,0.52C194.36,362.48,194.75,361.94,194.75,361.22z"/>
			<path class="st14" d="M196.18,362.17v-2.12h-0.54v-0.44h0.54v-0.89h0.51v0.89h0.66v0.44h-0.66v2.02c0,0.24,0.11,0.42,0.32,0.42
				c0.15,0,0.28-0.07,0.34-0.14l0.15,0.38c-0.13,0.12-0.31,0.21-0.6,0.21C196.42,362.93,196.18,362.65,196.18,362.17z"/>
		</g>
	</g>
	<g>
		<g>
			<g>
				<polygon class="st14" points="227.44,351 214.44,351 214.44,333 215.44,333 215.44,350 226.44,350 226.44,333 227.44,333 				
					"/>
			</g>
			<g>
				<path class="st14" d="M220.9,338.99c-1.47,0-2.66-1.19-2.66-2.66c0-1.47,1.19-2.66,2.66-2.66s2.66,1.19,2.66,2.66
					C223.56,337.79,222.37,338.99,220.9,338.99z M220.9,334.51c-1,0-1.82,0.82-1.82,1.82s0.82,1.82,1.82,1.82
					c1,0,1.82-0.82,1.82-1.82S221.91,334.51,220.9,334.51z"/>
			</g>
			<g>
				<polygon class="st14" points="215.12,333.67 214.44,333 220.88,328.13 227.44,333 226.57,333.67 220.87,329.2 				"/>
			</g>
		</g>
		<g>
			<path class="st14" d="M217.45,361.38v-3.98h-1.42v-0.5h3.4v0.5H218v3.98H217.45z"/>
			<path class="st14" d="M221.54,361.38v-0.37c-0.26,0.3-0.64,0.45-1.07,0.45c-0.54,0-1.13-0.37-1.13-1.07
				c0-0.73,0.58-1.07,1.13-1.07c0.44,0,0.81,0.14,1.07,0.44v-0.58c0-0.43-0.35-0.68-0.82-0.68c-0.39,0-0.71,0.13-0.99,0.45
				l-0.24-0.35c0.35-0.36,0.77-0.54,1.3-0.54c0.69,0,1.26,0.31,1.26,1.1v2.23H221.54z M221.54,360.7v-0.62
				c-0.19-0.26-0.54-0.4-0.89-0.4c-0.48,0-0.81,0.3-0.81,0.71c0,0.42,0.33,0.71,0.81,0.71C221,361.1,221.34,360.96,221.54,360.7z"/>
			<path class="st14" d="M223.05,362.21l0.26-0.36c0.27,0.32,0.59,0.44,1.05,0.44c0.54,0,1.05-0.26,1.05-0.95v-0.49
				c-0.24,0.33-0.64,0.58-1.09,0.58c-0.85,0-1.44-0.63-1.44-1.68c0-1.04,0.59-1.69,1.44-1.69c0.44,0,0.83,0.21,1.09,0.57v-0.49h0.5
				v3.2c0,1.03-0.76,1.36-1.55,1.36C223.82,362.7,223.44,362.59,223.05,362.21z M225.41,360.45v-1.42
				c-0.18-0.28-0.57-0.52-0.97-0.52c-0.66,0-1.05,0.52-1.05,1.24c0,0.71,0.39,1.23,1.05,1.23
				C224.84,360.97,225.23,360.73,225.41,360.45z"/>
		</g>
	</g>
	<g>
		<g>
			<g>
				<path class="st14" d="M262.07,352.66h-20.16V332.5h20.16V352.66z M242.75,351.82h18.48v-18.48h-18.48V351.82z"/>
			</g>
			<g>
				<polygon class="st14" points="254.76,342.74 249.65,337.09 250.27,336.53 254.55,341.26 260.3,329.41 261.06,329.78 				"/>
			</g>
		</g>
		<g>
			<path class="st14" d="M237.43,360c0-1.38,1.01-2.32,2.3-2.32c0.79,0,1.34,0.38,1.7,0.89l-0.46,0.26
				c-0.26-0.38-0.73-0.65-1.24-0.65c-0.98,0-1.73,0.75-1.73,1.82c0,1.06,0.75,1.82,1.73,1.82c0.51,0,0.98-0.28,1.24-0.65l0.47,0.26
				c-0.38,0.52-0.91,0.89-1.71,0.89C238.45,362.32,237.43,361.38,237.43,360z"/>
			<path class="st14" d="M242.14,362.24v-4.48h0.5v4.48H242.14z"/>
			<path class="st14" d="M243.46,360.61c0-0.94,0.67-1.7,1.6-1.7c0.98,0,1.56,0.77,1.56,1.74v0.13H244
				c0.04,0.61,0.46,1.12,1.16,1.12c0.38,0,0.75-0.15,1.01-0.42l0.24,0.33c-0.33,0.32-0.77,0.5-1.29,0.5
				C244.15,362.32,243.46,361.63,243.46,360.61z M245.05,359.33c-0.69,0-1.03,0.58-1.06,1.07h2.13
				C246.11,359.93,245.79,359.33,245.05,359.33z"/>
			<path class="st14" d="M249.46,362.24v-0.37c-0.26,0.3-0.64,0.45-1.07,0.45c-0.54,0-1.13-0.37-1.13-1.07
				c0-0.73,0.58-1.07,1.13-1.07c0.44,0,0.81,0.14,1.07,0.44v-0.58c0-0.43-0.35-0.68-0.82-0.68c-0.39,0-0.71,0.13-0.99,0.45
				l-0.24-0.35c0.35-0.36,0.77-0.54,1.3-0.54c0.69,0,1.26,0.31,1.26,1.1v2.23H249.46z M249.46,361.56v-0.62
				c-0.19-0.26-0.54-0.4-0.89-0.4c-0.48,0-0.81,0.3-0.81,0.71c0,0.42,0.33,0.71,0.81,0.71
				C248.92,361.96,249.27,361.82,249.46,361.56z"/>
			<path class="st14" d="M253.18,362.24v-2.12c0-0.58-0.3-0.75-0.73-0.75c-0.4,0-0.77,0.24-0.96,0.5v2.37h-0.5V359h0.5v0.47
				c0.23-0.28,0.67-0.55,1.16-0.55c0.67,0,1.03,0.34,1.03,1.05v2.28H253.18z"/>
			<path class="st14" d="M258.46,362.24v-0.37c-0.26,0.3-0.64,0.45-1.07,0.45c-0.54,0-1.13-0.37-1.13-1.07
				c0-0.73,0.58-1.07,1.13-1.07c0.44,0,0.81,0.14,1.07,0.44v-0.58c0-0.43-0.35-0.68-0.82-0.68c-0.39,0-0.71,0.13-0.99,0.45
				l-0.24-0.35c0.35-0.36,0.77-0.54,1.3-0.54c0.69,0,1.26,0.31,1.26,1.1v2.23H258.46z M258.46,361.56v-0.62
				c-0.19-0.26-0.54-0.4-0.89-0.4c-0.48,0-0.81,0.3-0.81,0.71c0,0.42,0.33,0.71,0.81,0.71
				C257.92,361.96,258.26,361.82,258.46,361.56z"/>
			<path class="st14" d="M262.17,362.24v-2.12c0-0.58-0.3-0.75-0.73-0.75c-0.4,0-0.77,0.24-0.96,0.5v2.37h-0.5V359h0.5v0.47
				c0.23-0.28,0.67-0.55,1.16-0.55c0.67,0,1.03,0.34,1.03,1.05v2.28H262.17z"/>
			<path class="st14" d="M266.04,362.24v-0.48c-0.24,0.33-0.64,0.56-1.09,0.56c-0.85,0-1.44-0.64-1.44-1.7
				c0-1.04,0.6-1.71,1.44-1.71c0.44,0,0.83,0.21,1.09,0.57v-1.73h0.5v4.48H266.04z M266.04,361.35v-1.46
				c-0.17-0.28-0.57-0.52-0.97-0.52c-0.66,0-1.05,0.54-1.05,1.26c0,0.72,0.39,1.25,1.05,1.25
				C265.47,361.87,265.86,361.64,266.04,361.35z"/>
			<path class="st14" d="M239.28,370.3l-1.35-3.24h0.55l1.07,2.66l1.08-2.66h0.54l-1.35,3.24H239.28z"/>
			<path class="st14" d="M243.74,370.3v-0.37c-0.26,0.3-0.64,0.45-1.07,0.45c-0.54,0-1.13-0.37-1.13-1.07
				c0-0.73,0.58-1.07,1.13-1.07c0.44,0,0.81,0.14,1.07,0.44v-0.58c0-0.43-0.35-0.68-0.82-0.68c-0.39,0-0.71,0.13-0.99,0.45
				l-0.24-0.35c0.35-0.36,0.77-0.54,1.3-0.54c0.69,0,1.26,0.31,1.26,1.1v2.23H243.74z M243.74,369.62V369
				c-0.19-0.26-0.54-0.4-0.89-0.4c-0.48,0-0.81,0.3-0.81,0.71c0,0.42,0.33,0.71,0.81,0.71C243.2,370.02,243.54,369.89,243.74,369.62
				z"/>
			<path class="st14" d="M245.26,370.3v-4.48h0.5v4.48H245.26z"/>
			<path class="st14" d="M246.68,366.26c0-0.19,0.15-0.34,0.34-0.34c0.19,0,0.34,0.15,0.34,0.34c0,0.19-0.15,0.34-0.34,0.34
				C246.83,366.6,246.68,366.45,246.68,366.26z M246.77,370.3v-3.24h0.5v3.24H246.77z"/>
			<path class="st14" d="M250.63,370.3v-0.48c-0.24,0.33-0.64,0.56-1.09,0.56c-0.85,0-1.44-0.64-1.44-1.7c0-1.04,0.6-1.71,1.44-1.71
				c0.44,0,0.83,0.21,1.09,0.57v-1.73h0.5v4.48H250.63z M250.63,369.42v-1.46c-0.17-0.28-0.57-0.52-0.97-0.52
				c-0.66,0-1.05,0.54-1.05,1.26c0,0.72,0.39,1.25,1.05,1.25C250.06,369.93,250.46,369.7,250.63,369.42z"/>
			<path class="st14" d="M254.17,370.3v-0.37c-0.26,0.3-0.64,0.45-1.07,0.45c-0.54,0-1.13-0.37-1.13-1.07
				c0-0.73,0.58-1.07,1.13-1.07c0.44,0,0.81,0.14,1.07,0.44v-0.58c0-0.43-0.35-0.68-0.82-0.68c-0.39,0-0.71,0.13-0.99,0.45
				l-0.24-0.35c0.35-0.36,0.77-0.54,1.3-0.54c0.69,0,1.26,0.31,1.26,1.1v2.23H254.17z M254.17,369.62V369
				c-0.19-0.26-0.54-0.4-0.89-0.4c-0.48,0-0.81,0.3-0.81,0.71c0,0.42,0.33,0.71,0.81,0.71
				C253.63,370.02,253.98,369.89,254.17,369.62z"/>
			<path class="st14" d="M255.79,369.63v-2.12h-0.54v-0.44h0.54v-0.89h0.51v0.89h0.66v0.44h-0.66v2.01c0,0.24,0.11,0.42,0.32,0.42
				c0.15,0,0.28-0.07,0.34-0.14l0.15,0.38c-0.13,0.12-0.31,0.21-0.6,0.21C256.03,370.39,255.79,370.11,255.79,369.63z"/>
			<path class="st14" d="M257.58,366.26c0-0.19,0.15-0.34,0.34-0.34c0.19,0,0.34,0.15,0.34,0.34c0,0.19-0.15,0.34-0.34,0.34
				C257.73,366.6,257.58,366.45,257.58,366.26z M257.67,370.3v-3.24h0.5v3.24H257.67z"/>
			<path class="st14" d="M258.99,368.68c0-0.94,0.62-1.7,1.6-1.7c0.99,0,1.61,0.76,1.61,1.7c0,0.94-0.62,1.71-1.61,1.71
				C259.61,370.39,258.99,369.62,258.99,368.68z M261.67,368.68c0-0.66-0.38-1.25-1.07-1.25c-0.69,0-1.07,0.59-1.07,1.25
				c0,0.66,0.38,1.26,1.07,1.26C261.29,369.93,261.67,369.34,261.67,368.68z"/>
			<path class="st14" d="M265.22,370.3v-2.12c0-0.58-0.3-0.75-0.73-0.75c-0.4,0-0.77,0.24-0.96,0.5v2.37h-0.5v-3.24h0.5v0.47
				c0.23-0.28,0.67-0.55,1.16-0.55c0.67,0,1.03,0.34,1.03,1.05v2.28H265.22z"/>
		</g>
	</g>
	<g>
		<g>
			<rect x="146.52" y="338.34" class="st15" width="17.64" height="14.28"/>
			<rect x="142.48" y="335.26" class="st15" width="19.32" height="15.12"/>
			<rect x="139.96" y="332.74" class="st15" width="19.32" height="15.12"/>
		</g>
		<g>
			<path class="st14" d="M141.75,359.96c0-1.38,1.01-2.32,2.3-2.32c0.79,0,1.34,0.38,1.7,0.89l-0.46,0.26
				c-0.26-0.38-0.73-0.65-1.24-0.65c-0.98,0-1.73,0.75-1.73,1.82c0,1.06,0.75,1.82,1.73,1.82c0.51,0,0.98-0.28,1.24-0.65l0.47,0.26
				c-0.38,0.52-0.91,0.89-1.71,0.89C142.77,362.28,141.75,361.34,141.75,359.96z"/>
			<path class="st14" d="M146.27,360.57c0-0.94,0.62-1.7,1.6-1.7s1.61,0.76,1.61,1.7c0,0.94-0.62,1.71-1.61,1.71
				S146.27,361.52,146.27,360.57z M148.95,360.57c0-0.66-0.38-1.25-1.07-1.25c-0.69,0-1.07,0.59-1.07,1.25
				c0,0.67,0.38,1.26,1.07,1.26C148.56,361.83,148.95,361.24,148.95,360.57z"/>
			<path class="st14" d="M150.3,362.2v-3.24h0.5v0.52c0.26-0.34,0.64-0.59,1.08-0.59v0.52c-0.06-0.01-0.12-0.01-0.19-0.01
				c-0.32,0-0.74,0.26-0.89,0.52v2.3H150.3z"/>
			<path class="st14" d="M153.02,361.71v1.73h-0.5v-4.48h0.5v0.48c0.24-0.33,0.64-0.56,1.09-0.56c0.85,0,1.44,0.64,1.44,1.7
				c0,1.05-0.59,1.71-1.44,1.71C153.67,362.28,153.29,362.07,153.02,361.71z M155.03,360.57c0-0.72-0.39-1.25-1.04-1.25
				c-0.4,0-0.79,0.24-0.97,0.52v1.46c0.17,0.28,0.57,0.52,0.97,0.52C154.64,361.83,155.03,361.29,155.03,360.57z"/>
			<path class="st14" d="M158.55,362.2v-0.46c-0.25,0.28-0.67,0.54-1.15,0.54c-0.68,0-1.03-0.34-1.03-1.03v-2.29h0.5v2.14
				c0,0.57,0.29,0.74,0.73,0.74c0.39,0,0.77-0.23,0.95-0.49v-2.38h0.5v3.24H158.55z"/>
			<path class="st14" d="M159.79,361.77l0.26-0.36c0.21,0.25,0.62,0.46,1.07,0.46c0.5,0,0.77-0.24,0.77-0.56
				c0-0.79-2.01-0.3-2.01-1.5c0-0.51,0.43-0.93,1.2-0.93c0.56,0,0.95,0.21,1.2,0.47l-0.24,0.35c-0.19-0.24-0.54-0.41-0.97-0.41
				c-0.44,0-0.72,0.22-0.72,0.51c0,0.71,2.01,0.24,2.01,1.5c0,0.54-0.44,0.98-1.27,0.98C160.56,362.28,160.12,362.11,159.79,361.77z
				"/>
		</g>
	</g>
	<g>
		<g>
			<g>
				<g>
					<line class="st14" x1="112.85" y1="327.06" x2="112.85" y2="345.48"/>
				</g>
				<g>
					<g>
						<rect x="112.43" y="327.06" class="st14" width="0.84" height="17.5"/>
					</g>
					<g>
						<g>
							<polygon class="st14" points="109.42,341.78 110.03,341.21 112.85,344.24 115.67,341.21 116.29,341.78 112.85,345.48 							
								"/>
						</g>
					</g>
				</g>
			</g>
			<g>
				<path class="st14" d="M125.03,352.79h-24.36v-16.8h24.36V352.79z M101.51,351.95h22.68v-15.12h-22.68V351.95z"/>
			</g>
		</g>
		<g>
			<path class="st14" d="M98.39,362.29v-4.48h1.53c1.4,0,2.3,0.97,2.3,2.24c0,1.28-0.9,2.24-2.3,2.24H98.39z M101.64,360.06
				c0-0.97-0.61-1.75-1.72-1.75h-0.97v3.49h0.97C101.01,361.8,101.64,361.02,101.64,360.06z"/>
			<path class="st14" d="M102.88,360.67c0-0.94,0.62-1.7,1.6-1.7c0.99,0,1.61,0.76,1.61,1.7c0,0.94-0.62,1.71-1.61,1.71
				C103.5,362.38,102.88,361.61,102.88,360.67z M105.56,360.67c0-0.66-0.38-1.25-1.07-1.25c-0.69,0-1.07,0.59-1.07,1.25
				c0,0.67,0.38,1.26,1.07,1.26C105.18,361.92,105.56,361.33,105.56,360.67z"/>
			<path class="st14" d="M109.72,362.29l-0.85-2.61l-0.85,2.61h-0.5l-1.03-3.24h0.52l0.79,2.59l0.85-2.59h0.44l0.85,2.59l0.79-2.59
				h0.53l-1.03,3.24H109.72z"/>
			<path class="st14" d="M114.04,362.29v-2.12c0-0.58-0.3-0.75-0.73-0.75c-0.4,0-0.77,0.24-0.96,0.5v2.37h-0.5v-3.24h0.5v0.47
				c0.23-0.28,0.67-0.55,1.16-0.55c0.67,0,1.03,0.34,1.03,1.05v2.28H114.04z"/>
			<path class="st14" d="M115.56,362.29v-4.48h0.5v4.48H115.56z"/>
			<path class="st14" d="M116.88,360.67c0-0.94,0.62-1.7,1.6-1.7s1.61,0.76,1.61,1.7c0,0.94-0.62,1.71-1.61,1.71
				S116.88,361.61,116.88,360.67z M119.56,360.67c0-0.66-0.38-1.25-1.07-1.25c-0.69,0-1.07,0.59-1.07,1.25
				c0,0.67,0.38,1.26,1.07,1.26C119.18,361.92,119.56,361.33,119.56,360.67z"/>
			<path class="st14" d="M122.94,362.29v-0.37c-0.26,0.3-0.64,0.45-1.07,0.45c-0.54,0-1.13-0.37-1.13-1.07
				c0-0.73,0.58-1.07,1.13-1.07c0.44,0,0.81,0.14,1.07,0.44v-0.58c0-0.43-0.35-0.68-0.82-0.68c-0.39,0-0.71,0.13-0.99,0.45
				l-0.24-0.35c0.35-0.36,0.77-0.54,1.3-0.54c0.69,0,1.26,0.31,1.26,1.1v2.23H122.94z M122.94,361.61v-0.62
				c-0.19-0.26-0.54-0.4-0.89-0.4c-0.48,0-0.81,0.3-0.81,0.71c0,0.42,0.33,0.71,0.81,0.71C122.4,362.01,122.75,361.88,122.94,361.61
				z"/>
			<path class="st14" d="M126.81,362.29v-0.48c-0.24,0.33-0.64,0.56-1.09,0.56c-0.85,0-1.44-0.64-1.44-1.7
				c0-1.04,0.6-1.71,1.44-1.71c0.44,0,0.83,0.21,1.09,0.57v-1.73h0.5v4.48H126.81z M126.81,361.41v-1.46
				c-0.17-0.28-0.57-0.52-0.97-0.52c-0.66,0-1.05,0.54-1.05,1.26c0,0.72,0.39,1.25,1.05,1.25
				C126.24,361.92,126.64,361.69,126.81,361.41z"/>
		</g>
	</g>
	<g>
		<g>
			<rect x="74.43" y="342.91" class="st14" width="7.56" height="0.84"/>
			<rect x="74.43" y="345.43" class="st14" width="7.56" height="0.84"/>
			<rect x="74.43" y="347.95" class="st14" width="7.56" height="0.84"/>
			<path class="st14" d="M81.31,335.35h-0.47h-9.77v17.64h14.28v-13.91v-0.16L81.31,335.35z M81.47,336.44l2.66,2.31l-2.82,0.42
				L81.47,336.44z M84.51,352.15h-12.6v-15.96h9.11l-0.35,3.7l3.84-0.74V352.15z"/>
		</g>
		<g>
			<path class="st14" d="M66.82,362.5v-4.48h1.53c1.4,0,2.3,0.97,2.3,2.24c0,1.28-0.9,2.24-2.3,2.24H66.82z M70.07,360.26
				c0-0.97-0.61-1.75-1.72-1.75h-0.97V362h0.97C69.44,362,70.07,361.22,70.07,360.26z"/>
			<path class="st14" d="M73.53,362.5v-0.37c-0.26,0.3-0.64,0.45-1.07,0.45c-0.54,0-1.13-0.37-1.13-1.07c0-0.73,0.58-1.07,1.13-1.07
				c0.44,0,0.81,0.14,1.07,0.44v-0.58c0-0.43-0.35-0.68-0.82-0.68c-0.39,0-0.71,0.13-0.99,0.45l-0.24-0.35
				c0.35-0.36,0.77-0.54,1.3-0.54c0.69,0,1.26,0.31,1.26,1.1v2.23H73.53z M73.53,361.81v-0.62c-0.19-0.26-0.54-0.4-0.89-0.4
				c-0.48,0-0.81,0.3-0.81,0.71c0,0.42,0.33,0.71,0.81,0.71C73,362.21,73.34,362.08,73.53,361.81z"/>
			<path class="st14" d="M75.16,361.82v-2.12h-0.54v-0.44h0.54v-0.89h0.51v0.89h0.66v0.44h-0.66v2.02c0,0.24,0.11,0.42,0.32,0.42
				c0.15,0,0.28-0.07,0.34-0.14l0.15,0.38c-0.13,0.12-0.31,0.21-0.6,0.21C75.4,362.58,75.16,362.3,75.16,361.82z"/>
			<path class="st14" d="M79.06,362.5v-0.37c-0.26,0.3-0.64,0.45-1.07,0.45c-0.54,0-1.13-0.37-1.13-1.07c0-0.73,0.58-1.07,1.13-1.07
				c0.44,0,0.81,0.14,1.07,0.44v-0.58c0-0.43-0.35-0.68-0.82-0.68c-0.39,0-0.71,0.13-0.99,0.45l-0.24-0.35
				c0.35-0.36,0.77-0.54,1.3-0.54c0.69,0,1.26,0.31,1.26,1.1v2.23H79.06z M79.06,361.81v-0.62c-0.19-0.26-0.54-0.4-0.89-0.4
				c-0.48,0-0.81,0.3-0.81,0.71c0,0.42,0.33,0.71,0.81,0.71C78.52,362.21,78.86,362.08,79.06,361.81z"/>
			<path class="st14" d="M80.3,362.07l0.26-0.36c0.21,0.25,0.62,0.46,1.07,0.46c0.5,0,0.77-0.24,0.77-0.56c0-0.79-2.01-0.3-2.01-1.5
				c0-0.51,0.43-0.93,1.2-0.93c0.56,0,0.95,0.21,1.2,0.47l-0.24,0.35c-0.19-0.24-0.54-0.41-0.97-0.41c-0.44,0-0.72,0.22-0.72,0.51
				c0,0.71,2.01,0.24,2.01,1.5c0,0.54-0.44,0.98-1.27,0.98C81.08,362.58,80.63,362.41,80.3,362.07z"/>
			<path class="st14" d="M83.52,360.87c0-0.94,0.67-1.7,1.6-1.7c0.98,0,1.56,0.77,1.56,1.74v0.13h-2.62
				c0.04,0.61,0.46,1.12,1.16,1.12c0.38,0,0.75-0.15,1.01-0.42l0.24,0.33c-0.33,0.32-0.77,0.5-1.29,0.5
				C84.21,362.58,83.52,361.89,83.52,360.87z M85.11,359.59c-0.69,0-1.03,0.58-1.06,1.07h2.13
				C86.17,360.19,85.85,359.59,85.11,359.59z"/>
			<path class="st14" d="M87.59,361.82v-2.12h-0.54v-0.44h0.54v-0.89h0.51v0.89h0.66v0.44H88.1v2.02c0,0.24,0.11,0.42,0.32,0.42
				c0.15,0,0.28-0.07,0.34-0.14l0.15,0.38c-0.13,0.12-0.31,0.21-0.6,0.21C87.83,362.58,87.59,362.3,87.59,361.82z"/>
		</g>
	</g>
	<g>
		<g>
			<g>
				<path class="st14" d="M50.34,353H39.97l-5.2-9l5.2-9h10.38l5.2,9L50.34,353z M40.65,352h8.85l5.07-8.26l-4.7-7.74h-9.42
					l-4.7,7.74L40.65,352z"/>
			</g>
			<g>
				<path class="st14" d="M48.53,349h-6.75l-3.4-5.5l3.4-5.5h6.75l3.4,5.5L48.53,349z M42.25,348h5.82l2.88-4.5l-2.88-4.5h-5.82
					l-2.88,4.5L42.25,348z"/>
			</g>
		</g>
		<g>
			<path class="st14" d="M39.38,362.22v-3.98h-1.42v-0.5h3.4v0.5h-1.42v3.98H39.38z"/>
			<path class="st14" d="M41.12,360.59c0-0.94,0.62-1.7,1.6-1.7c0.99,0,1.61,0.76,1.61,1.7c0,0.94-0.62,1.71-1.61,1.71
				C41.74,362.3,41.12,361.54,41.12,360.59z M43.8,360.59c0-0.66-0.38-1.25-1.07-1.25c-0.69,0-1.07,0.59-1.07,1.25
				c0,0.67,0.38,1.26,1.07,1.26C43.42,361.85,43.8,361.26,43.8,360.59z"/>
			<path class="st14" d="M44.96,360.59c0-0.94,0.62-1.7,1.6-1.7c0.99,0,1.61,0.76,1.61,1.7c0,0.94-0.62,1.71-1.61,1.71
				C45.58,362.3,44.96,361.54,44.96,360.59z M47.64,360.59c0-0.66-0.38-1.25-1.07-1.25c-0.69,0-1.07,0.59-1.07,1.25
				c0,0.67,0.38,1.26,1.07,1.26C47.26,361.85,47.64,361.26,47.64,360.59z"/>
			<path class="st14" d="M49,362.22v-4.48h0.5v4.48H49z"/>
		</g>
	</g>
	<line class="st10" x1="34.44" y1="322.5" x2="267.44" y2="322.5"/>
</g>
</svg>
