<?xml version="1.0" encoding="utf-8"?>
<!-- Generator: Adobe Illustrator 19.0.0, SVG Export Plug-In . SVG Version: 6.00 Build 0)  -->
<svg version="1.1" id="Livello_1" xmlns="http://www.w3.org/2000/svg" xmlns:xlink="http://www.w3.org/1999/xlink" x="0px" y="0px"
	 viewBox="0 0 850 374.01" style="enable-background:new 0 0 850 374.01;" xml:space="preserve">
<style type="text/css">
	.st0{fill:#2D2D2D;}
	.st1{fill:none;}
	.st2{fill:#F6F7F7;}
	.st3{font-family:'ProximaNova-Regular';}
	.st4{font-size:12px;}
	.st5{font-size:14.4px;}
	.st6{fill:#428371;}
	.st7{fill:#2D2D2D;stroke:#F6F7F7;stroke-miterlimit:10;}
	.st8{fill:#63C2A6;}
	.st9{fill:#A2D7C7;}
	.st10{fill:none;stroke:#929497;stroke-miterlimit:10;}
	.st11{fill:none;stroke:#F6F7F7;stroke-miterlimit:10;}
	.st12{font-family:'ProximaNova-RegularIt';}
	.st13{font-size:10.8px;}
	.st14{fill:#929497;}
	.st15{fill:#2D2D2D;stroke:#929497;stroke-miterlimit:10;}
</style>
<rect x="-0.15" class="st0" width="850.15" height="374.01"/>
<rect x="34.62" y="31.57" class="st1" width="47.79" height="10.2"/>
<text transform="matrix(1 0 0 1 34.619 39.5782)" class="st2 st3 st4">SOURCE</text>
<rect x="96.41" y="30.47" class="st1" width="544.03" height="12.4"/>
<text transform="matrix(1 0 0 1 96.409 40.0792)" class="st2 st3 st5">AUTHORS_GS + AUTHORS_LN + CORPUS_GS + CORPUS_LN + CORPUS_GSE</text>
<rect x="28.62" y="135.44" class="st1" width="85.41" height="12.11"/>
<text transform="matrix(1 0 0 1 36.6035 143.443)" class="st6 st3 st4">CORPUS_GS</text>
<g>
	<rect x="62.71" y="109.45" class="st7" width="24" height="19.2"/>
	<rect x="58.72" y="105.13" class="st7" width="25.2" height="20.4"/>
	<rect x="55.51" y="103.45" class="st7" width="25.2" height="19.2"/>
</g>
<rect x="28.62" y="192.08" class="st1" width="85.41" height="12.11"/>
<text transform="matrix(1 0 0 1 37.1914 200.0816)" class="st8 st3 st4">CORPUS_LN</text>
<g>
	<rect x="62.71" y="166.09" class="st7" width="24" height="19.2"/>
	<rect x="58.72" y="161.77" class="st7" width="25.2" height="20.4"/>
	<rect x="55.51" y="160.09" class="st7" width="25.2" height="19.2"/>
</g>
<rect x="28.62" y="247" class="st1" width="85.41" height="12.11"/>
<text transform="matrix(1 0 0 1 33.1894 255.0069)" class="st9 st3 st4">CORPUS_GSE</text>
<g>
	<rect x="62.71" y="221.02" class="st7" width="24" height="19.2"/>
	<rect x="58.72" y="216.7" class="st7" width="25.2" height="20.4"/>
	<rect x="55.51" y="215.02" class="st7" width="25.2" height="19.2"/>
</g>
<rect x="28.62" y="24.07" class="st10" width="58.8" height="22.8"/>
<polyline class="st11" points="123.07,119.31 139.27,119.31 139.27,235.78 121.87,235.78 "/>
<g>
	<g>
		<line class="st11" x1="139.87" y1="177.55" x2="186.79" y2="177.55"/>
		<g>
			<polygon class="st2" points="183.47,181.64 182.79,180.9 186.4,177.55 182.79,174.19 183.47,173.46 187.87,177.55 			"/>
		</g>
	</g>
</g>
<rect x="209.29" y="183.31" class="st1" width="61.8" height="10.48"/>
<text transform="matrix(1 0 0 1 236.5418 191.3184)" class="st2 st3 st4">R</text>
<rect x="202.46" y="197.83" class="st1" width="75.47" height="37.94"/>
<text transform="matrix(1 0 0 1 213.8681 205.838)"><tspan x="0" y="0" class="st2 st12 st4">extraction </tspan><tspan x="-7.67" y="13.2" class="st2 st12 st4">of most used </tspan><tspan x="10.27" y="26.4" class="st2 st12 st4">words</tspan></text>
<g>
	<g>
		<polygon class="st2" points="230.45,153.99 234.78,151.91 230.45,149.8 230.45,148.7 235.55,151.5 235.55,152.31 230.45,155.09 		
			"/>
	</g>
	<g>
		<path class="st2" d="M230.3,148.45v0.51v0.76v0.19l0.17,0.08l3.97,1.93l-3.97,1.91l-0.17,0.08v0.19v0.76v0.51l0.44-0.24l4.8-2.62
			l0.16-0.09v-0.18v-0.64v-0.18l-0.16-0.09l-4.8-2.63L230.3,148.45L230.3,148.45z"/>
	</g>
</g>
<g>
	<path class="st2" d="M235.4,156.51L235.4,156.51h7.2l0,0H235.4z"/>
	<rect x="235.4" y="155.91" class="st2" width="7.2" height="1.2"/>
</g>
<g>
	<path class="st2" d="M254.6,173.31h-28.8v-28.8h28.8V173.31z M227,172.11h26.4v-26.4H227V172.11z"/>
</g>
<rect x="358.68" y="183.31" class="st1" width="61.8" height="10.48"/>
<text transform="matrix(1 0 0 1 385.931 191.3184)" class="st2 st3 st4">R</text>
<rect x="346.17" y="197.83" class="st1" width="86.83" height="69.69"/>
<text transform="matrix(1 0 0 1 356.5321 205.838)"><tspan x="0" y="0" class="st2 st12 st4">average use </tspan><tspan x="-4.36" y="13.2" class="st2 st12 st4">of each words </tspan><tspan x="-2.03" y="26.4" class="st2 st12 st4">for each year </tspan><tspan x="-5.75" y="39.6" class="st2 st12 st4">in each corpus</tspan></text>
<g>
	<g>
		<polygon class="st2" points="379.83,153.99 384.17,151.91 379.83,149.8 379.83,148.7 384.93,151.5 384.93,152.31 379.83,155.09 		
			"/>
	</g>
	<g>
		<path class="st2" d="M379.68,148.45v0.51v0.76v0.19l0.17,0.08l3.97,1.93l-3.97,1.91l-0.17,0.08v0.19v0.76v0.51l0.44-0.24l4.8-2.62
			l0.16-0.09v-0.18v-0.64v-0.18l-0.16-0.09l-4.8-2.63L379.68,148.45L379.68,148.45z"/>
	</g>
</g>
<g>
	<path class="st2" d="M384.78,156.51L384.78,156.51h7.2l0,0H384.78z"/>
	<rect x="384.78" y="155.91" class="st2" width="7.2" height="1.2"/>
</g>
<g>
	<path class="st2" d="M403.98,173.31h-28.8v-28.8h28.8V173.31z M376.38,172.11h26.4v-26.4h-26.4V172.11z"/>
</g>
<g>
	<g>
		<line class="st11" x1="294.98" y1="177.48" x2="342.49" y2="177.48"/>
		<g>
			<polygon class="st2" points="339.18,181.57 338.5,180.83 342.11,177.48 338.5,174.12 339.18,173.39 343.58,177.48 			"/>
		</g>
	</g>
</g>
<rect x="497.77" y="182.89" class="st1" width="69.34" height="20.49"/>
<text transform="matrix(1 0 0 1 516.7407 190.09)"><tspan x="0" y="0" class="st2 st3 st13">RAW + </tspan><tspan x="-18.28" y="10.8" class="st2 st3 st13">ILLUSTRATOR</tspan></text>
<g>
	<polyline class="st11" points="516.84,140.09 542.01,153.05 515.34,161.3 532.96,138.95 537.48,170.91 526.12,168.37 	"/>
	<circle class="st7" cx="534.25" cy="137.41" r="2.47"/>
	<circle class="st7" cx="542.29" cy="152.81" r="2.47"/>
	<polyline class="st11" points="514.16,160.85 516.84,140.09 526.22,168.22 	"/>
	<circle class="st7" cx="516.84" cy="140.09" r="2.47"/>
	<circle class="st7" cx="514.16" cy="160.85" r="2.47"/>
	<circle class="st7" cx="526.22" cy="168.22" r="2.47"/>
	<circle class="st7" cx="538.27" cy="170.9" r="2.47"/>
</g>
<g>
	<g>
		<line class="st11" x1="433.94" y1="177.48" x2="481.46" y2="177.48"/>
		<g>
			<polygon class="st2" points="478.14,181.57 477.46,180.83 481.07,177.48 477.46,174.12 478.14,173.39 482.54,177.48 			"/>
		</g>
	</g>
</g>
<g>
	<g>
		<g>
			<path class="st14" d="M176.78,323.06v-0.53l3.17-1.52l-3.17-1.54v-0.53l3.71,1.84v0.45L176.78,323.06z"/>
			<path class="st14" d="M180.71,324.62v-0.46h4.79v0.46H180.71z"/>
			<g>
				<path class="st14" d="M193.82,336.07H173.5v-20.33h20.33V336.07z M174.34,335.23h18.65v-18.65h-18.65V335.23z"/>
			</g>
		</g>
		<g>
			<path class="st14" d="M175.4,345.02l0.34-0.43c0.29,0.34,0.77,0.64,1.4,0.64c0.8,0,1.05-0.43,1.05-0.78
				c0-1.15-2.65-0.51-2.65-2.11c0-0.74,0.66-1.25,1.54-1.25c0.68,0,1.21,0.24,1.59,0.63l-0.34,0.41c-0.34-0.38-0.81-0.54-1.3-0.54
				c-0.53,0-0.92,0.29-0.92,0.71c0,1.01,2.65,0.43,2.65,2.1c0,0.64-0.44,1.32-1.65,1.32C176.35,345.73,175.77,345.43,175.4,345.02z"
				/>
			<path class="st14" d="M179.4,344.02c0-0.96,0.65-1.7,1.62-1.7c0.59,0,0.94,0.24,1.19,0.56l-0.34,0.3
				c-0.21-0.3-0.49-0.42-0.83-0.42c-0.69,0-1.12,0.53-1.12,1.25s0.44,1.26,1.12,1.26c0.34,0,0.61-0.13,0.83-0.42l0.34,0.31
				c-0.25,0.32-0.6,0.56-1.19,0.56C180.05,345.73,179.4,344.98,179.4,344.02z"/>
			<path class="st14" d="M182.92,345.65v-3.24h0.5v0.52c0.26-0.34,0.64-0.59,1.08-0.59v0.52c-0.06-0.01-0.12-0.01-0.19-0.01
				c-0.32,0-0.74,0.26-0.89,0.52v2.3H182.92z"/>
			<path class="st14" d="M185.05,341.61c0-0.19,0.15-0.34,0.34-0.34c0.19,0,0.34,0.15,0.34,0.34c0,0.19-0.15,0.34-0.34,0.34
				C185.21,341.94,185.05,341.79,185.05,341.61z M185.14,345.65v-3.24h0.5v3.24H185.14z"/>
			<path class="st14" d="M187.15,345.16v1.73h-0.5v-4.48h0.5v0.48c0.24-0.33,0.64-0.56,1.09-0.56c0.85,0,1.44,0.64,1.44,1.7
				c0,1.05-0.59,1.71-1.44,1.71C187.81,345.73,187.42,345.51,187.15,345.16z M189.16,344.02c0-0.72-0.39-1.25-1.04-1.25
				c-0.4,0-0.79,0.24-0.97,0.52v1.46c0.17,0.28,0.57,0.52,0.97,0.52C188.77,345.28,189.16,344.74,189.16,344.02z"/>
			<path class="st14" d="M190.6,344.97v-2.12h-0.54v-0.44h0.54v-0.89h0.51v0.89h0.66v0.44h-0.66v2.02c0,0.24,0.11,0.42,0.32,0.42
				c0.15,0,0.28-0.07,0.34-0.14l0.15,0.38c-0.13,0.12-0.31,0.21-0.6,0.21C190.84,345.73,190.6,345.45,190.6,344.97z"/>
		</g>
	</g>
	<g>
		<g>
			<g>
				<polygon class="st14" points="221.85,334 208.85,334 208.85,316 209.85,316 209.85,333 220.85,333 220.85,316 221.85,316 				
					"/>
			</g>
			<g>
				<path class="st14" d="M215.32,321.79c-1.47,0-2.66-1.19-2.66-2.66c0-1.47,1.19-2.66,2.66-2.66s2.66,1.19,2.66,2.66
					C217.98,320.59,216.79,321.79,215.32,321.79z M215.32,317.31c-1,0-1.82,0.82-1.82,1.82c0,1,0.82,1.82,1.82,1.82
					c1,0,1.82-0.82,1.82-1.82C217.14,318.12,216.32,317.31,215.32,317.31z"/>
			</g>
			<g>
				<polygon class="st14" points="209.53,316.47 208.85,316 215.29,310.93 221.85,316 220.98,316.47 215.29,312 				"/>
			</g>
		</g>
		<g>
			<path class="st14" d="M211.86,344.18v-3.98h-1.42v-0.5h3.4v0.5h-1.42v3.98H211.86z"/>
			<path class="st14" d="M215.96,344.18v-0.37c-0.26,0.3-0.64,0.45-1.07,0.45c-0.54,0-1.13-0.37-1.13-1.07
				c0-0.73,0.58-1.07,1.13-1.07c0.44,0,0.81,0.14,1.07,0.44v-0.58c0-0.43-0.35-0.68-0.82-0.68c-0.39,0-0.71,0.13-0.99,0.45
				l-0.24-0.35c0.35-0.36,0.77-0.54,1.3-0.54c0.69,0,1.26,0.31,1.26,1.1v2.23H215.96z M215.96,343.5v-0.62
				c-0.19-0.26-0.54-0.4-0.89-0.4c-0.48,0-0.81,0.3-0.81,0.71c0,0.42,0.33,0.71,0.81,0.71C215.42,343.9,215.76,343.76,215.96,343.5z
				"/>
			<path class="st14" d="M217.47,345.01l0.26-0.36c0.27,0.32,0.59,0.44,1.05,0.44c0.54,0,1.05-0.26,1.05-0.95v-0.49
				c-0.24,0.33-0.64,0.58-1.09,0.58c-0.85,0-1.44-0.63-1.44-1.68c0-1.04,0.59-1.69,1.44-1.69c0.44,0,0.83,0.21,1.09,0.57v-0.49h0.5
				v3.2c0,1.03-0.76,1.36-1.55,1.36C218.24,345.5,217.86,345.39,217.47,345.01z M219.83,343.25v-1.42
				c-0.18-0.28-0.57-0.52-0.97-0.52c-0.66,0-1.05,0.52-1.05,1.24c0,0.71,0.39,1.23,1.05,1.23
				C219.26,343.77,219.65,343.53,219.83,343.25z"/>
		</g>
	</g>
	<g>
		<g>
			<g>
				<path class="st14" d="M256.49,335.46h-20.16V315.3h20.16V335.46z M237.17,334.62h18.48v-18.48h-18.48V334.62z"/>
			</g>
			<g>
				<polygon class="st14" points="249.18,325.54 244.07,319.89 244.69,319.33 248.97,324.06 254.72,312.21 255.48,312.58 				"/>
			</g>
		</g>
		<g>
			<path class="st14" d="M231.85,342.8c0-1.38,1.01-2.32,2.3-2.32c0.79,0,1.34,0.38,1.7,0.89l-0.46,0.26
				c-0.26-0.38-0.73-0.65-1.24-0.65c-0.98,0-1.73,0.75-1.73,1.82c0,1.06,0.75,1.82,1.73,1.82c0.51,0,0.98-0.28,1.24-0.65l0.47,0.26
				c-0.38,0.52-0.91,0.89-1.71,0.89C232.87,345.12,231.85,344.18,231.85,342.8z"/>
			<path class="st14" d="M236.55,345.04v-4.48h0.5v4.48H236.55z"/>
			<path class="st14" d="M237.88,343.41c0-0.94,0.67-1.7,1.6-1.7c0.98,0,1.56,0.77,1.56,1.74v0.13h-2.62
				c0.04,0.61,0.46,1.12,1.16,1.12c0.38,0,0.75-0.15,1.01-0.42l0.24,0.33c-0.33,0.32-0.77,0.5-1.29,0.5
				C238.57,345.12,237.88,344.43,237.88,343.41z M239.47,342.13c-0.69,0-1.03,0.58-1.06,1.07h2.13
				C240.53,342.73,240.21,342.13,239.47,342.13z"/>
			<path class="st14" d="M243.88,345.04v-0.37c-0.26,0.3-0.64,0.45-1.07,0.45c-0.54,0-1.13-0.37-1.13-1.07
				c0-0.73,0.58-1.07,1.13-1.07c0.44,0,0.81,0.14,1.07,0.44v-0.58c0-0.43-0.35-0.68-0.82-0.68c-0.39,0-0.71,0.13-0.99,0.45
				l-0.24-0.35c0.35-0.36,0.77-0.54,1.3-0.54c0.69,0,1.26,0.31,1.26,1.1v2.23H243.88z M243.88,344.36v-0.62
				c-0.19-0.26-0.54-0.4-0.89-0.4c-0.48,0-0.81,0.3-0.81,0.71c0,0.42,0.33,0.71,0.81,0.71
				C243.34,344.76,243.68,344.62,243.88,344.36z"/>
			<path class="st14" d="M247.59,345.04v-2.12c0-0.58-0.3-0.75-0.73-0.75c-0.4,0-0.77,0.24-0.96,0.5v2.37h-0.5v-3.24h0.5v0.47
				c0.23-0.28,0.67-0.55,1.16-0.55c0.67,0,1.03,0.34,1.03,1.05v2.28H247.59z"/>
			<path class="st14" d="M252.88,345.04v-0.37c-0.26,0.3-0.64,0.45-1.07,0.45c-0.54,0-1.13-0.37-1.13-1.07
				c0-0.73,0.58-1.07,1.13-1.07c0.44,0,0.81,0.14,1.07,0.44v-0.58c0-0.43-0.35-0.68-0.82-0.68c-0.39,0-0.71,0.13-0.99,0.45
				l-0.24-0.35c0.35-0.36,0.77-0.54,1.3-0.54c0.69,0,1.26,0.31,1.26,1.1v2.23H252.88z M252.88,344.36v-0.62
				c-0.19-0.26-0.54-0.4-0.89-0.4c-0.48,0-0.81,0.3-0.81,0.71c0,0.42,0.33,0.71,0.81,0.71
				C252.34,344.76,252.68,344.62,252.88,344.36z"/>
			<path class="st14" d="M256.59,345.04v-2.12c0-0.58-0.3-0.75-0.73-0.75c-0.4,0-0.77,0.24-0.96,0.5v2.37h-0.5v-3.24h0.5v0.47
				c0.23-0.28,0.67-0.55,1.16-0.55c0.67,0,1.03,0.34,1.03,1.05v2.28H256.59z"/>
			<path class="st14" d="M260.46,345.04v-0.48c-0.24,0.33-0.64,0.56-1.09,0.56c-0.85,0-1.44-0.64-1.44-1.7
				c0-1.04,0.6-1.71,1.44-1.71c0.44,0,0.83,0.21,1.09,0.57v-1.73h0.5v4.48H260.46z M260.46,344.15v-1.46
				c-0.17-0.28-0.57-0.52-0.97-0.52c-0.66,0-1.05,0.54-1.05,1.26c0,0.72,0.39,1.25,1.05,1.25
				C259.88,344.67,260.28,344.44,260.46,344.15z"/>
			<path class="st14" d="M233.7,353.1l-1.35-3.24h0.55l1.07,2.66l1.08-2.66h0.54l-1.35,3.24H233.7z"/>
			<path class="st14" d="M238.15,353.1v-0.37c-0.26,0.3-0.64,0.45-1.07,0.45c-0.54,0-1.13-0.37-1.13-1.07
				c0-0.73,0.58-1.07,1.13-1.07c0.44,0,0.81,0.14,1.07,0.44v-0.58c0-0.43-0.35-0.68-0.82-0.68c-0.39,0-0.71,0.13-0.99,0.45
				l-0.24-0.35c0.35-0.36,0.77-0.54,1.3-0.54c0.69,0,1.26,0.31,1.26,1.1v2.23H238.15z M238.15,352.42v-0.62
				c-0.19-0.26-0.54-0.4-0.89-0.4c-0.48,0-0.81,0.3-0.81,0.71c0,0.42,0.33,0.71,0.81,0.71
				C237.62,352.82,237.96,352.69,238.15,352.42z"/>
			<path class="st14" d="M239.67,353.1v-4.48h0.5v4.48H239.67z"/>
			<path class="st14" d="M241.1,349.06c0-0.19,0.15-0.34,0.34-0.34c0.19,0,0.34,0.15,0.34,0.34c0,0.19-0.15,0.34-0.34,0.34
				C241.25,349.4,241.1,349.25,241.1,349.06z M241.18,353.1v-3.24h0.5v3.24H241.18z"/>
			<path class="st14" d="M245.05,353.1v-0.48c-0.24,0.33-0.64,0.56-1.09,0.56c-0.85,0-1.44-0.64-1.44-1.7c0-1.04,0.6-1.71,1.44-1.71
				c0.44,0,0.83,0.21,1.09,0.57v-1.73h0.5v4.48H245.05z M245.05,352.22v-1.46c-0.17-0.28-0.57-0.52-0.97-0.52
				c-0.66,0-1.05,0.54-1.05,1.26s0.39,1.25,1.05,1.25C244.48,352.73,244.87,352.5,245.05,352.22z"/>
			<path class="st14" d="M248.59,353.1v-0.37c-0.26,0.3-0.64,0.45-1.07,0.45c-0.54,0-1.13-0.37-1.13-1.07
				c0-0.73,0.58-1.07,1.13-1.07c0.44,0,0.81,0.14,1.07,0.44v-0.58c0-0.43-0.35-0.68-0.82-0.68c-0.39,0-0.71,0.13-0.99,0.45
				l-0.24-0.35c0.35-0.36,0.77-0.54,1.3-0.54c0.69,0,1.26,0.31,1.26,1.1v2.23H248.59z M248.59,352.42v-0.62
				c-0.19-0.26-0.54-0.4-0.89-0.4c-0.48,0-0.81,0.3-0.81,0.71c0,0.42,0.33,0.71,0.81,0.71
				C248.05,352.82,248.39,352.69,248.59,352.42z"/>
			<path class="st14" d="M250.21,352.43v-2.12h-0.54v-0.44h0.54v-0.89h0.51v0.89h0.66v0.44h-0.66v2.01c0,0.24,0.11,0.42,0.32,0.42
				c0.15,0,0.28-0.07,0.34-0.14l0.15,0.38c-0.13,0.12-0.31,0.21-0.6,0.21C250.45,353.19,250.21,352.91,250.21,352.43z"/>
			<path class="st14" d="M252,349.06c0-0.19,0.15-0.34,0.34-0.34c0.19,0,0.34,0.15,0.34,0.34c0,0.19-0.15,0.34-0.34,0.34
				C252.15,349.4,252,349.25,252,349.06z M252.08,353.1v-3.24h0.5v3.24H252.08z"/>
			<path class="st14" d="M253.41,351.48c0-0.94,0.62-1.7,1.6-1.7c0.99,0,1.61,0.76,1.61,1.7c0,0.94-0.62,1.71-1.61,1.71
				C254.03,353.19,253.41,352.42,253.41,351.48z M256.09,351.48c0-0.66-0.38-1.25-1.07-1.25c-0.69,0-1.07,0.59-1.07,1.25
				c0,0.66,0.38,1.26,1.07,1.26C255.71,352.73,256.09,352.14,256.09,351.48z"/>
			<path class="st14" d="M259.64,353.1v-2.12c0-0.58-0.3-0.75-0.73-0.75c-0.4,0-0.77,0.24-0.96,0.5v2.37h-0.5v-3.24h0.5v0.47
				c0.23-0.28,0.67-0.55,1.16-0.55c0.67,0,1.03,0.34,1.03,1.05v2.28H259.64z"/>
		</g>
	</g>
	<g>
		<g>
			<rect x="140.93" y="321.14" class="st15" width="17.64" height="14.28"/>
			<rect x="136.9" y="318.06" class="st15" width="19.32" height="15.12"/>
			<rect x="134.38" y="315.54" class="st15" width="19.32" height="15.12"/>
		</g>
		<g>
			<path class="st14" d="M136.17,342.76c0-1.38,1.01-2.32,2.3-2.32c0.79,0,1.34,0.38,1.7,0.89l-0.46,0.26
				c-0.26-0.38-0.73-0.65-1.24-0.65c-0.98,0-1.73,0.75-1.73,1.82c0,1.06,0.75,1.82,1.73,1.82c0.51,0,0.98-0.28,1.24-0.65l0.47,0.26
				c-0.38,0.52-0.91,0.89-1.71,0.89C137.18,345.08,136.17,344.14,136.17,342.76z"/>
			<path class="st14" d="M140.68,343.37c0-0.94,0.62-1.7,1.6-1.7s1.61,0.76,1.61,1.7c0,0.94-0.62,1.71-1.61,1.71
				S140.68,344.32,140.68,343.37z M143.36,343.37c0-0.66-0.38-1.25-1.07-1.25c-0.69,0-1.07,0.59-1.07,1.25
				c0,0.67,0.38,1.26,1.07,1.26C142.98,344.63,143.36,344.04,143.36,343.37z"/>
			<path class="st14" d="M144.72,345v-3.24h0.5v0.52c0.26-0.34,0.64-0.59,1.08-0.59v0.52c-0.06-0.01-0.12-0.01-0.19-0.01
				c-0.32,0-0.74,0.26-0.89,0.52v2.3H144.72z"/>
			<path class="st14" d="M147.44,344.51v1.73h-0.5v-4.48h0.5v0.48c0.24-0.33,0.64-0.56,1.09-0.56c0.85,0,1.44,0.64,1.44,1.7
				c0,1.05-0.59,1.71-1.44,1.71C148.09,345.08,147.71,344.87,147.44,344.51z M149.45,343.37c0-0.72-0.39-1.25-1.04-1.25
				c-0.4,0-0.79,0.24-0.97,0.52v1.46c0.17,0.28,0.57,0.52,0.97,0.52C149.06,344.63,149.45,344.09,149.45,343.37z"/>
			<path class="st14" d="M152.97,345v-0.46c-0.25,0.28-0.67,0.54-1.15,0.54c-0.68,0-1.03-0.34-1.03-1.03v-2.29h0.5v2.14
				c0,0.57,0.29,0.74,0.73,0.74c0.39,0,0.77-0.23,0.95-0.49v-2.38h0.5V345H152.97z"/>
			<path class="st14" d="M154.21,344.57l0.26-0.36c0.21,0.25,0.62,0.46,1.07,0.46c0.5,0,0.77-0.24,0.77-0.56
				c0-0.79-2.01-0.3-2.01-1.5c0-0.51,0.43-0.93,1.2-0.93c0.56,0,0.95,0.21,1.2,0.47l-0.24,0.35c-0.19-0.24-0.54-0.41-0.97-0.41
				c-0.44,0-0.72,0.22-0.72,0.51c0,0.71,2.01,0.24,2.01,1.5c0,0.54-0.44,0.98-1.27,0.98C154.98,345.08,154.53,344.91,154.21,344.57z
				"/>
		</g>
	</g>
	<g>
		<g>
			<g>
				<g>
					<line class="st14" x1="107.27" y1="309.86" x2="107.27" y2="328.28"/>
				</g>
				<g>
					<g>
						<rect x="106.85" y="309.86" class="st14" width="0.84" height="17.5"/>
					</g>
					<g>
						<g>
							<polygon class="st14" points="103.83,324.58 104.45,324.01 107.27,327.04 110.09,324.01 110.7,324.58 107.27,328.28 							
								"/>
						</g>
					</g>
				</g>
			</g>
			<g>
				<path class="st14" d="M119.45,335.59H95.09v-16.8h24.36V335.59z M95.93,334.75h22.68v-15.12H95.93V334.75z"/>
			</g>
		</g>
		<g>
			<path class="st14" d="M92.8,345.09v-4.48h1.53c1.4,0,2.3,0.97,2.3,2.24c0,1.28-0.9,2.24-2.3,2.24H92.8z M96.06,342.86
				c0-0.97-0.61-1.75-1.72-1.75h-0.97v3.49h0.97C95.42,344.6,96.06,343.82,96.06,342.86z"/>
			<path class="st14" d="M97.3,343.47c0-0.94,0.62-1.7,1.6-1.7c0.99,0,1.61,0.76,1.61,1.7c0,0.94-0.62,1.71-1.61,1.71
				C97.92,345.18,97.3,344.41,97.3,343.47z M99.98,343.47c0-0.66-0.38-1.25-1.07-1.25c-0.69,0-1.07,0.59-1.07,1.25
				c0,0.67,0.38,1.26,1.07,1.26C99.6,344.72,99.98,344.13,99.98,343.47z"/>
			<path class="st14" d="M104.14,345.09l-0.85-2.61l-0.85,2.61h-0.5l-1.03-3.24h0.52l0.79,2.59l0.85-2.59h0.44l0.85,2.59l0.79-2.59
				h0.53l-1.03,3.24H104.14z"/>
			<path class="st14" d="M108.46,345.09v-2.12c0-0.58-0.3-0.75-0.73-0.75c-0.4,0-0.77,0.24-0.96,0.5v2.37h-0.5v-3.24h0.5v0.47
				c0.23-0.28,0.67-0.55,1.16-0.55c0.67,0,1.03,0.34,1.03,1.05v2.28H108.46z"/>
			<path class="st14" d="M109.97,345.09v-4.48h0.5v4.48H109.97z"/>
			<path class="st14" d="M111.3,343.47c0-0.94,0.62-1.7,1.6-1.7c0.99,0,1.61,0.76,1.61,1.7c0,0.94-0.62,1.71-1.61,1.71
				C111.92,345.18,111.3,344.41,111.3,343.47z M113.98,343.47c0-0.66-0.38-1.25-1.07-1.25c-0.69,0-1.07,0.59-1.07,1.25
				c0,0.67,0.38,1.26,1.07,1.26C113.6,344.72,113.98,344.13,113.98,343.47z"/>
			<path class="st14" d="M117.36,345.09v-0.37c-0.26,0.3-0.64,0.45-1.07,0.45c-0.54,0-1.13-0.37-1.13-1.07
				c0-0.73,0.58-1.07,1.13-1.07c0.44,0,0.81,0.14,1.07,0.44v-0.58c0-0.43-0.35-0.68-0.82-0.68c-0.39,0-0.71,0.13-0.99,0.45
				l-0.24-0.35c0.35-0.36,0.77-0.54,1.3-0.54c0.69,0,1.26,0.31,1.26,1.1v2.23H117.36z M117.36,344.41v-0.62
				c-0.19-0.26-0.54-0.4-0.89-0.4c-0.48,0-0.81,0.3-0.81,0.71c0,0.42,0.33,0.71,0.81,0.71
				C116.82,344.81,117.16,344.68,117.36,344.41z"/>
			<path class="st14" d="M121.23,345.09v-0.48c-0.24,0.33-0.64,0.56-1.09,0.56c-0.85,0-1.44-0.64-1.44-1.7
				c0-1.04,0.6-1.71,1.44-1.71c0.44,0,0.83,0.21,1.09,0.57v-1.73h0.5v4.48H121.23z M121.23,344.21v-1.46
				c-0.17-0.28-0.57-0.52-0.97-0.52c-0.66,0-1.05,0.54-1.05,1.26c0,0.72,0.39,1.25,1.05,1.25
				C120.66,344.72,121.05,344.49,121.23,344.21z"/>
		</g>
	</g>
	<g>
		<g>
			<rect x="68.85" y="325.71" class="st14" width="7.56" height="0.84"/>
			<rect x="68.85" y="328.23" class="st14" width="7.56" height="0.84"/>
			<rect x="68.85" y="330.75" class="st14" width="7.56" height="0.84"/>
			<path class="st14" d="M75.73,318.15h-0.47h-9.77v17.64h14.28v-13.91v-0.16L75.73,318.15z M75.89,319.24l2.66,2.31l-2.82,0.42
				L75.89,319.24z M78.93,334.95h-12.6v-15.96h9.11l-0.35,3.7l3.84-0.74V334.95z"/>
		</g>
		<g>
			<path class="st14" d="M61.24,345.3v-4.48h1.53c1.4,0,2.3,0.97,2.3,2.24c0,1.28-0.9,2.24-2.3,2.24H61.24z M64.49,343.06
				c0-0.97-0.61-1.75-1.72-1.75H61.8v3.49h0.97C63.86,344.8,64.49,344.02,64.49,343.06z"/>
			<path class="st14" d="M67.95,345.3v-0.37c-0.26,0.3-0.64,0.45-1.07,0.45c-0.54,0-1.13-0.37-1.13-1.07c0-0.73,0.58-1.07,1.13-1.07
				c0.44,0,0.81,0.14,1.07,0.44v-0.58c0-0.43-0.35-0.68-0.82-0.68c-0.39,0-0.71,0.13-0.99,0.45l-0.24-0.35
				c0.35-0.36,0.77-0.54,1.3-0.54c0.69,0,1.26,0.31,1.26,1.1v2.23H67.95z M67.95,344.61v-0.62c-0.19-0.26-0.54-0.4-0.89-0.4
				c-0.48,0-0.81,0.3-0.81,0.71c0,0.42,0.33,0.71,0.81,0.71C67.41,345.01,67.76,344.88,67.95,344.61z"/>
			<path class="st14" d="M69.57,344.62v-2.12h-0.54v-0.44h0.54v-0.89h0.51v0.89h0.66v0.44h-0.66v2.02c0,0.24,0.11,0.42,0.32,0.42
				c0.15,0,0.28-0.07,0.34-0.14l0.15,0.38c-0.13,0.12-0.31,0.21-0.6,0.21C69.81,345.38,69.57,345.1,69.57,344.62z"/>
			<path class="st14" d="M73.48,345.3v-0.37c-0.26,0.3-0.64,0.45-1.07,0.45c-0.54,0-1.13-0.37-1.13-1.07c0-0.73,0.58-1.07,1.13-1.07
				c0.44,0,0.81,0.14,1.07,0.44v-0.58c0-0.43-0.35-0.68-0.82-0.68c-0.39,0-0.71,0.13-0.99,0.45l-0.24-0.35
				c0.35-0.36,0.77-0.54,1.3-0.54c0.69,0,1.26,0.31,1.26,1.1v2.23H73.48z M73.48,344.61v-0.62c-0.19-0.26-0.54-0.4-0.89-0.4
				c-0.48,0-0.81,0.3-0.81,0.71c0,0.42,0.33,0.71,0.81,0.71C72.94,345.01,73.28,344.88,73.48,344.61z"/>
			<path class="st14" d="M74.72,344.87l0.26-0.36c0.21,0.25,0.62,0.46,1.07,0.46c0.5,0,0.77-0.24,0.77-0.56
				c0-0.79-2.01-0.3-2.01-1.5c0-0.51,0.43-0.93,1.2-0.93c0.56,0,0.95,0.21,1.2,0.47l-0.24,0.35c-0.19-0.24-0.54-0.41-0.97-0.41
				c-0.44,0-0.72,0.22-0.72,0.51c0,0.71,2.01,0.24,2.01,1.5c0,0.54-0.44,0.98-1.27,0.98C75.49,345.38,75.05,345.21,74.72,344.87z"/>
			<path class="st14" d="M77.93,343.67c0-0.94,0.67-1.7,1.6-1.7c0.98,0,1.56,0.77,1.56,1.74v0.13h-2.62
				c0.04,0.61,0.46,1.12,1.16,1.12c0.38,0,0.75-0.15,1.01-0.42l0.24,0.33c-0.33,0.32-0.77,0.5-1.29,0.5
				C78.62,345.38,77.93,344.69,77.93,343.67z M79.52,342.39c-0.69,0-1.03,0.58-1.06,1.07h2.13
				C80.59,342.99,80.26,342.39,79.52,342.39z"/>
			<path class="st14" d="M82,344.62v-2.12h-0.54v-0.44H82v-0.89h0.51v0.89h0.66v0.44h-0.66v2.02c0,0.24,0.11,0.42,0.32,0.42
				c0.15,0,0.28-0.07,0.34-0.14l0.15,0.38c-0.13,0.12-0.31,0.21-0.6,0.21C82.25,345.38,82,345.1,82,344.62z"/>
		</g>
	</g>
	<g>
		<g>
			<g>
				<path class="st14" d="M44.76,335H34.38l-5.2-9l5.2-9h10.38l5.2,9L44.76,335z M34.86,334h9.42l4.43-8l-4.43-8h-9.42l-4.7,7.9
					L34.86,334z"/>
			</g>
			<g>
				<path class="st14" d="M42.81,331.63h-6.75l-3.4-5.5l3.4-5.5h6.75l3.4,5.5L42.81,331.63z M36.52,330.63h5.82l2.88-4.5l-2.88-4.5
					h-5.82l-2.88,4.5L36.52,330.63z"/>
			</g>
		</g>
		<g>
			<path class="st14" d="M33.8,345.02v-3.98h-1.42v-0.5h3.4v0.5h-1.42v3.98H33.8z"/>
			<path class="st14" d="M35.54,343.39c0-0.94,0.62-1.7,1.6-1.7s1.61,0.76,1.61,1.7c0,0.94-0.62,1.71-1.61,1.71
				S35.54,344.34,35.54,343.39z M38.22,343.39c0-0.66-0.38-1.25-1.07-1.25c-0.69,0-1.07,0.59-1.07,1.25c0,0.67,0.38,1.26,1.07,1.26
				C37.84,344.65,38.22,344.06,38.22,343.39z"/>
			<path class="st14" d="M39.38,343.39c0-0.94,0.62-1.7,1.6-1.7c0.99,0,1.61,0.76,1.61,1.7c0,0.94-0.62,1.71-1.61,1.71
				C40,345.1,39.38,344.34,39.38,343.39z M42.06,343.39c0-0.66-0.38-1.25-1.07-1.25c-0.69,0-1.07,0.59-1.07,1.25
				c0,0.67,0.38,1.26,1.07,1.26C41.68,344.65,42.06,344.06,42.06,343.39z"/>
			<path class="st14" d="M43.41,345.02v-4.48h0.5v4.48H43.41z"/>
		</g>
	</g>
	<line class="st10" x1="28.85" y1="304.5" x2="261.85" y2="304.5"/>
</g>
</svg>
