<?xml version="1.0" encoding="utf-8"?>
<!-- Generator: Adobe Illustrator 17.0.0, SVG Export Plug-In . SVG Version: 6.00 Build 0)  -->
<!DOCTYPE svg PUBLIC "-//W3C//DTD SVG 1.1//EN" "http://www.w3.org/Graphics/SVG/1.1/DTD/svg11.dtd">
<svg version="1.1" xmlns="http://www.w3.org/2000/svg" xmlns:xlink="http://www.w3.org/1999/xlink" x="0px" y="0px" width="850px"
	 height="274px" viewBox="0 0 850 274" enable-background="new 0 0 850 274" xml:space="preserve">
<g id="sfondo">
	<rect fill="#2D2D2D" width="850" height="274"/>
</g>
<g id="Livello_1">
	<rect x="71.329" y="67.667" fill="none" width="26.662" height="12"/>
	<text transform="matrix(1 0 0 1 71.3291 74.3369)" fill="#F2F2F2" font-family="'ProximaNova-Regular'" font-size="10">Uber</text>
	<rect x="71.329" y="86.667" fill="none" width="32.829" height="12"/>
	<text transform="matrix(1 0 0 1 71.3291 93.3369)" fill="#F2F2F2" font-family="'ProximaNova-Regular'" font-size="10">Airbnb</text>
	<rect x="27.344" y="78.75" fill="none" width="36.156" height="10"/>
	<text transform="matrix(1 0 0 1 27.344 85.4197)" fill="#F2F2F2" font-family="'ProximaNova-Regular'" font-size="10">QUERY</text>
	<line fill="none" stroke="#F2F2F2" stroke-miterlimit="10" x1="63.5" y1="68" x2="63.5" y2="93"/>
	<line fill="none" stroke="#F2F2F2" stroke-miterlimit="10" x1="23.5" y1="36" x2="23.5" y2="87"/>
	<rect x="28.5" y="23.411" fill="none" width="39.829" height="8.5"/>
	<text transform="matrix(1 0 0 1 28.5002 30.0803)" fill="#F2F2F2" font-family="'ProximaNova-Regular'" font-size="10">SOURCE</text>
	<rect x="79.086" y="21.494" fill="none" width="254.081" height="10.333"/>
	<text transform="matrix(1 0 0 1 79.0857 29.4978)" fill="#F2F2F2" font-family="'ProximaNova-Regular'" font-size="12">Google image.com</text>
	<rect x="23.5" y="16.5" fill="none" stroke="#F2F2F2" stroke-miterlimit="10" width="49" height="19"/>
	<polyline fill="none" stroke="#F2F2F2" stroke-miterlimit="10" points="107,67.5 117.5,67.5 117.5,93.5 106,93.5 	"/>
	<g>
		<g>
			<line fill="none" stroke="#F2F2F2" stroke-miterlimit="10" x1="117" y1="80.5" x2="156" y2="80.5"/>
			<g>
				<polygon fill="#F2F2F2" points="152.602,84.25 151.92,83.518 155.532,80.161 151.92,76.804 152.602,76.072 157,80.161 				"/>
			</g>
		</g>
	</g>
	<g>
		<g>
			<line fill="none" stroke="#F2F2F2" stroke-miterlimit="10" x1="208" y1="80.5" x2="247" y2="80.5"/>
			<g>
				<polygon fill="#F2F2F2" points="243.602,84.25 242.92,83.518 246.532,80.161 242.92,76.804 243.602,76.072 248,80.161 				"/>
			</g>
		</g>
	</g>
	<g>
		<g>
			<line fill="none" stroke="#F2F2F2" stroke-miterlimit="10" x1="299" y1="81.5" x2="338" y2="81.5"/>
			<g>
				<polygon fill="#F2F2F2" points="334.602,85.25 333.92,84.518 337.532,81.161 333.92,77.804 334.602,77.072 339,81.161 				"/>
			</g>
		</g>
	</g>
	<g>
		<g>
			<line fill="none" stroke="#F2F2F2" stroke-miterlimit="10" x1="382" y1="81.5" x2="421" y2="81.5"/>
			<g>
				<polygon fill="#F2F2F2" points="417.602,85.25 416.92,84.518 420.532,81.161 416.92,77.804 417.602,77.072 422,81.161 				"/>
			</g>
		</g>
	</g>
	<g>
		<g>
			<line fill="none" stroke="#F2F2F2" stroke-miterlimit="10" x1="472" y1="81.5" x2="511" y2="81.5"/>
			<g>
				<polygon fill="#F2F2F2" points="507.602,85.25 506.92,84.518 510.532,81.161 506.92,77.804 507.602,77.072 512,81.161 				"/>
			</g>
		</g>
	</g>
	<g>
		<g>
			<line fill="none" stroke="#F2F2F2" stroke-miterlimit="10" x1="568" y1="81.5" x2="607" y2="81.5"/>
			<g>
				<polygon fill="#F2F2F2" points="603.602,85.25 602.92,84.518 606.532,81.161 602.92,77.804 603.602,77.072 608,81.161 				"/>
			</g>
		</g>
	</g>
	<g>
		<g>
			<line fill="none" stroke="#F2F2F2" stroke-miterlimit="10" x1="648" y1="81.5" x2="687" y2="81.5"/>
			<g>
				<polygon fill="#F2F2F2" points="683.602,85.25 682.92,84.518 686.532,81.161 682.92,77.804 683.602,77.072 688,81.161 				"/>
			</g>
		</g>
	</g>
	<g>
		<g>
			<line fill="none" stroke="#F2F2F2" stroke-miterlimit="10" x1="728" y1="81.5" x2="767" y2="81.5"/>
			<g>
				<polygon fill="#F2F2F2" points="763.602,85.25 762.92,84.518 766.532,81.161 762.92,77.804 763.602,77.072 768,81.161 				"/>
			</g>
		</g>
	</g>
	<rect x="156" y="98.414" fill="none" width="51.573" height="29.086"/>
	<text transform="matrix(1 0 0 1 161.6969 105.0839)"><tspan x="0" y="0" fill="#F2F2F2" font-family="'ProximaNova-Regular'" font-size="10">GOOGLE </tspan><tspan x="5.15" y="11" fill="#F2F2F2" font-family="'ProximaNova-Regular'" font-size="10">IMAGE </tspan><tspan x="-1.38" y="22" fill="#F2F2F2" font-family="'ProximaNova-Regular'" font-size="10">SCRAPER</tspan></text>
	<rect x="247" y="98.414" fill="none" width="51.573" height="29.086"/>
	<text transform="matrix(1 0 0 1 253.3517 105.0839)" fill="#F2F2F2" font-family="'ProximaNova-Regular'" font-size="10">KIMONO</text>
	<rect x="335.213" y="98.414" fill="none" width="51.573" height="29.086"/>
	<text transform="matrix(1 0 0 1 351.3999 105.0839)" fill="#F2F2F2" font-family="'ProximaNova-Regular'" font-size="10">CSV</text>
	<g>
		<polygon fill="none" stroke="#F2F2F2" stroke-miterlimit="10" points="175.272,89.5 169.38,79.5 175.272,69.5 187.057,69.5 
			192.949,79.5 187.057,89.5 		"/>
		<polygon fill="none" stroke="#F2F2F2" stroke-miterlimit="10" points="177.424,85.5 173.683,79.5 177.424,73.5 184.905,73.5 
			188.646,79.5 184.905,85.5 		"/>
	</g>
	<g>
		<polygon fill="none" stroke="#F2F2F2" stroke-miterlimit="10" points="266.272,89.5 260.38,79.5 266.272,69.5 278.057,69.5 
			283.949,79.5 278.057,89.5 		"/>
		<polygon fill="none" stroke="#F2F2F2" stroke-miterlimit="10" points="268.424,85.5 264.683,79.5 268.424,73.5 275.905,73.5 
			279.646,79.5 275.905,85.5 		"/>
	</g>
	<line fill="#F2F2F2" x1="143" y1="124" x2="143" y2="129"/>
	<rect x="156.287" y="134" fill="none" width="51" height="36"/>
	<text transform="matrix(1 0 0 1 156.9668 140.6699)"><tspan x="0" y="0" fill="#F2F2F2" font-family="'ProximaNova-RegularIt'" font-size="10">200 results </tspan><tspan x="6.665" y="12" fill="#F2F2F2" font-family="'ProximaNova-RegularIt'" font-size="10">for each </tspan><tspan x="12.29" y="24" fill="#F2F2F2" font-family="'ProximaNova-RegularIt'" font-size="10">query</tspan></text>
	<g>
		<rect x="354.75" y="78.5" fill="#F2F2F2" width="9" height="1"/>
		<rect x="354.75" y="81.5" fill="#F2F2F2" width="9" height="1"/>
		<rect x="354.75" y="84.5" fill="#F2F2F2" width="9" height="1"/>
		<path fill="#F2F2F2" d="M362.944,69.5h-0.564h-11.63v21h17V73.939v-0.196L362.944,69.5z M363.137,70.793l3.162,2.754l-3.356,0.503
			L363.137,70.793z M366.75,89.5h-15v-19h10.843l-0.414,4.408l4.571-0.882V89.5z"/>
	</g>
	<rect x="333.75" y="112.832" fill="none" width="51" height="36"/>
	<text transform="matrix(1 0 0 1 338.9902 119.5021)"><tspan x="0" y="0" fill="#F2F2F2" font-family="'ProximaNova-RegularIt'" font-size="10">200 links </tspan><tspan x="2.105" y="12" fill="#F2F2F2" font-family="'ProximaNova-RegularIt'" font-size="10">for each </tspan><tspan x="7.73" y="24" fill="#F2F2F2" font-family="'ProximaNova-RegularIt'" font-size="10">query</tspan></text>
	<rect x="408.905" y="109.978" fill="none" width="73.417" height="43.333"/>
	<text transform="matrix(1 0 0 1 423.7136 116.6477)"><tspan x="0" y="0" fill="#F2F2F2" font-family="'ProximaNova-RegularIt'" font-size="10">download </tspan><tspan x="-4.36" y="12" fill="#F2F2F2" font-family="'ProximaNova-RegularIt'" font-size="10">400 images</tspan></text>
	<rect x="433.81" y="97.978" fill="none" width="23.825" height="7.435"/>
	<text transform="matrix(1 0 0 1 442.6773 104.6479)" fill="#F2F2F2" font-family="'ProximaNova-Regular'" font-size="10">R</text>
	<path fill="#F2F2F2" d="M437.666,75.903v-0.631l3.775-1.812l-3.775-1.832v-0.631l4.416,2.193v0.531L437.666,75.903z"/>
	<path fill="#F2F2F2" d="M442.345,77.755v-0.551h5.708v0.551H442.345z"/>
	<rect x="434.254" y="66.689" fill="none" stroke="#F2F2F2" stroke-miterlimit="10" width="23.198" height="23.198"/>
	<rect x="512.311" y="97.971" fill="none" width="55" height="50.862"/>
	<text transform="matrix(1 0 0 1 513.6366 104.6406)"><tspan x="0" y="0" fill="#F2F2F2" font-family="'ProximaNova-Regular'" font-size="10">200 images</tspan><tspan x="15.33" y="12" fill="#F2F2F2" font-family="'ProximaNova-Regular'" font-size="10">Uber</tspan><tspan x="0" y="24" fill="#F2F2F2" font-family="'ProximaNova-Regular'" font-size="10">200 images </tspan><tspan x="11.6" y="36" fill="#F2F2F2" font-family="'ProximaNova-Regular'" font-size="10">Airbnb</tspan></text>
	<rect x="591.833" y="98.414" fill="none" width="71.333" height="52.92"/>
	<text transform="matrix(1 0 0 1 602.91 105.0839)"><tspan x="0" y="0" fill="#F2F2F2" font-family="'ProximaNova-Regular'" font-size="10">Tag corpus </tspan><tspan x="13.745" y="12" fill="#F2F2F2" font-family="'ProximaNova-Regular'" font-size="10">Uber</tspan><tspan x="0" y="24" fill="#F2F2F2" font-family="'ProximaNova-Regular'" font-size="10">Tag corpus </tspan><tspan x="10.015" y="36" fill="#F2F2F2" font-family="'ProximaNova-Regular'" font-size="10">Airbnb</tspan></text>
	<g>
		<rect x="533.462" y="74.833" fill="#2D2D2D" stroke="#F2F2F2" stroke-miterlimit="10" width="21" height="17"/>
		<rect x="528.661" y="71.167" fill="#2D2D2D" stroke="#F2F2F2" stroke-miterlimit="10" width="23" height="18"/>
		<rect x="525.661" y="68.167" fill="#2D2D2D" stroke="#F2F2F2" stroke-miterlimit="10" width="23" height="18"/>
	</g>
	<g>
		<g>
			<polygon fill="#F2F2F2" points="635,93 620,93 620,72 621,72 621,92 634,92 634,72 635,72 			"/>
		</g>
		<g>
			<path fill="#F2F2F2" d="M627.5,77.487c-1.746,0-3.167-1.421-3.167-3.167s1.421-3.167,3.167-3.167s3.167,1.421,3.167,3.167
				S629.246,77.487,627.5,77.487z M627.5,72.153c-1.195,0-2.167,0.972-2.167,2.167s0.972,2.167,2.167,2.167s2.167-0.972,2.167-2.167
				S628.695,72.153,627.5,72.153z"/>
		</g>
		<g>
			<polygon fill="#F2F2F2" points="620.64,72.77 620.026,71.98 627.496,66.178 634.888,71.981 634.271,72.769 627.492,67.447 			"/>
		</g>
	</g>
	<rect x="671.833" y="98.414" fill="none" width="71.333" height="52.92"/>
	<text transform="matrix(1 0 0 1 680.2552 105.0839)"><tspan x="0" y="0" fill="#F2F2F2" font-family="'ProximaNova-Regular'" font-size="10">Tag index of </tspan><tspan x="1.475" y="12" fill="#F2F2F2" font-family="'ProximaNova-Regular'" font-size="10">controversy</tspan></text>
	<g>
		<g>
			<polygon fill="#F2F2F2" points="715,93 700,93 700,72 701,72 701,92 714,92 714,72 715,72 			"/>
		</g>
		<g>
			<path fill="#F2F2F2" d="M707.5,77.487c-1.746,0-3.167-1.421-3.167-3.167s1.421-3.167,3.167-3.167s3.167,1.421,3.167,3.167
				S709.246,77.487,707.5,77.487z M707.5,72.153c-1.195,0-2.167,0.972-2.167,2.167s0.972,2.167,2.167,2.167s2.167-0.972,2.167-2.167
				S708.695,72.153,707.5,72.153z"/>
		</g>
		<g>
			<polygon fill="#F2F2F2" points="700.64,72.77 700.026,71.98 707.496,66.178 714.888,71.981 714.271,72.769 707.492,67.447 			"/>
		</g>
	</g>
	<polyline fill="none" stroke="#F2F2F2" stroke-miterlimit="10" points="786.05,65.766 807.023,76.57 784.804,83.441 
		799.482,64.824 803.252,91.453 793.786,89.332 	"/>
	<circle fill="#2D2D2D" stroke="#F2F2F2" stroke-miterlimit="10" cx="800.562" cy="63.534" r="2.059"/>
	<circle fill="#2D2D2D" stroke="#F2F2F2" stroke-miterlimit="10" cx="807.26" cy="76.371" r="2.059"/>
	<polyline fill="none" stroke="#F2F2F2" stroke-miterlimit="10" points="783.818,83.069 786.05,65.766 793.865,89.208 	"/>
	<circle fill="#2D2D2D" stroke="#F2F2F2" stroke-miterlimit="10" cx="786.05" cy="65.766" r="2.059"/>
	<circle fill="#2D2D2D" stroke="#F2F2F2" stroke-miterlimit="10" cx="783.818" cy="83.069" r="2.059"/>
	<circle fill="#2D2D2D" stroke="#F2F2F2" stroke-miterlimit="10" cx="793.865" cy="89.208" r="2.059"/>
	<circle fill="#2D2D2D" stroke="#F2F2F2" stroke-miterlimit="10" cx="803.911" cy="91.441" r="2.059"/>
	<rect x="761.885" y="99.969" fill="none" width="63.703" height="8.163"/>
	<text transform="matrix(1 0 0 1 762.2715 106.639)" fill="#F2F2F2" font-family="'ProximaNova-Regular'" font-size="10">ILLUSTRATOR</text>
	<g>
		<g>
			<g>
				<path fill="#929497" d="M136.228,238.656v-0.441l2.642-1.269l-2.642-1.283v-0.441l3.091,1.535v0.372L136.228,238.656z"/>
			</g>
			<g>
				<path fill="#929497" d="M139.503,239.953v-0.386h3.995v0.386H139.503z"/>
			</g>
			<g>
				<g>
					<path fill="#929497" d="M150.428,249.495h-16.939v-16.939h16.939V249.495z M134.189,248.795h15.539v-15.539h-15.539V248.795z"
						/>
				</g>
			</g>
		</g>
		<g>
			<g>
				<path fill="#929497" d="M135.077,256.953l0.28-0.358c0.241,0.28,0.644,0.537,1.17,0.537c0.666,0,0.879-0.358,0.879-0.649
					c0-0.962-2.211-0.425-2.211-1.757c0-0.616,0.549-1.041,1.287-1.041c0.565,0,1.008,0.196,1.321,0.526l-0.28,0.341
					c-0.28-0.313-0.672-0.448-1.08-0.448c-0.442,0-0.767,0.241-0.767,0.593c0,0.839,2.211,0.358,2.211,1.752
					c0,0.537-0.369,1.097-1.377,1.097C135.866,257.546,135.385,257.3,135.077,256.953z"/>
			</g>
			<g>
				<path fill="#929497" d="M138.409,256.125c0-0.8,0.543-1.416,1.349-1.416c0.493,0,0.783,0.202,0.991,0.47l-0.28,0.252
					c-0.179-0.246-0.409-0.347-0.688-0.347c-0.571,0-0.935,0.442-0.935,1.041c0,0.599,0.364,1.047,0.935,1.047
					c0.28,0,0.509-0.111,0.688-0.352l0.28,0.257c-0.207,0.269-0.498,0.47-0.991,0.47
					C138.952,257.546,138.409,256.925,138.409,256.125z"/>
			</g>
			<g>
				<path fill="#929497" d="M141.343,257.479v-2.704h0.42v0.431c0.218-0.28,0.532-0.493,0.901-0.493v0.431
					c-0.051-0.006-0.101-0.011-0.162-0.011c-0.263,0-0.616,0.213-0.739,0.431v1.914H141.343z"/>
			</g>
			<g>
				<path fill="#929497" d="M143.118,254.11c0-0.157,0.129-0.285,0.285-0.285c0.157,0,0.28,0.129,0.28,0.285
					c0,0.157-0.123,0.28-0.28,0.28C143.247,254.39,143.118,254.267,143.118,254.11z M143.191,257.479v-2.704h0.42v2.704H143.191z"/>
			</g>
			<g>
				<path fill="#929497" d="M144.87,257.071v1.438h-0.42v-3.733h0.42v0.403c0.196-0.274,0.532-0.47,0.912-0.47
					c0.711,0,1.203,0.537,1.203,1.416c0,0.874-0.493,1.422-1.203,1.422C145.413,257.546,145.094,257.367,144.87,257.071z
					 M146.544,256.125c0-0.599-0.324-1.041-0.867-1.041c-0.33,0-0.66,0.196-0.806,0.431v1.221c0.146,0.235,0.476,0.436,0.806,0.436
					C146.219,257.171,146.544,256.723,146.544,256.125z"/>
			</g>
			<g>
				<path fill="#929497" d="M147.738,256.914v-1.769h-0.448v-0.369h0.448v-0.739h0.425v0.739h0.549v0.369h-0.549v1.679
					c0,0.202,0.09,0.347,0.269,0.347c0.123,0,0.23-0.055,0.285-0.117l0.123,0.319c-0.107,0.101-0.258,0.174-0.498,0.174
					C147.939,257.546,147.738,257.317,147.738,256.914z"/>
			</g>
		</g>
	</g>
	<g>
		<g>
			<polygon fill="#929497" points="174,248 163,248 163,233 164,233 164,247 173,247 173,233 174,233 			"/>
		</g>
	</g>
	<g>
		<g>
			<path fill="#929497" d="M168.341,237.595c-1.222,0-2.217-0.995-2.217-2.217c0-1.222,0.995-2.217,2.217-2.217
				c1.222,0,2.217,0.995,2.217,2.217C170.558,236.6,169.563,237.595,168.341,237.595z M168.341,233.861
				c-0.837,0-1.517,0.68-1.517,1.517s0.68,1.517,1.517,1.517s1.517-0.68,1.517-1.517S169.178,233.861,168.341,233.861z"/>
		</g>
	</g>
	<g>
		<g>
			<polygon fill="#929497" points="163.52,234.292 163.091,233.74 168.32,229.678 173.494,233.741 173.062,234.292 168.317,230.567 
							"/>
		</g>
	</g>
	<g>
		<g>
			<path fill="#929497" d="M165.462,256.256v-3.319h-1.181v-0.414h2.832v0.414h-1.187v3.319H165.462z"/>
		</g>
		<g>
			<path fill="#929497" d="M168.872,256.256v-0.308c-0.218,0.247-0.531,0.375-0.896,0.375c-0.453,0-0.94-0.308-0.94-0.896
				c0-0.61,0.482-0.89,0.94-0.89c0.369,0,0.677,0.118,0.896,0.364v-0.487c0-0.358-0.291-0.565-0.683-0.565
				c-0.325,0-0.588,0.112-0.829,0.375l-0.196-0.291c0.291-0.302,0.638-0.448,1.08-0.448c0.577,0,1.047,0.258,1.047,0.913v1.858
				H168.872z M168.872,255.685v-0.515c-0.162-0.218-0.448-0.33-0.739-0.33c-0.398,0-0.672,0.246-0.672,0.588
				c0,0.347,0.274,0.593,0.672,0.593C168.424,256.02,168.709,255.908,168.872,255.685z"/>
		</g>
		<g>
			<path fill="#929497" d="M170.133,256.944l0.213-0.302c0.224,0.263,0.493,0.364,0.879,0.364c0.448,0,0.873-0.218,0.873-0.79
				v-0.408c-0.201,0.274-0.531,0.481-0.912,0.481c-0.705,0-1.203-0.526-1.203-1.4c0-0.867,0.493-1.405,1.203-1.405
				c0.364,0,0.694,0.179,0.912,0.476v-0.408h0.42v2.664c0,0.857-0.632,1.137-1.293,1.137
				C170.771,257.353,170.457,257.263,170.133,256.944z M172.097,255.478v-1.187c-0.151-0.229-0.476-0.431-0.806-0.431
				c-0.548,0-0.873,0.431-0.873,1.029c0,0.594,0.325,1.024,0.873,1.024C171.622,255.914,171.946,255.713,172.097,255.478z"/>
		</g>
	</g>
	<g>
		<g>
			<g>
				<g>
					<path fill="#929497" d="M202.646,248.987h-16.8v-16.8h16.8V248.987z M186.546,248.287h15.4v-15.4h-15.4V248.287z"/>
				</g>
			</g>
			<g>
				<g>
					<polygon fill="#929497" points="196.559,240.723 192.297,236.017 192.815,235.547 196.383,239.485 201.175,229.615 
						201.805,229.921 					"/>
				</g>
			</g>
		</g>
		<g>
			<g>
				<path fill="#929497" d="M182.117,255.108c0-1.147,0.845-1.931,1.92-1.931c0.66,0,1.119,0.313,1.416,0.739l-0.386,0.218
					c-0.213-0.319-0.605-0.543-1.03-0.543c-0.817,0-1.439,0.621-1.439,1.517c0,0.885,0.621,1.517,1.439,1.517
					c0.425,0,0.817-0.23,1.03-0.543l0.392,0.213c-0.313,0.431-0.761,0.744-1.422,0.744
					C182.963,257.039,182.117,256.256,182.117,255.108z"/>
			</g>
			<g>
				<path fill="#929497" d="M186.037,256.972v-3.733h0.42v3.733H186.037z"/>
			</g>
			<g>
				<path fill="#929497" d="M187.14,255.617c0-0.783,0.56-1.416,1.332-1.416c0.817,0,1.298,0.638,1.298,1.45v0.106h-2.183
					c0.033,0.509,0.386,0.934,0.968,0.934c0.314,0,0.621-0.123,0.84-0.347l0.201,0.274c-0.274,0.269-0.638,0.42-1.075,0.42
					C187.717,257.039,187.14,256.463,187.14,255.617z M188.467,254.548c-0.576,0-0.862,0.487-0.884,0.896h1.774
					C189.351,255.046,189.083,254.548,188.467,254.548z"/>
			</g>
			<g>
				<path fill="#929497" d="M192.14,256.972v-0.308c-0.218,0.247-0.531,0.375-0.896,0.375c-0.453,0-0.94-0.308-0.94-0.896
					c0-0.61,0.482-0.89,0.94-0.89c0.369,0,0.677,0.118,0.896,0.364v-0.487c0-0.358-0.291-0.565-0.683-0.565
					c-0.325,0-0.588,0.112-0.829,0.375l-0.196-0.291c0.291-0.302,0.638-0.448,1.08-0.448c0.577,0,1.047,0.258,1.047,0.913v1.858
					H192.14z M192.14,256.401v-0.515c-0.162-0.218-0.448-0.33-0.739-0.33c-0.398,0-0.672,0.246-0.672,0.588
					c0,0.347,0.274,0.593,0.672,0.593C191.692,256.737,191.978,256.625,192.14,256.401z"/>
			</g>
			<g>
				<path fill="#929497" d="M195.237,256.972v-1.769c0-0.482-0.246-0.627-0.61-0.627c-0.33,0-0.638,0.201-0.8,0.42v1.976h-0.42
					v-2.704h0.42v0.392c0.19-0.229,0.56-0.459,0.968-0.459c0.56,0,0.857,0.286,0.857,0.873v1.898H195.237z"/>
			</g>
			<g>
				<path fill="#929497" d="M199.638,256.972v-0.308c-0.218,0.247-0.531,0.375-0.896,0.375c-0.453,0-0.94-0.308-0.94-0.896
					c0-0.61,0.482-0.89,0.94-0.89c0.369,0,0.677,0.118,0.896,0.364v-0.487c0-0.358-0.291-0.565-0.683-0.565
					c-0.325,0-0.588,0.112-0.829,0.375l-0.196-0.291c0.291-0.302,0.638-0.448,1.08-0.448c0.577,0,1.047,0.258,1.047,0.913v1.858
					H199.638z M199.638,256.401v-0.515c-0.162-0.218-0.448-0.33-0.739-0.33c-0.398,0-0.672,0.246-0.672,0.588
					c0,0.347,0.274,0.593,0.672,0.593C199.19,256.737,199.476,256.625,199.638,256.401z"/>
			</g>
			<g>
				<path fill="#929497" d="M202.735,256.972v-1.769c0-0.482-0.246-0.627-0.61-0.627c-0.33,0-0.638,0.201-0.8,0.42v1.976h-0.42
					v-2.704h0.42v0.392c0.19-0.229,0.56-0.459,0.968-0.459c0.56,0,0.857,0.286,0.857,0.873v1.898H202.735z"/>
			</g>
			<g>
				<path fill="#929497" d="M205.955,256.972v-0.403c-0.201,0.274-0.531,0.47-0.912,0.47c-0.705,0-1.203-0.537-1.203-1.416
					c0-0.867,0.498-1.422,1.203-1.422c0.364,0,0.694,0.179,0.912,0.476v-1.438h0.42v3.733H205.955z M205.955,256.233v-1.22
					c-0.145-0.235-0.476-0.436-0.806-0.436c-0.548,0-0.873,0.448-0.873,1.047c0,0.599,0.325,1.041,0.873,1.041
					C205.479,256.664,205.81,256.468,205.955,256.233z"/>
			</g>
			<g>
				<path fill="#929497" d="M183.657,263.692l-1.125-2.703h0.459l0.896,2.216l0.901-2.216h0.454l-1.125,2.703H183.657z"/>
			</g>
			<g>
				<path fill="#929497" d="M187.369,263.692v-0.308c-0.218,0.246-0.531,0.375-0.896,0.375c-0.453,0-0.94-0.308-0.94-0.896
					c0-0.61,0.482-0.89,0.94-0.89c0.369,0,0.677,0.118,0.896,0.364v-0.487c0-0.358-0.291-0.565-0.683-0.565
					c-0.325,0-0.588,0.111-0.829,0.375l-0.196-0.291c0.291-0.302,0.638-0.448,1.08-0.448c0.577,0,1.047,0.258,1.047,0.913v1.858
					H187.369z M187.369,263.121v-0.515c-0.162-0.218-0.448-0.33-0.739-0.33c-0.398,0-0.672,0.246-0.672,0.588
					c0,0.347,0.274,0.593,0.672,0.593C186.921,263.457,187.207,263.345,187.369,263.121z"/>
			</g>
			<g>
				<path fill="#929497" d="M188.636,263.692v-3.733h0.42v3.733H188.636z"/>
			</g>
			<g>
				<path fill="#929497" d="M189.823,260.322c0-0.157,0.129-0.285,0.285-0.285c0.157,0,0.28,0.129,0.28,0.285
					c0,0.157-0.123,0.28-0.28,0.28C189.952,260.603,189.823,260.479,189.823,260.322z M189.896,263.692v-2.703h0.42v2.703H189.896z"
					/>
			</g>
			<g>
				<path fill="#929497" d="M193.114,263.692v-0.403c-0.201,0.274-0.531,0.47-0.912,0.47c-0.705,0-1.203-0.537-1.203-1.416
					c0-0.867,0.498-1.422,1.203-1.422c0.364,0,0.694,0.179,0.912,0.476v-1.438h0.42v3.733H193.114z M193.114,262.953v-1.22
					c-0.145-0.235-0.476-0.437-0.806-0.437c-0.548,0-0.873,0.448-0.873,1.047c0,0.599,0.325,1.041,0.873,1.041
					C192.639,263.384,192.969,263.188,193.114,262.953z"/>
			</g>
			<g>
				<path fill="#929497" d="M196.066,263.692v-0.308c-0.218,0.246-0.531,0.375-0.896,0.375c-0.453,0-0.94-0.308-0.94-0.896
					c0-0.61,0.482-0.89,0.94-0.89c0.369,0,0.677,0.118,0.896,0.364v-0.487c0-0.358-0.291-0.565-0.683-0.565
					c-0.325,0-0.588,0.111-0.829,0.375l-0.196-0.291c0.291-0.302,0.638-0.448,1.08-0.448c0.577,0,1.047,0.258,1.047,0.913v1.858
					H196.066z M196.066,263.121v-0.515c-0.162-0.218-0.448-0.33-0.739-0.33c-0.398,0-0.672,0.246-0.672,0.588
					c0,0.347,0.274,0.593,0.672,0.593C195.618,263.457,195.903,263.345,196.066,263.121z"/>
			</g>
			<g>
				<path fill="#929497" d="M197.417,263.126v-1.768h-0.448v-0.369h0.448v-0.739h0.425v0.739h0.549v0.369h-0.549v1.679
					c0,0.202,0.09,0.347,0.269,0.347c0.123,0,0.23-0.056,0.285-0.118l0.123,0.319c-0.106,0.1-0.258,0.174-0.498,0.174
					C197.618,263.759,197.417,263.53,197.417,263.126z"/>
			</g>
			<g>
				<path fill="#929497" d="M198.906,260.322c0-0.157,0.129-0.285,0.285-0.285c0.157,0,0.28,0.129,0.28,0.285
					c0,0.157-0.123,0.28-0.28,0.28C199.035,260.603,198.906,260.479,198.906,260.322z M198.979,263.692v-2.703h0.42v2.703H198.979z"
					/>
			</g>
			<g>
				<path fill="#929497" d="M200.082,262.337c0-0.783,0.515-1.416,1.337-1.416s1.338,0.633,1.338,1.416
					c0,0.783-0.515,1.422-1.338,1.422S200.082,263.121,200.082,262.337z M202.315,262.337c0-0.548-0.319-1.041-0.896-1.041
					c-0.576,0-0.896,0.493-0.896,1.041c0,0.554,0.319,1.047,0.896,1.047C201.996,263.384,202.315,262.891,202.315,262.337z"/>
			</g>
			<g>
				<path fill="#929497" d="M205.272,263.692v-1.768c0-0.481-0.246-0.627-0.61-0.627c-0.33,0-0.638,0.202-0.8,0.42v1.976h-0.42
					v-2.703h0.42v0.392c0.19-0.23,0.56-0.459,0.968-0.459c0.56,0,0.856,0.286,0.856,0.874v1.897H205.272z"/>
			</g>
		</g>
	</g>
	<rect x="106.353" y="237.054" fill="#2D2D2D" width="14.7" height="11.9"/>
	<path fill="#929497" d="M121.553,249.454h-15.7v-12.9h15.7V249.454z M106.853,248.454h13.7v-10.9h-13.7V248.454z"/>
	<rect x="102.992" y="234.487" fill="#2D2D2D" width="16.1" height="12.6"/>
	<path fill="#929497" d="M119.592,247.587h-17.1v-13.6h17.1V247.587z M103.492,246.587h15.1v-11.6h-15.1V246.587z"/>
	<rect x="100.892" y="232.387" fill="#2D2D2D" width="16.1" height="12.6"/>
	<path fill="#929497" d="M117.492,245.487h-17.1v-13.6h17.1V245.487z M101.392,244.487h15.1v-11.6h-15.1V244.487z"/>
	<g>
		<g>
			<path fill="#929497" d="M102.382,255.074c0-1.147,0.845-1.931,1.92-1.931c0.66,0,1.119,0.313,1.416,0.739l-0.386,0.218
				c-0.213-0.319-0.605-0.543-1.03-0.543c-0.817,0-1.439,0.621-1.439,1.517c0,0.885,0.621,1.517,1.439,1.517
				c0.425,0,0.817-0.23,1.03-0.543l0.392,0.213c-0.313,0.431-0.761,0.744-1.422,0.744
				C103.228,257.006,102.382,256.222,102.382,255.074z"/>
		</g>
		<g>
			<path fill="#929497" d="M106.146,255.584c0-0.783,0.515-1.416,1.337-1.416s1.338,0.633,1.338,1.416
				c0,0.784-0.515,1.422-1.338,1.422S106.146,256.368,106.146,255.584z M108.378,255.584c0-0.549-0.319-1.041-0.896-1.041
				c-0.576,0-0.896,0.492-0.896,1.041c0,0.554,0.319,1.047,0.896,1.047C108.06,256.63,108.378,256.138,108.378,255.584z"/>
		</g>
		<g>
			<path fill="#929497" d="M109.505,256.939v-2.704h0.42v0.431c0.218-0.28,0.532-0.493,0.901-0.493v0.431
				c-0.051-0.006-0.101-0.011-0.162-0.011c-0.263,0-0.616,0.213-0.739,0.431v1.914H109.505z"/>
		</g>
		<g>
			<path fill="#929497" d="M111.773,256.53v1.438h-0.42v-3.733h0.42v0.403c0.196-0.274,0.532-0.47,0.912-0.47
				c0.711,0,1.203,0.537,1.203,1.416c0,0.874-0.493,1.422-1.203,1.422C112.316,257.006,111.997,256.826,111.773,256.53z
				 M113.446,255.584c0-0.599-0.324-1.041-0.867-1.041c-0.33,0-0.66,0.196-0.806,0.431v1.221c0.146,0.235,0.476,0.436,0.806,0.436
				C113.122,256.63,113.446,256.182,113.446,255.584z"/>
		</g>
		<g>
			<path fill="#929497" d="M116.381,256.939v-0.381c-0.207,0.235-0.56,0.448-0.962,0.448c-0.565,0-0.862-0.28-0.862-0.862v-1.909
				h0.42v1.78c0,0.476,0.241,0.615,0.61,0.615c0.325,0,0.638-0.19,0.795-0.408v-1.987h0.42v2.704H116.381z"/>
		</g>
		<g>
			<path fill="#929497" d="M117.413,256.58l0.213-0.302c0.179,0.207,0.521,0.386,0.89,0.386c0.414,0,0.644-0.196,0.644-0.465
				c0-0.655-1.673-0.252-1.673-1.254c0-0.425,0.358-0.778,1.002-0.778c0.465,0,0.789,0.174,1.002,0.392l-0.196,0.291
				c-0.162-0.196-0.454-0.341-0.806-0.341c-0.369,0-0.599,0.185-0.599,0.426c0,0.588,1.673,0.201,1.673,1.254
				c0,0.453-0.364,0.817-1.058,0.817C118.056,257.006,117.687,256.865,117.413,256.58z"/>
		</g>
	</g>
	<g>
		<g>
			<g>
				<g>
					<g>
						<line fill="#929497" x1="78.299" y1="227.656" x2="78.299" y2="243.002"/>
					</g>
				</g>
				<g>
					<g>
						<g>
							<rect x="77.949" y="227.656" fill="#929497" width="0.7" height="14.587"/>
						</g>
					</g>
					<g>
						<g>
							<g>
								<polygon fill="#929497" points="75.436,239.924 75.949,239.446 78.298,241.974 80.648,239.446 81.161,239.924 
									78.298,243.002 								"/>
							</g>
						</g>
					</g>
				</g>
			</g>
			<g>
				<g>
					<path fill="#929497" d="M88.449,249.094h-20.3v-14h20.3V249.094z M68.849,248.394h18.9v-12.6h-18.9V248.394z"/>
				</g>
			</g>
		</g>
		<g>
			<g>
				<path fill="#929497" d="M66.245,257.017v-3.733h1.276c1.164,0,1.914,0.811,1.914,1.869c0,1.064-0.75,1.864-1.914,1.864H66.245z
					 M68.954,255.153c0-0.806-0.509-1.455-1.433-1.455H66.71v2.905h0.812C68.428,256.603,68.954,255.953,68.954,255.153z"/>
			</g>
			<g>
				<path fill="#929497" d="M69.992,255.662c0-0.783,0.515-1.416,1.337-1.416c0.823,0,1.338,0.633,1.338,1.416
					c0,0.784-0.515,1.422-1.338,1.422C70.507,257.084,69.992,256.446,69.992,255.662z M72.225,255.662
					c0-0.549-0.319-1.041-0.896-1.041c-0.576,0-0.896,0.492-0.896,1.041c0,0.554,0.319,1.047,0.896,1.047
					C71.906,256.709,72.225,256.217,72.225,255.662z"/>
			</g>
			<g>
				<path fill="#929497" d="M75.692,257.017l-0.705-2.172l-0.705,2.172h-0.42l-0.862-2.704h0.437l0.66,2.155l0.711-2.155h0.364
					l0.705,2.155l0.661-2.155h0.442l-0.862,2.704H75.692z"/>
			</g>
			<g>
				<path fill="#929497" d="M79.293,257.017v-1.769c0-0.482-0.246-0.627-0.61-0.627c-0.33,0-0.638,0.201-0.8,0.42v1.976h-0.42
					v-2.704h0.42v0.392c0.19-0.229,0.56-0.459,0.968-0.459c0.56,0,0.856,0.286,0.856,0.873v1.898H79.293z"/>
			</g>
			<g>
				<path fill="#929497" d="M80.554,257.017v-3.733h0.42v3.733H80.554z"/>
			</g>
			<g>
				<path fill="#929497" d="M81.657,255.662c0-0.783,0.515-1.416,1.337-1.416s1.338,0.633,1.338,1.416
					c0,0.784-0.515,1.422-1.338,1.422S81.657,256.446,81.657,255.662z M83.89,255.662c0-0.549-0.319-1.041-0.896-1.041
					c-0.576,0-0.896,0.492-0.896,1.041c0,0.554,0.319,1.047,0.896,1.047C83.571,256.709,83.89,256.217,83.89,255.662z"/>
			</g>
			<g>
				<path fill="#929497" d="M86.707,257.017v-0.308c-0.218,0.247-0.531,0.375-0.896,0.375c-0.453,0-0.94-0.308-0.94-0.896
					c0-0.61,0.482-0.89,0.94-0.89c0.369,0,0.677,0.118,0.896,0.364v-0.487c0-0.358-0.291-0.565-0.683-0.565
					c-0.325,0-0.588,0.112-0.829,0.375L85,254.694c0.291-0.302,0.638-0.448,1.08-0.448c0.577,0,1.047,0.258,1.047,0.913v1.858
					H86.707z M86.707,256.446v-0.515c-0.162-0.218-0.448-0.33-0.739-0.33c-0.398,0-0.672,0.246-0.672,0.588
					c0,0.347,0.274,0.593,0.672,0.593C86.259,256.782,86.545,256.67,86.707,256.446z"/>
			</g>
			<g>
				<path fill="#929497" d="M89.933,257.017v-0.403c-0.201,0.274-0.531,0.47-0.912,0.47c-0.705,0-1.203-0.537-1.203-1.416
					c0-0.867,0.498-1.422,1.203-1.422c0.364,0,0.694,0.179,0.912,0.476v-1.438h0.42v3.733H89.933z M89.933,256.278v-1.22
					c-0.145-0.235-0.476-0.436-0.806-0.436c-0.548,0-0.873,0.448-0.873,1.047c0,0.599,0.325,1.041,0.873,1.041
					C89.457,256.709,89.787,256.513,89.933,256.278z"/>
			</g>
		</g>
	</g>
	<g>
		<g>
			<g>
				<rect x="46.28" y="240.862" fill="#929497" width="6.3" height="0.7"/>
			</g>
			<g>
				<rect x="46.28" y="242.962" fill="#929497" width="6.3" height="0.7"/>
			</g>
			<g>
				<rect x="46.28" y="245.062" fill="#929497" width="6.3" height="0.7"/>
			</g>
			<g>
				<path fill="#929497" d="M52.016,234.562h-0.395H43.48v14.7h11.9v-11.593v-0.137L52.016,234.562z M52.151,235.468l2.214,1.928
					l-2.349,0.352L52.151,235.468z M54.68,248.562h-10.5v-13.3h7.59l-0.29,3.085l3.199-0.617V248.562z"/>
			</g>
		</g>
		<g>
			<g>
				<path fill="#929497" d="M39.941,257.185v-3.733h1.276c1.164,0,1.914,0.811,1.914,1.869c0,1.064-0.75,1.864-1.914,1.864H39.941z
					 M42.65,255.321c0-0.806-0.509-1.455-1.433-1.455h-0.812v2.905h0.812C42.124,256.771,42.65,256.122,42.65,255.321z"/>
			</g>
			<g>
				<path fill="#929497" d="M45.535,257.185v-0.308c-0.218,0.247-0.531,0.375-0.896,0.375c-0.453,0-0.94-0.308-0.94-0.896
					c0-0.61,0.482-0.89,0.94-0.89c0.369,0,0.677,0.118,0.896,0.364v-0.487c0-0.358-0.291-0.565-0.683-0.565
					c-0.325,0-0.588,0.112-0.829,0.375l-0.196-0.291c0.291-0.302,0.638-0.448,1.08-0.448c0.577,0,1.047,0.258,1.047,0.913v1.858
					H45.535z M45.535,256.615v-0.515c-0.162-0.218-0.448-0.33-0.739-0.33c-0.398,0-0.672,0.246-0.672,0.588
					c0,0.347,0.274,0.593,0.672,0.593C45.087,256.95,45.373,256.838,45.535,256.615z"/>
			</g>
			<g>
				<path fill="#929497" d="M46.886,256.62v-1.769h-0.448v-0.369h0.448v-0.739h0.425v0.739h0.549v0.369h-0.549v1.679
					c0,0.202,0.09,0.347,0.269,0.347c0.123,0,0.23-0.055,0.285-0.117l0.123,0.319c-0.106,0.101-0.258,0.174-0.498,0.174
					C47.087,257.252,46.886,257.023,46.886,256.62z"/>
			</g>
			<g>
				<path fill="#929497" d="M50.138,257.185v-0.308c-0.218,0.247-0.531,0.375-0.896,0.375c-0.453,0-0.94-0.308-0.94-0.896
					c0-0.61,0.482-0.89,0.94-0.89c0.369,0,0.677,0.118,0.896,0.364v-0.487c0-0.358-0.291-0.565-0.683-0.565
					c-0.325,0-0.588,0.112-0.829,0.375l-0.196-0.291c0.291-0.302,0.638-0.448,1.08-0.448c0.577,0,1.047,0.258,1.047,0.913v1.858
					H50.138z M50.138,256.615v-0.515c-0.162-0.218-0.448-0.33-0.739-0.33c-0.398,0-0.672,0.246-0.672,0.588
					c0,0.347,0.274,0.593,0.672,0.593C49.69,256.95,49.976,256.838,50.138,256.615z"/>
			</g>
			<g>
				<path fill="#929497" d="M51.176,256.827l0.213-0.302c0.179,0.207,0.521,0.386,0.89,0.386c0.414,0,0.644-0.196,0.644-0.465
					c0-0.655-1.673-0.252-1.673-1.254c0-0.425,0.358-0.778,1.002-0.778c0.465,0,0.789,0.174,1.002,0.392l-0.196,0.291
					c-0.162-0.196-0.454-0.341-0.806-0.341c-0.369,0-0.599,0.185-0.599,0.426c0,0.588,1.673,0.201,1.673,1.254
					c0,0.453-0.364,0.817-1.058,0.817C51.819,257.252,51.45,257.112,51.176,256.827z"/>
			</g>
			<g>
				<path fill="#929497" d="M53.853,255.83c0-0.783,0.56-1.416,1.332-1.416c0.817,0,1.298,0.638,1.298,1.45v0.106H54.3
					c0.033,0.509,0.386,0.934,0.968,0.934c0.314,0,0.621-0.123,0.84-0.347l0.201,0.274c-0.274,0.269-0.638,0.42-1.075,0.42
					C54.429,257.252,53.853,256.676,53.853,255.83z M55.179,254.762c-0.576,0-0.862,0.487-0.884,0.896h1.774
					C56.063,255.26,55.795,254.762,55.179,254.762z"/>
			</g>
			<g>
				<path fill="#929497" d="M57.246,256.62v-1.769h-0.448v-0.369h0.448v-0.739h0.425v0.739h0.549v0.369h-0.549v1.679
					c0,0.202,0.09,0.347,0.269,0.347c0.123,0,0.23-0.055,0.285-0.117l0.123,0.319c-0.107,0.101-0.258,0.174-0.498,0.174
					C57.447,257.252,57.246,257.023,57.246,256.62z"/>
			</g>
		</g>
	</g>
	<g>
		<g>
			<g>
				<g>
					<path fill="#929497" d="M26.21,250h-8.649l-4.331-7.5l4.331-7.5h8.649l4.331,7.5L26.21,250z M17.961,249h7.849l3.918-6.5
						L25.81,236h-7.849l-3.918,6.5L17.961,249z"/>
				</g>
			</g>
			<g>
				<g>
					<path fill="#929497" d="M24.698,247h-5.626l-2.837-4.5l2.837-4.5h5.626l2.837,4.5L24.698,247z M19.46,246h4.849l2.4-3.5
						l-2.4-3.5H19.46l-2.4,3.5L19.46,246z"/>
				</g>
			</g>
		</g>
		<g>
			<g>
				<path fill="#929497" d="M17.072,256.956v-3.319h-1.181v-0.414h2.832v0.414h-1.187v3.319H17.072z"/>
			</g>
			<g>
				<path fill="#929497" d="M18.524,255.601c0-0.783,0.515-1.416,1.337-1.416s1.338,0.633,1.338,1.416
					c0,0.784-0.515,1.422-1.338,1.422S18.524,256.385,18.524,255.601z M20.757,255.601c0-0.549-0.319-1.041-0.896-1.041
					c-0.576,0-0.896,0.492-0.896,1.041c0,0.554,0.319,1.047,0.896,1.047C20.438,256.647,20.757,256.155,20.757,255.601z"/>
			</g>
			<g>
				<path fill="#929497" d="M21.727,255.601c0-0.783,0.515-1.416,1.337-1.416c0.823,0,1.338,0.633,1.338,1.416
					c0,0.784-0.515,1.422-1.338,1.422C22.242,257.023,21.727,256.385,21.727,255.601z M23.96,255.601
					c0-0.549-0.319-1.041-0.896-1.041c-0.576,0-0.896,0.492-0.896,1.041c0,0.554,0.319,1.047,0.896,1.047
					C23.641,256.647,23.96,256.155,23.96,255.601z"/>
			</g>
			<g>
				<path fill="#929497" d="M25.087,256.956v-3.733h0.42v3.733H25.087z"/>
			</g>
		</g>
	</g>
	<g>
		<rect x="12.5" y="223.5" fill="#F2F2F2" stroke="#929497" stroke-miterlimit="10" width="194" height="1"/>
	</g>
</g>
<g id="guide" display="none">
</g>
</svg>
