<?xml version="1.0" encoding="utf-8"?>
<!-- Generator: Adobe Illustrator 17.0.0, SVG Export Plug-In . SVG Version: 6.00 Build 0)  -->
<!DOCTYPE svg PUBLIC "-//W3C//DTD SVG 1.1//EN" "http://www.w3.org/Graphics/SVG/1.1/DTD/svg11.dtd">
<svg version="1.1" xmlns="http://www.w3.org/2000/svg" xmlns:xlink="http://www.w3.org/1999/xlink" x="0px" y="0px" width="850px"
	 height="211px" viewBox="0 0 850 211" enable-background="new 0 0 850 211" xml:space="preserve">
<g id="sfondo">
	<rect fill="#2D2D2D" width="850" height="211"/>
</g>
<g id="Livello_1">
	<g>
		<rect x="71.329" y="79.354" fill="none" width="36.004" height="8.792"/>
		<text transform="matrix(1 0 0 1 71.3291 86.0244)" fill="#F2F2F2" font-family="'ProximaNova-Regular'" font-size="10">Uber is </text>
	</g>
	<rect x="27.344" y="78.75" fill="none" width="36.156" height="10"/>
	<text transform="matrix(1 0 0 1 27.344 85.4197)" fill="#F2F2F2" font-family="'ProximaNova-Regular'" font-size="10">QUERY</text>
	<line fill="none" stroke="#F2F2F2" stroke-miterlimit="10" x1="63.5" y1="68" x2="63.5" y2="93"/>
	<line fill="none" stroke="#F2F2F2" stroke-miterlimit="10" x1="23.5" y1="36" x2="23.5" y2="87"/>
	<rect x="28.5" y="23.41" fill="none" width="39.829" height="8.5"/>
	<text transform="matrix(1 0 0 1 28.5002 30.0803)" fill="#F2F2F2" font-family="'ProximaNova-Regular'" font-size="10">SOURCE</text>
	<rect x="79.086" y="21.494" fill="none" width="254.081" height="10.333"/>
	<text transform="matrix(1 0 0 1 79.0857 29.4978)"><tspan x="0" y="0" fill="#F2F2F2" font-family="'ProximaNova-Regular'" font-size="12">Google.</tspan><tspan x="41.411" y="0" fill="#F2F2F2" font-family="'ProximaNova-RegularIt'" font-size="12">domain of the country</tspan></text>
	<rect x="23.5" y="16.5" fill="none" stroke="#F2F2F2" stroke-miterlimit="10" width="49" height="19"/>
	<line fill="#F2F2F2" x1="143" y1="124" x2="143" y2="129"/>
	<rect x="159.002" y="76.747" fill="none" width="97.331" height="32.253"/>
	<text transform="matrix(1 0 0 1 168.8084 83.417)"><tspan x="0" y="0" fill="#F2F2F2" font-family="'ProximaNova-Regular'" font-size="10">X 26 COUNTRIES</tspan><tspan x="11.025" y="12" fill="#F2F2F2" font-family="'ProximaNova-RegularIt'" font-size="10">4 first results</tspan></text>
	<polyline fill="none" stroke="#F2F2F2" stroke-miterlimit="10" points="108,69.5 118.5,69.5 118.5,94.5 107,94.5 	"/>
	<g>
		<g>
			<line fill="none" stroke="#F2F2F2" stroke-miterlimit="10" x1="256" y1="82.5" x2="295" y2="82.5"/>
			<g>
				<polygon fill="#F2F2F2" points="291.602,86.25 290.92,85.518 294.532,82.162 290.92,78.804 291.602,78.072 296,82.162 				"/>
			</g>
		</g>
	</g>
	<g>
		<g>
			<line fill="none" stroke="#F2F2F2" stroke-miterlimit="10" x1="119" y1="82.5" x2="158" y2="82.5"/>
			<g>
				<polygon fill="#F2F2F2" points="154.602,86.25 153.92,85.518 157.532,82.162 153.92,78.804 154.602,78.072 159,82.162 				"/>
			</g>
		</g>
	</g>
	<g>
		<g>
			<line fill="none" stroke="#F2F2F2" stroke-miterlimit="10" x1="339" y1="82.5" x2="378" y2="82.5"/>
			<g>
				<polygon fill="#F2F2F2" points="374.602,86.25 373.92,85.518 377.532,82.162 373.92,78.804 374.602,78.072 379,82.162 				"/>
			</g>
		</g>
	</g>
	<g>
		<g>
			<line fill="none" stroke="#F2F2F2" stroke-miterlimit="10" x1="419" y1="82.5" x2="458" y2="82.5"/>
			<g>
				<polygon fill="#F2F2F2" points="454.602,86.25 453.92,85.518 457.532,82.162 453.92,78.804 454.602,78.072 459,82.162 				"/>
			</g>
		</g>
	</g>
	<rect x="362.833" y="97.414" fill="none" width="71.333" height="52.92"/>
	<text transform="matrix(1 0 0 1 372.2254 104.084)" fill="#F2F2F2" font-family="'ProximaNova-Regular'" font-size="10">Tag content</text>
	<g>
		<g>
			<polygon fill="#F2F2F2" points="406,92 391,92 391,71 392,71 392,91 405,91 405,71 406,71 			"/>
		</g>
		<g>
			<path fill="#F2F2F2" d="M398.5,76.487c-1.746,0-3.167-1.421-3.167-3.167s1.421-3.167,3.167-3.167s3.167,1.421,3.167,3.167
				S400.246,76.487,398.5,76.487z M398.5,71.153c-1.195,0-2.167,0.972-2.167,2.167s0.972,2.167,2.167,2.167s2.167-0.972,2.167-2.167
				S399.695,71.153,398.5,71.153z"/>
		</g>
		<g>
			<polygon fill="#F2F2F2" points="391.64,71.77 391.026,70.98 398.496,65.178 405.888,70.981 405.271,71.769 398.492,66.447 			"/>
		</g>
	</g>
	<polyline fill="none" stroke="#F2F2F2" stroke-miterlimit="10" points="477.051,63.766 498.023,74.57 475.804,81.441 
		490.482,62.824 494.252,89.453 484.786,87.332 	"/>
	<circle fill="#2D2D2D" stroke="#F2F2F2" stroke-miterlimit="10" cx="491.562" cy="61.534" r="2.059"/>
	<circle fill="#2D2D2D" stroke="#F2F2F2" stroke-miterlimit="10" cx="498.26" cy="74.371" r="2.059"/>
	<polyline fill="none" stroke="#F2F2F2" stroke-miterlimit="10" points="474.818,81.069 477.051,63.766 484.865,87.208 	"/>
	<circle fill="#2D2D2D" stroke="#F2F2F2" stroke-miterlimit="10" cx="477.051" cy="63.766" r="2.059"/>
	<circle fill="#2D2D2D" stroke="#F2F2F2" stroke-miterlimit="10" cx="474.818" cy="81.069" r="2.059"/>
	<circle fill="#2D2D2D" stroke="#F2F2F2" stroke-miterlimit="10" cx="484.865" cy="87.208" r="2.059"/>
	<circle fill="#2D2D2D" stroke="#F2F2F2" stroke-miterlimit="10" cx="494.911" cy="89.441" r="2.059"/>
	<rect x="452.885" y="97.969" fill="none" width="63.703" height="40.365"/>
	<text transform="matrix(1 0 0 1 453.2715 104.6387)"><tspan x="0" y="0" fill="#F2F2F2" font-family="'ProximaNova-Regular'" font-size="10">ILLUSTRATOR</tspan><tspan x="28.97" y="9" fill="#F2F2F2" font-family="'ProximaNova-Regular'" font-size="10">+ </tspan><tspan x="20.715" y="18" fill="#F2F2F2" font-family="'ProximaNova-Regular'" font-size="10">RAW</tspan></text>
	<rect x="296.123" y="100.247" fill="none" width="43.333" height="8"/>
	<text transform="matrix(1 0 0 1 302.9955 106.9172)" fill="#F2F2F2" font-family="'ProximaNova-Regular'" font-size="10">EXCEL</text>
	<g>
		<rect x="313.29" y="80.247" fill="#F2F2F2" width="9" height="1"/>
		<rect x="313.29" y="83.247" fill="#F2F2F2" width="9" height="1"/>
		<rect x="313.29" y="86.247" fill="#F2F2F2" width="9" height="1"/>
		<path fill="#F2F2F2" d="M321.484,71.247h-0.564h-11.63v21h17V75.686V75.49L321.484,71.247z M321.677,72.541l3.162,2.754
			l-3.356,0.503L321.677,72.541z M325.29,91.247h-15v-19h10.843l-0.414,4.408l4.571-0.882V91.247z"/>
	</g>
	<g>
		<g>
			<g>
				<path fill="#929497" d="M139.228,176.656v-0.441l2.642-1.269l-2.642-1.283v-0.441l3.091,1.535v0.372L139.228,176.656z"/>
			</g>
			<g>
				<path fill="#929497" d="M142.503,177.953v-0.386h3.995v0.386H142.503z"/>
			</g>
			<g>
				<g>
					<path fill="#929497" d="M153.428,187.495h-16.939v-16.939h16.939V187.495z M137.189,186.795h15.539v-15.539h-15.539V186.795z"
						/>
				</g>
			</g>
		</g>
		<g>
			<g>
				<path fill="#929497" d="M138.077,194.953l0.28-0.358c0.241,0.28,0.644,0.537,1.17,0.537c0.666,0,0.879-0.358,0.879-0.649
					c0-0.963-2.211-0.425-2.211-1.757c0-0.616,0.549-1.041,1.287-1.041c0.565,0,1.008,0.196,1.321,0.526l-0.28,0.341
					c-0.28-0.313-0.672-0.448-1.08-0.448c-0.442,0-0.767,0.241-0.767,0.593c0,0.839,2.211,0.358,2.211,1.752
					c0,0.537-0.369,1.097-1.377,1.097C138.866,195.546,138.385,195.3,138.077,194.953z"/>
			</g>
			<g>
				<path fill="#929497" d="M141.409,194.125c0-0.8,0.543-1.416,1.349-1.416c0.493,0,0.783,0.202,0.991,0.47l-0.28,0.252
					c-0.179-0.246-0.409-0.347-0.688-0.347c-0.571,0-0.935,0.442-0.935,1.041c0,0.599,0.364,1.047,0.935,1.047
					c0.28,0,0.509-0.111,0.688-0.352l0.28,0.257c-0.207,0.269-0.498,0.47-0.991,0.47
					C141.952,195.546,141.409,194.925,141.409,194.125z"/>
			</g>
			<g>
				<path fill="#929497" d="M144.343,195.479v-2.704h0.42v0.431c0.218-0.28,0.532-0.493,0.901-0.493v0.431
					c-0.051-0.006-0.101-0.011-0.162-0.011c-0.263,0-0.616,0.213-0.739,0.431v1.914H144.343z"/>
			</g>
			<g>
				<path fill="#929497" d="M146.118,192.11c0-0.157,0.129-0.285,0.285-0.285c0.157,0,0.28,0.129,0.28,0.285
					c0,0.157-0.123,0.28-0.28,0.28C146.247,192.39,146.118,192.267,146.118,192.11z M146.191,195.479v-2.704h0.42v2.704H146.191z"/>
			</g>
			<g>
				<path fill="#929497" d="M147.87,195.071v1.438h-0.42v-3.733h0.42v0.403c0.196-0.274,0.532-0.47,0.912-0.47
					c0.711,0,1.203,0.537,1.203,1.416c0,0.874-0.493,1.422-1.203,1.422C148.413,195.546,148.094,195.367,147.87,195.071z
					 M149.544,194.125c0-0.599-0.324-1.041-0.867-1.041c-0.33,0-0.66,0.196-0.806,0.431v1.221c0.146,0.235,0.476,0.436,0.806,0.436
					C149.219,195.171,149.544,194.723,149.544,194.125z"/>
			</g>
			<g>
				<path fill="#929497" d="M150.738,194.914v-1.769h-0.448v-0.369h0.448v-0.739h0.425v0.739h0.549v0.369h-0.549v1.679
					c0,0.202,0.09,0.347,0.269,0.347c0.123,0,0.23-0.055,0.285-0.117l0.123,0.319c-0.107,0.101-0.258,0.174-0.498,0.174
					C150.939,195.546,150.738,195.317,150.738,194.914z"/>
			</g>
		</g>
	</g>
	<g>
		<g>
			<polygon fill="#929497" points="177,186 166,186 166,171 167,171 167,185 176,185 176,171 177,171 			"/>
		</g>
	</g>
	<g>
		<g>
			<path fill="#929497" d="M171.341,175.595c-1.222,0-2.217-0.995-2.217-2.217c0-1.222,0.995-2.217,2.217-2.217
				c1.222,0,2.217,0.995,2.217,2.217C173.558,174.6,172.563,175.595,171.341,175.595z M171.341,171.861
				c-0.837,0-1.517,0.68-1.517,1.517s0.68,1.517,1.517,1.517s1.517-0.68,1.517-1.517S172.178,171.861,171.341,171.861z"/>
		</g>
	</g>
	<g>
		<g>
			<polygon fill="#929497" points="166.52,172.292 166.091,171.74 171.32,167.678 176.494,171.741 176.062,172.292 171.317,168.567 
							"/>
		</g>
	</g>
	<g>
		<g>
			<path fill="#929497" d="M168.462,194.256v-3.319h-1.181v-0.414h2.832v0.414h-1.187v3.319H168.462z"/>
		</g>
		<g>
			<path fill="#929497" d="M171.872,194.256v-0.308c-0.218,0.247-0.531,0.375-0.896,0.375c-0.453,0-0.94-0.308-0.94-0.896
				c0-0.61,0.482-0.89,0.94-0.89c0.369,0,0.677,0.118,0.896,0.364v-0.487c0-0.358-0.291-0.565-0.683-0.565
				c-0.325,0-0.588,0.112-0.829,0.375l-0.196-0.291c0.291-0.302,0.638-0.448,1.08-0.448c0.577,0,1.047,0.258,1.047,0.913v1.858
				H171.872z M171.872,193.685v-0.515c-0.162-0.218-0.448-0.33-0.739-0.33c-0.398,0-0.672,0.246-0.672,0.588
				c0,0.347,0.274,0.593,0.672,0.593C171.424,194.02,171.709,193.908,171.872,193.685z"/>
		</g>
		<g>
			<path fill="#929497" d="M173.133,194.944l0.213-0.302c0.224,0.263,0.493,0.364,0.879,0.364c0.448,0,0.873-0.218,0.873-0.79
				v-0.408c-0.201,0.274-0.531,0.481-0.912,0.481c-0.705,0-1.203-0.526-1.203-1.4c0-0.867,0.493-1.405,1.203-1.405
				c0.364,0,0.694,0.179,0.912,0.476v-0.408h0.42v2.664c0,0.857-0.632,1.137-1.293,1.137
				C173.771,195.353,173.457,195.263,173.133,194.944z M175.097,193.478v-1.187c-0.151-0.229-0.476-0.431-0.806-0.431
				c-0.548,0-0.873,0.431-0.873,1.029c0,0.594,0.325,1.024,0.873,1.024C174.622,193.914,174.946,193.713,175.097,193.478z"/>
		</g>
	</g>
	<g>
		<g>
			<g>
				<g>
					<path fill="#929497" d="M205.646,186.987h-16.8v-16.8h16.8V186.987z M189.546,186.287h15.4v-15.4h-15.4V186.287z"/>
				</g>
			</g>
			<g>
				<g>
					<polygon fill="#929497" points="199.559,178.723 195.297,174.017 195.815,173.547 199.383,177.485 204.175,167.615 
						204.805,167.921 					"/>
				</g>
			</g>
		</g>
		<g>
			<g>
				<path fill="#929497" d="M185.117,193.108c0-1.147,0.845-1.931,1.92-1.931c0.66,0,1.119,0.313,1.416,0.739l-0.386,0.218
					c-0.213-0.319-0.605-0.543-1.03-0.543c-0.817,0-1.439,0.621-1.439,1.517c0,0.885,0.621,1.517,1.439,1.517
					c0.425,0,0.817-0.23,1.03-0.543l0.392,0.213c-0.313,0.431-0.761,0.744-1.422,0.744
					C185.963,195.039,185.117,194.256,185.117,193.108z"/>
			</g>
			<g>
				<path fill="#929497" d="M189.037,194.972v-3.733h0.42v3.733H189.037z"/>
			</g>
			<g>
				<path fill="#929497" d="M190.14,193.617c0-0.783,0.56-1.416,1.332-1.416c0.817,0,1.298,0.638,1.298,1.45v0.106h-2.183
					c0.033,0.509,0.386,0.934,0.968,0.934c0.314,0,0.621-0.123,0.84-0.347l0.201,0.274c-0.274,0.269-0.638,0.42-1.075,0.42
					C190.717,195.039,190.14,194.463,190.14,193.617z M191.467,192.548c-0.576,0-0.862,0.487-0.884,0.896h1.774
					C192.351,193.046,192.083,192.548,191.467,192.548z"/>
			</g>
			<g>
				<path fill="#929497" d="M195.14,194.972v-0.308c-0.218,0.247-0.531,0.375-0.896,0.375c-0.453,0-0.94-0.308-0.94-0.896
					c0-0.61,0.482-0.89,0.94-0.89c0.369,0,0.677,0.118,0.896,0.364v-0.487c0-0.358-0.291-0.565-0.683-0.565
					c-0.325,0-0.588,0.112-0.829,0.375l-0.196-0.291c0.291-0.302,0.638-0.448,1.08-0.448c0.577,0,1.047,0.258,1.047,0.913v1.858
					H195.14z M195.14,194.401v-0.515c-0.162-0.218-0.448-0.33-0.739-0.33c-0.398,0-0.672,0.246-0.672,0.588
					c0,0.347,0.274,0.593,0.672,0.593C194.692,194.737,194.978,194.625,195.14,194.401z"/>
			</g>
			<g>
				<path fill="#929497" d="M198.237,194.972v-1.769c0-0.482-0.246-0.627-0.61-0.627c-0.33,0-0.638,0.201-0.8,0.42v1.976h-0.42
					v-2.704h0.42v0.392c0.19-0.229,0.56-0.459,0.968-0.459c0.56,0,0.857,0.286,0.857,0.873v1.898H198.237z"/>
			</g>
			<g>
				<path fill="#929497" d="M202.638,194.972v-0.308c-0.218,0.247-0.531,0.375-0.896,0.375c-0.453,0-0.94-0.308-0.94-0.896
					c0-0.61,0.482-0.89,0.94-0.89c0.369,0,0.677,0.118,0.896,0.364v-0.487c0-0.358-0.291-0.565-0.683-0.565
					c-0.325,0-0.588,0.112-0.829,0.375l-0.196-0.291c0.291-0.302,0.638-0.448,1.08-0.448c0.577,0,1.047,0.258,1.047,0.913v1.858
					H202.638z M202.638,194.401v-0.515c-0.162-0.218-0.448-0.33-0.739-0.33c-0.398,0-0.672,0.246-0.672,0.588
					c0,0.347,0.274,0.593,0.672,0.593C202.19,194.737,202.476,194.625,202.638,194.401z"/>
			</g>
			<g>
				<path fill="#929497" d="M205.735,194.972v-1.769c0-0.482-0.246-0.627-0.61-0.627c-0.33,0-0.638,0.201-0.8,0.42v1.976h-0.42
					v-2.704h0.42v0.392c0.19-0.229,0.56-0.459,0.968-0.459c0.56,0,0.857,0.286,0.857,0.873v1.898H205.735z"/>
			</g>
			<g>
				<path fill="#929497" d="M208.955,194.972v-0.403c-0.201,0.274-0.531,0.47-0.912,0.47c-0.705,0-1.203-0.537-1.203-1.416
					c0-0.867,0.498-1.422,1.203-1.422c0.364,0,0.694,0.179,0.912,0.476v-1.438h0.42v3.733H208.955z M208.955,194.233v-1.22
					c-0.145-0.235-0.476-0.436-0.806-0.436c-0.548,0-0.873,0.448-0.873,1.047c0,0.599,0.325,1.041,0.873,1.041
					C208.479,194.664,208.81,194.468,208.955,194.233z"/>
			</g>
			<g>
				<path fill="#929497" d="M186.657,201.692l-1.125-2.703h0.459l0.896,2.216l0.901-2.216h0.454l-1.125,2.703H186.657z"/>
			</g>
			<g>
				<path fill="#929497" d="M190.369,201.692v-0.308c-0.218,0.246-0.531,0.375-0.896,0.375c-0.453,0-0.94-0.308-0.94-0.896
					c0-0.61,0.482-0.89,0.94-0.89c0.369,0,0.677,0.118,0.896,0.364v-0.487c0-0.358-0.291-0.565-0.683-0.565
					c-0.325,0-0.588,0.111-0.829,0.375l-0.196-0.291c0.291-0.302,0.638-0.448,1.08-0.448c0.577,0,1.047,0.258,1.047,0.913v1.858
					H190.369z M190.369,201.121v-0.515c-0.162-0.218-0.448-0.33-0.739-0.33c-0.398,0-0.672,0.246-0.672,0.588
					c0,0.347,0.274,0.593,0.672,0.593C189.921,201.457,190.207,201.345,190.369,201.121z"/>
			</g>
			<g>
				<path fill="#929497" d="M191.636,201.692v-3.733h0.42v3.733H191.636z"/>
			</g>
			<g>
				<path fill="#929497" d="M192.823,198.322c0-0.157,0.129-0.285,0.285-0.285c0.157,0,0.28,0.129,0.28,0.285
					c0,0.157-0.123,0.28-0.28,0.28C192.952,198.603,192.823,198.479,192.823,198.322z M192.896,201.692v-2.703h0.42v2.703H192.896z"
					/>
			</g>
			<g>
				<path fill="#929497" d="M196.114,201.692v-0.403c-0.201,0.274-0.531,0.47-0.912,0.47c-0.705,0-1.203-0.537-1.203-1.416
					c0-0.867,0.498-1.422,1.203-1.422c0.364,0,0.694,0.179,0.912,0.476v-1.438h0.42v3.733H196.114z M196.114,200.953v-1.22
					c-0.145-0.235-0.476-0.437-0.806-0.437c-0.548,0-0.873,0.448-0.873,1.047s0.325,1.041,0.873,1.041
					C195.639,201.384,195.969,201.188,196.114,200.953z"/>
			</g>
			<g>
				<path fill="#929497" d="M199.066,201.692v-0.308c-0.218,0.246-0.531,0.375-0.896,0.375c-0.453,0-0.94-0.308-0.94-0.896
					c0-0.61,0.482-0.89,0.94-0.89c0.369,0,0.677,0.118,0.896,0.364v-0.487c0-0.358-0.291-0.565-0.683-0.565
					c-0.325,0-0.588,0.111-0.829,0.375l-0.196-0.291c0.291-0.302,0.638-0.448,1.08-0.448c0.577,0,1.047,0.258,1.047,0.913v1.858
					H199.066z M199.066,201.121v-0.515c-0.162-0.218-0.448-0.33-0.739-0.33c-0.398,0-0.672,0.246-0.672,0.588
					c0,0.347,0.274,0.593,0.672,0.593C198.618,201.457,198.903,201.345,199.066,201.121z"/>
			</g>
			<g>
				<path fill="#929497" d="M200.417,201.126v-1.768h-0.448v-0.369h0.448v-0.739h0.425v0.739h0.549v0.369h-0.549v1.679
					c0,0.202,0.09,0.347,0.269,0.347c0.123,0,0.23-0.056,0.285-0.118l0.123,0.319c-0.106,0.1-0.258,0.174-0.498,0.174
					C200.618,201.759,200.417,201.53,200.417,201.126z"/>
			</g>
			<g>
				<path fill="#929497" d="M201.906,198.322c0-0.157,0.129-0.285,0.285-0.285c0.157,0,0.28,0.129,0.28,0.285
					c0,0.157-0.123,0.28-0.28,0.28C202.035,198.603,201.906,198.479,201.906,198.322z M201.979,201.692v-2.703h0.42v2.703H201.979z"
					/>
			</g>
			<g>
				<path fill="#929497" d="M203.082,200.337c0-0.783,0.515-1.416,1.337-1.416s1.338,0.633,1.338,1.416
					c0,0.783-0.515,1.422-1.338,1.422S203.082,201.121,203.082,200.337z M205.315,200.337c0-0.548-0.319-1.041-0.896-1.041
					c-0.576,0-0.896,0.493-0.896,1.041c0,0.554,0.319,1.047,0.896,1.047C204.996,201.384,205.315,200.891,205.315,200.337z"/>
			</g>
			<g>
				<path fill="#929497" d="M208.272,201.692v-1.768c0-0.481-0.246-0.627-0.61-0.627c-0.33,0-0.638,0.202-0.8,0.42v1.976h-0.42
					v-2.703h0.42v0.392c0.19-0.23,0.56-0.459,0.968-0.459c0.56,0,0.856,0.286,0.856,0.874v1.897H208.272z"/>
			</g>
		</g>
	</g>
	<rect x="109.353" y="175.054" fill="#2D2D2D" width="14.7" height="11.9"/>
	<path fill="#929497" d="M124.553,187.454h-15.7v-12.9h15.7V187.454z M109.853,186.454h13.7v-10.9h-13.7V186.454z"/>
	<rect x="105.992" y="172.487" fill="#2D2D2D" width="16.1" height="12.6"/>
	<path fill="#929497" d="M122.592,185.587h-17.1v-13.6h17.1V185.587z M106.492,184.587h15.1v-11.6h-15.1V184.587z"/>
	<rect x="103.892" y="170.387" fill="#2D2D2D" width="16.1" height="12.6"/>
	<path fill="#929497" d="M120.492,183.487h-17.1v-13.6h17.1V183.487z M104.392,182.487h15.1v-11.6h-15.1V182.487z"/>
	<g>
		<g>
			<path fill="#929497" d="M105.382,193.074c0-1.147,0.845-1.931,1.92-1.931c0.66,0,1.119,0.313,1.416,0.739l-0.386,0.218
				c-0.213-0.319-0.605-0.543-1.03-0.543c-0.817,0-1.439,0.621-1.439,1.517c0,0.885,0.621,1.517,1.439,1.517
				c0.425,0,0.817-0.23,1.03-0.543l0.392,0.213c-0.313,0.431-0.761,0.744-1.422,0.744
				C106.228,195.006,105.382,194.222,105.382,193.074z"/>
		</g>
		<g>
			<path fill="#929497" d="M109.146,193.584c0-0.783,0.515-1.416,1.337-1.416s1.338,0.633,1.338,1.416
				c0,0.784-0.515,1.422-1.338,1.422S109.146,194.368,109.146,193.584z M111.378,193.584c0-0.549-0.319-1.041-0.896-1.041
				c-0.576,0-0.896,0.492-0.896,1.041c0,0.554,0.319,1.047,0.896,1.047C111.06,194.63,111.378,194.138,111.378,193.584z"/>
		</g>
		<g>
			<path fill="#929497" d="M112.505,194.939v-2.704h0.42v0.431c0.218-0.28,0.532-0.493,0.901-0.493v0.431
				c-0.051-0.006-0.101-0.011-0.162-0.011c-0.263,0-0.616,0.213-0.739,0.431v1.914H112.505z"/>
		</g>
		<g>
			<path fill="#929497" d="M114.773,194.53v1.438h-0.42v-3.733h0.42v0.403c0.196-0.274,0.532-0.47,0.912-0.47
				c0.711,0,1.203,0.537,1.203,1.416c0,0.874-0.493,1.422-1.203,1.422C115.316,195.006,114.997,194.826,114.773,194.53z
				 M116.446,193.584c0-0.599-0.324-1.041-0.867-1.041c-0.33,0-0.66,0.196-0.806,0.431v1.221c0.146,0.235,0.476,0.436,0.806,0.436
				C116.122,194.63,116.446,194.182,116.446,193.584z"/>
		</g>
		<g>
			<path fill="#929497" d="M119.381,194.939v-0.381c-0.207,0.235-0.56,0.448-0.962,0.448c-0.565,0-0.862-0.28-0.862-0.862v-1.909
				h0.42v1.78c0,0.476,0.241,0.615,0.61,0.615c0.325,0,0.638-0.19,0.795-0.408v-1.987h0.42v2.704H119.381z"/>
		</g>
		<g>
			<path fill="#929497" d="M120.413,194.58l0.213-0.302c0.179,0.207,0.521,0.386,0.89,0.386c0.414,0,0.644-0.196,0.644-0.465
				c0-0.655-1.673-0.252-1.673-1.254c0-0.425,0.358-0.778,1.002-0.778c0.465,0,0.789,0.174,1.002,0.392l-0.196,0.291
				c-0.162-0.196-0.454-0.341-0.806-0.341c-0.369,0-0.599,0.185-0.599,0.426c0,0.588,1.673,0.201,1.673,1.254
				c0,0.453-0.364,0.817-1.058,0.817C121.056,195.006,120.687,194.865,120.413,194.58z"/>
		</g>
	</g>
	<g>
		<g>
			<g>
				<g>
					<g>
						<line fill="#929497" x1="81.299" y1="165.656" x2="81.299" y2="181.002"/>
					</g>
				</g>
				<g>
					<g>
						<g>
							<rect x="80.949" y="165.656" fill="#929497" width="0.7" height="14.587"/>
						</g>
					</g>
					<g>
						<g>
							<g>
								<polygon fill="#929497" points="78.436,177.924 78.949,177.446 81.298,179.974 83.648,177.446 84.161,177.924 
									81.298,181.002 								"/>
							</g>
						</g>
					</g>
				</g>
			</g>
			<g>
				<g>
					<path fill="#929497" d="M91.449,187.094h-20.3v-14h20.3V187.094z M71.849,186.394h18.9v-12.6h-18.9V186.394z"/>
				</g>
			</g>
		</g>
		<g>
			<g>
				<path fill="#929497" d="M69.245,195.017v-3.733h1.276c1.164,0,1.914,0.811,1.914,1.869c0,1.064-0.75,1.864-1.914,1.864H69.245z
					 M71.954,193.153c0-0.806-0.509-1.455-1.433-1.455H69.71v2.905h0.812C71.428,194.603,71.954,193.953,71.954,193.153z"/>
			</g>
			<g>
				<path fill="#929497" d="M72.992,193.662c0-0.783,0.515-1.416,1.337-1.416c0.823,0,1.338,0.633,1.338,1.416
					c0,0.784-0.515,1.422-1.338,1.422C73.507,195.084,72.992,194.446,72.992,193.662z M75.225,193.662
					c0-0.549-0.319-1.041-0.896-1.041c-0.576,0-0.896,0.492-0.896,1.041c0,0.554,0.319,1.047,0.896,1.047
					C74.906,194.709,75.225,194.217,75.225,193.662z"/>
			</g>
			<g>
				<path fill="#929497" d="M78.692,195.017l-0.705-2.172l-0.705,2.172h-0.42l-0.862-2.704h0.437l0.66,2.155l0.711-2.155h0.364
					l0.705,2.155l0.661-2.155h0.442l-0.862,2.704H78.692z"/>
			</g>
			<g>
				<path fill="#929497" d="M82.293,195.017v-1.769c0-0.482-0.246-0.627-0.61-0.627c-0.33,0-0.638,0.201-0.8,0.42v1.976h-0.42
					v-2.704h0.42v0.392c0.19-0.229,0.56-0.459,0.968-0.459c0.56,0,0.856,0.286,0.856,0.873v1.898H82.293z"/>
			</g>
			<g>
				<path fill="#929497" d="M83.554,195.017v-3.733h0.42v3.733H83.554z"/>
			</g>
			<g>
				<path fill="#929497" d="M84.657,193.662c0-0.783,0.515-1.416,1.337-1.416s1.338,0.633,1.338,1.416
					c0,0.784-0.515,1.422-1.338,1.422S84.657,194.446,84.657,193.662z M86.89,193.662c0-0.549-0.319-1.041-0.896-1.041
					c-0.576,0-0.896,0.492-0.896,1.041c0,0.554,0.319,1.047,0.896,1.047C86.571,194.709,86.89,194.217,86.89,193.662z"/>
			</g>
			<g>
				<path fill="#929497" d="M89.707,195.017v-0.308c-0.218,0.247-0.531,0.375-0.896,0.375c-0.453,0-0.94-0.308-0.94-0.896
					c0-0.61,0.482-0.89,0.94-0.89c0.369,0,0.677,0.118,0.896,0.364v-0.487c0-0.358-0.291-0.565-0.683-0.565
					c-0.325,0-0.588,0.112-0.829,0.375L88,192.694c0.291-0.302,0.638-0.448,1.08-0.448c0.577,0,1.047,0.258,1.047,0.913v1.858
					H89.707z M89.707,194.446v-0.515c-0.162-0.218-0.448-0.33-0.739-0.33c-0.398,0-0.672,0.246-0.672,0.588
					c0,0.347,0.274,0.593,0.672,0.593C89.259,194.782,89.545,194.67,89.707,194.446z"/>
			</g>
			<g>
				<path fill="#929497" d="M92.933,195.017v-0.403c-0.201,0.274-0.531,0.47-0.912,0.47c-0.705,0-1.203-0.537-1.203-1.416
					c0-0.867,0.498-1.422,1.203-1.422c0.364,0,0.694,0.179,0.912,0.476v-1.438h0.42v3.733H92.933z M92.933,194.278v-1.22
					c-0.145-0.235-0.476-0.436-0.806-0.436c-0.548,0-0.873,0.448-0.873,1.047c0,0.599,0.325,1.041,0.873,1.041
					C92.457,194.709,92.787,194.513,92.933,194.278z"/>
			</g>
		</g>
	</g>
	<g>
		<g>
			<g>
				<rect x="49.28" y="178.862" fill="#929497" width="6.3" height="0.7"/>
			</g>
			<g>
				<rect x="49.28" y="180.962" fill="#929497" width="6.3" height="0.7"/>
			</g>
			<g>
				<rect x="49.28" y="183.062" fill="#929497" width="6.3" height="0.7"/>
			</g>
			<g>
				<path fill="#929497" d="M55.016,172.562h-0.395H46.48v14.7h11.9v-11.593v-0.137L55.016,172.562z M55.151,173.468l2.214,1.928
					l-2.349,0.352L55.151,173.468z M57.68,186.562h-10.5v-13.3h7.59l-0.29,3.085l3.199-0.617V186.562z"/>
			</g>
		</g>
		<g>
			<g>
				<path fill="#929497" d="M42.941,195.185v-3.733h1.276c1.164,0,1.914,0.811,1.914,1.869c0,1.064-0.75,1.864-1.914,1.864H42.941z
					 M45.65,193.321c0-0.806-0.509-1.455-1.433-1.455h-0.812v2.905h0.812C45.124,194.771,45.65,194.122,45.65,193.321z"/>
			</g>
			<g>
				<path fill="#929497" d="M48.535,195.185v-0.308c-0.218,0.247-0.531,0.375-0.896,0.375c-0.453,0-0.94-0.308-0.94-0.896
					c0-0.61,0.482-0.89,0.94-0.89c0.369,0,0.677,0.118,0.896,0.364v-0.487c0-0.358-0.291-0.565-0.683-0.565
					c-0.325,0-0.588,0.112-0.829,0.375l-0.196-0.291c0.291-0.302,0.638-0.448,1.08-0.448c0.577,0,1.047,0.258,1.047,0.913v1.858
					H48.535z M48.535,194.615v-0.515c-0.162-0.218-0.448-0.33-0.739-0.33c-0.398,0-0.672,0.246-0.672,0.588
					c0,0.347,0.274,0.593,0.672,0.593C48.087,194.95,48.373,194.838,48.535,194.615z"/>
			</g>
			<g>
				<path fill="#929497" d="M49.886,194.62v-1.769h-0.448v-0.369h0.448v-0.739h0.425v0.739h0.549v0.369h-0.549v1.679
					c0,0.202,0.09,0.347,0.269,0.347c0.123,0,0.23-0.055,0.285-0.117l0.123,0.319c-0.106,0.101-0.258,0.174-0.498,0.174
					C50.087,195.252,49.886,195.023,49.886,194.62z"/>
			</g>
			<g>
				<path fill="#929497" d="M53.138,195.185v-0.308c-0.218,0.247-0.531,0.375-0.896,0.375c-0.453,0-0.94-0.308-0.94-0.896
					c0-0.61,0.482-0.89,0.94-0.89c0.369,0,0.677,0.118,0.896,0.364v-0.487c0-0.358-0.291-0.565-0.683-0.565
					c-0.325,0-0.588,0.112-0.829,0.375l-0.196-0.291c0.291-0.302,0.638-0.448,1.08-0.448c0.577,0,1.047,0.258,1.047,0.913v1.858
					H53.138z M53.138,194.615v-0.515c-0.162-0.218-0.448-0.33-0.739-0.33c-0.398,0-0.672,0.246-0.672,0.588
					c0,0.347,0.274,0.593,0.672,0.593C52.69,194.95,52.976,194.838,53.138,194.615z"/>
			</g>
			<g>
				<path fill="#929497" d="M54.176,194.827l0.213-0.302c0.179,0.207,0.521,0.386,0.89,0.386c0.414,0,0.644-0.196,0.644-0.465
					c0-0.655-1.673-0.252-1.673-1.254c0-0.425,0.358-0.778,1.002-0.778c0.465,0,0.789,0.174,1.002,0.392l-0.196,0.291
					c-0.162-0.196-0.454-0.341-0.806-0.341c-0.369,0-0.599,0.185-0.599,0.426c0,0.588,1.673,0.201,1.673,1.254
					c0,0.453-0.364,0.817-1.058,0.817C54.819,195.252,54.45,195.112,54.176,194.827z"/>
			</g>
			<g>
				<path fill="#929497" d="M56.853,193.83c0-0.783,0.56-1.416,1.332-1.416c0.817,0,1.298,0.638,1.298,1.45v0.106H57.3
					c0.033,0.509,0.386,0.934,0.968,0.934c0.314,0,0.621-0.123,0.84-0.347l0.201,0.274c-0.274,0.269-0.638,0.42-1.075,0.42
					C57.429,195.252,56.853,194.676,56.853,193.83z M58.179,192.762c-0.576,0-0.862,0.487-0.884,0.896h1.774
					C59.063,193.26,58.795,192.762,58.179,192.762z"/>
			</g>
			<g>
				<path fill="#929497" d="M60.246,194.62v-1.769h-0.448v-0.369h0.448v-0.739h0.425v0.739h0.549v0.369h-0.549v1.679
					c0,0.202,0.09,0.347,0.269,0.347c0.123,0,0.23-0.055,0.285-0.117l0.123,0.319c-0.107,0.101-0.258,0.174-0.498,0.174
					C60.447,195.252,60.246,195.023,60.246,194.62z"/>
			</g>
		</g>
	</g>
	<g>
		<g>
			<g>
				<g>
					<path fill="#929497" d="M29.21,188h-8.649l-4.331-7.5l4.331-7.5h8.649l4.331,7.5L29.21,188z M20.961,187h7.849l3.918-6.5
						L28.81,174h-7.849l-3.918,6.5L20.961,187z"/>
				</g>
			</g>
			<g>
				<g>
					<path fill="#929497" d="M27.698,185h-5.626l-2.837-4.5l2.837-4.5h5.626l2.837,4.5L27.698,185z M22.46,184h4.849l2.4-3.5
						l-2.4-3.5H22.46l-2.4,3.5L22.46,184z"/>
				</g>
			</g>
		</g>
		<g>
			<g>
				<path fill="#929497" d="M20.072,194.956v-3.319h-1.181v-0.414h2.832v0.414h-1.187v3.319H20.072z"/>
			</g>
			<g>
				<path fill="#929497" d="M21.524,193.601c0-0.783,0.515-1.416,1.337-1.416s1.338,0.633,1.338,1.416
					c0,0.784-0.515,1.422-1.338,1.422S21.524,194.385,21.524,193.601z M23.757,193.601c0-0.549-0.319-1.041-0.896-1.041
					c-0.576,0-0.896,0.492-0.896,1.041c0,0.554,0.319,1.047,0.896,1.047C23.438,194.647,23.757,194.155,23.757,193.601z"/>
			</g>
			<g>
				<path fill="#929497" d="M24.727,193.601c0-0.783,0.515-1.416,1.337-1.416c0.823,0,1.338,0.633,1.338,1.416
					c0,0.784-0.515,1.422-1.338,1.422C25.242,195.023,24.727,194.385,24.727,193.601z M26.96,193.601
					c0-0.549-0.319-1.041-0.896-1.041c-0.576,0-0.896,0.492-0.896,1.041c0,0.554,0.319,1.047,0.896,1.047
					C26.641,194.647,26.96,194.155,26.96,193.601z"/>
			</g>
			<g>
				<path fill="#929497" d="M28.087,194.956v-3.733h0.42v3.733H28.087z"/>
			</g>
		</g>
	</g>
	<g>
		<rect x="15.5" y="161.5" fill="#F2F2F2" stroke="#929497" stroke-miterlimit="10" width="194" height="1"/>
	</g>
</g>
<g id="guide" display="none">
</g>
</svg>
