<?xml version="1.0" encoding="utf-8"?>
<!-- Generator: Adobe Illustrator 17.0.0, SVG Export Plug-In . SVG Version: 6.00 Build 0)  -->
<!DOCTYPE svg PUBLIC "-//W3C//DTD SVG 1.1//EN" "http://www.w3.org/Graphics/SVG/1.1/DTD/svg11.dtd">
<svg version="1.1" xmlns="http://www.w3.org/2000/svg" xmlns:xlink="http://www.w3.org/1999/xlink" x="0px" y="0px" width="850px"
	 height="217px" viewBox="0 0 850 217" enable-background="new 0 0 850 217" xml:space="preserve">
<g id="sfondo">
	<rect x="-1" fill="#2D2D2D" width="851" height="217"/>
</g>
<g id="Livello_1">
	<g>
		<rect x="70.329" y="72.208" fill="none" width="57.671" height="19.042"/>
		<text transform="matrix(1 0 0 1 70.3291 78.8777)"><tspan x="0" y="0" fill="#F2F2F2" font-family="'ProximaNova-Regular'" font-size="10">Uber + name </tspan><tspan x="0" y="11" fill="#F2F2F2" font-family="'ProximaNova-Regular'" font-size="10">of country </tspan></text>
	</g>
	<rect x="26.344" y="78.75" fill="none" width="36.156" height="10"/>
	<text transform="matrix(1 0 0 1 26.344 85.4197)" fill="#F2F2F2" font-family="'ProximaNova-Regular'" font-size="10">QUERY</text>
	<line fill="none" stroke="#F2F2F2" stroke-miterlimit="10" x1="62.5" y1="68" x2="62.5" y2="93"/>
	<line fill="none" stroke="#F2F2F2" stroke-miterlimit="10" x1="22.5" y1="36" x2="22.5" y2="87"/>
	<rect x="27.5" y="23.411" fill="none" width="39.829" height="8.5"/>
	<text transform="matrix(1 0 0 1 27.5002 30.0803)" fill="#F2F2F2" font-family="'ProximaNova-Regular'" font-size="10">SOURCE</text>
	<rect x="78.086" y="21.494" fill="none" width="254.081" height="10.333"/>
	<text transform="matrix(1 0 0 1 78.0857 29.4978)"><tspan x="0" y="0" fill="#F2F2F2" font-family="'ProximaNova-Regular'" font-size="12">Google image.</tspan><tspan x="76.906" y="0" fill="#F2F2F2" font-family="'ProximaNova-RegularIt'" font-size="12">domain of the country</tspan></text>
	<rect x="22.5" y="16.5" fill="none" stroke="#F2F2F2" stroke-miterlimit="10" width="49" height="19"/>
	<line fill="#F2F2F2" x1="142" y1="124" x2="142" y2="129"/>
	<rect x="184.002" y="76.747" fill="none" width="97.331" height="32.253"/>
	<text transform="matrix(1 0 0 1 193.8084 83.417)"><tspan x="0" y="0" fill="#F2F2F2" font-family="'ProximaNova-Regular'" font-size="10">X 26 COUNTRIES</tspan><tspan x="7.815" y="12" fill="#F2F2F2" font-family="'ProximaNova-RegularIt'" font-size="10">20 first results</tspan></text>
	<polyline fill="none" stroke="#F2F2F2" stroke-miterlimit="10" points="135,68.5 145.5,68.5 145.5,93.5 134,93.5 	"/>
	<g>
		<g>
			<line fill="none" stroke="#F2F2F2" stroke-miterlimit="10" x1="281" y1="80.5" x2="320" y2="80.5"/>
			<g>
				<polygon fill="#F2F2F2" points="316.602,84.837 315.92,84.104 319.532,80.748 315.92,77.39 316.602,76.658 321,80.748 				"/>
			</g>
		</g>
	</g>
	<g>
		<g>
			<line fill="none" stroke="#F2F2F2" stroke-miterlimit="10" x1="371" y1="79.5" x2="410" y2="79.5"/>
			<g>
				<polygon fill="#F2F2F2" points="406.602,83.837 405.92,83.104 409.532,79.748 405.92,76.39 406.602,75.658 411,79.748 				"/>
			</g>
		</g>
	</g>
	<g>
		<g>
			<line fill="none" stroke="#F2F2F2" stroke-miterlimit="10" x1="144" y1="81.5" x2="183" y2="81.5"/>
			<g>
				<polygon fill="#F2F2F2" points="179.602,85.837 178.92,85.104 182.532,81.748 178.92,78.39 179.602,77.658 184,81.748 				"/>
			</g>
		</g>
	</g>
	<rect x="298.167" y="98.414" fill="none" width="94.407" height="8.586"/>
	<text transform="matrix(1 0 0 1 308.5704 105.084)" fill="#F2F2F2" font-family="'ProximaNova-Regular'" font-size="10">DOWNTHEMALL</text>
	<g>
		<polygon fill="none" stroke="#F2F2F2" stroke-miterlimit="10" points="340.272,89.5 334.38,79.5 340.272,69.5 352.057,69.5 
			357.949,79.5 352.057,89.5 		"/>
		<polygon fill="none" stroke="#F2F2F2" stroke-miterlimit="10" points="342.424,85.5 338.683,79.5 342.424,73.5 349.905,73.5 
			353.646,79.5 349.905,85.5 		"/>
	</g>
	<rect x="411" y="98.471" fill="none" width="56.25" height="11.529"/>
	<text transform="matrix(1 0 0 1 413.0601 105.1406)" fill="#F2F2F2" font-family="'ProximaNova-Regular'" font-size="10">520 images</text>
	<g>
		<rect x="432.151" y="75.334" fill="#2D2D2D" stroke="#F2F2F2" stroke-miterlimit="10" width="21" height="17"/>
		<rect x="427.349" y="71.667" fill="#2D2D2D" stroke="#F2F2F2" stroke-miterlimit="10" width="23" height="18"/>
		<rect x="424.349" y="68.667" fill="#2D2D2D" stroke="#F2F2F2" stroke-miterlimit="10" width="23" height="18"/>
	</g>
	<g>
		<g>
			<line fill="none" stroke="#F2F2F2" stroke-miterlimit="10" x1="467" y1="80.5" x2="506" y2="80.5"/>
			<g>
				<polygon fill="#F2F2F2" points="502.602,84.25 501.92,83.518 505.532,80.161 501.92,76.804 502.602,76.072 507,80.161 				"/>
			</g>
		</g>
	</g>
	<g>
		<g>
			<line fill="none" stroke="#F2F2F2" stroke-miterlimit="10" x1="547" y1="80.5" x2="586" y2="80.5"/>
			<g>
				<polygon fill="#F2F2F2" points="582.602,84.25 581.92,83.518 585.532,80.161 581.92,76.804 582.602,76.072 587,80.161 				"/>
			</g>
		</g>
	</g>
	<g>
		<g>
			<line fill="none" stroke="#F2F2F2" stroke-miterlimit="10" x1="627" y1="80.5" x2="666" y2="80.5"/>
			<g>
				<polygon fill="#F2F2F2" points="662.602,84.25 661.92,83.518 665.532,80.161 661.92,76.804 662.602,76.072 667,80.161 				"/>
			</g>
		</g>
	</g>
	<rect x="490.833" y="97.414" fill="none" width="71.333" height="52.92"/>
	<text transform="matrix(1 0 0 1 492.4954 104.084)" fill="#F2F2F2" font-family="'ProximaNova-Regular'" font-size="10">Tag description</text>
	<g>
		<g>
			<polygon fill="#F2F2F2" points="534,92 519,92 519,71 520,71 520,91 533,91 533,71 534,71 			"/>
		</g>
		<g>
			<path fill="#F2F2F2" d="M526.5,76.487c-1.746,0-3.167-1.421-3.167-3.167s1.421-3.167,3.167-3.167s3.167,1.421,3.167,3.167
				S528.246,76.487,526.5,76.487z M526.5,71.153c-1.195,0-2.167,0.972-2.167,2.167s0.972,2.167,2.167,2.167s2.167-0.972,2.167-2.167
				S527.695,71.153,526.5,71.153z"/>
		</g>
		<g>
			<polygon fill="#F2F2F2" points="519.64,71.77 519.026,70.98 526.496,65.178 533.888,70.981 533.271,71.769 526.492,66.447 			"/>
		</g>
	</g>
	<rect x="570.833" y="97.414" fill="none" width="71.333" height="52.92"/>
	<text transform="matrix(1 0 0 1 579.2552 104.084)"><tspan x="0" y="0" fill="#F2F2F2" font-family="'ProximaNova-Regular'" font-size="10">Tag index of </tspan><tspan x="1.475" y="12" fill="#F2F2F2" font-family="'ProximaNova-Regular'" font-size="10">controversy</tspan></text>
	<g>
		<g>
			<polygon fill="#F2F2F2" points="614,92 599,92 599,71 600,71 600,91 613,91 613,71 614,71 			"/>
		</g>
		<g>
			<path fill="#F2F2F2" d="M606.5,76.487c-1.746,0-3.167-1.421-3.167-3.167s1.421-3.167,3.167-3.167s3.167,1.421,3.167,3.167
				S608.246,76.487,606.5,76.487z M606.5,71.153c-1.195,0-2.167,0.972-2.167,2.167s0.972,2.167,2.167,2.167s2.167-0.972,2.167-2.167
				S607.695,71.153,606.5,71.153z"/>
		</g>
		<g>
			<polygon fill="#F2F2F2" points="599.64,71.77 599.026,70.98 606.496,65.178 613.888,70.981 613.271,71.769 606.492,66.447 			"/>
		</g>
	</g>
	<polyline fill="none" stroke="#F2F2F2" stroke-miterlimit="10" points="685.05,64.766 706.023,75.57 683.804,82.441 
		698.482,63.824 702.252,90.453 692.786,88.332 	"/>
	<circle fill="#2D2D2D" stroke="#F2F2F2" stroke-miterlimit="10" cx="699.562" cy="62.534" r="2.059"/>
	<circle fill="#2D2D2D" stroke="#F2F2F2" stroke-miterlimit="10" cx="706.26" cy="75.371" r="2.059"/>
	<polyline fill="none" stroke="#F2F2F2" stroke-miterlimit="10" points="682.818,82.069 685.05,64.766 692.865,88.208 	"/>
	<circle fill="#2D2D2D" stroke="#F2F2F2" stroke-miterlimit="10" cx="685.05" cy="64.766" r="2.059"/>
	<circle fill="#2D2D2D" stroke="#F2F2F2" stroke-miterlimit="10" cx="682.818" cy="82.069" r="2.059"/>
	<circle fill="#2D2D2D" stroke="#F2F2F2" stroke-miterlimit="10" cx="692.865" cy="88.208" r="2.059"/>
	<circle fill="#2D2D2D" stroke="#F2F2F2" stroke-miterlimit="10" cx="702.911" cy="90.441" r="2.059"/>
	<rect x="660.885" y="98.969" fill="none" width="63.703" height="40.365"/>
	<text transform="matrix(1 0 0 1 661.2715 105.6387)"><tspan x="0" y="0" fill="#F2F2F2" font-family="'ProximaNova-Regular'" font-size="10">ILLUSTRATOR</tspan><tspan x="28.97" y="9" fill="#F2F2F2" font-family="'ProximaNova-Regular'" font-size="10">+ </tspan><tspan x="20.715" y="18" fill="#F2F2F2" font-family="'ProximaNova-Regular'" font-size="10">RAW</tspan></text>
	<g>
		<g>
			<g>
				<path fill="#929497" d="M137.228,180.656v-0.441l2.642-1.269l-2.642-1.283v-0.441l3.091,1.535v0.372L137.228,180.656z"/>
			</g>
			<g>
				<path fill="#929497" d="M140.503,181.953v-0.386h3.995v0.386H140.503z"/>
			</g>
			<g>
				<g>
					<path fill="#929497" d="M151.428,191.495h-16.939v-16.939h16.939V191.495z M135.189,190.795h15.539v-15.539h-15.539V190.795z"
						/>
				</g>
			</g>
		</g>
		<g>
			<g>
				<path fill="#929497" d="M136.077,198.953l0.28-0.358c0.241,0.28,0.644,0.537,1.17,0.537c0.666,0,0.879-0.358,0.879-0.649
					c0-0.963-2.211-0.425-2.211-1.757c0-0.616,0.549-1.041,1.287-1.041c0.565,0,1.008,0.196,1.321,0.526l-0.28,0.341
					c-0.28-0.313-0.672-0.448-1.08-0.448c-0.442,0-0.767,0.241-0.767,0.593c0,0.839,2.211,0.358,2.211,1.752
					c0,0.537-0.369,1.097-1.377,1.097C136.866,199.546,136.385,199.3,136.077,198.953z"/>
			</g>
			<g>
				<path fill="#929497" d="M139.409,198.125c0-0.8,0.543-1.416,1.349-1.416c0.493,0,0.783,0.202,0.991,0.47l-0.28,0.252
					c-0.179-0.246-0.409-0.347-0.688-0.347c-0.571,0-0.935,0.442-0.935,1.041c0,0.599,0.364,1.047,0.935,1.047
					c0.28,0,0.509-0.111,0.688-0.352l0.28,0.257c-0.207,0.269-0.498,0.47-0.991,0.47
					C139.952,199.546,139.409,198.925,139.409,198.125z"/>
			</g>
			<g>
				<path fill="#929497" d="M142.343,199.479v-2.704h0.42v0.431c0.218-0.28,0.532-0.493,0.901-0.493v0.431
					c-0.051-0.006-0.101-0.011-0.162-0.011c-0.263,0-0.616,0.213-0.739,0.431v1.914H142.343z"/>
			</g>
			<g>
				<path fill="#929497" d="M144.118,196.11c0-0.157,0.129-0.285,0.285-0.285c0.157,0,0.28,0.129,0.28,0.285
					c0,0.157-0.123,0.28-0.28,0.28C144.247,196.39,144.118,196.267,144.118,196.11z M144.191,199.479v-2.704h0.42v2.704H144.191z"/>
			</g>
			<g>
				<path fill="#929497" d="M145.87,199.071v1.438h-0.42v-3.733h0.42v0.403c0.196-0.274,0.532-0.47,0.912-0.47
					c0.711,0,1.203,0.537,1.203,1.416c0,0.874-0.493,1.422-1.203,1.422C146.413,199.546,146.094,199.367,145.87,199.071z
					 M147.544,198.125c0-0.599-0.324-1.041-0.867-1.041c-0.33,0-0.66,0.196-0.806,0.431v1.221c0.146,0.235,0.476,0.436,0.806,0.436
					C147.219,199.171,147.544,198.723,147.544,198.125z"/>
			</g>
			<g>
				<path fill="#929497" d="M148.738,198.914v-1.769h-0.448v-0.369h0.448v-0.739h0.425v0.739h0.549v0.369h-0.549v1.679
					c0,0.202,0.09,0.347,0.269,0.347c0.123,0,0.23-0.055,0.285-0.117l0.123,0.319c-0.107,0.101-0.258,0.174-0.498,0.174
					C148.939,199.546,148.738,199.317,148.738,198.914z"/>
			</g>
		</g>
	</g>
	<g>
		<g>
			<polygon fill="#929497" points="175,190 164,190 164,175 165,175 165,189 174,189 174,175 175,175 			"/>
		</g>
	</g>
	<g>
		<g>
			<path fill="#929497" d="M169.341,179.595c-1.222,0-2.217-0.995-2.217-2.217c0-1.222,0.995-2.217,2.217-2.217
				c1.222,0,2.217,0.995,2.217,2.217C171.558,178.6,170.563,179.595,169.341,179.595z M169.341,175.861
				c-0.837,0-1.517,0.68-1.517,1.517s0.68,1.517,1.517,1.517s1.517-0.68,1.517-1.517S170.178,175.861,169.341,175.861z"/>
		</g>
	</g>
	<g>
		<g>
			<polygon fill="#929497" points="164.52,176.292 164.091,175.74 169.32,171.678 174.494,175.741 174.062,176.292 169.317,172.567 
							"/>
		</g>
	</g>
	<g>
		<g>
			<path fill="#929497" d="M166.462,198.256v-3.319h-1.181v-0.414h2.832v0.414h-1.187v3.319H166.462z"/>
		</g>
		<g>
			<path fill="#929497" d="M169.872,198.256v-0.308c-0.218,0.247-0.531,0.375-0.896,0.375c-0.453,0-0.94-0.308-0.94-0.896
				c0-0.61,0.482-0.89,0.94-0.89c0.369,0,0.677,0.118,0.896,0.364v-0.487c0-0.358-0.291-0.565-0.683-0.565
				c-0.325,0-0.588,0.112-0.829,0.375l-0.196-0.291c0.291-0.302,0.638-0.448,1.08-0.448c0.577,0,1.047,0.258,1.047,0.913v1.858
				H169.872z M169.872,197.685v-0.515c-0.162-0.218-0.448-0.33-0.739-0.33c-0.398,0-0.672,0.246-0.672,0.588
				c0,0.347,0.274,0.593,0.672,0.593C169.424,198.02,169.709,197.908,169.872,197.685z"/>
		</g>
		<g>
			<path fill="#929497" d="M171.133,198.944l0.213-0.302c0.224,0.263,0.493,0.364,0.879,0.364c0.448,0,0.873-0.218,0.873-0.79
				v-0.408c-0.201,0.274-0.531,0.481-0.912,0.481c-0.705,0-1.203-0.526-1.203-1.4c0-0.867,0.493-1.405,1.203-1.405
				c0.364,0,0.694,0.179,0.912,0.476v-0.408h0.42v2.664c0,0.857-0.632,1.137-1.293,1.137
				C171.771,199.353,171.457,199.263,171.133,198.944z M173.097,197.478v-1.187c-0.151-0.229-0.476-0.431-0.806-0.431
				c-0.548,0-0.873,0.431-0.873,1.029c0,0.594,0.325,1.024,0.873,1.024C172.622,197.914,172.946,197.713,173.097,197.478z"/>
		</g>
	</g>
	<g>
		<g>
			<g>
				<g>
					<path fill="#929497" d="M203.646,190.987h-16.8v-16.8h16.8V190.987z M187.546,190.287h15.4v-15.4h-15.4V190.287z"/>
				</g>
			</g>
			<g>
				<g>
					<polygon fill="#929497" points="197.559,182.723 193.297,178.017 193.815,177.547 197.383,181.485 202.175,171.615 
						202.805,171.921 					"/>
				</g>
			</g>
		</g>
		<g>
			<g>
				<path fill="#929497" d="M183.117,197.108c0-1.147,0.845-1.931,1.92-1.931c0.66,0,1.119,0.313,1.416,0.739l-0.386,0.218
					c-0.213-0.319-0.605-0.543-1.03-0.543c-0.817,0-1.439,0.621-1.439,1.517c0,0.885,0.621,1.517,1.439,1.517
					c0.425,0,0.817-0.23,1.03-0.543l0.392,0.213c-0.313,0.431-0.761,0.744-1.422,0.744
					C183.963,199.039,183.117,198.256,183.117,197.108z"/>
			</g>
			<g>
				<path fill="#929497" d="M187.037,198.972v-3.733h0.42v3.733H187.037z"/>
			</g>
			<g>
				<path fill="#929497" d="M188.14,197.617c0-0.783,0.56-1.416,1.332-1.416c0.817,0,1.298,0.638,1.298,1.45v0.106h-2.183
					c0.033,0.509,0.386,0.934,0.968,0.934c0.314,0,0.621-0.123,0.84-0.347l0.201,0.274c-0.274,0.269-0.638,0.42-1.075,0.42
					C188.717,199.039,188.14,198.463,188.14,197.617z M189.467,196.548c-0.576,0-0.862,0.487-0.884,0.896h1.774
					C190.351,197.046,190.083,196.548,189.467,196.548z"/>
			</g>
			<g>
				<path fill="#929497" d="M193.14,198.972v-0.308c-0.218,0.247-0.531,0.375-0.896,0.375c-0.453,0-0.94-0.308-0.94-0.896
					c0-0.61,0.482-0.89,0.94-0.89c0.369,0,0.677,0.118,0.896,0.364v-0.487c0-0.358-0.291-0.565-0.683-0.565
					c-0.325,0-0.588,0.112-0.829,0.375l-0.196-0.291c0.291-0.302,0.638-0.448,1.08-0.448c0.577,0,1.047,0.258,1.047,0.913v1.858
					H193.14z M193.14,198.401v-0.515c-0.162-0.218-0.448-0.33-0.739-0.33c-0.398,0-0.672,0.246-0.672,0.588
					c0,0.347,0.274,0.593,0.672,0.593C192.692,198.737,192.978,198.625,193.14,198.401z"/>
			</g>
			<g>
				<path fill="#929497" d="M196.237,198.972v-1.769c0-0.482-0.246-0.627-0.61-0.627c-0.33,0-0.638,0.201-0.8,0.42v1.976h-0.42
					v-2.704h0.42v0.392c0.19-0.229,0.56-0.459,0.968-0.459c0.56,0,0.857,0.286,0.857,0.873v1.898H196.237z"/>
			</g>
			<g>
				<path fill="#929497" d="M200.638,198.972v-0.308c-0.218,0.247-0.531,0.375-0.896,0.375c-0.453,0-0.94-0.308-0.94-0.896
					c0-0.61,0.482-0.89,0.94-0.89c0.369,0,0.677,0.118,0.896,0.364v-0.487c0-0.358-0.291-0.565-0.683-0.565
					c-0.325,0-0.588,0.112-0.829,0.375l-0.196-0.291c0.291-0.302,0.638-0.448,1.08-0.448c0.577,0,1.047,0.258,1.047,0.913v1.858
					H200.638z M200.638,198.401v-0.515c-0.162-0.218-0.448-0.33-0.739-0.33c-0.398,0-0.672,0.246-0.672,0.588
					c0,0.347,0.274,0.593,0.672,0.593C200.19,198.737,200.476,198.625,200.638,198.401z"/>
			</g>
			<g>
				<path fill="#929497" d="M203.735,198.972v-1.769c0-0.482-0.246-0.627-0.61-0.627c-0.33,0-0.638,0.201-0.8,0.42v1.976h-0.42
					v-2.704h0.42v0.392c0.19-0.229,0.56-0.459,0.968-0.459c0.56,0,0.857,0.286,0.857,0.873v1.898H203.735z"/>
			</g>
			<g>
				<path fill="#929497" d="M206.955,198.972v-0.403c-0.201,0.274-0.531,0.47-0.912,0.47c-0.705,0-1.203-0.537-1.203-1.416
					c0-0.867,0.498-1.422,1.203-1.422c0.364,0,0.694,0.179,0.912,0.476v-1.438h0.42v3.733H206.955z M206.955,198.233v-1.22
					c-0.145-0.235-0.476-0.436-0.806-0.436c-0.548,0-0.873,0.448-0.873,1.047c0,0.599,0.325,1.041,0.873,1.041
					C206.479,198.664,206.81,198.468,206.955,198.233z"/>
			</g>
			<g>
				<path fill="#929497" d="M184.657,205.692l-1.125-2.703h0.459l0.896,2.216l0.901-2.216h0.454l-1.125,2.703H184.657z"/>
			</g>
			<g>
				<path fill="#929497" d="M188.369,205.692v-0.308c-0.218,0.246-0.531,0.375-0.896,0.375c-0.453,0-0.94-0.308-0.94-0.896
					c0-0.61,0.482-0.89,0.94-0.89c0.369,0,0.677,0.118,0.896,0.364v-0.487c0-0.358-0.291-0.565-0.683-0.565
					c-0.325,0-0.588,0.111-0.829,0.375l-0.196-0.291c0.291-0.302,0.638-0.448,1.08-0.448c0.577,0,1.047,0.258,1.047,0.913v1.858
					H188.369z M188.369,205.121v-0.515c-0.162-0.218-0.448-0.33-0.739-0.33c-0.398,0-0.672,0.246-0.672,0.588
					c0,0.347,0.274,0.593,0.672,0.593C187.921,205.457,188.207,205.345,188.369,205.121z"/>
			</g>
			<g>
				<path fill="#929497" d="M189.636,205.692v-3.733h0.42v3.733H189.636z"/>
			</g>
			<g>
				<path fill="#929497" d="M190.823,202.322c0-0.157,0.129-0.285,0.285-0.285c0.157,0,0.28,0.129,0.28,0.285
					c0,0.157-0.123,0.28-0.28,0.28C190.952,202.603,190.823,202.479,190.823,202.322z M190.896,205.692v-2.703h0.42v2.703H190.896z"
					/>
			</g>
			<g>
				<path fill="#929497" d="M194.114,205.692v-0.403c-0.201,0.274-0.531,0.47-0.912,0.47c-0.705,0-1.203-0.537-1.203-1.416
					c0-0.867,0.498-1.422,1.203-1.422c0.364,0,0.694,0.179,0.912,0.476v-1.438h0.42v3.733H194.114z M194.114,204.953v-1.22
					c-0.145-0.235-0.476-0.437-0.806-0.437c-0.548,0-0.873,0.448-0.873,1.047s0.325,1.041,0.873,1.041
					C193.639,205.384,193.969,205.188,194.114,204.953z"/>
			</g>
			<g>
				<path fill="#929497" d="M197.066,205.692v-0.308c-0.218,0.246-0.531,0.375-0.896,0.375c-0.453,0-0.94-0.308-0.94-0.896
					c0-0.61,0.482-0.89,0.94-0.89c0.369,0,0.677,0.118,0.896,0.364v-0.487c0-0.358-0.291-0.565-0.683-0.565
					c-0.325,0-0.588,0.111-0.829,0.375l-0.196-0.291c0.291-0.302,0.638-0.448,1.08-0.448c0.577,0,1.047,0.258,1.047,0.913v1.858
					H197.066z M197.066,205.121v-0.515c-0.162-0.218-0.448-0.33-0.739-0.33c-0.398,0-0.672,0.246-0.672,0.588
					c0,0.347,0.274,0.593,0.672,0.593C196.618,205.457,196.903,205.345,197.066,205.121z"/>
			</g>
			<g>
				<path fill="#929497" d="M198.417,205.126v-1.768h-0.448v-0.369h0.448v-0.739h0.425v0.739h0.549v0.369h-0.549v1.679
					c0,0.202,0.09,0.347,0.269,0.347c0.123,0,0.23-0.056,0.285-0.118l0.123,0.319c-0.106,0.1-0.258,0.174-0.498,0.174
					C198.618,205.759,198.417,205.53,198.417,205.126z"/>
			</g>
			<g>
				<path fill="#929497" d="M199.906,202.322c0-0.157,0.129-0.285,0.285-0.285c0.157,0,0.28,0.129,0.28,0.285
					c0,0.157-0.123,0.28-0.28,0.28C200.035,202.603,199.906,202.479,199.906,202.322z M199.979,205.692v-2.703h0.42v2.703H199.979z"
					/>
			</g>
			<g>
				<path fill="#929497" d="M201.082,204.337c0-0.783,0.515-1.416,1.337-1.416s1.338,0.633,1.338,1.416
					c0,0.783-0.515,1.422-1.338,1.422S201.082,205.121,201.082,204.337z M203.315,204.337c0-0.548-0.319-1.041-0.896-1.041
					c-0.576,0-0.896,0.493-0.896,1.041c0,0.554,0.319,1.047,0.896,1.047C202.996,205.384,203.315,204.891,203.315,204.337z"/>
			</g>
			<g>
				<path fill="#929497" d="M206.272,205.692v-1.768c0-0.481-0.246-0.627-0.61-0.627c-0.33,0-0.638,0.202-0.8,0.42v1.976h-0.42
					v-2.703h0.42v0.392c0.19-0.23,0.56-0.459,0.968-0.459c0.56,0,0.856,0.286,0.856,0.874v1.897H206.272z"/>
			</g>
		</g>
	</g>
	<rect x="107.353" y="179.054" fill="#2D2D2D" width="14.7" height="11.9"/>
	<path fill="#929497" d="M122.553,191.454h-15.7v-12.9h15.7V191.454z M107.853,190.454h13.7v-10.9h-13.7V190.454z"/>
	<rect x="103.992" y="176.487" fill="#2D2D2D" width="16.1" height="12.6"/>
	<path fill="#929497" d="M120.592,189.587h-17.1v-13.6h17.1V189.587z M104.492,188.587h15.1v-11.6h-15.1V188.587z"/>
	<rect x="101.892" y="174.387" fill="#2D2D2D" width="16.1" height="12.6"/>
	<path fill="#929497" d="M118.492,187.487h-17.1v-13.6h17.1V187.487z M102.392,186.487h15.1v-11.6h-15.1V186.487z"/>
	<g>
		<g>
			<path fill="#929497" d="M103.382,197.074c0-1.147,0.845-1.931,1.92-1.931c0.66,0,1.119,0.313,1.416,0.739l-0.386,0.218
				c-0.213-0.319-0.605-0.543-1.03-0.543c-0.817,0-1.439,0.621-1.439,1.517c0,0.885,0.621,1.517,1.439,1.517
				c0.425,0,0.817-0.23,1.03-0.543l0.392,0.213c-0.313,0.431-0.761,0.744-1.422,0.744
				C104.228,199.006,103.382,198.222,103.382,197.074z"/>
		</g>
		<g>
			<path fill="#929497" d="M107.146,197.584c0-0.783,0.515-1.416,1.337-1.416s1.338,0.633,1.338,1.416
				c0,0.784-0.515,1.422-1.338,1.422S107.146,198.368,107.146,197.584z M109.378,197.584c0-0.549-0.319-1.041-0.896-1.041
				c-0.576,0-0.896,0.492-0.896,1.041c0,0.554,0.319,1.047,0.896,1.047C109.06,198.63,109.378,198.138,109.378,197.584z"/>
		</g>
		<g>
			<path fill="#929497" d="M110.505,198.939v-2.704h0.42v0.431c0.218-0.28,0.532-0.493,0.901-0.493v0.431
				c-0.051-0.006-0.101-0.011-0.162-0.011c-0.263,0-0.616,0.213-0.739,0.431v1.914H110.505z"/>
		</g>
		<g>
			<path fill="#929497" d="M112.773,198.53v1.438h-0.42v-3.733h0.42v0.403c0.196-0.274,0.532-0.47,0.912-0.47
				c0.711,0,1.203,0.537,1.203,1.416c0,0.874-0.493,1.422-1.203,1.422C113.316,199.006,112.997,198.826,112.773,198.53z
				 M114.446,197.584c0-0.599-0.324-1.041-0.867-1.041c-0.33,0-0.66,0.196-0.806,0.431v1.221c0.146,0.235,0.476,0.436,0.806,0.436
				C114.122,198.63,114.446,198.182,114.446,197.584z"/>
		</g>
		<g>
			<path fill="#929497" d="M117.381,198.939v-0.381c-0.207,0.235-0.56,0.448-0.962,0.448c-0.565,0-0.862-0.28-0.862-0.862v-1.909
				h0.42v1.78c0,0.476,0.241,0.615,0.61,0.615c0.325,0,0.638-0.19,0.795-0.408v-1.987h0.42v2.704H117.381z"/>
		</g>
		<g>
			<path fill="#929497" d="M118.413,198.58l0.213-0.302c0.179,0.207,0.521,0.386,0.89,0.386c0.414,0,0.644-0.196,0.644-0.465
				c0-0.655-1.673-0.252-1.673-1.254c0-0.425,0.358-0.778,1.002-0.778c0.465,0,0.789,0.174,1.002,0.392l-0.196,0.291
				c-0.162-0.196-0.454-0.341-0.806-0.341c-0.369,0-0.599,0.185-0.599,0.426c0,0.588,1.673,0.201,1.673,1.254
				c0,0.453-0.364,0.817-1.058,0.817C119.056,199.006,118.687,198.865,118.413,198.58z"/>
		</g>
	</g>
	<g>
		<g>
			<g>
				<g>
					<g>
						<line fill="#929497" x1="79.299" y1="169.656" x2="79.299" y2="185.002"/>
					</g>
				</g>
				<g>
					<g>
						<g>
							<rect x="78.949" y="169.656" fill="#929497" width="0.7" height="14.587"/>
						</g>
					</g>
					<g>
						<g>
							<g>
								<polygon fill="#929497" points="76.436,181.924 76.949,181.446 79.298,183.974 81.648,181.446 82.161,181.924 
									79.298,185.002 								"/>
							</g>
						</g>
					</g>
				</g>
			</g>
			<g>
				<g>
					<path fill="#929497" d="M89.449,191.094h-20.3v-14h20.3V191.094z M69.849,190.394h18.9v-12.6h-18.9V190.394z"/>
				</g>
			</g>
		</g>
		<g>
			<g>
				<path fill="#929497" d="M67.245,199.017v-3.733h1.276c1.164,0,1.914,0.811,1.914,1.869c0,1.064-0.75,1.864-1.914,1.864H67.245z
					 M69.954,197.153c0-0.806-0.509-1.455-1.433-1.455H67.71v2.905h0.812C69.428,198.603,69.954,197.953,69.954,197.153z"/>
			</g>
			<g>
				<path fill="#929497" d="M70.992,197.662c0-0.783,0.515-1.416,1.337-1.416c0.823,0,1.338,0.633,1.338,1.416
					c0,0.784-0.515,1.422-1.338,1.422C71.507,199.084,70.992,198.446,70.992,197.662z M73.225,197.662
					c0-0.549-0.319-1.041-0.896-1.041c-0.576,0-0.896,0.492-0.896,1.041c0,0.554,0.319,1.047,0.896,1.047
					C72.906,198.709,73.225,198.217,73.225,197.662z"/>
			</g>
			<g>
				<path fill="#929497" d="M76.692,199.017l-0.705-2.172l-0.705,2.172h-0.42l-0.862-2.704h0.437l0.66,2.155l0.711-2.155h0.364
					l0.705,2.155l0.661-2.155h0.442l-0.862,2.704H76.692z"/>
			</g>
			<g>
				<path fill="#929497" d="M80.293,199.017v-1.769c0-0.482-0.246-0.627-0.61-0.627c-0.33,0-0.638,0.201-0.8,0.42v1.976h-0.42
					v-2.704h0.42v0.392c0.19-0.229,0.56-0.459,0.968-0.459c0.56,0,0.856,0.286,0.856,0.873v1.898H80.293z"/>
			</g>
			<g>
				<path fill="#929497" d="M81.554,199.017v-3.733h0.42v3.733H81.554z"/>
			</g>
			<g>
				<path fill="#929497" d="M82.657,197.662c0-0.783,0.515-1.416,1.337-1.416s1.338,0.633,1.338,1.416
					c0,0.784-0.515,1.422-1.338,1.422S82.657,198.446,82.657,197.662z M84.89,197.662c0-0.549-0.319-1.041-0.896-1.041
					c-0.576,0-0.896,0.492-0.896,1.041c0,0.554,0.319,1.047,0.896,1.047C84.571,198.709,84.89,198.217,84.89,197.662z"/>
			</g>
			<g>
				<path fill="#929497" d="M87.707,199.017v-0.308c-0.218,0.247-0.531,0.375-0.896,0.375c-0.453,0-0.94-0.308-0.94-0.896
					c0-0.61,0.482-0.89,0.94-0.89c0.369,0,0.677,0.118,0.896,0.364v-0.487c0-0.358-0.291-0.565-0.683-0.565
					c-0.325,0-0.588,0.112-0.829,0.375L86,196.694c0.291-0.302,0.638-0.448,1.08-0.448c0.577,0,1.047,0.258,1.047,0.913v1.858
					H87.707z M87.707,198.446v-0.515c-0.162-0.218-0.448-0.33-0.739-0.33c-0.398,0-0.672,0.246-0.672,0.588
					c0,0.347,0.274,0.593,0.672,0.593C87.259,198.782,87.545,198.67,87.707,198.446z"/>
			</g>
			<g>
				<path fill="#929497" d="M90.933,199.017v-0.403c-0.201,0.274-0.531,0.47-0.912,0.47c-0.705,0-1.203-0.537-1.203-1.416
					c0-0.867,0.498-1.422,1.203-1.422c0.364,0,0.694,0.179,0.912,0.476v-1.438h0.42v3.733H90.933z M90.933,198.278v-1.22
					c-0.145-0.235-0.476-0.436-0.806-0.436c-0.548,0-0.873,0.448-0.873,1.047c0,0.599,0.325,1.041,0.873,1.041
					C90.457,198.709,90.787,198.513,90.933,198.278z"/>
			</g>
		</g>
	</g>
	<g>
		<g>
			<g>
				<rect x="47.28" y="182.862" fill="#929497" width="6.3" height="0.7"/>
			</g>
			<g>
				<rect x="47.28" y="184.962" fill="#929497" width="6.3" height="0.7"/>
			</g>
			<g>
				<rect x="47.28" y="187.062" fill="#929497" width="6.3" height="0.7"/>
			</g>
			<g>
				<path fill="#929497" d="M53.016,176.562h-0.395H44.48v14.7h11.9v-11.593v-0.137L53.016,176.562z M53.151,177.468l2.214,1.928
					l-2.349,0.352L53.151,177.468z M55.68,190.562h-10.5v-13.3h7.59l-0.29,3.085l3.199-0.617V190.562z"/>
			</g>
		</g>
		<g>
			<g>
				<path fill="#929497" d="M40.941,199.185v-3.733h1.276c1.164,0,1.914,0.811,1.914,1.869c0,1.064-0.75,1.864-1.914,1.864H40.941z
					 M43.65,197.321c0-0.806-0.509-1.455-1.433-1.455h-0.812v2.905h0.812C43.124,198.771,43.65,198.122,43.65,197.321z"/>
			</g>
			<g>
				<path fill="#929497" d="M46.535,199.185v-0.308c-0.218,0.247-0.531,0.375-0.896,0.375c-0.453,0-0.94-0.308-0.94-0.896
					c0-0.61,0.482-0.89,0.94-0.89c0.369,0,0.677,0.118,0.896,0.364v-0.487c0-0.358-0.291-0.565-0.683-0.565
					c-0.325,0-0.588,0.112-0.829,0.375l-0.196-0.291c0.291-0.302,0.638-0.448,1.08-0.448c0.577,0,1.047,0.258,1.047,0.913v1.858
					H46.535z M46.535,198.615v-0.515c-0.162-0.218-0.448-0.33-0.739-0.33c-0.398,0-0.672,0.246-0.672,0.588
					c0,0.347,0.274,0.593,0.672,0.593C46.087,198.95,46.373,198.838,46.535,198.615z"/>
			</g>
			<g>
				<path fill="#929497" d="M47.886,198.62v-1.769h-0.448v-0.369h0.448v-0.739h0.425v0.739h0.549v0.369h-0.549v1.679
					c0,0.202,0.09,0.347,0.269,0.347c0.123,0,0.23-0.055,0.285-0.117l0.123,0.319c-0.106,0.101-0.258,0.174-0.498,0.174
					C48.087,199.252,47.886,199.023,47.886,198.62z"/>
			</g>
			<g>
				<path fill="#929497" d="M51.138,199.185v-0.308c-0.218,0.247-0.531,0.375-0.896,0.375c-0.453,0-0.94-0.308-0.94-0.896
					c0-0.61,0.482-0.89,0.94-0.89c0.369,0,0.677,0.118,0.896,0.364v-0.487c0-0.358-0.291-0.565-0.683-0.565
					c-0.325,0-0.588,0.112-0.829,0.375l-0.196-0.291c0.291-0.302,0.638-0.448,1.08-0.448c0.577,0,1.047,0.258,1.047,0.913v1.858
					H51.138z M51.138,198.615v-0.515c-0.162-0.218-0.448-0.33-0.739-0.33c-0.398,0-0.672,0.246-0.672,0.588
					c0,0.347,0.274,0.593,0.672,0.593C50.69,198.95,50.976,198.838,51.138,198.615z"/>
			</g>
			<g>
				<path fill="#929497" d="M52.176,198.827l0.213-0.302c0.179,0.207,0.521,0.386,0.89,0.386c0.414,0,0.644-0.196,0.644-0.465
					c0-0.655-1.673-0.252-1.673-1.254c0-0.425,0.358-0.778,1.002-0.778c0.465,0,0.789,0.174,1.002,0.392l-0.196,0.291
					c-0.162-0.196-0.454-0.341-0.806-0.341c-0.369,0-0.599,0.185-0.599,0.426c0,0.588,1.673,0.201,1.673,1.254
					c0,0.453-0.364,0.817-1.058,0.817C52.819,199.252,52.45,199.112,52.176,198.827z"/>
			</g>
			<g>
				<path fill="#929497" d="M54.853,197.83c0-0.783,0.56-1.416,1.332-1.416c0.817,0,1.298,0.638,1.298,1.45v0.106H55.3
					c0.033,0.509,0.386,0.934,0.968,0.934c0.314,0,0.621-0.123,0.84-0.347l0.201,0.274c-0.274,0.269-0.638,0.42-1.075,0.42
					C55.429,199.252,54.853,198.676,54.853,197.83z M56.179,196.762c-0.576,0-0.862,0.487-0.884,0.896h1.774
					C57.063,197.26,56.795,196.762,56.179,196.762z"/>
			</g>
			<g>
				<path fill="#929497" d="M58.246,198.62v-1.769h-0.448v-0.369h0.448v-0.739h0.425v0.739h0.549v0.369h-0.549v1.679
					c0,0.202,0.09,0.347,0.269,0.347c0.123,0,0.23-0.055,0.285-0.117l0.123,0.319c-0.107,0.101-0.258,0.174-0.498,0.174
					C58.447,199.252,58.246,199.023,58.246,198.62z"/>
			</g>
		</g>
	</g>
	<g>
		<g>
			<g>
				<g>
					<path fill="#929497" d="M27.21,192h-8.649l-4.331-7.5l4.331-7.5h8.649l4.331,7.5L27.21,192z M18.961,191h7.849l3.918-6.5
						L26.81,178h-7.849l-3.918,6.5L18.961,191z"/>
				</g>
			</g>
			<g>
				<g>
					<path fill="#929497" d="M25.698,189h-5.626l-2.837-4.5l2.837-4.5h5.626l2.837,4.5L25.698,189z M20.46,188h4.849l2.4-3.5
						l-2.4-3.5H20.46l-2.4,3.5L20.46,188z"/>
				</g>
			</g>
		</g>
		<g>
			<g>
				<path fill="#929497" d="M18.072,198.956v-3.319h-1.181v-0.414h2.832v0.414h-1.187v3.319H18.072z"/>
			</g>
			<g>
				<path fill="#929497" d="M19.524,197.601c0-0.783,0.515-1.416,1.337-1.416s1.338,0.633,1.338,1.416
					c0,0.784-0.515,1.422-1.338,1.422S19.524,198.385,19.524,197.601z M21.757,197.601c0-0.549-0.319-1.041-0.896-1.041
					c-0.576,0-0.896,0.492-0.896,1.041c0,0.554,0.319,1.047,0.896,1.047C21.438,198.647,21.757,198.155,21.757,197.601z"/>
			</g>
			<g>
				<path fill="#929497" d="M22.727,197.601c0-0.783,0.515-1.416,1.337-1.416c0.823,0,1.338,0.633,1.338,1.416
					c0,0.784-0.515,1.422-1.338,1.422C23.242,199.023,22.727,198.385,22.727,197.601z M24.96,197.601
					c0-0.549-0.319-1.041-0.896-1.041c-0.576,0-0.896,0.492-0.896,1.041c0,0.554,0.319,1.047,0.896,1.047
					C24.641,198.647,24.96,198.155,24.96,197.601z"/>
			</g>
			<g>
				<path fill="#929497" d="M26.087,198.956v-3.733h0.42v3.733H26.087z"/>
			</g>
		</g>
	</g>
	<g>
		<rect x="13.5" y="165.5" fill="#F2F2F2" stroke="#929497" stroke-miterlimit="10" width="194" height="1"/>
	</g>
</g>
<g id="guide" display="none">
</g>
</svg>
