<?xml version="1.0" encoding="utf-8"?>
<!-- Generator: Adobe Illustrator 17.0.0, SVG Export Plug-In . SVG Version: 6.00 Build 0)  -->
<!DOCTYPE svg PUBLIC "-//W3C//DTD SVG 1.1//EN" "http://www.w3.org/Graphics/SVG/1.1/DTD/svg11.dtd">
<svg version="1.1" id="Layer_1" xmlns="http://www.w3.org/2000/svg" xmlns:xlink="http://www.w3.org/1999/xlink" x="0px" y="0px"
	 width="1173.667px" height="374.353px" viewBox="0 0 1173.667 374.353" enable-background="new 0 0 1173.667 374.353"
	 xml:space="preserve">
<rect id="XMLID_786_" x="57.226" y="65.832" opacity="0.9" fill="#A6CFD9" enable-background="new    " width="131.494" height="21.332"/>
<rect id="XMLID_783_" x="57.226" y="87.163" opacity="0.9" fill="#F29CA9" enable-background="new    " width="131.494" height="97.516"/>
<rect id="XMLID_780_" x="57.226" y="184.679" opacity="0.9" fill="#C8C882" enable-background="new    " width="131.494" height="6.095"/>
<rect id="XMLID_777_" x="57.226" y="190.774" opacity="0.9" fill="#F9BD95" enable-background="new    " width="131.494" height="33.521"/>
<rect id="XMLID_774_" x="57.226" y="224.295" opacity="0.9" fill="#8AC4BF" enable-background="new    " width="131.494" height="21.332"/>
<rect id="XMLID_771_" x="57.226" y="245.627" opacity="0.9" fill="#AEB2BD" enable-background="new    " width="131.494" height="94.469"/>
<rect id="XMLID_768_" x="57.226" y="340.095" opacity="0.9" fill="#B55772" enable-background="new    " width="131.494" height="30.474"/>
<rect id="XMLID_682_" x="251.933" y="65.832" opacity="0.9" fill="#A6CFD9" enable-background="new    " width="131.494" height="45.711"/>
<rect id="XMLID_678_" x="251.933" y="111.542" opacity="0.9" fill="#F29CA9" enable-background="new    " width="131.494" height="82.279"/>
<rect id="XMLID_671_" x="251.933" y="193.821" opacity="0.9" fill="#C8C882" enable-background="new    " width="131.494" height="6.095"/>
<rect id="XMLID_662_" x="251.933" y="199.916" opacity="0.9" fill="#F9BD95" enable-background="new    " width="131.494" height="36.568"/>
<rect id="XMLID_655_" x="251.933" y="236.485" opacity="0.9" fill="#8AC4BF" enable-background="new    " width="131.494" height="30.474"/>
<rect id="XMLID_644_" x="251.933" y="266.958" opacity="0.9" fill="#AEB2BD" enable-background="new    " width="131.494" height="60.947"/>
<rect id="XMLID_640_" x="251.933" y="327.906" opacity="0.9" fill="#B55772" enable-background="new    " width="131.494" height="42.663"/>
<rect id="XMLID_602_" x="446.936" y="65.832" opacity="0.9" fill="#F29CA9" enable-background="new    " width="131.494" height="18.284"/>
<rect id="XMLID_597_" x="446.936" y="84.116" opacity="0.9" fill="#CABAD8" enable-background="new    " width="131.494" height="57.9"/>
<rect id="XMLID_588_" x="446.936" y="142.016" opacity="0.9" fill="#F9BD95" enable-background="new    " width="131.494" height="39.616"/>
<rect id="XMLID_579_" x="446.936" y="181.632" opacity="0.9" fill="#8AC4BF" enable-background="new    " width="131.494" height="39.616"/>
<rect id="XMLID_569_" x="446.936" y="221.248" opacity="0.9" fill="#AEB2BD" enable-background="new    " width="131.494" height="60.947"/>
<rect id="XMLID_565_" x="446.936" y="282.195" opacity="0.9" fill="#B55772" enable-background="new    " width="131.494" height="88.374"/>
<rect id="XMLID_462_" x="846.526" y="65.832" opacity="0.9" fill="#A6CFD9" enable-background="new    " width="131.494" height="9.142"/>
<rect id="XMLID_459_" x="846.526" y="74.974" opacity="0.9" fill="#F29CA9" enable-background="new    " width="131.494" height="67.042"/>
<rect id="XMLID_456_" x="846.526" y="142.016" opacity="0.9" fill="#CABAD8" enable-background="new    " width="131.494" height="9.142"/>
<rect id="XMLID_453_" x="846.526" y="151.158" opacity="0.9" fill="#C8C882" enable-background="new    " width="131.494" height="124.942"/>
<rect id="XMLID_450_" x="846.526" y="276.1" opacity="0.9" fill="#F9BD95" enable-background="new    " width="131.494" height="48.758"/>
<rect id="XMLID_447_" x="846.526" y="324.858" opacity="0.9" fill="#AEB2BD" enable-background="new    " width="131.494" height="39.616"/>
<rect id="XMLID_444_" x="846.526" y="364.474" opacity="0.9" fill="#B55772" enable-background="new    " width="131.494" height="6.095"/>
<rect id="XMLID_426_" x="1040.156" y="65.832" opacity="0.9" fill="#A6CFD9" enable-background="new    " width="131.494" height="127.99"/>
<rect id="XMLID_423_" x="1040.156" y="193.821" opacity="0.9" fill="#F29CA9" enable-background="new    " width="131.494" height="24.379"/>
<rect id="XMLID_420_" x="1040.156" y="218.2" opacity="0.9" fill="#AEB2BD" enable-background="new    " width="131.494" height="127.99"/>
<rect id="XMLID_417_" x="1040.156" y="346.19" opacity="0.9" fill="#B55772" enable-background="new    " width="131.494" height="24.379"/>
<rect id="XMLID_310_" x="650.566" y="65.832" opacity="0.9" fill="#F29CA9" enable-background="new    " width="131.638" height="73.853"/>
<rect id="XMLID_306_" x="650.566" y="139.685" opacity="0.9" fill="#CABAD8" enable-background="new    " width="131.638" height="15.386"/>
<rect id="XMLID_304_" x="650.566" y="155.164" opacity="0.9" fill="#C8C882" enable-background="new    " width="131.638" height="24.618"/>
<rect id="XMLID_299_" x="650.566" y="179.782" opacity="0.9" fill="#F9BD95" enable-background="new    " width="131.638" height="9.232"/>
<rect id="XMLID_297_" x="650.566" y="189.014" opacity="0.9" fill="#AEB2BD" enable-background="new    " width="131.638" height="141.552"/>
<rect id="XMLID_295_" x="650.606" y="330.565" opacity="0.9" fill="#B55772" enable-background="new    " width="131.638" height="40.004"/>
<g id="XMLID_1_">
	<g>
		<path fill="#1E2122" d="M88.618,22.283l1.117-0.184v-8.775l-1.088-0.206v-1.036h4.792v1.036l-1.227,0.206v3.616h4.226v-3.608
			l-1.139-0.213v-1.036h4.74v1.036l-1.117,0.206V22.1l1.117,0.184v0.985h-4.726v-0.985l1.125-0.191v-3.91h-4.226v3.91l1.227,0.191
			v0.985h-4.821V22.283z"/>
		<path fill="#1E2122" d="M101.952,22.283l1.146-0.188v-8.763l-1.168-0.213v-1.036h8.135l0.206,2.594h-1.198l-0.515-1.529h-2.969
			v3.814h1.867l0.272-1.235h1.073v3.741h-1.073l-0.257-1.315h-1.881V22.1h3.307l0.918-1.964l1.257,0.354l-0.382,2.778h-8.738V22.283
			z"/>
		<path fill="#1E2122" d="M111.729,22.283l0.882-0.19l3.395-10.01h2.594l3.417,10.018l0.853,0.183v0.985h-4.652v-0.985l1.058-0.191
			l-0.529-1.815h-3.696l-0.515,1.845l1.168,0.162v0.985h-3.961L111.729,22.283z M118.416,19.146l-1.33-4.478l-0.228-1.02
			l-0.228,1.02l-1.264,4.478H118.416z"/>
		<path fill="#1E2122" d="M123.961,22.283l1.146-0.191v-8.76l-1.132-0.213v-1.036h5.027v1.036l-1.396,0.213v8.671h2.896l0.97-2.925
			l1.374,0.206l-0.434,3.983h-8.451L123.961,22.283L123.961,22.283z"/>
		<path fill="#1E2122" d="M136.045,22.283l1.889-0.191v-8.863h-1.896l-0.61,3.3h-1.396l0.22-4.446h9.752l0.213,4.446h-1.345
			l-0.647-3.3h-1.778v8.855l2.058,0.198v0.985h-6.459v-0.984H136.045z"/>
		<path fill="#1E2122" d="M145.91,22.283l1.117-0.184v-8.775l-1.088-0.206v-1.036h4.792v1.036l-1.227,0.206v3.616h4.226v-3.608
			l-1.139-0.213v-1.036h4.74v1.036l-1.117,0.206V22.1l1.117,0.184v0.985h-4.726v-0.985l1.125-0.191v-3.91h-4.226v3.91l1.227,0.191
			v0.985h-4.821L145.91,22.283L145.91,22.283z"/>
	</g>
	
		<rect id="XMLID_69_" x="76.667" y="1" fill="none" stroke="#B09C8E" stroke-linejoin="round" stroke-miterlimit="10" width="91" height="33"/>
</g>
<g id="XMLID_5_">
	<g>
		<path fill="#1E2122" d="M269.699,22.246l1.187-0.183v-8.745l-1.187-0.205V12.08h3.654l4.263,6.467l0.799,1.699V13.31l-1.289-0.198
			V12.08h3.853v1.033l-1.157,0.205v9.91h-2.036l-4.49-6.863l-0.996-2.007v7.705l1.538,0.183v0.981H269.7L269.699,22.246
			L269.699,22.246z"/>
		<path fill="#1E2122" d="M283.156,13.355l-0.952-0.209V12.08h4.761v1.066l-1.237,0.216v5.451c0,1.153,0.196,2.005,0.589,2.556
			c0.394,0.551,0.983,0.826,1.77,0.826c0.4,0,0.745-0.079,1.036-0.238c0.29-0.159,0.529-0.383,0.718-0.674
			c0.188-0.291,0.326-0.642,0.414-1.053s0.131-0.871,0.131-1.38v-5.494l-1.259-0.209V12.08h3.837v1.066l-0.988,0.209v5.38
			c0,0.809-0.107,1.499-0.322,2.069c-0.215,0.571-0.511,1.035-0.887,1.394c-0.376,0.358-0.821,0.621-1.336,0.787
			c-0.516,0.166-1.075,0.249-1.681,0.249c-0.776,0-1.453-0.086-2.029-0.26s-1.054-0.447-1.432-0.82
			c-0.379-0.373-0.662-0.852-0.85-1.437c-0.188-0.585-0.282-1.287-0.282-2.105L283.156,13.355L283.156,13.355z"/>
		<path fill="#1E2122" d="M296.116,22.246l1.883-0.19v-8.833h-1.891l-0.607,3.289h-1.392l0.22-4.431h9.719l0.213,4.431h-1.34
			l-0.645-3.289h-1.773v8.826l2.051,0.198v0.981h-6.438L296.116,22.246L296.116,22.246z"/>
		<path fill="#1E2122" d="M305.919,22.246l1.143-0.183v-8.684l-1.092-0.202V12.08h2.277c0.215,0,0.419,0,0.612,0
			c0.192,0,0.387,0,0.582,0s0.399,0,0.611,0c0.213,0,0.445,0,0.7,0c0.791,0,1.459,0.057,2.006,0.169s0.99,0.29,1.33,0.53
			c0.339,0.24,0.583,0.546,0.732,0.916c0.148,0.37,0.223,0.81,0.223,1.319c0,0.303-0.042,0.612-0.128,0.927
			c-0.085,0.315-0.217,0.61-0.396,0.887c-0.178,0.276-0.401,0.522-0.67,0.739s-0.586,0.382-0.952,0.498
			c0.269,0.112,0.51,0.285,0.726,0.516c0.214,0.232,0.41,0.492,0.586,0.78s0.334,0.586,0.476,0.894s0.274,0.592,0.399,0.854
			c0.124,0.261,0.245,0.482,0.362,0.663s0.236,0.286,0.358,0.315l0.462,0.161v0.981h-2.849c-0.088,0-0.178-0.061-0.268-0.183
			c-0.091-0.123-0.183-0.284-0.275-0.484s-0.187-0.432-0.281-0.693c-0.096-0.261-0.194-0.533-0.297-0.814s-0.206-0.561-0.312-0.84
			c-0.104-0.279-0.216-0.536-0.333-0.771s-0.238-0.439-0.362-0.612c-0.125-0.174-0.256-0.295-0.392-0.363c-0.133,0-0.272,0-0.422,0
			c-0.148,0-0.288,0-0.417,0c-0.13,0-0.242,0-0.337,0c-0.096,0-0.158,0-0.188,0v3.604l1.334,0.176v0.981h-4.951v-0.984
			C305.916,22.246,305.919,22.246,305.919,22.246z M309.536,17.445c0.045,0.013,0.119,0.022,0.224,0.026s0.218,0.006,0.337,0.006
			c0.12,0,0.235,0,0.348,0s0.2,0,0.264,0c0.527,0,0.944-0.193,1.249-0.579c0.306-0.386,0.458-0.99,0.458-1.811
			c0-0.333-0.034-0.627-0.103-0.883s-0.179-0.471-0.329-0.644c-0.152-0.174-0.351-0.306-0.598-0.395
			c-0.246-0.089-0.545-0.134-0.896-0.134c-0.279,0-0.49,0.008-0.634,0.025c-0.145,0.017-0.251,0.033-0.319,0.047v4.342
			C309.537,17.445,309.536,17.445,309.536,17.445z"/>
		<path fill="#1E2122" d="M317.654,22.246l1.209-0.19v-8.73l-1.223-0.212V12.08h4.936v1.033l-1.23,0.205v8.738l1.246,0.205v0.967
			h-4.938L317.654,22.246L317.654,22.246z"/>
		<path fill="#1E2122" d="M326.219,22.246l1.883-0.19v-8.833h-1.891l-0.607,3.289h-1.392l0.22-4.431h9.719l0.213,4.431h-1.34
			l-0.645-3.289h-1.773v8.826l2.051,0.198v0.981h-6.438L326.219,22.246L326.219,22.246z"/>
		<path fill="#1E2122" d="M336.124,22.246l1.209-0.19v-8.73l-1.223-0.212V12.08h4.936v1.033l-1.23,0.205v8.738l1.246,0.205v0.967
			h-4.938L336.124,22.246L336.124,22.246z"/>
		<path fill="#1E2122" d="M347.832,23.235c-0.87,0-1.619-0.133-2.249-0.399s-1.147-0.643-1.553-1.13
			c-0.405-0.487-0.706-1.073-0.901-1.757s-0.293-1.442-0.293-2.273c0-0.855,0.124-1.627,0.37-2.316
			c0.247-0.689,0.596-1.278,1.048-1.768c0.451-0.489,0.994-0.865,1.629-1.126s1.341-0.392,2.117-0.392
			c0.869,0,1.617,0.127,2.245,0.382c0.627,0.255,1.143,0.618,1.545,1.09c0.403,0.472,0.701,1.04,0.894,1.704
			c0.193,0.665,0.289,1.409,0.289,2.233c0,0.857-0.123,1.639-0.369,2.344c-0.247,0.705-0.595,1.309-1.044,1.812
			s-0.99,0.895-1.622,1.176C349.304,23.094,348.602,23.235,347.832,23.235z M347.897,22.217c0.732,0,1.308-0.396,1.725-1.188
			c0.418-0.792,0.626-1.974,0.626-3.545c0-0.771-0.054-1.435-0.16-1.991c-0.108-0.556-0.262-1.012-0.462-1.37
			c-0.2-0.357-0.445-0.62-0.736-0.788c-0.29-0.168-0.618-0.252-0.985-0.252c-0.365,0-0.694,0.092-0.984,0.277
			c-0.291,0.185-0.536,0.465-0.736,0.841c-0.2,0.376-0.354,0.853-0.461,1.43c-0.108,0.577-0.162,1.256-0.162,2.037
			c0,0.776,0.053,1.449,0.158,2.019c0.104,0.57,0.259,1.042,0.461,1.416c0.203,0.374,0.448,0.653,0.736,0.837
			S347.531,22.217,347.897,22.217z"/>
		<path fill="#1E2122" d="M354.661,22.246l1.186-0.183v-8.745l-1.186-0.205V12.08h3.654l4.263,6.467l0.798,1.699V13.31l-1.289-0.198
			V12.08h3.854v1.033l-1.158,0.205v9.91h-2.035l-4.49-6.863l-0.996-2.007v7.705l1.538,0.183v0.981h-4.138v-0.981
			C354.662,22.246,354.661,22.246,354.661,22.246z"/>
	</g>
	
		<rect id="XMLID_53_" x="257.667" y="1" fill="none" stroke="#B09C8E" stroke-linejoin="round" stroke-miterlimit="10" width="119" height="33"/>
</g>
<g id="XMLID_6_">
	<g>
		<path fill="#1E2122" d="M490.245,22.246l1.268-0.183l1.018-8.745l-1.472-0.205V12.08h4.849l1.912,6.482l0.271,1.421l0.241-1.421
			l1.604-6.482h4.899v1.033l-1.589,0.212l1.304,8.73l1.245,0.19v0.981h-5.017v-0.981l1.237-0.183l-0.755-6.453l-0.285-2.681
			l-0.432,2.073l-2.015,7.8h-1.794l-2.366-7.258l-0.645-2.659l-0.176,2.717l-0.476,6.453l1.486,0.19v0.981h-4.314v-0.979
			C490.243,22.246,490.245,22.246,490.245,22.246z"/>
		<path fill="#1E2122" d="M507.137,22.246l1.209-0.19v-8.73l-1.223-0.212V12.08h4.936v1.033l-1.23,0.205v8.738l1.246,0.205v0.967
			h-4.938L507.137,22.246L507.137,22.246z"/>
		<path fill="#1E2122" d="M514.011,22.246l1.143-0.19v-8.73l-1.129-0.212V12.08h5.01v1.033l-1.391,0.212v8.643h2.885l0.967-2.915
			l1.37,0.205l-0.433,3.97h-8.422V22.246z"/>
		<path fill="#1E2122" d="M524.348,22.246l1.158-0.19v-8.738l-1.15-0.205V12.08h4.709v1.033l-1.084,0.212v4.688l3.662-4.695
			l-1.193-0.205l-0.008-1.033h4.197v1.025l-1.274,0.212l-2.725,3.098c0.229,0.205,0.47,0.481,0.722,0.828
			c0.251,0.347,0.504,0.721,0.758,1.125c0.254,0.402,0.502,0.812,0.743,1.23c0.242,0.417,0.466,0.801,0.671,1.149
			c0.205,0.35,0.389,0.644,0.553,0.883c0.163,0.239,0.291,0.381,0.385,0.425l0.674,0.19v0.981H532.2
			c-0.102,0-0.222-0.094-0.358-0.282c-0.137-0.188-0.287-0.432-0.45-0.732c-0.164-0.3-0.336-0.638-0.517-1.014
			s-0.365-0.753-0.553-1.131s-0.378-0.74-0.567-1.084c-0.191-0.345-0.377-0.634-0.557-0.868l-1.217,1.436v2.512l1.275,0.183v0.981
			h-4.908V22.246z"/>
	</g>
	
		<rect id="XMLID_37_" x="480.667" y="1" fill="none" stroke="#B09C8E" stroke-linejoin="round" stroke-miterlimit="10" width="64" height="33"/>
</g>
<g id="XMLID_13_">
	<g>
		<path fill="#1E2122" d="M661.885,22.246l1.268-0.183l1.018-8.745l-1.472-0.205V12.08h4.849l1.912,6.482l0.271,1.421l0.241-1.421
			l1.604-6.482h4.899v1.033l-1.589,0.212l1.304,8.73l1.245,0.19v0.981h-5.017v-0.981l1.237-0.183l-0.755-6.453l-0.285-2.681
			l-0.432,2.073l-2.015,7.8h-1.794l-2.366-7.258l-0.645-2.659l-0.176,2.717l-0.476,6.453l1.486,0.19v0.981h-4.314v-0.979
			C661.883,22.246,661.885,22.246,661.885,22.246z"/>
		<path fill="#1E2122" d="M678.778,22.246l1.209-0.19v-8.73l-1.223-0.212V12.08h4.936v1.033l-1.23,0.205v8.738l1.246,0.205v0.967
			h-4.938L678.778,22.246L678.778,22.246z"/>
		<path fill="#1E2122" d="M686.025,19.86h1.369l0.374,1.802c0.112,0.133,0.318,0.252,0.619,0.358c0.3,0.106,0.663,0.16,1.087,0.16
			c0.631,0,1.089-0.132,1.377-0.395s0.433-0.623,0.433-1.079c0-0.247-0.057-0.468-0.169-0.665s-0.274-0.38-0.486-0.548
			c-0.213-0.168-0.473-0.331-0.78-0.487c-0.308-0.157-0.654-0.323-1.04-0.499c-0.19-0.085-0.395-0.185-0.611-0.299
			c-0.218-0.114-0.432-0.245-0.641-0.392c-0.211-0.147-0.413-0.313-0.608-0.498s-0.366-0.393-0.513-0.623
			c-0.146-0.23-0.264-0.484-0.352-0.762c-0.088-0.277-0.132-0.583-0.132-0.915c0-0.394,0.079-0.769,0.238-1.125
			c0.158-0.356,0.399-0.669,0.722-0.939s0.727-0.485,1.215-0.645c0.488-0.159,1.064-0.238,1.729-0.238
			c0.415,0,0.793,0.026,1.132,0.077c0.34,0.052,0.642,0.109,0.905,0.172s0.489,0.125,0.677,0.183
			c0.188,0.059,0.338,0.093,0.45,0.103l-0.095,2.569h-1.333l-0.359-1.731c-0.034-0.042-0.09-0.085-0.168-0.127
			c-0.078-0.043-0.175-0.082-0.289-0.117c-0.115-0.036-0.244-0.064-0.389-0.085c-0.144-0.021-0.297-0.032-0.457-0.032
			c-0.293,0-0.543,0.035-0.748,0.103c-0.205,0.069-0.373,0.163-0.505,0.281s-0.228,0.261-0.286,0.427
			c-0.059,0.167-0.088,0.344-0.088,0.534c0,0.266,0.067,0.503,0.202,0.711c0.134,0.209,0.318,0.402,0.553,0.581
			c0.234,0.178,0.51,0.349,0.827,0.512c0.317,0.164,0.66,0.333,1.025,0.509c0.309,0.152,0.631,0.321,0.967,0.509
			c0.338,0.188,0.646,0.41,0.927,0.666s0.513,0.553,0.696,0.89s0.274,0.726,0.274,1.167c0,0.242-0.029,0.49-0.088,0.744
			s-0.155,0.502-0.289,0.744c-0.135,0.242-0.31,0.47-0.524,0.683c-0.215,0.214-0.479,0.401-0.791,0.562
			c-0.312,0.162-0.677,0.29-1.095,0.384c-0.417,0.095-0.895,0.143-1.432,0.143c-0.454,0-0.878-0.033-1.271-0.099
			c-0.394-0.065-0.746-0.139-1.059-0.219s-0.581-0.156-0.806-0.227s-0.398-0.111-0.521-0.121L686.025,19.86z"/>
		<path fill="#1E2122" d="M695.329,17.708c0-0.892,0.142-1.687,0.426-2.385c0.282-0.698,0.672-1.288,1.168-1.77
			c0.495-0.481,1.081-0.848,1.758-1.101c0.676-0.252,1.41-0.379,2.201-0.379c0.355,0,0.707,0.018,1.055,0.055
			c0.346,0.036,0.672,0.077,0.978,0.121c0.305,0.044,0.578,0.087,0.82,0.128c0.241,0.042,0.438,0.069,0.589,0.084l-0.176,3.191
			h-1.566l-0.514-2.147c-0.072-0.095-0.217-0.18-0.432-0.256s-0.527-0.114-0.938-0.114c-0.386,0-0.736,0.091-1.051,0.274
			c-0.315,0.182-0.584,0.455-0.806,0.817c-0.223,0.363-0.395,0.817-0.517,1.362s-0.184,1.181-0.184,1.906
			c0,0.649,0.053,1.257,0.158,1.824c0.104,0.566,0.268,1.061,0.486,1.482c0.221,0.422,0.497,0.755,0.832,0.999
			c0.334,0.244,0.733,0.366,1.197,0.366c0.21,0,0.392-0.014,0.546-0.042c0.153-0.028,0.285-0.065,0.396-0.11
			c0.109-0.045,0.2-0.095,0.271-0.149s0.131-0.11,0.18-0.167l0.703-1.572l1.421,0.132l-0.278,2.411
			c-0.234,0.024-0.453,0.066-0.655,0.125c-0.203,0.06-0.425,0.124-0.667,0.19c-0.241,0.067-0.517,0.125-0.823,0.176
			c-0.309,0.05-0.682,0.075-1.121,0.075c-0.903,0-1.695-0.127-2.377-0.383c-0.681-0.255-1.25-0.621-1.706-1.097
			c-0.457-0.477-0.8-1.057-1.029-1.741S695.329,18.561,695.329,17.708z"/>
		<path fill="#1E2122" d="M706.135,22.246l1.143-0.187v-8.734l-1.165-0.212V12.08h8.108l0.205,2.585h-1.194l-0.513-1.523h-2.959
			v3.801h1.86l0.271-1.23h1.07v3.728h-1.07l-0.256-1.311h-1.875v3.933h3.296l0.915-1.958l1.253,0.354l-0.381,2.769h-8.708
			L706.135,22.246L706.135,22.246z"/>
		<path fill="#1E2122" d="M716.751,22.246l1.143-0.19v-8.73l-1.129-0.212V12.08h5.01v1.033l-1.391,0.212v8.643h2.885l0.967-2.915
			l1.37,0.205l-0.433,3.97h-8.422V22.246z"/>
		<path fill="#1E2122" d="M727.102,22.246l1.143-0.19v-8.73l-1.129-0.212V12.08h5.01v1.033l-1.391,0.212v8.643h2.885l0.967-2.915
			l1.37,0.205l-0.433,3.97h-8.422V22.246z"/>
		<path fill="#1E2122" d="M736.582,22.246l0.879-0.189l3.384-9.977h2.586l3.405,9.984l0.85,0.182v0.981h-4.636v-0.981l1.055-0.19
			l-0.527-1.809h-3.685l-0.513,1.838l1.164,0.161v0.981h-3.947L736.582,22.246z M743.247,19.119l-1.326-4.463l-0.227-1.017
			l-0.227,1.017l-1.26,4.463H743.247z"/>
		<path fill="#1E2122" d="M748.743,22.246l1.186-0.183v-8.745l-1.186-0.205V12.08h3.654l4.263,6.467l0.798,1.699V13.31l-1.289-0.198
			V12.08h3.854v1.033l-1.158,0.205v9.91h-2.035l-4.49-6.863l-0.996-2.007v7.705l1.538,0.183v0.981h-4.138v-0.981
			C748.744,22.246,748.743,22.246,748.743,22.246z"/>
		<path fill="#1E2122" d="M763.225,22.246l1.531-0.183v-3.296l-3.105-5.442l-0.879-0.212V12.08h4.672v1.033l-0.988,0.212l1.75,3.523
			l0.338,0.945l0.373-0.93l1.604-3.545l-1.12-0.205V12.08h3.786v1.033l-0.93,0.19l-2.886,5.464v3.289l1.589,0.19v0.981h-5.734
			v-0.981H763.225z"/>
	</g>
	
		<rect id="XMLID_51_" x="650.667" y="1" fill="none" stroke="#B09C8E" stroke-linejoin="round" stroke-miterlimit="10" width="132" height="33"/>
</g>
<g id="XMLID_79_">
	<g>
		<path fill="#1E2122" d="M888.499,22.246l1.186-0.183v-8.745l-1.186-0.205V12.08h3.654l4.263,6.467l0.798,1.699V13.31l-1.289-0.198
			V12.08h3.854v1.033l-1.158,0.205v9.91h-2.035l-4.49-6.863l-0.996-2.007v7.705l1.538,0.183v0.981H888.5L888.499,22.246
			C888.5,22.246,888.499,22.246,888.499,22.246z"/>
		<path fill="#1E2122" d="M901.348,22.246l1.143-0.187v-8.734l-1.165-0.212V12.08h8.108l0.205,2.585h-1.194l-0.513-1.523h-2.959
			v3.801h1.86l0.271-1.23h1.07v3.728h-1.07l-0.256-1.311h-1.875v3.933h3.296l0.915-1.958l1.253,0.354l-0.381,2.769h-8.708
			L901.348,22.246L901.348,22.246z"/>
		<path fill="#1E2122" d="M911.993,13.415l-0.879-0.216V12.08h4.701v1.119l-1.23,0.216l1.81,6.54l0.271,1.427l0.257-1.427
			l1.53-5.278l-0.424-1.269l-0.938-0.209V12.08h4.885v1.119l-1.392,0.209l1.816,6.547l0.315,1.536l0.256-1.536l1.67-6.547
			l-1.304-0.209V12.08h3.685v1.119l-0.945,0.216l-2.834,9.812h-2.22l-1.94-6.561l-1.854,6.561h-2.176L911.993,13.415z"/>
		<path fill="#1E2122" d="M928.43,19.86h1.369l0.374,1.802c0.112,0.133,0.318,0.252,0.619,0.358c0.3,0.106,0.663,0.16,1.087,0.16
			c0.631,0,1.089-0.132,1.377-0.395s0.433-0.623,0.433-1.079c0-0.247-0.057-0.468-0.169-0.665s-0.274-0.38-0.486-0.548
			c-0.213-0.168-0.473-0.331-0.78-0.487c-0.308-0.157-0.654-0.323-1.04-0.499c-0.19-0.085-0.395-0.185-0.611-0.299
			c-0.218-0.114-0.432-0.245-0.641-0.392c-0.211-0.147-0.413-0.313-0.608-0.498s-0.366-0.393-0.513-0.623
			c-0.146-0.23-0.264-0.484-0.352-0.762c-0.088-0.277-0.132-0.583-0.132-0.915c0-0.394,0.079-0.769,0.238-1.125
			c0.158-0.356,0.399-0.669,0.722-0.939s0.727-0.485,1.215-0.645c0.488-0.159,1.064-0.238,1.729-0.238
			c0.415,0,0.793,0.026,1.132,0.077c0.34,0.052,0.642,0.109,0.905,0.172s0.489,0.125,0.677,0.183
			c0.188,0.059,0.338,0.093,0.45,0.103l-0.095,2.569h-1.333l-0.359-1.731c-0.034-0.042-0.09-0.085-0.168-0.127
			c-0.078-0.043-0.175-0.082-0.289-0.117c-0.115-0.036-0.244-0.064-0.389-0.085c-0.144-0.021-0.297-0.032-0.457-0.032
			c-0.293,0-0.543,0.035-0.748,0.103c-0.205,0.069-0.373,0.163-0.505,0.281s-0.228,0.261-0.286,0.427
			c-0.059,0.167-0.088,0.344-0.088,0.534c0,0.266,0.067,0.503,0.202,0.711c0.134,0.209,0.318,0.402,0.553,0.581
			c0.234,0.178,0.51,0.349,0.827,0.512c0.317,0.164,0.66,0.333,1.025,0.509c0.309,0.152,0.631,0.321,0.967,0.509
			c0.338,0.188,0.646,0.41,0.927,0.666s0.513,0.553,0.696,0.89s0.274,0.726,0.274,1.167c0,0.242-0.029,0.49-0.088,0.744
			s-0.155,0.502-0.289,0.744c-0.135,0.242-0.31,0.47-0.524,0.683c-0.215,0.214-0.479,0.401-0.791,0.562
			c-0.312,0.162-0.677,0.29-1.095,0.384c-0.417,0.095-0.895,0.143-1.432,0.143c-0.454,0-0.878-0.033-1.271-0.099
			c-0.394-0.065-0.746-0.139-1.059-0.219s-0.581-0.156-0.806-0.227s-0.398-0.111-0.521-0.121L928.43,19.86z"/>
	</g>
	
		<rect id="XMLID_68_" x="877.667" y="1" fill="none" stroke="#B09C8E" stroke-linejoin="round" stroke-miterlimit="10" width="69" height="33"/>
</g>
<g id="XMLID_2022_">
	<g>
		<path fill="#1E2122" d="M1050.477,18.896h1.369l0.374,1.802c0.112,0.133,0.318,0.252,0.619,0.358c0.3,0.106,0.663,0.16,1.087,0.16
			c0.631,0,1.089-0.132,1.377-0.395s0.433-0.623,0.433-1.079c0-0.247-0.057-0.468-0.169-0.665c-0.112-0.197-0.274-0.38-0.486-0.548
			c-0.213-0.168-0.473-0.331-0.78-0.487c-0.308-0.157-0.654-0.323-1.04-0.499c-0.19-0.085-0.395-0.185-0.611-0.299
			c-0.218-0.114-0.432-0.245-0.641-0.392c-0.211-0.147-0.413-0.313-0.608-0.498s-0.366-0.393-0.513-0.623
			c-0.146-0.23-0.264-0.484-0.352-0.762c-0.088-0.277-0.132-0.583-0.132-0.915c0-0.394,0.079-0.769,0.238-1.125
			c0.158-0.356,0.399-0.669,0.722-0.939s0.727-0.485,1.215-0.645c0.488-0.159,1.064-0.238,1.729-0.238
			c0.415,0,0.793,0.026,1.132,0.077c0.34,0.052,0.642,0.109,0.905,0.172s0.489,0.125,0.677,0.183
			c0.188,0.059,0.338,0.093,0.45,0.103l-0.095,2.569h-1.333l-0.359-1.731c-0.034-0.042-0.09-0.085-0.168-0.127
			c-0.078-0.043-0.175-0.082-0.289-0.117c-0.115-0.036-0.244-0.064-0.389-0.085c-0.144-0.021-0.297-0.032-0.457-0.032
			c-0.293,0-0.543,0.035-0.748,0.103c-0.205,0.069-0.373,0.163-0.505,0.281s-0.228,0.261-0.286,0.427
			c-0.059,0.167-0.088,0.344-0.088,0.534c0,0.266,0.067,0.503,0.202,0.711c0.134,0.209,0.318,0.402,0.553,0.581
			c0.234,0.178,0.51,0.349,0.827,0.512c0.317,0.164,0.66,0.333,1.025,0.509c0.309,0.152,0.631,0.321,0.967,0.509
			c0.338,0.188,0.646,0.41,0.927,0.666s0.513,0.553,0.696,0.89c0.183,0.337,0.274,0.726,0.274,1.167c0,0.242-0.029,0.49-0.088,0.744
			s-0.155,0.502-0.289,0.744c-0.135,0.242-0.31,0.47-0.524,0.683c-0.215,0.214-0.479,0.401-0.791,0.562
			c-0.312,0.162-0.677,0.29-1.095,0.384c-0.417,0.095-0.895,0.143-1.432,0.143c-0.454,0-0.878-0.033-1.271-0.099
			c-0.394-0.065-0.746-0.139-1.059-0.219s-0.581-0.156-0.806-0.227s-0.398-0.111-0.521-0.121L1050.477,18.896z"/>
		<path fill="#1E2122" d="M1059.782,16.744c0-0.892,0.142-1.687,0.426-2.385c0.282-0.698,0.672-1.288,1.168-1.77
			c0.495-0.481,1.081-0.848,1.758-1.101c0.676-0.252,1.41-0.379,2.201-0.379c0.355,0,0.707,0.018,1.055,0.055
			c0.346,0.036,0.672,0.077,0.978,0.121c0.305,0.044,0.578,0.087,0.82,0.128c0.241,0.042,0.438,0.069,0.589,0.084l-0.176,3.191
			h-1.566l-0.514-2.147c-0.072-0.095-0.217-0.18-0.432-0.256s-0.527-0.114-0.938-0.114c-0.386,0-0.736,0.091-1.051,0.274
			c-0.315,0.182-0.584,0.455-0.806,0.817c-0.223,0.363-0.395,0.817-0.517,1.362s-0.184,1.181-0.184,1.906
			c0,0.649,0.053,1.257,0.158,1.824c0.104,0.566,0.268,1.061,0.486,1.482c0.221,0.422,0.497,0.755,0.832,0.999
			c0.334,0.244,0.733,0.366,1.197,0.366c0.21,0,0.392-0.014,0.546-0.042c0.153-0.028,0.285-0.065,0.396-0.11
			c0.109-0.045,0.2-0.095,0.271-0.149s0.131-0.11,0.18-0.167l0.703-1.572l1.421,0.132l-0.278,2.411
			c-0.234,0.024-0.453,0.066-0.655,0.125c-0.203,0.06-0.425,0.124-0.667,0.19c-0.241,0.067-0.517,0.125-0.823,0.176
			c-0.309,0.05-0.682,0.075-1.121,0.075c-0.903,0-1.695-0.127-2.377-0.383c-0.681-0.255-1.25-0.621-1.706-1.097
			c-0.457-0.477-0.8-1.057-1.029-1.741S1059.782,17.597,1059.782,16.744z"/>
		<path fill="#1E2122" d="M1070.69,21.282l1.209-0.19v-8.73l-1.223-0.212v-1.033h4.936v1.033l-1.23,0.205v8.738l1.246,0.205v0.967
			h-4.938V21.282z"/>
		<path fill="#1E2122" d="M1077.564,21.282l1.143-0.187v-8.734l-1.165-0.212v-1.033h8.108l0.205,2.585h-1.194l-0.513-1.523h-2.959
			v3.801h1.86l0.271-1.23h1.07v3.728h-1.07l-0.256-1.311h-1.875v3.933h3.296l0.915-1.958l1.253,0.354l-0.381,2.769h-8.708
			L1077.564,21.282L1077.564,21.282z"/>
		<path fill="#1E2122" d="M1088.151,21.282l1.186-0.183v-8.745l-1.186-0.205v-1.033h3.654l4.263,6.467l0.798,1.699v-6.936
			l-1.289-0.198v-1.033h3.854v1.033l-1.158,0.205v9.91h-2.035l-4.49-6.863l-0.996-2.007v7.705l1.538,0.183v0.981h-4.138v-0.98
			C1088.152,21.282,1088.151,21.282,1088.151,21.282z"/>
		<path fill="#1E2122" d="M1100.839,16.744c0-0.892,0.142-1.687,0.426-2.385c0.282-0.698,0.672-1.288,1.168-1.77
			c0.495-0.481,1.081-0.848,1.758-1.101c0.676-0.252,1.41-0.379,2.201-0.379c0.355,0,0.707,0.018,1.055,0.055
			c0.346,0.036,0.672,0.077,0.978,0.121c0.305,0.044,0.578,0.087,0.82,0.128c0.241,0.042,0.438,0.069,0.589,0.084l-0.176,3.191
			h-1.566l-0.514-2.147c-0.072-0.095-0.217-0.18-0.432-0.256s-0.527-0.114-0.938-0.114c-0.386,0-0.736,0.091-1.051,0.274
			c-0.315,0.182-0.584,0.455-0.806,0.817c-0.223,0.363-0.395,0.817-0.517,1.362s-0.184,1.181-0.184,1.906
			c0,0.649,0.053,1.257,0.158,1.824c0.104,0.566,0.268,1.061,0.486,1.482c0.221,0.422,0.497,0.755,0.832,0.999
			c0.334,0.244,0.733,0.366,1.197,0.366c0.21,0,0.392-0.014,0.546-0.042c0.153-0.028,0.285-0.065,0.396-0.11
			c0.109-0.045,0.2-0.095,0.271-0.149s0.131-0.11,0.18-0.167l0.703-1.572l1.421,0.132l-0.278,2.411
			c-0.234,0.024-0.453,0.066-0.655,0.125c-0.203,0.06-0.425,0.124-0.667,0.19c-0.241,0.067-0.517,0.125-0.823,0.176
			c-0.309,0.05-0.682,0.075-1.121,0.075c-0.903,0-1.695-0.127-2.377-0.383c-0.681-0.255-1.25-0.621-1.706-1.097
			c-0.457-0.477-0.8-1.057-1.029-1.741S1100.839,17.597,1100.839,16.744z"/>
		<path fill="#1E2122" d="M1111.645,21.282l1.143-0.187v-8.734l-1.165-0.212v-1.033h8.108l0.205,2.585h-1.194l-0.513-1.523h-2.959
			v3.801h1.86l0.271-1.23h1.07v3.728h-1.07l-0.256-1.311h-1.875v3.933h3.296l0.915-1.958l1.253,0.354l-0.381,2.769h-8.708
			L1111.645,21.282L1111.645,21.282z"/>
		<path fill="#1E2122" d="M1126.336,21.282l0.879-0.189l3.384-9.977h2.586l3.405,9.984l0.85,0.182v0.981h-4.636v-0.981l1.055-0.19
			l-0.527-1.809h-3.685l-0.513,1.838l1.164,0.161v0.981h-3.947L1126.336,21.282z M1133.001,18.155l-1.326-4.463l-0.227-1.017
			l-0.227,1.017l-1.26,4.463H1133.001z"/>
		<path fill="#1E2122" d="M1138.497,21.282l1.186-0.183v-8.745l-1.186-0.205v-1.033h3.654l4.263,6.467l0.798,1.699v-6.936
			l-1.289-0.198v-1.033h3.854v1.033l-1.158,0.205v9.91h-2.035l-4.49-6.863l-0.996-2.007v7.705l1.538,0.183v0.981h-4.138v-0.98
			C1138.498,21.282,1138.497,21.282,1138.497,21.282z"/>
		<path fill="#1E2122" d="M1151.346,21.209l1.143-0.18V12.42l-1.092-0.202v-1.103h2.277c0.234,0,0.458,0,0.671,0
			c0.212,0,0.422,0,0.63,0c0.207,0,0.418,0,0.633,0s0.442,0,0.682,0c0.938,0,1.753,0.116,2.446,0.348s1.267,0.57,1.722,1.015
			c0.453,0.444,0.793,0.987,1.018,1.627c0.225,0.641,0.337,1.37,0.337,2.187c0,0.875-0.132,1.679-0.396,2.413
			c-0.264,0.733-0.644,1.366-1.139,1.896c-0.496,0.53-1.096,0.94-1.799,1.229s-1.494,0.434-2.373,0.434c-0.195,0-0.401,0-0.618,0
			c-0.218,0-0.432,0-0.642,0s-0.411,0-0.604,0s-0.363,0-0.51,0h-2.387L1151.346,21.209L1151.346,21.209z M1154.942,21.086
			c0.171,0.06,0.362,0.097,0.575,0.113c0.212,0.016,0.44,0.024,0.685,0.024c0.439,0,0.839-0.09,1.197-0.271
			c0.359-0.181,0.664-0.457,0.916-0.828c0.251-0.371,0.446-0.841,0.586-1.41c0.139-0.569,0.209-1.249,0.209-2.039
			c0-0.694-0.061-1.323-0.18-1.888c-0.12-0.564-0.307-1.044-0.561-1.442s-0.581-0.704-0.981-0.918
			c-0.4-0.214-0.882-0.322-1.442-0.322c-0.27,0-0.484,0.016-0.645,0.047c-0.162,0.032-0.281,0.054-0.359,0.069V21.086z"/>
		<path fill="#1E2122" d="M1050.915,39.282l1.883-0.19v-8.833h-1.891l-0.607,3.289h-1.392l0.22-4.431h9.719l0.213,4.431h-1.34
			l-0.645-3.289h-1.773v8.826l2.051,0.198v0.981h-6.438L1050.915,39.282L1050.915,39.282z"/>
		<path fill="#1E2122" d="M1060.717,39.282l1.143-0.187v-8.734l-1.165-0.212v-1.033h8.108l0.205,2.585h-1.194l-0.513-1.523h-2.959
			v3.801h1.86l0.271-1.23h1.07v3.728h-1.07l-0.256-1.311h-1.875v3.933h3.296l0.915-1.958l1.253,0.354l-0.381,2.769h-8.708
			L1060.717,39.282L1060.717,39.282z"/>
		<path fill="#1E2122" d="M1071.171,34.744c0-0.892,0.142-1.687,0.426-2.385c0.282-0.698,0.672-1.288,1.168-1.77
			c0.495-0.481,1.081-0.848,1.758-1.101c0.676-0.252,1.41-0.379,2.201-0.379c0.355,0,0.707,0.018,1.055,0.055
			c0.346,0.036,0.672,0.077,0.978,0.121c0.305,0.044,0.578,0.087,0.82,0.128c0.241,0.042,0.438,0.069,0.589,0.084l-0.176,3.191
			h-1.566l-0.514-2.147c-0.072-0.095-0.217-0.18-0.432-0.256s-0.527-0.114-0.938-0.114c-0.386,0-0.736,0.091-1.051,0.274
			c-0.315,0.182-0.584,0.455-0.806,0.817c-0.223,0.363-0.395,0.817-0.517,1.362c-0.122,0.545-0.184,1.181-0.184,1.906
			c0,0.649,0.053,1.257,0.158,1.824c0.104,0.566,0.268,1.061,0.486,1.482c0.221,0.422,0.497,0.755,0.832,0.999
			c0.334,0.244,0.733,0.366,1.197,0.366c0.21,0,0.392-0.014,0.546-0.042c0.153-0.028,0.285-0.065,0.396-0.11
			c0.109-0.045,0.2-0.095,0.271-0.149c0.071-0.054,0.131-0.11,0.18-0.167l0.703-1.572l1.421,0.132l-0.278,2.411
			c-0.234,0.024-0.453,0.066-0.655,0.125c-0.203,0.06-0.425,0.124-0.667,0.19c-0.241,0.067-0.517,0.125-0.823,0.176
			c-0.309,0.05-0.682,0.075-1.121,0.075c-0.903,0-1.695-0.127-2.377-0.383c-0.681-0.255-1.25-0.621-1.706-1.097
			c-0.457-0.477-0.8-1.057-1.029-1.741S1071.171,35.597,1071.171,34.744z"/>
		<path fill="#1E2122" d="M1082.006,39.282l1.113-0.183v-8.745l-1.084-0.205v-1.033h4.775v1.033l-1.224,0.205v3.604h4.212v-3.596
			l-1.136-0.212v-1.033h4.724v1.033l-1.113,0.205V39.1l1.113,0.183v0.981h-4.709v-0.981l1.121-0.19v-3.896h-4.212v3.896l1.224,0.19
			v0.981h-4.805L1082.006,39.282L1082.006,39.282z"/>
		<path fill="#1E2122" d="M1095.266,39.282l1.186-0.183v-8.745l-1.186-0.205v-1.033h3.654l4.263,6.467l0.798,1.699v-6.936
			l-1.289-0.198v-1.033h3.854v1.033l-1.158,0.205v9.91h-2.035l-4.49-6.863l-0.996-2.007v7.705l1.538,0.183v0.981h-4.138v-0.98
			C1095.267,39.282,1095.266,39.282,1095.266,39.282z"/>
		<path fill="#1E2122" d="M1112.95,40.271c-0.87,0-1.619-0.133-2.249-0.399s-1.147-0.643-1.553-1.13
			c-0.405-0.487-0.706-1.073-0.901-1.757s-0.293-1.442-0.293-2.273c0-0.855,0.124-1.627,0.37-2.316
			c0.247-0.689,0.596-1.278,1.048-1.768c0.451-0.489,0.994-0.865,1.629-1.126s1.341-0.392,2.117-0.392
			c0.869,0,1.617,0.127,2.245,0.382c0.627,0.255,1.143,0.618,1.545,1.09c0.403,0.472,0.701,1.04,0.894,1.704
			c0.193,0.665,0.289,1.409,0.289,2.233c0,0.857-0.123,1.639-0.369,2.344c-0.247,0.705-0.595,1.309-1.044,1.812
			s-0.99,0.895-1.622,1.176C1114.422,40.13,1113.72,40.271,1112.95,40.271z M1113.015,39.253c0.732,0,1.308-0.396,1.725-1.188
			c0.418-0.792,0.626-1.974,0.626-3.545c0-0.771-0.054-1.435-0.16-1.991c-0.108-0.556-0.262-1.012-0.462-1.37
			c-0.2-0.357-0.445-0.62-0.736-0.788c-0.29-0.168-0.618-0.252-0.985-0.252c-0.365,0-0.694,0.092-0.984,0.277
			c-0.291,0.185-0.536,0.465-0.736,0.841s-0.354,0.853-0.461,1.43c-0.108,0.577-0.162,1.256-0.162,2.037
			c0,0.776,0.053,1.449,0.158,2.019c0.104,0.57,0.259,1.042,0.461,1.416c0.203,0.374,0.448,0.653,0.736,0.837
			S1112.649,39.253,1113.015,39.253z"/>
		<path fill="#1E2122" d="M1119.808,39.282l1.143-0.19v-8.73l-1.129-0.212v-1.033h5.01v1.033l-1.391,0.212v8.643h2.885l0.967-2.915
			l1.37,0.205l-0.433,3.97h-8.422V39.282z"/>
		<path fill="#1E2122" d="M1134.995,40.271c-0.87,0-1.619-0.133-2.249-0.399s-1.147-0.643-1.553-1.13
			c-0.405-0.487-0.706-1.073-0.901-1.757s-0.293-1.442-0.293-2.273c0-0.855,0.124-1.627,0.37-2.316
			c0.247-0.689,0.596-1.278,1.048-1.768c0.451-0.489,0.994-0.865,1.629-1.126s1.341-0.392,2.117-0.392
			c0.869,0,1.617,0.127,2.245,0.382c0.627,0.255,1.143,0.618,1.545,1.09c0.403,0.472,0.701,1.04,0.894,1.704
			c0.193,0.665,0.289,1.409,0.289,2.233c0,0.857-0.123,1.639-0.369,2.344c-0.247,0.705-0.595,1.309-1.044,1.812
			s-0.99,0.895-1.622,1.176C1136.467,40.13,1135.765,40.271,1134.995,40.271z M1135.06,39.253c0.732,0,1.308-0.396,1.725-1.188
			c0.418-0.792,0.626-1.974,0.626-3.545c0-0.771-0.054-1.435-0.16-1.991c-0.108-0.556-0.262-1.012-0.462-1.37
			c-0.2-0.357-0.445-0.62-0.736-0.788c-0.29-0.168-0.618-0.252-0.985-0.252c-0.365,0-0.694,0.092-0.984,0.277
			c-0.291,0.185-0.536,0.465-0.736,0.841s-0.354,0.853-0.461,1.43c-0.108,0.577-0.162,1.256-0.162,2.037
			c0,0.776,0.053,1.449,0.158,2.019c0.104,0.57,0.259,1.042,0.461,1.416c0.203,0.374,0.448,0.653,0.736,0.837
			S1134.694,39.253,1135.06,39.253z"/>
		<path fill="#1E2122" d="M1141.772,34.79c0-0.904,0.14-1.708,0.417-2.413c0.279-0.704,0.672-1.299,1.18-1.784
			s1.119-0.854,1.835-1.106c0.715-0.252,1.51-0.378,2.384-0.378c0.396,0,0.788,0.018,1.18,0.055c0.39,0.036,0.754,0.08,1.091,0.132
			c0.337,0.051,0.635,0.104,0.894,0.157s0.454,0.095,0.586,0.125l-0.176,2.7h-1.714l-0.446-1.788
			c-0.035-0.032-0.085-0.07-0.15-0.113c-0.066-0.043-0.158-0.084-0.275-0.123c-0.117-0.039-0.262-0.071-0.436-0.096
			c-0.173-0.025-0.38-0.038-0.619-0.038c-0.453,0-0.859,0.093-1.215,0.28c-0.357,0.187-0.66,0.465-0.908,0.834
			c-0.25,0.369-0.439,0.828-0.572,1.376c-0.131,0.549-0.197,1.185-0.197,1.909c0,0.663,0.051,1.28,0.154,1.852
			c0.102,0.573,0.265,1.07,0.486,1.494c0.223,0.423,0.507,0.756,0.854,0.997s0.764,0.362,1.252,0.362
			c0.166,0,0.332-0.011,0.498-0.033c0.166-0.021,0.321-0.053,0.466-0.095c0.144-0.042,0.274-0.094,0.392-0.158
			s0.215-0.137,0.293-0.22v-3.083l-1.414-0.168v-1.099h4.6v1.099l-0.762,0.139v3.904c-0.195,0-0.435,0.041-0.717,0.122
			c-0.284,0.082-0.607,0.17-0.971,0.266c-0.364,0.096-0.766,0.183-1.205,0.259c-0.439,0.077-0.908,0.115-1.406,0.115
			c-0.864,0-1.631-0.14-2.3-0.421s-1.231-0.667-1.688-1.156c-0.456-0.49-0.802-1.069-1.036-1.738S1141.772,35.565,1141.772,34.79z"
			/>
		<path fill="#1E2122" d="M1155.45,39.282l1.531-0.183v-3.296l-3.105-5.442l-0.879-0.212v-1.033h4.672v1.033l-0.988,0.212
			l1.75,3.523l0.338,0.945l0.373-0.93l1.604-3.545l-1.12-0.205v-1.033h3.786v1.033l-0.93,0.19l-2.886,5.464v3.289l1.589,0.19v0.981
			h-5.734L1155.45,39.282L1155.45,39.282z"/>
	</g>
	
		<rect id="XMLID_293_" x="1036.667" y="1" fill="none" stroke="#B09C8E" stroke-linejoin="round" stroke-miterlimit="10" width="136" height="51"/>
</g>
</svg>
