<?xml version="1.0" encoding="utf-8"?>
<!-- Generator: Adobe Illustrator 17.0.0, SVG Export Plug-In . SVG Version: 6.00 Build 0)  -->
<!DOCTYPE svg PUBLIC "-//W3C//DTD SVG 1.1//EN" "http://www.w3.org/Graphics/SVG/1.1/DTD/svg11.dtd">
<svg version="1.1" id="Layer_1" xmlns="http://www.w3.org/2000/svg" xmlns:xlink="http://www.w3.org/1999/xlink" x="0px" y="0px"
	 width="600px" height="19.542px" viewBox="0 0 600 19.542" enable-background="new 0 0 600 19.542" xml:space="preserve">
<rect x="0" y="0" fill="#EC6554" width="600" height="19.542"/>
<line fill="none" stroke="#9F9F9F" stroke-width="0.7" stroke-miterlimit="10" stroke-dasharray="6,3" x1="199.426" y1="0" x2="199.426" y2="19.542"/>
<line fill="none" stroke="#9F9F9F" stroke-width="0.7" stroke-miterlimit="10" stroke-dasharray="6,3" x1="440.97" y1="0" x2="440.97" y2="19.542"/>
<g>
	<g>
		<g>
			<rect x="451.885" y="8.771" fill="#FFFCEE" width="25.23" height="2"/>
		</g>
		<g>
			<g>
				<circle fill="#FFFCEE" cx="476.991" cy="9.771" r="2.481"/>
			</g>
		</g>
	</g>
</g>
<path fill="#FFFCEE" d="M67.679,7.405c-0.503-0.441-0.924-0.688-1.575-0.688c-0.733,0-1.182,0.364-1.182,1.04
	c0,1.56,3.694,1.248,3.694,3.874c0,1.235-0.761,2.146-2.105,2.379v1.339h-1.086v-1.3c-0.829-0.078-1.738-0.442-2.35-0.988
	l0.706-1.014c0.638,0.481,1.276,0.806,2.01,0.806c0.883,0,1.317-0.416,1.317-1.117c0-1.717-3.694-1.47-3.694-3.914
	c0-1.209,0.788-2.066,2.011-2.274V4.221h1.086v1.3c0.869,0.104,1.467,0.507,1.969,1.014L67.679,7.405z"/>
<path fill="#FFFCEE" d="M72.543,12.697h1.929V7.263h-1.589V6.327c0.855-0.156,1.453-0.364,1.996-0.677h1.168v7.047h1.697v1.222
	h-5.201V12.697z"/>
<path fill="#FFFCEE" d="M79.241,11.942c0.516,0.508,1.181,0.91,2.05,0.91c0.938,0,1.589-0.468,1.589-1.248
	c0-0.857-0.57-1.403-2.539-1.403V9.109c1.697,0,2.254-0.559,2.254-1.326c0-0.688-0.488-1.104-1.276-1.104
	c-0.679,0-1.208,0.312-1.738,0.78L78.78,6.535c0.733-0.623,1.562-1.039,2.594-1.039c1.656,0,2.798,0.779,2.798,2.184
	c0,0.923-0.57,1.547-1.508,1.898V9.63c1.019,0.26,1.793,0.962,1.793,2.054c0,1.508-1.372,2.393-3.029,2.393
	c-1.398,0-2.321-0.521-2.933-1.17L79.241,11.942z"/>
<path fill="#FFFCEE" d="M86.915,9.681V9.629c-0.665-0.455-1.194-1.066-1.194-1.937c0-1.339,1.113-2.196,2.607-2.196
	c1.548,0,2.539,0.896,2.539,2.235c0,0.819-0.598,1.509-1.154,1.898v0.052c0.802,0.429,1.494,1.04,1.494,2.146
	c0,1.273-1.168,2.249-2.92,2.249c-1.684,0-2.934-0.937-2.934-2.275C85.354,10.773,86.101,10.097,86.915,9.681z M88.315,13.009
	c0.828,0,1.426-0.468,1.426-1.235c0-0.896-0.91-1.222-2.078-1.677c-0.543,0.377-0.937,0.91-0.937,1.547
	C86.726,12.463,87.432,13.009,88.315,13.009z M89.577,7.821c0-0.728-0.476-1.261-1.276-1.261c-0.666,0-1.182,0.416-1.182,1.131
	c0,0.832,0.774,1.196,1.738,1.561C89.319,8.81,89.577,8.342,89.577,7.821z"/>
<path fill="#FFFCEE" d="M92.499,11.942c0.516,0.508,1.181,0.91,2.05,0.91c0.938,0,1.589-0.468,1.589-1.248
	c0-0.857-0.57-1.403-2.539-1.403V9.109c1.697,0,2.254-0.559,2.254-1.326c0-0.688-0.488-1.104-1.276-1.104
	c-0.679,0-1.208,0.312-1.738,0.78l-0.801-0.924c0.733-0.623,1.562-1.039,2.594-1.039c1.656,0,2.798,0.779,2.798,2.184
	c0,0.923-0.57,1.547-1.508,1.898V9.63c1.019,0.26,1.793,0.962,1.793,2.054c0,1.508-1.372,2.393-3.029,2.393
	c-1.398,0-2.321-0.521-2.933-1.17L92.499,11.942z"/>
<path fill="#FFFCEE" d="M99.536,12.229c0.326,0.364,0.855,0.624,1.385,0.624c1.087,0,1.97-0.767,2.037-3.055
	c-0.502,0.598-1.263,0.962-1.888,0.962c-1.48,0-2.512-0.832-2.512-2.562c0-1.65,1.235-2.703,2.716-2.703
	c1.684,0,3.123,1.248,3.123,4.029c0,3.212-1.616,4.551-3.395,4.551c-1.032,0-1.793-0.416-2.309-0.937L99.536,12.229z M102.917,8.719
	c-0.162-1.456-0.787-2.08-1.629-2.08c-0.706,0-1.29,0.559-1.29,1.56c0,0.976,0.502,1.482,1.371,1.482
	C101.859,9.681,102.443,9.408,102.917,8.719z"/>
<path fill="#FFFCEE" d="M105.323,15.466c0.869-0.325,1.371-0.91,1.371-1.573c-0.041,0-0.081,0-0.122,0
	c-0.529,0-1.005-0.338-1.005-0.923c0-0.559,0.476-0.923,1.046-0.923c0.733,0,1.168,0.572,1.168,1.534
	c0,1.273-0.774,2.262-2.119,2.704L105.323,15.466z"/>
<path fill="#FFFCEE" d="M109.562,12.229c0.326,0.364,0.855,0.624,1.385,0.624c1.087,0,1.97-0.767,2.037-3.055
	c-0.502,0.598-1.263,0.962-1.888,0.962c-1.48,0-2.512-0.832-2.512-2.562c0-1.65,1.235-2.703,2.716-2.703
	c1.684,0,3.123,1.248,3.123,4.029c0,3.212-1.616,4.551-3.395,4.551c-1.032,0-1.793-0.416-2.309-0.937L109.562,12.229z
	 M112.943,8.719c-0.162-1.456-0.787-2.08-1.629-2.08c-0.706,0-1.29,0.559-1.29,1.56c0,0.976,0.502,1.482,1.371,1.482
	C111.884,9.681,112.468,9.408,112.943,8.719z"/>
<path fill="#FFFCEE" d="M115.253,9.746c0-2.796,1.141-4.251,2.934-4.251s2.934,1.469,2.934,4.251c0,2.795-1.141,4.329-2.934,4.329
	S115.253,12.541,115.253,9.746z M119.626,9.746c0-2.341-0.598-3.081-1.439-3.081c-0.828,0-1.439,0.74-1.439,3.081
	c0,2.34,0.611,3.159,1.439,3.159C119.028,12.905,119.626,12.086,119.626,9.746z"/>
<path fill="#FFFCEE" d="M126.337,14.439v2.003h-1.562V7.536h1.29l0.109,0.676h0.054c0.557-0.455,1.276-0.832,2.01-0.832
	c1.657,0,2.621,1.273,2.621,3.25c0,2.184-1.371,3.445-2.852,3.445c-0.584,0-1.168-0.26-1.711-0.702L126.337,14.439z M127.682,12.84
	c0.883,0,1.562-0.754,1.562-2.197c0-1.273-0.435-2.028-1.439-2.028c-0.488,0-0.95,0.234-1.467,0.716v2.977
	C126.826,12.697,127.288,12.84,127.682,12.84z"/>
<path fill="#FFFCEE" d="M134.434,4.689h1.06L132.33,16h-1.06L134.434,4.689z"/>
<path fill="#FFFCEE" d="M139.012,7.38c0.855,0,1.508,0.325,1.956,0.741l-0.747,0.948c-0.354-0.299-0.706-0.468-1.127-0.468
	c-1.073,0-1.82,0.845-1.82,2.132c0,1.274,0.733,2.119,1.779,2.119c0.543,0,1.005-0.26,1.371-0.546l0.652,0.949
	c-0.625,0.533-1.426,0.819-2.187,0.819c-1.82,0-3.219-1.223-3.219-3.342C135.671,8.602,137.233,7.38,139.012,7.38z"/>
<circle fill="none" stroke="#FFFCEE" stroke-miterlimit="10" cx="259.817" cy="9.771" r="7.049"/>
<path fill="#FFFCEE" d="M279.874,5.443h3.028c1.847,0,3.272,0.48,3.272,2.105c0,0.754-0.461,1.574-1.493,1.834v0.051
	c1.263,0.223,1.928,0.859,1.928,1.99c0,1.729-1.521,2.496-3.449,2.496h-3.286V5.443z M282.808,8.861
	c0.978,0,1.412-0.402,1.412-1.039s-0.462-0.896-1.386-0.896h-0.95v1.936h0.924V8.861z M282.997,12.438
	c1.087,0,1.657-0.391,1.657-1.156c0-0.742-0.557-1.066-1.657-1.066h-1.113v2.223L282.997,12.438L282.997,12.438z"/>
<path fill="#FFFCEE" d="M287.862,7.471h1.63l0.136,1.131h0.054c0.489-0.871,1.223-1.287,1.915-1.287c0.38,0,0.611,0.053,0.802,0.131
	l-0.326,1.65c-0.244-0.064-0.448-0.104-0.733-0.104c-0.503,0-1.127,0.312-1.48,1.184v3.744h-1.996V7.471H287.862z"/>
<path fill="#FFFCEE" d="M296.351,9.772c-0.04-0.57-0.339-0.936-1.059-0.936c-0.57,0-1.141,0.221-1.793,0.586l-0.706-1.262
	c0.855-0.494,1.819-0.846,2.879-0.846c1.725,0,2.676,0.937,2.676,2.912v3.693h-1.63l-0.149-0.664h-0.041
	c-0.57,0.482-1.208,0.82-1.969,0.82c-1.223,0-1.996-0.859-1.996-1.951C292.563,10.774,293.69,10.033,296.351,9.772z M295.237,12.594
	c0.462,0,0.761-0.209,1.113-0.547v-1.131c-1.426,0.182-1.888,0.572-1.888,1.066C294.463,12.399,294.762,12.594,295.237,12.594z"/>
<path fill="#FFFCEE" d="M299.626,12.893l2.825-3.926h-2.513V7.471h4.998v1.014l-2.825,3.939h2.92v1.496h-5.405V12.893z"/>
<path fill="#FFFCEE" d="M306.011,5.522c0-0.586,0.489-0.988,1.154-0.988c0.679,0,1.154,0.402,1.154,0.988c0,0.584-0.476,1-1.154,1
	C306.5,6.522,306.011,6.106,306.011,5.522z M306.174,7.471h1.996v6.449h-1.996V7.471z"/>
<path fill="#FFFCEE" d="M309.856,4.807h1.996v7.189c0,0.402,0.19,0.533,0.354,0.533c0.081,0,0.136,0,0.244-0.027l0.244,1.418
	c-0.217,0.09-0.557,0.156-1.005,0.156c-1.371,0-1.833-0.859-1.833-2.158L309.856,4.807L309.856,4.807z"/>
<path fill="#EC6554" d="M230.466,11.943h-0.991v1.977h-1.861v-1.977h-3.734v-1.312l3.15-4.967h2.445v4.824h0.991L230.466,11.943
	L230.466,11.943z M227.613,10.488v-1.34c0-0.533,0.055-1.326,0.082-1.846h-0.055c-0.217,0.455-0.462,0.922-0.706,1.391l-1.141,1.795
	H227.613z"/>
<g>
	<g>
		<g>
			<g>
				<g>
					<defs>
						<circle id="SVGID_1_" cx="259.817" cy="9.771" r="7.049"/>
					</defs>
					<clipPath id="SVGID_2_">
						<use xlink:href="#SVGID_1_"  overflow="visible"/>
					</clipPath>
					<g clip-path="url(#SVGID_2_)">
						<g>
							<path fill="#F0EFF0" d="M270.15,2.578c0.1,0.053,0.045,0.145,0.045,0.216c0.003,3.937,0.003,7.874,0.003,11.812
								c0,0.775-0.005,1.549,0.004,2.324c0.002,0.155-0.042,0.181-0.186,0.181c-2.356-0.005-4.712-0.003-7.068-0.003
								c-4.392,0-8.785,0-13.177-0.005c-0.06,0-0.207,0.099-0.192-0.091c0.116-0.102,0.258-0.069,0.391-0.069
								c3.595-0.002,7.19-0.001,10.786-0.001c2.98,0,5.96,0.001,8.94-0.002c0.119,0,0.262,0.052,0.347-0.091
								c0.054-0.114,0.037-0.236,0.037-0.354c0.001-4.476,0-8.953,0.001-13.429c0-0.135-0.014-0.271,0.018-0.405
								C270.112,2.629,270.129,2.603,270.15,2.578z"/>
							<path fill="#112718" d="M270.141,16.915c0.005,0.047-0.012,0.075-0.064,0.075c-0.072,0-0.144,0-0.216,0
								c-6.666,0-13.332,0-19.999,0.001c-0.094,0-0.192-0.021-0.284,0.02c0-0.016,0-0.032,0-0.048c0.024-0.043,0.053-0.08,0.1-0.101
								c0.123-0.047,0.252-0.036,0.379-0.036c6.55-0.001,13.099-0.001,19.649,0c0.119,0,0.24-0.01,0.356,0.033
								C270.093,16.873,270.119,16.892,270.141,16.915z"/>
							<path fill="#112718" d="M270.15,2.578c-0.003,0.016-0.006,0.032-0.009,0.048c-0.023,0.023-0.049,0.042-0.078,0.056
								c-0.115,0.044-0.236,0.033-0.356,0.033c-6.551,0.001-13.103,0.001-19.654,0c-0.135,0-0.273,0.016-0.399-0.054
								c-0.03-0.021-0.038-0.048-0.027-0.082C256.469,2.578,263.309,2.578,270.15,2.578z"/>
							<path fill="#112718" d="M249.628,2.578c0.001,0.018,0.001,0.036,0.002,0.053c0.121,0.135,0.086,0.302,0.086,0.458
								c0.002,2.738,0.002,5.476,0.002,8.214c0,1.724,0.001,3.448-0.001,5.173c0,0.148,0.03,0.307-0.087,0.434
								c-0.017,0.018-0.033,0.036-0.05,0.053c0-4.723,0-9.446,0.003-14.169C249.583,2.724,249.527,2.632,249.628,2.578z"/>
							<path fill="#1B7735" d="M270.098,2.633c0.014-0.005,0.028-0.007,0.043-0.007c0.002,0.056,0.007,0.111,0.007,0.167
								c0,4.652,0,9.303,0,13.955c0,0.056-0.004,0.111-0.007,0.167c-0.015,0-0.029-0.002-0.043-0.007
								c-0.105-0.112-0.084-0.253-0.085-0.386c-0.003-0.886-0.001-1.772-0.001-2.657c0-3.583-0.001-7.166,0.002-10.749
								C270.014,2.952,269.974,2.777,270.098,2.633z"/>
							<path fill="#239E46" d="M270.098,2.633c0.001,2.754,0.003,5.509,0.004,8.263c0,2.004-0.002,4.008-0.004,6.012
								c-0.072,0.002-0.144,0.007-0.215,0.007c-6.679,0-13.359,0-20.038,0c-0.072,0-0.144-0.003-0.215-0.005
								c0-4.759,0-9.519,0-14.278c0.08-0.002,0.16-0.005,0.239-0.005c6.663,0,13.327,0,19.99,0
								C269.939,2.627,270.019,2.631,270.098,2.633z"/>
							<path fill="#F0E528" d="M268.511,9.807c-0.5,0.322-1.001,0.647-1.503,0.97c-2.317,1.489-4.634,2.976-6.949,4.468
								c-0.132,0.085-0.227,0.098-0.364,0.009c-2.784-1.796-5.571-3.587-8.357-5.379c-0.033-0.021-0.065-0.046-0.128-0.091
								c0.122-0.08,0.23-0.152,0.339-0.222c2.706-1.74,5.414-3.477,8.116-5.223c0.162-0.105,0.264-0.095,0.418,0.005
								c2.75,1.774,5.504,3.542,8.257,5.312C268.401,9.694,268.472,9.719,268.511,9.807z"/>
							<path fill="#3C5BA4" d="M263.379,10.982c-0.4,1.131-1.192,1.875-2.32,2.227c-2.111,0.658-4.272-0.67-4.66-2.842
								c-0.103-0.577-0.088-1.154,0.138-1.71c0.208-0.128,0.438-0.054,0.656-0.059c0.839-0.021,1.672,0.041,2.482,0.275
								c0.622,0.179,1.212,0.44,1.774,0.762c0.073,0.039,0.146,0.078,0.214,0.126c0.035,0.023,0.07,0.047,0.107,0.069
								c0.052,0.03,0.104,0.061,0.154,0.094c0.034,0.021,0.069,0.042,0.103,0.064c0.076,0.054,0.159,0.097,0.24,0.141
								c0.24,0.172,0.479,0.344,0.718,0.516C263.113,10.759,263.275,10.837,263.379,10.982z"/>
							<path fill="#3C5BA4" d="M256.743,8.105c0.7-1.288,1.78-1.974,3.249-1.98c1.812-0.007,3.314,1.299,3.58,3.09
								c0.058,0.39,0.084,0.791-0.048,1.179c-0.143,0.018-0.199-0.116-0.3-0.17c-0.896-0.736-1.894-1.292-2.993-1.658
								c-0.749-0.25-1.521-0.398-2.316-0.407c-0.324-0.004-0.647-0.075-0.971-0.001C256.875,8.173,256.801,8.16,256.743,8.105z"/>
							<path fill="#FEFEFE" d="M256.743,8.105c1.422-0.117,2.798,0.069,4.119,0.619c0.769,0.321,1.489,0.729,2.147,1.241
								c0.098,0.076,0.217,0.135,0.275,0.256c0.001,0.023-0.009,0.04-0.029,0.051c-0.089,0.02-0.192-0.025-0.268,0.058
								c-0.038,0.023-0.078,0.041-0.125,0.033c-0.033-0.012-0.056-0.034-0.072-0.065c-0.019-0.054-0.002-0.104,0.014-0.154
								c0.015-0.044-0.007-0.066-0.047-0.079c-0.019-0.006-0.036-0.014-0.054-0.023c-0.076-0.033-0.116-0.104-0.172-0.159
								c-0.017-0.009-0.034-0.019-0.052-0.028c-0.053-0.019-0.098-0.009-0.134,0.034c-0.011,0.016-0.024,0.031-0.035,0.047
								c-0.058,0.055-0.024,0.129-0.04,0.192c-0.007,0.02-0.02,0.035-0.038,0.045c-0.087-0.043-0.174-0.087-0.242-0.16
								c-0.005-0.043-0.031-0.081-0.035-0.125c-0.005-0.045,0-0.087,0.028-0.125c0.038-0.046,0.121-0.025,0.14-0.097
								c-0.019-0.12-0.106-0.057-0.166-0.063c-0.035-0.003-0.062-0.02-0.084-0.046c-0.041-0.06-0.074-0.128-0.146-0.159
								c-0.075-0.032-0.116,0.01-0.149,0.068c-0.04,0.06-0.056,0.129-0.068,0.199c-0.008,0.019-0.02,0.036-0.037,0.049
								c-0.619-0.338-1.261-0.624-1.942-0.81c-0.918-0.25-1.859-0.262-2.801-0.245c-0.063,0.001-0.127-0.004-0.19-0.006
								C256.552,8.453,256.642,8.277,256.743,8.105z"/>
							<path fill="#F8FAFA" d="M263.248,10.25c0.016-0.006,0.028-0.015,0.036-0.029c0.113,0.011,0.152,0.126,0.24,0.172
								c0.02,0.213-0.122,0.386-0.145,0.588c-0.18-0.042-0.29-0.186-0.424-0.294c-0.011-0.012-0.017-0.024-0.016-0.038
								c0-0.014,0.002-0.022,0.005-0.022c0.065-0.081,0.214-0.066,0.232-0.201c0.002-0.033,0.007-0.065,0.015-0.097
								C263.201,10.297,263.221,10.271,263.248,10.25z"/>
							<path fill="#F4F7F8" d="M262.96,10.628c-0.001,0.02-0.003,0.04-0.004,0.06c-0.241-0.171-0.482-0.342-0.723-0.513
								c0.002-0.023,0.005-0.047,0.007-0.07c0.015-0.015,0.032-0.024,0.053-0.027c0.074,0.015,0.137-0.039,0.209-0.036
								c0.046,0.015,0.066,0.053,0.083,0.094c0.026,0.132,0.113,0.173,0.237,0.161c0.014,0.018,0.029,0.037,0.043,0.055
								c0.034,0.026,0.051,0.063,0.063,0.102C262.938,10.513,262.989,10.563,262.96,10.628z"/>
							<path fill="#D0D5E9" d="M260.044,11.495c-0.102,0.031-0.09-0.085-0.107-0.13c-0.028-0.074,0.093-0.053,0.111-0.113
								c0.044,0.034,0.088,0.068,0.133,0.103C260.138,11.397,260.161,11.5,260.044,11.495z"/>
							<path fill="#CAD0E6" d="M258.648,9.99c-0.133,0.051-0.094-0.058-0.109-0.099c-0.032-0.086,0.067-0.107,0.105-0.116
								c0.043-0.011,0.115,0.046,0.11,0.102C258.749,9.932,258.76,10.047,258.648,9.99z"/>
							<path fill="#DBE0EE" d="M256.97,8.963c0.062,0.056,0.104,0.094,0.146,0.132c-0.067,0.014,0.015,0.135-0.113,0.132
								c-0.117-0.004-0.123-0.086-0.135-0.139C256.855,9.028,256.992,9.071,256.97,8.963z"/>
							<path fill="#D8DDEC" d="M258.768,11.689c-0.055,0.029,0.024,0.133-0.104,0.12c-0.086-0.009-0.11-0.018-0.125-0.1
								c-0.017-0.094,0.069-0.109,0.106-0.118C258.693,11.579,258.736,11.641,258.768,11.689z"/>
							<path fill="#D4D9EB" d="M257.314,10.712c-0.12,0.05-0.087-0.071-0.101-0.104c-0.04-0.095,0.101-0.068,0.116-0.138
								c0.011,0.062,0.118,0.064,0.094,0.143C257.407,10.664,257.405,10.745,257.314,10.712z"/>
							<path fill="#DADFEE" d="M259.872,10.244c0.003-0.067,0.07-0.101,0.115-0.105c0.05-0.005,0.122,0.045,0.113,0.102
								c-0.007,0.044,0.001,0.123-0.118,0.12C259.87,10.359,259.913,10.287,259.872,10.244z"/>
							<path fill="#F8FAFB" d="M261.897,9.52c0.017,0.019,0.033,0.039,0.05,0.058c0.051,0.091-0.015,0.153-0.053,0.223
								c-0.039,0.039-0.067,0.102-0.142,0.069c-0.029-0.017-0.059-0.035-0.088-0.052c0-0.03,0.005-0.059,0.015-0.088
								c0.026-0.065,0.035-0.14,0.097-0.187C261.814,9.52,261.852,9.504,261.897,9.52z"/>
							<path fill="#E1E4F1" d="M262.544,10.885c0.041,0.051,0.097,0.091,0.101,0.136c0.004,0.04,0.004,0.115-0.101,0.115
								c-0.078,0-0.069-0.02-0.092-0.073C262.403,10.952,262.533,10.964,262.544,10.885z"/>
							<path fill="#E8EBF5" d="M261.213,12.294c-0.084,0.019-0.09,0.176-0.207,0.116c-0.013-0.007-0.085-0.081-0.017-0.149
								C261.088,12.163,261.143,12.25,261.213,12.294z"/>
							<path fill="#FFFFFF" d="M261.711,9.781c-0.016,0.012-0.031,0.025-0.047,0.037c-0.064-0.034-0.128-0.067-0.193-0.101
								c0.001-0.016,0.001-0.032,0.002-0.048c0.023-0.058,0.052-0.111,0.124-0.119C261.746,9.573,261.7,9.691,261.711,9.781z"/>
							<path fill="#FEFEFE" d="M261,9.662c-0.023,0.019,0.028,0.096-0.053,0.082c-0.066-0.011-0.116-0.053-0.108-0.12
								c0.004-0.03,0.058-0.054,0.09-0.08C260.948,9.585,261.051,9.571,261,9.662z"/>
							<path fill="#C6CDE4" d="M256.819,11.016c-0.064-0.007-0.07-0.062-0.067-0.104c0.002-0.042,0.05-0.062,0.088-0.057
								c0.054,0.007,0.074,0.049,0.064,0.102C256.895,11.005,256.861,11.018,256.819,11.016z"/>
							<path fill="#E6EAF4" d="M259.669,10.512c0.046,0.027,0.094,0.029,0.087,0.082c-0.006,0.047-0.014,0.092-0.081,0.08
								c-0.047-0.008-0.07-0.035-0.058-0.078C259.626,10.565,259.652,10.539,259.669,10.512z"/>
							<path fill="#D3D8EB" d="M260.47,10.685c-0.001,0.002-0.014,0.059-0.075,0.038c-0.03-0.01-0.064-0.055-0.066-0.086
								c-0.003-0.052,0.037-0.085,0.093-0.068C260.452,10.578,260.503,10.583,260.47,10.685z"/>
							<path fill="#D3D8EB" d="M258.005,11.322c-0.002,0.046-0.026,0.074-0.068,0.082c-0.047,0.009-0.076-0.022-0.086-0.061
								c-0.012-0.049,0.028-0.069,0.066-0.078C257.963,11.254,257.987,11.286,258.005,11.322z"/>
							<path fill="#90A2CB" d="M263.041,11.008c-0.002,0.043-0.033,0.048-0.065,0.046c-0.038-0.003-0.054-0.029-0.053-0.064
								c0.001-0.04,0.028-0.053,0.063-0.048C263.021,10.948,263.038,10.973,263.041,11.008z"/>
							<path fill="#9EADD1" d="M258.123,11.022c-0.073-0.006-0.099-0.021-0.082-0.06c0.018-0.041,0.032-0.094,0.096-0.081
								c0.024,0.005,0.042,0.017,0.034,0.049C258.16,10.977,258.154,11.027,258.123,11.022z"/>
							<path fill="#EBF1F3" d="M261.752,9.871c0.029-0.033,0.059-0.067,0.088-0.1c0.068,0.018,0.087,0.07,0.093,0.132
								c-0.003,0.024-0.013,0.044-0.03,0.061C261.841,9.951,261.791,9.92,261.752,9.871z"/>
							<path fill="#DAE0EE" d="M262.431,11.678c-0.07-0.001-0.071-0.071-0.066-0.099c0.011-0.06,0.071-0.032,0.113-0.031
								C262.527,11.615,262.489,11.65,262.431,11.678z"/>
							<path fill="#FFFFFF" d="M261.903,9.963c0-0.018,0.001-0.035,0.001-0.053c0.035-0.026,0.068-0.024,0.1,0.006
								c0.047,0.041,0.033,0.072-0.014,0.099C261.961,9.998,261.932,9.981,261.903,9.963z"/>
							<path fill="#C2CAE2" d="M261.934,12.068c-0.012,0.033-0.035,0.055-0.071,0.048c-0.035-0.007-0.057-0.034-0.04-0.069
								c0.009-0.018,0.036-0.039,0.054-0.039C261.908,12.009,261.936,12.028,261.934,12.068z"/>
							<path fill="#C9D0E6" d="M262.431,11.678c0.016-0.043,0.031-0.086,0.047-0.13c0.051-0.003,0.063,0.016,0.053,0.068
								C262.518,11.681,262.482,11.686,262.431,11.678z"/>
							<path fill="#CBD1E7" d="M262.243,11.708c-0.003,0.044-0.017,0.073-0.055,0.067c-0.017-0.003-0.04-0.026-0.043-0.043
								c-0.006-0.035,0.017-0.061,0.054-0.057C262.216,11.677,262.231,11.698,262.243,11.708z"/>
							<path fill="#DBDFEE" d="M261.133,8.491c0.033,0.053,0.129,0.047,0.102,0.14c-0.017,0.06-0.021,0.091-0.111,0.096
								c-0.115,0.006-0.096-0.077-0.101-0.114C261.015,8.55,261.087,8.527,261.133,8.491z"/>
							<path fill="#2FA451" d="M262.821,10.298c-0.162,0.147-0.208,0.126-0.293-0.137c0.058-0.06,0.04-0.206,0.188-0.165
								c0.016,0.006,0.032,0.011,0.049,0.017c0.045,0.04,0.087,0.083,0.106,0.143C262.848,10.201,262.796,10.236,262.821,10.298z"/>
							<path fill="#42A655" d="M259.98,8.857c-0.029,0.003-0.065,0.055-0.079,0.022c-0.044-0.103,0.018-0.205,0.058-0.287
								c0.033-0.068,0.136-0.005,0.209,0.017c0.134,0.039,0.041,0.128,0.052,0.193C260.154,8.877,260.051,8.8,259.98,8.857z"/>
							<path fill="#3FA655" d="M257.945,8.177c0.151-0.007,0.203,0.107,0.208,0.212c0.005,0.104-0.063,0.19-0.196,0.191
								c-0.115,0.001-0.169-0.043-0.135-0.156C257.848,8.336,257.753,8.18,257.945,8.177z"/>
							<path fill="#49AB5F" d="M258.358,8.46c-0.012,0.138,0.145,0.042,0.178,0.145c-0.091,0.048-0.209,0.047-0.265-0.017
								c-0.074-0.084-0.037-0.228,0.002-0.315c0.049-0.108,0.171-0.04,0.265-0.028c-0.01,0.116-0.109,0.068-0.169,0.115
								c0.054,0.011,0.091,0.019,0.129,0.027C258.495,8.497,258.402,8.431,258.358,8.46z"/>
							<path fill="#46AA5D" d="M262.004,9.916c-0.033-0.002-0.067-0.004-0.1-0.006c-0.018-0.048-0.072-0.08-0.064-0.14
								c0.036-0.064,0.071-0.128,0.107-0.192c0.059-0.095,0.129-0.095,0.209-0.025c0.039,0.034,0.141,0.049,0.03,0.12
								c-0.039,0.068-0.145,0.022-0.176,0.103C262.008,9.823,262.006,9.869,262.004,9.916z"/>
							<path fill="#3FA656" d="M258.885,8.629c-0.017,0.053-0.051,0.062-0.098,0.036c-0.027-0.139-0.069,0.003-0.103-0.005
								c-0.103-0.116-0.011-0.231,0.002-0.346c0.004-0.036,0.031-0.05,0.068-0.042c0.115,0.027,0.068,0.123,0.083,0.193
								C258.898,8.507,258.934,8.555,258.885,8.629z"/>
							<path fill="#34A34F" d="M261.711,9.781c-0.102-0.027,0.027-0.22-0.142-0.198c-0.058-0.036-0.024-0.099-0.042-0.146
								c0.052-0.094,0.092-0.218,0.231-0.09c0.01,0.076,0.057,0.144,0.048,0.224C261.706,9.61,261.813,9.742,261.711,9.781z"/>
							<path fill="#47AA5C" d="M258.885,8.629c-0.016-0.055-0.032-0.109-0.048-0.164c0.049-0.008,0.048-0.056,0.069-0.087
								c0.027-0.04,0.047-0.088,0.107-0.069c0.073,0.023,0.06,0.081,0.048,0.137c-0.011,0.054-0.026,0.108-0.031,0.163
								C259.009,8.821,258.938,8.656,258.885,8.629z"/>
							<path fill="#38A452" d="M257.656,8.327c0.008,0.059,0.017,0.119,0.026,0.184c-0.106,0.029-0.099-0.093-0.166-0.104
								c-0.047,0.028-0.014,0.11-0.1,0.133c-0.04-0.136-0.056-0.265,0.028-0.393c0.036,0.02,0.074,0.038,0.101,0.071
								C257.573,8.263,257.63,8.279,257.656,8.327z"/>
							<path fill="#3AA553" d="M260.394,8.917c-0.034,0.053-0.02,0.153-0.13,0.131c0.045-0.364,0.08-0.402,0.295-0.324
								c0.015,0.03-0.002,0.052-0.018,0.074c-0.022,0.028-0.038,0.06-0.051,0.094c-0.009,0.017-0.022,0.029-0.04,0.037
								C260.431,8.924,260.412,8.919,260.394,8.917z"/>
							<path fill="#239E46" d="M256.959,8.478c-0.066-0.134-0.113-0.266,0.076-0.338c0.069-0.026,0.156-0.018,0.191,0.051
								c0.046,0.093,0.076,0.201-0.02,0.291c-0.019-0.012-0.033-0.028-0.044-0.048c-0.023-0.033-0.015-0.103-0.069-0.095
								c-0.047,0.006-0.035,0.073-0.054,0.11C257.02,8.48,256.999,8.504,256.959,8.478z"/>
							<path fill="#F5FAF6" d="M260.946,9.191c-0.019,0.038-0.053,0.05-0.092,0.053c-0.128-0.059-0.163-0.142-0.071-0.261
								c0.082-0.07,0.157-0.057,0.228,0.018C261.044,9.083,261.02,9.145,260.946,9.191z"/>
							<path fill="#E8F3EB" d="M261.319,9.152c0.022,0,0.044,0.001,0.066,0.001c0.04,0.045,0.083,0.088,0.128,0.128
								c-0.017,0.02-0.034,0.041-0.051,0.061c-0.045,0.051-0.142,0.034-0.159,0.122c-0.051,0.018-0.093,0.003-0.132-0.03
								C261.1,9.277,261.173,9.195,261.319,9.152z"/>
							<path fill="#61B473" d="M259.367,8.729c0.006-0.122-0.011-0.223,0.107-0.255c0.038-0.01,0.112-0.008,0.114,0.051
								C259.592,8.651,259.492,8.686,259.367,8.729z"/>
							<path fill="#F2F8F4" d="M262.717,9.996c-0.133-0.025-0.051,0.195-0.188,0.165c-0.002-0.04-0.01-0.077-0.045-0.102
								c-0.03-0.022-0.036-0.053-0.03-0.087c0.021-0.065,0.076-0.103,0.118-0.152C262.634,9.867,262.636,9.964,262.717,9.996z"/>
							<path fill="#239E46" d="M262.288,9.864c0.05-0.179,0.152-0.091,0.245-0.048c-0.007,0.04-0.008,0.082-0.04,0.113
								c-0.039,0.021-0.035,0.076-0.076,0.096C262.305,10.027,262.321,9.925,262.288,9.864z"/>
							<path fill="#239E46" d="M261.319,9.152c-0.096,0.066-0.164,0.146-0.131,0.274c0.018,0.023,0.016,0.045-0.006,0.064
								c-0.086-0.075-0.117-0.155-0.065-0.27C261.164,9.112,261.247,9.159,261.319,9.152z"/>
							<path fill="#41A756" d="M261.805,9.57c-0.064-0.064-0.187-0.116-0.048-0.224c0.104,0.011,0.139,0.078,0.14,0.173
								C261.866,9.536,261.836,9.553,261.805,9.57z"/>
							<path fill="#54AF68" d="M263.248,10.25c-0.003,0.028-0.005,0.055-0.008,0.083c-0.065,0.093-0.152,0.039-0.232,0.035
								c-0.031-0.015-0.052-0.039-0.057-0.074C263.032,10.159,263.14,10.205,263.248,10.25z"/>
							<path fill="#239E46" d="M260.804,9.011c-0.118,0.106,0.019,0.158,0.05,0.233c-0.188-0.005-0.205-0.052-0.108-0.292
								C260.801,8.936,260.814,8.962,260.804,9.011z"/>
							<path fill="#5AAF68" d="M262.01,9.776c-0.003-0.14,0.091-0.114,0.176-0.103C262.21,9.851,262.107,9.808,262.01,9.776z"/>
							<path fill="#42A95B" d="M260.499,8.771c0.02-0.016,0.04-0.032,0.059-0.047c0.156,0.076,0.13,0.154,0.003,0.234
								c-0.042,0.003-0.073-0.015-0.096-0.05c0-0.013-0.001-0.026-0.001-0.04C260.541,8.86,260.502,8.809,260.499,8.771z"/>
							<path fill="#44A95A" d="M260.465,8.908c0.04,0.002,0.075,0.012,0.096,0.05c-0.019,0.058,0.038,0.117-0.006,0.182
								c-0.123-0.026-0.077-0.174-0.161-0.223C260.417,8.914,260.441,8.911,260.465,8.908z"/>
							<path fill="#239E46" d="M260.946,9.191c0.02-0.059,0.068-0.111,0.043-0.18c-0.021-0.023-0.019-0.045,0.006-0.064
								C261.114,9.048,261.099,9.126,260.946,9.191z"/>
							<path fill="#4FAD63" d="M257.491,8.236c-0.016-0.03-0.032-0.059-0.047-0.089c0.077,0.017,0.187-0.064,0.226,0.073
								C257.617,8.299,257.555,8.282,257.491,8.236z"/>
							<path fill="#239E46" d="M262.95,10.294c0.019,0.019,0.039,0.039,0.058,0.058c0.025,0.063,0.002,0.112-0.044,0.154
								c-0.035,0.016-0.066,0.01-0.094-0.016c-0.002-0.045-0.004-0.091-0.006-0.136C262.893,10.333,262.922,10.314,262.95,10.294z"
								/>
							<path fill="#239E46" d="M261.527,9.437c0.048,0.039,0.039,0.094,0.042,0.146c-0.023,0.038-0.042,0.081-0.095,0.086
								C261.399,9.57,261.502,9.513,261.527,9.437z"/>
							<path fill="#63B472" d="M262.871,10.156c-0.104,0.003-0.106-0.069-0.106-0.143c0.05,0.005,0.112-0.026,0.144,0.035
								C262.932,10.091,262.933,10.137,262.871,10.156z"/>
							<path fill="#239E46" d="M261.181,9.49c0.002-0.021,0.004-0.043,0.006-0.064c0.043,0.001,0.085,0.002,0.128,0.003
								c0.05-0.011,0.071,0.007,0.062,0.058C261.313,9.54,261.248,9.548,261.181,9.49z"/>
							<path fill="#54AE65" d="M261.377,9.486c-0.021-0.019-0.041-0.039-0.062-0.058c-0.029-0.161,0.091-0.069,0.147-0.086
								C261.457,9.404,261.448,9.464,261.377,9.486z"/>
							<path fill="#59B16C" d="M262.282,10.113c-0.014-0.004-0.028-0.007-0.043-0.008c-0.024-0.075-0.116-0.166,0.048-0.195
								c0.03,0.044,0.063,0.086,0.066,0.143C262.34,10.086,262.317,10.106,262.282,10.113z"/>
							<path fill="#D3E8D7" d="M257.491,8.236c0.06-0.005,0.119-0.011,0.179-0.016c0.014,0.038,0.025,0.076-0.014,0.107
								C257.589,8.318,257.497,8.354,257.491,8.236z"/>
							<path fill="#63B472" d="M261.513,9.281c-0.121,0.036-0.127-0.044-0.128-0.128C261.491,9.132,261.497,9.211,261.513,9.281z"/>
							<path fill="#35A451" d="M257.2,8.42c0.002,0.021,0.004,0.042,0.006,0.063c-0.084,0.097-0.165,0.07-0.246-0.004
								c0.017-0.016,0.034-0.031,0.052-0.047C257.071,8.384,257.135,8.395,257.2,8.42z"/>
							<path fill="#4AAA5E" d="M260.994,8.946c-0.002,0.021-0.004,0.043-0.006,0.064c-0.061-0.053-0.123-0.047-0.184,0
								c-0.02-0.02-0.039-0.039-0.059-0.059C260.827,8.89,260.909,8.852,260.994,8.946z"/>
							<path fill="#42A95B" d="M262.472,9.918c0.005-0.043,0.02-0.081,0.062-0.102c0.013,0.001,0.026,0.002,0.039,0.004
								c0.025,0.084,0.001,0.137-0.092,0.146c-0.015-0.008-0.021-0.018-0.018-0.029C262.464,9.924,262.467,9.918,262.472,9.918z"/>
							<path fill="#D2E8D7" d="M262.334,10.059c-0.016-0.05-0.031-0.099-0.047-0.149c-0.004-0.016-0.003-0.031,0.002-0.046
								c0.045,0.052,0.091,0.104,0.136,0.157C262.423,10.102,262.379,10.082,262.334,10.059z"/>
							<path fill="#E9F2EC" d="M259.98,8.857c0.065-0.085,0.17,0.004,0.241-0.055C260.159,8.902,260.063,8.85,259.98,8.857z"/>
							<path fill="#4FAB60" d="M258.358,8.46c0.046-0.024,0.092-0.048,0.138-0.073c0.037,0.008,0.054,0.036,0.03,0.061
								C258.478,8.497,258.415,8.461,258.358,8.46z"/>
							<path fill="#9CCEA9" d="M258.685,8.66c0.024-0.046,0.048-0.093,0.087-0.168c0.007,0.076,0.011,0.125,0.015,0.173
								C258.754,8.664,258.72,8.662,258.685,8.66z"/>
							<path fill="#F3F9F4" d="M262.961,10.489c-0.022-0.059,0.021-0.095,0.047-0.137c0.072-0.073,0.153-0.025,0.232-0.019
								c0.002,0.037,0.003,0.073,0.005,0.11C263.157,10.498,263.088,10.672,262.961,10.489z"/>
							<path fill="#2FA451" d="M262.961,10.489c0.117,0.122,0.182-0.074,0.284-0.046c-0.016,0.183-0.145,0.193-0.286,0.185
								c-0.03-0.046-0.059-0.092-0.089-0.139C262.901,10.489,262.931,10.489,262.961,10.489z"/>
							<path fill="#239E46" d="M262.334,10.059c0.038,0.005,0.071-0.002,0.091-0.039c0.016-0.034,0.031-0.068,0.047-0.103
								c0.003,0.016,0.005,0.032,0.008,0.047c0.002,0.031,0.003,0.062,0.005,0.094c-0.052,0.076-0.105,0.145-0.202,0.054
								C262.299,10.095,262.316,10.077,262.334,10.059z"/>
							<path fill="#F4F9F5" d="M257.915,8.333c0.033-0.061,0.091-0.069,0.128-0.025c0.051,0.06,0.021,0.128-0.029,0.183
								C257.877,8.505,257.892,8.422,257.915,8.333z"/>
							<path fill="#49AA5D" d="M257.915,8.333c0.012,0.066-0.026,0.164,0.1,0.159c-0.043,0.034-0.09,0.045-0.122-0.007
								C257.861,8.433,257.871,8.379,257.915,8.333z"/>
							<path fill="#DCEDE0" d="M260.499,8.771c0.017,0.024,0.034,0.048,0.051,0.072c-0.029,0.008-0.057,0.016-0.086,0.024
								C260.39,8.805,260.421,8.78,260.499,8.771z"/>
							<path fill="#C3DEC2" d="M257.2,8.42c-0.06,0.053-0.123,0.06-0.189,0.011c-0.038-0.059-0.088-0.116-0.001-0.179
								c0.04-0.028,0.076-0.061,0.126-0.038C257.233,8.259,257.21,8.342,257.2,8.42z"/>
						</g>
					</g>
				</g>
			</g>
		</g>
	</g>
</g>
<circle fill="none" stroke="#FFFCEE" stroke-miterlimit="10" cx="259.817" cy="9.771" r="7.049"/>
<g>
	<path fill="#FFFCEE" d="M486.926,13.049c2.404-2.223,3.911-3.679,3.911-4.94c0-0.871-0.502-1.43-1.426-1.43
		c-0.665,0-1.222,0.429-1.684,0.923l-0.869-0.832c0.787-0.806,1.575-1.273,2.757-1.273c1.656,0,2.729,1.001,2.729,2.534
		c0,1.47-1.426,2.978-3.137,4.707c0.448-0.039,1.019-0.092,1.439-0.092h2.118v1.274h-5.84v-0.871H486.926z"/>
	<path fill="#FFFCEE" d="M493.678,15.467c0.869-0.325,1.371-0.91,1.371-1.573c-0.041,0-0.081,0-0.122,0
		c-0.529,0-1.005-0.338-1.005-0.923c0-0.559,0.476-0.923,1.046-0.923c0.733,0,1.168,0.572,1.168,1.534
		c0,1.273-0.774,2.262-2.119,2.704L493.678,15.467z"/>
	<path fill="#FFFCEE" d="M497.509,11.943c0.516,0.508,1.181,0.91,2.05,0.91c0.938,0,1.589-0.468,1.589-1.248
		c0-0.857-0.57-1.403-2.539-1.403V9.109c1.697,0,2.254-0.559,2.254-1.326c0-0.688-0.488-1.104-1.276-1.104
		c-0.679,0-1.208,0.312-1.738,0.78l-0.801-0.924c0.733-0.623,1.562-1.039,2.594-1.039c1.656,0,2.798,0.779,2.798,2.184
		c0,0.923-0.571,1.547-1.508,1.898V9.63c1.019,0.26,1.793,0.962,1.793,2.054c0,1.508-1.372,2.393-3.028,2.393
		c-1.399,0-2.322-0.521-2.934-1.17L497.509,11.943z"/>
	<path fill="#FFFCEE" d="M507.751,6.913h-4.088V5.651h5.799v0.91c-2.023,2.405-2.377,4.134-2.526,7.358h-1.589
		C505.496,10.982,506.08,9.136,507.751,6.913z"/>
</g>
</svg>
