<?xml version="1.0" encoding="utf-8"?>
<!-- Generator: Adobe Illustrator 17.0.0, SVG Export Plug-In . SVG Version: 6.00 Build 0)  -->
<!DOCTYPE svg PUBLIC "-//W3C//DTD SVG 1.1//EN" "http://www.w3.org/Graphics/SVG/1.1/DTD/svg11.dtd">
<svg version="1.1" id="Layer_1" xmlns="http://www.w3.org/2000/svg" xmlns:xlink="http://www.w3.org/1999/xlink" x="0px" y="0px"
	 width="600px" height="19.542px" viewBox="0 0 600 19.542" enable-background="new 0 0 600 19.542" xml:space="preserve">
<rect x="138.753" y="2.722" fill="#EC6554" width="53.375" height="14.097"/>
<g>
	<rect x="448.356" y="8.771" fill="#EC6554" width="25.229" height="2"/>
</g>
<g>
	<g>
		<circle fill="#EC6554" cx="473.462" cy="9.771" r="2.481"/>
	</g>
</g>
<rect x="0" y="0" fill="none" width="600" height="19.542"/>
<line fill="none" stroke="#9F9F9F" stroke-width="0.7" stroke-miterlimit="10" stroke-dasharray="6,3" x1="199.426" y1="0" x2="199.426" y2="19.542"/>
<line fill="none" stroke="#9F9F9F" stroke-width="0.7" stroke-miterlimit="10" stroke-dasharray="6,3" x1="440.97" y1="0" x2="440.97" y2="19.542"/>
<g>
	<g>
		<g>
			<defs>
				<circle id="SVGID_1_" cx="259.927" cy="9.771" r="7.049"/>
			</defs>
			<clipPath id="SVGID_2_">
				<use xlink:href="#SVGID_1_"  overflow="visible"/>
			</clipPath>
			<g id="IAfi0h_1_" clip-path="url(#SVGID_2_)">
				<g>
					<g>
						<path fill="#F0EFF0" d="M270.26,2.578c0.1,0.053,0.045,0.145,0.045,0.216c0.003,3.937,0.003,7.874,0.003,11.812
							c0,0.775-0.005,1.549,0.004,2.324c0.002,0.155-0.042,0.181-0.186,0.181c-2.356-0.005-4.712-0.003-7.068-0.003
							c-4.392,0-8.785,0-13.177-0.005c-0.06,0-0.207,0.099-0.192-0.091c0.116-0.102,0.258-0.069,0.391-0.069
							c3.595-0.002,7.19-0.001,10.786-0.001c2.98,0,5.96,0.001,8.94-0.002c0.119,0,0.262,0.052,0.347-0.091
							c0.054-0.114,0.037-0.236,0.037-0.354c0.001-4.476,0-8.953,0.001-13.429c0-0.135-0.014-0.271,0.018-0.405
							C270.222,2.629,270.239,2.603,270.26,2.578z"/>
						<path fill="#112718" d="M270.251,16.915c0.005,0.047-0.012,0.075-0.064,0.075c-0.072,0-0.144,0-0.216,0
							c-6.666,0-13.332,0-19.999,0.001c-0.094,0-0.192-0.021-0.284,0.02c0-0.016,0-0.032,0-0.048c0.024-0.043,0.053-0.08,0.1-0.101
							c0.123-0.047,0.252-0.036,0.379-0.036c6.55-0.001,13.099-0.001,19.649,0c0.119,0,0.24-0.01,0.356,0.033
							C270.203,16.873,270.229,16.892,270.251,16.915z"/>
						<path fill="#112718" d="M270.26,2.578c-0.003,0.016-0.006,0.032-0.009,0.048c-0.023,0.023-0.049,0.042-0.078,0.056
							c-0.115,0.044-0.236,0.033-0.356,0.033c-6.551,0.001-13.103,0.001-19.654,0c-0.135,0-0.273,0.016-0.399-0.054
							c-0.03-0.021-0.038-0.048-0.027-0.082C256.578,2.578,263.419,2.578,270.26,2.578z"/>
						<path fill="#112718" d="M249.738,2.578c0.001,0.018,0.001,0.036,0.002,0.053c0.121,0.135,0.086,0.302,0.086,0.458
							c0.002,2.738,0.002,5.476,0.002,8.214c0,1.724,0.001,3.448-0.001,5.173c0,0.148,0.03,0.307-0.087,0.434
							c-0.017,0.018-0.033,0.036-0.05,0.053c0-4.723,0-9.446,0.003-14.169C249.693,2.724,249.637,2.632,249.738,2.578z"/>
						<path fill="#1B7735" d="M270.208,2.633c0.014-0.005,0.028-0.007,0.043-0.007c0.002,0.056,0.007,0.111,0.007,0.167
							c0,4.652,0,9.303,0,13.955c0,0.056-0.004,0.111-0.007,0.167c-0.015,0-0.029-0.002-0.043-0.007
							c-0.105-0.112-0.084-0.253-0.085-0.386c-0.003-0.886-0.001-1.772-0.001-2.657c0-3.583-0.001-7.166,0.002-10.749
							C270.124,2.952,270.084,2.777,270.208,2.633z"/>
						<path fill="#239E46" d="M270.208,2.633c0.001,2.754,0.003,5.509,0.004,8.263c0,2.004-0.002,4.008-0.004,6.012
							c-0.072,0.002-0.144,0.007-0.215,0.007c-6.679,0-13.359,0-20.038,0c-0.072,0-0.144-0.003-0.215-0.005
							c0-4.759,0-9.519,0-14.278c0.08-0.002,0.16-0.005,0.239-0.005c6.663,0,13.327,0,19.99,0
							C270.049,2.627,270.129,2.631,270.208,2.633z"/>
						<path fill="#F0E528" d="M268.621,9.807c-0.5,0.322-1.001,0.647-1.503,0.97c-2.317,1.489-4.634,2.976-6.949,4.468
							c-0.132,0.085-0.227,0.098-0.364,0.009c-2.784-1.796-5.571-3.587-8.357-5.379c-0.033-0.021-0.065-0.046-0.128-0.091
							c0.122-0.08,0.23-0.152,0.339-0.222c2.706-1.74,5.414-3.477,8.116-5.223c0.162-0.105,0.264-0.095,0.418,0.005
							c2.75,1.774,5.504,3.542,8.257,5.312C268.511,9.694,268.581,9.719,268.621,9.807z"/>
						<path fill="#3C5BA4" d="M263.489,10.982c-0.4,1.131-1.192,1.875-2.32,2.227c-2.111,0.658-4.272-0.67-4.66-2.842
							c-0.103-0.577-0.088-1.154,0.138-1.71c0.208-0.128,0.437-0.054,0.656-0.059c0.839-0.021,1.672,0.041,2.482,0.275
							c0.622,0.179,1.212,0.44,1.774,0.762c0.073,0.039,0.146,0.078,0.214,0.126c0.035,0.023,0.07,0.047,0.107,0.069
							c0.052,0.03,0.104,0.061,0.154,0.094c0.034,0.021,0.069,0.042,0.102,0.064c0.076,0.054,0.159,0.097,0.24,0.141
							c0.24,0.172,0.479,0.344,0.718,0.516C263.223,10.759,263.385,10.837,263.489,10.982z"/>
						<path fill="#3C5BA4" d="M256.853,8.105c0.7-1.288,1.78-1.974,3.249-1.98c1.812-0.007,3.314,1.299,3.58,3.09
							c0.058,0.39,0.084,0.791-0.048,1.179c-0.143,0.018-0.199-0.116-0.3-0.17c-0.896-0.736-1.894-1.292-2.993-1.658
							c-0.749-0.25-1.521-0.398-2.316-0.407c-0.324-0.004-0.647-0.075-0.971-0.001C256.985,8.173,256.911,8.16,256.853,8.105z"/>
						<path fill="#FEFEFE" d="M256.853,8.105c1.422-0.117,2.798,0.069,4.119,0.619c0.769,0.321,1.489,0.729,2.147,1.241
							c0.098,0.076,0.217,0.135,0.275,0.256c0.001,0.023-0.009,0.04-0.029,0.051c-0.089,0.02-0.192-0.025-0.268,0.058
							c-0.039,0.023-0.078,0.041-0.125,0.033c-0.033-0.012-0.056-0.034-0.072-0.065c-0.019-0.054-0.002-0.104,0.014-0.154
							c0.015-0.044-0.007-0.066-0.047-0.079c-0.019-0.006-0.036-0.014-0.054-0.023c-0.076-0.033-0.116-0.104-0.172-0.159
							c-0.017-0.009-0.034-0.019-0.052-0.028c-0.053-0.019-0.098-0.009-0.134,0.034c-0.011,0.016-0.024,0.031-0.035,0.047
							c-0.058,0.055-0.024,0.129-0.04,0.192c-0.007,0.02-0.02,0.035-0.038,0.045c-0.087-0.043-0.175-0.087-0.242-0.16
							c-0.005-0.043-0.031-0.081-0.035-0.125c-0.005-0.045,0-0.087,0.028-0.125c0.038-0.046,0.121-0.025,0.14-0.097
							c-0.019-0.12-0.106-0.057-0.166-0.063c-0.034-0.003-0.062-0.02-0.084-0.046c-0.041-0.06-0.074-0.128-0.146-0.159
							c-0.075-0.032-0.116,0.01-0.149,0.068c-0.04,0.06-0.056,0.129-0.068,0.199c-0.008,0.019-0.02,0.036-0.037,0.049
							c-0.619-0.338-1.261-0.624-1.942-0.81c-0.918-0.25-1.859-0.262-2.801-0.245c-0.063,0.001-0.127-0.004-0.19-0.006
							C256.662,8.453,256.752,8.277,256.853,8.105z"/>
						<path fill="#F8FAFA" d="M263.358,10.251c0.016-0.006,0.028-0.015,0.036-0.029c0.113,0.011,0.152,0.126,0.24,0.172
							c0.02,0.213-0.122,0.386-0.145,0.588c-0.18-0.042-0.29-0.186-0.424-0.294c-0.011-0.012-0.017-0.024-0.016-0.038
							c0-0.014,0.002-0.022,0.005-0.022c0.065-0.081,0.214-0.066,0.232-0.201c0.002-0.033,0.007-0.065,0.015-0.097
							C263.311,10.297,263.331,10.271,263.358,10.251z"/>
						<path fill="#F4F7F8" d="M263.07,10.628c-0.001,0.02-0.003,0.04-0.004,0.06c-0.241-0.171-0.482-0.342-0.723-0.513
							c0.002-0.023,0.005-0.047,0.007-0.07c0.015-0.015,0.032-0.024,0.053-0.027c0.074,0.015,0.137-0.039,0.209-0.036
							c0.046,0.015,0.066,0.053,0.083,0.094c0.026,0.132,0.113,0.173,0.237,0.161c0.014,0.018,0.029,0.037,0.043,0.055
							c0.034,0.026,0.051,0.063,0.063,0.102C263.048,10.513,263.099,10.563,263.07,10.628z"/>
						<path fill="#D0D5E9" d="M260.154,11.495c-0.102,0.031-0.09-0.085-0.107-0.13c-0.028-0.074,0.093-0.053,0.111-0.113
							c0.044,0.034,0.088,0.068,0.133,0.103C260.247,11.397,260.271,11.501,260.154,11.495z"/>
						<path fill="#CAD0E6" d="M258.758,9.99c-0.133,0.051-0.094-0.058-0.109-0.099c-0.032-0.086,0.067-0.107,0.105-0.116
							c0.043-0.011,0.115,0.046,0.11,0.102C258.859,9.932,258.87,10.047,258.758,9.99z"/>
						<path fill="#DBE0EE" d="M257.08,8.963c0.062,0.056,0.104,0.094,0.146,0.132c-0.067,0.014,0.015,0.135-0.113,0.132
							c-0.117-0.004-0.123-0.086-0.135-0.139C256.965,9.029,257.102,9.071,257.08,8.963z"/>
						<path fill="#D8DDEC" d="M258.878,11.689c-0.055,0.029,0.024,0.133-0.104,0.12c-0.086-0.009-0.11-0.018-0.125-0.1
							c-0.017-0.094,0.07-0.109,0.106-0.118C258.803,11.579,258.845,11.641,258.878,11.689z"/>
						<path fill="#D4D9EB" d="M257.424,10.712c-0.12,0.05-0.087-0.071-0.101-0.104c-0.04-0.095,0.101-0.068,0.116-0.138
							c0.011,0.062,0.118,0.064,0.094,0.143C257.517,10.664,257.515,10.745,257.424,10.712z"/>
						<path fill="#DADFEE" d="M259.982,10.244c0.003-0.067,0.07-0.101,0.115-0.105c0.05-0.005,0.122,0.045,0.113,0.102
							c-0.007,0.044,0.001,0.123-0.118,0.12C259.979,10.359,260.023,10.287,259.982,10.244z"/>
						<path fill="#F8FAFB" d="M262.007,9.52c0.017,0.019,0.033,0.039,0.05,0.058c0.051,0.091-0.015,0.153-0.053,0.223
							c-0.039,0.039-0.067,0.102-0.142,0.069c-0.029-0.017-0.059-0.035-0.088-0.052c-0.001-0.03,0.005-0.059,0.015-0.088
							c0.026-0.065,0.035-0.14,0.097-0.187C261.924,9.52,261.962,9.504,262.007,9.52z"/>
						<path fill="#E1E4F1" d="M262.654,10.885c0.041,0.051,0.097,0.091,0.101,0.136c0.004,0.04,0.004,0.115-0.101,0.115
							c-0.078,0-0.069-0.02-0.092-0.073C262.513,10.952,262.643,10.964,262.654,10.885z"/>
						<path fill="#E8EBF5" d="M261.323,12.294c-0.084,0.019-0.09,0.176-0.207,0.116c-0.013-0.007-0.085-0.081-0.017-0.149
							C261.198,12.163,261.253,12.25,261.323,12.294z"/>
						<path fill="#FFFFFF" d="M261.821,9.781c-0.016,0.012-0.031,0.025-0.047,0.037c-0.064-0.034-0.128-0.067-0.193-0.101
							c0.001-0.016,0.001-0.032,0.002-0.048c0.023-0.058,0.052-0.111,0.124-0.119C261.856,9.573,261.81,9.691,261.821,9.781z"/>
						<path fill="#FEFEFE" d="M261.11,9.662c-0.024,0.019,0.028,0.096-0.053,0.082c-0.066-0.011-0.116-0.053-0.108-0.12
							c0.004-0.03,0.058-0.054,0.09-0.08C261.058,9.586,261.161,9.571,261.11,9.662z"/>
						<path fill="#C6CDE4" d="M256.929,11.016c-0.064-0.007-0.07-0.062-0.067-0.104c0.002-0.042,0.05-0.062,0.088-0.057
							c0.054,0.007,0.074,0.049,0.064,0.102C257.005,11.005,256.971,11.018,256.929,11.016z"/>
						<path fill="#E6EAF4" d="M259.779,10.512c0.046,0.027,0.094,0.029,0.087,0.082c-0.006,0.047-0.014,0.092-0.081,0.08
							c-0.047-0.008-0.07-0.035-0.058-0.078C259.736,10.565,259.762,10.539,259.779,10.512z"/>
						<path fill="#D3D8EB" d="M260.58,10.685c-0.001,0.002-0.014,0.059-0.075,0.038c-0.03-0.01-0.064-0.055-0.066-0.086
							c-0.003-0.052,0.037-0.085,0.093-0.068C260.562,10.578,260.613,10.583,260.58,10.685z"/>
						<path fill="#D3D8EB" d="M258.115,11.322c-0.002,0.046-0.026,0.074-0.068,0.082c-0.047,0.009-0.076-0.022-0.086-0.061
							c-0.012-0.049,0.028-0.069,0.066-0.078C258.073,11.254,258.097,11.286,258.115,11.322z"/>
						<path fill="#90A2CB" d="M263.151,11.008c-0.002,0.043-0.033,0.048-0.065,0.046c-0.038-0.003-0.054-0.029-0.053-0.064
							c0.001-0.04,0.028-0.053,0.063-0.048C263.131,10.948,263.148,10.973,263.151,11.008z"/>
						<path fill="#9EADD1" d="M258.233,11.022c-0.073-0.006-0.099-0.021-0.082-0.06c0.018-0.041,0.032-0.094,0.097-0.081
							c0.024,0.005,0.042,0.017,0.034,0.049C258.27,10.977,258.264,11.027,258.233,11.022z"/>
						<path fill="#EBF1F3" d="M261.862,9.871c0.029-0.033,0.059-0.067,0.088-0.1c0.068,0.018,0.087,0.07,0.093,0.132
							c-0.003,0.024-0.013,0.044-0.03,0.061C261.951,9.951,261.901,9.92,261.862,9.871z"/>
						<path fill="#DAE0EE" d="M262.541,11.678c-0.07-0.001-0.071-0.071-0.066-0.099c0.011-0.06,0.071-0.032,0.113-0.031
							C262.637,11.615,262.599,11.65,262.541,11.678z"/>
						<path fill="#FFFFFF" d="M262.013,9.963c0-0.018,0.001-0.035,0.001-0.053c0.035-0.026,0.068-0.024,0.1,0.006
							c0.047,0.041,0.033,0.072-0.014,0.099C262.071,9.998,262.042,9.981,262.013,9.963z"/>
						<path fill="#C2CAE2" d="M262.044,12.068c-0.012,0.033-0.035,0.055-0.071,0.048c-0.035-0.007-0.057-0.034-0.04-0.069
							c0.009-0.018,0.036-0.039,0.054-0.039C262.018,12.009,262.046,12.028,262.044,12.068z"/>
						<path fill="#C9D0E6" d="M262.541,11.678c0.016-0.043,0.031-0.086,0.047-0.13c0.051-0.003,0.063,0.016,0.053,0.068
							C262.628,11.681,262.592,11.686,262.541,11.678z"/>
						<path fill="#CBD1E7" d="M262.353,11.708c-0.003,0.044-0.017,0.073-0.055,0.067c-0.017-0.003-0.04-0.026-0.043-0.043
							c-0.006-0.035,0.017-0.061,0.054-0.057C262.326,11.677,262.341,11.698,262.353,11.708z"/>
						<path fill="#DBDFEE" d="M261.243,8.491c0.033,0.053,0.129,0.047,0.102,0.14c-0.017,0.06-0.021,0.091-0.111,0.096
							c-0.115,0.006-0.096-0.077-0.101-0.114C261.125,8.55,261.197,8.527,261.243,8.491z"/>
						<path fill="#2FA451" d="M262.931,10.298c-0.162,0.147-0.208,0.126-0.293-0.137c0.058-0.06,0.04-0.206,0.188-0.165
							c0.016,0.006,0.032,0.011,0.049,0.017c0.045,0.04,0.087,0.083,0.106,0.143C262.958,10.201,262.906,10.236,262.931,10.298z"/>
						<path fill="#42A655" d="M260.09,8.857c-0.029,0.003-0.065,0.055-0.079,0.022c-0.044-0.103,0.018-0.205,0.058-0.287
							c0.033-0.068,0.136-0.005,0.209,0.017c0.134,0.039,0.041,0.128,0.052,0.193C260.263,8.877,260.161,8.8,260.09,8.857z"/>
						<path fill="#3FA655" d="M258.055,8.177c0.151-0.007,0.203,0.107,0.208,0.212c0.005,0.104-0.063,0.19-0.196,0.191
							c-0.115,0.001-0.168-0.043-0.135-0.156C257.958,8.336,257.863,8.181,258.055,8.177z"/>
						<path fill="#49AB5F" d="M258.468,8.46c-0.012,0.138,0.144,0.042,0.178,0.145c-0.091,0.048-0.209,0.047-0.265-0.017
							c-0.074-0.084-0.037-0.228,0.002-0.315c0.049-0.108,0.171-0.04,0.265-0.028c-0.01,0.116-0.109,0.068-0.169,0.115
							c0.054,0.011,0.091,0.019,0.129,0.027C258.605,8.497,258.512,8.431,258.468,8.46z"/>
						<path fill="#46AA5D" d="M262.114,9.916c-0.033-0.002-0.067-0.004-0.1-0.006c-0.018-0.048-0.072-0.08-0.064-0.14
							c0.036-0.064,0.071-0.128,0.107-0.192c0.059-0.095,0.129-0.095,0.209-0.025c0.039,0.034,0.141,0.049,0.03,0.12
							c-0.039,0.068-0.145,0.022-0.176,0.103C262.118,9.823,262.116,9.87,262.114,9.916z"/>
						<path fill="#3FA656" d="M258.995,8.629c-0.017,0.053-0.051,0.062-0.098,0.036c-0.027-0.139-0.069,0.003-0.103-0.005
							c-0.103-0.116-0.011-0.231,0.002-0.346c0.004-0.036,0.031-0.05,0.068-0.042c0.115,0.027,0.068,0.123,0.083,0.193
							C259.008,8.507,259.044,8.555,258.995,8.629z"/>
						<path fill="#34A34F" d="M261.821,9.781c-0.102-0.027,0.027-0.22-0.142-0.198c-0.058-0.036-0.024-0.099-0.042-0.146
							c0.052-0.094,0.092-0.218,0.231-0.09c0.01,0.076,0.057,0.144,0.048,0.224C261.816,9.61,261.923,9.742,261.821,9.781z"/>
						<path fill="#47AA5C" d="M258.995,8.629c-0.016-0.055-0.032-0.109-0.048-0.164c0.049-0.008,0.048-0.056,0.069-0.087
							c0.027-0.04,0.047-0.088,0.107-0.069c0.073,0.023,0.06,0.081,0.048,0.137c-0.011,0.054-0.026,0.108-0.031,0.163
							C259.119,8.821,259.048,8.656,258.995,8.629z"/>
						<path fill="#38A452" d="M257.766,8.327c0.008,0.059,0.017,0.119,0.026,0.184c-0.106,0.029-0.099-0.093-0.166-0.104
							c-0.047,0.028-0.014,0.11-0.1,0.133c-0.04-0.136-0.056-0.265,0.028-0.393c0.036,0.02,0.074,0.038,0.101,0.071
							C257.683,8.263,257.74,8.279,257.766,8.327z"/>
						<path fill="#3AA553" d="M260.504,8.917c-0.034,0.053-0.021,0.153-0.13,0.131c0.045-0.364,0.08-0.402,0.295-0.324
							c0.015,0.03-0.002,0.052-0.018,0.074c-0.022,0.028-0.038,0.06-0.051,0.094c-0.009,0.017-0.022,0.029-0.04,0.037
							C260.541,8.924,260.522,8.919,260.504,8.917z"/>
						<path fill="#239E46" d="M257.069,8.478c-0.066-0.134-0.113-0.266,0.076-0.338c0.069-0.026,0.156-0.018,0.191,0.051
							c0.046,0.093,0.076,0.201-0.02,0.291c-0.019-0.012-0.033-0.028-0.044-0.048c-0.023-0.033-0.015-0.103-0.069-0.095
							c-0.047,0.006-0.035,0.073-0.054,0.11C257.13,8.48,257.109,8.504,257.069,8.478z"/>
						<path fill="#F5FAF6" d="M261.055,9.191c-0.019,0.038-0.053,0.05-0.092,0.053c-0.128-0.059-0.163-0.142-0.071-0.261
							c0.082-0.07,0.157-0.057,0.228,0.018C261.154,9.083,261.13,9.145,261.055,9.191z"/>
						<path fill="#E8F3EB" d="M261.429,9.152c0.022,0,0.044,0.001,0.066,0.001c0.04,0.045,0.083,0.088,0.128,0.128
							c-0.017,0.02-0.034,0.041-0.051,0.061c-0.045,0.051-0.142,0.034-0.159,0.122c-0.051,0.018-0.093,0.003-0.132-0.03
							C261.21,9.277,261.283,9.195,261.429,9.152z"/>
						<path fill="#61B473" d="M259.477,8.729c0.006-0.122-0.011-0.223,0.107-0.255c0.038-0.01,0.112-0.008,0.114,0.051
							C259.702,8.651,259.602,8.686,259.477,8.729z"/>
						<path fill="#F2F8F4" d="M262.826,9.996c-0.133-0.025-0.051,0.195-0.188,0.165c-0.002-0.04-0.01-0.077-0.045-0.102
							c-0.03-0.022-0.036-0.053-0.031-0.087c0.021-0.065,0.076-0.103,0.118-0.152C262.744,9.867,262.746,9.964,262.826,9.996z"/>
						<path fill="#239E46" d="M262.398,9.864c0.05-0.179,0.152-0.091,0.245-0.048c-0.007,0.04-0.008,0.082-0.04,0.113
							c-0.039,0.021-0.035,0.076-0.076,0.096C262.415,10.027,262.431,9.926,262.398,9.864z"/>
						<path fill="#239E46" d="M261.429,9.152c-0.096,0.066-0.164,0.146-0.131,0.274c0.018,0.023,0.016,0.045-0.006,0.064
							c-0.086-0.075-0.117-0.155-0.065-0.27C261.274,9.112,261.357,9.159,261.429,9.152z"/>
						<path fill="#41A756" d="M261.915,9.57c-0.064-0.064-0.187-0.116-0.048-0.224c0.104,0.011,0.139,0.078,0.14,0.173
							C261.976,9.536,261.946,9.553,261.915,9.57z"/>
						<path fill="#54AF68" d="M263.358,10.251c-0.003,0.028-0.005,0.055-0.008,0.083c-0.065,0.093-0.152,0.039-0.232,0.035
							c-0.031-0.015-0.052-0.039-0.057-0.074C263.142,10.159,263.25,10.205,263.358,10.251z"/>
						<path fill="#239E46" d="M260.914,9.011c-0.118,0.106,0.019,0.158,0.05,0.233c-0.188-0.005-0.205-0.052-0.108-0.292
							C260.911,8.936,260.924,8.962,260.914,9.011z"/>
						<path fill="#5AAF68" d="M262.12,9.776c-0.003-0.14,0.091-0.114,0.176-0.103C262.32,9.851,262.216,9.808,262.12,9.776z"/>
						<path fill="#42A95B" d="M260.609,8.771c0.02-0.016,0.04-0.032,0.059-0.047c0.156,0.076,0.13,0.154,0.003,0.234
							c-0.042,0.003-0.073-0.015-0.096-0.05c0-0.013-0.001-0.026-0.001-0.04C260.651,8.86,260.612,8.809,260.609,8.771z"/>
						<path fill="#44A95A" d="M260.575,8.908c0.04,0.002,0.075,0.012,0.096,0.05c-0.019,0.058,0.038,0.117-0.006,0.182
							c-0.123-0.026-0.077-0.174-0.161-0.223C260.527,8.914,260.551,8.911,260.575,8.908z"/>
						<path fill="#239E46" d="M261.055,9.191c0.02-0.059,0.068-0.111,0.043-0.18c-0.021-0.023-0.019-0.045,0.006-0.064
							C261.224,9.048,261.209,9.126,261.055,9.191z"/>
						<path fill="#4FAD63" d="M257.601,8.236c-0.016-0.03-0.032-0.059-0.047-0.089c0.077,0.017,0.187-0.064,0.226,0.073
							C257.727,8.299,257.665,8.282,257.601,8.236z"/>
						<path fill="#239E46" d="M263.06,10.294c0.019,0.019,0.039,0.039,0.058,0.058c0.025,0.063,0.002,0.112-0.044,0.154
							c-0.035,0.016-0.066,0.01-0.094-0.016c-0.002-0.045-0.004-0.091-0.006-0.136C263.003,10.333,263.032,10.314,263.06,10.294z"/>
						<path fill="#239E46" d="M261.636,9.437c0.048,0.039,0.039,0.094,0.042,0.146c-0.023,0.038-0.042,0.081-0.095,0.086
							C261.509,9.57,261.612,9.513,261.636,9.437z"/>
						<path fill="#63B472" d="M262.981,10.156c-0.104,0.003-0.106-0.069-0.106-0.143c0.05,0.005,0.112-0.026,0.144,0.035
							C263.042,10.091,263.043,10.137,262.981,10.156z"/>
						<path fill="#239E46" d="M261.291,9.49c0.002-0.021,0.004-0.043,0.006-0.064c0.043,0.001,0.085,0.002,0.128,0.003
							c0.05-0.011,0.071,0.007,0.062,0.058C261.423,9.54,261.358,9.548,261.291,9.49z"/>
						<path fill="#54AE65" d="M261.487,9.486c-0.021-0.019-0.041-0.039-0.062-0.058c-0.029-0.161,0.091-0.069,0.147-0.086
							C261.567,9.404,261.558,9.464,261.487,9.486z"/>
						<path fill="#59B16C" d="M262.392,10.113c-0.014-0.004-0.028-0.007-0.043-0.008c-0.024-0.075-0.116-0.166,0.048-0.195
							c0.03,0.044,0.063,0.086,0.066,0.143C262.45,10.086,262.427,10.106,262.392,10.113z"/>
						<path fill="#D3E8D7" d="M257.601,8.236c0.06-0.005,0.119-0.011,0.179-0.016c0.014,0.038,0.025,0.076-0.014,0.107
							C257.699,8.318,257.607,8.354,257.601,8.236z"/>
						<path fill="#63B472" d="M261.623,9.281c-0.121,0.036-0.127-0.044-0.128-0.128C261.601,9.132,261.607,9.211,261.623,9.281z"/>
						<path fill="#35A451" d="M257.31,8.42c0.002,0.021,0.004,0.042,0.006,0.063c-0.084,0.097-0.166,0.07-0.246-0.004
							c0.017-0.016,0.034-0.031,0.052-0.047C257.181,8.384,257.245,8.395,257.31,8.42z"/>
						<path fill="#4AAA5E" d="M261.104,8.946c-0.002,0.021-0.004,0.043-0.006,0.064c-0.061-0.053-0.123-0.047-0.184,0
							c-0.02-0.02-0.039-0.039-0.059-0.059C260.937,8.89,261.019,8.852,261.104,8.946z"/>
						<path fill="#42A95B" d="M262.582,9.918c0.005-0.043,0.02-0.081,0.062-0.102c0.013,0.001,0.026,0.002,0.039,0.004
							c0.025,0.084,0.001,0.137-0.092,0.146c-0.015-0.008-0.021-0.018-0.018-0.029C262.574,9.924,262.577,9.918,262.582,9.918z"/>
						<path fill="#D2E8D7" d="M262.444,10.059c-0.016-0.05-0.031-0.099-0.047-0.149c-0.004-0.016-0.004-0.031,0.002-0.046
							c0.045,0.052,0.091,0.104,0.136,0.157C262.533,10.102,262.489,10.082,262.444,10.059z"/>
						<path fill="#E9F2EC" d="M260.09,8.857c0.065-0.085,0.17,0.004,0.241-0.055C260.269,8.902,260.173,8.85,260.09,8.857z"/>
						<path fill="#4FAB60" d="M258.468,8.46c0.046-0.024,0.092-0.048,0.138-0.073c0.037,0.008,0.054,0.036,0.03,0.061
							C258.588,8.497,258.525,8.461,258.468,8.46z"/>
						<path fill="#9CCEA9" d="M258.795,8.66c0.024-0.046,0.048-0.093,0.087-0.168c0.007,0.076,0.011,0.125,0.015,0.173
							C258.864,8.664,258.83,8.662,258.795,8.66z"/>
						<path fill="#F3F9F4" d="M263.071,10.489c-0.022-0.059,0.021-0.095,0.047-0.137c0.072-0.073,0.153-0.025,0.232-0.019
							c0.002,0.037,0.003,0.073,0.005,0.11C263.267,10.498,263.198,10.672,263.071,10.489z"/>
						<path fill="#2FA451" d="M263.071,10.489c0.117,0.122,0.182-0.074,0.284-0.046c-0.016,0.183-0.145,0.193-0.286,0.185
							c-0.03-0.046-0.059-0.092-0.089-0.139C263.011,10.489,263.041,10.489,263.071,10.489z"/>
						<path fill="#239E46" d="M262.444,10.059c0.038,0.005,0.071-0.002,0.091-0.039c0.016-0.034,0.031-0.068,0.047-0.103
							c0.003,0.016,0.005,0.032,0.008,0.047c0.002,0.031,0.003,0.062,0.005,0.094c-0.052,0.076-0.105,0.145-0.202,0.054
							C262.409,10.095,262.426,10.077,262.444,10.059z"/>
						<path fill="#F4F9F5" d="M258.025,8.333c0.033-0.061,0.091-0.069,0.128-0.025c0.051,0.06,0.021,0.128-0.029,0.183
							C257.987,8.505,258.002,8.422,258.025,8.333z"/>
						<path fill="#49AA5D" d="M258.025,8.333c0.012,0.066-0.026,0.164,0.1,0.159c-0.043,0.034-0.09,0.045-0.122-0.007
							C257.971,8.433,257.981,8.379,258.025,8.333z"/>
						<path fill="#DCEDE0" d="M260.609,8.771c0.017,0.024,0.034,0.048,0.051,0.072c-0.029,0.008-0.057,0.016-0.086,0.024
							C260.5,8.805,260.531,8.78,260.609,8.771z"/>
						<path fill="#C3DEC2" d="M257.31,8.42c-0.06,0.053-0.123,0.06-0.189,0.011c-0.038-0.059-0.088-0.116-0.001-0.179
							c0.04-0.028,0.076-0.061,0.126-0.038C257.343,8.259,257.32,8.342,257.31,8.42z"/>
					</g>
				</g>
			</g>
		</g>
	</g>
</g>
<path fill="#010201" d="M280.133,5.391h2.648c1.806,0,3.068,0.585,3.068,2.08c0,0.845-0.502,1.599-1.562,1.859v0.052
	c1.304,0.195,2.064,0.871,2.064,2.041c0,1.677-1.386,2.496-3.368,2.496h-2.852V5.391H280.133z M282.591,9.031
	c1.507,0,2.146-0.52,2.146-1.469c0-0.923-0.72-1.312-2.092-1.312h-1.371v2.781H282.591z M282.822,13.061
	c1.521,0,2.418-0.532,2.418-1.689c0-1.054-0.856-1.534-2.418-1.534h-1.548v3.224L282.822,13.061L282.822,13.061z"/>
<path fill="#010201" d="M287.916,7.601h0.924l0.095,1.145h0.041c0.448-0.793,1.127-1.301,1.874-1.301
	c0.285,0,0.489,0.039,0.706,0.131l-0.217,0.936c-0.218-0.065-0.367-0.104-0.639-0.104c-0.557,0-1.222,0.39-1.67,1.455v4.057h-1.114
	L287.916,7.601L287.916,7.601z"/>
<path fill="#010201" d="M295.958,9.915c0-0.807-0.286-1.586-1.358-1.586c-0.774,0-1.453,0.338-1.969,0.676l-0.448-0.741
	c0.61-0.377,1.534-0.819,2.594-0.819c1.616,0,2.295,1.027,2.295,2.601v3.874h-0.924l-0.095-0.754h-0.027
	c-0.639,0.494-1.371,0.91-2.187,0.91c-1.113,0-1.941-0.663-1.941-1.794C291.898,10.904,293.147,10.214,295.958,9.915z
	 M294.152,13.217c0.639,0,1.168-0.299,1.807-0.845v-1.755c-2.214,0.26-2.961,0.779-2.961,1.586
	C292.997,12.918,293.5,13.217,294.152,13.217z"/>
<path fill="#010201" d="M298.418,13.347l3.477-4.875h-3.097V7.601h4.509v0.572l-3.477,4.875h3.586v0.871h-4.998L298.418,13.347
	L298.418,13.347z"/>
<path fill="#010201" d="M304.613,5.612c0-0.416,0.339-0.688,0.773-0.688s0.774,0.272,0.774,0.688c0,0.403-0.34,0.689-0.774,0.689
	S304.613,6.015,304.613,5.612z M304.816,7.601h1.114v6.318h-1.114V7.601z"/>
<path fill="#010201" d="M308.09,4.663h1.114v8.06c0,0.338,0.149,0.468,0.312,0.468c0.068,0,0.123,0,0.245-0.025l0.149,0.806
	c-0.149,0.065-0.34,0.104-0.639,0.104c-0.842,0-1.182-0.507-1.182-1.431V4.663H308.09z"/>
<circle fill="none" stroke="#010201" stroke-miterlimit="10" cx="259.927" cy="9.771" r="7.049"/>
</svg>
