<?xml version="1.0" encoding="utf-8"?>
<!-- Generator: Adobe Illustrator 17.0.0, SVG Export Plug-In . SVG Version: 6.00 Build 0)  -->
<!DOCTYPE svg PUBLIC "-//W3C//DTD SVG 1.1//EN" "http://www.w3.org/Graphics/SVG/1.1/DTD/svg11.dtd">
<svg version="1.1" id="Layer_1" xmlns="http://www.w3.org/2000/svg" xmlns:xlink="http://www.w3.org/1999/xlink" x="0px" y="0px"
	 width="600px" height="19.542px" viewBox="0 0 600 19.542" enable-background="new 0 0 600 19.542" xml:space="preserve">
<rect x="0" y="0" fill="#EC6554" width="600" height="19.542"/>
<line fill="none" stroke="#9F9F9F" stroke-width="0.7" stroke-miterlimit="10" stroke-dasharray="6,3" x1="199.426" y1="0" x2="199.426" y2="19.044"/>
<line fill="none" stroke="#9F9F9F" stroke-width="0.7" stroke-miterlimit="10" stroke-dasharray="6,3" x1="440.97" y1="0" x2="440.97" y2="19.044"/>
<g>
	<g>
		<g>
			<rect x="451.885" y="8.645" fill="#FFFCEE" width="29.475" height="2"/>
		</g>
		<g>
			<g>
				<circle fill="#FFFCEE" cx="481.236" cy="9.645" r="2.481"/>
			</g>
		</g>
	</g>
</g>
<path fill="#FFFCEE" d="M67.679,7.42c-0.503-0.441-0.924-0.688-1.575-0.688c-0.733,0-1.182,0.363-1.182,1.04
	c0,1.56,3.694,1.248,3.694,3.874c0,1.234-0.761,2.145-2.105,2.379v1.339h-1.086v-1.3c-0.829-0.078-1.738-0.442-2.35-0.988
	l0.706-1.014c0.638,0.48,1.276,0.806,2.01,0.806c0.883,0,1.317-0.416,1.317-1.118c0-1.716-3.694-1.469-3.694-3.913
	c0-1.209,0.788-2.067,2.011-2.275V4.235h1.086v1.3c0.869,0.104,1.467,0.507,1.969,1.014L67.679,7.42z"/>
<path fill="#FFFCEE" d="M72.543,12.711h1.929V7.277h-1.589V6.341c0.855-0.156,1.453-0.364,1.996-0.676h1.168v7.046h1.697v1.223
	h-5.201V12.711z"/>
<path fill="#FFFCEE" d="M78.711,9.76c0-2.795,1.141-4.251,2.934-4.251s2.934,1.47,2.934,4.251c0,2.796-1.141,4.329-2.934,4.329
	S78.711,12.556,78.711,9.76z M83.084,9.76c0-2.34-0.598-3.081-1.439-3.081c-0.828,0-1.439,0.741-1.439,3.081
	c0,2.341,0.611,3.159,1.439,3.159C82.486,12.919,83.084,12.101,83.084,9.76z"/>
<path fill="#FFFCEE" d="M86.915,9.695V9.643c-0.665-0.455-1.194-1.066-1.194-1.938c0-1.339,1.113-2.197,2.607-2.197
	c1.548,0,2.539,0.897,2.539,2.236c0,0.819-0.598,1.508-1.154,1.898v0.052c0.802,0.429,1.494,1.04,1.494,2.145
	c0,1.274-1.168,2.249-2.92,2.249c-1.684,0-2.934-0.936-2.934-2.274C85.354,10.787,86.101,10.111,86.915,9.695z M88.315,13.023
	c0.828,0,1.426-0.468,1.426-1.235c0-0.896-0.91-1.222-2.078-1.677c-0.543,0.377-0.937,0.91-0.937,1.547
	C86.726,12.477,87.432,13.023,88.315,13.023z M89.577,7.836c0-0.728-0.476-1.261-1.276-1.261c-0.666,0-1.182,0.416-1.182,1.131
	c0,0.832,0.774,1.196,1.738,1.561C89.319,8.824,89.577,8.356,89.577,7.836z"/>
<path fill="#FFFCEE" d="M96.111,6.926h-4.088V5.665h5.799v0.91c-2.023,2.405-2.377,4.134-2.526,7.358h-1.589
	C93.857,10.995,94.441,9.149,96.111,6.926z"/>
<path fill="#FFFCEE" d="M99.129,11.957c0.516,0.507,1.181,0.91,2.05,0.91c0.938,0,1.589-0.468,1.589-1.248
	c0-0.858-0.57-1.404-2.539-1.404V9.123c1.697,0,2.254-0.559,2.254-1.326c0-0.688-0.488-1.104-1.276-1.104
	c-0.679,0-1.208,0.312-1.738,0.779l-0.801-0.923c0.733-0.624,1.562-1.04,2.594-1.04c1.656,0,2.798,0.78,2.798,2.185
	c0,0.923-0.571,1.547-1.508,1.897v0.053c1.019,0.26,1.793,0.962,1.793,2.054c0,1.508-1.372,2.392-3.028,2.392
	c-1.399,0-2.322-0.52-2.934-1.17L99.129,11.957z"/>
<path fill="#FFFCEE" d="M105.323,15.48c0.869-0.325,1.371-0.91,1.371-1.573c-0.041,0-0.081,0-0.122,0
	c-0.529,0-1.005-0.338-1.005-0.923c0-0.56,0.476-0.923,1.046-0.923c0.733,0,1.168,0.571,1.168,1.534
	c0,1.273-0.774,2.262-2.119,2.704L105.323,15.48z"/>
<path fill="#FFFCEE" d="M108.597,13.062c2.404-2.224,3.911-3.68,3.911-4.94c0-0.871-0.502-1.43-1.426-1.43
	c-0.665,0-1.222,0.429-1.684,0.923l-0.869-0.832c0.787-0.807,1.575-1.274,2.757-1.274c1.656,0,2.729,1.001,2.729,2.535
	c0,1.469-1.426,2.978-3.137,4.706c0.448-0.039,1.019-0.091,1.439-0.091h2.118v1.274h-5.84v-0.871H108.597z"/>
<path fill="#FFFCEE" d="M115.783,11.957c0.516,0.507,1.181,0.91,2.05,0.91c0.938,0,1.589-0.468,1.589-1.248
	c0-0.858-0.57-1.404-2.539-1.404V9.123c1.697,0,2.254-0.559,2.254-1.326c0-0.688-0.488-1.104-1.276-1.104
	c-0.679,0-1.208,0.312-1.738,0.779l-0.801-0.923c0.733-0.624,1.562-1.04,2.594-1.04c1.656,0,2.798,0.78,2.798,2.185
	c0,0.923-0.571,1.547-1.508,1.897v0.053c1.019,0.26,1.793,0.962,1.793,2.054c0,1.508-1.372,2.392-3.028,2.392
	c-1.399,0-2.322-0.52-2.934-1.17L115.783,11.957z"/>
<path fill="#FFFCEE" d="M126.337,14.453v2.002h-1.562V7.55h1.29l0.109,0.677h0.054c0.557-0.455,1.276-0.832,2.01-0.832
	c1.657,0,2.621,1.273,2.621,3.25c0,2.184-1.371,3.444-2.852,3.444c-0.584,0-1.168-0.26-1.711-0.701L126.337,14.453z M127.682,12.854
	c0.883,0,1.562-0.754,1.562-2.197c0-1.274-0.435-2.028-1.439-2.028c-0.488,0-0.95,0.234-1.467,0.715v2.978
	C126.826,12.711,127.288,12.854,127.682,12.854z"/>
<path fill="#FFFCEE" d="M134.434,4.703h1.06l-3.164,11.311h-1.06L134.434,4.703z"/>
<path fill="#FFFCEE" d="M139.012,7.394c0.855,0,1.508,0.324,1.956,0.74l-0.747,0.949c-0.354-0.299-0.706-0.468-1.127-0.468
	c-1.073,0-1.82,0.845-1.82,2.132c0,1.274,0.733,2.119,1.779,2.119c0.543,0,1.005-0.26,1.371-0.546l0.652,0.949
	c-0.625,0.533-1.426,0.818-2.187,0.818c-1.82,0-3.219-1.222-3.219-3.341C135.671,8.616,137.233,7.394,139.012,7.394z"/>
<circle fill="none" stroke="#FFFCEE" stroke-miterlimit="10" cx="259.817" cy="9.855" r="7.049"/>
<path fill="#FFFCEE" d="M283.677,5.301c1.1,0,2.023,0.521,2.621,1.105l-1.101,1.184c-0.448-0.391-0.869-0.638-1.494-0.638
	c-1.235,0-2.199,1.027-2.199,2.73c0,1.741,0.855,2.756,2.146,2.756c0.733,0,1.249-0.299,1.684-0.754l1.101,1.157
	c-0.733,0.818-1.712,1.248-2.812,1.248c-2.295,0-4.169-1.495-4.169-4.342C279.453,6.939,281.395,5.301,283.677,5.301z"/>
<path fill="#FFFCEE" d="M290.429,7.33c1.697,0,3.272,1.234,3.272,3.379c0,2.146-1.575,3.381-3.272,3.381
	c-1.711,0-3.286-1.235-3.286-3.381C287.143,8.564,288.718,7.33,290.429,7.33z M290.429,12.543c0.814,0,1.235-0.715,1.235-1.834
	c0-1.117-0.421-1.832-1.235-1.832c-0.828,0-1.236,0.715-1.236,1.832C289.193,11.828,289.601,12.543,290.429,12.543z"/>
<path fill="#FFFCEE" d="M295.008,4.82h1.996v7.189c0,0.402,0.19,0.533,0.354,0.533c0.081,0,0.136,0,0.244-0.026l0.244,1.417
	c-0.217,0.091-0.557,0.156-1.005,0.156c-1.371,0-1.833-0.858-1.833-2.158L295.008,4.82L295.008,4.82z"/>
<path fill="#FFFCEE" d="M301.718,7.33c1.697,0,3.272,1.234,3.272,3.379c0,2.146-1.575,3.381-3.272,3.381
	c-1.711,0-3.286-1.235-3.286-3.381C298.432,8.564,300.007,7.33,301.718,7.33z M301.718,12.543c0.814,0,1.235-0.715,1.235-1.834
	c0-1.117-0.421-1.832-1.235-1.832c-0.828,0-1.236,0.715-1.236,1.832C300.482,11.828,300.89,12.543,301.718,12.543z"/>
<path fill="#FFFCEE" d="M306.297,7.485h1.63l0.136,0.832h0.054c0.558-0.533,1.154-0.987,2.037-0.987c0.951,0,1.521,0.389,1.86,1.078
	c0.598-0.585,1.223-1.078,2.119-1.078c1.453,0,2.104,0.987,2.104,2.6v4.004h-1.996v-3.758c0-0.936-0.258-1.221-0.828-1.221
	c-0.34,0-0.72,0.207-1.154,0.623v4.355h-1.996v-3.758c0-0.936-0.259-1.221-0.829-1.221c-0.326,0-0.72,0.207-1.141,0.623v4.355
	h-1.996L306.297,7.485L306.297,7.485z"/>
<path fill="#FFFCEE" d="M317.871,4.82h1.996v2.236l-0.055,0.988c0.517-0.442,1.155-0.715,1.779-0.715
	c1.63,0,2.648,1.286,2.648,3.262c0,2.224-1.385,3.498-2.838,3.498c-0.598,0-1.223-0.286-1.752-0.832h-0.055l-0.163,0.676h-1.562
	V4.82H317.871z M320.941,12.529c0.692,0,1.249-0.572,1.249-1.898c0-1.156-0.366-1.742-1.168-1.742c-0.407,0-0.773,0.183-1.154,0.586
	v2.639C320.221,12.426,320.601,12.529,320.941,12.529z"/>
<path fill="#FFFCEE" d="M325.424,5.535c0-0.585,0.489-0.988,1.154-0.988c0.679,0,1.154,0.403,1.154,0.988s-0.476,1.001-1.154,1.001
	C325.913,6.536,325.424,6.12,325.424,5.535z M325.587,7.485h1.996v6.448h-1.996V7.485z"/>
<path fill="#FFFCEE" d="M332.813,9.787c-0.04-0.572-0.339-0.937-1.059-0.937c-0.57,0-1.141,0.221-1.793,0.585l-0.706-1.262
	c0.855-0.494,1.819-0.844,2.879-0.844c1.725,0,2.676,0.936,2.676,2.912v3.691h-1.63l-0.149-0.663h-0.041
	c-0.57,0.481-1.208,0.819-1.969,0.819c-1.223,0-1.996-0.858-1.996-1.95C329.025,10.787,330.151,10.047,332.813,9.787z
	 M331.699,12.607c0.462,0,0.761-0.208,1.113-0.546V10.93c-1.426,0.182-1.888,0.571-1.888,1.065
	C330.925,12.412,331.224,12.607,331.699,12.607z"/>
<path fill="#EC6554" d="M230.466,11.957h-0.991v1.977h-1.861v-1.977h-3.734v-1.312l3.15-4.967h2.445v4.824h0.991L230.466,11.957
	L230.466,11.957z M227.613,10.502v-1.34c0-0.533,0.055-1.326,0.082-1.846h-0.055c-0.217,0.455-0.462,0.923-0.706,1.391l-1.141,1.795
	H227.613z"/>
<g>
	<g>
		<g>
			<g>
				<g>
					<defs>
						<circle id="SVGID_1_" cx="259.817" cy="9.855" r="7.158"/>
					</defs>
					<clipPath id="SVGID_2_">
						<use xlink:href="#SVGID_1_"  overflow="visible"/>
					</clipPath>
					<g clip-path="url(#SVGID_2_)">
						<g>
							<path fill="#EFE528" d="M249.175,9.855c0-2.323,0.002-4.645-0.005-6.968c0-0.163,0.032-0.196,0.196-0.195
								c7.111,0.005,14.221,0.005,21.332,0.005c0.071,0.091,0.047,0.198,0.047,0.3c0.001,2.187,0.001,4.374,0.001,6.561
								c0,0.365-0.002,0.368-0.377,0.368c-5.663,0.001-11.325,0-16.988,0c-1.288,0-2.577,0.001-3.865-0.001
								C249.398,9.925,249.273,9.951,249.175,9.855z"/>
							<path fill="#3C5BA4" d="M249.175,13.482c0-1.193,0-2.386,0-3.579c0.082-0.045,0.172-0.023,0.257-0.023
								c7.005-0.001,14.009-0.001,21.014-0.001c0.297,0,0.299,0,0.299,0.302c0.001,1.018,0.001,2.035-0.001,3.053
								c0,0.086,0.015,0.176-0.031,0.257c-0.062,0.074-0.147,0.087-0.237,0.091c-0.087,0.004-0.175,0.005-0.262,0.005
								c-6.848,0-13.696,0.001-20.545-0.002C249.501,13.585,249.315,13.636,249.175,13.482z"/>
							<path fill="#BF192A" d="M249.175,13.482c0.079-0.002,0.159-0.005,0.238-0.005c7.092,0,14.185,0,21.277,0
								c0.011,0.011,0.022,0.023,0.033,0.034c0.035,0.092,0.021,0.189,0.021,0.283c0.001,0.97,0.001,1.94,0.001,2.91
								c0,0.356-0.001,0.357-0.352,0.357c-5.717,0-11.433,0-17.15,0c-1.256,0-2.512,0.001-3.769-0.001
								c-0.101,0-0.208,0.024-0.3-0.047C249.175,15.836,249.175,14.659,249.175,13.482z"/>
							<path fill="#49453D" d="M270.69,13.477c0.005-0.723,0.011-1.447,0.015-2.17c0.002-0.406-0.006-0.811,0.003-1.217
								c0.003-0.156-0.049-0.221-0.204-0.201c-0.039,0.005-0.079,0.001-0.119,0.001c-6.983,0-13.966,0-20.949,0.001
								c-0.087,0-0.174,0.009-0.261,0.013c0-0.016,0-0.032,0-0.048c0.087,0.003,0.174,0.01,0.262,0.01
								c6.988,0,13.977,0.001,20.965,0c0.349,0,0.308,0.044,0.308-0.3c0.001-2.202,0.001-4.404,0-6.607
								c0-0.087-0.008-0.174-0.012-0.261c0.03,0.02,0.101-0.046,0.096,0.048c-0.003,0.056-0.001,0.111-0.001,0.167
								c0,4.717,0,9.433,0,14.15c-0.034,0.016-0.057,0.006-0.07-0.029c-0.004-1.093,0-2.185-0.002-3.278
								c0-0.086,0.013-0.174-0.014-0.26C270.698,13.492,270.692,13.486,270.69,13.477z"/>
							<path fill="#290C12" d="M270.707,13.495c0.06,0.087,0.035,0.185,0.035,0.278c0.002,1.096,0.001,2.192,0.001,3.287
								c-0.082,0.047-0.171,0.024-0.257,0.024c-7.018,0.001-14.036,0.001-21.054,0c-0.086,0-0.175,0.022-0.257-0.023
								c0-0.016,0-0.032,0-0.048c0.087,0.003,0.175,0.008,0.262,0.008c6.978,0,13.957,0.001,20.935,0
								c0.369,0,0.333,0.037,0.333-0.331C270.707,15.625,270.707,14.56,270.707,13.495z"/>
							<path fill="#404040" d="M249.175,17.061c5.082-0.001,10.164-0.002,15.246-0.002c2.108,0,4.215,0.001,6.323,0.001
								c0.017,0,0.033,0.001,0.05,0.001c-0.043,0.099-0.129,0.045-0.191,0.045c-1.875,0.004-3.75,0.003-5.625,0.003
								c-5.196,0-10.392,0-15.588-0.003C249.32,17.106,249.228,17.161,249.175,17.061z"/>
						</g>
					</g>
				</g>
			</g>
		</g>
	</g>
</g>
<circle fill="none" stroke="#FFFCEE" stroke-miterlimit="10" cx="259.817" cy="9.855" r="7.049"/>
<g>
	<path fill="#FFFCEE" d="M491.462,13.062c2.404-2.223,3.911-3.679,3.911-4.94c0-0.871-0.502-1.43-1.426-1.43
		c-0.665,0-1.222,0.429-1.684,0.923l-0.869-0.832c0.787-0.806,1.575-1.273,2.757-1.273c1.656,0,2.729,1.001,2.729,2.534
		c0,1.47-1.426,2.978-3.137,4.707c0.448-0.039,1.019-0.092,1.439-0.092h2.118v1.274h-5.84v-0.871H491.462z"/>
	<path fill="#FFFCEE" d="M498.214,15.48c0.869-0.325,1.371-0.91,1.371-1.573c-0.041,0-0.081,0-0.122,0
		c-0.529,0-1.005-0.338-1.005-0.923c0-0.559,0.476-0.923,1.046-0.923c0.733,0,1.168,0.572,1.168,1.534
		c0,1.273-0.774,2.262-2.119,2.704L498.214,15.48z"/>
	<path fill="#FFFCEE" d="M505.657,6.927h-4.088V5.665h5.799v0.91c-2.023,2.405-2.377,4.134-2.526,7.358h-1.589
		C503.402,10.995,503.986,9.149,505.657,6.927z"/>
	<path fill="#FFFCEE" d="M509.719,9.695V9.643c-0.665-0.455-1.194-1.066-1.194-1.938c0-1.339,1.113-2.196,2.607-2.196
		c1.548,0,2.539,0.896,2.539,2.235c0,0.819-0.598,1.509-1.154,1.898v0.052c0.802,0.429,1.494,1.04,1.494,2.146
		c0,1.273-1.168,2.249-2.92,2.249c-1.684,0-2.934-0.937-2.934-2.275C508.157,10.787,508.904,10.111,509.719,9.695z M511.118,13.023
		c0.828,0,1.426-0.468,1.426-1.235c0-0.896-0.91-1.222-2.078-1.677c-0.543,0.377-0.937,0.91-0.937,1.547
		C509.529,12.477,510.235,13.023,511.118,13.023z M512.381,7.836c0-0.728-0.476-1.261-1.276-1.261c-0.666,0-1.182,0.416-1.182,1.131
		c0,0.832,0.774,1.196,1.738,1.561C512.123,8.824,512.381,8.356,512.381,7.836z"/>
</g>
</svg>
