<?xml version="1.0" encoding="utf-8"?>
<!-- Generator: Adobe Illustrator 17.0.0, SVG Export Plug-In . SVG Version: 6.00 Build 0)  -->
<!DOCTYPE svg PUBLIC "-//W3C//DTD SVG 1.1//EN" "http://www.w3.org/Graphics/SVG/1.1/DTD/svg11.dtd">
<svg version="1.1" id="Layer_1" xmlns="http://www.w3.org/2000/svg" xmlns:xlink="http://www.w3.org/1999/xlink" x="0px" y="0px"
	 width="600px" height="19.542px" viewBox="0 0 600 19.542" enable-background="new 0 0 600 19.542" xml:space="preserve">
<rect x="150.03" y="2.807" fill="#EC6554" width="42.098" height="14.097"/>
<g>
	<rect x="448.356" y="8.645" fill="#EC6554" width="29.474" height="2"/>
</g>
<g>
	<g>
		<circle fill="#EC6554" cx="477.706" cy="9.645" r="2.481"/>
	</g>
</g>
<g>
	<rect x="448.356" y="8.231" fill="#EC6554" width="29.474" height="2"/>
</g>
<g>
	<g>
		<circle fill="#EC6554" cx="477.706" cy="9.231" r="2.481"/>
	</g>
</g>
<rect x="0" y="0" fill="none" width="600" height="19.542"/>
<line fill="none" stroke="#9F9F9F" stroke-width="0.7" stroke-miterlimit="10" stroke-dasharray="6,3" x1="199.426" y1="0" x2="199.426" y2="19.044"/>
<line fill="none" stroke="#9F9F9F" stroke-width="0.7" stroke-miterlimit="10" stroke-dasharray="6,3" x1="440.97" y1="0" x2="440.97" y2="19.044"/>
<g>
	<g>
		<g>
			<defs>
				<circle id="SVGID_1_" cx="259.927" cy="9.855" r="7.158"/>
			</defs>
			<clipPath id="SVGID_2_">
				<use xlink:href="#SVGID_1_"  overflow="visible"/>
			</clipPath>
			<g id="NKVdtS_1_" clip-path="url(#SVGID_2_)">
				<g>
					<g>
						<path fill="#EFE528" d="M249.285,9.855c0-2.323,0.002-4.645-0.005-6.968c0-0.163,0.032-0.196,0.196-0.195
							c7.111,0.005,14.221,0.005,21.332,0.005c0.071,0.091,0.047,0.198,0.047,0.3c0.001,2.187,0.001,4.374,0.001,6.561
							c0,0.365-0.002,0.368-0.377,0.368c-5.663,0.001-11.325,0-16.988,0c-1.288,0-2.577,0.001-3.865-0.001
							C249.508,9.925,249.383,9.951,249.285,9.855z"/>
						<path fill="#3C5BA4" d="M249.285,13.482c0-1.193,0-2.386,0-3.579c0.082-0.045,0.172-0.023,0.257-0.023
							c7.005-0.001,14.01-0.001,21.014-0.001c0.297,0,0.299,0,0.299,0.302c0.001,1.018,0.001,2.035-0.001,3.053
							c0,0.086,0.015,0.176-0.031,0.257c-0.062,0.074-0.147,0.087-0.237,0.091c-0.087,0.004-0.175,0.005-0.262,0.005
							c-6.848,0-13.696,0.001-20.545-0.002C249.611,13.585,249.425,13.636,249.285,13.482z"/>
						<path fill="#BF192A" d="M249.285,13.482c0.079-0.002,0.159-0.005,0.238-0.005c7.092,0,14.185,0,21.277,0
							c0.011,0.011,0.022,0.023,0.033,0.034c0.035,0.092,0.021,0.189,0.021,0.283c0.001,0.97,0.001,1.94,0.001,2.91
							c0,0.356-0.001,0.357-0.352,0.357c-5.717,0-11.433,0-17.15,0c-1.256,0-2.512,0.001-3.769-0.001
							c-0.101,0-0.208,0.024-0.3-0.047C249.285,15.836,249.285,14.659,249.285,13.482z"/>
						<path fill="#49453D" d="M270.8,13.477c0.005-0.723,0.011-1.447,0.015-2.17c0.002-0.406-0.006-0.811,0.003-1.217
							c0.003-0.156-0.049-0.221-0.204-0.201c-0.039,0.005-0.079,0.001-0.119,0.001c-6.983,0-13.966,0-20.949,0.001
							c-0.087,0-0.174,0.009-0.261,0.013c0-0.016,0-0.032,0-0.048c0.087,0.003,0.174,0.01,0.262,0.01c6.988,0,13.977,0.001,20.965,0
							c0.349,0,0.308,0.044,0.308-0.3c0.001-2.202,0.001-4.404,0-6.607c0-0.087-0.008-0.174-0.012-0.261
							c0.03,0.02,0.101-0.046,0.096,0.048c-0.003,0.056-0.001,0.111-0.001,0.167c0,4.717,0,9.433,0,14.15
							c-0.034,0.016-0.057,0.006-0.07-0.029c-0.004-1.093,0-2.185-0.002-3.278c0-0.086,0.013-0.174-0.014-0.26
							C270.808,13.492,270.802,13.486,270.8,13.477z"/>
						<path fill="#290C12" d="M270.817,13.495c0.06,0.087,0.035,0.185,0.035,0.278c0.002,1.096,0.001,2.192,0.001,3.287
							c-0.082,0.047-0.171,0.024-0.257,0.024c-7.018,0.001-14.036,0.001-21.054,0c-0.086,0-0.175,0.022-0.257-0.023
							c0-0.016,0-0.032,0-0.048c0.087,0.003,0.175,0.008,0.262,0.008c6.979,0,13.957,0.001,20.935,0
							c0.369,0,0.333,0.037,0.333-0.331C270.817,15.625,270.817,14.56,270.817,13.495z"/>
						<path fill="#404040" d="M249.285,17.061c5.082-0.001,10.164-0.002,15.246-0.002c2.108,0,4.215,0.001,6.323,0.001
							c0.017,0,0.033,0.001,0.05,0.001c-0.043,0.099-0.129,0.045-0.191,0.045c-1.875,0.004-3.75,0.003-5.625,0.003
							c-5.196,0-10.392,0-15.588-0.003C249.43,17.106,249.338,17.161,249.285,17.061z"/>
					</g>
				</g>
			</g>
		</g>
	</g>
</g>
<path fill="#010201" d="M283.596,5.249c1.06,0,1.901,0.494,2.431,1.053l-0.638,0.689c-0.476-0.481-1.046-0.793-1.779-0.793
	c-1.697,0-2.825,1.326-2.825,3.445c0,2.145,1.073,3.497,2.771,3.497c0.842,0,1.467-0.338,2.037-0.949l0.639,0.663
	c-0.692,0.78-1.575,1.234-2.703,1.234c-2.24,0-3.911-1.638-3.911-4.42C279.617,6.926,281.315,5.249,283.596,5.249z"/>
<path fill="#010201" d="M290.253,7.459c1.615,0,3.056,1.209,3.056,3.328c0,2.093-1.44,3.302-3.056,3.302s-3.056-1.209-3.056-3.302
	C287.198,8.668,288.637,7.459,290.253,7.459z M290.253,13.205c1.141,0,1.9-0.975,1.9-2.418c0-1.456-0.76-2.444-1.9-2.444
	c-1.128,0-1.901,0.988-1.901,2.444C288.352,12.231,289.125,13.205,290.253,13.205z"/>
<path fill="#010201" d="M294.981,4.677h1.114v8.061c0,0.338,0.149,0.468,0.312,0.468c0.068,0,0.123,0,0.245-0.025l0.149,0.806
	c-0.149,0.065-0.34,0.104-0.639,0.104c-0.842,0-1.182-0.507-1.182-1.43V4.677H294.981z"/>
<path fill="#010201" d="M300.945,7.459c1.615,0,3.056,1.209,3.056,3.328c0,2.093-1.44,3.302-3.056,3.302s-3.056-1.209-3.056-3.302
	C297.889,8.668,299.328,7.459,300.945,7.459z M300.945,13.205c1.141,0,1.9-0.975,1.9-2.418c0-1.456-0.76-2.444-1.9-2.444
	c-1.128,0-1.901,0.988-1.901,2.444C299.043,12.231,299.817,13.205,300.945,13.205z"/>
<path fill="#010201" d="M305.672,7.615h0.924l0.095,0.91h0.041c0.57-0.599,1.263-1.066,2.051-1.066c1.005,0,1.548,0.455,1.819,1.209
	c0.693-0.715,1.372-1.209,2.173-1.209c1.358,0,2.01,0.858,2.01,2.47v4.005h-1.113v-3.861c0-1.184-0.394-1.69-1.222-1.69
	c-0.517,0-1.046,0.325-1.657,0.976v4.576h-1.113v-3.861c0-1.184-0.395-1.69-1.236-1.69c-0.488,0-1.046,0.325-1.656,0.976v4.576
	h-1.114V7.615H305.672z"/>
<path fill="#010201" d="M316.866,4.677h1.114v2.522l-0.027,1.144c0.598-0.507,1.331-0.884,2.064-0.884
	c1.711,0,2.62,1.261,2.62,3.211c0,2.158-1.344,3.419-2.852,3.419c-0.611,0-1.304-0.285-1.888-0.779h-0.041l-0.095,0.624h-0.896
	L316.866,4.677L316.866,4.677z M319.595,13.193c1.087,0,1.888-0.949,1.888-2.509c0-1.392-0.488-2.327-1.738-2.327
	c-0.557,0-1.141,0.299-1.765,0.857v3.315C318.564,13.011,319.161,13.193,319.595,13.193z"/>
<path fill="#010201" d="M324.134,5.626c0-0.416,0.339-0.689,0.773-0.689s0.774,0.273,0.774,0.689c0,0.403-0.34,0.689-0.774,0.689
	S324.134,6.029,324.134,5.626z M324.337,7.615h1.114v6.318h-1.114V7.615z"/>
<path fill="#010201" d="M331.347,9.929c0-0.806-0.286-1.586-1.358-1.586c-0.774,0-1.453,0.338-1.969,0.677l-0.448-0.741
	c0.61-0.377,1.534-0.819,2.594-0.819c1.616,0,2.295,1.027,2.295,2.601v3.874h-0.924l-0.095-0.754h-0.027
	c-0.639,0.493-1.371,0.909-2.187,0.909c-1.113,0-1.941-0.662-1.941-1.794C327.286,10.917,328.536,10.229,331.347,9.929z
	 M329.54,13.232c0.639,0,1.168-0.299,1.807-0.845v-1.756c-2.214,0.261-2.961,0.78-2.961,1.586
	C328.386,12.933,328.889,13.232,329.54,13.232z"/>
<circle fill="none" stroke="#010201" stroke-miterlimit="10" cx="259.927" cy="9.855" r="7.049"/>
</svg>
