<?xml version="1.0" encoding="utf-8"?>
<!-- Generator: Adobe Illustrator 17.0.0, SVG Export Plug-In . SVG Version: 6.00 Build 0)  -->
<!DOCTYPE svg PUBLIC "-//W3C//DTD SVG 1.1//EN" "http://www.w3.org/Graphics/SVG/1.1/DTD/svg11.dtd">
<svg version="1.1" id="Layer_1" xmlns="http://www.w3.org/2000/svg" xmlns:xlink="http://www.w3.org/1999/xlink" x="0px" y="0px"
	 width="600px" height="19.542px" viewBox="0 0 600 19.542" enable-background="new 0 0 600 19.542" xml:space="preserve">
<rect x="144.767" y="3.126" fill="#EC6554" width="47.361" height="14.097"/>
<g>
	<rect x="448.356" y="9.175" fill="#EC6554" width="36.548" height="2"/>
</g>
<g>
	<g>
		<circle fill="#EC6554" cx="484.779" cy="10.174" r="2.481"/>
	</g>
</g>
<rect x="0" y="0" fill="none" width="600" height="19.542"/>
<line fill="none" stroke="#9F9F9F" stroke-width="0.7" stroke-miterlimit="10" stroke-dasharray="6,3" x1="199.426" y1="0" x2="199.426" y2="18.903"/>
<line fill="none" stroke="#9F9F9F" stroke-width="0.7" stroke-miterlimit="10" stroke-dasharray="6,3" x1="440.97" y1="0" x2="440.97" y2="18.903"/>
<g>
	<g>
		<g>
			<defs>
				<circle id="SVGID_1_" cx="259.927" cy="10.174" r="7.049"/>
			</defs>
			<clipPath id="SVGID_2_">
				<use xlink:href="#SVGID_1_"  overflow="visible"/>
			</clipPath>
			<g id="_x30_jAL2e_1_" clip-path="url(#SVGID_2_)">
				<g>
					<g>
						<path fill="#3C5BA4" d="M266.943,17.34c-7.625,0-15.251,0-22.876,0c-0.052-0.22-0.023-0.444-0.021-0.666
							c0.004-0.566-0.026-1.132,0.017-1.698c0.069-0.067,0.158-0.071,0.246-0.076c0.08-0.005,0.16-0.003,0.24-0.003
							c7.307,0,14.613,0,21.92,0.001c0.143,0,0.289-0.017,0.427,0.04c0.029,0.016,0.051,0.038,0.066,0.067
							c0.011,0.741,0.002,1.481,0.005,2.222C266.967,17.266,266.968,17.306,266.943,17.34z"/>
						<path fill="#1E2F51" d="M266.991,2.875c0,0.801,0,1.602,0,2.403c-0.034,0.002-0.061-0.011-0.081-0.039
							c-0.064-0.11-0.053-0.232-0.054-0.351c-0.003-0.528,0.003-1.057-0.003-1.585c-0.003-0.264-0.025-0.281-0.293-0.29
							c-0.104-0.003-0.208-0.001-0.312-0.001c-7.214,0-14.428,0-21.642-0.001c-0.167,0-0.337,0.026-0.498-0.046
							c-0.029-0.018-0.045-0.044-0.046-0.078c0.077-0.066,0.169-0.033,0.254-0.033c7.48-0.002,14.96-0.002,22.439-0.001
							C266.834,2.852,266.916,2.832,266.991,2.875z"/>
						<path fill="#010202" d="M266.991,2.875c-0.104-0.002-0.208-0.007-0.312-0.007c-7.437,0-14.874-0.001-22.311,0.002
							c-0.107,0-0.226-0.044-0.319,0.051c-0.01,0.001-0.02,0.002-0.03,0.003c0.02-0.03-0.047-0.102,0.048-0.097
							c0.056,0.003,0.112,0.001,0.168,0.001c7.513,0,15.026,0,22.54,0.003C266.845,2.83,266.938,2.774,266.991,2.875z"/>
						<path fill="#290C12" d="M244.019,12.534c0-1.602,0-3.204,0-4.806c0.032-0.014,0.058-0.007,0.079,0.022
							c0.017,0.026,0.029,0.055,0.037,0.084c0.025,0.118,0.017,0.239,0.018,0.358c0.001,1.294,0.001,2.587,0,3.881
							c0,0.12,0.007,0.24-0.017,0.358c-0.007,0.03-0.02,0.058-0.037,0.083C244.077,12.542,244.051,12.549,244.019,12.534z"/>
						<path fill="#5E121B" d="M266.991,7.729c0,1.602,0,3.204,0,4.806c-0.015,0.003-0.031,0.006-0.046,0.009
							c-0.025-0.02-0.044-0.044-0.056-0.074c-0.029-0.076-0.03-0.156-0.031-0.236c-0.002-1.41-0.003-2.821,0-4.231
							c0-0.056,0.003-0.112,0.015-0.166c0.008-0.03,0.02-0.059,0.037-0.086C266.932,7.722,266.959,7.714,266.991,7.729z"/>
						<path fill="#7F7F80" d="M266.949,12.54c0.014-0.005,0.028-0.007,0.043-0.006c0,0.817,0,1.634,0,2.451
							c-0.013,0.023-0.027,0.022-0.042,0.003c-0.008-0.008-0.015-0.017-0.019-0.028c-0.081-0.093-0.072-0.208-0.072-0.318
							c-0.003-0.589-0.003-1.179,0-1.768C266.859,12.756,266.844,12.631,266.949,12.54z"/>
						<path fill="#7F8080" d="M266.991,7.729l-0.02,0.003l-0.02-0.004c-0.081-0.06-0.088-0.15-0.089-0.238
							c-0.007-0.671-0.009-1.342,0.001-2.013c0.001-0.048,0.01-0.095,0.028-0.141c0.013-0.03,0.033-0.053,0.06-0.071
							c0.012,0.008,0.026,0.012,0.041,0.012C266.991,6.095,266.991,6.912,266.991,7.729z"/>
						<path fill="#3F3F3F" d="M244.061,7.727c-0.014,0.001-0.028,0.002-0.042,0.001c0-0.817,0-1.634,0-2.451
							c0.015-0.003,0.031-0.006,0.046-0.009c0.025,0.02,0.044,0.044,0.056,0.074c0.06,0.252,0.027,0.507,0.03,0.761
							c0.006,0.43,0.004,0.86,0,1.29C244.15,7.511,244.167,7.636,244.061,7.727z"/>
						<path fill="#3F3F3F" d="M244.019,12.534c0.015,0.001,0.03,0.002,0.045,0.003c0.077,0.062,0.084,0.151,0.085,0.238
							c0.008,0.643,0.007,1.287,0.001,1.93c-0.001,0.072-0.011,0.143-0.05,0.206c-0.02,0.031-0.047,0.039-0.081,0.025
							C244.019,14.136,244.019,13.335,244.019,12.534z"/>
						<path fill="#111728" d="M244.019,14.937c0.014,0.001,0.028,0.001,0.042,0l0.019,0.01l-0.004,0.022
							c-0.003,0.79-0.006,1.581-0.009,2.371c-0.103-0.019-0.045-0.098-0.045-0.144C244.018,16.443,244.019,15.69,244.019,14.937z"/>
						<path fill="#1E2F52" d="M266.949,14.988c0.014-0.009,0.028-0.01,0.042-0.003c0,0.737,0.001,1.474-0.003,2.211
							c0,0.046,0.058,0.125-0.045,0.144C266.945,16.556,266.947,15.772,266.949,14.988z"/>
						<path fill="#101728" d="M244.058,5.268c-0.013,0.005-0.026,0.008-0.039,0.009c0-0.785,0-1.57,0-2.355
							c0.01,0,0.02-0.001,0.03-0.003l0.02,0.003c0.072,0.075,0.082,0.171,0.083,0.267c0.004,0.606,0.006,1.212-0.001,1.818
							C244.15,5.103,244.147,5.202,244.058,5.268z"/>
						<path fill="#FFFFFF" d="M244.076,14.969c-0.001-0.013-0.006-0.023-0.016-0.032c0.001-0.8,0.002-1.6,0.003-2.399l0.01-0.012
							c0.069-0.066,0.157-0.073,0.246-0.077c0.08-0.004,0.16-0.003,0.24-0.003c7.297,0,14.594,0,21.891,0.002
							c0.165,0,0.339-0.037,0.488,0.076l0.01,0.017c-0.006,0.807-0.012,1.613-0.018,2.42c-0.112,0.002-0.224,0.005-0.336,0.005
							c-7.41,0-14.82,0-22.23,0C244.268,14.965,244.172,14.968,244.076,14.969z"/>
						<path fill="#3C5BA4" d="M244.058,5.268c0.004-0.782,0.008-1.563,0.011-2.345c0.096-0.005,0.191-0.013,0.287-0.013
							c7.419-0.001,14.839-0.001,22.258,0c0.372,0,0.326-0.037,0.328,0.339c0.004,0.672,0.005,1.344,0.008,2.017l-0.016,0.017
							c-0.067,0.07-0.156,0.076-0.244,0.081c-0.088,0.005-0.176,0.003-0.264,0.003c-7.281,0-14.563,0-21.844-0.002
							c-0.171,0-0.355,0.046-0.507-0.085L244.058,5.268z"/>
						<path fill="#BF192A" d="M266.938,12.523c-1.153,0.001-2.306,0.003-3.458,0.003c-6.469,0-12.938,0-19.406,0
							c0-1.59,0-3.181,0.001-4.771c0.121-0.086,0.261-0.066,0.395-0.066c1.337-0.002,2.674-0.001,4.011-0.001
							c5.989,0,11.977,0,17.966,0.002c0.165,0,0.339-0.037,0.489,0.071C266.937,9.348,266.938,10.936,266.938,12.523z"/>
						<path fill="#FFFFFF" d="M266.936,7.761c-0.056-0.002-0.112-0.006-0.168-0.006c-7.565,0-15.129,0-22.694,0.001
							c0.001-0.012-0.003-0.021-0.013-0.028c0.005-0.816,0.009-1.632,0.014-2.448c7.596,0,15.191-0.001,22.787-0.001
							c0.024,0,0.048,0.003,0.072,0.004c0.005,0.815,0.011,1.631,0.016,2.446C266.941,7.737,266.936,7.748,266.936,7.761z"/>
						<path fill="#FFFFFF" d="M249.063,10.125c0.008-0.621,0.216-1.16,0.689-1.574c0.737-0.646,1.775-0.57,2.423,0.166
							c0.676,0.767,0.697,2.001,0.048,2.787c-0.89,1.077-2.495,0.782-3.015-0.557C249.107,10.684,249.051,10.411,249.063,10.125z"/>
						<path fill="#AD9365" d="M252.287,10.082c0.158,0.211,0.141,0.463-0.049,0.724c-0.062-0.042-0.063-0.112-0.08-0.175
							c-0.003-0.021-0.004-0.042-0.003-0.063c0.016-0.08,0.023-0.158-0.03-0.23c-0.008-0.019-0.012-0.039-0.013-0.06
							c0.002-0.021,0.009-0.04,0.02-0.057c0.032-0.039,0.077-0.064,0.105-0.106C252.252,10.101,252.268,10.09,252.287,10.082z"/>
						<path fill="#A1885B" d="M252.287,10.082c-0.002,0.014-0.003,0.028-0.003,0.043c-0.041,0.075-0.135,0.037-0.187,0.09
							c-0.014,0.016-0.031,0.028-0.05,0.038c-0.021,0.007-0.042,0.009-0.063,0.008c-0.021-0.004-0.041-0.012-0.06-0.023
							c-0.117-0.083-0.184-0.202-0.233-0.332c0-0.06-0.007-0.121,0.014-0.181c0.051-0.062,0.102-0.122,0.196-0.089
							c0.017,0.016,0.029,0.036,0.035,0.059c0.003,0.037-0.008,0.069-0.037,0.093c-0.092,0.17-0.058,0.258,0.152,0.248
							C252.13,10.032,252.222,9.994,252.287,10.082z"/>
						<path fill="#C5A66B" d="M251.52,11.383c-0.019,0.116-0.107,0.179-0.193,0.242c-0.036-0.014-0.075-0.016-0.113-0.025
							c-0.03-0.01-0.054-0.027-0.076-0.05c-0.035-0.04-0.068-0.082-0.078-0.136c0.001-0.023,0.007-0.043,0.018-0.063
							c0.053-0.066,0.132-0.084,0.206-0.113C251.418,11.198,251.524,11.202,251.52,11.383z"/>
						<path fill="#B29763" d="M250.418,11.528c-0.019-0.03-0.038-0.061-0.057-0.091c-0.061-0.074-0.101-0.148,0.001-0.221
							c0.114-0.029,0.216-0.013,0.297,0.079c-0.042,0.073,0.081,0.08,0.059,0.146C250.662,11.622,250.56,11.643,250.418,11.528z"/>
						<path fill="#9B8153" d="M249.595,10.044c0.046-0.001,0.093-0.003,0.139-0.002c0.205,0.007,0.256-0.076,0.152-0.253
							c-0.042-0.033-0.046-0.075-0.028-0.122c0.014-0.021,0.033-0.031,0.058-0.032c0.093,0.022,0.139,0.087,0.162,0.175
							c0.017,0.087-0.004,0.169-0.039,0.248c-0.046,0.084-0.082,0.179-0.199,0.188c-0.081-0.044-0.182-0.042-0.256-0.105
							C249.567,10.106,249.565,10.073,249.595,10.044z"/>
						<path fill="#3380AF" d="M251.566,9.069c-0.014,0.006-0.028,0.009-0.043,0.01c-0.025,0.015-0.033,0.049-0.063,0.06
							c-0.02,0.002-0.039-0.002-0.057-0.012c-0.023-0.019-0.043-0.042-0.065-0.063c-0.07-0.035-0.147-0.015-0.219-0.03
							c-0.06-0.011-0.111-0.037-0.145-0.09c-0.02-0.048-0.011-0.094,0.004-0.141c0.024-0.059,0.063-0.099,0.131-0.102
							c0.034,0.002,0.064,0.015,0.089,0.037c0.034,0.035,0.065,0.075,0.113,0.094c0.019,0.007,0.037,0.014,0.056,0.021
							c0.093,0.024,0.177,0.059,0.214,0.158C251.586,9.034,251.581,9.053,251.566,9.069z"/>
						<path fill="#9D8760" d="M252.201,10.61c0.051,0.058,0.028,0.13,0.037,0.196c-0.105,0.172-0.254,0.293-0.435,0.378
							c-0.014-0.017-0.021-0.036-0.021-0.057c0.019-0.084,0.111-0.119,0.134-0.201c0.015-0.039,0.036-0.074,0.062-0.106
							C252.044,10.741,252.084,10.634,252.201,10.61z"/>
						<path fill="#3FA0D9" d="M250.212,8.912c0.048-0.048,0.167-0.007,0.156-0.127c0.069-0.061,0.143-0.068,0.223-0.025
							c0.023,0.022,0.039,0.049,0.029,0.082c-0.008,0.026-0.008,0.055,0.006,0.057c0.051,0.008,0.09,0.027,0.073,0.09
							c-0.03,0.03-0.067,0.044-0.108,0.05c-0.112,0.004-0.225,0.02-0.334-0.024C250.221,8.991,250.189,8.964,250.212,8.912z"/>
						<path fill="#8C764D" d="M251.087,11.425c0.03,0.034,0.06,0.068,0.091,0.102c-0.017,0.034-0.026,0.074-0.06,0.098
							c-0.025,0.014-0.054,0.022-0.08,0.034c-0.053,0.058-0.119,0.067-0.192,0.048c-0.026-0.058-0.038-0.118-0.027-0.182
							c0.01-0.042,0.029-0.08,0.062-0.109c0.019-0.011,0.04-0.017,0.062-0.018C250.996,11.379,251.023,11.502,251.087,11.425z"/>
						<path fill="#9A845B" d="M250.366,11.232c-0.051,0.067-0.007,0.136-0.005,0.204c-0.187-0.078-0.332-0.22-0.495-0.334
							c0.01-0.02,0.026-0.034,0.047-0.041c0.033-0.007,0.065-0.002,0.096,0.009c0.086,0.046,0.171,0.091,0.274,0.076
							C250.328,11.158,250.372,11.171,250.366,11.232z"/>
						<path fill="#A99877" d="M251.807,9.312c0.168,0.052,0.232,0.189,0.28,0.34c-0.083,0.043-0.138-0.028-0.205-0.051
							c-0.052-0.021-0.087-0.06-0.117-0.105c-0.018-0.028-0.031-0.057-0.039-0.089c-0.003-0.022-0.002-0.043,0.004-0.065
							C251.748,9.31,251.769,9.288,251.807,9.312z"/>
						<path fill="#5CA0CD" d="M250.212,8.912c0.019,0.024,0.038,0.049,0.057,0.073c0.026,0.029,0.029,0.063,0.016,0.098
							c-0.031,0.055-0.082,0.083-0.14,0.102c-0.057,0.017-0.114,0.032-0.168-0.006C249.962,9.02,249.962,9.02,250.212,8.912z"/>
						<path fill="#CFAE70" d="M249.485,10.709c-0.054-0.071-0.087-0.149-0.073-0.241c0.04-0.061,0.021-0.149,0.089-0.198
							c0.021-0.007,0.041-0.005,0.059,0.007c0.013,0.016,0.023,0.034,0.03,0.054c0.017,0.067,0.013,0.14,0.061,0.198
							c0.012,0.018,0.021,0.038,0.026,0.059c0,0.05-0.025,0.086-0.063,0.114C249.573,10.727,249.53,10.743,249.485,10.709z"/>
						<path fill="#AB9670" d="M249.485,10.709c0.037-0.015,0.075-0.031,0.112-0.046c0.064,0.022,0.1,0.075,0.137,0.126
							c0.05,0.081,0.116,0.152,0.163,0.236c0.007,0.021,0.006,0.042-0.003,0.063c-0.009,0.006-0.018,0.011-0.028,0.015
							C249.699,11.01,249.568,10.882,249.485,10.709z"/>
						<path fill="#56513D" d="M251.52,11.383c-0.047-0.118-0.132-0.137-0.242-0.095c-0.051,0.017-0.061-0.012-0.06-0.053
							c0.079-0.082,0.181-0.111,0.288-0.131c0.063,0.001,0.117,0.022,0.159,0.07c0.031,0.094-0.06,0.113-0.101,0.163
							C251.55,11.353,251.535,11.368,251.52,11.383z"/>
						<path fill="#625B4C" d="M250.418,11.528c0.137,0.086,0.216-0.029,0.312-0.089c0.019,0.014,0.03,0.032,0.033,0.055
							c0.007,0.07-0.015,0.131-0.059,0.185C250.545,11.748,250.48,11.641,250.418,11.528z"/>
						<path fill="#2873A1" d="M250.745,8.555c0.113,0.001,0.227,0.002,0.34,0.003c0.07,0.03,0.096,0.075,0.047,0.144
							c-0.06,0.012-0.119,0.033-0.182,0.029C250.858,8.699,250.746,8.692,250.745,8.555z"/>
						<path fill="#4687B1" d="M251.228,8.597c0.209-0.017,0.216,0.194,0.327,0.288c-0.078,0.031-0.156,0.035-0.233-0.004
							l0.002,0.002c-0.031-0.038-0.036-0.088-0.065-0.127C251.231,8.707,251.17,8.664,251.228,8.597z"/>
						<path fill="#3292CB" d="M250.745,8.555c0.037,0.091,0.142,0.07,0.202,0.123c-0.092,0.112-0.21,0.081-0.326,0.058
							c-0.057-0.026-0.109-0.055-0.06-0.13C250.607,8.534,250.677,8.547,250.745,8.555z"/>
						<path fill="#37739A" d="M250.561,8.605c0.008,0.027,0.016,0.055,0.025,0.082c0.019,0.008,0.033,0.022,0.04,0.042
							c0,0.021-0.008,0.039-0.022,0.054c-0.078,0-0.156,0-0.234,0.001C250.362,8.649,250.434,8.598,250.561,8.605z"/>
						<path fill="#877E58" d="M251.807,9.312c-0.02,0.019-0.039,0.038-0.059,0.056c-0.085,0.018-0.154-0.022-0.223-0.062
							c-0.015-0.011-0.029-0.024-0.042-0.038c-0.027-0.026-0.059-0.045-0.091-0.064c-0.016-0.011-0.028-0.026-0.036-0.044
							c-0.001-0.021,0.005-0.038,0.019-0.053c0.019-0.009,0.038-0.007,0.055,0.005l0.022,0.008c0.025-0.018,0.049-0.018,0.074,0
							C251.619,9.184,251.713,9.248,251.807,9.312z"/>
						<path fill="#4D9DCF" d="M251.566,9.069c0-0.014-0.001-0.029-0.001-0.043c-0.03-0.038-0.03-0.075,0.004-0.11
							c0.098-0.006,0.162,0.06,0.233,0.111c0.037,0.058,0.039,0.099-0.047,0.097C251.692,9.106,251.629,9.088,251.566,9.069z"/>
						<path fill="#C6B087" d="M249.881,9.652c0.002,0.046,0.003,0.092,0.005,0.138c-0.065-0.044-0.324,0.18-0.192-0.138
							C249.756,9.599,249.819,9.614,249.881,9.652z"/>
						<path fill="#A18A61" d="M249.914,9.343c0.007-0.04,0.023-0.073,0.064-0.088c0.038-0.043,0.083-0.071,0.143-0.067
							c0.035,0.01,0.057,0.031,0.06,0.07c-0.023,0.092-0.081,0.158-0.159,0.208c-0.053,0.01-0.088-0.013-0.114-0.056
							C249.901,9.386,249.902,9.364,249.914,9.343z"/>
						<path fill="#A08756" d="M249.552,10.281c-0.085,0.033-0.048,0.158-0.139,0.187c-0.014-0.116-0.005-0.228,0.058-0.331
							c0.04-0.006,0.071,0.008,0.095,0.041C249.579,10.215,249.576,10.25,249.552,10.281z"/>
						<path fill="#B29763" d="M250.704,11.679c-0.005-0.08-0.014-0.161,0.037-0.233c0.02,0.002,0.039,0.009,0.056,0.019
							c0.026,0.017,0.046,0.038,0.055,0.068c0.044,0.06,0.033,0.118-0.006,0.175C250.798,11.698,250.751,11.688,250.704,11.679z"/>
						<path fill="#B6AC99" d="M249.914,9.343c0.006,0.026,0.012,0.052,0.018,0.077c0.026,0.046,0.087,0.082,0.047,0.149
							c-0.019,0.014-0.039,0.024-0.062,0.029c-0.048,0.002-0.095,0.001-0.127-0.043C249.787,9.459,249.755,9.345,249.914,9.343z"/>
						<path fill="#3A82AE" d="M251.228,8.597c-0.004,0.071,0.065,0.091,0.097,0.137c-0.034,0.056-0.079,0.082-0.144,0.053
							c-0.017-0.017-0.034-0.034-0.051-0.05c-0.017-0.012-0.022-0.023-0.016-0.034c0.006-0.011,0.012-0.016,0.017-0.016
							c-0.015-0.043-0.031-0.086-0.046-0.129C251.139,8.549,251.184,8.569,251.228,8.597z"/>
						<path fill="#BFB095" d="M249.789,9.556c0.051,0.003,0.102,0.006,0.153,0.008c0.007,0.044-0.016,0.07-0.051,0.091l-0.011-0.003
							c-0.062,0.046-0.125,0-0.187,0C249.687,9.581,249.739,9.569,249.789,9.556z"/>
						<path fill="#CFAE70" d="M251.898,9.788c0.001-0.032,0.001-0.064,0.002-0.097c0.065-0.046,0.127-0.036,0.188,0.009
							C252.105,9.817,252.105,9.817,251.898,9.788z"/>
						<path fill="#C5A66B" d="M251.565,11.337c0.001-0.071,0.072-0.093,0.102-0.144c0.004-0.049,0.036-0.071,0.08-0.083
							c0.021-0.001,0.041,0.004,0.058,0.017c-0.001,0.019-0.001,0.038-0.002,0.057C251.737,11.255,251.671,11.327,251.565,11.337z"
							/>
						<path fill="#917D57" d="M252.088,9.7c-0.063-0.003-0.125-0.006-0.188-0.008c-0.001-0.017-0.002-0.035-0.002-0.052
							c-0.025-0.031-0.026-0.06,0.005-0.088c0.062,0.033,0.123,0.066,0.185,0.1C252.087,9.668,252.088,9.684,252.088,9.7z"/>
						<path fill="#42A3DC" d="M251.569,8.916c-0.001,0.037-0.003,0.073-0.004,0.11c-0.046-0.106-0.176-0.072-0.242-0.145
							c0.078,0.001,0.155,0.002,0.233,0.004C251.565,8.893,251.569,8.904,251.569,8.916z"/>
						<path fill="#A68C5A" d="M249.541,10.18c-0.023-0.014-0.047-0.028-0.07-0.042c0.011-0.072,0.05-0.106,0.124-0.093
							c0,0.027,0,0.053,0,0.08C249.61,10.175,249.591,10.192,249.541,10.18z"/>
						<path fill="#5D93B6" d="M251.755,9.125c0.039-0.021,0.048-0.057,0.047-0.097c0.086,0.023,0.07,0.1,0.094,0.165
							C251.831,9.19,251.787,9.171,251.755,9.125z"/>
						<path fill="#F9F9F9" d="M250.118,9.217c-0.047,0.013-0.094,0.025-0.14,0.038c0-0.025,0-0.05,0-0.075
							c0.049-0.021,0.099-0.041,0.148-0.062C250.15,9.153,250.152,9.186,250.118,9.217z"/>
						<path fill="#82765E" d="M251.038,11.659c0.017-0.013,0.035-0.027,0.052-0.04c0.056-0.043,0.098-0.016,0.137,0.028
							c0.003,0.01,0.005,0.021,0.008,0.031C251.161,11.749,251.104,11.66,251.038,11.659z"/>
						<path fill="#82765E" d="M251.221,11.565c0.087-0.071,0.098-0.007,0.106,0.06c-0.019,0.04-0.056,0.045-0.093,0.052
							c-0.006-0.008-0.011-0.017-0.016-0.025C251.211,11.623,251.218,11.594,251.221,11.565z"/>
						<path fill="#7C6A47" d="M251.526,9.12c-0.025,0-0.049,0-0.074,0c0.024-0.014,0.048-0.027,0.071-0.041
							C251.519,9.093,251.52,9.106,251.526,9.12z"/>
						<path fill="#534A38" d="M252.201,10.61c-0.067,0.084-0.133,0.168-0.2,0.251c-0.053-0.052-0.099,0.026-0.151,0.007
							c-0.032-0.012-0.056-0.034-0.071-0.065c-0.012-0.033-0.011-0.067,0.001-0.1c0.016-0.031,0.04-0.054,0.072-0.069
							c0.096-0.009,0.16-0.055,0.175-0.155c0.01-0.046,0.025-0.089,0.062-0.12c0.023-0.008,0.046-0.006,0.067,0.007
							c0.038,0.063,0.053,0.13,0.038,0.203C252.195,10.583,252.198,10.597,252.201,10.61z"/>
						<path fill="#5E5441" d="M252.194,10.57c-0.035-0.061-0.059-0.126-0.053-0.198c-0.006-0.008-0.012-0.016-0.018-0.024
							c0.006-0.008,0.012-0.016,0.019-0.024C252.286,10.379,252.238,10.475,252.194,10.57z"/>
						<path fill="#C9A96D" d="M252.045,10.172c0.07-0.067,0.16-0.027,0.239-0.048c0.003,0.104-0.07,0.103-0.143,0.102
							c-0.01,0-0.02,0-0.03,0C252.081,10.219,252.062,10.197,252.045,10.172z"/>
						<path fill="#C0A36F" d="M252.141,10.227c0,0.017-0.001,0.034-0.001,0.05c-0.02,0.014-0.039,0.013-0.057-0.004
							c-0.003-0.041,0.009-0.063,0.055-0.047L252.141,10.227z"/>
						<path fill="#342E23" d="M252.093,10.275c0.016,0,0.032,0.001,0.047,0.002c0.002,0.015,0.002,0.031,0.001,0.046h-0.001
							c-0.008,0.007-0.016,0.014-0.023,0.021c-0.01-0.004-0.019-0.008-0.029-0.012C252.079,10.313,252.081,10.294,252.093,10.275z"
							/>
						<path fill="#72644A" d="M251.708,9.889c0.082,0.112,0.163,0.224,0.245,0.337c-0.041,0.023-0.09,0.008-0.132,0.031
							c-0.076,0.002-0.121-0.041-0.152-0.105c-0.009-0.022-0.014-0.044-0.018-0.067c-0.003-0.024-0.004-0.047-0.003-0.071
							C251.654,9.966,251.665,9.92,251.708,9.889z"/>
						<path fill="#5F5749" d="M251.902,9.552c-0.002,0.029-0.003,0.059-0.005,0.088c-0.062,0.036-0.124,0.072-0.186,0.108
							c-0.045-0.033-0.049-0.08-0.044-0.129c0.012-0.06,0.03-0.117,0.072-0.163c0.021-0.017,0.043-0.017,0.064,0.001
							C251.837,9.488,251.869,9.52,251.902,9.552z"/>
						<path fill="#625742" d="M251.85,10.231c0.032-0.053,0.068-0.007,0.102-0.005c0.015,0.001,0.03,0.002,0.044,0.002
							c0.017,0.018,0.03,0.039,0.039,0.062c0.01,0.075,0.021,0.15-0.06,0.197c-0.024,0.007-0.048,0.006-0.072-0.002
							c-0.055-0.037-0.069-0.097-0.083-0.156C251.817,10.293,251.825,10.259,251.85,10.231z"/>
						<path fill="#D7D6D4" d="M251.703,9.604c0.003,0.048,0.006,0.096,0.009,0.144c-0.001,0.047-0.003,0.094-0.004,0.141
							c-0.001,0.053-0.002,0.106-0.004,0.16c-0.023,0.005-0.044,0-0.062-0.015c-0.014-0.018-0.024-0.038-0.031-0.06
							c-0.015-0.077-0.022-0.155-0.027-0.233C251.598,9.673,251.605,9.599,251.703,9.604z"/>
						<path fill="#544C3B" d="M252.093,10.275c0.002,0.016,0.003,0.031,0.002,0.047c-0.037,0.02-0.056,0.002-0.07-0.03
							c-0.003-0.021,0-0.041,0.01-0.06c0.003-0.02,0.007-0.04,0.01-0.06c0.039,0.005,0.08,0.007,0.094,0.054
							C252.123,10.243,252.108,10.259,252.093,10.275z"/>
						<path fill="#C2A470" d="M252.035,10.232c0.006,0.012,0.009,0.026,0.009,0.039c-0.014,0.026-0.029,0.027-0.046,0.002
							c-0.002-0.015-0.002-0.03-0.001-0.046C252.009,10.229,252.022,10.231,252.035,10.232z"/>
						<path fill="#6F6044" d="M251.087,11.425c-0.041,0.161-0.098-0.01-0.146,0.007c-0.017-0.016-0.026-0.036-0.026-0.059
							c0.015-0.053,0.053-0.07,0.105-0.064c0.035,0.012,0.057,0.036,0.064,0.074C251.083,11.396,251.084,11.41,251.087,11.425z"/>
						<path fill="#676555" d="M251.084,11.381c-0.017-0.017-0.033-0.034-0.05-0.052c0.029-0.118,0.098-0.132,0.195-0.077
							c0.016,0.012,0.033,0.024,0.049,0.036C251.214,11.319,251.149,11.35,251.084,11.381z"/>
						<path fill="#6F6044" d="M251.221,11.565c0.053,0.031,0.019,0.059-0.003,0.087c-0.043-0.011-0.086-0.022-0.129-0.033
							c0.013-0.046,0.042-0.077,0.088-0.092C251.192,11.539,251.207,11.552,251.221,11.565z"/>
						<path fill="#45A4DA" d="M251.229,11.253c-0.063,0.032-0.147,0.009-0.195,0.077c-0.032,0.017-0.064,0.034-0.096,0.05
							c-0.114,0.071-0.192-0.032-0.286-0.06c-0.096-0.029-0.191-0.059-0.287-0.088c-0.016-0.044-0.053-0.046-0.091-0.047
							c-0.028-0.013-0.061-0.017-0.084-0.039c-0.055-0.078-0.134-0.133-0.2-0.201c-0.047-0.07-0.091-0.141-0.09-0.23
							c0.01-0.059,0.049-0.091,0.102-0.11c0.231-0.035,0.461-0.043,0.691,0.006c0.128,0.07,0.038,0.139-0.002,0.208
							c-0.036,0.058-0.008,0.098,0.039,0.132c0.125,0.109,0.256,0.037,0.385,0.013c0.024-0.032,0.041-0.066,0.043-0.107
							c0.008-0.067-0.021-0.136,0.011-0.202c0.018-0.02,0.039-0.034,0.064-0.044c0.204-0.01,0.416-0.092,0.6,0.068
							c-0.009,0.042-0.018,0.085-0.027,0.127c0.02,0.045,0.003,0.085-0.016,0.124c-0.06,0.108-0.138,0.194-0.268,0.214
							C251.425,11.18,251.327,11.216,251.229,11.253z"/>
						<path fill="#5B5445" d="M250.653,11.32c0.111-0.055,0.184,0.072,0.286,0.06c0.001,0.017,0.002,0.034,0.003,0.052
							c-0.019,0.002-0.038,0.003-0.057,0.005c-0.042,0.026-0.077,0.078-0.137,0.036c0.003-0.01,0.001-0.018-0.007-0.026
							l-0.012-0.008C250.728,11.384,250.604,11.408,250.653,11.32z"/>
						<path fill="#8A7855" d="M249.833,10.226c0.089-0.034,0.106-0.125,0.151-0.194c0.067-0.006,0.08,0.044,0.094,0.093
							c0.008,0.065-0.006,0.123-0.052,0.171c-0.038,0.033-0.081,0.052-0.132,0.051c-0.06-0.014-0.112-0.038-0.117-0.111
							C249.792,10.216,249.811,10.213,249.833,10.226z"/>
						<path fill="#867453" d="M249.892,9.655c0.017-0.03,0.034-0.061,0.051-0.091c0.01-0.008,0.021-0.015,0.034-0.019
							c0.022-0.011,0.044-0.011,0.067-0.002c0.042,0.027,0.066,0.067,0.077,0.115c0.007,0.049,0.002,0.095-0.03,0.136
							c-0.021,0.016-0.042,0.016-0.063,0.001C249.997,9.735,249.954,9.686,249.892,9.655z"/>
						<path fill="#BD9F66" d="M249.833,10.226c-0.017,0.003-0.034,0.006-0.051,0.01c-0.074,0.022-0.145,0.061-0.227,0.043
							l-0.003,0.002c-0.004-0.034-0.007-0.068-0.011-0.102c0.018-0.018,0.036-0.037,0.054-0.055
							C249.676,10.154,249.805,10.071,249.833,10.226z"/>
						<path fill="#706845" d="M250.027,9.796c0.016-0.002,0.031-0.002,0.047,0c0.028,0.019,0.042,0.047,0.051,0.078
							c0.012,0.052,0.018,0.104,0.025,0.156c0.001,0.022-0.003,0.043-0.011,0.063c-0.025,0.038-0.058,0.063-0.107,0.059
							c-0.017-0.04-0.033-0.08-0.05-0.119C250.023,9.958,250.028,9.878,250.027,9.796z"/>
						<path fill="#BFA76C" d="M250.603,8.982c0.031-0.004,0.061-0.009,0.091-0.013c0.041-0.055,0.09-0.097,0.157-0.116
							c0.064-0.011,0.11,0.015,0.139,0.071c0.047,0.021,0.094,0.042,0.141,0.062c0.012,0.021,0.012,0.043,0.001,0.065
							c-0.036,0.051-0.089,0.071-0.148,0.081c-0.066,0.009-0.133,0.005-0.2,0.012c-0.034,0.004-0.065,0.017-0.098,0.024
							c-0.023,0.006-0.046,0.01-0.069,0.013c-0.074,0.005-0.146,0.006-0.209-0.042c-0.016-0.02-0.024-0.043-0.023-0.068
							C250.421,8.95,250.542,9.038,250.603,8.982z"/>
						<path fill="#94A6B8" d="M251.131,8.687c0,0.017-0.001,0.034-0.001,0.05c-0.054,0.004-0.092,0.026-0.098,0.086
							c-0.07,0.084-0.166-0.024-0.24,0.032c-0.083-0.005-0.133-0.064-0.189-0.114c-0.006-0.018-0.011-0.036-0.017-0.053
							c0.12-0.003,0.241-0.007,0.361-0.01C251.008,8.68,251.07,8.684,251.131,8.687z"/>
						<path fill="#8E8662" d="M251.43,9.112c-0.016,0.002-0.032,0.005-0.049,0.007c-0.024,0.022-0.036,0.057-0.072,0.068
							c-0.024,0-0.046-0.005-0.067-0.016c-0.044-0.048-0.133-0.087-0.038-0.166c0.07,0.005,0.144-0.024,0.21,0.022
							C251.42,9.055,251.425,9.084,251.43,9.112z"/>
						<path fill="#3FA2DB" d="M251.18,8.787c0.048-0.018,0.096-0.035,0.144-0.053c0.072,0.049,0.014,0.099,0,0.148
							C251.257,8.881,251.184,8.887,251.18,8.787z"/>
						<path fill="#2F6F96" d="M250.79,8.823c0.081-0.077,0.161,0.024,0.242,0c-0.013,0.033-0.027,0.067-0.04,0.101
							c-0.048-0.009-0.097-0.017-0.145-0.026C250.799,8.894,250.776,8.872,250.79,8.823z"/>
						<path fill="#FCFCFC" d="M251.415,9.027c-0.079,0.001-0.159,0.002-0.238,0.004c-0.018,0.011-0.031,0.007-0.041-0.012
							c-0.002-0.011-0.003-0.022-0.003-0.033C251.228,8.996,251.334,8.93,251.415,9.027z"/>
						<path fill="#4A473B" d="M251.752,10.898c0.019-0.031,0.037-0.062,0.056-0.093c0.016,0.016,0.031,0.033,0.047,0.049
							c0.046,0.016,0.077,0.046,0.087,0.095c0.039,0.124-0.106,0.107-0.137,0.178c-0.017,0.002-0.033,0.003-0.05,0.005
							C251.667,11.056,251.772,10.976,251.752,10.898z"/>
						<path fill="#483F2F" d="M251.942,10.949c-0.029-0.032-0.058-0.063-0.087-0.095c0.049,0.01,0.106-0.159,0.147,0.007
							C251.981,10.891,251.962,10.92,251.942,10.949z"/>
						<path fill="#3980AC" d="M250.79,8.823c0.019,0.025,0.038,0.05,0.056,0.075c-0.037,0.052-0.086,0.08-0.151,0.071
							c-0.05-0.063-0.13-0.023-0.196-0.052c0.038-0.047,0.117-0.055,0.104-0.132c0-0.014-0.001-0.029,0-0.043
							C250.683,8.728,250.739,8.769,250.79,8.823z"/>
						<path fill="#7CA2BA" d="M250.603,8.982c-0.065,0.029-0.131,0.057-0.196,0.086c-0.022,0.033-0.053,0.042-0.09,0.037
							c-0.023-0.008-0.039-0.022-0.047-0.045c0-0.025,0-0.049-0.001-0.074C250.381,8.984,250.492,8.983,250.603,8.982z"/>
						<path fill="#C2A369" d="M250.748,11.472c0.046-0.012,0.091-0.024,0.137-0.036c-0.011,0.032-0.022,0.064-0.032,0.096
							C250.809,11.526,250.768,11.518,250.748,11.472z"/>
						<path fill="#554D38" d="M249.937,10.743c0.063,0.052,0.081,0.127,0.1,0.201c-0.019,0.027,0.002,0.052,0.006,0.077
							c-0.007,0.04-0.028,0.067-0.069,0.076c-0.027-0.003-0.054-0.006-0.081-0.009c-0.009-0.012-0.016-0.025-0.019-0.039
							c-0.02-0.086-0.104-0.167-0.02-0.261C249.877,10.762,249.903,10.745,249.937,10.743z"/>
						<path fill="#2B261D" d="M249.974,11.097c0.019-0.032,0.037-0.064,0.056-0.096c0.112-0.026,0.128,0.089,0.193,0.132
							c0.017,0.017,0.035,0.035,0.052,0.052C250.132,11.302,250.069,11.145,249.974,11.097z"/>
						<path fill="#B6BCB2" d="M251.804,9.456c-0.018,0.001-0.037,0.002-0.055,0.004c-0.019,0.047-0.05,0.076-0.105,0.069
							c-0.071-0.015-0.138-0.034-0.153-0.12c0.002-0.024,0.012-0.045,0.028-0.062c0.089-0.03,0.158,0.019,0.229,0.06
							C251.767,9.423,251.785,9.44,251.804,9.456z"/>
						<path fill="#2F7538" d="M251.748,9.406c-0.084,0.022-0.154-0.031-0.231-0.043c-0.016-0.015-0.025-0.033-0.027-0.054
							c0.002-0.01,0.004-0.021,0.007-0.031c0.007-0.008,0.014-0.015,0.021-0.023c0.074,0.044,0.173,0.035,0.23,0.113
							C251.751,9.381,251.751,9.394,251.748,9.406z"/>
						<path fill="#917C56" d="M250.27,9.059c0.024,0.007,0.047,0.013,0.071,0.02c0.014,0.035,0.041,0.065,0.045,0.105
							c-0.002,0.02-0.01,0.038-0.023,0.053c-0.051,0.037-0.107,0.054-0.17,0.041c-0.007-0.007-0.014-0.015-0.021-0.022
							c-0.018-0.013-0.036-0.026-0.054-0.04c0.002-0.033,0.005-0.066,0.007-0.099C250.184,9.124,250.226,9.088,250.27,9.059z"/>
						<path fill="#5C503B" d="M249.937,10.743c-0.018,0.021-0.036,0.041-0.054,0.062c-0.064,0.006-0.128,0.036-0.191-0.001
							c-0.031-0.047-0.062-0.094-0.094-0.141c0.051-0.012,0.084-0.04,0.087-0.095c0.065-0.069,0.137-0.02,0.207-0.014
							c0.032,0.008,0.061,0.02,0.085,0.042c0.014,0.019,0.013,0.038,0,0.057C249.93,10.668,249.936,10.706,249.937,10.743z"/>
						<path fill="#514837" d="M249.592,10.558c-0.089-0.066-0.034-0.154-0.035-0.233c0.089-0.051,0.168-0.03,0.243,0.03
							c0.016,0.064,0.144,0.091,0.061,0.187C249.772,10.565,249.679,10.51,249.592,10.558z"/>
						<path fill="#584E3B" d="M249.789,10.373c-0.077-0.016-0.155-0.032-0.232-0.048c-0.003-0.015-0.004-0.03-0.002-0.045
							c0.067-0.061,0.131-0.138,0.227-0.043c0.035,0.029,0.069,0.059,0.104,0.088C249.884,10.4,249.845,10.403,249.789,10.373z"/>
						<path fill="#887757" d="M249.592,10.558c0.084-0.084,0.192-0.022,0.286-0.048c0.017,0.013,0.027,0.03,0.031,0.05
							c-0.002,0.021-0.011,0.039-0.027,0.053c-0.066-0.015-0.132-0.031-0.198-0.046C249.654,10.564,249.623,10.561,249.592,10.558z"
							/>
						<path fill="#60533C" d="M249.691,10.804c0.064-0.026,0.128-0.083,0.191,0.001c-0.078,0.079,0.064,0.165-0.008,0.244
							C249.78,10.992,249.73,10.902,249.691,10.804z"/>
						<path fill="#38342B" d="M251.752,10.898c0.09,0.077-0.022,0.157,0.004,0.234c-0.029,0.02-0.059,0.04-0.088,0.061
							c-0.048-0.017-0.096-0.033-0.145-0.05C251.599,11.061,251.675,10.98,251.752,10.898z"/>
						<path fill="#37964D" d="M251.513,9.221c0.002,0.011,0.004,0.023,0.005,0.035l-0.003,0.01
							c-0.012,0.016-0.023,0.033-0.032,0.051c-0.009,0.005-0.018,0.01-0.027,0.014c-0.021,0-0.039-0.008-0.053-0.024
							c-0.009-0.019-0.012-0.039-0.01-0.06c0.006-0.021,0.018-0.036,0.037-0.047C251.459,9.195,251.49,9.193,251.513,9.221z"/>
						<path fill="#1D5126" d="M251.513,9.221c-0.03-0.003-0.06-0.006-0.09-0.009c-0.013-0.007-0.018-0.016-0.017-0.026
							c0.002-0.011,0.004-0.017,0.007-0.017C251.457,9.166,251.491,9.181,251.513,9.221z"/>
						<path fill="#1C7233" d="M251.317,9.158c0.021-0.013,0.043-0.026,0.064-0.039c-0.002,0.014-0.003,0.029-0.003,0.043
							c0.015,0.02,0.015,0.041,0.002,0.063c-0.022,0.009-0.044,0.008-0.066-0.004C251.303,9.2,251.303,9.179,251.317,9.158z"/>
						<path fill="#239E46" d="M251.361,9.208c0.006-0.015,0.011-0.031,0.017-0.046c0.012,0.002,0.023,0.005,0.035,0.007
							c0.004,0.014,0.008,0.028,0.01,0.042l-0.011,0.01C251.391,9.233,251.374,9.228,251.361,9.208z"/>
						<path fill="#31753C" d="M250.028,9.451c-0.002-0.102,0.08-0.142,0.144-0.195l-0.002,0.015c0.045,0.019,0.11,0.011,0.112,0.086
							c-0.029,0.081-0.101,0.1-0.172,0.121c-0.021,0.004-0.041,0.002-0.062-0.003C250.042,9.467,250.035,9.459,250.028,9.451z"/>
						<path fill="#BDBCBB" d="M250.023,9.565c-0.016-0.006-0.031-0.013-0.047-0.019c-0.015-0.042-0.03-0.084-0.045-0.125
							c0.032,0.01,0.064,0.021,0.096,0.031l-0.001,0.01C250.056,9.497,250.052,9.531,250.023,9.565z"/>
						<path fill="#359653" d="M251.834,10.678c-0.216-0.061-0.435-0.029-0.653-0.014c-0.08,0.001-0.077-0.051-0.068-0.107
							c0.117-0.172,0.308-0.075,0.459-0.126c0.035-0.009,0.071-0.01,0.107-0.008c0.065,0.015,0.139-0.003,0.193,0.052
							c0.029,0.04,0.035,0.084,0.021,0.131c-0.011,0.02-0.024,0.039-0.04,0.056C251.847,10.67,251.841,10.675,251.834,10.678z"/>
						<path fill="#645740" d="M251.852,10.662c0-0.02,0-0.04,0-0.06c0.051-0.031-0.002-0.105,0.054-0.134
							c0.016,0.001,0.032,0.001,0.048,0.002c0.041,0.03,0.105-0.005,0.138,0.049C252.051,10.632,251.991,10.714,251.852,10.662z"/>
						<path fill="#4C4434" d="M252.092,10.519c-0.044-0.022-0.128,0.068-0.138-0.049c0.061-0.055,0.037-0.129,0.043-0.197
							c0.015,0,0.03-0.001,0.046-0.002c0.017,0.017,0.034,0.034,0.052,0.051l-0.002,0.001c0.014,0.011,0.019,0.021,0.014,0.032
							c-0.005,0.011-0.01,0.016-0.014,0.016C252.093,10.421,252.092,10.47,252.092,10.519z"/>
						<path fill="#534A39" d="M252.093,10.372c0-0.016,0-0.032,0-0.048c0.016,0,0.032,0,0.048,0c0,0.016,0,0.032,0,0.048
							C252.125,10.372,252.109,10.372,252.093,10.372z"/>
						<path fill="#BEA985" d="M251.659,9.976c0.004,0.021,0.008,0.043,0.012,0.064c0.009,0.015,0.023,0.024,0.04,0.026
							c-0.003,0.022-0.006,0.044-0.009,0.066c-0.026,0.088-0.007,0.192-0.092,0.259c-0.174,0.036-0.228-0.107-0.31-0.209
							c-0.021-0.047-0.023-0.094-0.001-0.14C251.414,9.989,251.498,9.766,251.659,9.976z"/>
						<path fill="#9E8557" d="M251.614,10.373c0.008-0.089-0.017-0.189,0.089-0.242c0.029,0.064,0.078,0.097,0.148,0.1
							c0,0.031,0.001,0.062,0.001,0.093c-0.003,0.01-0.006,0.02-0.008,0.03c-0.032,0.046-0.077,0.066-0.132,0.068
							C251.677,10.41,251.604,10.474,251.614,10.373z"/>
						<path fill="#6C8FAB" d="M251.712,10.065c-0.013-0.009-0.027-0.017-0.04-0.026c0.011,0.003,0.022,0.006,0.033,0.009
							C251.704,10.049,251.712,10.065,251.712,10.065z"/>
						<path fill="#B8BFC5" d="M251.66,9.506c0.03-0.015,0.06-0.031,0.089-0.046c-0.007,0.051,0.017,0.111-0.046,0.144
							c-0.029,0.049-0.059,0.098-0.088,0.146c-0.029,0.024-0.061,0.027-0.095,0.013c-0.017-0.015-0.029-0.034-0.036-0.056
							c0.003-0.076-0.021-0.159,0.047-0.221C251.575,9.485,251.621,9.472,251.66,9.506z"/>
						<path fill="#987F52" d="M251.906,10.468c-0.011,0.047,0.009,0.108-0.054,0.134c0-0.041-0.001-0.081-0.001-0.121
							c-0.044-0.054-0.034-0.106,0.003-0.158l-0.002,0.002C251.91,10.357,251.896,10.417,251.906,10.468z"/>
						<path fill="#F2F4F7" d="M251.52,9.741c0.032,0.003,0.063,0.006,0.095,0.009c0.07,0.064,0.029,0.15,0.045,0.225
							c-0.049,0.015-0.104-0.139-0.153,0.01c-0.028,0.085-0.115,0.053-0.181,0.058c-0.051-0.012-0.08-0.049-0.104-0.092
							c-0.021-0.046-0.031-0.093-0.011-0.142C251.296,9.706,251.408,9.724,251.52,9.741z"/>
						<path fill="#259D48" d="M249.977,10.652c-0.001-0.013-0.004-0.025-0.011-0.036c-0.044-0.078-0.033-0.146,0.034-0.206
							c0.02-0.014,0.043-0.023,0.068-0.028c0.083-0.002,0.164,0.019,0.247,0.016c0.093,0.006,0.182-0.044,0.277-0.021
							c0.081,0.023,0.162,0.044,0.218,0.114c0.02,0.031,0.028,0.066,0.025,0.103c-0.005,0.024-0.015,0.045-0.03,0.063
							c-0.02,0.015-0.042,0.017-0.065,0.008C250.485,10.661,250.231,10.657,249.977,10.652z"/>
						<path fill="#0E1F2D" d="M251.18,10.989c-0.09,0.188-0.272,0.015-0.397,0.096c-0.033,0.021-0.105-0.055-0.07-0.134
							c0.007-0.007,0.013-0.015,0.02-0.022c0.028-0.013,0.058-0.014,0.088-0.01c0.05,0.012,0.1-0.002,0.151-0.001
							C251.046,10.927,251.124,10.927,251.18,10.989z"/>
						<path fill="#738491" d="M251.18,10.989c-0.087,0.027-0.165,0-0.24-0.041c-0.013-0.012-0.019-0.027-0.019-0.044
							c0.003-0.025,0.009-0.05,0.014-0.075c0.002-0.018,0.006-0.035,0.01-0.052c0.005-0.018,0.012-0.034,0.022-0.05
							c0.013-0.015,0.028-0.024,0.047-0.028c0.051,0.01,0.076,0.053,0.109,0.086c0.033,0.033,0.076,0.057,0.092,0.105
							C251.202,10.923,251.191,10.956,251.18,10.989z"/>
						<path fill="#809195" d="M251.099,10.817c-0.029-0.036-0.058-0.072-0.087-0.108c-0.009,0.007-0.018,0.013-0.027,0.02
							c-0.014-0.018-0.019-0.039-0.019-0.062c0.008-0.033,0.027-0.059,0.052-0.082c0.036-0.024,0.072-0.051,0.116-0.016
							c0.015,0.032,0.031,0.063,0.046,0.095c0.002,0.021,0.003,0.042,0.005,0.063C251.215,10.813,251.175,10.833,251.099,10.817z"/>
						<path fill="#D8DBDE" d="M250.739,10.666c0.018-0.004,0.036-0.008,0.054-0.011c0.01,0,0.019,0,0.029,0
							c0.019,0.003,0.037,0.01,0.055,0.02c0.017,0.012,0.029,0.027,0.039,0.045c0.006,0.02,0.007,0.04,0.004,0.061
							c-0.004,0.01-0.008,0.019-0.013,0.029c-0.015,0.016-0.032,0.028-0.052,0.037c-0.031,0.011-0.063,0.016-0.096,0.017
							c-0.057,0.001-0.109-0.012-0.15-0.057C250.653,10.758,250.696,10.712,250.739,10.666z"/>
						<path fill="#A0A5AB" d="M250.61,10.805c0.063,0.002,0.126,0.005,0.189,0.007c0.011,0.019,0.011,0.039,0,0.058
							c-0.028,0.031-0.071,0.043-0.095,0.079l0.009,0.002C250.499,11.028,250.603,10.883,250.61,10.805z"/>
						<path fill="#5C5440" d="M250.223,11.133c-0.064-0.044-0.128-0.088-0.193-0.132c-0.034-0.023-0.029-0.042,0.007-0.057
							C250.138,10.969,250.193,11.038,250.223,11.133z"/>
						<path fill="#1E2F52" d="M251.099,10.817c0.056-0.004,0.103-0.017,0.087-0.09c0.057,0.046,0.029,0.107,0.027,0.163
							C251.203,10.822,251.087,10.919,251.099,10.817z"/>
						<path fill="#43A1D7" d="M250.072,10.411c-0.015,0.006-0.03,0.012-0.045,0.018c-0.026,0.012-0.048,0.007-0.066-0.016
							c-0.019-0.051-0.026-0.098,0.031-0.131c0.042-0.034,0.04-0.082,0.042-0.129c0.025-0.024,0.05-0.049,0.074-0.074
							c0.068-0.048,0.141-0.072,0.224-0.048c0.088,0.03,0.107,0.084,0.056,0.162C250.31,10.307,250.226,10.41,250.072,10.411z"/>
						<path fill="#887D61" d="M249.991,10.281c-0.006,0.045-0.011,0.091-0.017,0.136c-0.042,0.042,0.031,0.155-0.091,0.148
							c-0.002-0.018-0.003-0.037-0.005-0.055c-0.012-0.057-0.171-0.02-0.089-0.137c0.039-0.002,0.075-0.011,0.097-0.049
							C249.921,10.31,249.956,10.296,249.991,10.281z"/>
						<path fill="#B3B9BE" d="M250.023,9.565c0.001-0.034,0.002-0.069,0.004-0.103c0.014-0.004,0.028-0.006,0.042-0.006
							c0.121-0.062,0.205,0.017,0.295,0.078c0.019,0.012,0.035,0.026,0.051,0.041c0.014,0.017,0.023,0.037,0.028,0.059
							c0.001,0.022-0.002,0.043-0.011,0.064c-0.012,0.018-0.028,0.033-0.046,0.045c-0.028,0.016-0.059,0.026-0.092,0.029
							c-0.021-0.001-0.042-0.005-0.062-0.013c-0.056-0.027-0.11-0.057-0.149-0.108C250.063,9.621,250.043,9.593,250.023,9.565z"/>
						<path fill="#A7ABAD" d="M250.084,9.65c0.078-0.006,0.143,0.016,0.185,0.086c-0.041,0.072-0.085,0.14-0.179,0.147
							c-0.005-0.029-0.01-0.058-0.016-0.087C250.077,9.747,250.08,9.698,250.084,9.65z"/>
						<path fill="#DFDBA0" d="M250.09,9.883c0.03-0.085,0.07-0.158,0.179-0.147l-0.001,0.013c0.097,0.043,0.109,0.119,0.081,0.211
							c-0.064,0.085-0.158,0.068-0.246,0.071C250.098,9.981,250.094,9.932,250.09,9.883z"/>
						<path fill="#BCB827" d="M250.103,10.03c0.059-0.062,0.13-0.07,0.208-0.048c0.038-0.017,0.058,0.005,0.073,0.035
							c0.004,0.022-0.001,0.042-0.013,0.06c-0.088,0-0.176,0-0.264,0.001C250.106,10.062,250.104,10.046,250.103,10.03z"/>
						<path fill="#2D8943" d="M250.359,9.211c-0.002-0.019-0.004-0.038-0.006-0.058c0.004-0.034,0.02-0.052,0.057-0.043
							c0.079,0.006,0.159,0.012,0.238,0.018c0.021,0.071-0.039,0.091-0.079,0.123c-0.038,0.022-0.078,0.04-0.122,0.048
							c-0.035,0.003-0.067-0.004-0.093-0.028C250.341,9.251,250.344,9.23,250.359,9.211z"/>
						<path fill="#297438" d="M251.137,9.019c0.014,0.003,0.028,0.007,0.041,0.012c0.032,0.047,0.065,0.094,0.097,0.142
							c-0.008,0.008-0.016,0.017-0.024,0.025c-0.095,0.043-0.183,0.037-0.259-0.042c-0.013-0.021-0.014-0.043-0.004-0.066
							C251.037,9.066,251.087,9.043,251.137,9.019z"/>
						<path fill="#A0A4A0" d="M250.55,9.216c0.032-0.029,0.065-0.058,0.097-0.088c0.019-0.002,0.037-0.005,0.056-0.007
							c0.01,0.004,0.02,0.009,0.03,0.013c0.048,0.043,0.057,0.093,0.027,0.151c-0.03,0.038-0.068,0.06-0.117,0.056
							C250.579,9.325,250.55,9.281,250.55,9.216z"/>
						<path fill="#4BA14F" d="M250.987,9.09c0.002,0.014,0.002,0.028,0.001,0.042c0.013,0.018,0.015,0.038,0.006,0.058
							c-0.027,0.037-0.062,0.057-0.109,0.055c-0.072-0.008-0.097-0.076-0.145-0.114c-0.013-0.02-0.01-0.037,0.009-0.051
							C250.829,9.084,250.908,9.087,250.987,9.09z"/>
						<path fill="#CFAE70" d="M250.409,9.11c-0.019,0.014-0.038,0.029-0.057,0.043c-0.031-0.021-0.034-0.046-0.011-0.075
							c0.022-0.004,0.044-0.008,0.067-0.012C250.409,9.082,250.409,9.096,250.409,9.11z"/>
						<path fill="#1C7233" d="M250.75,9.081c-0.001,0.014,0.001,0.027,0.006,0.04c-0.017,0.019-0.035,0.021-0.055,0.005l0.002-0.005
							C250.707,9.093,250.718,9.075,250.75,9.081z"/>
						<path fill="#277039" d="M251.317,9.158c0.002,0.016,0.004,0.032,0.006,0.049c-0.012,0.019-0.029,0.025-0.05,0.019
							c-0.014-0.018-0.014-0.036,0.001-0.053l0,0C251.288,9.167,251.303,9.162,251.317,9.158z"/>
						<path fill="#A2A2A2" d="M251.66,9.506c-0.048,0.002-0.096,0.004-0.144,0.005c-0.03,0.025-0.062,0.026-0.096,0.009
							c-0.026-0.028-0.031-0.061-0.02-0.096c0.013-0.02,0.031-0.033,0.054-0.039c0.024,0,0.044,0.009,0.062,0.025
							C251.563,9.443,251.611,9.474,251.66,9.506z"/>
						<path fill="#A5ACA7" d="M251.515,9.411c-0.014,0-0.028,0.001-0.042,0.001c-0.016-0.009-0.026-0.023-0.031-0.041
							c0.001-0.018,0.008-0.034,0.021-0.047c-0.002-0.009,0-0.016,0.006-0.023c0.022-0.002,0.036,0.008,0.043,0.029
							c0.001,0.011,0.003,0.023,0.006,0.034C251.517,9.379,251.516,9.395,251.515,9.411z"/>
						<path fill="#1C7233" d="M251.511,9.33c-0.014-0.01-0.029-0.019-0.043-0.029c0.015-0.012,0.031-0.023,0.046-0.035
							C251.513,9.287,251.512,9.308,251.511,9.33z"/>
						<path fill="#2C8B43" d="M250.359,9.211c0.003,0.023,0.006,0.045,0.009,0.068c-0.005,0.06-0.019,0.107-0.095,0.072
							c-0.034-0.027-0.068-0.053-0.102-0.08C250.226,9.23,250.29,9.212,250.359,9.211z"/>
						<path fill="#4A653E" d="M249.883,10.565c0.03-0.049,0.061-0.099,0.091-0.148c0.017,0.004,0.035,0.007,0.052,0.011
							c-0.02,0.062-0.04,0.125-0.061,0.187c-0.028-0.001-0.056-0.002-0.084-0.002C249.882,10.597,249.882,10.581,249.883,10.565z"/>
						<path fill="#B7B7B7" d="M251.463,9.354c0.003,0.019,0.006,0.039,0.009,0.058c-0.014,0.001-0.027,0.001-0.041,0.001
							c-0.122,0.036-0.232,0.044-0.276-0.112c0.021-0.062,0.05-0.113,0.13-0.086c0.013,0.001,0.026-0.002,0.038-0.008
							c0.013,0.005,0.025,0.006,0.038,0.002c0.017,0.005,0.033,0.009,0.05,0.014c0.005,0.03,0.01,0.06,0.015,0.089
							C251.437,9.327,251.449,9.341,251.463,9.354z"/>
						<path fill="#FFFFFF" d="M251.463,9.354c-0.012-0.014-0.024-0.028-0.036-0.042c0.013-0.001,0.025,0.003,0.036,0.012
							C251.462,9.333,251.462,9.343,251.463,9.354z"/>
						<path fill="#B2B5B7" d="M250.272,9.351c0.032-0.024,0.064-0.048,0.095-0.072c0.027-0.006,0.055-0.012,0.082-0.018
							c0.112-0.017,0.063,0.065,0.07,0.113c-0.022,0.096-0.092,0.158-0.154,0.227c-0.11-0.027-0.164-0.164-0.296-0.146
							C250.137,9.421,250.205,9.386,250.272,9.351z"/>
						<path fill="#7A715E" d="M251.614,10.373c0.033,0.048,0.065,0.003,0.097,0c0.032,0.023,0.066,0.047,0.044,0.093
							c-0.013,0.026-0.036,0.018-0.056,0.005c-0.029,0.003-0.057,0.006-0.086,0.009c-0.08,0.035-0.157-0.012-0.236-0.011
							c-0.108-0.015-0.23,0.021-0.314-0.083c0.005-0.146,0.098-0.197,0.227-0.209c0.011,0.002,0.023,0.003,0.034,0.005
							C251.457,10.188,251.465,10.388,251.614,10.373z"/>
						<path fill="#257236" d="M251.378,10.424c0.078,0.018,0.156,0.037,0.234,0.055c-0.148,0.086-0.334-0.023-0.477,0.091
							c-0.033,0.015-0.067,0.03-0.1,0.045c-0.011-0.001-0.022-0.002-0.033-0.003c-0.035-0.007-0.063-0.023-0.079-0.056
							c-0.003-0.024,0.001-0.046,0.012-0.068c0.022-0.031,0.051-0.05,0.088-0.058C251.141,10.418,251.26,10.466,251.378,10.424z"/>
						<path fill="#675E4C" d="M251.698,10.47c0.065-0.025,0.017-0.064,0.012-0.098c0.048-0.017,0.095-0.033,0.143-0.05
							c-0.001,0.053-0.002,0.105-0.003,0.158C251.799,10.489,251.745,10.533,251.698,10.47z"/>
						<path fill="#807766" d="M251.273,9.942c0.018,0.034,0.035,0.067,0.053,0.101c-0.001,0.046-0.002,0.092-0.003,0.138
							l0.002-0.002c-0.102,0.018-0.142-0.049-0.156-0.129C251.157,9.981,251.186,9.928,251.273,9.942z"/>
						<path fill="#ECF4FB" d="M251.52,9.741c-0.077,0.101-0.203,0.019-0.292,0.078c-0.05,0.08-0.081,0.172-0.163,0.229
							c-0.119-0.029-0.234-0.086-0.362-0.043c-0.033-0.01-0.058-0.029-0.079-0.055c-0.035-0.055-0.08-0.101-0.127-0.146
							c-0.022-0.028-0.033-0.059-0.036-0.095c0-0.024,0.003-0.047,0.008-0.07c0.01-0.023,0.025-0.04,0.045-0.054
							c0.059-0.018,0.12-0.008,0.18-0.005c0.194-0.004,0.39,0.018,0.583-0.02c0.025-0.003,0.049-0.002,0.074,0.002
							c0.076,0.019,0.135,0.059,0.161,0.138C251.515,9.715,251.517,9.728,251.52,9.741z"/>
						<path fill="#BDCCD9" d="M251.512,9.702c-0.049-0.031-0.098-0.062-0.148-0.093c0-0.05,0.014-0.091,0.063-0.112
							c0.029,0.005,0.058,0.01,0.087,0.016C251.568,9.576,251.555,9.639,251.512,9.702z"/>
						<path fill="#D7BF95" d="M251.031,10.038c0.084-0.056,0.038-0.229,0.197-0.218c0.015,0.041,0.03,0.081,0.045,0.122
							c-0.155,0.117-0.032,0.173,0.052,0.238c-0.081,0.063-0.195,0.08-0.245,0.184c-0.013,0.045-0.04,0.074-0.091,0.073
							c-0.047-0.002-0.084-0.023-0.113-0.058c-0.011-0.02-0.016-0.041-0.018-0.063c0.008-0.09,0.05-0.167,0.091-0.245
							C250.97,10.044,250.993,10.021,251.031,10.038z"/>
						<path fill="#CBB48D" d="M250.506,9.796c0.104-0.008,0.16,0.033,0.144,0.145c0.02,0.133,0.035,0.265-0.096,0.357
							c-0.08,0.058-0.159,0.118-0.248,0.162c-0.084,0.01-0.166,0.016-0.234-0.049c0.119-0.094,0.253-0.174,0.299-0.333
							c-0.002-0.017-0.003-0.034-0.005-0.051c0.017-0.044,0.033-0.088,0.05-0.132c0.005-0.018,0.013-0.036,0.021-0.053
							c0.01-0.016,0.024-0.03,0.041-0.04C250.487,9.8,250.497,9.798,250.506,9.796z"/>
						<path fill="#5F5747" d="M250.306,10.459c0.031-0.1,0.117-0.144,0.199-0.191c0.04,0.007,0.081,0.011,0.11,0.045
							c0.017,0.028,0.019,0.058,0.007,0.088c-0.007,0.007-0.015,0.014-0.022,0.021C250.503,10.435,250.404,10.447,250.306,10.459z"
							/>
						<path fill="#605541" d="M250.894,10.362c0.04,0.004,0.085-0.003,0.097,0.052c0.024,0.019,0.024,0.037-0.001,0.055
							c-0.016,0.016-0.032,0.031-0.049,0.047c-0.029,0.012-0.055,0.028-0.087,0.03c-0.021-0.002-0.04-0.01-0.057-0.021
							c-0.065-0.034-0.13-0.068-0.195-0.102l0.005-0.005C250.69,10.338,250.792,10.349,250.894,10.362z"/>
						<path fill="#758675" d="M250.796,10.525c0.016-0.003,0.031-0.003,0.047,0c0.016,0.008,0.025,0.021,0.027,0.039
							c-0.002,0.017-0.009,0.033-0.019,0.046c-0.015,0.01-0.031,0.012-0.047,0.003C250.801,10.584,250.798,10.555,250.796,10.525z"
							/>
						<path fill="#FFFFFF" d="M250.803,10.614c0.012,0.002,0.025,0.004,0.037,0.006l0.017,0.016c0.005,0.018-0.001,0.031-0.018,0.04
							c-0.017,0.003-0.031-0.003-0.042-0.017l-0.003-0.006C250.792,10.639,250.795,10.626,250.803,10.614z"/>
						<path fill="#71858E" d="M250.797,10.849c-0.003-0.013-0.002-0.025,0.003-0.038c0.031,0.001,0.062,0.002,0.093,0.003
							c0.017,0.009,0.03,0.022,0.039,0.039c0.005,0.018,0.008,0.037,0.008,0.056c0,0.013,0,0.025,0,0.038
							c-0.047,0.058-0.097,0.045-0.147,0.004C250.786,10.918,250.79,10.884,250.797,10.849z"/>
						<path fill="#F7F7F7" d="M250.797,10.849c0.06,0.037,0.051,0.071-0.004,0.103c-0.03-0.001-0.059-0.002-0.089-0.003
							C250.692,10.876,250.734,10.854,250.797,10.849z"/>
						<path fill="#BFBFBF" d="M250.893,10.77c-0.002-0.017-0.004-0.033-0.005-0.05c0.025-0.037,0.059-0.044,0.099-0.028
							c0.006,0.009,0.015,0.014,0.025,0.017c-0.003,0.012-0.008,0.023-0.017,0.033C250.972,10.791,250.935,10.788,250.893,10.77z"/>
						<path fill="#B9BCBE" d="M250.94,10.91c-0.015-0.018-0.03-0.037-0.045-0.055c0.03-0.031,0.06-0.031,0.088,0.003
							C250.968,10.875,250.954,10.893,250.94,10.91z"/>
						<path fill="#8A99A3" d="M250.982,10.858c-0.029-0.001-0.059-0.002-0.088-0.003c-0.002-0.013-0.003-0.027-0.002-0.04
							c0.001-0.009,0.001-0.017-0.001-0.026c0.035-0.009,0.069-0.015,0.096,0.016C250.986,10.823,250.984,10.841,250.982,10.858z"/>
						<path fill="#FFFFFF" d="M250.988,10.805c-0.032-0.005-0.064-0.011-0.096-0.016l0.002-0.019
							c0.034-0.009,0.068-0.018,0.102-0.028C250.993,10.763,250.991,10.784,250.988,10.805z"/>
						<path fill="#FFFFFF" d="M251.035,10.614c-0.017,0.019-0.033,0.039-0.05,0.058c-0.021,0.008-0.043,0.011-0.065,0.01
							c-0.023-0.006-0.039-0.019-0.047-0.041c0.003-0.011,0.006-0.022,0.008-0.033c0.009-0.007,0.018-0.013,0.027-0.02
							c0.044,0.002,0.09-0.009,0.128,0.024L251.035,10.614z"/>
						<path fill="#5F7C83" d="M250.892,10.653c0.031,0.006,0.062,0.013,0.093,0.019l0.002,0.02
							c-0.033,0.009-0.066,0.019-0.099,0.028l0.003-0.014c-0.013-0.012-0.017-0.024-0.013-0.035
							C250.883,10.659,250.888,10.653,250.892,10.653z"/>
						<path fill="#2E7BA7" d="M250.892,10.653c0,0.017-0.001,0.035-0.001,0.052c-0.042,0.007-0.076-0.004-0.094-0.046
							c0.015,0.002,0.03,0.002,0.045,0c0.017-0.028,0.034-0.028,0.05,0V10.653z"/>
						<path fill="#EFE980" d="M250.459,9.847c0.087,0.121-0.015,0.145-0.093,0.181c-0.018-0.015-0.037-0.03-0.055-0.045
							c0.013-0.083-0.006-0.16-0.044-0.234c0.033-0.013,0.065-0.026,0.098-0.038c0.028,0.025,0.056,0.05,0.073,0.084
							C250.447,9.811,250.454,9.829,250.459,9.847z"/>
						<path fill="#A9C9E4" d="M250.365,9.602c-0.031-0.106,0.089-0.151,0.097-0.241c0.028-0.023,0.059-0.032,0.095-0.027
							c0.052,0.023,0.104,0.046,0.111,0.113c-0.027,0.107-0.129,0.094-0.202,0.128c-0.017,0.012-0.035,0.021-0.055,0.025h-0.022
							L250.365,9.602z"/>
						<path fill="#F2F6F5" d="M250.398,9.835c-0.046-0.033-0.031-0.081-0.033-0.125c0.016-0.006,0.032-0.012,0.047-0.017
							c0.021-0.006,0.039,0,0.053,0.017C250.468,9.765,250.456,9.812,250.398,9.835z"/>
						<path fill="#CFCFCF" d="M250.409,9.601c0-0.015,0-0.03,0-0.045c0.056-0.031,0.103-0.042,0.097,0.049
							c0.002,0.016,0.002,0.032,0.001,0.048c-0.013,0.015-0.029,0.023-0.049,0.023c-0.02-0.002-0.036-0.011-0.048-0.026
							C250.411,9.633,250.41,9.617,250.409,9.601z"/>
						<path fill="#A1A7AD" d="M250.411,9.649c0.018,0.001,0.035,0.001,0.053,0.002c0.006,0.008,0.011,0.017,0.017,0.025
							c-0.006,0.008-0.013,0.015-0.019,0.023c-0.016-0.002-0.032-0.004-0.049-0.006C250.412,9.678,250.411,9.664,250.411,9.649z"/>
						<path fill="#BDC0C0" d="M250.556,9.364c-0.031-0.001-0.063-0.001-0.094-0.002c0.007-0.035,0.046-0.073-0.012-0.1
							c0.02-0.045,0.062-0.042,0.101-0.046c0.034,0.034,0.068,0.069,0.102,0.103C250.648,9.393,250.611,9.398,250.556,9.364z"/>
						<path fill="#BAB9B9" d="M251.285,9.214c-0.048,0.019-0.084,0.051-0.105,0.099c-0.096,0.069-0.147-0.001-0.199-0.065
							c-0.009-0.022-0.009-0.045,0-0.067c0.003-0.016,0.005-0.033,0.008-0.049c0.09,0.051,0.19,0.033,0.286,0.04
							C251.275,9.187,251.279,9.201,251.285,9.214z"/>
						<path fill="#B0B1AB" d="M250.701,9.126c0.018-0.002,0.036-0.003,0.055-0.005c0.047,0.035,0.093,0.071,0.139,0.106
							c0.02,0.065-0.001,0.114-0.059,0.148c-0.068-0.006-0.111-0.032-0.09-0.111C250.731,9.219,250.716,9.172,250.701,9.126z"/>
						<path fill="#88BBE3" d="M250.746,9.265c0.031,0.032,0.062,0.064,0.093,0.097c0.01,0.011,0.016,0.023,0.015,0.036
							c0,0.014-0.002,0.02-0.005,0.021c-0.038,0.041-0.088,0.056-0.142,0.062c-0.022-0.001-0.041-0.008-0.057-0.023
							c-0.032-0.031-0.064-0.063-0.096-0.094c0.032-0.015,0.064-0.03,0.096-0.045C250.683,9.301,250.715,9.283,250.746,9.265z"/>
						<path fill="#D7D7D7" d="M250.848,9.409c-0.002-0.016-0.005-0.031-0.009-0.047c0.019-0.045,0.037-0.09,0.056-0.134
							c0.029-0.016,0.057-0.031,0.085-0.047c0.003,0.019,0.006,0.038,0.008,0.057C251.05,9.384,250.983,9.425,250.848,9.409z"/>
						<path fill="#A1C4E2" d="M250.848,9.409c0.07-0.038,0.151-0.067,0.141-0.171c0.067,0.017,0.113,0.086,0.191,0.075
							c0.057,0.099,0.174,0.05,0.251,0.099c-0.001,0.028-0.002,0.056-0.003,0.083c-0.009,0.044-0.019,0.088-0.063,0.112
							c-0.013-0.003-0.027-0.005-0.04-0.006c-0.11-0.027-0.231,0.022-0.335-0.048c-0.038-0.015-0.076-0.029-0.118-0.031
							c-0.042-0.003-0.085-0.008-0.125-0.024c-0.02-0.01-0.036-0.024-0.048-0.043C250.737,9.403,250.794,9.412,250.848,9.409z"/>
						<path fill="#7F6E4E" d="M250.989,10.47c0-0.018,0.001-0.037,0.001-0.055c0.03-0.017,0.059-0.034,0.089-0.051
							c0.1,0.02,0.199,0.04,0.299,0.06C251.257,10.507,251.118,10.446,250.989,10.47z"/>
						<path fill="#7A9580" d="M251.036,10.613c-0.047,0.002-0.094,0.004-0.141,0.006c-0.018-0.015-0.023-0.034-0.015-0.056
							c0.017-0.016,0.036-0.02,0.058-0.011C250.98,10.557,251.022,10.562,251.036,10.613z"/>
						<path fill="#217838" d="M250.938,10.552c-0.013,0.01-0.027,0.016-0.043,0.018c-0.018,0.021-0.034,0.018-0.048-0.004
							c-0.002-0.014-0.004-0.027-0.005-0.041c0.032-0.005,0.059-0.073,0.098-0.008C250.94,10.528,250.939,10.54,250.938,10.552z"/>
						<path fill="#756B59" d="M250.602,10.324c-0.041-0.003-0.08-0.011-0.097-0.056c0.155-0.062,0.046-0.241,0.145-0.327
							c0.016,0.02,0.032,0.04,0.048,0.06c0.057,0.008,0.101,0.033,0.124,0.088c0.011,0.082,0.021,0.164-0.016,0.243
							C250.736,10.39,250.669,10.361,250.602,10.324z"/>
						<path fill="#DBE9F7" d="M250.994,9.512c0.098,0.075,0.247-0.037,0.331,0.091c-0.221,0.095-0.452,0.032-0.679,0.045
							c-0.01-0.072,0.044-0.096,0.094-0.122c0.032-0.011,0.065-0.013,0.098-0.01C250.89,9.527,250.942,9.529,250.994,9.512z"/>
						<path fill="#5D5E5E" d="M250.781,10.082c-0.027-0.027-0.055-0.054-0.082-0.081c0.122-0.083,0.245-0.184,0.333,0.038
							c-0.014,0.018-0.027,0.036-0.041,0.055C250.918,10.142,250.848,10.135,250.781,10.082z"/>
						<path fill="#98A9B5" d="M250.739,9.551c-0.031,0.032-0.063,0.064-0.094,0.097c-0.046-0.014-0.092-0.029-0.138-0.043
							c-0.02-0.042-0.056-0.049-0.097-0.049c0.062-0.079,0.176-0.027,0.242-0.098c0.016,0,0.032,0,0.047-0.001
							c0.014,0.003,0.027,0.004,0.041,0.005C250.783,9.492,250.747,9.521,250.739,9.551z"/>
						<path fill="#F3EF9E" d="M250.398,9.835c0.021-0.045,0.042-0.091,0.063-0.136L250.457,9.7c0.018-0.019,0.034-0.018,0.048,0.004
							c0,0.031,0.001,0.061,0.001,0.092l0.003-0.002c-0.015,0.013-0.028,0.027-0.04,0.043l-0.01,0.01
							C250.439,9.843,250.419,9.839,250.398,9.835z"/>
						<path fill="#DBE9F7" d="M250.505,9.704c-0.016-0.003-0.032-0.004-0.048-0.004c0.002-0.016,0.004-0.033,0.007-0.049
							c0.015,0.001,0.029,0.002,0.044,0.001C250.507,9.67,250.506,9.687,250.505,9.704z"/>
						<path fill="#44A5DD" d="M250.781,10.082c0.07,0.004,0.14,0.007,0.21,0.011c-0.034,0.075-0.069,0.151-0.103,0.226
							c-0.027,0.034-0.055,0.028-0.084,0.003C250.751,10.246,250.796,10.161,250.781,10.082z"/>
						<path fill="#847A66" d="M250.803,10.322c0.028-0.001,0.056-0.002,0.084-0.003c0.004,0.014,0.007,0.028,0.007,0.043
							c-0.082,0.095-0.192,0.04-0.288,0.055c-0.001-0.031-0.002-0.062-0.003-0.093C250.669,10.278,250.736,10.346,250.803,10.322z"
							/>
						<path fill="#F8FBFE" d="M250.469,9.836c0.013-0.014,0.027-0.028,0.04-0.043C250.495,9.808,250.482,9.822,250.469,9.836z"/>
						<path fill="#1F873C" d="M250.848,10.566c0.016,0,0.032,0.001,0.048,0.004c0,0.016,0,0.033,0,0.049l-0.003-0.007
							c-0.016,0.018-0.033,0.019-0.05,0.001l-0.002,0.007C250.843,10.602,250.845,10.584,250.848,10.566z"/>
						<path fill="#2F5C45" d="M250.842,10.613c0.017,0,0.033,0,0.05-0.001c-0.001,0.016-0.001,0.032,0.001,0.048
							c-0.017,0-0.033,0-0.05,0C250.844,10.644,250.844,10.628,250.842,10.613z"/>
						<path fill="#97A6B2" d="M250.994,9.512c-0.027,0.105-0.08,0.118-0.156,0.043c-0.003-0.043,0.026-0.068,0.051-0.097
							C250.932,9.458,250.969,9.472,250.994,9.512z"/>
						<path fill="#A5C5E0" d="M250.888,9.458c-0.002,0.04-0.01,0.077-0.051,0.097c-0.033-0.001-0.065-0.002-0.098-0.004
							c-0.04-0.03,0.005-0.06,0.001-0.089C250.789,9.461,250.839,9.459,250.888,9.458z"/>
					</g>
				</g>
			</g>
		</g>
	</g>
</g>
<path fill="#010201" d="M283.596,5.608c1.06,0,1.901,0.494,2.431,1.053l-0.638,0.689c-0.476-0.481-1.046-0.793-1.779-0.793
	c-1.697,0-2.825,1.326-2.825,3.445c0,2.145,1.073,3.497,2.771,3.497c0.842,0,1.467-0.338,2.037-0.949l0.639,0.663
	c-0.692,0.78-1.575,1.234-2.703,1.234c-2.24,0-3.911-1.638-3.911-4.42C279.617,7.284,281.315,5.608,283.596,5.608z"/>
<path fill="#010201" d="M290.253,7.818c1.615,0,3.056,1.209,3.056,3.328c0,2.093-1.44,3.302-3.056,3.302s-3.056-1.209-3.056-3.302
	C287.198,9.027,288.637,7.818,290.253,7.818z M290.253,13.564c1.141,0,1.9-0.975,1.9-2.418c0-1.456-0.76-2.444-1.9-2.444
	c-1.128,0-1.901,0.988-1.901,2.444C288.352,12.589,289.125,13.564,290.253,13.564z"/>
<path fill="#010201" d="M294.805,12.861c0.57,0.442,1.154,0.754,1.941,0.754c0.869,0,1.304-0.441,1.304-0.987
	c0-0.65-0.787-0.937-1.507-1.196c-0.938-0.325-1.97-0.754-1.97-1.82c0-1.014,0.842-1.794,2.268-1.794
	c0.829,0,1.549,0.325,2.051,0.715l-0.529,0.677c-0.448-0.325-0.924-0.56-1.508-0.56c-0.828,0-1.208,0.429-1.208,0.91
	c0,0.585,0.72,0.819,1.467,1.092c0.95,0.338,2.01,0.715,2.01,1.911c0,1.027-0.855,1.885-2.418,1.885
	c-0.937,0-1.833-0.377-2.458-0.87L294.805,12.861z"/>
<path fill="#010201" d="M300.795,8.845h-0.978V8.038l1.032-0.064l0.136-1.769h0.937v1.769h1.779v0.871h-1.779v3.51
	c0,0.78,0.258,1.223,1.019,1.223c0.231,0,0.53-0.092,0.747-0.17l0.218,0.807c-0.367,0.117-0.815,0.233-1.223,0.233
	c-1.412,0-1.888-0.857-1.888-2.105L300.795,8.845L300.795,8.845z"/>
<path fill="#010201" d="M308.62,10.287c0-0.806-0.285-1.586-1.358-1.586c-0.774,0-1.453,0.338-1.97,0.677l-0.447-0.741
	c0.61-0.377,1.534-0.819,2.594-0.819c1.616,0,2.295,1.027,2.295,2.601v3.874h-0.924l-0.095-0.754h-0.027
	c-0.639,0.493-1.371,0.909-2.187,0.909c-1.113,0-1.941-0.662-1.941-1.794C304.559,11.276,305.808,10.587,308.62,10.287z
	 M306.813,13.59c0.639,0,1.168-0.299,1.807-0.845v-1.756c-2.214,0.261-2.961,0.78-2.961,1.586
	C305.659,13.291,306.161,13.59,306.813,13.59z"/>
<path fill="#010201" d="M319.405,14.292l-2.146-3.602h-1.603v3.602h-1.141V5.764h2.798c1.806,0,3.109,0.624,3.109,2.392
	c0,1.326-0.788,2.119-1.996,2.418l2.268,3.719h-1.289L319.405,14.292L319.405,14.292z M315.657,9.807h1.494
	c1.385,0,2.146-0.546,2.146-1.651c0-1.118-0.761-1.521-2.146-1.521h-1.494V9.807z"/>
<path fill="#010201" d="M322.002,5.985c0-0.416,0.339-0.689,0.773-0.689s0.774,0.273,0.774,0.689c0,0.403-0.34,0.689-0.774,0.689
	S322.002,6.388,322.002,5.985z M322.205,7.974h1.114v6.318h-1.114V7.974z"/>
<path fill="#010201" d="M328.168,7.818c0.869,0,1.48,0.352,1.928,0.754l-0.557,0.689c-0.394-0.325-0.801-0.56-1.331-0.56
	c-1.194,0-2.063,0.988-2.063,2.444c0,1.443,0.828,2.418,2.037,2.418c0.624,0,1.154-0.299,1.548-0.637l0.503,0.702
	c-0.598,0.507-1.358,0.818-2.146,0.818c-1.752,0-3.096-1.209-3.096-3.302C324.991,9.027,326.47,7.818,328.168,7.818z"/>
<path fill="#010201" d="M335.205,10.287c0-0.806-0.285-1.586-1.358-1.586c-0.774,0-1.453,0.338-1.97,0.677l-0.447-0.741
	c0.61-0.377,1.534-0.819,2.594-0.819c1.616,0,2.295,1.027,2.295,2.601v3.874h-0.924l-0.095-0.754h-0.027
	c-0.639,0.493-1.371,0.909-2.187,0.909c-1.113,0-1.941-0.662-1.941-1.794C331.145,11.276,332.394,10.587,335.205,10.287z
	 M333.399,13.59c0.639,0,1.168-0.299,1.807-0.845v-1.756c-2.214,0.261-2.961,0.78-2.961,1.586
	C332.245,13.291,332.746,13.59,333.399,13.59z"/>
<circle fill="none" stroke="#010201" stroke-miterlimit="10" cx="259.927" cy="10.174" r="7.049"/>
</svg>
