<?xml version="1.0" encoding="utf-8"?>
<!-- Generator: Adobe Illustrator 17.0.0, SVG Export Plug-In . SVG Version: 6.00 Build 0)  -->
<!DOCTYPE svg PUBLIC "-//W3C//DTD SVG 1.1//EN" "http://www.w3.org/Graphics/SVG/1.1/DTD/svg11.dtd">
<svg version="1.1" id="Layer_1" xmlns="http://www.w3.org/2000/svg" xmlns:xlink="http://www.w3.org/1999/xlink" x="0px" y="0px"
	 width="600px" height="19.542px" viewBox="0 0 600 19.542" enable-background="new 0 0 600 19.542" xml:space="preserve">
<rect x="0" y="0" fill="#EC6554" width="600" height="19.542"/>
<line fill="none" stroke="#9F9F9F" stroke-width="0.7" stroke-miterlimit="10" stroke-dasharray="6,3" x1="199.426" y1="-0.001" x2="199.426" y2="18.903"/>
<line fill="none" stroke="#9F9F9F" stroke-width="0.7" stroke-miterlimit="10" stroke-dasharray="6,3" x1="440.97" y1="-0.001" x2="440.97" y2="18.903"/>
<g>
	<g>
		<g>
			<rect x="451.885" y="9.174" fill="#FFFCEE" width="36.548" height="2"/>
		</g>
		<g>
			<g>
				<circle fill="#FFFCEE" cx="488.309" cy="10.174" r="2.481"/>
			</g>
		</g>
	</g>
</g>
<path fill="#FFFCEE" d="M67.679,7.778c-0.503-0.441-0.924-0.688-1.575-0.688c-0.733,0-1.182,0.363-1.182,1.04
	c0,1.56,3.694,1.248,3.694,3.874c0,1.234-0.761,2.145-2.105,2.379v1.339h-1.086v-1.3c-0.829-0.078-1.738-0.442-2.35-0.988
	l0.706-1.014c0.638,0.48,1.276,0.806,2.01,0.806c0.883,0,1.317-0.416,1.317-1.118c0-1.716-3.694-1.469-3.694-3.913
	c0-1.209,0.788-2.067,2.011-2.275V4.594h1.086v1.3C67.38,5.997,67.978,6.4,68.48,6.907L67.679,7.778z"/>
<path fill="#FFFCEE" d="M72.543,13.069h1.929V7.636h-1.589V6.699c0.855-0.156,1.453-0.364,1.996-0.676h1.168v7.046h1.697v1.223
	h-5.201V13.069z"/>
<path fill="#FFFCEE" d="M78.684,13.421c2.404-2.224,3.911-3.68,3.911-4.94c0-0.871-0.502-1.43-1.426-1.43
	c-0.665,0-1.222,0.429-1.684,0.923l-0.869-0.832c0.787-0.807,1.575-1.274,2.757-1.274c1.656,0,2.729,1.001,2.729,2.535
	c0,1.469-1.426,2.978-3.137,4.706c0.448-0.039,1.019-0.091,1.439-0.091h2.118v1.274h-5.84v-0.871H78.684z"/>
<path fill="#FFFCEE" d="M85.87,12.315c0.516,0.507,1.181,0.91,2.05,0.91c0.938,0,1.589-0.468,1.589-1.248
	c0-0.858-0.57-1.404-2.539-1.404V9.481c1.697,0,2.254-0.559,2.254-1.326c0-0.688-0.488-1.104-1.276-1.104
	c-0.679,0-1.208,0.312-1.738,0.779l-0.801-0.923c0.733-0.624,1.562-1.04,2.594-1.04c1.656,0,2.798,0.78,2.798,2.185
	c0,0.923-0.57,1.547-1.508,1.897v0.053c1.019,0.26,1.793,0.962,1.793,2.054c0,1.508-1.372,2.392-3.029,2.392
	c-1.398,0-2.321-0.52-2.933-1.17L85.87,12.315z"/>
<path fill="#FFFCEE" d="M92.431,13.069h1.929V7.636h-1.589V6.699c0.855-0.156,1.453-0.364,1.996-0.676h1.168v7.046h1.697v1.223
	h-5.201V13.069z"/>
<path fill="#FFFCEE" d="M98.599,10.118c0-2.795,1.141-4.251,2.934-4.251s2.934,1.47,2.934,4.251c0,2.796-1.141,4.329-2.934,4.329
	S98.599,12.914,98.599,10.118z M102.972,10.118c0-2.34-0.598-3.081-1.439-3.081c-0.828,0-1.439,0.741-1.439,3.081
	c0,2.341,0.611,3.159,1.439,3.159C102.374,13.277,102.972,12.459,102.972,10.118z"/>
<path fill="#FFFCEE" d="M105.323,15.839c0.869-0.325,1.371-0.91,1.371-1.573c-0.041,0-0.081,0-0.122,0
	c-0.529,0-1.005-0.338-1.005-0.923c0-0.56,0.476-0.923,1.046-0.923c0.733,0,1.168,0.571,1.168,1.534
	c0,1.273-0.774,2.262-2.119,2.704L105.323,15.839z"/>
<path fill="#FFFCEE" d="M114.694,12.159h-1.086v2.133h-1.467v-2.133h-3.816v-1.014l3.423-5.122h1.86v4.979h1.086
	C114.694,11.002,114.694,12.159,114.694,12.159z M112.142,11.003V9.131c0-0.481,0.041-1.235,0.068-1.717h-0.055
	c-0.218,0.43-0.462,0.846-0.706,1.287l-1.575,2.302C109.874,11.003,112.142,11.003,112.142,11.003z"/>
<path fill="#FFFCEE" d="M119.396,7.284h-4.088V6.023h5.799v0.91c-2.023,2.405-2.377,4.134-2.526,7.358h-1.589
	C117.141,11.353,117.725,9.508,119.396,7.284z"/>
<path fill="#FFFCEE" d="M126.337,14.811v2.002h-1.562V7.908h1.29l0.109,0.677h0.054c0.557-0.455,1.276-0.832,2.01-0.832
	c1.657,0,2.621,1.273,2.621,3.25c0,2.184-1.371,3.444-2.852,3.444c-0.584,0-1.168-0.26-1.711-0.701L126.337,14.811z M127.682,13.213
	c0.883,0,1.562-0.754,1.562-2.197c0-1.274-0.435-2.028-1.439-2.028c-0.488,0-0.95,0.234-1.467,0.715v2.978
	C126.826,13.069,127.288,13.213,127.682,13.213z"/>
<path fill="#FFFCEE" d="M134.434,5.061h1.06l-3.164,11.311h-1.06L134.434,5.061z"/>
<path fill="#FFFCEE" d="M139.012,7.753c0.855,0,1.508,0.324,1.956,0.74l-0.747,0.949c-0.354-0.299-0.706-0.468-1.127-0.468
	c-1.073,0-1.82,0.845-1.82,2.132c0,1.274,0.733,2.119,1.779,2.119c0.543,0,1.005-0.26,1.371-0.546l0.652,0.949
	c-0.625,0.533-1.426,0.818-2.187,0.818c-1.82,0-3.219-1.222-3.219-3.341C135.671,8.974,137.233,7.753,139.012,7.753z"/>
<circle fill="none" stroke="#FFFCEE" stroke-miterlimit="10" cx="259.817" cy="10.174" r="7.049"/>
<path fill="#FFFCEE" d="M283.677,5.659c1.1,0,2.023,0.521,2.621,1.105l-1.101,1.184c-0.448-0.391-0.869-0.638-1.494-0.638
	c-1.235,0-2.199,1.027-2.199,2.73c0,1.741,0.855,2.756,2.146,2.756c0.733,0,1.249-0.299,1.684-0.754l1.101,1.157
	c-0.733,0.818-1.712,1.248-2.812,1.248c-2.295,0-4.169-1.495-4.169-4.342C279.453,7.298,281.395,5.659,283.677,5.659z"/>
<path fill="#FFFCEE" d="M290.429,7.688c1.697,0,3.272,1.234,3.272,3.379c0,2.146-1.575,3.381-3.272,3.381
	c-1.711,0-3.286-1.235-3.286-3.381C287.143,8.923,288.718,7.688,290.429,7.688z M290.429,12.901c0.814,0,1.235-0.715,1.235-1.834
	c0-1.117-0.421-1.832-1.235-1.832c-0.828,0-1.236,0.715-1.236,1.832C289.193,12.186,289.601,12.901,290.429,12.901z"/>
<path fill="#FFFCEE" d="M295.238,12.354c0.611,0.442,1.168,0.676,1.738,0.676c0.598,0,0.855-0.207,0.855-0.545
	c0-0.43-0.679-0.625-1.372-0.885c-0.814-0.299-1.778-0.832-1.778-1.898c0-1.195,1.019-2.014,2.58-2.014
	c1.032,0,1.793,0.402,2.376,0.818l-0.896,1.145c-0.489-0.338-0.951-0.547-1.426-0.547c-0.517,0-0.761,0.182-0.761,0.508
	c0,0.416,0.624,0.572,1.317,0.818c0.855,0.299,1.819,0.754,1.819,1.938c0,1.17-0.964,2.08-2.771,2.08
	c-0.883,0-1.901-0.364-2.58-0.897L295.238,12.354z"/>
<path fill="#FFFCEE" d="M301.161,9.339h-0.924V7.922l1.032-0.078l0.231-1.716h1.656v1.716h1.616v1.495h-1.616v2.587
	c0,0.728,0.34,1.027,0.869,1.027c0.218,0,0.462-0.065,0.639-0.13l0.312,1.391c-0.354,0.104-0.843,0.234-1.494,0.234
	c-1.67,0-2.322-1.002-2.322-2.496L301.161,9.339L301.161,9.339z"/>
<path fill="#FFFCEE" d="M309.406,10.145c-0.04-0.572-0.339-0.937-1.059-0.937c-0.57,0-1.141,0.221-1.793,0.585l-0.706-1.262
	c0.855-0.494,1.819-0.844,2.879-0.844c1.725,0,2.676,0.936,2.676,2.912v3.691h-1.63l-0.149-0.663h-0.041
	c-0.57,0.481-1.208,0.819-1.969,0.819c-1.223,0-1.996-0.858-1.996-1.95C305.618,11.145,306.745,10.405,309.406,10.145z
	 M308.293,12.966c0.462,0,0.761-0.208,1.113-0.546v-1.131c-1.426,0.182-1.888,0.571-1.888,1.065
	C307.519,12.77,307.818,12.966,308.293,12.966z"/>
<path fill="#FFFCEE" d="M320.749,14.292l-1.698-3.055h-1.086v3.055h-2.01V5.815h3.191c1.874,0,3.422,0.625,3.422,2.639
	c0,1.248-0.638,2.041-1.575,2.445l1.996,3.393H320.749z M317.965,9.716h1.019c1.046,0,1.616-0.43,1.616-1.262
	s-0.57-1.117-1.616-1.117h-1.019V9.716z"/>
<path fill="#FFFCEE" d="M323.93,5.893c0-0.585,0.489-0.988,1.154-0.988c0.679,0,1.154,0.403,1.154,0.988s-0.476,1.001-1.154,1.001
	C324.419,6.894,323.93,6.478,323.93,5.893z M324.093,7.844h1.996v6.448h-1.996V7.844z"/>
<path fill="#FFFCEE" d="M330.884,7.688c0.829,0,1.521,0.299,1.97,0.74l-0.91,1.184c-0.326-0.26-0.625-0.377-0.937-0.377
	c-0.965,0-1.576,0.715-1.576,1.832c0,1.119,0.639,1.834,1.508,1.834c0.489,0,0.883-0.221,1.209-0.469l0.801,1.209
	c-0.651,0.547-1.507,0.807-2.24,0.807c-1.874,0-3.327-1.235-3.327-3.381C327.381,8.923,329.024,7.688,330.884,7.688z"/>
<path fill="#FFFCEE" d="M337.458,10.145c-0.04-0.572-0.339-0.937-1.059-0.937c-0.57,0-1.141,0.221-1.793,0.585L333.9,8.531
	c0.855-0.494,1.819-0.844,2.879-0.844c1.725,0,2.676,0.936,2.676,2.912v3.691h-1.63l-0.149-0.663h-0.041
	c-0.57,0.481-1.208,0.819-1.969,0.819c-1.223,0-1.996-0.858-1.996-1.95C333.67,11.145,334.797,10.405,337.458,10.145z
	 M336.345,12.966c0.462,0,0.761-0.208,1.113-0.546v-1.131c-1.426,0.182-1.888,0.571-1.888,1.065
	C335.57,12.77,335.869,12.966,336.345,12.966z"/>
<path fill="#EC6554" d="M230.466,12.315h-0.991v1.977h-1.861v-1.977h-3.734v-1.312l3.15-4.967h2.445v4.824h0.991L230.466,12.315
	L230.466,12.315z M227.613,10.86V9.52c0-0.533,0.055-1.326,0.082-1.846h-0.055c-0.217,0.455-0.462,0.923-0.706,1.391l-1.141,1.795
	C225.793,10.86,227.613,10.86,227.613,10.86z"/>
<g>
	<g>
		<g>
			<g>
				<g>
					<defs>
						<circle id="SVGID_1_" cx="259.817" cy="10.174" r="7.049"/>
					</defs>
					<clipPath id="SVGID_2_">
						<use xlink:href="#SVGID_1_"  overflow="visible"/>
					</clipPath>
					<g clip-path="url(#SVGID_2_)">
						<g>
							<path fill="#3C5BA4" d="M266.833,17.34c-7.625,0-15.251,0-22.876,0c-0.052-0.22-0.023-0.444-0.021-0.666
								c0.004-0.566-0.026-1.132,0.017-1.698c0.069-0.067,0.158-0.071,0.246-0.076c0.08-0.005,0.16-0.003,0.24-0.003
								c7.307,0,14.613,0,21.92,0.001c0.143,0,0.289-0.017,0.427,0.04c0.029,0.016,0.051,0.038,0.066,0.067
								c0.011,0.741,0.002,1.481,0.005,2.222C266.857,17.266,266.858,17.306,266.833,17.34z"/>
							<path fill="#1E2F51" d="M266.881,2.875c0,0.801,0,1.602,0,2.403c-0.034,0.002-0.061-0.011-0.081-0.039
								c-0.064-0.11-0.053-0.232-0.054-0.351c-0.003-0.528,0.003-1.057-0.003-1.585c-0.003-0.264-0.024-0.281-0.293-0.29
								c-0.104-0.003-0.208-0.001-0.312-0.001c-7.214,0-14.428,0-21.642-0.001c-0.167,0-0.337,0.026-0.498-0.046
								c-0.029-0.018-0.045-0.044-0.046-0.078c0.077-0.066,0.169-0.033,0.254-0.033c7.48-0.002,14.96-0.002,22.439-0.001
								C266.724,2.852,266.806,2.832,266.881,2.875z"/>
							<path fill="#010202" d="M266.881,2.875c-0.104-0.002-0.208-0.007-0.312-0.007c-7.437,0-14.874-0.001-22.31,0.002
								c-0.107,0-0.226-0.044-0.319,0.051c-0.01,0.001-0.02,0.002-0.03,0.003c0.02-0.03-0.047-0.102,0.048-0.097
								c0.056,0.003,0.112,0.001,0.168,0.001c7.513,0,15.026,0,22.54,0.003C266.735,2.83,266.828,2.774,266.881,2.875z"/>
							<path fill="#290C12" d="M243.909,12.534c0-1.602,0-3.204,0-4.806c0.032-0.014,0.058-0.007,0.079,0.022
								c0.017,0.026,0.029,0.055,0.037,0.084c0.025,0.118,0.017,0.239,0.018,0.358c0.001,1.294,0.001,2.587,0,3.881
								c0,0.12,0.007,0.24-0.017,0.358c-0.007,0.03-0.02,0.058-0.037,0.083C243.967,12.542,243.941,12.549,243.909,12.534z"/>
							<path fill="#5E121B" d="M266.881,7.729c0,1.602,0,3.204,0,4.806c-0.015,0.003-0.031,0.006-0.046,0.009
								c-0.025-0.02-0.044-0.044-0.056-0.074c-0.029-0.076-0.03-0.156-0.031-0.236c-0.002-1.41-0.003-2.821,0-4.231
								c0-0.056,0.002-0.112,0.015-0.166c0.008-0.03,0.02-0.059,0.037-0.086C266.822,7.722,266.849,7.714,266.881,7.729z"/>
							<path fill="#7F7F80" d="M266.839,12.54c0.014-0.005,0.028-0.007,0.043-0.006c0,0.817,0,1.634,0,2.451
								c-0.013,0.023-0.027,0.022-0.042,0.003c-0.008-0.008-0.015-0.017-0.019-0.028c-0.081-0.093-0.072-0.208-0.072-0.318
								c-0.003-0.589-0.003-1.179,0-1.768C266.749,12.756,266.734,12.631,266.839,12.54z"/>
							<path fill="#7F8080" d="M266.881,7.729l-0.02,0.003l-0.02-0.004c-0.081-0.06-0.088-0.15-0.089-0.238
								c-0.007-0.671-0.009-1.342,0.001-2.013c0.001-0.048,0.01-0.095,0.028-0.141c0.013-0.03,0.033-0.053,0.06-0.071
								c0.012,0.008,0.026,0.012,0.041,0.012C266.881,6.095,266.881,6.912,266.881,7.729z"/>
							<path fill="#3F3F3F" d="M243.952,7.727c-0.014,0.001-0.028,0.002-0.042,0.001c0-0.817,0-1.634,0-2.451
								c0.015-0.003,0.031-0.006,0.046-0.009c0.025,0.02,0.044,0.044,0.056,0.074c0.06,0.252,0.027,0.507,0.03,0.761
								c0.006,0.43,0.004,0.86,0,1.29C244.04,7.511,244.057,7.636,243.952,7.727z"/>
							<path fill="#3F3F3F" d="M243.909,12.534c0.015,0.001,0.03,0.002,0.045,0.003c0.077,0.062,0.084,0.151,0.085,0.238
								c0.008,0.643,0.007,1.287,0.001,1.93c-0.001,0.072-0.011,0.143-0.05,0.206c-0.02,0.031-0.047,0.039-0.081,0.025
								C243.909,14.136,243.909,13.335,243.909,12.534z"/>
							<path fill="#111728" d="M243.909,14.937c0.014,0.001,0.028,0.001,0.042,0l0.019,0.01l-0.004,0.022
								c-0.003,0.79-0.006,1.581-0.009,2.371c-0.103-0.019-0.045-0.098-0.045-0.144C243.908,16.443,243.909,15.69,243.909,14.937z"
								/>
							<path fill="#1E2F52" d="M266.839,14.988c0.014-0.009,0.028-0.01,0.042-0.003c0,0.737,0.001,1.474-0.003,2.211
								c0,0.046,0.058,0.125-0.045,0.144C266.835,16.556,266.837,15.772,266.839,14.988z"/>
							<path fill="#101728" d="M243.948,5.268c-0.013,0.005-0.026,0.008-0.039,0.009c0-0.785,0-1.57,0-2.355
								c0.01,0,0.02-0.001,0.03-0.003l0.02,0.003c0.072,0.075,0.082,0.171,0.083,0.267c0.004,0.606,0.006,1.212-0.001,1.818
								C244.04,5.103,244.037,5.202,243.948,5.268z"/>
							<path fill="#FFFFFF" d="M243.966,14.969c-0.001-0.013-0.006-0.023-0.016-0.032c0.001-0.8,0.002-1.6,0.003-2.399l0.01-0.012
								c0.069-0.066,0.157-0.073,0.246-0.077c0.08-0.004,0.16-0.003,0.24-0.003c7.297,0,14.594,0,21.891,0.002
								c0.165,0,0.339-0.037,0.488,0.076l0.01,0.017c-0.006,0.807-0.012,1.613-0.018,2.42c-0.112,0.002-0.224,0.005-0.336,0.005
								c-7.41,0-14.82,0-22.23,0C244.158,14.965,244.062,14.968,243.966,14.969z"/>
							<path fill="#3C5BA4" d="M243.948,5.268c0.004-0.782,0.008-1.563,0.011-2.345c0.096-0.005,0.191-0.013,0.287-0.013
								c7.419-0.001,14.839-0.001,22.258,0c0.372,0,0.326-0.037,0.328,0.339c0.004,0.672,0.005,1.344,0.007,2.017l-0.016,0.017
								c-0.067,0.07-0.156,0.076-0.244,0.081c-0.088,0.005-0.176,0.003-0.264,0.003c-7.281,0-14.563,0-21.844-0.002
								c-0.171,0-0.355,0.046-0.507-0.085L243.948,5.268z"/>
							<path fill="#BF192A" d="M266.829,12.523c-1.153,0.001-2.306,0.003-3.458,0.003c-6.469,0-12.938,0-19.406,0
								c0-1.59,0-3.181,0.001-4.771c0.121-0.086,0.261-0.066,0.395-0.066c1.337-0.002,2.674-0.001,4.011-0.001
								c5.989,0,11.977,0,17.966,0.002c0.165,0,0.339-0.037,0.489,0.071C266.827,9.348,266.828,10.936,266.829,12.523z"/>
							<path fill="#FFFFFF" d="M266.826,7.761c-0.056-0.002-0.112-0.006-0.168-0.006c-7.565,0-15.129,0-22.694,0.001
								c0.001-0.012-0.003-0.021-0.013-0.028c0.005-0.816,0.009-1.632,0.014-2.448c7.596,0,15.191-0.001,22.787-0.001
								c0.024,0,0.048,0.003,0.072,0.004c0.005,0.815,0.011,1.631,0.016,2.446C266.831,7.737,266.826,7.748,266.826,7.761z"/>
							<path fill="#FFFFFF" d="M248.953,10.125c0.008-0.621,0.216-1.16,0.689-1.574c0.737-0.646,1.775-0.57,2.423,0.166
								c0.676,0.767,0.697,2.001,0.048,2.787c-0.89,1.077-2.495,0.781-3.015-0.557C248.997,10.684,248.941,10.411,248.953,10.125z"
								/>
							<path fill="#AD9365" d="M252.177,10.082c0.158,0.211,0.141,0.463-0.049,0.724c-0.062-0.042-0.063-0.112-0.08-0.175
								c-0.003-0.021-0.004-0.042-0.003-0.063c0.016-0.08,0.023-0.158-0.03-0.23c-0.008-0.019-0.012-0.039-0.013-0.06
								c0.002-0.021,0.009-0.04,0.02-0.057c0.032-0.039,0.077-0.064,0.105-0.106C252.142,10.101,252.158,10.09,252.177,10.082z"/>
							<path fill="#A1885B" d="M252.177,10.082c-0.002,0.014-0.003,0.028-0.003,0.043c-0.041,0.075-0.135,0.037-0.187,0.09
								c-0.014,0.016-0.031,0.028-0.05,0.038c-0.021,0.007-0.042,0.009-0.063,0.008c-0.021-0.004-0.041-0.012-0.06-0.023
								c-0.117-0.083-0.184-0.202-0.233-0.332c0-0.06-0.007-0.121,0.014-0.181c0.051-0.062,0.102-0.122,0.196-0.089
								c0.017,0.016,0.029,0.036,0.035,0.059c0.003,0.037-0.008,0.068-0.037,0.093c-0.092,0.17-0.058,0.258,0.152,0.248
								C252.02,10.032,252.112,9.994,252.177,10.082z"/>
							<path fill="#C5A66B" d="M251.411,11.383c-0.019,0.116-0.107,0.179-0.193,0.242c-0.036-0.014-0.075-0.016-0.113-0.025
								c-0.03-0.01-0.054-0.027-0.076-0.05c-0.035-0.04-0.068-0.082-0.078-0.136c0.001-0.023,0.007-0.043,0.018-0.063
								c0.053-0.066,0.132-0.084,0.206-0.113C251.308,11.198,251.414,11.202,251.411,11.383z"/>
							<path fill="#B29763" d="M250.308,11.528c-0.019-0.03-0.038-0.061-0.057-0.091c-0.061-0.074-0.101-0.148,0.001-0.221
								c0.114-0.029,0.216-0.013,0.297,0.079c-0.042,0.073,0.081,0.08,0.059,0.146C250.552,11.622,250.45,11.643,250.308,11.528z"/>
							<path fill="#9B8153" d="M249.485,10.044c0.046-0.001,0.093-0.003,0.139-0.002c0.205,0.007,0.256-0.076,0.152-0.253
								c-0.042-0.033-0.046-0.075-0.028-0.122c0.014-0.021,0.033-0.031,0.058-0.032c0.093,0.022,0.139,0.087,0.162,0.175
								c0.017,0.087-0.004,0.169-0.039,0.248c-0.046,0.084-0.082,0.179-0.199,0.188c-0.081-0.044-0.182-0.042-0.256-0.105
								C249.457,10.106,249.455,10.073,249.485,10.044z"/>
							<path fill="#3380AF" d="M251.456,9.069c-0.014,0.006-0.028,0.009-0.043,0.01c-0.025,0.015-0.033,0.049-0.063,0.06
								c-0.02,0.002-0.039-0.002-0.057-0.012c-0.023-0.019-0.043-0.042-0.065-0.063c-0.07-0.035-0.147-0.015-0.219-0.03
								c-0.06-0.011-0.111-0.037-0.145-0.09c-0.02-0.048-0.011-0.094,0.004-0.141c0.024-0.059,0.063-0.099,0.131-0.102
								c0.034,0.002,0.064,0.015,0.089,0.037c0.034,0.035,0.065,0.075,0.113,0.094c0.019,0.007,0.037,0.014,0.056,0.021
								c0.093,0.024,0.177,0.059,0.214,0.158C251.476,9.034,251.471,9.053,251.456,9.069z"/>
							<path fill="#9D8760" d="M252.092,10.61c0.051,0.058,0.028,0.13,0.037,0.196c-0.105,0.172-0.254,0.293-0.435,0.378
								c-0.014-0.017-0.021-0.036-0.021-0.057c0.019-0.084,0.111-0.119,0.134-0.201c0.015-0.039,0.036-0.074,0.062-0.106
								C251.934,10.741,251.974,10.634,252.092,10.61z"/>
							<path fill="#3FA0D9" d="M250.102,8.912c0.048-0.048,0.167-0.007,0.156-0.127c0.069-0.061,0.143-0.068,0.223-0.025
								c0.023,0.022,0.039,0.049,0.029,0.082c-0.008,0.026-0.008,0.055,0.006,0.057c0.051,0.008,0.09,0.027,0.073,0.09
								c-0.03,0.03-0.067,0.044-0.108,0.05c-0.112,0.004-0.225,0.02-0.334-0.024C250.111,8.991,250.079,8.964,250.102,8.912z"/>
							<path fill="#8C764D" d="M250.977,11.425c0.03,0.034,0.06,0.068,0.091,0.102c-0.017,0.034-0.026,0.074-0.06,0.098
								c-0.025,0.014-0.054,0.022-0.08,0.034c-0.053,0.058-0.119,0.067-0.192,0.048c-0.026-0.058-0.038-0.118-0.027-0.182
								c0.01-0.042,0.029-0.08,0.062-0.109c0.019-0.011,0.04-0.017,0.062-0.018C250.886,11.379,250.913,11.502,250.977,11.425z"/>
							<path fill="#9A845B" d="M250.256,11.232c-0.051,0.067-0.007,0.136-0.005,0.204c-0.187-0.078-0.332-0.22-0.495-0.334
								c0.01-0.02,0.026-0.034,0.047-0.041c0.033-0.007,0.065-0.002,0.096,0.009c0.086,0.046,0.171,0.091,0.274,0.076
								C250.218,11.158,250.262,11.171,250.256,11.232z"/>
							<path fill="#A99877" d="M251.697,9.312c0.168,0.052,0.232,0.189,0.28,0.34c-0.083,0.043-0.138-0.028-0.205-0.051
								c-0.052-0.021-0.087-0.06-0.117-0.105c-0.018-0.028-0.031-0.057-0.039-0.089c-0.003-0.022-0.002-0.043,0.004-0.065
								C251.638,9.31,251.659,9.288,251.697,9.312z"/>
							<path fill="#5CA0CD" d="M250.102,8.912c0.019,0.024,0.038,0.049,0.057,0.073c0.026,0.029,0.029,0.063,0.016,0.098
								c-0.031,0.055-0.082,0.083-0.14,0.102c-0.057,0.017-0.114,0.032-0.168-0.006C249.852,9.02,249.852,9.02,250.102,8.912z"/>
							<path fill="#CFAE70" d="M249.375,10.709c-0.054-0.071-0.087-0.149-0.073-0.241c0.04-0.061,0.021-0.149,0.089-0.198
								c0.021-0.007,0.041-0.005,0.059,0.007c0.013,0.016,0.023,0.034,0.03,0.054c0.017,0.067,0.013,0.14,0.061,0.198
								c0.012,0.018,0.021,0.038,0.026,0.059c0,0.05-0.025,0.086-0.063,0.114C249.463,10.727,249.42,10.743,249.375,10.709z"/>
							<path fill="#AB9670" d="M249.375,10.709c0.037-0.015,0.075-0.031,0.112-0.046c0.064,0.022,0.1,0.075,0.137,0.126
								c0.05,0.081,0.116,0.152,0.163,0.236c0.007,0.021,0.006,0.042-0.003,0.063c-0.009,0.006-0.018,0.011-0.028,0.015
								C249.589,11.01,249.458,10.882,249.375,10.709z"/>
							<path fill="#56513D" d="M251.411,11.383c-0.047-0.118-0.132-0.137-0.242-0.095c-0.051,0.017-0.061-0.012-0.06-0.053
								c0.079-0.082,0.181-0.111,0.288-0.131c0.063,0.001,0.117,0.022,0.159,0.07c0.031,0.094-0.06,0.113-0.101,0.163
								C251.44,11.353,251.426,11.368,251.411,11.383z"/>
							<path fill="#625B4C" d="M250.308,11.528c0.137,0.086,0.216-0.029,0.312-0.089c0.019,0.014,0.03,0.032,0.033,0.055
								c0.007,0.07-0.015,0.131-0.059,0.185C250.435,11.748,250.37,11.641,250.308,11.528z"/>
							<path fill="#2873A1" d="M250.635,8.555c0.113,0.001,0.227,0.002,0.34,0.003c0.07,0.03,0.096,0.075,0.047,0.144
								c-0.06,0.012-0.119,0.033-0.182,0.029C250.748,8.699,250.636,8.692,250.635,8.555z"/>
							<path fill="#4687B1" d="M251.118,8.597c0.209-0.017,0.216,0.194,0.327,0.288c-0.078,0.031-0.156,0.035-0.233-0.004
								l0.002,0.002c-0.031-0.038-0.036-0.088-0.065-0.127C251.121,8.707,251.06,8.664,251.118,8.597z"/>
							<path fill="#3292CB" d="M250.635,8.555c0.037,0.091,0.142,0.07,0.202,0.123c-0.092,0.112-0.21,0.081-0.326,0.058
								c-0.057-0.026-0.109-0.055-0.06-0.13C250.497,8.534,250.567,8.547,250.635,8.555z"/>
							<path fill="#37739A" d="M250.451,8.605c0.008,0.027,0.016,0.055,0.025,0.082c0.019,0.008,0.033,0.022,0.04,0.042
								c0,0.021-0.008,0.039-0.022,0.054c-0.078,0-0.156,0-0.234,0.001C250.252,8.649,250.324,8.598,250.451,8.605z"/>
							<path fill="#877E58" d="M251.697,9.312c-0.02,0.019-0.039,0.038-0.059,0.056c-0.085,0.018-0.154-0.022-0.223-0.062
								c-0.015-0.011-0.029-0.024-0.042-0.038c-0.027-0.026-0.059-0.045-0.091-0.064c-0.016-0.011-0.028-0.026-0.036-0.044
								c-0.001-0.021,0.005-0.038,0.019-0.053c0.019-0.009,0.038-0.007,0.055,0.005l0.022,0.008c0.025-0.018,0.049-0.018,0.074,0
								C251.509,9.184,251.603,9.248,251.697,9.312z"/>
							<path fill="#4D9DCF" d="M251.456,9.069c0-0.014-0.001-0.029-0.001-0.043c-0.03-0.038-0.03-0.075,0.004-0.11
								c0.098-0.006,0.162,0.06,0.233,0.111c0.037,0.058,0.039,0.099-0.047,0.097C251.582,9.106,251.519,9.088,251.456,9.069z"/>
							<path fill="#C6B087" d="M249.771,9.652c0.002,0.046,0.003,0.092,0.005,0.138c-0.065-0.044-0.324,0.18-0.192-0.138
								C249.646,9.599,249.709,9.614,249.771,9.652z"/>
							<path fill="#A18A61" d="M249.804,9.343c0.007-0.04,0.023-0.073,0.064-0.088c0.038-0.043,0.083-0.071,0.143-0.067
								c0.035,0.01,0.057,0.031,0.06,0.07c-0.023,0.092-0.081,0.158-0.159,0.208c-0.053,0.01-0.088-0.013-0.114-0.056
								C249.791,9.386,249.792,9.364,249.804,9.343z"/>
							<path fill="#A08756" d="M249.442,10.281c-0.085,0.033-0.048,0.158-0.14,0.187c-0.014-0.116-0.005-0.228,0.059-0.331
								c0.04-0.006,0.071,0.008,0.095,0.041C249.469,10.215,249.466,10.25,249.442,10.281z"/>
							<path fill="#B29763" d="M250.594,11.679c-0.005-0.08-0.014-0.161,0.037-0.233c0.02,0.002,0.039,0.009,0.056,0.019
								c0.026,0.017,0.046,0.038,0.055,0.068c0.044,0.06,0.033,0.118-0.006,0.175C250.688,11.698,250.641,11.688,250.594,11.679z"/>
							<path fill="#B6AC99" d="M249.804,9.343c0.006,0.026,0.012,0.052,0.018,0.077c0.026,0.046,0.087,0.082,0.047,0.149
								c-0.019,0.014-0.039,0.024-0.062,0.029c-0.048,0.002-0.095,0.001-0.127-0.043C249.677,9.459,249.645,9.345,249.804,9.343z"/>
							<path fill="#3A82AE" d="M251.118,8.597c-0.004,0.071,0.065,0.091,0.097,0.137c-0.034,0.056-0.079,0.082-0.144,0.053
								c-0.017-0.017-0.034-0.034-0.051-0.05c-0.017-0.012-0.022-0.023-0.016-0.034c0.006-0.011,0.012-0.016,0.017-0.016
								c-0.015-0.043-0.031-0.086-0.046-0.129C251.029,8.549,251.074,8.569,251.118,8.597z"/>
							<path fill="#BFB095" d="M249.679,9.556c0.051,0.003,0.102,0.006,0.153,0.008c0.007,0.044-0.016,0.07-0.051,0.091
								l-0.011-0.003c-0.062,0.046-0.125,0-0.187,0C249.577,9.581,249.629,9.569,249.679,9.556z"/>
							<path fill="#CFAE70" d="M251.788,9.788c0.001-0.032,0.001-0.064,0.002-0.097c0.065-0.046,0.127-0.036,0.188,0.009
								C251.995,9.816,251.995,9.816,251.788,9.788z"/>
							<path fill="#C5A66B" d="M251.455,11.337c0.001-0.071,0.072-0.093,0.102-0.144c0.004-0.049,0.036-0.071,0.08-0.083
								c0.021-0.001,0.041,0.004,0.058,0.017c-0.001,0.019-0.001,0.038-0.002,0.057C251.627,11.255,251.561,11.327,251.455,11.337z"
								/>
							<path fill="#917D57" d="M251.978,9.7c-0.063-0.003-0.125-0.006-0.188-0.008c-0.001-0.017-0.002-0.035-0.002-0.052
								c-0.025-0.031-0.026-0.06,0.005-0.088c0.062,0.033,0.123,0.066,0.185,0.1C251.977,9.667,251.978,9.684,251.978,9.7z"/>
							<path fill="#42A3DC" d="M251.459,8.916c-0.001,0.037-0.003,0.073-0.004,0.11c-0.046-0.106-0.176-0.072-0.242-0.145
								c0.078,0.001,0.155,0.002,0.233,0.004C251.455,8.893,251.459,8.903,251.459,8.916z"/>
							<path fill="#A68C5A" d="M249.431,10.18c-0.023-0.014-0.047-0.028-0.07-0.042c0.011-0.072,0.05-0.106,0.124-0.093
								c0,0.027,0,0.053,0,0.08C249.5,10.175,249.481,10.192,249.431,10.18z"/>
							<path fill="#5D93B6" d="M251.645,9.125c0.039-0.021,0.048-0.057,0.047-0.097c0.086,0.023,0.07,0.1,0.094,0.165
								C251.722,9.19,251.677,9.171,251.645,9.125z"/>
							<path fill="#F9F9F9" d="M250.008,9.217c-0.047,0.013-0.094,0.025-0.14,0.038c0-0.025,0-0.05,0-0.075
								c0.049-0.021,0.099-0.041,0.148-0.062C250.04,9.153,250.042,9.186,250.008,9.217z"/>
							<path fill="#82765E" d="M250.928,11.659c0.017-0.013,0.035-0.027,0.052-0.04c0.056-0.043,0.098-0.016,0.137,0.028
								c0.003,0.01,0.005,0.021,0.008,0.031C251.052,11.749,250.994,11.66,250.928,11.659z"/>
							<path fill="#82765E" d="M251.112,11.565c0.087-0.071,0.098-0.007,0.106,0.06c-0.019,0.04-0.056,0.045-0.093,0.052
								c-0.006-0.008-0.011-0.017-0.016-0.025C251.101,11.623,251.108,11.594,251.112,11.565z"/>
							<path fill="#7C6A47" d="M251.416,9.12c-0.025,0-0.049,0-0.074,0c0.024-0.014,0.048-0.027,0.071-0.041
								C251.409,9.093,251.41,9.106,251.416,9.12z"/>
							<path fill="#534A38" d="M252.092,10.61c-0.067,0.084-0.133,0.168-0.2,0.251c-0.053-0.052-0.099,0.026-0.151,0.007
								c-0.032-0.012-0.056-0.034-0.071-0.065c-0.012-0.033-0.011-0.067,0.001-0.1c0.016-0.031,0.04-0.054,0.072-0.069
								c0.096-0.009,0.16-0.055,0.175-0.155c0.01-0.046,0.025-0.089,0.062-0.12c0.023-0.008,0.046-0.006,0.067,0.007
								c0.038,0.063,0.053,0.13,0.038,0.203C252.085,10.583,252.088,10.597,252.092,10.61z"/>
							<path fill="#5E5441" d="M252.084,10.57c-0.035-0.061-0.059-0.126-0.053-0.198c-0.006-0.008-0.012-0.016-0.018-0.024
								c0.006-0.008,0.012-0.016,0.019-0.024C252.176,10.379,252.128,10.475,252.084,10.57z"/>
							<path fill="#C9A96D" d="M251.935,10.172c0.07-0.067,0.16-0.027,0.239-0.048c0.003,0.104-0.07,0.103-0.143,0.102
								c-0.01,0-0.02,0-0.03,0C251.971,10.219,251.952,10.197,251.935,10.172z"/>
							<path fill="#C0A36F" d="M252.031,10.227c0,0.017-0.001,0.034-0.001,0.05c-0.02,0.014-0.039,0.013-0.057-0.004
								c-0.003-0.041,0.009-0.063,0.055-0.047L252.031,10.227z"/>
							<path fill="#342E23" d="M251.983,10.275c0.016,0,0.032,0.001,0.047,0.002c0.002,0.015,0.002,0.031,0.001,0.046h-0.001
								c-0.008,0.007-0.016,0.014-0.023,0.021c-0.01-0.004-0.019-0.008-0.029-0.012C251.969,10.313,251.971,10.294,251.983,10.275z"
								/>
							<path fill="#72644A" d="M251.598,9.889c0.082,0.112,0.163,0.224,0.245,0.337c-0.041,0.023-0.09,0.008-0.132,0.031
								c-0.076,0.002-0.121-0.041-0.152-0.105c-0.009-0.022-0.014-0.044-0.018-0.067c-0.003-0.024-0.004-0.047-0.003-0.071
								C251.544,9.966,251.555,9.92,251.598,9.889z"/>
							<path fill="#5F5749" d="M251.792,9.552c-0.002,0.029-0.003,0.059-0.005,0.088c-0.062,0.036-0.124,0.072-0.186,0.108
								c-0.045-0.033-0.049-0.08-0.044-0.129c0.012-0.06,0.03-0.117,0.072-0.163c0.021-0.017,0.043-0.017,0.064,0.001
								C251.727,9.488,251.76,9.52,251.792,9.552z"/>
							<path fill="#625742" d="M251.741,10.231c0.032-0.053,0.068-0.007,0.102-0.005c0.015,0.001,0.03,0.002,0.044,0.002
								c0.017,0.018,0.03,0.039,0.039,0.062c0.01,0.075,0.021,0.15-0.06,0.197c-0.024,0.007-0.048,0.006-0.072-0.002
								c-0.055-0.037-0.069-0.097-0.083-0.156C251.707,10.293,251.715,10.259,251.741,10.231z"/>
							<path fill="#D7D6D4" d="M251.593,9.604c0.003,0.048,0.006,0.096,0.009,0.144c-0.001,0.047-0.003,0.094-0.004,0.141
								c-0.001,0.053-0.002,0.106-0.004,0.16c-0.023,0.005-0.044,0-0.062-0.015c-0.014-0.018-0.024-0.038-0.031-0.06
								c-0.015-0.077-0.022-0.155-0.027-0.233C251.488,9.673,251.495,9.599,251.593,9.604z"/>
							<path fill="#544C3B" d="M251.983,10.275c0.002,0.016,0.003,0.031,0.002,0.047c-0.037,0.02-0.056,0.002-0.07-0.03
								c-0.003-0.021,0-0.041,0.01-0.06c0.003-0.02,0.007-0.04,0.01-0.06c0.039,0.005,0.08,0.007,0.094,0.054
								C252.014,10.243,251.998,10.259,251.983,10.275z"/>
							<path fill="#C2A470" d="M251.925,10.232c0.006,0.012,0.009,0.026,0.009,0.039c-0.014,0.026-0.029,0.027-0.046,0.002
								c-0.002-0.015-0.002-0.03-0.001-0.046C251.899,10.229,251.912,10.23,251.925,10.232z"/>
							<path fill="#6F6044" d="M250.977,11.425c-0.041,0.161-0.098-0.01-0.146,0.007c-0.017-0.016-0.026-0.036-0.026-0.059
								c0.015-0.053,0.053-0.07,0.105-0.064c0.035,0.012,0.057,0.036,0.064,0.074C250.973,11.396,250.974,11.41,250.977,11.425z"/>
							<path fill="#676555" d="M250.974,11.381c-0.017-0.017-0.033-0.034-0.05-0.052c0.029-0.118,0.098-0.132,0.195-0.077
								c0.016,0.012,0.033,0.024,0.049,0.036C251.104,11.319,251.039,11.35,250.974,11.381z"/>
							<path fill="#6F6044" d="M251.112,11.565c0.053,0.031,0.019,0.059-0.003,0.087c-0.043-0.011-0.086-0.022-0.129-0.033
								c0.013-0.046,0.042-0.077,0.088-0.092C251.082,11.539,251.097,11.552,251.112,11.565z"/>
							<path fill="#45A4DA" d="M251.119,11.253c-0.063,0.032-0.147,0.009-0.195,0.077c-0.032,0.017-0.064,0.034-0.096,0.05
								c-0.114,0.071-0.192-0.032-0.286-0.06c-0.096-0.029-0.191-0.059-0.287-0.088c-0.016-0.044-0.053-0.046-0.091-0.047
								c-0.028-0.013-0.061-0.017-0.084-0.039c-0.055-0.078-0.134-0.133-0.2-0.201c-0.047-0.07-0.091-0.141-0.09-0.23
								c0.01-0.059,0.049-0.091,0.102-0.11c0.231-0.035,0.461-0.043,0.691,0.006c0.128,0.07,0.038,0.139-0.002,0.208
								c-0.036,0.058-0.008,0.098,0.039,0.132c0.125,0.109,0.256,0.037,0.385,0.013c0.024-0.032,0.041-0.066,0.043-0.107
								c0.008-0.067-0.021-0.136,0.011-0.202c0.018-0.02,0.039-0.034,0.064-0.044c0.204-0.01,0.416-0.092,0.6,0.068
								c-0.009,0.042-0.018,0.085-0.027,0.127c0.02,0.045,0.003,0.085-0.016,0.124c-0.06,0.108-0.138,0.194-0.268,0.214
								C251.315,11.18,251.217,11.216,251.119,11.253z"/>
							<path fill="#5B5445" d="M250.543,11.32c0.111-0.055,0.184,0.072,0.286,0.06c0.001,0.017,0.002,0.034,0.003,0.052
								c-0.019,0.002-0.038,0.003-0.057,0.005c-0.042,0.026-0.077,0.078-0.137,0.036c0.003-0.01,0.001-0.018-0.007-0.026
								l-0.012-0.008C250.618,11.384,250.494,11.408,250.543,11.32z"/>
							<path fill="#8A7855" d="M249.723,10.226c0.089-0.034,0.106-0.125,0.151-0.194c0.067-0.006,0.08,0.044,0.094,0.093
								c0.008,0.065-0.006,0.123-0.052,0.171c-0.038,0.033-0.081,0.052-0.132,0.051c-0.06-0.014-0.112-0.038-0.117-0.111
								C249.682,10.216,249.701,10.213,249.723,10.226z"/>
							<path fill="#867453" d="M249.782,9.655c0.017-0.03,0.034-0.061,0.051-0.091c0.01-0.008,0.021-0.015,0.034-0.019
								c0.022-0.011,0.044-0.011,0.067-0.002c0.042,0.027,0.066,0.067,0.077,0.115c0.007,0.049,0.002,0.095-0.03,0.136
								c-0.021,0.016-0.042,0.016-0.063,0.001C249.887,9.735,249.844,9.686,249.782,9.655z"/>
							<path fill="#BD9F66" d="M249.723,10.226c-0.017,0.003-0.034,0.006-0.051,0.01c-0.074,0.022-0.145,0.061-0.227,0.043
								l-0.003,0.002c-0.004-0.034-0.007-0.068-0.011-0.102c0.018-0.018,0.036-0.037,0.054-0.055
								C249.566,10.154,249.695,10.071,249.723,10.226z"/>
							<path fill="#706845" d="M249.917,9.796c0.016-0.002,0.031-0.002,0.047,0c0.028,0.019,0.042,0.047,0.051,0.078
								c0.012,0.052,0.018,0.104,0.025,0.156c0.001,0.022-0.003,0.043-0.011,0.063c-0.025,0.038-0.058,0.063-0.107,0.059
								c-0.017-0.04-0.033-0.08-0.05-0.119C249.913,9.958,249.918,9.878,249.917,9.796z"/>
							<path fill="#BFA76C" d="M250.494,8.982c0.03-0.004,0.061-0.009,0.091-0.013c0.041-0.055,0.09-0.097,0.157-0.116
								c0.064-0.011,0.11,0.015,0.139,0.071c0.047,0.021,0.094,0.042,0.141,0.062c0.012,0.021,0.012,0.043,0.001,0.065
								c-0.036,0.051-0.089,0.071-0.148,0.081c-0.066,0.009-0.133,0.005-0.2,0.012c-0.034,0.004-0.065,0.017-0.098,0.024
								c-0.023,0.006-0.046,0.01-0.069,0.013c-0.074,0.005-0.146,0.006-0.209-0.042c-0.016-0.02-0.024-0.043-0.023-0.068
								C250.311,8.95,250.432,9.038,250.494,8.982z"/>
							<path fill="#94A6B8" d="M251.021,8.687c0,0.017-0.001,0.034-0.001,0.05c-0.054,0.004-0.092,0.026-0.098,0.086
								c-0.07,0.084-0.166-0.024-0.24,0.032c-0.083-0.005-0.133-0.064-0.189-0.114c-0.006-0.018-0.011-0.036-0.017-0.053
								c0.12-0.003,0.241-0.007,0.361-0.01C250.899,8.68,250.96,8.684,251.021,8.687z"/>
							<path fill="#8E8662" d="M251.32,9.112c-0.016,0.002-0.032,0.005-0.049,0.007c-0.024,0.022-0.036,0.057-0.072,0.068
								c-0.024,0-0.046-0.005-0.067-0.016c-0.044-0.048-0.133-0.087-0.038-0.166c0.07,0.005,0.144-0.024,0.21,0.022
								C251.31,9.055,251.315,9.084,251.32,9.112z"/>
							<path fill="#3FA2DB" d="M251.071,8.787c0.048-0.018,0.096-0.035,0.144-0.053c0.072,0.049,0.014,0.099,0,0.148
								C251.147,8.881,251.074,8.887,251.071,8.787z"/>
							<path fill="#2F6F96" d="M250.68,8.823c0.081-0.077,0.161,0.024,0.242,0c-0.013,0.033-0.027,0.067-0.04,0.101
								c-0.048-0.009-0.097-0.017-0.145-0.026C250.689,8.894,250.666,8.872,250.68,8.823z"/>
							<path fill="#FCFCFC" d="M251.305,9.027c-0.079,0.001-0.159,0.002-0.238,0.004c-0.018,0.011-0.031,0.007-0.041-0.012
								c-0.002-0.011-0.003-0.022-0.003-0.033C251.118,8.996,251.224,8.93,251.305,9.027z"/>
							<path fill="#4A473B" d="M251.642,10.898c0.019-0.031,0.037-0.062,0.056-0.093c0.016,0.016,0.031,0.033,0.047,0.049
								c0.046,0.016,0.077,0.046,0.087,0.095c0.039,0.124-0.106,0.107-0.137,0.178c-0.017,0.002-0.033,0.003-0.05,0.005
								C251.557,11.056,251.662,10.976,251.642,10.898z"/>
							<path fill="#483F2F" d="M251.832,10.949c-0.029-0.032-0.058-0.063-0.087-0.095c0.049,0.01,0.106-0.159,0.147,0.007
								C251.872,10.891,251.852,10.92,251.832,10.949z"/>
							<path fill="#3980AC" d="M250.68,8.823c0.019,0.025,0.038,0.05,0.056,0.075c-0.037,0.052-0.086,0.08-0.151,0.071
								c-0.05-0.063-0.13-0.023-0.196-0.052c0.038-0.047,0.117-0.055,0.104-0.132c0-0.014-0.001-0.029,0-0.043
								C250.573,8.728,250.629,8.769,250.68,8.823z"/>
							<path fill="#7CA2BA" d="M250.494,8.982c-0.065,0.029-0.131,0.057-0.196,0.086c-0.022,0.033-0.053,0.042-0.09,0.037
								c-0.023-0.008-0.039-0.022-0.047-0.045c0-0.025,0-0.049-0.001-0.074C250.271,8.984,250.382,8.983,250.494,8.982z"/>
							<path fill="#C2A369" d="M250.638,11.472c0.046-0.012,0.091-0.024,0.137-0.036c-0.011,0.032-0.022,0.064-0.032,0.096
								C250.699,11.526,250.658,11.518,250.638,11.472z"/>
							<path fill="#554D38" d="M249.827,10.743c0.063,0.052,0.081,0.127,0.1,0.201c-0.019,0.027,0.002,0.052,0.006,0.077
								c-0.007,0.04-0.028,0.067-0.069,0.076c-0.027-0.003-0.054-0.006-0.081-0.009c-0.009-0.012-0.016-0.025-0.019-0.039
								c-0.02-0.086-0.104-0.167-0.02-0.261C249.767,10.762,249.793,10.745,249.827,10.743z"/>
							<path fill="#2B261D" d="M249.864,11.097c0.019-0.032,0.037-0.064,0.056-0.096c0.112-0.026,0.128,0.089,0.193,0.132
								c0.017,0.017,0.035,0.035,0.052,0.052C250.022,11.302,249.959,11.145,249.864,11.097z"/>
							<path fill="#B6BCB2" d="M251.694,9.456c-0.018,0.001-0.037,0.002-0.055,0.004c-0.019,0.047-0.05,0.076-0.105,0.069
								c-0.071-0.015-0.138-0.034-0.153-0.12c0.002-0.024,0.012-0.045,0.028-0.062c0.089-0.03,0.158,0.019,0.229,0.06
								C251.657,9.423,251.675,9.439,251.694,9.456z"/>
							<path fill="#2F7538" d="M251.638,9.406c-0.084,0.022-0.154-0.031-0.231-0.043c-0.016-0.015-0.025-0.033-0.027-0.054
								c0.002-0.01,0.004-0.021,0.007-0.031c0.007-0.008,0.014-0.015,0.021-0.023c0.074,0.044,0.173,0.035,0.23,0.113
								C251.641,9.381,251.641,9.394,251.638,9.406z"/>
							<path fill="#917C56" d="M250.16,9.059c0.024,0.007,0.047,0.013,0.071,0.02c0.014,0.035,0.041,0.065,0.045,0.105
								c-0.002,0.02-0.01,0.038-0.023,0.053c-0.051,0.037-0.107,0.054-0.17,0.041c-0.007-0.007-0.014-0.015-0.021-0.022
								c-0.018-0.013-0.036-0.026-0.054-0.04c0.002-0.033,0.005-0.066,0.007-0.099C250.075,9.124,250.116,9.088,250.16,9.059z"/>
							<path fill="#5C503B" d="M249.827,10.743c-0.018,0.021-0.036,0.041-0.054,0.062c-0.064,0.006-0.128,0.036-0.191-0.001
								c-0.031-0.047-0.062-0.094-0.094-0.141c0.051-0.012,0.084-0.04,0.087-0.095c0.065-0.069,0.137-0.02,0.207-0.014
								c0.032,0.008,0.061,0.02,0.085,0.042c0.014,0.019,0.013,0.038,0,0.057C249.82,10.668,249.826,10.706,249.827,10.743z"/>
							<path fill="#514837" d="M249.482,10.558c-0.089-0.066-0.034-0.154-0.035-0.233c0.089-0.051,0.168-0.03,0.243,0.03
								c0.016,0.064,0.144,0.091,0.061,0.187C249.662,10.565,249.569,10.51,249.482,10.558z"/>
							<path fill="#584E3B" d="M249.679,10.373c-0.077-0.016-0.155-0.032-0.232-0.048c-0.003-0.015-0.004-0.03-0.002-0.045
								c0.067-0.061,0.131-0.138,0.227-0.043c0.035,0.029,0.069,0.059,0.104,0.088C249.774,10.4,249.735,10.403,249.679,10.373z"/>
							<path fill="#887757" d="M249.482,10.558c0.084-0.084,0.192-0.022,0.286-0.048c0.017,0.013,0.027,0.03,0.031,0.05
								c-0.002,0.021-0.011,0.039-0.027,0.053c-0.066-0.015-0.132-0.031-0.198-0.046C249.544,10.564,249.513,10.561,249.482,10.558z
								"/>
							<path fill="#60533C" d="M249.581,10.804c0.064-0.026,0.128-0.083,0.191,0.001c-0.078,0.079,0.064,0.165-0.008,0.244
								C249.67,10.992,249.62,10.902,249.581,10.804z"/>
							<path fill="#38342B" d="M251.642,10.898c0.09,0.077-0.022,0.157,0.004,0.234c-0.029,0.02-0.059,0.04-0.088,0.061
								c-0.048-0.017-0.096-0.033-0.145-0.05C251.489,11.061,251.565,10.98,251.642,10.898z"/>
							<path fill="#37964D" d="M251.403,9.221c0.002,0.011,0.004,0.023,0.005,0.035l-0.003,0.01
								c-0.012,0.016-0.023,0.033-0.032,0.051c-0.009,0.005-0.018,0.01-0.027,0.014c-0.021,0-0.039-0.008-0.053-0.024
								c-0.009-0.019-0.012-0.039-0.01-0.06c0.006-0.021,0.018-0.036,0.037-0.047C251.349,9.195,251.38,9.193,251.403,9.221z"/>
							<path fill="#1D5126" d="M251.403,9.221c-0.03-0.003-0.06-0.006-0.09-0.009c-0.013-0.007-0.018-0.016-0.017-0.026
								c0.002-0.011,0.004-0.017,0.007-0.017C251.347,9.166,251.381,9.181,251.403,9.221z"/>
							<path fill="#1C7233" d="M251.207,9.158c0.021-0.013,0.043-0.026,0.064-0.039c-0.002,0.014-0.003,0.029-0.003,0.043
								c0.015,0.02,0.015,0.041,0.002,0.063c-0.022,0.009-0.044,0.008-0.066-0.004C251.193,9.2,251.193,9.179,251.207,9.158z"/>
							<path fill="#239E46" d="M251.252,9.208c0.006-0.015,0.011-0.031,0.017-0.046c0.012,0.002,0.023,0.005,0.035,0.007
								c0.004,0.014,0.008,0.028,0.01,0.042l-0.011,0.01C251.281,9.233,251.264,9.228,251.252,9.208z"/>
							<path fill="#31753C" d="M249.918,9.451c-0.002-0.102,0.08-0.142,0.144-0.195l-0.002,0.015
								c0.045,0.019,0.11,0.011,0.112,0.086c-0.029,0.081-0.101,0.1-0.172,0.121c-0.021,0.004-0.041,0.002-0.062-0.003
								C249.932,9.467,249.925,9.459,249.918,9.451z"/>
							<path fill="#BDBCBB" d="M249.913,9.565c-0.016-0.006-0.031-0.013-0.047-0.019c-0.015-0.042-0.03-0.084-0.045-0.125
								c0.032,0.01,0.064,0.021,0.096,0.031l-0.001,0.01C249.946,9.497,249.942,9.531,249.913,9.565z"/>
							<path fill="#359653" d="M251.724,10.678c-0.216-0.061-0.435-0.029-0.653-0.014c-0.08,0.001-0.077-0.051-0.068-0.107
								c0.117-0.172,0.308-0.075,0.459-0.126c0.035-0.009,0.071-0.01,0.107-0.008c0.065,0.015,0.139-0.003,0.193,0.052
								c0.029,0.04,0.035,0.084,0.021,0.131c-0.011,0.02-0.024,0.039-0.04,0.056C251.737,10.67,251.731,10.675,251.724,10.678z"/>
							<path fill="#645740" d="M251.742,10.662c0-0.02,0-0.04,0-0.06c0.051-0.031-0.002-0.105,0.054-0.134
								c0.016,0.001,0.032,0.001,0.048,0.002c0.041,0.03,0.105-0.005,0.138,0.049C251.941,10.632,251.881,10.714,251.742,10.662z"/>
							<path fill="#4C4434" d="M251.982,10.519c-0.044-0.022-0.128,0.068-0.138-0.049c0.061-0.055,0.037-0.129,0.043-0.197
								c0.015,0,0.03-0.001,0.046-0.002c0.017,0.017,0.034,0.034,0.052,0.051l-0.002,0.001c0.014,0.011,0.019,0.021,0.014,0.032
								c-0.005,0.011-0.01,0.016-0.014,0.016C251.983,10.421,251.982,10.47,251.982,10.519z"/>
							<path fill="#534A39" d="M251.983,10.372c0-0.016,0-0.032,0-0.048c0.016,0,0.032,0,0.048,0c0,0.016,0,0.032,0,0.048
								C252.015,10.372,251.999,10.372,251.983,10.372z"/>
							<path fill="#BEA985" d="M251.549,9.976c0.004,0.021,0.008,0.043,0.012,0.064c0.009,0.015,0.023,0.024,0.04,0.026
								c-0.003,0.022-0.006,0.044-0.009,0.066c-0.026,0.088-0.007,0.192-0.092,0.259c-0.174,0.036-0.228-0.107-0.31-0.209
								c-0.021-0.047-0.023-0.094-0.001-0.14C251.305,9.989,251.388,9.766,251.549,9.976z"/>
							<path fill="#9E8557" d="M251.504,10.372c0.008-0.089-0.017-0.189,0.089-0.242c0.029,0.064,0.078,0.097,0.148,0.1
								c0,0.031,0.001,0.062,0.001,0.093c-0.003,0.01-0.006,0.02-0.008,0.03c-0.032,0.046-0.077,0.066-0.132,0.068
								C251.567,10.41,251.494,10.474,251.504,10.372z"/>
							<path fill="#6C8FAB" d="M251.602,10.065c-0.013-0.009-0.027-0.017-0.04-0.026c0.011,0.003,0.022,0.006,0.033,0.009
								C251.594,10.049,251.602,10.065,251.602,10.065z"/>
							<path fill="#B8BFC5" d="M251.55,9.506c0.03-0.015,0.06-0.031,0.089-0.046c-0.007,0.051,0.017,0.111-0.046,0.144
								c-0.029,0.049-0.059,0.098-0.088,0.146c-0.029,0.024-0.061,0.027-0.095,0.013c-0.017-0.015-0.029-0.034-0.036-0.056
								c0.003-0.076-0.021-0.159,0.047-0.221C251.465,9.485,251.511,9.472,251.55,9.506z"/>
							<path fill="#987F52" d="M251.796,10.468c-0.011,0.047,0.009,0.108-0.054,0.134c0-0.041-0.001-0.081-0.001-0.121
								c-0.044-0.054-0.034-0.106,0.003-0.158l-0.002,0.002C251.8,10.357,251.786,10.417,251.796,10.468z"/>
							<path fill="#F2F4F7" d="M251.41,9.741c0.032,0.003,0.063,0.006,0.095,0.009c0.07,0.064,0.029,0.15,0.045,0.225
								c-0.049,0.015-0.104-0.139-0.153,0.01c-0.028,0.085-0.115,0.053-0.181,0.058c-0.051-0.012-0.08-0.049-0.104-0.092
								c-0.021-0.046-0.031-0.093-0.011-0.142C251.186,9.706,251.298,9.723,251.41,9.741z"/>
							<path fill="#259D48" d="M249.867,10.652c-0.001-0.013-0.004-0.025-0.011-0.036c-0.044-0.078-0.033-0.146,0.034-0.206
								c0.02-0.014,0.043-0.023,0.068-0.028c0.083-0.002,0.164,0.019,0.247,0.016c0.093,0.006,0.182-0.044,0.277-0.021
								c0.081,0.023,0.162,0.044,0.218,0.114c0.02,0.031,0.028,0.066,0.025,0.103c-0.005,0.024-0.015,0.045-0.03,0.063
								c-0.02,0.015-0.042,0.017-0.065,0.008C250.375,10.661,250.121,10.657,249.867,10.652z"/>
							<path fill="#0E1F2D" d="M251.07,10.989c-0.09,0.188-0.272,0.015-0.397,0.096c-0.033,0.021-0.105-0.055-0.07-0.134
								c0.007-0.007,0.013-0.015,0.02-0.022c0.028-0.013,0.058-0.014,0.088-0.01c0.05,0.012,0.1-0.002,0.151-0.001
								C250.936,10.927,251.014,10.927,251.07,10.989z"/>
							<path fill="#738491" d="M251.07,10.989c-0.087,0.027-0.165,0-0.24-0.041c-0.013-0.012-0.019-0.027-0.019-0.044
								c0.003-0.025,0.009-0.05,0.014-0.075c0.002-0.018,0.006-0.035,0.01-0.052c0.005-0.018,0.012-0.034,0.022-0.05
								c0.013-0.015,0.028-0.024,0.047-0.028c0.051,0.01,0.076,0.053,0.109,0.086c0.033,0.033,0.076,0.057,0.092,0.105
								C251.092,10.923,251.081,10.956,251.07,10.989z"/>
							<path fill="#809195" d="M250.989,10.817c-0.029-0.036-0.058-0.072-0.087-0.108c-0.009,0.007-0.018,0.013-0.027,0.02
								c-0.014-0.018-0.019-0.039-0.019-0.062c0.008-0.033,0.027-0.059,0.052-0.082c0.036-0.024,0.072-0.051,0.116-0.016
								c0.015,0.032,0.031,0.063,0.046,0.095c0.002,0.021,0.003,0.042,0.005,0.063C251.105,10.813,251.065,10.833,250.989,10.817z"
								/>
							<path fill="#D8DBDE" d="M250.629,10.666c0.018-0.004,0.036-0.008,0.054-0.011c0.01,0,0.019,0,0.029,0
								c0.019,0.003,0.037,0.01,0.055,0.02c0.017,0.012,0.029,0.027,0.039,0.045c0.006,0.02,0.007,0.04,0.004,0.061
								c-0.004,0.01-0.008,0.019-0.013,0.029c-0.015,0.016-0.032,0.028-0.052,0.037c-0.031,0.011-0.063,0.016-0.096,0.017
								c-0.057,0.001-0.109-0.012-0.15-0.057C250.543,10.758,250.586,10.712,250.629,10.666z"/>
							<path fill="#A0A5AB" d="M250.5,10.805c0.063,0.002,0.126,0.005,0.189,0.007c0.011,0.019,0.011,0.039,0,0.058
								c-0.028,0.031-0.071,0.043-0.095,0.079l0.009,0.002C250.389,11.028,250.493,10.883,250.5,10.805z"/>
							<path fill="#5C5440" d="M250.113,11.133c-0.064-0.044-0.128-0.088-0.193-0.132c-0.034-0.023-0.029-0.042,0.007-0.057
								C250.028,10.969,250.083,11.038,250.113,11.133z"/>
							<path fill="#1E2F52" d="M250.989,10.817c0.056-0.004,0.103-0.017,0.087-0.09c0.057,0.046,0.029,0.107,0.027,0.163
								C251.093,10.822,250.978,10.919,250.989,10.817z"/>
							<path fill="#43A1D7" d="M249.962,10.411c-0.015,0.006-0.03,0.012-0.045,0.018c-0.026,0.012-0.048,0.007-0.066-0.016
								c-0.019-0.051-0.026-0.098,0.031-0.131c0.042-0.034,0.04-0.082,0.042-0.129c0.025-0.024,0.05-0.049,0.074-0.074
								c0.068-0.048,0.141-0.072,0.224-0.048c0.088,0.03,0.107,0.084,0.056,0.162C250.2,10.307,250.116,10.41,249.962,10.411z"/>
							<path fill="#887D61" d="M249.881,10.281c-0.006,0.045-0.011,0.091-0.017,0.136c-0.042,0.042,0.031,0.155-0.091,0.148
								c-0.002-0.018-0.003-0.037-0.005-0.055c-0.012-0.057-0.171-0.02-0.089-0.137c0.039-0.002,0.075-0.011,0.097-0.049
								C249.811,10.31,249.846,10.295,249.881,10.281z"/>
							<path fill="#B3B9BE" d="M249.913,9.565c0.001-0.034,0.002-0.069,0.004-0.103c0.014-0.004,0.028-0.006,0.042-0.006
								c0.121-0.062,0.205,0.017,0.295,0.078c0.019,0.012,0.035,0.026,0.051,0.041c0.014,0.017,0.023,0.037,0.028,0.059
								c0.001,0.022-0.002,0.043-0.011,0.064c-0.012,0.018-0.028,0.033-0.046,0.045c-0.028,0.016-0.059,0.026-0.092,0.029
								c-0.021-0.001-0.042-0.005-0.062-0.013c-0.056-0.027-0.11-0.057-0.149-0.108C249.954,9.621,249.933,9.593,249.913,9.565z"/>
							<path fill="#A7ABAD" d="M249.974,9.65c0.078-0.006,0.143,0.016,0.185,0.086c-0.041,0.072-0.085,0.14-0.179,0.147
								c-0.005-0.029-0.01-0.058-0.016-0.087C249.967,9.747,249.97,9.698,249.974,9.65z"/>
							<path fill="#DFDBA0" d="M249.98,9.883c0.03-0.085,0.07-0.158,0.179-0.147l-0.001,0.013c0.097,0.043,0.109,0.119,0.081,0.211
								c-0.064,0.085-0.158,0.068-0.246,0.071C249.989,9.981,249.984,9.932,249.98,9.883z"/>
							<path fill="#BCB827" d="M249.993,10.03c0.059-0.062,0.13-0.07,0.208-0.048c0.038-0.017,0.058,0.005,0.073,0.035
								c0.004,0.022-0.001,0.042-0.013,0.06c-0.088,0-0.176,0-0.264,0.001C249.996,10.062,249.994,10.046,249.993,10.03z"/>
							<path fill="#2D8943" d="M250.249,9.211c-0.002-0.019-0.004-0.038-0.006-0.058c0.004-0.034,0.02-0.052,0.057-0.043
								c0.079,0.006,0.159,0.012,0.238,0.018c0.021,0.071-0.039,0.091-0.079,0.123c-0.038,0.022-0.078,0.04-0.122,0.048
								c-0.035,0.003-0.067-0.004-0.093-0.028C250.231,9.251,250.234,9.23,250.249,9.211z"/>
							<path fill="#297438" d="M251.027,9.019c0.014,0.003,0.028,0.007,0.041,0.012c0.032,0.047,0.065,0.094,0.097,0.142
								c-0.008,0.008-0.016,0.017-0.024,0.025c-0.095,0.043-0.183,0.037-0.259-0.042c-0.013-0.021-0.014-0.043-0.004-0.066
								C250.927,9.066,250.977,9.043,251.027,9.019z"/>
							<path fill="#A0A4A0" d="M250.44,9.216c0.032-0.029,0.065-0.058,0.097-0.088c0.019-0.002,0.037-0.005,0.056-0.007
								c0.01,0.004,0.02,0.009,0.03,0.013c0.048,0.043,0.057,0.093,0.027,0.151c-0.03,0.038-0.068,0.06-0.117,0.056
								C250.469,9.325,250.44,9.281,250.44,9.216z"/>
							<path fill="#4BA14F" d="M250.877,9.09c0.002,0.014,0.002,0.028,0.001,0.042c0.013,0.018,0.015,0.038,0.006,0.058
								c-0.027,0.037-0.062,0.057-0.109,0.055c-0.072-0.008-0.097-0.076-0.145-0.114c-0.013-0.02-0.01-0.037,0.009-0.051
								C250.719,9.084,250.798,9.087,250.877,9.09z"/>
							<path fill="#CFAE70" d="M250.299,9.11c-0.019,0.014-0.038,0.029-0.057,0.043c-0.031-0.021-0.034-0.046-0.011-0.075
								c0.022-0.004,0.044-0.008,0.067-0.012C250.299,9.082,250.299,9.096,250.299,9.11z"/>
							<path fill="#1C7233" d="M250.64,9.081c-0.001,0.014,0.001,0.027,0.006,0.04c-0.017,0.019-0.035,0.021-0.055,0.005
								l0.002-0.005C250.597,9.093,250.608,9.075,250.64,9.081z"/>
							<path fill="#277039" d="M251.207,9.158c0.002,0.016,0.004,0.032,0.006,0.049c-0.012,0.019-0.029,0.025-0.05,0.019
								c-0.014-0.018-0.014-0.036,0.001-0.053l0,0C251.179,9.167,251.193,9.162,251.207,9.158z"/>
							<path fill="#A2A2A2" d="M251.55,9.506c-0.048,0.002-0.096,0.004-0.144,0.005c-0.03,0.025-0.062,0.026-0.096,0.009
								c-0.026-0.028-0.031-0.061-0.02-0.096c0.013-0.02,0.031-0.033,0.054-0.039c0.024,0,0.044,0.009,0.062,0.025
								C251.453,9.443,251.501,9.474,251.55,9.506z"/>
							<path fill="#A5ACA7" d="M251.405,9.411c-0.014,0-0.028,0.001-0.042,0.001c-0.016-0.009-0.026-0.023-0.031-0.041
								c0.001-0.018,0.008-0.034,0.021-0.047c-0.002-0.009,0-0.016,0.006-0.023c0.022-0.002,0.036,0.008,0.043,0.029
								c0.001,0.011,0.003,0.023,0.006,0.034C251.407,9.379,251.406,9.395,251.405,9.411z"/>
							<path fill="#1C7233" d="M251.401,9.33c-0.014-0.01-0.029-0.019-0.043-0.029c0.015-0.012,0.031-0.023,0.046-0.035
								C251.403,9.287,251.402,9.308,251.401,9.33z"/>
							<path fill="#2C8B43" d="M250.249,9.211c0.003,0.023,0.006,0.045,0.009,0.068c-0.005,0.06-0.019,0.107-0.095,0.072
								c-0.034-0.027-0.068-0.053-0.102-0.08C250.116,9.23,250.18,9.212,250.249,9.211z"/>
							<path fill="#4A653E" d="M249.773,10.565c0.03-0.049,0.061-0.099,0.091-0.148c0.017,0.004,0.035,0.007,0.052,0.011
								c-0.02,0.062-0.04,0.125-0.061,0.187c-0.028-0.001-0.056-0.002-0.084-0.002C249.772,10.597,249.773,10.581,249.773,10.565z"
								/>
							<path fill="#B7B7B7" d="M251.353,9.354c0.003,0.019,0.006,0.039,0.009,0.058c-0.014,0.001-0.027,0.001-0.041,0.001
								c-0.122,0.036-0.232,0.044-0.276-0.112c0.021-0.062,0.05-0.113,0.13-0.086c0.013,0.001,0.026-0.002,0.038-0.008
								c0.013,0.005,0.025,0.006,0.038,0.002c0.017,0.005,0.033,0.009,0.05,0.014c0.005,0.03,0.01,0.06,0.015,0.089
								C251.328,9.327,251.339,9.341,251.353,9.354z"/>
							<path fill="#FFFFFF" d="M251.353,9.354c-0.012-0.014-0.024-0.028-0.036-0.042c0.013-0.001,0.025,0.003,0.036,0.012
								C251.352,9.333,251.353,9.343,251.353,9.354z"/>
							<path fill="#B2B5B7" d="M250.162,9.351c0.032-0.024,0.064-0.048,0.095-0.072c0.027-0.006,0.055-0.012,0.082-0.018
								c0.112-0.017,0.063,0.065,0.07,0.113c-0.022,0.096-0.092,0.158-0.154,0.227c-0.11-0.027-0.164-0.164-0.296-0.146
								C250.027,9.421,250.095,9.386,250.162,9.351z"/>
							<path fill="#7A715E" d="M251.504,10.372c0.033,0.048,0.065,0.003,0.097,0c0.032,0.023,0.066,0.047,0.044,0.093
								c-0.013,0.026-0.036,0.018-0.056,0.005c-0.029,0.003-0.057,0.006-0.086,0.009c-0.08,0.035-0.157-0.012-0.236-0.011
								c-0.108-0.015-0.23,0.021-0.314-0.083c0.005-0.146,0.098-0.197,0.227-0.209c0.011,0.002,0.023,0.003,0.034,0.005
								C251.347,10.188,251.355,10.388,251.504,10.372z"/>
							<path fill="#257236" d="M251.268,10.424c0.078,0.018,0.156,0.037,0.234,0.055c-0.148,0.086-0.334-0.023-0.477,0.091
								c-0.033,0.015-0.067,0.03-0.1,0.045c-0.011-0.001-0.022-0.002-0.033-0.003c-0.035-0.007-0.063-0.023-0.079-0.056
								c-0.003-0.024,0.001-0.046,0.012-0.068c0.022-0.031,0.051-0.05,0.088-0.058C251.031,10.418,251.15,10.466,251.268,10.424z"/>
							<path fill="#675E4C" d="M251.588,10.47c0.065-0.025,0.017-0.064,0.012-0.098c0.048-0.017,0.095-0.033,0.143-0.05
								c-0.001,0.053-0.002,0.105-0.003,0.158C251.689,10.489,251.635,10.533,251.588,10.47z"/>
							<path fill="#807766" d="M251.163,9.942c0.018,0.034,0.035,0.067,0.053,0.101c-0.001,0.046-0.002,0.092-0.003,0.138
								l0.002-0.002c-0.102,0.018-0.142-0.049-0.156-0.129C251.047,9.981,251.076,9.928,251.163,9.942z"/>
							<path fill="#ECF4FB" d="M251.41,9.741c-0.077,0.101-0.203,0.019-0.292,0.078c-0.05,0.08-0.081,0.172-0.163,0.229
								c-0.119-0.029-0.234-0.086-0.362-0.043c-0.033-0.01-0.058-0.029-0.079-0.055c-0.035-0.055-0.08-0.101-0.127-0.146
								c-0.022-0.028-0.033-0.059-0.036-0.095c0-0.024,0.003-0.047,0.008-0.07c0.01-0.023,0.025-0.04,0.045-0.054
								c0.059-0.018,0.12-0.008,0.18-0.005c0.194-0.004,0.39,0.018,0.583-0.02c0.025-0.003,0.049-0.002,0.074,0.002
								c0.076,0.019,0.135,0.059,0.161,0.138C251.405,9.715,251.407,9.728,251.41,9.741z"/>
							<path fill="#BDCCD9" d="M251.402,9.701c-0.049-0.031-0.098-0.062-0.148-0.093c0-0.05,0.014-0.091,0.063-0.112
								c0.029,0.005,0.058,0.01,0.087,0.016C251.458,9.576,251.445,9.639,251.402,9.701z"/>
							<path fill="#D7BF95" d="M250.921,10.038c0.084-0.056,0.038-0.229,0.197-0.218c0.015,0.041,0.03,0.081,0.045,0.122
								c-0.155,0.117-0.032,0.173,0.052,0.238c-0.081,0.063-0.195,0.08-0.245,0.184c-0.013,0.045-0.04,0.074-0.091,0.073
								c-0.047-0.002-0.084-0.023-0.113-0.058c-0.011-0.02-0.016-0.041-0.018-0.063c0.008-0.09,0.05-0.167,0.091-0.245
								C250.86,10.044,250.883,10.021,250.921,10.038z"/>
							<path fill="#CBB48D" d="M250.396,9.796c0.104-0.008,0.16,0.033,0.144,0.145c0.02,0.133,0.035,0.265-0.096,0.357
								c-0.08,0.058-0.159,0.118-0.248,0.162c-0.084,0.01-0.166,0.016-0.234-0.049c0.119-0.094,0.253-0.174,0.299-0.333
								c-0.002-0.017-0.003-0.034-0.005-0.051c0.017-0.044,0.033-0.088,0.05-0.132c0.005-0.018,0.013-0.036,0.021-0.053
								c0.011-0.016,0.024-0.03,0.041-0.04C250.378,9.8,250.387,9.798,250.396,9.796z"/>
							<path fill="#5F5747" d="M250.196,10.459c0.031-0.1,0.117-0.144,0.199-0.191c0.04,0.007,0.081,0.011,0.11,0.045
								c0.017,0.028,0.019,0.058,0.007,0.088c-0.007,0.007-0.015,0.014-0.022,0.021C250.393,10.435,250.294,10.447,250.196,10.459z"
								/>
							<path fill="#605541" d="M250.784,10.362c0.04,0.004,0.085-0.003,0.097,0.052c0.024,0.019,0.024,0.037-0.001,0.055
								c-0.016,0.016-0.032,0.031-0.049,0.047c-0.029,0.012-0.055,0.028-0.087,0.03c-0.021-0.002-0.04-0.01-0.057-0.021
								c-0.065-0.034-0.13-0.068-0.195-0.102l0.005-0.005C250.58,10.338,250.682,10.349,250.784,10.362z"/>
							<path fill="#758675" d="M250.686,10.525c0.016-0.003,0.031-0.003,0.047,0c0.016,0.008,0.025,0.021,0.027,0.039
								c-0.002,0.017-0.009,0.033-0.019,0.046c-0.015,0.01-0.031,0.012-0.047,0.003C250.691,10.584,250.688,10.555,250.686,10.525z"
								/>
							<path fill="#FFFFFF" d="M250.693,10.614c0.012,0.002,0.025,0.004,0.037,0.006l0.017,0.016
								c0.005,0.018-0.001,0.031-0.018,0.04c-0.017,0.003-0.031-0.003-0.042-0.017c0,0-0.003-0.005-0.003-0.006
								C250.682,10.639,250.685,10.626,250.693,10.614z"/>
							<path fill="#71858E" d="M250.687,10.849c-0.003-0.013-0.002-0.025,0.002-0.038c0.031,0.001,0.062,0.002,0.093,0.003
								c0.017,0.009,0.03,0.022,0.039,0.039c0.005,0.018,0.008,0.037,0.008,0.056c0,0.013,0,0.025,0,0.038
								c-0.047,0.058-0.097,0.045-0.147,0.004C250.677,10.918,250.68,10.884,250.687,10.849z"/>
							<path fill="#F7F7F7" d="M250.687,10.849c0.06,0.037,0.051,0.071-0.004,0.103c-0.03-0.001-0.059-0.002-0.089-0.003
								C250.582,10.876,250.624,10.854,250.687,10.849z"/>
							<path fill="#BFBFBF" d="M250.783,10.77c-0.002-0.017-0.004-0.033-0.005-0.05c0.025-0.037,0.059-0.044,0.099-0.028
								c0.006,0.009,0.015,0.014,0.025,0.017c-0.003,0.012-0.008,0.023-0.017,0.033C250.862,10.791,250.825,10.788,250.783,10.77z"
								/>
							<path fill="#B9BCBE" d="M250.83,10.91c-0.015-0.018-0.03-0.037-0.045-0.055c0.03-0.031,0.06-0.031,0.088,0.003
								C250.858,10.875,250.844,10.893,250.83,10.91z"/>
							<path fill="#8A99A3" d="M250.872,10.858c-0.029-0.001-0.059-0.002-0.088-0.003c-0.002-0.013-0.003-0.027-0.002-0.04
								c0.001-0.009,0.001-0.017-0.001-0.026c0.035-0.009,0.069-0.015,0.096,0.016C250.876,10.823,250.874,10.84,250.872,10.858z"/>
							<path fill="#FFFFFF" d="M250.878,10.805c-0.032-0.005-0.064-0.011-0.096-0.016l0.002-0.019
								c0.034-0.009,0.068-0.018,0.102-0.028C250.883,10.763,250.881,10.784,250.878,10.805z"/>
							<path fill="#FFFFFF" d="M250.925,10.614c-0.017,0.019-0.033,0.039-0.05,0.058c-0.021,0.008-0.043,0.011-0.065,0.01
								c-0.023-0.006-0.039-0.019-0.047-0.041c0.003-0.011,0.006-0.022,0.008-0.033c0.009-0.007,0.018-0.013,0.027-0.02
								c0.044,0.002,0.09-0.009,0.128,0.024L250.925,10.614z"/>
							<path fill="#5F7C83" d="M250.782,10.653c0.031,0.006,0.062,0.013,0.093,0.019l0.002,0.02
								c-0.033,0.009-0.066,0.019-0.099,0.028l0.003-0.014c-0.013-0.012-0.017-0.024-0.013-0.035
								C250.773,10.659,250.778,10.653,250.782,10.653z"/>
							<path fill="#2E7BA7" d="M250.782,10.653c0,0.017-0.001,0.035-0.001,0.052c-0.042,0.007-0.076-0.004-0.094-0.046
								c0.015,0.002,0.03,0.002,0.045,0c0.017-0.028,0.034-0.028,0.05,0V10.653z"/>
							<path fill="#EFE980" d="M250.349,9.847c0.087,0.121-0.015,0.145-0.093,0.181c-0.018-0.015-0.037-0.03-0.055-0.045
								c0.013-0.083-0.006-0.16-0.044-0.234c0.033-0.013,0.065-0.026,0.098-0.038c0.028,0.025,0.056,0.05,0.073,0.084
								C250.337,9.811,250.344,9.829,250.349,9.847z"/>
							<path fill="#A9C9E4" d="M250.255,9.602c-0.031-0.106,0.089-0.151,0.097-0.241c0.028-0.023,0.059-0.032,0.095-0.027
								c0.052,0.023,0.104,0.046,0.111,0.113c-0.027,0.107-0.129,0.094-0.202,0.128c-0.017,0.012-0.035,0.021-0.055,0.025h-0.022
								L250.255,9.602z"/>
							<path fill="#F2F6F5" d="M250.289,9.835c-0.046-0.033-0.031-0.081-0.033-0.125c0.016-0.006,0.032-0.012,0.047-0.017
								c0.021-0.006,0.039,0,0.053,0.017C250.358,9.765,250.346,9.812,250.289,9.835z"/>
							<path fill="#CFCFCF" d="M250.299,9.601c0-0.015,0-0.03,0-0.045c0.056-0.031,0.103-0.042,0.097,0.049
								c0.002,0.016,0.002,0.032,0.001,0.048c-0.013,0.015-0.029,0.023-0.049,0.023c-0.02-0.002-0.036-0.011-0.048-0.026
								C250.301,9.633,250.3,9.617,250.299,9.601z"/>
							<path fill="#A1A7AD" d="M250.301,9.649c0.018,0.001,0.035,0.001,0.053,0.002c0.006,0.008,0.011,0.017,0.017,0.025
								c-0.006,0.008-0.013,0.015-0.019,0.023c-0.016-0.002-0.032-0.004-0.049-0.006C250.302,9.678,250.301,9.664,250.301,9.649z"/>
							<path fill="#BDC0C0" d="M250.446,9.364c-0.031-0.001-0.063-0.001-0.094-0.002c0.007-0.035,0.046-0.073-0.012-0.1
								c0.02-0.045,0.062-0.042,0.101-0.046c0.034,0.034,0.068,0.069,0.102,0.103C250.538,9.393,250.501,9.398,250.446,9.364z"/>
							<path fill="#BAB9B9" d="M251.175,9.214c-0.048,0.019-0.084,0.051-0.105,0.099c-0.096,0.069-0.147-0.001-0.199-0.065
								c-0.009-0.022-0.009-0.045,0-0.067c0.003-0.016,0.005-0.033,0.008-0.049c0.09,0.051,0.19,0.033,0.286,0.04
								C251.166,9.187,251.169,9.201,251.175,9.214z"/>
							<path fill="#B0B1AB" d="M250.591,9.126c0.018-0.002,0.036-0.003,0.055-0.005c0.047,0.035,0.093,0.071,0.139,0.106
								c0.02,0.065-0.001,0.114-0.059,0.148c-0.068-0.006-0.111-0.032-0.09-0.111C250.621,9.219,250.606,9.172,250.591,9.126z"/>
							<path fill="#88BBE3" d="M250.636,9.265c0.031,0.032,0.062,0.064,0.093,0.097c0.01,0.011,0.016,0.023,0.015,0.036
								c0,0.014-0.002,0.02-0.005,0.021c-0.038,0.041-0.088,0.056-0.142,0.062c-0.022-0.001-0.041-0.008-0.057-0.023
								c-0.032-0.031-0.064-0.063-0.096-0.094c0.032-0.015,0.064-0.03,0.096-0.045C250.574,9.301,250.605,9.283,250.636,9.265z"/>
							<path fill="#D7D7D7" d="M250.738,9.409c-0.002-0.016-0.005-0.031-0.009-0.047c0.019-0.045,0.037-0.09,0.056-0.134
								c0.029-0.016,0.057-0.031,0.085-0.047c0.003,0.019,0.006,0.038,0.008,0.057C250.94,9.384,250.873,9.425,250.738,9.409z"/>
							<path fill="#A1C4E2" d="M250.738,9.409c0.07-0.038,0.151-0.067,0.141-0.171c0.067,0.017,0.113,0.086,0.191,0.075
								c0.057,0.099,0.174,0.05,0.251,0.099c-0.001,0.028-0.002,0.056-0.003,0.083c-0.009,0.044-0.019,0.088-0.063,0.112
								c-0.013-0.003-0.027-0.005-0.04-0.006c-0.11-0.027-0.231,0.022-0.335-0.048c-0.038-0.015-0.076-0.029-0.118-0.031
								c-0.042-0.003-0.085-0.008-0.125-0.024c-0.02-0.01-0.036-0.024-0.048-0.043C250.627,9.403,250.684,9.412,250.738,9.409z"/>
							<path fill="#7F6E4E" d="M250.879,10.47c0-0.018,0.001-0.037,0.001-0.055c0.03-0.017,0.059-0.034,0.089-0.051
								c0.1,0.02,0.199,0.04,0.299,0.06C251.147,10.507,251.008,10.446,250.879,10.47z"/>
							<path fill="#7A9580" d="M250.926,10.613c-0.047,0.002-0.094,0.004-0.141,0.006c-0.018-0.015-0.023-0.034-0.015-0.056
								c0.017-0.016,0.036-0.02,0.058-0.011C250.87,10.557,250.912,10.562,250.926,10.613z"/>
							<path fill="#217838" d="M250.828,10.552c-0.013,0.01-0.027,0.016-0.043,0.018c-0.018,0.021-0.034,0.018-0.048-0.004
								c-0.002-0.014-0.004-0.027-0.005-0.041c0.032-0.005,0.059-0.073,0.098-0.008C250.83,10.528,250.829,10.54,250.828,10.552z"/>
							<path fill="#756B59" d="M250.492,10.324c-0.041-0.003-0.08-0.011-0.097-0.056c0.155-0.062,0.046-0.241,0.145-0.327
								c0.016,0.02,0.032,0.04,0.048,0.06c0.057,0.008,0.101,0.033,0.124,0.088c0.011,0.082,0.021,0.164-0.016,0.243
								C250.626,10.39,250.559,10.361,250.492,10.324z"/>
							<path fill="#DBE9F7" d="M250.884,9.512c0.098,0.075,0.247-0.037,0.331,0.091c-0.221,0.095-0.452,0.032-0.679,0.045
								c-0.01-0.072,0.044-0.096,0.094-0.122c0.032-0.011,0.065-0.013,0.098-0.01C250.78,9.527,250.832,9.529,250.884,9.512z"/>
							<path fill="#5D5E5E" d="M250.671,10.082c-0.027-0.027-0.055-0.054-0.082-0.081c0.122-0.083,0.245-0.184,0.333,0.038
								c-0.014,0.018-0.027,0.036-0.041,0.055C250.808,10.142,250.738,10.135,250.671,10.082z"/>
							<path fill="#98A9B5" d="M250.629,9.551c-0.031,0.032-0.063,0.064-0.094,0.097c-0.046-0.014-0.092-0.029-0.138-0.043
								c-0.02-0.042-0.056-0.049-0.097-0.049c0.062-0.079,0.176-0.027,0.242-0.098c0.016,0,0.032,0,0.047-0.001
								c0.014,0.003,0.027,0.004,0.041,0.005C250.673,9.492,250.637,9.521,250.629,9.551z"/>
							<path fill="#F3EF9E" d="M250.289,9.835c0.021-0.045,0.042-0.091,0.063-0.136L250.348,9.7
								c0.018-0.019,0.034-0.018,0.048,0.004c0,0.031,0.001,0.061,0.001,0.092l0.003-0.002c-0.015,0.013-0.028,0.027-0.04,0.043
								l-0.01,0.01C250.329,9.843,250.309,9.839,250.289,9.835z"/>
							<path fill="#DBE9F7" d="M250.395,9.704c-0.016-0.003-0.032-0.004-0.048-0.004c0.002-0.016,0.004-0.033,0.007-0.049
								c0.015,0.001,0.029,0.002,0.044,0.001C250.397,9.669,250.396,9.687,250.395,9.704z"/>
							<path fill="#44A5DD" d="M250.671,10.082c0.07,0.004,0.14,0.007,0.21,0.011c-0.034,0.075-0.069,0.151-0.103,0.226
								c-0.027,0.034-0.055,0.028-0.084,0.003C250.641,10.246,250.686,10.161,250.671,10.082z"/>
							<path fill="#847A66" d="M250.693,10.322c0.028-0.001,0.056-0.002,0.084-0.003c0.004,0.014,0.007,0.028,0.007,0.043
								c-0.082,0.095-0.192,0.04-0.288,0.055c-0.001-0.031-0.002-0.062-0.003-0.093C250.559,10.278,250.626,10.346,250.693,10.322z"
								/>
							<path fill="#F8FBFE" d="M250.359,9.836c0.013-0.014,0.027-0.028,0.04-0.043C250.385,9.808,250.372,9.822,250.359,9.836z"/>
							<path fill="#1F873C" d="M250.738,10.566c0.016,0,0.032,0.001,0.048,0.004c0,0.016,0,0.033,0,0.049l-0.003-0.007
								c-0.016,0.018-0.033,0.019-0.05,0.001l-0.002,0.007C250.733,10.602,250.735,10.584,250.738,10.566z"/>
							<path fill="#2F5C45" d="M250.732,10.613c0.017,0,0.033,0,0.05-0.001c-0.001,0.016-0.001,0.032,0.001,0.048
								c-0.017,0-0.033,0-0.05,0C250.734,10.644,250.734,10.628,250.732,10.613z"/>
							<path fill="#97A6B2" d="M250.884,9.512c-0.027,0.105-0.08,0.118-0.156,0.043c-0.003-0.043,0.026-0.068,0.051-0.097
								C250.822,9.458,250.86,9.472,250.884,9.512z"/>
							<path fill="#A5C5E0" d="M250.778,9.458c-0.002,0.04-0.01,0.077-0.051,0.097c-0.033-0.001-0.065-0.002-0.098-0.004
								c-0.04-0.03,0.005-0.06,0.001-0.089C250.679,9.461,250.729,9.459,250.778,9.458z"/>
						</g>
					</g>
				</g>
			</g>
		</g>
	</g>
</g>
<circle fill="none" stroke="#FFFCEE" stroke-miterlimit="10" cx="259.817" cy="10.174" r="7.049"/>
<g>
	<path fill="#FFFCEE" d="M498.823,12.315c0.516,0.508,1.181,0.91,2.05,0.91c0.938,0,1.589-0.468,1.589-1.248
		c0-0.857-0.57-1.403-2.539-1.403V9.481c1.697,0,2.254-0.559,2.254-1.326c0-0.688-0.488-1.104-1.276-1.104
		c-0.679,0-1.208,0.312-1.738,0.78l-0.801-0.924c0.733-0.623,1.562-1.039,2.594-1.039c1.656,0,2.798,0.779,2.798,2.184
		c0,0.923-0.571,1.547-1.508,1.898v0.052c1.019,0.26,1.793,0.962,1.793,2.054c0,1.508-1.372,2.393-3.028,2.393
		c-1.399,0-2.322-0.521-2.934-1.17L498.823,12.315z"/>
	<path fill="#FFFCEE" d="M505.017,15.839c0.869-0.325,1.371-0.91,1.371-1.573c-0.041,0-0.081,0-0.122,0
		c-0.529,0-1.005-0.338-1.005-0.923c0-0.559,0.476-0.923,1.046-0.923c0.733,0,1.168,0.572,1.168,1.534
		c0,1.273-0.774,2.262-2.119,2.704L505.017,15.839z"/>
	<path fill="#FFFCEE" d="M508.848,12.315c0.516,0.508,1.181,0.91,2.05,0.91c0.938,0,1.589-0.468,1.589-1.248
		c0-0.857-0.57-1.403-2.539-1.403V9.481c1.697,0,2.254-0.559,2.254-1.326c0-0.688-0.488-1.104-1.276-1.104
		c-0.679,0-1.208,0.312-1.738,0.78l-0.801-0.924c0.733-0.623,1.562-1.039,2.594-1.039c1.656,0,2.798,0.779,2.798,2.184
		c0,0.923-0.571,1.547-1.508,1.898v0.052c1.019,0.26,1.793,0.962,1.793,2.054c0,1.508-1.372,2.393-3.028,2.393
		c-1.399,0-2.322-0.521-2.934-1.17L508.848,12.315z"/>
	<path fill="#FFFCEE" d="M515.449,12.342c0.516,0.468,1.154,0.884,2.023,0.884c0.964,0,1.67-0.585,1.67-1.586
		c0-0.988-0.638-1.547-1.589-1.547c-0.557,0-0.869,0.143-1.385,0.468l-0.747-0.455l0.258-4.082h4.617v1.262h-3.259l-0.177,2.002
		c0.366-0.169,0.692-0.273,1.141-0.273c1.48,0,2.716,0.806,2.716,2.587c0,1.808-1.453,2.848-3.042,2.848
		c-1.398,0-2.309-0.533-2.946-1.145L515.449,12.342z"/>
</g>
</svg>
