<?xml version="1.0" encoding="utf-8"?>
<!-- Generator: Adobe Illustrator 17.0.0, SVG Export Plug-In . SVG Version: 6.00 Build 0)  -->
<!DOCTYPE svg PUBLIC "-//W3C//DTD SVG 1.1//EN" "http://www.w3.org/Graphics/SVG/1.1/DTD/svg11.dtd">
<svg version="1.1" id="Layer_1" xmlns="http://www.w3.org/2000/svg" xmlns:xlink="http://www.w3.org/1999/xlink" x="0px" y="0px"
	 width="600px" height="19.542px" viewBox="0 0 600 19.542" enable-background="new 0 0 600 19.542" xml:space="preserve">
<rect x="148.902" y="2.848" fill="#EC6554" width="43.226" height="14.097"/>
<g>
	<rect x="448.356" y="8.65" fill="#EC6554" width="35.133" height="2"/>
</g>
<g>
	<g>
		<circle fill="#EC6554" cx="483.365" cy="9.65" r="2.481"/>
	</g>
</g>
<rect x="0" y="0" fill="none" width="600" height="19.542"/>
<line fill="none" stroke="#9F9F9F" stroke-width="0.7" stroke-miterlimit="10" stroke-dasharray="6,3" x1="199.426" y1="0" x2="199.426" y2="18.904"/>
<line fill="none" stroke="#9F9F9F" stroke-width="0.7" stroke-miterlimit="10" stroke-dasharray="6,3" x1="440.97" y1="0" x2="440.97" y2="18.904"/>
<g>
	<g>
		<g>
			<defs>
				<circle id="SVGID_1_" cx="259.927" cy="9.897" r="7.049"/>
			</defs>
			<clipPath id="SVGID_2_">
				<use xlink:href="#SVGID_1_"  overflow="visible"/>
			</clipPath>
			<g id="wDfdQo_1_" clip-path="url(#SVGID_2_)">
				<g>
					<g>
						<path fill="#F9F9F9" d="M247.2,2.597c8.533,0,17.066,0,25.599,0c0,4.915,0,9.831,0,14.746c-8.533,0-17.066,0-25.599,0
							C247.2,12.428,247.2,7.512,247.2,2.597z"/>
						<path fill="#010202" d="M272.653,17.294c-8.464,0-16.928,0-25.398,0c0-4.867,0-9.723,0-14.585
							c0.063-0.033,0.136-0.015,0.206-0.015c8.32-0.001,16.639-0.001,24.959-0.001c0.065,0,0.13-0.002,0.195,0.001
							c0.025,0.001,0.044,0.017,0.039,0.048c-0.022,0.025-0.049,0.043-0.08,0.054c-0.159,0.047-0.322,0.028-0.484,0.028
							c-8.077,0.001-16.154,0.001-24.231,0.002c-0.144,0-0.291-0.019-0.478,0.059c0,4.735,0,9.48,0,14.204
							c0.182,0.1,0.33,0.071,0.473,0.071c8.077,0.001,16.154,0.001,24.231,0.002c0.161,0,0.324-0.018,0.484,0.027
							C272.615,17.21,272.658,17.233,272.653,17.294z"/>
						<path fill="#290C12" d="M272.653,17.294c0.001-0.034-0.015-0.05-0.049-0.049c-0.107-0.124-0.082-0.275-0.082-0.419
							c-0.002-1.637-0.001-3.275-0.001-4.912c0-2.902-0.001-5.803,0.001-8.705c0-0.159-0.034-0.327,0.082-0.467
							c0.016,0,0.032,0,0.049,0c0.031-0.006,0.047,0.013,0.048,0.039c0.003,0.065,0.001,0.13,0.001,0.195c0,4.695,0,9.39,0,14.085
							c0,0.065,0.002,0.13-0.001,0.195C272.7,17.281,272.684,17.3,272.653,17.294z"/>
						<path fill="#BF192A" d="M272.605,2.743c0,4.834,0,9.669,0,14.503c-8.427,0-16.854,0-25.281,0
							c-0.039-0.211-0.056-13.63-0.017-14.503C255.739,2.743,264.172,2.743,272.605,2.743z"/>
						<path fill="#239E46" d="M269.587,5.128c0.031-0.006,0.046,0.013,0.048,0.039c0.003,0.048,0.001,0.097,0.001,0.146
							c0,3.13,0,6.259,0,9.389c0,0.031,0,0.063,0,0.086c-0.032,0.041-0.067,0.02-0.097,0.026c-0.211-0.058-0.405-0.155-0.6-0.252
							c-2.471-1.227-4.916-2.504-7.391-3.723c-0.106-0.052-0.233-0.085-0.273-0.221c0.031-0.271,0.111-0.535,0.075-0.815
							c-0.021-0.162-0.099-0.308-0.106-0.471c0.037-0.115,0.143-0.149,0.236-0.195c2.59-1.295,5.179-2.589,7.767-3.887
							C269.357,5.193,269.479,5.183,269.587,5.128z"/>
						<path fill="#EFE528" d="M269.587,5.128c-0.152,0.137-0.346,0.2-0.523,0.289c-1.994,0.999-3.991,1.991-5.987,2.986
							c-0.571,0.285-1.14,0.575-1.71,0.862c-0.034,0.017-0.068,0.033-0.101,0.049c-0.088-0.022-0.123-0.1-0.17-0.164
							c-0.51-0.686-1.489-0.764-2.106-0.173c-0.115,0.11-0.186,0.268-0.349,0.327c-0.122,0.015-0.218-0.051-0.318-0.101
							c-1.267-0.632-2.542-1.251-3.797-1.905c-1.277-0.666-2.576-1.289-3.856-1.949c-0.098-0.051-0.246-0.06-0.255-0.22
							C256.804,5.128,263.196,5.128,269.587,5.128z"/>
						<path fill="#F0E528" d="M261.314,10.627c0.161,0.136,0.361,0.199,0.546,0.291c1.241,0.621,2.492,1.224,3.721,1.868
							c0.652,0.342,1.311,0.668,1.967,1.002c0.655,0.333,1.316,0.655,1.974,0.983c0.01,0.005,0.012,0.027,0.018,0.04
							c-6.392,0-12.783,0-19.175,0c0.007-0.162,0.156-0.17,0.254-0.219c1.865-0.936,3.733-1.869,5.599-2.804
							c0.702-0.351,1.404-0.702,2.106-1.052c0.1-0.05,0.196-0.118,0.319-0.097c0.085,0.026,0.121,0.103,0.167,0.168
							c0.575,0.808,1.797,0.774,2.317-0.021C261.17,10.72,261.197,10.616,261.314,10.627z"/>
						<path fill="#239E46" d="M258.637,10.676c-0.07-0.023-0.122,0.031-0.171,0.055c-2.682,1.341-5.361,2.687-8.041,4.031
							c-0.027,0.013-0.066,0.002-0.062,0.05c-0.031,0.006-0.046-0.013-0.048-0.039c-0.003-0.048-0.001-0.097-0.001-0.146
							c0-3.13,0-6.259,0-9.389c0-0.031,0-0.063,0-0.086c0.032-0.041,0.067-0.02,0.097-0.026c0.161,0.136,0.361,0.199,0.545,0.291
							c1.079,0.541,2.169,1.06,3.234,1.625c0.723,0.383,1.458,0.74,2.188,1.108c0.723,0.364,1.445,0.73,2.167,1.098
							c0.033,0.017,0.061,0.008,0.091,0.015c0.064,0.073,0.04,0.152,0.013,0.229c-0.114,0.324-0.118,0.649-0.01,0.976
							C258.663,10.536,258.693,10.608,258.637,10.676z"/>
						<path fill="#EFE427" d="M265.024,4.005c-0.05,0.187,0.104,0.32,0.08,0.518c-0.133-0.097-0.242-0.176-0.358-0.26
							c-0.151,0.076-0.295,0.181-0.457,0.335c0.04-0.234,0.152-0.388,0.14-0.548c-0.136-0.118-0.281-0.189-0.404-0.325
							c0.188,0,0.356,0,0.527,0c0.047-0.15,0.091-0.294,0.139-0.449c0.135,0.114,0.083,0.305,0.23,0.442c0.126,0,0.301,0,0.475,0
							C265.266,3.814,265.176,3.944,265.024,4.005z"/>
						<path fill="#EFE327" d="M255.559,4.046c0.054,0.16,0.108,0.321,0.173,0.516c-0.159-0.116-0.286-0.208-0.418-0.305
							c-0.137,0.094-0.271,0.187-0.428,0.294c0.044-0.164,0.084-0.312,0.132-0.489c-0.108-0.119-0.284-0.196-0.438-0.337
							c0.19,0,0.357,0,0.517,0c0.109-0.135,0.088-0.315,0.205-0.453c0.048,0.148,0.093,0.285,0.143,0.441c0.157,0,0.331,0,0.525,0
							C255.858,3.875,255.71,3.952,255.559,4.046z"/>
						<path fill="#EFE327" d="M259.735,3.724c0.051-0.163,0.093-0.3,0.144-0.462c0.06,0.16,0.114,0.302,0.171,0.454
							c0.164,0,0.322,0,0.489,0c-0.096,0.175-0.295,0.209-0.378,0.361c0.043,0.128,0.087,0.261,0.132,0.393
							c-0.028,0.03-0.06,0.038-0.086,0.011c-0.093-0.095-0.216-0.145-0.322-0.221c-0.137,0.087-0.255,0.204-0.431,0.287
							c0.059-0.178,0.113-0.339,0.166-0.498c-0.145-0.1-0.298-0.171-0.4-0.325C259.397,3.724,259.564,3.724,259.735,3.724z"/>
						<path fill="#EFE427" d="M263.992,15.889c0.208,0,0.36,0,0.517,0c0.101-0.151,0.122-0.328,0.189-0.505
							c0.107,0.153,0.129,0.327,0.186,0.496c0.148,0,0.3,0,0.467,0c-0.045,0.076-0.085,0.121-0.16,0.155
							c-0.067,0.03-0.112,0.113-0.179,0.186c-0.017,0.137,0.157,0.266,0.076,0.446c-0.101-0.128-0.233-0.21-0.368-0.303
							c-0.12,0.094-0.242,0.19-0.371,0.291c-0.068-0.164,0.088-0.293,0.08-0.453C264.325,16.08,264.197,15.983,263.992,15.889z"/>
						<path fill="#EFE427" d="M255.063,15.394c0.06,0.161,0.086,0.327,0.174,0.486c0.155,0,0.313,0,0.505,0
							c-0.139,0.147-0.32,0.185-0.414,0.326c0.05,0.146,0.1,0.292,0.163,0.474c-0.162-0.117-0.289-0.21-0.419-0.304
							c-0.157,0.064-0.265,0.197-0.421,0.284c-0.014-0.171,0.081-0.302,0.142-0.446c-0.088-0.154-0.277-0.183-0.402-0.322
							c0.165,0,0.316,0,0.458,0C254.98,15.745,254.918,15.528,255.063,15.394z"/>
						<path fill="#EFE427" d="M259.693,15.891c0.097-0.167,0.122-0.333,0.179-0.495c0.099,0.147,0.101,0.326,0.208,0.489
							c0.135,0,0.293,0,0.479,0c-0.137,0.136-0.302,0.182-0.404,0.307c0.067,0.148,0.104,0.303,0.13,0.464
							c-0.111-0.12-0.271-0.166-0.365-0.299c-0.161,0.092-0.281,0.224-0.465,0.307c0.055-0.163,0.105-0.309,0.157-0.463
							c-0.106-0.121-0.258-0.194-0.392-0.31C259.38,15.891,259.531,15.891,259.693,15.891z"/>
						<path fill="#BF192A" d="M258.637,10.676c-0.005-0.132-0.095-0.234-0.112-0.37c-0.027-0.214-0.042-0.411,0.005-0.623
							c0.023-0.106,0.023-0.212,0.104-0.3c0.02-0.022,0.003-0.078,0.003-0.119c0.104-0.018,0.093-0.134,0.16-0.187
							c0.063-0.05,0.116-0.112,0.173-0.17c0.218-0.222,0.481-0.35,0.791-0.37c0.08-0.005,0.138-0.087,0.222-0.051
							c0.15,0.064,0.326,0.026,0.466,0.101c0.139,0.074,0.281,0.143,0.415,0.233c0.191,0.127,0.299,0.303,0.402,0.493
							c0.087,0.172,0.172,0.344,0.145,0.546c-0.007,0.053,0.018,0.089,0.06,0.124c-0.088,0.108-0.044,0.231-0.062,0.345
							c-0.017,0.103-0.089,0.191-0.095,0.3c-0.094,0.068-0.108,0.189-0.192,0.271c-0.278,0.275-0.299,0.356-0.771,0.528
							c-0.046,0.017-0.088,0.026-0.133,0.027c-0.113,0.003-0.226,0-0.339,0.001c-0.356,0.002-0.653-0.131-0.912-0.372
							C258.837,10.961,258.74,10.817,258.637,10.676z"/>
						<path fill="#EFE528" d="M253.041,11.357c-0.03,0.094-0.119,0.059-0.158,0.044c-0.188-0.072-0.396-0.112-0.552-0.247
							c-0.173-0.149-0.281-0.348-0.306-0.574c-0.012-0.102-0.056-0.225,0.042-0.32c0.008-0.008,0.006-0.034,0-0.047
							c-0.088-0.198-0.031-0.408-0.05-0.611c-0.002-0.026-0.027-0.05-0.042-0.075c0.119-0.074,0.223,0.036,0.336,0.029
							c0.127-0.008,0.238,0.08,0.367,0.053c0.088,0.112,0.239-0.02,0.329,0.085c0.119-0.011,0.22,0.077,0.347,0.056
							c0.219,0.194,0.327,0.438,0.319,0.735c-0.002,0.073-0.002,0.146,0,0.218c0.005,0.157,0,0.312-0.07,0.456
							c-0.06,0.036-0.075-0.053-0.125-0.045c-0.23-0.045-0.332-0.269-0.525-0.372C252.976,10.948,253.127,11.137,253.041,11.357z"/>
						<path fill="#BE202A" d="M253.041,11.357c-0.05-0.257-0.115-0.51-0.227-0.782c0.13,0.037,0.167,0.131,0.256,0.164
							c0.075,0.027,0.14,0.11,0.187,0.182c0.058,0.088,0.193,0.079,0.222,0.193c0,0.127,0,0.255,0,0.382
							C253.305,11.499,253.19,11.375,253.041,11.357z"/>
						<path fill="#EFE527" d="M259.207,11.04c0.065-0.319,0.193-0.577,0.264-0.855c-0.181-0.259-0.501-0.357-0.704-0.586
							c0.021-0.023,0.026-0.03,0.032-0.034c0.006-0.004,0.014-0.008,0.021-0.008c0.274,0,0.548,0,0.844,0
							c0.089-0.261,0.177-0.521,0.278-0.818c0.145,0.278,0.177,0.565,0.31,0.816c0.302,0,0.6,0,0.918,0
							c-0.052,0.074-0.085,0.127-0.167,0.153c-0.078,0.025-0.111,0.124-0.204,0.152c-0.07,0.021-0.1,0.11-0.184,0.143
							c-0.067,0.026-0.112,0.112-0.186,0.193c0.045,0.107,0.127,0.234,0.147,0.37s0.156,0.251,0.079,0.423
							c-0.24-0.179-0.467-0.348-0.693-0.517C259.717,10.656,259.482,10.832,259.207,11.04z"/>
					</g>
				</g>
			</g>
		</g>
	</g>
</g>
<path fill="#010201" d="M283.732,5.307c1.209,0,2.023,0.533,2.553,1.053l-0.651,0.689c-0.448-0.455-1.005-0.793-1.888-0.793
	c-1.807,0-2.961,1.326-2.961,3.445c0,2.145,1.06,3.497,2.961,3.497c0.638,0,1.263-0.195,1.616-0.508v-2.223h-1.888V9.57h2.92v3.589
	c-0.584,0.546-1.575,0.987-2.771,0.987c-2.336,0-4.007-1.638-4.007-4.42C279.617,6.984,281.342,5.307,283.732,5.307z"/>
<path fill="#010201" d="M288.311,7.673h0.924l0.095,1.144h0.041c0.448-0.793,1.127-1.3,1.874-1.3c0.285,0,0.489,0.039,0.706,0.13
	l-0.217,0.937c-0.218-0.065-0.367-0.104-0.639-0.104c-0.557,0-1.222,0.391-1.67,1.456v4.057h-1.114L288.311,7.673L288.311,7.673z"/>
<path fill="#010201" d="M295.292,7.517c1.685,0,2.635,1.157,2.635,2.964c0,0.222-0.014,0.43-0.041,0.585h-4.454
	c0.082,1.365,0.938,2.224,2.2,2.224c0.625,0,1.154-0.195,1.644-0.494l0.394,0.702c-0.57,0.351-1.276,0.649-2.173,0.649
	c-1.766,0-3.164-1.234-3.164-3.302S293.786,7.517,295.292,7.517z M296.95,10.364c0-1.287-0.598-2.003-1.63-2.003
	c-0.924,0-1.766,0.729-1.901,2.003H296.95z"/>
<path fill="#010201" d="M299.491,7.673h0.924l0.095,0.91h0.041c0.625-0.599,1.304-1.066,2.214-1.066c1.385,0,2.01,0.858,2.01,2.47
	v4.005h-1.113V10.13c0-1.184-0.381-1.69-1.25-1.69c-0.679,0-1.141,0.338-1.806,0.976v4.576h-1.114L299.491,7.673L299.491,7.673z"/>
<path fill="#010201" d="M310.589,9.986c0-0.806-0.286-1.586-1.358-1.586c-0.774,0-1.453,0.338-1.969,0.677l-0.448-0.741
	c0.61-0.377,1.534-0.819,2.594-0.819c1.616,0,2.295,1.027,2.295,2.601v3.874h-0.924l-0.095-0.754h-0.027
	c-0.639,0.493-1.371,0.909-2.187,0.909c-1.113,0-1.941-0.662-1.941-1.794C306.529,10.975,307.778,10.286,310.589,9.986z
	 M308.783,13.289c0.639,0,1.168-0.299,1.807-0.845v-1.756c-2.214,0.261-2.961,0.78-2.961,1.586
	C307.628,12.99,308.131,13.289,308.783,13.289z"/>
<path fill="#010201" d="M316.132,7.517c0.761,0,1.263,0.273,1.847,0.729l-0.055-1.079V4.735h1.128v9.257h-0.924l-0.095-0.741h-0.041
	c-0.516,0.48-1.223,0.896-1.996,0.896c-1.657,0-2.729-1.195-2.729-3.302C313.267,8.791,314.624,7.517,316.132,7.517z M316.241,13.25
	c0.611,0,1.141-0.286,1.684-0.871V9.077c-0.557-0.481-1.059-0.663-1.602-0.663c-1.06,0-1.901,0.975-1.901,2.418
	C314.421,12.34,315.086,13.25,316.241,13.25z"/>
<path fill="#010201" d="M324.949,9.986c0-0.806-0.286-1.586-1.358-1.586c-0.774,0-1.453,0.338-1.969,0.677l-0.448-0.741
	c0.61-0.377,1.534-0.819,2.594-0.819c1.616,0,2.295,1.027,2.295,2.601v3.874h-0.924l-0.095-0.754h-0.027
	c-0.639,0.493-1.371,0.909-2.187,0.909c-1.113,0-1.941-0.662-1.941-1.794C320.888,10.975,322.137,10.286,324.949,9.986z
	 M323.142,13.289c0.639,0,1.168-0.299,1.807-0.845v-1.756c-2.214,0.261-2.961,0.78-2.961,1.586
	C321.988,12.99,322.491,13.289,323.142,13.289z"/>
<circle fill="none" stroke="#010201" stroke-miterlimit="10" cx="259.927" cy="9.897" r="7.049"/>
</svg>
