<?xml version="1.0" encoding="utf-8"?>
<!-- Generator: Adobe Illustrator 17.0.0, SVG Export Plug-In . SVG Version: 6.00 Build 0)  -->
<!DOCTYPE svg PUBLIC "-//W3C//DTD SVG 1.1//EN" "http://www.w3.org/Graphics/SVG/1.1/DTD/svg11.dtd">
<svg version="1.1" id="Layer_1" xmlns="http://www.w3.org/2000/svg" xmlns:xlink="http://www.w3.org/1999/xlink" x="0px" y="0px"
	 width="600px" height="19.542px" viewBox="0 0 600 19.542" enable-background="new 0 0 600 19.542" xml:space="preserve">
<rect x="0" y="0" fill="#EC6554" width="600" height="19.542"/>
<line fill="none" stroke="#9F9F9F" stroke-width="0.7" stroke-miterlimit="10" stroke-dasharray="6,3" x1="199.426" y1="0" x2="199.426" y2="18.904"/>
<line fill="none" stroke="#9F9F9F" stroke-width="0.7" stroke-miterlimit="10" stroke-dasharray="6,3" x1="440.97" y1="0" x2="440.97" y2="18.904"/>
<g>
	<g>
		<g>
			<rect x="451.885" y="8.65" fill="#FFFCEE" width="35.134" height="2"/>
		</g>
		<g>
			<g>
				<circle fill="#FFFCEE" cx="486.894" cy="9.65" r="2.481"/>
			</g>
		</g>
	</g>
</g>
<path fill="#FFFCEE" d="M67.679,7.477c-0.503-0.441-0.924-0.688-1.575-0.688c-0.733,0-1.182,0.363-1.182,1.04
	c0,1.56,3.694,1.248,3.694,3.874c0,1.234-0.761,2.145-2.105,2.379v1.339h-1.086v-1.3c-0.829-0.078-1.738-0.442-2.35-0.988
	l0.706-1.014c0.638,0.48,1.276,0.806,2.01,0.806c0.883,0,1.317-0.416,1.317-1.118c0-1.716-3.694-1.469-3.694-3.913
	c0-1.209,0.788-2.067,2.011-2.275V4.293h1.086v1.3C67.38,5.697,67.978,6.1,68.48,6.607L67.679,7.477z"/>
<path fill="#FFFCEE" d="M72.543,12.768h1.929V7.335h-1.589V6.398c0.855-0.156,1.453-0.364,1.996-0.676h1.168v7.046h1.697v1.223
	h-5.201V12.768z"/>
<path fill="#FFFCEE" d="M79.173,12.768h1.929V7.335h-1.589V6.398c0.855-0.156,1.453-0.364,1.996-0.676h1.168v7.046h1.697v1.223
	h-5.201C79.173,13.991,79.173,12.768,79.173,12.768z"/>
<path fill="#FFFCEE" d="M85.313,13.12c2.404-2.224,3.911-3.68,3.911-4.94c0-0.871-0.502-1.43-1.426-1.43
	c-0.665,0-1.222,0.429-1.684,0.923l-0.869-0.832c0.787-0.807,1.575-1.274,2.757-1.274c1.656,0,2.729,1.001,2.729,2.535
	c0,1.469-1.426,2.978-3.137,4.706c0.448-0.039,1.019-0.091,1.439-0.091h2.118v1.274h-5.84V13.12H85.313z"/>
<path fill="#FFFCEE" d="M91.942,13.12c2.404-2.224,3.911-3.68,3.911-4.94c0-0.871-0.502-1.43-1.426-1.43
	c-0.665,0-1.222,0.429-1.684,0.923l-0.869-0.832c0.787-0.807,1.575-1.274,2.757-1.274c1.656,0,2.729,1.001,2.729,2.535
	c0,1.469-1.426,2.978-3.137,4.706c0.448-0.039,1.019-0.091,1.439-0.091h2.118v1.274h-5.84V13.12H91.942z"/>
<path fill="#FFFCEE" d="M99.102,12.041c0.516,0.468,1.154,0.884,2.023,0.884c0.964,0,1.67-0.585,1.67-1.586
	c0-0.988-0.638-1.547-1.589-1.547c-0.557,0-0.869,0.143-1.385,0.468l-0.747-0.455l0.258-4.082h4.617v1.261h-3.259l-0.177,2.002
	c0.366-0.169,0.692-0.272,1.141-0.272c1.48,0,2.716,0.806,2.716,2.587c0,1.807-1.453,2.847-3.042,2.847
	c-1.398,0-2.309-0.532-2.946-1.144L99.102,12.041z"/>
<path fill="#FFFCEE" d="M105.323,15.538c0.869-0.325,1.371-0.91,1.371-1.573c-0.041,0-0.081,0-0.122,0
	c-0.529,0-1.005-0.338-1.005-0.923c0-0.56,0.476-0.923,1.046-0.923c0.733,0,1.168,0.571,1.168,1.534
	c0,1.273-0.774,2.262-2.119,2.704L105.323,15.538z"/>
<path fill="#FFFCEE" d="M109.086,12.768h1.929V7.335h-1.589V6.398c0.855-0.156,1.453-0.364,1.996-0.676h1.168v7.046h1.697v1.223
	h-5.201V12.768z"/>
<path fill="#FFFCEE" d="M115.783,12.015c0.516,0.507,1.181,0.91,2.05,0.91c0.938,0,1.589-0.468,1.589-1.248
	c0-0.858-0.57-1.404-2.539-1.404V9.181c1.697,0,2.254-0.559,2.254-1.326c0-0.688-0.488-1.104-1.276-1.104
	c-0.679,0-1.208,0.312-1.738,0.779l-0.801-0.923c0.733-0.624,1.562-1.04,2.594-1.04c1.656,0,2.798,0.78,2.798,2.185
	c0,0.923-0.571,1.547-1.508,1.897v0.053c1.019,0.26,1.793,0.962,1.793,2.054c0,1.508-1.372,2.392-3.028,2.392
	c-1.399,0-2.322-0.52-2.934-1.17L115.783,12.015z"/>
<path fill="#FFFCEE" d="M126.337,14.511v2.002h-1.562V7.607h1.29l0.109,0.677h0.054c0.557-0.455,1.276-0.832,2.01-0.832
	c1.657,0,2.621,1.273,2.621,3.25c0,2.184-1.371,3.444-2.852,3.444c-0.584,0-1.168-0.26-1.711-0.701L126.337,14.511z M127.682,12.912
	c0.883,0,1.562-0.754,1.562-2.197c0-1.274-0.435-2.028-1.439-2.028c-0.488,0-0.95,0.234-1.467,0.715v2.978
	C126.826,12.768,127.288,12.912,127.682,12.912z"/>
<path fill="#FFFCEE" d="M134.434,4.761h1.06l-3.164,11.311h-1.06L134.434,4.761z"/>
<path fill="#FFFCEE" d="M139.012,7.452c0.855,0,1.508,0.324,1.956,0.74l-0.747,0.949c-0.354-0.299-0.706-0.468-1.127-0.468
	c-1.073,0-1.82,0.845-1.82,2.132c0,1.274,0.733,2.119,1.779,2.119c0.543,0,1.005-0.26,1.371-0.546l0.652,0.949
	c-0.625,0.533-1.426,0.818-2.187,0.818c-1.82,0-3.219-1.222-3.219-3.341C135.671,8.674,137.233,7.452,139.012,7.452z"/>
<circle fill="none" stroke="#FFFCEE" stroke-miterlimit="10" cx="259.817" cy="9.897" r="7.049"/>
<path fill="#FFFCEE" d="M283.813,5.358c1.249,0,2.159,0.533,2.757,1.105l-1.101,1.184c-0.448-0.391-0.869-0.638-1.629-0.638
	c-1.358,0-2.336,1.027-2.336,2.73c0,1.741,0.828,2.756,2.498,2.756c0.354,0,0.72-0.091,0.938-0.26V10.78h-1.467V9.22h3.246v3.9
	c-0.639,0.533-1.738,1.027-2.975,1.027c-2.39,0-4.291-1.495-4.291-4.342C279.453,6.997,281.408,5.358,283.813,5.358z"/>
<path fill="#FFFCEE" d="M288.297,7.543h1.63l0.136,1.131h0.054c0.489-0.87,1.223-1.286,1.915-1.286c0.381,0,0.611,0.051,0.802,0.129
	l-0.326,1.651c-0.244-0.065-0.448-0.104-0.733-0.104c-0.503,0-1.127,0.312-1.48,1.184v3.744h-1.996V7.543H288.297z"/>
<path fill="#FFFCEE" d="M296.284,7.388c1.914,0,2.865,1.338,2.865,3.094c0,0.338-0.041,0.65-0.082,0.806h-4.033
	c0.177,0.976,0.855,1.403,1.752,1.403c0.503,0,0.965-0.143,1.453-0.428l0.666,1.156c-0.693,0.455-1.589,0.729-2.391,0.729
	c-1.929,0-3.408-1.248-3.408-3.381C293.107,8.674,294.668,7.388,296.284,7.388z M297.452,10.104c0-0.742-0.326-1.262-1.128-1.262
	c-0.624,0-1.168,0.403-1.304,1.262H297.452z"/>
<path fill="#FFFCEE" d="M300.469,7.543h1.63l0.136,0.819h0.054c0.57-0.521,1.25-0.975,2.159-0.975c1.467,0,2.092,0.987,2.092,2.6
	v4.004h-1.996v-3.758c0-0.936-0.258-1.221-0.828-1.221c-0.503,0-0.815,0.221-1.25,0.623v4.355h-1.996L300.469,7.543L300.469,7.543z"
	/>
<path fill="#FFFCEE" d="M311.715,9.845c-0.04-0.572-0.339-0.937-1.059-0.937c-0.57,0-1.141,0.221-1.793,0.585l-0.706-1.262
	c0.855-0.494,1.819-0.844,2.879-0.844c1.725,0,2.676,0.936,2.676,2.912v3.691h-1.63l-0.149-0.663h-0.041
	c-0.57,0.481-1.208,0.819-1.969,0.819c-1.223,0-1.996-0.858-1.996-1.95C307.927,10.845,309.054,10.104,311.715,9.845z
	 M310.602,12.665c0.462,0,0.761-0.208,1.113-0.546v-1.131c-1.426,0.182-1.888,0.571-1.888,1.065
	C309.827,12.47,310.126,12.665,310.602,12.665z"/>
<path fill="#FFFCEE" d="M317.802,7.388c0.747,0,1.195,0.26,1.657,0.676l-0.082-0.988V4.878h1.996v9.113h-1.629l-0.136-0.637h-0.055
	c-0.476,0.455-1.141,0.793-1.793,0.793c-1.67,0-2.757-1.274-2.757-3.381C315.004,8.661,316.376,7.388,317.802,7.388z
	 M318.277,12.587c0.435,0,0.773-0.156,1.1-0.585v-2.64c-0.353-0.311-0.747-0.416-1.113-0.416c-0.639,0-1.209,0.572-1.209,1.795
	C317.055,12.015,317.503,12.587,318.277,12.587z"/>
<path fill="#FFFCEE" d="M326.618,9.845c-0.04-0.572-0.339-0.937-1.059-0.937c-0.57,0-1.141,0.221-1.793,0.585l-0.706-1.262
	c0.855-0.494,1.819-0.844,2.879-0.844c1.725,0,2.676,0.936,2.676,2.912v3.691h-1.63l-0.149-0.663h-0.041
	c-0.57,0.481-1.208,0.819-1.969,0.819c-1.223,0-1.996-0.858-1.996-1.95C322.83,10.845,323.957,10.104,326.618,9.845z
	 M325.505,12.665c0.462,0,0.761-0.208,1.113-0.546v-1.131c-1.426,0.182-1.888,0.571-1.888,1.065
	C324.731,12.47,325.029,12.665,325.505,12.665z"/>
<path fill="#EC6554" d="M230.466,12.015h-0.991v1.977h-1.861v-1.977h-3.734v-1.312l3.15-4.967h2.445v4.824h0.991L230.466,12.015
	L230.466,12.015z M227.613,10.559V9.22c0-0.533,0.055-1.326,0.082-1.846h-0.055c-0.217,0.455-0.462,0.923-0.706,1.391l-1.141,1.795
	h1.82L227.613,10.559L227.613,10.559z"/>
<g>
	<g>
		<g>
			<g>
				<g>
					<defs>
						<circle id="SVGID_1_" cx="259.817" cy="9.897" r="7.049"/>
					</defs>
					<clipPath id="SVGID_2_">
						<use xlink:href="#SVGID_1_"  overflow="visible"/>
					</clipPath>
					<g clip-path="url(#SVGID_2_)">
						<g>
							<path fill="#F9F9F9" d="M247.091,2.597c8.533,0,17.066,0,25.599,0c0,4.915,0,9.831,0,14.746c-8.533,0-17.066,0-25.599,0
								C247.091,12.428,247.091,7.512,247.091,2.597z"/>
							<path fill="#010202" d="M272.543,17.294c-8.464,0-16.928,0-25.398,0c0-4.867,0-9.723,0-14.585
								c0.063-0.033,0.136-0.015,0.206-0.015c8.32-0.001,16.639-0.001,24.959-0.001c0.065,0,0.13-0.002,0.195,0.001
								c0.025,0.001,0.044,0.017,0.039,0.048c-0.022,0.025-0.049,0.043-0.08,0.054c-0.159,0.047-0.322,0.028-0.484,0.028
								c-8.077,0.001-16.154,0.001-24.231,0.002c-0.144,0-0.291-0.019-0.478,0.059c0,4.735,0,9.48,0,14.204
								c0.182,0.1,0.33,0.071,0.473,0.071c8.077,0.001,16.154,0.001,24.231,0.002c0.161,0,0.324-0.018,0.484,0.027
								C272.505,17.21,272.548,17.233,272.543,17.294z"/>
							<path fill="#290C12" d="M272.543,17.294c0.001-0.034-0.015-0.05-0.049-0.049c-0.107-0.124-0.082-0.275-0.082-0.419
								c-0.002-1.637-0.001-3.275-0.001-4.912c0-2.902-0.001-5.803,0.001-8.705c0-0.159-0.034-0.327,0.082-0.467
								c0.016,0,0.032,0,0.049,0c0.031-0.006,0.047,0.013,0.048,0.039c0.003,0.065,0.001,0.13,0.001,0.195c0,4.695,0,9.39,0,14.085
								c0,0.065,0.002,0.13-0.001,0.195C272.59,17.281,272.574,17.3,272.543,17.294z"/>
							<path fill="#BF192A" d="M272.495,2.743c0,4.834,0,9.669,0,14.503c-8.427,0-16.854,0-25.281,0
								c-0.039-0.211-0.056-13.63-0.017-14.503C255.629,2.743,264.062,2.743,272.495,2.743z"/>
							<path fill="#239E46" d="M269.477,5.128c0.031-0.006,0.046,0.013,0.048,0.039c0.003,0.048,0.001,0.097,0.001,0.146
								c0,3.13,0,6.259,0,9.389c0,0.031,0,0.063,0,0.086c-0.032,0.041-0.067,0.02-0.097,0.026c-0.211-0.058-0.405-0.155-0.6-0.252
								c-2.471-1.227-4.917-2.504-7.391-3.723c-0.106-0.052-0.233-0.085-0.273-0.221c0.031-0.271,0.111-0.535,0.075-0.815
								c-0.021-0.162-0.099-0.308-0.106-0.471c0.037-0.115,0.143-0.149,0.236-0.195c2.59-1.295,5.179-2.589,7.767-3.887
								C269.247,5.193,269.369,5.183,269.477,5.128z"/>
							<path fill="#EFE528" d="M269.477,5.128c-0.152,0.137-0.346,0.2-0.523,0.289c-1.994,0.999-3.991,1.991-5.987,2.986
								c-0.571,0.285-1.14,0.575-1.71,0.862c-0.033,0.017-0.068,0.033-0.101,0.049c-0.088-0.022-0.123-0.1-0.17-0.164
								c-0.51-0.686-1.489-0.764-2.106-0.173c-0.115,0.11-0.186,0.268-0.349,0.327c-0.122,0.015-0.218-0.051-0.318-0.101
								c-1.267-0.632-2.542-1.251-3.797-1.905c-1.277-0.666-2.576-1.289-3.856-1.949c-0.098-0.051-0.246-0.06-0.255-0.22
								C256.694,5.128,263.086,5.128,269.477,5.128z"/>
							<path fill="#F0E528" d="M261.204,10.627c0.161,0.136,0.361,0.199,0.545,0.291c1.241,0.621,2.492,1.224,3.721,1.868
								c0.652,0.342,1.311,0.668,1.967,1.002c0.655,0.333,1.316,0.655,1.974,0.983c0.01,0.005,0.012,0.027,0.018,0.04
								c-6.392,0-12.783,0-19.175,0c0.007-0.162,0.156-0.17,0.254-0.219c1.865-0.936,3.733-1.869,5.599-2.804
								c0.702-0.351,1.404-0.702,2.106-1.052c0.1-0.05,0.196-0.118,0.319-0.097c0.085,0.026,0.121,0.103,0.167,0.168
								c0.575,0.808,1.797,0.774,2.317-0.021C261.06,10.72,261.087,10.616,261.204,10.627z"/>
							<path fill="#239E46" d="M258.527,10.676c-0.07-0.023-0.122,0.031-0.171,0.055c-2.682,1.341-5.361,2.687-8.041,4.031
								c-0.027,0.013-0.066,0.002-0.062,0.05c-0.031,0.006-0.046-0.013-0.048-0.039c-0.003-0.048-0.001-0.097-0.001-0.146
								c0-3.13,0-6.259,0-9.389c0-0.031,0-0.063,0-0.086c0.032-0.041,0.067-0.02,0.097-0.026c0.161,0.136,0.361,0.199,0.545,0.291
								c1.079,0.541,2.169,1.06,3.234,1.625c0.723,0.383,1.458,0.74,2.188,1.108c0.723,0.364,1.445,0.73,2.167,1.098
								c0.033,0.017,0.061,0.008,0.091,0.015c0.064,0.073,0.04,0.152,0.013,0.229c-0.114,0.324-0.118,0.649-0.01,0.976
								C258.553,10.536,258.583,10.608,258.527,10.676z"/>
							<path fill="#EFE427" d="M264.914,4.005c-0.05,0.187,0.104,0.32,0.08,0.518c-0.133-0.097-0.242-0.176-0.358-0.26
								c-0.151,0.076-0.295,0.181-0.457,0.335c0.04-0.234,0.152-0.388,0.14-0.548c-0.136-0.118-0.281-0.189-0.404-0.325
								c0.188,0,0.356,0,0.527,0c0.047-0.15,0.091-0.294,0.139-0.449c0.135,0.114,0.083,0.305,0.231,0.442c0.126,0,0.301,0,0.475,0
								C265.157,3.814,265.066,3.944,264.914,4.005z"/>
							<path fill="#EFE327" d="M255.449,4.046c0.054,0.16,0.108,0.321,0.173,0.516c-0.159-0.116-0.286-0.208-0.418-0.305
								c-0.137,0.094-0.271,0.187-0.428,0.294c0.044-0.164,0.084-0.312,0.132-0.489c-0.108-0.119-0.284-0.196-0.438-0.337
								c0.19,0,0.357,0,0.517,0c0.109-0.135,0.088-0.315,0.205-0.453c0.048,0.148,0.093,0.285,0.143,0.441c0.157,0,0.331,0,0.525,0
								C255.748,3.875,255.6,3.952,255.449,4.046z"/>
							<path fill="#EFE327" d="M259.625,3.724c0.051-0.163,0.093-0.3,0.144-0.462c0.06,0.16,0.114,0.302,0.171,0.454
								c0.164,0,0.322,0,0.489,0c-0.096,0.175-0.295,0.209-0.378,0.361c0.043,0.128,0.087,0.261,0.132,0.393
								c-0.028,0.03-0.06,0.038-0.086,0.011c-0.093-0.095-0.216-0.145-0.322-0.221c-0.137,0.087-0.255,0.204-0.431,0.287
								c0.059-0.178,0.113-0.339,0.166-0.498c-0.145-0.1-0.298-0.171-0.4-0.325C259.287,3.724,259.454,3.724,259.625,3.724z"/>
							<path fill="#EFE427" d="M263.882,15.889c0.208,0,0.36,0,0.517,0c0.101-0.151,0.122-0.328,0.189-0.505
								c0.107,0.153,0.129,0.327,0.186,0.496c0.148,0,0.3,0,0.467,0c-0.045,0.076-0.085,0.121-0.16,0.155
								c-0.067,0.03-0.112,0.113-0.179,0.186c-0.017,0.137,0.157,0.266,0.076,0.446c-0.101-0.128-0.233-0.21-0.368-0.303
								c-0.12,0.094-0.242,0.19-0.371,0.291c-0.068-0.164,0.088-0.293,0.08-0.453C264.215,16.08,264.087,15.983,263.882,15.889z"/>
							<path fill="#EFE427" d="M254.953,15.394c0.06,0.161,0.086,0.327,0.174,0.486c0.155,0,0.313,0,0.505,0
								c-0.139,0.147-0.32,0.185-0.414,0.326c0.05,0.146,0.1,0.292,0.163,0.474c-0.162-0.117-0.289-0.21-0.419-0.304
								c-0.157,0.064-0.265,0.197-0.421,0.284c-0.014-0.171,0.081-0.302,0.142-0.446c-0.088-0.154-0.277-0.183-0.402-0.322
								c0.165,0,0.316,0,0.458,0C254.87,15.745,254.808,15.528,254.953,15.394z"/>
							<path fill="#EFE427" d="M259.583,15.891c0.097-0.167,0.122-0.333,0.179-0.495c0.099,0.147,0.101,0.326,0.208,0.489
								c0.135,0,0.293,0,0.479,0c-0.137,0.136-0.302,0.182-0.404,0.307c0.067,0.148,0.104,0.303,0.13,0.464
								c-0.111-0.12-0.271-0.166-0.365-0.299c-0.161,0.092-0.28,0.224-0.465,0.307c0.055-0.163,0.105-0.309,0.157-0.463
								c-0.106-0.121-0.258-0.194-0.392-0.31C259.27,15.891,259.421,15.891,259.583,15.891z"/>
							<path fill="#BF192A" d="M258.527,10.676c-0.005-0.132-0.095-0.234-0.112-0.37c-0.027-0.214-0.042-0.411,0.005-0.623
								c0.023-0.106,0.023-0.212,0.104-0.3c0.02-0.022,0.003-0.078,0.003-0.119c0.104-0.018,0.093-0.134,0.16-0.187
								c0.063-0.05,0.116-0.112,0.173-0.17c0.217-0.222,0.481-0.35,0.791-0.37c0.08-0.005,0.138-0.087,0.222-0.051
								c0.15,0.064,0.326,0.026,0.466,0.101c0.139,0.074,0.281,0.143,0.415,0.233c0.191,0.127,0.299,0.303,0.402,0.493
								c0.087,0.172,0.172,0.344,0.145,0.546c-0.007,0.053,0.018,0.089,0.06,0.124c-0.088,0.108-0.044,0.231-0.062,0.345
								c-0.017,0.103-0.089,0.191-0.095,0.3c-0.094,0.068-0.109,0.189-0.192,0.271c-0.278,0.275-0.299,0.356-0.771,0.528
								c-0.046,0.017-0.088,0.026-0.133,0.027c-0.113,0.003-0.226,0-0.339,0.001c-0.356,0.002-0.653-0.131-0.912-0.372
								C258.727,10.961,258.63,10.817,258.527,10.676z"/>
							<path fill="#EFE528" d="M252.931,11.357c-0.03,0.094-0.119,0.059-0.158,0.044c-0.188-0.072-0.396-0.112-0.552-0.247
								c-0.173-0.149-0.281-0.348-0.306-0.574c-0.012-0.102-0.056-0.225,0.042-0.32c0.008-0.008,0.006-0.034,0-0.047
								c-0.088-0.198-0.031-0.408-0.05-0.611c-0.002-0.026-0.027-0.05-0.042-0.075c0.119-0.074,0.223,0.036,0.336,0.029
								c0.127-0.008,0.238,0.08,0.367,0.053c0.088,0.112,0.239-0.02,0.329,0.085c0.119-0.011,0.22,0.077,0.347,0.056
								c0.219,0.194,0.327,0.438,0.319,0.735c-0.002,0.073-0.002,0.146,0,0.218c0.005,0.157,0,0.312-0.07,0.456
								c-0.06,0.036-0.075-0.053-0.125-0.046c-0.23-0.045-0.332-0.269-0.525-0.372C252.866,10.948,253.017,11.137,252.931,11.357z"
								/>
							<path fill="#BE202A" d="M252.931,11.357c-0.05-0.257-0.115-0.51-0.227-0.782c0.13,0.037,0.167,0.131,0.256,0.164
								c0.075,0.027,0.14,0.11,0.187,0.182c0.058,0.088,0.193,0.079,0.222,0.193c0,0.127,0,0.255,0,0.382
								C253.195,11.499,253.08,11.375,252.931,11.357z"/>
							<path fill="#EFE527" d="M259.097,11.04c0.065-0.319,0.193-0.577,0.264-0.855c-0.181-0.259-0.5-0.357-0.704-0.586
								c0.021-0.023,0.026-0.03,0.032-0.034c0.006-0.004,0.014-0.008,0.021-0.008c0.274,0,0.548,0,0.844,0
								c0.089-0.261,0.177-0.521,0.278-0.818c0.145,0.278,0.177,0.565,0.31,0.816c0.302,0,0.6,0,0.918,0
								c-0.052,0.074-0.085,0.127-0.167,0.153c-0.078,0.025-0.111,0.124-0.204,0.152c-0.07,0.021-0.1,0.11-0.184,0.143
								c-0.067,0.026-0.112,0.112-0.186,0.193c0.045,0.107,0.127,0.234,0.147,0.37s0.156,0.251,0.079,0.423
								c-0.24-0.179-0.467-0.348-0.693-0.517C259.607,10.656,259.372,10.832,259.097,11.04z"/>
						</g>
					</g>
				</g>
			</g>
		</g>
	</g>
</g>
<circle fill="none" stroke="#FFFCEE" stroke-miterlimit="10" cx="259.817" cy="9.897" r="7.049"/>
<g>
	<path fill="#FFFCEE" d="M496.555,12.015c0.516,0.508,1.181,0.91,2.05,0.91c0.938,0,1.589-0.468,1.589-1.248
		c0-0.857-0.57-1.403-2.539-1.403V9.181c1.697,0,2.254-0.559,2.254-1.326c0-0.688-0.488-1.104-1.276-1.104
		c-0.679,0-1.208,0.312-1.738,0.78l-0.801-0.924c0.733-0.623,1.562-1.039,2.594-1.039c1.656,0,2.798,0.779,2.798,2.184
		c0,0.923-0.571,1.547-1.508,1.898v0.052c1.019,0.26,1.793,0.962,1.793,2.054c0,1.508-1.372,2.393-3.028,2.393
		c-1.399,0-2.322-0.521-2.934-1.17L496.555,12.015z"/>
	<path fill="#FFFCEE" d="M502.749,15.538c0.869-0.325,1.371-0.91,1.371-1.573c-0.041,0-0.081,0-0.122,0
		c-0.529,0-1.005-0.338-1.005-0.923c0-0.559,0.476-0.923,1.046-0.923c0.733,0,1.168,0.572,1.168,1.534
		c0,1.273-0.774,2.262-2.119,2.704L502.749,15.538z"/>
	<path fill="#FFFCEE" d="M506.023,13.12c2.404-2.223,3.911-3.679,3.911-4.94c0-0.871-0.502-1.43-1.426-1.43
		c-0.665,0-1.222,0.429-1.684,0.923l-0.869-0.832c0.787-0.806,1.575-1.273,2.757-1.273c1.656,0,2.729,1.001,2.729,2.534
		c0,1.47-1.426,2.978-3.137,4.707c0.448-0.039,1.019-0.092,1.439-0.092h2.118v1.274h-5.84V13.12H506.023z"/>
	<path fill="#FFFCEE" d="M517.595,7.413c-0.312-0.364-0.855-0.624-1.371-0.624c-1.087,0-1.97,0.767-2.037,3.055
		c0.502-0.61,1.249-0.975,1.874-0.975c1.494,0,2.525,0.832,2.525,2.561c0,1.651-1.235,2.718-2.716,2.718
		c-1.697,0-3.137-1.262-3.137-4.043c0-3.212,1.63-4.537,3.395-4.537c1.046,0,1.793,0.416,2.309,0.936L517.595,7.413z M517.134,11.43
		c0-0.975-0.503-1.469-1.358-1.469c-0.489,0-1.06,0.26-1.548,0.949c0.162,1.469,0.773,2.093,1.615,2.093
		C516.563,13.003,517.134,12.444,517.134,11.43z"/>
</g>
</svg>
