<?xml version="1.0" encoding="utf-8"?>
<!-- Generator: Adobe Illustrator 17.0.0, SVG Export Plug-In . SVG Version: 6.00 Build 0)  -->
<!DOCTYPE svg PUBLIC "-//W3C//DTD SVG 1.1//EN" "http://www.w3.org/Graphics/SVG/1.1/DTD/svg11.dtd">
<svg version="1.1" id="Layer_1" xmlns="http://www.w3.org/2000/svg" xmlns:xlink="http://www.w3.org/1999/xlink" x="0px" y="0px"
	 width="600px" height="19.542px" viewBox="0 0 600 19.542" enable-background="new 0 0 600 19.542" xml:space="preserve">
<rect x="133.491" y="2.722" fill="#EC6554" width="58.637" height="14.097"/>
<g>
	<rect x="448.356" y="8.771" fill="#EC6554" width="30.182" height="2"/>
</g>
<g>
	<g>
		<circle fill="#EC6554" cx="478.413" cy="9.771" r="2.481"/>
	</g>
</g>
<rect x="0" y="0" fill="none" width="600" height="19.542"/>
<line fill="none" stroke="#9F9F9F" stroke-width="0.7" stroke-miterlimit="10" stroke-dasharray="6,3" x1="199.426" y1="0.55" x2="199.426" y2="18.993"/>
<line fill="none" stroke="#9F9F9F" stroke-width="0.7" stroke-miterlimit="10" stroke-dasharray="6,3" x1="440.97" y1="0.55" x2="440.97" y2="18.993"/>
<g>
	<g>
		<g>
			<defs>
				<circle id="SVGID_1_" cx="259.927" cy="9.771" r="7.158"/>
			</defs>
			<clipPath id="SVGID_2_">
				<use xlink:href="#SVGID_1_"  overflow="visible"/>
			</clipPath>
			<g id="Ls6o8M_1_" clip-path="url(#SVGID_2_)">
				<g>
					<g>
						<path fill="#3C5BA4" d="M249.129,16.966c0-2.394,0-4.788,0-7.183c0.133-0.109,0.292-0.077,0.443-0.077
							c3.286-0.002,6.572-0.002,9.857,0c0.169,0,0.339-0.024,0.507,0.012c0.028,0.019,0.048,0.043,0.062,0.074
							c0.04,0.109,0.031,0.223,0.031,0.336c0.001,2.148,0.001,4.296-0.001,6.444c0,0.135,0.02,0.277-0.07,0.398
							c-0.089,0.076-0.197,0.063-0.301,0.063c-3.41,0.001-6.82,0.001-10.23,0C249.324,17.033,249.216,17.044,249.129,16.966z"/>
						<path fill="#FFFFFF" d="M259.951,9.734c-0.052,0.009-0.086,0.065-0.15,0.051c-0.046-0.011-0.097-0.002-0.145-0.002
							c-3.509,0-7.018,0-10.527,0c0-2.41,0-4.821,0-7.231c0.085-0.067,0.185-0.048,0.281-0.048c3.42-0.001,6.84-0.001,10.261,0
							c0.095,0,0.195-0.021,0.283,0.039c0.083,0.094,0.076,0.21,0.076,0.322c0.002,2.183,0.002,4.366,0,6.548
							C260.029,9.525,260.041,9.643,259.951,9.734z"/>
						<path fill="#FFFFFF" d="M249.129,2.503c0-0.016,0-0.047,0-0.047c0.073-0.002,0.146-0.002,0.218-0.002
							c7.175,0,14.349,0,21.524,0c0,4.902,0,9.803,0,14.705c-7.247,0-14.495,0-21.742,0c0-0.049,0-0.097,0-0.146
							c0.092-0.046,0.191-0.022,0.286-0.022c3.421-0.001,6.843-0.001,10.264-0.002c0.089,0,0.178,0.009,0.266-0.009
							c0.132-0.053,0.271-0.035,0.408-0.035c3.338-0.001,6.676,0,10.014-0.002c0.117,0,0.245,0.036,0.387-0.103
							c0-2.326,0-4.691-0.001-7.056c0.002-2.382,0-4.764,0.001-7.11c-0.135-0.14-0.263-0.102-0.38-0.102
							c-3.346-0.002-6.693-0.001-10.039-0.002c-0.129,0-0.259,0.016-0.384-0.033c-0.088-0.021-0.177-0.01-0.265-0.011
							c-3.424-0.001-6.848,0-10.271-0.002C249.319,2.525,249.221,2.549,249.129,2.503z"/>
						<path fill="#010202" d="M249.129,2.503c3.608,0,7.215,0,10.823,0c0.006,0.008,0.012,0.016,0.018,0.024
							c-0.006,0.008-0.012,0.016-0.018,0.024c-3.608,0-7.215,0-10.823,0C249.129,2.535,249.129,2.519,249.129,2.503z"/>
						<path fill="#2D437A" d="M259.951,17.014c-3.608,0-7.215,0-10.823,0c0-0.016,0-0.032,0-0.049c3.608,0,7.215,0,10.823,0
							c0.006,0.008,0.012,0.016,0.018,0.024C259.963,16.998,259.957,17.006,259.951,17.014z"/>
						<path fill="#BF192A" d="M259.951,9.734c0-2.394,0-4.788,0-7.183c0.068-0.041,0.142-0.023,0.214-0.023
							c3.468-0.001,6.937-0.001,10.405,0c0.063,0,0.129-0.012,0.191,0.016c0.057,0.052,0.036,0.121,0.036,0.182
							c0.001,2.296,0.001,4.592,0.001,6.888c0,0.056,0.01,0.114-0.021,0.166c-0.091,0.09-0.208,0.079-0.32,0.079
							c-3.394,0.002-6.789,0.002-10.183,0c-0.113,0-0.228,0.005-0.322-0.078C259.951,9.767,259.951,9.75,259.951,9.734z"/>
						<path fill="#FFFFFF" d="M259.951,9.783c3.608,0,7.215,0,10.823,0c0.007,0.015,0.014,0.029,0.021,0.044
							c0.005,2.376,0.001,4.751,0.003,7.112c-0.081,0.073-0.157,0.05-0.226,0.05c-3.469,0.001-6.938,0.001-10.407,0
							c-0.071,0-0.146,0.018-0.214-0.023C259.951,14.571,259.951,12.177,259.951,9.783z"/>
						<path fill="#3C5BA4" d="M255.624,7.818c-0.374-0.27-0.727-0.525-1.099-0.794c-0.338,0.253-0.691,0.517-1.078,0.807
							c0.146-0.449,0.279-0.856,0.415-1.272c-0.372-0.271-0.729-0.529-1.096-0.796c0.453,0,0.895,0,1.336,0
							c0.131-0.396,0.26-0.786,0.388-1.172c0.032-0.001,0.065-0.004,0.07,0.022c0.059,0.288,0.18,0.556,0.265,0.836
							c0.03,0.098,0.005,0.219,0.105,0.307c0.416,0,0.842,0,1.307,0c-0.167,0.179-0.36,0.276-0.517,0.415
							c-0.16,0.141-0.347,0.252-0.534,0.385C255.328,6.966,255.471,7.377,255.624,7.818z"/>
						<path fill="#5E121B" d="M270.774,9.783c0-2.407,0-4.813,0-7.231c-3.616,0-7.219,0-10.823,0c0-0.016,0-0.032,0-0.049
							c3.619,0,7.239,0,10.871,0c0,2.434,0,4.857,0,7.28C270.806,9.805,270.79,9.805,270.774,9.783z"/>
						<path fill="#010202" d="M270.774,9.783c0.016,0,0.032,0,0.049,0c0,2.407,0,4.813,0,7.231c-3.632,0-7.252,0-10.871,0
							c0-0.016,0-0.032,0-0.049c3.603,0,7.206,0,10.823,0C270.774,14.564,270.774,12.173,270.774,9.783z"/>
						<path fill="#BF192A" d="M263.712,12.986c0.42,0,0.84,0,1.263,0c0.129-0.388,0.258-0.777,0.386-1.165
							c0.029,0.001,0.06-0.007,0.069,0.021c0.087,0.279,0.16,0.563,0.264,0.836c0.038,0.099,0.003,0.221,0.11,0.307
							c0.412,0,0.838,0,1.281,0c-0.063,0.105-0.15,0.155-0.23,0.22c-0.085,0.068-0.183,0.119-0.26,0.198
							c-0.076,0.078-0.169,0.15-0.258,0.196c-0.098,0.052-0.141,0.175-0.273,0.175c0.145,0.419,0.26,0.839,0.459,1.29
							c-0.167-0.11-0.278-0.2-0.392-0.289c-0.121-0.094-0.252-0.175-0.374-0.27c-0.113-0.087-0.247-0.149-0.347-0.262
							c-0.355,0.267-0.705,0.529-1.091,0.818c0.147-0.449,0.28-0.856,0.413-1.264C264.379,13.52,264.033,13.268,263.712,12.986z"/>
					</g>
				</g>
			</g>
		</g>
	</g>
</g>
<path fill="#010201" d="M280.133,5.399h2.743c1.969,0,3.286,0.637,3.286,2.509c0,1.794-1.344,2.64-3.286,2.64h-1.603v3.38h-1.141
	L280.133,5.399L280.133,5.399z M282.727,9.664c1.562,0,2.309-0.547,2.309-1.756c0-1.234-0.774-1.638-2.309-1.638h-1.453v3.394
	H282.727z"/>
<path fill="#010201" d="M290.905,9.923c0-0.807-0.285-1.586-1.358-1.586c-0.774,0-1.453,0.338-1.97,0.676l-0.447-0.741
	c0.61-0.377,1.534-0.819,2.594-0.819c1.616,0,2.295,1.027,2.295,2.601v3.874h-0.924L291,13.174h-0.027
	c-0.639,0.494-1.371,0.91-2.187,0.91c-1.113,0-1.941-0.663-1.941-1.794C286.844,10.912,288.093,10.222,290.905,9.923z
	 M289.098,13.225c0.639,0,1.168-0.299,1.807-0.845v-1.755c-2.214,0.26-2.961,0.779-2.961,1.586
	C287.944,12.926,288.446,13.225,289.098,13.225z"/>
<path fill="#010201" d="M294.057,7.609h0.924l0.095,0.91h0.041c0.625-0.598,1.304-1.066,2.214-1.066c1.385,0,2.01,0.858,2.01,2.471
	v4.004h-1.113v-3.861c0-1.183-0.381-1.689-1.25-1.689c-0.679,0-1.141,0.338-1.806,0.975v4.576h-1.114L294.057,7.609L294.057,7.609z"
	/>
<path fill="#010201" d="M305.156,9.923c0-0.807-0.286-1.586-1.358-1.586c-0.774,0-1.453,0.338-1.969,0.676l-0.448-0.741
	c0.61-0.377,1.534-0.819,2.594-0.819c1.616,0,2.295,1.027,2.295,2.601v3.874h-0.924l-0.095-0.754h-0.027
	c-0.639,0.494-1.371,0.91-2.187,0.91c-1.113,0-1.941-0.663-1.941-1.794C301.095,10.912,302.344,10.222,305.156,9.923z
	 M303.349,13.225c0.639,0,1.168-0.299,1.807-0.845v-1.755c-2.214,0.26-2.961,0.779-2.961,1.586
	C302.195,12.926,302.698,13.225,303.349,13.225z"/>
<path fill="#010201" d="M308.308,7.609h0.924l0.095,0.91h0.041c0.57-0.598,1.263-1.066,2.051-1.066c1.005,0,1.548,0.455,1.819,1.209
	c0.692-0.715,1.372-1.209,2.173-1.209c1.358,0,2.01,0.858,2.01,2.471v4.004h-1.113v-3.861c0-1.183-0.394-1.689-1.222-1.689
	c-0.517,0-1.046,0.324-1.657,0.975v4.576h-1.113v-3.861c0-1.183-0.395-1.689-1.236-1.689c-0.488,0-1.046,0.324-1.656,0.975v4.576
	h-1.114V7.609H308.308z"/>
<path fill="#010201" d="M323.237,9.923c0-0.807-0.285-1.586-1.358-1.586c-0.774,0-1.453,0.338-1.97,0.676l-0.447-0.741
	c0.61-0.377,1.534-0.819,2.594-0.819c1.616,0,2.295,1.027,2.295,2.601v3.874h-0.924l-0.095-0.754h-0.027
	c-0.639,0.494-1.371,0.91-2.187,0.91c-1.113,0-1.941-0.663-1.941-1.794C319.176,10.912,320.425,10.222,323.237,9.923z
	 M321.43,13.225c0.639,0,1.168-0.299,1.807-0.845v-1.755c-2.214,0.26-2.961,0.779-2.961,1.586
	C320.276,12.926,320.778,13.225,321.43,13.225z"/>
<circle fill="none" stroke="#010201" stroke-miterlimit="10" cx="259.927" cy="9.771" r="7.049"/>
</svg>
