<?xml version="1.0" encoding="utf-8"?>
<!-- Generator: Adobe Illustrator 17.0.0, SVG Export Plug-In . SVG Version: 6.00 Build 0)  -->
<!DOCTYPE svg PUBLIC "-//W3C//DTD SVG 1.1//EN" "http://www.w3.org/Graphics/SVG/1.1/DTD/svg11.dtd">
<svg version="1.1" id="Layer_1" xmlns="http://www.w3.org/2000/svg" xmlns:xlink="http://www.w3.org/1999/xlink" x="0px" y="0px"
	 width="600px" height="19.542px" viewBox="0 0 600 19.542" enable-background="new 0 0 600 19.542" xml:space="preserve">
<rect x="0" y="0" fill="#EC6554" width="600" height="19.542"/>
<line fill="none" stroke="#9F9F9F" stroke-width="0.7" stroke-miterlimit="10" stroke-dasharray="6,3" x1="199.426" y1="0.55" x2="199.426" y2="18.993"/>
<line fill="none" stroke="#9F9F9F" stroke-width="0.7" stroke-miterlimit="10" stroke-dasharray="6,3" x1="440.97" y1="0.55" x2="440.97" y2="18.993"/>
<g>
	<g>
		<g>
			<rect x="451.885" y="8.771" fill="#FFFCEE" width="30.183" height="2"/>
		</g>
		<g>
			<g>
				<circle fill="#FFFCEE" cx="481.943" cy="9.771" r="2.481"/>
			</g>
		</g>
	</g>
</g>
<path fill="#FFFCEE" d="M67.679,7.413c-0.503-0.441-0.924-0.688-1.575-0.688c-0.733,0-1.182,0.364-1.182,1.04
	c0,1.56,3.694,1.248,3.694,3.874c0,1.235-0.761,2.146-2.105,2.379v1.339h-1.086v-1.3c-0.829-0.078-1.738-0.442-2.35-0.988
	l0.706-1.014c0.638,0.481,1.276,0.806,2.01,0.806c0.883,0,1.317-0.416,1.317-1.117c0-1.717-3.694-1.47-3.694-3.914
	c0-1.209,0.788-2.066,2.011-2.274V4.229h1.086v1.3c0.869,0.104,1.467,0.507,1.969,1.014L67.679,7.413z"/>
<path fill="#FFFCEE" d="M72.543,12.705h1.929V7.271h-1.589V6.335c0.855-0.156,1.453-0.364,1.996-0.677h1.168v7.047h1.697v1.222
	h-5.201V12.705z"/>
<path fill="#FFFCEE" d="M79.214,11.977c0.516,0.468,1.154,0.884,2.023,0.884c0.964,0,1.67-0.585,1.67-1.586
	c0-0.988-0.638-1.547-1.589-1.547c-0.557,0-0.869,0.143-1.385,0.468L79.187,9.74l0.258-4.082h4.617V6.92h-3.259l-0.177,2.002
	c0.367-0.169,0.692-0.273,1.141-0.273c1.48,0,2.716,0.806,2.716,2.587c0,1.808-1.453,2.848-3.042,2.848
	c-1.398,0-2.309-0.533-2.946-1.145L79.214,11.977z"/>
<path fill="#FFFCEE" d="M85.802,12.705h1.929V7.271h-1.589V6.335c0.855-0.156,1.453-0.364,1.996-0.677h1.168v7.047h1.697v1.222
	h-5.201V12.705z"/>
<path fill="#FFFCEE" d="M96.111,6.92h-4.088V5.658h5.799v0.91c-2.023,2.405-2.377,4.134-2.526,7.358h-1.589
	C93.857,10.988,94.441,9.143,96.111,6.92z"/>
<path fill="#FFFCEE" d="M99.061,12.705h1.929V7.271h-1.589V6.335c0.855-0.156,1.453-0.364,1.996-0.677h1.168v7.047h1.697v1.222
	h-5.201C99.061,13.927,99.061,12.705,99.061,12.705z"/>
<path fill="#FFFCEE" d="M105.323,15.474c0.869-0.325,1.371-0.91,1.371-1.573c-0.041,0-0.081,0-0.122,0
	c-0.529,0-1.005-0.338-1.005-0.923c0-0.559,0.476-0.923,1.046-0.923c0.733,0,1.168,0.572,1.168,1.534
	c0,1.273-0.774,2.262-2.119,2.704L105.323,15.474z"/>
<path fill="#FFFCEE" d="M114.694,11.795h-1.086v2.132h-1.467v-2.132h-3.816V10.78l3.423-5.122h1.86v4.979h1.086
	C114.694,10.637,114.694,11.795,114.694,11.795z M112.142,10.638V8.766c0-0.481,0.041-1.235,0.068-1.716h-0.055
	c-0.218,0.429-0.462,0.845-0.706,1.287l-1.575,2.301C109.874,10.638,112.142,10.638,112.142,10.638z"/>
<path fill="#FFFCEE" d="M115.253,9.754c0-2.796,1.141-4.251,2.934-4.251s2.934,1.469,2.934,4.251c0,2.795-1.141,4.329-2.934,4.329
	S115.253,12.549,115.253,9.754z M119.626,9.754c0-2.341-0.598-3.081-1.439-3.081c-0.828,0-1.439,0.74-1.439,3.081
	c0,2.34,0.611,3.159,1.439,3.159C119.028,12.913,119.626,12.094,119.626,9.754z"/>
<path fill="#FFFCEE" d="M126.337,14.446v2.003h-1.562V7.544h1.29l0.109,0.676h0.054c0.557-0.455,1.276-0.832,2.01-0.832
	c1.657,0,2.621,1.273,2.621,3.25c0,2.184-1.371,3.445-2.852,3.445c-0.584,0-1.168-0.26-1.711-0.702L126.337,14.446z M127.682,12.848
	c0.883,0,1.562-0.754,1.562-2.197c0-1.273-0.435-2.028-1.439-2.028c-0.488,0-0.95,0.234-1.467,0.716v2.977
	C126.826,12.705,127.288,12.848,127.682,12.848z"/>
<path fill="#FFFCEE" d="M134.434,4.696h1.06l-3.164,11.311h-1.06L134.434,4.696z"/>
<path fill="#FFFCEE" d="M139.012,7.388c0.855,0,1.508,0.325,1.956,0.741l-0.747,0.948c-0.354-0.299-0.706-0.468-1.127-0.468
	c-1.073,0-1.82,0.845-1.82,2.132c0,1.274,0.733,2.119,1.779,2.119c0.543,0,1.005-0.26,1.371-0.546l0.652,0.949
	c-0.625,0.533-1.426,0.819-2.187,0.819c-1.82,0-3.219-1.223-3.219-3.342C135.671,8.61,137.233,7.388,139.012,7.388z"/>
<circle fill="none" stroke="#FFFCEE" stroke-miterlimit="10" cx="259.817" cy="9.771" r="7.049"/>
<path fill="#FFFCEE" d="M279.874,5.451h3.232c1.928,0,3.463,0.676,3.463,2.73c0,1.988-1.589,2.873-3.463,2.873h-1.223v2.873h-2.01
	V5.451H279.874z M282.984,9.533c1.101,0,1.63-0.469,1.63-1.352c0-0.885-0.57-1.209-1.63-1.209h-1.1v2.561H282.984z"/>
<path fill="#FFFCEE" d="M290.958,9.779c-0.04-0.57-0.339-0.936-1.059-0.936c-0.57,0-1.141,0.221-1.793,0.586L287.4,8.167
	c0.855-0.494,1.819-0.846,2.879-0.846c1.725,0,2.676,0.937,2.676,2.912v3.693h-1.63l-0.149-0.664h-0.041
	c-0.57,0.482-1.208,0.82-1.969,0.82c-1.223,0-1.996-0.859-1.996-1.951C287.17,10.781,288.297,10.041,290.958,9.779z M289.845,12.602
	c0.462,0,0.761-0.209,1.113-0.547v-1.131c-1.426,0.182-1.888,0.572-1.888,1.066C289.07,12.406,289.369,12.602,289.845,12.602z"/>
<path fill="#FFFCEE" d="M294.601,7.479h1.63l0.136,0.82h0.054c0.57-0.521,1.25-0.977,2.159-0.977c1.467,0,2.092,0.988,2.092,2.602
	v4.004h-1.996V10.17c0-0.936-0.258-1.223-0.829-1.223c-0.502,0-0.814,0.223-1.249,0.625v4.355h-1.996L294.601,7.479L294.601,7.479z"
	/>
<path fill="#FFFCEE" d="M305.847,9.779c-0.04-0.57-0.339-0.936-1.059-0.936c-0.57,0-1.141,0.221-1.793,0.586l-0.706-1.262
	c0.855-0.494,1.819-0.846,2.879-0.846c1.725,0,2.676,0.937,2.676,2.912v3.693h-1.63l-0.149-0.664h-0.041
	c-0.57,0.482-1.208,0.82-1.969,0.82c-1.223,0-1.996-0.859-1.996-1.951C302.059,10.781,303.186,10.041,305.847,9.779z
	 M304.734,12.602c0.462,0,0.761-0.209,1.113-0.547v-1.131c-1.426,0.182-1.888,0.572-1.888,1.066
	C303.959,12.406,304.258,12.602,304.734,12.602z"/>
<path fill="#FFFCEE" d="M309.489,7.479h1.63l0.136,0.832h0.054c0.557-0.533,1.154-0.988,2.037-0.988c0.951,0,1.521,0.391,1.86,1.08
	c0.598-0.586,1.223-1.08,2.119-1.08c1.453,0,2.104,0.988,2.104,2.602v4.004h-1.996V10.17c0-0.936-0.258-1.223-0.828-1.223
	c-0.34,0-0.72,0.209-1.154,0.625v4.355h-1.996V10.17c0-0.936-0.259-1.223-0.829-1.223c-0.325,0-0.72,0.209-1.141,0.625v4.355h-1.996
	L309.489,7.479L309.489,7.479z"/>
<path fill="#FFFCEE" d="M324.608,9.779c-0.04-0.57-0.339-0.936-1.059-0.936c-0.57,0-1.141,0.221-1.793,0.586l-0.706-1.262
	c0.855-0.494,1.819-0.846,2.879-0.846c1.725,0,2.676,0.937,2.676,2.912v3.693h-1.63l-0.149-0.664h-0.041
	c-0.57,0.482-1.208,0.82-1.969,0.82c-1.223,0-1.996-0.859-1.996-1.951C320.819,10.781,321.946,10.041,324.608,9.779z
	 M323.494,12.602c0.462,0,0.761-0.209,1.113-0.547v-1.131c-1.426,0.182-1.888,0.572-1.888,1.066
	C322.72,12.406,323.019,12.602,323.494,12.602z"/>
<path fill="#EC6554" d="M230.466,11.951h-0.991v1.977h-1.861v-1.977h-3.734v-1.312l3.15-4.967h2.445v4.824h0.991L230.466,11.951
	L230.466,11.951z M227.613,10.496v-1.34c0-0.533,0.055-1.326,0.082-1.846h-0.055c-0.217,0.455-0.462,0.922-0.706,1.391l-1.141,1.795
	H227.613z"/>
<g>
	<g>
		<g>
			<g>
				<g>
					<defs>
						<circle id="SVGID_1_" cx="259.817" cy="9.771" r="7.158"/>
					</defs>
					<clipPath id="SVGID_2_">
						<use xlink:href="#SVGID_1_"  overflow="visible"/>
					</clipPath>
					<g clip-path="url(#SVGID_2_)">
						<g>
							<path fill="#3C5BA4" d="M249.019,16.966c0-2.394,0-4.788,0-7.183c0.133-0.109,0.292-0.077,0.443-0.077
								c3.286-0.002,6.572-0.002,9.858,0c0.169,0,0.339-0.024,0.507,0.012c0.028,0.019,0.048,0.043,0.062,0.074
								c0.04,0.109,0.031,0.223,0.031,0.336c0.001,2.148,0.001,4.296-0.001,6.444c0,0.135,0.02,0.277-0.07,0.398
								c-0.089,0.076-0.197,0.063-0.301,0.063c-3.41,0.001-6.82,0.001-10.23,0C249.214,17.033,249.106,17.044,249.019,16.966z"/>
							<path fill="#FFFFFF" d="M259.841,9.734c-0.052,0.009-0.086,0.065-0.15,0.051c-0.046-0.011-0.097-0.002-0.145-0.002
								c-3.509,0-7.018,0-10.527,0c0-2.41,0-4.821,0-7.231c0.085-0.067,0.185-0.048,0.281-0.048c3.42-0.001,6.84-0.001,10.261,0
								c0.095,0,0.195-0.021,0.283,0.039c0.083,0.094,0.076,0.21,0.076,0.322c0.002,2.183,0.002,4.366,0,6.548
								C259.919,9.525,259.931,9.643,259.841,9.734z"/>
							<path fill="#FFFFFF" d="M249.019,2.503c0-0.016,0-0.047,0-0.047c0.073-0.002,0.146-0.002,0.218-0.002
								c7.175,0,14.349,0,21.524,0c0,4.902,0,9.803,0,14.705c-7.247,0-14.495,0-21.742,0c0-0.049,0-0.097,0-0.146
								c0.092-0.046,0.191-0.022,0.286-0.022c3.421-0.001,6.843-0.001,10.264-0.002c0.089,0,0.178,0.009,0.266-0.009
								c0.132-0.053,0.271-0.035,0.408-0.035c3.338-0.001,6.676,0,10.014-0.002c0.117,0,0.245,0.036,0.387-0.103
								c0-2.326,0-4.691-0.001-7.056c0.002-2.382,0-4.764,0.001-7.11c-0.135-0.14-0.263-0.102-0.38-0.102
								c-3.346-0.002-6.693-0.001-10.039-0.002c-0.129,0-0.259,0.016-0.384-0.033c-0.088-0.021-0.177-0.01-0.265-0.011
								c-3.424-0.001-6.848,0-10.271-0.002C249.21,2.525,249.111,2.549,249.019,2.503z"/>
							<path fill="#010202" d="M249.019,2.503c3.608,0,7.215,0,10.823,0c0.006,0.008,0.012,0.016,0.018,0.024
								c-0.006,0.008-0.012,0.016-0.018,0.024c-3.608,0-7.215,0-10.823,0C249.019,2.535,249.019,2.519,249.019,2.503z"/>
							<path fill="#2D437A" d="M259.841,17.014c-3.608,0-7.215,0-10.823,0c0-0.016,0-0.032,0-0.049c3.608,0,7.215,0,10.823,0
								c0.006,0.008,0.012,0.016,0.018,0.024C259.853,16.998,259.847,17.006,259.841,17.014z"/>
							<path fill="#BF192A" d="M259.841,9.734c0-2.394,0-4.788,0-7.183c0.068-0.041,0.142-0.023,0.214-0.023
								c3.468-0.001,6.937-0.001,10.405,0c0.063,0,0.129-0.012,0.191,0.016c0.057,0.052,0.036,0.121,0.036,0.182
								c0.001,2.296,0.001,4.592,0.001,6.888c0,0.056,0.01,0.114-0.021,0.166c-0.091,0.09-0.208,0.079-0.32,0.079
								c-3.394,0.002-6.789,0.002-10.183,0c-0.113,0-0.228,0.005-0.322-0.078C259.841,9.767,259.841,9.75,259.841,9.734z"/>
							<path fill="#FFFFFF" d="M259.841,9.783c3.608,0,7.215,0,10.823,0c0.007,0.015,0.014,0.029,0.021,0.044
								c0.005,2.376,0.001,4.751,0.003,7.112c-0.081,0.073-0.157,0.05-0.226,0.05c-3.469,0.001-6.938,0.001-10.407,0
								c-0.071,0-0.146,0.018-0.214-0.023C259.841,14.571,259.841,12.177,259.841,9.783z"/>
							<path fill="#3C5BA4" d="M255.514,7.818c-0.374-0.27-0.727-0.525-1.099-0.794c-0.338,0.253-0.691,0.517-1.078,0.807
								c0.146-0.449,0.279-0.856,0.415-1.272c-0.372-0.271-0.729-0.529-1.096-0.796c0.453,0,0.895,0,1.336,0
								c0.131-0.396,0.26-0.786,0.388-1.172c0.032-0.001,0.065-0.004,0.07,0.022c0.059,0.288,0.18,0.556,0.265,0.836
								c0.03,0.098,0.005,0.219,0.105,0.307c0.416,0,0.842,0,1.307,0c-0.167,0.179-0.36,0.276-0.517,0.415
								c-0.16,0.141-0.347,0.252-0.534,0.385C255.219,6.966,255.361,7.377,255.514,7.818z"/>
							<path fill="#5E121B" d="M270.664,9.783c0-2.407,0-4.813,0-7.231c-3.616,0-7.219,0-10.823,0c0-0.016,0-0.032,0-0.049
								c3.619,0,7.239,0,10.871,0c0,2.434,0,4.857,0,7.28C270.696,9.805,270.68,9.805,270.664,9.783z"/>
							<path fill="#010202" d="M270.664,9.783c0.016,0,0.032,0,0.049,0c0,2.407,0,4.813,0,7.231c-3.632,0-7.252,0-10.871,0
								c0-0.016,0-0.032,0-0.049c3.603,0,7.206,0,10.823,0C270.664,14.564,270.664,12.173,270.664,9.783z"/>
							<path fill="#BF192A" d="M263.602,12.986c0.42,0,0.84,0,1.263,0c0.129-0.388,0.258-0.777,0.386-1.165
								c0.029,0.001,0.06-0.007,0.069,0.021c0.087,0.279,0.16,0.563,0.264,0.836c0.038,0.099,0.003,0.221,0.11,0.307
								c0.412,0,0.838,0,1.281,0c-0.063,0.105-0.15,0.155-0.23,0.22c-0.085,0.068-0.183,0.119-0.26,0.198
								c-0.076,0.078-0.169,0.15-0.258,0.196c-0.098,0.052-0.141,0.175-0.273,0.175c0.145,0.419,0.26,0.839,0.459,1.29
								c-0.167-0.11-0.278-0.2-0.392-0.289c-0.121-0.094-0.252-0.175-0.374-0.27c-0.113-0.087-0.247-0.149-0.347-0.262
								c-0.355,0.267-0.705,0.529-1.091,0.818c0.147-0.449,0.28-0.856,0.413-1.264C264.269,13.52,263.923,13.268,263.602,12.986z"/>
						</g>
					</g>
				</g>
			</g>
		</g>
	</g>
</g>
<circle fill="none" stroke="#FFFCEE" stroke-miterlimit="10" cx="259.817" cy="9.771" r="7.049"/>
<g>
	<path fill="#FFFCEE" d="M491.462,13.057c2.404-2.223,3.911-3.679,3.911-4.94c0-0.871-0.502-1.43-1.426-1.43
		c-0.665,0-1.222,0.429-1.684,0.923l-0.869-0.832c0.787-0.806,1.575-1.273,2.757-1.273c1.656,0,2.729,1.001,2.729,2.534
		c0,1.47-1.426,2.978-3.137,4.707c0.448-0.039,1.019-0.092,1.439-0.092h2.118v1.274h-5.84v-0.871
		C491.46,13.057,491.462,13.057,491.462,13.057z"/>
	<path fill="#FFFCEE" d="M498.214,15.475c0.869-0.325,1.371-0.91,1.371-1.573c-0.041,0-0.081,0-0.122,0
		c-0.529,0-1.005-0.338-1.005-0.923c0-0.559,0.476-0.923,1.046-0.923c0.733,0,1.168,0.572,1.168,1.534
		c0,1.273-0.774,2.262-2.119,2.704L498.214,15.475z"/>
	<path fill="#FFFCEE" d="M503.09,9.69V9.638c-0.665-0.455-1.194-1.066-1.194-1.938c0-1.339,1.113-2.196,2.607-2.196
		c1.548,0,2.539,0.896,2.539,2.235c0,0.819-0.598,1.509-1.154,1.898V9.69c0.802,0.429,1.494,1.04,1.494,2.146
		c0,1.273-1.168,2.249-2.92,2.249c-1.684,0-2.934-0.937-2.934-2.275C501.528,10.781,502.275,10.106,503.09,9.69z M504.489,13.018
		c0.828,0,1.426-0.468,1.426-1.235c0-0.896-0.91-1.222-2.078-1.677c-0.543,0.377-0.937,0.91-0.937,1.547
		C502.9,12.472,503.606,13.018,504.489,13.018z M505.752,7.83c0-0.728-0.476-1.261-1.276-1.261c-0.666,0-1.182,0.416-1.182,1.131
		c0,0.832,0.774,1.196,1.738,1.561C505.494,8.819,505.752,8.351,505.752,7.83z"/>
	<path fill="#FFFCEE" d="M514.214,11.796h-1.086v2.132h-1.467v-2.132h-3.816v-1.015l3.423-5.122h1.86v4.979h1.086V11.796z
		 M511.661,10.639V8.767c0-0.481,0.041-1.235,0.068-1.716h-0.055c-0.218,0.429-0.462,0.845-0.706,1.287l-1.575,2.301H511.661z"/>
</g>
</svg>
