<?xml version="1.0" encoding="utf-8"?>
<!-- Generator: Adobe Illustrator 17.0.0, SVG Export Plug-In . SVG Version: 6.00 Build 0)  -->
<!DOCTYPE svg PUBLIC "-//W3C//DTD SVG 1.1//EN" "http://www.w3.org/Graphics/SVG/1.1/DTD/svg11.dtd">
<svg version="1.1" id="Layer_1" xmlns="http://www.w3.org/2000/svg" xmlns:xlink="http://www.w3.org/1999/xlink" x="0px" y="0px"
	 width="600px" height="19.045px" viewBox="0 0 600 19.045" enable-background="new 0 0 600 19.045" xml:space="preserve">
<rect x="35.386" y="2.356" fill="#C0305F" width="156.742" height="13.837"/>
<g>
	<rect x="447.495" y="8.274" fill="#BF3160" width="11.789" height="2"/>
</g>
<g>
	<g>
		<circle fill="#BF3160" cx="459.161" cy="9.275" r="2.481"/>
	</g>
</g>
<line fill="none" stroke="#9F9F9F" stroke-width="0.7" stroke-miterlimit="10" stroke-dasharray="6,3" x1="199.426" y1="-0.496" x2="199.426" y2="19.046"/>
<line fill="none" stroke="#9F9F9F" stroke-width="0.7" stroke-miterlimit="10" stroke-dasharray="6,3" x1="440.97" y1="-0.496" x2="440.97" y2="19.046"/>
<g>
	<g>
		<g>
			<g>
				<defs>
					<circle id="SVGID_1_" cx="259.927" cy="8.911" r="7.049"/>
				</defs>
				<clipPath id="SVGID_2_">
					<use xlink:href="#SVGID_1_"  overflow="visible"/>
				</clipPath>
				<path clip-path="url(#SVGID_2_)" fill="#FFFFFF" d="M265.7,16.324c-3.811,0-7.623,0-11.434,0
					c-0.084-0.134-0.06-0.295-0.06-0.447c-0.001-2.62-0.001-5.24-0.001-7.86c0-1.991,0-3.983,0.001-5.974
					c0-0.145-0.019-0.296,0.049-0.428c0.067-0.062,0.145-0.041,0.218-0.041c3.671-0.001,7.342-0.001,11.013,0
					c0.074,0,0.151-0.019,0.22,0.034c0.078,0.137,0.055,0.298,0.055,0.45c0.001,3.177,0.001,6.354,0.001,9.531
					c0,1.437,0.001,2.875-0.001,4.312C265.76,16.046,265.781,16.198,265.7,16.324z"/>
			</g>
		</g>
	</g>
	<g>
		<g>
			<g>
				<defs>
					<circle id="SVGID_3_" cx="259.927" cy="8.911" r="7.049"/>
				</defs>
				<clipPath id="SVGID_4_">
					<use xlink:href="#SVGID_3_"  overflow="visible"/>
				</clipPath>
				<path clip-path="url(#SVGID_4_)" fill="#E5241F" d="M254.272,1.63c0,4.8,0,9.601,0,14.401c0,0.098-0.004,0.196-0.006,0.293
					c-1.797,0-3.595-0.003-5.392,0.006c-0.144,0.001-0.159-0.053-0.159-0.218c0.004-4.83,0.003-9.66,0.003-14.49
					c0.065-0.068,0.143-0.048,0.216-0.048c1.709-0.001,3.418-0.001,5.126,0.001C254.132,1.574,254.212,1.545,254.272,1.63z"/>
			</g>
		</g>
	</g>
	<g>
		<g>
			<g>
				<defs>
					<circle id="SVGID_5_" cx="259.927" cy="8.911" r="7.049"/>
				</defs>
				<clipPath id="SVGID_6_">
					<use xlink:href="#SVGID_5_"  overflow="visible"/>
				</clipPath>
				<path clip-path="url(#SVGID_6_)" fill="#E5241F" d="M265.7,16.324c-0.002-0.098-0.006-0.196-0.006-0.293c0-4.8,0-9.601,0-14.401
					c0.054-0.08,0.127-0.056,0.193-0.056c1.709-0.002,3.417-0.001,5.126-0.001c0.068,0,0.138-0.015,0.198,0.048
					c0,4.836-0.001,9.671,0.004,14.507c0,0.168-0.025,0.201-0.154,0.201C269.274,16.322,267.487,16.324,265.7,16.324z"/>
			</g>
		</g>
	</g>
	<g>
		<g>
			<g>
				<defs>
					<circle id="SVGID_7_" cx="259.927" cy="8.911" r="7.049"/>
				</defs>
				<clipPath id="SVGID_8_">
					<use xlink:href="#SVGID_7_"  overflow="visible"/>
				</clipPath>
				<path clip-path="url(#SVGID_8_)" fill="#E5241F" d="M262.568,6.972c0.226,0.683,0.375,0.762,1.028,0.572
					c0.195-0.057,0.39-0.115,0.612-0.18c-0.106,0.348-0.224,0.667-0.286,1.002c-0.095,0.511-0.064,0.58,0.421,0.801
					c-0.472,0.396-0.938,0.788-1.406,1.18c-0.201,0.168-0.404,0.334-0.605,0.501c-0.209,0.174-0.235,0.292-0.122,0.537
					c0.069,0.15,0.137,0.301,0.217,0.474c-0.67-0.12-1.313-0.234-1.955-0.35c-0.247-0.045-0.32,0.01-0.312,0.266
					c0.02,0.617,0.043,1.234,0.075,1.851c0.008,0.16-0.015,0.232-0.201,0.22c-0.304-0.018-0.309-0.005-0.299-0.314
					c0.019-0.592,0.042-1.184,0.066-1.777c0.009-0.218-0.073-0.29-0.293-0.25c-0.649,0.117-1.298,0.233-1.977,0.355
					c0.08-0.169,0.147-0.313,0.215-0.458c0.123-0.263,0.096-0.374-0.134-0.566c-0.632-0.528-1.264-1.056-1.896-1.585
					c-0.032-0.027-0.063-0.055-0.095-0.084c0.014-0.016,0.021-0.031,0.03-0.033c0.408-0.117,0.477-0.231,0.404-0.673
					c-0.06-0.363-0.174-0.712-0.302-1.077c0.17,0.006,0.308,0.077,0.452,0.115c0.096,0.025,0.191,0.055,0.287,0.083
					c0.465,0.135,0.673,0.031,0.838-0.42c0.021-0.056,0.039-0.114,0.065-0.188c0.302,0.337,0.592,0.662,0.884,0.987
					c0.042,0.046,0.082,0.095,0.13,0.134c0.065,0.055,0.142,0.083,0.225,0.042c0.079-0.038,0.065-0.12,0.06-0.183
					c-0.029-0.399-0.138-0.784-0.21-1.176c-0.076-0.409-0.162-0.816-0.249-1.249c0.228,0.141,0.418,0.29,0.628,0.41
					c0.165,0.094,0.269,0.067,0.37-0.093c0.26-0.413,0.452-0.859,0.655-1.3c0.028-0.062,0.057-0.123,0.093-0.202
					c0.218,0.469,0.407,0.929,0.659,1.358c0.214,0.365,0.243,0.374,0.603,0.151c0.158-0.098,0.309-0.208,0.482-0.325
					c-0.144,0.728-0.283,1.436-0.426,2.144c-0.021,0.105-0.03,0.21-0.027,0.316c0.005,0.155,0.1,0.213,0.232,0.135
					c0.068-0.04,0.125-0.103,0.179-0.162C261.973,7.639,262.262,7.313,262.568,6.972z"/>
			</g>
		</g>
	</g>
</g>
<path fill="#010201" d="M283.596,4.476c1.06,0,1.901,0.494,2.431,1.053l-0.638,0.689c-0.476-0.481-1.046-0.793-1.779-0.793
	c-1.697,0-2.825,1.326-2.825,3.445c0,2.145,1.073,3.497,2.771,3.497c0.842,0,1.467-0.338,2.037-0.949l0.639,0.663
	c-0.692,0.78-1.575,1.234-2.703,1.234c-2.24,0-3.911-1.638-3.911-4.42C279.617,6.153,281.315,4.476,283.596,4.476z"/>
<path fill="#010201" d="M291.421,9.156c0-0.806-0.286-1.586-1.358-1.586c-0.774,0-1.453,0.338-1.969,0.677l-0.448-0.741
	c0.61-0.377,1.534-0.819,2.594-0.819c1.616,0,2.295,1.027,2.295,2.601v3.874h-0.924l-0.095-0.754h-0.027
	c-0.639,0.493-1.371,0.909-2.187,0.909c-1.113,0-1.941-0.662-1.941-1.794C287.361,10.144,288.61,9.455,291.421,9.156z
	 M289.615,12.458c0.639,0,1.168-0.299,1.807-0.845V9.858c-2.214,0.261-2.961,0.78-2.961,1.586
	C288.46,12.159,288.963,12.458,289.615,12.458z"/>
<path fill="#010201" d="M294.574,6.842h0.924l0.095,0.91h0.041c0.625-0.599,1.304-1.066,2.214-1.066c1.385,0,2.01,0.858,2.01,2.47
	v4.005h-1.113V9.299c0-1.184-0.381-1.69-1.25-1.69c-0.679,0-1.141,0.338-1.806,0.976v4.576h-1.114L294.574,6.842L294.574,6.842z"/>
<path fill="#010201" d="M305.672,9.156c0-0.806-0.285-1.586-1.358-1.586c-0.774,0-1.453,0.338-1.97,0.677l-0.447-0.741
	c0.61-0.377,1.534-0.819,2.594-0.819c1.616,0,2.295,1.027,2.295,2.601v3.874h-0.924l-0.095-0.754h-0.027
	c-0.639,0.493-1.371,0.909-2.187,0.909c-1.113,0-1.941-0.662-1.941-1.794C301.612,10.144,302.861,9.455,305.672,9.156z
	 M303.866,12.458c0.639,0,1.168-0.299,1.807-0.845V9.858c-2.214,0.261-2.961,0.78-2.961,1.586
	C302.711,12.159,303.213,12.458,303.866,12.458z"/>
<path fill="#010201" d="M311.214,6.686c0.761,0,1.263,0.273,1.847,0.729l-0.055-1.079V3.904h1.128v9.257h-0.924l-0.095-0.741h-0.041
	c-0.516,0.48-1.223,0.896-1.996,0.896c-1.657,0-2.729-1.195-2.729-3.302C308.349,7.96,309.706,6.686,311.214,6.686z M311.323,12.419
	c0.611,0,1.141-0.286,1.684-0.871V8.246c-0.557-0.481-1.059-0.663-1.602-0.663c-1.06,0-1.901,0.975-1.901,2.418
	C309.503,11.509,310.168,12.419,311.323,12.419z"/>
<path fill="#010201" d="M320.031,9.156c0-0.806-0.286-1.586-1.358-1.586c-0.774,0-1.453,0.338-1.969,0.677l-0.448-0.741
	c0.61-0.377,1.534-0.819,2.594-0.819c1.616,0,2.295,1.027,2.295,2.601v3.874h-0.924l-0.095-0.754h-0.027
	c-0.639,0.493-1.371,0.909-2.187,0.909c-1.113,0-1.941-0.662-1.941-1.794C315.97,10.144,317.219,9.455,320.031,9.156z
	 M318.224,12.458c0.639,0,1.168-0.299,1.807-0.845V9.858c-2.214,0.261-2.961,0.78-2.961,1.586
	C317.07,12.159,317.573,12.458,318.224,12.458z"/>
<circle fill="none" stroke="#010201" stroke-miterlimit="10" cx="259.927" cy="9.145" r="7.049"/>
</svg>
