<?xml version="1.0" encoding="utf-8"?>
<!-- Generator: Adobe Illustrator 17.0.0, SVG Export Plug-In . SVG Version: 6.00 Build 0)  -->
<!DOCTYPE svg PUBLIC "-//W3C//DTD SVG 1.1//EN" "http://www.w3.org/Graphics/SVG/1.1/DTD/svg11.dtd">
<svg version="1.1" id="Layer_1" xmlns="http://www.w3.org/2000/svg" xmlns:xlink="http://www.w3.org/1999/xlink" x="0px" y="0px"
	 width="600px" height="19.542px" viewBox="0 0 600 19.542" enable-background="new 0 0 600 19.542" xml:space="preserve">
<rect x="0" y="0" fill="#BF3160" width="600" height="19.542"/>
<line fill="none" stroke="#9F9F9F" stroke-width="0.7" stroke-miterlimit="10" stroke-dasharray="6,3" x1="199.426" y1="0" x2="199.426" y2="19.542"/>
<line fill="none" stroke="#9F9F9F" stroke-width="0.7" stroke-miterlimit="10" stroke-dasharray="6,3" x1="440.97" y1="0" x2="440.97" y2="19.542"/>
<g>
	<g>
		<g>
			<rect x="451.025" y="8.771" fill="#FFFCEE" width="11.79" height="2"/>
		</g>
		<g>
			<g>
				<circle fill="#FFFCEE" cx="462.691" cy="9.771" r="2.481"/>
			</g>
		</g>
	</g>
</g>
<path fill="#FFFCEE" d="M67.679,7.143c-0.503-0.441-0.924-0.688-1.575-0.688c-0.733,0-1.182,0.363-1.182,1.04
	c0,1.56,3.694,1.248,3.694,3.874c0,1.234-0.761,2.145-2.105,2.379v1.339h-1.086v-1.3c-0.829-0.078-1.738-0.442-2.35-0.988
	l0.706-1.014c0.638,0.48,1.276,0.806,2.01,0.806c0.883,0,1.317-0.416,1.317-1.118c0-1.716-3.694-1.469-3.694-3.913
	c0-1.209,0.788-2.067,2.011-2.275V3.958h1.086v1.3c0.869,0.104,1.467,0.507,1.969,1.014L67.679,7.143z"/>
<path fill="#FFFCEE" d="M78.151,11.523h-1.086v2.133h-1.467v-2.133h-3.816V10.51l3.423-5.122h1.86v4.979h1.086
	C78.151,10.367,78.151,11.523,78.151,11.523z M75.599,10.367V8.495c0-0.481,0.041-1.235,0.068-1.717h-0.055
	c-0.218,0.43-0.462,0.846-0.706,1.287l-1.575,2.302H75.599z"/>
<path fill="#FFFCEE" d="M78.711,9.482c0-2.795,1.141-4.251,2.934-4.251s2.934,1.47,2.934,4.251c0,2.796-1.141,4.329-2.934,4.329
	S78.711,12.278,78.711,9.482z M83.084,9.482c0-2.34-0.598-3.081-1.439-3.081c-0.828,0-1.439,0.741-1.439,3.081
	c0,2.341,0.611,3.159,1.439,3.159C82.486,12.642,83.084,11.823,83.084,9.482z"/>
<path fill="#FFFCEE" d="M90.256,7.078c-0.312-0.364-0.855-0.624-1.371-0.624c-1.087,0-1.97,0.767-2.037,3.055
	c0.502-0.611,1.249-0.975,1.874-0.975c1.494,0,2.525,0.832,2.525,2.561c0,1.651-1.235,2.717-2.716,2.717
	c-1.697,0-3.137-1.261-3.137-4.043c0-3.211,1.63-4.537,3.395-4.537c1.046,0,1.793,0.416,2.31,0.937L90.256,7.078z M89.794,11.095
	c0-0.975-0.502-1.469-1.357-1.469c-0.489,0-1.06,0.26-1.548,0.949c0.162,1.469,0.773,2.093,1.615,2.093
	C89.224,12.668,89.794,12.109,89.794,11.095z"/>
<path fill="#FFFCEE" d="M91.942,12.785c2.404-2.224,3.911-3.68,3.911-4.94c0-0.871-0.502-1.43-1.426-1.43
	c-0.665,0-1.222,0.429-1.684,0.923l-0.869-0.832c0.787-0.807,1.575-1.274,2.757-1.274c1.656,0,2.729,1.001,2.729,2.535
	c0,1.469-1.426,2.978-3.137,4.706c0.448-0.039,1.019-0.091,1.439-0.091h2.118v1.274h-5.84v-0.871H91.942z"/>
<path fill="#FFFCEE" d="M99.129,11.68c0.516,0.507,1.181,0.91,2.05,0.91c0.938,0,1.589-0.468,1.589-1.248
	c0-0.858-0.57-1.404-2.539-1.404V8.846c1.697,0,2.254-0.559,2.254-1.326c0-0.688-0.488-1.104-1.276-1.104
	c-0.679,0-1.208,0.312-1.738,0.779l-0.801-0.923c0.733-0.624,1.562-1.04,2.594-1.04c1.656,0,2.798,0.78,2.798,2.185
	c0,0.923-0.571,1.547-1.508,1.897v0.053c1.019,0.26,1.793,0.962,1.793,2.054c0,1.508-1.372,2.392-3.028,2.392
	c-1.399,0-2.322-0.52-2.934-1.17L99.129,11.68z"/>
<path fill="#FFFCEE" d="M105.323,15.203c0.869-0.325,1.371-0.91,1.371-1.573c-0.041,0-0.081,0-0.122,0
	c-0.529,0-1.005-0.338-1.005-0.923c0-0.56,0.476-0.923,1.046-0.923c0.733,0,1.168,0.571,1.168,1.534
	c0,1.273-0.774,2.262-2.119,2.704L105.323,15.203z"/>
<path fill="#FFFCEE" d="M110.199,9.418V9.366c-0.665-0.455-1.194-1.066-1.194-1.937c0-1.339,1.113-2.197,2.607-2.197
	c1.548,0,2.539,0.897,2.539,2.236c0,0.819-0.598,1.508-1.154,1.898v0.052c0.802,0.429,1.494,1.04,1.494,2.145
	c0,1.274-1.168,2.249-2.92,2.249c-1.684,0-2.934-0.936-2.934-2.274C108.638,10.51,109.385,9.834,110.199,9.418z M111.599,12.746
	c0.828,0,1.426-0.468,1.426-1.235c0-0.896-0.91-1.222-2.078-1.677c-0.543,0.377-0.937,0.91-0.937,1.547
	C110.01,12.2,110.716,12.746,111.599,12.746z M112.861,7.559c0-0.728-0.476-1.261-1.276-1.261c-0.666,0-1.182,0.416-1.182,1.131
	c0,0.832,0.774,1.196,1.738,1.561C112.604,8.547,112.861,8.079,112.861,7.559z"/>
<path fill="#FFFCEE" d="M119.396,6.648h-4.088v-1.26h5.799v0.91c-2.023,2.405-2.377,4.134-2.526,7.358h-1.589
	C117.141,10.718,117.725,8.872,119.396,6.648z"/>
<path fill="#FFFCEE" d="M126.337,14.176v2.002h-1.562V7.273h1.29l0.109,0.677h0.054c0.557-0.455,1.276-0.832,2.01-0.832
	c1.657,0,2.621,1.273,2.621,3.25c0,2.184-1.371,3.444-2.852,3.444c-0.584,0-1.168-0.26-1.711-0.701L126.337,14.176z M127.682,12.577
	c0.883,0,1.562-0.754,1.562-2.197c0-1.274-0.435-2.028-1.439-2.028c-0.488,0-0.95,0.234-1.467,0.715v2.978
	C126.826,12.434,127.288,12.577,127.682,12.577z"/>
<path fill="#FFFCEE" d="M134.434,4.426h1.06l-3.164,11.311h-1.06L134.434,4.426z"/>
<path fill="#FFFCEE" d="M139.012,7.117c0.855,0,1.508,0.324,1.956,0.74l-0.747,0.949c-0.354-0.299-0.706-0.468-1.127-0.468
	c-1.073,0-1.82,0.845-1.82,2.132c0,1.274,0.733,2.119,1.779,2.119c0.543,0,1.005-0.26,1.371-0.546l0.652,0.949
	c-0.625,0.533-1.426,0.818-2.187,0.818c-1.82,0-3.219-1.222-3.219-3.341C135.671,8.339,137.233,7.117,139.012,7.117z"/>
<circle fill="none" stroke="#FFFCEE" stroke-miterlimit="10" cx="259.817" cy="9.641" r="7.049"/>
<path fill="#FFFCEE" d="M283.677,5.023c1.1,0,2.023,0.521,2.621,1.105l-1.101,1.184c-0.448-0.391-0.869-0.638-1.494-0.638
	c-1.235,0-2.199,1.027-2.199,2.73c0,1.741,0.855,2.756,2.146,2.756c0.733,0,1.249-0.299,1.684-0.754l1.101,1.157
	c-0.733,0.818-1.712,1.248-2.812,1.248c-2.295,0-4.169-1.495-4.169-4.342C279.453,6.662,281.395,5.023,283.677,5.023z"/>
<path fill="#FFFCEE" d="M291.08,9.51c-0.04-0.572-0.339-0.937-1.059-0.937c-0.57,0-1.141,0.221-1.793,0.585l-0.706-1.262
	c0.855-0.494,1.819-0.844,2.879-0.844c1.725,0,2.676,0.936,2.676,2.912v3.691h-1.63l-0.149-0.663h-0.041
	c-0.57,0.481-1.208,0.819-1.969,0.819c-1.223,0-1.996-0.858-1.996-1.95C287.292,10.51,288.419,9.77,291.08,9.51z M289.967,12.33
	c0.462,0,0.761-0.208,1.113-0.546v-1.131c-1.426,0.182-1.888,0.571-1.888,1.065C289.193,12.135,289.491,12.33,289.967,12.33z"/>
<path fill="#FFFCEE" d="M294.723,7.208h1.63l0.136,0.819h0.054c0.57-0.521,1.25-0.975,2.159-0.975c1.467,0,2.092,0.987,2.092,2.6
	v4.004h-1.996V9.898c0-0.936-0.258-1.221-0.828-1.221c-0.503,0-0.815,0.221-1.25,0.623v4.355h-1.996L294.723,7.208L294.723,7.208z"
	/>
<path fill="#FFFCEE" d="M305.969,9.51c-0.04-0.572-0.339-0.937-1.059-0.937c-0.57,0-1.141,0.221-1.793,0.585l-0.706-1.262
	c0.855-0.494,1.819-0.844,2.879-0.844c1.725,0,2.676,0.936,2.676,2.912v3.691h-1.63l-0.149-0.663h-0.041
	c-0.57,0.481-1.208,0.819-1.969,0.819c-1.223,0-1.996-0.858-1.996-1.95C302.181,10.51,303.308,9.77,305.969,9.51z M304.856,12.33
	c0.462,0,0.761-0.208,1.113-0.546v-1.131c-1.426,0.182-1.888,0.571-1.888,1.065C304.081,12.135,304.38,12.33,304.856,12.33z"/>
<path fill="#FFFCEE" d="M312.056,7.053c0.747,0,1.195,0.26,1.657,0.676l-0.082-0.988V4.543h1.996v9.113h-1.629l-0.136-0.637h-0.055
	c-0.476,0.455-1.141,0.793-1.793,0.793c-1.67,0-2.757-1.274-2.757-3.381C309.258,8.326,310.63,7.053,312.056,7.053z M312.531,12.252
	c0.435,0,0.773-0.156,1.1-0.585v-2.64c-0.353-0.311-0.747-0.416-1.113-0.416c-0.639,0-1.209,0.572-1.209,1.795
	C311.309,11.68,311.757,12.252,312.531,12.252z"/>
<path fill="#FFFCEE" d="M320.871,9.51c-0.04-0.572-0.339-0.937-1.059-0.937c-0.57,0-1.141,0.221-1.793,0.585l-0.706-1.262
	c0.855-0.494,1.819-0.844,2.879-0.844c1.725,0,2.676,0.936,2.676,2.912v3.691h-1.63l-0.149-0.663h-0.041
	c-0.57,0.481-1.208,0.819-1.969,0.819c-1.223,0-1.996-0.858-1.996-1.95C317.083,10.51,318.21,9.77,320.871,9.51z M319.758,12.33
	c0.462,0,0.761-0.208,1.113-0.546v-1.131c-1.426,0.182-1.888,0.571-1.888,1.065C318.984,12.135,319.282,12.33,319.758,12.33z"/>
<path fill="#C0305F" d="M224.571,12.109h1.874V7.338h-1.615V6.154c0.937-0.168,1.534-0.402,2.146-0.754h1.467v6.709h1.616v1.547
	h-5.487L224.571,12.109L224.571,12.109z"/>
<g>
	<g>
		<g>
			<g>
				<defs>
					<circle id="SVGID_1_" cx="259.817" cy="9.407" r="7.049"/>
				</defs>
				<clipPath id="SVGID_2_">
					<use xlink:href="#SVGID_1_"  overflow="visible"/>
				</clipPath>
				<path clip-path="url(#SVGID_2_)" fill="#FFFFFF" d="M265.59,16.82c-3.811,0-7.623,0-11.434,0
					c-0.084-0.134-0.06-0.295-0.06-0.447c-0.001-2.62-0.001-5.24-0.001-7.86c0-1.991,0-3.983,0.001-5.974
					c0-0.145-0.019-0.296,0.049-0.428c0.067-0.062,0.145-0.041,0.218-0.041c3.671-0.001,7.342-0.001,11.013,0
					c0.074,0,0.151-0.019,0.22,0.034c0.078,0.137,0.055,0.298,0.055,0.45c0.001,3.177,0.001,6.354,0.001,9.531
					c0,1.437,0.001,2.875-0.001,4.312C265.651,16.542,265.671,16.694,265.59,16.82z"/>
			</g>
		</g>
	</g>
	<g>
		<g>
			<g>
				<defs>
					<circle id="SVGID_3_" cx="259.817" cy="9.407" r="7.049"/>
				</defs>
				<clipPath id="SVGID_4_">
					<use xlink:href="#SVGID_3_"  overflow="visible"/>
				</clipPath>
				<path clip-path="url(#SVGID_4_)" fill="#E5241F" d="M254.162,2.126c0,4.8,0,9.601,0,14.401c0,0.098-0.004,0.196-0.006,0.293
					c-1.797,0-3.595-0.003-5.392,0.006c-0.144,0.001-0.159-0.053-0.159-0.218c0.004-4.83,0.003-9.66,0.003-14.49
					c0.065-0.068,0.143-0.048,0.216-0.048c1.709-0.001,3.418-0.001,5.126,0.001C254.023,2.071,254.102,2.041,254.162,2.126z"/>
			</g>
		</g>
	</g>
	<g>
		<g>
			<g>
				<defs>
					<circle id="SVGID_5_" cx="259.817" cy="9.407" r="7.049"/>
				</defs>
				<clipPath id="SVGID_6_">
					<use xlink:href="#SVGID_5_"  overflow="visible"/>
				</clipPath>
				<path clip-path="url(#SVGID_6_)" fill="#E5241F" d="M265.59,16.82c-0.002-0.098-0.006-0.196-0.006-0.293c0-4.8,0-9.601,0-14.401
					c0.054-0.08,0.127-0.056,0.193-0.056c1.709-0.002,3.417-0.001,5.126-0.001c0.068,0,0.138-0.015,0.198,0.048
					c0,4.836-0.001,9.671,0.004,14.507c0,0.168-0.025,0.201-0.154,0.201C269.164,16.818,267.377,16.82,265.59,16.82z"/>
			</g>
		</g>
	</g>
	<g>
		<g>
			<g>
				<defs>
					<circle id="SVGID_7_" cx="259.817" cy="9.407" r="7.049"/>
				</defs>
				<clipPath id="SVGID_8_">
					<use xlink:href="#SVGID_7_"  overflow="visible"/>
				</clipPath>
				<path clip-path="url(#SVGID_8_)" fill="#E5241F" d="M262.458,7.468c0.226,0.683,0.375,0.762,1.028,0.572
					c0.195-0.057,0.39-0.115,0.612-0.18c-0.106,0.348-0.224,0.667-0.286,1.002c-0.095,0.511-0.064,0.58,0.421,0.801
					c-0.472,0.396-0.938,0.788-1.406,1.18c-0.201,0.168-0.404,0.334-0.605,0.501c-0.209,0.174-0.235,0.292-0.122,0.537
					c0.069,0.15,0.137,0.301,0.217,0.474c-0.67-0.12-1.313-0.234-1.955-0.35c-0.247-0.045-0.32,0.01-0.312,0.266
					c0.02,0.617,0.043,1.234,0.075,1.851c0.008,0.16-0.015,0.232-0.201,0.22c-0.304-0.018-0.309-0.005-0.299-0.314
					c0.019-0.592,0.042-1.184,0.066-1.777c0.009-0.218-0.073-0.29-0.293-0.25c-0.649,0.117-1.298,0.233-1.977,0.355
					c0.08-0.169,0.147-0.313,0.215-0.458c0.123-0.263,0.096-0.374-0.134-0.566c-0.632-0.528-1.264-1.056-1.896-1.585
					c-0.032-0.027-0.063-0.055-0.095-0.084c0.014-0.016,0.021-0.031,0.03-0.033c0.408-0.117,0.477-0.231,0.404-0.673
					c-0.06-0.363-0.174-0.712-0.302-1.077c0.17,0.006,0.308,0.077,0.452,0.115c0.096,0.025,0.191,0.055,0.287,0.083
					c0.465,0.135,0.673,0.031,0.838-0.42c0.021-0.056,0.039-0.114,0.065-0.188c0.302,0.337,0.592,0.662,0.884,0.987
					c0.042,0.046,0.082,0.095,0.13,0.134c0.065,0.055,0.142,0.083,0.225,0.042c0.079-0.038,0.065-0.12,0.06-0.183
					c-0.029-0.399-0.138-0.784-0.21-1.176c-0.076-0.409-0.162-0.816-0.249-1.249c0.228,0.141,0.418,0.29,0.628,0.41
					c0.165,0.094,0.269,0.067,0.37-0.093c0.26-0.413,0.452-0.859,0.655-1.3c0.028-0.062,0.057-0.123,0.093-0.202
					c0.218,0.469,0.407,0.929,0.659,1.358c0.214,0.365,0.243,0.374,0.603,0.151c0.158-0.098,0.309-0.208,0.482-0.325
					c-0.144,0.728-0.283,1.436-0.426,2.144c-0.021,0.105-0.03,0.21-0.027,0.316c0.005,0.155,0.1,0.213,0.232,0.135
					c0.068-0.04,0.125-0.103,0.179-0.162C261.863,8.135,262.153,7.809,262.458,7.468z"/>
			</g>
		</g>
	</g>
</g>
<circle fill="none" stroke="#FFFCEE" stroke-miterlimit="10" cx="259.817" cy="9.641" r="7.049"/>
<g>
	<path fill="#FFFCEE" d="M473.346,12.435h1.929V7h-1.589V6.064c0.855-0.156,1.453-0.364,1.996-0.677h1.168v7.047h1.697v1.222h-5.201
		V12.435z"/>
	<path fill="#FFFCEE" d="M479.608,15.203c0.869-0.325,1.371-0.91,1.371-1.573c-0.041,0-0.081,0-0.122,0
		c-0.529,0-1.005-0.338-1.005-0.923c0-0.559,0.476-0.923,1.046-0.923c0.733,0,1.168,0.572,1.168,1.534
		c0,1.273-0.774,2.262-2.119,2.704L479.608,15.203z"/>
	<path fill="#FFFCEE" d="M482.882,12.785c2.404-2.223,3.911-3.679,3.911-4.94c0-0.871-0.502-1.43-1.426-1.43
		c-0.665,0-1.222,0.429-1.684,0.923l-0.869-0.832c0.787-0.806,1.575-1.273,2.757-1.273c1.656,0,2.729,1.001,2.729,2.534
		c0,1.47-1.426,2.978-3.137,4.707c0.448-0.039,1.019-0.092,1.439-0.092h2.118v1.274h-5.84v-0.871
		C482.88,12.785,482.882,12.785,482.882,12.785z"/>
	<path fill="#FFFCEE" d="M495.608,11.524h-1.086v2.132h-1.467v-2.132h-3.816V10.51l3.423-5.122h1.86v4.979h1.086L495.608,11.524
		L495.608,11.524z M493.055,10.367V8.495c0-0.481,0.041-1.235,0.068-1.716h-0.055c-0.218,0.429-0.462,0.845-0.706,1.287
		l-1.575,2.301C490.787,10.367,493.055,10.367,493.055,10.367z"/>
</g>
</svg>
