<?xml version="1.0" encoding="utf-8"?>
<!-- Generator: Adobe Illustrator 17.0.0, SVG Export Plug-In . SVG Version: 6.00 Build 0)  -->
<!DOCTYPE svg PUBLIC "-//W3C//DTD SVG 1.1//EN" "http://www.w3.org/Graphics/SVG/1.1/DTD/svg11.dtd">
<svg version="1.1" id="Layer_1" xmlns="http://www.w3.org/2000/svg" xmlns:xlink="http://www.w3.org/1999/xlink" x="0px" y="0px"
	 width="600px" height="19.542px" viewBox="0 0 600 19.542" enable-background="new 0 0 600 19.542" xml:space="preserve">
<rect x="151.157" y="2.936" fill="#EC6554" width="40.971" height="14.097"/>
<g>
	<rect x="448.356" y="8.985" fill="#EC6554" width="36.548" height="2"/>
</g>
<g>
	<g>
		<circle fill="#EC6554" cx="484.779" cy="9.985" r="2.482"/>
	</g>
</g>
<rect x="0" y="0" fill="none" width="600" height="19.542"/>
<line fill="none" stroke="#9F9F9F" stroke-width="0.7" stroke-miterlimit="10" stroke-dasharray="6,3" x1="199.426" y1="-0.001" x2="199.426" y2="18.895"/>
<line fill="none" stroke="#9F9F9F" stroke-width="0.7" stroke-miterlimit="10" stroke-dasharray="6,3" x1="440.97" y1="-0.001" x2="440.97" y2="18.895"/>
<g>
	<g>
		<g>
			<defs>
				<circle id="SVGID_1_" cx="259.927" cy="9.985" r="7.158"/>
			</defs>
			<clipPath id="SVGID_2_">
				<use xlink:href="#SVGID_1_"  overflow="visible"/>
			</clipPath>
			<g id="NUPnsk_1_" clip-path="url(#SVGID_2_)">
				<g>
					<g>
						<path fill="#44A5DD" d="M259.978,17.437c-4.994,0-9.989-0.001-14.983,0.004c-0.162,0-0.212-0.018-0.211-0.2
							c0.007-4.936,0.006-9.872,0.001-14.807c0-0.166,0.048-0.188,0.197-0.188c9.997,0.004,19.994,0.004,29.992-0.002
							c0.188,0,0.197,0.059,0.197,0.214c-0.004,4.927-0.005,9.855,0.002,14.782c0,0.179-0.045,0.202-0.21,0.202
							C269.967,17.436,264.972,17.437,259.978,17.437z"/>
						<path fill="#EED361" d="M265.258,15.633c0.013,0.034,0.064,0.08,0.003,0.1s-0.132,0.012-0.199,0.012
							c-3.391,0-6.781,0.001-10.171-0.001c-0.078,0-0.182,0.044-0.231-0.04c-0.039-0.067,0.056-0.108,0.089-0.162
							c0.137-0.309,0.405-0.516,0.609-0.772c0.123-0.154,0.249-0.306,0.366-0.465c0.054-0.044,0.114-0.08,0.161-0.132
							c1.027-1.204,2.073-2.391,3.105-3.592c0.284-0.33,0.557-0.67,0.862-0.981c0.172-0.176,0.237-0.181,0.399,0.013
							c0.455,0.548,0.915,1.091,1.373,1.636c0.851,1.013,1.705,2.024,2.557,3.036C264.537,14.738,264.959,15.136,265.258,15.633z"/>
						<path fill="#FFFFFF" d="M255.755,14.332c-0.277,0.452-0.655,0.82-1.006,1.211c-0.067-0.082,0.01-0.141,0.038-0.202
							c1.608-3.57,3.218-7.14,4.828-10.71c0.137-0.303,0.273-0.606,0.429-0.953c0.285,0.65,0.551,1.253,0.815,1.856
							c1.442,3.296,2.883,6.592,4.324,9.889c0.03,0.068,0.05,0.141,0.075,0.211c-0.37-0.436-0.74-0.872-1.109-1.309
							c-0.364-0.633-0.637-1.31-0.941-1.972c-0.489-1.066-0.974-2.134-1.462-3.201c-0.564-1.234-1.121-2.472-1.695-3.702
							c-0.032-0.068-0.058-0.139-0.08-0.235c-0.297,0.652-0.584,1.289-0.875,1.924c-0.503,1.096-1.003,2.194-1.503,3.292
							c-0.566,1.243-1.135,2.484-1.698,3.728C255.858,14.224,255.805,14.276,255.755,14.332z"/>
						<path fill="#010202" d="M255.845,14.15c0.4-0.888,0.796-1.777,1.199-2.663c0.965-2.121,1.934-4.241,2.918-6.397
							c0.251,0.55,0.489,1.072,0.727,1.593c1.132,2.477,2.264,4.954,3.394,7.432c0.03,0.066,0.086,0.127,0.066,0.21
							c-0.747-0.88-1.495-1.76-2.24-2.642c-0.573-0.678-1.144-1.357-1.709-2.041c-0.115-0.14-0.172-0.167-0.309-0.007
							c-1.292,1.505-2.595,3.002-3.895,4.501c-0.027,0.031-0.06,0.057-0.09,0.085C255.852,14.227,255.819,14.214,255.845,14.15z"/>
						<path fill="#22211D" d="M255.845,14.15c0.021,0.024,0.041,0.047,0.062,0.071c-0.028,0.067-0.072,0.114-0.151,0.111
							C255.766,14.262,255.789,14.197,255.845,14.15z"/>
					</g>
				</g>
			</g>
		</g>
	</g>
</g>
<path fill="#010201" d="M280.174,12.228c0.638,0.637,1.521,1.066,2.458,1.066c1.168,0,1.86-0.56,1.86-1.392
	c0-0.871-0.652-1.144-1.494-1.508l-1.276-0.533c-0.828-0.338-1.807-0.949-1.807-2.197c0-1.3,1.195-2.262,2.812-2.262
	c1.06,0,1.996,0.429,2.621,1.053l-0.598,0.702c-0.543-0.494-1.209-0.806-2.023-0.806c-1.005,0-1.671,0.48-1.671,1.248
	c0,0.818,0.788,1.131,1.48,1.417l1.276,0.52c1.032,0.43,1.834,1.015,1.834,2.275c0,1.353-1.168,2.431-3.042,2.431
	c-1.25,0-2.336-0.493-3.11-1.261L280.174,12.228z"/>
<path fill="#010201" d="M287.767,12.605c0.435,0,0.802,0.338,0.802,0.832c0,0.468-0.367,0.806-0.802,0.806
	c-0.448,0-0.814-0.338-0.814-0.806C286.953,12.943,287.319,12.605,287.767,12.605z"/>
<path fill="#010201" d="M290.566,5.559h1.141v7.605h3.884v0.923h-5.024V5.559H290.566z"/>
<path fill="#010201" d="M296.734,7.769h1.127v3.861c0,1.183,0.367,1.689,1.236,1.689c0.679,0,1.154-0.325,1.778-1.065V7.769h1.114
	v6.318h-0.924l-0.095-0.988h-0.041c-0.611,0.689-1.263,1.144-2.173,1.144c-1.398,0-2.023-0.857-2.023-2.47L296.734,7.769
	L296.734,7.769z"/>
<path fill="#010201" d="M306.84,7.613c0.869,0,1.48,0.352,1.928,0.754l-0.557,0.689c-0.394-0.325-0.801-0.56-1.331-0.56
	c-1.194,0-2.063,0.988-2.063,2.444c0,1.443,0.828,2.418,2.037,2.418c0.624,0,1.154-0.299,1.548-0.637l0.503,0.702
	c-0.598,0.507-1.358,0.818-2.146,0.818c-1.752,0-3.096-1.209-3.096-3.302C303.662,8.822,305.142,7.613,306.84,7.613z"/>
<path fill="#010201" d="M310.075,5.78c0-0.416,0.339-0.689,0.773-0.689s0.774,0.273,0.774,0.689c0,0.403-0.34,0.689-0.774,0.689
	S310.075,6.183,310.075,5.78z M310.278,7.769h1.114v6.318h-1.114V7.769z"/>
<path fill="#010201" d="M317.286,10.082c0-0.806-0.286-1.586-1.358-1.586c-0.774,0-1.453,0.338-1.969,0.677l-0.448-0.741
	c0.61-0.377,1.534-0.819,2.594-0.819c1.616,0,2.295,1.027,2.295,2.601v3.874h-0.924l-0.095-0.754h-0.027
	c-0.639,0.493-1.371,0.909-2.187,0.909c-1.113,0-1.941-0.662-1.941-1.794C313.226,11.071,314.475,10.382,317.286,10.082z
	 M315.48,13.385c0.639,0,1.168-0.299,1.807-0.845v-1.756c-2.214,0.261-2.961,0.78-2.961,1.586
	C314.326,13.086,314.828,13.385,315.48,13.385z"/>
<circle fill="none" stroke="#010201" stroke-miterlimit="10" cx="259.927" cy="9.985" r="7.049"/>
</svg>
