<?xml version="1.0" encoding="utf-8"?>
<!-- Generator: Adobe Illustrator 17.0.0, SVG Export Plug-In . SVG Version: 6.00 Build 0)  -->
<!DOCTYPE svg PUBLIC "-//W3C//DTD SVG 1.1//EN" "http://www.w3.org/Graphics/SVG/1.1/DTD/svg11.dtd">
<svg version="1.1" id="Layer_1" xmlns="http://www.w3.org/2000/svg" xmlns:xlink="http://www.w3.org/1999/xlink" x="0px" y="0px"
	 width="600px" height="19.542px" viewBox="0 0 600 19.542" enable-background="new 0 0 600 19.542" xml:space="preserve">
<rect x="0" y="0" fill="#EC6554" width="600" height="19.542"/>
<line fill="none" stroke="#9F9F9F" stroke-width="0.7" stroke-miterlimit="10" stroke-dasharray="6,3" x1="199.426" y1="-0.001" x2="199.426" y2="18.895"/>
<line fill="none" stroke="#9F9F9F" stroke-width="0.7" stroke-miterlimit="10" stroke-dasharray="6,3" x1="440.97" y1="-0.001" x2="440.97" y2="18.895"/>
<g>
	<g>
		<g>
			<rect x="451.885" y="8.985" fill="#FFFCEE" width="36.548" height="2"/>
		</g>
		<g>
			<g>
				<circle fill="#FFFCEE" cx="488.309" cy="9.985" r="2.481"/>
			</g>
		</g>
	</g>
</g>
<path fill="#FFFCEE" d="M67.679,7.573c-0.503-0.441-0.924-0.688-1.575-0.688c-0.733,0-1.182,0.363-1.182,1.04
	c0,1.56,3.694,1.248,3.694,3.874c0,1.234-0.761,2.145-2.105,2.379v1.339h-1.086v-1.3c-0.829-0.078-1.738-0.442-2.35-0.988
	l0.706-1.014c0.638,0.48,1.276,0.806,2.01,0.806c0.883,0,1.317-0.416,1.317-1.118c0-1.716-3.694-1.469-3.694-3.913
	c0-1.209,0.788-2.067,2.011-2.275V4.389h1.086v1.3c0.869,0.104,1.467,0.507,1.969,1.014L67.679,7.573z"/>
<path fill="#FFFCEE" d="M72.543,12.864h1.929V7.431h-1.589V6.494c0.855-0.156,1.453-0.364,1.996-0.676h1.168v7.046h1.697v1.223
	h-5.201V12.864z"/>
<path fill="#FFFCEE" d="M78.711,9.913c0-2.795,1.141-4.251,2.934-4.251s2.934,1.47,2.934,4.251c0,2.796-1.141,4.329-2.934,4.329
	S78.711,12.709,78.711,9.913z M83.084,9.913c0-2.34-0.598-3.081-1.439-3.081c-0.828,0-1.439,0.741-1.439,3.081
	c0,2.341,0.611,3.159,1.439,3.159C82.486,13.072,83.084,12.254,83.084,9.913z"/>
<path fill="#FFFCEE" d="M90.256,7.509c-0.312-0.364-0.855-0.624-1.371-0.624c-1.087,0-1.97,0.767-2.037,3.055
	c0.502-0.611,1.249-0.975,1.874-0.975c1.494,0,2.525,0.832,2.525,2.561c0,1.651-1.235,2.717-2.716,2.717
	c-1.697,0-3.137-1.261-3.137-4.043c0-3.211,1.63-4.537,3.395-4.537c1.046,0,1.793,0.416,2.31,0.937L90.256,7.509z M89.794,11.525
	c0-0.975-0.502-1.469-1.357-1.469c-0.489,0-1.06,0.26-1.548,0.949c0.162,1.469,0.773,2.093,1.615,2.093
	C89.224,13.099,89.794,12.54,89.794,11.525z"/>
<path fill="#FFFCEE" d="M91.969,9.913c0-2.795,1.141-4.251,2.934-4.251s2.934,1.47,2.934,4.251c0,2.796-1.141,4.329-2.934,4.329
	S91.969,12.709,91.969,9.913z M96.342,9.913c0-2.34-0.598-3.081-1.439-3.081c-0.828,0-1.439,0.741-1.439,3.081
	c0,2.341,0.611,3.159,1.439,3.159C95.744,13.072,96.342,12.254,96.342,9.913z"/>
<path fill="#FFFCEE" d="M99.129,12.11c0.516,0.507,1.181,0.91,2.05,0.91c0.938,0,1.589-0.468,1.589-1.248
	c0-0.858-0.57-1.404-2.539-1.404V9.276c1.697,0,2.254-0.559,2.254-1.326c0-0.688-0.488-1.104-1.276-1.104
	c-0.679,0-1.208,0.312-1.738,0.779l-0.801-0.923c0.733-0.624,1.562-1.04,2.594-1.04c1.656,0,2.798,0.78,2.798,2.185
	c0,0.923-0.571,1.547-1.508,1.897v0.053c1.019,0.26,1.793,0.962,1.793,2.054c0,1.508-1.372,2.392-3.028,2.392
	c-1.399,0-2.322-0.52-2.934-1.17L99.129,12.11z"/>
<path fill="#FFFCEE" d="M105.323,15.634c0.869-0.325,1.371-0.91,1.371-1.573c-0.041,0-0.081,0-0.122,0
	c-0.529,0-1.005-0.338-1.005-0.923c0-0.56,0.476-0.923,1.046-0.923c0.733,0,1.168,0.571,1.168,1.534
	c0,1.273-0.774,2.262-2.119,2.704L105.323,15.634z"/>
<path fill="#FFFCEE" d="M108.624,9.913c0-2.795,1.141-4.251,2.934-4.251s2.934,1.47,2.934,4.251c0,2.796-1.141,4.329-2.934,4.329
	S108.624,12.709,108.624,9.913z M112.997,9.913c0-2.34-0.598-3.081-1.439-3.081c-0.828,0-1.439,0.741-1.439,3.081
	c0,2.341,0.611,3.159,1.439,3.159C112.4,13.072,112.997,12.254,112.997,9.913z"/>
<path fill="#FFFCEE" d="M115.253,9.913c0-2.795,1.141-4.251,2.934-4.251s2.934,1.47,2.934,4.251c0,2.796-1.141,4.329-2.934,4.329
	S115.253,12.709,115.253,9.913z M119.626,9.913c0-2.34-0.598-3.081-1.439-3.081c-0.828,0-1.439,0.741-1.439,3.081
	c0,2.341,0.611,3.159,1.439,3.159C119.028,13.072,119.626,12.254,119.626,9.913z"/>
<path fill="#FFFCEE" d="M126.337,14.607v2.002h-1.562V7.703h1.29l0.109,0.677h0.054c0.557-0.455,1.276-0.832,2.01-0.832
	c1.657,0,2.621,1.273,2.621,3.25c0,2.184-1.371,3.444-2.852,3.444c-0.584,0-1.168-0.26-1.711-0.701L126.337,14.607z M127.682,13.008
	c0.883,0,1.562-0.754,1.562-2.197c0-1.274-0.435-2.028-1.439-2.028c-0.488,0-0.95,0.234-1.467,0.715v2.978
	C126.826,12.864,127.288,13.008,127.682,13.008z"/>
<path fill="#FFFCEE" d="M134.434,4.857h1.06l-3.164,11.311h-1.06L134.434,4.857z"/>
<path fill="#FFFCEE" d="M139.012,7.548c0.855,0,1.508,0.324,1.956,0.74l-0.747,0.949c-0.354-0.299-0.706-0.468-1.127-0.468
	c-1.073,0-1.82,0.845-1.82,2.132c0,1.274,0.733,2.119,1.779,2.119c0.543,0,1.005-0.26,1.371-0.546l0.652,0.949
	c-0.625,0.533-1.426,0.818-2.187,0.818c-1.82,0-3.219-1.222-3.219-3.341C135.671,8.77,137.233,7.548,139.012,7.548z"/>
<circle fill="none" stroke="#FFFCEE" stroke-miterlimit="10" cx="259.817" cy="9.985" r="7.049"/>
<path fill="#FFFCEE" d="M280.458,11.708c0.625,0.52,1.439,0.884,2.173,0.884c0.828,0,1.235-0.312,1.235-0.819
	c0-0.533-0.502-0.701-1.276-1.014l-1.141-0.469c-0.924-0.35-1.793-1.078-1.793-2.313c0-1.403,1.317-2.522,3.151-2.522
	c1.019,0,2.091,0.391,2.852,1.119l-1.005,1.209c-0.584-0.43-1.141-0.677-1.847-0.677c-0.68,0-1.128,0.286-1.128,0.767
	c0,0.521,0.584,0.703,1.358,1.002l1.127,0.441c1.073,0.416,1.752,1.105,1.752,2.301c0,1.404-1.222,2.627-3.327,2.627
	c-1.154,0-2.376-0.416-3.286-1.223L280.458,11.708z"/>
<path fill="#FFFCEE" d="M288.337,11.838c0.692,0,1.209,0.521,1.209,1.209c0,0.677-0.517,1.196-1.209,1.196s-1.209-0.52-1.209-1.196
	C287.128,12.358,287.645,11.838,288.337,11.838z"/>
<path fill="#FFFCEE" d="M291.34,5.61h2.01v6.865h3.49v1.611h-5.5V5.61z"/>
<path fill="#FFFCEE" d="M297.928,7.639h1.997v3.757c0,0.924,0.258,1.223,0.842,1.223c0.502,0,0.801-0.209,1.195-0.715V7.639h1.996
	v6.448h-1.63l-0.149-0.896h-0.041c-0.57,0.649-1.194,1.053-2.118,1.053c-1.467,0-2.092-0.988-2.092-2.6L297.928,7.639L297.928,7.639
	z"/>
<path fill="#FFFCEE" d="M308.754,7.483c0.829,0,1.521,0.299,1.97,0.74l-0.91,1.184c-0.326-0.26-0.625-0.377-0.937-0.377
	c-0.965,0-1.576,0.715-1.576,1.832c0,1.119,0.639,1.834,1.508,1.834c0.489,0,0.883-0.221,1.209-0.469l0.801,1.209
	c-0.651,0.547-1.507,0.807-2.24,0.807c-1.874,0-3.327-1.235-3.327-3.381C305.251,8.718,306.894,7.483,308.754,7.483z"/>
<path fill="#FFFCEE" d="M311.758,5.689c0-0.585,0.489-0.988,1.154-0.988c0.679,0,1.154,0.403,1.154,0.988s-0.476,1.001-1.154,1.001
	C312.247,6.69,311.758,6.274,311.758,5.689z M311.921,7.639h1.996v6.448h-1.996V7.639z"/>
<path fill="#FFFCEE" d="M319.146,9.941c-0.04-0.572-0.339-0.937-1.059-0.937c-0.57,0-1.141,0.221-1.793,0.585l-0.706-1.262
	c0.855-0.494,1.819-0.844,2.879-0.844c1.725,0,2.676,0.936,2.676,2.912v3.691h-1.63l-0.149-0.663h-0.041
	c-0.57,0.481-1.208,0.819-1.969,0.819c-1.223,0-1.996-0.858-1.996-1.95C315.358,10.941,316.484,10.2,319.146,9.941z M318.032,12.761
	c0.462,0,0.761-0.208,1.113-0.546v-1.131c-1.426,0.182-1.888,0.571-1.888,1.065C317.258,12.566,317.557,12.761,318.032,12.761z"/>
<path fill="#EC6554" d="M230.466,12.11h-0.991v1.977h-1.861V12.11h-3.734v-1.312l3.15-4.967h2.445v4.824h0.991L230.466,12.11
	L230.466,12.11z M227.613,10.655v-1.34c0-0.533,0.055-1.326,0.082-1.846h-0.055c-0.217,0.455-0.462,0.923-0.706,1.391l-1.141,1.795
	H227.613z"/>
<g>
	<g>
		<g>
			<g>
				<g>
					<defs>
						<circle id="SVGID_1_" cx="259.817" cy="9.985" r="7.158"/>
					</defs>
					<clipPath id="SVGID_2_">
						<use xlink:href="#SVGID_1_"  overflow="visible"/>
					</clipPath>
					<g clip-path="url(#SVGID_2_)">
						<g>
							<path fill="#44A5DD" d="M259.868,17.437c-4.994,0-9.989-0.001-14.983,0.004c-0.162,0-0.212-0.018-0.211-0.2
								c0.007-4.936,0.006-9.872,0.001-14.807c0-0.166,0.048-0.188,0.197-0.188c9.997,0.004,19.994,0.004,29.992-0.002
								c0.188,0,0.197,0.059,0.197,0.214c-0.004,4.927-0.005,9.855,0.002,14.782c0,0.179-0.045,0.202-0.21,0.202
								C269.857,17.436,264.862,17.437,259.868,17.437z"/>
							<path fill="#EED361" d="M265.149,15.633c0.013,0.034,0.064,0.08,0.003,0.1s-0.132,0.012-0.199,0.012
								c-3.39,0-6.781,0.001-10.171-0.001c-0.078,0-0.182,0.044-0.231-0.04c-0.039-0.067,0.056-0.108,0.089-0.162
								c0.137-0.309,0.405-0.516,0.609-0.772c0.123-0.154,0.249-0.306,0.366-0.465c0.054-0.044,0.114-0.08,0.161-0.132
								c1.027-1.204,2.073-2.391,3.105-3.592c0.284-0.33,0.557-0.67,0.862-0.981c0.172-0.176,0.237-0.181,0.399,0.013
								c0.455,0.548,0.915,1.091,1.373,1.636c0.851,1.013,1.705,2.024,2.557,3.036C264.427,14.738,264.849,15.136,265.149,15.633z"
								/>
							<path fill="#FFFFFF" d="M255.646,14.332c-0.277,0.452-0.655,0.82-1.006,1.211c-0.067-0.082,0.01-0.141,0.038-0.202
								c1.608-3.57,3.218-7.14,4.828-10.71c0.137-0.303,0.273-0.606,0.429-0.953c0.285,0.65,0.551,1.253,0.815,1.856
								c1.442,3.296,2.883,6.592,4.324,9.889c0.03,0.068,0.05,0.141,0.075,0.211c-0.37-0.436-0.74-0.872-1.109-1.309
								c-0.364-0.633-0.637-1.31-0.941-1.972c-0.489-1.066-0.974-2.134-1.462-3.201c-0.564-1.234-1.121-2.472-1.695-3.702
								c-0.032-0.068-0.058-0.139-0.08-0.235c-0.297,0.652-0.584,1.289-0.875,1.924c-0.503,1.096-1.003,2.194-1.503,3.292
								c-0.566,1.243-1.135,2.484-1.698,3.728C255.748,14.224,255.695,14.276,255.646,14.332z"/>
							<path fill="#010202" d="M255.735,14.15c0.4-0.888,0.796-1.777,1.199-2.663c0.965-2.121,1.934-4.241,2.918-6.397
								c0.251,0.55,0.489,1.072,0.727,1.593c1.132,2.477,2.264,4.954,3.394,7.432c0.03,0.066,0.086,0.127,0.066,0.21
								c-0.747-0.88-1.495-1.76-2.24-2.642c-0.573-0.678-1.144-1.357-1.709-2.041c-0.116-0.14-0.173-0.167-0.309-0.007
								c-1.292,1.505-2.595,3.002-3.895,4.501c-0.027,0.031-0.06,0.057-0.09,0.085C255.742,14.227,255.709,14.214,255.735,14.15z"/>
							<path fill="#22211D" d="M255.735,14.15c0.021,0.024,0.041,0.047,0.062,0.071c-0.028,0.067-0.072,0.114-0.151,0.111
								C255.656,14.262,255.679,14.197,255.735,14.15z"/>
						</g>
					</g>
				</g>
			</g>
		</g>
	</g>
</g>
<circle fill="none" stroke="#FFFCEE" stroke-miterlimit="10" cx="259.817" cy="9.985" r="7.049"/>
<g>
	<path fill="#FFFCEE" d="M498.823,12.11c0.516,0.508,1.181,0.91,2.05,0.91c0.938,0,1.589-0.468,1.589-1.248
		c0-0.857-0.57-1.403-2.539-1.403V9.276c1.697,0,2.254-0.559,2.254-1.326c0-0.688-0.488-1.104-1.276-1.104
		c-0.679,0-1.208,0.312-1.738,0.78l-0.801-0.924c0.733-0.623,1.562-1.039,2.594-1.039c1.656,0,2.798,0.779,2.798,2.184
		c0,0.923-0.571,1.547-1.508,1.898v0.052c1.019,0.26,1.793,0.962,1.793,2.054c0,1.508-1.372,2.393-3.028,2.393
		c-1.399,0-2.322-0.521-2.934-1.17L498.823,12.11z"/>
	<path fill="#FFFCEE" d="M505.017,15.634c0.869-0.325,1.371-0.91,1.371-1.573c-0.041,0-0.081,0-0.122,0
		c-0.529,0-1.005-0.338-1.005-0.923c0-0.559,0.476-0.923,1.046-0.923c0.733,0,1.168,0.572,1.168,1.534
		c0,1.273-0.774,2.262-2.119,2.704L505.017,15.634z"/>
	<path fill="#FFFCEE" d="M508.848,12.11c0.516,0.508,1.181,0.91,2.05,0.91c0.938,0,1.589-0.468,1.589-1.248
		c0-0.857-0.57-1.403-2.539-1.403V9.276c1.697,0,2.254-0.559,2.254-1.326c0-0.688-0.488-1.104-1.276-1.104
		c-0.679,0-1.208,0.312-1.738,0.78l-0.801-0.924c0.733-0.623,1.562-1.039,2.594-1.039c1.656,0,2.798,0.779,2.798,2.184
		c0,0.923-0.571,1.547-1.508,1.898v0.052c1.019,0.26,1.793,0.962,1.793,2.054c0,1.508-1.372,2.393-3.028,2.393
		c-1.399,0-2.322-0.521-2.934-1.17L508.848,12.11z"/>
	<path fill="#FFFCEE" d="M516.522,9.849V9.797c-0.665-0.455-1.194-1.066-1.194-1.938c0-1.339,1.113-2.196,2.607-2.196
		c1.548,0,2.539,0.896,2.539,2.235c0,0.819-0.598,1.509-1.154,1.898v0.052c0.802,0.429,1.494,1.04,1.494,2.146
		c0,1.273-1.168,2.249-2.92,2.249c-1.684,0-2.934-0.937-2.934-2.275C514.96,10.941,515.707,10.265,516.522,9.849z M517.921,13.177
		c0.828,0,1.426-0.468,1.426-1.235c0-0.896-0.91-1.222-2.078-1.677c-0.543,0.377-0.937,0.91-0.937,1.547
		C516.332,12.631,517.038,13.177,517.921,13.177z M519.184,7.989c0-0.728-0.476-1.261-1.276-1.261c-0.666,0-1.182,0.416-1.182,1.131
		c0,0.832,0.774,1.196,1.738,1.561C518.926,8.978,519.184,8.51,519.184,7.989z"/>
</g>
</svg>
