<?xml version="1.0" encoding="utf-8"?>
<!-- Generator: Adobe Illustrator 17.0.0, SVG Export Plug-In . SVG Version: 6.00 Build 0)  -->
<!DOCTYPE svg PUBLIC "-//W3C//DTD SVG 1.1//EN" "http://www.w3.org/Graphics/SVG/1.1/DTD/svg11.dtd">
<svg version="1.1" id="Layer_1" xmlns="http://www.w3.org/2000/svg" xmlns:xlink="http://www.w3.org/1999/xlink" x="0px" y="0px"
	 width="600px" height="19.542px" viewBox="0 0 600 19.542" enable-background="new 0 0 600 19.542" xml:space="preserve">
<rect x="0" y="0" fill="#EC6554" width="600" height="19.542"/>
<line fill="none" stroke="#9F9F9F" stroke-width="0.7" stroke-miterlimit="10" stroke-dasharray="6,3" x1="199.426" y1="0" x2="199.426" y2="19.542"/>
<line fill="none" stroke="#9F9F9F" stroke-width="0.7" stroke-miterlimit="10" stroke-dasharray="6,3" x1="440.97" y1="0" x2="440.97" y2="19.542"/>
<g>
	<g>
		<g>
			<rect x="451.885" y="8.771" fill="#FFFCEE" width="37.963" height="2"/>
		</g>
		<g>
			<g>
				<circle fill="#FFFCEE" cx="489.724" cy="9.771" r="2.481"/>
			</g>
		</g>
	</g>
</g>
<path fill="#FFFCEE" d="M67.679,7.39c-0.503-0.441-0.924-0.688-1.575-0.688c-0.733,0-1.182,0.364-1.182,1.04
	c0,1.56,3.694,1.248,3.694,3.874c0,1.235-0.761,2.146-2.105,2.379v1.339h-1.086v-1.3c-0.829-0.078-1.738-0.442-2.35-0.988
	l0.706-1.014c0.638,0.481,1.276,0.806,2.01,0.806c0.883,0,1.317-0.416,1.317-1.117c0-1.717-3.694-1.47-3.694-3.914
	c0-1.209,0.788-2.066,2.011-2.274V4.205h1.086v1.3c0.869,0.104,1.467,0.507,1.969,1.014L67.679,7.39z"/>
<path fill="#FFFCEE" d="M72.543,12.682h1.929V7.247h-1.589V6.312c0.855-0.156,1.453-0.364,1.996-0.677h1.168v7.047h1.697v1.222
	h-5.201V12.682z"/>
<path fill="#FFFCEE" d="M78.711,9.73c0-2.796,1.141-4.251,2.934-4.251s2.934,1.469,2.934,4.251c0,2.795-1.141,4.329-2.934,4.329
	S78.711,12.525,78.711,9.73z M83.084,9.73c0-2.341-0.598-3.081-1.439-3.081c-0.828,0-1.439,0.74-1.439,3.081
	c0,2.34,0.611,3.159,1.439,3.159C82.486,12.89,83.084,12.07,83.084,9.73z"/>
<path fill="#FFFCEE" d="M85.34,9.73c0-2.796,1.141-4.251,2.934-4.251s2.934,1.469,2.934,4.251c0,2.795-1.141,4.329-2.934,4.329
	S85.34,12.525,85.34,9.73z M89.713,9.73c0-2.341-0.598-3.081-1.439-3.081c-0.828,0-1.439,0.74-1.439,3.081
	c0,2.34,0.611,3.159,1.439,3.159C89.115,12.89,89.713,12.07,89.713,9.73z"/>
<path fill="#FFFCEE" d="M91.942,13.032c2.404-2.223,3.911-3.679,3.911-4.94c0-0.871-0.502-1.43-1.426-1.43
	c-0.665,0-1.222,0.429-1.684,0.923l-0.869-0.832c0.787-0.806,1.575-1.273,2.757-1.273c1.656,0,2.729,1.001,2.729,2.534
	c0,1.47-1.426,2.978-3.137,4.707c0.448-0.039,1.019-0.092,1.439-0.092h2.118v1.274h-5.84v-0.871H91.942z"/>
<path fill="#FFFCEE" d="M99.102,11.953c0.516,0.468,1.154,0.884,2.023,0.884c0.964,0,1.67-0.585,1.67-1.586
	c0-0.988-0.638-1.547-1.589-1.547c-0.557,0-0.869,0.143-1.385,0.468l-0.747-0.455l0.258-4.082h4.617v1.262h-3.259l-0.177,2.002
	c0.366-0.169,0.692-0.273,1.141-0.273c1.48,0,2.716,0.806,2.716,2.587c0,1.808-1.453,2.848-3.042,2.848
	c-1.398,0-2.309-0.533-2.946-1.145L99.102,11.953z"/>
<path fill="#FFFCEE" d="M105.323,15.45c0.869-0.325,1.371-0.91,1.371-1.573c-0.041,0-0.081,0-0.122,0
	c-0.529,0-1.005-0.338-1.005-0.923c0-0.559,0.476-0.923,1.046-0.923c0.733,0,1.168,0.572,1.168,1.534
	c0,1.273-0.774,2.262-2.119,2.704L105.323,15.45z"/>
<path fill="#FFFCEE" d="M110.199,9.665V9.613c-0.665-0.455-1.194-1.066-1.194-1.937c0-1.339,1.113-2.196,2.607-2.196
	c1.548,0,2.539,0.896,2.539,2.235c0,0.819-0.598,1.509-1.154,1.898v0.052c0.802,0.429,1.494,1.04,1.494,2.146
	c0,1.273-1.168,2.249-2.92,2.249c-1.684,0-2.934-0.937-2.934-2.275C108.638,10.757,109.385,10.081,110.199,9.665z M111.599,12.993
	c0.828,0,1.426-0.468,1.426-1.235c0-0.896-0.91-1.222-2.078-1.677c-0.543,0.377-0.937,0.91-0.937,1.547
	C110.01,12.447,110.716,12.993,111.599,12.993z M112.861,7.806c0-0.728-0.476-1.261-1.276-1.261c-0.666,0-1.182,0.416-1.182,1.131
	c0,0.832,0.774,1.196,1.738,1.561C112.604,8.794,112.861,8.326,112.861,7.806z"/>
<path fill="#FFFCEE" d="M119.396,6.896h-4.088V5.635h5.799v0.91c-2.023,2.405-2.377,4.134-2.526,7.358h-1.589
	C117.141,10.965,117.725,9.119,119.396,6.896z"/>
<path fill="#FFFCEE" d="M126.337,14.423v2.003h-1.562V7.52h1.29l0.109,0.676h0.054c0.557-0.455,1.276-0.832,2.01-0.832
	c1.657,0,2.621,1.273,2.621,3.25c0,2.184-1.371,3.445-2.852,3.445c-0.584,0-1.168-0.26-1.711-0.702L126.337,14.423z M127.682,12.824
	c0.883,0,1.562-0.754,1.562-2.197c0-1.273-0.435-2.028-1.439-2.028c-0.488,0-0.95,0.234-1.467,0.716v2.977
	C126.826,12.682,127.288,12.824,127.682,12.824z"/>
<path fill="#FFFCEE" d="M134.434,4.673h1.06l-3.164,11.311h-1.06L134.434,4.673z"/>
<path fill="#FFFCEE" d="M139.012,7.364c0.855,0,1.508,0.325,1.956,0.741l-0.747,0.948c-0.354-0.299-0.706-0.468-1.127-0.468
	c-1.073,0-1.82,0.845-1.82,2.132c0,1.274,0.733,2.119,1.779,2.119c0.543,0,1.005-0.26,1.371-0.546l0.652,0.949
	c-0.625,0.533-1.426,0.819-2.187,0.819c-1.82,0-3.219-1.223-3.219-3.342C135.671,8.586,137.233,7.364,139.012,7.364z"/>
<circle fill="none" stroke="#FFFCEE" stroke-miterlimit="10" cx="259.817" cy="9.771" r="7.049"/>
<path fill="#FFFCEE" d="M280.458,11.525c0.625,0.52,1.439,0.883,2.173,0.883c0.828,0,1.235-0.311,1.235-0.818
	c0-0.533-0.502-0.701-1.276-1.014l-1.141-0.469c-0.924-0.352-1.793-1.078-1.793-2.314c0-1.404,1.317-2.521,3.151-2.521
	c1.019,0,2.091,0.391,2.852,1.117l-1.005,1.209c-0.584-0.428-1.141-0.676-1.847-0.676c-0.68,0-1.128,0.287-1.128,0.768
	c0,0.52,0.584,0.703,1.358,1.002l1.127,0.441c1.073,0.416,1.752,1.105,1.752,2.301c0,1.404-1.222,2.627-3.327,2.627
	c-1.154,0-2.376-0.416-3.286-1.223L280.458,11.525z"/>
<path fill="#FFFCEE" d="M288.337,11.654c0.692,0,1.209,0.52,1.209,1.209c0,0.676-0.517,1.197-1.209,1.197s-1.209-0.521-1.209-1.197
	C287.128,12.174,287.645,11.654,288.337,11.654z"/>
<path fill="#FFFCEE" d="M288.949,5.428h2.118l1.073,3.951c0.258,0.924,0.435,1.781,0.706,2.719h0.054
	c0.272-0.938,0.448-1.795,0.707-2.719l1.045-3.951h2.051l-2.675,8.477h-2.404L288.949,5.428z"/>
<path fill="#FFFCEE" d="M297.249,5.506c0-0.586,0.489-0.988,1.154-0.988c0.679,0,1.154,0.402,1.154,0.988c0,0.584-0.476,1-1.154,1
	C297.738,6.506,297.249,6.09,297.249,5.506z M297.412,7.455h1.996v6.449h-1.996V7.455z"/>
<path fill="#FFFCEE" d="M301.093,7.455h1.63l0.136,0.82h0.054c0.57-0.521,1.25-0.977,2.159-0.977c1.467,0,2.092,0.988,2.092,2.602
	v4.004h-1.996v-3.758c0-0.936-0.258-1.223-0.829-1.223c-0.502,0-0.814,0.223-1.249,0.625v4.355h-1.996L301.093,7.455L301.093,7.455z
	"/>
<path fill="#FFFCEE" d="M311.905,7.299c0.829,0,1.521,0.299,1.97,0.742l-0.91,1.184c-0.326-0.262-0.625-0.379-0.937-0.379
	c-0.965,0-1.576,0.717-1.576,1.834s0.639,1.834,1.508,1.834c0.489,0,0.883-0.223,1.209-0.469l0.801,1.209
	c-0.651,0.547-1.507,0.807-2.24,0.807c-1.874,0-3.327-1.236-3.327-3.381S310.045,7.299,311.905,7.299z"/>
<path fill="#FFFCEE" d="M317.476,7.299c1.914,0,2.865,1.34,2.865,3.096c0,0.338-0.041,0.648-0.082,0.805h-4.033
	c0.177,0.975,0.855,1.404,1.752,1.404c0.503,0,0.965-0.143,1.453-0.43l0.666,1.158c-0.693,0.455-1.589,0.729-2.391,0.729
	c-1.929,0-3.408-1.248-3.408-3.381C314.298,8.586,315.859,7.299,317.476,7.299z M318.644,10.018c0-0.742-0.326-1.262-1.128-1.262
	c-0.624,0-1.168,0.402-1.304,1.262H318.644z"/>
<path fill="#FFFCEE" d="M321.66,7.455h1.63l0.136,0.82h0.054c0.57-0.521,1.25-0.977,2.159-0.977c1.467,0,2.092,0.988,2.092,2.602
	v4.004h-1.996v-3.758c0-0.936-0.258-1.223-0.828-1.223c-0.503,0-0.815,0.223-1.25,0.625v4.355h-1.996L321.66,7.455L321.66,7.455z"/>
<path fill="#FFFCEE" d="M329.635,8.951h-0.924V7.533l1.032-0.078l0.231-1.715h1.656v1.715h1.616v1.496h-1.616v2.586
	c0,0.729,0.34,1.027,0.869,1.027c0.218,0,0.462-0.064,0.639-0.129l0.312,1.391c-0.354,0.104-0.842,0.234-1.494,0.234
	c-1.67,0-2.322-1.002-2.322-2.496L329.635,8.951L329.635,8.951z"/>
<path fill="#FFFCEE" d="M344.711,14.061c-0.732-0.145-1.507-0.443-2.268-0.859c-0.747,0.533-1.67,0.859-2.784,0.859
	c-1.928,0-2.946-1.119-2.946-2.418c0-1.184,0.746-1.859,1.615-2.393c-0.339-0.611-0.543-1.223-0.543-1.756
	c0-1.209,0.924-2.223,2.404-2.223c1.33,0,2.173,0.754,2.173,1.924c0,1.105-0.924,1.807-1.848,2.406
	c0.503,0.559,1.128,1.092,1.779,1.547c0.448-0.561,0.802-1.236,1.019-2.029h1.82c-0.326,1.027-0.802,1.977-1.48,2.861
	c0.557,0.271,1.086,0.467,1.534,0.533L344.711,14.061z M339.918,12.604c0.366,0,0.746-0.117,1.127-0.338
	c-0.692-0.533-1.331-1.131-1.848-1.756c-0.353,0.301-0.597,0.625-0.597,1.016C338.601,12.162,339.13,12.604,339.918,12.604z
	 M339.714,8.496c0.639-0.365,1.127-0.729,1.127-1.301c0-0.402-0.19-0.662-0.611-0.662c-0.448,0-0.801,0.363-0.801,0.949
	C339.429,7.793,339.537,8.145,339.714,8.496z"/>
<path fill="#FFFCEE" d="M349.278,8.951h-0.924V7.533l1.032-0.078l0.231-1.715h1.656v1.715h1.616v1.496h-1.616v2.586
	c0,0.729,0.34,1.027,0.869,1.027c0.218,0,0.462-0.064,0.639-0.129l0.312,1.391c-0.354,0.104-0.843,0.234-1.494,0.234
	c-1.67,0-2.322-1.002-2.322-2.496L349.278,8.951L349.278,8.951z"/>
<path fill="#FFFCEE" d="M354.142,4.791h1.996v2.236l-0.095,1.156c0.502-0.43,1.168-0.885,2.077-0.885
	c1.467,0,2.092,0.988,2.092,2.602v4.004h-1.996v-3.758c0-0.936-0.258-1.223-0.829-1.223c-0.502,0-0.814,0.223-1.249,0.625v4.355
	h-1.996V4.791z"/>
<path fill="#FFFCEE" d="M364.615,7.299c1.914,0,2.865,1.34,2.865,3.096c0,0.338-0.041,0.648-0.082,0.805h-4.033
	c0.177,0.975,0.855,1.404,1.752,1.404c0.503,0,0.965-0.143,1.453-0.43l0.666,1.158c-0.693,0.455-1.589,0.729-2.391,0.729
	c-1.929,0-3.408-1.248-3.408-3.381C361.438,8.586,362.999,7.299,364.615,7.299z M365.783,10.018c0-0.742-0.326-1.262-1.128-1.262
	c-0.624,0-1.168,0.402-1.304,1.262H365.783z"/>
<path fill="#FFFCEE" d="M375.646,5.271c1.249,0,2.159,0.533,2.757,1.105l-1.101,1.184c-0.448-0.391-0.869-0.639-1.63-0.639
	c-1.357,0-2.335,1.027-2.335,2.73c0,1.742,0.828,2.756,2.498,2.756c0.354,0,0.72-0.09,0.938-0.26v-1.455h-1.467V9.133h3.246v3.9
	c-0.639,0.533-1.738,1.027-2.975,1.027c-2.39,0-4.291-1.496-4.291-4.344C371.286,6.91,373.241,5.271,375.646,5.271z"/>
<path fill="#FFFCEE" d="M380.13,7.455h1.63l0.136,1.131h0.054c0.489-0.871,1.223-1.287,1.915-1.287c0.38,0,0.611,0.053,0.802,0.131
	l-0.326,1.65c-0.244-0.064-0.448-0.104-0.733-0.104c-0.503,0-1.127,0.312-1.48,1.184v3.744h-1.996V7.455H380.13z"/>
<path fill="#FFFCEE" d="M388.116,7.299c1.914,0,2.865,1.34,2.865,3.096c0,0.338-0.041,0.648-0.082,0.805h-4.033
	c0.177,0.975,0.855,1.404,1.752,1.404c0.503,0,0.965-0.143,1.453-0.43l0.666,1.158c-0.693,0.455-1.589,0.729-2.391,0.729
	c-1.929,0-3.408-1.248-3.408-3.381C384.939,8.586,386.5,7.299,388.116,7.299z M389.284,10.018c0-0.742-0.326-1.262-1.128-1.262
	c-0.624,0-1.168,0.402-1.304,1.262H389.284z"/>
<path fill="#FFFCEE" d="M392.302,7.455h1.63l0.136,0.82h0.054c0.57-0.521,1.25-0.977,2.159-0.977c1.467,0,2.092,0.988,2.092,2.602
	v4.004h-1.996v-3.758c0-0.936-0.258-1.223-0.829-1.223c-0.502,0-0.814,0.223-1.249,0.625v4.355h-1.996L392.302,7.455L392.302,7.455z
	"/>
<path fill="#FFFCEE" d="M403.548,9.756c-0.04-0.57-0.339-0.936-1.059-0.936c-0.57,0-1.141,0.221-1.793,0.586l-0.706-1.262
	c0.855-0.494,1.819-0.846,2.879-0.846c1.725,0,2.676,0.937,2.676,2.912v3.693h-1.63l-0.149-0.664h-0.041
	c-0.57,0.482-1.208,0.82-1.969,0.82c-1.223,0-1.996-0.859-1.996-1.951C399.76,10.758,400.887,10.018,403.548,9.756z M402.435,12.578
	c0.462,0,0.761-0.209,1.113-0.547V10.9c-1.426,0.182-1.888,0.572-1.888,1.066C401.66,12.383,401.959,12.578,402.435,12.578z"/>
<path fill="#FFFCEE" d="M409.635,7.299c0.747,0,1.195,0.262,1.657,0.678l-0.082-0.988V4.791h1.996v9.113h-1.629l-0.136-0.637h-0.055
	c-0.476,0.455-1.141,0.793-1.793,0.793c-1.67,0-2.757-1.275-2.757-3.381S408.209,7.299,409.635,7.299z M410.11,12.5
	c0.435,0,0.773-0.156,1.1-0.586V9.275c-0.353-0.312-0.747-0.416-1.113-0.416c-0.639,0-1.209,0.572-1.209,1.795
	C408.888,11.928,409.336,12.5,410.11,12.5z"/>
<path fill="#FFFCEE" d="M414.743,5.506c0-0.586,0.489-0.988,1.154-0.988c0.679,0,1.154,0.402,1.154,0.988c0,0.584-0.476,1-1.154,1
	C415.233,6.506,414.743,6.09,414.743,5.506z M414.906,7.455h1.996v6.449h-1.996V7.455z"/>
<path fill="#FFFCEE" d="M418.588,7.455h1.63l0.136,0.82h0.054c0.57-0.521,1.25-0.977,2.159-0.977c1.467,0,2.092,0.988,2.092,2.602
	v4.004h-1.996v-3.758c0-0.936-0.258-1.223-0.828-1.223c-0.503,0-0.815,0.223-1.25,0.625v4.355h-1.996L418.588,7.455L418.588,7.455z"
	/>
<path fill="#FFFCEE" d="M429.075,7.299c1.914,0,2.865,1.34,2.865,3.096c0,0.338-0.041,0.648-0.082,0.805h-4.033
	c0.177,0.975,0.855,1.404,1.752,1.404c0.503,0,0.965-0.143,1.453-0.43l0.666,1.158c-0.693,0.455-1.589,0.729-2.391,0.729
	c-1.929,0-3.408-1.248-3.408-3.381C425.898,8.586,427.459,7.299,429.075,7.299z M430.243,10.018c0-0.742-0.326-1.262-1.128-1.262
	c-0.624,0-1.168,0.402-1.304,1.262H430.243z"/>
<path fill="#EC6554" d="M230.466,11.928h-0.991v1.977h-1.861v-1.977h-3.734v-1.312l3.15-4.967h2.445v4.824h0.991L230.466,11.928
	L230.466,11.928z M227.613,10.473v-1.34c0-0.533,0.055-1.326,0.082-1.846h-0.055c-0.217,0.455-0.462,0.922-0.706,1.391l-1.141,1.795
	H227.613z"/>
<g>
	<g>
		<g>
			<g>
				<g>
					<defs>
						<circle id="SVGID_1_" cx="259.817" cy="9.771" r="7.049"/>
					</defs>
					<clipPath id="SVGID_2_">
						<use xlink:href="#SVGID_1_"  overflow="visible"/>
					</clipPath>
					<g clip-path="url(#SVGID_2_)">
						<g>
							<path fill="#239E46" d="M265.098,2.73c1.768,0,3.536,0,5.304,0c0.065,0.082,0.046,0.179,0.046,0.271
								c0.001,4.535,0.001,9.07,0,13.604c0,0.085,0.017,0.173-0.033,0.252c-0.056,0.04-0.121,0.024-0.182,0.024
								c-1.698,0-3.397,0.003-5.095-0.001c-0.032-0.004-0.059-0.018-0.082-0.042c-0.097-0.15-0.061-0.319-0.061-0.48
								c-0.003-3.785-0.002-7.57-0.002-11.356c0-0.618-0.001-1.236,0.001-1.853c0-0.116-0.014-0.236,0.045-0.345
								C265.057,2.778,265.076,2.753,265.098,2.73z"/>
							<path fill="#3C5BA4" d="M249.232,16.859c0-4.634,0.001-9.267-0.005-13.9c0-0.179,0.02-0.236,0.222-0.234
								c1.68,0.011,3.36,0.006,5.04,0.006c0.021,0.023,0.041,0.048,0.057,0.074c0.059,0.109,0.045,0.229,0.045,0.345
								c0.002,4.435,0.002,8.871,0,13.306c0,0.123,0.022,0.252-0.052,0.366c-0.019,0.026-0.043,0.045-0.072,0.057
								c-1.7,0.009-3.4,0.001-5.1,0.003C249.322,16.882,249.274,16.889,249.232,16.859z"/>
							<path fill="#C1C0C0" d="M270.449,2.73c0.098,0.052,0.044,0.143,0.044,0.211c0.003,4.334,0.003,8.668,0.003,13.002
								c0,0.297,0.001,0.595-0.001,0.892c0,0.029,0.029,0.086-0.046,0.07c-0.018-0.027-0.025-0.056-0.023-0.088
								c-0.001-4.619,0-9.239,0.001-13.858C270.426,2.883,270.406,2.803,270.449,2.73z"/>
							<path fill="#1B7735" d="M270.449,2.73c0,4.608,0,9.216,0,13.824c0,0.101-0.005,0.203-0.007,0.304
								c-0.015,0.02-0.029,0.019-0.043-0.001c0.001-2.292,0.003-4.584,0.004-6.876c0.001-2.417,0-4.834,0-7.251
								C270.417,2.73,270.433,2.73,270.449,2.73z"/>
							<path fill="#BAB710" d="M254.497,2.777c-0.003-0.016-0.005-0.032-0.008-0.047c3.536,0,7.072,0,10.608,0
								c-0.001,0.016-0.003,0.032-0.004,0.048c-0.059,0.073-0.138,0.096-0.228,0.098c-0.078,0.002-0.156,0.004-0.234,0.004
								c-3.224,0-6.448,0.001-9.673-0.002C254.801,2.878,254.625,2.927,254.497,2.777z"/>
							<path fill="#010202" d="M265.098,16.906c-3.536,0-7.072,0-10.608,0c-0.015-0.005-0.022-0.013-0.019-0.022
								c0.003-0.01,0.007-0.015,0.011-0.015l0.013-0.013c0.059-0.073,0.139-0.095,0.229-0.097c0.078-0.002,0.156-0.004,0.234-0.004
								c3.225,0,6.45-0.001,9.675,0.002c0.158,0,0.333-0.045,0.464,0.099l0.004,0.01c0.017,0.01,0.023,0.019,0.016,0.028
								C265.111,16.902,265.104,16.906,265.098,16.906z"/>
							<path fill="#1B7735" d="M265.098,16.906c0.006-0.013,0.007-0.026,0.003-0.039c1.57-0.002,3.141-0.005,4.711-0.007
								c0.195,0,0.391-0.001,0.586-0.001c0.014,0.001,0.029,0.001,0.043,0.001c0.003,0.016,0.005,0.031,0.008,0.047
								C268.665,16.906,266.881,16.906,265.098,16.906z"/>
							<path fill="#2D437A" d="M254.482,16.869c0.005,0.012,0.008,0.024,0.007,0.037c-1.69,0-3.38,0.001-5.07-0.003
								c-0.061,0-0.145,0.053-0.187-0.044c1.648,0,3.297,0,4.946,0C254.279,16.859,254.381,16.865,254.482,16.869z"/>
							<path fill="#EFE528" d="M265.096,16.856c-3.534,0-7.068,0-10.601,0c-0.002-0.368-0.005-0.735-0.005-1.103
								c0-4.232,0-8.463,0-12.695c0-0.094,0.005-0.187,0.007-0.281c3.532,0,7.064,0,10.596,0.001
								c0.003,0.062,0.009,0.125,0.009,0.187c0,4.576,0,9.151,0,13.727C265.102,16.746,265.098,16.801,265.096,16.856z"/>
							<path fill="#239E46" d="M257.433,11.729c-0.339-0.565-0.669-1.114-0.999-1.662c-0.214-0.355-0.426-0.711-0.642-1.064
								c-0.047-0.077-0.079-0.141-0.023-0.234c0.554-0.906,1.104-1.815,1.653-2.72c0.093,0.009,0.104,0.081,0.134,0.13
								c0.51,0.843,1.017,1.687,1.527,2.53c0.054,0.09,0.094,0.163,0.026,0.275c-0.542,0.896-1.077,1.797-1.615,2.696
								C257.487,11.692,257.471,11.699,257.433,11.729z"/>
							<path fill="#239E46" d="M262.174,6.019c0.295,0.492,0.584,0.973,0.872,1.455c0.249,0.416,0.495,0.832,0.744,1.248
								c0.05,0.083,0.089,0.151,0.027,0.255c-0.538,0.898-1.07,1.799-1.605,2.699c-0.011,0.018-0.033,0.029-0.064,0.055
								c-0.4-0.669-0.796-1.332-1.192-1.995c-0.144-0.241-0.285-0.485-0.434-0.724c-0.059-0.095-0.072-0.172-0.008-0.277
								c0.532-0.874,1.058-1.752,1.586-2.628C262.116,6.081,262.139,6.06,262.174,6.019z"/>
							<path fill="#239E46" d="M259.816,9.805c0.45,0.749,0.85,1.505,1.337,2.199c0.338,0.481,0.331,0.843-0.005,1.317
								c-0.451,0.635-0.821,1.328-1.22,2c-0.087,0.147-0.132,0.21-0.248,0.012c-0.492-0.843-0.998-1.679-1.501-2.516
								c-0.055-0.091-0.091-0.168-0.025-0.278c0.532-0.883,1.059-1.769,1.588-2.654C259.754,9.866,259.773,9.851,259.816,9.805z"/>
						</g>
					</g>
				</g>
			</g>
		</g>
	</g>
</g>
<circle fill="none" stroke="#FFFCEE" stroke-miterlimit="10" cx="259.817" cy="9.771" r="7.049"/>
<g>
	<path fill="#FFFCEE" d="M498.823,11.928c0.516,0.508,1.181,0.91,2.05,0.91c0.938,0,1.589-0.468,1.589-1.248
		c0-0.857-0.57-1.403-2.539-1.403V9.094c1.697,0,2.254-0.559,2.254-1.326c0-0.688-0.488-1.104-1.276-1.104
		c-0.679,0-1.208,0.312-1.738,0.78l-0.801-0.924c0.733-0.623,1.562-1.039,2.594-1.039c1.656,0,2.798,0.779,2.798,2.184
		c0,0.923-0.571,1.547-1.508,1.898v0.052c1.019,0.26,1.793,0.962,1.793,2.054c0,1.508-1.372,2.393-3.028,2.393
		c-1.399,0-2.322-0.521-2.934-1.17L498.823,11.928z"/>
	<path fill="#FFFCEE" d="M505.017,15.451c0.869-0.325,1.371-0.91,1.371-1.573c-0.041,0-0.081,0-0.122,0
		c-0.529,0-1.005-0.338-1.005-0.923c0-0.559,0.476-0.923,1.046-0.923c0.733,0,1.168,0.572,1.168,1.534
		c0,1.273-0.774,2.262-2.119,2.704L505.017,15.451z"/>
	<path fill="#FFFCEE" d="M514.388,11.772h-1.086v2.132h-1.467v-2.132h-3.816v-1.015l3.423-5.122h1.86v4.979h1.086V11.772z
		 M511.835,10.615V8.743c0-0.481,0.041-1.235,0.068-1.716h-0.055c-0.218,0.429-0.462,0.845-0.706,1.287l-1.575,2.301H511.835z"/>
	<path fill="#FFFCEE" d="M516.522,9.666V9.614c-0.665-0.455-1.194-1.066-1.194-1.938c0-1.339,1.113-2.196,2.607-2.196
		c1.548,0,2.539,0.896,2.539,2.235c0,0.819-0.598,1.509-1.154,1.898v0.052c0.802,0.429,1.494,1.04,1.494,2.146
		c0,1.273-1.168,2.249-2.92,2.249c-1.684,0-2.934-0.937-2.934-2.275C514.96,10.758,515.707,10.082,516.522,9.666z M517.921,12.994
		c0.828,0,1.426-0.468,1.426-1.235c0-0.896-0.91-1.222-2.078-1.677c-0.543,0.377-0.937,0.91-0.937,1.547
		C516.332,12.448,517.038,12.994,517.921,12.994z M519.184,7.807c0-0.728-0.476-1.261-1.276-1.261c-0.666,0-1.182,0.416-1.182,1.131
		c0,0.832,0.774,1.196,1.738,1.561C518.926,8.795,519.184,8.327,519.184,7.807z"/>
</g>
</svg>
