<?xml version="1.0" encoding="utf-8"?>
<!-- Generator: Adobe Illustrator 17.0.0, SVG Export Plug-In . SVG Version: 6.00 Build 0)  -->
<!DOCTYPE svg PUBLIC "-//W3C//DTD SVG 1.1//EN" "http://www.w3.org/Graphics/SVG/1.1/DTD/svg11.dtd">
<svg version="1.1" id="Layer_1" xmlns="http://www.w3.org/2000/svg" xmlns:xlink="http://www.w3.org/1999/xlink" x="0px" y="0px"
	 width="600px" height="19.542px" viewBox="0 0 600 19.542" enable-background="new 0 0 600 19.542" xml:space="preserve">
<rect x="153.413" y="2.722" fill="#EC6554" width="38.716" height="14.097"/>
<g>
	<rect x="448.356" y="8.771" fill="#EC6554" width="37.962" height="2"/>
</g>
<g>
	<g>
		<circle fill="#EC6554" cx="486.194" cy="9.771" r="2.481"/>
	</g>
</g>
<rect x="0" y="0" fill="none" width="600" height="19.542"/>
<line fill="none" stroke="#9F9F9F" stroke-width="0.7" stroke-miterlimit="10" stroke-dasharray="6,3" x1="199.426" y1="0" x2="199.426" y2="19.542"/>
<line fill="none" stroke="#9F9F9F" stroke-width="0.7" stroke-miterlimit="10" stroke-dasharray="6,3" x1="440.97" y1="0" x2="440.97" y2="19.542"/>
<g>
	<g>
		<g>
			<defs>
				<circle id="SVGID_1_" cx="259.927" cy="9.771" r="7.049"/>
			</defs>
			<clipPath id="SVGID_2_">
				<use xlink:href="#SVGID_1_"  overflow="visible"/>
			</clipPath>
			<g id="tLa83K_1_" clip-path="url(#SVGID_2_)">
				<g>
					<g>
						<path fill="#239E46" d="M265.208,2.73c1.768,0,3.536,0,5.304,0c0.065,0.082,0.046,0.179,0.046,0.271
							c0.001,4.535,0.001,9.07,0,13.604c0,0.085,0.017,0.173-0.033,0.252c-0.056,0.04-0.121,0.024-0.182,0.024
							c-1.698,0-3.397,0.003-5.095-0.001c-0.032-0.004-0.059-0.018-0.081-0.042c-0.097-0.15-0.061-0.319-0.061-0.48
							c-0.003-3.785-0.002-7.57-0.002-11.356c0-0.618-0.001-1.236,0.001-1.853c0-0.116-0.014-0.236,0.045-0.345
							C265.167,2.778,265.186,2.753,265.208,2.73z"/>
						<path fill="#3C5BA4" d="M249.342,16.859c0-4.634,0.001-9.267-0.005-13.9c0-0.179,0.02-0.236,0.222-0.234
							c1.68,0.011,3.36,0.006,5.04,0.006c0.021,0.023,0.041,0.048,0.057,0.074c0.059,0.109,0.045,0.229,0.045,0.345
							c0.002,4.435,0.002,8.871,0,13.306c0,0.123,0.022,0.252-0.052,0.366c-0.019,0.026-0.043,0.045-0.072,0.057
							c-1.7,0.009-3.4,0.001-5.1,0.003C249.432,16.882,249.384,16.889,249.342,16.859z"/>
						<path fill="#C1C0C0" d="M270.559,2.73c0.098,0.052,0.044,0.143,0.044,0.211c0.003,4.334,0.003,8.668,0.003,13.002
							c0,0.297,0.001,0.595-0.001,0.892c0,0.029,0.029,0.086-0.046,0.07c-0.018-0.027-0.025-0.056-0.023-0.088
							c-0.001-4.619,0-9.239,0.001-13.858C270.536,2.883,270.516,2.803,270.559,2.73z"/>
						<path fill="#1B7735" d="M270.559,2.73c0,4.608,0,9.216,0,13.824c0,0.101-0.005,0.203-0.008,0.304
							c-0.015,0.02-0.029,0.019-0.043-0.001c0.001-2.292,0.003-4.584,0.004-6.876c0.001-2.417,0-4.834,0-7.251
							C270.527,2.73,270.543,2.73,270.559,2.73z"/>
						<path fill="#BAB710" d="M254.607,2.777c-0.003-0.016-0.005-0.032-0.008-0.047c3.536,0,7.072,0,10.608,0
							c-0.001,0.016-0.003,0.032-0.004,0.048c-0.059,0.073-0.138,0.096-0.228,0.098c-0.078,0.002-0.156,0.004-0.234,0.004
							c-3.224,0-6.448,0.001-9.673-0.002C254.911,2.878,254.735,2.927,254.607,2.777z"/>
						<path fill="#010202" d="M265.208,16.906c-3.536,0-7.072,0-10.608,0c-0.015-0.005-0.022-0.013-0.019-0.022
							c0.003-0.01,0.007-0.015,0.011-0.015l0.013-0.013c0.059-0.073,0.139-0.095,0.229-0.097c0.078-0.002,0.156-0.004,0.234-0.004
							c3.225,0,6.45-0.001,9.675,0.002c0.158,0,0.333-0.045,0.464,0.099l0.004,0.01c0.017,0.01,0.023,0.019,0.016,0.028
							C265.22,16.902,265.214,16.906,265.208,16.906z"/>
						<path fill="#1B7735" d="M265.208,16.906c0.006-0.013,0.007-0.026,0.003-0.039c1.57-0.002,3.141-0.005,4.711-0.007
							c0.195,0,0.391-0.001,0.586-0.001c0.014,0.001,0.029,0.001,0.043,0.001c0.003,0.016,0.005,0.031,0.008,0.047
							C268.775,16.906,266.991,16.906,265.208,16.906z"/>
						<path fill="#2D437A" d="M254.592,16.869c0.005,0.012,0.008,0.024,0.007,0.037c-1.69,0-3.38,0.001-5.07-0.003
							c-0.061,0-0.145,0.053-0.187-0.044c1.648,0,3.297,0,4.946,0C254.389,16.859,254.491,16.865,254.592,16.869z"/>
						<path fill="#EFE528" d="M265.206,16.856c-3.534,0-7.068,0-10.601,0c-0.002-0.368-0.005-0.735-0.005-1.103
							c0-4.232,0-8.463,0-12.695c0-0.094,0.005-0.187,0.007-0.281c3.532,0,7.064,0,10.596,0.001
							c0.003,0.062,0.009,0.125,0.009,0.187c0,4.576,0,9.151,0,13.727C265.212,16.746,265.208,16.801,265.206,16.856z"/>
						<path fill="#239E46" d="M257.543,11.729c-0.339-0.565-0.669-1.114-0.999-1.662c-0.214-0.355-0.426-0.711-0.642-1.064
							c-0.047-0.077-0.079-0.141-0.023-0.234c0.554-0.906,1.104-1.815,1.653-2.72c0.093,0.009,0.104,0.081,0.134,0.13
							c0.51,0.843,1.017,1.687,1.527,2.53c0.054,0.09,0.094,0.163,0.026,0.275c-0.542,0.896-1.077,1.797-1.615,2.696
							C257.597,11.692,257.581,11.699,257.543,11.729z"/>
						<path fill="#239E46" d="M262.284,6.019c0.295,0.492,0.584,0.973,0.872,1.455c0.249,0.416,0.495,0.832,0.744,1.248
							c0.05,0.083,0.089,0.151,0.027,0.255c-0.538,0.898-1.07,1.799-1.605,2.699c-0.011,0.018-0.033,0.029-0.064,0.055
							c-0.4-0.669-0.796-1.332-1.192-1.995c-0.144-0.241-0.285-0.485-0.434-0.724c-0.059-0.095-0.072-0.172-0.008-0.277
							c0.532-0.874,1.058-1.752,1.586-2.628C262.226,6.081,262.249,6.06,262.284,6.019z"/>
						<path fill="#239E46" d="M259.926,9.805c0.45,0.749,0.85,1.505,1.337,2.199c0.338,0.481,0.331,0.843-0.005,1.317
							c-0.451,0.635-0.821,1.328-1.22,2c-0.087,0.147-0.133,0.21-0.248,0.012c-0.492-0.843-0.998-1.679-1.501-2.516
							c-0.055-0.091-0.091-0.168-0.025-0.278c0.532-0.883,1.059-1.769,1.588-2.654C259.864,9.866,259.883,9.851,259.926,9.805z"/>
					</g>
				</g>
			</g>
		</g>
	</g>
</g>
<path fill="#010201" d="M280.174,12.044c0.638,0.638,1.521,1.066,2.458,1.066c1.168,0,1.86-0.559,1.86-1.391
	c0-0.871-0.652-1.145-1.494-1.509l-1.276-0.533c-0.828-0.338-1.807-0.948-1.807-2.196c0-1.301,1.195-2.263,2.812-2.263
	c1.06,0,1.996,0.43,2.621,1.054l-0.598,0.701c-0.543-0.493-1.209-0.806-2.023-0.806c-1.005,0-1.671,0.481-1.671,1.248
	c0,0.819,0.788,1.131,1.48,1.417l1.276,0.521c1.032,0.429,1.834,1.014,1.834,2.274c0,1.353-1.168,2.432-3.042,2.432
	c-1.25,0-2.336-0.494-3.11-1.262L280.174,12.044z"/>
<path fill="#010201" d="M287.767,12.421c0.435,0,0.802,0.338,0.802,0.832c0,0.469-0.367,0.807-0.802,0.807
	c-0.448,0-0.814-0.338-0.814-0.807C286.953,12.759,287.319,12.421,287.767,12.421z"/>
<path fill="#010201" d="M288.379,5.375h1.195l1.439,4.603c0.312,1.014,0.529,1.819,0.855,2.82h0.055
	c0.325-1.001,0.557-1.807,0.855-2.82l1.426-4.603h1.154l-2.824,8.528h-1.317L288.379,5.375z"/>
<path fill="#010201" d="M296.177,5.596c0-0.416,0.339-0.688,0.773-0.688s0.774,0.272,0.774,0.688c0,0.403-0.34,0.689-0.774,0.689
	S296.177,5.999,296.177,5.596z M296.38,7.585h1.114v6.318h-1.114V7.585z"/>
<path fill="#010201" d="M299.654,7.585h0.924l0.095,0.91h0.041c0.625-0.598,1.304-1.066,2.214-1.066c1.385,0,2.01,0.858,2.01,2.471
	v4.004h-1.113v-3.861c0-1.183-0.381-1.689-1.25-1.689c-0.679,0-1.141,0.338-1.806,0.975v4.576h-1.114L299.654,7.585L299.654,7.585z"
	/>
<path fill="#010201" d="M309.706,7.429c0.869,0,1.48,0.352,1.928,0.754l-0.557,0.689c-0.394-0.325-0.801-0.559-1.331-0.559
	c-1.194,0-2.063,0.987-2.063,2.443c0,1.443,0.828,2.418,2.037,2.418c0.624,0,1.154-0.299,1.548-0.637l0.502,0.702
	c-0.597,0.507-1.357,0.819-2.146,0.819c-1.752,0-3.096-1.209-3.096-3.303C306.529,8.638,308.008,7.429,309.706,7.429z"/>
<path fill="#010201" d="M315.33,7.429c1.685,0,2.635,1.157,2.635,2.965c0,0.221-0.014,0.429-0.041,0.585h-4.454
	c0.082,1.364,0.938,2.223,2.2,2.223c0.625,0,1.154-0.195,1.644-0.494l0.394,0.702c-0.57,0.352-1.276,0.65-2.173,0.65
	c-1.766,0-3.164-1.235-3.164-3.303C312.37,8.691,313.824,7.429,315.33,7.429z M316.988,10.277c0-1.287-0.598-2.002-1.63-2.002
	c-0.924,0-1.766,0.728-1.901,2.002H316.988z"/>
<path fill="#010201" d="M319.529,7.585h0.924l0.095,0.91h0.041c0.625-0.598,1.304-1.066,2.214-1.066c1.385,0,2.01,0.858,2.01,2.471
	v4.004H323.7v-3.861c0-1.183-0.381-1.689-1.25-1.689c-0.679,0-1.141,0.338-1.806,0.975v4.576h-1.114L319.529,7.585L319.529,7.585z"
	/>
<path fill="#010201" d="M327.082,8.456h-0.978V7.651l1.032-0.065l0.136-1.768h0.937v1.768h1.779v0.871h-1.779v3.51
	c0,0.78,0.258,1.223,1.019,1.223c0.231,0,0.53-0.091,0.747-0.169l0.218,0.806c-0.367,0.117-0.815,0.234-1.223,0.234
	c-1.412,0-1.888-0.858-1.888-2.106L327.082,8.456L327.082,8.456z"/>
<path fill="#010201" d="M340.745,14.06c-0.624-0.169-1.33-0.494-2.05-0.976c-0.68,0.585-1.521,0.976-2.567,0.976
	c-1.616,0-2.716-0.988-2.716-2.366c0-1.145,0.842-1.859,1.752-2.457c-0.367-0.702-0.584-1.378-0.584-2.002
	c0-1.132,0.828-2.016,2.064-2.016c1.1,0,1.752,0.689,1.752,1.69c0,1.118-1.019,1.833-2.011,2.521
	c0.584,0.871,1.413,1.717,2.255,2.393c0.543-0.702,0.978-1.547,1.249-2.522h1.046c-0.354,1.118-0.855,2.158-1.562,3.056
	c0.611,0.402,1.182,0.688,1.67,0.818L340.745,14.06z M336.25,13.201c0.611,0,1.182-0.26,1.698-0.688
	c-0.869-0.729-1.712-1.625-2.336-2.535c-0.625,0.48-1.114,0.987-1.114,1.65C334.498,12.577,335.273,13.201,336.25,13.201z
	 M335.965,8.716c0.815-0.52,1.521-1.04,1.521-1.794c0-0.494-0.244-0.936-0.842-0.936c-0.666,0-1.101,0.532-1.101,1.234
	C335.544,7.69,335.707,8.197,335.965,8.716z"/>
<path fill="#010201" d="M345.163,8.456h-0.978V7.651l1.032-0.065l0.136-1.768h0.937v1.768h1.779v0.871h-1.779v3.51
	c0,0.78,0.258,1.223,1.019,1.223c0.231,0,0.53-0.091,0.747-0.169l0.218,0.806c-0.367,0.117-0.815,0.234-1.223,0.234
	c-1.412,0-1.888-0.858-1.888-2.106L345.163,8.456L345.163,8.456z"/>
<path fill="#010201" d="M349.496,4.648h1.114v2.521l-0.041,1.3c0.625-0.571,1.29-1.04,2.2-1.04c1.385,0,2.01,0.858,2.01,2.471v4.004
	h-1.113v-3.861c0-1.183-0.381-1.689-1.25-1.689c-0.679,0-1.141,0.338-1.806,0.975v4.576h-1.114L349.496,4.648L349.496,4.648z"/>
<path fill="#010201" d="M359.29,7.429c1.685,0,2.635,1.157,2.635,2.965c0,0.221-0.014,0.429-0.041,0.585h-4.454
	c0.082,1.364,0.938,2.223,2.2,2.223c0.625,0,1.154-0.195,1.644-0.494l0.394,0.702c-0.57,0.352-1.276,0.65-2.173,0.65
	c-1.766,0-3.164-1.235-3.164-3.303C356.33,8.691,357.784,7.429,359.29,7.429z M360.948,10.277c0-1.287-0.598-2.002-1.63-2.002
	c-0.924,0-1.766,0.728-1.901,2.002H360.948z"/>
<path fill="#010201" d="M369.832,5.219c1.209,0,2.023,0.533,2.553,1.054l-0.651,0.688c-0.448-0.455-1.005-0.793-1.888-0.793
	c-1.807,0-2.961,1.326-2.961,3.445c0,2.145,1.06,3.497,2.961,3.497c0.639,0,1.263-0.195,1.616-0.507V10.38h-1.888V9.484h2.92v3.588
	c-0.584,0.546-1.576,0.988-2.771,0.988c-2.336,0-4.007-1.639-4.007-4.42C365.717,6.897,367.442,5.219,369.832,5.219z"/>
<path fill="#010201" d="M374.411,7.585h0.924l0.095,1.145h0.041c0.448-0.793,1.127-1.301,1.874-1.301
	c0.285,0,0.489,0.039,0.706,0.131l-0.217,0.936c-0.218-0.065-0.367-0.104-0.639-0.104c-0.557,0-1.222,0.39-1.67,1.455v4.057h-1.114
	L374.411,7.585L374.411,7.585z"/>
<path fill="#010201" d="M381.393,7.429c1.685,0,2.635,1.157,2.635,2.965c0,0.221-0.014,0.429-0.041,0.585h-4.454
	c0.082,1.364,0.938,2.223,2.2,2.223c0.625,0,1.154-0.195,1.644-0.494l0.394,0.702c-0.57,0.352-1.276,0.65-2.173,0.65
	c-1.766,0-3.164-1.235-3.164-3.303C378.433,8.691,379.886,7.429,381.393,7.429z M383.05,10.277c0-1.287-0.598-2.002-1.63-2.002
	c-0.924,0-1.766,0.728-1.901,2.002H383.05z"/>
<path fill="#010201" d="M385.591,7.585h0.924l0.095,0.91h0.041c0.625-0.598,1.304-1.066,2.214-1.066c1.385,0,2.01,0.858,2.01,2.471
	v4.004h-1.113v-3.861c0-1.183-0.381-1.689-1.25-1.689c-0.679,0-1.141,0.338-1.806,0.975v4.576h-1.114L385.591,7.585L385.591,7.585z"
	/>
<path fill="#010201" d="M396.69,9.9c0-0.807-0.285-1.586-1.358-1.586c-0.774,0-1.453,0.338-1.97,0.676l-0.447-0.741
	c0.61-0.377,1.534-0.819,2.594-0.819c1.616,0,2.295,1.027,2.295,2.601v3.874h-0.924l-0.095-0.754h-0.027
	c-0.639,0.494-1.371,0.91-2.187,0.91c-1.113,0-1.941-0.663-1.941-1.794C392.629,10.888,393.878,10.198,396.69,9.9z M394.883,13.201
	c0.639,0,1.168-0.299,1.807-0.845v-1.755c-2.214,0.26-2.961,0.779-2.961,1.586C393.729,12.903,394.231,13.201,394.883,13.201z"/>
<path fill="#010201" d="M402.233,7.429c0.761,0,1.263,0.273,1.847,0.729l-0.055-1.079V4.648h1.128v9.256h-0.924l-0.095-0.741h-0.041
	c-0.516,0.481-1.223,0.897-1.996,0.897c-1.657,0-2.729-1.196-2.729-3.303C399.368,8.703,400.725,7.429,402.233,7.429z
	 M402.341,13.162c0.611,0,1.141-0.286,1.684-0.871V8.99c-0.557-0.481-1.059-0.663-1.603-0.663c-1.059,0-1.9,0.975-1.9,2.418
	C400.522,12.252,401.187,13.162,402.341,13.162z"/>
<path fill="#010201" d="M407.111,5.596c0-0.416,0.339-0.688,0.773-0.688s0.774,0.272,0.774,0.688c0,0.403-0.34,0.689-0.774,0.689
	S407.111,5.999,407.111,5.596z M407.314,7.585h1.114v6.318h-1.114V7.585z"/>
<path fill="#010201" d="M410.587,7.585h0.924l0.095,0.91h0.041c0.625-0.598,1.304-1.066,2.214-1.066c1.385,0,2.01,0.858,2.01,2.471
	v4.004h-1.113v-3.861c0-1.183-0.381-1.689-1.25-1.689c-0.679,0-1.141,0.338-1.806,0.975v4.576h-1.114L410.587,7.585L410.587,7.585z"
	/>
<path fill="#010201" d="M420.422,7.429c1.685,0,2.635,1.157,2.635,2.965c0,0.221-0.014,0.429-0.041,0.585h-4.454
	c0.082,1.364,0.938,2.223,2.2,2.223c0.625,0,1.154-0.195,1.644-0.494l0.394,0.702c-0.57,0.352-1.276,0.65-2.173,0.65
	c-1.766,0-3.164-1.235-3.164-3.303C417.462,8.691,418.915,7.429,420.422,7.429z M422.079,10.277c0-1.287-0.598-2.002-1.63-2.002
	c-0.924,0-1.766,0.728-1.901,2.002H422.079z"/>
<circle fill="none" stroke="#010201" stroke-miterlimit="10" cx="259.927" cy="9.771" r="7.049"/>
</svg>
