<?xml version="1.0" encoding="utf-8"?>
<!-- Generator: Adobe Illustrator 17.0.0, SVG Export Plug-In . SVG Version: 6.00 Build 0)  -->
<!DOCTYPE svg PUBLIC "-//W3C//DTD SVG 1.1//EN" "http://www.w3.org/Graphics/SVG/1.1/DTD/svg11.dtd">
<svg version="1.1" id="Layer_1" xmlns="http://www.w3.org/2000/svg" xmlns:xlink="http://www.w3.org/1999/xlink" x="0px" y="0px"
	 width="600px" height="19.542px" viewBox="0 0 600 19.542" enable-background="new 0 0 600 19.542" xml:space="preserve">
<rect x="128.605" y="2.722" fill="#EC6554" width="63.524" height="14.097"/>
<g>
	<rect x="448.356" y="8.771" fill="#EC6554" width="33.011" height="2"/>
</g>
<g>
	<g>
		<circle fill="#EC6554" cx="481.243" cy="9.771" r="2.481"/>
	</g>
</g>
<rect x="0" y="0" fill="none" width="600" height="19.542"/>
<line fill="none" stroke="#9F9F9F" stroke-width="0.7" stroke-miterlimit="10" stroke-dasharray="6,3" x1="199.426" y1="0.001" x2="199.426" y2="18.992"/>
<line fill="none" stroke="#9F9F9F" stroke-width="0.7" stroke-miterlimit="10" stroke-dasharray="6,3" x1="440.97" y1="0.001" x2="440.97" y2="18.992"/>
<g>
	<g>
		<g>
			<defs>
				<circle id="SVGID_1_" cx="259.927" cy="9.771" r="7.049"/>
			</defs>
			<clipPath id="SVGID_2_">
				<use xlink:href="#SVGID_1_"  overflow="visible"/>
			</clipPath>
			<g id="ZlXAbX_1_" clip-path="url(#SVGID_2_)">
				<g>
					<g>
						<path fill="#FFFFFF" d="M251.442,2.687c6.994,0,13.987,0,20.981,0c0.05,0.058,0.046,0.13,0.046,0.199
							c0.001,0.381,0.001,0.761,0,1.142c0,0.062,0.005,0.125-0.036,0.179c-0.142,0.096-0.304,0.064-0.458,0.064
							c-4.116,0.002-8.232,0.001-12.347,0.002c-0.632,0-0.56-0.05-0.565,0.575c-0.002,0.22,0,0.44,0.001,0.66
							c0.001,0.148,0.07,0.214,0.216,0.213c0.094-0.001,0.188,0.002,0.283,0.002c4.116,0,8.232,0,12.347,0.001
							c0.156,0,0.315-0.023,0.465,0.045c0.065,0.041,0.093,0.103,0.093,0.178c0,0.452,0.013,0.905-0.007,1.357
							c-0.001,0.025-0.018,0.043-0.029,0.063c-0.143,0.095-0.304,0.063-0.459,0.063c-3.982,0.002-7.964,0-11.946,0.004
							c-0.303,0-0.688-0.132-0.888,0.066c-0.21,0.208-0.051,0.598-0.076,0.908c-0.006,0.078,0.003,0.157-0.001,0.235
							c-0.008,0.171,0.074,0.244,0.241,0.238c0.086-0.003,0.173,0.001,0.259,0.001c4.116,0,8.231,0,12.347,0.001
							c0.156,0,0.315-0.023,0.465,0.045c0.066,0.041,0.093,0.103,0.093,0.178c0.003,0.446,0.008,0.891-0.003,1.337
							c-0.001,0.032-0.016,0.06-0.035,0.085c-0.136,0.089-0.289,0.061-0.436,0.061c-2.647,0.002-5.295,0.001-7.942,0.001
							c-4.046,0-8.091,0-12.137,0c-0.519,0-0.519-0.001-0.52-0.514c0-2.357,0-4.713,0.001-7.07
							C251.396,2.899,251.369,2.785,251.442,2.687z"/>
						<path fill="#9BB1DA" d="M251.348,15.323c0-1.1,0-2.2,0-3.3c0.132-0.049,0.16,0.032,0.171,0.136
							c0.001,0.377-0.004,0.753,0,1.13c0.003,0.282,0.026,0.302,0.314,0.307c0.086,0.002,0.173,0,0.259,0
							c6.617,0,13.235,0,19.852,0.001c0.162,0,0.331-0.033,0.483,0.059c0.055,0.067,0.042,0.149,0.042,0.226
							c0.002,0.408,0.002,0.815,0,1.223c-0.001,0.091,0.02,0.193-0.083,0.252c-0.151,0.062-0.31,0.04-0.466,0.04
							c-6.629,0.001-13.258,0.001-19.886,0.001c-0.556,0-0.505-0.031-0.519,0.507c-0.008,0.303,0.06,0.612-0.054,0.908
							c-0.157,0.033-0.084-0.095-0.085-0.142c-0.007-0.374-0.003-0.748-0.005-1.122C251.37,15.475,251.392,15.395,251.348,15.323z"
							/>
						<path fill="#9BB1DA" d="M251.489,12.114c-0.025-0.065-0.072-0.096-0.141-0.092c0-0.487,0-0.974,0-1.462
							c0.046-0.081,0.023-0.169,0.023-0.254c0.001-2.455,0.001-4.911,0.002-7.366c0-0.085-0.022-0.173,0.022-0.254
							c0.016,0,0.031,0,0.047,0c-0.001,2.545-0.002,5.091-0.002,7.636c0,0.192,0.003,0.192,0.191,0.194c0.055,0.001,0.11,0,0.165,0
							c6.78,0,13.56,0,20.34,0c0.094,0,0.188,0.006,0.282,0.008c0.06,0.054,0.05,0.127,0.05,0.196c0.002,0.403,0.002,0.807,0,1.21
							c0,0.085,0.006,0.175-0.089,0.223c-0.112,0.048-0.231,0.038-0.349,0.038c-6.713,0.001-13.425,0.001-20.138-0.001
							C251.755,12.192,251.607,12.224,251.489,12.114z"/>
						<path fill="#E9E8E9" d="M272.375,12.12c0.072-0.04,0.044-0.11,0.045-0.168c0.001-0.475,0-0.95-0.001-1.426
							c0.002-0.455,0.003-0.91,0.005-1.365c0-0.072-0.003-0.141-0.049-0.2c-0.051-0.489-0.023-0.979-0.013-1.469
							c0.001-0.047,0.021-0.091,0.057-0.124c0.002-0.456,0.002-0.911,0.006-1.367c0-0.072-0.005-0.14-0.049-0.2
							c-0.052-0.491-0.024-0.983-0.013-1.474c0.001-0.047,0.024-0.09,0.059-0.124c0-0.505,0.001-1.011,0.001-1.516
							c0.03,0.019,0.1-0.046,0.095,0.047c-0.003,0.047,0,0.094,0,0.141c0,4.621,0,9.241,0,13.862c0,0.031-0.005,0.064,0.001,0.094
							c0.016,0.082-0.013,0.111-0.095,0.096c-0.038-0.007-0.078-0.001-0.118-0.001c-6.915,0-13.83,0-20.745,0
							c-0.14,0-0.14,0-0.212-0.047c0.162-0.079,0.335-0.067,0.508-0.067c6.686,0,13.372,0,20.058-0.001
							c0.123,0,0.253,0.03,0.366-0.047c0.094-0.086,0.068-0.2,0.072-0.306c0.017-0.378-0.032-0.758,0.025-1.135
							c0.079-0.048,0.043-0.126,0.043-0.191c0.003-0.482,0.001-0.964,0-1.446c-0.024-0.04-0.055-0.079-0.057-0.126
							C272.35,13.08,272.322,12.599,272.375,12.12z"/>
						<path fill="#3F3F3F" d="M272.369,16.835c-0.004,0.039-0.03,0.049-0.064,0.049c-0.071,0-0.141,0-0.212,0
							c-6.829,0-13.658,0-20.486,0c-0.086,0-0.173-0.004-0.259-0.006c0-0.519,0-1.037,0-1.556c0.088,0.043,0.046,0.124,0.047,0.186
							c0.004,0.384,0,0.767,0.004,1.151c0.001,0.054-0.038,0.125,0.041,0.163c0.125-0.091,0.271-0.066,0.41-0.067
							c2.395-0.002,4.79-0.001,7.184-0.001c4.295,0,8.59,0,12.885,0.002C272.071,16.756,272.235,16.715,272.369,16.835z"/>
						<path fill="#404141" d="M251.395,2.687c0.001,2.56,0.001,5.12,0.001,7.68c0,0.066,0.028,0.144-0.048,0.193
							c0-2.562,0-5.123,0.003-7.685C251.35,2.814,251.302,2.731,251.395,2.687z"/>
						<path fill="#9BB1DA" d="M272.419,7.368c0.001,0.475,0.003,0.951,0.001,1.426c0,0.058,0.027,0.128-0.045,0.168
							c-1.46-0.001-2.921-0.002-4.381-0.002c-2.905,0-5.81,0-8.715,0c-0.293,0-0.293,0-0.293-0.304c0-0.377-0.001-0.754,0.001-1.131
							c0.001-0.162,0.004-0.162,0.172-0.166c0.031-0.001,0.063,0,0.094,0c4.311,0,8.621,0,12.932,0
							C272.262,7.359,272.34,7.365,272.419,7.368z"/>
						<path fill="#9BB1DA" d="M272.421,4.203c0,0.461,0.002,0.922-0.002,1.384c-0.001,0.072,0.042,0.158-0.044,0.215
							c-1.5-0.001-3-0.002-4.5-0.002c-2.874,0-5.749,0-8.623-0.001c-0.301,0-0.265,0.038-0.266-0.259
							c-0.002-0.393-0.002-0.785,0-1.178c0.001-0.162,0.004-0.162,0.171-0.166c0.031-0.001,0.063,0,0.094,0
							c4.312,0,8.623,0,12.935,0C272.265,4.196,272.343,4.2,272.421,4.203z"/>
						<path fill="#EFE427" d="M254.359,5.465c0.046-0.109,0.033-0.203-0.066-0.278c-0.025-0.019-0.051-0.039-0.068-0.064
							c-0.06-0.086-0.178-0.188-0.162-0.258c0.03-0.133-0.028-0.281,0.064-0.4c0.019-0.024,0.04-0.058,0.065-0.063
							c0.04-0.009,0.037,0.039,0.044,0.062c0.068,0.23,0.235,0.375,0.439,0.472c0.089,0.042,0.128,0.166,0.25,0.146
							c0.117,0.242-0.018,0.444-0.102,0.655C254.595,5.773,254.473,5.626,254.359,5.465z"/>
						<path fill="#EFE528" d="M255.538,5.265c0.129-0.142,0.157-0.313,0.149-0.497c-0.003-0.068-0.013-0.156,0.049-0.197
							c0.1-0.065,0.153-0.208,0.307-0.188c0.065,0.008,0.127-0.017,0.057,0.092c-0.078,0.122-0.055,0.279-0.026,0.411
							c0.035,0.159,0.036,0.323,0.088,0.477c-0.056,0.203-0.299,0.355-0.549,0.343C255.508,5.573,255.451,5.431,255.538,5.265z"/>
						<path fill="#EFE427" d="M253.747,6.41c-0.135-0.091-0.269-0.165-0.447-0.143c-0.245,0.03-0.447-0.176-0.443-0.432
							c0-0.022,0.006-0.059,0.018-0.063c0.02-0.007,0.028,0.027,0.042,0.04c0.058,0.055,0.129,0.102,0.21,0.077
							c0.22-0.069,0.464-0.015,0.673-0.136c0.238,0.115,0.328,0.333,0.392,0.569C254.066,6.465,253.919,6.498,253.747,6.41z"/>
						<path fill="#EFE527" d="M256.541,5.889c0.144,0.021,0.23-0.071,0.32-0.159c0.145-0.142,0.428-0.171,0.599-0.063
							c0.058,0.036,0.079,0.102,0.006,0.112c-0.301,0.045-0.389,0.307-0.533,0.507c-0.038,0.052-0.091,0.103-0.111,0.171
							c-0.233,0.119-0.419-0.023-0.615-0.109C256.22,6.125,256.355,5.939,256.541,5.889z"/>
						<path fill="#EFE427" d="M254.875,8.215c-0.117,0.081-0.133,0.21-0.123,0.328c0.024,0.284-0.162,0.418-0.362,0.544
							c-0.048,0.03-0.109,0.027-0.144-0.031c-0.038-0.061,0.045-0.043,0.053-0.072c0.012-0.046,0.061-0.076,0.031-0.143
							c-0.031-0.068-0.034-0.152,0.015-0.224c0.008-0.012,0.02-0.035,0.016-0.041c-0.098-0.125-0.002-0.311-0.136-0.423
							c0.084-0.212,0.355-0.381,0.598-0.371C254.911,7.918,254.988,8.055,254.875,8.215z"/>
						<path fill="#EFE427" d="M253.938,7.549c-0.161,0.009-0.3,0.073-0.404,0.192c-0.131,0.15-0.298,0.142-0.471,0.134
							c-0.065-0.003-0.094-0.051-0.129-0.091c-0.042-0.049-0.056-0.076,0.033-0.108c0.132-0.047,0.237-0.131,0.317-0.266
							c0.078-0.133,0.192-0.249,0.274-0.384c0.219-0.049,0.415,0.028,0.608,0.116C254.215,7.348,254.103,7.463,253.938,7.549z"/>
						<path fill="#EFE528" d="M256.728,7.073c0.075,0.142,0.208,0.142,0.341,0.139c0.235-0.006,0.371,0.082,0.491,0.34
							c0.019,0.041,0.012,0.073-0.02,0.104c-0.028,0.026-0.049,0.013-0.081,0.002c-0.262-0.096-0.475-0.083-0.736,0
							c-0.052,0.017-0.123,0.028-0.187,0.031c-0.194-0.109-0.266-0.304-0.347-0.492C256.34,7.032,256.527,7.02,256.728,7.073z"/>
						<path fill="#EFE427" d="M256.025,8.077c0.037,0.145,0.111,0.265,0.218,0.372c0.151,0.151,0.154,0.332,0.025,0.52
							c-0.049,0.071-0.126,0.071-0.127-0.001c-0.002-0.135-0.096-0.194-0.175-0.258c-0.14-0.114-0.294-0.21-0.442-0.313
							c-0.005-0.003-0.015,0.002-0.023,0.003c-0.104-0.225-0.014-0.414,0.112-0.597C255.864,7.801,255.973,7.874,256.025,8.077z"/>
						<path fill="#E7DE23" d="M253.747,6.41c0.151,0.006,0.297-0.014,0.43-0.092c0.026-0.015,0.05-0.014,0.073,0.005
							c0.082,0.183,0.051,0.344-0.096,0.481c-0.468,0.103-0.935,0.078-1.402-0.004c-0.039-0.006-0.078-0.008-0.116-0.018
							c-0.033-0.008-0.055-0.035-0.052-0.068c0.001-0.009,0.038-0.014,0.057-0.023c0.218-0.1,0.464-0.085,0.69-0.174
							C253.459,6.467,253.616,6.483,253.747,6.41z"/>
						<path fill="#EEE427" d="M256.204,6.317c0.208,0.038,0.397,0.159,0.618,0.14c0.201,0.123,0.436,0.129,0.656,0.185
							c0.079,0.02,0.156,0.055,0.245,0.057c0.066,0.001,0.042,0.062-0.002,0.094c-0.504,0.085-1.008,0.123-1.51-0.011
							c-0.089-0.115-0.082-0.251-0.085-0.384C256.135,6.356,256.161,6.328,256.204,6.317z"/>
						<path fill="#EDE426" d="M256.025,8.077c-0.079-0.162-0.234-0.207-0.388-0.254c-0.065-0.028-0.123-0.062-0.099-0.149
							c0.119-0.094,0.224-0.212,0.384-0.242c0.362,0.305,0.703,0.631,0.996,1.004c0.039,0.024,0.061,0.064,0.011,0.085
							c-0.065,0.028-0.127,0.01-0.193-0.036c-0.209-0.142-0.427-0.27-0.642-0.401C256.075,8.074,256.048,8.079,256.025,8.077z"/>
						<path fill="#EEE427" d="M254.789,7.779c-0.196,0.113-0.412,0.197-0.565,0.375c-0.228,0.057-0.387,0.233-0.585,0.34
							c-0.069,0.038-0.128,0.047-0.194,0.025c-0.038-0.013-0.017-0.052-0.016-0.081c0.338-0.34,0.65-0.706,1.027-1.006
							c0.161,0.026,0.254,0.163,0.384,0.24C254.86,7.726,254.836,7.758,254.789,7.779z"/>
						<path fill="#ECE225" d="M255.638,5.704c0.184-0.098,0.397-0.154,0.524-0.34c0.207-0.067,0.368-0.212,0.552-0.318
							c0.07-0.04,0.144-0.133,0.243-0.047c-0.15,0.304-0.416,0.509-0.646,0.742c-0.117,0.119-0.21,0.274-0.389,0.321
							c-0.143-0.048-0.267-0.123-0.354-0.251C255.566,5.759,255.588,5.722,255.638,5.704z"/>
						<path fill="#EFE427" d="M255.638,5.704c-0.017,0.032-0.033,0.063-0.05,0.095c-0.179,0.112-0.301,0.019-0.411-0.116
							c-0.073-0.373-0.031-0.749-0.027-1.124c0.001-0.108-0.002-0.218,0.009-0.326c0.008-0.028-0.002-0.064,0.035-0.079
							s0.056,0.005,0.069,0.037c0.065,0.171,0.099,0.351,0.139,0.528c0.042,0.183,0.069,0.369,0.135,0.546
							C255.546,5.417,255.577,5.564,255.638,5.704z"/>
						<path fill="#EFE527" d="M254.789,7.779c0.016-0.031,0.032-0.063,0.047-0.094c0.161-0.027,0.304,0.001,0.417,0.129
							c0.066,0.46,0.04,0.92-0.009,1.38c-0.005,0.047-0.04,0.084-0.087,0.103c-0.117-0.067-0.098-0.214-0.094-0.291
							c0.005-0.098-0.03-0.182-0.049-0.26c-0.04-0.157-0.101-0.308-0.101-0.475c0-0.019-0.025-0.038-0.038-0.056
							C254.902,8.058,254.84,7.92,254.789,7.779z"/>
						<path fill="#EFE427" d="M255.16,4.233c0.051,0.075,0.056,0.158,0.055,0.246c-0.002,0.408-0.001,0.816-0.001,1.224
							c-0.084,0.147-0.23,0.103-0.357,0.117c-0.039-0.011-0.062-0.037-0.068-0.077c0.043-0.221,0.147-0.429,0.136-0.66
							c0.039-0.188,0.155-0.359,0.118-0.563C255.161,4.456,255.029,4.291,255.16,4.233z"/>
						<path fill="#EFE527" d="M255.158,9.297c0.055-0.074,0.057-0.158,0.057-0.245c-0.002-0.424-0.001-0.848-0.001-1.273
							c0.098-0.074,0.2-0.133,0.33-0.094c0.031,0.046,0.062,0.092,0.093,0.139c-0.078,0.184-0.138,0.373-0.136,0.577
							c-0.079,0.145-0.087,0.311-0.129,0.467c-0.03,0.112-0.093,0.22-0.075,0.348C255.301,9.244,255.285,9.409,255.158,9.297z"/>
						<path fill="#EFE427" d="M254.223,6.317H254.2h-0.023c-0.12-0.192-0.214-0.401-0.377-0.565
							c-0.094-0.18-0.182-0.365-0.316-0.518c-0.057-0.066-0.05-0.135-0.059-0.202c-0.006-0.048,0.053-0.041,0.091-0.035
							c0.279,0.265,0.547,0.54,0.819,0.812c0.066,0.066,0.144,0.125,0.152,0.23C254.435,6.166,254.403,6.312,254.223,6.317z"/>
						<path fill="#EFE427" d="M256.917,8.437c-0.137-0.068-0.223-0.193-0.326-0.298c-0.225-0.228-0.468-0.439-0.67-0.689
							c0.021-0.136,0.083-0.243,0.214-0.3c0.038,0.004,0.054,0.033,0.069,0.062c0.149,0.132,0.207,0.328,0.332,0.477
							c0.112,0.182,0.222,0.366,0.339,0.544C256.919,8.299,256.954,8.359,256.917,8.437z"/>
						<path fill="#EEE427" d="M254.459,6.034c-0.247-0.299-0.543-0.551-0.808-0.833c-0.056-0.06-0.143-0.101-0.135-0.204
							c0.089,0.004,0.156,0.055,0.228,0.101c0.201,0.129,0.39,0.278,0.615,0.367c0.143,0.092,0.287,0.185,0.43,0.277
							c0.016,0.019,0.032,0.037,0.048,0.056C254.755,5.947,254.621,6.013,254.459,6.034z"/>
						<path fill="#ECE225" d="M255.921,6.035c0.306-0.278,0.616-0.552,0.864-0.885c0.048-0.065,0.128-0.086,0.173-0.15
							c0.125,0.059,0.008,0.128-0.011,0.161c-0.11,0.192-0.231,0.378-0.361,0.557c-0.042,0.058-0.047,0.11-0.045,0.172
							c-0.062,0.021-0.113,0.066-0.135,0.121c-0.047,0.118-0.135,0.205-0.202,0.307c-0.005,0.026-0.021,0.042-0.047,0.048
							C255.991,6.317,255.931,6.194,255.921,6.035z"/>
						<path fill="#EEE427" d="M254.46,7.449c-0.292,0.343-0.629,0.642-0.945,0.963c-0.019,0.019-0.057,0.018-0.086,0.027
							c0.023-0.052,0.014-0.104,0.057-0.165c0.163-0.232,0.328-0.466,0.451-0.724c0.092-0.12,0.183-0.241,0.238-0.383
							c-0.012-0.046,0.015-0.062,0.053-0.069C254.379,7.166,254.444,7.291,254.46,7.449z"/>
						<path fill="#EEE427" d="M256.204,7.212c-0.027-0.004-0.043-0.021-0.052-0.045c-0.085-0.155-0.035-0.293,0.055-0.426
							c0.128,0.047,0.262,0.047,0.396,0.047c0.373,0.001,0.745,0.003,1.118,0.005c-0.037,0.072-0.109,0.079-0.176,0.09
							C257.35,6.916,257.165,7,256.96,6.98c-0.086-0.008-0.156,0.056-0.231,0.093C256.551,7.111,256.36,7.094,256.204,7.212z"/>
						<path fill="#EFE527" d="M254.224,7.117c-0.026,0.006-0.042,0.022-0.048,0.049c-0.206-0.047-0.412-0.093-0.618-0.14
							c-0.277-0.045-0.559-0.073-0.807-0.226c0.392-0.004,0.784-0.007,1.176-0.01c0.086-0.001,0.173,0.008,0.248-0.047
							C254.326,6.851,254.311,6.979,254.224,7.117z"/>
						<path fill="#FFFFFF" d="M272.375,12.12c0.045,0.06,0.049,0.128,0.049,0.2c-0.003,0.455-0.003,0.911-0.005,1.366
							c-0.094-0.003-0.188-0.009-0.282-0.009c-6.796,0-13.591,0-20.387-0.001c-0.36,0-0.307,0.053-0.311-0.31
							c-0.003-0.353-0.002-0.707,0.001-1.061c0.001-0.065-0.035-0.144,0.047-0.191c0.094,0.001,0.188,0.004,0.282,0.004
							c6.774,0,13.548,0,20.322,0C272.187,12.118,272.281,12.119,272.375,12.12z"/>
						<path fill="#FFFFFF" d="M272.369,16.835c-0.094-0.001-0.188-0.004-0.283-0.004c-6.78,0-13.561,0-20.341-0.001
							c-0.102,0-0.204-0.006-0.306-0.009c0-0.448,0.004-0.895-0.002-1.343c-0.002-0.123,0.036-0.175,0.159-0.159
							c0.031,0.004,0.063,0.001,0.094,0.001c6.856,0,13.712,0,20.567,0c0.039,0,0.079,0.001,0.118,0.001
							c0.027,0.056,0.05,0.11,0.049,0.177c-0.003,0.407-0.002,0.814-0.002,1.221C272.424,16.767,272.426,16.815,272.369,16.835z"/>
						<path fill="#EFE528" d="M254.224,7.117c-0.011-0.125,0.032-0.258-0.047-0.374c0.064-0.136,0.068-0.28,0.047-0.426
							c0.125-0.056,0.158-0.188,0.236-0.283c0.109-0.106,0.255-0.152,0.377-0.236c0.061-0.04,0.129-0.057,0.201-0.046
							c0.067,0.009,0.121-0.02,0.177-0.049c0.123,0.039,0.232,0.133,0.375,0.096c0.111,0.079,0.222,0.157,0.332,0.236
							c0.079,0.11,0.157,0.22,0.236,0.331c0.048,0.121,0.051,0.248,0.05,0.376c0.021,0.147-0.063,0.28-0.055,0.426
							c-0.118,0.061-0.13,0.209-0.231,0.284c-0.13,0.071-0.218,0.21-0.377,0.234c-0.111,0.027-0.211,0.096-0.33,0.094
							c-0.137,0.012-0.257-0.041-0.377-0.094c-0.173-0.003-0.247-0.164-0.377-0.236C254.351,7.359,254.342,7.2,254.224,7.117z"/>
					</g>
				</g>
			</g>
		</g>
	</g>
</g>
<path fill="#010201" d="M280.092,5.407h1.141v5.031c0,2.054,0.91,2.704,2.064,2.704c1.182,0,2.118-0.65,2.118-2.704V5.407h1.087
	v5.005c0,2.743-1.386,3.68-3.205,3.68s-3.205-0.937-3.205-3.68L280.092,5.407L280.092,5.407z"/>
<path fill="#010201" d="M288.691,7.617h0.924l0.095,1.145h0.041c0.448-0.793,1.127-1.301,1.874-1.301
	c0.285,0,0.489,0.039,0.706,0.131l-0.217,0.936c-0.218-0.065-0.367-0.104-0.639-0.104c-0.557,0-1.222,0.39-1.67,1.455v4.057h-1.114
	L288.691,7.617L288.691,7.617z"/>
<path fill="#010201" d="M293.243,7.617h1.127v3.861c0,1.183,0.367,1.69,1.236,1.69c0.679,0,1.154-0.325,1.778-1.066V7.617h1.114
	v6.318h-0.924l-0.095-0.988h-0.041c-0.611,0.689-1.263,1.145-2.173,1.145c-1.398,0-2.023-0.858-2.023-2.471L293.243,7.617
	L293.243,7.617z"/>
<path fill="#010201" d="M301.121,13.714v-0.053c-0.326-0.194-0.584-0.532-0.584-1.026c0-0.533,0.381-0.949,0.72-1.17v-0.053
	c-0.435-0.338-0.855-0.948-0.855-1.703c0-1.378,1.141-2.249,2.485-2.249c0.366,0,0.692,0.065,0.937,0.156h2.296v0.819h-1.358
	c0.312,0.286,0.543,0.767,0.543,1.3c0,1.353-1.072,2.197-2.417,2.197c-0.326,0-0.692-0.078-0.991-0.221
	c-0.231,0.194-0.421,0.402-0.421,0.754c0,0.402,0.271,0.688,1.168,0.688h1.276c1.534,0,2.309,0.455,2.309,1.509
	c0,1.17-1.29,2.184-3.341,2.184c-1.616,0-2.729-0.611-2.729-1.703C300.158,14.611,300.524,14.104,301.121,13.714z M303.05,16.106
	c1.263,0,2.091-0.624,2.091-1.287c0-0.585-0.475-0.78-1.33-0.78h-1.142c-0.258,0-0.57-0.025-0.855-0.104
	c-0.475,0.325-0.679,0.702-0.679,1.066C301.135,15.677,301.855,16.106,303.05,16.106z M304.286,9.709
	c0-0.923-0.624-1.469-1.398-1.469s-1.398,0.546-1.398,1.469c0,0.924,0.638,1.509,1.398,1.509S304.286,10.633,304.286,9.709z"/>
<path fill="#010201" d="M307.343,7.617h1.127v3.861c0,1.183,0.367,1.69,1.236,1.69c0.679,0,1.154-0.325,1.778-1.066V7.617h1.114
	v6.318h-0.924l-0.095-0.988h-0.041c-0.611,0.689-1.263,1.145-2.173,1.145c-1.398,0-2.023-0.858-2.023-2.471L307.343,7.617
	L307.343,7.617z"/>
<path fill="#010201" d="M318.495,9.931c0-0.807-0.286-1.586-1.358-1.586c-0.774,0-1.453,0.338-1.969,0.676L314.72,8.28
	c0.61-0.377,1.534-0.819,2.594-0.819c1.616,0,2.295,1.027,2.295,2.601v3.874h-0.924l-0.095-0.754h-0.027
	c-0.639,0.494-1.371,0.91-2.187,0.91c-1.113,0-1.941-0.663-1.941-1.794C314.435,10.919,315.684,10.23,318.495,9.931z
	 M316.689,13.233c0.639,0,1.168-0.299,1.807-0.845v-1.755c-2.214,0.26-2.961,0.779-2.961,1.586
	C315.535,12.934,316.037,13.233,316.689,13.233z"/>
<path fill="#010201" d="M321.703,15.768c0.747,0,1.222-0.572,1.494-1.352l0.149-0.469l-2.648-6.331h1.154l1.345,3.497
	c0.203,0.546,0.435,1.196,0.638,1.781h0.055c0.19-0.572,0.38-1.222,0.557-1.781l1.182-3.497h1.086l-2.484,6.838
	c-0.462,1.248-1.142,2.197-2.472,2.197c-0.299,0-0.558-0.052-0.774-0.13l0.217-0.845C321.335,15.716,321.539,15.768,321.703,15.768z
	"/>
<circle fill="none" stroke="#010201" stroke-miterlimit="10" cx="259.927" cy="9.771" r="7.049"/>
</svg>
