<?xml version="1.0" encoding="utf-8"?>
<!-- Generator: Adobe Illustrator 17.0.0, SVG Export Plug-In . SVG Version: 6.00 Build 0)  -->
<!DOCTYPE svg PUBLIC "-//W3C//DTD SVG 1.1//EN" "http://www.w3.org/Graphics/SVG/1.1/DTD/svg11.dtd">
<svg version="1.1" id="Layer_1" xmlns="http://www.w3.org/2000/svg" xmlns:xlink="http://www.w3.org/1999/xlink" x="0px" y="0px"
	 width="600px" height="19.542px" viewBox="0 0 600 19.542" enable-background="new 0 0 600 19.542" xml:space="preserve">
<rect x="0" y="0" fill="#EC6554" width="600" height="19.542"/>
<line fill="none" stroke="#9F9F9F" stroke-width="0.7" stroke-miterlimit="10" stroke-dasharray="6,3" x1="199.426" y1="0.001" x2="199.426" y2="18.992"/>
<line fill="none" stroke="#9F9F9F" stroke-width="0.7" stroke-miterlimit="10" stroke-dasharray="6,3" x1="440.97" y1="0.001" x2="440.97" y2="18.992"/>
<g>
	<g>
		<g>
			<rect x="451.885" y="8.771" fill="#FFFCEE" width="33.013" height="2"/>
		</g>
		<g>
			<g>
				<circle fill="#FFFCEE" cx="484.772" cy="9.771" r="2.481"/>
			</g>
		</g>
	</g>
</g>
<path fill="#FFFCEE" d="M67.679,7.421c-0.503-0.441-0.924-0.688-1.575-0.688c-0.733,0-1.182,0.364-1.182,1.04
	c0,1.56,3.694,1.248,3.694,3.874c0,1.235-0.761,2.146-2.105,2.379v1.339h-1.086v-1.3c-0.829-0.078-1.738-0.442-2.35-0.988
	l0.706-1.014c0.638,0.481,1.276,0.806,2.01,0.806c0.883,0,1.317-0.416,1.317-1.117c0-1.717-3.694-1.47-3.694-3.914
	c0-1.209,0.788-2.066,2.011-2.274V4.237h1.086v1.3c0.869,0.104,1.467,0.507,1.969,1.014L67.679,7.421z"/>
<path fill="#FFFCEE" d="M72.543,12.713h1.929V7.279h-1.589V6.343c0.855-0.156,1.453-0.364,1.996-0.677h1.168v7.047h1.697v1.222
	h-5.201V12.713z"/>
<path fill="#FFFCEE" d="M83.627,7.357c-0.312-0.364-0.855-0.624-1.371-0.624c-1.087,0-1.97,0.767-2.037,3.055
	c0.502-0.61,1.249-0.975,1.874-0.975c1.494,0,2.525,0.832,2.525,2.561c0,1.651-1.235,2.718-2.716,2.718
	c-1.697,0-3.137-1.262-3.137-4.043c0-3.212,1.63-4.537,3.395-4.537c1.046,0,1.793,0.416,2.31,0.936L83.627,7.357z M83.165,11.373
	c0-0.975-0.502-1.469-1.357-1.469c-0.489,0-1.06,0.26-1.548,0.949c0.162,1.469,0.773,2.093,1.615,2.093
	C82.595,12.947,83.165,12.388,83.165,11.373z"/>
<path fill="#FFFCEE" d="M91.41,11.803h-1.086v2.132h-1.467v-2.132h-3.816v-1.015l3.423-5.122h1.86v4.979h1.086
	C91.41,10.645,91.41,11.803,91.41,11.803z M88.858,10.646V8.774c0-0.481,0.041-1.235,0.067-1.716h-0.054
	c-0.218,0.429-0.462,0.845-0.706,1.287l-1.575,2.301H88.858z"/>
<path fill="#FFFCEE" d="M96.885,7.357c-0.312-0.364-0.855-0.624-1.371-0.624c-1.087,0-1.97,0.767-2.037,3.055
	c0.502-0.61,1.249-0.975,1.874-0.975c1.494,0,2.525,0.832,2.525,2.561c0,1.651-1.235,2.718-2.716,2.718
	c-1.697,0-3.137-1.262-3.137-4.043c0-3.212,1.63-4.537,3.395-4.537c1.046,0,1.793,0.416,2.31,0.936L96.885,7.357z M96.423,11.373
	c0-0.975-0.502-1.469-1.357-1.469c-0.489,0-1.06,0.26-1.548,0.949c0.162,1.469,0.773,2.093,1.615,2.093
	C95.853,12.947,96.423,12.388,96.423,11.373z"/>
<path fill="#FFFCEE" d="M99.536,12.244c0.326,0.364,0.855,0.624,1.385,0.624c1.087,0,1.97-0.767,2.037-3.055
	c-0.502,0.598-1.263,0.962-1.888,0.962c-1.48,0-2.512-0.832-2.512-2.562c0-1.65,1.235-2.703,2.716-2.703
	c1.684,0,3.123,1.248,3.123,4.029c0,3.212-1.616,4.551-3.395,4.551c-1.032,0-1.793-0.416-2.309-0.937L99.536,12.244z M102.917,8.735
	c-0.162-1.456-0.787-2.08-1.629-2.08c-0.706,0-1.29,0.559-1.29,1.56c0,0.976,0.502,1.482,1.371,1.482
	C101.859,9.697,102.443,9.424,102.917,8.735z"/>
<path fill="#FFFCEE" d="M105.323,15.482c0.869-0.325,1.371-0.91,1.371-1.573c-0.041,0-0.081,0-0.122,0
	c-0.529,0-1.005-0.338-1.005-0.923c0-0.559,0.476-0.923,1.046-0.923c0.733,0,1.168,0.572,1.168,1.534
	c0,1.273-0.774,2.262-2.119,2.704L105.323,15.482z"/>
<path fill="#FFFCEE" d="M108.624,9.762c0-2.796,1.141-4.251,2.934-4.251s2.934,1.469,2.934,4.251c0,2.795-1.141,4.329-2.934,4.329
	S108.624,12.557,108.624,9.762z M112.997,9.762c0-2.341-0.598-3.081-1.439-3.081c-0.828,0-1.439,0.74-1.439,3.081
	c0,2.34,0.611,3.159,1.439,3.159C112.4,12.921,112.997,12.102,112.997,9.762z"/>
<path fill="#FFFCEE" d="M119.396,6.928h-4.088V5.666h5.799v0.91c-2.023,2.405-2.377,4.134-2.526,7.358h-1.589
	C117.141,10.996,117.725,9.151,119.396,6.928z"/>
<path fill="#FFFCEE" d="M126.337,14.454v2.003h-1.562V7.552h1.29l0.109,0.676h0.054c0.557-0.455,1.276-0.832,2.01-0.832
	c1.657,0,2.621,1.273,2.621,3.25c0,2.184-1.371,3.445-2.852,3.445c-0.584,0-1.168-0.26-1.711-0.702L126.337,14.454z M127.682,12.856
	c0.883,0,1.562-0.754,1.562-2.197c0-1.273-0.435-2.028-1.439-2.028c-0.488,0-0.95,0.234-1.467,0.716v2.977
	C126.826,12.713,127.288,12.856,127.682,12.856z"/>
<path fill="#FFFCEE" d="M134.434,4.704h1.06l-3.164,11.311h-1.06L134.434,4.704z"/>
<path fill="#FFFCEE" d="M139.012,7.396c0.855,0,1.508,0.325,1.956,0.741l-0.747,0.948c-0.354-0.299-0.706-0.468-1.127-0.468
	c-1.073,0-1.82,0.845-1.82,2.132c0,1.274,0.733,2.119,1.779,2.119c0.543,0,1.005-0.26,1.371-0.546l0.652,0.949
	c-0.625,0.533-1.426,0.819-2.187,0.819c-1.82,0-3.219-1.223-3.219-3.342C135.671,8.617,137.233,7.396,139.012,7.396z"/>
<circle fill="none" stroke="#FFFCEE" stroke-miterlimit="10" cx="259.817" cy="9.771" r="7.049"/>
<path fill="#FFFCEE" d="M279.833,5.459h1.996v4.744c0,1.664,0.544,2.236,1.535,2.236s1.575-0.572,1.575-2.236V5.459h1.929v4.551
	c0,2.846-1.209,4.082-3.504,4.082s-3.531-1.236-3.531-4.082V5.459z"/>
<path fill="#FFFCEE" d="M288.663,7.487h1.63l0.136,1.131h0.054c0.489-0.871,1.223-1.287,1.915-1.287c0.38,0,0.611,0.053,0.802,0.131
	l-0.326,1.65c-0.244-0.064-0.448-0.104-0.733-0.104c-0.503,0-1.127,0.312-1.48,1.184v3.744h-1.996V7.487H288.663z"/>
<path fill="#FFFCEE" d="M293.934,7.487h1.997v3.758c0,0.924,0.258,1.223,0.842,1.223c0.502,0,0.801-0.209,1.195-0.715V7.487h1.996
	v6.449h-1.63l-0.149-0.898h-0.041c-0.57,0.65-1.194,1.055-2.118,1.055c-1.467,0-2.092-0.988-2.092-2.602L293.934,7.487
	L293.934,7.487z"/>
<path fill="#FFFCEE" d="M302.193,13.74v-0.053c-0.353-0.221-0.625-0.559-0.625-1.092c0-0.467,0.326-0.922,0.761-1.209v-0.051
	c-0.476-0.312-0.909-0.924-0.909-1.678c0-1.547,1.33-2.328,2.783-2.328c0.381,0,0.747,0.053,1.046,0.156h2.458v1.391h-1.072
	c0.122,0.195,0.217,0.508,0.217,0.846c0,1.482-1.168,2.172-2.648,2.172c-0.244,0-0.516-0.039-0.814-0.131
	c-0.177,0.143-0.244,0.26-0.244,0.48c0,0.326,0.271,0.482,1.019,0.482h1.086c1.657,0,2.566,0.48,2.566,1.637
	c0,1.34-1.453,2.314-3.762,2.314c-1.575,0-2.824-0.494-2.824-1.637C301.23,14.508,301.568,14.078,302.193,13.74z M304.366,15.483
	c0.896,0,1.548-0.352,1.548-0.793c0-0.404-0.366-0.508-1.031-0.508h-0.693c-0.461,0-0.733-0.025-0.95-0.078
	c-0.244,0.209-0.367,0.404-0.367,0.637C302.872,15.223,303.47,15.483,304.366,15.483z M305.127,9.658
	c0-0.676-0.394-1.041-0.924-1.041c-0.529,0-0.923,0.352-0.923,1.041c0,0.715,0.394,1.078,0.923,1.078
	C304.734,10.737,305.127,10.373,305.127,9.658z"/>
<path fill="#FFFCEE" d="M308.769,7.487h1.997v3.758c0,0.924,0.258,1.223,0.842,1.223c0.502,0,0.801-0.209,1.195-0.715V7.487h1.996
	v6.449h-1.63l-0.149-0.898h-0.041c-0.57,0.65-1.194,1.055-2.118,1.055c-1.467,0-2.092-0.988-2.092-2.602L308.769,7.487
	L308.769,7.487z"/>
<path fill="#FFFCEE" d="M320.029,9.787c-0.04-0.57-0.339-0.936-1.059-0.936c-0.57,0-1.141,0.221-1.793,0.586l-0.706-1.262
	c0.855-0.494,1.819-0.846,2.879-0.846c1.725,0,2.676,0.937,2.676,2.912v3.693h-1.63l-0.149-0.664h-0.041
	c-0.57,0.482-1.208,0.82-1.969,0.82c-1.223,0-1.996-0.859-1.996-1.951C316.241,10.789,317.368,10.049,320.029,9.787z M318.916,12.61
	c0.462,0,0.761-0.209,1.113-0.547v-1.131c-1.426,0.182-1.888,0.572-1.888,1.066C318.142,12.414,318.441,12.61,318.916,12.61z"/>
<path fill="#FFFCEE" d="M324.27,14.949c0.665,0,1.005-0.338,1.182-0.846l0.095-0.338l-2.594-6.279h2.01l0.964,2.77
	c0.19,0.586,0.354,1.195,0.53,1.834h0.054c0.149-0.611,0.299-1.223,0.462-1.834l0.815-2.77h1.914L327.365,14
	c-0.638,1.625-1.357,2.457-2.946,2.457c-0.407,0-0.68-0.053-0.951-0.129l0.354-1.457C323.943,14.897,324.12,14.949,324.27,14.949z"
	/>
<path fill="#EC6554" d="M230.466,11.959h-0.991v1.977h-1.861v-1.977h-3.734v-1.312l3.15-4.967h2.445v4.824h0.991L230.466,11.959
	L230.466,11.959z M227.613,10.504v-1.34c0-0.533,0.055-1.326,0.082-1.846h-0.055c-0.217,0.455-0.462,0.922-0.706,1.391l-1.141,1.795
	H227.613z"/>
<g>
	<g>
		<g>
			<g>
				<g>
					<defs>
						<circle id="SVGID_1_" cx="259.817" cy="9.771" r="7.049"/>
					</defs>
					<clipPath id="SVGID_2_">
						<use xlink:href="#SVGID_1_"  overflow="visible"/>
					</clipPath>
					<g clip-path="url(#SVGID_2_)">
						<g>
							<path fill="#FFFFFF" d="M251.332,2.687c6.994,0,13.987,0,20.981,0c0.05,0.058,0.046,0.13,0.046,0.199
								c0.001,0.381,0.001,0.761,0,1.142c0,0.062,0.005,0.125-0.036,0.179c-0.142,0.096-0.304,0.064-0.458,0.064
								c-4.116,0.002-8.232,0.001-12.347,0.002c-0.632,0-0.56-0.05-0.565,0.575c-0.002,0.22,0,0.44,0.001,0.66
								c0.001,0.148,0.07,0.214,0.216,0.213c0.094-0.001,0.188,0.002,0.283,0.002c4.116,0,8.232,0,12.347,0.001
								c0.156,0,0.315-0.023,0.465,0.045c0.065,0.041,0.093,0.103,0.093,0.178c0,0.452,0.013,0.905-0.007,1.357
								c-0.001,0.025-0.018,0.043-0.029,0.063c-0.143,0.095-0.304,0.063-0.459,0.063c-3.982,0.002-7.964,0-11.946,0.004
								c-0.303,0-0.688-0.132-0.888,0.066c-0.21,0.208-0.051,0.598-0.076,0.908c-0.006,0.078,0.003,0.157-0.001,0.235
								c-0.008,0.171,0.074,0.244,0.241,0.238c0.086-0.003,0.173,0.001,0.259,0.001c4.116,0,8.231,0,12.347,0.001
								c0.156,0,0.315-0.023,0.465,0.045c0.065,0.041,0.093,0.103,0.093,0.178c0.003,0.446,0.008,0.891-0.003,1.337
								c-0.001,0.032-0.016,0.06-0.035,0.085c-0.135,0.089-0.289,0.061-0.436,0.061c-2.647,0.002-5.295,0.001-7.942,0.001
								c-4.046,0-8.091,0-12.137,0c-0.519,0-0.519-0.001-0.52-0.514c0-2.357,0-4.713,0.001-7.07
								C251.286,2.899,251.259,2.785,251.332,2.687z"/>
							<path fill="#9BB1DA" d="M251.238,15.323c0-1.1,0-2.2,0-3.3c0.132-0.049,0.16,0.032,0.171,0.136
								c0.001,0.377-0.004,0.753,0,1.13c0.003,0.282,0.026,0.302,0.314,0.307c0.086,0.002,0.173,0,0.259,0
								c6.617,0,13.235,0,19.852,0.001c0.162,0,0.331-0.033,0.483,0.059c0.055,0.067,0.042,0.149,0.042,0.226
								c0.002,0.408,0.002,0.815,0,1.223c-0.001,0.091,0.02,0.193-0.083,0.252c-0.151,0.062-0.31,0.04-0.466,0.04
								c-6.629,0.001-13.258,0.001-19.886,0.001c-0.556,0-0.505-0.031-0.519,0.507c-0.008,0.303,0.06,0.612-0.054,0.908
								c-0.157,0.033-0.084-0.095-0.085-0.142c-0.007-0.374-0.003-0.748-0.005-1.122C251.26,15.475,251.282,15.395,251.238,15.323z"
								/>
							<path fill="#9BB1DA" d="M251.379,12.114c-0.025-0.065-0.072-0.096-0.141-0.092c0-0.487,0-0.974,0-1.462
								c0.046-0.081,0.023-0.169,0.023-0.254c0.001-2.455,0.001-4.911,0.002-7.366c0-0.085-0.022-0.173,0.022-0.254
								c0.016,0,0.031,0,0.047,0c-0.001,2.545-0.002,5.091-0.002,7.636c0,0.192,0.003,0.192,0.191,0.194c0.055,0.001,0.11,0,0.165,0
								c6.78,0,13.56,0,20.34,0c0.094,0,0.188,0.006,0.282,0.008c0.06,0.054,0.05,0.127,0.05,0.196c0.002,0.403,0.002,0.807,0,1.21
								c0,0.085,0.006,0.175-0.089,0.223c-0.112,0.048-0.231,0.038-0.349,0.038c-6.713,0.001-13.425,0.001-20.138-0.001
								C251.646,12.192,251.497,12.224,251.379,12.114z"/>
							<path fill="#E9E8E9" d="M272.266,12.12c0.072-0.04,0.044-0.11,0.045-0.168c0.001-0.475,0-0.95-0.001-1.426
								c0.002-0.455,0.002-0.91,0.005-1.365c0-0.072-0.003-0.141-0.049-0.2c-0.051-0.489-0.023-0.979-0.013-1.469
								c0.001-0.047,0.021-0.091,0.057-0.124c0.002-0.456,0.003-0.911,0.006-1.367c0.001-0.072-0.005-0.14-0.049-0.2
								c-0.052-0.491-0.024-0.983-0.013-1.474c0.001-0.047,0.024-0.09,0.059-0.124c0-0.505,0.001-1.011,0.001-1.516
								c0.03,0.019,0.1-0.046,0.095,0.047c-0.003,0.047,0,0.094,0,0.141c0,4.621,0,9.241,0,13.862c0,0.031-0.005,0.064,0.001,0.094
								c0.016,0.082-0.013,0.111-0.095,0.096c-0.038-0.007-0.078-0.001-0.118-0.001c-6.915,0-13.83,0-20.745,0
								c-0.14,0-0.14,0-0.212-0.047c0.162-0.079,0.335-0.067,0.508-0.067c6.686,0,13.372,0,20.058-0.001
								c0.123,0,0.253,0.03,0.366-0.047c0.094-0.086,0.068-0.2,0.072-0.306c0.017-0.378-0.032-0.758,0.025-1.135
								c0.079-0.048,0.043-0.126,0.043-0.191c0.003-0.482,0.001-0.964,0-1.446c-0.024-0.04-0.055-0.079-0.057-0.126
								C272.24,13.08,272.212,12.599,272.266,12.12z"/>
							<path fill="#3F3F3F" d="M272.259,16.835c-0.004,0.039-0.03,0.049-0.064,0.049c-0.071,0-0.141,0-0.212,0
								c-6.829,0-13.658,0-20.486,0c-0.086,0-0.173-0.004-0.259-0.006c0-0.519,0-1.037,0-1.556c0.088,0.043,0.046,0.124,0.047,0.186
								c0.004,0.384,0,0.767,0.004,1.151c0.001,0.054-0.038,0.125,0.041,0.163c0.125-0.091,0.271-0.066,0.41-0.067
								c2.395-0.002,4.79-0.001,7.184-0.001c4.295,0,8.59,0,12.885,0.002C271.961,16.756,272.125,16.715,272.259,16.835z"/>
							<path fill="#404141" d="M251.285,2.687c0.001,2.56,0.001,5.12,0.001,7.68c0,0.066,0.028,0.144-0.048,0.193
								c0-2.562,0-5.123,0.003-7.685C251.24,2.814,251.193,2.731,251.285,2.687z"/>
							<path fill="#9BB1DA" d="M272.309,7.368c0.001,0.475,0.003,0.951,0.001,1.426c0,0.058,0.027,0.128-0.045,0.168
								c-1.46-0.001-2.921-0.002-4.381-0.002c-2.905,0-5.81,0-8.715,0c-0.293,0-0.293,0-0.293-0.304
								c0-0.377-0.001-0.754,0.001-1.131c0.001-0.162,0.004-0.162,0.172-0.166c0.031-0.001,0.063,0,0.094,0c4.31,0,8.621,0,12.932,0
								C272.152,7.359,272.231,7.365,272.309,7.368z"/>
							<path fill="#9BB1DA" d="M272.311,4.203c0,0.461,0.002,0.922-0.002,1.384c-0.001,0.072,0.042,0.158-0.044,0.215
								c-1.5-0.001-3-0.002-4.5-0.002c-2.874,0-5.749,0-8.623-0.001c-0.301,0-0.265,0.038-0.266-0.259
								c-0.002-0.393-0.002-0.785,0-1.178c0.001-0.162,0.004-0.162,0.171-0.166c0.031-0.001,0.063,0,0.094,0
								c4.312,0,8.623,0,12.935,0C272.155,4.196,272.233,4.2,272.311,4.203z"/>
							<path fill="#EFE427" d="M254.249,5.465c0.046-0.109,0.033-0.203-0.066-0.278c-0.025-0.019-0.051-0.039-0.068-0.064
								c-0.06-0.086-0.178-0.188-0.162-0.258c0.03-0.133-0.028-0.281,0.064-0.4c0.019-0.024,0.04-0.058,0.065-0.063
								c0.04-0.009,0.037,0.039,0.044,0.062c0.068,0.23,0.235,0.375,0.439,0.472c0.089,0.042,0.128,0.166,0.25,0.146
								c0.117,0.242-0.018,0.444-0.102,0.655C254.485,5.773,254.363,5.626,254.249,5.465z"/>
							<path fill="#EFE528" d="M255.428,5.265c0.129-0.142,0.157-0.313,0.149-0.497c-0.003-0.068-0.013-0.156,0.049-0.197
								c0.1-0.065,0.153-0.208,0.307-0.188c0.065,0.008,0.127-0.017,0.057,0.092c-0.078,0.122-0.055,0.279-0.026,0.411
								c0.035,0.159,0.036,0.323,0.088,0.477c-0.056,0.203-0.299,0.355-0.549,0.343C255.398,5.573,255.341,5.431,255.428,5.265z"/>
							<path fill="#EFE427" d="M253.637,6.41c-0.135-0.091-0.269-0.165-0.447-0.143c-0.245,0.03-0.447-0.176-0.443-0.432
								c0-0.022,0.006-0.059,0.018-0.063c0.02-0.007,0.028,0.027,0.042,0.04c0.058,0.055,0.129,0.102,0.21,0.077
								c0.22-0.069,0.464-0.015,0.673-0.136c0.238,0.115,0.328,0.333,0.392,0.569C253.956,6.465,253.809,6.498,253.637,6.41z"/>
							<path fill="#EFE527" d="M256.431,5.889c0.144,0.021,0.23-0.071,0.32-0.159c0.145-0.142,0.428-0.171,0.599-0.063
								c0.058,0.036,0.079,0.102,0.006,0.112c-0.301,0.045-0.388,0.307-0.533,0.507c-0.038,0.052-0.091,0.103-0.111,0.171
								c-0.233,0.119-0.419-0.023-0.615-0.109C256.11,6.125,256.245,5.939,256.431,5.889z"/>
							<path fill="#EFE427" d="M254.765,8.215c-0.117,0.081-0.133,0.21-0.123,0.328c0.024,0.284-0.162,0.418-0.362,0.544
								c-0.048,0.03-0.109,0.027-0.144-0.031c-0.038-0.061,0.045-0.043,0.053-0.072c0.012-0.046,0.061-0.076,0.031-0.143
								c-0.031-0.068-0.034-0.152,0.015-0.224c0.008-0.012,0.02-0.035,0.016-0.041c-0.098-0.125-0.002-0.311-0.136-0.423
								c0.084-0.212,0.355-0.381,0.598-0.371C254.801,7.918,254.879,8.055,254.765,8.215z"/>
							<path fill="#EFE427" d="M253.828,7.549c-0.161,0.009-0.3,0.073-0.404,0.192c-0.131,0.15-0.298,0.142-0.471,0.134
								c-0.065-0.003-0.094-0.051-0.129-0.091c-0.042-0.049-0.056-0.076,0.033-0.108c0.132-0.047,0.237-0.131,0.317-0.266
								c0.078-0.133,0.192-0.249,0.274-0.384c0.219-0.049,0.415,0.028,0.608,0.116C254.105,7.348,253.993,7.463,253.828,7.549z"/>
							<path fill="#EFE528" d="M256.618,7.073c0.075,0.142,0.208,0.142,0.341,0.139c0.235-0.006,0.371,0.082,0.491,0.34
								c0.019,0.041,0.012,0.073-0.02,0.104c-0.028,0.026-0.049,0.013-0.081,0.002c-0.262-0.096-0.475-0.083-0.736,0
								c-0.052,0.017-0.123,0.028-0.187,0.031c-0.194-0.109-0.266-0.304-0.347-0.492C256.23,7.031,256.417,7.02,256.618,7.073z"/>
							<path fill="#EFE427" d="M255.915,8.077c0.037,0.145,0.111,0.265,0.218,0.372c0.151,0.151,0.154,0.332,0.025,0.52
								c-0.049,0.071-0.126,0.071-0.127-0.001c-0.002-0.135-0.096-0.194-0.175-0.258c-0.14-0.114-0.294-0.21-0.442-0.313
								c-0.005-0.003-0.015,0.002-0.023,0.003c-0.104-0.225-0.014-0.414,0.112-0.597C255.754,7.801,255.863,7.874,255.915,8.077z"/>
							<path fill="#E7DE23" d="M253.637,6.41c0.151,0.006,0.297-0.014,0.43-0.092c0.026-0.015,0.05-0.014,0.073,0.005
								c0.082,0.183,0.051,0.344-0.096,0.481c-0.468,0.103-0.935,0.078-1.402-0.004c-0.039-0.006-0.078-0.008-0.116-0.018
								c-0.033-0.008-0.055-0.035-0.052-0.068c0.001-0.009,0.038-0.014,0.057-0.023c0.218-0.1,0.464-0.085,0.69-0.174
								C253.349,6.467,253.506,6.483,253.637,6.41z"/>
							<path fill="#EEE427" d="M256.094,6.317c0.208,0.038,0.397,0.159,0.618,0.14c0.201,0.123,0.436,0.129,0.656,0.185
								c0.079,0.02,0.156,0.055,0.245,0.057c0.066,0.001,0.042,0.062-0.002,0.094c-0.504,0.085-1.008,0.123-1.51-0.011
								c-0.089-0.115-0.082-0.251-0.085-0.384C256.025,6.356,256.051,6.328,256.094,6.317z"/>
							<path fill="#EDE426" d="M255.915,8.077c-0.079-0.162-0.234-0.207-0.388-0.254c-0.065-0.028-0.123-0.062-0.099-0.149
								c0.119-0.094,0.224-0.212,0.384-0.242c0.362,0.305,0.703,0.631,0.996,1.004c0.039,0.024,0.061,0.064,0.011,0.085
								c-0.065,0.028-0.127,0.01-0.193-0.036c-0.209-0.142-0.427-0.27-0.642-0.401C255.965,8.074,255.938,8.079,255.915,8.077z"/>
							<path fill="#EEE427" d="M254.679,7.779c-0.196,0.113-0.412,0.197-0.565,0.375c-0.228,0.057-0.387,0.233-0.585,0.34
								c-0.069,0.038-0.128,0.047-0.194,0.025c-0.038-0.013-0.017-0.052-0.016-0.081c0.338-0.34,0.65-0.706,1.027-1.006
								c0.161,0.026,0.254,0.163,0.384,0.24C254.75,7.726,254.726,7.758,254.679,7.779z"/>
							<path fill="#ECE225" d="M255.528,5.704c0.184-0.098,0.397-0.154,0.524-0.34c0.207-0.067,0.368-0.212,0.552-0.318
								c0.07-0.04,0.144-0.133,0.243-0.047c-0.15,0.304-0.416,0.509-0.646,0.742c-0.117,0.119-0.21,0.274-0.389,0.321
								c-0.143-0.048-0.267-0.123-0.354-0.251C255.456,5.759,255.478,5.722,255.528,5.704z"/>
							<path fill="#EFE427" d="M255.528,5.704c-0.017,0.032-0.033,0.063-0.05,0.095c-0.179,0.112-0.301,0.019-0.411-0.116
								c-0.073-0.373-0.031-0.749-0.027-1.124c0.001-0.108-0.002-0.218,0.009-0.326c0.008-0.028-0.002-0.064,0.035-0.079
								s0.056,0.005,0.069,0.037c0.065,0.171,0.099,0.351,0.139,0.528c0.042,0.183,0.069,0.369,0.135,0.546
								C255.436,5.417,255.467,5.564,255.528,5.704z"/>
							<path fill="#EFE527" d="M254.679,7.779c0.016-0.031,0.032-0.063,0.047-0.094c0.161-0.027,0.304,0.001,0.417,0.129
								c0.066,0.46,0.04,0.92-0.009,1.38c-0.005,0.047-0.04,0.084-0.087,0.103c-0.117-0.067-0.098-0.214-0.094-0.291
								c0.005-0.098-0.03-0.182-0.049-0.26c-0.04-0.157-0.101-0.308-0.101-0.475c0-0.019-0.025-0.038-0.038-0.056
								C254.792,8.058,254.73,7.92,254.679,7.779z"/>
							<path fill="#EFE427" d="M255.05,4.233c0.051,0.075,0.056,0.158,0.055,0.246c-0.002,0.408-0.001,0.816-0.001,1.224
								c-0.084,0.147-0.23,0.103-0.357,0.117c-0.039-0.011-0.062-0.037-0.068-0.077c0.043-0.221,0.147-0.429,0.136-0.66
								c0.039-0.188,0.155-0.359,0.118-0.563C255.051,4.456,254.919,4.291,255.05,4.233z"/>
							<path fill="#EFE527" d="M255.048,9.297c0.055-0.074,0.057-0.158,0.057-0.245c-0.002-0.424-0.001-0.848-0.001-1.273
								c0.098-0.074,0.2-0.133,0.33-0.094c0.031,0.046,0.062,0.092,0.093,0.139c-0.078,0.184-0.138,0.373-0.136,0.577
								c-0.079,0.145-0.087,0.311-0.129,0.467c-0.03,0.112-0.093,0.22-0.075,0.348C255.191,9.244,255.175,9.409,255.048,9.297z"/>
							<path fill="#EFE427" d="M254.113,6.317h-0.023h-0.023c-0.12-0.192-0.214-0.401-0.377-0.565
								c-0.094-0.18-0.182-0.365-0.316-0.518c-0.057-0.066-0.05-0.135-0.059-0.202c-0.006-0.048,0.053-0.041,0.091-0.035
								c0.279,0.265,0.547,0.54,0.819,0.812c0.066,0.066,0.144,0.125,0.152,0.23C254.325,6.166,254.293,6.312,254.113,6.317z"/>
							<path fill="#EFE427" d="M256.808,8.437c-0.137-0.068-0.223-0.193-0.326-0.298c-0.225-0.228-0.468-0.439-0.67-0.689
								c0.021-0.136,0.083-0.243,0.214-0.3c0.038,0.004,0.054,0.033,0.069,0.062c0.149,0.132,0.207,0.328,0.332,0.477
								c0.113,0.182,0.222,0.366,0.339,0.544C256.809,8.299,256.844,8.359,256.808,8.437z"/>
							<path fill="#EEE427" d="M254.349,6.034c-0.247-0.299-0.543-0.551-0.808-0.833c-0.056-0.06-0.143-0.101-0.135-0.204
								c0.089,0.004,0.156,0.055,0.228,0.101c0.201,0.129,0.39,0.278,0.615,0.367c0.143,0.092,0.287,0.185,0.43,0.277
								c0.016,0.019,0.032,0.037,0.048,0.056C254.645,5.947,254.511,6.013,254.349,6.034z"/>
							<path fill="#ECE225" d="M255.811,6.035c0.306-0.278,0.616-0.552,0.864-0.885c0.048-0.065,0.128-0.086,0.173-0.15
								c0.125,0.059,0.008,0.128-0.011,0.161c-0.11,0.192-0.231,0.378-0.361,0.557c-0.042,0.058-0.047,0.11-0.045,0.172
								c-0.062,0.021-0.113,0.066-0.135,0.121c-0.047,0.118-0.135,0.205-0.202,0.307c-0.005,0.026-0.021,0.042-0.047,0.048
								C255.882,6.317,255.821,6.194,255.811,6.035z"/>
							<path fill="#EEE427" d="M254.35,7.449c-0.292,0.343-0.629,0.642-0.945,0.963c-0.018,0.019-0.057,0.018-0.086,0.027
								c0.023-0.052,0.014-0.104,0.057-0.165c0.163-0.232,0.328-0.466,0.451-0.724c0.092-0.12,0.183-0.241,0.238-0.383
								c-0.012-0.046,0.015-0.062,0.053-0.069C254.269,7.166,254.334,7.291,254.35,7.449z"/>
							<path fill="#EEE427" d="M256.094,7.212c-0.027-0.004-0.043-0.021-0.052-0.045c-0.084-0.155-0.035-0.293,0.055-0.426
								c0.128,0.047,0.262,0.047,0.396,0.047c0.373,0.001,0.745,0.003,1.118,0.005c-0.037,0.072-0.109,0.079-0.176,0.09
								C257.24,6.916,257.055,7,256.85,6.98c-0.086-0.008-0.156,0.056-0.231,0.093C256.441,7.111,256.25,7.094,256.094,7.212z"/>
							<path fill="#EFE527" d="M254.114,7.117c-0.026,0.006-0.042,0.022-0.048,0.049c-0.206-0.047-0.412-0.093-0.618-0.14
								c-0.277-0.045-0.559-0.073-0.807-0.226c0.392-0.004,0.784-0.007,1.176-0.01c0.086-0.001,0.173,0.008,0.248-0.047
								C254.216,6.851,254.201,6.979,254.114,7.117z"/>
							<path fill="#FFFFFF" d="M272.266,12.12c0.045,0.06,0.049,0.128,0.049,0.2c-0.003,0.455-0.003,0.911-0.005,1.366
								c-0.094-0.003-0.188-0.009-0.282-0.009c-6.796,0-13.591,0-20.387-0.001c-0.36,0-0.307,0.053-0.311-0.31
								c-0.003-0.354-0.002-0.707,0.001-1.061c0.001-0.065-0.035-0.144,0.047-0.191c0.094,0.001,0.188,0.004,0.282,0.004
								c6.774,0,13.548,0,20.322,0C272.077,12.118,272.171,12.119,272.266,12.12z"/>
							<path fill="#FFFFFF" d="M272.259,16.835c-0.094-0.001-0.188-0.004-0.283-0.004c-6.78,0-13.561,0-20.341-0.001
								c-0.102,0-0.204-0.006-0.306-0.009c0-0.448,0.004-0.895-0.002-1.343c-0.002-0.123,0.036-0.175,0.159-0.159
								c0.031,0.004,0.063,0.001,0.094,0.001c6.856,0,13.712,0,20.567,0c0.039,0,0.079,0.001,0.118,0.001
								c0.027,0.056,0.05,0.11,0.049,0.177c-0.003,0.407-0.002,0.814-0.002,1.221C272.314,16.767,272.317,16.815,272.259,16.835z"/>
							<path fill="#EFE528" d="M254.114,7.117c-0.011-0.125,0.032-0.258-0.047-0.374c0.064-0.136,0.068-0.28,0.047-0.426
								c0.124-0.056,0.158-0.188,0.236-0.283c0.109-0.106,0.255-0.152,0.377-0.236c0.061-0.04,0.129-0.057,0.201-0.046
								c0.067,0.009,0.121-0.02,0.177-0.049c0.123,0.039,0.232,0.133,0.375,0.096c0.111,0.079,0.222,0.157,0.332,0.236
								c0.079,0.11,0.157,0.22,0.236,0.331c0.048,0.121,0.051,0.248,0.05,0.376c0.021,0.147-0.063,0.28-0.055,0.426
								c-0.118,0.061-0.13,0.209-0.231,0.284c-0.13,0.071-0.218,0.21-0.377,0.234c-0.111,0.027-0.211,0.096-0.33,0.094
								c-0.137,0.012-0.257-0.041-0.377-0.094c-0.173-0.003-0.247-0.164-0.377-0.236C254.242,7.359,254.232,7.2,254.114,7.117z"/>
						</g>
					</g>
				</g>
			</g>
		</g>
	</g>
</g>
<circle fill="none" stroke="#FFFCEE" stroke-miterlimit="10" cx="259.817" cy="9.771" r="7.049"/>
<g>
	<path fill="#FFFCEE" d="M496.555,11.959c0.516,0.508,1.181,0.91,2.05,0.91c0.938,0,1.589-0.468,1.589-1.248
		c0-0.857-0.57-1.403-2.539-1.403V9.125c1.697,0,2.254-0.559,2.254-1.326c0-0.688-0.488-1.104-1.276-1.104
		c-0.679,0-1.208,0.312-1.738,0.78l-0.801-0.924c0.733-0.623,1.562-1.039,2.594-1.039c1.656,0,2.798,0.779,2.798,2.184
		c0,0.923-0.571,1.547-1.508,1.898v0.052c1.019,0.26,1.793,0.962,1.793,2.054c0,1.508-1.372,2.393-3.028,2.393
		c-1.399,0-2.322-0.521-2.934-1.17L496.555,11.959z"/>
	<path fill="#FFFCEE" d="M502.749,15.483c0.869-0.325,1.371-0.91,1.371-1.573c-0.041,0-0.081,0-0.122,0
		c-0.529,0-1.005-0.338-1.005-0.923c0-0.559,0.476-0.923,1.046-0.923c0.733,0,1.168,0.572,1.168,1.534
		c0,1.273-0.774,2.262-2.119,2.704L502.749,15.483z"/>
	<path fill="#FFFCEE" d="M506.05,9.763c0-2.796,1.141-4.251,2.934-4.251s2.934,1.469,2.934,4.251c0,2.795-1.141,4.329-2.934,4.329
		S506.05,12.558,506.05,9.763z M510.423,9.763c0-2.341-0.598-3.081-1.439-3.081c-0.828,0-1.439,0.74-1.439,3.081
		c0,2.34,0.611,3.159,1.439,3.159C509.825,12.922,510.423,12.103,510.423,9.763z"/>
	<path fill="#FFFCEE" d="M513.182,11.986c0.516,0.468,1.154,0.884,2.023,0.884c0.964,0,1.67-0.585,1.67-1.586
		c0-0.988-0.638-1.547-1.589-1.547c-0.557,0-0.869,0.143-1.385,0.468l-0.747-0.455l0.258-4.082h4.617V6.93h-3.259l-0.177,2.002
		c0.366-0.169,0.692-0.273,1.141-0.273c1.48,0,2.716,0.806,2.716,2.587c0,1.808-1.453,2.848-3.042,2.848
		c-1.398,0-2.309-0.533-2.946-1.145L513.182,11.986z"/>
</g>
</svg>
