<?xml version="1.0" encoding="utf-8"?>
<!-- Generator: Adobe Illustrator 17.0.0, SVG Export Plug-In . SVG Version: 6.00 Build 0)  -->
<!DOCTYPE svg PUBLIC "-//W3C//DTD SVG 1.1//EN" "http://www.w3.org/Graphics/SVG/1.1/DTD/svg11.dtd">
<svg version="1.1" id="Layer_1" xmlns="http://www.w3.org/2000/svg" xmlns:xlink="http://www.w3.org/1999/xlink" x="0px" y="0px"
	 width="600px" height="19.542px" viewBox="0 0 600 19.542" enable-background="new 0 0 600 19.542" xml:space="preserve">
<rect x="127.101" y="2.722" fill="#EC6554" width="65.027" height="14.097"/>
<g>
	<rect x="448.356" y="8.771" fill="#EC6554" width="37.962" height="2"/>
</g>
<g>
	<g>
		<circle fill="#EC6554" cx="486.194" cy="9.771" r="2.481"/>
	</g>
</g>
<rect x="0" y="0" fill="none" width="600" height="19.542"/>
<line fill="none" stroke="#9F9F9F" stroke-width="0.7" stroke-miterlimit="10" stroke-dasharray="6,3" x1="199.426" y1="0.549" x2="199.426" y2="18.997"/>
<line fill="none" stroke="#9F9F9F" stroke-width="0.7" stroke-miterlimit="10" stroke-dasharray="6,3" x1="440.97" y1="0.549" x2="440.97" y2="18.997"/>
<g>
	<g>
		<g>
			<defs>
				<circle id="SVGID_1_" cx="259.927" cy="9.771" r="7.158"/>
			</defs>
			<clipPath id="SVGID_2_">
				<use xlink:href="#SVGID_1_"  overflow="visible"/>
			</clipPath>
			<g id="UrfrR4_1_" clip-path="url(#SVGID_2_)">
				<g>
					<g>
						<path fill="#FFCC07" d="M248.799,7.314c0-1.65,0-3.3,0-4.95c7.444,0,14.888,0,22.331,0c0,1.65,0,3.3,0,4.95
							c-0.05,0.066-0.121,0.08-0.198,0.083c-0.093,0.004-0.186,0.004-0.279,0.004c-7.126,0-14.251,0-21.377,0
							c-0.093,0-0.186,0-0.279-0.004C248.92,7.394,248.849,7.38,248.799,7.314z"/>
						<path fill="#CC1436" d="M271.13,12.302c0,1.65,0,3.3,0,4.95c-7.444,0-14.888,0-22.331,0c0-1.65,0-3.3,0-4.95
							c0.05-0.066,0.121-0.08,0.198-0.083c0.093-0.004,0.186-0.004,0.279-0.004c7.126,0,14.251,0,21.377,0
							c0.093,0,0.186,0,0.279,0.004C271.008,12.222,271.08,12.236,271.13,12.302z"/>
						<path fill="#213D8A" d="M271.13,12.302c-3.644-0.002-7.289-0.005-10.933-0.005c-3.799,0-7.599,0.003-11.398,0.005
							c0-1.662,0-3.325,0-4.987c0.055,0.004,0.11,0.013,0.165,0.013c7.333,0.001,14.667,0.001,22,0c0.055,0,0.11-0.008,0.165-0.013
							C271.13,8.977,271.13,10.639,271.13,12.302z"/>
						<path fill="#FDFEFE" d="M255.081,11.011c0.204,0,0.363,0,0.531,0c0.056-0.152,0.11-0.301,0.179-0.488
							c0.059,0.192,0.106,0.347,0.159,0.52c0.163,0,0.32,0,0.546,0c-0.186,0.127-0.316,0.215-0.456,0.31
							c0.043,0.162,0.084,0.321,0.134,0.512c-0.151-0.117-0.277-0.214-0.418-0.323c-0.133,0.089-0.269,0.18-0.439,0.293
							c0.065-0.188,0.118-0.342,0.173-0.5C255.359,11.232,255.235,11.133,255.081,11.011z"/>
						<path fill="#FEFEFE" d="M263.751,11.868c0.054-0.199,0.095-0.352,0.138-0.511c-0.138-0.096-0.268-0.186-0.445-0.309
							c0.211,0,0.367,0,0.532,0c0.053-0.173,0.102-0.329,0.161-0.522c0.068,0.183,0.122,0.329,0.179,0.484c0.167,0,0.329,0,0.532,0
							c-0.153,0.122-0.276,0.219-0.41,0.326c0.053,0.154,0.106,0.308,0.171,0.498c-0.163-0.108-0.294-0.195-0.438-0.29
							C264.043,11.643,263.912,11.743,263.751,11.868z"/>
						<path fill="#FEFEFE" d="M262.271,9.644c-0.084-0.183-0.147-0.322-0.217-0.475c-0.164,0.014-0.325,0.029-0.528,0.047
							c0.148-0.136,0.264-0.243,0.389-0.358c-0.065-0.149-0.128-0.294-0.211-0.485c0.175,0.098,0.315,0.175,0.462,0.257
							c0.125-0.108,0.248-0.216,0.398-0.346c-0.04,0.193-0.072,0.348-0.106,0.514c0.14,0.084,0.275,0.165,0.454,0.272
							c-0.198,0.024-0.352,0.042-0.522,0.062C262.355,9.288,262.318,9.447,262.271,9.644z"/>
						<path fill="#FEFEFE" d="M258.405,9.218c-0.204-0.02-0.361-0.035-0.529-0.051c-0.069,0.151-0.136,0.295-0.22,0.478
							c-0.044-0.191-0.08-0.348-0.118-0.514c-0.164-0.018-0.321-0.036-0.526-0.059c0.175-0.105,0.31-0.185,0.456-0.272
							c-0.032-0.158-0.064-0.313-0.104-0.511c0.146,0.125,0.267,0.228,0.397,0.339c0.14-0.077,0.281-0.156,0.462-0.256
							c-0.082,0.186-0.145,0.329-0.213,0.484C258.131,8.967,258.248,9.074,258.405,9.218z"/>
						<path fill="#FEFEFF" d="M261.47,8.287c-0.189,0.093-0.326,0.161-0.473,0.233c0.019,0.162,0.038,0.32,0.067,0.563
							c-0.144-0.185-0.244-0.313-0.336-0.433c-0.193,0.093-0.334,0.161-0.516,0.248c0.094-0.183,0.166-0.323,0.243-0.472
							c-0.111-0.118-0.22-0.233-0.358-0.379c0.194,0.03,0.347,0.054,0.517,0.08c0.077-0.141,0.154-0.282,0.254-0.465
							c0.031,0.206,0.054,0.362,0.078,0.524C261.108,8.217,261.264,8.247,261.47,8.287z"/>
						<path fill="#FEFEFF" d="M259.237,8.67c-0.114,0.121-0.219,0.233-0.365,0.388c0.023-0.214,0.04-0.373,0.058-0.536
							c-0.148-0.074-0.289-0.145-0.469-0.236c0.194-0.037,0.345-0.065,0.52-0.098c0.023-0.152,0.047-0.313,0.078-0.521
							c0.097,0.173,0.172,0.308,0.257,0.46c0.156-0.025,0.316-0.05,0.515-0.081c-0.137,0.146-0.245,0.261-0.358,0.381
							c0.076,0.147,0.148,0.288,0.241,0.468C259.538,8.811,259.397,8.745,259.237,8.67z"/>
						<path fill="#FEFEFF" d="M256.477,9.635c0.103-0.122,0.205-0.243,0.323-0.383c0,0.183,0,0.344,0,0.515
							c0.144,0.061,0.289,0.122,0.475,0.201c-0.194,0.051-0.345,0.09-0.508,0.133c-0.015,0.16-0.03,0.317-0.05,0.522
							c-0.104-0.163-0.187-0.293-0.279-0.437c-0.16,0.035-0.32,0.071-0.513,0.113c0.121-0.148,0.221-0.272,0.328-0.404
							c-0.082-0.136-0.164-0.27-0.271-0.447C256.172,9.519,256.318,9.574,256.477,9.635z"/>
						<path fill="#FEFEFF" d="M263.674,9.893c0.107,0.132,0.207,0.256,0.329,0.406c-0.189-0.043-0.343-0.078-0.512-0.116
							c-0.085,0.134-0.17,0.267-0.278,0.437c-0.019-0.193-0.035-0.348-0.052-0.52c-0.151-0.039-0.304-0.079-0.508-0.132
							c0.183-0.078,0.329-0.14,0.472-0.201c0-0.168,0-0.328,0-0.518c0.118,0.139,0.222,0.261,0.327,0.385
							c0.157-0.06,0.304-0.115,0.494-0.188C263.838,9.623,263.756,9.758,263.674,9.893z"/>
					</g>
				</g>
			</g>
		</g>
	</g>
</g>
<path fill="#010201" d="M278.924,5.422h1.195l1.439,4.603c0.312,1.014,0.529,1.819,0.855,2.82h0.055
	c0.325-1.001,0.557-1.807,0.855-2.82l1.426-4.603h1.154l-2.824,8.528h-1.317L278.924,5.422z"/>
<path fill="#010201" d="M289.193,7.476c1.685,0,2.635,1.157,2.635,2.965c0,0.221-0.014,0.429-0.041,0.585h-4.454
	c0.082,1.364,0.938,2.223,2.2,2.223c0.625,0,1.154-0.195,1.644-0.494l0.394,0.702c-0.57,0.352-1.276,0.65-2.173,0.65
	c-1.766,0-3.164-1.235-3.164-3.303C286.233,8.738,287.686,7.476,289.193,7.476z M290.85,10.324c0-1.287-0.598-2.002-1.63-2.002
	c-0.924,0-1.766,0.728-1.901,2.002H290.85z"/>
<path fill="#010201" d="M293.391,7.632h0.924l0.095,0.91h0.041c0.625-0.598,1.304-1.066,2.214-1.066c1.385,0,2.01,0.858,2.01,2.471
	v4.004h-1.113V10.09c0-1.183-0.381-1.689-1.25-1.689c-0.679,0-1.141,0.338-1.806,0.975v4.576h-1.114L293.391,7.632L293.391,7.632z"
	/>
<path fill="#010201" d="M303.226,7.476c1.685,0,2.635,1.157,2.635,2.965c0,0.221-0.014,0.429-0.041,0.585h-4.454
	c0.082,1.364,0.938,2.223,2.2,2.223c0.625,0,1.154-0.195,1.644-0.494l0.394,0.702c-0.57,0.352-1.276,0.65-2.173,0.65
	c-1.766,0-3.164-1.235-3.164-3.303C300.266,8.738,301.719,7.476,303.226,7.476z M304.883,10.324c0-1.287-0.598-2.002-1.63-2.002
	c-0.924,0-1.766,0.728-1.901,2.002H304.883z"/>
<path fill="#010201" d="M306.786,13.379l3.477-4.875h-3.097V7.632h4.509v0.572l-3.477,4.875h3.586v0.871h-4.998L306.786,13.379
	L306.786,13.379z"/>
<path fill="#010201" d="M312.953,7.632h1.127v3.861c0,1.183,0.367,1.69,1.236,1.69c0.679,0,1.154-0.325,1.778-1.066V7.632h1.114
	v6.318h-0.924l-0.095-0.988h-0.041c-0.611,0.689-1.263,1.145-2.173,1.145c-1.398,0-2.023-0.858-2.023-2.471L312.953,7.632
	L312.953,7.632z"/>
<path fill="#010201" d="M322.842,7.476c1.685,0,2.635,1.157,2.635,2.965c0,0.221-0.014,0.429-0.041,0.585h-4.454
	c0.082,1.364,0.938,2.223,2.2,2.223c0.625,0,1.154-0.195,1.644-0.494l0.394,0.702c-0.57,0.352-1.276,0.65-2.173,0.65
	c-1.766,0-3.164-1.235-3.164-3.303C319.882,8.738,321.335,7.476,322.842,7.476z M324.499,10.324c0-1.287-0.598-2.002-1.63-2.002
	c-0.924,0-1.766,0.728-1.901,2.002H324.499z"/>
<path fill="#010201" d="M327.04,4.695h1.114v8.06c0,0.338,0.149,0.468,0.312,0.468c0.068,0,0.123,0,0.245-0.025l0.149,0.806
	c-0.149,0.065-0.34,0.104-0.639,0.104c-0.842,0-1.182-0.507-1.182-1.431V4.695H327.04z"/>
<path fill="#010201" d="M334.172,9.947c0-0.807-0.285-1.586-1.358-1.586c-0.774,0-1.453,0.338-1.97,0.676l-0.447-0.741
	c0.61-0.377,1.534-0.819,2.594-0.819c1.616,0,2.295,1.027,2.295,2.601v3.874h-0.924l-0.095-0.754h-0.027
	c-0.639,0.494-1.371,0.91-2.187,0.91c-1.113,0-1.941-0.663-1.941-1.794C330.112,10.935,331.361,10.246,334.172,9.947z
	 M332.366,13.249c0.639,0,1.168-0.299,1.807-0.845v-1.755c-2.214,0.26-2.961,0.779-2.961,1.586
	C331.211,12.95,331.713,13.249,332.366,13.249z"/>
<circle fill="none" stroke="#010201" stroke-miterlimit="10" cx="259.927" cy="9.771" r="7.049"/>
</svg>
