<?xml version="1.0" encoding="utf-8"?>
<!-- Generator: Adobe Illustrator 17.0.0, SVG Export Plug-In . SVG Version: 6.00 Build 0)  -->
<!DOCTYPE svg PUBLIC "-//W3C//DTD SVG 1.1//EN" "http://www.w3.org/Graphics/SVG/1.1/DTD/svg11.dtd">
<svg version="1.1" id="Layer_1" xmlns="http://www.w3.org/2000/svg" xmlns:xlink="http://www.w3.org/1999/xlink" x="0px" y="0px"
	 width="600px" height="19.542px" viewBox="0 0 600 19.542" enable-background="new 0 0 600 19.542" xml:space="preserve">
<rect x="0" y="0" fill="#EC6554" width="600" height="19.542"/>
<line fill="none" stroke="#9F9F9F" stroke-width="0.7" stroke-miterlimit="10" stroke-dasharray="6,3" x1="199.426" y1="0.549" x2="199.426" y2="18.997"/>
<line fill="none" stroke="#9F9F9F" stroke-width="0.7" stroke-miterlimit="10" stroke-dasharray="6,3" x1="440.97" y1="0.549" x2="440.97" y2="18.997"/>
<g>
	<g>
		<g>
			<rect x="451.885" y="8.771" fill="#FFFCEE" width="37.963" height="2"/>
		</g>
		<g>
			<g>
				<circle fill="#FFFCEE" cx="489.724" cy="9.771" r="2.481"/>
			</g>
		</g>
	</g>
</g>
<path fill="#FFFCEE" d="M67.679,7.437c-0.503-0.441-0.924-0.688-1.575-0.688c-0.733,0-1.182,0.364-1.182,1.04
	c0,1.56,3.694,1.248,3.694,3.874c0,1.235-0.761,2.146-2.105,2.379v1.339h-1.086v-1.3c-0.829-0.078-1.738-0.442-2.35-0.988
	l0.706-1.014c0.638,0.481,1.276,0.806,2.01,0.806c0.883,0,1.317-0.416,1.317-1.117c0-1.717-3.694-1.47-3.694-3.914
	c0-1.209,0.788-2.066,2.011-2.274V4.252h1.086v1.3c0.869,0.104,1.467,0.507,1.969,1.014L67.679,7.437z"/>
<path fill="#FFFCEE" d="M72.543,12.729h1.929V7.294h-1.589V6.359c0.855-0.156,1.453-0.364,1.996-0.677h1.168v7.047h1.697v1.222
	h-5.201V12.729z"/>
<path fill="#FFFCEE" d="M83.627,7.372c-0.312-0.364-0.855-0.624-1.371-0.624c-1.087,0-1.97,0.767-2.037,3.055
	c0.502-0.61,1.249-0.975,1.874-0.975c1.494,0,2.525,0.832,2.525,2.561c0,1.651-1.235,2.718-2.716,2.718
	c-1.697,0-3.137-1.262-3.137-4.043c0-3.212,1.63-4.537,3.395-4.537c1.046,0,1.793,0.416,2.31,0.936L83.627,7.372z M83.165,11.389
	c0-0.975-0.502-1.469-1.357-1.469c-0.489,0-1.06,0.26-1.548,0.949c0.162,1.469,0.773,2.093,1.615,2.093
	C82.595,12.962,83.165,12.404,83.165,11.389z"/>
<path fill="#FFFCEE" d="M86.915,9.712V9.661c-0.665-0.455-1.194-1.066-1.194-1.937c0-1.339,1.113-2.196,2.607-2.196
	c1.548,0,2.539,0.896,2.539,2.235c0,0.819-0.598,1.509-1.154,1.898v0.052c0.802,0.429,1.494,1.04,1.494,2.146
	c0,1.273-1.168,2.249-2.92,2.249c-1.684,0-2.934-0.937-2.934-2.275C85.354,10.804,86.101,10.128,86.915,9.712z M88.315,13.04
	c0.828,0,1.426-0.468,1.426-1.235c0-0.896-0.91-1.222-2.078-1.677c-0.543,0.377-0.937,0.91-0.937,1.547
	C86.726,12.494,87.432,13.04,88.315,13.04z M89.577,7.853c0-0.728-0.476-1.261-1.276-1.261c-0.666,0-1.182,0.416-1.182,1.131
	c0,0.832,0.774,1.196,1.738,1.561C89.319,8.841,89.577,8.373,89.577,7.853z"/>
<path fill="#FFFCEE" d="M92.472,12c0.516,0.468,1.154,0.884,2.023,0.884c0.964,0,1.67-0.585,1.67-1.586
	c0-0.988-0.638-1.547-1.589-1.547c-0.557,0-0.869,0.143-1.385,0.468l-0.747-0.455l0.258-4.082h4.617v1.262H94.06l-0.177,2.002
	c0.367-0.169,0.692-0.273,1.141-0.273c1.48,0,2.716,0.806,2.716,2.587c0,1.808-1.453,2.848-3.042,2.848
	c-1.398,0-2.309-0.533-2.946-1.145L92.472,12z"/>
<path fill="#FFFCEE" d="M98.599,9.778c0-2.796,1.141-4.251,2.934-4.251s2.934,1.469,2.934,4.251c0,2.795-1.141,4.329-2.934,4.329
	S98.599,12.573,98.599,9.778z M102.972,9.778c0-2.341-0.598-3.081-1.439-3.081c-0.828,0-1.439,0.74-1.439,3.081
	c0,2.34,0.611,3.159,1.439,3.159C102.374,12.937,102.972,12.118,102.972,9.778z"/>
<path fill="#FFFCEE" d="M105.323,15.497c0.869-0.325,1.371-0.91,1.371-1.573c-0.041,0-0.081,0-0.122,0
	c-0.529,0-1.005-0.338-1.005-0.923c0-0.559,0.476-0.923,1.046-0.923c0.733,0,1.168,0.572,1.168,1.534
	c0,1.273-0.774,2.262-2.119,2.704L105.323,15.497z"/>
<path fill="#FFFCEE" d="M109.562,12.26c0.326,0.364,0.855,0.624,1.385,0.624c1.087,0,1.97-0.767,2.037-3.055
	c-0.502,0.598-1.263,0.962-1.888,0.962c-1.48,0-2.512-0.832-2.512-2.562c0-1.65,1.235-2.703,2.716-2.703
	c1.684,0,3.123,1.248,3.123,4.029c0,3.212-1.616,4.551-3.395,4.551c-1.032,0-1.793-0.416-2.309-0.937L109.562,12.26z M112.943,8.75
	c-0.162-1.456-0.787-2.08-1.629-2.08c-0.706,0-1.29,0.559-1.29,1.56c0,0.976,0.502,1.482,1.371,1.482
	C111.884,9.712,112.468,9.44,112.943,8.75z"/>
<path fill="#FFFCEE" d="M120.169,7.372c-0.312-0.364-0.855-0.624-1.371-0.624c-1.087,0-1.97,0.767-2.037,3.055
	c0.502-0.61,1.249-0.975,1.874-0.975c1.494,0,2.525,0.832,2.525,2.561c0,1.651-1.235,2.718-2.716,2.718
	c-1.697,0-3.137-1.262-3.137-4.043c0-3.212,1.63-4.537,3.395-4.537c1.046,0,1.793,0.416,2.309,0.936L120.169,7.372z M119.708,11.389
	c0-0.975-0.503-1.469-1.358-1.469c-0.489,0-1.06,0.26-1.548,0.949c0.162,1.469,0.773,2.093,1.615,2.093
	C119.137,12.962,119.708,12.404,119.708,11.389z"/>
<path fill="#FFFCEE" d="M126.337,14.47v2.003h-1.562V7.568h1.29l0.109,0.676h0.054c0.557-0.455,1.276-0.832,2.01-0.832
	c1.657,0,2.621,1.273,2.621,3.25c0,2.184-1.371,3.445-2.852,3.445c-0.584,0-1.168-0.26-1.711-0.702L126.337,14.47z M127.682,12.871
	c0.883,0,1.562-0.754,1.562-2.197c0-1.273-0.435-2.028-1.439-2.028c-0.488,0-0.95,0.234-1.467,0.716v2.977
	C126.826,12.729,127.288,12.871,127.682,12.871z"/>
<path fill="#FFFCEE" d="M134.434,4.72h1.06l-3.164,11.311h-1.06L134.434,4.72z"/>
<path fill="#FFFCEE" d="M139.012,7.411c0.855,0,1.508,0.325,1.956,0.741L140.221,9.1c-0.354-0.299-0.706-0.468-1.127-0.468
	c-1.073,0-1.82,0.845-1.82,2.132c0,1.274,0.733,2.119,1.779,2.119c0.543,0,1.005-0.26,1.371-0.546l0.652,0.949
	c-0.625,0.533-1.426,0.819-2.187,0.819c-1.82,0-3.219-1.223-3.219-3.342C135.671,8.633,137.233,7.411,139.012,7.411z"/>
<circle fill="none" stroke="#FFFCEE" stroke-miterlimit="10" cx="259.817" cy="9.771" r="7.049"/>
<path fill="#FFFCEE" d="M278.734,5.475h2.118l1.073,3.951c0.258,0.924,0.435,1.781,0.706,2.719h0.054
	c0.272-0.938,0.448-1.795,0.707-2.719l1.045-3.951h2.051l-2.675,8.477h-2.404L278.734,5.475z"/>
<path fill="#FFFCEE" d="M289.723,7.346c1.914,0,2.865,1.34,2.865,3.096c0,0.338-0.041,0.648-0.082,0.805h-4.033
	c0.177,0.975,0.855,1.404,1.752,1.404c0.503,0,0.965-0.143,1.453-0.43l0.666,1.158c-0.693,0.455-1.589,0.729-2.391,0.729
	c-1.929,0-3.408-1.248-3.408-3.381C286.545,8.633,288.107,7.346,289.723,7.346z M290.891,10.065c0-0.742-0.326-1.262-1.128-1.262
	c-0.624,0-1.168,0.402-1.304,1.262H290.891z"/>
<path fill="#FFFCEE" d="M293.907,7.502h1.63l0.136,0.82h0.054c0.57-0.521,1.25-0.977,2.159-0.977c1.467,0,2.092,0.988,2.092,2.602
	v4.004h-1.996v-3.758c0-0.936-0.258-1.223-0.829-1.223c-0.502,0-0.814,0.223-1.249,0.625v4.355h-1.996L293.907,7.502L293.907,7.502z
	"/>
<path fill="#FFFCEE" d="M304.394,7.346c1.914,0,2.865,1.34,2.865,3.096c0,0.338-0.041,0.648-0.082,0.805h-4.033
	c0.177,0.975,0.855,1.404,1.752,1.404c0.503,0,0.965-0.143,1.453-0.43l0.666,1.158c-0.693,0.455-1.589,0.729-2.391,0.729
	c-1.929,0-3.408-1.248-3.408-3.381C301.216,8.633,302.777,7.346,304.394,7.346z M305.562,10.065c0-0.742-0.326-1.262-1.128-1.262
	c-0.624,0-1.168,0.402-1.304,1.262H305.562z"/>
<path fill="#FFFCEE" d="M308.212,12.924l2.825-3.926h-2.513V7.502h4.998v1.014l-2.825,3.939h2.92v1.496h-5.405V12.924z"/>
<path fill="#FFFCEE" d="M314.556,7.502h1.997v3.758c0,0.924,0.258,1.223,0.842,1.223c0.502,0,0.801-0.209,1.195-0.715V7.502h1.996
	v6.449h-1.63l-0.149-0.898h-0.041c-0.57,0.65-1.194,1.055-2.118,1.055c-1.467,0-2.092-0.988-2.092-2.602L314.556,7.502
	L314.556,7.502z"/>
<path fill="#FFFCEE" d="M325.057,7.346c1.914,0,2.865,1.34,2.865,3.096c0,0.338-0.041,0.648-0.082,0.805h-4.033
	c0.177,0.975,0.855,1.404,1.752,1.404c0.503,0,0.965-0.143,1.453-0.43l0.666,1.158c-0.693,0.455-1.589,0.729-2.391,0.729
	c-1.929,0-3.408-1.248-3.408-3.381C321.879,8.633,323.441,7.346,325.057,7.346z M326.225,10.065c0-0.742-0.326-1.262-1.128-1.262
	c-0.624,0-1.168,0.402-1.304,1.262H326.225z"/>
<path fill="#FFFCEE" d="M329.241,4.838h1.996v7.189c0,0.402,0.19,0.533,0.354,0.533c0.081,0,0.136,0,0.244-0.027l0.244,1.418
	c-0.217,0.09-0.557,0.156-1.005,0.156c-1.371,0-1.833-0.859-1.833-2.158L329.241,4.838L329.241,4.838z"/>
<path fill="#FFFCEE" d="M336.603,9.803c-0.04-0.57-0.339-0.936-1.059-0.936c-0.57,0-1.141,0.221-1.793,0.586l-0.706-1.262
	c0.855-0.494,1.819-0.846,2.879-0.846c1.725,0,2.676,0.937,2.676,2.912v3.693h-1.63l-0.149-0.664h-0.041
	c-0.57,0.482-1.208,0.82-1.969,0.82c-1.223,0-1.996-0.859-1.996-1.951C332.815,10.805,333.942,10.065,336.603,9.803z
	 M335.489,12.625c0.462,0,0.761-0.209,1.113-0.547v-1.131c-1.426,0.182-1.888,0.572-1.888,1.066
	C334.715,12.43,335.014,12.625,335.489,12.625z"/>
<path fill="#EC6554" d="M230.466,11.975h-0.991v1.977h-1.861v-1.977h-3.734v-1.312l3.15-4.967h2.445v4.824h0.991L230.466,11.975
	L230.466,11.975z M227.613,10.52V9.18c0-0.533,0.055-1.326,0.082-1.846h-0.055c-0.217,0.455-0.462,0.922-0.706,1.391l-1.141,1.795
	H227.613z"/>
<g>
	<g>
		<g>
			<g>
				<g>
					<defs>
						<circle id="SVGID_1_" cx="259.817" cy="9.771" r="7.158"/>
					</defs>
					<clipPath id="SVGID_2_">
						<use xlink:href="#SVGID_1_"  overflow="visible"/>
					</clipPath>
					<g clip-path="url(#SVGID_2_)">
						<g>
							<path fill="#FFCC07" d="M248.689,7.314c0-1.65,0-3.3,0-4.95c7.444,0,14.887,0,22.331,0c0,1.65,0,3.3,0,4.95
								c-0.05,0.066-0.121,0.08-0.198,0.083c-0.093,0.004-0.186,0.004-0.279,0.004c-7.126,0-14.251,0-21.377,0
								c-0.093,0-0.186,0-0.279-0.004C248.81,7.394,248.739,7.38,248.689,7.314z"/>
							<path fill="#CC1436" d="M271.02,12.302c0,1.65,0,3.3,0,4.95c-7.444,0-14.888,0-22.331,0c0-1.65,0-3.3,0-4.95
								c0.05-0.066,0.121-0.08,0.198-0.083c0.093-0.004,0.186-0.004,0.279-0.004c7.126,0,14.251,0,21.377,0
								c0.093,0,0.186,0,0.279,0.004C270.898,12.222,270.97,12.236,271.02,12.302z"/>
							<path fill="#213D8A" d="M271.02,12.302c-3.644-0.002-7.289-0.005-10.933-0.005c-3.799,0-7.599,0.003-11.398,0.005
								c0-1.662,0-3.325,0-4.987c0.055,0.004,0.11,0.013,0.165,0.013c7.333,0.001,14.667,0.001,22,0c0.055,0,0.11-0.008,0.165-0.013
								C271.02,8.977,271.02,10.639,271.02,12.302z"/>
							<path fill="#FDFEFE" d="M254.971,11.011c0.204,0,0.363,0,0.531,0c0.056-0.152,0.11-0.301,0.179-0.488
								c0.059,0.192,0.106,0.347,0.159,0.52c0.163,0,0.32,0,0.546,0c-0.186,0.127-0.316,0.215-0.456,0.31
								c0.043,0.162,0.084,0.321,0.134,0.512c-0.151-0.117-0.277-0.214-0.418-0.323c-0.133,0.089-0.269,0.18-0.439,0.293
								c0.065-0.188,0.118-0.342,0.173-0.5C255.249,11.232,255.125,11.133,254.971,11.011z"/>
							<path fill="#FEFEFE" d="M263.641,11.868c0.054-0.199,0.095-0.352,0.138-0.511c-0.138-0.096-0.268-0.186-0.445-0.309
								c0.211,0,0.367,0,0.532,0c0.053-0.173,0.102-0.329,0.161-0.522c0.068,0.183,0.122,0.329,0.179,0.484c0.167,0,0.329,0,0.532,0
								c-0.153,0.122-0.276,0.219-0.41,0.326c0.053,0.154,0.106,0.308,0.171,0.498c-0.163-0.108-0.294-0.195-0.438-0.29
								C263.933,11.643,263.802,11.743,263.641,11.868z"/>
							<path fill="#FEFEFE" d="M262.162,9.644c-0.084-0.183-0.147-0.322-0.217-0.475c-0.164,0.014-0.325,0.029-0.528,0.047
								c0.148-0.136,0.264-0.243,0.39-0.358c-0.065-0.149-0.128-0.294-0.211-0.485c0.175,0.098,0.315,0.175,0.462,0.257
								c0.125-0.108,0.248-0.216,0.398-0.346c-0.04,0.193-0.072,0.348-0.106,0.514c0.14,0.084,0.275,0.165,0.454,0.272
								c-0.198,0.024-0.352,0.042-0.522,0.062C262.245,9.288,262.208,9.447,262.162,9.644z"/>
							<path fill="#FEFEFE" d="M258.295,9.218c-0.204-0.02-0.361-0.035-0.529-0.051c-0.069,0.151-0.136,0.295-0.22,0.478
								c-0.044-0.191-0.08-0.348-0.118-0.514c-0.164-0.018-0.321-0.036-0.526-0.059c0.175-0.105,0.31-0.185,0.456-0.272
								c-0.032-0.158-0.064-0.313-0.104-0.511c0.146,0.125,0.267,0.228,0.397,0.339c0.14-0.077,0.281-0.156,0.462-0.256
								c-0.082,0.186-0.145,0.329-0.213,0.484C258.021,8.967,258.138,9.074,258.295,9.218z"/>
							<path fill="#FEFEFF" d="M261.36,8.287c-0.189,0.093-0.326,0.161-0.473,0.233c0.019,0.162,0.038,0.32,0.067,0.563
								c-0.144-0.185-0.244-0.313-0.336-0.433c-0.193,0.093-0.334,0.161-0.516,0.248c0.094-0.183,0.166-0.323,0.243-0.472
								c-0.111-0.118-0.22-0.233-0.358-0.379c0.194,0.03,0.347,0.054,0.517,0.08c0.077-0.141,0.154-0.282,0.254-0.465
								c0.031,0.206,0.054,0.362,0.078,0.524C260.998,8.217,261.154,8.247,261.36,8.287z"/>
							<path fill="#FEFEFF" d="M259.127,8.67c-0.114,0.121-0.219,0.233-0.365,0.388c0.023-0.214,0.04-0.373,0.058-0.536
								c-0.148-0.074-0.289-0.145-0.469-0.236c0.194-0.037,0.345-0.065,0.52-0.098c0.023-0.152,0.047-0.313,0.078-0.521
								c0.097,0.173,0.172,0.308,0.257,0.46c0.156-0.025,0.316-0.05,0.515-0.081c-0.137,0.146-0.245,0.261-0.358,0.381
								c0.076,0.147,0.148,0.288,0.241,0.468C259.428,8.811,259.287,8.745,259.127,8.67z"/>
							<path fill="#FEFEFF" d="M256.367,9.635c0.103-0.122,0.205-0.243,0.323-0.383c0,0.183,0,0.344,0,0.515
								c0.144,0.061,0.289,0.122,0.475,0.201c-0.194,0.051-0.345,0.09-0.508,0.133c-0.015,0.16-0.03,0.317-0.05,0.522
								c-0.104-0.163-0.187-0.293-0.279-0.437c-0.16,0.035-0.32,0.071-0.513,0.113c0.121-0.148,0.221-0.272,0.328-0.404
								c-0.082-0.136-0.164-0.27-0.271-0.447C256.062,9.519,256.208,9.574,256.367,9.635z"/>
							<path fill="#FEFEFF" d="M263.564,9.893c0.107,0.132,0.207,0.256,0.329,0.406c-0.189-0.043-0.343-0.078-0.512-0.116
								c-0.085,0.134-0.17,0.267-0.278,0.437c-0.019-0.193-0.035-0.348-0.052-0.52c-0.151-0.039-0.304-0.079-0.508-0.132
								c0.183-0.078,0.329-0.14,0.472-0.201c0-0.168,0-0.328,0-0.518c0.118,0.139,0.222,0.261,0.327,0.385
								c0.157-0.06,0.304-0.115,0.494-0.188C263.728,9.623,263.646,9.758,263.564,9.893z"/>
						</g>
					</g>
				</g>
			</g>
		</g>
	</g>
</g>
<circle fill="none" stroke="#FFFCEE" stroke-miterlimit="10" cx="259.817" cy="9.771" r="7.049"/>
<g>
	<path fill="#FFFCEE" d="M501.09,11.975c0.516,0.508,1.181,0.91,2.05,0.91c0.938,0,1.589-0.468,1.589-1.248
		c0-0.857-0.57-1.403-2.539-1.403V9.141c1.697,0,2.254-0.559,2.254-1.326c0-0.688-0.488-1.104-1.276-1.104
		c-0.679,0-1.208,0.312-1.738,0.78l-0.801-0.924c0.733-0.623,1.562-1.039,2.594-1.039c1.656,0,2.798,0.779,2.798,2.184
		c0,0.923-0.571,1.547-1.508,1.898v0.052c1.019,0.26,1.793,0.962,1.793,2.054c0,1.508-1.372,2.393-3.028,2.393
		c-1.399,0-2.322-0.521-2.934-1.17L501.09,11.975z"/>
	<path fill="#FFFCEE" d="M507.285,15.498c0.869-0.325,1.371-0.91,1.371-1.573c-0.041,0-0.081,0-0.122,0
		c-0.529,0-1.005-0.338-1.005-0.923c0-0.559,0.476-0.923,1.046-0.923c0.733,0,1.168,0.572,1.168,1.534
		c0,1.273-0.774,2.262-2.119,2.704L507.285,15.498z"/>
	<path fill="#FFFCEE" d="M511.088,12.001c0.516,0.468,1.154,0.884,2.023,0.884c0.964,0,1.67-0.585,1.67-1.586
		c0-0.988-0.638-1.547-1.589-1.547c-0.557,0-0.869,0.143-1.385,0.468l-0.747-0.455l0.258-4.082h4.617v1.262h-3.259L512.5,8.947
		c0.366-0.169,0.692-0.273,1.141-0.273c1.48,0,2.716,0.806,2.716,2.587c0,1.808-1.453,2.848-3.042,2.848
		c-1.398,0-2.309-0.533-2.946-1.145L511.088,12.001z"/>
	<path fill="#FFFCEE" d="M517.187,13.08c2.404-2.223,3.911-3.679,3.911-4.94c0-0.871-0.502-1.43-1.426-1.43
		c-0.665,0-1.222,0.429-1.684,0.923l-0.869-0.832c0.787-0.806,1.575-1.273,2.757-1.273c1.656,0,2.729,1.001,2.729,2.534
		c0,1.47-1.426,2.978-3.137,4.707c0.448-0.039,1.019-0.092,1.439-0.092h2.118v1.274h-5.84V13.08H517.187z"/>
</g>
</svg>
