<?xml version="1.0" encoding="utf-8"?>
<!-- Generator: Adobe Illustrator 17.0.0, SVG Export Plug-In . SVG Version: 6.00 Build 0)  -->
<!DOCTYPE svg PUBLIC "-//W3C//DTD SVG 1.1//EN" "http://www.w3.org/Graphics/SVG/1.1/DTD/svg11.dtd">
<svg version="1.1" id="Layer_1" xmlns="http://www.w3.org/2000/svg" xmlns:xlink="http://www.w3.org/1999/xlink" x="0px" y="0px"
	 width="600px" height="19.542px" viewBox="0 0 600 19.542" enable-background="new 0 0 600 19.542" xml:space="preserve">
<rect x="0" y="0" fill="#ABCCB7" width="600" height="19.542"/>
<line fill="none" stroke="#9F9F9F" stroke-width="0.7" stroke-miterlimit="10" stroke-dasharray="6,3" x1="199.426" y1="-0.003" x2="199.426" y2="18.99"/>
<line fill="none" stroke="#9F9F9F" stroke-width="0.7" stroke-miterlimit="10" stroke-dasharray="6,3" x1="440.97" y1="-0.003" x2="440.97" y2="18.99"/>
<g>
	<g>
		<g>
			<rect x="451.885" y="8.771" fill="#575756" width="53.525" height="2"/>
		</g>
		<g>
			<g>
				<circle fill="#575756" cx="505.286" cy="9.771" r="2.481"/>
			</g>
		</g>
	</g>
</g>
<path fill="#575756" d="M70.993,7.453c-0.503-0.441-0.924-0.688-1.575-0.688c-0.733,0-1.182,0.364-1.182,1.04
	c0,1.56,3.694,1.248,3.694,3.874c0,1.235-0.761,2.146-2.105,2.379v1.339h-1.086v-1.3c-0.829-0.078-1.738-0.442-2.35-0.988
	l0.706-1.014c0.638,0.481,1.276,0.806,2.01,0.806c0.883,0,1.317-0.416,1.317-1.117c0-1.717-3.694-1.47-3.694-3.914
	c0-1.209,0.788-2.066,2.011-2.274V4.268h1.086v1.3c0.869,0.104,1.467,0.507,1.969,1.014L70.993,7.453z"/>
<path fill="#575756" d="M79.538,6.959H75.45V5.698h5.799v0.91c-2.023,2.405-2.377,4.134-2.526,7.358h-1.589
	C77.283,11.028,77.867,9.182,79.538,6.959z"/>
<path fill="#575756" d="M81.998,13.095c2.404-2.223,3.911-3.679,3.911-4.94c0-0.871-0.502-1.43-1.426-1.43
	c-0.665,0-1.222,0.429-1.684,0.923L81.93,6.816c0.787-0.806,1.575-1.273,2.757-1.273c1.656,0,2.729,1.001,2.729,2.534
	c0,1.47-1.426,2.978-3.137,4.707c0.448-0.039,1.019-0.092,1.439-0.092h2.118v1.274h-5.84v-0.871
	C81.996,13.095,81.998,13.095,81.998,13.095z"/>
<path fill="#575756" d="M89.157,12.016c0.516,0.468,1.154,0.884,2.023,0.884c0.964,0,1.67-0.585,1.67-1.586
	c0-0.988-0.638-1.547-1.589-1.547c-0.557,0-0.869,0.143-1.385,0.468L89.13,9.78l0.258-4.082h4.617V6.96h-3.259l-0.177,2.002
	c0.367-0.169,0.692-0.273,1.141-0.273c1.48,0,2.716,0.806,2.716,2.587c0,1.808-1.453,2.848-3.042,2.848
	c-1.398,0-2.309-0.533-2.946-1.145L89.157,12.016z"/>
<path fill="#575756" d="M100.199,7.388c-0.312-0.364-0.855-0.624-1.371-0.624c-1.087,0-1.97,0.767-2.037,3.055
	c0.502-0.61,1.249-0.975,1.874-0.975c1.494,0,2.525,0.832,2.525,2.561c0,1.651-1.235,2.718-2.716,2.718
	c-1.697,0-3.137-1.262-3.137-4.043c0-3.212,1.63-4.537,3.395-4.537c1.046,0,1.793,0.416,2.31,0.936L100.199,7.388z M99.737,11.405
	c0-0.975-0.502-1.469-1.357-1.469c-0.489,0-1.06,0.26-1.548,0.949c0.162,1.469,0.773,2.093,1.615,2.093
	C99.167,12.978,99.737,12.419,99.737,11.405z"/>
<path fill="#575756" d="M102.009,15.513c0.869-0.325,1.371-0.91,1.371-1.573c-0.041,0-0.081,0-0.122,0
	c-0.529,0-1.005-0.338-1.005-0.923c0-0.559,0.476-0.923,1.046-0.923c0.733,0,1.168,0.572,1.168,1.534
	c0,1.273-0.774,2.262-2.119,2.704L102.009,15.513z"/>
<path fill="#575756" d="M105.839,11.99c0.516,0.508,1.181,0.91,2.05,0.91c0.938,0,1.589-0.468,1.589-1.248
	c0-0.857-0.57-1.403-2.539-1.403V9.156c1.697,0,2.254-0.559,2.254-1.326c0-0.688-0.488-1.104-1.276-1.104
	c-0.679,0-1.208,0.312-1.738,0.78l-0.801-0.924c0.733-0.623,1.562-1.039,2.594-1.039c1.656,0,2.798,0.779,2.798,2.184
	c0,0.923-0.57,1.547-1.508,1.898v0.052c1.019,0.26,1.793,0.962,1.793,2.054c0,1.508-1.372,2.393-3.029,2.393
	c-1.398,0-2.321-0.521-2.933-1.17L105.839,11.99z"/>
<path fill="#575756" d="M112.469,11.99c0.516,0.508,1.181,0.91,2.05,0.91c0.938,0,1.589-0.468,1.589-1.248
	c0-0.857-0.57-1.403-2.539-1.403V9.156c1.697,0,2.254-0.559,2.254-1.326c0-0.688-0.488-1.104-1.276-1.104
	c-0.679,0-1.208,0.312-1.738,0.78l-0.801-0.924c0.733-0.623,1.562-1.039,2.594-1.039c1.656,0,2.798,0.779,2.798,2.184
	c0,0.923-0.571,1.547-1.508,1.898v0.052c1.019,0.26,1.793,0.962,1.793,2.054c0,1.508-1.372,2.393-3.028,2.393
	c-1.399,0-2.322-0.521-2.934-1.17L112.469,11.99z"/>
<path fill="#575756" d="M123.023,14.486v2.003h-1.562V7.583h1.29l0.109,0.676h0.054c0.557-0.455,1.276-0.832,2.01-0.832
	c1.657,0,2.621,1.273,2.621,3.25c0,2.184-1.371,3.445-2.852,3.445c-0.584,0-1.168-0.26-1.711-0.702L123.023,14.486z M124.367,12.887
	c0.883,0,1.562-0.754,1.562-2.197c0-1.273-0.435-2.028-1.439-2.028c-0.488,0-0.95,0.234-1.467,0.716v2.977
	C123.512,12.745,123.974,12.887,124.367,12.887z"/>
<path fill="#575756" d="M131.119,4.736h1.06l-3.164,11.311h-1.06L131.119,4.736z"/>
<path fill="#575756" d="M135.697,7.427c0.855,0,1.508,0.325,1.956,0.741l-0.747,0.948c-0.354-0.299-0.706-0.468-1.127-0.468
	c-1.073,0-1.82,0.845-1.82,2.132c0,1.274,0.733,2.119,1.779,2.119c0.543,0,1.005-0.26,1.371-0.546l0.652,0.949
	c-0.625,0.533-1.426,0.819-2.187,0.819c-1.82,0-3.219-1.223-3.219-3.342C132.357,8.649,133.918,7.427,135.697,7.427z"/>
<circle fill="none" stroke="#FFFCEE" stroke-miterlimit="10" cx="259.817" cy="9.771" r="7.049"/>
<path fill="#575756" d="M279.874,5.491h5.555v1.611h-3.545v1.703h3.015v1.6h-3.015v1.949h3.681v1.613h-5.69L279.874,5.491
	L279.874,5.491z"/>
<path fill="#575756" d="M287.074,4.854h1.996v7.189c0,0.402,0.19,0.533,0.354,0.533c0.081,0,0.136,0,0.244-0.027l0.244,1.418
	c-0.217,0.09-0.557,0.156-1.005,0.156c-1.371,0-1.833-0.859-1.833-2.158L287.074,4.854L287.074,4.854z"/>
<path fill="#575756" d="M294.382,11.588c0.625,0.52,1.439,0.883,2.173,0.883c0.828,0,1.235-0.311,1.235-0.818
	c0-0.533-0.502-0.701-1.276-1.014l-1.141-0.469c-0.924-0.352-1.793-1.078-1.793-2.314c0-1.404,1.317-2.521,3.151-2.521
	c1.019,0,2.091,0.391,2.852,1.117l-1.005,1.209c-0.584-0.428-1.141-0.676-1.847-0.676c-0.68,0-1.128,0.287-1.128,0.768
	c0,0.52,0.584,0.703,1.358,1.002l1.127,0.441c1.073,0.416,1.752,1.105,1.752,2.301c0,1.404-1.222,2.627-3.327,2.627
	c-1.154,0-2.376-0.416-3.286-1.223L294.382,11.588z"/>
<path fill="#575756" d="M304.651,9.819c-0.04-0.57-0.339-0.936-1.059-0.936c-0.57,0-1.141,0.221-1.793,0.586l-0.706-1.262
	c0.855-0.494,1.819-0.846,2.879-0.846c1.725,0,2.676,0.937,2.676,2.912v3.693h-1.63l-0.149-0.664h-0.041
	c-0.57,0.482-1.208,0.82-1.969,0.82c-1.223,0-1.996-0.859-1.996-1.951C300.862,10.821,301.989,10.081,304.651,9.819z
	 M303.537,12.641c0.462,0,0.761-0.209,1.113-0.547v-1.131c-1.426,0.182-1.888,0.572-1.888,1.066
	C302.763,12.446,303.062,12.641,303.537,12.641z"/>
<path fill="#575756" d="M308.293,4.854h1.996v7.189c0,0.402,0.19,0.533,0.354,0.533c0.081,0,0.136,0,0.244-0.027l0.244,1.418
	c-0.217,0.09-0.557,0.156-1.005,0.156c-1.371,0-1.833-0.859-1.833-2.158L308.293,4.854L308.293,4.854z"/>
<path fill="#575756" d="M311.391,7.518h2.01l0.869,3.043c0.177,0.637,0.354,1.312,0.529,1.988h0.055
	c0.163-0.676,0.34-1.352,0.516-1.988l0.883-3.043h1.915l-2.2,6.449h-2.309L311.391,7.518z"/>
<path fill="#575756" d="M322.42,9.819c-0.04-0.57-0.339-0.936-1.059-0.936c-0.57,0-1.141,0.221-1.793,0.586l-0.706-1.262
	c0.855-0.494,1.819-0.846,2.879-0.846c1.725,0,2.676,0.937,2.676,2.912v3.693h-1.63l-0.149-0.664h-0.041
	c-0.57,0.482-1.208,0.82-1.969,0.82c-1.223,0-1.996-0.859-1.996-1.951C318.632,10.821,319.759,10.081,322.42,9.819z M321.307,12.641
	c0.462,0,0.761-0.209,1.113-0.547v-1.131c-1.426,0.182-1.888,0.572-1.888,1.066C320.532,12.446,320.831,12.641,321.307,12.641z"/>
<path fill="#575756" d="M328.507,7.362c0.747,0,1.195,0.262,1.657,0.678l-0.082-0.988V4.854h1.996v9.113h-1.629l-0.136-0.637h-0.055
	c-0.476,0.455-1.141,0.793-1.793,0.793c-1.67,0-2.757-1.275-2.757-3.381S327.081,7.362,328.507,7.362z M328.983,12.563
	c0.435,0,0.773-0.156,1.1-0.586V9.338c-0.353-0.312-0.747-0.416-1.113-0.416c-0.639,0-1.209,0.572-1.209,1.795
	C327.76,11.991,328.208,12.563,328.983,12.563z"/>
<path fill="#575756" d="M336.671,7.362c1.697,0,3.272,1.236,3.272,3.381s-1.575,3.381-3.272,3.381c-1.711,0-3.286-1.236-3.286-3.381
	S334.96,7.362,336.671,7.362z M336.671,12.577c0.814,0,1.235-0.717,1.235-1.834s-0.421-1.834-1.235-1.834
	c-0.828,0-1.236,0.717-1.236,1.834S335.843,12.577,336.671,12.577z"/>
<path fill="#575756" d="M341.25,7.518h1.63l0.136,1.131h0.054c0.489-0.871,1.223-1.287,1.915-1.287c0.381,0,0.611,0.053,0.802,0.131
	l-0.326,1.65c-0.244-0.064-0.448-0.104-0.733-0.104c-0.503,0-1.127,0.312-1.48,1.184v3.744h-1.996V7.518H341.25z"/>
<path fill="#ABCCB7" d="M224.83,11.756c0.516,0.455,1.127,0.82,1.86,0.82c0.883,0,1.453-0.443,1.453-1.287
	c0-0.832-0.557-1.275-1.358-1.275c-0.502,0-0.761,0.105-1.276,0.416l-0.896-0.545l0.244-4.174h4.89v1.611h-3.164l-0.149,1.549
	c0.325-0.145,0.61-0.195,0.964-0.195c1.48,0,2.743,0.805,2.743,2.561c0,1.832-1.48,2.887-3.164,2.887
	c-1.412,0-2.363-0.508-3.042-1.158L224.83,11.756z"/>
<g>
	<g>
		<g>
			<g>
				<g>
					<defs>
						<circle id="SVGID_1_" cx="259.817" cy="9.771" r="7.158"/>
					</defs>
					<clipPath id="SVGID_2_">
						<use xlink:href="#SVGID_1_"  overflow="visible"/>
					</clipPath>
					<g clip-path="url(#SVGID_2_)">
						<g>
							<path fill="#6379A3" d="M248.538,7.407c0-1.642,0-3.284,0-4.926c0.086-0.069,0.188-0.048,0.285-0.048
								c7.486-0.001,14.971-0.001,22.457,0c0.088,0,0.182-0.019,0.263,0.038c0.039,0.078,0.021,0.162,0.021,0.242
								c0.001,1.486,0.001,2.972,0.001,4.457c0,0.285-0.035,0.322-0.321,0.334c-0.066,0.003-0.131,0.001-0.197,0.001
								c-7.339,0-14.677,0-22.016-0.001C248.861,7.504,248.681,7.542,248.538,7.407z"/>
							<path fill="#6379A3" d="M248.538,17.208c0-1.642,0-3.284,0-4.926c0.075-0.075,0.17-0.094,0.271-0.097
								c0.09-0.002,0.181-0.002,0.271-0.002c7.304,0,14.607,0,21.911,0c0.574,0,0.574,0,0.574,0.575c0,1.395,0,2.79-0.001,4.185
								c0,0.09,0.014,0.181-0.015,0.269c-0.095,0.073-0.206,0.044-0.309,0.044c-7.464,0.002-14.928,0.001-22.393,0
								C248.742,17.257,248.632,17.281,248.538,17.208z"/>
							<path fill="#FFFFFF" d="M271.533,17.209c0.002-0.427,0.006-0.853,0.006-1.28c0.001-1.133,0-2.265,0-3.398
								c0-0.057,0.001-0.115-0.001-0.172c-0.002-0.049-0.029-0.071-0.078-0.07c-0.066,0.001-0.131,0-0.197,0
								c-7.485,0-14.97,0-22.455,0c-0.09,0-0.18-0.004-0.27-0.006c0-1.625,0-3.251,0-4.876c0.09-0.001,0.181-0.002,0.271-0.002
								c7.478,0,14.956,0,22.433,0c0.298,0,0.298,0,0.298-0.294c0-1.461,0-2.922,0-4.383c0-0.082-0.004-0.164-0.006-0.246
								c-0.093-0.048-0.194-0.023-0.29-0.023c-7.472-0.001-14.944-0.001-22.416-0.002c-0.097,0-0.197,0.024-0.29-0.023
								c0-0.016,0-0.047,0-0.047c0.074-0.002,0.148-0.002,0.222-0.002c7.61,0,15.22,0,22.83,0c0,4.975,0,9.95,0,14.924
								c-7.61,0-15.22,0-22.83,0c-0.074,0-0.148,0-0.222-0.002c0,0,0-0.031,0-0.047c0.093-0.047,0.194-0.023,0.29-0.023
								c7.472-0.001,14.944-0.001,22.415-0.002C271.34,17.232,271.44,17.256,271.533,17.209z"/>
							<path fill="#808081" d="M271.533,17.209c0,0.028-0.016,0.048-0.041,0.049c-0.065,0.003-0.131,0-0.197,0
								c-7.586,0-15.172,0-22.758,0c0-0.016,0-0.033,0-0.049C256.203,17.209,263.868,17.209,271.533,17.209z"/>
							<path fill="#818282" d="M248.538,2.432c7.586,0,15.172,0,22.758,0.003c0.078,0,0.175-0.051,0.238,0.046
								c-7.665,0-15.331,0-22.996,0C248.538,2.465,248.538,2.448,248.538,2.432z"/>
							<path fill="#6B7DA1" d="M260.792,8.882c-0.009,0.021-0.023,0.041-0.027,0.063c-0.036,0.185,0.017,0.377-0.107,0.577
								c0.149,0.001,0.21-0.068,0.283-0.1c0.057-0.008,0.113-0.006,0.158,0.038c0.012,0.02,0.017,0.042,0.013,0.066
								c-0.086,0.131-0.098,0.29-0.158,0.43c-0.054,0.126-0.098,0.26-0.234,0.327c-0.024,0.006-0.048,0.006-0.073-0.001
								c-0.061-0.031-0.089-0.085-0.099-0.149c-0.003-0.023-0.003-0.047-0.001-0.071c0.02-0.083,0.046-0.166,0.053-0.257
								c-0.066,0.018-0.098,0.087-0.166,0.083c-0.129-0.057-0.146-0.13-0.032-0.221c0.076-0.158,0.079-0.33,0.05-0.491
								c-0.022-0.121,0.01-0.185,0.093-0.254c0.035-0.03,0.095-0.028,0.108-0.085C260.719,8.791,260.753,8.845,260.792,8.882z"/>
							<path fill="#6A7CA1" d="M258.93,8.835c0.086,0.022,0.115,0.119,0.195,0.149c0.025,0.026,0.037,0.06,0.05,0.093
								c0.054,0.181,0.014,0.374,0.073,0.555c0.025,0.078,0.039,0.166-0.041,0.224c-0.093,0.068-0.145-0.026-0.215-0.072
								c0.003,0.105,0.057,0.191,0.056,0.287c0.001,0.091-0.003,0.181-0.083,0.244c-0.012,0.006-0.024,0.011-0.035,0.017
								c-0.026,0.004-0.051-0.002-0.073-0.016c-0.161-0.197-0.25-0.427-0.298-0.674c-0.02-0.063-0.032-0.126-0.002-0.189
								c0.025-0.034,0.053-0.058,0.097-0.033c0.071,0.03,0.142,0.061,0.245,0.105c-0.064-0.241-0.038-0.471-0.111-0.689
								C258.835,8.799,258.882,8.793,258.93,8.835z"/>
							<path fill="#518E49" d="M261.339,9.917c-0.015,0.094,0.005,0.162,0.135,0.147c-0.034,0.147-0.09,0.259-0.224,0.325
								c-0.082,0.04-0.111,0.083-0.011,0.155c0.06,0.043,0.036,0.125-0.007,0.192c-0.053,0.081-0.188,0.073-0.202,0.193
								c-0.075-0.087-0.198,0.009-0.275-0.072c-0.03-0.022-0.043-0.054-0.049-0.09c0.008-0.137-0.076-0.267-0.028-0.407
								c0.035-0.056,0.086-0.065,0.147-0.057c0.086,0.012,0.126,0.002,0.1-0.112c-0.04-0.173,0.108-0.253,0.22-0.343
								C261.223,9.833,261.29,9.848,261.339,9.917z"/>
							<path fill="#4B8E47" d="M259.232,11.43c-0.026,0.007-0.058-0.003-0.057-0.024c0.003-0.068-0.027-0.125-0.064-0.173
								c-0.047-0.062-0.099,0.019-0.153,0.011c-0.047-0.007-0.092-0.021-0.137-0.03c-0.102-0.021-0.068-0.11-0.103-0.163
								c-0.021-0.033-0.002-0.041,0.018-0.048c0.022-0.008,0.053,0,0.07-0.012c0.049-0.035,0.119-0.073,0.026-0.137
								c-0.007-0.009-0.014-0.018-0.021-0.027c0.06-0.203,0.115-0.232,0.265-0.123c0.066,0.048,0.125,0.097,0.212,0.086
								c0.048,0,0.094,0.009,0.136,0.032c0.074,0.062,0.132,0.137,0.181,0.219C259.694,11.345,259.584,11.46,259.232,11.43z"/>
							<path fill="#3D8A40" d="M260.751,10.765c0.001,0.031,0.003,0.062,0.004,0.093c0.003,0.016,0.002,0.031-0.003,0.046
								c-0.025,0.106,0.126,0.182,0.052,0.297c-0.019,0.013-0.037,0.038-0.056,0.038c-0.133,0.001-0.29-0.051-0.298,0.175
								c-0.001,0.038-0.087,0.021-0.134,0.026c-0.041,0.003-0.08-0.003-0.12-0.017c-0.275-0.097-0.279-0.105-0.184-0.385
								c0.026-0.058,0.073-0.099,0.121-0.138c0.138-0.125,0.337-0.115,0.487-0.22C260.663,10.65,260.773,10.633,260.751,10.765z"/>
							<path fill="#CECED0" d="M259.132,9.084c-0.002-0.033-0.005-0.067-0.007-0.1c0.131,0.061,0.233,0.163,0.345,0.253
								c0.15-0.164,0.157-0.375,0.243-0.551c0.029-0.059-0.046-0.101-0.034-0.159c0.078-0.022,0.156-0.011,0.233,0.006
								c-0.005,0.144,0.056,0.273,0.099,0.406c-0.039,0.096,0.009,0.169,0.063,0.241c0.06,0.005,0.024,0.097,0.089,0.098
								c0.021,0.037,0.006,0.067-0.018,0.095c-0.019,0.015-0.04,0.022-0.064,0.021c-0.184-0.133-0.369-0.12-0.555-0.005
								c-0.022,0.006-0.044,0.006-0.066,0c-0.058-0.031-0.109-0.072-0.167-0.104C259.208,9.243,259.174,9.161,259.132,9.084z"/>
							<path fill="#677EAE" d="M260.062,11.058c0.021,0.091-0.042,0.15-0.087,0.216c0.121,0.045,0.242,0.081,0.339,0.167
								c-0.023,0.086-0.082,0.067-0.132,0.038c-0.082-0.047-0.139-0.055-0.193,0.045c-0.026,0.047-0.101,0.016-0.119-0.046
								c-0.007-0.023-0.004-0.049-0.007-0.073c-0.003-0.025-0.015-0.046-0.04-0.052c-0.038-0.009-0.065,0.018-0.078,0.044
								c-0.017,0.035-0.014,0.08-0.031,0.115c-0.023,0.049-0.072,0.041-0.108-0.031c-0.013-0.026-0.025-0.036-0.044-0.036
								c-0.048,0-0.104-0.011-0.138,0.031c-0.099,0.121-0.14,0.019-0.191-0.046c0.109-0.053,0.242-0.036,0.341-0.129
								c0.051-0.048,0.049-0.078,0.007-0.11c-0.059-0.046-0.034-0.091-0.011-0.139c0.128-0.085,0.196-0.056,0.221,0.076
								C259.839,11.047,259.909,10.927,260.062,11.058z"/>
							<path fill="#629657" d="M258.432,10.414c-0.115-0.059-0.222-0.12-0.257-0.264c-0.014-0.059-0.018-0.08,0.043-0.099
								c0.059-0.019,0.087-0.067,0.074-0.132c0.065-0.056,0.135-0.09,0.221-0.051c0.162,0.13,0.282,0.273,0.148,0.492
								c-0.032,0.064,0.01,0.126,0.006,0.189c-0.014,0.071-0.057,0.098-0.128,0.082C258.444,10.588,258.465,10.487,258.432,10.414z"
								/>
							<path fill="#3A863C" d="M258.534,10.607c0.075,0.011,0.11-0.021,0.1-0.097c-0.022-0.043-0.018-0.086,0-0.129
								c0.054-0.125,0.155-0.072,0.245-0.063l-0.003-0.003c0.149,0.17,0.026,0.303-0.061,0.44c-0.039,0.046-0.044,0.138-0.141,0.105
								c-0.086,0.012-0.156-0.025-0.221-0.075c-0.093-0.072-0.122-0.16-0.059-0.268C258.484,10.481,258.493,10.568,258.534,10.607z"
								/>
							<path fill="#9DA196" d="M261.443,9.574c0.044-0.113,0.156-0.089,0.241-0.119c0.082-0.028,0.096,0.03,0.107,0.085
								c0.021,0.106-0.071,0.028-0.098,0.057c-0.02,0.021-0.039,0.017-0.06,0.001c-0.04-0.028-0.036,0.013-0.038,0.03
								c-0.001,0.011,0.012,0.032,0.023,0.036c0.022,0.008,0.047,0.012,0.07,0.009c0.075-0.009,0.099,0.024,0.1,0.097
								c0.001,0.071-0.018,0.109-0.095,0.1c-0.032-0.004-0.065-0.004-0.092,0.021c0.011,0.009,0.02,0.022,0.033,0.025
								c0.05,0.013,0.117-0.03,0.15,0.042c0.004,0.009-0.005,0.033-0.016,0.04c-0.06,0.04-0.128,0.019-0.189,0.011
								c-0.046-0.006-0.039-0.066-0.034-0.104c0.014-0.092,0.009-0.181-0.013-0.274c-0.067,0.034-0.013,0.122-0.084,0.142
								C261.381,9.708,261.382,9.642,261.443,9.574z"/>
							<path fill="#448B44" d="M258.488,9.87c-0.02,0.012-0.048,0.018-0.059,0.036c-0.042,0.063-0.088,0.037-0.136,0.013
								c-0.115-0.095-0.206-0.198-0.106-0.357c0.139,0.037,0.312-0.085,0.423,0.09C258.602,9.743,258.639,9.859,258.488,9.87z"/>
							<path fill="#3B8940" d="M261.443,9.574c0.002,0.066,0.003,0.133,0.005,0.199c-0.008,0.07-0.045,0.117-0.109,0.144
								c-0.074,0.018-0.135-0.022-0.2-0.044c-0.156-0.048-0.166-0.142-0.086-0.266c0.128-0.032,0.257-0.054,0.389-0.033
								L261.443,9.574z"/>
							<path fill="#CECED0" d="M260.402,9.668c-0.035,0.083-0.071,0.166,0.057,0.203c0.105,0.022,0.118,0.111,0.141,0.192
								c0,0.017,0,0.033,0.001,0.05c-0.021,0.042-0.047,0.075-0.102,0.055c-0.075-0.049-0.114-0.131-0.178-0.19
								c-0.098-0.175-0.237-0.328-0.278-0.532c0.008-0.039,0.039-0.055,0.071-0.069l-0.001,0.001
								c0.122-0.027,0.091,0.099,0.143,0.143C260.287,9.586,260.333,9.638,260.402,9.668z"/>
							<path fill="#497B49" d="M258.654,9.42c-0.035,0.005-0.063,0.019-0.071,0.057c-0.11,0.055-0.231,0.174-0.291-0.052
								c0.005-0.06-0.013-0.12,0.02-0.18c0.03-0.055,0.07-0.072,0.126-0.066c0.073-0.041,0.076,0.107,0.153,0.056
								C258.685,9.272,258.624,9.361,258.654,9.42z"/>
							<path fill="#438945" d="M261.194,9.181c0.134,0.002,0.133,0.101,0.14,0.194c-0.025,0.099-0.039,0.211-0.19,0.148
								c-0.017-0.015-0.032-0.03-0.046-0.048l-0.002-0.014c-0.016-0.015-0.027-0.034-0.032-0.055
								c-0.001-0.065,0.007-0.129,0.007-0.194c0.006-0.022,0.018-0.039,0.036-0.053C261.14,9.149,261.171,9.151,261.194,9.181z"/>
							<path fill="#B0B0A2" d="M258.292,9.426c0.053,0.066,0.106,0.121,0.198,0.054c0.021-0.015,0.061-0.002,0.092-0.002
								c0.016,0.05,0.031,0.1,0.047,0.15c-0.019,0.022-0.036,0.02-0.051-0.003c-0.054,0.016-0.105-0.057-0.174,0.028
								c-0.046,0.057-0.147-0.046-0.217-0.09C258.228,9.521,258.225,9.446,258.292,9.426z"/>
							<path fill="#6F6E6E" d="M261.439,9.232c0.051,0.012,0.089-0.015,0.133-0.036c0.048-0.023,0.105-0.037,0.12,0.054
								c0.008,0.048,0.077,0.088-0.011,0.132c-0.115,0.056-0.147,0.054-0.2-0.019c-0.031-0.042-0.038-0.086-0.036-0.135
								L261.439,9.232z"/>
							<path fill="#9DA196" d="M261.146,9.478c0.058,0.039,0.111,0.044,0.144-0.029c0.012-0.027,0.009-0.061,0.045-0.073
								c-0.006,0.089,0.085,0.124,0.107,0.198c-0.164,0.076-0.196,0.08-0.344,0.047C261.068,9.557,261.12,9.522,261.146,9.478z"/>
							<path fill="#828282" d="M260.76,8.224c-0.009,0.019-0.021,0.048-0.038,0.074c-0.023,0.035-0.024,0.11-0.092,0.077
								c-0.059-0.029-0.107-0.077-0.063-0.155c0.008-0.014,0.018-0.027,0.024-0.041c0.015-0.037,0.028-0.088,0.077-0.071
								C260.711,8.121,260.752,8.156,260.76,8.224z"/>
							<path fill="#878686" d="M259.443,7.912c0.065,0.021,0.115,0.064,0.129,0.13c0.011,0.053,0.021,0.117-0.046,0.148
								c-0.021,0.01-0.052,0.017-0.071,0.008c-0.063-0.03-0.097-0.205-0.052-0.257C259.413,7.93,259.429,7.923,259.443,7.912z"/>
							<path fill="#919191" d="M257.945,9.082c0.032-0.047,0.054-0.163,0.123-0.015c0.043-0.027,0.067-0.018,0.08,0.034
								c0.011,0.044,0.11-0.051,0.087,0.045c-0.012,0.051-0.051,0.1-0.125,0.083C258,9.204,257.936,9.153,257.945,9.082z"/>
							<path fill="#7B7A7A" d="M258.288,10.906c0.028,0.014,0.06,0.024,0.084,0.044c0.024,0.02,0.039,0.049,0.058,0.074
								c-0.043,0.055-0.082,0.107-0.148,0.127c-0.03,0.009-0.063,0.071-0.092,0.001c-0.016-0.039-0.063-0.077-0.003-0.124
								c0.043-0.034,0.092-0.066,0.106-0.126L258.288,10.906z"/>
							<path fill="#929293" d="M258.419,11.39c-0.087-0.156-0.079-0.206,0.032-0.274c0.047-0.029,0.076-0.006,0.105,0.025
								c0.023,0.025,0.042,0.055,0.015,0.086C258.523,11.283,258.471,11.335,258.419,11.39z"/>
							<path fill="#7C7C7D" d="M261.123,11.061c0.054,0.05,0.096,0.087,0.135,0.127c0.028,0.028,0.063,0.074,0.013,0.095
								c-0.038,0.017-0.076,0.081-0.142,0.022C261.044,11.229,261.037,11.218,261.123,11.061z"/>
							<path fill="#B8BDAA" d="M258.591,9.235c-0.003,0.007-0.004,0.019-0.009,0.022c-0.05,0.025-0.023,0.135-0.093,0.114
								c-0.12-0.036,0.015-0.097,0-0.148c-0.007-0.025-0.024-0.04-0.05-0.044c0-0.073-0.027-0.165,0.104-0.142
								c0.064,0.033,0.15,0.019,0.192,0.095c-0.03,0.087-0.108,0.03-0.157,0.053C258.52,9.212,258.572,9.222,258.591,9.235z"/>
							<path fill="#717070" d="M260.978,11.578c-0.035,0.02-0.065,0.033-0.091,0.052c-0.033,0.023-0.066,0.016-0.086-0.01
								c-0.03-0.037-0.049-0.082-0.075-0.122c-0.022-0.033-0.004-0.095,0.009-0.074c0.058,0.088,0.076-0.152,0.124-0.008
								C260.875,11.466,260.923,11.505,260.978,11.578z"/>
							<path fill="#767575" d="M259.001,11.499c0.055-0.012-0.004,0.127,0.087,0.061c0.018-0.013,0.035-0.011,0.031,0.011
								c-0.016,0.078-0.04,0.154-0.104,0.208c-0.034,0.028-0.061,0.001-0.083-0.02c-0.029-0.027-0.068-0.059-0.027-0.1
								C258.951,11.612,258.971,11.552,259.001,11.499z"/>
							<path fill="#878787" d="M257.92,9.675c-0.011,0.001-0.065-0.006-0.104-0.057c-0.022-0.029-0.024-0.061,0-0.087
								c0.018-0.02,0.034-0.057,0.075-0.034c0.041,0.024,0.082,0.053,0.126,0.063c0.026,0.006,0.067-0.062,0.077,0.018
								c0.005,0.042-0.007,0.08-0.056,0.09C258.016,9.674,257.991,9.672,257.92,9.675z"/>
							<path fill="#5B5A5A" d="M259.821,8.051c0.006,0.048-0.008,0.101-0.069,0.124c-0.042,0.016-0.13-0.089-0.111-0.153
								c0.013-0.044,0.014-0.121,0.092-0.121C259.829,7.902,259.817,7.976,259.821,8.051z"/>
							<path fill="#448E47" d="M258.734,9.132c-0.032,0.001-0.065-0.001-0.097,0.002c-0.074,0.008-0.104-0.025-0.095-0.097
								c0.055-0.028,0.031-0.117,0.111-0.125C258.785,9.013,258.785,9.013,258.734,9.132z"/>
							<path fill="#B5BCAA" d="M261.099,9.179c0.058,0.082,0.066,0.163,0,0.244c-0.099,0.042-0.091-0.079-0.15-0.098
								c0.009-0.07-0.001-0.135-0.051-0.189C260.983,9.063,261.049,9.084,261.099,9.179z"/>
							<path fill="#7C7B7B" d="M261.252,10.907c0.069,0.035,0.148,0.059,0.187,0.135c0.008,0.015-0.004,0.047-0.016,0.064
								c-0.013,0.018-0.037,0.029-0.057,0.043c-0.046-0.065-0.153-0.062-0.174-0.153C261.182,10.953,261.202,10.92,261.252,10.907z"
								/>
							<path fill="#7B7B7B" d="M258.428,8.444c0.068-0.006,0.194,0.115,0.185,0.179c-0.001,0.007-0.007,0.015-0.013,0.02
								c-0.018,0.014-0.042,0.042-0.055,0.038c-0.078-0.027-0.138-0.078-0.159-0.162c-0.004-0.019,0.013-0.043,0.023-0.064
								C258.411,8.45,258.421,8.448,258.428,8.444z"/>
							<path fill="#535353" d="M260.397,8.28c-0.006-0.005-0.014-0.008-0.019-0.014c-0.051-0.067,0.006-0.25,0.085-0.261
								c0.018-0.003,0.047,0.017,0.059,0.034c0.019,0.027-0.068,0.23-0.101,0.245C260.415,8.287,260.405,8.281,260.397,8.28z"/>
							<path fill="#438E47" d="M261.099,9.179c-0.061-0.042-0.129-0.053-0.202-0.043c-0.016-0.019-0.033-0.038-0.049-0.057
								c0.004-0.098,0.045-0.159,0.153-0.155c0.016,0.019,0.033,0.039,0.049,0.058c0.028,0.063,0.119,0.112,0.047,0.199
								L261.099,9.179z"/>
							<path fill="#818181" d="M258.932,11.457c-0.043,0.071-0.06,0.156-0.139,0.191c-0.026,0.012-0.063,0.006-0.089-0.019
								c-0.033-0.031-0.004-0.054,0.006-0.083c0.019-0.056,0.149-0.035,0.097-0.143c-0.004-0.008,0.059-0.009,0.086,0.002
								C258.911,11.412,258.92,11.44,258.932,11.457z"/>
							<path fill="#888888" d="M261.361,10.889c-0.025-0.034-0.031-0.074-0.023-0.115c0.007-0.033,0.025-0.069,0.062-0.059
								c0.07,0.019,0.137,0.048,0.177,0.115c0.026,0.044-0.022,0.119-0.077,0.119c-0.018,0-0.05-0.005-0.032-0.043
								c0.018-0.037,0.034-0.082-0.026-0.092C261.393,10.806,261.4,10.876,261.361,10.889z"/>
							<path fill="#929292" d="M258.045,10.655c-0.144-0.048-0.144-0.048-0.131-0.196c0.03,0.036,0.052,0.084,0.079,0.088
								c0.059,0.009,0.046-0.048,0.051-0.085c0.006-0.039,0.033-0.056,0.066-0.039c0.018,0.009,0.031,0.037,0.036,0.059
								c0.022,0.092-0.094,0.102-0.106,0.176L258.045,10.655z"/>
							<path fill="#5C5C5C" d="M259.908,8.022c0.014-0.044-0.023-0.12,0.07-0.121c0.059-0.001,0.107,0.037,0.081,0.085
								c-0.026,0.05,0.028,0.141-0.067,0.15C259.912,8.145,259.904,8.086,259.908,8.022z"/>
							<path fill="#777777" d="M261.445,9.228c-0.068-0.03-0.064-0.104-0.096-0.155c0.01-0.014,0.024-0.038,0.028-0.036
								c0.074,0.027,0.148-0.106,0.196-0.027c0.058,0.095-0.081,0.116-0.116,0.18c-0.007,0.013-0.012,0.028-0.018,0.043
								L261.445,9.228z"/>
							<path fill="#686767" d="M257.833,10.342c0.035-0.124,0.135-0.109,0.193-0.17c0.02,0.066,0.035,0.118,0.053,0.176
								C258,10.371,257.924,10.358,257.833,10.342z"/>
							<path fill="#737373" d="M258.732,11.321c-0.004,0.095-0.079,0.126-0.124,0.179c-0.021,0.024-0.048,0.038-0.078,0.004
								c-0.028-0.032-0.051-0.06-0.019-0.103C258.569,11.325,258.652,11.336,258.732,11.321z"/>
							<path fill="#616161" d="M261.174,8.821c-0.027-0.046-0.053-0.09-0.078-0.133c0.008-0.015,0.014-0.037,0.022-0.038
								c0.058-0.007,0.109-0.102,0.165-0.041c0.055,0.059-0.04,0.104-0.054,0.16C261.224,8.788,261.196,8.801,261.174,8.821z"/>
							<path fill="#518E49" d="M260.803,11.201c-0.04-0.057-0.004-0.15-0.094-0.189c-0.015-0.007-0.024-0.091,0.043-0.107
								c0.018,0.027,0.031,0.07,0.055,0.077c0.13,0.038,0.025,0.145,0.066,0.206C260.849,11.192,260.826,11.196,260.803,11.201z"/>
							<path fill="#5F5F5F" d="M258.776,8.411c-0.04,0.039-0.093,0.06-0.109,0.118c-0.011-0.007-0.026-0.011-0.031-0.021
								c-0.008-0.014-0.007-0.032-0.012-0.047c-0.019-0.05-0.08-0.109-0.02-0.152c0.061-0.044,0.091,0.043,0.136,0.069
								C258.753,8.387,258.764,8.4,258.776,8.411z"/>
							<path fill="#979697" d="M258.739,8.205c0.121-0.021,0.091,0.184,0.22,0.103c0.006,0.015,0.018,0.03,0.016,0.043
								c-0.006,0.044-0.039,0.072-0.077,0.084c-0.017,0.005-0.052-0.01-0.061-0.026C258.802,8.347,258.775,8.282,258.739,8.205z"/>
							<path fill="#7C7C7C" d="M261.133,11.413c-0.023,0.067-0.064,0.092-0.129,0.122c0.032-0.114-0.088-0.16-0.108-0.282
								C261.006,11.298,261.039,11.404,261.133,11.413z"/>
							<path fill="#4D5151" d="M259.911,8.534c-0.081,0.116-0.156,0.009-0.233-0.006c0.023-0.038,0.047-0.076,0.07-0.113
								C259.75,8.526,259.94,8.381,259.911,8.534z"/>
							<path fill="#949AA8" d="M260.255,9.52c-0.09-0.005-0.069-0.121-0.143-0.143c0.017-0.033,0.033-0.066,0.05-0.099
								c0.028-0.012,0.057-0.025,0.094-0.041C260.255,9.334,260.255,9.427,260.255,9.52z"/>
							<path fill="#6E6D6E" d="M259.068,8.057c0.005,0.028,0.015,0.058,0.014,0.088c-0.001,0.05,0.088,0.101,0.005,0.146
								c-0.038,0.021-0.151-0.101-0.152-0.162c0-0.02,0.019-0.029,0.031-0.019C259.044,8.172,259.014,8.051,259.068,8.057z"/>
							<path fill="#525252" d="M260.494,11.579c0.039-0.02,0.067-0.032,0.094-0.047c0.014-0.007,0.026-0.017,0.047-0.032
								c0.038,0.073,0.023,0.147,0.026,0.245C260.581,11.706,260.544,11.653,260.494,11.579z"/>
							<path fill="#888888" d="M258.339,8.942c-0.014,0.05-0.044,0.099-0.096,0.088s-0.097-0.052-0.143-0.084
								c-0.006-0.004,0.001-0.028,0.005-0.042c0.002-0.007,0.012-0.016,0.017-0.016c0.065,0.004,0.125,0.088,0.195,0.013
								C258.324,8.914,258.331,8.928,258.339,8.942z"/>
							<path fill="#CAB4A6" d="M261.001,8.924c-0.068,0.035-0.121,0.084-0.153,0.155c-0.032-0.082-0.001-0.236,0.051-0.238
								C260.949,8.839,260.982,8.878,261.001,8.924z"/>
							<path fill="#565656" d="M260.792,8.882c-0.058,0.021-0.09-0.038-0.14-0.045c-0.011-0.021-0.025-0.041-0.033-0.063
								c-0.019-0.05,0.01-0.091,0.052-0.07C260.737,8.738,260.816,8.78,260.792,8.882z"/>
							<path fill="#585858" d="M259.174,7.992c0.089,0.04,0.124,0.102,0.153,0.165c-0.028,0.061-0.092,0.051-0.137,0.081
								C259.161,8.159,259.186,8.081,259.174,7.992z"/>
							<path fill="#A1A1A1" d="M258.042,10.658c0.024-0.002,0.048-0.002,0.071-0.006c0.025-0.004,0.045-0.057,0.072-0.01
								c0.008,0.014-0.002,0.049-0.015,0.062c-0.056,0.055-0.125,0.085-0.205,0.102c-0.007-0.082,0.073-0.094,0.08-0.15
								L258.042,10.658z"/>
							<path fill="#888888" d="M258.293,10.902c-0.07-0.028-0.109,0.071-0.201,0.036c0.048-0.072,0.124-0.113,0.138-0.194
								c0.098,0.047,0.051,0.111,0.059,0.162L258.293,10.902z"/>
							<path fill="#737373" d="M261.092,8.377c0.016,0.118-0.132,0.177-0.05,0.277c0.007,0.008-0.033,0.007-0.051-0.005
								c-0.045-0.031-0.067-0.076-0.038-0.122C260.985,8.478,261.032,8.44,261.092,8.377z"/>
							<path fill="#383838" d="M261.594,10.433c-0.026,0.01-0.063,0.038-0.081-0.001c-0.01-0.021,0.01-0.06,0.024-0.086
								c0.033-0.063,0.062-0.006,0.093,0.005c0.023,0.008,0.049,0.008,0.07,0.019s0.036,0.033,0.023,0.058
								c-0.006,0.011-0.024,0.019-0.038,0.02C261.654,10.45,261.63,10.41,261.594,10.433z"/>
							<path fill="#2E2E2E" d="M257.864,9.892c0.024-0.081,0.125-0.052,0.164-0.162C258.024,9.9,258.024,9.9,257.864,9.892z"/>
							<path fill="#494E4B" d="M260.949,9.325c0.031,0.011,0.107-0.106,0.094,0.033c-0.004,0.037,0.022,0.057,0.056,0.065
								c0.001,0.013,0,0.026-0.003,0.039c-0.059,0.016-0.12,0.037-0.154-0.041C260.944,9.39,260.946,9.357,260.949,9.325z"/>
							<path fill="#B5BCAA" d="M261.097,9.181c-0.016-0.066-0.031-0.133-0.047-0.199c0.08,0.043,0.185,0.068,0.145,0.199
								C261.162,9.181,261.129,9.181,261.097,9.181z"/>
							<path fill="#373837" d="M258.93,8.835c-0.048,0-0.095,0-0.143,0c-0.004-0.037,0.016-0.059,0.044-0.078
								c0.037-0.025,0.068-0.092,0.116-0.051C258.985,8.737,258.921,8.788,258.93,8.835z"/>
							<path fill="#6C7689" d="M260.073,9.18c-0.132-0.091-0.139-0.118-0.063-0.241C260.019,9.023,260.081,9.092,260.073,9.18z"/>
							<path fill="#626161" d="M260.444,11.784c-0.064-0.01-0.025-0.085-0.073-0.11c-0.026-0.014-0.089-0.043-0.024-0.081
								c0.045-0.026,0.07,0.024,0.089,0.058C260.461,11.693,260.48,11.738,260.444,11.784z"/>
							<path fill="#9FA284" d="M258.534,10.607c-0.047-0.03-0.093-0.06-0.14-0.09c0.012-0.034,0.024-0.068,0.037-0.102
								C258.514,10.452,258.535,10.524,258.534,10.607z"/>
							<path fill="#313231" d="M261.601,10.089c0.077-0.02,0.145-0.02,0.183,0.063c0.005,0.011-0.003,0.03-0.007,0.044
								c-0.007,0.022-0.022,0.025-0.033,0.004C261.714,10.139,261.656,10.118,261.601,10.089z"/>
							<path fill="#4B8E47" d="M258.675,10.859c0.071,0.002,0.04-0.096,0.101-0.104c0.047,0.018,0.021,0.078,0.058,0.101
								l-0.002-0.003C258.783,10.95,258.729,10.9,258.675,10.859z"/>
							<path fill="#A1A7B7" d="M260.515,10.157c0.028-0.015,0.057-0.03,0.085-0.045c-0.008,0.059,0.039,0.098,0.056,0.148
								c0.003,0.113-0.033,0.2-0.154,0.231c-0.113-0.008-0.226-0.022-0.326,0.054c-0.025,0.019-0.066,0.036-0.092,0.024
								c-0.231-0.11-0.485,0.044-0.716-0.07c-0.083-0.041-0.175-0.001-0.264,0.003c-0.101-0.029-0.232-0.03-0.174-0.198
								c0.068-0.07,0.042-0.161,0.055-0.244c0.058-0.012,0.096,0.018,0.129,0.06c0.06,0.116,0.17,0.104,0.275,0.109
								c0.366,0.019,0.727-0.031,1.089-0.072C260.491,10.158,260.503,10.157,260.515,10.157z"/>
							<path fill="#E4E7E3" d="M260.505,10.459c0.092-0.035,0.066-0.158,0.15-0.198c0.016,0.003,0.032,0.005,0.049,0.004
								c0.031,0.032,0.027,0.065-0.001,0.097c0.026,0.115,0.049,0.231,0.096,0.341c0.017,0.04-0.014,0.056-0.049,0.062
								c-0.039-0.073-0.093-0.085-0.15-0.025c-0.033,0.035-0.056,0.08-0.084,0.12c-0.02,0.027-0.051,0.057-0.08,0.033
								c-0.116-0.094-0.192,0-0.278,0.052c-0.048,0.002-0.092-0.003-0.109-0.059c0.002-0.037,0.03-0.057,0.057-0.081
								c-0.064,0.002-0.116,0.05-0.181,0.035c-0.126-0.048-0.1-0.127-0.043-0.213C260.084,10.55,260.283,10.462,260.505,10.459z"/>
							<path fill="#F8F8F7" d="M260.704,10.362c0-0.032,0-0.064,0.001-0.097c0.12-0.171,0.22-0.352,0.245-0.564
								c0.012-0.104,0.081-0.163,0.149-0.226c0.016,0.001,0.032,0.001,0.048,0.002c0.018,0.059-0.034,0.094-0.048,0.143
								c-0.12,0.106,0.007,0.172,0.041,0.252c0.015,0.054-0.002,0.106-0.049,0.125c-0.161,0.064-0.126,0.181-0.079,0.292
								c0.03,0.071,0.043,0.12-0.04,0.158c-0.013-0.038-0.025-0.076-0.038-0.114c-0.055,0.024-0.044,0.106-0.114,0.115
								C260.789,10.416,260.828,10.28,260.704,10.362z"/>
							<path fill="#FAF9FA" d="M260.6,10.063c-0.098-0.027-0.093-0.129-0.141-0.192c0.037-0.112,0.091-0.209,0.232-0.233
								C260.719,9.789,260.659,9.926,260.6,10.063z"/>
							<path fill="#F6F5F5" d="M259.081,10.114c-0.032-0.018-0.064-0.035-0.096-0.053c-0.037-0.153-0.138-0.294-0.094-0.465
								c0.158,0.024,0.188,0.168,0.256,0.277c0.044-0.046,0.102-0.074,0.063-0.147c-0.108-0.203-0.093-0.423-0.078-0.641
								c0.084,0.021,0.108,0.125,0.193,0.145c0.035,0.063,0.066,0.131,0.146,0.15l-0.001-0.002c0.126-0.006,0.235-0.092,0.368-0.072
								c0.093,0.014,0.172,0.041,0.223,0.124c0.103,0.176,0.248,0.329,0.296,0.536c-0.017,0.02-0.038,0.033-0.063,0.039
								c-0.162,0.007-0.316-0.026-0.461-0.097c-0.029-0.017-0.032-0.05-0.046-0.076c0.002,0.015,0.001,0.03-0.005,0.046
								C259.531,9.903,259.339,10.107,259.081,10.114z"/>
							<path fill="#E8E9E9" d="M260.063,10.903c0.036,0.005,0.083-0.016,0.096,0.042c-0.006,0.06-0.087,0.056-0.097,0.112
								c-0.199-0.003-0.199-0.003-0.27,0.179c-0.045-0.18-0.045-0.18-0.223-0.184c-0.066-0.054-0.14-0.102-0.154-0.197
								c-0.043-0.097-0.092-0.045-0.141-0.005c-0.079,0.021-0.161,0.071-0.202-0.06c-0.016-0.049-0.072-0.086-0.112-0.13
								c-0.048,0.067-0.15,0.09-0.126,0.196c-0.058-0.012-0.048-0.062-0.058-0.101c0.094-0.133,0.123-0.282,0.102-0.441
								c0.018-0.003,0.035-0.006,0.053-0.01c0.005,0.046-0.008,0.109,0.066,0.103c0.057-0.004,0.083,0.048,0.132,0.052
								c0.233,0.054,0.517-0.02,0.659,0.262c0.023,0.056,0.008,0.105-0.039,0.158c0.092,0.009,0.175-0.001,0.257-0.007
								C260.027,10.877,260.047,10.886,260.063,10.903z"/>
							<path fill="#E8E9E9" d="M258.578,9.624c0.017,0.001,0.034,0.002,0.051,0.003c0.014,0.18,0.102,0.334,0.176,0.493
								c0.029,0.063,0.097,0.114,0.075,0.197c-0.034,0.012-0.045,0.041-0.051,0.073c-0.006,0.031-0.011,0.068-0.052,0.064
								c-0.039-0.004-0.033-0.045-0.042-0.073c-0.006-0.019-0.002-0.079-0.045-0.02c-0.009,0.012-0.009,0.03-0.013,0.046
								c-0.059,0.041-0.096,0.04-0.091-0.046c0.016-0.044,0.036-0.088,0.048-0.133c0.017-0.069,0.114-0.162-0.062-0.178
								c-0.035-0.003-0.101-0.097-0.084-0.179C258.564,9.805,258.592,9.722,258.578,9.624z"/>
							<path fill="#A1A7A2" d="M259.274,10.85c-0.01-0.053,0.027-0.09,0.045-0.134c0.025-0.065,0.041-0.057,0.061,0.001
								c0.013,0.038,0.046,0.039,0.079,0.039c0.039,0,0.067,0.024,0.058,0.059c-0.013,0.051-0.063,0.036-0.102,0.04
								C259.368,10.854,259.321,10.852,259.274,10.85z"/>
							<path fill="#768098" d="M260.061,9.43c-0.184-0.068-0.363-0.088-0.546,0.017c-0.058,0.033-0.037-0.04-0.045-0.069
								c0.123-0.194,0.32-0.14,0.497-0.143c0.083-0.002,0.077,0.115,0.147,0.142C260.112,9.409,260.093,9.426,260.061,9.43z"/>
							<path fill="#9399A7" d="M259.471,9.379c-0.072,0.015-0.035,0.133-0.146,0.121c0-0.082,0-0.177,0-0.271
								C259.38,9.273,259.487,9.266,259.471,9.379z"/>
							<path fill="#9FA284" d="M258.585,10.36c0.012,0.051,0.05,0.053,0.091,0.046c-0.014,0.034-0.028,0.069-0.042,0.103
								C258.521,10.44,258.519,10.435,258.585,10.36z"/>
							<path fill="#A1A7B7" d="M260.302,9.974c0.018-0.003,0.037-0.006,0.055-0.009c0.129,0.001,0.124,0.112,0.158,0.191
								l-0.011,0.01C260.365,10.177,260.302,10.109,260.302,9.974z"/>
							<path fill="#206232" d="M260.302,9.974c0.06,0.072,0.118,0.145,0.202,0.192c-0.02,0.078-0.079,0.087-0.149,0.097
								c-0.388,0.056-0.778,0.047-1.168,0.045c-0.181-0.001-0.181-0.003-0.107-0.195c0.025-0.03,0.054-0.089,0.073-0.086
								c0.116,0.017,0.186-0.049,0.261-0.117c0.113-0.104,0.116-0.106,0.259-0.026c0.049,0.028,0.071-0.015,0.106-0.021
								c0.01-0.001,0.02-0.003,0.029-0.004C259.971,9.908,260.151,9.881,260.302,9.974z"/>
							<path fill="#677694" d="M259.768,10.754c-0.015-0.005-0.038-0.007-0.042-0.016c-0.063-0.147-0.173-0.199-0.329-0.18
								c-0.102,0.013-0.181-0.059-0.269-0.098c0.108-0.084,0.219-0.077,0.32,0.004c0.07,0.055,0.126,0.067,0.192,0.001
								c0.084-0.085,0.167-0.081,0.257-0.002c0.092,0.08,0.191,0.073,0.288,0.002c0.105-0.078,0.213-0.086,0.321-0.005
								c-0.146,0.077-0.291,0.155-0.463,0.145c-0.055-0.003-0.083,0.041-0.127,0.054c-0.012,0.013-0.028,0.021-0.046,0.021
								c-0.044-0.004-0.057,0.033-0.078,0.059C259.784,10.744,259.776,10.749,259.768,10.754z"/>
							<path fill="#9E9EA0" d="M259.86,10.657c0.019,0,0.037,0.001,0.056,0.001c-0.062,0.126-0.062,0.126,0.044,0.142
								c-0.109,0.106,0.056,0.063,0.059,0.109c-0.146,0.111-0.285,0.013-0.425-0.018c-0.035-0.008-0.028-0.055-0.022-0.085
								c0.009-0.05,0.039-0.03,0.067-0.016c0.028,0.014,0.056,0.033,0.086,0.038c0.07,0.012,0.031-0.048,0.043-0.074l-0.001,0.002
								C259.811,10.736,259.769,10.634,259.86,10.657z"/>
							<path fill="#6A696A" d="M260.019,10.909c-0.045-0.004-0.09-0.008-0.134-0.012c0.002-0.057,0.09-0.033,0.075-0.096
								c0.024-0.041,0.064-0.041,0.105-0.041c0.072,0,0.146,0.007,0.19-0.071c0.011-0.019,0.039-0.034,0.051-0.001
								c0.006,0.018-0.002,0.046-0.013,0.063c-0.022,0.033-0.064,0.043-0.094,0.064c-0.044,0.03-0.112,0.029-0.135,0.089h-0.022
								L260.019,10.909z"/>
							<path fill="#CB5255" d="M259.809,9.86l-0.014,0.005l-0.015-0.001c0.007-0.061-0.047-0.1-0.058-0.155
								c-0.007-0.035,0.003-0.067,0.035-0.082c0.049-0.025,0.092-0.015,0.128,0.03c0.026,0.033,0.016,0.056-0.008,0.082
								C259.843,9.774,259.804,9.805,259.809,9.86z"/>
							<path fill="#828181" d="M260.07,9.708c-0.098-0.103-0.188-0.148-0.212-0.305C259.959,9.502,260.048,9.548,260.07,9.708z"/>
							<path fill="#EEEDEE" d="M259.86,10.657c-0.06,0.006-0.027,0.099-0.093,0.099c0.011-0.076-0.024-0.156,0.016-0.232
								C259.824,10.56,259.842,10.608,259.86,10.657z"/>
						</g>
					</g>
				</g>
			</g>
		</g>
	</g>
</g>
<circle fill="none" stroke="#575756" stroke-miterlimit="10" cx="259.817" cy="9.771" r="7.049"/>
<g>
	<path fill="#575756" d="M522.504,11.835h-1.086v2.132h-1.467v-2.132h-3.816V10.82l3.423-5.122h1.86v4.979h1.086V11.835z
		 M519.952,10.678V8.806c0-0.481,0.041-1.235,0.068-1.716h-0.055c-0.218,0.429-0.462,0.845-0.706,1.287l-1.575,2.301
		C517.684,10.678,519.952,10.678,519.952,10.678z"/>
	<path fill="#575756" d="M523.159,15.514c0.869-0.325,1.371-0.91,1.371-1.573c-0.041,0-0.081,0-0.122,0
		c-0.529,0-1.005-0.338-1.005-0.923c0-0.559,0.476-0.923,1.046-0.923c0.733,0,1.168,0.572,1.168,1.534
		c0,1.273-0.774,2.262-2.119,2.704L523.159,15.514z"/>
	<path fill="#575756" d="M528.035,9.729V9.677c-0.665-0.455-1.194-1.066-1.194-1.938c0-1.339,1.113-2.196,2.607-2.196
		c1.548,0,2.539,0.896,2.539,2.235c0,0.819-0.598,1.509-1.154,1.898v0.052c0.802,0.429,1.494,1.04,1.494,2.146
		c0,1.273-1.168,2.249-2.92,2.249c-1.684,0-2.934-0.937-2.934-2.275C526.473,10.821,527.22,10.145,528.035,9.729z M529.434,13.057
		c0.828,0,1.426-0.468,1.426-1.235c0-0.896-0.91-1.222-2.078-1.677c-0.543,0.377-0.937,0.91-0.937,1.547
		C527.845,12.511,528.551,13.057,529.434,13.057z M530.697,7.87c0-0.728-0.476-1.261-1.276-1.261c-0.666,0-1.182,0.416-1.182,1.131
		c0,0.832,0.774,1.196,1.738,1.561C530.439,8.858,530.697,8.39,530.697,7.87z"/>
	<path fill="#575756" d="M533.591,12.017c0.516,0.468,1.154,0.884,2.023,0.884c0.964,0,1.67-0.585,1.67-1.586
		c0-0.988-0.638-1.547-1.589-1.547c-0.557,0-0.869,0.143-1.385,0.468l-0.747-0.455l0.258-4.082h4.617V6.96h-3.259l-0.177,2.002
		c0.366-0.169,0.692-0.273,1.141-0.273c1.48,0,2.716,0.806,2.716,2.587c0,1.808-1.453,2.848-3.042,2.848
		c-1.398,0-2.309-0.533-2.946-1.145L533.591,12.017z"/>
</g>
</svg>
