<?xml version="1.0" encoding="utf-8"?>
<!-- Generator: Adobe Illustrator 17.0.0, SVG Export Plug-In . SVG Version: 6.00 Build 0)  -->
<!DOCTYPE svg PUBLIC "-//W3C//DTD SVG 1.1//EN" "http://www.w3.org/Graphics/SVG/1.1/DTD/svg11.dtd">
<svg version="1.1" id="Layer_1" xmlns="http://www.w3.org/2000/svg" xmlns:xlink="http://www.w3.org/1999/xlink" x="0px" y="0px"
	 width="600px" height="19.542px" viewBox="0 0 600 19.542" enable-background="new 0 0 600 19.542" xml:space="preserve">
<rect x="163.937" y="2.722" fill="#ABCCB7" width="28.191" height="14.097"/>
<g>
	<rect x="448.356" y="8.771" fill="#ABCCB7" width="53.524" height="2"/>
</g>
<g>
	<g>
		<circle fill="#ABCCB7" cx="501.756" cy="9.771" r="2.482"/>
	</g>
</g>
<rect x="0" y="0" fill="none" width="600" height="19.542"/>
<line fill="none" stroke="#9F9F9F" stroke-width="0.7" stroke-miterlimit="10" stroke-dasharray="6,3" x1="199.426" y1="-0.003" x2="199.426" y2="18.99"/>
<line fill="none" stroke="#9F9F9F" stroke-width="0.7" stroke-miterlimit="10" stroke-dasharray="6,3" x1="440.97" y1="-0.003" x2="440.97" y2="18.99"/>
<g>
	<g>
		<g>
			<defs>
				<circle id="SVGID_1_" cx="259.927" cy="9.771" r="7.158"/>
			</defs>
			<clipPath id="SVGID_2_">
				<use xlink:href="#SVGID_1_"  overflow="visible"/>
			</clipPath>
			<g id="lOxS3U_1_" clip-path="url(#SVGID_2_)">
				<g>
					<g>
						<path fill="#6379A3" d="M248.648,7.407c0-1.642,0-3.284,0-4.926c0.086-0.069,0.188-0.048,0.285-0.048
							c7.486-0.001,14.971-0.001,22.457,0c0.089,0,0.182-0.019,0.263,0.038c0.039,0.078,0.021,0.162,0.021,0.242
							c0.001,1.486,0.001,2.972,0.001,4.457c0,0.285-0.035,0.322-0.321,0.334c-0.066,0.003-0.131,0.001-0.197,0.001
							c-7.339,0-14.677,0-22.016-0.001C248.971,7.504,248.791,7.542,248.648,7.407z"/>
						<path fill="#6379A3" d="M248.648,17.208c0-1.642,0-3.284,0-4.926c0.075-0.075,0.17-0.094,0.271-0.097
							c0.09-0.002,0.181-0.002,0.271-0.002c7.304,0,14.607,0,21.911,0c0.574,0,0.574,0,0.574,0.575c0,1.395,0,2.79-0.001,4.185
							c0,0.09,0.014,0.181-0.015,0.269c-0.095,0.073-0.206,0.044-0.309,0.044c-7.464,0.002-14.928,0.001-22.393,0
							C248.852,17.257,248.742,17.281,248.648,17.208z"/>
						<path fill="#FFFFFF" d="M271.643,17.209c0.002-0.427,0.006-0.853,0.006-1.28c0.001-1.133,0-2.265,0-3.398
							c0-0.057,0.001-0.115-0.001-0.172c-0.002-0.049-0.029-0.071-0.078-0.07c-0.066,0.001-0.131,0-0.197,0
							c-7.485,0-14.97,0-22.455,0c-0.09,0-0.18-0.004-0.27-0.006c0-1.625,0-3.251,0-4.876c0.09-0.001,0.181-0.002,0.271-0.002
							c7.478,0,14.956,0,22.433,0c0.298,0,0.298,0,0.298-0.294c0-1.461,0-2.922,0-4.383c0-0.082-0.004-0.164-0.006-0.246
							c-0.093-0.048-0.194-0.023-0.29-0.023c-7.472-0.001-14.944-0.001-22.416-0.002c-0.097,0-0.197,0.024-0.29-0.023
							c0-0.016,0-0.047,0-0.047c0.074-0.002,0.148-0.002,0.222-0.002c7.61,0,15.22,0,22.83,0c0,4.975,0,9.95,0,14.924
							c-7.61,0-15.22,0-22.83,0c-0.074,0-0.148,0-0.222-0.002c0,0,0-0.031,0-0.047c0.093-0.047,0.194-0.023,0.29-0.023
							c7.472-0.001,14.944-0.001,22.415-0.002C271.45,17.232,271.55,17.257,271.643,17.209z"/>
						<path fill="#808081" d="M271.643,17.209c0,0.028-0.016,0.048-0.041,0.049c-0.065,0.003-0.131,0-0.197,0
							c-7.586,0-15.172,0-22.758,0c0-0.016,0-0.033,0-0.049C256.313,17.209,263.978,17.209,271.643,17.209z"/>
						<path fill="#818282" d="M248.648,2.432c7.586,0,15.172,0,22.758,0.003c0.078,0,0.175-0.051,0.238,0.046
							c-7.665,0-15.331,0-22.996,0C248.648,2.465,248.648,2.448,248.648,2.432z"/>
						<path fill="#6B7DA1" d="M260.902,8.882c-0.009,0.021-0.023,0.041-0.027,0.063c-0.036,0.185,0.017,0.377-0.107,0.577
							c0.149,0.001,0.21-0.068,0.283-0.1c0.057-0.008,0.113-0.006,0.158,0.038c0.012,0.02,0.017,0.042,0.013,0.066
							c-0.085,0.131-0.098,0.29-0.158,0.43c-0.054,0.126-0.098,0.26-0.234,0.327c-0.024,0.006-0.048,0.006-0.073-0.001
							c-0.061-0.031-0.089-0.085-0.099-0.149c-0.003-0.023-0.003-0.047-0.001-0.071c0.02-0.083,0.046-0.166,0.053-0.257
							c-0.066,0.018-0.098,0.087-0.166,0.083c-0.129-0.057-0.146-0.13-0.032-0.221c0.076-0.158,0.079-0.33,0.05-0.491
							c-0.022-0.121,0.01-0.185,0.093-0.254c0.035-0.03,0.095-0.028,0.108-0.085C260.829,8.791,260.863,8.845,260.902,8.882z"/>
						<path fill="#6A7CA1" d="M259.04,8.835c0.086,0.022,0.115,0.119,0.195,0.149c0.025,0.026,0.037,0.06,0.05,0.093
							c0.054,0.181,0.014,0.374,0.073,0.555c0.025,0.078,0.039,0.166-0.041,0.224c-0.093,0.068-0.145-0.026-0.215-0.072
							c0.003,0.105,0.057,0.191,0.056,0.287c0.001,0.091-0.003,0.181-0.083,0.244c-0.012,0.006-0.024,0.011-0.035,0.017
							c-0.026,0.004-0.051-0.002-0.073-0.016c-0.161-0.197-0.25-0.427-0.298-0.674c-0.02-0.063-0.032-0.126-0.002-0.189
							c0.025-0.034,0.053-0.058,0.097-0.033c0.071,0.03,0.142,0.061,0.245,0.105c-0.064-0.241-0.038-0.471-0.111-0.689
							C258.945,8.799,258.992,8.793,259.04,8.835z"/>
						<path fill="#518E49" d="M261.449,9.917c-0.015,0.094,0.005,0.162,0.135,0.147c-0.034,0.147-0.09,0.259-0.224,0.325
							c-0.082,0.04-0.111,0.083-0.011,0.155c0.06,0.043,0.036,0.125-0.007,0.192c-0.053,0.081-0.188,0.073-0.202,0.193
							c-0.076-0.087-0.198,0.009-0.275-0.072c-0.03-0.022-0.043-0.054-0.049-0.09c0.008-0.137-0.076-0.267-0.028-0.407
							c0.035-0.056,0.086-0.065,0.147-0.057c0.086,0.012,0.126,0.002,0.1-0.112c-0.04-0.173,0.108-0.253,0.22-0.343
							C261.333,9.833,261.4,9.849,261.449,9.917z"/>
						<path fill="#4B8E47" d="M259.342,11.43c-0.026,0.007-0.058-0.003-0.057-0.024c0.003-0.068-0.027-0.125-0.064-0.173
							c-0.047-0.062-0.099,0.019-0.153,0.011c-0.047-0.007-0.092-0.021-0.137-0.03c-0.102-0.021-0.068-0.11-0.103-0.163
							c-0.021-0.033-0.002-0.041,0.018-0.048c0.022-0.008,0.053,0,0.07-0.012c0.049-0.035,0.119-0.073,0.026-0.137
							c-0.007-0.009-0.014-0.018-0.021-0.027c0.06-0.203,0.115-0.232,0.265-0.123c0.066,0.048,0.125,0.097,0.212,0.086
							c0.048,0,0.094,0.009,0.136,0.032c0.074,0.062,0.132,0.137,0.181,0.219C259.804,11.345,259.694,11.46,259.342,11.43z"/>
						<path fill="#3D8A40" d="M260.861,10.765c0.001,0.031,0.003,0.062,0.004,0.093c0.003,0.016,0.002,0.031-0.003,0.046
							c-0.025,0.106,0.126,0.182,0.052,0.297c-0.019,0.013-0.037,0.038-0.056,0.038c-0.133,0.001-0.29-0.051-0.298,0.175
							c-0.001,0.038-0.087,0.021-0.134,0.026c-0.041,0.003-0.08-0.003-0.12-0.017c-0.275-0.097-0.279-0.105-0.184-0.385
							c0.026-0.058,0.073-0.099,0.121-0.138c0.138-0.125,0.337-0.115,0.487-0.22C260.773,10.65,260.883,10.633,260.861,10.765z"/>
						<path fill="#CECED0" d="M259.242,9.084c-0.002-0.033-0.005-0.067-0.007-0.1c0.131,0.061,0.233,0.163,0.345,0.253
							c0.15-0.164,0.157-0.375,0.243-0.551c0.029-0.059-0.046-0.101-0.034-0.159c0.078-0.022,0.156-0.011,0.233,0.006
							c-0.005,0.144,0.056,0.273,0.099,0.406c-0.039,0.096,0.009,0.169,0.063,0.241c0.06,0.005,0.024,0.097,0.089,0.098
							c0.021,0.037,0.006,0.067-0.018,0.095c-0.019,0.015-0.04,0.022-0.064,0.021c-0.184-0.133-0.369-0.12-0.555-0.005
							c-0.022,0.006-0.044,0.006-0.066,0c-0.058-0.031-0.109-0.072-0.167-0.104C259.318,9.243,259.284,9.161,259.242,9.084z"/>
						<path fill="#677EAE" d="M260.172,11.058c0.021,0.091-0.042,0.15-0.087,0.216c0.121,0.045,0.242,0.081,0.339,0.167
							c-0.023,0.086-0.082,0.067-0.132,0.038c-0.082-0.047-0.139-0.055-0.193,0.045c-0.026,0.047-0.101,0.016-0.119-0.046
							c-0.007-0.023-0.004-0.049-0.007-0.073c-0.003-0.025-0.015-0.046-0.041-0.052c-0.038-0.009-0.065,0.018-0.078,0.044
							c-0.017,0.035-0.014,0.08-0.031,0.115c-0.023,0.049-0.072,0.041-0.108-0.031c-0.013-0.026-0.025-0.036-0.044-0.036
							c-0.048,0-0.104-0.011-0.138,0.031c-0.099,0.121-0.14,0.019-0.191-0.046c0.109-0.053,0.242-0.036,0.341-0.129
							c0.051-0.048,0.048-0.078,0.007-0.11c-0.059-0.046-0.034-0.091-0.011-0.139c0.128-0.085,0.196-0.056,0.221,0.076
							C259.949,11.047,260.019,10.927,260.172,11.058z"/>
						<path fill="#629657" d="M258.541,10.414c-0.115-0.059-0.222-0.12-0.257-0.264c-0.014-0.059-0.018-0.08,0.043-0.099
							c0.059-0.019,0.087-0.067,0.074-0.132c0.065-0.056,0.135-0.09,0.221-0.051c0.162,0.13,0.282,0.273,0.148,0.492
							c-0.032,0.064,0.01,0.126,0.006,0.189c-0.014,0.071-0.057,0.098-0.128,0.082C258.554,10.588,258.575,10.487,258.541,10.414z"
							/>
						<path fill="#3A863C" d="M258.644,10.607c0.075,0.011,0.11-0.021,0.1-0.097c-0.022-0.043-0.018-0.086,0-0.129
							c0.054-0.125,0.155-0.072,0.245-0.063l-0.003-0.003c0.149,0.17,0.026,0.303-0.061,0.44c-0.039,0.046-0.044,0.138-0.141,0.105
							c-0.086,0.012-0.157-0.025-0.221-0.075c-0.093-0.072-0.122-0.16-0.059-0.268C258.594,10.481,258.603,10.568,258.644,10.607z"
							/>
						<path fill="#9DA196" d="M261.553,9.574c0.044-0.113,0.156-0.089,0.241-0.119c0.082-0.028,0.096,0.03,0.107,0.085
							c0.021,0.106-0.071,0.028-0.098,0.057c-0.02,0.021-0.039,0.017-0.06,0.001c-0.04-0.028-0.036,0.013-0.038,0.03
							c-0.001,0.011,0.012,0.032,0.023,0.036c0.022,0.008,0.047,0.012,0.07,0.009c0.075-0.009,0.099,0.024,0.1,0.097
							c0.001,0.071-0.018,0.109-0.095,0.1c-0.032-0.004-0.065-0.004-0.092,0.021c0.011,0.009,0.02,0.022,0.033,0.025
							c0.05,0.013,0.117-0.03,0.15,0.042c0.004,0.009-0.005,0.033-0.015,0.04c-0.06,0.04-0.128,0.019-0.189,0.011
							c-0.046-0.006-0.039-0.066-0.034-0.104c0.014-0.092,0.009-0.181-0.013-0.274c-0.067,0.034-0.013,0.122-0.084,0.142
							C261.491,9.708,261.492,9.642,261.553,9.574z"/>
						<path fill="#448B44" d="M258.597,9.87c-0.02,0.012-0.048,0.018-0.059,0.036c-0.042,0.063-0.088,0.037-0.136,0.013
							c-0.115-0.095-0.206-0.198-0.106-0.357c0.139,0.037,0.312-0.085,0.423,0.09C258.712,9.743,258.749,9.859,258.597,9.87z"/>
						<path fill="#3B8940" d="M261.553,9.574c0.002,0.066,0.003,0.133,0.005,0.199c-0.008,0.07-0.045,0.117-0.109,0.144
							c-0.074,0.018-0.135-0.022-0.2-0.044c-0.156-0.048-0.166-0.142-0.086-0.266c0.128-0.032,0.257-0.054,0.389-0.033
							L261.553,9.574z"/>
						<path fill="#CECED0" d="M260.512,9.668c-0.035,0.083-0.071,0.166,0.057,0.203c0.105,0.022,0.118,0.111,0.141,0.192
							c0,0.017,0,0.033,0.001,0.05c-0.021,0.042-0.047,0.075-0.102,0.055c-0.075-0.049-0.114-0.131-0.178-0.19
							c-0.098-0.175-0.237-0.328-0.278-0.532c0.008-0.039,0.039-0.055,0.071-0.069l-0.001,0.001
							c0.122-0.027,0.091,0.099,0.143,0.143C260.397,9.586,260.443,9.638,260.512,9.668z"/>
						<path fill="#497B49" d="M258.764,9.42c-0.035,0.005-0.063,0.019-0.071,0.057c-0.11,0.055-0.231,0.174-0.291-0.052
							c0.005-0.06-0.013-0.12,0.02-0.18c0.03-0.055,0.07-0.072,0.126-0.066c0.073-0.041,0.076,0.107,0.153,0.056
							C258.795,9.272,258.734,9.361,258.764,9.42z"/>
						<path fill="#438945" d="M261.304,9.181c0.134,0.002,0.133,0.101,0.14,0.194c-0.025,0.099-0.039,0.211-0.19,0.148
							c-0.017-0.015-0.032-0.03-0.046-0.048l-0.002-0.014c-0.016-0.015-0.027-0.034-0.032-0.055
							c-0.001-0.065,0.008-0.129,0.007-0.194c0.006-0.022,0.018-0.039,0.036-0.053C261.25,9.149,261.281,9.151,261.304,9.181z"/>
						<path fill="#B0B0A2" d="M258.402,9.426c0.053,0.066,0.106,0.121,0.198,0.054c0.021-0.015,0.061-0.002,0.092-0.002
							c0.016,0.05,0.031,0.1,0.047,0.15c-0.019,0.022-0.036,0.02-0.051-0.003c-0.054,0.016-0.105-0.057-0.174,0.028
							c-0.046,0.057-0.147-0.046-0.217-0.09C258.338,9.521,258.335,9.446,258.402,9.426z"/>
						<path fill="#6F6E6E" d="M261.549,9.232c0.051,0.012,0.089-0.015,0.133-0.036c0.048-0.023,0.105-0.037,0.12,0.054
							c0.008,0.048,0.077,0.088-0.011,0.132c-0.115,0.056-0.147,0.054-0.2-0.019c-0.03-0.042-0.038-0.086-0.036-0.135L261.549,9.232
							z"/>
						<path fill="#9DA196" d="M261.256,9.478c0.058,0.039,0.111,0.044,0.144-0.029c0.012-0.027,0.009-0.061,0.045-0.073
							c-0.006,0.089,0.085,0.124,0.107,0.198c-0.164,0.076-0.196,0.08-0.344,0.047C261.178,9.557,261.23,9.522,261.256,9.478z"/>
						<path fill="#828282" d="M260.87,8.224c-0.009,0.019-0.021,0.048-0.038,0.074c-0.023,0.035-0.024,0.11-0.092,0.077
							c-0.059-0.029-0.107-0.077-0.063-0.155c0.008-0.014,0.018-0.027,0.024-0.041c0.015-0.037,0.028-0.088,0.077-0.071
							C260.821,8.121,260.862,8.156,260.87,8.224z"/>
						<path fill="#878686" d="M259.553,7.913c0.065,0.021,0.115,0.064,0.129,0.13c0.011,0.053,0.021,0.117-0.046,0.148
							c-0.021,0.01-0.052,0.017-0.071,0.008c-0.063-0.03-0.097-0.205-0.052-0.257C259.523,7.93,259.539,7.923,259.553,7.913z"/>
						<path fill="#919191" d="M258.055,9.082c0.032-0.047,0.054-0.163,0.123-0.015c0.043-0.027,0.067-0.018,0.08,0.034
							c0.011,0.044,0.11-0.051,0.087,0.045c-0.012,0.051-0.051,0.1-0.125,0.083C258.11,9.204,258.046,9.153,258.055,9.082z"/>
						<path fill="#7B7A7A" d="M258.398,10.906c0.028,0.014,0.06,0.024,0.084,0.044c0.024,0.02,0.039,0.049,0.058,0.074
							c-0.043,0.055-0.082,0.107-0.148,0.127c-0.03,0.009-0.063,0.071-0.092,0.001c-0.016-0.039-0.063-0.077-0.003-0.124
							c0.043-0.034,0.092-0.066,0.106-0.126L258.398,10.906z"/>
						<path fill="#929293" d="M258.529,11.39c-0.087-0.156-0.079-0.206,0.032-0.274c0.047-0.029,0.076-0.006,0.105,0.025
							c0.023,0.025,0.042,0.055,0.015,0.086C258.633,11.283,258.581,11.335,258.529,11.39z"/>
						<path fill="#7C7C7D" d="M261.233,11.061c0.054,0.05,0.096,0.087,0.135,0.127c0.028,0.028,0.063,0.074,0.013,0.095
							c-0.038,0.017-0.076,0.081-0.142,0.022C261.154,11.229,261.147,11.218,261.233,11.061z"/>
						<path fill="#B8BDAA" d="M258.701,9.235c-0.003,0.007-0.004,0.019-0.009,0.022c-0.05,0.025-0.023,0.135-0.093,0.114
							c-0.12-0.036,0.015-0.097,0-0.148c-0.007-0.025-0.024-0.04-0.05-0.044c0-0.073-0.027-0.165,0.104-0.142
							c0.064,0.033,0.15,0.019,0.192,0.095c-0.03,0.087-0.108,0.03-0.157,0.053C258.63,9.212,258.681,9.222,258.701,9.235z"/>
						<path fill="#717070" d="M261.088,11.578c-0.035,0.02-0.065,0.033-0.091,0.052c-0.033,0.023-0.066,0.016-0.086-0.01
							c-0.03-0.037-0.049-0.082-0.075-0.122c-0.022-0.033-0.004-0.095,0.009-0.074c0.058,0.088,0.076-0.152,0.124-0.008
							C260.985,11.466,261.033,11.505,261.088,11.578z"/>
						<path fill="#767575" d="M259.111,11.499c0.055-0.012-0.004,0.127,0.087,0.061c0.018-0.013,0.035-0.011,0.031,0.011
							c-0.016,0.078-0.041,0.154-0.104,0.208c-0.034,0.028-0.061,0.001-0.083-0.02c-0.029-0.027-0.068-0.059-0.027-0.1
							C259.061,11.612,259.081,11.552,259.111,11.499z"/>
						<path fill="#878787" d="M258.03,9.675c-0.011,0.001-0.065-0.006-0.104-0.057c-0.022-0.029-0.024-0.061,0-0.087
							c0.018-0.02,0.034-0.057,0.075-0.034c0.041,0.024,0.082,0.053,0.126,0.063c0.026,0.006,0.067-0.062,0.077,0.018
							c0.005,0.042-0.007,0.08-0.056,0.09C258.126,9.674,258.101,9.672,258.03,9.675z"/>
						<path fill="#5B5A5A" d="M259.931,8.051c0.006,0.048-0.008,0.101-0.069,0.124c-0.042,0.016-0.13-0.089-0.111-0.153
							c0.013-0.044,0.014-0.121,0.092-0.121C259.939,7.902,259.927,7.976,259.931,8.051z"/>
						<path fill="#448E47" d="M258.844,9.132c-0.032,0.001-0.065-0.001-0.097,0.002c-0.074,0.008-0.104-0.025-0.095-0.097
							c0.055-0.028,0.031-0.117,0.111-0.125C258.895,9.013,258.895,9.013,258.844,9.132z"/>
						<path fill="#B5BCAA" d="M261.209,9.179c0.058,0.082,0.066,0.163,0,0.244c-0.099,0.042-0.091-0.079-0.15-0.098
							c0.009-0.07-0.001-0.135-0.051-0.189C261.093,9.063,261.159,9.084,261.209,9.179z"/>
						<path fill="#7C7B7B" d="M261.362,10.907c0.069,0.035,0.148,0.059,0.187,0.135c0.008,0.015-0.004,0.047-0.016,0.064
							c-0.013,0.018-0.037,0.029-0.057,0.043c-0.046-0.065-0.153-0.062-0.174-0.153C261.292,10.953,261.312,10.92,261.362,10.907z"
							/>
						<path fill="#7B7B7B" d="M258.538,8.444c0.068-0.006,0.194,0.115,0.185,0.179c-0.001,0.007-0.007,0.015-0.013,0.02
							c-0.018,0.014-0.042,0.042-0.055,0.038c-0.078-0.027-0.138-0.078-0.159-0.162c-0.004-0.019,0.013-0.043,0.023-0.064
							C258.521,8.45,258.531,8.448,258.538,8.444z"/>
						<path fill="#535353" d="M260.507,8.28c-0.006-0.005-0.014-0.008-0.019-0.014c-0.051-0.067,0.006-0.25,0.085-0.261
							c0.018-0.003,0.047,0.017,0.059,0.034c0.019,0.027-0.068,0.23-0.101,0.245C260.525,8.287,260.515,8.281,260.507,8.28z"/>
						<path fill="#438E47" d="M261.209,9.179c-0.061-0.042-0.129-0.053-0.202-0.043c-0.016-0.019-0.033-0.038-0.049-0.057
							c0.004-0.098,0.045-0.159,0.153-0.155c0.016,0.019,0.033,0.039,0.049,0.058c0.028,0.063,0.119,0.112,0.047,0.199
							L261.209,9.179z"/>
						<path fill="#818181" d="M259.042,11.457c-0.043,0.071-0.06,0.156-0.139,0.191c-0.026,0.012-0.063,0.006-0.089-0.019
							c-0.033-0.031-0.004-0.054,0.006-0.083c0.019-0.056,0.149-0.035,0.097-0.143c-0.004-0.008,0.059-0.009,0.086,0.002
							C259.021,11.412,259.03,11.44,259.042,11.457z"/>
						<path fill="#888888" d="M261.471,10.889c-0.025-0.034-0.031-0.074-0.023-0.115c0.007-0.033,0.025-0.069,0.062-0.059
							c0.07,0.019,0.137,0.048,0.177,0.115c0.026,0.044-0.022,0.119-0.077,0.119c-0.018,0-0.05-0.005-0.032-0.043
							c0.018-0.037,0.034-0.082-0.026-0.092C261.502,10.806,261.51,10.876,261.471,10.889z"/>
						<path fill="#929292" d="M258.155,10.655c-0.144-0.048-0.144-0.048-0.131-0.196c0.03,0.036,0.052,0.084,0.079,0.088
							c0.059,0.009,0.046-0.048,0.051-0.085c0.006-0.039,0.033-0.056,0.066-0.039c0.018,0.009,0.031,0.037,0.036,0.059
							c0.022,0.092-0.094,0.102-0.106,0.176L258.155,10.655z"/>
						<path fill="#5C5C5C" d="M260.018,8.022c0.014-0.044-0.023-0.12,0.07-0.121c0.059-0.001,0.107,0.037,0.081,0.085
							c-0.026,0.05,0.028,0.141-0.067,0.15C260.022,8.145,260.014,8.086,260.018,8.022z"/>
						<path fill="#777777" d="M261.555,9.228c-0.068-0.03-0.064-0.104-0.096-0.155c0.01-0.014,0.024-0.038,0.028-0.036
							c0.074,0.027,0.148-0.106,0.196-0.027c0.058,0.095-0.081,0.116-0.116,0.18c-0.007,0.013-0.012,0.028-0.018,0.043
							L261.555,9.228z"/>
						<path fill="#686767" d="M257.943,10.342c0.035-0.124,0.135-0.109,0.193-0.17c0.02,0.066,0.036,0.118,0.053,0.176
							C258.11,10.371,258.034,10.358,257.943,10.342z"/>
						<path fill="#737373" d="M258.842,11.321c-0.004,0.095-0.079,0.126-0.124,0.179c-0.021,0.024-0.048,0.038-0.078,0.004
							c-0.028-0.032-0.051-0.06-0.019-0.103C258.679,11.325,258.762,11.336,258.842,11.321z"/>
						<path fill="#616161" d="M261.284,8.821c-0.027-0.046-0.053-0.09-0.078-0.133c0.008-0.015,0.014-0.037,0.022-0.038
							c0.058-0.007,0.109-0.102,0.165-0.041c0.055,0.059-0.04,0.104-0.054,0.16C261.334,8.788,261.306,8.801,261.284,8.821z"/>
						<path fill="#518E49" d="M260.913,11.201c-0.04-0.057-0.004-0.15-0.094-0.189c-0.015-0.007-0.024-0.091,0.043-0.107
							c0.018,0.027,0.031,0.07,0.055,0.077c0.13,0.038,0.025,0.145,0.066,0.206C260.959,11.192,260.936,11.196,260.913,11.201z"/>
						<path fill="#5F5F5F" d="M258.886,8.411c-0.04,0.039-0.093,0.06-0.109,0.118c-0.011-0.007-0.026-0.011-0.031-0.021
							c-0.008-0.014-0.007-0.032-0.012-0.047c-0.019-0.05-0.08-0.109-0.02-0.152c0.061-0.044,0.091,0.043,0.136,0.069
							C258.863,8.387,258.874,8.4,258.886,8.411z"/>
						<path fill="#979697" d="M258.849,8.205c0.121-0.021,0.091,0.184,0.22,0.103c0.006,0.015,0.018,0.03,0.016,0.043
							c-0.006,0.044-0.039,0.072-0.077,0.084c-0.017,0.005-0.052-0.01-0.061-0.026C258.912,8.347,258.885,8.282,258.849,8.205z"/>
						<path fill="#7C7C7C" d="M261.243,11.413c-0.023,0.067-0.064,0.092-0.129,0.122c0.032-0.114-0.088-0.16-0.108-0.282
							C261.116,11.298,261.149,11.404,261.243,11.413z"/>
						<path fill="#4D5151" d="M260.021,8.534c-0.081,0.116-0.156,0.009-0.233-0.006c0.023-0.038,0.047-0.076,0.07-0.113
							C259.86,8.526,260.05,8.381,260.021,8.534z"/>
						<path fill="#949AA8" d="M260.365,9.52c-0.09-0.005-0.069-0.121-0.143-0.143c0.017-0.033,0.033-0.066,0.05-0.099
							c0.028-0.012,0.057-0.025,0.094-0.041C260.365,9.334,260.365,9.427,260.365,9.52z"/>
						<path fill="#6E6D6E" d="M259.178,8.057c0.005,0.028,0.015,0.058,0.014,0.088c-0.001,0.05,0.088,0.101,0.005,0.146
							c-0.038,0.021-0.151-0.101-0.152-0.162c0-0.02,0.019-0.029,0.031-0.019C259.154,8.172,259.124,8.051,259.178,8.057z"/>
						<path fill="#525252" d="M260.604,11.579c0.039-0.02,0.067-0.032,0.094-0.047c0.014-0.007,0.026-0.017,0.047-0.032
							c0.038,0.073,0.023,0.147,0.026,0.245C260.691,11.706,260.654,11.653,260.604,11.579z"/>
						<path fill="#888888" d="M258.448,8.942c-0.014,0.05-0.044,0.099-0.096,0.088s-0.097-0.052-0.143-0.084
							c-0.006-0.004,0.001-0.028,0.005-0.042c0.002-0.007,0.012-0.016,0.017-0.016c0.065,0.004,0.125,0.088,0.195,0.013
							C258.434,8.914,258.441,8.928,258.448,8.942z"/>
						<path fill="#CAB4A6" d="M261.111,8.924c-0.068,0.035-0.121,0.084-0.153,0.155c-0.032-0.082-0.001-0.236,0.051-0.238
							C261.059,8.839,261.092,8.878,261.111,8.924z"/>
						<path fill="#565656" d="M260.902,8.882c-0.058,0.021-0.09-0.038-0.14-0.045c-0.011-0.021-0.025-0.041-0.033-0.063
							c-0.019-0.05,0.01-0.091,0.052-0.07C260.847,8.738,260.926,8.78,260.902,8.882z"/>
						<path fill="#585858" d="M259.284,7.992c0.089,0.04,0.124,0.102,0.153,0.165c-0.028,0.061-0.092,0.051-0.137,0.081
							C259.271,8.159,259.296,8.081,259.284,7.992z"/>
						<path fill="#A1A1A1" d="M258.152,10.658c0.024-0.002,0.048-0.002,0.071-0.006c0.025-0.004,0.045-0.057,0.072-0.01
							c0.008,0.014-0.002,0.049-0.015,0.062c-0.056,0.055-0.125,0.085-0.205,0.102c-0.007-0.082,0.073-0.094,0.08-0.15
							L258.152,10.658z"/>
						<path fill="#888888" d="M258.403,10.902c-0.07-0.028-0.109,0.071-0.201,0.036c0.048-0.072,0.124-0.113,0.138-0.194
							c0.098,0.047,0.051,0.111,0.059,0.162L258.403,10.902z"/>
						<path fill="#737373" d="M261.202,8.377c0.016,0.118-0.132,0.177-0.05,0.277c0.006,0.008-0.033,0.007-0.051-0.005
							c-0.045-0.031-0.067-0.076-0.038-0.122C261.095,8.478,261.142,8.44,261.202,8.377z"/>
						<path fill="#383838" d="M261.703,10.433c-0.026,0.01-0.063,0.038-0.081-0.001c-0.01-0.021,0.01-0.06,0.024-0.086
							c0.033-0.063,0.062-0.006,0.093,0.005c0.023,0.008,0.049,0.008,0.07,0.019s0.036,0.033,0.023,0.058
							c-0.006,0.011-0.024,0.019-0.038,0.02C261.764,10.45,261.74,10.41,261.703,10.433z"/>
						<path fill="#2E2E2E" d="M257.974,9.892c0.024-0.081,0.125-0.052,0.164-0.162C258.134,9.9,258.134,9.9,257.974,9.892z"/>
						<path fill="#494E4B" d="M261.059,9.325c0.031,0.011,0.107-0.106,0.094,0.033c-0.004,0.037,0.022,0.057,0.056,0.065
							c0.001,0.013,0,0.026-0.003,0.039c-0.059,0.016-0.12,0.037-0.154-0.041C261.054,9.39,261.056,9.357,261.059,9.325z"/>
						<path fill="#B5BCAA" d="M261.207,9.181c-0.016-0.066-0.031-0.133-0.047-0.199c0.08,0.043,0.185,0.068,0.145,0.199
							C261.272,9.181,261.239,9.181,261.207,9.181z"/>
						<path fill="#373837" d="M259.04,8.835c-0.048,0-0.095,0-0.143,0c-0.004-0.037,0.016-0.059,0.044-0.078
							c0.037-0.025,0.068-0.092,0.116-0.051C259.095,8.737,259.031,8.788,259.04,8.835z"/>
						<path fill="#6C7689" d="M260.183,9.18c-0.132-0.091-0.139-0.118-0.063-0.241C260.129,9.023,260.191,9.092,260.183,9.18z"/>
						<path fill="#626161" d="M260.554,11.784c-0.064-0.01-0.025-0.085-0.073-0.11c-0.026-0.014-0.089-0.043-0.024-0.081
							c0.045-0.026,0.07,0.024,0.09,0.058C260.571,11.693,260.59,11.738,260.554,11.784z"/>
						<path fill="#9FA284" d="M258.644,10.607c-0.047-0.03-0.093-0.06-0.14-0.09c0.012-0.034,0.024-0.068,0.037-0.102
							C258.624,10.452,258.645,10.524,258.644,10.607z"/>
						<path fill="#313231" d="M261.711,10.089c0.077-0.02,0.145-0.02,0.183,0.063c0.005,0.011-0.003,0.03-0.007,0.044
							c-0.007,0.022-0.022,0.025-0.033,0.004C261.824,10.139,261.766,10.118,261.711,10.089z"/>
						<path fill="#4B8E47" d="M258.785,10.86c0.071,0.002,0.04-0.096,0.101-0.104c0.047,0.018,0.021,0.078,0.058,0.101l-0.002-0.003
							C258.893,10.95,258.839,10.9,258.785,10.86z"/>
						<path fill="#A1A7B7" d="M260.625,10.157c0.028-0.015,0.057-0.03,0.085-0.045c-0.008,0.059,0.039,0.098,0.056,0.148
							c0.003,0.113-0.033,0.2-0.154,0.231c-0.113-0.008-0.226-0.022-0.326,0.054c-0.025,0.019-0.066,0.036-0.092,0.024
							c-0.231-0.11-0.485,0.044-0.716-0.07c-0.082-0.041-0.175-0.001-0.264,0.003c-0.101-0.029-0.232-0.03-0.175-0.198
							c0.068-0.07,0.042-0.161,0.055-0.244c0.058-0.012,0.096,0.018,0.129,0.06c0.06,0.116,0.17,0.104,0.275,0.109
							c0.366,0.019,0.727-0.031,1.089-0.072C260.6,10.158,260.613,10.157,260.625,10.157z"/>
						<path fill="#E4E7E3" d="M260.615,10.459c0.092-0.035,0.066-0.158,0.15-0.198c0.016,0.003,0.032,0.005,0.049,0.004
							c0.031,0.032,0.027,0.065-0.001,0.097c0.026,0.115,0.049,0.231,0.096,0.341c0.017,0.04-0.014,0.056-0.049,0.062
							c-0.04-0.073-0.093-0.085-0.15-0.025c-0.033,0.035-0.056,0.08-0.084,0.12c-0.02,0.027-0.051,0.057-0.08,0.033
							c-0.116-0.094-0.192,0-0.278,0.052c-0.048,0.002-0.092-0.003-0.109-0.059c0.002-0.037,0.03-0.057,0.057-0.081
							c-0.064,0.002-0.116,0.05-0.181,0.035c-0.126-0.048-0.1-0.127-0.043-0.213C260.194,10.55,260.393,10.462,260.615,10.459z"/>
						<path fill="#F8F8F7" d="M260.814,10.362c0-0.032,0-0.064,0.001-0.097c0.12-0.171,0.22-0.352,0.245-0.564
							c0.012-0.104,0.081-0.163,0.149-0.226c0.016,0.001,0.032,0.001,0.048,0.002c0.018,0.059-0.034,0.094-0.048,0.143
							c-0.12,0.106,0.007,0.172,0.041,0.252c0.015,0.054-0.003,0.106-0.049,0.125c-0.161,0.064-0.126,0.181-0.079,0.292
							c0.03,0.071,0.043,0.12-0.04,0.158c-0.013-0.038-0.025-0.076-0.038-0.114c-0.055,0.024-0.044,0.106-0.114,0.115
							C260.898,10.416,260.938,10.28,260.814,10.362z"/>
						<path fill="#FAF9FA" d="M260.71,10.063c-0.098-0.027-0.093-0.129-0.141-0.192c0.037-0.112,0.091-0.209,0.232-0.233
							C260.829,9.789,260.768,9.926,260.71,10.063z"/>
						<path fill="#F6F5F5" d="M259.191,10.114c-0.032-0.018-0.064-0.035-0.096-0.053c-0.037-0.153-0.138-0.294-0.094-0.465
							c0.158,0.024,0.188,0.168,0.256,0.277c0.044-0.046,0.102-0.074,0.063-0.147c-0.108-0.203-0.093-0.423-0.078-0.641
							c0.084,0.021,0.107,0.125,0.193,0.145c0.035,0.063,0.066,0.131,0.146,0.15l-0.001-0.002c0.126-0.006,0.235-0.092,0.368-0.072
							c0.093,0.014,0.172,0.041,0.223,0.124c0.103,0.176,0.248,0.329,0.296,0.536c-0.017,0.02-0.038,0.033-0.063,0.039
							c-0.162,0.007-0.316-0.026-0.461-0.097c-0.029-0.017-0.032-0.05-0.046-0.076c0.002,0.015,0.001,0.03-0.005,0.046
							C259.641,9.903,259.449,10.108,259.191,10.114z"/>
						<path fill="#E8E9E9" d="M260.172,10.903c0.036,0.005,0.083-0.016,0.096,0.042c-0.006,0.06-0.087,0.056-0.097,0.112
							c-0.199-0.003-0.199-0.003-0.27,0.179c-0.045-0.18-0.045-0.18-0.223-0.184c-0.066-0.054-0.14-0.102-0.154-0.197
							c-0.043-0.097-0.092-0.045-0.141-0.005c-0.079,0.021-0.161,0.071-0.202-0.06c-0.016-0.049-0.072-0.086-0.112-0.13
							c-0.048,0.067-0.15,0.09-0.126,0.196c-0.058-0.012-0.048-0.062-0.058-0.101c0.094-0.133,0.123-0.282,0.102-0.441
							c0.018-0.003,0.035-0.006,0.053-0.01c0.005,0.046-0.008,0.109,0.066,0.103c0.057-0.004,0.083,0.048,0.132,0.052
							c0.233,0.054,0.517-0.02,0.659,0.262c0.023,0.056,0.008,0.105-0.039,0.158c0.092,0.009,0.175-0.001,0.257-0.007
							C260.137,10.877,260.157,10.886,260.172,10.903z"/>
						<path fill="#E8E9E9" d="M258.688,9.624c0.017,0.001,0.034,0.002,0.051,0.003c0.014,0.18,0.102,0.334,0.175,0.493
							c0.029,0.063,0.097,0.114,0.075,0.197c-0.034,0.012-0.045,0.041-0.051,0.073c-0.006,0.031-0.011,0.068-0.052,0.064
							c-0.039-0.004-0.033-0.045-0.042-0.073c-0.006-0.019-0.002-0.079-0.045-0.02c-0.009,0.012-0.009,0.03-0.013,0.046
							c-0.059,0.041-0.096,0.04-0.091-0.046c0.016-0.044,0.036-0.088,0.048-0.133c0.017-0.069,0.114-0.162-0.062-0.178
							c-0.035-0.003-0.101-0.097-0.084-0.179C258.674,9.805,258.702,9.722,258.688,9.624z"/>
						<path fill="#A1A7A2" d="M259.384,10.85c-0.01-0.053,0.027-0.09,0.045-0.134c0.025-0.065,0.041-0.057,0.061,0.001
							c0.013,0.038,0.046,0.039,0.079,0.039c0.039,0,0.067,0.024,0.058,0.059c-0.013,0.051-0.063,0.036-0.102,0.04
							C259.478,10.854,259.431,10.852,259.384,10.85z"/>
						<path fill="#768098" d="M260.171,9.43c-0.184-0.068-0.363-0.088-0.546,0.017c-0.058,0.033-0.037-0.04-0.045-0.069
							c0.123-0.194,0.32-0.14,0.497-0.143c0.083-0.002,0.077,0.115,0.147,0.142C260.222,9.409,260.203,9.426,260.171,9.43z"/>
						<path fill="#9399A7" d="M259.581,9.379c-0.072,0.015-0.035,0.133-0.146,0.121c0-0.082,0-0.177,0-0.271
							C259.49,9.273,259.597,9.266,259.581,9.379z"/>
						<path fill="#9FA284" d="M258.695,10.36c0.012,0.051,0.05,0.053,0.091,0.046c-0.014,0.034-0.028,0.069-0.042,0.103
							C258.631,10.44,258.629,10.435,258.695,10.36z"/>
						<path fill="#A1A7B7" d="M260.412,9.975c0.018-0.003,0.037-0.006,0.055-0.009c0.129,0.001,0.124,0.112,0.158,0.191l-0.011,0.01
							C260.475,10.177,260.412,10.109,260.412,9.975z"/>
						<path fill="#206232" d="M260.412,9.975c0.06,0.072,0.118,0.145,0.202,0.192c-0.02,0.078-0.079,0.087-0.149,0.097
							c-0.388,0.056-0.778,0.047-1.168,0.045c-0.181-0.001-0.181-0.003-0.107-0.195c0.025-0.03,0.054-0.089,0.073-0.086
							c0.116,0.017,0.186-0.049,0.261-0.117c0.113-0.104,0.116-0.106,0.259-0.026c0.049,0.028,0.071-0.015,0.106-0.021
							c0.01-0.001,0.02-0.003,0.029-0.004C260.081,9.908,260.26,9.881,260.412,9.975z"/>
						<path fill="#677694" d="M259.878,10.754c-0.015-0.005-0.038-0.007-0.042-0.016c-0.063-0.147-0.173-0.199-0.329-0.18
							c-0.102,0.013-0.181-0.059-0.269-0.098c0.108-0.084,0.219-0.077,0.32,0.004c0.07,0.055,0.126,0.067,0.192,0.001
							c0.084-0.085,0.167-0.081,0.257-0.002c0.092,0.08,0.191,0.073,0.288,0.002c0.105-0.078,0.213-0.086,0.321-0.005
							c-0.146,0.077-0.292,0.155-0.463,0.145c-0.055-0.003-0.083,0.041-0.127,0.054c-0.013,0.013-0.028,0.021-0.046,0.021
							c-0.044-0.004-0.057,0.033-0.078,0.059C259.893,10.744,259.886,10.749,259.878,10.754z"/>
						<path fill="#9E9EA0" d="M259.97,10.657c0.019,0,0.037,0.001,0.056,0.001c-0.062,0.126-0.062,0.126,0.044,0.142
							c-0.109,0.106,0.056,0.063,0.059,0.109c-0.146,0.111-0.285,0.013-0.425-0.018c-0.035-0.008-0.028-0.055-0.022-0.085
							c0.009-0.05,0.039-0.03,0.067-0.016c0.028,0.014,0.056,0.033,0.086,0.038c0.07,0.012,0.031-0.048,0.043-0.074l-0.001,0.002
							C259.921,10.736,259.879,10.634,259.97,10.657z"/>
						<path fill="#6A696A" d="M260.128,10.909c-0.045-0.004-0.09-0.008-0.134-0.012c0.002-0.057,0.09-0.033,0.075-0.096
							c0.024-0.041,0.064-0.041,0.105-0.041c0.072,0,0.146,0.007,0.19-0.071c0.011-0.019,0.039-0.034,0.051-0.001
							c0.006,0.018-0.002,0.046-0.013,0.063c-0.022,0.033-0.064,0.043-0.094,0.064c-0.044,0.03-0.112,0.029-0.135,0.089h-0.022
							L260.128,10.909z"/>
						<path fill="#CB5255" d="M259.919,9.86l-0.014,0.005l-0.015-0.001c0.007-0.061-0.047-0.1-0.058-0.155
							c-0.007-0.035,0.003-0.067,0.035-0.082c0.049-0.025,0.092-0.015,0.128,0.03c0.026,0.033,0.016,0.056-0.008,0.082
							C259.953,9.774,259.913,9.805,259.919,9.86z"/>
						<path fill="#828181" d="M260.18,9.708c-0.098-0.103-0.188-0.148-0.212-0.305C260.069,9.502,260.158,9.548,260.18,9.708z"/>
						<path fill="#EEEDEE" d="M259.97,10.657c-0.06,0.006-0.027,0.099-0.093,0.099c0.011-0.076-0.024-0.156,0.016-0.232
							C259.934,10.561,259.952,10.608,259.97,10.657z"/>
					</g>
				</g>
			</g>
		</g>
	</g>
</g>
<path fill="#010201" d="M280.133,5.438h5.133v0.91h-3.992v2.678h3.368v0.923h-3.368v3.095h4.128v0.923h-5.269L280.133,5.438
	L280.133,5.438z"/>
<path fill="#010201" d="M287.088,4.711h1.114v8.06c0,0.338,0.149,0.468,0.312,0.468c0.068,0,0.123,0,0.245-0.025l0.149,0.806
	c-0.149,0.065-0.34,0.104-0.639,0.104c-0.842,0-1.182-0.507-1.182-1.431V4.711H287.088z"/>
<path fill="#010201" d="M293.27,12.107c0.638,0.638,1.521,1.066,2.458,1.066c1.168,0,1.86-0.559,1.86-1.391
	c0-0.871-0.652-1.145-1.494-1.509l-1.276-0.533c-0.828-0.338-1.807-0.948-1.807-2.196c0-1.301,1.195-2.263,2.812-2.263
	c1.06,0,1.996,0.43,2.621,1.054l-0.598,0.701c-0.543-0.493-1.209-0.806-2.023-0.806c-1.005,0-1.671,0.481-1.671,1.248
	c0,0.819,0.788,1.131,1.48,1.417l1.276,0.521c1.032,0.429,1.834,1.014,1.834,2.274c0,1.353-1.168,2.432-3.042,2.432
	c-1.25,0-2.336-0.494-3.11-1.262L293.27,12.107z"/>
<path fill="#010201" d="M304.014,9.963c0-0.807-0.285-1.586-1.358-1.586c-0.774,0-1.453,0.338-1.97,0.676l-0.447-0.741
	c0.61-0.377,1.534-0.819,2.594-0.819c1.616,0,2.295,1.027,2.295,2.601v3.874h-0.924l-0.095-0.754h-0.027
	c-0.639,0.494-1.371,0.91-2.187,0.91c-1.113,0-1.941-0.663-1.941-1.794C299.953,10.951,301.203,10.261,304.014,9.963z
	 M302.207,13.264c0.639,0,1.168-0.299,1.807-0.845v-1.755c-2.214,0.26-2.961,0.779-2.961,1.586
	C301.053,12.966,301.555,13.264,302.207,13.264z"/>
<path fill="#010201" d="M307.166,4.711h1.114v8.06c0,0.338,0.149,0.468,0.312,0.468c0.068,0,0.123,0,0.245-0.025l0.149,0.806
	c-0.149,0.065-0.34,0.104-0.639,0.104c-0.842,0-1.182-0.507-1.182-1.431V4.711H307.166z"/>
<path fill="#010201" d="M309.613,7.648h1.154l1.249,3.588c0.19,0.624,0.407,1.262,0.611,1.859h0.055
	c0.189-0.598,0.407-1.235,0.598-1.859l1.249-3.588h1.1l-2.336,6.318h-1.304L309.613,7.648z"/>
<path fill="#010201" d="M320.302,9.963c0-0.807-0.286-1.586-1.358-1.586c-0.774,0-1.453,0.338-1.969,0.676l-0.448-0.741
	c0.61-0.377,1.534-0.819,2.594-0.819c1.616,0,2.295,1.027,2.295,2.601v3.874h-0.924l-0.095-0.754h-0.027
	c-0.639,0.494-1.371,0.91-2.187,0.91c-1.113,0-1.941-0.663-1.941-1.794C316.242,10.951,317.491,10.261,320.302,9.963z
	 M318.495,13.264c0.639,0,1.168-0.299,1.807-0.845v-1.755c-2.214,0.26-2.961,0.779-2.961,1.586
	C317.341,12.966,317.844,13.264,318.495,13.264z"/>
<path fill="#010201" d="M325.845,7.492c0.761,0,1.263,0.273,1.847,0.729l-0.055-1.079V4.711h1.128v9.256h-0.924l-0.095-0.741h-0.041
	c-0.516,0.481-1.223,0.897-1.996,0.897c-1.657,0-2.729-1.196-2.729-3.303C322.98,8.766,324.337,7.492,325.845,7.492z
	 M325.953,13.225c0.611,0,1.141-0.286,1.684-0.871V9.052c-0.557-0.481-1.059-0.663-1.602-0.663c-1.06,0-1.901,0.975-1.901,2.418
	C324.134,12.315,324.799,13.225,325.953,13.225z"/>
<path fill="#010201" d="M333.494,7.492c1.615,0,3.056,1.209,3.056,3.328c0,2.094-1.44,3.303-3.056,3.303s-3.056-1.209-3.056-3.303
	C330.438,8.701,331.877,7.492,333.494,7.492z M333.494,13.238c1.141,0,1.9-0.975,1.9-2.418c0-1.456-0.76-2.443-1.9-2.443
	c-1.128,0-1.901,0.987-1.901,2.443C331.592,12.263,332.366,13.238,333.494,13.238z"/>
<path fill="#010201" d="M338.221,7.648h0.924l0.095,1.145h0.041c0.448-0.793,1.127-1.301,1.874-1.301
	c0.285,0,0.489,0.039,0.706,0.131l-0.217,0.936c-0.218-0.065-0.367-0.104-0.639-0.104c-0.557,0-1.222,0.39-1.67,1.455v4.057h-1.114
	L338.221,7.648L338.221,7.648z"/>
<circle fill="none" stroke="#010201" stroke-miterlimit="10" cx="259.927" cy="9.771" r="7.049"/>
</svg>
