<?xml version="1.0" encoding="utf-8"?>
<!-- Generator: Adobe Illustrator 17.0.0, SVG Export Plug-In . SVG Version: 6.00 Build 0)  -->
<!DOCTYPE svg PUBLIC "-//W3C//DTD SVG 1.1//EN" "http://www.w3.org/Graphics/SVG/1.1/DTD/svg11.dtd">
<svg version="1.1" id="Layer_1" xmlns="http://www.w3.org/2000/svg" xmlns:xlink="http://www.w3.org/1999/xlink" x="0px" y="0px"
	 width="600px" height="19.542px" viewBox="0 0 600 19.542" enable-background="new 0 0 600 19.542" xml:space="preserve">
<rect x="175.589" y="2.722" fill="#ABCCB7" width="16.539" height="14.097"/>
<g>
	<rect x="448.356" y="8.771" fill="#ABCCB7" width="55.646" height="2"/>
</g>
<g>
	<g>
		<circle fill="#ABCCB7" cx="503.878" cy="9.771" r="2.481"/>
	</g>
</g>
<rect x="0" y="0" fill="none" width="600" height="19.542"/>
<line fill="none" stroke="#9F9F9F" stroke-width="0.7" stroke-miterlimit="10" stroke-dasharray="6,3" x1="199.426" y1="-0.002" x2="199.426" y2="19.298"/>
<line fill="none" stroke="#9F9F9F" stroke-width="0.7" stroke-miterlimit="10" stroke-dasharray="6,3" x1="440.97" y1="-0.002" x2="440.97" y2="19.298"/>
<g>
	<g>
		<g>
			<defs>
				<circle id="SVGID_1_" cx="259.927" cy="9.771" r="7.049"/>
			</defs>
			<clipPath id="SVGID_2_">
				<use xlink:href="#SVGID_1_"  overflow="visible"/>
			</clipPath>
			<g id="X9ZttP_1_" clip-path="url(#SVGID_2_)">
				<g>
					<g>
						<path fill="#FDFCFD" d="M274.489,2.509c0.048,0,0.096,0,0.144,0c0,4.854,0,9.708,0,14.562c-9.756,0-19.512,0-29.268,0
							c0-4.782,0-9.564,0-14.346c0-0.072,0-0.144,0.002-0.216c0,0,0.03,0,0.046,0c0.094,0.109,0.067,0.243,0.067,0.368
							c0.002,1.462,0.001,2.925,0.002,4.387c-0.002,1.68-0.001,3.361,0,5.041c-0.002,1.432-0.001,2.863,0,4.295
							c0,0.109-0.029,0.228,0.08,0.31c0.108,0.046,0.221,0.033,0.333,0.033c9.373,0.001,18.746,0.001,28.12,0
							c0.111,0,0.225,0.013,0.33-0.038c0.104-0.085,0.076-0.204,0.076-0.312c0.001-1.428,0.001-2.856,0-4.284
							c0.002-1.679,0.001-3.358,0-5.038c0.002-1.449,0-2.898,0.001-4.347c0-0.112-0.01-0.224,0.018-0.335
							C274.451,2.561,274.468,2.534,274.489,2.509z"/>
						<path fill="#323C51" d="M274.489,2.509c0,0.016,0.001,0.033,0.001,0.049c-0.025,0.021-0.053,0.037-0.082,0.05
							c-0.117,0.039-0.238,0.028-0.357,0.028c-9.386,0.001-18.772,0.001-28.158,0c-0.135,0-0.273,0.017-0.402-0.045
							c-0.031-0.019-0.041-0.046-0.029-0.081C255.137,2.509,264.813,2.509,274.489,2.509z"/>
						<path fill="#595F69" d="M245.461,2.509c0.001,0.015,0.001,0.03,0,0.045c0.081,0.093,0.077,0.207,0.077,0.318
							c0.001,1.366,0.002,2.732,0,4.099c0,0.088,0,0.176-0.04,0.258c-0.017,0.032-0.043,0.045-0.078,0.039
							c-0.002-0.08-0.006-0.159-0.006-0.239c0-1.507,0-3.014,0-4.521C245.429,2.509,245.445,2.509,245.461,2.509z"/>
						<path fill="#6379A3" d="M245.461,7.267c0-1.571,0-3.142,0-4.713c0.088,0.001,0.176,0.003,0.264,0.003
							c9.483,0,18.966,0,28.449,0c0.088,0,0.176,0.001,0.264,0.002c0.041,0.057,0.025,0.124,0.025,0.186
							c0,1.493,0.003,2.986-0.001,4.479c-0.004,0.034-0.021,0.059-0.05,0.077c-0.161,0.07-0.332,0.044-0.498,0.044
							c-9.248,0.001-18.496,0.001-27.744,0.002c-0.64,0-0.58-0.054-0.582,0.582c-0.002,1.313-0.001,2.626,0,3.939
							c0,0.119-0.019,0.241,0.044,0.352c0.088,0.099,0.207,0.072,0.316,0.072c1.593,0.001,3.186,0.001,4.779,0.001
							c7.756,0,15.513,0,23.269,0.002c0.149,0,0.306-0.038,0.444,0.054c0.033,0.051,0.022,0.108,0.023,0.163
							c0.001,1.447,0,2.894,0,4.341c0,0.055,0.011,0.112-0.021,0.164c-0.072,0.002-0.144,0.005-0.216,0.005
							c-9.517,0-19.035,0-28.552,0c-0.072,0-0.144-0.004-0.216-0.005c-0.04-0.084-0.02-0.173-0.02-0.26
							c-0.001-1.481-0.001-2.961-0.001-4.442c0-1.596,0-3.193,0.001-4.789C245.439,7.44,245.417,7.35,245.461,7.267z"/>
						<path fill="#010202" d="M274.49,7.266c0.002,0.845,0.004,1.691,0.004,2.536c0,0.837-0.003,1.675-0.004,2.512
							c-0.035,0.003-0.061-0.011-0.08-0.04c-0.056-0.104-0.046-0.217-0.046-0.328c-0.001-1.437-0.001-2.875,0-4.312
							c0-0.126-0.017-0.258,0.075-0.367l0.009,0.003C274.459,7.245,274.473,7.245,274.49,7.266z"/>
						<path fill="#404040" d="M245.461,7.267c0,1.682,0,3.364,0,5.046c-0.015,0.022-0.028,0.022-0.041-0.001
							c-0.002-0.08-0.006-0.16-0.006-0.24c0-1.521,0-3.043,0-4.564c0-0.08,0.004-0.16,0.006-0.24
							C245.434,7.267,245.447,7.267,245.461,7.267z"/>
						<path fill="#4A5B7A" d="M274.49,7.266h-0.022l-0.021,0.004c-0.002-0.199-0.006-0.398-0.006-0.597
							c-0.001-1.371-0.002-2.742-0.002-4.113c0.017-0.001,0.034-0.001,0.051-0.002C274.49,4.128,274.49,5.697,274.49,7.266z"/>
						<path fill="#595F69" d="M245.42,12.312c0.014,0.002,0.028,0.002,0.041,0.001c-0.001,1.568-0.001,3.136-0.002,4.704
							c-0.028,0.001-0.045-0.015-0.046-0.04c-0.002-0.064,0-0.128,0-0.191c0-1.412,0-2.823,0-4.235
							C245.414,12.471,245.418,12.392,245.42,12.312z"/>
						<path fill="#4A5B7A" d="M274.442,12.314c0.016,0.001,0.032,0.002,0.048,0.001c0.001,1.532,0.003,3.063,0.003,4.595
							c0,0.041,0.028,0.101-0.05,0.108c-0.001-1.552-0.002-3.104-0.003-4.656c-0.006-0.008-0.011-0.017-0.017-0.025
							C274.429,12.329,274.436,12.321,274.442,12.314z"/>
						<path fill="#FFFFFF" d="M274.438,7.267c0.001,1.507,0.002,3.013,0.002,4.52c0,0.175,0.001,0.351,0.001,0.526l-0.008-0.004
							c-0.073,0.05-0.156,0.026-0.234,0.026c-9.485,0.001-18.97,0.001-28.456,0c-0.078,0-0.16,0.021-0.235-0.023
							c0-1.672,0-3.345,0-5.028c0.093-0.036,0.189-0.019,0.281-0.019c9.205-0.001,18.41-0.001,27.615-0.001
							C273.75,7.265,274.094,7.267,274.438,7.267z"/>
						<path fill="#6379A3" d="M245.51,12.313c0.08,0.001,0.16,0.003,0.24,0.003c9.481,0,18.963,0,28.444,0
							c0.08,0,0.16-0.004,0.24-0.006c0.002,0.017,0.004,0.035,0.005,0.052c-9.565,0-19.131,0-28.696-0.003
							C245.667,12.359,245.571,12.409,245.51,12.313z"/>
						<path fill="#647AA4" d="M258.544,8.473c-0.131,0.162-0.278,0.241-0.412,0.337c-0.143,0.102-0.147,0.124-0.078,0.293
							c0.047,0.115,0.09,0.232,0.134,0.348c0.008,0.021,0.015,0.048-0.013,0.063c-0.021,0.011-0.043,0.01-0.065-0.006
							c-0.12-0.089-0.246-0.171-0.36-0.267c-0.076-0.064-0.13-0.064-0.206-0.001c-0.138,0.115-0.286,0.219-0.462,0.351
							c0.063-0.2,0.105-0.372,0.173-0.532c0.045-0.106,0.021-0.151-0.068-0.21c-0.149-0.098-0.286-0.214-0.425-0.32
							c0.008-0.071,0.057-0.054,0.092-0.055c0.152-0.002,0.304-0.004,0.456,0c0.092,0.003,0.144-0.027,0.17-0.123
							c0.042-0.155,0.101-0.305,0.164-0.489c0.064,0.181,0.128,0.324,0.165,0.474c0.026,0.109,0.077,0.142,0.181,0.139
							C258.164,8.469,258.34,8.473,258.544,8.473z"/>
						<path fill="#647AA4" d="M261.652,11.741c0.021-0.205,0.102-0.368,0.159-0.533c0.037-0.108,0.019-0.164-0.062-0.213
							c-0.152-0.092-0.293-0.199-0.454-0.333c0.141-0.045,0.258-0.017,0.371-0.026c0.102-0.008,0.226,0.04,0.302-0.021
							c0.081-0.064,0.078-0.198,0.124-0.295c0.04-0.084,0.021-0.184,0.084-0.259c0.101,0.057,0.081,0.169,0.114,0.256
							c0.038,0.101,0.049,0.234,0.121,0.295c0.078,0.067,0.214,0.019,0.325,0.022c0.117,0.003,0.233,0.001,0.369,0.001
							c-0.069,0.089-0.125,0.153-0.208,0.191c-0.064,0.029-0.114,0.082-0.174,0.121c-0.164,0.108-0.166,0.135-0.104,0.329
							c0.031,0.096,0.066,0.191,0.095,0.287c0.005,0.018-0.005,0.048-0.019,0.063c-0.015,0.018-0.04,0.017-0.064,0.002
							c-0.113-0.071-0.232-0.135-0.328-0.23c-0.062-0.061-0.116-0.062-0.187-0.005C261.976,11.507,261.827,11.611,261.652,11.741z"
							/>
						<path fill="#647AA4" d="M260.797,9.576c-0.099,0.14-0.236,0.195-0.343,0.287c-0.03,0.025-0.062,0.049-0.094,0.072
							c-0.078,0.057-0.106,0.112-0.055,0.216c0.065,0.13,0.099,0.276,0.144,0.416c0.004,0.012-0.002,0.032-0.01,0.043
							c-0.016,0.022-0.042,0.022-0.062,0.007c-0.133-0.098-0.266-0.195-0.396-0.297c-0.052-0.041-0.081-0.076-0.151-0.01
							c-0.114,0.107-0.249,0.191-0.373,0.286c-0.026,0.02-0.048,0.04-0.104,0.027c0.051-0.166,0.091-0.337,0.158-0.496
							c0.033-0.077,0.023-0.117-0.034-0.16c-0.088-0.067-0.172-0.139-0.266-0.196c-0.077-0.046-0.135-0.108-0.214-0.193
							c0.206,0,0.387-0.008,0.566,0.003c0.094,0.006,0.127-0.042,0.152-0.11c0.061-0.167,0.118-0.336,0.184-0.524
							c0.061,0.182,0.123,0.344,0.168,0.511c0.026,0.098,0.078,0.124,0.17,0.122C260.414,9.573,260.589,9.576,260.797,9.576z"/>
						<path fill="#647AA4" d="M262.199,9.153c-0.142,0.11-0.292,0.225-0.441,0.341c-0.026,0.02-0.053,0.041-0.082,0.014
							c-0.03-0.028-0.003-0.055,0.007-0.084c0.048-0.139,0.083-0.284,0.142-0.419c0.03-0.069,0.014-0.104-0.033-0.141
							c-0.087-0.068-0.169-0.145-0.265-0.198c-0.08-0.045-0.134-0.109-0.234-0.196c0.21,0,0.38,0.001,0.549,0
							c0.135-0.001,0.177-0.019,0.193-0.147c0.017-0.135,0.087-0.251,0.106-0.382c0.004-0.025,0.015-0.042,0.044-0.046
							c0.033-0.005,0.04,0.018,0.047,0.04c0.051,0.163,0.1,0.326,0.152,0.489c0.004,0.014,0.017,0.025,0.032,0.046
							c0.217,0,0.439,0,0.674,0c-0.051,0.132-0.173,0.167-0.261,0.231c-0.295,0.213-0.298,0.207-0.163,0.532
							c0.037,0.09,0.065,0.184,0.066,0.299C262.556,9.407,262.38,9.282,262.199,9.153z"/>
						<path fill="#6479A3" d="M258.181,11.732c-0.145-0.109-0.294-0.207-0.426-0.323c-0.071-0.062-0.121-0.055-0.184-0.008
							c-0.095,0.07-0.193,0.137-0.281,0.215c-0.055,0.048-0.118,0.077-0.206,0.13c0.065-0.196,0.12-0.371,0.182-0.542
							c0.025-0.068,0.028-0.103-0.047-0.151c-0.158-0.102-0.3-0.228-0.465-0.356c0.093-0.032,0.176-0.015,0.256-0.018
							c0.088-0.003,0.176,0,0.264-0.001c0.148-0.001,0.16-0.004,0.201-0.141c0.048-0.161,0.095-0.321,0.172-0.49
							c0.071,0.176,0.125,0.337,0.173,0.501c0.023,0.081,0.068,0.146,0.187,0.134c0.171-0.018,0.345-0.005,0.573-0.005
							c-0.194,0.136-0.34,0.24-0.489,0.341c-0.075,0.051-0.109,0.1-0.06,0.197c0.062,0.124,0.101,0.26,0.153,0.39
							C258.197,11.644,258.203,11.68,258.181,11.732z"/>
					</g>
				</g>
			</g>
		</g>
	</g>
</g>
<path fill="#010201" d="M280.133,5.454h1.141v3.575h4.142V5.454h1.128v8.528h-1.128V9.965h-4.142v4.018h-1.141V5.454z"/>
<path fill="#010201" d="M291.354,7.508c1.615,0,3.055,1.209,3.055,3.328c0,2.094-1.439,3.303-3.055,3.303s-3.056-1.209-3.056-3.303
	C288.298,8.717,289.738,7.508,291.354,7.508z M291.354,13.254c1.141,0,1.9-0.975,1.9-2.418c0-1.456-0.76-2.443-1.9-2.443
	c-1.128,0-1.901,0.987-1.901,2.443C289.453,12.279,290.226,13.254,291.354,13.254z"/>
<path fill="#010201" d="M296.081,7.664h0.924l0.095,0.91h0.041c0.625-0.598,1.304-1.066,2.214-1.066c1.385,0,2.01,0.858,2.01,2.471
	v4.004h-1.113v-3.861c0-1.183-0.381-1.689-1.25-1.689c-0.679,0-1.141,0.338-1.806,0.975v4.576h-1.114L296.081,7.664L296.081,7.664z"
	/>
<path fill="#010201" d="M305.835,7.508c0.761,0,1.263,0.273,1.847,0.729l-0.055-1.079V4.726h1.128v9.256h-0.924l-0.095-0.741h-0.041
	c-0.516,0.481-1.223,0.897-1.996,0.897c-1.657,0-2.729-1.196-2.729-3.303C302.97,8.782,304.328,7.508,305.835,7.508z
	 M305.944,13.241c0.611,0,1.141-0.286,1.684-0.871V9.068c-0.557-0.481-1.059-0.663-1.602-0.663c-1.06,0-1.901,0.975-1.901,2.418
	C304.124,12.331,304.789,13.241,305.944,13.241z"/>
<path fill="#010201" d="M310.822,7.664h1.127v3.861c0,1.183,0.367,1.69,1.236,1.69c0.679,0,1.154-0.325,1.778-1.066V7.664h1.114
	v6.318h-0.924l-0.095-0.988h-0.041c-0.611,0.689-1.263,1.145-2.173,1.145c-1.398,0-2.023-0.858-2.023-2.471L310.822,7.664
	L310.822,7.664z"/>
<path fill="#010201" d="M318.238,7.664h0.924l0.095,1.145h0.041c0.448-0.793,1.127-1.301,1.874-1.301
	c0.285,0,0.489,0.039,0.706,0.131l-0.217,0.936c-0.218-0.065-0.367-0.104-0.639-0.104c-0.557,0-1.222,0.39-1.67,1.455v4.057h-1.114
	L318.238,7.664L318.238,7.664z"/>
<path fill="#010201" d="M326.28,9.978c0-0.807-0.285-1.586-1.358-1.586c-0.774,0-1.453,0.338-1.97,0.676l-0.447-0.741
	c0.61-0.377,1.534-0.819,2.594-0.819c1.616,0,2.295,1.027,2.295,2.601v3.874h-0.924l-0.095-0.754h-0.027
	c-0.639,0.494-1.371,0.91-2.187,0.91c-1.113,0-1.941-0.663-1.941-1.794C322.219,10.967,323.468,10.277,326.28,9.978z M324.473,13.28
	c0.639,0,1.168-0.299,1.807-0.845V10.68c-2.214,0.26-2.961,0.779-2.961,1.586C323.319,12.981,323.821,13.28,324.473,13.28z"/>
<path fill="#010201" d="M329.256,12.553c0.57,0.441,1.154,0.754,1.941,0.754c0.869,0,1.304-0.442,1.304-0.988
	c0-0.65-0.787-0.936-1.507-1.196c-0.938-0.325-1.97-0.754-1.97-1.819c0-1.015,0.842-1.795,2.268-1.795
	c0.829,0,1.549,0.325,2.051,0.716l-0.529,0.676c-0.448-0.325-0.924-0.56-1.508-0.56c-0.828,0-1.208,0.43-1.208,0.91
	c0,0.585,0.72,0.819,1.467,1.092c0.95,0.339,2.01,0.716,2.01,1.911c0,1.027-0.855,1.886-2.418,1.886
	c-0.937,0-1.833-0.377-2.458-0.871L329.256,12.553z"/>
<circle fill="none" stroke="#010201" stroke-miterlimit="10" cx="259.927" cy="9.771" r="7.049"/>
</svg>
