<?xml version="1.0" encoding="utf-8"?>
<!-- Generator: Adobe Illustrator 17.0.0, SVG Export Plug-In . SVG Version: 6.00 Build 0)  -->
<!DOCTYPE svg PUBLIC "-//W3C//DTD SVG 1.1//EN" "http://www.w3.org/Graphics/SVG/1.1/DTD/svg11.dtd">
<svg version="1.1" id="Layer_1" xmlns="http://www.w3.org/2000/svg" xmlns:xlink="http://www.w3.org/1999/xlink" x="0px" y="0px"
	 width="600px" height="19.542px" viewBox="0 0 600 19.542" enable-background="new 0 0 600 19.542" xml:space="preserve">
<rect x="0" y="0" fill="#ABCCB7" width="600" height="19.542"/>
<line fill="none" stroke="#9F9F9F" stroke-width="0.7" stroke-miterlimit="10" stroke-dasharray="6,3" x1="199.426" y1="-0.002" x2="199.426" y2="19.298"/>
<line fill="none" stroke="#9F9F9F" stroke-width="0.7" stroke-miterlimit="10" stroke-dasharray="6,3" x1="440.97" y1="-0.002" x2="440.97" y2="19.298"/>
<g>
	<g>
		<g>
			<rect x="451.885" y="8.771" fill="#575756" width="55.647" height="2"/>
		</g>
		<g>
			<g>
				<circle fill="#575756" cx="507.408" cy="9.771" r="2.481"/>
			</g>
		</g>
	</g>
</g>
<path fill="#575756" d="M70.993,7.468C70.49,7.027,70.069,6.78,69.418,6.78c-0.733,0-1.182,0.364-1.182,1.04
	c0,1.56,3.694,1.248,3.694,3.874c0,1.235-0.761,2.146-2.105,2.379v1.339h-1.086v-1.3c-0.829-0.078-1.738-0.442-2.35-0.988
	l0.706-1.014c0.638,0.481,1.276,0.806,2.01,0.806c0.883,0,1.317-0.416,1.317-1.117c0-1.717-3.694-1.47-3.694-3.914
	c0-1.209,0.788-2.066,2.011-2.274V4.284h1.086v1.3c0.869,0.104,1.467,0.507,1.969,1.014L70.993,7.468z"/>
<path fill="#575756" d="M81.466,11.85H80.38v2.132h-1.467V11.85h-3.816v-1.015l3.423-5.122h1.86v4.979h1.086L81.466,11.85
	L81.466,11.85z M78.913,10.693V8.821c0-0.481,0.041-1.235,0.068-1.716h-0.055c-0.218,0.429-0.462,0.845-0.706,1.287l-1.575,2.301
	C76.645,10.693,78.913,10.693,78.913,10.693z"/>
<path fill="#575756" d="M81.998,13.111c2.404-2.223,3.911-3.679,3.911-4.94c0-0.871-0.502-1.43-1.426-1.43
	c-0.665,0-1.222,0.429-1.684,0.923L81.93,6.832c0.787-0.806,1.575-1.273,2.757-1.273c1.656,0,2.729,1.001,2.729,2.534
	c0,1.47-1.426,2.978-3.137,4.707c0.448-0.039,1.019-0.092,1.439-0.092h2.118v1.274h-5.84v-0.871H81.998z"/>
<path fill="#575756" d="M92.797,6.975h-4.088V5.713h5.799v0.91c-2.023,2.405-2.377,4.134-2.526,7.358h-1.589
	C90.542,11.044,91.126,9.198,92.797,6.975z"/>
<path fill="#575756" d="M95.745,12.76h1.929V7.326h-1.589V6.39c0.855-0.156,1.453-0.364,1.996-0.677h1.168v7.047h1.697v1.222h-5.201
	C95.745,13.982,95.745,12.76,95.745,12.76z"/>
<path fill="#575756" d="M102.009,15.529c0.869-0.325,1.371-0.91,1.371-1.573c-0.041,0-0.081,0-0.122,0
	c-0.529,0-1.005-0.338-1.005-0.923c0-0.559,0.476-0.923,1.046-0.923c0.733,0,1.168,0.572,1.168,1.534
	c0,1.273-0.774,2.262-2.119,2.704L102.009,15.529z"/>
<path fill="#575756" d="M109.451,6.975h-4.088V5.713h5.799v0.91c-2.023,2.405-2.377,4.134-2.526,7.358h-1.589
	C107.196,11.044,107.78,9.198,109.451,6.975z"/>
<path fill="#575756" d="M112.469,12.005c0.516,0.508,1.181,0.91,2.05,0.91c0.938,0,1.589-0.468,1.589-1.248
	c0-0.857-0.57-1.403-2.539-1.403V9.171c1.697,0,2.254-0.559,2.254-1.326c0-0.688-0.488-1.104-1.276-1.104
	c-0.679,0-1.208,0.312-1.738,0.78l-0.801-0.924c0.733-0.623,1.562-1.039,2.594-1.039c1.656,0,2.798,0.779,2.798,2.184
	c0,0.923-0.571,1.547-1.508,1.898v0.052c1.019,0.26,1.793,0.962,1.793,2.054c0,1.508-1.372,2.393-3.028,2.393
	c-1.399,0-2.322-0.521-2.934-1.17L112.469,12.005z"/>
<path fill="#575756" d="M123.023,14.502v2.003h-1.562V7.599h1.29l0.109,0.676h0.054c0.557-0.455,1.276-0.832,2.01-0.832
	c1.657,0,2.621,1.273,2.621,3.25c0,2.184-1.371,3.445-2.852,3.445c-0.584,0-1.168-0.26-1.711-0.702L123.023,14.502z M124.367,12.903
	c0.883,0,1.562-0.754,1.562-2.197c0-1.273-0.435-2.028-1.439-2.028c-0.488,0-0.95,0.234-1.467,0.716v2.977
	C123.512,12.76,123.974,12.903,124.367,12.903z"/>
<path fill="#575756" d="M131.119,4.752h1.06l-3.164,11.311h-1.06L131.119,4.752z"/>
<path fill="#575756" d="M135.697,7.443c0.855,0,1.508,0.325,1.956,0.741l-0.747,0.948c-0.354-0.299-0.706-0.468-1.127-0.468
	c-1.073,0-1.82,0.845-1.82,2.132c0,1.274,0.733,2.119,1.779,2.119c0.543,0,1.005-0.26,1.371-0.546l0.652,0.949
	c-0.625,0.533-1.426,0.819-2.187,0.819c-1.82,0-3.219-1.223-3.219-3.342C132.357,8.665,133.918,7.443,135.697,7.443z"/>
<circle fill="none" stroke="#FFFCEE" stroke-miterlimit="10" cx="259.817" cy="9.771" r="7.049"/>
<path fill="#575756" d="M279.874,5.506h2.01V8.77h3.056V5.506h1.996v8.477h-1.996v-3.537h-3.056v3.537h-2.01V5.506z"/>
<path fill="#575756" d="M291.679,7.378c1.697,0,3.272,1.236,3.272,3.381s-1.575,3.381-3.272,3.381c-1.711,0-3.286-1.236-3.286-3.381
	S289.968,7.378,291.679,7.378z M291.679,12.592c0.814,0,1.235-0.717,1.235-1.834s-0.421-1.834-1.235-1.834
	c-0.828,0-1.236,0.717-1.236,1.834S290.851,12.592,291.679,12.592z"/>
<path fill="#575756" d="M296.258,7.534h1.63l0.136,0.82h0.054c0.57-0.521,1.25-0.977,2.159-0.977c1.467,0,2.092,0.988,2.092,2.602
	v4.004h-1.996v-3.758c0-0.936-0.258-1.223-0.828-1.223c-0.503,0-0.815,0.223-1.25,0.625v4.355h-1.996L296.258,7.534L296.258,7.534z"
	/>
<path fill="#575756" d="M306.404,7.378c0.747,0,1.195,0.262,1.657,0.678l-0.082-0.988V4.87h1.996v9.113h-1.629l-0.136-0.637h-0.055
	c-0.476,0.455-1.141,0.793-1.793,0.793c-1.67,0-2.757-1.275-2.757-3.381S304.979,7.378,306.404,7.378z M306.88,12.579
	c0.435,0,0.773-0.156,1.1-0.586V9.354c-0.353-0.312-0.747-0.416-1.113-0.416c-0.639,0-1.209,0.572-1.209,1.795
	C305.657,12.006,306.106,12.579,306.88,12.579z"/>
<path fill="#575756" d="M311.608,7.534h1.997v3.758c0,0.924,0.258,1.223,0.842,1.223c0.502,0,0.801-0.209,1.195-0.715V7.534h1.996
	v6.449h-1.63l-0.149-0.898h-0.041c-0.57,0.65-1.194,1.055-2.118,1.055c-1.467,0-2.092-0.988-2.092-2.602L311.608,7.534
	L311.608,7.534z"/>
<path fill="#575756" d="M319.324,7.534h1.63l0.136,1.131h0.054c0.489-0.871,1.223-1.287,1.915-1.287
	c0.381,0,0.611,0.053,0.802,0.131l-0.326,1.65c-0.244-0.064-0.448-0.104-0.733-0.104c-0.503,0-1.127,0.312-1.48,1.184v3.744h-1.996
	V7.534H319.324z"/>
<path fill="#575756" d="M327.814,9.835c-0.04-0.57-0.339-0.936-1.059-0.936c-0.57,0-1.141,0.221-1.793,0.586l-0.706-1.262
	c0.855-0.494,1.819-0.846,2.879-0.846c1.725,0,2.676,0.937,2.676,2.912v3.693h-1.63l-0.149-0.664h-0.041
	c-0.57,0.482-1.208,0.82-1.969,0.82c-1.223,0-1.996-0.859-1.996-1.951C324.026,10.837,325.152,10.096,327.814,9.835z M326.7,12.657
	c0.462,0,0.761-0.209,1.113-0.547v-1.131c-1.426,0.182-1.888,0.572-1.888,1.066C325.926,12.462,326.225,12.657,326.7,12.657z"/>
<path fill="#575756" d="M331.755,12.046c0.611,0.441,1.168,0.676,1.738,0.676c0.598,0,0.855-0.207,0.855-0.545
	c0-0.43-0.679-0.625-1.372-0.885c-0.814-0.299-1.778-0.832-1.778-1.898c0-1.195,1.019-2.016,2.58-2.016
	c1.032,0,1.792,0.404,2.376,0.82l-0.896,1.143c-0.489-0.338-0.951-0.545-1.427-0.545c-0.516,0-0.76,0.182-0.76,0.508
	c0,0.416,0.624,0.57,1.317,0.818c0.855,0.299,1.819,0.754,1.819,1.938c0,1.17-0.964,2.08-2.771,2.08
	c-0.883,0-1.901-0.365-2.58-0.898L331.755,12.046z"/>
<path fill="#ABCCB7" d="M224.83,11.772c0.516,0.455,1.127,0.82,1.86,0.82c0.883,0,1.453-0.443,1.453-1.287
	c0-0.832-0.557-1.275-1.358-1.275c-0.502,0-0.761,0.105-1.276,0.416l-0.896-0.545l0.244-4.174h4.89v1.611h-3.164l-0.149,1.549
	c0.325-0.145,0.61-0.195,0.964-0.195c1.48,0,2.743,0.805,2.743,2.561c0,1.832-1.48,2.887-3.164,2.887
	c-1.412,0-2.363-0.508-3.042-1.158L224.83,11.772z"/>
<g>
	<g>
		<g>
			<g>
				<g>
					<defs>
						<circle id="SVGID_1_" cx="259.817" cy="9.771" r="7.049"/>
					</defs>
					<clipPath id="SVGID_2_">
						<use xlink:href="#SVGID_1_"  overflow="visible"/>
					</clipPath>
					<g clip-path="url(#SVGID_2_)">
						<g>
							<path fill="#FDFCFD" d="M274.379,2.509c0.048,0,0.096,0,0.144,0c0,4.854,0,9.708,0,14.562c-9.756,0-19.512,0-29.268,0
								c0-4.782,0-9.564,0-14.346c0-0.072,0-0.144,0.002-0.216c0,0,0.03,0,0.046,0c0.094,0.109,0.067,0.243,0.067,0.368
								c0.002,1.462,0.001,2.925,0.002,4.387c-0.002,1.68-0.001,3.361,0,5.041c-0.002,1.432-0.001,2.863,0,4.295
								c0,0.109-0.029,0.228,0.08,0.31c0.108,0.046,0.221,0.033,0.333,0.033c9.373,0.001,18.746,0.001,28.12,0
								c0.111,0,0.225,0.013,0.33-0.038c0.104-0.085,0.076-0.204,0.076-0.312c0.001-1.428,0.001-2.856,0-4.284
								c0.002-1.679,0.001-3.358,0-5.038c0.002-1.449,0-2.898,0.001-4.347c0-0.112-0.01-0.224,0.018-0.335
								C274.341,2.561,274.358,2.534,274.379,2.509z"/>
							<path fill="#323C51" d="M274.379,2.509c0,0.016,0.001,0.033,0.001,0.049c-0.025,0.021-0.053,0.037-0.082,0.05
								c-0.117,0.039-0.238,0.028-0.357,0.028c-9.386,0.001-18.772,0.001-28.158,0c-0.135,0-0.273,0.017-0.402-0.045
								c-0.031-0.019-0.041-0.046-0.029-0.081C255.027,2.509,264.703,2.509,274.379,2.509z"/>
							<path fill="#595F69" d="M245.351,2.509c0.001,0.015,0.001,0.03,0,0.045c0.081,0.093,0.077,0.207,0.077,0.318
								c0.001,1.366,0.002,2.732,0,4.099c0,0.088,0,0.176-0.04,0.258c-0.017,0.032-0.043,0.045-0.078,0.039
								c-0.002-0.08-0.006-0.159-0.006-0.239c0-1.507,0-3.014,0-4.521C245.319,2.509,245.335,2.509,245.351,2.509z"/>
							<path fill="#6379A3" d="M245.351,7.267c0-1.571,0-3.142,0-4.713c0.088,0.001,0.176,0.003,0.264,0.003
								c9.483,0,18.966,0,28.449,0c0.088,0,0.176,0.001,0.264,0.002c0.041,0.057,0.025,0.124,0.025,0.186
								c0,1.493,0.003,2.986-0.001,4.479c-0.004,0.034-0.021,0.059-0.05,0.077c-0.161,0.07-0.332,0.044-0.498,0.044
								c-9.248,0.001-18.496,0.001-27.744,0.002c-0.64,0-0.58-0.054-0.582,0.582c-0.002,1.313-0.001,2.626,0,3.939
								c0,0.119-0.019,0.241,0.044,0.352c0.088,0.099,0.207,0.072,0.316,0.072c1.593,0.001,3.186,0.001,4.779,0.001
								c7.756,0,15.513,0,23.269,0.002c0.149,0,0.306-0.038,0.444,0.054c0.033,0.051,0.022,0.108,0.023,0.163
								c0.001,1.447,0.001,2.894,0,4.341c0,0.055,0.011,0.112-0.021,0.164c-0.072,0.002-0.144,0.005-0.216,0.005
								c-9.517,0-19.035,0-28.552,0c-0.072,0-0.144-0.004-0.216-0.005c-0.04-0.084-0.02-0.173-0.02-0.26
								c-0.001-1.481-0.001-2.961-0.001-4.442c0-1.596,0-3.193,0.001-4.789C245.329,7.44,245.307,7.35,245.351,7.267z"/>
							<path fill="#010202" d="M274.38,7.266c0.002,0.845,0.004,1.691,0.004,2.536c0,0.837-0.003,1.675-0.004,2.512
								c-0.035,0.003-0.061-0.011-0.08-0.04c-0.056-0.104-0.046-0.217-0.046-0.328c-0.001-1.437-0.001-2.875,0-4.312
								c0-0.126-0.017-0.258,0.075-0.367l0.009,0.003C274.349,7.245,274.363,7.245,274.38,7.266z"/>
							<path fill="#404040" d="M245.351,7.267c0,1.682,0,3.364,0,5.046c-0.015,0.022-0.028,0.022-0.041-0.001
								c-0.002-0.08-0.006-0.16-0.006-0.24c0-1.521,0-3.043,0-4.564c0-0.08,0.004-0.16,0.006-0.24
								C245.324,7.267,245.338,7.267,245.351,7.267z"/>
							<path fill="#4A5B7A" d="M274.38,7.266h-0.022l-0.021,0.004c-0.002-0.199-0.006-0.398-0.006-0.597
								c-0.001-1.371-0.002-2.742-0.002-4.113c0.017-0.001,0.034-0.001,0.051-0.002C274.38,4.128,274.38,5.697,274.38,7.266z"/>
							<path fill="#595F69" d="M245.31,12.312c0.014,0.002,0.028,0.002,0.041,0.001c-0.001,1.568-0.001,3.136-0.002,4.704
								c-0.028,0.001-0.045-0.015-0.046-0.04c-0.002-0.064,0-0.128,0-0.191c0-1.412,0-2.823,0-4.235
								C245.304,12.471,245.308,12.391,245.31,12.312z"/>
							<path fill="#4A5B7A" d="M274.332,12.313c0.016,0.001,0.032,0.002,0.048,0.001c0.001,1.532,0.003,3.063,0.003,4.595
								c0,0.041,0.028,0.101-0.05,0.108c-0.001-1.552-0.002-3.104-0.003-4.656c-0.006-0.008-0.011-0.017-0.017-0.025
								C274.319,12.329,274.326,12.321,274.332,12.313z"/>
							<path fill="#FFFFFF" d="M274.328,7.267c0.001,1.507,0.002,3.013,0.002,4.52c0,0.175,0.001,0.351,0.001,0.526l-0.008-0.004
								c-0.073,0.05-0.156,0.026-0.234,0.026c-9.485,0.001-18.97,0.001-28.456,0c-0.078,0-0.16,0.021-0.235-0.023
								c0-1.672,0-3.345,0-5.028c0.093-0.036,0.189-0.019,0.281-0.019c9.205-0.001,18.41-0.001,27.615-0.001
								C273.64,7.265,273.984,7.267,274.328,7.267z"/>
							<path fill="#6379A3" d="M245.4,12.312c0.08,0.001,0.16,0.003,0.24,0.003c9.481,0,18.963,0,28.444,0
								c0.08,0,0.16-0.004,0.24-0.006c0.002,0.017,0.004,0.035,0.005,0.052c-9.565,0-19.131,0-28.696-0.003
								C245.557,12.359,245.461,12.409,245.4,12.312z"/>
							<path fill="#647AA4" d="M258.434,8.473c-0.131,0.162-0.278,0.241-0.412,0.337c-0.143,0.102-0.147,0.124-0.078,0.293
								c0.047,0.115,0.09,0.232,0.134,0.348c0.008,0.021,0.015,0.048-0.013,0.063c-0.021,0.011-0.043,0.01-0.065-0.006
								c-0.12-0.089-0.246-0.171-0.36-0.267c-0.076-0.064-0.13-0.064-0.206-0.001c-0.138,0.115-0.286,0.219-0.462,0.351
								c0.063-0.2,0.105-0.372,0.173-0.532c0.045-0.106,0.021-0.151-0.068-0.21c-0.149-0.098-0.286-0.214-0.425-0.32
								c0.008-0.071,0.057-0.054,0.092-0.055c0.152-0.002,0.304-0.004,0.456,0c0.092,0.003,0.144-0.027,0.17-0.123
								c0.042-0.155,0.101-0.305,0.164-0.489c0.064,0.181,0.128,0.324,0.165,0.474c0.026,0.109,0.077,0.142,0.181,0.139
								C258.054,8.469,258.23,8.473,258.434,8.473z"/>
							<path fill="#647AA4" d="M261.542,11.741c0.021-0.205,0.102-0.368,0.159-0.533c0.037-0.108,0.02-0.164-0.062-0.213
								c-0.152-0.092-0.293-0.199-0.454-0.333c0.141-0.045,0.258-0.017,0.371-0.026c0.102-0.008,0.226,0.04,0.302-0.021
								c0.081-0.064,0.078-0.198,0.124-0.295c0.04-0.084,0.021-0.184,0.084-0.259c0.101,0.057,0.081,0.169,0.115,0.256
								c0.038,0.101,0.049,0.234,0.121,0.295c0.078,0.067,0.214,0.019,0.325,0.022c0.117,0.003,0.233,0.001,0.369,0.001
								c-0.069,0.089-0.125,0.153-0.208,0.191c-0.064,0.029-0.114,0.082-0.174,0.121c-0.164,0.108-0.166,0.135-0.104,0.329
								c0.031,0.096,0.066,0.191,0.095,0.287c0.005,0.018-0.005,0.048-0.019,0.063c-0.015,0.018-0.04,0.017-0.064,0.002
								c-0.113-0.071-0.232-0.135-0.328-0.23c-0.062-0.061-0.116-0.062-0.187-0.005C261.866,11.507,261.717,11.611,261.542,11.741z"
								/>
							<path fill="#647AA4" d="M260.687,9.576c-0.099,0.14-0.236,0.195-0.343,0.287c-0.03,0.025-0.062,0.049-0.094,0.072
								c-0.078,0.057-0.106,0.112-0.055,0.216c0.065,0.13,0.099,0.276,0.144,0.416c0.004,0.012-0.002,0.032-0.01,0.043
								c-0.016,0.022-0.042,0.022-0.062,0.007c-0.133-0.098-0.266-0.195-0.396-0.297c-0.052-0.041-0.08-0.076-0.151-0.01
								c-0.114,0.107-0.249,0.191-0.373,0.286c-0.026,0.02-0.048,0.04-0.104,0.027c0.051-0.166,0.091-0.337,0.158-0.496
								c0.033-0.077,0.023-0.117-0.034-0.16c-0.088-0.067-0.172-0.139-0.266-0.196c-0.077-0.046-0.135-0.108-0.214-0.193
								c0.206,0,0.387-0.008,0.566,0.003c0.094,0.006,0.127-0.042,0.152-0.11c0.061-0.167,0.118-0.336,0.184-0.524
								c0.061,0.182,0.123,0.344,0.168,0.511c0.026,0.098,0.078,0.124,0.17,0.122C260.304,9.573,260.479,9.576,260.687,9.576z"/>
							<path fill="#647AA4" d="M262.089,9.153c-0.142,0.11-0.292,0.225-0.441,0.341c-0.026,0.02-0.053,0.041-0.082,0.014
								c-0.03-0.028-0.003-0.055,0.007-0.084c0.048-0.139,0.083-0.284,0.142-0.419c0.03-0.069,0.014-0.104-0.033-0.141
								c-0.087-0.068-0.169-0.145-0.265-0.198c-0.08-0.045-0.134-0.109-0.234-0.196c0.21,0,0.38,0.001,0.549,0
								c0.135-0.001,0.177-0.019,0.193-0.147c0.017-0.135,0.087-0.251,0.106-0.382c0.004-0.025,0.015-0.042,0.044-0.046
								c0.033-0.005,0.04,0.018,0.047,0.04c0.051,0.163,0.1,0.326,0.152,0.489c0.004,0.014,0.017,0.025,0.032,0.046
								c0.217,0,0.439,0,0.674,0c-0.051,0.132-0.173,0.167-0.261,0.231c-0.295,0.213-0.298,0.207-0.163,0.532
								c0.037,0.09,0.065,0.184,0.066,0.299C262.446,9.407,262.27,9.282,262.089,9.153z"/>
							<path fill="#6479A3" d="M258.071,11.732c-0.145-0.109-0.294-0.207-0.426-0.323c-0.071-0.062-0.121-0.055-0.184-0.008
								c-0.095,0.07-0.193,0.137-0.281,0.215c-0.055,0.048-0.118,0.077-0.206,0.13c0.065-0.196,0.12-0.371,0.182-0.542
								c0.025-0.068,0.028-0.103-0.047-0.151c-0.158-0.102-0.3-0.228-0.465-0.356c0.093-0.032,0.176-0.015,0.256-0.018
								c0.088-0.003,0.176,0,0.264-0.001c0.148-0.001,0.16-0.004,0.201-0.141c0.048-0.161,0.095-0.321,0.172-0.49
								c0.071,0.176,0.125,0.337,0.173,0.501c0.023,0.081,0.068,0.146,0.187,0.134c0.171-0.018,0.345-0.005,0.573-0.005
								c-0.194,0.136-0.34,0.24-0.489,0.341c-0.075,0.051-0.109,0.1-0.06,0.197c0.062,0.124,0.101,0.26,0.153,0.39
								C258.088,11.644,258.093,11.68,258.071,11.732z"/>
						</g>
					</g>
				</g>
			</g>
		</g>
	</g>
</g>
<circle fill="none" stroke="#575756" stroke-miterlimit="10" cx="259.817" cy="9.771" r="7.049"/>
<g>
	<path fill="#575756" d="M519.205,12.033c0.516,0.468,1.154,0.884,2.023,0.884c0.964,0,1.67-0.585,1.67-1.586
		c0-0.988-0.638-1.547-1.589-1.547c-0.557,0-0.869,0.143-1.385,0.468l-0.747-0.455l0.258-4.082h4.617v1.262h-3.259l-0.177,2.002
		c0.366-0.169,0.692-0.273,1.141-0.273c1.48,0,2.716,0.806,2.716,2.587c0,1.808-1.453,2.848-3.042,2.848
		c-1.398,0-2.309-0.533-2.946-1.145L519.205,12.033z"/>
	<path fill="#575756" d="M525.426,15.53c0.869-0.325,1.371-0.91,1.371-1.573c-0.041,0-0.081,0-0.122,0
		c-0.529,0-1.005-0.338-1.005-0.923c0-0.559,0.476-0.923,1.046-0.923c0.733,0,1.168,0.572,1.168,1.534
		c0,1.273-0.774,2.262-2.119,2.704L525.426,15.53z"/>
	<path fill="#575756" d="M528.727,9.81c0-2.796,1.141-4.251,2.934-4.251s2.934,1.469,2.934,4.251c0,2.795-1.141,4.329-2.934,4.329
		S528.727,12.605,528.727,9.81z M533.1,9.81c0-2.341-0.598-3.081-1.439-3.081c-0.828,0-1.439,0.74-1.439,3.081
		c0,2.34,0.611,3.159,1.439,3.159C532.503,12.969,533.1,12.15,533.1,9.81z"/>
	<path fill="#575756" d="M535.818,12.761h1.929V7.327h-1.589V6.391c0.855-0.156,1.453-0.364,1.996-0.677h1.168v7.047h1.697v1.222
		h-5.201L535.818,12.761L535.818,12.761z"/>
</g>
</svg>
