<?xml version="1.0" encoding="utf-8"?>
<!-- Generator: Adobe Illustrator 17.0.0, SVG Export Plug-In . SVG Version: 6.00 Build 0)  -->
<!DOCTYPE svg PUBLIC "-//W3C//DTD SVG 1.1//EN" "http://www.w3.org/Graphics/SVG/1.1/DTD/svg11.dtd">
<svg version="1.1" id="Layer_1" xmlns="http://www.w3.org/2000/svg" xmlns:xlink="http://www.w3.org/1999/xlink" x="0px" y="0px"
	 width="600px" height="19.542px" viewBox="0 0 600 19.542" enable-background="new 0 0 600 19.542" xml:space="preserve">
<rect x="0" y="0" fill="#ABCCB7" width="600" height="19.542"/>
<line fill="none" stroke="#9F9F9F" stroke-width="0.7" stroke-miterlimit="10" stroke-dasharray="6,3" x1="199.426" y1="0.005" x2="199.426" y2="18.99"/>
<line fill="none" stroke="#9F9F9F" stroke-width="0.7" stroke-miterlimit="10" stroke-dasharray="6,3" x1="440.97" y1="0.005" x2="440.97" y2="18.99"/>
<g>
	<g>
		<g>
			<rect x="451.885" y="9.115" fill="#575756" width="52.11" height="2"/>
		</g>
		<g>
			<g>
				<circle fill="#575756" cx="503.871" cy="10.115" r="2.481"/>
			</g>
		</g>
	</g>
</g>
<path fill="#575756" d="M70.993,7.445c-0.503-0.441-0.924-0.688-1.575-0.688c-0.733,0-1.182,0.364-1.182,1.04
	c0,1.56,3.694,1.248,3.694,3.874c0,1.235-0.761,2.146-2.105,2.379v1.339h-1.086v-1.3c-0.829-0.078-1.738-0.442-2.35-0.988
	l0.706-1.014c0.638,0.481,1.276,0.806,2.01,0.806c0.883,0,1.317-0.416,1.317-1.117c0-1.717-3.694-1.47-3.694-3.914
	c0-1.209,0.788-2.066,2.011-2.274V4.26h1.086v1.3c0.869,0.104,1.467,0.507,1.969,1.014L70.993,7.445z"/>
<path fill="#575756" d="M76.971,9.72V9.668c-0.665-0.455-1.194-1.066-1.194-1.937c0-1.339,1.113-2.196,2.607-2.196
	c1.548,0,2.539,0.896,2.539,2.235c0,0.819-0.598,1.509-1.154,1.898V9.72c0.802,0.429,1.494,1.04,1.494,2.146
	c0,1.273-1.168,2.249-2.92,2.249c-1.684,0-2.934-0.937-2.934-2.275C75.409,10.812,76.156,10.136,76.971,9.72z M78.37,13.048
	c0.828,0,1.426-0.468,1.426-1.235c0-0.896-0.91-1.222-2.078-1.677c-0.543,0.377-0.937,0.91-0.937,1.547
	C76.781,12.502,77.487,13.048,78.37,13.048z M79.633,7.861c0-0.728-0.476-1.261-1.276-1.261c-0.666,0-1.182,0.416-1.182,1.131
	c0,0.832,0.774,1.196,1.738,1.561C79.375,8.849,79.633,8.381,79.633,7.861z"/>
<path fill="#575756" d="M88.096,11.827H87.01v2.132h-1.467v-2.132h-3.816v-1.015L85.15,5.69h1.86v4.979h1.086V11.827z
	 M85.543,10.669V8.797c0-0.481,0.041-1.235,0.067-1.716h-0.054c-0.218,0.429-0.462,0.845-0.706,1.287l-1.575,2.301
	C83.275,10.669,85.543,10.669,85.543,10.669z"/>
<path fill="#575756" d="M93.57,7.38c-0.312-0.364-0.855-0.624-1.371-0.624c-1.087,0-1.97,0.767-2.037,3.055
	c0.502-0.61,1.249-0.975,1.874-0.975c1.494,0,2.525,0.832,2.525,2.561c0,1.651-1.235,2.718-2.716,2.718
	c-1.697,0-3.137-1.262-3.137-4.043c0-3.212,1.63-4.537,3.395-4.537c1.046,0,1.793,0.416,2.31,0.936L93.57,7.38z M93.109,11.397
	c0-0.975-0.502-1.469-1.357-1.469c-0.489,0-1.06,0.26-1.548,0.949c0.162,1.469,0.773,2.093,1.615,2.093
	C92.538,12.97,93.109,12.412,93.109,11.397z"/>
<path fill="#575756" d="M95.283,9.786c0-2.796,1.141-4.251,2.934-4.251s2.934,1.469,2.934,4.251c0,2.795-1.141,4.329-2.934,4.329
	S95.283,12.58,95.283,9.786z M99.656,9.786c0-2.341-0.598-3.081-1.439-3.081c-0.828,0-1.439,0.74-1.439,3.081
	c0,2.34,0.611,3.159,1.439,3.159C99.059,12.945,99.656,12.125,99.656,9.786z"/>
<path fill="#575756" d="M102.009,15.505c0.869-0.325,1.371-0.91,1.371-1.573c-0.041,0-0.081,0-0.122,0
	c-0.529,0-1.005-0.338-1.005-0.923c0-0.559,0.476-0.923,1.046-0.923c0.733,0,1.168,0.572,1.168,1.534
	c0,1.273-0.774,2.262-2.119,2.704L102.009,15.505z"/>
<path fill="#575756" d="M105.839,11.982c0.516,0.508,1.181,0.91,2.05,0.91c0.938,0,1.589-0.468,1.589-1.248
	c0-0.857-0.57-1.403-2.539-1.403V9.148c1.697,0,2.254-0.559,2.254-1.326c0-0.688-0.488-1.104-1.276-1.104
	c-0.679,0-1.208,0.312-1.738,0.78l-0.801-0.924c0.733-0.623,1.562-1.039,2.594-1.039c1.656,0,2.798,0.779,2.798,2.184
	c0,0.923-0.57,1.547-1.508,1.898v0.052c1.019,0.26,1.793,0.962,1.793,2.054c0,1.508-1.372,2.393-3.029,2.393
	c-1.398,0-2.321-0.521-2.933-1.17L105.839,11.982z"/>
<path fill="#575756" d="M116.081,6.952h-4.088V5.69h5.799V6.6c-2.023,2.405-2.377,4.134-2.526,7.358h-1.589
	C113.826,11.02,114.41,9.174,116.081,6.952z"/>
<path fill="#575756" d="M123.023,14.478v2.003h-1.562V7.576h1.29l0.109,0.676h0.054c0.557-0.455,1.276-0.832,2.01-0.832
	c1.657,0,2.621,1.273,2.621,3.25c0,2.184-1.371,3.445-2.852,3.445c-0.584,0-1.168-0.26-1.711-0.702L123.023,14.478z M124.367,12.879
	c0.883,0,1.562-0.754,1.562-2.197c0-1.273-0.435-2.028-1.439-2.028c-0.488,0-0.95,0.234-1.467,0.716v2.977
	C123.512,12.737,123.974,12.879,124.367,12.879z"/>
<path fill="#575756" d="M131.119,4.728h1.06l-3.164,11.311h-1.06L131.119,4.728z"/>
<path fill="#575756" d="M135.697,7.419c0.855,0,1.508,0.325,1.956,0.741l-0.747,0.948c-0.354-0.299-0.706-0.468-1.127-0.468
	c-1.073,0-1.82,0.845-1.82,2.132c0,1.274,0.733,2.119,1.779,2.119c0.543,0,1.005-0.26,1.371-0.546l0.652,0.949
	c-0.625,0.533-1.426,0.819-2.187,0.819c-1.82,0-3.219-1.223-3.219-3.342C132.357,8.641,133.918,7.419,135.697,7.419z"/>
<circle fill="none" stroke="#FFFCEE" stroke-miterlimit="10" cx="259.817" cy="9.771" r="7.049"/>
<path fill="#575756" d="M280.403,11.62c0.34,0.572,0.788,0.844,1.236,0.844c0.72,0,1.1-0.35,1.1-1.482V5.483h2.01v5.654
	c0,1.639-0.883,2.979-2.838,2.979c-1.358,0-2.255-0.508-2.865-1.535L280.403,11.62z"/>
<path fill="#575756" d="M290.088,9.811c-0.04-0.57-0.339-0.936-1.059-0.936c-0.57,0-1.141,0.221-1.793,0.586L286.53,8.2
	c0.855-0.494,1.819-0.846,2.879-0.846c1.725,0,2.676,0.937,2.676,2.912v3.693h-1.63l-0.149-0.664h-0.041
	c-0.57,0.482-1.208,0.82-1.969,0.82c-1.223,0-1.996-0.859-1.996-1.951C286.3,10.813,287.427,10.073,290.088,9.811z M288.975,12.633
	c0.462,0,0.761-0.209,1.113-0.547v-1.131c-1.426,0.182-1.888,0.572-1.888,1.066C288.2,12.438,288.499,12.633,288.975,12.633z"/>
<path fill="#575756" d="M293.731,7.51h1.63l0.136,0.832h0.054c0.558-0.533,1.154-0.988,2.037-0.988c0.951,0,1.521,0.391,1.86,1.08
	c0.598-0.586,1.223-1.08,2.119-1.08c1.453,0,2.104,0.988,2.104,2.602v4.004h-1.996v-3.758c0-0.936-0.258-1.223-0.828-1.223
	c-0.34,0-0.72,0.209-1.154,0.625v4.355h-1.996v-3.758c0-0.936-0.259-1.223-0.829-1.223c-0.326,0-0.72,0.209-1.141,0.625v4.355
	h-1.996L293.731,7.51L293.731,7.51z"/>
<path fill="#575756" d="M308.849,9.811c-0.04-0.57-0.339-0.936-1.059-0.936c-0.57,0-1.141,0.221-1.793,0.586L305.291,8.2
	c0.855-0.494,1.819-0.846,2.879-0.846c1.725,0,2.676,0.937,2.676,2.912v3.693h-1.63l-0.149-0.664h-0.041
	c-0.57,0.482-1.208,0.82-1.969,0.82c-1.223,0-1.996-0.859-1.996-1.951C305.061,10.813,306.188,10.073,308.849,9.811z
	 M307.735,12.633c0.462,0,0.761-0.209,1.113-0.547v-1.131c-1.426,0.182-1.888,0.572-1.888,1.066
	C306.961,12.438,307.26,12.633,307.735,12.633z"/>
<path fill="#575756" d="M312.328,5.561c0-0.586,0.489-0.988,1.154-0.988c0.679,0,1.154,0.402,1.154,0.988c0,0.584-0.476,1-1.154,1
	C312.818,6.561,312.328,6.145,312.328,5.561z M312.491,7.51h1.996v6.449h-1.996V7.51z"/>
<path fill="#575756" d="M319.282,7.354c0.829,0,1.521,0.299,1.97,0.742l-0.91,1.184c-0.326-0.262-0.625-0.379-0.937-0.379
	c-0.965,0-1.576,0.717-1.576,1.834s0.639,1.834,1.508,1.834c0.489,0,0.883-0.223,1.209-0.469l0.801,1.209
	c-0.651,0.547-1.507,0.807-2.24,0.807c-1.874,0-3.327-1.236-3.327-3.381S317.422,7.354,319.282,7.354z"/>
<path fill="#575756" d="M325.858,9.811c-0.04-0.57-0.339-0.936-1.059-0.936c-0.57,0-1.141,0.221-1.793,0.586L322.3,8.2
	c0.855-0.494,1.819-0.846,2.879-0.846c1.725,0,2.676,0.937,2.676,2.912v3.693h-1.63l-0.149-0.664h-0.041
	c-0.57,0.482-1.208,0.82-1.969,0.82c-1.223,0-1.996-0.859-1.996-1.951C322.069,10.813,323.196,10.073,325.858,9.811z
	 M324.744,12.633c0.462,0,0.761-0.209,1.113-0.547v-1.131c-1.426,0.182-1.888,0.572-1.888,1.066
	C323.97,12.438,324.269,12.633,324.744,12.633z"/>
<path fill="#ABCCB7" d="M224.83,11.748c0.516,0.455,1.127,0.82,1.86,0.82c0.883,0,1.453-0.443,1.453-1.287
	c0-0.832-0.557-1.275-1.358-1.275c-0.502,0-0.761,0.105-1.276,0.416l-0.896-0.545l0.244-4.174h4.89v1.611h-3.164l-0.149,1.549
	c0.325-0.145,0.61-0.195,0.964-0.195c1.48,0,2.743,0.805,2.743,2.561c0,1.832-1.48,2.887-3.164,2.887
	c-1.412,0-2.363-0.508-3.042-1.158L224.83,11.748z"/>
<g>
	<g>
		<g>
			<g>
				<g>
					<defs>
						<circle id="SVGID_1_" cx="259.817" cy="9.771" r="7.049"/>
					</defs>
					<clipPath id="SVGID_2_">
						<use xlink:href="#SVGID_1_"  overflow="visible"/>
					</clipPath>
					<g clip-path="url(#SVGID_2_)">
						<g>
							<path fill="#EFE528" d="M272.949,2.529c0.454,0,0.909,0.004,1.363-0.003c0.109-0.002,0.141,0.016,0.137,0.133
								c-0.011,0.343-0.004,0.686-0.004,1.029c-0.055,0.113-0.145,0.187-0.258,0.242c-1.153,0.553-2.3,1.118-3.458,1.661
								c-0.517,0.243-1.028,0.498-1.541,0.747c-1.642,0.799-3.292,1.581-4.933,2.38c-0.665,0.324-1.324,0.663-2.002,0.959
								c-0.066,0.029-0.128,0.069-0.216,0.06c2.026,0.984,4.048,1.952,6.066,2.928c1.709,0.826,3.424,1.64,5.131,2.469
								c0.311,0.151,0.628,0.291,0.937,0.446c0.111,0.055,0.206,0.124,0.275,0.226c0,0.402,0,0.805,0,1.207
								c-0.114,0.082-0.245,0.044-0.369,0.047c-0.309,0.005-0.617,0.002-0.926,0.002c-0.04,0-0.081,0-0.121-0.002
								c-0.341-0.097-0.657-0.258-0.974-0.411c-1.556-0.752-3.119-1.489-4.678-2.234c-1.878-0.897-3.757-1.794-5.639-2.685
								c-0.53-0.251-1.067-0.489-1.586-0.764c-0.165-0.088-0.307-0.083-0.477-0.003c-1.417,0.67-2.827,1.355-4.242,2.028
								c-2.402,1.143-4.797,2.302-7.202,3.439c-0.471,0.223-0.927,0.481-1.43,0.631c-0.041,0.002-0.082,0.002-0.123,0.002
								c-0.362,0-0.724,0.001-1.086-0.001c-0.087-0.001-0.178,0.019-0.259-0.033c-0.054-0.364-0.009-0.73-0.024-1.094
								c-0.002-0.166,0.118-0.239,0.243-0.298c1.012-0.474,2.011-0.976,3.022-1.451c0.531-0.25,1.059-0.507,1.586-0.764
								c1.641-0.799,3.29-1.582,4.931-2.383c0.78-0.381,1.563-0.756,2.347-1.131c0.085-0.041,0.181-0.068,0.245-0.153
								c-0.045-0.1-0.148-0.117-0.23-0.156c-1.642-0.778-3.276-1.573-4.913-2.362c-1.702-0.82-3.406-1.636-5.109-2.456
								c-0.616-0.296-1.228-0.599-1.85-0.883c-0.121-0.055-0.256-0.111-0.271-0.277c0.015-0.364-0.03-0.728,0.024-1.09
								c0.531,0,1.062,0,1.593,0c0.496,0.101,0.924,0.367,1.37,0.582c1.152,0.556,2.304,1.11,3.455,1.667
								c2.244,1.086,4.494,2.16,6.738,3.246c0.398,0.193,0.797,0.383,1.193,0.58c0.142,0.071,0.266,0.071,0.411,0.003
								c1.077-0.506,2.149-1.023,3.221-1.541c2.281-1.102,4.568-2.191,6.847-3.297c0.738-0.358,1.485-0.697,2.216-1.069
								C272.56,2.605,272.763,2.601,272.949,2.529z"/>
							<path fill="#239E46" d="M272.949,2.529c-0.953,0.463-1.905,0.929-2.86,1.388c-3.316,1.594-6.634,3.185-9.948,4.783
								c-0.179,0.086-0.314,0.08-0.49-0.005c-4.174-2.016-8.351-4.026-12.527-6.039c-0.07-0.034-0.156-0.048-0.196-0.128
								C255.601,2.529,264.275,2.529,272.949,2.529z"/>
							<path fill="#010202" d="M274.445,15.806c-0.823-0.391-1.649-0.777-2.47-1.172c-3.281-1.576-6.561-3.155-9.841-4.734
								c-0.078-0.037-0.152-0.081-0.262-0.14c0.71-0.344,1.389-0.673,2.068-1.001c3.473-1.675,6.947-3.349,10.42-5.024
								c0.029-0.014,0.056-0.031,0.083-0.047C274.445,7.727,274.445,11.766,274.445,15.806z"/>
							<path fill="#C1C0C0" d="M274.445,17.061c-0.011,0.015,0.024,0.05-0.024,0.049c-0.064-0.002-0.129-0.001-0.193-0.001
								c-9.575,0-19.15,0-28.726-0.003c-0.071,0-0.164,0.056-0.217-0.045c0.026-0.018,0.055-0.026,0.086-0.024
								c0.459-0.001,0.918,0,1.377,0c0.237-0.053,0.478-0.049,0.719-0.049c8.291,0.001,16.581,0.001,24.872,0
								c0.249,0,0.498-0.004,0.743,0.049C273.536,17.052,273.992,17.007,274.445,17.061z"/>
							<path fill="#808081" d="M245.334,17.053c-0.016,0.003-0.033,0.005-0.049,0.008c0-4.772,0-9.543,0.003-14.315
								c0-0.071-0.056-0.163,0.045-0.217c0.002,0.386,0.004,0.771,0.005,1.157c0.123,0.133,0.1,0.299,0.1,0.458
								c0.002,1.769,0.001,3.538,0.001,5.307c0,1.97,0,3.94,0,5.91c0,0.168,0.015,0.34-0.1,0.485
								c0.001,0.388,0.001,0.777,0.002,1.165c0.016,0.012,0.02,0.023,0.013,0.031C245.348,17.05,245.341,17.053,245.334,17.053z"/>
							<path fill="#B9B710" d="M274.445,17.061c-0.449-0.003-0.898-0.006-1.348-0.008c-0.021-0.004-0.029-0.01-0.025-0.02
								c0.005-0.011,0.011-0.016,0.017-0.016c0.452-0.001,0.904-0.003,1.355-0.004C274.445,17.029,274.445,17.045,274.445,17.061z"
								/>
							<path fill="#239E46" d="M246.831,17.006c1.128-0.544,2.255-1.091,3.384-1.632c3.13-1.499,6.262-2.993,9.389-4.498
								c0.217-0.105,0.385-0.1,0.6,0.002c4.203,2.011,8.409,4.015,12.614,6.02c0.065,0.031,0.125,0.071,0.187,0.106
								c-0.071,0.057-0.155,0.03-0.233,0.03c-8.57,0.001-17.139,0.001-25.709,0C246.986,17.035,246.903,17.062,246.831,17.006z"/>
							<path fill="#010202" d="M245.339,15.846c-0.002-0.611-0.006-1.222-0.006-1.834c-0.001-3.338,0-6.676,0-10.014
								c0-0.104,0.003-0.209,0.005-0.313c0.795,0.376,1.592,0.748,2.385,1.129c3.325,1.598,6.649,3.198,9.973,4.798
								c0.079,0.038,0.157,0.078,0.288,0.143C253.744,11.798,249.542,13.822,245.339,15.846z"/>
							<path fill="#010202" d="M246.831,17.006c0.112,0.002,0.225,0.006,0.337,0.006c8.524,0,17.048,0,25.572,0
								c0.088,0,0.177-0.004,0.265-0.007c0.028,0.004,0.056,0.007,0.084,0.011c0.003,0.012,0.006,0.024,0.008,0.036
								c-0.08,0.003-0.16,0.008-0.241,0.008c-8.622,0-17.244,0-25.867,0c-0.08,0-0.161-0.005-0.241-0.008
								c-0.015-0.005-0.029-0.009-0.044-0.014c0.014-0.006,0.028-0.012,0.042-0.018C246.776,17.016,246.803,17.011,246.831,17.006z"
								/>
							<path fill="#BAB710" d="M246.748,17.021c0.001,0.011,0.001,0.021,0.001,0.032c-0.472,0-0.944,0-1.415,0
								c0-0.014,0.002-0.028,0.007-0.042C245.81,17.015,246.279,17.018,246.748,17.021z"/>
						</g>
					</g>
				</g>
			</g>
		</g>
	</g>
</g>
<circle fill="none" stroke="#575756" stroke-miterlimit="10" cx="259.817" cy="9.771" r="7.049"/>
<g>
	<path fill="#575756" d="M520.237,11.828h-1.086v2.132h-1.467v-2.132h-3.816v-1.015l3.423-5.122h1.86v4.979h1.086V11.828z
		 M517.684,10.67V8.798c0-0.481,0.041-1.235,0.068-1.716h-0.055c-0.218,0.429-0.462,0.845-0.706,1.287l-1.575,2.301H517.684z"/>
	<path fill="#575756" d="M520.891,15.506c0.869-0.325,1.371-0.91,1.371-1.573c-0.041,0-0.081,0-0.122,0
		c-0.529,0-1.005-0.338-1.005-0.923c0-0.559,0.476-0.923,1.046-0.923c0.733,0,1.168,0.572,1.168,1.534
		c0,1.273-0.774,2.262-2.119,2.704L520.891,15.506z"/>
	<path fill="#575756" d="M528.334,6.953h-4.088V5.691h5.799v0.91c-2.023,2.405-2.377,4.134-2.526,7.358h-1.589
		C526.079,11.021,526.663,9.175,528.334,6.953z"/>
	<path fill="#575756" d="M530.793,13.088c2.404-2.223,3.911-3.679,3.911-4.94c0-0.871-0.502-1.43-1.426-1.43
		c-0.665,0-1.222,0.429-1.684,0.923l-0.869-0.832c0.787-0.806,1.575-1.273,2.757-1.273c1.656,0,2.729,1.001,2.729,2.534
		c0,1.47-1.426,2.978-3.137,4.707c0.448-0.039,1.019-0.092,1.439-0.092h2.118v1.274h-5.84v-0.871
		C530.791,13.088,530.793,13.088,530.793,13.088z"/>
</g>
</svg>
