<?xml version="1.0" encoding="utf-8"?>
<!-- Generator: Adobe Illustrator 17.0.0, SVG Export Plug-In . SVG Version: 6.00 Build 0)  -->
<!DOCTYPE svg PUBLIC "-//W3C//DTD SVG 1.1//EN" "http://www.w3.org/Graphics/SVG/1.1/DTD/svg11.dtd">
<svg version="1.1" id="Layer_1" xmlns="http://www.w3.org/2000/svg" xmlns:xlink="http://www.w3.org/1999/xlink" x="0px" y="0px"
	 width="600px" height="19.542px" viewBox="0 0 600 19.542" enable-background="new 0 0 600 19.542" xml:space="preserve">
<rect x="159.427" y="2.722" fill="#ABCCB7" width="32.702" height="14.097"/>
<g>
	<rect x="448.356" y="9.115" fill="#ABCCB7" width="52.109" height="2"/>
</g>
<g>
	<g>
		<circle fill="#ABCCB7" cx="500.341" cy="10.115" r="2.481"/>
	</g>
</g>
<rect x="0" y="0" fill="none" width="600" height="19.542"/>
<line fill="none" stroke="#9F9F9F" stroke-width="0.7" stroke-miterlimit="10" stroke-dasharray="6,3" x1="199.426" y1="0.005" x2="199.426" y2="18.99"/>
<line fill="none" stroke="#9F9F9F" stroke-width="0.7" stroke-miterlimit="10" stroke-dasharray="6,3" x1="440.97" y1="0.005" x2="440.97" y2="18.99"/>
<g>
	<g>
		<g>
			<defs>
				<circle id="SVGID_1_" cx="259.927" cy="9.771" r="7.049"/>
			</defs>
			<clipPath id="SVGID_2_">
				<use xlink:href="#SVGID_1_"  overflow="visible"/>
			</clipPath>
			<g id="HFAg1N_1_" clip-path="url(#SVGID_2_)">
				<g>
					<g>
						<path fill="#EFE528" d="M273.059,2.529c0.454,0,0.909,0.004,1.363-0.003c0.109-0.002,0.141,0.016,0.137,0.133
							c-0.011,0.343-0.004,0.686-0.004,1.029c-0.056,0.113-0.145,0.187-0.258,0.242c-1.153,0.553-2.3,1.118-3.458,1.661
							c-0.517,0.243-1.028,0.498-1.541,0.747c-1.642,0.799-3.292,1.581-4.933,2.38c-0.665,0.324-1.324,0.663-2.002,0.959
							c-0.066,0.029-0.128,0.069-0.216,0.06c2.026,0.984,4.048,1.952,6.066,2.928c1.709,0.826,3.424,1.64,5.131,2.469
							c0.311,0.151,0.628,0.291,0.937,0.446c0.111,0.055,0.206,0.124,0.275,0.226c0,0.402,0,0.805,0,1.207
							c-0.114,0.082-0.245,0.044-0.369,0.047c-0.309,0.005-0.617,0.002-0.926,0.002c-0.04,0-0.081,0-0.121-0.002
							c-0.341-0.097-0.657-0.258-0.974-0.411c-1.556-0.752-3.119-1.489-4.678-2.234c-1.878-0.897-3.757-1.794-5.639-2.685
							c-0.53-0.251-1.068-0.489-1.586-0.764c-0.165-0.088-0.307-0.083-0.477-0.003c-1.417,0.67-2.827,1.355-4.242,2.028
							c-2.402,1.143-4.797,2.302-7.202,3.439c-0.471,0.223-0.927,0.481-1.43,0.631c-0.041,0.002-0.082,0.002-0.123,0.002
							c-0.362,0-0.724,0.001-1.086-0.001c-0.087-0.001-0.178,0.019-0.259-0.033c-0.054-0.364-0.009-0.73-0.024-1.094
							c-0.002-0.166,0.118-0.239,0.243-0.298c1.012-0.474,2.011-0.976,3.022-1.451c0.531-0.25,1.059-0.507,1.586-0.764
							c1.641-0.799,3.29-1.582,4.931-2.383c0.78-0.381,1.563-0.756,2.347-1.131c0.085-0.041,0.181-0.068,0.245-0.153
							c-0.045-0.1-0.148-0.117-0.23-0.156c-1.642-0.778-3.276-1.573-4.913-2.362c-1.702-0.82-3.406-1.636-5.109-2.456
							c-0.616-0.296-1.228-0.599-1.85-0.883c-0.121-0.055-0.256-0.111-0.271-0.277c0.015-0.364-0.03-0.728,0.024-1.09
							c0.531,0,1.062,0,1.593,0c0.496,0.101,0.924,0.367,1.37,0.582c1.152,0.556,2.304,1.11,3.455,1.667
							c2.244,1.086,4.494,2.16,6.738,3.246c0.398,0.193,0.797,0.383,1.193,0.58c0.142,0.071,0.266,0.071,0.411,0.003
							c1.077-0.506,2.149-1.023,3.221-1.541c2.281-1.102,4.568-2.191,6.847-3.297c0.738-0.358,1.485-0.697,2.216-1.069
							C272.67,2.605,272.873,2.601,273.059,2.529z"/>
						<path fill="#239E46" d="M273.059,2.529c-0.953,0.463-1.905,0.929-2.86,1.388c-3.316,1.594-6.634,3.185-9.948,4.783
							c-0.179,0.086-0.314,0.08-0.49-0.005c-4.174-2.016-8.351-4.026-12.527-6.039c-0.07-0.034-0.156-0.048-0.196-0.128
							C255.711,2.529,264.385,2.529,273.059,2.529z"/>
						<path fill="#010202" d="M274.555,15.806c-0.823-0.391-1.649-0.777-2.47-1.172c-3.281-1.576-6.561-3.155-9.841-4.734
							c-0.078-0.037-0.152-0.081-0.262-0.14c0.71-0.344,1.389-0.673,2.068-1.001c3.473-1.675,6.947-3.349,10.42-5.024
							c0.029-0.014,0.056-0.031,0.083-0.047C274.555,7.727,274.555,11.766,274.555,15.806z"/>
						<path fill="#C1C0C0" d="M274.555,17.061c-0.011,0.015,0.024,0.05-0.024,0.049c-0.064-0.002-0.129-0.001-0.193-0.001
							c-9.575,0-19.15,0-28.726-0.003c-0.071,0-0.164,0.056-0.217-0.045c0.026-0.018,0.055-0.026,0.086-0.024
							c0.459-0.001,0.918,0,1.377,0c0.237-0.053,0.478-0.049,0.719-0.049c8.291,0.001,16.581,0.001,24.872,0
							c0.249,0,0.498-0.004,0.743,0.049C273.646,17.052,274.102,17.007,274.555,17.061z"/>
						<path fill="#808081" d="M245.444,17.053c-0.016,0.003-0.033,0.005-0.049,0.008c0-4.772,0-9.543,0.003-14.315
							c0-0.071-0.056-0.163,0.045-0.217c0.002,0.386,0.004,0.771,0.005,1.157c0.123,0.133,0.1,0.299,0.1,0.458
							c0.002,1.769,0.001,3.538,0.001,5.307c0,1.97,0,3.94,0,5.91c0,0.168,0.015,0.34-0.1,0.485
							c0.001,0.388,0.001,0.777,0.002,1.165c0.016,0.012,0.02,0.023,0.013,0.031C245.458,17.05,245.451,17.053,245.444,17.053z"/>
						<path fill="#B9B710" d="M274.555,17.061c-0.449-0.003-0.898-0.006-1.348-0.008c-0.021-0.004-0.029-0.01-0.025-0.02
							c0.005-0.011,0.011-0.016,0.017-0.016c0.452-0.001,0.904-0.003,1.355-0.004C274.555,17.029,274.555,17.045,274.555,17.061z"/>
						<path fill="#239E46" d="M246.941,17.006c1.128-0.544,2.255-1.091,3.384-1.632c3.13-1.499,6.262-2.993,9.389-4.498
							c0.217-0.105,0.385-0.1,0.6,0.002c4.203,2.011,8.409,4.015,12.614,6.02c0.065,0.031,0.125,0.071,0.187,0.106
							c-0.071,0.057-0.155,0.03-0.233,0.03c-8.57,0.001-17.139,0.001-25.709,0C247.096,17.035,247.013,17.062,246.941,17.006z"/>
						<path fill="#010202" d="M245.449,15.846c-0.002-0.611-0.006-1.222-0.006-1.834c-0.001-3.338,0-6.676,0-10.014
							c0-0.104,0.003-0.209,0.005-0.313c0.795,0.376,1.592,0.748,2.385,1.129c3.325,1.598,6.649,3.198,9.973,4.798
							c0.079,0.038,0.157,0.078,0.288,0.143C253.854,11.798,249.652,13.822,245.449,15.846z"/>
						<path fill="#010202" d="M246.941,17.006c0.112,0.002,0.225,0.006,0.337,0.006c8.524,0,17.048,0,25.572,0
							c0.088,0,0.177-0.004,0.265-0.007c0.028,0.004,0.056,0.007,0.084,0.011c0.003,0.012,0.006,0.024,0.008,0.036
							c-0.08,0.003-0.161,0.008-0.241,0.008c-8.622,0-17.244,0-25.867,0c-0.08,0-0.161-0.005-0.241-0.008
							c-0.015-0.005-0.029-0.01-0.044-0.014c0.014-0.006,0.028-0.012,0.042-0.018C246.886,17.016,246.913,17.011,246.941,17.006z"/>
						<path fill="#BAB710" d="M246.858,17.021c0.001,0.011,0.001,0.021,0.001,0.032c-0.472,0-0.944,0-1.415,0
							c0-0.014,0.002-0.028,0.007-0.042C245.92,17.015,246.389,17.018,246.858,17.021z"/>
					</g>
				</g>
			</g>
		</g>
	</g>
</g>
<path fill="#010201" d="M280.147,12.204c0.407,0.676,0.909,0.962,1.548,0.962c0.95,0,1.426-0.521,1.426-1.82V5.43h1.127v6.02
	c0,1.469-0.706,2.665-2.458,2.665c-1.127,0-1.928-0.469-2.444-1.365L280.147,12.204z"/>
<path fill="#010201" d="M290.171,9.955c0-0.807-0.286-1.586-1.358-1.586c-0.774,0-1.453,0.338-1.969,0.676l-0.448-0.741
	c0.61-0.377,1.534-0.819,2.594-0.819c1.616,0,2.295,1.027,2.295,2.601v3.874h-0.924l-0.095-0.754h-0.027
	c-0.639,0.494-1.371,0.91-2.187,0.91c-1.113,0-1.941-0.663-1.941-1.794C286.111,10.943,287.36,10.254,290.171,9.955z
	 M288.365,13.257c0.639,0,1.168-0.299,1.807-0.845v-1.755c-2.214,0.26-2.961,0.779-2.961,1.586
	C287.21,12.958,287.713,13.257,288.365,13.257z"/>
<path fill="#010201" d="M293.324,7.64h0.924l0.095,0.91h0.041c0.57-0.598,1.263-1.066,2.051-1.066c1.005,0,1.548,0.455,1.819,1.209
	c0.692-0.715,1.372-1.209,2.173-1.209c1.358,0,2.01,0.858,2.01,2.471v4.004h-1.113v-3.861c0-1.183-0.394-1.689-1.222-1.689
	c-0.517,0-1.046,0.324-1.657,0.975v4.576h-1.113v-3.861c0-1.183-0.395-1.689-1.236-1.689c-0.488,0-1.046,0.324-1.656,0.975v4.576
	h-1.114V7.64H293.324z"/>
<path fill="#010201" d="M308.253,9.955c0-0.807-0.286-1.586-1.358-1.586c-0.774,0-1.453,0.338-1.969,0.676l-0.448-0.741
	c0.61-0.377,1.534-0.819,2.594-0.819c1.616,0,2.295,1.027,2.295,2.601v3.874h-0.924l-0.095-0.754h-0.027
	c-0.639,0.494-1.371,0.91-2.187,0.91c-1.113,0-1.941-0.663-1.941-1.794C304.193,10.943,305.442,10.254,308.253,9.955z
	 M306.447,13.257c0.639,0,1.168-0.299,1.807-0.845v-1.755c-2.214,0.26-2.961,0.779-2.961,1.586
	C305.292,12.958,305.795,13.257,306.447,13.257z"/>
<path fill="#010201" d="M311.202,5.651c0-0.416,0.339-0.688,0.773-0.688s0.774,0.272,0.774,0.688c0,0.403-0.34,0.689-0.774,0.689
	S311.202,6.054,311.202,5.651z M311.405,7.64h1.114v6.318h-1.114V7.64z"/>
<path fill="#010201" d="M317.369,7.484c0.869,0,1.48,0.352,1.928,0.754l-0.557,0.689c-0.394-0.325-0.801-0.559-1.331-0.559
	c-1.194,0-2.063,0.987-2.063,2.443c0,1.443,0.828,2.418,2.037,2.418c0.624,0,1.154-0.299,1.548-0.637l0.502,0.702
	c-0.597,0.507-1.357,0.819-2.146,0.819c-1.752,0-3.096-1.209-3.096-3.303C314.191,8.693,315.67,7.484,317.369,7.484z"/>
<path fill="#010201" d="M324.406,9.955c0-0.807-0.286-1.586-1.358-1.586c-0.774,0-1.453,0.338-1.969,0.676l-0.448-0.741
	c0.61-0.377,1.534-0.819,2.594-0.819c1.616,0,2.295,1.027,2.295,2.601v3.874h-0.924l-0.095-0.754h-0.027
	c-0.639,0.494-1.371,0.91-2.187,0.91c-1.113,0-1.941-0.663-1.941-1.794C320.345,10.943,321.594,10.254,324.406,9.955z
	 M322.599,13.257c0.639,0,1.168-0.299,1.807-0.845v-1.755c-2.214,0.26-2.961,0.779-2.961,1.586
	C321.445,12.958,321.948,13.257,322.599,13.257z"/>
<circle fill="none" stroke="#010201" stroke-miterlimit="10" cx="259.927" cy="9.771" r="7.049"/>
</svg>
