<?xml version="1.0" encoding="utf-8"?>
<!-- Generator: Adobe Illustrator 17.0.0, SVG Export Plug-In . SVG Version: 6.00 Build 0)  -->
<!DOCTYPE svg PUBLIC "-//W3C//DTD SVG 1.1//EN" "http://www.w3.org/Graphics/SVG/1.1/DTD/svg11.dtd">
<svg version="1.1" id="Layer_1" xmlns="http://www.w3.org/2000/svg" xmlns:xlink="http://www.w3.org/1999/xlink" x="0px" y="0px"
	 width="600px" height="19.542px" viewBox="0 0 600 19.542" enable-background="new 0 0 600 19.542" xml:space="preserve">
<rect x="0" y="0" fill="#ABCCB7" width="600" height="19.542"/>
<line fill="none" stroke="#9F9F9F" stroke-width="0.7" stroke-miterlimit="10" stroke-dasharray="6,3" x1="199.426" y1="-0.002" x2="199.426" y2="19.535"/>
<line fill="none" stroke="#9F9F9F" stroke-width="0.7" stroke-miterlimit="10" stroke-dasharray="6,3" x1="440.97" y1="-0.002" x2="440.97" y2="19.535"/>
<g>
	<g>
		<g>
			<rect x="451.885" y="8.771" fill="#575756" width="47.866" height="2"/>
		</g>
		<g>
			<g>
				<circle fill="#575756" cx="499.627" cy="9.771" r="2.481"/>
			</g>
		</g>
	</g>
</g>
<path fill="#575756" d="M70.993,7.168C70.49,6.727,70.069,6.48,69.418,6.48c-0.733,0-1.182,0.364-1.182,1.04
	c0,1.56,3.694,1.248,3.694,3.874c0,1.235-0.761,2.146-2.105,2.379v1.339h-1.086v-1.3c-0.829-0.078-1.738-0.442-2.35-0.988
	l0.706-1.014c0.638,0.481,1.276,0.806,2.01,0.806c0.883,0,1.317-0.416,1.317-1.117c0-1.717-3.694-1.47-3.694-3.914
	c0-1.209,0.788-2.066,2.011-2.274V3.984h1.086v1.3c0.869,0.104,1.467,0.507,1.969,1.014L70.993,7.168z"/>
<path fill="#575756" d="M81.466,11.55H80.38v2.132h-1.467V11.55h-3.816v-1.015l3.423-5.122h1.86v4.979h1.086L81.466,11.55
	L81.466,11.55z M78.913,10.393V8.521c0-0.481,0.041-1.235,0.068-1.716h-0.055c-0.218,0.429-0.462,0.845-0.706,1.287l-1.575,2.301
	H78.913z"/>
<path fill="#575756" d="M82.026,9.509c0-2.796,1.141-4.251,2.934-4.251s2.934,1.469,2.934,4.251c0,2.795-1.141,4.329-2.934,4.329
	S82.026,12.304,82.026,9.509z M86.399,9.509c0-2.341-0.598-3.081-1.439-3.081c-0.828,0-1.439,0.74-1.439,3.081
	c0,2.34,0.611,3.159,1.439,3.159C85.801,12.668,86.399,11.849,86.399,9.509z"/>
<path fill="#575756" d="M92.797,6.675h-4.088V5.413h5.799v0.91c-2.023,2.405-2.377,4.134-2.526,7.358h-1.589
	C90.542,10.743,91.126,8.898,92.797,6.675z"/>
<path fill="#575756" d="M100.199,7.104C99.887,6.74,99.344,6.48,98.828,6.48c-1.087,0-1.97,0.767-2.037,3.055
	c0.502-0.61,1.249-0.975,1.874-0.975c1.494,0,2.525,0.832,2.525,2.561c0,1.651-1.235,2.718-2.716,2.718
	c-1.697,0-3.137-1.262-3.137-4.043c0-3.212,1.63-4.537,3.395-4.537c1.046,0,1.793,0.416,2.31,0.936L100.199,7.104z M99.737,11.12
	c0-0.975-0.502-1.469-1.357-1.469c-0.489,0-1.06,0.26-1.548,0.949c0.162,1.469,0.773,2.093,1.615,2.093
	C99.167,12.694,99.737,12.135,99.737,11.12z"/>
<path fill="#575756" d="M102.009,15.229c0.869-0.325,1.371-0.91,1.371-1.573c-0.041,0-0.081,0-0.122,0
	c-0.529,0-1.005-0.338-1.005-0.923c0-0.559,0.476-0.923,1.046-0.923c0.733,0,1.168,0.572,1.168,1.534
	c0,1.273-0.774,2.262-2.119,2.704L102.009,15.229z"/>
<path fill="#575756" d="M105.309,9.509c0-2.796,1.141-4.251,2.934-4.251s2.934,1.469,2.934,4.251c0,2.795-1.141,4.329-2.934,4.329
	S105.309,12.304,105.309,9.509z M109.682,9.509c0-2.341-0.598-3.081-1.439-3.081c-0.828,0-1.439,0.74-1.439,3.081
	c0,2.34,0.611,3.159,1.439,3.159C109.084,12.668,109.682,11.849,109.682,9.509z"/>
<path fill="#575756" d="M116.855,7.104C116.543,6.74,116,6.48,115.484,6.48c-1.087,0-1.97,0.767-2.037,3.055
	c0.502-0.61,1.249-0.975,1.874-0.975c1.494,0,2.525,0.832,2.525,2.561c0,1.651-1.235,2.718-2.716,2.718
	c-1.697,0-3.137-1.262-3.137-4.043c0-3.212,1.63-4.537,3.395-4.537c1.046,0,1.793,0.416,2.309,0.936L116.855,7.104z M116.394,11.12
	c0-0.975-0.503-1.469-1.358-1.469c-0.489,0-1.06,0.26-1.548,0.949c0.162,1.469,0.773,2.093,1.615,2.093
	C115.822,12.694,116.394,12.135,116.394,11.12z"/>
<path fill="#575756" d="M123.023,14.201v2.003h-1.562V7.299h1.29l0.109,0.676h0.054c0.557-0.455,1.276-0.832,2.01-0.832
	c1.657,0,2.621,1.273,2.621,3.25c0,2.184-1.371,3.445-2.852,3.445c-0.584,0-1.168-0.26-1.711-0.702L123.023,14.201z M124.367,12.603
	c0.883,0,1.562-0.754,1.562-2.197c0-1.273-0.435-2.028-1.439-2.028c-0.488,0-0.95,0.234-1.467,0.716v2.977
	C123.512,12.46,123.974,12.603,124.367,12.603z"/>
<path fill="#575756" d="M131.119,4.451h1.06l-3.164,11.311h-1.06L131.119,4.451z"/>
<path fill="#575756" d="M135.697,7.143c0.855,0,1.508,0.325,1.956,0.741l-0.747,0.948c-0.354-0.299-0.706-0.468-1.127-0.468
	c-1.073,0-1.82,0.845-1.82,2.132c0,1.274,0.733,2.119,1.779,2.119c0.543,0,1.005-0.26,1.371-0.546l0.652,0.949
	c-0.625,0.533-1.426,0.819-2.187,0.819c-1.82,0-3.219-1.223-3.219-3.342C132.357,8.364,133.918,7.143,135.697,7.143z"/>
<circle fill="none" stroke="#FFFCEE" stroke-miterlimit="10" cx="259.817" cy="9.463" r="7.049"/>
<path fill="#575756" d="M279.874,5.206h2.051l2.309,4.213l0.883,1.871h0.054c-0.095-0.896-0.258-2.094-0.258-3.094v-2.99h1.901
	v8.477h-2.051l-2.309-4.227l-0.869-1.846h-0.055c0.096,0.937,0.259,2.068,0.259,3.068v3.004h-1.915V5.206z"/>
<path fill="#575756" d="M288.514,5.284c0-0.586,0.489-0.988,1.154-0.988c0.679,0,1.154,0.402,1.154,0.988c0,0.584-0.476,1-1.154,1
	C289.003,6.284,288.514,5.868,288.514,5.284z M288.677,7.234h1.996v6.449h-1.996V7.234z"/>
<path fill="#575756" d="M295.468,7.077c0.829,0,1.521,0.299,1.97,0.742l-0.91,1.184c-0.326-0.262-0.625-0.379-0.937-0.379
	c-0.965,0-1.576,0.717-1.576,1.834s0.639,1.834,1.508,1.834c0.489,0,0.883-0.223,1.209-0.469l0.801,1.209
	c-0.651,0.547-1.507,0.807-2.24,0.807c-1.874,0-3.327-1.236-3.327-3.381S293.608,7.077,295.468,7.077z"/>
<path fill="#575756" d="M302.043,9.534c-0.04-0.57-0.339-0.936-1.059-0.936c-0.57,0-1.141,0.221-1.793,0.586l-0.706-1.262
	c0.855-0.494,1.819-0.846,2.879-0.846c1.725,0,2.676,0.937,2.676,2.912v3.693h-1.63l-0.149-0.664h-0.041
	c-0.57,0.482-1.208,0.82-1.969,0.82c-1.223,0-1.996-0.859-1.996-1.951C298.255,10.536,299.382,9.796,302.043,9.534z M300.93,12.357
	c0.462,0,0.761-0.209,1.113-0.547v-1.131c-1.426,0.182-1.888,0.572-1.888,1.066C300.155,12.161,300.454,12.357,300.93,12.357z"/>
<path fill="#575756" d="M305.686,7.234h1.63l0.136,1.131h0.054c0.489-0.871,1.223-1.287,1.915-1.287
	c0.381,0,0.611,0.053,0.802,0.131l-0.326,1.65c-0.244-0.064-0.448-0.104-0.733-0.104c-0.503,0-1.127,0.312-1.48,1.184v3.744h-1.996
	V7.234H305.686z"/>
<path fill="#575756" d="M314.174,9.534c-0.04-0.57-0.339-0.936-1.059-0.936c-0.57,0-1.141,0.221-1.793,0.586l-0.706-1.262
	c0.855-0.494,1.819-0.846,2.879-0.846c1.725,0,2.676,0.937,2.676,2.912v3.693h-1.63l-0.149-0.664h-0.041
	c-0.57,0.482-1.208,0.82-1.969,0.82c-1.223,0-1.996-0.859-1.996-1.951C310.386,10.536,311.513,9.796,314.174,9.534z M313.061,12.357
	c0.462,0,0.761-0.209,1.113-0.547v-1.131c-1.426,0.182-1.888,0.572-1.888,1.066C312.286,12.161,312.585,12.357,313.061,12.357z"/>
<path fill="#575756" d="M318.359,13.488v-0.053c-0.353-0.221-0.625-0.559-0.625-1.092c0-0.467,0.326-0.922,0.761-1.209v-0.051
	c-0.476-0.312-0.909-0.924-0.909-1.678c0-1.547,1.33-2.328,2.783-2.328c0.381,0,0.747,0.053,1.046,0.156h2.458v1.391h-1.072
	c0.122,0.195,0.217,0.508,0.217,0.846c0,1.482-1.168,2.172-2.648,2.172c-0.244,0-0.516-0.039-0.814-0.131
	c-0.177,0.143-0.244,0.26-0.244,0.48c0,0.326,0.271,0.482,1.019,0.482h1.086c1.657,0,2.566,0.48,2.566,1.637
	c0,1.34-1.453,2.314-3.762,2.314c-1.575,0-2.824-0.494-2.824-1.637C317.396,14.255,317.734,13.825,318.359,13.488z M320.532,15.23
	c0.896,0,1.548-0.352,1.548-0.793c0-0.404-0.366-0.508-1.031-0.508h-0.693c-0.461,0-0.733-0.025-0.95-0.078
	c-0.244,0.209-0.367,0.404-0.367,0.637C319.038,14.97,319.636,15.23,320.532,15.23z M321.293,9.405c0-0.676-0.394-1.041-0.924-1.041
	c-0.529,0-0.923,0.352-0.923,1.041c0,0.715,0.394,1.078,0.923,1.078C320.9,10.484,321.293,10.12,321.293,9.405z"/>
<path fill="#575756" d="M324.935,7.234h1.997v3.758c0,0.924,0.258,1.223,0.842,1.223c0.502,0,0.801-0.209,1.195-0.715V7.234h1.996
	v6.449h-1.63l-0.149-0.898h-0.041c-0.57,0.65-1.194,1.055-2.118,1.055c-1.467,0-2.092-0.988-2.092-2.602L324.935,7.234
	L324.935,7.234z"/>
<path fill="#575756" d="M336.195,9.534c-0.04-0.57-0.339-0.936-1.059-0.936c-0.57,0-1.141,0.221-1.793,0.586l-0.706-1.262
	c0.855-0.494,1.819-0.846,2.879-0.846c1.725,0,2.676,0.937,2.676,2.912v3.693h-1.63l-0.149-0.664h-0.041
	c-0.57,0.482-1.208,0.82-1.969,0.82c-1.223,0-1.996-0.859-1.996-1.951C332.407,10.536,333.534,9.796,336.195,9.534z M335.082,12.357
	c0.462,0,0.761-0.209,1.113-0.547v-1.131c-1.426,0.182-1.888,0.572-1.888,1.066C334.308,12.161,334.607,12.357,335.082,12.357z"/>
<path fill="#ABCCB7" d="M224.83,11.472c0.516,0.455,1.127,0.82,1.86,0.82c0.883,0,1.453-0.443,1.453-1.287
	c0-0.832-0.557-1.275-1.358-1.275c-0.502,0-0.761,0.105-1.276,0.416l-0.896-0.545l0.244-4.174h4.89v1.611h-3.164l-0.149,1.549
	c0.325-0.145,0.61-0.195,0.964-0.195c1.48,0,2.743,0.805,2.743,2.561c0,1.832-1.48,2.887-3.164,2.887
	c-1.412,0-2.363-0.508-3.042-1.158L224.83,11.472z"/>
<g>
	<g>
		<g>
			<g>
				<g>
					<defs>
						<circle id="SVGID_1_" cx="259.817" cy="9.463" r="7.158"/>
					</defs>
					<clipPath id="SVGID_2_">
						<use xlink:href="#SVGID_1_"  overflow="visible"/>
					</clipPath>
					<g clip-path="url(#SVGID_2_)">
						<g>
							<path fill="#6379A3" d="M274.776,11.981c0,1.662,0,3.324,0,4.986c-9.94,0-19.879,0-29.818,0c0-1.662,0-3.324,0-4.986
								c0.025-0.022,0.052-0.041,0.081-0.058c0.1-0.053,0.208-0.042,0.314-0.042c9.676-0.001,19.352-0.001,29.028,0
								c0.106,0,0.215-0.011,0.315,0.042C274.724,11.939,274.751,11.958,274.776,11.981z"/>
							<path fill="#6379A3" d="M244.957,7.044c0-1.662,0-3.324,0-4.986c9.939,0,19.879,0,29.818,0c0,1.662,0,3.324,0,4.986
								c-0.025,0.022-0.052,0.041-0.081,0.058c-0.1,0.052-0.208,0.042-0.314,0.042c-9.676,0.001-19.352,0.001-29.028,0
								c-0.106,0-0.215,0.01-0.315-0.042C245.009,7.086,244.982,7.066,244.957,7.044z"/>
							<path fill="#3F3F3F" d="M244.957,7.044c0.016,0,0.033,0,0.049,0c0.091,0.088,0.1,0.201,0.1,0.318
								c0.001,1.434,0.001,2.867,0,4.301c0,0.117-0.009,0.23-0.1,0.318c-0.016,0-0.033,0-0.049,0
								C244.957,10.335,244.957,8.689,244.957,7.044z"/>
							<path fill="#7F8080" d="M274.726,7.044c0.016,0,0.033,0,0.049,0c0,1.646,0,3.291,0,4.937c-0.016,0-0.033,0-0.049,0
								c-0.091-0.088-0.1-0.201-0.1-0.318c-0.001-1.434-0.001-2.867,0-4.301C274.627,7.245,274.635,7.132,274.726,7.044z"/>
							<path fill="#FFFFFF" d="M274.726,7.044c0,1.646,0,3.291,0,4.937c-9.907,0-19.813,0-29.72,0c0-1.646,0-3.291,0-4.937
								C254.913,7.044,264.82,7.044,274.726,7.044z"/>
							<path fill="#F0D669" d="M261.101,10.351c0.11,0.032,0.104,0.143,0.16,0.212c-0.024,0.017-0.036,0.034-0.049,0.034
								c-0.839,0.001-1.677,0.001-2.516,0.002c-0.072,0-0.14,0.007-0.113-0.1c0.053-0.02,0.108-0.023,0.163-0.024
								c0.646-0.001,1.293,0.001,1.939-0.001c0.097,0,0.197,0.018,0.287-0.036C261.021,10.418,261.018,10.322,261.101,10.351z"/>
							<path fill="#92C2E2" d="M259.027,9.858c0-0.016-0.007-0.039,0.001-0.048c0.077-0.092,0.11-0.212,0.196-0.297
								c0.17-0.015,0.315-0.14,0.495-0.11c0.016,0.017,0.027,0.038,0.031,0.061c-0.041,0.201-0.21,0.293-0.348,0.412
								c-0.02,0.008-0.042,0.013-0.064,0.015c-0.067-0.002-0.12,0.04-0.18,0.059c-0.048,0.01-0.094,0.005-0.133-0.027
								C259.011,9.9,259.011,9.879,259.027,9.858z"/>
							<path fill="#92C3E5" d="M260.656,9.611c0.053,0.009,0.078,0.048,0.099,0.092c0.032,0.068,0.066,0.136,0.099,0.204
								c-0.042,0.053-0.1,0.067-0.164,0.066c-0.083-0.006-0.166-0.017-0.242-0.054c-0.114-0.152-0.331-0.228-0.344-0.457
								c0.094-0.132,0.186-0.024,0.276,0.006C260.478,9.502,260.575,9.541,260.656,9.611z"/>
							<path fill="#396F4E" d="M261.002,10.154c0,0.033,0,0.066,0,0.099c-0.106,0.057-0.224,0.002-0.333,0.033
								c-0.142,0.049-0.281-0.033-0.423-0.009c-0.186-0.013-0.37,0.013-0.553,0.037c-0.09-0.023-0.179-0.048-0.274-0.031
								c-0.041,0.006-0.082-0.004-0.122-0.005c-0.152-0.017-0.311,0.035-0.456-0.048c-0.024-0.022-0.027-0.048-0.011-0.076
								c0.016-0.033,0.033-0.066,0.049-0.099c0.02-0.016,0.042-0.023,0.067-0.02c0.024,0.007,0.047,0.016,0.069,0.026
								c0.227,0.008,0.454,0.042,0.68-0.011c0.302,0.006,0.603,0.024,0.905,0.004C260.738,10.074,260.879,10.079,261.002,10.154z"/>
							<path fill="#90C1E5" d="M259.718,9.463c0-0.016,0-0.033,0-0.049c-0.02-0.013-0.041-0.022-0.064-0.027
								c-0.1-0.026-0.249,0.06-0.281-0.121c-0.008-0.077,0.021-0.129,0.099-0.148c0.086,0.005,0.163,0.062,0.253,0.047
								c0.034,0.001,0.067,0.009,0.097,0.025c0.019,0.012,0.036,0.027,0.05,0.045c0.044,0.076,0.094,0.146,0.153,0.212
								c0.007,0.021,0.008,0.043,0.003,0.065c-0.013,0.031-0.033,0.056-0.056,0.08c-0.058,0.088-0.011,0.198-0.063,0.287
								c-0.019,0.032-0.046,0.054-0.08,0.066c-0.036,0.009-0.07,0.005-0.103-0.012c-0.116-0.115,0.03-0.232-0.003-0.348
								C259.715,9.544,259.753,9.502,259.718,9.463z"/>
							<path fill="#8FC0E3" d="M259.817,9.265c0-0.016,0-0.033,0-0.049c-0.029-0.026-0.03-0.057-0.017-0.092
								c0.013-0.019,0.029-0.034,0.049-0.046c0.021-0.01,0.042-0.016,0.065-0.02c0.022-0.004,0.044-0.004,0.067-0.004
								c0.075,0.026,0.121-0.029,0.174-0.065c0.032-0.014,0.066-0.018,0.1-0.01c0.021,0.01,0.04,0.023,0.056,0.039
								c0.054,0.012,0.087,0.045,0.099,0.099c-0.012,0.14-0.158,0.142-0.228,0.223c-0.008,0.008-0.016,0.016-0.024,0.024
								c-0.017,0.016-0.036,0.027-0.058,0.035c-0.034,0.008-0.067,0.006-0.099-0.006C259.93,9.364,259.898,9.28,259.817,9.265z"/>
							<path fill="#94C4E5" d="M260.656,9.611c-0.004,0.061-0.075,0.056-0.077,0.041c-0.008-0.095-0.085-0.045-0.124-0.07
								c-0.056-0.036-0.165,0.002-0.165-0.114c-0.056,0.055-0.066,0.035-0.09-0.033c-0.019-0.051-0.045,0.052-0.087,0.029
								c-0.007-0.007-0.014-0.014-0.02-0.021c-0.01-0.03-0.006-0.057,0.02-0.078c0.132-0.099,0.263-0.093,0.395,0
								C260.62,9.409,260.639,9.509,260.656,9.611z"/>
							<path fill="#349C47" d="M261.002,10.154c-0.073,0-0.148-0.008-0.22,0.002c-0.071,0.011-0.12-0.026-0.175-0.052
								c-0.159,0.049-0.178-0.046-0.172-0.166c0.008-0.01,0.016-0.021,0.024-0.031c0.066-0.053,0.132-0.053,0.197,0
								c0.08,0.054,0.177,0.078,0.247,0.148C260.957,10.067,260.99,10.1,261.002,10.154z"/>
							<path fill="#4362A9" d="M260.656,10.203c0.057,0,0.115,0.008,0.17-0.002c0.07-0.013,0.12,0.025,0.175,0.051
								c0.054,0.012,0.087,0.045,0.099,0.099c-0.027,0.004-0.061,0.002-0.03,0.045c0.012,0.016,0.02,0.036,0.03,0.054
								c-0.046,0.15-0.168,0.04-0.249,0.074c-0.102-0.045-0.1-0.19-0.214-0.224C260.624,10.264,260.63,10.232,260.656,10.203z"/>
							<path fill="#91C4E9" d="M259.718,9.364c0,0.016,0,0.033,0,0.049c-0.06,0.009-0.117,0.097-0.12,0.092
								c-0.062-0.092-0.104,0.045-0.156,0.011c-0.024,0.06-0.096,0.039-0.138,0.079c-0.019,0.018-0.07-0.036-0.08-0.083
								c0.051-0.037,0.015-0.133,0.099-0.148C259.455,9.324,259.587,9.325,259.718,9.364z"/>
							<path fill="#F7F7F7" d="M258.83,7.932c0.004-0.044-0.021-0.106,0.063-0.099c0.037,0.003,0.095-0.013,0.084,0.051
								c-0.019,0.109,0.046,0.101,0.116,0.097c0.023-0.001,0.046,0.003,0.079,0.017c-0.106,0.02-0.087,0.162-0.192,0.18
								c-0.058-0.022-0.134,0.005-0.175-0.064C258.773,8.049,258.781,7.987,258.83,7.932z"/>
							<path fill="#3D317D" d="M260.261,9.018c-0.033,0-0.066,0-0.099,0c-0.057,0.016-0.112,0.04-0.173,0.036
								c-0.029,0-0.058-0.004-0.087-0.01c-0.019-0.001-0.038-0.003-0.057-0.004c-0.029-0.001-0.058-0.001-0.087-0.002
								c-0.04-0.001-0.08-0.004-0.119-0.014c-0.02-0.006-0.038-0.016-0.054-0.029c-0.006-0.009-0.011-0.017-0.017-0.026
								c0-0.016,0-0.033,0-0.049c0.02-0.019,0.042-0.035,0.065-0.051c0.154-0.082,0.318-0.081,0.485-0.06
								C260.199,8.857,260.314,8.882,260.261,9.018z"/>
							<path fill="#8C8B84" d="M261.446,8.624c0.006,0.144,0.006,0.144,0.112,0.148c0.04,0.001,0.079,0,0.104,0
								c0.035,0.021,0.031,0.029,0.013,0.045c-0.037,0.032-0.07,0.069-0.105,0.103c-0.03-0.049-0.084-0.036-0.125-0.053
								c-0.09-0.038-0.167-0.099-0.147-0.219c0.004-0.024,0.001-0.049,0.001-0.074c0.013-0.012,0.029-0.018,0.046-0.018
								c0.027,0.001,0.051,0.011,0.073,0.025c0.006,0.006,0.013,0.012,0.019,0.018C261.439,8.607,261.443,8.615,261.446,8.624z"/>
							<path fill="#BCAF9B" d="M259.077,11.388c-0.006,0.03,0.016,0.066-0.016,0.089c-0.029,0.02-0.058,0.015-0.082-0.013
								c-0.043-0.052-0.121-0.085-0.1-0.174c-0.016-0.014-0.026-0.032-0.03-0.054c0.002-0.01,0.004-0.021,0.005-0.031
								c0.006-0.009,0.012-0.017,0.019-0.026c0.021-0.009,0.04-0.005,0.056,0.012c0.063,0.024,0.096-0.042,0.148-0.049
								C259.131,11.224,259.15,11.306,259.077,11.388z"/>
							<path fill="#A9926E" d="M261.742,9.364c0.012,0.084,0.138,0.038,0.137,0.133c-0.088,0.06-0.218-0.043-0.305,0.06
								c-0.01-0.009-0.021-0.016-0.029-0.027c-0.004-0.005-0.004-0.021,0-0.023c0.094-0.053-0.057-0.138,0.025-0.191
								c0.006-0.004,0.016,0,0.024,0C261.661,9.279,261.725,9.252,261.742,9.364z"/>
							<path fill="#E1AE58" d="M261.681,9.858c0.059-0.004,0.075,0.038,0.059,0.06c-0.038,0.052-0.04,0.088,0.015,0.126
								c0.035,0.024,0.059,0.059,0.022,0.099c-0.03,0.032-0.06,0.088-0.115,0.051c-0.036-0.024-0.09-0.056-0.064-0.114
								c0.014-0.031,0.062-0.046,0.01-0.089c-0.019-0.016-0.084-0.028-0.04-0.083C261.602,9.866,261.639,9.843,261.681,9.858z"/>
							<path fill="#AE956F" d="M260.409,11.536c-0.058,0.047-0.126,0.055-0.197,0.049c-0.041-0.086-0.042-0.17,0.013-0.251
								c0.022-0.027,0.05-0.043,0.085-0.045c0.033,0,0.066,0,0.099,0C260.493,11.372,260.529,11.454,260.409,11.536z"/>
							<path fill="#DCDAD7" d="M260.261,11.339c0.026,0.055-0.061,0.107-0.03,0.135c0.067,0.061-0.044,0.072-0.019,0.112
								c-0.04,0.012-0.073-0.09-0.121-0.007c-0.004,0.006-0.031-0.019-0.027-0.042c-0.054-0.066-0.054-0.132,0-0.197
								c0-0.016,0-0.033,0-0.049C260.145,11.243,260.206,11.282,260.261,11.339z"/>
							<path fill="#D6CFC5" d="M259.718,7.883c0.001,0.034-0.015,0.051-0.049,0.049c-0.08-0.083-0.099-0.186-0.099-0.296
								c0.04-0.104,0.121-0.04,0.181-0.037c0.033,0.002,0.01,0.056,0.017,0.086C259.835,7.772,259.803,7.834,259.718,7.883z"/>
							<path fill="#94C4E5" d="M260.113,9.315c0.017-0.071,0.093-0.076,0.13-0.115c0.051-0.056,0.077,0.032,0.108,0
								c0.023-0.024-0.007-0.087,0.059-0.082c0.007,0.052,0.074,0.085,0.049,0.148C260.361,9.404,260.233,9.332,260.113,9.315z"/>
							<path fill="#E8E5E2" d="M261.742,9.364c-0.023-0.095-0.1-0.031-0.148-0.049c0-0.033,0-0.066,0-0.099
								c-0.029-0.095,0.044-0.088,0.099-0.099c0.12-0.033,0.116,0.083,0.142,0.138C261.86,9.305,261.8,9.348,261.742,9.364z"/>
							<path fill="#A07C40" d="M258.188,9.512c-0.006,0.147-0.006,0.147-0.13,0.148c-0.032,0-0.064,0.001-0.096,0
								c-0.089-0.004-0.094-0.036-0.021-0.148c0.006-0.007,0.011-0.014,0.017-0.02c0.008-0.004,0.016-0.007,0.024-0.011
								c0.018-0.004,0.035-0.006,0.053-0.007c0.027-0.003,0.055-0.004,0.082-0.002C258.147,9.475,258.169,9.491,258.188,9.512z"/>
							<path fill="#A5B3C8" d="M260.014,8.426c0.043,0.07,0.061,0.155,0.133,0.208c0.031,0.023,0.01,0.059,0.015,0.089
								c-0.009,0.009-0.018,0.019-0.027,0.028c-0.081,0.04-0.15,0.025-0.206-0.048c-0.038-0.071-0.038-0.145-0.021-0.221
								c0.008-0.024,0.022-0.044,0.04-0.061C259.972,8.407,259.994,8.409,260.014,8.426z"/>
							<path fill="#8BBCE6" d="M259.718,9.216c0.006,0.03-0.016,0.053-0.037,0.047c-0.065-0.016-0.123-0.052-0.193-0.06
								c-0.033-0.004-0.01-0.056-0.016-0.086c0.007-0.037-0.024-0.095,0.049-0.099c0.018-0.018,0.039-0.022,0.062-0.012
								C259.67,9.049,259.755,9.093,259.718,9.216z"/>
							<path fill="#B08843" d="M257.892,9.858c-0.011-0.086,0.033-0.134,0.113-0.147c0.039-0.007,0.08-0.001,0.121-0.001
								c0.033,0,0.063,0.001,0.063,0.049c0,0.046-0.028,0.047-0.062,0.051c-0.025,0.003-0.043,0.018-0.038,0.048
								C258.023,9.92,257.957,9.908,257.892,9.858z"/>
							<path fill="#A39D92" d="M258.287,8.525c0.03-0.095,0.142-0.024,0.194-0.095c0.02-0.027,0.066,0.032,0.09,0.06
								c0.035,0.041-0.001,0.069-0.026,0.101c-0.031,0.04-0.07,0.033-0.109,0.033c-0.009,0-0.019,0-0.028-0.001
								c-0.029,0-0.055-0.008-0.078-0.026C258.31,8.575,258.307,8.545,258.287,8.525z"/>
							<path fill="#AB9571" d="M261.693,10.598c0.007,0.051-0.003,0.096-0.051,0.124c-0.085,0.051-0.244,0.027-0.37-0.075
								c0.121,0,0.215,0,0.31,0c0.034,0,0.066-0.002,0.062-0.049C261.66,10.587,261.677,10.587,261.693,10.598z"/>
							<path fill="#B78D46" d="M261.286,8.182c0.038,0.123-0.013,0.211-0.067,0.296c-0.01,0.016-0.029,0.068-0.067,0.024
								c-0.02-0.024-0.048-0.031-0.024-0.089C261.164,8.323,261.19,8.236,261.286,8.182z"/>
							<path fill="#9E7C47" d="M261.298,10.993c0,0.024,0.002,0.048,0,0.071c-0.008,0.065-0.055,0.104-0.102,0.074
								c-0.055-0.035-0.119-0.082-0.139-0.138c-0.026-0.073,0.052-0.052,0.093-0.057c0.017-0.02,0.04-0.025,0.065-0.024
								c0.017-0.001,0.032,0.004,0.045,0.014s0.024,0.022,0.032,0.036C261.292,10.97,261.298,10.993,261.298,10.993z"/>
							<path fill="#9C8053" d="M261.693,10.598c-0.016,0-0.033,0-0.049,0c-0.091,0.019-0.161-0.038-0.238-0.068
								c-0.007-0.003-0.005-0.043,0.001-0.063c0.003-0.009,0.033-0.02,0.039-0.016c0.082,0.066,0.182,0.032,0.269,0.054
								C261.759,10.516,261.768,10.581,261.693,10.598z"/>
							<path fill="#948260" d="M257.892,9.858c0.066,0,0.132,0,0.197,0c0.016,0,0.033,0,0.049,0c0.029,0.033,0.031,0.066,0,0.099
								c-0.034-0.001-0.051,0.015-0.049,0.049c-0.016,0.02-0.033,0.02-0.049,0C257.894,10.004,257.894,10.004,257.892,9.858z"/>
							<path fill="#C5984C" d="M258.533,10.944c-0.039,0-0.079-0.005-0.117,0.001c-0.087,0.013-0.084-0.042-0.08-0.1
								c0.005-0.008,0.01-0.017,0.016-0.025c0.016-0.012,0.034-0.02,0.053-0.023c0.01,0,0.02,0,0.03-0.001
								c0.071-0.006,0.139,0.003,0.197,0.049c0.016,0.018,0.021,0.038,0.014,0.062C258.617,10.945,258.585,10.975,258.533,10.944z"
								/>
							<path fill="#9D8867" d="M260.508,7.784c0.033,0.016,0.066,0.033,0.099,0.049c0.011,0.012,0.019,0.026,0.023,0.041
								c0.005,0.015,0.012,0.03,0.022,0.043c0.015,0.021,0.022,0.044,0.024,0.069c-0.001,0.017-0.007,0.032-0.02,0.044
								c-0.043,0.004-0.095,0.081-0.127-0.006c-0.024-0.064-0.089-0.113-0.071-0.192C260.447,7.788,260.463,7.772,260.508,7.784z"/>
							<path fill="#D4C46D" d="M260.261,9.018c0.001-0.053,0.01-0.109-0.076-0.103c-0.023,0.001-0.034-0.051-0.072-0.045
								c-0.021-0.02-0.051-0.028-0.067-0.055c-0.003-0.02,0-0.038,0.01-0.056c0.033-0.02,0.078-0.005,0.106-0.038
								c0.124,0.062,0.15,0.172,0.148,0.296C260.294,9.018,260.278,9.018,260.261,9.018z"/>
							<path fill="#D5C378" d="M259.62,8.92c-0.016,0-0.033,0-0.049,0c0.012-0.156,0.076-0.284,0.197-0.395
								c0.058,0.063,0.035,0.123-0.007,0.181c-0.004,0.017-0.045,0.003-0.031,0.028c0.009,0.015,0.038,0.019,0.052,0.037
								c0.006,0.02,0.005,0.041-0.003,0.06C259.733,8.874,259.659,8.866,259.62,8.92z"/>
							<path fill="#9C8869" d="M259.077,11.388c0-0.082,0-0.165,0-0.247c0.037,0.051,0.133,0.015,0.148,0.099
								c0.036,0.049,0.033,0.099,0,0.148C259.175,11.388,259.126,11.388,259.077,11.388z"/>
							<path fill="#9F9A92" d="M260.409,11.536c0.001-0.042,0.076-0.079,0.003-0.131c-0.019-0.013-0.003-0.076-0.003-0.116
								c0.033-0.016,0.066-0.033,0.099-0.049c0.076,0.022,0.073,0.084,0.075,0.144c0.013,0.07-0.034,0.109-0.075,0.152
								C260.475,11.536,260.442,11.536,260.409,11.536z"/>
							<path fill="#948260" d="M259.64,11.343c0.048-0.008,0.072,0.003,0.077,0.026c0.009,0.044,0,0.086,0.033,0.132
								c0.043,0.06,0.009,0.094-0.071,0.086c-0.025-0.003-0.056-0.006-0.057-0.028c-0.002-0.055,0.004-0.11-0.05-0.147
								C259.599,11.384,259.626,11.357,259.64,11.343z"/>
							<path fill="#4C6492" d="M260.903,10.055c0.002,0.024-0.011,0.054-0.031,0.039c-0.077-0.056-0.185-0.079-0.216-0.187
								c0.066,0,0.132,0,0.197,0C260.861,9.96,260.927,9.992,260.903,10.055z"/>
							<path fill="#867964" d="M260.558,11.388c0.024-0.063-0.042-0.096-0.049-0.148c0.048-0.107,0.14-0.028,0.209-0.047
								c0.021-0.006,0.039,0.016,0.039,0.047c0,0.03-0.015,0.05-0.039,0.048c-0.074-0.005-0.135-0.002-0.11,0.1
								C260.59,11.403,260.574,11.403,260.558,11.388z"/>
							<path fill="#A28452" d="M259.916,7.735c0-0.032,0.001-0.063,0-0.095c-0.002-0.061,0.041-0.053,0.079-0.054
								c0.031,0,0.072-0.003,0.067,0.04c-0.006,0.056,0.022,0.096,0.042,0.142c0.001,0.002-0.01,0.01-0.016,0.016
								c-0.001-0.033-0.039,0.029-0.024,0C259.992,7.834,259.947,7.806,259.916,7.735z"/>
							<path fill="#D4A452" d="M259.57,7.636c0.013,0.005,0.039,0.012,0.039,0.016c-0.01,0.1,0.064,0.182,0.06,0.281
								c-0.032,0-0.064,0.001-0.096-0.001c-0.014-0.001-0.028-0.009-0.042-0.014c0.107-0.088-0.081-0.193,0.016-0.281
								C259.551,7.633,259.562,7.636,259.57,7.636z"/>
							<path fill="#9BB2D0" d="M259.718,8.722c0-0.039-0.008-0.08,0.033-0.108c0.033-0.023,0.01-0.06,0.017-0.09
								c0-0.016,0-0.033,0-0.049c0.19-0.035,0.135,0.101,0.137,0.197C259.863,8.766,259.798,8.771,259.718,8.722z"/>
							<path fill="#8C7C61" d="M258.188,9.512c-0.033,0-0.066,0-0.099,0c-0.015-0.011-0.025-0.025-0.03-0.043
								c0-0.009,0-0.017,0-0.026c0.003-0.008,0.006-0.016,0.008-0.023c0.007-0.012,0.011-0.018,0.011-0.018
								c-0.016-0.005-0.029-0.014-0.041-0.026c-0.016-0.026-0.022-0.053-0.02-0.083c0.017-0.028,0.037-0.048,0.072-0.028
								c0.033,0,0.066,0,0.099,0c0.036,0.066,0.037,0.132,0,0.197C258.188,9.479,258.188,9.496,258.188,9.512z"/>
							<path fill="#9F9078" d="M257.99,9.068c-0.023-0.051-0.016-0.104-0.002-0.15c0.012-0.038,0.023-0.061,0.051-0.021
								c0.026,0.038,0.105-0.003,0.099,0.072c0.029,0.033,0.029,0.066,0,0.099c-0.016,0-0.033,0-0.049,0
								C258.056,9.097,258.023,9.097,257.99,9.068z"/>
							<path fill="#9E7C47" d="M259.349,7.977c-0.02,0.007-0.055,0.058-0.057,0.041c-0.011-0.1-0.124-0.085-0.156-0.152
								c-0.009-0.018-0.008-0.046-0.001-0.065c0.011-0.029,0.051-0.026,0.063-0.016c0.055,0.048,0.104,0.103,0.158,0.153
								C259.374,7.955,259.378,7.962,259.349,7.977z"/>
							<path fill="#C9A05A" d="M260.064,11.339c0,0.066,0,0.132,0,0.197c-0.066,0.017-0.11-0.02-0.14-0.068
								c-0.04-0.063,0.005-0.122,0.092-0.129C260.031,11.338,260.048,11.339,260.064,11.339z"/>
							<path fill="#B8B7B5" d="M258.78,11.24c-0.039,0-0.079-0.005-0.117,0.001c-0.087,0.013-0.083-0.042-0.08-0.1
								c0.004-0.009,0.008-0.018,0.012-0.027c0.013-0.015,0.028-0.028,0.046-0.038c0.027-0.014,0.056-0.02,0.087-0.015
								c0.02,0.004,0.039,0.01,0.057,0.018c0.013,0.016,0.021,0.033,0.025,0.053c0.006,0.019,0.008,0.039,0.006,0.059
								c-0.004,0.009-0.008,0.018-0.012,0.028C258.796,11.227,258.788,11.234,258.78,11.24z"/>
							<path fill="#A88F65" d="M259.916,7.735c0.052,0.007,0.085,0.074,0.148,0.049c0.004,0.029-0.001,0.067,0.015,0.086
								c0.037,0.042,0.04,0.06-0.021,0.062c-0.031,0.001-0.062,0-0.093,0C259.885,7.882,259.847,7.822,259.916,7.735z"/>
							<path fill="#BA9351" d="M258.04,10.006c0.016,0,0.033,0,0.049,0c-0.004,0.049,0.056,0.067,0.053,0.125
								c-0.003,0.073-0.037,0.073-0.09,0.074c-0.056,0.001-0.057-0.029-0.065-0.074C257.977,10.072,258.043,10.055,258.04,10.006z"
								/>
							<path fill="#9F9F9F" d="M258.237,8.772c-0.016,0.095-0.089,0.036-0.135,0.048c-0.031,0.008-0.063,0.001-0.063-0.047
								c0-0.046,0.028-0.048,0.062-0.051c0.025-0.003,0.043-0.018,0.038-0.048C258.22,8.657,258.254,8.689,258.237,8.772z"/>
							<path fill="#A59276" d="M261.347,8.525c-0.017-0.066,0.02-0.11,0.069-0.14c0.036-0.022,0.078-0.016,0.079,0.044
								c0.001,0.048,0,0.097,0,0.145c-0.008,0.006-0.016,0.012-0.023,0.018c-0.01-0.001-0.02-0.002-0.029-0.003
								c-0.019-0.007-0.037-0.014-0.054-0.023c-0.008-0.006-0.016-0.012-0.023-0.018C261.359,8.541,261.353,8.533,261.347,8.525z"/>
							<path fill="#A2875D" d="M258.237,8.772c-0.012-0.054-0.045-0.087-0.099-0.099c0.009-0.099,0.009-0.099,0.148-0.099
								c0.025,0.022,0.042,0.047,0.046,0.081c-0.002,0.021-0.007,0.042-0.014,0.062c-0.007,0.02-0.017,0.038-0.032,0.054
								C258.27,8.772,258.254,8.772,258.237,8.772z"/>
							<path fill="#BFD3A9" d="M259.866,8.673c0-0.039-0.005-0.079,0.001-0.117c0.013-0.087-0.042-0.084-0.1-0.08
								c-0.001-0.034,0.015-0.051,0.049-0.049c0.097-0.1,0.104-0.1,0.148,0c-0.054,0.075-0.004,0.165-0.035,0.243
								C259.91,8.687,259.888,8.688,259.866,8.673z"/>
							<path fill="#AACCC8" d="M260.113,9.315c0.095,0,0.19,0,0.285,0c0.034,0,0.064-0.004,0.06-0.049
								c0.074,0.004,0.042,0.061,0.049,0.099c-0.132,0-0.263,0-0.395,0C260.113,9.348,260.113,9.331,260.113,9.315z"/>
							<path fill="#B4CFC2" d="M259.718,9.364c-0.132,0-0.263,0-0.395,0c0.007-0.037-0.024-0.095,0.049-0.099
								c-0.004,0.048,0.029,0.049,0.063,0.049c0.081,0,0.163-0.002,0.244,0.001C259.705,9.316,259.724,9.333,259.718,9.364z"/>
							<path fill="#E8DA88" d="M259.965,8.426c-0.012-0.068-0.048-0.06-0.093-0.031c-0.018,0.012-0.037,0.021-0.055,0.031
								c-0.017-0.076,0.052-0.122,0.067-0.201c0.059,0.064,0.147,0.096,0.131,0.201C259.998,8.426,259.982,8.426,259.965,8.426z"/>
							<path fill="#776D5C" d="M258.188,10.549c-0.021-0.113-0.132-0.082-0.207-0.121c0.074-0.046,0.147-0.026,0.215-0.024
								c0.064,0.002,0.08,0.068,0.041,0.146C258.221,10.579,258.204,10.579,258.188,10.549z"/>
							<path fill="#988B75" d="M258.83,7.932c0,0.066,0,0.132,0,0.197c-0.005,0.007-0.01,0.013-0.015,0.02
								c-0.015,0.008-0.031,0.011-0.047,0.011c-0.018-0.004-0.03-0.014-0.037-0.03c0-0.039,0.005-0.079-0.001-0.117
								C258.717,7.925,258.772,7.929,258.83,7.932z"/>
							<path fill="#857B6C" d="M260.261,11.339c-0.03-0.006-0.067,0.017-0.09-0.017c-0.028-0.041-0.069-0.033-0.108-0.033
								c0.081-0.071,0.166-0.071,0.247,0C260.312,11.324,260.296,11.34,260.261,11.339z"/>
							<path fill="#937C56" d="M259.718,7.883c0.047-0.058,0.055-0.126,0.049-0.197c0.037,0.007,0.095-0.024,0.099,0.049
								c0.053,0.072,0.004,0.111-0.049,0.148C259.784,7.883,259.751,7.883,259.718,7.883z"/>
							<path fill="#9F8C6F" d="M258.089,9.265c-0.034-0.001-0.051,0.015-0.049,0.049c-0.016,0.024-0.033,0.024-0.049,0
								c-0.03-0.006-0.067,0.016-0.089-0.016c-0.029-0.043,0-0.072,0.031-0.099c0.017-0.015,0.028-0.041,0.058-0.034
								c0.044-0.005,0.072,0.021,0.099,0.049C258.089,9.232,258.089,9.249,258.089,9.265z"/>
							<path fill="#AB8F60" d="M258.089,9.216c-0.037-0.007-0.095,0.024-0.099-0.049c-0.01-0.018-0.018-0.037-0.03-0.054
								c-0.031-0.043,0.003-0.041,0.03-0.045c0.033,0,0.066,0,0.099,0C258.089,9.117,258.089,9.167,258.089,9.216z"/>
							<path fill="#B1AEA8" d="M260.558,11.388c0.016,0,0.033,0,0.049,0c0.061,0.003,0.061,0.046,0.04,0.081
								c-0.029,0.048-0.074,0.084-0.139,0.067C260.484,11.473,260.55,11.441,260.558,11.388z"/>
							<path fill="#7B7367" d="M261.003,8.33c-0.064-0.034-0.111-0.056-0.155-0.084c-0.016-0.01-0.037-0.038-0.033-0.05
								c0.01-0.028,0.042-0.019,0.064-0.014c0.014,0.003,0.022,0.029,0.036,0.032C260.998,8.236,260.998,8.235,261.003,8.33z"/>
							<path fill="#9F9077" d="M258.675,8.175c-0.047,0.011-0.145-0.045-0.134-0.063c0.018-0.031,0.047-0.063,0.079-0.078
								c0.028-0.013,0.069,0,0.061,0.047C258.675,8.114,258.704,8.156,258.675,8.175z"/>
							<path fill="#9E8E74" d="M260.508,7.784c-0.034-0.001-0.051,0.015-0.049,0.049c-0.016,0-0.033,0-0.049,0
								c-0.031-0.002-0.035-0.031-0.049-0.049c-0.009-0.066,0.003-0.105,0.086-0.101C260.529,7.687,260.504,7.741,260.508,7.784z"/>
							<path fill="#9E7C47" d="M261.693,9.117c0.004,0.046-0.028,0.046-0.061,0.05c-0.025,0.003-0.043,0.018-0.037,0.048
								c-0.088-0.032-0.062-0.1-0.024-0.14C261.587,9.058,261.677,9.027,261.693,9.117z"/>
							<path fill="#A38759" d="M258.138,9.068c0-0.033,0-0.066,0-0.099c0.063,0,0.125,0,0.192,0
								C258.296,9.085,258.213,9.067,258.138,9.068z"/>
							<path fill="#979187" d="M260.36,7.784c0.034-0.001,0.051,0.015,0.049,0.049c0.024,0.04-0.092,0.056-0.017,0.11
								c0.037,0.026-0.008,0.036-0.023,0.037c-0.03,0.002-0.066,0.005-0.091-0.008c-0.041-0.023,0.009-0.032,0.016-0.048
								C260.316,7.877,260.338,7.831,260.36,7.784z"/>
							<path fill="#A08150" d="M258.83,8.13c0.049,0.019,0.125-0.046,0.148,0.049c-0.058,0.047-0.126,0.055-0.197,0.049
								c-0.007-0.007-0.013-0.013-0.02-0.02c0.001-0.009,0.002-0.019,0.003-0.028c0.006-0.007,0.013-0.014,0.019-0.021
								C258.8,8.152,258.816,8.143,258.83,8.13z"/>
							<path fill="#EED361" d="M258.83,10.154c0,0.016,0,0.033,0,0.049c0.037,0.088,0,0.142-0.082,0.174
								c-0.026,0.002-0.048-0.006-0.066-0.025C258.733,10.287,258.726,10.179,258.83,10.154z"/>
							<path fill="#F0D669" d="M258.928,10.055c-0.016,0-0.033,0-0.049,0c0.019-0.131,0.061-0.187,0.148-0.197
								c0,0.016,0,0.033,0,0.049C259.034,9.983,259.009,10.038,258.928,10.055z"/>
							<path fill="#8C8B84" d="M259.817,7.883c0.007-0.052,0.074-0.085,0.049-0.148c0.016,0,0.033,0,0.049,0
								c-0.006,0.071,0.003,0.139,0.049,0.197C259.902,7.957,259.87,7.89,259.817,7.883z"/>
							<path fill="#D1C280" d="M258.682,10.351c0.016,0,0.033,0,0.049,0c0.026,0.02,0.036,0.047,0.035,0.079
								c-0.004,0.031-0.018,0.057-0.042,0.078c-0.015,0.013-0.029,0.027-0.043,0.041c-0.033-0.016-0.066-0.033-0.099-0.049
								C258.616,10.45,258.649,10.401,258.682,10.351z"/>
							<path fill="#A0865B" d="M259.283,11.504c0.072-0.004,0.153-0.051,0.212,0.032c0.007,0.01,0.011,0.022,0.017,0.034
								c-0.014,0.005-0.035,0.019-0.04,0.015C259.417,11.537,259.345,11.541,259.283,11.504z"/>
							<path fill="#937C56" d="M258.138,9.956c0-0.033,0-0.066,0-0.099c0.03,0.006,0.073-0.018,0.087,0.017
								c0.013,0.033,0.02,0.087,0.002,0.111C258.191,10.033,258.181,9.933,258.138,9.956z"/>
							<path fill="#8A7757" d="M259.225,11.388c0-0.049,0-0.099,0-0.148c0.04,0,0.082-0.006,0.12,0.002
								c0.026,0.005,0.021,0.05,0.004,0.044C259.248,11.253,259.305,11.405,259.225,11.388z"/>
							<path fill="#A9987D" d="M258.188,9.463c0-0.066,0-0.132,0-0.197c-0.002-0.024,0.017-0.054,0.03-0.04
								c0.046,0.051,0.01,0.118,0.019,0.178C258.241,9.437,258.231,9.466,258.188,9.463z"/>
							<path fill="#C9A976" d="M260.706,7.883c0.037,0.051,0.133,0.015,0.148,0.099c-0.016,0.031-0.033,0.031-0.049,0
								c-0.016,0-0.033,0-0.049,0c-0.008,0.007-0.016,0.014-0.024,0.021c-0.01-0.002-0.021-0.005-0.031-0.007
								c-0.013-0.017-0.021-0.037-0.024-0.058C260.679,7.916,260.689,7.898,260.706,7.883z"/>
							<path fill="#B48B48" d="M258.533,10.944c0.033-0.016,0.066-0.033,0.099-0.049c0.016,0.014,0.026,0.031,0.031,0.052
								c-0.001,0.01-0.003,0.021-0.004,0.031c-0.005,0.009-0.011,0.018-0.016,0.027c-0.017,0.012-0.036,0.019-0.058,0.02
								c-0.021-0.004-0.038-0.015-0.052-0.03C258.533,10.977,258.533,10.96,258.533,10.944z"/>
							<path fill="#CC9E4E" d="M260.656,8.031c0-0.016,0-0.033,0-0.049c0.008-0.006,0.016-0.013,0.025-0.019
								c0.008,0.006,0.016,0.013,0.025,0.019c0.019,0.014,0.033,0.033,0.049,0.049c0.004,0.046-0.028,0.052-0.061,0.048
								C260.669,8.077,260.651,8.061,260.656,8.031z"/>
							<path fill="#9E9D9B" d="M258.632,10.993c0-0.016,0-0.033,0-0.049c0.02-0.013,0.018-0.048,0.049-0.049
								c0.074,0.004,0.042,0.061,0.049,0.099C258.698,11.024,258.665,11.019,258.632,10.993z"/>
							<path fill="#F0EFEF" d="M257.99,9.315c0.016,0,0.033,0,0.049,0c-0.001,0.034,0.015,0.051,0.049,0.049
								c0.011,0.011,0.014,0.022,0.011,0.033c-0.004,0.011-0.007,0.016-0.011,0.016c-0.021,0.026-0.047,0.031-0.078,0.021
								c-0.007-0.007-0.014-0.014-0.021-0.021C257.99,9.38,257.99,9.348,257.99,9.315z"/>
							<path fill="#A4957D" d="M258.188,10.796c-0.046,0.004-0.052-0.028-0.048-0.061c0.003-0.025,0.018-0.043,0.048-0.037
								c0.016-0.031,0.033-0.031,0.049,0c0.007,0.009,0.013,0.019,0.02,0.028c-0.004,0.011-0.008,0.022-0.012,0.032
								C258.225,10.769,258.206,10.782,258.188,10.796z"/>
							<path fill="#6E685F" d="M258.287,8.673c0-0.033,0-0.066,0-0.099c0-0.016,0-0.033,0-0.049
								c0.034-0.001,0.051,0.015,0.049,0.049c0.016,0.014,0.026,0.032,0.03,0.053c-0.003,0.01-0.005,0.02-0.008,0.031
								c-0.006,0.009-0.012,0.017-0.018,0.026C258.319,8.695,258.301,8.691,258.287,8.673z"/>
							<path fill="#C4A471" d="M258.336,10.697c0.054,0.012,0.087,0.045,0.099,0.099c-0.028,0.027-0.06,0.025-0.094,0.016
								c-0.017-0.015-0.028-0.034-0.034-0.057C258.31,10.733,258.319,10.713,258.336,10.697z"/>
							<path fill="#907241" d="M258.682,10.894c0.001,0.034-0.015,0.051-0.049,0.049c0-0.016,0-0.033,0-0.049s0-0.033,0-0.049
								C258.666,10.844,258.683,10.86,258.682,10.894z"/>
							<path fill="#948260" d="M258.336,10.746c0,0.016,0,0.033,0,0.049c0.031,0.016,0.031,0.033,0,0.049
								c-0.034,0.001-0.051-0.015-0.049-0.049c-0.012-0.011-0.016-0.022-0.013-0.034s0.006-0.018,0.01-0.018
								C258.302,10.73,258.319,10.73,258.336,10.746z"/>
							<path fill="#85837D" d="M258.78,11.092c-0.016,0-0.033,0-0.049,0c-0.006-0.008-0.011-0.016-0.017-0.025
								c0.006-0.008,0.011-0.016,0.017-0.025c0.037,0.007,0.095-0.024,0.099,0.049C258.813,11.116,258.797,11.116,258.78,11.092z"/>
							<path fill="#DFDFDF" d="M261.249,10.944c-0.033,0-0.066,0-0.099,0c0.004-0.074,0.061-0.042,0.099-0.049
								c0.015,0.011,0.021,0.022,0.015,0.033C261.259,10.938,261.254,10.944,261.249,10.944z"/>
							<path fill="#ADAAA4" d="M260.706,7.883c0,0.016,0,0.033,0,0.049c-0.013,0.015-0.029,0.023-0.049,0.023
								c-0.019-0.002-0.036-0.01-0.05-0.023c0-0.016,0-0.033,0-0.049c0.016-0.019,0.033-0.019,0.049,0
								C260.673,7.883,260.689,7.883,260.706,7.883z"/>
							<path fill="#988B75" d="M258.83,11.289c0.001,0.024-0.003,0.047-0.033,0.039c-0.008-0.002-0.013-0.026-0.016-0.04
								c-0.003-0.016-0.001-0.032-0.001-0.048c0.009-0.007,0.018-0.013,0.028-0.02c0.011,0.004,0.021,0.008,0.032,0.013
								C258.853,11.255,258.85,11.273,258.83,11.289z"/>
							<path fill="#D4CEC6" d="M258.632,10.993c0.033,0,0.066,0,0.099,0c0,0.016,0,0.033,0,0.049c-0.027,0.03-0.057,0.03-0.09,0.011
								c-0.012-0.012-0.017-0.025-0.016-0.039C258.627,11,258.629,10.993,258.632,10.993z"/>
							<path fill="#D4A451" d="M261.347,8.574c-0.016,0-0.033,0-0.049,0c-0.024,0.001-0.047-0.003-0.039-0.033
								c0.002-0.008,0.026-0.013,0.04-0.016c0.016-0.003,0.032-0.001,0.048-0.001c0.006,0.008,0.012,0.016,0.019,0.025
								C261.36,8.558,261.354,8.566,261.347,8.574z"/>
							<path fill="#FFFFFF" d="M258.336,8.673c0-0.016,0-0.033,0-0.049c0.033-0.031,0.066-0.028,0.099,0
								c0.001,0.034-0.015,0.051-0.049,0.049C258.369,8.695,258.352,8.695,258.336,8.673z"/>
							<path fill="#8B806F" d="M258.533,11.092c0-0.016,0-0.033,0-0.049c0.009-0.007,0.017-0.015,0.026-0.023
								c0.01,0.005,0.02,0.01,0.031,0.015c0.004,0.01,0.009,0.021,0.013,0.031c-0.004,0.011-0.007,0.022-0.011,0.032
								C258.571,11.112,258.551,11.11,258.533,11.092z"/>
							<path fill="#DFDFDF" d="M258.533,11.092c0.016,0,0.033,0,0.049,0c0.012,0.011,0.017,0.022,0.012,0.033
								c-0.004,0.011-0.008,0.016-0.012,0.016C258.549,11.143,258.532,11.126,258.533,11.092z"/>
							<path fill="#90764B" d="M258.78,11.092c0.016,0,0.033,0,0.049,0c0,0.016,0,0.033,0,0.049
								c-0.008,0.006-0.016,0.012-0.025,0.019c-0.008-0.006-0.016-0.012-0.025-0.019C258.78,11.125,258.78,11.108,258.78,11.092z"/>
							<path fill="#90764B" d="M260.952,11.117c-0.011,0.005-0.022,0.013-0.033,0.015c-0.004,0.001-0.011-0.01-0.016-0.015
								c0.011-0.005,0.022-0.013,0.033-0.015C260.94,11.1,260.947,11.111,260.952,11.117z"/>
							<path fill="#887B66" d="M258.83,11.141c0.016,0,0.033,0,0.049,0c0.012,0.011,0.017,0.022,0.012,0.033
								c-0.004,0.011-0.008,0.016-0.012,0.016c-0.017,0.016-0.034,0.016-0.052,0.003C258.813,11.175,258.814,11.158,258.83,11.141z"
								/>
							<path fill="#FFFFFF" d="M258.879,11.191c0-0.016,0-0.033,0-0.049c0.034-0.001,0.051,0.015,0.049,0.049
								C258.912,11.191,258.895,11.191,258.879,11.191z"/>
							<path fill="#4E4B46" d="M260.656,7.883c-0.016,0-0.033,0-0.049,0c0-0.016,0-0.033,0-0.049
								C260.641,7.832,260.658,7.849,260.656,7.883z"/>
							<path fill="#937C56" d="M260.97,11.233c-0.007-0.007-0.012-0.012-0.018-0.018c0.011-0.005,0.022-0.013,0.033-0.015
								c0.004-0.001,0.011,0.01,0.016,0.015C260.991,11.221,260.98,11.227,260.97,11.233z"/>
							<path fill="#FFFFFF" d="M258.83,11.289c0-0.016,0-0.033,0-0.049c0.016-0.021,0.033-0.021,0.049,0c0,0.016,0,0.033,0,0.049
								C258.863,11.289,258.846,11.289,258.83,11.289z"/>
							<path fill="#482B7E" d="M259.57,9.018c-0.016,0-0.033,0-0.049,0c-0.001-0.034,0.015-0.051,0.049-0.049
								c0.012,0.011,0.017,0.022,0.012,0.033C259.578,9.013,259.574,9.018,259.57,9.018z"/>
							<path fill="#FFFFFF" d="M257.99,9.512c-0.016,0-0.033,0-0.049,0c0-0.016,0-0.033,0-0.049
								c0.015-0.016,0.031-0.016,0.049-0.004C258,9.477,258,9.494,257.99,9.512z"/>
							<path fill="#505050" d="M261.446,8.574c0.016,0,0.033,0,0.049,0c0.001,0.034-0.015,0.051-0.049,0.049
								c-0.012-0.011-0.017-0.022-0.012-0.033C261.438,8.58,261.442,8.574,261.446,8.574z"/>
							<path fill="#CFCFCF" d="M257.99,9.463c-0.016,0-0.033,0-0.049,0c-0.001-0.034,0.015-0.051,0.049-0.049
								c0.006,0.008,0.012,0.016,0.019,0.025C258.003,9.446,257.997,9.455,257.99,9.463z"/>
							<path fill="#948260" d="M258.336,8.673c0.016,0,0.033,0,0.049,0c0.001,0.034-0.015,0.051-0.049,0.049
								c-0.008-0.008-0.015-0.016-0.023-0.025C258.321,8.689,258.328,8.681,258.336,8.673z"/>
							<path fill="#937C56" d="M258.287,8.772c0-0.016,0-0.033,0-0.049c0.016-0.02,0.033-0.02,0.049,0
								C258.337,8.756,258.321,8.773,258.287,8.772z"/>
							<path fill="#D4A451" d="M258.78,8.229c0.002,0.024-0.003,0.046-0.033,0.039c-0.008-0.002-0.011-0.025-0.017-0.039
								c0.008-0.007,0.016-0.014,0.025-0.021C258.764,8.215,258.772,8.222,258.78,8.229z"/>
							<path fill="#E1AE58" d="M258.682,8.179c0.016,0,0.033,0,0.049,0c0.008,0.008,0.015,0.016,0.023,0.025
								c-0.008,0.008-0.015,0.016-0.023,0.025C258.697,8.23,258.68,8.213,258.682,8.179z"/>
							<path fill="#D4A451" d="M258.583,11.043c-0.016,0-0.033,0-0.049,0c0-0.016,0-0.033,0-0.049c0.016,0,0.033,0,0.049,0
								c0.015,0.011,0.02,0.022,0.015,0.033C258.593,11.037,258.588,11.043,258.583,11.043z"/>
							<path fill="#D4A451" d="M261.298,10.944c0.024-0.002,0.046,0.003,0.039,0.033c-0.002,0.008-0.026,0.011-0.039,0.017
								c-0.007-0.008-0.014-0.016-0.021-0.025C261.284,10.96,261.291,10.952,261.298,10.944z"/>
							<path fill="#8E6D37" d="M261.249,10.944c0-0.016,0-0.033,0-0.049c0.034-0.001,0.051,0.015,0.049,0.049
								C261.282,10.961,261.265,10.961,261.249,10.944z"/>
							<path fill="#EFEFEF" d="M258.287,10.746c0,0.016,0,0.033,0,0.049c-0.016,0-0.033,0-0.049,0
								c-0.012-0.011-0.017-0.022-0.012-0.033c0.004-0.011,0.008-0.016,0.012-0.016c0.008-0.008,0.016-0.015,0.025-0.023
								C258.27,10.731,258.278,10.739,258.287,10.746z"/>
							<path fill="#756241" d="M258.237,10.746c0,0.016,0,0.033,0,0.049c-0.016,0-0.033,0-0.049,0
								C258.187,10.762,258.203,10.745,258.237,10.746z"/>
							<path fill="#B0AFAF" d="M258.336,10.746c-0.016,0-0.033,0-0.049,0c-0.014-0.011-0.019-0.022-0.014-0.033
								s0.01-0.016,0.014-0.016c0.016,0,0.033,0,0.049,0C258.336,10.713,258.336,10.73,258.336,10.746z"/>
							<path fill="#3D3A36" d="M258.287,10.697c0,0.016,0,0.033,0,0.049c-0.016,0-0.033,0-0.049,0c0-0.016,0-0.033,0-0.049
								C258.254,10.697,258.27,10.697,258.287,10.697z"/>
							<path fill="#FFFFFF" d="M258.237,10.697c-0.016,0-0.033,0-0.049,0c0-0.016,0-0.033,0-0.049c0.016-0.03,0.033-0.03,0.049,0
								C258.237,10.664,258.237,10.681,258.237,10.697z"/>
							<path fill="#A4957D" d="M258.237,10.648c-0.016,0-0.033,0-0.049,0c0-0.016,0-0.033,0-0.049c0.016-0.02,0.033-0.02,0.049,0
								C258.237,10.615,258.237,10.631,258.237,10.648z"/>
							<path fill="#907241" d="M258.237,10.598c-0.016,0-0.033,0-0.049,0c0-0.016,0-0.033,0-0.049c0.016,0,0.033,0,0.049,0
								C258.237,10.565,258.237,10.582,258.237,10.598z"/>
							<path fill="#90764B" d="M260.755,8.031c-0.034,0.001-0.051-0.015-0.049-0.049c0.016,0,0.033,0,0.049,0
								C260.755,7.998,260.755,8.015,260.755,8.031z"/>
							<path fill="#A98240" d="M260.804,7.982c0.016,0,0.033,0,0.049,0c0,0.016,0,0.033,0,0.049c-0.016,0.015-0.033,0.015-0.049,0
								C260.804,8.015,260.804,7.998,260.804,7.982z"/>
							<path fill="#CC9E4E" d="M260.804,8.031c0.016,0,0.033,0,0.049,0c0.002,0.024-0.003,0.046-0.033,0.039
								C260.813,8.068,260.81,8.045,260.804,8.031z"/>
							<path fill="#DFDFDF" d="M258.731,8.13c0.016,0,0.033,0,0.049,0c0.012,0.011,0.017,0.022,0.012,0.033
								c-0.004,0.011-0.008,0.016-0.012,0.016c-0.016,0.02-0.033,0.02-0.049,0C258.731,8.163,258.731,8.146,258.731,8.13z"/>
							<path fill="#909487" d="M258.682,10.549c0-0.016,0-0.033,0-0.049c0.102-0.073,0.219-0.079,0.339-0.074
								c0.102,0,0.203,0,0.305,0c0.159,0,0.317,0,0.476,0c0.072,0,0.144,0,0.216,0c0.088-0.001,0.176,0.001,0.264,0
								c0.174,0.025,0.365-0.061,0.523,0.073c0.079,0,0.158,0,0.237,0c0.034,0,0.063-0.005,0.06-0.049
								c0.075,0.019,0.069,0.072,0.019,0.094c-0.048,0.021-0.113,0.005-0.17,0.005C260.193,10.549,259.437,10.549,258.682,10.549z"
								/>
							<path fill="#259D47" d="M259.669,10.105c0.006,0.031-0.013,0.048-0.039,0.048c-0.221,0.002-0.442,0.002-0.663,0
								c-0.025,0-0.044-0.017-0.039-0.048c0.056-0.098,0.154-0.145,0.247-0.197c-0.002-0.048,0.042-0.063,0.068-0.09
								c0.018-0.019,0.032-0.062,0.065-0.046c0.033,0.016,0.01,0.057,0.016,0.087c0.056,0.051,0.098,0.12,0.184,0.128
								C259.574,10.008,259.639,10.033,259.669,10.105z"/>
							<path fill="#A8CDCC" d="M259.718,9.463c0.074,0.004,0.042,0.061,0.049,0.099c-0.01,0.107-0.099,0.168-0.148,0.252
								c-0.043,0.058-0.09,0.11-0.165,0.125c-0.048-0.006-0.102-0.006-0.081-0.081C259.457,9.699,259.633,9.621,259.718,9.463z"/>
							<path fill="#436093" d="M259.175,9.907c-0.045,0.112-0.149,0.151-0.247,0.197c0-0.016,0-0.033,0-0.049
								c0.051-0.037,0.015-0.133,0.099-0.148C259.077,9.907,259.126,9.907,259.175,9.907z"/>
							<path fill="#D0C55E" d="M259.373,9.858c0.004,0.074,0.061,0.042,0.099,0.049c0.043,0.049,0.039,0.099,0,0.148
								c-0.137-0.02-0.146-0.032-0.148-0.197C259.34,9.858,259.356,9.858,259.373,9.858z"/>
							<path fill="#A8CDCC" d="M260.113,9.463c0.075,0.127,0.195,0.214,0.296,0.317c0.038,0.039,0.057,0.075,0.05,0.127
								c-0.1,0.069-0.162-0.002-0.227-0.061c-0.046-0.122-0.198-0.184-0.193-0.336C260.048,9.471,260.068,9.446,260.113,9.463z"/>
							<path fill="#379F48" d="M260.261,9.808c0.048-0.002,0.066,0.041,0.09,0.068c0.032,0.037,0.069,0.03,0.108,0.031
								c0.02,0.131,0.061,0.187,0.148,0.197c0.006,0.03-0.013,0.048-0.038,0.048c-0.258,0.002-0.517-0.003-0.775,0.004
								c-0.057,0.002-0.076-0.056-0.125-0.052c-0.039,0-0.08,0.008-0.108-0.033c-0.023-0.033-0.06-0.01-0.09-0.017
								c0-0.049,0-0.099,0-0.148c0.033-0.049,0.066-0.099,0.099-0.148c0.13-0.021,0.092,0.107,0.14,0.158
								c0.038,0.019,0.074,0.021,0.107-0.01c0.034,0.001,0.051-0.015,0.049-0.049c0.015-0.016,0.034-0.026,0.056-0.031
								c0.072,0.007,0.145,0.019,0.213-0.023C260.178,9.788,260.22,9.779,260.261,9.808z"/>
							<path fill="#405FA7" d="M260.014,10.5c-0.066,0-0.132,0-0.197,0c-0.016-0.015-0.025-0.034-0.026-0.055
								c0.042-0.119-0.124-0.044-0.121-0.127c-0.011-0.021-0.01-0.043-0.001-0.065c0.106,0.025,0.191-0.066,0.299-0.052
								c0.096,0.012,0.196,0.003,0.294,0.003c0.059,0.049,0.191-0.004,0.186,0.133c-0.005,0.038-0.023,0.068-0.056,0.089
								c-0.011,0.004-0.022,0.008-0.032,0.012c-0.011,0.001-0.022,0.002-0.033,0.004c-0.072-0.007-0.139-0.039-0.211-0.041
								C260.067,10.419,260.051,10.47,260.014,10.5z"/>
							<path fill="#405FA6" d="M258.731,10.45c0-0.033,0-0.066,0-0.099c0.084-0.015,0.048-0.111,0.099-0.148
								c0.165,0,0.329,0,0.494,0c0.057,0.116-0.022,0.134-0.107,0.148c-0.024-0.003-0.047-0.011-0.067-0.024
								c-0.028-0.031-0.061-0.053-0.106-0.049c0.04-0.001,0.073,0.011,0.093,0.049C259.035,10.479,258.867,10.412,258.731,10.45z"/>
							<path fill="#5676B6" d="M259.175,10.302c0.023,0,0.047-0.003,0.07,0.001c0.088,0.015,0.08-0.045,0.078-0.099
								c0.033,0,0.066,0,0.099,0c0.026,0.023,0.061,0.032,0.08,0.063c0.015,0.034,0.016,0.068,0.006,0.103
								c-0.031,0.08-0.105,0.085-0.174,0.098c-0.067-0.019-0.142-0.026-0.176-0.102C259.152,10.342,259.158,10.32,259.175,10.302z"
								/>
							<path fill="#5A7AB8" d="M260.409,10.351c0.009-0.065-0.002-0.112-0.086-0.1c-0.033,0.005-0.066-0.001-0.062-0.049
								c0.09,0.019,0.188-0.039,0.273,0.046c0.042,0.042,0.072-0.051,0.122-0.046c0,0.033,0,0.066,0,0.099
								c0.004,0.102-0.071,0.101-0.14,0.108C260.473,10.405,260.437,10.385,260.409,10.351z"/>
							<path fill="#3D5CA5" d="M259.471,10.253c-0.034,0.001-0.051-0.015-0.049-0.049c0.063,0,0.125,0,0.188,0
								c0.034,0,0.062,0.006,0.059,0.049c0,0.016,0,0.033,0,0.049c-0.008,0.007-0.017,0.015-0.025,0.023
								C259.563,10.356,259.519,10.301,259.471,10.253z"/>
							<path fill="#91BFDA" d="M259.718,9.956c-0.077-0.026-0.065-0.107-0.098-0.161c-0.013-0.021-0.02-0.042-0.05-0.037
								c0.047-0.085,0.113-0.15,0.197-0.197c0.088,0.032,0.049,0.089,0.029,0.144c-0.024,0.068-0.094,0.118-0.079,0.201
								C259.749,9.924,259.749,9.94,259.718,9.956z"/>
							<path fill="#A43A43" d="M259.817,9.265c0.043-0.003,0.088-0.079,0.129,0.005c0.017,0.035,0.07,0.045,0.068,0.094
								c0.029,0.033,0.029,0.066,0,0.099c-0.07,0.013-0.135-0.024-0.142-0.08C259.867,9.329,259.809,9.315,259.817,9.265z"/>
							<path fill="#A6CBCD" d="M259.57,9.018c0-0.016,0-0.033,0-0.049c0.016,0,0.033,0,0.049,0c0.055,0.051,0.142,0.051,0.187,0.118
								c0.004,0.01,0.007,0.02,0.011,0.03c0,0.033,0,0.066,0,0.099c-0.033,0-0.066,0-0.099,0
								C259.701,9.126,259.588,9.108,259.57,9.018z"/>
							<path fill="#A7CCCC" d="M259.916,9.512c0.033,0,0.066,0,0.099,0c0.007,0.01,0.015,0.02,0.022,0.03
								c0.013,0.036,0.021,0.072,0.013,0.111c-0.036,0.063-0.014,0.194-0.156,0.132C259.899,9.694,259.868,9.6,259.916,9.512z"/>
							<path fill="#B4CDA5" d="M259.916,9.512c0,0.099,0,0.197,0,0.296c0.015,0.011,0.02,0.022,0.015,0.033
								c-0.005,0.011-0.01,0.016-0.015,0.016c-0.016,0-0.033,0-0.049,0c0-0.095,0-0.19,0-0.285
								C259.866,9.539,259.871,9.509,259.916,9.512z"/>
							<path fill="#91C0DC" d="M260.014,9.463c0-0.033,0-0.066,0-0.099c0.033,0,0.066,0,0.099,0c0,0.033,0,0.066,0,0.099
								c-0.034-0.001-0.051,0.015-0.049,0.049c-0.016,0.024-0.033,0.024-0.049,0C260.014,9.496,260.014,9.479,260.014,9.463z"/>
							<path fill="#3C5BA4" d="M259.718,9.956c0-0.016,0-0.033,0-0.049c0.033,0,0.066,0,0.099,0
								C259.813,9.981,259.756,9.949,259.718,9.956z"/>
							<path fill="#87B5E1" d="M259.965,9.018c0.053-0.021,0.097-0.074,0.163-0.049c0.022,0.008,0.04,0.021,0.034,0.049
								c-0.031,0.157-0.063,0.173-0.197,0.099C259.936,9.084,259.939,9.051,259.965,9.018z"/>
							<path fill="#91C4E8" d="M259.768,8.969c0.033,0,0.066,0,0.099,0c0.04,0.049,0.04,0.099,0,0.148c-0.016,0-0.033,0-0.049,0
								C259.779,9.075,259.729,9.037,259.768,8.969z"/>
							<path fill="#A7CCCC" d="M259.965,9.018c0,0.033,0,0.066,0,0.099c-0.016,0-0.033,0-0.049,0c-0.034-0.049-0.034-0.099,0-0.148
								C259.95,8.968,259.966,8.984,259.965,9.018z"/>
							<path fill="#C0D4A9" d="M259.916,8.969c0,0.049,0,0.099,0,0.148c-0.016,0-0.033,0-0.049,0c0-0.049,0-0.099,0-0.148
								C259.883,8.969,259.899,8.969,259.916,8.969z"/>
							<path fill="#5777B6" d="M260.508,10.351c0.049-0.019,0.125,0.046,0.148-0.049c0.068,0.009,0.134-0.062,0.207-0.002
								c0.024,0.02,0.086-0.018,0.089,0.048s-0.047,0.054-0.084,0.052c-0.084-0.005-0.06,0.055-0.063,0.1c-0.181,0-0.362,0-0.543,0
								c-0.028-0.055,0.003-0.081,0.049-0.099c0.016,0,0.033,0,0.049,0c0.029,0.029,0.061,0.008,0.092,0.007
								c0.032-0.001,0.061,0.015,0.092,0.014C260.51,10.409,260.487,10.392,260.508,10.351z"/>
							<path fill="#4AA949" d="M259.62,8.92c0.009-0.099,0.009-0.099,0.148-0.099c0.099-0.074,0.197-0.074,0.296,0
								c0.034-0.001,0.051,0.015,0.049,0.049c-0.09,0-0.18,0-0.269,0C259.765,8.87,259.704,8.946,259.62,8.92z"/>
							<path fill="#86B5E2" d="M259.768,8.969c0.007,0.052,0.074,0.085,0.049,0.148c-0.108,0.007-0.154-0.069-0.197-0.148
								C259.669,8.969,259.718,8.969,259.768,8.969z"/>
							<path fill="#473923" d="M261.446,8.574c0,0.016,0,0.033,0,0.049c-0.016,0-0.033,0-0.049,0
								c-0.012-0.011-0.016-0.022-0.013-0.034s0.006-0.018,0.01-0.018C261.412,8.558,261.43,8.558,261.446,8.574z"/>
							<path fill="#FFFFFF" d="M261.397,8.574c0,0.016,0,0.033,0,0.049c-0.034,0.001-0.051-0.015-0.049-0.049
								c0.008-0.008,0.016-0.015,0.025-0.023C261.38,8.559,261.389,8.566,261.397,8.574z"/>
							<path fill="#505050" d="M258.879,11.24c-0.016,0-0.033,0-0.049,0c-0.008-0.008-0.015-0.016-0.023-0.025
								c0.008-0.008,0.015-0.016,0.023-0.025c0.016,0,0.033,0,0.049,0C258.879,11.207,258.879,11.224,258.879,11.24z"/>
							<path fill="#ADA9A2" d="M257.99,9.512c0-0.016,0-0.033,0-0.049c0.033-0.03,0.066-0.03,0.099,0c0,0.016,0,0.033,0,0.049
								c0.001,0.034-0.015,0.051-0.049,0.049C258.025,9.543,258.008,9.527,257.99,9.512z"/>
							<path fill="#7C766B" d="M257.99,9.512c0.034-0.001,0.051,0.015,0.049,0.049C258.006,9.563,257.989,9.546,257.99,9.512z"/>
							<path fill="#C84D31" d="M259.866,8.673c0.016,0,0.033,0,0.049,0c0.016-0.031,0.033-0.031,0.049,0
								c-0.003,0.043,0.024,0.05,0.058,0.049c0.046,0,0.093,0,0.139,0c-0.004,0.074-0.061,0.042-0.099,0.049
								c-0.099,0.038-0.197,0.038-0.296,0c-0.016,0-0.032,0.002-0.048-0.001c-0.014-0.002-0.038-0.007-0.04-0.016
								c-0.008-0.031,0.015-0.035,0.039-0.033C259.767,8.703,259.843,8.768,259.866,8.673z"/>
							<path fill="#BAD1C0" d="M259.965,8.673c-0.016,0-0.033,0-0.049,0c0-0.063,0-0.125,0-0.188c0-0.034,0.006-0.062,0.049-0.059
								C259.965,8.508,259.965,8.591,259.965,8.673z"/>
							<path fill="#BFBFBF" d="M258.435,8.624c-0.033,0-0.066,0-0.099,0c0-0.016,0-0.033,0-0.049
								C258.373,8.582,258.43,8.55,258.435,8.624z"/>
							<path fill="#634D27" d="M261.249,10.944c0.016,0,0.033,0,0.049,0c0,0.016,0,0.033,0,0.049
								C261.264,10.994,261.247,10.978,261.249,10.944z"/>
							<path fill="#806231" d="M258.336,10.845c0-0.016,0-0.033,0-0.049c0.033,0,0.066,0,0.099,0
								C258.43,10.87,258.373,10.838,258.336,10.845z"/>
							<path fill="#FFFFFF" d="M260.607,7.932c0.016,0,0.033,0,0.049,0c0.014,0.011,0.019,0.022,0.014,0.033
								s-0.01,0.016-0.014,0.016C260.622,7.983,260.606,7.967,260.607,7.932z"/>
							<path fill="#C1D35D" d="M259.768,8.772c0.099,0,0.197,0,0.296,0c0,0.016,0,0.033,0,0.049c-0.099,0-0.197,0-0.296,0
								C259.768,8.805,259.768,8.788,259.768,8.772z"/>
							<path fill="#817663" d="M258.089,9.463c-0.033,0-0.066,0-0.099,0c0-0.016,0-0.033,0-0.049c0.033,0,0.066,0,0.099,0
								C258.089,9.43,258.089,9.446,258.089,9.463z"/>
							<path fill="#60605F" d="M258.089,9.413c0-0.016,0-0.033,0-0.049c0.024-0.002,0.046,0.003,0.039,0.033
								C258.126,9.405,258.103,9.408,258.089,9.413z"/>
							<path fill="#6F6553" d="M258.632,11.043c0.033,0,0.066,0,0.099,0c0,0.016,0,0.033,0,0.049
								c-0.033,0.016-0.066,0.033-0.099,0.049c-0.015-0.013-0.023-0.03-0.023-0.05c0.001-0.01,0.002-0.019,0.003-0.029
								C258.618,11.056,258.625,11.049,258.632,11.043z"/>
							<path fill="#FFFFFF" d="M258.632,11.092c0,0.016,0,0.033,0,0.049c-0.016,0-0.033,0-0.049,0c0-0.016,0-0.033,0-0.049
								C258.599,11.062,258.616,11.062,258.632,11.092z"/>
							<path fill="#D4A451" d="M258.83,11.141c0,0.016,0,0.033,0,0.049c-0.016,0.02-0.033,0.02-0.049,0c0-0.016,0-0.033,0-0.049
								C258.797,11.141,258.813,11.141,258.83,11.141z"/>
							<path fill="#A98240" d="M258.78,11.191c0.016,0,0.033,0,0.049,0c0,0.016,0,0.033,0,0.049c-0.016,0-0.033,0-0.049,0
								C258.78,11.224,258.78,11.207,258.78,11.191z"/>
							<path fill="#8F8F8F" d="M261.446,8.574c-0.016,0-0.033,0-0.049,0c-0.014-0.011-0.019-0.022-0.014-0.033
								s0.01-0.016,0.014-0.016C261.431,8.524,261.447,8.54,261.446,8.574z"/>
							<path fill="#66573C" d="M261.397,8.525c0,0.016,0,0.033,0,0.049c-0.016,0-0.033,0-0.049,0c0-0.016,0-0.033,0-0.049
								C261.364,8.525,261.38,8.525,261.397,8.525z"/>
							<path fill="#D4A451" d="M258.336,8.722c-0.016,0-0.033,0-0.049,0c0-0.016,0-0.033,0-0.049c0.016,0,0.033,0,0.049,0
								C258.336,8.689,258.336,8.706,258.336,8.722z"/>
							<path fill="#836D46" d="M258.78,8.179c0-0.016,0-0.033,0-0.049c0.016,0,0.033,0,0.049,0
								C258.831,8.164,258.814,8.18,258.78,8.179z"/>
							<path fill="#887B66" d="M258.731,8.179c0.016,0,0.033,0,0.049,0c0,0.016,0,0.033,0,0.049c-0.016,0-0.033,0-0.049,0
								C258.731,8.212,258.731,8.196,258.731,8.179z"/>
							<path fill="#5575B5" d="M259.175,10.302c0,0.016,0,0.033,0,0.049c0.027,0.125-0.108,0.09-0.148,0.148
								c-0.115,0-0.23,0-0.346,0c-0.001-0.034,0.015-0.051,0.049-0.049c0.088-0.085,0.192-0.114,0.312-0.1
								c0.035,0.004,0.083,0.015,0.083-0.048C259.142,10.302,259.159,10.302,259.175,10.302z"/>
							<path fill="#948260" d="M260.656,7.982c0-0.016,0-0.033,0-0.049c0.016,0,0.033,0,0.049,0c0,0.016,0,0.033,0,0.049
								C260.689,7.982,260.673,7.982,260.656,7.982z"/>
							<path fill="#3C352A" d="M258.583,11.043c0-0.016,0-0.033,0-0.049c0.016,0,0.033,0,0.049,0c0,0.016,0,0.033,0,0.049
								C258.616,11.062,258.599,11.062,258.583,11.043z"/>
							<path fill="#CFCFCF" d="M258.583,11.043c0.016,0,0.033,0,0.049,0c0,0.016,0,0.033,0,0.049c-0.016,0-0.033,0-0.049,0
								C258.583,11.075,258.583,11.059,258.583,11.043z"/>
							<path fill="#4161A8" d="M259.323,10.45c0.037-0.051,0.133-0.015,0.148-0.099c0.055-0.059,0.112-0.006,0.168-0.002
								c0.077,0.001,0.142,0.025,0.177,0.101c0,0.016,0,0.033,0,0.049c-0.165,0-0.329,0-0.494,0
								c-0.013-0.011-0.017-0.022-0.013-0.033C259.315,10.456,259.319,10.45,259.323,10.45z"/>
							<path fill="#4362A9" d="M260.311,10.401c-0.016,0.033-0.033,0.066-0.049,0.099c-0.082,0-0.165,0-0.247,0
								c0-0.016-0.002-0.032,0-0.047c0.01-0.053-0.1-0.081-0.035-0.135c0.029-0.024,0.088-0.011,0.133-0.015
								C260.146,10.401,260.248,10.361,260.311,10.401z"/>
							<path fill="#405FA6" d="M259.323,10.45c0,0.016,0,0.033,0,0.049c-0.099,0-0.197,0-0.296,0c0.016-0.057,0.048-0.094,0.111-0.1
								c0.024-0.002,0.042-0.019,0.037-0.048C259.213,10.402,259.308,10.366,259.323,10.45z"/>
							<path fill="#8FC4EA" d="M260.014,9.512c0.016,0,0.033,0,0.049,0c0.032,0.084,0.11,0.129,0.168,0.189
								c0.033,0.034,0.029,0.069,0.03,0.107c-0.033,0.016-0.066,0.033-0.099,0.049c-0.123-0.038-0.172-0.121-0.148-0.247
								C260.014,9.578,260.014,9.545,260.014,9.512z"/>
							<path fill="#99BFD3" d="M260.014,9.611c0.049,0.082,0.099,0.165,0.148,0.247c-0.029-0.007-0.044,0.015-0.056,0.033
								c-0.046,0.069-0.088,0.069-0.134,0c-0.012-0.018-0.027-0.04-0.056-0.033c0-0.016,0-0.033,0-0.049
								c0.066,0,0.042-0.052,0.05-0.086C259.975,9.682,259.933,9.619,260.014,9.611z"/>
							<path fill="#5675B5" d="M259.817,10.45c-0.058-0.047-0.126-0.055-0.197-0.049c-0.029-0.056,0.022-0.071,0.049-0.099
								c0.092-0.007,0.156,0.074,0.251,0.058C259.897,10.423,259.809,10.372,259.817,10.45z"/>
							<path fill="#3D5CA5" d="M260.508,10.351c-0.008,0.078,0.086,0.023,0.097,0.094c-0.083-0.015-0.173,0.056-0.245-0.045
								c0.034,0.001,0.051-0.015,0.049-0.049C260.442,10.351,260.475,10.351,260.508,10.351z"/>
							<path fill="#5979B7" d="M260.311,10.401c-0.015,0-0.032-0.004-0.046,0.001c-0.124,0.037-0.125,0.037-0.152-0.099
								c0.053,0.021,0.096,0.071,0.164,0.052C260.295,10.349,260.316,10.373,260.311,10.401z"/>
							<path fill="#5D7EBA" d="M258.892,10.302c0.057-0.065,0.129-0.044,0.197-0.048c0.012-0.001,0.029,0.013,0.036,0.025
								c0.012,0.022,0.001,0.025-0.023,0.024C259.032,10.3,258.962,10.302,258.892,10.302z"/>
							<path fill="#4E6EB1" d="M259.669,10.302c-0.016,0.033-0.033,0.066-0.049,0.099c-0.052-0.007-0.085-0.074-0.148-0.049
								c0-0.033,0-0.066,0-0.099c0.039,0,0.08-0.008,0.108,0.033C259.602,10.319,259.639,10.296,259.669,10.302z"/>
						</g>
					</g>
				</g>
			</g>
		</g>
	</g>
</g>
<circle fill="none" stroke="#575756" stroke-miterlimit="10" cx="259.817" cy="9.463" r="7.049"/>
<g>
	<path fill="#575756" d="M515.701,11.551h-1.086v2.132h-1.467v-2.132h-3.816v-1.015l3.423-5.122h1.86v4.979h1.086V11.551z
		 M513.148,10.394V8.522c0-0.481,0.041-1.235,0.068-1.716h-0.055c-0.218,0.429-0.462,0.845-0.706,1.287l-1.575,2.301
		C510.88,10.394,513.148,10.394,513.148,10.394z"/>
	<path fill="#575756" d="M516.355,15.23c0.869-0.325,1.371-0.91,1.371-1.573c-0.041,0-0.081,0-0.122,0
		c-0.529,0-1.005-0.338-1.005-0.923c0-0.559,0.476-0.923,1.046-0.923c0.733,0,1.168,0.572,1.168,1.534
		c0,1.273-0.774,2.262-2.119,2.704L516.355,15.23z"/>
	<path fill="#575756" d="M520.187,11.706c0.516,0.508,1.181,0.91,2.05,0.91c0.938,0,1.589-0.468,1.589-1.248
		c0-0.857-0.57-1.403-2.539-1.403V8.872c1.697,0,2.254-0.559,2.254-1.326c0-0.688-0.488-1.104-1.276-1.104
		c-0.679,0-1.208,0.312-1.738,0.78l-0.801-0.924c0.733-0.623,1.562-1.039,2.594-1.039c1.656,0,2.798,0.779,2.798,2.184
		c0,0.923-0.571,1.547-1.508,1.898v0.052c1.019,0.26,1.793,0.962,1.793,2.054c0,1.508-1.372,2.393-3.028,2.393
		c-1.399,0-2.322-0.521-2.934-1.17L520.187,11.706z"/>
	<path fill="#575756" d="M526.788,11.733c0.516,0.468,1.154,0.884,2.023,0.884c0.964,0,1.67-0.585,1.67-1.586
		c0-0.988-0.638-1.547-1.589-1.547c-0.557,0-0.869,0.143-1.385,0.468l-0.747-0.455l0.258-4.082h4.617v1.262h-3.259L528.2,8.678
		c0.366-0.169,0.692-0.273,1.141-0.273c1.48,0,2.716,0.806,2.716,2.587c0,1.808-1.453,2.848-3.042,2.848
		c-1.398,0-2.309-0.533-2.946-1.145L526.788,11.733z"/>
</g>
</svg>
