<?xml version="1.0" encoding="utf-8"?>
<!-- Generator: Adobe Illustrator 17.0.0, SVG Export Plug-In . SVG Version: 6.00 Build 0)  -->
<!DOCTYPE svg PUBLIC "-//W3C//DTD SVG 1.1//EN" "http://www.w3.org/Graphics/SVG/1.1/DTD/svg11.dtd">
<svg version="1.1" id="Layer_1" xmlns="http://www.w3.org/2000/svg" xmlns:xlink="http://www.w3.org/1999/xlink" x="0px" y="0px"
	 width="600px" height="19.542px" viewBox="0 0 600 19.542" enable-background="new 0 0 600 19.542" xml:space="preserve">
<rect x="176.341" y="2.414" fill="#ABCCB7" width="15.787" height="14.097"/>
<g>
	<rect x="448.356" y="8.771" fill="#ABCCB7" width="47.865" height="2"/>
</g>
<g>
	<g>
		<circle fill="#ABCCB7" cx="496.097" cy="9.771" r="2.481"/>
	</g>
</g>
<rect x="0" y="0" fill="none" width="600" height="19.542"/>
<line fill="none" stroke="#9F9F9F" stroke-width="0.7" stroke-miterlimit="10" stroke-dasharray="6,3" x1="199.426" y1="-0.002" x2="199.426" y2="19.535"/>
<line fill="none" stroke="#9F9F9F" stroke-width="0.7" stroke-miterlimit="10" stroke-dasharray="6,3" x1="440.97" y1="-0.002" x2="440.97" y2="19.535"/>
<g>
	<g>
		<g>
			<defs>
				<circle id="SVGID_1_" cx="259.927" cy="9.463" r="7.158"/>
			</defs>
			<clipPath id="SVGID_2_">
				<use xlink:href="#SVGID_1_"  overflow="visible"/>
			</clipPath>
			<g id="oVkUji_1_" clip-path="url(#SVGID_2_)">
				<g>
					<g>
						<path fill="#6379A3" d="M274.886,11.981c0,1.662,0,3.324,0,4.986c-9.939,0-19.879,0-29.818,0c0-1.662,0-3.324,0-4.986
							c0.025-0.022,0.052-0.041,0.081-0.058c0.1-0.052,0.208-0.042,0.314-0.042c9.676-0.001,19.352-0.001,29.028,0
							c0.106,0,0.215-0.011,0.315,0.042C274.834,11.939,274.861,11.958,274.886,11.981z"/>
						<path fill="#6379A3" d="M245.067,7.044c0-1.662,0-3.324,0-4.986c9.939,0,19.879,0,29.818,0c0,1.662,0,3.324,0,4.986
							c-0.025,0.022-0.052,0.041-0.081,0.058c-0.1,0.052-0.208,0.042-0.315,0.042c-9.676,0.001-19.352,0.001-29.028,0
							c-0.106,0-0.215,0.01-0.315-0.042C245.119,7.086,245.092,7.066,245.067,7.044z"/>
						<path fill="#3F3F3F" d="M245.067,7.044c0.016,0,0.033,0,0.049,0c0.091,0.088,0.1,0.201,0.1,0.318
							c0.001,1.434,0.001,2.867,0,4.301c0,0.117-0.009,0.23-0.1,0.318c-0.016,0-0.033,0-0.049,0
							C245.067,10.335,245.067,8.689,245.067,7.044z"/>
						<path fill="#7F8080" d="M274.836,7.044c0.016,0,0.033,0,0.049,0c0,1.646,0,3.291,0,4.937c-0.016,0-0.033,0-0.049,0
							c-0.091-0.088-0.1-0.201-0.1-0.318c-0.001-1.434-0.001-2.867,0-4.301C274.737,7.245,274.745,7.132,274.836,7.044z"/>
						<path fill="#FFFFFF" d="M274.836,7.044c0,1.646,0,3.291,0,4.937c-9.907,0-19.813,0-29.72,0c0-1.646,0-3.291,0-4.937
							C255.023,7.044,264.93,7.044,274.836,7.044z"/>
						<path fill="#F0D669" d="M261.211,10.351c0.11,0.032,0.104,0.143,0.16,0.212c-0.024,0.017-0.036,0.034-0.049,0.034
							c-0.839,0.001-1.677,0.001-2.516,0.002c-0.072,0-0.14,0.007-0.113-0.1c0.053-0.02,0.108-0.023,0.163-0.024
							c0.646-0.001,1.293,0.001,1.939-0.001c0.097,0,0.197,0.018,0.287-0.036C261.131,10.418,261.128,10.322,261.211,10.351z"/>
						<path fill="#92C2E2" d="M259.137,9.858c0-0.016-0.007-0.039,0.001-0.048c0.077-0.092,0.11-0.212,0.196-0.297
							c0.17-0.015,0.315-0.14,0.495-0.11c0.016,0.017,0.027,0.038,0.031,0.061c-0.041,0.201-0.21,0.293-0.348,0.412
							c-0.02,0.008-0.042,0.013-0.064,0.015c-0.067-0.002-0.12,0.04-0.18,0.059c-0.048,0.01-0.094,0.005-0.133-0.027
							C259.121,9.9,259.121,9.879,259.137,9.858z"/>
						<path fill="#92C3E5" d="M260.766,9.611c0.053,0.009,0.078,0.048,0.099,0.092c0.032,0.068,0.066,0.136,0.099,0.204
							c-0.042,0.053-0.1,0.067-0.164,0.066c-0.083-0.006-0.166-0.017-0.242-0.054c-0.114-0.152-0.331-0.228-0.344-0.457
							c0.094-0.132,0.186-0.024,0.276,0.006C260.588,9.502,260.685,9.541,260.766,9.611z"/>
						<path fill="#396F4E" d="M261.112,10.154c0,0.033,0,0.066,0,0.099c-0.106,0.057-0.224,0.002-0.333,0.033
							c-0.142,0.049-0.281-0.033-0.423-0.009c-0.186-0.013-0.37,0.013-0.553,0.037c-0.09-0.023-0.179-0.048-0.274-0.031
							c-0.041,0.006-0.082-0.004-0.122-0.005c-0.152-0.017-0.311,0.035-0.456-0.048c-0.024-0.022-0.027-0.048-0.011-0.076
							c0.016-0.033,0.033-0.066,0.049-0.099c0.02-0.016,0.042-0.023,0.067-0.02c0.024,0.007,0.047,0.016,0.069,0.026
							c0.227,0.008,0.454,0.042,0.68-0.011c0.302,0.006,0.603,0.024,0.905,0.004C260.848,10.074,260.988,10.079,261.112,10.154z"/>
						<path fill="#90C1E5" d="M259.828,9.463c0-0.016,0-0.033,0-0.049c-0.02-0.013-0.041-0.022-0.064-0.027
							c-0.1-0.026-0.249,0.06-0.281-0.121c-0.008-0.077,0.021-0.129,0.099-0.148c0.086,0.005,0.163,0.062,0.253,0.047
							c0.034,0.001,0.067,0.009,0.097,0.025c0.019,0.012,0.036,0.027,0.05,0.045c0.044,0.076,0.094,0.146,0.153,0.212
							c0.007,0.021,0.008,0.043,0.003,0.065c-0.013,0.031-0.033,0.056-0.056,0.08c-0.058,0.088-0.011,0.198-0.063,0.287
							c-0.019,0.032-0.046,0.054-0.08,0.066c-0.036,0.009-0.07,0.005-0.103-0.012c-0.116-0.115,0.03-0.232-0.003-0.348
							C259.825,9.544,259.863,9.502,259.828,9.463z"/>
						<path fill="#8FC0E3" d="M259.927,9.265c0-0.016,0-0.033,0-0.049c-0.029-0.026-0.031-0.057-0.017-0.092
							c0.013-0.019,0.029-0.034,0.049-0.046c0.021-0.01,0.042-0.016,0.065-0.02c0.022-0.004,0.044-0.004,0.067-0.004
							c0.075,0.026,0.121-0.029,0.174-0.065c0.032-0.014,0.066-0.018,0.1-0.01c0.021,0.01,0.04,0.023,0.056,0.039
							c0.054,0.012,0.087,0.045,0.099,0.099c-0.012,0.14-0.158,0.142-0.228,0.223c-0.008,0.008-0.016,0.016-0.024,0.024
							c-0.017,0.016-0.036,0.027-0.058,0.035c-0.034,0.008-0.067,0.006-0.1-0.006C260.04,9.364,260.008,9.28,259.927,9.265z"/>
						<path fill="#94C4E5" d="M260.766,9.611c-0.004,0.061-0.075,0.056-0.077,0.041c-0.008-0.095-0.085-0.045-0.124-0.07
							c-0.056-0.036-0.165,0.002-0.165-0.114c-0.056,0.055-0.066,0.035-0.09-0.033c-0.019-0.051-0.045,0.052-0.087,0.029
							c-0.007-0.007-0.014-0.014-0.021-0.021c-0.01-0.03-0.006-0.057,0.021-0.078c0.132-0.099,0.263-0.093,0.395,0
							C260.73,9.409,260.749,9.509,260.766,9.611z"/>
						<path fill="#349C47" d="M261.112,10.154c-0.073,0-0.148-0.008-0.22,0.002c-0.071,0.011-0.12-0.026-0.175-0.052
							c-0.159,0.049-0.178-0.046-0.172-0.166c0.008-0.01,0.016-0.021,0.024-0.031c0.066-0.053,0.132-0.053,0.197,0
							c0.08,0.054,0.177,0.078,0.247,0.148C261.067,10.067,261.1,10.1,261.112,10.154z"/>
						<path fill="#4362A9" d="M260.766,10.203c0.057,0,0.115,0.008,0.17-0.002c0.071-0.013,0.12,0.025,0.175,0.051
							c0.054,0.012,0.087,0.045,0.099,0.099c-0.027,0.004-0.061,0.002-0.03,0.045c0.012,0.016,0.02,0.036,0.03,0.054
							c-0.046,0.15-0.169,0.04-0.249,0.074c-0.102-0.045-0.1-0.19-0.214-0.224C260.734,10.264,260.74,10.232,260.766,10.203z"/>
						<path fill="#91C4E9" d="M259.828,9.364c0,0.016,0,0.033,0,0.049c-0.06,0.009-0.117,0.097-0.12,0.092
							c-0.062-0.092-0.104,0.045-0.156,0.011c-0.024,0.06-0.096,0.039-0.138,0.079c-0.019,0.018-0.07-0.036-0.08-0.083
							c0.051-0.037,0.015-0.133,0.099-0.148C259.565,9.324,259.697,9.325,259.828,9.364z"/>
						<path fill="#F7F7F7" d="M258.94,7.932c0.004-0.044-0.021-0.106,0.063-0.099c0.037,0.003,0.095-0.013,0.084,0.051
							c-0.019,0.109,0.046,0.101,0.116,0.097c0.023-0.001,0.046,0.003,0.079,0.017c-0.106,0.02-0.087,0.162-0.192,0.18
							c-0.058-0.022-0.134,0.005-0.175-0.064C258.883,8.049,258.891,7.987,258.94,7.932z"/>
						<path fill="#3D317D" d="M260.371,9.018c-0.033,0-0.066,0-0.099,0c-0.057,0.016-0.112,0.04-0.173,0.036
							c-0.029,0-0.058-0.004-0.087-0.01c-0.019-0.001-0.038-0.003-0.057-0.004c-0.029-0.001-0.058-0.001-0.087-0.002
							c-0.04-0.001-0.08-0.004-0.119-0.014c-0.02-0.006-0.038-0.016-0.054-0.029c-0.006-0.009-0.011-0.017-0.017-0.026
							c0-0.016,0-0.033,0-0.049c0.02-0.019,0.042-0.035,0.065-0.051c0.154-0.082,0.318-0.081,0.485-0.06
							C260.309,8.857,260.424,8.882,260.371,9.018z"/>
						<path fill="#8C8B84" d="M261.556,8.624c0.006,0.144,0.006,0.144,0.112,0.148c0.04,0.001,0.079,0,0.104,0
							c0.035,0.021,0.031,0.029,0.013,0.045c-0.037,0.032-0.07,0.069-0.105,0.103c-0.03-0.049-0.084-0.036-0.125-0.053
							c-0.09-0.038-0.167-0.099-0.147-0.219c0.004-0.024,0.001-0.049,0.001-0.074c0.013-0.012,0.029-0.018,0.046-0.018
							c0.027,0.001,0.051,0.011,0.073,0.025c0.006,0.006,0.013,0.012,0.019,0.018C261.549,8.607,261.553,8.616,261.556,8.624z"/>
						<path fill="#BCAF9B" d="M259.186,11.388c-0.006,0.03,0.016,0.066-0.016,0.089c-0.029,0.02-0.058,0.015-0.082-0.013
							c-0.044-0.052-0.121-0.085-0.1-0.174c-0.016-0.014-0.026-0.032-0.03-0.054c0.002-0.01,0.004-0.021,0.005-0.031
							c0.006-0.009,0.012-0.017,0.019-0.026c0.021-0.009,0.04-0.005,0.056,0.012c0.063,0.024,0.096-0.042,0.148-0.049
							C259.241,11.224,259.26,11.306,259.186,11.388z"/>
						<path fill="#A9926E" d="M261.852,9.364c0.012,0.084,0.137,0.038,0.137,0.133c-0.088,0.06-0.218-0.043-0.305,0.06
							c-0.01-0.009-0.021-0.016-0.029-0.027c-0.004-0.005-0.004-0.021,0-0.023c0.094-0.053-0.057-0.138,0.025-0.191
							c0.006-0.004,0.016,0,0.024,0C261.771,9.279,261.835,9.252,261.852,9.364z"/>
						<path fill="#E1AE58" d="M261.791,9.858c0.059-0.004,0.075,0.038,0.059,0.06c-0.038,0.052-0.04,0.088,0.015,0.126
							c0.035,0.024,0.059,0.059,0.022,0.099c-0.03,0.032-0.06,0.088-0.115,0.051c-0.036-0.024-0.09-0.056-0.064-0.114
							c0.014-0.031,0.062-0.046,0.01-0.089c-0.019-0.016-0.084-0.028-0.04-0.083C261.712,9.866,261.749,9.843,261.791,9.858z"/>
						<path fill="#AE956F" d="M260.519,11.536c-0.058,0.047-0.126,0.055-0.197,0.049c-0.041-0.086-0.042-0.17,0.013-0.251
							c0.022-0.027,0.05-0.043,0.086-0.045c0.033,0,0.066,0,0.099,0C260.603,11.372,260.639,11.454,260.519,11.536z"/>
						<path fill="#DCDAD7" d="M260.371,11.339c0.026,0.055-0.061,0.107-0.03,0.135c0.067,0.061-0.044,0.072-0.019,0.112
							c-0.04,0.012-0.073-0.09-0.121-0.007c-0.004,0.006-0.031-0.019-0.027-0.042c-0.054-0.066-0.053-0.132,0-0.197
							c0-0.016,0-0.033,0-0.049C260.255,11.243,260.316,11.282,260.371,11.339z"/>
						<path fill="#D6CFC5" d="M259.828,7.883c0.001,0.034-0.015,0.051-0.049,0.049c-0.08-0.083-0.099-0.186-0.099-0.296
							c0.04-0.104,0.121-0.04,0.181-0.037c0.033,0.002,0.01,0.056,0.017,0.086C259.945,7.772,259.913,7.834,259.828,7.883z"/>
						<path fill="#94C4E5" d="M260.223,9.315c0.017-0.071,0.093-0.076,0.129-0.115c0.052-0.056,0.077,0.032,0.108,0
							c0.023-0.024-0.007-0.087,0.059-0.082c0.007,0.052,0.074,0.085,0.049,0.148C260.471,9.404,260.343,9.332,260.223,9.315z"/>
						<path fill="#E8E5E2" d="M261.852,9.364c-0.023-0.095-0.1-0.031-0.148-0.049c0-0.033,0-0.066,0-0.099
							c-0.029-0.095,0.044-0.088,0.099-0.099c0.12-0.033,0.116,0.083,0.142,0.138C261.97,9.305,261.909,9.348,261.852,9.364z"/>
						<path fill="#A07C40" d="M258.298,9.512c-0.006,0.147-0.006,0.147-0.13,0.148c-0.032,0-0.064,0.001-0.096,0
							c-0.089-0.004-0.094-0.036-0.021-0.148c0.006-0.007,0.011-0.014,0.017-0.02c0.008-0.004,0.016-0.007,0.024-0.011
							c0.018-0.004,0.035-0.006,0.053-0.007c0.027-0.003,0.055-0.004,0.082-0.002C258.257,9.475,258.279,9.491,258.298,9.512z"/>
						<path fill="#A5B3C8" d="M260.124,8.426c0.043,0.07,0.061,0.155,0.133,0.208c0.031,0.023,0.01,0.059,0.015,0.089
							c-0.009,0.009-0.018,0.019-0.027,0.028c-0.081,0.04-0.15,0.025-0.206-0.048c-0.038-0.071-0.038-0.145-0.021-0.221
							c0.008-0.024,0.022-0.044,0.04-0.061C260.082,8.407,260.104,8.409,260.124,8.426z"/>
						<path fill="#8BBCE6" d="M259.828,9.216c0.006,0.03-0.016,0.053-0.037,0.047c-0.065-0.016-0.123-0.052-0.193-0.06
							c-0.033-0.004-0.01-0.056-0.016-0.086c0.007-0.037-0.025-0.095,0.049-0.099c0.018-0.018,0.039-0.022,0.062-0.012
							C259.78,9.049,259.865,9.093,259.828,9.216z"/>
						<path fill="#B08843" d="M258.002,9.858c-0.011-0.086,0.033-0.134,0.113-0.147c0.039-0.007,0.08-0.001,0.121-0.001
							c0.033,0,0.063,0.001,0.063,0.049c0,0.046-0.028,0.047-0.062,0.051c-0.025,0.003-0.043,0.018-0.038,0.048
							C258.133,9.921,258.067,9.908,258.002,9.858z"/>
						<path fill="#A39D92" d="M258.397,8.525c0.03-0.095,0.142-0.024,0.194-0.095c0.02-0.027,0.066,0.032,0.09,0.06
							c0.035,0.041-0.001,0.069-0.026,0.101c-0.031,0.04-0.07,0.033-0.109,0.033c-0.009,0-0.019,0-0.028-0.001
							c-0.029,0-0.055-0.008-0.078-0.026C258.42,8.575,258.417,8.545,258.397,8.525z"/>
						<path fill="#AB9571" d="M261.803,10.598c0.007,0.051-0.003,0.096-0.051,0.124c-0.085,0.051-0.244,0.027-0.37-0.075
							c0.121,0,0.215,0,0.31,0c0.034,0,0.066-0.002,0.062-0.049C261.77,10.587,261.786,10.587,261.803,10.598z"/>
						<path fill="#B78D46" d="M261.396,8.182c0.038,0.123-0.013,0.211-0.067,0.296c-0.01,0.016-0.029,0.068-0.067,0.024
							c-0.02-0.024-0.048-0.031-0.024-0.089C261.274,8.323,261.3,8.236,261.396,8.182z"/>
						<path fill="#9E7C47" d="M261.408,10.993c0,0.024,0.002,0.048,0,0.071c-0.008,0.065-0.055,0.104-0.102,0.074
							c-0.055-0.035-0.119-0.082-0.139-0.138c-0.026-0.073,0.052-0.052,0.093-0.057c0.017-0.02,0.04-0.025,0.065-0.024
							c0.017-0.001,0.032,0.004,0.045,0.014s0.024,0.022,0.032,0.036L261.408,10.993z"/>
						<path fill="#9C8053" d="M261.803,10.598c-0.016,0-0.033,0-0.049,0c-0.091,0.019-0.161-0.038-0.238-0.068
							c-0.007-0.003-0.005-0.043,0.001-0.063c0.003-0.009,0.033-0.02,0.039-0.016c0.082,0.066,0.182,0.032,0.269,0.054
							C261.869,10.516,261.878,10.581,261.803,10.598z"/>
						<path fill="#948260" d="M258.002,9.858c0.066,0,0.132,0,0.197,0c0.016,0,0.033,0,0.049,0c0.029,0.033,0.031,0.066,0,0.099
							c-0.034-0.001-0.051,0.015-0.049,0.049c-0.016,0.02-0.033,0.02-0.049,0C258.004,10.004,258.004,10.004,258.002,9.858z"/>
						<path fill="#C5984C" d="M258.643,10.944c-0.039,0-0.079-0.005-0.117,0.001c-0.087,0.013-0.083-0.042-0.08-0.1
							c0.005-0.008,0.01-0.017,0.016-0.025c0.016-0.012,0.034-0.02,0.054-0.023c0.01,0,0.02,0,0.03-0.001
							c0.071-0.006,0.139,0.003,0.197,0.049c0.016,0.018,0.021,0.038,0.014,0.062C258.727,10.945,258.695,10.975,258.643,10.944z"/>
						<path fill="#9D8867" d="M260.618,7.784c0.033,0.016,0.066,0.033,0.099,0.049c0.011,0.012,0.019,0.026,0.023,0.041
							c0.005,0.015,0.012,0.03,0.022,0.043c0.015,0.021,0.022,0.044,0.024,0.069c-0.001,0.017-0.007,0.032-0.02,0.044
							c-0.043,0.004-0.095,0.081-0.127-0.006c-0.024-0.064-0.089-0.113-0.071-0.192C260.557,7.788,260.573,7.772,260.618,7.784z"/>
						<path fill="#D4C46D" d="M260.371,9.018c0.001-0.053,0.01-0.109-0.076-0.103c-0.023,0.001-0.034-0.051-0.072-0.045
							c-0.021-0.02-0.051-0.028-0.067-0.055c-0.003-0.02,0-0.038,0.01-0.056c0.033-0.02,0.078-0.005,0.106-0.038
							c0.124,0.062,0.15,0.172,0.148,0.296C260.404,9.018,260.388,9.018,260.371,9.018z"/>
						<path fill="#D5C378" d="M259.729,8.92c-0.016,0-0.033,0-0.049,0c0.012-0.156,0.076-0.284,0.197-0.395
							c0.058,0.063,0.035,0.123-0.007,0.181c-0.004,0.017-0.045,0.003-0.031,0.028c0.009,0.015,0.038,0.019,0.052,0.037
							c0.006,0.02,0.005,0.041-0.003,0.06C259.843,8.874,259.769,8.866,259.729,8.92z"/>
						<path fill="#9C8869" d="M259.186,11.388c0-0.082,0-0.165,0-0.247c0.037,0.051,0.133,0.015,0.148,0.099
							c0.036,0.049,0.034,0.099,0,0.148C259.285,11.388,259.236,11.388,259.186,11.388z"/>
						<path fill="#9F9A92" d="M260.519,11.536c0.001-0.042,0.076-0.079,0.003-0.131c-0.019-0.013-0.003-0.076-0.003-0.116
							c0.033-0.016,0.066-0.033,0.099-0.049c0.076,0.022,0.073,0.084,0.075,0.144c0.013,0.07-0.035,0.109-0.075,0.152
							C260.585,11.536,260.552,11.536,260.519,11.536z"/>
						<path fill="#948260" d="M259.75,11.343c0.048-0.008,0.072,0.003,0.077,0.026c0.009,0.044,0,0.086,0.033,0.132
							c0.043,0.06,0.009,0.094-0.071,0.086c-0.025-0.003-0.056-0.006-0.057-0.028c-0.002-0.055,0.004-0.11-0.05-0.147
							C259.709,11.384,259.736,11.357,259.75,11.343z"/>
						<path fill="#4C6492" d="M261.013,10.055c0.002,0.024-0.011,0.054-0.031,0.039c-0.077-0.056-0.185-0.079-0.216-0.187
							c0.066,0,0.132,0,0.197,0C260.971,9.96,261.037,9.992,261.013,10.055z"/>
						<path fill="#867964" d="M260.667,11.388c0.024-0.063-0.042-0.096-0.049-0.148c0.048-0.107,0.14-0.028,0.209-0.047
							c0.021-0.006,0.039,0.016,0.039,0.047c0,0.03-0.015,0.05-0.039,0.048c-0.074-0.005-0.135-0.002-0.11,0.1
							C260.7,11.403,260.684,11.403,260.667,11.388z"/>
						<path fill="#A28452" d="M260.026,7.735c0-0.032,0.001-0.063,0-0.095c-0.002-0.061,0.041-0.053,0.079-0.054
							c0.031,0,0.072-0.003,0.067,0.04c-0.006,0.056,0.022,0.096,0.042,0.142c0.001,0.002-0.01,0.01-0.016,0.016
							c-0.001-0.033-0.039,0.029-0.024,0C260.102,7.834,260.057,7.806,260.026,7.735z"/>
						<path fill="#D4A452" d="M259.68,7.636c0.013,0.005,0.039,0.012,0.039,0.016c-0.01,0.1,0.064,0.182,0.06,0.281
							c-0.032,0-0.064,0.001-0.096-0.001c-0.014-0.001-0.028-0.009-0.042-0.014c0.107-0.088-0.081-0.193,0.016-0.281
							C259.661,7.633,259.672,7.636,259.68,7.636z"/>
						<path fill="#9BB2D0" d="M259.828,8.722c0-0.039-0.008-0.08,0.033-0.108c0.033-0.023,0.01-0.06,0.017-0.09
							c0-0.016,0-0.033,0-0.049c0.19-0.035,0.135,0.101,0.137,0.197C259.973,8.766,259.908,8.771,259.828,8.722z"/>
						<path fill="#8C7C61" d="M258.298,9.512c-0.033,0-0.066,0-0.099,0c-0.015-0.011-0.025-0.025-0.03-0.043
							c0-0.009,0-0.017,0-0.026c0.003-0.008,0.006-0.016,0.008-0.023c0.007-0.012,0.011-0.018,0.011-0.018
							c-0.016-0.005-0.029-0.014-0.041-0.026c-0.016-0.026-0.022-0.053-0.02-0.083c0.017-0.028,0.037-0.048,0.072-0.028
							c0.033,0,0.066,0,0.099,0c0.036,0.066,0.037,0.132,0,0.197C258.298,9.479,258.298,9.496,258.298,9.512z"/>
						<path fill="#9F9078" d="M258.1,9.068c-0.023-0.051-0.016-0.104-0.002-0.15c0.012-0.038,0.023-0.061,0.051-0.021
							c0.026,0.038,0.105-0.003,0.099,0.072c0.029,0.033,0.029,0.066,0,0.099c-0.016,0-0.033,0-0.049,0
							C258.166,9.097,258.133,9.097,258.1,9.068z"/>
						<path fill="#9E7C47" d="M259.459,7.977c-0.019,0.007-0.055,0.058-0.057,0.041c-0.011-0.1-0.124-0.085-0.156-0.152
							c-0.009-0.018-0.008-0.046-0.001-0.065c0.011-0.029,0.051-0.026,0.063-0.016c0.055,0.048,0.104,0.103,0.158,0.153
							C259.484,7.955,259.488,7.962,259.459,7.977z"/>
						<path fill="#C9A05A" d="M260.174,11.339c0,0.066,0,0.132,0,0.197c-0.066,0.017-0.11-0.02-0.14-0.068
							c-0.04-0.063,0.005-0.122,0.092-0.129C260.141,11.338,260.158,11.339,260.174,11.339z"/>
						<path fill="#B8B7B5" d="M258.89,11.24c-0.039,0-0.079-0.005-0.117,0.001c-0.087,0.013-0.084-0.042-0.08-0.1
							c0.004-0.009,0.008-0.018,0.012-0.027c0.013-0.015,0.028-0.028,0.046-0.038c0.027-0.014,0.056-0.02,0.087-0.015
							c0.02,0.004,0.039,0.01,0.057,0.018c0.013,0.016,0.021,0.034,0.025,0.053c0.006,0.019,0.008,0.039,0.006,0.059
							c-0.004,0.009-0.008,0.018-0.012,0.028C258.906,11.227,258.898,11.234,258.89,11.24z"/>
						<path fill="#A88F65" d="M260.026,7.735c0.052,0.007,0.085,0.074,0.148,0.049c0.004,0.029-0.001,0.067,0.015,0.086
							c0.037,0.042,0.04,0.06-0.021,0.062c-0.031,0.001-0.062,0-0.093,0C259.995,7.882,259.957,7.822,260.026,7.735z"/>
						<path fill="#BA9351" d="M258.15,10.006c0.016,0,0.033,0,0.049,0c-0.004,0.049,0.056,0.067,0.053,0.125
							c-0.003,0.073-0.037,0.073-0.09,0.074c-0.056,0.001-0.057-0.029-0.065-0.074C258.087,10.072,258.153,10.055,258.15,10.006z"/>
						<path fill="#9F9F9F" d="M258.347,8.772c-0.016,0.095-0.089,0.036-0.135,0.048c-0.031,0.008-0.063,0.001-0.063-0.047
							c0-0.046,0.028-0.048,0.062-0.051c0.025-0.003,0.043-0.018,0.038-0.048C258.33,8.657,258.364,8.689,258.347,8.772z"/>
						<path fill="#A59276" d="M261.457,8.525c-0.017-0.066,0.02-0.11,0.069-0.14c0.036-0.022,0.078-0.016,0.079,0.044
							c0.001,0.048,0,0.097,0,0.145c-0.008,0.006-0.015,0.012-0.023,0.018c-0.01-0.001-0.02-0.002-0.029-0.003
							c-0.018-0.007-0.037-0.014-0.054-0.023c-0.008-0.006-0.016-0.012-0.023-0.018C261.469,8.541,261.463,8.533,261.457,8.525z"/>
						<path fill="#A2875D" d="M258.347,8.772c-0.012-0.054-0.045-0.087-0.099-0.099c0.009-0.099,0.009-0.099,0.148-0.099
							c0.025,0.022,0.042,0.047,0.046,0.081c-0.002,0.021-0.007,0.042-0.014,0.062c-0.007,0.02-0.017,0.038-0.032,0.054
							C258.38,8.772,258.364,8.772,258.347,8.772z"/>
						<path fill="#BFD3A9" d="M259.976,8.673c0-0.039-0.005-0.079,0.001-0.117c0.013-0.087-0.042-0.084-0.1-0.08
							c-0.001-0.034,0.015-0.051,0.049-0.049c0.097-0.1,0.104-0.1,0.148,0c-0.054,0.075-0.004,0.165-0.035,0.243
							C260.02,8.687,259.998,8.688,259.976,8.673z"/>
						<path fill="#AACCC8" d="M260.223,9.315c0.095,0,0.19,0,0.285,0c0.034,0,0.064-0.004,0.06-0.049
							c0.074,0.004,0.042,0.061,0.049,0.099c-0.132,0-0.263,0-0.395,0C260.223,9.348,260.223,9.331,260.223,9.315z"/>
						<path fill="#B4CFC2" d="M259.828,9.364c-0.132,0-0.263,0-0.395,0c0.007-0.037-0.025-0.095,0.049-0.099
							c-0.004,0.048,0.029,0.049,0.063,0.049c0.081,0,0.163-0.002,0.244,0.001C259.815,9.316,259.834,9.333,259.828,9.364z"/>
						<path fill="#E8DA88" d="M260.075,8.426c-0.012-0.068-0.048-0.06-0.093-0.031c-0.017,0.012-0.037,0.021-0.055,0.031
							c-0.017-0.076,0.052-0.122,0.067-0.201c0.059,0.064,0.147,0.096,0.131,0.201C260.108,8.426,260.092,8.426,260.075,8.426z"/>
						<path fill="#776D5C" d="M258.298,10.549c-0.021-0.113-0.132-0.082-0.207-0.121c0.074-0.046,0.147-0.026,0.215-0.024
							c0.064,0.002,0.08,0.068,0.041,0.146C258.331,10.579,258.314,10.579,258.298,10.549z"/>
						<path fill="#988B75" d="M258.94,7.932c0,0.066,0,0.132,0,0.197c-0.005,0.007-0.01,0.013-0.015,0.02
							c-0.015,0.008-0.031,0.011-0.047,0.011c-0.018-0.004-0.03-0.014-0.037-0.03c0-0.039,0.005-0.079-0.001-0.117
							C258.827,7.925,258.882,7.929,258.94,7.932z"/>
						<path fill="#857B6C" d="M260.371,11.339c-0.03-0.006-0.067,0.017-0.09-0.017c-0.028-0.041-0.069-0.033-0.108-0.033
							c0.081-0.071,0.166-0.071,0.247,0C260.422,11.324,260.405,11.34,260.371,11.339z"/>
						<path fill="#937C56" d="M259.828,7.883c0.047-0.058,0.055-0.126,0.049-0.197c0.037,0.007,0.095-0.024,0.099,0.049
							c0.053,0.072,0.004,0.111-0.049,0.148C259.894,7.883,259.861,7.883,259.828,7.883z"/>
						<path fill="#9F8C6F" d="M258.199,9.265c-0.034-0.001-0.051,0.015-0.049,0.049c-0.016,0.024-0.033,0.024-0.049,0
							c-0.03-0.006-0.067,0.016-0.089-0.016c-0.029-0.043,0-0.072,0.031-0.099c0.017-0.015,0.028-0.041,0.058-0.034
							c0.044-0.005,0.072,0.021,0.099,0.049C258.199,9.232,258.199,9.249,258.199,9.265z"/>
						<path fill="#AB8F60" d="M258.199,9.216c-0.037-0.007-0.095,0.024-0.099-0.049c-0.01-0.018-0.018-0.037-0.03-0.054
							c-0.031-0.043,0.003-0.041,0.03-0.045c0.033,0,0.066,0,0.099,0C258.199,9.117,258.199,9.167,258.199,9.216z"/>
						<path fill="#B1AEA8" d="M260.667,11.388c0.016,0,0.033,0,0.049,0c0.061,0.003,0.061,0.046,0.04,0.081
							c-0.029,0.048-0.074,0.084-0.139,0.067C260.594,11.473,260.66,11.441,260.667,11.388z"/>
						<path fill="#7B7367" d="M261.113,8.33c-0.064-0.034-0.111-0.056-0.155-0.084c-0.016-0.01-0.037-0.038-0.033-0.05
							c0.009-0.028,0.042-0.019,0.064-0.014c0.014,0.003,0.022,0.029,0.036,0.032C261.108,8.236,261.108,8.235,261.113,8.33z"/>
						<path fill="#9F9077" d="M258.785,8.175c-0.047,0.011-0.145-0.045-0.134-0.063c0.018-0.031,0.047-0.063,0.079-0.078
							c0.028-0.013,0.069,0,0.06,0.047C258.785,8.114,258.814,8.156,258.785,8.175z"/>
						<path fill="#9E8E74" d="M260.618,7.784c-0.034-0.001-0.051,0.015-0.049,0.049c-0.016,0-0.033,0-0.049,0
							c-0.031-0.002-0.035-0.031-0.049-0.049c-0.009-0.066,0.003-0.105,0.086-0.101C260.639,7.687,260.614,7.741,260.618,7.784z"/>
						<path fill="#9E7C47" d="M261.803,9.117c0.004,0.046-0.028,0.046-0.061,0.05c-0.025,0.003-0.043,0.018-0.037,0.048
							c-0.088-0.032-0.062-0.1-0.024-0.14C261.697,9.058,261.787,9.027,261.803,9.117z"/>
						<path fill="#A38759" d="M258.248,9.068c0-0.033,0-0.066,0-0.099c0.063,0,0.125,0,0.192,0
							C258.406,9.085,258.323,9.067,258.248,9.068z"/>
						<path fill="#979187" d="M260.47,7.784c0.034-0.001,0.051,0.015,0.049,0.049c0.024,0.04-0.092,0.056-0.017,0.11
							c0.037,0.026-0.008,0.036-0.023,0.037c-0.03,0.002-0.066,0.005-0.091-0.008c-0.041-0.023,0.009-0.032,0.016-0.048
							C260.425,7.877,260.448,7.831,260.47,7.784z"/>
						<path fill="#A08150" d="M258.94,8.13c0.049,0.019,0.125-0.046,0.148,0.049c-0.058,0.047-0.126,0.055-0.197,0.049
							c-0.007-0.007-0.013-0.013-0.02-0.02c0.001-0.009,0.002-0.019,0.003-0.028c0.006-0.007,0.013-0.014,0.019-0.021
							C258.91,8.153,258.926,8.143,258.94,8.13z"/>
						<path fill="#EED361" d="M258.94,10.154c0,0.016,0,0.033,0,0.049c0.037,0.088,0,0.142-0.082,0.174
							c-0.026,0.002-0.048-0.006-0.066-0.025C258.843,10.287,258.836,10.179,258.94,10.154z"/>
						<path fill="#F0D669" d="M259.038,10.055c-0.016,0-0.033,0-0.049,0c0.02-0.131,0.061-0.187,0.148-0.197
							c0,0.016,0,0.033,0,0.049C259.144,9.983,259.119,10.038,259.038,10.055z"/>
						<path fill="#8C8B84" d="M259.927,7.883c0.007-0.052,0.074-0.085,0.049-0.148c0.016,0,0.033,0,0.049,0
							c-0.006,0.071,0.003,0.139,0.049,0.197C260.012,7.957,259.979,7.89,259.927,7.883z"/>
						<path fill="#D1C280" d="M258.791,10.351c0.016,0,0.033,0,0.049,0c0.026,0.02,0.036,0.047,0.036,0.079
							c-0.004,0.031-0.018,0.057-0.042,0.078c-0.015,0.013-0.029,0.027-0.043,0.041c-0.033-0.016-0.066-0.033-0.099-0.049
							C258.726,10.45,258.759,10.401,258.791,10.351z"/>
						<path fill="#A0865B" d="M259.393,11.504c0.072-0.004,0.153-0.051,0.212,0.032c0.007,0.01,0.011,0.022,0.017,0.034
							c-0.014,0.005-0.035,0.019-0.04,0.015C259.527,11.537,259.455,11.541,259.393,11.504z"/>
						<path fill="#937C56" d="M258.248,9.956c0-0.033,0-0.066,0-0.099c0.03,0.006,0.073-0.018,0.087,0.017
							c0.013,0.033,0.02,0.087,0.002,0.111C258.301,10.033,258.291,9.933,258.248,9.956z"/>
						<path fill="#8A7757" d="M259.335,11.388c0-0.049,0-0.099,0-0.148c0.04,0,0.082-0.006,0.12,0.002
							c0.026,0.005,0.021,0.05,0.004,0.044C259.358,11.253,259.415,11.405,259.335,11.388z"/>
						<path fill="#A9987D" d="M258.298,9.463c0-0.066,0-0.132,0-0.197c-0.002-0.024,0.017-0.054,0.03-0.04
							c0.046,0.051,0.01,0.118,0.019,0.178C258.351,9.437,258.341,9.466,258.298,9.463z"/>
						<path fill="#C9A976" d="M260.816,7.883c0.037,0.051,0.133,0.015,0.148,0.099c-0.016,0.031-0.033,0.031-0.049,0
							c-0.016,0-0.033,0-0.049,0c-0.008,0.007-0.016,0.014-0.024,0.021c-0.01-0.002-0.021-0.005-0.031-0.007
							c-0.013-0.017-0.021-0.037-0.024-0.058C260.789,7.916,260.799,7.898,260.816,7.883z"/>
						<path fill="#B48B48" d="M258.643,10.944c0.033-0.016,0.066-0.033,0.099-0.049c0.016,0.014,0.026,0.031,0.031,0.052
							c-0.001,0.01-0.003,0.021-0.004,0.031c-0.005,0.009-0.011,0.018-0.016,0.027c-0.017,0.012-0.036,0.019-0.058,0.02
							c-0.021-0.004-0.038-0.015-0.052-0.03C258.643,10.977,258.643,10.96,258.643,10.944z"/>
						<path fill="#CC9E4E" d="M260.766,8.031c0-0.016,0-0.033,0-0.049c0.008-0.006,0.016-0.013,0.025-0.019
							c0.008,0.006,0.016,0.013,0.025,0.019c0.019,0.014,0.033,0.033,0.049,0.049c0.004,0.046-0.028,0.052-0.061,0.048
							C260.779,8.077,260.761,8.061,260.766,8.031z"/>
						<path fill="#9E9D9B" d="M258.742,10.993c0-0.016,0-0.033,0-0.049c0.019-0.013,0.018-0.048,0.049-0.049
							c0.074,0.004,0.042,0.061,0.049,0.099C258.808,11.024,258.775,11.019,258.742,10.993z"/>
						<path fill="#F0EFEF" d="M258.1,9.315c0.016,0,0.033,0,0.049,0c-0.001,0.034,0.015,0.051,0.049,0.049
							c0.011,0.011,0.014,0.022,0.011,0.033c-0.004,0.011-0.007,0.016-0.011,0.016c-0.021,0.026-0.047,0.031-0.078,0.021
							c-0.007-0.007-0.014-0.014-0.021-0.021C258.1,9.381,258.1,9.348,258.1,9.315z"/>
						<path fill="#A4957D" d="M258.298,10.796c-0.046,0.004-0.052-0.028-0.048-0.061c0.003-0.025,0.018-0.043,0.048-0.037
							c0.016-0.031,0.033-0.031,0.049,0c0.007,0.009,0.013,0.019,0.02,0.028c-0.004,0.011-0.008,0.022-0.012,0.032
							C258.335,10.769,258.316,10.782,258.298,10.796z"/>
						<path fill="#6E685F" d="M258.397,8.673c0-0.033,0-0.066,0-0.099c0-0.016,0-0.033,0-0.049c0.034-0.001,0.051,0.015,0.049,0.049
							c0.016,0.014,0.026,0.032,0.03,0.053c-0.003,0.01-0.005,0.02-0.008,0.031c-0.006,0.009-0.012,0.017-0.018,0.026
							C258.429,8.695,258.411,8.691,258.397,8.673z"/>
						<path fill="#C4A471" d="M258.446,10.697c0.054,0.012,0.087,0.045,0.099,0.099c-0.028,0.027-0.06,0.025-0.094,0.016
							c-0.017-0.015-0.028-0.034-0.034-0.057C258.42,10.733,258.429,10.713,258.446,10.697z"/>
						<path fill="#907241" d="M258.791,10.894c0.001,0.034-0.015,0.051-0.049,0.049c0-0.016,0-0.033,0-0.049s0-0.033,0-0.049
							C258.776,10.844,258.793,10.86,258.791,10.894z"/>
						<path fill="#948260" d="M258.446,10.746c0,0.016,0,0.033,0,0.049c0.031,0.016,0.031,0.033,0,0.049
							c-0.034,0.001-0.051-0.015-0.049-0.049c-0.012-0.011-0.016-0.022-0.013-0.034s0.006-0.018,0.01-0.018
							C258.411,10.73,258.429,10.73,258.446,10.746z"/>
						<path fill="#85837D" d="M258.89,11.092c-0.016,0-0.033,0-0.049,0c-0.006-0.008-0.011-0.016-0.017-0.025
							c0.006-0.008,0.011-0.016,0.017-0.025c0.037,0.007,0.095-0.024,0.099,0.049C258.923,11.116,258.907,11.116,258.89,11.092z"/>
						<path fill="#DFDFDF" d="M261.359,10.944c-0.033,0-0.066,0-0.099,0c0.004-0.074,0.061-0.042,0.099-0.049
							c0.015,0.011,0.021,0.022,0.015,0.033C261.369,10.938,261.364,10.944,261.359,10.944z"/>
						<path fill="#ADAAA4" d="M260.816,7.883c0,0.016,0,0.033,0,0.049c-0.013,0.015-0.029,0.023-0.049,0.023
							c-0.019-0.002-0.036-0.01-0.05-0.023c0-0.016,0-0.033,0-0.049c0.016-0.019,0.033-0.019,0.049,0
							C260.783,7.883,260.799,7.883,260.816,7.883z"/>
						<path fill="#988B75" d="M258.94,11.289c0.001,0.024-0.003,0.047-0.033,0.039c-0.008-0.002-0.013-0.026-0.016-0.04
							c-0.003-0.016-0.001-0.032-0.001-0.048c0.009-0.007,0.018-0.013,0.028-0.02c0.011,0.004,0.021,0.008,0.032,0.013
							C258.963,11.255,258.96,11.273,258.94,11.289z"/>
						<path fill="#D4CEC6" d="M258.742,10.993c0.033,0,0.066,0,0.099,0c0,0.016,0,0.033,0,0.049c-0.027,0.03-0.057,0.03-0.09,0.011
							c-0.012-0.012-0.017-0.025-0.016-0.039C258.737,11,258.739,10.993,258.742,10.993z"/>
						<path fill="#D4A451" d="M261.457,8.574c-0.016,0-0.033,0-0.049,0c-0.024,0.001-0.047-0.003-0.039-0.033
							c0.002-0.008,0.026-0.013,0.04-0.016c0.016-0.003,0.032-0.001,0.048-0.001c0.006,0.008,0.012,0.016,0.019,0.025
							C261.47,8.558,261.464,8.566,261.457,8.574z"/>
						<path fill="#FFFFFF" d="M258.446,8.673c0-0.016,0-0.033,0-0.049c0.033-0.031,0.066-0.028,0.099,0
							c0.001,0.034-0.015,0.051-0.049,0.049C258.479,8.695,258.462,8.695,258.446,8.673z"/>
						<path fill="#8B806F" d="M258.643,11.092c0-0.016,0-0.033,0-0.049c0.009-0.007,0.017-0.015,0.026-0.023
							c0.01,0.005,0.02,0.01,0.031,0.015c0.004,0.01,0.009,0.021,0.013,0.031c-0.004,0.011-0.007,0.022-0.011,0.032
							C258.681,11.112,258.661,11.11,258.643,11.092z"/>
						<path fill="#DFDFDF" d="M258.643,11.092c0.016,0,0.033,0,0.049,0c0.012,0.011,0.017,0.022,0.012,0.033
							c-0.004,0.011-0.008,0.016-0.012,0.016C258.659,11.143,258.642,11.126,258.643,11.092z"/>
						<path fill="#90764B" d="M258.89,11.092c0.016,0,0.033,0,0.049,0c0,0.016,0,0.033,0,0.049
							c-0.008,0.006-0.016,0.012-0.025,0.019c-0.008-0.006-0.016-0.012-0.025-0.019C258.89,11.125,258.89,11.108,258.89,11.092z"/>
						<path fill="#90764B" d="M261.062,11.117c-0.011,0.005-0.022,0.013-0.033,0.015c-0.004,0.001-0.011-0.01-0.016-0.015
							c0.011-0.005,0.022-0.013,0.033-0.015C261.05,11.1,261.057,11.111,261.062,11.117z"/>
						<path fill="#887B66" d="M258.94,11.141c0.016,0,0.033,0,0.049,0c0.012,0.011,0.017,0.022,0.012,0.033
							c-0.004,0.011-0.008,0.016-0.012,0.016c-0.017,0.016-0.034,0.016-0.052,0.003C258.923,11.175,258.924,11.158,258.94,11.141z"
							/>
						<path fill="#FFFFFF" d="M258.989,11.191c0-0.016,0-0.033,0-0.049c0.034-0.001,0.051,0.015,0.049,0.049
							C259.022,11.191,259.005,11.191,258.989,11.191z"/>
						<path fill="#4E4B46" d="M260.766,7.883c-0.016,0-0.033,0-0.049,0c0-0.016,0-0.033,0-0.049
							C260.751,7.832,260.767,7.849,260.766,7.883z"/>
						<path fill="#937C56" d="M261.08,11.233c-0.007-0.007-0.012-0.012-0.018-0.018c0.011-0.005,0.022-0.013,0.033-0.015
							c0.004-0.001,0.011,0.01,0.016,0.015C261.101,11.221,261.09,11.227,261.08,11.233z"/>
						<path fill="#FFFFFF" d="M258.94,11.289c0-0.016,0-0.033,0-0.049c0.016-0.021,0.033-0.021,0.049,0c0,0.016,0,0.033,0,0.049
							C258.973,11.289,258.956,11.289,258.94,11.289z"/>
						<path fill="#482B7E" d="M259.68,9.018c-0.016,0-0.033,0-0.049,0c-0.001-0.034,0.015-0.051,0.049-0.049
							c0.012,0.011,0.017,0.022,0.012,0.033C259.688,9.013,259.684,9.018,259.68,9.018z"/>
						<path fill="#FFFFFF" d="M258.1,9.512c-0.016,0-0.033,0-0.049,0c0-0.016,0-0.033,0-0.049c0.015-0.016,0.031-0.016,0.049-0.004
							C258.11,9.477,258.11,9.494,258.1,9.512z"/>
						<path fill="#505050" d="M261.556,8.574c0.016,0,0.033,0,0.049,0c0.001,0.034-0.015,0.051-0.049,0.049
							c-0.012-0.011-0.017-0.022-0.012-0.033C261.548,8.58,261.552,8.574,261.556,8.574z"/>
						<path fill="#CFCFCF" d="M258.1,9.463c-0.016,0-0.033,0-0.049,0c-0.001-0.034,0.015-0.051,0.049-0.049
							c0.006,0.008,0.012,0.016,0.019,0.025C258.113,9.446,258.107,9.455,258.1,9.463z"/>
						<path fill="#948260" d="M258.446,8.673c0.016,0,0.033,0,0.049,0c0.001,0.034-0.015,0.051-0.049,0.049
							c-0.008-0.008-0.015-0.016-0.023-0.025C258.431,8.689,258.438,8.681,258.446,8.673z"/>
						<path fill="#937C56" d="M258.397,8.772c0-0.016,0-0.033,0-0.049c0.016-0.02,0.033-0.02,0.049,0
							C258.447,8.756,258.431,8.773,258.397,8.772z"/>
						<path fill="#D4A451" d="M258.89,8.229c0.002,0.024-0.003,0.046-0.033,0.039c-0.008-0.002-0.011-0.025-0.017-0.039
							c0.008-0.007,0.016-0.014,0.025-0.021C258.874,8.215,258.882,8.222,258.89,8.229z"/>
						<path fill="#E1AE58" d="M258.791,8.179c0.016,0,0.033,0,0.049,0c0.008,0.008,0.015,0.016,0.023,0.025
							c-0.008,0.008-0.015,0.016-0.023,0.025C258.807,8.23,258.79,8.213,258.791,8.179z"/>
						<path fill="#D4A451" d="M258.693,11.043c-0.016,0-0.033,0-0.049,0c0-0.016,0-0.033,0-0.049c0.016,0,0.033,0,0.049,0
							c0.015,0.011,0.02,0.022,0.015,0.033C258.703,11.037,258.698,11.043,258.693,11.043z"/>
						<path fill="#D4A451" d="M261.408,10.944c0.024-0.002,0.046,0.003,0.039,0.033c-0.002,0.008-0.025,0.011-0.039,0.017
							c-0.007-0.008-0.014-0.016-0.021-0.025C261.394,10.96,261.401,10.952,261.408,10.944z"/>
						<path fill="#8E6D37" d="M261.359,10.944c0-0.016,0-0.033,0-0.049c0.034-0.001,0.051,0.015,0.049,0.049
							C261.392,10.961,261.375,10.961,261.359,10.944z"/>
						<path fill="#EFEFEF" d="M258.397,10.746c0,0.016,0,0.033,0,0.049c-0.016,0-0.033,0-0.049,0
							c-0.012-0.011-0.017-0.022-0.012-0.033c0.004-0.011,0.008-0.016,0.012-0.016c0.008-0.008,0.016-0.015,0.025-0.023
							C258.38,10.731,258.388,10.739,258.397,10.746z"/>
						<path fill="#756241" d="M258.347,10.746c0,0.016,0,0.033,0,0.049c-0.016,0-0.033,0-0.049,0
							C258.297,10.762,258.313,10.745,258.347,10.746z"/>
						<path fill="#B0AFAF" d="M258.446,10.746c-0.016,0-0.033,0-0.049,0c-0.014-0.011-0.019-0.022-0.014-0.033
							s0.01-0.016,0.014-0.016c0.016,0,0.033,0,0.049,0C258.446,10.713,258.446,10.73,258.446,10.746z"/>
						<path fill="#3D3A36" d="M258.397,10.697c0,0.016,0,0.033,0,0.049c-0.016,0-0.033,0-0.049,0c0-0.016,0-0.033,0-0.049
							C258.364,10.697,258.38,10.697,258.397,10.697z"/>
						<path fill="#FFFFFF" d="M258.347,10.697c-0.016,0-0.033,0-0.049,0c0-0.016,0-0.033,0-0.049c0.016-0.03,0.033-0.03,0.049,0
							C258.347,10.664,258.347,10.681,258.347,10.697z"/>
						<path fill="#A4957D" d="M258.347,10.648c-0.016,0-0.033,0-0.049,0c0-0.016,0-0.033,0-0.049c0.016-0.02,0.033-0.02,0.049,0
							C258.347,10.615,258.347,10.631,258.347,10.648z"/>
						<path fill="#907241" d="M258.347,10.598c-0.016,0-0.033,0-0.049,0c0-0.016,0-0.033,0-0.049c0.016,0,0.033,0,0.049,0
							C258.347,10.565,258.347,10.582,258.347,10.598z"/>
						<path fill="#90764B" d="M260.865,8.031c-0.034,0.001-0.051-0.015-0.049-0.049c0.016,0,0.033,0,0.049,0
							C260.865,7.998,260.865,8.015,260.865,8.031z"/>
						<path fill="#A98240" d="M260.914,7.982c0.016,0,0.033,0,0.049,0c0,0.016,0,0.033,0,0.049c-0.016,0.015-0.033,0.015-0.049,0
							C260.914,8.015,260.914,7.998,260.914,7.982z"/>
						<path fill="#CC9E4E" d="M260.914,8.031c0.016,0,0.033,0,0.049,0c0.002,0.024-0.003,0.046-0.033,0.039
							C260.923,8.068,260.92,8.045,260.914,8.031z"/>
						<path fill="#DFDFDF" d="M258.841,8.13c0.016,0,0.033,0,0.049,0c0.012,0.011,0.017,0.022,0.012,0.033
							c-0.004,0.011-0.008,0.016-0.012,0.016c-0.016,0.02-0.033,0.02-0.049,0C258.841,8.163,258.841,8.146,258.841,8.13z"/>
						<path fill="#909487" d="M258.791,10.549c0-0.016,0-0.033,0-0.049c0.102-0.073,0.219-0.079,0.339-0.074
							c0.102,0,0.203,0,0.305,0c0.159,0,0.317,0,0.476,0c0.072,0,0.144,0,0.216,0c0.088-0.001,0.176,0.001,0.264,0
							c0.174,0.025,0.365-0.061,0.523,0.073c0.079,0,0.158,0,0.237,0c0.034,0,0.063-0.005,0.06-0.049
							c0.075,0.019,0.069,0.072,0.019,0.094c-0.048,0.021-0.113,0.005-0.17,0.005C260.303,10.549,259.547,10.549,258.791,10.549z"/>
						<path fill="#259D47" d="M259.779,10.105c0.006,0.031-0.013,0.048-0.039,0.048c-0.221,0.002-0.442,0.002-0.663,0
							c-0.025,0-0.044-0.017-0.039-0.048c0.056-0.098,0.154-0.145,0.247-0.197c-0.002-0.048,0.042-0.063,0.068-0.09
							c0.018-0.019,0.032-0.062,0.065-0.046c0.033,0.016,0.01,0.057,0.016,0.087c0.056,0.051,0.098,0.12,0.184,0.128
							C259.684,10.008,259.749,10.033,259.779,10.105z"/>
						<path fill="#A8CDCC" d="M259.828,9.463c0.074,0.004,0.042,0.061,0.049,0.099c-0.01,0.107-0.099,0.168-0.148,0.252
							c-0.043,0.058-0.09,0.11-0.165,0.125c-0.048-0.006-0.102-0.006-0.081-0.081C259.567,9.699,259.743,9.621,259.828,9.463z"/>
						<path fill="#436093" d="M259.285,9.907c-0.045,0.112-0.149,0.151-0.247,0.197c0-0.016,0-0.033,0-0.049
							c0.051-0.037,0.015-0.133,0.099-0.148C259.186,9.907,259.236,9.907,259.285,9.907z"/>
						<path fill="#D0C55E" d="M259.483,9.858c0.004,0.074,0.061,0.042,0.099,0.049c0.043,0.049,0.039,0.099,0,0.148
							c-0.137-0.02-0.146-0.032-0.148-0.197C259.45,9.858,259.466,9.858,259.483,9.858z"/>
						<path fill="#A8CDCC" d="M260.223,9.463c0.075,0.127,0.195,0.214,0.296,0.317c0.038,0.039,0.057,0.075,0.05,0.127
							c-0.1,0.069-0.162-0.002-0.227-0.061c-0.046-0.122-0.198-0.184-0.193-0.336C260.158,9.471,260.177,9.446,260.223,9.463z"/>
						<path fill="#379F48" d="M260.371,9.808c0.048-0.002,0.066,0.041,0.09,0.068c0.032,0.037,0.069,0.03,0.108,0.031
							c0.019,0.131,0.061,0.187,0.148,0.197c0.006,0.03-0.013,0.048-0.038,0.048c-0.258,0.002-0.517-0.003-0.775,0.004
							c-0.057,0.002-0.076-0.056-0.125-0.052c-0.039,0-0.08,0.008-0.108-0.033c-0.023-0.033-0.06-0.01-0.09-0.017
							c0-0.049,0-0.099,0-0.148c0.033-0.049,0.066-0.099,0.099-0.148c0.13-0.021,0.092,0.107,0.14,0.158
							c0.038,0.019,0.074,0.021,0.107-0.01c0.034,0.001,0.051-0.015,0.049-0.049c0.015-0.016,0.034-0.026,0.056-0.031
							c0.072,0.007,0.145,0.019,0.213-0.023C260.288,9.788,260.33,9.779,260.371,9.808z"/>
						<path fill="#405FA7" d="M260.124,10.5c-0.066,0-0.132,0-0.197,0c-0.016-0.015-0.025-0.034-0.026-0.055
							c0.042-0.119-0.124-0.044-0.121-0.127c-0.011-0.021-0.01-0.043-0.001-0.065c0.106,0.025,0.191-0.066,0.299-0.052
							c0.096,0.012,0.196,0.003,0.294,0.003c0.059,0.049,0.191-0.004,0.186,0.133c-0.005,0.038-0.023,0.068-0.056,0.089
							c-0.011,0.004-0.022,0.008-0.032,0.012c-0.011,0.001-0.022,0.002-0.033,0.004c-0.072-0.007-0.139-0.039-0.211-0.041
							C260.177,10.419,260.161,10.47,260.124,10.5z"/>
						<path fill="#405FA6" d="M258.841,10.45c0-0.033,0-0.066,0-0.099c0.084-0.015,0.048-0.111,0.099-0.148c0.165,0,0.329,0,0.494,0
							c0.057,0.116-0.022,0.134-0.107,0.148c-0.024-0.003-0.047-0.011-0.067-0.024c-0.028-0.031-0.061-0.053-0.106-0.049
							c0.04-0.001,0.073,0.011,0.093,0.049C259.145,10.479,258.977,10.412,258.841,10.45z"/>
						<path fill="#5676B6" d="M259.285,10.302c0.023,0,0.047-0.003,0.07,0.001c0.088,0.015,0.08-0.045,0.078-0.099
							c0.033,0,0.066,0,0.099,0c0.025,0.023,0.061,0.032,0.08,0.063c0.015,0.034,0.016,0.068,0.006,0.103
							c-0.031,0.08-0.105,0.085-0.174,0.098c-0.067-0.019-0.142-0.026-0.176-0.102C259.262,10.342,259.268,10.32,259.285,10.302z"/>
						<path fill="#5A7AB8" d="M260.519,10.351c0.009-0.065-0.002-0.112-0.086-0.1c-0.033,0.005-0.066-0.001-0.062-0.049
							c0.09,0.019,0.188-0.039,0.273,0.046c0.042,0.042,0.072-0.051,0.122-0.046c0,0.033,0,0.066,0,0.099
							c0.004,0.102-0.071,0.101-0.14,0.108C260.583,10.405,260.547,10.385,260.519,10.351z"/>
						<path fill="#3D5CA5" d="M259.581,10.253c-0.034,0.001-0.051-0.015-0.049-0.049c0.063,0,0.125,0,0.188,0
							c0.034,0,0.062,0.006,0.059,0.049c0,0.016,0,0.033,0,0.049c-0.008,0.007-0.017,0.015-0.025,0.023
							C259.673,10.356,259.629,10.301,259.581,10.253z"/>
						<path fill="#91BFDA" d="M259.828,9.956c-0.077-0.026-0.065-0.107-0.098-0.161c-0.013-0.021-0.02-0.042-0.05-0.037
							c0.047-0.085,0.113-0.15,0.197-0.197c0.088,0.032,0.049,0.089,0.029,0.144c-0.024,0.068-0.094,0.118-0.079,0.201
							C259.859,9.924,259.859,9.94,259.828,9.956z"/>
						<path fill="#A43A43" d="M259.927,9.265c0.043-0.003,0.088-0.079,0.129,0.005c0.017,0.035,0.07,0.045,0.068,0.094
							c0.029,0.033,0.029,0.066,0,0.099c-0.07,0.013-0.135-0.024-0.142-0.08C259.977,9.329,259.919,9.315,259.927,9.265z"/>
						<path fill="#A6CBCD" d="M259.68,9.018c0-0.016,0-0.033,0-0.049c0.016,0,0.033,0,0.049,0c0.055,0.051,0.142,0.051,0.187,0.118
							c0.004,0.01,0.007,0.02,0.011,0.03c0,0.033,0,0.066,0,0.099c-0.033,0-0.066,0-0.099,0
							C259.811,9.126,259.697,9.108,259.68,9.018z"/>
						<path fill="#A7CCCC" d="M260.026,9.512c0.033,0,0.066,0,0.099,0c0.007,0.01,0.015,0.02,0.022,0.03
							c0.013,0.036,0.021,0.072,0.013,0.111c-0.036,0.063-0.014,0.194-0.156,0.132C260.009,9.694,259.978,9.6,260.026,9.512z"/>
						<path fill="#B4CDA5" d="M260.026,9.512c0,0.099,0,0.197,0,0.296c0.015,0.011,0.02,0.022,0.015,0.033
							c-0.005,0.011-0.01,0.016-0.015,0.016c-0.016,0-0.033,0-0.049,0c0-0.095,0-0.19,0-0.285
							C259.976,9.539,259.981,9.509,260.026,9.512z"/>
						<path fill="#91C0DC" d="M260.124,9.463c0-0.033,0-0.066,0-0.099c0.033,0,0.066,0,0.099,0c0,0.033,0,0.066,0,0.099
							c-0.034-0.001-0.051,0.015-0.049,0.049c-0.016,0.024-0.033,0.024-0.049,0C260.124,9.496,260.124,9.479,260.124,9.463z"/>
						<path fill="#3C5BA4" d="M259.828,9.956c0-0.016,0-0.033,0-0.049c0.033,0,0.066,0,0.099,0
							C259.923,9.981,259.866,9.949,259.828,9.956z"/>
						<path fill="#87B5E1" d="M260.075,9.018c0.053-0.021,0.097-0.074,0.163-0.049c0.022,0.008,0.04,0.021,0.034,0.049
							c-0.031,0.157-0.063,0.173-0.197,0.099C260.046,9.084,260.049,9.051,260.075,9.018z"/>
						<path fill="#91C4E8" d="M259.878,8.969c0.033,0,0.066,0,0.099,0c0.04,0.049,0.04,0.099,0,0.148c-0.016,0-0.033,0-0.049,0
							C259.889,9.075,259.839,9.037,259.878,8.969z"/>
						<path fill="#A7CCCC" d="M260.075,9.018c0,0.033,0,0.066,0,0.099c-0.016,0-0.033,0-0.049,0c-0.034-0.049-0.034-0.099,0-0.148
							C260.06,8.968,260.076,8.984,260.075,9.018z"/>
						<path fill="#C0D4A9" d="M260.026,8.969c0,0.049,0,0.099,0,0.148c-0.016,0-0.033,0-0.049,0c0-0.049,0-0.099,0-0.148
							C259.993,8.969,260.009,8.969,260.026,8.969z"/>
						<path fill="#5777B6" d="M260.618,10.351c0.049-0.019,0.125,0.046,0.148-0.049c0.068,0.009,0.134-0.062,0.207-0.002
							c0.024,0.02,0.086-0.018,0.089,0.048s-0.047,0.054-0.084,0.052c-0.084-0.005-0.06,0.055-0.063,0.1c-0.181,0-0.362,0-0.543,0
							c-0.028-0.055,0.003-0.081,0.049-0.099c0.016,0,0.033,0,0.049,0c0.029,0.029,0.061,0.008,0.092,0.007
							c0.032-0.001,0.061,0.015,0.092,0.014C260.62,10.409,260.597,10.392,260.618,10.351z"/>
						<path fill="#4AA949" d="M259.729,8.92c0.009-0.099,0.009-0.099,0.148-0.099c0.099-0.074,0.197-0.074,0.296,0
							c0.034-0.001,0.051,0.015,0.049,0.049c-0.09,0-0.18,0-0.269,0C259.875,8.87,259.814,8.946,259.729,8.92z"/>
						<path fill="#86B5E2" d="M259.878,8.969c0.007,0.052,0.074,0.085,0.049,0.148c-0.108,0.007-0.154-0.069-0.197-0.148
							C259.779,8.969,259.828,8.969,259.878,8.969z"/>
						<path fill="#473923" d="M261.556,8.574c0,0.016,0,0.033,0,0.049c-0.016,0-0.033,0-0.049,0
							c-0.012-0.011-0.016-0.022-0.013-0.034s0.006-0.018,0.01-0.018C261.522,8.558,261.54,8.558,261.556,8.574z"/>
						<path fill="#FFFFFF" d="M261.507,8.574c0,0.016,0,0.033,0,0.049c-0.034,0.001-0.051-0.015-0.049-0.049
							c0.008-0.008,0.016-0.015,0.025-0.023C261.49,8.559,261.499,8.566,261.507,8.574z"/>
						<path fill="#505050" d="M258.989,11.24c-0.016,0-0.033,0-0.049,0c-0.008-0.008-0.015-0.016-0.023-0.025
							c0.008-0.008,0.015-0.016,0.023-0.025c0.016,0,0.033,0,0.049,0C258.989,11.207,258.989,11.224,258.989,11.24z"/>
						<path fill="#ADA9A2" d="M258.1,9.512c0-0.016,0-0.033,0-0.049c0.033-0.03,0.066-0.03,0.099,0c0,0.016,0,0.033,0,0.049
							c0.001,0.034-0.015,0.051-0.049,0.049C258.135,9.543,258.118,9.527,258.1,9.512z"/>
						<path fill="#7C766B" d="M258.1,9.512c0.034-0.001,0.051,0.015,0.049,0.049C258.116,9.563,258.099,9.546,258.1,9.512z"/>
						<path fill="#C84D31" d="M259.976,8.673c0.016,0,0.033,0,0.049,0c0.016-0.031,0.033-0.031,0.049,0
							c-0.003,0.043,0.024,0.05,0.058,0.049c0.046,0,0.093,0,0.139,0c-0.004,0.074-0.061,0.042-0.099,0.049
							c-0.099,0.038-0.197,0.038-0.296,0c-0.016,0-0.032,0.002-0.048-0.001c-0.014-0.002-0.038-0.007-0.04-0.016
							c-0.008-0.031,0.015-0.035,0.039-0.033C259.877,8.703,259.953,8.768,259.976,8.673z"/>
						<path fill="#BAD1C0" d="M260.075,8.673c-0.016,0-0.033,0-0.049,0c0-0.063,0-0.125,0-0.188c0-0.034,0.006-0.062,0.049-0.059
							C260.075,8.508,260.075,8.591,260.075,8.673z"/>
						<path fill="#BFBFBF" d="M258.545,8.624c-0.033,0-0.066,0-0.099,0c0-0.016,0-0.033,0-0.049
							C258.483,8.582,258.54,8.55,258.545,8.624z"/>
						<path fill="#634D27" d="M261.359,10.944c0.016,0,0.033,0,0.049,0c0,0.016,0,0.033,0,0.049
							C261.374,10.994,261.357,10.978,261.359,10.944z"/>
						<path fill="#806231" d="M258.446,10.845c0-0.016,0-0.033,0-0.049c0.033,0,0.066,0,0.099,0
							C258.54,10.87,258.483,10.838,258.446,10.845z"/>
						<path fill="#FFFFFF" d="M260.717,7.932c0.016,0,0.033,0,0.049,0c0.014,0.011,0.019,0.022,0.014,0.033s-0.01,0.016-0.014,0.016
							C260.732,7.983,260.716,7.967,260.717,7.932z"/>
						<path fill="#C1D35D" d="M259.878,8.772c0.099,0,0.197,0,0.296,0c0,0.016,0,0.033,0,0.049c-0.099,0-0.197,0-0.296,0
							C259.878,8.805,259.878,8.788,259.878,8.772z"/>
						<path fill="#817663" d="M258.199,9.463c-0.033,0-0.066,0-0.099,0c0-0.016,0-0.033,0-0.049c0.033,0,0.066,0,0.099,0
							C258.199,9.43,258.199,9.446,258.199,9.463z"/>
						<path fill="#60605F" d="M258.199,9.413c0-0.016,0-0.033,0-0.049c0.024-0.002,0.046,0.003,0.039,0.033
							C258.236,9.405,258.213,9.408,258.199,9.413z"/>
						<path fill="#6F6553" d="M258.742,11.043c0.033,0,0.066,0,0.099,0c0,0.016,0,0.033,0,0.049
							c-0.033,0.016-0.066,0.033-0.099,0.049c-0.015-0.013-0.023-0.03-0.023-0.05c0.001-0.01,0.002-0.019,0.003-0.029
							C258.728,11.056,258.735,11.049,258.742,11.043z"/>
						<path fill="#FFFFFF" d="M258.742,11.092c0,0.016,0,0.033,0,0.049c-0.016,0-0.033,0-0.049,0c0-0.016,0-0.033,0-0.049
							C258.709,11.062,258.726,11.062,258.742,11.092z"/>
						<path fill="#D4A451" d="M258.94,11.141c0,0.016,0,0.033,0,0.049c-0.016,0.02-0.033,0.02-0.049,0c0-0.016,0-0.033,0-0.049
							C258.907,11.141,258.923,11.141,258.94,11.141z"/>
						<path fill="#A98240" d="M258.89,11.191c0.016,0,0.033,0,0.049,0c0,0.016,0,0.033,0,0.049c-0.016,0-0.033,0-0.049,0
							C258.89,11.224,258.89,11.207,258.89,11.191z"/>
						<path fill="#8F8F8F" d="M261.556,8.574c-0.016,0-0.033,0-0.049,0c-0.014-0.011-0.019-0.022-0.014-0.033
							s0.01-0.016,0.014-0.016C261.541,8.524,261.557,8.54,261.556,8.574z"/>
						<path fill="#66573C" d="M261.507,8.525c0,0.016,0,0.033,0,0.049c-0.016,0-0.033,0-0.049,0c0-0.016,0-0.033,0-0.049
							C261.474,8.525,261.49,8.525,261.507,8.525z"/>
						<path fill="#D4A451" d="M258.446,8.722c-0.016,0-0.033,0-0.049,0c0-0.016,0-0.033,0-0.049c0.016,0,0.033,0,0.049,0
							C258.446,8.689,258.446,8.706,258.446,8.722z"/>
						<path fill="#836D46" d="M258.89,8.179c0-0.016,0-0.033,0-0.049c0.016,0,0.033,0,0.049,0
							C258.941,8.164,258.924,8.18,258.89,8.179z"/>
						<path fill="#887B66" d="M258.841,8.179c0.016,0,0.033,0,0.049,0c0,0.016,0,0.033,0,0.049c-0.016,0-0.033,0-0.049,0
							C258.841,8.212,258.841,8.196,258.841,8.179z"/>
						<path fill="#5575B5" d="M259.285,10.302c0,0.016,0,0.033,0,0.049c0.027,0.125-0.108,0.09-0.148,0.148c-0.115,0-0.23,0-0.346,0
							c-0.001-0.034,0.015-0.051,0.049-0.049c0.088-0.085,0.192-0.114,0.312-0.1c0.035,0.004,0.083,0.015,0.083-0.048
							C259.252,10.302,259.269,10.302,259.285,10.302z"/>
						<path fill="#948260" d="M260.766,7.982c0-0.016,0-0.033,0-0.049c0.016,0,0.033,0,0.049,0c0,0.016,0,0.033,0,0.049
							C260.799,7.982,260.783,7.982,260.766,7.982z"/>
						<path fill="#3C352A" d="M258.693,11.043c0-0.016,0-0.033,0-0.049c0.016,0,0.033,0,0.049,0c0,0.016,0,0.033,0,0.049
							C258.726,11.062,258.709,11.062,258.693,11.043z"/>
						<path fill="#CFCFCF" d="M258.693,11.043c0.016,0,0.033,0,0.049,0c0,0.016,0,0.033,0,0.049c-0.016,0-0.033,0-0.049,0
							C258.693,11.076,258.693,11.059,258.693,11.043z"/>
						<path fill="#4161A8" d="M259.433,10.45c0.037-0.051,0.133-0.015,0.148-0.099c0.055-0.059,0.112-0.006,0.168-0.002
							c0.077,0.001,0.142,0.025,0.177,0.101c0,0.016,0,0.033,0,0.049c-0.165,0-0.329,0-0.494,0
							c-0.013-0.011-0.017-0.022-0.013-0.033C259.425,10.456,259.429,10.45,259.433,10.45z"/>
						<path fill="#4362A9" d="M260.421,10.401c-0.016,0.033-0.033,0.066-0.049,0.099c-0.082,0-0.165,0-0.247,0
							c0-0.016-0.002-0.032,0-0.047c0.01-0.053-0.1-0.081-0.035-0.135c0.029-0.024,0.088-0.011,0.133-0.015
							C260.256,10.401,260.358,10.362,260.421,10.401z"/>
						<path fill="#405FA6" d="M259.433,10.45c0,0.016,0,0.033,0,0.049c-0.099,0-0.197,0-0.296,0c0.016-0.057,0.048-0.094,0.111-0.1
							c0.024-0.002,0.042-0.019,0.037-0.048C259.323,10.402,259.418,10.366,259.433,10.45z"/>
						<path fill="#8FC4EA" d="M260.124,9.512c0.016,0,0.033,0,0.049,0c0.032,0.084,0.11,0.129,0.168,0.189
							c0.033,0.034,0.029,0.069,0.03,0.107c-0.033,0.016-0.066,0.033-0.099,0.049c-0.123-0.038-0.172-0.121-0.148-0.247
							C260.124,9.578,260.124,9.545,260.124,9.512z"/>
						<path fill="#99BFD3" d="M260.124,9.611c0.049,0.082,0.099,0.165,0.148,0.247c-0.029-0.007-0.044,0.015-0.056,0.033
							c-0.046,0.069-0.088,0.069-0.134,0c-0.012-0.018-0.027-0.04-0.056-0.033c0-0.016,0-0.033,0-0.049
							c0.066,0,0.042-0.052,0.05-0.086C260.085,9.682,260.043,9.619,260.124,9.611z"/>
						<path fill="#5675B5" d="M259.927,10.45c-0.058-0.047-0.126-0.055-0.197-0.049c-0.029-0.056,0.022-0.071,0.049-0.099
							c0.092-0.007,0.156,0.074,0.251,0.058C260.007,10.423,259.919,10.372,259.927,10.45z"/>
						<path fill="#3D5CA5" d="M260.618,10.351c-0.008,0.078,0.086,0.023,0.097,0.094c-0.083-0.015-0.173,0.056-0.245-0.045
							c0.034,0.001,0.051-0.015,0.049-0.049C260.552,10.351,260.585,10.351,260.618,10.351z"/>
						<path fill="#5979B7" d="M260.421,10.401c-0.015,0-0.032-0.004-0.046,0.001c-0.124,0.037-0.125,0.037-0.152-0.099
							c0.053,0.021,0.096,0.071,0.164,0.052C260.405,10.349,260.426,10.373,260.421,10.401z"/>
						<path fill="#5D7EBA" d="M259.002,10.302c0.057-0.065,0.129-0.044,0.197-0.048c0.012-0.001,0.029,0.013,0.036,0.025
							c0.012,0.022,0.001,0.025-0.023,0.024C259.142,10.3,259.072,10.302,259.002,10.302z"/>
						<path fill="#4E6EB1" d="M259.779,10.302c-0.016,0.033-0.033,0.066-0.049,0.099c-0.052-0.007-0.085-0.074-0.148-0.049
							c0-0.033,0-0.066,0-0.099c0.039,0,0.08-0.008,0.108,0.033C259.712,10.319,259.749,10.296,259.779,10.302z"/>
					</g>
				</g>
			</g>
		</g>
	</g>
</g>
<path fill="#010201" d="M280.133,5.154h1.168l3.231,5.356l0.965,1.768h0.054c-0.054-0.857-0.149-1.82-0.149-2.717V5.154h1.073v8.528
	h-1.168l-3.219-5.369l-0.964-1.755h-0.055c0.055,0.857,0.136,1.768,0.136,2.665v4.459h-1.072V5.154z"/>
<path fill="#010201" d="M288.515,5.375c0-0.416,0.339-0.688,0.773-0.688s0.774,0.272,0.774,0.688c0,0.403-0.34,0.689-0.774,0.689
	S288.515,5.778,288.515,5.375z M288.718,7.364h1.114v6.318h-1.114V7.364z"/>
<path fill="#010201" d="M294.682,7.208c0.869,0,1.48,0.352,1.928,0.754l-0.557,0.689c-0.394-0.325-0.801-0.559-1.331-0.559
	c-1.194,0-2.063,0.987-2.063,2.443c0,1.443,0.828,2.418,2.037,2.418c0.624,0,1.154-0.299,1.548-0.637l0.503,0.702
	c-0.598,0.507-1.358,0.819-2.146,0.819c-1.752,0-3.096-1.209-3.096-3.303C291.504,8.417,292.984,7.208,294.682,7.208z"/>
<path fill="#010201" d="M301.718,9.678c0-0.807-0.286-1.586-1.358-1.586c-0.774,0-1.453,0.338-1.969,0.676l-0.448-0.741
	c0.61-0.377,1.534-0.819,2.594-0.819c1.616,0,2.295,1.027,2.295,2.601v3.874h-0.924l-0.095-0.754h-0.027
	c-0.639,0.494-1.371,0.91-2.187,0.91c-1.113,0-1.941-0.663-1.941-1.794C297.658,10.667,298.907,9.977,301.718,9.678z M299.911,12.98
	c0.639,0,1.168-0.299,1.807-0.845V10.38c-2.214,0.26-2.961,0.779-2.961,1.586C298.757,12.681,299.26,12.98,299.911,12.98z"/>
<path fill="#010201" d="M304.87,7.364h0.924l0.095,1.145h0.041c0.448-0.793,1.127-1.301,1.874-1.301
	c0.285,0,0.489,0.039,0.706,0.131l-0.217,0.936c-0.218-0.065-0.367-0.104-0.639-0.104c-0.557,0-1.222,0.39-1.67,1.455v4.057h-1.114
	L304.87,7.364L304.87,7.364z"/>
<path fill="#010201" d="M312.912,9.678c0-0.807-0.285-1.586-1.358-1.586c-0.774,0-1.453,0.338-1.97,0.676l-0.447-0.741
	c0.61-0.377,1.534-0.819,2.594-0.819c1.616,0,2.295,1.027,2.295,2.601v3.874h-0.924l-0.095-0.754h-0.027
	c-0.639,0.494-1.371,0.91-2.187,0.91c-1.113,0-1.941-0.663-1.941-1.794C308.852,10.667,310.101,9.977,312.912,9.678z M311.106,12.98
	c0.639,0,1.168-0.299,1.807-0.845V10.38c-2.214,0.26-2.961,0.779-2.961,1.586C309.952,12.681,310.453,12.98,311.106,12.98z"/>
<path fill="#010201" d="M316.527,13.461v-0.053c-0.326-0.194-0.584-0.532-0.584-1.026c0-0.533,0.381-0.949,0.72-1.17V11.16
	c-0.435-0.338-0.855-0.948-0.855-1.703c0-1.378,1.141-2.249,2.485-2.249c0.366,0,0.692,0.065,0.937,0.156h2.296v0.819h-1.358
	c0.312,0.286,0.543,0.767,0.543,1.3c0,1.353-1.072,2.197-2.417,2.197c-0.326,0-0.692-0.078-0.991-0.221
	c-0.231,0.194-0.421,0.402-0.421,0.754c0,0.402,0.271,0.688,1.168,0.688h1.276c1.534,0,2.309,0.455,2.309,1.509
	c0,1.17-1.29,2.184-3.341,2.184c-1.616,0-2.729-0.611-2.729-1.703C315.563,14.358,315.929,13.851,316.527,13.461z M318.455,15.853
	c1.263,0,2.091-0.624,2.091-1.287c0-0.585-0.475-0.78-1.33-0.78h-1.142c-0.258,0-0.57-0.025-0.855-0.104
	c-0.475,0.325-0.679,0.702-0.679,1.066C316.54,15.424,317.26,15.853,318.455,15.853z M319.691,9.457
	c0-0.923-0.624-1.469-1.398-1.469s-1.398,0.546-1.398,1.469c0,0.924,0.638,1.509,1.398,1.509S319.691,10.38,319.691,9.457z"/>
<path fill="#010201" d="M322.748,7.364h1.127v3.861c0,1.183,0.367,1.69,1.236,1.69c0.679,0,1.154-0.325,1.778-1.066V7.364h1.114
	v6.318h-0.924l-0.095-0.988h-0.041c-0.611,0.689-1.263,1.145-2.173,1.145c-1.398,0-2.023-0.858-2.023-2.471L322.748,7.364
	L322.748,7.364z"/>
<path fill="#010201" d="M333.901,9.678c0-0.807-0.285-1.586-1.358-1.586c-0.774,0-1.453,0.338-1.97,0.676l-0.447-0.741
	c0.61-0.377,1.534-0.819,2.594-0.819c1.616,0,2.295,1.027,2.295,2.601v3.874h-0.924l-0.095-0.754h-0.027
	c-0.639,0.494-1.371,0.91-2.187,0.91c-1.113,0-1.941-0.663-1.941-1.794C329.84,10.667,331.089,9.977,333.901,9.678z M332.094,12.98
	c0.639,0,1.168-0.299,1.807-0.845V10.38c-2.214,0.26-2.961,0.779-2.961,1.586C330.94,12.681,331.442,12.98,332.094,12.98z"/>
<circle fill="none" stroke="#010201" stroke-miterlimit="10" cx="259.927" cy="9.463" r="7.049"/>
</svg>
