<?xml version="1.0" encoding="utf-8"?>
<!-- Generator: Adobe Illustrator 17.0.0, SVG Export Plug-In . SVG Version: 6.00 Build 0)  -->
<!DOCTYPE svg PUBLIC "-//W3C//DTD SVG 1.1//EN" "http://www.w3.org/Graphics/SVG/1.1/DTD/svg11.dtd">
<svg version="1.1" id="Layer_1" xmlns="http://www.w3.org/2000/svg" xmlns:xlink="http://www.w3.org/1999/xlink" x="0px" y="0px"
	 width="600px" height="19.542px" viewBox="0 0 600 19.542" enable-background="new 0 0 600 19.542" xml:space="preserve">
<rect x="0" y="0" fill="#BF3160" width="600" height="19.542"/>
<line fill="none" stroke="#9F9F9F" stroke-width="0.7" stroke-miterlimit="10" stroke-dasharray="6,3" x1="199.426" y1="0" x2="199.426" y2="19.045"/>
<line fill="none" stroke="#9F9F9F" stroke-width="0.7" stroke-miterlimit="10" stroke-dasharray="6,3" x1="440.97" y1="0" x2="440.97" y2="19.045"/>
<g>
	<g>
		<g>
			<rect x="452.44" y="8.694" fill="#FFFCEE" width="8.96" height="2"/>
		</g>
		<g>
			<g>
				<circle fill="#FFFCEE" cx="461.276" cy="9.694" r="2.481"/>
			</g>
		</g>
	</g>
</g>
<path fill="#FFFCEE" d="M67.679,7.188C67.176,6.747,66.755,6.5,66.104,6.5c-0.733,0-1.182,0.363-1.182,1.04
	c0,1.56,3.694,1.248,3.694,3.874c0,1.234-0.761,2.145-2.105,2.379v1.339h-1.086v-1.3c-0.829-0.078-1.738-0.442-2.35-0.988
	l0.706-1.014c0.638,0.48,1.276,0.806,2.01,0.806c0.883,0,1.317-0.416,1.317-1.118c0-1.716-3.694-1.469-3.694-3.913
	c0-1.209,0.788-2.067,2.011-2.275V4.004h1.086v1.3c0.869,0.104,1.467,0.507,1.969,1.014L67.679,7.188z"/>
<path fill="#FFFCEE" d="M78.151,11.569h-1.086v2.133h-1.467v-2.133h-3.816v-1.014l3.423-5.122h1.86v4.979h1.086
	C78.151,10.412,78.151,11.569,78.151,11.569z M75.599,10.413V8.541c0-0.481,0.041-1.235,0.068-1.717h-0.055
	c-0.218,0.43-0.462,0.846-0.706,1.287l-1.575,2.302H75.599z"/>
<path fill="#FFFCEE" d="M79.649,12.011c0.326,0.364,0.855,0.624,1.385,0.624c1.087,0,1.97-0.767,2.037-3.055
	c-0.502,0.598-1.263,0.962-1.888,0.962c-1.48,0-2.512-0.832-2.512-2.562c0-1.65,1.235-2.704,2.716-2.704
	c1.684,0,3.123,1.248,3.123,4.03c0,3.211-1.616,4.55-3.395,4.55c-1.032,0-1.793-0.416-2.309-0.936L79.649,12.011z M83.029,8.502
	c-0.162-1.456-0.787-2.08-1.629-2.08c-0.706,0-1.29,0.559-1.29,1.56c0,0.976,0.502,1.482,1.371,1.482
	C81.971,9.464,82.555,9.19,83.029,8.502z"/>
<path fill="#FFFCEE" d="M85.313,12.831c2.404-2.224,3.911-3.68,3.911-4.94c0-0.871-0.502-1.43-1.426-1.43
	c-0.665,0-1.222,0.429-1.684,0.923l-0.869-0.832c0.787-0.807,1.575-1.274,2.757-1.274c1.656,0,2.729,1.001,2.729,2.535
	c0,1.469-1.426,2.978-3.137,4.706c0.448-0.039,1.019-0.091,1.439-0.091h2.118v1.274h-5.84v-0.871
	C85.311,12.831,85.313,12.831,85.313,12.831z"/>
<path fill="#FFFCEE" d="M98.039,11.569h-1.086v2.133h-1.467v-2.133H91.67v-1.014l3.423-5.122h1.86v4.979h1.086
	C98.039,10.412,98.039,11.569,98.039,11.569z M95.486,10.413V8.541c0-0.481,0.041-1.235,0.067-1.717H95.5
	c-0.218,0.43-0.462,0.846-0.706,1.287l-1.575,2.302H95.486z"/>
<path fill="#FFFCEE" d="M103.515,7.124C103.203,6.76,102.66,6.5,102.144,6.5c-1.087,0-1.97,0.767-2.037,3.055
	c0.502-0.611,1.249-0.975,1.874-0.975c1.494,0,2.525,0.832,2.525,2.561c0,1.651-1.235,2.717-2.716,2.717
	c-1.697,0-3.137-1.261-3.137-4.043c0-3.211,1.63-4.537,3.395-4.537c1.046,0,1.793,0.416,2.309,0.937L103.515,7.124z M103.054,11.14
	c0-0.975-0.503-1.469-1.358-1.469c-0.489,0-1.06,0.26-1.548,0.949c0.162,1.469,0.773,2.093,1.615,2.093
	C102.483,12.714,103.054,12.155,103.054,11.14z"/>
<path fill="#FFFCEE" d="M105.323,15.249c0.869-0.325,1.371-0.91,1.371-1.573c-0.041,0-0.081,0-0.122,0
	c-0.529,0-1.005-0.338-1.005-0.923c0-0.56,0.476-0.923,1.046-0.923c0.733,0,1.168,0.571,1.168,1.534
	c0,1.273-0.774,2.262-2.119,2.704L105.323,15.249z"/>
<path fill="#FFFCEE" d="M108.597,12.831c2.404-2.224,3.911-3.68,3.911-4.94c0-0.871-0.502-1.43-1.426-1.43
	c-0.665,0-1.222,0.429-1.684,0.923l-0.869-0.832c0.787-0.807,1.575-1.274,2.757-1.274c1.656,0,2.729,1.001,2.729,2.535
	c0,1.469-1.426,2.978-3.137,4.706c0.448-0.039,1.019-0.091,1.439-0.091h2.118v1.274h-5.84v-0.871
	C108.595,12.831,108.597,12.831,108.597,12.831z"/>
<path fill="#FFFCEE" d="M119.396,6.694h-4.088V5.433h5.799v0.91c-2.023,2.405-2.377,4.134-2.526,7.358h-1.589
	C117.141,10.763,117.725,8.918,119.396,6.694z"/>
<path fill="#FFFCEE" d="M126.337,14.221v2.002h-1.562V7.318h1.29l0.109,0.677h0.054c0.557-0.455,1.276-0.832,2.01-0.832
	c1.657,0,2.621,1.273,2.621,3.25c0,2.184-1.371,3.444-2.852,3.444c-0.584,0-1.168-0.26-1.711-0.701L126.337,14.221z M127.682,12.623
	c0.883,0,1.562-0.754,1.562-2.197c0-1.274-0.435-2.028-1.439-2.028c-0.488,0-0.95,0.234-1.467,0.715v2.978
	C126.826,12.479,127.288,12.623,127.682,12.623z"/>
<path fill="#FFFCEE" d="M134.434,4.471h1.06l-3.164,11.311h-1.06L134.434,4.471z"/>
<path fill="#FFFCEE" d="M139.012,7.163c0.855,0,1.508,0.324,1.956,0.74l-0.747,0.949c-0.354-0.299-0.706-0.468-1.127-0.468
	c-1.073,0-1.82,0.845-1.82,2.132c0,1.274,0.733,2.119,1.779,2.119c0.543,0,1.005-0.26,1.371-0.546l0.652,0.949
	c-0.625,0.533-1.426,0.818-2.187,0.818c-1.82,0-3.219-1.222-3.219-3.341C135.671,8.384,137.233,7.163,139.012,7.163z"/>
<path fill="#FFFCEE" d="M279.833,5.225h1.996v4.746c0,1.664,0.544,2.235,1.535,2.235s1.575-0.571,1.575-2.235V5.225h1.929v4.551
	c0,2.847-1.209,4.082-3.504,4.082s-3.531-1.235-3.531-4.082V5.225z"/>
<path fill="#FFFCEE" d="M289.261,11.323c0.625,0.52,1.439,0.884,2.173,0.884c0.828,0,1.235-0.312,1.235-0.819
	c0-0.533-0.502-0.701-1.276-1.014l-1.141-0.469c-0.924-0.35-1.793-1.078-1.793-2.313c0-1.403,1.317-2.522,3.151-2.522
	c1.019,0,2.091,0.391,2.852,1.119l-1.005,1.209c-0.584-0.43-1.141-0.677-1.847-0.677c-0.68,0-1.128,0.286-1.128,0.767
	c0,0.521,0.584,0.703,1.358,1.002l1.127,0.441c1.073,0.416,1.752,1.105,1.752,2.301c0,1.404-1.222,2.627-3.327,2.627
	c-1.154,0-2.376-0.416-3.286-1.223L289.261,11.323z"/>
<path fill="#FFFCEE" d="M300.304,11.686h-2.716l-0.543,2.016h-2.037l2.783-8.477h2.391l2.784,8.477h-2.119L300.304,11.686z
	 M299.897,10.192l-0.218-0.78c-0.244-0.845-0.475-1.847-0.72-2.729h-0.054c-0.204,0.896-0.448,1.885-0.692,2.729l-0.218,0.78
	H299.897z"/>
<path fill="#C0305F" d="M224.571,12.155h1.874V7.383h-1.615V6.2c0.937-0.168,1.534-0.402,2.146-0.754h1.467v6.709h1.616v1.547
	h-5.487L224.571,12.155L224.571,12.155z"/>
<circle fill="none" stroke="#010201" stroke-miterlimit="10" cx="259.817" cy="9.694" r="7.049"/>
<g>
	<g>
		<g>
			<g>
				<defs>
					<circle id="SVGID_1_" cx="259.817" cy="9.694" r="7.049"/>
				</defs>
				<clipPath id="SVGID_2_">
					<use xlink:href="#SVGID_1_"  overflow="visible"/>
				</clipPath>
				<g clip-path="url(#SVGID_2_)">
					<g>
						<path fill="#FBFBFB" d="M278.031,1.609c0.032,0.018,0.088-0.036,0.1,0.026c0.01,0.057,0.002,0.118,0.002,0.178
							c0,5.001-0.001,10.002,0.005,15.003c0,0.174-0.034,0.208-0.208,0.208c-9.629-0.005-19.258-0.005-28.887-0.002
							c-0.137,0-0.209,0.006-0.209-0.18c0.007-5.018,0.005-10.036,0.011-15.054c0-0.052-0.081-0.15,0.046-0.178
							c0.105,0.124,0.071,0.274,0.071,0.415c0.002,2.623,0.001,5.247,0.002,7.87c-0.002,1.589,0,3.179,0,4.768
							c-0.002,0.632-0.001,1.265,0,1.898c0,0.107-0.022,0.223,0.087,0.3c0.096,0.053,0.199,0.036,0.3,0.036
							c9.404,0.001,18.809,0.001,28.213,0c0.116,0,0.24,0.026,0.34-0.063c0.106-0.144,0.047-0.309,0.055-0.464
							c0.01-0.209,0.002-0.419,0.002-0.628c0.001-0.387,0.001-0.773,0-1.16c0.001-0.39,0.001-0.779,0-1.169
							c0.001-0.39,0.001-0.78,0-1.17c0.001-0.407,0.001-0.813,0-1.22c0.001-0.39,0.001-0.78,0-1.17c0.001-0.373,0.001-0.747,0-1.12
							c0.001-0.406,0.001-0.813,0-1.219c0.001-0.39,0.001-0.78,0-1.17c0.001-0.39,0.001-0.78,0-1.17
							c0.001-0.423,0.001-0.845,0-1.268c0.002-0.355,0.001-0.71,0-1.065c0.013-0.383-0.023-0.766,0.021-1.148
							C277.993,1.661,278.01,1.634,278.031,1.609z"/>
						<path fill="#5E6E92" d="M248.905,9.895c-0.002-2.669-0.004-5.338-0.006-8.007c0-0.093-0.006-0.186-0.009-0.279
							c3.696,0,7.391,0,11.087,0c0.003,0.037-0.012,0.065-0.042,0.085c-0.152,0.075-0.316,0.05-0.475,0.05
							c-3.319,0.002-6.639,0.001-9.958,0.001c-0.475,0-0.476,0-0.476,0.471c0,2.363,0,4.725,0,7.088
							c0,0.152,0.007,0.305-0.011,0.457c-0.006,0.032-0.016,0.063-0.03,0.093C248.967,9.885,248.94,9.899,248.905,9.895z"/>
						<path fill="#9F4154" d="M259.955,1.663c0.007-0.018,0.014-0.036,0.022-0.054c6.018,0,12.036,0,18.055,0
							c-0.001,0.017-0.001,0.034-0.002,0.05c-0.026,0.023-0.054,0.041-0.086,0.055c-0.123,0.042-0.251,0.03-0.378,0.03
							c-5.716,0.001-11.432,0.001-17.147,0c-0.127,0-0.254,0.009-0.379-0.025C260.007,1.708,259.979,1.689,259.955,1.663z"/>
						<path fill="#8E1822" d="M278.029,16.918c-0.056,0.102-0.151,0.048-0.225,0.048c-9.547,0.003-19.095,0.003-28.642,0.002
							c-0.076,0-0.151-0.009-0.227-0.015c0.006-0.036,0.025-0.062,0.057-0.079c0.121-0.053,0.25-0.041,0.376-0.041
							c9.407-0.001,18.815-0.001,28.222,0c0.118,0,0.238-0.009,0.353,0.03C277.975,16.876,278.003,16.895,278.029,16.918z"/>
						<path fill="#808080" d="M248.905,9.895c0.022,0.001,0.044,0.001,0.065,0.002c0.096,0.054,0.096,0.151,0.097,0.241
							c0.003,0.29,0.021,0.581-0.016,0.871c-0.05,0.414-0.049,0.828,0,1.242c0.032,0.379,0.033,0.757,0.001,1.136
							c-0.066,0.37-0.021,0.743-0.034,1.114c-0.008,0.056,0.007,0.114-0.012,0.169c-0.033,0.036-0.069,0.04-0.108,0.01
							c-0.003-1.553-0.005-3.106-0.007-4.659C248.891,9.979,248.9,9.937,248.905,9.895z"/>
						<path fill="#808080" d="M248.899,14.68c0.028,0,0.056,0,0.084,0c0.104,0.089,0.089,0.213,0.089,0.328
							c0,0.243,0.018,0.488-0.019,0.73c-0.051,0.274-0.024,0.551-0.031,0.826c-0.003,0.125,0.008,0.253-0.073,0.362
							c-0.003,0.01-0.008,0.018-0.014,0.026c-0.044-0.026-0.039-0.07-0.039-0.11C248.897,16.122,248.898,15.401,248.899,14.68z"/>
						<path fill="#8E1822" d="M278.03,3.909c0,0.419,0,0.838,0,1.257c-0.034,0.006-0.06-0.006-0.08-0.034
							c-0.077-0.398-0.078-0.797,0-1.195C277.969,3.908,277.996,3.898,278.03,3.909z"/>
						<path fill="#8D1823" d="M278.03,11.029c0,0.4,0,0.799,0,1.199c-0.032,0.012-0.057,0.004-0.077-0.023
							c-0.094-0.363-0.042-0.73-0.033-1.097c0.007-0.029,0.019-0.055,0.037-0.079C277.981,11.003,278.006,11.003,278.03,11.029z"/>
						<path fill="#423E3F" d="M278.03,7.505c0,0.408,0,0.816,0,1.224c-0.034,0.004-0.06-0.008-0.08-0.036
							c-0.076-0.383-0.076-0.766,0-1.149C277.969,7.516,277.996,7.503,278.03,7.505z"/>
						<path fill="#8E1822" d="M278.03,7.505c-0.016,0.008-0.033,0.015-0.049,0.023c-0.024-0.02-0.041-0.045-0.052-0.074
							c-0.029-0.36-0.065-0.721,0.022-1.079c0.02-0.028,0.046-0.037,0.079-0.029C278.029,6.732,278.03,7.119,278.03,7.505z"/>
						<path fill="#413F3F" d="M278.03,11.029c-0.016-0.006-0.031-0.012-0.047-0.017c-0.091-0.084-0.085-0.198-0.08-0.304
							c0.012-0.273-0.048-0.551,0.045-0.82c0.02-0.029,0.047-0.042,0.082-0.039C278.03,10.242,278.03,10.636,278.03,11.029z"/>
						<path fill="#3F3F3F" d="M277.991,12.227c0.013,0.004,0.026,0.004,0.039,0.001c0,0.396,0,0.791,0,1.187
							c-0.015,0.002-0.03,0.004-0.044,0.005c-0.025-0.018-0.042-0.041-0.054-0.07c-0.041-0.352-0.045-0.705,0.001-1.057
							C277.945,12.265,277.964,12.243,277.991,12.227z"/>
						<path fill="#8E1822" d="M277.992,13.415c0.013-0.003,0.025-0.003,0.038,0c0,0.386,0,0.771,0,1.157
							c-0.035,0.007-0.062-0.005-0.082-0.035C277.893,14.16,277.822,13.783,277.992,13.415z"/>
						<path fill="#8D1822" d="M277.977,1.664c0.017-0.002,0.035-0.003,0.052-0.005c0,0.386,0,0.773,0,1.159
							c-0.035,0.01-0.062,0-0.081-0.031C277.883,2.412,277.842,2.036,277.977,1.664z"/>
						<path fill="#3F3F3F" d="M277.992,14.572c0.013,0.003,0.025,0.003,0.038,0c0,0.394,0,0.788,0,1.183
							c-0.015,0.002-0.029,0.004-0.044,0.006c-0.025-0.018-0.042-0.041-0.054-0.069c-0.041-0.351-0.045-0.702,0.002-1.053
							C277.945,14.609,277.965,14.587,277.992,14.572z"/>
						<path fill="#8E1822" d="M277.992,15.754c0.013-0.003,0.025-0.003,0.038,0c0,0.388,0,0.776-0.001,1.163
							c-0.017,0-0.034-0.001-0.051-0.001C277.861,16.528,277.829,16.14,277.992,15.754z"/>
						<path fill="#403F3F" d="M278.029,6.346l-0.019-0.002l-0.019,0.002c-0.012-0.009-0.024-0.019-0.036-0.028
							c-0.093-0.359-0.058-0.721-0.023-1.082c0.012-0.029,0.032-0.052,0.06-0.068c0.013,0.002,0.025,0.002,0.038-0.001
							C278.03,5.559,278.029,5.952,278.029,6.346z"/>
						<path fill="#8E1822" d="M278.03,9.849c-0.017,0.011-0.034,0.022-0.051,0.033c-0.024-0.02-0.041-0.045-0.051-0.075
							c-0.039-0.346-0.039-0.692-0.001-1.038c0.011-0.029,0.028-0.054,0.052-0.074c0.017,0.011,0.034,0.022,0.051,0.033
							C278.03,9.102,278.03,9.476,278.03,9.849z"/>
						<path fill="#3F3F3F" d="M277.991,2.819c0.013,0.004,0.026,0.004,0.039,0.001c0,0.363,0,0.726,0,1.09l-0.02-0.002l-0.019,0.003
							c-0.012-0.01-0.024-0.019-0.036-0.029c-0.09-0.329-0.06-0.661-0.023-0.993C277.944,2.858,277.964,2.835,277.991,2.819z"/>
						<path fill="#3C5BA4" d="M248.948,9.86c-0.002-2.66,0-5.321-0.01-7.981c-0.001-0.251,0.137-0.219,0.291-0.219
							c2.965,0.001,5.931,0,8.896,0.001c0.61,0,1.22,0.002,1.83,0.003l0.012,0.006l0.01-0.009c0.087,0.097,0.081,0.217,0.081,0.334
							c-0.001,0.277,0.01,0.554-0.006,0.831c0.01,0.357,0.011,0.715,0,1.072c0.011,0.423,0.012,0.846,0,1.269
							c0.011,0.39,0.012,0.78,0,1.17c0.011,0.39,0.012,0.78,0,1.171c0.011,0.408,0.012,0.816,0,1.224
							c0.015,0.284,0.007,0.567,0.005,0.851c-0.001,0.1-0.003,0.202-0.074,0.284c-0.113,0.078-0.243,0.067-0.369,0.067
							c-3.424,0.001-6.848,0.001-10.273,0.001C249.206,9.934,249.07,9.931,248.948,9.86z"/>
						<path fill="#FFFFFF" d="M248.948,9.86c0.059,0.003,0.118,0.009,0.177,0.009c3.557,0,7.114,0,10.671,0
							c0.059,0,0.118-0.006,0.177-0.009c0.069-0.076,0.16-0.089,0.255-0.094c0.085-0.004,0.169-0.003,0.254-0.003
							c5.659,0,11.319-0.001,16.978,0.002c0.172,0,0.36-0.052,0.506,0.097c-0.001,0.011,0.003,0.017,0.013,0.021
							c0.001,0.377,0.002,0.753,0.004,1.13l-0.012,0.016c-0.067,0.063-0.153,0.067-0.238,0.072
							c-0.085,0.005-0.169,0.003-0.254,0.003c-9.326,0-18.652,0-27.978-0.002c-0.173,0-0.359,0.048-0.511-0.087
							c-0.012-0.372,0.027-0.746-0.021-1.118C248.965,9.883,248.957,9.871,248.948,9.86z"/>
						<path fill="#BF192A" d="M259.983,2.822c-0.002-0.387-0.004-0.774-0.006-1.161c5.915,0,11.831,0,17.746,0
							c0.085,0,0.169,0.003,0.254,0.004c0.005,0.385,0.009,0.77,0.014,1.154l-0.013,0.012c-0.121,0.107-0.271,0.084-0.412,0.084
							c-1.346,0.002-2.693,0.001-4.039,0.001c-4.353,0-8.706,0-13.058-0.002C260.303,2.914,260.125,2.955,259.983,2.822z"/>
						<path fill="#BF192A" d="M277.992,15.754c-0.005,0.387-0.009,0.775-0.014,1.162c-9.558,0-19.116,0.001-28.673,0.001
							c-0.118,0-0.237,0.005-0.355,0.008c-0.004-0.352-0.008-0.704-0.011-1.056c0-0.05,0-0.102,0.054-0.13
							c0.076-0.066,0.169-0.072,0.263-0.076c0.093-0.003,0.186-0.002,0.279-0.002c9.3,0,18.601,0,27.901,0.002
							c0.182,0,0.375-0.047,0.541,0.078L277.992,15.754z"/>
						<path fill="#BF192A" d="M248.991,11.015c0.11,0.004,0.22,0.012,0.329,0.012c9.55,0.001,19.101,0.001,28.651,0.002
							c0.007,0.4,0.013,0.8,0.02,1.199l-0.013,0.012c-0.073,0.07-0.166,0.078-0.26,0.083c-0.085,0.004-0.169,0.003-0.254,0.003
							c-9.319,0-18.638,0-27.957-0.002c-0.174,0-0.359,0.04-0.516-0.08C248.902,11.833,248.902,11.424,248.991,11.015z"/>
						<path fill="#BF192A" d="M277.992,13.415c0,0.386,0,0.771,0,1.157l-0.015,0.012c-0.067,0.062-0.151,0.072-0.236,0.077
							c-0.076,0.004-0.152,0.003-0.229,0.003c-9.359,0-18.719,0-28.078,0c-0.168,0-0.341,0.021-0.492-0.085
							c-0.002-0.333-0.005-0.666-0.004-0.999c0-0.063-0.019-0.136,0.054-0.179c0.076-0.066,0.169-0.072,0.263-0.076
							c0.085-0.003,0.169-0.002,0.254-0.002c9.317,0,18.635,0,27.952,0.002c0.174,0,0.358-0.043,0.516,0.078L277.992,13.415z"/>
						<path fill="#FFFFFF" d="M248.943,14.578c9.61,0,19.221,0,28.831,0c0.068,0,0.135,0.003,0.203,0.005c0,0.386,0,0.773,0,1.159
							c-0.068,0.002-0.135,0.005-0.203,0.005c-9.518,0-19.035,0-28.553,0c-0.076,0-0.152-0.005-0.228-0.007
							c-0.003-0.353-0.006-0.707-0.01-1.06C248.969,14.646,248.956,14.612,248.943,14.578z"/>
						<path fill="#FFFFFF" d="M277.977,13.403c-0.068,0.002-0.135,0.005-0.203,0.005c-9.518,0-19.035,0-28.553,0
							c-0.076,0-0.152-0.005-0.228-0.008c-0.001-0.386-0.001-0.772-0.002-1.158c0.084-0.004,0.169-0.012,0.253-0.012
							c9.494-0.001,18.987-0.001,28.481,0c0.084,0,0.169,0.006,0.253,0.009C277.977,12.627,277.977,13.015,277.977,13.403z"/>
						<path fill="#BF192A" d="M259.982,5.178c0-0.424,0.001-0.848,0.001-1.272c0.062-0.068,0.144-0.084,0.23-0.09
							c0.076-0.005,0.152-0.004,0.229-0.004c5.691,0,11.382,0,17.072,0.001c0.158,0,0.325-0.033,0.463,0.084l0.013,0.012
							c0,0.419,0.001,0.839,0.001,1.258l-0.016,0.018c-0.153,0.105-0.328,0.069-0.494,0.069c-4.89,0.002-9.779,0.002-14.669,0.002
							c-0.814,0-1.627,0.001-2.441-0.001C260.239,5.253,260.098,5.275,259.982,5.178z"/>
						<path fill="#FFFFFF" d="M259.985,8.705c-0.03-0.396-0.024-0.792-0.002-1.188c0.069-0.075,0.161-0.087,0.256-0.091
							c0.076-0.004,0.152-0.003,0.229-0.003c5.673,0,11.345,0,17.018,0.002c0.165,0,0.342-0.042,0.485,0.089l0.012,0.013
							c-0.001,0.39-0.001,0.779-0.002,1.168c-0.01,0.003-0.015,0.01-0.013,0.02c-0.064,0.084-0.159,0.089-0.252,0.095
							c-0.085,0.005-0.169,0.004-0.254,0.004c-5.659,0-11.318,0.001-16.977-0.003C260.314,8.812,260.122,8.873,259.985,8.705z"/>
						<path fill="#BF192A" d="M277.969,7.514c-5.242,0.001-10.484,0.002-15.726,0.003c-0.754,0-1.507,0-2.261,0.001
							c-0.001-0.393-0.001-0.786-0.002-1.179c0.129-0.113,0.288-0.084,0.437-0.084c1.405-0.002,2.811-0.001,4.216-0.001
							c4.284,0,8.568,0,12.852,0.002c0.166,0,0.341-0.039,0.49,0.079l0.015,0.012C277.984,6.735,277.977,7.125,277.969,7.514z"/>
						<path fill="#FFFFFF" d="M277.977,6.334c-0.068,0.002-0.135,0.005-0.203,0.005c-5.931,0-11.862,0-17.793,0
							c-0.021-0.387-0.023-0.774,0.002-1.16c5.939,0,11.878,0,17.816,0c0.059,0,0.118,0.004,0.178,0.007
							C277.976,5.568,277.977,5.951,277.977,6.334z"/>
						<path fill="#BF192A" d="M259.985,8.705c5.892,0,11.785,0.001,17.677,0.001c0.101,0,0.203,0.006,0.304,0.009
							c0.024,0.382,0.024,0.764,0,1.146c-0.068,0.003-0.135,0.009-0.203,0.009c-5.854,0-11.708,0-17.563,0
							c-0.076,0-0.152-0.007-0.228-0.011C259.977,9.475,259.981,9.09,259.985,8.705z"/>
						<path fill="#FFFFFF" d="M277.978,3.898c-0.076,0.003-0.152,0.009-0.228,0.009c-5.922,0-11.844,0-17.766,0
							c-0.026-0.362-0.026-0.723,0-1.085c5.922,0,11.844,0,17.766,0c0.076,0,0.152,0.006,0.228,0.009
							C277.978,3.186,277.978,3.542,277.978,3.898z"/>
						<path fill="#F3F4FA" d="M258.747,5.645c0.198,0.011,0.349,0.012,0.357-0.239c0.08,0.19,0.169,0.309,0.383,0.233
							c-0.127,0.146-0.247,0.276-0.127,0.477c-0.147-0.095-0.281-0.174-0.441-0.02C258.993,5.902,258.889,5.779,258.747,5.645z"/>
						<path fill="#F3F4FA" d="M249.871,5.391c0.033,0.232,0.159,0.287,0.391,0.244c-0.144,0.145-0.269,0.259-0.16,0.457
							c-0.236-0.107-0.236-0.107-0.446,0.03c0.036-0.174,0.078-0.343-0.198-0.442C249.685,5.644,249.866,5.638,249.871,5.391z"/>
						<path fill="#F2F4FA" d="M251.726,5.427c0.049,0.201,0.172,0.257,0.413,0.196c-0.162,0.168-0.35,0.245-0.183,0.469
							c-0.185-0.122-0.317-0.113-0.443,0.038c0.04-0.19,0.063-0.358-0.16-0.456C251.52,5.647,251.698,5.66,251.726,5.427z"/>
						<path fill="#F2F4FA" d="M256.915,5.681c0.188-0.013,0.315-0.059,0.361-0.255c0.032,0.216,0.18,0.232,0.402,0.226
							c-0.215,0.138-0.293,0.276-0.181,0.487c-0.145-0.21-0.291-0.111-0.483-0.019C257.121,5.919,257.129,5.775,256.915,5.681z"/>
						<path fill="#F4F5FA" d="M253.219,5.673c0.177-0.01,0.318-0.037,0.355-0.253c0.046,0.197,0.179,0.245,0.43,0.236
							c-0.27,0.13-0.281,0.275-0.192,0.46c-0.154-0.118-0.304-0.165-0.491-0.001C253.494,5.89,253.374,5.785,253.219,5.673z"/>
						<path fill="#F3F4FA" d="M256.554,3.495c-0.147-0.118-0.271-0.145-0.416-0.007c0.059-0.184-0.018-0.305-0.208-0.434
							c0.224,0.011,0.376-0.003,0.382-0.241c0.089,0.154,0.134,0.319,0.402,0.196C256.584,3.196,256.442,3.306,256.554,3.495z"/>
						<path fill="#F2F3F9" d="M252.414,3.435c0.134-0.192-0.066-0.243-0.149-0.372c0.189,0.009,0.317-0.054,0.346-0.29
							c0.088,0.18,0.123,0.371,0.398,0.235c-0.109,0.179-0.274,0.272-0.169,0.467C252.698,3.367,252.566,3.388,252.414,3.435z"/>
						<path fill="#F1F3F9" d="M257.467,4.296c-0.154-0.147-0.283-0.084-0.474,0.068c0.126-0.242,0.076-0.371-0.169-0.49
							c0.255,0,0.435-0.005,0.424-0.266c0.059,0.192,0.146,0.309,0.425,0.237C257.492,3.991,257.374,4.098,257.467,4.296z"/>
						<path fill="#F3F5FA" d="M255.779,5.649c-0.13,0.25-0.286,0.425-0.566,0.435c0.058-0.15,0.035-0.304-0.161-0.409
							c0.271-0.043,0.271-0.043,0.379-0.282C255.47,5.59,255.574,5.692,255.779,5.649z"/>
						<path fill="#F6F7FB" d="M253.167,2.308c0.194-0.01,0.345-0.034,0.359-0.336c0.075,0.249,0.179,0.353,0.387,0.322
							c-0.143,0.118-0.222,0.243-0.144,0.431c-0.155-0.134-0.295-0.124-0.447,0.006C253.402,2.541,253.354,2.409,253.167,2.308z"/>
						<path fill="#F5F7FB" d="M251.686,2.063c0.048,0.235,0.208,0.225,0.381,0.214c-0.05,0.142-0.304,0.173-0.167,0.399
							c-0.171-0.111-0.294-0.031-0.435,0.06c0.11-0.203,0.025-0.327-0.216-0.452C251.483,2.289,251.643,2.282,251.686,2.063z"/>
						<path fill="#F5F6FB" d="M254.988,2.286c0.208-0.022,0.403,0.056,0.393-0.248c0.068,0.233,0.205,0.273,0.453,0.213
							c-0.181,0.166-0.348,0.261-0.201,0.484c-0.169-0.161-0.306-0.117-0.463,0.002C255.285,2.532,255.181,2.412,254.988,2.286z"/>
						<path fill="#F4F5FA" d="M251.102,3.052c-0.046,0.352-0.311,0.372-0.587,0.431c0.187-0.191,0.04-0.291-0.103-0.393
							c0.255-0.056,0.255-0.056,0.375-0.264C250.846,2.988,250.922,3.12,251.102,3.052z"/>
						<path fill="#F5F7FB" d="M257.036,2.745c0.125-0.23-0.028-0.328-0.185-0.473c0.235,0.04,0.356-0.026,0.396-0.227
							c0.05,0.195,0.169,0.271,0.388,0.231c-0.116,0.148-0.321,0.228-0.101,0.476C257.328,2.672,257.188,2.504,257.036,2.745z"/>
						<path fill="#F3F5FA" d="M257.823,3.045c0.193,0.036,0.314-0.017,0.35-0.282c0.057,0.246,0.171,0.326,0.407,0.285
							c-0.152,0.142-0.302,0.23-0.174,0.427c-0.13-0.053-0.241-0.134-0.367-0.037c-0.015,0.011-0.105,0.017-0.066-0.051
							C258.071,3.215,257.866,3.189,257.823,3.045z"/>
						<path fill="#F3F4FA" d="M253.912,3.895c-0.19,0.092-0.189,0.234-0.145,0.406c-0.151-0.159-0.287-0.08-0.485,0.049
							c0.125-0.232,0.109-0.375-0.111-0.46c0.192-0.024,0.373,0.004,0.38-0.27C253.604,3.835,253.726,3.892,253.912,3.895z"/>
						<path fill="#F2F4FA" d="M251.931,4.309c-0.154-0.105-0.282-0.199-0.422,0.025c0.046-0.2,0.025-0.345-0.158-0.449
							c0.208,0.02,0.299-0.092,0.354-0.303c0.058,0.213,0.124,0.358,0.36,0.276C251.951,3.998,251.814,4.11,251.931,4.309z"/>
						<path fill="#F7F8FB" d="M253.911,9.056c-0.161,0.108-0.215,0.238-0.09,0.48c-0.206-0.182-0.351-0.228-0.502-0.038
							c0.066-0.194,0.055-0.335-0.146-0.427c0.205-0.002,0.335-0.079,0.37-0.349C253.593,8.973,253.685,9.092,253.911,9.056z"/>
						<path fill="#F5F6FB" d="M250.783,6.239c0.044,0.219,0.155,0.298,0.422,0.245c-0.213,0.139-0.295,0.262-0.131,0.501
							c-0.199-0.127-0.334-0.209-0.501-0.073c0.098-0.207-0.019-0.305-0.167-0.4C250.616,6.538,250.743,6.462,250.783,6.239z"/>
						<path fill="#F3F4FA" d="M259.136,3.6c0.019,0.245,0.138,0.292,0.377,0.257c-0.197,0.136-0.241,0.27-0.171,0.498
							c-0.178-0.196-0.307-0.17-0.446-0.035c0.041-0.175,0.047-0.326-0.147-0.414C259.005,3.846,259.005,3.846,259.136,3.6z"/>
						<path fill="#F9FAFD" d="M255.99,8.239c0.206,0.021,0.326-0.047,0.343-0.29c0.098,0.16,0.121,0.374,0.382,0.265
							c-0.174,0.128-0.195,0.278-0.148,0.462c-0.15-0.178-0.292-0.158-0.446,0.005C256.198,8.487,256.185,8.344,255.99,8.239z"/>
						<path fill="#F9FAFC" d="M250.444,8.246c0.2-0.001,0.337-0.044,0.33-0.318c0.112,0.185,0.142,0.39,0.397,0.285
							c-0.159,0.131-0.222,0.265-0.142,0.457c-0.156-0.17-0.297-0.135-0.459,0.028C250.61,8.508,250.693,8.337,250.444,8.246z"/>
						<path fill="#F2F4F9" d="M255.619,4.295c-0.165-0.163-0.285-0.084-0.449,0.051c0.096-0.221,0.058-0.355-0.114-0.457
							c0.177-0.005,0.315-0.041,0.352-0.255c0.051,0.207,0.165,0.284,0.388,0.207C255.703,4,255.482,4.057,255.619,4.295z"/>
						<path fill="#F6F7FB" d="M258.717,2.273c0.207,0.031,0.347-0.007,0.361-0.293c0.071,0.238,0.164,0.35,0.407,0.283
							c-0.128,0.152-0.288,0.249-0.167,0.448c-0.149-0.08-0.284-0.146-0.459-0.005C259.056,2.463,258.808,2.427,258.717,2.273z"/>
						<path fill="#F9F9FC" d="M255.643,7.798c-0.146-0.089-0.263-0.18-0.42-0.022c0.073-0.199-0.049-0.29-0.218-0.416
							c0.226,0.02,0.366-0.022,0.402-0.241c0.045,0.222,0.182,0.272,0.409,0.228C255.663,7.488,255.505,7.591,255.643,7.798z"/>
						<path fill="#F2F4FA" d="M254.1,3.092c0.278-0.056,0.278-0.056,0.406-0.271c0.006,0.229,0.157,0.241,0.341,0.238
							c-0.102,0.139-0.304,0.209-0.131,0.428c-0.182-0.135-0.321-0.12-0.471,0.023C254.357,3.309,254.291,3.185,254.1,3.092z"/>
						<path fill="#F5F6FB" d="M258.17,6.247c0.06,0.198,0.156,0.299,0.366,0.267c-0.17,0.104-0.206,0.238-0.09,0.476
							c-0.198-0.178-0.336-0.193-0.493,0.005c0.025-0.209,0.123-0.395-0.154-0.465C257.999,6.507,258.174,6.506,258.17,6.247z"/>
						<path fill="#F5F6FB" d="M252.868,6.95c-0.168-0.141-0.307-0.144-0.486,0.053c0.081-0.228,0.104-0.381-0.109-0.475
							c0.203,0.002,0.312-0.093,0.346-0.309c0.075,0.181,0.109,0.368,0.365,0.27C252.851,6.629,252.737,6.75,252.868,6.95z"/>
						<path fill="#F6F7FB" d="M249.614,2.686c0.202-0.23-0.071-0.259-0.14-0.398c0.178,0.005,0.336-0.021,0.361-0.245
							c0.032,0.218,0.167,0.265,0.406,0.226c-0.187,0.152-0.298,0.283-0.18,0.492C249.932,2.622,249.8,2.58,249.614,2.686z"/>
						<path fill="#FAFBFD" d="M252.281,4.781c0.196,0.005,0.332-0.025,0.357-0.259c0.073,0.181,0.159,0.29,0.395,0.221
							c-0.15,0.152-0.266,0.27-0.171,0.467c-0.151-0.148-0.286-0.126-0.437,0.006C252.503,5.026,252.482,4.879,252.281,4.781z"/>
						<path fill="#FAFAFD" d="M256.33,4.513c0.058,0.2,0.162,0.294,0.431,0.233c-0.196,0.14-0.297,0.256-0.147,0.488
							c-0.196-0.111-0.338-0.221-0.476-0.008c0.035-0.19,0.061-0.352-0.167-0.435C256.158,4.767,256.33,4.766,256.33,4.513z"/>
						<path fill="#FAFBFD" d="M253.782,7.814c-0.163-0.221-0.301-0.102-0.488,0.017c0.122-0.216,0.088-0.35-0.104-0.446
							c0.172-0.019,0.337-0.019,0.362-0.248c0.073,0.177,0.176,0.28,0.428,0.181C253.838,7.494,253.64,7.578,253.782,7.814z"/>
						<path fill="#F5F6FB" d="M256.745,6.515c-0.243,0.109-0.261,0.242-0.146,0.45c-0.187-0.103-0.334-0.223-0.474,0.005
							c0.009-0.185,0.124-0.369-0.169-0.437c0.229,0.003,0.335-0.096,0.373-0.296C256.431,6.49,256.431,6.49,256.745,6.515z"/>
						<path fill="#F9FAFC" d="M251.33,7.37c0.226,0.036,0.315-0.085,0.388-0.302c0.03,0.262,0.162,0.321,0.375,0.288
							c-0.094,0.145-0.34,0.209-0.128,0.441c-0.181-0.107-0.325-0.162-0.474,0.004C251.585,7.603,251.512,7.472,251.33,7.37z"/>
						<path fill="#F2F3F9" d="M249.884,3.605c0.016,0.237,0.124,0.298,0.33,0.243c-0.075,0.16-0.335,0.22-0.12,0.448
							c-0.187-0.14-0.319-0.081-0.467,0.02c0.082-0.178,0.066-0.318-0.115-0.402c0.068-0.085,0.165-0.015,0.216-0.067
							C249.778,3.795,249.809,3.725,249.884,3.605z"/>
						<path fill="#F9F9FC" d="M250.429,4.78c0.222,0.025,0.318-0.066,0.356-0.294c0.07,0.207,0.155,0.336,0.373,0.286
							c-0.139,0.116-0.243,0.232-0.13,0.427c-0.159-0.116-0.304-0.132-0.486,0.055C250.63,5.028,250.644,4.876,250.429,4.78z"/>
						<path fill="#FAFBFD" d="M257.247,7.105c0.116,0.245,0.116,0.245,0.371,0.26c-0.041,0.131-0.287,0.182-0.081,0.442
							c-0.212-0.12-0.349-0.15-0.502,0.042c0.056-0.218,0.058-0.365-0.18-0.456C257.062,7.354,257.242,7.346,257.247,7.105z"/>
						<path fill="#F3F4FA" d="M255.031,9.041c0.193,0.007,0.353,0.021,0.339-0.237c0.084,0.191,0.201,0.279,0.464,0.224
							c-0.202,0.142-0.339,0.241-0.194,0.446c-0.147-0.06-0.27-0.195-0.422-0.016C255.25,9.278,255.17,9.16,255.031,9.041z"/>
						<path fill="#F6F7FB" d="M259.444,9.053c-0.113,0.122-0.261,0.213-0.104,0.419c-0.164-0.116-0.302-0.123-0.464-0.017
							c0.103-0.19,0.009-0.292-0.211-0.41c0.262,0.021,0.405-0.03,0.407-0.313C259.152,8.954,259.216,9.104,259.444,9.053z"/>
						<path fill="#F6F7FB" d="M257.615,9.045c-0.165,0.122-0.249,0.242-0.136,0.436c-0.152-0.11-0.288-0.171-0.431,0.008
							c0.06-0.186,0.029-0.328-0.155-0.43c0.223,0.029,0.323-0.078,0.355-0.281C257.31,8.959,257.359,9.122,257.615,9.045z"/>
						<path fill="#FBFBFD" d="M254.286,5.21c0.053-0.18,0.049-0.328-0.158-0.419c0.171-0.026,0.337-0.012,0.353-0.251
							c0.06,0.207,0.19,0.258,0.426,0.208c-0.181,0.14-0.287,0.256-0.17,0.45C254.58,5.113,254.434,5.044,254.286,5.21z"/>
						<path fill="#F5F6FB" d="M251.492,9.451c0.077-0.188-0.001-0.288-0.196-0.374c0.195-0.044,0.392-0.029,0.365-0.296
							c0.088,0.196,0.17,0.338,0.409,0.261c-0.165,0.117-0.249,0.243-0.179,0.445C251.771,9.338,251.65,9.337,251.492,9.451z"/>
						<path fill="#F4F6FA" d="M249.602,9.455c0.185-0.221-0.026-0.284-0.146-0.412c0.207,0.012,0.364-0.009,0.359-0.253
							c0.078,0.169,0.144,0.323,0.428,0.223c-0.171,0.155-0.31,0.259-0.182,0.458C249.91,9.357,249.766,9.346,249.602,9.455z"/>
						<path fill="#FAFBFD" d="M258.449,8.651c-0.144-0.075-0.268-0.186-0.45,0.046c0.044-0.228,0.023-0.369-0.151-0.456
							c0.21,0.017,0.334-0.061,0.352-0.319c0.105,0.292,0.105,0.292,0.379,0.313C258.43,8.344,258.341,8.463,258.449,8.651z"/>
						<path fill="#FAFBFD" d="M252.998,8.235c-0.15,0.113-0.198,0.244-0.13,0.426c-0.138-0.094-0.258-0.205-0.416-0.001
							c0.088-0.215-0.009-0.319-0.149-0.42c0.2,0.024,0.301-0.07,0.353-0.257C252.704,8.166,252.791,8.268,252.998,8.235z"/>
						<path fill="#F9FAFD" d="M258.201,4.545c0.045,0.197,0.161,0.248,0.381,0.206c-0.168,0.142-0.258,0.27-0.182,0.465
							c-0.139-0.162-0.269-0.132-0.451,0.05c0.097-0.235,0.086-0.382-0.104-0.481C258.018,4.778,258.158,4.75,258.201,4.545z"/>
						<path fill="#FBFCFD" d="M259.103,7.139c0.048,0.227,0.208,0.23,0.441,0.22c-0.214,0.118-0.289,0.241-0.191,0.488
							c-0.164-0.156-0.287-0.219-0.437-0.073c0.087-0.196-0.039-0.286-0.195-0.409C258.916,7.363,259.075,7.36,259.103,7.139z"/>
						<path fill="#F6F7FB" d="M254.681,6.9c-0.152-0.123-0.284-0.031-0.464,0.017c0.146-0.187,0.048-0.293-0.129-0.426
							c0.234,0.036,0.352-0.024,0.398-0.22c0.03,0.215,0.166,0.246,0.377,0.226C254.718,6.619,254.596,6.708,254.681,6.9z"/>
						<path fill="#FAFBFD" d="M249.667,7.782c0.082-0.217-0.066-0.292-0.187-0.42c0.189,0.007,0.334-0.014,0.37-0.225
							c0.066,0.183,0.177,0.265,0.364,0.213c-0.026,0.109-0.12,0.128-0.173,0.187c-0.066,0.073,0.059,0.14-0.009,0.223
							C249.926,7.712,249.806,7.604,249.667,7.782z"/>
						<path fill="#FAFBFD" d="M254.869,8.231c-0.156,0.107-0.239,0.227-0.082,0.462c-0.193-0.105-0.326-0.231-0.507,0.019
							c0.049-0.239,0.054-0.388-0.13-0.476c0.217,0.034,0.306-0.076,0.352-0.334C254.547,8.176,254.655,8.269,254.869,8.231z"/>
					</g>
				</g>
			</g>
		</g>
	</g>
</g>
<circle fill="none" stroke="#FFFCEE" stroke-miterlimit="10" cx="259.817" cy="9.694" r="7.049"/>
<g>
	<path fill="#FFFCEE" d="M470.846,12.48h1.929V7.046h-1.589V6.11c0.855-0.156,1.453-0.364,1.996-0.677h1.168v7.047h1.697v1.222
		h-5.201V12.48z"/>
	<path fill="#FFFCEE" d="M477.109,15.249c0.869-0.325,1.371-0.91,1.371-1.573c-0.041,0-0.081,0-0.122,0
		c-0.529,0-1.005-0.338-1.005-0.923c0-0.559,0.476-0.923,1.046-0.923c0.733,0,1.168,0.572,1.168,1.534
		c0,1.273-0.774,2.262-2.119,2.704L477.109,15.249z"/>
	<path fill="#FFFCEE" d="M480.409,9.529c0-2.796,1.141-4.251,2.934-4.251s2.934,1.469,2.934,4.251c0,2.795-1.141,4.329-2.934,4.329
		S480.409,12.324,480.409,9.529z M484.782,9.529c0-2.341-0.598-3.081-1.439-3.081c-0.828,0-1.439,0.74-1.439,3.081
		c0,2.34,0.611,3.159,1.439,3.159C484.185,12.688,484.782,11.869,484.782,9.529z"/>
	<path fill="#FFFCEE" d="M487.038,9.529c0-2.796,1.141-4.251,2.934-4.251s2.934,1.469,2.934,4.251c0,2.795-1.141,4.329-2.934,4.329
		S487.038,12.324,487.038,9.529z M491.411,9.529c0-2.341-0.598-3.081-1.439-3.081c-0.828,0-1.439,0.74-1.439,3.081
		c0,2.34,0.611,3.159,1.439,3.159C490.814,12.688,491.411,11.869,491.411,9.529z"/>
</g>
</svg>
