<?xml version="1.0" encoding="utf-8"?>
<!-- Generator: Adobe Illustrator 17.0.0, SVG Export Plug-In . SVG Version: 6.00 Build 0)  -->
<!DOCTYPE svg PUBLIC "-//W3C//DTD SVG 1.1//EN" "http://www.w3.org/Graphics/SVG/1.1/DTD/svg11.dtd">
<svg version="1.1" id="Layer_1" xmlns="http://www.w3.org/2000/svg" xmlns:xlink="http://www.w3.org/1999/xlink" x="0px" y="0px"
	 width="600px" height="19.542px" viewBox="0 0 600 19.542" enable-background="new 0 0 600 19.542" xml:space="preserve">
<rect x="0" y="0" fill="#ABCCB7" width="600" height="19.542"/>
<line fill="none" stroke="#9F9F9F" stroke-width="0.7" stroke-miterlimit="10" stroke-dasharray="6,3" x1="199.426" y1="0.851" x2="199.426" y2="18.991"/>
<line fill="none" stroke="#9F9F9F" stroke-width="0.7" stroke-miterlimit="10" stroke-dasharray="6,3" x1="440.97" y1="0.851" x2="440.97" y2="18.991"/>
<g>
	<g>
		<g>
			<rect x="451.885" y="8.771" fill="#575756" width="48.574" height="2"/>
		</g>
		<g>
			<g>
				<circle fill="#575756" cx="500.334" cy="9.771" r="2.481"/>
			</g>
		</g>
	</g>
</g>
<path fill="#575756" d="M70.993,7.484c-0.503-0.441-0.924-0.688-1.575-0.688c-0.733,0-1.182,0.364-1.182,1.04
	c0,1.56,3.694,1.248,3.694,3.874c0,1.235-0.761,2.146-2.105,2.379v1.339h-1.086v-1.3c-0.829-0.078-1.738-0.442-2.35-0.988
	l0.706-1.014c0.638,0.481,1.276,0.806,2.01,0.806c0.883,0,1.317-0.416,1.317-1.117c0-1.717-3.694-1.47-3.694-3.914
	c0-1.209,0.788-2.066,2.011-2.274V4.3h1.086v1.3c0.869,0.104,1.467,0.507,1.969,1.014L70.993,7.484z"/>
<path fill="#575756" d="M80.312,7.42C80,7.056,79.457,6.796,78.941,6.796c-1.087,0-1.97,0.767-2.037,3.055
	c0.502-0.61,1.249-0.975,1.874-0.975c1.494,0,2.525,0.832,2.525,2.561c0,1.651-1.235,2.718-2.716,2.718
	c-1.697,0-3.137-1.262-3.137-4.043c0-3.212,1.63-4.537,3.395-4.537c1.046,0,1.793,0.416,2.309,0.936L80.312,7.42z M79.851,11.436
	c0-0.975-0.503-1.469-1.358-1.469c-0.489,0-1.06,0.26-1.548,0.949c0.162,1.469,0.773,2.093,1.615,2.093
	C79.279,13.01,79.851,12.451,79.851,11.436z"/>
<path fill="#575756" d="M83.601,9.76V9.708c-0.665-0.455-1.194-1.066-1.194-1.937c0-1.339,1.113-2.196,2.607-2.196
	c1.548,0,2.539,0.896,2.539,2.235c0,0.819-0.598,1.509-1.154,1.898V9.76c0.802,0.429,1.494,1.04,1.494,2.146
	c0,1.273-1.168,2.249-2.92,2.249c-1.684,0-2.934-0.937-2.934-2.275C82.039,10.851,82.786,10.176,83.601,9.76z M85,13.088
	c0.828,0,1.426-0.468,1.426-1.235c0-0.896-0.91-1.222-2.078-1.677c-0.543,0.377-0.937,0.91-0.937,1.547
	C83.411,12.542,84.117,13.088,85,13.088z M86.263,7.9c0-0.728-0.476-1.261-1.276-1.261c-0.666,0-1.182,0.416-1.182,1.131
	c0,0.832,0.774,1.196,1.738,1.561C86.005,8.888,86.263,8.421,86.263,7.9z"/>
<path fill="#575756" d="M89.185,12.021c0.516,0.508,1.181,0.91,2.05,0.91c0.938,0,1.589-0.468,1.589-1.248
	c0-0.857-0.57-1.403-2.539-1.403V9.187c1.697,0,2.254-0.559,2.254-1.326c0-0.688-0.488-1.104-1.276-1.104
	c-0.679,0-1.208,0.312-1.738,0.78l-0.801-0.924c0.733-0.623,1.562-1.039,2.594-1.039c1.656,0,2.798,0.779,2.798,2.184
	c0,0.923-0.57,1.547-1.508,1.898v0.052c1.019,0.26,1.793,0.962,1.793,2.054c0,1.508-1.372,2.393-3.029,2.393
	c-1.398,0-2.321-0.521-2.933-1.17L89.185,12.021z"/>
<path fill="#575756" d="M95.814,12.021c0.516,0.508,1.181,0.91,2.05,0.91c0.938,0,1.589-0.468,1.589-1.248
	c0-0.857-0.57-1.403-2.539-1.403V9.187c1.697,0,2.254-0.559,2.254-1.326c0-0.688-0.488-1.104-1.276-1.104
	c-0.679,0-1.208,0.312-1.738,0.78l-0.801-0.924c0.733-0.623,1.562-1.039,2.594-1.039c1.656,0,2.798,0.779,2.798,2.184
	c0,0.923-0.57,1.547-1.508,1.898v0.052c1.019,0.26,1.793,0.962,1.793,2.054c0,1.508-1.372,2.393-3.029,2.393
	c-1.398,0-2.321-0.521-2.933-1.17L95.814,12.021z"/>
<path fill="#575756" d="M102.009,15.545c0.869-0.325,1.371-0.91,1.371-1.573c-0.041,0-0.081,0-0.122,0
	c-0.529,0-1.005-0.338-1.005-0.923c0-0.559,0.476-0.923,1.046-0.923c0.733,0,1.168,0.572,1.168,1.534
	c0,1.273-0.774,2.262-2.119,2.704L102.009,15.545z"/>
<path fill="#575756" d="M105.771,12.776h1.929V7.342h-1.589V6.406c0.855-0.156,1.453-0.364,1.996-0.677h1.168v7.047h1.697v1.222
	h-5.201C105.771,13.998,105.771,12.776,105.771,12.776z"/>
<path fill="#575756" d="M112.469,12.021c0.516,0.508,1.181,0.91,2.05,0.91c0.938,0,1.589-0.468,1.589-1.248
	c0-0.857-0.57-1.403-2.539-1.403V9.187c1.697,0,2.254-0.559,2.254-1.326c0-0.688-0.488-1.104-1.276-1.104
	c-0.679,0-1.208,0.312-1.738,0.78l-0.801-0.924c0.733-0.623,1.562-1.039,2.594-1.039c1.656,0,2.798,0.779,2.798,2.184
	c0,0.923-0.571,1.547-1.508,1.898v0.052c1.019,0.26,1.793,0.962,1.793,2.054c0,1.508-1.372,2.393-3.028,2.393
	c-1.399,0-2.322-0.521-2.934-1.17L112.469,12.021z"/>
<path fill="#575756" d="M123.023,14.517v2.003h-1.562V7.615h1.29l0.109,0.676h0.054c0.557-0.455,1.276-0.832,2.01-0.832
	c1.657,0,2.621,1.273,2.621,3.25c0,2.184-1.371,3.445-2.852,3.445c-0.584,0-1.168-0.26-1.711-0.702L123.023,14.517z M124.367,12.919
	c0.883,0,1.562-0.754,1.562-2.197c0-1.273-0.435-2.028-1.439-2.028c-0.488,0-0.95,0.234-1.467,0.716v2.977
	C123.512,12.776,123.974,12.919,124.367,12.919z"/>
<path fill="#575756" d="M131.119,4.767h1.06l-3.164,11.311h-1.06L131.119,4.767z"/>
<path fill="#575756" d="M135.697,7.459c0.855,0,1.508,0.325,1.956,0.741l-0.747,0.948c-0.354-0.299-0.706-0.468-1.127-0.468
	c-1.073,0-1.82,0.845-1.82,2.132c0,1.274,0.733,2.119,1.779,2.119c0.543,0,1.005-0.26,1.371-0.546l0.652,0.949
	c-0.625,0.533-1.426,0.819-2.187,0.819c-1.82,0-3.219-1.223-3.219-3.342C132.357,8.68,133.918,7.459,135.697,7.459z"/>
<circle fill="none" stroke="#FFFCEE" stroke-miterlimit="10" cx="259.817" cy="9.771" r="7.049"/>
<path fill="#575756" d="M279.874,5.522h3.232c1.928,0,3.463,0.676,3.463,2.73c0,1.988-1.589,2.873-3.463,2.873h-1.223v2.873h-2.01
	V5.522H279.874z M282.984,9.604c1.101,0,1.63-0.469,1.63-1.352c0-0.885-0.57-1.209-1.63-1.209h-1.1v2.561H282.984z"/>
<path fill="#575756" d="M290.958,9.85c-0.04-0.57-0.339-0.936-1.059-0.936c-0.57,0-1.141,0.221-1.793,0.586L287.4,8.238
	c0.855-0.494,1.819-0.846,2.879-0.846c1.725,0,2.676,0.937,2.676,2.912v3.693h-1.63l-0.149-0.664h-0.041
	c-0.57,0.482-1.208,0.82-1.969,0.82c-1.223,0-1.996-0.859-1.996-1.951C287.17,10.852,288.297,10.112,290.958,9.85z M289.845,12.673
	c0.462,0,0.761-0.209,1.113-0.547v-1.131c-1.426,0.182-1.888,0.572-1.888,1.066C289.07,12.477,289.369,12.673,289.845,12.673z"/>
<path fill="#575756" d="M294.601,7.55h1.63l0.136,1.131h0.054c0.489-0.871,1.223-1.287,1.915-1.287c0.38,0,0.611,0.053,0.802,0.131
	l-0.326,1.65c-0.244-0.064-0.448-0.104-0.733-0.104c-0.503,0-1.127,0.312-1.48,1.184v3.744h-1.996V7.55H294.601z"/>
<path fill="#575756" d="M303.089,9.85c-0.04-0.57-0.339-0.936-1.059-0.936c-0.57,0-1.141,0.221-1.793,0.586l-0.706-1.262
	c0.855-0.494,1.819-0.846,2.879-0.846c1.725,0,2.676,0.937,2.676,2.912v3.693h-1.63l-0.149-0.664h-0.041
	c-0.57,0.482-1.208,0.82-1.969,0.82c-1.223,0-1.996-0.859-1.996-1.951C299.301,10.852,300.428,10.112,303.089,9.85z M301.976,12.673
	c0.462,0,0.761-0.209,1.113-0.547v-1.131c-1.426,0.182-1.888,0.572-1.888,1.066C301.201,12.477,301.5,12.673,301.976,12.673z"/>
<path fill="#575756" d="M307.275,13.803V13.75c-0.353-0.221-0.625-0.559-0.625-1.092c0-0.467,0.326-0.922,0.761-1.209v-0.051
	c-0.475-0.312-0.91-0.924-0.91-1.678c0-1.547,1.331-2.328,2.784-2.328c0.381,0,0.747,0.053,1.046,0.156h2.458V8.94h-1.073
	c0.123,0.195,0.218,0.508,0.218,0.846c0,1.482-1.168,2.172-2.648,2.172c-0.244,0-0.516-0.039-0.814-0.131
	c-0.177,0.143-0.244,0.26-0.244,0.48c0,0.326,0.271,0.482,1.019,0.482h1.086c1.657,0,2.566,0.48,2.566,1.637
	c0,1.34-1.453,2.314-3.762,2.314c-1.575,0-2.824-0.494-2.824-1.637C306.311,14.571,306.65,14.141,307.275,13.803z M309.447,15.546
	c0.896,0,1.548-0.352,1.548-0.793c0-0.404-0.366-0.508-1.031-0.508h-0.693c-0.461,0-0.733-0.025-0.95-0.078
	c-0.244,0.209-0.367,0.404-0.367,0.637C307.953,15.286,308.551,15.546,309.447,15.546z M310.208,9.721
	c0-0.676-0.394-1.041-0.924-1.041c-0.529,0-0.923,0.352-0.923,1.041c0,0.715,0.394,1.078,0.923,1.078
	C309.815,10.8,310.208,10.436,310.208,9.721z"/>
<path fill="#575756" d="M313.85,7.55h1.997v3.758c0,0.924,0.258,1.223,0.842,1.223c0.502,0,0.801-0.209,1.195-0.715V7.55h1.996
	v6.449h-1.63l-0.149-0.898h-0.041c-0.57,0.65-1.194,1.055-2.118,1.055c-1.467,0-2.092-0.988-2.092-2.602L313.85,7.55L313.85,7.55z"
	/>
<path fill="#575756" d="M325.11,9.85c-0.04-0.57-0.339-0.936-1.059-0.936c-0.57,0-1.141,0.221-1.793,0.586l-0.706-1.262
	c0.855-0.494,1.819-0.846,2.879-0.846c1.725,0,2.676,0.937,2.676,2.912v3.693h-1.63l-0.149-0.664h-0.041
	c-0.57,0.482-1.208,0.82-1.969,0.82c-1.223,0-1.996-0.859-1.996-1.951C321.322,10.852,322.449,10.112,325.11,9.85z M323.997,12.673
	c0.462,0,0.761-0.209,1.113-0.547v-1.131c-1.426,0.182-1.888,0.572-1.888,1.066C323.223,12.477,323.522,12.673,323.997,12.673z"/>
<path fill="#575756" d="M329.351,15.012c0.665,0,1.005-0.338,1.182-0.846l0.095-0.338l-2.594-6.279h2.01l0.964,2.77
	c0.19,0.586,0.354,1.195,0.53,1.834h0.054c0.149-0.611,0.299-1.223,0.462-1.834l0.814-2.77h1.915l-2.336,6.514
	c-0.638,1.625-1.357,2.457-2.946,2.457c-0.407,0-0.68-0.053-0.951-0.129l0.354-1.457C329.025,14.96,329.201,15.012,329.351,15.012z"
	/>
<path fill="#ABCCB7" d="M224.83,11.788c0.516,0.455,1.127,0.82,1.86,0.82c0.883,0,1.453-0.443,1.453-1.287
	c0-0.832-0.557-1.275-1.358-1.275c-0.502,0-0.761,0.105-1.276,0.416l-0.896-0.545l0.244-4.174h4.89v1.611h-3.164l-0.149,1.549
	c0.325-0.145,0.61-0.195,0.964-0.195c1.48,0,2.743,0.805,2.743,2.561c0,1.832-1.48,2.887-3.164,2.887
	c-1.412,0-2.363-0.508-3.042-1.158L224.83,11.788z"/>
<g>
	<g>
		<g>
			<g>
				<g>
					<defs>
						<circle id="SVGID_1_" cx="259.817" cy="9.771" r="7.049"/>
					</defs>
					<clipPath id="SVGID_2_">
						<use xlink:href="#SVGID_1_"  overflow="visible"/>
					</clipPath>
					<g clip-path="url(#SVGID_2_)">
						<g>
							<path fill="#3C5BA4" d="M274.574,12.233c0,1.609,0,3.219,0,4.828c-0.092,0.046-0.19,0.022-0.285,0.022
								c-9.456,0.001-18.912,0.001-28.368,0.001c-0.088,0-0.177,0.012-0.264-0.012c-0.044-0.066-0.025-0.14-0.025-0.211
								c-0.001-1.533-0.002-3.066,0-4.598c0-0.056,0.024-0.091,0.082-0.099c9.505-0.001,19.009,0,28.514,0
								C274.347,12.164,274.473,12.142,274.574,12.233z"/>
							<path fill="#BF192A" d="M274.574,2.626c0,1.609,0,3.219,0,4.828c-0.025,0.021-0.052,0.039-0.082,0.052
								c-0.125,0.044-0.254,0.031-0.382,0.031c-9.336,0.001-18.672,0.001-28.008,0c-0.136,0-0.274,0.015-0.404-0.044
								c-0.069-0.038-0.066-0.103-0.066-0.168c0-1.537-0.001-3.073,0.001-4.61c0-0.032,0-0.065,0.044-0.108
								c0.064-0.052,0.165-0.028,0.258-0.028c9.453-0.001,18.906-0.001,28.36,0C274.39,2.578,274.49,2.559,274.574,2.626z"/>
							<path fill="#290E13" d="M274.574,2.626c-9.627,0-19.254,0-28.871,0c-0.074,0.081-0.047,0.165-0.047,0.242
								c-0.002,1.456-0.002,2.912,0,4.367c0,0.075-0.034,0.163,0.044,0.224c0.083,0.081,0.083,0.188,0.084,0.291
								c0.003,1.385,0.003,2.77,0,4.155c0,0.072-0.004,0.144-0.03,0.213c-0.013,0.03-0.034,0.054-0.061,0.072
								c-0.014,0.014-0.027,0.028-0.041,0.042c-0.015,0.023-0.03,0.023-0.045,0c0-3.219,0-6.437,0-9.656
								c0.084-0.045,0.174-0.022,0.261-0.022c9.482-0.001,18.964-0.001,28.446,0c0.087,0,0.177-0.022,0.261,0.022
								C274.574,2.593,274.574,2.61,274.574,2.626z"/>
							<path fill="#BFBFBF" d="M274.524,7.461c0.017-0.003,0.033-0.005,0.05-0.008c0,1.593,0,3.186,0,4.78
								c-0.088-0.002-0.177-0.006-0.265-0.006c-9.437,0-18.874,0-28.311-0.002c-0.102,0-0.21,0.032-0.305-0.035l0.013-0.01
								c0.077-0.073,0.174-0.076,0.271-0.079c0.113-0.004,0.225-0.002,0.338-0.002c9.204,0,18.408,0,27.612-0.001
								c0.151,0,0.306,0.022,0.453-0.037c0.086-0.107,0.06-0.232,0.06-0.349c0.002-1.279,0-2.558,0.003-3.838
								C274.443,7.734,274.414,7.583,274.524,7.461z"/>
							<path fill="#010202" d="M245.67,17.053c0.346-0.001,0.692-0.002,1.037-0.002c9.185,0,18.369,0,27.554,0
								c0.104,0,0.209,0.006,0.313,0.009c-0.011,0.015,0.024,0.05-0.024,0.049c-0.064-0.002-0.129-0.001-0.193-0.001
								c-9.511,0-19.022,0-28.532-0.003c-0.071,0-0.164,0.056-0.217-0.045c0.01-0.009,0.019-0.018,0.029-0.027
								C245.647,17.04,245.659,17.047,245.67,17.053z"/>
							<path fill="#808081" d="M274.574,2.577c-9.656,0-19.311,0-28.967,0c0.011-0.015-0.024-0.05,0.024-0.049
								c0.064,0.002,0.129,0.001,0.193,0.001c9.511,0,19.022,0,28.532,0.003C274.427,2.532,274.521,2.476,274.574,2.577z"/>
							<path fill="#101728" d="M245.67,17.053c-0.021,0.002-0.042,0.005-0.063,0.007c0-1.609,0-3.219,0-4.828
								c0.015,0,0.03,0,0.045,0c0.001,1.511,0.002,3.022,0.003,4.533C245.656,16.861,245.665,16.957,245.67,17.053z"/>
							<path fill="#FFFFFF" d="M274.524,7.461c0,1.56,0,3.121,0,4.67c-0.078,0.078-0.163,0.052-0.24,0.052
								c-9.502,0.001-19.003,0.001-28.505,0.001c-0.024,0-0.048-0.002-0.072-0.003c-0.002-1.574-0.004-3.148-0.005-4.722
								c0.08-0.002,0.161-0.005,0.241-0.005c9.447,0,18.894,0,28.341,0C274.364,7.454,274.444,7.459,274.524,7.461z"/>
							<path fill="#FEFEFE" d="M260.767,11.424c-0.048,0.029-0.095,0.057-0.143,0.086c-0.034-0.031-0.072-0.028-0.111-0.014
								c-0.061,0.044-0.133,0.062-0.203,0.084c-0.071-0.006-0.125,0.055-0.197,0.049c-0.073,0.002-0.147-0.004-0.22,0.005
								c-0.063,0.023-0.125,0.021-0.187-0.001c-0.077-0.008-0.155-0.002-0.232-0.005c-0.084-0.03-0.172-0.042-0.255-0.074
								l0.008,0.005c-0.028-0.03-0.07-0.024-0.105-0.038c-0.031-0.024-0.068-0.037-0.103-0.053c-0.036-0.036-0.09-0.041-0.128-0.074
								c-0.019-0.006-0.038-0.012-0.058-0.018c-0.043-0.026-0.065-0.079-0.12-0.089c-0.021-0.006-0.038-0.017-0.054-0.031
								c-0.12-0.126-0.256-0.236-0.357-0.379l0.006,0.007c-0.013-0.015-0.022-0.031-0.028-0.049
								c-0.033-0.047-0.066-0.094-0.097-0.142c-0.044-0.042-0.037-0.109-0.074-0.154l0.006,0.007
								c-0.036-0.044-0.027-0.108-0.067-0.15c-0.008-0.034-0.018-0.066-0.031-0.098c-0.031-0.067-0.024-0.14-0.028-0.211
								c-0.073-0.193-0.047-0.389-0.019-0.585c0.021-0.068,0.019-0.142,0.046-0.209c0.011-0.032,0.024-0.064,0.029-0.099
								c0.023-0.05,0.035-0.106,0.069-0.152l-0.006,0.007c0.033-0.029,0.024-0.076,0.048-0.109c0.035-0.039,0.053-0.087,0.08-0.131
								c0.026-0.044,0.079-0.068,0.094-0.122c0.005-0.021,0.014-0.04,0.029-0.056c0.11-0.106,0.207-0.225,0.334-0.312l-0.006,0.005
								c0.015-0.013,0.032-0.022,0.051-0.029c0.042-0.027,0.067-0.074,0.115-0.094c0.095-0.042,0.189-0.088,0.279-0.14
								c0.033-0.006,0.065-0.018,0.096-0.029c0.056-0.025,0.117-0.023,0.176-0.031c0.264-0.062,0.529-0.07,0.793-0.002
								c0.057,0.012,0.12,0.001,0.169,0.044c0.051,0.017,0.11,0.013,0.153,0.054c0.02,0.005,0.04,0.011,0.06,0.019
								c0.041,0.031,0.092,0.045,0.132,0.077c0.019,0.006,0.039,0.012,0.058,0.018c0.043,0.026,0.065,0.079,0.12,0.089
								c0.021,0.006,0.038,0.017,0.054,0.031c0.12,0.126,0.256,0.235,0.356,0.379l-0.005-0.006c0.013,0.016,0.023,0.033,0.03,0.053
								c0.025,0.032,0.047,0.066,0.072,0.098l-0.004-0.005c0.041,0.061,0.084,0.121,0.113,0.19c0.01,0.031,0.008,0.064,0.012,0.096
								c0.021,0.039,0.044,0.077,0.055,0.121c0.026,0.066,0.046,0.134,0.061,0.203c0.029,0.225,0.057,0.451-0.019,0.673
								c-0.004,0.037-0.002,0.075-0.009,0.112c-0.055,0.057-0.024,0.144-0.069,0.205l0.005-0.007
								c-0.036,0.038-0.027,0.099-0.065,0.136c-0.007,0.018-0.013,0.037-0.017,0.057c-0.022,0.032-0.04,0.067-0.052,0.104
								c-0.026,0.04-0.074,0.062-0.087,0.112c-0.004,0.02-0.012,0.037-0.024,0.052c-0.053,0.059-0.115,0.109-0.165,0.171
								c-0.007,0.019-0.017,0.036-0.029,0.052l0.007-0.007c-0.017,0.013-0.035,0.024-0.055,0.031
								c-0.063,0.057-0.12,0.121-0.193,0.167l0.006-0.006c-0.026,0.023-0.062,0.029-0.085,0.056c-0.01,0.009-0.02,0.018-0.032,0.026
								C260.761,11.401,260.774,11.407,260.767,11.424z"/>
							<path fill="#4D4D4D" d="M260.237,8.027c-0.29-0.06-0.581-0.054-0.871,0c-0.016-0.01-0.021-0.019-0.015-0.028
								c0.005-0.009,0.011-0.014,0.016-0.014c0.29-0.093,0.579-0.092,0.869-0.001c0.016,0.009,0.021,0.018,0.016,0.028
								C260.247,8.022,260.242,8.027,260.237,8.027z"/>
							<path fill="#343434" d="M261.595,10.158c0.049-0.242,0.04-0.483,0-0.725c0.014-0.017,0.029-0.02,0.048-0.009
								c0.021,0.022,0.03,0.049,0.035,0.077c-0.008,0.219,0.051,0.443-0.045,0.656C261.62,10.18,261.607,10.18,261.595,10.158z"/>
							<path fill="#424242" d="M258.008,9.48c-0.035,0.21-0.038,0.419-0.001,0.629c-0.014,0.022-0.028,0.021-0.041-0.001
								c-0.09-0.184-0.031-0.379-0.044-0.569c0.011-0.025,0.018-0.052,0.04-0.071C257.981,9.46,257.996,9.463,258.008,9.48z"/>
							<path fill="#484848" d="M261.3,8.711c-0.154-0.101-0.265-0.248-0.39-0.379c-0.015-0.01-0.02-0.02-0.015-0.031
								c0.005-0.011,0.009-0.016,0.014-0.016C261.069,8.4,261.239,8.505,261.3,8.711z"/>
							<path fill="#454545" d="M258.302,10.878c0.147,0.11,0.268,0.246,0.391,0.38c0.015,0.01,0.02,0.021,0.015,0.031
								c-0.005,0.01-0.01,0.016-0.015,0.016C258.531,11.192,258.363,11.084,258.302,10.878z"/>
							<path fill="#464646" d="M258.693,8.32c-0.082,0.142-0.212,0.236-0.331,0.342c-0.015,0.02-0.03,0.021-0.046,0.001
								C258.412,8.517,258.51,8.372,258.693,8.32z"/>
							<path fill="#4E4E4E" d="M259.127,8.092c-0.095,0.053-0.19,0.106-0.285,0.158c-0.024-0.02-0.026-0.041-0.006-0.065
								c0.091-0.061,0.186-0.111,0.292-0.139c0.014,0.01,0.018,0.021,0.014,0.031C259.137,8.087,259.132,8.092,259.127,8.092z"/>
							<path fill="#575757" d="M261.114,11.078c0.043-0.079,0.093-0.151,0.172-0.198c0.017-0.02,0.034-0.021,0.052-0.001
								c-0.035,0.083-0.085,0.153-0.165,0.198C261.153,11.088,261.133,11.089,261.114,11.078z"/>
							<path fill="#7C7C7C" d="M259.7,11.613c0.067,0,0.134,0,0.201,0c0.014,0.012,0.018,0.024,0.013,0.035s-0.01,0.017-0.015,0.017
								c-0.065,0.058-0.131,0.058-0.196,0c-0.015-0.011-0.02-0.022-0.016-0.034C259.691,11.619,259.696,11.613,259.7,11.613z"/>
							<path fill="#484848" d="M260.861,11.318c0.034-0.096,0.118-0.139,0.198-0.186c0.013,0.017,0.012,0.034,0,0.051
								C261.007,11.25,260.965,11.33,260.861,11.318z"/>
							<path fill="#696969" d="M260.331,11.554c0.053-0.059,0.129-0.061,0.198-0.084c0.014,0.013,0.018,0.025,0.013,0.037
								s-0.01,0.018-0.014,0.018c-0.054,0.055-0.122,0.074-0.197,0.078c-0.017-0.011-0.022-0.021-0.017-0.032
								C260.32,11.56,260.326,11.554,260.331,11.554z"/>
							<path fill="#4E4E4E" d="M261.474,9.05c-0.043-0.06-0.101-0.113-0.081-0.199c0.076-0.01,0.064,0.076,0.108,0.1
								c0.012,0.021,0.027,0.04,0.033,0.064c-0.001,0.012-0.004,0.023-0.007,0.034C261.508,9.069,261.491,9.069,261.474,9.05z"/>
							<path fill="#313131" d="M259.218,11.555c0.088-0.014,0.17,0.002,0.245,0.051c0.016,0.009,0.022,0.018,0.016,0.026
								c-0.005,0.009-0.011,0.013-0.016,0.013C259.38,11.619,259.279,11.639,259.218,11.555z"/>
							<path fill="#2B2B2B" d="M258.108,10.54c0.08,0.02,0.064,0.101,0.098,0.15c0.013,0.01,0.018,0.021,0.016,0.033
								c-0.002,0.013-0.005,0.019-0.008,0.019c-0.02,0.012-0.038,0.01-0.056-0.005C258.154,10.669,258.077,10.618,258.108,10.54z"/>
							<path fill="#2A2A2A" d="M261.632,9.433c-0.013,0-0.025,0-0.038,0c-0.016-0.064-0.033-0.129-0.049-0.193
								c0.014-0.023,0.026-0.023,0.038,0.002l0.018-0.004c-0.001,0.025,0.023,0.039,0.03,0.06c0.004,0.029,0.009,0.059,0.013,0.088
								C261.659,9.406,261.654,9.422,261.632,9.433z"/>
							<path fill="#363636" d="M261.537,10.45c-0.01-0.073-0.01-0.143,0.053-0.196c0.011-0.023,0.022-0.024,0.035-0.001
								C261.601,10.321,261.623,10.41,261.537,10.45z"/>
							<path fill="#2C2C2C" d="M257.967,10.109c0.014,0,0.027,0.001,0.041,0.001c0.014,0.064,0.028,0.129,0.041,0.193
								c-0.01,0.015-0.024,0.022-0.043,0.02c-0.016-0.008-0.027-0.019-0.034-0.036C257.97,10.227,257.968,10.168,257.967,10.109z"/>
							<path fill="#2A2B2B" d="M258.008,9.48h-0.02h-0.02c-0.015-0.007-0.021-0.016-0.021-0.028
								c0.001-0.013,0.003-0.019,0.007-0.019c0.006-0.041,0.013-0.083,0.019-0.124c0.004-0.019,0.015-0.033,0.031-0.043
								c0.02-0.003,0.035,0.004,0.046,0.02C258.037,9.352,258.022,9.416,258.008,9.48z"/>
							<path fill="#0F0F0F" d="M260.718,8.214c-0.053-0.022-0.114-0.031-0.144-0.089c-0.001-0.01-0.001-0.021-0.002-0.031
								c0.051,0.024,0.116,0.026,0.144,0.087C260.718,8.192,260.718,8.203,260.718,8.214z"/>
							<path fill="#313131" d="M260.331,11.554c0,0.016,0,0.032,0,0.048c-0.064,0.015-0.128,0.029-0.192,0.044
								c-0.016-0.009-0.022-0.018-0.016-0.027c0.005-0.009,0.011-0.013,0.016-0.013C260.197,11.568,260.261,11.549,260.331,11.554z"
								/>
							<path fill="#2D2D2D" d="M259.463,11.645c0-0.013,0-0.026,0-0.04c0.079,0.002,0.158,0.005,0.237,0.007
								c0.001,0.017,0.002,0.034,0.003,0.052C259.623,11.658,259.543,11.652,259.463,11.645z"/>
							<path fill="#2E2E2E" d="M260.139,11.606c0,0.013,0,0.027,0,0.04c-0.08,0.006-0.16,0.012-0.24,0.019
								c0.001-0.017,0.002-0.035,0.003-0.052C259.981,11.611,260.06,11.608,260.139,11.606z"/>
							<path fill="#5B5B5B" d="M258.343,8.705c-0.016,0.042-0.026,0.088-0.078,0.102c-0.017,0.019-0.034,0.02-0.051,0.002
								c0.008-0.046,0.027-0.084,0.075-0.102C258.306,8.691,258.324,8.69,258.343,8.705z"/>
							<path fill="#1F2020" d="M258.061,10.399c0.058,0.035,0.062,0.089,0.053,0.148c-0.09-0.014-0.052-0.103-0.087-0.149
								C258.039,10.375,258.05,10.375,258.061,10.399z"/>
							<path fill="#2A2A2A" d="M259.366,7.985c0.001,0.014,0.001,0.028-0.001,0.042c-0.048,0.014-0.096,0.028-0.145,0.042
								c-0.016-0.01-0.022-0.024-0.02-0.043c0.006-0.017,0.018-0.029,0.033-0.037C259.278,7.988,259.322,7.986,259.366,7.985z"/>
							<path fill="#222222" d="M261.454,10.592c0.039-0.044,0-0.134,0.088-0.149c0.011,0.061,0.002,0.113-0.056,0.147
								C261.475,10.591,261.464,10.592,261.454,10.592z"/>
							<path fill="#484848" d="M258.2,10.754c0.002-0.021,0.004-0.043,0.006-0.064c0.045,0.039,0.074,0.088,0.089,0.145
								c-0.016,0.014-0.031,0.014-0.046-0.001c-0.02-0.017-0.04-0.035-0.061-0.052C258.193,10.773,258.197,10.764,258.2,10.754z"/>
							<path fill="#5B5B5B" d="M261.306,10.836c0.009-0.044,0.029-0.08,0.07-0.102c0.019-0.019,0.038-0.02,0.057-0.001
								c-0.009,0.045-0.026,0.085-0.074,0.102C261.342,10.852,261.324,10.852,261.306,10.836z"/>
							<path fill="#5B5B5B" d="M260.866,8.314c-0.044-0.011-0.084-0.028-0.102-0.075c-0.012-0.012-0.016-0.023-0.013-0.035
								c0.004-0.012,0.008-0.018,0.011-0.018c0.044,0.01,0.085,0.027,0.102,0.074c0.012,0.012,0.016,0.023,0.013,0.035
								C260.874,8.308,260.87,8.314,260.866,8.314z"/>
							<path fill="#5B5B5B" d="M258.836,8.186c0.002,0.022,0.004,0.043,0.006,0.065c-0.028,0.034-0.06,0.061-0.106,0.067
								c-0.01-0.012-0.014-0.023-0.01-0.035c0.004-0.011,0.007-0.017,0.011-0.017C258.75,8.213,258.798,8.205,258.836,8.186z"/>
							<path fill="#606060" d="M258.735,11.278c0.039,0.02,0.089,0.023,0.102,0.076c0.016,0.011,0.021,0.022,0.016,0.034
								s-0.01,0.017-0.015,0.017c-0.046-0.001-0.075-0.029-0.1-0.063C258.723,11.322,258.721,11.3,258.735,11.278z"/>
							<path fill="#5E5E5E" d="M258.88,11.373c0.058,0.016,0.113,0.036,0.152,0.085c-0.026,0.021-0.053,0.022-0.081,0.004
								c-0.034,0.008-0.064,0.006-0.07-0.038c-0.012-0.011-0.017-0.022-0.013-0.034C258.873,11.379,258.876,11.373,258.88,11.373z"
								/>
							<path fill="#2B2B2B" d="M258.952,11.462c0.027-0.001,0.054-0.002,0.081-0.004c0.04,0.001,0.073,0.014,0.092,0.052
								c0.017,0.008,0.023,0.016,0.018,0.024c-0.006,0.008-0.011,0.013-0.017,0.013C259.063,11.528,258.998,11.514,258.952,11.462z"
								/>
							<path fill="#1F2020" d="M260.526,8.118c-0.048-0.017-0.097-0.034-0.145-0.051c0-0.01-0.001-0.02-0.001-0.03
								c0.058-0.011,0.111-0.011,0.144,0.05C260.525,8.097,260.525,8.107,260.526,8.118z"/>
							<path fill="#252525" d="M260.379,8.037c0.001,0.01,0.001,0.02,0.001,0.03c-0.048-0.013-0.096-0.027-0.144-0.04
								c-0.001-0.014-0.002-0.028-0.001-0.043C260.29,7.984,260.35,7.968,260.379,8.037z"/>
							<path fill="#2B2B2B" d="M258.114,9.043c0.008,0.058,0.015,0.115-0.05,0.149c-0.011,0.022-0.023,0.022-0.035,0
								c-0.004-0.012-0.007-0.024-0.009-0.036c0.008-0.022,0.024-0.039,0.033-0.06C258.068,9.072,258.07,9.034,258.114,9.043z"/>
							<path fill="#0F0F0F" d="M258.213,8.809c0.017-0.001,0.034-0.001,0.051-0.002c-0.022,0.057-0.041,0.116-0.097,0.151
								c-0.008-0.002-0.016-0.003-0.025-0.005c-0.004-0.016-0.004-0.033,0-0.05c0.006-0.016,0.012-0.031,0.018-0.047
								c0.015-0.016,0.028-0.034,0.038-0.054L258.213,8.809z"/>
							<path fill="#484848" d="M261.396,8.856c-0.073,0.005-0.072-0.058-0.091-0.101c0.016-0.014,0.031-0.014,0.047,0.001
								C261.403,8.773,261.413,8.808,261.396,8.856z"/>
							<path fill="#0F0F0F" d="M261.433,10.733c-0.019,0-0.038,0.001-0.057,0.001c0.02-0.034,0.02-0.084,0.073-0.093
								c0.009-0.001,0.019-0.001,0.028-0.002C261.462,10.671,261.447,10.702,261.433,10.733z"/>
							<path fill="#222222" d="M261.583,9.241c-0.013-0.001-0.025-0.001-0.038-0.002c-0.012-0.032-0.024-0.064-0.036-0.096
								c0.008,0,0.017,0.001,0.025,0.001C261.597,9.153,261.583,9.201,261.583,9.241z"/>
							<path fill="#181818" d="M258.029,9.192c0.012,0.003,0.023,0.003,0.035,0c-0.004,0.032-0.008,0.064-0.012,0.095l-0.017-0.001
								l-0.016,0.002c-0.018-0.012-0.023-0.028-0.015-0.048C258.012,9.225,258.02,9.209,258.029,9.192z"/>
							<path fill="#181818" d="M258.061,10.399l-0.017-0.001h-0.017c-0.009-0.016-0.017-0.033-0.026-0.049
								c-0.006-0.02,0-0.036,0.017-0.048c0.01,0.004,0.02,0.004,0.03,0.002C258.053,10.335,258.057,10.367,258.061,10.399z"/>
							<path fill="#252525" d="M261.625,10.253c-0.012,0-0.023,0-0.035,0.001c0.002-0.032,0.003-0.064,0.005-0.097
								c0.013,0,0.025,0,0.038,0C261.63,10.189,261.627,10.221,261.625,10.253z"/>
							<path fill="#1F2020" d="M261.535,9.144c-0.008-0.001-0.017-0.001-0.025-0.001c-0.012-0.031-0.024-0.062-0.035-0.093
								c0.017,0,0.035,0,0.052,0C261.541,9.08,261.554,9.111,261.535,9.144z"/>
							<path fill="#272827" d="M259.125,11.547c0-0.012,0-0.025,0-0.037c0.042,0,0.093-0.019,0.101,0.05
								C259.192,11.556,259.159,11.552,259.125,11.547z"/>
							<path fill="#181818" d="M259.221,8.033c-0.002,0.012-0.003,0.024-0.001,0.036c-0.031,0.008-0.062,0.015-0.093,0.023
								c0.009-0.015,0.009-0.03,0.001-0.046c0.015-0.008,0.031-0.017,0.046-0.025C259.193,8.014,259.209,8.018,259.221,8.033z"/>
							<path fill="#1F2020" d="M260.528,11.525c0-0.018,0.001-0.037,0.001-0.055c0.038-0.002,0.103-0.069,0.095,0.04
								C260.592,11.515,260.56,11.52,260.528,11.525z"/>
							<path fill="#FEFEFE" d="M257.955,9.434c0.004,0.016,0.009,0.031,0.013,0.047c-0.015,0.02-0.031,0.04-0.046,0.06
								C257.918,9.5,257.921,9.462,257.955,9.434z"/>
							<path fill="#1F2020" d="M258.167,8.958c-0.006,0.039,0.009,0.093-0.059,0.092c0.001-0.034,0.002-0.068,0.002-0.102
								c0.012-0.014,0.025-0.016,0.04-0.005L258.167,8.958z"/>
							<path fill="#0F0F0F" d="M260.767,11.424c-0.024,0-0.046-0.006-0.056-0.037c0.018-0.006,0.039-0.014,0.06-0.021
								c0.012-0.019,0.025-0.02,0.04-0.003C260.796,11.383,260.781,11.403,260.767,11.424z"/>
							<path fill="#FEFEFE" d="M261.632,9.433c0.004-0.016,0.009-0.032,0.013-0.047c0.039,0.031,0.037,0.073,0.032,0.116
								C261.662,9.478,261.647,9.456,261.632,9.433z"/>
							<path fill="#0F0F0F" d="M260.81,11.363c-0.013,0.001-0.026,0.002-0.04,0.003c0.016-0.048,0.05-0.061,0.096-0.053
								C260.872,11.356,260.845,11.364,260.81,11.363z"/>
							<path fill="#FEFEFE" d="M258.052,9.096c0.006,0.029-0.005,0.05-0.033,0.06C258.03,9.136,258.041,9.116,258.052,9.096z"/>
							<path fill="#010202" d="M261.476,10.639c-0.009-0.001-0.019,0-0.028,0.002c0.002-0.016,0.004-0.033,0.005-0.049
								c0.011,0.001,0.021,0,0.032-0.002C261.483,10.607,261.479,10.623,261.476,10.639z"/>
							<path fill="#FEFEFE" d="M259.221,8.033c-0.016-0.004-0.031-0.008-0.047-0.012c0.02-0.011,0.04-0.021,0.06-0.032
								C259.228,8.003,259.224,8.018,259.221,8.033z"/>
							<path fill="#0F0F0F" d="M258.737,8.265c0,0.017,0,0.035-0.001,0.052c-0.017,0.003-0.033,0.006-0.05,0.008
								C258.679,8.285,258.708,8.275,258.737,8.265z"/>
							<path fill="#FEFEFE" d="M258.151,8.943L258.13,8.94l-0.019,0.008c0.011-0.015,0.022-0.029,0.032-0.044
								C258.144,8.917,258.146,8.93,258.151,8.943z"/>
							<path fill="#010202" d="M260.526,8.118c0.001-0.011,0-0.021-0.002-0.032c0.016,0.002,0.033,0.005,0.049,0.007
								c0,0.01,0,0.021,0.002,0.031C260.558,8.122,260.542,8.12,260.526,8.118z"/>
							<path fill="#FEFEFE" d="M261.533,9.015c-0.028-0.013-0.035-0.036-0.033-0.064C261.511,8.973,261.522,8.994,261.533,9.015z"/>
							<path fill="#0F0F0F" d="M258.88,11.373c0,0.017,0.001,0.034,0.001,0.051c-0.016-0.003-0.03-0.009-0.044-0.018
								c0-0.017-0.001-0.034-0.001-0.051C258.853,11.357,258.867,11.363,258.88,11.373z"/>
							<path fill="#0F0F0F" d="M258.735,11.278c0.001,0.021,0.002,0.043,0.004,0.064c-0.015-0.012-0.03-0.024-0.045-0.037
								c0.007-0.016,0.007-0.031,0-0.047C258.71,11.259,258.724,11.265,258.735,11.278z"/>
							<path fill="#0F0F0F" d="M261.059,11.184c0-0.017,0-0.034,0-0.051c0.017-0.004,0.033-0.008,0.05-0.012
								C261.11,11.155,261.089,11.173,261.059,11.184z"/>
							<path fill="#0F0F0F" d="M261.114,11.078c0.019-0.001,0.039-0.001,0.058-0.002c-0.016,0.027-0.033,0.052-0.07,0.051
								C261.106,11.11,261.11,11.094,261.114,11.078z"/>
							<path fill="#0F0F0F" d="M260.763,8.187c0,0.018,0.001,0.035,0.001,0.053c-0.015-0.009-0.031-0.017-0.046-0.026
								c0-0.011,0-0.022-0.001-0.033C260.733,8.183,260.748,8.185,260.763,8.187z"/>
							<path fill="#010202" d="M261.306,10.836c0.018,0,0.036-0.001,0.053-0.001c-0.007,0.014-0.015,0.029-0.022,0.043
								c-0.017,0-0.035,0.001-0.052,0.001C261.289,10.863,261.295,10.849,261.306,10.836z"/>
							<path fill="#0F0F0F" d="M258.25,10.834c0.015,0.004,0.03,0.005,0.046,0.001c0.004,0.017,0.008,0.033,0.012,0.05
								C258.267,10.893,258.257,10.866,258.25,10.834z"/>
							<path fill="#FEFEFE" d="M258.2,10.754c-0.006,0.009-0.009,0.018-0.011,0.028c-0.01-0.015-0.02-0.03-0.031-0.045
								C258.172,10.744,258.186,10.75,258.2,10.754z"/>
							<path fill="#FEFEFE" d="M258.003,9.241c0.005,0.016,0.01,0.032,0.015,0.048c-0.015,0.007-0.03,0.014-0.045,0.021
								C257.983,9.287,257.993,9.264,258.003,9.241z"/>
							<path fill="#FEFEFE" d="M261.632,9.298c-0.01-0.02-0.02-0.04-0.03-0.06C261.612,9.257,261.622,9.277,261.632,9.298z"/>
							<path fill="#010202" d="M258.343,8.705c-0.018,0.001-0.037,0.001-0.055,0.002c0.009-0.014,0.019-0.029,0.028-0.043
								c0.016,0.009,0.031,0.008,0.046-0.001C258.361,8.679,258.355,8.693,258.343,8.705z"/>
							<path fill="#0F0F0F" d="M261.352,8.756l-0.023-0.003l-0.023,0.003c-0.005-0.011-0.011-0.021-0.014-0.032
								c-0.002-0.005,0.002-0.012,0.003-0.018C261.335,8.697,261.345,8.725,261.352,8.756z"/>
							<path fill="#010202" d="M260.866,8.314c0-0.018-0.001-0.036-0.001-0.053c0.014,0.008,0.029,0.017,0.043,0.025
								c0,0.016,0.001,0.031,0.001,0.047C260.893,8.331,260.879,8.325,260.866,8.314z"/>
							<path fill="#FEFEFE" d="M258.019,10.301c-0.006,0.016-0.012,0.032-0.017,0.048c-0.01-0.021-0.02-0.042-0.03-0.062
								C257.987,10.292,258.003,10.296,258.019,10.301z"/>
							<path fill="#FEFEFE" d="M258.199,8.803c0.002,0.029-0.014,0.044-0.038,0.054C258.173,8.839,258.186,8.821,258.199,8.803z"/>
							<path fill="#BE1A2B" d="M260.485,8.373c0.037-0.003,0.066,0.011,0.085,0.044c0.023,0.021,0.045,0.044,0.078,0.05
								c0.032-0.003,0.058,0.004,0.068,0.039c0.019,0.027,0.041,0.049,0.074,0.059c0.308,0.234,0.503,0.536,0.563,0.921
								c0.011,0.039-0.011,0.054-0.045,0.059c-0.063-0.032-0.125-0.065-0.196-0.019c-0.04,0.044-0.039,0.092-0.012,0.141
								c0.009,0.014,0.019,0.018,0.029,0.01c-0.025,0.005-0.031-0.016-0.042-0.032c-0.006-0.041-0.009-0.08,0.019-0.115
								c0.049-0.036,0.099-0.032,0.15-0.002c0.013,0.017,0.022,0.035,0.029,0.056c-0.001,0.02,0.002,0.04,0.008,0.059
								c0.004-0.023,0.018-0.032,0.04-0.033c0.021,0.008,0.033,0.023,0.037,0.045c0,0.043,0.007,0.087-0.015,0.128
								c-0.049,0.055-0.138,0.037-0.188,0.087c0.025,0.09,0.109,0.072,0.156,0.11c0.029,0.022,0.05,0.048,0.032,0.088
								c0,0.081,0.002,0.162-0.052,0.231c-0.012,0.015-0.027,0.028-0.044,0.038c-0.036,0.015-0.076,0.019-0.111,0.037
								c-0.022,0.011-0.045,0.016-0.068,0.013c0.002,0.001-0.012-0.005-0.012-0.005s0.007,0.014,0.008,0.014
								c0.013,0.007,0.023,0.016,0.031,0.028c0.008,0.013,0.013,0.027,0.018,0.041c0.003,0.004-0.001,0.01,0.005,0.012
								c-0.003-0.017-0.005-0.033-0.006-0.05c0.005-0.018,0.015-0.032,0.029-0.044c0.017-0.008,0.035-0.013,0.054-0.014
								c0.019,0.003,0.036,0.01,0.052,0.022c-0.001,0.01-0.002,0.019-0.004,0.029l0.003,0.012l-0.01,0.008
								c-0.01,0.015-0.017,0.032-0.022,0.05c-0.002,0.019-0.009,0.035-0.024,0.047c-0.014,0.059-0.042,0.11-0.089,0.15
								c-0.027,0.02-0.049,0.042-0.058,0.075c-0.073,0.137-0.183,0.236-0.315,0.313c-0.031,0.009-0.053,0.031-0.075,0.052
								c-0.047,0.048-0.103,0.082-0.17,0.093c-0.037,0.023-0.086,0.018-0.118,0.052c-0.246,0.109-0.499,0.154-0.765,0.091
								c-0.067-0.045-0.152-0.002-0.219-0.044c-0.174-0.012-0.319-0.092-0.456-0.192c-0.023-0.02-0.045-0.042-0.075-0.051
								c-0.126-0.084-0.242-0.178-0.316-0.315c-0.009-0.031-0.031-0.053-0.052-0.075c-0.379-0.537-0.378-1.212,0.001-1.777
								c0.015-0.021,0.037-0.037,0.049-0.06l-0.002,0.007c0.024-0.018,0.043-0.04,0.053-0.069c0.047-0.098,0.133-0.159,0.216-0.221
								c0.032-0.009,0.055-0.031,0.076-0.055c0.044-0.047,0.093-0.088,0.161-0.092c0.034-0.005,0.059-0.029,0.086-0.047
								c0.09-0.066,0.188-0.107,0.302-0.098c0.07-0.04,0.154-0.002,0.223-0.042c0.093-0.022,0.186-0.021,0.28-0.001
								c0.079,0.051,0.178-0.01,0.257,0.045c0.065-0.009,0.123,0.009,0.173,0.051C260.405,8.35,260.452,8.343,260.485,8.373z"/>
							<path fill="#C52930" d="M261.354,10.068c-0.021-0.02-0.043-0.039-0.064-0.059c-0.049-0.053-0.129-0.047-0.191-0.097
								c0.023-0.144,0.133-0.112,0.225-0.113c0.058,0.023,0.039,0.081,0.057,0.123C261.396,9.975,261.392,10.024,261.354,10.068z"/>
							<path fill="#8A1821" d="M261.381,9.921c-0.014-0.037-0.028-0.074-0.042-0.11c0-0.01,0-0.021,0-0.031
								c0.002-0.046,0.004-0.093,0.007-0.139c-0.041-0.043-0.007-0.056,0.027-0.07C261.395,9.687,261.404,9.804,261.381,9.921z"/>
							<path fill="#8F212D" d="M260.197,8.275c-0.086-0.012-0.182,0.03-0.257-0.045C260.03,8.224,260.119,8.216,260.197,8.275z"/>
							<path fill="#D46241" d="M261.373,9.57c-0.009,0.023-0.018,0.047-0.027,0.07c-0.014-0.007-0.029-0.012-0.045-0.014
								c-0.014,0.014-0.03,0.015-0.047,0.005c0.001-0.021,0.002-0.041,0.003-0.062c0.008-0.02,0.022-0.034,0.043-0.041
								c0.017-0.014,0.034-0.028,0.051-0.042C261.38,9.508,261.386,9.537,261.373,9.57z"/>
							<path fill="#881821" d="M259.661,8.231c-0.064,0.069-0.149,0.03-0.223,0.042C259.504,8.215,259.583,8.228,259.661,8.231z"/>
							<path fill="#93222D" d="M259.393,11.317c0.075,0.005,0.157-0.024,0.219,0.044C259.535,11.367,259.458,11.375,259.393,11.317z
								"/>
							<path fill="#93363F" d="M261.252,10.308c0.017-0.003,0.033-0.006,0.05-0.009c0.001,0.047-0.004,0.091-0.048,0.119
								l-0.008-0.019C261.221,10.366,261.221,10.336,261.252,10.308z"/>
							<path fill="#7F2034" d="M260.485,8.373c-0.044-0.003-0.087-0.006-0.115-0.048C260.418,8.317,260.453,8.341,260.485,8.373z"/>
							<path fill="#8A3E43" d="M260.377,11.271c0.026-0.047,0.07-0.053,0.118-0.052C260.467,11.261,260.425,11.274,260.377,11.271z"
								/>
							<path fill="#7B1527" d="M261.055,10.76c0.007-0.034,0.024-0.062,0.058-0.075C261.094,10.71,261.075,10.735,261.055,10.76z"/>
							<path fill="#C64C3F" d="M261.202,10.535c-0.006-0.015-0.006-0.031,0-0.046c0.009,0.005,0.017,0.01,0.026,0.015
								C261.227,10.521,261.218,10.532,261.202,10.535z"/>
							<path fill="#832F41" d="M258.494,10.684c0.032,0.015,0.047,0.041,0.052,0.075C258.517,10.742,258.498,10.718,258.494,10.684z
								"/>
							<path fill="#7C404C" d="M258.544,8.847c-0.016,0.02-0.033,0.04-0.049,0.06C258.497,8.875,258.513,8.855,258.544,8.847z"/>
							<path fill="#7B1527" d="M258.595,8.786c-0.008,0.031-0.022,0.057-0.053,0.069C258.545,8.82,258.567,8.8,258.595,8.786z"/>
							<path fill="#832F41" d="M260.666,11.126c0.015-0.032,0.041-0.047,0.075-0.052C260.724,11.103,260.7,11.122,260.666,11.126z"
								/>
							<path fill="#7C404C" d="M258.862,11.073c0.034,0.004,0.06,0.02,0.075,0.051C258.902,11.123,258.88,11.101,258.862,11.073z"/>
							<path fill="#7F2034" d="M260.647,8.467c-0.034-0.005-0.062-0.018-0.078-0.05C260.604,8.419,260.631,8.435,260.647,8.467z"/>
							<path fill="#832F41" d="M258.887,8.51c-0.014,0.033-0.04,0.05-0.076,0.055C258.837,8.546,258.862,8.528,258.887,8.51z"/>
							<path fill="#7F2034" d="M260.789,8.564c-0.035-0.006-0.061-0.025-0.074-0.059C260.739,8.525,260.764,8.545,260.789,8.564z"/>
							<path fill="#7F2034" d="M261.228,10.504c-0.007-0.007-0.016-0.012-0.026-0.015c0.015-0.017,0.03-0.034,0.045-0.052
								C261.241,10.46,261.234,10.482,261.228,10.504z"/>
							<path fill="#7F2034" d="M259.135,8.371c-0.029,0.016-0.057,0.031-0.086,0.047C259.066,8.382,259.097,8.37,259.135,8.371z"/>
							<path fill="#FDFEFD" d="M259.048,8.901c0.474-0.345,0.96-0.356,1.456-0.048c0.024,0.009,0.048,0.019,0.072,0.026
								c0.023,0.012,0.043,0.028,0.061,0.046c0.019,0.017,0.036,0.036,0.05,0.057c0.012,0.022,0.019,0.047,0.028,0.07l-0.002-0.006
								c0.018,0.016,0.026,0.037,0.026,0.061c-0.003,0.023-0.013,0.043-0.029,0.06c-0.056,0.035-0.115,0.052-0.177,0.029
								c-0.067-0.04-0.088-0.117-0.164-0.171c-0.106-0.002-0.219-0.056-0.342-0.086c0.233,0.128,0.427,0.294,0.572,0.515
								c0.049,0.155,0.008,0.325,0.085,0.475c-0.088,0.16-0.176,0.319-0.385,0.341c-0.032-0.019-0.044-0.048-0.046-0.083
								c0.002-0.021,0.008-0.042,0.018-0.061c0.005-0.009,0.011-0.018,0.016-0.027c0.022-0.033,0.043-0.066,0.059-0.104
								c0.009-0.028,0.016-0.056,0.019-0.085c0.006-0.079,0.006-0.158-0.01-0.235c-0.006-0.018-0.01-0.036-0.014-0.054
								c-0.005-0.017-0.008-0.034-0.011-0.052c-0.007-0.024-0.015-0.047-0.029-0.069c-0.011-0.012-0.021-0.025-0.031-0.037
								c-0.006-0.006-0.011-0.012-0.017-0.018c-0.012-0.011-0.023-0.023-0.035-0.035c-0.006-0.006-0.012-0.012-0.018-0.017
								c-0.013-0.011-0.024-0.023-0.036-0.034c-0.006-0.005-0.012-0.011-0.019-0.017c-0.013-0.01-0.026-0.021-0.04-0.031
								c-0.029-0.019-0.059-0.034-0.092-0.045c-0.044-0.014-0.088-0.017-0.134-0.017c-0.049,0-0.097,0-0.145-0.001
								c-0.038,0-0.076,0-0.113,0.007c-0.016,0.005-0.033,0.009-0.05,0.013c-0.022,0.008-0.045,0.016-0.066,0.028
								c-0.012,0.009-0.025,0.017-0.037,0.026c-0.011,0.01-0.022,0.02-0.033,0.03l-0.016,0.016c-0.01,0.012-0.021,0.022-0.032,0.033
								c0,0-0.016,0.016-0.016,0.017c-0.01,0.012-0.02,0.024-0.03,0.036c0,0.001-0.013,0.019-0.013,0.02
								c-0.007,0.015-0.015,0.029-0.022,0.044c-0.007,0.016-0.014,0.032-0.021,0.047c-0.015,0.034-0.027,0.069-0.036,0.105
								c-0.023,0.095-0.014,0.189,0.008,0.281c0.005,0.018,0.01,0.037,0.014,0.056c0.008,0.025,0.017,0.051,0.031,0.074
								c0.011,0.013,0.021,0.027,0.032,0.04c0.006,0.006,0.012,0.013,0.017,0.019c0.012,0.012,0.024,0.024,0.035,0.037
								c0.018,0.018,0.035,0.036,0.053,0.054c0.013,0.011,0.025,0.022,0.038,0.033c0.007,0.005,0.013,0.01,0.02,0.015
								c0.015,0.008,0.029,0.017,0.044,0.026c0.016,0.007,0.032,0.015,0.048,0.022c0.035,0.013,0.071,0.023,0.108,0.032
								c0.07,0.019,0.139,0.018,0.208-0.002c0.038-0.01,0.075-0.021,0.112-0.035c0.017-0.009,0.035-0.016,0.053-0.023
								c0.027-0.013,0.055-0.024,0.083-0.033c0.031-0.008,0.062-0.008,0.092-0.001c0.02,0.009,0.036,0.022,0.051,0.038
								c0.007,0.034-0.003,0.064-0.022,0.092c-0.013,0.017-0.027,0.033-0.043,0.047c-0.069,0.051-0.098,0.136-0.166,0.189
								c-0.063,0.043-0.135,0.066-0.207,0.087c-0.032,0.007-0.064,0.006-0.096-0.004c-0.029-0.013-0.046-0.043-0.079-0.05
								c-0.033,0-0.063-0.01-0.088-0.031c-0.184-0.045-0.276-0.208-0.41-0.318c-0.041-0.022-0.063-0.059-0.082-0.099
								c-0.302-0.478-0.027-1.083,0.394-1.303c-0.34,0.047-0.56,0.272-0.641,0.573c-0.129,0.479,0.121,0.831,0.502,1.105
								c0.068,0.041,0.152,0.012,0.229,0.035c0.033,0.034,0.08,0.036,0.119,0.054c-0.012,0.169-0.168,0.138-0.264,0.191
								c-0.01,0.003-0.021,0.006-0.031,0.009c-0.125-0.004-0.21-0.097-0.316-0.143c-0.028-0.011-0.05-0.03-0.069-0.054l0.005,0.004
								c-0.022-0.016-0.039-0.037-0.058-0.057c-0.011-0.012-0.023-0.023-0.034-0.035c-0.02-0.018-0.042-0.035-0.057-0.059
								l0.003,0.007c-0.024-0.019-0.044-0.042-0.053-0.073c0.002-0.033-0.012-0.057-0.044-0.069
								c-0.023-0.023-0.045-0.046-0.051-0.079c-0.016-0.107-0.053-0.207-0.099-0.304c-0.045-0.107-0.011-0.22-0.022-0.329
								c0.002-0.041-0.007-0.084,0.024-0.12c0.048-0.122,0.096-0.244,0.145-0.366c0.028-0.028,0.005-0.087,0.06-0.099V9.103
								c0.009-0.083,0.068-0.122,0.136-0.152l-0.002,0.002C258.998,8.93,259.02,8.913,259.048,8.901z"/>
							<path fill="#F5F3F2" d="M260.951,9.583c0.042,0.219,0.007,0.433-0.042,0.646c-0.006,0.031-0.028,0.054-0.042,0.081
								l-0.005,0.02c-0.011,0.03-0.032,0.053-0.048,0.08c-0.016,0.022-0.032,0.044-0.047,0.065c-0.011,0.03-0.033,0.051-0.056,0.072
								c-0.044,0.045-0.089,0.089-0.133,0.134c-0.019,0.018-0.035,0.04-0.058,0.055l0.006-0.002
								c-0.02,0.023-0.042,0.042-0.071,0.053c-0.091,0.038-0.182,0.076-0.273,0.114c-0.01,0.001-0.019,0.002-0.029,0.003
								c-0.008-0.005-0.016-0.011-0.024-0.016c-0.056-0.092-0.197-0.048-0.247-0.151c-0.005-0.023,0.001-0.042,0.016-0.06
								c0.054-0.011,0.109-0.021,0.154-0.055c0.274-0.033,0.485-0.156,0.632-0.398c0.055-0.09,0.076-0.17,0.056-0.267
								c0.008-0.051,0.039-0.095,0.047-0.147c0.009-0.04,0.025-0.077,0.044-0.112C260.866,9.653,260.864,9.571,260.951,9.583z"/>
							<path fill="#F3F4F3" d="M260.159,10.914c-0.252,0.067-0.503,0.101-0.746-0.033l0,0c0.107-0.063,0.236-0.077,0.334-0.158
								c0.033-0.012,0.067-0.012,0.1-0.003c0.088,0.071,0.204,0.091,0.292,0.162l-0.003-0.003
								C260.146,10.89,260.153,10.901,260.159,10.914z"/>
							<path fill="#DBE3DC" d="M260.951,9.583c-0.051,0.033-0.024,0.112-0.084,0.14c-0.072-0.05-0.119-0.12-0.16-0.195
								c0.02-0.124-0.083-0.251,0.008-0.373c0.002-0.021,0.003-0.042,0.005-0.063c0.022-0.011,0.038-0.004,0.047,0.018
								c0.003,0.035,0.02,0.061,0.05,0.079c0.017,0.022,0.037,0.042,0.045,0.07C260.891,9.368,260.921,9.475,260.951,9.583z"/>
							<path fill="#DE934E" d="M258.78,9.131c-0.016,0.004-0.032,0.009-0.049,0.013c-0.015,0.023-0.034,0.043-0.04,0.071
								c-0.105,0.061-0.146-0.045-0.216-0.071c-0.003-0.072,0.028-0.113,0.086-0.149c0.082,0.006,0.155,0.047,0.219,0.106
								c0.018,0.007,0.024,0.014,0.018,0.021C258.793,9.128,258.786,9.131,258.78,9.131z"/>
							<path fill="#DB8349" d="M260.577,8.851c0.05-0.099,0.153-0.105,0.241-0.139c0.022,0.025,0.02,0.061,0.039,0.087
								c-0.014,0.068-0.027,0.136-0.041,0.203l0.003-0.003c-0.033-0.001-0.066-0.002-0.099-0.003
								c-0.008-0.006-0.016-0.012-0.024-0.017c-0.028-0.041-0.062-0.075-0.103-0.103C260.588,8.868,260.582,8.859,260.577,8.851z"/>
							<path fill="#E09850" d="M260.434,8.748c0.012-0.111,0.066-0.161,0.099-0.219c0.092-0.001,0.142,0.037,0.156,0.123
								C260.629,8.764,260.518,8.674,260.434,8.748z"/>
							<path fill="#E5AE57" d="M258.36,10.287c0-0.061,0-0.108,0-0.159c0.061-0.018,0.12-0.036,0.185-0.055
								c0.035,0.051-0.082,0.131,0.031,0.164C258.521,10.302,258.456,10.313,258.36,10.287z"/>
							<path fill="#E2A153" d="M261.292,10.209c-0.08,0.076-0.167,0.039-0.277,0.056c0.077-0.08,0.074-0.152,0.058-0.244
								C261.16,10.09,261.259,10.108,261.292,10.209z"/>
							<path fill="#DF924E" d="M261.339,9.78c0.002,0.01,0.002,0.021,0,0.031c-0.064,0.021-0.141-0.009-0.207,0.063
								c0.022,0.075,0.181,0.015,0.157,0.135c-0.088-0.005-0.178-0.008-0.233-0.112C261.094,9.729,261.225,9.772,261.339,9.78z"/>
							<path fill="#DF944F" d="M258.833,9.032c-0.089-0.027-0.139-0.094-0.205-0.182c0.1-0.023,0.125,0.075,0.192,0.08
								c0.036-0.024,0.075-0.05,0.114-0.076l-0.003-0.003c-0.001,0.032-0.003,0.064-0.004,0.097
								C258.912,8.993,258.882,9.024,258.833,9.032z"/>
							<path fill="#E3A353" d="M261.055,9.338c-0.024-0.018-0.048-0.037-0.088-0.067c0.08-0.058,0.151-0.037,0.23-0.019
								c-0.019,0.096-0.078,0.145-0.156,0.182c-0.023-0.047,0.002-0.07,0.013-0.097L261.055,9.338z"/>
							<path fill="#E5AD56" d="M258.398,9.912c0.003-0.016,0.005-0.031,0.009-0.054c0.058-0.011,0.029,0.054,0.059,0.069
								c0.052,0.005,0.015-0.067,0.061-0.073c0.032,0.039,0.016,0.082,0.002,0.14c-0.078-0.007-0.187,0.108-0.219-0.074
								c0.012-0.025,0.025-0.027,0.04-0.002l0.001,0.001C258.369,9.932,258.385,9.931,258.398,9.912z"/>
							<path fill="#E6B157" d="M259.799,8.516c-0.045,0.069-0.105,0.048-0.166,0.03c-0.029-0.067-0.038-0.134-0.01-0.21
								c0.065-0.013,0.132-0.043,0.182,0.034c-0.007,0.015-0.016,0.029-0.026,0.042c-0.01,0.012-0.015,0.026-0.012,0.042
								c0.002,0.014,0.006,0.02,0.011,0.02C259.788,8.487,259.795,8.501,259.799,8.516z"/>
							<path fill="#E6B257" d="M258.352,9.578c0.082-0.003,0.082-0.003,0.103,0.138c-0.045,0.021-0.089,0.014-0.135-0.008
								c-0.019-0.051-0.034-0.102,0.034-0.132L258.352,9.578z"/>
							<path fill="#E09850" d="M259.366,8.559c-0.017,0.026-0.034,0.051-0.063,0.094c-0.063-0.089-0.033-0.168-0.03-0.243
								c0.058-0.023,0.08,0.007,0.097,0.045C259.392,8.491,259.396,8.526,259.366,8.559z"/>
							<path fill="#E4AC55" d="M259.947,8.373c0.04,0.022,0.079,0.044,0.119,0.067c-0.017,0.052-0.095,0.008-0.108,0.068
								c0.014,0.023,0.012,0.043-0.01,0.059c-0.093-0.077-0.065-0.153,0-0.23c0.015,0.008,0.02,0.017,0.015,0.025
								C259.957,8.369,259.952,8.373,259.947,8.373z"/>
							<path fill="#911C29" d="M258.635,9.674c0.002,0.115,0.004,0.23,0.006,0.345c-0.087-0.105-0.029-0.23-0.045-0.344
								C258.608,9.651,258.621,9.652,258.635,9.674z"/>
							<path fill="#E5AC56" d="M260.864,9.001c0.05-0.076,0.099-0.157,0.196-0.05c-0.014,0.038-0.035,0.072-0.06,0.104
								c-0.013,0.015-0.025,0.031-0.036,0.048l0.001-0.003c-0.017,0.02-0.032,0.018-0.047-0.003
								c-0.003-0.016-0.005-0.032-0.008-0.048c-0.011-0.011-0.024-0.019-0.038-0.025C260.873,9.022,260.864,9.001,260.864,9.001z"/>
							<path fill="#DA7947" d="M259.748,8.375c0.019-0.002,0.037-0.003,0.056-0.005c0.061,0.051,0.062,0.099-0.006,0.145
								c-0.016-0.001-0.033-0.002-0.049-0.004C259.714,8.467,259.713,8.421,259.748,8.375z"/>
							<path fill="#E5AF57" d="M258.593,9.432c-0.084,0.109-0.15,0.026-0.219-0.031c0.074,0.011,0.147,0.022,0.221,0.032
								L258.593,9.432z"/>
							<path fill="#D87646" d="M259.071,8.715c0.034-0.017,0.068-0.035,0.109-0.056c-0.045,0.111-0.045,0.111-0.154,0.099
								C259.035,8.738,259.05,8.723,259.071,8.715z"/>
							<path fill="#E5AA55" d="M259.366,8.559c0.001-0.035,0.003-0.069,0.004-0.104c0.039,0.037,0.079,0.073,0.12,0.111
								C259.435,8.631,259.405,8.558,259.366,8.559z"/>
							<path fill="#E7B659" d="M261.193,10.393c-0.013,0.002-0.026,0.005-0.038,0.012c-0.013,0.008-0.022,0.02-0.027,0.034
								l-0.021,0.006c-0.048-0.015-0.085-0.042-0.099-0.093l0.001-0.001c0.048-0.002,0.096-0.003,0.144-0.005
								C261.197,10.335,261.217,10.345,261.193,10.393z"/>
							<path fill="#D66A43" d="M259.947,8.567c0.003-0.02,0.007-0.04,0.01-0.059c0.039,0.015,0.095-0.007,0.116,0.058
								C260.034,8.64,259.989,8.576,259.947,8.567z"/>
							<path fill="#D56541" d="M260.959,9.05c-0.008-0.075,0.034-0.1,0.101-0.099c0.013,0.017,0.027,0.034,0.04,0.051
								C261.065,9.053,261.027,9.094,260.959,9.05z"/>
							<path fill="#A02631" d="M258.833,9.032c0.031-0.028,0.063-0.057,0.094-0.085c0.018,0.002,0.037,0.003,0.055,0.005
								c-0.032,0.063-0.074,0.116-0.136,0.152C258.842,9.081,258.838,9.057,258.833,9.032z"/>
							<path fill="#E5AC56" d="M261.3,9.528c-0.014,0.014-0.029,0.027-0.043,0.041c-0.038-0.056-0.095-0.033-0.146-0.036
								l-0.012-0.014C261.169,9.449,261.236,9.456,261.3,9.528z"/>
							<path fill="#E5AD56" d="M261.111,9.671c0.022-0.02,0.044-0.039,0.069-0.061c0.002,0.102,0.002,0.102-0.079,0.069
								L261.111,9.671z"/>
							<path fill="#E3A253" d="M258.932,8.805c-0.059-0.016-0.087-0.054-0.095-0.127C258.915,8.703,258.938,8.745,258.932,8.805
								L258.932,8.805z"/>
							<path fill="#E6B358" d="M260.959,9.05c0.055,0.006,0.096-0.026,0.141-0.048c0.005,0.102-0.073,0.092-0.136,0.1
								C260.962,9.084,260.961,9.067,260.959,9.05z"/>
							<path fill="#E6B057" d="M259.008,8.546c0.029-0.038,0.061-0.038,0.097-0.01C259.076,8.572,259.045,8.572,259.008,8.546z"/>
							<path fill="#E5AC55" d="M260.186,8.515c0.01,0.027,0.038,0.048,0.019,0.087c-0.084-0.013-0.081-0.041-0.016-0.084
								L260.186,8.515z"/>
							<path fill="#E9C05C" d="M260.189,8.518c0-0.038,0-0.076,0-0.123c0.076,0.056,0.04,0.088-0.004,0.12L260.189,8.518z"/>
							<path fill="#C64C3F" d="M261.193,10.393c-0.013-0.016-0.027-0.032-0.04-0.048c0.025-0.035,0.059-0.044,0.1-0.037
								c-0.002,0.03-0.004,0.061-0.006,0.091C261.228,10.397,261.21,10.395,261.193,10.393z"/>
							<path fill="#E9BD5B" d="M261.101,9.679c-0.061-0.052-0.068-0.105-0.003-0.159l0.012,0.014c0,0.046,0,0.092,0,0.137
								L261.101,9.679z"/>
							<path fill="#E5AF57" d="M259.071,8.715c-0.015,0.015-0.03,0.029-0.045,0.044c-0.031-0.011-0.045-0.033-0.042-0.07
								C259.025,8.653,259.041,8.712,259.071,8.715z"/>
							<path fill="#E9BC5A" d="M259.947,8.373c0.001-0.012,0.001-0.024,0.001-0.036c0.043-0.015,0.086-0.024,0.127,0.009
								C260.037,8.38,259.991,8.371,259.947,8.373z"/>
							<path fill="#EED361" d="M258.498,9.287c-0.024-0.009-0.059,0.013-0.074-0.025c0.038-0.024,0.055,0.003,0.072,0.029
								L258.498,9.287z"/>
							<path fill="#DB8049" d="M258.35,9.917c-0.013,0.001-0.026,0.001-0.04,0.002c0.001-0.021,0.002-0.042,0.004-0.064
								C258.363,9.86,258.347,9.894,258.35,9.917z"/>
							<path fill="#EDCC5F" d="M260.856,8.799c-0.038-0.018-0.043-0.05-0.039-0.087C260.872,8.722,260.861,8.762,260.856,8.799z"/>
							<path fill="#A02631" d="M258.78,9.131c-0.001-0.01-0.001-0.02,0.001-0.03c0.022,0.002,0.044,0.003,0.066,0.005
								c-0.002,0.044-0.02,0.078-0.06,0.099C258.785,9.18,258.782,9.155,258.78,9.131z"/>
							<path fill="#E8B859" d="M258.593,9.337c0.072,0.032,0.06,0.063,0,0.095l0.002,0.002c0-0.033,0-0.066,0-0.098L258.593,9.337z"
								/>
							<path fill="#941926" d="M258.635,9.674c-0.013,0-0.026,0-0.039,0c-0.002-0.043,0.013-0.078,0.047-0.104
								C258.64,9.605,258.637,9.639,258.635,9.674z"/>
							<path fill="#E8BA59" d="M260.919,9.096c0.016,0,0.031,0.001,0.047,0.003c-0.006,0.022-0.013,0.043-0.02,0.066
								C260.9,9.152,260.914,9.122,260.919,9.096z"/>
							<path fill="#E8B859" d="M258.595,9.335c-0.041,0.001-0.084,0.006-0.097-0.048c0,0-0.003,0.003-0.003,0.004
								c0.042-0.003,0.087-0.014,0.098,0.047C258.593,9.337,258.595,9.335,258.595,9.335z"/>
							<path fill="#78303F" d="M258.885,10.537c0.032,0.007,0.049,0.028,0.057,0.059C258.912,10.586,258.892,10.568,258.885,10.537z
								"/>
							<path fill="#7C404C" d="M260.52,10.735c0.007-0.031,0.03-0.046,0.058-0.055C260.569,10.71,260.55,10.729,260.52,10.735z"/>
							<path fill="#7C404C" d="M258.975,10.631c0.029,0.009,0.052,0.024,0.058,0.057C259.003,10.68,258.984,10.66,258.975,10.631z"
								/>
							<path fill="#78303F" d="M259.028,10.684c0.023,0.018,0.046,0.036,0.069,0.054C259.064,10.732,259.039,10.717,259.028,10.684z
								"/>
							<path fill="#7B1527" d="M260.766,9.111c-0.016-0.006-0.032-0.012-0.047-0.018c-0.002-0.015-0.004-0.031-0.005-0.046
								C260.745,9.057,260.76,9.081,260.766,9.111z"/>
							<path fill="#7F2034" d="M260.57,8.907c-0.022-0.018-0.045-0.036-0.067-0.054c0.024-0.001,0.049-0.001,0.073-0.002h-0.002
								c0.006,0.01,0.011,0.02,0.017,0.03C260.584,8.889,260.577,8.898,260.57,8.907z"/>
							<path fill="#78303F" d="M259.048,8.901c-0.023,0.018-0.045,0.036-0.068,0.054C258.991,8.922,259.016,8.907,259.048,8.901z"/>
							<path fill="#EBC55D" d="M258.935,8.854c-0.001-0.016-0.002-0.033-0.002-0.049v0.001c0.012,0.005,0.032,0.007,0.034,0.015
								c0.007,0.027-0.014,0.03-0.035,0.03C258.931,8.851,258.935,8.854,258.935,8.854z"/>
							<path fill="#78303F" d="M260.716,9.053c-0.027-0.006-0.045-0.022-0.05-0.05c0.005-0.007,0.009-0.014,0.014-0.021
								c0.018-0.006,0.032,0,0.041,0.016l-0.001-0.002C260.718,9.015,260.717,9.034,260.716,9.053z"/>
							<path fill="#EED361" d="M260.816,9.002c0.016,0,0.032-0.001,0.048-0.001l-0.003-0.003c0.013,0.011,0.017,0.021,0.011,0.03
								c-0.005,0.009-0.01,0.013-0.015,0.013c-0.028,0-0.043-0.012-0.038-0.043L260.816,9.002z"/>
							<path fill="#66A572" d="M260.159,10.914c-0.007-0.012-0.014-0.023-0.022-0.034c0.015,0.007,0.03,0.013,0.045,0.02
								l-0.007,0.014H260.159z"/>
							<path fill="#D56541" d="M260.857,9.042c0.003-0.014,0.004-0.029,0.004-0.044c0.017,0.016,0.033,0.033,0.05,0.049
								C260.893,9.046,260.875,9.044,260.857,9.042z"/>
							<path fill="#6E1425" d="M260.455,10.786c0.015-0.029,0.038-0.048,0.071-0.053C260.514,10.766,260.486,10.778,260.455,10.786z
								"/>
							<path fill="#7B1527" d="M260.861,9.26c-0.03-0.014-0.043-0.038-0.045-0.07C260.831,9.213,260.846,9.236,260.861,9.26z"/>
							<path fill="#DB8049" d="M258.398,9.912c-0.007,0.011-0.013,0.022-0.02,0.033c-0.009-0.009-0.018-0.018-0.028-0.026
								C258.367,9.917,258.383,9.915,258.398,9.912z"/>
							<path fill="#EBC55D" d="M261.254,9.631c0.016-0.003,0.031-0.004,0.047-0.005c-0.007,0.012-0.015,0.025-0.023,0.037
								C261.27,9.652,261.262,9.642,261.254,9.631z"/>
							<path fill="#C64C3F" d="M261.152,10.494c-0.008,0.01-0.016,0.02-0.024,0.029c-0.007-0.01-0.015-0.021-0.022-0.031
								C261.122,10.472,261.137,10.473,261.152,10.494z"/>
							<path fill="#832F41" d="M260.711,10.547c0.019-0.024,0.037-0.048,0.056-0.072C260.761,10.509,260.744,10.534,260.711,10.547z
								"/>
							<path fill="#7B1527" d="M258.835,10.471c0.029,0.016,0.049,0.038,0.053,0.073C258.855,10.531,258.842,10.503,258.835,10.471z
								"/>
							<path fill="#EBC55D" d="M261.152,10.494l-0.023,0.002l-0.023-0.004c0-0.016,0-0.032,0-0.048l-0.003,0.004
								c0.017-0.017,0.032-0.016,0.046,0.003C261.153,10.465,261.154,10.48,261.152,10.494z"/>
							<path fill="#C64C3F" d="M261.15,10.451l-0.023-0.003h-0.023c0.007-0.026,0.023-0.042,0.052-0.044
								C261.154,10.42,261.152,10.436,261.15,10.451z"/>
							<path fill="#E7B859" d="M258.692,9.214c0.013-0.024,0.026-0.047,0.04-0.071C258.718,9.167,258.705,9.191,258.692,9.214z"/>
							<path fill="#7F2034" d="M260.814,10.41c0-0.036,0.016-0.063,0.048-0.08C260.846,10.357,260.83,10.383,260.814,10.41z"/>
							<path fill="#7B1527" d="M258.739,10.323c0.034,0.015,0.048,0.044,0.051,0.079C258.758,10.386,258.745,10.357,258.739,10.323z
								"/>
							<path fill="#E29F51" d="M261.007,10.351c-0.011-0.006-0.021-0.013-0.032-0.019c0.029-0.026,0.03-0.001,0.034,0.018
								C261.008,10.349,261.007,10.351,261.007,10.351z"/>
							<path fill="#7F2034" d="M260.867,10.31c-0.004-0.036,0.008-0.064,0.042-0.081C260.895,10.256,260.881,10.283,260.867,10.31z"
								/>
							<path fill="#3C5BA4" d="M260.283,10.183c-0.001,0.023-0.003,0.046-0.004,0.068c-0.003,0.009-0.005,0.018-0.008,0.027
								c-0.017,0.007-0.035,0.012-0.054,0.015c-0.018,0.003-0.036,0.006-0.054,0.009c-0.033,0.007-0.057,0.03-0.084,0.048
								l-0.012,0.001c-0.042,0.018-0.091,0.018-0.129,0.047c-0.092,0.046-0.184,0.046-0.276,0c-0.038-0.029-0.087-0.029-0.13-0.047
								l-0.012-0.002c-0.022-0.014-0.041-0.033-0.064-0.046l0.006,0.002c-0.02-0.025-0.043-0.045-0.075-0.052l-0.018-0.003
								l-0.004-0.017c-0.006-0.033-0.026-0.056-0.052-0.076l0.003,0.005c-0.013-0.022-0.034-0.037-0.048-0.057
								c-0.015-0.007-0.024-0.019-0.027-0.035c0.003-0.023-0.002-0.045-0.017-0.064c-0.064-0.124-0.074-0.25-0.008-0.377
								c0.036-0.034,0.033-0.084,0.052-0.124l0.001-0.013c0.014-0.022,0.032-0.041,0.047-0.063l-0.003,0.005
								c0.019-0.016,0.037-0.033,0.051-0.053l-0.004,0.004c0.02-0.014,0.038-0.031,0.052-0.052l-0.004,0.003
								c0.021-0.013,0.038-0.031,0.055-0.049l-0.005,0.001c0.029-0.026,0.075-0.019,0.1-0.051l-0.004,0.002
								c0.043-0.04,0.111-0.003,0.153-0.048c0.061-0.016,0.123-0.017,0.184,0c0.05,0.043,0.12,0.013,0.172,0.048
								c0.032-0.001,0.059,0.008,0.07,0.042c0.018,0.019,0.034,0.04,0.057,0.055l-0.004-0.003c0.014,0.02,0.032,0.038,0.052,0.052
								l-0.004-0.004c0.014,0.021,0.031,0.038,0.052,0.052l-0.003-0.004c0.013,0.022,0.034,0.037,0.048,0.057
								c0.015,0.007,0.024,0.019,0.027,0.035c-0.004,0.025,0.004,0.047,0.019,0.066l0.001,0.013
								c0.044,0.119,0.013,0.242,0.024,0.363c-0.007,0.016-0.013,0.031-0.02,0.047c-0.032,0.027-0.027,0.073-0.052,0.103v-0.006
								C260.311,10.128,260.29,10.151,260.283,10.183z"/>
							<path fill="#298B41" d="M259.605,10.644c-0.089-0.008-0.168,0.061-0.268,0.026c-0.085-0.077-0.179-0.162-0.272-0.247
								c-0.443-0.408-0.423-1.167,0.168-1.492c0.132-0.073,0.186-0.079,0.45-0.061c-0.311,0.144-0.474,0.373-0.623,0.631
								c0.007,0.227-0.052,0.481,0.101,0.705c-0.113,0.059-0.132-0.041-0.149-0.064c0.041,0.038,0.068,0.161,0.206,0.15
								c0.156,0.089,0.273,0.221,0.385,0.357L259.605,10.644z"/>
							<path fill="#2B8F44" d="M260.769,9.916c-0.051,0.101,0.062,0.081,0.097,0.127c-0.048,0.17-0.236,0.257-0.247,0.439
								c-0.094,0.027-0.17,0.05-0.244,0.071c-0.036,0.035,0.021,0.102-0.092,0.133c-0.055,0.017-0.143-0.054-0.239-0.046
								c-0.015-0.01-0.02-0.02-0.014-0.03c0.005-0.009,0.011-0.014,0.016-0.014c0.067-0.057,0.036-0.209,0.183-0.189l-0.005-0.003
								c0.016-0.035,0.032-0.069,0.048-0.104c-0.005-0.02,0.001-0.037,0.015-0.051l-0.006,0.001
								c0.201-0.024,0.239-0.237,0.381-0.329c0.007-0.008,0.014-0.016,0.021-0.024c0.021-0.007,0.042-0.008,0.063-0.002
								C260.752,9.902,260.761,9.909,260.769,9.916z"/>
							<path fill="#2A8F44" d="M260.714,9.155c0.005,0.086,0.02,0.168,0.079,0.242c-0.024,0.044-0.049,0.088-0.074,0.133
								c-0.007,0.005-0.014,0.011-0.021,0.016c-0.018,0.002-0.034-0.002-0.049-0.013c-0.027-0.023-0.058-0.038-0.092-0.045
								c-0.065-0.068-0.191-0.097-0.153-0.235c-0.169-0.109-0.375-0.174-0.523-0.351c0.09-0.057,0.16-0.045,0.231-0.058
								c0.048,0.04,0.096,0.08,0.143,0.119c0.038-0.019,0.058-0.064,0.108-0.054c0.087,0.069,0.173,0.14,0.178,0.261
								C260.603,9.165,260.659,9.16,260.714,9.155z"/>
							<path fill="#2F9548" d="M260.557,9.488c0.047-0.006,0.09,0,0.12,0.044c0.013,0.02,0.02,0.041,0.011,0.079
								c0.011-0.034,0.009-0.056,0.022-0.074l0.01-0.007c0.047,0.021,0.094,0.042,0.14,0.062c0.031,0.043,0,0.088,0.007,0.131
								c-0.015,0.03-0.03,0.06-0.045,0.089c-0.005,0.009-0.01,0.017-0.015,0.026c-0.038,0.032-0.095,0.028-0.128,0.07l-0.019,0.014
								c-0.091-0.11-0.155-0.223-0.052-0.363C260.613,9.552,260.575,9.512,260.557,9.488z"/>
							<path fill="#327F41" d="M259.217,10.292c-0.003,0.022-0.006,0.045-0.013,0.095c-0.119-0.122-0.289-0.179-0.262-0.393
								c0.095,0.061,0.085,0.21,0.218,0.212C259.181,10.233,259.175,10.278,259.217,10.292z"/>
							<path fill="#4B9D5D" d="M259.755,10.743c-0.098,0.085-0.2,0.161-0.342,0.138c0.009-0.046,0.021-0.08,0.081-0.09
								c0.078-0.014,0.165-0.024,0.212-0.106c-0.017-0.007-0.023-0.015-0.018-0.023c0.006-0.008,0.011-0.012,0.017-0.012
								c0.026-0.003,0.047-0.001,0.049,0.032c0.009,0.01,0.017,0.02,0.026,0.03C259.772,10.723,259.763,10.733,259.755,10.743z"/>
							<path fill="#364A7A" d="M260.405,9.963c-0.049-0.118-0.01-0.242-0.024-0.363C260.451,9.717,260.435,9.839,260.405,9.963z"/>
							<path fill="#65A674" d="M260.045,10.597c0.002,0.015,0.001,0.029-0.002,0.043c-0.026,0.06-0.08,0.052-0.13,0.051
								c-0.027,0.021-0.05,0.018-0.071-0.009C259.895,10.62,259.979,10.629,260.045,10.597z"/>
							<path fill="#546185" d="M260.065,9.239c-0.062,0-0.127,0.012-0.172-0.048C259.956,9.187,260.017,9.189,260.065,9.239z"/>
							<path fill="#586487" d="M259.709,9.191c-0.039,0.055-0.096,0.05-0.153,0.048C259.595,9.183,259.652,9.187,259.709,9.191z"/>
							<path fill="#21803C" d="M259.842,10.683c0.024,0.003,0.047,0.006,0.071,0.009c-0.009,0.015-0.006,0.029,0.007,0.041
								c-0.012,0.008-0.024,0.017-0.036,0.025c-0.014-0.005-0.027-0.01-0.041-0.015c-0.029,0.001-0.058,0.001-0.087,0.002
								c0-0.02-0.001-0.04-0.001-0.06C259.784,10.683,259.813,10.683,259.842,10.683z"/>
							<path fill="#536184" d="M259.533,10.352c0.049-0.001,0.098,0,0.13,0.047C259.613,10.402,259.567,10.394,259.533,10.352z"/>
							<path fill="#5C6785" d="M260.334,10.113c-0.002-0.044,0.007-0.082,0.052-0.103C260.385,10.052,260.378,10.092,260.334,10.113
								z"/>
							<path fill="#5C6785" d="M259.56,9.237c-0.02,0.044-0.057,0.053-0.1,0.051C259.48,9.244,259.517,9.234,259.56,9.237z"/>
							<path fill="#47567E" d="M259.939,10.398c0.031-0.049,0.081-0.045,0.129-0.047C260.035,10.394,259.989,10.402,259.939,10.398z
								"/>
							<path fill="#435581" d="M259.269,9.504c0.001,0.049-0.002,0.097-0.052,0.124C259.217,9.58,259.223,9.533,259.269,9.504z"/>
							<path fill="#438C59" d="M259.705,10.651c-0.001,0.012-0.001,0.023,0.001,0.034c-0.042,0.006-0.071-0.016-0.1-0.041
								l-0.004,0.005C259.636,10.65,259.67,10.65,259.705,10.651z"/>
							<path fill="#78303F" d="M260.617,8.955c-0.026-0.005-0.043-0.02-0.047-0.047l0.005-0.009
								c0.025-0.007,0.043,0.001,0.054,0.024C260.625,8.933,260.621,8.944,260.617,8.955z"/>
							<path fill="#78303F" d="M260.665,9.003c-0.027-0.005-0.043-0.021-0.048-0.048l0.006-0.007c0.04-0.008,0.06,0.004,0.048,0.047
								L260.665,9.003z"/>
							<path fill="#4A5878" d="M259.465,9.286c-0.018,0.016-0.036,0.033-0.055,0.049C259.412,9.301,259.435,9.29,259.465,9.286z"/>
							<path fill="#3E4C71" d="M260.191,9.336c-0.019-0.018-0.038-0.036-0.057-0.055C260.165,9.287,260.19,9.3,260.191,9.336z"/>
							<path fill="#3E4C71" d="M260.38,9.587c-0.029-0.016-0.045-0.035-0.019-0.066C260.367,9.543,260.373,9.565,260.38,9.587z"/>
							<path fill="#354976" d="M259.414,9.332c-0.017,0.017-0.035,0.034-0.052,0.052C259.363,9.35,259.381,9.333,259.414,9.332z"/>
							<path fill="#354976" d="M260.24,9.384c-0.017-0.017-0.035-0.034-0.052-0.052C260.221,9.333,260.239,9.35,260.24,9.384z"/>
							<path fill="#32426B" d="M259.366,9.38c-0.017,0.018-0.034,0.036-0.051,0.053C259.318,9.403,259.331,9.381,259.366,9.38z"/>
							<path fill="#4A5878" d="M260.333,9.486c-0.016-0.019-0.032-0.038-0.048-0.057C260.32,9.431,260.331,9.455,260.333,9.486z"/>
							<path fill="#535C73" d="M259.317,9.428c-0.016,0.021-0.031,0.042-0.047,0.063C259.27,9.458,259.284,9.436,259.317,9.428z"/>
							<path fill="#354976" d="M260.288,9.433c-0.017-0.017-0.034-0.035-0.052-0.052C260.27,9.381,260.287,9.399,260.288,9.433z"/>
							<path fill="#56627D" d="M260.08,10.35c0.02-0.03,0.049-0.044,0.084-0.048C260.144,10.332,260.118,10.351,260.08,10.35z"/>
							<path fill="#535C73" d="M259.457,10.303c0.021,0.015,0.042,0.031,0.064,0.046C259.488,10.35,259.465,10.338,259.457,10.303z"
								/>
							<path fill="#FFFFFF" d="M260.285,10.251c-0.005,0.017-0.01,0.034-0.015,0.051c-0.017-0.003-0.035-0.006-0.052-0.008
								C260.231,10.265,260.248,10.241,260.285,10.251z"/>
							<path fill="#354976" d="M259.388,10.253c0.032,0.007,0.061,0.019,0.075,0.052C259.428,10.304,259.405,10.282,259.388,10.253z
								"/>
							<path fill="#354976" d="M259.314,10.157c0.034,0.014,0.046,0.043,0.052,0.076C259.336,10.216,259.314,10.194,259.314,10.157z
								"/>
							<path fill="#32426B" d="M260.283,10.183c0.008-0.032,0.017-0.062,0.05-0.077C260.333,10.143,260.313,10.166,260.283,10.183z"
								/>
							<path fill="#4A5878" d="M259.269,10.104c0.016,0.019,0.032,0.038,0.048,0.057C259.281,10.159,259.271,10.135,259.269,10.104z
								"/>
							<path fill="#3E4C71" d="M259.225,10.005c0.033,0.014,0.039,0.035,0.017,0.064C259.236,10.048,259.23,10.027,259.225,10.005z"
								/>
							<path fill="#66A572" d="M259.842,10.741c0.026-0.003,0.051-0.006,0.077-0.01c0.084,0.017,0.155,0.081,0.279,0.039
								c-0.031,0.06-0.045,0.086-0.058,0.112C260.014,10.891,259.932,10.809,259.842,10.741z"/>
							<path fill="#2F9548" d="M260.822,9.813c0.053,0.071,0.053,0.071-0.053,0.103l-0.01-0.009c-0.007-0.04,0.016-0.062,0.046-0.08
								L260.822,9.813z"/>
							<path fill="#C93734" d="M258.574,9.069c0.001,0.013,0.002,0.026,0.002,0.039C258.548,9.097,258.552,9.084,258.574,9.069z"/>
							<path fill="#BE1A2B" d="M260.672,8.995c-0.016-0.016-0.032-0.032-0.048-0.047c-0.016-0.016-0.032-0.033-0.048-0.049
								c-0.001-0.016-0.002-0.032-0.001-0.048c0.038,0.005,0.075,0.01,0.105,0.014c0.051,0.04,0.043,0.087,0.041,0.133
								C260.704,8.997,260.688,8.996,260.672,8.995z"/>
							<polygon fill="#BF192A" points="260.597,8.623 260.603,8.638 260.589,8.637 							"/>
							<path fill="#C1192C" d="M258.421,10.232c-0.018-0.02-0.027-0.04,0.004-0.058C258.443,10.195,258.452,10.215,258.421,10.232z"
								/>
							<path fill="#D0503C" d="M261.055,9.338c0.006-0.008,0.013-0.016,0.004-0.006c0.011-0.009,0.003-0.002-0.005,0.005
								C261.054,9.337,261.055,9.338,261.055,9.338z"/>
							<path fill="#C4262F" d="M259.748,8.375c0,0.046,0.001,0.091,0.001,0.137c-0.05,0.003-0.089-0.008-0.088-0.069
								C259.663,8.385,259.694,8.366,259.748,8.375z"/>
							<path fill="#C63031" d="M258.352,9.578c0.028,0.013,0.047,0.03,0.041,0.066c-0.062,0.005-0.025-0.046-0.038-0.068
								L258.352,9.578z"/>
							<path fill="#A08F43" d="M260.013,9.868c-0.007,0.038-0.013,0.075-0.02,0.113c-0.016,0.008-0.025,0.02-0.03,0.036
								c-0.013,0.01-0.027,0.018-0.042,0.023c-0.023,0.008-0.047,0.011-0.071,0.014c-0.033,0.001-0.066,0.002-0.1,0.003l0.001-0.001
								c-0.024,0.057-0.082,0.071-0.126,0.102c-0.034,0.025-0.056,0.017-0.066-0.024c0.003-0.024,0.006-0.048,0.009-0.073
								c0.01-0.021,0.029-0.037,0.031-0.063c-0.002-0.045-0.003-0.089-0.005-0.134c0.013-0.048,0.039-0.09,0.068-0.129
								c0.013-0.012,0.028-0.023,0.045-0.03c0.027-0.003,0.048,0.006,0.062,0.029c0.032-0.004,0.001-0.016,0-0.017
								c-0.016-0.028,0.009,0.011-0.005-0.018c-0.017-0.064,0.003-0.121,0.03-0.178c0.022-0.012,0.041-0.009,0.056,0.011
								c0.025,0.029,0.044,0.061,0.04,0.102c-0.015,0.011-0.018,0.024-0.011,0.041c0.005,0.012,0.009,0.018,0.014,0.018
								c0.013,0.008,0.027,0.016,0.042,0.023c0.023,0.008,0.044,0.021,0.062,0.038c0.01,0.013,0.014,0.029,0.014,0.045
								C260.009,9.823,260.002,9.846,260.013,9.868z"/>
							<path fill="#756F53" d="M259.9,9.661c0.102,0.007,0.203,0.015,0.311,0.022c0.016,0.099-0.068,0.105-0.123,0.137
								c-0.039-0.002-0.071-0.017-0.092-0.051l0.001,0.002c-0.027-0.027-0.07-0.02-0.097-0.047l0.001-0.002
								C259.876,9.702,259.876,9.681,259.9,9.661z"/>
							<path fill="#81794B" d="M259.425,9.683c0.093-0.006,0.186-0.012,0.279-0.019c0.015,0.02,0.014,0.039-0.002,0.058l0.002,0.001
								c-0.061,0.035-0.105,0.103-0.187,0.096c-0.035-0.024-0.071-0.047-0.106-0.071C259.394,9.721,259.398,9.699,259.425,9.683z"/>
							<path fill="#C1AD61" d="M259.702,9.721c0.001-0.019,0.001-0.038,0.002-0.058c0.016-0.044,0.032-0.088,0.048-0.132
								c0.016-0.019,0.034-0.021,0.053-0.006c-0.002,0.081-0.004,0.162-0.005,0.243c-0.013,0.017-0.028,0.018-0.045,0.006
								C259.737,9.758,259.72,9.74,259.702,9.721z"/>
							<path fill="#DCC359" d="M259.517,9.818c0.038-0.079,0.114-0.085,0.187-0.096c-0.042,0.044,0.02,0.167-0.111,0.143
								l-0.011,0.003c-0.03-0.009-0.051-0.031-0.074-0.05H259.517z"/>
							<path fill="#DFC65A" d="M259.996,9.769c0.044-0.006,0.082-0.003,0.092,0.051l0.006-0.001
								c-0.024,0.018-0.044,0.04-0.073,0.051l-0.007-0.002c-0.029-0.003-0.057-0.007-0.095-0.011
								C259.948,9.822,259.972,9.796,259.996,9.769z"/>
							<path fill="#847841" d="M259.996,9.986c0.042,0.031,0.045,0.078,0.052,0.124c0.008,0.047-0.014,0.064-0.058,0.059
								c-0.023-0.02-0.045-0.039-0.068-0.059c0.009-0.032-0.003-0.07,0.026-0.097l-0.004,0.002
								C259.959,10.001,259.976,9.991,259.996,9.986z"/>
							<path fill="#D3BB55" d="M259.948,10.013c0.007,0.036,0.045,0.081-0.026,0.097l-0.008,0.001
								c-0.026-0.013-0.046-0.033-0.068-0.05l0.004-0.005c0.004-0.022,0.008-0.043,0.013-0.07
								C259.894,9.995,259.921,10.004,259.948,10.013z"/>
							<path fill="#2C364E" d="M259.99,10.169c0.019-0.02,0.039-0.039,0.058-0.059c0.041,0.032,0.056,0.07,0.028,0.118
								C260.034,10.228,260.009,10.203,259.99,10.169z"/>
							<path fill="#2D3852" d="M259.766,9.439c0.006-0.037,0.029-0.048,0.073-0.038c0.003,0.026,0.006,0.055,0.01,0.084
								C259.799,9.509,259.783,9.473,259.766,9.439z"/>
							<path fill="#635F55" d="M259.559,10.134c0.022,0.008,0.044,0.016,0.066,0.024c-0.017,0.036-0.047,0.053-0.084,0.064
								C259.505,10.185,259.532,10.16,259.559,10.134z"/>
							<path fill="#877C46" d="M259.766,9.439c0.028,0.015,0.055,0.031,0.083,0.046c0.001,0.016,0.001,0.032,0.002,0.048
								c-0.015-0.003-0.03-0.006-0.045-0.007c-0.018,0.002-0.035,0.004-0.053,0.006C259.757,9.501,259.761,9.47,259.766,9.439z"/>
							<path fill="#C1AD61" d="M259.9,9.661c0,0.02,0,0.041,0,0.061c-0.049-0.023-0.067-0.05-0.011-0.086
								C259.897,9.643,259.9,9.651,259.9,9.661z"/>
							<path fill="#EED361" d="M259.996,9.986c-0.017,0.01-0.034,0.019-0.052,0.029c0.011-0.02,0.016-0.046,0.049-0.034
								L259.996,9.986z"/>
							<path fill="#464F5A" d="M260.02,9.869c0.024-0.017,0.049-0.034,0.073-0.051C260.081,9.852,260.055,9.867,260.02,9.869z"/>
							<path fill="#3C485D" d="M259.509,9.818c0.025,0.017,0.049,0.033,0.074,0.05C259.548,9.866,259.522,9.852,259.509,9.818z"/>
							<path fill="#1D232E" d="M259.425,9.683c-0.005,0.022-0.009,0.043-0.014,0.065c-0.013-0.014-0.027-0.029-0.046-0.049
								C259.389,9.692,259.407,9.687,259.425,9.683z"/>
							<path fill="#464F5A" d="M259.846,10.06c0.023,0.017,0.045,0.033,0.068,0.05C259.881,10.107,259.857,10.092,259.846,10.06z"/>
							<path fill="#635F55" d="M259.599,9.999c-0.01,0.021-0.021,0.042-0.031,0.063C259.564,10.034,259.575,10.013,259.599,9.999z"
								/>
							<path fill="#1A7232" d="M260.804,9.828c-0.015,0.027-0.03,0.053-0.046,0.08c-0.027,0-0.053,0.001-0.08,0.001
								C260.673,9.807,260.741,9.822,260.804,9.828z"/>
							<polygon fill="#FDFEFD" points="260.223,10.406 260.238,10.404 260.228,10.408 							"/>
							<path fill="#1F7236" d="M260.709,9.536c0.008,0.037,0.013,0.073-0.014,0.107c-0.037-0.037-0.021-0.075-0.019-0.112
								C260.688,9.53,260.699,9.532,260.709,9.536z"/>
							<path fill="#4E4522" d="M259.754,9.776c0.016,0.003,0.031,0.001,0.045-0.006c0.044,0.021,0.061,0.048,0.021,0.089
								C259.766,9.856,259.761,9.816,259.754,9.776z"/>
							<path fill="#EAD05F" d="M259.751,10.057c-0.094-0.06,0.005-0.081,0.009-0.134C259.83,9.991,259.746,10.016,259.751,10.057
								L259.751,10.057z"/>
							<path fill="#EED361" d="M259.9,9.724c0.037,0.005,0.085-0.011,0.097,0.047C259.957,9.77,259.918,9.77,259.9,9.724z"/>
						</g>
					</g>
				</g>
			</g>
		</g>
	</g>
</g>
<circle fill="none" stroke="#575756" stroke-miterlimit="10" cx="259.817" cy="9.771" r="7.049"/>
<g>
	<path fill="#575756" d="M520.237,11.867h-1.086v2.132h-1.467v-2.132h-3.816v-1.015l3.423-5.122h1.86v4.979h1.086V11.867z
		 M517.684,10.71V8.838c0-0.481,0.041-1.235,0.068-1.716h-0.055c-0.218,0.429-0.462,0.845-0.706,1.287l-1.575,2.301
		C515.416,10.71,517.684,10.71,517.684,10.71z"/>
	<path fill="#575756" d="M520.891,15.546c0.869-0.325,1.371-0.91,1.371-1.573c-0.041,0-0.081,0-0.122,0
		c-0.529,0-1.005-0.338-1.005-0.923c0-0.559,0.476-0.923,1.046-0.923c0.733,0,1.168,0.572,1.168,1.534
		c0,1.273-0.774,2.262-2.119,2.704L520.891,15.546z"/>
	<path fill="#575756" d="M530.262,11.867h-1.086v2.132h-1.467v-2.132h-3.816v-1.015l3.423-5.122h1.86v4.979h1.086V11.867z
		 M527.709,10.71V8.838c0-0.481,0.041-1.235,0.068-1.716h-0.055c-0.218,0.429-0.462,0.845-0.706,1.287l-1.575,2.301
		C525.441,10.71,527.709,10.71,527.709,10.71z"/>
	<path fill="#575756" d="M531.351,12.022c0.516,0.508,1.181,0.91,2.05,0.91c0.938,0,1.589-0.468,1.589-1.248
		c0-0.857-0.57-1.403-2.539-1.403V9.188c1.697,0,2.254-0.559,2.254-1.326c0-0.688-0.488-1.104-1.276-1.104
		c-0.679,0-1.208,0.312-1.738,0.78l-0.801-0.924c0.733-0.623,1.562-1.039,2.594-1.039c1.656,0,2.798,0.779,2.798,2.184
		c0,0.923-0.571,1.547-1.508,1.898v0.052c1.019,0.26,1.793,0.962,1.793,2.054c0,1.508-1.372,2.393-3.028,2.393
		c-1.399,0-2.322-0.521-2.934-1.17L531.351,12.022z"/>
</g>
</svg>
