<?xml version="1.0" encoding="utf-8"?>
<!-- Generator: Adobe Illustrator 17.0.0, SVG Export Plug-In . SVG Version: 6.00 Build 0)  -->
<!DOCTYPE svg PUBLIC "-//W3C//DTD SVG 1.1//EN" "http://www.w3.org/Graphics/SVG/1.1/DTD/svg11.dtd">
<svg version="1.1" id="Layer_1" xmlns="http://www.w3.org/2000/svg" xmlns:xlink="http://www.w3.org/1999/xlink" x="0px" y="0px"
	 width="600px" height="19.542px" viewBox="0 0 600 19.542" enable-background="new 0 0 600 19.542" xml:space="preserve">
<rect x="165.817" y="2.722" fill="#ABCCB7" width="26.312" height="14.097"/>
<g>
	<rect x="448.356" y="8.771" fill="#ABCCB7" width="48.573" height="2"/>
</g>
<g>
	<g>
		<circle fill="#ABCCB7" cx="496.805" cy="9.771" r="2.481"/>
	</g>
</g>
<rect x="0" y="0" fill="none" width="600" height="19.542"/>
<line fill="none" stroke="#9F9F9F" stroke-width="0.7" stroke-miterlimit="10" stroke-dasharray="6,3" x1="199.426" y1="0.851" x2="199.426" y2="18.991"/>
<line fill="none" stroke="#9F9F9F" stroke-width="0.7" stroke-miterlimit="10" stroke-dasharray="6,3" x1="440.97" y1="0.851" x2="440.97" y2="18.991"/>
<g>
	<g>
		<g>
			<defs>
				<circle id="SVGID_1_" cx="259.927" cy="9.771" r="7.049"/>
			</defs>
			<clipPath id="SVGID_2_">
				<use xlink:href="#SVGID_1_"  overflow="visible"/>
			</clipPath>
			<g id="r4nOeN_1_" clip-path="url(#SVGID_2_)">
				<g>
					<g>
						<path fill="#3C5BA4" d="M274.684,12.233c0,1.609,0,3.219,0,4.828c-0.092,0.046-0.19,0.022-0.285,0.022
							c-9.456,0.001-18.912,0.001-28.368,0.001c-0.088,0-0.177,0.012-0.264-0.012c-0.044-0.066-0.025-0.14-0.025-0.211
							c-0.001-1.533-0.002-3.066,0-4.598c0-0.056,0.024-0.091,0.082-0.099c9.505-0.001,19.009,0,28.514,0
							C274.457,12.164,274.583,12.142,274.684,12.233z"/>
						<path fill="#BF192A" d="M274.684,2.626c0,1.609,0,3.219,0,4.828c-0.025,0.021-0.052,0.039-0.082,0.052
							c-0.125,0.044-0.254,0.031-0.382,0.031c-9.336,0.001-18.672,0.001-28.008,0c-0.136,0-0.274,0.015-0.404-0.044
							c-0.069-0.038-0.066-0.103-0.066-0.168c0-1.537-0.001-3.073,0.001-4.61c0-0.032,0-0.065,0.044-0.108
							c0.064-0.052,0.165-0.028,0.258-0.028c9.453-0.001,18.906-0.001,28.36,0C274.5,2.578,274.6,2.559,274.684,2.626z"/>
						<path fill="#290E13" d="M274.684,2.626c-9.627,0-19.253,0-28.871,0c-0.074,0.081-0.047,0.165-0.047,0.242
							c-0.002,1.456-0.002,2.912,0,4.367c0,0.075-0.034,0.163,0.044,0.224c0.083,0.081,0.083,0.188,0.084,0.291
							c0.003,1.385,0.003,2.77,0,4.155c0,0.072-0.004,0.144-0.03,0.213c-0.013,0.03-0.034,0.054-0.061,0.072
							c-0.014,0.014-0.027,0.028-0.041,0.042c-0.015,0.023-0.03,0.023-0.045,0c0-3.219,0-6.437,0-9.656
							c0.084-0.045,0.174-0.022,0.261-0.022c9.482-0.001,18.964-0.001,28.446,0c0.087,0,0.177-0.022,0.261,0.022
							C274.684,2.593,274.684,2.61,274.684,2.626z"/>
						<path fill="#BFBFBF" d="M274.634,7.461c0.017-0.003,0.033-0.005,0.05-0.008c0,1.593,0,3.186,0,4.78
							c-0.088-0.002-0.177-0.006-0.265-0.006c-9.437,0-18.874,0-28.311-0.002c-0.102,0-0.21,0.032-0.305-0.035l0.013-0.01
							c0.077-0.073,0.174-0.076,0.271-0.079c0.113-0.004,0.225-0.002,0.338-0.002c9.204,0,18.408,0,27.612-0.001
							c0.151,0,0.306,0.022,0.453-0.037c0.086-0.107,0.06-0.232,0.06-0.349c0.002-1.279,0-2.558,0.003-3.838
							C274.553,7.734,274.524,7.583,274.634,7.461z"/>
						<path fill="#010202" d="M245.78,17.053c0.346-0.001,0.692-0.002,1.037-0.002c9.185,0,18.369,0,27.554,0
							c0.104,0,0.209,0.006,0.313,0.009c-0.011,0.015,0.024,0.05-0.024,0.049c-0.064-0.002-0.129-0.001-0.193-0.001
							c-9.511,0-19.022,0-28.532-0.003c-0.071,0-0.164,0.056-0.217-0.045c0.01-0.009,0.019-0.018,0.029-0.027
							C245.757,17.04,245.769,17.047,245.78,17.053z"/>
						<path fill="#808081" d="M274.684,2.577c-9.656,0-19.311,0-28.967,0c0.011-0.015-0.024-0.05,0.024-0.049
							c0.064,0.002,0.129,0.001,0.193,0.001c9.511,0,19.022,0,28.532,0.003C274.537,2.532,274.63,2.476,274.684,2.577z"/>
						<path fill="#101728" d="M245.78,17.053c-0.021,0.002-0.042,0.005-0.063,0.007c0-1.609,0-3.219,0-4.828c0.015,0,0.03,0,0.045,0
							c0.001,1.511,0.002,3.022,0.003,4.533C245.766,16.861,245.775,16.957,245.78,17.053z"/>
						<path fill="#FFFFFF" d="M274.634,7.461c0,1.56,0,3.121,0,4.67c-0.078,0.078-0.163,0.052-0.24,0.052
							c-9.502,0.001-19.003,0.001-28.505,0.001c-0.024,0-0.048-0.002-0.072-0.003c-0.002-1.574-0.004-3.148-0.005-4.722
							c0.08-0.002,0.161-0.005,0.241-0.005c9.447,0,18.894,0,28.341,0C274.474,7.454,274.554,7.459,274.634,7.461z"/>
						<path fill="#FEFEFE" d="M260.877,11.424c-0.048,0.029-0.095,0.057-0.143,0.086c-0.034-0.031-0.072-0.028-0.111-0.014
							c-0.061,0.044-0.133,0.062-0.203,0.084c-0.071-0.006-0.126,0.055-0.197,0.049c-0.073,0.002-0.147-0.004-0.22,0.005
							c-0.063,0.023-0.125,0.021-0.187-0.001c-0.077-0.008-0.155-0.002-0.232-0.005c-0.084-0.03-0.172-0.042-0.255-0.074
							l0.008,0.005c-0.028-0.03-0.07-0.024-0.105-0.038c-0.031-0.024-0.068-0.037-0.103-0.053c-0.036-0.036-0.09-0.041-0.128-0.074
							c-0.019-0.006-0.038-0.012-0.058-0.018c-0.043-0.026-0.065-0.079-0.12-0.089c-0.021-0.006-0.038-0.017-0.054-0.031
							c-0.12-0.126-0.256-0.236-0.357-0.379l0.006,0.007c-0.013-0.015-0.022-0.031-0.028-0.049
							c-0.033-0.047-0.066-0.094-0.097-0.142c-0.044-0.042-0.037-0.109-0.074-0.154l0.006,0.007
							c-0.036-0.044-0.027-0.108-0.067-0.15c-0.008-0.034-0.018-0.066-0.031-0.098c-0.031-0.067-0.024-0.14-0.028-0.211
							c-0.073-0.193-0.047-0.389-0.019-0.585c0.021-0.068,0.019-0.142,0.046-0.209c0.011-0.032,0.024-0.064,0.029-0.099
							c0.023-0.05,0.035-0.106,0.069-0.152l-0.006,0.007c0.033-0.029,0.024-0.076,0.048-0.109c0.034-0.039,0.053-0.087,0.08-0.131
							c0.026-0.044,0.079-0.068,0.094-0.122c0.005-0.021,0.014-0.04,0.029-0.056c0.11-0.106,0.207-0.225,0.334-0.312l-0.006,0.005
							c0.015-0.013,0.032-0.022,0.051-0.029c0.042-0.027,0.067-0.074,0.115-0.094c0.095-0.042,0.189-0.088,0.279-0.14
							c0.033-0.006,0.065-0.018,0.096-0.029c0.056-0.025,0.117-0.023,0.176-0.031c0.264-0.062,0.529-0.07,0.793-0.002
							c0.057,0.012,0.12,0.001,0.169,0.044c0.051,0.017,0.11,0.013,0.153,0.054c0.02,0.005,0.04,0.011,0.06,0.019
							c0.041,0.031,0.092,0.045,0.132,0.077c0.019,0.006,0.039,0.012,0.058,0.018c0.043,0.026,0.065,0.079,0.12,0.089
							c0.021,0.006,0.038,0.017,0.054,0.031c0.12,0.126,0.256,0.235,0.356,0.379l-0.005-0.006c0.013,0.016,0.023,0.033,0.03,0.053
							c0.025,0.032,0.047,0.066,0.072,0.098l-0.004-0.005c0.041,0.061,0.084,0.121,0.113,0.19c0.01,0.031,0.008,0.064,0.012,0.096
							c0.021,0.039,0.044,0.077,0.054,0.121c0.026,0.066,0.047,0.134,0.061,0.203c0.029,0.225,0.057,0.451-0.019,0.673
							c-0.004,0.037-0.002,0.075-0.009,0.112c-0.055,0.057-0.024,0.144-0.069,0.205l0.005-0.007
							c-0.036,0.038-0.027,0.099-0.065,0.136c-0.007,0.018-0.013,0.037-0.017,0.057c-0.022,0.032-0.04,0.067-0.052,0.104
							c-0.026,0.04-0.075,0.062-0.087,0.112c-0.004,0.02-0.012,0.037-0.024,0.052c-0.053,0.059-0.115,0.109-0.165,0.171
							c-0.007,0.019-0.017,0.036-0.029,0.052l0.007-0.007c-0.017,0.013-0.035,0.024-0.055,0.031
							c-0.063,0.057-0.12,0.121-0.193,0.167l0.006-0.006c-0.026,0.023-0.062,0.029-0.085,0.056c-0.01,0.009-0.02,0.018-0.032,0.026
							C260.871,11.401,260.883,11.407,260.877,11.424z"/>
						<path fill="#4D4D4D" d="M260.346,8.027c-0.29-0.06-0.581-0.054-0.871,0c-0.016-0.01-0.021-0.019-0.015-0.028
							c0.005-0.009,0.011-0.014,0.016-0.014c0.29-0.093,0.579-0.092,0.869-0.001c0.016,0.009,0.021,0.018,0.016,0.028
							C260.357,8.022,260.352,8.027,260.346,8.027z"/>
						<path fill="#343434" d="M261.705,10.158c0.049-0.242,0.04-0.483,0-0.725c0.013-0.017,0.029-0.02,0.048-0.009
							c0.021,0.022,0.03,0.049,0.035,0.077c-0.008,0.219,0.051,0.443-0.045,0.656C261.73,10.18,261.717,10.18,261.705,10.158z"/>
						<path fill="#424242" d="M258.118,9.48c-0.035,0.21-0.038,0.419-0.001,0.629c-0.014,0.022-0.028,0.021-0.041-0.001
							c-0.09-0.184-0.031-0.379-0.044-0.569c0.011-0.025,0.018-0.052,0.04-0.071C258.091,9.46,258.106,9.463,258.118,9.48z"/>
						<path fill="#484848" d="M261.41,8.711c-0.154-0.101-0.265-0.248-0.39-0.379c-0.015-0.01-0.02-0.02-0.015-0.031
							c0.005-0.011,0.009-0.016,0.014-0.016C261.179,8.4,261.349,8.505,261.41,8.711z"/>
						<path fill="#454545" d="M258.412,10.878c0.147,0.11,0.268,0.246,0.391,0.38c0.015,0.01,0.02,0.021,0.015,0.031
							c-0.005,0.01-0.01,0.016-0.015,0.016C258.641,11.192,258.473,11.084,258.412,10.878z"/>
						<path fill="#464646" d="M258.803,8.32c-0.082,0.142-0.212,0.236-0.331,0.342c-0.015,0.02-0.03,0.021-0.046,0.001
							C258.522,8.517,258.62,8.372,258.803,8.32z"/>
						<path fill="#4E4E4E" d="M259.237,8.092c-0.095,0.053-0.19,0.106-0.285,0.158c-0.024-0.02-0.026-0.041-0.006-0.065
							c0.091-0.061,0.186-0.111,0.292-0.139c0.014,0.01,0.018,0.021,0.014,0.031C259.247,8.087,259.242,8.092,259.237,8.092z"/>
						<path fill="#575757" d="M261.223,11.078c0.043-0.079,0.093-0.151,0.172-0.198c0.017-0.02,0.034-0.021,0.052-0.001
							c-0.035,0.083-0.085,0.153-0.165,0.198C261.263,11.088,261.243,11.089,261.223,11.078z"/>
						<path fill="#7C7C7C" d="M259.81,11.613c0.067,0,0.134,0,0.201,0c0.014,0.012,0.018,0.024,0.013,0.035s-0.01,0.017-0.015,0.017
							c-0.065,0.058-0.131,0.058-0.196,0c-0.015-0.011-0.02-0.022-0.016-0.034C259.801,11.619,259.806,11.613,259.81,11.613z"/>
						<path fill="#484848" d="M260.971,11.318c0.034-0.096,0.118-0.139,0.198-0.186c0.013,0.017,0.012,0.034,0,0.051
							C261.117,11.25,261.075,11.33,260.971,11.318z"/>
						<path fill="#696969" d="M260.441,11.554c0.053-0.059,0.13-0.061,0.198-0.084c0.014,0.013,0.018,0.025,0.013,0.037
							s-0.01,0.018-0.014,0.018c-0.054,0.055-0.122,0.074-0.197,0.078c-0.017-0.011-0.022-0.021-0.017-0.032
							C260.43,11.56,260.436,11.554,260.441,11.554z"/>
						<path fill="#4E4E4E" d="M261.584,9.05c-0.043-0.06-0.101-0.113-0.081-0.199c0.076-0.01,0.064,0.076,0.108,0.1
							c0.012,0.021,0.027,0.04,0.033,0.064c-0.001,0.012-0.004,0.023-0.007,0.034C261.618,9.069,261.601,9.069,261.584,9.05z"/>
						<path fill="#313131" d="M259.327,11.555c0.088-0.014,0.17,0.002,0.245,0.051c0.016,0.009,0.022,0.018,0.016,0.026
							c-0.005,0.009-0.011,0.013-0.016,0.013C259.49,11.619,259.389,11.639,259.327,11.555z"/>
						<path fill="#2B2B2B" d="M258.218,10.54c0.08,0.02,0.064,0.101,0.098,0.15c0.013,0.01,0.018,0.021,0.016,0.033
							c-0.002,0.013-0.005,0.019-0.008,0.019c-0.02,0.012-0.038,0.01-0.056-0.005C258.264,10.669,258.187,10.618,258.218,10.54z"/>
						<path fill="#2A2A2A" d="M261.742,9.433c-0.013,0-0.025,0-0.038,0c-0.016-0.064-0.033-0.129-0.049-0.193
							c0.014-0.023,0.026-0.023,0.038,0.002l0.018-0.004c-0.001,0.025,0.023,0.039,0.03,0.06c0.004,0.029,0.009,0.059,0.013,0.088
							C261.769,9.406,261.763,9.422,261.742,9.433z"/>
						<path fill="#363636" d="M261.646,10.45c-0.01-0.073-0.01-0.143,0.053-0.196c0.011-0.023,0.022-0.024,0.035-0.001
							C261.711,10.321,261.733,10.41,261.646,10.45z"/>
						<path fill="#2C2C2C" d="M258.076,10.109c0.014,0,0.027,0.001,0.041,0.001c0.014,0.064,0.028,0.129,0.041,0.193
							c-0.01,0.015-0.024,0.022-0.043,0.02c-0.016-0.008-0.027-0.019-0.034-0.036C258.08,10.227,258.078,10.168,258.076,10.109z"/>
						<path fill="#2A2B2B" d="M258.118,9.48h-0.02h-0.02c-0.015-0.007-0.021-0.016-0.021-0.028c0.001-0.013,0.003-0.019,0.007-0.019
							c0.006-0.041,0.013-0.083,0.019-0.124c0.004-0.019,0.015-0.033,0.031-0.043c0.02-0.003,0.035,0.004,0.046,0.02
							C258.147,9.352,258.132,9.416,258.118,9.48z"/>
						<path fill="#0F0F0F" d="M260.828,8.214c-0.053-0.022-0.114-0.031-0.144-0.089c-0.001-0.01-0.001-0.021-0.002-0.031
							c0.051,0.024,0.116,0.026,0.144,0.087C260.828,8.192,260.828,8.203,260.828,8.214z"/>
						<path fill="#313131" d="M260.441,11.554c0,0.016,0,0.032,0,0.048c-0.064,0.015-0.128,0.029-0.192,0.044
							c-0.016-0.009-0.022-0.018-0.016-0.027c0.005-0.009,0.011-0.013,0.016-0.013C260.307,11.568,260.371,11.549,260.441,11.554z"
							/>
						<path fill="#2D2D2D" d="M259.573,11.645c0-0.013,0-0.026,0-0.04c0.079,0.002,0.158,0.005,0.237,0.007
							c0.001,0.017,0.002,0.034,0.003,0.052C259.733,11.658,259.653,11.652,259.573,11.645z"/>
						<path fill="#2E2E2E" d="M260.249,11.606c0,0.013,0,0.027,0,0.04c-0.08,0.006-0.16,0.012-0.24,0.019
							c0.001-0.017,0.002-0.035,0.003-0.052C260.091,11.611,260.17,11.608,260.249,11.606z"/>
						<path fill="#5B5B5B" d="M258.453,8.705c-0.016,0.042-0.026,0.088-0.078,0.102c-0.017,0.019-0.034,0.02-0.051,0.002
							c0.008-0.046,0.027-0.084,0.075-0.102C258.416,8.691,258.434,8.69,258.453,8.705z"/>
						<path fill="#1F2020" d="M258.171,10.399c0.058,0.035,0.062,0.089,0.053,0.148c-0.09-0.014-0.052-0.103-0.087-0.149
							C258.149,10.375,258.16,10.375,258.171,10.399z"/>
						<path fill="#2A2A2A" d="M259.476,7.985c0.001,0.014,0.001,0.028-0.001,0.042c-0.048,0.014-0.096,0.028-0.145,0.042
							c-0.016-0.01-0.022-0.024-0.02-0.043c0.006-0.017,0.018-0.029,0.033-0.037C259.388,7.988,259.432,7.986,259.476,7.985z"/>
						<path fill="#222222" d="M261.564,10.593c0.039-0.044,0-0.134,0.088-0.149c0.011,0.061,0.002,0.113-0.056,0.147
							C261.585,10.591,261.574,10.592,261.564,10.593z"/>
						<path fill="#484848" d="M258.31,10.754c0.002-0.021,0.004-0.043,0.006-0.064c0.045,0.039,0.074,0.088,0.089,0.145
							c-0.016,0.014-0.031,0.014-0.046-0.001c-0.02-0.017-0.04-0.035-0.061-0.052C258.303,10.773,258.307,10.764,258.31,10.754z"/>
						<path fill="#5B5B5B" d="M261.416,10.836c0.009-0.044,0.029-0.08,0.07-0.102c0.019-0.019,0.038-0.02,0.058-0.001
							c-0.009,0.045-0.026,0.085-0.074,0.102C261.452,10.852,261.434,10.852,261.416,10.836z"/>
						<path fill="#5B5B5B" d="M260.976,8.314c-0.044-0.011-0.084-0.028-0.102-0.075c-0.012-0.012-0.016-0.023-0.013-0.035
							c0.004-0.012,0.008-0.018,0.011-0.018c0.044,0.01,0.085,0.027,0.102,0.074c0.012,0.012,0.016,0.023,0.013,0.035
							C260.984,8.308,260.98,8.314,260.976,8.314z"/>
						<path fill="#5B5B5B" d="M258.946,8.186c0.002,0.022,0.004,0.043,0.006,0.065c-0.028,0.034-0.06,0.061-0.106,0.067
							c-0.01-0.012-0.014-0.023-0.01-0.035c0.004-0.011,0.007-0.017,0.011-0.017C258.86,8.213,258.908,8.205,258.946,8.186z"/>
						<path fill="#606060" d="M258.845,11.278c0.039,0.02,0.089,0.023,0.102,0.076c0.016,0.011,0.021,0.022,0.016,0.034
							s-0.01,0.017-0.015,0.017c-0.046-0.001-0.075-0.029-0.1-0.063C258.833,11.322,258.831,11.3,258.845,11.278z"/>
						<path fill="#5E5E5E" d="M258.99,11.373c0.058,0.016,0.113,0.036,0.152,0.085c-0.026,0.021-0.053,0.022-0.081,0.004
							c-0.034,0.008-0.064,0.006-0.07-0.038c-0.012-0.011-0.017-0.022-0.013-0.034C258.982,11.379,258.986,11.373,258.99,11.373z"/>
						<path fill="#2B2B2B" d="M259.061,11.462c0.027-0.001,0.054-0.002,0.081-0.004c0.04,0.001,0.073,0.014,0.092,0.052
							c0.017,0.008,0.023,0.016,0.018,0.024c-0.006,0.008-0.011,0.013-0.017,0.013C259.172,11.528,259.108,11.514,259.061,11.462z"
							/>
						<path fill="#1F2020" d="M260.636,8.118c-0.048-0.017-0.097-0.034-0.145-0.051c0-0.01-0.001-0.02-0.001-0.03
							c0.058-0.011,0.111-0.011,0.144,0.05C260.635,8.097,260.635,8.107,260.636,8.118z"/>
						<path fill="#252525" d="M260.489,8.037c0.001,0.01,0.001,0.02,0.001,0.03c-0.048-0.013-0.096-0.027-0.144-0.04
							c-0.001-0.014-0.002-0.028-0.001-0.043C260.4,7.984,260.46,7.968,260.489,8.037z"/>
						<path fill="#2B2B2B" d="M258.224,9.043c0.008,0.058,0.015,0.115-0.05,0.149c-0.011,0.022-0.023,0.022-0.035,0
							c-0.004-0.012-0.007-0.024-0.009-0.036c0.008-0.022,0.024-0.039,0.033-0.06C258.178,9.072,258.18,9.034,258.224,9.043z"/>
						<path fill="#0F0F0F" d="M258.323,8.809c0.017-0.001,0.034-0.001,0.051-0.002c-0.022,0.057-0.041,0.116-0.097,0.151
							c-0.008-0.002-0.016-0.003-0.025-0.005c-0.004-0.016-0.004-0.033,0-0.05c0.006-0.016,0.012-0.031,0.018-0.047
							c0.015-0.016,0.028-0.034,0.038-0.054L258.323,8.809z"/>
						<path fill="#484848" d="M261.506,8.856c-0.073,0.005-0.071-0.058-0.091-0.101c0.016-0.014,0.031-0.014,0.047,0.001
							C261.513,8.773,261.523,8.808,261.506,8.856z"/>
						<path fill="#0F0F0F" d="M261.543,10.733c-0.019,0-0.038,0.001-0.058,0.001c0.02-0.034,0.02-0.084,0.073-0.093
							c0.009-0.001,0.019-0.001,0.028-0.002C261.572,10.671,261.557,10.702,261.543,10.733z"/>
						<path fill="#222222" d="M261.693,9.241c-0.013-0.001-0.025-0.001-0.038-0.002c-0.012-0.032-0.024-0.064-0.036-0.096
							c0.008,0,0.017,0.001,0.025,0.001C261.707,9.153,261.693,9.201,261.693,9.241z"/>
						<path fill="#181818" d="M258.139,9.192c0.012,0.003,0.023,0.003,0.035,0c-0.004,0.032-0.008,0.064-0.012,0.095l-0.017-0.001
							l-0.016,0.002c-0.018-0.012-0.023-0.028-0.015-0.048C258.121,9.225,258.13,9.209,258.139,9.192z"/>
						<path fill="#181818" d="M258.171,10.399l-0.017-0.001h-0.017c-0.009-0.016-0.017-0.033-0.026-0.049
							c-0.006-0.02,0-0.036,0.017-0.048c0.01,0.004,0.02,0.004,0.03,0.002C258.163,10.335,258.167,10.367,258.171,10.399z"/>
						<path fill="#252525" d="M261.734,10.253c-0.012,0-0.023,0-0.035,0.001c0.002-0.032,0.003-0.064,0.005-0.097
							c0.013,0,0.025,0,0.038,0C261.74,10.189,261.737,10.221,261.734,10.253z"/>
						<path fill="#1F2020" d="M261.645,9.144c-0.008-0.001-0.017-0.001-0.025-0.001c-0.012-0.031-0.024-0.062-0.036-0.093
							c0.017,0,0.035,0,0.052,0C261.651,9.08,261.664,9.111,261.645,9.144z"/>
						<path fill="#272827" d="M259.235,11.547c0-0.012,0-0.025-0.001-0.037c0.042,0,0.093-0.019,0.101,0.05
							C259.302,11.556,259.269,11.552,259.235,11.547z"/>
						<path fill="#181818" d="M259.331,8.033c-0.002,0.012-0.002,0.024-0.001,0.036c-0.031,0.008-0.062,0.015-0.093,0.023
							c0.009-0.015,0.009-0.03,0.001-0.046c0.015-0.008,0.031-0.017,0.046-0.025C259.303,8.014,259.319,8.018,259.331,8.033z"/>
						<path fill="#1F2020" d="M260.637,11.525c0-0.018,0.001-0.037,0.001-0.055c0.038-0.002,0.103-0.069,0.095,0.04
							C260.702,11.515,260.67,11.52,260.637,11.525z"/>
						<path fill="#FEFEFE" d="M258.065,9.434c0.004,0.016,0.009,0.031,0.013,0.047c-0.015,0.02-0.031,0.04-0.046,0.06
							C258.028,9.5,258.031,9.462,258.065,9.434z"/>
						<path fill="#1F2020" d="M258.277,8.958c-0.006,0.039,0.009,0.093-0.059,0.092c0.001-0.034,0.002-0.068,0.002-0.102
							c0.012-0.014,0.025-0.016,0.04-0.005L258.277,8.958z"/>
						<path fill="#0F0F0F" d="M260.877,11.424c-0.024,0-0.046-0.006-0.056-0.037c0.018-0.006,0.039-0.014,0.06-0.021
							c0.012-0.019,0.025-0.02,0.04-0.003C260.906,11.383,260.891,11.403,260.877,11.424z"/>
						<path fill="#FEFEFE" d="M261.742,9.433c0.004-0.016,0.009-0.032,0.013-0.047c0.039,0.031,0.037,0.073,0.032,0.116
							C261.772,9.479,261.757,9.456,261.742,9.433z"/>
						<path fill="#0F0F0F" d="M260.92,11.363c-0.013,0.001-0.026,0.002-0.04,0.003c0.016-0.048,0.05-0.061,0.096-0.053
							C260.982,11.356,260.955,11.364,260.92,11.363z"/>
						<path fill="#FEFEFE" d="M258.162,9.096c0.006,0.029-0.005,0.05-0.033,0.06C258.14,9.136,258.151,9.116,258.162,9.096z"/>
						<path fill="#010202" d="M261.586,10.639c-0.009-0.001-0.019,0-0.028,0.002c0.002-0.016,0.004-0.033,0.005-0.049
							c0.011,0.001,0.021,0,0.032-0.002C261.593,10.607,261.589,10.623,261.586,10.639z"/>
						<path fill="#FEFEFE" d="M259.331,8.033c-0.016-0.004-0.031-0.008-0.047-0.012c0.02-0.011,0.04-0.021,0.06-0.032
							C259.338,8.003,259.334,8.018,259.331,8.033z"/>
						<path fill="#0F0F0F" d="M258.847,8.265c0,0.017,0,0.035-0.001,0.052c-0.017,0.003-0.033,0.006-0.05,0.008
							C258.789,8.285,258.818,8.275,258.847,8.265z"/>
						<path fill="#FEFEFE" d="M258.261,8.943L258.24,8.94l-0.019,0.008c0.011-0.015,0.022-0.029,0.032-0.044
							C258.254,8.917,258.256,8.93,258.261,8.943z"/>
						<path fill="#010202" d="M260.636,8.118c0-0.011,0-0.021-0.002-0.032c0.016,0.002,0.033,0.005,0.049,0.007
							c0,0.01,0,0.021,0.002,0.031C260.668,8.122,260.652,8.12,260.636,8.118z"/>
						<path fill="#FEFEFE" d="M261.643,9.015c-0.028-0.013-0.035-0.036-0.033-0.064C261.621,8.973,261.632,8.994,261.643,9.015z"/>
						<path fill="#0F0F0F" d="M258.99,11.373c0,0.017,0.001,0.034,0.001,0.051c-0.016-0.003-0.031-0.009-0.044-0.018
							c0-0.017-0.001-0.034-0.001-0.051C258.963,11.357,258.977,11.363,258.99,11.373z"/>
						<path fill="#0F0F0F" d="M258.845,11.278c0.001,0.021,0.002,0.043,0.004,0.064c-0.015-0.012-0.03-0.024-0.045-0.037
							c0.007-0.016,0.007-0.031,0-0.047C258.82,11.259,258.834,11.265,258.845,11.278z"/>
						<path fill="#0F0F0F" d="M261.169,11.184c0-0.017,0-0.034,0-0.051c0.017-0.004,0.033-0.008,0.05-0.012
							C261.22,11.156,261.199,11.173,261.169,11.184z"/>
						<path fill="#0F0F0F" d="M261.223,11.078c0.019-0.001,0.039-0.001,0.058-0.002c-0.016,0.027-0.033,0.052-0.07,0.051
							C261.216,11.11,261.22,11.094,261.223,11.078z"/>
						<path fill="#0F0F0F" d="M260.873,8.187c0,0.018,0.001,0.035,0.001,0.053c-0.015-0.009-0.031-0.017-0.046-0.026
							c0-0.011,0-0.022-0.001-0.033C260.843,8.183,260.858,8.185,260.873,8.187z"/>
						<path fill="#010202" d="M261.416,10.836c0.018,0,0.036-0.001,0.053-0.001c-0.007,0.014-0.015,0.029-0.022,0.043
							c-0.017,0-0.035,0.001-0.052,0.001C261.398,10.863,261.405,10.849,261.416,10.836z"/>
						<path fill="#0F0F0F" d="M258.36,10.834c0.015,0.004,0.03,0.005,0.046,0.001c0.004,0.017,0.008,0.033,0.012,0.05
							C258.377,10.893,258.367,10.866,258.36,10.834z"/>
						<path fill="#FEFEFE" d="M258.31,10.754c-0.006,0.009-0.009,0.018-0.011,0.028c-0.01-0.015-0.02-0.03-0.031-0.045
							C258.282,10.744,258.296,10.75,258.31,10.754z"/>
						<path fill="#FEFEFE" d="M258.113,9.241c0.005,0.016,0.01,0.032,0.015,0.048c-0.015,0.007-0.03,0.014-0.045,0.021
							C258.093,9.287,258.103,9.264,258.113,9.241z"/>
						<path fill="#FEFEFE" d="M261.742,9.298c-0.01-0.02-0.02-0.04-0.03-0.06C261.722,9.257,261.732,9.278,261.742,9.298z"/>
						<path fill="#010202" d="M258.453,8.705c-0.018,0.001-0.037,0.001-0.055,0.002c0.009-0.014,0.019-0.029,0.028-0.043
							c0.016,0.009,0.031,0.008,0.046-0.001C258.471,8.679,258.465,8.693,258.453,8.705z"/>
						<path fill="#0F0F0F" d="M261.461,8.756l-0.023-0.003l-0.023,0.003c-0.005-0.011-0.011-0.021-0.014-0.032
							c-0.002-0.005,0.002-0.012,0.003-0.018C261.445,8.697,261.455,8.725,261.461,8.756z"/>
						<path fill="#010202" d="M260.976,8.314c0-0.018-0.001-0.036-0.001-0.053c0.014,0.008,0.029,0.017,0.043,0.025
							c0,0.016,0.001,0.031,0.001,0.047C261.003,8.331,260.989,8.325,260.976,8.314z"/>
						<path fill="#FEFEFE" d="M258.129,10.301c-0.006,0.016-0.012,0.032-0.017,0.048c-0.01-0.021-0.02-0.042-0.03-0.062
							C258.097,10.292,258.113,10.296,258.129,10.301z"/>
						<path fill="#FEFEFE" d="M258.309,8.803c0.003,0.029-0.014,0.044-0.038,0.054C258.283,8.839,258.296,8.821,258.309,8.803z"/>
						<path fill="#BE1A2B" d="M260.595,8.373c0.037-0.003,0.066,0.011,0.085,0.044c0.023,0.021,0.045,0.044,0.078,0.05
							c0.032-0.003,0.058,0.004,0.068,0.039c0.019,0.027,0.041,0.049,0.074,0.059c0.308,0.234,0.503,0.536,0.563,0.921
							c0.011,0.039-0.011,0.054-0.045,0.059c-0.063-0.032-0.125-0.065-0.196-0.019c-0.04,0.044-0.039,0.092-0.012,0.141
							c0.009,0.014,0.019,0.018,0.029,0.01c-0.025,0.005-0.031-0.016-0.042-0.032c-0.006-0.041-0.009-0.08,0.019-0.115
							c0.049-0.036,0.099-0.032,0.15-0.002c0.013,0.017,0.022,0.035,0.029,0.056c-0.001,0.02,0.002,0.04,0.008,0.059
							c0.004-0.023,0.018-0.032,0.04-0.033c0.021,0.008,0.033,0.023,0.037,0.045c0,0.043,0.007,0.087-0.015,0.128
							c-0.049,0.055-0.138,0.037-0.188,0.087c0.025,0.09,0.109,0.072,0.156,0.11c0.029,0.022,0.05,0.048,0.032,0.088
							c0,0.081,0.002,0.162-0.052,0.231c-0.012,0.015-0.027,0.028-0.044,0.038c-0.036,0.015-0.076,0.019-0.111,0.037
							c-0.022,0.011-0.045,0.016-0.068,0.013c0.002,0.001-0.012-0.005-0.012-0.005s0.007,0.014,0.008,0.014
							c0.013,0.007,0.023,0.016,0.031,0.028c0.008,0.013,0.014,0.027,0.018,0.041c0.003,0.004-0.001,0.01,0.005,0.012
							c-0.003-0.017-0.005-0.033-0.006-0.05c0.005-0.018,0.015-0.032,0.029-0.044c0.017-0.008,0.035-0.013,0.054-0.014
							c0.019,0.003,0.036,0.01,0.052,0.022c-0.001,0.01-0.002,0.019-0.004,0.029l0.004,0.012l-0.01,0.008
							c-0.01,0.015-0.017,0.032-0.022,0.05c-0.002,0.019-0.01,0.035-0.024,0.047c-0.014,0.059-0.042,0.11-0.089,0.15
							c-0.027,0.02-0.049,0.042-0.058,0.075c-0.073,0.137-0.184,0.236-0.315,0.313c-0.031,0.009-0.053,0.031-0.075,0.052
							c-0.047,0.048-0.103,0.082-0.17,0.093c-0.037,0.023-0.086,0.018-0.118,0.052c-0.246,0.109-0.499,0.154-0.765,0.091
							c-0.067-0.045-0.152-0.002-0.219-0.044c-0.174-0.012-0.319-0.092-0.456-0.192c-0.023-0.02-0.045-0.042-0.075-0.051
							c-0.126-0.084-0.242-0.178-0.316-0.315c-0.009-0.031-0.031-0.053-0.052-0.075c-0.379-0.537-0.378-1.212,0.001-1.777
							c0.015-0.021,0.037-0.037,0.049-0.06l-0.002,0.007c0.024-0.018,0.043-0.04,0.053-0.069c0.047-0.098,0.133-0.159,0.216-0.221
							c0.032-0.009,0.055-0.031,0.076-0.055c0.044-0.047,0.093-0.088,0.161-0.092c0.034-0.005,0.059-0.029,0.086-0.047
							c0.09-0.066,0.188-0.107,0.302-0.098c0.07-0.04,0.154-0.002,0.223-0.042c0.093-0.022,0.186-0.021,0.28-0.001
							c0.079,0.051,0.178-0.01,0.257,0.045c0.065-0.009,0.123,0.009,0.173,0.051C260.515,8.35,260.562,8.343,260.595,8.373z"/>
						<path fill="#C52930" d="M261.463,10.068c-0.021-0.02-0.043-0.039-0.064-0.059c-0.049-0.053-0.129-0.047-0.191-0.097
							c0.023-0.144,0.133-0.112,0.225-0.113c0.058,0.023,0.039,0.081,0.057,0.123C261.506,9.975,261.502,10.024,261.463,10.068z"/>
						<path fill="#8A1821" d="M261.491,9.921c-0.014-0.037-0.028-0.074-0.042-0.11c0-0.01,0-0.021,0-0.031
							c0.002-0.046,0.004-0.093,0.007-0.139c-0.041-0.043-0.007-0.056,0.027-0.07C261.505,9.687,261.514,9.804,261.491,9.921z"/>
						<path fill="#8F212D" d="M260.307,8.275c-0.086-0.012-0.182,0.03-0.257-0.045C260.14,8.224,260.229,8.216,260.307,8.275z"/>
						<path fill="#D46241" d="M261.483,9.57c-0.009,0.023-0.018,0.047-0.027,0.07c-0.014-0.007-0.029-0.012-0.045-0.014
							c-0.014,0.014-0.03,0.015-0.047,0.005c0.001-0.021,0.002-0.041,0.003-0.062c0.008-0.02,0.022-0.034,0.043-0.041
							c0.017-0.014,0.034-0.028,0.051-0.042C261.49,9.508,261.496,9.537,261.483,9.57z"/>
						<path fill="#881821" d="M259.771,8.231c-0.064,0.069-0.149,0.03-0.223,0.042C259.613,8.215,259.693,8.228,259.771,8.231z"/>
						<path fill="#93222D" d="M259.503,11.317c0.075,0.005,0.157-0.024,0.219,0.044C259.645,11.367,259.567,11.375,259.503,11.317z"
							/>
						<path fill="#93363F" d="M261.362,10.308c0.017-0.003,0.033-0.006,0.05-0.009c0.001,0.047-0.004,0.091-0.048,0.119
							l-0.008-0.019C261.331,10.366,261.331,10.336,261.362,10.308z"/>
						<path fill="#7F2034" d="M260.595,8.373c-0.044-0.003-0.087-0.006-0.115-0.048C260.528,8.317,260.563,8.341,260.595,8.373z"/>
						<path fill="#8A3E43" d="M260.487,11.271c0.026-0.047,0.07-0.053,0.118-0.052C260.577,11.261,260.535,11.274,260.487,11.271z"
							/>
						<path fill="#7B1527" d="M261.165,10.76c0.007-0.034,0.024-0.062,0.058-0.075C261.204,10.71,261.185,10.735,261.165,10.76z"/>
						<path fill="#C64C3F" d="M261.312,10.535c-0.006-0.015-0.006-0.031,0-0.046c0.009,0.005,0.017,0.01,0.026,0.015
							C261.337,10.521,261.328,10.532,261.312,10.535z"/>
						<path fill="#832F41" d="M258.604,10.684c0.032,0.015,0.047,0.041,0.052,0.075C258.627,10.742,258.608,10.718,258.604,10.684z"
							/>
						<path fill="#7C404C" d="M258.654,8.847c-0.016,0.02-0.033,0.04-0.049,0.06C258.607,8.876,258.623,8.855,258.654,8.847z"/>
						<path fill="#7B1527" d="M258.705,8.786c-0.008,0.031-0.022,0.057-0.053,0.069C258.655,8.82,258.676,8.8,258.705,8.786z"/>
						<path fill="#832F41" d="M260.776,11.126c0.015-0.032,0.041-0.047,0.075-0.052C260.834,11.103,260.81,11.122,260.776,11.126z"
							/>
						<path fill="#7C404C" d="M258.972,11.073c0.034,0.004,0.06,0.02,0.075,0.051C259.012,11.123,258.99,11.101,258.972,11.073z"/>
						<path fill="#7F2034" d="M260.757,8.467c-0.034-0.005-0.062-0.018-0.078-0.05C260.714,8.42,260.741,8.435,260.757,8.467z"/>
						<path fill="#832F41" d="M258.997,8.51c-0.014,0.033-0.041,0.05-0.076,0.055C258.947,8.546,258.972,8.528,258.997,8.51z"/>
						<path fill="#7F2034" d="M260.899,8.564c-0.035-0.006-0.061-0.025-0.074-0.059C260.849,8.525,260.874,8.545,260.899,8.564z"/>
						<path fill="#7F2034" d="M261.338,10.504c-0.007-0.007-0.016-0.012-0.026-0.015c0.015-0.017,0.03-0.034,0.045-0.052
							C261.351,10.46,261.344,10.482,261.338,10.504z"/>
						<path fill="#7F2034" d="M259.245,8.371c-0.029,0.016-0.057,0.031-0.086,0.047C259.176,8.382,259.207,8.37,259.245,8.371z"/>
						<path fill="#FDFEFD" d="M259.158,8.901c0.474-0.345,0.96-0.356,1.455-0.048c0.024,0.009,0.048,0.019,0.072,0.026
							c0.023,0.012,0.043,0.028,0.061,0.046c0.019,0.017,0.036,0.036,0.05,0.057c0.012,0.022,0.019,0.047,0.029,0.07l-0.002-0.006
							c0.018,0.016,0.026,0.037,0.026,0.061c-0.003,0.023-0.013,0.043-0.029,0.06c-0.056,0.035-0.115,0.052-0.177,0.029
							c-0.067-0.04-0.088-0.117-0.164-0.171c-0.106-0.002-0.219-0.056-0.342-0.086c0.233,0.128,0.427,0.294,0.572,0.515
							c0.049,0.155,0.008,0.325,0.085,0.475c-0.088,0.16-0.176,0.319-0.385,0.341c-0.032-0.019-0.044-0.048-0.046-0.083
							c0.002-0.021,0.008-0.042,0.018-0.061c0.005-0.009,0.011-0.018,0.016-0.027c0.022-0.033,0.043-0.066,0.059-0.104
							c0.009-0.028,0.016-0.056,0.019-0.085c0.006-0.079,0.006-0.158-0.01-0.235c-0.006-0.018-0.01-0.036-0.014-0.054
							c-0.005-0.017-0.008-0.034-0.011-0.052c-0.007-0.024-0.015-0.047-0.029-0.069c-0.011-0.012-0.021-0.025-0.031-0.037
							c-0.006-0.006-0.011-0.012-0.017-0.018c-0.012-0.011-0.023-0.023-0.035-0.035c-0.006-0.006-0.012-0.012-0.018-0.017
							c-0.013-0.011-0.024-0.023-0.036-0.034c-0.006-0.005-0.012-0.011-0.019-0.017c-0.013-0.01-0.026-0.021-0.04-0.031
							c-0.029-0.019-0.059-0.034-0.092-0.045c-0.044-0.014-0.088-0.017-0.134-0.017c-0.049,0-0.097,0-0.145-0.001
							c-0.038,0-0.076,0-0.113,0.007c-0.016,0.005-0.033,0.009-0.05,0.013c-0.022,0.008-0.045,0.016-0.066,0.028
							c-0.012,0.009-0.025,0.017-0.037,0.026c-0.011,0.01-0.022,0.02-0.033,0.03l-0.016,0.016c-0.01,0.012-0.021,0.022-0.032,0.033
							c0,0-0.016,0.016-0.016,0.017c-0.01,0.012-0.02,0.024-0.03,0.036c0,0.001-0.013,0.019-0.013,0.02
							c-0.007,0.015-0.015,0.029-0.022,0.044c-0.007,0.016-0.014,0.032-0.021,0.047c-0.015,0.034-0.027,0.069-0.036,0.105
							c-0.023,0.095-0.014,0.189,0.008,0.281c0.005,0.018,0.01,0.037,0.014,0.056c0.008,0.025,0.017,0.051,0.031,0.074
							c0.011,0.013,0.021,0.027,0.032,0.04c0.006,0.006,0.011,0.013,0.017,0.019c0.012,0.012,0.024,0.024,0.035,0.037
							c0.018,0.018,0.035,0.036,0.053,0.054c0.013,0.011,0.025,0.022,0.038,0.033c0.007,0.005,0.013,0.01,0.02,0.015
							c0.015,0.008,0.029,0.017,0.044,0.026c0.016,0.007,0.032,0.015,0.048,0.022c0.035,0.013,0.071,0.023,0.108,0.032
							c0.07,0.019,0.139,0.018,0.208-0.002c0.038-0.01,0.075-0.021,0.112-0.035c0.017-0.009,0.035-0.016,0.053-0.023
							c0.027-0.013,0.055-0.024,0.083-0.033c0.031-0.008,0.062-0.008,0.093-0.001c0.02,0.009,0.036,0.022,0.051,0.038
							c0.007,0.034-0.003,0.064-0.022,0.092c-0.013,0.017-0.027,0.033-0.043,0.047c-0.069,0.051-0.098,0.136-0.166,0.189
							c-0.063,0.043-0.135,0.066-0.207,0.087c-0.032,0.007-0.064,0.006-0.095-0.004c-0.029-0.013-0.046-0.043-0.079-0.05
							c-0.033,0-0.063-0.01-0.088-0.031c-0.184-0.045-0.276-0.208-0.41-0.318c-0.041-0.022-0.063-0.059-0.082-0.099
							c-0.302-0.478-0.027-1.083,0.394-1.303c-0.34,0.047-0.56,0.272-0.641,0.573c-0.129,0.479,0.121,0.831,0.502,1.105
							c0.068,0.041,0.152,0.012,0.229,0.035c0.033,0.034,0.08,0.036,0.119,0.054c-0.012,0.169-0.168,0.138-0.264,0.191
							c-0.01,0.003-0.021,0.006-0.031,0.009c-0.125-0.004-0.21-0.097-0.316-0.143c-0.028-0.011-0.05-0.03-0.069-0.054l0.005,0.004
							c-0.022-0.016-0.039-0.037-0.058-0.057c-0.011-0.012-0.023-0.023-0.034-0.035c-0.02-0.018-0.042-0.035-0.057-0.059
							l0.003,0.007c-0.024-0.019-0.044-0.042-0.053-0.073c0.002-0.033-0.012-0.057-0.044-0.069
							c-0.023-0.023-0.045-0.046-0.051-0.079c-0.016-0.107-0.053-0.207-0.099-0.304c-0.045-0.107-0.011-0.22-0.022-0.329
							c0.002-0.041-0.007-0.084,0.024-0.12c0.048-0.122,0.096-0.244,0.145-0.366c0.028-0.028,0.005-0.087,0.06-0.099V9.103
							c0.009-0.083,0.068-0.122,0.136-0.152l-0.002,0.002C259.108,8.93,259.13,8.913,259.158,8.901z"/>
						<path fill="#F5F3F2" d="M261.06,9.583c0.042,0.219,0.007,0.433-0.042,0.646c-0.006,0.031-0.028,0.054-0.042,0.081l-0.005,0.02
							c-0.011,0.03-0.032,0.053-0.048,0.08c-0.016,0.022-0.031,0.044-0.047,0.065c-0.011,0.03-0.033,0.051-0.056,0.072
							c-0.044,0.045-0.089,0.089-0.133,0.134c-0.019,0.018-0.036,0.04-0.058,0.055l0.006-0.002c-0.02,0.023-0.042,0.042-0.071,0.053
							c-0.091,0.038-0.182,0.076-0.273,0.114c-0.01,0.001-0.019,0.002-0.029,0.003c-0.008-0.005-0.016-0.011-0.024-0.016
							c-0.056-0.092-0.197-0.048-0.247-0.151c-0.005-0.023,0.001-0.042,0.016-0.06c0.054-0.011,0.109-0.021,0.154-0.055
							c0.273-0.033,0.485-0.156,0.632-0.398c0.055-0.09,0.076-0.17,0.056-0.267c0.008-0.051,0.039-0.095,0.047-0.147
							c0.009-0.04,0.025-0.077,0.044-0.112C260.976,9.653,260.974,9.571,261.06,9.583z"/>
						<path fill="#F3F4F3" d="M260.269,10.914c-0.252,0.067-0.503,0.101-0.746-0.033l0,0c0.107-0.063,0.236-0.077,0.334-0.158
							c0.033-0.012,0.067-0.012,0.1-0.003c0.088,0.071,0.204,0.091,0.292,0.162l-0.003-0.003
							C260.256,10.89,260.263,10.901,260.269,10.914z"/>
						<path fill="#DBE3DC" d="M261.06,9.583c-0.051,0.033-0.024,0.112-0.084,0.14c-0.072-0.05-0.119-0.12-0.16-0.195
							c0.02-0.124-0.083-0.251,0.008-0.373c0.002-0.021,0.003-0.042,0.005-0.063c0.022-0.011,0.038-0.004,0.047,0.018
							c0.003,0.035,0.02,0.061,0.05,0.079c0.017,0.022,0.037,0.042,0.045,0.07C261.001,9.368,261.031,9.475,261.06,9.583z"/>
						<path fill="#DE934E" d="M258.89,9.131c-0.016,0.004-0.032,0.009-0.049,0.013c-0.015,0.023-0.034,0.043-0.04,0.071
							c-0.105,0.061-0.146-0.045-0.216-0.071c-0.003-0.072,0.028-0.113,0.086-0.149c0.082,0.006,0.155,0.047,0.219,0.106
							c0.018,0.007,0.024,0.014,0.018,0.021C258.903,9.128,258.896,9.131,258.89,9.131z"/>
						<path fill="#DB8349" d="M260.687,8.851c0.05-0.099,0.153-0.105,0.241-0.139c0.022,0.025,0.019,0.061,0.039,0.087
							c-0.014,0.068-0.027,0.136-0.041,0.203l0.003-0.003c-0.033-0.001-0.066-0.002-0.1-0.003c-0.008-0.006-0.016-0.012-0.024-0.017
							c-0.028-0.041-0.062-0.075-0.103-0.103C260.697,8.868,260.692,8.859,260.687,8.851z"/>
						<path fill="#E09850" d="M260.544,8.748c0.012-0.111,0.066-0.161,0.099-0.219c0.092-0.001,0.142,0.037,0.156,0.123
							C260.739,8.764,260.628,8.674,260.544,8.748z"/>
						<path fill="#E5AE57" d="M258.47,10.287c0-0.061,0-0.108,0-0.159c0.061-0.018,0.12-0.036,0.185-0.055
							c0.035,0.051-0.082,0.131,0.031,0.164C258.631,10.302,258.566,10.313,258.47,10.287z"/>
						<path fill="#E2A153" d="M261.402,10.209c-0.08,0.076-0.167,0.039-0.277,0.056c0.077-0.08,0.074-0.152,0.058-0.244
							C261.27,10.09,261.369,10.108,261.402,10.209z"/>
						<path fill="#DF924E" d="M261.449,9.78c0.002,0.01,0.002,0.021,0,0.031c-0.064,0.021-0.141-0.009-0.207,0.063
							c0.022,0.075,0.181,0.015,0.157,0.135c-0.088-0.005-0.178-0.008-0.233-0.112C261.204,9.729,261.335,9.772,261.449,9.78z"/>
						<path fill="#DF944F" d="M258.943,9.032c-0.089-0.027-0.139-0.094-0.205-0.182c0.1-0.023,0.125,0.075,0.192,0.08
							c0.036-0.024,0.075-0.05,0.114-0.076l-0.003-0.003c-0.001,0.032-0.003,0.064-0.004,0.097
							C259.022,8.993,258.992,9.024,258.943,9.032z"/>
						<path fill="#E3A353" d="M261.165,9.338c-0.024-0.018-0.048-0.037-0.088-0.067c0.08-0.058,0.151-0.037,0.23-0.019
							c-0.019,0.096-0.078,0.145-0.156,0.182c-0.023-0.047,0.002-0.07,0.013-0.097L261.165,9.338z"/>
						<path fill="#E5AD56" d="M258.508,9.912c0.003-0.016,0.005-0.031,0.009-0.054c0.058-0.011,0.029,0.054,0.059,0.069
							c0.052,0.005,0.015-0.067,0.061-0.073c0.032,0.039,0.016,0.082,0.002,0.14c-0.078-0.007-0.187,0.108-0.219-0.074
							c0.012-0.025,0.025-0.027,0.04-0.002l0.001,0.001C258.479,9.932,258.495,9.931,258.508,9.912z"/>
						<path fill="#E6B157" d="M259.909,8.516c-0.045,0.069-0.105,0.048-0.166,0.03c-0.029-0.067-0.038-0.134-0.01-0.21
							c0.065-0.013,0.132-0.043,0.182,0.034c-0.007,0.015-0.016,0.029-0.026,0.042c-0.01,0.012-0.015,0.026-0.012,0.042
							c0.002,0.014,0.006,0.02,0.011,0.02C259.897,8.487,259.904,8.501,259.909,8.516z"/>
						<path fill="#E6B257" d="M258.462,9.578c0.082-0.003,0.082-0.003,0.103,0.138c-0.045,0.021-0.089,0.014-0.135-0.008
							c-0.019-0.051-0.034-0.102,0.034-0.132L258.462,9.578z"/>
						<path fill="#E09850" d="M259.476,8.559c-0.017,0.026-0.034,0.051-0.063,0.094c-0.063-0.089-0.033-0.168-0.03-0.243
							c0.058-0.023,0.08,0.007,0.097,0.045C259.502,8.491,259.506,8.526,259.476,8.559z"/>
						<path fill="#E4AC55" d="M260.057,8.373c0.04,0.022,0.079,0.044,0.119,0.067c-0.017,0.052-0.095,0.008-0.108,0.068
							c0.014,0.023,0.012,0.043-0.01,0.059c-0.093-0.077-0.065-0.153,0-0.23c0.015,0.008,0.02,0.017,0.015,0.025
							C260.067,8.369,260.062,8.373,260.057,8.373z"/>
						<path fill="#911C29" d="M258.744,9.674c0.002,0.115,0.004,0.23,0.006,0.345c-0.087-0.105-0.029-0.23-0.045-0.344
							C258.718,9.651,258.731,9.652,258.744,9.674z"/>
						<path fill="#E5AC56" d="M260.974,9.001c0.05-0.076,0.099-0.157,0.196-0.05c-0.014,0.038-0.035,0.072-0.06,0.104
							c-0.013,0.015-0.025,0.031-0.036,0.048l0.001-0.003c-0.017,0.02-0.032,0.018-0.047-0.003
							c-0.003-0.016-0.005-0.032-0.008-0.048c-0.011-0.011-0.024-0.019-0.038-0.025L260.974,9.001z"/>
						<path fill="#DA7947" d="M259.858,8.376c0.019-0.002,0.037-0.003,0.056-0.005c0.061,0.051,0.062,0.099-0.006,0.145
							c-0.016-0.001-0.033-0.002-0.049-0.004C259.824,8.467,259.823,8.421,259.858,8.376z"/>
						<path fill="#E5AF57" d="M258.703,9.432c-0.084,0.109-0.15,0.026-0.219-0.031c0.074,0.011,0.147,0.022,0.221,0.032
							L258.703,9.432z"/>
						<path fill="#D87646" d="M259.181,8.715c0.034-0.017,0.068-0.035,0.109-0.056c-0.045,0.111-0.045,0.111-0.154,0.099
							C259.145,8.738,259.16,8.723,259.181,8.715z"/>
						<path fill="#E5AA55" d="M259.476,8.559c0.001-0.035,0.003-0.069,0.004-0.104c0.039,0.037,0.079,0.073,0.12,0.111
							C259.545,8.631,259.515,8.558,259.476,8.559z"/>
						<path fill="#E7B659" d="M261.303,10.393c-0.013,0.002-0.026,0.005-0.038,0.012c-0.013,0.008-0.022,0.02-0.027,0.034
							l-0.021,0.006c-0.048-0.015-0.085-0.042-0.099-0.093l0.001-0.001c0.048-0.002,0.096-0.003,0.144-0.005
							C261.307,10.335,261.327,10.345,261.303,10.393z"/>
						<path fill="#D66A43" d="M260.057,8.567c0.003-0.02,0.007-0.04,0.01-0.059c0.039,0.015,0.095-0.007,0.116,0.058
							C260.144,8.64,260.099,8.576,260.057,8.567z"/>
						<path fill="#D56541" d="M261.069,9.05c-0.008-0.075,0.034-0.1,0.101-0.099c0.013,0.017,0.027,0.034,0.04,0.051
							C261.175,9.053,261.137,9.094,261.069,9.05z"/>
						<path fill="#A02631" d="M258.943,9.032c0.031-0.028,0.063-0.057,0.094-0.085c0.018,0.002,0.037,0.003,0.055,0.005
							c-0.032,0.063-0.074,0.116-0.136,0.152C258.952,9.081,258.948,9.057,258.943,9.032z"/>
						<path fill="#E5AC56" d="M261.41,9.528c-0.014,0.014-0.029,0.027-0.043,0.041c-0.038-0.056-0.095-0.033-0.146-0.036
							l-0.012-0.014C261.279,9.449,261.346,9.456,261.41,9.528z"/>
						<path fill="#E5AD56" d="M261.221,9.671c0.022-0.02,0.044-0.039,0.069-0.061c0.002,0.102,0.002,0.102-0.079,0.069
							L261.221,9.671z"/>
						<path fill="#E3A253" d="M259.042,8.805c-0.059-0.016-0.087-0.054-0.095-0.127C259.025,8.703,259.048,8.745,259.042,8.805
							L259.042,8.805z"/>
						<path fill="#E6B358" d="M261.069,9.05c0.055,0.006,0.096-0.026,0.141-0.048c0.005,0.102-0.073,0.092-0.136,0.1
							C261.072,9.084,261.071,9.067,261.069,9.05z"/>
						<path fill="#E6B057" d="M259.118,8.546c0.029-0.038,0.061-0.038,0.097-0.01C259.186,8.572,259.155,8.572,259.118,8.546z"/>
						<path fill="#E5AC55" d="M260.296,8.515c0.01,0.027,0.038,0.048,0.019,0.087c-0.084-0.013-0.081-0.041-0.016-0.084
							L260.296,8.515z"/>
						<path fill="#E9C05C" d="M260.299,8.518c0-0.038,0-0.076,0-0.123c0.076,0.056,0.04,0.088-0.004,0.12L260.299,8.518z"/>
						<path fill="#C64C3F" d="M261.303,10.393c-0.013-0.016-0.027-0.032-0.04-0.048c0.025-0.035,0.059-0.044,0.1-0.037
							c-0.002,0.03-0.004,0.061-0.006,0.091C261.338,10.397,261.32,10.395,261.303,10.393z"/>
						<path fill="#E9BD5B" d="M261.211,9.679c-0.061-0.052-0.068-0.105-0.003-0.159l0.012,0.014c0,0.046,0,0.092,0,0.137
							L261.211,9.679z"/>
						<path fill="#E5AF57" d="M259.181,8.715c-0.015,0.015-0.03,0.029-0.045,0.044c-0.031-0.011-0.045-0.033-0.042-0.07
							C259.135,8.653,259.151,8.712,259.181,8.715z"/>
						<path fill="#E9BC5A" d="M260.057,8.373c0.001-0.012,0.001-0.024,0.001-0.036c0.043-0.015,0.086-0.024,0.127,0.009
							C260.147,8.38,260.1,8.371,260.057,8.373z"/>
						<path fill="#EED361" d="M258.608,9.287c-0.024-0.009-0.059,0.013-0.074-0.025c0.038-0.024,0.055,0.003,0.072,0.029
							L258.608,9.287z"/>
						<path fill="#DB8049" d="M258.46,9.917c-0.013,0.001-0.026,0.001-0.04,0.002c0.001-0.021,0.002-0.042,0.004-0.064
							C258.473,9.86,258.457,9.894,258.46,9.917z"/>
						<path fill="#EDCC5F" d="M260.966,8.799c-0.038-0.018-0.043-0.05-0.039-0.087C260.982,8.722,260.97,8.762,260.966,8.799z"/>
						<path fill="#A02631" d="M258.89,9.131c-0.001-0.01-0.001-0.02,0.001-0.03c0.022,0.002,0.044,0.003,0.066,0.005
							c-0.002,0.044-0.02,0.078-0.06,0.099C258.895,9.18,258.892,9.155,258.89,9.131z"/>
						<path fill="#E8B859" d="M258.703,9.337c0.072,0.032,0.06,0.063,0,0.095l0.002,0.002c0-0.033,0-0.066,0-0.098L258.703,9.337z"
							/>
						<path fill="#941926" d="M258.744,9.674c-0.013,0-0.026,0-0.039,0c-0.002-0.043,0.013-0.078,0.047-0.104
							C258.75,9.605,258.747,9.639,258.744,9.674z"/>
						<path fill="#E8BA59" d="M261.029,9.096c0.016,0,0.031,0.001,0.047,0.003c-0.006,0.022-0.013,0.043-0.02,0.066
							C261.01,9.152,261.024,9.122,261.029,9.096z"/>
						<path fill="#E8B859" d="M258.705,9.335c-0.041,0.001-0.084,0.006-0.097-0.048l-0.003,0.004
							c0.042-0.003,0.087-0.014,0.098,0.047L258.705,9.335z"/>
						<path fill="#78303F" d="M258.995,10.537c0.032,0.007,0.049,0.028,0.057,0.059C259.022,10.586,259.002,10.568,258.995,10.537z"
							/>
						<path fill="#7C404C" d="M260.63,10.735c0.007-0.031,0.03-0.046,0.058-0.055C260.679,10.71,260.66,10.729,260.63,10.735z"/>
						<path fill="#7C404C" d="M259.085,10.631c0.029,0.009,0.052,0.024,0.058,0.057C259.112,10.68,259.094,10.66,259.085,10.631z"/>
						<path fill="#78303F" d="M259.138,10.684c0.023,0.018,0.046,0.036,0.069,0.054C259.174,10.732,259.149,10.717,259.138,10.684z"
							/>
						<path fill="#7B1527" d="M260.876,9.111c-0.016-0.006-0.032-0.012-0.047-0.018c-0.002-0.015-0.004-0.031-0.005-0.046
							C260.854,9.057,260.87,9.081,260.876,9.111z"/>
						<path fill="#7F2034" d="M260.68,8.907c-0.022-0.018-0.045-0.036-0.067-0.054c0.024-0.001,0.049-0.001,0.073-0.002h-0.002
							c0.005,0.01,0.011,0.02,0.017,0.03C260.694,8.89,260.687,8.898,260.68,8.907z"/>
						<path fill="#78303F" d="M259.158,8.901c-0.023,0.018-0.045,0.036-0.068,0.054C259.101,8.922,259.126,8.907,259.158,8.901z"/>
						<path fill="#EBC55D" d="M259.045,8.854c-0.001-0.016-0.002-0.033-0.002-0.049v0.001c0.012,0.005,0.032,0.007,0.034,0.015
							c0.007,0.027-0.014,0.03-0.035,0.03L259.045,8.854z"/>
						<path fill="#78303F" d="M260.826,9.053c-0.027-0.006-0.045-0.022-0.05-0.05c0.005-0.007,0.009-0.014,0.014-0.021
							c0.018-0.006,0.032,0,0.041,0.016l-0.001-0.002C260.828,9.015,260.827,9.034,260.826,9.053z"/>
						<path fill="#EED361" d="M260.926,9.002c0.016,0,0.032-0.001,0.048-0.001l-0.003-0.003c0.013,0.011,0.017,0.021,0.011,0.03
							c-0.005,0.009-0.01,0.013-0.015,0.013c-0.028,0-0.043-0.012-0.038-0.043L260.926,9.002z"/>
						<path fill="#66A572" d="M260.269,10.914c-0.007-0.012-0.014-0.023-0.022-0.034c0.015,0.007,0.03,0.013,0.045,0.02
							l-0.007,0.014H260.269z"/>
						<path fill="#D56541" d="M260.967,9.042c0.003-0.014,0.004-0.029,0.004-0.044c0.017,0.016,0.033,0.033,0.05,0.049
							C261.003,9.046,260.985,9.044,260.967,9.042z"/>
						<path fill="#6E1425" d="M260.565,10.786c0.015-0.029,0.038-0.048,0.071-0.053C260.624,10.766,260.596,10.778,260.565,10.786z"
							/>
						<path fill="#7B1527" d="M260.971,9.26c-0.03-0.014-0.043-0.038-0.045-0.07C260.941,9.213,260.956,9.236,260.971,9.26z"/>
						<path fill="#DB8049" d="M258.508,9.912c-0.007,0.011-0.013,0.022-0.02,0.033c-0.009-0.009-0.018-0.018-0.028-0.026
							C258.477,9.917,258.493,9.915,258.508,9.912z"/>
						<path fill="#EBC55D" d="M261.364,9.631c0.016-0.003,0.031-0.004,0.047-0.005c-0.008,0.012-0.015,0.025-0.023,0.037
							C261.38,9.652,261.372,9.642,261.364,9.631z"/>
						<path fill="#C64C3F" d="M261.262,10.494c-0.008,0.01-0.016,0.02-0.024,0.029c-0.007-0.01-0.015-0.021-0.022-0.031
							C261.232,10.472,261.247,10.473,261.262,10.494z"/>
						<path fill="#832F41" d="M260.821,10.547c0.019-0.024,0.037-0.048,0.056-0.072C260.871,10.509,260.854,10.534,260.821,10.547z"
							/>
						<path fill="#7B1527" d="M258.945,10.471c0.029,0.016,0.049,0.038,0.053,0.073C258.965,10.531,258.952,10.503,258.945,10.471z"
							/>
						<path fill="#EBC55D" d="M261.262,10.494l-0.023,0.002l-0.023-0.004c0-0.016,0-0.032,0-0.048l-0.003,0.004
							c0.017-0.017,0.032-0.016,0.047,0.003C261.263,10.465,261.264,10.48,261.262,10.494z"/>
						<path fill="#C64C3F" d="M261.26,10.451l-0.023-0.003h-0.023c0.007-0.026,0.023-0.042,0.052-0.044
							C261.264,10.42,261.262,10.436,261.26,10.451z"/>
						<path fill="#E7B859" d="M258.802,9.214c0.013-0.024,0.026-0.047,0.04-0.071C258.828,9.167,258.815,9.191,258.802,9.214z"/>
						<path fill="#7F2034" d="M260.924,10.41c0-0.036,0.016-0.063,0.048-0.08C260.956,10.357,260.94,10.383,260.924,10.41z"/>
						<path fill="#7B1527" d="M258.849,10.323c0.034,0.015,0.048,0.044,0.051,0.079C258.868,10.386,258.855,10.357,258.849,10.323z"
							/>
						<path fill="#E29F51" d="M261.117,10.351c-0.011-0.006-0.021-0.013-0.032-0.019c0.029-0.026,0.03-0.001,0.034,0.018
							L261.117,10.351z"/>
						<path fill="#7F2034" d="M260.977,10.31c-0.004-0.036,0.008-0.064,0.042-0.081C261.005,10.256,260.991,10.283,260.977,10.31z"
							/>
						<path fill="#3C5BA4" d="M260.393,10.183c-0.001,0.023-0.003,0.046-0.004,0.068c-0.003,0.009-0.005,0.018-0.008,0.027
							c-0.017,0.007-0.035,0.012-0.054,0.015c-0.018,0.003-0.036,0.006-0.054,0.009c-0.033,0.007-0.057,0.03-0.084,0.048
							l-0.012,0.001c-0.042,0.018-0.091,0.018-0.129,0.047c-0.092,0.046-0.184,0.046-0.276,0c-0.038-0.029-0.087-0.029-0.13-0.047
							l-0.012-0.002c-0.022-0.014-0.041-0.033-0.064-0.046l0.006,0.002c-0.02-0.025-0.043-0.045-0.075-0.052l-0.018-0.003
							l-0.004-0.017c-0.007-0.033-0.026-0.056-0.052-0.076l0.003,0.005c-0.013-0.022-0.034-0.037-0.048-0.057
							c-0.015-0.007-0.024-0.019-0.027-0.035c0.003-0.023-0.002-0.045-0.017-0.064c-0.064-0.124-0.074-0.25-0.008-0.377
							c0.036-0.034,0.033-0.084,0.052-0.124l0.001-0.013c0.014-0.022,0.032-0.041,0.047-0.063l-0.003,0.005
							c0.019-0.016,0.037-0.033,0.051-0.053l-0.004,0.004c0.02-0.014,0.038-0.031,0.052-0.052l-0.004,0.003
							c0.021-0.013,0.037-0.031,0.055-0.049l-0.005,0.001c0.029-0.026,0.075-0.019,0.1-0.051l-0.004,0.002
							c0.043-0.04,0.111-0.003,0.153-0.048c0.061-0.016,0.123-0.017,0.184,0c0.05,0.043,0.12,0.013,0.172,0.048
							c0.032-0.001,0.059,0.008,0.07,0.042c0.018,0.019,0.034,0.04,0.057,0.055l-0.004-0.003c0.014,0.02,0.032,0.038,0.052,0.052
							l-0.004-0.004c0.014,0.021,0.031,0.038,0.052,0.052l-0.003-0.004c0.013,0.022,0.034,0.037,0.048,0.057
							c0.015,0.007,0.024,0.019,0.027,0.035c-0.004,0.025,0.004,0.047,0.019,0.066l0.001,0.013c0.044,0.119,0.013,0.242,0.024,0.363
							c-0.007,0.016-0.013,0.031-0.02,0.047c-0.032,0.027-0.027,0.073-0.052,0.103v-0.006
							C260.421,10.128,260.4,10.151,260.393,10.183z"/>
						<path fill="#298B41" d="M259.715,10.645c-0.089-0.008-0.168,0.061-0.268,0.026c-0.085-0.077-0.179-0.162-0.272-0.247
							c-0.443-0.408-0.423-1.167,0.168-1.492c0.132-0.073,0.186-0.079,0.45-0.061c-0.311,0.144-0.474,0.373-0.623,0.631
							c0.007,0.227-0.052,0.481,0.101,0.705c-0.113,0.059-0.131-0.041-0.149-0.064c0.041,0.038,0.068,0.161,0.206,0.15
							c0.156,0.089,0.273,0.221,0.385,0.357L259.715,10.645z"/>
						<path fill="#2B8F44" d="M260.879,9.916c-0.051,0.101,0.062,0.081,0.097,0.127c-0.048,0.17-0.236,0.257-0.247,0.439
							c-0.094,0.027-0.17,0.05-0.244,0.071c-0.036,0.035,0.021,0.102-0.092,0.133c-0.055,0.017-0.143-0.054-0.239-0.046
							c-0.015-0.01-0.02-0.02-0.014-0.03c0.005-0.009,0.011-0.014,0.016-0.014c0.067-0.057,0.036-0.209,0.183-0.189l-0.005-0.003
							c0.016-0.035,0.032-0.069,0.048-0.104c-0.005-0.02,0.001-0.037,0.015-0.051l-0.006,0.001c0.201-0.024,0.239-0.237,0.381-0.329
							c0.007-0.008,0.014-0.016,0.021-0.024c0.021-0.007,0.042-0.008,0.063-0.002C260.862,9.902,260.871,9.909,260.879,9.916z"/>
						<path fill="#2A8F44" d="M260.824,9.155c0.005,0.086,0.02,0.168,0.079,0.242c-0.024,0.044-0.049,0.088-0.074,0.133
							c-0.007,0.005-0.014,0.011-0.021,0.016c-0.018,0.002-0.034-0.002-0.049-0.013c-0.027-0.023-0.058-0.038-0.092-0.045
							c-0.065-0.068-0.191-0.097-0.153-0.235c-0.169-0.109-0.375-0.174-0.523-0.351c0.09-0.057,0.16-0.045,0.231-0.058
							c0.048,0.04,0.096,0.08,0.143,0.119c0.038-0.019,0.058-0.064,0.108-0.054c0.087,0.069,0.173,0.14,0.178,0.261
							C260.713,9.165,260.769,9.16,260.824,9.155z"/>
						<path fill="#2F9548" d="M260.667,9.488c0.047-0.006,0.09,0,0.12,0.044c0.013,0.02,0.02,0.041,0.011,0.079
							c0.011-0.034,0.009-0.056,0.022-0.074l0.01-0.007c0.047,0.021,0.094,0.042,0.14,0.062c0.031,0.043,0,0.088,0.007,0.131
							c-0.015,0.03-0.03,0.06-0.045,0.089c-0.005,0.009-0.01,0.017-0.015,0.026c-0.038,0.032-0.095,0.028-0.128,0.07l-0.019,0.014
							c-0.091-0.11-0.155-0.223-0.052-0.363C260.723,9.552,260.685,9.512,260.667,9.488z"/>
						<path fill="#327F41" d="M259.327,10.292c-0.003,0.022-0.006,0.045-0.013,0.095c-0.119-0.122-0.289-0.179-0.262-0.393
							c0.095,0.061,0.085,0.21,0.218,0.212C259.291,10.233,259.285,10.278,259.327,10.292z"/>
						<path fill="#4B9D5D" d="M259.865,10.743c-0.098,0.085-0.2,0.161-0.342,0.138c0.009-0.046,0.021-0.08,0.081-0.09
							c0.078-0.014,0.165-0.024,0.212-0.106c-0.017-0.007-0.023-0.015-0.018-0.023c0.006-0.008,0.011-0.012,0.017-0.012
							c0.026-0.003,0.047-0.001,0.049,0.032c0.009,0.01,0.017,0.02,0.026,0.03C259.882,10.723,259.873,10.733,259.865,10.743z"/>
						<path fill="#364A7A" d="M260.515,9.963c-0.049-0.118-0.01-0.242-0.024-0.363C260.561,9.717,260.545,9.839,260.515,9.963z"/>
						<path fill="#65A674" d="M260.155,10.597c0.002,0.015,0.001,0.029-0.002,0.043c-0.026,0.06-0.08,0.052-0.13,0.051
							c-0.027,0.021-0.05,0.018-0.071-0.009C260.005,10.62,260.089,10.629,260.155,10.597z"/>
						<path fill="#546185" d="M260.175,9.239c-0.062,0-0.127,0.012-0.172-0.048C260.066,9.187,260.127,9.189,260.175,9.239z"/>
						<path fill="#586487" d="M259.819,9.191c-0.039,0.055-0.096,0.05-0.153,0.048C259.704,9.183,259.762,9.187,259.819,9.191z"/>
						<path fill="#21803C" d="M259.952,10.683c0.024,0.003,0.047,0.006,0.071,0.009c-0.009,0.015-0.006,0.029,0.007,0.041
							c-0.012,0.008-0.024,0.017-0.036,0.025c-0.014-0.005-0.027-0.01-0.041-0.015c-0.029,0.001-0.058,0.001-0.087,0.002
							c0-0.02-0.001-0.04-0.001-0.06C259.893,10.683,259.923,10.683,259.952,10.683z"/>
						<path fill="#536184" d="M259.643,10.352c0.049-0.001,0.098,0,0.13,0.047C259.723,10.402,259.677,10.394,259.643,10.352z"/>
						<path fill="#5C6785" d="M260.444,10.113c-0.002-0.044,0.007-0.082,0.052-0.103C260.495,10.052,260.488,10.092,260.444,10.113z
							"/>
						<path fill="#5C6785" d="M259.67,9.237c-0.02,0.044-0.057,0.053-0.1,0.051C259.59,9.244,259.627,9.234,259.67,9.237z"/>
						<path fill="#47567E" d="M260.049,10.398c0.031-0.049,0.081-0.045,0.129-0.047C260.145,10.394,260.099,10.402,260.049,10.398z"
							/>
						<path fill="#435581" d="M259.379,9.504c0.001,0.049-0.002,0.097-0.052,0.124C259.327,9.58,259.333,9.533,259.379,9.504z"/>
						<path fill="#438C59" d="M259.815,10.651c-0.001,0.012-0.001,0.023,0.001,0.034c-0.042,0.006-0.071-0.016-0.1-0.041
							l-0.003,0.005C259.746,10.65,259.78,10.65,259.815,10.651z"/>
						<path fill="#78303F" d="M260.727,8.955c-0.026-0.005-0.043-0.02-0.047-0.047l0.005-0.009c0.025-0.007,0.043,0.001,0.054,0.024
							C260.735,8.933,260.731,8.944,260.727,8.955z"/>
						<path fill="#78303F" d="M260.775,9.003c-0.027-0.005-0.043-0.021-0.048-0.048l0.006-0.007c0.04-0.008,0.06,0.004,0.048,0.047
							L260.775,9.003z"/>
						<path fill="#4A5878" d="M259.575,9.286c-0.018,0.016-0.036,0.033-0.055,0.049C259.522,9.301,259.545,9.29,259.575,9.286z"/>
						<path fill="#3E4C71" d="M260.301,9.336c-0.019-0.018-0.038-0.036-0.057-0.055C260.275,9.287,260.3,9.3,260.301,9.336z"/>
						<path fill="#3E4C71" d="M260.49,9.587c-0.029-0.016-0.045-0.035-0.019-0.066C260.477,9.543,260.483,9.565,260.49,9.587z"/>
						<path fill="#354976" d="M259.524,9.332c-0.017,0.017-0.035,0.034-0.052,0.052C259.473,9.35,259.49,9.333,259.524,9.332z"/>
						<path fill="#354976" d="M260.35,9.384c-0.017-0.017-0.035-0.034-0.052-0.052C260.331,9.333,260.349,9.35,260.35,9.384z"/>
						<path fill="#32426B" d="M259.476,9.38c-0.017,0.018-0.034,0.036-0.051,0.053C259.428,9.403,259.441,9.381,259.476,9.38z"/>
						<path fill="#4A5878" d="M260.443,9.486c-0.016-0.019-0.032-0.038-0.048-0.057C260.43,9.431,260.441,9.455,260.443,9.486z"/>
						<path fill="#535C73" d="M259.427,9.428c-0.016,0.021-0.031,0.042-0.047,0.063C259.38,9.458,259.394,9.436,259.427,9.428z"/>
						<path fill="#354976" d="M260.398,9.433c-0.017-0.017-0.034-0.035-0.052-0.052C260.38,9.381,260.397,9.399,260.398,9.433z"/>
						<path fill="#56627D" d="M260.19,10.35c0.02-0.03,0.049-0.044,0.084-0.048C260.254,10.332,260.228,10.351,260.19,10.35z"/>
						<path fill="#535C73" d="M259.567,10.303c0.021,0.015,0.042,0.031,0.064,0.046C259.598,10.35,259.574,10.338,259.567,10.303z"
							/>
						<path fill="#FFFFFF" d="M260.395,10.251c-0.005,0.017-0.01,0.034-0.015,0.051c-0.017-0.003-0.035-0.006-0.052-0.008
							C260.341,10.265,260.358,10.241,260.395,10.251z"/>
						<path fill="#354976" d="M259.498,10.253c0.032,0.007,0.061,0.019,0.075,0.052C259.538,10.304,259.515,10.283,259.498,10.253z"
							/>
						<path fill="#354976" d="M259.424,10.157c0.034,0.014,0.046,0.043,0.052,0.076C259.446,10.216,259.424,10.194,259.424,10.157z"
							/>
						<path fill="#32426B" d="M260.393,10.183c0.008-0.032,0.017-0.062,0.05-0.077C260.443,10.143,260.423,10.166,260.393,10.183z"
							/>
						<path fill="#4A5878" d="M259.379,10.104c0.016,0.019,0.032,0.038,0.048,0.057C259.391,10.159,259.381,10.135,259.379,10.104z"
							/>
						<path fill="#3E4C71" d="M259.335,10.005c0.033,0.014,0.039,0.035,0.017,0.064C259.346,10.048,259.34,10.027,259.335,10.005z"
							/>
						<path fill="#66A572" d="M259.952,10.741c0.026-0.003,0.051-0.006,0.077-0.01c0.084,0.017,0.155,0.081,0.279,0.039
							c-0.031,0.06-0.045,0.086-0.058,0.112C260.124,10.892,260.042,10.809,259.952,10.741z"/>
						<path fill="#2F9548" d="M260.932,9.813c0.053,0.071,0.053,0.071-0.053,0.103l-0.01-0.009c-0.007-0.04,0.016-0.062,0.046-0.08
							L260.932,9.813z"/>
						<path fill="#C93734" d="M258.684,9.069c0.001,0.013,0.002,0.026,0.002,0.039C258.658,9.097,258.662,9.084,258.684,9.069z"/>
						<path fill="#BE1A2B" d="M260.782,8.995c-0.016-0.016-0.032-0.032-0.048-0.047c-0.016-0.016-0.032-0.033-0.048-0.049
							c-0.001-0.016-0.002-0.032-0.001-0.048c0.038,0.005,0.075,0.01,0.105,0.014c0.051,0.04,0.043,0.087,0.041,0.133
							C260.814,8.997,260.798,8.996,260.782,8.995z"/>
						<polygon fill="#BF192A" points="260.707,8.623 260.713,8.638 260.699,8.637 						"/>
						<path fill="#C1192C" d="M258.531,10.232c-0.018-0.02-0.027-0.04,0.004-0.058C258.553,10.195,258.562,10.215,258.531,10.232z"
							/>
						<path fill="#D0503C" d="M261.165,9.338c0.007-0.008,0.013-0.016,0.004-0.006c0.011-0.009,0.003-0.002-0.005,0.005
							L261.165,9.338z"/>
						<path fill="#C4262F" d="M259.858,8.376c0,0.046,0.001,0.091,0.001,0.137c-0.05,0.003-0.089-0.008-0.088-0.069
							C259.772,8.385,259.804,8.366,259.858,8.376z"/>
						<path fill="#C63031" d="M258.462,9.578c0.028,0.013,0.047,0.03,0.041,0.066c-0.062,0.005-0.025-0.046-0.038-0.068
							L258.462,9.578z"/>
						<path fill="#A08F43" d="M260.123,9.868c-0.007,0.038-0.013,0.075-0.02,0.113c-0.016,0.008-0.025,0.02-0.03,0.036
							c-0.013,0.01-0.027,0.018-0.042,0.023c-0.023,0.008-0.047,0.011-0.071,0.014c-0.033,0.001-0.066,0.002-0.1,0.003l0.001-0.001
							c-0.024,0.057-0.082,0.071-0.126,0.102c-0.034,0.025-0.056,0.017-0.066-0.024c0.003-0.024,0.006-0.048,0.009-0.073
							c0.01-0.021,0.029-0.037,0.031-0.063c-0.002-0.045-0.003-0.089-0.005-0.134c0.013-0.048,0.039-0.09,0.068-0.129
							c0.013-0.012,0.028-0.023,0.045-0.03c0.027-0.003,0.048,0.006,0.062,0.029c0.032-0.004,0.001-0.016,0-0.017
							c-0.016-0.028,0.009,0.011-0.005-0.018c-0.018-0.064,0.003-0.121,0.03-0.178c0.022-0.012,0.041-0.009,0.056,0.011
							c0.025,0.029,0.044,0.061,0.04,0.102c-0.015,0.011-0.018,0.024-0.011,0.041c0.005,0.012,0.009,0.018,0.014,0.018
							c0.013,0.008,0.027,0.016,0.042,0.023c0.023,0.008,0.044,0.021,0.062,0.038c0.01,0.013,0.014,0.029,0.014,0.045
							C260.118,9.823,260.112,9.846,260.123,9.868z"/>
						<path fill="#756F53" d="M260.01,9.661c0.102,0.007,0.203,0.015,0.311,0.022c0.016,0.099-0.068,0.105-0.123,0.137
							c-0.039-0.002-0.071-0.017-0.092-0.051l0.001,0.002c-0.027-0.027-0.07-0.02-0.097-0.047V9.722
							C259.986,9.702,259.986,9.681,260.01,9.661z"/>
						<path fill="#81794B" d="M259.535,9.683c0.093-0.006,0.186-0.012,0.279-0.019c0.015,0.02,0.014,0.039-0.002,0.058l0.002,0.001
							c-0.061,0.035-0.105,0.103-0.188,0.096c-0.035-0.024-0.071-0.047-0.106-0.071C259.504,9.721,259.508,9.7,259.535,9.683z"/>
						<path fill="#C1AD61" d="M259.812,9.722c0.001-0.019,0.001-0.038,0.002-0.058c0.016-0.044,0.032-0.088,0.048-0.132
							c0.016-0.019,0.034-0.021,0.053-0.006c-0.002,0.081-0.004,0.162-0.005,0.243c-0.013,0.017-0.028,0.018-0.045,0.006
							C259.847,9.758,259.829,9.74,259.812,9.722z"/>
						<path fill="#DCC359" d="M259.627,9.818c0.038-0.079,0.114-0.085,0.188-0.096c-0.042,0.044,0.02,0.167-0.111,0.143
							l-0.011,0.003c-0.03-0.009-0.051-0.031-0.074-0.05H259.627z"/>
						<path fill="#DFC65A" d="M260.105,9.769c0.044-0.006,0.082-0.003,0.092,0.051l0.006-0.001c-0.024,0.018-0.044,0.04-0.073,0.051
							l-0.007-0.002c-0.029-0.003-0.058-0.007-0.095-0.011C260.058,9.822,260.082,9.796,260.105,9.769z"/>
						<path fill="#847841" d="M260.106,9.986c0.042,0.031,0.045,0.078,0.052,0.124c0.008,0.047-0.014,0.064-0.058,0.059
							c-0.023-0.02-0.045-0.039-0.068-0.059c0.009-0.032-0.003-0.07,0.026-0.097l-0.004,0.002
							C260.069,10.001,260.086,9.991,260.106,9.986z"/>
						<path fill="#D3BB55" d="M260.058,10.013c0.007,0.036,0.045,0.081-0.026,0.097l-0.008,0.001
							c-0.026-0.013-0.046-0.033-0.068-0.05l0.004-0.005c0.004-0.022,0.008-0.043,0.013-0.07
							C260.004,9.995,260.031,10.004,260.058,10.013z"/>
						<path fill="#2C364E" d="M260.1,10.169c0.019-0.02,0.039-0.039,0.058-0.059c0.041,0.032,0.056,0.07,0.028,0.118
							C260.143,10.228,260.119,10.203,260.1,10.169z"/>
						<path fill="#2D3852" d="M259.876,9.439c0.006-0.037,0.029-0.048,0.073-0.038c0.003,0.026,0.006,0.055,0.01,0.084
							C259.909,9.509,259.893,9.473,259.876,9.439z"/>
						<path fill="#635F55" d="M259.669,10.135c0.022,0.008,0.044,0.016,0.066,0.024c-0.017,0.036-0.047,0.053-0.084,0.064
							C259.615,10.185,259.642,10.16,259.669,10.135z"/>
						<path fill="#877C46" d="M259.876,9.439c0.028,0.015,0.055,0.031,0.083,0.046c0,0.016,0.001,0.032,0.002,0.048
							c-0.015-0.003-0.03-0.006-0.045-0.007c-0.018,0.002-0.035,0.004-0.053,0.006C259.867,9.501,259.871,9.47,259.876,9.439z"/>
						<path fill="#C1AD61" d="M260.01,9.661c0,0.02,0,0.041,0,0.061c-0.049-0.023-0.067-0.05-0.01-0.086
							C260.007,9.643,260.01,9.651,260.01,9.661z"/>
						<path fill="#EED361" d="M260.106,9.986c-0.017,0.01-0.034,0.019-0.052,0.029c0.011-0.02,0.016-0.046,0.049-0.034
							L260.106,9.986z"/>
						<path fill="#464F5A" d="M260.13,9.869c0.024-0.017,0.049-0.034,0.073-0.051C260.191,9.852,260.165,9.867,260.13,9.869z"/>
						<path fill="#3C485D" d="M259.619,9.818c0.025,0.017,0.049,0.033,0.074,0.05C259.658,9.866,259.632,9.852,259.619,9.818z"/>
						<path fill="#1D232E" d="M259.535,9.683c-0.005,0.022-0.009,0.043-0.014,0.065c-0.013-0.014-0.027-0.029-0.046-0.049
							C259.499,9.692,259.517,9.687,259.535,9.683z"/>
						<path fill="#464F5A" d="M259.956,10.06c0.023,0.017,0.045,0.033,0.068,0.05C259.991,10.107,259.967,10.092,259.956,10.06z"/>
						<path fill="#635F55" d="M259.709,9.999c-0.01,0.021-0.021,0.042-0.031,0.063C259.674,10.034,259.685,10.013,259.709,9.999z"/>
						<path fill="#1A7232" d="M260.914,9.828c-0.015,0.027-0.03,0.053-0.046,0.08c-0.027,0-0.053,0.001-0.08,0.001
							C260.783,9.807,260.851,9.822,260.914,9.828z"/>
						<polygon fill="#FDFEFD" points="260.333,10.406 260.348,10.404 260.338,10.408 						"/>
						<path fill="#1F7236" d="M260.819,9.536c0.008,0.037,0.013,0.073-0.014,0.107c-0.037-0.037-0.021-0.075-0.019-0.112
							C260.798,9.531,260.809,9.532,260.819,9.536z"/>
						<path fill="#4E4522" d="M259.864,9.776c0.016,0.003,0.031,0.001,0.045-0.006c0.044,0.021,0.061,0.048,0.021,0.089
							C259.876,9.856,259.871,9.816,259.864,9.776z"/>
						<path fill="#EAD05F" d="M259.861,10.057c-0.094-0.06,0.005-0.081,0.009-0.134C259.94,9.991,259.856,10.016,259.861,10.057
							L259.861,10.057z"/>
						<path fill="#EED361" d="M260.01,9.724c0.037,0.005,0.085-0.011,0.097,0.047C260.067,9.77,260.028,9.77,260.01,9.724z"/>
					</g>
				</g>
			</g>
		</g>
	</g>
</g>
<path fill="#010201" d="M280.133,5.47h2.743c1.969,0,3.286,0.637,3.286,2.509c0,1.794-1.344,2.64-3.286,2.64h-1.603v3.38h-1.141
	L280.133,5.47L280.133,5.47z M282.727,9.734c1.562,0,2.309-0.547,2.309-1.756c0-1.234-0.774-1.638-2.309-1.638h-1.453v3.394H282.727
	z"/>
<path fill="#010201" d="M290.905,9.994c0-0.807-0.285-1.586-1.358-1.586c-0.774,0-1.453,0.338-1.97,0.676l-0.447-0.741
	c0.61-0.377,1.534-0.819,2.594-0.819c1.616,0,2.295,1.027,2.295,2.601v3.874h-0.924L291,13.245h-0.027
	c-0.639,0.494-1.371,0.91-2.187,0.91c-1.113,0-1.941-0.663-1.941-1.794C286.844,10.982,288.093,10.293,290.905,9.994z
	 M289.098,13.296c0.639,0,1.168-0.299,1.807-0.845v-1.755c-2.214,0.26-2.961,0.779-2.961,1.586
	C287.944,12.997,288.446,13.296,289.098,13.296z"/>
<path fill="#010201" d="M294.057,7.68h0.924l0.095,1.145h0.041c0.448-0.793,1.127-1.301,1.874-1.301
	c0.285,0,0.489,0.039,0.706,0.131L297.48,8.59c-0.218-0.065-0.367-0.104-0.639-0.104c-0.557,0-1.222,0.39-1.67,1.455v4.057h-1.114
	L294.057,7.68L294.057,7.68z"/>
<path fill="#010201" d="M302.099,9.994c0-0.807-0.286-1.586-1.358-1.586c-0.774,0-1.453,0.338-1.969,0.676l-0.448-0.741
	c0.61-0.377,1.534-0.819,2.594-0.819c1.616,0,2.295,1.027,2.295,2.601v3.874h-0.924l-0.095-0.754h-0.027
	c-0.639,0.494-1.371,0.91-2.187,0.91c-1.113,0-1.941-0.663-1.941-1.794C298.038,10.982,299.287,10.293,302.099,9.994z
	 M300.292,13.296c0.639,0,1.168-0.299,1.807-0.845v-1.755c-2.214,0.26-2.961,0.779-2.961,1.586
	C299.138,12.997,299.641,13.296,300.292,13.296z"/>
<path fill="#010201" d="M305.713,13.777v-0.053c-0.326-0.194-0.584-0.532-0.584-1.026c0-0.533,0.381-0.949,0.72-1.17v-0.053
	c-0.435-0.338-0.855-0.948-0.855-1.703c0-1.378,1.141-2.249,2.485-2.249c0.366,0,0.692,0.065,0.937,0.156h2.296v0.819h-1.358
	c0.312,0.286,0.543,0.767,0.543,1.3c0,1.353-1.072,2.197-2.417,2.197c-0.326,0-0.692-0.078-0.991-0.221
	c-0.231,0.194-0.421,0.402-0.421,0.754c0,0.402,0.271,0.688,1.168,0.688h1.276c1.534,0,2.309,0.455,2.309,1.509
	c0,1.17-1.29,2.184-3.341,2.184c-1.616,0-2.729-0.611-2.729-1.703C304.749,14.674,305.116,14.167,305.713,13.777z M307.642,16.169
	c1.263,0,2.091-0.624,2.091-1.287c0-0.585-0.475-0.78-1.33-0.78h-1.142c-0.258,0-0.57-0.025-0.855-0.104
	c-0.475,0.325-0.679,0.702-0.679,1.066C305.727,15.74,306.447,16.169,307.642,16.169z M308.877,9.772
	c0-0.923-0.624-1.469-1.398-1.469s-1.398,0.546-1.398,1.469c0,0.924,0.638,1.509,1.398,1.509S308.877,10.696,308.877,9.772z"/>
<path fill="#010201" d="M311.935,7.68h1.127v3.861c0,1.183,0.367,1.69,1.236,1.69c0.679,0,1.154-0.325,1.778-1.066V7.68h1.114v6.318
	h-0.924l-0.095-0.988h-0.041c-0.611,0.689-1.263,1.145-2.173,1.145c-1.398,0-2.023-0.858-2.023-2.471L311.935,7.68L311.935,7.68z"/>
<path fill="#010201" d="M323.087,9.994c0-0.807-0.286-1.586-1.358-1.586c-0.774,0-1.453,0.338-1.969,0.676l-0.448-0.741
	c0.61-0.377,1.534-0.819,2.594-0.819c1.616,0,2.295,1.027,2.295,2.601v3.874h-0.924l-0.095-0.754h-0.027
	c-0.639,0.494-1.371,0.91-2.187,0.91c-1.113,0-1.941-0.663-1.941-1.794C319.027,10.982,320.276,10.293,323.087,9.994z
	 M321.281,13.296c0.639,0,1.168-0.299,1.807-0.845v-1.755c-2.214,0.26-2.961,0.779-2.961,1.586
	C320.126,12.997,320.629,13.296,321.281,13.296z"/>
<path fill="#010201" d="M326.294,15.831c0.747,0,1.222-0.572,1.494-1.352l0.149-0.469l-2.648-6.331h1.154l1.345,3.497
	c0.203,0.546,0.435,1.196,0.638,1.781h0.055c0.19-0.572,0.38-1.222,0.557-1.781l1.182-3.497h1.086l-2.484,6.838
	c-0.462,1.248-1.142,2.197-2.472,2.197c-0.299,0-0.558-0.052-0.774-0.13l0.217-0.845C325.927,15.779,326.131,15.831,326.294,15.831z
	"/>
<circle fill="none" stroke="#010201" stroke-miterlimit="10" cx="259.927" cy="9.771" r="7.049"/>
</svg>
