<?xml version="1.0" encoding="utf-8"?>
<!-- Generator: Adobe Illustrator 17.0.0, SVG Export Plug-In . SVG Version: 6.00 Build 0)  -->
<!DOCTYPE svg PUBLIC "-//W3C//DTD SVG 1.1//EN" "http://www.w3.org/Graphics/SVG/1.1/DTD/svg11.dtd">
<svg version="1.1" id="Layer_1" xmlns="http://www.w3.org/2000/svg" xmlns:xlink="http://www.w3.org/1999/xlink" x="0px" y="0px"
	 width="600px" height="19.542px" viewBox="0 0 600 19.542" enable-background="new 0 0 600 19.542" xml:space="preserve">
<rect x="136.874" y="2.722" fill="#ABCCB7" width="55.254" height="14.097"/>
<g>
	<rect x="448.356" y="8.771" fill="#ABCCB7" width="69.794" height="2"/>
</g>
<g>
	<g>
		<circle fill="#ABCCB7" cx="518.026" cy="9.771" r="2.481"/>
	</g>
</g>
<rect x="0" y="0" fill="none" width="600" height="19.542"/>
<line fill="none" stroke="#9F9F9F" stroke-width="0.7" stroke-miterlimit="10" stroke-dasharray="6,3" x1="199.426" y1="0" x2="199.426" y2="18.989"/>
<line fill="none" stroke="#9F9F9F" stroke-width="0.7" stroke-miterlimit="10" stroke-dasharray="6,3" x1="440.97" y1="0" x2="440.97" y2="18.989"/>
<g>
	<g>
		<g>
			<defs>
				<circle id="SVGID_1_" cx="259.927" cy="9.771" r="7.049"/>
			</defs>
			<clipPath id="SVGID_2_">
				<use xlink:href="#SVGID_1_"  overflow="visible"/>
			</clipPath>
			<g id="FQmiAd_1_" clip-path="url(#SVGID_2_)">
				<g>
					<g>
						<path fill="#BF192A" d="M248.953,12.961c0-2.206,0-4.412,0-6.619c0.11-0.11,0.252-0.097,0.389-0.097
							c0.771-0.001,1.541-0.001,2.312-0.001c6.254,0,12.507,0,18.761,0.001c0.167,0,0.343-0.033,0.494,0.081
							c0.079,0.087,0.065,0.196,0.065,0.3c0.002,2.013,0.002,4.027,0,6.04c0,0.104,0.015,0.212-0.058,0.303
							c-0.107,0.096-0.239,0.089-0.368,0.089c-0.535,0.002-1.07,0.001-1.605,0.001c-6.501,0-13.002,0-19.503-0.001
							C249.272,13.058,249.094,13.096,248.953,12.961z"/>
						<path fill="#239E46" d="M248.953,4.882c0-0.86,0-1.72,0-2.579c0.076-0.044,0.159-0.023,0.238-0.023
							c7.164-0.001,14.328-0.001,21.492-0.001c0.073,0,0.146-0.009,0.218,0.012c0.057,0.044,0.07,0.108,0.07,0.173
							c-0.004,0.788,0.026,1.577-0.015,2.365c-0.011,0.031-0.029,0.058-0.054,0.082c-0.155,0.1-0.33,0.069-0.498,0.069
							c-6.056,0.001-12.112,0.001-18.168,0.001c-0.965,0-1.929,0.001-2.894-0.001C249.204,4.98,249.063,4.993,248.953,4.882z"/>
						<path fill="#239E46" d="M248.953,16.952c0-0.86,0-1.72,0-2.579c0.11-0.11,0.252-0.097,0.389-0.097
							c0.754-0.001,1.509-0.001,2.263-0.001c6.27,0,12.54,0,18.81,0.001c0.16,0,0.326-0.027,0.476,0.061
							c0.027,0.02,0.046,0.046,0.06,0.077c0.051,0.515,0.012,1.031,0.022,1.546c0.005,0.242,0.003,0.484,0,0.726
							c-0.001,0.095,0.015,0.196-0.064,0.274c-0.087,0.032-0.177,0.017-0.265,0.017c-7.143,0.001-14.286,0.001-21.429,0
							C249.128,16.975,249.037,16.997,248.953,16.952z"/>
						<path fill="#FFFFFF" d="M248.953,4.882c0.072-0.007,0.144-0.019,0.216-0.019c7.194-0.001,14.388-0.001,21.582-0.001
							c0.049,0,0.097,0.003,0.146,0.005c0.052,0.034,0.071,0.087,0.071,0.144c0,0.415,0.029,0.831-0.016,1.246
							c-0.013,0.029-0.034,0.051-0.062,0.066c-0.089-0.001-0.178-0.004-0.267-0.004c-7.119,0-14.239,0-21.358,0.001
							c-0.104,0-0.211-0.022-0.312,0.021C248.953,5.856,248.953,5.369,248.953,4.882z"/>
						<path fill="#FFFFFF" d="M270.897,14.387c-0.089,0.002-0.178,0.005-0.267,0.005c-7.121,0-14.242,0-21.363-0.001
							c-0.104,0-0.209-0.012-0.313-0.019c0-0.47,0-0.941,0-1.411c0.105-0.003,0.21-0.008,0.316-0.008
							c7.208-0.001,14.415-0.001,21.623-0.001c0.013,0.01,0.025,0.02,0.038,0.03c0.087,0.442,0.042,0.887,0.024,1.331
							C270.952,14.344,270.923,14.368,270.897,14.387z"/>
						<path fill="#FFFFFF" d="M248.953,16.952c7.219,0,14.439,0,21.658,0c0.097,0,0.194-0.005,0.291-0.008
							c0.052-0.166,0.022-0.337,0.023-0.505c0.004-0.672,0.002-1.344,0.002-2.017c0-0.489,0-0.977,0-1.466c0-2.201,0-4.402,0-6.604
							c0-0.507,0-1.013,0-1.52c0-0.781-0.001-1.561,0.001-2.342c0-0.079-0.021-0.161,0.023-0.236
							c0.03,0.017,0.085-0.035,0.095,0.025c0.01,0.055,0.002,0.113,0.002,0.17c0,4.786-0.001,9.571,0.005,14.357
							c0,0.167-0.033,0.199-0.199,0.199c-7.235-0.005-14.47-0.004-21.706-0.008C249.084,16.998,248.996,17.053,248.953,16.952z"/>
						<path fill="#134F26" d="M270.899,2.308c-0.105-0.002-0.211-0.005-0.316-0.005c-7.21,0-14.421,0-21.631,0
							c0.044-0.101,0.132-0.046,0.195-0.046c1.963-0.004,3.926-0.003,5.889-0.003c5.288,0,10.577,0,15.865,0
							c0.014,0.013,0.019,0.025,0.013,0.037C270.91,2.303,270.904,2.308,270.899,2.308z"/>
						<path fill="#134F26" d="M270.899,2.308c0.001-0.018,0.001-0.036,0.002-0.054c0.016,0,0.032,0,0.049,0
							c-0.003,0.861-0.006,1.722-0.009,2.583c-0.009,0-0.019-0.001-0.028-0.001C270.909,3.993,270.904,3.151,270.899,2.308z"/>
						<path fill="#F0E528" d="M259.874,6.953c0.205,0.631,0.398,1.205,0.576,1.784c0.055,0.179,0.131,0.255,0.336,0.249
							c0.624-0.018,1.248-0.006,1.887-0.006c-0.021,0.108-0.115,0.137-0.177,0.185c-0.445,0.338-0.89,0.677-1.344,1.002
							c-0.14,0.1-0.178,0.182-0.112,0.353c0.196,0.512,0.37,1.033,0.55,1.551c0.026,0.074,0.043,0.15,0.075,0.267
							c-0.559-0.409-1.084-0.788-1.601-1.177c-0.126-0.095-0.211-0.09-0.334,0.004c-0.512,0.392-1.033,0.774-1.602,1.197
							c0.212-0.631,0.397-1.205,0.6-1.772c0.072-0.203,0.055-0.325-0.141-0.459c-0.514-0.351-1.008-0.731-1.509-1.1
							c0.033-0.09,0.1-0.049,0.146-0.05c0.592-0.003,1.184-0.009,1.775,0.002c0.16,0.003,0.224-0.055,0.27-0.2
							C259.457,8.192,259.657,7.604,259.874,6.953z"/>
						<path fill="#5E121B" d="M270.941,6.34c0.003,1.107,0.008,2.214,0.008,3.321c0,1.099-0.004,2.198-0.007,3.297
							c-0.008,0.026-0.021,0.027-0.038,0.008l-0.013-0.015c0.003-1.101,0.009-2.201,0.009-3.302c0-1.109-0.007-2.217-0.01-3.326
							l0.01-0.005C270.92,6.313,270.934,6.32,270.941,6.34z"/>
						<path fill="#030303" d="M270.941,6.34c-0.015-0.005-0.029-0.012-0.041-0.021c-0.001-0.484-0.002-0.967-0.003-1.451
							c0.009-0.009,0.014-0.02,0.017-0.032c0.009,0.002,0.019,0.003,0.028,0.001C270.941,5.338,270.941,5.839,270.941,6.34z"/>
						<path fill="#134F26" d="M270.941,14.418c0.003,0.812,0.006,1.624,0.008,2.436c0,0.036,0.013,0.084-0.048,0.09
							c0.004-0.842,0.008-1.683,0.012-2.525C270.923,14.419,270.932,14.418,270.941,14.418z"/>
						<path fill="#010303" d="M270.941,14.418l-0.014-0.001l-0.014,0.002c-0.002-0.012-0.008-0.023-0.017-0.032
							c0.003-0.473,0.005-0.947,0.008-1.42c0.013-0.003,0.025-0.006,0.038-0.008C270.942,13.445,270.942,13.932,270.941,14.418z"/>
					</g>
				</g>
			</g>
		</g>
	</g>
</g>
<path fill="#010201" d="M280.174,12.154c0.638,0.638,1.521,1.066,2.458,1.066c1.168,0,1.86-0.559,1.86-1.391
	c0-0.871-0.652-1.145-1.494-1.509l-1.276-0.533c-0.828-0.338-1.807-0.948-1.807-2.196c0-1.301,1.195-2.263,2.812-2.263
	c1.06,0,1.996,0.43,2.621,1.054l-0.598,0.701c-0.543-0.493-1.209-0.806-2.023-0.806c-1.005,0-1.671,0.481-1.671,1.248
	c0,0.819,0.788,1.131,1.48,1.417l1.276,0.521c1.032,0.429,1.834,1.014,1.834,2.274c0,1.353-1.168,2.432-3.042,2.432
	c-1.25,0-2.336-0.494-3.11-1.262L280.174,12.154z"/>
<path fill="#010201" d="M287.088,7.695h1.127v3.861c0,1.183,0.367,1.69,1.236,1.69c0.679,0,1.154-0.325,1.778-1.066V7.695h1.114
	v6.318h-0.924l-0.095-0.988h-0.041c-0.611,0.689-1.263,1.145-2.173,1.145c-1.398,0-2.023-0.858-2.023-2.471L287.088,7.695
	L287.088,7.695z"/>
<path fill="#010201" d="M294.505,7.695h0.924l0.095,1.145h0.041c0.448-0.793,1.127-1.301,1.874-1.301
	c0.285,0,0.489,0.039,0.706,0.131l-0.217,0.936c-0.218-0.065-0.367-0.104-0.639-0.104c-0.557,0-1.222,0.39-1.67,1.455v4.057h-1.114
	L294.505,7.695L294.505,7.695z"/>
<path fill="#010201" d="M298.949,5.706c0-0.416,0.339-0.688,0.773-0.688s0.774,0.272,0.774,0.688c0,0.403-0.34,0.689-0.774,0.689
	S298.949,6.11,298.949,5.706z M299.152,7.695h1.114v6.318h-1.114V7.695z"/>
<path fill="#010201" d="M302.425,7.695h0.924l0.095,0.91h0.041c0.625-0.598,1.304-1.066,2.214-1.066c1.385,0,2.01,0.858,2.01,2.471
	v4.004h-1.113v-3.861c0-1.183-0.381-1.689-1.25-1.689c-0.679,0-1.141,0.338-1.806,0.975v4.576h-1.114L302.425,7.695L302.425,7.695z"
	/>
<path fill="#010201" d="M313.524,10.01c0-0.807-0.285-1.586-1.358-1.586c-0.774,0-1.453,0.338-1.97,0.676l-0.447-0.741
	c0.61-0.377,1.534-0.819,2.594-0.819c1.616,0,2.295,1.027,2.295,2.601v3.874h-0.924l-0.095-0.754h-0.027
	c-0.639,0.494-1.371,0.91-2.187,0.91c-1.113,0-1.941-0.663-1.941-1.794C309.463,10.998,310.712,10.309,313.524,10.01z
	 M311.717,13.312c0.639,0,1.168-0.299,1.807-0.845v-1.755c-2.214,0.26-2.961,0.779-2.961,1.586
	C310.563,13.013,311.065,13.312,311.717,13.312z"/>
<path fill="#010201" d="M316.675,7.695h0.924l0.095,0.91h0.041c0.57-0.598,1.263-1.066,2.051-1.066c1.005,0,1.548,0.455,1.819,1.209
	c0.692-0.715,1.372-1.209,2.173-1.209c1.358,0,2.01,0.858,2.01,2.471v4.004h-1.113v-3.861c0-1.183-0.394-1.689-1.222-1.689
	c-0.517,0-1.046,0.324-1.657,0.975v4.576h-1.113v-3.861c0-1.183-0.395-1.689-1.236-1.689c-0.488,0-1.046,0.324-1.656,0.975v4.576
	h-1.114V7.695H316.675z"/>
<path fill="#010201" d="M330.341,7.539c1.685,0,2.635,1.157,2.635,2.965c0,0.221-0.014,0.429-0.041,0.585h-4.454
	c0.082,1.364,0.938,2.223,2.2,2.223c0.625,0,1.154-0.195,1.644-0.494l0.394,0.702c-0.57,0.352-1.276,0.65-2.173,0.65
	c-1.766,0-3.164-1.235-3.164-3.303C327.381,8.801,328.834,7.539,330.341,7.539z M331.998,10.387c0-1.287-0.598-2.002-1.63-2.002
	c-0.924,0-1.766,0.728-1.901,2.002H331.998z"/>
<circle fill="none" stroke="#010201" stroke-miterlimit="10" cx="259.927" cy="9.771" r="7.049"/>
</svg>
