<?xml version="1.0" encoding="utf-8"?>
<!-- Generator: Adobe Illustrator 17.0.0, SVG Export Plug-In . SVG Version: 6.00 Build 0)  -->
<!DOCTYPE svg PUBLIC "-//W3C//DTD SVG 1.1//EN" "http://www.w3.org/Graphics/SVG/1.1/DTD/svg11.dtd">
<svg version="1.1" id="Layer_1" xmlns="http://www.w3.org/2000/svg" xmlns:xlink="http://www.w3.org/1999/xlink" x="0px" y="0px"
	 width="600px" height="19.542px" viewBox="0 0 600 19.542" enable-background="new 0 0 600 19.542" xml:space="preserve">
<rect x="0" y="0" fill="#ABCCB7" width="600" height="19.542"/>
<line fill="none" stroke="#9F9F9F" stroke-width="0.7" stroke-miterlimit="10" stroke-dasharray="6,3" x1="199.426" y1="0" x2="199.426" y2="18.989"/>
<line fill="none" stroke="#9F9F9F" stroke-width="0.7" stroke-miterlimit="10" stroke-dasharray="6,3" x1="440.97" y1="0" x2="440.97" y2="18.989"/>
<g>
	<g>
		<g>
			<rect x="451.885" y="8.771" fill="#575756" width="69.794" height="2"/>
		</g>
		<g>
			<g>
				<circle fill="#575756" cx="521.555" cy="9.771" r="2.481"/>
			</g>
		</g>
	</g>
</g>
<path fill="#575756" d="M67.679,7.5c-0.503-0.441-0.924-0.688-1.575-0.688c-0.733,0-1.182,0.364-1.182,1.04
	c0,1.56,3.694,1.248,3.694,3.874c0,1.235-0.761,2.146-2.105,2.379v1.339h-1.086v-1.3c-0.829-0.078-1.738-0.442-2.35-0.988
	l0.706-1.014c0.638,0.481,1.276,0.806,2.01,0.806c0.883,0,1.317-0.416,1.317-1.117c0-1.717-3.694-1.47-3.694-3.914
	c0-1.209,0.788-2.066,2.011-2.274V4.315h1.086v1.3c0.869,0.104,1.467,0.507,1.969,1.014L67.679,7.5z"/>
<path fill="#575756" d="M72.543,12.792h1.929V7.357h-1.589V6.422c0.855-0.156,1.453-0.364,1.996-0.677h1.168v7.047h1.697v1.222
	h-5.201V12.792z"/>
<path fill="#575756" d="M84.781,11.882h-1.086v2.132h-1.467v-2.132h-3.816v-1.015l3.423-5.122h1.86v4.979h1.086
	C84.781,10.724,84.781,11.882,84.781,11.882z M82.229,10.724V8.852c0-0.481,0.041-1.235,0.067-1.716h-0.054
	c-0.218,0.429-0.462,0.845-0.706,1.287l-1.575,2.301C79.961,10.724,82.229,10.724,82.229,10.724z"/>
<path fill="#575756" d="M85.87,12.037c0.516,0.508,1.181,0.91,2.05,0.91c0.938,0,1.589-0.468,1.589-1.248
	c0-0.857-0.57-1.403-2.539-1.403V9.203c1.697,0,2.254-0.559,2.254-1.326c0-0.688-0.488-1.104-1.276-1.104
	c-0.679,0-1.208,0.312-1.738,0.78l-0.801-0.924c0.733-0.623,1.562-1.039,2.594-1.039c1.656,0,2.798,0.779,2.798,2.184
	c0,0.923-0.57,1.547-1.508,1.898v0.052c1.019,0.26,1.793,0.962,1.793,2.054c0,1.508-1.372,2.393-3.029,2.393
	c-1.398,0-2.321-0.521-2.933-1.17L85.87,12.037z"/>
<path fill="#575756" d="M92.499,12.037c0.516,0.508,1.181,0.91,2.05,0.91c0.938,0,1.589-0.468,1.589-1.248
	c0-0.857-0.57-1.403-2.539-1.403V9.203c1.697,0,2.254-0.559,2.254-1.326c0-0.688-0.488-1.104-1.276-1.104
	c-0.679,0-1.208,0.312-1.738,0.78l-0.801-0.924C92.771,6.006,93.6,5.59,94.632,5.59c1.656,0,2.798,0.779,2.798,2.184
	c0,0.923-0.57,1.547-1.508,1.898v0.052c1.019,0.26,1.793,0.962,1.793,2.054c0,1.508-1.372,2.393-3.029,2.393
	c-1.398,0-2.321-0.521-2.933-1.17L92.499,12.037z"/>
<path fill="#575756" d="M100.174,9.775V9.723c-0.665-0.455-1.194-1.066-1.194-1.937c0-1.339,1.113-2.196,2.607-2.196
	c1.548,0,2.539,0.896,2.539,2.235c0,0.819-0.598,1.509-1.154,1.898v0.052c0.802,0.429,1.494,1.04,1.494,2.146
	c0,1.273-1.168,2.249-2.92,2.249c-1.684,0-2.934-0.937-2.934-2.275C98.612,10.867,99.359,10.191,100.174,9.775z M101.573,13.103
	c0.828,0,1.426-0.468,1.426-1.235c0-0.896-0.91-1.222-2.078-1.677c-0.543,0.377-0.937,0.91-0.937,1.547
	C99.984,12.557,100.691,13.103,101.573,13.103z M102.836,7.916c0-0.728-0.476-1.261-1.276-1.261c-0.666,0-1.182,0.416-1.182,1.131
	c0,0.832,0.774,1.196,1.738,1.561C102.578,8.904,102.836,8.436,102.836,7.916z"/>
<path fill="#575756" d="M105.323,15.56c0.869-0.325,1.371-0.91,1.371-1.573c-0.041,0-0.081,0-0.122,0
	c-0.529,0-1.005-0.338-1.005-0.923c0-0.559,0.476-0.923,1.046-0.923c0.733,0,1.168,0.572,1.168,1.534
	c0,1.273-0.774,2.262-2.119,2.704L105.323,15.56z"/>
<path fill="#575756" d="M109.086,12.792h1.929V7.357h-1.589V6.422c0.855-0.156,1.453-0.364,1.996-0.677h1.168v7.047h1.697v1.222
	h-5.201V12.792z"/>
<path fill="#575756" d="M115.783,12.037c0.516,0.508,1.181,0.91,2.05,0.91c0.938,0,1.589-0.468,1.589-1.248
	c0-0.857-0.57-1.403-2.539-1.403V9.203c1.697,0,2.254-0.559,2.254-1.326c0-0.688-0.488-1.104-1.276-1.104
	c-0.679,0-1.208,0.312-1.738,0.78l-0.801-0.924c0.733-0.623,1.562-1.039,2.594-1.039c1.656,0,2.798,0.779,2.798,2.184
	c0,0.923-0.571,1.547-1.508,1.898v0.052c1.019,0.26,1.793,0.962,1.793,2.054c0,1.508-1.372,2.393-3.028,2.393
	c-1.399,0-2.322-0.521-2.934-1.17L115.783,12.037z"/>
<path fill="#575756" d="M126.337,14.533v2.003h-1.562V7.631h1.29l0.109,0.676h0.054c0.557-0.455,1.276-0.832,2.01-0.832
	c1.657,0,2.621,1.273,2.621,3.25c0,2.184-1.371,3.445-2.852,3.445c-0.584,0-1.168-0.26-1.711-0.702L126.337,14.533z M127.682,12.934
	c0.883,0,1.562-0.754,1.562-2.197c0-1.273-0.435-2.028-1.439-2.028c-0.488,0-0.95,0.234-1.467,0.716v2.977
	C126.826,12.792,127.288,12.934,127.682,12.934z"/>
<path fill="#575756" d="M134.434,4.783h1.06l-3.164,11.311h-1.06L134.434,4.783z"/>
<path fill="#575756" d="M139.012,7.474c0.855,0,1.508,0.325,1.956,0.741l-0.747,0.948c-0.354-0.299-0.706-0.468-1.127-0.468
	c-1.073,0-1.82,0.845-1.82,2.132c0,1.274,0.733,2.119,1.779,2.119c0.543,0,1.005-0.26,1.371-0.546l0.652,0.949
	c-0.625,0.533-1.426,0.819-2.187,0.819c-1.82,0-3.219-1.223-3.219-3.342C135.671,8.696,137.233,7.474,139.012,7.474z"/>
<circle fill="none" stroke="#FFFCEE" stroke-miterlimit="10" cx="259.817" cy="9.771" r="7.049"/>
<path fill="#575756" d="M280.458,11.636c0.625,0.52,1.439,0.883,2.173,0.883c0.828,0,1.235-0.311,1.235-0.818
	c0-0.533-0.502-0.701-1.276-1.014l-1.141-0.469c-0.924-0.352-1.793-1.078-1.793-2.314c0-1.404,1.317-2.521,3.151-2.521
	c1.019,0,2.091,0.391,2.852,1.117l-1.005,1.209c-0.584-0.428-1.141-0.676-1.847-0.676c-0.68,0-1.128,0.287-1.128,0.768
	c0,0.52,0.584,0.703,1.358,1.002l1.127,0.441c1.073,0.416,1.752,1.105,1.752,2.301c0,1.404-1.222,2.627-3.327,2.627
	c-1.154,0-2.376-0.416-3.286-1.223L280.458,11.636z"/>
<path fill="#575756" d="M287.114,7.565h1.997v3.758c0,0.924,0.258,1.223,0.842,1.223c0.502,0,0.801-0.209,1.195-0.715V7.565h1.996
	v6.449h-1.63l-0.149-0.898h-0.041c-0.57,0.65-1.194,1.055-2.118,1.055c-1.467,0-2.092-0.988-2.092-2.602L287.114,7.565
	L287.114,7.565z"/>
<path fill="#575756" d="M294.831,7.565h1.63l0.136,1.131h0.054c0.489-0.871,1.223-1.287,1.915-1.287c0.38,0,0.611,0.053,0.802,0.131
	l-0.326,1.65c-0.244-0.064-0.448-0.104-0.733-0.104c-0.503,0-1.127,0.312-1.48,1.184v3.744h-1.996V7.565H294.831z"/>
<path fill="#575756" d="M300.007,5.616c0-0.586,0.489-0.988,1.154-0.988c0.679,0,1.154,0.402,1.154,0.988c0,0.584-0.476,1-1.154,1
	C300.496,6.616,300.007,6.2,300.007,5.616z M300.17,7.565h1.996v6.449h-1.996V7.565z"/>
<path fill="#575756" d="M303.851,7.565h1.63l0.136,0.82h0.054c0.57-0.521,1.25-0.977,2.159-0.977c1.467,0,2.092,0.988,2.092,2.602
	v4.004h-1.996v-3.758c0-0.936-0.258-1.223-0.829-1.223c-0.502,0-0.814,0.223-1.249,0.625v4.355h-1.996L303.851,7.565L303.851,7.565z
	"/>
<path fill="#575756" d="M315.098,9.866c-0.04-0.57-0.339-0.936-1.059-0.936c-0.57,0-1.141,0.221-1.793,0.586l-0.706-1.262
	c0.855-0.494,1.819-0.846,2.879-0.846c1.725,0,2.676,0.937,2.676,2.912v3.693h-1.63l-0.149-0.664h-0.041
	c-0.57,0.482-1.208,0.82-1.969,0.82c-1.223,0-1.996-0.859-1.996-1.951C311.31,10.868,312.437,10.128,315.098,9.866z M313.984,12.688
	c0.462,0,0.761-0.209,1.113-0.547V11.01c-1.426,0.182-1.888,0.572-1.888,1.066C313.21,12.493,313.509,12.688,313.984,12.688z"/>
<path fill="#575756" d="M318.74,7.565h1.63l0.136,0.832h0.054c0.558-0.533,1.154-0.988,2.037-0.988c0.951,0,1.521,0.391,1.86,1.08
	c0.598-0.586,1.223-1.08,2.119-1.08c1.453,0,2.104,0.988,2.104,2.602v4.004h-1.996v-3.758c0-0.936-0.258-1.223-0.828-1.223
	c-0.34,0-0.72,0.209-1.154,0.625v4.355h-1.996v-3.758c0-0.936-0.259-1.223-0.829-1.223c-0.326,0-0.72,0.209-1.141,0.625v4.355
	h-1.996L318.74,7.565L318.74,7.565z"/>
<path fill="#575756" d="M333.099,7.409c1.914,0,2.865,1.34,2.865,3.096c0,0.338-0.041,0.648-0.082,0.805h-4.033
	c0.177,0.975,0.855,1.404,1.752,1.404c0.503,0,0.965-0.143,1.453-0.43l0.666,1.158c-0.693,0.455-1.589,0.729-2.391,0.729
	c-1.929,0-3.408-1.248-3.408-3.381C329.921,8.696,331.483,7.409,333.099,7.409z M334.267,10.128c0-0.742-0.326-1.262-1.128-1.262
	c-0.624,0-1.168,0.402-1.304,1.262H334.267z"/>
<path fill="#ABCCB7" d="M224.83,11.804c0.516,0.455,1.127,0.82,1.86,0.82c0.883,0,1.453-0.443,1.453-1.287
	c0-0.832-0.557-1.275-1.358-1.275c-0.502,0-0.761,0.105-1.276,0.416l-0.896-0.545l0.244-4.174h4.89V7.37h-3.164l-0.149,1.549
	c0.325-0.145,0.61-0.195,0.964-0.195c1.48,0,2.743,0.805,2.743,2.561c0,1.832-1.48,2.887-3.164,2.887
	c-1.412,0-2.363-0.508-3.042-1.158L224.83,11.804z"/>
<g>
	<g>
		<g>
			<g>
				<g>
					<defs>
						<circle id="SVGID_1_" cx="259.817" cy="9.771" r="7.049"/>
					</defs>
					<clipPath id="SVGID_2_">
						<use xlink:href="#SVGID_1_"  overflow="visible"/>
					</clipPath>
					<g clip-path="url(#SVGID_2_)">
						<g>
							<path fill="#BF192A" d="M248.843,12.961c0-2.206,0-4.412,0-6.619c0.11-0.11,0.252-0.097,0.389-0.097
								c0.771-0.001,1.541-0.001,2.312-0.001c6.254,0,12.507,0,18.761,0.001c0.167,0,0.343-0.033,0.494,0.081
								c0.079,0.087,0.065,0.196,0.065,0.3c0.002,2.013,0.001,4.027,0,6.04c0,0.104,0.015,0.212-0.058,0.303
								c-0.107,0.096-0.239,0.089-0.368,0.089c-0.535,0.002-1.07,0.001-1.605,0.001c-6.501,0-13.002,0-19.503-0.001
								C249.162,13.058,248.984,13.096,248.843,12.961z"/>
							<path fill="#239E46" d="M248.843,4.882c0-0.86,0-1.72,0-2.579c0.076-0.044,0.159-0.023,0.238-0.023
								c7.164-0.001,14.328-0.001,21.492-0.001c0.073,0,0.146-0.009,0.218,0.012c0.057,0.044,0.07,0.108,0.07,0.173
								c-0.004,0.788,0.026,1.577-0.015,2.365c-0.011,0.031-0.029,0.058-0.054,0.082c-0.155,0.1-0.33,0.069-0.498,0.069
								c-6.056,0.001-12.112,0.001-18.168,0.001c-0.965,0-1.929,0.001-2.894-0.001C249.094,4.98,248.953,4.993,248.843,4.882z"/>
							<path fill="#239E46" d="M248.843,16.952c0-0.86,0-1.72,0-2.579c0.11-0.11,0.252-0.097,0.389-0.097
								c0.754-0.001,1.509-0.001,2.263-0.001c6.27,0,12.54,0,18.81,0.001c0.16,0,0.326-0.027,0.476,0.061
								c0.027,0.02,0.047,0.046,0.06,0.077c0.051,0.515,0.012,1.031,0.022,1.546c0.005,0.242,0.003,0.484,0,0.726
								c-0.001,0.095,0.015,0.196-0.064,0.274c-0.087,0.032-0.177,0.017-0.265,0.017c-7.143,0.001-14.286,0.001-21.429,0
								C249.018,16.975,248.927,16.997,248.843,16.952z"/>
							<path fill="#FFFFFF" d="M248.843,4.882c0.072-0.007,0.144-0.019,0.216-0.019c7.194-0.001,14.388-0.001,21.582-0.001
								c0.049,0,0.097,0.003,0.146,0.005c0.052,0.034,0.071,0.087,0.071,0.144c0,0.415,0.029,0.831-0.016,1.246
								c-0.013,0.029-0.034,0.051-0.062,0.066c-0.089-0.001-0.178-0.004-0.267-0.004c-7.119,0-14.239,0-21.358,0.001
								c-0.104,0-0.211-0.022-0.312,0.021C248.843,5.856,248.843,5.369,248.843,4.882z"/>
							<path fill="#FFFFFF" d="M270.787,14.387c-0.089,0.002-0.178,0.005-0.267,0.005c-7.121,0-14.242,0-21.363-0.001
								c-0.104,0-0.209-0.012-0.313-0.019c0-0.47,0-0.941,0-1.411c0.105-0.003,0.21-0.008,0.316-0.008
								c7.208-0.001,14.415-0.001,21.623-0.001c0.013,0.01,0.025,0.02,0.038,0.03c0.087,0.442,0.042,0.887,0.024,1.331
								C270.842,14.344,270.813,14.368,270.787,14.387z"/>
							<path fill="#FFFFFF" d="M248.843,16.952c7.219,0,14.439,0,21.658,0c0.097,0,0.194-0.005,0.291-0.008
								c0.052-0.166,0.022-0.337,0.023-0.505c0.004-0.672,0.002-1.344,0.002-2.017c0-0.489,0-0.977,0-1.466c0-2.201,0-4.402,0-6.604
								c0-0.507,0-1.013,0-1.52c0-0.781-0.001-1.561,0.001-2.342c0-0.079-0.021-0.161,0.023-0.236
								c0.03,0.017,0.085-0.035,0.095,0.025c0.01,0.055,0.002,0.113,0.002,0.17c0,4.786-0.001,9.571,0.005,14.357
								c0,0.167-0.033,0.199-0.199,0.199c-7.235-0.005-14.47-0.004-21.706-0.008C248.974,16.998,248.886,17.052,248.843,16.952z"/>
							<path fill="#134F26" d="M270.789,2.308c-0.105-0.002-0.211-0.005-0.316-0.005c-7.21,0-14.42,0-21.631,0
								c0.044-0.101,0.132-0.046,0.195-0.046c1.963-0.004,3.926-0.003,5.889-0.003c5.289,0,10.577,0,15.866,0
								c0.014,0.013,0.019,0.025,0.013,0.037C270.8,2.303,270.794,2.308,270.789,2.308z"/>
							<path fill="#134F26" d="M270.789,2.308c0.001-0.018,0.001-0.036,0.002-0.054c0.016,0,0.032,0,0.049,0
								c-0.003,0.861-0.006,1.722-0.009,2.583c-0.009,0-0.019-0.001-0.028-0.001C270.799,3.993,270.794,3.151,270.789,2.308z"/>
							<path fill="#F0E528" d="M259.764,6.953c0.205,0.631,0.398,1.205,0.576,1.784c0.055,0.179,0.131,0.255,0.336,0.249
								c0.624-0.018,1.248-0.006,1.887-0.006c-0.021,0.108-0.115,0.137-0.177,0.185c-0.445,0.338-0.89,0.677-1.344,1.002
								c-0.14,0.1-0.178,0.182-0.112,0.353c0.196,0.512,0.37,1.033,0.55,1.551c0.026,0.074,0.043,0.15,0.075,0.267
								c-0.559-0.409-1.084-0.788-1.601-1.177c-0.126-0.095-0.211-0.09-0.334,0.004c-0.512,0.392-1.033,0.774-1.602,1.197
								c0.212-0.631,0.397-1.205,0.6-1.772c0.072-0.203,0.055-0.325-0.141-0.459c-0.514-0.351-1.008-0.731-1.509-1.1
								c0.033-0.09,0.1-0.049,0.146-0.05c0.592-0.003,1.184-0.009,1.775,0.002c0.16,0.003,0.224-0.055,0.27-0.2
								C259.347,8.192,259.547,7.604,259.764,6.953z"/>
							<path fill="#5E121B" d="M270.831,6.34c0.003,1.107,0.008,2.214,0.008,3.321c0,1.099-0.004,2.198-0.007,3.297
								c-0.008,0.026-0.021,0.027-0.038,0.008l-0.013-0.015c0.003-1.101,0.01-2.201,0.009-3.302c0-1.109-0.007-2.217-0.01-3.326
								l0.01-0.005C270.81,6.313,270.824,6.32,270.831,6.34z"/>
							<path fill="#030303" d="M270.831,6.34c-0.015-0.005-0.029-0.012-0.041-0.021c-0.001-0.484-0.002-0.967-0.003-1.451
								c0.009-0.009,0.014-0.02,0.017-0.032c0.009,0.002,0.019,0.003,0.028,0.001C270.831,5.338,270.831,5.839,270.831,6.34z"/>
							<path fill="#134F26" d="M270.831,14.418c0.003,0.812,0.006,1.624,0.008,2.436c0,0.036,0.013,0.084-0.048,0.09
								c0.004-0.842,0.008-1.683,0.012-2.525C270.813,14.419,270.822,14.418,270.831,14.418z"/>
							<path fill="#010303" d="M270.831,14.418l-0.014-0.001l-0.014,0.002c-0.002-0.012-0.008-0.023-0.017-0.032
								c0.003-0.473,0.005-0.947,0.008-1.42c0.013-0.003,0.025-0.006,0.038-0.008C270.832,13.445,270.832,13.931,270.831,14.418z"/>
						</g>
					</g>
				</g>
			</g>
		</g>
	</g>
</g>
<circle fill="none" stroke="#575756" stroke-miterlimit="10" cx="259.817" cy="9.771" r="7.049"/>
<g>
	<path fill="#575756" d="M539.492,7.436c-0.312-0.364-0.855-0.624-1.371-0.624c-1.087,0-1.97,0.767-2.037,3.055
		c0.502-0.61,1.249-0.975,1.874-0.975c1.494,0,2.525,0.832,2.525,2.561c0,1.651-1.235,2.718-2.716,2.718
		c-1.697,0-3.137-1.262-3.137-4.043c0-3.212,1.63-4.537,3.395-4.537c1.046,0,1.793,0.416,2.309,0.936L539.492,7.436z
		 M539.031,11.453c0-0.975-0.503-1.469-1.358-1.469c-0.489,0-1.06,0.26-1.548,0.949c0.162,1.469,0.773,2.093,1.615,2.093
		C538.46,13.026,539.031,12.468,539.031,11.453z"/>
	<path fill="#575756" d="M541.3,15.561c0.869-0.325,1.371-0.91,1.371-1.573c-0.041,0-0.081,0-0.122,0
		c-0.529,0-1.005-0.338-1.005-0.923c0-0.559,0.476-0.923,1.046-0.923c0.733,0,1.168,0.572,1.168,1.534
		c0,1.273-0.774,2.262-2.119,2.704L541.3,15.561z"/>
	<path fill="#575756" d="M544.574,13.143c2.404-2.223,3.911-3.679,3.911-4.94c0-0.871-0.502-1.43-1.426-1.43
		c-0.665,0-1.222,0.429-1.684,0.923l-0.869-0.832c0.787-0.806,1.575-1.273,2.757-1.273c1.656,0,2.729,1.001,2.729,2.534
		c0,1.47-1.426,2.978-3.137,4.707c0.448-0.039,1.019-0.092,1.439-0.092h2.118v1.274h-5.84v-0.871H544.574z"/>
	<path fill="#575756" d="M551.203,13.143c2.404-2.223,3.911-3.679,3.911-4.94c0-0.871-0.502-1.43-1.426-1.43
		c-0.665,0-1.222,0.429-1.684,0.923l-0.869-0.832c0.787-0.806,1.575-1.273,2.757-1.273c1.656,0,2.729,1.001,2.729,2.534
		c0,1.47-1.426,2.978-3.137,4.707c0.448-0.039,1.019-0.092,1.439-0.092h2.118v1.274h-5.84v-0.871H551.203z"/>
</g>
</svg>
