<?xml version="1.0" encoding="utf-8"?>
<!-- Generator: Adobe Illustrator 17.0.0, SVG Export Plug-In . SVG Version: 6.00 Build 0)  -->
<!DOCTYPE svg PUBLIC "-//W3C//DTD SVG 1.1//EN" "http://www.w3.org/Graphics/SVG/1.1/DTD/svg11.dtd">
<svg version="1.1" id="Layer_1" xmlns="http://www.w3.org/2000/svg" xmlns:xlink="http://www.w3.org/1999/xlink" x="0px" y="0px"
	 width="600px" height="19.542px" viewBox="0 0 600 19.542" enable-background="new 0 0 600 19.542" xml:space="preserve">
<rect x="121.463" y="2.722" fill="#91CFDB" width="70.665" height="14.097"/>
<circle fill="#91CFDB" cx="451.452" cy="9.771" r="2.542"/>
<rect x="0" y="0" fill="none" width="600" height="19.542"/>
<line fill="none" stroke="#9F9F9F" stroke-width="0.7" stroke-miterlimit="10" stroke-dasharray="6,3" x1="199.426" y1="0.005" x2="199.426" y2="18.989"/>
<line fill="none" stroke="#9F9F9F" stroke-width="0.7" stroke-miterlimit="10" stroke-dasharray="6,3" x1="440.97" y1="0.005" x2="440.97" y2="18.989"/>
<g>
	<g>
		<g>
			<g>
				<defs>
					<circle id="SVGID_1_" cx="259.927" cy="9.771" r="7.049"/>
				</defs>
				<clipPath id="SVGID_2_">
					<use xlink:href="#SVGID_1_"  overflow="visible"/>
				</clipPath>
				<g id="hHzOPX_1_" clip-path="url(#SVGID_2_)">
					<g>
						<g>
							<path fill="#3C5BA4" d="M251.502,2.562c9.628,0,19.256,0,28.883,0c0.072,0.078,0.067,0.176,0.067,0.272
								c0.001,0.774,0.002,1.548,0,2.322c0,0.087,0.004,0.177-0.054,0.252c-0.144,0.099-0.309,0.067-0.467,0.067
								c-3.772,0.002-7.544,0.001-11.315,0.001c-4.108,0-8.216,0-12.324,0c-0.152,0-0.304-0.002-0.455-0.013
								c-0.142-0.004-0.256-0.079-0.369-0.155c-1.261-0.842-2.523-1.681-3.783-2.525C251.603,2.731,251.487,2.697,251.502,2.562z"/>
							<path fill="#BF192A" d="M251.502,2.562c0.01,0.055,0.061,0.069,0.099,0.095c1.348,0.899,2.696,1.797,4.044,2.695
								c0.033,0.022,0.069,0.038,0.104,0.057c0.126,0.032,0.232,0.1,0.339,0.171c1.361,0.905,2.716,1.82,4.082,2.718
								c0.587,0.402,1.184,0.79,1.775,1.187c0.06,0.04,0.122,0.077,0.178,0.121c0.161,0.126,0.164,0.193,0.001,0.312
								c-0.194,0.141-0.398,0.268-0.597,0.402c-0.466,0.311-0.931,0.621-1.397,0.932c-1.446,0.957-2.885,1.926-4.33,2.887
								c-1.346,0.893-2.689,1.792-4.033,2.688c-0.073,0.049-0.144,0.101-0.224,0.14c-0.096,0.046-0.171,0.038-0.197-0.084
								c-0.014-0.104-0.01-0.208-0.01-0.312c0-4.53-0.001-9.06,0.001-13.59c0-0.141-0.036-0.291,0.067-0.416
								C251.438,2.562,251.47,2.562,251.502,2.562z"/>
							<path fill="#FDFCFD" d="M280.433,2.562c0.03,0.017,0.083-0.034,0.094,0.024c0.01,0.054,0.002,0.112,0.002,0.168
								c0,4.726-0.001,9.452,0.005,14.177c0,0.165-0.032,0.197-0.197,0.197c-9.628-0.005-19.256-0.005-28.883,0
								c-0.165,0-0.197-0.032-0.197-0.197c0.006-4.726,0.004-9.452,0.01-14.177c0-0.06-0.099-0.207,0.091-0.192
								c0.046,0.091,0.022,0.189,0.022,0.283c0.001,4.618,0.001,9.236,0.001,13.854c0,0.088-0.004,0.176,0.003,0.264
								c0.02,0.026,0.046,0.04,0.079,0.043c9.513,0.002,19.026,0,28.539,0c0.109,0,0.227,0.026,0.317-0.068
								c0.064-0.085,0.045-0.184,0.045-0.279c0.001-0.855,0.001-1.711,0-2.566c0.002-0.96,0.001-1.919,0-2.879
								c0.002-0.962,0.001-1.924,0-2.887c0-0.04,0.001-0.08,0-0.12c-0.03-1.828,0.075-3.655,0.046-5.483
								C280.409,2.67,280.399,2.613,280.433,2.562z"/>
							<path fill="#010203" d="M251.407,17.033c-0.098-0.072-0.047-0.176-0.047-0.262c-0.003-4.736-0.003-9.472-0.003-14.209
								c0.016,0,0.032,0,0.048,0c0.003,0.104,0.009,0.208,0.009,0.312c0,4.596,0,9.191,0.001,13.787
								c0,0.104,0.006,0.208,0.009,0.312C251.429,16.995,251.424,17.016,251.407,17.033z"/>
							<path fill="#010203" d="M280.433,2.562c-0.001,1.92-0.002,3.84-0.002,5.76c-0.015,0.005-0.03,0.01-0.044,0.014
								c-0.024-0.021-0.041-0.046-0.052-0.076c-0.05-0.254-0.022-0.51-0.024-0.765c-0.004-0.584-0.003-1.168-0.001-1.752
								c0-0.119-0.014-0.242,0.068-0.345c0.003-0.945,0.005-1.89,0.008-2.836C280.401,2.562,280.417,2.562,280.433,2.562z"/>
							<path fill="#FFFFFF" d="M280.377,5.398c0.001,0.97,0.002,1.94,0.002,2.909c-0.051,0.095-0.144,0.089-0.23,0.097
								c-0.088,0.008-0.176,0.004-0.264,0.004c-6.406,0-12.812,0-19.218,0.001c-0.185,0-0.369,0.003-0.54-0.084
								c-0.579-0.381-1.16-0.76-1.737-1.145c-0.882-0.588-1.761-1.181-2.641-1.771c0.08-0.004,0.16-0.011,0.239-0.011
								C264.118,5.398,272.248,5.398,280.377,5.398z"/>
							<path fill="#3C5BA4" d="M251.407,17.033c0.006-0.02,0.011-0.04,0.017-0.061c1.351-0.898,2.703-1.796,4.055-2.693
								c0.099-0.066,0.203-0.125,0.305-0.188c0.151-0.063,0.308-0.076,0.47-0.076c7.903,0.001,15.806,0.001,23.709,0.002
								c0.142,0,0.29-0.026,0.418,0.068c0.038,0.049,0.027,0.106,0.027,0.161c0.001,0.882,0,1.764,0,2.646
								c0,0.047,0.006,0.096-0.019,0.14c-0.085,0.034-0.174,0.017-0.261,0.017c-9.488,0.001-18.975,0.001-28.463,0
								c-0.087,0-0.176,0.018-0.261-0.019L251.407,17.033z"/>
							<path fill="#FFFFFF" d="M280.372,14.107c-4.611-0.001-9.221-0.002-13.832-0.002c-3.482,0-6.964,0-10.446-0.001
								c-0.104,0-0.208-0.008-0.311-0.012c1.167-0.783,2.334-1.567,3.503-2.349c0.272-0.182,0.549-0.357,0.823-0.535
								c0.151-0.061,0.308-0.075,0.47-0.075c6.466,0.001,12.931,0.001,19.397,0.002c0.12,0,0.241-0.011,0.357,0.031
								c0.029,0.013,0.052,0.034,0.069,0.061c0.013,0.934,0.003,1.867,0.005,2.801C280.411,14.061,280.399,14.087,280.372,14.107z"
								/>
							<path fill="#3C5BA4" d="M280.372,11.21c-5.442,0.001-10.884,0.002-16.325,0.002c-1.312,0-2.625-0.003-3.937-0.005
								c0.704-0.478,1.409-0.956,2.131-1.446c-0.718-0.488-1.416-0.962-2.114-1.436c0.112-0.005,0.223-0.015,0.335-0.015
								c6.639-0.001,13.279-0.002,19.918-0.003c0.01,0,0.016,0.005,0.018,0.015c0.024,0.935,0.004,1.87,0.01,2.805
								C280.408,11.161,280.399,11.189,280.372,11.21z"/>
							<path fill="#FFFFFF" d="M256.45,11.172c-0.312-0.218-0.634-0.423-0.934-0.658c-0.183-0.143-0.31-0.166-0.501-0.003
								c-0.282,0.241-0.598,0.443-0.899,0.661c-0.018,0.003-0.036,0.007-0.053,0.014c-0.006-0.007-0.013-0.013-0.019-0.02
								c0.12-0.364,0.222-0.735,0.368-1.089c0.093-0.225,0.033-0.336-0.156-0.46c-0.338-0.222-0.658-0.47-1.047-0.751
								c0.509,0,0.945-0.005,1.38,0.003c0.141,0.003,0.211-0.032,0.253-0.18c0.116-0.404,0.253-0.802,0.403-1.27
								c0.132,0.413,0.264,0.762,0.352,1.121c0.064,0.266,0.184,0.354,0.459,0.333c0.386-0.029,0.775-0.007,1.237-0.007
								c-0.401,0.299-0.741,0.559-1.089,0.807c-0.123,0.088-0.159,0.162-0.101,0.315c0.142,0.372,0.259,0.753,0.387,1.13
								c-0.007,0.014-0.013,0.029-0.018,0.044L256.45,11.172z"/>
							<path fill="#DA6F85" d="M254.053,11.215c-0.011,0.009-0.021,0.019-0.032,0.028c-0.026-0.035-0.009-0.058,0.022-0.077
								l0.009-0.009l0.011,0.006C254.068,11.181,254.064,11.199,254.053,11.215z"/>
							<path fill="#E9AFBB" d="M256.5,11.161c0.007,0.012,0.02,0.034,0.02,0.035c-0.032,0.021-0.058,0.017-0.07-0.024
								c-0.006-0.009-0.004-0.017,0.003-0.024C256.471,11.145,256.486,11.149,256.5,11.161z"/>
							<path fill="#FFFFFF" d="M256.5,11.161c-0.016-0.004-0.031-0.009-0.047-0.013c0.009-0.014,0.021-0.024,0.036-0.03
								C256.501,11.13,256.504,11.144,256.5,11.161z"/>
							<path fill="#FFFFFF" d="M254.053,11.215c0.004-0.018,0.007-0.035,0.011-0.053c0.017,0.003,0.035,0.006,0.052,0.01
								C254.095,11.186,254.074,11.201,254.053,11.215z"/>
							<path fill="#808081" d="M251.404,17.031c0.104-0.001,0.208-0.003,0.312-0.003c9.444,0,18.888,0,28.333,0
								c0.112,0,0.224-0.004,0.336-0.007c0.017-0.016,0.033-0.015,0.048,0.003c-0.053,0.095-0.143,0.049-0.214,0.049
								c-9.531,0.002-19.063,0.002-28.594,0C251.551,17.073,251.463,17.115,251.404,17.031z"/>
							<path fill="#2D437A" d="M280.433,17.024c-0.016-0.001-0.032-0.002-0.048-0.003c-0.004-0.971-0.008-1.943-0.012-2.914
								l0.014-0.013c0.021-0.017,0.037-0.014,0.046,0.013C280.432,15.079,280.432,16.052,280.433,17.024z"/>
							<path fill="#2D437A" d="M280.372,11.21c0.004-0.796,0.008-1.592,0.013-2.388c0.001-0.167,0.008-0.334,0.012-0.501
								c0.011-0.005,0.022-0.005,0.033,0c0.022,0.963,0.022,1.926,0,2.888c-0.01,0.02-0.025,0.024-0.044,0.012L280.372,11.21z"/>
							<path fill="#010204" d="M280.387,11.222c0.014-0.006,0.029-0.01,0.044-0.012c0,0.965,0.001,1.931,0.001,2.896
								c-0.015-0.004-0.031-0.009-0.046-0.013C280.386,13.136,280.387,12.179,280.387,11.222z"/>
						</g>
					</g>
				</g>
			</g>
		</g>
	</g>
</g>
<path fill="#010201" d="M283.596,5.353c1.06,0,1.901,0.494,2.431,1.054l-0.638,0.688c-0.476-0.48-1.046-0.793-1.779-0.793
	c-1.697,0-2.825,1.326-2.825,3.445c0,2.145,1.073,3.497,2.771,3.497c0.842,0,1.467-0.338,2.037-0.949l0.639,0.663
	c-0.692,0.78-1.575,1.235-2.703,1.235c-2.24,0-3.911-1.639-3.911-4.42C279.617,7.031,281.315,5.353,283.596,5.353z"/>
<path fill="#010201" d="M287.455,7.719h1.127v3.861c0,1.183,0.367,1.69,1.236,1.69c0.679,0,1.154-0.325,1.778-1.066V7.719h1.114
	v6.318h-0.924l-0.095-0.988h-0.041c-0.611,0.689-1.263,1.145-2.173,1.145c-1.398,0-2.023-0.858-2.023-2.471L287.455,7.719
	L287.455,7.719z"/>
<path fill="#010201" d="M294.872,4.782h1.114v2.521l-0.027,1.145c0.598-0.508,1.331-0.885,2.064-0.885
	c1.711,0,2.62,1.262,2.62,3.212c0,2.157-1.344,3.419-2.852,3.419c-0.611,0-1.304-0.286-1.888-0.78h-0.041l-0.095,0.624h-0.896
	L294.872,4.782L294.872,4.782z M297.602,13.296c1.087,0,1.888-0.949,1.888-2.509c0-1.392-0.488-2.327-1.738-2.327
	c-0.557,0-1.141,0.299-1.765,0.858v3.314C296.571,13.115,297.167,13.296,297.602,13.296z"/>
<path fill="#010201" d="M305.889,10.034c0-0.807-0.285-1.586-1.358-1.586c-0.774,0-1.453,0.338-1.97,0.676l-0.447-0.741
	c0.61-0.377,1.534-0.819,2.594-0.819c1.616,0,2.295,1.027,2.295,2.601v3.874h-0.924l-0.095-0.754h-0.027
	c-0.639,0.494-1.371,0.91-2.187,0.91c-1.113,0-1.941-0.663-1.941-1.794C301.828,11.022,303.078,10.332,305.889,10.034z
	 M304.082,13.335c0.639,0,1.168-0.299,1.807-0.845v-1.755c-2.214,0.26-2.961,0.779-2.961,1.586
	C302.928,13.036,303.43,13.335,304.082,13.335z"/>
<circle fill="none" stroke="#010201" stroke-miterlimit="10" cx="259.927" cy="9.771" r="7.049"/>
</svg>
