<?xml version="1.0" encoding="utf-8"?>
<!-- Generator: Adobe Illustrator 17.0.0, SVG Export Plug-In . SVG Version: 6.00 Build 0)  -->
<!DOCTYPE svg PUBLIC "-//W3C//DTD SVG 1.1//EN" "http://www.w3.org/Graphics/SVG/1.1/DTD/svg11.dtd">
<svg version="1.1" id="Layer_1" xmlns="http://www.w3.org/2000/svg" xmlns:xlink="http://www.w3.org/1999/xlink" x="0px" y="0px"
	 width="600px" height="19.542px" viewBox="0 0 600 19.542" enable-background="new 0 0 600 19.542" xml:space="preserve">
<rect x="0" y="0" fill="#91CFDB" width="600" height="19.542"/>
<line fill="none" stroke="#9F9F9F" stroke-width="0.7" stroke-miterlimit="10" stroke-dasharray="6,3" x1="199.426" y1="0.005" x2="199.426" y2="18.989"/>
<line fill="none" stroke="#9F9F9F" stroke-width="0.7" stroke-miterlimit="10" stroke-dasharray="6,3" x1="440.97" y1="0.005" x2="440.97" y2="18.989"/>
<circle fill="#575756" cx="454.981" cy="9.771" r="2.542"/>
<path fill="#575756" d="M67.679,7.523c-0.503-0.441-0.924-0.688-1.575-0.688c-0.733,0-1.182,0.364-1.182,1.04
	c0,1.56,3.694,1.248,3.694,3.874c0,1.235-0.761,2.146-2.105,2.379v1.339h-1.086v-1.3c-0.829-0.078-1.738-0.442-2.35-0.988
	l0.706-1.014c0.638,0.481,1.276,0.806,2.01,0.806c0.883,0,1.317-0.416,1.317-1.117c0-1.717-3.694-1.47-3.694-3.914
	c0-1.209,0.788-2.066,2.011-2.274V4.339h1.086v1.3c0.869,0.104,1.467,0.507,1.969,1.014L67.679,7.523z"/>
<path fill="#575756" d="M72.543,12.815h1.929V7.381h-1.589V6.445c0.855-0.156,1.453-0.364,1.996-0.677h1.168v7.047h1.697v1.222
	h-5.201V12.815z"/>
<path fill="#575756" d="M80.286,9.799V9.747c-0.665-0.455-1.194-1.066-1.194-1.937c0-1.339,1.113-2.196,2.607-2.196
	c1.548,0,2.539,0.896,2.539,2.235c0,0.819-0.598,1.509-1.154,1.898v0.052c0.802,0.429,1.494,1.04,1.494,2.146
	c0,1.273-1.168,2.249-2.92,2.249c-1.684,0-2.934-0.937-2.934-2.275C78.725,10.891,79.472,10.215,80.286,9.799z M81.686,13.127
	c0.828,0,1.426-0.468,1.426-1.235c0-0.896-0.91-1.222-2.078-1.677c-0.543,0.377-0.937,0.91-0.937,1.547
	C80.097,12.581,80.803,13.127,81.686,13.127z M82.948,7.939c0-0.728-0.476-1.261-1.276-1.261c-0.666,0-1.182,0.416-1.182,1.131
	c0,0.832,0.774,1.196,1.738,1.561C82.691,8.928,82.948,8.46,82.948,7.939z"/>
<path fill="#575756" d="M85.87,12.061c0.516,0.508,1.181,0.91,2.05,0.91c0.938,0,1.589-0.468,1.589-1.248
	c0-0.857-0.57-1.403-2.539-1.403V9.227c1.697,0,2.254-0.559,2.254-1.326c0-0.688-0.488-1.104-1.276-1.104
	c-0.679,0-1.208,0.312-1.738,0.78l-0.801-0.924c0.733-0.623,1.562-1.039,2.594-1.039c1.656,0,2.798,0.779,2.798,2.184
	c0,0.923-0.57,1.547-1.508,1.898v0.052c1.019,0.26,1.793,0.962,1.793,2.054c0,1.508-1.372,2.393-3.029,2.393
	c-1.398,0-2.321-0.521-2.933-1.17L85.87,12.061z"/>
<path fill="#575756" d="M92.431,12.815h1.929V7.381h-1.589V6.445c0.855-0.156,1.453-0.364,1.996-0.677h1.168v7.047h1.697v1.222
	h-5.201V12.815z"/>
<path fill="#575756" d="M99.129,12.061c0.516,0.508,1.181,0.91,2.05,0.91c0.938,0,1.589-0.468,1.589-1.248
	c0-0.857-0.57-1.403-2.539-1.403V9.227c1.697,0,2.254-0.559,2.254-1.326c0-0.688-0.488-1.104-1.276-1.104
	c-0.679,0-1.208,0.312-1.738,0.78l-0.801-0.924c0.733-0.623,1.562-1.039,2.594-1.039c1.656,0,2.798,0.779,2.798,2.184
	c0,0.923-0.571,1.547-1.508,1.898v0.052c1.019,0.26,1.793,0.962,1.793,2.054c0,1.508-1.372,2.393-3.028,2.393
	c-1.399,0-2.322-0.521-2.934-1.17L99.129,12.061z"/>
<path fill="#575756" d="M105.323,15.584c0.869-0.325,1.371-0.91,1.371-1.573c-0.041,0-0.081,0-0.122,0
	c-0.529,0-1.005-0.338-1.005-0.923c0-0.559,0.476-0.923,1.046-0.923c0.733,0,1.168,0.572,1.168,1.534
	c0,1.273-0.774,2.262-2.119,2.704L105.323,15.584z"/>
<path fill="#575756" d="M114.694,11.905h-1.086v2.132h-1.467v-2.132h-3.816V10.89l3.423-5.122h1.86v4.979h1.086
	C114.694,10.747,114.694,11.905,114.694,11.905z M112.142,10.748V8.876c0-0.481,0.041-1.235,0.068-1.716h-0.055
	c-0.218,0.429-0.462,0.845-0.706,1.287l-1.575,2.301C109.874,10.748,112.142,10.748,112.142,10.748z"/>
<path fill="#575756" d="M115.253,9.864c0-2.796,1.141-4.251,2.934-4.251s2.934,1.469,2.934,4.251c0,2.795-1.141,4.329-2.934,4.329
	S115.253,12.659,115.253,9.864z M119.626,9.864c0-2.341-0.598-3.081-1.439-3.081c-0.828,0-1.439,0.74-1.439,3.081
	c0,2.34,0.611,3.159,1.439,3.159C119.028,13.023,119.626,12.204,119.626,9.864z"/>
<path fill="#575756" d="M126.337,14.557v2.003h-1.562V7.654h1.29l0.109,0.676h0.054c0.557-0.455,1.276-0.832,2.01-0.832
	c1.657,0,2.621,1.273,2.621,3.25c0,2.184-1.371,3.445-2.852,3.445c-0.584,0-1.168-0.26-1.711-0.702L126.337,14.557z M127.682,12.958
	c0.883,0,1.562-0.754,1.562-2.197c0-1.273-0.435-2.028-1.439-2.028c-0.488,0-0.95,0.234-1.467,0.716v2.977
	C126.826,12.815,127.288,12.958,127.682,12.958z"/>
<path fill="#575756" d="M134.434,4.807h1.06l-3.164,11.311h-1.06L134.434,4.807z"/>
<path fill="#575756" d="M139.012,7.498c0.855,0,1.508,0.325,1.956,0.741l-0.747,0.948c-0.354-0.299-0.706-0.468-1.127-0.468
	c-1.073,0-1.82,0.845-1.82,2.132c0,1.274,0.733,2.119,1.779,2.119c0.543,0,1.005-0.26,1.371-0.546l0.652,0.949
	c-0.625,0.533-1.426,0.819-2.187,0.819c-1.82,0-3.219-1.223-3.219-3.342C135.671,8.72,137.233,7.498,139.012,7.498z"/>
<circle fill="none" stroke="#FFFCEE" stroke-miterlimit="10" cx="259.817" cy="9.771" r="7.049"/>
<path fill="#575756" d="M283.677,5.405c1.1,0,2.023,0.52,2.621,1.105l-1.101,1.184c-0.448-0.391-0.869-0.639-1.494-0.639
	c-1.235,0-2.199,1.027-2.199,2.73c0,1.742,0.855,2.756,2.146,2.756c0.733,0,1.249-0.299,1.684-0.754l1.101,1.158
	c-0.733,0.818-1.712,1.248-2.812,1.248c-2.295,0-4.169-1.496-4.169-4.344C279.453,7.044,281.395,5.405,283.677,5.405z"/>
<path fill="#575756" d="M287.332,7.589h1.997v3.758c0,0.924,0.258,1.223,0.842,1.223c0.502,0,0.801-0.209,1.195-0.715V7.589h1.996
	v6.449h-1.63l-0.149-0.898h-0.041c-0.57,0.65-1.194,1.055-2.118,1.055c-1.467,0-2.092-0.988-2.092-2.602L287.332,7.589
	L287.332,7.589z"/>
<path fill="#575756" d="M295.048,4.925h1.996v2.236l-0.054,0.986c0.516-0.441,1.154-0.715,1.778-0.715
	c1.63,0,2.648,1.287,2.648,3.264c0,2.223-1.386,3.498-2.838,3.498c-0.598,0-1.223-0.287-1.752-0.832h-0.055l-0.163,0.676h-1.562
	V4.925H295.048z M298.117,12.634c0.692,0,1.249-0.572,1.249-1.898c0-1.156-0.366-1.742-1.168-1.742
	c-0.407,0-0.774,0.182-1.154,0.586v2.639C297.398,12.53,297.777,12.634,298.117,12.634z"/>
<path fill="#575756" d="M306.159,9.89c-0.04-0.57-0.339-0.936-1.059-0.936c-0.57,0-1.141,0.221-1.793,0.586l-0.706-1.262
	c0.855-0.494,1.819-0.846,2.879-0.846c1.725,0,2.676,0.937,2.676,2.912v3.693h-1.63l-0.149-0.664h-0.041
	c-0.57,0.482-1.208,0.82-1.969,0.82c-1.223,0-1.996-0.859-1.996-1.951C302.371,10.892,303.498,10.151,306.159,9.89z M305.046,12.712
	c0.462,0,0.761-0.209,1.113-0.547v-1.131c-1.426,0.182-1.888,0.572-1.888,1.066C304.272,12.517,304.57,12.712,305.046,12.712z"/>
<path fill="#91CFDB" d="M229.135,7.759c-0.299-0.312-0.842-0.586-1.345-0.586c-0.95,0-1.711,0.65-1.778,2.574
	c0.447-0.545,1.194-0.871,1.725-0.871c1.479,0,2.566,0.807,2.566,2.549c0,1.715-1.304,2.77-2.865,2.77
	c-1.671,0-3.26-1.197-3.26-4.096c0-3.082,1.671-4.473,3.49-4.473c1.141,0,1.969,0.455,2.513,0.988L229.135,7.759z M228.483,11.425
	c0-0.871-0.475-1.197-1.127-1.197c-0.435,0-0.91,0.223-1.304,0.82c0.177,1.299,0.747,1.715,1.345,1.715
	S228.483,12.36,228.483,11.425z"/>
<g>
	<g>
		<g>
			<g>
				<g>
					<defs>
						<circle id="SVGID_1_" cx="259.817" cy="9.771" r="7.049"/>
					</defs>
					<clipPath id="SVGID_2_">
						<use xlink:href="#SVGID_1_"  overflow="visible"/>
					</clipPath>
					<g clip-path="url(#SVGID_2_)">
						<g>
							<path fill="#3C5BA4" d="M251.392,2.562c9.628,0,19.256,0,28.883,0c0.072,0.078,0.067,0.176,0.067,0.272
								c0.001,0.774,0.002,1.548,0,2.322c0,0.087,0.004,0.177-0.055,0.252c-0.144,0.099-0.309,0.067-0.467,0.067
								c-3.772,0.002-7.544,0.001-11.315,0.001c-4.108,0-8.216,0-12.324,0c-0.152,0-0.304-0.002-0.455-0.013
								c-0.142-0.004-0.256-0.079-0.369-0.155c-1.261-0.842-2.523-1.681-3.783-2.525C251.493,2.731,251.377,2.697,251.392,2.562z"/>
							<path fill="#BF192A" d="M251.392,2.562c0.01,0.055,0.061,0.069,0.099,0.095c1.348,0.899,2.696,1.797,4.044,2.695
								c0.033,0.022,0.069,0.038,0.104,0.057c0.126,0.032,0.232,0.1,0.339,0.171c1.361,0.905,2.716,1.82,4.082,2.718
								c0.587,0.402,1.184,0.79,1.775,1.187c0.06,0.04,0.122,0.077,0.178,0.121c0.161,0.126,0.164,0.193,0.001,0.312
								c-0.194,0.141-0.398,0.268-0.597,0.402c-0.466,0.311-0.931,0.621-1.397,0.932c-1.447,0.957-2.885,1.926-4.33,2.887
								c-1.346,0.893-2.689,1.792-4.033,2.688c-0.073,0.049-0.144,0.101-0.224,0.14c-0.096,0.046-0.171,0.038-0.197-0.084
								c-0.014-0.104-0.01-0.208-0.01-0.312c0-4.53-0.001-9.06,0.001-13.59c0-0.141-0.036-0.291,0.067-0.416
								C251.328,2.562,251.36,2.562,251.392,2.562z"/>
							<path fill="#FDFCFD" d="M280.323,2.562c0.03,0.017,0.083-0.034,0.094,0.024c0.01,0.054,0.002,0.112,0.002,0.168
								c0,4.726-0.001,9.452,0.005,14.177c0,0.165-0.032,0.197-0.197,0.197c-9.628-0.005-19.256-0.005-28.883,0
								c-0.165,0-0.197-0.032-0.197-0.197c0.006-4.726,0.004-9.452,0.01-14.177c0-0.06-0.099-0.207,0.091-0.192
								c0.046,0.091,0.022,0.189,0.022,0.283c0.001,4.618,0.001,9.236,0.001,13.854c0,0.088-0.004,0.176,0.003,0.264
								c0.02,0.026,0.046,0.04,0.079,0.043c9.513,0.002,19.026,0,28.539,0c0.109,0,0.227,0.026,0.317-0.068
								c0.064-0.085,0.045-0.184,0.045-0.279c0.001-0.855,0.001-1.711,0-2.566c0.002-0.96,0.001-1.919,0-2.879
								c0.002-0.962,0.001-1.924,0-2.887c0-0.04,0.001-0.08,0-0.12c-0.03-1.828,0.075-3.655,0.046-5.483
								C280.299,2.67,280.289,2.613,280.323,2.562z"/>
							<path fill="#010203" d="M251.297,17.033c-0.098-0.072-0.047-0.176-0.047-0.262c-0.003-4.736-0.003-9.472-0.003-14.209
								c0.016,0,0.032,0,0.048,0c0.003,0.104,0.009,0.208,0.009,0.312c0,4.596,0,9.191,0.001,13.787
								c0,0.104,0.006,0.208,0.009,0.312C251.319,16.995,251.314,17.016,251.297,17.033z"/>
							<path fill="#010203" d="M280.323,2.562c-0.001,1.92-0.002,3.84-0.002,5.76c-0.015,0.005-0.03,0.01-0.044,0.014
								c-0.024-0.021-0.041-0.046-0.052-0.076c-0.05-0.254-0.022-0.51-0.024-0.765c-0.004-0.584-0.003-1.168-0.001-1.752
								c0-0.119-0.014-0.242,0.068-0.345c0.003-0.945,0.005-1.89,0.008-2.836C280.291,2.562,280.307,2.562,280.323,2.562z"/>
							<path fill="#FFFFFF" d="M280.267,5.398c0.001,0.97,0.002,1.94,0.002,2.909c-0.051,0.095-0.144,0.089-0.23,0.097
								c-0.088,0.008-0.176,0.004-0.264,0.004c-6.406,0-12.812,0-19.218,0.001c-0.185,0-0.369,0.003-0.54-0.084
								c-0.579-0.381-1.16-0.76-1.737-1.145c-0.882-0.588-1.761-1.181-2.641-1.771c0.08-0.004,0.16-0.011,0.239-0.011
								C264.008,5.398,272.138,5.398,280.267,5.398z"/>
							<path fill="#3C5BA4" d="M251.297,17.033c0.006-0.02,0.011-0.04,0.017-0.061c1.351-0.898,2.703-1.796,4.055-2.693
								c0.099-0.066,0.203-0.125,0.305-0.188c0.151-0.063,0.308-0.076,0.47-0.076c7.903,0.001,15.806,0.001,23.709,0.002
								c0.142,0,0.29-0.026,0.418,0.068c0.038,0.049,0.027,0.106,0.027,0.161c0.001,0.882,0,1.764,0,2.646
								c0,0.047,0.006,0.096-0.019,0.14c-0.085,0.034-0.174,0.017-0.261,0.017c-9.488,0.001-18.975,0.001-28.463,0
								c-0.087,0-0.176,0.018-0.261-0.019L251.297,17.033z"/>
							<path fill="#FFFFFF" d="M280.262,14.107c-4.611-0.001-9.221-0.002-13.832-0.002c-3.482,0-6.964,0-10.446-0.001
								c-0.104,0-0.208-0.008-0.311-0.012c1.167-0.783,2.334-1.567,3.503-2.349c0.272-0.182,0.549-0.357,0.823-0.535
								c0.151-0.061,0.308-0.075,0.47-0.075c6.466,0.001,12.931,0.001,19.397,0.002c0.119,0,0.241-0.011,0.357,0.031
								c0.029,0.013,0.052,0.034,0.069,0.061c0.013,0.934,0.003,1.867,0.005,2.801C280.301,14.061,280.289,14.087,280.262,14.107z"
								/>
							<path fill="#3C5BA4" d="M280.262,11.21c-5.442,0.001-10.884,0.002-16.325,0.002c-1.312,0-2.625-0.003-3.937-0.005
								c0.704-0.478,1.409-0.956,2.131-1.446c-0.718-0.488-1.416-0.962-2.114-1.436c0.112-0.005,0.223-0.015,0.335-0.015
								c6.639-0.001,13.279-0.002,19.918-0.003c0.01,0,0.016,0.005,0.018,0.015c0.024,0.935,0.004,1.87,0.01,2.805
								C280.299,11.161,280.289,11.189,280.262,11.21z"/>
							<path fill="#FFFFFF" d="M256.34,11.172c-0.312-0.218-0.634-0.423-0.934-0.658c-0.183-0.143-0.31-0.166-0.501-0.003
								c-0.282,0.241-0.598,0.443-0.899,0.661c-0.018,0.003-0.036,0.007-0.053,0.014c-0.006-0.007-0.013-0.013-0.019-0.02
								c0.12-0.364,0.222-0.735,0.368-1.089c0.093-0.225,0.033-0.336-0.156-0.46c-0.338-0.222-0.658-0.47-1.047-0.751
								c0.509,0,0.945-0.005,1.38,0.003c0.141,0.003,0.211-0.032,0.253-0.18c0.116-0.404,0.253-0.802,0.403-1.27
								c0.132,0.413,0.264,0.762,0.352,1.121c0.064,0.266,0.184,0.354,0.459,0.333c0.386-0.029,0.775-0.007,1.237-0.007
								c-0.401,0.299-0.741,0.559-1.089,0.807c-0.123,0.088-0.159,0.162-0.101,0.315c0.142,0.372,0.259,0.753,0.387,1.13
								c-0.007,0.014-0.013,0.029-0.018,0.044C256.362,11.162,256.34,11.172,256.34,11.172z"/>
							<path fill="#DA6F85" d="M253.943,11.215c-0.011,0.009-0.021,0.019-0.032,0.028c-0.026-0.035-0.009-0.058,0.022-0.077
								l0.009-0.009l0.011,0.006C253.958,11.181,253.954,11.199,253.943,11.215z"/>
							<path fill="#E9AFBB" d="M256.39,11.16c0.007,0.012,0.02,0.034,0.02,0.035c-0.032,0.021-0.058,0.017-0.07-0.024
								c-0.006-0.009-0.004-0.017,0.003-0.024C256.361,11.145,256.376,11.149,256.39,11.16z"/>
							<path fill="#FFFFFF" d="M256.39,11.16c-0.016-0.004-0.031-0.009-0.047-0.013c0.009-0.014,0.021-0.024,0.036-0.03
								C256.391,11.13,256.394,11.144,256.39,11.16z"/>
							<path fill="#FFFFFF" d="M253.943,11.215c0.004-0.018,0.007-0.035,0.011-0.053c0.017,0.003,0.035,0.006,0.052,0.01
								C253.985,11.186,253.964,11.201,253.943,11.215z"/>
							<path fill="#808081" d="M251.294,17.031c0.104-0.001,0.208-0.003,0.312-0.003c9.444,0,18.888,0,28.333,0
								c0.112,0,0.224-0.004,0.336-0.007c0.017-0.016,0.033-0.015,0.048,0.003c-0.053,0.095-0.143,0.049-0.214,0.049
								c-9.531,0.002-19.063,0.002-28.594,0C251.441,17.073,251.353,17.115,251.294,17.031z"/>
							<path fill="#2D437A" d="M280.323,17.024c-0.016-0.001-0.032-0.002-0.048-0.003c-0.004-0.971-0.008-1.943-0.012-2.914
								l0.014-0.013c0.021-0.017,0.037-0.014,0.046,0.013C280.322,15.079,280.323,16.052,280.323,17.024z"/>
							<path fill="#2D437A" d="M280.262,11.21c0.004-0.796,0.008-1.592,0.013-2.388c0.001-0.167,0.008-0.334,0.012-0.501
								c0.011-0.005,0.022-0.005,0.033,0c0.022,0.963,0.022,1.926,0,2.888c-0.01,0.02-0.025,0.024-0.044,0.012L280.262,11.21z"/>
							<path fill="#010204" d="M280.277,11.222c0.014-0.006,0.029-0.01,0.044-0.012c0,0.965,0.001,1.931,0.001,2.896
								c-0.015-0.004-0.031-0.009-0.046-0.013C280.277,13.136,280.277,12.179,280.277,11.222z"/>
						</g>
					</g>
				</g>
			</g>
		</g>
	</g>
</g>
<circle fill="none" stroke="#575756" stroke-miterlimit="10" cx="259.817" cy="9.771" r="7.049"/>
<g>
	<path fill="#575756" d="M467.023,5.588h2.035l2.29,4.365l0.876,1.94h0.054c-0.095-0.93-0.257-2.169-0.257-3.207V5.588h1.887v8.785
		h-2.034l-2.29-4.379l-0.863-1.913h-0.053c0.094,0.97,0.256,2.142,0.256,3.18v3.112h-1.9V5.588z"/>
	<path fill="#575756" d="M476.963,12.042c0.687,0,1.199,0.539,1.199,1.253c0,0.701-0.513,1.24-1.199,1.24
		c-0.688,0-1.199-0.539-1.199-1.24C475.764,12.581,476.275,12.042,476.963,12.042z"/>
	<path fill="#575756" d="M484.142,12.284h-2.694l-0.539,2.089h-2.021l2.763-8.785h2.371l2.763,8.785h-2.103L484.142,12.284z
		 M483.738,10.735l-0.217-0.809c-0.242-0.876-0.471-1.913-0.713-2.83h-0.055c-0.202,0.93-0.444,1.954-0.688,2.83l-0.215,0.809
		H483.738z"/>
	<path fill="#575756" d="M488.692,12.042c0.687,0,1.198,0.539,1.198,1.253c0,0.701-0.512,1.24-1.198,1.24
		c-0.688,0-1.2-0.539-1.2-1.24C487.492,12.581,488.005,12.042,488.692,12.042z"/>
</g>
</svg>
