<?xml version="1.0" encoding="utf-8"?>
<!-- Generator: Adobe Illustrator 17.0.0, SVG Export Plug-In . SVG Version: 6.00 Build 0)  -->
<!DOCTYPE svg PUBLIC "-//W3C//DTD SVG 1.1//EN" "http://www.w3.org/Graphics/SVG/1.1/DTD/svg11.dtd">
<svg version="1.1" id="Layer_1" xmlns="http://www.w3.org/2000/svg" xmlns:xlink="http://www.w3.org/1999/xlink" x="0px" y="0px"
	 width="600px" height="19.542px" viewBox="0 0 600 19.542" enable-background="new 0 0 600 19.542" xml:space="preserve">
<rect x="170.703" y="2.722" fill="#91CFDB" width="21.425" height="14.097"/>
<circle fill="#E6E465" cx="451.452" cy="9.771" r="2.542"/>
<circle fill="#91CFDB" cx="451.452" cy="9.357" r="2.542"/>
<rect x="0" y="0" fill="none" width="600" height="19.542"/>
<line fill="none" stroke="#9F9F9F" stroke-width="0.7" stroke-miterlimit="10" stroke-dasharray="6,3" x1="199.426" y1="0.543" x2="199.426" y2="18.997"/>
<line fill="none" stroke="#9F9F9F" stroke-width="0.7" stroke-miterlimit="10" stroke-dasharray="6,3" x1="440.97" y1="0.543" x2="440.97" y2="18.997"/>
<g>
	<g>
		<g>
			<g>
				<defs>
					<circle id="SVGID_1_" cx="259.927" cy="9.771" r="7.049"/>
				</defs>
				<clipPath id="SVGID_2_">
					<use xlink:href="#SVGID_1_"  overflow="visible"/>
				</clipPath>
				<g id="cdAG1r_1_" clip-path="url(#SVGID_2_)">
					<g>
						<g>
							<path fill="#FFFFFF" d="M267.177,2.464c0.167-0.045,0.147,0.064,0.147,0.17c-0.001,2.293-0.001,4.585-0.001,6.878
								c0,2.495-0.002,4.99,0.005,7.485c0,0.166-0.033,0.199-0.199,0.199c-7.194-0.005-14.388-0.005-21.581-0.002
								c-0.131,0-0.2,0.006-0.2-0.172c0.007-4.796,0.005-9.592,0.01-14.388c0-0.05-0.077-0.143,0.044-0.17
								c0.02,0.024,0.036,0.049,0.048,0.077c0.047,0.257,0.02,0.517,0.021,0.776c-0.002,4.302,0,8.605,0,12.906
								c0.034,0.243-0.062,0.497,0.061,0.733c0.226,0.047,0.454,0.011,0.681,0.021c6.843,0.001,13.685,0,20.528,0
								c0.36,0,0.369-0.009,0.369-0.367c0-2.267,0.001-4.535-0.001-6.802c0.002-2.299,0-4.599,0.001-6.898
								c0-0.121-0.011-0.243,0.018-0.363C267.14,2.516,267.156,2.488,267.177,2.464z"/>
							<path fill="#C1C0C0" d="M267.177,2.464c-0.001,0.018-0.003,0.036-0.004,0.055c-0.13,0.098-0.281,0.061-0.423,0.061
								c-6.184,0.002-12.369,0.002-18.553,0.002c-0.575,0-1.149,0-1.724,0c-0.097,0-0.195-0.008-0.289,0.022
								c-0.18,0.041-0.363,0.016-0.545,0.032c-0.103,0.012-0.181-0.026-0.233-0.117c-0.001-0.018-0.003-0.037-0.004-0.055
								C252.66,2.464,259.919,2.464,267.177,2.464z"/>
							<path fill="#010202" d="M245.406,2.519c0.064,0.028,0.129,0.057,0.193,0.085c0.301,0.039,0.536,0.221,0.791,0.362
								c1.051,0.743,2.124,1.454,3.189,2.175c2.138,1.448,4.268,2.907,6.412,4.346c0.408,0.274,0.404,0.295,0.009,0.565
								c-2.322,1.581-4.646,3.157-6.972,4.732c-0.911,0.617-1.82,1.239-2.732,1.854c-0.222,0.138-0.449,0.265-0.695,0.355
								c-0.055,0.004-0.106,0.021-0.155,0.045c-0.092-0.252-0.029-0.51-0.035-0.766c0.015-0.018,0.03-0.036,0.045-0.054
								c0.086-0.075,0.185-0.131,0.279-0.193c3.045-2.029,6.089-4.059,9.133-6.088c0.081-0.054,0.157-0.114,0.251-0.155
								c-0.068-0.035-0.129-0.076-0.191-0.117c-3.125-2.084-6.249-4.168-9.375-6.25c-0.034-0.022-0.068-0.044-0.097-0.073
								c-0.015-0.018-0.03-0.036-0.045-0.054C245.409,3.031,245.407,2.775,245.406,2.519z"/>
							<path fill="#010203" d="M246.143,2.551c0.059-0.063,0.137-0.038,0.207-0.038c6.909-0.001,13.818-0.001,20.726-0.001
								c0.032,0,0.065,0.004,0.097,0.006c-0.002,2.428-0.004,4.857-0.006,7.285c-0.034-0.002-0.058-0.018-0.075-0.048
								c-0.014-0.029-0.023-0.059-0.029-0.09c-0.021-0.145-0.013-0.291-0.013-0.437c-0.001-2.041,0-4.082-0.001-6.124
								c0-0.089-0.001-0.178-0.004-0.267c-0.004-0.13-0.072-0.188-0.198-0.193c-0.113-0.005-0.227-0.004-0.34-0.004
								c-6.375,0-12.75,0-19.125,0c-0.356,0-0.713-0.005-1.069-0.013C246.248,2.624,246.186,2.61,246.143,2.551z"/>
							<path fill="#010202" d="M267.128,9.795c0.013,0.003,0.026,0.006,0.039,0.007c0.003,0.064,0.01,0.129,0.01,0.193
								c0.001,2.276-0.001,4.553,0.003,6.829c0,0.147-0.003,0.226-0.196,0.225c-6.918-0.006-13.836-0.005-20.754-0.005
								c-0.016,0-0.032-0.002-0.048-0.004c-0.015-0.033-0.006-0.058,0.025-0.076c0.042-0.024,0.088-0.032,0.135-0.034
								c2.542-0.029,5.085-0.01,7.627-0.012c4.178-0.004,8.356-0.001,12.534-0.001c0.594,0,0.547,0.034,0.547-0.559
								c0.002-2.04,0-4.081,0.001-6.121c0-0.136-0.019-0.276,0.044-0.407C267.106,9.819,267.117,9.807,267.128,9.795z"/>
							<path fill="#5E121B" d="M245.411,3.287c0.015,0,0.029,0.002,0.043,0.006c0.07,0.107,0.075,0.228,0.075,0.351
								c0,4.089,0,8.179,0,12.268c0,0.123-0.005,0.243-0.073,0.351c-0.015,0.005-0.03,0.007-0.045,0.008
								c-0.003-0.056-0.009-0.113-0.009-0.169c0-4.215,0-8.43,0-12.646C245.402,3.4,245.408,3.343,245.411,3.287z"/>
							<path fill="#7A7A7A" d="M246.182,17.001c-0.01,0.014-0.01,0.027,0,0.041c-0.245-0.001-0.491-0.003-0.736-0.004
								c0.032-0.034,0.058-0.076,0.112-0.08C245.765,16.977,245.983,16.844,246.182,17.001z"/>
							<path fill="#FFFFFF" d="M246.182,17.001c-0.207-0.031-0.422,0.051-0.624-0.044c0.239-0.119,0.478-0.238,0.717-0.358
								c0.541-0.304,1.144-0.451,1.724-0.651c2.105-0.725,4.209-1.456,6.315-2.179c2.703-0.929,5.403-1.868,8.105-2.799
								c1.095-0.377,2.191-0.75,3.281-1.139c0.037-0.013,0.078-0.018,0.12-0.062c-0.105-0.049-0.208-0.087-0.311-0.122
								c-2.063-0.698-4.119-1.419-6.178-2.128c-2.274-0.782-4.546-1.57-6.82-2.354c-1.768-0.61-3.533-1.228-5.304-1.832
								c-0.291-0.099-0.579-0.207-0.858-0.337c-0.25-0.131-0.5-0.262-0.749-0.393c0.174-0.099,0.366-0.009,0.545-0.052
								c0.043,0.005,0.085,0.011,0.128,0.016c0.436,0.063,0.838,0.237,1.251,0.377c1.08,0.368,2.158,0.746,3.238,1.113
								c2.437,0.829,4.869,1.674,7.305,2.506c2.107,0.719,4.21,1.448,6.316,2.17c0.835,0.286,1.671,0.569,2.502,0.865
								c0.089,0.032,0.193,0.046,0.233,0.154c0.003,0.014,0.007,0.029,0.011,0.043h-0.013c-0.054,0.081-0.143,0.102-0.227,0.131
								c-1.453,0.505-2.909,1.003-4.363,1.504c-2.893,0.997-5.786,1.996-8.68,2.993c-1.845,0.635-3.689,1.273-5.533,1.91
								c-0.559,0.193-1.122,0.374-1.676,0.577c-0.115,0.042-0.236,0.053-0.356,0.069C246.247,16.987,246.214,16.994,246.182,17.001z
								"/>
							<path fill="#EFE528" d="M246.348,2.997c0.514,0.11,0.997,0.318,1.491,0.489c6.003,2.071,12.004,4.146,18.005,6.221
								c0.052,0.018,0.101,0.042,0.185,0.078c-0.856,0.296-1.679,0.581-2.502,0.866c-4.599,1.589-9.198,3.178-13.797,4.766
								c-1.151,0.397-2.304,0.789-3.456,1.184c1.146-0.783,2.29-1.568,3.437-2.348c2.17-1.475,4.343-2.946,6.515-4.419
								c0.02-0.013,0.036-0.033,0.068-0.062c-0.55-0.374-1.095-0.747-1.641-1.117c-2.733-1.854-5.466-3.707-8.199-5.561
								C246.415,3.066,246.383,3.029,246.348,2.997z"/>
							<path fill="#BF192A" d="M245.456,16.263c-0.002-0.615-0.006-1.231-0.005-1.846c0.001-3.708,0.002-7.416,0.004-11.125
								c0.857,0.565,1.715,1.127,2.57,1.696c2.316,1.542,4.63,3.086,6.945,4.629c0.237,0.158,0.237,0.159,0.001,0.317
								c-3.116,2.077-6.231,4.155-9.347,6.232C245.57,16.203,245.512,16.231,245.456,16.263z"/>
							<path fill="#239E46" d="M267.117,9.753c-1.795-0.618-3.589-1.238-5.384-1.855c-4.721-1.623-9.442-3.245-14.163-4.868
								c-0.434-0.149-0.866-0.308-1.299-0.462c0.113-0.002,0.226-0.007,0.339-0.007c6.735,0,13.471,0.001,20.206-0.006
								c0.239,0,0.309,0.049,0.307,0.301C267.113,5.155,267.117,7.454,267.117,9.753z"/>
							<path fill="#239E46" d="M246.28,16.98c1.005-0.351,2.01-0.705,3.016-1.052c5.007-1.728,10.014-3.456,15.022-5.182
								c0.931-0.321,1.865-0.634,2.797-0.95c0.001,2.324-0.002,4.648,0.008,6.972c0.001,0.227-0.11,0.221-0.269,0.22
								c-2.405-0.002-4.81-0.002-7.215-0.002c-4.389,0-8.777,0-13.166,0C246.409,16.986,246.344,16.982,246.28,16.98z"/>
						</g>
					</g>
				</g>
			</g>
		</g>
	</g>
</g>
<path fill="#010201" d="M283.732,5.345c1.209,0,2.023,0.533,2.553,1.054l-0.651,0.688c-0.448-0.455-1.005-0.793-1.888-0.793
	c-1.807,0-2.961,1.326-2.961,3.445c0,2.145,1.06,3.497,2.961,3.497c0.638,0,1.263-0.195,1.616-0.507v-2.224h-1.888V9.61h2.92v3.588
	c-0.584,0.546-1.575,0.988-2.771,0.988c-2.336,0-4.007-1.639-4.007-4.42C279.617,7.023,281.342,5.345,283.732,5.345z"/>
<path fill="#010201" d="M288.216,7.711h1.127v3.861c0,1.183,0.367,1.69,1.236,1.69c0.679,0,1.154-0.325,1.778-1.066V7.711h1.114
	v6.318h-0.924l-0.095-0.988h-0.041c-0.611,0.689-1.263,1.145-2.173,1.145c-1.398,0-2.023-0.858-2.023-2.471L288.216,7.711
	L288.216,7.711z"/>
<path fill="#010201" d="M295.688,15.863c0.747,0,1.223-0.572,1.494-1.352l0.149-0.469l-2.648-6.331h1.154l1.345,3.497
	c0.203,0.546,0.435,1.196,0.638,1.781h0.055c0.19-0.572,0.38-1.222,0.557-1.781l1.182-3.497h1.086l-2.485,6.838
	c-0.461,1.248-1.141,2.197-2.471,2.197c-0.299,0-0.558-0.052-0.774-0.13l0.217-0.845C295.321,15.811,295.525,15.863,295.688,15.863z
	"/>
<path fill="#010201" d="M305.373,10.026c0-0.807-0.285-1.586-1.358-1.586c-0.774,0-1.453,0.338-1.97,0.676l-0.447-0.741
	c0.61-0.377,1.534-0.819,2.594-0.819c1.616,0,2.295,1.027,2.295,2.601v3.874h-0.924l-0.095-0.754h-0.027
	c-0.639,0.494-1.371,0.91-2.187,0.91c-1.113,0-1.941-0.663-1.941-1.794C301.313,11.014,302.562,10.324,305.373,10.026z
	 M303.567,13.327c0.639,0,1.168-0.299,1.807-0.845v-1.755c-2.214,0.26-2.961,0.779-2.961,1.586
	C302.412,13.029,302.914,13.327,303.567,13.327z"/>
<path fill="#010201" d="M308.525,7.711h0.924l0.095,0.91h0.041c0.625-0.598,1.304-1.066,2.214-1.066c1.385,0,2.01,0.858,2.01,2.471
	v4.004h-1.113v-3.861c0-1.183-0.381-1.689-1.25-1.689c-0.679,0-1.141,0.338-1.806,0.975v4.576h-1.114L308.525,7.711L308.525,7.711z"
	/>
<path fill="#010201" d="M319.623,10.026c0-0.807-0.285-1.586-1.358-1.586c-0.774,0-1.453,0.338-1.97,0.676l-0.447-0.741
	c0.61-0.377,1.534-0.819,2.594-0.819c1.616,0,2.295,1.027,2.295,2.601v3.874h-0.924l-0.095-0.754h-0.027
	c-0.639,0.494-1.371,0.91-2.187,0.91c-1.113,0-1.941-0.663-1.941-1.794C315.563,11.014,316.812,10.324,319.623,10.026z
	 M317.817,13.327c0.639,0,1.168-0.299,1.807-0.845v-1.755c-2.214,0.26-2.961,0.779-2.961,1.586
	C316.662,13.029,317.164,13.327,317.817,13.327z"/>
<circle fill="none" stroke="#010201" stroke-miterlimit="10" cx="259.927" cy="9.771" r="7.049"/>
</svg>
