<?xml version="1.0" encoding="utf-8"?>
<!-- Generator: Adobe Illustrator 17.0.0, SVG Export Plug-In . SVG Version: 6.00 Build 0)  -->
<!DOCTYPE svg PUBLIC "-//W3C//DTD SVG 1.1//EN" "http://www.w3.org/Graphics/SVG/1.1/DTD/svg11.dtd">
<svg version="1.1" id="Layer_1" xmlns="http://www.w3.org/2000/svg" xmlns:xlink="http://www.w3.org/1999/xlink" x="0px" y="0px"
	 width="600px" height="19.542px" viewBox="0 0 600 19.542" enable-background="new 0 0 600 19.542" xml:space="preserve">
<rect x="0" y="0" fill="#91CFDB" width="600" height="19.542"/>
<line fill="none" stroke="#9F9F9F" stroke-width="0.7" stroke-miterlimit="10" stroke-dasharray="6,3" x1="199.426" y1="0.543" x2="199.426" y2="18.997"/>
<line fill="none" stroke="#9F9F9F" stroke-width="0.7" stroke-miterlimit="10" stroke-dasharray="6,3" x1="440.97" y1="0.543" x2="440.97" y2="18.997"/>
<circle fill="#575756" cx="454.981" cy="9.771" r="2.542"/>
<path fill="#575756" d="M70.993,7.516c-0.503-0.441-0.924-0.688-1.575-0.688c-0.733,0-1.182,0.364-1.182,1.04
	c0,1.56,3.694,1.248,3.694,3.874c0,1.235-0.761,2.146-2.105,2.379v1.339h-1.086v-1.3c-0.829-0.078-1.738-0.442-2.35-0.988
	l0.706-1.014c0.638,0.481,1.276,0.806,2.01,0.806c0.883,0,1.317-0.416,1.317-1.117c0-1.717-3.694-1.47-3.694-3.914
	c0-1.209,0.788-2.066,2.011-2.274V4.331h1.086v1.3c0.869,0.104,1.467,0.507,1.969,1.014L70.993,7.516z"/>
<path fill="#575756" d="M75.899,12.079c0.516,0.468,1.154,0.884,2.023,0.884c0.964,0,1.67-0.585,1.67-1.586
	c0-0.988-0.638-1.547-1.589-1.547c-0.557,0-0.869,0.143-1.385,0.468l-0.747-0.455l0.258-4.082h4.617v1.262h-3.259L77.31,9.025
	c0.366-0.169,0.692-0.273,1.141-0.273c1.48,0,2.716,0.806,2.716,2.587c0,1.808-1.453,2.848-3.042,2.848
	c-1.398,0-2.309-0.533-2.946-1.145L75.899,12.079z"/>
<path fill="#575756" d="M82.528,12.079c0.516,0.468,1.154,0.884,2.023,0.884c0.964,0,1.67-0.585,1.67-1.586
	c0-0.988-0.638-1.547-1.589-1.547c-0.557,0-0.869,0.143-1.385,0.468L82.5,9.843l0.258-4.082h4.617v1.262h-3.259l-0.177,2.002
	c0.367-0.169,0.692-0.273,1.141-0.273c1.48,0,2.716,0.806,2.716,2.587c0,1.808-1.453,2.848-3.042,2.848
	c-1.398,0-2.309-0.533-2.946-1.145L82.528,12.079z"/>
<path fill="#575756" d="M93.57,7.451c-0.312-0.364-0.855-0.624-1.371-0.624c-1.087,0-1.97,0.767-2.037,3.055
	c0.502-0.61,1.249-0.975,1.874-0.975c1.494,0,2.525,0.832,2.525,2.561c0,1.651-1.235,2.718-2.716,2.718
	c-1.697,0-3.137-1.262-3.137-4.043c0-3.212,1.63-4.537,3.395-4.537c1.046,0,1.793,0.416,2.31,0.936L93.57,7.451z M93.109,11.468
	c0-0.975-0.502-1.469-1.357-1.469c-0.489,0-1.06,0.26-1.548,0.949c0.162,1.469,0.773,2.093,1.615,2.093
	C92.538,13.041,93.109,12.482,93.109,11.468z"/>
<path fill="#575756" d="M101.354,11.897h-1.086v2.132h-1.467v-2.132h-3.816v-1.015l3.423-5.122h1.86v4.979h1.086
	C101.354,10.739,101.354,11.897,101.354,11.897z M98.801,10.74V8.868c0-0.481,0.041-1.235,0.067-1.716h-0.054
	c-0.218,0.429-0.462,0.845-0.706,1.287l-1.575,2.301H98.801z"/>
<path fill="#575756" d="M102.009,15.576c0.869-0.325,1.371-0.91,1.371-1.573c-0.041,0-0.081,0-0.122,0
	c-0.529,0-1.005-0.338-1.005-0.923c0-0.559,0.476-0.923,1.046-0.923c0.733,0,1.168,0.572,1.168,1.534
	c0,1.273-0.774,2.262-2.119,2.704L102.009,15.576z"/>
<path fill="#575756" d="M106.246,12.339c0.326,0.364,0.855,0.624,1.385,0.624c1.087,0,1.97-0.767,2.037-3.055
	c-0.502,0.598-1.263,0.962-1.888,0.962c-1.48,0-2.512-0.832-2.512-2.562c0-1.65,1.235-2.703,2.716-2.703
	c1.684,0,3.123,1.248,3.123,4.029c0,3.212-1.616,4.551-3.395,4.551c-1.032,0-1.793-0.416-2.309-0.937L106.246,12.339z
	 M109.627,8.829c-0.162-1.456-0.787-2.08-1.629-2.08c-0.706,0-1.29,0.559-1.29,1.56c0,0.976,0.502,1.482,1.371,1.482
	C108.568,9.791,109.152,9.519,109.627,8.829z"/>
<path fill="#575756" d="M112.469,12.053c0.516,0.508,1.181,0.91,2.05,0.91c0.938,0,1.589-0.468,1.589-1.248
	c0-0.857-0.57-1.403-2.539-1.403V9.219c1.697,0,2.254-0.559,2.254-1.326c0-0.688-0.488-1.104-1.276-1.104
	c-0.679,0-1.208,0.312-1.738,0.78l-0.801-0.924c0.733-0.623,1.562-1.039,2.594-1.039c1.656,0,2.798,0.779,2.798,2.184
	c0,0.923-0.571,1.547-1.508,1.898V9.74c1.019,0.26,1.793,0.962,1.793,2.054c0,1.508-1.372,2.393-3.028,2.393
	c-1.399,0-2.322-0.521-2.934-1.17L112.469,12.053z"/>
<path fill="#575756" d="M123.023,14.549v2.003h-1.562V7.646h1.29l0.109,0.676h0.054c0.557-0.455,1.276-0.832,2.01-0.832
	c1.657,0,2.621,1.273,2.621,3.25c0,2.184-1.371,3.445-2.852,3.445c-0.584,0-1.168-0.26-1.711-0.702L123.023,14.549z M124.367,12.95
	c0.883,0,1.562-0.754,1.562-2.197c0-1.273-0.435-2.028-1.439-2.028c-0.488,0-0.95,0.234-1.467,0.716v2.977
	C123.512,12.808,123.974,12.95,124.367,12.95z"/>
<path fill="#575756" d="M131.119,4.799h1.06l-3.164,11.311h-1.06L131.119,4.799z"/>
<path fill="#575756" d="M135.697,7.49c0.855,0,1.508,0.325,1.956,0.741l-0.747,0.948c-0.354-0.299-0.706-0.468-1.127-0.468
	c-1.073,0-1.82,0.845-1.82,2.132c0,1.274,0.733,2.119,1.779,2.119c0.543,0,1.005-0.26,1.371-0.546l0.652,0.949
	c-0.625,0.533-1.426,0.819-2.187,0.819c-1.82,0-3.219-1.223-3.219-3.342C132.357,8.712,133.918,7.49,135.697,7.49z"/>
<circle fill="none" stroke="#FFFCEE" stroke-miterlimit="10" cx="259.817" cy="9.771" r="7.049"/>
<path fill="#575756" d="M283.813,5.397c1.249,0,2.159,0.533,2.757,1.105l-1.101,1.184c-0.448-0.391-0.869-0.639-1.629-0.639
	c-1.358,0-2.336,1.027-2.336,2.73c0,1.742,0.828,2.756,2.498,2.756c0.354,0,0.72-0.09,0.938-0.26v-1.455h-1.467V9.259h3.246v3.9
	c-0.639,0.533-1.738,1.027-2.975,1.027c-2.39,0-4.291-1.496-4.291-4.344C279.453,7.036,281.408,5.397,283.813,5.397z"/>
<path fill="#575756" d="M288.229,7.581h1.997v3.758c0,0.924,0.258,1.223,0.842,1.223c0.502,0,0.801-0.209,1.195-0.715V7.581h1.996
	v6.449h-1.63l-0.149-0.898h-0.041c-0.57,0.65-1.194,1.055-2.118,1.055c-1.467,0-2.092-0.988-2.092-2.602L288.229,7.581
	L288.229,7.581z"/>
<path fill="#575756" d="M296.542,15.044c0.665,0,1.005-0.338,1.182-0.846l0.095-0.338l-2.594-6.279h2.01l0.964,2.77
	c0.19,0.586,0.354,1.195,0.53,1.834h0.054c0.149-0.611,0.299-1.223,0.462-1.834l0.814-2.77h1.915l-2.336,6.514
	c-0.638,1.625-1.357,2.457-2.946,2.457c-0.407,0-0.68-0.053-0.951-0.129l0.354-1.457C296.216,14.991,296.393,15.044,296.542,15.044z
	"/>
<path fill="#575756" d="M306.227,9.882c-0.04-0.57-0.339-0.936-1.059-0.936c-0.57,0-1.141,0.221-1.793,0.586l-0.706-1.262
	c0.855-0.494,1.819-0.846,2.879-0.846c1.725,0,2.676,0.937,2.676,2.912v3.693h-1.63l-0.149-0.664h-0.041
	c-0.57,0.482-1.208,0.82-1.969,0.82c-1.223,0-1.996-0.859-1.996-1.951C302.439,10.884,303.566,10.144,306.227,9.882z
	 M305.113,12.704c0.462,0,0.761-0.209,1.113-0.547v-1.131c-1.426,0.182-1.888,0.572-1.888,1.066
	C304.339,12.509,304.638,12.704,305.113,12.704z"/>
<path fill="#575756" d="M309.869,7.581h1.63l0.136,0.82h0.054c0.57-0.521,1.25-0.977,2.159-0.977c1.467,0,2.092,0.988,2.092,2.602
	v4.004h-1.996v-3.758c0-0.936-0.258-1.223-0.828-1.223c-0.503,0-0.815,0.223-1.25,0.625v4.355h-1.996L309.869,7.581L309.869,7.581z"
	/>
<path fill="#575756" d="M321.116,9.882c-0.04-0.57-0.339-0.936-1.059-0.936c-0.57,0-1.141,0.221-1.793,0.586l-0.706-1.262
	c0.855-0.494,1.819-0.846,2.879-0.846c1.725,0,2.676,0.937,2.676,2.912v3.693h-1.63l-0.149-0.664h-0.041
	c-0.57,0.482-1.208,0.82-1.969,0.82c-1.223,0-1.996-0.859-1.996-1.951C317.328,10.884,318.455,10.144,321.116,9.882z
	 M320.003,12.704c0.462,0,0.761-0.209,1.113-0.547v-1.131c-1.426,0.182-1.888,0.572-1.888,1.066
	C319.229,12.509,319.527,12.704,320.003,12.704z"/>
<path fill="#91CFDB" d="M229.135,7.751c-0.299-0.312-0.842-0.586-1.345-0.586c-0.95,0-1.711,0.65-1.778,2.574
	c0.447-0.545,1.194-0.871,1.725-0.871c1.479,0,2.566,0.807,2.566,2.549c0,1.715-1.304,2.77-2.865,2.77
	c-1.671,0-3.26-1.197-3.26-4.096c0-3.082,1.671-4.473,3.49-4.473c1.141,0,1.969,0.455,2.513,0.988L229.135,7.751z M228.483,11.417
	c0-0.871-0.475-1.197-1.127-1.197c-0.435,0-0.91,0.223-1.304,0.82c0.177,1.299,0.747,1.715,1.345,1.715
	S228.483,12.353,228.483,11.417z"/>
<g>
	<g>
		<g>
			<g>
				<g>
					<defs>
						<circle id="SVGID_1_" cx="259.817" cy="9.771" r="7.049"/>
					</defs>
					<clipPath id="SVGID_2_">
						<use xlink:href="#SVGID_1_"  overflow="visible"/>
					</clipPath>
					<g clip-path="url(#SVGID_2_)">
						<g>
							<path fill="#FFFFFF" d="M267.068,2.464c0.167-0.045,0.147,0.064,0.147,0.17c-0.001,2.293-0.001,4.585-0.001,6.878
								c0,2.495-0.002,4.99,0.005,7.485c0,0.166-0.033,0.199-0.199,0.199c-7.194-0.005-14.388-0.005-21.581-0.002
								c-0.131,0-0.2,0.006-0.2-0.172c0.007-4.796,0.005-9.592,0.01-14.388c0-0.05-0.077-0.143,0.044-0.17
								c0.02,0.024,0.036,0.049,0.048,0.077c0.047,0.257,0.02,0.517,0.021,0.776c-0.002,4.302,0,8.605,0,12.906
								c0.034,0.243-0.062,0.497,0.061,0.733c0.226,0.047,0.454,0.011,0.681,0.021c6.843,0.001,13.685,0,20.528,0
								c0.36,0,0.369-0.009,0.369-0.367c0-2.267,0.001-4.535-0.001-6.802c0.002-2.299,0-4.599,0.001-6.898
								c0-0.121-0.011-0.243,0.018-0.363C267.03,2.516,267.046,2.488,267.068,2.464z"/>
							<path fill="#C1C0C0" d="M267.068,2.464c-0.001,0.018-0.003,0.036-0.004,0.055c-0.13,0.098-0.281,0.061-0.423,0.061
								c-6.184,0.002-12.369,0.002-18.553,0.002c-0.575,0-1.149,0-1.724,0c-0.097,0-0.195-0.008-0.289,0.022
								c-0.18,0.041-0.363,0.016-0.545,0.032c-0.103,0.012-0.181-0.026-0.233-0.117c-0.001-0.018-0.003-0.037-0.004-0.055
								C252.55,2.464,259.809,2.464,267.068,2.464z"/>
							<path fill="#010202" d="M245.296,2.519c0.064,0.028,0.129,0.057,0.193,0.085c0.301,0.039,0.536,0.221,0.791,0.362
								c1.051,0.743,2.124,1.454,3.189,2.175c2.138,1.448,4.268,2.907,6.412,4.346c0.408,0.274,0.404,0.295,0.009,0.565
								c-2.322,1.581-4.646,3.157-6.972,4.732c-0.911,0.617-1.82,1.238-2.732,1.854c-0.222,0.138-0.449,0.265-0.695,0.355
								c-0.055,0.004-0.106,0.021-0.155,0.045c-0.092-0.252-0.029-0.51-0.035-0.766c0.015-0.018,0.03-0.036,0.045-0.054
								c0.086-0.075,0.185-0.131,0.279-0.193c3.045-2.029,6.089-4.059,9.133-6.088c0.081-0.054,0.157-0.114,0.251-0.155
								c-0.068-0.035-0.129-0.076-0.191-0.117c-3.125-2.084-6.249-4.168-9.375-6.25c-0.034-0.022-0.068-0.044-0.097-0.073
								c-0.015-0.018-0.03-0.036-0.045-0.054C245.299,3.031,245.297,2.775,245.296,2.519z"/>
							<path fill="#010203" d="M246.034,2.551c0.059-0.063,0.137-0.038,0.207-0.038c6.909-0.001,13.818-0.001,20.726-0.001
								c0.032,0,0.065,0.004,0.097,0.006c-0.002,2.428-0.004,4.857-0.006,7.285c-0.034-0.002-0.058-0.018-0.075-0.048
								c-0.014-0.029-0.023-0.059-0.029-0.09c-0.021-0.145-0.013-0.291-0.013-0.437c-0.001-2.041,0-4.082-0.001-6.124
								c0-0.089-0.001-0.178-0.004-0.267c-0.004-0.13-0.072-0.188-0.198-0.193c-0.113-0.005-0.227-0.004-0.34-0.004
								c-6.375,0-12.75,0-19.124,0c-0.356,0-0.713-0.005-1.069-0.013C246.138,2.624,246.076,2.61,246.034,2.551z"/>
							<path fill="#010202" d="M267.018,9.795c0.013,0.003,0.026,0.006,0.039,0.007c0.003,0.064,0.01,0.129,0.01,0.193
								c0,2.276-0.001,4.553,0.003,6.829c0,0.147-0.003,0.226-0.196,0.225c-6.918-0.006-13.836-0.005-20.754-0.005
								c-0.016,0-0.032-0.002-0.048-0.004c-0.015-0.033-0.006-0.058,0.025-0.076c0.042-0.024,0.088-0.032,0.135-0.034
								c2.542-0.029,5.085-0.01,7.627-0.012c4.178-0.004,8.356-0.001,12.534-0.001c0.594,0,0.547,0.034,0.547-0.559
								c0.002-2.04,0-4.081,0.001-6.121c0-0.136-0.019-0.276,0.044-0.407C266.996,9.819,267.007,9.807,267.018,9.795z"/>
							<path fill="#5E121B" d="M245.301,3.287c0.015,0,0.029,0.002,0.043,0.006c0.07,0.107,0.075,0.228,0.075,0.351
								c0,4.089,0,8.179,0,12.268c0,0.123-0.005,0.243-0.073,0.351c-0.015,0.005-0.03,0.007-0.045,0.008
								c-0.003-0.056-0.009-0.113-0.009-0.169c0-4.215,0-8.43,0-12.646C245.292,3.4,245.298,3.343,245.301,3.287z"/>
							<path fill="#7A7A7A" d="M246.072,17c-0.01,0.014-0.01,0.027,0,0.041c-0.245-0.001-0.491-0.003-0.736-0.004
								c0.032-0.034,0.058-0.076,0.112-0.08C245.655,16.977,245.873,16.844,246.072,17z"/>
							<path fill="#FFFFFF" d="M246.072,17c-0.207-0.031-0.422,0.051-0.624-0.044c0.239-0.119,0.478-0.238,0.717-0.358
								c0.541-0.304,1.144-0.451,1.724-0.651c2.105-0.725,4.209-1.456,6.315-2.179c2.703-0.929,5.403-1.868,8.105-2.799
								c1.095-0.377,2.191-0.75,3.281-1.139c0.037-0.013,0.078-0.018,0.12-0.062c-0.105-0.049-0.208-0.087-0.311-0.122
								c-2.063-0.698-4.119-1.419-6.178-2.128c-2.274-0.782-4.546-1.57-6.82-2.354c-1.768-0.61-3.533-1.228-5.304-1.832
								c-0.291-0.099-0.579-0.207-0.858-0.337c-0.25-0.131-0.5-0.262-0.749-0.393c0.174-0.099,0.366-0.009,0.545-0.052
								c0.043,0.005,0.085,0.011,0.128,0.016c0.436,0.063,0.838,0.237,1.251,0.377c1.08,0.368,2.158,0.746,3.238,1.113
								c2.437,0.829,4.869,1.674,7.305,2.506c2.107,0.719,4.21,1.448,6.316,2.17c0.835,0.286,1.671,0.569,2.502,0.865
								c0.089,0.032,0.193,0.046,0.233,0.154c0.003,0.014,0.007,0.029,0.011,0.043h-0.013c-0.054,0.081-0.143,0.102-0.227,0.131
								c-1.453,0.505-2.909,1.003-4.363,1.504c-2.893,0.997-5.786,1.996-8.68,2.993c-1.845,0.635-3.689,1.273-5.533,1.91
								c-0.559,0.193-1.122,0.374-1.676,0.577c-0.115,0.042-0.236,0.053-0.356,0.069C246.137,16.987,246.104,16.994,246.072,17z"/>
							<path fill="#EFE528" d="M246.238,2.997c0.514,0.11,0.997,0.318,1.491,0.489c6.003,2.071,12.004,4.146,18.005,6.221
								c0.052,0.018,0.101,0.042,0.185,0.078c-0.856,0.296-1.679,0.581-2.502,0.866c-4.599,1.589-9.198,3.178-13.797,4.766
								c-1.151,0.397-2.304,0.789-3.456,1.184c1.146-0.783,2.29-1.568,3.437-2.348c2.17-1.475,4.343-2.946,6.515-4.419
								c0.02-0.013,0.036-0.033,0.068-0.062c-0.55-0.374-1.095-0.747-1.641-1.117c-2.733-1.854-5.466-3.707-8.199-5.561
								C246.305,3.066,246.273,3.029,246.238,2.997z"/>
							<path fill="#BF192A" d="M245.346,16.263c-0.002-0.615-0.006-1.231-0.005-1.846c0.001-3.708,0.002-7.416,0.004-11.125
								c0.857,0.565,1.715,1.127,2.57,1.696c2.316,1.542,4.63,3.086,6.945,4.629c0.237,0.158,0.237,0.159,0.001,0.317
								c-3.116,2.077-6.231,4.155-9.347,6.232C245.46,16.203,245.402,16.231,245.346,16.263z"/>
							<path fill="#239E46" d="M267.007,9.753c-1.795-0.618-3.589-1.238-5.384-1.855c-4.721-1.623-9.442-3.245-14.163-4.868
								c-0.434-0.149-0.866-0.308-1.299-0.462c0.113-0.002,0.226-0.007,0.339-0.007c6.735,0,13.471,0.001,20.206-0.006
								c0.239,0,0.309,0.049,0.307,0.301C267.003,5.155,267.007,7.454,267.007,9.753z"/>
							<path fill="#239E46" d="M246.17,16.98c1.005-0.351,2.01-0.705,3.016-1.052c5.007-1.728,10.014-3.456,15.022-5.182
								c0.931-0.321,1.865-0.634,2.797-0.95c0.001,2.324-0.002,4.648,0.008,6.972c0.001,0.227-0.11,0.221-0.269,0.22
								c-2.405-0.002-4.81-0.002-7.215-0.002c-4.389,0-8.777,0-13.166,0C246.299,16.986,246.234,16.982,246.17,16.98z"/>
						</g>
					</g>
				</g>
			</g>
		</g>
	</g>
</g>
<circle fill="none" stroke="#575756" stroke-miterlimit="10" cx="259.817" cy="9.771" r="7.049"/>
<g>
	<path fill="#575756" d="M467.023,5.588h2.035l2.29,4.365l0.876,1.94h0.054c-0.095-0.93-0.257-2.169-0.257-3.207V5.588h1.887v8.785
		h-2.034l-2.29-4.379l-0.863-1.913h-0.053c0.094,0.97,0.256,2.142,0.256,3.18v3.112h-1.9V5.588z"/>
	<path fill="#575756" d="M476.963,12.042c0.687,0,1.199,0.539,1.199,1.253c0,0.701-0.513,1.24-1.199,1.24
		c-0.688,0-1.199-0.539-1.199-1.24C475.764,12.581,476.275,12.042,476.963,12.042z"/>
	<path fill="#575756" d="M484.142,12.284h-2.694l-0.539,2.089h-2.021l2.763-8.785h2.371l2.763,8.785h-2.103L484.142,12.284z
		 M483.738,10.735l-0.217-0.809c-0.242-0.876-0.471-1.913-0.713-2.83h-0.055c-0.202,0.93-0.444,1.954-0.688,2.83l-0.215,0.809
		H483.738z"/>
	<path fill="#575756" d="M488.692,12.042c0.687,0,1.198,0.539,1.198,1.253c0,0.701-0.512,1.24-1.198,1.24
		c-0.688,0-1.2-0.539-1.2-1.24C487.492,12.581,488.005,12.042,488.692,12.042z"/>
</g>
</svg>
