<?xml version="1.0" encoding="utf-8"?>
<!-- Generator: Adobe Illustrator 17.0.0, SVG Export Plug-In . SVG Version: 6.00 Build 0)  -->
<!DOCTYPE svg PUBLIC "-//W3C//DTD SVG 1.1//EN" "http://www.w3.org/Graphics/SVG/1.1/DTD/svg11.dtd">
<svg version="1.1" id="Layer_1" xmlns="http://www.w3.org/2000/svg" xmlns:xlink="http://www.w3.org/1999/xlink" x="0px" y="0px"
	 width="600px" height="19.542px" viewBox="0 0 600 19.542" enable-background="new 0 0 600 19.542" xml:space="preserve">
<rect x="0" y="0" fill="#409282" width="600" height="19.542"/>
<line fill="none" stroke="#9F9F9F" stroke-width="0.7" stroke-miterlimit="10" stroke-dasharray="6,3" x1="199.426" y1="0.498" x2="199.426" y2="18.899"/>
<line fill="none" stroke="#9F9F9F" stroke-width="0.7" stroke-miterlimit="10" stroke-dasharray="6,3" x1="440.97" y1="0.498" x2="440.97" y2="18.899"/>
<g>
	<g>
		<g>
			<rect x="451.885" y="8.59" fill="#FFFCEE" width="109.407" height="2"/>
		</g>
		<g>
			<g>
				<circle fill="#FFFCEE" cx="561.168" cy="9.59" r="2.481"/>
			</g>
		</g>
	</g>
</g>
<path fill="#FFFCEE" d="M70.993,7.099c-0.503-0.441-0.924-0.688-1.575-0.688c-0.733,0-1.182,0.363-1.182,1.04
	c0,1.56,3.694,1.248,3.694,3.874c0,1.234-0.761,2.145-2.105,2.379v1.339h-1.086v-1.3c-0.829-0.078-1.738-0.442-2.35-0.988
	l0.706-1.014c0.638,0.48,1.276,0.806,2.01,0.806c0.883,0,1.317-0.416,1.317-1.118c0-1.716-3.694-1.469-3.694-3.913
	c0-1.209,0.788-2.067,2.011-2.275V3.915h1.086v1.3c0.869,0.104,1.467,0.507,1.969,1.014L70.993,7.099z"/>
<path fill="#FFFCEE" d="M75.858,12.39h1.929V6.957h-1.589V6.02c0.855-0.156,1.453-0.364,1.996-0.676h1.168v7.046h1.697v1.223h-5.201
	V12.39z"/>
<path fill="#FFFCEE" d="M82.528,11.663c0.516,0.468,1.154,0.884,2.023,0.884c0.964,0,1.67-0.585,1.67-1.586
	c0-0.988-0.638-1.547-1.589-1.547c-0.557,0-0.869,0.143-1.385,0.468L82.5,9.427l0.258-4.082h4.617v1.261h-3.259l-0.177,2.002
	c0.367-0.169,0.692-0.272,1.141-0.272c1.48,0,2.716,0.806,2.716,2.587c0,1.807-1.453,2.847-3.042,2.847
	c-1.398,0-2.309-0.532-2.946-1.144L82.528,11.663z"/>
<path fill="#FFFCEE" d="M92.797,6.605h-4.088V5.344h5.799v0.91c-2.023,2.405-2.377,4.134-2.526,7.358h-1.589
	C90.542,10.674,91.126,8.829,92.797,6.605z"/>
<path fill="#FFFCEE" d="M95.786,11.663c0.516,0.468,1.154,0.884,2.023,0.884c0.964,0,1.67-0.585,1.67-1.586
	c0-0.988-0.638-1.547-1.589-1.547c-0.557,0-0.869,0.143-1.385,0.468l-0.747-0.455l0.258-4.082h4.617v1.261h-3.259l-0.177,2.002
	c0.367-0.169,0.692-0.272,1.141-0.272c1.48,0,2.716,0.806,2.716,2.587c0,1.807-1.453,2.847-3.042,2.847
	c-1.398,0-2.309-0.532-2.946-1.144L95.786,11.663z"/>
<path fill="#FFFCEE" d="M102.009,15.16c0.869-0.325,1.371-0.91,1.371-1.573c-0.041,0-0.081,0-0.122,0
	c-0.529,0-1.005-0.338-1.005-0.923c0-0.56,0.476-0.923,1.046-0.923c0.733,0,1.168,0.571,1.168,1.534
	c0,1.273-0.774,2.262-2.119,2.704L102.009,15.16z"/>
<path fill="#FFFCEE" d="M105.309,9.439c0-2.795,1.141-4.251,2.934-4.251s2.934,1.47,2.934,4.251c0,2.796-1.141,4.329-2.934,4.329
	S105.309,12.235,105.309,9.439z M109.682,9.439c0-2.34-0.598-3.081-1.439-3.081c-0.828,0-1.439,0.741-1.439,3.081
	c0,2.341,0.611,3.159,1.439,3.159C109.084,12.598,109.682,11.78,109.682,9.439z"/>
<path fill="#FFFCEE" d="M111.939,9.439c0-2.795,1.141-4.251,2.934-4.251s2.934,1.47,2.934,4.251c0,2.796-1.141,4.329-2.934,4.329
	S111.939,12.235,111.939,9.439z M116.312,9.439c0-2.34-0.598-3.081-1.439-3.081c-0.828,0-1.439,0.741-1.439,3.081
	c0,2.341,0.611,3.159,1.439,3.159C115.714,12.598,116.312,11.78,116.312,9.439z"/>
<path fill="#FFFCEE" d="M123.023,14.132v2.002h-1.562V7.229h1.29l0.109,0.677h0.054c0.557-0.455,1.276-0.832,2.01-0.832
	c1.657,0,2.621,1.273,2.621,3.25c0,2.184-1.371,3.444-2.852,3.444c-0.584,0-1.168-0.26-1.711-0.701L123.023,14.132z M124.367,12.534
	c0.883,0,1.562-0.754,1.562-2.197c0-1.274-0.435-2.028-1.439-2.028c-0.488,0-0.95,0.234-1.467,0.715V12
	C123.512,12.39,123.974,12.534,124.367,12.534z"/>
<path fill="#FFFCEE" d="M131.119,4.382h1.06l-3.164,11.311h-1.06L131.119,4.382z"/>
<path fill="#FFFCEE" d="M135.697,7.074c0.855,0,1.508,0.324,1.956,0.74l-0.747,0.949c-0.354-0.299-0.706-0.468-1.127-0.468
	c-1.073,0-1.82,0.845-1.82,2.132c0,1.274,0.733,2.119,1.779,2.119c0.543,0,1.005-0.26,1.371-0.546l0.652,0.949
	c-0.625,0.533-1.426,0.818-2.187,0.818c-1.82,0-3.219-1.222-3.219-3.341C132.357,8.295,133.918,7.074,135.697,7.074z"/>
<circle fill="none" stroke="#FFFCEE" stroke-miterlimit="10" cx="259.817" cy="9.589" r="7.049"/>
<path fill="#FFFCEE" d="M279.874,5.136h2.01V8.4h3.056V5.136h1.996v8.477h-1.996v-3.536h-3.056v3.536h-2.01V5.136z"/>
<path fill="#FFFCEE" d="M292.33,9.466c-0.04-0.572-0.339-0.937-1.059-0.937c-0.57,0-1.141,0.221-1.793,0.585l-0.706-1.262
	c0.855-0.494,1.819-0.844,2.879-0.844c1.725,0,2.676,0.936,2.676,2.912v3.691h-1.63l-0.149-0.663h-0.041
	c-0.57,0.481-1.208,0.819-1.969,0.819c-1.223,0-1.996-0.858-1.996-1.95C288.542,10.466,289.669,9.726,292.33,9.466z M291.217,12.287
	c0.462,0,0.761-0.208,1.113-0.546V10.61c-1.426,0.182-1.888,0.571-1.888,1.065C290.443,12.091,290.741,12.287,291.217,12.287z"/>
<path fill="#FFFCEE" d="M295.809,5.214c0-0.585,0.489-0.988,1.154-0.988c0.679,0,1.154,0.403,1.154,0.988s-0.476,1.001-1.154,1.001
	C296.298,6.215,295.809,5.799,295.809,5.214z M295.972,7.165h1.996v6.448h-1.996V7.165z"/>
<path fill="#FFFCEE" d="M299.925,8.66h-0.924V7.243l1.032-0.078l0.231-1.716h1.656v1.716h1.616V8.66h-1.616v2.587
	c0,0.728,0.34,1.027,0.869,1.027c0.218,0,0.462-0.065,0.639-0.13l0.312,1.391c-0.354,0.104-0.843,0.234-1.494,0.234
	c-1.67,0-2.322-1.002-2.322-2.496L299.925,8.66L299.925,8.66z"/>
<path fill="#FFFCEE" d="M304.625,5.214c0-0.585,0.489-0.988,1.154-0.988c0.679,0,1.154,0.403,1.154,0.988s-0.476,1.001-1.154,1.001
	C305.114,6.215,304.625,5.799,304.625,5.214z M304.788,7.165h1.996v6.448h-1.996V7.165z"/>
<path fill="#409282" d="M224.124,12.521c2.199-1.989,3.748-3.406,3.748-4.576c0-0.807-0.476-1.248-1.223-1.248
	c-0.625,0-1.1,0.402-1.534,0.845l-1.087-1.026c0.855-0.871,1.657-1.313,2.893-1.313c1.698,0,2.853,1.04,2.853,2.626
	c0,1.391-1.358,2.873-2.757,4.277c0.435-0.053,1.031-0.104,1.439-0.104h1.738v1.611h-6.07L224.124,12.521L224.124,12.521z"/>
<g>
	<g>
		<g>
			<g>
				<g>
					<defs>
						<circle id="SVGID_1_" cx="259.817" cy="9.589" r="7.049"/>
					</defs>
					<clipPath id="SVGID_2_">
						<use xlink:href="#SVGID_1_"  overflow="visible"/>
					</clipPath>
					<g clip-path="url(#SVGID_2_)">
						<g>
							<path fill="#3C5BA4" d="M248.633,9.598c0-2.496,0-4.993,0-7.489c0.086-0.069,0.189-0.049,0.286-0.049
								c7.274-0.001,14.549-0.001,21.823,0c0.089,0,0.183-0.018,0.266,0.034c0.064,0.089,0.04,0.191,0.04,0.288
								c0.001,2.295,0.001,4.589,0.001,6.884c0,0.341-0.012,0.355-0.344,0.355c-2.6,0.001-5.2,0.001-7.8,0
								c-0.098,0-0.199,0.013-0.29-0.043c-0.105-0.094-0.098-0.221-0.099-0.344c-0.004-0.495,0.001-0.99-0.002-1.485
								c-0.002-0.298-0.03-0.328-0.327-0.328c-1.56-0.002-3.119-0.002-4.679,0c-0.311,0-0.338,0.029-0.34,0.341
								c-0.003,0.503,0.001,1.007-0.002,1.51c-0.001,0.123,0.007,0.25-0.088,0.351c-0.097,0.08-0.214,0.078-0.33,0.078
								c-2.591,0.002-5.182,0.002-7.773,0C248.852,9.701,248.726,9.704,248.633,9.598z"/>
							<path fill="#BF192A" d="M248.633,9.598c0.065-0.007,0.13-0.019,0.195-0.019c2.746,0,5.491,0,8.237,0.001
								c0.075,0.053,0.068,0.135,0.074,0.212c0.003,0.031,0.006,0.062,0.01,0.093c0.04,0.478,0.009,0.956,0.018,1.434
								c0.006,0.332,0.025,0.357,0.349,0.357c1.551,0.002,3.102,0.002,4.653,0c0.323,0,0.344-0.024,0.345-0.359
								c0.002-0.429-0.002-0.858,0.002-1.287c0.002-0.154-0.009-0.314,0.102-0.445c0.082-0.021,0.165-0.011,0.247-0.011
								c2.626-0.001,5.251-0.001,7.877,0c0.306,0,0.307,0,0.307,0.316c0,2.262,0.001,4.525-0.001,6.787
								c0,0.105,0.025,0.216-0.049,0.311c-7.375,0-14.751-0.001-22.126,0.007c-0.226,0-0.247-0.067-0.246-0.261
								C248.636,14.355,248.633,11.977,248.633,9.598z"/>
							<path fill="#44373C" d="M271.001,16.988c0.002-2.394,0.001-4.789,0.01-7.183c0.001-0.211-0.1-0.217-0.258-0.217
								c-2.708,0.003-5.416,0.003-8.124,0.004c-0.001-0.009-0.002-0.019-0.003-0.028c2.718,0.001,5.436,0.002,8.154,0.005
								c0.138,0,0.231-0.006,0.23-0.192c-0.007-2.421-0.007-4.841-0.009-7.262c0-0.034,0.017-0.057,0.047-0.07
								c0.021-0.007,0.038-0.002,0.052,0.016c0,4.91,0,9.82-0.005,14.73C271.095,16.852,271.197,17.004,271.001,16.988z"/>
							<path fill="#C1C0C0" d="M271.1,2.06c-0.018,0.004-0.036,0.007-0.053,0.011c-0.089,0.025-0.181,0.013-0.271,0.013
								c-7.283,0.001-14.567,0.001-21.85-0.001c-0.097,0-0.198,0.024-0.292-0.023c0.045-0.103,0.134-0.046,0.198-0.047
								c2.009-0.004,4.017-0.003,6.026-0.003c5.34,0,10.68,0,16.019,0.003C270.949,2.013,271.045,1.956,271.1,2.06z"/>
							<path fill="#010202" d="M248.633,2.06c7.372,0,14.745,0,22.117,0c0.099,0,0.198,0.007,0.297,0.01
								c-0.015,0.014-0.031,0.029-0.046,0.044c-0.107-0.002-0.214-0.005-0.322-0.005c-7.349,0-14.697,0-22.046,0
								C248.633,2.093,248.633,2.076,248.633,2.06z"/>
							<path fill="#FFFFFF" d="M262.626,9.563c-0.006,0.01-0.005,0.019,0.003,0.028c-0.006,0.643-0.02,1.287-0.012,1.93
								c0.002,0.196-0.032,0.266-0.25,0.265c-1.684-0.01-3.369-0.009-5.054-0.001c-0.194,0.001-0.249-0.047-0.245-0.244
								c0.013-0.561,0.002-1.123,0.001-1.684c0.019-0.044,0.068-0.044,0.101-0.068c-0.033,0.001-0.073,0.044-0.098-0.014
								c-0.002-0.065-0.004-0.131-0.006-0.196c0.002-0.668,0.01-1.337,0.003-2.005c-0.002-0.183,0.031-0.256,0.24-0.255
								c1.692,0.009,3.384,0.008,5.076,0.001c0.191-0.001,0.233,0.059,0.231,0.239C262.61,8.227,262.621,8.895,262.626,9.563z"/>
							<path fill="#C84454" d="M257.071,9.776c0.035-0.018,0.078-0.029,0.104-0.056c0.054-0.055,0.084-0.151,0.19-0.096
								c0.019,0.01,0.03,0.036,0.045,0.055c-0.074,0.045-0.086,0.162-0.195,0.165c-0.049,0.002-0.098,0.008-0.146,0.012
								C257.069,9.83,257.07,9.803,257.071,9.776z"/>
							<path fill="#289F48" d="M258.056,10.195c0.015,0,0.031-0.002,0.046-0.005c0.018-0.014,0.038-0.021,0.061-0.024
								c0.011,0.002,0.022,0.004,0.032,0.005c0.009,0.006,0.018,0.013,0.026,0.019c0.032,0.061,0.043,0.148,0.147,0.121
								c0.066-0.014,0.132-0.037,0.2-0.006c0.021,0.012,0.037,0.027,0.05,0.047c0.009,0.218-0.191,0.147-0.26,0.214
								c0.203-0.019,0.453-0.202,0.667,0.057c0.087,0.05,0.187,0.063,0.28,0.094c0.062,0.021,0.121,0.056,0.191,0.047
								c0.068,0.006,0.132-0.012,0.196-0.031c0.034-0.006,0.067-0.006,0.101-0.001c0.104,0.033,0.208,0.052,0.313,0.002
								c0.04-0.014,0.08-0.025,0.121-0.033c0.061-0.006,0.122-0.016,0.182-0.03c0.069-0.001,0.128-0.03,0.188-0.061
								c0.248-0.267,0.601-0.192,0.983,0.007c0.03,0.145-0.101,0.072-0.15,0.111c-0.393,0.035-0.762,0.181-1.162,0.212
								c-0.521,0.04-1.045,0.034-1.545-0.059c-0.248-0.046-0.49-0.066-0.736-0.081c-0.175-0.011-0.312-0.152-0.5-0.127
								c-0.067,0.009-0.094-0.061-0.019-0.112c0.06-0.042,0.124-0.079,0.186-0.118c0.036-0.029,0.083-0.045,0.107-0.089
								c0.024-0.033,0.05-0.065,0.081-0.092C257.906,10.216,257.982,10.208,258.056,10.195z"/>
							<path fill="#3C5BA4" d="M261.08,8.814c0.071-0.053,0.142-0.106,0.223-0.167c0.115,0.178,0.096,0.364,0.087,0.548
								c0.01,0.138-0.084,0.203-0.189,0.251c-0.124,0.056-0.246,0.117-0.37,0.175c-0.049,0.013-0.097,0.001-0.144-0.011
								c-0.023-0.009-0.043-0.022-0.062-0.039c-0.007-0.01-0.014-0.02-0.021-0.03c-0.01-0.022-0.016-0.046-0.018-0.07
								c-0.004-0.096,0.028-0.187,0.039-0.281C260.724,9.002,260.874,8.875,261.08,8.814z"/>
							<path fill="#3D5AA3" d="M258.315,8.753c0.05,0.06,0.073,0.155,0.181,0.141c0.203,0.025,0.338,0.149,0.451,0.307
								c0.053,0.148-0.021,0.276-0.066,0.408c-0.013,0.036-0.03,0.069-0.061,0.094c-0.022,0.012-0.046,0.014-0.07,0.009
								c-0.095-0.129-0.232-0.2-0.37-0.272c-0.085-0.044-0.188-0.075-0.191-0.2c0.007-0.161,0.014-0.321,0.021-0.482
								C258.244,8.725,258.279,8.727,258.315,8.753z"/>
							<path fill="#3E5CA4" d="M258.911,9.218c-0.134-0.113-0.308-0.176-0.415-0.324c0.036-0.182,0.03-0.373,0.112-0.545
								c0.011-0.019,0.025-0.02,0.042-0.006c0.029,0.006,0.058,0.012,0.086,0.018c0.011,0,0.022,0.001,0.034,0.001
								c0.096,0.031,0.1,0.145,0.176,0.194c0.059,0.05,0.123,0.097,0.162,0.166c0.038,0.078,0.116,0.138,0.107,0.238
								c-0.034,0.098-0.11,0.17-0.163,0.256C259.007,9.266,258.959,9.285,258.911,9.218z"/>
							<path fill="#2F9E4B" d="M261.431,10.728c0.049-0.027,0.098-0.054,0.147-0.081c-0.054-0.14-0.189-0.133-0.302-0.166
								c-0.097-0.028-0.22-0.021-0.231-0.168c0.009-0.075,0.058-0.125,0.111-0.173c0.021-0.011,0.043-0.017,0.066-0.018
								c0.022,0.004,0.043,0.012,0.062,0.024c0.033-0.007,0.065,0.11,0.097-0.002c-0.001-0.047,0.01-0.088,0.048-0.118
								c0.076-0.035,0.115,0.021,0.158,0.065l0.023,0.008c0.028,0.008,0.055,0.018,0.082,0.029c0.027,0.013,0.054,0.027,0.08,0.042
								c0.019,0.01,0.037,0.022,0.054,0.034c0.072,0.041,0.084,0.13,0.146,0.179c0.055,0.013,0.112,0.022,0.164,0.042
								c0.05,0.019,0.12,0.034,0.101,0.111c-0.014,0.06-0.075,0.051-0.122,0.058C261.885,10.629,261.673,10.757,261.431,10.728z"/>
							<path fill="#3D5BA4" d="M261.08,8.814c-0.094,0.174-0.307,0.229-0.404,0.4c-0.049,0.044-0.1,0.082-0.168,0.032
								c-0.089-0.104-0.107-0.226-0.091-0.357c0.155-0.176,0.311-0.353,0.466-0.529c0.031-0.032,0.062-0.032,0.093-0.001
								C261.061,8.5,261.035,8.665,261.08,8.814z"/>
							<path fill="#3E5CA4" d="M260.79,9.597c0.06-0.095,0.144-0.155,0.255-0.178c0.144-0.029,0.255-0.109,0.344-0.224
								c0.255-0.082,0.255-0.082,0.232,0.247c-0.042,0.098,0.023,0.254-0.152,0.279c-0.097,0.009-0.197-0.015-0.291,0.024
								c-0.023,0.009-0.046,0.015-0.07,0.019c-0.111,0.007-0.221,0.011-0.311-0.071c-0.016-0.019-0.025-0.041-0.027-0.066
								C260.776,9.617,260.783,9.607,260.79,9.597z"/>
							<path fill="#3D5CA5" d="M258.19,9.24c0.129,0.113,0.288,0.172,0.441,0.242c0.09,0.041,0.145,0.1,0.12,0.207
								c-0.04,0.098-0.146,0.086-0.217,0.132c-0.021,0.007-0.043,0.009-0.065,0.01c-0.033,0-0.064-0.01-0.095-0.017
								c-0.021-0.004-0.041-0.01-0.061-0.018c-0.065-0.034-0.145-0.023-0.207-0.067c-0.027-0.021-0.03-0.055-0.044-0.084
								c-0.016-0.087-0.028-0.174-0.048-0.26C257.972,9.213,258.046,9.186,258.19,9.24z"/>
							<path fill="#BC1B2B" d="M260.418,8.89c0.077,0.102,0.137,0.21,0.126,0.344c-0.004,0.284-0.226,0.357-0.432,0.444
								c-0.04,0-0.076-0.013-0.109-0.034c-0.065-0.045-0.114-0.1-0.122-0.183c-0.003-0.036,0.004-0.071,0.018-0.105
								c0.049-0.07,0.123-0.123,0.151-0.21c0.026-0.034,0.058-0.062,0.092-0.087c0.044-0.029,0.087-0.058,0.144-0.052
								C260.33,8.968,260.374,8.929,260.418,8.89z"/>
							<path fill="#29A049" d="M260.449,8.313c0.034,0.066,0.159,0.051,0.139,0.18c-0.081-0.014-0.171-0.036-0.249,0.018
								c-0.025,0.023-0.053-0.007-0.079,0.004c0.031,0.004,0.055,0.023,0.078,0.043c0.11,0.143-0.026,0.097-0.085,0.111
								c-0.086,0.038-0.184-0.039-0.267,0.029c-0.03,0.029-0.066,0.052-0.088,0.089c-0.055,0.063-0.117,0.111-0.209,0.082
								c-0.068-0.063-0.059-0.149-0.07-0.229c-0.049-0.176,0.01-0.282,0.199-0.302c0.105,0.026,0.199-0.029,0.298-0.044
								c0.092-0.004,0.184-0.017,0.276-0.019C260.415,8.281,260.434,8.294,260.449,8.313z"/>
							<path fill="#3AA654" d="M259.849,8.371c-0.144,0.043-0.236,0.114-0.156,0.282c-0.045,0.062-0.103,0.098-0.182,0.091
								c-0.061-0.008-0.105-0.112-0.182-0.032c-0.058,0.015-0.113,0.01-0.165-0.021c-0.072-0.061-0.007-0.143-0.034-0.211
								c-0.009-0.043-0.017-0.086-0.001-0.129c0.022-0.043,0.06-0.066,0.102-0.084c0.052-0.012,0.107-0.038,0.147,0.023
								c0.043,0.082,0.104,0.05,0.165,0.027c0.056-0.002,0.112-0.003,0.168-0.005c0.039-0.044,0.079-0.04,0.12-0.003l0.008,0.019
								c0.02,0.006,0.028,0.015,0.024,0.026C259.86,8.365,259.855,8.371,259.849,8.371z"/>
							<path fill="#EFF1F6" d="M259.854,8.72c-0.01-0.07,0.046-0.06,0.085-0.07c0.121-0.059,0.194-0.003,0.248,0.102
								c0.015,0.023,0.03,0.046,0.045,0.069c-0.031,0.09,0.062,0.194-0.033,0.277c-0.011,0.048-0.039,0.073-0.09,0.064
								c-0.06,0.001-0.114,0.048-0.178,0.027c-0.025-0.008-0.046-0.02-0.064-0.038c-0.017-0.019-0.029-0.041-0.037-0.065
								C259.781,8.96,259.862,8.843,259.854,8.72z"/>
							<path fill="#3FA756" d="M259.849,8.371c-0.004-0.015-0.007-0.029-0.009-0.044c0.259-0.146,0.527-0.223,0.838-0.117
								c-0.054,0.112-0.144,0.102-0.229,0.103c-0.026,0-0.052-0.001-0.079-0.001c-0.09,0.041-0.196-0.016-0.281,0.049
								C260.01,8.397,259.931,8.402,259.849,8.371z"/>
							<path fill="#CECFD7" d="M258.06,9.646c0.015,0.018,0.03,0.035,0.045,0.053c0.077,0.053,0.17,0,0.249,0.038l0.001,0.017
								c0.022,0.018,0.044,0.036,0.071,0.048c0.018,0.008,0.036,0.016,0.055,0.022c0.017,0.013,0.028,0.029,0.032,0.05
								c-0.006,0.034-0.026,0.057-0.052,0.077c-0.039,0.021-0.075,0.047-0.118,0.062c-0.078,0.034-0.156,0.043-0.23-0.01
								C257.976,9.901,257.97,9.78,258.06,9.646z"/>
							<path fill="#DBDADF" d="M261.438,9.653c0.188,0.04,0.115-0.147,0.183-0.211c0.003,0.134,0.005,0.268,0.008,0.402
								c-0.04,0.031-0.086,0.05-0.134,0.067c-0.062,0.009-0.123,0.012-0.185,0c-0.036-0.006-0.07-0.02-0.101-0.04
								c-0.046-0.018-0.083-0.047-0.1-0.095c-0.004-0.024,0.001-0.046,0.014-0.067l0.008-0.022
								C261.23,9.647,261.34,9.7,261.438,9.653z"/>
							<path fill="#32A24E" d="M259.356,8.297c-0.044-0.024-0.082,0.002-0.12,0.017c-0.076,0.023-0.149,0.067-0.229,0.062
								c-0.078-0.005-0.19,0.031-0.192-0.111c0.194-0.058,0.387-0.122,0.584-0.009C259.417,8.303,259.394,8.308,259.356,8.297z"/>
							<path fill="#BE3746" d="M262.17,9.586c0.187-0.136,0.243,0.017,0.312,0.138c-0.132,0.1-0.183-0.103-0.296-0.077
								C262.148,9.636,262.142,9.616,262.17,9.586z"/>
							<path fill="#BFBFBF" d="M257.865,10.3c-0.003,0.039-0.004,0.08-0.052,0.094c-0.074,0.053-0.115,0.009-0.15-0.052
								c-0.027-0.095,0.044-0.143,0.098-0.2c0.062-0.022,0.105,0.025,0.156,0.043C257.939,10.242,257.89,10.265,257.865,10.3z"/>
							<path fill="#B0AFAF" d="M261.972,10.384c-0.124,0.002-0.187-0.062-0.197-0.183c-0.016-0.011-0.021-0.021-0.015-0.03
								c0.006-0.009,0.012-0.013,0.017-0.013C261.995,10.101,261.973,10.252,261.972,10.384z"/>
							<path fill="#C2293B" d="M259.832,8.308c-0.04,0.001-0.08,0.002-0.12,0.003c-0.011-0.03-0.021-0.059-0.032-0.089
								c-0.024-0.067-0.026-0.133,0.056-0.152c0.092-0.021,0.1,0.06,0.108,0.121C259.849,8.229,259.836,8.269,259.832,8.308z"/>
							<path fill="#66B97D" d="M260.187,8.752c-0.083-0.034-0.165-0.068-0.248-0.102c0.117-0.213,0.208,0.036,0.314,0.018
								C260.231,8.696,260.209,8.724,260.187,8.752z"/>
							<path fill="#E6F2E9" d="M258.814,8.264c0.128,0.127,0.285,0.001,0.421,0.049c-0.028,0.019-0.056,0.038-0.084,0.058
								c-0.027,0.047-0.067,0.074-0.122,0.076c-0.101-0.004-0.194-0.039-0.286-0.076l-0.006-0.009
								C258.751,8.32,258.764,8.278,258.814,8.264z"/>
							<path fill="#CDCDCE" d="M261.469,9.855c0.053-0.003,0.107-0.007,0.16-0.01c-0.04,0.078-0.071,0.157-0.043,0.247
								c-0.046-0.014-0.092-0.027-0.138-0.041c-0.025-0.004-0.042-0.018-0.051-0.042C261.382,9.939,261.423,9.896,261.469,9.855z"/>
							<path fill="#4B69A6" d="M258.155,10.137c-0.001-0.014,0.002-0.028,0.009-0.04c0.061-0.074,0.13-0.101,0.214-0.036
								c0.027,0.026,0.044,0.058,0.05,0.095c0,0.025-0.006,0.048-0.019,0.069c-0.08,0.067-0.149,0.081-0.188-0.041l-0.01,0.004
								c-0.017-0.007-0.034-0.015-0.051-0.024C258.158,10.155,258.156,10.146,258.155,10.137z"/>
							<path fill="#6E85BB" d="M258.348,10.096c-0.062-0.049-0.123-0.005-0.184,0c-0.017-0.032-0.034-0.063-0.051-0.095
								c0.079-0.017,0.158-0.034,0.237-0.052C258.396,10,258.396,10.048,258.348,10.096z"/>
							<path fill="#B8BFB9" d="M257.865,10.3c0.013-0.039,0.026-0.078,0.038-0.116c-0.001-0.01-0.001-0.021-0.002-0.031
								c0.055,0,0.117-0.024,0.154,0.042C258.016,10.272,257.951,10.304,257.865,10.3z"/>
							<path fill="#C5C5C5" d="M260.977,8.359c-0.031,0-0.062,0.001-0.093,0.001c0.006-0.015,0.008-0.033,0.018-0.044
								c0.041-0.046,0.048-0.174,0.138-0.109C261.112,8.26,260.982,8.299,260.977,8.359z"/>
							<path fill="#3C5BA4" d="M260.199,9.098c0.039-0.089-0.053-0.193,0.033-0.277c0.018,0.062,0.037,0.124,0.055,0.186
								C260.257,9.038,260.228,9.068,260.199,9.098z"/>
							<path fill="#3FA858" d="M259.356,8.297c0.014-0.014,0.028-0.028,0.042-0.041c0.049,0.02,0.097,0.041,0.146,0.061
								c-0.043,0.046-0.086,0.092-0.137,0.147C259.388,8.404,259.372,8.35,259.356,8.297z"/>
							<path fill="#CFD5D0" d="M257.663,10.342c0.05,0.017,0.1,0.034,0.15,0.052c-0.02,0.046,0.017,0.128-0.06,0.134
								c-0.031,0.002-0.066-0.055-0.1-0.085C257.657,10.409,257.66,10.376,257.663,10.342z"/>
							<path fill="#ABADB4" d="M258.315,8.753c-0.035,0.002-0.07,0.003-0.105,0.005c-0.019-0.056-0.122-0.06-0.088-0.157
								C258.187,8.656,258.273,8.674,258.315,8.753z"/>
							<path fill="#B9B9B9" d="M258.65,8.343c-0.014,0.004-0.028,0.006-0.042,0.006c-0.035-0.049-0.087-0.092-0.065-0.177
								C258.638,8.197,258.674,8.25,258.65,8.343z"/>
							<path fill="#9F9F9F" d="M262.17,9.586c0.005,0.02,0.011,0.04,0.017,0.061c-0.04,0.049-0.074,0.105-0.152,0.129
								C262.032,9.672,262.118,9.64,262.17,9.586z"/>
							<path fill="#E7F2E9" d="M260.338,8.558c-0.068-0.022-0.136-0.043-0.217-0.069c0.091-0.063,0.155-0.024,0.218,0.022
								C260.338,8.526,260.338,8.542,260.338,8.558z"/>
							<path fill="#838383" d="M257.902,10.152c-0.002,0.011-0.001,0.021,0.002,0.031c-0.056,0.016-0.097-0.021-0.143-0.041
								c-0.005-0.037-0.017-0.083,0.035-0.091C257.87,10.038,257.858,10.127,257.902,10.152z"/>
							<path fill="#9F9F9F" d="M261.675,10.15c-0.022-0.017-0.043-0.034-0.065-0.05c0.036,0.001,0.072,0.002,0.108,0.002
								c0.017,0.007,0.025,0.016,0.024,0.028c-0.001,0.014-0.004,0.02-0.008,0.02C261.714,10.165,261.694,10.165,261.675,10.15z"/>
							<path fill="#CFCFCF" d="M261.714,10.15c0.002-0.016,0.003-0.032,0.003-0.048c0.02,0.019,0.04,0.037,0.06,0.056
								c0,0.014-0.001,0.029-0.003,0.043c-0.016-0.005-0.033-0.01-0.049-0.016l-0.018-0.014L261.714,10.15z"/>
							<path fill="#2A8744" d="M258.155,10.193c-0.018-0.001-0.035-0.002-0.053-0.004c0.017-0.018,0.035-0.035,0.052-0.053v0.015
								c0.014,0.009,0.018,0.019,0.014,0.028S258.159,10.193,258.155,10.193z"/>
							<path fill="#F8FBF9" d="M261.083,10.293c0.089,0.167,0.273,0.078,0.404,0.148c0.107,0.057,0.134,0.104,0.091,0.206
								c-0.336-0.093-0.673-0.219-0.993,0.042c-0.074-0.006-0.138-0.026-0.17-0.102c-0.004-0.024-0.002-0.047,0.007-0.069
								c0.107-0.128,0.237-0.221,0.399-0.267C260.909,10.257,261.002,10.243,261.083,10.293z"/>
							<path fill="#F7FBF8" d="M258.986,10.704c-0.149-0.211-0.342-0.115-0.526-0.076c-0.072,0.016-0.141,0.046-0.214,0.059
								c-0.062,0.011-0.125,0.024-0.151-0.073c-0.034-0.124,0.069-0.08,0.111-0.099c0.127-0.057,0.299-0.007,0.383-0.164
								c0.007-0.009,0.015-0.019,0.022-0.028c0.022-0.011,0.045-0.016,0.069-0.017c0.092,0.023,0.194-0.002,0.281,0.051
								c0.073,0.052,0.138,0.11,0.162,0.202C259.115,10.642,259.095,10.714,258.986,10.704z"/>
							<path fill="#D5DBD6" d="M258.986,10.704c0.037-0.051,0.075-0.103,0.112-0.154c0.142-0.107,0.271-0.065,0.396,0.032
								c0.037,0.077-0.028,0.108-0.068,0.15c-0.035,0.032-0.081,0.037-0.123,0.052C259.188,10.795,259.085,10.758,258.986,10.704z"
								/>
							<path fill="#F4F3F4" d="M260.232,10.755c-0.018,0.034-0.047,0.043-0.083,0.039c-0.116-0.003-0.238,0.022-0.333-0.075
								c-0.009-0.04,0-0.076,0.029-0.107c0.069-0.052,0.147-0.061,0.23-0.049c0.053,0.012,0.104,0.03,0.139,0.077
								C260.235,10.675,260.238,10.714,260.232,10.755z"/>
							<path fill="#20713C" d="M258.22,10.184c0.052,0.052,0.106,0.068,0.164,0.01c0.025,0.006,0.043,0.021,0.053,0.045
								c0.015,0.073-0.018,0.117-0.084,0.142C258.198,10.39,258.12,10.347,258.22,10.184z"/>
							<path fill="#A6A5A5" d="M259.303,10.784c0.016-0.037,0.032-0.074,0.048-0.111c0.039-0.008,0.079-0.005,0.118-0.009
								c0.056-0.005,0.118-0.018,0.137,0.054c0.027,0.096-0.064,0.087-0.113,0.115C259.424,10.838,259.355,10.843,259.303,10.784z"
								/>
							<path fill="#EDEDED" d="M259.854,10.738c0.111-0.047,0.2,0.019,0.295,0.056c-0.12,0.048-0.24,0.088-0.359-0.004
								C259.786,10.742,259.799,10.715,259.854,10.738z"/>
							<path fill="#EFF7F1" d="M259.493,10.832c0.011-0.048,0.11-0.048,0.078-0.102c-0.047-0.081-0.15-0.021-0.221-0.058
								c0.049-0.013,0.098-0.026,0.148-0.04c0.046-0.043,0.098-0.041,0.152-0.017c0.061,0.048,0.08,0.108,0.049,0.181
								C259.642,10.874,259.564,10.832,259.493,10.832z"/>
							<path fill="#9CA49E" d="M260.44,10.604c0.033,0.055,0.148-0.03,0.145,0.085c-0.058,0.053-0.13,0.051-0.201,0.052
								c-0.026-0.026-0.032-0.056-0.023-0.091C260.377,10.618,260.402,10.6,260.44,10.604z"/>
							<path fill="#CCE5D3" d="M259.699,10.797c-0.019-0.05-0.038-0.101-0.057-0.151c0.068-0.067,0.135-0.067,0.202,0.001
								c0.003,0.03,0.006,0.061,0.009,0.091c-0.021,0.017-0.042,0.035-0.064,0.052C259.76,10.792,259.729,10.794,259.699,10.797z"/>
							<path fill="#E3E4E5" d="M258.407,10.237c-0.004-0.016-0.012-0.03-0.022-0.042l0.021-0.008
								c0.014-0.036,0.037-0.062,0.077-0.069c0.067,0,0.121,0.025,0.153,0.087c0.018,0.053,0.004,0.098-0.032,0.138l-0.014,0.008
								c-0.016-0.004-0.032-0.008-0.048-0.012C258.494,10.31,258.423,10.309,258.407,10.237z"/>
							<path fill="#8D948F" d="M260.387,10.643c-0.001,0.033-0.002,0.065-0.004,0.098c-0.046,0.051-0.101,0.009-0.152,0.014
								c-0.015-0.023-0.029-0.045-0.044-0.068C260.238,10.599,260.301,10.568,260.387,10.643z"/>
							<path fill="#40804D" d="M258.407,10.237c0.045,0.034,0.09,0.068,0.135,0.103c-0.063,0.014-0.126,0.028-0.189,0.042
								C258.371,10.333,258.389,10.285,258.407,10.237z"/>
							<path fill="#239E46" d="M258.155,10.193c0.001-0.014,0.001-0.028,0-0.042c0.029-0.003,0.052,0.003,0.055,0.037
								C258.192,10.19,258.173,10.191,258.155,10.193z"/>
							<path fill="#BC1C2C" d="M260.096,9.648c0.151-0.136,0.348-0.222,0.447-0.414c0.044-0.006,0.088-0.012,0.132-0.019
								c-0.001,0.099,0.038,0.204-0.047,0.29c-0.011,0.018-0.009,0.034,0.006,0.048l-0.004-0.004
								c0.029,0.023,0.046,0.052,0.049,0.089c-0.001,0.024-0.007,0.047-0.017,0.068c-0.013,0.02-0.029,0.037-0.048,0.052
								c-0.059,0.039-0.122,0.073-0.183,0.109c-0.157,0.065-0.311,0.149-0.492,0.095c-0.031-0.025-0.049-0.058-0.058-0.096
								c-0.006-0.038-0.004-0.076,0.008-0.113C259.928,9.656,259.993,9.615,260.096,9.648z"/>
							<path fill="#A7989E" d="M260.672,9.555c0.045-0.003,0.089,0.001,0.118,0.042l-0.018,0.01
								c-0.005,0.02-0.014,0.037-0.027,0.052c-0.009,0.003-0.019,0.007-0.028,0.01c-0.021-0.001-0.038-0.01-0.05-0.027
								C260.66,9.613,260.658,9.584,260.672,9.555z"/>
							<path fill="#DFDFDF" d="M260.672,9.555c0.001,0.026,0.001,0.053,0.002,0.079c-0.01,0.011-0.02,0.022-0.03,0.034
								c-0.002-0.015-0.004-0.03-0.007-0.044c-0.002-0.025-0.004-0.05-0.006-0.074C260.645,9.549,260.659,9.551,260.672,9.555z"/>
							<path fill="#EFEFEF" d="M260.635,9.553c-0.013-0.01-0.026-0.019-0.039-0.029c0.011-0.006,0.022-0.013,0.032-0.019
								C260.632,9.52,260.634,9.536,260.635,9.553z"/>
							<path fill="#BA404F" d="M258.911,9.218c0.04,0.019,0.08,0.033,0.11-0.018c0.026-0.003,0.047,0.005,0.063,0.027
								c0.047,0.089,0.019,0.17-0.025,0.249c-0.034,0.052-0.051,0.117-0.112,0.149c-0.053,0.018-0.1,0.013-0.136-0.035
								C258.894,9.48,258.877,9.342,258.911,9.218z"/>
							<path fill="#B1B1B9" d="M258.499,9.797c0.052-0.11,0.155-0.1,0.251-0.108c0.01,0.007,0.022,0.012,0.034,0.015
								c0.026,0.009,0.042,0.027,0.048,0.053c0.007,0.069-0.018,0.124-0.071,0.167c-0.055,0.034-0.112,0.04-0.173,0.019
								c-0.019-0.008-0.036-0.021-0.049-0.036c-0.014-0.028,0.02-0.069-0.025-0.089C258.509,9.811,258.504,9.804,258.499,9.797z"/>
							<path fill="#BF1E30" d="M258.805,9.744c-0.007-0.013-0.014-0.027-0.021-0.04c0.009-0.038,0.018-0.075,0.027-0.113
								c0.048,0,0.097,0,0.145,0.001c0.068,0.005,0.073,0.049,0.064,0.102c-0.033,0.062-0.091,0.075-0.153,0.082
								C258.842,9.773,258.821,9.763,258.805,9.744z"/>
							<path fill="#BB202E" d="M259.046,9.206l-0.012-0.008l-0.014,0.003c-0.005-0.13,0.063-0.212,0.173-0.267
								c0.049-0.017,0.089,0.004,0.127,0.032c0.041,0.036,0.063,0.09,0.113,0.117c0.019,0.011,0.036,0.024,0.051,0.039
								c0.039,0.037,0.066,0.083,0.099,0.125c0.026,0.033,0.051,0.068,0.084,0.096c0.017,0.016,0.031,0.033,0.044,0.052
								c0.02,0.03,0.034,0.062,0.043,0.096c0.012,0.076,0.013,0.149-0.04,0.212c-0.019,0.017-0.042,0.028-0.067,0.034
								c-0.244-0.011-0.409-0.162-0.567-0.323C259.055,9.347,259.102,9.268,259.046,9.206z"/>
							<path fill="#F3F2F3" d="M259.28,9.001c-0.029-0.022-0.057-0.045-0.086-0.067c-0.066-0.046-0.145-0.081-0.141-0.181
								c0.021-0.042,0.004-0.123,0.095-0.096c0.065-0.003,0.131-0.007,0.196-0.01c0.067-0.018,0.073,0.033,0.086,0.076
								c0.001,0.023-0.003,0.045-0.011,0.067C259.356,8.849,259.391,8.973,259.28,9.001z"/>
							<path fill="#F7FBF8" d="M259.147,8.656c-0.032,0.032-0.063,0.064-0.095,0.096c-0.051-0.048-0.103-0.095-0.154-0.143
								c-0.026-0.029-0.03-0.061-0.017-0.097c0.1-0.049,0.2-0.095,0.315-0.051C259.387,8.578,259.101,8.576,259.147,8.656z"/>
							<path fill="#E9EDF0" d="M258.907,8.493c-0.003,0.039-0.006,0.077-0.009,0.116c-0.09-0.055-0.113-0.153-0.155-0.239
								c0.102-0.009,0.206-0.03,0.304,0.021C259.039,8.479,258.97,8.481,258.907,8.493z"/>
							<path fill="#F3F4F3" d="M261.083,10.293c-0.081,0.05-0.163,0.054-0.245,0.002c-0.016-0.018-0.02-0.038-0.013-0.061
								c0.041-0.06,0.112-0.07,0.171-0.1c0.054-0.017,0.108-0.026,0.163-0.008c0.008,0.007,0.017,0.014,0.025,0.022
								C261.181,10.217,261.142,10.262,261.083,10.293z"/>
							<path fill="#F9F9F9" d="M261.244,9.797c0.012,0.015,0.023,0.031,0.035,0.046c0.048,0.054,0.116,0.095,0.117,0.181
								c-0.027,0.095-0.07,0.169-0.188,0.143c-0.011-0.003-0.019-0.009-0.024-0.019l-0.001-0.003
								c-0.03-0.024-0.044-0.056-0.047-0.093c0-0.049,0.021-0.094,0.025-0.142C261.17,9.858,261.201,9.823,261.244,9.797z"/>
							<path fill="#6B7E79" d="M261.207,10.166c0.08-0.031,0.125-0.098,0.17-0.165c0.015-0.019,0.03-0.019,0.047-0.003
								c0.008,0.017,0.017,0.035,0.025,0.052c-0.006,0.046-0.013,0.092-0.019,0.139c-0.055,0.068-0.133,0.014-0.196,0.037
								C261.225,10.206,261.216,10.186,261.207,10.166z"/>
							<path fill="#3A7147" d="M261.234,10.226c0.065-0.012,0.131-0.025,0.196-0.037c0.088,0.03,0.088,0.074,0.005,0.102
								C261.359,10.317,261.292,10.275,261.234,10.226z"/>
							<path fill="#7F8080" d="M261.714,10.15c0.006,0.011,0.009,0.023,0.011,0.035c-0.017-0.012-0.033-0.024-0.05-0.036
								C261.688,10.148,261.701,10.148,261.714,10.15z"/>
							<path fill="#FDFDFD" d="M261.122,9.711l0.007,0.009c-0.021,0.091-0.101,0.1-0.172,0.122c-0.038,0.006-0.074,0.002-0.11-0.013
								c-0.046-0.025-0.072-0.064-0.081-0.115c0-0.024,0.008-0.046,0.023-0.065C260.901,9.67,261.012,9.69,261.122,9.711z"/>
							<path fill="#4B5A7D" d="M261.438,9.653c-0.095,0.073-0.203,0.04-0.307,0.036C261.227,9.626,261.335,9.656,261.438,9.653z"/>
							<path fill="#D38091" d="M260.791,9.649c0.004,0.016,0.009,0.033,0.013,0.049c-0.01,0.005-0.019,0.011-0.029,0.016
								c-0.011-0.002-0.022-0.003-0.033-0.005c-0.007-0.009-0.014-0.017-0.021-0.026c0.004-0.01,0.008-0.021,0.011-0.031
								c0.014-0.015,0.027-0.031,0.041-0.046C260.779,9.621,260.785,9.635,260.791,9.649z"/>
							<path fill="#4B5C82" d="M258.355,9.737c-0.086,0.008-0.173,0.023-0.249-0.038C258.189,9.709,258.279,9.673,258.355,9.737z"/>
							<path fill="#EAEAEA" d="M258.398,9.847c-0.014-0.031-0.028-0.062-0.042-0.093c0.043-0.01,0.08-0.005,0.097,0.044
								c-0.003,0.008-0.007,0.016-0.01,0.024C258.426,9.828,258.411,9.836,258.398,9.847z"/>
							<path fill="#FFFFFF" d="M258.501,9.846l-0.02-0.002l-0.02,0.002c-0.018-0.009-0.025-0.019-0.021-0.031
								s0.009-0.019,0.014-0.019l-0.003,0.001c0.016-0.001,0.031-0.001,0.047-0.001l-0.002,0.013
								c0.009,0.005,0.017,0.01,0.026,0.016C258.515,9.833,258.508,9.839,258.501,9.846z"/>
							<path fill="#BBBABC" d="M259.891,9.151c0.018,0.004,0.036,0.008,0.054,0.012c0.061,0.067,0.045,0.132-0.006,0.195
								c0,0.022,0,0.043,0.001,0.065c-0.006,0.026-0.022,0.043-0.046,0.052c-0.078,0.008-0.146-0.017-0.206-0.064
								c-0.029-0.04-0.049-0.083-0.03-0.134c0.039-0.086,0.147-0.056,0.201-0.119C259.869,9.156,259.88,9.153,259.891,9.151z"/>
							<path fill="#8B95BE" d="M259.939,9.358c0.002-0.065,0.004-0.13,0.006-0.195c0.054-0.04,0.109-0.069,0.164-0.001
								C260.094,9.263,260.044,9.334,259.939,9.358z"/>
							<path fill="#95182E" d="M259.892,9.456c0.016-0.011,0.032-0.022,0.048-0.033c-0.006,0.081,0.052,0.124,0.102,0.171
								c-0.064,0.042-0.08,0.112-0.101,0.178c-0.001,0.025-0.003,0.051-0.004,0.076c-0.038,0.011-0.064-0.008-0.086-0.036
								c-0.034-0.06-0.041-0.126-0.048-0.193c0.001-0.045,0.016-0.086,0.039-0.125C259.854,9.478,259.872,9.465,259.892,9.456z"/>
							<path fill="#8B8082" d="M259.94,9.773c0.005-0.076-0.01-0.163,0.101-0.178c0.018,0.018,0.037,0.036,0.055,0.053
								C260.041,9.685,259.966,9.698,259.94,9.773z"/>
							<path fill="#F2F4F8" d="M259.691,9.245c0.001,0.051,0.003,0.102,0.004,0.153c-0.012,0.021-0.027,0.024-0.046,0.009
								l-0.012-0.006c-0.044-0.069-0.046-0.157-0.098-0.223c-0.034-0.031-0.073-0.026-0.113-0.02l-0.018-0.01
								c-0.093-0.126-0.081-0.256-0.017-0.389l0.015-0.018c0.029-0.018,0.065-0.017,0.096-0.029
								c0.053-0.055,0.126-0.047,0.191-0.062c0.054,0.062-0.016,0.129,0.009,0.192c0.042,0.025,0.072,0.059,0.077,0.111
								c-0.006,0.07-0.013,0.139-0.024,0.209C259.744,9.199,259.72,9.224,259.691,9.245z"/>
							<path fill="#BFBFBF" d="M259.732,8.953c-0.01-0.036-0.02-0.072-0.029-0.109c0.047-0.045,0.146-0.029,0.152-0.124
								c0.062,0.124,0.023,0.257,0.039,0.385C259.773,9.124,259.741,9.051,259.732,8.953z"/>
							<path fill="#70BC84" d="M260.089,8.361c0.08-0.094,0.181-0.07,0.281-0.049C260.287,8.388,260.184,8.35,260.089,8.361z"/>
							<path fill="#4CAB60" d="M258.907,8.493c0.047-0.034,0.093-0.068,0.14-0.102c0.035-0.007,0.069-0.013,0.104-0.02
								c0.015,0.03,0.03,0.06,0.045,0.091C259.098,8.455,259.019,8.622,258.907,8.493z"/>
							<path fill="#85C596" d="M259.502,8.714c-0.032,0.01-0.064,0.019-0.096,0.029c0-0.046-0.009-0.086-0.063-0.097
								c0.053-0.053,0.117-0.079,0.195-0.079C259.556,8.625,259.42,8.645,259.502,8.714z"/>
							<path fill="#E0DFE0" d="M259.732,8.953c0.054,0.051,0.107,0.101,0.161,0.152c0.002,0.015,0.001,0.03-0.002,0.046l0.001,0.001
								c-0.065,0.054-0.132,0.056-0.201,0.006C259.694,9.087,259.676,9.013,259.732,8.953z"/>
							<path fill="#FAFBFC" d="M258.454,10.142c-0.016,0.015-0.032,0.03-0.049,0.044c-0.019-0.03-0.038-0.06-0.057-0.09
								c0.001-0.049,0.001-0.097,0.002-0.146c0.032-0.018,0.064-0.036,0.096-0.055c0.019,0.01,0.032,0.024,0.039,0.044
								c0.004,0.051,0.002,0.101,0.002,0.152C258.481,10.112,258.47,10.129,258.454,10.142z"/>
							<path fill="#757B8C" d="M258.447,9.947c0-0.017,0-0.034-0.001-0.051c0.018-0.016,0.036-0.033,0.055-0.049l0.003,0.001
								c0.02-0.024,0.033-0.021,0.041,0.009c0.003,0.013,0.008,0.026,0.014,0.039C258.553,9.979,258.505,9.975,258.447,9.947z"/>
							<path fill="#9F9F9F" d="M258.455,9.797c0.002,0.017,0.004,0.033,0.006,0.05c-0.021,0-0.042,0-0.064,0.001
								C258.417,9.83,258.436,9.813,258.455,9.797z"/>
							<path fill="#A2A4AB" d="M260.929,9.796c0.048-0.075,0.144-0.024,0.201-0.076c0.038,0.025,0.076,0.051,0.114,0.076
								c-0.006,0.053-0.013,0.106-0.019,0.159c-0.067,0.053-0.136,0.02-0.204,0.002c-0.047-0.019-0.082-0.049-0.104-0.095
								C260.91,9.839,260.914,9.817,260.929,9.796z"/>
							<path fill="#5C6475" d="M261.424,9.999c-0.016,0-0.031,0.001-0.047,0.003c-0.107-0.007-0.096-0.087-0.098-0.158
								c0.063,0.004,0.127,0.008,0.19,0.012C261.454,9.903,261.439,9.951,261.424,9.999z"/>
							<path fill="#299E48" d="M260.819,10.255c0.003,0.015,0.009,0.028,0.019,0.04c-0.149,0.059-0.234,0.22-0.401,0.251
								c-0.102,0.104-0.243,0.053-0.362,0.089c-0.077,0.004-0.154,0.008-0.231,0.012c-0.067,0-0.135-0.001-0.202-0.001
								c-0.048-0.004-0.096-0.009-0.144-0.013c-0.133-0.028-0.267-0.055-0.4-0.083c-0.115-0.002-0.118-0.108-0.163-0.175
								c-0.052-0.011-0.114-0.013-0.105-0.094c0.009-0.034,0.027-0.062,0.053-0.086c0.047-0.038,0.102-0.055,0.162-0.051
								c0.065,0.016,0.131,0.028,0.197,0.042c0.068,0.032,0.139,0.054,0.215,0.061c0.096,0.02,0.172,0.082,0.263,0.114
								c0.075,0.009,0.149,0.015,0.207-0.048c0.052-0.046,0.103-0.091,0.166-0.122c0.033-0.015,0.069-0.018,0.104-0.02
								c0.127-0.009,0.256,0.014,0.381-0.026c0.021-0.002,0.043-0.001,0.064,0.004c0.045,0.022,0.096,0.017,0.144,0.028
								C260.814,10.196,260.83,10.22,260.819,10.255z"/>
							<path fill="#EDF3EE" d="M260.075,10.635c0.121-0.03,0.241-0.06,0.362-0.089c0.001,0.019,0.002,0.039,0.002,0.058
								c-0.017,0.013-0.035,0.026-0.052,0.039c-0.066,0.015-0.133,0.029-0.199,0.044C260.15,10.669,260.113,10.652,260.075,10.635z"
								/>
							<path fill="#CFD8CF" d="M258.898,10.243c-0.015,0.019-0.03,0.039-0.044,0.058c-0.061,0.076-0.135,0.084-0.219,0.041
								l-0.015,0.006l-0.016-0.004c0.001-0.047,0.002-0.093,0.002-0.14c0.012-0.02,0.029-0.032,0.051-0.038
								c0.066,0.002,0.133,0.001,0.196,0.029C258.873,10.206,258.888,10.223,258.898,10.243z"/>
							<path fill="#6D9878" d="M258.635,10.342c0.073-0.014,0.146-0.027,0.219-0.041c0.027,0.025,0.054,0.049,0.081,0.074
								C258.836,10.359,258.725,10.443,258.635,10.342z"/>
							<path fill="#364A7E" d="M258.649,10.196h-0.022l-0.021,0.007c-0.051-0.02-0.102-0.041-0.152-0.061
								c-0.003-0.019-0.007-0.038-0.01-0.056c0.035-0.124,0.147-0.115,0.24-0.139c0.026,0,0.051,0.001,0.077,0.003
								c0.071,0.017,0.112,0.061,0.123,0.133c0,0.026-0.007,0.05-0.021,0.072C258.8,10.211,258.721,10.186,258.649,10.196z"/>
							<path fill="#B61F2C" d="M259.943,9.944c0.164-0.049,0.328-0.099,0.493-0.148c0.091-0.024,0.138,0.034,0.185,0.096
								c0.016,0.037,0.02,0.076,0.013,0.116c-0.019,0.07-0.066,0.115-0.132,0.141c-0.051,0.015-0.103,0.016-0.155,0.009
								c-0.082-0.028-0.165-0.046-0.253-0.036c-0.051-0.001-0.099-0.013-0.14-0.045c-0.029-0.028-0.041-0.062-0.032-0.102
								C259.928,9.964,259.936,9.954,259.943,9.944z"/>
							<path fill="#FEFDFD" d="M259.882,9.801c0.018,0.016,0.036,0.032,0.054,0.048c0.002,0.032,0.005,0.064,0.007,0.095
								l-0.013-0.003c-0.061,0.061-0.127,0.068-0.198,0.018c-0.04-0.053-0.041-0.108-0.006-0.165
								C259.78,9.752,259.832,9.753,259.882,9.801z"/>
							<path fill="#F0EEEF" d="M260.583,9.902c-0.088,0.018-0.104-0.063-0.147-0.106c0.021-0.071,0.099-0.057,0.142-0.096
								c0.048,0.045,0.139,0.056,0.122,0.153C260.672,9.897,260.639,9.927,260.583,9.902z"/>
							<path fill="#A28489" d="M260.688,9.844c-0.029-0.054-0.118-0.062-0.11-0.144c0.014-0.01,0.029-0.014,0.046-0.012
								c0.018-0.01,0.038-0.014,0.059-0.015c0.022,0,0.039,0.008,0.054,0.023l0.005-0.004c0.011,0.016,0.021,0.032,0.031,0.049
								c0.005,0.019,0.006,0.038,0.003,0.057c-0.007,0.019-0.018,0.034-0.033,0.047C260.723,9.856,260.705,9.855,260.688,9.844z"/>
							<path fill="#A7989E" d="M260.683,9.697c-0.02-0.003-0.04-0.006-0.06-0.009c0.005-0.022,0.009-0.043,0.014-0.065
								c0.012,0.004,0.024,0.007,0.036,0.011c0.006,0.007,0.012,0.015,0.019,0.022C260.704,9.673,260.702,9.687,260.683,9.697z"/>
							<path fill="#7D7073" d="M260.683,9.697c0.001-0.014,0.005-0.028,0.01-0.041c0.013-0.003,0.026-0.004,0.039-0.003
								c0.002,0.015,0.004,0.029,0.005,0.044C260.719,9.697,260.701,9.697,260.683,9.697z"/>
							<path fill="#999999" d="M259.001,9.695C259,9.654,259,9.613,258.956,9.592c-0.008-0.052-0.011-0.102,0.046-0.131
								c0.047-0.011,0.091-0.005,0.126,0.032c0.043,0.063,0.063,0.126,0.002,0.19C259.089,9.71,259.048,9.727,259.001,9.695z"/>
							<path fill="#FDF6F7" d="M259.09,9.497c-0.029-0.012-0.059-0.024-0.088-0.037c0.015-0.085,0.029-0.17,0.044-0.255
								c0.104,0.039,0.026,0.134,0.06,0.195C259.128,9.437,259.124,9.469,259.09,9.497z"/>
							<path fill="#D3B4B8" d="M258.805,9.744c0.017,0.001,0.032-0.003,0.047-0.009c0.044,0.012,0.093,0.015,0.128,0.05
								c0.041,0.048,0.059,0.103,0.054,0.166c-0.017,0.068-0.029,0.141-0.116,0.157c-0.062-0.04-0.069-0.138-0.158-0.15
								c-0.016-0.016-0.021-0.036-0.014-0.058C258.765,9.848,258.785,9.796,258.805,9.744z"/>
							<path fill="#546AA6" d="M258.745,9.901l0.008,0.023c0.003,0.012,0.007,0.024,0.01,0.036
								c-0.023,0.009-0.045,0.021-0.065,0.035c-0.085,0.031-0.169,0.061-0.254,0.092c-0.048-0.047-0.039-0.093,0.003-0.139
								c0.037-0.017,0.074-0.035,0.112-0.052C258.62,9.897,258.683,9.899,258.745,9.901z"/>
							<path fill="#C8C7C7" d="M258.544,9.856c-0.014-0.003-0.027-0.006-0.041-0.009c-0.004-0.012-0.006-0.024-0.006-0.037
								c0.021,0.002,0.042,0.005,0.062,0.007C258.554,9.83,258.549,9.843,258.544,9.856z"/>
							<path fill="#B36070" d="M258.936,9.782c-0.038,0.002-0.067-0.012-0.084-0.047c0.038-0.056,0.098-0.031,0.149-0.04
								c0.036-0.009,0.072-0.018,0.108-0.027c0.023,0.031,0.027,0.064,0.015,0.1C259.068,9.856,259.001,9.805,258.936,9.782z"/>
							<path fill="#BD192A" d="M259.112,9.742c-0.001-0.025-0.002-0.05-0.002-0.075c0.054-0.063-0.035-0.111-0.019-0.17
								c0.005-0.032,0.011-0.065,0.016-0.097c0.18,0.1,0.36,0.199,0.54,0.299c0.055,0.056,0.047,0.125,0.04,0.193
								c-0.014,0.059-0.053,0.091-0.11,0.106c-0.052,0.01-0.101,0.001-0.148-0.022c-0.079-0.047-0.16-0.089-0.246-0.123
								C259.138,9.83,259.119,9.79,259.112,9.742z"/>
							<path fill="#BAC3DE" d="M259.391,8.761c0.006,0.13,0.011,0.259,0.017,0.389c-0.078-0.019-0.11-0.078-0.129-0.149
								C259.321,8.923,259.252,8.793,259.391,8.761z"/>
							<path fill="#92A2CB" d="M259.426,9.159c0.032-0.043-0.013-0.13,0.063-0.137c0.033-0.003,0.071,0.053,0.107,0.082
								c0.007,0.065,0.091,0.151-0.047,0.177C259.482,9.266,259.459,9.208,259.426,9.159z"/>
							<path fill="#AEA7A9" d="M259.887,9.492c0.016,0.046,0.017,0.087-0.034,0.114c-0.036,0.056-0.041,0.137-0.123,0.158
								c-0.039-0.008-0.064-0.025-0.044-0.07c-0.002-0.08-0.004-0.16-0.007-0.241C259.759,9.417,259.823,9.454,259.887,9.492z"/>
							<path fill="#CE697D" d="M259.687,9.693c0.013,0.018,0.025,0.037,0.038,0.055c0.03,0.008,0.038,0.026,0.021,0.053
								c0,0.047,0.001,0.095,0.001,0.142c0.013,0.045-0.011,0.06-0.051,0.062c-0.048-0.026-0.026-0.083-0.052-0.118
								c0.001-0.063,0.001-0.125,0.002-0.188C259.66,9.697,259.674,9.695,259.687,9.693z"/>
							<path fill="#FDFDFD" d="M259.887,9.492c-0.076,0.023-0.141-0.009-0.207-0.04c-0.01-0.015-0.021-0.03-0.031-0.044
								c0.015-0.004,0.03-0.007,0.046-0.009c0.069,0.007,0.149-0.025,0.196,0.057C259.893,9.468,259.891,9.48,259.887,9.492z"/>
							<path fill="#3C5BA4" d="M259.549,9.281c0.055-0.048,0.046-0.114,0.047-0.177c0.08,0.09,0.047,0.196,0.042,0.298
								C259.59,9.375,259.543,9.347,259.549,9.281z"/>
							<path fill="#38569C" d="M261.186,10.038c-0.001,0.035-0.002,0.071-0.003,0.106c-0.044,0.042-0.091,0.07-0.153,0.042
								c-0.08-0.01-0.164,0.029-0.241-0.022c-0.022-0.014-0.037-0.033-0.044-0.059c-0.012-0.075,0.019-0.128,0.085-0.162
								c0.053-0.02,0.107-0.018,0.16-0.003C261.061,9.961,261.161,9.924,261.186,10.038z"/>
							<path fill="#41855C" d="M260.782,10.143c0.082,0.016,0.176-0.035,0.248,0.043c-0.056,0.066-0.141,0.045-0.211,0.069
								c-0.018-0.025-0.036-0.051-0.054-0.076C260.761,10.162,260.767,10.15,260.782,10.143z"/>
							<path fill="#40527F" d="M261.186,10.038c-0.054-0.059-0.127-0.039-0.193-0.049c-0.039-0.056,0.009-0.068,0.044-0.087
								c0.075-0.025,0.124,0.041,0.188,0.053C261.225,9.989,261.229,10.025,261.186,10.038z"/>
							<path fill="#D9C6C9" d="M260.74,9.798c0.001-0.018,0.001-0.035,0.002-0.053c0.009-0.016,0.021-0.031,0.035-0.043
								c0.009,0,0.018-0.001,0.026-0.003c0.015,0.033,0.03,0.065,0.045,0.098c-0.005,0.007-0.011,0.014-0.016,0.021
								c-0.016,0.008-0.033,0.012-0.051,0.011C260.764,9.824,260.75,9.813,260.74,9.798z"/>
							<path fill="#F7F7F7" d="M260.929,9.796c0.005,0.014,0.008,0.028,0.008,0.043c-0.011,0.019-0.028,0.031-0.049,0.036
								c-0.011-0.001-0.021-0.002-0.032-0.002c-0.009-0.005-0.019-0.01-0.028-0.015c-0.013-0.019-0.014-0.038-0.003-0.058
								l0.024-0.003C260.875,9.796,260.902,9.796,260.929,9.796z"/>
							<path fill="#9B3046" d="M260.777,9.702c0.01,0.032-0.011,0.039-0.035,0.043c0-0.017-0.001-0.034-0.001-0.051
								C260.753,9.696,260.765,9.699,260.777,9.702z"/>
							<path fill="#EEEEEE" d="M259.691,9.158c0.067-0.002,0.134-0.004,0.201-0.006c-0.012,0.15-0.084,0.17-0.201,0.093
								C259.691,9.216,259.691,9.187,259.691,9.158z"/>
							<path fill="#D9C0C2" d="M259.747,9.801c-0.007-0.018-0.014-0.035-0.021-0.053c0.019-0.069,0.043-0.134,0.129-0.143
								c0.053,0.059,0.063,0.124,0.028,0.196C259.837,9.801,259.792,9.801,259.747,9.801z"/>
							<path fill="#495798" d="M260.879,9.854c0.019-0.005,0.038-0.01,0.057-0.015c0.033,0.021,0.066,0.042,0.099,0.063
								c-0.015,0.029-0.029,0.058-0.044,0.087c-0.058-0.001-0.115-0.001-0.173-0.002c-0.021-0.026-0.023-0.054-0.013-0.085
								C260.821,9.872,260.853,9.868,260.879,9.854z"/>
							<path fill="#F0F2F1" d="M260.488,10.103c0.033-0.035,0.066-0.07,0.099-0.106c0.128,0.033,0.102,0.097,0.034,0.17
								c-0.123,0.135-0.281,0.065-0.426,0.071c-0.014-0.012-0.02-0.025-0.018-0.039c0.002-0.015,0.005-0.022,0.009-0.022
								C260.274,10.1,260.395,10.157,260.488,10.103z"/>
							<path fill="#D3CE3B" d="M260.09,10.255c-0.04,0.046-0.08,0.092-0.12,0.137c-0.03,0.03-0.063,0.024-0.097,0.008
								c-0.048-0.024-0.073-0.063-0.082-0.115c-0.003-0.039,0.005-0.076,0.024-0.11c0.043-0.057,0.099-0.081,0.17-0.066
								C260.052,10.135,260.089,10.181,260.09,10.255z"/>
							<path fill="#C9D7CB" d="M258.895,10.093c0.074-0.023,0.047-0.108,0.09-0.15c0.01,0.001,0.021,0.003,0.031,0.004
								c0.039,0.023,0.061,0.058,0.073,0.1c0.008,0.044,0.003,0.085-0.033,0.116c-0.053,0.026-0.105,0.052-0.158,0.079
								c-0.022-0.003-0.043-0.006-0.065-0.009c-0.019-0.032-0.014-0.062,0.006-0.091c0.007-0.016,0.013-0.031,0.02-0.047
								C258.869,10.07,258.88,10.07,258.895,10.093z"/>
							<path fill="#309745" d="M260.09,10.255c-0.037-0.037-0.074-0.074-0.111-0.111c-0.012-0.014-0.027-0.025-0.044-0.033
								c-0.01-0.017-0.012-0.035-0.007-0.053c0.008-0.005,0.016-0.01,0.024-0.014c0.049,0.003,0.097,0.006,0.146,0.009
								c0.037,0.025,0.084,0.038,0.108,0.08c0.007,0.023,0.003,0.044-0.013,0.063c-0.004,0.015-0.003,0.03,0.003,0.044
								C260.16,10.244,260.125,10.249,260.09,10.255z"/>
							<path fill="#849287" d="M259.439,10.312c-0.088,0.047-0.143-0.023-0.208-0.058c0.016-0.056,0.058-0.088,0.109-0.111
								c0.039-0.014,0.08-0.016,0.121-0.012c0.073,0.013,0.129,0.045,0.147,0.123C259.578,10.348,259.502,10.31,259.439,10.312z"/>
							<path fill="#EDF2EE" d="M259.332,10.202c-0.014,0.056-0.062,0.043-0.101,0.051c-0.063-0.021-0.148,0.001-0.175-0.089
								c-0.003-0.039-0.007-0.079-0.01-0.119c0.043-0.031,0.084-0.015,0.125,0.003C259.224,10.1,259.308,10.12,259.332,10.202z"/>
							<path fill="#BFAFB1" d="M260.621,10.168c-0.001-0.059,0.048-0.127-0.034-0.17c-0.002-0.032-0.003-0.063-0.005-0.095
								c0.035-0.02,0.07-0.039,0.105-0.059c0.019-0.002,0.038-0.003,0.056-0.005c0.006,0.01,0.012,0.019,0.018,0.029
								c0.006,0.023,0.005,0.045,0,0.068c-0.041,0.07-0.006,0.161-0.064,0.225C260.673,10.163,260.647,10.165,260.621,10.168z"/>
							<path fill="#DBE1DB" d="M260.698,10.161c-0.022-0.09-0.024-0.179,0.023-0.264c0.102,0.058,0,0.166,0.056,0.235l0.005,0.011
								c-0.01,0.01-0.016,0.021-0.016,0.035C260.744,10.17,260.708,10.213,260.698,10.161z"/>
							<path fill="#3C7944" d="M259.439,10.312c0.064-0.019,0.142,0,0.187-0.07c0.01,0.001,0.02,0.002,0.031,0.003
								c0.008,0.007,0.016,0.013,0.024,0.02c0.026,0.034,0.039,0.072,0.041,0.114c-0.003,0.021-0.011,0.039-0.026,0.054
								C259.61,10.393,259.525,10.352,259.439,10.312z"/>
							<path fill="#BBBCBB" d="M259.696,10.433c0-0.01,0-0.021-0.001-0.031c0.06-0.079,0.129-0.048,0.198-0.017
								c0.026,0.002,0.051,0.005,0.077,0.007C259.89,10.488,259.791,10.445,259.696,10.433z"/>
							<path fill="#239E46" d="M258.84,10.143c-0.002,0.03-0.004,0.06-0.006,0.091c-0.062-0.012-0.139,0.051-0.185-0.038
								C258.697,10.124,258.777,10.165,258.84,10.143z"/>
							<path fill="#A74A53" d="M258.895,10.093l-0.017,0.004h-0.018c-0.034-0.035-0.068-0.069-0.102-0.104
								c-0.019-0.009-0.026-0.024-0.02-0.044c0.007-0.007,0.012-0.015,0.015-0.025C258.894,9.901,258.935,9.963,258.895,10.093z"/>
							<path fill="#2D437A" d="M258.738,9.948c0.009,0.014,0.015,0.029,0.02,0.044c-0.02,0-0.04,0.001-0.059,0.001
								C258.712,9.979,258.725,9.964,258.738,9.948z"/>
							<path fill="#C9B0B4" d="M259.702,10.004c0.015-0.02,0.03-0.041,0.046-0.061c0.061-0.001,0.122-0.001,0.183-0.002
								c0.007,0.034,0.014,0.068,0.021,0.101l-0.015,0.016c-0.057,0.043-0.118,0.064-0.19,0.041
								c-0.021-0.009-0.039-0.021-0.055-0.038C259.681,10.041,259.684,10.021,259.702,10.004z"/>
							<path fill="#249A46" d="M260.192,10.194c-0.001-0.012-0.002-0.023-0.003-0.035c0.024-0.083,0.075-0.106,0.154-0.07
								c0.048,0.005,0.097,0.009,0.145,0.014C260.406,10.189,260.303,10.204,260.192,10.194z"/>
							<path fill="#636951" d="M260.343,10.09c-0.051,0.023-0.102,0.046-0.154,0.07c-0.031-0.036-0.062-0.072-0.092-0.108
								C260.183,10.042,260.267,10.042,260.343,10.09z"/>
							<path fill="#FFFFFF" d="M260.74,9.798c0.017,0,0.033-0.001,0.05-0.001c0.011,0.012,0.016,0.024,0.013,0.037
								s-0.006,0.02-0.009,0.02c-0.021,0.011-0.039,0.007-0.054-0.012c0,0,0.003-0.003,0.004-0.003
								C260.734,9.826,260.733,9.812,260.74,9.798z"/>
							<path fill="#DDD7D8" d="M259.112,9.742c0.026,0.018,0.052,0.037,0.079,0.055c0.035,0.029,0.04,0.066,0.028,0.108
								c-0.052,0.08-0.118,0.107-0.205,0.054c-0.009-0.006-0.018-0.011-0.028-0.016c-0.017-0.054-0.033-0.108-0.05-0.161
								C258.98,9.703,259.064,9.805,259.112,9.742z"/>
							<path fill="#B4222C" d="M259.013,9.959c0.066-0.002,0.126-0.018,0.176-0.064c0.083-0.053,0.167-0.029,0.251-0.003
								c0.036,0.019,0.072,0.037,0.108,0.056c0.033,0.032,0.097,0.016,0.111,0.075c-0.004,0.025-0.015,0.046-0.034,0.062
								c-0.066,0.038-0.14,0.045-0.213,0.057c-0.088,0.002-0.177,0.009-0.258-0.039c-0.036-0.019-0.072-0.039-0.108-0.058
								C259.035,10.017,259.024,9.988,259.013,9.959z"/>
							<path fill="#94262D" d="M259.441,9.892c-0.084,0.001-0.167,0.002-0.251,0.003c0-0.032,0-0.065,0.001-0.097
								C259.281,9.811,259.368,9.832,259.441,9.892z"/>
							<path fill="#932431" d="M259.644,10.036c-0.032-0.03-0.064-0.059-0.096-0.089c0.041-0.006,0.078-0.019,0.097-0.06
								c0.019,0.039,0.038,0.078,0.057,0.117c-0.006,0.011-0.012,0.021-0.018,0.032C259.671,10.053,259.658,10.053,259.644,10.036z"
								/>
							<path fill="#BA3141" d="M260.74,9.842c0.014,0.002,0.027,0.001,0.04-0.003c0.021-0.015,0.039-0.013,0.057,0.006h-0.004
								c0.014,0.01,0.02,0.021,0.016,0.032c-0.004,0.012-0.008,0.017-0.013,0.017c-0.005,0.031-0.011,0.062-0.016,0.093
								c-0.014,0.048-0.028,0.097-0.043,0.145c-0.073-0.066-0.039-0.157-0.056-0.235C260.727,9.878,260.734,9.86,260.74,9.842z"/>
							<path fill="#7F8080" d="M260.837,9.844c-0.019-0.002-0.038-0.004-0.057-0.006c0.003-0.014,0.006-0.028,0.01-0.042
								c0.012,0.002,0.023,0.003,0.035,0.002C260.832,9.813,260.836,9.828,260.837,9.844z"/>
							<path fill="#434C63" d="M260.836,9.894c-0.001-0.017-0.002-0.033-0.003-0.05c0.017-0.001,0.032,0.003,0.047,0.01
								C260.865,9.867,260.85,9.881,260.836,9.894z"/>
							<path fill="#969629" d="M259.835,10.188c0.001,0.032,0.001,0.064,0.002,0.096c-0.084,0.084-0.142,0.044-0.19-0.04
								l-0.017-0.004c-0.024-0.042-0.018-0.081,0.014-0.116C259.724,10.099,259.808,10.059,259.835,10.188z"/>
							<path fill="#CCC717" d="M259.648,10.245c0.063,0.013,0.127,0.027,0.19,0.04c0.018,0.034,0.036,0.067,0.055,0.101
								c-0.066,0.006-0.132,0.011-0.198,0.017C259.631,10.364,259.641,10.304,259.648,10.245z"/>
							<path fill="#B0B09E" d="M259.835,10.188c-0.058-0.053-0.126-0.04-0.194-0.031c-0.105-0.041-0.041-0.076,0.004-0.111
								l-0.001-0.009c0.013,0.003,0.027,0.003,0.04,0l0.017,0.017c0.075,0.04,0.164-0.01,0.239,0.035
								c0.013,0.018,0.026,0.036,0.039,0.055C259.931,10.158,259.883,10.173,259.835,10.188z"/>
							<path fill="#FFFFFF" d="M259.94,10.089c-0.082,0.002-0.169,0.04-0.239-0.035c0.079,0.002,0.157,0.004,0.236,0.006
								C259.94,10.069,259.942,10.078,259.94,10.089z"/>
							<path fill="#3C8545" d="M259.646,10.046c-0.002,0.037-0.082,0.071-0.004,0.111c-0.004,0.028-0.007,0.056-0.011,0.084
								l-0.005,0.001c-0.063-0.019-0.126-0.038-0.189-0.056c-0.024-0.032-0.023-0.065-0.003-0.099
								C259.499,10.041,259.572,10.041,259.646,10.046z"/>
							<path fill="#329349" d="M259.434,10.086c0.001,0.033,0.002,0.066,0.003,0.099c-0.035,0.006-0.07,0.012-0.105,0.017
								c-0.073-0.01-0.146-0.016-0.178-0.099C259.247,10.098,259.341,10.092,259.434,10.086z"/>
						</g>
					</g>
				</g>
			</g>
		</g>
	</g>
</g>
<circle fill="none" stroke="#FFFCEE" stroke-miterlimit="10" cx="259.817" cy="9.589" r="7.049"/>
<g>
	<path fill="#FFFCEE" d="M570.614,11.922c0.326,0.364,0.855,0.624,1.385,0.624c1.087,0,1.97-0.767,2.037-3.055
		c-0.502,0.598-1.263,0.962-1.888,0.962c-1.48,0-2.512-0.832-2.512-2.562c0-1.65,1.235-2.703,2.716-2.703
		c1.684,0,3.123,1.248,3.123,4.029c0,3.212-1.616,4.551-3.395,4.551c-1.032,0-1.793-0.416-2.309-0.937L570.614,11.922z
		 M573.995,8.413c-0.162-1.456-0.787-2.08-1.629-2.08c-0.706,0-1.29,0.559-1.29,1.56c0,0.976,0.502,1.482,1.371,1.482
		C572.936,9.374,573.52,9.102,573.995,8.413z"/>
	<path fill="#FFFCEE" d="M576.401,15.16c0.869-0.325,1.371-0.91,1.371-1.573c-0.041,0-0.081,0-0.122,0
		c-0.529,0-1.005-0.338-1.005-0.923c0-0.559,0.476-0.923,1.046-0.923c0.733,0,1.168,0.572,1.168,1.534
		c0,1.273-0.774,2.262-2.119,2.704L576.401,15.16z"/>
	<path fill="#FFFCEE" d="M584.618,7.035c-0.312-0.364-0.855-0.624-1.371-0.624c-1.087,0-1.97,0.767-2.037,3.055
		c0.502-0.61,1.249-0.975,1.874-0.975c1.494,0,2.525,0.832,2.525,2.561c0,1.651-1.235,2.718-2.716,2.718
		c-1.697,0-3.137-1.262-3.137-4.043c0-3.212,1.63-4.537,3.395-4.537c1.046,0,1.793,0.416,2.309,0.936L584.618,7.035z
		 M584.157,11.051c0-0.975-0.503-1.469-1.358-1.469c-0.489,0-1.06,0.26-1.548,0.949c0.162,1.469,0.773,2.093,1.615,2.093
		C583.585,12.624,584.157,12.066,584.157,11.051z"/>
	<path fill="#FFFCEE" d="M587.906,9.374V9.323c-0.665-0.455-1.194-1.066-1.194-1.938c0-1.339,1.113-2.196,2.607-2.196
		c1.548,0,2.539,0.896,2.539,2.235c0,0.819-0.598,1.509-1.154,1.898v0.052c0.802,0.429,1.494,1.04,1.494,2.146
		c0,1.273-1.168,2.249-2.92,2.249c-1.684,0-2.934-0.937-2.934-2.275C586.344,10.466,587.091,9.79,587.906,9.374z M589.305,12.703
		c0.828,0,1.426-0.468,1.426-1.235c0-0.896-0.91-1.222-2.078-1.677c-0.543,0.377-0.937,0.91-0.937,1.547
		C587.716,12.157,588.422,12.703,589.305,12.703z M590.568,7.515c0-0.728-0.476-1.261-1.276-1.261c-0.666,0-1.182,0.416-1.182,1.131
		c0,0.832,0.774,1.196,1.738,1.561C590.31,8.503,590.568,8.036,590.568,7.515z"/>
</g>
</svg>
