<?xml version="1.0" encoding="utf-8"?>
<!-- Generator: Adobe Illustrator 17.0.0, SVG Export Plug-In . SVG Version: 6.00 Build 0)  -->
<!DOCTYPE svg PUBLIC "-//W3C//DTD SVG 1.1//EN" "http://www.w3.org/Graphics/SVG/1.1/DTD/svg11.dtd">
<svg version="1.1" id="Layer_1" xmlns="http://www.w3.org/2000/svg" xmlns:xlink="http://www.w3.org/1999/xlink" x="0px" y="0px"
	 width="600px" height="19.542px" viewBox="0 0 600 19.542" enable-background="new 0 0 600 19.542" xml:space="preserve">
<rect x="0" y="0" fill="#F39154" width="600" height="19.542"/>
<line fill="none" stroke="#9F9F9F" stroke-width="0.7" stroke-miterlimit="10" stroke-dasharray="6,3" x1="199.426" y1="0" x2="199.426" y2="18.896"/>
<line fill="none" stroke="#9F9F9F" stroke-width="0.7" stroke-miterlimit="10" stroke-dasharray="6,3" x1="440.97" y1="0" x2="440.97" y2="18.896"/>
<g>
	<g>
		<g>
			<rect x="451.885" y="8.771" fill="#FFFCEE" width="16.035" height="2"/>
		</g>
		<g>
			<g>
				<circle fill="#FFFCEE" cx="467.796" cy="9.771" r="2.481"/>
			</g>
		</g>
	</g>
</g>
<path fill="#FFFCEE" d="M67.679,7.296c-0.503-0.441-0.924-0.688-1.575-0.688c-0.733,0-1.182,0.363-1.182,1.04
	c0,1.56,3.694,1.248,3.694,3.874c0,1.234-0.761,2.145-2.105,2.379v1.339h-1.086v-1.3c-0.829-0.078-1.738-0.442-2.35-0.988
	l0.706-1.014c0.638,0.48,1.276,0.806,2.01,0.806c0.883,0,1.317-0.416,1.317-1.118c0-1.716-3.694-1.469-3.694-3.913
	c0-1.209,0.788-2.067,2.011-2.275V4.112h1.086v1.3c0.869,0.104,1.467,0.507,1.969,1.014L67.679,7.296z"/>
<path fill="#FFFCEE" d="M72.054,12.939c2.404-2.224,3.911-3.68,3.911-4.94c0-0.871-0.502-1.43-1.426-1.43
	c-0.665,0-1.222,0.429-1.684,0.923L71.986,6.66c0.787-0.807,1.575-1.274,2.757-1.274c1.656,0,2.729,1.001,2.729,2.535
	c0,1.469-1.426,2.978-3.137,4.706c0.448-0.039,1.019-0.091,1.439-0.091h2.118v1.274h-5.84v-0.871
	C72.052,12.939,72.054,12.939,72.054,12.939z"/>
<path fill="#FFFCEE" d="M78.684,12.939c2.404-2.224,3.911-3.68,3.911-4.94c0-0.871-0.502-1.43-1.426-1.43
	c-0.665,0-1.222,0.429-1.684,0.923L78.616,6.66c0.787-0.807,1.575-1.274,2.757-1.274c1.656,0,2.729,1.001,2.729,2.535
	c0,1.469-1.426,2.978-3.137,4.706c0.448-0.039,1.019-0.091,1.439-0.091h2.118v1.274h-5.84v-0.871
	C78.682,12.939,78.684,12.939,78.684,12.939z"/>
<path fill="#FFFCEE" d="M86.277,12.119c0.326,0.364,0.855,0.624,1.385,0.624c1.087,0,1.97-0.767,2.037-3.055
	c-0.502,0.598-1.263,0.962-1.888,0.962c-1.48,0-2.512-0.832-2.512-2.562c0-1.65,1.235-2.704,2.716-2.704
	c1.684,0,3.123,1.248,3.123,4.03c0,3.211-1.616,4.55-3.395,4.55c-1.032,0-1.793-0.416-2.309-0.936L86.277,12.119z M89.658,8.61
	c-0.162-1.456-0.787-2.08-1.629-2.08c-0.706,0-1.29,0.559-1.29,1.56c0,0.976,0.502,1.482,1.371,1.482
	C88.6,9.571,89.184,9.298,89.658,8.61z"/>
<path fill="#FFFCEE" d="M91.969,9.636c0-2.795,1.141-4.251,2.934-4.251s2.934,1.47,2.934,4.251c0,2.796-1.141,4.329-2.934,4.329
	S91.969,12.432,91.969,9.636z M96.342,9.636c0-2.34-0.598-3.081-1.439-3.081c-0.828,0-1.439,0.741-1.439,3.081
	c0,2.341,0.611,3.159,1.439,3.159C95.744,12.795,96.342,11.977,96.342,9.636z"/>
<path fill="#FFFCEE" d="M98.571,12.939c2.404-2.224,3.911-3.68,3.911-4.94c0-0.871-0.502-1.43-1.426-1.43
	c-0.665,0-1.222,0.429-1.684,0.923L98.503,6.66c0.787-0.807,1.575-1.274,2.757-1.274c1.656,0,2.729,1.001,2.729,2.535
	c0,1.469-1.426,2.978-3.137,4.706c0.448-0.039,1.019-0.091,1.439-0.091h2.118v1.274h-5.84v-0.871
	C98.569,12.939,98.571,12.939,98.571,12.939z"/>
<path fill="#FFFCEE" d="M105.323,15.357c0.869-0.325,1.371-0.91,1.371-1.573c-0.041,0-0.081,0-0.122,0
	c-0.529,0-1.005-0.338-1.005-0.923c0-0.56,0.476-0.923,1.046-0.923c0.733,0,1.168,0.571,1.168,1.534
	c0,1.273-0.774,2.262-2.119,2.704L105.323,15.357z"/>
<path fill="#FFFCEE" d="M108.597,12.939c2.404-2.224,3.911-3.68,3.911-4.94c0-0.871-0.502-1.43-1.426-1.43
	c-0.665,0-1.222,0.429-1.684,0.923l-0.869-0.832c0.787-0.807,1.575-1.274,2.757-1.274c1.656,0,2.729,1.001,2.729,2.535
	c0,1.469-1.426,2.978-3.137,4.706c0.448-0.039,1.019-0.091,1.439-0.091h2.118v1.274h-5.84v-0.871
	C108.595,12.939,108.597,12.939,108.597,12.939z"/>
<path fill="#FFFCEE" d="M119.396,6.802h-4.088V5.541h5.799v0.91c-2.023,2.405-2.377,4.134-2.526,7.358h-1.589
	C117.141,10.871,117.725,9.026,119.396,6.802z"/>
<path fill="#FFFCEE" d="M126.337,14.329v2.002h-1.562V7.426h1.29l0.109,0.677h0.054c0.557-0.455,1.276-0.832,2.01-0.832
	c1.657,0,2.621,1.273,2.621,3.25c0,2.184-1.371,3.444-2.852,3.444c-0.584,0-1.168-0.26-1.711-0.701L126.337,14.329z M127.682,12.731
	c0.883,0,1.562-0.754,1.562-2.197c0-1.274-0.435-2.028-1.439-2.028c-0.488,0-0.95,0.234-1.467,0.715v2.978
	C126.826,12.587,127.288,12.731,127.682,12.731z"/>
<path fill="#FFFCEE" d="M134.434,4.579h1.06L132.33,15.89h-1.06L134.434,4.579z"/>
<path fill="#FFFCEE" d="M139.012,7.271c0.855,0,1.508,0.324,1.956,0.74l-0.747,0.949c-0.354-0.299-0.706-0.468-1.127-0.468
	c-1.073,0-1.82,0.845-1.82,2.132c0,1.274,0.733,2.119,1.779,2.119c0.543,0,1.005-0.26,1.371-0.546l0.652,0.949
	c-0.625,0.533-1.426,0.818-2.187,0.818c-1.82,0-3.219-1.222-3.219-3.341C135.671,8.492,137.233,7.271,139.012,7.271z"/>
<circle fill="none" stroke="#FFFCEE" stroke-miterlimit="10" cx="259.817" cy="9.771" r="7.049"/>
<path fill="#FFFCEE" d="M279.874,5.333h3.028c1.847,0,3.272,0.481,3.272,2.106c0,0.754-0.461,1.573-1.493,1.833v0.052
	c1.263,0.222,1.928,0.858,1.928,1.989c0,1.729-1.521,2.496-3.449,2.496h-3.286V5.333z M282.808,8.753
	c0.978,0,1.412-0.404,1.412-1.041s-0.462-0.896-1.386-0.896h-0.95v1.937H282.808z M282.997,12.327c1.087,0,1.657-0.39,1.657-1.156
	c0-0.742-0.557-1.066-1.657-1.066h-1.113v2.223L282.997,12.327L282.997,12.327z"/>
<path fill="#FFFCEE" d="M291.406,9.663c-0.04-0.572-0.339-0.937-1.059-0.937c-0.57,0-1.141,0.221-1.793,0.585l-0.706-1.262
	c0.855-0.494,1.819-0.844,2.879-0.844c1.725,0,2.676,0.936,2.676,2.912v3.691h-1.63l-0.149-0.663h-0.041
	c-0.57,0.481-1.208,0.819-1.969,0.819c-1.223,0-1.996-0.858-1.996-1.95C287.618,10.663,288.745,9.923,291.406,9.663z
	 M290.293,12.484c0.462,0,0.761-0.208,1.113-0.546v-1.131c-1.426,0.182-1.888,0.571-1.888,1.065
	C289.519,12.288,289.818,12.484,290.293,12.484z"/>
<path fill="#FFFCEE" d="M295.048,4.696h1.996v2.236l-0.095,1.156c0.502-0.429,1.168-0.883,2.077-0.883
	c1.467,0,2.092,0.987,2.092,2.6v4.004h-1.996v-3.758c0-0.936-0.258-1.221-0.829-1.221c-0.502,0-0.814,0.221-1.249,0.623v4.355
	h-1.996V4.696z"/>
<path fill="#FFFCEE" d="M306.281,9.663c-0.04-0.572-0.339-0.937-1.059-0.937c-0.57,0-1.141,0.221-1.793,0.585l-0.706-1.262
	c0.855-0.494,1.819-0.844,2.879-0.844c1.725,0,2.676,0.936,2.676,2.912v3.691h-1.63l-0.149-0.663h-0.041
	c-0.57,0.481-1.208,0.819-1.969,0.819c-1.223,0-1.996-0.858-1.996-1.95C302.493,10.663,303.62,9.923,306.281,9.663z M305.168,12.484
	c0.462,0,0.761-0.208,1.113-0.546v-1.131c-1.426,0.182-1.888,0.571-1.888,1.065C304.394,12.288,304.693,12.484,305.168,12.484z"/>
<path fill="#FFFCEE" d="M309.924,7.362h1.63l0.136,0.832h0.054c0.558-0.533,1.154-0.987,2.037-0.987c0.951,0,1.521,0.389,1.86,1.078
	c0.598-0.585,1.223-1.078,2.119-1.078c1.453,0,2.104,0.987,2.104,2.6v4.004h-1.996v-3.758c0-0.936-0.258-1.221-0.828-1.221
	c-0.34,0-0.72,0.207-1.154,0.623v4.355h-1.996v-3.758c0-0.936-0.259-1.221-0.829-1.221c-0.326,0-0.72,0.207-1.141,0.623v4.355
	h-1.996L309.924,7.362L309.924,7.362z"/>
<path fill="#FFFCEE" d="M325.042,9.663c-0.04-0.572-0.339-0.937-1.059-0.937c-0.57,0-1.141,0.221-1.793,0.585l-0.706-1.262
	c0.855-0.494,1.819-0.844,2.879-0.844c1.725,0,2.676,0.936,2.676,2.912v3.691h-1.63l-0.149-0.663h-0.041
	c-0.57,0.481-1.208,0.819-1.969,0.819c-1.223,0-1.996-0.858-1.996-1.95C321.254,10.663,322.381,9.923,325.042,9.663z
	 M323.929,12.484c0.462,0,0.761-0.208,1.113-0.546v-1.131c-1.426,0.182-1.888,0.571-1.888,1.065
	C323.154,12.288,323.453,12.484,323.929,12.484z"/>
<path fill="#FFFCEE" d="M328.984,11.872c0.611,0.442,1.168,0.676,1.738,0.676c0.598,0,0.855-0.207,0.855-0.545
	c0-0.43-0.679-0.625-1.372-0.885c-0.814-0.299-1.778-0.832-1.778-1.898c0-1.195,1.019-2.014,2.58-2.014
	c1.032,0,1.792,0.402,2.376,0.818l-0.896,1.145c-0.489-0.338-0.951-0.547-1.427-0.547c-0.516,0-0.76,0.182-0.76,0.508
	c0,0.416,0.624,0.572,1.317,0.818c0.855,0.299,1.819,0.754,1.819,1.938c0,1.17-0.964,2.08-2.771,2.08
	c-0.883,0-1.901-0.364-2.58-0.897L328.984,11.872z"/>
<path fill="#F39154" d="M224.844,11.587c0.516,0.48,1.154,0.832,1.888,0.832c0.842,0,1.398-0.352,1.398-0.976
	c0-0.728-0.448-1.183-2.322-1.183V8.908c1.548,0,2.037-0.442,2.037-1.104c0-0.572-0.381-0.91-1.06-0.91
	c-0.611,0-1.072,0.273-1.616,0.729l-1.005-1.171c0.788-0.649,1.657-1.053,2.717-1.053c1.778,0,2.974,0.819,2.974,2.262
	c0,0.858-0.516,1.456-1.439,1.833v0.053c0.991,0.272,1.711,0.949,1.711,2.015c0,1.534-1.467,2.405-3.205,2.405
	c-1.398,0-2.376-0.469-3.001-1.17L224.844,11.587z"/>
<g>
	<g>
		<g>
			<g>
				<g>
					<defs>
						<circle id="SVGID_1_" cx="259.817" cy="9.771" r="7.049"/>
					</defs>
					<clipPath id="SVGID_2_">
						<use xlink:href="#SVGID_1_"  overflow="visible"/>
					</clipPath>
					<g clip-path="url(#SVGID_2_)">
						<g>
							<path fill="#44A5DD" d="M249.255,2.571c0-0.016,0-0.032,0-0.048c0.085-0.067,0.185-0.048,0.28-0.048
								c9.563-0.001,19.127-0.001,28.69,0c0.087,0,0.179-0.018,0.259,0.036c0.034,0.051,0.023,0.109,0.023,0.164
								c0.001,1.487,0,2.974,0,4.461c0,0.048,0.005,0.097-0.016,0.143c-0.118,0.097-0.261,0.072-0.396,0.072
								c-1.373,0.002-2.746,0.001-4.119,0.001c-5.693,0-11.387,0-17.08,0c-0.153,0-0.307-0.002-0.459-0.011
								c-0.145,0.004-0.262-0.067-0.377-0.144c-2.193-1.486-4.393-2.96-6.596-4.43C249.384,2.712,249.303,2.659,249.255,2.571z"/>
							<path fill="#44A5DD" d="M278.484,17.064c-9.711,0-19.422,0-29.133,0c-0.011-0.16,0.133-0.188,0.225-0.25
								c1.755-1.176,3.514-2.345,5.271-3.518c0.402-0.269,0.805-0.537,1.207-0.806c0.115-0.077,0.231-0.149,0.377-0.147
								c0.138-0.012,0.275-0.012,0.412-0.012c7.048,0,14.097,0,21.145,0.002c0.166,0,0.341-0.038,0.495,0.065
								c0.033,0.052,0.022,0.109,0.022,0.165c0,1.445,0.001,2.89,0,4.336C278.507,16.955,278.519,17.013,278.484,17.064z"/>
							<path fill="#010202" d="M256.344,12.388c-1.033,0.684-2.067,1.368-3.099,2.053c-1.241,0.823-2.482,1.648-3.721,2.473
								c-0.063,0.042-0.149,0.061-0.172,0.15c-0.03-0.02-0.103,0.047-0.097-0.048c0.003-0.056,0.001-0.113,0.001-0.169
								c0-4.759,0-9.517,0-14.276c0.698,0.461,1.398,0.919,2.093,1.384c1.606,1.075,3.21,2.153,4.816,3.23
								c0.053,0.036,0.111,0.064,0.166,0.096c0.155,0.05,0.294,0.129,0.428,0.22c1.041,0.708,2.105,1.382,3.149,2.085
								c0.067,0.045,0.135,0.088,0.198,0.139c0.083,0.066,0.08,0.132,0.003,0.2c-0.049,0.043-0.103,0.077-0.157,0.113
								c-1.107,0.74-2.217,1.476-3.324,2.216C256.538,12.312,256.448,12.365,256.344,12.388z"/>
							<path fill="#FFFFFF" d="M249.255,2.474c0.011-0.015-0.025-0.051,0.024-0.049c0.065,0.002,0.129,0.001,0.194,0.001
								c9.614,0,19.228,0,28.842,0.003c0.071,0,0.164-0.056,0.218,0.045c-0.028,0.018-0.059,0.026-0.092,0.023
								c-9.65,0.001-19.299,0-28.949-0.001C249.413,2.496,249.33,2.517,249.255,2.474z"/>
							<path fill="#1E5474" d="M249.255,2.474c9.646,0,19.292,0,28.937,0c0.097,0,0.194,0.005,0.29,0.007
								c0.013,0.01,0.018,0.02,0.012,0.029c-0.005,0.009-0.01,0.013-0.015,0.013c-7.359-0.001-14.718-0.001-22.076-0.002
								c-2.383,0-4.766,0-7.149,0C249.255,2.506,249.255,2.49,249.255,2.474z"/>
							<path fill="#808081" d="M278.48,2.524c0.002-0.014,0.003-0.028,0.003-0.042c0.017-0.003,0.034-0.005,0.05-0.008
								c0,4.791,0,9.582-0.003,14.372c0,0.071,0.056,0.164-0.045,0.218c-0.003-1.556-0.006-3.111-0.008-4.667
								c-0.082-0.095-0.069-0.212-0.069-0.323c-0.002-1.492-0.002-2.985,0-4.477c0-0.112-0.009-0.228,0.071-0.323
								C278.478,5.69,278.479,4.107,278.48,2.524z"/>
							<path fill="#EFE528" d="M278.478,7.273c-0.001,1.708-0.001,3.416-0.002,5.124c-7.313,0-14.626,0.001-21.939,0.001
								c-0.064,0-0.129-0.007-0.193-0.01c1.184-0.793,2.368-1.587,3.552-2.38c0.086-0.058,0.171-0.117,0.269-0.184
								c-1.227-0.807-2.437-1.604-3.646-2.401c-0.066-0.044-0.127-0.095-0.191-0.142c0.073-0.002,0.145-0.007,0.218-0.007
								C263.857,7.273,271.167,7.273,278.478,7.273z"/>
						</g>
					</g>
				</g>
			</g>
		</g>
	</g>
</g>
<circle fill="none" stroke="#FFFCEE" stroke-miterlimit="10" cx="259.817" cy="9.771" r="7.049"/>
<g>
	<path fill="#FFFCEE" d="M478.209,12.588h1.929V7.154h-1.589V6.218c0.855-0.156,1.453-0.364,1.996-0.677h1.168v7.047h1.697v1.222
		h-5.201V12.588z"/>
	<path fill="#FFFCEE" d="M484.472,15.357c0.869-0.325,1.371-0.91,1.371-1.573c-0.041,0-0.081,0-0.122,0
		c-0.529,0-1.005-0.338-1.005-0.923c0-0.559,0.476-0.923,1.046-0.923c0.733,0,1.168,0.572,1.168,1.534
		c0,1.273-0.774,2.262-2.119,2.704L484.472,15.357z"/>
	<path fill="#FFFCEE" d="M492.689,7.232c-0.312-0.364-0.855-0.624-1.371-0.624c-1.087,0-1.97,0.767-2.037,3.055
		c0.502-0.61,1.249-0.975,1.874-0.975c1.494,0,2.525,0.832,2.525,2.561c0,1.651-1.235,2.718-2.716,2.718
		c-1.697,0-3.137-1.262-3.137-4.043c0-3.212,1.63-4.537,3.395-4.537c1.046,0,1.793,0.416,2.309,0.936L492.689,7.232z
		 M492.228,11.248c0-0.975-0.503-1.469-1.358-1.469c-0.489,0-1.06,0.26-1.548,0.949c0.162,1.469,0.773,2.093,1.615,2.093
		C491.657,12.821,492.228,12.263,492.228,11.248z"/>
	<path fill="#FFFCEE" d="M494.402,9.637c0-2.796,1.141-4.251,2.934-4.251s2.934,1.469,2.934,4.251c0,2.795-1.141,4.329-2.934,4.329
		S494.402,12.432,494.402,9.637z M498.775,9.637c0-2.341-0.598-3.081-1.439-3.081c-0.828,0-1.439,0.74-1.439,3.081
		c0,2.34,0.611,3.159,1.439,3.159C498.177,12.796,498.775,11.977,498.775,9.637z"/>
</g>
</svg>
