<?xml version="1.0" encoding="utf-8"?>
<!-- Generator: Adobe Illustrator 17.0.0, SVG Export Plug-In . SVG Version: 6.00 Build 0)  -->
<!DOCTYPE svg PUBLIC "-//W3C//DTD SVG 1.1//EN" "http://www.w3.org/Graphics/SVG/1.1/DTD/svg11.dtd">
<svg version="1.1" id="Layer_1" xmlns="http://www.w3.org/2000/svg" xmlns:xlink="http://www.w3.org/1999/xlink" x="0px" y="0px"
	 width="600px" height="19.045px" viewBox="0 0 600 19.045" enable-background="new 0 0 600 19.045" xml:space="preserve">
<rect x="103.796" y="2.085" fill="#F39154" width="88.332" height="14.097"/>
<g>
	<rect x="448.356" y="8.133" fill="#F39154" width="16.034" height="2"/>
</g>
<g>
	<g>
		<circle fill="#F39154" cx="464.266" cy="9.133" r="2.481"/>
	</g>
</g>
<rect x="0" y="-0.638" fill="none" width="600" height="19.542"/>
<line fill="none" stroke="#9F9F9F" stroke-width="0.7" stroke-miterlimit="10" stroke-dasharray="6,3" x1="199.426" y1="-0.638" x2="199.426" y2="18.259"/>
<line fill="none" stroke="#9F9F9F" stroke-width="0.7" stroke-miterlimit="10" stroke-dasharray="6,3" x1="440.97" y1="-0.638" x2="440.97" y2="18.259"/>
<g>
	<g>
		<g>
			<defs>
				<circle id="SVGID_1_" cx="259.927" cy="9.133" r="7.049"/>
			</defs>
			<clipPath id="SVGID_2_">
				<use xlink:href="#SVGID_1_"  overflow="visible"/>
			</clipPath>
			<g id="YJxWjc_1_" clip-path="url(#SVGID_2_)">
				<g>
					<g>
						<path fill="#44A5DD" d="M249.364,1.933c0-0.016,0-0.032,0-0.048c0.085-0.067,0.185-0.048,0.28-0.048
							c9.563-0.001,19.127-0.001,28.69,0c0.087,0,0.179-0.018,0.259,0.036c0.034,0.051,0.023,0.109,0.023,0.164
							c0.001,1.487,0,2.974,0,4.461c0,0.048,0.005,0.097-0.016,0.143c-0.118,0.097-0.261,0.072-0.396,0.072
							c-1.373,0.002-2.746,0.001-4.119,0.001c-5.693,0-11.387,0-17.08,0c-0.153,0-0.307-0.002-0.459-0.011
							c-0.145,0.004-0.262-0.067-0.377-0.144c-2.193-1.486-4.393-2.96-6.596-4.43C249.494,2.075,249.413,2.022,249.364,1.933z"/>
						<path fill="#44A5DD" d="M278.594,16.427c-9.711,0-19.422,0-29.133,0c-0.011-0.16,0.133-0.188,0.225-0.25
							c1.755-1.176,3.514-2.345,5.271-3.518c0.402-0.269,0.805-0.537,1.207-0.806c0.115-0.077,0.231-0.149,0.377-0.147
							c0.138-0.012,0.275-0.012,0.412-0.012c7.048,0,14.097,0,21.145,0.002c0.166,0,0.341-0.038,0.495,0.065
							c0.033,0.052,0.022,0.109,0.022,0.165c0,1.445,0,2.89,0,4.336C278.617,16.318,278.629,16.376,278.594,16.427z"/>
						<path fill="#010202" d="M256.454,11.75c-1.033,0.684-2.067,1.368-3.099,2.053c-1.241,0.823-2.482,1.648-3.721,2.473
							c-0.063,0.042-0.149,0.061-0.172,0.15c-0.03-0.02-0.103,0.047-0.098-0.048c0.003-0.056,0.001-0.113,0.001-0.169
							c0-4.759,0-9.517,0-14.276c0.698,0.461,1.398,0.919,2.093,1.384c1.606,1.075,3.21,2.153,4.816,3.23
							c0.053,0.036,0.111,0.064,0.166,0.096c0.155,0.05,0.294,0.129,0.428,0.22c1.041,0.708,2.105,1.382,3.149,2.085
							c0.067,0.045,0.135,0.088,0.198,0.139c0.083,0.066,0.08,0.132,0.003,0.2c-0.049,0.043-0.103,0.077-0.157,0.113
							c-1.107,0.74-2.217,1.476-3.324,2.216C256.648,11.675,256.558,11.727,256.454,11.75z"/>
						<path fill="#FFFFFF" d="M249.364,1.836c0.011-0.015-0.025-0.051,0.024-0.049c0.065,0.002,0.129,0.001,0.194,0.001
							c9.614,0,19.228,0,28.842,0.003c0.071,0,0.164-0.056,0.218,0.045c-0.028,0.018-0.059,0.026-0.092,0.023
							c-9.65,0.001-19.299,0-28.949-0.001C249.523,1.859,249.44,1.879,249.364,1.836z"/>
						<path fill="#1E5474" d="M249.364,1.836c9.646,0,19.292,0,28.937,0c0.097,0,0.194,0.005,0.29,0.007
							c0.013,0.01,0.018,0.02,0.012,0.029c-0.005,0.009-0.01,0.013-0.015,0.013c-7.359-0.001-14.718-0.001-22.076-0.002
							c-2.383,0-4.766,0-7.149,0C249.364,1.869,249.364,1.852,249.364,1.836z"/>
						<path fill="#808081" d="M278.59,1.886c0.002-0.014,0.003-0.028,0.003-0.042c0.017-0.003,0.034-0.005,0.05-0.008
							c0,4.791,0,9.582-0.003,14.372c0,0.071,0.056,0.164-0.045,0.218c-0.003-1.556-0.006-3.111-0.008-4.667
							c-0.082-0.095-0.069-0.212-0.069-0.323c-0.002-1.492-0.002-2.985,0-4.477c0-0.112-0.009-0.228,0.071-0.323
							C278.588,5.052,278.589,3.469,278.59,1.886z"/>
						<path fill="#EFE528" d="M278.588,6.635c-0.001,1.708-0.001,3.416-0.002,5.124c-7.313,0-14.626,0.001-21.939,0.001
							c-0.064,0-0.129-0.007-0.193-0.01c1.184-0.793,2.368-1.587,3.552-2.38c0.086-0.058,0.171-0.117,0.269-0.184
							c-1.227-0.807-2.437-1.604-3.646-2.401c-0.066-0.044-0.127-0.095-0.191-0.142c0.073-0.002,0.145-0.007,0.218-0.007
							C263.967,6.635,271.277,6.635,278.588,6.635z"/>
					</g>
				</g>
			</g>
		</g>
	</g>
</g>
<path fill="#010201" d="M280.133,4.644h2.648c1.806,0,3.068,0.585,3.068,2.08c0,0.845-0.502,1.599-1.562,1.858v0.053
	c1.304,0.194,2.064,0.871,2.064,2.041c0,1.677-1.386,2.496-3.368,2.496h-2.852V4.644H280.133z M282.591,8.284
	c1.507,0,2.146-0.52,2.146-1.469c0-0.923-0.72-1.313-2.092-1.313h-1.371v2.782H282.591z M282.822,12.314
	c1.521,0,2.418-0.533,2.418-1.69c0-1.053-0.856-1.533-2.418-1.533h-1.548v3.224h1.548V12.314z"/>
<path fill="#010201" d="M291.652,9.168c0-0.806-0.286-1.586-1.358-1.586c-0.774,0-1.453,0.338-1.969,0.677l-0.448-0.741
	c0.61-0.377,1.534-0.819,2.594-0.819c1.616,0,2.295,1.027,2.295,2.601v3.874h-0.924l-0.095-0.754h-0.027
	c-0.639,0.493-1.371,0.909-2.187,0.909c-1.113,0-1.941-0.662-1.941-1.794C287.591,10.156,288.84,9.467,291.652,9.168z
	 M289.845,12.47c0.639,0,1.168-0.299,1.807-0.845V9.87c-2.214,0.261-2.961,0.78-2.961,1.586
	C288.691,12.171,289.194,12.47,289.845,12.47z"/>
<path fill="#010201" d="M294.804,3.916h1.114v2.522l-0.041,1.3c0.625-0.572,1.29-1.04,2.2-1.04c1.385,0,2.01,0.858,2.01,2.47v4.005
	h-1.113V9.311c0-1.184-0.381-1.69-1.25-1.69c-0.679,0-1.141,0.338-1.806,0.976v4.576h-1.114L294.804,3.916L294.804,3.916z"/>
<path fill="#010201" d="M305.862,9.168c0-0.806-0.285-1.586-1.358-1.586c-0.774,0-1.453,0.338-1.97,0.677l-0.447-0.741
	c0.61-0.377,1.534-0.819,2.594-0.819c1.616,0,2.295,1.027,2.295,2.601v3.874h-0.924l-0.095-0.754h-0.027
	c-0.639,0.493-1.371,0.909-2.187,0.909c-1.113,0-1.941-0.662-1.941-1.794C301.801,10.156,303.05,9.467,305.862,9.168z
	 M304.055,12.47c0.639,0,1.168-0.299,1.807-0.845V9.87c-2.214,0.261-2.961,0.78-2.961,1.586
	C302.901,12.171,303.403,12.47,304.055,12.47z"/>
<path fill="#010201" d="M309.014,6.854h0.924l0.095,0.91h0.041c0.57-0.599,1.263-1.066,2.051-1.066c1.005,0,1.548,0.455,1.819,1.209
	c0.693-0.715,1.372-1.209,2.173-1.209c1.358,0,2.01,0.858,2.01,2.47v4.005h-1.113V9.311c0-1.184-0.394-1.69-1.222-1.69
	c-0.517,0-1.046,0.325-1.657,0.976v4.576h-1.113V9.311c0-1.184-0.395-1.69-1.236-1.69c-0.488,0-1.046,0.325-1.656,0.976v4.576
	h-1.114V6.854H309.014z"/>
<path fill="#010201" d="M323.944,9.168c0-0.806-0.285-1.586-1.358-1.586c-0.774,0-1.453,0.338-1.97,0.677l-0.447-0.741
	c0.61-0.377,1.534-0.819,2.594-0.819c1.616,0,2.295,1.027,2.295,2.601v3.874h-0.924l-0.095-0.754h-0.027
	c-0.639,0.493-1.371,0.909-2.187,0.909c-1.113,0-1.941-0.662-1.941-1.794C319.883,10.156,321.132,9.467,323.944,9.168z
	 M322.137,12.47c0.639,0,1.168-0.299,1.807-0.845V9.87c-2.214,0.261-2.961,0.78-2.961,1.586
	C320.983,12.171,321.485,12.47,322.137,12.47z"/>
<path fill="#010201" d="M326.919,11.742c0.57,0.442,1.154,0.754,1.941,0.754c0.869,0,1.304-0.441,1.304-0.987
	c0-0.65-0.787-0.937-1.507-1.196c-0.938-0.325-1.97-0.754-1.97-1.82c0-1.014,0.842-1.794,2.268-1.794
	c0.829,0,1.549,0.325,2.051,0.715l-0.529,0.677c-0.448-0.325-0.924-0.56-1.508-0.56c-0.828,0-1.208,0.429-1.208,0.91
	c0,0.585,0.72,0.819,1.467,1.092c0.95,0.338,2.01,0.715,2.01,1.911c0,1.027-0.855,1.885-2.418,1.885
	c-0.937,0-1.833-0.377-2.458-0.87L326.919,11.742z"/>
<circle fill="none" stroke="#010201" stroke-miterlimit="10" cx="259.927" cy="9.133" r="7.049"/>
</svg>
