<?xml version="1.0" encoding="utf-8"?>
<!-- Generator: Adobe Illustrator 17.0.0, SVG Export Plug-In . SVG Version: 6.00 Build 0)  -->
<!DOCTYPE svg PUBLIC "-//W3C//DTD SVG 1.1//EN" "http://www.w3.org/Graphics/SVG/1.1/DTD/svg11.dtd">
<svg version="1.1" id="Layer_1" xmlns="http://www.w3.org/2000/svg" xmlns:xlink="http://www.w3.org/1999/xlink" x="0px" y="0px"
	 width="600px" height="19.542px" viewBox="0 0 600 19.542" enable-background="new 0 0 600 19.542" xml:space="preserve">
<rect x="0" y="0" fill="#F39154" width="600" height="19.542"/>
<line fill="none" stroke="#9F9F9F" stroke-width="0.7" stroke-miterlimit="10" stroke-dasharray="6,3" x1="199.426" y1="0" x2="199.426" y2="19.541"/>
<line fill="none" stroke="#9F9F9F" stroke-width="0.7" stroke-miterlimit="10" stroke-dasharray="6,3" x1="440.97" y1="0" x2="440.97" y2="19.541"/>
<g>
	<g>
		<g>
			<rect x="451.885" y="9.111" fill="#FFFCEE" width="24.523" height="2"/>
		</g>
		<g>
			<g>
				<circle fill="#FFFCEE" cx="476.284" cy="10.111" r="2.482"/>
			</g>
		</g>
	</g>
</g>
<path fill="#FFFCEE" d="M67.679,7.4c-0.503-0.441-0.924-0.688-1.575-0.688c-0.733,0-1.182,0.363-1.182,1.04
	c0,1.56,3.694,1.248,3.694,3.874c0,1.234-0.761,2.145-2.105,2.379v1.339h-1.086v-1.3c-0.829-0.078-1.738-0.442-2.35-0.988
	l0.706-1.014c0.638,0.48,1.276,0.806,2.01,0.806c0.883,0,1.317-0.416,1.317-1.118c0-1.716-3.694-1.469-3.694-3.913
	c0-1.209,0.788-2.067,2.011-2.275V4.215h1.086v1.3c0.869,0.104,1.467,0.507,1.969,1.014L67.679,7.4z"/>
<path fill="#FFFCEE" d="M72.543,12.691h1.929V7.257h-1.589V6.321c0.855-0.156,1.453-0.364,1.996-0.676h1.168v7.046h1.697v1.223
	h-5.201V12.691z"/>
<path fill="#FFFCEE" d="M79.649,12.223c0.326,0.364,0.855,0.624,1.385,0.624c1.087,0,1.97-0.767,2.037-3.055
	c-0.502,0.598-1.263,0.962-1.888,0.962c-1.48,0-2.512-0.832-2.512-2.562c0-1.65,1.235-2.704,2.716-2.704
	c1.684,0,3.123,1.248,3.123,4.03c0,3.211-1.616,4.55-3.395,4.55c-1.032,0-1.793-0.416-2.309-0.936L79.649,12.223z M83.029,8.713
	c-0.162-1.456-0.787-2.08-1.629-2.08c-0.706,0-1.29,0.559-1.29,1.56c0,0.976,0.502,1.482,1.371,1.482
	C81.971,9.675,82.555,9.402,83.029,8.713z"/>
<path fill="#FFFCEE" d="M85.313,13.042c2.404-2.224,3.911-3.68,3.911-4.94c0-0.871-0.502-1.43-1.426-1.43
	c-0.665,0-1.222,0.429-1.684,0.923l-0.869-0.832c0.787-0.807,1.575-1.274,2.757-1.274c1.656,0,2.729,1.001,2.729,2.535
	c0,1.469-1.426,2.978-3.137,4.706c0.448-0.039,1.019-0.091,1.439-0.091h2.118v1.274h-5.84v-0.871H85.313z"/>
<path fill="#FFFCEE" d="M92.499,11.937c0.516,0.507,1.181,0.91,2.05,0.91c0.938,0,1.589-0.468,1.589-1.248
	c0-0.858-0.57-1.404-2.539-1.404V9.103c1.697,0,2.254-0.559,2.254-1.326c0-0.688-0.488-1.104-1.276-1.104
	c-0.679,0-1.208,0.312-1.738,0.779l-0.801-0.923c0.733-0.624,1.562-1.04,2.594-1.04c1.656,0,2.798,0.78,2.798,2.185
	c0,0.923-0.57,1.547-1.508,1.897v0.053c1.019,0.26,1.793,0.962,1.793,2.054c0,1.508-1.372,2.392-3.029,2.392
	c-1.398,0-2.321-0.52-2.933-1.17L92.499,11.937z"/>
<path fill="#FFFCEE" d="M102.741,6.906h-4.088V5.645h5.799v0.91c-2.023,2.405-2.377,4.134-2.526,7.358h-1.589
	C100.486,10.975,101.07,9.129,102.741,6.906z"/>
<path fill="#FFFCEE" d="M105.323,15.46c0.869-0.325,1.371-0.91,1.371-1.573c-0.041,0-0.081,0-0.122,0
	c-0.529,0-1.005-0.338-1.005-0.923c0-0.56,0.476-0.923,1.046-0.923c0.733,0,1.168,0.571,1.168,1.534
	c0,1.273-0.774,2.262-2.119,2.704L105.323,15.46z"/>
<path fill="#FFFCEE" d="M109.127,11.963c0.516,0.468,1.154,0.884,2.023,0.884c0.964,0,1.67-0.585,1.67-1.586
	c0-0.988-0.638-1.547-1.589-1.547c-0.557,0-0.869,0.143-1.385,0.468L109.1,9.727l0.258-4.082h4.617v1.261h-3.259l-0.177,2.002
	c0.366-0.169,0.692-0.272,1.141-0.272c1.48,0,2.716,0.806,2.716,2.587c0,1.807-1.453,2.847-3.042,2.847
	c-1.398,0-2.309-0.532-2.946-1.144L109.127,11.963z"/>
<path fill="#FFFCEE" d="M115.253,9.74c0-2.795,1.141-4.251,2.934-4.251s2.934,1.47,2.934,4.251c0,2.796-1.141,4.329-2.934,4.329
	S115.253,12.536,115.253,9.74z M119.626,9.74c0-2.34-0.598-3.081-1.439-3.081c-0.828,0-1.439,0.741-1.439,3.081
	c0,2.341,0.611,3.159,1.439,3.159C119.028,12.899,119.626,12.081,119.626,9.74z"/>
<path fill="#FFFCEE" d="M126.337,14.433v2.002h-1.562V7.53h1.29l0.109,0.677h0.054c0.557-0.455,1.276-0.832,2.01-0.832
	c1.657,0,2.621,1.273,2.621,3.25c0,2.184-1.371,3.444-2.852,3.444c-0.584,0-1.168-0.26-1.711-0.701L126.337,14.433z M127.682,12.834
	c0.883,0,1.562-0.754,1.562-2.197c0-1.274-0.435-2.028-1.439-2.028c-0.488,0-0.95,0.234-1.467,0.715v2.978
	C126.826,12.691,127.288,12.834,127.682,12.834z"/>
<path fill="#FFFCEE" d="M134.434,4.683h1.06l-3.164,11.311h-1.06L134.434,4.683z"/>
<path fill="#FFFCEE" d="M139.012,7.374c0.855,0,1.508,0.324,1.956,0.74l-0.747,0.949c-0.354-0.299-0.706-0.468-1.127-0.468
	c-1.073,0-1.82,0.845-1.82,2.132c0,1.274,0.733,2.119,1.779,2.119c0.543,0,1.005-0.26,1.371-0.546l0.652,0.949
	c-0.625,0.533-1.426,0.818-2.187,0.818c-1.82,0-3.219-1.222-3.219-3.341C135.671,8.596,137.233,7.374,139.012,7.374z"/>
<circle fill="none" stroke="#FFFCEE" stroke-miterlimit="10" cx="259.817" cy="9.867" r="7.049"/>
<path fill="#FFFCEE" d="M283.677,5.281c1.1,0,2.023,0.521,2.621,1.105l-1.101,1.184c-0.448-0.391-0.869-0.638-1.494-0.638
	c-1.235,0-2.199,1.027-2.199,2.73c0,1.741,0.855,2.756,2.146,2.756c0.733,0,1.249-0.299,1.684-0.754l1.101,1.157
	c-0.733,0.818-1.712,1.248-2.812,1.248c-2.295,0-4.169-1.495-4.169-4.342C279.453,6.919,281.395,5.281,283.677,5.281z"/>
<path fill="#FFFCEE" d="M287.536,4.8h1.996v2.236l-0.095,1.156c0.502-0.429,1.168-0.883,2.077-0.883c1.467,0,2.092,0.987,2.092,2.6
	v4.004h-1.996v-3.758c0-0.936-0.258-1.221-0.829-1.221c-0.502,0-0.814,0.221-1.249,0.623v4.355h-1.996V4.8z"/>
<path fill="#FFFCEE" d="M295.062,5.515c0-0.585,0.489-0.988,1.154-0.988c0.679,0,1.154,0.403,1.154,0.988s-0.476,1.001-1.154,1.001
	C295.551,6.516,295.062,6.1,295.062,5.515z M295.225,7.465h1.996v6.448h-1.996V7.465z"/>
<path fill="#FFFCEE" d="M298.906,4.8h1.996v7.189c0,0.402,0.19,0.533,0.354,0.533c0.081,0,0.136,0,0.244-0.026l0.244,1.417
	c-0.217,0.091-0.557,0.156-1.005,0.156c-1.371,0-1.833-0.858-1.833-2.158L298.906,4.8L298.906,4.8z"/>
<path fill="#FFFCEE" d="M305.508,7.31c1.914,0,2.865,1.338,2.865,3.094c0,0.338-0.041,0.65-0.082,0.806h-4.033
	c0.177,0.976,0.855,1.403,1.752,1.403c0.503,0,0.965-0.143,1.453-0.428l0.666,1.156c-0.693,0.455-1.589,0.729-2.391,0.729
	c-1.929,0-3.408-1.248-3.408-3.381C302.33,8.596,303.892,7.31,305.508,7.31z M306.676,10.027c0-0.742-0.326-1.262-1.128-1.262
	c-0.624,0-1.168,0.403-1.304,1.262H306.676z"/>
<path fill="#F39154" d="M224.844,11.691c0.516,0.48,1.154,0.832,1.888,0.832c0.842,0,1.398-0.352,1.398-0.976
	c0-0.728-0.448-1.183-2.322-1.183V9.012c1.548,0,2.037-0.442,2.037-1.104c0-0.572-0.381-0.91-1.06-0.91
	c-0.611,0-1.072,0.273-1.616,0.729l-1.005-1.171c0.788-0.649,1.657-1.053,2.717-1.053c1.778,0,2.974,0.819,2.974,2.262
	c0,0.858-0.516,1.456-1.439,1.833V9.65c0.991,0.272,1.711,0.949,1.711,2.015c0,1.534-1.467,2.405-3.205,2.405
	c-1.398,0-2.376-0.469-3.001-1.17L224.844,11.691z"/>
<g>
	<g>
		<g>
			<g>
				<g>
					<defs>
						<circle id="SVGID_1_" cx="259.817" cy="9.867" r="7.132"/>
					</defs>
					<clipPath id="SVGID_2_">
						<use xlink:href="#SVGID_1_"  overflow="visible"/>
					</clipPath>
					<g clip-path="url(#SVGID_2_)">
						<path fill="#FDFDFD" d="M263.621,2.286c3.682,0,7.364,0.002,11.047-0.005c0.171,0,0.204,0.034,0.204,0.204
							c-0.006,4.904-0.006,9.808,0,14.712c0,0.171-0.034,0.204-0.204,0.204c-7.364-0.005-14.729-0.005-22.093,0
							c-0.171,0-0.204-0.033-0.204-0.204c0.006-4.904,0.006-9.808,0-14.712c0-0.171,0.033-0.205,0.204-0.204
							C256.257,2.287,259.939,2.286,263.621,2.286z"/>
						<path fill="#010202" d="M263.636,17.305c-3.631,0-7.263-0.002-10.894,0.005c-0.214,0-0.273-0.043-0.273-0.267
							c0.008-4.803,0.007-9.606,0-14.409c0-0.21,0.053-0.253,0.257-0.253c7.279,0.006,14.559,0.006,21.838,0
							c0.202,0,0.258,0.04,0.258,0.252c-0.007,4.811-0.007,9.623-0.001,14.434c0,0.193-0.045,0.244-0.241,0.243
							C270.932,17.304,267.284,17.305,263.636,17.305z"/>
						<path fill="#BF192A" d="M274.748,9.836c0.003,2.41,0.003,4.82,0.012,7.231c0.001,0.225-0.138,0.18-0.263,0.18
							c-1.937,0.001-3.873,0.001-5.81,0.001c-5.286,0-10.573-0.002-15.859,0.006c-0.244,0-0.3-0.065-0.299-0.303
							c0.009-2.277,0.005-4.555,0.007-6.832c0-0.09,0.017-0.18,0.026-0.27c0.082-0.071,0.183-0.073,0.282-0.073
							c2.369,0.001,4.738-0.013,7.108,0.006c0.141-0.011,0.282-0.008,0.424-0.008c4.637,0,9.274-0.001,13.91,0.001
							C274.442,9.775,274.604,9.746,274.748,9.836z"/>
						<path fill="#FFFFFF" d="M274.748,9.836c-3.188,0.003-6.376,0.007-9.565,0.007c-1.743,0-3.486-0.009-5.229-0.014
							c-0.096-0.09-0.089-0.211-0.09-0.325c-0.003-2.24-0.003-4.481,0-6.721c0-0.115-0.008-0.235,0.085-0.327
							c0.357-0.004,0.714-0.01,1.071-0.01c4.488-0.001,8.976,0.001,13.464-0.005c0.209,0,0.281,0.034,0.279,0.266
							C274.751,5.082,274.752,7.459,274.748,9.836z"/>
						<path fill="#3C5BA3" d="M259.95,2.455c0.001,2.458,0.003,4.916,0.004,7.374c-0.788,0.006-1.575,0.017-2.363,0.018
							c-1.676,0.003-3.353,0.001-5.029,0.001c-0.009-0.065-0.026-0.13-0.026-0.195c-0.001-2.326-0.001-4.652-0.003-6.978
							c0-0.137,0-0.234,0.19-0.233C255.132,2.451,257.541,2.452,259.95,2.455z"/>
						<path fill="#FFFFFF" d="M258.317,5.549c-0.424,0.312-0.766,0.573-1.118,0.82c-0.133,0.093-0.155,0.178-0.097,0.331
							c0.15,0.393,0.278,0.794,0.442,1.27c-0.409-0.289-0.763-0.524-1.098-0.783c-0.149-0.115-0.244-0.101-0.383,0.008
							c-0.327,0.254-0.668,0.489-1.08,0.787c0.151-0.465,0.26-0.857,0.407-1.234c0.08-0.205,0.031-0.304-0.141-0.417
							c-0.345-0.228-0.674-0.48-1.092-0.781c0.52,0,0.951-0.008,1.381,0.004c0.172,0.005,0.243-0.051,0.291-0.219
							c0.117-0.406,0.262-0.804,0.414-1.259c0.146,0.449,0.29,0.847,0.402,1.253c0.051,0.184,0.137,0.23,0.314,0.225
							C257.378,5.541,257.8,5.549,258.317,5.549z"/>
					</g>
				</g>
			</g>
		</g>
	</g>
</g>
<circle fill="none" stroke="#FFFCEE" stroke-miterlimit="10" cx="259.817" cy="9.867" r="7.049"/>
<g>
	<path fill="#FFFCEE" d="M486.142,13.042c2.404-2.223,3.911-3.679,3.911-4.94c0-0.871-0.502-1.43-1.426-1.43
		c-0.665,0-1.222,0.429-1.684,0.923l-0.869-0.832c0.787-0.806,1.575-1.273,2.757-1.273c1.656,0,2.729,1.001,2.729,2.534
		c0,1.47-1.426,2.978-3.137,4.707c0.448-0.039,1.019-0.092,1.439-0.092h2.118v1.274h-5.84v-0.871H486.142z"/>
	<path fill="#FFFCEE" d="M492.894,15.46c0.869-0.325,1.371-0.91,1.371-1.573c-0.041,0-0.081,0-0.122,0
		c-0.529,0-1.005-0.338-1.005-0.923c0-0.559,0.476-0.923,1.046-0.923c0.733,0,1.168,0.572,1.168,1.534
		c0,1.273-0.774,2.262-2.119,2.704L492.894,15.46z"/>
	<path fill="#FFFCEE" d="M496.725,11.937c0.516,0.508,1.181,0.91,2.05,0.91c0.938,0,1.589-0.468,1.589-1.248
		c0-0.857-0.57-1.403-2.539-1.403V9.103c1.697,0,2.254-0.559,2.254-1.326c0-0.688-0.488-1.104-1.276-1.104
		c-0.679,0-1.208,0.312-1.738,0.78l-0.801-0.924c0.733-0.623,1.562-1.039,2.594-1.039c1.656,0,2.798,0.779,2.798,2.184
		c0,0.923-0.571,1.547-1.508,1.898v0.052c1.019,0.26,1.793,0.962,1.793,2.054c0,1.508-1.372,2.393-3.028,2.393
		c-1.399,0-2.322-0.521-2.934-1.17L496.725,11.937z"/>
	<path fill="#FFFCEE" d="M503.327,11.963c0.516,0.468,1.154,0.884,2.023,0.884c0.964,0,1.67-0.585,1.67-1.586
		c0-0.988-0.638-1.547-1.589-1.547c-0.557,0-0.869,0.143-1.385,0.468L503.3,9.727l0.258-4.082h4.617v1.262h-3.259l-0.177,2.002
		c0.366-0.169,0.692-0.273,1.141-0.273c1.48,0,2.716,0.806,2.716,2.587c0,1.808-1.453,2.848-3.042,2.848
		c-1.398,0-2.309-0.533-2.946-1.145L503.327,11.963z"/>
</g>
</svg>
