<?xml version="1.0" encoding="utf-8"?>
<!-- Generator: Adobe Illustrator 17.0.0, SVG Export Plug-In . SVG Version: 6.00 Build 0)  -->
<!DOCTYPE svg PUBLIC "-//W3C//DTD SVG 1.1//EN" "http://www.w3.org/Graphics/SVG/1.1/DTD/svg11.dtd">
<svg version="1.1" id="Layer_1" xmlns="http://www.w3.org/2000/svg" xmlns:xlink="http://www.w3.org/1999/xlink" x="0px" y="0px"
	 width="600px" height="19.045px" viewBox="0 0 600 19.045" enable-background="new 0 0 600 19.045" xml:space="preserve">
<rect x="118.08" y="2.173" fill="#F39154" width="74.048" height="14.097"/>
<g>
	<rect x="448.356" y="8.465" fill="#F39154" width="24.522" height="2"/>
</g>
<g>
	<g>
		<circle fill="#F39154" cx="472.754" cy="9.465" r="2.482"/>
	</g>
</g>
<rect x="0" y="-0.645" fill="none" width="600" height="19.542"/>
<line fill="none" stroke="#9F9F9F" stroke-width="0.7" stroke-miterlimit="10" stroke-dasharray="6,3" x1="199.426" y1="-0.645" x2="199.426" y2="18.896"/>
<line fill="none" stroke="#9F9F9F" stroke-width="0.7" stroke-miterlimit="10" stroke-dasharray="6,3" x1="440.97" y1="-0.645" x2="440.97" y2="18.896"/>
<g>
	<g>
		<g>
			<defs>
				<circle id="SVGID_1_" cx="259.927" cy="9.221" r="7.132"/>
			</defs>
			<clipPath id="SVGID_2_">
				<use xlink:href="#SVGID_1_"  overflow="visible"/>
			</clipPath>
			<g id="RPWI4o_1_" clip-path="url(#SVGID_2_)">
				<g>
					<path fill="#FDFDFD" d="M263.731,1.64c3.682,0,7.364,0.002,11.047-0.005c0.171,0,0.204,0.034,0.204,0.204
						c-0.006,4.904-0.006,9.808,0,14.712c0,0.171-0.034,0.204-0.204,0.204c-7.364-0.005-14.729-0.005-22.093,0
						c-0.171,0-0.204-0.033-0.204-0.204c0.006-4.904,0.006-9.808,0-14.712c0-0.171,0.033-0.205,0.204-0.204
						C256.366,1.642,260.049,1.64,263.731,1.64z"/>
					<path fill="#010202" d="M263.746,16.66c-3.631,0-7.263-0.002-10.894,0.005c-0.214,0-0.273-0.043-0.273-0.267
						c0.008-4.803,0.007-9.606,0-14.409c0-0.21,0.053-0.253,0.257-0.253c7.279,0.006,14.559,0.006,21.838,0
						c0.202,0,0.258,0.04,0.258,0.252c-0.007,4.811-0.007,9.623-0.001,14.434c0,0.193-0.045,0.244-0.241,0.243
						C271.042,16.658,267.394,16.66,263.746,16.66z"/>
					<path fill="#BF192A" d="M274.858,9.19c0.003,2.41,0.003,4.82,0.012,7.231c0.001,0.225-0.138,0.18-0.263,0.18
						c-1.937,0.001-3.873,0.001-5.81,0.001c-5.286,0-10.573-0.002-15.859,0.006c-0.244,0-0.3-0.065-0.299-0.303
						c0.009-2.277,0.005-4.555,0.007-6.832c0-0.09,0.017-0.18,0.026-0.27c0.082-0.071,0.183-0.073,0.282-0.073
						c2.369,0.001,4.738-0.013,7.108,0.006c0.141-0.011,0.282-0.008,0.424-0.008c4.637,0,9.274-0.001,13.91,0.001
						C274.552,9.129,274.713,9.1,274.858,9.19z"/>
					<path fill="#FFFFFF" d="M274.858,9.19c-3.188,0.003-6.376,0.007-9.565,0.007c-1.743,0-3.486-0.009-5.229-0.014
						c-0.096-0.09-0.089-0.211-0.09-0.325c-0.003-2.24-0.003-4.481,0-6.721c0-0.115-0.008-0.235,0.085-0.327
						c0.357-0.004,0.714-0.01,1.071-0.01c4.488-0.001,8.976,0.001,13.464-0.005c0.209,0,0.281,0.034,0.279,0.266
						C274.861,4.437,274.862,6.814,274.858,9.19z"/>
					<path fill="#3C5BA3" d="M260.06,1.81c0.001,2.458,0.003,4.916,0.004,7.374c-0.788,0.006-1.575,0.017-2.363,0.018
						c-1.676,0.003-3.353,0.001-5.029,0.001c-0.009-0.065-0.026-0.13-0.026-0.195c-0.001-2.326-0.001-4.652-0.003-6.978
						c0-0.137,0-0.234,0.19-0.233C255.242,1.805,257.651,1.807,260.06,1.81z"/>
					<path fill="#FFFFFF" d="M258.426,4.903c-0.424,0.312-0.766,0.573-1.118,0.82c-0.133,0.093-0.155,0.178-0.097,0.331
						c0.15,0.393,0.278,0.794,0.442,1.27c-0.409-0.289-0.763-0.524-1.098-0.783c-0.149-0.115-0.244-0.101-0.383,0.008
						c-0.327,0.254-0.668,0.489-1.08,0.787c0.151-0.465,0.26-0.857,0.407-1.234c0.08-0.205,0.031-0.304-0.141-0.417
						c-0.345-0.228-0.674-0.48-1.092-0.781c0.52,0,0.951-0.008,1.381,0.004c0.172,0.005,0.243-0.051,0.291-0.219
						c0.117-0.406,0.262-0.804,0.414-1.259c0.146,0.449,0.29,0.847,0.402,1.253c0.051,0.184,0.137,0.23,0.314,0.225
						C257.488,4.895,257.91,4.903,258.426,4.903z"/>
				</g>
			</g>
		</g>
	</g>
</g>
<path fill="#010201" d="M283.596,4.584c1.06,0,1.901,0.494,2.431,1.053l-0.638,0.689c-0.476-0.481-1.046-0.793-1.779-0.793
	c-1.697,0-2.825,1.326-2.825,3.445c0,2.145,1.073,3.497,2.771,3.497c0.842,0,1.467-0.338,2.037-0.949l0.639,0.663
	c-0.692,0.78-1.575,1.234-2.703,1.234c-2.24,0-3.911-1.638-3.911-4.42C279.617,6.261,281.315,4.584,283.596,4.584z"/>
<path fill="#010201" d="M287.686,4.012h1.114v2.522l-0.041,1.3c0.625-0.572,1.29-1.04,2.2-1.04c1.385,0,2.01,0.858,2.01,2.47v4.005
	h-1.113V9.407c0-1.184-0.381-1.69-1.25-1.69c-0.679,0-1.141,0.338-1.806,0.976v4.576h-1.114L287.686,4.012L287.686,4.012z"/>
<path fill="#010201" d="M294.805,4.961c0-0.416,0.339-0.689,0.773-0.689s0.774,0.273,0.774,0.689c0,0.403-0.34,0.689-0.774,0.689
	S294.805,5.364,294.805,4.961z M295.008,6.95h1.114v6.318h-1.114V6.95z"/>
<path fill="#010201" d="M298.282,4.012h1.114v8.061c0,0.338,0.149,0.468,0.312,0.468c0.068,0,0.123,0,0.245-0.025l0.149,0.806
	c-0.149,0.065-0.34,0.104-0.639,0.104c-0.842,0-1.182-0.507-1.182-1.43V4.012H298.282z"/>
<path fill="#010201" d="M304.15,6.794c1.685,0,2.635,1.157,2.635,2.964c0,0.222-0.014,0.43-0.041,0.585h-4.454
	c0.082,1.365,0.938,2.224,2.2,2.224c0.625,0,1.154-0.195,1.644-0.494l0.394,0.702c-0.57,0.351-1.276,0.649-2.173,0.649
	c-1.766,0-3.164-1.234-3.164-3.302S302.643,6.794,304.15,6.794z M305.807,9.641c0-1.287-0.598-2.003-1.63-2.003
	c-0.924,0-1.766,0.729-1.901,2.003H305.807z"/>
<circle fill="none" stroke="#010201" stroke-miterlimit="10" cx="259.927" cy="9.221" r="7.049"/>
</svg>
