<?xml version="1.0" encoding="utf-8"?>
<!-- Generator: Adobe Illustrator 17.0.0, SVG Export Plug-In . SVG Version: 6.00 Build 0)  -->
<!DOCTYPE svg PUBLIC "-//W3C//DTD SVG 1.1//EN" "http://www.w3.org/Graphics/SVG/1.1/DTD/svg11.dtd">
<svg version="1.1" id="Layer_1" xmlns="http://www.w3.org/2000/svg" xmlns:xlink="http://www.w3.org/1999/xlink" x="0px" y="0px"
	 width="600px" height="19.045px" viewBox="0 0 600 19.045" enable-background="new 0 0 600 19.045" xml:space="preserve">
<rect x="111.69" y="2.269" fill="#F39154" width="80.438" height="14.097"/>
<g>
	<rect x="448.356" y="8.317" fill="#F39154" width="28.767" height="2"/>
</g>
<g>
	<g>
		<circle fill="#F39154" cx="476.998" cy="9.317" r="2.481"/>
	</g>
</g>
<rect x="0" y="-0.643" fill="none" width="600" height="19.542"/>
<line fill="none" stroke="#9F9F9F" stroke-width="0.7" stroke-miterlimit="10" stroke-dasharray="6,3" x1="199.426" y1="0" x2="199.426" y2="18.539"/>
<line fill="none" stroke="#9F9F9F" stroke-width="0.7" stroke-miterlimit="10" stroke-dasharray="6,3" x1="440.97" y1="0" x2="440.97" y2="18.539"/>
<g>
	<g>
		<g>
			<defs>
				<circle id="SVGID_1_" cx="259.927" cy="9.317" r="7.049"/>
			</defs>
			<clipPath id="SVGID_2_">
				<use xlink:href="#SVGID_1_"  overflow="visible"/>
			</clipPath>
			<g id="QEoxcJ_1_" clip-path="url(#SVGID_2_)">
				<g>
					<g>
						<path fill="#FBFBFB" d="M249.212,2.19c0.02-0.03-0.047-0.102,0.048-0.097c0.056,0.003,0.112,0.001,0.169,0.001
							c7.047,0,14.094,0.001,21.141-0.005c0.181,0,0.221,0.041,0.221,0.221c-0.006,4.728-0.006,9.455,0,14.183
							c0,0.165-0.032,0.197-0.197,0.197c-7.063-0.005-14.126-0.004-21.19-0.01c-0.06,0-0.208,0.1-0.193-0.091
							c0.024-0.021,0.051-0.037,0.08-0.05c0.077-0.028,0.157-0.027,0.237-0.027c1.111,0,2.221-0.004,3.332,0.001
							c0.248,0.018,0.497,0.004,0.746,0.007c5.567,0.001,11.133,0,16.7,0c0.109,0,0.228,0.027,0.313-0.077
							c0.059-0.122,0.038-0.253,0.038-0.38c0.001-3.239,0.001-6.478,0-9.716c0-0.16,0.004-0.32,0.007-0.481
							c-0.015-0.248,0.003-0.496-0.003-0.744c-0.007-0.842-0.001-1.685-0.003-2.527c-0.001-0.314-0.013-0.326-0.324-0.327
							c-1.035-0.003-2.07,0.003-3.105-0.003c-0.264-0.017-0.528-0.004-0.792-0.007c-5.579-0.001-11.159,0-16.738-0.001
							c-0.136,0-0.273,0.013-0.407-0.018C249.264,2.228,249.237,2.211,249.212,2.19z"/>
						<path fill="#C1C0C0" d="M249.212,2.19c0.018,0.002,0.036,0.003,0.054,0.005c0.021,0.025,0.037,0.053,0.047,0.083
							c0.025,0.127,0.015,0.256,0.015,0.384c0.001,3.305,0,6.609,0.001,9.914c0.002,0.265-0.008,0.53,0.007,0.795
							c0.006,0.965,0.003,1.931,0.002,2.896c0,0.111,0.009,0.226-0.072,0.319c-0.018,0.001-0.036,0.002-0.053,0.003
							C249.212,11.789,249.212,6.99,249.212,2.19z"/>
						<path fill="#010202" d="M249.265,16.586c0.001-1.081,0.001-2.162,0.002-3.243c0.023-0.025,0.038-0.056,0.06-0.082
							c0.948-0.615,1.916-1.199,2.876-1.795c2.152-1.337,4.305-2.671,6.458-4.006c1.86-1.153,3.719-2.31,5.581-3.459
							c0.941-0.581,1.875-1.174,2.823-1.745c0.052-0.018,0.107-0.028,0.155-0.058c1.12-0.002,2.24-0.003,3.36-0.01
							c0.124-0.001,0.162,0.03,0.16,0.158c-0.008,0.928-0.007,1.856-0.009,2.784c-0.033,0.077-0.09,0.128-0.16,0.173
							c-1.175,0.754-2.351,1.506-3.528,2.258c-1.082,0.691-2.164,1.383-3.246,2.073c-1.955,1.248-3.907,2.5-5.86,3.75
							c-1.487,0.951-2.974,1.903-4.459,2.857c-0.149,0.095-0.297,0.19-0.451,0.278c-0.049,0.025-0.107,0.028-0.15,0.067
							C251.674,16.586,250.47,16.586,249.265,16.586z"/>
						<path fill="#BF192A" d="M270.733,5.87c0.002,3.165,0.003,6.33,0.004,9.494c0,0.392-0.005,0.785-0.007,1.177
							c-0.092,0.044-0.19,0.021-0.284,0.021c-5.549,0.001-11.097,0.001-16.645,0.001c-0.076,0-0.164,0.003-0.09-0.113
							c0.044-0.069,0.119-0.106,0.187-0.148c3.448-2.151,6.894-4.307,10.339-6.462c2.059-1.288,4.12-2.573,6.18-3.86
							C270.51,5.923,270.595,5.812,270.733,5.87z"/>
						<path fill="#EFE528" d="M270.733,5.87c-1.135,0.705-2.271,1.407-3.404,2.115c-4.459,2.786-8.917,5.574-13.375,8.362
							c-0.094,0.059-0.184,0.125-0.275,0.188c-0.032,0.039-0.077,0.026-0.118,0.029c-0.157,0-0.313,0.003-0.47-0.002
							c-0.046-0.001-0.119,0.03-0.12-0.063c2.026-1.299,4.052-2.599,6.079-3.897c3.893-2.492,7.787-4.982,11.681-7.473
							C270.732,5.376,270.733,5.623,270.733,5.87z"/>
						<path fill="#134F26" d="M249.268,2.237c-0.007-0.014-0.008-0.028-0.002-0.043c1.661-0.001,3.322-0.004,4.983-0.004
							c3.98-0.001,7.961,0,11.941,0c0.088,0,0.176,0.004,0.264,0.007c0.008,0.035-0.004,0.06-0.036,0.076
							c-0.029,0.014-0.059,0.023-0.091,0.027c-0.152,0.015-0.304,0.017-0.456,0.017c-5.356,0-10.713,0-16.069-0.001
							c-0.152,0-0.305,0.016-0.455-0.025C249.318,2.278,249.291,2.26,249.268,2.237z"/>
						<path fill="#8E1922" d="M253.605,16.548c0.025-0.004,0.049-0.008,0.074-0.013c0.112,0.002,0.224,0.005,0.337,0.005
							c5.572,0.001,11.143,0.001,16.715,0.001c-0.035,0.101-0.121,0.054-0.181,0.054c-5.61,0.003-11.22,0.002-16.831,0.002
							c-0.04,0-0.08-0.006-0.12-0.009C253.568,16.57,253.57,16.556,253.605,16.548z"/>
						<path fill="#7C7C22" d="M266.452,2.234c0.002-0.012,0.002-0.025,0.003-0.037c0.255,0,0.51,0,0.766,0
							c-0.025,0.037-0.036,0.089-0.095,0.087C266.9,2.273,266.666,2.388,266.452,2.234z"/>
						<path fill="#B8B611" d="M253.605,16.548c-0.001,0.014-0.003,0.027-0.006,0.041c-0.24-0.001-0.48-0.002-0.72-0.003
							c0.013-0.048,0.04-0.081,0.093-0.086C253.177,16.591,253.395,16.512,253.605,16.548z"/>
						<path fill="#1B7735" d="M249.268,2.237c0.015,0.001,0.03,0.003,0.045,0.006c0.078,0.085,0.073,0.192,0.073,0.296
							c0.002,3.263,0.003,6.527,0,9.79c0,0.048-0.002,0.096-0.01,0.144c-0.006,0.031-0.016,0.061-0.03,0.089
							c-0.017,0.03-0.043,0.043-0.077,0.037c-0.002-0.361-0.007-0.721-0.007-1.082c-0.001-2.997,0-5.995,0-8.992
							C249.26,2.429,249.265,2.333,249.268,2.237z"/>
						<path fill="#B3B314" d="M249.267,12.599c0.014-0.001,0.028-0.001,0.042,0c0.12,0.238,0.106,0.476-0.001,0.713
							c-0.014,0.011-0.028,0.021-0.042,0.031C249.267,13.095,249.267,12.847,249.267,12.599z"/>
						<path fill="#EFE528" d="M249.308,13.312c0-0.238,0-0.475,0.001-0.713l-0.002-0.01c0.055-0.094,0.143-0.149,0.233-0.202
							c2.128-1.272,4.247-2.56,6.37-3.841c2.315-1.397,4.629-2.797,6.943-4.196c1.071-0.647,2.146-1.29,3.212-1.946
							c0.111-0.068,0.228-0.115,0.349-0.159c0.013-0.002,0.026-0.006,0.038-0.011c0.223,0.035,0.455-0.052,0.673,0.051
							c-5.883,3.646-11.766,7.293-17.65,10.939C249.422,13.257,249.364,13.283,249.308,13.312z"/>
						<path fill="#FFFFFF" d="M263.311,5.175c0.293,0.248,0.556,0.446,0.788,0.675c0.147,0.146,0.249,0.128,0.403,0.022
							c0.28-0.192,0.576-0.362,0.903-0.565c-0.144,0.371-0.263,0.708-0.408,1.033c-0.067,0.15-0.028,0.229,0.086,0.32
							c0.272,0.218,0.535,0.446,0.85,0.711c-0.427-0.035-0.786-0.054-1.142-0.1c-0.143-0.018-0.197,0.019-0.243,0.148
							c-0.119,0.336-0.253,0.668-0.407,1.07c-0.092-0.379-0.179-0.691-0.242-1.008c-0.04-0.203-0.127-0.289-0.347-0.289
							c-0.33,0.001-0.661-0.039-1.065-0.067c0.364-0.228,0.662-0.421,0.969-0.603c0.111-0.066,0.155-0.12,0.115-0.26
							C263.476,5.928,263.406,5.583,263.311,5.175z"/>
						<path fill="#FFFFFF" d="M255.734,13.841c-0.094-0.391-0.19-0.727-0.252-1.07c-0.032-0.173-0.11-0.22-0.269-0.224
							c-0.352-0.008-0.703-0.029-1.133-0.049c0.346-0.22,0.629-0.413,0.925-0.584c0.158-0.091,0.2-0.178,0.141-0.361
							c-0.1-0.31-0.161-0.633-0.252-1.005c0.298,0.249,0.569,0.46,0.822,0.691c0.125,0.115,0.214,0.111,0.348,0.019
							c0.275-0.189,0.563-0.359,0.888-0.563c-0.042,0.247-0.139,0.432-0.213,0.624c-0.223,0.582-0.224,0.581,0.262,0.966
							c0.149,0.118,0.296,0.24,0.476,0.386c-0.373,0.051-0.701-0.026-1.028-0.043c-0.185-0.01-0.265,0.037-0.324,0.212
							C256.017,13.166,255.878,13.478,255.734,13.841z"/>
						<path fill="#239E46" d="M266.414,2.245c-0.654,0.402-1.306,0.809-1.964,1.206c-3.818,2.309-7.637,4.616-11.457,6.922
							c-1.227,0.741-2.457,1.477-3.686,2.216c0-3.344,0-6.689,0.001-10.033c0-0.104,0.003-0.208,0.004-0.313
							c0.072-0.002,0.144-0.005,0.216-0.005c5.556,0,11.113,0,16.669,0C266.27,2.238,266.342,2.243,266.414,2.245z"/>
					</g>
				</g>
			</g>
		</g>
	</g>
</g>
<path fill="#010201" d="M280.174,11.513c0.638,0.637,1.521,1.066,2.458,1.066c1.168,0,1.86-0.56,1.86-1.392
	c0-0.871-0.652-1.144-1.494-1.508l-1.276-0.533c-0.828-0.338-1.807-0.949-1.807-2.197c0-1.3,1.195-2.262,2.812-2.262
	c1.06,0,1.996,0.429,2.621,1.053l-0.598,0.702c-0.543-0.494-1.209-0.806-2.023-0.806c-1.005,0-1.671,0.48-1.671,1.248
	c0,0.818,0.788,1.131,1.48,1.417l1.276,0.52c1.032,0.43,1.834,1.015,1.834,2.275c0,1.353-1.168,2.431-3.042,2.431
	c-1.25,0-2.336-0.493-3.11-1.261L280.174,11.513z"/>
<path fill="#010201" d="M287.767,11.89c0.435,0,0.802,0.338,0.802,0.832c0,0.468-0.367,0.806-0.802,0.806
	c-0.448,0-0.814-0.338-0.814-0.806C286.952,12.228,287.319,11.89,287.767,11.89z"/>
<path fill="#010201" d="M290.566,4.844h1.141v4.277h0.027l3.707-4.277h1.29l-2.797,3.25l3.218,5.278h-1.263l-2.662-4.434
	l-1.521,1.729v2.704h-1.141L290.566,4.844L290.566,4.844z"/>
<path fill="#010201" d="M298.025,5.065c0-0.416,0.339-0.689,0.773-0.689s0.774,0.273,0.774,0.689c0,0.403-0.34,0.689-0.774,0.689
	S298.025,5.468,298.025,5.065z M298.228,7.054h1.114v6.318h-1.114V7.054z"/>
<path fill="#010201" d="M301.692,7.925h-0.978V7.118l1.032-0.064l0.136-1.769h0.937v1.769h1.779v0.871h-1.779v3.51
	c0,0.78,0.258,1.223,1.019,1.223c0.231,0,0.53-0.092,0.747-0.17l0.218,0.807c-0.367,0.117-0.815,0.233-1.223,0.233
	c-1.412,0-1.888-0.857-1.888-2.105L301.692,7.925L301.692,7.925z"/>
<path fill="#010201" d="M306.215,7.925h-0.978V7.118l1.032-0.064l0.136-1.769h0.937v1.769h1.779v0.871h-1.779v3.51
	c0,0.78,0.258,1.223,1.019,1.223c0.231,0,0.53-0.092,0.747-0.17l0.218,0.807c-0.367,0.117-0.815,0.233-1.223,0.233
	c-1.412,0-1.888-0.857-1.888-2.105L306.215,7.925L306.215,7.925z"/>
<path fill="#010201" d="M310.373,11.941c0.57,0.442,1.154,0.754,1.941,0.754c0.869,0,1.304-0.441,1.304-0.987
	c0-0.65-0.787-0.937-1.507-1.196c-0.938-0.325-1.97-0.754-1.97-1.82c0-1.014,0.842-1.794,2.268-1.794
	c0.829,0,1.549,0.325,2.051,0.715l-0.529,0.677c-0.448-0.325-0.924-0.56-1.508-0.56c-0.828,0-1.208,0.429-1.208,0.91
	c0,0.585,0.72,0.819,1.467,1.092c0.95,0.338,2.01,0.715,2.01,1.911c0,1.027-0.855,1.885-2.418,1.885
	c-0.937,0-1.833-0.377-2.458-0.87L310.373,11.941z"/>
<path fill="#010201" d="M325.503,13.527c-0.624-0.169-1.33-0.493-2.05-0.975c-0.68,0.585-1.521,0.975-2.567,0.975
	c-1.616,0-2.716-0.987-2.716-2.365c0-1.145,0.842-1.859,1.752-2.457c-0.367-0.702-0.584-1.379-0.584-2.003
	c0-1.131,0.828-2.015,2.064-2.015c1.1,0,1.752,0.689,1.752,1.69c0,1.117-1.019,1.833-2.011,2.521
	c0.584,0.871,1.413,1.716,2.255,2.393c0.543-0.702,0.978-1.547,1.249-2.522h1.046c-0.354,1.118-0.855,2.158-1.562,3.056
	c0.611,0.402,1.182,0.688,1.67,0.818L325.503,13.527z M321.008,12.67c0.611,0,1.182-0.26,1.698-0.689
	c-0.869-0.728-1.712-1.625-2.336-2.535c-0.625,0.481-1.114,0.988-1.114,1.651C319.256,12.046,320.031,12.67,321.008,12.67z
	 M320.723,8.185c0.815-0.52,1.521-1.04,1.521-1.794c0-0.494-0.244-0.937-0.842-0.937c-0.666,0-1.101,0.533-1.101,1.235
	C320.302,7.157,320.465,7.665,320.723,8.185z"/>
<path fill="#010201" d="M329.799,4.844h1.168l3.231,5.355l0.965,1.769h0.054c-0.054-0.858-0.149-1.82-0.149-2.717V4.844h1.073v8.528
	h-1.168l-3.219-5.369l-0.964-1.756h-0.055c0.055,0.858,0.136,1.769,0.136,2.666v4.459h-1.072V4.844z"/>
<path fill="#010201" d="M340.856,6.898c1.685,0,2.635,1.157,2.635,2.964c0,0.222-0.014,0.43-0.041,0.585h-4.454
	c0.082,1.365,0.938,2.224,2.2,2.224c0.625,0,1.154-0.195,1.644-0.494l0.394,0.702c-0.57,0.351-1.276,0.649-2.173,0.649
	c-1.766,0-3.164-1.234-3.164-3.302S339.349,6.898,340.856,6.898z M342.513,9.745c0-1.287-0.598-2.003-1.63-2.003
	c-0.924,0-1.766,0.729-1.901,2.003H342.513z"/>
<path fill="#010201" d="M344.172,7.054h1.154l1.249,3.588c0.19,0.624,0.407,1.261,0.611,1.859h0.055
	c0.189-0.599,0.407-1.235,0.598-1.859l1.249-3.588h1.1l-2.336,6.318h-1.304L344.172,7.054z"/>
<path fill="#010201" d="M351.195,5.065c0-0.416,0.339-0.689,0.773-0.689s0.774,0.273,0.774,0.689c0,0.403-0.34,0.689-0.774,0.689
	S351.195,5.468,351.195,5.065z M351.398,7.054h1.114v6.318h-1.114V7.054z"/>
<path fill="#010201" d="M354.496,11.941c0.57,0.442,1.154,0.754,1.941,0.754c0.869,0,1.304-0.441,1.304-0.987
	c0-0.65-0.787-0.937-1.507-1.196c-0.938-0.325-1.97-0.754-1.97-1.82c0-1.014,0.842-1.794,2.268-1.794
	c0.829,0,1.549,0.325,2.051,0.715l-0.529,0.677c-0.448-0.325-0.924-0.56-1.508-0.56c-0.828,0-1.208,0.429-1.208,0.91
	c0,0.585,0.72,0.819,1.467,1.092c0.95,0.338,2.01,0.715,2.01,1.911c0,1.027-0.855,1.885-2.418,1.885
	c-0.937,0-1.833-0.377-2.458-0.87L354.496,11.941z"/>
<circle fill="none" stroke="#010201" stroke-miterlimit="10" cx="259.927" cy="9.317" r="7.049"/>
</svg>
