<?xml version="1.0" encoding="utf-8"?>
<!-- Generator: Adobe Illustrator 17.0.0, SVG Export Plug-In . SVG Version: 6.00 Build 0)  -->
<!DOCTYPE svg PUBLIC "-//W3C//DTD SVG 1.1//EN" "http://www.w3.org/Graphics/SVG/1.1/DTD/svg11.dtd">
<svg version="1.1" id="Layer_1" xmlns="http://www.w3.org/2000/svg" xmlns:xlink="http://www.w3.org/1999/xlink" x="0px" y="0px"
	 width="600px" height="19.542px" viewBox="0 0 600 19.542" enable-background="new 0 0 600 19.542" xml:space="preserve">
<rect x="0" y="0" fill="#F39154" width="600" height="19.542"/>
<line fill="none" stroke="#9F9F9F" stroke-width="0.7" stroke-miterlimit="10" stroke-dasharray="6,3" x1="199.426" y1="0.642" x2="199.426" y2="19.182"/>
<line fill="none" stroke="#9F9F9F" stroke-width="0.7" stroke-miterlimit="10" stroke-dasharray="6,3" x1="440.97" y1="0.642" x2="440.97" y2="19.182"/>
<g>
	<g>
		<g>
			<rect x="451.885" y="8.96" fill="#FFFCEE" width="28.768" height="2"/>
		</g>
		<g>
			<g>
				<circle fill="#FFFCEE" cx="480.528" cy="9.96" r="2.481"/>
			</g>
		</g>
	</g>
</g>
<path fill="#FFFCEE" d="M67.679,7.501c-0.503-0.441-0.924-0.688-1.575-0.688c-0.733,0-1.182,0.363-1.182,1.04
	c0,1.56,3.694,1.248,3.694,3.874c0,1.234-0.761,2.145-2.105,2.379v1.339h-1.086v-1.3c-0.829-0.078-1.738-0.442-2.35-0.988
	l0.706-1.014c0.638,0.48,1.276,0.806,2.01,0.806c0.883,0,1.317-0.416,1.317-1.118c0-1.716-3.694-1.469-3.694-3.913
	c0-1.209,0.788-2.067,2.011-2.275V4.316h1.086v1.3C67.38,5.72,67.978,6.123,68.48,6.63L67.679,7.501z"/>
<path fill="#FFFCEE" d="M72.054,13.144c2.404-2.224,3.911-3.68,3.911-4.94c0-0.871-0.502-1.43-1.426-1.43
	c-0.665,0-1.222,0.429-1.684,0.923l-0.869-0.832c0.787-0.807,1.575-1.274,2.757-1.274c1.656,0,2.729,1.001,2.729,2.535
	c0,1.469-1.426,2.978-3.137,4.706c0.448-0.039,1.019-0.091,1.439-0.091h2.118v1.274h-5.84v-0.871
	C72.052,13.144,72.054,13.144,72.054,13.144z"/>
<path fill="#FFFCEE" d="M78.711,9.841c0-2.795,1.141-4.251,2.934-4.251s2.934,1.47,2.934,4.251c0,2.796-1.141,4.329-2.934,4.329
	S78.711,12.637,78.711,9.841z M83.084,9.841c0-2.34-0.598-3.081-1.439-3.081c-0.828,0-1.439,0.741-1.439,3.081
	c0,2.341,0.611,3.159,1.439,3.159C82.486,13,83.084,12.182,83.084,9.841z"/>
<path fill="#FFFCEE" d="M86.915,9.776V9.725c-0.665-0.455-1.194-1.066-1.194-1.937c0-1.339,1.113-2.197,2.607-2.197
	c1.548,0,2.539,0.897,2.539,2.236c0,0.819-0.598,1.508-1.154,1.898v0.052c0.802,0.429,1.494,1.04,1.494,2.145
	c0,1.274-1.168,2.249-2.92,2.249c-1.684,0-2.934-0.936-2.934-2.274C85.354,10.868,86.101,10.192,86.915,9.776z M88.315,13.104
	c0.828,0,1.426-0.468,1.426-1.235c0-0.896-0.91-1.222-2.078-1.677c-0.543,0.377-0.937,0.91-0.937,1.547
	C86.726,12.559,87.432,13.104,88.315,13.104z M89.577,7.917c0-0.728-0.476-1.261-1.276-1.261c-0.666,0-1.182,0.416-1.182,1.131
	c0,0.832,0.774,1.196,1.738,1.561C89.319,8.905,89.577,8.438,89.577,7.917z"/>
<path fill="#FFFCEE" d="M91.942,13.144c2.404-2.224,3.911-3.68,3.911-4.94c0-0.871-0.502-1.43-1.426-1.43
	c-0.665,0-1.222,0.429-1.684,0.923l-0.869-0.832c0.787-0.807,1.575-1.274,2.757-1.274c1.656,0,2.729,1.001,2.729,2.535
	c0,1.469-1.426,2.978-3.137,4.706c0.448-0.039,1.019-0.091,1.439-0.091h2.118v1.274h-5.84v-0.871
	C91.94,13.144,91.942,13.144,91.942,13.144z"/>
<path fill="#FFFCEE" d="M99.102,12.064c0.516,0.468,1.154,0.884,2.023,0.884c0.964,0,1.67-0.585,1.67-1.586
	c0-0.988-0.638-1.547-1.589-1.547c-0.557,0-0.869,0.143-1.385,0.468l-0.747-0.455l0.258-4.082h4.617v1.261h-3.259l-0.177,2.002
	c0.366-0.169,0.692-0.272,1.141-0.272c1.48,0,2.716,0.806,2.716,2.587c0,1.807-1.453,2.847-3.042,2.847
	c-1.398,0-2.309-0.532-2.946-1.144L99.102,12.064z"/>
<path fill="#FFFCEE" d="M105.323,15.562c0.869-0.325,1.371-0.91,1.371-1.573c-0.041,0-0.081,0-0.122,0
	c-0.529,0-1.005-0.338-1.005-0.923c0-0.56,0.476-0.923,1.046-0.923c0.733,0,1.168,0.571,1.168,1.534
	c0,1.273-0.774,2.262-2.119,2.704L105.323,15.562z"/>
<path fill="#FFFCEE" d="M113.54,7.437c-0.312-0.364-0.855-0.624-1.371-0.624c-1.087,0-1.97,0.767-2.037,3.055
	c0.502-0.611,1.249-0.975,1.874-0.975c1.494,0,2.525,0.832,2.525,2.561c0,1.651-1.235,2.717-2.716,2.717
	c-1.697,0-3.137-1.261-3.137-4.043c0-3.211,1.63-4.537,3.395-4.537c1.046,0,1.793,0.416,2.309,0.937L113.54,7.437z M113.079,11.453
	c0-0.975-0.503-1.469-1.358-1.469c-0.489,0-1.06,0.26-1.548,0.949c0.162,1.469,0.773,2.093,1.615,2.093
	C112.508,13.026,113.079,12.468,113.079,11.453z"/>
<path fill="#FFFCEE" d="M115.253,9.841c0-2.795,1.141-4.251,2.934-4.251s2.934,1.47,2.934,4.251c0,2.796-1.141,4.329-2.934,4.329
	S115.253,12.637,115.253,9.841z M119.626,9.841c0-2.34-0.598-3.081-1.439-3.081c-0.828,0-1.439,0.741-1.439,3.081
	c0,2.341,0.611,3.159,1.439,3.159C119.028,13,119.626,12.182,119.626,9.841z"/>
<path fill="#FFFCEE" d="M126.337,14.534v2.002h-1.562V7.631h1.29l0.109,0.677h0.054c0.557-0.455,1.276-0.832,2.01-0.832
	c1.657,0,2.621,1.273,2.621,3.25c0,2.184-1.371,3.444-2.852,3.444c-0.584,0-1.168-0.26-1.711-0.701L126.337,14.534z M127.682,12.936
	c0.883,0,1.562-0.754,1.562-2.197c0-1.274-0.435-2.028-1.439-2.028c-0.488,0-0.95,0.234-1.467,0.715v2.978
	C126.826,12.792,127.288,12.936,127.682,12.936z"/>
<path fill="#FFFCEE" d="M134.434,4.784h1.06l-3.164,11.311h-1.06L134.434,4.784z"/>
<path fill="#FFFCEE" d="M139.012,7.476c0.855,0,1.508,0.324,1.956,0.74l-0.747,0.949c-0.354-0.299-0.706-0.468-1.127-0.468
	c-1.073,0-1.82,0.845-1.82,2.132c0,1.274,0.733,2.119,1.779,2.119c0.543,0,1.005-0.26,1.371-0.546l0.652,0.949
	c-0.625,0.533-1.426,0.818-2.187,0.818c-1.82,0-3.219-1.222-3.219-3.341C135.671,8.697,137.233,7.476,139.012,7.476z"/>
<circle fill="none" stroke="#FFFCEE" stroke-miterlimit="10" cx="259.817" cy="9.96" r="7.049"/>
<path fill="#FFFCEE" d="M280.458,11.636c0.625,0.52,1.439,0.884,2.173,0.884c0.828,0,1.235-0.312,1.235-0.819
	c0-0.533-0.502-0.701-1.276-1.014l-1.141-0.469c-0.924-0.35-1.793-1.078-1.793-2.313c0-1.403,1.317-2.522,3.151-2.522
	c1.019,0,2.091,0.391,2.852,1.119l-1.005,1.209c-0.584-0.43-1.141-0.677-1.847-0.677c-0.68,0-1.128,0.286-1.128,0.767
	c0,0.521,0.584,0.703,1.358,1.002l1.127,0.441c1.073,0.416,1.752,1.105,1.752,2.301c0,1.404-1.222,2.627-3.327,2.627
	c-1.154,0-2.376-0.416-3.286-1.223L280.458,11.636z"/>
<path fill="#FFFCEE" d="M288.337,11.766c0.692,0,1.209,0.521,1.209,1.209c0,0.677-0.517,1.196-1.209,1.196s-1.209-0.52-1.209-1.196
	C287.128,12.286,287.645,11.766,288.337,11.766z"/>
<path fill="#FFFCEE" d="M291.34,5.538h2.01v3.471h0.041l2.647-3.471h2.187l-2.675,3.381l3.178,5.096h-2.2l-2.146-3.575l-1.032,1.3
	v2.275h-2.01V5.538z"/>
<path fill="#FFFCEE" d="M299.286,5.616c0-0.585,0.489-0.988,1.154-0.988c0.679,0,1.154,0.403,1.154,0.988s-0.476,1.001-1.154,1.001
	C299.776,6.617,299.286,6.201,299.286,5.616z M299.449,7.566h1.996v6.448h-1.996V7.566z"/>
<path fill="#FFFCEE" d="M303.402,9.062h-0.924V7.645l1.032-0.078l0.231-1.716h1.656v1.716h1.616v1.495h-1.616v2.587
	c0,0.728,0.34,1.027,0.869,1.027c0.218,0,0.462-0.065,0.639-0.13l0.312,1.391c-0.354,0.104-0.842,0.234-1.494,0.234
	c-1.67,0-2.322-1.002-2.322-2.496L303.402,9.062L303.402,9.062z"/>
<path fill="#FFFCEE" d="M308.537,9.062h-0.924V7.645l1.032-0.078l0.231-1.716h1.656v1.716h1.616v1.495h-1.616v2.587
	c0,0.728,0.34,1.027,0.869,1.027c0.218,0,0.462-0.065,0.639-0.13l0.312,1.391c-0.354,0.104-0.842,0.234-1.494,0.234
	c-1.67,0-2.322-1.002-2.322-2.496L308.537,9.062L308.537,9.062z"/>
<path fill="#FFFCEE" d="M313.7,12.077c0.611,0.442,1.168,0.676,1.738,0.676c0.598,0,0.855-0.207,0.855-0.545
	c0-0.43-0.679-0.625-1.372-0.885c-0.814-0.299-1.778-0.832-1.778-1.898c0-1.195,1.019-2.014,2.58-2.014
	c1.032,0,1.792,0.402,2.376,0.818l-0.896,1.145c-0.489-0.338-0.951-0.547-1.427-0.547c-0.516,0-0.76,0.182-0.76,0.508
	c0,0.416,0.624,0.572,1.317,0.818c0.855,0.299,1.819,0.754,1.819,1.938c0,1.17-0.964,2.08-2.771,2.08
	c-0.883,0-1.901-0.364-2.58-0.897L313.7,12.077z"/>
<path fill="#FFFCEE" d="M329.564,14.171c-0.733-0.143-1.507-0.442-2.268-0.858c-0.747,0.533-1.67,0.858-2.784,0.858
	c-1.928,0-2.946-1.118-2.946-2.418c0-1.184,0.747-1.859,1.616-2.393c-0.34-0.611-0.544-1.223-0.544-1.755
	c0-1.209,0.924-2.224,2.404-2.224c1.33,0,2.173,0.754,2.173,1.924c0,1.105-0.924,1.808-1.848,2.406
	c0.503,0.559,1.128,1.092,1.779,1.547c0.448-0.559,0.802-1.235,1.019-2.028h1.82c-0.326,1.026-0.802,1.976-1.48,2.86
	c0.557,0.273,1.086,0.468,1.534,0.533L329.564,14.171z M324.771,12.714c0.366,0,0.746-0.116,1.127-0.338
	c-0.692-0.532-1.331-1.131-1.847-1.754c-0.354,0.299-0.598,0.623-0.598,1.014C323.453,12.272,323.983,12.714,324.771,12.714z
	 M324.567,8.606c0.639-0.363,1.127-0.729,1.127-1.301c0-0.402-0.19-0.662-0.611-0.662c-0.448,0-0.801,0.363-0.801,0.949
	C324.281,7.904,324.39,8.255,324.567,8.606z"/>
<path fill="#FFFCEE" d="M334.009,5.538h2.051l2.309,4.213l0.883,1.871h0.054c-0.095-0.896-0.258-2.093-0.258-3.094v-2.99h1.901
	v8.477h-2.051l-2.309-4.225l-0.869-1.847h-0.055c0.096,0.937,0.259,2.067,0.259,3.068v3.003h-1.915V5.538z"/>
<path fill="#FFFCEE" d="M345.596,7.411c1.914,0,2.865,1.338,2.865,3.094c0,0.338-0.041,0.65-0.082,0.806h-4.033
	c0.177,0.976,0.855,1.403,1.752,1.403c0.503,0,0.965-0.143,1.453-0.428l0.666,1.156c-0.693,0.455-1.589,0.729-2.391,0.729
	c-1.929,0-3.408-1.248-3.408-3.381C342.418,8.697,343.98,7.411,345.596,7.411z M346.764,10.128c0-0.742-0.326-1.262-1.128-1.262
	c-0.624,0-1.168,0.403-1.304,1.262H346.764z"/>
<path fill="#FFFCEE" d="M348.98,7.566h2.01l0.869,3.042c0.177,0.637,0.354,1.312,0.529,1.989h0.055
	c0.163-0.677,0.34-1.353,0.516-1.989l0.883-3.042h1.915l-2.2,6.448h-2.309L348.98,7.566z"/>
<path fill="#FFFCEE" d="M356.573,5.616c0-0.585,0.489-0.988,1.154-0.988c0.679,0,1.154,0.403,1.154,0.988s-0.476,1.001-1.154,1.001
	C357.063,6.617,356.573,6.201,356.573,5.616z M356.736,7.566h1.996v6.448h-1.996V7.566z"/>
<path fill="#FFFCEE" d="M360.717,12.077c0.611,0.442,1.168,0.676,1.738,0.676c0.598,0,0.855-0.207,0.855-0.545
	c0-0.43-0.679-0.625-1.372-0.885c-0.814-0.299-1.778-0.832-1.778-1.898c0-1.195,1.019-2.014,2.58-2.014
	c1.032,0,1.793,0.402,2.376,0.818l-0.896,1.145c-0.489-0.338-0.951-0.547-1.426-0.547c-0.517,0-0.761,0.182-0.761,0.508
	c0,0.416,0.624,0.572,1.317,0.818c0.855,0.299,1.819,0.754,1.819,1.938c0,1.17-0.964,2.08-2.771,2.08
	c-0.883,0-1.901-0.364-2.58-0.897L360.717,12.077z"/>
<path fill="#F39154" d="M224.844,11.792c0.516,0.48,1.154,0.832,1.888,0.832c0.842,0,1.398-0.352,1.398-0.976
	c0-0.728-0.448-1.183-2.322-1.183V9.113c1.548,0,2.037-0.442,2.037-1.104c0-0.572-0.381-0.91-1.06-0.91
	c-0.611,0-1.072,0.273-1.616,0.729l-1.005-1.171c0.788-0.649,1.657-1.053,2.717-1.053c1.778,0,2.974,0.819,2.974,2.262
	c0,0.858-0.516,1.456-1.439,1.833v0.053c0.991,0.272,1.711,0.949,1.711,2.015c0,1.534-1.467,2.405-3.205,2.405
	c-1.398,0-2.376-0.469-3.001-1.17L224.844,11.792z"/>
<g>
	<g>
		<g>
			<g>
				<g>
					<defs>
						<circle id="SVGID_1_" cx="259.817" cy="9.96" r="7.049"/>
					</defs>
					<clipPath id="SVGID_2_">
						<use xlink:href="#SVGID_1_"  overflow="visible"/>
					</clipPath>
					<g clip-path="url(#SVGID_2_)">
						<g>
							<path fill="#FBFBFB" d="M249.102,2.833c0.02-0.03-0.047-0.102,0.048-0.097c0.056,0.003,0.112,0.001,0.169,0.001
								c7.047,0,14.094,0.001,21.141-0.005c0.181,0,0.221,0.041,0.221,0.221c-0.006,4.728-0.006,9.455,0,14.183
								c0,0.165-0.032,0.197-0.197,0.197c-7.063-0.005-14.126-0.004-21.19-0.01c-0.06,0-0.208,0.1-0.193-0.091
								c0.024-0.021,0.051-0.037,0.08-0.05c0.077-0.028,0.157-0.027,0.237-0.027c1.111,0,2.221-0.004,3.332,0.001
								c0.248,0.018,0.497,0.004,0.746,0.007c5.567,0.001,11.133,0,16.7,0c0.109,0,0.228,0.027,0.313-0.077
								c0.059-0.122,0.038-0.253,0.038-0.38c0.001-3.239,0.001-6.478,0-9.716c0-0.16,0.004-0.32,0.007-0.481
								c-0.015-0.248,0.003-0.496-0.003-0.744c-0.007-0.842-0.001-1.685-0.003-2.527c-0.001-0.314-0.013-0.326-0.324-0.327
								c-1.035-0.003-2.07,0.003-3.105-0.003c-0.264-0.017-0.528-0.004-0.792-0.007c-5.579-0.001-11.159,0-16.738-0.001
								c-0.136,0-0.273,0.013-0.407-0.018C249.154,2.87,249.127,2.854,249.102,2.833z"/>
							<path fill="#C1C0C0" d="M249.102,2.833c0.018,0.002,0.036,0.003,0.054,0.005c0.021,0.025,0.037,0.053,0.047,0.083
								c0.025,0.127,0.015,0.256,0.015,0.384c0.001,3.305,0,6.609,0.001,9.914c0.002,0.265-0.008,0.53,0.007,0.795
								c0.006,0.965,0.003,1.931,0.002,2.896c0,0.111,0.009,0.226-0.072,0.319c-0.018,0.001-0.036,0.002-0.053,0.003
								C249.102,12.432,249.102,7.632,249.102,2.833z"/>
							<path fill="#010202" d="M249.155,17.229c0.001-1.081,0.001-2.162,0.002-3.243c0.023-0.025,0.038-0.056,0.06-0.082
								c0.948-0.615,1.916-1.199,2.876-1.795c2.152-1.337,4.305-2.671,6.458-4.006c1.86-1.153,3.719-2.31,5.581-3.459
								c0.941-0.581,1.875-1.174,2.823-1.745c0.052-0.018,0.107-0.028,0.155-0.058c1.12-0.002,2.24-0.003,3.36-0.01
								c0.124-0.001,0.161,0.03,0.16,0.158c-0.008,0.928-0.007,1.856-0.009,2.784c-0.033,0.077-0.09,0.128-0.16,0.173
								c-1.175,0.754-2.351,1.506-3.528,2.258c-1.082,0.691-2.164,1.383-3.246,2.073c-1.955,1.248-3.907,2.5-5.86,3.75
								c-1.487,0.951-2.974,1.903-4.459,2.857c-0.149,0.095-0.297,0.19-0.451,0.278c-0.049,0.025-0.107,0.028-0.15,0.067
								C251.564,17.229,250.36,17.229,249.155,17.229z"/>
							<path fill="#BF192A" d="M270.623,6.513c0.002,3.165,0.003,6.33,0.004,9.494c0,0.392-0.005,0.785-0.007,1.177
								c-0.092,0.044-0.19,0.021-0.284,0.021c-5.549,0.001-11.097,0.001-16.645,0.001c-0.076,0-0.164,0.003-0.09-0.113
								c0.044-0.069,0.119-0.106,0.187-0.148c3.448-2.151,6.894-4.307,10.339-6.462c2.059-1.288,4.12-2.573,6.18-3.86
								C270.4,6.566,270.485,6.454,270.623,6.513z"/>
							<path fill="#EFE528" d="M270.623,6.513c-1.135,0.705-2.271,1.407-3.404,2.115c-4.459,2.786-8.917,5.574-13.375,8.362
								c-0.094,0.059-0.184,0.125-0.275,0.188c-0.032,0.039-0.077,0.026-0.118,0.029c-0.157,0-0.313,0.003-0.47-0.002
								c-0.046-0.001-0.119,0.03-0.12-0.063c2.026-1.299,4.052-2.599,6.079-3.897c3.893-2.492,7.787-4.982,11.681-7.473
								C270.622,6.019,270.623,6.266,270.623,6.513z"/>
							<path fill="#134F26" d="M249.158,2.88c-0.007-0.014-0.008-0.028-0.002-0.043c1.661-0.001,3.322-0.004,4.983-0.004
								c3.98-0.001,7.961,0,11.941,0c0.088,0,0.176,0.004,0.264,0.007c0.008,0.035-0.004,0.06-0.036,0.076
								c-0.029,0.014-0.059,0.023-0.091,0.027c-0.152,0.015-0.304,0.017-0.456,0.017c-5.356,0-10.713,0-16.069-0.001
								c-0.152,0-0.305,0.016-0.455-0.025C249.208,2.921,249.181,2.903,249.158,2.88z"/>
							<path fill="#8E1922" d="M253.495,17.191c0.025-0.004,0.049-0.008,0.074-0.013c0.112,0.002,0.224,0.005,0.337,0.005
								c5.572,0.001,11.143,0.001,16.715,0.001c-0.035,0.101-0.121,0.054-0.181,0.054c-5.61,0.003-11.22,0.002-16.831,0.002
								c-0.04,0-0.08-0.006-0.12-0.009C253.458,17.213,253.46,17.199,253.495,17.191z"/>
							<path fill="#7C7C22" d="M266.342,2.877c0.002-0.012,0.002-0.025,0.003-0.037c0.255,0,0.51,0,0.766,0
								c-0.025,0.037-0.036,0.089-0.095,0.087C266.791,2.916,266.556,3.03,266.342,2.877z"/>
							<path fill="#B8B611" d="M253.495,17.191c-0.001,0.014-0.003,0.027-0.006,0.041c-0.24-0.001-0.48-0.002-0.72-0.003
								c0.013-0.048,0.04-0.081,0.093-0.086C253.067,17.234,253.285,17.155,253.495,17.191z"/>
							<path fill="#1B7735" d="M249.158,2.88c0.015,0.001,0.03,0.003,0.045,0.006c0.078,0.085,0.073,0.192,0.073,0.296
								c0.002,3.263,0.003,6.527,0,9.79c0,0.048-0.002,0.096-0.01,0.144c-0.006,0.031-0.016,0.061-0.03,0.089
								c-0.017,0.03-0.043,0.043-0.077,0.037c-0.002-0.361-0.007-0.721-0.007-1.082c-0.001-2.997,0-5.995,0-8.992
								C249.15,3.072,249.155,2.976,249.158,2.88z"/>
							<path fill="#B3B314" d="M249.157,13.241c0.014-0.001,0.028-0.001,0.042,0c0.12,0.238,0.106,0.476-0.001,0.713
								c-0.014,0.011-0.028,0.021-0.042,0.031C249.157,13.738,249.157,13.49,249.157,13.241z"/>
							<path fill="#EFE528" d="M249.198,13.954c0-0.238,0-0.475,0.001-0.713l-0.002-0.01c0.055-0.094,0.143-0.149,0.233-0.202
								c2.128-1.272,4.247-2.56,6.37-3.841c2.315-1.397,4.629-2.797,6.943-4.196c1.071-0.647,2.146-1.29,3.212-1.946
								c0.111-0.068,0.228-0.115,0.349-0.159c0.013-0.002,0.026-0.006,0.038-0.011c0.223,0.035,0.455-0.052,0.673,0.051
								c-5.883,3.646-11.766,7.293-17.65,10.939C249.312,13.9,249.254,13.925,249.198,13.954z"/>
							<path fill="#FFFFFF" d="M263.201,5.818c0.293,0.248,0.556,0.446,0.788,0.675c0.147,0.146,0.249,0.128,0.403,0.022
								c0.28-0.192,0.576-0.362,0.903-0.565c-0.144,0.371-0.263,0.708-0.408,1.033c-0.067,0.15-0.028,0.229,0.086,0.32
								c0.272,0.218,0.535,0.446,0.85,0.711c-0.427-0.035-0.786-0.054-1.142-0.1c-0.143-0.018-0.197,0.019-0.243,0.148
								c-0.119,0.336-0.253,0.668-0.407,1.07c-0.092-0.379-0.179-0.691-0.242-1.008c-0.04-0.203-0.127-0.289-0.347-0.289
								c-0.33,0.001-0.661-0.039-1.065-0.067c0.364-0.228,0.662-0.421,0.969-0.603c0.111-0.066,0.155-0.12,0.115-0.26
								C263.366,6.57,263.297,6.226,263.201,5.818z"/>
							<path fill="#FFFFFF" d="M255.624,14.484c-0.094-0.391-0.19-0.727-0.252-1.07c-0.032-0.173-0.11-0.22-0.269-0.224
								c-0.352-0.008-0.703-0.029-1.133-0.049c0.346-0.22,0.629-0.413,0.925-0.584c0.158-0.091,0.2-0.178,0.141-0.361
								c-0.1-0.31-0.161-0.633-0.252-1.005c0.298,0.249,0.569,0.46,0.822,0.691c0.125,0.115,0.214,0.111,0.348,0.019
								c0.275-0.189,0.563-0.359,0.888-0.563c-0.042,0.247-0.139,0.432-0.213,0.624c-0.223,0.582-0.224,0.581,0.262,0.966
								c0.149,0.118,0.296,0.24,0.476,0.386c-0.373,0.051-0.701-0.026-1.028-0.043c-0.185-0.01-0.265,0.037-0.324,0.212
								C255.907,13.809,255.768,14.121,255.624,14.484z"/>
							<path fill="#239E46" d="M266.304,2.888c-0.654,0.402-1.306,0.809-1.963,1.206c-3.818,2.309-7.637,4.616-11.457,6.922
								c-1.227,0.741-2.457,1.477-3.686,2.216c0-3.344,0-6.689,0.001-10.033c0-0.104,0.003-0.208,0.004-0.313
								c0.072-0.002,0.144-0.005,0.216-0.005c5.556,0,11.113,0,16.669,0C266.16,2.881,266.232,2.885,266.304,2.888z"/>
						</g>
					</g>
				</g>
			</g>
		</g>
	</g>
</g>
<circle fill="none" stroke="#FFFCEE" stroke-miterlimit="10" cx="259.817" cy="9.96" r="7.049"/>
<g>
	<path fill="#FFFCEE" d="M489.194,13.144c2.404-2.223,3.911-3.679,3.911-4.94c0-0.871-0.502-1.43-1.426-1.43
		c-0.665,0-1.222,0.429-1.684,0.923l-0.869-0.832c0.787-0.806,1.575-1.273,2.757-1.273c1.656,0,2.729,1.001,2.729,2.534
		c0,1.47-1.426,2.978-3.137,4.707c0.448-0.039,1.019-0.092,1.439-0.092h2.118v1.274h-5.84v-0.871
		C489.192,13.144,489.194,13.144,489.194,13.144z"/>
	<path fill="#FFFCEE" d="M495.946,15.562c0.869-0.325,1.371-0.91,1.371-1.573c-0.041,0-0.081,0-0.122,0
		c-0.529,0-1.005-0.338-1.005-0.923c0-0.559,0.476-0.923,1.046-0.923c0.733,0,1.168,0.572,1.168,1.534
		c0,1.273-0.774,2.262-2.119,2.704L495.946,15.562z"/>
	<path fill="#FFFCEE" d="M504.163,7.437c-0.312-0.364-0.855-0.624-1.371-0.624c-1.087,0-1.97,0.767-2.037,3.055
		c0.502-0.61,1.249-0.975,1.874-0.975c1.494,0,2.525,0.832,2.525,2.561c0,1.651-1.235,2.718-2.716,2.718
		c-1.697,0-3.137-1.262-3.137-4.043c0-3.212,1.63-4.537,3.395-4.537c1.046,0,1.793,0.416,2.309,0.936L504.163,7.437z
		 M503.702,11.453c0-0.975-0.503-1.469-1.358-1.469c-0.489,0-1.06,0.26-1.548,0.949c0.162,1.469,0.773,2.093,1.615,2.093
		C503.131,13.026,503.702,12.468,503.702,11.453z"/>
	<path fill="#FFFCEE" d="M506.813,12.324c0.326,0.364,0.855,0.624,1.385,0.624c1.087,0,1.97-0.767,2.037-3.055
		c-0.502,0.598-1.263,0.962-1.888,0.962c-1.48,0-2.512-0.832-2.512-2.562c0-1.65,1.235-2.703,2.716-2.703
		c1.684,0,3.123,1.248,3.123,4.029c0,3.212-1.616,4.551-3.395,4.551c-1.032,0-1.793-0.416-2.309-0.937L506.813,12.324z
		 M510.194,8.814c-0.162-1.456-0.787-2.08-1.629-2.08c-0.706,0-1.29,0.559-1.29,1.56c0,0.976,0.502,1.482,1.371,1.482
		C509.135,9.776,509.719,9.504,510.194,8.814z"/>
</g>
</svg>
