<?xml version="1.0" encoding="utf-8"?>
<!-- Generator: Adobe Illustrator 17.0.0, SVG Export Plug-In . SVG Version: 6.00 Build 0)  -->
<!DOCTYPE svg PUBLIC "-//W3C//DTD SVG 1.1//EN" "http://www.w3.org/Graphics/SVG/1.1/DTD/svg11.dtd">
<svg version="1.1" id="Layer_1" xmlns="http://www.w3.org/2000/svg" xmlns:xlink="http://www.w3.org/1999/xlink" x="0px" y="0px"
	 width="600px" height="19.542px" viewBox="0 0 600 19.542" enable-background="new 0 0 600 19.542" xml:space="preserve">
<rect x="0" y="0" fill="#F39154" width="600" height="19.542"/>
<line fill="none" stroke="#9F9F9F" stroke-width="0.7" stroke-miterlimit="10" stroke-dasharray="6,3" x1="199.426" y1="0" x2="199.426" y2="18.904"/>
<line fill="none" stroke="#9F9F9F" stroke-width="0.7" stroke-miterlimit="10" stroke-dasharray="6,3" x1="440.97" y1="0" x2="440.97" y2="18.904"/>
<g>
	<g>
		<g>
			<rect x="451.885" y="8.683" fill="#FFFCEE" width="35.841" height="2"/>
		</g>
		<g>
			<g>
				<circle fill="#FFFCEE" cx="487.602" cy="9.683" r="2.481"/>
			</g>
		</g>
	</g>
</g>
<path fill="#FFFCEE" d="M67.679,7.2c-0.503-0.441-0.924-0.688-1.575-0.688c-0.733,0-1.182,0.363-1.182,1.04
	c0,1.56,3.694,1.248,3.694,3.874c0,1.234-0.761,2.145-2.105,2.379v1.339h-1.086v-1.3c-0.829-0.078-1.738-0.442-2.35-0.988
	l0.706-1.014c0.638,0.48,1.276,0.806,2.01,0.806c0.883,0,1.317-0.416,1.317-1.118c0-1.716-3.694-1.469-3.694-3.913
	c0-1.209,0.788-2.067,2.011-2.275V4.016h1.086v1.3C67.38,5.42,67.978,5.823,68.48,6.33L67.679,7.2z"/>
<path fill="#FFFCEE" d="M72.054,12.843c2.404-2.224,3.911-3.68,3.911-4.94c0-0.871-0.502-1.43-1.426-1.43
	c-0.665,0-1.222,0.429-1.684,0.923l-0.869-0.832c0.787-0.807,1.575-1.274,2.757-1.274c1.656,0,2.729,1.001,2.729,2.535
	c0,1.469-1.426,2.978-3.137,4.706c0.448-0.039,1.019-0.091,1.439-0.091h2.118v1.274h-5.84v-0.871H72.054z"/>
<path fill="#FFFCEE" d="M79.649,12.023c0.326,0.364,0.855,0.624,1.385,0.624c1.087,0,1.97-0.767,2.037-3.055
	c-0.502,0.598-1.263,0.962-1.888,0.962c-1.48,0-2.512-0.832-2.512-2.562c0-1.65,1.235-2.704,2.716-2.704
	c1.684,0,3.123,1.248,3.123,4.03c0,3.211-1.616,4.55-3.395,4.55c-1.032,0-1.793-0.416-2.309-0.936L79.649,12.023z M83.029,8.514
	c-0.162-1.456-0.787-2.08-1.629-2.08c-0.706,0-1.29,0.559-1.29,1.56c0,0.976,0.502,1.482,1.371,1.482
	C81.971,9.476,82.555,9.202,83.029,8.514z"/>
<path fill="#FFFCEE" d="M85.802,12.491h1.929V7.058h-1.589V6.121c0.855-0.156,1.453-0.364,1.996-0.676h1.168v7.046h1.697v1.223
	h-5.201V12.491z"/>
<path fill="#FFFCEE" d="M98.039,11.581h-1.086v2.133h-1.467v-2.133H91.67v-1.014l3.423-5.122h1.86v4.979h1.086
	C98.039,10.424,98.039,11.581,98.039,11.581z M95.486,10.425V8.553c0-0.481,0.041-1.235,0.067-1.717H95.5
	c-0.218,0.43-0.462,0.846-0.706,1.287l-1.575,2.302H95.486z"/>
<path fill="#FFFCEE" d="M99.536,12.023c0.326,0.364,0.855,0.624,1.385,0.624c1.087,0,1.97-0.767,2.037-3.055
	c-0.502,0.598-1.263,0.962-1.888,0.962c-1.48,0-2.512-0.832-2.512-2.562c0-1.65,1.235-2.704,2.716-2.704
	c1.684,0,3.123,1.248,3.123,4.03c0,3.211-1.616,4.55-3.395,4.55c-1.032,0-1.793-0.416-2.309-0.936L99.536,12.023z M102.917,8.514
	c-0.162-1.456-0.787-2.08-1.629-2.08c-0.706,0-1.29,0.559-1.29,1.56c0,0.976,0.502,1.482,1.371,1.482
	C101.859,9.476,102.443,9.202,102.917,8.514z"/>
<path fill="#FFFCEE" d="M105.323,15.261c0.869-0.325,1.371-0.91,1.371-1.573c-0.041,0-0.081,0-0.122,0
	c-0.529,0-1.005-0.338-1.005-0.923c0-0.56,0.476-0.923,1.046-0.923c0.733,0,1.168,0.571,1.168,1.534
	c0,1.273-0.774,2.262-2.119,2.704L105.323,15.261z"/>
<path fill="#FFFCEE" d="M109.154,11.737c0.516,0.507,1.181,0.91,2.05,0.91c0.938,0,1.589-0.468,1.589-1.248
	c0-0.858-0.57-1.404-2.539-1.404V8.903c1.697,0,2.254-0.559,2.254-1.326c0-0.688-0.488-1.104-1.276-1.104
	c-0.679,0-1.208,0.312-1.738,0.779l-0.801-0.923c0.733-0.624,1.562-1.04,2.594-1.04c1.656,0,2.798,0.78,2.798,2.185
	c0,0.923-0.571,1.547-1.508,1.897v0.053c1.019,0.26,1.793,0.962,1.793,2.054c0,1.508-1.372,2.392-3.028,2.392
	c-1.399,0-2.322-0.52-2.934-1.17L109.154,11.737z"/>
<path fill="#FFFCEE" d="M115.253,9.54c0-2.795,1.141-4.251,2.934-4.251s2.934,1.47,2.934,4.251c0,2.796-1.141,4.329-2.934,4.329
	S115.253,12.336,115.253,9.54z M119.626,9.54c0-2.34-0.598-3.081-1.439-3.081c-0.828,0-1.439,0.741-1.439,3.081
	c0,2.341,0.611,3.159,1.439,3.159C119.028,12.699,119.626,11.881,119.626,9.54z"/>
<path fill="#FFFCEE" d="M126.337,14.233v2.002h-1.562V7.33h1.29l0.109,0.677h0.054c0.557-0.455,1.276-0.832,2.01-0.832
	c1.657,0,2.621,1.273,2.621,3.25c0,2.184-1.371,3.444-2.852,3.444c-0.584,0-1.168-0.26-1.711-0.701L126.337,14.233z M127.682,12.635
	c0.883,0,1.562-0.754,1.562-2.197c0-1.274-0.435-2.028-1.439-2.028c-0.488,0-0.95,0.234-1.467,0.715v2.978
	C126.826,12.491,127.288,12.635,127.682,12.635z"/>
<path fill="#FFFCEE" d="M134.434,4.483h1.06l-3.164,11.311h-1.06L134.434,4.483z"/>
<path fill="#FFFCEE" d="M139.012,7.175c0.855,0,1.508,0.324,1.956,0.74l-0.747,0.949c-0.354-0.299-0.706-0.468-1.127-0.468
	c-1.073,0-1.82,0.845-1.82,2.132c0,1.274,0.733,2.119,1.779,2.119c0.543,0,1.005-0.26,1.371-0.546l0.652,0.949
	c-0.625,0.533-1.426,0.818-2.187,0.818c-1.82,0-3.219-1.222-3.219-3.341C135.671,8.396,137.233,7.175,139.012,7.175z"/>
<circle fill="none" stroke="#FFFCEE" stroke-miterlimit="10" cx="259.817" cy="9.683" r="7.049"/>
<path fill="#FFFCEE" d="M281.612,6.85h-2.444V5.237h6.871V6.85h-2.431v6.864h-1.996V6.85z"/>
<path fill="#FFFCEE" d="M286.626,7.266h1.63l0.136,1.131h0.054c0.489-0.87,1.223-1.286,1.915-1.286c0.38,0,0.611,0.051,0.802,0.129
	l-0.326,1.651c-0.244-0.065-0.448-0.104-0.733-0.104c-0.503,0-1.127,0.312-1.48,1.184v3.744h-1.996V7.266H286.626z"/>
<path fill="#FFFCEE" d="M291.802,5.315c0-0.585,0.489-0.988,1.154-0.988c0.679,0,1.154,0.403,1.154,0.988s-0.476,1.001-1.154,1.001
	C292.291,6.316,291.802,5.9,291.802,5.315z M291.965,7.266h1.996v6.448h-1.996V7.266z"/>
<path fill="#FFFCEE" d="M295.646,7.266h1.63l0.136,0.819h0.054c0.57-0.521,1.25-0.975,2.159-0.975c1.467,0,2.092,0.987,2.092,2.6
	v4.004h-1.996V9.956c0-0.936-0.258-1.221-0.829-1.221c-0.502,0-0.814,0.221-1.249,0.623v4.355h-1.996L295.646,7.266L295.646,7.266z"
	/>
<path fill="#FFFCEE" d="M303.186,5.315c0-0.585,0.489-0.988,1.154-0.988c0.679,0,1.154,0.403,1.154,0.988s-0.476,1.001-1.154,1.001
	C303.675,6.316,303.186,5.9,303.186,5.315z M303.349,7.266h1.996v6.448h-1.996V7.266z"/>
<path fill="#FFFCEE" d="M309.475,7.11c0.747,0,1.195,0.26,1.657,0.676l-0.082-0.988V4.601h1.996v9.113h-1.629l-0.136-0.637h-0.055
	c-0.476,0.455-1.141,0.793-1.793,0.793c-1.67,0-2.757-1.274-2.757-3.381C306.677,8.384,308.049,7.11,309.475,7.11z M309.95,12.31
	c0.435,0,0.773-0.156,1.1-0.585v-2.64c-0.353-0.311-0.747-0.416-1.113-0.416c-0.639,0-1.209,0.572-1.209,1.795
	C308.728,11.737,309.176,12.31,309.95,12.31z"/>
<path fill="#FFFCEE" d="M318.29,9.567c-0.04-0.572-0.339-0.937-1.059-0.937c-0.57,0-1.141,0.221-1.793,0.585l-0.706-1.262
	c0.855-0.494,1.819-0.844,2.879-0.844c1.725,0,2.676,0.936,2.676,2.912v3.691h-1.63l-0.149-0.663h-0.041
	c-0.57,0.481-1.208,0.819-1.969,0.819c-1.223,0-1.996-0.858-1.996-1.95C314.502,10.567,315.629,9.827,318.29,9.567z M317.177,12.388
	c0.462,0,0.761-0.208,1.113-0.546v-1.131c-1.426,0.182-1.888,0.571-1.888,1.065C316.402,12.192,316.701,12.388,317.177,12.388z"/>
<path fill="#FFFCEE" d="M324.377,7.11c0.747,0,1.195,0.26,1.657,0.676l-0.082-0.988V4.601h1.996v9.113h-1.629l-0.136-0.637h-0.055
	c-0.476,0.455-1.141,0.793-1.793,0.793c-1.67,0-2.757-1.274-2.757-3.381C321.579,8.384,322.951,7.11,324.377,7.11z M324.853,12.31
	c0.435,0,0.773-0.156,1.1-0.585v-2.64c-0.353-0.311-0.747-0.416-1.113-0.416c-0.639,0-1.209,0.572-1.209,1.795
	C323.63,11.737,324.078,12.31,324.853,12.31z"/>
<path fill="#FFFCEE" d="M339.861,13.87c-0.732-0.143-1.507-0.442-2.268-0.858c-0.747,0.533-1.67,0.858-2.784,0.858
	c-1.928,0-2.946-1.118-2.946-2.418c0-1.184,0.746-1.859,1.615-2.393c-0.339-0.611-0.543-1.223-0.543-1.755
	c0-1.209,0.924-2.224,2.404-2.224c1.33,0,2.173,0.754,2.173,1.924c0,1.105-0.924,1.808-1.848,2.406
	c0.503,0.559,1.128,1.092,1.779,1.547c0.448-0.559,0.802-1.235,1.019-2.028h1.82c-0.326,1.026-0.802,1.976-1.48,2.86
	c0.557,0.273,1.086,0.468,1.534,0.533L339.861,13.87z M335.068,12.413c0.366,0,0.746-0.116,1.127-0.338
	c-0.692-0.532-1.331-1.131-1.848-1.754c-0.353,0.299-0.597,0.623-0.597,1.014C333.751,11.972,334.28,12.413,335.068,12.413z
	 M334.864,8.306c0.639-0.363,1.127-0.729,1.127-1.301c0-0.402-0.19-0.662-0.611-0.662c-0.448,0-0.801,0.363-0.801,0.949
	C334.579,7.604,334.688,7.954,334.864,8.306z"/>
<path fill="#FFFCEE" d="M346.045,6.85h-2.444V5.237h6.871V6.85h-2.431v6.864h-1.996V6.85z"/>
<path fill="#FFFCEE" d="M353.489,7.11c1.697,0,3.272,1.234,3.272,3.379c0,2.146-1.575,3.381-3.272,3.381
	c-1.711,0-3.286-1.235-3.286-3.381C350.203,8.345,351.778,7.11,353.489,7.11z M353.489,12.323c0.814,0,1.235-0.715,1.235-1.834
	c0-1.117-0.421-1.832-1.235-1.832c-0.828,0-1.236,0.715-1.236,1.832C352.253,11.608,352.661,12.323,353.489,12.323z"/>
<path fill="#FFFCEE" d="M358.068,4.601h1.996v2.236l-0.055,0.988c0.517-0.442,1.155-0.715,1.779-0.715
	c1.63,0,2.648,1.286,2.648,3.262c0,2.224-1.385,3.498-2.838,3.498c-0.598,0-1.223-0.286-1.752-0.832h-0.055l-0.163,0.676h-1.562
	V4.601H358.068z M361.138,12.31c0.692,0,1.249-0.572,1.249-1.898c0-1.156-0.366-1.742-1.168-1.742c-0.407,0-0.773,0.183-1.154,0.586
	v2.639C360.418,12.206,360.798,12.31,361.138,12.31z"/>
<path fill="#FFFCEE" d="M369.179,9.567c-0.04-0.572-0.339-0.937-1.059-0.937c-0.57,0-1.141,0.221-1.793,0.585l-0.706-1.262
	c0.855-0.494,1.819-0.844,2.879-0.844c1.725,0,2.676,0.936,2.676,2.912v3.691h-1.63l-0.149-0.663h-0.041
	c-0.57,0.481-1.208,0.819-1.969,0.819c-1.223,0-1.996-0.858-1.996-1.95C365.391,10.567,366.518,9.827,369.179,9.567z
	 M368.066,12.388c0.462,0,0.761-0.208,1.113-0.546v-1.131c-1.426,0.182-1.888,0.571-1.888,1.065
	C367.291,12.192,367.59,12.388,368.066,12.388z"/>
<path fill="#FFFCEE" d="M373.364,13.519v-0.052c-0.353-0.222-0.625-0.56-0.625-1.092c0-0.468,0.326-0.923,0.761-1.21v-0.051
	c-0.475-0.312-0.91-0.924-0.91-1.678c0-1.547,1.331-2.326,2.784-2.326c0.381,0,0.747,0.051,1.046,0.155h2.458v1.392h-1.073
	c0.123,0.194,0.218,0.506,0.218,0.844c0,1.482-1.168,2.172-2.648,2.172c-0.244,0-0.516-0.039-0.814-0.13
	c-0.177,0.144-0.244,0.26-0.244,0.481c0,0.324,0.271,0.48,1.019,0.48h1.086c1.657,0,2.566,0.48,2.566,1.639
	c0,1.338-1.453,2.313-3.762,2.313c-1.575,0-2.824-0.494-2.824-1.638C372.401,14.286,372.739,13.856,373.364,13.519z M375.537,15.261
	c0.896,0,1.548-0.352,1.548-0.793c0-0.402-0.366-0.507-1.031-0.507h-0.693c-0.461,0-0.733-0.026-0.95-0.078
	c-0.244,0.208-0.367,0.403-0.367,0.638C374.043,15.001,374.641,15.261,375.537,15.261z M376.298,9.437
	c0-0.676-0.394-1.04-0.924-1.04c-0.529,0-0.923,0.351-0.923,1.04c0,0.715,0.394,1.079,0.923,1.079
	C375.904,10.516,376.298,10.151,376.298,9.437z"/>
<path fill="#FFFCEE" d="M382.656,7.11c1.697,0,3.272,1.234,3.272,3.379c0,2.146-1.575,3.381-3.272,3.381
	c-1.711,0-3.286-1.235-3.286-3.381C379.37,8.345,380.945,7.11,382.656,7.11z M382.656,12.323c0.814,0,1.235-0.715,1.235-1.834
	c0-1.117-0.421-1.832-1.235-1.832c-0.828,0-1.236,0.715-1.236,1.832C381.42,11.608,381.828,12.323,382.656,12.323z"/>
<path fill="#F39154" d="M224.844,11.491c0.516,0.48,1.154,0.832,1.888,0.832c0.842,0,1.398-0.352,1.398-0.976
	c0-0.728-0.448-1.183-2.322-1.183V8.812c1.548,0,2.037-0.442,2.037-1.104c0-0.572-0.381-0.91-1.06-0.91
	c-0.611,0-1.072,0.273-1.616,0.729l-1.005-1.171c0.788-0.649,1.657-1.053,2.717-1.053c1.778,0,2.974,0.819,2.974,2.262
	c0,0.858-0.516,1.456-1.439,1.833V9.45c0.991,0.272,1.711,0.949,1.711,2.015c0,1.534-1.467,2.405-3.205,2.405
	c-1.398,0-2.376-0.469-3.001-1.17L224.844,11.491z"/>
<g>
	<g>
		<g>
			<g>
				<g>
					<defs>
						<circle id="SVGID_1_" cx="259.817" cy="9.683" r="7.049"/>
					</defs>
					<clipPath id="SVGID_2_">
						<use xlink:href="#SVGID_1_"  overflow="visible"/>
					</clipPath>
					<g clip-path="url(#SVGID_2_)">
						<g>
							<path fill="#BF192A" d="M271,2.281c0,4.915,0,9.83,0,14.745c-0.067,0.031-0.11-0.015-0.153-0.051
								c-0.07-0.058-0.132-0.126-0.196-0.191c-4.711-4.711-9.422-9.422-14.133-14.134c-0.076-0.076-0.158-0.148-0.222-0.235
								c-0.077-0.105-0.042-0.167,0.078-0.195c0.108-0.014,0.216-0.009,0.324-0.009c4.624,0,9.247-0.001,13.871,0.001
								C270.714,2.212,270.87,2.175,271,2.281z"/>
							<path fill="#FFFFFF" d="M256.268,2.286c0.097,0.102,0.192,0.206,0.291,0.305c4.765,4.766,9.531,9.532,14.297,14.297
								c0.047,0.047,0.096,0.092,0.144,0.137c0,0.017,0,0.033,0,0.05c-0.314,0.108-0.639,0.022-0.957,0.049
								c-0.098,0.007-0.176-0.035-0.245-0.1c-0.06-0.057-0.119-0.116-0.178-0.174c-4.741-4.741-9.483-9.483-14.224-14.224
								c-0.07-0.07-0.146-0.136-0.204-0.218c-0.046-0.065-0.082-0.134,0.03-0.176c0.326-0.03,0.652-0.033,0.978,0.001
								C256.228,2.244,256.251,2.261,256.268,2.286z"/>
							<path fill="#FFFFFF" d="M248.733,2.231c0.017-0.031-0.036-0.087,0.025-0.097c0.056-0.01,0.116-0.002,0.174-0.002
								c7.289,0,14.579,0,21.868,0.005c0.062,0,0.215-0.103,0.199,0.095c-0.086,0.046-0.179,0.023-0.269,0.023
								c-4.82,0.001-9.641,0.001-14.461,0.001c-0.388,0.016-0.777-0.033-1.163,0.027c-0.055,0.022-0.113,0.027-0.171,0.027
								c-1.662-0.001-3.324,0.012-4.986-0.007c-0.379-0.016-0.758,0.022-1.136-0.021C248.785,2.269,248.758,2.252,248.733,2.231z"/>
							<path fill="#FFFFFF" d="M271,17.125c-0.045,0.103-0.134,0.047-0.199,0.047c-2.057,0.004-4.113,0.003-6.17,0.003
								c-5.225,0-10.449,0-15.674-0.003c-0.073,0-0.169,0.057-0.224-0.047c0.026-0.022,0.054-0.039,0.085-0.051
								c0.139-0.032,0.281-0.018,0.421-0.018c4.791-0.001,9.582,0,14.374-0.001c0.372-0.002,0.745,0.008,1.117-0.006
								c1.632-0.007,3.263-0.002,4.895-0.004c0.11,0,0.213,0.023,0.316,0.055C270.294,17.118,270.648,17.069,271,17.125z"/>
							<path fill="#C1C0C0" d="M248.79,17.121c-0.019,0.001-0.037,0.003-0.056,0.004c0-4.965,0-9.93,0-14.894
								c0.018,0.001,0.036,0.003,0.054,0.004c0.022,0.026,0.039,0.054,0.05,0.086c0.024,0.106,0.016,0.215,0.016,0.322
								c0.001,4.689,0.001,9.379-0.001,14.068C248.852,16.85,248.886,16.996,248.79,17.121z"/>
							<path fill="#010202" d="M256.258,2.235c2.374-0.001,4.748-0.003,7.122-0.004c2.54-0.001,5.08,0,7.62,0
								c0,0.017,0,0.033,0,0.05c-4.836,0-9.672,0-14.508,0c-0.075,0-0.149,0.003-0.224,0.005L256.25,2.28
								c-0.013-0.013-0.016-0.023-0.01-0.032C256.246,2.239,256.252,2.235,256.258,2.235z"/>
							<path fill="#BFBFBF" d="M271,17.125c-0.351-0.002-0.702-0.003-1.053-0.005c-0.013-0.01-0.017-0.02-0.012-0.029
								c0.005-0.009,0.01-0.014,0.014-0.014c0.35-0.001,0.7-0.002,1.05-0.002C271,17.092,271,17.109,271,17.125z"/>
							<path fill="#010203" d="M269.95,17.078c0.003,0.015,0.002,0.029-0.002,0.043c-1.738,0-3.477-0.001-5.215-0.001
								c-0.032-0.015-0.065-0.027-0.096-0.043c-0.092-0.059-0.161-0.142-0.237-0.218c-4.751-4.75-9.502-9.501-14.252-14.253
								c-0.092-0.092-0.209-0.168-0.244-0.307c0.001-0.025,0.01-0.046,0.029-0.063c1.725,0,3.451,0,5.176,0
								c0.02,0.016,0.05,0.019,0.061,0.047c0.035,0.044,0.066,0.092,0.106,0.131c4.861,4.861,9.722,9.722,14.584,14.583
								C269.887,17.025,269.919,17.051,269.95,17.078z"/>
							<path fill="#7D7D7D" d="M255.169,2.282c-0.02-0.016-0.041-0.031-0.061-0.047c0.383,0,0.767,0,1.15,0
								c-0.01,0.014-0.012,0.029-0.008,0.045C255.89,2.281,255.529,2.281,255.169,2.282z"/>
							<path fill="#7E7E7E" d="M249.931,2.235c-0.002,0.017-0.005,0.034-0.007,0.05c-0.345,0.137-0.701,0.06-1.053,0.05
								c-0.03-0.01-0.057-0.026-0.08-0.047c-0.001-0.018-0.003-0.035-0.004-0.053C249.169,2.235,249.55,2.235,249.931,2.235z"/>
							<path fill="#1C0508" d="M248.791,2.288c0.015,0.003,0.029,0.001,0.042-0.007c0.021,0.026,0.038,0.054,0.051,0.085
								c0.042,0.155,0.028,0.313,0.028,0.47c0.001,4.563,0.001,9.126,0.001,13.689c0,0.469,0,0.47,0.478,0.47
								c4.555,0,9.11,0,13.664,0c0.149,0,0.299-0.008,0.447,0.015c0.033,0.005,0.064,0.015,0.093,0.03
								c0.034,0.019,0.042,0.046,0.023,0.08c-0.099,0.002-0.199,0.006-0.298,0.006c-4.753,0-9.505,0-14.258,0
								c-0.091,0-0.182-0.003-0.273-0.005c-0.002-0.29-0.005-0.581-0.005-0.871c0-4.546,0-9.093,0-13.639
								C248.784,2.503,248.789,2.396,248.791,2.288z"/>
							<path fill="#BFBFBF" d="M263.619,17.12c0.004-0.013,0.005-0.026,0.001-0.039c0.355-0.148,0.711-0.115,1.068-0.008
								c0.015,0.016,0.029,0.031,0.044,0.047C264.361,17.119,263.99,17.12,263.619,17.12z"/>
							<path fill="#FFFFFF" d="M264.688,17.072c-0.356,0.003-0.712,0.006-1.068,0.008c-0.016-0.004-0.031-0.008-0.046-0.012
								c-0.11-0.046-0.191-0.129-0.273-0.211c-4.75-4.75-9.5-9.501-14.25-14.25c-0.082-0.082-0.164-0.164-0.212-0.273
								c-0.002-0.018-0.003-0.035-0.005-0.053c0.364,0.002,0.727,0.003,1.091,0.005c4.861,4.862,9.722,9.723,14.582,14.586
								C264.57,16.935,264.628,17.005,264.688,17.072z"/>
							<path fill="#BF192A" d="M248.839,2.333c0.043,0.037,0.089,0.072,0.13,0.113c4.831,4.83,9.662,9.661,14.492,14.492
								c0.04,0.04,0.076,0.086,0.113,0.13c-0.332,0.002-0.664,0.006-0.995,0.006c-4.497,0-8.994,0-13.491,0.003
								c-0.173,0-0.262-0.014-0.261-0.233c0.007-4.804,0.005-9.608,0.006-14.412C248.832,2.4,248.836,2.367,248.839,2.333z"/>
						</g>
					</g>
				</g>
			</g>
		</g>
	</g>
</g>
<circle fill="none" stroke="#FFFCEE" stroke-miterlimit="10" cx="259.817" cy="9.683" r="7.049"/>
<g>
	<path fill="#FFFCEE" d="M499.267,11.737c0.516,0.508,1.181,0.91,2.05,0.91c0.938,0,1.589-0.468,1.589-1.248
		c0-0.857-0.57-1.403-2.539-1.403V8.903c1.697,0,2.254-0.559,2.254-1.326c0-0.688-0.488-1.104-1.276-1.104
		c-0.679,0-1.208,0.312-1.738,0.78l-0.801-0.924c0.733-0.623,1.562-1.039,2.594-1.039c1.656,0,2.798,0.779,2.798,2.184
		c0,0.923-0.571,1.547-1.508,1.898v0.052c1.019,0.26,1.793,0.962,1.793,2.054c0,1.508-1.372,2.393-3.028,2.393
		c-1.399,0-2.322-0.521-2.934-1.17L499.267,11.737z"/>
	<path fill="#FFFCEE" d="M505.462,15.261c0.869-0.325,1.371-0.91,1.371-1.573c-0.041,0-0.081,0-0.122,0
		c-0.529,0-1.005-0.338-1.005-0.923c0-0.559,0.476-0.923,1.046-0.923c0.733,0,1.168,0.572,1.168,1.534
		c0,1.273-0.774,2.262-2.119,2.704L505.462,15.261z"/>
	<path fill="#FFFCEE" d="M509.293,11.737c0.516,0.508,1.181,0.91,2.05,0.91c0.938,0,1.589-0.468,1.589-1.248
		c0-0.857-0.57-1.403-2.539-1.403V8.903c1.697,0,2.254-0.559,2.254-1.326c0-0.688-0.488-1.104-1.276-1.104
		c-0.679,0-1.208,0.312-1.738,0.78l-0.801-0.924c0.733-0.623,1.562-1.039,2.594-1.039c1.656,0,2.798,0.779,2.798,2.184
		c0,0.923-0.571,1.547-1.508,1.898v0.052c1.019,0.26,1.793,0.962,1.793,2.054c0,1.508-1.372,2.393-3.028,2.393
		c-1.399,0-2.322-0.521-2.934-1.17L509.293,11.737z"/>
	<path fill="#FFFCEE" d="M515.391,9.541c0-2.796,1.141-4.251,2.934-4.251s2.934,1.469,2.934,4.251c0,2.795-1.141,4.329-2.934,4.329
		S515.391,12.336,515.391,9.541z M519.764,9.541c0-2.341-0.598-3.081-1.439-3.081c-0.828,0-1.439,0.74-1.439,3.081
		c0,2.34,0.611,3.159,1.439,3.159C519.167,12.7,519.764,11.881,519.764,9.541z"/>
</g>
</svg>
