<?xml version="1.0" encoding="utf-8"?>
<!-- Generator: Adobe Illustrator 17.0.0, SVG Export Plug-In . SVG Version: 6.00 Build 0)  -->
<!DOCTYPE svg PUBLIC "-//W3C//DTD SVG 1.1//EN" "http://www.w3.org/Graphics/SVG/1.1/DTD/svg11.dtd">
<svg version="1.1" id="Layer_1" xmlns="http://www.w3.org/2000/svg" xmlns:xlink="http://www.w3.org/1999/xlink" x="0px" y="0px"
	 width="600px" height="19.045px" viewBox="0 0 600 19.045" enable-background="new 0 0 600 19.045" xml:space="preserve">
<rect x="79.74" y="1.991" fill="#F39154" width="112.388" height="14.097"/>
<g>
	<rect x="448.356" y="8.04" fill="#F39154" width="35.84" height="2"/>
</g>
<g>
	<g>
		<circle fill="#F39154" cx="484.072" cy="9.04" r="2.481"/>
	</g>
</g>
<rect x="0" y="-0.643" fill="none" width="600" height="19.542"/>
<line fill="none" stroke="#9F9F9F" stroke-width="0.7" stroke-miterlimit="10" stroke-dasharray="6,3" x1="199.426" y1="-0.643" x2="199.426" y2="18.261"/>
<line fill="none" stroke="#9F9F9F" stroke-width="0.7" stroke-miterlimit="10" stroke-dasharray="6,3" x1="440.97" y1="-0.643" x2="440.97" y2="18.261"/>
<g>
	<g>
		<g>
			<defs>
				<circle id="SVGID_1_" cx="259.927" cy="9.04" r="7.049"/>
			</defs>
			<clipPath id="SVGID_2_">
				<use xlink:href="#SVGID_1_"  overflow="visible"/>
			</clipPath>
			<g id="TYZ7wu_1_" clip-path="url(#SVGID_2_)">
				<g>
					<g>
						<path fill="#BF192A" d="M271.11,1.638c0,4.915,0,9.83,0,14.745c-0.067,0.031-0.11-0.015-0.153-0.051
							c-0.07-0.058-0.132-0.126-0.196-0.191c-4.711-4.711-9.422-9.422-14.133-14.134c-0.076-0.076-0.158-0.148-0.222-0.235
							c-0.077-0.105-0.042-0.167,0.078-0.195c0.108-0.014,0.216-0.009,0.324-0.009c4.624,0,9.247-0.001,13.871,0.001
							C270.824,1.569,270.98,1.532,271.11,1.638z"/>
						<path fill="#FFFFFF" d="M256.378,1.643c0.097,0.102,0.192,0.206,0.291,0.305c4.765,4.766,9.531,9.532,14.297,14.297
							c0.047,0.047,0.096,0.092,0.144,0.137c0,0.017,0,0.033,0,0.05c-0.314,0.108-0.639,0.022-0.957,0.049
							c-0.098,0.007-0.176-0.035-0.245-0.1c-0.06-0.057-0.119-0.116-0.178-0.174c-4.741-4.741-9.483-9.483-14.224-14.224
							c-0.07-0.07-0.146-0.136-0.204-0.218c-0.046-0.065-0.082-0.134,0.03-0.176c0.326-0.03,0.652-0.033,0.978,0.001
							C256.338,1.601,256.361,1.619,256.378,1.643z"/>
						<path fill="#FFFFFF" d="M248.843,1.588c0.017-0.031-0.036-0.087,0.025-0.097c0.056-0.01,0.116-0.002,0.174-0.002
							c7.289,0,14.579,0,21.868,0.005c0.062,0,0.215-0.103,0.199,0.095c-0.086,0.046-0.179,0.023-0.269,0.023
							c-4.82,0.001-9.641,0.001-14.461,0.001c-0.388,0.016-0.777-0.033-1.163,0.027c-0.055,0.022-0.113,0.027-0.171,0.027
							c-1.662-0.001-3.324,0.012-4.986-0.007c-0.379-0.016-0.758,0.022-1.136-0.021C248.895,1.626,248.868,1.609,248.843,1.588z"/>
						<path fill="#FFFFFF" d="M271.11,16.482c-0.045,0.103-0.134,0.047-0.199,0.047c-2.057,0.004-4.113,0.003-6.17,0.003
							c-5.225,0-10.449,0-15.674-0.003c-0.073,0-0.169,0.057-0.224-0.047c0.026-0.022,0.054-0.039,0.085-0.051
							c0.139-0.032,0.281-0.018,0.421-0.018c4.791-0.001,9.582,0,14.374-0.001c0.372-0.002,0.745,0.008,1.117-0.006
							c1.632-0.007,3.263-0.002,4.895-0.004c0.11,0,0.213,0.023,0.316,0.055C270.404,16.475,270.758,16.426,271.11,16.482z"/>
						<path fill="#C1C0C0" d="M248.9,16.478c-0.019,0.001-0.037,0.003-0.056,0.004c0-4.965,0-9.93,0-14.894
							c0.018,0.001,0.036,0.003,0.054,0.004c0.022,0.026,0.039,0.054,0.05,0.086c0.024,0.106,0.016,0.215,0.016,0.322
							c0.001,4.689,0.001,9.379-0.001,14.068C248.962,16.207,248.996,16.353,248.9,16.478z"/>
						<path fill="#010202" d="M256.368,1.592c2.374-0.001,4.748-0.003,7.122-0.004c2.54-0.001,5.08,0,7.62,0c0,0.017,0,0.033,0,0.05
							c-4.836,0-9.672,0-14.508,0c-0.075,0-0.149,0.003-0.224,0.005l-0.018-0.006c-0.013-0.013-0.016-0.023-0.01-0.032
							C256.356,1.596,256.362,1.592,256.368,1.592z"/>
						<path fill="#BFBFBF" d="M271.11,16.482c-0.351-0.002-0.702-0.003-1.053-0.005c-0.013-0.01-0.017-0.02-0.012-0.029
							c0.005-0.009,0.01-0.014,0.014-0.014c0.35-0.001,0.7-0.002,1.05-0.002C271.11,16.449,271.11,16.466,271.11,16.482z"/>
						<path fill="#010203" d="M270.06,16.435c0.003,0.015,0.002,0.029-0.002,0.043c-1.738,0-3.477-0.001-5.215-0.001
							c-0.032-0.015-0.065-0.027-0.096-0.043c-0.092-0.059-0.161-0.142-0.237-0.218c-4.751-4.75-9.502-9.501-14.252-14.253
							c-0.092-0.092-0.209-0.168-0.244-0.307c0.001-0.025,0.01-0.046,0.029-0.063c1.725,0,3.451,0,5.176,0
							c0.02,0.016,0.05,0.019,0.061,0.047c0.035,0.044,0.066,0.092,0.106,0.131c4.861,4.861,9.722,9.722,14.584,14.583
							C269.997,16.382,270.029,16.408,270.06,16.435z"/>
						<path fill="#7D7D7D" d="M255.279,1.639c-0.02-0.016-0.041-0.031-0.061-0.047c0.383,0,0.767,0,1.15,0
							c-0.01,0.014-0.012,0.029-0.008,0.045C255.999,1.638,255.639,1.639,255.279,1.639z"/>
						<path fill="#7E7E7E" d="M250.041,1.592c-0.002,0.017-0.005,0.034-0.007,0.05c-0.345,0.137-0.701,0.06-1.053,0.05
							c-0.03-0.01-0.057-0.026-0.08-0.047c-0.001-0.018-0.003-0.035-0.004-0.053C249.278,1.592,249.66,1.592,250.041,1.592z"/>
						<path fill="#1C0508" d="M248.901,1.645c0.015,0.003,0.029,0.001,0.042-0.007c0.021,0.026,0.038,0.054,0.051,0.085
							c0.042,0.155,0.028,0.313,0.028,0.47c0.001,4.563,0.001,9.126,0.001,13.689c0,0.469,0,0.47,0.478,0.47
							c4.555,0,9.11,0,13.664,0c0.149,0,0.299-0.008,0.447,0.015c0.033,0.005,0.064,0.015,0.093,0.03
							c0.034,0.019,0.042,0.046,0.023,0.08c-0.099,0.002-0.199,0.006-0.298,0.006c-4.753,0-9.505,0-14.258,0
							c-0.091,0-0.182-0.003-0.273-0.005c-0.002-0.29-0.005-0.581-0.005-0.871c0-4.546,0-9.093,0-13.639
							C248.894,1.861,248.899,1.753,248.901,1.645z"/>
						<path fill="#BFBFBF" d="M263.729,16.477c0.004-0.013,0.005-0.026,0.001-0.039c0.355-0.148,0.711-0.115,1.068-0.008
							c0.015,0.016,0.029,0.031,0.044,0.047C264.471,16.477,264.1,16.477,263.729,16.477z"/>
						<path fill="#FFFFFF" d="M264.798,16.429c-0.356,0.003-0.712,0.006-1.068,0.008c-0.015-0.004-0.031-0.008-0.046-0.012
							c-0.11-0.046-0.191-0.129-0.273-0.211c-4.75-4.75-9.5-9.501-14.25-14.25c-0.082-0.082-0.164-0.164-0.212-0.273
							c-0.002-0.018-0.003-0.035-0.005-0.053c0.364,0.002,0.727,0.003,1.091,0.005c4.861,4.862,9.722,9.723,14.582,14.586
							C264.68,16.292,264.738,16.362,264.798,16.429z"/>
						<path fill="#BF192A" d="M248.949,1.691c0.043,0.037,0.09,0.072,0.13,0.113c4.831,4.83,9.662,9.661,14.492,14.492
							c0.04,0.04,0.076,0.086,0.113,0.13c-0.332,0.002-0.664,0.006-0.995,0.006c-4.497,0-8.994,0-13.491,0.003
							c-0.173,0-0.262-0.014-0.261-0.233c0.007-4.804,0.005-9.608,0.006-14.412C248.942,1.757,248.946,1.724,248.949,1.691z"/>
					</g>
				</g>
			</g>
		</g>
	</g>
</g>
<path fill="#010201" d="M281.993,5.453h-2.702v-0.91h6.532v0.91h-2.703v7.618h-1.127V5.453z"/>
<path fill="#010201" d="M286.585,6.753h0.924l0.095,1.144h0.041c0.448-0.793,1.127-1.3,1.874-1.3c0.285,0,0.489,0.039,0.706,0.13
	l-0.217,0.937c-0.218-0.065-0.367-0.104-0.639-0.104c-0.557,0-1.222,0.391-1.67,1.456v4.057h-1.114L286.585,6.753L286.585,6.753z"/>
<path fill="#010201" d="M291.029,4.764c0-0.416,0.339-0.689,0.773-0.689s0.774,0.273,0.774,0.689c0,0.403-0.34,0.689-0.774,0.689
	S291.029,5.167,291.029,4.764z M291.232,6.753h1.114v6.318h-1.114V6.753z"/>
<path fill="#010201" d="M294.505,6.753h0.924l0.095,0.91h0.041c0.625-0.599,1.304-1.066,2.214-1.066c1.385,0,2.01,0.858,2.01,2.47
	v4.005h-1.113V9.21c0-1.184-0.381-1.69-1.25-1.69c-0.679,0-1.141,0.338-1.806,0.976v4.576h-1.114L294.505,6.753L294.505,6.753z"/>
<path fill="#010201" d="M301.665,4.764c0-0.416,0.339-0.689,0.773-0.689s0.774,0.273,0.774,0.689c0,0.403-0.34,0.689-0.774,0.689
	S301.665,5.167,301.665,4.764z M301.868,6.753h1.114v6.318h-1.114V6.753z"/>
<path fill="#010201" d="M307.533,6.597c0.761,0,1.263,0.273,1.847,0.729l-0.055-1.079V3.815h1.128v9.257h-0.924l-0.095-0.741h-0.041
	c-0.516,0.48-1.223,0.896-1.996,0.896c-1.657,0-2.729-1.195-2.729-3.302C304.667,7.871,306.025,6.597,307.533,6.597z M307.641,12.33
	c0.611,0,1.141-0.286,1.684-0.871V8.157c-0.557-0.481-1.059-0.663-1.602-0.663c-1.06,0-1.901,0.975-1.901,2.418
	C305.822,11.42,306.487,12.33,307.641,12.33z"/>
<path fill="#010201" d="M316.349,9.066c0-0.806-0.286-1.586-1.358-1.586c-0.774,0-1.453,0.338-1.969,0.677l-0.448-0.741
	c0.61-0.377,1.534-0.819,2.594-0.819c1.616,0,2.295,1.027,2.295,2.601v3.874h-0.924l-0.095-0.754h-0.027
	c-0.639,0.493-1.371,0.909-2.187,0.909c-1.113,0-1.941-0.662-1.941-1.794C312.288,10.055,313.537,9.366,316.349,9.066z
	 M314.542,12.369c0.639,0,1.168-0.299,1.807-0.845V9.769c-2.214,0.261-2.961,0.78-2.961,1.586
	C313.388,12.07,313.891,12.369,314.542,12.369z"/>
<path fill="#010201" d="M321.892,6.597c0.761,0,1.263,0.273,1.847,0.729l-0.055-1.079V3.815h1.128v9.257h-0.924l-0.095-0.741h-0.041
	c-0.516,0.48-1.223,0.896-1.996,0.896c-1.657,0-2.729-1.195-2.729-3.302C319.027,7.871,320.384,6.597,321.892,6.597z M322,12.33
	c0.611,0,1.141-0.286,1.684-0.871V8.157c-0.557-0.481-1.059-0.663-1.602-0.663c-1.06,0-1.901,0.975-1.901,2.418
	C320.181,11.42,320.846,12.33,322,12.33z"/>
<path fill="#010201" d="M336.303,13.227c-0.624-0.169-1.33-0.493-2.05-0.975c-0.68,0.585-1.521,0.975-2.567,0.975
	c-1.616,0-2.716-0.987-2.716-2.365c0-1.145,0.842-1.859,1.752-2.457c-0.367-0.702-0.584-1.379-0.584-2.003
	c0-1.131,0.828-2.015,2.064-2.015c1.1,0,1.752,0.689,1.752,1.69c0,1.117-1.019,1.833-2.011,2.521
	c0.584,0.871,1.413,1.716,2.255,2.393c0.543-0.702,0.978-1.547,1.249-2.522h1.046c-0.353,1.118-0.855,2.158-1.562,3.056
	c0.611,0.402,1.182,0.688,1.67,0.818L336.303,13.227z M331.808,12.369c0.611,0,1.182-0.26,1.698-0.689
	c-0.869-0.728-1.711-1.625-2.336-2.535c-0.625,0.481-1.113,0.988-1.113,1.651C330.057,11.745,330.83,12.369,331.808,12.369z
	 M331.523,7.884c0.815-0.52,1.521-1.04,1.521-1.794c0-0.494-0.244-0.937-0.842-0.937c-0.666,0-1.101,0.533-1.101,1.235
	C331.102,6.856,331.265,7.364,331.523,7.884z"/>
<path fill="#010201" d="M342.459,5.453h-2.702v-0.91h6.532v0.91h-2.703v7.618h-1.127V5.453z"/>
<path fill="#010201" d="M349.347,6.597c1.615,0,3.056,1.209,3.056,3.328c0,2.093-1.44,3.302-3.056,3.302s-3.056-1.209-3.056-3.302
	C346.291,7.806,347.731,6.597,349.347,6.597z M349.347,12.343c1.141,0,1.9-0.975,1.9-2.418c0-1.456-0.76-2.444-1.9-2.444
	c-1.128,0-1.901,0.988-1.901,2.444C347.446,11.368,348.219,12.343,349.347,12.343z"/>
<path fill="#010201" d="M354.075,3.815h1.114v2.522l-0.027,1.144c0.598-0.507,1.331-0.884,2.064-0.884
	c1.711,0,2.62,1.261,2.62,3.211c0,2.158-1.344,3.419-2.852,3.419c-0.611,0-1.304-0.285-1.888-0.779h-0.041l-0.095,0.624h-0.896
	L354.075,3.815L354.075,3.815z M356.804,12.33c1.087,0,1.888-0.949,1.888-2.509c0-1.392-0.488-2.327-1.738-2.327
	c-0.557,0-1.141,0.299-1.765,0.857v3.315C355.773,12.148,356.369,12.33,356.804,12.33z"/>
<path fill="#010201" d="M365.091,9.066c0-0.806-0.286-1.586-1.358-1.586c-0.774,0-1.453,0.338-1.969,0.677l-0.448-0.741
	c0.61-0.377,1.534-0.819,2.594-0.819c1.616,0,2.295,1.027,2.295,2.601v3.874h-0.924l-0.095-0.754h-0.027
	c-0.639,0.493-1.371,0.909-2.187,0.909c-1.113,0-1.941-0.662-1.941-1.794C361.031,10.055,362.28,9.366,365.091,9.066z
	 M363.285,12.369c0.639,0,1.168-0.299,1.807-0.845V9.769c-2.214,0.261-2.961,0.78-2.961,1.586
	C362.13,12.07,362.633,12.369,363.285,12.369z"/>
<path fill="#010201" d="M368.705,12.85v-0.052c-0.326-0.195-0.584-0.533-0.584-1.027c0-0.532,0.381-0.948,0.72-1.17v-0.052
	c-0.435-0.338-0.855-0.949-0.855-1.703c0-1.378,1.141-2.249,2.485-2.249c0.366,0,0.692,0.065,0.937,0.156h2.296v0.819h-1.358
	c0.312,0.285,0.543,0.767,0.543,1.3c0,1.352-1.072,2.197-2.417,2.197c-0.326,0-0.692-0.078-0.991-0.222
	c-0.231,0.195-0.421,0.403-0.421,0.754c0,0.403,0.271,0.689,1.168,0.689h1.276c1.534,0,2.309,0.455,2.309,1.508
	c0,1.17-1.29,2.185-3.341,2.185c-1.616,0-2.729-0.611-2.729-1.703C367.742,13.747,368.108,13.24,368.705,12.85z M370.634,15.242
	c1.263,0,2.091-0.624,2.091-1.287c0-0.585-0.475-0.78-1.33-0.78h-1.142c-0.258,0-0.57-0.025-0.855-0.104
	c-0.475,0.325-0.679,0.702-0.679,1.065C368.719,14.814,369.439,15.242,370.634,15.242z M371.869,8.846
	c0-0.923-0.624-1.469-1.398-1.469s-1.398,0.546-1.398,1.469s0.638,1.508,1.398,1.508S371.869,9.769,371.869,8.846z"/>
<path fill="#010201" d="M377.4,6.597c1.615,0,3.056,1.209,3.056,3.328c0,2.093-1.44,3.302-3.056,3.302s-3.056-1.209-3.056-3.302
	C374.344,7.806,375.784,6.597,377.4,6.597z M377.4,12.343c1.141,0,1.9-0.975,1.9-2.418c0-1.456-0.76-2.444-1.9-2.444
	c-1.128,0-1.901,0.988-1.901,2.444C375.498,11.368,376.272,12.343,377.4,12.343z"/>
<circle fill="none" stroke="#010201" stroke-miterlimit="10" cx="259.927" cy="9.04" r="7.049"/>
</svg>
