<?xml version="1.0" encoding="utf-8"?>
<!-- Generator: Adobe Illustrator 17.0.0, SVG Export Plug-In . SVG Version: 6.00 Build 0)  -->
<!DOCTYPE svg PUBLIC "-//W3C//DTD SVG 1.1//EN" "http://www.w3.org/Graphics/SVG/1.1/DTD/svg11.dtd">
<svg version="1.1" id="Layer_1" xmlns="http://www.w3.org/2000/svg" xmlns:xlink="http://www.w3.org/1999/xlink" x="0px" y="0px"
	 width="600px" height="19.542px" viewBox="0 0 600 19.542" enable-background="new 0 0 600 19.542" xml:space="preserve">
<rect x="111.314" y="2.86" fill="#EC6554" width="80.814" height="14.097"/>
<g>
	<rect x="448.356" y="8.648" fill="#EC6554" width="26.645" height="2"/>
</g>
<g>
	<g>
		<circle fill="#EC6554" cx="474.876" cy="9.648" r="2.482"/>
	</g>
</g>
<rect x="0" y="0" fill="none" width="600" height="19.542"/>
<line fill="none" stroke="#9F9F9F" stroke-width="0.7" stroke-miterlimit="10" stroke-dasharray="6,3" x1="199.426" y1="0.687" x2="199.426" y2="19.046"/>
<line fill="none" stroke="#9F9F9F" stroke-width="0.7" stroke-miterlimit="10" stroke-dasharray="6,3" x1="440.97" y1="0.687" x2="440.97" y2="19.046"/>
<g>
	<g>
		<g>
			<defs>
				<circle id="SVGID_1_" cx="259.927" cy="9.909" r="7.049"/>
			</defs>
			<clipPath id="SVGID_2_">
				<use xlink:href="#SVGID_1_"  overflow="visible"/>
			</clipPath>
			<g id="CijXvL_1_" clip-path="url(#SVGID_2_)">
				<g>
					<g>
						<path fill="#BF192A" d="M249.245,2.772c0.016,0,0.032,0,0.048,0c0.231,0.103,0.345,0.319,0.486,0.508
							c1.202,1.611,2.427,3.205,3.626,4.818c0.326,0.446,0.668,0.88,0.995,1.325c0.472,0.643,0.974,1.265,1.442,1.912
							c0.486,0.644,0.971,1.288,1.454,1.934c0.858,1.147,1.725,2.287,2.573,3.441c0.047,0.063,0.101,0.125,0.129,0.199
							c0.029,0.078,0.079,0.172-0.059,0.207c-3.48,0-6.959,0-10.438-0.001c-0.086,0-0.174,0.016-0.259-0.017
							c-0.038-0.084-0.019-0.172-0.019-0.258c-0.001-4.604-0.001-9.208,0-13.812C249.223,2.943,249.201,2.854,249.245,2.772z"/>
						<path fill="#010202" d="M253.332,8.155c-0.525-0.693-1.05-1.385-1.573-2.078c-0.79-1.047-1.579-2.096-2.367-3.145
							c-0.037-0.05-0.066-0.107-0.098-0.16c7.089,0,14.179,0,21.268,0.005c0.06,0,0.205-0.098,0.19,0.09
							c-0.139,0.443-0.469,0.763-0.735,1.121c-0.999,1.344-2.008,2.68-3.021,4.013c-0.082,0.108-0.165,0.216-0.319,0.22
							c-0.306,0.064-0.615,0.034-0.923,0.035c-0.514,0.001-1.028,0.013-1.541-0.008c-0.425-0.188-0.882-0.289-1.315-0.457
							c-0.321-0.125-0.345-0.286-0.078-0.509c0.235-0.196,0.426-0.438,0.671-0.63c-0.301,0.059-0.596,0.116-0.89,0.181
							c-0.111,0.025-0.23,0.052-0.312-0.044c-0.095-0.11-0.017-0.224,0.031-0.332c0.167-0.376,0.403-0.717,0.578-1.13
							c-0.336,0.143-0.616,0.327-0.909,0.484c-0.091,0.049-0.178,0.105-0.273,0.143c-0.236,0.094-0.346,0.006-0.321-0.25
							c0.031-0.32,0.07-0.639,0.094-0.972c-0.228,0.219-0.39,0.474-0.589,0.698c-0.222,0.25-0.336,0.235-0.467-0.081
							c-0.115-0.278-0.219-0.56-0.326-0.841c-0.027-0.072-0.035-0.153-0.106-0.22c-0.095,0.335-0.182,0.662-0.27,0.989
							c-0.031,0.115-0.049,0.251-0.193,0.27c-0.133,0.017-0.209-0.091-0.287-0.183c-0.214-0.254-0.449-0.489-0.687-0.78
							c0.027,0.413,0.125,0.773,0.166,1.142c0.033,0.3-0.08,0.4-0.348,0.276c-0.344-0.158-0.696-0.297-0.996-0.453
							c0.208,0.297,0.403,0.65,0.585,1.01c0.09,0.178-0.001,0.292-0.22,0.309c-0.349,0.028-0.692-0.083-1.045-0.039
							c0.2,0.2,0.437,0.367,0.65,0.559c0.084,0.076,0.213,0.146,0.174,0.286c-0.036,0.131-0.168,0.157-0.282,0.189
							c-0.274,0.076-0.541,0.179-0.825,0.218c-0.15,0.021-0.277,0.11-0.419,0.159c-0.788,0.034-1.575,0.011-2.362,0.014
							C253.525,8.255,253.43,8.204,253.332,8.155z"/>
						<path fill="#BF192A" d="M266.751,8.15c1.291-1.716,2.582-3.432,3.873-5.148c0.037-0.049,0.061-0.113,0.127-0.136
							c0,4.742,0,9.484,0,14.226c-0.09,0.046-0.187,0.023-0.28,0.023c-3.452,0.001-6.905,0.001-10.356,0.001
							c-0.194-0.096-0.068-0.211-0.005-0.303c0.255-0.372,0.533-0.726,0.804-1.085c1.026-1.363,2.046-2.732,3.072-4.096
							c0.076-0.1,0.189-0.172,0.23-0.298c0.674-0.823,1.286-1.694,1.935-2.536C266.33,8.567,266.451,8.274,266.751,8.15z"/>
						<path fill="#70414B" d="M260.03,17.067c0.107,0.045,0.219,0.025,0.329,0.025c3.464,0.001,6.928,0.001,10.392,0.001
							c-0.043,0.098-0.128,0.045-0.19,0.045c-1.846,0.004-3.691,0.003-5.537,0.003c-5.26,0-10.519,0-15.779,0
							c-0.026-0.02-0.023-0.037,0.007-0.049c3.517,0.001,7.035,0.001,10.552,0.001c0.07,0,0.14-0.016,0.21-0.025
							C260.019,17.04,260.025,17.04,260.03,17.067z"/>
						<path fill="#808081" d="M249.252,17.091c-0.002,0.016-0.005,0.033-0.007,0.049c-0.1-0.053-0.045-0.144-0.045-0.214
							c-0.003-4.393-0.003-8.786-0.003-13.179c0-0.301-0.001-0.603,0.001-0.904c0-0.029-0.029-0.088,0.047-0.071
							c0,4.67,0,9.34,0,14.011C249.246,16.885,249.25,16.988,249.252,17.091z"/>
						<path fill="#44A5DD" d="M266.751,8.15c-0.792,1.057-1.583,2.114-2.375,3.17c-0.022,0.03-0.06,0.048-0.09,0.072
							c-0.132,0.084-0.279,0.101-0.432,0.101c-2.55,0-5.1,0-7.649,0c-0.154,0-0.299-0.021-0.433-0.101
							c-0.697-0.919-1.395-1.838-2.092-2.758c-0.119-0.157-0.232-0.319-0.348-0.479c0.806-0.004,1.613-0.007,2.419-0.012
							c0.102-0.001,0.206,0.012,0.305-0.026c0.661-0.106,1.327-0.077,1.991-0.078c1.482-0.001,2.965-0.001,4.447,0
							c0.546,0,1.093-0.024,1.634,0.08c0.305,0.052,0.613,0.019,0.919,0.023C265.616,8.15,266.184,8.148,266.751,8.15z"/>
						<path fill="#FFFFFF" d="M255.771,11.392c0.531-0.003,1.062-0.008,1.593-0.008c2.204-0.001,4.408,0,6.612,0
							c0.103,0,0.206,0.005,0.309,0.008c-0.628,0.843-1.254,1.688-1.885,2.529c-0.788,1.05-1.58,2.098-2.37,3.146h-0.016
							C258.6,15.175,257.186,13.283,255.771,11.392z"/>
						<path fill="#EFE528" d="M264.129,8.119c-0.063,0.005-0.126,0.015-0.188,0.015c-2.566,0.001-5.131,0.001-7.697,0
							c-0.062,0-0.125-0.011-0.187-0.017c0.474-0.146,0.948-0.291,1.464-0.45c-0.393-0.333-0.76-0.645-1.174-0.996
							c0.57,0.039,1.082,0.074,1.64,0.112c-0.284-0.497-0.544-0.95-0.832-1.453c0.532,0.24,1.01,0.455,1.514,0.682
							c-0.091-0.57-0.178-1.118-0.265-1.665c0.014-0.012,0.029-0.024,0.043-0.036c0.361,0.4,0.722,0.799,1.102,1.22
							c0.146-0.539,0.284-1.048,0.442-1.626c0.226,0.59,0.428,1.116,0.643,1.676c0.322-0.392,0.63-0.765,0.938-1.139
							c0.018,0.003,0.037,0.006,0.056,0.01c-0.048,0.493-0.096,0.987-0.146,1.51c0.541-0.299,1.064-0.587,1.587-0.876
							c0.019,0.013,0.038,0.026,0.058,0.038c-0.275,0.54-0.55,1.08-0.845,1.66c0.521-0.104,1.011-0.202,1.553-0.311
							c-0.411,0.384-0.785,0.733-1.184,1.106C263.159,7.766,263.644,7.943,264.129,8.119z"/>
					</g>
				</g>
			</g>
		</g>
	</g>
</g>
<path fill="#010201" d="M284.207,11.379h-3.246l-0.855,2.601h-1.154l3.015-8.528h1.276l3.016,8.528h-1.195L284.207,11.379z
	 M283.922,10.508l-0.421-1.3c-0.312-0.949-0.598-1.885-0.883-2.873h-0.055c-0.285,0.988-0.57,1.924-0.883,2.873l-0.435,1.3H283.922z
	"/>
<path fill="#010201" d="M287.306,7.661h0.924l0.095,0.91h0.041c0.625-0.599,1.304-1.066,2.214-1.066c1.385,0,2.01,0.858,2.01,2.47
	v4.005h-1.113v-3.861c0-1.184-0.381-1.69-1.25-1.69c-0.679,0-1.141,0.338-1.806,0.976v4.576h-1.114L287.306,7.661L287.306,7.661z"/>
<path fill="#010201" d="M294.859,8.532h-0.978V7.725l1.032-0.064l0.136-1.769h0.937v1.769h1.779v0.871h-1.779v3.51
	c0,0.78,0.258,1.223,1.019,1.223c0.231,0,0.53-0.092,0.747-0.17l0.218,0.807c-0.367,0.117-0.815,0.233-1.223,0.233
	c-1.412,0-1.888-0.857-1.888-2.105L294.859,8.532L294.859,8.532z"/>
<path fill="#010201" d="M298.99,5.672c0-0.416,0.339-0.689,0.773-0.689s0.774,0.273,0.774,0.689c0,0.403-0.34,0.689-0.774,0.689
	S298.99,6.075,298.99,5.672z M299.193,7.661h1.114v6.318h-1.114V7.661z"/>
<path fill="#010201" d="M302.928,13.758v-0.052c-0.326-0.195-0.584-0.533-0.584-1.027c0-0.532,0.381-0.948,0.72-1.17v-0.052
	c-0.435-0.338-0.855-0.949-0.855-1.703c0-1.378,1.141-2.249,2.485-2.249c0.366,0,0.692,0.065,0.937,0.156h2.296V8.48h-1.358
	c0.312,0.285,0.543,0.767,0.543,1.3c0,1.352-1.072,2.197-2.417,2.197c-0.326,0-0.692-0.078-0.991-0.222
	c-0.231,0.195-0.421,0.403-0.421,0.754c0,0.403,0.271,0.689,1.168,0.689h1.276c1.534,0,2.309,0.455,2.309,1.508
	c0,1.17-1.29,2.185-3.341,2.185c-1.616,0-2.729-0.611-2.729-1.703C301.964,14.655,302.33,14.148,302.928,13.758z M304.857,16.15
	c1.263,0,2.091-0.624,2.091-1.287c0-0.585-0.475-0.78-1.33-0.78h-1.142c-0.258,0-0.57-0.025-0.855-0.104
	c-0.475,0.325-0.679,0.702-0.679,1.065C302.942,15.721,303.661,16.15,304.857,16.15z M306.092,9.754
	c0-0.923-0.624-1.469-1.398-1.469s-1.398,0.546-1.398,1.469s0.638,1.508,1.398,1.508S306.092,10.677,306.092,9.754z"/>
<path fill="#010201" d="M309.151,7.661h1.127v3.861c0,1.183,0.367,1.689,1.236,1.689c0.679,0,1.154-0.325,1.778-1.065V7.661h1.114
	v6.318h-0.924l-0.095-0.988h-0.041c-0.611,0.689-1.263,1.144-2.173,1.144c-1.398,0-2.023-0.857-2.023-2.47L309.151,7.661
	L309.151,7.661z"/>
<path fill="#010201" d="M320.302,9.974c0-0.806-0.286-1.586-1.358-1.586c-0.774,0-1.453,0.338-1.969,0.677l-0.448-0.741
	c0.61-0.377,1.534-0.819,2.594-0.819c1.616,0,2.295,1.027,2.295,2.601v3.874h-0.924l-0.095-0.754h-0.027
	c-0.639,0.493-1.371,0.909-2.187,0.909c-1.113,0-1.941-0.662-1.941-1.794C316.242,10.963,317.491,10.274,320.302,9.974z
	 M318.495,13.277c0.639,0,1.168-0.299,1.807-0.845v-1.756c-2.214,0.261-2.961,0.78-2.961,1.586
	C317.341,12.978,317.844,13.277,318.495,13.277z"/>
<path fill="#010201" d="M332.786,14.135c-0.624-0.169-1.33-0.493-2.05-0.975c-0.68,0.585-1.521,0.975-2.567,0.975
	c-1.616,0-2.716-0.987-2.716-2.365c0-1.145,0.842-1.859,1.752-2.457c-0.367-0.702-0.584-1.379-0.584-2.003
	c0-1.131,0.828-2.015,2.064-2.015c1.1,0,1.752,0.689,1.752,1.69c0,1.117-1.019,1.833-2.011,2.521
	c0.584,0.871,1.413,1.716,2.255,2.393c0.543-0.702,0.978-1.547,1.249-2.522h1.046c-0.353,1.118-0.855,2.158-1.562,3.056
	c0.611,0.402,1.182,0.688,1.67,0.818L332.786,14.135z M328.29,13.277c0.611,0,1.182-0.26,1.698-0.689
	c-0.869-0.728-1.711-1.625-2.336-2.535c-0.625,0.481-1.113,0.988-1.113,1.651C326.539,12.653,327.313,13.277,328.29,13.277z
	 M328.005,8.792c0.815-0.52,1.521-1.04,1.521-1.794c0-0.494-0.244-0.937-0.842-0.937c-0.666,0-1.101,0.533-1.101,1.235
	C327.584,7.764,327.747,8.272,328.005,8.792z"/>
<path fill="#010201" d="M337.08,5.451h2.648c1.806,0,3.068,0.585,3.068,2.08c0,0.845-0.502,1.599-1.562,1.858v0.053
	c1.304,0.194,2.064,0.871,2.064,2.041c0,1.677-1.386,2.496-3.368,2.496h-2.852V5.451H337.08z M339.538,9.091
	c1.507,0,2.146-0.52,2.146-1.469c0-0.923-0.72-1.313-2.092-1.313h-1.371v2.782H339.538z M339.769,13.121
	c1.521,0,2.418-0.533,2.418-1.69c0-1.053-0.856-1.533-2.418-1.533h-1.548v3.224L339.769,13.121L339.769,13.121z"/>
<path fill="#010201" d="M348.6,9.974c0-0.806-0.285-1.586-1.358-1.586c-0.774,0-1.453,0.338-1.97,0.677l-0.447-0.741
	c0.61-0.377,1.534-0.819,2.594-0.819c1.616,0,2.295,1.027,2.295,2.601v3.874h-0.924l-0.095-0.754h-0.027
	c-0.639,0.493-1.371,0.909-2.187,0.909c-1.113,0-1.941-0.662-1.941-1.794C344.539,10.963,345.788,10.274,348.6,9.974z
	 M346.793,13.277c0.639,0,1.168-0.299,1.807-0.845v-1.756c-2.214,0.261-2.961,0.78-2.961,1.586
	C345.639,12.978,346.141,13.277,346.793,13.277z"/>
<path fill="#010201" d="M351.752,7.661h0.924l0.095,1.144h0.041c0.448-0.793,1.127-1.3,1.874-1.3c0.285,0,0.489,0.039,0.706,0.13
	l-0.217,0.937c-0.218-0.065-0.367-0.104-0.639-0.104c-0.557,0-1.222,0.391-1.67,1.456v4.057h-1.114L351.752,7.661L351.752,7.661z"/>
<path fill="#010201" d="M356.398,4.722h1.114v2.522l-0.027,1.144c0.598-0.507,1.331-0.884,2.064-0.884
	c1.711,0,2.62,1.261,2.62,3.211c0,2.158-1.344,3.419-2.852,3.419c-0.611,0-1.304-0.285-1.888-0.779h-0.041l-0.095,0.624h-0.896
	L356.398,4.722L356.398,4.722z M359.127,13.238c1.087,0,1.888-0.949,1.888-2.509c0-1.392-0.488-2.327-1.738-2.327
	c-0.557,0-1.141,0.299-1.765,0.857v3.315C358.096,13.056,358.693,13.238,359.127,13.238z"/>
<path fill="#010201" d="M363.775,7.661h1.127v3.861c0,1.183,0.367,1.689,1.236,1.689c0.679,0,1.154-0.325,1.778-1.065V7.661h1.114
	v6.318h-0.924l-0.095-0.988h-0.041c-0.611,0.689-1.263,1.144-2.173,1.144c-1.398,0-2.023-0.857-2.023-2.47L363.775,7.661
	L363.775,7.661z"/>
<path fill="#010201" d="M373.582,7.505c0.761,0,1.263,0.273,1.847,0.729l-0.055-1.079V4.722h1.128v9.257h-0.924l-0.095-0.741h-0.041
	c-0.516,0.48-1.223,0.896-1.996,0.896c-1.657,0-2.729-1.195-2.729-3.302C370.717,8.779,372.075,7.505,373.582,7.505z
	 M373.691,13.238c0.611,0,1.141-0.286,1.684-0.871V9.065c-0.557-0.481-1.059-0.663-1.603-0.663c-1.059,0-1.9,0.975-1.9,2.418
	C371.871,12.328,372.536,13.238,373.691,13.238z"/>
<path fill="#010201" d="M382.399,9.974c0-0.806-0.285-1.586-1.358-1.586c-0.774,0-1.453,0.338-1.97,0.677l-0.447-0.741
	c0.61-0.377,1.534-0.819,2.594-0.819c1.616,0,2.295,1.027,2.295,2.601v3.874h-0.924l-0.095-0.754h-0.027
	c-0.639,0.493-1.371,0.909-2.187,0.909c-1.113,0-1.941-0.662-1.941-1.794C378.338,10.963,379.587,10.274,382.399,9.974z
	 M380.592,13.277c0.639,0,1.168-0.299,1.807-0.845v-1.756c-2.214,0.261-2.961,0.78-2.961,1.586
	C379.438,12.978,379.94,13.277,380.592,13.277z"/>
<circle fill="none" stroke="#010201" stroke-miterlimit="10" cx="259.927" cy="9.909" r="7.049"/>
</svg>
