<?xml version="1.0" encoding="utf-8"?>
<!-- Generator: Adobe Illustrator 17.0.0, SVG Export Plug-In . SVG Version: 6.00 Build 0)  -->
<!DOCTYPE svg PUBLIC "-//W3C//DTD SVG 1.1//EN" "http://www.w3.org/Graphics/SVG/1.1/DTD/svg11.dtd">
<svg version="1.1" id="Layer_1" xmlns="http://www.w3.org/2000/svg" xmlns:xlink="http://www.w3.org/1999/xlink" x="0px" y="0px"
	 width="600px" height="19.542px" viewBox="0 0 600 19.542" enable-background="new 0 0 600 19.542" xml:space="preserve">
<rect x="0" y="0" fill="#EC6554" width="600" height="19.542"/>
<line fill="none" stroke="#9F9F9F" stroke-width="0.7" stroke-miterlimit="10" stroke-dasharray="6,3" x1="199.426" y1="0.687" x2="199.426" y2="19.046"/>
<line fill="none" stroke="#9F9F9F" stroke-width="0.7" stroke-miterlimit="10" stroke-dasharray="6,3" x1="440.97" y1="0.687" x2="440.97" y2="19.046"/>
<g>
	<g>
		<g>
			<rect x="451.885" y="8.648" fill="#FFFCEE" width="26.646" height="2"/>
		</g>
		<g>
			<g>
				<circle fill="#FFFCEE" cx="478.406" cy="9.648" r="2.482"/>
			</g>
		</g>
	</g>
</g>
<path fill="#FFFCEE" d="M67.679,7.465c-0.503-0.441-0.924-0.688-1.575-0.688c-0.733,0-1.182,0.363-1.182,1.04
	c0,1.56,3.694,1.248,3.694,3.874c0,1.234-0.761,2.145-2.105,2.379v1.339h-1.086v-1.3c-0.829-0.078-1.738-0.442-2.35-0.988
	l0.706-1.014c0.638,0.48,1.276,0.806,2.01,0.806c0.883,0,1.317-0.416,1.317-1.118c0-1.716-3.694-1.469-3.694-3.913
	c0-1.209,0.788-2.067,2.011-2.275V4.281h1.086v1.3c0.869,0.104,1.467,0.507,1.969,1.014L67.679,7.465z"/>
<path fill="#FFFCEE" d="M72.054,13.108c2.404-2.224,3.911-3.68,3.911-4.94c0-0.871-0.502-1.43-1.426-1.43
	c-0.665,0-1.222,0.429-1.684,0.923l-0.869-0.832c0.787-0.807,1.575-1.274,2.757-1.274c1.656,0,2.729,1.001,2.729,2.535
	c0,1.469-1.426,2.978-3.137,4.706c0.448-0.039,1.019-0.091,1.439-0.091h2.118v1.274h-5.84v-0.871H72.054z"/>
<path fill="#FFFCEE" d="M78.711,9.805c0-2.795,1.141-4.251,2.934-4.251s2.934,1.47,2.934,4.251c0,2.796-1.141,4.329-2.934,4.329
	S78.711,12.601,78.711,9.805z M83.084,9.805c0-2.34-0.598-3.081-1.439-3.081c-0.828,0-1.439,0.741-1.439,3.081
	c0,2.341,0.611,3.159,1.439,3.159C82.486,12.964,83.084,12.146,83.084,9.805z"/>
<path fill="#FFFCEE" d="M86.277,12.289c0.326,0.364,0.855,0.624,1.385,0.624c1.087,0,1.97-0.767,2.037-3.055
	c-0.502,0.598-1.263,0.962-1.888,0.962c-1.48,0-2.512-0.832-2.512-2.562c0-1.65,1.235-2.704,2.716-2.704
	c1.684,0,3.123,1.248,3.123,4.03c0,3.211-1.616,4.55-3.395,4.55c-1.032,0-1.793-0.416-2.309-0.936L86.277,12.289z M89.658,8.779
	c-0.162-1.456-0.787-2.08-1.629-2.08c-0.706,0-1.29,0.559-1.29,1.56c0,0.976,0.502,1.482,1.371,1.482
	C88.6,9.741,89.184,9.467,89.658,8.779z"/>
<path fill="#FFFCEE" d="M93.544,9.741V9.689c-0.665-0.455-1.194-1.066-1.194-1.938c0-1.339,1.113-2.197,2.607-2.197
	c1.548,0,2.539,0.897,2.539,2.236c0,0.819-0.598,1.508-1.154,1.898V9.74c0.802,0.429,1.494,1.04,1.494,2.145
	c0,1.274-1.168,2.249-2.92,2.249c-1.684,0-2.934-0.936-2.934-2.274C91.983,10.833,92.73,10.157,93.544,9.741z M94.943,13.069
	c0.828,0,1.426-0.468,1.426-1.235c0-0.896-0.91-1.222-2.078-1.677c-0.543,0.377-0.937,0.91-0.937,1.547
	C93.355,12.523,94.061,13.069,94.943,13.069z M96.206,7.881c0-0.728-0.476-1.261-1.276-1.261c-0.666,0-1.182,0.416-1.182,1.131
	c0,0.832,0.774,1.196,1.738,1.561C95.948,8.87,96.206,8.402,96.206,7.881z"/>
<path fill="#FFFCEE" d="M99.061,12.756h1.929V7.323h-1.589V6.386c0.855-0.156,1.453-0.364,1.996-0.676h1.168v7.046h1.697v1.223
	h-5.201C99.061,13.979,99.061,12.756,99.061,12.756z"/>
<path fill="#FFFCEE" d="M105.323,15.526c0.869-0.325,1.371-0.91,1.371-1.573c-0.041,0-0.081,0-0.122,0
	c-0.529,0-1.005-0.338-1.005-0.923c0-0.56,0.476-0.923,1.046-0.923c0.733,0,1.168,0.571,1.168,1.534
	c0,1.273-0.774,2.262-2.119,2.704L105.323,15.526z"/>
<path fill="#FFFCEE" d="M114.694,11.846h-1.086v2.133h-1.467v-2.133h-3.816v-1.014l3.423-5.122h1.86v4.979h1.086
	C114.694,10.689,114.694,11.846,114.694,11.846z M112.142,10.69V8.818c0-0.481,0.041-1.235,0.068-1.717h-0.055
	c-0.218,0.43-0.462,0.846-0.706,1.287l-1.575,2.302H112.142z"/>
<path fill="#FFFCEE" d="M115.783,12.002c0.516,0.507,1.181,0.91,2.05,0.91c0.938,0,1.589-0.468,1.589-1.248
	c0-0.858-0.57-1.404-2.539-1.404V9.168c1.697,0,2.254-0.559,2.254-1.326c0-0.688-0.488-1.104-1.276-1.104
	c-0.679,0-1.208,0.312-1.738,0.779l-0.801-0.923c0.733-0.624,1.562-1.04,2.594-1.04c1.656,0,2.798,0.78,2.798,2.185
	c0,0.923-0.571,1.547-1.508,1.897v0.053c1.019,0.26,1.793,0.962,1.793,2.054c0,1.508-1.372,2.392-3.028,2.392
	c-1.399,0-2.322-0.52-2.934-1.17L115.783,12.002z"/>
<path fill="#FFFCEE" d="M126.337,14.499v2.002h-1.562V7.595h1.29l0.109,0.677h0.054c0.557-0.455,1.276-0.832,2.01-0.832
	c1.657,0,2.621,1.273,2.621,3.25c0,2.184-1.371,3.444-2.852,3.444c-0.584,0-1.168-0.26-1.711-0.701L126.337,14.499z M127.682,12.9
	c0.883,0,1.562-0.754,1.562-2.197c0-1.274-0.435-2.028-1.439-2.028c-0.488,0-0.95,0.234-1.467,0.715v2.978
	C126.826,12.756,127.288,12.9,127.682,12.9z"/>
<path fill="#FFFCEE" d="M134.434,4.749h1.06L132.33,16.06h-1.06L134.434,4.749z"/>
<path fill="#FFFCEE" d="M139.012,7.44c0.855,0,1.508,0.324,1.956,0.74l-0.747,0.949c-0.354-0.299-0.706-0.468-1.127-0.468
	c-1.073,0-1.82,0.845-1.82,2.132c0,1.274,0.733,2.119,1.779,2.119c0.543,0,1.005-0.26,1.371-0.546l0.652,0.949
	c-0.625,0.533-1.426,0.818-2.187,0.818c-1.82,0-3.219-1.222-3.219-3.341C135.671,8.662,137.233,7.44,139.012,7.44z"/>
<circle fill="none" stroke="#FFFCEE" stroke-miterlimit="10" cx="259.817" cy="9.909" r="7.049"/>
<path fill="#FFFCEE" d="M284.043,11.963h-2.716l-0.543,2.016h-2.037l2.783-8.477h2.391l2.784,8.477h-2.119L284.043,11.963z
	 M283.636,10.469l-0.218-0.78c-0.244-0.845-0.475-1.847-0.72-2.729h-0.054c-0.204,0.896-0.448,1.885-0.692,2.729l-0.218,0.78
	H283.636z"/>
<path fill="#FFFCEE" d="M287.414,7.531h1.63l0.136,0.819h0.054c0.57-0.521,1.25-0.975,2.159-0.975c1.467,0,2.092,0.987,2.092,2.6
	v4.004h-1.996v-3.758c0-0.936-0.258-1.221-0.828-1.221c-0.503,0-0.815,0.221-1.25,0.623v4.355h-1.996L287.414,7.531L287.414,7.531z"
	/>
<path fill="#FFFCEE" d="M295.388,9.026h-0.924V7.609l1.032-0.078l0.231-1.716h1.656v1.716H299v1.495h-1.616v2.587
	c0,0.728,0.34,1.027,0.869,1.027c0.218,0,0.462-0.065,0.639-0.13l0.312,1.391c-0.354,0.104-0.843,0.234-1.494,0.234
	c-1.67,0-2.322-1.002-2.322-2.496L295.388,9.026L295.388,9.026z"/>
<path fill="#FFFCEE" d="M300.088,5.581c0-0.585,0.489-0.988,1.154-0.988c0.679,0,1.154,0.403,1.154,0.988s-0.476,1.001-1.154,1.001
	C300.577,6.582,300.088,6.166,300.088,5.581z M300.251,7.531h1.996v6.448h-1.996V7.531z"/>
<path fill="#FFFCEE" d="M304.476,13.784v-0.052c-0.353-0.222-0.625-0.56-0.625-1.092c0-0.468,0.326-0.923,0.761-1.21v-0.051
	c-0.475-0.312-0.91-0.924-0.91-1.678c0-1.547,1.331-2.326,2.784-2.326c0.381,0,0.747,0.051,1.046,0.155h2.458v1.392h-1.073
	c0.123,0.194,0.218,0.506,0.218,0.844c0,1.482-1.168,2.172-2.648,2.172c-0.244,0-0.516-0.039-0.814-0.13
	c-0.177,0.144-0.244,0.26-0.244,0.481c0,0.324,0.271,0.48,1.019,0.48h1.086c1.657,0,2.566,0.48,2.566,1.639
	c0,1.338-1.453,2.313-3.762,2.313c-1.575,0-2.824-0.494-2.824-1.638C303.512,14.551,303.851,14.122,304.476,13.784z M306.649,15.526
	c0.896,0,1.548-0.352,1.548-0.793c0-0.402-0.366-0.507-1.031-0.507h-0.693c-0.461,0-0.733-0.026-0.95-0.078
	c-0.244,0.208-0.367,0.403-0.367,0.638C305.154,15.266,305.752,15.526,306.649,15.526z M307.409,9.702
	c0-0.676-0.394-1.04-0.924-1.04c-0.529,0-0.923,0.351-0.923,1.04c0,0.715,0.394,1.079,0.923,1.079
	C307.016,10.781,307.409,10.417,307.409,9.702z"/>
<path fill="#FFFCEE" d="M311.051,7.531h1.997v3.757c0,0.924,0.258,1.223,0.842,1.223c0.502,0,0.801-0.209,1.195-0.715V7.531h1.996
	v6.448h-1.63l-0.149-0.896h-0.041c-0.57,0.649-1.194,1.053-2.118,1.053c-1.467,0-2.092-0.988-2.092-2.6L311.051,7.531L311.051,7.531
	z"/>
<path fill="#FFFCEE" d="M322.312,9.833c-0.04-0.572-0.339-0.937-1.059-0.937c-0.57,0-1.141,0.221-1.793,0.585l-0.706-1.262
	c0.855-0.494,1.819-0.844,2.879-0.844c1.725,0,2.676,0.936,2.676,2.912v3.691h-1.63l-0.149-0.663h-0.041
	c-0.57,0.481-1.208,0.819-1.969,0.819c-1.223,0-1.996-0.858-1.996-1.95C318.524,10.833,319.651,10.092,322.312,9.833z
	 M321.198,12.653c0.462,0,0.761-0.208,1.113-0.546v-1.131c-1.426,0.182-1.888,0.571-1.888,1.065
	C320.424,12.458,320.723,12.653,321.198,12.653z"/>
<path fill="#FFFCEE" d="M336.166,14.135c-0.732-0.143-1.507-0.442-2.268-0.858c-0.747,0.533-1.67,0.858-2.784,0.858
	c-1.928,0-2.946-1.118-2.946-2.418c0-1.184,0.746-1.859,1.615-2.393c-0.339-0.611-0.543-1.223-0.543-1.755
	c0-1.209,0.924-2.224,2.404-2.224c1.33,0,2.173,0.754,2.173,1.924c0,1.105-0.924,1.808-1.848,2.406
	c0.503,0.559,1.128,1.092,1.779,1.547c0.448-0.559,0.802-1.235,1.019-2.028h1.82c-0.326,1.026-0.802,1.976-1.48,2.86
	c0.557,0.273,1.086,0.468,1.534,0.533L336.166,14.135z M331.373,12.678c0.366,0,0.746-0.116,1.127-0.338
	c-0.692-0.532-1.331-1.131-1.848-1.754c-0.353,0.299-0.597,0.623-0.597,1.014C330.056,12.237,330.585,12.678,331.373,12.678z
	 M331.169,8.571c0.639-0.363,1.127-0.729,1.127-1.301c0-0.402-0.19-0.662-0.611-0.662c-0.448,0-0.801,0.363-0.801,0.949
	C330.884,7.869,330.992,8.219,331.169,8.571z"/>
<path fill="#FFFCEE" d="M340.611,5.502h3.028c1.847,0,3.272,0.481,3.272,2.106c0,0.754-0.461,1.573-1.493,1.833v0.052
	c1.263,0.222,1.928,0.858,1.928,1.989c0,1.729-1.521,2.496-3.449,2.496h-3.286V5.502z M343.545,8.922
	c0.978,0,1.412-0.404,1.412-1.041s-0.462-0.896-1.386-0.896h-0.95v1.938h0.924V8.922z M343.734,12.497
	c1.087,0,1.657-0.39,1.657-1.156c0-0.742-0.557-1.066-1.657-1.066h-1.113v2.223L343.734,12.497L343.734,12.497z"/>
<path fill="#FFFCEE" d="M352.144,9.833c-0.04-0.572-0.339-0.937-1.059-0.937c-0.57,0-1.141,0.221-1.793,0.585l-0.706-1.262
	c0.855-0.494,1.819-0.844,2.879-0.844c1.725,0,2.676,0.936,2.676,2.912v3.691h-1.63l-0.149-0.663h-0.041
	c-0.57,0.481-1.208,0.819-1.969,0.819c-1.223,0-1.996-0.858-1.996-1.95C348.356,10.833,349.483,10.092,352.144,9.833z
	 M351.03,12.653c0.462,0,0.761-0.208,1.113-0.546v-1.131c-1.426,0.182-1.888,0.571-1.888,1.065
	C350.256,12.458,350.555,12.653,351.03,12.653z"/>
<path fill="#FFFCEE" d="M355.786,7.531h1.63l0.136,1.131h0.054c0.489-0.87,1.223-1.286,1.915-1.286c0.38,0,0.611,0.051,0.802,0.129
	l-0.326,1.651c-0.244-0.065-0.448-0.104-0.733-0.104c-0.503,0-1.127,0.312-1.48,1.184v3.744h-1.996V7.531H355.786z"/>
<path fill="#FFFCEE" d="M361.125,4.866h1.996v2.236l-0.055,0.988c0.517-0.442,1.155-0.715,1.779-0.715
	c1.63,0,2.648,1.286,2.648,3.262c0,2.224-1.385,3.498-2.838,3.498c-0.598,0-1.223-0.286-1.752-0.832h-0.055l-0.163,0.676h-1.562
	V4.866H361.125z M364.194,12.575c0.692,0,1.249-0.572,1.249-1.898c0-1.156-0.366-1.742-1.168-1.742
	c-0.407,0-0.773,0.183-1.154,0.586v2.639C363.475,12.471,363.855,12.575,364.194,12.575z"/>
<path fill="#FFFCEE" d="M368.773,7.531h1.997v3.757c0,0.924,0.258,1.223,0.842,1.223c0.502,0,0.801-0.209,1.195-0.715V7.531h1.996
	v6.448h-1.63l-0.149-0.896h-0.041c-0.57,0.649-1.194,1.053-2.118,1.053c-1.467,0-2.092-0.988-2.092-2.6L368.773,7.531L368.773,7.531
	z"/>
<path fill="#FFFCEE" d="M378.934,7.376c0.747,0,1.195,0.26,1.657,0.676l-0.082-0.988V4.866h1.996v9.113h-1.629l-0.136-0.637h-0.055
	c-0.476,0.455-1.141,0.793-1.793,0.793c-1.67,0-2.757-1.274-2.757-3.381C376.136,8.649,377.508,7.376,378.934,7.376z
	 M379.409,12.575c0.435,0,0.773-0.156,1.1-0.585V9.35c-0.353-0.311-0.747-0.416-1.113-0.416c-0.639,0-1.209,0.572-1.209,1.795
	C378.187,12.002,378.635,12.575,379.409,12.575z"/>
<path fill="#FFFCEE" d="M387.749,9.833c-0.04-0.572-0.339-0.937-1.059-0.937c-0.57,0-1.141,0.221-1.793,0.585l-0.706-1.262
	c0.855-0.494,1.819-0.844,2.879-0.844c1.725,0,2.676,0.936,2.676,2.912v3.691h-1.63l-0.149-0.663h-0.041
	c-0.57,0.481-1.208,0.819-1.969,0.819c-1.223,0-1.996-0.858-1.996-1.95C383.961,10.833,385.088,10.092,387.749,9.833z
	 M386.636,12.653c0.462,0,0.761-0.208,1.113-0.546v-1.131c-1.426,0.182-1.888,0.571-1.888,1.065
	C385.861,12.458,386.16,12.653,386.636,12.653z"/>
<path fill="#EC6554" d="M230.466,12.002h-0.991v1.977h-1.861v-1.977h-3.734V10.69l3.15-4.967h2.445v4.824h0.991L230.466,12.002
	L230.466,12.002z M227.613,10.547v-1.34c0-0.533,0.055-1.326,0.082-1.846h-0.055c-0.217,0.455-0.462,0.923-0.706,1.391l-1.141,1.795
	H227.613z"/>
<g>
	<g>
		<g>
			<g>
				<g>
					<defs>
						<circle id="SVGID_1_" cx="259.817" cy="9.909" r="7.049"/>
					</defs>
					<clipPath id="SVGID_2_">
						<use xlink:href="#SVGID_1_"  overflow="visible"/>
					</clipPath>
					<g clip-path="url(#SVGID_2_)">
						<g>
							<path fill="#BF192A" d="M249.135,2.772c0.016,0,0.032,0,0.048,0c0.231,0.103,0.345,0.319,0.486,0.508
								c1.202,1.611,2.427,3.205,3.626,4.818c0.326,0.446,0.668,0.88,0.995,1.325c0.472,0.643,0.974,1.265,1.442,1.912
								c0.486,0.644,0.971,1.288,1.454,1.934c0.858,1.147,1.725,2.287,2.573,3.441c0.047,0.063,0.101,0.125,0.129,0.199
								c0.029,0.078,0.079,0.172-0.059,0.207c-3.48,0-6.959,0-10.438-0.001c-0.086,0-0.174,0.016-0.259-0.017
								c-0.038-0.084-0.019-0.172-0.019-0.258c-0.001-4.604-0.001-9.208,0-13.812C249.113,2.943,249.091,2.854,249.135,2.772z"/>
							<path fill="#010202" d="M253.222,8.155c-0.525-0.693-1.05-1.385-1.573-2.078c-0.79-1.047-1.579-2.096-2.367-3.145
								c-0.037-0.05-0.066-0.107-0.098-0.16c7.089,0,14.179,0,21.268,0.005c0.06,0,0.205-0.098,0.19,0.09
								c-0.139,0.443-0.469,0.763-0.735,1.121c-0.999,1.344-2.008,2.68-3.021,4.013c-0.082,0.108-0.165,0.216-0.319,0.22
								c-0.306,0.064-0.615,0.034-0.923,0.035c-0.514,0.001-1.028,0.013-1.541-0.008c-0.425-0.188-0.882-0.289-1.315-0.457
								c-0.321-0.125-0.345-0.286-0.078-0.509c0.235-0.196,0.426-0.438,0.671-0.63c-0.301,0.059-0.596,0.116-0.89,0.181
								c-0.111,0.025-0.23,0.052-0.312-0.044c-0.095-0.11-0.017-0.224,0.03-0.332c0.167-0.376,0.403-0.717,0.578-1.13
								c-0.336,0.143-0.616,0.327-0.909,0.484c-0.091,0.049-0.178,0.105-0.273,0.143c-0.236,0.094-0.346,0.006-0.321-0.25
								c0.031-0.32,0.07-0.639,0.094-0.972c-0.228,0.219-0.39,0.474-0.589,0.698c-0.222,0.25-0.336,0.235-0.467-0.081
								c-0.115-0.278-0.219-0.56-0.326-0.841c-0.027-0.072-0.035-0.153-0.106-0.22c-0.095,0.335-0.183,0.662-0.27,0.989
								c-0.031,0.115-0.049,0.251-0.193,0.27c-0.133,0.017-0.209-0.091-0.287-0.183c-0.214-0.254-0.449-0.489-0.687-0.78
								c0.027,0.413,0.125,0.773,0.166,1.142c0.033,0.3-0.08,0.4-0.348,0.276c-0.344-0.158-0.696-0.297-0.996-0.453
								c0.208,0.297,0.403,0.65,0.585,1.01c0.09,0.178-0.001,0.292-0.22,0.309c-0.349,0.028-0.692-0.083-1.045-0.039
								c0.2,0.2,0.437,0.367,0.65,0.559c0.084,0.076,0.213,0.146,0.174,0.286c-0.036,0.131-0.168,0.157-0.282,0.189
								c-0.274,0.076-0.541,0.179-0.825,0.218c-0.15,0.021-0.277,0.11-0.419,0.159c-0.788,0.034-1.575,0.011-2.362,0.014
								C253.416,8.255,253.32,8.204,253.222,8.155z"/>
							<path fill="#BF192A" d="M266.641,8.15c1.291-1.716,2.582-3.432,3.873-5.148c0.037-0.049,0.061-0.113,0.127-0.136
								c0,4.742,0,9.484,0,14.226c-0.09,0.046-0.187,0.023-0.28,0.023c-3.452,0.001-6.905,0.001-10.356,0.001
								c-0.194-0.096-0.068-0.211-0.005-0.303c0.255-0.372,0.533-0.726,0.804-1.085c1.026-1.363,2.046-2.732,3.071-4.096
								c0.076-0.1,0.189-0.172,0.23-0.298c0.674-0.823,1.286-1.694,1.935-2.536C266.22,8.567,266.341,8.274,266.641,8.15z"/>
							<path fill="#70414B" d="M259.92,17.067c0.107,0.045,0.219,0.025,0.329,0.025c3.464,0.001,6.928,0.001,10.392,0.001
								c-0.043,0.098-0.128,0.045-0.19,0.045c-1.846,0.004-3.691,0.003-5.537,0.003c-5.26,0-10.519,0-15.779,0
								c-0.026-0.02-0.023-0.037,0.007-0.049c3.517,0.001,7.035,0.001,10.552,0.001c0.07,0,0.14-0.016,0.21-0.025
								C259.91,17.04,259.915,17.04,259.92,17.067z"/>
							<path fill="#808081" d="M249.142,17.091c-0.002,0.016-0.005,0.033-0.007,0.049c-0.1-0.053-0.045-0.144-0.045-0.214
								c-0.003-4.393-0.003-8.786-0.003-13.179c0-0.301-0.001-0.603,0.001-0.904c0-0.029-0.029-0.088,0.046-0.071
								c0,4.67,0,9.34,0,14.011C249.136,16.885,249.14,16.988,249.142,17.091z"/>
							<path fill="#44A5DD" d="M266.641,8.15c-0.792,1.057-1.583,2.114-2.376,3.17c-0.022,0.03-0.06,0.048-0.09,0.072
								c-0.132,0.084-0.279,0.101-0.432,0.101c-2.55,0-5.1,0-7.649,0c-0.154,0-0.299-0.021-0.433-0.101
								c-0.697-0.919-1.395-1.838-2.092-2.758c-0.119-0.157-0.232-0.319-0.348-0.479c0.806-0.004,1.613-0.007,2.419-0.012
								c0.102-0.001,0.206,0.012,0.305-0.026c0.661-0.106,1.327-0.077,1.991-0.078c1.482-0.001,2.965-0.001,4.447,0
								c0.546,0,1.093-0.024,1.634,0.08c0.305,0.052,0.613,0.019,0.919,0.023C265.506,8.15,266.074,8.148,266.641,8.15z"/>
							<path fill="#FFFFFF" d="M255.662,11.392c0.531-0.003,1.062-0.008,1.593-0.008c2.204-0.001,4.408,0,6.612,0
								c0.103,0,0.206,0.005,0.309,0.008c-0.628,0.843-1.254,1.688-1.885,2.529c-0.788,1.05-1.58,2.098-2.37,3.146h-0.016
								C258.49,15.175,257.076,13.283,255.662,11.392z"/>
							<path fill="#EFE528" d="M264.019,8.119c-0.063,0.005-0.126,0.015-0.188,0.015c-2.566,0.001-5.131,0.001-7.697,0
								c-0.062,0-0.125-0.011-0.187-0.017c0.474-0.146,0.948-0.291,1.464-0.45c-0.393-0.333-0.76-0.645-1.174-0.996
								c0.57,0.039,1.082,0.074,1.64,0.112c-0.284-0.497-0.544-0.95-0.832-1.453c0.532,0.24,1.01,0.455,1.514,0.682
								c-0.091-0.57-0.178-1.118-0.265-1.665c0.014-0.012,0.029-0.024,0.043-0.036c0.361,0.4,0.722,0.799,1.102,1.22
								c0.146-0.539,0.284-1.048,0.442-1.626c0.226,0.59,0.428,1.116,0.643,1.676c0.323-0.392,0.63-0.765,0.938-1.139
								c0.018,0.003,0.037,0.006,0.055,0.01c-0.048,0.493-0.096,0.987-0.146,1.51c0.541-0.299,1.064-0.587,1.587-0.876
								c0.019,0.013,0.038,0.026,0.058,0.038c-0.275,0.54-0.55,1.08-0.845,1.66c0.521-0.104,1.011-0.202,1.553-0.311
								c-0.411,0.384-0.785,0.733-1.184,1.106C263.049,7.766,263.534,7.943,264.019,8.119z"/>
						</g>
					</g>
				</g>
			</g>
		</g>
	</g>
</g>
<circle fill="none" stroke="#FFFCEE" stroke-miterlimit="10" cx="259.817" cy="9.909" r="7.049"/>
<g>
	<path fill="#FFFCEE" d="M489.194,13.108c2.404-2.223,3.911-3.679,3.911-4.94c0-0.871-0.502-1.43-1.426-1.43
		c-0.665,0-1.222,0.429-1.684,0.923l-0.869-0.832c0.787-0.806,1.575-1.273,2.757-1.273c1.656,0,2.729,1.001,2.729,2.534
		c0,1.47-1.426,2.978-3.137,4.707c0.448-0.039,1.019-0.092,1.439-0.092h2.118v1.274h-5.84v-0.871H489.194z"/>
	<path fill="#FFFCEE" d="M495.946,15.526c0.869-0.325,1.371-0.91,1.371-1.573c-0.041,0-0.081,0-0.122,0
		c-0.529,0-1.005-0.338-1.005-0.923c0-0.559,0.476-0.923,1.046-0.923c0.733,0,1.168,0.572,1.168,1.534
		c0,1.273-0.774,2.262-2.119,2.704L495.946,15.526z"/>
	<path fill="#FFFCEE" d="M499.75,12.029c0.516,0.468,1.154,0.884,2.023,0.884c0.964,0,1.67-0.585,1.67-1.586
		c0-0.988-0.638-1.547-1.589-1.547c-0.557,0-0.869,0.143-1.385,0.468l-0.747-0.455l0.258-4.082h4.617v1.262h-3.259l-0.177,2.002
		c0.366-0.169,0.692-0.273,1.141-0.273c1.48,0,2.716,0.806,2.716,2.587c0,1.808-1.453,2.848-3.042,2.848
		c-1.398,0-2.309-0.533-2.946-1.145L499.75,12.029z"/>
	<path fill="#FFFCEE" d="M506.379,12.029c0.516,0.468,1.154,0.884,2.023,0.884c0.964,0,1.67-0.585,1.67-1.586
		c0-0.988-0.638-1.547-1.589-1.547c-0.557,0-0.869,0.143-1.385,0.468l-0.747-0.455l0.258-4.082h4.617v1.262h-3.259l-0.177,2.002
		c0.366-0.169,0.692-0.273,1.141-0.273c1.48,0,2.716,0.806,2.716,2.587c0,1.808-1.453,2.848-3.042,2.848
		c-1.398,0-2.309-0.533-2.946-1.145L506.379,12.029z"/>
</g>
</svg>
