<?xml version="1.0" encoding="utf-8"?>
<!-- Generator: Adobe Illustrator 17.0.0, SVG Export Plug-In . SVG Version: 6.00 Build 0)  -->
<!DOCTYPE svg PUBLIC "-//W3C//DTD SVG 1.1//EN" "http://www.w3.org/Graphics/SVG/1.1/DTD/svg11.dtd">
<svg version="1.1" id="Layer_1" xmlns="http://www.w3.org/2000/svg" xmlns:xlink="http://www.w3.org/1999/xlink" x="0px" y="0px"
	 width="600px" height="19.542px" viewBox="0 0 600 19.542" enable-background="new 0 0 600 19.542" xml:space="preserve">
<rect x="132.739" y="2.722" fill="#EC6554" width="59.389" height="14.097"/>
<g>
	<rect x="448.356" y="8.771" fill="#EC6554" width="24.522" height="2"/>
</g>
<g>
	<g>
		<circle fill="#EC6554" cx="472.754" cy="9.771" r="2.481"/>
	</g>
</g>
<rect x="0" y="0" fill="none" width="600" height="19.542"/>
<line fill="none" stroke="#9F9F9F" stroke-width="0.7" stroke-miterlimit="10" stroke-dasharray="6,3" x1="199.426" y1="0.55" x2="199.426" y2="18.992"/>
<line fill="none" stroke="#9F9F9F" stroke-width="0.7" stroke-miterlimit="10" stroke-dasharray="6,3" x1="440.97" y1="0.55" x2="440.97" y2="18.992"/>
<g>
	<g>
		<g>
			<defs>
				<circle id="SVGID_1_" cx="259.927" cy="9.771" r="7.158"/>
			</defs>
			<clipPath id="SVGID_2_">
				<use xlink:href="#SVGID_1_"  overflow="visible"/>
			</clipPath>
			<g id="QO91m9_1_" clip-path="url(#SVGID_2_)">
				<g>
					<g>
						<path fill="#3C5BA4" d="M256.407,16.976c-2.41,0-4.821,0-7.231,0c-0.043-0.075-0.023-0.156-0.023-0.234
							c-0.001-4.633-0.001-9.266,0-13.899c0-0.079-0.013-0.16,0.015-0.237c0.076-0.064,0.167-0.043,0.252-0.043
							c2.255-0.001,4.51-0.001,6.765,0c0.079,0,0.16-0.012,0.234,0.031c0.073,0.063,0.087,0.148,0.092,0.238
							c0.005,0.096,0.006,0.191,0.006,0.287c0,4.447,0.001,8.893-0.002,13.34C256.513,16.634,256.568,16.83,256.407,16.976z"/>
						<path fill="#3C5BA4" d="M270.774,16.976c-2.378,0-4.757,0-7.135,0c-0.073-0.06-0.1-0.14-0.103-0.232
							c-0.003-0.088-0.005-0.175-0.005-0.263c0-4.466-0.001-8.933,0.002-13.399c0-0.163-0.038-0.339,0.087-0.481
							c0.087-0.059,0.185-0.038,0.279-0.038c2.2-0.001,4.399-0.001,6.599,0c0.094,0,0.192-0.022,0.279,0.037
							c0.04,0.084,0.02,0.173,0.02,0.259c0.001,4.62,0.001,9.239,0,13.859C270.797,16.804,270.819,16.894,270.774,16.976z"/>
						<path fill="#EFD467" d="M263.625,2.622c-0.002,1.611-0.004,3.222-0.004,4.833c-0.001,3.071,0,6.141,0.001,9.212
							c0,0.103,0.011,0.206,0.017,0.309c-2.41,0-4.821,0-7.231,0c-0.004-0.103-0.011-0.207-0.011-0.31
							c-0.001-4.578,0-9.156-0.001-13.734c0-0.104-0.002-0.207-0.004-0.311c0.018-0.027,0.043-0.044,0.074-0.052
							c1.109-0.018,2.218-0.007,3.328-0.007c1.253,0,2.506-0.011,3.759,0.007C263.583,2.578,263.608,2.595,263.625,2.622z"/>
						<path fill="#808081" d="M249.128,2.562c0.043-0.099,0.129-0.045,0.192-0.045c1.939-0.004,3.879-0.003,5.818-0.003
							c5.156,0,10.312,0,15.468,0.003c0.07,0,0.162-0.055,0.216,0.045c-0.082,0.045-0.172,0.023-0.258,0.023
							c-2.308,0.001-4.615,0.001-6.923,0.001c-2.41,0-4.82,0-7.23,0c-2.398,0-4.796,0-7.194,0
							C249.185,2.588,249.155,2.58,249.128,2.562z"/>
						<path fill="#010202" d="M249.128,2.562c0.016,0.002,0.032,0.005,0.048,0.007c0.036,0.014,0.039,0.032,0.007,0.055
							c0.001,4.752,0.002,9.505,0.002,14.257c0,0.032-0.006,0.063-0.01,0.095c-0.1-0.053-0.045-0.145-0.045-0.215
							c-0.003-4.247-0.003-8.494-0.003-12.741C249.128,3.534,249.128,3.048,249.128,2.562z"/>
						<path fill="#2D437A" d="M270.774,16.976c0-4.667,0-9.333,0-14c0-0.12-0.002-0.239-0.003-0.359
							c0.013-0.03,0.03-0.033,0.051-0.007c0,4.717,0,9.434-0.003,14.151C270.819,16.831,270.874,16.923,270.774,16.976z"/>
						<path fill="#101728" d="M270.822,2.61c-0.017,0.002-0.034,0.005-0.051,0.007c-1.88-0.002-3.76-0.006-5.641-0.007
							c-0.502,0-1.003,0.008-1.505,0.012l-0.012-0.012c-0.005-0.021,0.002-0.035,0.023-0.041c1.608-0.002,3.215-0.005,4.822-0.007
							c0.788-0.001,1.576,0,2.364,0C270.822,2.578,270.822,2.594,270.822,2.61z"/>
						<path fill="#101728" d="M249.183,2.625c-0.002-0.018-0.005-0.037-0.007-0.055c1.963-0.002,3.925-0.005,5.888-0.007
							c0.447,0,0.893,0.005,1.34,0.008c0.02,0.003,0.028,0.009,0.024,0.018c-0.005,0.011-0.01,0.016-0.015,0.016
							c-0.004,0.009-0.011,0.015-0.021,0.017c-0.087-0.004-0.174-0.011-0.262-0.011c-2.22-0.001-4.441-0.001-6.661,0
							C249.373,2.61,249.278,2.62,249.183,2.625z"/>
						<path fill="#010202" d="M260.96,6.998c-0.176,0.018-0.314,0.039-0.435,0.117c-0.156,0.101-0.21,0.245-0.209,0.427
							c0.004,0.862,0.005,1.724-0.002,2.585c-0.001,0.155,0.039,0.203,0.198,0.201c0.4-0.005,0.382,0,0.452-0.409
							c0.175-1.024,0.508-2,0.976-2.927c0.085-0.168,0.102-0.306-0.023-0.46c-0.194-0.239-0.107-0.458,0.2-0.505
							c0.283-0.044,0.568-0.08,0.853-0.11c0.255-0.027,0.263-0.015,0.16,0.214c-0.346,0.777-0.651,1.57-0.903,2.382
							c-0.252,0.813-0.473,1.633-0.603,2.475c-0.021,0.139-0.063,0.206-0.223,0.197c-0.278-0.016-0.559,0.005-0.837-0.008
							c-0.149-0.007-0.187,0.038-0.185,0.186c0.008,0.646-0.005,1.293,0.009,1.939c0.004,0.197-0.06,0.244-0.239,0.229
							c-0.174-0.015-0.352-0.014-0.526,0c-0.155,0.012-0.185-0.05-0.184-0.191c0.007-0.654-0.002-1.309,0.007-1.963
							c0.002-0.156-0.041-0.206-0.199-0.199c-0.287,0.013-0.574,0-0.862,0.005c-0.104,0.002-0.145-0.021-0.166-0.137
							c-0.3-1.707-0.82-3.346-1.529-4.926c-0.073-0.164-0.069-0.238,0.138-0.207c0.299,0.044,0.601,0.07,0.9,0.118
							c0.287,0.046,0.379,0.282,0.19,0.497c-0.133,0.153-0.12,0.288-0.036,0.456c0.502,1.01,0.871,2.063,1.008,3.188
							c0.015,0.126,0.052,0.153,0.169,0.155c0.461,0.009,0.461,0.014,0.461-0.457c0-0.726-0.018-1.453,0.006-2.178
							c0.015-0.467-0.193-0.65-0.652-0.696c0.427-0.31,0.86-0.589,1.043-1.126C260.099,6.413,260.526,6.687,260.96,6.998z"/>
						<path fill="#3B351B" d="M256.413,2.605c-0.005-0.011-0.008-0.023-0.009-0.035c1.018-0.003,2.037-0.008,3.055-0.008
							c1.392,0,2.785,0.004,4.177,0.007c-0.004,0.016-0.012,0.029-0.023,0.041C261.213,2.608,258.813,2.607,256.413,2.605z"/>
					</g>
				</g>
			</g>
		</g>
	</g>
</g>
<path fill="#010201" d="M280.133,5.383h2.648c1.806,0,3.068,0.585,3.068,2.08c0,0.845-0.502,1.599-1.562,1.859v0.052
	c1.304,0.195,2.064,0.871,2.064,2.041c0,1.677-1.386,2.496-3.368,2.496h-2.852V5.383H280.133z M282.591,9.023
	c1.507,0,2.146-0.52,2.146-1.469c0-0.923-0.72-1.312-2.092-1.312h-1.371v2.781H282.591z M282.822,13.053
	c1.521,0,2.418-0.532,2.418-1.689c0-1.054-0.856-1.534-2.418-1.534h-1.548v3.224L282.822,13.053L282.822,13.053z"/>
<path fill="#010201" d="M291.652,9.908c0-0.807-0.286-1.586-1.358-1.586c-0.774,0-1.453,0.338-1.969,0.676l-0.448-0.741
	c0.61-0.377,1.534-0.819,2.594-0.819c1.616,0,2.295,1.027,2.295,2.601v3.874h-0.924l-0.095-0.754h-0.027
	c-0.639,0.494-1.371,0.91-2.187,0.91c-1.113,0-1.941-0.663-1.941-1.794C287.591,10.896,288.84,10.206,291.652,9.908z
	 M289.845,13.209c0.639,0,1.168-0.299,1.807-0.845V10.61c-2.214,0.26-2.961,0.779-2.961,1.586
	C288.691,12.91,289.194,13.209,289.845,13.209z"/>
<path fill="#010201" d="M294.804,7.593h0.924l0.095,1.145h0.041c0.448-0.793,1.127-1.301,1.874-1.301
	c0.285,0,0.489,0.039,0.706,0.131l-0.217,0.936c-0.218-0.065-0.367-0.104-0.639-0.104c-0.557,0-1.222,0.39-1.67,1.455v4.057h-1.114
	L294.804,7.593L294.804,7.593z"/>
<path fill="#010201" d="M299.451,4.656h1.114v2.521l-0.027,1.145c0.598-0.508,1.331-0.885,2.064-0.885
	c1.711,0,2.62,1.262,2.62,3.212c0,2.157-1.344,3.419-2.852,3.419c-0.611,0-1.304-0.286-1.888-0.78h-0.041l-0.095,0.624h-0.896
	L299.451,4.656L299.451,4.656z M302.18,13.17c1.087,0,1.888-0.949,1.888-2.509c0-1.392-0.488-2.327-1.738-2.327
	c-0.557,0-1.141,0.299-1.765,0.858v3.314C301.149,12.989,301.745,13.17,302.18,13.17z"/>
<path fill="#010201" d="M310.467,9.908c0-0.807-0.285-1.586-1.358-1.586c-0.774,0-1.453,0.338-1.97,0.676l-0.447-0.741
	c0.61-0.377,1.534-0.819,2.594-0.819c1.616,0,2.295,1.027,2.295,2.601v3.874h-0.924l-0.095-0.754h-0.027
	c-0.639,0.494-1.371,0.91-2.187,0.91c-1.113,0-1.941-0.663-1.941-1.794C306.407,10.896,307.656,10.206,310.467,9.908z
	 M308.661,13.209c0.639,0,1.168-0.299,1.807-0.845V10.61c-2.214,0.26-2.961,0.779-2.961,1.586
	C307.506,12.91,308.008,13.209,308.661,13.209z"/>
<path fill="#010201" d="M316.01,7.437c0.761,0,1.263,0.273,1.847,0.729l-0.055-1.079V4.656h1.128v9.256h-0.924l-0.095-0.741h-0.041
	c-0.516,0.481-1.223,0.897-1.996,0.897c-1.657,0-2.729-1.196-2.729-3.303C313.145,8.711,314.502,7.437,316.01,7.437z M316.119,13.17
	c0.611,0,1.141-0.286,1.684-0.871V8.997c-0.557-0.481-1.059-0.663-1.603-0.663c-1.059,0-1.9,0.975-1.9,2.418
	C314.299,12.26,314.964,13.17,316.119,13.17z"/>
<path fill="#010201" d="M323.659,7.437c1.615,0,3.055,1.209,3.055,3.328c0,2.094-1.439,3.303-3.055,3.303s-3.056-1.209-3.056-3.303
	C320.603,8.646,322.042,7.437,323.659,7.437z M323.659,13.183c1.141,0,1.9-0.975,1.9-2.418c0-1.456-0.76-2.443-1.9-2.443
	c-1.128,0-1.901,0.987-1.901,2.443C321.757,12.208,322.531,13.183,323.659,13.183z"/>
<path fill="#010201" d="M328.21,12.482c0.57,0.441,1.154,0.754,1.941,0.754c0.869,0,1.304-0.442,1.304-0.988
	c0-0.65-0.787-0.936-1.507-1.196c-0.938-0.325-1.97-0.754-1.97-1.819c0-1.015,0.842-1.795,2.268-1.795
	c0.829,0,1.549,0.325,2.051,0.716l-0.529,0.676c-0.448-0.325-0.924-0.56-1.508-0.56c-0.828,0-1.208,0.43-1.208,0.91
	c0,0.585,0.72,0.819,1.467,1.092c0.95,0.339,2.01,0.716,2.01,1.911c0,1.027-0.855,1.886-2.418,1.886
	c-0.937,0-1.833-0.377-2.458-0.871L328.21,12.482z"/>
<circle fill="none" stroke="#010201" stroke-miterlimit="10" cx="259.927" cy="9.771" r="7.049"/>
</svg>
