<?xml version="1.0" encoding="utf-8"?>
<!-- Generator: Adobe Illustrator 17.0.0, SVG Export Plug-In . SVG Version: 6.00 Build 0)  -->
<!DOCTYPE svg PUBLIC "-//W3C//DTD SVG 1.1//EN" "http://www.w3.org/Graphics/SVG/1.1/DTD/svg11.dtd">
<svg version="1.1" id="Layer_1" xmlns="http://www.w3.org/2000/svg" xmlns:xlink="http://www.w3.org/1999/xlink" x="0px" y="0px"
	 width="600px" height="19.542px" viewBox="0 0 600 19.542" enable-background="new 0 0 600 19.542" xml:space="preserve">
<rect x="0" y="0" fill="#EC6554" width="600" height="19.542"/>
<line fill="none" stroke="#9F9F9F" stroke-width="0.7" stroke-miterlimit="10" stroke-dasharray="6,3" x1="199.426" y1="0.55" x2="199.426" y2="18.992"/>
<line fill="none" stroke="#9F9F9F" stroke-width="0.7" stroke-miterlimit="10" stroke-dasharray="6,3" x1="440.97" y1="0.55" x2="440.97" y2="18.992"/>
<g>
	<g>
		<g>
			<rect x="451.885" y="8.771" fill="#FFFCEE" width="24.523" height="2"/>
		</g>
		<g>
			<g>
				<circle fill="#FFFCEE" cx="476.284" cy="9.771" r="2.481"/>
			</g>
		</g>
	</g>
</g>
<path fill="#FFFCEE" d="M67.679,7.398c-0.503-0.441-0.924-0.688-1.575-0.688c-0.733,0-1.182,0.364-1.182,1.04
	c0,1.56,3.694,1.248,3.694,3.874c0,1.235-0.761,2.146-2.105,2.379v1.339h-1.086v-1.3c-0.829-0.078-1.738-0.442-2.35-0.988
	l0.706-1.014c0.638,0.481,1.276,0.806,2.01,0.806c0.883,0,1.317-0.416,1.317-1.117c0-1.717-3.694-1.47-3.694-3.914
	c0-1.209,0.788-2.066,2.011-2.274V4.213h1.086v1.3c0.869,0.104,1.467,0.507,1.969,1.014L67.679,7.398z"/>
<path fill="#FFFCEE" d="M72.543,12.689h1.929V7.255h-1.589V6.319c0.855-0.156,1.453-0.364,1.996-0.677h1.168v7.047h1.697v1.222
	h-5.201V12.689z"/>
<path fill="#FFFCEE" d="M79.214,11.961c0.516,0.468,1.154,0.884,2.023,0.884c0.964,0,1.67-0.585,1.67-1.586
	c0-0.988-0.638-1.547-1.589-1.547c-0.557,0-0.869,0.143-1.385,0.468l-0.747-0.455l0.258-4.082h4.617v1.262h-3.259l-0.177,2.002
	c0.367-0.169,0.692-0.273,1.141-0.273c1.48,0,2.716,0.806,2.716,2.587c0,1.808-1.453,2.848-3.042,2.848
	c-1.398,0-2.309-0.533-2.946-1.145L79.214,11.961z"/>
<path fill="#FFFCEE" d="M85.87,11.935c0.516,0.508,1.181,0.91,2.05,0.91c0.938,0,1.589-0.468,1.589-1.248
	c0-0.857-0.57-1.403-2.539-1.403V9.101c1.697,0,2.254-0.559,2.254-1.326c0-0.688-0.488-1.104-1.276-1.104
	c-0.679,0-1.208,0.312-1.738,0.78l-0.801-0.924c0.733-0.623,1.562-1.039,2.594-1.039c1.656,0,2.798,0.779,2.798,2.184
	c0,0.923-0.57,1.547-1.508,1.898v0.052c1.019,0.26,1.793,0.962,1.793,2.054c0,1.508-1.372,2.393-3.029,2.393
	c-1.398,0-2.321-0.521-2.933-1.17L85.87,11.935z"/>
<path fill="#FFFCEE" d="M96.885,7.333c-0.312-0.364-0.855-0.624-1.371-0.624c-1.087,0-1.97,0.767-2.037,3.055
	c0.502-0.61,1.249-0.975,1.874-0.975c1.494,0,2.525,0.832,2.525,2.561c0,1.651-1.235,2.718-2.716,2.718
	c-1.697,0-3.137-1.262-3.137-4.043c0-3.212,1.63-4.537,3.395-4.537c1.046,0,1.793,0.416,2.31,0.936L96.885,7.333z M96.423,11.35
	c0-0.975-0.502-1.469-1.357-1.469c-0.489,0-1.06,0.26-1.548,0.949c0.162,1.469,0.773,2.093,1.615,2.093
	C95.853,12.923,96.423,12.364,96.423,11.35z"/>
<path fill="#FFFCEE" d="M98.599,9.738c0-2.796,1.141-4.251,2.934-4.251s2.934,1.469,2.934,4.251c0,2.795-1.141,4.329-2.934,4.329
	S98.599,12.533,98.599,9.738z M102.972,9.738c0-2.341-0.598-3.081-1.439-3.081c-0.828,0-1.439,0.74-1.439,3.081
	c0,2.34,0.611,3.159,1.439,3.159C102.374,12.898,102.972,12.078,102.972,9.738z"/>
<path fill="#FFFCEE" d="M105.323,15.458c0.869-0.325,1.371-0.91,1.371-1.573c-0.041,0-0.081,0-0.122,0
	c-0.529,0-1.005-0.338-1.005-0.923c0-0.559,0.476-0.923,1.046-0.923c0.733,0,1.168,0.572,1.168,1.534
	c0,1.273-0.774,2.262-2.119,2.704L105.323,15.458z"/>
<path fill="#FFFCEE" d="M113.54,7.333c-0.312-0.364-0.855-0.624-1.371-0.624c-1.087,0-1.97,0.767-2.037,3.055
	c0.502-0.61,1.249-0.975,1.874-0.975c1.494,0,2.525,0.832,2.525,2.561c0,1.651-1.235,2.718-2.716,2.718
	c-1.697,0-3.137-1.262-3.137-4.043c0-3.212,1.63-4.537,3.395-4.537c1.046,0,1.793,0.416,2.309,0.936L113.54,7.333z M113.079,11.35
	c0-0.975-0.503-1.469-1.358-1.469c-0.489,0-1.06,0.26-1.548,0.949c0.162,1.469,0.773,2.093,1.615,2.093
	C112.508,12.923,113.079,12.364,113.079,11.35z"/>
<path fill="#FFFCEE" d="M115.253,9.738c0-2.796,1.141-4.251,2.934-4.251s2.934,1.469,2.934,4.251c0,2.795-1.141,4.329-2.934,4.329
	S115.253,12.533,115.253,9.738z M119.626,9.738c0-2.341-0.598-3.081-1.439-3.081c-0.828,0-1.439,0.74-1.439,3.081
	c0,2.34,0.611,3.159,1.439,3.159C119.028,12.898,119.626,12.078,119.626,9.738z"/>
<path fill="#FFFCEE" d="M126.337,14.431v2.003h-1.562V7.528h1.29l0.109,0.676h0.054c0.557-0.455,1.276-0.832,2.01-0.832
	c1.657,0,2.621,1.273,2.621,3.25c0,2.184-1.371,3.445-2.852,3.445c-0.584,0-1.168-0.26-1.711-0.702L126.337,14.431z M127.682,12.832
	c0.883,0,1.562-0.754,1.562-2.197c0-1.273-0.435-2.028-1.439-2.028c-0.488,0-0.95,0.234-1.467,0.716V12.3
	C126.826,12.689,127.288,12.832,127.682,12.832z"/>
<path fill="#FFFCEE" d="M134.434,4.681h1.06l-3.164,11.311h-1.06L134.434,4.681z"/>
<path fill="#FFFCEE" d="M139.012,7.372c0.855,0,1.508,0.325,1.956,0.741l-0.747,0.948c-0.354-0.299-0.706-0.468-1.127-0.468
	c-1.073,0-1.82,0.845-1.82,2.132c0,1.274,0.733,2.119,1.779,2.119c0.543,0,1.005-0.26,1.371-0.546l0.652,0.949
	c-0.625,0.533-1.426,0.819-2.187,0.819c-1.82,0-3.219-1.223-3.219-3.342C135.671,8.594,137.233,7.372,139.012,7.372z"/>
<circle fill="none" stroke="#FFFCEE" stroke-miterlimit="10" cx="259.817" cy="9.771" r="7.049"/>
<path fill="#FFFCEE" d="M279.874,5.436h3.028c1.847,0,3.272,0.48,3.272,2.105c0,0.754-0.461,1.574-1.493,1.834v0.051
	c1.263,0.223,1.928,0.859,1.928,1.99c0,1.729-1.521,2.496-3.449,2.496h-3.286V5.436z M282.808,8.854
	c0.978,0,1.412-0.402,1.412-1.039s-0.462-0.896-1.386-0.896h-0.95v1.936h0.924V8.854z M282.997,12.43
	c1.087,0,1.657-0.391,1.657-1.156c0-0.742-0.557-1.066-1.657-1.066h-1.113v2.223L282.997,12.43L282.997,12.43z"/>
<path fill="#FFFCEE" d="M291.406,9.764c-0.04-0.57-0.339-0.936-1.059-0.936c-0.57,0-1.141,0.221-1.793,0.586l-0.706-1.262
	c0.855-0.494,1.819-0.846,2.879-0.846c1.725,0,2.676,0.937,2.676,2.912v3.693h-1.63l-0.149-0.664h-0.041
	c-0.57,0.482-1.208,0.82-1.969,0.82c-1.223,0-1.996-0.859-1.996-1.951C287.618,10.766,288.745,10.025,291.406,9.764z
	 M290.293,12.586c0.462,0,0.761-0.209,1.113-0.547v-1.131c-1.426,0.182-1.888,0.572-1.888,1.066
	C289.519,12.391,289.818,12.586,290.293,12.586z"/>
<path fill="#FFFCEE" d="M295.048,7.463h1.63l0.136,1.131h0.054c0.489-0.871,1.223-1.287,1.915-1.287c0.38,0,0.611,0.053,0.802,0.131
	l-0.326,1.65c-0.244-0.064-0.448-0.104-0.733-0.104c-0.503,0-1.127,0.312-1.48,1.184v3.744h-1.996V7.463H295.048z"/>
<path fill="#FFFCEE" d="M300.387,4.799h1.996v2.236l-0.055,0.986c0.517-0.441,1.155-0.715,1.779-0.715
	c1.63,0,2.648,1.287,2.648,3.264c0,2.223-1.385,3.498-2.838,3.498c-0.598,0-1.223-0.287-1.752-0.832h-0.055l-0.163,0.676h-1.562
	V4.799H300.387z M303.456,12.508c0.692,0,1.249-0.572,1.249-1.898c0-1.156-0.366-1.742-1.168-1.742
	c-0.407,0-0.773,0.182-1.154,0.586v2.639C302.736,12.404,303.116,12.508,303.456,12.508z"/>
<path fill="#FFFCEE" d="M311.498,9.764c-0.04-0.57-0.339-0.936-1.059-0.936c-0.57,0-1.141,0.221-1.793,0.586l-0.706-1.262
	c0.855-0.494,1.819-0.846,2.879-0.846c1.725,0,2.676,0.937,2.676,2.912v3.693h-1.63l-0.149-0.664h-0.041
	c-0.57,0.482-1.208,0.82-1.969,0.82c-1.223,0-1.996-0.859-1.996-1.951C307.71,10.766,308.837,10.025,311.498,9.764z M310.385,12.586
	c0.462,0,0.761-0.209,1.113-0.547v-1.131c-1.426,0.182-1.888,0.572-1.888,1.066C309.61,12.391,309.909,12.586,310.385,12.586z"/>
<path fill="#FFFCEE" d="M317.585,7.307c0.747,0,1.195,0.262,1.657,0.678l-0.082-0.988V4.799h1.996v9.113h-1.629l-0.136-0.637h-0.055
	c-0.476,0.455-1.141,0.793-1.793,0.793c-1.67,0-2.757-1.275-2.757-3.381S316.159,7.307,317.585,7.307z M318.061,12.508
	c0.435,0,0.773-0.156,1.1-0.586V9.283c-0.353-0.312-0.747-0.416-1.113-0.416c-0.639,0-1.209,0.572-1.209,1.795
	C316.838,11.936,317.286,12.508,318.061,12.508z"/>
<path fill="#FFFCEE" d="M325.749,7.307c1.697,0,3.272,1.236,3.272,3.381s-1.575,3.381-3.272,3.381c-1.711,0-3.286-1.236-3.286-3.381
	S324.038,7.307,325.749,7.307z M325.749,12.522c0.814,0,1.235-0.717,1.235-1.834s-0.421-1.834-1.235-1.834
	c-0.828,0-1.236,0.717-1.236,1.834S324.921,12.522,325.749,12.522z"/>
<path fill="#FFFCEE" d="M330.56,11.975c0.611,0.441,1.168,0.676,1.738,0.676c0.598,0,0.855-0.207,0.855-0.545
	c0-0.43-0.679-0.625-1.372-0.885c-0.814-0.299-1.778-0.832-1.778-1.898c0-1.195,1.019-2.016,2.58-2.016
	c1.032,0,1.792,0.404,2.376,0.82l-0.896,1.143c-0.489-0.338-0.951-0.545-1.427-0.545c-0.516,0-0.76,0.182-0.76,0.508
	c0,0.416,0.624,0.57,1.317,0.818c0.855,0.299,1.819,0.754,1.819,1.938c0,1.17-0.964,2.08-2.771,2.08
	c-0.883,0-1.901-0.365-2.58-0.898L330.56,11.975z"/>
<path fill="#EC6554" d="M230.466,11.936h-0.991v1.977h-1.861v-1.977h-3.734v-1.312l3.15-4.967h2.445v4.824h0.991L230.466,11.936
	L230.466,11.936z M227.613,10.481v-1.34c0-0.533,0.055-1.326,0.082-1.846h-0.055c-0.217,0.455-0.462,0.922-0.706,1.391l-1.141,1.795
	H227.613z"/>
<g>
	<g>
		<g>
			<g>
				<g>
					<defs>
						<circle id="SVGID_1_" cx="259.817" cy="9.771" r="7.158"/>
					</defs>
					<clipPath id="SVGID_2_">
						<use xlink:href="#SVGID_1_"  overflow="visible"/>
					</clipPath>
					<g clip-path="url(#SVGID_2_)">
						<g>
							<path fill="#3C5BA4" d="M256.297,16.976c-2.41,0-4.821,0-7.231,0c-0.043-0.075-0.023-0.156-0.023-0.234
								c-0.001-4.633-0.001-9.266,0-13.899c0-0.079-0.013-0.16,0.015-0.237c0.076-0.064,0.167-0.043,0.252-0.043
								c2.255-0.001,4.51-0.001,6.765,0c0.079,0,0.16-0.012,0.234,0.031c0.073,0.063,0.087,0.148,0.092,0.238
								c0.005,0.096,0.006,0.191,0.006,0.287c0,4.447,0.001,8.893-0.002,13.34C256.403,16.634,256.458,16.83,256.297,16.976z"/>
							<path fill="#3C5BA4" d="M270.664,16.976c-2.378,0-4.757,0-7.135,0c-0.073-0.06-0.1-0.14-0.103-0.232
								c-0.003-0.088-0.005-0.175-0.005-0.263c0-4.466-0.001-8.933,0.002-13.399c0-0.163-0.038-0.339,0.087-0.481
								c0.087-0.059,0.185-0.038,0.279-0.038c2.2-0.001,4.399-0.001,6.599,0c0.094,0,0.192-0.022,0.279,0.037
								c0.04,0.084,0.02,0.173,0.02,0.259c0.001,4.62,0.001,9.239,0,13.859C270.687,16.804,270.709,16.894,270.664,16.976z"/>
							<path fill="#EFD467" d="M263.515,2.622c-0.002,1.611-0.004,3.222-0.004,4.833c-0.001,3.071,0,6.141,0.001,9.212
								c0,0.103,0.011,0.206,0.017,0.309c-2.41,0-4.821,0-7.231,0c-0.004-0.103-0.011-0.207-0.011-0.31
								c-0.001-4.578,0-9.156-0.001-13.734c0-0.104-0.003-0.207-0.004-0.311c0.018-0.027,0.043-0.044,0.074-0.052
								c1.109-0.018,2.218-0.007,3.328-0.007c1.253,0,2.506-0.011,3.758,0.007C263.473,2.578,263.498,2.595,263.515,2.622z"/>
							<path fill="#808081" d="M249.018,2.562c0.043-0.099,0.129-0.045,0.192-0.045c1.939-0.004,3.879-0.003,5.818-0.003
								c5.156,0,10.312,0,15.468,0.003c0.07,0,0.162-0.055,0.215,0.045c-0.082,0.045-0.172,0.023-0.258,0.023
								c-2.308,0.001-4.615,0.001-6.923,0.001c-2.41,0-4.82,0-7.23,0c-2.398,0-4.796,0-7.194,0
								C249.075,2.588,249.045,2.58,249.018,2.562z"/>
							<path fill="#010202" d="M249.018,2.562c0.016,0.002,0.032,0.005,0.048,0.007c0.036,0.014,0.039,0.032,0.007,0.055
								c0.001,4.752,0.002,9.505,0.002,14.257c0,0.032-0.006,0.063-0.01,0.095c-0.1-0.053-0.045-0.145-0.045-0.215
								c-0.003-4.247-0.003-8.494-0.003-12.741C249.018,3.534,249.018,3.048,249.018,2.562z"/>
							<path fill="#2D437A" d="M270.664,16.976c0-4.667,0-9.333,0-14c0-0.12-0.002-0.239-0.003-0.359
								c0.013-0.03,0.03-0.033,0.051-0.007c0,4.717,0,9.434-0.003,14.151C270.709,16.831,270.764,16.923,270.664,16.976z"/>
							<path fill="#101728" d="M270.712,2.61c-0.017,0.002-0.034,0.005-0.051,0.007c-1.88-0.002-3.76-0.006-5.641-0.007
								c-0.502,0-1.003,0.008-1.505,0.012l-0.012-0.012c-0.005-0.021,0.002-0.035,0.023-0.041c1.607-0.002,3.215-0.005,4.822-0.007
								c0.788-0.001,1.576,0,2.364,0C270.712,2.578,270.712,2.594,270.712,2.61z"/>
							<path fill="#101728" d="M249.073,2.625c-0.002-0.018-0.005-0.037-0.007-0.055c1.963-0.002,3.925-0.005,5.888-0.007
								c0.447,0,0.893,0.005,1.34,0.008c0.02,0.003,0.028,0.009,0.024,0.018c-0.005,0.011-0.01,0.016-0.015,0.016
								c-0.004,0.009-0.011,0.015-0.021,0.017c-0.087-0.004-0.174-0.011-0.262-0.011c-2.22-0.001-4.441-0.001-6.661,0
								C249.264,2.61,249.168,2.62,249.073,2.625z"/>
							<path fill="#010202" d="M260.85,6.998c-0.176,0.018-0.314,0.039-0.435,0.117c-0.156,0.101-0.21,0.245-0.21,0.427
								c0.004,0.862,0.005,1.724-0.002,2.585c-0.001,0.155,0.039,0.203,0.198,0.201c0.4-0.005,0.382,0,0.452-0.409
								c0.175-1.024,0.508-2,0.976-2.927c0.085-0.168,0.102-0.306-0.023-0.46c-0.194-0.239-0.107-0.458,0.2-0.505
								c0.283-0.044,0.568-0.08,0.853-0.11c0.255-0.027,0.263-0.015,0.16,0.214c-0.346,0.777-0.651,1.57-0.903,2.382
								c-0.252,0.813-0.473,1.633-0.603,2.475c-0.021,0.139-0.063,0.206-0.223,0.197c-0.278-0.016-0.559,0.005-0.837-0.008
								c-0.149-0.007-0.187,0.038-0.185,0.186c0.008,0.646-0.005,1.293,0.009,1.939c0.004,0.197-0.06,0.244-0.239,0.229
								c-0.174-0.015-0.352-0.014-0.526,0c-0.155,0.012-0.185-0.05-0.184-0.191c0.007-0.654-0.002-1.309,0.007-1.963
								c0.002-0.156-0.041-0.206-0.199-0.199c-0.287,0.013-0.574,0-0.862,0.005c-0.104,0.002-0.145-0.021-0.166-0.137
								c-0.3-1.707-0.82-3.346-1.529-4.926c-0.073-0.164-0.069-0.238,0.138-0.207c0.299,0.044,0.601,0.07,0.9,0.118
								c0.287,0.046,0.379,0.282,0.19,0.497c-0.133,0.153-0.12,0.288-0.036,0.456c0.502,1.01,0.871,2.063,1.008,3.188
								c0.015,0.126,0.052,0.153,0.169,0.155c0.461,0.009,0.461,0.014,0.461-0.457c0-0.726-0.018-1.453,0.006-2.178
								c0.015-0.467-0.193-0.65-0.652-0.696c0.427-0.31,0.86-0.589,1.043-1.126C259.989,6.413,260.416,6.687,260.85,6.998z"/>
							<path fill="#3B351B" d="M256.303,2.605c-0.005-0.011-0.008-0.023-0.009-0.035c1.018-0.003,2.037-0.008,3.055-0.008
								c1.392,0,2.785,0.004,4.177,0.007c-0.004,0.016-0.012,0.029-0.023,0.041C261.103,2.608,258.703,2.607,256.303,2.605z"/>
						</g>
					</g>
				</g>
			</g>
		</g>
	</g>
</g>
<circle fill="none" stroke="#FFFCEE" stroke-miterlimit="10" cx="259.817" cy="9.771" r="7.049"/>
<g>
	<path fill="#FFFCEE" d="M486.926,13.041c2.404-2.223,3.911-3.679,3.911-4.94c0-0.871-0.502-1.43-1.426-1.43
		c-0.665,0-1.222,0.429-1.684,0.923l-0.869-0.832c0.787-0.806,1.575-1.273,2.757-1.273c1.656,0,2.729,1.001,2.729,2.534
		c0,1.47-1.426,2.978-3.137,4.707c0.448-0.039,1.019-0.092,1.439-0.092h2.118v1.274h-5.84v-0.871H486.926z"/>
	<path fill="#FFFCEE" d="M493.678,15.459c0.869-0.325,1.371-0.91,1.371-1.573c-0.041,0-0.081,0-0.122,0
		c-0.529,0-1.005-0.338-1.005-0.923c0-0.559,0.476-0.923,1.046-0.923c0.733,0,1.168,0.572,1.168,1.534
		c0,1.273-0.774,2.262-2.119,2.704L493.678,15.459z"/>
	<path fill="#FFFCEE" d="M497.509,11.936c0.516,0.508,1.181,0.91,2.05,0.91c0.938,0,1.589-0.468,1.589-1.248
		c0-0.857-0.57-1.403-2.539-1.403V9.102c1.697,0,2.254-0.559,2.254-1.326c0-0.688-0.488-1.104-1.276-1.104
		c-0.679,0-1.208,0.312-1.738,0.78l-0.801-0.924c0.733-0.623,1.562-1.039,2.594-1.039c1.656,0,2.798,0.779,2.798,2.184
		c0,0.923-0.571,1.547-1.508,1.898v0.052c1.019,0.26,1.793,0.962,1.793,2.054c0,1.508-1.372,2.393-3.028,2.393
		c-1.399,0-2.322-0.521-2.934-1.17L497.509,11.936z"/>
	<path fill="#FFFCEE" d="M504.111,11.962c0.516,0.468,1.154,0.884,2.023,0.884c0.964,0,1.67-0.585,1.67-1.586
		c0-0.988-0.638-1.547-1.589-1.547c-0.557,0-0.869,0.143-1.385,0.468l-0.747-0.455l0.258-4.082h4.617v1.262H505.7l-0.177,2.002
		c0.366-0.169,0.692-0.273,1.141-0.273c1.48,0,2.716,0.806,2.716,2.587c0,1.808-1.453,2.848-3.042,2.848
		c-1.398,0-2.309-0.533-2.946-1.145L504.111,11.962z"/>
</g>
</svg>
