<?xml version="1.0" encoding="utf-8"?>
<!-- Generator: Adobe Illustrator 19.0.0, SVG Export Plug-In . SVG Version: 6.00 Build 0)  -->
<svg version="1.1" id="Livello_1" xmlns="http://www.w3.org/2000/svg" xmlns:xlink="http://www.w3.org/1999/xlink" x="0px" y="0px"
	 viewBox="0 0 214.8 294.2" enable-background="new 0 0 214.8 294.2" xml:space="preserve">
<g id="XMLID_41_">
	
		<line id="XMLID_28_" fill="none" stroke="#9F9F9F" stroke-width="0.7" stroke-miterlimit="10" stroke-dasharray="6,3" x1="0.8" y1="0" x2="0.8" y2="170.5"/>
	<rect id="XMLID_17_" x="8.3" y="138.7" fill="#E6E465" width="35" height="20.7"/>
	<rect id="XMLID_16_" x="8.3" y="113.7" fill="#ABCCB7" width="22" height="20.1"/>
	<rect id="XMLID_15_" x="8.3" y="89.1" fill="#EC6554" width="40" height="20.7"/>
	<rect id="XMLID_14_" x="8.3" y="64.5" fill="#F39154" width="70" height="20.1"/>
	<rect id="XMLID_13_" x="8.3" y="39.2" fill="#429282" width="5" height="20.7"/>
	<rect id="XMLID_12_" x="8.3" y="13.8" fill="#BF3160" width="136" height="20.1"/>
</g>
<g id="XMLID_40_">
	
		<line id="XMLID_29_" fill="none" stroke="#9F9F9F" stroke-width="0.7" stroke-miterlimit="10" stroke-dasharray="6,3" x1="0.3" y1="180" x2="0.3" y2="294.2"/>
	<g id="XMLID_34_">
		<rect id="XMLID_27_" x="10" y="188.4" fill="#BF3160" width="14.1" height="4.7"/>
		<ellipse id="XMLID_26_" fill="#BF3160" cx="24.1" cy="190.7" rx="4.8" ry="4.8"/>
	</g>
	<g id="XMLID_31_">
		<ellipse id="XMLID_25_" fill="#429282" cx="132.7" cy="208.8" rx="4.8" ry="4.8"/>
		<rect id="XMLID_24_" x="10" y="206.4" fill="#429282" width="122.8" height="4.7"/>
	</g>
	<g id="XMLID_9_">
		<ellipse id="XMLID_23_" fill="#F39154" cx="41.2" cy="226.7" rx="4.8" ry="4.8"/>
		<rect id="XMLID_22_" x="10" y="224.3" fill="#F39154" width="31.2" height="4.7"/>
	</g>
	<g id="XMLID_6_">
		<ellipse id="XMLID_21_" fill="#EC6554" cx="50.2" cy="244.1" rx="4.8" ry="4.8"/>
		<rect id="XMLID_20_" x="10" y="241.7" fill="#EC6554" width="40.3" height="4.7"/>
	</g>
	<g id="XMLID_3_">
		<ellipse id="XMLID_19_" fill="#ABCCB7" cx="75.4" cy="261.3" rx="4.8" ry="4.8"/>
		<rect id="XMLID_18_" x="10" y="258.6" fill="#ABCCB7" width="65.4" height="5.3"/>
	</g>
	<ellipse id="XMLID_11_" fill="#E6E465" cx="14.7" cy="280.7" rx="4.8" ry="4.8"/>
</g>
<g id="XMLID_38_" display="none">
	
		<line id="XMLID_65_" display="inline" fill="none" stroke="#9F9F9F" stroke-width="0.7" stroke-miterlimit="10" stroke-dasharray="6,3" x1="0.5" y1="180.1" x2="0.5" y2="293.3"/>
	<g id="XMLID_126_" display="inline" opacity="0.5">
		<rect id="XMLID_63_" x="10" y="188.4" fill="#BF3160" width="14" height="4.6"/>
		<circle id="XMLID_62_" fill="#BF3160" cx="24" cy="190.7" r="4.7"/>
	</g>
	<g id="XMLID_123_" display="inline" opacity="0.5">
		<circle id="XMLID_61_" fill="#429282" cx="132" cy="208.7" r="4.7"/>
		<rect id="XMLID_60_" x="10" y="206.3" fill="#429282" width="122" height="4.7"/>
	</g>
	<g id="XMLID_120_" display="inline" opacity="0.5">
		<circle id="XMLID_59_" fill="#F39154" cx="41" cy="226.4" r="4.7"/>
		<rect id="XMLID_58_" x="10" y="224" fill="#F39154" width="31" height="4.7"/>
	</g>
	<g id="XMLID_117_" display="inline" opacity="0.5">
		<circle id="XMLID_57_" fill="#EC6554" cx="50" cy="243.6" r="4.7"/>
		<rect id="XMLID_56_" x="10" y="241.3" fill="#EC6554" width="40" height="4.7"/>
	</g>
	<g id="XMLID_114_" display="inline" opacity="0.5">
		<circle id="XMLID_55_" fill="#ABCCB7" cx="75" cy="260.6" r="4.7"/>
		<rect id="XMLID_54_" x="10" y="258" fill="#ABCCB7" width="65" height="5.2"/>
	</g>
	<circle id="XMLID_37_" display="inline" opacity="0.5" fill="#E6E465" enable-background="new    " cx="14.8" cy="279.9" r="4.7"/>
	<g id="XMLID_81_" display="inline">
		<text id="XMLID_10_" transform="matrix(1 0 0 1 34.0299 194.7382)" font-family="'MyriadPro-Bold'" font-size="12px">1,12</text>
	</g>
	<g id="XMLID_79_" display="inline">
		<text id="XMLID_8_" transform="matrix(1 0 0 1 141.6881 212.1411)" font-family="'MyriadPro-Bold'" font-size="12px">9,68</text>
	</g>
	<g id="XMLID_77_" display="inline">
		<text id="XMLID_7_" transform="matrix(1 0 0 1 52.5299 230.4343)" font-family="'MyriadPro-Bold'" font-size="12px">2,485</text>
	</g>
	<g id="XMLID_75_" display="inline">
		<text id="XMLID_5_" transform="matrix(1 0 0 1 61.0299 247.1582)" font-family="'MyriadPro-Bold'" font-size="12px">3,173</text>
	</g>
	<g id="XMLID_73_" display="inline">
		<text id="XMLID_4_" transform="matrix(1 0 0 1 83.5963 264.8286)" font-family="'MyriadPro-Bold'" font-size="12px">5,171</text>
	</g>
	<g id="XMLID_71_" display="inline">
		<text id="XMLID_2_" transform="matrix(1 0 0 1 25.5299 284.6926)" font-family="'MyriadPro-Bold'" font-size="12px">N.D.</text>
	</g>
</g>
<g id="XMLID_39_" display="none">
	
		<line id="XMLID_64_" display="inline" fill="none" stroke="#9F9F9F" stroke-width="0.7" stroke-miterlimit="10" stroke-dasharray="6,3" x1="1.4" y1="0" x2="1.4" y2="170.5"/>
	
		<rect id="XMLID_53_" x="8.9" y="138.7" display="inline" opacity="0.5" fill="#E6E465" enable-background="new    " width="35" height="20.7"/>
	
		<rect id="XMLID_52_" x="8.9" y="113.7" display="inline" opacity="0.5" fill="#ABCCB7" enable-background="new    " width="22" height="20.1"/>
	
		<rect id="XMLID_51_" x="8.9" y="89.1" display="inline" opacity="0.5" fill="#EC6554" enable-background="new    " width="40" height="20.7"/>
	
		<rect id="XMLID_50_" x="8.9" y="64.5" display="inline" opacity="0.5" fill="#F39154" enable-background="new    " width="70" height="20.1"/>
	
		<rect id="XMLID_49_" x="8.9" y="39.2" display="inline" opacity="0.5" fill="#429282" enable-background="new    " width="5" height="20.7"/>
	
		<rect id="XMLID_48_" x="8.9" y="13.8" display="inline" opacity="0.5" fill="#BF3160" enable-background="new    " width="136" height="20.1"/>
	<g id="XMLID_91_" display="inline">
		<text id="XMLID_36_" transform="matrix(1 0 0 1 149.3596 27.7504)" font-family="'MyriadPro-Bold'" font-size="12px">$ 44935,067</text>
	</g>
	<g id="XMLID_89_" display="inline">
		<text id="XMLID_35_" transform="matrix(1 0 0 1 84.5275 78.2504)" font-family="'MyriadPro-Bold'" font-size="12px">$ 23028,667</text>
	</g>
	<g id="XMLID_87_" display="inline">
		<text id="XMLID_33_" transform="matrix(1 0 0 1 53.4611 103.3524)" font-family="'MyriadPro-Bold'" font-size="12px">$ 12969,91</text>
	</g>
	<g id="XMLID_85_" display="inline">
		<text id="XMLID_32_" transform="matrix(1 0 0 1 34.9611 128.8524)" font-family="'MyriadPro-Bold'" font-size="12px">$ 7176,38</text>
	</g>
	<g id="XMLID_83_" display="inline">
		<text id="XMLID_30_" transform="matrix(1 0 0 1 48.8908 152.9573)" font-family="'MyriadPro-Bold'" font-size="12px">$ 11403,544</text>
	</g>
	
		<text id="XMLID_1_" transform="matrix(1 0 0 1 17.9611 54.1123)" display="inline" font-family="'MyriadPro-Bold'" font-size="12px">$ 1575</text>
</g>
</svg>
