<?xml version="1.0" encoding="utf-8"?>
<!-- Generator: Adobe Illustrator 17.0.0, SVG Export Plug-In . SVG Version: 6.00 Build 0)  -->
<!DOCTYPE svg PUBLIC "-//W3C//DTD SVG 1.1//EN" "http://www.w3.org/Graphics/SVG/1.1/DTD/svg11.dtd">
<svg version="1.1" id="Layer_1" xmlns="http://www.w3.org/2000/svg" xmlns:xlink="http://www.w3.org/1999/xlink" x="0px" y="0px"
	 width="539.5px" height="242px" viewBox="0 0 539.5 242" enable-background="new 0 0 539.5 242" xml:space="preserve">
<line fill="none" stroke="#9F9F9F" stroke-width="0.7" stroke-miterlimit="10" stroke-dasharray="6,3" x1="401.609" y1="226.808" x2="514.784" y2="226.808"/>
<line fill="none" stroke="#9F9F9F" stroke-width="0.7" stroke-miterlimit="10" stroke-dasharray="6,3" x1="14.938" y1="226.808" x2="185.45" y2="226.808"/>
<g>
	<rect x="409.907" y="203.246" fill="#BF3160" width="4.634" height="14"/>
	<circle fill="#BF3160" cx="412.224" cy="203.246" r="4.746"/>
</g>
<g>
	<circle fill="#429282" cx="430.16" cy="95.246" r="4.746"/>
	<rect x="427.81" y="95.246" fill="#429282" width="4.701" height="122"/>
</g>
<g>
	<circle fill="#F39154" cx="447.887" cy="186.246" r="4.746"/>
	<rect x="445.536" y="186.246" fill="#F39154" width="4.701" height="31"/>
</g>
<g>
	<circle fill="#EC6554" cx="465.124" cy="177.246" r="4.746"/>
	<rect x="462.774" y="177.246" fill="#EC6554" width="4.701" height="40"/>
</g>
<g>
	<circle fill="#ABCCB7" cx="482.153" cy="152.246" r="4.746"/>
	<rect x="479.54" y="152.246" fill="#ABCCB7" width="5.225" height="65"/>
</g>
<rect x="153.593" y="184.317" fill="#E6E465" width="20.742" height="35"/>
<rect x="128.589" y="197.317" fill="#ABCCB7" width="20.051" height="22"/>
<rect x="104.012" y="179.317" fill="#EC6554" width="20.742" height="40"/>
<rect x="79.416" y="149.317" fill="#F39154" width="20.051" height="70"/>
<rect x="54.09" y="214.317" fill="#429282" width="20.742" height="5"/>
<rect x="28.688" y="83.317" fill="#BF3160" width="20.051" height="136"/>
<circle fill="#E6E465" cx="501.451" cy="212.5" r="4.746"/>
<g enable-background="new    ">
	<path d="M251.841,221.582h-4.007l-0.802,2.971h-3.005l4.107-12.496h3.526l4.107,12.496h-3.125L251.841,221.582z M251.24,219.378
		l-0.32-1.149c-0.361-1.246-0.702-2.722-1.062-4.025h-0.08c-0.301,1.322-0.661,2.779-1.022,4.025l-0.32,1.149H251.24z"/>
	<path d="M255.086,212.057h3.125l1.583,5.826c0.381,1.361,0.641,2.626,1.042,4.006h0.08c0.4-1.38,0.661-2.645,1.042-4.006
		l1.543-5.826h3.025l-3.947,12.496h-3.546L255.086,212.057z"/>
	<path d="M267.888,212.057h8.194v2.377h-5.229v2.511h4.447v2.357h-4.447v2.874h5.429v2.377h-8.395V212.057z"/>
	<path d="M285.898,224.553l-2.504-4.504h-1.603v4.504h-2.966v-12.496h4.709c2.765,0,5.049,0.92,5.049,3.891
		c0,1.84-0.942,3.009-2.324,3.604l2.945,5.002H285.898z M281.792,217.807h1.502c1.543,0,2.385-0.633,2.385-1.859
		s-0.842-1.648-2.385-1.648h-1.502V217.807z"/>
	<path d="M297.098,221.582h-4.007l-0.802,2.971h-3.005l4.107-12.496h3.526l4.106,12.496h-3.125L297.098,221.582z M296.497,219.378
		l-0.32-1.149c-0.361-1.246-0.702-2.722-1.062-4.025h-0.08c-0.301,1.322-0.661,2.779-1.021,4.025l-0.32,1.149H296.497z"/>
	<path d="M307.996,211.827c1.844,0,3.187,0.785,4.067,1.629l-1.622,1.744c-0.661-0.575-1.282-0.939-2.404-0.939
		c-2.004,0-3.446,1.515-3.446,4.024c0,2.568,1.222,4.063,3.687,4.063c0.521,0,1.062-0.134,1.383-0.384v-2.146h-2.164v-2.3h4.788
		v5.75c-0.941,0.786-2.564,1.514-4.388,1.514c-3.526,0-6.331-2.204-6.331-6.4C301.565,214.242,304.45,211.827,307.996,211.827z"/>
	<path d="M314.928,212.057h8.194v2.377h-5.229v2.511h4.448v2.357h-4.448v2.874h5.43v2.377h-8.395V212.057z"/>
</g>
</svg>
