<?xml version="1.0" encoding="utf-8"?>
<!-- Generator: Adobe Illustrator 19.0.0, SVG Export Plug-In . SVG Version: 6.00 Build 0)  -->
<svg version="1.1" xmlns="http://www.w3.org/2000/svg" xmlns:xlink="http://www.w3.org/1999/xlink" x="0px" y="0px"
	 viewBox="0 0 1202.15 567.815" enable-background="new 0 0 1202.15 567.815" xml:space="preserve">
<g id="Livello_1">
</g>
<g id="Livello_3">
</g>
<g id="Livello_2">
</g>
<g id="Livello_4">
	<path opacity="0.7" fill="#E5DCD5" d="M192.043,567.815H1.457c-0.805,0-1.457-0.653-1.457-1.457v-95.899
		c0-0.805,0.653-1.457,1.457-1.457h190.585c0.805,0,1.457,0.653,1.457,1.457v95.899C193.5,567.163,192.847,567.815,192.043,567.815z
		"/>
	<g display="none">
		<rect x="1098.501" y="76.332" display="inline" fill="none" width="48.833" height="11.378"/>
		
			<text transform="matrix(1 0 0 1 1098.5011 84.9954)" display="inline" fill="#262625" font-family="'AkkuratPro-Regular'" font-size="12px">cons</text>
		<g display="inline">
			<circle opacity="0.75" fill="#AF1922" cx="1080.202" cy="80.624" r="7.087"/>
			<circle fill="#F5F5F5" cx="1080.202" cy="80.624" r="1.417"/>
		</g>
		<rect x="1098.501" y="104.678" display="inline" fill="none" width="48.833" height="11.378"/>
		
			<text transform="matrix(1 0 0 1 1098.5011 113.3418)" display="inline" fill="#262625" font-family="'AkkuratPro-Regular'" font-size="12px">cons*</text>
		<g display="inline">
			<circle opacity="0.75" fill="#F08575" cx="1080.202" cy="108.97" r="7.087"/>
			<circle fill="#FFFFFF" cx="1080.202" cy="108.97" r="1.417"/>
		</g>
		<rect x="1098.501" y="131.983" display="inline" fill="none" width="57.001" height="9.5"/>
		
			<text transform="matrix(1 0 0 1 1098.5011 140.6473)" display="inline" fill="#262625" font-family="'AkkuratPro-Regular'" font-size="12px">neutral</text>
		<g display="inline">
			<circle opacity="0.75" fill="#F6A000" cx="1080.202" cy="137.317" r="7.087"/>
			<circle fill="#F5F5F5" cx="1080.202" cy="137.317" r="1.417"/>
		</g>
		<rect x="1098.501" y="161.371" display="inline" fill="none" width="48.833" height="11.378"/>
		
			<text transform="matrix(1 0 0 1 1098.5011 170.0357)" display="inline" fill="#262625" font-family="'AkkuratPro-Regular'" font-size="12px">pro</text>
		<g display="inline">
			<circle opacity="0.75" fill="#1F8E6C" cx="1080.202" cy="165.663" r="7.087"/>
			<circle fill="#F5F5F5" cx="1080.202" cy="165.663" r="1.417"/>
		</g>
		<rect x="1098.501" y="189.718" display="inline" fill="none" width="48.833" height="11.378"/>
		
			<text transform="matrix(1 0 0 1 1098.5011 198.3822)" display="inline" fill="#262625" font-family="'AkkuratPro-Regular'" font-size="12px">pro*</text>
		<g display="inline">
			<circle opacity="0.75" fill="#A7C8AF" cx="1080.202" cy="194.009" r="7.087"/>
			<circle fill="#F5F5F5" cx="1080.202" cy="194.009" r="1.417"/>
		</g>
	</g>
	<polygon display="none" fill="none" stroke="#262625" stroke-linejoin="round" stroke-miterlimit="10" points="196.042,11.51 
		199.971,14.91 196.042,18.311 	"/>
	<g display="none">
		<rect x="518.773" y="-46.761" display="inline" fill="none" width="44.667" height="13.336"/>
		
			<text transform="matrix(1 0 0 1 518.7732 -34.6734)" display="inline" fill="#1D1D1B" font-family="'Merriweather-Bold'" font-size="15px">Cons</text>
		<g display="inline">
			<g>
				<rect x="269.777" y="165.591" fill="none" width="70" height="13.336"/>
				<text transform="matrix(1 0 0 1 269.7767 177.6788)" fill="#1D1D1B" font-family="'Merriweather-Bold'" font-size="15px">Health</text>
				<path fill="none" stroke="#BBA594" stroke-linejoin="round" stroke-miterlimit="10" d="M352.026,168.421v-8.488
					c0-0.884-0.716-1.6-1.6-1.6h-91.805c-0.884,0-1.6,0.716-1.6,1.6v24.652c0,0.884,0.716,1.6,1.6,1.6h91.805
					c0.883,0,1.6-0.716,1.6-1.6v-8.488l4.434-3.838L352.026,168.421z"/>
			</g>
			<g>
				<rect x="269.777" y="317.531" fill="none" width="107.583" height="49.333"/>
				<text transform="matrix(1 0 0 1 269.7774 329.6191)"><tspan x="0" y="0" fill="#1D1D1B" font-family="'Merriweather-Bold'" font-size="15px">etichal </tspan><tspan x="0" y="18" fill="#1D1D1B" font-family="'Merriweather-Bold'" font-size="15px">treatment </tspan><tspan x="0" y="36" fill="#1D1D1B" font-family="'Merriweather-Bold'" font-size="15px">of animals</tspan></text>
				<path fill="none" stroke="#BBA594" stroke-linejoin="round" stroke-miterlimit="10" d="M389.762,338.491V310.67
					c0-0.853-0.692-1.545-1.545-1.545h-129.65c-0.853,0-1.545,0.692-1.545,1.545v63.056c0,0.853,0.692,1.545,1.545,1.545h129.65
					c0.853,0,1.545-0.692,1.545-1.545v-27.821l4.283-3.707L389.762,338.491z"/>
			</g>
			<g>
				<rect x="269.777" y="470.04" fill="none" width="120" height="30.855"/>
				<text transform="matrix(1 0 0 1 269.7767 482.1279)"><tspan x="0" y="0" fill="#1D1D1B" font-family="'Merriweather-Bold'" font-size="15px">milk</tspan><tspan x="0" y="18" fill="#1D1D1B" font-family="'Merriweather-Bold'" font-size="15px">alternative</tspan></text>
				<path fill="none" stroke="#BBA594" stroke-linejoin="round" stroke-miterlimit="10" d="M402.21,481.788v-19.149
					c0-0.847-0.687-1.534-1.534-1.534H258.555c-0.847,0-1.534,0.687-1.534,1.534v45.658c0,0.847,0.687,1.534,1.534,1.534h142.121
					c0.847,0,1.534-0.687,1.534-1.534v-19.149l4.251-3.68L402.21,481.788z"/>
			</g>
		</g>
		<path display="inline" fill="none" stroke="#AF1922" stroke-width="0.75" stroke-miterlimit="10" d="M577.406-43.931v-8.488
			c0-0.884-0.716-1.6-1.6-1.6h-34.882h-13.491h-21.389c-0.883,0-1.6,0.716-1.6,1.6v8.488l-0.026,0.023v7.631l0.026,0.023v8.488
			c0,0.884,0.716,1.6,1.6,1.6h21.389h10.562l3.123,3.608l3.123-3.608h31.564c0.883,0,1.6-0.716,1.6-1.6v-8.488l0.026-0.023v-7.631
			L577.406-43.931z"/>
		<rect x="949.921" y="-46.761" display="inline" fill="none" width="44.667" height="13.336"/>
		
			<text transform="matrix(1 0 0 1 949.9215 -34.6734)" display="inline" fill="#1D1D1B" font-family="'Merriweather-Bold'" font-size="15px">pro</text>
		<rect x="713.997" y="-46.761" display="inline" fill="none" width="79.417" height="13.336"/>
		
			<text transform="matrix(1 0 0 1 713.9965 -34.6734)" display="inline" fill="#1D1D1B" font-family="'Merriweather-Bold'" font-size="15px">neutral</text>
		<path display="inline" fill="none" stroke="#F6A000" stroke-width="0.75" stroke-miterlimit="10" d="M807.559-43.931v-8.488
			c0-0.884-0.716-1.6-1.6-1.6h-34.747h-0.135h-13.491h-21.256h-0.134H722.84h-21.389c-0.883,0-1.6,0.716-1.6,1.6v8.488l-0.026,0.023
			v7.631l0.026,0.023v8.488c0,0.884,0.716,1.6,1.6,1.6h21.389h13.357h0.134h13.973l3.401,3.929l3.401-3.929h0.481h13.491h0.135
			h34.747c0.883,0,1.6-0.716,1.6-1.6v-8.488l0.026-0.023v-7.631L807.559-43.931z"/>
		<rect x="563.472" y="5.776" display="inline" fill="none" width="97" height="24.75"/>
		<text transform="matrix(1 0 0 1 584.5048 17.8637)" display="inline"><tspan x="0" y="0" fill="#1D1D1B" font-family="'Merriweather-Bold'" font-size="15px">Cons*</tspan><tspan x="-20.967" y="12" fill="#1D1D1B" font-family="'AkkuratPro-Bold'" font-size="10px" letter-spacing="1">(with criticism)</tspan></text>
		<path display="inline" fill="none" stroke="#F08575" stroke-width="0.75" stroke-miterlimit="10" d="M673.962,19.848v-3.396
			l0.026-0.023V8.799l-0.026-0.023V0.289c0-0.884-0.716-1.6-1.6-1.6h-34.882H623.99h-2.308H602.6h-15.8h-13.491h-21.389
			c-0.883,0-1.6,0.716-1.6,1.6v8.488l-0.026,0.023v7.631l0.026,0.023v3.396l-0.026,0.023v7.631l0.026,0.023v8.488
			c0,0.884,0.716,1.6,1.6,1.6h21.389H586.8h15.8h5.972l3.401,3.929l3.401-3.929h6.309h2.308h13.491h34.882
			c0.883,0,1.6-0.716,1.6-1.6v-8.488l0.026-0.023v-7.631L673.962,19.848z"/>
		<rect x="846.891" y="5.776" display="inline" fill="none" width="97" height="24.75"/>
		<text transform="matrix(1 0 0 1 873.3992 17.8637)" display="inline"><tspan x="0" y="0" fill="#1D1D1B" font-family="'Merriweather-Bold'" font-size="15px">pro*</tspan><tspan x="-26.443" y="12" fill="#1D1D1B" font-family="'AkkuratPro-Bold'" font-size="10px" letter-spacing="1">(with criticism)</tspan></text>
		<path display="inline" fill="none" stroke="#A7C8AF" stroke-width="0.75" stroke-miterlimit="10" d="M957.381,19.848v-3.396
			l0.026-0.023V8.799l-0.026-0.023V0.289c0-0.884-0.716-1.6-1.6-1.6h-34.882h-13.491H905.1h-19.082h-15.8h-13.491h-21.389
			c-0.883,0-1.6,0.716-1.6,1.6v8.488l-0.026,0.023v7.631l0.026,0.023v3.396l-0.026,0.023v7.631l0.026,0.023v8.488
			c0,0.884,0.716,1.6,1.6,1.6h21.389h13.491h15.8h6.14l3.401,3.929l3.401-3.929h6.14h2.308h13.491h34.882c0.883,0,1.6-0.716,1.6-1.6
			v-8.488l0.026-0.023v-7.631L957.381,19.848z"/>
		<path display="inline" fill="none" stroke="#1F8E6C" stroke-width="0.75" stroke-miterlimit="10" d="M997.077-43.931v-8.488
			c0-0.884-0.716-1.6-1.6-1.6h-11.166h-12.056h-7.61h-5.881h-21.389c-0.883,0-1.6,0.716-1.6,1.6v8.488l-0.026,0.023v7.631
			l0.026,0.023v8.488c0,0.884,0.716,1.6,1.6,1.6h21.389h4.261l3.401,3.929l3.401-3.929h2.429h12.056h11.166
			c0.883,0,1.6-0.716,1.6-1.6v-8.488l0.026-0.023v-7.631L997.077-43.931z"/>
	</g>
	<g>
		<g>
			<line fill="none" stroke="#BCAB9F" stroke-miterlimit="10" x1="377.392" y1="226.261" x2="1144.748" y2="226.261"/>
			<line fill="none" stroke="#BCAB9F" stroke-miterlimit="10" x1="424.258" y1="396.299" x2="1144.748" y2="396.299"/>
			<line fill="none" stroke="#BCAB9F" stroke-miterlimit="10" x1="434.482" y1="539.47" x2="1144.748" y2="539.47"/>
		</g>
		<g>
			<line fill="none" stroke="#BCAB9F" stroke-miterlimit="10" x1="571.319" y1="27.703" x2="571.319" y2="567.815"/>
			<line fill="none" stroke="#BCAB9F" stroke-miterlimit="10" x1="684.705" y1="42.935" x2="684.705" y2="567.815"/>
			<line fill="none" stroke="#BCAB9F" stroke-miterlimit="10" x1="854.784" y1="27.982" x2="854.784" y2="567.815"/>
			<line fill="none" stroke="#BCAB9F" stroke-miterlimit="10" x1="1024.859" y1="42.657" x2="1024.859" y2="567.815"/>
			<line fill="none" stroke="#BCAB9F" stroke-miterlimit="10" x1="1138.37" y1="27.981" x2="1138.37" y2="567.814"/>
		</g>
	</g>
	<g>
		<g>
			<circle opacity="0.75" fill="#1F8E6C" cx="571.319" cy="226.261" r="77.953"/>
			<circle fill="#F5F5F5" cx="571.319" cy="226.402" r="1.417"/>
		</g>
		<g>
			<circle opacity="0.75" fill="#1F8E6C" cx="571.319" cy="396.2" r="7.087"/>
			<circle fill="#F5F5F5" cx="571.319" cy="396.34" r="1.417"/>
		</g>
		<g>
			<circle opacity="0.75" fill="#1F8E6C" cx="571.319" cy="539.273" r="7.087"/>
			<circle fill="#F5F5F5" cx="571.319" cy="539.273" r="1.417"/>
		</g>
	</g>
	<g>
		<g>
			<circle opacity="0.75" fill="#A7C8AF" cx="684.705" cy="226.261" r="14.173"/>
			<circle fill="#F5F5F5" cx="684.705" cy="226.403" r="1.417"/>
		</g>
		<g>
			<circle opacity="0.75" fill="#A7C8AF" cx="684.827" cy="396.32" r="7.087"/>
			<circle fill="#F5F5F5" cx="684.827" cy="396.32" r="1.417"/>
		</g>
		<g>
			<g>
				<line fill="none" stroke="#A7C8AF" stroke-miterlimit="10" x1="677.335" y1="532.285" x2="691.508" y2="546.459"/>
				<line fill="none" stroke="#A7C8AF" stroke-miterlimit="10" x1="677.335" y1="546.459" x2="691.508" y2="532.285"/>
			</g>
			<circle fill="#F5F5F5" cx="684.421" cy="539.372" r="1.417"/>
		</g>
	</g>
	<g>
		<circle opacity="0.75" fill="#F6A000" cx="854.784" cy="226.403" r="127.559"/>
		<circle opacity="0.75" fill="#F6A000" cx="854.784" cy="396.32" r="14.173"/>
		<circle opacity="0.75" fill="#F6A000" cx="854.784" cy="539.47" r="7.087"/>
		<circle fill="#F5F5F5" cx="854.784" cy="226.403" r="1.417"/>
		<circle fill="#F5F5F5" cx="854.784" cy="396.32" r="1.417"/>
		<circle fill="#F5F5F5" cx="854.784" cy="539.47" r="1.417"/>
	</g>
	<g>
		<g>
			<g opacity="0.8">
				<line fill="none" stroke="#F08575" stroke-miterlimit="10" x1="1017.773" y1="532.285" x2="1031.946" y2="546.459"/>
				<line fill="none" stroke="#F08575" stroke-miterlimit="10" x1="1017.773" y1="546.459" x2="1031.946" y2="532.285"/>
			</g>
			<circle fill="#F5F5F5" cx="1024.859" cy="539.372" r="1.417"/>
		</g>
		<g>
			<circle opacity="0.75" fill="#F08575" cx="1024.859" cy="226.403" r="21.26"/>
			<circle fill="#F5F5F5" cx="1024.691" cy="226.403" r="1.417"/>
		</g>
		<g>
			<g opacity="0.8">
				<line fill="none" stroke="#F08575" stroke-miterlimit="10" x1="1017.562" y1="389.198" x2="1031.735" y2="403.372"/>
				<line fill="none" stroke="#F08575" stroke-miterlimit="10" x1="1017.562" y1="403.372" x2="1031.735" y2="389.198"/>
			</g>
			<circle fill="#F5F5F5" cx="1024.691" cy="396.341" r="1.417"/>
		</g>
	</g>
	<g>
		<g>
			<circle opacity="0.75" fill="#AF1922" cx="1138.37" cy="226.261" r="63.78"/>
			<circle opacity="0.75" fill="#AF1922" cx="1138.37" cy="396.341" r="35.433"/>
			<circle opacity="0.75" fill="#AF1922" cx="1138.37" cy="539.47" r="7.087"/>
		</g>
		<circle fill="#F5F5F5" cx="1138.37" cy="226.403" r="1.417"/>
		<circle fill="#F5F5F5" cx="1138.37" cy="396.341" r="1.417"/>
		<circle fill="#F5F5F5" cx="1138.37" cy="539.47" r="1.417"/>
	</g>
	<g>
		<path fill="#262625" d="M306.405,232.897v-5.888h-6.122v5.888h-1.602v-12.766h1.602v5.33h6.122v-5.33h1.603v12.766H306.405z"/>
		<path fill="#262625" d="M313.404,232.897v-12.766h8.534v1.476h-6.932v3.889h6.086v1.513h-6.086v4.411h6.932v1.477H313.404z"/>
		<path fill="#262625" d="M334.035,232.897l-1.044-3.025h-5.545l-1.026,3.025h-1.621l4.501-12.766h1.873l4.519,12.766H334.035z
			 M330.199,221.734l-2.25,6.626h4.52L330.199,221.734z"/>
		<path fill="#262625" d="M339.431,232.897v-12.766h1.603v11.271h6.14v1.495H339.431z"/>
		<path fill="#262625" d="M352.987,221.626v11.271h-1.621v-11.271h-3.799v-1.494h9.219v1.494H352.987z"/>
		<path fill="#262625" d="M368.342,232.897v-5.888h-6.122v5.888h-1.602v-12.766h1.602v5.33h6.122v-5.33h1.603v12.766H368.342z"/>
	</g>
	
		<rect x="291.554" y="213.093" fill="none" stroke="#BBA594" stroke-linejoin="round" stroke-miterlimit="10" width="85.839" height="26.898"/>
	<g>
		<g>
			<path fill="#262625" d="M1120.895,19.188c-0.774,0.774-2.034,1.368-3.421,1.368c-1.278,0-2.539-0.468-3.457-1.368
				c-1.387-1.351-1.603-3.223-1.603-5.258s0.216-3.907,1.603-5.257c0.918-0.9,2.179-1.369,3.457-1.369
				c1.387,0,2.629,0.54,3.403,1.314c0.738,0.756,1.206,1.729,1.26,2.917h-1.656c-0.018-0.702-0.288-1.314-0.702-1.783
				c-0.504-0.558-1.332-0.936-2.305-0.936c-0.864,0-1.711,0.342-2.323,0.972c-1.044,1.081-1.08,2.809-1.08,4.141
				c0,1.333,0.036,3.061,1.08,4.142c0.612,0.63,1.459,0.972,2.323,0.972c0.973,0,1.818-0.414,2.322-0.972
				c0.414-0.468,0.685-1.135,0.702-1.837h1.657C1122.101,17.423,1121.633,18.431,1120.895,19.188z"/>
			<path fill="#262625" d="M1134.142,19.188c-0.918,0.9-2.16,1.368-3.438,1.368s-2.521-0.468-3.439-1.368
				c-1.386-1.351-1.639-3.223-1.639-5.258s0.253-3.907,1.639-5.257c0.919-0.9,2.161-1.369,3.439-1.369s2.521,0.468,3.438,1.369
				c1.387,1.35,1.639,3.223,1.639,5.257S1135.529,17.837,1134.142,19.188z M1133.026,9.789c-0.612-0.63-1.458-0.954-2.322-0.954
				s-1.711,0.324-2.323,0.954c-1.044,1.081-1.098,2.809-1.098,4.141c0,1.333,0.054,3.061,1.098,4.142
				c0.612,0.63,1.459,0.954,2.323,0.954s1.71-0.324,2.322-0.954c1.045-1.081,1.099-2.809,1.099-4.142
				C1134.124,12.598,1134.071,10.869,1133.026,9.789z"/>
			<path fill="#262625" d="M1148.147,20.304l-6.266-10.263v10.263h-1.549V7.538h1.801l6.266,10.299V7.538h1.549v12.766H1148.147z"/>
			<path fill="#262625" d="M1162.996,19.259c-0.882,0.864-2.251,1.278-3.619,1.278c-1.549,0-2.791-0.432-3.655-1.224
				c-0.81-0.756-1.368-1.854-1.368-3.061h1.675c0,0.756,0.378,1.513,0.9,2.017c0.576,0.558,1.548,0.792,2.448,0.792
				c0.973,0,1.801-0.198,2.377-0.738c0.396-0.36,0.648-0.811,0.648-1.495c0-0.99-0.631-1.818-2.144-2.053l-2.017-0.306
				c-1.908-0.288-3.402-1.35-3.402-3.385c0-0.954,0.432-1.873,1.116-2.521c0.882-0.829,2.017-1.261,3.349-1.261
				c1.242,0,2.467,0.414,3.313,1.225c0.774,0.738,1.188,1.656,1.225,2.737h-1.675c-0.036-0.63-0.271-1.188-0.63-1.603
				c-0.486-0.558-1.261-0.882-2.251-0.882c-0.918,0-1.711,0.252-2.269,0.882c-0.324,0.378-0.522,0.81-0.522,1.386
				c0,1.152,0.954,1.675,1.908,1.801c0.721,0.09,1.423,0.216,2.125,0.324c2.125,0.306,3.547,1.602,3.547,3.619
				C1164.077,17.855,1163.626,18.648,1162.996,19.259z"/>
		</g>
		
			<rect x="1104.374" y="0.5" fill="none" stroke="#BBA594" stroke-linejoin="round" stroke-miterlimit="10" width="67.992" height="26.898"/>
	</g>
	<g>
		<path fill="#262625" d="M818.56,20.582l-6.266-10.263v10.263h-1.549V7.816h1.801l6.266,10.299V7.816h1.549v12.766H818.56z"/>
		<path fill="#262625" d="M825.757,20.582V7.816h8.534v1.476h-6.932v3.889h6.086v1.513h-6.086v4.411h6.932v1.477H825.757z"/>
		<path fill="#262625" d="M843.111,20.816c-2.863,0-4.663-1.729-4.663-4.916V7.816h1.603v8.12c0,2.035,0.846,3.385,3.061,3.385
			s3.061-1.351,3.061-3.385v-8.12h1.603V15.9C847.774,19.087,845.974,20.816,843.111,20.816z"/>
		<path fill="#262625" d="M856.664,9.311v11.271h-1.62V9.311h-3.8V7.816h9.219v1.494H856.664z"/>
		<path fill="#262625" d="M871.84,20.582l-2.413-5.312h-3.529v5.312h-1.603V7.816h5.006c1.494,0,2.539,0.414,3.241,1.134
			c0.612,0.648,1.008,1.476,1.008,2.593c0,1.116-0.359,1.873-0.972,2.521c-0.378,0.396-0.919,0.702-1.53,0.9l2.557,5.618H871.84z
			 M869.301,9.293h-3.403v4.483h3.403c1.513,0,2.593-0.612,2.593-2.232S870.814,9.293,869.301,9.293z"/>
		<path fill="#262625" d="M885.591,20.582l-1.044-3.025h-5.546l-1.026,3.025h-1.62l4.501-12.766h1.873l4.519,12.766H885.591z
			 M881.756,9.419l-2.251,6.626h4.52L881.756,9.419z"/>
		<path fill="#262625" d="M890.989,20.582V7.816h1.603v11.271h6.14v1.495H890.989z"/>
	</g>
	
		<rect x="803.698" y="0.5" fill="none" stroke="#BBA594" stroke-linejoin="round" stroke-miterlimit="10" width="102.172" height="27.176"/>
	<g>
		<g>
			<path fill="#262625" d="M1003.089,19.467c-0.773,0.774-2.034,1.368-3.421,1.368c-1.278,0-2.538-0.468-3.457-1.368
				c-1.386-1.351-1.603-3.223-1.603-5.258s0.217-3.907,1.603-5.257c0.919-0.9,2.179-1.369,3.457-1.369
				c1.387,0,2.629,0.54,3.403,1.314c0.738,0.756,1.206,1.729,1.261,2.917h-1.657c-0.018-0.702-0.288-1.314-0.702-1.783
				c-0.504-0.558-1.332-0.936-2.305-0.936c-0.864,0-1.71,0.342-2.322,0.972c-1.044,1.081-1.08,2.809-1.08,4.141
				c0,1.333,0.036,3.061,1.08,4.142c0.612,0.63,1.458,0.972,2.322,0.972c0.973,0,1.819-0.414,2.323-0.972
				c0.414-0.468,0.684-1.135,0.702-1.837h1.656C1004.296,17.702,1003.827,18.71,1003.089,19.467z"/>
			<path fill="#262625" d="M1016.337,19.467c-0.918,0.9-2.161,1.368-3.439,1.368s-2.521-0.468-3.438-1.368
				c-1.387-1.351-1.639-3.223-1.639-5.258s0.252-3.907,1.639-5.257c0.918-0.9,2.16-1.369,3.438-1.369s2.521,0.468,3.439,1.369
				c1.387,1.35,1.639,3.223,1.639,5.257S1017.724,18.116,1016.337,19.467z M1015.221,10.068c-0.612-0.63-1.459-0.954-2.323-0.954
				s-1.71,0.324-2.322,0.954c-1.045,1.081-1.099,2.809-1.099,4.141c0,1.333,0.054,3.061,1.099,4.142
				c0.612,0.63,1.458,0.954,2.322,0.954s1.711-0.324,2.323-0.954c1.044-1.081,1.098-2.809,1.098-4.142
				C1016.319,12.877,1016.265,11.148,1015.221,10.068z"/>
			<path fill="#262625" d="M1030.341,20.583l-6.266-10.263v10.263h-1.549V7.817h1.801l6.266,10.299V7.817h1.549v12.766H1030.341z"/>
			<path fill="#262625" d="M1045.191,19.539c-0.882,0.864-2.25,1.278-3.619,1.278c-1.548,0-2.79-0.432-3.654-1.224
				c-0.811-0.756-1.369-1.854-1.369-3.061h1.675c0,0.756,0.378,1.513,0.9,2.017c0.576,0.558,1.549,0.792,2.448,0.792
				c0.973,0,1.801-0.198,2.377-0.738c0.396-0.36,0.648-0.811,0.648-1.495c0-0.99-0.63-1.818-2.143-2.053l-2.017-0.306
				c-1.908-0.288-3.403-1.35-3.403-3.385c0-0.954,0.433-1.873,1.116-2.521c0.883-0.829,2.017-1.261,3.35-1.261
				c1.242,0,2.467,0.414,3.312,1.225c0.774,0.738,1.188,1.656,1.225,2.737h-1.675c-0.036-0.63-0.27-1.188-0.63-1.603
				c-0.486-0.558-1.261-0.882-2.251-0.882c-0.918,0-1.71,0.252-2.269,0.882c-0.324,0.378-0.522,0.81-0.522,1.386
				c0,1.152,0.955,1.675,1.909,1.801c0.72,0.09,1.422,0.216,2.124,0.324c2.125,0.306,3.548,1.602,3.548,3.619
				C1046.272,18.134,1045.822,18.927,1045.191,19.539z"/>
			<path fill="#262625" d="M1054.712,12.103l1.872,2.323l-1.206,0.864l-1.62-2.503l-1.603,2.503l-1.207-0.9l1.873-2.287
				l-2.863-0.738l0.469-1.422l2.755,1.08l-0.145-2.971h1.494l-0.18,2.971l2.772-1.08l0.45,1.422L1054.712,12.103z"/>
			<path fill="#262625" d="M981.603,34.983h-1.14l-1.942-6.848l-1.967,6.848h-1.128l-1.703-8.503h0.996l1.354,6.932l1.967-6.812H979
				l1.967,6.8l1.355-6.92h0.972L981.603,34.983z"/>
			<path fill="#262625" d="M986.082,34.983V26.48h1.092v8.503H986.082z"/>
			<path fill="#262625" d="M993.341,27.475v7.508h-1.08v-7.508h-2.53V26.48h6.141v0.996H993.341z"/>
			<path fill="#262625" d="M1003.576,34.983v-3.922h-4.078v3.922h-1.067V26.48h1.067v3.55h4.078v-3.55h1.067v8.503H1003.576z"/>
			<path fill="#262625" d="M1017.291,34.239c-0.516,0.516-1.355,0.912-2.279,0.912c-0.852,0-1.69-0.312-2.303-0.912
				c-0.923-0.899-1.067-2.147-1.067-3.502c0-1.355,0.145-2.603,1.067-3.502c0.612-0.6,1.451-0.912,2.303-0.912
				c0.924,0,1.751,0.36,2.267,0.875c0.492,0.504,0.804,1.151,0.84,1.943h-1.104c-0.012-0.468-0.191-0.875-0.468-1.188
				c-0.336-0.372-0.888-0.624-1.535-0.624c-0.575,0-1.14,0.228-1.547,0.647c-0.695,0.72-0.72,1.871-0.72,2.759
				s0.024,2.039,0.72,2.758c0.407,0.42,0.972,0.648,1.547,0.648c0.647,0,1.212-0.276,1.547-0.648
				c0.276-0.312,0.456-0.755,0.468-1.223h1.104C1018.094,33.064,1017.783,33.735,1017.291,34.239z"/>
			<path fill="#262625" d="M1026.039,34.983l-1.607-3.538h-2.351v3.538h-1.067V26.48h3.334c0.995,0,1.691,0.276,2.159,0.756
				c0.407,0.432,0.671,0.983,0.671,1.727s-0.239,1.247-0.647,1.679c-0.252,0.264-0.611,0.468-1.02,0.6l1.703,3.742H1026.039z
				 M1024.348,27.463h-2.267v2.986h2.267c1.008,0,1.728-0.408,1.728-1.487C1026.076,27.883,1025.356,27.463,1024.348,27.463z"/>
			<path fill="#262625" d="M1030.158,34.983V26.48h1.091v8.503H1030.158z"/>
			<path fill="#262625" d="M1037.416,27.475v7.508h-1.08v-7.508h-2.53V26.48h6.141v0.996H1037.416z"/>
			<path fill="#262625" d="M1042.505,34.983V26.48h1.091v8.503H1042.505z"/>
			<path fill="#262625" d="M1052.283,34.239c-0.516,0.516-1.355,0.912-2.279,0.912c-0.852,0-1.69-0.312-2.303-0.912
				c-0.923-0.899-1.067-2.147-1.067-3.502c0-1.355,0.145-2.603,1.067-3.502c0.612-0.6,1.451-0.912,2.303-0.912
				c0.924,0,1.751,0.36,2.267,0.875c0.492,0.504,0.804,1.151,0.84,1.943h-1.104c-0.012-0.468-0.191-0.875-0.468-1.188
				c-0.336-0.372-0.888-0.624-1.535-0.624c-0.575,0-1.14,0.228-1.547,0.647c-0.695,0.72-0.72,1.871-0.72,2.759
				s0.024,2.039,0.72,2.758c0.407,0.42,0.972,0.648,1.547,0.648c0.647,0,1.212-0.276,1.547-0.648
				c0.276-0.312,0.456-0.755,0.468-1.223h1.104C1053.085,33.064,1052.774,33.735,1052.283,34.239z"/>
			<path fill="#262625" d="M1056.005,34.983V26.48h1.091v8.503H1056.005z"/>
			<path fill="#262625" d="M1065.793,34.287c-0.587,0.576-1.499,0.852-2.41,0.852c-1.031,0-1.859-0.288-2.435-0.815
				c-0.54-0.504-0.912-1.235-0.912-2.039h1.116c0,0.504,0.251,1.008,0.6,1.343c0.384,0.372,1.031,0.528,1.631,0.528
				c0.647,0,1.199-0.132,1.583-0.492c0.264-0.24,0.432-0.54,0.432-0.996c0-0.659-0.42-1.211-1.427-1.367l-1.344-0.204
				c-1.271-0.192-2.267-0.899-2.267-2.255c0-0.636,0.288-1.248,0.743-1.679c0.588-0.552,1.344-0.839,2.231-0.839
				c0.827,0,1.643,0.276,2.206,0.815c0.517,0.492,0.792,1.104,0.816,1.823h-1.116c-0.023-0.42-0.18-0.792-0.419-1.067
				c-0.324-0.372-0.84-0.588-1.5-0.588c-0.611,0-1.139,0.168-1.511,0.588c-0.216,0.251-0.348,0.54-0.348,0.923
				c0,0.768,0.636,1.115,1.271,1.199c0.479,0.06,0.947,0.144,1.415,0.216c1.415,0.204,2.362,1.067,2.362,2.411
				C1066.513,33.352,1066.213,33.879,1065.793,34.287z"/>
			<path fill="#262625" d="M1076.653,34.983v-7.172l-2.639,7.052h-0.839l-2.639-7.112v7.232h-1.02V26.48h1.535l2.566,6.92
				l2.555-6.92h1.499v8.503H1076.653z"/>
		</g>
		
			<rect x="966.146" y="0.5" fill="none" stroke="#BBA594" stroke-linejoin="round" stroke-miterlimit="10" width="119.925" height="42.157"/>
	</g>
	<g>
		<g>
			<path fill="#262625" d="M560.42,14.29c-0.685,0.684-1.729,1.062-3.133,1.062h-3.151v4.952h-1.603V7.538h4.736
				c1.494,0,2.557,0.414,3.241,1.152c0.612,0.666,0.972,1.584,0.972,2.701C561.482,12.633,561.104,13.606,560.42,14.29z
				 M557.233,8.996h-3.097v4.897h3.115c1.71,0,2.575-0.792,2.575-2.502C559.826,9.771,558.818,8.996,557.233,8.996z"/>
			<path fill="#262625" d="M573.164,20.304l-2.413-5.312h-3.529v5.312h-1.603V7.538h5.006c1.494,0,2.539,0.414,3.241,1.134
				c0.612,0.648,1.008,1.476,1.008,2.593c0,1.116-0.36,1.873-0.972,2.521c-0.378,0.396-0.918,0.702-1.53,0.9l2.557,5.618H573.164z
				 M570.625,9.014h-3.403v4.483h3.403c1.512,0,2.593-0.612,2.593-2.232S572.138,9.014,570.625,9.014z"/>
			<path fill="#262625" d="M587.006,19.188c-0.918,0.9-2.161,1.368-3.439,1.368s-2.521-0.468-3.439-1.368
				c-1.386-1.351-1.639-3.223-1.639-5.258s0.252-3.907,1.639-5.257c0.918-0.9,2.161-1.369,3.439-1.369s2.521,0.468,3.439,1.369
				c1.387,1.35,1.639,3.223,1.639,5.257S588.392,17.837,587.006,19.188z M585.889,9.789c-0.612-0.63-1.458-0.954-2.323-0.954
				s-1.71,0.324-2.323,0.954c-1.044,1.081-1.098,2.809-1.098,4.141c0,1.333,0.054,3.061,1.098,4.142
				c0.612,0.63,1.458,0.954,2.323,0.954s1.71-0.324,2.323-0.954c1.044-1.081,1.098-2.809,1.098-4.142
				C586.988,12.598,586.934,10.869,585.889,9.789z"/>
		</g>
		
			<rect x="545.733" y="0.5" fill="none" stroke="#BBA594" stroke-linejoin="round" stroke-miterlimit="10" width="51.174" height="26.898"/>
	</g>
	<g>
		<g>
			<path fill="#262625" d="M668.98,14.569c-0.685,0.684-1.729,1.062-3.133,1.062h-3.151v4.952h-1.603V7.817h4.736
				c1.494,0,2.557,0.414,3.241,1.152c0.612,0.666,0.972,1.584,0.972,2.701C670.042,12.913,669.664,13.885,668.98,14.569z
				 M665.793,9.275h-3.097v4.897h3.115c1.71,0,2.575-0.792,2.575-2.502C668.386,10.05,667.378,9.275,665.793,9.275z"/>
			<path fill="#262625" d="M681.724,20.583l-2.413-5.312h-3.529v5.312h-1.603V7.817h5.006c1.494,0,2.539,0.414,3.241,1.134
				c0.612,0.648,1.008,1.476,1.008,2.593c0,1.116-0.36,1.873-0.972,2.521c-0.378,0.396-0.918,0.702-1.53,0.9l2.557,5.618H681.724z
				 M679.185,9.294h-3.403v4.483h3.403c1.512,0,2.593-0.612,2.593-2.232S680.698,9.294,679.185,9.294z"/>
			<path fill="#262625" d="M695.566,19.467c-0.918,0.9-2.161,1.368-3.439,1.368s-2.521-0.468-3.438-1.368
				c-1.387-1.351-1.639-3.223-1.639-5.258s0.252-3.907,1.639-5.257c0.918-0.9,2.16-1.369,3.438-1.369s2.521,0.468,3.439,1.369
				c1.387,1.35,1.639,3.223,1.639,5.257S696.952,18.116,695.566,19.467z M694.45,10.068c-0.612-0.63-1.459-0.954-2.323-0.954
				s-1.71,0.324-2.322,0.954c-1.045,1.081-1.099,2.809-1.099,4.141c0,1.333,0.054,3.061,1.099,4.142
				c0.612,0.63,1.458,0.954,2.322,0.954s1.711-0.324,2.323-0.954c1.044-1.081,1.098-2.809,1.098-4.142
				C695.547,12.877,695.493,11.148,694.45,10.068z"/>
			<path fill="#262625" d="M705.699,12.103l1.872,2.323l-1.206,0.864l-1.62-2.503l-1.603,2.503l-1.207-0.9l1.873-2.287l-2.863-0.738
				l0.469-1.422l2.755,1.08l-0.145-2.971h1.494l-0.18,2.971l2.772-1.08l0.45,1.422L705.699,12.103z"/>
			<path fill="#262625" d="M639.916,34.983h-1.14l-1.943-6.848l-1.967,6.848h-1.127l-1.703-8.503h0.996l1.355,6.932l1.967-6.812
				h0.96l1.967,6.8l1.355-6.92h0.972L639.916,34.983z"/>
			<path fill="#262625" d="M644.395,34.983V26.48h1.091v8.503H644.395z"/>
			<path fill="#262625" d="M651.654,27.475v7.508h-1.08v-7.508h-2.531V26.48h6.141v0.996H651.654z"/>
			<path fill="#262625" d="M661.888,34.983v-3.922h-4.078v3.922h-1.067V26.48h1.067v3.55h4.078v-3.55h1.067v8.503H661.888z"/>
			<path fill="#262625" d="M675.604,34.239c-0.516,0.516-1.355,0.912-2.279,0.912c-0.852,0-1.691-0.312-2.303-0.912
				c-0.923-0.899-1.067-2.147-1.067-3.502c0-1.355,0.144-2.603,1.067-3.502c0.612-0.6,1.451-0.912,2.303-0.912
				c0.923,0,1.751,0.36,2.267,0.875c0.492,0.504,0.804,1.151,0.84,1.943h-1.104c-0.012-0.468-0.192-0.875-0.468-1.188
				c-0.336-0.372-0.888-0.624-1.535-0.624c-0.576,0-1.14,0.228-1.547,0.647c-0.695,0.72-0.719,1.871-0.719,2.759
				s0.024,2.039,0.719,2.758c0.408,0.42,0.972,0.648,1.547,0.648c0.647,0,1.211-0.276,1.547-0.648
				c0.276-0.312,0.456-0.755,0.468-1.223h1.104C676.407,33.064,676.096,33.735,675.604,34.239z"/>
			<path fill="#262625" d="M684.352,34.983l-1.607-3.538h-2.351v3.538h-1.067V26.48h3.334c0.995,0,1.691,0.276,2.159,0.756
				c0.408,0.432,0.671,0.983,0.671,1.727s-0.24,1.247-0.647,1.679c-0.252,0.264-0.612,0.468-1.02,0.6l1.703,3.742H684.352z
				 M682.661,27.463h-2.267v2.986h2.267c1.007,0,1.727-0.408,1.727-1.487C684.388,27.883,683.668,27.463,682.661,27.463z"/>
			<path fill="#262625" d="M688.47,34.983V26.48h1.091v8.503H688.47z"/>
			<path fill="#262625" d="M695.729,27.475v7.508h-1.08v-7.508h-2.53V26.48h6.141v0.996H695.729z"/>
			<path fill="#262625" d="M700.818,34.983V26.48h1.091v8.503H700.818z"/>
			<path fill="#262625" d="M710.595,34.239c-0.516,0.516-1.355,0.912-2.279,0.912c-0.852,0-1.69-0.312-2.303-0.912
				c-0.923-0.899-1.067-2.147-1.067-3.502c0-1.355,0.145-2.603,1.067-3.502c0.612-0.6,1.451-0.912,2.303-0.912
				c0.924,0,1.751,0.36,2.267,0.875c0.492,0.504,0.804,1.151,0.84,1.943h-1.104c-0.012-0.468-0.191-0.875-0.468-1.188
				c-0.336-0.372-0.888-0.624-1.535-0.624c-0.575,0-1.14,0.228-1.547,0.647c-0.695,0.72-0.72,1.871-0.72,2.759
				s0.024,2.039,0.72,2.758c0.407,0.42,0.972,0.648,1.547,0.648c0.647,0,1.212-0.276,1.547-0.648
				c0.276-0.312,0.456-0.755,0.468-1.223h1.104C711.398,33.064,711.086,33.735,710.595,34.239z"/>
			<path fill="#262625" d="M714.318,34.983V26.48h1.091v8.503H714.318z"/>
			<path fill="#262625" d="M724.106,34.287c-0.587,0.576-1.499,0.852-2.41,0.852c-1.031,0-1.859-0.288-2.435-0.815
				c-0.54-0.504-0.912-1.235-0.912-2.039h1.116c0,0.504,0.251,1.008,0.6,1.343c0.384,0.372,1.031,0.528,1.631,0.528
				c0.647,0,1.199-0.132,1.583-0.492c0.264-0.24,0.432-0.54,0.432-0.996c0-0.659-0.42-1.211-1.427-1.367l-1.344-0.204
				c-1.271-0.192-2.267-0.899-2.267-2.255c0-0.636,0.288-1.248,0.743-1.679c0.588-0.552,1.344-0.839,2.231-0.839
				c0.827,0,1.643,0.276,2.206,0.815c0.517,0.492,0.792,1.104,0.816,1.823h-1.116c-0.023-0.42-0.18-0.792-0.419-1.067
				c-0.324-0.372-0.84-0.588-1.5-0.588c-0.611,0-1.139,0.168-1.511,0.588c-0.216,0.251-0.348,0.54-0.348,0.923
				c0,0.768,0.636,1.115,1.271,1.199c0.479,0.06,0.947,0.144,1.415,0.216c1.415,0.204,2.362,1.067,2.362,2.411
				C724.826,33.352,724.526,33.879,724.106,34.287z"/>
			<path fill="#262625" d="M734.965,34.983v-7.172l-2.639,7.052h-0.839l-2.639-7.112v7.232h-1.02V26.48h1.535l2.566,6.92l2.555-6.92
				h1.499v8.503H734.965z"/>
		</g>
		
			<rect x="624.458" y="0.5" fill="none" stroke="#BBA594" stroke-linejoin="round" stroke-miterlimit="10" width="119.925" height="42.157"/>
	</g>
	<g>
		<path fill="#262625" d="M300.441,380.376V367.61h8.534v1.477h-6.932v3.889h6.086v1.513h-6.086v4.411h6.932v1.477H300.441z"/>
		<path fill="#262625" d="M317.344,369.105v11.271h-1.621v-11.271h-3.799v-1.494h9.219v1.494H317.344z"/>
		<path fill="#262625" d="M332.699,380.376v-5.888h-6.122v5.888h-1.602V367.61h1.602v5.33h6.122v-5.33h1.603v12.766H332.699z"/>
		<path fill="#262625" d="M339.699,380.376V367.61h1.638v12.766H339.699z"/>
		<path fill="#262625" d="M354.37,379.26c-0.774,0.774-2.034,1.368-3.421,1.368c-1.278,0-2.539-0.468-3.457-1.368
			c-1.386-1.351-1.603-3.223-1.603-5.258c0-2.034,0.216-3.907,1.603-5.257c0.918-0.9,2.179-1.369,3.457-1.369
			c1.387,0,2.629,0.54,3.403,1.314c0.738,0.757,1.206,1.729,1.26,2.917h-1.657c-0.018-0.702-0.288-1.314-0.702-1.782
			c-0.504-0.559-1.332-0.937-2.305-0.937c-0.864,0-1.71,0.342-2.323,0.973c-1.044,1.08-1.08,2.809-1.08,4.141
			c0,1.333,0.036,3.062,1.08,4.142c0.612,0.63,1.458,0.973,2.323,0.973c0.973,0,1.819-0.414,2.323-0.973
			c0.414-0.468,0.684-1.135,0.702-1.837h1.657C355.577,377.495,355.109,378.504,354.37,379.26z"/>
		<path fill="#262625" d="M367.258,380.376l-1.044-3.024h-5.545l-1.026,3.024h-1.621l4.501-12.766h1.873l4.519,12.766H367.258z
			 M363.423,369.213l-2.251,6.626h4.52L363.423,369.213z"/>
		<path fill="#262625" d="M372.656,380.376V367.61h1.602v11.271h6.14v1.494H372.656z"/>
		<path fill="#262625" d="M304.294,390.705v11.271h-1.621v-11.271h-3.799v-1.494h9.219v1.494H304.294z"/>
		<path fill="#262625" d="M319.469,401.977l-2.413-5.312h-3.529v5.312h-1.603v-12.766h5.006c1.494,0,2.539,0.414,3.241,1.134
			c0.612,0.648,1.008,1.477,1.008,2.593s-0.36,1.873-0.972,2.521c-0.378,0.396-0.918,0.702-1.53,0.9l2.557,5.618H319.469z
			 M316.93,390.687h-3.403v4.483h3.403c1.512,0,2.593-0.612,2.593-2.232S318.442,390.687,316.93,390.687z"/>
		<path fill="#262625" d="M325.64,401.977v-12.766h8.535v1.476h-6.932v3.89h6.086v1.513h-6.086v4.411h6.932v1.477H325.64z"/>
		<path fill="#262625" d="M346.27,401.977l-1.044-3.025h-5.545l-1.026,3.025h-1.621l4.501-12.766h1.873l4.519,12.766H346.27z
			 M342.435,390.813l-2.25,6.626h4.52L342.435,390.813z"/>
		<path fill="#262625" d="M354.262,390.705v11.271h-1.621v-11.271h-3.799v-1.494h9.219v1.494H354.262z"/>
		<path fill="#262625" d="M372.605,401.977v-10.768l-3.961,10.587h-1.261l-3.961-10.677v10.857h-1.531v-12.766h2.305l3.854,10.389
			l3.835-10.389h2.251v12.766H372.605z"/>
		<path fill="#262625" d="M379.532,401.977v-12.766h8.535v1.476h-6.932v3.89h6.086v1.513h-6.086v4.411h6.932v1.477H379.532z"/>
		<path fill="#262625" d="M400.396,401.977l-6.266-10.264v10.264h-1.548v-12.766h1.8l6.266,10.299v-10.299h1.548v12.766H400.396z"/>
		<path fill="#262625" d="M411.447,390.705v11.271h-1.621v-11.271h-3.799v-1.494h9.219v1.494H411.447z"/>
		<path fill="#262625" d="M308.111,422.46c-0.918,0.9-2.161,1.368-3.439,1.368s-2.521-0.468-3.439-1.368
			c-1.386-1.351-1.639-3.223-1.639-5.258c0-2.034,0.252-3.907,1.639-5.257c0.918-0.9,2.161-1.369,3.439-1.369
			s2.521,0.469,3.439,1.369c1.387,1.35,1.639,3.223,1.639,5.257C309.749,419.237,309.497,421.109,308.111,422.46z M306.994,413.062
			c-0.612-0.631-1.458-0.954-2.323-0.954s-1.71,0.323-2.323,0.954c-1.044,1.08-1.098,2.809-1.098,4.141
			c0,1.333,0.054,3.062,1.098,4.142c0.612,0.63,1.458,0.954,2.323,0.954s1.71-0.324,2.323-0.954c1.044-1.08,1.098-2.809,1.098-4.142
			C308.093,415.87,308.039,414.142,306.994,413.062z"/>
		<path fill="#262625" d="M315.903,412.287v4.159h5.942v1.513h-5.942v5.617H314.3v-12.766h8.265v1.477H315.903z"/>
		<path fill="#262625" d="M339.917,423.576l-1.044-3.024h-5.545l-1.026,3.024h-1.621l4.501-12.766h1.873l4.519,12.766H339.917z
			 M336.081,412.413l-2.25,6.626h4.52L336.081,412.413z"/>
		<path fill="#262625" d="M353.129,423.576l-6.266-10.263v10.263h-1.548v-12.766h1.8l6.266,10.299v-10.299h1.548v12.766H353.129z"/>
		<path fill="#262625" d="M360.327,423.576v-12.766h1.638v12.766H360.327z"/>
		<path fill="#262625" d="M378.077,423.576V412.81l-3.961,10.587h-1.261l-3.961-10.678v10.857h-1.531v-12.766h2.305l3.854,10.389
			l3.835-10.389h2.251v12.766H378.077z"/>
		<path fill="#262625" d="M392.584,423.576l-1.044-3.024h-5.545l-1.026,3.024h-1.621l4.501-12.766h1.873l4.519,12.766H392.584z
			 M388.749,412.413l-2.251,6.626h4.52L388.749,412.413z"/>
		<path fill="#262625" d="M397.982,423.576v-12.766h1.602v11.271h6.14v1.494H397.982z"/>
		<path fill="#262625" d="M416.776,422.532c-0.882,0.864-2.25,1.278-3.619,1.278c-1.549,0-2.791-0.433-3.655-1.225
			c-0.811-0.756-1.369-1.854-1.369-3.061h1.675c0,0.756,0.378,1.513,0.9,2.017c0.576,0.558,1.549,0.792,2.449,0.792
			c0.972,0,1.8-0.198,2.376-0.738c0.396-0.36,0.648-0.811,0.648-1.494c0-0.99-0.63-1.818-2.143-2.053l-2.017-0.307
			c-1.908-0.288-3.403-1.35-3.403-3.385c0-0.954,0.432-1.872,1.116-2.521c0.882-0.828,2.017-1.261,3.349-1.261
			c1.242,0,2.467,0.414,3.313,1.225c0.774,0.738,1.188,1.656,1.224,2.737h-1.674c-0.036-0.631-0.27-1.188-0.63-1.603
			c-0.486-0.559-1.26-0.883-2.25-0.883c-0.918,0-1.71,0.252-2.269,0.883c-0.324,0.378-0.522,0.81-0.522,1.386
			c0,1.152,0.954,1.675,1.908,1.801c0.72,0.09,1.422,0.216,2.125,0.324c2.125,0.306,3.547,1.603,3.547,3.619
			C417.857,421.128,417.407,421.92,416.776,422.532z"/>
	</g>
	
		<rect x="291.554" y="360.294" fill="none" stroke="#BBA594" stroke-linejoin="round" stroke-miterlimit="10" width="132.27" height="71.983"/>
	<g>
		<path fill="#262625" d="M308.021,534.898l-1.044-3.025h-5.545l-1.026,3.025h-1.621l4.501-12.766h1.873l4.519,12.766H308.021z
			 M304.186,523.734l-2.251,6.626h4.52L304.186,523.734z"/>
		<path fill="#262625" d="M313.419,534.898v-12.766h1.602v11.271h6.14v1.495H313.419z"/>
		<path fill="#262625" d="M326.974,523.627v11.271h-1.621v-11.271h-3.799v-1.494h9.219v1.494H326.974z"/>
		<path fill="#262625" d="M334.604,534.898v-12.766h8.535v1.476h-6.932v3.89h6.086v1.513h-6.086v4.411h6.932v1.477H334.604z"/>
		<path fill="#262625" d="M355.199,534.898l-2.413-5.312h-3.529v5.312h-1.602v-12.766h5.005c1.494,0,2.539,0.414,3.241,1.134
			c0.612,0.648,1.008,1.477,1.008,2.593s-0.36,1.873-0.972,2.521c-0.378,0.396-0.918,0.702-1.53,0.9l2.557,5.618H355.199z
			 M352.66,523.608h-3.403v4.483h3.403c1.512,0,2.593-0.612,2.593-2.232S354.173,523.608,352.66,523.608z"/>
		<path fill="#262625" d="M369.184,534.898l-6.266-10.264v10.264h-1.549v-12.766h1.801l6.266,10.299v-10.299h1.549v12.766H369.184z"
			/>
		<path fill="#262625" d="M383.962,534.898l-1.044-3.025h-5.545l-1.026,3.025h-1.621l4.501-12.766h1.873l4.519,12.766H383.962z
			 M380.127,523.734l-2.25,6.626h4.52L380.127,523.734z"/>
		<path fill="#262625" d="M391.953,523.627v11.271h-1.621v-11.271h-3.799v-1.494h9.219v1.494H391.953z"/>
		<path fill="#262625" d="M399.584,534.898v-12.766h1.639v12.766H399.584z"/>
		<path fill="#262625" d="M410.871,534.898h-1.674l-4.304-12.766h1.657l3.529,10.785l3.457-10.785h1.639L410.871,534.898z"/>
		<path fill="#262625" d="M418.844,534.898v-12.766h8.535v1.476h-6.932v3.89h6.086v1.513h-6.086v4.411h6.932v1.477H418.844z"/>
		<path fill="#262625" d="M311.154,556.498v-10.767l-3.961,10.587h-1.261l-3.961-10.678v10.857h-1.53v-12.766h2.305l3.853,10.389
			l3.835-10.389h2.25v12.766H311.154z"/>
		<path fill="#262625" d="M318.081,556.498v-12.766h1.638v12.766H318.081z"/>
		<path fill="#262625" d="M325.119,556.498v-12.766h1.602v11.271h6.14v1.494H325.119z"/>
		<path fill="#262625" d="M344.723,556.498l-3.817-6.626l-2.593,3.025v3.601h-1.602v-12.766h1.602v6.806l5.852-6.806h1.999
			l-4.159,4.861l4.591,7.904H344.723z"/>
	</g>
	
		<rect x="291.554" y="514.816" fill="none" stroke="#BBA594" stroke-linejoin="round" stroke-miterlimit="10" width="142.928" height="49.309"/>
	<g>
		<g>
			<circle fill="#BBA594" cx="27.112" cy="492.26" r="7.087"/>
			<circle fill="#F5F5F5" cx="27.112" cy="492.26" r="1.417"/>
		</g>
		<g>
			<g>
				
					<line fill="none" stroke="#262625" stroke-width="0.75" stroke-miterlimit="10" x1="37.033" y1="485.173" x2="39.868" y2="485.173"/>
				
					<line fill="none" stroke="#262625" stroke-width="0.75" stroke-miterlimit="10" x1="37.033" y1="499.346" x2="39.868" y2="499.346"/>
			</g>
			
				<line fill="none" stroke="#262625" stroke-width="0.5" stroke-linecap="round" stroke-miterlimit="10" stroke-dasharray="0.75,1.5" x1="38.451" y1="485.173" x2="38.451" y2="499.346"/>
		</g>
		<g>
			<g>
				
					<line fill="none" stroke="#262625" stroke-width="0.75" stroke-miterlimit="10" x1="20.025" y1="482.338" x2="20.025" y2="479.504"/>
				
					<line fill="none" stroke="#262625" stroke-width="0.75" stroke-miterlimit="10" x1="34.199" y1="482.338" x2="34.199" y2="479.504"/>
			</g>
			
				<line fill="none" stroke="#262625" stroke-width="0.5" stroke-linecap="round" stroke-miterlimit="10" stroke-dasharray="0.75,1.5" x1="20.025" y1="480.921" x2="34.199" y2="480.921"/>
		</g>
	</g>
	<g>
		<path fill="#262625" d="M49.347,496.908v-8.376l-2.311,1.694v-1.33l2.381-1.724h1.148v9.735H49.347z"/>
		<path fill="#262625" d="M62.618,497.091c-2.227,0-3.628-1.345-3.628-3.824v-6.289h1.247v6.317c0,1.582,0.659,2.633,2.381,2.633
			c1.723,0,2.381-1.051,2.381-2.633v-6.317h1.247v6.289C66.246,495.746,64.846,497.091,62.618,497.091z"/>
		<path fill="#262625" d="M75.542,496.908l-4.875-7.984v7.984h-1.205v-9.931h1.401l4.875,8.012v-8.012h1.205v9.931H75.542z"/>
		<path fill="#262625" d="M80.438,496.908v-9.931h1.274v9.931H80.438z"/>
		<path fill="#262625" d="M88.21,488.14v8.769h-1.261v-8.769h-2.956v-1.162h7.172v1.162H88.21z"/>
	</g>
	<g>
		<path fill="#262625" d="M48.229,516.464c-1.307-1.476-2.015-3.622-2.015-5.565c0-1.942,0.708-4.09,2.015-5.564l0.636,0.443
			c-1.151,1.523-1.763,3.143-1.763,5.121c0,1.979,0.612,3.599,1.763,5.121L48.229,516.464z"/>
		<path fill="#262625" d="M53.017,514.761v-7.172l-1.979,1.451v-1.14l2.039-1.476h0.983v8.336H53.017z"/>
		<path fill="#262625" d="M64.392,514.916c-1.907,0-3.106-1.151-3.106-3.273v-5.386h1.067v5.409c0,1.355,0.564,2.255,2.039,2.255
			c1.475,0,2.039-0.899,2.039-2.255v-5.409h1.067v5.386C67.498,513.765,66.299,514.916,64.392,514.916z"/>
		<path fill="#262625" d="M75.466,514.761l-4.173-6.837v6.837h-1.032v-8.504h1.2l4.173,6.86v-6.86h1.032v8.504H75.466z"/>
		<path fill="#262625" d="M79.669,514.761v-8.504h1.091v8.504H79.669z"/>
		<path fill="#262625" d="M86.328,507.253v7.508h-1.08v-7.508h-2.531v-0.996h6.141v0.996H86.328z"/>
		<path fill="#262625" d="M93.937,510.635v-0.924h5.781v0.924H93.937z M93.937,513.153v-0.924h5.781v0.924H93.937z"/>
		<path fill="#262625" d="M111.671,514.761v-7.172l-1.979,1.451v-1.14l2.039-1.476h0.983v8.336H111.671z"/>
		<path fill="#262625" d="M125.229,514.761l-0.696-2.015h-3.694l-0.684,2.015h-1.08l2.999-8.504h1.248l3.01,8.504H125.229z
			 M122.674,507.324l-1.499,4.414h3.01L122.674,507.324z"/>
		<path fill="#262625" d="M133.257,514.761l-1.607-3.538h-2.351v3.538h-1.067v-8.504h3.334c0.995,0,1.691,0.276,2.159,0.756
			c0.408,0.432,0.671,0.983,0.671,1.728c0,0.743-0.24,1.247-0.647,1.679c-0.252,0.264-0.612,0.468-1.02,0.6l1.703,3.742H133.257z
			 M131.566,507.24h-2.267v2.986h2.267c1.007,0,1.727-0.407,1.727-1.486C133.293,507.66,132.573,507.24,131.566,507.24z"/>
		<path fill="#262625" d="M139.222,507.253v7.508h-1.08v-7.508h-2.531v-0.996h6.141v0.996H139.222z"/>
		<path fill="#262625" d="M143.711,514.761v-8.504h1.091v8.504H143.711z"/>
		<path fill="#262625" d="M152.889,514.017c-0.516,0.516-1.355,0.912-2.279,0.912c-0.852,0-1.691-0.312-2.303-0.912
			c-0.923-0.899-1.067-2.146-1.067-3.502s0.144-2.603,1.067-3.502c0.612-0.6,1.451-0.911,2.303-0.911
			c0.923,0,1.751,0.359,2.267,0.875c0.492,0.504,0.804,1.151,0.84,1.943h-1.104c-0.012-0.468-0.192-0.876-0.468-1.188
			c-0.336-0.372-0.888-0.624-1.535-0.624c-0.576,0-1.14,0.229-1.547,0.648c-0.695,0.719-0.719,1.87-0.719,2.758
			s0.024,2.039,0.719,2.759c0.408,0.42,0.972,0.647,1.547,0.647c0.647,0,1.211-0.275,1.547-0.647
			c0.276-0.312,0.456-0.756,0.468-1.224h1.104C153.692,512.842,153.38,513.514,152.889,514.017z"/>
		<path fill="#262625" d="M156.011,514.761v-8.504h1.067v7.508h4.09v0.996H156.011z"/>
		<path fill="#262625" d="M163.139,514.761v-8.504h5.685v0.983h-4.618v2.591h4.054v1.008h-4.054v2.938h4.618v0.983H163.139z"/>
		<path fill="#262625" d="M170.855,516.464l-0.636-0.444c1.151-1.522,1.763-3.142,1.763-5.121c0-1.979-0.612-3.598-1.763-5.121
			l0.636-0.443c1.308,1.475,2.015,3.622,2.015,5.564C172.87,512.842,172.162,514.988,170.855,516.464z"/>
	</g>
	<g>
		<g>
			<g>
				<line fill="none" stroke="#BAA494" stroke-miterlimit="10" x1="20.025" y1="543.14" x2="34.199" y2="557.313"/>
				<line fill="none" stroke="#BAA494" stroke-miterlimit="10" x1="20.025" y1="557.313" x2="34.199" y2="543.14"/>
			</g>
			<g>
				<circle fill="#F4F4F4" cx="27.112" cy="550.226" r="1.417"/>
			</g>
		</g>
		<g>
			<path fill="#272725" d="M51.939,555.787l-4.875-7.984v7.984H45.86v-9.932h1.401l4.875,8.013v-8.013h1.205v9.932H51.939z"/>
			<path fill="#272725" d="M62.803,554.918c-0.714,0.701-1.681,1.065-2.676,1.065s-1.961-0.364-2.675-1.065
				c-1.079-1.05-1.275-2.507-1.275-4.09s0.196-3.04,1.275-4.09c0.714-0.7,1.681-1.064,2.675-1.064s1.961,0.364,2.676,1.064
				c1.079,1.05,1.274,2.507,1.274,4.09S63.882,553.868,62.803,554.918z M61.934,547.607c-0.476-0.49-1.135-0.742-1.807-0.742
				s-1.331,0.252-1.807,0.742c-0.812,0.841-0.854,2.186-0.854,3.222c0,1.037,0.042,2.382,0.854,3.222
				c0.476,0.49,1.134,0.742,1.807,0.742s1.331-0.252,1.807-0.742c0.812-0.84,0.854-2.185,0.854-3.222
				C62.789,549.792,62.747,548.447,61.934,547.607z"/>
			<path fill="#272725" d="M72.994,555.787l-4.875-7.984v7.984h-1.205v-9.932h1.401l4.875,8.013v-8.013h1.205v9.932H72.994z"/>
			<path fill="#272725" d="M77.891,555.787v-9.932h6.64v1.148h-5.393v3.025h4.734v1.177h-4.734v3.433h5.393v1.148H77.891z"/>
		</g>
	</g>
</g>
</svg>
