<?xml version="1.0" encoding="utf-8"?>
<!-- Generator: Adobe Illustrator 17.0.0, SVG Export Plug-In . SVG Version: 6.00 Build 0)  -->
<!DOCTYPE svg PUBLIC "-//W3C//DTD SVG 1.1//EN" "http://www.w3.org/Graphics/SVG/1.1/DTD/svg11.dtd">
<svg version="1.1" id="Livello_1" xmlns="http://www.w3.org/2000/svg" xmlns:xlink="http://www.w3.org/1999/xlink" x="0px" y="0px"
	 width="768px" height="372.289px" viewBox="0 0 768 372.289" enable-background="new 0 0 768 372.289" xml:space="preserve">
<g>
	<path fill="#262625" d="M381.021,75.112c-0.429,0.429-1.027,0.688-1.846,0.688c-0.806,0-1.456-0.26-1.859-0.663
		c-0.403-0.416-0.598-0.949-0.65-1.612h0.936c0.117,0.924,0.598,1.443,1.573,1.443c0.455,0,0.871-0.156,1.144-0.429
		c0.481-0.481,0.507-1.222,0.507-1.885c0-1.132-0.221-2.249-1.56-2.249c-0.806,0-1.352,0.363-1.534,0.909h-0.845v-4.862h4.68v0.832
		h-3.835v2.938c0.364-0.403,0.936-0.637,1.664-0.637c0.689,0,1.235,0.221,1.599,0.585c0.676,0.676,0.767,1.612,0.767,2.483
		C381.762,73.578,381.684,74.449,381.021,75.112z"/>
	<path fill="#262625" d="M386.585,75.788c-1.442,0-2.535-1.015-2.535-2.548v-4.316c0-1.534,1.093-2.548,2.535-2.548
		c1.443,0,2.535,1.014,2.535,2.548v4.316C389.12,74.773,388.028,75.788,386.585,75.788z M388.185,68.975
		c0-1.014-0.572-1.768-1.6-1.768c-1.026,0-1.599,0.754-1.599,1.768v4.212c0,1.015,0.573,1.769,1.599,1.769
		c1.027,0,1.6-0.754,1.6-1.769V68.975z"/>
</g>
<line fill="none" stroke="#262625" stroke-width="0.75" x1="311.921" y1="103.97" x2="320.994" y2="103.97"/>
<line fill="none" stroke="#262625" stroke-width="0.75" x1="311.921" y1="112.197" x2="320.994" y2="112.197"/>
<line fill="none" stroke="#262625" stroke-width="0.75" x1="311.921" y1="109.454" x2="320.994" y2="109.454"/>
<line fill="none" stroke="#262625" stroke-width="0.75" x1="311.921" y1="106.712" x2="320.994" y2="106.712"/>
<g>
	<path fill="#262625" d="M332.174,112.572l-2.106-4.108h-2.223v4.108h-0.988v-9.256h3.549c1.612,0,2.743,0.975,2.743,2.573
		c0,1.353-0.819,2.236-2.015,2.483l2.197,4.199H332.174z M330.315,104.2h-2.47v3.393h2.47c1.079,0,1.846-0.559,1.846-1.689
		C332.161,104.771,331.394,104.2,330.315,104.2z"/>
	<path fill="#262625" d="M336.45,109.621c0,1.404,0.663,2.21,1.885,2.21c0.741,0,1.17-0.221,1.677-0.728l0.637,0.559
		c-0.65,0.65-1.248,0.988-2.34,0.988c-1.69,0-2.795-1.014-2.795-3.276c0-2.067,1.001-3.276,2.626-3.276
		c1.651,0,2.626,1.196,2.626,3.095v0.429H336.45z M339.635,107.853c-0.247-0.586-0.819-0.963-1.495-0.963
		c-0.676,0-1.248,0.377-1.495,0.963c-0.143,0.351-0.169,0.546-0.195,1.065h3.38C339.805,108.399,339.778,108.204,339.635,107.853z"
		/>
	<path fill="#262625" d="M347.02,112.572v-0.611c-0.52,0.521-0.988,0.689-1.846,0.689c-0.884,0-1.404-0.169-1.807-0.585
		c-0.312-0.312-0.481-0.793-0.481-1.3c0-1.118,0.78-1.847,2.21-1.847h1.924v-0.61c0-0.937-0.468-1.404-1.638-1.404
		c-0.819,0-1.235,0.194-1.612,0.728l-0.637-0.585c0.572-0.741,1.222-0.949,2.262-0.949c1.716,0,2.562,0.741,2.562,2.133v4.342
		H347.02z M347.02,109.621h-1.794c-0.962,0-1.43,0.39-1.43,1.131s0.455,1.092,1.469,1.092c0.546,0,1.027-0.038,1.43-0.429
		c0.221-0.208,0.325-0.572,0.325-1.104V109.621z"/>
	<path fill="#262625" d="M354.702,112.572v-0.767c-0.52,0.676-1.118,0.845-1.82,0.845c-0.65,0-1.222-0.221-1.561-0.56
		c-0.65-0.649-0.78-1.716-0.78-2.717s0.13-2.067,0.78-2.717c0.338-0.338,0.91-0.56,1.561-0.56c0.702,0,1.287,0.156,1.807,0.819
		v-3.601h0.936v9.256H354.702z M353.09,106.929c-1.391,0-1.612,1.196-1.612,2.444s0.221,2.444,1.612,2.444
		c1.391,0,1.599-1.196,1.599-2.444S354.481,106.929,353.09,106.929z"/>
	<path fill="#262625" d="M366.116,112.572v-0.611c-0.52,0.521-0.988,0.689-1.846,0.689c-0.884,0-1.404-0.169-1.807-0.585
		c-0.312-0.312-0.481-0.793-0.481-1.3c0-1.118,0.78-1.847,2.21-1.847h1.924v-0.61c0-0.937-0.468-1.404-1.638-1.404
		c-0.819,0-1.235,0.194-1.612,0.728l-0.637-0.585c0.572-0.741,1.222-0.949,2.262-0.949c1.716,0,2.562,0.741,2.562,2.133v4.342
		H366.116z M366.116,109.621h-1.794c-0.962,0-1.43,0.39-1.43,1.131s0.455,1.092,1.469,1.092c0.546,0,1.027-0.038,1.43-0.429
		c0.221-0.208,0.325-0.572,0.325-1.104V109.621z"/>
	<path fill="#262625" d="M371.576,112.572c-1.118,0-1.625-0.729-1.625-1.703v-7.553h0.936v7.514c0,0.624,0.208,0.937,0.858,0.937
		h0.507v0.806H371.576z"/>
	<path fill="#262625" d="M376.074,112.572c-1.118,0-1.625-0.729-1.625-1.703v-7.553h0.936v7.514c0,0.624,0.208,0.937,0.858,0.937
		h0.507v0.806H376.074z"/>
	<path fill="#262625" d="M384.654,112.572c-1.092,0-1.638-0.767-1.638-1.716v-3.927h-0.806v-0.715h0.806v-2.002h0.936v2.002h1.365
		v0.715h-1.365v3.9c0,0.585,0.273,0.937,0.871,0.937h0.494v0.806H384.654z"/>
	<path fill="#262625" d="M391.921,112.572v-3.952c0-1.118-0.599-1.69-1.561-1.69s-1.599,0.585-1.599,1.69v3.952h-0.937v-9.256h0.937
		v3.562c0.468-0.533,1.079-0.78,1.794-0.78c1.443,0,2.301,0.924,2.301,2.366v4.108H391.921z"/>
	<path fill="#262625" d="M396.366,109.621c0,1.404,0.663,2.21,1.886,2.21c0.741,0,1.17-0.221,1.677-0.728l0.637,0.559
		c-0.649,0.65-1.248,0.988-2.34,0.988c-1.689,0-2.795-1.014-2.795-3.276c0-2.067,1.001-3.276,2.626-3.276
		c1.651,0,2.626,1.196,2.626,3.095v0.429H396.366z M399.552,107.853c-0.247-0.586-0.819-0.963-1.495-0.963s-1.248,0.377-1.495,0.963
		c-0.143,0.351-0.169,0.546-0.195,1.065h3.381C399.721,108.399,399.694,108.204,399.552,107.853z"/>
	<path fill="#262625" d="M410.823,112.572v-0.611c-0.521,0.521-0.988,0.689-1.847,0.689c-0.884,0-1.404-0.169-1.807-0.585
		c-0.312-0.312-0.481-0.793-0.481-1.3c0-1.118,0.78-1.847,2.21-1.847h1.925v-0.61c0-0.937-0.469-1.404-1.639-1.404
		c-0.818,0-1.234,0.194-1.612,0.728l-0.637-0.585c0.572-0.741,1.223-0.949,2.263-0.949c1.716,0,2.561,0.741,2.561,2.133v4.342
		H410.823z M410.823,109.621h-1.795c-0.962,0-1.43,0.39-1.43,1.131s0.455,1.092,1.469,1.092c0.547,0,1.027-0.038,1.431-0.429
		c0.221-0.208,0.325-0.572,0.325-1.104V109.621z"/>
	<path fill="#262625" d="M418.259,107.398c-0.352-0.352-0.611-0.469-1.105-0.469c-0.936,0-1.534,0.741-1.534,1.717v3.926h-0.936
		v-6.396h0.936v0.78c0.352-0.533,1.054-0.858,1.795-0.858c0.61,0,1.078,0.144,1.533,0.599L418.259,107.398z"/>
	<path fill="#262625" d="M422.601,112.572c-1.092,0-1.638-0.767-1.638-1.716v-3.927h-0.807v-0.715h0.807v-2.002h0.936v2.002h1.365
		v0.715h-1.365v3.9c0,0.585,0.273,0.937,0.871,0.937h0.494v0.806H422.601z"/>
	<path fill="#262625" d="M425.721,104.355v-1.053h1.053v1.053H425.721z M425.772,112.572v-6.396h0.936v6.396H425.772z"/>
	<path fill="#262625" d="M432.194,112.65c-1.612,0-2.835-1.092-2.835-3.276c0-2.184,1.223-3.276,2.835-3.276
		c0.884,0,1.442,0.234,2.105,0.949l-0.637,0.599c-0.481-0.533-0.858-0.716-1.469-0.716c-0.624,0-1.145,0.247-1.482,0.729
		c-0.299,0.416-0.416,0.91-0.416,1.716s0.117,1.3,0.416,1.716c0.338,0.481,0.858,0.729,1.482,0.729c0.61,0,0.987-0.195,1.469-0.729
		l0.637,0.611C433.637,112.416,433.078,112.65,432.194,112.65z"/>
	<path fill="#262625" d="M438.33,112.572c-1.118,0-1.625-0.729-1.625-1.703v-7.553h0.936v7.514c0,0.624,0.208,0.937,0.858,0.937
		h0.507v0.806H438.33z"/>
	<path fill="#262625" d="M441.488,109.621c0,1.404,0.663,2.21,1.886,2.21c0.741,0,1.17-0.221,1.677-0.728l0.637,0.559
		c-0.649,0.65-1.248,0.988-2.34,0.988c-1.689,0-2.795-1.014-2.795-3.276c0-2.067,1.001-3.276,2.626-3.276
		c1.651,0,2.626,1.196,2.626,3.095v0.429H441.488z M444.674,107.853c-0.247-0.586-0.819-0.963-1.495-0.963s-1.248,0.377-1.495,0.963
		c-0.143,0.351-0.169,0.546-0.195,1.065h3.381C444.843,108.399,444.816,108.204,444.674,107.853z"/>
	<path fill="#262625" d="M450.446,112.65c-1.079,0-1.924-0.247-2.626-0.923l0.624-0.624c0.507,0.533,1.195,0.74,1.989,0.74
		c1.053,0,1.702-0.377,1.702-1.131c0-0.559-0.324-0.871-1.065-0.936l-1.053-0.091c-1.248-0.104-1.911-0.663-1.911-1.717
		c0-1.17,0.987-1.872,2.353-1.872c0.91,0,1.729,0.222,2.301,0.689l-0.61,0.611c-0.455-0.352-1.04-0.508-1.703-0.508
		c-0.937,0-1.431,0.403-1.431,1.054c0,0.546,0.312,0.871,1.118,0.936l1.027,0.091c1.118,0.104,1.885,0.533,1.885,1.729
		C453.046,111.935,451.993,112.65,450.446,112.65z"/>
</g>
<line fill="none" stroke="#BAA494" stroke-width="0.75" x1="309.242" y1="131.045" x2="456.867" y2="131.372"/>
<line fill="none" stroke="#BAA494" stroke-width="0.75" x1="160.867" y1="191.871" x2="457.242" y2="191.871"/>
<g opacity="0.75">
	<g>
		<defs>
			<rect id="SVGID_1_" x="400.828" y="59.16" width="56.141" height="19.392"/>
		</defs>
		<clipPath id="SVGID_2_">
			<use xlink:href="#SVGID_1_"  overflow="visible"/>
		</clipPath>
		<g clip-path="url(#SVGID_2_)">
			<text transform="matrix(1 0 0 1 409.8276 74.945)"><tspan x="0" y="0" fill="#AE1821" font-family="'DINPro-Regular'" font-size="11">M</tspan><tspan x="9.526" y="0" fill="#AE1821" font-family="'DINPro-Regular'" font-size="11">o</tspan><tspan x="15.895" y="0" fill="#AE1821" font-family="'DINPro-Regular'" font-size="11">z</tspan></text>
		</g>
	</g>
</g>
<g opacity="0.75">
	<g>
		<defs>
			<rect id="SVGID_3_" x="398.923" y="59.293" width="12.235" height="23.669"/>
		</defs>
		<clipPath id="SVGID_4_">
			<use xlink:href="#SVGID_3_"  overflow="visible"/>
		</clipPath>
		<polygon clip-path="url(#SVGID_4_)" fill="#AE1821" points="404.157,71.127 399.922,68.292 399.922,73.962 		"/>
	</g>
</g>
<g opacity="0.75">
	<g>
		<defs>
			<rect id="SVGID_5_" x="373.867" y="112.659" width="18.75" height="19.339"/>
		</defs>
		<clipPath id="SVGID_6_">
			<use xlink:href="#SVGID_5_"  overflow="visible"/>
		</clipPath>
		
			<line clip-path="url(#SVGID_6_)" fill="none" stroke="#BAA494" stroke-width="0.75" x1="383.242" y1="119.659" x2="383.242" y2="130.998"/>
	</g>
</g>
<g opacity="0.75">
	<g>
		<defs>
			<rect id="SVGID_7_" x="373.492" y="41.769" width="18.75" height="19.339"/>
		</defs>
		<clipPath id="SVGID_8_">
			<use xlink:href="#SVGID_7_"  overflow="visible"/>
		</clipPath>
		
			<line clip-path="url(#SVGID_8_)" fill="none" stroke="#BAA494" stroke-width="0.75" x1="382.867" y1="48.769" x2="382.867" y2="60.108"/>
	</g>
</g>
<g opacity="0.75">
	<g>
		<defs>
			<rect id="SVGID_9_" x="373.492" y="77.214" width="18.75" height="19.338"/>
		</defs>
		<clipPath id="SVGID_10_">
			<use xlink:href="#SVGID_9_"  overflow="visible"/>
		</clipPath>
		
			<line clip-path="url(#SVGID_10_)" fill="none" stroke="#BAA494" stroke-width="0.75" x1="382.867" y1="84.214" x2="382.867" y2="95.553"/>
	</g>
</g>
<g opacity="0.75">
	<g>
		<defs>
			<rect id="SVGID_11_" x="300.015" y="173.158" width="18.75" height="19.338"/>
		</defs>
		<clipPath id="SVGID_12_">
			<use xlink:href="#SVGID_11_"  overflow="visible"/>
		</clipPath>
		
			<line clip-path="url(#SVGID_12_)" fill="none" stroke="#BAA494" stroke-width="0.75" x1="309.39" y1="180.158" x2="309.39" y2="191.497"/>
	</g>
</g>
<line fill="none" stroke="#262625" stroke-width="0.663" stroke-miterlimit="10" x1="329.876" y1="21.418" x2="435.357" y2="21.418"/>
<g>
	<path fill="#262625" d="M338.157,19.663v-7.033l-2.535,5.577h-0.845l-2.574-5.577v7.033h-0.988v-9.257h0.988l3.016,6.565
		l2.938-6.565h0.988v9.257H338.157z"/>
	<path fill="#262625" d="M342.239,11.447v-1.054h1.053v1.054H342.239z M342.291,19.663v-6.396h0.936v6.396H342.291z"/>
	<path fill="#262625" d="M347.829,19.663c-1.118,0-1.625-0.728-1.625-1.703v-7.554h0.936v7.515c0,0.624,0.208,0.937,0.858,0.937
		h0.507v0.806H347.829z"/>
	<path fill="#262625" d="M354.94,19.663l-2.028-3.276l-1.248,1.431v1.846h-0.936v-9.257h0.936v6.188l2.886-3.328h1.17l-2.171,2.444
		l2.548,3.952H354.94z"/>
	<path fill="#262625" d="M364.274,22.601c-0.962,0-1.495-0.247-2.171-0.858l0.611-0.598c0.468,0.416,0.793,0.637,1.534,0.637
		c1.235,0,1.755-0.871,1.755-1.963v-1.001c-0.52,0.663-1.105,0.832-1.794,0.832c-0.65,0-1.209-0.234-1.547-0.572
		c-0.637-0.637-0.78-1.625-0.78-2.665s0.143-2.028,0.78-2.665c0.338-0.338,0.91-0.56,1.561-0.56c0.702,0,1.274,0.156,1.794,0.832
		v-0.754h0.923v6.592C366.939,21.444,365.951,22.601,364.274,22.601z M364.417,14.02c-1.391,0-1.599,1.196-1.599,2.393
		s0.208,2.392,1.599,2.392s1.586-1.195,1.586-2.392S365.808,14.02,364.417,14.02z"/>
	<path fill="#262625" d="M374.024,19.012c-0.442,0.442-1.053,0.729-1.833,0.729c-0.78,0-1.391-0.286-1.833-0.729
		c-0.65-0.663-0.78-1.56-0.78-2.548s0.13-1.885,0.78-2.548c0.442-0.442,1.053-0.729,1.833-0.729c0.78,0,1.391,0.286,1.833,0.729
		c0.65,0.663,0.78,1.56,0.78,2.548S374.674,18.349,374.024,19.012z M373.361,14.489c-0.299-0.3-0.715-0.469-1.17-0.469
		s-0.858,0.169-1.157,0.469c-0.468,0.468-0.52,1.261-0.52,1.976s0.052,1.508,0.52,1.977c0.299,0.299,0.702,0.468,1.157,0.468
		s0.871-0.169,1.17-0.468c0.468-0.469,0.507-1.262,0.507-1.977S373.829,14.957,373.361,14.489z"/>
	<path fill="#262625" d="M381.551,19.012c-0.442,0.442-1.053,0.729-1.833,0.729c-0.78,0-1.391-0.286-1.833-0.729
		c-0.65-0.663-0.78-1.56-0.78-2.548s0.13-1.885,0.78-2.548c0.442-0.442,1.053-0.729,1.833-0.729c0.78,0,1.391,0.286,1.833,0.729
		c0.65,0.663,0.78,1.56,0.78,2.548S382.201,18.349,381.551,19.012z M380.888,14.489c-0.299-0.3-0.715-0.469-1.17-0.469
		c-0.455,0-0.858,0.169-1.157,0.469c-0.468,0.468-0.52,1.261-0.52,1.976s0.052,1.508,0.52,1.977
		c0.299,0.299,0.702,0.468,1.157,0.468c0.455,0,0.871-0.169,1.17-0.468c0.468-0.469,0.507-1.262,0.507-1.977
		S381.355,14.957,380.888,14.489z"/>
	<path fill="#262625" d="M388.805,19.663v-0.767c-0.52,0.676-1.118,0.845-1.819,0.845c-0.65,0-1.223-0.221-1.561-0.56
		c-0.65-0.649-0.78-1.716-0.78-2.717s0.13-2.067,0.78-2.717c0.338-0.338,0.91-0.56,1.561-0.56c0.701,0,1.286,0.156,1.807,0.819
		v-3.602h0.936v9.257H388.805z M387.193,14.02c-1.392,0-1.612,1.196-1.612,2.444s0.221,2.444,1.612,2.444
		c1.391,0,1.599-1.196,1.599-2.444S388.584,14.02,387.193,14.02z"/>
	<path fill="#262625" d="M400.7,19.012c-0.442,0.442-1.054,0.729-1.833,0.729c-0.78,0-1.392-0.286-1.833-0.729
		c-0.65-0.663-0.78-1.56-0.78-2.548s0.13-1.885,0.78-2.548c0.441-0.442,1.053-0.729,1.833-0.729c0.779,0,1.391,0.286,1.833,0.729
		c0.649,0.663,0.779,1.56,0.779,2.548S401.35,18.349,400.7,19.012z M400.037,14.489c-0.299-0.3-0.715-0.469-1.17-0.469
		s-0.858,0.169-1.157,0.469c-0.468,0.468-0.521,1.261-0.521,1.976s0.053,1.508,0.521,1.977c0.299,0.299,0.702,0.468,1.157,0.468
		s0.871-0.169,1.17-0.468c0.468-0.469,0.507-1.262,0.507-1.977S400.505,14.957,400.037,14.489z"/>
	<path fill="#262625" d="M407.693,14.489c-0.351-0.352-0.61-0.469-1.104-0.469c-0.937,0-1.534,0.741-1.534,1.717v3.926h-0.937
		v-6.396h0.937v0.78c0.351-0.533,1.053-0.858,1.794-0.858c0.611,0,1.079,0.144,1.534,0.599L407.693,14.489z"/>
	<path fill="#262625" d="M418.419,19.181c-0.338,0.339-0.91,0.56-1.561,0.56c-0.702,0-1.287-0.169-1.807-0.845v0.767h-0.937v-9.257
		h0.937v3.602c0.52-0.663,1.104-0.819,1.807-0.819c0.65,0,1.223,0.222,1.561,0.56c0.649,0.649,0.78,1.716,0.78,2.717
		S419.068,18.532,418.419,19.181z M416.664,14.02c-1.392,0-1.612,1.196-1.612,2.444s0.221,2.444,1.612,2.444
		c1.391,0,1.599-1.196,1.599-2.444S418.055,14.02,416.664,14.02z"/>
	<path fill="#262625" d="M425.478,19.663v-0.611c-0.52,0.521-0.988,0.689-1.846,0.689c-0.885,0-1.404-0.169-1.808-0.585
		c-0.312-0.312-0.48-0.793-0.48-1.3c0-1.118,0.779-1.847,2.21-1.847h1.924v-0.611c0-0.936-0.468-1.403-1.638-1.403
		c-0.819,0-1.235,0.194-1.612,0.728l-0.637-0.585c0.571-0.741,1.222-0.949,2.262-0.949c1.716,0,2.562,0.741,2.562,2.133v4.342
		H425.478z M425.478,16.711h-1.794c-0.962,0-1.43,0.39-1.43,1.131s0.455,1.093,1.469,1.093c0.546,0,1.027-0.039,1.43-0.43
		c0.222-0.208,0.325-0.572,0.325-1.104V16.711z"/>
	<path fill="#262625" d="M433.16,19.663v-0.767c-0.52,0.676-1.118,0.845-1.819,0.845c-0.65,0-1.223-0.221-1.561-0.56
		c-0.65-0.649-0.78-1.716-0.78-2.717s0.13-2.067,0.78-2.717c0.338-0.338,0.91-0.56,1.561-0.56c0.701,0,1.286,0.156,1.807,0.819
		v-3.602h0.936v9.257H433.16z M431.549,14.02c-1.392,0-1.612,1.196-1.612,2.444s0.221,2.444,1.612,2.444
		c1.391,0,1.599-1.196,1.599-2.444S432.939,14.02,431.549,14.02z"/>
</g>
<g>
	<path fill="#262625" d="M332.789,34.613c-0.442,0.442-1.053,0.729-1.833,0.729c-0.78,0-1.391-0.286-1.833-0.729
		c-0.65-0.663-0.78-1.56-0.78-2.548s0.13-1.885,0.78-2.548c0.442-0.442,1.053-0.729,1.833-0.729c0.78,0,1.391,0.286,1.833,0.729
		c0.65,0.663,0.78,1.56,0.78,2.548S333.438,33.95,332.789,34.613z M332.125,30.089c-0.299-0.3-0.715-0.469-1.17-0.469
		s-0.858,0.169-1.157,0.469c-0.468,0.468-0.52,1.261-0.52,1.976s0.052,1.508,0.52,1.977c0.299,0.299,0.702,0.468,1.157,0.468
		s0.871-0.169,1.17-0.468c0.468-0.469,0.507-1.262,0.507-1.977S332.593,30.557,332.125,30.089z"/>
	<path fill="#262625" d="M340.302,35.263v-3.939c0-1.131-0.611-1.703-1.573-1.703c-0.962,0-1.586,0.585-1.586,1.703v3.939h-0.936
		v-6.396h0.936v0.702c0.455-0.52,1.079-0.78,1.794-0.78c0.689,0,1.248,0.208,1.638,0.599c0.455,0.441,0.663,1.04,0.663,1.781v4.095
		H340.302z"/>
	<path fill="#262625" d="M353.562,34.275c-0.65,0.702-1.521,1.066-2.47,1.066c-0.91,0-1.742-0.338-2.366-0.962
		c-0.871-0.871-0.871-1.781-0.871-3.744s0-2.873,0.871-3.744c0.624-0.624,1.443-0.962,2.366-0.962c1.768,0,2.964,1.144,3.237,2.769
		h-0.988c-0.26-1.17-1.092-1.885-2.249-1.885c-0.611,0-1.196,0.247-1.599,0.663c-0.585,0.598-0.65,1.222-0.65,3.159
		c0,1.937,0.065,2.574,0.65,3.172c0.403,0.416,0.988,0.65,1.599,0.65c0.676,0,1.326-0.273,1.755-0.793
		c0.377-0.455,0.521-0.963,0.521-1.678v-0.702h-2.275v-0.871h3.263v1.47C354.355,32.949,354.134,33.665,353.562,34.275z"/>
	<path fill="#262625" d="M361.245,34.613c-0.442,0.442-1.053,0.729-1.833,0.729c-0.78,0-1.391-0.286-1.833-0.729
		c-0.65-0.663-0.78-1.56-0.78-2.548s0.13-1.885,0.78-2.548c0.442-0.442,1.053-0.729,1.833-0.729c0.78,0,1.391,0.286,1.833,0.729
		c0.65,0.663,0.78,1.56,0.78,2.548S361.895,33.95,361.245,34.613z M360.582,30.089c-0.299-0.3-0.715-0.469-1.17-0.469
		c-0.455,0-0.858,0.169-1.157,0.469c-0.468,0.468-0.52,1.261-0.52,1.976s0.052,1.508,0.52,1.977
		c0.299,0.299,0.702,0.468,1.157,0.468c0.455,0,0.871-0.169,1.17-0.468c0.468-0.469,0.507-1.262,0.507-1.977
		S361.05,30.557,360.582,30.089z"/>
	<path fill="#262625" d="M368.772,34.613c-0.442,0.442-1.053,0.729-1.833,0.729c-0.78,0-1.391-0.286-1.833-0.729
		c-0.65-0.663-0.78-1.56-0.78-2.548s0.13-1.885,0.78-2.548c0.442-0.442,1.053-0.729,1.833-0.729c0.78,0,1.391,0.286,1.833,0.729
		c0.65,0.663,0.78,1.56,0.78,2.548S369.422,33.95,368.772,34.613z M368.109,30.089c-0.299-0.3-0.715-0.469-1.17-0.469
		c-0.455,0-0.858,0.169-1.157,0.469c-0.468,0.468-0.52,1.261-0.52,1.976s0.052,1.508,0.52,1.977
		c0.299,0.299,0.702,0.468,1.157,0.468c0.455,0,0.871-0.169,1.17-0.468c0.468-0.469,0.507-1.262,0.507-1.977
		S368.577,30.557,368.109,30.089z"/>
	<path fill="#262625" d="M374.245,38.202c-0.962,0-1.495-0.247-2.171-0.858l0.611-0.598c0.468,0.416,0.793,0.637,1.534,0.637
		c1.235,0,1.755-0.871,1.755-1.963v-1.001c-0.52,0.663-1.105,0.832-1.794,0.832c-0.65,0-1.209-0.234-1.547-0.572
		c-0.637-0.637-0.78-1.625-0.78-2.665s0.143-2.028,0.78-2.665c0.338-0.338,0.91-0.56,1.56-0.56c0.702,0,1.274,0.156,1.794,0.832
		v-0.754h0.923v6.592C376.91,37.044,375.922,38.202,374.245,38.202z M374.388,29.621c-1.391,0-1.599,1.196-1.599,2.393
		s0.208,2.392,1.599,2.392s1.586-1.195,1.586-2.392S375.779,29.621,374.388,29.621z"/>
	<path fill="#262625" d="M381.486,35.263c-1.118,0-1.625-0.729-1.625-1.703v-7.553h0.936v7.514c0,0.624,0.208,0.937,0.858,0.937
		h0.507v0.806H381.486z"/>
	<path fill="#262625" d="M384.658,32.312c0,1.404,0.664,2.21,1.885,2.21c0.741,0,1.17-0.221,1.678-0.728l0.637,0.559
		c-0.65,0.65-1.248,0.988-2.34,0.988c-1.691,0-2.796-1.014-2.796-3.276c0-2.067,1.001-3.276,2.627-3.276
		c1.65,0,2.626,1.196,2.626,3.095v0.429H384.658z M387.844,30.544c-0.247-0.586-0.819-0.963-1.495-0.963
		c-0.677,0-1.248,0.377-1.496,0.963c-0.143,0.351-0.169,0.546-0.195,1.065h3.38C388.013,31.09,387.986,30.895,387.844,30.544z"/>
	<path fill="#262625" d="M398.022,35.341c-1.392,0-2.302-0.352-3.173-1.223l0.677-0.676c0.767,0.768,1.481,1.015,2.521,1.015
		c1.353,0,2.185-0.638,2.185-1.717c0-0.48-0.144-0.896-0.442-1.156c-0.299-0.261-0.533-0.339-1.209-0.442l-1.079-0.169
		c-0.728-0.117-1.3-0.352-1.703-0.702c-0.468-0.416-0.702-0.988-0.702-1.729c0-1.572,1.132-2.612,2.965-2.612
		c1.183,0,1.963,0.299,2.756,1.014l-0.637,0.637c-0.572-0.52-1.184-0.793-2.158-0.793c-1.235,0-1.95,0.689-1.95,1.717
		c0,0.454,0.13,0.818,0.416,1.065s0.767,0.429,1.248,0.507l1.014,0.156c0.871,0.13,1.3,0.312,1.69,0.65
		c0.507,0.429,0.78,1.065,0.78,1.833C401.221,34.34,399.946,35.341,398.022,35.341z"/>
	<path fill="#262625" d="M404.353,32.312c0,1.404,0.663,2.21,1.886,2.21c0.741,0,1.17-0.221,1.677-0.728l0.637,0.559
		c-0.649,0.65-1.248,0.988-2.34,0.988c-1.689,0-2.795-1.014-2.795-3.276c0-2.067,1.001-3.276,2.626-3.276
		c1.651,0,2.626,1.196,2.626,3.095v0.429H404.353z M407.538,30.544c-0.247-0.586-0.819-0.963-1.495-0.963s-1.248,0.377-1.495,0.963
		c-0.143,0.351-0.169,0.546-0.195,1.065h3.381C407.707,31.09,407.681,30.895,407.538,30.544z"/>
	<path fill="#262625" d="M414.936,35.263v-0.611c-0.521,0.521-0.988,0.689-1.847,0.689c-0.884,0-1.404-0.169-1.807-0.585
		c-0.312-0.312-0.481-0.793-0.481-1.3c0-1.118,0.78-1.847,2.21-1.847h1.925V31c0-0.937-0.469-1.404-1.639-1.404
		c-0.818,0-1.234,0.194-1.612,0.728l-0.637-0.585c0.572-0.741,1.223-0.949,2.263-0.949c1.716,0,2.561,0.741,2.561,2.133v4.342
		H414.936z M414.936,32.312h-1.795c-0.962,0-1.43,0.39-1.43,1.131s0.455,1.092,1.469,1.092c0.547,0,1.027-0.038,1.431-0.429
		c0.221-0.208,0.325-0.572,0.325-1.104V32.312z"/>
	<path fill="#262625" d="M422.371,30.089c-0.352-0.352-0.611-0.469-1.105-0.469c-0.936,0-1.534,0.741-1.534,1.717v3.926h-0.936
		v-6.396h0.936v0.78c0.352-0.533,1.054-0.858,1.795-0.858c0.61,0,1.078,0.144,1.533,0.599L422.371,30.089z"/>
	<path fill="#262625" d="M426.96,35.341c-1.612,0-2.834-1.092-2.834-3.276c0-2.184,1.222-3.276,2.834-3.276
		c0.884,0,1.443,0.234,2.106,0.949l-0.638,0.599c-0.48-0.533-0.857-0.716-1.469-0.716c-0.624,0-1.144,0.247-1.482,0.729
		c-0.299,0.416-0.416,0.91-0.416,1.716s0.117,1.3,0.416,1.716c0.339,0.481,0.858,0.729,1.482,0.729c0.611,0,0.988-0.195,1.469-0.729
		l0.638,0.611C428.403,35.107,427.844,35.341,426.96,35.341z"/>
	<path fill="#262625" d="M435.592,35.263v-3.952c0-1.118-0.599-1.69-1.561-1.69s-1.599,0.585-1.599,1.69v3.952h-0.937v-9.256h0.937
		v3.562c0.468-0.533,1.079-0.78,1.794-0.78c1.443,0,2.301,0.924,2.301,2.366v4.108H435.592z"/>
</g>
<path fill="none" stroke="#AE1821" stroke-width="0.75" stroke-miterlimit="10" d="M244.076,2.27c0,0-2.835,0-2.835,2.835V39.89
	c0,0,0,2.834,2.835,2.834h277.581c0,0,2.834,0,2.834-2.834V5.105c0,0,0-2.835-2.834-2.835H244.076z"/>
<g opacity="0.75">
	<g>
		<path fill="#262625" d="M284.333,156.284h-2.457v3.81h-0.988v-9.256h3.445c1.69,0,2.86,1.053,2.86,2.717
			S286.023,156.284,284.333,156.284z M284.243,151.721h-2.366v3.679h2.366c1.157,0,1.963-0.624,1.963-1.846
			C286.206,152.332,285.399,151.721,284.243,151.721z"/>
		<path fill="#262625" d="M293.538,159.443c-0.442,0.442-1.053,0.729-1.833,0.729c-0.78,0-1.391-0.286-1.833-0.729
			c-0.65-0.663-0.78-1.56-0.78-2.548s0.13-1.885,0.78-2.548c0.442-0.442,1.053-0.729,1.833-0.729c0.78,0,1.391,0.286,1.833,0.729
			c0.65,0.663,0.78,1.56,0.78,2.548S294.188,158.78,293.538,159.443z M292.875,154.919c-0.299-0.3-0.715-0.469-1.17-0.469
			s-0.858,0.169-1.157,0.469c-0.468,0.468-0.52,1.261-0.52,1.976s0.052,1.508,0.52,1.977c0.299,0.299,0.702,0.468,1.157,0.468
			s0.871-0.169,1.17-0.468c0.468-0.469,0.507-1.262,0.507-1.977S293.342,155.387,292.875,154.919z"/>
		<path fill="#262625" d="M298.971,160.171c-1.079,0-1.924-0.247-2.626-0.923l0.624-0.624c0.507,0.533,1.196,0.74,1.989,0.74
			c1.053,0,1.703-0.377,1.703-1.131c0-0.559-0.325-0.871-1.066-0.936l-1.053-0.091c-1.248-0.104-1.911-0.663-1.911-1.717
			c0-1.17,0.988-1.872,2.353-1.872c0.91,0,1.729,0.222,2.301,0.689l-0.611,0.611c-0.455-0.352-1.04-0.508-1.703-0.508
			c-0.936,0-1.43,0.403-1.43,1.054c0,0.546,0.312,0.871,1.118,0.936l1.027,0.091c1.118,0.104,1.885,0.533,1.885,1.729
			C301.571,159.457,300.518,160.171,298.971,160.171z"/>
		<path fill="#262625" d="M304.002,151.876v-1.053h1.053v1.053H304.002z M304.054,160.093v-6.396h0.936v6.396H304.054z"/>
		<path fill="#262625" d="M309.787,160.093c-1.092,0-1.638-0.767-1.638-1.716v-3.927h-0.806v-0.715h0.806v-2.002h0.936v2.002h1.365
			v0.715h-1.365v3.9c0,0.585,0.273,0.937,0.871,0.937h0.494v0.806H309.787z"/>
		<path fill="#262625" d="M312.907,151.876v-1.053h1.053v1.053H312.907z M312.958,160.093v-6.396h0.936v6.396H312.958z"/>
		<path fill="#262625" d="M321.006,159.443c-0.442,0.442-1.053,0.729-1.833,0.729c-0.78,0-1.391-0.286-1.833-0.729
			c-0.65-0.663-0.78-1.56-0.78-2.548s0.13-1.885,0.78-2.548c0.442-0.442,1.053-0.729,1.833-0.729c0.78,0,1.391,0.286,1.833,0.729
			c0.65,0.663,0.78,1.56,0.78,2.548S321.656,158.78,321.006,159.443z M320.343,154.919c-0.299-0.3-0.715-0.469-1.17-0.469
			c-0.455,0-0.858,0.169-1.157,0.469c-0.468,0.468-0.52,1.261-0.52,1.976s0.052,1.508,0.52,1.977
			c0.299,0.299,0.702,0.468,1.157,0.468c0.455,0,0.871-0.169,1.17-0.468c0.468-0.469,0.507-1.262,0.507-1.977
			S320.811,155.387,320.343,154.919z"/>
		<path fill="#262625" d="M328.52,160.093v-3.939c0-1.131-0.611-1.703-1.573-1.703c-0.962,0-1.586,0.585-1.586,1.703v3.939h-0.936
			v-6.396h0.936v0.702c0.455-0.52,1.079-0.78,1.794-0.78c0.689,0,1.248,0.208,1.638,0.599c0.455,0.441,0.663,1.04,0.663,1.781v4.095
			H328.52z"/>
		<path fill="#262625" d="M334.382,160.171c-1.079,0-1.924-0.247-2.626-0.923l0.624-0.624c0.507,0.533,1.196,0.74,1.989,0.74
			c1.053,0,1.703-0.377,1.703-1.131c0-0.559-0.325-0.871-1.066-0.936l-1.053-0.091c-1.248-0.104-1.911-0.663-1.911-1.717
			c0-1.17,0.988-1.872,2.353-1.872c0.91,0,1.729,0.222,2.301,0.689l-0.611,0.611c-0.455-0.352-1.04-0.508-1.703-0.508
			c-0.936,0-1.43,0.403-1.43,1.054c0,0.546,0.312,0.871,1.118,0.936l1.027,0.091c1.118,0.104,1.885,0.533,1.885,1.729
			C336.982,159.457,335.929,160.171,334.382,160.171z"/>
	</g>
	<path fill="none" stroke="#AE1821" stroke-width="0.75" stroke-miterlimit="10" d="M244.076,142.384c0,0-2.835,0-2.835,2.835
		v19.818c0,0,0,2.834,2.835,2.834h129.581c0,0,2.834,0,2.834-2.834v-19.818c0,0,0-2.835-2.834-2.835H244.076z"/>
	<rect x="231.867" y="135.009" fill="none" width="154" height="34.237"/>
</g>
<g>
	<path fill="#BAA494" d="M242,265.525v-7.833h0.836v7.085h4.004v0.748H242z"/>
	<path fill="#BAA494" d="M248.666,258.572v-0.891h0.891v0.891H248.666z M248.71,265.525v-5.413h0.792v5.413H248.71z"/>
	<path fill="#BAA494" d="M253.858,265.525h-0.704l-1.98-5.413h0.858l1.474,4.346l1.485-4.346h0.858L253.858,265.525z"/>
	<path fill="#BAA494" d="M257.895,263.028c0,1.188,0.561,1.87,1.595,1.87c0.627,0,0.99-0.188,1.419-0.616l0.539,0.473
		c-0.55,0.551-1.056,0.837-1.98,0.837c-1.43,0-2.366-0.858-2.366-2.772c0-1.75,0.847-2.772,2.223-2.772
		c1.397,0,2.222,1.012,2.222,2.618v0.363H257.895z M260.59,261.532c-0.209-0.495-0.693-0.814-1.265-0.814
		c-0.572,0-1.056,0.319-1.265,0.814c-0.121,0.297-0.143,0.462-0.165,0.901h2.86C260.733,261.994,260.711,261.829,260.59,261.532z"/>
	<path fill="#BAA494" d="M265.474,265.591c-0.913,0-1.628-0.209-2.222-0.781l0.528-0.528c0.429,0.451,1.012,0.627,1.684,0.627
		c0.891,0,1.441-0.319,1.441-0.957c0-0.473-0.275-0.737-0.902-0.792l-0.891-0.077c-1.056-0.088-1.617-0.562-1.617-1.452
		c0-0.99,0.836-1.584,1.991-1.584c0.77,0,1.463,0.187,1.947,0.583l-0.517,0.517c-0.385-0.297-0.88-0.429-1.441-0.429
		c-0.792,0-1.21,0.341-1.21,0.891c0,0.463,0.264,0.737,0.946,0.793l0.869,0.076c0.946,0.089,1.595,0.451,1.595,1.464
		C267.674,264.986,266.783,265.591,265.474,265.591z"/>
	<path fill="#BAA494" d="M271.183,265.525c-0.924,0-1.386-0.649-1.386-1.452v-3.322h-0.682v-0.605h0.682v-1.694h0.792v1.694h1.155
		v0.605h-1.155v3.3c0,0.495,0.231,0.793,0.737,0.793h0.418v0.682H271.183z"/>
	<path fill="#BAA494" d="M277.244,264.975c-0.374,0.374-0.891,0.616-1.551,0.616s-1.177-0.242-1.551-0.616
		c-0.55-0.562-0.66-1.32-0.66-2.156c0-0.837,0.11-1.596,0.66-2.156c0.374-0.374,0.891-0.616,1.551-0.616s1.177,0.242,1.551,0.616
		c0.55,0.561,0.66,1.319,0.66,2.156C277.904,263.655,277.794,264.414,277.244,264.975z M276.683,261.146
		c-0.253-0.253-0.605-0.396-0.99-0.396c-0.385,0-0.726,0.143-0.979,0.396c-0.396,0.396-0.44,1.067-0.44,1.673
		c0,0.604,0.044,1.275,0.44,1.672c0.253,0.253,0.594,0.396,0.979,0.396c0.385,0,0.737-0.144,0.99-0.396
		c0.396-0.396,0.429-1.067,0.429-1.672C277.112,262.213,277.079,261.542,276.683,261.146z"/>
	<path fill="#BAA494" d="M282.237,265.591c-1.364,0-2.398-0.925-2.398-2.772c0-1.849,1.034-2.772,2.398-2.772
		c0.748,0,1.221,0.197,1.782,0.803l-0.539,0.506c-0.407-0.451-0.726-0.604-1.243-0.604c-0.528,0-0.968,0.209-1.254,0.616
		c-0.253,0.352-0.352,0.77-0.352,1.452c0,0.682,0.099,1.1,0.352,1.452c0.286,0.407,0.726,0.616,1.254,0.616
		c0.517,0,0.836-0.165,1.243-0.616l0.539,0.517C283.458,265.393,282.985,265.591,282.237,265.591z"/>
	<path fill="#BAA494" d="M289.641,265.525l-1.716-2.772l-1.056,1.21v1.562h-0.792v-7.833h0.792v5.236l2.442-2.816h0.99l-1.837,2.068
		l2.156,3.345H289.641z"/>
	<path fill="#BAA494" d="M298.87,262.301h-2.08v3.224h-0.836v-7.833h2.916c1.43,0,2.42,0.891,2.42,2.299
		S300.3,262.301,298.87,262.301z M298.792,258.44h-2.002v3.113h2.002c0.979,0,1.661-0.528,1.661-1.562
		S299.771,258.44,298.792,258.44z"/>
	<path fill="#BAA494" d="M306.316,261.146c-0.297-0.297-0.517-0.396-0.935-0.396c-0.792,0-1.298,0.627-1.298,1.452v3.322h-0.792
		v-5.413h0.792v0.66c0.297-0.451,0.891-0.726,1.518-0.726c0.517,0,0.913,0.121,1.298,0.506L306.316,261.146z"/>
	<path fill="#BAA494" d="M311.431,265.525v-0.517c-0.44,0.439-0.836,0.583-1.562,0.583c-0.749,0-1.188-0.144-1.529-0.495
		c-0.264-0.265-0.407-0.672-0.407-1.101c0-0.946,0.66-1.562,1.87-1.562h1.628v-0.517c0-0.792-0.396-1.188-1.386-1.188
		c-0.693,0-1.045,0.165-1.364,0.616l-0.539-0.495c0.484-0.627,1.034-0.803,1.915-0.803c1.452,0,2.167,0.627,2.167,1.804v3.675
		H311.431z M311.431,263.028h-1.518c-0.814,0-1.21,0.33-1.21,0.957s0.385,0.924,1.243,0.924c0.462,0,0.869-0.033,1.21-0.363
		c0.187-0.176,0.275-0.483,0.275-0.935V263.028z"/>
	<path fill="#BAA494" d="M316.799,265.591c-1.364,0-2.398-0.925-2.398-2.772c0-1.849,1.034-2.772,2.398-2.772
		c0.748,0,1.221,0.197,1.782,0.803l-0.539,0.506c-0.407-0.451-0.726-0.604-1.243-0.604c-0.528,0-0.968,0.209-1.254,0.616
		c-0.253,0.352-0.352,0.77-0.352,1.452c0,0.682,0.099,1.1,0.352,1.452c0.286,0.407,0.726,0.616,1.254,0.616
		c0.517,0,0.836-0.165,1.243-0.616l0.539,0.517C318.02,265.393,317.547,265.591,316.799,265.591z"/>
	<path fill="#BAA494" d="M322.156,265.525c-0.924,0-1.386-0.649-1.386-1.452v-3.322h-0.682v-0.605h0.682v-1.694h0.792v1.694h1.155
		v0.605h-1.155v3.3c0,0.495,0.231,0.793,0.737,0.793h0.418v0.682H322.156z"/>
	<path fill="#BAA494" d="M324.795,258.572v-0.891h0.891v0.891H324.795z M324.839,265.525v-5.413h0.792v5.413H324.839z"/>
	<path fill="#BAA494" d="M330.273,265.591c-1.364,0-2.398-0.925-2.398-2.772c0-1.849,1.034-2.772,2.398-2.772
		c0.748,0,1.221,0.197,1.782,0.803l-0.539,0.506c-0.407-0.451-0.726-0.604-1.243-0.604c-0.528,0-0.968,0.209-1.254,0.616
		c-0.253,0.352-0.352,0.77-0.352,1.452c0,0.682,0.099,1.1,0.352,1.452c0.286,0.407,0.726,0.616,1.254,0.616
		c0.517,0,0.836-0.165,1.243-0.616l0.539,0.517C331.495,265.393,331.021,265.591,330.273,265.591z"/>
	<path fill="#BAA494" d="M334.442,263.028c0,1.188,0.561,1.87,1.595,1.87c0.627,0,0.99-0.188,1.419-0.616l0.539,0.473
		c-0.55,0.551-1.056,0.837-1.98,0.837c-1.43,0-2.366-0.858-2.366-2.772c0-1.75,0.847-2.772,2.223-2.772
		c1.397,0,2.222,1.012,2.222,2.618v0.363H334.442z M337.138,261.532c-0.209-0.495-0.693-0.814-1.265-0.814
		c-0.572,0-1.056,0.319-1.265,0.814c-0.121,0.297-0.143,0.462-0.165,0.901h2.86C337.281,261.994,337.259,261.829,337.138,261.532z"
		/>
</g>
<g>
	<path fill="#BAA494" d="M248.083,280.529h-0.781l-1.738-6.271l-1.738,6.271h-0.781l-2.002-7.833h0.892l1.529,6.314l1.728-6.314
		h0.748l1.727,6.314l1.529-6.314h0.891L248.083,280.529z"/>
	<path fill="#BAA494" d="M254.43,280.529v-0.517c-0.44,0.439-0.836,0.583-1.562,0.583c-0.749,0-1.188-0.144-1.529-0.495
		c-0.264-0.265-0.407-0.672-0.407-1.101c0-0.946,0.66-1.562,1.87-1.562h1.628v-0.517c0-0.792-0.396-1.188-1.386-1.188
		c-0.693,0-1.045,0.165-1.364,0.616l-0.539-0.495c0.484-0.627,1.034-0.803,1.915-0.803c1.452,0,2.167,0.627,2.167,1.804v3.675
		H254.43z M254.43,278.032h-1.518c-0.814,0-1.21,0.33-1.21,0.957s0.385,0.924,1.243,0.924c0.462,0,0.869-0.033,1.21-0.363
		c0.187-0.176,0.275-0.483,0.275-0.935V278.032z"/>
	<path fill="#BAA494" d="M259.215,280.529c-0.924,0-1.386-0.649-1.386-1.452v-3.322h-0.682v-0.605h0.682v-1.694h0.792v1.694h1.155
		v0.605h-1.155v3.3c0,0.495,0.231,0.793,0.737,0.793h0.418v0.682H259.215z"/>
	<path fill="#BAA494" d="M262.306,278.032c0,1.188,0.561,1.87,1.595,1.87c0.627,0,0.99-0.188,1.419-0.616l0.539,0.473
		c-0.55,0.551-1.056,0.837-1.98,0.837c-1.43,0-2.366-0.858-2.366-2.772c0-1.75,0.847-2.772,2.223-2.772
		c1.397,0,2.222,1.012,2.222,2.618v0.363H262.306z M265.001,276.536c-0.209-0.495-0.693-0.814-1.265-0.814
		c-0.572,0-1.056,0.319-1.265,0.814c-0.121,0.297-0.143,0.462-0.165,0.901h2.86C265.144,276.998,265.122,276.833,265.001,276.536z"
		/>
	<path fill="#BAA494" d="M271.216,276.15c-0.297-0.297-0.517-0.396-0.935-0.396c-0.792,0-1.298,0.627-1.298,1.452v3.322h-0.792
		v-5.413h0.792v0.66c0.297-0.451,0.891-0.726,1.518-0.726c0.517,0,0.913,0.121,1.298,0.506L271.216,276.15z"/>
	<path fill="#BAA494" d="M282.887,280.529h-0.781l-1.738-6.271l-1.738,6.271h-0.781l-2.002-7.833h0.891l1.529,6.314l1.728-6.314
		h0.748l1.727,6.314l1.529-6.314h0.891L282.887,280.529z"/>
	<path fill="#BAA494" d="M289.233,280.529v-0.517c-0.44,0.439-0.836,0.583-1.562,0.583c-0.749,0-1.188-0.144-1.529-0.495
		c-0.264-0.265-0.407-0.672-0.407-1.101c0-0.946,0.66-1.562,1.87-1.562h1.628v-0.517c0-0.792-0.396-1.188-1.386-1.188
		c-0.693,0-1.045,0.165-1.364,0.616l-0.539-0.495c0.484-0.627,1.034-0.803,1.915-0.803c1.452,0,2.167,0.627,2.167,1.804v3.675
		H289.233z M289.233,278.032h-1.518c-0.814,0-1.21,0.33-1.21,0.957s0.385,0.924,1.243,0.924c0.462,0,0.869-0.033,1.21-0.363
		c0.187-0.176,0.275-0.483,0.275-0.935V278.032z"/>
	<path fill="#BAA494" d="M294.205,280.595c-0.913,0-1.628-0.209-2.222-0.781l0.528-0.528c0.429,0.451,1.012,0.627,1.684,0.627
		c0.891,0,1.441-0.319,1.441-0.957c0-0.473-0.275-0.737-0.902-0.792l-0.891-0.077c-1.056-0.088-1.617-0.562-1.617-1.452
		c0-0.99,0.836-1.584,1.991-1.584c0.77,0,1.463,0.187,1.947,0.583l-0.517,0.517c-0.385-0.297-0.88-0.429-1.441-0.429
		c-0.792,0-1.21,0.341-1.21,0.891c0,0.463,0.264,0.737,0.946,0.793l0.869,0.076c0.946,0.089,1.595,0.451,1.595,1.464
		C296.405,279.99,295.514,280.595,294.205,280.595z"/>
	<path fill="#BAA494" d="M299.914,280.529c-0.924,0-1.386-0.649-1.386-1.452v-3.322h-0.682v-0.605h0.682v-1.694h0.792v1.694h1.155
		v0.605h-1.155v3.3c0,0.495,0.231,0.793,0.737,0.793h0.418v0.682H299.914z"/>
	<path fill="#BAA494" d="M303.005,278.032c0,1.188,0.561,1.87,1.595,1.87c0.627,0,0.99-0.188,1.419-0.616l0.539,0.473
		c-0.55,0.551-1.056,0.837-1.98,0.837c-1.43,0-2.366-0.858-2.366-2.772c0-1.75,0.847-2.772,2.223-2.772
		c1.397,0,2.222,1.012,2.222,2.618v0.363H303.005z M305.7,276.536c-0.209-0.495-0.693-0.814-1.265-0.814
		c-0.572,0-1.056,0.319-1.265,0.814c-0.121,0.297-0.143,0.462-0.165,0.901h2.86C305.843,276.998,305.821,276.833,305.7,276.536z"/>
</g>
<g>
	<path fill="#BAA494" d="M244.442,295.599c-0.771,0-1.475-0.286-2.002-0.814c-0.737-0.737-0.737-1.507-0.737-3.169
		c0-1.661,0-2.431,0.737-3.168c0.528-0.528,1.232-0.814,2.002-0.814c1.408,0,2.453,0.858,2.717,2.333h-0.858
		c-0.209-0.958-0.88-1.585-1.859-1.585c-0.517,0-1.012,0.198-1.354,0.551c-0.495,0.506-0.55,1.045-0.55,2.684
		c0,1.64,0.055,2.179,0.55,2.685c0.341,0.353,0.836,0.551,1.354,0.551c0.979,0,1.672-0.628,1.881-1.585h0.836
		C246.907,294.741,245.839,295.599,244.442,295.599z"/>
	<path fill="#BAA494" d="M250.767,295.533c-0.946,0-1.375-0.616-1.375-1.441V287.7h0.792v6.358c0,0.528,0.176,0.793,0.726,0.793
		h0.429v0.682H250.767z"/>
	<path fill="#BAA494" d="M253.187,288.58v-0.891h0.891v0.891H253.187z M253.231,295.533v-5.413h0.792v5.413H253.231z"/>
	<path fill="#BAA494" d="M263.517,295.533V292.2c0-0.958-0.517-1.441-1.332-1.441c-0.792,0-1.353,0.495-1.353,1.353v3.422h-0.792
		V292.2c0-0.958-0.517-1.441-1.332-1.441c-0.814,0-1.353,0.495-1.353,1.441v3.333h-0.792v-5.413h0.792v0.595
		c0.385-0.44,0.924-0.66,1.529-0.66c0.748,0,1.331,0.308,1.661,0.902c0.418-0.595,1.023-0.902,1.782-0.902
		c0.583,0,1.067,0.187,1.397,0.506c0.385,0.374,0.583,0.88,0.583,1.507v3.466H263.517z"/>
	<path fill="#BAA494" d="M269.841,295.533v-0.517c-0.44,0.439-0.836,0.583-1.562,0.583c-0.749,0-1.188-0.144-1.529-0.495
		c-0.264-0.265-0.407-0.672-0.407-1.101c0-0.946,0.66-1.562,1.87-1.562h1.628v-0.517c0-0.792-0.396-1.188-1.386-1.188
		c-0.693,0-1.045,0.165-1.364,0.616l-0.539-0.495c0.484-0.627,1.034-0.803,1.915-0.803c1.452,0,2.167,0.627,2.167,1.804v3.675
		H269.841z M269.841,293.036h-1.518c-0.814,0-1.21,0.33-1.21,0.957s0.385,0.924,1.243,0.924c0.462,0,0.869-0.033,1.21-0.363
		c0.187-0.176,0.275-0.483,0.275-0.935V293.036z"/>
	<path fill="#BAA494" d="M274.625,295.533c-0.924,0-1.386-0.649-1.386-1.452v-3.322h-0.682v-0.605h0.682v-1.694h0.792v1.694h1.155
		v0.605h-1.155v3.3c0,0.495,0.231,0.793,0.737,0.793h0.418v0.682H274.625z"/>
	<path fill="#BAA494" d="M277.716,293.036c0,1.188,0.561,1.87,1.595,1.87c0.627,0,0.99-0.188,1.419-0.616l0.539,0.473
		c-0.55,0.551-1.056,0.837-1.98,0.837c-1.43,0-2.366-0.858-2.366-2.772c0-1.75,0.847-2.772,2.223-2.772
		c1.397,0,2.222,1.012,2.222,2.618v0.363H277.716z M280.412,291.54c-0.209-0.495-0.693-0.814-1.265-0.814
		c-0.572,0-1.056,0.319-1.265,0.814c-0.121,0.297-0.143,0.462-0.165,0.901h2.86C280.555,292.001,280.533,291.836,280.412,291.54z"/>
	<path fill="#BAA494" d="M289.465,295.599c-0.771,0-1.475-0.286-2.002-0.814c-0.737-0.737-0.737-1.507-0.737-3.169
		c0-1.661,0-2.431,0.737-3.168c0.528-0.528,1.232-0.814,2.002-0.814c1.408,0,2.453,0.858,2.717,2.333h-0.858
		c-0.209-0.958-0.88-1.585-1.859-1.585c-0.517,0-1.012,0.198-1.354,0.551c-0.495,0.506-0.55,1.045-0.55,2.684
		c0,1.64,0.055,2.179,0.55,2.685c0.341,0.353,0.836,0.551,1.354,0.551c0.979,0,1.672-0.628,1.881-1.585h0.836
		C291.929,294.741,290.862,295.599,289.465,295.599z"/>
	<path fill="#BAA494" d="M297.901,295.533v-3.345c0-0.946-0.506-1.43-1.32-1.43c-0.814,0-1.353,0.495-1.353,1.43v3.345h-0.792V287.7
		h0.792v3.015c0.396-0.451,0.913-0.66,1.518-0.66c1.221,0,1.947,0.781,1.947,2.002v3.477H297.901z"/>
	<path fill="#BAA494" d="M304.237,295.533v-0.517c-0.44,0.439-0.836,0.583-1.562,0.583c-0.749,0-1.188-0.144-1.529-0.495
		c-0.264-0.265-0.407-0.672-0.407-1.101c0-0.946,0.66-1.562,1.87-1.562h1.628v-0.517c0-0.792-0.396-1.188-1.386-1.188
		c-0.693,0-1.045,0.165-1.364,0.616l-0.539-0.495c0.484-0.627,1.034-0.803,1.915-0.803c1.452,0,2.167,0.627,2.167,1.804v3.675
		H304.237z M304.237,293.036h-1.518c-0.814,0-1.21,0.33-1.21,0.957s0.385,0.924,1.243,0.924c0.462,0,0.869-0.033,1.21-0.363
		c0.187-0.176,0.275-0.483,0.275-0.935V293.036z"/>
	<path fill="#BAA494" d="M310.969,295.533V292.2c0-0.958-0.517-1.441-1.331-1.441s-1.342,0.495-1.342,1.441v3.333h-0.792v-5.413
		h0.792v0.595c0.385-0.44,0.913-0.66,1.518-0.66c0.583,0,1.056,0.176,1.386,0.506c0.385,0.374,0.561,0.88,0.561,1.507v3.466H310.969
		z"/>
	<path fill="#BAA494" d="M315.974,298.019c-0.814,0-1.265-0.209-1.837-0.727l0.517-0.506c0.396,0.353,0.671,0.539,1.298,0.539
		c1.045,0,1.485-0.736,1.485-1.661v-0.847c-0.44,0.561-0.935,0.704-1.518,0.704c-0.55,0-1.023-0.198-1.309-0.484
		c-0.539-0.539-0.66-1.375-0.66-2.255c0-0.881,0.121-1.717,0.66-2.256c0.286-0.286,0.77-0.473,1.32-0.473
		c0.594,0,1.078,0.132,1.518,0.704v-0.639h0.781v5.578C318.229,297.04,317.393,298.019,315.974,298.019z M316.095,290.758
		c-1.177,0-1.354,1.012-1.354,2.024c0,1.012,0.176,2.023,1.354,2.023c1.177,0,1.342-1.012,1.342-2.023
		C317.437,291.77,317.272,290.758,316.095,290.758z"/>
	<path fill="#BAA494" d="M321.254,293.036c0,1.188,0.561,1.87,1.595,1.87c0.627,0,0.99-0.188,1.419-0.616l0.539,0.473
		c-0.55,0.551-1.056,0.837-1.98,0.837c-1.43,0-2.366-0.858-2.366-2.772c0-1.75,0.847-2.772,2.223-2.772
		c1.397,0,2.222,1.012,2.222,2.618v0.363H321.254z M323.949,291.54c-0.209-0.495-0.693-0.814-1.265-0.814
		c-0.572,0-1.056,0.319-1.265,0.814c-0.121,0.297-0.143,0.462-0.165,0.901h2.86C324.092,292.001,324.07,291.836,323.949,291.54z"/>
</g>
<g opacity="0.75">
	<g>
		<path fill="#262625" d="M253.608,221.85v-9.257h5.747v0.885h-4.758v3.263h4.056v0.884h-4.056v3.342h4.758v0.884H253.608z"/>
		<path fill="#262625" d="M263.683,221.85c-1.092,0-1.638-0.767-1.638-1.716v-3.927h-0.806v-0.715h0.806v-2.002h0.936v2.002h1.365
			v0.715h-1.365v3.9c0,0.585,0.273,0.937,0.871,0.937h0.494v0.806H263.683z"/>
		<path fill="#262625" d="M270.95,221.85v-3.952c0-1.118-0.598-1.69-1.56-1.69s-1.599,0.585-1.599,1.69v3.952h-0.936v-9.257h0.936
			v3.562c0.468-0.533,1.079-0.78,1.794-0.78c1.443,0,2.301,0.924,2.301,2.366v4.108H270.95z"/>
		<path fill="#262625" d="M274.746,213.634v-1.054h1.053v1.054H274.746z M274.798,221.85v-6.396h0.936v6.396H274.798z"/>
		<path fill="#262625" d="M281.22,221.928c-1.612,0-2.834-1.092-2.834-3.276c0-2.184,1.222-3.276,2.834-3.276
			c0.884,0,1.443,0.234,2.106,0.949l-0.637,0.599c-0.481-0.533-0.858-0.716-1.469-0.716c-0.624,0-1.144,0.247-1.482,0.729
			c-0.299,0.416-0.416,0.91-0.416,1.716c0,0.807,0.117,1.3,0.416,1.716c0.338,0.481,0.858,0.729,1.482,0.729
			c0.611,0,0.988-0.195,1.469-0.729l0.637,0.611C282.663,221.694,282.104,221.928,281.22,221.928z"/>
		<path fill="#262625" d="M289.215,221.85v-0.611c-0.52,0.521-0.988,0.689-1.846,0.689c-0.884,0-1.404-0.169-1.807-0.585
			c-0.312-0.312-0.481-0.793-0.481-1.3c0-1.118,0.78-1.847,2.21-1.847h1.924v-0.611c0-0.936-0.468-1.403-1.638-1.403
			c-0.819,0-1.235,0.194-1.612,0.728l-0.637-0.585c0.572-0.741,1.222-0.949,2.262-0.949c1.716,0,2.562,0.741,2.562,2.133v4.342
			H289.215z M289.215,218.899h-1.794c-0.962,0-1.43,0.39-1.43,1.131s0.455,1.093,1.469,1.093c0.546,0,1.027-0.039,1.43-0.43
			c0.221-0.208,0.325-0.572,0.325-1.104V218.899z"/>
		<path fill="#262625" d="M294.674,221.85c-1.118,0-1.625-0.728-1.625-1.703v-7.554h0.936v7.515c0,0.624,0.208,0.937,0.858,0.937
			h0.507v0.806H294.674z"/>
		<path fill="#262625" d="M304.333,213.478v8.372h-0.988v-8.372h-2.678v-0.885h6.344v0.885H304.333z"/>
		<path fill="#262625" d="M312.107,216.676c-0.351-0.352-0.611-0.469-1.105-0.469c-0.936,0-1.534,0.741-1.534,1.717v3.926h-0.936
			v-6.396h0.936v0.78c0.351-0.533,1.053-0.858,1.794-0.858c0.611,0,1.079,0.144,1.534,0.599L312.107,216.676z"/>
		<path fill="#262625" d="M314.798,218.899c0,1.404,0.663,2.21,1.885,2.21c0.741,0,1.17-0.221,1.677-0.728l0.637,0.559
			c-0.65,0.65-1.248,0.988-2.34,0.988c-1.69,0-2.795-1.015-2.795-3.276c0-2.067,1.001-3.276,2.626-3.276
			c1.651,0,2.626,1.196,2.626,3.095v0.429H314.798z M317.983,217.131c-0.247-0.585-0.819-0.963-1.495-0.963
			c-0.676,0-1.248,0.378-1.495,0.963c-0.143,0.351-0.169,0.546-0.195,1.065h3.38C318.152,217.677,318.126,217.482,317.983,217.131z"
			/>
		<path fill="#262625" d="M325.38,221.85v-0.611c-0.52,0.521-0.988,0.689-1.846,0.689c-0.884,0-1.404-0.169-1.807-0.585
			c-0.312-0.312-0.481-0.793-0.481-1.3c0-1.118,0.78-1.847,2.21-1.847h1.924v-0.611c0-0.936-0.468-1.403-1.638-1.403
			c-0.819,0-1.235,0.194-1.612,0.728l-0.637-0.585c0.572-0.741,1.222-0.949,2.262-0.949c1.716,0,2.561,0.741,2.561,2.133v4.342
			H325.38z M325.38,218.899h-1.794c-0.962,0-1.43,0.39-1.43,1.131s0.455,1.093,1.469,1.093c0.546,0,1.027-0.039,1.43-0.43
			c0.221-0.208,0.325-0.572,0.325-1.104V218.899z"/>
		<path fill="#262625" d="M331.035,221.85c-1.092,0-1.638-0.767-1.638-1.716v-3.927h-0.806v-0.715h0.806v-2.002h0.936v2.002h1.365
			v0.715h-1.365v3.9c0,0.585,0.273,0.937,0.871,0.937h0.494v0.806H331.035z"/>
		<path fill="#262625" d="M342.423,221.85v-3.939c0-1.131-0.611-1.703-1.573-1.703c-0.936,0-1.599,0.585-1.599,1.6v4.043h-0.936
			v-3.939c0-1.131-0.611-1.703-1.573-1.703s-1.599,0.585-1.599,1.703v3.939h-0.936v-6.396h0.936v0.702
			c0.455-0.52,1.092-0.78,1.807-0.78c0.884,0,1.573,0.364,1.963,1.066c0.494-0.702,1.209-1.066,2.106-1.066
			c0.689,0,1.261,0.222,1.651,0.599c0.455,0.441,0.689,1.04,0.689,1.781v4.095H342.423z"/>
		<path fill="#262625" d="M346.868,218.899c0,1.404,0.663,2.21,1.885,2.21c0.741,0,1.17-0.221,1.677-0.728l0.637,0.559
			c-0.65,0.65-1.248,0.988-2.34,0.988c-1.69,0-2.795-1.015-2.795-3.276c0-2.067,1.001-3.276,2.626-3.276
			c1.651,0,2.626,1.196,2.626,3.095v0.429H346.868z M350.053,217.131c-0.247-0.585-0.819-0.963-1.495-0.963
			c-0.676,0-1.248,0.378-1.495,0.963c-0.143,0.351-0.169,0.546-0.195,1.065h3.38C350.223,217.677,350.196,217.482,350.053,217.131z"
			/>
		<path fill="#262625" d="M357.918,221.85v-3.939c0-1.131-0.611-1.703-1.573-1.703c-0.962,0-1.586,0.585-1.586,1.703v3.939h-0.936
			v-6.396h0.936v0.702c0.455-0.52,1.079-0.78,1.794-0.78c0.689,0,1.248,0.208,1.638,0.599c0.455,0.441,0.663,1.04,0.663,1.781v4.095
			H357.918z"/>
		<path fill="#262625" d="M363.56,221.85c-1.092,0-1.638-0.767-1.638-1.716v-3.927h-0.806v-0.715h0.806v-2.002h0.936v2.002h1.365
			v0.715h-1.365v3.9c0,0.585,0.273,0.937,0.871,0.937h0.494v0.806H363.56z"/>
	</g>
	<g>
		<path fill="#262625" d="M280.311,236.799c-0.442,0.442-1.053,0.729-1.833,0.729c-0.78,0-1.391-0.286-1.833-0.729
			c-0.65-0.663-0.78-1.56-0.78-2.548s0.13-1.885,0.78-2.548c0.442-0.442,1.053-0.729,1.833-0.729c0.78,0,1.391,0.286,1.833,0.729
			c0.65,0.663,0.78,1.56,0.78,2.548S280.96,236.136,280.311,236.799z M279.647,232.276c-0.299-0.3-0.715-0.469-1.17-0.469
			c-0.455,0-0.858,0.169-1.157,0.469c-0.468,0.468-0.52,1.261-0.52,1.976s0.052,1.508,0.52,1.977
			c0.299,0.299,0.702,0.468,1.157,0.468c0.455,0,0.871-0.169,1.17-0.468c0.468-0.469,0.507-1.262,0.507-1.977
			S280.115,232.744,279.647,232.276z"/>
		<path fill="#262625" d="M284.873,231.807v5.643h-0.936v-5.643h-0.819v-0.715h0.819v-1.209c0-0.949,0.533-1.716,1.625-1.716h0.676
			v0.806h-0.507c-0.598,0-0.858,0.352-0.858,0.937v1.183h1.365v0.715H284.873z"/>
		<path fill="#262625" d="M297.899,237.45l-0.741-2.093h-4.043l-0.741,2.093h-1.053l3.406-9.257h0.832l3.393,9.257H297.899z
			 M295.156,229.611l-1.742,4.888h3.458L295.156,229.611z"/>
		<path fill="#262625" d="M305.023,237.45v-3.939c0-1.131-0.611-1.703-1.573-1.703c-0.962,0-1.586,0.585-1.586,1.703v3.939h-0.936
			v-6.396h0.936v0.702c0.455-0.52,1.079-0.78,1.794-0.78c0.689,0,1.248,0.208,1.638,0.599c0.455,0.441,0.663,1.04,0.663,1.781v4.095
			H305.023z"/>
		<path fill="#262625" d="M308.819,229.234v-1.054h1.053v1.054H308.819z M308.871,237.45v-6.396h0.936v6.396H308.871z"/>
		<path fill="#262625" d="M321.026,237.45v-3.939c0-1.131-0.611-1.703-1.573-1.703c-0.936,0-1.599,0.585-1.599,1.6v4.043h-0.936
			v-3.939c0-1.131-0.611-1.703-1.573-1.703s-1.599,0.585-1.599,1.703v3.939h-0.936v-6.396h0.936v0.702
			c0.455-0.52,1.092-0.78,1.807-0.78c0.884,0,1.573,0.364,1.963,1.066c0.494-0.702,1.209-1.066,2.106-1.066
			c0.689,0,1.261,0.222,1.651,0.599c0.455,0.441,0.689,1.04,0.689,1.781v4.095H321.026z"/>
		<path fill="#262625" d="M328.514,237.45v-0.611c-0.52,0.521-0.988,0.689-1.846,0.689c-0.884,0-1.404-0.169-1.807-0.585
			c-0.312-0.312-0.481-0.793-0.481-1.3c0-1.118,0.78-1.847,2.21-1.847h1.924v-0.611c0-0.936-0.468-1.403-1.638-1.403
			c-0.819,0-1.235,0.194-1.612,0.728l-0.637-0.585c0.572-0.741,1.222-0.949,2.262-0.949c1.716,0,2.561,0.741,2.561,2.133v4.342
			H328.514z M328.514,234.499h-1.794c-0.962,0-1.43,0.39-1.43,1.131s0.455,1.093,1.469,1.093c0.546,0,1.027-0.039,1.43-0.43
			c0.221-0.208,0.325-0.572,0.325-1.104V234.499z"/>
		<path fill="#262625" d="M333.974,237.45c-1.118,0-1.625-0.728-1.625-1.703v-7.554h0.936v7.515c0,0.624,0.208,0.937,0.858,0.937
			h0.507v0.806H333.974z"/>
		<path fill="#262625" d="M338.9,237.528c-1.079,0-1.924-0.247-2.626-0.923l0.624-0.624c0.507,0.532,1.196,0.741,1.989,0.741
			c1.053,0,1.703-0.378,1.703-1.132c0-0.559-0.325-0.871-1.066-0.936l-1.053-0.091c-1.248-0.104-1.911-0.663-1.911-1.717
			c0-1.17,0.988-1.872,2.353-1.872c0.91,0,1.729,0.222,2.301,0.689l-0.611,0.611c-0.455-0.352-1.04-0.508-1.703-0.508
			c-0.936,0-1.43,0.403-1.43,1.054c0,0.546,0.312,0.871,1.118,0.936l1.027,0.091c1.118,0.104,1.885,0.533,1.885,1.729
			C341.5,236.813,340.448,237.528,338.9,237.528z"/>
	</g>
	<path fill="none" stroke="#AE1821" stroke-width="0.75" stroke-miterlimit="10" d="M244.076,203.961c0,0-2.835,0-2.835,2.835
		v35.777c0,0,0,2.835,2.835,2.835h129.581c0,0,2.834,0,2.834-2.835v-35.777c0,0,0-2.835-2.834-2.835H244.076z"/>
	<rect x="231.867" y="196.586" fill="none" width="154" height="50.197"/>
</g>
<g>
	<path fill="#BAA494" d="M98.995,264.775l-4.159-6.282v6.282H94v-7.833h0.792l4.159,6.26v-6.26h0.836v7.833H98.995z"/>
	<path fill="#BAA494" d="M105.88,264.775v-0.605c-0.385,0.44-0.924,0.672-1.529,0.672c-0.583,0-1.067-0.177-1.397-0.507
		c-0.385-0.374-0.55-0.891-0.55-1.518v-3.455h0.792v3.334c0,0.957,0.506,1.441,1.32,1.441s1.354-0.495,1.354-1.441v-3.334h0.792
		v5.413H105.88z"/>
	<path fill="#BAA494" d="M110.709,264.775c-0.924,0-1.386-0.649-1.386-1.452V260h-0.682v-0.605h0.682v-1.694h0.792v1.694h1.155V260
		h-1.155v3.3c0,0.495,0.231,0.793,0.737,0.793h0.418v0.682H110.709z"/>
	<path fill="#BAA494" d="M116.418,260.396c-0.297-0.297-0.517-0.396-0.935-0.396c-0.792,0-1.298,0.627-1.298,1.452v3.322h-0.792
		v-5.413h0.792v0.66c0.297-0.451,0.891-0.726,1.518-0.726c0.517,0,0.913,0.121,1.298,0.506L116.418,260.396z"/>
	<path fill="#BAA494" d="M118.53,257.822v-0.891h0.891v0.891H118.53z M118.574,264.775v-5.413h0.792v5.413H118.574z"/>
	<path fill="#BAA494" d="M122.401,262.278c0,1.188,0.561,1.87,1.595,1.87c0.627,0,0.99-0.188,1.419-0.616l0.539,0.473
		c-0.55,0.551-1.056,0.837-1.98,0.837c-1.43,0-2.366-0.858-2.366-2.772c0-1.75,0.847-2.772,2.223-2.772
		c1.397,0,2.222,1.012,2.222,2.618v0.363H122.401z M125.097,260.782c-0.209-0.495-0.693-0.814-1.265-0.814
		c-0.572,0-1.056,0.319-1.265,0.814c-0.121,0.297-0.143,0.462-0.165,0.901h2.86C125.24,261.244,125.218,261.079,125.097,260.782z"/>
	<path fill="#BAA494" d="M131.741,264.775v-3.333c0-0.958-0.517-1.441-1.331-1.441s-1.342,0.495-1.342,1.441v3.333h-0.792v-5.413
		h0.792v0.595c0.385-0.44,0.913-0.66,1.518-0.66c0.583,0,1.056,0.176,1.386,0.506c0.385,0.374,0.561,0.88,0.561,1.507v3.466H131.741
		z"/>
	<path fill="#BAA494" d="M136.515,264.775c-0.924,0-1.386-0.649-1.386-1.452V260h-0.682v-0.605h0.682v-1.694h0.792v1.694h1.155V260
		h-1.155v3.3c0,0.495,0.231,0.793,0.737,0.793h0.418v0.682H136.515z"/>
	<path fill="#BAA494" d="M140.903,264.841c-0.913,0-1.628-0.209-2.222-0.781l0.528-0.528c0.429,0.451,1.012,0.627,1.684,0.627
		c0.891,0,1.441-0.319,1.441-0.957c0-0.473-0.275-0.737-0.902-0.792l-0.891-0.077c-1.056-0.088-1.617-0.562-1.617-1.452
		c0-0.99,0.836-1.584,1.991-1.584c0.77,0,1.463,0.187,1.947,0.583l-0.517,0.517c-0.385-0.297-0.88-0.429-1.441-0.429
		c-0.792,0-1.21,0.341-1.21,0.891c0,0.463,0.264,0.737,0.946,0.793l0.869,0.076c0.946,0.089,1.595,0.451,1.595,1.464
		C143.104,264.236,142.212,264.841,140.903,264.841z"/>
</g>
<g>
	<path fill="#BAA494" d="M98.665,279.052c-0.473,0.474-1.166,0.727-1.98,0.727H94v-7.833h2.684c0.814,0,1.507,0.253,1.98,0.726
		c0.814,0.814,0.77,2.014,0.77,3.103C99.435,276.864,99.479,278.239,98.665,279.052z M98.082,273.266
		c-0.407-0.418-0.935-0.572-1.541-0.572h-1.705v6.337h1.705c0.605,0,1.133-0.154,1.541-0.572c0.539-0.561,0.517-1.728,0.517-2.685
		S98.621,273.827,98.082,273.266z"/>
	<path fill="#BAA494" d="M101.766,272.826v-0.891h0.891v0.891H101.766z M101.81,279.779v-5.413h0.792v5.413H101.81z"/>
	<path fill="#BAA494" d="M106.848,279.845c-0.913,0-1.628-0.209-2.222-0.781l0.528-0.528c0.429,0.451,1.012,0.627,1.684,0.627
		c0.891,0,1.441-0.319,1.441-0.957c0-0.473-0.275-0.737-0.902-0.792l-0.891-0.077c-1.056-0.088-1.617-0.562-1.617-1.452
		c0-0.99,0.836-1.584,1.991-1.584c0.77,0,1.463,0.187,1.947,0.583l-0.517,0.517c-0.385-0.297-0.88-0.429-1.441-0.429
		c-0.792,0-1.21,0.341-1.21,0.891c0,0.463,0.264,0.737,0.946,0.793l0.869,0.076c0.946,0.089,1.595,0.451,1.595,1.464
		C109.048,279.24,108.157,279.845,106.848,279.845z"/>
	<path fill="#BAA494" d="M111.644,277.282c0,1.188,0.561,1.87,1.595,1.87c0.627,0,0.99-0.188,1.419-0.616l0.539,0.473
		c-0.55,0.551-1.056,0.837-1.98,0.837c-1.43,0-2.366-0.858-2.366-2.772c0-1.75,0.847-2.772,2.223-2.772
		c1.397,0,2.222,1.012,2.222,2.618v0.363H111.644z M114.339,275.786c-0.209-0.495-0.693-0.814-1.265-0.814
		c-0.572,0-1.056,0.319-1.265,0.814c-0.121,0.297-0.143,0.462-0.165,0.901h2.86C114.482,276.248,114.46,276.083,114.339,275.786z"/>
	<path fill="#BAA494" d="M120.587,279.779v-0.517c-0.44,0.439-0.836,0.583-1.562,0.583c-0.749,0-1.188-0.144-1.529-0.495
		c-0.264-0.265-0.407-0.672-0.407-1.101c0-0.946,0.66-1.562,1.87-1.562h1.628v-0.517c0-0.792-0.396-1.188-1.386-1.188
		c-0.693,0-1.045,0.165-1.364,0.616l-0.539-0.495c0.484-0.627,1.034-0.803,1.915-0.803c1.452,0,2.167,0.627,2.167,1.804v3.675
		H120.587z M120.587,277.282h-1.518c-0.814,0-1.21,0.33-1.21,0.957s0.385,0.924,1.243,0.924c0.462,0,0.869-0.033,1.21-0.363
		c0.187-0.176,0.275-0.483,0.275-0.935V277.282z"/>
	<path fill="#BAA494" d="M125.559,279.845c-0.913,0-1.628-0.209-2.222-0.781l0.528-0.528c0.429,0.451,1.012,0.627,1.684,0.627
		c0.891,0,1.441-0.319,1.441-0.957c0-0.473-0.275-0.737-0.902-0.792l-0.891-0.077c-1.056-0.088-1.617-0.562-1.617-1.452
		c0-0.99,0.836-1.584,1.991-1.584c0.77,0,1.463,0.187,1.947,0.583L127,275.4c-0.385-0.297-0.88-0.429-1.441-0.429
		c-0.792,0-1.21,0.341-1.21,0.891c0,0.463,0.264,0.737,0.946,0.793l0.869,0.076c0.946,0.089,1.595,0.451,1.595,1.464
		C127.759,279.24,126.868,279.845,125.559,279.845z"/>
	<path fill="#BAA494" d="M130.354,277.282c0,1.188,0.561,1.87,1.595,1.87c0.627,0,0.99-0.188,1.419-0.616l0.539,0.473
		c-0.55,0.551-1.056,0.837-1.98,0.837c-1.43,0-2.366-0.858-2.366-2.772c0-1.75,0.847-2.772,2.223-2.772
		c1.397,0,2.222,1.012,2.222,2.618v0.363H130.354z M133.05,275.786c-0.209-0.495-0.693-0.814-1.265-0.814
		c-0.572,0-1.056,0.319-1.265,0.814c-0.121,0.297-0.143,0.462-0.165,0.901h2.86C133.193,276.248,133.171,276.083,133.05,275.786z"/>
	<path fill="#BAA494" d="M137.933,279.845c-0.913,0-1.628-0.209-2.222-0.781l0.528-0.528c0.429,0.451,1.012,0.627,1.684,0.627
		c0.891,0,1.441-0.319,1.441-0.957c0-0.473-0.275-0.737-0.902-0.792l-0.891-0.077c-1.056-0.088-1.617-0.562-1.617-1.452
		c0-0.99,0.836-1.584,1.991-1.584c0.77,0,1.463,0.187,1.947,0.583l-0.517,0.517c-0.385-0.297-0.88-0.429-1.441-0.429
		c-0.792,0-1.21,0.341-1.21,0.891c0,0.463,0.264,0.737,0.946,0.793l0.869,0.076c0.946,0.089,1.595,0.451,1.595,1.464
		C140.133,279.24,139.242,279.845,137.933,279.845z"/>
</g>
<g>
	<path fill="#BAA494" d="M94,294.783v-7.833h0.836v7.833H94z"/>
	<path fill="#BAA494" d="M100.974,294.783v-3.333c0-0.958-0.517-1.441-1.331-1.441s-1.342,0.495-1.342,1.441v3.333h-0.792v-5.413
		h0.792v0.595c0.385-0.44,0.913-0.66,1.518-0.66c0.583,0,1.056,0.176,1.386,0.506c0.385,0.374,0.561,0.88,0.561,1.507v3.466H100.974
		z"/>
	<path fill="#BAA494" d="M105.759,294.783c-0.924,0-1.386-0.649-1.386-1.452v-3.322h-0.682v-0.605h0.682v-1.694h0.792v1.694h1.155
		v0.605h-1.155v3.3c0,0.495,0.231,0.793,0.737,0.793h0.418v0.682H105.759z"/>
	<path fill="#BAA494" d="M111.831,294.233c-0.374,0.374-0.891,0.616-1.551,0.616s-1.177-0.242-1.551-0.616
		c-0.55-0.562-0.66-1.32-0.66-2.156c0-0.837,0.11-1.596,0.66-2.156c0.374-0.374,0.891-0.616,1.551-0.616s1.177,0.242,1.551,0.616
		c0.55,0.561,0.66,1.319,0.66,2.156C112.491,292.913,112.381,293.671,111.831,294.233z M111.27,290.404
		c-0.253-0.253-0.605-0.396-0.99-0.396c-0.385,0-0.726,0.143-0.979,0.396c-0.396,0.396-0.44,1.067-0.44,1.673
		c0,0.604,0.044,1.275,0.44,1.672c0.253,0.253,0.594,0.396,0.979,0.396c0.385,0,0.737-0.144,0.99-0.396
		c0.396-0.396,0.429-1.067,0.429-1.672C111.699,291.471,111.666,290.8,111.27,290.404z"/>
	<path fill="#BAA494" d="M116.088,294.783c-0.946,0-1.375-0.616-1.375-1.441v-6.392h0.792v6.358c0,0.528,0.176,0.793,0.726,0.793
		h0.429v0.682H116.088z"/>
	<path fill="#BAA494" d="M118.772,292.286c0,1.188,0.561,1.87,1.595,1.87c0.627,0,0.99-0.188,1.419-0.616l0.539,0.473
		c-0.55,0.551-1.056,0.837-1.98,0.837c-1.43,0-2.366-0.858-2.366-2.772c0-1.75,0.847-2.772,2.223-2.772
		c1.397,0,2.222,1.012,2.222,2.618v0.363H118.772z M121.467,290.79c-0.209-0.495-0.693-0.814-1.265-0.814
		c-0.572,0-1.056,0.319-1.265,0.814c-0.121,0.297-0.143,0.462-0.165,0.901h2.86C121.61,291.251,121.588,291.086,121.467,290.79z"/>
	<path fill="#BAA494" d="M127.671,290.404c-0.297-0.297-0.517-0.396-0.935-0.396c-0.792,0-1.298,0.627-1.298,1.452v3.322h-0.792
		v-5.413h0.792v0.66c0.297-0.451,0.891-0.726,1.518-0.726c0.517,0,0.913,0.121,1.298,0.506L127.671,290.404z"/>
	<path fill="#BAA494" d="M132.786,294.783v-0.517c-0.44,0.439-0.836,0.583-1.562,0.583c-0.749,0-1.188-0.144-1.529-0.495
		c-0.264-0.265-0.407-0.672-0.407-1.101c0-0.946,0.66-1.562,1.87-1.562h1.628v-0.517c0-0.792-0.396-1.188-1.386-1.188
		c-0.693,0-1.045,0.165-1.364,0.616l-0.539-0.495c0.484-0.627,1.034-0.803,1.915-0.803c1.452,0,2.167,0.627,2.167,1.804v3.675
		H132.786z M132.786,292.286h-1.518c-0.814,0-1.21,0.33-1.21,0.957s0.385,0.924,1.243,0.924c0.462,0,0.869-0.033,1.21-0.363
		c0.187-0.176,0.275-0.483,0.275-0.935V292.286z"/>
	<path fill="#BAA494" d="M139.518,294.783v-3.333c0-0.958-0.517-1.441-1.331-1.441s-1.342,0.495-1.342,1.441v3.333h-0.792v-5.413
		h0.792v0.595c0.385-0.44,0.913-0.66,1.518-0.66c0.583,0,1.056,0.176,1.386,0.506c0.385,0.374,0.561,0.88,0.561,1.507v3.466H139.518
		z"/>
	<path fill="#BAA494" d="M144.875,294.849c-1.364,0-2.398-0.925-2.398-2.772c0-1.849,1.034-2.772,2.398-2.772
		c0.748,0,1.221,0.197,1.782,0.803l-0.539,0.506c-0.407-0.451-0.726-0.604-1.243-0.604c-0.528,0-0.968,0.209-1.254,0.616
		c-0.253,0.352-0.352,0.77-0.352,1.452c0,0.682,0.099,1.1,0.352,1.452c0.286,0.407,0.726,0.616,1.254,0.616
		c0.517,0,0.836-0.165,1.243-0.616l0.539,0.517C146.096,294.651,145.623,294.849,144.875,294.849z"/>
	<path fill="#BAA494" d="M149.043,292.286c0,1.188,0.561,1.87,1.595,1.87c0.627,0,0.99-0.188,1.419-0.616l0.539,0.473
		c-0.55,0.551-1.056,0.837-1.98,0.837c-1.43,0-2.366-0.858-2.366-2.772c0-1.75,0.847-2.772,2.223-2.772
		c1.397,0,2.222,1.012,2.222,2.618v0.363H149.043z M151.739,290.79c-0.209-0.495-0.693-0.814-1.265-0.814
		c-0.572,0-1.056,0.319-1.265,0.814c-0.121,0.297-0.143,0.462-0.165,0.901h2.86C151.882,291.251,151.86,291.086,151.739,290.79z"/>
</g>
<g>
	<path fill="#BAA494" d="M98.565,309.787l-0.627-1.771h-3.421l-0.627,1.771h-0.891l2.883-7.833h0.704l2.871,7.833H98.565z
		 M96.244,303.153l-1.474,4.137h2.926L96.244,303.153z"/>
	<path fill="#BAA494" d="M102.481,309.787c-0.946,0-1.375-0.616-1.375-1.441v-6.392h0.792v6.358c0,0.528,0.176,0.793,0.726,0.793
		h0.429v0.682H102.481z"/>
	<path fill="#BAA494" d="M106.298,309.787c-0.946,0-1.375-0.616-1.375-1.441v-6.392h0.792v6.358c0,0.528,0.176,0.793,0.726,0.793
		h0.429v0.682H106.298z"/>
	<path fill="#BAA494" d="M108.971,307.29c0,1.188,0.561,1.87,1.595,1.87c0.627,0,0.99-0.188,1.419-0.616l0.539,0.473
		c-0.55,0.551-1.056,0.837-1.98,0.837c-1.43,0-2.366-0.858-2.366-2.772c0-1.75,0.847-2.772,2.223-2.772
		c1.397,0,2.222,1.012,2.222,2.618v0.363H108.971z M111.666,305.793c-0.209-0.495-0.693-0.814-1.265-0.814
		c-0.572,0-1.056,0.319-1.265,0.814c-0.121,0.297-0.143,0.462-0.165,0.901h2.86C111.809,306.255,111.787,306.09,111.666,305.793z"/>
	<path fill="#BAA494" d="M117.87,305.408c-0.297-0.297-0.517-0.396-0.935-0.396c-0.792,0-1.298,0.627-1.298,1.452v3.322h-0.792
		v-5.413h0.792v0.66c0.297-0.451,0.891-0.726,1.518-0.726c0.517,0,0.913,0.121,1.298,0.506L117.87,305.408z"/>
	<path fill="#BAA494" d="M121.39,312.273c-0.814,0-1.265-0.209-1.837-0.727l0.517-0.506c0.396,0.353,0.671,0.539,1.298,0.539
		c1.045,0,1.485-0.736,1.485-1.661v-0.847c-0.44,0.561-0.935,0.704-1.518,0.704c-0.55,0-1.023-0.198-1.309-0.484
		c-0.539-0.539-0.66-1.375-0.66-2.255c0-0.881,0.121-1.717,0.66-2.256c0.286-0.286,0.77-0.473,1.32-0.473
		c0.594,0,1.078,0.132,1.518,0.704v-0.639h0.781v5.578C123.646,311.293,122.809,312.273,121.39,312.273z M121.511,305.012
		c-1.177,0-1.354,1.012-1.354,2.024c0,1.012,0.176,2.023,1.354,2.023c1.177,0,1.342-1.012,1.342-2.023
		C122.853,306.024,122.688,305.012,121.511,305.012z"/>
	<path fill="#BAA494" d="M127.517,311.096c-0.11,0.297-0.231,0.495-0.385,0.638c-0.286,0.275-0.671,0.374-1.056,0.374h-0.341v-0.704
		h0.242c0.55,0,0.715-0.176,0.891-0.671l0.385-1.057l-1.947-5.303h0.858l1.485,4.346l1.474-4.346h0.858L127.517,311.096z"/>
</g>
<g>
	<path fill="#BAA494" d="M98.555,324.791v-3.575h-3.719v3.575H94v-7.833h0.836v3.51h3.719v-3.51h0.836v7.833H98.555z"/>
	<path fill="#BAA494" d="M105.54,324.241c-0.374,0.374-0.891,0.616-1.551,0.616s-1.177-0.242-1.551-0.616
		c-0.55-0.562-0.66-1.32-0.66-2.156c0-0.837,0.11-1.596,0.66-2.156c0.374-0.374,0.891-0.616,1.551-0.616s1.177,0.242,1.551,0.616
		c0.55,0.561,0.66,1.319,0.66,2.156C106.2,322.92,106.089,323.679,105.54,324.241z M104.979,320.412
		c-0.253-0.253-0.605-0.396-0.99-0.396c-0.385,0-0.726,0.143-0.979,0.396c-0.396,0.396-0.44,1.067-0.44,1.673
		c0,0.604,0.044,1.275,0.44,1.672c0.253,0.253,0.594,0.396,0.979,0.396c0.385,0,0.737-0.144,0.99-0.396
		c0.396-0.396,0.429-1.067,0.429-1.672C105.407,321.479,105.375,320.808,104.979,320.412z"/>
	<path fill="#BAA494" d="M111.468,320.412c-0.297-0.297-0.517-0.396-0.935-0.396c-0.792,0-1.298,0.627-1.298,1.452v3.322h-0.792
		v-5.413h0.792v0.66c0.297-0.451,0.891-0.726,1.518-0.726c0.517,0,0.913,0.121,1.298,0.506L111.468,320.412z"/>
	<path fill="#BAA494" d="M120.577,324.791v-3.333c0-0.958-0.517-1.441-1.332-1.441c-0.792,0-1.353,0.495-1.353,1.353v3.422h-0.792
		v-3.333c0-0.958-0.517-1.441-1.332-1.441c-0.814,0-1.353,0.495-1.353,1.441v3.333h-0.792v-5.413h0.792v0.595
		c0.385-0.44,0.924-0.66,1.529-0.66c0.748,0,1.331,0.308,1.661,0.902c0.418-0.595,1.023-0.902,1.782-0.902
		c0.583,0,1.067,0.187,1.397,0.506c0.385,0.374,0.583,0.88,0.583,1.507v3.466H120.577z"/>
	<path fill="#BAA494" d="M127.308,324.241c-0.374,0.374-0.891,0.616-1.551,0.616s-1.177-0.242-1.551-0.616
		c-0.55-0.562-0.66-1.32-0.66-2.156c0-0.837,0.11-1.596,0.66-2.156c0.374-0.374,0.891-0.616,1.551-0.616s1.177,0.242,1.551,0.616
		c0.55,0.561,0.66,1.319,0.66,2.156C127.968,322.92,127.858,323.679,127.308,324.241z M126.747,320.412
		c-0.253-0.253-0.605-0.396-0.99-0.396c-0.385,0-0.726,0.143-0.979,0.396c-0.396,0.396-0.44,1.067-0.44,1.673
		c0,0.604,0.044,1.275,0.44,1.672c0.253,0.253,0.594,0.396,0.979,0.396c0.385,0,0.737-0.144,0.99-0.396
		c0.396-0.396,0.429-1.067,0.429-1.672C127.176,321.479,127.143,320.808,126.747,320.412z"/>
	<path fill="#BAA494" d="M133.666,324.791v-3.333c0-0.958-0.517-1.441-1.331-1.441s-1.342,0.495-1.342,1.441v3.333h-0.792v-5.413
		h0.792v0.595c0.385-0.44,0.913-0.66,1.518-0.66c0.583,0,1.056,0.176,1.386,0.506c0.385,0.374,0.561,0.88,0.561,1.507v3.466H133.666
		z"/>
	<path fill="#BAA494" d="M137.417,322.293c0,1.188,0.561,1.87,1.595,1.87c0.627,0,0.99-0.188,1.419-0.616l0.539,0.473
		c-0.55,0.551-1.056,0.837-1.98,0.837c-1.43,0-2.366-0.858-2.366-2.772c0-1.75,0.847-2.772,2.223-2.772
		c1.397,0,2.222,1.012,2.222,2.618v0.363H137.417z M140.112,320.797c-0.209-0.495-0.693-0.814-1.265-0.814
		c-0.572,0-1.056,0.319-1.265,0.814c-0.121,0.297-0.143,0.462-0.165,0.901h2.86C140.255,321.259,140.233,321.094,140.112,320.797z"
		/>
	<path fill="#BAA494" d="M144.996,324.857c-0.913,0-1.628-0.209-2.222-0.781l0.528-0.528c0.429,0.451,1.012,0.627,1.684,0.627
		c0.891,0,1.441-0.319,1.441-0.957c0-0.473-0.275-0.737-0.902-0.792l-0.891-0.077c-1.056-0.088-1.617-0.562-1.617-1.452
		c0-0.99,0.836-1.584,1.991-1.584c0.77,0,1.463,0.187,1.947,0.583l-0.517,0.517c-0.385-0.297-0.88-0.429-1.441-0.429
		c-0.792,0-1.21,0.341-1.21,0.891c0,0.463,0.264,0.737,0.946,0.793l0.869,0.076c0.946,0.089,1.595,0.451,1.595,1.464
		C147.196,324.251,146.305,324.857,144.996,324.857z"/>
</g>
<g>
	<path fill="#BAA494" d="M96.442,339.861c-0.771,0-1.475-0.286-2.002-0.814c-0.737-0.737-0.737-1.507-0.737-3.169
		c0-1.661,0-2.431,0.737-3.168c0.528-0.528,1.232-0.814,2.002-0.814c1.408,0,2.453,0.858,2.717,2.333h-0.858
		c-0.209-0.958-0.88-1.585-1.859-1.585c-0.517,0-1.012,0.198-1.354,0.551c-0.495,0.506-0.55,1.045-0.55,2.684
		c0,1.64,0.055,2.179,0.55,2.685c0.341,0.353,0.836,0.551,1.354,0.551c0.979,0,1.672-0.628,1.881-1.585h0.836
		C98.907,339.002,97.839,339.861,96.442,339.861z"/>
	<path fill="#BAA494" d="M104.879,339.794v-3.345c0-0.946-0.506-1.43-1.32-1.43c-0.814,0-1.353,0.495-1.353,1.43v3.345h-0.792
		v-7.833h0.792v3.015c0.396-0.451,0.913-0.66,1.518-0.66c1.221,0,1.947,0.781,1.947,2.002v3.477H104.879z"/>
	<path fill="#BAA494" d="M108.641,337.297c0,1.188,0.561,1.87,1.595,1.87c0.627,0,0.99-0.188,1.419-0.616l0.539,0.473
		c-0.55,0.551-1.056,0.837-1.98,0.837c-1.43,0-2.366-0.858-2.366-2.772c0-1.75,0.847-2.772,2.223-2.772
		c1.397,0,2.222,1.012,2.222,2.618v0.363H108.641z M111.336,335.801c-0.209-0.495-0.693-0.814-1.265-0.814
		c-0.572,0-1.056,0.319-1.265,0.814c-0.121,0.297-0.143,0.462-0.165,0.901h2.86C111.479,336.263,111.458,336.098,111.336,335.801z"
		/>
	<path fill="#BAA494" d="M121.479,339.794v-3.333c0-0.958-0.517-1.441-1.332-1.441c-0.792,0-1.353,0.495-1.353,1.353v3.422h-0.792
		v-3.333c0-0.958-0.517-1.441-1.332-1.441c-0.814,0-1.353,0.495-1.353,1.441v3.333h-0.792v-5.413h0.792v0.595
		c0.385-0.44,0.924-0.66,1.529-0.66c0.748,0,1.331,0.308,1.661,0.902c0.418-0.595,1.023-0.902,1.782-0.902
		c0.583,0,1.067,0.187,1.397,0.506c0.385,0.374,0.583,0.88,0.583,1.507v3.466H121.479z"/>
	<path fill="#BAA494" d="M124.69,332.841v-0.891h0.891v0.891H124.69z M124.734,339.794v-5.413h0.792v5.413H124.734z"/>
	<path fill="#BAA494" d="M130.168,339.861c-1.364,0-2.398-0.925-2.398-2.772c0-1.849,1.034-2.772,2.398-2.772
		c0.748,0,1.221,0.197,1.782,0.803l-0.539,0.506c-0.407-0.451-0.726-0.604-1.243-0.604c-0.528,0-0.968,0.209-1.254,0.616
		c-0.253,0.352-0.352,0.77-0.352,1.452c0,0.682,0.099,1.1,0.352,1.452c0.286,0.407,0.726,0.616,1.254,0.616
		c0.517,0,0.836-0.165,1.243-0.616l0.539,0.517C131.389,339.663,130.916,339.861,130.168,339.861z"/>
	<path fill="#BAA494" d="M136.944,339.794v-0.517c-0.44,0.439-0.836,0.583-1.562,0.583c-0.749,0-1.188-0.144-1.529-0.495
		c-0.264-0.265-0.407-0.672-0.407-1.101c0-0.946,0.66-1.562,1.87-1.562h1.628v-0.517c0-0.792-0.396-1.188-1.386-1.188
		c-0.693,0-1.045,0.165-1.364,0.616l-0.539-0.495c0.484-0.627,1.034-0.803,1.915-0.803c1.452,0,2.167,0.627,2.167,1.804v3.675
		H136.944z M136.944,337.297h-1.518c-0.814,0-1.21,0.33-1.21,0.957s0.385,0.924,1.243,0.924c0.462,0,0.869-0.033,1.21-0.363
		c0.187-0.176,0.275-0.483,0.275-0.935V337.297z"/>
	<path fill="#BAA494" d="M141.563,339.794c-0.946,0-1.375-0.616-1.375-1.441v-6.392h0.792v6.358c0,0.528,0.176,0.793,0.726,0.793
		h0.429v0.682H141.563z"/>
	<path fill="#BAA494" d="M152.025,339.794l-0.627-1.771h-3.421l-0.627,1.771h-0.891l2.883-7.833h0.704l2.871,7.833H152.025z
		 M149.704,333.161l-1.474,4.137h2.926L149.704,333.161z"/>
	<path fill="#BAA494" d="M156.326,342.281c-0.814,0-1.265-0.209-1.837-0.727l0.517-0.506c0.396,0.353,0.671,0.539,1.298,0.539
		c1.045,0,1.485-0.736,1.485-1.661v-0.847c-0.44,0.561-0.935,0.704-1.518,0.704c-0.55,0-1.023-0.198-1.309-0.484
		c-0.539-0.539-0.66-1.375-0.66-2.255c0-0.881,0.121-1.717,0.66-2.256c0.286-0.286,0.77-0.473,1.32-0.473
		c0.594,0,1.078,0.132,1.518,0.704v-0.639h0.781v5.578C158.581,341.301,157.745,342.281,156.326,342.281z M156.447,335.02
		c-1.177,0-1.354,1.012-1.354,2.024c0,1.012,0.176,2.023,1.354,2.023c1.177,0,1.342-1.012,1.342-2.023
		C157.789,336.032,157.624,335.02,156.447,335.02z"/>
	<path fill="#BAA494" d="M161.605,337.297c0,1.188,0.561,1.87,1.595,1.87c0.627,0,0.99-0.188,1.419-0.616l0.539,0.473
		c-0.55,0.551-1.056,0.837-1.98,0.837c-1.43,0-2.366-0.858-2.366-2.772c0-1.75,0.847-2.772,2.223-2.772
		c1.397,0,2.222,1.012,2.222,2.618v0.363H161.605z M164.301,335.801c-0.209-0.495-0.693-0.814-1.265-0.814
		c-0.572,0-1.056,0.319-1.265,0.814c-0.121,0.297-0.143,0.462-0.165,0.901h2.86C164.444,336.263,164.422,336.098,164.301,335.801z"
		/>
	<path fill="#BAA494" d="M170.956,339.794v-3.333c0-0.958-0.517-1.441-1.331-1.441s-1.342,0.495-1.342,1.441v3.333h-0.792v-5.413
		h0.792v0.595c0.385-0.44,0.913-0.66,1.518-0.66c0.583,0,1.056,0.176,1.386,0.506c0.385,0.374,0.561,0.88,0.561,1.507v3.466H170.956
		z"/>
	<path fill="#BAA494" d="M175.729,339.794c-0.924,0-1.386-0.649-1.386-1.452v-3.322h-0.682v-0.605h0.682v-1.694h0.792v1.694h1.155
		v0.605h-1.155v3.3c0,0.495,0.231,0.793,0.737,0.793h0.418v0.682H175.729z"/>
	<path fill="#BAA494" d="M180.118,339.861c-0.913,0-1.628-0.209-2.222-0.781l0.528-0.528c0.429,0.451,1.012,0.627,1.684,0.627
		c0.891,0,1.441-0.319,1.441-0.957c0-0.473-0.275-0.737-0.902-0.792l-0.891-0.077c-1.056-0.088-1.617-0.562-1.617-1.452
		c0-0.99,0.836-1.584,1.991-1.584c0.77,0,1.463,0.187,1.947,0.583l-0.517,0.517c-0.385-0.297-0.88-0.429-1.441-0.429
		c-0.792,0-1.21,0.341-1.21,0.891c0,0.463,0.264,0.737,0.946,0.793l0.869,0.076c0.946,0.089,1.595,0.451,1.595,1.464
		C182.318,339.255,181.427,339.861,180.118,339.861z"/>
</g>
<g>
	<path fill="#BAA494" d="M94.836,347.713v2.883h3.433v0.748h-3.433v3.454H94v-7.833h4.863v0.748H94.836z"/>
	<path fill="#BAA494" d="M100.743,347.845v-0.891h0.891v0.891H100.743z M100.787,354.798v-5.413h0.792v5.413H100.787z"/>
	<path fill="#BAA494" d="M105.638,354.798c-0.924,0-1.386-0.649-1.386-1.452v-3.322h-0.682v-0.605h0.682v-1.694h0.792v1.694h1.155
		v0.605h-1.155v3.3c0,0.495,0.231,0.793,0.737,0.793h0.418v0.682H105.638z"/>
	<path fill="#BAA494" d="M111.787,354.798v-3.333c0-0.958-0.517-1.441-1.331-1.441s-1.342,0.495-1.342,1.441v3.333h-0.792v-5.413
		h0.792v0.595c0.385-0.44,0.913-0.66,1.518-0.66c0.583,0,1.056,0.176,1.386,0.506c0.385,0.374,0.561,0.88,0.561,1.507v3.466H111.787
		z"/>
	<path fill="#BAA494" d="M115.538,352.301c0,1.188,0.561,1.87,1.595,1.87c0.627,0,0.99-0.188,1.419-0.616l0.539,0.473
		c-0.55,0.551-1.056,0.837-1.98,0.837c-1.43,0-2.366-0.858-2.366-2.772c0-1.75,0.847-2.772,2.223-2.772
		c1.397,0,2.222,1.012,2.222,2.618v0.363H115.538z M118.233,350.805c-0.209-0.495-0.693-0.814-1.265-0.814
		c-0.572,0-1.056,0.319-1.265,0.814c-0.121,0.297-0.143,0.462-0.165,0.901h2.86C118.376,351.267,118.354,351.102,118.233,350.805z"
		/>
	<path fill="#BAA494" d="M123.117,354.865c-0.913,0-1.628-0.209-2.222-0.781l0.528-0.528c0.429,0.451,1.012,0.627,1.684,0.627
		c0.891,0,1.441-0.319,1.441-0.957c0-0.473-0.275-0.737-0.902-0.792l-0.891-0.077c-1.056-0.088-1.617-0.562-1.617-1.452
		c0-0.99,0.836-1.584,1.991-1.584c0.77,0,1.463,0.187,1.947,0.583l-0.517,0.517c-0.385-0.297-0.88-0.429-1.441-0.429
		c-0.792,0-1.21,0.341-1.21,0.891c0,0.463,0.264,0.737,0.946,0.793l0.869,0.076c0.946,0.089,1.595,0.451,1.595,1.464
		C125.317,354.259,124.426,354.865,123.117,354.865z"/>
	<path fill="#BAA494" d="M128.946,354.865c-0.913,0-1.628-0.209-2.222-0.781l0.528-0.528c0.429,0.451,1.012,0.627,1.684,0.627
		c0.891,0,1.441-0.319,1.441-0.957c0-0.473-0.275-0.737-0.902-0.792l-0.891-0.077c-1.056-0.088-1.617-0.562-1.617-1.452
		c0-0.99,0.836-1.584,1.991-1.584c0.77,0,1.463,0.187,1.947,0.583l-0.517,0.517c-0.385-0.297-0.88-0.429-1.441-0.429
		c-0.792,0-1.21,0.341-1.21,0.891c0,0.463,0.264,0.737,0.946,0.793l0.869,0.076c0.946,0.089,1.595,0.451,1.595,1.464
		C131.146,354.259,130.255,354.865,128.946,354.865z"/>
</g>
<g>
	<path fill="#BAA494" d="M96.916,366.579h-2.08v3.224H94v-7.833h2.916c1.43,0,2.42,0.891,2.42,2.299S98.346,366.579,96.916,366.579z
		 M96.838,362.717h-2.002v3.113h2.002c0.979,0,1.661-0.528,1.661-1.562S97.817,362.717,96.838,362.717z"/>
	<path fill="#BAA494" d="M102.932,369.869c-0.913,0-1.628-0.209-2.222-0.781l0.528-0.528c0.429,0.451,1.012,0.627,1.684,0.627
		c0.891,0,1.441-0.319,1.441-0.957c0-0.473-0.275-0.737-0.902-0.792l-0.891-0.077c-1.056-0.088-1.617-0.562-1.617-1.452
		c0-0.99,0.836-1.584,1.991-1.584c0.77,0,1.463,0.187,1.947,0.583l-0.517,0.517c-0.385-0.297-0.88-0.429-1.441-0.429
		c-0.792,0-1.21,0.341-1.21,0.891c0,0.463,0.264,0.737,0.946,0.793l0.869,0.076c0.946,0.089,1.595,0.451,1.595,1.464
		C105.132,369.263,104.241,369.869,102.932,369.869z"/>
	<path fill="#BAA494" d="M108.575,371.112c-0.11,0.297-0.231,0.495-0.385,0.638c-0.286,0.275-0.671,0.374-1.056,0.374h-0.341v-0.704
		h0.242c0.55,0,0.715-0.176,0.891-0.671l0.385-1.057l-1.947-5.303h0.858l1.485,4.346l1.474-4.346h0.858L108.575,371.112z"/>
	<path fill="#BAA494" d="M114.69,369.869c-1.364,0-2.398-0.925-2.398-2.772c0-1.849,1.034-2.772,2.398-2.772
		c0.748,0,1.221,0.197,1.782,0.803l-0.539,0.506c-0.407-0.451-0.726-0.604-1.243-0.604c-0.528,0-0.968,0.209-1.254,0.616
		c-0.253,0.352-0.352,0.77-0.352,1.452c0,0.682,0.099,1.1,0.352,1.452c0.286,0.407,0.726,0.616,1.254,0.616
		c0.517,0,0.836-0.165,1.243-0.616l0.539,0.517C115.912,369.67,115.438,369.869,114.69,369.869z"/>
	<path fill="#BAA494" d="M121.995,369.802v-3.345c0-0.946-0.506-1.43-1.32-1.43c-0.814,0-1.353,0.495-1.353,1.43v3.345h-0.792
		v-7.833h0.792v3.015c0.396-0.451,0.913-0.66,1.518-0.66c1.221,0,1.947,0.781,1.947,2.002v3.477H121.995z"/>
	<path fill="#BAA494" d="M128.727,369.252c-0.374,0.374-0.891,0.616-1.551,0.616s-1.177-0.242-1.551-0.616
		c-0.55-0.562-0.66-1.32-0.66-2.156c0-0.837,0.11-1.596,0.66-2.156c0.374-0.374,0.891-0.616,1.551-0.616s1.177,0.242,1.551,0.616
		c0.55,0.561,0.66,1.319,0.66,2.156C129.387,367.932,129.277,368.691,128.727,369.252z M128.166,365.423
		c-0.253-0.253-0.605-0.396-0.99-0.396c-0.385,0-0.726,0.143-0.979,0.396c-0.396,0.396-0.44,1.067-0.44,1.673
		c0,0.604,0.044,1.275,0.44,1.672c0.253,0.253,0.594,0.396,0.979,0.396c0.385,0,0.737-0.144,0.99-0.396
		c0.396-0.396,0.429-1.067,0.429-1.672C128.595,366.491,128.562,365.82,128.166,365.423z"/>
	<path fill="#BAA494" d="M132.973,369.802c-0.946,0-1.375-0.616-1.375-1.441v-6.392h0.792v6.358c0,0.528,0.176,0.793,0.726,0.793
		h0.429v0.682H132.973z"/>
	<path fill="#BAA494" d="M138.693,369.252c-0.374,0.374-0.891,0.616-1.551,0.616s-1.177-0.242-1.551-0.616
		c-0.55-0.562-0.66-1.32-0.66-2.156c0-0.837,0.11-1.596,0.66-2.156c0.374-0.374,0.891-0.616,1.551-0.616s1.177,0.242,1.551,0.616
		c0.55,0.561,0.66,1.319,0.66,2.156C139.353,367.932,139.243,368.691,138.693,369.252z M138.132,365.423
		c-0.253-0.253-0.605-0.396-0.99-0.396c-0.385,0-0.726,0.143-0.979,0.396c-0.396,0.396-0.44,1.067-0.44,1.673
		c0,0.604,0.044,1.275,0.44,1.672c0.253,0.253,0.594,0.396,0.979,0.396c0.385,0,0.737-0.144,0.99-0.396
		c0.396-0.396,0.429-1.067,0.429-1.672C138.561,366.491,138.528,365.82,138.132,365.423z"/>
	<path fill="#BAA494" d="M143.334,372.289c-0.814,0-1.265-0.209-1.837-0.727l0.517-0.506c0.396,0.353,0.671,0.539,1.298,0.539
		c1.045,0,1.485-0.736,1.485-1.661v-0.847c-0.44,0.561-0.935,0.704-1.518,0.704c-0.55,0-1.023-0.198-1.309-0.484
		c-0.539-0.539-0.66-1.375-0.66-2.255c0-0.881,0.121-1.717,0.66-2.256c0.286-0.286,0.77-0.473,1.32-0.473
		c0.594,0,1.078,0.132,1.518,0.704v-0.639h0.781v5.578C145.59,371.309,144.753,372.289,143.334,372.289z M143.456,365.028
		c-1.177,0-1.354,1.012-1.354,2.024c0,1.012,0.176,2.023,1.354,2.023c1.177,0,1.342-1.012,1.342-2.023
		C144.797,366.04,144.632,365.028,143.456,365.028z"/>
	<path fill="#BAA494" d="M149.451,371.112c-0.11,0.297-0.231,0.495-0.385,0.638c-0.286,0.275-0.671,0.374-1.056,0.374h-0.341v-0.704
		h0.242c0.55,0,0.715-0.176,0.891-0.671l0.385-1.057l-1.947-5.303h0.858l1.485,4.346l1.474-4.346h0.858L149.451,371.112z"/>
</g>
<g opacity="0.75">
	<path fill="none" stroke="#AE1821" stroke-width="0.75" stroke-miterlimit="10" d="M96.076,203.961c0,0-2.835,0-2.835,2.835v35.777
		c0,0,0,2.835,2.835,2.835h129.581c0,0,2.834,0,2.834-2.835v-35.777c0,0,0-2.835-2.834-2.835H96.076z"/>
	<rect x="83.867" y="196.586" fill="none" width="154" height="50.197"/>
	<g>
		<path fill="#262625" d="M146.583,229.65v-4.226h-4.394v4.226h-0.988v-9.256h0.988v4.146h4.394v-4.146h0.988v9.256H146.583z"/>
		<path fill="#262625" d="M151.315,226.699c0,1.404,0.663,2.21,1.885,2.21c0.741,0,1.17-0.221,1.677-0.728l0.637,0.559
			c-0.65,0.65-1.248,0.988-2.34,0.988c-1.69,0-2.795-1.014-2.795-3.276c0-2.067,1.001-3.276,2.626-3.276
			c1.651,0,2.626,1.196,2.626,3.095v0.429H151.315z M154.5,224.931c-0.247-0.586-0.819-0.963-1.495-0.963
			c-0.676,0-1.248,0.377-1.495,0.963c-0.143,0.351-0.169,0.546-0.195,1.065h3.38C154.669,225.477,154.643,225.282,154.5,224.931z"/>
		<path fill="#262625" d="M161.885,229.65v-0.611c-0.52,0.521-0.988,0.689-1.846,0.689c-0.884,0-1.404-0.169-1.807-0.585
			c-0.312-0.312-0.481-0.793-0.481-1.3c0-1.118,0.78-1.847,2.21-1.847h1.924v-0.61c0-0.937-0.468-1.404-1.638-1.404
			c-0.819,0-1.235,0.194-1.612,0.728l-0.637-0.585c0.572-0.741,1.222-0.949,2.262-0.949c1.716,0,2.562,0.741,2.562,2.133v4.342
			H161.885z M161.885,226.699h-1.794c-0.962,0-1.43,0.39-1.43,1.131s0.455,1.092,1.469,1.092c0.546,0,1.027-0.038,1.43-0.429
			c0.221-0.208,0.325-0.572,0.325-1.104V226.699z"/>
		<path fill="#262625" d="M167.344,229.65c-1.118,0-1.625-0.729-1.625-1.703v-7.553h0.936v7.514c0,0.624,0.208,0.937,0.858,0.937
			h0.507v0.806H167.344z"/>
		<path fill="#262625" d="M172.05,229.65c-1.092,0-1.638-0.767-1.638-1.716v-3.927h-0.806v-0.715h0.806v-2.002h0.936v2.002h1.365
			v0.715h-1.365v3.9c0,0.585,0.273,0.937,0.871,0.937h0.494v0.806H172.05z"/>
		<path fill="#262625" d="M179.317,229.65v-3.952c0-1.118-0.598-1.69-1.56-1.69s-1.599,0.585-1.599,1.69v3.952h-0.936v-9.256h0.936
			v3.562c0.468-0.533,1.079-0.78,1.794-0.78c1.443,0,2.301,0.924,2.301,2.366v4.108H179.317z"/>
	</g>
</g>
<g opacity="0.75">
	<g>
		<path fill="#262625" d="M413.146,229.65l-0.741-2.093h-4.043l-0.741,2.093h-1.053l3.405-9.256h0.832l3.394,9.256H413.146z
			 M410.403,221.811l-1.742,4.888h3.458L410.403,221.811z"/>
		<path fill="#262625" d="M417.761,229.65c-1.118,0-1.625-0.729-1.625-1.703v-7.553h0.937v7.514c0,0.624,0.208,0.937,0.857,0.937
			h0.508v0.806H417.761z"/>
		<path fill="#262625" d="M422.454,229.65c-1.093,0-1.639-0.767-1.639-1.716v-3.927h-0.806v-0.715h0.806v-2.002h0.937v2.002h1.364
			v0.715h-1.364v3.9c0,0.585,0.272,0.937,0.871,0.937h0.493v0.806H422.454z"/>
		<path fill="#262625" d="M426.106,226.699c0,1.404,0.663,2.21,1.885,2.21c0.741,0,1.17-0.221,1.678-0.728l0.637,0.559
			c-0.65,0.65-1.248,0.988-2.34,0.988c-1.69,0-2.796-1.014-2.796-3.276c0-2.067,1.002-3.276,2.627-3.276
			c1.65,0,2.626,1.196,2.626,3.095v0.429H426.106z M429.292,224.931c-0.247-0.586-0.819-0.963-1.495-0.963
			c-0.677,0-1.248,0.377-1.495,0.963c-0.144,0.351-0.169,0.546-0.195,1.065h3.38C429.461,225.477,429.435,225.282,429.292,224.931z"
			/>
		<path fill="#262625" d="M436.624,224.476c-0.352-0.352-0.611-0.469-1.105-0.469c-0.936,0-1.534,0.741-1.534,1.717v3.926h-0.936
			v-6.396h0.936v0.78c0.352-0.533,1.054-0.858,1.795-0.858c0.61,0,1.078,0.144,1.533,0.599L436.624,224.476z"/>
		<path fill="#262625" d="M443.267,229.65v-3.939c0-1.131-0.611-1.703-1.573-1.703s-1.586,0.585-1.586,1.703v3.939h-0.937v-6.396
			h0.937v0.702c0.455-0.52,1.079-0.78,1.794-0.78c0.689,0,1.248,0.208,1.638,0.599c0.455,0.441,0.663,1.04,0.663,1.781v4.095
			H443.267z"/>
		<path fill="#262625" d="M450.742,229.65v-0.611c-0.521,0.521-0.988,0.689-1.847,0.689c-0.884,0-1.404-0.169-1.807-0.585
			c-0.312-0.312-0.481-0.793-0.481-1.3c0-1.118,0.78-1.847,2.21-1.847h1.925v-0.61c0-0.937-0.469-1.404-1.639-1.404
			c-0.818,0-1.234,0.194-1.612,0.728l-0.637-0.585c0.572-0.741,1.223-0.949,2.263-0.949c1.716,0,2.561,0.741,2.561,2.133v4.342
			H450.742z M450.742,226.699h-1.795c-0.962,0-1.43,0.39-1.43,1.131s0.455,1.092,1.469,1.092c0.547,0,1.027-0.038,1.431-0.429
			c0.221-0.208,0.325-0.572,0.325-1.104V226.699z"/>
		<path fill="#262625" d="M456.396,229.65c-1.092,0-1.638-0.767-1.638-1.716v-3.927h-0.807v-0.715h0.807v-2.002h0.936v2.002h1.365
			v0.715h-1.365v3.9c0,0.585,0.273,0.937,0.871,0.937h0.494v0.806H456.396z"/>
		<path fill="#262625" d="M459.517,221.433v-1.053h1.053v1.053H459.517z M459.568,229.65v-6.396h0.936v6.396H459.568z"/>
		<path fill="#262625" d="M465.651,229.65h-0.832l-2.34-6.396h1.015l1.741,5.136l1.756-5.136h1.014L465.651,229.65z"/>
		<path fill="#262625" d="M470.423,226.699c0,1.404,0.663,2.21,1.885,2.21c0.741,0,1.17-0.221,1.678-0.728l0.637,0.559
			c-0.65,0.65-1.248,0.988-2.34,0.988c-1.69,0-2.796-1.014-2.796-3.276c0-2.067,1.002-3.276,2.627-3.276
			c1.65,0,2.626,1.196,2.626,3.095v0.429H470.423z M473.608,224.931c-0.247-0.586-0.819-0.963-1.495-0.963
			c-0.677,0-1.248,0.377-1.495,0.963c-0.144,0.351-0.169,0.546-0.195,1.065h3.38C473.777,225.477,473.751,225.282,473.608,224.931z"
			/>
		<path fill="#262625" d="M488.363,229.65v-7.033l-2.535,5.577h-0.845l-2.574-5.577v7.033h-0.988v-9.256h0.988l3.016,6.564
			l2.938-6.564h0.988v9.256H488.363z"/>
		<path fill="#262625" d="M492.458,221.433v-1.053h1.053v1.053H492.458z M492.51,229.65v-6.396h0.937v6.396H492.51z"/>
		<path fill="#262625" d="M498.048,229.65c-1.118,0-1.626-0.729-1.626-1.703v-7.553h0.937v7.514c0,0.624,0.208,0.937,0.858,0.937
			h0.507v0.806H498.048z"/>
		<path fill="#262625" d="M505.172,229.65l-2.027-3.276l-1.248,1.431v1.846h-0.937v-9.256h0.937v6.188l2.886-3.328h1.17
			l-2.171,2.444l2.548,3.952H505.172z"/>
	</g>
	<path fill="none" stroke="#AE1821" stroke-width="0.75" stroke-miterlimit="10" d="M392.076,203.961c0,0-2.835,0-2.835,2.835
		v35.777c0,0,0,2.835,2.835,2.835h129.581c0,0,2.834,0,2.834-2.835v-35.777c0,0,0-2.835-2.834-2.835H392.076z"/>
	<rect x="379.867" y="196.586" fill="none" width="154" height="50.197"/>
</g>
<g opacity="0.75">
	<g>
		<defs>
			<rect id="SVGID_13_" x="379.867" y="135.009" width="154" height="34.484"/>
		</defs>
		<clipPath id="SVGID_14_">
			<use xlink:href="#SVGID_13_"  overflow="visible"/>
		</clipPath>
		<g clip-path="url(#SVGID_14_)">
			<path fill="#262625" d="M428.713,160.216v-7.033l-2.535,5.577h-0.845l-2.574-5.577v7.033h-0.988v-9.256h0.988l3.017,6.564
				l2.938-6.564h0.988v9.256H428.713z"/>
			<path fill="#262625" d="M436.968,159.566c-0.441,0.442-1.053,0.729-1.833,0.729s-1.391-0.286-1.833-0.729
				c-0.65-0.663-0.78-1.56-0.78-2.548s0.13-1.885,0.78-2.548c0.442-0.442,1.053-0.729,1.833-0.729s1.392,0.286,1.833,0.729
				c0.65,0.663,0.78,1.56,0.78,2.548S437.618,158.903,436.968,159.566z M436.305,155.042c-0.299-0.3-0.715-0.469-1.17-0.469
				s-0.858,0.169-1.157,0.469c-0.468,0.468-0.52,1.261-0.52,1.976s0.052,1.508,0.52,1.977c0.299,0.299,0.702,0.468,1.157,0.468
				s0.871-0.169,1.17-0.468c0.468-0.469,0.507-1.262,0.507-1.977S436.772,155.51,436.305,155.042z"/>
			<path fill="#262625" d="M442.181,160.216c-1.092,0-1.638-0.767-1.638-1.716v-3.927h-0.807v-0.715h0.807v-2.002h0.936v2.002h1.365
				v0.715h-1.365v3.9c0,0.585,0.273,0.937,0.871,0.937h0.494v0.806H442.181z"/>
			<path fill="#262625" d="M445.301,152v-1.053h1.053V152H445.301z M445.353,160.216v-6.396h0.936v6.396H445.353z"/>
			<path fill="#262625" d="M451.437,160.216h-0.832l-2.34-6.396h1.014l1.742,5.136l1.755-5.136h1.015L451.437,160.216z"/>
			<path fill="#262625" d="M459.236,160.216v-0.611c-0.52,0.521-0.988,0.689-1.846,0.689c-0.885,0-1.404-0.169-1.808-0.585
				c-0.312-0.312-0.48-0.793-0.48-1.3c0-1.118,0.779-1.847,2.21-1.847h1.924v-0.61c0-0.937-0.468-1.404-1.638-1.404
				c-0.819,0-1.235,0.194-1.612,0.728l-0.637-0.585c0.571-0.741,1.222-0.949,2.262-0.949c1.716,0,2.562,0.741,2.562,2.133v4.342
				H459.236z M459.236,157.265h-1.794c-0.962,0-1.43,0.39-1.43,1.131s0.455,1.092,1.469,1.092c0.546,0,1.027-0.038,1.43-0.429
				c0.222-0.208,0.325-0.572,0.325-1.104V157.265z"/>
			<path fill="#262625" d="M464.892,160.216c-1.093,0-1.639-0.767-1.639-1.716v-3.927h-0.806v-0.715h0.806v-2.002h0.937v2.002h1.364
				v0.715h-1.364v3.9c0,0.585,0.272,0.937,0.871,0.937h0.493v0.806H464.892z"/>
			<path fill="#262625" d="M468.011,152v-1.053h1.053V152H468.011z M468.062,160.216v-6.396h0.937v6.396H468.062z"/>
			<path fill="#262625" d="M476.11,159.566c-0.442,0.442-1.054,0.729-1.833,0.729c-0.78,0-1.392-0.286-1.833-0.729
				c-0.65-0.663-0.78-1.56-0.78-2.548s0.13-1.885,0.78-2.548c0.441-0.442,1.053-0.729,1.833-0.729c0.779,0,1.391,0.286,1.833,0.729
				c0.649,0.663,0.78,1.56,0.78,2.548S476.76,158.903,476.11,159.566z M475.447,155.042c-0.299-0.3-0.715-0.469-1.17-0.469
				s-0.858,0.169-1.157,0.469c-0.468,0.468-0.521,1.261-0.521,1.976s0.053,1.508,0.521,1.977c0.299,0.299,0.702,0.468,1.157,0.468
				s0.871-0.169,1.17-0.468c0.468-0.469,0.507-1.262,0.507-1.977S475.915,155.51,475.447,155.042z"/>
			<path fill="#262625" d="M483.625,160.216v-3.939c0-1.131-0.611-1.703-1.573-1.703s-1.586,0.585-1.586,1.703v3.939h-0.937v-6.396
				h0.937v0.702c0.455-0.52,1.079-0.78,1.794-0.78c0.688,0,1.248,0.208,1.638,0.599c0.455,0.441,0.663,1.04,0.663,1.781v4.095
				H483.625z"/>
			<path fill="#262625" d="M489.501,160.294c-1.079,0-1.925-0.247-2.627-0.923l0.624-0.624c0.508,0.533,1.196,0.74,1.989,0.74
				c1.054,0,1.703-0.377,1.703-1.131c0-0.559-0.325-0.871-1.065-0.936l-1.054-0.091c-1.248-0.104-1.911-0.663-1.911-1.717
				c0-1.17,0.988-1.872,2.354-1.872c0.91,0,1.729,0.222,2.301,0.689l-0.611,0.611c-0.454-0.352-1.039-0.508-1.702-0.508
				c-0.937,0-1.431,0.403-1.431,1.054c0,0.546,0.312,0.871,1.118,0.936l1.027,0.091c1.118,0.104,1.885,0.533,1.885,1.729
				C492.101,159.58,491.048,160.294,489.501,160.294z"/>
		</g>
		<path clip-path="url(#SVGID_14_)" fill="none" stroke="#AE1821" stroke-width="0.75" stroke-miterlimit="10" d="M392.076,142.384
			c0,0-2.835,0-2.835,2.835v20.064c0,0,0,2.835,2.835,2.835h129.581c0,0,2.834,0,2.834-2.835v-20.064c0,0,0-2.835-2.834-2.835
			H392.076z"/>
	</g>
</g>
</svg>
