<?xml version="1.0" encoding="utf-8"?>
<!-- Generator: Adobe Illustrator 19.0.0, SVG Export Plug-In . SVG Version: 6.00 Build 0)  -->
<svg version="1.1" id="Livello_1" xmlns="http://www.w3.org/2000/svg" xmlns:xlink="http://www.w3.org/1999/xlink" x="0px" y="0px"
	 viewBox="0 0 1280 800" style="enable-background:new 0 0 1280 800;" xml:space="preserve">
<style type="text/css">
	.st0{fill:none;stroke:#DADADA;stroke-width:2;stroke-miterlimit:10;}
</style>
<g id="Fragola">
	<path id="XMLID_20_" class="st0" d="M783.8,322.7L783.8,322.7l-19.1-19.1l0,0c0,0,0,0-0.1-0.1c-1.1-1.1-2.9-1.1-4,0
		c-0.4,0.4-0.6,0.9-0.8,1.3l0,0l-7.1,26.3c-0.1,0.8,0.1,1.8,0.8,2.5c0.6,0.6,1.6,0.9,2.5,0.8l26.7-7.2c0.4-0.1,0.8-0.4,1.1-0.6
		C784.9,325.6,784.8,323.8,783.8,322.7z M762.7,313.6c-0.6-0.6-0.6-1.4,0-2c0.6-0.6,1.4-0.6,2,0s0.6,1.4,0,2
		S763.2,314.1,762.7,313.6z M761.9,319.8c-0.6-0.6-0.6-1.4,0-2c0.6-0.6,1.4-0.6,2,0s0.6,1.4,0,2S762.5,320.4,761.9,319.8z
		 M761.1,326.1c-0.6-0.6-0.6-1.4,0-2c0.6-0.6,1.4-0.6,2,0c0.6,0.6,0.6,1.4,0,2C762.6,326.6,761.7,326.7,761.1,326.1z M768.2,319.1
		c-0.6-0.6-0.6-1.4,0-2c0.6-0.6,1.4-0.6,2,0s0.6,1.4,0,2S768.8,319.6,768.2,319.1z M767.4,325.4c-0.6-0.6-0.6-1.4,0-2s1.4-0.6,2,0
		s0.6,1.4,0,2S768,325.9,767.4,325.4z M773.7,324.6c-0.6-0.6-0.6-1.4,0-2s1.4-0.6,2,0c0.6,0.6,0.6,1.4,0,2
		C775.1,325.2,774.3,325.2,773.7,324.6z"/>
	<polyline id="XMLID_16_" class="st0" points="774.8,302.2 773.7,308.5 779.9,307.3 778.9,313.6 785.1,312.5 	"/>
</g>
<g id="Fragola_4_">
	<path id="XMLID_54_" class="st0" d="M1028.2,512.6L1028.2,512.6l-19.1-19.1l0,0c0,0,0,0-0.1-0.1c-1.1-1.1-2.9-1.1-4,0
		c-0.4,0.4-0.6,0.9-0.8,1.3l0,0l-7.1,26.3c-0.1,0.8,0.1,1.8,0.8,2.5c0.6,0.6,1.6,0.9,2.5,0.8l26.7-7.2c0.4-0.1,0.8-0.4,1.1-0.6
		C1029.3,515.5,1029.2,513.7,1028.2,512.6z M1007.1,503.4c-0.6-0.6-0.6-1.4,0-2c0.6-0.6,1.4-0.6,2,0c0.6,0.6,0.6,1.4,0,2
		C1008.5,504,1007.7,504,1007.1,503.4z M1006.3,509.7c-0.6-0.6-0.6-1.4,0-2c0.6-0.6,1.4-0.6,2,0c0.6,0.6,0.6,1.4,0,2
		S1006.9,510.3,1006.3,509.7z M1005.6,516c-0.6-0.6-0.6-1.4,0-2c0.6-0.6,1.4-0.6,2,0c0.6,0.6,0.6,1.4,0,2
		C1007,516.5,1006.1,516.6,1005.6,516z M1012.6,509c-0.6-0.6-0.6-1.4,0-2s1.4-0.6,2,0c0.6,0.6,0.6,1.4,0,2
		C1014,509.5,1013.2,509.5,1012.6,509z M1011.8,515.3c-0.6-0.6-0.6-1.4,0-2s1.4-0.6,2,0s0.6,1.4,0,2S1012.4,515.8,1011.8,515.3z
		 M1018.1,514.5c-0.6-0.6-0.6-1.4,0-2c0.6-0.6,1.4-0.6,2,0s0.6,1.4,0,2C1019.6,515,1018.7,515,1018.1,514.5z"/>
	<polyline id="XMLID_53_" class="st0" points="1019.2,492.1 1018.1,498.4 1024.4,497.2 1023.3,503.5 1029.5,502.4 	"/>
</g>
<g id="Fragola_1_">
	<path id="XMLID_62_" class="st0" d="M654.6,250.9L654.6,250.9L635.5,270l0,0c0,0,0,0-0.1,0c-1.1,1.1-1.1,2.9,0,4
		c0.4,0.4,0.9,0.6,1.4,0.8l0,0l26.4,7.1c0.9,0.1,1.8-0.1,2.4-0.8c0.7-0.7,0.9-1.6,0.8-2.4l-7.2-26.7c-0.1-0.4-0.4-0.7-0.7-1
		C657.5,249.8,655.7,249.8,654.6,250.9z M645.5,272c-0.5,0.5-1.4,0.5-2,0c-0.5-0.5-0.5-1.4,0-2c0.5-0.5,1.4-0.5,2,0
		C646,270.6,646,271.5,645.5,272z M651.7,272.8c-0.5,0.5-1.4,0.5-2,0s-0.5-1.4,0-2s1.4-0.5,2,0S652.3,272.2,651.7,272.8z M658,273.5
		c-0.5,0.5-1.4,0.5-2,0s-0.5-1.4,0-2c0.5-0.5,1.4-0.5,2,0C658.6,272.1,658.6,273,658,273.5z M651,266.5c-0.5,0.5-1.4,0.5-2,0
		c-0.5-0.5-0.5-1.4,0-2c0.5-0.5,1.4-0.5,2,0S651.5,265.9,651,266.5z M657.2,267.3c-0.5,0.5-1.4,0.5-2,0s-0.5-1.4,0-2s1.4-0.5,2,0
		S657.8,266.7,657.2,267.3z M656.5,261c-0.5,0.5-1.4,0.5-2,0c-0.5-0.5-0.5-1.4,0-2c0.5-0.5,1.4-0.5,2,0S657,260.4,656.5,261z"/>
	<polyline id="XMLID_61_" class="st0" points="634.1,259.9 640.3,261 639.2,254.8 645.5,255.8 644.4,249.6 	"/>
</g>
<g>
	<g id="Fragola_2_">
		<path id="XMLID_71_" class="st0" d="M643.2,426.1L643.2,426.1h27l0,0c0,0,0,0,0.1,0c1.6,0,2.8-1.3,2.8-2.8c0-0.6-0.2-1.1-0.4-1.5
			l0,0l-13.6-23.6c-0.5-0.7-1.3-1.2-2.3-1.2c-0.9,0-1.8,0.5-2.3,1.2l-13.8,24c-0.2,0.4-0.3,0.8-0.3,1.2
			C640.4,424.9,641.6,426.1,643.2,426.1z M664.5,417.6c0.8,0,1.4,0.6,1.4,1.4s-0.6,1.4-1.4,1.4c-0.8,0-1.4-0.6-1.4-1.4
			S663.8,417.6,664.5,417.6z M660.6,412.6c0.8,0,1.4,0.6,1.4,1.4s-0.6,1.4-1.4,1.4c-0.8,0-1.4-0.6-1.4-1.4S659.9,412.6,660.6,412.6z
			 M656.7,407.8c0.8,0,1.4,0.6,1.4,1.4s-0.6,1.4-1.4,1.4c-0.8,0-1.4-0.6-1.4-1.4S656,407.8,656.7,407.8z M656.7,417.6
			c0.8,0,1.4,0.6,1.4,1.4s-0.6,1.4-1.4,1.4c-0.8,0-1.4-0.6-1.4-1.4S656,417.6,656.7,417.6z M652.8,412.6c0.8,0,1.4,0.6,1.4,1.4
			s-0.6,1.4-1.4,1.4s-1.4-0.6-1.4-1.4S652.1,412.6,652.8,412.6z M648.9,417.6c0.8,0,1.4,0.6,1.4,1.4s-0.6,1.4-1.4,1.4
			s-1.4-0.6-1.4-1.4S648.2,417.6,648.9,417.6z"/>
		<polyline id="XMLID_70_" class="st0" points="664,434.2 660.4,429 656.7,434.2 653.1,429 649.4,434.2 		"/>
	</g>
	<g id="Fragola_3_">
		<path id="XMLID_146_" class="st0" d="M636.8,363.6L636.8,363.6h-27l0,0c0,0,0,0-0.1,0c-1.6,0-2.8,1.3-2.8,2.8
			c0,0.6,0.2,1.1,0.4,1.5l0,0l13.6,23.6c0.5,0.7,1.3,1.2,2.3,1.2c0.9,0,1.8-0.5,2.3-1.2l13.8-24c0.2-0.4,0.3-0.8,0.3-1.2
			C639.6,365,638.4,363.6,636.8,363.6z M615.5,372.1c-0.8,0-1.4-0.6-1.4-1.4s0.6-1.4,1.4-1.4s1.4,0.6,1.4,1.4
			S616.2,372.1,615.5,372.1z M619.4,377c-0.8,0-1.4-0.6-1.4-1.4s0.6-1.4,1.4-1.4s1.4,0.6,1.4,1.4S620.1,377,619.4,377z M623.3,382
			c-0.8,0-1.4-0.6-1.4-1.4s0.6-1.4,1.4-1.4s1.4,0.6,1.4,1.4S624,382,623.3,382z M623.3,372.1c-0.8,0-1.4-0.6-1.4-1.4
			s0.6-1.4,1.4-1.4s1.4,0.6,1.4,1.4S624,372.1,623.3,372.1z M627.2,377c-0.8,0-1.4-0.6-1.4-1.4s0.6-1.4,1.4-1.4s1.4,0.6,1.4,1.4
			S627.9,377,627.2,377z M631.1,372.1c-0.8,0-1.4-0.6-1.4-1.4s0.6-1.4,1.4-1.4s1.4,0.6,1.4,1.4S631.8,372.1,631.1,372.1z"/>
		<polyline id="XMLID_145_" class="st0" points="615.9,355.5 619.6,360.6 623.3,355.5 626.9,360.6 630.6,355.5 		"/>
	</g>
</g>
<g id="Pesce">
	<path id="XMLID_14_" class="st0" d="M739.2,220.2c0.3,3.5-0.9,7.1-3.5,9.8c-1.4,1.4-3,2.4-4.8,3"/>
	<circle id="XMLID_11_" class="st0" cx="730.7" cy="225" r="1.9"/>
	<path id="XMLID_18_" class="st0" d="M755.8,242.9l-5.6-1.5c2-5.8,0.7-12.5-4-17.1c-5.2-5.2-13-6.2-19.2-3.1
		c-3.2,6.2-2.1,14,3.1,19.2c4.7,4.7,11.6,6,17.5,3.8l1.4,5.4L755.8,242.9z"/>
</g>
<g id="Pesce_1_">
	<path id="XMLID_46_" class="st0" d="M437.7,288.4c-0.3,3.5,0.9,7.1,3.5,9.8c1.4,1.4,3,2.4,4.8,3"/>
	<circle id="XMLID_40_" class="st0" cx="446.2" cy="293.2" r="1.9"/>
	<path id="XMLID_38_" class="st0" d="M421.1,311.1l5.6-1.5c-2-5.8-0.7-12.5,4-17.1c5.2-5.2,13-6.2,19.2-3.1c3.2,6.2,2.1,14-3.1,19.2
		c-4.7,4.7-11.6,6-17.5,3.8l-1.4,5.4L421.1,311.1z"/>
</g>
<g id="Pesce_2_">
	<path id="XMLID_60_" class="st0" d="M513.1,511.5c2.2,2.7,5.6,4.4,9.4,4.4c2,0,3.8-0.5,5.5-1.3"/>
	<circle id="XMLID_59_" class="st0" cx="522.5" cy="508.9" r="1.9"/>
	<path id="XMLID_58_" class="st0" d="M517.4,539.3l2.9-5c-5.5-2.7-9.3-8.3-9.3-14.9c0-7.4,4.8-13.6,11.4-15.8
		c6.6,2.2,11.4,8.4,11.4,15.8c0,6.7-4,12.4-9.7,15.1l2.8,4.8L517.4,539.3L517.4,539.3z"/>
</g>
<g>
	<g id="Pesce_3_">
		<path id="XMLID_30_" class="st0" d="M1014.7,603.6c-0.4,3.5,0.8,7.1,3.5,9.8c1.4,1.4,3,2.3,4.8,3"/>
		<circle id="XMLID_29_" class="st0" cx="1023.2" cy="608.4" r="1.9"/>
		<path id="XMLID_27_" class="st0" d="M998.1,626.3l5.6-1.5c-2-5.8-0.7-12.4,4-17.1c5.2-5.2,13-6.2,19.2-3.1
			c3.1,6.2,2.1,14-3.1,19.2c-4.7,4.7-11.6,5.9-17.5,3.8l-1.4,5.4L998.1,626.3L998.1,626.3z"/>
	</g>
	<g id="Pesce_4_">
		<path id="XMLID_33_" class="st0" d="M265.3,196.4c0.4-3.5-0.8-7.1-3.5-9.8c-1.4-1.4-3-2.3-4.8-3"/>
		<circle id="XMLID_32_" class="st0" cx="256.8" cy="191.6" r="1.9"/>
		<path id="XMLID_31_" class="st0" d="M281.9,173.7l-5.6,1.5c2,5.8,0.7,12.4-4,17.1c-5.2,5.2-13,6.2-19.2,3.1
			c-3.1-6.2-2.1-14,3.1-19.2c4.7-4.7,11.6-5.9,17.5-3.8l1.4-5.4L281.9,173.7L281.9,173.7z"/>
	</g>
</g>
<g id="XMLID_45_">
	<g id="XMLID_42_">
		<g id="XMLID_10_">
			<path id="XMLID_15_" class="st0" d="M505.2,442.8c0-2.5-1.6-4.6-3.9-5.4l-14.7-5.6c-0.4-0.2-0.8-0.3-1.2-0.5l0,0l0,0
				c-1.1-0.4-2.4-0.6-3.6-0.6c-6.6,0-12,5.4-12,12s5.4,12,12,12c1.3,0,2.5-0.2,3.6-0.6l0,0l0,0c0.4-0.1,0.8-0.3,1.2-0.5l14.7-5.6
				c0.1,0,0.3-0.1,0.4-0.1l0,0l0,0C503.8,447.1,505.2,445.1,505.2,442.8z"/>
		</g>
		<circle id="XMLID_28_" class="st0" cx="496.5" cy="442.8" r="3.1"/>
		<line id="XMLID_9_" class="st0" x1="481.3" y1="442.8" x2="491" y2="442.8"/>
	</g>
	<line id="XMLID_44_" class="st0" x1="481.3" y1="437.8" x2="481.3" y2="447.7"/>
</g>
<g id="XMLID_87_">
	<g id="XMLID_89_">
		<g id="XMLID_92_">
			<path id="XMLID_93_" class="st0" d="M845,342.1c-1.8-1.8-4.4-2.1-6.5-1.1l-14.4,6.4c-0.4,0.2-0.8,0.3-1.2,0.5l0,0l0,0
				c-1.1,0.6-2.1,1.3-3,2.2c-4.7,4.7-4.7,12.3,0,17c4.7,4.7,12.3,4.7,17,0c0.9-0.9,1.6-1.9,2.2-3l0,0l0,0c0.2-0.4,0.4-0.8,0.5-1.2
				l6.4-14.4c0.1-0.1,0.1-0.2,0.2-0.4l0,0l0,0C847.1,346.2,846.6,343.7,845,342.1z"/>
		</g>
		<circle id="XMLID_91_" class="st0" cx="838.8" cy="348.3" r="3.1"/>
		<line id="XMLID_90_" class="st0" x1="828.1" y1="359" x2="834.9" y2="352.1"/>
	</g>
	<line id="XMLID_88_" class="st0" x1="824.5" y1="355.5" x2="831.6" y2="362.5"/>
</g>
<g id="XMLID_94_">
	<g id="XMLID_96_">
		<g id="XMLID_99_">
			<path id="XMLID_101_" class="st0" d="M742.3,587.9c-1.8-1.8-4.4-2.1-6.5-1.1l-14.4,6.4c-0.4,0.2-0.8,0.3-1.2,0.5l0,0l0,0
				c-1.1,0.6-2.1,1.3-3,2.2c-4.7,4.7-4.7,12.3,0,17s12.3,4.7,17,0c0.9-0.9,1.6-1.9,2.2-3l0,0l0,0c0.2-0.4,0.4-0.8,0.5-1.2l6.4-14.4
				c0.1-0.1,0.1-0.2,0.2-0.4l0,0l0,0C744.4,592,744,589.5,742.3,587.9z"/>
		</g>
		<circle id="XMLID_98_" class="st0" cx="736.1" cy="594" r="3.1"/>
		<line id="XMLID_97_" class="st0" x1="725.4" y1="604.8" x2="732.3" y2="597.9"/>
	</g>
	<line id="XMLID_95_" class="st0" x1="721.9" y1="601.2" x2="729" y2="608.3"/>
</g>
<g id="XMLID_55_">
	<g id="XMLID_57_">
		<g id="XMLID_65_">
			<path id="XMLID_66_" class="st0" d="M877.8,652c-1.8-1.8-4.4-2.1-6.5-1.1l-14.4,6.4c-0.4,0.2-0.8,0.3-1.2,0.5l0,0l0,0
				c-1.1,0.6-2.1,1.3-3,2.2c-4.7,4.7-4.7,12.3,0,17s12.3,4.7,17,0c0.9-0.9,1.6-1.9,2.2-3l0,0l0,0c0.2-0.4,0.4-0.8,0.5-1.2l6.4-14.4
				c0.1-0.1,0.1-0.2,0.2-0.4l0,0l0,0C879.9,656.1,879.5,653.6,877.8,652z"/>
		</g>
		<circle id="XMLID_64_" class="st0" cx="871.6" cy="658.1" r="3.1"/>
		<line id="XMLID_63_" class="st0" x1="860.9" y1="668.9" x2="867.8" y2="662"/>
	</g>
	<line id="XMLID_56_" class="st0" x1="857.4" y1="665.3" x2="864.5" y2="672.4"/>
</g>
<g id="XMLID_67_">
	<g id="XMLID_69_">
		<g id="XMLID_74_">
			<path id="XMLID_75_" class="st0" d="M387.3,115.6c-1.8-1.8-4.4-2.1-6.5-1.1l-14.4,6.4c-0.4,0.2-0.8,0.3-1.2,0.5l0,0l0,0
				c-1.1,0.6-2.1,1.3-3,2.2c-4.7,4.7-4.7,12.3,0,17s12.3,4.7,17,0c0.9-0.9,1.6-1.9,2.2-3l0,0l0,0c0.2-0.4,0.4-0.8,0.5-1.2l6.4-14.4
				c0.1-0.1,0.1-0.2,0.2-0.4l0,0l0,0C389.4,119.7,389,117.2,387.3,115.6z"/>
		</g>
		<circle id="XMLID_73_" class="st0" cx="381.1" cy="121.7" r="3.1"/>
		<line id="XMLID_72_" class="st0" x1="370.4" y1="132.5" x2="377.3" y2="125.6"/>
	</g>
	<line id="XMLID_68_" class="st0" x1="366.9" y1="128.9" x2="374" y2="136"/>
</g>
<g id="XMLID_102_">
	<path id="XMLID_105_" class="st0" d="M675,343.7c-0.6,1.2-0.9,2.9,0.6,4.5l6.2,6.2c2.1,2.1,4.5,0.9,5.5-0.1l13.4-13.4
		c2-2,2.6-4,2.7-4.4c0.3-1,1.2-3.3,1.5-4.5c0.2-0.7,0.8-1.5,1.3-1.9c0.7,0.5,1.7,0.4,2.3-0.3c0.7-0.7,0.7-1.9,0-2.7l-5.9-5.9
		c-0.7-0.7-1.9-0.7-2.7,0c-0.6,0.6-0.7,1.6-0.3,2.3c-0.5,0.4-1.3,1.1-1.9,1.3c-1.1,0.3-3.5,1.1-4.5,1.5c-0.3,0.1-2.3,0.7-4.4,2.7
		l-5.3,5.3L675,343.7z"/>
	<line id="XMLID_104_" class="st0" x1="699.1" y1="323.3" x2="706.4" y2="330.6"/>
	<path id="XMLID_103_" class="st0" d="M688.6,329.8c0.6,6.8,11.2,4.9,11.7,11.7"/>
</g>
<g id="XMLID_106_">
	<path id="XMLID_109_" class="st0" d="M534.1,385.8c0.4,1.3,1.4,2.7,3.6,2.7h8.8c2.9,0,3.8-2.6,3.8-4v-19c0-2.9-1-4.7-1.2-5
		c-0.4-0.9-1.5-3.2-2.1-4.2c-0.4-0.6-0.4-1.6-0.4-2.3c0.9-0.2,1.5-0.9,1.5-1.8c0-1-0.9-1.9-1.9-1.9h-8.3c-1,0-1.9,0.9-1.9,1.9
		c0,0.9,0.6,1.7,1.5,1.8c0,0.7-0.1,1.7-0.4,2.3c-0.6,1-1.7,3.3-2.1,4.2c-0.2,0.3-1.2,2.1-1.2,5v7.5L534.1,385.8z"/>
	<line id="XMLID_108_" class="st0" x1="536.6" y1="353.9" x2="546.6" y2="353.9"/>
	<path id="XMLID_107_" class="st0" d="M533.8,366.4c5.2,4.3,11.4-4.5,16.5,0"/>
</g>
<g id="XMLID_1_">
	<path id="XMLID_5_" class="st0" d="M846.5,450.6c0.4,1.3,1.4,2.7,3.6,2.7h8.8c2.9,0,3.8-2.6,3.8-4v-19c0-2.9-1-4.7-1.2-5
		c-0.4-0.9-1.5-3.2-2.1-4.2c-0.4-0.6-0.4-1.6-0.4-2.3c0.9-0.2,1.5-0.9,1.5-1.8c0-1-0.9-1.9-1.9-1.9h-8.3c-1,0-1.9,0.9-1.9,1.9
		c0,0.9,0.6,1.7,1.5,1.8c0,0.7-0.1,1.7-0.4,2.3c-0.6,1-1.7,3.3-2.1,4.2c-0.2,0.3-1.2,2.1-1.2,5v7.5L846.5,450.6z"/>
	<line id="XMLID_3_" class="st0" x1="849" y1="418.8" x2="859" y2="418.8"/>
	<path id="XMLID_2_" class="st0" d="M846.2,431.2c5.2,4.3,11.4-4.5,16.5,0"/>
</g>
<g id="XMLID_193_">
	<path id="XMLID_296_" class="st0" d="M822.2,485.5c-8.9,0-16.2,4.6-16.2,13.5c0,3.4,1.2,6.8,3.1,9.6c1.5,2.1,5.5,6.6,8.5,5.6
		c0.7-0.2,2-1.2,2.6-1.6c3.1-1.9,4.7,2.3,7.7,1.5c6.2-1.6,10.4-9.2,10.4-15.2c0-6.8-4.2-11.1-10.2-12.8"/>
	<path id="XMLID_199_" class="st0" d="M826.8,491.2c-1.2,1.1-3.3,1.8-5.7,1.8s-4.6-0.7-5.7-1.8"/>
	<path id="XMLID_195_" class="st0" d="M821.1,491.1c0,0,7.3,0.1,7.8-8.6C828.9,482.5,821.1,478.6,821.1,491.1z"/>
</g>
<g id="XMLID_23_">
	<path id="XMLID_26_" class="st0" d="M410.7,379.5c-6.3,6.3-8.2,14.7-1.9,21c2.4,2.4,5.7,4,9,4.6c2.5,0.4,8.6,0.8,10-2.1
		c0.4-0.6,0.6-2.3,0.7-3c0.8-3.5,4.9-1.7,6.5-4.4c3.3-5.5,0.8-13.9-3.4-18.1c-4.8-4.8-10.8-4.9-16.3-1.8"/>
	<path id="XMLID_25_" class="st0" d="M418,380.3c-0.1,1.6-1.1,3.6-2.8,5.3c-1.7,1.7-3.7,2.8-5.3,2.8"/>
	<path id="XMLID_24_" class="st0" d="M413.9,384.2c0,0,5.2-5.1-0.6-11.6C413.3,372.6,405.1,375.4,413.9,384.2z"/>
</g>
<g id="XMLID_51_">
	<line id="XMLID_188_" class="st0" x1="521.5" y1="290" x2="514.3" y2="282.8"/>
	<line id="XMLID_186_" class="st0" x1="513.7" y1="297.8" x2="508.5" y2="292.6"/>
	<line id="XMLID_185_" class="st0" x1="514.6" y1="291.9" x2="511.1" y2="288.4"/>
	<path id="XMLID_182_" class="st0" d="M528.3,292.2c3.4-3.4,3.6-9,0.2-12.4c-3.4-3.4-8.7-3.5-12.1-0.1c-0.4,0.4-1.2,1.3-1.5,1.8
		l-0.5,0.5l0,0c-2.8,4.2-4.7,7.6-7.3,11.5c-1,1.6-1.9,3.1-2.9,4.7c-1.3,2-3.4,4.9-1.2,7.1c2.1,2.1,5.1,0,7-1.2
		c3-1.8,5.4-3.5,8.4-5.3c2.8-1.7,5.3-3.3,8-4.9l-0.1-0.1C527.2,293.2,527.9,292.6,528.3,292.2z"/>
	<path id="XMLID_181_" class="st0" d="M539.1,278.7c0-1.1-1.3-2.1-3.2-2.5c1-1.6,1.2-3.2,0.4-4c-0.8-0.8-2.6-0.5-4.3,0.6
		c-0.3-2.2-1.4-3.7-2.6-3.7c-1.5,0-2.8,2.4-2.8,5.3c0,2.4,0.8,4.4,1.9,5.1c0.1,0.1,0.1,0.2,0.2,0.3l0,0c0.8,1,2.7,1.7,4.9,1.7
		C536.7,281.4,539.1,280.2,539.1,278.7z"/>
</g>
<g>
	<g id="XMLID_117_">
		<line id="XMLID_125_" class="st0" x1="414.7" y1="232.7" x2="404.5" y2="232.7"/>
		<line id="XMLID_124_" class="st0" x1="414.7" y1="243.7" x2="407.3" y2="243.7"/>
		<line id="XMLID_123_" class="st0" x1="411.2" y1="238.9" x2="406.2" y2="238.9"/>
		<path id="XMLID_122_" class="st0" d="M421.1,229.4c0-4.8-3.9-8.9-8.6-8.9c-4.8,0-8.6,3.7-8.6,8.4c0,0.6,0.1,1.8,0.2,2.3v0.7l0,0
			c1,5,2,8.7,3,13.3c0.4,1.9,0.9,3.5,1.3,5.4c0.5,2.3,1.1,5.9,4.2,5.9c2.9,0,3.6-3.7,4.1-5.8c0.8-3.3,1.4-6.3,2.2-9.7
			c0.7-3.2,1.5-6.1,2.2-9.1H421C421,230.9,421.1,230,421.1,229.4z"/>
		<path id="XMLID_121_" class="st0" d="M419.2,212.2c-0.8-0.8-2.4-0.6-4,0.5c-0.4-1.8-1.4-3.1-2.5-3.1c-1.2,0-2.2,1.4-2.6,3.4
			c-1.8-1.3-3.6-1.7-4.5-0.8c-1.1,1.1-0.3,3.6,1.8,5.7c1.7,1.7,3.7,2.5,4.9,2.2c0.1,0,0.2,0,0.3,0l0,0c1.3,0.1,3.1-0.7,4.7-2.3
			C419.4,215.8,420.2,213.3,419.2,212.2z"/>
	</g>
	<g id="XMLID_12_">
		<line id="XMLID_22_" class="st0" x1="869.4" y1="566.9" x2="859.2" y2="566.9"/>
		<line id="XMLID_21_" class="st0" x1="869.4" y1="577.9" x2="862" y2="577.9"/>
		<line id="XMLID_19_" class="st0" x1="865.9" y1="573.1" x2="860.9" y2="573.1"/>
		<path id="XMLID_17_" class="st0" d="M875.8,563.6c0-4.8-3.9-8.9-8.6-8.9c-4.8,0-8.6,3.7-8.6,8.4c0,0.6,0.1,1.8,0.2,2.3v0.7l0,0
			c1,5,2,8.7,3,13.3c0.4,1.9,0.9,3.5,1.3,5.4c0.5,2.3,1.1,5.9,4.2,5.9c2.9,0,3.6-3.7,4.1-5.8c0.8-3.3,1.4-6.3,2.2-9.7
			c0.7-3.2,1.5-6.1,2.2-9.1h-0.1C875.7,565.1,875.8,564.2,875.8,563.6z"/>
		<path id="XMLID_13_" class="st0" d="M873.9,546.4c-0.8-0.8-2.4-0.6-4,0.5c-0.4-1.8-1.4-3.1-2.5-3.1c-1.2,0-2.2,1.4-2.6,3.4
			c-1.8-1.3-3.6-1.7-4.5-0.8c-1.1,1.1-0.3,3.6,1.8,5.7c1.7,1.7,3.7,2.5,4.9,2.2c0.1,0,0.2,0,0.3,0l0,0c1.3,0.1,3.1-0.7,4.7-2.3
			C874.1,550,874.9,547.5,873.9,546.4z"/>
	</g>
</g>
<g id="XMLID_112_">
	<line id="XMLID_180_" class="st0" x1="740.5" y1="429.2" x2="770.2" y2="399.5"/>
	<path id="XMLID_179_" class="st0" d="M771.3,398.7c0,0-2-11.3,9.4-9.4C780.7,389.4,783,400.1,771.3,398.7z"/>
	<g id="XMLID_175_">
		<path id="XMLID_177_" class="st0" d="M766.8,404.7c0,0,9-7,12.8,3.6C779.6,408.3,770.7,415.3,766.8,404.7z"/>
		<path id="XMLID_176_" class="st0" d="M761.1,390.6c0,0-6,9.6,4.9,12.3C766,403,772,393.4,761.1,390.6z"/>
	</g>
	<g id="XMLID_158_">
		<path id="XMLID_4_" class="st0" d="M759.4,411.7c0,0,9.6-6,12.3,4.9C771.8,416.6,762.2,422.7,759.4,411.7z"/>
		<path id="XMLID_159_" class="st0" d="M753.4,398.3c0,0-6,9.6,4.9,12.3C758.3,410.6,764.4,401.1,753.4,398.3z"/>
	</g>
	<g id="XMLID_139_">
		<path id="XMLID_155_" class="st0" d="M751.6,420c0,0,9-7,12.8,3.6C764.3,423.6,755.5,430.6,751.6,420z"/>
		<path id="XMLID_140_" class="st0" d="M745.8,405.9c0,0-6,9.6,4.9,12.3C750.7,418.2,756.8,408.7,745.8,405.9z"/>
	</g>
</g>
<g id="XMLID_34_">
	<line id="XMLID_52_" class="st0" x1="266.7" y1="302.9" x2="296.4" y2="273.2"/>
	<path id="XMLID_50_" class="st0" d="M297.5,272.4c0,0-2-11.3,9.4-9.4C306.9,263.1,309.2,273.8,297.5,272.4z"/>
	<g id="XMLID_47_">
		<path id="XMLID_49_" class="st0" d="M293,278.4c0,0,9-7,12.8,3.6C305.8,282,296.9,289,293,278.4z"/>
		<path id="XMLID_48_" class="st0" d="M287.3,264.3c0,0-6,9.6,4.9,12.3C292.2,276.7,298.2,267.1,287.3,264.3z"/>
	</g>
	<g id="XMLID_39_">
		<path id="XMLID_43_" class="st0" d="M285.6,285.4c0,0,9.6-6,12.3,4.9C298,290.3,288.4,296.4,285.6,285.4z"/>
		<path id="XMLID_41_" class="st0" d="M279.6,272c0,0-6,9.6,4.9,12.3C284.5,284.3,290.6,274.8,279.6,272z"/>
	</g>
	<g id="XMLID_35_">
		<path id="XMLID_37_" class="st0" d="M277.8,293.7c0,0,9-7,12.8,3.6C290.5,297.3,281.7,304.3,277.8,293.7z"/>
		<path id="XMLID_36_" class="st0" d="M272,279.6c0,0-6,9.6,4.9,12.3C276.9,291.9,283,282.4,272,279.6z"/>
	</g>
</g>
<g id="XMLID_127_">
	<line id="XMLID_144_" class="st0" x1="729" y1="520" x2="699.3" y2="490.3"/>
	<path id="XMLID_143_" class="st0" d="M698.6,489.3c0,0-11.3,2-9.4-9.4C689.2,479.9,699.9,477.6,698.6,489.3z"/>
	<g id="XMLID_134_">
		<path id="XMLID_142_" class="st0" d="M704.5,493.7c0,0-7-9,3.6-12.8C708.2,481,715.2,489.9,704.5,493.7z"/>
		<path id="XMLID_135_" class="st0" d="M690.5,499.5c0,0,9.6,6,12.3-4.9C702.8,494.6,693.3,488.5,690.5,499.5z"/>
	</g>
	<g id="XMLID_131_">
		<path id="XMLID_133_" class="st0" d="M711.5,501.1c0,0-6-9.6,4.9-12.3C716.4,488.8,722.5,498.3,711.5,501.1z"/>
		<path id="XMLID_132_" class="st0" d="M698.1,507.1c0,0,9.6,6,12.3-4.9C710.4,502.2,700.9,496.2,698.1,507.1z"/>
	</g>
	<g id="XMLID_128_">
		<path id="XMLID_130_" class="st0" d="M719.8,509c0,0-7-9,3.6-12.8C723.4,496.2,730.4,505.1,719.8,509z"/>
		<path id="XMLID_129_" class="st0" d="M705.7,514.7c0,0,9.6,6,12.3-4.9C718.1,509.9,708.5,503.8,705.7,514.7z"/>
	</g>
</g>
<g id="XMLID_8_">
	<path id="XMLID_7_" class="st0" d="M630,486.3c-12.1,0.2-22.2-10.4-24.6-13.1c-0.2-0.2-0.3-0.4-0.5-0.6l0,0l0,0
		c-1.6-1.6-3.8-2.7-6.2-2.7c-4.7,0-8.6,3.8-8.6,8.6c0,3.1,1.6,5.7,4,7.3l0,0c6.6,4.4,35.9,4.5,35.9,4.5c1.1,0,1.9-0.9,1.9-1.9
		C631.9,487.2,631,486.3,630,486.3z"/>
	<polyline id="XMLID_6_" class="st0" points="584.6,472.7 588.3,473.3 587.7,469.6 591.4,470.2 590.8,466.5 	"/>
</g>
<g id="XMLID_118_">
	<path id="XMLID_120_" class="st0" d="M609.9,582.8c8.7-8.4,8.4-23.1,8.1-26.7c0-0.3-0.1-0.5-0.1-0.8l0,0l0,0
		c-0.1-2.3,0.8-4.6,2.5-6.3c3.3-3.3,8.8-3.3,12.1,0c2.2,2.2,2.9,5.2,2.3,8l0,0c-1.5,7.8-22.2,28.6-22.2,28.6c-0.8,0.8-2,0.8-2.7,0
		C609.1,584.7,609.1,583.5,609.9,582.8z"/>
	<polyline id="XMLID_119_" class="st0" points="632.2,541 630.1,544.1 627.9,541 625.7,544.1 623.6,541 	"/>
</g>
</svg>
