<?xml version="1.0" encoding="utf-8"?>
<!-- Generator: Adobe Illustrator 19.0.0, SVG Export Plug-In . SVG Version: 6.00 Build 0)  -->
<svg version="1.1" id="Livello_1" xmlns="http://www.w3.org/2000/svg" xmlns:xlink="http://www.w3.org/1999/xlink" x="0px" y="0px"
	 viewBox="-188 422.1 583 116.9" enable-background="new -188 422.1 583 116.9" xml:space="preserve">
<rect id="XMLID_14_" x="866.9" y="477.5" fill="#91CFDB" width="59.4" height="64.7"/>
<g id="Layer_1">
	<text id="XMLID_84_" transform="matrix(1 0 0 1 -55.5654 438.6276)" font-family="'SourceSansPro-Regular'" font-size="13px">92%</text>
	<g id="XMLID_2_">
		<circle id="XMLID_88_" fill="#429282" cx="-43.7" cy="493.7" r="29.8"/>
		<g id="XMLID_85_">
			
				<circle id="XMLID_216_" fill="none" stroke="#333332" stroke-miterlimit="10" stroke-dasharray="1.9953,1.9953" cx="-43.7" cy="494" r="32.4"/>
		</g>
	</g>
	<text id="XMLID_28_" transform="matrix(1 0 0 1 -158.0172 438.6276)" font-family="'SourceSansPro-Regular'" font-size="13px">139%</text>
	<g id="XMLID_1_">
		<path id="XMLID_122_" opacity="0.5" fill="#C0305F" enable-background="new    " d="M-143,449c-24.9,0-45,20.2-45,45
			s20.2,45,45,45s45-20.2,45-45S-118.1,449-143,449z M-143,528.2c-18.9,0-34.2-15.3-34.2-34.2c0-18.9,15.4-34.2,34.2-34.2
			c18.9,0,34.2,15.3,34.2,34.2C-108.8,512.9-124.1,528.2-143,528.2z"/>
		<circle id="XMLID_33_" fill="#C0305F" cx="-143" cy="494" r="34.2"/>
		<g id="XMLID_30_">
			
				<circle id="XMLID_214_" fill="none" stroke="#FFFCEE" stroke-miterlimit="10" stroke-dasharray="1.9872,1.9872" cx="-143" cy="494" r="34.2"/>
		</g>
	</g>
	<text id="XMLID_78_" transform="matrix(1 0 0 1 36.5406 438.6276)" font-family="'SourceSansPro-Regular'" font-size="13px">119%</text>
	<g id="XMLID_3_">
		<path id="XMLID_77_" opacity="0.5" fill="#F39154" enable-background="new    " d="M51.6,452.9c-22.7,0-41.1,18.4-41.1,41.1
			s18.4,41.1,41.1,41.1s41.1-18.4,41.1-41.1S74.3,452.9,51.6,452.9z M51.6,525.2c-17.3,0-31.2-14-31.2-31.2
			c0-17.3,14-31.2,31.2-31.2c17.3,0,31.2,14,31.2,31.2C82.8,511.2,68.8,525.2,51.6,525.2z"/>
		<circle id="XMLID_102_" fill="#F39154" cx="51.6" cy="494" r="31.2"/>
		<g id="XMLID_101_">
			
				<circle id="XMLID_218_" fill="none" stroke="#FFFCEE" stroke-miterlimit="10" stroke-dasharray="2.0023,2.0023" cx="51.6" cy="494" r="31.2"/>
		</g>
	</g>
	<text id="XMLID_72_" transform="matrix(1 0 0 1 139.2891 438.6279)" font-family="'SourceSansPro-Regular'" font-size="13px">120%</text>
	<g id="XMLID_4_">
		<path id="XMLID_119_" opacity="0.5" fill="#EC6554" enable-background="new    " d="M154.3,453.8c-22,0-39.8,17.8-39.8,39.8
			c0,22,17.8,39.8,39.8,39.8s39.8-17.8,39.8-39.8C194.1,471.7,176.3,453.8,154.3,453.8z M154.3,526.9c-18.4,0-33.3-14.9-33.3-33.3
			s14.9-33.3,33.3-33.3s33.3,14.9,33.3,33.3S172.7,526.9,154.3,526.9z"/>
		<circle id="XMLID_133_" fill="#EC6554" cx="154.3" cy="493.7" r="33.3"/>
		
			<circle id="XMLID_132_" fill="none" stroke="#FFFCEE" stroke-miterlimit="10" stroke-dasharray="2" cx="154.3" cy="493.7" r="33.3"/>
	</g>
	<text id="XMLID_65_" transform="matrix(1 0 0 1 237.0358 438.6276)" font-family="'SourceSansPro-Regular'" font-size="13px">113%</text>
	<g id="XMLID_5_">
		<path id="XMLID_150_" opacity="0.5" fill="#ABCCB7" enable-background="new    " d="M252.1,457.9c-20,0-36.1,16.2-36.1,36.1
			c0,20,16.2,36.1,36.1,36.1c20,0,36.1-16.2,36.1-36.1C288.2,474,272,457.9,252.1,457.9z M252.1,526c-17.7,0-32-14.3-32-32
			c0-17.7,14.3-32,32-32s32,14.3,32,32C284.1,511.7,269.8,526,252.1,526z"/>
		<circle id="XMLID_162_" fill="#ABCCB7" cx="252.1" cy="494" r="32"/>
		<circle id="XMLID_161_" fill="none" stroke="#FFFCEE" stroke-miterlimit="10" stroke-dasharray="2" cx="252.1" cy="494" r="32"/>
	</g>
	<text id="XMLID_44_" transform="matrix(1 0 0 1 337.4602 438.6276)" font-family="'SourceSansPro-Regular'" font-size="13px">126%</text>
	<g id="XMLID_6_">
		<path id="XMLID_179_" opacity="0.5" fill="#91CFDB" enable-background="new    " d="M352.5,451.5c-23.5,0-42.5,19-42.5,42.5
			s19,42.5,42.5,42.5s42.5-19,42.5-42.5S376,451.5,352.5,451.5z M352.5,527.8c-18.7,0-33.8-15.2-33.8-33.8
			c0-18.6,15.2-33.8,33.8-33.8s33.8,15.2,33.8,33.8C386.3,512.6,371.2,527.8,352.5,527.8z"/>
		<circle id="XMLID_191_" fill="#91CFDB" cx="352.5" cy="494" r="33.8"/>
		
			<circle id="XMLID_190_" fill="none" stroke="#FFFCEE" stroke-miterlimit="10" stroke-dasharray="2" cx="352.5" cy="494" r="33.8"/>
	</g>
</g>
<g id="nomi_gruppi">
	<text id="XMLID_87_" transform="matrix(1 0 0 1 -54.1875 558.9701)" font-family="'SourceSansPro-Regular'" font-size="13px">g02</text>
	<text id="XMLID_64_" transform="matrix(1 0 0 1 -153.4087 558.9701)" font-family="'SourceSansPro-Regular'" font-size="13px">g01</text>
	<text id="XMLID_62_" transform="matrix(1 0 0 1 41.149 558.9701)" font-family="'SourceSansPro-Regular'" font-size="13px">g03</text>
	<text id="XMLID_61_" transform="matrix(1 0 0 1 143.8983 558.9701)" font-family="'SourceSansPro-Regular'" font-size="13px">g04</text>
	<text id="XMLID_34_" transform="matrix(1 0 0 1 241.6437 558.9701)" font-family="'SourceSansPro-Regular'" font-size="13px">g05</text>
	<text id="XMLID_23_" transform="matrix(1 0 0 1 342.0686 558.9701)" font-family="'SourceSansPro-Regular'" font-size="13px">g06</text>
</g>
</svg>
