<?xml version="1.0" encoding="utf-8"?>
<!-- Generator: Adobe Illustrator 19.0.0, SVG Export Plug-In . SVG Version: 6.00 Build 0)  -->
<svg version="1.1" id="Livello_1" xmlns="http://www.w3.org/2000/svg" xmlns:xlink="http://www.w3.org/1999/xlink" x="0px" y="0px"
	 viewBox="0 237.3 841.9 120" style="enable-background:new 0 237.3 841.9 120;" xml:space="preserve">
<style type="text/css">
	.st0{fill:#E6E464;}
	.st1{fill:#333332;}
</style>
<g id="XMLID_110_">
	<g id="XMLID_100_">
		<g id="XMLID_31_">
			<path id="XMLID_35_" class="st0" d="M333.6,323c10.2-4.3,22.5-12.6,23.4-24.8c0.3-3.6-1.3-7.5-5-8.6c-5.6-1.7-9.3,5.2-11.1,9.4
				c-5.2,11.9-5.1,27.9,0.8,39.5c4.2,8.3,13.7,15,22.1,7.9c5.5-4.6,8.8-12.2,11.5-18.7c3.3-7.9,5.4-16.1,6.6-24.5
				c0.2-1.8-4.1-4.2-4.4-2.2c-1.7,12.8-5.8,25.5-12.8,36.4c-3,4.7-8.2,10.7-14.2,7.3c-5.5-3.1-7.6-11.7-8.4-17.4
				c-0.9-6.5-0.6-13.3,0.9-19.7c0.8-3.3,1.9-6.5,3.7-9.3c1.5-2.5,5.7-7.7,5.8-1.8c0.1,5.2-4.4,10.8-7.9,14.1
				c-4.2,3.9-9.3,6.7-14.6,9C328.3,320.4,331.9,323.7,333.6,323L333.6,323z"/>
		</g>
	</g>
	<g id="XMLID_174_">
		<g id="XMLID_25_">
			<path id="XMLID_29_" class="st0" d="M404.2,296.4c-2.4-8-8.5-20.7-18.8-20c-9.7,0.7-9.3,16.5-8.1,23.2
				c1.2,6.9,7.4,21.8,16.6,19.9c9.7-1.9,11.9-16,10.1-23.8c-1.3,0.4-2.6,0.7-3.9,1.1c1.6,6.3,3.2,16.9,11.8,17
				c6.9,0.1,9.8-9,11.4-14.3c0.7-2.5-3.1-3.5-3.9-1.1c-1,3.4-3.1,11.3-7.6,11.4c-6,0.1-6.9-10-8-14.1c-0.7-2.5-4.4-1.4-3.9,1.1
				c0.8,3.4,0.9,6.8-0.2,10.1c-1.1,3.6-4.4,10.1-9.6,8c-5.8-2.4-8.8-12.1-9.5-17.7c-0.6-4.8-0.9-18.7,6.9-16.5
				c6.9,1.9,10.6,10.6,12.4,16.7C401.1,299.9,405,298.8,404.2,296.4L404.2,296.4z"/>
		</g>
	</g>
	<g id="XMLID_111_">
		<g id="XMLID_19_">
			<path id="XMLID_23_" class="st0" d="M419.9,247c-1.8,14.9-2.2,30-1,45c1,12.5,1.7,28.5,8.7,39.4c5.8,8.9,15.6,9,22,0.7
				c7.4-9.7,10.5-24,12.5-35.8c0.4-2.5-3.5-5.1-4-2c-1.7,10.3-4.4,21.1-9.3,30.3c-2.3,4.3-6.7,10.5-12.5,8.9s-7.8-8.8-9.1-13.8
				c-6-22.5-6-47.7-3.1-70.7C424.2,246.6,420.3,244,419.9,247L419.9,247z"/>
		</g>
	</g>
	<g id="XMLID_171_">
		<g id="XMLID_13_">
			<path id="XMLID_17_" class="st0" d="M340.8,275.1c50.4-13.4,102.8-17.8,154.7-12.9c2.9,0.3,3.3-1.9,0.3-2.2
				c-53.1-5-106.8-0.6-158.3,13.1C334.9,273.8,339.4,275.5,340.8,275.1L340.8,275.1z"/>
		</g>
	</g>
</g>
<g id="XMLID_36_">
	<path id="XMLID_37_" class="st1" d="M195.4,311.9l-15.5-27.2l-9.3,11.2v16h-8.4v-55.2h8.4v27.7l22.6-27.7h10.2l-17.9,21.6
		l19.8,33.6H195.4z"/>
	<path id="XMLID_39_" class="st1" d="M213.2,311.9v-55.2h35.3v7.5h-26.9v16.1h22.9v7.4h-22.9v16.6h26.9v7.5h-35.3V311.9z"/>
	<path id="XMLID_41_" class="st1" d="M260,311.9v-55.2h35.3v7.5h-26.9v16.1h22.9v7.4h-22.9v16.6h26.9v7.5H260V311.9z"/>
	<path id="XMLID_43_" class="st1" d="M327.6,290.2H315v21.7h-8.4v-55.2h20.9c10.8,0,17.7,7.1,17.7,16.7
		C345.3,283.1,338.4,290.2,327.6,290.2z M327.1,264.3H315v18.4h12.1c5.8,0,9.8-3.3,9.8-9.1S333,264.3,327.1,264.3z"/>
</g>
<g id="XMLID_2_">
	<path id="XMLID_3_" class="st1" d="M486.9,312.4c-8.3,0-14.3-1.9-19.5-7.3l5.6-5.5c4,4,8.4,5.3,14.1,5.3c7.2,0,11.4-3.1,11.4-8.4
		c0-2.4-0.7-4.4-2.2-5.7c-1.4-1.3-2.8-1.9-6-2.3l-6.5-0.9c-4.5-0.6-8.1-2.2-10.5-4.4c-2.7-2.6-4-6-4-10.5c0-9.6,7-16.2,18.4-16.2
		c7.3,0,12.4,1.9,17.1,6.3l-5.3,5.3c-3.4-3.3-7.4-4.3-12-4.3c-6.5,0-10.1,3.7-10.1,8.6c0,2,0.6,3.8,2.1,5.1c1.4,1.2,3.6,2.2,6.2,2.6
		l6.3,0.9c5.1,0.8,8,2,10.3,4.1c3,2.6,4.5,6.6,4.5,11.3C506.7,306.4,498.4,312.4,486.9,312.4z"/>
	<path id="XMLID_5_" class="st1" d="M549.6,311.9l-3.8-11.1H524l-3.8,11.1h-8.9l20.2-55.2h6.7l20.2,55.2H549.6z M535.1,269.2
		l-8.6,24.5h17L535.1,269.2z"/>
	<path id="XMLID_12_" class="st1" d="M574.7,264.3v16.8h22.9v7.5h-22.9v23.3h-8.4v-55.2h35.3v7.5h-26.9V264.3z"/>
	<path id="XMLID_24_" class="st1" d="M611.7,311.9v-55.2H647v7.5h-26.9v16.1H643v7.4h-22.9v16.6H647v7.5h-35.3V311.9z"/>
</g>
</svg>
