<?xml version="1.0" encoding="utf-8"?>
<!-- Generator: Adobe Illustrator 17.0.0, SVG Export Plug-In . SVG Version: 6.00 Build 0)  -->
<!DOCTYPE svg PUBLIC "-//W3C//DTD SVG 1.1//EN" "http://www.w3.org/Graphics/SVG/1.1/DTD/svg11.dtd">
<svg version="1.1" id="Scelta_di_Health" xmlns="http://www.w3.org/2000/svg" xmlns:xlink="http://www.w3.org/1999/xlink" x="0px"
	 y="0px" width="1244.845px" height="485px" viewBox="0 0 1244.845 485" enable-background="new 0 0 1244.845 485"
	 xml:space="preserve">
<polygon fill="#1B1B1A" stroke="#1B1B1A" stroke-linejoin="round" stroke-miterlimit="10" points="1064.454,59.968 1068.383,63.368 
	1064.454,66.769 "/>
<g>
	<path d="M1083.092,67.807l1.187-0.183v-8.746l-1.187-0.205v-1.032h3.655l4.263,6.468l0.798,1.699v-6.937l-1.289-0.198v-1.032h3.853
		v1.032l-1.157,0.205v9.91h-2.036l-4.489-6.863l-0.996-2.006v7.705l1.538,0.183v0.981h-4.139V67.807z"/>
	<path d="M1096.55,58.916l-0.952-0.209v-1.066h4.761v1.066l-1.238,0.216v5.451c0,1.153,0.196,2.006,0.59,2.556
		c0.393,0.551,0.982,0.825,1.769,0.825c0.4,0,0.746-0.078,1.037-0.237c0.29-0.159,0.529-0.384,0.718-0.675
		c0.188-0.29,0.325-0.641,0.413-1.053c0.088-0.41,0.132-0.871,0.132-1.38v-5.494l-1.26-0.209v-1.066h3.838v1.066l-0.988,0.209v5.38
		c0,0.809-0.107,1.499-0.322,2.069c-0.215,0.571-0.511,1.035-0.887,1.394c-0.376,0.359-0.821,0.621-1.336,0.787
		c-0.516,0.166-1.076,0.25-1.682,0.25c-0.776,0-1.452-0.087-2.028-0.26c-0.576-0.174-1.054-0.447-1.432-0.82
		c-0.379-0.373-0.662-0.852-0.85-1.438c-0.188-0.584-0.282-1.286-0.282-2.104V58.916z"/>
	<path d="M1109.509,67.807l1.883-0.19v-8.833h-1.89l-0.608,3.288h-1.392l0.22-4.431h9.72l0.212,4.431h-1.34l-0.645-3.288h-1.772
		v8.825l2.051,0.198v0.981h-6.438V67.807z"/>
	<path d="M1119.312,67.807l1.143-0.183v-8.684l-1.091-0.203v-1.097h2.277c0.215,0,0.419,0,0.612,0c0.192,0,0.387,0,0.582,0
		s0.399,0,0.611,0c0.213,0,0.445,0,0.699,0c0.791,0,1.46,0.057,2.007,0.169c0.547,0.113,0.99,0.29,1.33,0.53
		c0.339,0.24,0.583,0.546,0.732,0.916c0.148,0.37,0.223,0.81,0.223,1.319c0,0.303-0.043,0.611-0.128,0.926
		c-0.086,0.315-0.218,0.611-0.396,0.887c-0.179,0.277-0.401,0.523-0.67,0.739s-0.586,0.382-0.952,0.497
		c0.269,0.113,0.51,0.285,0.725,0.517c0.215,0.232,0.41,0.492,0.586,0.78s0.335,0.586,0.477,0.894s0.274,0.593,0.399,0.854
		c0.124,0.261,0.245,0.481,0.362,0.663c0.117,0.18,0.236,0.285,0.358,0.314l0.462,0.161v0.981h-2.85
		c-0.088,0-0.177-0.061-0.267-0.184c-0.091-0.122-0.183-0.283-0.275-0.484c-0.093-0.2-0.187-0.432-0.281-0.693
		c-0.096-0.261-0.194-0.532-0.297-0.813s-0.207-0.562-0.312-0.84c-0.105-0.278-0.216-0.536-0.333-0.771s-0.238-0.439-0.362-0.612
		c-0.125-0.174-0.256-0.295-0.393-0.363c-0.132,0-0.272,0-0.421,0c-0.149,0-0.288,0-0.417,0c-0.13,0-0.242,0-0.337,0
		c-0.096,0-0.158,0-0.188,0v3.604l1.333,0.176v0.981h-4.951V67.807z M1122.93,63.006c0.044,0.013,0.118,0.022,0.224,0.026
		c0.104,0.004,0.217,0.006,0.337,0.006c0.119,0,0.235,0,0.348,0s0.2,0,0.264,0c0.527,0,0.943-0.192,1.249-0.578
		c0.305-0.387,0.458-0.99,0.458-1.811c0-0.334-0.034-0.628-0.103-0.884s-0.179-0.471-0.33-0.644
		c-0.151-0.174-0.351-0.307-0.597-0.396c-0.247-0.089-0.546-0.134-0.897-0.134c-0.278,0-0.489,0.008-0.633,0.025
		c-0.145,0.018-0.251,0.033-0.319,0.047V63.006z"/>
	<path d="M1131.048,67.807l1.209-0.19v-8.73l-1.224-0.213v-1.032h4.937v1.032l-1.23,0.205v8.738l1.245,0.205v0.967h-4.937V67.807z"
		/>
	<path d="M1137.921,67.807l1.143-0.187v-8.734l-1.164-0.213v-1.032h8.107l0.205,2.585h-1.193l-0.513-1.523h-2.959v3.802h1.86
		l0.271-1.23h1.069v3.728h-1.069l-0.256-1.311h-1.875v3.934h3.296l0.915-1.958l1.253,0.354l-0.381,2.769h-8.709V67.807z"/>
	<path d="M1148.508,67.807l1.187-0.183v-8.746l-1.187-0.205v-1.032h3.654l4.263,6.468l0.799,1.699v-6.937l-1.289-0.198v-1.032h3.853
		v1.032l-1.157,0.205v9.91h-2.036l-4.49-6.863l-0.996-2.006v7.705l1.538,0.183v0.981h-4.138V67.807z"/>
	<path d="M1163.049,67.807l1.883-0.19v-8.833h-1.89l-0.608,3.288h-1.392l0.22-4.431h9.72l0.212,4.431h-1.34l-0.645-3.288h-1.772
		v8.825l2.051,0.198v0.981h-6.438V67.807z"/>
	<path d="M1173.226,65.421h1.369l0.374,1.802c0.112,0.133,0.318,0.252,0.619,0.358c0.3,0.106,0.662,0.16,1.087,0.16
		c0.63,0,1.089-0.133,1.377-0.396s0.433-0.623,0.433-1.079c0-0.246-0.057-0.468-0.169-0.664c-0.112-0.197-0.274-0.381-0.486-0.549
		c-0.213-0.168-0.473-0.331-0.78-0.487c-0.308-0.157-0.654-0.323-1.04-0.499c-0.19-0.085-0.395-0.185-0.611-0.299
		c-0.218-0.113-0.432-0.244-0.642-0.391c-0.21-0.147-0.412-0.313-0.607-0.498c-0.195-0.186-0.366-0.393-0.513-0.623
		s-0.264-0.484-0.352-0.762s-0.132-0.583-0.132-0.915c0-0.394,0.079-0.769,0.238-1.124c0.158-0.356,0.398-0.67,0.721-0.939
		c0.322-0.271,0.728-0.486,1.216-0.645c0.488-0.159,1.064-0.238,1.729-0.238c0.415,0,0.792,0.025,1.132,0.076
		c0.339,0.052,0.641,0.109,0.904,0.172c0.264,0.064,0.489,0.125,0.678,0.184c0.188,0.059,0.338,0.093,0.45,0.103l-0.095,2.569
		h-1.333l-0.359-1.731c-0.034-0.042-0.09-0.085-0.168-0.128s-0.175-0.082-0.289-0.117c-0.115-0.035-0.245-0.063-0.389-0.085
		c-0.145-0.021-0.297-0.032-0.458-0.032c-0.293,0-0.542,0.035-0.747,0.104c-0.205,0.069-0.373,0.162-0.505,0.281
		s-0.228,0.262-0.286,0.428s-0.088,0.344-0.088,0.533c0,0.266,0.067,0.504,0.202,0.712c0.134,0.209,0.318,0.402,0.553,0.581
		c0.234,0.178,0.51,0.348,0.827,0.512s0.659,0.334,1.025,0.51c0.308,0.151,0.63,0.32,0.967,0.508s0.646,0.41,0.927,0.666
		c0.28,0.256,0.513,0.553,0.696,0.891c0.183,0.336,0.274,0.726,0.274,1.167c0,0.242-0.029,0.489-0.088,0.743
		s-0.155,0.502-0.289,0.744c-0.135,0.242-0.31,0.471-0.524,0.684c-0.215,0.214-0.479,0.401-0.791,0.562
		c-0.312,0.162-0.677,0.289-1.095,0.385c-0.417,0.095-0.895,0.143-1.432,0.143c-0.454,0-0.878-0.033-1.271-0.1
		c-0.394-0.065-0.746-0.139-1.059-0.219c-0.312-0.081-0.581-0.156-0.806-0.228s-0.398-0.111-0.521-0.121L1173.226,65.421z"/>
</g>
<polygon fill="#1B1B1A" stroke="#1B1B1A" stroke-linejoin="round" stroke-miterlimit="10" points="1064.454,201.231 
	1068.383,204.632 1064.454,208.032 "/>
<g>
	<path d="M1083.121,208.997l1.143-0.181v-8.608l-1.091-0.201v-1.104h2.277c0.234,0,0.458,0,0.671,0c0.212,0,0.422,0,0.63,0
		c0.207,0,0.418,0,0.633,0s0.442,0,0.682,0c0.938,0,1.753,0.116,2.446,0.348c0.693,0.232,1.267,0.57,1.721,1.016
		c0.454,0.443,0.794,0.986,1.019,1.627s0.337,1.369,0.337,2.186c0,0.875-0.132,1.68-0.396,2.413s-0.644,1.366-1.139,1.896
		c-0.496,0.531-1.096,0.941-1.799,1.23s-1.494,0.434-2.373,0.434c-0.195,0-0.401,0-0.618,0c-0.218,0-0.432,0-0.642,0
		s-0.411,0-0.604,0c-0.193,0-0.363,0-0.51,0h-2.388V208.997z M1086.718,208.874c0.171,0.06,0.362,0.098,0.575,0.113
		c0.212,0.016,0.44,0.023,0.685,0.023c0.439,0,0.839-0.09,1.197-0.271c0.359-0.181,0.664-0.457,0.916-0.828
		c0.251-0.371,0.446-0.841,0.586-1.41c0.139-0.569,0.208-1.249,0.208-2.039c0-0.694-0.06-1.323-0.179-1.888
		c-0.12-0.564-0.307-1.045-0.561-1.442s-0.581-0.704-0.981-0.919c-0.4-0.214-0.882-0.321-1.443-0.321
		c-0.269,0-0.483,0.016-0.645,0.047c-0.161,0.032-0.28,0.054-0.358,0.069V208.874z"/>
	<path d="M1095.458,209.07l1.209-0.189v-8.73l-1.224-0.213v-1.033h4.937v1.033l-1.23,0.205v8.738l1.245,0.205v0.967h-4.937V209.07z"
		/>
	<path d="M1102.705,206.684h1.369l0.374,1.802c0.112,0.133,0.318,0.252,0.619,0.359c0.3,0.105,0.662,0.159,1.087,0.159
		c0.63,0,1.089-0.132,1.377-0.396c0.288-0.263,0.433-0.623,0.433-1.078c0-0.246-0.057-0.469-0.169-0.665
		c-0.112-0.197-0.274-0.38-0.486-0.548c-0.213-0.169-0.473-0.332-0.78-0.488s-0.654-0.322-1.04-0.498
		c-0.19-0.086-0.395-0.186-0.611-0.299c-0.218-0.113-0.432-0.244-0.642-0.392s-0.412-0.313-0.607-0.498s-0.366-0.393-0.513-0.623
		c-0.146-0.229-0.264-0.483-0.352-0.762c-0.088-0.277-0.132-0.583-0.132-0.915c0-0.394,0.079-0.768,0.238-1.124
		c0.158-0.356,0.398-0.669,0.721-0.939s0.728-0.485,1.216-0.645s1.064-0.238,1.729-0.238c0.415,0,0.792,0.026,1.132,0.077
		c0.339,0.051,0.641,0.108,0.904,0.172s0.489,0.125,0.678,0.184c0.188,0.059,0.338,0.092,0.45,0.102l-0.095,2.57h-1.333
		l-0.359-1.732c-0.034-0.042-0.09-0.084-0.168-0.127s-0.175-0.082-0.289-0.117c-0.115-0.035-0.245-0.064-0.389-0.086
		c-0.145-0.021-0.297-0.031-0.458-0.031c-0.293,0-0.542,0.035-0.747,0.104s-0.373,0.162-0.505,0.281
		c-0.132,0.118-0.228,0.261-0.286,0.427c-0.059,0.167-0.088,0.345-0.088,0.534c0,0.266,0.067,0.503,0.202,0.711
		c0.134,0.209,0.318,0.402,0.553,0.581c0.234,0.178,0.51,0.349,0.827,0.513s0.659,0.333,1.025,0.509
		c0.308,0.151,0.63,0.321,0.967,0.509s0.646,0.41,0.927,0.666c0.28,0.256,0.513,0.553,0.696,0.89
		c0.183,0.337,0.274,0.726,0.274,1.167c0,0.242-0.029,0.49-0.088,0.744s-0.155,0.502-0.289,0.744
		c-0.135,0.242-0.31,0.47-0.524,0.684c-0.215,0.213-0.479,0.4-0.791,0.562c-0.312,0.161-0.677,0.289-1.095,0.384
		c-0.417,0.095-0.895,0.143-1.432,0.143c-0.454,0-0.878-0.032-1.271-0.099c-0.394-0.066-0.746-0.139-1.059-0.22
		s-0.581-0.156-0.806-0.228c-0.225-0.07-0.398-0.111-0.521-0.121L1102.705,206.684z"/>
	<path d="M1112.171,209.07l1.143-0.186v-8.734l-1.165-0.213v-1.033h8.108l0.205,2.586h-1.194l-0.513-1.523h-2.959v3.801h1.86
		l0.271-1.23h1.069v3.729h-1.069l-0.257-1.311h-1.875v3.933h3.296l0.916-1.958l1.252,0.354l-0.381,2.77h-8.708V209.07z"/>
	<path d="M1121.915,209.07l0.879-0.189l3.384-9.977h2.585l3.406,9.984l0.85,0.182v0.982h-4.637v-0.982l1.055-0.189l-0.527-1.81
		h-3.684l-0.513,1.839l1.164,0.16v0.982h-3.947L1121.915,209.07z M1128.58,205.943l-1.326-4.463l-0.227-1.017l-0.228,1.017
		l-1.26,4.463H1128.58z"/>
	<path d="M1134.479,206.684h1.37l0.373,1.802c0.112,0.133,0.318,0.252,0.619,0.359c0.3,0.105,0.663,0.159,1.088,0.159
		c0.63,0,1.089-0.132,1.377-0.396c0.288-0.263,0.432-0.623,0.432-1.078c0-0.246-0.056-0.469-0.168-0.665
		c-0.112-0.197-0.275-0.38-0.487-0.548c-0.213-0.169-0.473-0.332-0.78-0.488s-0.654-0.322-1.04-0.498
		c-0.19-0.086-0.395-0.186-0.611-0.299c-0.218-0.113-0.431-0.244-0.641-0.392s-0.413-0.313-0.608-0.498s-0.366-0.393-0.513-0.623
		c-0.146-0.229-0.264-0.483-0.352-0.762c-0.088-0.277-0.132-0.583-0.132-0.915c0-0.394,0.079-0.768,0.238-1.124
		c0.158-0.356,0.399-0.669,0.722-0.939s0.728-0.485,1.216-0.645s1.064-0.238,1.729-0.238c0.415,0,0.792,0.026,1.131,0.077
		c0.34,0.051,0.642,0.108,0.905,0.172s0.489,0.125,0.677,0.184c0.188,0.059,0.339,0.092,0.451,0.102l-0.096,2.57h-1.333
		l-0.358-1.732c-0.034-0.042-0.091-0.084-0.169-0.127s-0.175-0.082-0.289-0.117c-0.115-0.035-0.244-0.064-0.389-0.086
		c-0.144-0.021-0.296-0.031-0.457-0.031c-0.293,0-0.542,0.035-0.747,0.104s-0.374,0.162-0.506,0.281
		c-0.132,0.118-0.227,0.261-0.285,0.427c-0.059,0.167-0.088,0.345-0.088,0.534c0,0.266,0.066,0.503,0.201,0.711
		c0.134,0.209,0.318,0.402,0.553,0.581c0.234,0.178,0.511,0.349,0.828,0.513s0.659,0.333,1.025,0.509
		c0.308,0.151,0.63,0.321,0.967,0.509s0.646,0.41,0.926,0.666c0.281,0.256,0.513,0.553,0.696,0.89
		c0.183,0.337,0.274,0.726,0.274,1.167c0,0.242-0.029,0.49-0.088,0.744s-0.155,0.502-0.289,0.744
		c-0.135,0.242-0.309,0.47-0.523,0.684c-0.215,0.213-0.479,0.4-0.791,0.562c-0.312,0.161-0.678,0.289-1.096,0.384
		c-0.417,0.095-0.895,0.143-1.432,0.143c-0.454,0-0.878-0.032-1.271-0.099c-0.394-0.066-0.746-0.139-1.059-0.22
		s-0.581-0.156-0.806-0.228c-0.225-0.07-0.397-0.111-0.52-0.121L1134.479,206.684z"/>
	<path d="M1143.944,209.07l1.143-0.186v-8.734l-1.164-0.213v-1.033h8.107l0.205,2.586h-1.193l-0.513-1.523h-2.959v3.801h1.86
		l0.271-1.23h1.069v3.729h-1.069l-0.256-1.311h-1.875v3.933h3.296l0.915-1.958l1.253,0.354l-0.381,2.77h-8.709V209.07z"/>
	<path d="M1154.934,206.684h1.37l0.373,1.802c0.112,0.133,0.318,0.252,0.619,0.359c0.3,0.105,0.663,0.159,1.088,0.159
		c0.63,0,1.089-0.132,1.377-0.396c0.288-0.263,0.432-0.623,0.432-1.078c0-0.246-0.056-0.469-0.168-0.665
		c-0.112-0.197-0.275-0.38-0.487-0.548c-0.213-0.169-0.473-0.332-0.78-0.488s-0.654-0.322-1.04-0.498
		c-0.19-0.086-0.395-0.186-0.611-0.299c-0.218-0.113-0.431-0.244-0.641-0.392s-0.413-0.313-0.608-0.498s-0.366-0.393-0.513-0.623
		c-0.146-0.229-0.264-0.483-0.352-0.762c-0.088-0.277-0.132-0.583-0.132-0.915c0-0.394,0.079-0.768,0.238-1.124
		c0.158-0.356,0.399-0.669,0.722-0.939s0.728-0.485,1.216-0.645s1.064-0.238,1.729-0.238c0.415,0,0.792,0.026,1.131,0.077
		c0.34,0.051,0.642,0.108,0.905,0.172s0.489,0.125,0.677,0.184c0.188,0.059,0.339,0.092,0.451,0.102l-0.096,2.57h-1.333
		l-0.358-1.732c-0.034-0.042-0.091-0.084-0.169-0.127s-0.175-0.082-0.289-0.117c-0.115-0.035-0.244-0.064-0.389-0.086
		c-0.144-0.021-0.296-0.031-0.457-0.031c-0.293,0-0.542,0.035-0.747,0.104s-0.374,0.162-0.506,0.281
		c-0.132,0.118-0.227,0.261-0.285,0.427c-0.059,0.167-0.088,0.345-0.088,0.534c0,0.266,0.066,0.503,0.201,0.711
		c0.134,0.209,0.318,0.402,0.553,0.581c0.234,0.178,0.511,0.349,0.828,0.513s0.659,0.333,1.025,0.509
		c0.308,0.151,0.63,0.321,0.967,0.509s0.646,0.41,0.926,0.666c0.281,0.256,0.513,0.553,0.696,0.89
		c0.183,0.337,0.274,0.726,0.274,1.167c0,0.242-0.029,0.49-0.088,0.744s-0.155,0.502-0.289,0.744
		c-0.135,0.242-0.309,0.47-0.523,0.684c-0.215,0.213-0.479,0.4-0.791,0.562c-0.312,0.161-0.678,0.289-1.096,0.384
		c-0.417,0.095-0.895,0.143-1.432,0.143c-0.454,0-0.878-0.032-1.271-0.099c-0.394-0.066-0.746-0.139-1.059-0.22
		s-0.581-0.156-0.806-0.228c-0.225-0.07-0.397-0.111-0.52-0.121L1154.934,206.684z"/>
</g>
<polygon fill="#1B1B1A" stroke="#1B1B1A" stroke-linejoin="round" stroke-miterlimit="10" points="1064.454,306.284 
	1068.383,309.684 1064.454,313.085 "/>
<g>
	<path d="M1083.224,314.122l1.209-0.19v-8.73l-1.224-0.212v-1.033h4.937v1.033l-1.23,0.205v8.737l1.245,0.205v0.967h-4.937V314.122z
		"/>
	<path d="M1090.067,314.122l1.187-0.183v-8.745l-1.187-0.205v-1.033h3.655l4.263,6.468l0.798,1.699v-6.937l-1.289-0.197v-1.033
		h3.853v1.033l-1.157,0.205v9.909h-2.036l-4.489-6.862l-0.996-2.007v7.705l1.538,0.183v0.981h-4.139V314.122z"/>
	<path d="M1104.609,314.122l1.882-0.19v-8.833h-1.89l-0.607,3.289h-1.392l0.22-4.432h9.719l0.213,4.432h-1.341l-0.645-3.289h-1.772
		v8.826l2.051,0.197v0.981h-6.438V314.122z"/>
	<path d="M1119.246,315.112c-0.869,0-1.619-0.133-2.249-0.399c-0.63-0.266-1.147-0.643-1.553-1.13s-0.705-1.072-0.9-1.757
		s-0.293-1.442-0.293-2.273c0-0.855,0.123-1.628,0.369-2.316c0.247-0.689,0.596-1.278,1.048-1.769
		c0.451-0.489,0.995-0.864,1.63-1.126c0.635-0.261,1.34-0.392,2.116-0.392c0.869,0,1.617,0.127,2.245,0.382
		c0.627,0.255,1.143,0.618,1.545,1.09c0.403,0.472,0.701,1.04,0.894,1.704c0.193,0.665,0.29,1.409,0.29,2.233
		c0,0.857-0.124,1.639-0.37,2.344c-0.247,0.705-0.595,1.31-1.044,1.812c-0.449,0.503-0.99,0.895-1.622,1.176
		C1120.719,314.971,1120.018,315.112,1119.246,315.112z M1119.312,314.093c0.732,0,1.308-0.396,1.725-1.188
		c0.418-0.792,0.627-1.974,0.627-3.545c0-0.771-0.054-1.435-0.161-1.99s-0.262-1.013-0.462-1.37c-0.2-0.356-0.445-0.619-0.736-0.787
		c-0.29-0.168-0.618-0.252-0.984-0.252s-0.695,0.092-0.985,0.276c-0.291,0.185-0.536,0.465-0.736,0.841
		c-0.2,0.377-0.354,0.854-0.461,1.431s-0.161,1.256-0.161,2.036c0,0.776,0.052,1.449,0.157,2.02
		c0.104,0.569,0.259,1.042,0.461,1.415c0.203,0.374,0.448,0.653,0.736,0.838S1118.945,314.093,1119.312,314.093z"/>
	<path d="M1126.104,314.122l1.143-0.19v-8.73l-1.128-0.212v-1.033h5.01v1.033l-1.392,0.212v8.643h2.886l0.967-2.915l1.369,0.205
		l-0.432,3.97h-8.423V314.122z"/>
	<path d="M1136.456,314.122l1.143-0.187v-8.734l-1.164-0.212v-1.033h8.107l0.205,2.586h-1.193l-0.513-1.523h-2.959v3.801h1.86
		l0.271-1.23h1.069v3.729h-1.069l-0.256-1.312h-1.875v3.934h3.296l0.915-1.958l1.253,0.354l-0.381,2.769h-8.709V314.122z"/>
	<path d="M1147.072,314.122l1.143-0.183v-8.684l-1.092-0.202v-1.098h2.278c0.215,0,0.418,0,0.611,0c0.192,0,0.387,0,0.582,0
		s0.399,0,0.611,0c0.213,0,0.446,0,0.7,0c0.791,0,1.46,0.057,2.007,0.17c0.547,0.112,0.989,0.289,1.329,0.529
		c0.339,0.24,0.583,0.546,0.732,0.916c0.148,0.37,0.224,0.81,0.224,1.319c0,0.303-0.043,0.611-0.129,0.927
		c-0.085,0.314-0.217,0.61-0.396,0.887c-0.178,0.276-0.401,0.522-0.67,0.738c-0.269,0.217-0.586,0.383-0.952,0.498
		c0.269,0.112,0.511,0.284,0.726,0.516c0.215,0.232,0.41,0.492,0.586,0.78s0.334,0.586,0.476,0.894s0.274,0.593,0.399,0.854
		c0.124,0.262,0.245,0.482,0.362,0.663s0.237,0.285,0.359,0.314l0.461,0.161v0.981h-2.849c-0.088,0-0.178-0.061-0.268-0.183
		c-0.091-0.123-0.182-0.284-0.274-0.484c-0.093-0.201-0.188-0.432-0.282-0.693c-0.096-0.262-0.194-0.533-0.297-0.814
		s-0.206-0.561-0.312-0.84c-0.104-0.278-0.216-0.535-0.333-0.771c-0.117-0.234-0.238-0.438-0.362-0.612
		c-0.125-0.174-0.255-0.295-0.392-0.363c-0.132,0-0.272,0-0.422,0c-0.148,0-0.288,0-0.417,0c-0.13,0-0.242,0-0.337,0
		c-0.096,0-0.157,0-0.187,0v3.604l1.333,0.176v0.981h-4.951V314.122z M1150.69,309.321c0.044,0.014,0.118,0.022,0.223,0.026
		c0.105,0.005,0.218,0.007,0.337,0.007c0.12,0,0.236,0,0.349,0s0.2,0,0.264,0c0.527,0,0.943-0.193,1.248-0.579
		c0.306-0.387,0.458-0.99,0.458-1.811c0-0.333-0.034-0.628-0.103-0.884s-0.178-0.471-0.329-0.644
		c-0.151-0.174-0.351-0.306-0.598-0.396c-0.246-0.089-0.545-0.134-0.896-0.134c-0.278,0-0.49,0.009-0.634,0.025
		c-0.145,0.018-0.25,0.033-0.318,0.047V309.321z"/>
	<path d="M1157.834,314.122l0.879-0.189l3.384-9.977h2.586l3.405,9.984l0.85,0.182v0.981h-4.636v-0.981l1.055-0.19l-0.527-1.809
		h-3.685l-0.513,1.838l1.165,0.161v0.981h-3.948L1157.834,314.122z M1164.499,310.995l-1.325-4.463l-0.228-1.017l-0.227,1.017
		l-1.26,4.463H1164.499z"/>
	<path d="M1169.995,314.122l1.187-0.183v-8.745l-1.187-0.205v-1.033h3.655l4.263,6.468l0.798,1.699v-6.937l-1.289-0.197v-1.033
		h3.853v1.033l-1.157,0.205v9.909h-2.036l-4.489-6.862l-0.996-2.007v7.705l1.538,0.183v0.981h-4.139V314.122z"/>
	<path d="M1182.684,309.584c0-0.892,0.142-1.687,0.425-2.385s0.673-1.288,1.169-1.771c0.495-0.481,1.081-0.848,1.758-1.101
		c0.676-0.253,1.409-0.379,2.2-0.379c0.356,0,0.708,0.018,1.055,0.055c0.347,0.036,0.673,0.077,0.979,0.121
		c0.305,0.044,0.578,0.087,0.82,0.128c0.241,0.042,0.438,0.069,0.589,0.084l-0.176,3.191h-1.567l-0.513-2.147
		c-0.073-0.095-0.217-0.181-0.432-0.256c-0.215-0.076-0.527-0.114-0.938-0.114c-0.386,0-0.736,0.092-1.051,0.274
		c-0.315,0.182-0.584,0.455-0.806,0.817c-0.223,0.362-0.395,0.816-0.517,1.361c-0.122,0.546-0.184,1.181-0.184,1.906
		c0,0.649,0.053,1.257,0.158,1.824c0.104,0.566,0.267,1.061,0.486,1.482s0.497,0.755,0.832,0.999
		c0.334,0.244,0.733,0.366,1.197,0.366c0.21,0,0.392-0.015,0.546-0.043c0.153-0.028,0.285-0.064,0.396-0.109
		c0.109-0.045,0.199-0.095,0.271-0.149c0.07-0.055,0.131-0.11,0.18-0.167l0.703-1.572l1.421,0.132l-0.278,2.411
		c-0.234,0.024-0.453,0.066-0.655,0.126c-0.203,0.06-0.425,0.123-0.667,0.19c-0.241,0.066-0.517,0.125-0.824,0.176
		c-0.308,0.05-0.681,0.075-1.12,0.075c-0.903,0-1.695-0.128-2.377-0.383c-0.681-0.255-1.25-0.621-1.706-1.098
		c-0.457-0.477-0.8-1.057-1.029-1.741C1182.799,311.206,1182.684,310.437,1182.684,309.584z"/>
	<path d="M1193.49,314.122l1.143-0.187v-8.734l-1.165-0.212v-1.033h8.108l0.205,2.586h-1.194l-0.513-1.523h-2.959v3.801h1.86
		l0.271-1.23h1.069v3.729h-1.069l-0.257-1.312h-1.875v3.934h3.296l0.916-1.958l1.252,0.354l-0.381,2.769h-8.708V314.122z"/>
</g>
<polygon fill="#1B1B1A" stroke="#1B1B1A" stroke-linejoin="round" stroke-miterlimit="10" points="1064.454,347.968 
	1068.383,351.368 1064.454,354.769 "/>
<g>
	<path d="M1082.25,355.807l0.879-0.189l3.384-9.977h2.585l3.406,9.983l0.85,0.183v0.981h-4.637v-0.981l1.055-0.19l-0.527-1.809
		h-3.684l-0.513,1.838l1.164,0.161v0.981h-3.947L1082.25,355.807z M1088.915,352.679l-1.326-4.463l-0.227-1.016l-0.228,1.016
		l-1.26,4.463H1088.915z"/>
	<path d="M1094.44,355.807l1.143-0.19v-8.73l-1.128-0.213v-1.032h5.01v1.032l-1.392,0.213v8.643h2.886l0.967-2.915l1.369,0.205
		l-0.432,3.97h-8.423V355.807z"/>
	<path d="M1104.792,355.807l1.143-0.19v-8.73l-1.128-0.213v-1.032h5.01v1.032l-1.392,0.213v8.643h2.886l0.967-2.915l1.37,0.205
		l-0.433,3.97h-8.423V355.807z"/>
	<path d="M1115.145,355.807l1.143-0.187v-8.734l-1.165-0.213v-1.032h8.108l0.205,2.585h-1.194l-0.513-1.523h-2.959v3.802h1.86
		l0.271-1.23h1.069v3.728h-1.069l-0.257-1.311h-1.875v3.934h3.296l0.916-1.958l1.252,0.354l-0.381,2.769h-8.708V355.807z"/>
	<path d="M1125.76,355.807l1.143-0.183v-8.684l-1.091-0.203v-1.097h2.277c0.215,0,0.419,0,0.612,0c0.192,0,0.387,0,0.582,0
		s0.399,0,0.611,0c0.213,0,0.445,0,0.699,0c0.791,0,1.46,0.057,2.007,0.169c0.547,0.113,0.99,0.29,1.33,0.53
		c0.339,0.24,0.583,0.546,0.732,0.916c0.148,0.37,0.223,0.81,0.223,1.319c0,0.303-0.043,0.611-0.128,0.926
		c-0.086,0.315-0.218,0.611-0.396,0.887c-0.179,0.277-0.401,0.523-0.67,0.739s-0.586,0.382-0.952,0.497
		c0.269,0.113,0.51,0.285,0.725,0.517c0.215,0.232,0.41,0.492,0.586,0.78s0.335,0.586,0.477,0.894s0.274,0.593,0.399,0.854
		c0.124,0.261,0.245,0.481,0.362,0.663c0.117,0.18,0.236,0.285,0.358,0.314l0.462,0.161v0.981h-2.85
		c-0.088,0-0.177-0.061-0.267-0.184c-0.091-0.122-0.183-0.283-0.275-0.484c-0.093-0.2-0.187-0.432-0.281-0.693
		c-0.096-0.261-0.194-0.532-0.297-0.813s-0.207-0.562-0.312-0.84c-0.105-0.278-0.216-0.536-0.333-0.771s-0.238-0.439-0.362-0.612
		c-0.125-0.174-0.256-0.295-0.393-0.363c-0.132,0-0.272,0-0.421,0c-0.149,0-0.288,0-0.417,0c-0.13,0-0.242,0-0.337,0
		c-0.096,0-0.158,0-0.188,0v3.604l1.333,0.176v0.981h-4.951V355.807z M1129.378,351.006c0.044,0.013,0.118,0.022,0.224,0.026
		c0.104,0.004,0.217,0.006,0.337,0.006c0.119,0,0.235,0,0.348,0s0.2,0,0.264,0c0.527,0,0.943-0.192,1.249-0.578
		c0.305-0.387,0.458-0.99,0.458-1.811c0-0.334-0.034-0.628-0.103-0.884s-0.179-0.471-0.33-0.644
		c-0.151-0.174-0.351-0.307-0.597-0.396c-0.247-0.089-0.546-0.134-0.897-0.134c-0.278,0-0.489,0.008-0.633,0.025
		c-0.145,0.018-0.251,0.033-0.319,0.047V351.006z"/>
	<path d="M1137.313,351.315c0-0.904,0.139-1.708,0.417-2.413c0.278-0.703,0.672-1.299,1.18-1.783
		c0.508-0.486,1.119-0.854,1.835-1.106c0.715-0.253,1.51-0.378,2.384-0.378c0.396,0,0.788,0.018,1.179,0.055
		c0.391,0.036,0.755,0.08,1.092,0.132c0.337,0.051,0.635,0.104,0.894,0.157s0.454,0.096,0.586,0.125l-0.176,2.699h-1.714
		l-0.447-1.787c-0.034-0.033-0.084-0.07-0.149-0.113c-0.066-0.044-0.158-0.085-0.275-0.123c-0.117-0.039-0.263-0.071-0.436-0.097
		c-0.174-0.024-0.38-0.038-0.619-0.038c-0.454,0-0.859,0.094-1.216,0.281c-0.356,0.187-0.659,0.465-0.908,0.834
		c-0.249,0.368-0.439,0.827-0.571,1.376s-0.197,1.185-0.197,1.909c0,0.662,0.051,1.279,0.153,1.852s0.265,1.07,0.487,1.494
		c0.222,0.423,0.507,0.756,0.854,0.996c0.347,0.242,0.764,0.362,1.252,0.362c0.166,0,0.332-0.011,0.498-0.033
		c0.166-0.021,0.321-0.054,0.466-0.095c0.144-0.041,0.274-0.094,0.392-0.158c0.117-0.062,0.215-0.137,0.293-0.219v-3.084
		l-1.414-0.168v-1.1h4.6v1.1l-0.762,0.139v3.904c-0.195,0-0.435,0.04-0.718,0.121c-0.283,0.082-0.606,0.17-0.97,0.267
		c-0.364,0.097-0.766,0.183-1.205,0.259s-0.908,0.115-1.406,0.115c-0.864,0-1.631-0.141-2.3-0.422
		c-0.669-0.28-1.232-0.666-1.688-1.156c-0.457-0.49-0.802-1.068-1.036-1.737S1137.313,352.09,1137.313,351.315z"/>
	<path d="M1150.99,355.807l1.531-0.183v-3.297l-3.105-5.441l-0.879-0.213v-1.032h4.673v1.032l-0.989,0.213l1.751,3.523l0.337,0.944
		l0.373-0.931l1.604-3.545l-1.121-0.205v-1.032h3.787v1.032l-0.931,0.191l-2.886,5.463v3.289l1.59,0.19v0.981h-5.735V355.807z"/>
</g>
<polygon fill="#1B1B1A" stroke="#1B1B1A" stroke-linejoin="round" stroke-miterlimit="10" points="1064.454,389.652 
	1068.383,393.053 1064.454,396.453 "/>
<g>
	<path d="M1083.121,397.491l1.143-0.187v-8.734l-1.164-0.213v-1.032h8.107l0.205,2.585h-1.193l-0.513-1.523h-2.959v3.802h1.86
		l0.271-1.23h1.069v3.728h-1.069l-0.256-1.311h-1.875v3.933h3.296l0.915-1.957l1.253,0.354l-0.381,2.769h-8.709V397.491z"/>
	<path d="M1093.246,397.491l1.245-0.184l2.879-4.248l-2.996-4.489l-1.011-0.213v-1.032h5.062v1.032l-1.136,0.22l1.89,3.164
		l1.971-3.179l-1.224-0.205v-1.032h3.926v1.032l-1.187,0.205l-2.871,3.948l3.223,4.79l1.033,0.19v0.981h-5.062v-0.981l1.128-0.19
		l-2.102-3.436l-1.963,3.442l1.348,0.184v0.981h-4.153V397.491z"/>
	<path d="M1107.019,397.491l1.883-0.19v-8.833h-1.89l-0.608,3.288h-1.392l0.22-4.431h9.72l0.212,4.431h-1.34l-0.645-3.288h-1.772
		v8.825l2.051,0.198v0.981h-6.438V397.491z"/>
	<path d="M1116.821,397.491l1.143-0.187v-8.734l-1.164-0.213v-1.032h8.107l0.205,2.585h-1.193l-0.513-1.523h-2.959v3.802h1.86
		l0.271-1.23h1.069v3.728h-1.069l-0.256-1.311h-1.875v3.933h3.296l0.915-1.957l1.253,0.354l-0.381,2.769h-8.709V397.491z"/>
	<path d="M1127.438,397.491l1.143-0.184v-8.684l-1.092-0.202v-1.097h2.278c0.215,0,0.418,0,0.611,0c0.192,0,0.387,0,0.582,0
		s0.399,0,0.611,0c0.213,0,0.446,0,0.7,0c0.791,0,1.46,0.057,2.007,0.169c0.547,0.113,0.989,0.29,1.329,0.53
		c0.339,0.24,0.583,0.546,0.732,0.916c0.148,0.369,0.224,0.81,0.224,1.318c0,0.304-0.043,0.612-0.129,0.927
		c-0.085,0.315-0.217,0.61-0.396,0.887c-0.178,0.276-0.401,0.522-0.67,0.739c-0.269,0.216-0.586,0.382-0.952,0.497
		c0.269,0.112,0.511,0.285,0.726,0.517c0.215,0.232,0.41,0.492,0.586,0.78s0.334,0.586,0.476,0.894s0.274,0.592,0.399,0.854
		c0.124,0.261,0.245,0.481,0.362,0.662s0.237,0.286,0.359,0.315l0.461,0.161v0.981h-2.849c-0.088,0-0.178-0.062-0.268-0.184
		c-0.091-0.122-0.182-0.283-0.274-0.484c-0.093-0.2-0.188-0.432-0.282-0.693c-0.096-0.261-0.194-0.532-0.297-0.813
		s-0.206-0.562-0.312-0.84c-0.104-0.279-0.216-0.536-0.333-0.771c-0.117-0.235-0.238-0.439-0.362-0.612
		c-0.125-0.174-0.255-0.295-0.392-0.363c-0.132,0-0.272,0-0.422,0c-0.148,0-0.288,0-0.417,0c-0.13,0-0.242,0-0.337,0
		c-0.096,0-0.157,0-0.187,0v3.604l1.333,0.176v0.981h-4.951V397.491z M1131.056,392.691c0.044,0.013,0.118,0.021,0.223,0.026
		c0.105,0.004,0.218,0.006,0.337,0.006c0.12,0,0.236,0,0.349,0s0.2,0,0.264,0c0.527,0,0.943-0.192,1.248-0.579
		c0.306-0.386,0.458-0.989,0.458-1.811c0-0.333-0.034-0.627-0.103-0.883s-0.178-0.471-0.329-0.645s-0.351-0.306-0.598-0.395
		c-0.246-0.089-0.545-0.134-0.896-0.134c-0.278,0-0.49,0.008-0.634,0.025c-0.145,0.017-0.25,0.032-0.318,0.047V392.691z"/>
	<path d="M1139.042,397.491l1.187-0.184v-8.745l-1.187-0.205v-1.032h3.654l4.263,6.467l0.799,1.699v-6.936l-1.289-0.198v-1.032
		h3.853v1.032l-1.157,0.205v9.91h-2.036l-4.49-6.863l-0.996-2.007v7.705l1.538,0.184v0.981h-4.138V397.491z"/>
	<path d="M1151.02,397.491l0.879-0.189l3.384-9.977h2.586l3.405,9.983l0.85,0.183v0.981h-4.636v-0.981l1.055-0.19l-0.527-1.81
		h-3.685l-0.513,1.839l1.165,0.161v0.981h-3.948L1151.02,397.491z M1157.685,394.363l-1.325-4.463l-0.228-1.017l-0.227,1.017
		l-1.26,4.463H1157.685z"/>
	<path d="M1163.21,397.491l1.143-0.19v-8.73l-1.128-0.213v-1.032h5.01v1.032l-1.392,0.213v8.643h2.886l0.967-2.915l1.37,0.205
		l-0.433,3.97h-8.423V397.491z"/>
	<path d="M1177.638,397.491l0.879-0.189l3.384-9.977h2.585l3.406,9.983l0.85,0.183v0.981h-4.637v-0.981l1.055-0.19l-0.527-1.81
		h-3.684l-0.513,1.839l1.164,0.161v0.981h-3.947L1177.638,397.491z M1184.303,394.363l-1.326-4.463l-0.227-1.017l-0.228,1.017
		l-1.26,4.463H1184.303z"/>
	<path d="M1189.747,392.999c0-0.904,0.14-1.708,0.418-2.413c0.278-0.704,0.671-1.299,1.179-1.784s1.119-0.854,1.835-1.105
		c0.715-0.253,1.51-0.379,2.384-0.379c0.396,0,0.789,0.019,1.18,0.056c0.391,0.036,0.754,0.08,1.091,0.132
		c0.337,0.051,0.635,0.104,0.894,0.157s0.454,0.095,0.586,0.124l-0.176,2.7h-1.714l-0.446-1.788
		c-0.034-0.032-0.085-0.069-0.15-0.113c-0.066-0.043-0.157-0.084-0.274-0.123s-0.263-0.07-0.437-0.096
		c-0.173-0.025-0.379-0.038-0.618-0.038c-0.454,0-0.859,0.094-1.216,0.28c-0.356,0.188-0.659,0.465-0.908,0.834
		s-0.439,0.828-0.571,1.377s-0.198,1.185-0.198,1.908c0,0.663,0.052,1.28,0.154,1.853s0.265,1.07,0.486,1.493
		c0.223,0.424,0.507,0.756,0.854,0.997s0.765,0.362,1.253,0.362c0.166,0,0.332-0.011,0.498-0.033
		c0.166-0.021,0.32-0.054,0.465-0.095c0.144-0.042,0.274-0.095,0.392-0.158s0.215-0.137,0.293-0.22v-3.083l-1.413-0.169v-1.099h4.6
		v1.099l-0.762,0.14v3.903c-0.195,0-0.435,0.041-0.718,0.122c-0.283,0.082-0.607,0.17-0.971,0.267
		c-0.364,0.096-0.766,0.183-1.205,0.259s-0.908,0.114-1.406,0.114c-0.864,0-1.631-0.14-2.3-0.421
		c-0.669-0.28-1.231-0.666-1.688-1.156c-0.456-0.49-0.802-1.069-1.036-1.737C1189.864,394.496,1189.747,393.775,1189.747,392.999z"
		/>
	<path d="M1201.791,397.491l1.143-0.187v-8.734l-1.164-0.213v-1.032h8.107l0.205,2.585h-1.193l-0.513-1.523h-2.959v3.802h1.86
		l0.271-1.23h1.069v3.728h-1.069l-0.256-1.311h-1.875v3.933h3.296l0.915-1.957l1.253,0.354l-0.381,2.769h-8.709V397.491z"/>
	<path d="M1212.378,397.491l1.187-0.184v-8.745l-1.187-0.205v-1.032h3.654l4.263,6.467l0.799,1.699v-6.936l-1.289-0.198v-1.032
		h3.853v1.032l-1.157,0.205v9.91h-2.036l-4.49-6.863l-0.996-2.007v7.705l1.538,0.184v0.981h-4.138V397.491z"/>
	<path d="M1226.919,397.491l1.883-0.19v-8.833h-1.89l-0.608,3.288h-1.392l0.22-4.431h9.72l0.212,4.431h-1.34l-0.645-3.288h-1.772
		v8.825l2.051,0.198v0.981h-6.438V397.491z"/>
	<path d="M1237.096,395.105h1.369l0.374,1.803c0.112,0.133,0.318,0.252,0.619,0.358c0.3,0.106,0.662,0.159,1.087,0.159
		c0.63,0,1.089-0.132,1.377-0.395c0.288-0.264,0.433-0.623,0.433-1.079c0-0.246-0.057-0.468-0.169-0.665s-0.274-0.38-0.486-0.548
		c-0.213-0.169-0.473-0.331-0.78-0.487c-0.308-0.157-0.654-0.323-1.04-0.499c-0.19-0.085-0.395-0.185-0.611-0.299
		c-0.218-0.113-0.432-0.244-0.642-0.392c-0.21-0.146-0.412-0.312-0.607-0.498c-0.195-0.185-0.366-0.393-0.513-0.623
		c-0.146-0.229-0.264-0.483-0.352-0.762c-0.088-0.277-0.132-0.582-0.132-0.914c0-0.395,0.079-0.769,0.238-1.125
		c0.158-0.355,0.398-0.669,0.721-0.939s0.728-0.485,1.216-0.645c0.488-0.158,1.064-0.238,1.729-0.238
		c0.415,0,0.792,0.026,1.132,0.077c0.339,0.052,0.641,0.108,0.904,0.172s0.489,0.125,0.678,0.184
		c0.188,0.059,0.338,0.093,0.45,0.103l-0.095,2.569h-1.333l-0.359-1.731c-0.034-0.043-0.09-0.085-0.168-0.128
		s-0.175-0.082-0.289-0.117c-0.115-0.035-0.245-0.063-0.389-0.085c-0.145-0.021-0.297-0.032-0.458-0.032
		c-0.293,0-0.542,0.035-0.747,0.104c-0.205,0.069-0.373,0.162-0.505,0.281c-0.132,0.118-0.228,0.261-0.286,0.427
		c-0.059,0.167-0.088,0.345-0.088,0.534c0,0.266,0.067,0.503,0.202,0.712c0.134,0.209,0.318,0.402,0.553,0.58
		s0.51,0.349,0.827,0.513s0.659,0.333,1.025,0.509c0.308,0.152,0.63,0.321,0.967,0.509s0.646,0.41,0.927,0.666
		c0.28,0.256,0.513,0.553,0.696,0.89c0.183,0.337,0.274,0.727,0.274,1.168c0,0.242-0.029,0.489-0.088,0.743
		s-0.155,0.502-0.289,0.744c-0.135,0.242-0.31,0.47-0.524,0.684s-0.479,0.401-0.791,0.562s-0.677,0.289-1.095,0.384
		c-0.417,0.096-0.895,0.143-1.432,0.143c-0.454,0-0.878-0.032-1.271-0.099c-0.394-0.065-0.746-0.139-1.059-0.22
		c-0.312-0.08-0.581-0.156-0.806-0.227c-0.225-0.071-0.398-0.111-0.521-0.121L1237.096,395.105z"/>
</g>
<polygon fill="#1B1B1A" stroke="#1B1B1A" stroke-linejoin="round" stroke-miterlimit="10" points="1064.454,442.652 
	1068.383,446.053 1064.454,449.453 "/>
<g>
	<path d="M1083.121,450.451l1.143-0.19v-8.631l-1.128-0.198v-1.106h2.3c0.234,0,0.454,0,0.659,0s0.403,0,0.594,0s0.377,0,0.561,0
		c0.183,0,0.369,0,0.56,0c0.811,0,1.484,0.056,2.021,0.167c0.537,0.112,0.967,0.274,1.289,0.488s0.55,0.473,0.682,0.776
		c0.132,0.305,0.197,0.648,0.197,1.033c0,0.371-0.06,0.707-0.179,1.009c-0.12,0.302-0.286,0.566-0.498,0.795
		c-0.213,0.228-0.466,0.415-0.759,0.562s-0.612,0.247-0.959,0.3c0.474,0,0.905,0.057,1.296,0.17
		c0.391,0.114,0.726,0.281,1.004,0.502s0.493,0.493,0.645,0.817s0.227,0.692,0.227,1.104c0,0.47-0.075,0.913-0.227,1.33
		c-0.151,0.416-0.41,0.779-0.776,1.09c-0.366,0.31-0.858,0.555-1.476,0.733c-0.618,0.18-1.391,0.27-2.318,0.27
		c-0.259,0-0.487,0-0.685,0c-0.198,0-0.389,0-0.571,0c-0.184,0-0.373,0-0.568,0s-0.42,0-0.674,0h-2.358V450.451z M1086.71,450.363
		c0.049,0.029,0.118,0.054,0.209,0.071c0.09,0.018,0.189,0.031,0.297,0.041c0.107,0.011,0.221,0.016,0.341,0.016
		c0.119,0,0.232,0,0.34,0c0.396,0,0.731-0.052,1.008-0.153c0.275-0.103,0.5-0.25,0.674-0.442c0.173-0.193,0.299-0.427,0.377-0.702
		s0.117-0.586,0.117-0.933c0-0.37-0.04-0.685-0.121-0.943c-0.08-0.258-0.205-0.468-0.373-0.629c-0.169-0.16-0.383-0.277-0.642-0.351
		s-0.566-0.109-0.923-0.109c-0.112,0-0.23,0-0.354,0c-0.125,0-0.246,0-0.363,0s-0.227,0-0.329,0s-0.188,0.002-0.257,0.007V450.363z
		 M1086.718,445.086c0.068,0,0.151,0,0.249,0s0.2,0,0.308,0s0.215,0,0.322,0s0.205,0,0.293,0c0.298,0,0.552-0.045,0.762-0.135
		c0.21-0.091,0.382-0.223,0.517-0.398c0.134-0.175,0.231-0.387,0.293-0.636c0.061-0.249,0.091-0.534,0.091-0.856
		c0-0.606-0.139-1.054-0.417-1.343s-0.745-0.434-1.399-0.434c-0.083,0-0.175,0-0.274,0c-0.101,0-0.197,0.004-0.293,0.011
		c-0.095,0.008-0.183,0.016-0.264,0.025c-0.08,0.01-0.143,0.017-0.187,0.021V445.086z"/>
	<path d="M1099.362,451.48c-0.869,0-1.619-0.133-2.249-0.398c-0.63-0.267-1.147-0.644-1.553-1.13
		c-0.405-0.487-0.705-1.073-0.9-1.758c-0.195-0.684-0.293-1.441-0.293-2.273c0-0.855,0.123-1.627,0.369-2.316
		c0.247-0.688,0.596-1.278,1.048-1.768c0.451-0.489,0.995-0.865,1.63-1.126c0.635-0.262,1.34-0.393,2.116-0.393
		c0.869,0,1.617,0.128,2.245,0.383c0.627,0.255,1.143,0.618,1.545,1.09c0.403,0.472,0.701,1.039,0.894,1.704
		c0.193,0.665,0.29,1.409,0.29,2.233c0,0.857-0.124,1.639-0.37,2.344c-0.247,0.705-0.595,1.309-1.044,1.812
		c-0.449,0.502-0.99,0.895-1.622,1.176C1100.835,451.339,1100.134,451.48,1099.362,451.48z M1099.428,450.462
		c0.732,0,1.308-0.396,1.725-1.188c0.418-0.793,0.627-1.975,0.627-3.545c0-0.771-0.054-1.435-0.161-1.991
		c-0.107-0.556-0.262-1.012-0.462-1.369s-0.445-0.62-0.736-0.788c-0.29-0.168-0.618-0.252-0.984-0.252s-0.695,0.093-0.985,0.277
		c-0.291,0.185-0.536,0.465-0.736,0.841s-0.354,0.853-0.461,1.43s-0.161,1.256-0.161,2.037c0,0.775,0.052,1.448,0.157,2.019
		c0.104,0.57,0.259,1.042,0.461,1.416c0.203,0.374,0.448,0.652,0.736,0.837S1099.062,450.462,1099.428,450.462z"/>
	<path d="M1106.221,450.418l1.143-0.181v-8.608l-1.092-0.201v-1.103h2.278c0.234,0,0.457,0,0.67,0c0.212,0,0.422,0,0.63,0
		c0.207,0,0.419,0,0.634,0s0.441,0,0.681,0c0.938,0,1.753,0.115,2.446,0.348c0.693,0.231,1.268,0.569,1.722,1.015
		c0.454,0.444,0.793,0.986,1.018,1.627s0.337,1.369,0.337,2.187c0,0.874-0.132,1.679-0.396,2.412s-0.644,1.366-1.139,1.896
		c-0.496,0.53-1.095,0.94-1.798,1.229s-1.494,0.434-2.373,0.434c-0.195,0-0.402,0-0.619,0c-0.218,0-0.431,0-0.641,0
		s-0.412,0-0.604,0c-0.193,0-0.362,0-0.509,0h-2.388V450.418z M1109.816,450.295c0.171,0.06,0.362,0.098,0.575,0.113
		c0.212,0.017,0.44,0.024,0.685,0.024c0.439,0,0.839-0.091,1.197-0.271c0.359-0.181,0.664-0.457,0.916-0.828
		c0.251-0.371,0.446-0.841,0.586-1.41c0.139-0.568,0.209-1.248,0.209-2.039c0-0.694-0.061-1.323-0.18-1.888
		c-0.12-0.563-0.307-1.044-0.561-1.442c-0.254-0.397-0.581-0.703-0.981-0.918s-0.881-0.322-1.442-0.322
		c-0.269,0-0.483,0.016-0.645,0.047c-0.161,0.032-0.281,0.055-0.359,0.069V450.295z"/>
	<path d="M1120.088,450.491l1.531-0.184v-3.296l-3.105-5.441l-0.879-0.213v-1.032h4.673v1.032l-0.989,0.213l1.751,3.522l0.337,0.945
		l0.373-0.931l1.604-3.545l-1.121-0.205v-1.032h3.787v1.032l-0.931,0.19l-2.886,5.464v3.289l1.59,0.19v0.981h-5.735V450.491z"/>
	<path d="M1133.966,445.999c0-0.904,0.14-1.708,0.418-2.413c0.278-0.704,0.671-1.299,1.179-1.784s1.119-0.854,1.835-1.105
		c0.715-0.253,1.51-0.379,2.384-0.379c0.396,0,0.789,0.019,1.18,0.056c0.391,0.036,0.754,0.08,1.091,0.132
		c0.337,0.051,0.635,0.104,0.894,0.157s0.454,0.095,0.586,0.124l-0.176,2.7h-1.714l-0.446-1.788
		c-0.034-0.032-0.085-0.069-0.15-0.113c-0.066-0.043-0.157-0.084-0.274-0.123s-0.263-0.07-0.437-0.096
		c-0.173-0.025-0.379-0.038-0.618-0.038c-0.454,0-0.859,0.094-1.216,0.28c-0.356,0.188-0.659,0.465-0.908,0.834
		s-0.439,0.828-0.571,1.377s-0.198,1.185-0.198,1.908c0,0.663,0.052,1.28,0.154,1.853s0.265,1.07,0.486,1.493
		c0.223,0.424,0.507,0.756,0.854,0.997s0.765,0.362,1.253,0.362c0.166,0,0.332-0.011,0.498-0.033
		c0.166-0.021,0.32-0.054,0.465-0.095c0.144-0.042,0.274-0.095,0.392-0.158s0.215-0.137,0.293-0.22v-3.083l-1.413-0.169v-1.099h4.6
		v1.099l-0.762,0.14v3.903c-0.195,0-0.435,0.041-0.718,0.122c-0.283,0.082-0.607,0.17-0.971,0.267
		c-0.364,0.096-0.766,0.183-1.205,0.259s-0.908,0.114-1.406,0.114c-0.864,0-1.631-0.14-2.3-0.421
		c-0.669-0.28-1.231-0.666-1.688-1.156c-0.456-0.49-0.802-1.069-1.036-1.737C1134.083,447.496,1133.966,446.775,1133.966,445.999z"
		/>
	<path d="M1150.844,451.48c-0.869,0-1.618-0.133-2.248-0.398c-0.63-0.267-1.147-0.644-1.553-1.13
		c-0.405-0.487-0.706-1.073-0.901-1.758c-0.195-0.684-0.293-1.441-0.293-2.273c0-0.855,0.123-1.627,0.37-2.316
		c0.246-0.688,0.596-1.278,1.048-1.768c0.451-0.489,0.994-0.865,1.629-1.126c0.635-0.262,1.341-0.393,2.117-0.393
		c0.869,0,1.617,0.128,2.245,0.383c0.627,0.255,1.143,0.618,1.545,1.09c0.403,0.472,0.7,1.039,0.894,1.704
		c0.192,0.665,0.289,1.409,0.289,2.233c0,0.857-0.123,1.639-0.369,2.344c-0.247,0.705-0.595,1.309-1.044,1.812
		c-0.449,0.502-0.99,0.895-1.622,1.176C1152.317,451.339,1151.615,451.48,1150.844,451.48z M1150.91,450.462
		c0.732,0,1.308-0.396,1.725-1.188c0.418-0.793,0.626-1.975,0.626-3.545c0-0.771-0.054-1.435-0.161-1.991
		c-0.107-0.556-0.261-1.012-0.461-1.369s-0.446-0.62-0.736-0.788c-0.291-0.168-0.619-0.252-0.985-0.252s-0.694,0.093-0.984,0.277
		c-0.291,0.185-0.536,0.465-0.736,0.841s-0.354,0.853-0.462,1.43s-0.161,1.256-0.161,2.037c0,0.775,0.053,1.448,0.158,2.019
		c0.104,0.57,0.258,1.042,0.461,1.416c0.202,0.374,0.448,0.652,0.736,0.837S1150.544,450.462,1150.91,450.462z"/>
	<path d="M1162.536,451.48c-0.869,0-1.618-0.133-2.248-0.398c-0.63-0.267-1.147-0.644-1.553-1.13
		c-0.405-0.487-0.706-1.073-0.901-1.758c-0.195-0.684-0.293-1.441-0.293-2.273c0-0.855,0.123-1.627,0.37-2.316
		c0.246-0.688,0.596-1.278,1.048-1.768c0.451-0.489,0.994-0.865,1.629-1.126c0.635-0.262,1.341-0.393,2.117-0.393
		c0.869,0,1.617,0.128,2.245,0.383c0.627,0.255,1.143,0.618,1.545,1.09c0.403,0.472,0.7,1.039,0.894,1.704
		c0.192,0.665,0.289,1.409,0.289,2.233c0,0.857-0.123,1.639-0.369,2.344c-0.247,0.705-0.595,1.309-1.044,1.812
		c-0.449,0.502-0.99,0.895-1.622,1.176C1164.01,451.339,1163.308,451.48,1162.536,451.48z M1162.603,450.462
		c0.732,0,1.308-0.396,1.725-1.188c0.418-0.793,0.626-1.975,0.626-3.545c0-0.771-0.054-1.435-0.161-1.991
		c-0.107-0.556-0.261-1.012-0.461-1.369s-0.446-0.62-0.736-0.788c-0.291-0.168-0.619-0.252-0.985-0.252s-0.694,0.093-0.984,0.277
		c-0.291,0.185-0.536,0.465-0.736,0.841s-0.354,0.853-0.462,1.43s-0.161,1.256-0.161,2.037c0,0.775,0.053,1.448,0.158,2.019
		c0.104,0.57,0.258,1.042,0.461,1.416c0.202,0.374,0.448,0.652,0.736,0.837S1162.236,450.462,1162.603,450.462z"/>
	<path d="M1169.395,450.418l1.143-0.181v-8.608l-1.091-0.201v-1.103h2.277c0.234,0,0.458,0,0.671,0c0.212,0,0.422,0,0.63,0
		c0.207,0,0.418,0,0.633,0s0.442,0,0.682,0c0.938,0,1.753,0.115,2.446,0.348c0.693,0.231,1.267,0.569,1.721,1.015
		c0.454,0.444,0.794,0.986,1.019,1.627s0.337,1.369,0.337,2.187c0,0.874-0.132,1.679-0.396,2.412s-0.644,1.366-1.139,1.896
		c-0.496,0.53-1.096,0.94-1.799,1.229s-1.494,0.434-2.373,0.434c-0.195,0-0.401,0-0.618,0c-0.218,0-0.432,0-0.642,0
		s-0.411,0-0.604,0c-0.193,0-0.363,0-0.51,0h-2.388V450.418z M1172.991,450.295c0.171,0.06,0.362,0.098,0.575,0.113
		c0.212,0.017,0.44,0.024,0.685,0.024c0.439,0,0.839-0.091,1.197-0.271c0.359-0.181,0.664-0.457,0.916-0.828
		c0.251-0.371,0.446-0.841,0.586-1.41c0.139-0.568,0.208-1.248,0.208-2.039c0-0.694-0.06-1.323-0.179-1.888
		c-0.12-0.563-0.307-1.044-0.561-1.442c-0.254-0.397-0.581-0.703-0.981-0.918s-0.882-0.322-1.443-0.322
		c-0.269,0-0.483,0.016-0.645,0.047c-0.161,0.032-0.28,0.055-0.358,0.069V450.295z"/>
</g>
<polygon fill="#1B1B1A" stroke="#1B1B1A" stroke-linejoin="round" stroke-miterlimit="10" points="1064.454,476.173 
	1068.383,477.737 1064.454,479.3 "/>
<g>
	<path d="M1083.121,482.175l1.143-0.183v-8.667l-1.091-0.202v-1.114h2.241c0.186,0,0.366,0,0.542,0s0.361,0,0.557,0s0.407,0,0.637,0
		s0.491,0,0.784,0c0.835,0,1.529,0.073,2.084,0.221c0.554,0.146,0.996,0.358,1.325,0.636c0.33,0.276,0.562,0.617,0.699,1.021
		s0.205,0.867,0.205,1.387c0,0.626-0.1,1.186-0.3,1.679c-0.2,0.494-0.492,0.91-0.875,1.25c-0.384,0.339-0.853,0.6-1.406,0.779
		c-0.555,0.181-1.184,0.271-1.887,0.271c-0.229,0-0.444,0-0.645,0s-0.332-0.008-0.396-0.022v2.754l1.941,0.19v0.981h-5.56V482.175z
		 M1086.732,478.185c0.103,0.024,0.227,0.042,0.373,0.054c0.146,0.013,0.356,0.019,0.63,0.019c0.264,0,0.514-0.048,0.751-0.142
		c0.236-0.095,0.444-0.254,0.623-0.479c0.178-0.226,0.319-0.526,0.425-0.904c0.104-0.378,0.157-0.85,0.157-1.417
		c0-0.828-0.169-1.427-0.506-1.798c-0.337-0.37-0.835-0.556-1.494-0.556c-0.142,0-0.26,0.004-0.354,0.011
		c-0.096,0.008-0.179,0.017-0.249,0.025c-0.071,0.01-0.134,0.02-0.188,0.029s-0.109,0.018-0.168,0.022V478.185z"/>
	<path d="M1094.213,479.789h1.37l0.373,1.802c0.112,0.133,0.318,0.252,0.619,0.358c0.3,0.106,0.663,0.16,1.088,0.16
		c0.63,0,1.089-0.132,1.377-0.396c0.288-0.263,0.432-0.623,0.432-1.078c0-0.247-0.056-0.469-0.168-0.665
		c-0.112-0.197-0.275-0.38-0.487-0.549c-0.213-0.168-0.473-0.331-0.78-0.487s-0.654-0.322-1.04-0.498
		c-0.19-0.086-0.395-0.186-0.611-0.299c-0.218-0.114-0.431-0.245-0.641-0.392c-0.21-0.147-0.413-0.313-0.608-0.498
		c-0.195-0.186-0.366-0.393-0.513-0.623s-0.264-0.484-0.352-0.762s-0.132-0.583-0.132-0.915c0-0.394,0.079-0.769,0.238-1.124
		c0.158-0.356,0.399-0.669,0.722-0.939s0.728-0.485,1.216-0.645s1.064-0.238,1.729-0.238c0.415,0,0.792,0.025,1.131,0.076
		c0.34,0.052,0.642,0.109,0.905,0.173s0.489,0.124,0.677,0.183c0.188,0.059,0.339,0.093,0.451,0.103l-0.096,2.569h-1.333
		l-0.358-1.731c-0.034-0.042-0.091-0.085-0.169-0.127c-0.078-0.043-0.175-0.082-0.289-0.117c-0.115-0.036-0.244-0.064-0.389-0.086
		c-0.144-0.021-0.296-0.031-0.457-0.031c-0.293,0-0.542,0.034-0.747,0.103c-0.205,0.069-0.374,0.163-0.506,0.281
		c-0.132,0.119-0.227,0.262-0.285,0.428s-0.088,0.344-0.088,0.534c0,0.266,0.066,0.503,0.201,0.711
		c0.134,0.209,0.318,0.402,0.553,0.581c0.234,0.178,0.511,0.349,0.828,0.512c0.317,0.164,0.659,0.334,1.025,0.51
		c0.308,0.151,0.63,0.321,0.967,0.509s0.646,0.409,0.926,0.665c0.281,0.257,0.513,0.554,0.696,0.891
		c0.183,0.337,0.274,0.726,0.274,1.167c0,0.242-0.029,0.49-0.088,0.744s-0.155,0.502-0.289,0.744
		c-0.135,0.241-0.309,0.47-0.523,0.683c-0.215,0.214-0.479,0.401-0.791,0.562c-0.312,0.162-0.678,0.29-1.096,0.385
		c-0.417,0.095-0.895,0.143-1.432,0.143c-0.454,0-0.878-0.033-1.271-0.1c-0.394-0.065-0.746-0.139-1.059-0.219
		c-0.312-0.081-0.581-0.156-0.806-0.228c-0.225-0.07-0.397-0.111-0.52-0.121L1094.213,479.789z"/>
	<path d="M1105.312,482.175l1.53-0.183v-3.296l-3.105-5.442l-0.879-0.212v-1.033h4.673v1.033l-0.988,0.212l1.75,3.523l0.337,0.944
		l0.374-0.93l1.604-3.545l-1.12-0.205v-1.033h3.786v1.033l-0.93,0.19l-2.886,5.464v3.288l1.589,0.19v0.981h-5.734V482.175z"/>
	<path d="M1114.163,477.637c0-0.892,0.142-1.687,0.425-2.385s0.672-1.288,1.168-1.771c0.495-0.481,1.081-0.848,1.758-1.101
		c0.676-0.253,1.41-0.379,2.201-0.379c0.356,0,0.708,0.018,1.055,0.055c0.347,0.036,0.672,0.077,0.978,0.121
		c0.305,0.044,0.578,0.087,0.82,0.128c0.241,0.042,0.438,0.069,0.59,0.084l-0.176,3.191h-1.567l-0.513-2.147
		c-0.073-0.095-0.218-0.181-0.433-0.256c-0.215-0.076-0.527-0.114-0.938-0.114c-0.386,0-0.736,0.092-1.051,0.274
		c-0.315,0.182-0.584,0.455-0.806,0.817c-0.223,0.362-0.395,0.816-0.517,1.361c-0.122,0.546-0.183,1.181-0.183,1.906
		c0,0.649,0.052,1.257,0.157,1.824c0.104,0.566,0.268,1.061,0.487,1.482s0.496,0.755,0.831,0.999
		c0.334,0.244,0.733,0.366,1.197,0.366c0.21,0,0.392-0.015,0.546-0.043c0.153-0.028,0.285-0.064,0.396-0.109
		c0.109-0.045,0.2-0.095,0.271-0.149c0.071-0.055,0.131-0.11,0.18-0.167l0.703-1.572l1.421,0.132l-0.278,2.411
		c-0.234,0.024-0.453,0.066-0.655,0.126c-0.203,0.06-0.425,0.123-0.667,0.19c-0.241,0.066-0.516,0.125-0.823,0.176
		c-0.308,0.05-0.682,0.075-1.121,0.075c-0.903,0-1.695-0.128-2.377-0.383c-0.681-0.255-1.25-0.621-1.706-1.098
		c-0.457-0.477-0.8-1.057-1.029-1.741C1114.277,479.259,1114.163,478.489,1114.163,477.637z"/>
	<path d="M1124.998,482.175l1.113-0.183v-8.745l-1.084-0.205v-1.033h4.775v1.033l-1.223,0.205v3.604h4.211v-3.597l-1.135-0.212
		v-1.033h4.724v1.033l-1.113,0.205v8.745l1.113,0.183v0.981h-4.709v-0.981l1.12-0.19v-3.896h-4.211v3.896l1.223,0.19v0.981h-4.805
		V482.175z"/>
	<path d="M1143.121,483.164c-0.869,0-1.618-0.133-2.248-0.399c-0.63-0.266-1.147-0.643-1.553-1.13s-0.706-1.072-0.901-1.757
		s-0.293-1.442-0.293-2.273c0-0.855,0.123-1.628,0.37-2.316c0.246-0.689,0.596-1.278,1.048-1.769
		c0.451-0.489,0.994-0.864,1.629-1.126c0.635-0.261,1.341-0.392,2.117-0.392c0.869,0,1.617,0.127,2.245,0.382
		c0.627,0.255,1.143,0.618,1.545,1.09c0.403,0.472,0.7,1.04,0.894,1.704c0.192,0.665,0.289,1.409,0.289,2.233
		c0,0.857-0.123,1.639-0.369,2.344c-0.247,0.705-0.595,1.31-1.044,1.812c-0.449,0.503-0.99,0.895-1.622,1.176
		C1144.595,483.024,1143.893,483.164,1143.121,483.164z M1143.188,482.146c0.732,0,1.308-0.396,1.725-1.188
		c0.418-0.792,0.626-1.974,0.626-3.545c0-0.771-0.054-1.435-0.161-1.99s-0.261-1.013-0.461-1.37c-0.2-0.356-0.446-0.619-0.736-0.787
		c-0.291-0.168-0.619-0.252-0.985-0.252s-0.694,0.092-0.984,0.276c-0.291,0.185-0.536,0.465-0.736,0.841
		c-0.2,0.377-0.354,0.854-0.462,1.431s-0.161,1.256-0.161,2.036c0,0.776,0.053,1.449,0.158,2.02
		c0.104,0.569,0.258,1.042,0.461,1.415c0.202,0.374,0.448,0.653,0.736,0.838S1142.821,482.146,1143.188,482.146z"/>
	<path d="M1149.979,482.175l1.143-0.19v-8.73l-1.128-0.212v-1.033h5.01v1.033l-1.392,0.212v8.643h2.886l0.967-2.915l1.37,0.205
		l-0.433,3.97h-8.423V482.175z"/>
	<path d="M1165.166,483.164c-0.869,0-1.619-0.133-2.249-0.399c-0.63-0.266-1.147-0.643-1.553-1.13s-0.705-1.072-0.9-1.757
		s-0.293-1.442-0.293-2.273c0-0.855,0.123-1.628,0.369-2.316c0.247-0.689,0.596-1.278,1.048-1.769
		c0.451-0.489,0.995-0.864,1.63-1.126c0.635-0.261,1.34-0.392,2.116-0.392c0.869,0,1.617,0.127,2.245,0.382
		c0.627,0.255,1.143,0.618,1.545,1.09c0.403,0.472,0.701,1.04,0.894,1.704c0.193,0.665,0.29,1.409,0.29,2.233
		c0,0.857-0.124,1.639-0.37,2.344c-0.247,0.705-0.595,1.31-1.044,1.812c-0.449,0.503-0.99,0.895-1.622,1.176
		C1166.639,483.024,1165.938,483.164,1165.166,483.164z M1165.231,482.146c0.732,0,1.308-0.396,1.725-1.188
		c0.418-0.792,0.627-1.974,0.627-3.545c0-0.771-0.054-1.435-0.161-1.99s-0.262-1.013-0.462-1.37c-0.2-0.356-0.445-0.619-0.736-0.787
		c-0.29-0.168-0.618-0.252-0.984-0.252s-0.695,0.092-0.985,0.276c-0.291,0.185-0.536,0.465-0.736,0.841
		c-0.2,0.377-0.354,0.854-0.461,1.431s-0.161,1.256-0.161,2.036c0,0.776,0.052,1.449,0.157,2.02
		c0.104,0.569,0.259,1.042,0.461,1.415c0.203,0.374,0.448,0.653,0.736,0.838S1164.865,482.146,1165.231,482.146z"/>
	<path d="M1171.943,477.683c0-0.904,0.14-1.708,0.418-2.412s0.671-1.299,1.179-1.784s1.119-0.854,1.835-1.106
		c0.715-0.252,1.51-0.378,2.384-0.378c0.396,0,0.789,0.018,1.18,0.055c0.391,0.036,0.754,0.08,1.091,0.132
		c0.337,0.051,0.635,0.104,0.894,0.157s0.454,0.096,0.586,0.125l-0.176,2.7h-1.714l-0.446-1.788c-0.034-0.032-0.085-0.07-0.15-0.113
		c-0.066-0.044-0.157-0.085-0.274-0.123c-0.117-0.039-0.263-0.071-0.437-0.097c-0.173-0.024-0.379-0.037-0.618-0.037
		c-0.454,0-0.859,0.093-1.216,0.28c-0.356,0.187-0.659,0.465-0.908,0.834c-0.249,0.368-0.439,0.827-0.571,1.376
		s-0.198,1.186-0.198,1.909c0,0.662,0.052,1.279,0.154,1.852c0.103,0.573,0.265,1.07,0.486,1.494
		c0.223,0.423,0.507,0.756,0.854,0.997s0.765,0.361,1.253,0.361c0.166,0,0.332-0.011,0.498-0.033
		c0.166-0.021,0.32-0.053,0.465-0.095c0.144-0.041,0.274-0.094,0.392-0.157s0.215-0.137,0.293-0.22v-3.084l-1.413-0.168v-1.099h4.6
		v1.099l-0.762,0.139v3.904c-0.195,0-0.435,0.04-0.718,0.122c-0.283,0.081-0.607,0.17-0.971,0.266
		c-0.364,0.097-0.766,0.183-1.205,0.259c-0.439,0.077-0.908,0.115-1.406,0.115c-0.864,0-1.631-0.141-2.3-0.421
		c-0.669-0.281-1.231-0.667-1.688-1.156c-0.456-0.49-0.802-1.069-1.036-1.738C1172.061,479.181,1171.943,478.458,1171.943,477.683z"
		/>
	<path d="M1185.621,482.175l1.53-0.183v-3.296l-3.105-5.442l-0.879-0.212v-1.033h4.673v1.033l-0.988,0.212l1.75,3.523l0.337,0.944
		l0.374-0.93l1.604-3.545l-1.12-0.205v-1.033h3.786v1.033l-0.93,0.19l-2.886,5.464v3.288l1.589,0.19v0.981h-5.734V482.175z"/>
</g>
<g>
	<polygon fill="#1B1B1A" stroke="#1B1B1A" stroke-linejoin="round" stroke-miterlimit="10" points="114.321,445.4 110.392,442 
		114.321,438.599 	"/>
	<g>
		<polygon fill="#1B1B1A" stroke="#1B1B1A" stroke-linejoin="round" stroke-miterlimit="10" points="114.321,70.619 110.392,67.218 
			114.321,63.817 		"/>
		<g>
			<path d="M63.489,71.657l1.143-0.184v-8.667l-1.091-0.202v-1.113h2.241c0.186,0,0.366,0,0.542,0s0.361,0,0.557,0s0.408,0,0.637,0
				s0.491,0,0.784,0c0.835,0,1.529,0.072,2.084,0.22c0.554,0.147,0.996,0.358,1.325,0.636c0.33,0.277,0.563,0.617,0.7,1.021
				s0.205,0.867,0.205,1.387c0,0.626-0.1,1.186-0.3,1.68c-0.2,0.493-0.492,0.91-0.875,1.249c-0.384,0.339-0.853,0.6-1.406,0.78
				c-0.555,0.18-1.183,0.271-1.886,0.271c-0.229,0-0.444,0-0.645,0s-0.332-0.007-0.396-0.022v2.754l1.941,0.191v0.98h-5.559V71.657z
				 M67.1,67.666c0.103,0.024,0.227,0.042,0.374,0.054c0.146,0.013,0.356,0.019,0.63,0.019c0.264,0,0.514-0.048,0.75-0.142
				s0.444-0.254,0.623-0.479c0.178-0.226,0.319-0.526,0.425-0.904c0.104-0.378,0.157-0.85,0.157-1.417
				c0-0.828-0.168-1.427-0.505-1.797c-0.337-0.371-0.835-0.557-1.494-0.557c-0.142,0-0.26,0.004-0.355,0.012
				c-0.096,0.007-0.179,0.016-0.249,0.025c-0.071,0.01-0.133,0.02-0.187,0.029s-0.11,0.017-0.168,0.021V67.666z"/>
			<path d="M74.208,71.657l1.143-0.184V62.79l-1.091-0.202v-1.097h2.278c0.215,0,0.418,0,0.612,0c0.192,0,0.387,0,0.582,0
				s0.399,0,0.611,0c0.213,0,0.446,0,0.7,0c0.791,0,1.46,0.057,2.007,0.169s0.99,0.29,1.33,0.53c0.339,0.24,0.583,0.545,0.732,0.916
				c0.148,0.369,0.223,0.809,0.223,1.318c0,0.303-0.043,0.611-0.128,0.927s-0.217,0.61-0.396,0.887s-0.401,0.522-0.67,0.739
				c-0.269,0.216-0.586,0.382-0.952,0.497c0.269,0.112,0.51,0.284,0.725,0.517s0.41,0.492,0.586,0.779
				c0.176,0.289,0.334,0.586,0.476,0.895c0.142,0.307,0.274,0.592,0.399,0.854c0.124,0.261,0.245,0.481,0.362,0.662
				s0.237,0.285,0.359,0.314l0.461,0.162v0.98h-2.849c-0.088,0-0.177-0.061-0.267-0.183c-0.091-0.122-0.182-0.284-0.275-0.484
				s-0.187-0.432-0.282-0.693c-0.096-0.261-0.194-0.532-0.297-0.813s-0.207-0.562-0.312-0.84c-0.105-0.279-0.216-0.536-0.333-0.771
				c-0.117-0.234-0.238-0.438-0.362-0.611c-0.125-0.174-0.255-0.295-0.392-0.363c-0.132,0-0.272,0-0.421,0s-0.288,0-0.417,0
				c-0.13,0-0.242,0-0.337,0c-0.096,0-0.158,0-0.187,0v3.604l1.333,0.176v0.98h-4.951V71.657z M77.826,66.857
				c0.044,0.013,0.118,0.021,0.223,0.025c0.105,0.005,0.217,0.007,0.337,0.007s0.236,0,0.348,0s0.2,0,0.264,0
				c0.527,0,0.943-0.192,1.249-0.579s0.458-0.99,0.458-1.811c0-0.333-0.034-0.627-0.103-0.883s-0.178-0.471-0.33-0.645
				s-0.351-0.306-0.597-0.395c-0.247-0.09-0.545-0.135-0.897-0.135c-0.278,0-0.49,0.009-0.633,0.025
				c-0.145,0.018-0.25,0.033-0.319,0.047V66.857z"/>
			<path d="M90.675,72.646c-0.869,0-1.619-0.133-2.249-0.398c-0.63-0.267-1.147-0.644-1.553-1.131
				c-0.405-0.486-0.706-1.072-0.901-1.757s-0.293-1.442-0.293-2.273c0-0.855,0.123-1.628,0.37-2.316s0.596-1.278,1.048-1.769
				c0.451-0.488,0.995-0.864,1.629-1.125c0.635-0.262,1.34-0.393,2.117-0.393c0.869,0,1.617,0.127,2.245,0.383
				c0.627,0.254,1.143,0.617,1.545,1.09c0.403,0.471,0.701,1.039,0.894,1.703c0.193,0.666,0.29,1.41,0.29,2.234
				c0,0.857-0.124,1.639-0.37,2.344c-0.247,0.705-0.595,1.309-1.044,1.811c-0.449,0.503-0.99,0.895-1.622,1.176
				C92.148,72.505,91.447,72.646,90.675,72.646z M90.741,71.628c0.732,0,1.308-0.396,1.725-1.189
				c0.418-0.792,0.626-1.974,0.626-3.545c0-0.771-0.054-1.434-0.161-1.99c-0.107-0.556-0.261-1.012-0.461-1.369
				s-0.446-0.62-0.736-0.788s-0.619-0.252-0.985-0.252s-0.695,0.093-0.985,0.276c-0.291,0.186-0.536,0.465-0.736,0.842
				c-0.2,0.376-0.354,0.853-0.461,1.43s-0.161,1.256-0.161,2.037c0,0.775,0.052,1.448,0.158,2.019
				c0.104,0.569,0.258,1.042,0.461,1.415c0.203,0.375,0.448,0.653,0.736,0.838S90.375,71.628,90.741,71.628z"/>
		</g>
	</g>
	<polygon fill="#1B1B1A" stroke="#1B1B1A" stroke-linejoin="round" stroke-miterlimit="10" points="114.321,242.206 
		110.392,238.805 114.321,235.405 	"/>
	<polygon fill="#1B1B1A" stroke="#1B1B1A" stroke-linejoin="round" stroke-miterlimit="10" points="114.321,138.479 
		110.392,135.079 114.321,131.678 	"/>
	<g>
		<path d="M17.394,243.244l1.187-0.184v-8.745l-1.187-0.205v-1.032h3.655l4.263,6.467l0.798,1.699v-6.936l-1.289-0.198v-1.032h3.853
			v1.032l-1.157,0.205v9.91h-2.036l-4.49-6.863l-0.996-2.007v7.705l1.538,0.184v0.981h-4.138V243.244z"/>
		<path d="M30.243,243.244l1.143-0.187v-8.734l-1.165-0.213v-1.032h8.108l0.205,2.585H37.34l-0.513-1.523h-2.959v3.802h1.86
			l0.271-1.23h1.069v3.728H36l-0.256-1.311h-1.875v3.933h3.296l0.916-1.957l1.252,0.354l-0.381,2.769h-8.708V243.244z"/>
		<path d="M41.467,234.354l-0.952-0.209v-1.066h4.761v1.066l-1.238,0.216v5.451c0,1.153,0.196,2.005,0.589,2.556
			s0.983,0.825,1.769,0.825c0.4,0,0.746-0.079,1.037-0.237c0.29-0.159,0.529-0.384,0.718-0.675c0.188-0.29,0.326-0.642,0.414-1.053
			c0.088-0.41,0.132-0.871,0.132-1.38v-5.494l-1.26-0.209v-1.066h3.838v1.066l-0.989,0.209v5.38c0,0.809-0.107,1.499-0.322,2.069
			s-0.51,1.035-0.886,1.394s-0.822,0.621-1.336,0.787c-0.516,0.166-1.076,0.249-1.681,0.249c-0.776,0-1.453-0.086-2.029-0.26
			c-0.576-0.173-1.054-0.446-1.432-0.819c-0.379-0.373-0.662-0.853-0.85-1.438c-0.188-0.585-0.282-1.286-0.282-2.104V234.354z"/>
		<path d="M54.426,243.244l1.882-0.19v-8.833h-1.89l-0.608,3.288h-1.392l0.22-4.431h9.719l0.212,4.431h-1.34l-0.645-3.288h-1.772
			v8.825l2.051,0.198v0.981h-6.438V243.244z"/>
		<path d="M64.229,243.244l1.143-0.184v-8.684l-1.091-0.202v-1.097h2.278c0.215,0,0.418,0,0.612,0c0.192,0,0.387,0,0.582,0
			s0.399,0,0.611,0c0.213,0,0.446,0,0.7,0c0.791,0,1.46,0.057,2.007,0.169c0.547,0.113,0.99,0.29,1.33,0.53
			c0.339,0.24,0.583,0.546,0.732,0.916c0.148,0.369,0.223,0.81,0.223,1.318c0,0.304-0.043,0.612-0.128,0.927
			c-0.085,0.315-0.217,0.61-0.396,0.887s-0.401,0.522-0.67,0.739c-0.269,0.216-0.586,0.382-0.952,0.497
			c0.269,0.112,0.51,0.285,0.725,0.517c0.215,0.232,0.41,0.492,0.586,0.78s0.334,0.586,0.476,0.894s0.274,0.592,0.399,0.854
			c0.124,0.261,0.245,0.481,0.362,0.662s0.237,0.286,0.359,0.315l0.461,0.161v0.981h-2.849c-0.088,0-0.177-0.062-0.267-0.184
			c-0.091-0.122-0.182-0.283-0.275-0.484c-0.093-0.2-0.187-0.432-0.282-0.693c-0.096-0.261-0.194-0.532-0.297-0.813
			s-0.207-0.562-0.312-0.84c-0.105-0.279-0.216-0.536-0.333-0.771c-0.117-0.235-0.238-0.439-0.362-0.612
			c-0.125-0.174-0.255-0.295-0.392-0.363c-0.132,0-0.272,0-0.421,0s-0.288,0-0.417,0c-0.13,0-0.242,0-0.337,0
			c-0.096,0-0.158,0-0.187,0v3.604l1.333,0.176v0.981h-4.951V243.244z M67.847,238.444c0.044,0.013,0.118,0.021,0.223,0.026
			c0.105,0.004,0.217,0.006,0.337,0.006s0.236,0,0.348,0s0.2,0,0.264,0c0.527,0,0.943-0.192,1.249-0.579
			c0.305-0.386,0.458-0.989,0.458-1.811c0-0.333-0.034-0.627-0.103-0.883s-0.178-0.471-0.33-0.645s-0.351-0.306-0.597-0.395
			s-0.545-0.134-0.897-0.134c-0.278,0-0.49,0.008-0.633,0.025c-0.145,0.017-0.25,0.032-0.319,0.047V238.444z"/>
		<path d="M74.991,243.244l0.879-0.189l3.384-9.977h2.585l3.406,9.983l0.85,0.183v0.981h-4.636v-0.981l1.055-0.19l-0.527-1.81
			h-3.684l-0.513,1.839l1.165,0.161v0.981h-3.948L74.991,243.244z M81.656,240.116l-1.326-4.463l-0.227-1.017l-0.227,1.017
			l-1.26,4.463H81.656z"/>
		<path d="M87.182,243.244l1.143-0.19v-8.73l-1.128-0.213v-1.032h5.01v1.032l-1.392,0.213v8.643H93.7l0.967-2.915l1.37,0.205
			l-0.432,3.97h-8.423V243.244z"/>
	</g>
	<g>
		<path d="M52.375,441.9c0-0.892,0.142-1.687,0.425-2.385s0.672-1.288,1.168-1.77c0.495-0.481,1.081-0.849,1.758-1.102
			c0.676-0.252,1.41-0.379,2.201-0.379c0.356,0,0.708,0.019,1.055,0.056c0.347,0.036,0.672,0.076,0.978,0.12
			c0.305,0.044,0.578,0.087,0.82,0.129c0.241,0.041,0.438,0.069,0.589,0.084l-0.176,3.19h-1.567l-0.513-2.147
			c-0.073-0.095-0.217-0.18-0.432-0.256c-0.215-0.075-0.527-0.113-0.938-0.113c-0.386,0-0.736,0.091-1.051,0.273
			c-0.315,0.183-0.584,0.455-0.806,0.817c-0.223,0.363-0.395,0.817-0.517,1.362s-0.183,1.181-0.183,1.905
			c0,0.649,0.052,1.258,0.158,1.824c0.104,0.566,0.267,1.061,0.487,1.482s0.497,0.755,0.832,0.999
			c0.334,0.244,0.733,0.366,1.197,0.366c0.21,0,0.392-0.014,0.546-0.042c0.153-0.028,0.285-0.065,0.396-0.11
			c0.109-0.045,0.2-0.095,0.271-0.149c0.071-0.054,0.131-0.109,0.18-0.166l0.703-1.572l1.421,0.132l-0.278,2.411
			c-0.234,0.023-0.453,0.065-0.655,0.125c-0.203,0.061-0.425,0.124-0.667,0.19c-0.241,0.067-0.516,0.126-0.824,0.176
			c-0.308,0.051-0.681,0.075-1.121,0.075c-0.903,0-1.695-0.127-2.377-0.383c-0.681-0.255-1.25-0.62-1.706-1.097
			c-0.457-0.478-0.8-1.058-1.029-1.741C52.49,443.522,52.375,442.753,52.375,441.9z"/>
		<path d="M68.016,447.427c-0.869,0-1.619-0.133-2.249-0.398c-0.63-0.267-1.147-0.644-1.553-1.13
			c-0.405-0.487-0.706-1.073-0.901-1.758c-0.195-0.684-0.293-1.441-0.293-2.273c0-0.855,0.123-1.627,0.37-2.316
			c0.247-0.688,0.596-1.278,1.048-1.768c0.451-0.489,0.995-0.865,1.629-1.126c0.635-0.262,1.34-0.393,2.117-0.393
			c0.869,0,1.617,0.128,2.245,0.383c0.627,0.255,1.143,0.618,1.545,1.09c0.403,0.472,0.701,1.039,0.894,1.704s0.29,1.409,0.29,2.233
			c0,0.857-0.124,1.639-0.37,2.344c-0.247,0.705-0.595,1.309-1.044,1.812c-0.449,0.502-0.99,0.895-1.622,1.176
			C69.489,447.286,68.787,447.427,68.016,447.427z M68.082,446.409c0.732,0,1.308-0.396,1.725-1.188
			c0.418-0.793,0.626-1.975,0.626-3.545c0-0.771-0.054-1.435-0.161-1.991c-0.107-0.556-0.261-1.012-0.461-1.369
			s-0.446-0.62-0.736-0.788s-0.619-0.252-0.985-0.252s-0.695,0.093-0.985,0.277c-0.291,0.185-0.536,0.465-0.736,0.841
			s-0.354,0.853-0.461,1.43s-0.161,1.256-0.161,2.037c0,0.775,0.052,1.448,0.158,2.019c0.104,0.57,0.258,1.042,0.461,1.416
			s0.448,0.652,0.736,0.837S67.715,446.409,68.082,446.409z"/>
		<path d="M74.845,446.439l1.187-0.184v-8.745l-1.187-0.205v-1.032H78.5l4.263,6.467l0.798,1.699v-6.936l-1.289-0.198v-1.032h3.853
			v1.032l-1.157,0.205v9.91h-2.036l-4.49-6.863l-0.996-2.007v7.705l1.538,0.184v0.981h-4.138V446.439z"/>
		<path d="M88.068,444.052h1.37l0.374,1.803c0.112,0.133,0.318,0.252,0.619,0.358c0.3,0.106,0.663,0.159,1.087,0.159
			c0.63,0,1.089-0.132,1.377-0.395c0.288-0.264,0.432-0.623,0.432-1.079c0-0.246-0.056-0.468-0.168-0.665s-0.275-0.38-0.487-0.548
			c-0.213-0.169-0.473-0.331-0.78-0.487c-0.308-0.157-0.654-0.323-1.04-0.499c-0.19-0.085-0.395-0.185-0.611-0.299
			c-0.218-0.113-0.431-0.244-0.641-0.392c-0.21-0.146-0.413-0.312-0.608-0.498c-0.195-0.185-0.366-0.393-0.513-0.623
			c-0.146-0.229-0.264-0.483-0.352-0.762c-0.088-0.277-0.132-0.582-0.132-0.914c0-0.395,0.079-0.769,0.238-1.125
			c0.158-0.355,0.399-0.669,0.721-0.939s0.728-0.485,1.216-0.645c0.488-0.158,1.064-0.238,1.729-0.238
			c0.415,0,0.792,0.026,1.131,0.077c0.339,0.052,0.641,0.108,0.905,0.172s0.489,0.125,0.677,0.184s0.338,0.093,0.451,0.103
			l-0.095,2.569h-1.333l-0.359-1.731c-0.034-0.043-0.09-0.085-0.168-0.128s-0.175-0.082-0.289-0.117
			c-0.115-0.035-0.245-0.063-0.389-0.085s-0.296-0.032-0.458-0.032c-0.293,0-0.542,0.035-0.747,0.104
			c-0.205,0.069-0.374,0.162-0.505,0.281c-0.132,0.118-0.227,0.261-0.286,0.427c-0.059,0.167-0.088,0.345-0.088,0.534
			c0,0.266,0.067,0.503,0.202,0.712c0.134,0.209,0.318,0.402,0.553,0.58s0.51,0.349,0.828,0.513s0.659,0.333,1.025,0.509
			c0.308,0.152,0.63,0.321,0.967,0.509s0.646,0.41,0.926,0.666s0.513,0.553,0.696,0.89c0.183,0.337,0.274,0.727,0.274,1.168
			c0,0.242-0.029,0.489-0.088,0.743s-0.155,0.502-0.289,0.744c-0.135,0.242-0.309,0.47-0.524,0.684s-0.479,0.401-0.791,0.562
			s-0.677,0.289-1.095,0.384c-0.417,0.096-0.895,0.143-1.432,0.143c-0.454,0-0.878-0.032-1.271-0.099
			c-0.394-0.065-0.746-0.139-1.059-0.22c-0.312-0.08-0.581-0.156-0.806-0.227c-0.225-0.071-0.398-0.111-0.52-0.121L88.068,444.052z"
			/>
	</g>
	<g>
		<path d="M52.8,133.056l1.143-0.184v-8.667l-1.091-0.201v-1.114h2.241c0.186,0,0.366,0,0.542,0s0.361,0,0.557,0s0.408,0,0.637,0
			s0.491,0,0.784,0c0.835,0,1.529,0.073,2.084,0.22c0.554,0.147,0.996,0.359,1.325,0.636c0.33,0.277,0.563,0.617,0.7,1.022
			c0.137,0.404,0.205,0.866,0.205,1.386c0,0.626-0.1,1.187-0.3,1.68c-0.2,0.493-0.492,0.91-0.875,1.249
			c-0.384,0.34-0.853,0.6-1.406,0.78c-0.555,0.181-1.183,0.271-1.886,0.271c-0.229,0-0.444,0-0.645,0s-0.332-0.007-0.396-0.021
			v2.754l1.941,0.19v0.981H52.8V133.056z M56.411,129.065c0.103,0.024,0.227,0.043,0.374,0.055s0.356,0.018,0.63,0.018
			c0.264,0,0.514-0.047,0.75-0.142c0.237-0.094,0.444-0.254,0.623-0.479c0.178-0.225,0.319-0.526,0.425-0.904
			c0.104-0.377,0.157-0.85,0.157-1.416c0-0.828-0.168-1.428-0.505-1.798c-0.337-0.371-0.835-0.556-1.494-0.556
			c-0.142,0-0.26,0.004-0.355,0.011c-0.096,0.007-0.179,0.016-0.249,0.025c-0.071,0.01-0.133,0.02-0.187,0.029
			s-0.11,0.017-0.168,0.021V129.065z"/>
		<path d="M63.519,133.056l1.143-0.184v-8.684l-1.091-0.202v-1.097h2.278c0.215,0,0.418,0,0.612,0c0.192,0,0.387,0,0.582,0
			s0.399,0,0.611,0c0.213,0,0.446,0,0.7,0c0.791,0,1.46,0.057,2.007,0.169c0.547,0.113,0.99,0.29,1.33,0.53
			c0.339,0.24,0.583,0.546,0.732,0.916c0.148,0.369,0.223,0.81,0.223,1.318c0,0.304-0.043,0.612-0.128,0.927
			c-0.085,0.315-0.217,0.61-0.396,0.887s-0.401,0.522-0.67,0.739c-0.269,0.216-0.586,0.382-0.952,0.497
			c0.269,0.112,0.51,0.285,0.725,0.517c0.215,0.232,0.41,0.492,0.586,0.78s0.334,0.586,0.476,0.894s0.274,0.592,0.399,0.854
			c0.124,0.261,0.245,0.481,0.362,0.662s0.237,0.286,0.359,0.315l0.461,0.161v0.981h-2.849c-0.088,0-0.177-0.062-0.267-0.184
			c-0.091-0.122-0.182-0.283-0.275-0.484c-0.093-0.2-0.187-0.432-0.282-0.693c-0.096-0.261-0.194-0.532-0.297-0.813
			s-0.207-0.562-0.312-0.84c-0.105-0.279-0.216-0.536-0.333-0.771c-0.117-0.235-0.238-0.439-0.362-0.612
			c-0.125-0.174-0.255-0.295-0.392-0.363c-0.132,0-0.272,0-0.421,0s-0.288,0-0.417,0c-0.13,0-0.242,0-0.337,0
			c-0.096,0-0.158,0-0.187,0v3.604l1.333,0.176v0.981h-4.951V133.056z M67.137,128.255c0.044,0.013,0.118,0.021,0.223,0.026
			c0.105,0.004,0.217,0.006,0.337,0.006s0.236,0,0.348,0s0.2,0,0.264,0c0.527,0,0.943-0.192,1.249-0.579
			c0.305-0.386,0.458-0.989,0.458-1.811c0-0.333-0.034-0.627-0.103-0.883s-0.178-0.471-0.33-0.645s-0.351-0.306-0.597-0.395
			s-0.545-0.134-0.897-0.134c-0.278,0-0.49,0.008-0.633,0.025c-0.145,0.017-0.25,0.032-0.319,0.047V128.255z"/>
		<path d="M79.986,134.044c-0.869,0-1.619-0.133-2.249-0.398c-0.63-0.267-1.147-0.644-1.553-1.13
			c-0.405-0.487-0.706-1.073-0.901-1.758c-0.195-0.684-0.293-1.441-0.293-2.273c0-0.855,0.123-1.627,0.37-2.316
			c0.247-0.688,0.596-1.278,1.048-1.768c0.451-0.489,0.995-0.865,1.629-1.126c0.635-0.262,1.34-0.393,2.117-0.393
			c0.869,0,1.617,0.128,2.245,0.383c0.627,0.255,1.143,0.618,1.545,1.09c0.403,0.472,0.701,1.039,0.894,1.704s0.29,1.409,0.29,2.233
			c0,0.857-0.124,1.639-0.37,2.344c-0.247,0.705-0.595,1.309-1.044,1.812c-0.449,0.502-0.99,0.895-1.622,1.176
			C81.459,133.903,80.758,134.044,79.986,134.044z M80.052,133.027c0.732,0,1.308-0.396,1.725-1.188
			c0.418-0.793,0.626-1.975,0.626-3.545c0-0.771-0.054-1.435-0.161-1.991c-0.107-0.556-0.261-1.012-0.461-1.369
			s-0.446-0.62-0.736-0.788s-0.619-0.252-0.985-0.252s-0.695,0.093-0.985,0.277c-0.291,0.185-0.536,0.465-0.736,0.841
			s-0.354,0.853-0.461,1.43s-0.161,1.256-0.161,2.037c0,0.775,0.052,1.448,0.158,2.019c0.104,0.57,0.258,1.042,0.461,1.416
			s0.448,0.652,0.736,0.837S79.686,133.027,80.052,133.027z"/>
		<path d="M87.24,126.713l1.575-0.747l1.758-0.527l-1.758-0.498l-1.604-0.688l0.938-1.634l1.421,1.048l1.348,1.23l-0.483-1.722
			l-0.22-1.787h1.941l-0.183,1.766l-0.396,1.714l1.304-1.238l1.406-1.069l0.967,1.611l-1.545,0.747l-1.794,0.513l1.794,0.483
			l1.589,0.682l-0.989,1.67l-1.355-1.033l-1.377-1.223l0.476,1.714l0.234,1.772h-1.948l0.176-1.772l0.403-1.729l-1.311,1.26
			l-1.399,1.069L87.24,126.713z"/>
		<path d="M1.819,147.716C0.62,146.337,0,144.778,0,142.868c0-1.908,0.62-3.468,1.819-4.847l0.709,0.529
			c-1.02,1.369-1.489,2.489-1.489,4.317c0,1.829,0.47,2.949,1.489,4.318L1.819,147.716z"/>
		<path d="M10.767,146.037h-1.29l-1.479-4.888l-1.479,4.888H5.229L3.8,138.951H5.03l0.989,4.927l1.459-4.817h1.08l1.429,4.817
			l1.009-4.927h1.18L10.767,146.037z"/>
		<path d="M14.18,146.037v-7.086h1.309v7.086H14.18z"/>
		<path d="M20.769,140.151v5.887h-1.29v-5.887H17.38v-1.199h5.487v1.199H20.769z"/>
		<path d="M28.958,146.037v-3.089h-2.909v3.089H24.76v-7.086h1.289v2.768h2.909v-2.768h1.289v7.086H28.958z"/>
		<path d="M40.487,145.327c-0.529,0.54-1.269,0.84-2.029,0.84c-0.759,0-1.469-0.25-2.009-0.79c-0.77-0.77-0.879-1.719-0.879-2.878
			s0.11-2.109,0.879-2.879c0.54-0.539,1.25-0.799,2.009-0.799c0.76,0,1.5,0.279,2.029,0.819c0.41,0.42,0.62,0.979,0.68,1.539h-1.319
			c-0.03-0.31-0.14-0.53-0.32-0.75c-0.229-0.29-0.629-0.439-1.069-0.439c-0.41,0-0.81,0.17-1.089,0.47
			c-0.49,0.51-0.49,1.39-0.49,2.039s0,1.529,0.49,2.039c0.28,0.3,0.68,0.47,1.089,0.47c0.44,0,0.84-0.16,1.069-0.45
			c0.18-0.22,0.29-0.47,0.32-0.779h1.319C41.106,144.338,40.897,144.907,40.487,145.327z"/>
		<path d="M47.327,146.037l-1.18-2.679h-1.569v2.679h-1.299v-7.086h2.988c1.689,0,2.458,1.059,2.458,2.198
			c0,0.949-0.52,1.699-1.299,1.989l1.299,2.898H47.327z M46.268,140.08h-1.699v2.119h1.719c0.729,0,1.149-0.38,1.149-1.05
			C47.437,140.58,46.997,140.08,46.268,140.08z"/>
		<path d="M50.869,146.037v-7.086h1.309v7.086H50.869z"/>
		<path d="M57.458,140.151v5.887h-1.29v-5.887H54.07v-1.199h5.487v1.199H57.458z"/>
		<path d="M61.449,146.037v-7.086h1.309v7.086H61.449z"/>
		<path d="M69.907,145.327c-0.529,0.54-1.269,0.84-2.029,0.84c-0.759,0-1.469-0.25-2.009-0.79c-0.77-0.77-0.879-1.719-0.879-2.878
			s0.11-2.109,0.879-2.879c0.54-0.539,1.25-0.799,2.009-0.799c0.76,0,1.5,0.279,2.029,0.819c0.41,0.42,0.62,0.979,0.68,1.539h-1.319
			c-0.03-0.31-0.14-0.53-0.32-0.75c-0.229-0.29-0.629-0.439-1.069-0.439c-0.41,0-0.81,0.17-1.089,0.47
			c-0.49,0.51-0.49,1.39-0.49,2.039s0,1.529,0.49,2.039c0.28,0.3,0.68,0.47,1.089,0.47c0.44,0,0.84-0.16,1.069-0.45
			c0.18-0.22,0.29-0.47,0.32-0.779h1.319C70.526,144.338,70.317,144.907,69.907,145.327z"/>
		<path d="M72.699,146.037v-7.086h1.309v7.086H72.699z"/>
		<path d="M81.237,145.407c-0.54,0.54-1.369,0.76-2.239,0.76c-0.75,0-1.539-0.2-2.119-0.729c-0.42-0.38-0.74-0.979-0.74-1.649h1.319
			c0,0.35,0.16,0.659,0.37,0.869c0.3,0.3,0.78,0.38,1.189,0.38c0.49,0,0.959-0.1,1.229-0.38c0.16-0.17,0.28-0.34,0.28-0.68
			c0-0.52-0.4-0.759-0.84-0.839c-0.479-0.09-1.099-0.11-1.569-0.19c-0.979-0.159-1.799-0.799-1.799-1.979
			c0-0.56,0.25-1.029,0.62-1.399c0.47-0.46,1.249-0.749,2.079-0.749c0.76,0,1.499,0.239,1.979,0.689
			c0.42,0.399,0.709,0.919,0.72,1.509h-1.319c-0.01-0.25-0.14-0.52-0.31-0.699c-0.23-0.24-0.7-0.38-1.079-0.38
			c-0.4,0-0.86,0.09-1.149,0.39c-0.15,0.16-0.24,0.34-0.24,0.6c0,0.46,0.3,0.699,0.72,0.77c0.45,0.07,1.08,0.12,1.539,0.18
			c1.06,0.15,1.949,0.84,1.949,2.049C81.827,144.588,81.587,145.058,81.237,145.407z"/>
		<path d="M89.856,146.037v-5.058l-1.839,4.957h-0.95l-1.829-5.017v5.117h-1.249v-7.086h1.739l1.859,5.047l1.869-5.047h1.649v7.086
			H89.856z"/>
		<path d="M93.749,147.716l-0.709-0.529c1.019-1.369,1.489-2.489,1.489-4.318c0-1.828-0.47-2.948-1.489-4.317l0.709-0.529
			c1.199,1.379,1.819,2.938,1.819,4.847C95.568,144.778,94.948,146.337,93.749,147.716z"/>
	</g>
	<polygon fill="#1B1B1A" stroke="#1B1B1A" stroke-linejoin="round" stroke-miterlimit="10" points="114.321,372.032 
		110.392,368.632 114.321,365.231 	"/>
	<g>
		<path d="M41.687,362.07c0-0.891,0.142-1.686,0.425-2.385c0.283-0.697,0.672-1.287,1.168-1.77c0.495-0.481,1.081-0.848,1.758-1.102
			c0.676-0.252,1.41-0.379,2.201-0.379c0.356,0,0.708,0.019,1.055,0.056c0.347,0.036,0.672,0.077,0.978,0.12
			c0.305,0.045,0.578,0.088,0.82,0.129c0.241,0.041,0.438,0.069,0.589,0.084l-0.176,3.191h-1.567l-0.513-2.148
			c-0.073-0.094-0.217-0.18-0.432-0.256c-0.215-0.075-0.527-0.113-0.938-0.113c-0.386,0-0.736,0.092-1.051,0.273
			c-0.315,0.183-0.584,0.455-0.806,0.818c-0.223,0.362-0.395,0.816-0.517,1.361s-0.183,1.181-0.183,1.906
			c0,0.648,0.052,1.257,0.158,1.824c0.104,0.566,0.267,1.061,0.487,1.482s0.497,0.754,0.832,0.998
			c0.334,0.244,0.733,0.367,1.197,0.367c0.21,0,0.392-0.015,0.546-0.043c0.153-0.028,0.285-0.064,0.396-0.109
			c0.109-0.045,0.2-0.096,0.271-0.15c0.071-0.054,0.131-0.109,0.18-0.166l0.703-1.572l1.421,0.132l-0.278,2.411
			c-0.234,0.023-0.453,0.066-0.655,0.125c-0.203,0.061-0.425,0.124-0.667,0.191c-0.241,0.066-0.516,0.125-0.824,0.176
			c-0.308,0.05-0.681,0.074-1.121,0.074c-0.903,0-1.695-0.127-2.377-0.383c-0.681-0.254-1.25-0.62-1.706-1.097
			c-0.457-0.478-0.8-1.058-1.029-1.741S41.687,362.923,41.687,362.07z"/>
		<path d="M57.327,367.597c-0.869,0-1.619-0.133-2.249-0.398s-1.147-0.643-1.553-1.13s-0.706-1.073-0.901-1.757
			c-0.195-0.685-0.293-1.442-0.293-2.273c0-0.855,0.123-1.628,0.37-2.316c0.247-0.689,0.596-1.279,1.048-1.769
			c0.451-0.489,0.995-0.864,1.629-1.126s1.34-0.393,2.117-0.393c0.869,0,1.617,0.128,2.245,0.383
			c0.627,0.255,1.143,0.618,1.545,1.09c0.403,0.472,0.701,1.039,0.894,1.704s0.29,1.409,0.29,2.233c0,0.857-0.124,1.639-0.37,2.344
			c-0.247,0.705-0.595,1.309-1.044,1.812s-0.99,0.895-1.622,1.176C58.8,367.456,58.098,367.597,57.327,367.597z M57.393,366.579
			c0.732,0,1.308-0.396,1.725-1.188c0.418-0.792,0.626-1.974,0.626-3.545c0-0.771-0.054-1.435-0.161-1.991
			c-0.107-0.555-0.261-1.012-0.461-1.369s-0.446-0.619-0.736-0.787s-0.619-0.252-0.985-0.252s-0.695,0.092-0.985,0.276
			c-0.291,0.185-0.536,0.465-0.736,0.841c-0.2,0.377-0.354,0.854-0.461,1.43c-0.107,0.578-0.161,1.256-0.161,2.037
			c0,0.775,0.052,1.449,0.158,2.02c0.104,0.569,0.258,1.041,0.461,1.415s0.448,0.653,0.736,0.837
			C56.699,366.487,57.026,366.579,57.393,366.579z"/>
		<path d="M64.156,366.609l1.187-0.184v-8.744l-1.187-0.205v-1.033h3.655l4.263,6.467l0.798,1.699v-6.936l-1.289-0.197v-1.033h3.853
			v1.033l-1.157,0.205v9.909h-2.036l-4.49-6.862l-0.996-2.008v7.705l1.538,0.184v0.981h-4.138V366.609z"/>
		<path d="M77.379,364.222h1.37l0.374,1.803c0.112,0.133,0.318,0.252,0.619,0.358c0.3,0.106,0.663,0.159,1.087,0.159
			c0.63,0,1.089-0.131,1.377-0.395s0.432-0.623,0.432-1.078c0-0.247-0.056-0.469-0.168-0.666s-0.275-0.379-0.487-0.548
			c-0.213-0.169-0.473-0.331-0.78-0.487s-0.654-0.322-1.04-0.498c-0.19-0.086-0.395-0.186-0.611-0.299
			c-0.218-0.114-0.431-0.245-0.641-0.393c-0.21-0.146-0.413-0.312-0.608-0.498c-0.195-0.185-0.366-0.393-0.513-0.623
			c-0.146-0.229-0.264-0.483-0.352-0.762c-0.088-0.277-0.132-0.582-0.132-0.914c0-0.395,0.079-0.769,0.238-1.125
			c0.158-0.355,0.399-0.668,0.721-0.939c0.322-0.27,0.728-0.484,1.216-0.645c0.488-0.158,1.064-0.238,1.729-0.238
			c0.415,0,0.792,0.026,1.131,0.077c0.339,0.052,0.641,0.108,0.905,0.173c0.264,0.062,0.489,0.124,0.677,0.183
			s0.338,0.093,0.451,0.103l-0.095,2.569h-1.333l-0.359-1.731c-0.034-0.043-0.09-0.085-0.168-0.127
			c-0.078-0.043-0.175-0.082-0.289-0.117c-0.115-0.036-0.245-0.064-0.389-0.086s-0.296-0.031-0.458-0.031
			c-0.293,0-0.542,0.034-0.747,0.103c-0.205,0.069-0.374,0.163-0.505,0.281s-0.227,0.261-0.286,0.427
			c-0.059,0.167-0.088,0.345-0.088,0.535c0,0.266,0.067,0.502,0.202,0.711c0.134,0.209,0.318,0.402,0.553,0.58
			s0.51,0.35,0.828,0.513c0.317,0.164,0.659,0.333,1.025,0.509c0.308,0.152,0.63,0.322,0.967,0.51s0.646,0.409,0.926,0.665
			c0.281,0.257,0.513,0.554,0.696,0.89c0.183,0.338,0.274,0.727,0.274,1.168c0,0.242-0.029,0.49-0.088,0.744
			s-0.155,0.502-0.289,0.744c-0.135,0.241-0.309,0.469-0.524,0.683s-0.479,0.401-0.791,0.562s-0.677,0.29-1.095,0.384
			c-0.417,0.096-0.895,0.143-1.432,0.143c-0.454,0-0.878-0.032-1.271-0.099c-0.394-0.065-0.746-0.139-1.059-0.22
			c-0.312-0.08-0.581-0.156-0.806-0.227s-0.398-0.111-0.52-0.121L77.379,364.222z"/>
		<path d="M87.24,360.266l1.575-0.747l1.758-0.527l-1.758-0.498l-1.604-0.688l0.938-1.634l1.421,1.048l1.348,1.23l-0.483-1.722
			l-0.22-1.787h1.941l-0.183,1.766l-0.396,1.714l1.304-1.237l1.406-1.07l0.967,1.611l-1.545,0.748l-1.794,0.512l1.794,0.484
			l1.589,0.681l-0.989,1.67l-1.355-1.032l-1.377-1.224l0.476,1.714l0.234,1.772h-1.948l0.176-1.772l0.403-1.729l-1.311,1.26
			l-1.399,1.069L87.24,360.266z"/>
		<path d="M1.819,381.269C0.62,379.89,0,378.331,0,376.421c0-1.908,0.62-3.467,1.819-4.847l0.709,0.53
			c-1.02,1.369-1.489,2.488-1.489,4.316c0,1.83,0.47,2.949,1.489,4.318L1.819,381.269z"/>
		<path d="M10.767,379.59h-1.29l-1.479-4.888l-1.479,4.888H5.229L3.8,372.504H5.03l0.989,4.927l1.459-4.816h1.08l1.429,4.816
			l1.009-4.927h1.18L10.767,379.59z"/>
		<path d="M14.18,379.59v-7.086h1.309v7.086H14.18z"/>
		<path d="M20.769,373.703v5.887h-1.29v-5.887H17.38v-1.199h5.487v1.199H20.769z"/>
		<path d="M28.958,379.59v-3.089h-2.909v3.089H24.76v-7.086h1.289v2.769h2.909v-2.769h1.289v7.086H28.958z"/>
		<path d="M40.487,378.88c-0.529,0.54-1.269,0.84-2.029,0.84c-0.759,0-1.469-0.25-2.009-0.789c-0.77-0.77-0.879-1.72-0.879-2.879
			s0.11-2.109,0.879-2.879c0.54-0.539,1.25-0.799,2.009-0.799c0.76,0,1.5,0.279,2.029,0.819c0.41,0.42,0.62,0.979,0.68,1.539h-1.319
			c-0.03-0.31-0.14-0.53-0.32-0.749c-0.229-0.291-0.629-0.44-1.069-0.44c-0.41,0-0.81,0.17-1.089,0.47
			c-0.49,0.51-0.49,1.39-0.49,2.039c0,0.65,0,1.529,0.49,2.039c0.28,0.3,0.68,0.47,1.089,0.47c0.44,0,0.84-0.16,1.069-0.45
			c0.18-0.22,0.29-0.469,0.32-0.779h1.319C41.106,377.891,40.897,378.46,40.487,378.88z"/>
		<path d="M47.327,379.59l-1.18-2.679h-1.569v2.679h-1.299v-7.086h2.988c1.689,0,2.458,1.06,2.458,2.198
			c0,0.949-0.52,1.699-1.299,1.989l1.299,2.898H47.327z M46.268,373.634h-1.699v2.118h1.719c0.729,0,1.149-0.38,1.149-1.05
			C47.437,374.133,46.997,373.634,46.268,373.634z"/>
		<path d="M50.869,379.59v-7.086h1.309v7.086H50.869z"/>
		<path d="M57.458,373.703v5.887h-1.29v-5.887H54.07v-1.199h5.487v1.199H57.458z"/>
		<path d="M61.449,379.59v-7.086h1.309v7.086H61.449z"/>
		<path d="M69.907,378.88c-0.529,0.54-1.269,0.84-2.029,0.84c-0.759,0-1.469-0.25-2.009-0.789c-0.77-0.77-0.879-1.72-0.879-2.879
			s0.11-2.109,0.879-2.879c0.54-0.539,1.25-0.799,2.009-0.799c0.76,0,1.5,0.279,2.029,0.819c0.41,0.42,0.62,0.979,0.68,1.539h-1.319
			c-0.03-0.31-0.14-0.53-0.32-0.749c-0.229-0.291-0.629-0.44-1.069-0.44c-0.41,0-0.81,0.17-1.089,0.47
			c-0.49,0.51-0.49,1.39-0.49,2.039c0,0.65,0,1.529,0.49,2.039c0.28,0.3,0.68,0.47,1.089,0.47c0.44,0,0.84-0.16,1.069-0.45
			c0.18-0.22,0.29-0.469,0.32-0.779h1.319C70.526,377.891,70.317,378.46,69.907,378.88z"/>
		<path d="M72.699,379.59v-7.086h1.309v7.086H72.699z"/>
		<path d="M81.237,378.96c-0.54,0.54-1.369,0.76-2.239,0.76c-0.75,0-1.539-0.199-2.119-0.729c-0.42-0.38-0.74-0.979-0.74-1.649
			h1.319c0,0.35,0.16,0.66,0.37,0.869c0.3,0.301,0.78,0.381,1.189,0.381c0.49,0,0.959-0.101,1.229-0.381
			c0.16-0.17,0.28-0.34,0.28-0.68c0-0.52-0.4-0.759-0.84-0.839c-0.479-0.09-1.099-0.11-1.569-0.19
			c-0.979-0.159-1.799-0.799-1.799-1.979c0-0.56,0.25-1.029,0.62-1.398c0.47-0.461,1.249-0.75,2.079-0.75
			c0.76,0,1.499,0.24,1.979,0.689c0.42,0.4,0.709,0.92,0.72,1.51h-1.319c-0.01-0.25-0.14-0.521-0.31-0.7
			c-0.23-0.239-0.7-0.38-1.079-0.38c-0.4,0-0.86,0.09-1.149,0.39c-0.15,0.16-0.24,0.34-0.24,0.6c0,0.46,0.3,0.7,0.72,0.771
			c0.45,0.069,1.08,0.119,1.539,0.18c1.06,0.149,1.949,0.839,1.949,2.049C81.827,378.141,81.587,378.611,81.237,378.96z"/>
		<path d="M89.856,379.59v-5.058l-1.839,4.957h-0.95l-1.829-5.017v5.117h-1.249v-7.086h1.739l1.859,5.047l1.869-5.047h1.649v7.086
			H89.856z"/>
		<path d="M93.749,381.269l-0.709-0.529c1.019-1.369,1.489-2.488,1.489-4.318c0-1.828-0.47-2.947-1.489-4.316l0.709-0.53
			c1.199,1.38,1.819,2.938,1.819,4.847C95.568,378.331,94.948,379.89,93.749,381.269z"/>
	</g>
</g>
<g opacity="0.4">
	<path fill="#F08575" d="M124.864,370.895v-13.578c231.538,0,349.263-34.072,463.113-67.022
		c114.759-33.213,233.425-67.557,466.888-67.557v13.578c-231.537,0-349.263,34.072-463.112,67.022
		C476.993,336.551,358.327,370.895,124.864,370.895z"/>
</g>
<g opacity="0.4">
	<path fill="#F08575" d="M1054.864,461.895c-232.853,0-351.226-18.557-465.701-36.502C475.03,407.501,357.011,389,124.864,389
		v-9.053c232.853,0,351.226,18.557,465.702,36.502c114.133,17.892,232.151,36.393,464.299,36.393V461.895z"/>
</g>
<g opacity="0.4">
	<path fill="#F08575" d="M124.864,357.316v-9.053c103.822,0,193.681-12.64,274.711-38.641
		c72.266-23.188,131.181-54.696,188.155-85.166c57.33-30.66,116.611-62.364,189.658-85.804
		c81.938-26.292,172.701-39.073,277.477-39.073v9.053c-103.822,0-193.681,12.64-274.711,38.641
		c-72.266,23.188-131.18,54.696-188.154,85.166c-57.33,30.66-116.612,62.364-189.658,85.804
		C320.403,344.534,229.64,357.316,124.864,357.316z"/>
</g>
<g opacity="0.4">
	<path fill="#F08575" d="M124.864,375.422v-4.526c232.453,0,350.625-4.963,464.906-9.762c114.327-4.801,232.547-9.765,465.095-9.765
		v4.526c-232.452,0-350.624,4.962-464.905,9.761C475.631,370.457,357.412,375.422,124.864,375.422z"/>
</g>
<g opacity="0.4">
	<path fill="#F08575" d="M1054.864,406.631c-232.564,0-350.794-6.784-465.13-13.346c-114.272-6.558-232.435-13.339-464.871-13.339
		v-4.525c232.565,0,350.794,6.784,465.13,13.346c114.272,6.558,232.435,13.338,464.87,13.338V406.631z"/>
</g>
<g opacity="0.4">
	<path fill="#A7C8AF" d="M1054.864,393.053c-104.539,0-195.077-12.833-276.789-39.23c-72.853-23.535-132.043-55.404-189.284-86.225
		c-57.063-30.724-116.069-62.494-188.529-85.903c-81.255-26.25-171.339-39.011-275.398-39.011v-4.525
		c104.539,0,195.078,12.832,276.79,39.229c72.853,23.535,132.042,55.404,189.284,86.225
		c57.062,30.725,116.068,62.494,188.528,85.903c81.256,26.25,171.339,39.011,275.398,39.011V393.053z"/>
</g>
<g opacity="0.4">
	<path fill="#A7C8AF" d="M124.864,133.631v-4.525c232.287,0,350.376-22.442,464.578-44.145
		c114.407-21.742,232.709-44.225,465.422-44.225v4.526c-232.287,0-350.376,22.442-464.577,44.145
		C475.879,111.15,357.577,133.631,124.864,133.631z"/>
</g>
<g opacity="0.4">
	<path fill="#A7C8AF" d="M1054.864,291.578c-232.863,0-351.235-39.055-465.709-76.824c-57.087-18.835-116.118-38.312-188.637-52.667
		c-81.337-16.102-171.505-23.93-275.655-23.93v-4.526c232.864,0,351.235,39.056,465.709,76.825
		c57.087,18.835,116.117,38.312,188.637,52.667c81.337,16.102,171.505,23.93,275.654,23.93V291.578z"/>
</g>
<g opacity="0.4">
	<path fill="#F6A000" d="M1054.864,351.369c-232.608,0-350.859-11.391-465.217-22.406
		c-114.251-11.005-232.392-22.385-464.784-22.385v-4.525c232.609,0,350.86,11.39,465.217,22.405
		c114.251,11.005,232.392,22.385,464.783,22.385V351.369z"/>
</g>
<g opacity="0.4">
	<path fill="#F6A000" d="M124.864,270.368v-63.369c230.882,0,348.259-12.022,461.772-23.65
		c115.096-11.789,234.11-23.98,468.229-23.98v63.369c-230.882,0-348.259,12.022-461.771,23.65
		C477.997,258.177,358.982,270.368,124.864,270.368z"/>
</g>
<g opacity="0.4">
	<path fill="#F6A000" d="M124.864,207v-54.316c229.404,0,340.874-25.75,458.888-53.014
		c115.788-26.748,235.517-54.407,471.113-54.407v54.316c-229.404,0-340.873,25.75-458.887,53.013
		C480.189,179.341,360.46,207,124.864,207z"/>
</g>
<g opacity="0.4">
	<path fill="#F6A000" d="M1054.864,323.263c-232.861,0-351.24-5.399-465.722-10.622c-114.127-5.205-232.14-10.589-464.279-10.589
		v-31.684c232.861,0,351.241,5.399,465.722,10.622c114.127,5.205,232.14,10.589,464.278,10.589V323.263z"/>
</g>
<g opacity="0.4">
	<path fill="#F6A000" d="M1054.864,452.842c-233.387,0-352.019-31.541-466.745-62.044C474.237,360.52,356.477,329.21,124.864,329.21
		v-13.578c233.388,0,352.019,31.541,466.745,62.044c113.883,30.278,231.644,61.588,463.256,61.588V452.842z"/>
</g>
<g opacity="0.4">
	<path fill="#F6A000" d="M1054.864,402.106c-232.917,0-351.321-22.02-465.828-43.313c-114.103-21.219-232.09-43.16-464.173-43.16
		v-9.053c232.917,0,351.322,22.02,465.828,43.313c114.103,21.219,232.09,43.16,464.173,43.16V402.106z"/>
</g>
<g opacity="0.4">
	<path fill="#F6A000" d="M1054.864,479.999c-232.882,0-351.262-21.174-465.744-60.993c-57.084-19.855-116.112-40.386-188.625-55.52
		c-81.33-16.973-171.49-25.224-275.632-25.224v-9.053c232.883,0,351.262,45.701,465.744,85.521
		c57.085,19.855,81.112,25.387,153.625,40.52c81.33,16.973,206.49,20.224,310.632,20.224V479.999z"/>
</g>
<g opacity="0.4">
	<path fill="#1F8E6C" d="M124.864,55.736V15c232.172,0,350.201-3.808,464.344-7.489C703.673,3.819,822.036,0,1054.864,0v40.736
		c-232.172,0-350.2,3.808-464.343,7.489C476.055,51.918,357.692,55.736,124.864,55.736z"/>
</g>
<g opacity="0.4">
	<path fill="#1F8E6C" d="M1054.864,159.368c-233.479,0-352.164-20.674-466.942-40.667C474.092,98.872,356.386,78.368,124.864,78.368
		V55.737c233.479,0,352.165,20.674,466.942,40.668c113.831,19.828,231.537,40.332,463.059,40.332V159.368z"/>
</g>
<g opacity="0.4">
	<path fill="#1F8E6C" d="M1054.864,388.526c-105.646,0-197.227-14.688-279.976-44.905c-73.704-26.914-133.286-63.176-190.907-98.244
		c-56.684-34.497-115.297-70.17-186.905-96.318c-80.219-29.292-169.26-43.532-272.213-43.532V82.895
		c105.646,0,197.227,14.688,279.976,44.905c73.705,26.914,133.287,63.176,190.908,98.244
		c56.684,34.497,115.297,70.17,186.905,96.318c80.218,29.292,169.26,43.532,272.212,43.532V388.526z"/>
</g>
<g opacity="0.4">
	<path fill="#1F8E6C" d="M1054.864,439.263c-104.911,0-195.794-16.71-277.843-51.083c-73.102-30.626-132.401-72.032-189.749-112.074
		c-56.958-39.77-115.854-80.894-188.064-111.146c-80.919-33.9-170.658-45.854-274.345-45.854l0-13.579
		c104.912,0,195.795,16.71,277.843,51.083c73.102,30.626,132.401,72.032,189.748,112.074
		c56.958,39.77,115.854,80.894,188.064,111.146c80.919,33.9,170.658,50.38,274.345,50.38V439.263z"/>
</g>
<g opacity="0.4">
	<path fill="#1F8E6C" d="M1054.864,287.052c-104.496,0-194.996-10.458-276.67-31.974c-72.828-19.185-132.008-45.168-189.24-70.296
		c-57.073-25.057-116.088-50.968-188.573-70.062c-81.293-21.415-171.416-31.824-275.518-31.824v-4.526
		c104.497,0,194.996,10.458,276.67,31.974c72.828,19.185,132.008,45.168,189.24,70.296c57.072,25.057,116.088,50.968,188.572,70.062
		c81.293,21.415,171.416,31.825,275.518,31.825V287.052z"/>
</g>
<g opacity="0.4">
	<path fill="#AF1922" d="M124.864,457.844l0-40.739c102.897,0,191.863-9.085,271.981-27.774
		c71.406-16.657,129.895-39.397,186.458-61.39c115.861-45.045,235.666-91.625,471.561-91.625v36.211
		c-102.896,0-191.862,9.085-271.98,27.774c-71.405,16.657-129.896,39.397-186.459,61.39
		C480.565,406.736,360.76,457.844,124.864,457.844z"/>
</g>
<g opacity="0.4">
	<path fill="#AF1922" d="M124.864,417.106V399c103.195,0,192.468-14.652,272.918-44.795
		c71.807-26.903,130.514-63.563,187.288-99.016c57.53-35.925,117.02-73.072,190.525-100.613
		c82.517-30.916,173.867-45.945,279.27-45.945v18.105c-103.195,0-192.468,14.652-272.918,44.795
		c-71.807,26.903-130.514,63.562-187.287,99.016c-57.53,35.925-117.02,73.072-190.525,100.612
		C321.617,402.076,230.267,417.106,124.864,417.106z"/>
</g>
<g opacity="0.4">
	<path fill="#AF1922" d="M124.864,485v-13.578c232.062,0,350.037-19.817,464.128-34.602
		c114.518-14.842,232.934-30.188,465.873-30.188v13.578c-232.062,0-350.037,15.289-464.127,30.075
		C476.219,465.127,357.802,485,124.864,485z"/>
</g>
<g opacity="0.4">
	<path fill="#AF1922" d="M124.864,471.422v-13.578c231.569,0,349.308-37.458,463.172-69.303
		c114.746-32.093,233.397-65.277,466.829-65.277v13.578c-231.568,0-349.309,32.931-463.171,64.775
		C476.948,433.71,358.296,471.422,124.864,471.422z"/>
</g>
<rect x="1054.864" y="0" fill="#1B1B1A" width="10" height="126.737">
<title>1_Nutrients
28</title>
</rect>
<rect x="1054.864" y="136.737" fill="#1B1B1A" width="10" height="135.789">
<title>2_Diseases
30</title>
</rect>
<rect x="1054.864" y="282.526" fill="#1B1B1A" width="10" height="54.316">
<title>3_Intolerance
12</title>
</rect>
<rect x="1054.864" y="346.842" fill="#1B1B1A" width="10" height="9.053">
<title>4_Allergies
2</title>
</rect>
<rect x="1054.864" y="365.895" fill="#1B1B1A" width="10" height="54.316">
<title>5_Hormones/Chemical Agents
12</title>
</rect>
<rect x="1054.864" y="430.211" fill="#1B1B1A" width="10" height="31.684">
<title>6_Fitness / Calories
7</title>
</rect>
<rect x="1054.864" y="475.474" fill="#1B1B1A" width="10" height="4.526">
<title>8_Psychological
1</title>
</rect>
<g>
	<rect x="114.864" y="15" fill="#1B1B1A" width="10" height="104.105">
	<title>1_Pro
23</title>
	</rect>
	<rect x="114.864" y="129.105" fill="#1B1B1A" width="10" height="13.579">
	<title>2_Pro*
3</title>
	</rect>
	<rect x="114.864" y="152.684" fill="#1B1B1A" width="10" height="185.579">
	<title>3_Neutral
41</title>
	</rect>
	<rect x="114.864" y="348.263" fill="#1B1B1A" width="10" height="40.737">
	<title>4_Cons*
9</title>
	</rect>
	<rect x="114.864" y="399" fill="#1B1B1A" width="10" height="86">
	<title>5_Cons
19</title>
	</rect>
</g>
</svg>
