<?xml version="1.0" encoding="utf-8"?>
<!-- Generator: Adobe Illustrator 17.0.0, SVG Export Plug-In . SVG Version: 6.00 Build 0)  -->
<!DOCTYPE svg PUBLIC "-//W3C//DTD SVG 1.1//EN" "http://www.w3.org/Graphics/SVG/1.1/DTD/svg11.dtd">
<svg version="1.1" id="Livello_1" xmlns="http://www.w3.org/2000/svg" xmlns:xlink="http://www.w3.org/1999/xlink" x="0px" y="0px"
	 width="768px" height="388.333px" viewBox="0 0 768 388.333" enable-background="new 0 0 768 388.333" xml:space="preserve">
<g opacity="0.75">
	<g>
		<defs>
			<rect id="SVGID_1_" x="373.185" y="26.764" width="18.75" height="19.339"/>
		</defs>
		<clipPath id="SVGID_2_">
			<use xlink:href="#SVGID_1_"  overflow="visible"/>
		</clipPath>
		
			<line clip-path="url(#SVGID_2_)" fill="none" stroke="#BAA494" stroke-width="0.75" x1="382.56" y1="33.764" x2="382.56" y2="45.103"/>
	</g>
</g>
<g>
	<path fill="#262625" d="M354.406,19.793V12.76l-2.535,5.577h-0.845l-2.574-5.577v7.033h-0.988v-9.257h0.988l3.016,6.565
		l2.938-6.565h0.988v9.257H354.406z"/>
	<path fill="#262625" d="M362.661,19.143c-0.442,0.442-1.053,0.729-1.833,0.729c-0.78,0-1.391-0.286-1.833-0.729
		c-0.65-0.663-0.78-1.56-0.78-2.548s0.13-1.885,0.78-2.548c0.442-0.442,1.053-0.729,1.833-0.729c0.78,0,1.391,0.286,1.833,0.729
		c0.65,0.663,0.78,1.56,0.78,2.548S363.311,18.48,362.661,19.143z M361.998,14.619c-0.299-0.3-0.715-0.469-1.17-0.469
		c-0.455,0-0.858,0.169-1.157,0.469c-0.468,0.468-0.52,1.261-0.52,1.976c0,0.715,0.052,1.508,0.52,1.977
		c0.299,0.299,0.702,0.468,1.157,0.468c0.455,0,0.871-0.169,1.17-0.468c0.468-0.469,0.507-1.262,0.507-1.977
		C362.505,15.88,362.466,15.087,361.998,14.619z"/>
	<path fill="#262625" d="M367.874,19.793c-1.092,0-1.638-0.767-1.638-1.716v-3.927h-0.806v-0.715h0.806v-2.002h0.936v2.002h1.365
		v0.715h-1.365v3.9c0,0.585,0.273,0.937,0.871,0.937h0.494v0.806H367.874z"/>
	<path fill="#262625" d="M370.994,11.577v-1.054h1.053v1.054H370.994z M371.045,19.793v-6.396h0.936v6.396H371.045z"/>
	<path fill="#262625" d="M377.129,19.793h-0.832l-2.34-6.396h1.014l1.742,5.136l1.755-5.136h1.014L377.129,19.793z"/>
	<path fill="#262625" d="M384.943,19.793v-0.611c-0.52,0.521-0.988,0.689-1.846,0.689c-0.884,0-1.404-0.169-1.807-0.585
		c-0.312-0.312-0.481-0.793-0.481-1.3c0-1.118,0.78-1.847,2.21-1.847h1.924v-0.611c0-0.936-0.468-1.403-1.638-1.403
		c-0.819,0-1.235,0.194-1.612,0.728l-0.637-0.585c0.572-0.741,1.222-0.949,2.262-0.949c1.715,0,2.561,0.741,2.561,2.133v4.342
		H384.943z M384.943,16.842h-1.794c-0.962,0-1.43,0.39-1.43,1.131s0.455,1.093,1.469,1.093c0.546,0,1.027-0.039,1.43-0.43
		c0.221-0.208,0.325-0.572,0.325-1.104V16.842z"/>
	<path fill="#262625" d="M390.597,19.793c-1.092,0-1.638-0.767-1.638-1.716v-3.927h-0.806v-0.715h0.806v-2.002h0.937v2.002h1.364
		v0.715h-1.364v3.9c0,0.585,0.272,0.937,0.871,0.937h0.493v0.806H390.597z"/>
	<path fill="#262625" d="M393.717,11.577v-1.054h1.053v1.054H393.717z M393.769,19.793v-6.396h0.937v6.396H393.769z"/>
	<path fill="#262625" d="M401.816,19.143c-0.442,0.442-1.054,0.729-1.833,0.729c-0.78,0-1.392-0.286-1.834-0.729
		c-0.649-0.663-0.779-1.56-0.779-2.548s0.13-1.885,0.779-2.548c0.442-0.442,1.054-0.729,1.834-0.729
		c0.779,0,1.391,0.286,1.833,0.729c0.649,0.663,0.779,1.56,0.779,2.548S402.466,18.48,401.816,19.143z M401.153,14.619
		c-0.3-0.3-0.716-0.469-1.17-0.469c-0.455,0-0.858,0.169-1.157,0.469c-0.469,0.468-0.521,1.261-0.521,1.976
		c0,0.715,0.052,1.508,0.521,1.977c0.299,0.299,0.702,0.468,1.157,0.468c0.454,0,0.87-0.169,1.17-0.468
		c0.468-0.469,0.507-1.262,0.507-1.977C401.66,15.88,401.621,15.087,401.153,14.619z"/>
	<path fill="#262625" d="M409.33,19.793v-3.939c0-1.131-0.611-1.703-1.573-1.703s-1.586,0.585-1.586,1.703v3.939h-0.937v-6.396
		h0.937v0.702c0.455-0.52,1.079-0.78,1.794-0.78c0.689,0,1.248,0.208,1.638,0.599c0.455,0.441,0.663,1.04,0.663,1.781v4.095H409.33z
		"/>
	<path fill="#262625" d="M415.206,19.871c-1.079,0-1.924-0.247-2.626-0.923l0.624-0.624c0.507,0.532,1.195,0.741,1.988,0.741
		c1.054,0,1.703-0.378,1.703-1.132c0-0.559-0.324-0.871-1.065-0.936l-1.054-0.091c-1.248-0.104-1.91-0.663-1.91-1.717
		c0-1.17,0.987-1.872,2.353-1.872c0.91,0,1.729,0.222,2.301,0.689l-0.61,0.611c-0.455-0.352-1.04-0.508-1.703-0.508
		c-0.937,0-1.431,0.403-1.431,1.054c0,0.546,0.312,0.871,1.118,0.936l1.027,0.091c1.118,0.104,1.885,0.533,1.885,1.729
		C417.806,19.157,416.753,19.871,415.206,19.871z"/>
</g>
<path fill="none" stroke="#AE1821" stroke-width="0.75" stroke-miterlimit="10" d="M317.769,1.935c0,0-2.835,0-2.835,2.835v20.115
	c0,0,0,2.835,2.835,2.835H447.35c0,0,2.834,0,2.834-2.835V4.77c0,0,0-2.835-2.834-2.835H317.769z"/>
<g>
	<path fill="#262625" d="M339.105,69.006h-0.923l-2.054-7.41l-2.054,7.41h-0.923l-2.366-9.257h1.053l1.807,7.463l2.042-7.463h0.884
		l2.041,7.463l1.807-7.463h1.053L339.105,69.006z"/>
	<path fill="#262625" d="M343.447,60.79v-1.054h1.053v1.054H343.447z M343.499,69.006V62.61h0.936v6.396H343.499z"/>
	<path fill="#262625" d="M351.65,69.006l-2.028-3.276l-1.248,1.431v1.846h-0.936v-9.257h0.936v6.188l2.886-3.328h1.17l-2.171,2.444
		l2.548,3.952H351.65z"/>
	<path fill="#262625" d="M354.991,60.79v-1.054h1.053v1.054H354.991z M355.043,69.006V62.61h0.936v6.396H355.043z"/>
	<path fill="#262625" d="M363.285,68.525c-0.338,0.339-0.91,0.56-1.56,0.56c-0.702,0-1.287-0.169-1.807-0.832v3.614h-0.936V62.61
		h0.936v0.754c0.52-0.676,1.105-0.832,1.807-0.832c0.65,0,1.222,0.222,1.56,0.56c0.65,0.649,0.78,1.716,0.78,2.717
		S363.935,67.875,363.285,68.525z M361.53,63.364c-1.391,0-1.612,1.196-1.612,2.444s0.221,2.444,1.612,2.444
		s1.599-1.196,1.599-2.444S362.921,63.364,361.53,63.364z"/>
	<path fill="#262625" d="M367.302,66.055c0,1.404,0.663,2.21,1.885,2.21c0.741,0,1.17-0.221,1.677-0.728l0.637,0.559
		c-0.65,0.65-1.248,0.988-2.34,0.988c-1.69,0-2.795-1.015-2.795-3.276c0-2.067,1.001-3.276,2.626-3.276
		c1.651,0,2.626,1.196,2.626,3.095v0.429H367.302z M370.487,64.287c-0.247-0.585-0.819-0.963-1.495-0.963
		c-0.676,0-1.248,0.378-1.495,0.963c-0.143,0.351-0.169,0.546-0.195,1.065h3.38C370.656,64.833,370.63,64.638,370.487,64.287z"/>
	<path fill="#262625" d="M378.066,69.006V68.24c-0.52,0.676-1.118,0.845-1.82,0.845c-0.65,0-1.222-0.221-1.56-0.56
		c-0.65-0.649-0.78-1.716-0.78-2.717s0.13-2.067,0.78-2.717c0.338-0.338,0.91-0.56,1.56-0.56c0.702,0,1.287,0.156,1.807,0.819
		v-3.602h0.936v9.257H378.066z M376.454,63.364c-1.391,0-1.612,1.196-1.612,2.444s0.221,2.444,1.612,2.444
		c1.391,0,1.599-1.196,1.599-2.444S377.845,63.364,376.454,63.364z"/>
	<path fill="#262625" d="M381.927,60.79v-1.054h1.053v1.054H381.927z M381.979,69.006V62.61h0.936v6.396H381.979z"/>
	<path fill="#262625" d="M389.545,69.006v-0.611c-0.521,0.521-0.988,0.689-1.847,0.689c-0.884,0-1.404-0.169-1.807-0.585
		c-0.312-0.312-0.481-0.793-0.481-1.3c0-1.118,0.78-1.847,2.21-1.847h1.925v-0.611c0-0.936-0.469-1.403-1.639-1.403
		c-0.819,0-1.235,0.194-1.612,0.728l-0.637-0.585c0.572-0.741,1.222-0.949,2.262-0.949c1.717,0,2.562,0.741,2.562,2.133v4.342
		H389.545z M389.545,66.055h-1.795c-0.962,0-1.43,0.39-1.43,1.131s0.455,1.093,1.469,1.093c0.546,0,1.027-0.039,1.431-0.43
		c0.221-0.208,0.325-0.572,0.325-1.104V66.055z"/>
	<path fill="#262625" d="M400.906,65.197h-2.457v3.81h-0.988v-9.257h3.445c1.689,0,2.859,1.054,2.859,2.718
		C403.766,64.131,402.596,65.197,400.906,65.197z M400.815,60.634h-2.366v3.679h2.366c1.156,0,1.963-0.624,1.963-1.846
		C402.778,61.244,401.972,60.634,400.815,60.634z"/>
	<path fill="#262625" d="M409.629,69.006v-0.611c-0.52,0.521-0.988,0.689-1.846,0.689c-0.885,0-1.404-0.169-1.808-0.585
		c-0.312-0.312-0.48-0.793-0.48-1.3c0-1.118,0.779-1.847,2.21-1.847h1.924v-0.611c0-0.936-0.468-1.403-1.638-1.403
		c-0.819,0-1.235,0.194-1.612,0.728l-0.637-0.585c0.571-0.741,1.222-0.949,2.262-0.949c1.716,0,2.562,0.741,2.562,2.133v4.342
		H409.629z M409.629,66.055h-1.794c-0.962,0-1.43,0.39-1.43,1.131s0.454,1.093,1.469,1.093c0.546,0,1.027-0.039,1.43-0.43
		c0.222-0.208,0.325-0.572,0.325-1.104V66.055z"/>
	<path fill="#262625" d="M415.544,71.945c-0.962,0-1.495-0.247-2.171-0.858l0.61-0.598c0.468,0.416,0.793,0.637,1.534,0.637
		c1.235,0,1.755-0.871,1.755-1.963v-1.001c-0.52,0.663-1.104,0.832-1.794,0.832c-0.649,0-1.209-0.234-1.547-0.572
		c-0.637-0.637-0.78-1.625-0.78-2.665s0.144-2.028,0.78-2.665c0.338-0.338,0.91-0.56,1.56-0.56c0.702,0,1.274,0.156,1.795,0.832
		V62.61h0.923v6.592C418.209,70.787,417.221,71.945,415.544,71.945z M415.687,63.364c-1.391,0-1.599,1.196-1.599,2.393
		s0.208,2.392,1.599,2.392c1.392,0,1.586-1.195,1.586-2.392S417.078,63.364,415.687,63.364z"/>
	<path fill="#262625" d="M421.783,66.055c0,1.404,0.663,2.21,1.886,2.21c0.741,0,1.17-0.221,1.677-0.728l0.637,0.559
		c-0.649,0.65-1.248,0.988-2.34,0.988c-1.69,0-2.795-1.015-2.795-3.276c0-2.067,1.001-3.276,2.626-3.276
		c1.651,0,2.626,1.196,2.626,3.095v0.429H421.783z M424.969,64.287c-0.247-0.585-0.819-0.963-1.495-0.963s-1.248,0.378-1.495,0.963
		c-0.143,0.351-0.169,0.546-0.195,1.065h3.381C425.138,64.833,425.111,64.638,424.969,64.287z"/>
	<path fill="#262625" d="M430.754,69.084c-1.079,0-1.924-0.247-2.626-0.923l0.624-0.624c0.507,0.532,1.195,0.741,1.988,0.741
		c1.054,0,1.703-0.378,1.703-1.132c0-0.559-0.324-0.871-1.065-0.936l-1.054-0.091c-1.248-0.104-1.91-0.663-1.91-1.717
		c0-1.17,0.987-1.872,2.353-1.872c0.91,0,1.729,0.222,2.301,0.689l-0.61,0.611c-0.455-0.352-1.04-0.508-1.703-0.508
		c-0.937,0-1.431,0.403-1.431,1.054c0,0.546,0.312,0.871,1.118,0.936l1.027,0.091c1.118,0.104,1.885,0.533,1.885,1.729
		C433.354,68.369,432.301,69.084,430.754,69.084z"/>
</g>
<path fill="none" stroke="#AE1821" stroke-width="0.75" stroke-miterlimit="10" d="M317.769,51.147c0,0-2.835,0-2.835,2.835v20.115
	c0,0,0,2.835,2.835,2.835H447.35c0,0,2.834,0,2.834-2.835V53.982c0,0,0-2.835-2.834-2.835H317.769z"/>
<g>
	<path fill="#262625" d="M332.982,269.454c-1.391,0-2.301-0.352-3.172-1.223l0.676-0.676c0.767,0.768,1.482,1.015,2.522,1.015
		c1.352,0,2.184-0.638,2.184-1.717c0-0.48-0.143-0.896-0.442-1.156c-0.299-0.261-0.533-0.339-1.209-0.442l-1.079-0.169
		c-0.728-0.117-1.3-0.352-1.703-0.702c-0.468-0.416-0.702-0.988-0.702-1.729c0-1.572,1.131-2.612,2.964-2.612
		c1.183,0,1.963,0.299,2.756,1.014l-0.637,0.637c-0.572-0.52-1.183-0.793-2.158-0.793c-1.235,0-1.95,0.689-1.95,1.717
		c0,0.454,0.13,0.818,0.416,1.065s0.767,0.429,1.248,0.507l1.014,0.156c0.871,0.13,1.3,0.312,1.69,0.65
		c0.507,0.429,0.78,1.065,0.78,1.833C336.18,268.453,334.906,269.454,332.982,269.454z"/>
	<path fill="#262625" d="M339.313,266.425c0,1.404,0.663,2.21,1.885,2.21c0.741,0,1.17-0.221,1.677-0.728l0.637,0.559
		c-0.65,0.65-1.248,0.988-2.34,0.988c-1.69,0-2.795-1.014-2.795-3.276c0-2.067,1.001-3.276,2.626-3.276
		c1.651,0,2.626,1.196,2.626,3.095v0.429H339.313z M342.499,264.658c-0.247-0.586-0.819-0.963-1.495-0.963
		c-0.676,0-1.248,0.377-1.495,0.963c-0.143,0.351-0.169,0.546-0.195,1.065h3.38C342.667,265.203,342.641,265.008,342.499,264.658z"
		/>
	<path fill="#262625" d="M346.853,266.425c0,1.404,0.663,2.21,1.885,2.21c0.741,0,1.17-0.221,1.677-0.728l0.637,0.559
		c-0.65,0.65-1.248,0.988-2.34,0.988c-1.69,0-2.795-1.014-2.795-3.276c0-2.067,1.001-3.276,2.626-3.276
		c1.651,0,2.626,1.196,2.626,3.095v0.429H346.853z M350.039,264.658c-0.247-0.586-0.819-0.963-1.495-0.963
		c-0.676,0-1.248,0.377-1.495,0.963c-0.143,0.351-0.169,0.546-0.195,1.065h3.38C350.208,265.203,350.181,265.008,350.039,264.658z"
		/>
	<path fill="#262625" d="M357.436,269.376v-0.611c-0.52,0.521-0.988,0.689-1.846,0.689c-0.884,0-1.404-0.169-1.807-0.585
		c-0.312-0.312-0.481-0.793-0.481-1.3c0-1.118,0.78-1.847,2.21-1.847h1.924v-0.61c0-0.937-0.468-1.404-1.638-1.404
		c-0.819,0-1.235,0.194-1.612,0.728l-0.637-0.585c0.572-0.741,1.222-0.949,2.262-0.949c1.716,0,2.562,0.741,2.562,2.133v4.342
		H357.436z M357.436,266.425h-1.794c-0.962,0-1.43,0.39-1.43,1.131s0.455,1.092,1.469,1.092c0.546,0,1.027-0.038,1.43-0.429
		c0.221-0.208,0.325-0.572,0.325-1.104V266.425z"/>
	<path fill="#262625" d="M362.895,269.376c-1.118,0-1.625-0.729-1.625-1.703v-7.553h0.936v7.514c0,0.624,0.208,0.937,0.858,0.937
		h0.507v0.806H362.895z"/>
	<path fill="#262625" d="M367.822,269.454c-1.079,0-1.924-0.247-2.626-0.923l0.624-0.624c0.507,0.533,1.196,0.74,1.989,0.74
		c1.053,0,1.703-0.377,1.703-1.131c0-0.559-0.325-0.871-1.066-0.936l-1.053-0.091c-1.248-0.104-1.911-0.663-1.911-1.717
		c0-1.17,0.988-1.872,2.353-1.872c0.91,0,1.729,0.222,2.301,0.689l-0.611,0.611c-0.455-0.352-1.04-0.508-1.703-0.508
		c-0.936,0-1.43,0.403-1.43,1.054c0,0.546,0.312,0.871,1.118,0.936l1.027,0.091c1.118,0.104,1.885,0.533,1.885,1.729
		C370.422,268.74,369.369,269.454,367.822,269.454z"/>
	<path fill="#262625" d="M377.013,268.726c-0.442,0.442-1.053,0.729-1.833,0.729c-0.78,0-1.391-0.286-1.833-0.729
		c-0.65-0.663-0.78-1.56-0.78-2.548s0.13-1.885,0.78-2.548c0.442-0.442,1.053-0.729,1.833-0.729c0.78,0,1.391,0.286,1.833,0.729
		c0.65,0.663,0.78,1.56,0.78,2.548S377.663,268.063,377.013,268.726z M376.35,264.202c-0.299-0.3-0.715-0.469-1.17-0.469
		s-0.858,0.169-1.157,0.469c-0.468,0.468-0.52,1.261-0.52,1.976s0.052,1.508,0.52,1.977c0.299,0.299,0.702,0.468,1.157,0.468
		s0.871-0.169,1.17-0.468c0.468-0.469,0.507-1.262,0.507-1.977S376.818,264.67,376.35,264.202z"/>
	<path fill="#262625" d="M389.883,269.376l-0.741-2.093h-4.043l-0.741,2.093h-1.053l3.406-9.256h0.832l3.394,9.256H389.883z
		 M387.14,261.537l-1.742,4.888h3.458L387.14,261.537z"/>
	<path fill="#262625" d="M396.993,269.376v-3.939c0-1.131-0.61-1.703-1.573-1.703c-0.962,0-1.586,0.585-1.586,1.703v3.939h-0.936
		v-6.396h0.936v0.702c0.455-0.52,1.079-0.78,1.794-0.78c0.689,0,1.248,0.208,1.639,0.599c0.455,0.441,0.663,1.04,0.663,1.781v4.095
		H396.993z"/>
	<path fill="#262625" d="M404.481,269.376v-0.611c-0.52,0.521-0.988,0.689-1.846,0.689c-0.885,0-1.404-0.169-1.808-0.585
		c-0.312-0.312-0.48-0.793-0.48-1.3c0-1.118,0.779-1.847,2.21-1.847h1.924v-0.61c0-0.937-0.468-1.404-1.638-1.404
		c-0.819,0-1.235,0.194-1.612,0.728l-0.637-0.585c0.571-0.741,1.222-0.949,2.262-0.949c1.716,0,2.562,0.741,2.562,2.133v4.342
		H404.481z M404.481,266.425h-1.794c-0.962,0-1.43,0.39-1.43,1.131s0.454,1.092,1.469,1.092c0.546,0,1.027-0.038,1.43-0.429
		c0.222-0.208,0.325-0.572,0.325-1.104V266.425z"/>
	<path fill="#262625" d="M409.941,269.376c-1.118,0-1.625-0.729-1.625-1.703v-7.553h0.936v7.514c0,0.624,0.208,0.937,0.858,0.937
		h0.507v0.806H409.941z"/>
	<path fill="#262625" d="M414.127,270.923c-0.13,0.352-0.273,0.585-0.455,0.754c-0.338,0.325-0.793,0.442-1.248,0.442h-0.403v-0.832
		h0.286c0.65,0,0.846-0.208,1.054-0.793l0.454-1.248l-2.301-6.267h1.015l1.755,5.136l1.742-5.136h1.014L414.127,270.923z"/>
	<path fill="#262625" d="M421.017,269.454c-1.079,0-1.924-0.247-2.626-0.923l0.624-0.624c0.507,0.533,1.196,0.74,1.989,0.74
		c1.053,0,1.703-0.377,1.703-1.131c0-0.559-0.325-0.871-1.066-0.936l-1.053-0.091c-1.248-0.104-1.911-0.663-1.911-1.717
		c0-1.17,0.988-1.872,2.354-1.872c0.909,0,1.729,0.222,2.301,0.689l-0.611,0.611c-0.455-0.352-1.04-0.508-1.703-0.508
		c-0.936,0-1.43,0.403-1.43,1.054c0,0.546,0.312,0.871,1.118,0.936l1.026,0.091c1.118,0.104,1.886,0.533,1.886,1.729
		C423.617,268.74,422.563,269.454,421.017,269.454z"/>
	<path fill="#262625" d="M426.048,261.16v-1.053h1.053v1.053H426.048z M426.1,269.376v-6.396h0.937v6.396H426.1z"/>
	<path fill="#262625" d="M432.054,269.454c-1.079,0-1.924-0.247-2.626-0.923l0.624-0.624c0.507,0.533,1.195,0.74,1.988,0.74
		c1.054,0,1.703-0.377,1.703-1.131c0-0.559-0.324-0.871-1.065-0.936l-1.054-0.091c-1.248-0.104-1.91-0.663-1.91-1.717
		c0-1.17,0.987-1.872,2.353-1.872c0.91,0,1.729,0.222,2.301,0.689l-0.61,0.611c-0.455-0.352-1.04-0.508-1.703-0.508
		c-0.937,0-1.431,0.403-1.431,1.054c0,0.546,0.312,0.871,1.118,0.936l1.027,0.091c1.118,0.104,1.885,0.533,1.885,1.729
		C434.653,268.74,433.601,269.454,432.054,269.454z"/>
</g>
<path fill="none" stroke="#AE1821" stroke-width="0.75" stroke-miterlimit="10" d="M317.769,251.518c0,0-2.835,0-2.835,2.835v20.115
	c0,0,0,2.835,2.835,2.835H447.35c0,0,2.834,0,2.834-2.835v-20.115c0,0,0-2.835-2.834-2.835H317.769z"/>
<g>
	<path fill="#262625" d="M269.746,363.29v-4.226h-4.394v4.226h-0.988v-9.256h0.988v4.146h4.394v-4.146h0.988v9.256H269.746z"/>
	<path fill="#262625" d="M277.923,363.29v-0.715c-0.455,0.52-1.092,0.793-1.807,0.793c-0.689,0-1.261-0.208-1.651-0.598
		c-0.455-0.442-0.65-1.054-0.65-1.795v-4.082h0.936v3.939c0,1.131,0.598,1.703,1.56,1.703s1.599-0.585,1.599-1.703v-3.939h0.936
		v6.396H277.923z"/>
	<path fill="#262625" d="M290.052,363.29v-3.939c0-1.131-0.611-1.703-1.573-1.703c-0.936,0-1.599,0.585-1.599,1.6v4.043h-0.936
		v-3.939c0-1.131-0.611-1.703-1.573-1.703s-1.599,0.585-1.599,1.703v3.939h-0.936v-6.396h0.936v0.702
		c0.455-0.52,1.092-0.78,1.807-0.78c0.884,0,1.573,0.364,1.963,1.066c0.494-0.702,1.209-1.066,2.106-1.066
		c0.689,0,1.261,0.222,1.651,0.599c0.455,0.441,0.689,1.04,0.689,1.781v4.095H290.052z"/>
	<path fill="#262625" d="M297.54,363.29v-0.611c-0.52,0.521-0.988,0.689-1.846,0.689c-0.884,0-1.404-0.169-1.807-0.585
		c-0.312-0.312-0.481-0.793-0.481-1.3c0-1.118,0.78-1.847,2.21-1.847h1.924v-0.61c0-0.937-0.468-1.404-1.638-1.404
		c-0.819,0-1.235,0.194-1.612,0.728l-0.637-0.585c0.572-0.741,1.222-0.949,2.262-0.949c1.716,0,2.562,0.741,2.562,2.133v4.342
		H297.54z M297.54,360.339h-1.794c-0.962,0-1.43,0.39-1.43,1.131s0.455,1.092,1.469,1.092c0.546,0,1.027-0.038,1.43-0.429
		c0.221-0.208,0.325-0.572,0.325-1.104V360.339z"/>
	<path fill="#262625" d="M305.496,363.29v-3.939c0-1.131-0.611-1.703-1.573-1.703c-0.962,0-1.586,0.585-1.586,1.703v3.939H301.4
		v-6.396h0.936v0.702c0.455-0.52,1.079-0.78,1.794-0.78c0.689,0,1.248,0.208,1.638,0.599c0.455,0.441,0.663,1.04,0.663,1.781v4.095
		H305.496z"/>
	<path fill="#262625" d="M318.782,363.29v-4.226h-4.394v4.226h-0.988v-9.256h0.988v4.146h4.394v-4.146h0.988v9.256H318.782z"/>
	<path fill="#262625" d="M323.513,360.339c0,1.404,0.663,2.21,1.885,2.21c0.741,0,1.17-0.221,1.677-0.728l0.637,0.559
		c-0.65,0.65-1.248,0.988-2.34,0.988c-1.69,0-2.795-1.014-2.795-3.276c0-2.067,1.001-3.276,2.626-3.276
		c1.651,0,2.626,1.196,2.626,3.095v0.429H323.513z M326.699,358.572c-0.247-0.586-0.819-0.963-1.495-0.963
		c-0.676,0-1.248,0.377-1.495,0.963c-0.143,0.351-0.169,0.546-0.195,1.065h3.38C326.868,359.118,326.841,358.922,326.699,358.572z"
		/>
	<path fill="#262625" d="M334.096,363.29v-0.611c-0.52,0.521-0.988,0.689-1.846,0.689c-0.884,0-1.404-0.169-1.807-0.585
		c-0.312-0.312-0.481-0.793-0.481-1.3c0-1.118,0.78-1.847,2.21-1.847h1.924v-0.61c0-0.937-0.468-1.404-1.638-1.404
		c-0.819,0-1.235,0.194-1.612,0.728l-0.637-0.585c0.572-0.741,1.222-0.949,2.262-0.949c1.716,0,2.562,0.741,2.562,2.133v4.342
		H334.096z M334.096,360.339h-1.794c-0.962,0-1.43,0.39-1.43,1.131s0.455,1.092,1.469,1.092c0.546,0,1.027-0.038,1.43-0.429
		c0.221-0.208,0.325-0.572,0.325-1.104V360.339z"/>
	<path fill="#262625" d="M339.555,363.29c-1.118,0-1.625-0.729-1.625-1.703v-7.553h0.936v7.514c0,0.624,0.208,0.937,0.858,0.937
		h0.507v0.806H339.555z"/>
	<path fill="#262625" d="M344.261,363.29c-1.092,0-1.638-0.767-1.638-1.716v-3.927h-0.806v-0.715h0.806v-2.002h0.936v2.002h1.365
		v0.715h-1.365v3.9c0,0.585,0.273,0.937,0.871,0.937h0.494v0.806H344.261z"/>
	<path fill="#262625" d="M351.528,363.29v-3.952c0-1.118-0.598-1.69-1.56-1.69s-1.599,0.585-1.599,1.69v3.952h-0.936v-9.256h0.936
		v3.562c0.468-0.533,1.079-0.78,1.794-0.78c1.443,0,2.301,0.924,2.301,2.366v4.108H351.528z"/>
</g>
<path fill="none" stroke="#AE1821" stroke-width="0.75" stroke-miterlimit="10" d="M243.769,345.432c0,0-2.835,0-2.835,2.835v20.115
	c0,0,0,2.835,2.835,2.835H373.35c0,0,2.834,0,2.834-2.835v-20.115c0,0,0-2.835-2.834-2.835H243.769z"/>
<g>
	<path fill="#BAA494" d="M315.341,94.279h-0.781l3.135-9.462h0.781L315.341,94.279z"/>
	<path fill="#BAA494" d="M326.023,93.464v-5.952l-2.145,4.72h-0.715l-2.178-4.72v5.952h-0.836v-7.833h0.836l2.552,5.556l2.486-5.556
		h0.836v7.833H326.023z"/>
	<path fill="#BAA494" d="M329.476,86.511V85.62h0.891v0.891H329.476z M329.52,93.464v-5.413h0.792v5.413H329.52z"/>
	<path fill="#BAA494" d="M334.206,93.464c-0.946,0-1.375-0.616-1.375-1.441v-6.392h0.792v6.358c0,0.528,0.176,0.793,0.726,0.793
		h0.429v0.682H334.206z"/>
	<path fill="#BAA494" d="M340.224,93.464l-1.716-2.772l-1.056,1.21v1.562h-0.792v-7.833h0.792v5.236l2.442-2.816h0.99l-1.837,2.068
		l2.156,3.345H340.224z"/>
</g>
<g>
	<path fill="#BAA494" d="M315.341,109.283h-0.781l3.135-9.462h0.781L315.341,109.283z"/>
	<path fill="#BAA494" d="M325.143,108.468l-4.159-6.282v6.282h-0.836v-7.833h0.792l4.159,6.26v-6.26h0.836v7.833H325.143z"/>
	<path fill="#BAA494" d="M332.018,108.468v-0.605c-0.385,0.44-0.924,0.672-1.529,0.672c-0.583,0-1.067-0.177-1.397-0.507
		c-0.385-0.374-0.55-0.891-0.55-1.518v-3.455h0.792v3.334c0,0.957,0.506,1.441,1.32,1.441s1.353-0.495,1.353-1.441v-3.334h0.792
		v5.413H332.018z"/>
	<path fill="#BAA494" d="M336.846,108.468c-0.924,0-1.386-0.649-1.386-1.452v-3.322h-0.682v-0.605h0.682v-1.694h0.792v1.694h1.155
		v0.605h-1.155v3.3c0,0.495,0.231,0.793,0.737,0.793h0.418v0.682H336.846z"/>
	<path fill="#BAA494" d="M342.555,104.089c-0.297-0.297-0.517-0.396-0.935-0.396c-0.792,0-1.298,0.627-1.298,1.452v3.322h-0.792
		v-5.413h0.792v0.66c0.297-0.451,0.891-0.726,1.518-0.726c0.517,0,0.913,0.121,1.298,0.506L342.555,104.089z"/>
	<path fill="#BAA494" d="M344.667,101.515v-0.891h0.891v0.891H344.667z M344.711,108.468v-5.413h0.792v5.413H344.711z"/>
	<path fill="#BAA494" d="M348.539,105.971c0,1.188,0.561,1.87,1.595,1.87c0.627,0,0.99-0.188,1.419-0.616l0.539,0.473
		c-0.55,0.551-1.056,0.837-1.98,0.837c-1.43,0-2.366-0.858-2.366-2.772c0-1.75,0.847-2.772,2.223-2.772
		c1.397,0,2.222,1.012,2.222,2.618v0.363H348.539z M351.234,104.475c-0.209-0.495-0.693-0.814-1.265-0.814
		c-0.572,0-1.056,0.319-1.265,0.814c-0.121,0.297-0.143,0.462-0.165,0.901h2.86C351.377,104.937,351.355,104.772,351.234,104.475z"
		/>
	<path fill="#BAA494" d="M357.878,108.468v-3.333c0-0.958-0.517-1.441-1.331-1.441s-1.342,0.495-1.342,1.441v3.333h-0.792v-5.413
		h0.792v0.595c0.385-0.44,0.913-0.66,1.518-0.66c0.583,0,1.056,0.176,1.386,0.506c0.385,0.374,0.561,0.88,0.561,1.507v3.466H357.878
		z"/>
	<path fill="#BAA494" d="M362.663,108.468c-0.924,0-1.386-0.649-1.386-1.452v-3.322h-0.682v-0.605h0.682v-1.694h0.792v1.694h1.155
		v0.605h-1.155v3.3c0,0.495,0.231,0.793,0.737,0.793h0.418v0.682H362.663z"/>
</g>
<g>
	<path fill="#BAA494" d="M315.341,124.286h-0.781l3.135-9.462h0.781L315.341,124.286z"/>
	<path fill="#BAA494" d="M324.813,122.745c-0.473,0.474-1.166,0.727-1.98,0.727h-2.684v-7.833h2.684c0.814,0,1.507,0.253,1.98,0.726
		c0.814,0.814,0.77,2.014,0.77,3.103C325.583,120.557,325.627,121.932,324.813,122.745z M324.23,116.959
		c-0.407-0.418-0.935-0.572-1.541-0.572h-1.705v6.337h1.705c0.605,0,1.133-0.154,1.541-0.572c0.539-0.561,0.517-1.728,0.517-2.685
		S324.769,117.52,324.23,116.959z"/>
	<path fill="#BAA494" d="M327.914,116.519v-0.891h0.891v0.891H327.914z M327.958,123.472v-5.413h0.792v5.413H327.958z"/>
	<path fill="#BAA494" d="M332.996,123.538c-0.913,0-1.628-0.209-2.222-0.781l0.528-0.528c0.429,0.451,1.012,0.627,1.684,0.627
		c0.891,0,1.441-0.319,1.441-0.957c0-0.473-0.275-0.737-0.902-0.792l-0.891-0.077c-1.056-0.088-1.617-0.562-1.617-1.452
		c0-0.99,0.836-1.584,1.991-1.584c0.77,0,1.463,0.187,1.947,0.583l-0.517,0.517c-0.385-0.297-0.88-0.429-1.441-0.429
		c-0.792,0-1.21,0.341-1.21,0.891c0,0.463,0.264,0.737,0.946,0.793l0.869,0.076c0.946,0.089,1.595,0.451,1.595,1.464
		C335.196,122.933,334.305,123.538,332.996,123.538z"/>
	<path fill="#BAA494" d="M337.792,120.975c0,1.188,0.561,1.87,1.595,1.87c0.627,0,0.99-0.188,1.419-0.616l0.539,0.473
		c-0.55,0.551-1.056,0.837-1.98,0.837c-1.43,0-2.366-0.858-2.366-2.772c0-1.75,0.847-2.772,2.223-2.772
		c1.397,0,2.222,1.012,2.222,2.618v0.363H337.792z M340.487,119.479c-0.209-0.495-0.693-0.814-1.265-0.814
		c-0.572,0-1.056,0.319-1.265,0.814c-0.121,0.297-0.143,0.462-0.165,0.901h2.86C340.63,119.941,340.608,119.776,340.487,119.479z"/>
	<path fill="#BAA494" d="M346.746,123.472v-0.517c-0.44,0.439-0.836,0.583-1.562,0.583c-0.749,0-1.188-0.144-1.529-0.495
		c-0.264-0.265-0.407-0.672-0.407-1.101c0-0.946,0.66-1.562,1.87-1.562h1.628v-0.517c0-0.792-0.396-1.188-1.386-1.188
		c-0.693,0-1.045,0.165-1.364,0.616l-0.539-0.495c0.484-0.627,1.034-0.803,1.915-0.803c1.452,0,2.167,0.627,2.167,1.804v3.675
		H346.746z M346.746,120.975h-1.518c-0.814,0-1.21,0.33-1.21,0.957s0.385,0.924,1.243,0.924c0.462,0,0.869-0.033,1.21-0.363
		c0.187-0.176,0.275-0.483,0.275-0.935V120.975z"/>
	<path fill="#BAA494" d="M351.718,123.538c-0.913,0-1.628-0.209-2.222-0.781l0.528-0.528c0.429,0.451,1.012,0.627,1.684,0.627
		c0.891,0,1.441-0.319,1.441-0.957c0-0.473-0.275-0.737-0.902-0.792l-0.891-0.077c-1.056-0.088-1.617-0.562-1.617-1.452
		c0-0.99,0.836-1.584,1.991-1.584c0.77,0,1.463,0.187,1.947,0.583l-0.517,0.517c-0.385-0.297-0.88-0.429-1.441-0.429
		c-0.792,0-1.21,0.341-1.21,0.891c0,0.463,0.264,0.737,0.946,0.793l0.869,0.076c0.946,0.089,1.595,0.451,1.595,1.464
		C353.918,122.933,353.027,123.538,351.718,123.538z"/>
	<path fill="#BAA494" d="M356.514,120.975c0,1.188,0.561,1.87,1.595,1.87c0.627,0,0.99-0.188,1.419-0.616l0.539,0.473
		c-0.55,0.551-1.056,0.837-1.98,0.837c-1.43,0-2.366-0.858-2.366-2.772c0-1.75,0.847-2.772,2.223-2.772
		c1.397,0,2.222,1.012,2.222,2.618v0.363H356.514z M359.209,119.479c-0.209-0.495-0.693-0.814-1.265-0.814
		c-0.572,0-1.056,0.319-1.265,0.814c-0.121,0.297-0.143,0.462-0.165,0.901h2.86C359.352,119.941,359.33,119.776,359.209,119.479z"/>
</g>
<g>
	<path fill="#BAA494" d="M315.341,139.29h-0.781l3.135-9.462h0.781L315.341,139.29z"/>
	<path fill="#BAA494" d="M323.064,135.252h-2.08v3.224h-0.836v-7.833h2.916c1.43,0,2.42,0.891,2.42,2.299
		S324.494,135.252,323.064,135.252z M322.987,131.391h-2.002v3.113h2.002c0.979,0,1.661-0.528,1.661-1.562
		S323.966,131.391,322.987,131.391z"/>
	<path fill="#BAA494" d="M330.951,138.476v-3.345c0-0.946-0.506-1.43-1.32-1.43c-0.814,0-1.353,0.495-1.353,1.43v3.345h-0.792
		v-7.833h0.792v3.015c0.396-0.451,0.913-0.66,1.518-0.66c1.221,0,1.947,0.781,1.947,2.002v3.477H330.951z"/>
	<path fill="#BAA494" d="M335.56,139.785c-0.11,0.297-0.231,0.495-0.385,0.638c-0.286,0.275-0.671,0.374-1.056,0.374h-0.341v-0.704
		h0.242c0.55,0,0.715-0.176,0.891-0.671l0.385-1.057l-1.947-5.303h0.858l1.485,4.346l1.474-4.346h0.858L335.56,139.785z"/>
	<path fill="#BAA494" d="M341.389,138.542c-0.913,0-1.628-0.209-2.222-0.781l0.528-0.528c0.429,0.451,1.012,0.627,1.684,0.627
		c0.891,0,1.441-0.319,1.441-0.957c0-0.473-0.275-0.737-0.902-0.792l-0.891-0.077c-1.056-0.088-1.617-0.562-1.617-1.452
		c0-0.99,0.836-1.584,1.991-1.584c0.77,0,1.463,0.187,1.947,0.583l-0.517,0.517c-0.385-0.297-0.88-0.429-1.441-0.429
		c-0.792,0-1.21,0.341-1.21,0.891c0,0.463,0.264,0.737,0.946,0.793l0.869,0.076c0.946,0.089,1.595,0.451,1.595,1.464
		C343.589,137.937,342.698,138.542,341.389,138.542z"/>
	<path fill="#BAA494" d="M345.646,131.523v-0.891h0.891v0.891H345.646z M345.69,138.476v-5.413h0.792v5.413H345.69z"/>
	<path fill="#BAA494" d="M351.124,138.542c-1.364,0-2.398-0.925-2.398-2.772c0-1.849,1.034-2.772,2.398-2.772
		c0.748,0,1.221,0.197,1.782,0.803l-0.539,0.506c-0.407-0.451-0.726-0.604-1.243-0.604c-0.528,0-0.968,0.209-1.254,0.616
		c-0.253,0.352-0.352,0.77-0.352,1.452c0,0.682,0.099,1.1,0.352,1.452c0.286,0.407,0.726,0.616,1.254,0.616
		c0.517,0,0.836-0.165,1.243-0.616l0.539,0.517C352.345,138.344,351.872,138.542,351.124,138.542z"/>
	<path fill="#BAA494" d="M357.9,138.476v-0.517c-0.44,0.439-0.836,0.583-1.562,0.583c-0.749,0-1.188-0.144-1.529-0.495
		c-0.264-0.265-0.407-0.672-0.407-1.101c0-0.946,0.66-1.562,1.87-1.562h1.628v-0.517c0-0.792-0.396-1.188-1.386-1.188
		c-0.693,0-1.045,0.165-1.364,0.616l-0.539-0.495c0.484-0.627,1.034-0.803,1.915-0.803c1.452,0,2.167,0.627,2.167,1.804v3.675H357.9
		z M357.9,135.979h-1.518c-0.814,0-1.21,0.33-1.21,0.957s0.385,0.924,1.243,0.924c0.462,0,0.869-0.033,1.21-0.363
		c0.187-0.176,0.275-0.483,0.275-0.935V135.979z"/>
	<path fill="#BAA494" d="M362.52,138.476c-0.946,0-1.375-0.616-1.375-1.441v-6.392h0.792v6.358c0,0.528,0.176,0.793,0.726,0.793
		h0.429v0.682H362.52z"/>
	<path fill="#BAA494" d="M369.218,133.701v4.774h-0.792v-4.774h-0.693v-0.605h0.693v-1.023c0-0.803,0.451-1.452,1.375-1.452h0.572
		v0.683h-0.429c-0.506,0-0.726,0.297-0.726,0.792v1.001h1.155v0.605H369.218z M371.605,131.446v-0.813h0.902v0.813H371.605z
		 M371.661,138.476v-5.38h0.792v5.38H371.661z"/>
	<path fill="#BAA494" d="M376.511,138.476c-0.924,0-1.386-0.649-1.386-1.452v-3.322h-0.682v-0.605h0.682v-1.694h0.792v1.694h1.155
		v0.605h-1.155v3.3c0,0.495,0.231,0.793,0.737,0.793h0.418v0.682H376.511z"/>
	<path fill="#BAA494" d="M382.661,138.476v-3.333c0-0.958-0.517-1.441-1.331-1.441s-1.342,0.495-1.342,1.441v3.333h-0.792v-5.413
		h0.792v0.595c0.385-0.44,0.913-0.66,1.518-0.66c0.583,0,1.056,0.176,1.386,0.506c0.385,0.374,0.561,0.88,0.561,1.507v3.466H382.661
		z"/>
	<path fill="#BAA494" d="M386.422,135.979c0,1.188,0.562,1.87,1.596,1.87c0.627,0,0.99-0.188,1.419-0.616l0.539,0.473
		c-0.55,0.551-1.057,0.837-1.98,0.837c-1.43,0-2.365-0.858-2.365-2.772c0-1.75,0.847-2.772,2.223-2.772
		c1.396,0,2.222,1.012,2.222,2.618v0.363H386.422z M389.117,134.483c-0.209-0.495-0.693-0.814-1.265-0.814
		c-0.572,0-1.057,0.319-1.266,0.814c-0.121,0.297-0.143,0.462-0.165,0.901h2.86C389.261,134.945,389.238,134.78,389.117,134.483z"/>
	<path fill="#BAA494" d="M394.012,138.542c-0.913,0-1.628-0.209-2.222-0.781l0.527-0.528c0.43,0.451,1.013,0.627,1.684,0.627
		c0.892,0,1.441-0.319,1.441-0.957c0-0.473-0.275-0.737-0.902-0.792l-0.891-0.077c-1.057-0.088-1.617-0.562-1.617-1.452
		c0-0.99,0.836-1.584,1.991-1.584c0.77,0,1.463,0.187,1.947,0.583l-0.518,0.517c-0.385-0.297-0.88-0.429-1.441-0.429
		c-0.792,0-1.21,0.341-1.21,0.891c0,0.463,0.264,0.737,0.946,0.793l0.869,0.076c0.946,0.089,1.595,0.451,1.595,1.464
		C396.212,137.937,395.321,138.542,394.012,138.542z"/>
	<path fill="#BAA494" d="M399.842,138.542c-0.913,0-1.628-0.209-2.222-0.781l0.527-0.528c0.43,0.451,1.013,0.627,1.684,0.627
		c0.892,0,1.441-0.319,1.441-0.957c0-0.473-0.275-0.737-0.902-0.792l-0.891-0.077c-1.057-0.088-1.617-0.562-1.617-1.452
		c0-0.99,0.836-1.584,1.991-1.584c0.77,0,1.463,0.187,1.947,0.583l-0.518,0.517c-0.385-0.297-0.88-0.429-1.441-0.429
		c-0.792,0-1.21,0.341-1.21,0.891c0,0.463,0.264,0.737,0.946,0.793l0.869,0.076c0.946,0.089,1.595,0.451,1.595,1.464
		C402.042,137.937,401.151,138.542,399.842,138.542z"/>
</g>
<g>
	<path fill="#BAA494" d="M315.341,154.294h-0.781l3.135-9.462h0.781L315.341,154.294z"/>
	<path fill="#BAA494" d="M323.196,153.48h-3.047v-7.833h2.948c1.364,0,2.311,0.781,2.311,2.09c0,0.825-0.495,1.475-1.155,1.717
		c0.748,0.274,1.276,0.924,1.276,1.859C325.528,152.732,324.582,153.48,323.196,153.48z M323.031,146.395h-2.046v2.718h2.046
		c0.869,0,1.54-0.43,1.54-1.364C324.571,146.813,323.9,146.395,323.031,146.395z M323.119,149.861h-2.134v2.871h2.134
		c0.968,0,1.573-0.562,1.573-1.441S324.087,149.861,323.119,149.861z"/>
	<path fill="#BAA494" d="M331.369,152.93c-0.374,0.374-0.891,0.616-1.551,0.616s-1.177-0.242-1.551-0.616
		c-0.55-0.562-0.66-1.32-0.66-2.156c0-0.837,0.11-1.596,0.66-2.156c0.374-0.374,0.891-0.616,1.551-0.616s1.177,0.242,1.551,0.616
		c0.55,0.561,0.66,1.319,0.66,2.156C332.029,151.61,331.918,152.368,331.369,152.93z M330.808,149.101
		c-0.253-0.253-0.605-0.396-0.99-0.396c-0.385,0-0.726,0.143-0.979,0.396c-0.396,0.396-0.44,1.067-0.44,1.673
		c0,0.604,0.044,1.275,0.44,1.672c0.253,0.253,0.594,0.396,0.979,0.396c0.385,0,0.737-0.144,0.99-0.396
		c0.396-0.396,0.429-1.067,0.429-1.672C331.236,150.168,331.204,149.497,330.808,149.101z"/>
	<path fill="#BAA494" d="M335.977,153.48h-0.704l-1.98-5.413h0.858l1.474,4.346l1.485-4.346h0.858L335.977,153.48z"/>
	<path fill="#BAA494" d="M339.585,146.527v-0.891h0.891v0.891H339.585z M339.629,153.48v-5.413h0.792v5.413H339.629z"/>
	<path fill="#BAA494" d="M346.427,153.48v-3.333c0-0.958-0.517-1.441-1.331-1.441s-1.342,0.495-1.342,1.441v3.333h-0.792v-5.413
		h0.792v0.595c0.385-0.44,0.913-0.66,1.518-0.66c0.583,0,1.056,0.176,1.386,0.506c0.385,0.374,0.561,0.88,0.561,1.507v3.466H346.427
		z"/>
	<path fill="#BAA494" d="M350.189,150.983c0,1.188,0.561,1.87,1.595,1.87c0.627,0,0.99-0.188,1.419-0.616l0.539,0.473
		c-0.55,0.551-1.056,0.837-1.98,0.837c-1.43,0-2.366-0.858-2.366-2.772c0-1.75,0.847-2.772,2.223-2.772
		c1.397,0,2.222,1.012,2.222,2.618v0.363H350.189z M352.884,149.487c-0.209-0.495-0.693-0.814-1.265-0.814
		c-0.572,0-1.056,0.319-1.265,0.814c-0.121,0.297-0.143,0.462-0.165,0.901h2.86C353.027,149.949,353.005,149.784,352.884,149.487z"
		/>
	<path fill="#BAA494" d="M361.046,153.546c-0.913,0-1.628-0.209-2.222-0.781l0.528-0.528c0.429,0.451,1.012,0.627,1.684,0.627
		c0.891,0,1.441-0.319,1.441-0.957c0-0.473-0.275-0.737-0.902-0.792l-0.891-0.077c-1.056-0.088-1.617-0.562-1.617-1.452
		c0-0.99,0.836-1.584,1.991-1.584c0.77,0,1.463,0.187,1.947,0.583l-0.517,0.517c-0.385-0.297-0.88-0.429-1.441-0.429
		c-0.792,0-1.21,0.341-1.21,0.891c0,0.463,0.264,0.737,0.946,0.793l0.869,0.076c0.946,0.089,1.595,0.451,1.595,1.464
		C363.246,152.941,362.355,153.546,361.046,153.546z"/>
	<path fill="#BAA494" d="M368.823,152.93c-0.374,0.374-0.891,0.616-1.551,0.616s-1.177-0.242-1.551-0.616
		c-0.55-0.562-0.66-1.32-0.66-2.156c0-0.837,0.11-1.596,0.66-2.156c0.374-0.374,0.891-0.616,1.551-0.616s1.177,0.242,1.551,0.616
		c0.55,0.561,0.66,1.319,0.66,2.156C369.483,151.61,369.373,152.368,368.823,152.93z M368.262,149.101
		c-0.253-0.253-0.605-0.396-0.99-0.396c-0.385,0-0.726,0.143-0.979,0.396c-0.396,0.396-0.44,1.067-0.44,1.673
		c0,0.604,0.044,1.275,0.44,1.672c0.253,0.253,0.594,0.396,0.979,0.396c0.385,0,0.737-0.144,0.99-0.396
		c0.396-0.396,0.429-1.067,0.429-1.672C368.691,150.168,368.658,149.497,368.262,149.101z"/>
	<path fill="#BAA494" d="M378.68,153.48v-3.333c0-0.958-0.517-1.441-1.332-1.441c-0.792,0-1.353,0.495-1.353,1.353v3.422h-0.792
		v-3.333c0-0.958-0.517-1.441-1.332-1.441c-0.814,0-1.353,0.495-1.353,1.441v3.333h-0.792v-5.413h0.792v0.595
		c0.385-0.44,0.924-0.66,1.529-0.66c0.748,0,1.331,0.308,1.661,0.902c0.418-0.595,1.023-0.902,1.782-0.902
		c0.583,0,1.067,0.187,1.397,0.506c0.385,0.374,0.583,0.88,0.583,1.507v3.466H378.68z"/>
	<path fill="#BAA494" d="M385.015,153.48v-0.517c-0.439,0.439-0.835,0.583-1.562,0.583c-0.749,0-1.188-0.144-1.529-0.495
		c-0.264-0.265-0.407-0.672-0.407-1.101c0-0.946,0.66-1.562,1.87-1.562h1.628v-0.517c0-0.792-0.396-1.188-1.386-1.188
		c-0.693,0-1.045,0.165-1.364,0.616l-0.539-0.495c0.484-0.627,1.034-0.803,1.915-0.803c1.452,0,2.167,0.627,2.167,1.804v3.675
		H385.015z M385.015,150.983h-1.518c-0.814,0-1.21,0.33-1.21,0.957s0.385,0.924,1.243,0.924c0.462,0,0.869-0.033,1.21-0.363
		c0.187-0.176,0.274-0.483,0.274-0.935V150.983z"/>
	<path fill="#BAA494" d="M389.8,153.48c-0.925,0-1.387-0.649-1.387-1.452v-3.322h-0.682V148.1h0.682v-1.694h0.792v1.694h1.155v0.605
		h-1.155v3.3c0,0.495,0.231,0.793,0.737,0.793h0.418v0.682H389.8z"/>
	<path fill="#BAA494" d="M395.872,152.93c-0.374,0.374-0.892,0.616-1.552,0.616s-1.177-0.242-1.551-0.616
		c-0.551-0.562-0.66-1.32-0.66-2.156c0-0.837,0.109-1.596,0.66-2.156c0.374-0.374,0.891-0.616,1.551-0.616s1.178,0.242,1.552,0.616
		c0.55,0.561,0.66,1.319,0.66,2.156C396.532,151.61,396.422,152.368,395.872,152.93z M395.311,149.101
		c-0.253-0.253-0.605-0.396-0.99-0.396s-0.726,0.143-0.979,0.396c-0.396,0.396-0.439,1.067-0.439,1.673
		c0,0.604,0.044,1.275,0.439,1.672c0.254,0.253,0.595,0.396,0.979,0.396s0.737-0.144,0.99-0.396
		c0.396-0.396,0.429-1.067,0.429-1.672C395.739,150.168,395.707,149.497,395.311,149.101z"/>
	<path fill="#BAA494" d="M400.293,153.48c-0.924,0-1.386-0.649-1.386-1.452v-3.322h-0.683V148.1h0.683v-1.694h0.792v1.694h1.155
		v0.605h-1.155v3.3c0,0.495,0.231,0.793,0.737,0.793h0.418v0.682H400.293z"/>
	<path fill="#BAA494" d="M406.002,149.101c-0.297-0.297-0.517-0.396-0.935-0.396c-0.793,0-1.299,0.627-1.299,1.452v3.322h-0.792
		v-5.413h0.792v0.66c0.297-0.451,0.892-0.726,1.519-0.726c0.517,0,0.913,0.121,1.298,0.506L406.002,149.101z"/>
	<path fill="#BAA494" d="M411.261,152.93c-0.374,0.374-0.892,0.616-1.552,0.616s-1.177-0.242-1.551-0.616
		c-0.551-0.562-0.66-1.32-0.66-2.156c0-0.837,0.109-1.596,0.66-2.156c0.374-0.374,0.891-0.616,1.551-0.616s1.178,0.242,1.552,0.616
		c0.55,0.561,0.66,1.319,0.66,2.156C411.921,151.61,411.811,152.368,411.261,152.93z M410.699,149.101
		c-0.253-0.253-0.605-0.396-0.99-0.396s-0.726,0.143-0.979,0.396c-0.396,0.396-0.439,1.067-0.439,1.673
		c0,0.604,0.044,1.275,0.439,1.672c0.254,0.253,0.595,0.396,0.979,0.396s0.737-0.144,0.99-0.396
		c0.396-0.396,0.429-1.067,0.429-1.672C411.128,150.168,411.096,149.497,410.699,149.101z"/>
	<path fill="#BAA494" d="M417.806,153.073c-0.286,0.286-0.771,0.474-1.32,0.474c-0.595,0-1.09-0.144-1.529-0.704v3.058h-0.792
		v-7.833h0.792v0.639c0.439-0.572,0.935-0.704,1.529-0.704c0.55,0,1.034,0.187,1.32,0.473c0.55,0.55,0.66,1.452,0.66,2.3
		C418.466,151.62,418.355,152.523,417.806,153.073z M416.32,148.705c-1.178,0-1.364,1.012-1.364,2.068
		c0,1.056,0.187,2.068,1.364,2.068c1.177,0,1.353-1.013,1.353-2.068C417.673,149.717,417.497,148.705,416.32,148.705z"/>
	<path fill="#BAA494" d="M420.665,146.527v-0.891h0.891v0.891H420.665z M420.709,153.48v-5.413h0.792v5.413H420.709z"/>
	<path fill="#BAA494" d="M427.507,153.48v-3.333c0-0.958-0.517-1.441-1.331-1.441c-0.813,0-1.342,0.495-1.342,1.441v3.333h-0.792
		v-5.413h0.792v0.595c0.385-0.44,0.913-0.66,1.518-0.66c0.584,0,1.057,0.176,1.387,0.506c0.385,0.374,0.561,0.88,0.561,1.507v3.466
		H427.507z"/>
</g>
<g>
	<path fill="#BAA494" d="M315.341,169.298h-0.781l3.135-9.462h0.781L315.341,169.298z"/>
	<path fill="#BAA494" d="M323.064,165.26h-2.08v3.224h-0.836v-7.833h2.916c1.43,0,2.42,0.891,2.42,2.299
		S324.494,165.26,323.064,165.26z M322.987,161.399h-2.002v3.113h2.002c0.979,0,1.661-0.528,1.661-1.562
		S323.966,161.399,322.987,161.399z"/>
	<path fill="#BAA494" d="M328.838,168.484c-0.946,0-1.375-0.616-1.375-1.441v-6.392h0.792v6.358c0,0.528,0.176,0.793,0.726,0.793
		h0.429v0.682H328.838z"/>
	<path fill="#BAA494" d="M334.372,168.484v-0.517c-0.44,0.439-0.836,0.583-1.562,0.583c-0.749,0-1.188-0.144-1.529-0.495
		c-0.264-0.265-0.407-0.672-0.407-1.101c0-0.946,0.66-1.562,1.87-1.562h1.628v-0.517c0-0.792-0.396-1.188-1.386-1.188
		c-0.693,0-1.045,0.165-1.364,0.616l-0.539-0.495c0.484-0.627,1.034-0.803,1.915-0.803c1.452,0,2.167,0.627,2.167,1.804v3.675
		H334.372z M334.372,165.987h-1.518c-0.814,0-1.21,0.33-1.21,0.957s0.385,0.924,1.243,0.924c0.462,0,0.869-0.033,1.21-0.363
		c0.187-0.176,0.275-0.483,0.275-0.935V165.987z"/>
	<path fill="#BAA494" d="M341.104,168.484v-3.333c0-0.958-0.517-1.441-1.331-1.441s-1.342,0.495-1.342,1.441v3.333h-0.792v-5.413
		h0.792v0.595c0.385-0.44,0.913-0.66,1.518-0.66c0.583,0,1.056,0.176,1.386,0.506c0.385,0.374,0.561,0.88,0.561,1.507v3.466H341.104
		z"/>
	<path fill="#BAA494" d="M345.888,168.484c-0.924,0-1.386-0.649-1.386-1.452v-3.322h-0.682v-0.605h0.682v-1.694h0.792v1.694h1.155
		v0.605h-1.155v3.3c0,0.495,0.231,0.793,0.737,0.793h0.418v0.682H345.888z"/>
	<path fill="#BAA494" d="M358.803,168.484v-3.333c0-0.958-0.517-1.441-1.332-1.441c-0.792,0-1.353,0.495-1.353,1.353v3.422h-0.792
		v-3.333c0-0.958-0.517-1.441-1.332-1.441c-0.814,0-1.353,0.495-1.353,1.441v3.333h-0.792v-5.413h0.792v0.595
		c0.385-0.44,0.924-0.66,1.529-0.66c0.748,0,1.331,0.308,1.661,0.902c0.418-0.595,1.023-0.902,1.782-0.902
		c0.583,0,1.067,0.187,1.397,0.506c0.385,0.374,0.583,0.88,0.583,1.507v3.466H358.803z"/>
	<path fill="#BAA494" d="M362.014,161.531v-0.891h0.891v0.891H362.014z M362.058,168.484v-5.413h0.792v5.413H362.058z"/>
	<path fill="#BAA494" d="M366.744,168.484c-0.946,0-1.375-0.616-1.375-1.441v-6.392h0.792v6.358c0,0.528,0.176,0.793,0.726,0.793
		h0.429v0.682H366.744z"/>
	<path fill="#BAA494" d="M372.772,168.484l-1.716-2.772l-1.056,1.21v1.562h-0.792v-7.833H370v5.236l2.442-2.816h0.99l-1.837,2.068
		l2.156,3.345H372.772z"/>
</g>
<g>
	<path fill="#BAA494" d="M315.341,184.302h-0.781l3.135-9.462h0.781L315.341,184.302z"/>
	<path fill="#BAA494" d="M326.023,183.488v-5.952l-2.145,4.72h-0.715l-2.178-4.72v5.952h-0.836v-7.833h0.836l2.552,5.556
		l2.486-5.556h0.836v7.833H326.023z"/>
	<path fill="#BAA494" d="M329.476,176.535v-0.891h0.891v0.891H329.476z M329.52,183.488v-5.413h0.792v5.413H329.52z"/>
	<path fill="#BAA494" d="M334.206,183.488c-0.946,0-1.375-0.616-1.375-1.441v-6.392h0.792v6.358c0,0.528,0.176,0.793,0.726,0.793
		h0.429v0.682H334.206z"/>
	<path fill="#BAA494" d="M340.224,183.488l-1.716-2.772l-1.056,1.21v1.562h-0.792v-7.833h0.792v5.236l2.442-2.816h0.99l-1.837,2.068
		l2.156,3.345H340.224z"/>
	<path fill="#BAA494" d="M348.099,183.554c-0.913,0-1.628-0.209-2.222-0.781l0.528-0.528c0.429,0.451,1.012,0.627,1.684,0.627
		c0.891,0,1.441-0.319,1.441-0.957c0-0.473-0.275-0.737-0.902-0.792l-0.891-0.077c-1.056-0.088-1.617-0.562-1.617-1.452
		c0-0.99,0.836-1.584,1.991-1.584c0.77,0,1.463,0.187,1.947,0.583l-0.517,0.517c-0.385-0.297-0.88-0.429-1.441-0.429
		c-0.792,0-1.21,0.341-1.21,0.891c0,0.463,0.264,0.737,0.946,0.793l0.869,0.076c0.946,0.089,1.595,0.451,1.595,1.464
		C350.299,182.949,349.408,183.554,348.099,183.554z"/>
	<path fill="#BAA494" d="M355.821,183.488v-0.605c-0.385,0.44-0.924,0.672-1.529,0.672c-0.583,0-1.067-0.177-1.397-0.507
		c-0.385-0.374-0.55-0.891-0.55-1.518v-3.455h0.792v3.334c0,0.957,0.506,1.441,1.32,1.441s1.353-0.495,1.353-1.441v-3.334h0.792
		v5.413H355.821z"/>
	<path fill="#BAA494" d="M362.762,183.08c-0.286,0.286-0.771,0.474-1.32,0.474c-0.594,0-1.089-0.144-1.529-0.716v0.649h-0.792
		v-7.833h0.792v3.047c0.44-0.561,0.935-0.692,1.529-0.692c0.55,0,1.034,0.187,1.32,0.473c0.55,0.55,0.66,1.452,0.66,2.3
		C363.422,181.628,363.312,182.531,362.762,183.08z M361.277,178.713c-1.177,0-1.364,1.012-1.364,2.068
		c0,1.056,0.187,2.068,1.364,2.068s1.353-1.013,1.353-2.068C362.63,179.725,362.454,178.713,361.277,178.713z"/>
	<path fill="#BAA494" d="M367.371,183.554c-0.913,0-1.628-0.209-2.222-0.781l0.528-0.528c0.429,0.451,1.012,0.627,1.684,0.627
		c0.891,0,1.441-0.319,1.441-0.957c0-0.473-0.275-0.737-0.902-0.792l-0.891-0.077c-1.056-0.088-1.617-0.562-1.617-1.452
		c0-0.99,0.836-1.584,1.991-1.584c0.77,0,1.463,0.187,1.947,0.583l-0.517,0.517c-0.385-0.297-0.88-0.429-1.441-0.429
		c-0.792,0-1.21,0.341-1.21,0.891c0,0.463,0.264,0.737,0.946,0.793l0.869,0.076c0.946,0.089,1.595,0.451,1.595,1.464
		C369.571,182.949,368.68,183.554,367.371,183.554z"/>
	<path fill="#BAA494" d="M373.08,183.488c-0.924,0-1.386-0.649-1.386-1.452v-3.322h-0.682v-0.605h0.682v-1.694h0.792v1.694h1.155
		v0.605h-1.155v3.3c0,0.495,0.231,0.793,0.737,0.793h0.418v0.682H373.08z"/>
	<path fill="#BAA494" d="M375.719,176.535v-0.891h0.891v0.891H375.719z M375.763,183.488v-5.413h0.792v5.413H375.763z"/>
	<path fill="#BAA494" d="M380.614,183.488c-0.924,0-1.386-0.649-1.386-1.452v-3.322h-0.682v-0.605h0.682v-1.694h0.792v1.694h1.155
		v0.605h-1.155v3.3c0,0.495,0.231,0.793,0.737,0.793h0.418v0.682H380.614z"/>
	<path fill="#BAA494" d="M386.72,183.488v-0.605c-0.386,0.44-0.925,0.672-1.529,0.672c-0.583,0-1.067-0.177-1.397-0.507
		c-0.385-0.374-0.55-0.891-0.55-1.518v-3.455h0.792v3.334c0,0.957,0.506,1.441,1.32,1.441c0.813,0,1.353-0.495,1.353-1.441v-3.334
		h0.793v5.413H386.72z"/>
	<path fill="#BAA494" d="M391.548,183.488c-0.924,0-1.386-0.649-1.386-1.452v-3.322h-0.683v-0.605h0.683v-1.694h0.792v1.694h1.155
		v0.605h-1.155v3.3c0,0.495,0.231,0.793,0.737,0.793h0.418v0.682H391.548z"/>
	<path fill="#BAA494" d="M394.628,180.991c0,1.188,0.561,1.87,1.595,1.87c0.627,0,0.99-0.188,1.419-0.616l0.539,0.473
		c-0.55,0.551-1.056,0.837-1.979,0.837c-1.431,0-2.366-0.858-2.366-2.772c0-1.75,0.848-2.772,2.223-2.772
		c1.397,0,2.223,1.012,2.223,2.618v0.363H394.628z M397.323,179.494c-0.209-0.495-0.693-0.814-1.266-0.814s-1.056,0.319-1.265,0.814
		c-0.121,0.297-0.144,0.462-0.165,0.901h2.86C397.466,179.956,397.444,179.791,397.323,179.494z"/>
</g>
<g>
	<path fill="#BAA494" d="M315.341,199.306h-0.781l3.135-9.462h0.781L315.341,199.306z"/>
	<path fill="#BAA494" d="M320.148,198.492v-7.833h0.836v7.085h4.004v0.748H320.148z"/>
	<path fill="#BAA494" d="M329.917,198.492v-0.517c-0.44,0.439-0.836,0.583-1.562,0.583c-0.749,0-1.188-0.144-1.529-0.495
		c-0.264-0.265-0.407-0.672-0.407-1.101c0-0.946,0.66-1.562,1.87-1.562h1.628v-0.517c0-0.792-0.396-1.188-1.386-1.188
		c-0.693,0-1.045,0.165-1.364,0.616l-0.539-0.495c0.484-0.627,1.034-0.803,1.915-0.803c1.452,0,2.167,0.627,2.167,1.804v3.675
		H329.917z M329.917,195.994h-1.518c-0.814,0-1.21,0.33-1.21,0.957s0.385,0.924,1.243,0.924c0.462,0,0.869-0.033,1.21-0.363
		c0.187-0.176,0.275-0.483,0.275-0.935V195.994z"/>
	<path fill="#BAA494" d="M335.284,198.558c-1.364,0-2.398-0.925-2.398-2.772c0-1.849,1.034-2.772,2.398-2.772
		c0.748,0,1.221,0.197,1.782,0.803l-0.539,0.506c-0.407-0.451-0.726-0.604-1.243-0.604c-0.528,0-0.968,0.209-1.254,0.616
		c-0.253,0.352-0.352,0.77-0.352,1.452c0,0.682,0.099,1.1,0.352,1.452c0.286,0.407,0.726,0.616,1.254,0.616
		c0.517,0,0.836-0.165,1.243-0.616l0.539,0.517C336.505,198.36,336.032,198.558,335.284,198.558z"/>
	<path fill="#BAA494" d="M340.641,198.492c-0.924,0-1.386-0.649-1.386-1.452v-3.322h-0.682v-0.605h0.682v-1.694h0.792v1.694h1.155
		v0.605h-1.155v3.3c0,0.495,0.231,0.793,0.737,0.793h0.418v0.682H340.641z"/>
	<path fill="#BAA494" d="M346.702,197.942c-0.374,0.374-0.891,0.616-1.551,0.616s-1.177-0.242-1.551-0.616
		c-0.55-0.562-0.66-1.32-0.66-2.156c0-0.837,0.11-1.596,0.66-2.156c0.374-0.374,0.891-0.616,1.551-0.616s1.177,0.242,1.551,0.616
		c0.55,0.561,0.66,1.319,0.66,2.156C347.362,196.621,347.252,197.38,346.702,197.942z M346.141,194.113
		c-0.253-0.253-0.605-0.396-0.99-0.396c-0.385,0-0.726,0.143-0.979,0.396c-0.396,0.396-0.44,1.067-0.44,1.673
		c0,0.604,0.044,1.275,0.44,1.672c0.253,0.253,0.594,0.396,0.979,0.396c0.385,0,0.737-0.144,0.99-0.396
		c0.396-0.396,0.429-1.067,0.429-1.672C346.57,195.18,346.537,194.509,346.141,194.113z"/>
	<path fill="#BAA494" d="M351.3,198.558c-0.913,0-1.628-0.209-2.222-0.781l0.528-0.528c0.429,0.451,1.012,0.627,1.684,0.627
		c0.891,0,1.441-0.319,1.441-0.957c0-0.473-0.275-0.737-0.902-0.792l-0.891-0.077c-1.056-0.088-1.617-0.562-1.617-1.452
		c0-0.99,0.836-1.584,1.991-1.584c0.77,0,1.463,0.187,1.947,0.583l-0.517,0.517c-0.385-0.297-0.88-0.429-1.441-0.429
		c-0.792,0-1.21,0.341-1.21,0.891c0,0.463,0.264,0.737,0.946,0.793l0.869,0.076c0.946,0.089,1.595,0.451,1.595,1.464
		C353.5,197.952,352.609,198.558,351.3,198.558z"/>
	<path fill="#BAA494" d="M356.096,195.994c0,1.188,0.561,1.87,1.595,1.87c0.627,0,0.99-0.188,1.419-0.616l0.539,0.473
		c-0.55,0.551-1.056,0.837-1.98,0.837c-1.43,0-2.366-0.858-2.366-2.772c0-1.75,0.847-2.772,2.223-2.772
		c1.397,0,2.222,1.012,2.222,2.618v0.363H356.096z M358.791,194.498c-0.209-0.495-0.693-0.814-1.265-0.814
		c-0.572,0-1.056,0.319-1.265,0.814c-0.121,0.297-0.143,0.462-0.165,0.901h2.86C358.934,194.96,358.912,194.795,358.791,194.498z"/>
	<path fill="#BAA494" d="M365.226,191.538v-0.891h0.891v0.891H365.226z M365.27,198.492v-5.413h0.792v5.413H365.27z"/>
	<path fill="#BAA494" d="M372.068,198.492v-3.333c0-0.958-0.517-1.441-1.331-1.441s-1.342,0.495-1.342,1.441v3.333h-0.792v-5.413
		h0.792v0.595c0.385-0.44,0.913-0.66,1.518-0.66c0.583,0,1.056,0.176,1.386,0.506c0.385,0.374,0.561,0.88,0.561,1.507v3.466H372.068
		z"/>
	<path fill="#BAA494" d="M376.853,198.492c-0.924,0-1.386-0.649-1.386-1.452v-3.322h-0.682v-0.605h0.682v-1.694h0.792v1.694h1.155
		v0.605h-1.155v3.3c0,0.495,0.231,0.793,0.737,0.793h0.418v0.682H376.853z"/>
	<path fill="#BAA494" d="M382.925,197.942c-0.374,0.374-0.891,0.616-1.551,0.616s-1.177-0.242-1.551-0.616
		c-0.55-0.562-0.66-1.32-0.66-2.156c0-0.837,0.11-1.596,0.66-2.156c0.374-0.374,0.891-0.616,1.551-0.616s1.177,0.242,1.551,0.616
		c0.55,0.561,0.66,1.319,0.66,2.156C383.585,196.621,383.475,197.38,382.925,197.942z M382.364,194.113
		c-0.253-0.253-0.605-0.396-0.99-0.396c-0.385,0-0.726,0.143-0.979,0.396c-0.396,0.396-0.44,1.067-0.44,1.673
		c0,0.604,0.044,1.275,0.44,1.672c0.253,0.253,0.594,0.396,0.979,0.396c0.385,0,0.737-0.144,0.99-0.396
		c0.396-0.396,0.429-1.067,0.429-1.672C382.792,195.18,382.76,194.509,382.364,194.113z"/>
	<path fill="#BAA494" d="M387.17,198.492c-0.946,0-1.375-0.616-1.375-1.441v-6.392h0.792v6.358c0,0.528,0.176,0.793,0.727,0.793
		h0.429v0.682H387.17z"/>
	<path fill="#BAA494" d="M389.854,195.994c0,1.188,0.561,1.87,1.595,1.87c0.627,0,0.99-0.188,1.419-0.616l0.539,0.473
		c-0.55,0.551-1.056,0.837-1.979,0.837c-1.431,0-2.366-0.858-2.366-2.772c0-1.75,0.848-2.772,2.223-2.772
		c1.397,0,2.223,1.012,2.223,2.618v0.363H389.854z M392.55,194.498c-0.209-0.495-0.693-0.814-1.266-0.814s-1.056,0.319-1.265,0.814
		c-0.121,0.297-0.144,0.462-0.165,0.901h2.86C392.692,194.96,392.671,194.795,392.55,194.498z"/>
	<path fill="#BAA494" d="M398.765,194.113c-0.297-0.297-0.518-0.396-0.936-0.396c-0.792,0-1.298,0.627-1.298,1.452v3.322h-0.792
		v-5.413h0.792v0.66c0.297-0.451,0.891-0.726,1.518-0.726c0.518,0,0.913,0.121,1.299,0.506L398.765,194.113z"/>
	<path fill="#BAA494" d="M403.879,198.492v-0.517c-0.439,0.439-0.836,0.583-1.562,0.583c-0.749,0-1.188-0.144-1.529-0.495
		c-0.265-0.265-0.407-0.672-0.407-1.101c0-0.946,0.66-1.562,1.87-1.562h1.628v-0.517c0-0.792-0.396-1.188-1.386-1.188
		c-0.693,0-1.045,0.165-1.364,0.616l-0.539-0.495c0.484-0.627,1.034-0.803,1.914-0.803c1.452,0,2.167,0.627,2.167,1.804v3.675
		H403.879z M403.879,195.994h-1.518c-0.814,0-1.211,0.33-1.211,0.957s0.386,0.924,1.243,0.924c0.463,0,0.869-0.033,1.211-0.363
		c0.187-0.176,0.274-0.483,0.274-0.935V195.994z"/>
	<path fill="#BAA494" d="M410.611,198.492v-3.333c0-0.958-0.518-1.441-1.331-1.441c-0.814,0-1.343,0.495-1.343,1.441v3.333h-0.792
		v-5.413h0.792v0.595c0.386-0.44,0.913-0.66,1.519-0.66c0.583,0,1.056,0.176,1.386,0.506c0.386,0.374,0.562,0.88,0.562,1.507v3.466
		H410.611z"/>
	<path fill="#BAA494" d="M415.979,198.558c-1.364,0-2.398-0.925-2.398-2.772c0-1.849,1.034-2.772,2.398-2.772
		c0.748,0,1.222,0.197,1.782,0.803l-0.539,0.506c-0.406-0.451-0.726-0.604-1.243-0.604c-0.527,0-0.968,0.209-1.254,0.616
		c-0.253,0.352-0.352,0.77-0.352,1.452c0,0.682,0.099,1.1,0.352,1.452c0.286,0.407,0.727,0.616,1.254,0.616
		c0.518,0,0.837-0.165,1.243-0.616l0.539,0.517C417.2,198.36,416.727,198.558,415.979,198.558z"/>
	<path fill="#BAA494" d="M420.147,195.994c0,1.188,0.562,1.87,1.596,1.87c0.627,0,0.99-0.188,1.419-0.616l0.539,0.473
		c-0.55,0.551-1.057,0.837-1.98,0.837c-1.43,0-2.365-0.858-2.365-2.772c0-1.75,0.847-2.772,2.223-2.772
		c1.396,0,2.222,1.012,2.222,2.618v0.363H420.147z M422.843,194.498c-0.209-0.495-0.693-0.814-1.265-0.814
		c-0.572,0-1.057,0.319-1.266,0.814c-0.121,0.297-0.143,0.462-0.165,0.901h2.86C422.986,194.96,422.964,194.795,422.843,194.498z"/>
</g>
<g>
	<path fill="#BAA494" d="M315.341,214.311h-0.781l3.135-9.462h0.781L315.341,214.311z"/>
	<path fill="#BAA494" d="M322.591,213.563c-0.771,0-1.475-0.286-2.002-0.814c-0.737-0.737-0.737-1.507-0.737-3.169
		c0-1.661,0-2.431,0.737-3.168c0.528-0.528,1.232-0.814,2.002-0.814c1.408,0,2.453,0.858,2.717,2.333h-0.858
		c-0.209-0.958-0.88-1.585-1.859-1.585c-0.517,0-1.012,0.198-1.354,0.551c-0.495,0.506-0.55,1.045-0.55,2.684
		c0,1.64,0.055,2.179,0.55,2.685c0.341,0.353,0.836,0.551,1.354,0.551c0.979,0,1.672-0.628,1.881-1.585h0.836
		C325.055,212.704,323.988,213.563,322.591,213.563z"/>
	<path fill="#BAA494" d="M328.904,213.496c-0.946,0-1.375-0.616-1.375-1.441v-6.392h0.792v6.358c0,0.528,0.176,0.793,0.726,0.793
		h0.429v0.682H328.904z"/>
	<path fill="#BAA494" d="M334.438,213.496v-0.517c-0.44,0.439-0.836,0.583-1.562,0.583c-0.749,0-1.188-0.144-1.529-0.495
		c-0.264-0.265-0.407-0.672-0.407-1.101c0-0.946,0.66-1.562,1.87-1.562h1.628v-0.517c0-0.792-0.396-1.188-1.386-1.188
		c-0.693,0-1.045,0.165-1.364,0.616l-0.539-0.495c0.484-0.627,1.034-0.803,1.915-0.803c1.452,0,2.167,0.627,2.167,1.804v3.675
		H334.438z M334.438,210.999h-1.518c-0.814,0-1.21,0.33-1.21,0.957s0.385,0.924,1.243,0.924c0.462,0,0.869-0.033,1.21-0.363
		c0.187-0.176,0.275-0.483,0.275-0.935V210.999z"/>
	<path fill="#BAA494" d="M339.222,213.496c-0.924,0-1.386-0.649-1.386-1.452v-3.322h-0.682v-0.605h0.682v-1.694h0.792v1.694h1.155
		v0.605h-1.155v3.3c0,0.495,0.231,0.793,0.737,0.793h0.418v0.682H339.222z"/>
	<path fill="#BAA494" d="M343.424,213.496c-0.924,0-1.386-0.649-1.386-1.452v-3.322h-0.682v-0.605h0.682v-1.694h0.792v1.694h1.155
		v0.605h-1.155v3.3c0,0.495,0.231,0.793,0.737,0.793h0.418v0.682H343.424z"/>
	<path fill="#BAA494" d="M347.461,213.496c-0.946,0-1.375-0.616-1.375-1.441v-6.392h0.792v6.358c0,0.528,0.176,0.793,0.726,0.793
		h0.429v0.682H347.461z"/>
	<path fill="#BAA494" d="M350.134,210.999c0,1.188,0.561,1.87,1.595,1.87c0.627,0,0.99-0.188,1.419-0.616l0.539,0.473
		c-0.55,0.551-1.056,0.837-1.98,0.837c-1.43,0-2.366-0.858-2.366-2.772c0-1.75,0.847-2.772,2.223-2.772
		c1.397,0,2.222,1.012,2.222,2.618v0.363H350.134z M352.829,209.503c-0.209-0.495-0.693-0.814-1.265-0.814
		c-0.572,0-1.056,0.319-1.265,0.814c-0.121,0.297-0.143,0.462-0.165,0.901h2.86C352.972,209.965,352.95,209.8,352.829,209.503z"/>
</g>
<g>
	<path fill="#BAA494" d="M315.341,229.315h-0.781l3.135-9.462h0.781L315.341,229.315z"/>
	<path fill="#BAA494" d="M324.813,227.774c-0.473,0.474-1.166,0.727-1.98,0.727h-2.684v-7.833h2.684c0.814,0,1.507,0.253,1.98,0.726
		c0.814,0.814,0.77,2.014,0.77,3.103C325.583,225.585,325.627,226.96,324.813,227.774z M324.23,221.988
		c-0.407-0.418-0.935-0.572-1.541-0.572h-1.705v6.337h1.705c0.605,0,1.133-0.154,1.541-0.572c0.539-0.561,0.517-1.728,0.517-2.685
		S324.769,222.548,324.23,221.988z"/>
	<path fill="#BAA494" d="M331.027,228.5v-0.517c-0.44,0.439-0.836,0.583-1.562,0.583c-0.749,0-1.188-0.144-1.529-0.495
		c-0.264-0.265-0.407-0.672-0.407-1.101c0-0.946,0.66-1.562,1.87-1.562h1.628v-0.517c0-0.792-0.396-1.188-1.386-1.188
		c-0.693,0-1.045,0.165-1.364,0.616l-0.539-0.495c0.484-0.627,1.034-0.803,1.915-0.803c1.452,0,2.167,0.627,2.167,1.804v3.675
		H331.027z M331.027,226.003h-1.518c-0.814,0-1.21,0.33-1.21,0.957s0.385,0.924,1.243,0.924c0.462,0,0.869-0.033,1.21-0.363
		c0.187-0.176,0.275-0.483,0.275-0.935V226.003z"/>
	<path fill="#BAA494" d="M334.25,221.547v-0.891h0.891v0.891H334.25z M334.294,228.5v-5.413h0.792v5.413H334.294z"/>
	<path fill="#BAA494" d="M340.652,224.121c-0.297-0.297-0.517-0.396-0.935-0.396c-0.792,0-1.298,0.627-1.298,1.452v3.322h-0.792
		v-5.413h0.792v0.66c0.297-0.451,0.891-0.726,1.518-0.726c0.517,0,0.913,0.121,1.298,0.506L340.652,224.121z"/>
	<path fill="#BAA494" d="M344.15,229.81c-0.11,0.297-0.231,0.495-0.385,0.638c-0.286,0.275-0.671,0.374-1.056,0.374h-0.341v-0.704
		h0.242c0.55,0,0.715-0.176,0.891-0.671l0.385-1.057l-1.947-5.303h0.858l1.485,4.346l1.474-4.346h0.858L344.15,229.81z"/>
</g>
<g>
	<path fill="#AE1821" d="M475.612,262.179c-1.178,0-1.947-0.298-2.685-1.034l0.572-0.572c0.648,0.648,1.254,0.858,2.134,0.858
		c1.145,0,1.849-0.539,1.849-1.453c0-0.406-0.121-0.759-0.374-0.979s-0.451-0.286-1.023-0.374l-0.913-0.144
		c-0.616-0.099-1.1-0.297-1.441-0.594c-0.396-0.352-0.594-0.836-0.594-1.463c0-1.331,0.957-2.212,2.509-2.212
		c1.001,0,1.661,0.253,2.332,0.858l-0.539,0.539c-0.484-0.44-1.001-0.671-1.826-0.671c-1.046,0-1.65,0.583-1.65,1.452
		c0,0.385,0.11,0.693,0.352,0.902c0.242,0.209,0.649,0.362,1.057,0.429l0.858,0.132c0.736,0.11,1.1,0.265,1.43,0.55
		c0.429,0.363,0.66,0.902,0.66,1.552C478.318,261.331,477.24,262.179,475.612,262.179z"/>
	<path fill="#AE1821" d="M480.969,259.616c0,1.188,0.562,1.87,1.596,1.87c0.627,0,0.99-0.188,1.419-0.616l0.539,0.473
		c-0.55,0.551-1.057,0.837-1.98,0.837c-1.43,0-2.365-0.858-2.365-2.772c0-1.75,0.847-2.772,2.223-2.772
		c1.396,0,2.222,1.012,2.222,2.618v0.363H480.969z M483.664,258.119c-0.209-0.495-0.693-0.814-1.265-0.814
		c-0.572,0-1.057,0.319-1.266,0.814c-0.121,0.297-0.143,0.462-0.165,0.901h2.86C483.808,258.581,483.785,258.416,483.664,258.119z"
		/>
	<path fill="#AE1821" d="M487.349,259.616c0,1.188,0.562,1.87,1.596,1.87c0.627,0,0.99-0.188,1.419-0.616l0.539,0.473
		c-0.55,0.551-1.057,0.837-1.98,0.837c-1.43,0-2.365-0.858-2.365-2.772c0-1.75,0.847-2.772,2.223-2.772
		c1.396,0,2.222,1.012,2.222,2.618v0.363H487.349z M490.044,258.119c-0.209-0.495-0.693-0.814-1.265-0.814
		c-0.572,0-1.057,0.319-1.266,0.814c-0.121,0.297-0.143,0.462-0.165,0.901h2.86C490.188,258.581,490.165,258.416,490.044,258.119z"
		/>
	<path fill="#AE1821" d="M496.303,262.113v-0.517c-0.439,0.439-0.836,0.583-1.562,0.583c-0.749,0-1.188-0.144-1.529-0.495
		c-0.265-0.265-0.407-0.672-0.407-1.101c0-0.946,0.66-1.562,1.87-1.562h1.628v-0.517c0-0.792-0.396-1.188-1.386-1.188
		c-0.693,0-1.045,0.165-1.364,0.616l-0.539-0.495c0.484-0.627,1.034-0.803,1.914-0.803c1.452,0,2.167,0.627,2.167,1.804v3.675
		H496.303z M496.303,259.616h-1.518c-0.814,0-1.211,0.33-1.211,0.957s0.386,0.924,1.243,0.924c0.463,0,0.869-0.033,1.211-0.363
		c0.187-0.176,0.274-0.483,0.274-0.935V259.616z"/>
	<path fill="#AE1821" d="M500.923,262.113c-0.946,0-1.375-0.616-1.375-1.441v-6.392h0.792v6.358c0,0.528,0.176,0.793,0.726,0.793
		h0.43v0.682H500.923z"/>
	<path fill="#AE1821" d="M505.081,262.179c-0.913,0-1.628-0.209-2.223-0.781l0.528-0.528c0.429,0.451,1.012,0.627,1.684,0.627
		c0.891,0,1.44-0.319,1.44-0.957c0-0.473-0.274-0.737-0.901-0.792l-0.892-0.077c-1.056-0.088-1.617-0.562-1.617-1.452
		c0-0.99,0.836-1.584,1.991-1.584c0.771,0,1.463,0.187,1.947,0.583l-0.517,0.517c-0.386-0.297-0.881-0.429-1.441-0.429
		c-0.792,0-1.21,0.341-1.21,0.891c0,0.463,0.264,0.737,0.945,0.793l0.869,0.076c0.946,0.089,1.596,0.451,1.596,1.464
		C507.281,261.574,506.39,262.179,505.081,262.179z"/>
	<path fill="#AE1821" d="M512.858,261.563c-0.374,0.374-0.892,0.616-1.552,0.616s-1.177-0.242-1.551-0.616
		c-0.551-0.562-0.66-1.32-0.66-2.156c0-0.837,0.109-1.596,0.66-2.156c0.374-0.374,0.891-0.616,1.551-0.616s1.178,0.242,1.552,0.616
		c0.55,0.561,0.66,1.319,0.66,2.156C513.519,260.243,513.408,261.001,512.858,261.563z M512.297,257.734
		c-0.253-0.253-0.605-0.396-0.99-0.396s-0.726,0.143-0.979,0.396c-0.396,0.396-0.439,1.067-0.439,1.673
		c0,0.604,0.044,1.275,0.439,1.672c0.254,0.253,0.595,0.396,0.979,0.396s0.737-0.144,0.99-0.396
		c0.396-0.396,0.429-1.067,0.429-1.672C512.726,258.801,512.693,258.13,512.297,257.734z"/>
	<path fill="#AE1821" d="M517.104,262.113c-0.946,0-1.375-0.616-1.375-1.441v-6.392h0.792v6.358c0,0.528,0.176,0.793,0.726,0.793
		h0.43v0.682H517.104z"/>
	<path fill="#AE1821" d="M522.824,261.563c-0.374,0.374-0.892,0.616-1.552,0.616s-1.177-0.242-1.551-0.616
		c-0.551-0.562-0.66-1.32-0.66-2.156c0-0.837,0.109-1.596,0.66-2.156c0.374-0.374,0.891-0.616,1.551-0.616s1.178,0.242,1.552,0.616
		c0.55,0.561,0.66,1.319,0.66,2.156C523.484,260.243,523.374,261.001,522.824,261.563z M522.263,257.734
		c-0.253-0.253-0.605-0.396-0.99-0.396s-0.726,0.143-0.979,0.396c-0.396,0.396-0.439,1.067-0.439,1.673
		c0,0.604,0.044,1.275,0.439,1.672c0.254,0.253,0.595,0.396,0.979,0.396s0.737-0.144,0.99-0.396
		c0.396-0.396,0.429-1.067,0.429-1.672C522.691,258.801,522.659,258.13,522.263,257.734z"/>
	<path fill="#AE1821" d="M527.455,264.599c-0.814,0-1.266-0.209-1.838-0.727l0.518-0.506c0.396,0.353,0.671,0.539,1.298,0.539
		c1.045,0,1.485-0.736,1.485-1.661v-0.847c-0.44,0.561-0.936,0.704-1.519,0.704c-0.55,0-1.022-0.198-1.309-0.484
		c-0.539-0.539-0.66-1.375-0.66-2.255c0-0.881,0.121-1.717,0.66-2.256c0.286-0.286,0.77-0.473,1.32-0.473
		c0.594,0,1.078,0.132,1.518,0.704V256.7h0.781v5.578C529.71,263.619,528.874,264.599,527.455,264.599z M527.576,257.338
		c-1.178,0-1.354,1.012-1.354,2.024c0,1.012,0.176,2.023,1.354,2.023c1.177,0,1.342-1.012,1.342-2.023
		C528.918,258.35,528.753,257.338,527.576,257.338z"/>
	<path fill="#AE1821" d="M533.582,263.422c-0.11,0.297-0.231,0.495-0.386,0.638c-0.286,0.275-0.671,0.374-1.056,0.374H531.8v-0.704
		h0.241c0.551,0,0.716-0.176,0.892-0.671l0.385-1.057l-1.947-5.303h0.858l1.485,4.346l1.474-4.346h0.858L533.582,263.422z"/>
</g>
<g>
	<path fill="#AE1821" d="M478.132,274.279c-0.551,0.594-1.288,0.902-2.091,0.902c-0.771,0-1.475-0.286-2.002-0.814
		c-0.737-0.737-0.737-1.507-0.737-3.169c0-1.661,0-2.431,0.737-3.168c0.527-0.528,1.221-0.814,2.002-0.814
		c1.496,0,2.509,0.969,2.739,2.344h-0.836c-0.22-0.99-0.924-1.596-1.903-1.596c-0.517,0-1.012,0.209-1.354,0.562
		c-0.495,0.506-0.55,1.034-0.55,2.673c0,1.64,0.055,2.179,0.55,2.685c0.342,0.353,0.837,0.551,1.354,0.551
		c0.572,0,1.122-0.231,1.485-0.672c0.319-0.385,0.44-0.813,0.44-1.419v-0.594h-1.926v-0.737h2.762v1.243
		C478.803,273.157,478.615,273.761,478.132,274.279z"/>
	<path fill="#AE1821" d="M481.65,272.618c0,1.188,0.562,1.87,1.596,1.87c0.627,0,0.99-0.188,1.419-0.616l0.539,0.473
		c-0.55,0.551-1.057,0.837-1.98,0.837c-1.43,0-2.365-0.858-2.365-2.772c0-1.75,0.847-2.772,2.223-2.772
		c1.396,0,2.222,1.012,2.222,2.618v0.363H481.65z M484.346,271.121c-0.209-0.495-0.693-0.814-1.265-0.814
		c-0.572,0-1.057,0.319-1.266,0.814c-0.121,0.297-0.143,0.462-0.165,0.901h2.86C484.489,271.583,484.467,271.418,484.346,271.121z"
		/>
	<path fill="#AE1821" d="M491.178,274.707c-0.286,0.286-0.771,0.474-1.32,0.474c-0.595,0-1.09-0.144-1.529-0.704v3.058h-0.792
		v-7.833h0.792v0.639c0.439-0.572,0.935-0.704,1.529-0.704c0.55,0,1.034,0.187,1.32,0.473c0.55,0.55,0.66,1.452,0.66,2.3
		C491.838,273.255,491.728,274.158,491.178,274.707z M489.692,270.34c-1.178,0-1.364,1.012-1.364,2.068
		c0,1.056,0.187,2.068,1.364,2.068c1.177,0,1.353-1.013,1.353-2.068C491.045,271.352,490.869,270.34,489.692,270.34z"/>
	<path fill="#AE1821" d="M497.546,275.115v-3.345c0-0.946-0.506-1.43-1.32-1.43c-0.813,0-1.353,0.495-1.353,1.43v3.345h-0.792
		v-7.833h0.792v3.015c0.396-0.451,0.913-0.66,1.518-0.66c1.222,0,1.947,0.781,1.947,2.002v3.477H497.546z"/>
	<path fill="#AE1821" d="M500.769,268.161v-0.891h0.892v0.891H500.769z M500.812,275.115v-5.413h0.792v5.413H500.812z"/>
</g>
<g opacity="0.75">
	<g>
		<defs>
			<rect id="SVGID_3_" x="461.56" y="252.576" width="12.235" height="23.669"/>
		</defs>
		<clipPath id="SVGID_4_">
			<use xlink:href="#SVGID_3_"  overflow="visible"/>
		</clipPath>
		<polygon clip-path="url(#SVGID_4_)" fill="#AE1821" points="466.795,264.41 462.56,261.575 462.56,267.245 		"/>
	</g>
</g>
<line fill="none" stroke="#BAA494" stroke-width="0.75" x1="309.122" y1="333.015" x2="456.747" y2="333.342"/>
<g opacity="0.75">
	<g>
		<defs>
			<rect id="SVGID_5_" x="373.747" y="314.629" width="18.75" height="19.339"/>
		</defs>
		<clipPath id="SVGID_6_">
			<use xlink:href="#SVGID_5_"  overflow="visible"/>
		</clipPath>
		
			<line clip-path="url(#SVGID_6_)" fill="none" stroke="#BAA494" stroke-width="0.75" x1="383.122" y1="321.629" x2="383.122" y2="332.968"/>
	</g>
</g>
<g opacity="0.75">
	<g>
		<defs>
			<rect id="SVGID_7_" x="373.747" y="227.134" width="18.75" height="19.339"/>
		</defs>
		<clipPath id="SVGID_8_">
			<use xlink:href="#SVGID_7_"  overflow="visible"/>
		</clipPath>
		
			<line clip-path="url(#SVGID_8_)" fill="none" stroke="#BAA494" stroke-width="0.75" x1="383.122" y1="234.134" x2="383.122" y2="245.473"/>
	</g>
</g>
<g opacity="0.75">
	<g>
		<defs>
			<rect id="SVGID_9_" x="373.747" y="276.348" width="18.75" height="19.338"/>
		</defs>
		<clipPath id="SVGID_10_">
			<use xlink:href="#SVGID_9_"  overflow="visible"/>
		</clipPath>
		
			<line clip-path="url(#SVGID_10_)" fill="none" stroke="#BAA494" stroke-width="0.75" x1="383.122" y1="283.348" x2="383.122" y2="294.687"/>
	</g>
</g>
<g>
	<path fill="#262625" d="M401.301,363.321v-9.257h5.747v0.885h-4.759v3.263h4.057v0.884h-4.057v3.342h4.759v0.884H401.301z"/>
	<path fill="#262625" d="M411.376,363.321c-1.092,0-1.638-0.767-1.638-1.716v-3.927h-0.807v-0.715h0.807v-2.002h0.936v2.002h1.365
		v0.715h-1.365v3.9c0,0.585,0.273,0.937,0.871,0.937h0.494v0.806H411.376z"/>
	<path fill="#262625" d="M418.643,363.321v-3.952c0-1.118-0.598-1.69-1.56-1.69s-1.6,0.585-1.6,1.69v3.952h-0.936v-9.257h0.936
		v3.562c0.469-0.533,1.079-0.78,1.794-0.78c1.443,0,2.302,0.924,2.302,2.366v4.108H418.643z"/>
	<path fill="#262625" d="M422.439,355.105v-1.054h1.053v1.054H422.439z M422.491,363.321v-6.396h0.936v6.396H422.491z"/>
	<path fill="#262625" d="M428.913,363.399c-1.612,0-2.835-1.092-2.835-3.276c0-2.184,1.223-3.276,2.835-3.276
		c0.884,0,1.442,0.234,2.105,0.949l-0.637,0.599c-0.481-0.533-0.858-0.716-1.469-0.716c-0.624,0-1.145,0.247-1.482,0.729
		c-0.299,0.416-0.416,0.91-0.416,1.716c0,0.807,0.117,1.3,0.416,1.716c0.338,0.481,0.858,0.729,1.482,0.729
		c0.61,0,0.987-0.195,1.469-0.729l0.637,0.611C430.355,363.164,429.797,363.399,428.913,363.399z"/>
	<path fill="#262625" d="M436.908,363.321v-0.611c-0.521,0.521-0.988,0.689-1.847,0.689c-0.884,0-1.404-0.169-1.807-0.585
		c-0.312-0.312-0.481-0.793-0.481-1.3c0-1.118,0.78-1.847,2.21-1.847h1.925v-0.611c0-0.936-0.469-1.403-1.639-1.403
		c-0.819,0-1.235,0.194-1.612,0.728l-0.637-0.585c0.572-0.741,1.222-0.949,2.262-0.949c1.717,0,2.562,0.741,2.562,2.133v4.342
		H436.908z M436.908,360.369h-1.795c-0.962,0-1.43,0.39-1.43,1.131s0.455,1.093,1.469,1.093c0.546,0,1.027-0.039,1.431-0.43
		c0.221-0.208,0.325-0.572,0.325-1.104V360.369z"/>
	<path fill="#262625" d="M442.367,363.321c-1.118,0-1.625-0.728-1.625-1.703v-7.554h0.937v7.515c0,0.624,0.208,0.937,0.857,0.937
		h0.508v0.806H442.367z"/>
	<path fill="#262625" d="M452.026,354.949v8.372h-0.988v-8.372h-2.678v-0.885h6.345v0.885H452.026z"/>
	<path fill="#262625" d="M459.8,358.147c-0.351-0.352-0.61-0.469-1.104-0.469c-0.937,0-1.534,0.741-1.534,1.717v3.926h-0.937v-6.396
		h0.937v0.78c0.351-0.533,1.053-0.858,1.794-0.858c0.611,0,1.079,0.144,1.534,0.599L459.8,358.147z"/>
	<path fill="#262625" d="M462.491,360.369c0,1.404,0.663,2.21,1.885,2.21c0.741,0,1.17-0.221,1.678-0.728l0.637,0.559
		c-0.65,0.65-1.248,0.988-2.34,0.988c-1.69,0-2.796-1.015-2.796-3.276c0-2.067,1.001-3.276,2.627-3.276
		c1.65,0,2.626,1.196,2.626,3.095v0.429H462.491z M465.676,358.602c-0.246-0.585-0.818-0.963-1.494-0.963
		c-0.677,0-1.248,0.378-1.495,0.963c-0.144,0.351-0.169,0.546-0.195,1.065h3.38C465.846,359.148,465.819,358.952,465.676,358.602z"
		/>
	<path fill="#262625" d="M473.073,363.321v-0.611c-0.52,0.521-0.988,0.689-1.846,0.689c-0.885,0-1.404-0.169-1.808-0.585
		c-0.312-0.312-0.48-0.793-0.48-1.3c0-1.118,0.779-1.847,2.21-1.847h1.924v-0.611c0-0.936-0.468-1.403-1.638-1.403
		c-0.819,0-1.235,0.194-1.612,0.728l-0.637-0.585c0.571-0.741,1.222-0.949,2.262-0.949c1.716,0,2.562,0.741,2.562,2.133v4.342
		H473.073z M473.073,360.369h-1.794c-0.962,0-1.43,0.39-1.43,1.131s0.454,1.093,1.469,1.093c0.546,0,1.027-0.039,1.43-0.43
		c0.222-0.208,0.325-0.572,0.325-1.104V360.369z"/>
	<path fill="#262625" d="M478.728,363.321c-1.092,0-1.638-0.767-1.638-1.716v-3.927h-0.806v-0.715h0.806v-2.002h0.937v2.002h1.364
		v0.715h-1.364v3.9c0,0.585,0.272,0.937,0.871,0.937h0.493v0.806H478.728z"/>
	<path fill="#262625" d="M490.116,363.321v-3.939c0-1.131-0.611-1.703-1.573-1.703c-0.936,0-1.599,0.585-1.599,1.6v4.043h-0.937
		v-3.939c0-1.131-0.611-1.703-1.573-1.703s-1.599,0.585-1.599,1.703v3.939h-0.937v-6.396h0.937v0.702
		c0.455-0.52,1.092-0.78,1.807-0.78c0.885,0,1.573,0.364,1.963,1.066c0.494-0.702,1.21-1.066,2.106-1.066
		c0.689,0,1.261,0.222,1.651,0.599c0.455,0.441,0.688,1.04,0.688,1.781v4.095H490.116z"/>
	<path fill="#262625" d="M494.562,360.369c0,1.404,0.663,2.21,1.885,2.21c0.741,0,1.17-0.221,1.678-0.728l0.637,0.559
		c-0.65,0.65-1.248,0.988-2.34,0.988c-1.69,0-2.796-1.015-2.796-3.276c0-2.067,1.001-3.276,2.627-3.276
		c1.65,0,2.626,1.196,2.626,3.095v0.429H494.562z M497.746,358.602c-0.246-0.585-0.818-0.963-1.494-0.963
		c-0.677,0-1.248,0.378-1.495,0.963c-0.144,0.351-0.169,0.546-0.195,1.065h3.38C497.916,359.148,497.89,358.952,497.746,358.602z"/>
	<path fill="#262625" d="M505.599,363.321v-3.939c0-1.131-0.61-1.703-1.573-1.703c-0.962,0-1.586,0.585-1.586,1.703v3.939h-0.936
		v-6.396h0.936v0.702c0.455-0.52,1.079-0.78,1.794-0.78c0.689,0,1.248,0.208,1.639,0.599c0.455,0.441,0.663,1.04,0.663,1.781v4.095
		H505.599z"/>
	<path fill="#262625" d="M511.24,363.321c-1.092,0-1.638-0.767-1.638-1.716v-3.927h-0.806v-0.715h0.806v-2.002h0.937v2.002h1.364
		v0.715h-1.364v3.9c0,0.585,0.272,0.937,0.871,0.937h0.493v0.806H511.24z"/>
</g>
<g>
	<path fill="#262625" d="M428.004,378.271c-0.442,0.442-1.054,0.729-1.833,0.729c-0.78,0-1.392-0.286-1.834-0.729
		c-0.649-0.663-0.779-1.56-0.779-2.548s0.13-1.885,0.779-2.548c0.442-0.442,1.054-0.729,1.834-0.729
		c0.779,0,1.391,0.286,1.833,0.729c0.649,0.663,0.779,1.56,0.779,2.548S428.653,377.608,428.004,378.271z M427.341,373.747
		c-0.3-0.3-0.716-0.469-1.17-0.469c-0.455,0-0.858,0.169-1.157,0.469c-0.469,0.468-0.521,1.261-0.521,1.976s0.052,1.508,0.521,1.977
		c0.299,0.299,0.702,0.468,1.157,0.468c0.454,0,0.87-0.169,1.17-0.468c0.468-0.469,0.507-1.262,0.507-1.977
		S427.809,374.215,427.341,373.747z"/>
	<path fill="#262625" d="M432.566,373.279v5.643h-0.937v-5.643h-0.818v-0.715h0.818v-1.209c0-0.949,0.533-1.716,1.625-1.716h0.677
		v0.806h-0.508c-0.598,0-0.857,0.352-0.857,0.937v1.183h1.365v0.715H432.566z"/>
	<path fill="#262625" d="M445.593,378.921l-0.741-2.093h-4.043l-0.741,2.093h-1.054l3.406-9.256h0.832l3.394,9.256H445.593z
		 M442.85,371.082l-1.742,4.888h3.458L442.85,371.082z"/>
	<path fill="#262625" d="M452.716,378.921v-3.939c0-1.131-0.61-1.703-1.573-1.703c-0.962,0-1.586,0.585-1.586,1.703v3.939h-0.936
		v-6.396h0.936v0.702c0.455-0.52,1.079-0.78,1.794-0.78c0.689,0,1.248,0.208,1.639,0.599c0.455,0.441,0.663,1.04,0.663,1.781v4.095
		H452.716z"/>
	<path fill="#262625" d="M456.512,370.704v-1.053h1.053v1.053H456.512z M456.563,378.921v-6.396h0.937v6.396H456.563z"/>
	<path fill="#262625" d="M468.719,378.921v-3.939c0-1.131-0.61-1.703-1.572-1.703c-0.937,0-1.6,0.585-1.6,1.6v4.043h-0.936v-3.939
		c0-1.131-0.611-1.703-1.573-1.703s-1.6,0.585-1.6,1.703v3.939h-0.936v-6.396h0.936v0.702c0.455-0.52,1.093-0.78,1.808-0.78
		c0.884,0,1.573,0.364,1.963,1.066c0.494-0.702,1.209-1.066,2.106-1.066c0.688,0,1.261,0.222,1.65,0.599
		c0.455,0.441,0.689,1.04,0.689,1.781v4.095H468.719z"/>
	<path fill="#262625" d="M476.207,378.921v-0.611c-0.52,0.521-0.988,0.689-1.846,0.689c-0.885,0-1.404-0.169-1.808-0.585
		c-0.312-0.312-0.48-0.793-0.48-1.3c0-1.118,0.779-1.847,2.21-1.847h1.924v-0.61c0-0.937-0.468-1.404-1.638-1.404
		c-0.819,0-1.235,0.194-1.612,0.728l-0.637-0.585c0.571-0.741,1.222-0.949,2.262-0.949c1.716,0,2.562,0.741,2.562,2.133v4.342
		H476.207z M476.207,375.97h-1.794c-0.962,0-1.43,0.39-1.43,1.131s0.454,1.092,1.469,1.092c0.546,0,1.027-0.038,1.43-0.429
		c0.222-0.208,0.325-0.572,0.325-1.104V375.97z"/>
	<path fill="#262625" d="M481.667,378.921c-1.118,0-1.625-0.729-1.625-1.703v-7.553h0.936v7.514c0,0.624,0.208,0.937,0.858,0.937
		h0.507v0.806H481.667z"/>
	<path fill="#262625" d="M486.594,378.999c-1.079,0-1.924-0.247-2.626-0.923l0.624-0.624c0.507,0.533,1.195,0.74,1.988,0.74
		c1.054,0,1.703-0.377,1.703-1.131c0-0.559-0.324-0.871-1.065-0.936l-1.054-0.091c-1.248-0.104-1.91-0.663-1.91-1.717
		c0-1.17,0.987-1.872,2.353-1.872c0.91,0,1.729,0.222,2.301,0.689l-0.61,0.611c-0.455-0.352-1.04-0.508-1.703-0.508
		c-0.937,0-1.431,0.403-1.431,1.054c0,0.546,0.312,0.871,1.118,0.936l1.027,0.091c1.118,0.104,1.885,0.533,1.885,1.729
		C489.193,378.285,488.141,378.999,486.594,378.999z"/>
</g>
<path fill="none" stroke="#AE1821" stroke-width="0.75" stroke-miterlimit="10" d="M391.769,345.432c0,0-2.835,0-2.835,2.835v35.777
	c0,0,0,2.835,2.835,2.835H521.35c0,0,2.834,0,2.834-2.835v-35.777c0,0,0-2.835-2.834-2.835H391.769z"/>
<circle fill="none" stroke="#262625" stroke-width="0.75" cx="336.85" cy="308.824" r="3.925"/>
<circle fill="none" stroke="#262625" stroke-width="0.75" cx="342.028" cy="308.824" r="3.925"/>
<g>
	<path fill="#262625" d="M354.921,304.751v8.372h-0.988v-8.372h-2.678v-0.885h6.344v0.885H354.921z"/>
	<path fill="#262625" d="M365.204,313.123h-0.871l-1.677-4.966l-1.664,4.966h-0.871l-2.028-6.396h1.014l1.469,5.136l1.677-5.136
		h0.806l1.69,5.136l1.456-5.136h1.014L365.204,313.123z"/>
	<path fill="#262625" d="M373.225,312.473c-0.442,0.442-1.053,0.729-1.833,0.729c-0.78,0-1.391-0.286-1.833-0.729
		c-0.65-0.663-0.78-1.56-0.78-2.548s0.13-1.885,0.78-2.548c0.442-0.442,1.053-0.729,1.833-0.729c0.78,0,1.391,0.286,1.833,0.729
		c0.65,0.663,0.78,1.56,0.78,2.548S373.875,311.81,373.225,312.473z M372.562,307.95c-0.299-0.3-0.715-0.469-1.17-0.469
		s-0.858,0.169-1.157,0.469c-0.468,0.468-0.52,1.261-0.52,1.976s0.052,1.508,0.52,1.977c0.299,0.299,0.702,0.468,1.157,0.468
		s0.871-0.169,1.17-0.468c0.468-0.469,0.507-1.262,0.507-1.977S373.03,308.417,372.562,307.95z"/>
	<path fill="#262625" d="M383.573,313.202c-0.91,0-1.742-0.338-2.366-0.962c-0.871-0.871-0.871-1.781-0.871-3.744
		s0-2.873,0.871-3.744c0.624-0.624,1.456-0.962,2.366-0.962c1.664,0,2.899,1.014,3.21,2.756h-1.014
		c-0.247-1.131-1.04-1.872-2.197-1.872c-0.611,0-1.196,0.234-1.599,0.65c-0.585,0.598-0.65,1.234-0.65,3.172
		c0,1.937,0.065,2.574,0.65,3.172c0.403,0.416,0.988,0.65,1.599,0.65c1.157,0,1.976-0.741,2.223-1.872h0.987
		C386.484,312.187,385.224,313.202,383.573,313.202z"/>
	<path fill="#262625" d="M391.048,313.123c-1.118,0-1.625-0.728-1.625-1.703v-7.554h0.936v7.515c0,0.624,0.208,0.937,0.858,0.937
		h0.507v0.806H391.048z"/>
	<path fill="#262625" d="M397.989,313.123v-0.715c-0.455,0.52-1.092,0.793-1.807,0.793c-0.689,0-1.262-0.208-1.651-0.599
		c-0.455-0.441-0.65-1.053-0.65-1.794v-4.082h0.937v3.939c0,1.131,0.598,1.703,1.56,1.703s1.6-0.585,1.6-1.703v-3.939h0.936v6.396
		H397.989z"/>
	<path fill="#262625" d="M403.917,313.202c-1.079,0-1.924-0.247-2.626-0.923l0.624-0.624c0.507,0.532,1.196,0.741,1.989,0.741
		c1.053,0,1.703-0.378,1.703-1.132c0-0.559-0.325-0.871-1.066-0.936l-1.053-0.091c-1.248-0.104-1.911-0.663-1.911-1.717
		c0-1.17,0.988-1.872,2.354-1.872c0.909,0,1.729,0.222,2.301,0.689l-0.611,0.611c-0.455-0.352-1.04-0.508-1.703-0.508
		c-0.936,0-1.43,0.403-1.43,1.054c0,0.546,0.312,0.871,1.118,0.936l1.026,0.091c1.118,0.104,1.886,0.533,1.886,1.729
		C406.518,312.487,405.464,313.202,403.917,313.202z"/>
	<path fill="#262625" d="M410.664,313.123c-1.092,0-1.638-0.767-1.638-1.716v-3.927h-0.807v-0.715h0.807v-2.002h0.936v2.002h1.365
		v0.715h-1.365v3.9c0,0.585,0.273,0.937,0.871,0.937h0.494v0.806H410.664z"/>
	<path fill="#262625" d="M414.304,310.172c0,1.404,0.663,2.21,1.886,2.21c0.741,0,1.17-0.221,1.677-0.728l0.637,0.559
		c-0.649,0.65-1.248,0.988-2.34,0.988c-1.69,0-2.795-1.015-2.795-3.276c0-2.067,1.001-3.276,2.626-3.276
		c1.651,0,2.626,1.196,2.626,3.095v0.429H414.304z M417.489,308.405c-0.247-0.585-0.819-0.963-1.495-0.963s-1.248,0.378-1.495,0.963
		c-0.143,0.351-0.169,0.546-0.195,1.065h3.381C417.658,308.951,417.632,308.755,417.489,308.405z"/>
	<path fill="#262625" d="M424.834,307.95c-0.351-0.352-0.61-0.469-1.104-0.469c-0.937,0-1.534,0.741-1.534,1.717v3.926h-0.937
		v-6.396h0.937v0.78c0.351-0.533,1.053-0.858,1.794-0.858c0.611,0,1.079,0.144,1.534,0.599L424.834,307.95z"/>
	<path fill="#262625" d="M429.267,313.202c-1.079,0-1.924-0.247-2.626-0.923l0.624-0.624c0.507,0.532,1.196,0.741,1.989,0.741
		c1.053,0,1.703-0.378,1.703-1.132c0-0.559-0.325-0.871-1.066-0.936l-1.053-0.091c-1.248-0.104-1.911-0.663-1.911-1.717
		c0-1.17,0.988-1.872,2.354-1.872c0.909,0,1.729,0.222,2.301,0.689l-0.611,0.611c-0.455-0.352-1.04-0.508-1.703-0.508
		c-0.936,0-1.43,0.403-1.43,1.054c0,0.546,0.312,0.871,1.118,0.936l1.026,0.091c1.118,0.104,1.886,0.533,1.886,1.729
		C431.867,312.487,430.813,313.202,429.267,313.202z"/>
</g>
</svg>
