<svg version="1.1" xmlns="http://www.w3.org/2000/svg" x="0px" y="0px" width="100%" height="auto" viewBox="0 0 1140 360">
<style>
        .graph05-title {
            fill: #4C6363;
            font-family: 'Lekton', sans-serif;
            font-size: 20px;
            font-weight: 700;
        }
        .graph05-bkg {
            fill: #F7D3BF;
            opacity: 0.5;
        }
        .graph05-y--text {
            fill: #4C6363;
            font-family: 'Lekton', sans-serif;
            font-size: 12px;
            font-weight: 700;
        }
        .graph05-x--text {
            fill: #4C6363;
            font-family: 'Lekton', sans-serif;
            font-size: 15px;
            font-weight: 700;
        }
        .graph05-geneva {
            fill: #5DA093;
            opacity: 0.9;
        }
        .graph05-subs {
            fill: #8DBBB4;
            opacity: 0.8;
        }
        .graph05-hum {
            fill:#AAE5CF;
            opacity:0.8;
        }
        .graph05-axes {
            fill: none;
            opacity: 0.3;
            stroke-linecap: round;
            stroke: #4C6363;
        }
</style>  
<text transform="matrix(1 0 0 1 144.2002 20)" class="graph05-title">
    Italy
  </text>
  <rect x="45" y="54.699" width="265" height="249" class="graph05-bkg"/>
  <text transform="matrix(1 0 0 1 4.9805 255.7422)" class="graph05-y--text">
    20%
  </text>
  <text transform="matrix(1 0 0 1 4.9805 208.4189)" class="graph05-y--text">
    40%
  </text>
  <text transform="matrix(1 0 0 1 4.9805 156.1143)" class="graph05-y--text">
    60%
  </text>
  <text transform="matrix(1 0 0 1 4.9805 108.792)" class="graph05-y--text">
    80%
  </text>
  <text transform="matrix(1 0 0 1 0 58.9785)" class="graph05-y--text">
    100%
  </text>
  <text transform="matrix(0.7071 -0.7071 0.7071 0.7071 31.6338 347.1484)" class="graph05-x--text">
    2010
  </text>
  <text transform="matrix(0.7071 -0.7071 0.7071 0.7071 296.8945 347.1484)" class="graph05-x--text">
    2014
  </text>
  <text transform="matrix(1 0 0 1 545.9395 20)" class="graph05-title">
    Greece
  </text>
  <rect x="453" y="54.699" width="266" height="249" class="graph05-bkg"/>
  <text transform="matrix(1 0 0 1 414.3867 255.7422)" class="graph05-y--text">
    20%
  </text>
  <text transform="matrix(1 0 0 1 414.3867 208.4189)" class="graph05-y--text">
    40%
  </text>
  <text transform="matrix(1 0 0 1 414.3867 156.1143)" class="graph05-y--text">
    60%
  </text>
  <text transform="matrix(1 0 0 1 414.3867 108.792)" class="graph05-y--text">
    80%
  </text>
  <text transform="matrix(1 0 0 1 409.4043 58.9785)" class="graph05-y--text">
    100%
  </text>
  <text transform="matrix(0.7071 -0.7071 0.7071 0.7071 441.0381 347.1494)" class="graph05-x--text">
    2010
  </text>
  <text transform="matrix(0.7071 -0.7071 0.7071 0.7071 507.3535 347.1484)" class="graph05-x--text">
    2011
  </text>
  <text transform="matrix(0.7071 -0.7071 0.7071 0.7071 573.668 347.1484)" class="graph05-x--text">
    2012
  </text>
  <text transform="matrix(0.7071 -0.7071 0.7071 0.7071 639.9834 347.1494)" class="graph05-x--text">
    2013
  </text>
  <text transform="matrix(0.7071 -0.7071 0.7071 0.7071 706.2979 347.1494)" class="graph05-x--text">
    2014
  </text>
  <text transform="matrix(1 0 0 1 925 20)" class="graph05-title">
    European Union
  </text>
  <rect x="865" y="54.699" width="263" height="249" class="graph05-bkg"/>
  <text transform="matrix(1 0 0 1 823.7881 255.7422)" class="graph05-y--text">
    20%
  </text>
  <text transform="matrix(1 0 0 1 823.7881 208.4189)" class="graph05-y--text">
    40%
  </text>
  <text transform="matrix(1 0 0 1 823.7881 156.1143)" class="graph05-y--text">
    60%
  </text>
  <text transform="matrix(1 0 0 1 823.7881 108.792)" class="graph05-y--text">
    80%
  </text>
  <text transform="matrix(1 0 0 1 818.8086 58.9785)" class="graph05-y--text">
    100%
  </text>
  <text transform="matrix(0.7071 -0.7071 0.7071 0.7071 850.4395 347.1484)" class="graph05-x--text">
    2010
  </text>
  <text transform="matrix(0.7071 -0.7071 0.7071 0.7071 916.7559 347.1484)" class="graph05-x--text">
    2011
  </text>
  <text transform="matrix(0.7071 -0.7071 0.7071 0.7071 983.0693 347.1494)" class="graph05-x--text">
    2012
  </text>
  <text transform="matrix(0.7071 -0.7071 0.7071 0.7071 1049.3848 347.1484)" class="graph05-x--text">
    2013
  </text>
  <text transform="matrix(0.7071 -0.7071 0.7071 0.7071 1115.7012 347.1484)" class="graph05-x--text">
    2014
  </text>
  <polygon points="45 89.699 109.716 89.699 176.92 59.47 243.875 74.225 310 79.022 310 303.699 45 303.699 " class="graph05-geneva"/>
  <polygon points="45 237.493 110.338 226.085 176.816 184.578 241.636 227.699 310 227.699 310 303.699 45 303.699 " class="graph05-subs"/>
  <polygon points="45 295.571 109.716 288.104 176.92 280.637 243.875 293.082 310 288.104 310 303.699 45 303.699 " class="graph05-hum"/>
  <polygon points="585.5 303.699 650.177 204.695 719 178.66 719 303.699 " class="graph05-geneva"/>
  <polygon points="585.5 303.699 652.664 291.76 719 298.063 719 303.699 " class="graph05-subs"/>
  <polyline points="928.816 125.179 995.722 140.001 1060.214 122.709 1128 95.535 1128 303.699 865 303.699 865 135.061 929.229 125.179 " class="graph05-geneva"/>
  <polygon points="865 246.226 929.229 249.52 995.928 251.166 1062.375 238.814 1128 241.285 1128 303.699 865 303.699 " class="graph05-subs"/>
  <polygon points="865 293.162 929.023 295.633 995.928 298.103 1062.377 298.926 1128 298.103 1128 303.699 865 303.699 " class="graph05-hum"/>
  <line x1="36" y1="254.199" x2="311" y2="254.199" class="graph05-axes"/>
  <line x1="36" y1="205.199" x2="311" y2="205.199" class="graph05-axes"/>
  <line x1="36" y1="154.199" x2="311" y2="154.199" class="graph05-axes"/>
  <line x1="36" y1="104.199" x2="311" y2="104.199" class="graph05-axes"/>
  <line x1="36" y1="55.199" x2="311" y2="55.199" class="graph05-axes"/>
  <line x1="36" y1="304.199" x2="311" y2="304.199" class="graph05-axes"/>
  <text transform="matrix(0.7071 -0.7071 0.7071 0.7071 97.9492 347.1484)" class="graph05-x--text">
    2011
  </text>
  <text transform="matrix(0.7071 -0.7071 0.7071 0.7071 164.2617 347.1465)" class="graph05-x--text">
    2012
  </text>
  <text transform="matrix(0.7071 -0.7071 0.7071 0.7071 230.5781 347.1475)" class="graph05-x--text">
    2013
  </text>
  <line x1="45.5" y1="296.699" x2="45.5" y2="310.699" class="graph05-axes"/>
  <line x1="110.5" y1="296.699" x2="110.5" y2="310.699" class="graph05-axes"/>
  <line x1="176.5" y1="296.699" x2="176.5" y2="310.699" class="graph05-axes"/>
  <line x1="243.5" y1="296.699" x2="243.5" y2="310.699" class="graph05-axes"/>
  <line x1="309.5" y1="296.699" x2="309.5" y2="310.699" class="graph05-axes"/>
  <line x1="444" y1="254.199" x2="720" y2="254.199" class="graph05-axes"/>
  <line x1="444" y1="205.199" x2="720" y2="205.199" class="graph05-axes"/>
  <line x1="444" y1="154.199" x2="720" y2="154.199" class="graph05-axes"/>
  <line x1="444" y1="104.199" x2="720" y2="104.199" class="graph05-axes"/>
  <line x1="444" y1="55.199" x2="720" y2="55.199" class="graph05-axes"/>
  <line x1="444" y1="304.199" x2="720" y2="304.199" class="graph05-axes"/>
  <line x1="453.5" y1="296.699" x2="453.5" y2="310.699" class="graph05-axes"/>
  <line x1="519.5" y1="296.699" x2="519.5" y2="310.699" class="graph05-axes"/>
  <line x1="585.5" y1="296.699" x2="585.5" y2="310.699" class="graph05-axes"/>
  <line x1="652.5" y1="296.699" x2="652.5" y2="310.699" class="graph05-axes"/>
  <line x1="718.5" y1="296.699" x2="718.5" y2="310.699" class="graph05-axes"/>
  <line x1="854" y1="254.199" x2="1128" y2="254.199" class="graph05-axes"/>
  <line x1="854" y1="205.199" x2="1128" y2="205.199" class="graph05-axes"/>
  <line x1="854" y1="154.199" x2="1128" y2="154.199" class="graph05-axes"/>
  <line x1="854" y1="104.199" x2="1128" y2="104.199" class="graph05-axes"/>
  <line x1="854" y1="55.199" x2="1128" y2="55.199" class="graph05-axes"/>
  <line x1="854" y1="304.199" x2="1128" y2="304.199" class="graph05-axes"/>
  <line x1="865.5" y1="296.699" x2="865.5" y2="310.699" class="graph05-axes"/>
  <line x1="928.5" y1="296.699" x2="928.5" y2="310.699" class="graph05-axes"/>
  <line x1="995.5" y1="296.699" x2="995.5" y2="310.699" class="graph05-axes"/>
  <line x1="1062.5" y1="296.699" x2="1062.5" y2="310.699" class="graph05-axes"/>
  <line x1="1127.5" y1="296.699" x2="1127.5" y2="310.699" class="graph05-axes"/>
</svg>
