<svg version="1.1" xmlns="http://www.w3.org/2000/svg" x="0px" y="0px" width="100%" height="auto" viewBox="0 0 1140 360">
<style>
        .graph05-title {
            fill: #4C6363;
            font-family: 'Lekton', sans-serif;
            font-size: 20px;
            font-weight: 700;
        }
        .graph05-bkg {
            fill: #F7D3BF;
            opacity: 0.5;
        }
        .graph05-y--text {
            fill: #4C6363;
            font-family: 'Lekton', sans-serif;
            font-size: 12px;
            font-weight: 700;
        }
        .graph05-x--text {
            fill: #4C6363;
            font-family: 'Lekton', sans-serif;
            font-size: 15px;
            font-weight: 700;
        }
        .graph05-geneva {
            fill: #5DA093;
            opacity: 0.9;
        }
        .graph05-subs {
            fill: #8DBBB4;
            opacity: 0.8;
        }
        .graph05-hum {
            fill:#AAE5CF;
            opacity:0.8;
        }
        .graph05-axes {
            fill: none;
            opacity: 0.3;
            stroke-linecap: round;
            stroke: #4C6363;
        }
</style>  
<text transform="matrix(1 0 0 1 144.2002 20)" class="graph05-title">
    Italy
  </text>
  <rect x="45" y="54.301" width="265" height="249" class="graph05-bkg"/>
  <text transform="matrix(1 0 0 1 4.9805 255.7422)" class="graph05-y--text">
    20%
  </text>
  <text transform="matrix(1 0 0 1 4.9805 208.4189)" class="graph05-y--text">
    40%
  </text>
  <text transform="matrix(1 0 0 1 4.9805 156.1143)" class="graph05-y--text">
    60%
  </text>
  <text transform="matrix(1 0 0 1 4.9805 108.792)" class="graph05-y--text">
    80%
  </text>
  <text transform="matrix(1 0 0 1 0 58.9785)" class="graph05-y--text">
    100%
  </text>
  <text transform="matrix(0.7071 -0.7071 0.7071 0.7071 31.6338 347.1484)" class="graph05-x--text">
    2010
  </text>
  <text transform="matrix(0.7071 -0.7071 0.7071 0.7071 97.9492 347.1484)" class="graph05-x--text">
    2011
  </text>
  <text transform="matrix(0.7071 -0.7071 0.7071 0.7071 164.2617 347.1465)" class="graph05-x--text">
    2012
  </text>
  <text transform="matrix(0.7071 -0.7071 0.7071 0.7071 230.5781 347.1475)" class="graph05-x--text">
    2013
  </text>
  <text transform="matrix(0.7071 -0.7071 0.7071 0.7071 296.8945 347.1484)" class="graph05-x--text">
    2014
  </text>
  <text transform="matrix(1 0 0 1 545.9395 20)" class="graph05-title">
    Greece
  </text>
  <rect x="453" y="54.301" width="266" height="249" class="graph05-bkg"/>
  <text transform="matrix(1 0 0 1 414.3867 255.7422)" class="graph05-y--text">
    20%
  </text>
  <text transform="matrix(1 0 0 1 414.3867 208.4189)" class="graph05-y--text">
    40%
  </text>
  <text transform="matrix(1 0 0 1 414.3867 156.1143)" class="graph05-y--text">
    60%
  </text>
  <text transform="matrix(1 0 0 1 414.3867 108.792)" class="graph05-y--text">
    80%
  </text>
  <text transform="matrix(1 0 0 1 409.4043 58.9785)" class="graph05-y--text">
    100%
  </text>
  <text transform="matrix(0.7071 -0.7071 0.7071 0.7071 441.0381 347.1494)" class="graph05-x--text">
    2010
  </text>
  <text transform="matrix(0.7071 -0.7071 0.7071 0.7071 507.3535 347.1484)" class="graph05-x--text">
    2011
  </text>
  <text transform="matrix(0.7071 -0.7071 0.7071 0.7071 573.668 347.1484)" class="graph05-x--text">
    2012
  </text>
  <text transform="matrix(0.7071 -0.7071 0.7071 0.7071 639.9834 347.1494)" class="graph05-x--text">
    2013
  </text>
  <text transform="matrix(0.7071 -0.7071 0.7071 0.7071 706.2979 347.1494)" class="graph05-x--text">
    2014
  </text>
  <text transform="matrix(1 0 0 1 925 20)" class="graph05-title">
    European Union
  </text>
  <rect x="865" y="54.301" width="263" height="249" class="graph05-bkg"/>
  <text transform="matrix(1 0 0 1 823.7881 255.7422)" class="graph05-y--text">
    20%
  </text>
  <text transform="matrix(1 0 0 1 823.7881 208.4189)" class="graph05-y--text">
    40%
  </text>
  <text transform="matrix(1 0 0 1 823.7881 156.1143)" class="graph05-y--text">
    60%
  </text>
  <text transform="matrix(1 0 0 1 823.7881 108.792)" class="graph05-y--text">
    80%
  </text>
  <text transform="matrix(1 0 0 1 818.8086 58.9785)" class="graph05-y--text">
    100%
  </text>
  <text transform="matrix(0.7071 -0.7071 0.7071 0.7071 850.4395 347.1484)" class="graph05-x--text">
    2010
  </text>
  <text transform="matrix(0.7071 -0.7071 0.7071 0.7071 916.7559 347.1484)" class="graph05-x--text">
    2011
  </text>
  <text transform="matrix(0.7071 -0.7071 0.7071 0.7071 983.0693 347.1494)" class="graph05-x--text">
    2012
  </text>
  <text transform="matrix(0.7071 -0.7071 0.7071 0.7071 1049.3848 347.1484)" class="graph05-x--text">
    2013
  </text>
  <text transform="matrix(0.7071 -0.7071 0.7071 0.7071 1115.7012 347.1484)" class="graph05-x--text">
    2014
  </text>
  <polygon points="45 179.159 109.279 146.677 176.487 190.747 242.83 159.301 310 187.989 310 303.301 45 303.301 " class="graph05-geneva"/>
  <polygon points="45 179.159 109.279 146.677 177.211 211.159 242.881 199.295 310 207.298 310 303.301 45 303.301 " class="graph05-subs"/>
  <polygon points="45 222.194 109.657 159.296 176.59 259.161 242.881 226.062 310 223.854 310 303.301 45 303.301 " class="graph05-hum"/>
  <polygon points="519.521 303.301 586.979 298.128 651.474 292.093 719 288.124 719 303.301 " class="graph05-geneva"/>
  <polygon points="519.521 303.301 587.29 300.714 653.61 296.679 719 293.473 719 303.301 " class="graph05-subs"/>
  <polygon points="866.006 268.729 932.391 265.07 998.262 275.04 1062.104 277.25 1128 279.87 1128 303.301 865.664 302.48 " class="graph05-geneva"/>
  <polygon points="866 282.75 932.594 277.132 998.368 292.755 1062.637 286.996 1128 285.761 1128 303.301 866 303.301 " class="graph05-subs"/>
  <polygon points="866 292.896 932.338 288.295 997.969 295.456 1063.119 292.936 1128 295.353 1128 303.301 866 303.198 " class="graph05-hum"/>
  <line x1="36" y1="253.801" x2="311" y2="253.801" class="graph05-axes"/>
  <line x1="36" y1="204.801" x2="311" y2="204.801" class="graph05-axes"/>
  <line x1="36" y1="153.801" x2="311" y2="153.801" class="graph05-axes"/>
  <line x1="36" y1="103.801" x2="311" y2="103.801" class="graph05-axes"/>
  <line x1="36" y1="54.801" x2="311" y2="54.801" class="graph05-axes"/>
  <line x1="36" y1="303.801" x2="311" y2="303.801" class="graph05-axes"/>
  <line x1="45.5" y1="296.301" x2="45.5" y2="310.301" class="graph05-axes"/>
  <line x1="110.5" y1="296.301" x2="110.5" y2="310.301" class="graph05-axes"/>
  <line x1="176.5" y1="296.301" x2="176.5" y2="310.301" class="graph05-axes"/>
  <line x1="243.5" y1="296.301" x2="243.5" y2="310.301" class="graph05-axes"/>
  <line x1="309.5" y1="296.301" x2="309.5" y2="310.301" class="graph05-axes"/>
  <line x1="453.5" y1="296.301" x2="453.5" y2="310.301" class="graph05-axes"/>
  <line x1="519.5" y1="296.301" x2="519.5" y2="310.301" class="graph05-axes"/>
  <line x1="585.5" y1="296.301" x2="585.5" y2="310.301" class="graph05-axes"/>
  <line x1="652.5" y1="296.301" x2="652.5" y2="310.301" class="graph05-axes"/>
  <line x1="718.5" y1="296.301" x2="718.5" y2="310.301" class="graph05-axes"/>
  <line x1="444" y1="253.801" x2="720" y2="253.801" class="graph05-axes"/>
  <line x1="444" y1="204.801" x2="720" y2="204.801" class="graph05-axes"/>
  <line x1="444" y1="153.801" x2="720" y2="153.801" class="graph05-axes"/>
  <line x1="444" y1="103.801" x2="720" y2="103.801" class="graph05-axes"/>
  <line x1="444" y1="54.801" x2="720" y2="54.801" class="graph05-axes"/>
  <line x1="444" y1="303.801" x2="720" y2="303.801" class="graph05-axes"/>
  <line x1="854" y1="253.801" x2="1128" y2="253.801" class="graph05-axes"/>
  <line x1="854" y1="204.801" x2="1128" y2="204.801" class="graph05-axes"/>
  <line x1="854" y1="153.801" x2="1128" y2="153.801" class="graph05-axes"/>
  <line x1="854" y1="103.801" x2="1128" y2="103.801" class="graph05-axes"/>
  <line x1="854" y1="54.801" x2="1128" y2="54.801" class="graph05-axes"/>
  <line x1="854" y1="303.801" x2="1128" y2="303.801" class="graph05-axes"/>
  <line x1="865.5" y1="296.301" x2="865.5" y2="310.301" class="graph05-axes"/>
  <line x1="928.5" y1="296.301" x2="928.5" y2="310.301" class="graph05-axes"/>
  <line x1="995.5" y1="296.301" x2="995.5" y2="310.301" class="graph05-axes"/>
  <line x1="1062.5" y1="296.301" x2="1062.5" y2="310.301" class="graph05-axes"/>
  <line x1="1127.5" y1="296.301" x2="1127.5" y2="310.301" class="graph05-axes"/>
</svg>
