<svg version="1.1" xmlns="http://www.w3.org/2000/svg" x="0px" y="0px" width="100%" height="auto" viewBox="0 0 1140 360">
<style>
        .graph05-title {
            fill: #4C6363;
            font-family: 'Lekton', sans-serif;
            font-size: 20px;
            font-weight: 700;
        }
        .graph05-bkg {
            fill: #F7D3BF;
            opacity: 0.5;
        }
        .graph05-y--text {
            fill: #4C6363;
            font-family: 'Lekton', sans-serif;
            font-size: 12px;
            font-weight: 700;
        }
        .graph05-x--text {
            fill: #4C6363;
            font-family: 'Lekton', sans-serif;
            font-size: 15px;
            font-weight: 700;
        }
        .graph05-geneva {
            fill: #5DA093;
            opacity: 0.9;
        }
        .graph05-subs {
            fill: #8DBBB4;
            opacity: 0.8;
        }
        .graph05-hum {
            fill:#AAE5CF;
            opacity:0.8;
        }
        .graph05-axes {
            fill: none;
            opacity: 0.3;
            stroke-linecap: round;
            stroke: #4C6363;
        }
</style>  
<text transform="matrix(1 0 0 1 144.1621 20)" class="graph05-title">
    Italy
  </text>
  <rect x="45" y="54" width="265" height="249" class="graph05-bkg"/>
  <text transform="matrix(1 0 0 1 4.9424 255.3438)" class="graph05-y--text">
    20%
  </text>
  <text transform="matrix(1 0 0 1 4.9424 208.0205)" class="graph05-y--text">
    40%
  </text>
  <text transform="matrix(1 0 0 1 4.9424 155.7158)" class="graph05-y--text">
    60%
  </text>
  <text transform="matrix(1 0 0 1 4.9424 108.3936)" class="graph05-y--text">
    80%
  </text>
  <text transform="matrix(1 0 0 1 -0.0381 58.5801)" class="graph05-y--text">
    100%
  </text>
  <text transform="matrix(0.7071 -0.7071 0.7071 0.7071 31.5957 346.75)" class="graph05-x--text">
    2010
  </text>
  <text transform="matrix(0.7071 -0.7071 0.7071 0.7071 97.9111 346.75)" class="graph05-x--text">
    2011
  </text>
  <text transform="matrix(0.7071 -0.7071 0.7071 0.7071 164.2241 346.748)" class="graph05-x--text">
    2012
  </text>
  <text transform="matrix(0.7071 -0.7071 0.7071 0.7071 230.54 346.749)" class="graph05-x--text">
    2013
  </text>
  <text transform="matrix(0.7071 -0.7071 0.7071 0.7071 296.856 346.75)" class="graph05-x--text">
    2014
  </text>
  <text transform="matrix(1 0 0 1 545.9019 20)" class="graph05-title">
    Greece
  </text>
  <rect x="453" y="54" width="266" height="249" class="graph05-bkg"/>
  <text transform="matrix(1 0 0 1 414.3481 255.3438)" class="graph05-y--text">
    20%
  </text>
  <text transform="matrix(1 0 0 1 414.3481 208.0205)" class="graph05-y--text">
    40%
  </text>
  <text transform="matrix(1 0 0 1 414.3481 155.7158)" class="graph05-y--text">
    60%
  </text>
  <text transform="matrix(1 0 0 1 414.3481 108.3936)" class="graph05-y--text">
    80%
  </text>
  <text transform="matrix(1 0 0 1 409.3667 58.5801)" class="graph05-y--text">
    100%
  </text>
  <text transform="matrix(0.7071 -0.7071 0.7071 0.7071 441 346.751)" class="graph05-x--text">
    2010
  </text>
  <text transform="matrix(0.7071 -0.7071 0.7071 0.7071 507.3154 346.75)" class="graph05-x--text">
    2011
  </text>
  <text transform="matrix(0.7071 -0.7071 0.7071 0.7071 573.6299 346.75)" class="graph05-x--text">
    2012
  </text>
  <text transform="matrix(0.7071 -0.7071 0.7071 0.7071 639.9453 346.751)" class="graph05-x--text">
    2013
  </text>
  <text transform="matrix(0.7071 -0.7071 0.7071 0.7071 706.2598 346.751)" class="graph05-x--text">
    2014
  </text>
  <line x1="444" y1="303.5" x2="720" y2="303.5" class="graph05-axes"/>
  <text transform="matrix(1 0 0 1 925 20)" class="graph05-title">
    European Union
  </text>
  <rect x="865" y="54" width="263" height="249" class="graph05-bkg"/>
  <text transform="matrix(1 0 0 1 823.75 255.3438)" class="graph05-y--text">
    20%
  </text>
  <text transform="matrix(1 0 0 1 823.75 208.0205)" class="graph05-y--text">
    40%
  </text>
  <text transform="matrix(1 0 0 1 823.75 155.7158)" class="graph05-y--text">
    60%
  </text>
  <text transform="matrix(1 0 0 1 823.75 108.3936)" class="graph05-y--text">
    80%
  </text>
  <text transform="matrix(1 0 0 1 818.7705 58.5801)" class="graph05-y--text">
    100%
  </text>
  <text transform="matrix(0.7071 -0.7071 0.7071 0.7071 850.4014 346.75)" class="graph05-x--text">
    2010
  </text>
  <text transform="matrix(0.7071 -0.7071 0.7071 0.7071 916.7178 346.75)" class="graph05-x--text">
    2011
  </text>
  <text transform="matrix(0.7071 -0.7071 0.7071 0.7071 983.0312 346.751)" class="graph05-x--text">
    2012
  </text>
  <text transform="matrix(0.7071 -0.7071 0.7071 0.7071 1049.3467 346.75)" class="graph05-x--text">
    2013
  </text>
  <text transform="matrix(0.7071 -0.7071 0.7071 0.7071 1115.6631 346.75)" class="graph05-x--text">
    2014
  </text>
  <polygon points="45 104.924 109.454 142.12 176.396 74.342 243.612 124.762 310 77.647 310 303 45 303 " class="graph05-geneva"/>
  <polygon points="44.966 176.686 109.438 174.281 176.387 112.326 243.607 151.193 310 107.404 310 303 44.962 303 " class="graph05-subs"/>
  <polygon points="45 278.504 109.454 273.545 176.396 266.105 243.612 290.076 310 288.423 310 303 45 303 " class="graph05-hum"/>
  <polygon points="453 285.812 517.815 200.865 585.409 203.362 652.203 228.348 719 250.833 719 303 453 303 " class="graph05-geneva"/>
  <polygon points="452.712 303 517.882 258.179 585.442 255.755 652.221 260.789 719 278.316 719 303 " class="graph05-subs"/>
  <polygon points="452.712 303 517.88 269.005 585.442 263.25 652.221 278.279 719 293.307 719 303 " class="graph05-hum"/>
  <polygon points="865 202.018 929.004 199.547 995.796 194.606 1061.899 199.547 1128 152.61 1128 303 865 303 " class="graph05-geneva"/>
  <polygon points="864.965 258.685 929.808 256.289 995.788 261.268 1061.89 263.757 1128 251.424 1128 303 864.962 303 " class="graph05-subs"/>
  <polygon points="865 288 929.19 288 995.89 285.77 1061.945 288.359 1128 273.657 1128 303 865 303 " class="graph05-hum"/>
  <line x1="45.5" y1="296" x2="45.5" y2="310" class="graph05-axes"/>
  <line x1="110.5" y1="296" x2="110.5" y2="310" class="graph05-axes"/>
  <line x1="176.5" y1="296" x2="176.5" y2="310" class="graph05-axes"/>
  <line x1="243.5" y1="296" x2="243.5" y2="310" class="graph05-axes"/>
  <line x1="309.5" y1="296" x2="309.5" y2="310" class="graph05-axes"/>
  <line x1="453.5" y1="296" x2="453.5" y2="310" class="graph05-axes"/>
  <line x1="519.5" y1="296" x2="519.5" y2="310" class="graph05-axes"/>
  <line x1="585.5" y1="296" x2="585.5" y2="310" class="graph05-axes"/>
  <line x1="652.5" y1="296" x2="652.5" y2="310" class="graph05-axes"/>
  <line x1="718.5" y1="296" x2="718.5" y2="310" class="graph05-axes"/>
  <line x1="865.5" y1="296" x2="865.5" y2="310" class="graph05-axes"/>
  <line x1="928.5" y1="296" x2="928.5" y2="310" class="graph05-axes"/>
  <line x1="995.5" y1="296" x2="995.5" y2="310" class="graph05-axes"/>
  <line x1="1062.5" y1="296" x2="1062.5" y2="310" class="graph05-axes"/>
  <line x1="1127.5" y1="296" x2="1127.5" y2="310" class="graph05-axes"/>
  <line x1="854" y1="253.5" x2="1128" y2="253.5" class="graph05-axes"/>
  <line x1="854" y1="204.5" x2="1128" y2="204.5" class="graph05-axes"/>
  <line x1="854" y1="103.5" x2="1128" y2="103.5" class="graph05-axes"/>
  <line x1="854" y1="54.5" x2="1128" y2="54.5" class="graph05-axes"/>
  <line x1="854" y1="303.5" x2="1128" y2="303.5" class="graph05-axes"/>
  <line x1="444" y1="253.5" x2="720" y2="253.5" class="graph05-axes"/>
  <line x1="444" y1="204.5" x2="720" y2="204.5" class="graph05-axes"/>
  <line x1="444" y1="153.5" x2="720" y2="153.5" class="graph05-axes"/>
  <line x1="444" y1="103.5" x2="720" y2="103.5" class="graph05-axes"/>
  <line x1="444" y1="54.5" x2="720" y2="54.5" class="graph05-axes"/>
  <line x1="854" y1="153.5" x2="1128" y2="153.5" class="graph05-axes"/>
  <line x1="36" y1="253.5" x2="311" y2="253.5" class="graph05-axes"/>
  <line x1="36" y1="204.5" x2="311" y2="204.5" class="graph05-axes"/>
  <line x1="36" y1="153.5" x2="311" y2="153.5" class="graph05-axes"/>
  <line x1="36" y1="103.5" x2="311" y2="103.5" class="graph05-axes"/>
  <line x1="36" y1="54.5" x2="311" y2="54.5" class="graph05-axes"/>
  <line x1="36" y1="303.5" x2="311" y2="303.5" class="graph05-axes"/>
</svg>
