<?xml version="1.0" encoding="utf-8"?>
<!-- Generator: Adobe Illustrator 19.1.0, SVG Export Plug-In . SVG Version: 6.00 Build 0)  -->
<svg version="1.1" id="Livello_1" xmlns="http://www.w3.org/2000/svg" xmlns:xlink="http://www.w3.org/1999/xlink" x="0px" y="0px"
	 viewBox="0 0 273.1 95.8" style="enable-background:new 0 0 273.1 95.8;" xml:space="preserve">
<style type="text/css">
	.st0{clip-path:url(#SVGID_2_);}
	.st1{clip-path:url(#SVGID_4_);}
	.st2{clip-path:url(#SVGID_6_);fill:#FD6D4D;}
	.st3{clip-path:url(#SVGID_6_);fill:none;stroke:#FD6D4D;}
	.st4{fill:#1D1D1D;}
	.st5{clip-path:url(#SVGID_8_);fill:none;stroke:#1D1D1D;}
</style>
<g>
	<defs>
		<rect id="SVGID_1_" x="25.1" y="23.4" width="218.3" height="60.2"/>
	</defs>
	<clipPath id="SVGID_2_">
		<use xlink:href="#SVGID_1_"  style="overflow:visible;"/>
	</clipPath>
	<g class="st0">
		<defs>
			<rect id="SVGID_3_" x="25.1" y="23.4" width="218.3" height="60.2"/>
		</defs>
		<clipPath id="SVGID_4_">
			<use xlink:href="#SVGID_3_"  style="overflow:visible;"/>
		</clipPath>
		<g class="st1">
			<g>
				<defs>
					<rect id="SVGID_5_" x="21.5" y="20.6" width="227.7" height="49.3"/>
				</defs>
				<clipPath id="SVGID_6_">
					<use xlink:href="#SVGID_5_"  style="overflow:visible;"/>
				</clipPath>
				<rect x="31" y="28.1" class="st2" width="208.7" height="40.3"/>
				<rect x="31" y="28.1" class="st3" width="208.7" height="40.3"/>
			</g>
		</g>
	</g>
	<g class="st0">
		<path class="st4" d="M45.3,42.4c0.5,0,0.9,0.1,1.2,0.2s0.6,0.2,0.8,0.4c0,0.3,0,0.5,0,0.9s0,0.6,0.1,0.8c-0.1,0-0.2,0.1-0.3,0.1
			c-0.1,0-0.3,0-0.4,0c-0.1-0.4-0.1-0.7-0.2-0.9c-0.1-0.2-0.2-0.4-0.3-0.6c-0.1-0.1-0.2-0.2-0.4-0.3C45.6,43,45.4,43,45.3,43
			c-0.4,0-0.7,0.1-0.9,0.3s-0.3,0.5-0.3,1c0,0.4,0.1,0.7,0.3,0.9c0.2,0.2,0.4,0.5,0.7,0.6c0.3,0.2,0.6,0.4,1,0.5s0.7,0.4,1,0.6
			c0.3,0.2,0.5,0.5,0.7,0.8c0.2,0.3,0.3,0.7,0.3,1.2c0,0.3-0.1,0.6-0.2,0.9c-0.1,0.3-0.3,0.6-0.6,0.8c-0.2,0.2-0.5,0.4-0.8,0.5
			c-0.3,0.1-0.7,0.2-1.1,0.2c-0.3,0-0.6,0-0.8,0c-0.2,0-0.4-0.1-0.6-0.1c-0.2-0.1-0.4-0.1-0.6-0.3c-0.2-0.1-0.4-0.2-0.7-0.4
			c0.1-0.3,0.1-0.7,0.1-1c0-0.3,0-0.6,0-0.9c0.1,0,0.2,0,0.3-0.1c0.1,0,0.3,0,0.4,0c0,0.3,0.1,0.6,0.1,0.9s0.2,0.5,0.3,0.7
			c0.1,0.2,0.3,0.3,0.6,0.4c0.2,0.1,0.5,0.1,0.9,0.1c0.2,0,0.5,0,0.6-0.1c0.2-0.1,0.3-0.2,0.5-0.3c0.1-0.1,0.2-0.3,0.3-0.4
			c0.1-0.2,0.1-0.3,0.1-0.5c0-0.4-0.1-0.7-0.3-0.9s-0.4-0.5-0.7-0.6c-0.3-0.2-0.6-0.3-1-0.5s-0.7-0.4-1-0.6
			c-0.3-0.2-0.5-0.5-0.7-0.8s-0.3-0.8-0.3-1.3c0-0.3,0.1-0.6,0.2-0.9c0.1-0.3,0.3-0.5,0.5-0.7s0.5-0.4,0.7-0.5
			C44.6,42.5,44.9,42.4,45.3,42.4z"/>
		<path class="st4" d="M51,49.7c0,0.4,0.1,0.7,0.2,0.9c0.1,0.2,0.3,0.2,0.6,0.2c0,0.1,0,0.2,0.1,0.3c0,0.1,0,0.2,0,0.3
			c-0.2,0-0.5,0-0.7,0c-0.3,0-0.5,0-0.8,0c-0.3,0-0.5,0-0.8,0c-0.3,0-0.5,0-0.7,0c0-0.1,0-0.2,0-0.3s0-0.2,0.1-0.3
			c0.3,0,0.6-0.1,0.7-0.2c0.1-0.2,0.2-0.5,0.2-0.9v-2.6c0-0.2,0-0.3,0-0.4s-0.1-0.2-0.1-0.3s-0.2-0.1-0.3-0.2s-0.3-0.1-0.5-0.1
			c0-0.1,0-0.2,0-0.3s0-0.2,0.1-0.2c0.1,0,0.2,0,0.4,0c0.2,0,0.3-0.1,0.5-0.1c0.2,0,0.3-0.1,0.5-0.1c0.2-0.1,0.3-0.1,0.4-0.2
			c0.1,0,0.1,0.1,0.2,0.2c0.1,0.1,0.1,0.2,0.1,0.4V49.7z M49.6,43c0-0.2,0.1-0.4,0.2-0.6c0.2-0.1,0.3-0.2,0.5-0.2
			c0.2,0,0.4,0.1,0.6,0.2c0.1,0.1,0.2,0.3,0.2,0.6c0,0.2-0.1,0.4-0.2,0.5s-0.3,0.2-0.6,0.2c-0.2,0-0.4-0.1-0.6-0.2
			C49.7,43.4,49.6,43.2,49.6,43z"/>
		<path class="st4" d="M55.3,45.3c0.3,0,0.6,0,0.8,0.1h2.1c0,0.1,0.1,0.2,0.1,0.4c0,0.1,0,0.3,0,0.4c-0.1,0-0.2-0.1-0.4-0.1
			c-0.1,0-0.3,0-0.4-0.1c-0.1,0-0.3,0-0.4-0.1H57l0.1,0.1c0.2,0.2,0.3,0.4,0.4,0.7s0.1,0.5,0.1,0.6c0,0.3,0,0.6-0.1,0.9
			c-0.1,0.3-0.2,0.5-0.4,0.7c-0.2,0.2-0.4,0.4-0.7,0.5c-0.3,0.1-0.6,0.2-1,0.2c-0.3,0-0.6,0-0.9-0.1c0,0-0.1,0-0.1,0
			c-0.1,0.1-0.2,0.2-0.2,0.3C54,49.8,54,49.9,54,50c0,0.1,0,0.2,0.1,0.3s0.1,0.1,0.3,0.2c0.1,0,0.3,0.1,0.6,0.1c0.2,0,0.6,0,1,0
			c0.4,0,0.8,0,1.1,0.1s0.5,0.1,0.7,0.2c0.2,0.1,0.3,0.3,0.4,0.4c0.1,0.2,0.1,0.4,0.1,0.7c0,0.3-0.1,0.6-0.2,0.9
			c-0.2,0.3-0.4,0.6-0.7,0.8c-0.3,0.3-0.6,0.5-1,0.6c-0.4,0.2-0.8,0.2-1.3,0.2c-0.8,0-1.4-0.1-1.7-0.4c-0.4-0.3-0.5-0.7-0.5-1.3
			c0-0.3,0.1-0.6,0.3-0.9c0.2-0.2,0.4-0.4,0.7-0.5c-0.1,0-0.2-0.1-0.2-0.1c-0.1-0.1-0.2-0.2-0.3-0.4c-0.1-0.1-0.1-0.3-0.1-0.5
			c0-0.3,0.1-0.6,0.2-0.8c0.1-0.2,0.3-0.4,0.4-0.5L53.6,49c-0.2-0.2-0.4-0.4-0.5-0.7c-0.1-0.3-0.2-0.6-0.2-0.9c0-0.3,0-0.6,0.1-0.8
			c0.1-0.3,0.2-0.5,0.4-0.7c0.2-0.2,0.4-0.3,0.7-0.5C54.5,45.3,54.9,45.3,55.3,45.3z M55,51.5c-0.3,0-0.5,0-0.7,0
			c-0.1,0.1-0.3,0.3-0.3,0.4c-0.1,0.2-0.1,0.4-0.1,0.6c0,0.4,0.1,0.8,0.3,1c0.2,0.2,0.6,0.3,1.1,0.3c0.3,0,0.5,0,0.8-0.1
			s0.4-0.2,0.6-0.3c0.2-0.1,0.3-0.3,0.4-0.5c0.1-0.2,0.1-0.4,0.1-0.5c0-0.2,0-0.3-0.1-0.4c-0.1-0.1-0.2-0.2-0.3-0.3
			s-0.4-0.1-0.7-0.2C55.8,51.6,55.4,51.5,55,51.5z M55.1,45.8c-0.2,0-0.3,0-0.4,0.1c-0.1,0.1-0.2,0.2-0.3,0.3
			c-0.1,0.1-0.1,0.3-0.2,0.4s-0.1,0.3-0.1,0.5c0,0.5,0.1,1,0.4,1.2c0.2,0.3,0.6,0.4,1,0.4c0.3,0,0.5-0.1,0.7-0.4
			c0.2-0.2,0.3-0.6,0.3-1c0-0.2,0-0.5-0.1-0.7c-0.1-0.2-0.1-0.4-0.3-0.5c-0.1-0.2-0.2-0.3-0.4-0.4S55.3,45.8,55.1,45.8z"/>
		<path class="st4" d="M65.3,49.7c0,0.5,0.1,0.8,0.2,0.9c0.1,0.2,0.3,0.2,0.6,0.2c0,0.1,0,0.2,0.1,0.2c0,0.1,0,0.2,0,0.3
			c-0.2,0-0.4,0-0.7,0c-0.2,0-0.5,0-0.8,0s-0.5,0-0.8,0c-0.3,0-0.5,0-0.7,0c0-0.3,0-0.4,0.1-0.6c0.3,0,0.5-0.1,0.7-0.2
			c0.1-0.2,0.2-0.5,0.2-0.9v-2c0-0.3,0-0.6-0.1-0.8c-0.1-0.2-0.1-0.4-0.3-0.5s-0.2-0.2-0.4-0.3s-0.3-0.1-0.5-0.1
			c-0.2,0-0.3,0-0.5,0.1c-0.2,0.1-0.3,0.2-0.5,0.4c-0.1,0.2-0.3,0.4-0.3,0.7c-0.1,0.3-0.1,0.6-0.1,1v1.4c0,0.4,0.1,0.7,0.2,0.9
			c0.1,0.2,0.4,0.2,0.7,0.2c0,0.1,0,0.2,0.1,0.2c0,0.1,0,0.2,0,0.3c-0.2,0-0.4,0-0.7,0s-0.6,0-0.8,0s-0.5,0-0.8,0
			c-0.3,0-0.5,0-0.7,0c0-0.3,0-0.4,0.1-0.6c0.3,0,0.6-0.1,0.7-0.2c0.1-0.2,0.2-0.5,0.2-0.9v-2.6c0-0.2,0-0.3,0-0.4s-0.1-0.2-0.1-0.3
			c-0.1-0.1-0.2-0.1-0.3-0.2c-0.1,0-0.3-0.1-0.5-0.1c0-0.1,0-0.2,0-0.3c0-0.1,0-0.2,0.1-0.2c0.1,0,0.3,0,0.4-0.1
			c0.2,0,0.3-0.1,0.5-0.1c0.2,0,0.3-0.1,0.5-0.1c0.1,0,0.3-0.1,0.4-0.1c0.1,0,0.1,0.1,0.2,0.2c0.1,0.1,0.1,0.2,0.1,0.4
			c0,0.1,0,0.2,0,0.4c0,0.1,0,0.3-0.1,0.4c0,0,0.1-0.1,0.1-0.1c0-0.1,0.1-0.1,0.1-0.2c0.1-0.1,0.2-0.2,0.3-0.3
			c0.1-0.1,0.3-0.2,0.4-0.3c0.2-0.1,0.3-0.2,0.5-0.2c0.2-0.1,0.4-0.1,0.6-0.1c0.2,0,0.5,0,0.7,0.1c0.2,0.1,0.4,0.2,0.6,0.4
			c0.2,0.2,0.3,0.4,0.4,0.7s0.1,0.6,0.1,1V49.7z"/>
		<path class="st4" d="M69.7,48.3c0-0.4,0.1-0.9,0.2-1.2c0.1-0.4,0.3-0.7,0.6-1c0.3-0.3,0.6-0.5,0.9-0.7s0.8-0.2,1.2-0.2
			c0.5,0,0.9,0.1,1.2,0.2s0.7,0.4,0.9,0.6c0.3,0.3,0.4,0.6,0.6,1c0.1,0.4,0.2,0.8,0.2,1.3c0,0.4-0.1,0.9-0.2,1.2
			c-0.1,0.4-0.3,0.7-0.6,1c-0.3,0.3-0.6,0.5-0.9,0.6c-0.4,0.2-0.8,0.2-1.2,0.2c-0.4,0-0.8-0.1-1.2-0.2c-0.4-0.1-0.7-0.4-0.9-0.6
			c-0.3-0.3-0.5-0.6-0.6-1C69.8,49.2,69.7,48.8,69.7,48.3z M71,48.1c0,0.9,0.2,1.6,0.5,2c0.3,0.5,0.7,0.7,1.3,0.7
			c0.5,0,0.9-0.2,1.2-0.6c0.3-0.4,0.4-1,0.4-1.7c0-0.4,0-0.8-0.1-1.1s-0.2-0.6-0.4-0.8c-0.2-0.2-0.3-0.4-0.6-0.5
			c-0.2-0.1-0.4-0.2-0.7-0.2c-0.5,0-0.9,0.2-1.1,0.6S71,47.4,71,48.1z"/>
		<path class="st4" d="M80.8,47c0-0.2,0-0.3,0-0.4c0-0.1-0.1-0.2-0.1-0.3c-0.1-0.1-0.2-0.1-0.3-0.2c-0.1,0-0.3-0.1-0.5-0.1
			c0-0.1,0-0.2,0-0.3c0-0.1,0-0.1,0.1-0.2c0.3,0,0.7-0.1,1-0.1s0.6-0.2,0.8-0.2c0.1,0,0.1,0.1,0.2,0.2c0.1,0.1,0.1,0.2,0.1,0.4v3.7
			c0,0.2,0,0.3,0,0.4c0,0.1,0.1,0.2,0.1,0.3c0.1,0.1,0.1,0.1,0.3,0.2c0.1,0,0.3,0.1,0.5,0.1c0,0.1,0,0.2,0,0.3s0,0.2-0.1,0.3
			c-0.1,0-0.2,0-0.4,0c-0.1,0-0.3,0.1-0.4,0.1c-0.2,0-0.3,0.1-0.4,0.1c-0.1,0.1-0.2,0.1-0.3,0.2c-0.1,0-0.2-0.1-0.2-0.2
			c-0.1-0.1-0.1-0.2-0.1-0.5c0-0.2,0-0.3,0-0.5v-0.1c-0.1,0.2-0.2,0.4-0.4,0.5c-0.4,0.4-1,0.7-1.6,0.7c-0.3,0-0.6,0-0.8-0.1
			c-0.2-0.1-0.4-0.2-0.6-0.4c-0.2-0.2-0.3-0.4-0.4-0.7c-0.1-0.3-0.1-0.7-0.1-1.1v-2c0-0.2,0-0.3,0-0.4s0-0.2-0.1-0.3
			c-0.1-0.1-0.1-0.1-0.3-0.2c-0.1,0-0.3-0.1-0.5-0.1c0-0.1,0-0.2,0-0.3c0-0.1,0-0.1,0.1-0.2c0.1,0,0.3,0,0.4-0.1s0.3-0.1,0.4-0.1
			c0.1,0,0.3-0.1,0.4-0.1c0.1,0,0.3-0.1,0.4-0.1c0.1,0,0.1,0.1,0.2,0.2c0.1,0.1,0.1,0.2,0.1,0.4v3c0,0.7,0.1,1.1,0.3,1.4
			c0.2,0.3,0.5,0.4,0.9,0.4c0.2,0,0.3,0,0.5-0.1c0.2-0.1,0.3-0.2,0.5-0.4c0.1-0.2,0.2-0.4,0.3-0.7c0.1-0.3,0.1-0.6,0.1-1V47z"/>
		<path class="st4" d="M86.1,47.5C86,47.6,86,47.8,86,48v1.4c0,0.3,0,0.5,0.1,0.7c0,0.2,0.1,0.3,0.2,0.4c0.1,0.1,0.2,0.2,0.4,0.2
			c0.1,0,0.3,0.1,0.5,0.1c0,0.1,0.1,0.3,0.1,0.6c-0.2,0-0.4,0-0.7,0c-0.3,0-0.6,0-0.9,0h-0.5c-0.2,0-0.3,0-0.5,0c-0.2,0-0.3,0-0.4,0
			c-0.1,0-0.2,0-0.3,0c0-0.3,0-0.4,0.1-0.6c0.3,0,0.6-0.1,0.7-0.3c0.1-0.2,0.2-0.4,0.2-0.9v-2.6c0-0.2,0-0.3,0-0.4s-0.1-0.2-0.1-0.3
			c-0.1-0.1-0.2-0.1-0.3-0.2c-0.1,0-0.3-0.1-0.5-0.1c0-0.1,0-0.2,0-0.3c0-0.1,0-0.2,0.1-0.2c0.1,0,0.3,0,0.4-0.1
			c0.2,0,0.3-0.1,0.5-0.1c0.2,0,0.3-0.1,0.5-0.1c0.1,0,0.3-0.1,0.4-0.1c0.1,0,0.1,0.1,0.2,0.2c0.1,0.1,0.1,0.2,0.1,0.4
			c0,0.3,0,0.6-0.1,0.8l-0.1,0.5c0.1-0.1,0.1-0.2,0.1-0.4c0.1-0.2,0.1-0.3,0.2-0.4c0.2-0.3,0.4-0.6,0.7-0.8c0.3-0.2,0.6-0.3,0.9-0.3
			c0.2,0,0.3,0,0.5,0.1c0.1,0.1,0.3,0.1,0.4,0.2c0,0.2-0.1,0.5-0.1,0.8c0,0.3,0,0.5,0,0.8c-0.1,0-0.2,0.1-0.3,0.1
			c-0.1,0-0.3,0-0.4,0c0-0.4-0.1-0.7-0.2-0.8c-0.1-0.1-0.3-0.2-0.4-0.2c-0.1,0-0.2,0-0.4,0.1c-0.1,0.1-0.2,0.2-0.4,0.4
			S86.2,47.2,86.1,47.5z"/>
		<path class="st4" d="M95.1,51.4c-0.3,0-0.5,0-0.7-0.1c-0.1,0-0.3-0.1-0.4-0.1v1.4c0,0.3,0,0.5,0.1,0.6c0,0.2,0.1,0.3,0.2,0.4
			c0.1,0.1,0.2,0.2,0.4,0.2s0.3,0.1,0.5,0.1c0,0.1,0.1,0.3,0.1,0.6c-0.2,0-0.4,0-0.7,0c-0.3,0-0.6,0-0.9,0h-0.5c-0.2,0-0.3,0-0.5,0
			c-0.2,0-0.3,0-0.4,0c-0.1,0-0.2,0-0.3,0c0-0.3,0-0.4,0.1-0.6c0.3,0,0.6-0.1,0.7-0.3c0.1-0.2,0.2-0.4,0.2-0.9v-5.7
			c0-0.2,0-0.3,0-0.4s-0.1-0.2-0.1-0.3c-0.1-0.1-0.2-0.1-0.3-0.2c-0.1,0-0.3-0.1-0.5-0.1c0-0.1,0-0.2,0-0.3s0-0.2,0.1-0.2
			c0.1,0,0.3,0,0.4-0.1c0.2,0,0.3-0.1,0.5-0.1c0.2,0,0.3-0.1,0.5-0.1c0.1,0,0.3-0.1,0.4-0.1c0.1,0,0.1,0.1,0.2,0.2
			c0.1,0.1,0.1,0.2,0.1,0.4c0,0.2,0,0.4-0.1,0.6c0,0.1-0.1,0.2-0.1,0.4l0.1-0.3c0.1-0.1,0.2-0.3,0.2-0.3c0.1-0.1,0.1-0.2,0.3-0.3
			s0.2-0.2,0.4-0.3c0.2-0.1,0.3-0.2,0.5-0.2c0.2-0.1,0.4-0.1,0.6-0.1c0.8,0,1.4,0.2,1.8,0.7c0.4,0.5,0.6,1.1,0.6,2.1
			c0,0.5-0.1,0.9-0.2,1.4s-0.4,0.8-0.7,1.1c-0.3,0.3-0.6,0.5-1,0.7C96,51.4,95.6,51.4,95.1,51.4z M94.1,47.4
			C94.1,47.7,94,48,94,48.4v2c0.1,0.1,0.2,0.2,0.4,0.3c0.2,0.1,0.5,0.2,0.8,0.2c0.2,0,0.4,0,0.6-0.1s0.4-0.2,0.6-0.4
			c0.2-0.2,0.4-0.4,0.5-0.8c0.1-0.3,0.2-0.7,0.2-1.3c0-0.7-0.1-1.2-0.4-1.6s-0.6-0.6-1-0.6c-0.2,0-0.4,0-0.6,0.1s-0.4,0.2-0.5,0.4
			C94.4,46.8,94.2,47.1,94.1,47.4z"/>
		<path class="st4" d="M101.5,48.4c-0.3,0-0.6,0-0.8,0c0,0.2,0,0.4,0.1,0.6c0.1,0.3,0.2,0.6,0.3,0.8c0.1,0.3,0.3,0.5,0.6,0.6
			c0.2,0.2,0.6,0.2,0.9,0.2c0.3,0,0.6-0.1,0.8-0.2c0.3-0.1,0.5-0.3,0.7-0.6c0.1,0,0.1,0.1,0.2,0.2c0.1,0.1,0.1,0.2,0.1,0.2
			c-0.3,0.4-0.6,0.7-1,0.8c-0.4,0.2-0.8,0.2-1.3,0.2c-0.5,0-0.9-0.1-1.2-0.2c-0.3-0.2-0.6-0.4-0.9-0.7c-0.2-0.3-0.4-0.6-0.5-1
			c-0.1-0.4-0.2-0.8-0.2-1.2c0-0.4,0.1-0.8,0.2-1.2c0.1-0.4,0.3-0.7,0.5-1c0.2-0.3,0.5-0.5,0.8-0.7c0.3-0.2,0.7-0.2,1.1-0.2
			c0.4,0,0.8,0.1,1.1,0.2s0.5,0.3,0.7,0.6c0.2,0.2,0.3,0.5,0.4,0.9s0.2,0.7,0.2,1c0,0.2-0.1,0.3-0.2,0.4h-0.7c-0.3,0-0.6,0-1,0
			C102.3,48.4,101.9,48.4,101.5,48.4z M100.7,47c-0.1,0.2-0.1,0.5-0.1,0.8h2.5c0-0.6-0.1-1-0.3-1.4s-0.5-0.5-0.9-0.5
			c-0.2,0-0.3,0-0.5,0.1c-0.2,0.1-0.3,0.2-0.4,0.4C100.9,46.5,100.8,46.7,100.7,47z"/>
		<path class="st4" d="M106.1,45.5v-1.7c0.2,0,0.3-0.1,0.5-0.2c0.2-0.1,0.3-0.2,0.5-0.3c0,0,0.1,0,0.1,0.1c0,0,0,0.1,0.1,0.1
			c0,0,0,0.1,0,0.2c0,0.1,0,0.2,0,0.3v1.6h1.7c0,0.2,0,0.4-0.1,0.6c-0.6,0-1.2,0.1-1.6,0.2v3.2c0,0.4,0.1,0.8,0.2,1
			c0.1,0.2,0.3,0.3,0.5,0.3c0.2,0,0.3,0,0.5-0.1s0.3-0.1,0.4-0.2c0.1,0.1,0.2,0.3,0.2,0.4c-0.1,0.2-0.4,0.3-0.6,0.4
			s-0.6,0.2-0.8,0.2c-0.5,0-0.9-0.1-1.1-0.4c-0.2-0.3-0.4-0.7-0.4-1.3v-3.5c-0.1,0-0.3-0.1-0.4-0.1c-0.1,0-0.3,0-0.5-0.1
			c0-0.1,0-0.2,0-0.3c0-0.1,0-0.2,0.1-0.3H106.1z"/>
		<path class="st4" d="M112.1,49.7c0,0.4,0.1,0.7,0.2,0.9c0.1,0.2,0.3,0.2,0.6,0.2c0,0.1,0,0.2,0.1,0.3c0,0.1,0,0.2,0,0.3
			c-0.2,0-0.5,0-0.7,0c-0.3,0-0.5,0-0.8,0c-0.3,0-0.5,0-0.8,0c-0.3,0-0.5,0-0.7,0c0-0.1,0-0.2,0-0.3s0-0.2,0.1-0.3
			c0.3,0,0.6-0.1,0.7-0.2c0.1-0.2,0.2-0.5,0.2-0.9v-2.6c0-0.2,0-0.3,0-0.4s-0.1-0.2-0.1-0.3s-0.2-0.1-0.3-0.2s-0.3-0.1-0.5-0.1
			c0-0.1,0-0.2,0-0.3s0-0.2,0.1-0.2c0.1,0,0.2,0,0.4,0c0.2,0,0.3-0.1,0.5-0.1c0.2,0,0.3-0.1,0.5-0.1c0.2-0.1,0.3-0.1,0.4-0.2
			c0.1,0,0.1,0.1,0.2,0.2c0.1,0.1,0.1,0.2,0.1,0.4V49.7z M110.7,43c0-0.2,0.1-0.4,0.2-0.6c0.2-0.1,0.3-0.2,0.5-0.2
			c0.2,0,0.4,0.1,0.6,0.2c0.1,0.1,0.2,0.3,0.2,0.6c0,0.2-0.1,0.4-0.2,0.5s-0.3,0.2-0.6,0.2c-0.2,0-0.4-0.1-0.6-0.2
			C110.8,43.4,110.7,43.2,110.7,43z"/>
		<path class="st4" d="M114.4,45.5v-1.7c0.2,0,0.3-0.1,0.5-0.2c0.2-0.1,0.3-0.2,0.5-0.3c0,0,0.1,0,0.1,0.1c0,0,0,0.1,0.1,0.1
			c0,0,0,0.1,0,0.2c0,0.1,0,0.2,0,0.3v1.6h1.7c0,0.2,0,0.4-0.1,0.6c-0.6,0-1.2,0.1-1.6,0.2v3.2c0,0.4,0.1,0.8,0.2,1
			c0.1,0.2,0.3,0.3,0.5,0.3c0.2,0,0.3,0,0.5-0.1s0.3-0.1,0.4-0.2c0.1,0.1,0.2,0.3,0.2,0.4c-0.1,0.2-0.4,0.3-0.6,0.4
			s-0.6,0.2-0.8,0.2c-0.5,0-0.9-0.1-1.1-0.4c-0.2-0.3-0.4-0.7-0.4-1.3v-3.5c-0.1,0-0.3-0.1-0.4-0.1c-0.1,0-0.3,0-0.5-0.1
			c0-0.1,0-0.2,0-0.3c0-0.1,0-0.2,0.1-0.3H114.4z"/>
		<path class="st4" d="M120.4,49.7c0,0.4,0.1,0.7,0.2,0.9c0.1,0.2,0.3,0.2,0.6,0.2c0,0.1,0,0.2,0.1,0.3c0,0.1,0,0.2,0,0.3
			c-0.2,0-0.5,0-0.7,0c-0.3,0-0.5,0-0.8,0c-0.3,0-0.5,0-0.8,0c-0.3,0-0.5,0-0.7,0c0-0.1,0-0.2,0-0.3s0-0.2,0.1-0.3
			c0.3,0,0.6-0.1,0.7-0.2c0.1-0.2,0.2-0.5,0.2-0.9v-2.6c0-0.2,0-0.3,0-0.4s-0.1-0.2-0.1-0.3s-0.2-0.1-0.3-0.2s-0.3-0.1-0.5-0.1
			c0-0.1,0-0.2,0-0.3s0-0.2,0.1-0.2c0.1,0,0.2,0,0.4,0c0.2,0,0.3-0.1,0.5-0.1c0.2,0,0.3-0.1,0.5-0.1c0.2-0.1,0.3-0.1,0.4-0.2
			c0.1,0,0.1,0.1,0.2,0.2c0.1,0.1,0.1,0.2,0.1,0.4V49.7z M119,43c0-0.2,0.1-0.4,0.2-0.6c0.2-0.1,0.3-0.2,0.5-0.2
			c0.2,0,0.4,0.1,0.6,0.2c0.1,0.1,0.2,0.3,0.2,0.6c0,0.2-0.1,0.4-0.2,0.5s-0.3,0.2-0.6,0.2c-0.2,0-0.4-0.1-0.6-0.2
			C119,43.4,119,43.2,119,43z"/>
		<path class="st4" d="M122,48.3c0-0.4,0.1-0.9,0.2-1.2c0.1-0.4,0.3-0.7,0.6-1s0.6-0.5,0.9-0.7c0.4-0.2,0.8-0.2,1.2-0.2
			c0.5,0,0.9,0.1,1.2,0.2c0.4,0.1,0.7,0.4,0.9,0.6c0.3,0.3,0.4,0.6,0.6,1c0.1,0.4,0.2,0.8,0.2,1.3c0,0.4-0.1,0.9-0.2,1.2
			c-0.1,0.4-0.3,0.7-0.6,1c-0.3,0.3-0.6,0.5-0.9,0.6s-0.8,0.2-1.2,0.2c-0.4,0-0.8-0.1-1.2-0.2c-0.4-0.1-0.7-0.4-0.9-0.6
			s-0.5-0.6-0.6-1C122.1,49.2,122,48.8,122,48.3z M123.3,48.1c0,0.9,0.2,1.6,0.5,2c0.3,0.5,0.7,0.7,1.3,0.7c0.5,0,0.9-0.2,1.2-0.6
			s0.4-1,0.4-1.7c0-0.4,0-0.8-0.1-1.1c-0.1-0.3-0.2-0.6-0.4-0.8s-0.3-0.4-0.6-0.5c-0.2-0.1-0.4-0.2-0.7-0.2c-0.5,0-0.9,0.2-1.1,0.6
			S123.3,47.4,123.3,48.1z"/>
		<path class="st4" d="M134.7,49.7c0,0.5,0.1,0.8,0.2,0.9c0.1,0.2,0.3,0.2,0.6,0.2c0,0.1,0,0.2,0.1,0.2c0,0.1,0,0.2,0,0.3
			c-0.2,0-0.4,0-0.6,0c-0.2,0-0.5,0-0.8,0s-0.5,0-0.8,0c-0.3,0-0.5,0-0.7,0c0-0.3,0-0.4,0.1-0.6c0.3,0,0.5-0.1,0.7-0.2
			c0.1-0.2,0.2-0.5,0.2-0.9v-2c0-0.3,0-0.6-0.1-0.8c-0.1-0.2-0.1-0.4-0.3-0.5s-0.2-0.2-0.4-0.3s-0.3-0.1-0.5-0.1
			c-0.2,0-0.3,0-0.5,0.1c-0.2,0.1-0.3,0.2-0.5,0.4c-0.1,0.2-0.3,0.4-0.3,0.7c-0.1,0.3-0.1,0.6-0.1,1v1.4c0,0.4,0.1,0.7,0.2,0.9
			c0.1,0.2,0.4,0.2,0.7,0.2c0,0.1,0,0.2,0.1,0.2c0,0.1,0,0.2,0,0.3c-0.2,0-0.4,0-0.7,0c-0.3,0-0.6,0-0.8,0s-0.5,0-0.8,0
			c-0.3,0-0.5,0-0.7,0c0-0.3,0-0.4,0.1-0.6c0.3,0,0.6-0.1,0.7-0.2c0.1-0.2,0.2-0.5,0.2-0.9v-2.6c0-0.2,0-0.3,0-0.4
			c0-0.1-0.1-0.2-0.1-0.3c-0.1-0.1-0.2-0.1-0.3-0.2c-0.1,0-0.3-0.1-0.5-0.1c0-0.1,0-0.2,0-0.3s0-0.2,0.1-0.2c0.1,0,0.3,0,0.4-0.1
			s0.3-0.1,0.5-0.1c0.2,0,0.3-0.1,0.5-0.1c0.1,0,0.3-0.1,0.4-0.1c0.1,0,0.1,0.1,0.2,0.2c0.1,0.1,0.1,0.2,0.1,0.4c0,0.1,0,0.2,0,0.4
			c0,0.1,0,0.3-0.1,0.4c0,0,0.1-0.1,0.1-0.1c0-0.1,0.1-0.1,0.1-0.2c0.1-0.1,0.2-0.2,0.3-0.3s0.3-0.2,0.4-0.3s0.3-0.2,0.5-0.2
			c0.2-0.1,0.4-0.1,0.6-0.1c0.2,0,0.5,0,0.7,0.1c0.2,0.1,0.4,0.2,0.6,0.4c0.2,0.2,0.3,0.4,0.4,0.7s0.1,0.6,0.1,1V49.7z"/>
		<path class="st4" d="M139.1,48.3c0-0.4,0.1-0.9,0.2-1.2c0.1-0.4,0.3-0.7,0.6-1c0.3-0.3,0.6-0.5,0.9-0.7s0.8-0.2,1.2-0.2
			c0.5,0,0.9,0.1,1.2,0.2s0.7,0.4,0.9,0.6c0.3,0.3,0.4,0.6,0.6,1c0.1,0.4,0.2,0.8,0.2,1.3c0,0.4-0.1,0.9-0.2,1.2
			c-0.1,0.4-0.3,0.7-0.6,1c-0.3,0.3-0.6,0.5-0.9,0.6c-0.4,0.2-0.8,0.2-1.2,0.2c-0.4,0-0.8-0.1-1.2-0.2c-0.4-0.1-0.7-0.4-0.9-0.6
			c-0.3-0.3-0.5-0.6-0.6-1C139.1,49.2,139.1,48.8,139.1,48.3z M140.4,48.1c0,0.9,0.2,1.6,0.5,2c0.3,0.5,0.7,0.7,1.3,0.7
			c0.5,0,0.9-0.2,1.2-0.6c0.3-0.4,0.4-1,0.4-1.7c0-0.4,0-0.8-0.1-1.1s-0.2-0.6-0.4-0.8c-0.2-0.2-0.3-0.4-0.6-0.5
			c-0.2-0.1-0.4-0.2-0.7-0.2c-0.5,0-0.9,0.2-1.1,0.6S140.4,47.4,140.4,48.1z"/>
		<path class="st4" d="M151.7,49.7c0,0.5,0.1,0.8,0.2,0.9c0.1,0.2,0.3,0.2,0.6,0.2c0,0.1,0,0.2,0.1,0.2c0,0.1,0,0.2,0,0.3
			c-0.2,0-0.4,0-0.7,0c-0.2,0-0.5,0-0.8,0s-0.5,0-0.8,0c-0.3,0-0.5,0-0.7,0c0-0.3,0-0.4,0.1-0.6c0.3,0,0.5-0.1,0.7-0.2
			c0.1-0.2,0.2-0.5,0.2-0.9v-2c0-0.3,0-0.6-0.1-0.8c-0.1-0.2-0.1-0.4-0.3-0.5s-0.2-0.2-0.4-0.3s-0.3-0.1-0.5-0.1
			c-0.2,0-0.3,0-0.5,0.1c-0.2,0.1-0.3,0.2-0.5,0.4c-0.1,0.2-0.3,0.4-0.3,0.7c-0.1,0.3-0.1,0.6-0.1,1v1.4c0,0.4,0.1,0.7,0.2,0.9
			c0.1,0.2,0.4,0.2,0.7,0.2c0,0.1,0,0.2,0.1,0.2c0,0.1,0,0.2,0,0.3c-0.2,0-0.4,0-0.7,0s-0.6,0-0.8,0s-0.5,0-0.8,0
			c-0.3,0-0.5,0-0.7,0c0-0.3,0-0.4,0.1-0.6c0.3,0,0.6-0.1,0.7-0.2c0.1-0.2,0.2-0.5,0.2-0.9v-2.6c0-0.2,0-0.3,0-0.4s-0.1-0.2-0.1-0.3
			c-0.1-0.1-0.2-0.1-0.3-0.2c-0.1,0-0.3-0.1-0.5-0.1c0-0.1,0-0.2,0-0.3c0-0.1,0-0.2,0.1-0.2c0.1,0,0.3,0,0.4-0.1
			c0.2,0,0.3-0.1,0.5-0.1c0.2,0,0.3-0.1,0.5-0.1c0.1,0,0.3-0.1,0.4-0.1c0.1,0,0.1,0.1,0.2,0.2c0.1,0.1,0.1,0.2,0.1,0.4
			c0,0.1,0,0.2,0,0.4c0,0.1,0,0.3-0.1,0.4c0,0,0.1-0.1,0.1-0.1c0-0.1,0.1-0.1,0.1-0.2c0.1-0.1,0.2-0.2,0.3-0.3
			c0.1-0.1,0.3-0.2,0.4-0.3c0.2-0.1,0.3-0.2,0.5-0.2c0.2-0.1,0.4-0.1,0.6-0.1c0.2,0,0.5,0,0.7,0.1c0.2,0.1,0.4,0.2,0.6,0.4
			c0.2,0.2,0.3,0.4,0.4,0.7s0.1,0.6,0.1,1V49.7z"/>
		<path class="st4" d="M160.9,50.3c-0.2,0.4-0.5,0.7-0.9,0.8s-0.8,0.3-1.3,0.3c-0.3,0-0.7-0.1-1-0.2s-0.6-0.3-0.9-0.6
			s-0.5-0.6-0.6-1c-0.2-0.4-0.2-0.8-0.2-1.3c0-0.4,0.1-0.8,0.2-1.1c0.1-0.4,0.3-0.7,0.5-1s0.5-0.5,0.8-0.7c0.3-0.2,0.7-0.3,1.2-0.3
			c0.8,0,1.5,0.2,2,0.6c0,0.3-0.1,0.5-0.1,0.7c0,0.2,0,0.5,0,0.7c-0.1,0-0.2,0.1-0.3,0.1c-0.1,0-0.2,0-0.3,0
			c-0.1-0.5-0.2-0.9-0.4-1.2s-0.6-0.4-0.9-0.4c-0.4,0-0.8,0.2-1,0.6c-0.2,0.4-0.4,1-0.4,1.7c0,0.3,0,0.6,0.1,0.9
			c0.1,0.3,0.2,0.6,0.4,0.8c0.2,0.2,0.3,0.4,0.6,0.6s0.5,0.2,0.8,0.2c0.6,0,1.1-0.3,1.4-0.8c0.1,0,0.1,0.1,0.2,0.1
			S160.9,50.2,160.9,50.3z"/>
		<path class="st4" d="M167.8,49.7c0,0.5,0.1,0.8,0.2,0.9c0.1,0.2,0.3,0.2,0.6,0.2c0,0.1,0,0.2,0.1,0.2c0,0.1,0,0.2,0,0.3
			c-0.2,0-0.4,0-0.7,0c-0.2,0-0.5,0-0.8,0s-0.5,0-0.8,0c-0.3,0-0.5,0-0.7,0c0-0.3,0-0.4,0.1-0.6c0.3,0,0.5-0.1,0.7-0.2
			c0.1-0.2,0.2-0.5,0.2-0.9v-2c0-0.3,0-0.6-0.1-0.8c-0.1-0.2-0.1-0.4-0.3-0.5s-0.2-0.2-0.4-0.3s-0.3-0.1-0.5-0.1
			c-0.2,0-0.3,0-0.5,0.1c-0.2,0.1-0.3,0.2-0.5,0.4c-0.1,0.2-0.3,0.4-0.3,0.7c-0.1,0.3-0.1,0.6-0.1,1v1.4c0,0.4,0.1,0.7,0.2,0.9
			c0.1,0.2,0.4,0.2,0.7,0.2c0,0.1,0,0.2,0.1,0.2c0,0.1,0,0.2,0,0.3c-0.2,0-0.4,0-0.7,0s-0.6,0-0.8,0c-0.3,0-0.5,0-0.8,0
			c-0.3,0-0.5,0-0.7,0c0-0.3,0-0.4,0.1-0.6c0.3,0,0.6-0.1,0.7-0.2c0.1-0.2,0.2-0.5,0.2-0.9v-5.8c0-0.2,0-0.3,0-0.4s-0.1-0.2-0.1-0.3
			s-0.2-0.1-0.3-0.2s-0.3-0.1-0.5-0.1c0-0.1,0-0.2,0-0.3c0-0.1,0-0.2,0.1-0.2c0.1,0,0.2,0,0.4,0c0.2,0,0.3-0.1,0.5-0.1
			c0.2,0,0.3-0.1,0.5-0.1c0.2-0.1,0.3-0.1,0.4-0.2c0.1,0,0.1,0.1,0.2,0.2s0.1,0.2,0.1,0.4v3.3c0,0.1,0,0.2,0,0.4
			c0,0.1,0,0.3-0.1,0.4c0,0,0.1-0.1,0.1-0.1c0-0.1,0.1-0.1,0.1-0.2c0.1-0.1,0.2-0.2,0.3-0.3s0.3-0.2,0.4-0.3
			c0.2-0.1,0.3-0.2,0.5-0.2c0.2-0.1,0.4-0.1,0.6-0.1c0.2,0,0.5,0,0.7,0.1c0.2,0.1,0.4,0.2,0.6,0.4c0.2,0.2,0.3,0.4,0.4,0.7
			s0.1,0.6,0.1,1V49.7z"/>
		<path class="st4" d="M174.1,49.4c0,0.4,0,0.7,0.1,0.8c0.1,0.1,0.3,0.2,0.6,0.2c0,0.1,0,0.2,0,0.3c0,0.1,0,0.2-0.1,0.3
			c-0.2,0-0.5,0.1-0.7,0.2c-0.3,0.1-0.5,0.2-0.7,0.2c-0.1,0-0.2-0.1-0.2-0.2c-0.1-0.1-0.1-0.2-0.1-0.4c0-0.1,0-0.2,0-0.3
			s0-0.2,0-0.2c0,0.1-0.1,0.2-0.1,0.3c-0.1,0.1-0.2,0.2-0.3,0.4c-0.1,0.1-0.3,0.2-0.5,0.3c-0.2,0.1-0.5,0.1-0.8,0.1
			c-0.6,0-1-0.1-1.3-0.4c-0.3-0.2-0.4-0.6-0.4-1c0-0.4,0.1-0.8,0.4-1s0.5-0.5,0.9-0.6c0.4-0.2,0.7-0.3,1.1-0.4
			c0.4-0.1,0.7-0.1,1-0.2c0-0.3,0-0.5,0-0.7c0-0.2,0-0.3,0-0.4c0-0.1,0-0.2-0.1-0.3c0-0.1-0.1-0.2-0.1-0.2c-0.2-0.3-0.5-0.4-0.8-0.4
			c-0.2,0-0.4,0.1-0.5,0.2c-0.1,0.1-0.3,0.2-0.3,0.4s-0.2,0.3-0.2,0.5c0,0.2-0.1,0.3-0.1,0.5c-0.1,0-0.2,0-0.4,0
			c-0.1,0-0.2,0-0.3-0.1c0-0.2,0-0.5,0-0.7c0-0.3,0-0.5-0.1-0.7c0.3-0.2,0.7-0.3,1.1-0.4c0.4-0.1,0.8-0.2,1.2-0.2
			c0.3,0,0.5,0,0.8,0.1s0.4,0.2,0.6,0.4c0.1,0.1,0.2,0.2,0.3,0.4s0.1,0.3,0.2,0.5s0.1,0.4,0.1,0.6c0,0.2,0,0.5,0,0.8V49.4z
			 M173,48.4c-0.2,0-0.5,0.1-0.7,0.1c-0.2,0-0.5,0.1-0.7,0.2c-0.2,0.1-0.4,0.2-0.5,0.4c-0.1,0.2-0.2,0.4-0.2,0.7
			c0,0.3,0.1,0.6,0.2,0.7s0.3,0.2,0.5,0.2c0.1,0,0.3,0,0.4-0.1s0.3-0.2,0.4-0.3c0.1-0.1,0.2-0.3,0.3-0.6c0.1-0.2,0.1-0.5,0.1-0.8
			V48.4z"/>
		<path class="st4" d="M181.8,49.7c0,0.5,0.1,0.8,0.2,0.9c0.1,0.2,0.3,0.2,0.6,0.2c0,0.1,0,0.2,0.1,0.2c0,0.1,0,0.2,0,0.3
			c-0.2,0-0.4,0-0.7,0c-0.2,0-0.5,0-0.8,0s-0.5,0-0.8,0c-0.3,0-0.5,0-0.7,0c0-0.3,0-0.4,0.1-0.6c0.3,0,0.5-0.1,0.7-0.2
			c0.1-0.2,0.2-0.5,0.2-0.9v-2c0-0.3,0-0.6-0.1-0.8c-0.1-0.2-0.1-0.4-0.3-0.5s-0.2-0.2-0.4-0.3s-0.3-0.1-0.5-0.1
			c-0.2,0-0.3,0-0.5,0.1c-0.2,0.1-0.3,0.2-0.5,0.4c-0.1,0.2-0.3,0.4-0.3,0.7c-0.1,0.3-0.1,0.6-0.1,1v1.4c0,0.4,0.1,0.7,0.2,0.9
			c0.1,0.2,0.4,0.2,0.7,0.2c0,0.1,0,0.2,0.1,0.2c0,0.1,0,0.2,0,0.3c-0.2,0-0.4,0-0.7,0s-0.6,0-0.8,0s-0.5,0-0.8,0
			c-0.3,0-0.5,0-0.7,0c0-0.3,0-0.4,0.1-0.6c0.3,0,0.6-0.1,0.7-0.2c0.1-0.2,0.2-0.5,0.2-0.9v-2.6c0-0.2,0-0.3,0-0.4s-0.1-0.2-0.1-0.3
			c-0.1-0.1-0.2-0.1-0.3-0.2c-0.1,0-0.3-0.1-0.5-0.1c0-0.1,0-0.2,0-0.3c0-0.1,0-0.2,0.1-0.2c0.1,0,0.3,0,0.4-0.1
			c0.2,0,0.3-0.1,0.5-0.1c0.2,0,0.3-0.1,0.5-0.1c0.1,0,0.3-0.1,0.4-0.1c0.1,0,0.1,0.1,0.2,0.2c0.1,0.1,0.1,0.2,0.1,0.4
			c0,0.1,0,0.2,0,0.4c0,0.1,0,0.3-0.1,0.4c0,0,0.1-0.1,0.1-0.1c0-0.1,0.1-0.1,0.1-0.2c0.1-0.1,0.2-0.2,0.3-0.3
			c0.1-0.1,0.3-0.2,0.4-0.3c0.2-0.1,0.3-0.2,0.5-0.2c0.2-0.1,0.4-0.1,0.6-0.1c0.2,0,0.5,0,0.7,0.1c0.2,0.1,0.4,0.2,0.6,0.4
			c0.2,0.2,0.3,0.4,0.4,0.7s0.1,0.6,0.1,1V49.7z"/>
		<path class="st4" d="M186,45.3c0.3,0,0.6,0,0.8,0.1h2.1c0,0.1,0.1,0.2,0.1,0.4c0,0.1,0,0.3,0,0.4c-0.1,0-0.2-0.1-0.4-0.1
			c-0.1,0-0.3,0-0.4-0.1c-0.1,0-0.3,0-0.4-0.1h-0.1l0.1,0.1c0.2,0.2,0.3,0.4,0.4,0.7c0.1,0.2,0.1,0.5,0.1,0.6c0,0.3,0,0.6-0.1,0.9
			c-0.1,0.3-0.2,0.5-0.4,0.7c-0.2,0.2-0.4,0.4-0.7,0.5c-0.3,0.1-0.6,0.2-1,0.2c-0.3,0-0.6,0-0.9-0.1c0,0-0.1,0-0.1,0
			c-0.1,0.1-0.2,0.2-0.2,0.3c-0.1,0.1-0.1,0.2-0.1,0.3c0,0.1,0,0.2,0.1,0.3s0.1,0.1,0.3,0.2c0.1,0,0.3,0.1,0.6,0.1c0.2,0,0.6,0,1,0
			c0.4,0,0.8,0,1.1,0.1c0.3,0.1,0.5,0.1,0.7,0.2c0.2,0.1,0.3,0.3,0.4,0.4c0.1,0.2,0.1,0.4,0.1,0.7c0,0.3-0.1,0.6-0.2,0.9
			s-0.4,0.6-0.7,0.8c-0.3,0.3-0.6,0.5-1,0.6c-0.4,0.2-0.8,0.2-1.3,0.2c-0.8,0-1.4-0.1-1.7-0.4c-0.4-0.3-0.5-0.7-0.5-1.3
			c0-0.3,0.1-0.6,0.3-0.9c0.2-0.2,0.4-0.4,0.7-0.5c-0.1,0-0.2-0.1-0.2-0.1c-0.1-0.1-0.2-0.2-0.3-0.4s-0.1-0.3-0.1-0.5
			c0-0.3,0.1-0.6,0.2-0.8c0.1-0.2,0.3-0.4,0.4-0.5l-0.1-0.1c-0.2-0.2-0.4-0.4-0.5-0.7c-0.1-0.3-0.2-0.6-0.2-0.9c0-0.3,0-0.6,0.1-0.8
			c0.1-0.3,0.2-0.5,0.4-0.7c0.2-0.2,0.4-0.3,0.7-0.5C185.3,45.3,185.6,45.3,186,45.3z M185.7,51.5c-0.3,0-0.5,0-0.7,0
			c-0.1,0.1-0.3,0.3-0.3,0.4c-0.1,0.2-0.1,0.4-0.1,0.6c0,0.4,0.1,0.8,0.3,1s0.6,0.3,1.1,0.3c0.3,0,0.5,0,0.8-0.1
			c0.2-0.1,0.4-0.2,0.6-0.3s0.3-0.3,0.4-0.5c0.1-0.2,0.1-0.4,0.1-0.5c0-0.2,0-0.3-0.1-0.4c-0.1-0.1-0.2-0.2-0.3-0.3
			c-0.2-0.1-0.4-0.1-0.7-0.2C186.5,51.6,186.2,51.5,185.7,51.5z M185.9,45.8c-0.2,0-0.3,0-0.4,0.1c-0.1,0.1-0.2,0.2-0.3,0.3
			s-0.1,0.3-0.2,0.4s-0.1,0.3-0.1,0.5c0,0.5,0.1,1,0.4,1.2c0.2,0.3,0.6,0.4,1,0.4c0.3,0,0.5-0.1,0.7-0.4c0.2-0.2,0.3-0.6,0.3-1
			c0-0.2,0-0.5-0.1-0.7c-0.1-0.2-0.1-0.4-0.3-0.5c-0.1-0.2-0.2-0.3-0.4-0.4C186.3,45.9,186.1,45.8,185.9,45.8z"/>
		<path class="st4" d="M191.9,48.4c-0.3,0-0.6,0-0.8,0c0,0.2,0,0.4,0.1,0.6c0.1,0.3,0.2,0.6,0.3,0.8c0.1,0.3,0.3,0.5,0.6,0.6
			c0.2,0.2,0.6,0.2,0.9,0.2c0.3,0,0.6-0.1,0.8-0.2c0.3-0.1,0.5-0.3,0.7-0.6c0.1,0,0.1,0.1,0.2,0.2c0.1,0.1,0.1,0.2,0.1,0.2
			c-0.3,0.4-0.6,0.7-1,0.8c-0.4,0.2-0.8,0.2-1.3,0.2c-0.5,0-0.9-0.1-1.2-0.2c-0.3-0.2-0.6-0.4-0.9-0.7c-0.2-0.3-0.4-0.6-0.5-1
			c-0.1-0.4-0.2-0.8-0.2-1.2c0-0.4,0.1-0.8,0.2-1.2c0.1-0.4,0.3-0.7,0.5-1c0.2-0.3,0.5-0.5,0.8-0.7c0.3-0.2,0.7-0.2,1.1-0.2
			c0.4,0,0.8,0.1,1.1,0.2s0.5,0.3,0.7,0.6c0.2,0.2,0.3,0.5,0.4,0.9s0.2,0.7,0.2,1c0,0.2-0.1,0.3-0.2,0.4h-0.7c-0.3,0-0.6,0-1,0
			C192.7,48.4,192.3,48.4,191.9,48.4z M191.2,47c-0.1,0.2-0.1,0.5-0.1,0.8h2.5c0-0.6-0.1-1-0.3-1.4s-0.5-0.5-0.9-0.5
			c-0.2,0-0.3,0-0.5,0.1c-0.2,0.1-0.3,0.2-0.4,0.4C191.4,46.5,191.3,46.7,191.2,47z"/>
		<path class="st4" d="M196.9,50c0.2,0,0.4,0.1,0.5,0.2c0.1,0.2,0.2,0.3,0.2,0.4c0,0.3-0.1,0.5-0.2,0.6c-0.2,0.1-0.3,0.2-0.5,0.2
			c-0.2,0-0.4-0.1-0.5-0.2s-0.2-0.3-0.2-0.5s0.1-0.4,0.2-0.5C196.4,50.1,196.6,50,196.9,50z"/>
		<path class="st4" d="M198.6,48.3c0-0.4,0.1-0.9,0.2-1.2c0.1-0.4,0.3-0.7,0.6-1c0.3-0.3,0.6-0.5,0.9-0.7s0.8-0.2,1.2-0.2
			c0.5,0,0.9,0.1,1.2,0.2s0.7,0.4,0.9,0.6c0.3,0.3,0.4,0.6,0.6,1c0.1,0.4,0.2,0.8,0.2,1.3c0,0.4-0.1,0.9-0.2,1.2
			c-0.1,0.4-0.3,0.7-0.6,1c-0.3,0.3-0.6,0.5-0.9,0.6c-0.4,0.2-0.8,0.2-1.2,0.2c-0.4,0-0.8-0.1-1.2-0.2c-0.4-0.1-0.7-0.4-0.9-0.6
			c-0.3-0.3-0.5-0.6-0.6-1C198.6,49.2,198.6,48.8,198.6,48.3z M199.9,48.1c0,0.9,0.2,1.6,0.5,2c0.3,0.5,0.7,0.7,1.3,0.7
			c0.5,0,0.9-0.2,1.2-0.6c0.3-0.4,0.4-1,0.4-1.7c0-0.4,0-0.8-0.1-1.1s-0.2-0.6-0.4-0.8c-0.2-0.2-0.3-0.4-0.6-0.5
			c-0.2-0.1-0.4-0.2-0.7-0.2c-0.5,0-0.9,0.2-1.1,0.6S199.9,47.4,199.9,48.1z"/>
		<path class="st4" d="M207.4,47.5c-0.1,0.2-0.1,0.4-0.1,0.6v1.4c0,0.3,0,0.5,0.1,0.7c0,0.2,0.1,0.3,0.2,0.4
			c0.1,0.1,0.2,0.2,0.4,0.2c0.1,0,0.3,0.1,0.5,0.1c0,0.1,0.1,0.3,0.1,0.6c-0.2,0-0.4,0-0.7,0c-0.3,0-0.6,0-0.9,0h-0.5
			c-0.2,0-0.3,0-0.5,0c-0.2,0-0.3,0-0.4,0c-0.1,0-0.2,0-0.3,0c0-0.3,0-0.4,0.1-0.6c0.3,0,0.6-0.1,0.7-0.3c0.1-0.2,0.2-0.4,0.2-0.9
			v-2.6c0-0.2,0-0.3,0-0.4s-0.1-0.2-0.1-0.3c-0.1-0.1-0.2-0.1-0.3-0.2c-0.1,0-0.3-0.1-0.5-0.1c0-0.1,0-0.2,0-0.3
			c0-0.1,0-0.2,0.1-0.2c0.1,0,0.3,0,0.4-0.1c0.2,0,0.3-0.1,0.5-0.1c0.2,0,0.3-0.1,0.5-0.1c0.1,0,0.3-0.1,0.4-0.1
			c0.1,0,0.1,0.1,0.2,0.2c0.1,0.1,0.1,0.2,0.1,0.4c0,0.3,0,0.6-0.1,0.8l-0.1,0.5c0.1-0.1,0.1-0.2,0.1-0.4c0.1-0.2,0.1-0.3,0.2-0.4
			c0.2-0.3,0.4-0.6,0.7-0.8c0.3-0.2,0.6-0.3,0.9-0.3c0.2,0,0.3,0,0.5,0.1c0.1,0.1,0.3,0.1,0.4,0.2c0,0.2-0.1,0.5-0.1,0.8
			c0,0.3,0,0.5,0,0.8c-0.1,0-0.2,0.1-0.3,0.1c-0.1,0-0.3,0-0.4,0c0-0.4-0.1-0.7-0.2-0.8c-0.1-0.1-0.3-0.2-0.4-0.2
			c-0.1,0-0.2,0-0.4,0.1c-0.1,0.1-0.2,0.2-0.4,0.4S207.5,47.2,207.4,47.5z"/>
		<path class="st4" d="M213.2,45.3c0.3,0,0.6,0,0.8,0.1h2.1c0,0.1,0.1,0.2,0.1,0.4c0,0.1,0,0.3,0,0.4c-0.1,0-0.2-0.1-0.4-0.1
			c-0.1,0-0.3,0-0.4-0.1c-0.1,0-0.3,0-0.4-0.1H215l0.1,0.1c0.2,0.2,0.3,0.4,0.4,0.7c0.1,0.2,0.1,0.5,0.1,0.6c0,0.3,0,0.6-0.1,0.9
			c-0.1,0.3-0.2,0.5-0.4,0.7c-0.2,0.2-0.4,0.4-0.7,0.5c-0.3,0.1-0.6,0.2-1,0.2c-0.3,0-0.6,0-0.9-0.1c0,0-0.1,0-0.1,0
			c-0.1,0.1-0.2,0.2-0.2,0.3c-0.1,0.1-0.1,0.2-0.1,0.3c0,0.1,0,0.2,0.1,0.3s0.1,0.1,0.3,0.2c0.1,0,0.3,0.1,0.6,0.1c0.2,0,0.6,0,1,0
			c0.4,0,0.8,0,1.1,0.1c0.3,0.1,0.5,0.1,0.7,0.2c0.2,0.1,0.3,0.3,0.4,0.4c0.1,0.2,0.1,0.4,0.1,0.7c0,0.3-0.1,0.6-0.2,0.9
			s-0.4,0.6-0.7,0.8c-0.3,0.3-0.6,0.5-1,0.6c-0.4,0.2-0.8,0.2-1.3,0.2c-0.8,0-1.4-0.1-1.7-0.4c-0.4-0.3-0.5-0.7-0.5-1.3
			c0-0.3,0.1-0.6,0.3-0.9c0.2-0.2,0.4-0.4,0.7-0.5c-0.1,0-0.2-0.1-0.2-0.1c-0.1-0.1-0.2-0.2-0.3-0.4s-0.1-0.3-0.1-0.5
			c0-0.3,0.1-0.6,0.2-0.8c0.1-0.2,0.3-0.4,0.4-0.5l-0.1-0.1c-0.2-0.2-0.4-0.4-0.5-0.7c-0.1-0.3-0.2-0.6-0.2-0.9c0-0.3,0-0.6,0.1-0.8
			c0.1-0.3,0.2-0.5,0.4-0.7c0.2-0.2,0.4-0.3,0.7-0.5C212.5,45.3,212.8,45.3,213.2,45.3z M213,51.5c-0.3,0-0.5,0-0.7,0
			c-0.1,0.1-0.3,0.3-0.3,0.4c-0.1,0.2-0.1,0.4-0.1,0.6c0,0.4,0.1,0.8,0.3,1s0.6,0.3,1.1,0.3c0.3,0,0.5,0,0.8-0.1
			c0.2-0.1,0.4-0.2,0.6-0.3s0.3-0.3,0.4-0.5c0.1-0.2,0.1-0.4,0.1-0.5c0-0.2,0-0.3-0.1-0.4c-0.1-0.1-0.2-0.2-0.3-0.3
			c-0.2-0.1-0.4-0.1-0.7-0.2C213.8,51.6,213.4,51.5,213,51.5z M213.1,45.8c-0.2,0-0.3,0-0.4,0.1c-0.1,0.1-0.2,0.2-0.3,0.3
			s-0.1,0.3-0.2,0.4s-0.1,0.3-0.1,0.5c0,0.5,0.1,1,0.4,1.2c0.2,0.3,0.6,0.4,1,0.4c0.3,0,0.5-0.1,0.7-0.4c0.2-0.2,0.3-0.6,0.3-1
			c0-0.2,0-0.5-0.1-0.7c-0.1-0.2-0.1-0.4-0.3-0.5c-0.1-0.2-0.2-0.3-0.4-0.4C213.5,45.9,213.3,45.8,213.1,45.8z"/>
	</g>
	<g class="st0">
		<defs>
			<rect id="SVGID_7_" x="25.1" y="23.4" width="218.3" height="60.2"/>
		</defs>
		<clipPath id="SVGID_8_">
			<use xlink:href="#SVGID_7_"  style="overflow:visible;"/>
		</clipPath>
		<rect x="25.6" y="23.9" class="st5" width="210.4" height="40.2"/>
	</g>
</g>
</svg>
