<?xml version="1.0" encoding="utf-8"?>
<!-- Generator: Adobe Illustrator 19.1.0, SVG Export Plug-In . SVG Version: 6.00 Build 0)  -->
<svg version="1.1" id="DensityDesign_Logo" xmlns="http://www.w3.org/2000/svg" xmlns:xlink="http://www.w3.org/1999/xlink" x="0px"
	 y="0px" viewBox="-709 291 500 500" style="enable-background:new -709 291 500 500;" xml:space="preserve">
<style type="text/css">
	.st0{fill:#FD6D4D;}
</style>
<rect x="-349.1" y="402.4" class="st0" width="47.2" height="7.7"/>
<path class="st0" d="M-505.4,452.4V367h27.7v12.3h-14.5v23.3h9.6v11.7h-9.6v25.4h14.5v12.7H-505.4z"/>
<path class="st0" d="M-395.6,452.4l-14.5-43.2l-4.1-13.7v56.9h-8.7V367h8.3l13.2,43.8l3.8,13.9V367h8.7v85.4H-395.6L-395.6,452.4z"
	/>
<path class="st0" d="M-498.8,580.1v-85.4h13.2v85.4H-498.8z"/>
<path class="st0" d="M-569.4,704.1l-1.4-4.5c-1.8,3.8-5.5,5.8-9.4,5.8c-9,0-14.7-6.5-14.7-16.8v-54.4c0-9.2,7.1-16.8,16.5-16.8
	c9.5,0,16,7.6,16,16.8V650h-12.3v-16.3c0-2.1-1.2-3.5-3.5-3.5c-2.2,0-3.6,1.4-3.6,3.5v56c0,2.2,1.4,3.7,3.6,3.7
	c2.3,0,3.6-1.5,3.6-3.7v-17.4h-3.3v-10.3h16.1v42.1H-569.4L-569.4,704.1z"/>
<path class="st0" d="M-486.5,704.1l-9.6-38.6l-3-11.7v50.2h-11.3v-85.4h12.6l8.5,38.3l2.6,11.9v-50.3h11.2v85.4L-486.5,704.1
	L-486.5,704.1z"/>
<path class="st0" d="M-401.1,503.4v76.7h-9.1v-76.7h-11.4v-8.7h31.5v8.7H-401.1L-401.1,503.4z"/>
<path class="st0" d="M-321.2,546.4v33.7h-9.2v-33.7l-13.2-51.7h9.2l9.1,39.7l9.1-39.7h8.8L-321.2,546.4z"/>
<rect x="-429.4" y="654.6" class="st0" width="47.2" height="10"/>
<rect x="-410.8" y="636" class="st0" width="10" height="47.2"/>
<path class="st0" d="M-584.3,452.5h-9.9V367h9.9c23.3,0.1,25,9.3,25,42.8C-559.3,443.2-561,452.4-584.3,452.5z M-581.6,439.9
	c8.8,0,9.4-2.2,9.3-30.2c0.1-27.9-0.5-30.1-9.3-30.1V439.9z"/>
<path class="st0" d="M-573.2,532.8c-5.4-9.5-8.3-13-8.3-22.8c0-3,1.8-4.4,4-4.4c2.1,0,3.6,1.5,3.6,4.4v6.5l11.4-1.1v-4.1
	c0-11.3-6-17.8-15-17.8c-11.5,0-17,8.6-17,19.2c0,9.9,6.8,21.7,11.8,29.6c5,8.6,8.1,14.6,8.1,22.3c0,3.2-1.4,5.1-4.2,5.1
	c-3,0-4.4-2-4.4-5.1v-6.9l-11.5,1.1v4.8c0,11.4,6.3,17.8,16.5,17.8c8.3,0,16.4-5.5,16.4-18.8C-561.9,552.6-567.6,542.4-573.2,532.8z
	"/>
</svg>
