<?xml version="1.0" encoding="utf-8"?>
<!-- Generator: Adobe Illustrator 19.1.0, SVG Export Plug-In . SVG Version: 6.00 Build 0)  -->
<svg version="1.1" xmlns="http://www.w3.org/2000/svg" xmlns:xlink="http://www.w3.org/1999/xlink" x="0px" y="0px"
	 viewBox="0 0 564 393.3" style="enable-background:new 0 0 564 393.3;" xml:space="preserve">
<style type="text/css">
	.st0{fill:#FD6D4D;stroke:#FD6D4D;stroke-width:1.7329;}
	.st1{fill:#FD6D4D;stroke:#FD6D4D;stroke-width:1.7174;}
	.st2{fill:#FD6D4D;}
	.st3{fill:none;stroke:#000000;stroke-width:2;stroke-miterlimit:10;}
	.st4{fill:none;stroke:#000000;stroke-miterlimit:10;}
	.st5{fill:none;stroke:#1D1D1D;stroke-width:1.7329;}
	.st6{fill:none;stroke:#1D1D1D;stroke-width:1.7174;}
	.st7{fill:none;stroke:#1D1D1D;stroke-width:1.3739;}
	.st8{fill:none;stroke:#1D1D1D;stroke-width:0.6869;}
	.st9{fill:#1D1D1D;}
</style>
<g id="Livello_2">
	<path class="st0" d="M185.8,231.8c0-13.1-9.3-24.1-23.8-26.2v-4.7c2.7-3.6,4.4-8.5,5.6-13.4c0.8,0.1,2.2-0.9,2.5-2.3
		c0-0.2,0.1-0.3,0.1-0.5c0.5-0.7,1-1.7,1.2-2.8c0.6-2.6-0.1-5.1-1.4-5.9l0-5.8c0-10.9-6.7-20.4-18.1-20.4
		c-11.4,0-18.1,9.5-18.1,20.4l0,5.8c-1.4,0.8-2,3.3-1.5,5.9c0.3,1.1,0.7,2.1,1.2,2.8c0,0.2,0,0.3,0.1,0.5c0.3,1.4,1.7,2.3,2.5,2.3
		c1.3,4.9,2.9,9.8,5.6,13.4v4.7c-14.5,2.2-23.8,13.1-23.8,26.2C118,232.1,185.8,232.1,185.8,231.8z"/>
	<g>
		<rect x="273" y="150.4" class="st1" width="48.8" height="23.4"/>
		<path class="st1" d="M335.8,216.2v-39.7c-0.3-3-2.9-2.6-2.9-2.6l-72-0.1c-3.4,0-3,2.7-3,2.7v39.7c0,0-0.2,2.8,3.2,2.8h11.4l0.5,0
			v13.7h48.2v-13.8l0.2,0h11.4C335.8,218.9,335.8,216.2,335.8,216.2z"/>
	</g>
	<path class="st2" d="M447.9,173.6l3,0l0-5.7l-1,0l1.2-18.4h-20.6l1.3,18.4l-1,0l0,5.7h2.7l-7.4,31.5l-0.1,0.3l0.5,0.9l0.1,0.1
		c7.1,5.8,11.6,24.7,11.7,25.6c0,1.4,1.1,2.5,2.5,2.5c1.4,0,2.5-1.1,2.5-2.5c0.1-0.9,4.8-19.9,11.9-25.7l0.1-0.1l0.5-0.9
		L447.9,173.6z"/>
	<g>
		<path class="st2" d="M215.2,294.7v1.7l0.1,36.9h64.9v-38.6H215.2z"/>
		<path class="st2" d="M226.2,299.1c-0.2,3.5-3,6.3-6.6,6.6v16.6c3.5,0.2,6.3,3,6.6,6.6h43c0.2-3.5,3-6.3,6.6-6.6v-16.6
			c-3.5-0.2-6.3-3-6.6-6.6 M268.1,300.3l0.1,0.4c0.8,2.9,3,5.2,6,6l0.4,0.1v14.5l-0.4,0.1c-2.9,0.8-5.2,3-6,6l-0.1,0.4h-40.9
			l-0.1-0.4c-0.8-2.9-3-5.2-6-6l-0.4-0.1v-14.5l0.4-0.1c2.9-0.8,5.2-3,6-6l0.1-0.4"/>
		<path class="st2" d="M245.7,322.1l0.4,0.1l-0.2,1.7c0,0.3,0.2,0.6,0.5,0.7c0,0,0,0,0.1,0c0.3,0,0.6-0.2,0.6-0.5l0.2-1.7l0.4,0
			c3.4,0,6-1.9,6-4.3c0-2.6-2.4-3.7-5-4.8l-0.4-0.1l0.7-6.1l0.6,0.2c1.2,0.4,2,1.2,2,2c0,0.3,0.3,0.6,0.6,0.6s0.6-0.3,0.6-0.6
			c0-1.5-1.3-2.7-3.3-3.3l-0.4-0.1l0.2-1.7c0-0.3-0.2-0.6-0.5-0.7c0,0,0,0-0.1,0c-0.3,0-0.6,0.2-0.6,0.5l-0.2,1.7l-0.4,0
			c-3,0-5.1,1.6-5.1,3.9c0,2.1,1.7,3.2,4.2,4.2l0.4,0.1l-0.8,7.1l-0.6-0.2c-1.8-0.5-2.9-1.6-2.9-2.8c0-0.3-0.3-0.6-0.6-0.6
			s-0.6,0.3-0.6,0.6C241.6,319.9,243.3,321.5,245.7,322.1z M248.3,314.4l0.6,0.2c1.9,0.8,3.7,1.7,3.7,3.4c0,1.6-2,2.9-4.5,3l-0.6,0
			L248.3,314.4z M246.6,312.4c-1.7-0.8-2.9-1.5-2.9-2.8c0-1.6,1.3-2.5,3.6-2.7l0.6,0l-0.6,5.8L246.6,312.4z"/>
	</g>
</g>
<g id="Livello_1">
	<rect x="177.7" y="65.3" class="st2" width="232.7" height="44"/>
	<g>
		<path d="M196.2,78c0,0.7,0.2,1.3,0.6,1.8c0.4,0.5,0.9,0.8,1.5,1c0.6,0.2,1.3,0.4,2.1,0.6s1.5,0.4,2.3,0.6c0.8,0.2,1.4,0.5,2.1,0.8
			c0.6,0.3,1.1,0.8,1.5,1.5c0.4,0.7,0.6,1.5,0.6,2.5c0,1.5-0.6,2.8-1.7,3.9c-1.2,1.1-2.7,1.7-4.7,1.7c-2,0-3.6-0.5-4.8-1.4
			c-1.2-0.9-1.8-2.1-1.8-3.7h2.7c0.1,0.9,0.4,1.6,1,2.1s1.6,0.8,2.8,0.8s2.2-0.3,2.9-1c0.7-0.6,1.1-1.4,1.1-2.2c0-0.8-0.2-1.5-0.6-2
			c-0.4-0.5-0.9-0.8-1.5-1c-0.6-0.2-1.3-0.4-2.1-0.6c-0.8-0.2-1.5-0.3-2.3-0.6c-0.8-0.2-1.4-0.5-2.1-0.9c-0.6-0.3-1.1-0.9-1.5-1.5
			c-0.4-0.7-0.6-1.5-0.6-2.5c0-1.6,0.6-3,1.8-4c1.2-1,2.7-1.5,4.6-1.5s3.4,0.4,4.5,1.3c1.1,0.9,1.8,2.1,1.9,3.6h-2.8
			c-0.1-0.8-0.4-1.4-1.1-2c-0.6-0.5-1.5-0.8-2.6-0.8c-1.1,0-2,0.3-2.7,0.8C196.5,76.1,196.2,76.9,196.2,78z"/>
		<path d="M210.5,85.4V72.8h2.6v12.6c0,1.6,0.4,2.8,1.3,3.6c0.8,0.8,2,1.2,3.5,1.2c1.5,0,2.7-0.4,3.5-1.2c0.9-0.8,1.3-2,1.3-3.6
			V72.8h2.5v12.6c0,2.3-0.7,4-2.1,5.2c-1.4,1.2-3.2,1.8-5.3,1.8c-2.1,0-3.9-0.6-5.3-1.8C211.2,89.4,210.5,87.7,210.5,85.4z"/>
		<path d="M229.4,72.8h6.9c2,0,3.5,0.5,4.6,1.4c1.1,1,1.6,2.2,1.6,3.7c0,2.2-1.2,3.6-3.7,4.3c1.2,0.2,2.3,0.8,3,1.7
			c0.8,0.9,1.1,2,1.1,3.2c0,1.5-0.6,2.7-1.7,3.7c-1.1,1-2.7,1.5-4.6,1.5h-7.3V72.8z M231.9,74.9v6.4h4.3c1.2,0,2.1-0.3,2.8-0.9
			c0.7-0.6,1-1.3,1-2.3s-0.3-1.8-1-2.3c-0.7-0.6-1.6-0.9-2.8-0.9H231.9z M231.9,90.2h4.6c1.2,0,2.2-0.3,2.9-0.9c0.7-0.6,1-1.5,1-2.5
			c0-1.1-0.4-1.9-1.1-2.5c-0.8-0.6-1.8-0.9-3-0.9h-4.4V90.2z"/>
		<path d="M248.6,78c0,0.7,0.2,1.3,0.6,1.8c0.4,0.5,0.9,0.8,1.5,1c0.6,0.2,1.3,0.4,2.1,0.6s1.5,0.4,2.3,0.6c0.8,0.2,1.4,0.5,2.1,0.8
			c0.6,0.3,1.1,0.8,1.5,1.5c0.4,0.7,0.6,1.5,0.6,2.5c0,1.5-0.6,2.8-1.7,3.9c-1.2,1.1-2.7,1.7-4.7,1.7c-2,0-3.6-0.5-4.8-1.4
			c-1.2-0.9-1.8-2.1-1.8-3.7h2.7c0.1,0.9,0.4,1.6,1,2.1s1.6,0.8,2.8,0.8s2.2-0.3,2.9-1c0.7-0.6,1.1-1.4,1.1-2.2c0-0.8-0.2-1.5-0.6-2
			c-0.4-0.5-0.9-0.8-1.5-1c-0.6-0.2-1.3-0.4-2.1-0.6c-0.8-0.2-1.5-0.3-2.3-0.6c-0.8-0.2-1.4-0.5-2.1-0.9c-0.6-0.3-1.1-0.9-1.5-1.5
			c-0.4-0.7-0.6-1.5-0.6-2.5c0-1.6,0.6-3,1.8-4c1.2-1,2.7-1.5,4.6-1.5s3.4,0.4,4.5,1.3c1.1,0.9,1.8,2.1,1.9,3.6H256
			c-0.1-0.8-0.4-1.4-1.1-2c-0.6-0.5-1.5-0.8-2.6-0.8c-1.1,0-2,0.3-2.7,0.8C249,76.1,248.6,76.9,248.6,78z"/>
		<path d="M264.8,89.6c-1.9-1.9-2.9-4.2-2.9-7.1c0-2.9,1-5.2,2.9-7.1c1.9-1.9,4.2-2.8,7-2.8c2,0,3.8,0.5,5.4,1.4
			c1.6,1,2.7,2.3,3.5,4.1h-3.1c-1.2-2.2-3.1-3.3-5.8-3.3c-2.1,0-3.9,0.7-5.2,2.1c-1.4,1.4-2.1,3.2-2.1,5.5c0,2.3,0.7,4.1,2.1,5.5
			s3.1,2.1,5.2,2.1c1.3,0,2.4-0.3,3.4-0.9c1-0.6,1.8-1.4,2.4-2.5h3.1c-0.7,1.8-1.9,3.2-3.5,4.1c-1.6,1-3.4,1.4-5.4,1.4
			C269.1,92.4,266.7,91.4,264.8,89.6z"/>
		<path d="M287.3,84.2v8h-2.5V72.8h6.3c2.2,0,3.9,0.5,5,1.6s1.7,2.4,1.7,3.9s-0.4,2.8-1.3,3.9c-0.8,1-2.1,1.7-3.8,1.9l5.3,8.1h-3.2
			l-5.1-8H287.3z M287.3,74.9v7.3h3.8c1.4,0,2.4-0.3,3.1-1c0.7-0.6,1-1.5,1-2.7c0-2.4-1.4-3.7-4.1-3.7H287.3z"/>
		<path d="M302,92.2V72.8h2.5v19.4H302z"/>
		<path d="M320.1,74.4c1.1,1.1,1.7,2.4,1.7,4.1c0,1.7-0.6,3-1.7,4.1c-1.1,1.1-2.8,1.6-5.1,1.6h-3.8v8h-2.5V72.8h6.3
			C317.2,72.8,318.9,73.3,320.1,74.4z M311.3,82.2h3.8c1.4,0,2.4-0.3,3.1-1c0.7-0.6,1-1.5,1-2.7c0-2.4-1.4-3.7-4.1-3.7h-3.8V82.2z"
			/>
		<path d="M324.1,74.9v-2h12.8v2h-5.1v17.4h-2.5V74.9H324.1z"/>
		<path d="M340.2,92.2V72.8h2.5v19.4H340.2z"/>
		<path d="M355.8,92.4c-2.8,0-5.1-0.9-7-2.8c-1.9-1.9-2.9-4.2-2.9-7.1c0-2.9,1-5.2,2.9-7.1c1.9-1.9,4.2-2.8,7-2.8
			c2.8,0,5.1,0.9,7,2.8c1.9,1.9,2.8,4.2,2.8,7.1s-0.9,5.2-2.8,7.1C361,91.5,358.6,92.4,355.8,92.4z M361.1,88c1.4-1.4,2-3.2,2-5.5
			c0-2.3-0.7-4.1-2-5.5c-1.4-1.4-3.1-2.1-5.2-2.1s-3.9,0.7-5.2,2.1c-1.4,1.4-2.1,3.2-2.1,5.5c0,2.3,0.7,4.1,2.1,5.5
			c1.4,1.4,3.1,2.1,5.2,2.1C358,90.1,359.7,89.4,361.1,88z"/>
		<path d="M381.7,72.8h2.5v19.4h-2.5l-10.2-15.4v15.4h-2.5V72.8h2.5l10.2,15.4V72.8z"/>
	</g>
	<g>
		<path d="M130.2,253.3v-7.2h1.5v7.2c0,0.9,0.2,1.6,0.7,2.1c0.5,0.5,1.2,0.7,2,0.7c0.9,0,1.5-0.2,2-0.7c0.5-0.5,0.7-1.1,0.7-2.1
			v-7.2h1.5v7.2c0,1.3-0.4,2.3-1.2,3c-0.8,0.7-1.8,1-3,1c-1.2,0-2.2-0.3-3-1C130.6,255.6,130.2,254.6,130.2,253.3z"/>
		<path d="M140.7,250.9c0-0.7,0.3-1.4,0.9-1.9c0.6-0.5,1.4-0.8,2.4-0.8s1.7,0.2,2.3,0.7s0.9,1.2,0.9,2h-1.5c0-0.5-0.2-0.9-0.5-1.2
			c-0.3-0.3-0.7-0.4-1.3-0.4s-1,0.1-1.3,0.4c-0.3,0.3-0.5,0.6-0.5,1c0,0.4,0.2,0.7,0.5,1c0.4,0.2,0.8,0.4,1.3,0.5
			c0.5,0.1,1,0.2,1.5,0.4c0.5,0.1,0.9,0.4,1.3,0.8c0.4,0.4,0.5,0.9,0.5,1.6s-0.3,1.2-0.9,1.7c-0.6,0.5-1.4,0.7-2.4,0.7
			s-1.8-0.2-2.4-0.7c-0.6-0.5-0.9-1.2-1-2h1.5c0,0.5,0.2,0.9,0.5,1.2c0.3,0.3,0.8,0.4,1.3,0.4c0.6,0,1-0.1,1.3-0.4
			c0.3-0.2,0.5-0.6,0.5-0.9c0-0.4-0.1-0.7-0.4-0.9c-0.3-0.2-0.6-0.4-1-0.5c-0.4-0.1-0.8-0.2-1.3-0.3c-0.5-0.1-0.9-0.2-1.3-0.4
			c-0.4-0.1-0.7-0.4-1-0.7C140.8,251.8,140.7,251.4,140.7,250.9z"/>
		<path d="M153.1,257.4c-1.3,0-2.3-0.4-3.1-1.2c-0.8-0.8-1.2-1.9-1.2-3.3s0.4-2.5,1.2-3.3c0.8-0.8,1.8-1.2,3.1-1.2
			c1.3,0,2.3,0.4,3.1,1.2c0.8,0.8,1.2,1.8,1.2,3c0,0.3,0,0.6-0.1,0.9h-7c0,0.9,0.3,1.6,0.8,2.1c0.5,0.5,1.2,0.8,1.9,0.8
			c0.6,0,1.1-0.1,1.5-0.4c0.4-0.3,0.7-0.6,0.9-1.1h1.6c-0.3,0.8-0.8,1.4-1.4,1.9C155,257.1,154.1,257.4,153.1,257.4z M155.1,250.2
			c-0.5-0.5-1.2-0.8-1.9-0.8s-1.4,0.2-1.9,0.7c-0.5,0.5-0.8,1.2-0.8,2h5.5C155.8,251.4,155.6,250.8,155.1,250.2z"/>
		<path d="M160.6,248.4v1.5c0.5-1.1,1.4-1.6,2.7-1.6v1.5h-0.4c-0.7,0-1.3,0.2-1.7,0.6c-0.4,0.4-0.6,1.1-0.6,2v4.8h-1.5v-8.8H160.6z"
			/>
	</g>
	<g>
		<path d="M262.7,247c0.7,0.6,1,1.4,1,2.3s-0.3,1.7-1,2.3c-0.6,0.6-1.6,0.9-2.9,0.9h-2.1v4.6h-1.5v-11.1h3.6
			C261.1,246.1,262,246.4,262.7,247z M257.7,251.5h2.1c0.8,0,1.4-0.2,1.8-0.6c0.4-0.4,0.6-0.9,0.6-1.5c0-1.4-0.8-2.1-2.4-2.1h-2.1
			V251.5z"/>
		<path d="M271.7,248.4h1.5v8.8h-1.5v-1.4c-0.6,1-1.5,1.6-2.9,1.6c-1,0-1.8-0.3-2.4-1c-0.7-0.6-1-1.6-1-2.7v-5.2h1.4v5
			c0,0.9,0.2,1.5,0.6,2c0.4,0.5,1,0.7,1.8,0.7s1.3-0.2,1.8-0.7c0.4-0.5,0.6-1.1,0.6-2V248.4z"/>
		<path d="M280.2,248.3c1.2,0,2.2,0.4,3,1.2c0.8,0.8,1.2,1.9,1.2,3.2c0,1.3-0.4,2.4-1.2,3.3s-1.8,1.3-3,1.3c-0.7,0-1.4-0.2-2-0.5
			c-0.6-0.4-1-0.8-1.3-1.4v1.8h-1.5v-11.8h1.5v4.8c0.3-0.6,0.7-1,1.3-1.4S279.5,248.3,280.2,248.3z M279.9,256.1
			c0.8,0,1.5-0.3,2.1-0.9c0.6-0.6,0.9-1.4,0.9-2.4c0-1-0.3-1.8-0.9-2.4c-0.6-0.6-1.3-0.9-2.1-0.9s-1.5,0.3-2.1,0.9s-0.9,1.4-0.9,2.4
			c0,1,0.3,1.8,0.9,2.4C278.4,255.8,279.1,256.1,279.9,256.1z"/>
		<path d="M286.2,257.2v-11.8h1.5v11.8H286.2z"/>
		<path d="M291.5,246.7c-0.2,0.2-0.4,0.3-0.7,0.3s-0.5-0.1-0.7-0.3c-0.2-0.2-0.3-0.4-0.3-0.7s0.1-0.5,0.3-0.7s0.4-0.3,0.7-0.3
			s0.5,0.1,0.7,0.3s0.3,0.4,0.3,0.7S291.7,246.5,291.5,246.7z M290.1,257.2v-8.8h1.5v8.8H290.1z"/>
		<path d="M293.6,250.9c0-0.7,0.3-1.4,0.9-1.9c0.6-0.5,1.4-0.8,2.4-0.8s1.7,0.2,2.3,0.7s0.9,1.2,0.9,2h-1.5c0-0.5-0.2-0.9-0.5-1.2
			c-0.3-0.3-0.7-0.4-1.3-0.4s-1,0.1-1.3,0.4c-0.3,0.3-0.5,0.6-0.5,1c0,0.4,0.2,0.7,0.5,1c0.4,0.2,0.8,0.4,1.3,0.5
			c0.5,0.1,1,0.2,1.5,0.4c0.5,0.1,0.9,0.4,1.3,0.8c0.4,0.4,0.5,0.9,0.5,1.6s-0.3,1.2-0.9,1.7c-0.6,0.5-1.4,0.7-2.4,0.7
			s-1.8-0.2-2.4-0.7c-0.6-0.5-0.9-1.2-1-2h1.5c0,0.5,0.2,0.9,0.5,1.2c0.3,0.3,0.8,0.4,1.3,0.4c0.6,0,1-0.1,1.3-0.4
			c0.3-0.2,0.5-0.6,0.5-0.9c0-0.4-0.1-0.7-0.4-0.9c-0.3-0.2-0.6-0.4-1-0.5c-0.4-0.1-0.8-0.2-1.3-0.3c-0.5-0.1-0.9-0.2-1.3-0.4
			c-0.4-0.1-0.7-0.4-1-0.7C293.8,251.8,293.6,251.4,293.6,250.9z"/>
		<path d="M303.8,245.4v4.5c0.6-1,1.6-1.6,2.9-1.6c1,0,1.8,0.3,2.4,1c0.7,0.6,1,1.6,1,2.8v5.2h-1.4v-5c0-0.9-0.2-1.6-0.6-2
			c-0.4-0.5-1-0.7-1.8-0.7s-1.3,0.2-1.8,0.7c-0.4,0.5-0.6,1.1-0.6,2v5h-1.5v-11.8H303.8z"/>
		<path d="M316.1,257.4c-1.3,0-2.3-0.4-3.1-1.2c-0.8-0.8-1.2-1.9-1.2-3.3s0.4-2.5,1.2-3.3c0.8-0.8,1.8-1.2,3.1-1.2
			c1.3,0,2.3,0.4,3.1,1.2c0.8,0.8,1.2,1.8,1.2,3c0,0.3,0,0.6-0.1,0.9h-7c0,0.9,0.3,1.6,0.8,2.1c0.5,0.5,1.2,0.8,1.9,0.8
			c0.6,0,1.1-0.1,1.5-0.4c0.4-0.3,0.7-0.6,0.9-1.1h1.6c-0.3,0.8-0.8,1.4-1.4,1.9C318,257.1,317.1,257.4,316.1,257.4z M318.1,250.2
			c-0.5-0.5-1.2-0.8-1.9-0.8s-1.4,0.2-1.9,0.7c-0.5,0.5-0.8,1.2-0.8,2h5.5C318.9,251.4,318.6,250.8,318.1,250.2z"/>
		<path d="M323.6,248.4v1.5c0.5-1.1,1.4-1.6,2.7-1.6v1.5h-0.4c-0.7,0-1.3,0.2-1.7,0.6c-0.4,0.4-0.6,1.1-0.6,2v4.8h-1.5v-8.8H323.6z"
			/>
	</g>
	<g>
		<path d="M416.9,257.2l-0.9-2.4h-4.9l-0.9,2.4h-1.5l4-11.1h1.6l4,11.1H416.9z M411.5,253.6h4.1l-2-5.7L411.5,253.6z"/>
		<path d="M426.5,248.4h1.5v8.8h-1.5v-1.4c-0.6,1-1.5,1.6-2.9,1.6c-1,0-1.8-0.3-2.4-1c-0.7-0.6-1-1.6-1-2.7v-5.2h1.4v5
			c0,0.9,0.2,1.5,0.6,2c0.4,0.5,1,0.7,1.8,0.7s1.3-0.2,1.8-0.7c0.4-0.5,0.6-1.1,0.6-2V248.4z"/>
		<path d="M433.2,256h1.2v1.2h-1.5c-1.5,0-2.3-0.8-2.3-2.3v-5.3h-1.1v-1.2h1.1v-2.2h1.5v2.2h2.3v1.2h-2.3v5.3c0,0.4,0.1,0.7,0.2,0.8
			S432.8,256,433.2,256z"/>
		<path d="M437.5,245.4v4.5c0.6-1,1.6-1.6,2.9-1.6c1,0,1.8,0.3,2.4,1c0.7,0.6,1,1.6,1,2.8v5.2h-1.4v-5c0-0.9-0.2-1.6-0.6-2
			c-0.4-0.5-1-0.7-1.8-0.7s-1.3,0.2-1.8,0.7c-0.4,0.5-0.6,1.1-0.6,2v5H436v-11.8H437.5z"/>
		<path d="M446.7,256.1c-0.8-0.8-1.2-1.9-1.2-3.3c0-1.4,0.4-2.5,1.3-3.3c0.8-0.8,1.9-1.3,3.2-1.3c1.3,0,2.3,0.4,3.2,1.3
			c0.8,0.8,1.3,1.9,1.3,3.3c0,1.3-0.4,2.4-1.3,3.3s-2,1.3-3.2,1.3S447.5,256.9,446.7,256.1z M449.8,256.2c0.8,0,1.5-0.3,2.1-0.9
			c0.6-0.6,0.9-1.4,0.9-2.5s-0.3-1.9-0.9-2.4c-0.6-0.6-1.3-0.9-2.1-0.9c-0.8,0-1.5,0.3-2.1,0.9c-0.6,0.6-0.8,1.4-0.8,2.5
			c0,1.1,0.3,1.9,0.8,2.5C448.3,255.9,449,256.2,449.8,256.2z"/>
		<path d="M457.6,248.4v1.5c0.5-1.1,1.4-1.6,2.7-1.6v1.5h-0.4c-0.7,0-1.3,0.2-1.7,0.6c-0.4,0.4-0.6,1.1-0.6,2v4.8h-1.5v-8.8H457.6z"
			/>
	</g>
	<path class="st3" d="M126.4,267v16c0,0,0.3,29.8,29.8,29.8H181"/>
	<path class="st3" d="M146.4,267v16c0,0,0.3,29.8,29.8,29.8H201"/>
	<path class="st3" d="M166.4,267v16c0,0,0.3,29.8,29.8,29.8H207"/>
	<rect x="173.7" y="61.3" class="st4" width="232.7" height="44"/>
	<path class="st5" d="M182.3,227.6c0-13.1-9.3-24.1-23.8-26.2v-4.7c2.7-3.6,4.4-8.5,5.6-13.4c0.8,0.1,2.2-0.9,2.5-2.3
		c0-0.2,0.1-0.3,0.1-0.5c0.5-0.7,1-1.7,1.2-2.8c0.6-2.6-0.1-5.1-1.4-5.9l0-5.8c0-10.9-6.7-20.4-18.1-20.4
		c-11.4,0-18.1,9.5-18.1,20.4l0,5.8c-1.4,0.8-2,3.3-1.5,5.9c0.3,1.1,0.7,2.1,1.2,2.8c0,0.2,0,0.3,0.1,0.5c0.3,1.4,1.7,2.3,2.5,2.3
		c1.3,4.9,2.9,9.8,5.6,13.4v4.7c-14.5,2.2-23.8,13.1-23.8,26.2C114.5,228,182.3,228,182.3,227.6z"/>
	<g>
		<rect x="269.1" y="192.5" class="st6" width="48.2" height="35.5"/>
		<rect x="269.1" y="145.7" class="st6" width="48.8" height="23.4"/>
		<line class="st7" x1="276.4" y1="203.1" x2="311" y2="203.1"/>
		<line class="st7" x1="276.4" y1="210.9" x2="311" y2="210.9"/>
		<line class="st7" x1="276.4" y1="217.9" x2="311" y2="217.9"/>
		<path class="st6" d="M317.4,214.2h11.4c3.1,0,3-2.6,3-2.6v-39.7c-0.3-3-2.9-2.6-2.9-2.6l-72-0.1c-3.4,0-3,2.7-3,2.7v39.7
			c0,0-0.2,2.8,3.2,2.8h11.4"/>
		<circle class="st8" cx="322" cy="176.6" r="1.3"/>
		<circle class="st8" cx="315.6" cy="176.6" r="1.3"/>
		<line class="st6" x1="259.4" y1="192.1" x2="327.2" y2="192.1"/>
	</g>
	<path class="st9" d="M443.8,169.3l3,0l0-5.7l-1,0l1.2-18.4h-20.6l1.3,18.4l-1,0l0,5.7h2.7l-7.4,31.5l-0.1,0.3l0.5,0.9l0.1,0.1
		c7.1,5.8,11.6,24.7,11.7,25.6c0,1.4,1.1,2.5,2.5,2.5c1.4,0,2.5-1.1,2.5-2.5c0.1-0.9,4.8-19.9,11.9-25.7l0.1-0.1l0.5-0.9
		L443.8,169.3z M445.5,146.7l-1.1,17l-15.5,0l-1.1-17H445.5z M428,167.9l0-2.8l17.3,0l0,2.8L428,167.9z M434.7,193.1
		c0-1.1,0.9-2,2-2c1.1,0,2,0.9,2,2c0,1.1-0.9,2-2,2C435.6,195.1,434.7,194.2,434.7,193.1z M450.1,201.1
		c-7.5,6.2-12.3,25.8-12.3,26.6c0,0.4-0.2,0.7-0.4,0.9l0-32.3c1.5-0.3,2.6-1.6,2.6-3.2c0-1.8-1.5-3.3-3.3-3.3
		c-1.8,0-3.3,1.5-3.3,3.3c0,1.6,1.1,2.9,2.6,3.2l0,32.5c-0.4-0.2-0.7-0.6-0.7-1.1c0-0.8-4.6-20.4-12.1-26.6l-0.1-0.2l7.5-31.5
		l11.8,0l7.8,31.5L450.1,201.1z"/>
	<path class="st9" d="M242.6,321C242.5,321,242.5,321,242.6,321c-0.4,0-0.6-0.3-0.6-0.7l0.2-1.7l-0.4-0.1c-2.5-0.6-4.2-2.2-4.2-4
		c0-0.3,0.3-0.6,0.6-0.6s0.6,0.3,0.6,0.6c0,1.2,1.2,2.3,2.9,2.8l0.6,0.2l0.8-7.1l-0.4-0.1c-2.5-1-4.2-2.1-4.2-4.2
		c0-2.3,2-3.9,5.1-3.9l0.4,0l0.2-1.7c0-0.3,0.3-0.5,0.6-0.5c0,0,0,0,0.1,0c0.3,0,0.6,0.3,0.5,0.7l-0.2,1.7l0.4,0.1
		c2,0.5,3.3,1.8,3.3,3.3c0,0.3-0.3,0.6-0.6,0.6s-0.6-0.3-0.6-0.6c0-0.8-0.8-1.6-2-2l-0.6-0.2l-0.7,6.1l0.4,0.1c2.7,1,5,2.2,5,4.8
		c0,2.3-2.6,4.2-6,4.3l-0.4,0l-0.2,1.7C243.1,320.7,242.9,321,242.6,321z M243.5,317.6l0.6,0c2.5-0.1,4.5-1.5,4.5-3
		c0-1.8-1.8-2.7-3.7-3.4l-0.6-0.2L243.5,317.6z M243.3,303.4c-2.3,0.1-3.6,1.1-3.6,2.7c0,1.3,1.2,2.1,2.9,2.8l0.6,0.3l0.6-5.8
		L243.3,303.4z"/>
	<path class="st9" d="M211.3,329.8l-0.1-36.9v-1.7h65v38.6H211.3z M212.4,328.6H275v-36.2h-62.6V328.6z"/>
	<path class="st9" d="M222.2,325.4c-0.2-3.5-3-6.3-6.6-6.6v-16.6c3.5-0.2,6.3-3,6.6-6.6h43c0.2,3.5,3,6.3,6.6,6.6v16.6
		c-3.5,0.2-6.3,3-6.6,6.6H222.2z M223.1,297.1c-0.8,2.9-3,5.2-6,6l-0.4,0.1v14.5l0.4,0.1c2.9,0.8,5.2,3,6,6l0.1,0.4h40.9l0.1-0.4
		c0.8-2.9,3-5.2,6-6l0.4-0.1v-14.5l-0.4-0.1c-2.9-0.8-5.2-3-6-6l-0.1-0.4h-40.9L223.1,297.1z"/>
	<polyline class="st5" points="201.9,308.8 205.4,310.8 208.9,312.8 205.4,314.9 201.9,316.9 	"/>
</g>
</svg>
