<?xml version="1.0" encoding="utf-8"?>
<!-- Generator: Adobe Illustrator 19.1.0, SVG Export Plug-In . SVG Version: 6.00 Build 0)  -->
<svg version="1.1" id="Livello_1" xmlns="http://www.w3.org/2000/svg" xmlns:xlink="http://www.w3.org/1999/xlink" x="0px" y="0px"
	 viewBox="0 0 359.3 169.8" style="enable-background:new 0 0 359.3 169.8;" xml:space="preserve">
<style type="text/css">
	.st0{fill:#FFFFFF;}
	.st1{fill:none;stroke:#1D1D1D;}
	.st2{fill:none;stroke:#FC6D4D;stroke-dasharray:3.031,2.031;}
	.st3{fill:none;stroke:#FC6D4D;}
	.st4{fill:#FC6D4D;}
	.st5{fill:#1D1D1B;}
	.st6{clip-path:url(#SVGID_2_);}
	.st7{fill:none;stroke:#1F1F1C;}
</style>
<rect x="132.8" y="12.5" class="st0" width="32" height="5.7"/>
<rect x="132.8" y="12.5" class="st1" width="32" height="5.7"/>
<rect x="132.8" y="24.4" class="st0" width="205" height="5.7"/>
<rect x="132.8" y="24.4" class="st1" width="205" height="5.7"/>
<rect x="132.8" y="36.3" class="st0" width="72" height="5.7"/>
<rect x="132.8" y="36.3" class="st1" width="72" height="5.7"/>
<rect x="132.8" y="48.3" class="st0" width="77" height="5.7"/>
<rect x="132.8" y="48.3" class="st1" width="77" height="5.7"/>
<rect x="132.8" y="60.2" class="st0" width="179" height="5.7"/>
<rect x="132.8" y="60.2" class="st1" width="179" height="5.7"/>
<rect x="132.8" y="72.2" class="st0" width="73" height="5.7"/>
<rect x="132.8" y="72.2" class="st1" width="73" height="5.7"/>
<rect x="132.8" y="84.1" class="st0" width="176" height="5.7"/>
<rect x="132.8" y="84.1" class="st1" width="176" height="5.7"/>
<rect x="132.8" y="96.1" class="st0" width="40.7" height="5.7"/>
<rect x="132.8" y="96.1" class="st1" width="40.7" height="5.7"/>
<rect x="132.8" y="108" class="st0" width="26" height="5.7"/>
<rect x="132.8" y="108" class="st1" width="26" height="5.7"/>
<rect x="132.8" y="119.9" class="st0" width="124" height="5.7"/>
<rect x="132.8" y="119.9" class="st1" width="124" height="5.7"/>
<rect x="132.8" y="131.9" class="st0" width="218" height="5.7"/>
<rect x="132.8" y="131.9" class="st1" width="218" height="5.7"/>
<line class="st2" x1="226.8" y1="4.8" x2="226.8" y2="144.6"/>
<line class="st3" x1="132.8" y1="4.8" x2="132.8" y2="144.6"/>
<g>
	<path class="st4" d="M235,12.9l-0.4-1.1h-2.3l-0.4,1.1h-1l2-5.6h1.1l2,5.6H235z M232.5,11h1.8l-0.9-2.6L232.5,11z"/>
	<path class="st4" d="M236.1,8.4h1l1.2,3.6l1.2-3.6h1l-1.7,4.4h-1.1L236.1,8.4z"/>
	<path class="st4" d="M243,12.9c-0.6,0-1.2-0.2-1.6-0.6c-0.4-0.4-0.6-1-0.6-1.7s0.2-1.2,0.6-1.7c0.4-0.4,0.9-0.6,1.6-0.6
		c0.6,0,1.2,0.2,1.6,0.6s0.6,0.9,0.6,1.6c0,0.2,0,0.3,0,0.4h-3.4c0,0.4,0.1,0.7,0.4,0.9c0.2,0.2,0.5,0.3,0.9,0.3
		c0.5,0,0.8-0.2,1-0.6h1c-0.1,0.4-0.4,0.7-0.7,1C244,12.8,243.6,12.9,243,12.9z M243.9,9.5c-0.2-0.2-0.5-0.3-0.9-0.3
		s-0.6,0.1-0.8,0.3s-0.4,0.5-0.4,0.9h2.4C244.3,10,244.1,9.7,243.9,9.5z"/>
	<path class="st4" d="M247.1,8.4v0.8c0.3-0.6,0.7-0.8,1.3-0.8v0.9h-0.2c-0.4,0-0.6,0.1-0.8,0.3c-0.2,0.2-0.3,0.5-0.3,0.9v2.3h-0.9
		V8.4H247.1z"/>
	<path class="st4" d="M249.6,12.3c-0.4-0.4-0.6-1-0.6-1.6c0-0.7,0.2-1.2,0.6-1.6c0.4-0.4,0.9-0.6,1.5-0.6c0.3,0,0.7,0.1,0.9,0.2
		s0.5,0.4,0.6,0.6V8.4h0.9v4.4h-0.9V12c-0.1,0.3-0.4,0.5-0.6,0.7s-0.6,0.2-0.9,0.2C250.5,12.9,250,12.7,249.6,12.3z M252.2,11.7
		c0.3-0.3,0.4-0.6,0.4-1.1s-0.1-0.8-0.4-1.1c-0.3-0.3-0.6-0.4-0.9-0.4c-0.4,0-0.7,0.1-0.9,0.4s-0.4,0.6-0.4,1.1
		c0,0.5,0.1,0.8,0.4,1.1s0.6,0.4,0.9,0.4C251.7,12.1,252,12,252.2,11.7z"/>
	<path class="st4" d="M255.1,12.3c-0.4-0.4-0.6-1-0.6-1.6c0-0.7,0.2-1.2,0.6-1.6c0.4-0.4,0.9-0.6,1.5-0.6c0.3,0,0.7,0.1,0.9,0.2
		s0.5,0.4,0.6,0.6V8.4h0.9v4.5c0,0.6-0.2,1.1-0.6,1.5c-0.4,0.4-0.9,0.6-1.5,0.6s-1.2-0.1-1.5-0.4s-0.6-0.7-0.7-1.1h0.9
		c0.1,0.2,0.2,0.4,0.4,0.6s0.5,0.2,0.9,0.2s0.6-0.1,0.9-0.3c0.2-0.2,0.3-0.5,0.3-1V12c-0.2,0.3-0.4,0.5-0.6,0.7s-0.6,0.2-0.9,0.2
		C256,12.9,255.5,12.7,255.1,12.3z M257.8,11.7c0.3-0.3,0.4-0.6,0.4-1.1s-0.1-0.8-0.4-1.1s-0.6-0.4-0.9-0.4c-0.4,0-0.7,0.1-0.9,0.4
		s-0.4,0.6-0.4,1.1c0,0.5,0.1,0.8,0.4,1.1s0.6,0.4,0.9,0.4C257.2,12.1,257.5,12,257.8,11.7z"/>
	<path class="st4" d="M262.2,12.9c-0.6,0-1.2-0.2-1.6-0.6c-0.4-0.4-0.6-1-0.6-1.7s0.2-1.2,0.6-1.7c0.4-0.4,0.9-0.6,1.6-0.6
		s1.2,0.2,1.6,0.6s0.6,0.9,0.6,1.6c0,0.2,0,0.3,0,0.4H261c0,0.4,0.1,0.7,0.4,0.9c0.2,0.2,0.5,0.3,0.9,0.3c0.5,0,0.8-0.2,1-0.6h1
		c-0.1,0.4-0.4,0.7-0.7,1C263.2,12.8,262.8,12.9,262.2,12.9z M263.1,9.5c-0.2-0.2-0.5-0.3-0.9-0.3s-0.6,0.1-0.8,0.3
		s-0.4,0.5-0.4,0.9h2.4C263.5,10,263.4,9.7,263.1,9.5z"/>
	<path class="st4" d="M271.1,7.8c0.3,0.3,0.5,0.7,0.5,1.2s-0.2,0.9-0.5,1.2c-0.3,0.3-0.8,0.5-1.5,0.5h-1v2.3h-0.9V7.3h1.9
		C270.3,7.3,270.8,7.4,271.1,7.8z M268.6,9.9h1c0.3,0,0.6-0.1,0.8-0.2c0.2-0.2,0.3-0.4,0.3-0.7s-0.1-0.5-0.3-0.7
		C270.3,8.1,270,8,269.6,8h-1V9.9z"/>
	<path class="st4" d="M273.4,8.4v0.8c0.3-0.6,0.7-0.8,1.3-0.8v0.9h-0.2c-0.4,0-0.6,0.1-0.8,0.3c-0.2,0.2-0.3,0.5-0.3,0.9v2.3h-0.9
		V8.4H273.4z"/>
	<path class="st4" d="M276.6,7.3c0,0.2-0.1,0.3-0.2,0.4c-0.1,0.1-0.2,0.2-0.4,0.2c-0.2,0-0.3-0.1-0.4-0.2c-0.1-0.1-0.2-0.2-0.2-0.4
		c0-0.2,0.1-0.3,0.2-0.4c0.1-0.1,0.2-0.2,0.4-0.2c0.2,0,0.3,0.1,0.4,0.2C276.6,7,276.6,7.1,276.6,7.3z M275.6,12.9V8.4h0.9v4.4
		H275.6z"/>
	<path class="st4" d="M278.1,12.3c-0.4-0.4-0.6-1-0.6-1.7s0.2-1.2,0.6-1.7c0.4-0.4,0.9-0.6,1.6-0.6c0.5,0,1,0.1,1.3,0.4
		c0.3,0.3,0.6,0.6,0.7,1.1h-1c-0.2-0.5-0.5-0.7-1-0.7c-0.4,0-0.7,0.1-0.9,0.4c-0.2,0.3-0.3,0.6-0.3,1.1s0.1,0.8,0.3,1.1
		c0.2,0.3,0.5,0.4,0.9,0.4c0.5,0,0.9-0.2,1-0.7h1c-0.1,0.4-0.4,0.8-0.7,1.1c-0.4,0.3-0.8,0.4-1.3,0.4
		C279,12.9,278.5,12.7,278.1,12.3z"/>
	<path class="st4" d="M284.6,12.9c-0.6,0-1.2-0.2-1.6-0.6s-0.6-1-0.6-1.7s0.2-1.2,0.6-1.7c0.4-0.4,0.9-0.6,1.6-0.6
		c0.6,0,1.2,0.2,1.6,0.6c0.4,0.4,0.6,0.9,0.6,1.6c0,0.2,0,0.3,0,0.4h-3.4c0,0.4,0.1,0.7,0.4,0.9c0.2,0.2,0.5,0.3,0.9,0.3
		c0.5,0,0.8-0.2,1-0.6h1c-0.1,0.4-0.4,0.7-0.7,1C285.5,12.8,285.1,12.9,284.6,12.9z M285.4,9.5c-0.2-0.2-0.5-0.3-0.9-0.3
		s-0.6,0.1-0.8,0.3s-0.4,0.5-0.4,0.9h2.4C285.8,10,285.7,9.7,285.4,9.5z"/>
</g>
<g>
	<path class="st5" d="M98.8,14.3h0.6v5.5h-0.6v-2.6h-3v2.6h-0.6v-5.5h0.6v2.5h3V14.3z"/>
	<path class="st5" d="M101.4,14.2c0,0.1,0,0.2-0.1,0.3c-0.1,0.1-0.2,0.1-0.3,0.1s-0.2,0-0.3-0.1c-0.1-0.1-0.1-0.2-0.1-0.3
		c0-0.1,0-0.2,0.1-0.3c0.1-0.1,0.2-0.1,0.3-0.1s0.2,0,0.3,0.1C101.3,14,101.4,14.1,101.4,14.2z M100.7,19.8v-4.4h0.6v4.4H100.7z"/>
	<path class="st5" d="M103.1,15.4v0.7c0.3-0.5,0.8-0.8,1.4-0.8c0.5,0,0.9,0.2,1.2,0.5c0.3,0.3,0.5,0.8,0.5,1.4v2.6h-0.6v-2.5
		c0-0.5-0.1-0.8-0.3-1.1c-0.2-0.3-0.5-0.4-1-0.4s-0.7,0.1-1,0.4c-0.2,0.3-0.3,0.6-0.3,1.1v2.5h-0.6v-4.4H103.1z"/>
	<path class="st5" d="M107.8,19.2c-0.4-0.4-0.6-1-0.6-1.7c0-0.7,0.2-1.2,0.6-1.6c0.4-0.4,0.9-0.6,1.5-0.6c0.4,0,0.7,0.1,1,0.3
		c0.3,0.2,0.5,0.4,0.7,0.7v-2.5h0.6v5.9H111v-1c-0.1,0.3-0.4,0.6-0.7,0.7s-0.6,0.3-1,0.3C108.7,19.9,108.2,19.7,107.8,19.2z
		 M110.5,18.9c0.3-0.3,0.5-0.8,0.5-1.3s-0.2-1-0.5-1.3c-0.3-0.3-0.7-0.5-1.1-0.5c-0.4,0-0.8,0.2-1.1,0.5c-0.3,0.3-0.5,0.7-0.5,1.3
		s0.2,1,0.5,1.3s0.7,0.5,1.1,0.5S110.2,19.2,110.5,18.9z"/>
	<path class="st5" d="M113.2,19.2c-0.4-0.4-0.6-1-0.6-1.7c0-0.7,0.2-1.2,0.6-1.6c0.4-0.4,0.9-0.6,1.5-0.6c0.4,0,0.7,0.1,1,0.3
		c0.3,0.2,0.5,0.4,0.7,0.7v-1h0.6v4.4h-0.6v-1c-0.1,0.3-0.4,0.6-0.7,0.7s-0.6,0.3-1,0.3C114.1,19.9,113.6,19.7,113.2,19.2z
		 M116,18.9c0.3-0.3,0.5-0.8,0.5-1.3s-0.2-1-0.5-1.3c-0.3-0.3-0.7-0.5-1.1-0.5c-0.4,0-0.8,0.2-1.1,0.5c-0.3,0.3-0.5,0.7-0.5,1.3
		s0.2,1,0.5,1.3s0.7,0.5,1.1,0.5S115.6,19.2,116,18.9z"/>
	<path class="st5" d="M123.3,15.4h0.6l-1.4,4.4H122l-1.1-3.7l-1.1,3.7h-0.6l-1.4-4.4h0.6l1.1,3.8l1.1-3.8h0.6l1.1,3.8L123.3,15.4z"
		/>
	<path class="st5" d="M125.4,14.2c0,0.1,0,0.2-0.1,0.3c-0.1,0.1-0.2,0.1-0.3,0.1c-0.1,0-0.2,0-0.3-0.1c-0.1-0.1-0.1-0.2-0.1-0.3
		c0-0.1,0-0.2,0.1-0.3c0.1-0.1,0.2-0.1,0.3-0.1c0.1,0,0.2,0,0.3,0.1C125.4,14,125.4,14.1,125.4,14.2z M124.7,19.8v-4.4h0.6v4.4
		H124.7z"/>
</g>
<g>
	<path class="st5" d="M66.4,26.2h1.9c0.6,0,1,0.1,1.3,0.4c0.3,0.3,0.5,0.6,0.5,1.1c0,0.6-0.4,1-1.1,1.2c0.4,0.1,0.6,0.2,0.9,0.5
		c0.2,0.3,0.3,0.6,0.3,1c0,0.4-0.2,0.7-0.5,1c-0.3,0.3-0.8,0.4-1.3,0.4h-2V26.2z M66.9,26.7v2h1.3c0.4,0,0.7-0.1,0.9-0.3
		s0.3-0.4,0.3-0.7c0-0.3-0.1-0.5-0.3-0.7s-0.5-0.3-0.9-0.3H66.9z M66.9,31.3h1.4c0.4,0,0.7-0.1,0.9-0.3c0.2-0.2,0.3-0.5,0.3-0.8
		s-0.1-0.6-0.4-0.8c-0.2-0.2-0.6-0.3-1-0.3h-1.3V31.3z"/>
	<path class="st5" d="M71.9,26.1c0,0.1,0,0.2-0.1,0.3c-0.1,0.1-0.2,0.1-0.3,0.1c-0.1,0-0.2,0-0.3-0.1c-0.1-0.1-0.1-0.2-0.1-0.3
		c0-0.1,0-0.2,0.1-0.3c0.1-0.1,0.2-0.1,0.3-0.1c0.1,0,0.2,0,0.3,0.1C71.9,25.9,71.9,26,71.9,26.1z M71.2,31.7v-4.4h0.6v4.4H71.2z"/>
	<path class="st5" d="M75,31.8c-0.6,0-1.1-0.2-1.5-0.6c-0.4-0.4-0.6-1-0.6-1.6s0.2-1.2,0.6-1.6c0.4-0.4,0.9-0.6,1.6-0.6
		c0.6,0,1.1,0.2,1.6,0.6c0.4,0.4,0.6,1,0.6,1.6c0,0.7-0.2,1.2-0.7,1.6C76.1,31.6,75.6,31.8,75,31.8z M74.9,31.4
		c0.5,0,0.8-0.2,1.2-0.5c0.3-0.3,0.5-0.8,0.5-1.3c0-0.6-0.2-1-0.5-1.3c-0.3-0.3-0.7-0.5-1.2-0.5s-0.8,0.2-1.1,0.5
		c-0.3,0.3-0.5,0.8-0.5,1.3c0,0.6,0.1,1,0.4,1.3C74.1,31.2,74.5,31.4,74.9,31.4z"/>
	<path class="st5" d="M83.7,26.2v5.5h-0.6v-4.2l-2,4.2h-0.3l-2-4.2v4.2h-0.6v-5.5h0.5l2.2,4.7l2.2-4.7H83.7z"/>
	<path class="st5" d="M86.9,31.8c-0.6,0-1.1-0.2-1.5-0.6c-0.4-0.4-0.6-1-0.6-1.6c0-0.7,0.2-1.2,0.6-1.6s0.9-0.6,1.5-0.6
		s1.1,0.2,1.5,0.6c0.4,0.4,0.6,0.9,0.6,1.4c0,0.2,0,0.3,0,0.4h-3.6c0,0.5,0.2,0.9,0.5,1.2c0.3,0.3,0.6,0.4,1.1,0.4
		c0.3,0,0.6-0.1,0.9-0.2c0.2-0.2,0.4-0.4,0.5-0.6h0.6c-0.1,0.4-0.4,0.7-0.7,0.9C87.9,31.7,87.4,31.8,86.9,31.8z M88.5,29.3
		c0-0.5-0.1-0.9-0.4-1.1s-0.7-0.4-1.1-0.4c-0.4,0-0.8,0.1-1.1,0.4c-0.3,0.3-0.4,0.7-0.5,1.2H88.5z"/>
	<path class="st5" d="M90.4,31.2c-0.4-0.4-0.6-1-0.6-1.7c0-0.7,0.2-1.2,0.6-1.6c0.4-0.4,0.9-0.6,1.5-0.6c0.4,0,0.7,0.1,1,0.3
		c0.3,0.2,0.5,0.4,0.7,0.7v-2.5h0.6v5.9h-0.6v-1c-0.1,0.3-0.4,0.6-0.7,0.7c-0.3,0.2-0.6,0.3-1,0.3C91.3,31.8,90.8,31.6,90.4,31.2z
		 M93.1,30.8c0.3-0.3,0.5-0.8,0.5-1.3s-0.2-1-0.5-1.3c-0.3-0.3-0.7-0.5-1.1-0.5c-0.4,0-0.8,0.2-1.1,0.5s-0.5,0.7-0.5,1.3
		s0.2,1,0.5,1.3c0.3,0.3,0.7,0.5,1.1,0.5S92.8,31.2,93.1,30.8z"/>
	<path class="st5" d="M98.3,31c-0.5-0.5-0.8-1.2-0.8-2c0-0.8,0.3-1.5,0.8-2c0.5-0.5,1.2-0.8,2-0.8c0.6,0,1.1,0.1,1.5,0.4
		c0.4,0.3,0.8,0.6,1,1.1h-0.7c-0.2-0.3-0.4-0.6-0.7-0.8c-0.3-0.2-0.7-0.3-1.1-0.3c-0.6,0-1.2,0.2-1.6,0.6c-0.4,0.4-0.6,1-0.6,1.7
		c0,0.7,0.2,1.3,0.6,1.7c0.4,0.4,1,0.6,1.6,0.6c0.4,0,0.8-0.1,1.1-0.3c0.3-0.2,0.6-0.4,0.7-0.8h0.7c-0.2,0.5-0.6,0.9-1,1.1
		c-0.4,0.3-0.9,0.4-1.5,0.4C99.5,31.8,98.9,31.5,98.3,31z"/>
	<path class="st5" d="M105.8,31.8c-0.6,0-1.1-0.2-1.5-0.6s-0.6-1-0.6-1.6c0-0.7,0.2-1.2,0.6-1.6c0.4-0.4,0.9-0.6,1.5-0.6
		c0.6,0,1.1,0.2,1.5,0.6c0.4,0.4,0.6,0.9,0.6,1.4c0,0.2,0,0.3,0,0.4h-3.6c0,0.5,0.2,0.9,0.5,1.2s0.6,0.4,1.1,0.4
		c0.3,0,0.6-0.1,0.9-0.2c0.2-0.2,0.4-0.4,0.5-0.6h0.6c-0.1,0.4-0.4,0.7-0.7,0.9C106.7,31.7,106.3,31.8,105.8,31.8z M107.4,29.3
		c0-0.5-0.1-0.9-0.4-1.1s-0.7-0.4-1.1-0.4s-0.8,0.1-1.1,0.4s-0.4,0.7-0.5,1.2H107.4z"/>
	<path class="st5" d="M109.5,27.4v0.7c0.3-0.5,0.8-0.8,1.4-0.8c0.5,0,0.9,0.2,1.2,0.5c0.3,0.3,0.5,0.8,0.5,1.4v2.6h-0.6v-2.5
		c0-0.5-0.1-0.8-0.3-1.1s-0.5-0.4-1-0.4s-0.7,0.1-1,0.4s-0.3,0.6-0.3,1.1v2.5h-0.6v-4.4H109.5z"/>
	<path class="st5" d="M115.8,27.8h-1.2v2.9c0,0.2,0,0.4,0.1,0.5s0.2,0.1,0.5,0.1h0.6v0.4H115c-0.7,0-1-0.3-1-1v-2.9h-0.6v-0.4h0.6
		v-1.1h0.6v1.1h1.2V27.8z"/>
	<path class="st5" d="M117.2,27.4v0.7c0.2-0.5,0.7-0.8,1.4-0.8v0.6h-0.2c-0.4,0-0.7,0.1-0.9,0.3c-0.2,0.2-0.3,0.6-0.3,1.1v2.5h-0.6
		v-4.4H117.2z"/>
	<path class="st5" d="M119.7,31.2c-0.4-0.4-0.6-1-0.6-1.7c0-0.7,0.2-1.2,0.6-1.6c0.4-0.4,0.9-0.6,1.5-0.6c0.4,0,0.7,0.1,1,0.3
		c0.3,0.2,0.5,0.4,0.7,0.7v-1h0.6v4.4h-0.6v-1c-0.1,0.3-0.4,0.6-0.7,0.7c-0.3,0.2-0.6,0.3-1,0.3C120.6,31.8,120.1,31.6,119.7,31.2z
		 M122.4,30.8c0.3-0.3,0.5-0.8,0.5-1.3s-0.2-1-0.5-1.3c-0.3-0.3-0.7-0.5-1.1-0.5c-0.4,0-0.8,0.2-1.1,0.5s-0.5,0.7-0.5,1.3
		s0.2,1,0.5,1.3c0.3,0.3,0.7,0.5,1.1,0.5S122.1,31.2,122.4,30.8z"/>
	<path class="st5" d="M124.7,31.7v-5.9h0.6v5.9H124.7z"/>
</g>
<path class="st5" d="M10.6,39.1c0,0.2,0.1,0.4,0.2,0.5c0.1,0.1,0.3,0.2,0.4,0.3c0.2,0.1,0.4,0.1,0.6,0.2c0.2,0,0.4,0.1,0.7,0.2
	c0.2,0.1,0.4,0.1,0.6,0.2c0.2,0.1,0.3,0.2,0.4,0.4c0.1,0.2,0.2,0.4,0.2,0.7c0,0.4-0.2,0.8-0.5,1.1c-0.3,0.3-0.7,0.5-1.3,0.5
	c-0.5,0-1-0.1-1.3-0.4c-0.3-0.2-0.5-0.6-0.5-1h0.6c0,0.3,0.1,0.5,0.3,0.6c0.2,0.2,0.5,0.3,0.9,0.3s0.7-0.1,0.9-0.3
	c0.2-0.2,0.3-0.5,0.3-0.8c0-0.3-0.1-0.5-0.3-0.7c-0.2-0.2-0.5-0.3-0.8-0.3c-0.3-0.1-0.6-0.1-0.9-0.2c-0.3-0.1-0.6-0.2-0.8-0.5
	c-0.2-0.2-0.3-0.5-0.3-1c0-0.4,0.2-0.8,0.5-1.1c0.3-0.3,0.7-0.4,1.3-0.4s0.9,0.1,1.2,0.4c0.3,0.2,0.5,0.6,0.5,1h-0.6
	c0-0.2-0.1-0.4-0.3-0.6c-0.2-0.2-0.5-0.3-0.8-0.3s-0.6,0.1-0.9,0.3C10.7,38.5,10.6,38.7,10.6,39.1z M16.6,43.2
	c-0.6,0-1.1-0.2-1.5-0.6c-0.4-0.4-0.6-1-0.6-1.6c0-0.7,0.2-1.2,0.6-1.6c0.4-0.4,0.9-0.6,1.5-0.6c1,0,1.7,0.5,2,1.4H18
	c-0.1-0.3-0.3-0.5-0.5-0.7c-0.2-0.2-0.5-0.2-0.9-0.2c-0.5,0-0.8,0.2-1.1,0.5c-0.3,0.3-0.4,0.8-0.4,1.3s0.1,1,0.4,1.3
	c0.3,0.3,0.7,0.5,1.1,0.5c0.3,0,0.6-0.1,0.9-0.2c0.2-0.2,0.4-0.4,0.5-0.7h0.6c-0.1,0.4-0.4,0.7-0.7,1C17.5,43.1,17.1,43.2,16.6,43.2
	L16.6,43.2z M20.3,37.5c0,0.1,0,0.2-0.1,0.3c-0.1,0.1-0.2,0.1-0.3,0.1c-0.1,0-0.2,0-0.3-0.1c-0.1-0.1-0.1-0.2-0.1-0.3
	c0-0.1,0-0.2,0.1-0.3c0.1-0.1,0.2-0.1,0.3-0.1c0.1,0,0.2,0,0.3,0.1C20.3,37.3,20.3,37.4,20.3,37.5z M19.6,43.1v-4.4h0.6v4.4H19.6z
	 M23.3,43.2c-0.6,0-1.1-0.2-1.5-0.6c-0.4-0.4-0.6-1-0.6-1.6c0-0.7,0.2-1.2,0.6-1.6c0.4-0.4,0.9-0.6,1.5-0.6s1.1,0.2,1.5,0.6
	c0.4,0.4,0.6,0.9,0.6,1.4c0,0.2,0,0.3,0,0.4h-3.6c0,0.5,0.2,0.9,0.5,1.2c0.3,0.3,0.6,0.4,1.1,0.4c0.3,0,0.6-0.1,0.9-0.2
	c0.2-0.2,0.4-0.4,0.5-0.6h0.6c-0.1,0.4-0.4,0.7-0.7,0.9C24.2,43.1,23.8,43.2,23.3,43.2z M24.8,40.7c0-0.5-0.1-0.9-0.4-1.1
	c-0.3-0.3-0.7-0.4-1.1-0.4c-0.4,0-0.8,0.1-1.1,0.4c-0.3,0.3-0.4,0.7-0.5,1.2H24.8z M27,38.8v0.7c0.3-0.5,0.8-0.8,1.4-0.8
	c0.5,0,0.9,0.2,1.2,0.5c0.3,0.3,0.5,0.8,0.5,1.4v2.6h-0.6v-2.5c0-0.5-0.1-0.8-0.3-1.1c-0.2-0.3-0.5-0.4-1-0.4c-0.4,0-0.7,0.1-1,0.4
	c-0.2,0.3-0.3,0.6-0.3,1.1v2.5h-0.6v-4.4H27z M33.3,39.2H32v2.9c0,0.2,0,0.4,0.1,0.5c0.1,0.1,0.2,0.1,0.5,0.1h0.6v0.4h-0.7
	c-0.7,0-1-0.3-1-1v-2.9h-0.6v-0.4h0.6v-1.1H32v1.1h1.2V39.2z M34.8,37.5c0,0.1,0,0.2-0.1,0.3c-0.1,0.1-0.2,0.1-0.3,0.1
	c-0.1,0-0.2,0-0.3-0.1C34,37.7,34,37.6,34,37.5c0-0.1,0-0.2,0.1-0.3c0.1-0.1,0.2-0.1,0.3-0.1c0.1,0,0.2,0,0.3,0.1
	C34.8,37.3,34.8,37.4,34.8,37.5z M34.1,43.1v-4.4h0.6v4.4H34.1z M36.7,38.3v0.4h2.4v4.4h-0.6v-3.9h-1.9v3.9h-0.6v-3.9h-0.6v-0.4h0.6
	v-0.4c0-0.5,0.1-0.8,0.4-1c0.2-0.2,0.6-0.3,1.2-0.3v0.4c-0.4,0-0.6,0.1-0.7,0.2C36.8,37.8,36.7,38,36.7,38.3z M38.4,37.5
	c0-0.1,0-0.2,0.1-0.3c0.1-0.1,0.2-0.1,0.3-0.1c0.1,0,0.2,0,0.3,0.1c0.1,0.1,0.1,0.2,0.1,0.3c0,0.1,0,0.2-0.1,0.3
	c-0.1,0.1-0.2,0.1-0.3,0.1c-0.1,0-0.2,0-0.3-0.1C38.5,37.7,38.4,37.6,38.4,37.5z M42.2,43.2c-0.6,0-1.1-0.2-1.5-0.6
	c-0.4-0.4-0.6-1-0.6-1.6c0-0.7,0.2-1.2,0.6-1.6c0.4-0.4,0.9-0.6,1.5-0.6c1,0,1.7,0.5,2,1.4h-0.6c-0.1-0.3-0.3-0.5-0.5-0.7
	c-0.2-0.2-0.5-0.2-0.9-0.2c-0.5,0-0.8,0.2-1.1,0.5c-0.3,0.3-0.4,0.8-0.4,1.3s0.1,1,0.4,1.3c0.3,0.3,0.7,0.5,1.1,0.5
	c0.3,0,0.6-0.1,0.9-0.2c0.2-0.2,0.4-0.4,0.5-0.7h0.6c-0.1,0.4-0.4,0.7-0.7,1C43.2,43.1,42.8,43.2,42.2,43.2L42.2,43.2z M48.2,40.8
	v2.3h-0.6v-5.5h1.7c0.6,0,1.1,0.1,1.4,0.4c0.3,0.3,0.5,0.7,0.5,1.1c0,0.5-0.1,0.8-0.4,1.1c-0.3,0.3-0.6,0.5-1.1,0.5l1.6,2.3h-0.7
	L49,40.8H48.2z M48.2,38.1v2.3h1.1c0.9,0,1.3-0.4,1.3-1.1c0-0.8-0.4-1.1-1.3-1.1H48.2z M54.2,43.2c-0.6,0-1.1-0.2-1.5-0.6
	c-0.4-0.4-0.6-1-0.6-1.6c0-0.7,0.2-1.2,0.6-1.6c0.4-0.4,0.9-0.6,1.5-0.6c0.6,0,1.1,0.2,1.5,0.6c0.4,0.4,0.6,0.9,0.6,1.4
	c0,0.2,0,0.3,0,0.4h-3.6c0,0.5,0.2,0.9,0.5,1.2c0.3,0.3,0.6,0.4,1.1,0.4c0.3,0,0.6-0.1,0.9-0.2c0.2-0.2,0.4-0.4,0.5-0.6h0.6
	c-0.1,0.4-0.4,0.7-0.7,0.9C55.1,43.1,54.7,43.2,54.2,43.2z M55.7,40.7c0-0.5-0.1-0.9-0.4-1.1c-0.3-0.3-0.7-0.4-1.1-0.4
	c-0.4,0-0.8,0.1-1.1,0.4c-0.3,0.3-0.4,0.7-0.5,1.2H55.7z M57.1,40c0-0.4,0.1-0.7,0.4-0.9c0.3-0.2,0.7-0.4,1.1-0.4
	c0.5,0,0.8,0.1,1.1,0.4c0.3,0.2,0.4,0.6,0.4,1h-0.6c0-0.3-0.1-0.5-0.3-0.7c-0.2-0.2-0.4-0.3-0.7-0.3s-0.5,0.1-0.7,0.2
	c-0.2,0.1-0.3,0.3-0.3,0.5c0,0.2,0.1,0.4,0.2,0.5c0.1,0.1,0.3,0.2,0.5,0.2c0.2,0,0.4,0.1,0.6,0.2c0.2,0.1,0.4,0.1,0.6,0.2
	c0.2,0.1,0.4,0.2,0.5,0.4c0.1,0.2,0.2,0.4,0.2,0.7c0,0.4-0.1,0.6-0.4,0.9c-0.3,0.2-0.7,0.3-1.2,0.3c-0.5,0-0.9-0.1-1.1-0.4
	c-0.3-0.2-0.4-0.6-0.5-1h0.6c0,0.3,0.1,0.5,0.3,0.7c0.2,0.2,0.4,0.3,0.7,0.3c0.3,0,0.6-0.1,0.7-0.2s0.3-0.3,0.3-0.5
	c0-0.2-0.1-0.4-0.2-0.5c-0.1-0.1-0.3-0.2-0.5-0.3c-0.2,0-0.4-0.1-0.6-0.2c-0.2-0.1-0.4-0.1-0.6-0.2c-0.2-0.1-0.4-0.2-0.5-0.3
	C57.2,40.4,57.1,40.2,57.1,40z M63.3,43.2c-0.6,0-1.1-0.2-1.5-0.6c-0.4-0.4-0.6-1-0.6-1.6c0-0.7,0.2-1.2,0.6-1.6
	c0.4-0.4,0.9-0.6,1.5-0.6c0.6,0,1.1,0.2,1.5,0.6c0.4,0.4,0.6,0.9,0.6,1.4c0,0.2,0,0.3,0,0.4h-3.6c0,0.5,0.2,0.9,0.5,1.2
	c0.3,0.3,0.6,0.4,1.1,0.4c0.3,0,0.6-0.1,0.9-0.2c0.2-0.2,0.4-0.4,0.5-0.6h0.6c-0.1,0.4-0.4,0.7-0.7,0.9
	C64.2,43.1,63.8,43.2,63.3,43.2z M64.8,40.7c0-0.5-0.1-0.9-0.4-1.1c-0.3-0.3-0.7-0.4-1.1-0.4c-0.4,0-0.8,0.1-1.1,0.4
	c-0.3,0.3-0.4,0.7-0.5,1.2H64.8z M68.3,43.2c-0.6,0-1.1-0.2-1.5-0.6s-0.6-1-0.6-1.7c0-0.7,0.2-1.2,0.6-1.6c0.4-0.4,0.9-0.6,1.5-0.6
	c0.4,0,0.7,0.1,1,0.3c0.3,0.2,0.5,0.4,0.7,0.7v-1h0.6v4.4H70v-1c-0.1,0.3-0.4,0.6-0.7,0.7C69,43.1,68.7,43.2,68.3,43.2L68.3,43.2z
	 M69.5,42.2c0.3-0.3,0.5-0.8,0.5-1.3c0-0.5-0.2-1-0.5-1.3c-0.3-0.3-0.7-0.5-1.1-0.5s-0.8,0.2-1.1,0.5c-0.3,0.3-0.5,0.7-0.5,1.3
	c0,0.5,0.2,1,0.5,1.3c0.3,0.3,0.7,0.5,1.1,0.5C68.8,42.7,69.2,42.6,69.5,42.2z M72.4,38.8v0.7c0.2-0.5,0.7-0.8,1.4-0.8v0.6h-0.2
	c-0.4,0-0.7,0.1-0.9,0.3c-0.2,0.2-0.3,0.6-0.3,1.1v2.5h-0.6v-4.4H72.4z M76.4,43.2c-0.6,0-1.1-0.2-1.5-0.6c-0.4-0.4-0.6-1-0.6-1.6
	c0-0.7,0.2-1.2,0.6-1.6c0.4-0.4,0.9-0.6,1.5-0.6c1,0,1.7,0.5,2,1.4h-0.6c-0.1-0.3-0.3-0.5-0.5-0.7c-0.2-0.2-0.5-0.2-0.9-0.2
	c-0.5,0-0.8,0.2-1.1,0.5c-0.3,0.3-0.4,0.8-0.4,1.3s0.1,1,0.4,1.3c0.3,0.3,0.7,0.5,1.1,0.5c0.3,0,0.6-0.1,0.9-0.2
	c0.2-0.2,0.4-0.4,0.5-0.7h0.6c-0.1,0.4-0.4,0.7-0.7,1C77.3,43.1,76.9,43.2,76.4,43.2L76.4,43.2z M79.9,37.2v2.3
	c0.3-0.5,0.8-0.8,1.4-0.8c0.5,0,0.9,0.2,1.2,0.5c0.3,0.3,0.5,0.8,0.5,1.4v2.6h-0.6v-2.5c0-0.5-0.1-0.8-0.3-1.1
	c-0.2-0.3-0.5-0.4-1-0.4c-0.4,0-0.7,0.1-1,0.4c-0.2,0.3-0.3,0.6-0.3,1.1v2.5h-0.6v-5.9H79.9z M88.3,37.6c0.6,0,1.1,0.1,1.4,0.4
	c0.3,0.3,0.5,0.7,0.5,1.2c0,0.5-0.2,0.9-0.5,1.2c-0.3,0.3-0.8,0.4-1.4,0.4h-1.1v2.3h-0.6v-5.5H88.3L88.3,37.6z M87.2,40.4h1.1
	c0.9,0,1.3-0.4,1.3-1.1c0-0.8-0.4-1.1-1.3-1.1h-1.1V40.4z M94.3,38.8h0.6v4.4h-0.6v-0.7c-0.3,0.5-0.8,0.8-1.4,0.8
	c-0.5,0-0.9-0.2-1.2-0.5c-0.3-0.3-0.5-0.8-0.5-1.4v-2.6h0.6v2.5c0,0.5,0.1,0.8,0.3,1.1c0.2,0.3,0.5,0.4,1,0.4c0.4,0,0.7-0.1,1-0.4
	c0.2-0.3,0.3-0.6,0.3-1.1V38.8z M98.4,38.7c0.6,0,1.1,0.2,1.5,0.6c0.4,0.4,0.6,0.9,0.6,1.6c0,0.7-0.2,1.2-0.6,1.7s-0.9,0.6-1.5,0.6
	c-0.4,0-0.7-0.1-1-0.3c-0.3-0.2-0.5-0.4-0.7-0.7v1h-0.6v-5.9h0.6v2.5c0.1-0.3,0.4-0.6,0.7-0.7C97.7,38.8,98,38.7,98.4,38.7z
	 M98.3,42.7c0.4,0,0.8-0.2,1.1-0.5c0.3-0.3,0.5-0.8,0.5-1.3c0-0.5-0.2-1-0.5-1.3c-0.3-0.3-0.7-0.5-1.1-0.5c-0.5,0-0.8,0.2-1.1,0.5
	c-0.3,0.3-0.5,0.8-0.5,1.3c0,0.5,0.2,1,0.5,1.3C97.5,42.6,97.9,42.7,98.3,42.7z M101.5,43.1v-5.9h0.6v5.9H101.5z M104.1,37.5
	c0,0.1,0,0.2-0.1,0.3c-0.1,0.1-0.2,0.1-0.3,0.1c-0.1,0-0.2,0-0.3-0.1c-0.1-0.1-0.1-0.2-0.1-0.3c0-0.1,0-0.2,0.1-0.3
	c0.1-0.1,0.2-0.1,0.3-0.1c0.1,0,0.2,0,0.3,0.1C104.1,37.3,104.1,37.4,104.1,37.5z M103.4,43.1v-4.4h0.6v4.4H103.4z M105.1,40
	c0-0.4,0.1-0.7,0.4-0.9c0.3-0.2,0.7-0.4,1.1-0.4c0.5,0,0.8,0.1,1.1,0.4c0.3,0.2,0.4,0.6,0.4,1h-0.6c0-0.3-0.1-0.5-0.3-0.7
	c-0.2-0.2-0.4-0.3-0.7-0.3s-0.5,0.1-0.7,0.2c-0.2,0.1-0.3,0.3-0.3,0.5c0,0.2,0.1,0.4,0.2,0.5c0.1,0.1,0.3,0.2,0.5,0.2
	c0.2,0,0.4,0.1,0.6,0.2c0.2,0.1,0.4,0.1,0.6,0.2c0.2,0.1,0.4,0.2,0.5,0.4c0.1,0.2,0.2,0.4,0.2,0.7c0,0.4-0.1,0.6-0.4,0.9
	c-0.3,0.2-0.7,0.3-1.2,0.3c-0.5,0-0.9-0.1-1.1-0.4c-0.3-0.2-0.4-0.6-0.5-1h0.6c0,0.3,0.1,0.5,0.3,0.7c0.2,0.2,0.4,0.3,0.7,0.3
	c0.3,0,0.6-0.1,0.7-0.2s0.3-0.3,0.3-0.5c0-0.2-0.1-0.4-0.2-0.5c-0.1-0.1-0.3-0.2-0.5-0.3c-0.2,0-0.4-0.1-0.6-0.2
	c-0.2-0.1-0.4-0.1-0.6-0.2c-0.2-0.1-0.4-0.2-0.5-0.3C105.2,40.4,105.1,40.2,105.1,40z M110,37.2v2.3c0.3-0.5,0.8-0.8,1.4-0.8
	c0.5,0,0.9,0.2,1.2,0.5c0.3,0.3,0.5,0.8,0.5,1.4v2.6h-0.6v-2.5c0-0.5-0.1-0.8-0.3-1.1c-0.2-0.3-0.5-0.4-1-0.4c-0.4,0-0.7,0.1-1,0.4
	c-0.2,0.3-0.3,0.6-0.3,1.1v2.5h-0.6v-5.9H110z M115.1,37.5c0,0.1,0,0.2-0.1,0.3c-0.1,0.1-0.2,0.1-0.3,0.1c-0.1,0-0.2,0-0.3-0.1
	c-0.1-0.1-0.1-0.2-0.1-0.3c0-0.1,0-0.2,0.1-0.3c0.1-0.1,0.2-0.1,0.3-0.1c0.1,0,0.2,0,0.3,0.1C115,37.3,115.1,37.4,115.1,37.5z
	 M114.4,43.1v-4.4h0.6v4.4H114.4z M116.8,38.8v0.7c0.3-0.5,0.8-0.8,1.4-0.8c0.5,0,0.9,0.2,1.2,0.5c0.3,0.3,0.5,0.8,0.5,1.4v2.6h-0.6
	v-2.5c0-0.5-0.1-0.8-0.3-1.1c-0.2-0.3-0.5-0.4-1-0.4c-0.4,0-0.7,0.1-1,0.4c-0.2,0.3-0.3,0.6-0.3,1.1v2.5h-0.6v-4.4H116.8z M123,43.2
	c-0.6,0-1.1-0.2-1.5-0.6c-0.4-0.4-0.6-1-0.6-1.7c0-0.7,0.2-1.2,0.6-1.6c0.4-0.4,0.9-0.6,1.5-0.6c0.4,0,0.7,0.1,1,0.3
	c0.3,0.2,0.5,0.4,0.7,0.7v-1h0.6v4.5c0,0.6-0.2,1.1-0.6,1.4c-0.4,0.4-0.9,0.6-1.4,0.6c-0.6,0-1-0.1-1.4-0.4c-0.4-0.3-0.6-0.6-0.7-1
	h0.6c0.1,0.3,0.2,0.5,0.5,0.7c0.3,0.2,0.6,0.3,1,0.3c0.4,0,0.8-0.1,1-0.4c0.3-0.3,0.4-0.6,0.4-1.1v-1.1c-0.1,0.3-0.4,0.6-0.7,0.7
	C123.8,43.1,123.4,43.2,123,43.2L123,43.2z M124.3,42.2c0.3-0.3,0.5-0.8,0.5-1.3c0-0.5-0.2-1-0.5-1.3c-0.3-0.3-0.7-0.5-1.1-0.5
	c-0.4,0-0.8,0.2-1.1,0.5c-0.3,0.3-0.5,0.7-0.5,1.3c0,0.5,0.2,1,0.5,1.3c0.3,0.3,0.7,0.5,1.1,0.5C123.6,42.7,124,42.6,124.3,42.2z"/>
<g>
	<path class="st5" d="M67.8,48.6h1.9c0.6,0,1,0.1,1.3,0.4c0.3,0.3,0.5,0.6,0.5,1.1c0,0.6-0.4,1-1.1,1.2c0.4,0.1,0.6,0.2,0.9,0.5
		c0.2,0.3,0.3,0.6,0.3,1c0,0.4-0.2,0.7-0.5,1c-0.3,0.3-0.8,0.4-1.3,0.4h-2V48.6z M68.4,49.1v2h1.3c0.4,0,0.7-0.1,0.9-0.3
		s0.3-0.4,0.3-0.7c0-0.3-0.1-0.5-0.3-0.7s-0.5-0.3-0.9-0.3H68.4z M68.4,53.7h1.4c0.4,0,0.7-0.1,0.9-0.3c0.2-0.2,0.3-0.5,0.3-0.8
		s-0.1-0.6-0.4-0.8c-0.2-0.2-0.6-0.3-1-0.3h-1.3V53.7z"/>
	<path class="st5" d="M74.5,54.2c-0.6,0-1.1-0.2-1.5-0.6c-0.4-0.4-0.6-1-0.6-1.6c0-0.7,0.2-1.2,0.6-1.6s0.9-0.6,1.5-0.6
		s1.1,0.2,1.5,0.6c0.4,0.4,0.6,0.9,0.6,1.4c0,0.2,0,0.3,0,0.4H73c0,0.5,0.2,0.9,0.5,1.2c0.3,0.3,0.6,0.4,1.1,0.4
		c0.3,0,0.6-0.1,0.9-0.2c0.2-0.2,0.4-0.4,0.5-0.6h0.6c-0.1,0.4-0.4,0.7-0.7,0.9C75.5,54.1,75,54.2,74.5,54.2z M76.1,51.7
		c0-0.5-0.1-0.9-0.4-1.1c-0.3-0.3-0.7-0.4-1.1-0.4c-0.4,0-0.8,0.1-1.1,0.4S73,51.2,73,51.7H76.1z"/>
	<path class="st5" d="M78.2,49.8v0.7c0.3-0.5,0.8-0.8,1.4-0.8c0.5,0,0.9,0.2,1.2,0.5c0.3,0.3,0.5,0.8,0.5,1.4v2.6h-0.6v-2.5
		c0-0.5-0.1-0.8-0.3-1.1c-0.2-0.3-0.5-0.4-1-0.4c-0.4,0-0.7,0.1-1,0.4s-0.3,0.6-0.3,1.1v2.5h-0.6v-4.4H78.2z"/>
	<path class="st5" d="M84.5,50.2h-1.2v2.9c0,0.2,0,0.4,0.1,0.5s0.2,0.1,0.5,0.1h0.6v0.4h-0.7c-0.7,0-1-0.3-1-1v-2.9h-0.6v-0.4h0.6
		v-1.1h0.6v1.1h1.2V50.2z"/>
	<path class="st5" d="M85.9,48.2v2.3c0.3-0.5,0.8-0.8,1.4-0.8c0.5,0,0.9,0.2,1.2,0.5c0.3,0.3,0.5,0.8,0.5,1.4v2.6h-0.6v-2.5
		c0-0.5-0.1-0.8-0.3-1.1s-0.5-0.4-1-0.4s-0.7,0.1-1,0.4s-0.3,0.6-0.3,1.1v2.5h-0.6v-5.9H85.9z"/>
	<path class="st5" d="M90.6,53.6c-0.4-0.4-0.6-1-0.6-1.7c0-0.7,0.2-1.2,0.6-1.6s0.9-0.6,1.5-0.6c0.4,0,0.7,0.1,1,0.3
		c0.3,0.2,0.5,0.4,0.7,0.7v-1h0.6v4.4h-0.6v-1c-0.1,0.3-0.4,0.6-0.7,0.7s-0.6,0.3-1,0.3C91.5,54.2,91,54,90.6,53.6z M93.4,53.2
		c0.3-0.3,0.5-0.8,0.5-1.3s-0.2-1-0.5-1.3c-0.3-0.3-0.7-0.5-1.1-0.5c-0.4,0-0.8,0.2-1.1,0.5s-0.5,0.7-0.5,1.3s0.2,1,0.5,1.3
		s0.7,0.5,1.1,0.5S93.1,53.6,93.4,53.2z"/>
	<path class="st5" d="M96.3,49.8v0.7c0.3-0.5,0.8-0.8,1.4-0.8c0.3,0,0.7,0.1,0.9,0.2c0.3,0.2,0.5,0.4,0.6,0.7
		c0.1-0.3,0.4-0.5,0.6-0.7c0.3-0.2,0.6-0.3,1-0.3c0.5,0,0.9,0.2,1.2,0.5c0.3,0.3,0.5,0.8,0.5,1.4v2.6H102v-2.5
		c0-0.5-0.1-0.8-0.3-1.1s-0.5-0.4-1-0.4c-0.4,0-0.7,0.1-1,0.4c-0.2,0.3-0.3,0.6-0.3,1.1v2.5h-0.6v-2.5c0-0.5-0.1-0.8-0.3-1.1
		c-0.2-0.3-0.5-0.4-1-0.4c-0.4,0-0.7,0.1-1,0.4c-0.2,0.3-0.3,0.6-0.3,1.1v2.5h-0.6v-4.4H96.3z"/>
	<path class="st5" d="M108,54.2c-0.6,0-1.1-0.2-1.5-0.6c-0.4-0.4-0.6-1-0.6-1.6s0.2-1.2,0.6-1.6c0.4-0.4,0.9-0.6,1.6-0.6
		c0.6,0,1.1,0.2,1.6,0.6c0.4,0.4,0.6,1,0.6,1.6c0,0.7-0.2,1.2-0.7,1.6C109.1,54,108.6,54.2,108,54.2z M108,53.8
		c0.5,0,0.8-0.2,1.2-0.5c0.3-0.3,0.5-0.8,0.5-1.3c0-0.6-0.2-1-0.5-1.3c-0.3-0.3-0.7-0.5-1.2-0.5s-0.8,0.2-1.1,0.5
		c-0.3,0.3-0.5,0.8-0.5,1.3c0,0.6,0.1,1,0.4,1.3C107.1,53.6,107.5,53.8,108,53.8z"/>
	<path class="st5" d="M113.5,49.7c0.6,0,1.1,0.2,1.5,0.6s0.6,0.9,0.6,1.6c0,0.7-0.2,1.2-0.6,1.7c-0.4,0.4-0.9,0.6-1.5,0.6
		c-0.4,0-0.7-0.1-1-0.3c-0.3-0.2-0.5-0.4-0.7-0.7v3h-0.6v-6.4h0.6v1c0.1-0.3,0.4-0.6,0.7-0.7C112.8,49.8,113.1,49.7,113.5,49.7z
		 M113.4,53.7c0.4,0,0.8-0.2,1.1-0.5s0.5-0.8,0.5-1.3s-0.2-1-0.5-1.3c-0.3-0.3-0.7-0.5-1.1-0.5c-0.5,0-0.8,0.2-1.1,0.5
		c-0.3,0.3-0.5,0.8-0.5,1.3s0.2,1,0.5,1.3C112.6,53.6,113,53.7,113.4,53.7z"/>
	<path class="st5" d="M118.5,54.2c-0.6,0-1.1-0.2-1.5-0.6s-0.6-1-0.6-1.6c0-0.7,0.2-1.2,0.6-1.6c0.4-0.4,0.9-0.6,1.5-0.6
		c0.6,0,1.1,0.2,1.5,0.6c0.4,0.4,0.6,0.9,0.6,1.4c0,0.2,0,0.3,0,0.4H117c0,0.5,0.2,0.9,0.5,1.2s0.6,0.4,1.1,0.4
		c0.3,0,0.6-0.1,0.9-0.2c0.2-0.2,0.4-0.4,0.5-0.6h0.6c-0.1,0.4-0.4,0.7-0.7,0.9C119.4,54.1,119,54.2,118.5,54.2z M120,51.7
		c0-0.5-0.1-0.9-0.4-1.1s-0.7-0.4-1.1-0.4s-0.8,0.1-1.1,0.4s-0.4,0.7-0.5,1.2H120z"/>
	<path class="st5" d="M122.2,49.8v0.7c0.3-0.5,0.8-0.8,1.4-0.8c0.5,0,0.9,0.2,1.2,0.5c0.3,0.3,0.5,0.8,0.5,1.4v2.6h-0.6v-2.5
		c0-0.5-0.1-0.8-0.3-1.1s-0.5-0.4-1-0.4s-0.7,0.1-1,0.4s-0.3,0.6-0.3,1.1v2.5h-0.6v-4.4H122.2z"/>
</g>
<g>
	<path class="st5" d="M52.2,60.5c0.9,0,1.6,0.2,2.1,0.7c0.5,0.5,0.8,1.2,0.8,2.1c0,0.9-0.3,1.5-0.8,2c-0.5,0.5-1.2,0.7-2.1,0.7h-1.7
		v-5.5H52.2z M51.1,65.6h1.1c0.7,0,1.3-0.2,1.7-0.6c0.4-0.4,0.6-1,0.6-1.7c0-0.7-0.2-1.3-0.6-1.7s-1-0.6-1.7-0.6h-1.1V65.6z"/>
	<path class="st5" d="M58,66.1c-0.6,0-1.1-0.2-1.5-0.6c-0.4-0.4-0.6-1-0.6-1.6c0-0.7,0.2-1.2,0.6-1.6c0.4-0.4,0.9-0.6,1.6-0.6
		c0.6,0,1.1,0.2,1.6,0.6c0.4,0.4,0.6,1,0.6,1.6c0,0.7-0.2,1.2-0.7,1.6C59.1,65.9,58.6,66.1,58,66.1z M58,65.7c0.5,0,0.8-0.2,1.2-0.5
		c0.3-0.3,0.5-0.8,0.5-1.3c0-0.6-0.2-1-0.5-1.3C58.9,62.2,58.5,62,58,62s-0.8,0.2-1.1,0.5c-0.3,0.3-0.5,0.8-0.5,1.3
		c0,0.6,0.1,1,0.4,1.3C57.2,65.5,57.5,65.7,58,65.7z"/>
	<path class="st5" d="M60.6,61.7h0.6l1.4,3.8l1.4-3.8h0.6L62.9,66h-0.6L60.6,61.7z"/>
	<path class="st5" d="M67.2,66.1c-0.6,0-1.1-0.2-1.5-0.6c-0.4-0.4-0.6-1-0.6-1.6c0-0.7,0.2-1.2,0.6-1.6s0.9-0.6,1.5-0.6
		s1.1,0.2,1.5,0.6c0.4,0.4,0.6,0.9,0.6,1.4c0,0.2,0,0.3,0,0.4h-3.6c0,0.5,0.2,0.9,0.5,1.2c0.3,0.3,0.6,0.4,1.1,0.4
		c0.3,0,0.6-0.1,0.9-0.2c0.2-0.2,0.4-0.4,0.5-0.6h0.6c-0.1,0.4-0.4,0.7-0.7,0.9C68.1,66,67.7,66.1,67.2,66.1z M68.7,63.6
		c0-0.5-0.1-0.9-0.4-1.1C68,62.2,67.6,62,67.2,62c-0.4,0-0.8,0.1-1.1,0.4s-0.4,0.7-0.5,1.2H68.7z"/>
	<path class="st5" d="M78.1,60.5V66h-0.6v-4.2l-2,4.2h-0.3l-2-4.2V66h-0.6v-5.5h0.5l2.2,4.7l2.2-4.7H78.1z"/>
	<path class="st5" d="M81.3,66.1c-0.6,0-1.1-0.2-1.5-0.6c-0.4-0.4-0.6-1-0.6-1.6c0-0.7,0.2-1.2,0.6-1.6c0.4-0.4,0.9-0.6,1.5-0.6
		c0.6,0,1.1,0.2,1.5,0.6c0.4,0.4,0.6,0.9,0.6,1.4c0,0.2,0,0.3,0,0.4h-3.6c0,0.5,0.2,0.9,0.5,1.2s0.6,0.4,1.1,0.4
		c0.3,0,0.6-0.1,0.9-0.2c0.2-0.2,0.4-0.4,0.5-0.6h0.6c-0.1,0.4-0.4,0.7-0.7,0.9C82.2,66,81.8,66.1,81.3,66.1z M82.8,63.6
		c0-0.5-0.1-0.9-0.4-1.1c-0.3-0.3-0.7-0.4-1.1-0.4s-0.8,0.1-1.1,0.4c-0.3,0.3-0.4,0.7-0.5,1.2H82.8z"/>
	<path class="st5" d="M84.7,65.5c-0.4-0.4-0.6-1-0.6-1.7c0-0.7,0.2-1.2,0.6-1.6s0.9-0.6,1.5-0.6c0.4,0,0.7,0.1,1,0.3
		c0.3,0.2,0.5,0.4,0.7,0.7v-2.5h0.6V66H88v-1c-0.1,0.3-0.4,0.6-0.7,0.7c-0.3,0.2-0.6,0.3-1,0.3C85.7,66.1,85.1,65.9,84.7,65.5z
		 M87.5,65.1c0.3-0.3,0.5-0.8,0.5-1.3c0-0.5-0.2-1-0.5-1.3c-0.3-0.3-0.7-0.5-1.1-0.5c-0.4,0-0.8,0.2-1.1,0.5
		c-0.3,0.3-0.5,0.7-0.5,1.3c0,0.5,0.2,1,0.5,1.3s0.7,0.5,1.1,0.5S87.2,65.5,87.5,65.1z"/>
	<path class="st5" d="M90.5,60.4c0,0.1,0,0.2-0.1,0.3c-0.1,0.1-0.2,0.1-0.3,0.1c-0.1,0-0.2,0-0.3-0.1c-0.1-0.1-0.1-0.2-0.1-0.3
		c0-0.1,0-0.2,0.1-0.3C89.9,60,90,60,90.1,60c0.1,0,0.2,0,0.3,0.1C90.5,60.2,90.5,60.3,90.5,60.4z M89.8,66v-4.4h0.6V66H89.8z"/>
	<path class="st5" d="M92,65.5c-0.4-0.4-0.6-1-0.6-1.6c0-0.7,0.2-1.2,0.6-1.6s0.9-0.6,1.5-0.6c1,0,1.7,0.5,2,1.4h-0.6
		c-0.1-0.3-0.3-0.5-0.5-0.7c-0.2-0.2-0.5-0.2-0.9-0.2c-0.5,0-0.8,0.2-1.1,0.5c-0.3,0.3-0.4,0.8-0.4,1.3c0,0.6,0.1,1,0.4,1.3
		s0.7,0.5,1.1,0.5c0.3,0,0.6-0.1,0.9-0.2c0.2-0.2,0.4-0.4,0.5-0.7h0.6c-0.1,0.4-0.4,0.7-0.7,1c-0.3,0.3-0.7,0.4-1.3,0.4
		C92.9,66.1,92.4,65.9,92,65.5z"/>
	<path class="st5" d="M96.8,65.5c-0.4-0.4-0.6-1-0.6-1.7c0-0.7,0.2-1.2,0.6-1.6c0.4-0.4,0.9-0.6,1.5-0.6c0.4,0,0.7,0.1,1,0.3
		c0.3,0.2,0.5,0.4,0.7,0.7v-1h0.6V66H100v-1c-0.1,0.3-0.4,0.6-0.7,0.7c-0.3,0.2-0.6,0.3-1,0.3C97.7,66.1,97.2,65.9,96.8,65.5z
		 M99.6,65.1c0.3-0.3,0.5-0.8,0.5-1.3c0-0.5-0.2-1-0.5-1.3c-0.3-0.3-0.7-0.5-1.1-0.5c-0.4,0-0.8,0.2-1.1,0.5s-0.5,0.7-0.5,1.3
		c0,0.5,0.2,1,0.5,1.3c0.3,0.3,0.7,0.5,1.1,0.5S99.3,65.5,99.6,65.1z"/>
	<path class="st5" d="M101.9,66v-5.9h0.6V66H101.9z"/>
	<path class="st5" d="M109.1,60.9c0.3,0.3,0.5,0.7,0.5,1.2c0,0.5-0.2,0.9-0.5,1.2s-0.8,0.4-1.4,0.4h-1.1V66H106v-5.5h1.7
		C108.4,60.5,108.8,60.7,109.1,60.9z M106.6,63.3h1.1c0.9,0,1.3-0.4,1.3-1.1s-0.4-1.1-1.3-1.1h-1.1V63.3z"/>
	<path class="st5" d="M111.1,61.7v0.7c0.2-0.5,0.7-0.8,1.4-0.8v0.6h-0.2c-0.4,0-0.7,0.1-0.9,0.3c-0.2,0.2-0.3,0.6-0.3,1.1V66h-0.6
		v-4.4H111.1z"/>
	<path class="st5" d="M115.1,66.1c-0.6,0-1.1-0.2-1.5-0.6s-0.6-1-0.6-1.6c0-0.7,0.2-1.2,0.6-1.6c0.4-0.4,0.9-0.6,1.5-0.6
		c0.6,0,1.1,0.2,1.5,0.6c0.4,0.4,0.6,0.9,0.6,1.4c0,0.2,0,0.3,0,0.4h-3.6c0,0.5,0.2,0.9,0.5,1.2s0.6,0.4,1.1,0.4
		c0.3,0,0.6-0.1,0.9-0.2c0.2-0.2,0.4-0.4,0.5-0.6h0.6c-0.1,0.4-0.4,0.7-0.7,0.9C116,66,115.6,66.1,115.1,66.1z M116.6,63.6
		c0-0.5-0.1-0.9-0.4-1.1s-0.7-0.4-1.1-0.4s-0.8,0.1-1.1,0.4s-0.4,0.7-0.5,1.2H116.6z"/>
	<path class="st5" d="M118,62.9c0-0.4,0.2-0.7,0.4-0.9c0.3-0.2,0.7-0.4,1.1-0.4c0.5,0,0.8,0.1,1.1,0.4c0.3,0.2,0.4,0.6,0.4,1h-0.6
		c0-0.3-0.1-0.5-0.3-0.7c-0.2-0.2-0.4-0.3-0.7-0.3c-0.3,0-0.5,0.1-0.7,0.2c-0.2,0.1-0.3,0.3-0.3,0.5c0,0.2,0.1,0.4,0.2,0.5
		c0.1,0.1,0.3,0.2,0.5,0.2c0.2,0,0.4,0.1,0.6,0.2s0.4,0.1,0.6,0.2c0.2,0.1,0.4,0.2,0.5,0.4c0.1,0.2,0.2,0.4,0.2,0.7
		c0,0.4-0.1,0.6-0.4,0.9c-0.3,0.2-0.7,0.3-1.2,0.3c-0.5,0-0.9-0.1-1.1-0.4s-0.4-0.6-0.5-1h0.6c0,0.3,0.1,0.5,0.3,0.7
		c0.2,0.2,0.4,0.3,0.7,0.3s0.6-0.1,0.7-0.2c0.2-0.1,0.3-0.3,0.3-0.5c0-0.2-0.1-0.4-0.2-0.5c-0.1-0.1-0.3-0.2-0.5-0.3
		c-0.2,0-0.4-0.1-0.6-0.2c-0.2-0.1-0.4-0.1-0.6-0.2c-0.2-0.1-0.4-0.2-0.5-0.3S118,63.1,118,62.9z"/>
	<path class="st5" d="M122.2,62.9c0-0.4,0.2-0.7,0.4-0.9c0.3-0.2,0.7-0.4,1.1-0.4c0.5,0,0.8,0.1,1.1,0.4c0.3,0.2,0.4,0.6,0.4,1h-0.6
		c0-0.3-0.1-0.5-0.3-0.7c-0.2-0.2-0.4-0.3-0.7-0.3c-0.3,0-0.5,0.1-0.7,0.2c-0.2,0.1-0.3,0.3-0.3,0.5c0,0.2,0.1,0.4,0.2,0.5
		c0.1,0.1,0.3,0.2,0.5,0.2c0.2,0,0.4,0.1,0.6,0.2s0.4,0.1,0.6,0.2c0.2,0.1,0.4,0.2,0.5,0.4c0.1,0.2,0.2,0.4,0.2,0.7
		c0,0.4-0.1,0.6-0.4,0.9c-0.3,0.2-0.7,0.3-1.2,0.3c-0.5,0-0.9-0.1-1.1-0.4s-0.4-0.6-0.5-1h0.6c0,0.3,0.1,0.5,0.3,0.7
		c0.2,0.2,0.4,0.3,0.7,0.3s0.6-0.1,0.7-0.2c0.2-0.1,0.3-0.3,0.3-0.5c0-0.2-0.1-0.4-0.2-0.5c-0.1-0.1-0.3-0.2-0.5-0.3
		c-0.2,0-0.4-0.1-0.6-0.2c-0.2-0.1-0.4-0.1-0.6-0.2c-0.2-0.1-0.4-0.2-0.5-0.3S122.2,63.1,122.2,62.9z"/>
</g>
<g>
	<path class="st5" d="M94,74.9c0,0.2,0.1,0.4,0.2,0.5s0.3,0.2,0.4,0.3c0.2,0.1,0.4,0.1,0.6,0.2s0.4,0.1,0.7,0.2s0.4,0.1,0.6,0.2
		c0.2,0.1,0.3,0.2,0.4,0.4c0.1,0.2,0.2,0.4,0.2,0.7c0,0.4-0.2,0.8-0.5,1.1c-0.3,0.3-0.7,0.5-1.3,0.5s-1-0.1-1.3-0.4
		c-0.3-0.2-0.5-0.6-0.5-1h0.6c0,0.3,0.1,0.5,0.3,0.6s0.5,0.3,0.9,0.3s0.7-0.1,0.9-0.3c0.2-0.2,0.3-0.5,0.3-0.8
		c0-0.3-0.1-0.5-0.3-0.7c-0.2-0.2-0.5-0.3-0.8-0.3c-0.3-0.1-0.6-0.1-0.9-0.2c-0.3-0.1-0.6-0.2-0.8-0.5s-0.3-0.5-0.3-1
		c0-0.4,0.2-0.8,0.5-1.1s0.7-0.4,1.3-0.4s0.9,0.1,1.2,0.4s0.5,0.6,0.5,1h-0.6c0-0.2-0.1-0.4-0.3-0.6c-0.2-0.2-0.5-0.3-0.8-0.3
		c-0.4,0-0.6,0.1-0.9,0.3S94,74.5,94,74.9z"/>
	<path class="st5" d="M100.5,74.5c0.6,0,1.1,0.2,1.5,0.6s0.6,0.9,0.6,1.6c0,0.7-0.2,1.2-0.6,1.7c-0.4,0.4-0.9,0.6-1.5,0.6
		c-0.4,0-0.7-0.1-1-0.3c-0.3-0.2-0.5-0.4-0.7-0.7v3h-0.6v-6.4h0.6v1c0.1-0.3,0.4-0.6,0.7-0.7C99.7,74.6,100.1,74.5,100.5,74.5z
		 M100.4,78.5c0.4,0,0.8-0.2,1.1-0.5s0.5-0.8,0.5-1.3s-0.2-1-0.5-1.3c-0.3-0.3-0.7-0.5-1.1-0.5c-0.5,0-0.8,0.2-1.1,0.5
		c-0.3,0.3-0.5,0.8-0.5,1.3s0.2,1,0.5,1.3C99.6,78.4,100,78.5,100.4,78.5z"/>
	<path class="st5" d="M104.2,74.6v0.7c0.2-0.5,0.7-0.8,1.4-0.8v0.6h-0.2c-0.4,0-0.7,0.1-0.9,0.3s-0.3,0.6-0.3,1.1v2.5h-0.6v-4.4
		H104.2z"/>
	<path class="st5" d="M107.2,73.3c0,0.1,0,0.2-0.1,0.3c-0.1,0.1-0.2,0.1-0.3,0.1s-0.2,0-0.3-0.1c-0.1-0.1-0.1-0.2-0.1-0.3
		c0-0.1,0-0.2,0.1-0.3c0.1-0.1,0.2-0.1,0.3-0.1s0.2,0,0.3,0.1C107.1,73.1,107.2,73.2,107.2,73.3z M106.5,78.9v-4.4h0.6v4.4H106.5z"
		/>
	<path class="st5" d="M108.9,74.6v0.7c0.3-0.5,0.8-0.8,1.4-0.8c0.5,0,0.9,0.2,1.2,0.5s0.5,0.8,0.5,1.4v2.6h-0.6v-2.5
		c0-0.5-0.1-0.8-0.3-1.1s-0.5-0.4-1-0.4s-0.7,0.1-1,0.4c-0.2,0.3-0.3,0.6-0.3,1.1v2.5h-0.6v-4.4H108.9z"/>
	<path class="st5" d="M113.6,78.4c-0.4-0.4-0.6-1-0.6-1.7c0-0.7,0.2-1.2,0.6-1.6c0.4-0.4,0.9-0.6,1.5-0.6c0.4,0,0.7,0.1,1,0.3
		c0.3,0.2,0.5,0.4,0.7,0.7v-1h0.6v4.5c0,0.6-0.2,1.1-0.6,1.4s-0.9,0.6-1.4,0.6c-0.6,0-1-0.1-1.4-0.4c-0.4-0.3-0.6-0.6-0.7-1h0.6
		c0.1,0.3,0.2,0.5,0.5,0.7s0.6,0.3,1,0.3s0.8-0.1,1-0.4s0.4-0.6,0.4-1.1V78c-0.1,0.3-0.4,0.6-0.7,0.7s-0.6,0.3-1,0.3
		C114.5,79,114,78.8,113.6,78.4z M116.4,78.1c0.3-0.3,0.5-0.8,0.5-1.3s-0.2-1-0.5-1.3c-0.3-0.3-0.7-0.5-1.1-0.5s-0.8,0.2-1.1,0.5
		c-0.3,0.3-0.5,0.7-0.5,1.3s0.2,1,0.5,1.3c0.3,0.3,0.7,0.5,1.1,0.5S116,78.4,116.4,78.1z"/>
	<path class="st5" d="M120.5,79c-0.6,0-1.1-0.2-1.5-0.6c-0.4-0.4-0.6-1-0.6-1.6c0-0.7,0.2-1.2,0.6-1.6c0.4-0.4,0.9-0.6,1.5-0.6
		c0.6,0,1.1,0.2,1.5,0.6c0.4,0.4,0.6,0.9,0.6,1.4c0,0.2,0,0.3,0,0.4H119c0,0.5,0.2,0.9,0.5,1.2s0.6,0.4,1.1,0.4
		c0.3,0,0.6-0.1,0.9-0.2c0.2-0.2,0.4-0.4,0.5-0.6h0.6c-0.1,0.4-0.4,0.7-0.7,0.9C121.5,78.9,121,79,120.5,79z M122.1,76.5
		c0-0.5-0.1-0.9-0.4-1.1c-0.3-0.3-0.7-0.4-1.1-0.4s-0.8,0.1-1.1,0.4c-0.3,0.3-0.4,0.7-0.5,1.2H122.1z"/>
	<path class="st5" d="M124.2,74.6v0.7c0.2-0.5,0.7-0.8,1.4-0.8v0.6h-0.2c-0.4,0-0.7,0.1-0.9,0.3s-0.3,0.6-0.3,1.1v2.5h-0.6v-4.4
		H124.2z"/>
</g>
<g>
	<path class="st5" d="M59.9,83.7h0.6v5.1h2v0.4h-2.6V83.7z"/>
	<path class="st5" d="M64,83.6c0,0.1,0,0.2-0.1,0.3c-0.1,0.1-0.2,0.1-0.3,0.1c-0.1,0-0.2,0-0.3-0.1c-0.1-0.1-0.1-0.2-0.1-0.3
		c0-0.1,0-0.2,0.1-0.3c0.1-0.1,0.2-0.1,0.3-0.1c0.1,0,0.2,0,0.3,0.1C64,83.4,64,83.5,64,83.6z M63.3,89.2v-4.4h0.6v4.4H63.3z"/>
	<path class="st5" d="M67.4,84.8c0.6,0,1.1,0.2,1.5,0.6c0.4,0.4,0.6,0.9,0.6,1.6c0,0.7-0.2,1.2-0.6,1.7c-0.4,0.4-0.9,0.6-1.5,0.6
		c-0.4,0-0.7-0.1-1-0.3c-0.3-0.2-0.5-0.4-0.7-0.7v1h-0.6v-5.9h0.6v2.5c0.1-0.3,0.4-0.6,0.7-0.7C66.7,84.9,67,84.8,67.4,84.8z
		 M67.3,88.8c0.4,0,0.8-0.2,1.1-0.5C68.8,88,69,87.6,69,87s-0.2-1-0.5-1.3s-0.7-0.5-1.1-0.5s-0.8,0.2-1.1,0.5
		c-0.3,0.3-0.5,0.8-0.5,1.3s0.2,1,0.5,1.3C66.5,88.7,66.9,88.8,67.3,88.8z"/>
	<path class="st5" d="M72.4,89.3c-0.6,0-1.1-0.2-1.5-0.6s-0.6-1-0.6-1.6c0-0.7,0.2-1.2,0.6-1.6c0.4-0.4,0.9-0.6,1.5-0.6
		c0.6,0,1.1,0.2,1.5,0.6c0.4,0.4,0.6,0.9,0.6,1.4c0,0.2,0,0.3,0,0.4h-3.6c0,0.5,0.2,0.9,0.5,1.2s0.6,0.4,1.1,0.4
		c0.3,0,0.6-0.1,0.9-0.2c0.2-0.2,0.4-0.4,0.5-0.6h0.6c-0.1,0.4-0.4,0.7-0.7,0.9C73.3,89.2,72.9,89.3,72.4,89.3z M73.9,86.8
		c0-0.5-0.1-0.9-0.4-1.1s-0.7-0.4-1.1-0.4s-0.8,0.1-1.1,0.4s-0.4,0.7-0.5,1.2H73.9z"/>
	<path class="st5" d="M76.1,84.9v0.7c0.2-0.5,0.7-0.8,1.4-0.8v0.6h-0.2c-0.4,0-0.7,0.1-0.9,0.3s-0.3,0.6-0.3,1.1v2.5h-0.6v-4.4H76.1
		z"/>
	<path class="st5" d="M80.5,85.3h-1.2v2.9c0,0.2,0,0.4,0.1,0.5s0.2,0.1,0.5,0.1h0.6v0.4h-0.7c-0.7,0-1-0.3-1-1v-2.9h-0.6v-0.4h0.6
		v-1.1h0.6v1.1h1.2V85.3z"/>
	<path class="st5" d="M81.5,88.7c-0.4-0.4-0.6-1-0.6-1.7c0-0.7,0.2-1.2,0.6-1.6c0.4-0.4,0.9-0.6,1.5-0.6c0.4,0,0.7,0.1,1,0.3
		c0.3,0.2,0.5,0.4,0.7,0.7v-1h0.6v4.4h-0.6v-1c-0.1,0.3-0.4,0.6-0.7,0.7s-0.6,0.3-1,0.3C82.4,89.3,81.9,89.1,81.5,88.7z M84.3,88.4
		c0.3-0.3,0.5-0.8,0.5-1.3s-0.2-1-0.5-1.3c-0.3-0.3-0.7-0.5-1.1-0.5s-0.8,0.2-1.1,0.5c-0.3,0.3-0.5,0.7-0.5,1.3s0.2,1,0.5,1.3
		c0.3,0.3,0.7,0.5,1.1,0.5S84,88.7,84.3,88.4z"/>
	<path class="st5" d="M86.5,86.1c0-0.4,0.2-0.7,0.4-0.9c0.3-0.2,0.7-0.4,1.1-0.4c0.5,0,0.8,0.1,1.1,0.4c0.3,0.2,0.4,0.6,0.4,1H89
		c0-0.3-0.1-0.5-0.3-0.7c-0.2-0.2-0.4-0.3-0.7-0.3c-0.3,0-0.5,0.1-0.7,0.2C87.1,85.6,87,85.8,87,86c0,0.2,0.1,0.4,0.2,0.5
		c0.1,0.1,0.3,0.2,0.5,0.2c0.2,0,0.4,0.1,0.6,0.2s0.4,0.1,0.6,0.2c0.2,0.1,0.4,0.2,0.5,0.4c0.1,0.2,0.2,0.4,0.2,0.7
		c0,0.4-0.1,0.6-0.4,0.9c-0.3,0.2-0.7,0.3-1.2,0.3c-0.5,0-0.9-0.1-1.1-0.4s-0.4-0.6-0.5-1H87c0,0.3,0.1,0.5,0.3,0.7
		c0.2,0.2,0.4,0.3,0.7,0.3s0.6-0.1,0.7-0.2c0.2-0.1,0.3-0.3,0.3-0.5c0-0.2-0.1-0.4-0.2-0.5c-0.1-0.1-0.3-0.2-0.5-0.3
		c-0.2,0-0.4-0.1-0.6-0.2s-0.4-0.1-0.6-0.2c-0.2-0.1-0.4-0.2-0.5-0.3S86.5,86.3,86.5,86.1z"/>
	<path class="st5" d="M97,89.2L96.6,88H94l-0.5,1.3h-0.6l2-5.5h0.6l2,5.5H97z M94.1,87.5h2.2l-1.1-3.1L94.1,87.5z"/>
	<path class="st5" d="M99.1,84.9v0.7c0.3-0.5,0.8-0.8,1.4-0.8c0.3,0,0.7,0.1,0.9,0.2c0.3,0.2,0.5,0.4,0.6,0.7
		c0.1-0.3,0.4-0.5,0.6-0.7c0.3-0.2,0.6-0.3,1-0.3c0.5,0,0.9,0.2,1.2,0.5c0.3,0.3,0.5,0.8,0.5,1.4v2.6h-0.6v-2.5
		c0-0.5-0.1-0.8-0.3-1.1s-0.5-0.4-1-0.4c-0.4,0-0.7,0.1-1,0.4c-0.2,0.3-0.3,0.6-0.3,1.1v2.5h-0.6v-2.5c0-0.5-0.1-0.8-0.3-1.1
		c-0.2-0.3-0.5-0.4-1-0.4c-0.4,0-0.7,0.1-1,0.4c-0.2,0.3-0.3,0.6-0.3,1.1v2.5h-0.6v-4.4H99.1z"/>
	<path class="st5" d="M108.5,89.3c-0.6,0-1.1-0.2-1.5-0.6c-0.4-0.4-0.6-1-0.6-1.6c0-0.7,0.2-1.2,0.6-1.6s0.9-0.6,1.5-0.6
		s1.1,0.2,1.5,0.6c0.4,0.4,0.6,0.9,0.6,1.4c0,0.2,0,0.3,0,0.4H107c0,0.5,0.2,0.9,0.5,1.2c0.3,0.3,0.6,0.4,1.1,0.4
		c0.3,0,0.6-0.1,0.9-0.2c0.2-0.2,0.4-0.4,0.5-0.6h0.6c-0.1,0.4-0.4,0.7-0.7,0.9C109.4,89.2,109,89.3,108.5,89.3z M110,86.8
		c0-0.5-0.1-0.9-0.4-1.1s-0.7-0.4-1.1-0.4c-0.4,0-0.8,0.1-1.1,0.4c-0.3,0.3-0.4,0.7-0.5,1.2H110z"/>
	<path class="st5" d="M112.2,84.9v0.7c0.2-0.5,0.7-0.8,1.4-0.8v0.6h-0.2c-0.4,0-0.7,0.1-0.9,0.3s-0.3,0.6-0.3,1.1v2.5h-0.6v-4.4
		H112.2z"/>
	<path class="st5" d="M115.2,83.6c0,0.1,0,0.2-0.1,0.3c-0.1,0.1-0.2,0.1-0.3,0.1s-0.2,0-0.3-0.1c-0.1-0.1-0.1-0.2-0.1-0.3
		c0-0.1,0-0.2,0.1-0.3c0.1-0.1,0.2-0.1,0.3-0.1s0.2,0,0.3,0.1C115.1,83.4,115.2,83.5,115.2,83.6z M114.5,89.2v-4.4h0.6v4.4H114.5z"
		/>
	<path class="st5" d="M116.6,88.7c-0.4-0.4-0.6-1-0.6-1.6c0-0.7,0.2-1.2,0.6-1.6c0.4-0.4,0.9-0.6,1.5-0.6c1,0,1.7,0.5,2,1.4h-0.6
		c-0.1-0.3-0.3-0.5-0.5-0.7s-0.5-0.2-0.9-0.2c-0.5,0-0.8,0.2-1.1,0.5c-0.3,0.3-0.4,0.8-0.4,1.3c0,0.6,0.1,1,0.4,1.3
		c0.3,0.3,0.7,0.5,1.1,0.5c0.3,0,0.6-0.1,0.9-0.2c0.2-0.2,0.4-0.4,0.5-0.7h0.6c-0.1,0.4-0.4,0.7-0.7,1c-0.3,0.3-0.7,0.4-1.3,0.4
		C117.5,89.3,117,89.1,116.6,88.7z"/>
	<path class="st5" d="M121.5,88.7c-0.4-0.4-0.6-1-0.6-1.7c0-0.7,0.2-1.2,0.6-1.6c0.4-0.4,0.9-0.6,1.5-0.6c0.4,0,0.7,0.1,1,0.3
		c0.3,0.2,0.5,0.4,0.7,0.7v-1h0.6v4.4h-0.6v-1c-0.1,0.3-0.4,0.6-0.7,0.7c-0.3,0.2-0.6,0.3-1,0.3C122.4,89.3,121.9,89.1,121.5,88.7z
		 M124.2,88.4c0.3-0.3,0.5-0.8,0.5-1.3s-0.2-1-0.5-1.3c-0.3-0.3-0.7-0.5-1.1-0.5c-0.4,0-0.8,0.2-1.1,0.5s-0.5,0.7-0.5,1.3
		s0.2,1,0.5,1.3c0.3,0.3,0.7,0.5,1.1,0.5S123.9,88.7,124.2,88.4z"/>
</g>
<g>
	<path class="st5" d="M99.3,97.3v5.5h-0.6v-4.2l-2,4.2h-0.3l-2-4.2v4.2h-0.6v-5.5h0.5l2.2,4.7l2.2-4.7H99.3z"/>
	<path class="st5" d="M102.4,97.3c0.9,0,1.6,0.2,2.1,0.7c0.5,0.5,0.8,1.2,0.8,2.1c0,0.9-0.3,1.5-0.8,2c-0.5,0.5-1.2,0.7-2.1,0.7
		h-1.7v-5.5H102.4z M101.2,102.4h1.1c0.7,0,1.3-0.2,1.7-0.6c0.4-0.4,0.6-1,0.6-1.7c0-0.7-0.2-1.3-0.6-1.7s-1-0.6-1.7-0.6h-1.1V102.4
		z"/>
	<path class="st5" d="M109.4,97.8c0.3,0.3,0.5,0.7,0.5,1.2c0,0.5-0.2,0.9-0.5,1.2c-0.3,0.3-0.8,0.4-1.4,0.4h-1.1v2.3h-0.6v-5.5h1.7
		C108.6,97.3,109.1,97.5,109.4,97.8z M106.9,100.1h1.1c0.9,0,1.3-0.4,1.3-1.1s-0.4-1.1-1.3-1.1h-1.1V100.1z"/>
	<path class="st5" d="M110.8,102.8v-5.5h0.6v5.5H110.8z"/>
	<path class="st5" d="M118.9,102.8l-0.5-1.3h-2.6l-0.5,1.3h-0.6l2-5.5h0.6l2,5.5H118.9z M116,101.1h2.2l-1.1-3.1L116,101.1z"/>
	<path class="st5" d="M120.8,102.1c-0.5-0.5-0.8-1.2-0.8-2c0-0.8,0.3-1.5,0.8-2c0.5-0.5,1.2-0.8,2-0.8c0.6,0,1.1,0.1,1.5,0.4
		c0.4,0.3,0.8,0.6,1,1.1h-0.7c-0.2-0.3-0.4-0.6-0.7-0.8c-0.3-0.2-0.7-0.3-1.1-0.3c-0.6,0-1.2,0.2-1.6,0.6s-0.6,1-0.6,1.7
		c0,0.7,0.2,1.3,0.6,1.7s1,0.6,1.6,0.6c0.6,0,1.2-0.2,1.5-0.6c0.4-0.4,0.6-0.9,0.7-1.5h-2.5v-0.4h3.1v0.4c-0.1,0.8-0.4,1.4-0.9,1.9
		c-0.5,0.5-1.2,0.7-1.9,0.7S121.3,102.6,120.8,102.1z"/>
</g>
<path class="st5" d="M9.2,114.8v-5.5h0.6v5.5H9.2z M11.6,110.4v0.7c0.3-0.5,0.8-0.8,1.4-0.8c0.5,0,0.9,0.2,1.2,0.5
	c0.3,0.3,0.5,0.8,0.5,1.4v2.6h-0.6v-2.5c0-0.5-0.1-0.8-0.3-1.1c-0.2-0.3-0.5-0.4-1-0.4c-0.4,0-0.7,0.1-1,0.4
	c-0.2,0.3-0.3,0.6-0.3,1.1v2.5h-0.6v-4.4H11.6z M17.9,110.8h-1.2v2.9c0,0.2,0,0.4,0.1,0.5c0.1,0.1,0.2,0.1,0.5,0.1h0.6v0.4h-0.7
	c-0.7,0-1-0.3-1-1v-2.9h-0.6v-0.4h0.6v-1.1h0.6v1.1h1.2V110.8z M20.4,114.9c-0.6,0-1.1-0.2-1.5-0.6c-0.4-0.4-0.6-1-0.6-1.6
	s0.2-1.2,0.6-1.6c0.4-0.4,0.9-0.6,1.5-0.6s1.1,0.2,1.5,0.6c0.4,0.4,0.6,0.9,0.6,1.4c0,0.2,0,0.3,0,0.4h-3.6c0,0.5,0.2,0.9,0.5,1.2
	c0.3,0.3,0.6,0.4,1.1,0.4c0.3,0,0.6-0.1,0.9-0.2c0.2-0.2,0.4-0.4,0.5-0.6h0.6c-0.1,0.4-0.4,0.7-0.7,0.9
	C21.4,114.7,21,114.9,20.4,114.9z M22,112.4c0-0.5-0.1-0.9-0.4-1.1c-0.3-0.3-0.7-0.4-1.1-0.4c-0.4,0-0.8,0.1-1.1,0.4
	c-0.3,0.3-0.4,0.7-0.5,1.2H22z M24.1,110.4v0.7c0.2-0.5,0.7-0.8,1.4-0.8v0.6h-0.2c-0.4,0-0.7,0.1-0.9,0.3c-0.2,0.2-0.3,0.6-0.3,1.1
	v2.5h-0.6v-4.4H24.1z M27,110.4v0.7c0.3-0.5,0.8-0.8,1.4-0.8c0.5,0,0.9,0.2,1.2,0.5c0.3,0.3,0.5,0.8,0.5,1.4v2.6h-0.6v-2.5
	c0-0.5-0.1-0.8-0.3-1.1c-0.2-0.3-0.5-0.4-1-0.4c-0.4,0-0.7,0.1-1,0.4c-0.2,0.3-0.3,0.6-0.3,1.1v2.5h-0.6v-4.4H27z M33.2,114.9
	c-0.6,0-1.1-0.2-1.5-0.6c-0.4-0.4-0.6-1-0.6-1.6s0.2-1.2,0.6-1.6c0.4-0.4,0.9-0.6,1.5-0.6s1.1,0.2,1.5,0.6c0.4,0.4,0.6,0.9,0.6,1.4
	c0,0.2,0,0.3,0,0.4h-3.6c0,0.5,0.2,0.9,0.5,1.2c0.3,0.3,0.6,0.4,1.1,0.4c0.3,0,0.6-0.1,0.9-0.2c0.2-0.2,0.4-0.4,0.5-0.6h0.6
	c-0.1,0.4-0.4,0.7-0.7,0.9C34.1,114.7,33.7,114.9,33.2,114.9z M34.7,112.4c0-0.5-0.1-0.9-0.4-1.1c-0.3-0.3-0.7-0.4-1.1-0.4
	c-0.4,0-0.8,0.1-1.1,0.4c-0.3,0.3-0.4,0.7-0.5,1.2H34.7z M38.2,110.8H37v2.9c0,0.2,0,0.4,0.1,0.5c0.1,0.1,0.2,0.1,0.5,0.1h0.6v0.4
	h-0.7c-0.7,0-1-0.3-1-1v-2.9h-0.6v-0.4h0.6v-1.1H37v1.1h1.2V110.8z M41.8,110.7c0,0.2,0.1,0.4,0.2,0.5c0.1,0.1,0.3,0.2,0.4,0.3
	c0.2,0.1,0.4,0.1,0.6,0.2c0.2,0,0.4,0.1,0.7,0.2c0.2,0.1,0.4,0.1,0.6,0.2c0.2,0.1,0.3,0.2,0.4,0.4c0.1,0.2,0.2,0.4,0.2,0.7
	c0,0.4-0.2,0.8-0.5,1.1c-0.3,0.3-0.7,0.5-1.3,0.5c-0.5,0-1-0.1-1.3-0.4c-0.3-0.2-0.5-0.6-0.5-1h0.6c0,0.3,0.1,0.5,0.3,0.6
	c0.2,0.2,0.5,0.3,0.9,0.3c0.4,0,0.7-0.1,0.9-0.3c0.2-0.2,0.3-0.5,0.3-0.8c0-0.3-0.1-0.5-0.3-0.7c-0.2-0.2-0.5-0.3-0.8-0.3
	c-0.3-0.1-0.6-0.1-0.9-0.2c-0.3-0.1-0.6-0.2-0.8-0.5c-0.2-0.2-0.3-0.5-0.3-1c0-0.4,0.2-0.8,0.5-1.1c0.3-0.3,0.7-0.4,1.3-0.4
	c0.5,0,0.9,0.1,1.2,0.4c0.3,0.2,0.5,0.6,0.5,1h-0.6c0-0.2-0.1-0.4-0.3-0.6c-0.2-0.2-0.5-0.3-0.8-0.3c-0.4,0-0.6,0.1-0.9,0.3
	C41.9,110.1,41.8,110.4,41.8,110.7z M47.8,114.9c-0.6,0-1.1-0.2-1.5-0.6c-0.4-0.4-0.6-1-0.6-1.6c0-0.7,0.2-1.2,0.6-1.6
	c0.4-0.4,0.9-0.6,1.5-0.6c1,0,1.7,0.5,2,1.4h-0.6c-0.1-0.3-0.3-0.5-0.5-0.7c-0.2-0.2-0.5-0.2-0.9-0.2c-0.5,0-0.8,0.2-1.1,0.5
	c-0.3,0.3-0.4,0.8-0.4,1.3s0.1,1,0.4,1.3c0.3,0.3,0.7,0.5,1.1,0.5c0.3,0,0.6-0.1,0.9-0.2c0.2-0.2,0.4-0.4,0.5-0.7h0.6
	c-0.1,0.4-0.4,0.7-0.7,1C48.7,114.7,48.3,114.9,47.8,114.9L47.8,114.9z M51.5,109.2c0,0.1,0,0.2-0.1,0.3c-0.1,0.1-0.2,0.1-0.3,0.1
	c-0.1,0-0.2,0-0.3-0.1c-0.1-0.1-0.1-0.2-0.1-0.3c0-0.1,0-0.2,0.1-0.3c0.1-0.1,0.2-0.1,0.3-0.1c0.1,0,0.2,0,0.3,0.1
	C51.5,109,51.5,109.1,51.5,109.2z M50.8,114.8v-4.4h0.6v4.4H50.8z M54.5,114.9c-0.6,0-1.1-0.2-1.5-0.6c-0.4-0.4-0.6-1-0.6-1.6
	s0.2-1.2,0.6-1.6c0.4-0.4,0.9-0.6,1.5-0.6c0.6,0,1.1,0.2,1.5,0.6c0.4,0.4,0.6,0.9,0.6,1.4c0,0.2,0,0.3,0,0.4H53
	c0,0.5,0.2,0.9,0.5,1.2c0.3,0.3,0.6,0.4,1.1,0.4c0.3,0,0.6-0.1,0.9-0.2c0.2-0.2,0.4-0.4,0.5-0.6h0.6c-0.1,0.4-0.4,0.7-0.7,0.9
	C55.4,114.7,55,114.9,54.5,114.9z M56,112.4c0-0.5-0.1-0.9-0.4-1.1c-0.3-0.3-0.7-0.4-1.1-0.4c-0.4,0-0.8,0.1-1.1,0.4
	c-0.3,0.3-0.4,0.7-0.5,1.2H56z M58.2,110.4v0.7c0.3-0.5,0.8-0.8,1.4-0.8c0.5,0,0.9,0.2,1.2,0.5c0.3,0.3,0.5,0.8,0.5,1.4v2.6h-0.6
	v-2.5c0-0.5-0.1-0.8-0.3-1.1c-0.2-0.3-0.5-0.4-1-0.4c-0.4,0-0.7,0.1-1,0.4c-0.2,0.3-0.3,0.6-0.3,1.1v2.5h-0.6v-4.4H58.2z
	 M64.4,110.8h-1.2v2.9c0,0.2,0,0.4,0.1,0.5c0.1,0.1,0.2,0.1,0.5,0.1h0.6v0.4h-0.7c-0.7,0-1-0.3-1-1v-2.9h-0.6v-0.4h0.6v-1.1h0.6v1.1
	h1.2V110.8z M66,109.2c0,0.1,0,0.2-0.1,0.3c-0.1,0.1-0.2,0.1-0.3,0.1c-0.1,0-0.2,0-0.3-0.1c-0.1-0.1-0.1-0.2-0.1-0.3
	c0-0.1,0-0.2,0.1-0.3c0.1-0.1,0.2-0.1,0.3-0.1c0.1,0,0.2,0,0.3,0.1C66,109,66,109.1,66,109.2z M65.3,114.8v-4.4h0.6v4.4H65.3z
	 M67.9,110v0.4h2.4v4.4h-0.6v-3.9h-1.9v3.9h-0.6v-3.9h-0.6v-0.4h0.6V110c0-0.5,0.1-0.8,0.4-1s0.6-0.3,1.2-0.3v0.4
	c-0.4,0-0.6,0.1-0.7,0.2C67.9,109.5,67.9,109.7,67.9,110z M69.6,109.2c0-0.1,0-0.2,0.1-0.3c0.1-0.1,0.2-0.1,0.3-0.1
	c0.1,0,0.2,0,0.3,0.1c0.1,0.1,0.1,0.2,0.1,0.3c0,0.1,0,0.2-0.1,0.3c-0.1,0.1-0.2,0.1-0.3,0.1c-0.1,0-0.2,0-0.3-0.1
	C69.7,109.4,69.6,109.3,69.6,109.2z M73.4,114.9c-0.6,0-1.1-0.2-1.5-0.6c-0.4-0.4-0.6-1-0.6-1.6c0-0.7,0.2-1.2,0.6-1.6
	c0.4-0.4,0.9-0.6,1.5-0.6c1,0,1.7,0.5,2,1.4h-0.6c-0.1-0.3-0.3-0.5-0.5-0.7c-0.2-0.2-0.5-0.2-0.9-0.2c-0.5,0-0.8,0.2-1.1,0.5
	c-0.3,0.3-0.4,0.8-0.4,1.3s0.1,1,0.4,1.3c0.3,0.3,0.7,0.5,1.1,0.5c0.3,0,0.6-0.1,0.9-0.2c0.2-0.2,0.4-0.4,0.5-0.7h0.6
	c-0.1,0.4-0.4,0.7-0.7,1C74.4,114.7,73.9,114.9,73.4,114.9L73.4,114.9z M80.5,109.3c0.6,0,1.1,0.1,1.4,0.4c0.3,0.3,0.5,0.7,0.5,1.2
	c0,0.5-0.2,0.9-0.5,1.2c-0.3,0.3-0.8,0.4-1.4,0.4h-1.1v2.3h-0.6v-5.5H80.5L80.5,109.3z M79.4,112h1.1c0.9,0,1.3-0.4,1.3-1.1
	c0-0.8-0.4-1.1-1.3-1.1h-1.1V112z M86.4,110.4H87v4.4h-0.6v-0.7c-0.3,0.5-0.8,0.8-1.4,0.8c-0.5,0-0.9-0.2-1.2-0.5
	c-0.3-0.3-0.5-0.8-0.5-1.4v-2.6h0.6v2.5c0,0.5,0.1,0.8,0.3,1.1c0.2,0.3,0.5,0.4,1,0.4c0.4,0,0.7-0.1,1-0.4c0.2-0.3,0.3-0.6,0.3-1.1
	V110.4z M90.6,110.3c0.6,0,1.1,0.2,1.5,0.6c0.4,0.4,0.6,0.9,0.6,1.6c0,0.7-0.2,1.2-0.6,1.7s-0.9,0.6-1.5,0.6c-0.4,0-0.7-0.1-1-0.3
	c-0.3-0.2-0.5-0.4-0.7-0.7v1h-0.6v-5.9h0.6v2.5c0.1-0.3,0.4-0.6,0.7-0.7C89.8,110.4,90.2,110.3,90.6,110.3z M90.5,114.4
	c0.4,0,0.8-0.2,1.1-0.5c0.3-0.3,0.5-0.8,0.5-1.3c0-0.5-0.2-1-0.5-1.3c-0.3-0.3-0.7-0.5-1.1-0.5c-0.5,0-0.8,0.2-1.1,0.5
	c-0.3,0.3-0.5,0.8-0.5,1.3c0,0.5,0.2,1,0.5,1.3C89.6,114.2,90,114.4,90.5,114.4z M93.7,114.8v-5.9h0.6v5.9H93.7z M96.3,109.2
	c0,0.1,0,0.2-0.1,0.3c-0.1,0.1-0.2,0.1-0.3,0.1c-0.1,0-0.2,0-0.3-0.1c-0.1-0.1-0.1-0.2-0.1-0.3c0-0.1,0-0.2,0.1-0.3
	c0.1-0.1,0.2-0.1,0.3-0.1c0.1,0,0.2,0,0.3,0.1C96.2,109,96.3,109.1,96.3,109.2z M95.6,114.8v-4.4h0.6v4.4H95.6z M99.2,114.9
	c-0.6,0-1.1-0.2-1.5-0.6c-0.4-0.4-0.6-1-0.6-1.6c0-0.7,0.2-1.2,0.6-1.6c0.4-0.4,0.9-0.6,1.5-0.6c1,0,1.7,0.5,2,1.4h-0.6
	c-0.1-0.3-0.3-0.5-0.5-0.7c-0.2-0.2-0.5-0.2-0.9-0.2c-0.5,0-0.8,0.2-1.1,0.5c-0.3,0.3-0.4,0.8-0.4,1.3s0.1,1,0.4,1.3
	c0.3,0.3,0.7,0.5,1.1,0.5c0.3,0,0.6-0.1,0.9-0.2c0.2-0.2,0.4-0.4,0.5-0.7h0.6c-0.1,0.4-0.4,0.7-0.7,1
	C100.2,114.7,99.8,114.9,99.2,114.9L99.2,114.9z M104.1,114.9c-0.6,0-1.1-0.2-1.5-0.6s-0.6-1-0.6-1.7c0-0.7,0.2-1.2,0.6-1.6
	c0.4-0.4,0.9-0.6,1.5-0.6c0.4,0,0.7,0.1,1,0.3c0.3,0.2,0.5,0.4,0.7,0.7v-1h0.6v4.4h-0.6v-1c-0.1,0.3-0.4,0.6-0.7,0.7
	C104.8,114.8,104.5,114.9,104.1,114.9L104.1,114.9z M105.3,113.9c0.3-0.3,0.5-0.8,0.5-1.3c0-0.5-0.2-1-0.5-1.3
	c-0.3-0.3-0.7-0.5-1.1-0.5s-0.8,0.2-1.1,0.5c-0.3,0.3-0.5,0.7-0.5,1.3c0,0.5,0.2,1,0.5,1.3c0.3,0.3,0.7,0.5,1.1,0.5
	C104.6,114.4,105,114.2,105.3,113.9z M109.6,110.8h-1.2v2.9c0,0.2,0,0.4,0.1,0.5c0.1,0.1,0.2,0.1,0.5,0.1h0.6v0.4h-0.7
	c-0.7,0-1-0.3-1-1v-2.9h-0.6v-0.4h0.6v-1.1h0.6v1.1h1.2V110.8z M111.1,109.2c0,0.1,0,0.2-0.1,0.3c-0.1,0.1-0.2,0.1-0.3,0.1
	c-0.1,0-0.2,0-0.3-0.1c-0.1-0.1-0.1-0.2-0.1-0.3c0-0.1,0-0.2,0.1-0.3c0.1-0.1,0.2-0.1,0.3-0.1c0.1,0,0.2,0,0.3,0.1
	C111.1,109,111.1,109.1,111.1,109.2z M110.4,114.8v-4.4h0.6v4.4H110.4z M114.1,114.9c-0.6,0-1.1-0.2-1.5-0.6c-0.4-0.4-0.6-1-0.6-1.6
	c0-0.7,0.2-1.2,0.6-1.6c0.4-0.4,0.9-0.6,1.6-0.6c0.6,0,1.1,0.2,1.6,0.6c0.4,0.4,0.6,1,0.6,1.6c0,0.7-0.2,1.2-0.7,1.6
	C115.3,114.6,114.8,114.9,114.1,114.9z M114.1,114.4c0.5,0,0.8-0.2,1.2-0.5c0.3-0.3,0.5-0.8,0.5-1.3c0-0.6-0.2-1-0.5-1.3
	c-0.3-0.3-0.7-0.5-1.2-0.5c-0.5,0-0.8,0.2-1.1,0.5s-0.5,0.8-0.5,1.3c0,0.6,0.1,1,0.4,1.3S113.7,114.4,114.1,114.4z M118,110.4v0.7
	c0.3-0.5,0.8-0.8,1.4-0.8c0.5,0,0.9,0.2,1.2,0.5c0.3,0.3,0.5,0.8,0.5,1.4v2.6h-0.6v-2.5c0-0.5-0.1-0.8-0.3-1.1
	c-0.2-0.3-0.5-0.4-1-0.4c-0.4,0-0.7,0.1-1,0.4c-0.2,0.3-0.3,0.6-0.3,1.1v2.5h-0.6v-4.4H118z M122.2,111.6c0-0.4,0.1-0.7,0.4-0.9
	c0.3-0.2,0.7-0.4,1.1-0.4c0.5,0,0.8,0.1,1.1,0.4c0.3,0.2,0.4,0.6,0.4,1h-0.6c0-0.3-0.1-0.5-0.3-0.7c-0.2-0.2-0.4-0.3-0.7-0.3
	s-0.5,0.1-0.7,0.2c-0.2,0.1-0.3,0.3-0.3,0.5c0,0.2,0.1,0.4,0.2,0.5c0.1,0.1,0.3,0.2,0.5,0.2c0.2,0,0.4,0.1,0.6,0.2
	c0.2,0.1,0.4,0.1,0.6,0.2c0.2,0.1,0.4,0.2,0.5,0.4c0.1,0.2,0.2,0.4,0.2,0.7c0,0.4-0.1,0.6-0.4,0.9c-0.3,0.2-0.7,0.3-1.2,0.3
	c-0.5,0-0.9-0.1-1.1-0.4c-0.3-0.2-0.4-0.6-0.5-1h0.6c0,0.3,0.1,0.5,0.3,0.7c0.2,0.2,0.4,0.3,0.7,0.3c0.3,0,0.6-0.1,0.7-0.2
	s0.3-0.3,0.3-0.5c0-0.2-0.1-0.4-0.2-0.5c-0.1-0.1-0.3-0.2-0.5-0.3c-0.2,0-0.4-0.1-0.6-0.2c-0.2-0.1-0.4-0.1-0.6-0.2
	c-0.2-0.1-0.4-0.2-0.5-0.3C122.3,112.1,122.2,111.9,122.2,111.6z"/>
<g>
	<path class="st5" d="M44.7,125.7c-0.5-0.5-0.8-1.2-0.8-2c0-0.8,0.3-1.5,0.8-2c0.5-0.5,1.2-0.8,2-0.8c0.6,0,1.1,0.1,1.5,0.4
		c0.4,0.3,0.8,0.6,1,1.1h-0.7c-0.2-0.3-0.4-0.6-0.7-0.8c-0.3-0.2-0.7-0.3-1.1-0.3c-0.6,0-1.2,0.2-1.6,0.6c-0.4,0.4-0.6,1-0.6,1.7
		c0,0.7,0.2,1.3,0.6,1.7c0.4,0.4,1,0.6,1.6,0.6c0.4,0,0.8-0.1,1.1-0.3c0.3-0.2,0.6-0.4,0.7-0.8h0.7c-0.2,0.5-0.6,0.9-1,1.1
		c-0.4,0.3-0.9,0.4-1.5,0.4C45.9,126.5,45.3,126.3,44.7,125.7z"/>
	<path class="st5" d="M52.2,126.6c-0.6,0-1.1-0.2-1.5-0.6c-0.4-0.4-0.6-1-0.6-1.6s0.2-1.2,0.6-1.6c0.4-0.4,0.9-0.6,1.6-0.6
		c0.6,0,1.1,0.2,1.6,0.6c0.4,0.4,0.6,1,0.6,1.6c0,0.7-0.2,1.2-0.7,1.6C53.4,126.4,52.9,126.6,52.2,126.6z M52.2,126.1
		c0.5,0,0.8-0.2,1.2-0.5c0.3-0.3,0.5-0.8,0.5-1.3c0-0.6-0.2-1-0.5-1.3c-0.3-0.3-0.7-0.5-1.2-0.5s-0.8,0.2-1.1,0.5
		c-0.3,0.3-0.5,0.8-0.5,1.3c0,0.6,0.1,1,0.4,1.3C51.4,126,51.8,126.1,52.2,126.1z"/>
	<path class="st5" d="M55.5,123.8v-0.5h3.1v0.5H55.5z"/>
	<path class="st5" d="M63.4,126.5l-0.5-1.3h-2.6l-0.5,1.3h-0.6l2-5.5h0.6l2,5.5H63.4z M60.5,124.8h2.2l-1.1-3.1L60.5,124.8z"/>
	<path class="st5" d="M65.1,125.9c-0.4-0.4-0.6-1-0.6-1.6c0-0.7,0.2-1.2,0.6-1.6c0.4-0.4,0.9-0.6,1.5-0.6c1,0,1.7,0.5,2,1.4H68
		c-0.1-0.3-0.3-0.5-0.5-0.7s-0.5-0.2-0.9-0.2c-0.5,0-0.8,0.2-1.1,0.5c-0.3,0.3-0.4,0.8-0.4,1.3c0,0.6,0.1,1,0.4,1.3
		c0.3,0.3,0.7,0.5,1.1,0.5c0.3,0,0.6-0.1,0.9-0.2c0.2-0.2,0.4-0.4,0.5-0.7h0.6c-0.1,0.4-0.4,0.7-0.7,1c-0.3,0.3-0.7,0.4-1.3,0.4
		C66,126.6,65.5,126.4,65.1,125.9z"/>
	<path class="st5" d="M71.6,122.6h-1.2v2.9c0,0.2,0,0.4,0.1,0.5c0.1,0.1,0.2,0.1,0.5,0.1h0.6v0.4h-0.7c-0.7,0-1-0.3-1-1v-2.9h-0.6
		v-0.4h0.6V121h0.6v1.1h1.2V122.6z"/>
	<path class="st5" d="M73.1,120.9c0,0.1,0,0.2-0.1,0.3c-0.1,0.1-0.2,0.1-0.3,0.1c-0.1,0-0.2,0-0.3-0.1c-0.1-0.1-0.1-0.2-0.1-0.3
		c0-0.1,0-0.2,0.1-0.3c0.1-0.1,0.2-0.1,0.3-0.1c0.1,0,0.2,0,0.3,0.1C73.1,120.7,73.1,120.8,73.1,120.9z M72.4,126.5v-4.4H73v4.4
		H72.4z"/>
	<path class="st5" d="M76.1,126.6c-0.6,0-1.1-0.2-1.5-0.6c-0.4-0.4-0.6-1-0.6-1.6s0.2-1.2,0.6-1.6c0.4-0.4,0.9-0.6,1.6-0.6
		s1.1,0.2,1.6,0.6c0.4,0.4,0.6,1,0.6,1.6c0,0.7-0.2,1.2-0.7,1.6C77.3,126.4,76.7,126.6,76.1,126.6z M76.1,126.1
		c0.5,0,0.8-0.2,1.2-0.5c0.3-0.3,0.5-0.8,0.5-1.3c0-0.6-0.2-1-0.5-1.3c-0.3-0.3-0.7-0.5-1.2-0.5s-0.8,0.2-1.1,0.5
		c-0.3,0.3-0.5,0.8-0.5,1.3c0,0.6,0.1,1,0.4,1.3C75.3,126,75.7,126.1,76.1,126.1z"/>
	<path class="st5" d="M80,122.1v0.7c0.3-0.5,0.8-0.8,1.4-0.8c0.5,0,0.9,0.2,1.2,0.5c0.3,0.3,0.5,0.8,0.5,1.4v2.6h-0.6V124
		c0-0.5-0.1-0.8-0.3-1.1c-0.2-0.3-0.5-0.4-1-0.4c-0.4,0-0.7,0.1-1,0.4c-0.2,0.3-0.3,0.6-0.3,1.1v2.5h-0.6v-4.4H80z"/>
	<path class="st5" d="M89.8,121.4c0.3,0.3,0.5,0.7,0.5,1.2c0,0.5-0.2,0.9-0.5,1.2c-0.3,0.3-0.8,0.4-1.4,0.4h-1.1v2.3h-0.6V121h1.7
		C89,121,89.4,121.1,89.8,121.4z M87.2,123.7h1.1c0.9,0,1.3-0.4,1.3-1.1s-0.4-1.1-1.3-1.1h-1.1V123.7z"/>
	<path class="st5" d="M94.3,122.1h0.6v4.4h-0.6v-0.7c-0.3,0.5-0.8,0.8-1.4,0.8c-0.5,0-0.9-0.2-1.2-0.5c-0.3-0.3-0.5-0.8-0.5-1.4
		v-2.6h0.6v2.5c0,0.5,0.1,0.8,0.3,1.1c0.2,0.3,0.5,0.4,1,0.4c0.4,0,0.7-0.1,1-0.4c0.2-0.2,0.3-0.6,0.3-1.1V122.1z"/>
	<path class="st5" d="M98.4,122c0.6,0,1.1,0.2,1.5,0.6c0.4,0.4,0.6,0.9,0.6,1.6c0,0.7-0.2,1.2-0.6,1.7c-0.4,0.4-0.9,0.6-1.5,0.6
		c-0.4,0-0.7-0.1-1-0.3s-0.5-0.4-0.7-0.7v1h-0.6v-5.9h0.6v2.5c0.1-0.3,0.4-0.6,0.7-0.7C97.7,122.1,98,122,98.4,122z M98.3,126.1
		c0.4,0,0.8-0.2,1.1-0.5c0.3-0.3,0.5-0.8,0.5-1.3s-0.2-1-0.5-1.3c-0.3-0.3-0.7-0.5-1.1-0.5s-0.8,0.2-1.1,0.5
		c-0.3,0.3-0.5,0.8-0.5,1.3s0.2,1,0.5,1.3C97.5,125.9,97.9,126.1,98.3,126.1z"/>
	<path class="st5" d="M101.5,126.5v-5.9h0.6v5.9H101.5z"/>
	<path class="st5" d="M104.1,120.9c0,0.1,0,0.2-0.1,0.3c-0.1,0.1-0.2,0.1-0.3,0.1s-0.2,0-0.3-0.1c-0.1-0.1-0.1-0.2-0.1-0.3
		c0-0.1,0-0.2,0.1-0.3c0.1-0.1,0.2-0.1,0.3-0.1s0.2,0,0.3,0.1C104.1,120.7,104.1,120.8,104.1,120.9z M103.4,126.5v-4.4h0.6v4.4
		H103.4z"/>
	<path class="st5" d="M105.1,123.3c0-0.4,0.1-0.7,0.4-0.9s0.7-0.4,1.1-0.4c0.5,0,0.8,0.1,1.1,0.4c0.3,0.2,0.4,0.6,0.4,1h-0.6
		c0-0.3-0.1-0.5-0.3-0.7c-0.2-0.2-0.4-0.3-0.7-0.3c-0.3,0-0.5,0.1-0.7,0.2c-0.2,0.1-0.3,0.3-0.3,0.5c0,0.2,0.1,0.4,0.2,0.5
		c0.1,0.1,0.3,0.2,0.5,0.2c0.2,0,0.4,0.1,0.6,0.2s0.4,0.1,0.6,0.2c0.2,0.1,0.4,0.2,0.5,0.4c0.1,0.2,0.2,0.4,0.2,0.7
		c0,0.4-0.1,0.6-0.4,0.9c-0.3,0.2-0.7,0.3-1.2,0.3c-0.5,0-0.9-0.1-1.1-0.4s-0.4-0.6-0.5-1h0.6c0,0.3,0.1,0.5,0.3,0.7
		s0.4,0.3,0.7,0.3s0.6-0.1,0.7-0.2c0.2-0.1,0.3-0.3,0.3-0.5c0-0.2-0.1-0.4-0.2-0.5c-0.1-0.1-0.3-0.2-0.5-0.3c-0.2,0-0.4-0.1-0.6-0.2
		c-0.2-0.1-0.4-0.1-0.6-0.2c-0.2-0.1-0.4-0.2-0.5-0.3S105.1,123.6,105.1,123.3z"/>
	<path class="st5" d="M110,120.6v2.3c0.3-0.5,0.8-0.8,1.4-0.8c0.5,0,0.9,0.2,1.2,0.5c0.3,0.3,0.5,0.8,0.5,1.4v2.6h-0.6V124
		c0-0.5-0.1-0.8-0.3-1.1c-0.2-0.3-0.5-0.4-1-0.4c-0.4,0-0.7,0.1-1,0.4c-0.2,0.3-0.3,0.6-0.3,1.1v2.5h-0.6v-5.9H110z"/>
	<path class="st5" d="M115.1,120.9c0,0.1,0,0.2-0.1,0.3c-0.1,0.1-0.2,0.1-0.3,0.1c-0.1,0-0.2,0-0.3-0.1c-0.1-0.1-0.1-0.2-0.1-0.3
		c0-0.1,0-0.2,0.1-0.3c0.1-0.1,0.2-0.1,0.3-0.1c0.1,0,0.2,0,0.3,0.1C115,120.7,115.1,120.8,115.1,120.9z M114.4,126.5v-4.4h0.6v4.4
		H114.4z"/>
	<path class="st5" d="M116.8,122.1v0.7c0.3-0.5,0.8-0.8,1.4-0.8c0.5,0,0.9,0.2,1.2,0.5c0.3,0.3,0.5,0.8,0.5,1.4v2.6h-0.6V124
		c0-0.5-0.1-0.8-0.3-1.1c-0.2-0.3-0.5-0.4-1-0.4c-0.4,0-0.7,0.1-1,0.4s-0.3,0.6-0.3,1.1v2.5h-0.6v-4.4H116.8z"/>
	<path class="st5" d="M121.5,125.9c-0.4-0.4-0.6-1-0.6-1.7c0-0.7,0.2-1.2,0.6-1.6s0.9-0.6,1.5-0.6c0.4,0,0.7,0.1,1,0.3
		c0.3,0.2,0.5,0.4,0.7,0.7v-1h0.6v4.5c0,0.6-0.2,1.1-0.6,1.4c-0.4,0.4-0.9,0.6-1.4,0.6s-1-0.1-1.4-0.4c-0.4-0.3-0.6-0.6-0.7-1h0.6
		c0.1,0.3,0.2,0.5,0.5,0.7c0.3,0.2,0.6,0.3,1,0.3c0.4,0,0.8-0.1,1-0.4c0.3-0.3,0.4-0.6,0.4-1.1v-1.1c-0.1,0.3-0.4,0.6-0.7,0.7
		s-0.6,0.3-1,0.3C122.4,126.6,121.9,126.4,121.5,125.9z M124.3,125.6c0.3-0.3,0.5-0.8,0.5-1.3s-0.2-1-0.5-1.3
		c-0.3-0.3-0.7-0.5-1.1-0.5c-0.4,0-0.8,0.2-1.1,0.5s-0.5,0.7-0.5,1.3s0.2,1,0.5,1.3s0.7,0.5,1.1,0.5S123.9,125.9,124.3,125.6z"/>
</g>
<g>
	<path class="st5" d="M66.9,138.4v-5.5h3v0.5h-2.4v2.1h1.9v0.4h-1.9v2.6H66.9z"/>
	<path class="st5" d="M71,134.1v0.7c0.2-0.5,0.7-0.8,1.4-0.8v0.6h-0.2c-0.4,0-0.7,0.1-0.9,0.3S71,135.5,71,136v2.5h-0.6v-4.4H71z"/>
	<path class="st5" d="M75,138.5c-0.6,0-1.1-0.2-1.5-0.6c-0.4-0.4-0.6-1-0.6-1.6s0.2-1.2,0.6-1.6c0.4-0.4,0.9-0.6,1.6-0.6
		s1.1,0.2,1.6,0.6c0.4,0.4,0.6,1,0.6,1.6c0,0.7-0.2,1.2-0.7,1.6C76.2,138.3,75.6,138.5,75,138.5z M75,138.1c0.5,0,0.8-0.2,1.2-0.5
		c0.3-0.3,0.5-0.8,0.5-1.3c0-0.6-0.2-1-0.5-1.3c-0.3-0.3-0.7-0.5-1.2-0.5s-0.8,0.2-1.1,0.5c-0.3,0.3-0.5,0.8-0.5,1.3
		c0,0.6,0.1,1,0.4,1.3C74.2,137.9,74.6,138.1,75,138.1z"/>
	<path class="st5" d="M78.9,134.1v0.7c0.3-0.5,0.8-0.8,1.4-0.8c0.5,0,0.9,0.2,1.2,0.5s0.5,0.8,0.5,1.4v2.6h-0.6v-2.5
		c0-0.5-0.1-0.8-0.3-1.1s-0.5-0.4-1-0.4s-0.7,0.1-1,0.4c-0.2,0.3-0.3,0.6-0.3,1.1v2.5h-0.6v-4.4H78.9z"/>
	<path class="st5" d="M85.1,134.5h-1.2v2.9c0,0.2,0,0.4,0.1,0.5s0.2,0.1,0.5,0.1h0.6v0.4h-0.7c-0.7,0-1-0.3-1-1v-2.9h-0.6v-0.4h0.6
		V133h0.6v1.1h1.2V134.5z"/>
	<path class="st5" d="M86.7,132.8c0,0.1,0,0.2-0.1,0.3c-0.1,0.1-0.2,0.1-0.3,0.1c-0.1,0-0.2,0-0.3-0.1c-0.1-0.1-0.1-0.2-0.1-0.3
		c0-0.1,0-0.2,0.1-0.3c0.1-0.1,0.2-0.1,0.3-0.1c0.1,0,0.2,0,0.3,0.1C86.6,132.6,86.7,132.7,86.7,132.8z M86,138.4v-4.4h0.6v4.4H86z"
		/>
	<path class="st5" d="M89.7,138.5c-0.6,0-1.1-0.2-1.5-0.6s-0.6-1-0.6-1.6c0-0.7,0.2-1.2,0.6-1.6c0.4-0.4,0.9-0.6,1.5-0.6
		c0.6,0,1.1,0.2,1.5,0.6c0.4,0.4,0.6,0.9,0.6,1.4c0,0.2,0,0.3,0,0.4h-3.6c0,0.5,0.2,0.9,0.5,1.2s0.6,0.4,1.1,0.4
		c0.3,0,0.6-0.1,0.9-0.2c0.2-0.2,0.4-0.4,0.5-0.6h0.6c-0.1,0.4-0.4,0.7-0.7,0.9C90.6,138.4,90.2,138.5,89.7,138.5z M91.2,136
		c0-0.5-0.1-0.9-0.4-1.1s-0.7-0.4-1.1-0.4s-0.8,0.1-1.1,0.4s-0.4,0.7-0.5,1.2H91.2z"/>
	<path class="st5" d="M93.3,134.1v0.7c0.2-0.5,0.7-0.8,1.4-0.8v0.6h-0.2c-0.4,0-0.7,0.1-0.9,0.3c-0.2,0.2-0.3,0.6-0.3,1.1v2.5h-0.6
		v-4.4H93.3z"/>
	<path class="st5" d="M95.5,135.3c0-0.4,0.1-0.7,0.4-0.9s0.7-0.4,1.1-0.4c0.5,0,0.8,0.1,1.1,0.4c0.3,0.2,0.4,0.6,0.4,1H98
		c0-0.3-0.1-0.5-0.3-0.7c-0.2-0.2-0.4-0.3-0.7-0.3c-0.3,0-0.5,0.1-0.7,0.2c-0.2,0.1-0.3,0.3-0.3,0.5c0,0.2,0.1,0.4,0.2,0.5
		c0.1,0.1,0.3,0.2,0.5,0.2c0.2,0,0.4,0.1,0.6,0.2s0.4,0.1,0.6,0.2c0.2,0.1,0.4,0.2,0.5,0.4c0.1,0.2,0.2,0.4,0.2,0.7
		c0,0.4-0.1,0.6-0.4,0.9c-0.3,0.2-0.7,0.3-1.2,0.3c-0.5,0-0.9-0.1-1.1-0.4s-0.4-0.6-0.5-1h0.6c0,0.3,0.1,0.5,0.3,0.7
		s0.4,0.3,0.7,0.3s0.6-0.1,0.7-0.2c0.2-0.1,0.3-0.3,0.3-0.5c0-0.2-0.1-0.4-0.2-0.5c-0.1-0.1-0.3-0.2-0.5-0.3c-0.2,0-0.4-0.1-0.6-0.2
		c-0.2-0.1-0.4-0.1-0.6-0.2c-0.2-0.1-0.4-0.2-0.5-0.3S95.5,135.5,95.5,135.3z"/>
	<path class="st5" d="M107.6,132.9v5.5H107v-4.2l-2,4.2h-0.3l-2-4.2v4.2h-0.6v-5.5h0.5l2.2,4.7l2.2-4.7H107.6z"/>
	<path class="st5" d="M110.8,138.5c-0.6,0-1.1-0.2-1.5-0.6c-0.4-0.4-0.6-1-0.6-1.6c0-0.7,0.2-1.2,0.6-1.6c0.4-0.4,0.9-0.6,1.5-0.6
		c0.6,0,1.1,0.2,1.5,0.6c0.4,0.4,0.6,0.9,0.6,1.4c0,0.2,0,0.3,0,0.4h-3.6c0,0.5,0.2,0.9,0.5,1.2s0.6,0.4,1.1,0.4
		c0.3,0,0.6-0.1,0.9-0.2c0.2-0.2,0.4-0.4,0.5-0.6h0.6c-0.1,0.4-0.4,0.7-0.7,0.9C111.7,138.4,111.3,138.5,110.8,138.5z M112.3,136
		c0-0.5-0.1-0.9-0.4-1.1c-0.3-0.3-0.7-0.4-1.1-0.4s-0.8,0.1-1.1,0.4c-0.3,0.3-0.4,0.7-0.5,1.2H112.3z"/>
	<path class="st5" d="M114.3,137.9c-0.4-0.4-0.6-1-0.6-1.7c0-0.7,0.2-1.2,0.6-1.6s0.9-0.6,1.5-0.6c0.4,0,0.7,0.1,1,0.3
		c0.3,0.2,0.5,0.4,0.7,0.7v-2.5h0.6v5.9h-0.6v-1c-0.1,0.3-0.4,0.6-0.7,0.7c-0.3,0.2-0.6,0.3-1,0.3
		C115.2,138.5,114.7,138.3,114.3,137.9z M117,137.5c0.3-0.3,0.5-0.8,0.5-1.3s-0.2-1-0.5-1.3c-0.3-0.3-0.7-0.5-1.1-0.5
		c-0.4,0-0.8,0.2-1.1,0.5c-0.3,0.3-0.5,0.7-0.5,1.3s0.2,1,0.5,1.3s0.7,0.5,1.1,0.5S116.7,137.9,117,137.5z"/>
	<path class="st5" d="M120,132.8c0,0.1,0,0.2-0.1,0.3c-0.1,0.1-0.2,0.1-0.3,0.1c-0.1,0-0.2,0-0.3-0.1c-0.1-0.1-0.1-0.2-0.1-0.3
		c0-0.1,0-0.2,0.1-0.3c0.1-0.1,0.2-0.1,0.3-0.1c0.1,0,0.2,0,0.3,0.1C120,132.6,120,132.7,120,132.8z M119.3,138.4v-4.4h0.6v4.4
		H119.3z"/>
	<path class="st5" d="M121.5,137.9c-0.4-0.4-0.6-1-0.6-1.7c0-0.7,0.2-1.2,0.6-1.6c0.4-0.4,0.9-0.6,1.5-0.6c0.4,0,0.7,0.1,1,0.3
		c0.3,0.2,0.5,0.4,0.7,0.7v-1h0.6v4.4h-0.6v-1c-0.1,0.3-0.4,0.6-0.7,0.7c-0.3,0.2-0.6,0.3-1,0.3
		C122.4,138.5,121.9,138.3,121.5,137.9z M124.3,137.5c0.3-0.3,0.5-0.8,0.5-1.3s-0.2-1-0.5-1.3c-0.3-0.3-0.7-0.5-1.1-0.5
		c-0.4,0-0.8,0.2-1.1,0.5s-0.5,0.7-0.5,1.3s0.2,1,0.5,1.3c0.3,0.3,0.7,0.5,1.1,0.5S123.9,137.9,124.3,137.5z"/>
</g>
<g>
	<defs>
		<rect id="SVGID_1_" x="-14" y="-3.1" width="388.3" height="168.2"/>
	</defs>
	<clipPath id="SVGID_2_">
		<use xlink:href="#SVGID_1_"  style="overflow:visible;"/>
	</clipPath>
	<g class="st6">
		<path class="st5" d="M131.7,154.4c0.3-0.1,0.6-0.2,1.1-0.2c0.4,0,0.8,0.1,1.1,0.2s0.5,0.3,0.7,0.6c0.2,0.3,0.3,0.6,0.4,0.9
			c0.1,0.3,0.1,0.7,0.1,1.1s0,0.8-0.1,1.1s-0.2,0.6-0.4,0.9c-0.2,0.3-0.4,0.5-0.7,0.6c-0.3,0.1-0.6,0.2-1.1,0.2
			c-0.4,0-0.8-0.1-1.1-0.2c-0.3-0.1-0.5-0.3-0.7-0.6c-0.2-0.3-0.3-0.6-0.4-0.9s-0.1-0.7-0.1-1.1s0-0.8,0.1-1.1
			c0.1-0.3,0.2-0.6,0.4-0.9C131.2,154.7,131.4,154.5,131.7,154.4z M133.2,155.5c-0.1-0.1-0.2-0.1-0.4-0.1c-0.2,0-0.3,0-0.4,0.1
			s-0.2,0.1-0.3,0.2c-0.1,0.1-0.1,0.2-0.1,0.4s-0.1,0.3-0.1,0.4c0,0.1,0,0.3,0,0.5c0,0.2,0,0.4,0,0.5c0,0.1,0,0.3,0.1,0.4
			c0,0.1,0.1,0.3,0.1,0.4c0.1,0.1,0.1,0.2,0.3,0.2c0.1,0.1,0.2,0.1,0.4,0.1c0.2,0,0.3,0,0.4-0.1c0.1-0.1,0.2-0.1,0.3-0.2
			c0.1-0.1,0.1-0.2,0.1-0.4c0-0.1,0.1-0.3,0.1-0.4s0-0.3,0-0.5c0-0.2,0-0.4,0-0.5s0-0.3-0.1-0.4c0-0.1-0.1-0.3-0.1-0.4
			C133.4,155.7,133.3,155.6,133.2,155.5z"/>
	</g>
	<g class="st6">
		<path class="st5" d="M103.6,157.7v-3.4h1.4v3.4c0,0.3,0.1,0.6,0.2,0.8c0.2,0.2,0.4,0.3,0.7,0.3s0.6-0.1,0.7-0.3
			c0.2-0.2,0.3-0.4,0.3-0.8v-3.4h1.4v3.4c0,0.5-0.1,0.9-0.3,1.3c-0.2,0.4-0.5,0.6-0.9,0.8c-0.4,0.2-0.7,0.2-1.2,0.2
			c-0.7,0-1.2-0.2-1.6-0.6C103.8,159,103.6,158.4,103.6,157.7z"/>
		<path class="st5" d="M111.4,155.4c-0.2,0-0.3,0-0.4,0.1c-0.1,0.1-0.2,0.2-0.2,0.4s0.1,0.3,0.2,0.4c0.1,0.1,0.2,0.2,0.4,0.2
			c0.2,0.1,0.3,0.1,0.5,0.2c0.2,0.1,0.4,0.1,0.6,0.2s0.4,0.2,0.5,0.3c0.2,0.1,0.3,0.3,0.4,0.5s0.2,0.4,0.2,0.7
			c0,0.5-0.2,0.9-0.6,1.2s-0.9,0.5-1.5,0.5s-1.1-0.2-1.5-0.5c-0.4-0.3-0.6-0.7-0.6-1.3h1.5c0,0.4,0.3,0.7,0.7,0.7
			c0.2,0,0.4-0.1,0.5-0.2c0.1-0.1,0.2-0.2,0.2-0.4s-0.1-0.3-0.2-0.4c-0.1-0.1-0.2-0.2-0.4-0.2s-0.3-0.1-0.5-0.2s-0.4-0.1-0.6-0.2
			c-0.2-0.1-0.4-0.2-0.5-0.3c-0.2-0.1-0.3-0.3-0.4-0.4c-0.1-0.2-0.2-0.4-0.2-0.7c0-0.5,0.2-0.9,0.6-1.3c0.4-0.3,0.9-0.5,1.5-0.5
			s1.1,0.1,1.5,0.4c0.4,0.3,0.6,0.7,0.6,1.3h-1.5c0-0.2-0.1-0.4-0.2-0.5S111.6,155.4,111.4,155.4z"/>
		<path class="st5" d="M116.7,154.4c0.9,0,1.6,0.3,2.2,0.8c0.6,0.5,0.9,1.2,0.9,2c0,0.8-0.3,1.5-0.9,2s-1.3,0.8-2.2,0.8h-2v-5.6
			H116.7z M116.1,158.9h0.6c0.5,0,0.9-0.2,1.2-0.5c0.3-0.3,0.4-0.8,0.4-1.3c0-0.5-0.1-1-0.4-1.3c-0.3-0.3-0.7-0.5-1.2-0.5h-0.6
			V158.9z"/>
	</g>
	<g class="st6">
		<path class="st5" d="M226.8,160v-4.4h-1v-1.3h2.4v5.7H226.8z"/>
		<path class="st5" d="M230.6,154.4c0.3-0.1,0.6-0.2,1.1-0.2c0.4,0,0.8,0.1,1.1,0.2s0.5,0.3,0.7,0.6c0.2,0.3,0.3,0.6,0.4,0.9
			c0.1,0.3,0.1,0.7,0.1,1.1s0,0.8-0.1,1.1s-0.2,0.6-0.4,0.9c-0.2,0.3-0.4,0.5-0.7,0.6c-0.3,0.1-0.6,0.2-1.1,0.2
			c-0.4,0-0.8-0.1-1.1-0.2c-0.3-0.1-0.5-0.3-0.7-0.6c-0.2-0.3-0.3-0.6-0.4-0.9s-0.1-0.7-0.1-1.1s0-0.8,0.1-1.1
			c0.1-0.3,0.2-0.6,0.4-0.9C230,154.7,230.3,154.5,230.6,154.4z M232,155.5c-0.1-0.1-0.2-0.1-0.4-0.1c-0.2,0-0.3,0-0.4,0.1
			s-0.2,0.1-0.3,0.2c-0.1,0.1-0.1,0.2-0.1,0.4s-0.1,0.3-0.1,0.4c0,0.1,0,0.3,0,0.5c0,0.2,0,0.4,0,0.5c0,0.1,0,0.3,0.1,0.4
			c0,0.1,0.1,0.3,0.1,0.4c0.1,0.1,0.1,0.2,0.3,0.2c0.1,0.1,0.2,0.1,0.4,0.1c0.2,0,0.3,0,0.4-0.1c0.1-0.1,0.2-0.1,0.3-0.2
			c0.1-0.1,0.1-0.2,0.1-0.4c0-0.1,0.1-0.3,0.1-0.4s0-0.3,0-0.5c0-0.2,0-0.4,0-0.5s0-0.3-0.1-0.4c0-0.1-0.1-0.3-0.1-0.4
			C232.2,155.7,232.1,155.6,232,155.5z"/>
		<path class="st5" d="M235.9,154.4c0.3-0.1,0.6-0.2,1.1-0.2s0.8,0.1,1.1,0.2c0.3,0.1,0.5,0.3,0.7,0.6c0.2,0.3,0.3,0.6,0.4,0.9
			c0.1,0.3,0.1,0.7,0.1,1.1s0,0.8-0.1,1.1s-0.2,0.6-0.4,0.9c-0.2,0.3-0.4,0.5-0.7,0.6c-0.3,0.1-0.6,0.2-1.1,0.2s-0.8-0.1-1.1-0.2
			c-0.3-0.1-0.5-0.3-0.7-0.6c-0.2-0.3-0.3-0.6-0.4-0.9s-0.1-0.7-0.1-1.1s0-0.8,0.1-1.1c0.1-0.3,0.2-0.6,0.4-0.9
			S235.6,154.5,235.9,154.4z M237.4,155.5c-0.1-0.1-0.2-0.1-0.4-0.1s-0.3,0-0.4,0.1c-0.1,0.1-0.2,0.1-0.3,0.2s-0.1,0.2-0.1,0.4
			s-0.1,0.3-0.1,0.4s0,0.3,0,0.5c0,0.2,0,0.4,0,0.5s0,0.3,0.1,0.4c0,0.1,0.1,0.3,0.1,0.4s0.1,0.2,0.3,0.2c0.1,0.1,0.2,0.1,0.4,0.1
			s0.3,0,0.4-0.1c0.1-0.1,0.2-0.1,0.3-0.2c0.1-0.1,0.1-0.2,0.1-0.4c0-0.1,0.1-0.3,0.1-0.4c0-0.1,0-0.3,0-0.5c0-0.2,0-0.4,0-0.5
			c0-0.1,0-0.3-0.1-0.4s-0.1-0.3-0.1-0.4C237.6,155.7,237.5,155.6,237.4,155.5z"/>
		<path class="st5" d="M241.3,154.4c0.3-0.1,0.6-0.2,1.1-0.2c0.4,0,0.8,0.1,1.1,0.2c0.3,0.1,0.5,0.3,0.7,0.6
			c0.2,0.3,0.3,0.6,0.4,0.9c0.1,0.3,0.1,0.7,0.1,1.1s0,0.8-0.1,1.1s-0.2,0.6-0.4,0.9c-0.2,0.3-0.4,0.5-0.7,0.6
			c-0.3,0.1-0.6,0.2-1.1,0.2c-0.4,0-0.8-0.1-1.1-0.2c-0.3-0.1-0.5-0.3-0.7-0.6c-0.2-0.3-0.3-0.6-0.4-0.9s-0.1-0.7-0.1-1.1
			s0-0.8,0.1-1.1c0.1-0.3,0.2-0.6,0.4-0.9C240.8,154.7,241,154.5,241.3,154.4z M242.8,155.5c-0.1-0.1-0.2-0.1-0.4-0.1
			c-0.2,0-0.3,0-0.4,0.1s-0.2,0.1-0.3,0.2c-0.1,0.1-0.1,0.2-0.1,0.4c0,0.1-0.1,0.3-0.1,0.4c0,0.1,0,0.3,0,0.5c0,0.2,0,0.4,0,0.5
			c0,0.1,0,0.3,0.1,0.4c0,0.1,0.1,0.3,0.1,0.4c0.1,0.1,0.2,0.2,0.3,0.2c0.1,0.1,0.2,0.1,0.4,0.1c0.2,0,0.3,0,0.4-0.1
			c0.1-0.1,0.2-0.1,0.3-0.2c0.1-0.1,0.1-0.2,0.1-0.4c0-0.1,0.1-0.3,0.1-0.4s0-0.3,0-0.5c0-0.2,0-0.4,0-0.5s0-0.3-0.1-0.4
			s-0.1-0.3-0.1-0.4C243,155.7,242.9,155.6,242.8,155.5z"/>
	</g>
	<g class="st6">
		<path class="st5" d="M330.8,159.9v-1c0.1-0.1,0.3-0.3,0.6-0.5c0.3-0.2,0.5-0.4,0.6-0.5c0.1-0.1,0.3-0.3,0.5-0.5
			c0.2-0.2,0.3-0.4,0.4-0.5c0.3-0.3,0.4-0.6,0.4-0.9c0-0.5-0.2-0.7-0.6-0.7c-0.2,0-0.3,0.1-0.5,0.2c-0.1,0.1-0.2,0.3-0.2,0.6h-1.3
			c0-0.6,0.2-1.1,0.6-1.5s0.9-0.5,1.5-0.5s1.1,0.2,1.4,0.5c0.3,0.3,0.5,0.8,0.5,1.2c0,0.4-0.1,0.7-0.2,1c-0.1,0.2-0.2,0.3-0.2,0.4
			s-0.2,0.3-0.3,0.4c-0.2,0.2-0.3,0.3-0.4,0.4c-0.1,0.1-0.2,0.2-0.4,0.4c-0.2,0.2-0.3,0.3-0.4,0.4h2.1v1.1H330.8z"/>
		<path class="st5" d="M336.7,154.4c0.3-0.1,0.6-0.2,1.1-0.2c0.4,0,0.8,0.1,1.1,0.2s0.5,0.3,0.7,0.6c0.2,0.3,0.3,0.6,0.4,0.9
			c0.1,0.3,0.1,0.7,0.1,1.1s0,0.8-0.1,1.1s-0.2,0.6-0.4,0.9c-0.2,0.3-0.4,0.5-0.7,0.6c-0.3,0.1-0.6,0.2-1.1,0.2
			c-0.4,0-0.8-0.1-1.1-0.2c-0.3-0.1-0.5-0.3-0.7-0.6c-0.2-0.3-0.3-0.6-0.4-0.9s-0.1-0.7-0.1-1.1s0-0.8,0.1-1.1
			c0.1-0.3,0.2-0.6,0.4-0.9C336.2,154.7,336.4,154.5,336.7,154.4z M338.2,155.5c-0.1-0.1-0.2-0.1-0.4-0.1c-0.2,0-0.3,0-0.4,0.1
			s-0.2,0.1-0.3,0.2c-0.1,0.1-0.1,0.2-0.1,0.4s-0.1,0.3-0.1,0.4c0,0.1,0,0.3,0,0.5c0,0.2,0,0.4,0,0.5c0,0.1,0,0.3,0.1,0.4
			c0,0.1,0.1,0.3,0.1,0.4c0.1,0.1,0.1,0.2,0.3,0.2c0.1,0.1,0.2,0.1,0.4,0.1c0.2,0,0.3,0,0.4-0.1c0.1-0.1,0.2-0.1,0.3-0.2
			c0.1-0.1,0.1-0.2,0.1-0.4c0-0.1,0.1-0.3,0.1-0.4s0-0.3,0-0.5c0-0.2,0-0.4,0-0.5s0-0.3-0.1-0.4c0-0.1-0.1-0.3-0.1-0.4
			C338.4,155.7,338.3,155.6,338.2,155.5z"/>
		<path class="st5" d="M342.1,154.4c0.3-0.1,0.6-0.2,1.1-0.2s0.8,0.1,1.1,0.2c0.3,0.1,0.5,0.3,0.7,0.6c0.2,0.3,0.3,0.6,0.4,0.9
			c0.1,0.3,0.1,0.7,0.1,1.1s0,0.8-0.1,1.1s-0.2,0.6-0.4,0.9c-0.2,0.3-0.4,0.5-0.7,0.6c-0.3,0.1-0.6,0.2-1.1,0.2s-0.8-0.1-1.1-0.2
			c-0.3-0.1-0.5-0.3-0.7-0.6c-0.2-0.3-0.3-0.6-0.4-0.9s-0.1-0.7-0.1-1.1s0-0.8,0.1-1.1c0.1-0.3,0.2-0.6,0.4-0.9
			S341.8,154.5,342.1,154.4z M343.5,155.5c-0.1-0.1-0.2-0.1-0.4-0.1s-0.3,0-0.4,0.1c-0.1,0.1-0.2,0.1-0.3,0.2s-0.1,0.2-0.1,0.4
			s-0.1,0.3-0.1,0.4s0,0.3,0,0.5c0,0.2,0,0.4,0,0.5s0,0.3,0.1,0.4c0,0.1,0.1,0.3,0.1,0.4s0.1,0.2,0.3,0.2c0.1,0.1,0.2,0.1,0.4,0.1
			s0.3,0,0.4-0.1c0.1-0.1,0.2-0.1,0.3-0.2c0.1-0.1,0.1-0.2,0.1-0.4c0-0.1,0.1-0.3,0.1-0.4c0-0.1,0-0.3,0-0.5c0-0.2,0-0.4,0-0.5
			c0-0.1,0-0.3-0.1-0.4s-0.1-0.3-0.1-0.4C343.7,155.7,343.7,155.6,343.5,155.5z"/>
		<path class="st5" d="M347.4,154.4c0.3-0.1,0.6-0.2,1.1-0.2c0.4,0,0.8,0.1,1.1,0.2c0.3,0.1,0.5,0.3,0.7,0.6
			c0.2,0.3,0.3,0.6,0.4,0.9c0.1,0.3,0.1,0.7,0.1,1.1s0,0.8-0.1,1.1s-0.2,0.6-0.4,0.9c-0.2,0.3-0.4,0.5-0.7,0.6
			c-0.3,0.1-0.6,0.2-1.1,0.2c-0.4,0-0.8-0.1-1.1-0.2c-0.3-0.1-0.5-0.3-0.7-0.6c-0.2-0.3-0.3-0.6-0.4-0.9s-0.1-0.7-0.1-1.1
			s0-0.8,0.1-1.1c0.1-0.3,0.2-0.6,0.4-0.9C346.9,154.7,347.2,154.5,347.4,154.4z M348.9,155.5c-0.1-0.1-0.2-0.1-0.4-0.1
			c-0.2,0-0.3,0-0.4,0.1s-0.2,0.1-0.3,0.2c-0.1,0.1-0.1,0.2-0.1,0.4c0,0.1-0.1,0.3-0.1,0.4c0,0.1,0,0.3,0,0.5c0,0.2,0,0.4,0,0.5
			c0,0.1,0,0.3,0.1,0.4c0,0.1,0.1,0.3,0.1,0.4c0.1,0.1,0.2,0.2,0.3,0.2c0.1,0.1,0.2,0.1,0.4,0.1c0.2,0,0.3,0,0.4-0.1
			c0.1-0.1,0.2-0.1,0.3-0.2c0.1-0.1,0.1-0.2,0.1-0.4c0-0.1,0.1-0.3,0.1-0.4s0-0.3,0-0.5c0-0.2,0-0.4,0-0.5s0-0.3-0.1-0.4
			s-0.1-0.3-0.1-0.4C349.1,155.7,349,155.6,348.9,155.5z"/>
	</g>
</g>
<line class="st7" x1="249.9" y1="157.2" x2="324.3" y2="157.2"/>
<line class="st7" x1="139.4" y1="157.2" x2="216.8" y2="157.2"/>
</svg>
