<?xml version="1.0" encoding="utf-8"?>
<!-- Generator: Adobe Illustrator 19.1.0, SVG Export Plug-In . SVG Version: 6.00 Build 0)  -->
<svg version="1.1" id="DensityDesign_Logo" xmlns="http://www.w3.org/2000/svg" xmlns:xlink="http://www.w3.org/1999/xlink" x="0px"
	 y="0px" viewBox="-562 438 206 206" style="enable-background:new -562 438 206 206;" xml:space="preserve">
<style type="text/css">
	.st0{fill:#FFFFFF;}
	.st1{fill:none;stroke:#FD6D4D;stroke-width:0.463;stroke-miterlimit:10;}
	.st2{fill:#97BDDC;}
	.st3{fill:none;stroke:#FD6D4D;stroke-width:0.263;stroke-linecap:round;stroke-linejoin:round;}
	.st4{fill:none;stroke:#FD6D4D;stroke-width:0.238;stroke-linecap:round;stroke-linejoin:round;}
	.st5{fill:none;stroke:#1D1D1B;stroke-width:0.263;stroke-linecap:round;stroke-linejoin:round;}
	.st6{fill:#FD6D4D;}
</style>
<path class="st0" d="M-431.7,525.6c-0.9,14.7-13.5,25.9-28.3,25.1c-14.7-0.9-25.9-13.5-25.1-28.3c0.9-14.7,13.5-25.9,28.3-25.1
	c14.5,0.9,25.7,13.2,25.1,27.7"/>
<path class="st1" d="M-430.6,525.9l-2.5-0.2 M-430.8,527.1l-2.5-0.3 M-430.9,528.4l-2.4-0.4 M-431.2,529.7l-2.4-0.5 M-431.5,530.9
	l-2.4-0.6 M-431.8,532.2l-2.4-0.7 M-432.2,533.4l-2.3-0.8 M-432.7,534.6l-2.3-0.9 M-433.2,535.8l-2.2-1.1 M-433.8,537l-2.2-1.2
	 M-434.5,538.1l-2.1-1.3 M-435.2,539.2l-2.1-1.4 M-435.9,540.3l-2-1.4 M-436.7,541.3l-1.9-1.5 M-437.5,542.3l-1.9-1.6 M-438.4,543.3
	l-1.8-1.7 M-439.3,544.2l-1.7-1.8 M-440.3,545.1l-1.6-1.9 M-441.3,545.9l-1.5-2 M-442.4,546.7l-1.4-2 M-443.4,547.4l-1.3-2.1
	 M-444.5,548.1l-1.2-2.1 M-445.7,548.7l-1.1-2.2 M-446.9,549.3l-1-2.2 M-448.1,549.8l-0.9-2.3 M-449.3,550.3l-0.8-2.3 M-450.5,550.7
	l-0.7-2.4 M-451.8,551l-0.6-2.4 M-453,551.3l-0.5-2.4 M-454.3,551.5l-0.4-2.4 M-455.6,551.7l-0.2-2.5 M-456.9,551.8l-0.1-2.5
	 M-458.2,551.8l0-2.5 M-459.5,551.8l0.1-2.5 M-460.8,551.7l0.2-2.5 M-462.1,551.6l0.3-2.5 M-463.4,551.4l0.4-2.4 M-464.7,551.1
	l0.5-2.4 M-465.9,550.8l0.7-2.4 M-467.2,550.4l0.8-2.4 M-468.4,550l0.9-2.3 M-469.6,549.5l1-2.3 M-470.8,549l1.1-2.2 M-472,548.4
	l1.2-2.2 M-473.1,547.7l1.3-2.1 M-474.2,547l1.4-2 M-475.3,546.3l1.5-2 M-476.3,545.5l1.6-1.9 M-477.3,544.6l1.7-1.8 M-478.2,543.7
	l1.7-1.8 M-479.1,542.8l1.8-1.7 M-480,541.8l1.9-1.6 M-480.8,540.8l2-1.5 M-481.5,539.7l2-1.4 M-482.3,538.6l2.1-1.3 M-482.9,537.5
	l2.2-1.2 M-483.5,536.4l2.2-1.1 M-484.1,535.2l2.3-1 M-484.6,534l2.3-0.9 M-485,532.7l2.3-0.8 M-485.4,531.5l2.4-0.7 M-485.7,530.2
	l2.4-0.5 M-486,529l2.4-0.5 M-486.2,527.7l2.5-0.3 M-486.3,526.4l2.5-0.2 M-486.4,525.1l2.5-0.1 M-486.5,523.8l2.5,0 M-486.4,522.5
	l2.5,0.1 M-486.3,521.2l2.5,0.2 M-486.2,519.9l2.4,0.3 M-486,518.6l2.4,0.5 M-485.7,517.3l2.4,0.6 M-485.4,516.1l2.4,0.7
	 M-485,514.8l2.3,0.8 M-484.5,513.6l2.3,0.9 M-484,512.4l2.2,1 M-483.4,511.2l2.2,1.1 M-482.8,510.1l2.2,1.2 M-482.2,509l2.1,1.3
	 M-481.4,507.9l2,1.4 M-480.7,506.8l2,1.5 M-479.8,505.8l1.9,1.6 M-479,504.8l1.8,1.7 M-478.1,503.9l1.7,1.8 M-477.1,503l1.7,1.8
	 M-476.1,502.2l1.6,1.9 M-475.1,501.4l1.5,2 M-474,500.6l1.4,2.1 M-472.9,499.9l1.3,2.1 M-471.8,499.3l1.2,2.2 M-470.6,498.7
	l1.1,2.2 M-469.5,498.2l1,2.3 M-468.2,497.7l0.9,2.3 M-467,497.3l0.8,2.4 M-465.8,496.9l0.6,2.4 M-464.5,496.6l0.5,2.4
	 M-463.2,496.3l0.4,2.4 M-461.9,496.1l0.3,2.5 M-460.6,496l0.2,2.5 M-459.3,496l0.1,2.5 M-458,495.9l0,2.5 M-456.7,496l-0.2,2.5
	 M-455.4,496.1l-0.3,2.5 M-454.1,496.3l-0.4,2.4 M-452.9,496.5l-0.5,2.4 M-451.6,496.8l-0.6,2.4 M-450.3,497.2l-0.7,2.4
	 M-449.1,497.6l-0.8,2.3 M-447.9,498l-0.9,2.3 M-446.7,498.6l-1,2.2 M-445.5,499.1l-1.2,2.2 M-444.4,499.8l-1.3,2.1 M-443.3,500.5
	l-1.4,2.1 M-442.2,501.2l-1.5,2 M-441.2,502l-1.5,1.9 M-440.2,502.8l-1.6,1.9 M-439.2,503.7l-1.7,1.8 M-438.3,504.6l-1.8,1.7
	 M-437.4,505.6l-1.9,1.6 M-436.6,506.6l-1.9,1.5 M-435.8,507.6l-2,1.4 M-435.1,508.7l-2.1,1.3 M-434.4,509.8l-2.1,1.2 M-433.7,511
	l-2.2,1.1 M-433.2,512.1l-2.2,1 M-432.6,513.3l-2.3,0.9 M-432.2,514.5l-2.3,0.8 M-431.8,515.8l-2.4,0.7 M-431.4,517l-2.4,0.6
	 M-431.1,518.3l-2.4,0.5 M-430.9,519.6l-2.4,0.4 M-430.7,520.9l-2.5,0.3 M-430.6,522.2l-2.5,0.2 M-430.6,523.5l-2.5,0 M-430.6,524.8
	l-2.5-0.1"/>
<path class="st0" d="M-462.8,524.8c0,0,0.3,0.1,0.3,0.1l0.7,0.9c0,0,1,0.6,1.2,0.5c0.2-0.1,0.3-0.4,0.4-0.4c0.1,0,0.3-0.2,0.4-0.2
	c0.1,0,0.3-0.3,0.3-0.3s0.5,0.1,0.5-0.2c0-0.3,0-0.9,0-0.9s0.4-0.2,0.4-0.7c0.1,0,0.7-0.1,0.7-0.1c0.5-0.2,0.4-0.7,0.3-1
	c-0.1-0.3-0.7-0.6-0.7-0.6c0.3-0.4,0-0.6,0-0.6c-0.1-0.3-0.4-0.4-0.6-0.4l-0.3,0l-1.2-0.7l-2.1-0.1l-1.9,2.6l-0.7-0.3v-1.7l0.8-2.3
	l0.9-0.9l0.9,0.7l2.9,0.1c0,0,1.1,0.1,1.2-0.1c0.3-0.4,0.6-1,0.6-1l0,0.1c0.1,0.1,0.2,0.1,0.2,0.1s0.3,0,0.3,0.1
	c0,0,0.1-0.2,0.4-0.4c0.4-0.3,0.1-0.5,0.2-0.8c0.1-0.3-0.2-0.5-0.2-0.5l2.3,0.7l0,0c-0.1,0.2-0.2,0.6-0.3,0.6
	c-0.2,0.1,0.1,0.5,0,0.8c-0.1,0.2,0.2,0.4,0.2,0.4l0.1,0c0,0.3,0,0.6,0,0.9c0,0,0.1,0.5,0.4,0.9h0l-0.1,0c0,0-0.1,0.4-0.3,0.5
	c-0.1,0.1-0.8,1-0.7,1.5c0.1,0.6,0.4,1.6,0.4,1.6l0.3,0l0,0.1c0,0-0.2,0.7-0.4,0.8c-0.1,0.1-0.5,0.4-0.9,1.5l0,0c0,0-0.4-0.4-1,0.1
	c-0.4,0.4-0.5,0.4-0.5,0.4c0,0,0,0,0,0l0,0l0,0c0,0,0,0,0,0c-0.4,0.5-0.4,0.5-0.4,0.6c0,0.1-0.2,0.9-0.2,1c0,0.1,0,0.3-0.1,0.4
	s-0.4,0.3-0.4,0.2c0-0.1-0.3-0.4-0.4-0.5c-0.1,0-0.3,0-0.2,0.1c0.1,0.2-0.5,0.1-0.1,0.4l0.4,0.3c0,0,0.4,0.3,0.6,0.4
	c0.2,0.1,0.6,0,0.8-0.3l0.1,0c0,0.2-0.1,0.4-0.1,0.5c-0.1,0.1-0.2,0.6-0.2,0.7c0,0,0.2,0.5,0.4,0.1l0.3-0.3l0.3-0.4l0,0
	c-0.2,0.7-0.4,1.4-0.5,1.6c-0.3,0.6-0.6,1-0.6,1.4c0,0.3-0.1,0.7,0.1,1h0l0,0c-0.8-0.5-1.3,0.2-2.1,0.5c-0.8,0.3-1.7,0.3-1.7,0.3
	l0-0.1c-0.7-0.1-1.6-1.1-1.6-1.1l-1.4-1.4c0.4-1.9,1.3-2,1.3-2l0,0c0.4-1,0.7-2.8,0.8-3.3c0,0-0.1-0.5-0.1-0.7"/>
<path class="st0" d="M-462.2,519.9c0,0-0.3,0.1-0.5,0.2c-0.1,0.1-0.7,0.5-0.8,0.6c-0.1,0-1,0.8-1,0.9c-0.1,0.1-0.1,0.4-0.1,0.6
	c0,0.1,0.4,1.1,0.5,1.2c0,0.1,0.4,0.2,0.4,0.3c0,0.1,0.1,0.4,0.6,0.7l-0.1,0.9l0.3-0.2c0,0,1.2,0.1,1.4-0.2c0.1-0.2,0.6-0.7,0.9-0.8
	c0.3-0.2,1.1-0.7,1.3-0.8c0.2-0.1,0.7,0.2,0.9,0.2c0.2,0,1.3-0.2,0.8-0.9c-0.5-0.6-0.7-1-0.7-1.1c0-0.2-0.2-0.7-0.9-0.8
	c-0.7-0.1-1-0.6-1-0.6L-462.2,519.9z"/>
<path class="st0" d="M-449.5,515.3c0,0-1.2-0.5-1.5-0.5c-0.3-0.1-1.7,0.2-2.1,0.5c-0.4,0.2-0.7,0.4-0.7,0.6
	c-0.1,0.2-0.7,0.4-0.7,0.5c0,0.2-0.2,0.6-0.3,0.8c0,0.1,0,0.8,0.1,0.9c0.1,0.1,0.1,0.7,0.2,0.9c0.1,0.1,0.3,1,0.7,1.3
	c0.4,0.3,1,0.4,1.1,0.6c0.1,0.2,0.5,1.1,0.7,1c0.2-0.1,0.4-0.4,0.6-0.3c0.3,0.1,0.9,0.3,1.3-0.1c0.4-0.4,0.8-1.2,1.3-1.5
	c0.5-0.2,1-0.6,1.3-1.3c0.2-0.6,0.6-1.7,0.4-2.3c-0.2-0.6-0.8-0.9-1-0.9C-448.4,515.5-449.5,515.3-449.5,515.3"/>
<path class="st0" d="M-448.7,532.1c0,0,0.4-7.1,5.1-12.6l0,0c0.6,0.1,1.2,0.1,1.7-0.3l0,0c-6.2-1.7-2.2-5.8-1.5-6.4l0-0.1
	c0.4,0.2,0.9-0.2,2.6,0.7c0.1,0.1,0.9-0.4,1.2-0.4c0.5,0,1.7,1.1,1.8,1.4c0.1,0.1,0.1,0.7,0,1.1c-0.2,0.4-0.6,0.6-0.5,0.8
	c0.5,1,0.7,2,1,3.7c0,0,0.3,1.5,0.4,3.2c0.1,1.3-0.1,2.6,0,3.6c0.1,1.7-1.3,4.7-1.3,6.5c0,0.5,0.3,2.9,1.1,3.1c0,0-2.7,0.3-3.9,0.3
	c-0.5,0-0.5,0-1.1,0c-1.9-0.1-3.8-0.2-3.9-0.3l-0.1,0c-0.1-0.4-0.2-1.1,0-1.5c0.3-0.5,3.3-4.7,3.1-7.7l0,0h0
	c-0.2,0.1-0.3,0.2-0.4,0.4c-0.5,0.7-2.4,2.2-3.6,3.2c-0.4,0.3-0.8,0.6-1,0.8C-448.3,531.5-448.7,532.1-448.7,532.1"/>
<path class="st0" d="M-448.8,537.3c0.1-0.2,0.2-0.5,0.2-0.6c0.1-0.2,0.3-1,0.3-1.2c0-0.3,0.2-0.9,0.5-1.6c0.3-0.7,0.6-3.2,0.6-3.2
	l0-0.1c1.3-1,3.2-2.6,3.6-3.2c0.1-0.2,0.3-0.3,0.4-0.4h0l0,0c0.2,3-2.8,7.2-3.1,7.7c-0.2,0.4-0.1,1.1,0,1.5c0,0.2,0.1,0.3,0.1,0.3
	s0.6,0.8,0.6,1.1c0,0.2-0.4,0.6-0.5,0.7c-0.1,0.1-0.4,0.2-0.6,0.3c-0.1,0.1-0.4,0.1-0.6,0c-0.2,0-0.6-0.2-0.6-0.2s-0.4,0.1-0.7,0.1
	c-0.3,0-0.3-0.4-0.3-0.7C-448.8,537.6-448.8,537.4-448.8,537.3"/>
<path class="st0" d="M-451.5,514.6c0,0,0.4-0.6,1.1-0.8c0.2-0.1,0.3-0.1,0.5-0.2c0.7-0.4,2.1-1,3.4-1c0.5-0.1,1.4-0.1,1.9,0l0,0.1
	l0,0c-1.6,0.7-2.5,3.3-2.5,3.4l0,0c-0.1-0.5-0.3-0.5-0.7-0.6c-0.9-0.2-1.8-0.2-2.7-0.5l0,0c-0.2-0.1-0.5-0.2-0.5-0.2
	c-0.1,0-0.3,0-0.5,0L-451.5,514.6L-451.5,514.6z"/>
<path class="st0" d="M-447.1,516.1c0-0.1,0.8-2.7,2.5-3.4c0.3-0.1,0.7-0.2,1.1-0.1c0,0,0.1,0,0.2,0.1l0,0.1
	c-0.6,0.6-4.7,4.7,1.5,6.4l0,0c-0.5,0.4-1.1,0.4-1.7,0.3c-1.8-0.4-3.4-2.5-3.4-2.5l0,0C-447,516.7-447.1,516.4-447.1,516.1
	L-447.1,516.1z"/>
<path class="st0" d="M-452.7,527.1c0.4-0.8,0.6-1.6,0.6-2.2l0.8-1.8l-0.1-0.1c0.2-0.1,0.5-0.2,0.7-0.4c0.3-0.4,1.2-1.8,1.2-1.8l0,0
	c0.1-0.1,0.2-0.3,0.3-0.4c0,0-0.1-0.2,0.4-0.6l0.1-0.1l0.1-0.1l0.1-0.1c0,0,0.8,0.2,0.7,0.4c0,0.2-0.4,1.6-0.4,1.9
	c0,0.3-0.1,0.6,0.1,0.9c0.1,0.4,0.3,1.2,0.3,1.6c0,0.4-0.2,1.4-0.3,2c0,0.1,0,0.2-0.1,0.3l0,0c0,0-0.5,0-1.4,0.1v0
	C-450.5,526.7-451.5,526.8-452.7,527.1L-452.7,527.1z"/>
<path class="st0" d="M-450.1,532.8c-0.7-1.8,0.6-3.4,0.7-3.7c0.1-0.4,0.6-1,0.6-1l0.5-1.3l0.1-0.3c0-0.1,0-0.2,0.1-0.3
	c0.1-0.6,0.3-1.6,0.3-2c0-0.4-0.2-1.3-0.3-1.6c-0.1-0.3-0.1-0.6-0.1-0.9c0-0.3,0.4-1.6,0.4-1.9c0-0.2-1-0.1-1-0.1l-0.1-0.1l0.1-0.2
	l0.2-0.4c0.1,0,0.5-0.3,0.6-0.3c0.9-0.3,1.1-1.4,1.1-1.4s0-0.2,0-0.4l0,0c0,0,1.7,2.2,3.4,2.5l0,0c-4.6,5.5-5.1,12.6-5.1,12.6
	s0.4-0.6,0.5-0.6c0.2-0.2,0.5-0.4,1-0.8l0,0.1c0,0-0.2,2.5-0.6,3.2c-0.3,0.7-0.5,1.3-0.5,1.6c0,0.3-0.2,1-0.3,1.2
	c-0.1,0.1-0.2,0.3-0.2,0.6l0.4-1.3c0,0-0.8,0.3-1.1-0.7L-450.1,532.8z"/>
<polygon class="st0" points="-450,539.3 -457.5,541.5 -457.6,540.9 -457.6,540.9 -457.5,540.4 -450,538.2 "/>
<path class="st0" d="M-455.1,522c-0.1-0.6,0.5-1.4,0.7-1.5c0.1-0.1,0.3-0.5,0.3-0.5l0.1,0h0c0.1,0.1,0.2,0.2,0.3,0.3l0.4,0.4
	c0,0,0.3,0.1,0.3,0.1c0.1,0,0.3,0.1,0.3,0.3c0.1,0.2,0.3,0.9,0.7,0.8l0.3-0.3c0,0,0.4,0.2,0.5,0.2c0.1,0,0.8,0.4,1.6-0.8l0,0
	c0,0-0.9,1.5-1.2,1.8c-0.2,0.2-0.5,0.3-0.7,0.4c-0.2,0.1-0.4,0.1-0.4,0.1l-2.6,0.3l-0.3,0C-454.7,523.5-455,522.5-455.1,522"/>
<path class="st0" d="M-451.8,511.3L-451.8,511.3c0.1,0,0.1-0.1,0.2-0.2c0.2-0.2,0.1-0.8,0.1-0.9c0-0.1,0.1-0.2,0.2-0.4
	c0.1-0.1,0.1-0.6,0.1-0.7c0-0.1,0.2-0.2,0.2-0.3c0.1-0.1-0.1-0.6-0.1-0.7c0-0.1,0-0.2,0.1-0.4l0.1,0c0,0,1.8,0.6,2.9,2.5
	c0,0,0.4,0.7,0.4,1.1c0,0.1,0,0.2,0,0.2v0l0,0c0.7,0.5,1,0.9,1,0.9l-0.3,0.1c-1.3,0.2-2.3,0.6-3,1c-0.2,0-0.4,0.1-0.5,0.2l0,0
	C-452.1,512.5-451.8,511.3-451.8,511.3L-451.8,511.3L-451.8,511.3z"/>
<path class="st0" d="M-453.2,534.8c-0.6-0.1-0.5-0.7-0.5-0.7s0.2-0.8,0.3-0.9c0-0.1,0-0.6,0-0.8c0-0.2,0.2-0.8,0.5-1.2
	c0.2-0.3,0.2-1.2,0.2-1.4c0-0.2,0-2.3,0-2.3l0,0h0c0.1-0.2,0.2-0.3,0.3-0.5l0.1,0c1.1-0.2,2-0.4,2.7-0.4l0,0.1
	c-0.2,2.1-0.7,2.8-0.7,2.8s-1,1.5-1.2,1.7c-0.1,0.2-0.1,0.8-0.1,0.9c0,0.1-0.1,0.5-0.1,0.5c-0.1,0.2,0.1,0.6,0.3,0.8
	c0.2,0.2,0.4,0.3,0.5,0.6c0.1,0.2-0.2,0.5-0.5,0.7C-451.8,534.9-452.6,534.9-453.2,534.8"/>
<path class="st0" d="M-456.4,507.6c0-0.3,0.3-1.1,0.3-1.2c0-0.1,0.2-0.8,0.4-1c0.1-0.1,0.2-0.2,0.3-0.4c0.2-0.3,0.5-0.5,0.6-0.6
	c0.1-0.1,1-0.3,1-0.3s1.1-0.1,1.7,0.5c0,0,0.7,0,0.8,0.4c0.2,0.4,0.6,1.1,0.5,1.3c0,0.2-0.2,0.4-0.1,0.5c0,0.1,0,0.7-0.1,0.9
	c0,0,0,0,0,0.1c-0.1,0.1-0.1,0.3-0.1,0.4c0,0.1,0.2,0.6,0.1,0.7c-0.1,0.1-0.2,0.2-0.2,0.3c0,0.1,0,0.5-0.1,0.7
	c-0.1,0.1-0.2,0.3-0.2,0.4c0,0.1,0.1,0.7-0.1,0.9c-0.1,0.1-0.1,0.1-0.2,0.2c-0.1,0.1-0.2,0.1-0.2,0.1c0-0.1-0.2,0.2-0.2,0.2
	l-0.1,0.2c0,0,0,0.4-0.1,0.4c-0.1,0-0.2-0.5-0.2-0.5l0.2-1l0.1-1.2l0-0.1l0.9-1.5c0-0.1-0.1-0.7-0.2-0.8c-0.1-0.1-0.4-0.5-0.5-0.6
	c0-0.1-0.1-0.6-0.1-0.6s-0.7,0.6-0.8,0.6c-0.2,0.1-0.7,0-0.8,0c-0.1,0-0.4,0.1-0.5,0.2c-0.1,0.2-0.3,0.6-0.4,0.7s-0.2,0.6-0.2,0.9
	c0,0.1-0.1,0.2-0.1,0.3c-0.1,0.1-0.1,0.2-0.2,0.3c-0.1,0.2,0,0.3,0.1,0.6c0,0.3,0,0.7-0.1,0.9c0,0.1-0.3,0.1-0.3,0.1
	c-0.1,0-0.3,0.2-0.3,0.2s0.1-0.4,0.1-0.5c0-0.1-0.2-0.6-0.3-0.8C-456.2,509.2-456.4,507.9-456.4,507.6"/>
<path class="st0" d="M-457,538l-0.3,0.1l0.3-1.9l0,0c0,0,0.2-0.3,0.2-0.6c0.1-0.3,0.3-1.1,0.5-1.5c0.2-0.4,0.7-0.4,0.7-0.4l0,0.5
	l0.5,3.4l-0.1,0.2l-0.9-2.3L-457,538z"/>
<path class="st0" d="M-455,508.3c0-0.2,0.1-0.7,0.2-0.9s0.3-0.6,0.4-0.7c0.1-0.2,0.4-0.2,0.5-0.2c0.1,0,0.6,0.1,0.8,0
	c0.2-0.1,0.8-0.6,0.8-0.6s0.1,0.5,0.1,0.6c0,0.1,0.3,0.5,0.5,0.6c0.1,0.1,0.2,0.7,0.2,0.8l-0.9,1.5l0,0.1l-0.1,0
	c-0.8,0.6-1.7,0.5-1.7,0.5c-0.6-0.2-0.9-1.3-0.9-1.3l-0.1,0h0C-455,508.5-455,508.4-455,508.3"/>
<polygon class="st0" points="-461.5,539.1 -457.3,538.1 -457,538 -455.5,537.6 -455.2,537.6 -454.3,537.4 -450,538.2 -457.5,540.4 
	"/>
<path class="st0" d="M-457.8,532.8c0-0.4,0.4-0.9,0.6-1.4c0.1-0.3,0.3-1,0.5-1.6c0.2-0.8,0.5-1.6,0.5-1.6c0.1-1,0.3-1.7,0.5-2.3
	c0.4-1.1,0.8-1.4,0.9-1.5c0.1-0.1,0.4-0.8,0.4-0.8l0-0.1l2.6-0.3c0,0,0.2,0,0.4-0.1l0.1,0.1l-0.8,1.8c0.1,0.6-0.2,1.4-0.6,2.2
	c-0.1,0.2-0.2,0.4-0.3,0.5c-0.9,1.7-2.3,3.3-2.4,3.5c-0.1,0.3-0.1,0.6,0.1,1.6c0.2,0.7-0.1,1.2-0.3,1.4l-0.1,0l0-0.5
	c0,0-0.5,0-0.7,0.4c-0.2,0.4-0.5,1.2-0.5,1.5c-0.1,0.3-0.2,0.5-0.2,0.6l0,0c-0.3,0-0.3-0.4-0.3-0.4l-0.1-1.7
	c-0.1-0.1-0.2-0.2-0.2-0.2C-457.8,533.5-457.8,533.1-457.8,532.8"/>
<polyline class="st2" points="-457.1,526.4 -457.1,526.4 -457.1,526.4 -457.1,526.4 "/>
<path class="st2" d="M-457.1,526.4C-457.1,526.4-457.1,526.4-457.1,526.4L-457.1,526.4z"/>
<path class="st0" d="M-459,528.7c-0.4-0.3,0.2-0.3,0.1-0.4c-0.1-0.2,0.1-0.2,0.2-0.1c0.1,0,0.4,0.4,0.4,0.5c0,0,0.4-0.2,0.4-0.2
	c0.1,0,0.1-0.3,0.1-0.4c0-0.1,0.2-0.9,0.2-1c0.1-0.1,0-0.1,0.4-0.6c0,0,0,0,0,0h0c0,0,0.1-0.1,0.5-0.4c0.6-0.5,1-0.1,1-0.1l0,0
	c-0.2,0.5-0.4,1.3-0.5,2.3c0,0-0.2,0.8-0.5,1.6l0,0l-0.3,0.4l-0.3,0.3c-0.3,0.3-0.4-0.1-0.4-0.1c-0.1-0.1,0.1-0.6,0.2-0.7
	c0-0.1,0.1-0.3,0.1-0.5l-0.1,0c-0.2,0.3-0.6,0.3-0.8,0.3c-0.2,0-0.6-0.4-0.6-0.4L-459,528.7z"/>
<path class="st2" d="M-457.1,526.4C-457.1,526.4-457.1,526.4-457.1,526.4L-457.1,526.4z"/>
<path class="st0" d="M-456.8,515.6c0,0,0-0.2,0-0.3c0-0.1-0.3-0.3-0.3-0.3c0,0,0-0.2,0-0.3c-0.1-0.1-0.1-0.5-0.1-0.5
	c0,0,0-0.1,0-0.1l0,0c0,0,0.6-1,0.6-1c0,0,0.8-1.2,0-3.3c-0.1-0.3-0.6,0.3-0.7,0.3l0,0c0.1-0.2,0.2-0.4,0-0.8
	c-0.3-0.6-1.4-1.2-1.8-1.3c-0.1,0-0.2,0-0.3,0l0-0.1c0,0-0.4-0.7,0.3-1.5c0.7-0.8,0.9-0.9,1.2-0.9c0.3,0,0.8-0.1,0.8-0.1
	s0.9-0.7,1.8-0.1v0c-0.1,0.1-0.2,0.3-0.3,0.4c-0.2,0.3-0.4,0.9-0.4,1c0,0.1-0.3,1-0.3,1.2c0,0.3,0.2,1.6,0.2,1.8
	c0.1,0.2,0.3,0.7,0.3,0.8c0,0.1-0.1,0.5-0.1,0.5s0.3-0.2,0.3-0.2c0.1,0,0.3,0,0.3-0.1c0-0.1,0.1-0.6,0.1-0.9c0-0.3-0.1-0.4-0.1-0.6
	c0-0.1,0.1-0.2,0.2-0.3l0.1,0c0,0,0.3,1.1,0.9,1.3c0,0,0.9,0,1.7-0.5l0,0l-0.1,1.2l-0.2,1c0,0,0.2,0.4,0.2,0.5
	c0.1,0,0.2-0.4,0.2-0.4l0.1-0.2c0,0,0.1-0.2,0.2-0.1c0,0,0.1,0,0.2-0.1l0,0c0,0-0.3,1.2,1.4,2.4l0,0c-0.7,0.3-1.1,0.8-1.1,0.8l0,0.1
	c-0.2,0-0.3,0-0.4,0.1c-0.1,0-0.6,0.2-0.7,0.2c-0.1,0-0.5,0.3-0.8,0.4c-0.4,0.1-0.2,0.6-0.7,0.7c-0.2,0-0.3,0.1-0.3,0.3"/>
<path class="st0" d="M-461.1,513.5c0.1-0.4,0.4-0.9,0.5-1c0.2-0.1,0.6-0.3,1.4-0.1c0,0,0.3,0.3,0.4,0.3c0.1,0,0.3,0.1,0.5,0.3
	c0.2,0.1,0.2,0.3,0.2,0.3c0,0.1,0.2,0.3,0.2,0.4c0,0,0.2,0.6,0.2,0.7c0,0.1,0.1,0.5,0.1,0.6c0,0.1,0.2,0.6,0,0.7
	c-0.2,0.1,0,1.4-0.1,1.5c-0.2,0.3-0.4,0.9-0.7,1c-0.8,0.2-1.8,0-1.8,0l0.2-1.7c0-0.1-0.1-0.3-0.1-0.4c-0.2-0.4-0.2-0.8-0.2-1
	c0-0.2-0.1-0.5-0.3-0.7C-460.9,514.1-461.1,513.9-461.1,513.5"/>
<path class="st0" d="M-462.3,525.5l-0.4,0.1l-0.3-0.7c0.1-0.2,1-0.1,1.1-0.1c0.1-0.1,0.4,0,0.4-0.1c0-0.1,0.2-0.1,0.4-0.2
	c0.2-0.1,0.2-0.3,0.3-0.3c0.1,0,0.3-0.2,0.3-0.2c0-0.1,0.3-0.1,0.4-0.2c0.1,0,0.6-0.3,0.8-0.4c0.1-0.1,0.3-0.1,0.4-0.1
	c0.1,0,0.2,0.3,0.2,0.3c-0.1,0.5-0.4,0.7-0.4,0.7s0,0.7,0,0.9c0,0.3-0.5,0.2-0.5,0.2s-0.2,0.3-0.3,0.3c-0.1,0-0.3,0.2-0.4,0.2
	c-0.1,0-0.3,0.2-0.5,0.3c-0.2,0.1-1-0.2-1-0.2L-462.3,525.5z"/>
<path class="st0" d="M-461.5,510.1c-0.3,0-0.5-0.2-0.5-0.3c0-0.1,0.4-0.3,0.4-0.3s0.5-0.3,1-0.3c0.1,0,0.2,0,0.2,0
	c0.4,0,0.6-0.1,0.9,0.1l0.4,0.2l0.1,0h0c-0.1-0.1-0.1-0.2-0.1-0.2c0-0.1-0.1-0.1,0-0.3c0.1-0.1,0.3,0,0.3,0c0,0,0.1,0.2,0.3,0.3
	c0.2,0.1,0.1,0,0.3,0.6c0,0.1,0,0.2,0,0.3c0,0.3-0.4,0.3-0.8,0.5c-0.5,0.3-1.1,0-1.1,0s-0.8-0.8-0.9-0.8c-0.1-0.1-0.1-0.1-0.2,0
	C-461.2,510.1-461.2,510.1-461.5,510.1"/>
<path class="st0" d="M-460.4,509.2c0,0,0-0.8,0.2-1c0.2-0.1,0.4-0.4,0.7-0.4c0.1,0,0.2,0,0.3,0c0.4,0.2,1.5,0.7,1.8,1.3
	c0.2,0.4,0.1,0.7,0,0.8c-0.1,0.1-0.2,0.2-0.2,0.2c-0.2,0.1-0.7,0.2-0.7,0.2l0,0c0-0.1,0-0.2,0-0.3c-0.1-0.6-0.1-0.5-0.3-0.6
	c-0.2-0.1-0.3-0.3-0.3-0.3c0,0-0.2-0.1-0.3,0c-0.1,0.1,0,0.2,0,0.3c0,0,0.1,0.1,0.1,0.2h0l-0.1,0l-0.4-0.2
	C-459.8,509.2-460.1,509.2-460.4,509.2L-460.4,509.2L-460.4,509.2z"/>
<polygon class="st0" points="-461.5,539.1 -457.5,540.4 -457.6,540.9 -457.6,541 -457.5,541.1 -457.6,541.4 -461.6,540.1 
	-461.5,539.1 "/>
<path class="st0" d="M-461.5,518.3c-0.2-0.1-1,0.1-1.1-0.2c-0.1-0.2-0.2-0.3-0.8-0.7c-0.5-0.4,0-0.8,0.2-0.9c0.1,0,0.1-0.1,0.1-0.1
	c0-0.1,0.1-0.2,0.3-0.4c0.2-0.2,0.1-0.2,0.1-0.7c0-0.5,0.3-0.7,0.3-0.7c-0.1-0.6,0.2-1.1,0.2-1.1c0-0.4,0.6-0.7,0.6-0.7
	c0.3-0.7,1-0.4,1-0.4c0.3-0.1,0.5-0.2,0.5-0.2s0.3,0,0.4,0c0.1,0,0.4-0.1,0.5-0.1c0,0,0.2,0,0.4,0.2c0,0,0.3,0,0.4,0.2
	c0,0.2,0.5,0.1,0.4,0.5c0,0,0.2,0.3,0.3,0.5c0,0.2,0.3,0.1,0.4,0.5c0,0,0,0.1,0,0.1c0,0,0.1,0.4,0.1,0.5c0.1,0.1,0,0.3,0,0.3
	c0,0,0.3,0.2,0.3,0.3c0,0.1-0.1,0.3-0.1,0.3s0.3,0.3,0.2,0.5c-0.1,0.3,0.2,0.5-0.2,0.8c-0.3,0.2-0.4,0.4-0.4,0.4
	c-0.1-0.1-0.4-0.1-0.4-0.1s-0.1,0-0.2-0.1c-0.1-0.1-0.2-0.1-0.2-0.2c0-0.1-0.2-0.1-0.1-0.8l-0.1-0.1c0.2-0.1,0.4-0.2,0.6-0.4
	c0.2-0.1,0-0.7,0-0.7c0-0.1-0.1-0.5-0.1-0.6c0-0.1-0.1-0.3-0.2-0.5c0-0.1,0-0.1-0.1-0.1c0,0-0.2-0.3-0.2-0.4c0-0.1,0-0.2-0.2-0.3
	c-0.2-0.1-0.4-0.2-0.5-0.3c-0.1,0-0.4-0.3-0.4-0.3c-0.8-0.2-1.2,0.1-1.4,0.1c-0.2,0.1-0.5,0.6-0.5,1c-0.1,0.4,0.2,0.6,0.3,0.8
	c0.1,0.2,0.3,0.5,0.3,0.7c0,0.2,0.1,0.6,0.2,1c0,0.1,0.1,0.2,0.1,0.4c0.1,0.3,0.1,0.7,0.1,0.8c-0.1,0.2-0.1,0.6-0.1,0.8
	c0,0.2-0.3,0.4-0.4,0.4C-460.6,518.3-461.3,518.4-461.5,518.3"/>
<path class="st0" d="M-468.5,507.5c-0.1-0.4,0.6-0.8,0.6-0.8c0-0.4,0.6-0.4,0.6-0.4c0-0.4,0.8-0.2,0.8-0.2c0.3-0.4,0.3-0.4,0.3-0.4
	c0.4-0.2,1.7-0.1,1.7-0.1c1-0.2,1,0.2,1,0.2c0.7,0.1,0.9,0.3,0.9,0.3c0.2-0.2,0.5,0.1,0.5,0.1c0.6,0.2,0.7,0.7,0.7,0.7
	c0.7,0.2,0.4,0.7,0.4,0.7c0.4,0.4,0,0.6,0,0.7c0,0.1,0,0.3-0.4,0.3c-0.1,0-0.3,0-0.4-0.1c-0.3-0.1-0.6-0.4-0.8-0.4
	c-0.3-0.1-0.2-0.2-0.2-0.2c-0.2,0-0.1,0.1-0.2-0.1l-0.1,0c0,0,0,0.4-0.1,0.6c-0.2,0.2-0.3,0.2-0.4,0.2c-0.1,0-0.4,0.3-0.6,0.4
	c-0.2,0.1-0.2,0.1-0.3,0.1c-0.1,0-0.3,0.4-0.5,0.3c0,0-0.2-0.2-0.3-0.1c-0.1,0.1-0.5,0.2-0.7,0.1c-0.2-0.1-0.6-0.2-0.6-0.4
	c0-0.1-0.4-0.2-0.6-0.4l-0.1,0c-0.1-0.3-0.4-0.6-0.7-0.8C-468.2,507.7-468.4,507.6-468.5,507.5L-468.5,507.5L-468.5,507.5z"/>
<path class="st0" d="M-466.6,515c0-0.4,0.2-0.7,0.3-0.9c0.2-0.3,0.6-0.3,0.6-0.3l0.4,0.1l0.4,0.1l0.3,0c0,0,0.7,0.1,0.7,0.1
	c0.1,0,0.7,0.1,0.7,0.1c0.1,0.2-0.3,0.3-0.3,0.3l-0.6,0.1l0.2,0.3c0.2,0.3-0.2,0.6-0.2,0.6c0.1,0.6-0.3,0.8-0.3,0.8
	c-0.6,0.4-1.2,0.1-1.6-0.2c-0.1-0.1-0.2-0.1-0.3-0.1C-466.7,515.8-466.6,515.4-466.6,515"/>
<path class="st0" d="M-466.3,530.1L-466.3,530.1c0.4,0,0.9-0.2,1.4-0.5c0,0,0.4-0.3,0.7-0.8h0l0,0c1.4-0.2,1.6-1.8,1.7-2.4l-0.1,0.8
	c0,0-0.3,1.1-0.3,1.1c-0.1,0.5-0.1,0.5-0.5,1.6c-0.1,0.3-0.6,1.4-0.7,1.5l-1.3,1.3l-0.1-0.1c-0.3-0.8-0.2-0.7-0.3-0.9
	C-465.7,531.3-466.3,530.1-466.3,530.1L-466.3,530.1z"/>
<path class="st0" d="M-468.9,514.8c-0.2-0.2,0-0.7,0-0.7l0-0.1l0.8-0.4c0,0,1.2-0.4,1.9-0.7h0l0.2,0.1c0,0,0.8,0.6,0.9,0.8v0l0,0.1
	l-0.4-0.1c0,0-0.5,0.2-0.6,0.3c-0.1,0.1-0.3,0.5-0.3,0.9c0,0.4-0.1,0.8,0.3,0.9c0.1,0,0.2,0.1,0.3,0.1l0,0c0,0-1.1,0-1.3-0.1
	C-468.5,516-468.9,514.8-468.9,514.8"/>
<path class="st0" d="M-467.8,511.1c0.2-0.3,0.3-0.5,0.4-0.9c0.2-0.5,0.1-1.1-0.1-1.6l0.1,0c0.2,0.2,0.6,0.3,0.6,0.4
	c0.1,0.2,0.4,0.2,0.6,0.4c0.2,0.1,0.6,0,0.7-0.1c0.1-0.1,0.3,0.1,0.3,0.1c0.2,0.2,0.4-0.3,0.5-0.3c0.1,0,0.2,0,0.3-0.1
	c0.2-0.1,0.4-0.4,0.6-0.4c0.1,0,0.2,0,0.4-0.2c0.2-0.2,0.1-0.6,0.1-0.6l0.1-0.1c0,0,0.1,0.2,0.2,0.2c0,0-0.1,0.1,0.2,0.2
	c0.2,0,0.5,0.3,0.8,0.4l0,0c0,0-0.1,0.1-0.2,0.3c-0.1,0.2-0.5,1.1-0.6,1.6c-0.1,0.4-0.4,0.1-0.4,0.1c0,0-0.1,0.2-0.2,0.2
	c-0.1,0.1-0.3,0.1-0.3,0.1s-0.1,0.2-0.2,0.2c-0.1,0-0.2,0.2-0.2,0.2c0,0.1,0,0.2-0.2,0.2c-0.2,0-0.7-0.2-0.7-0.2l-0.8-0.4l-0.1-0.1
	l-2,0.5L-467.8,511.1z"/>
<path class="st0" d="M-474.5,526.3c-0.3-0.2-0.1-0.5-0.2-1.2c0-0.7,1.2-1,1.5-1c0.3,0,1.6-0.4,1.6-0.4l1.3-0.5l0,0
	c0,0,0.1,0.1,0.1,0.1c0.1,0.1,0.3,0.3,0.4,0.4c0.1,0.1,0.4,0.1,0.5,0.1c0.1,0,0.4-0.2,0.4-0.2c0.1-0.1,0.1-0.2,0.1-0.4
	c0-0.1,0.1-0.5,0.1-0.6c0-0.1,0.1-0.4,0.1-0.4v0c0.1-0.1,0.3-0.2,0.4-0.2c0.1,0,0.2-0.1,0.2-0.1c0.1,0,0.3,0.1,0.3,0.1
	s0.4,0.1,0.8,0c0.2-0.1,0.2-0.1,0.2-0.2l0,0c0,0,1.4,0.4,2.1,0.8c0,0,0,0,0,0v0l0,0c0,0,0.4,0.2,0.6,0.8c0,0.1,0.1,0.2,0.2,0.2
	c0.1,0.1,0,0.1,0.1,0.2c0.2,0.2,0.4,0.4,0.5,0.5c0.1,0.2,0.2,0.5,0.2,0.5l0,0c0.1,0.5,0.2,1,0.2,1l0.1,0.5c0,0,0,0,0,0
	c0,0.5-0.3,2.2-1.7,2.4l0,0h0c-0.3,0.5-0.7,0.8-0.7,0.8c-0.6,0.3-1,0.5-1.4,0.5v0c-0.8,0-1.2-0.5-1.2-0.5l-0.2,0
	c0.2-0.4,0.5-1,0.5-1.2c0,0,0.9-0.1,1-0.6c0-0.5,0.4-1.1-2.4-2.1c0,0-0.8,0.5-1.2,1.4c-0.2,0.4-0.4,0.9-0.6,1.5l-0.1,0
	c-0.6-0.4-1.9-1.7-2.5-2.4v0l0,0c0,0-0.5,0.2-1,0.5l0,0C-474,526.6-474.2,526.5-474.5,526.3"/>
<path class="st0" d="M-470.6,530.4c0-0.7,0.1-1.4,0.2-1.9c0.1-0.6,0.4-1.1,0.6-1.5c0.4-0.8,1.2-1.4,1.2-1.4c2.7,1,2.4,1.7,2.4,2.1
	c0,0.5-1,0.6-1,0.6c0,0.3-0.3,0.9-0.5,1.2c-0.1,0.2-0.2,0.3-0.2,0.3l-0.4,0.8c0,0-0.5,1.3-0.6,1.5c0,0.3,0.4,0.3,0.6,0.4
	c0.2,0,0.7,0.4,0.7,0.4c0.1,0.1,0.4,0.3,0.4,0.4c0,0.1,0.2,0.2,0.2,0.2c0.1,0.1,0.4,0.2,0.4,0.2s0.6,0.7,0.6,0.8
	c0.1,0.1,0.1,0.2,0.1,0.2c0,0.1-0.2,0.1-0.2,0.1l-0.8-0.5l-0.6-0.2c0.3,0.2,0.5,0.7,0.5,0.7s0.2,0.4,0.3,0.7c0.1,0.2,0,0.3-0.1,0.3
	c-0.1,0-0.3-0.1-0.3-0.1l-0.3-0.5l-0.6-0.8l0.1,0.4l0.1,0.3l0.2,0.5c0,0,0.1,0.4,0.1,0.5c0,0.1,0,0.1-0.1,0.2c-0.1,0-0.2,0-0.2,0
	l-0.6-1.3c0,0,0,0.1,0,0.3c0,0.2-0.4,0.3-0.5,0.3c-0.1,0-0.2,0.1-0.3,0.1c-0.1,0.1-0.1,0-0.1,0c-0.1-0.1-0.1-0.3-0.1-0.3
	c0,0,0.2-0.2,0.3-0.2c0.1-0.1-0.1-0.3-0.1-0.4c0-0.1-0.4-0.3-0.5-0.4c0,0-0.5-0.4-0.5-0.4c-0.3-0.3-0.5-1-0.6-1.9
	C-470.6,531.6-470.6,531-470.6,530.4"/>
<path class="st0" d="M-470.1,514.5c0-0.2,0-0.2,0-0.2c0.5-0.4,0.7-1.4,0.8-1.8c0.1-0.4,0.4-0.5,0.7-0.6c0.2-0.1,0.5-0.4,0.7-0.7
	l0.1,0.1l2-0.5l0.1,0.1l0,0c0,0,0.1,0.7-0.3,1.2h0l0.1,0c0,0,0,0.5,0,0.7c0,0-0.2,0.1-0.4,0.2c-0.7,0.3-1.9,0.7-1.9,0.7l-0.8,0.4
	L-470.1,514.5L-470.1,514.5z"/>
<path class="st0" d="M-474.4,510.9c-0.6-0.8-0.2-1.5,0.8-2.5c0.8-0.9,3.3-1.1,3.8-1.2l0,0c0.2,0,0.8,0.1,1.3,0.3
	c0.1,0.1,0.3,0.2,0.4,0.3c0.3,0.2,0.5,0.5,0.7,0.8c0.3,0.5,0.3,1.1,0.1,1.6c-0.1,0.3-0.3,0.6-0.4,0.9c-0.3,0.4-0.5,0.6-0.7,0.7
	c-0.3,0.1-0.6,0.2-0.7,0.6c-0.1,0.4-0.4,1.4-0.8,1.8c0,0-0.1,0,0,0.2c0,0.1,0,0.1,0.1,0.2c0.2,0.4,0.8,1.5,0.7,2.4
	c0,0.8,0.1,1.7,0.3,2.3c0.2,0.7,0.6,1.4,0.8,1.5c0.2,0,0.5,0.1,0.6,0.2c0.1,0.1,0.5,0.3,0.7,0.4c0.1,0,0.2,0.1,0.3,0.2
	c0,0.1,0,0.1-0.2,0.2c-0.4,0.1-0.8,0-0.8,0s-0.2-0.1-0.3-0.1c-0.1,0-0.2,0.1-0.2,0.1c-0.1,0-0.3,0.1-0.4,0.2c0,0,0,0,0,0
	c0,0.1-0.1,0.3-0.1,0.4c0,0.1-0.1,0.4-0.1,0.6c0,0.1,0,0.3-0.1,0.4c0,0-0.3,0.2-0.4,0.2c-0.1,0-0.4,0-0.5-0.1
	c-0.1-0.1-0.3-0.3-0.4-0.4c0,0-0.1-0.1-0.1-0.1c-0.1-0.1-0.2-0.4-0.2-0.8c0.1-0.4,0.3-0.8,0.3-0.9c0-0.1-0.5-1.4-0.5-1.4
	s-0.7-1-0.9-1.3c-0.1-0.2-0.5-0.6-0.8-1.7c-0.1-0.4-0.2-0.8-0.2-1.3c0,0-0.1-0.3-0.1-0.9c0-0.1,0-0.3,0-0.4c0.1-0.8,0.1-1.9,0.1-2.1
	c0,0,0-0.1,0-0.3l-0.1,0C-473.1,512.4-473.8,511.7-474.4,510.9"/>
<path class="st0" d="M-477.3,526.1c0-0.1,0.1-0.4,0.1-0.9c0.1-0.7,0.4-1.6,0.4-1.9c0-0.5-0.4-2.5-0.4-3.8c0-1.4,0.8-2.2,0.8-2.2l0,0
	c2.1,0.1,4.1-0.2,4.1-0.2l0,0c0.3,1.1,0.7,1.5,0.8,1.7c0.1,0.3,0.9,1.3,0.9,1.3s0.5,1.3,0.5,1.4c0,0.1-0.3,0.4-0.3,0.9
	c-0.1,0.3,0.1,0.6,0.2,0.8l0,0l-1.3,0.5c0,0-1.3,0.3-1.6,0.4c-0.3,0-1.6,0.3-1.5,1c0,0.7-0.1,1,0.2,1.2c0.3,0.2,0.5,0.3,0.5,0.3l0,0
	c-0.2,0.1-0.4,0.3-0.6,0.4c-0.3,0.4-0.6,0.8-0.7,1.2l-0.1,0c0,0-0.9-0.6-1-0.6c-0.1,0-0.3,0-0.6-0.1l0-0.1v0
	C-477.3,527-477.2,526.3-477.3,526.1"/>
<path class="st0" d="M-479.3,516.8c-0.7-1.1-0.3-1.6-0.2-1.7c0.3,0.3,0.7,0.6,1.2,0.5c0.8-0.1,1.7-0.4,2.1-0.1
	c0.4,0.3,1.1,1.1,2,0.5c0.6-0.4,1.2-0.8,1.4-1c0.1-0.1,0.2-0.1,0.2-0.1l0.1,0c0,0.6,0.1,0.9,0.1,0.9c0,0.5,0.1,1,0.2,1.3l0,0
	c0,0-2,0.3-4.1,0.2c-0.5,0-1.1-0.1-1.6-0.2c-0.3-0.1-0.6-0.1-0.9-0.2v0C-479,516.9-479.1,516.8-479.3,516.8"/>
<path class="st0" d="M-479.9,514.7c-0.2-0.2-0.3-0.9-0.1-1.1c0.2-0.2,0.8-0.9,0.8-0.9c1-1.7,1.9-1.9,1.9-1.9l0.1,0
	c-0.1,0.7-0.2,1.6-0.2,1.8c0,0.2,0.5,1,0.8,1.2c0.3,0.2,0.9,0.4,1.1,0.4c0.2,0,1.4,0.5,1.6,0.5l1.2,0.4l0,0.1
	c-0.3,0.2-0.8,0.6-1.4,1c-0.8,0.6-1.6-0.2-2-0.5c-0.4-0.3-1.3,0-2.1,0.1c-0.5,0.1-0.9-0.2-1.2-0.5
	C-479.7,514.9-479.9,514.7-479.9,514.7"/>
<path class="st0" d="M-478,530.7c-1.4,0-1-1.5-0.9-2s1-1.1,1.3-1.1c0.2,0,0.5,0,0.7,0.1c0.3,0,0.5,0.1,0.6,0.1c0.1,0,1,0.6,1,0.6
	l0.1,0c0,0.1,0,0.1,0,0.2c0,0.4,0.3,0.7,0.5,0.9l0,0c-0.4,0-0.9,0-1,0c-0.2,0-1.2,0.6-1.4,0.8c0,0-0.1,0.1-0.1,0.1
	C-477.5,530.4-478,530.7-478,530.7"/>
<path class="st0" d="M-476.5,538.8c0-0.1-0.6-1.1-0.6-1.3c0-0.2,0.4-1.3,0.6-1.8c0.2-0.5,0.2-1,0.2-1.3c0-0.3,0.2-0.5,0.2-0.5l0-0.1
	c0,0,0,0,0.1,0.1c1.1,0.9,2,1.9,3.2,2.5c1.2,0.6,3.9,1.7,4.2,1.8c0.1,0,0.2,0.1,0.3,0.1l0,0l0.6,0.1c2.4,0.1,2.5-1,3-1.9
	c0.1-0.1,0.1-0.2,0.1-0.3l0.1,0c0,0,0.3,0.3,0.6,0.8c0.3,0.5,0.1,1.5,0.1,1.8c0,0.3-0.2,0.4-0.7,0.9c-0.5,0.5-1.6,0.3-2.1,0.2
	c-0.5-0.1-1.7-0.4-2.4-0.5c-0.7-0.1-2-0.9-2.4-1c-0.3-0.2-1.9-1.5-2.1-1.6c-0.2-0.2-0.6-0.3-0.8-0.3c-0.2,0-1.3,0.8-1.4,0.8
	c-0.1,0.1-0.2,0.2-0.3,0.3c0,0.1,0,0.2,0.1,0.3c0.1,0.1,0.2,0.1,0.3,0.2c0.1,0,0.3,0.1,0.4,0.1c0.1,0-0.2,0.4-0.3,0.4
	c-0.1,0,0,0.1-0.1,0.2c0,0.1-0.2,0.1-0.2,0.1c-0.1,0-0.2,0-0.3,0c-0.1,0-0.3,0-0.3,0C-476.3,539-476.5,538.8-476.5,538.8"/>
<path class="st0" d="M-477.5,512.4c0-0.2,0.1-1.1,0.2-1.8c0-0.2,0.1-0.3,0.1-0.4c0.2-0.6,0.7-0.8,1.1-1.1c0.4-0.2,0.8-1,1.2-1.3
	c0.4-0.3,1.5-0.5,2.4-0.7c0.9-0.2,2.5,0,2.5,0s0.1,0,0.1,0l0,0c-0.5,0-3,0.3-3.8,1.2c-0.9,1-1.4,1.7-0.8,2.5c0.6,0.8,1.3,1.5,2,1.2
	l0.1,0c0,0.1,0,0.2,0,0.3c0,0.2,0,1.3-0.1,2.1c0,0.1,0,0.3,0,0.4l-0.1,0c0,0-0.1,0-0.2,0.1l0-0.1l-1.2-0.4c-0.2-0.1-1.3-0.5-1.6-0.5
	c-0.2,0-0.8-0.2-1.1-0.4C-476.9,513.5-477.5,512.6-477.5,512.4"/>
<path class="st0" d="M-476.6,531.5c0.4,0.4,1.4,1,2.6,1.1c1.3,0.1,2.7,0.3,3.5-0.5c0.1,0.9,0.2,1.6,0.6,1.9c0,0,0.4,0.3,0.5,0.4
	c0,0,0.4,0.3,0.5,0.4c0,0.1,0.1,0.4,0.1,0.4c-0.1,0.1-0.3,0.2-0.3,0.2c0,0-0.1,0.3,0.1,0.3c0,0,0.1,0.1,0.1,0
	c0.1-0.1,0.2-0.1,0.3-0.1c0.1,0,0.4-0.2,0.5-0.3c0-0.2,0-0.3,0-0.3l0.6,1.3c0,0,0.2,0.1,0.2,0c0.1,0,0.1-0.1,0.1-0.2
	c0-0.1-0.1-0.5-0.1-0.5l-0.2-0.5l-0.1-0.3l-0.1-0.4l0.6,0.8l0.3,0.5c0,0,0.2,0.2,0.3,0.1c0.1,0,0.2-0.1,0.1-0.3
	c-0.1-0.2-0.3-0.7-0.3-0.7s-0.3-0.5-0.5-0.7l0.6,0.2l0.8,0.5c0,0,0.1,0,0.2-0.1c0-0.1,0-0.2-0.1-0.2c-0.1-0.1-0.6-0.8-0.6-0.8
	s-0.3-0.2-0.4-0.2c0,0-0.1-0.1-0.1-0.2c0-0.1-0.3-0.4-0.4-0.4c-0.1-0.1-0.6-0.4-0.7-0.4c-0.2,0-0.6-0.1-0.6-0.4
	c0-0.3,0.6-1.5,0.6-1.5l0.4-0.8c0,0,0.1-0.1,0.2-0.3l0.2,0c0,0,0.4,0.5,1.2,0.5l0,0.1c0,0,0.6,1.2,0.6,1.6c0,0.2,0.4,1.3,0.6,2.1
	c0.2,0.5,0.3,0.9,0.3,1c0.1,0.2,0.4,0.6,0.3,1.2c0,0,0,0.1,0,0.1c0,0.1-0.1,0.2-0.1,0.3c-0.5,0.9-0.6,2-3,1.9l-0.6-0.1l0,0
	c-0.1-0.1-0.3-0.1-0.3-0.1c-0.3-0.1-3-1.2-4.2-1.8c-1.2-0.6-2.1-1.6-3.2-2.5c0,0,0,0-0.1-0.1C-476.9,533-476.6,531.5-476.6,531.5
	L-476.6,531.5L-476.6,531.5z"/>
<path class="st0" d="M-479.8,526.9c-0.5,0-0.3-0.3-0.3-0.3c0.1-0.1,0.2-0.4,0.2-0.5c1-1.4,0.8-3.9,0.8-5.8c0-2,1.2-3.1,1.2-3.1l0,0
	c0.5,0.1,1.1,0.2,1.6,0.2l0,0c0,0-0.8,0.9-0.8,2.2c0,1.3,0.4,3.3,0.4,3.8c0,0.3-0.2,1.2-0.4,1.9l-0.2,0.8l0.2,1.1
	c0,0,0.2,0.4-0.6,0.4c-0.4,0.2-1,0-1.2-0.3C-479.2,527-479.3,526.9-479.8,526.9"/>
<path class="st0" d="M-476.7,531.4c-0.3-0.4-0.4-1.2-0.4-1.2l-0.2,0h0c0,0,0.1-0.1,0.1-0.1c0.2-0.2,1.2-0.8,1.4-0.8c0.1,0,0.6,0,1,0
	l0,0c-0.2-0.1-0.5-0.5-0.5-0.9c0-0.1,0-0.1,0-0.2c0.1-0.4,0.3-0.8,0.7-1.2c0.1-0.1,0.3-0.3,0.6-0.5c0.4-0.3,1-0.5,1-0.5l0,0v0
	c0.6,0.6,1.9,2,2.5,2.4l0.1,0c-0.1,0.6-0.2,1.2-0.2,1.9c0,0.6,0,1.2,0.1,1.7l0,0c-0.8,0.7-2.2,0.5-3.5,0.5c-1.2-0.1-2.2-0.7-2.6-1.1
	C-476.6,531.5-476.6,531.4-476.7,531.4"/>
<path class="st0" d="M-481.3,526.5c0,0-0.3,0-0.2-0.1c0.1-0.1,0.4-0.7,0.5-0.8c0-0.1,0.2-0.5,0.3-0.7c0.2-0.4,0.3-0.9,0.3-0.9
	c0.3-0.7,0.3-1,0.3-1l0.2-3c0-1.7,1.1-3,1.1-3l0,0c0.3,0.1,0.6,0.2,0.9,0.2l0,0c0,0-1.2,1.1-1.2,3.1c0,1.9,0.5,3.6-0.3,5l-0.3,0.6
	c0,0-0.4,1-0.4,1c0,0-0.3-0.2-0.5-0.1C-480.9,526.8-481.3,526.7-481.3,526.5"/>
<path class="st0" d="M-482.6,525.6c-0.6-0.3,0.4-1.1,0.4-1.1l0.7-1c0,0,0.5-0.7,0.7-1.5c0.2-0.3,0.3-2.3,0.3-2.3
	c0.3-2.3,1.2-2.9,1.2-2.9c0.1,0.1,0.3,0.1,0.4,0.1v0l0,0c0,0-1,1.3-1.1,3l-0.2,3c0,0,0,0.3-0.3,1c0,0-0.1,0.5-0.3,0.9l-0.8,1.5
	c0,0-0.3-0.3-0.6-0.4C-482.4,526-482.6,525.6-482.6,525.6"/>
<path class="st3" d="M-478,517.2c0,0-1.2,0.8-1.2,2.9c0,1.9,0.3,4.5-0.5,5.9c-0.1,0.1-0.1,0.2-0.2,0.3c0,0-0.6,0.7-0.1,0.7
	c0.5,0,0.8,0,1,0.3c0.1,0.1,0.2,0.2,0.3,0.3c0,0,0.5,0.1,1.1,0 M-476.3,517.4c0,0-0.8,0.9-0.8,2.2c0,1.3,0.4,3.4,0.4,3.8
	c0,0.3-0.1,1-0.3,1.7c-0.1,0.4-0.3,1.4,0.1,2.4 M-479.5,515.1C-479.5,515.1-479.5,515.1-479.5,515.1c-0.1,0.1-0.6,0.5,0.2,1.7
	 M-472.6,514.9c0,0-0.1,0-0.2,0.1c-0.3,0.2-0.8,0.6-1.4,1c-0.8,0.6-1.6-0.2-2-0.5c-0.4-0.3-1.3,0-2.1,0.1c-0.5,0.1-0.9-0.2-1.2-0.5
	c-0.2-0.2-0.4-0.4-0.5-0.5c-0.2-0.2-0.3-1-0.1-1.1c0.2-0.2,0.8-0.9,0.8-0.9c1-1.7,1.9-1.9,1.9-1.9 M-468.4,522.2
	c0,0-0.1,0.3-0.1,0.4c0,0.1-0.1,0.4-0.1,0.6c0,0.1,0,0.3-0.1,0.4c0,0-0.3,0.2-0.4,0.2c-0.1,0-0.4,0-0.5-0.1
	c-0.1-0.1-0.3-0.3-0.4-0.4c0,0-0.1-0.1-0.1-0.1c-0.1-0.1-0.2-0.4-0.2-0.8c0.1-0.4,0.3-0.8,0.3-0.9c0-0.1-0.5-1.4-0.5-1.4
	s-0.7-1-0.9-1.3c-0.1-0.2-0.5-0.6-0.8-1.7c-0.1-0.4-0.2-0.8-0.2-1.3c0,0-0.1-0.3-0.1-0.9c0-0.1,0-0.3,0-0.4c0.1-0.8,0.1-1.9,0.1-2.1
	c0,0,0-0.1,0-0.3c0.1-0.4,0.2-1.1,0.3-1.6c0.2-0.6,1.2-2.2,1.2-2.2 M-468.4,522.2C-468.4,522.2-468.4,522.2-468.4,522.2 M-472.8,515
	l-1.2-0.4c-0.2-0.1-1.3-0.5-1.6-0.5c-0.2,0-0.8-0.2-1.1-0.4c-0.3-0.2-0.8-1-0.8-1.2c0-0.2,0.1-1.1,0.2-1.8c0-0.2,0.1-0.3,0.1-0.4
	c0.2-0.6,0.7-0.8,1.1-1.1c0.4-0.2,0.8-1,1.2-1.3c0.4-0.3,1.5-0.5,2.4-0.7c0.9-0.2,2.5,0,2.5,0s0.1,0,0.1,0c0.2,0,0.8,0.1,1.3,0.3
	c0.1,0.1,0.3,0.2,0.4,0.3c0.3,0.2,0.5,0.5,0.7,0.8c0.3,0.5,0.3,1.1,0.1,1.6c-0.1,0.3-0.3,0.6-0.4,0.9c-0.3,0.4-0.5,0.6-0.7,0.7
	c-0.3,0.1-0.6,0.2-0.7,0.6c-0.1,0.4-0.4,1.4-0.8,1.8c0,0-0.1,0,0,0.2c0,0.1,0,0.1,0.1,0.2c0.2,0.4,0.8,1.5,0.7,2.4
	c0,0.8,0.1,1.7,0.3,2.3c0.2,0.7,0.6,1.5,0.8,1.5c0.2,0,0.5,0.1,0.6,0.2c0.1,0.1,0.5,0.3,0.7,0.4c0.1,0,0.2,0.1,0.3,0.2
	c0,0.1,0,0.1-0.2,0.2c-0.4,0.1-0.8,0-0.8,0s-0.2-0.1-0.3-0.1c-0.1,0-0.2,0.1-0.2,0.1c-0.1,0-0.3,0.1-0.4,0.2c0,0,0,0,0,0
	c0,0,0,0,0,0 M-472.4,512.2c-0.7,0.2-1.3-0.4-2-1.2c-0.6-0.8-0.2-1.5,0.8-2.5c0.8-0.9,3.3-1.1,3.8-1.2 M-470,514.5l1-0.5l0.8-0.4
	c0,0,1.2-0.4,1.9-0.7c0.2-0.1,0.4-0.2,0.4-0.2c0-0.2,0-0.7,0-0.7 M-465.6,510.7c0,0,0.1,0.7-0.3,1.2c-0.1,0.1-0.1,0.2-0.2,0.2
	l-0.7,0.4 M-463,510.5c0,0,0.3,0.3,0.4-0.1c0.1-0.4,0.5-1.4,0.6-1.6c0.1-0.2,0.2-0.3,0.2-0.3 M-467.6,511.2l2-0.5l0.1,0.1l0.8,0.4
	c0,0,0.5,0.3,0.7,0.2c0.2,0,0.2-0.1,0.2-0.2c0-0.1,0.1-0.2,0.2-0.2c0.1,0,0.2-0.2,0.2-0.2s0.2,0,0.3-0.1c0.1-0.1,0.2-0.2,0.2-0.2
	 M-468.5,507.5c-0.1-0.3,0.2-0.6,0.3-0.7c0,0,0.2-0.1,0.2-0.1c0,0,0,0,0-0.1c0-0.4,1.3-0.7,1.3-0.7c0-0.9,2.1-0.5,2.1-0.5
	c1-0.2,1.9,0.6,1.9,0.6c0.8-0.1,1.2,0.8,1.2,0.8c0.7,0.2,0.4,1.3,0.4,1.4c0,0.1,0,0.3-0.4,0.3c-0.1,0-0.3,0-0.4-0.1
	c-0.3-0.1-0.3-0.1-0.8-0.3l-0.5-0.4c0,0,0,0.4-0.1,0.6c-0.2,0.2-0.3,0.2-0.4,0.2c-0.1,0-0.4,0.3-0.6,0.4c-0.2,0.1-0.4,0.4-0.9,0.4
	c0,0-0.8,0.2-1,0c-0.2-0.1-0.7,0.1-0.8-0.1c0-0.1-0.2-0.3-0.4-0.5 M-463.8,510.5l0.3,0.3 M-468.9,514c0,0-0.1,0.5,0,0.8
	c0,0,0.4,1.2,1.7,1.2c0.1,0,1.3,0.1,1.3,0.1 M-466.1,513c0,0,0.8,0.6,0.9,0.8 M-470.2,523.2l-1.3,0.5c0,0-1.3,0.3-1.6,0.4
	c-0.3,0-1.6,0.3-1.5,1c0,0.7-0.1,1,0.2,1.2c0.3,0.2,0.5,0.3,0.5,0.3 M-473,526.1c0,0-0.5,0.2-1,0.5c-0.2,0.1-0.4,0.3-0.6,0.4
	c-0.3,0.4-0.6,0.8-0.7,1.2c0,0.1,0,0.1,0,0.2c0,0.4,0.3,0.7,0.5,0.9 M-475.3,528.3c0,0-0.9-0.6-1-0.6c-0.1,0-0.3,0-0.6-0.1
	c-0.3,0-0.6-0.1-0.7-0.1c-0.3,0-1.2,0.6-1.3,1.1c-0.1,0.6-0.5,2.1,0.9,2c0,0,0.5-0.3,0.8-0.5c0,0,0.1-0.1,0.1-0.1
	c0.2-0.2,1.2-0.8,1.4-0.8c0.1,0,0.6,0,1,0c0.3,0,0.5,0.1,0.6,0.2c0.2,0.2,0.3,1,0.4,1.1c0.1,0.1,0.9,0.8,0.9,0.8 M-467.9,534.4
	L-467.9,534.4l0.6,0.8l0.3,0.5c0,0,0.2,0.2,0.3,0.1c0.1,0,0.2-0.1,0.1-0.3c-0.1-0.2-0.3-0.7-0.3-0.7s-0.3-0.5-0.5-0.7l0.6,0.2
	l0.8,0.5c0,0,0.1,0,0.2-0.1c0-0.1,0-0.2-0.1-0.2c-0.1-0.1-0.6-0.8-0.6-0.8s-0.3-0.2-0.4-0.2c0,0-0.1-0.1-0.2-0.2
	c0-0.1-0.3-0.4-0.4-0.4c-0.1-0.1-0.6-0.4-0.7-0.4c-0.2,0-0.6-0.1-0.6-0.4c0-0.3,0.6-1.5,0.6-1.5l0.4-0.8c0,0,0.1-0.1,0.2-0.3
	c0.2-0.4,0.5-1,0.5-1.2c0,0,0.9-0.1,1-0.6c0-0.5,0.4-1.1-2.4-2.1c0,0-0.8,0.5-1.2,1.4c-0.2,0.4-0.4,0.9-0.6,1.5
	c-0.1,0.6-0.2,1.2-0.2,1.9c0,0.6,0,1.2,0.1,1.7 M-468.3,535L-468.3,535l0.6,1.3c0,0,0.2,0.1,0.2,0c0.1,0,0.1-0.1,0.1-0.2
	c0-0.1-0.1-0.5-0.1-0.5l-0.2-0.5l-0.1-0.3l-0.1-0.4 M-470.5,532.2c0.1,0.9,0.2,1.6,0.6,1.9c0,0,0.4,0.3,0.5,0.4c0,0,0.4,0.3,0.5,0.4
	c0,0.1,0.1,0.4,0.1,0.4c-0.1,0.1-0.3,0.2-0.3,0.2c0,0-0.1,0.3,0.1,0.3c0,0,0.1,0.1,0.1,0c0.1-0.1,0.2-0.1,0.3-0.1
	c0.1,0,0.4-0.2,0.5-0.3c0-0.2,0-0.3,0-0.3 M-473.3,525.8c0,0,0.1,0.1,0.3,0.3c0.6,0.6,1.9,2,2.5,2.4 M-477.1,530.2
	c0,0,0.1,0.8,0.4,1.2c0,0,0.1,0.1,0.1,0.1c0.4,0.4,1.4,1,2.6,1.1c1.3,0.1,2.7,0.3,3.5-0.5v0c0,0,0,0,0,0 M-476.6,531.5
	c0,0-0.3,1.5,0.6,2.4c0,0,0,0,0.1,0.1c1.1,0.9,2,1.9,3.2,2.5c1.2,0.6,3.9,1.7,4.2,1.8c0.1,0,0.2,0.1,0.3,0.1
	c0.5,0.2,1.5,0.6,1.7,0.8 M-476,534c0,0-0.2,0.2-0.2,0.5c0,0.3,0,0.8-0.2,1.3c-0.2,0.5-0.7,1.5-0.6,1.8c0,0.2,0.6,1.3,0.6,1.3
	c0,0.1,0.2,0.2,0.2,0.2c0,0,0.3,0,0.3,0c0,0,0.2,0,0.3,0c0.1,0,0.2-0.1,0.2-0.1c0-0.1,0-0.2,0.1-0.2c0.1,0,0.4-0.4,0.3-0.4
	c-0.1,0-0.3-0.1-0.4-0.1c-0.1,0-0.2,0-0.3-0.2c-0.1-0.1-0.1-0.2-0.1-0.3c0-0.1,0.2-0.2,0.3-0.3c0.1-0.1,1.2-0.9,1.4-0.8
	c0.2,0,0.6,0.1,0.8,0.3c0.2,0.2,1.7,1.5,2.1,1.6c0.3,0.2,1.7,1,2.4,1c0.7,0.1,1.9,0.3,2.4,0.5c0.5,0.1,1.6,0.4,2.1-0.2
	c0.5-0.5,0.7-0.6,0.7-0.9c0-0.3,0.2-1.3-0.1-1.8c-0.3-0.5-0.6-0.8-0.6-0.8 M-466.6,521.7c0,0,1.4,0.4,2.1,0.8c0,0,0,0,0,0
	c0.1,0.1,0.1,0.1,0.2,0.2 M-466.3,530.1c0,0,0.6,1.2,0.6,1.6c0,0.2,0.4,1.3,0.6,2.1c0.2,0.5,0.3,0.9,0.3,1c0.1,0.2,0.4,0.6,0.3,1.2
	c0,0,0,0.1,0,0.1c0,0.1-0.1,0.2-0.1,0.3c-0.5,0.9-0.6,2-3,1.9l-0.6-0.1 M-464.2,528.9c1.4-0.2,1.6-1.9,1.7-2.4
	c0-0.1-0.1-0.5-0.1-0.5s-0.1-0.5-0.2-1c-0.1-0.3-1.5-2.2-1.5-2.2 M-464.5,522.5c0,0-0.2-0.9,0.2-1c0,0,0,0,0,0
	c0.1-0.1,0.2-0.2,0.3-0.3c0.1-0.1,0.4-0.4,0.5-0.5c0.2,0,0.3-0.2,0.4-0.3c0.1-0.1,0.5-0.6,1-0.5c0.5,0.1,1.7,0.1,1.9,0.2
	c0.2,0.1,0.9,0.6,1,0.6c0,0,0.1,0,0.3,0c0.2,0,0.5,0.1,0.6,0.4c0,0,0.3,0.2,0,0.6c0,0,0.6,0.3,0.7,0.6c0.1,0.3,0.2,0.8-0.3,1
	c0,0-0.6,0.1-0.7,0.1c0,0,0-0.2-0.2-0.3c-0.1,0-0.3,0-0.4,0.1c-0.1,0.1-0.6,0.4-0.8,0.4c-0.1,0-0.4,0.1-0.4,0.2
	c0,0.1-0.1,0.3-0.6,0.5c0,0-1.8,0.4-1.8,0.4 M-462.4,525c0,0,0.2,0.4,0.4,0.6s0.9,0.5,1.3,0.4c0.2-0.1,0.2-0.2,0.3-0.2
	c0.1,0,0.3-0.2,0.4-0.2c0.1,0,0.3-0.3,0.3-0.3s0.5,0.1,0.5-0.2c0-0.3,0-0.9,0-0.9s0.4-0.2,0.4-0.7 M-460.2,525.6l-0.2-0.1
	 M-459.6,525.3c0,0-0.3-0.1-0.3-0.2 M-467.6,529.6c0,0,0.4,0.5,1.2,0.5v0c1-0.2,1.8-0.8,2.1-1.2c0.4-0.8,0.7-1.9-0.5-3.5
	 M-458.1,516.1c0,0.7,0.3,0.8,0.4,0.9c0.1,0.1,0.1,0.2,0.1,0.2s0.2,0,0.4-0.1c0.2-0.1,0.5-0.3,0.5-0.3c0.4-0.3,0.1-0.5,0.2-0.8
	c0.1-0.3-0.2-0.5-0.2-0.5s0.1,0,0.1-0.1c0-0.1-0.3-0.3-0.3-0.3c0,0,0-0.2,0-0.3c-0.1-0.1-0.1-0.5-0.1-0.5c0,0-0.1-0.3-0.1-0.3
	c-0.1-0.3-0.3-0.4-0.3-0.4c0-0.2-0.2-0.3-0.2-0.3c0.1-0.4-0.4-0.4-0.4-0.6c0-0.2-0.4-0.4-0.4-0.4c-0.2-0.3-0.6-0.3-0.6-0.3
	c-0.1,0-0.8,0.2-0.8,0.2s-0.3-0.1-0.6,0.1c0,0-0.6-0.1-1,0.5c0,0-0.3,0.2-0.5,0.5c0,0-0.5,1.5-0.6,2c-0.1,0.5,0,0.4-0.1,0.6
	c-0.1,0.2-1.1,1.2-0.6,1.5c0.5,0.4,0.7,0.4,0.8,0.7c0.1,0.2,1.6,0.4,1.9,0.3c0.3-0.1,0.5-1.2,0.5-1.2c0-0.2,0-0.5-0.1-0.8
	c0-0.1-0.1-0.3-0.1-0.4c-0.2-0.4-0.2-0.8-0.2-1c0-0.2-0.1-0.5-0.3-0.7c-0.1-0.2-0.4-0.4-0.3-0.8c0.1-0.4,0.4-0.9,0.5-1
	c0.2-0.1,0.6-0.3,1.4-0.1c0,0,0.3,0.3,0.4,0.3c0.1,0,0.3,0.2,0.5,0.3c0.2,0.1,0.2,0.3,0.2,0.4 M-457.7,514c0,0.1,0.1,0.9,0.1,1
	c0,0.1,0.2,0.7,0.1,0.8c-0.2,0.1-0.4,0.3-0.6,0.4c-1.4,0-2.2-0.3-2.2-0.3 M-463.3,517.4c0,0-2.2,1.3-1.8,4.8 M-459,518.3l0.1,2.5
	 M-463.2,533.3c0,0-0.2-3-0.1-3.5 M-460.4,509.2c0,0,0-0.8,0.2-1c0.2-0.1,0.4-0.4,0.7-0.4c0.1,0,0.2,0,0.3,0
	c0.4,0.2,1.5,0.7,1.8,1.3c0.2,0.4,0.1,0.7,0,0.8c-0.1,0.1-0.2,0.2-0.2,0.2c-0.2,0.1-0.7,0.2-0.7,0.2 M-455.4,504.9
	C-455.4,504.9-455.4,504.9-455.4,504.9 M-459.5,507.6c0,0-0.4-0.7,0.3-1.5c0.7-0.8,0.9-0.9,1.2-0.9c0.3,0,0.8-0.1,0.8-0.1
	s0.9-0.7,1.8-0.1 M-457.2,514.1c0,0,0.5-1.1,0.5-1.2c0,0,0.8-1.2,0-3.3c-0.1-0.3-0.6,0.3-0.7,0.3c0,0,0,0,0,0 M-452.2,511.4
	c0,0-0.1,0.6-0.2,0.6c-0.1,0-0.4-0.5-0.4-0.5l0.3-1l0.1-1.2l0-0.1l0.9-1.5c0-0.1-0.1-0.7-0.2-0.8c-0.1-0.1-0.4-0.5-0.5-0.6
	c0-0.1-0.1-0.6-0.1-0.6s-0.7,0.6-0.8,0.6c-0.2,0.1-0.7,0-0.8,0c-0.1,0-0.4,0.1-0.5,0.2c-0.1,0.2-0.3,0.6-0.4,0.7s-0.2,0.6-0.2,0.9
	c0,0.1-0.1,0.2-0.1,0.3c-0.1,0.1-0.1,0.2-0.2,0.3c-0.1,0.2,0,0.3,0.1,0.6s0,0.7-0.1,0.9c0,0.1-0.3,0.1-0.3,0.1
	c-0.1,0-0.3,0.2-0.3,0.2s0.1-0.4,0.1-0.5c0-0.1-0.2-0.6-0.3-0.8c-0.1-0.2-0.2-1.5-0.2-1.8c0-0.3,0.3-1.1,0.3-1.2
	c0-0.1,0.2-0.8,0.4-1c0.1-0.1,0.2-0.2,0.3-0.4v0c0.2-0.3,0.5-0.5,0.6-0.6c0.1-0.1,1-0.3,1-0.3s1.1-0.1,1.7,0.5c0,0,0.7,0,0.8,0.4
	c0.2,0.4,0.6,1.1,0.5,1.3c0,0.2-0.2,0.4-0.1,0.5c0,0.1,0,0.7-0.1,0.9c0,0,0,0,0,0.1c-0.1,0.1-0.1,0.3-0.1,0.4c0,0.1,0.2,0.6,0.1,0.7
	c-0.1,0.1-0.2,0.2-0.2,0.3c0,0.1,0,0.5-0.1,0.6c-0.1,0.1-0.2,0.3-0.2,0.4c0,0.1,0.1,0.7-0.1,0.9c-0.1,0.1-0.1,0.1-0.2,0.2v0
	c-0.1,0-0.1,0-0.2,0.1L-452.2,511.4z M-455,508.6c0,0,0.3,1.1,0.9,1.3c0,0,0.9,0,1.7-0.5 M-447.6,511.5c0,0,0-0.1,0-0.1
	 M-450.9,507.8c0,0,1.8,0.6,2.9,2.5c0,0,0.4,0.7,0.4,1.1c0,0.1,0,0.2,0,0.2 M-446.7,512.5c0,0-0.2-0.4-0.9-0.9
	c-0.3-0.2-0.7-0.5-1.1-0.6 M-451.8,511.3c0,0-0.3,1.2,1.4,2.4 M-454.8,517.3l-1.7-0.8 M-455.5,534.2c0.2-0.3,0.5-0.8,0.3-1.4
	c-0.3-1.1-0.2-1.3-0.1-1.6c0.1-0.2,1.4-1.8,2.4-3.5c0.1-0.2,0.2-0.4,0.3-0.5c0.4-0.8,0.6-1.6,0.6-2.2l0.8-1.8l0,0 M-457.3,538.1
	l-0.3,1.3l0.5-1.4l1-2.5l1.2,3.2l-0.7-4.6l0-0.5c0,0-0.5,0-0.7,0.4c-0.2,0.4-0.5,1.2-0.5,1.5c-0.1,0.3-0.2,0.5-0.2,0.6l0,0
	c-0.3,0-0.3-0.4-0.3-0.4l-0.1-1.7c-0.1-0.1-0.2-0.2-0.2-0.2c-0.2-0.3-0.1-0.7-0.1-1c0-0.4,0.4-0.9,0.6-1.4c0.1-0.3,0.3-1,0.5-1.6
	c0.2-0.8,0.5-1.6,0.5-1.6c0.1-1,0.3-1.7,0.5-2.3c0.4-1.1,0.8-1.4,0.9-1.5c0.1-0.1,0.4-0.8,0.4-0.8 M-457,536.2l-0.3,1.9
	 M-454.1,519.9c0,0-0.1,0.4-0.3,0.5c-0.1,0.1-0.8,1-0.7,1.5c0.1,0.6,0.4,1.6,0.4,1.6l0.3,0l2.6-0.3c0,0,0.2,0,0.4-0.1
	c0.2-0.1,0.6-0.2,0.7-0.4c0.3-0.4,1.2-1.8,1.2-1.8 M-461.5,539.1l4,1.3l7.5-2.1l-4.3-0.9l-2.7,0.6l-0.3,0.1L-461.5,539.1
	L-461.5,539.1 M-461.5,539.1l0,1.1l4.1,1.4l7.4-2.2v-1.1 M-457.5,540.4l0,1 M-454.6,518.1c0,0-0.2-0.2-0.2-0.4
	c0.1-0.2-0.2-0.7,0-0.8c0.1-0.1,0.1-0.4,0.3-0.6c0.1-0.1,0.2-0.2,0.3-0.3c0.5-0.1,0.3-0.6,0.7-0.7c0.4-0.1,0.7-0.4,0.8-0.4
	c0.1,0,0.6-0.2,0.7-0.2c0.1,0,0.2,0,0.4-0.1c0.2,0,0.4,0,0.5,0c0.1,0,0.3,0.2,0.5,0.2c0.2,0.1,0.3,0.1,0.4,0.1
	c0.2,0,0.8,0.3,0.9,0.3c0.1,0,0.5,0,0.5,0.2c0,0.1-0.1,0.3-0.1,0.3c0.1,0,0.3,0.2,0.3,0.2c0,0.1-0.1,0.3-0.1,0.4
	c0,0.1,0.3,0.4,0.3,0.6c0,0.1,0.1,0.3,0,0.4c-0.1,0.1-0.2,0.1-0.1,0.2c0.1,0.1,0,0.2-0.1,0.3c-0.1,0.1-0.2,0.2-0.2,0.3
	c-0.1,0.1-0.3,0.4-0.4,0.5c-0.1,0.1-0.4,0-0.4,0.2c0,0.1-0.4,0.3-0.5,0.2c-0.1,0-0.6,0.3-0.7,0.1c-0.1-0.2-0.1-0.5,0-0.7
	c0-0.1,0.2-0.2,0.2-0.3c0-0.1,0-0.2,0-0.3c0-0.1-0.3-0.3-0.1-0.5c0.2-0.2,0.6-1,0.7-1.2c0.1-0.2,0-0.4,0-0.5c0-0.1-0.6-0.3-0.7-0.4
	c-0.1,0-0.7-0.2-0.9-0.2c-0.1,0-0.6,0-0.7,0.1c-0.2,0.1-0.6,0.3-0.7,0.3c-0.1,0.1-0.4,0.4-0.4,0.4l-0.5,0.4c0,0-0.6,0.5-0.6,1.7
	c0,0.3,0,0.6,0,0.9c0,0,0.1,0.5,0.4,0.9c0.1,0.1,0.8,0.6,0.8,0.6s0.3,0.1,0.3,0.1c0.1,0,0.3,0.1,0.3,0.3c0.1,0.2,0.3,0.9,0.7,0.8
	l0.3-0.3c0,0,0.4,0.2,0.5,0.2c0.1,0,0.8,0.4,1.6-0.8c0.1-0.1,0.2-0.3,0.3-0.4c0,0,0.3-0.7,0.6-1.3c0.1,0,0.3-0.2,0.4-0.2
	c0.9-0.3,1.2-1.5,1.2-1.5s0-0.2,0-0.4 M-447.8,519.9c0,0.2-0.4,1.6-0.4,1.9c0,0.3-0.1,0.6,0.1,0.9c0.1,0.4,0.3,1.2,0.3,1.6
	c0,0.4-0.2,1.4-0.3,2c0,0.1,0,0.2-0.1,0.3l-0.1,0.3l-0.5,1.1c0,0-0.8,1.6-1,2c-0.1,0.4-0.8,1.6-0.1,3.4l0.3,1
	c0.5,1.5,0.6,1.6,1.2,1.7 M-447.2,530.7c0,0-0.2,2.5-0.6,3.2c-0.3,0.7-0.5,1.3-0.5,1.6c0,0.3-0.2,1-0.3,1.2
	c-0.1,0.1-0.2,0.3-0.2,0.6c0,0.1-0.1,0.3,0,0.4c0,0.4,0.1,0.7,0.3,0.7c0.3,0,0.7-0.1,0.7-0.1s0.4,0.1,0.6,0.2c0.2,0,0.4,0,0.6,0
	c0.1-0.1,0.4-0.2,0.6-0.3c0.1-0.1,0.5-0.4,0.5-0.7c0-0.2-0.6-1.1-0.6-1.1s0-0.1-0.1-0.3c-0.1-0.4-0.2-1.1,0-1.5
	c0.3-0.5,3.3-4.8,3.1-7.7 M-441.4,526.6c0,0-1-0.1-1.8,0.4v0c-0.2,0.1-0.3,0.2-0.4,0.4c-0.5,0.7-2.4,2.2-3.6,3.3
	c-0.4,0.3-0.8,0.6-1,0.8c-0.1,0.1-0.5,0.6-0.5,0.6s0.4-7.1,5.1-12.6 M-451.5,514.6c0,0,0.4-0.6,1.1-0.8c0.2-0.1,3.3-1.7,6.1-1.2
	 M-447.1,516.1c0-0.1,0.8-2.7,2.5-3.4c0.6-0.3,1.3-0.1,1.3-0.1c0.3,0.1,1.3-0.2,2.4,0.6l0.9-0.3c1.5-0.2,2.3,1.1,2.3,1.9
	c0,0.8-1.1,1.9-1.1,1.9l-1.1,0.9c-0.3,0.6-1.5,1.2-1.9,1.4c-0.5,0.4-1.1,0.4-1.7,0.3c-1.8-0.4-3.4-2.5-3.4-2.5 M-445.1,535
	c0,0,1.1,1.3,2.1,1.5 M-451.2,521.4l0.3-0.2 M-457.1,524.2c0,0-0.1-1.4-0.1-1.9c0-0.3,0.3-1.8,0.6-3 M-456,523.5
	c0,0-2.2,0.9-1.3,2.9 M-457.1,526.4c-0.4,0.5-0.4,0.5-0.4,0.6c0,0.1-0.2,0.9-0.2,1c0,0.1,0,0.3-0.1,0.4c-0.1,0-0.4,0.3-0.4,0.2
	c0-0.1-0.3-0.4-0.4-0.5c-0.1,0-0.3,0-0.2,0.1c0.1,0.2-0.5,0.1-0.1,0.4l0.4,0.3c0,0,0.4,0.3,0.6,0.4c0.2,0.1,0.6,0,0.8-0.3
	 M-457.1,526.4C-457.1,526.4-457.1,526.4-457.1,526.4 M-455.7,525.8c0,0-0.4-0.4-1,0.1c-0.4,0.4-0.5,0.4-0.5,0.4c0,0,0,0,0,0
	c0,0,0,0,0,0l0,0l0,0v0 M-457.3,527.8c0,0.1-0.1,0.7,0.2,0.7c0,0,0.3,0,0.3-0.3c0-0.3,0.2-0.5,0.2-0.6 M-457.1,528.6
	c0,0,0,0.2-0.1,0.5c0,0.2-0.1,0.4-0.1,0.5c-0.1,0.1-0.2,0.6-0.2,0.7c0,0,0.2,0.5,0.4,0.1l0.3-0.3l0.3-0.4 M-454.1,509.3
	c0,0,0.2,0.1,0.4,0.2 M-453.9,508.9c0,0,0,0.1,0.2,0.1 M-458.4,514.9c0,0,0.4-0.1,0.7-0.3 M-460.1,513.8c0,0,0.5-0.6,0.7-0.4
	 M-459.6,513.5L-459.6,513.5 M-459.8,524.4l-0.1,0.1 M-463.1,509.3l-0.1,0.2 M-454.1,507.9l0,0.1 M-452.5,508.4l0,0.2 M-451.7,520.3
	l0.1,0.1 M-452.2,520.4l1.1-0.2 M-442.7,519.5l-1,3.9 M-441.9,519.1c-6.2-1.7-2.2-5.8-1.5-6.4 M-463.4,509l0.7,0.4 M-454.4,507.6
	c0,0,0.4,0.2,0.8,0.2 M-452.8,508.3c0,0,0.4,0.2,0.8,0.2 M-459.5,524.4c0,0-0.5-0.1-0.6-0.3 M-464.8,514l0.3,0c0,0,0.7,0.1,0.7,0.1
	c0.1,0,0.7,0.1,0.7,0.1c0.1,0.2-0.3,0.3-0.3,0.3l-0.6,0.1l0.2,0.3c0.2,0.3-0.2,0.6-0.2,0.6c0.1,0.6-0.3,0.8-0.3,0.8
	c-0.6,0.4-1.2,0.1-1.6-0.2c-0.1-0.1-0.2-0.1-0.3-0.1c-0.4-0.2-0.3-0.6-0.3-0.9c0-0.4,0.2-0.7,0.3-0.9c0.1-0.1,0.6-0.3,0.6-0.3
	l0.4,0.1L-464.8,514L-464.8,514c0,0,0.2,0.3,0.1,0.4c-0.1,0.1-0.4,0.2-0.6,0.1l-0.1-0.1 M-457,508.3l0.4,1.5 M-439.8,536.5
	c0,0-2.4-0.5-2.5-4.3 M-464.5,532.1c0,0,2.2,2.3,2.9,2.4 M-460.3,528.7c-0.1,1.2-0.2,2-0.2,2c-0.2,1.6-1,3.8-1,3.8s0.9,0,1.7-0.3
	c0.8-0.3,1.3-0.9,2.1-0.5 M-452.6,527.1c1.1-0.3,2.1-0.4,2.9-0.5v0c0.9-0.1,1.4-0.1,1.4-0.1 M-452.7,527.1c0,0,0,2.5,0,2.7
	c0,0.2,0.1,1-0.2,1.4c-0.2,0.3-0.5,0.9-0.5,1.2c0,0.2,0,0.7,0,0.8c0,0.1-0.3,0.9-0.3,0.9s-0.1,0.6,0.5,0.7c0.6,0.1,1.4,0.1,1.7-0.1
	c0.3-0.2,0.6-0.5,0.5-0.7c-0.1-0.2-0.3-0.4-0.5-0.6c-0.2-0.2-0.3-0.6-0.3-0.8c0,0,0.1-0.3,0.1-0.5c0-0.1,0-0.7,0.1-0.9
	c0.1-0.2,1.2-1.7,1.2-1.7s0.5-0.7,0.7-2.8 M-458.8,509.9c0,0-0.1-0.2-0.2-0.3c-0.1-0.1-0.1-0.2-0.1-0.2c0-0.1-0.1-0.1,0-0.3
	c0.1-0.1,0.3,0,0.3,0c0,0,0.1,0.2,0.3,0.3c0.2,0.1,0.1,0,0.3,0.6c0,0.1,0,0.2,0,0.3c0,0.3-0.4,0.2-0.8,0.5c-0.5,0.3-1.1,0-1.1,0
	s-0.8-0.8-0.9-0.8c-0.1-0.1-0.1-0.1-0.2,0c-0.1,0.1,0,0.1-0.3,0.1c-0.3,0-0.5-0.2-0.5-0.3c0-0.1,0.4-0.3,0.4-0.3s0.5-0.3,1-0.3
	c0.1,0,0.2,0,0.2,0c0.4,0,0.6-0.1,0.9,0.1l0.5,0.3 M-480.2,526.9c0,0-1.3-0.3-1.4-0.5c0,0,0-0.1,0-0.2c0.1-0.1,0.3-0.3,0.4-0.4
	c0-0.1,0-0.1,0.2-0.4c0.2-0.4,0.5-1.1,0.5-1.1c0.3-0.7,0.2-0.8,0.2-0.8l0.3-3.8c0-1.7,1.1-2.7,1.1-2.7 M-472.2,517.2
	c0,0-2,0.3-4.1,0.2c-0.5,0-1.1-0.1-1.6-0.2c-0.3-0.1-0.6-0.1-0.9-0.2v0c-0.1,0-0.3-0.1-0.4-0.1c0,0-0.9,0.3-1.2,2.6
	c0,0-0.1,2.2-0.4,3.1c-0.5,1.2-1.8,2.4-1.8,2.4s-0.3,0.4,0.1,0.7l0.9,0.6 M-438.2,516.2c0.5,1.3,0.9,3.1,1.1,5.6
	c0.5,4.7-0.7,9-1.1,10.6c-0.4,1.6,0.2,3.8,0.9,4c0,0-2.7,0.3-3.9,0.3c-0.5,0-0.5,0-1.1,0c-1.9-0.1-3.8-0.2-3.9-0.3"/>
<path class="st4" d="M-448.3,531.5c0,0-1.2,1,0.6,1.5"/>
<path class="st3" d="M-438.4,520.2c0,0,0.3,1.7,0,3.6c-0.3,1.9,0.4,7.4,0.2,8.5"/>
<line class="st3" x1="-442.3" y1="515.3" x2="-441.3" y2="514.3"/>
<path class="st3" d="M-457.1,522.7c0,0,0.9-2.9,1.5-3.2 M-465.2,523.7c0,0,2.2,0.9,2.6,1.9 M-471.7,518.4c0,0-0.1,1,0.2,2.4
	c0.3,1.4,0.7,2.7,0.7,2.7 M-460.4,518.2c0,0,2.2,0.5,2.6-1.1 M-462.8,527.8c-0.1,0.5-0.1,1.1-0.5,2.1c0,0-0.2,0.5-0.4,1
	c-0.2,0.6-1.6,1.8-1.6,1.8 M-468.6,525.6c0,0,0.5-0.7,1.8-0.7c0,0,0.5,0,1,0 M-448.8,515.4c0,0,1.7-0.3,1.8,1.5 M-458.2,514.3
	c0.4-0.2,0.5-0.4,0.5-0.4s-0.6-0.4-0.9-0.5c-0.3-0.1,0-0.4,0-0.4 M-448.8,518.9c0,0-0.1,0.9-0.3,1.4 M-448.5,519.9l2.4-0.1
	c0,0,0.5-0.1,0.9-0.3 M-443.7,530.5c1.4,1.6,3,3.2,3,3.2 M-446.8,522.6c0,0,0,0.8,0.1,2"/>
<line class="st5" x1="-462.4" y1="525.3" x2="-462.6" y2="525.6"/>
<path class="st6" d="M-422.6,586.3c0.3,0.3,1.1,1.2,2.8,1.2c1.9,0,3-1.1,3-2.6c0-1.2-1-2-1.6-2.2v0c0.6-0.3,1.4-1.1,1.4-2.1
	c0-1.5-1.2-2.5-2.8-2.5c-1.5,0-2.5,1.2-2.5,1.2c-0.1,0.1-0.1,0.3,0,0.3l0.5,0.4c0.1,0.1,0.3,0.1,0.3,0c0.3-0.3,0.8-0.8,1.6-0.8
	c0.8,0,1.5,0.6,1.5,1.5c0,0.8-0.6,1.4-1.9,1.4h-0.8c-0.2,0-0.3,0.1-0.3,0.3v0.6c0,0.2,0.1,0.3,0.3,0.3h0.8c1.4,0,2.1,0.8,2.1,1.6
	c0,0.9-0.8,1.5-1.7,1.5c-1,0-1.7-0.7-1.8-0.8c-0.1-0.1-0.2-0.1-0.4,0l-0.5,0.5C-422.7,586.1-422.7,586.2-422.6,586.3 M-426.6,586.3
	c-1.5,0-2-1.5-1.9-2.7c0.1-0.2,0.8-1,1.8-1c1,0,1.8,0.8,1.8,1.8C-424.9,585.5-425.7,586.3-426.6,586.3 M-429.8,583.7
	c0,2.1,1,3.8,3.2,3.8c1.6,0,3-1.4,3-3.1c0-1.9-1.4-2.9-2.8-2.9c-0.9,0-1.7,0.4-1.8,0.5c0.4-1.7,2.6-2.8,3.2-3
	c0.3-0.1,0.3-0.2,0.2-0.4l-0.2-0.6c-0.1-0.1-0.2-0.2-0.3-0.2C-426.6,578.4-429.8,580-429.8,583.7 M-436,585c0-0.7,0.6-1.5,1.7-1.6
	c1.1,0.2,1.7,0.9,1.7,1.6c0,0.9-0.8,1.5-1.7,1.5C-435.2,586.4-436,585.8-436,585 M-434.3,582.1c-1-0.2-1.5-0.7-1.5-1.4
	c0-0.8,0.7-1.4,1.5-1.4c0.9,0,1.5,0.6,1.5,1.4C-432.8,581.3-433.3,581.9-434.3,582.1 M-437.4,584.9c0,1.5,1.2,2.6,3.1,2.6
	c1.9,0,3.1-1.1,3.1-2.6c0-1.2-1-2-1.6-2.2v-0.1c0.6-0.3,1.4-1,1.4-2.1c0-1.5-1.2-2.5-2.9-2.5c-1.6,0-2.8,1-2.8,2.5
	c0,1,0.8,1.8,1.4,2.1v0C-436.3,582.9-437.4,583.8-437.4,584.9 M-443.8,587.4h4.7c0.1,0,0.3-0.1,0.3-0.2v-0.6c0-0.1-0.1-0.3-0.3-0.3
	h-1.5v-7.8c0-0.1-0.1-0.3-0.2-0.3h-0.7l-2,1.8c-0.1,0.1-0.1,0.2,0,0.3l0.2,0.5c0,0.1,0.2,0.1,0.3,0.1l1.2-0.6v6h-1.9
	c-0.1,0-0.3,0.1-0.3,0.3v0.6C-444.1,587.3-444,587.4-443.8,587.4 M-456.1,582.7c0-1.9,1.6-3.5,3.5-3.5c1.9,0,3.5,1.6,3.5,3.5
	c0,1.9-1.6,3.5-3.5,3.5C-454.5,586.2-456.1,584.6-456.1,582.7 M-457.4,582.7c0,2.7,2.1,4.8,4.8,4.8c2.7,0,4.8-2.1,4.8-4.8
	c0-2.7-2.2-4.8-4.8-4.8C-455.3,577.8-457.4,580-457.4,582.7 M-467.2,587.1c0,0.1,0.1,0.3,0.3,0.3h0.8c0.1,0,0.3-0.1,0.3-0.3v-6.5h0
	l5.8,6.9h0.4c0.1,0,0.3-0.1,0.3-0.2v-9c0-0.1-0.1-0.3-0.3-0.3h-0.9c-0.1,0-0.3,0.1-0.3,0.3v6.4h0l-5.8-6.7h-0.3
	c-0.1,0-0.3,0.1-0.3,0.2V587.1z M-474.6,584.2l1.6-3.7h0.1l1.7,3.7H-474.6z M-477.1,587.4h0.8c0.2,0,0.3-0.1,0.3-0.2
	c0.3-0.6,0.6-1.2,0.8-1.8h4.4l0.8,1.8c0.1,0.1,0.1,0.2,0.3,0.2h0.8c0.2,0,0.3-0.2,0.2-0.3l-4.1-9c0-0.1-0.2-0.1-0.2-0.1h-0.1
	c-0.1,0-0.2,0.1-0.2,0.1l-4.1,9C-477.4,587.2-477.3,587.4-477.1,587.4 M-483.4,587.1c0,0.1,0.1,0.3,0.3,0.3h4.8
	c0.1,0,0.3-0.1,0.3-0.3v-0.7c0-0.1-0.1-0.3-0.3-0.3h-3.6v-7.9c0-0.1-0.1-0.3-0.3-0.3h-0.9c-0.1,0-0.3,0.1-0.3,0.3V587.1z
	 M-487.4,587.1c0,0.1,0.1,0.3,0.3,0.3h0.9c0.1,0,0.3-0.1,0.3-0.3v-8.9c0-0.1-0.1-0.3-0.3-0.3h-0.9c-0.1,0-0.3,0.1-0.3,0.3V587.1z
	 M-499.8,587.1c0,0.2,0.1,0.3,0.3,0.3h0.9c0.1,0,0.2-0.1,0.2-0.2l1-6h0.1l2.4,6.2c0,0.1,0.1,0.1,0.2,0.1h0.2c0.1,0,0.2-0.1,0.2-0.1
	l2.4-6.2h0l1,6c0,0.1,0.1,0.2,0.3,0.2h0.9c0.2,0,0.3-0.1,0.2-0.3l-1.7-9c0-0.1-0.1-0.2-0.2-0.2h-0.2c-0.1,0-0.2,0.1-0.2,0.1
	l-2.8,6.9h-0.1l-2.8-6.9c0-0.1-0.1-0.1-0.2-0.1h-0.2c-0.1,0-0.2,0.1-0.2,0.2L-499.8,587.1z"/>
<path class="st6" d="M-407.5,564.9c0-2.4,2-4.4,4.4-4.4c2.4,0,4.4,2,4.4,4.4c0,2.4-2,4.4-4.4,4.4
	C-405.5,569.3-407.5,567.3-407.5,564.9 M-410,564.9c0,3.8,3.1,6.9,6.9,6.9s6.9-3.1,6.9-6.9c0-3.8-3.1-6.9-6.9-6.9
	S-410,561-410,564.9 M-423.4,564.9c0,3.8,3.1,6.9,6.9,6.9c1.7,0,3.4-0.6,4.7-1.9c0.1-0.1,0.2-0.4,0-0.5l-1.2-1.2
	c-0.1-0.1-0.3-0.1-0.5,0c-0.8,0.7-1.8,1.1-2.9,1.1c-2.5,0-4.3-2-4.3-4.4c0-2.4,1.8-4.5,4.3-4.5c1.1,0,2.1,0.4,3,1.1
	c0.2,0.2,0.3,0.2,0.5,0l1.2-1.2c0.2-0.2,0.2-0.4,0-0.5c-1.3-1.2-2.7-1.8-4.6-1.8C-420.3,558-423.4,561-423.4,564.9 M-428.4,571.2
	c0,0.2,0.2,0.4,0.4,0.4h1.8c0.2,0,0.4-0.2,0.4-0.4v-12.7c0-0.2-0.2-0.4-0.4-0.4h-1.8c-0.2,0-0.4,0.2-0.4,0.4V571.2z M-443,571.2
	c0,0.2,0.2,0.4,0.4,0.4h1.7c0.2,0,0.4-0.2,0.4-0.4V563h0l8,8.8h0.5c0.2,0,0.4-0.2,0.4-0.3v-12.9c0-0.2-0.2-0.4-0.4-0.4h-1.8
	c-0.2,0-0.4,0.2-0.4,0.4v7.9h0l-8-8.5h-0.5c-0.2,0-0.4,0.2-0.4,0.3V571.2z M-457.2,564.9c0,3.8,3.1,6.9,6.9,6.9
	c1.7,0,3.4-0.6,4.7-1.9c0.1-0.1,0.2-0.4,0-0.5l-1.2-1.2c-0.1-0.1-0.3-0.1-0.5,0c-0.8,0.7-1.8,1.1-2.9,1.1c-2.5,0-4.3-2-4.3-4.4
	c0-2.4,1.8-4.5,4.3-4.5c1.1,0,2.1,0.4,3,1.1c0.2,0.2,0.3,0.2,0.5,0l1.2-1.2c0.2-0.2,0.2-0.4,0-0.5c-1.3-1.2-2.7-1.8-4.6-1.8
	C-454.1,558-457.2,561-457.2,564.9 M-467.7,571.2c0,0.2,0.2,0.4,0.4,0.4h7.8c0.2,0,0.4-0.2,0.4-0.4v-1.6c0-0.2-0.2-0.4-0.4-0.4h-5.7
	v-3.4h4.7c0.2,0,0.4-0.2,0.4-0.4V564c0-0.2-0.2-0.4-0.4-0.4h-4.7v-3.1h5.7c0.2,0,0.4-0.2,0.4-0.4v-1.6c0-0.2-0.2-0.4-0.4-0.4h-7.8
	c-0.2,0-0.4,0.2-0.4,0.4V571.2z M-475.7,571.2c0,0.2,0.2,0.4,0.4,0.4h1.8c0.2,0,0.4-0.2,0.4-0.4v-10.8h2.9c0.2,0,0.4-0.2,0.4-0.4
	v-1.6c0-0.2-0.2-0.4-0.4-0.4h-8.4c-0.2,0-0.4,0.2-0.4,0.4v1.6c0,0.2,0.2,0.4,0.4,0.4h2.9V571.2z M-483.9,571.2
	c0,0.2,0.2,0.4,0.4,0.4h1.8c0.2,0,0.4-0.2,0.4-0.4v-12.7c0-0.2-0.2-0.4-0.4-0.4h-1.8c-0.2,0-0.4,0.2-0.4,0.4V571.2z M-494.2,571.2
	c0,0.2,0.2,0.4,0.4,0.4h7c0.2,0,0.4-0.2,0.4-0.4v-1.6c0-0.2-0.2-0.4-0.4-0.4h-4.9v-10.8c0-0.2-0.2-0.4-0.4-0.4h-1.8
	c-0.2,0-0.4,0.2-0.4,0.4V571.2z M-507.5,564.9c0-2.4,2-4.4,4.4-4.4c2.4,0,4.4,2,4.4,4.4c0,2.4-2,4.4-4.4,4.4
	C-505.5,569.3-507.5,567.3-507.5,564.9 M-510,564.9c0,3.8,3.1,6.9,6.9,6.9c3.8,0,6.9-3.1,6.9-6.9c0-3.8-3.1-6.9-6.9-6.9
	C-507,558-510,561-510,564.9 M-518.1,564.4v-3.9h2.2c1.1,0,2,0.8,2,1.9c0,1.1-0.9,2-2,2H-518.1z M-520.6,571.2
	c0,0.2,0.2,0.4,0.4,0.4h1.8c0.2,0,0.4-0.2,0.4-0.4v-4.5h2.4c2.3,0,4.3-1.9,4.3-4.3c0-2.3-1.9-4.2-4.3-4.2h-4.5
	c-0.2,0-0.4,0.2-0.4,0.4V571.2z"/>
<rect x="-616.3" y="509" class="st6" width="41" height="60.3"/>
</svg>
