<?xml version="1.0" encoding="utf-8"?>
<!-- Generator: Adobe Illustrator 19.1.0, SVG Export Plug-In . SVG Version: 6.00 Build 0)  -->
<svg version="1.1" id="Livello_1" xmlns="http://www.w3.org/2000/svg" xmlns:xlink="http://www.w3.org/1999/xlink" x="0px" y="0px"
	 viewBox="-311 185 400 400" style="enable-background:new -311 185 400 400;" xml:space="preserve">
<style type="text/css">
	.st0{fill:#FD6D4D;stroke:#1D1D1D;stroke-miterlimit:10;}
	.st1{fill:none;}
	.st2{enable-background:new    ;}
	.st3{fill:#FFFFFF;}
	.st4{fill:#EDE7DE;stroke:#515153;stroke-miterlimit:10;}
	.st5{fill:#1D1D1D;}
	.st6{fill:#44B3C2;stroke:#5D4C46;stroke-miterlimit:10;}
	.st7{fill:#FD6D4D;stroke:#515153;stroke-miterlimit:10;}
	.st8{fill:#515153;}
	.st9{fill:none;stroke:#515153;stroke-width:0.5;stroke-linecap:round;stroke-miterlimit:10;}
</style>
<circle class="st0" cx="-160.8" cy="381.7" r="22.7"/>
<rect x="-177.8" y="374.7" class="st1" width="33.9" height="18"/>
<g class="st2">
	<path class="st3" d="M-174.3,382.1c0-1,0.2-1.9,0.5-2.8s0.8-1.6,1.4-2.2s1.3-1.1,2.1-1.4c0.8-0.3,1.7-0.5,2.6-0.5
		c1,0,1.8,0.2,2.7,0.5c0.8,0.3,1.5,0.8,2.1,1.4c0.6,0.6,1,1.3,1.4,2.2c0.3,0.8,0.5,1.8,0.5,2.8c0,1-0.2,1.9-0.5,2.8
		c-0.3,0.8-0.8,1.6-1.4,2.2c-0.6,0.6-1.3,1.1-2.1,1.5c-0.8,0.4-1.7,0.5-2.7,0.5c-1,0-1.9-0.2-2.7-0.5c-0.8-0.4-1.5-0.8-2.1-1.5
		c-0.6-0.6-1-1.4-1.3-2.2C-174.2,384-174.3,383.1-174.3,382.1z M-172.3,381.5c0,0.8,0.1,1.7,0.3,2.4c0.2,0.8,0.5,1.5,0.9,2.1
		c0.4,0.6,0.9,1.1,1.6,1.5c0.6,0.4,1.3,0.5,2.1,0.5c0.7,0,1.2-0.1,1.8-0.4c0.5-0.3,0.9-0.7,1.3-1.2c0.4-0.5,0.6-1.1,0.8-1.7
		c0.2-0.7,0.3-1.4,0.3-2.1c0-0.9-0.1-1.7-0.4-2.5c-0.3-0.8-0.6-1.5-1-2.1c-0.4-0.6-1-1-1.6-1.4c-0.6-0.3-1.3-0.5-2-0.5
		c-0.6,0-1.1,0.1-1.6,0.4c-0.5,0.3-0.9,0.6-1.3,1.1c-0.4,0.5-0.7,1-0.9,1.7S-172.3,380.7-172.3,381.5z"/>
	<path class="st3" d="M-154.4,375.3c0.2-0.1,0.5-0.1,0.8-0.1l4.8,10.9c0.2,0.4,0.3,0.7,0.4,0.9c0.1,0.2,0.2,0.4,0.4,0.6
		c0.1,0.1,0.2,0.2,0.3,0.3c0.1,0.1,0.2,0.1,0.4,0.1c0.1,0.2,0.1,0.3,0.1,0.4c0,0.1,0,0.3,0,0.4c-0.1,0-0.3,0-0.4,0
		c-0.2,0-0.4,0-0.6,0l-0.7,0h-0.6c-0.2,0-0.3,0-0.6,0s-0.4,0-0.6,0c-0.2,0-0.4,0-0.6,0c-0.2,0-0.3,0-0.4,0c0-0.2,0-0.3,0-0.5
		c0-0.1,0.1-0.3,0.1-0.4c0.3,0,0.5-0.1,0.6-0.1c0.2-0.1,0.3-0.1,0.3-0.2c0.1-0.1,0.1-0.3,0-0.5s-0.1-0.4-0.3-0.7l-0.9-2
		c-0.9,0-1.8,0-2.7,0c-0.9,0-1.8,0-2.6,0.1l-0.5,1.4c-0.3,0.8-0.4,1.3-0.3,1.6c0.1,0.3,0.5,0.5,1,0.5c0.1,0.2,0.1,0.5,0.1,0.9
		c-0.2,0-0.5,0-0.9,0c-0.4,0-0.7,0-1,0c-0.3,0-0.6,0-0.9,0c-0.3,0-0.5,0-0.7,0c0-0.1,0-0.3,0-0.4s0.1-0.3,0.1-0.4
		c0.2,0,0.3-0.1,0.5-0.2c0.1-0.1,0.3-0.2,0.4-0.4s0.2-0.4,0.4-0.6s0.2-0.6,0.4-1L-154.4,375.3z M-156.7,383.6h4.5l-1.5-3.6
		c-0.1-0.2-0.2-0.4-0.2-0.6c-0.1-0.2-0.1-0.3-0.2-0.5c-0.1-0.2-0.1-0.4-0.2-0.5c-0.1-0.2-0.1-0.3-0.2-0.5c-0.1,0.4-0.3,0.8-0.4,1.1
		c-0.1,0.3-0.2,0.7-0.4,1L-156.7,383.6z"/>
</g>
<circle class="st4" cx="-60.8" cy="381.7" r="22.7"/>
<rect x="-81.7" y="374.7" class="st1" width="39.6" height="18"/>
<g>
	<g>
		<path class="st5" d="M-74,375.2c0.7,0,1.4,0.1,1.9,0.3c0.5,0.2,0.9,0.4,1.2,0.6c0,0.4,0,0.8,0,1.3c0,0.5,0,0.9,0.1,1.3
			c-0.1,0.1-0.3,0.1-0.5,0.1c-0.2,0-0.4,0-0.6,0c-0.1-0.6-0.2-1-0.4-1.4c-0.1-0.4-0.3-0.7-0.5-0.9c-0.2-0.2-0.4-0.4-0.6-0.4
			c-0.2-0.1-0.5-0.1-0.7-0.1c-0.6,0-1.1,0.2-1.4,0.5s-0.5,0.8-0.5,1.5c0,0.6,0.2,1.1,0.5,1.4s0.7,0.7,1.2,1s1,0.6,1.5,0.8
			s1,0.6,1.5,0.9c0.5,0.3,0.8,0.8,1.2,1.2c0.3,0.5,0.5,1.1,0.5,1.8c0,0.5-0.1,1-0.3,1.4s-0.5,0.9-0.8,1.2c-0.4,0.3-0.8,0.6-1.3,0.8
			s-1,0.3-1.6,0.3c-0.5,0-0.9,0-1.2-0.1c-0.4,0-0.7-0.1-1-0.2c-0.3-0.1-0.6-0.2-0.9-0.4c-0.3-0.2-0.6-0.4-1-0.6
			c0.1-0.5,0.1-1,0.2-1.5c0-0.5,0-0.9,0-1.3c0.1,0,0.3-0.1,0.5-0.1c0.2,0,0.4,0,0.6,0c0,0.5,0.1,1,0.2,1.4c0.1,0.4,0.3,0.7,0.5,1
			s0.5,0.5,0.9,0.7c0.4,0.2,0.8,0.2,1.4,0.2c0.4,0,0.7-0.1,1-0.2s0.5-0.3,0.7-0.5c0.2-0.2,0.3-0.4,0.4-0.6c0.1-0.2,0.2-0.5,0.2-0.8
			c0-0.6-0.2-1.1-0.5-1.5s-0.7-0.7-1.2-1s-1-0.5-1.5-0.8s-1-0.5-1.5-0.9s-0.8-0.8-1.1-1.3c-0.3-0.5-0.5-1.2-0.5-2
			c0-0.5,0.1-1,0.3-1.4c0.2-0.4,0.4-0.8,0.8-1.1c0.3-0.3,0.7-0.6,1.2-0.7C-75.1,375.3-74.6,375.2-74,375.2z"/>
		<path class="st5" d="M-56.9,383.5c0,0.6,0,1.1,0,1.5c0,0.4-0.1,0.8-0.2,1.2c-0.1,0.4-0.2,0.7-0.4,0.9s-0.3,0.5-0.6,0.8
			c-0.4,0.4-0.9,0.7-1.4,0.9s-1.2,0.3-1.8,0.3c-0.9,0-1.7-0.1-2.3-0.3c-0.6-0.2-1.1-0.5-1.5-0.9c-0.4-0.4-0.7-0.9-0.8-1.5
			c-0.2-0.6-0.2-1.3-0.2-2.1v-6.4c0-0.4,0-0.6,0-0.9s-0.1-0.4-0.2-0.5c-0.1-0.1-0.2-0.2-0.4-0.3c-0.2-0.1-0.3-0.1-0.6-0.1
			c0-0.1-0.1-0.3-0.1-0.4c0-0.1,0-0.3,0-0.4c0.3,0,0.6,0,1,0c0.4,0,0.9,0,1.3,0s0.8,0,1.2,0c0.4,0,0.8,0,1.1,0c0,0.1,0,0.3,0,0.4
			c0,0.1,0,0.3-0.1,0.4c-0.3,0-0.5,0.1-0.7,0.1c-0.2,0-0.3,0.1-0.4,0.2c-0.1,0.1-0.2,0.3-0.2,0.5c0,0.2-0.1,0.5-0.1,0.9v6.1
			c0,0.6,0.1,1.1,0.2,1.6c0.1,0.5,0.3,0.9,0.5,1.3c0.3,0.4,0.6,0.6,1,0.8c0.4,0.2,1,0.3,1.7,0.3c0.3,0,0.7-0.1,1.1-0.2
			c0.4-0.1,0.7-0.3,1-0.6c0.2-0.2,0.3-0.3,0.4-0.5c0.1-0.2,0.2-0.4,0.3-0.7c0.1-0.3,0.1-0.6,0.1-1c0-0.4,0.1-0.8,0.1-1.4v-5
			c0-0.5,0-0.9-0.1-1.2s-0.1-0.6-0.2-0.8c-0.1-0.2-0.2-0.3-0.4-0.4c-0.2-0.1-0.4-0.1-0.7-0.2c0-0.2-0.1-0.4-0.1-0.5
			c0-0.1,0-0.2,0-0.4c0.2,0,0.5,0,0.9,0c0.4,0,0.7,0,1,0s0.6,0,1,0c0.3,0,0.7,0,0.9,0c0,0.1,0,0.2,0,0.3c0,0.1,0,0.3-0.1,0.5
			c-0.2,0-0.4,0.1-0.6,0.2c-0.2,0.1-0.3,0.2-0.4,0.4c-0.1,0.2-0.2,0.4-0.2,0.8s0,0.7,0,1.2V383.5z"/>
		<path class="st5" d="M-51.3,375.4c0.5,0,1,0,1.4,0c0.5,0,1,0,1.4,0c0.6,0,1.1,0,1.6,0.1c0.5,0.1,1,0.2,1.4,0.5
			c0.4,0.2,0.7,0.5,0.9,0.9c0.2,0.4,0.3,0.9,0.3,1.4c0,0.9-0.3,1.6-0.8,2.2c-0.5,0.6-1.2,1-2.1,1.1c0.5,0,1,0.1,1.5,0.2
			c0.5,0.1,0.9,0.3,1.2,0.6c0.4,0.3,0.6,0.6,0.9,1c0.2,0.4,0.3,0.9,0.3,1.6c0,0.5-0.1,1.1-0.3,1.5c-0.2,0.5-0.5,0.9-0.9,1.2
			c-0.4,0.4-0.9,0.6-1.5,0.8c-0.6,0.2-1.3,0.3-2.2,0.3h-1.3c-0.5,0-1,0-1.6,0c-0.5,0-1,0-1.5,0c-0.5,0-0.8,0-1.1,0
			c0-0.4,0-0.7,0.1-0.9c0.3,0,0.5,0,0.7-0.1c0.2-0.1,0.3-0.2,0.4-0.3c0.1-0.1,0.2-0.3,0.2-0.6c0-0.2,0.1-0.6,0.1-1v-8.2
			c0-0.7-0.1-1.1-0.3-1.3c-0.2-0.2-0.6-0.4-1.1-0.4c0-0.1-0.1-0.2-0.1-0.4c0-0.2,0-0.3,0-0.5c0.3,0,0.6,0,1,0
			C-52,375.4-51.6,375.4-51.3,375.4z M-49.7,376.2c-0.1,0-0.2,0-0.3,0.1v5.1h0.6c0.6,0,1.2-0.1,1.6-0.2c0.4-0.1,0.7-0.3,1-0.6
			s0.4-0.5,0.5-0.8c0.1-0.3,0.1-0.6,0.1-0.9c0-0.5-0.1-1-0.3-1.3s-0.4-0.6-0.7-0.8c-0.3-0.2-0.6-0.3-1-0.4s-0.7-0.1-1-0.1
			C-49.4,376.2-49.5,376.2-49.7,376.2z M-50,382.3v3.9c0,0.4,0,0.7,0.1,1c0.1,0.2,0.1,0.4,0.3,0.6c0.1,0.1,0.3,0.2,0.6,0.3
			c0.2,0,0.5,0.1,0.9,0.1c1,0,1.7-0.2,2.2-0.7s0.7-1.2,0.7-2.1c0-0.6-0.1-1.1-0.4-1.5c-0.3-0.4-0.6-0.7-1-0.9
			c-0.4-0.2-0.9-0.4-1.4-0.4s-1-0.1-1.5-0.1H-50z"/>
	</g>
</g>
<path class="st6" d="M-111.5,227.8C-111.5,227.8-111.6,227.8-111.5,227.8C-111.6,227.8-111.6,227.8-111.5,227.8L-111.5,227.8
	L-111.5,227.8z"/>
<path class="st6" d="M-111.5,227.8L-111.5,227.8c0.1,0,0.1,0,0.2,0C-111.4,227.8-111.5,227.8-111.5,227.8z"/>
<path class="st4" d="M-44.7,242.7L-44.7,242.7c-0.1-0.1-0.3-0.1-0.4-0.2c-0.2-0.1-0.4-0.2-0.7-0.3H-46c-19.5-8.9-42-14.4-66-14.4
	v35.1c19,0,37,4.6,52.2,11.6C-19.7,293.7,8.1,334.6,8.1,382c0,10-1.2,19.7-3.5,29l34.2,8.1c2.9-11.9,4.5-24.3,4.5-37
	C43.3,320.5,7.3,267.5-44.7,242.7z"/>
<path class="st7" d="M-60,489.7c-15.2,7-33,11.4-50.9,11.4c-65.8,0-119.1-53.5-119.1-119.3c0-65.7,52.8-118.3,118.5-119.3h-0.4v-35
	h0.5c-85,0-153.8,69.3-153.8,154.4c0,85.2,69.1,154.3,154.3,154.3c23.9,0,47.9-6.1,68.2-15.8l0,0c0.3-0.1,0.6-0.3,0.8-0.4
	c0.2-0.1,0.3-0.1,0.5-0.2l0,0c39.7-20,69.5-56.6,80.4-100.7L4.8,411C-4.1,445.8-28.2,474.6-60,489.7z"/>
<g>
	<rect x="-299.2" y="219.2" class="st1" width="104.9" height="24.6"/>
	<path class="st8" d="M-293.7,223.4c0.3,0,0.7,0,1,0.1c0.4,0.1,0.7,0.2,1,0.4c0.3,0.2,0.5,0.5,0.7,0.8c0.2,0.3,0.3,0.7,0.3,1.2
		c0,0.3,0,0.6-0.1,0.8c-0.1,0.3-0.2,0.5-0.4,0.8c-0.2,0.3-0.4,0.5-0.7,0.8c-0.3,0.3-0.6,0.6-1,1c-0.3,0.3-0.7,0.7-1.2,1.1
		c-0.4,0.4-0.8,0.8-1.3,1.2h2.9c0.3,0,0.5,0,0.7,0c0.2,0,0.3-0.1,0.4-0.2c0.1-0.1,0.2-0.2,0.2-0.4c0-0.2,0.1-0.4,0.1-0.7
		c0.4,0,0.7,0,0.9,0.1c0,0.5,0,0.9,0,1.3c0,0.4,0.1,0.8,0.2,1.1c-0.1,0.1-0.1,0.2-0.2,0.3c-0.1,0.1-0.2,0.1-0.4,0.1
		c-0.6,0-1.3,0-1.9,0c-0.6,0-1.3,0-2,0h-0.8c-0.3,0-0.6,0-0.9,0c-0.3,0-0.6,0-0.9,0c-0.3,0-0.5,0-0.7,0c-0.1-0.1-0.2-0.2-0.2-0.4
		c0-0.1-0.1-0.3-0.1-0.5c0.6-0.5,1.2-1.1,1.7-1.6c0.6-0.5,1.1-1,1.7-1.5c0.4-0.3,0.7-0.6,0.9-0.9c0.2-0.3,0.4-0.6,0.6-0.8
		c0.2-0.3,0.3-0.5,0.3-0.8s0.1-0.6,0.1-0.9c0-0.2,0-0.5-0.1-0.7c-0.1-0.2-0.2-0.4-0.4-0.5c-0.2-0.2-0.3-0.3-0.6-0.4
		s-0.4-0.1-0.7-0.1c-0.6,0-1,0.2-1.3,0.6c-0.3,0.4-0.5,1-0.6,2c-0.2,0-0.4,0-0.6,0c-0.2,0-0.4-0.1-0.5-0.1c0-0.2,0-0.4,0-0.6
		c0-0.2,0-0.5,0-0.7c0-0.2,0-0.5,0-0.7c0-0.2,0-0.4-0.1-0.6c0.3-0.2,0.5-0.3,0.8-0.4s0.5-0.2,0.8-0.3c0.3-0.1,0.6-0.1,1-0.2
		C-294.5,223.4-294.1,223.4-293.7,223.4z"/>
	<path class="st8" d="M-282.4,223.4c0.7,0,1.3,0.1,1.9,0.3c0.6,0.2,1.2,0.5,1.6,1s0.9,1,1.2,1.6c0.3,0.6,0.4,1.3,0.4,2.1
		c0,0.8-0.1,1.5-0.4,2.2c-0.3,0.7-0.7,1.2-1.1,1.7c-0.5,0.5-1,0.8-1.6,1.1c-0.6,0.2-1.3,0.4-2,0.4c-0.7,0-1.4-0.1-2-0.4
		s-1.2-0.6-1.7-1.1c-0.5-0.5-0.9-1-1.2-1.7s-0.4-1.4-0.4-2.2c0-0.8,0.2-1.5,0.5-2.1c0.3-0.6,0.7-1.2,1.2-1.6s1.1-0.8,1.7-1
		C-283.7,223.5-283.1,223.4-282.4,223.4z M-283,224.4c-0.5,0-0.9,0.1-1.2,0.3c-0.4,0.2-0.7,0.5-0.9,0.8c-0.2,0.3-0.4,0.7-0.5,1.2
		c-0.1,0.4-0.2,0.9-0.2,1.5c0,0.5,0.1,1,0.3,1.5c0.2,0.5,0.4,1,0.8,1.4c0.3,0.4,0.8,0.8,1.2,1.1c0.5,0.3,1,0.4,1.7,0.4
		c0.5,0,0.9-0.1,1.2-0.3c0.3-0.2,0.6-0.5,0.9-0.8c0.2-0.3,0.4-0.7,0.5-1.2c0.1-0.4,0.2-0.9,0.2-1.4c0-0.5-0.1-0.9-0.2-1.5
		s-0.4-1-0.7-1.4c-0.3-0.4-0.7-0.8-1.2-1.1C-281.8,224.6-282.4,224.4-283,224.4z"/>
	<path class="st8" d="M-270.4,223.4c0.7,0,1.3,0.1,1.9,0.3c0.6,0.2,1.2,0.5,1.6,1s0.9,1,1.2,1.6c0.3,0.6,0.4,1.3,0.4,2.1
		c0,0.8-0.1,1.5-0.4,2.2c-0.3,0.7-0.7,1.2-1.1,1.7c-0.5,0.5-1,0.8-1.6,1.1c-0.6,0.2-1.3,0.4-2,0.4c-0.7,0-1.4-0.1-2-0.4
		s-1.2-0.6-1.7-1.1c-0.5-0.5-0.9-1-1.2-1.7s-0.4-1.4-0.4-2.2c0-0.8,0.2-1.5,0.5-2.1c0.3-0.6,0.7-1.2,1.2-1.6s1.1-0.8,1.7-1
		C-271.7,223.5-271,223.4-270.4,223.4z M-271,224.4c-0.5,0-0.9,0.1-1.2,0.3c-0.4,0.2-0.7,0.5-0.9,0.8c-0.2,0.3-0.4,0.7-0.5,1.2
		c-0.1,0.4-0.2,0.9-0.2,1.5c0,0.5,0.1,1,0.3,1.5c0.2,0.5,0.4,1,0.8,1.4c0.3,0.4,0.8,0.8,1.2,1.1c0.5,0.3,1,0.4,1.7,0.4
		c0.5,0,0.9-0.1,1.2-0.3c0.3-0.2,0.6-0.5,0.9-0.8c0.2-0.3,0.4-0.7,0.5-1.2c0.1-0.4,0.2-0.9,0.2-1.4c0-0.5-0.1-0.9-0.2-1.5
		s-0.4-1-0.7-1.4c-0.3-0.4-0.7-0.8-1.2-1.1C-269.8,224.6-270.4,224.4-271,224.4z"/>
	<path class="st8" d="M-252.5,230.5c0,0.6,0.1,1.1,0.2,1.3c0.1,0.2,0.5,0.3,0.9,0.3c0,0.1,0,0.3,0,0.5c0,0.2-0.1,0.3-0.1,0.5
		c-0.3,0.1-0.7,0.1-1.1,0.2c-0.4,0.1-0.7,0.2-1,0.4c-0.1-0.1-0.2-0.2-0.3-0.3c-0.1-0.1-0.2-0.4-0.2-0.7c0-0.2,0-0.4,0-0.5
		s0-0.2,0-0.3c-0.1,0.2-0.1,0.3-0.2,0.5c-0.1,0.2-0.3,0.4-0.5,0.6c-0.2,0.2-0.5,0.4-0.8,0.5c-0.3,0.1-0.7,0.2-1.2,0.2
		c-0.9,0-1.5-0.2-2-0.6c-0.4-0.4-0.6-0.9-0.6-1.6c0-0.7,0.2-1.2,0.6-1.6c0.4-0.4,0.8-0.7,1.4-1s1.1-0.4,1.7-0.5s1.1-0.2,1.5-0.3
		c0-0.4,0-0.8,0-1c0-0.3,0-0.5-0.1-0.7c0-0.2-0.1-0.3-0.1-0.5s-0.1-0.2-0.2-0.3c-0.3-0.4-0.7-0.6-1.3-0.6c-0.3,0-0.6,0.1-0.8,0.2
		c-0.2,0.2-0.4,0.4-0.5,0.6c-0.1,0.2-0.2,0.5-0.3,0.8s-0.1,0.5-0.1,0.7c-0.1,0-0.3,0-0.6,0c-0.2,0-0.4-0.1-0.5-0.1
		c0-0.3,0-0.7,0-1.1c0-0.4-0.1-0.8-0.1-1.1c0.5-0.3,1.1-0.5,1.7-0.6c0.6-0.2,1.2-0.2,1.8-0.2c0.5,0,0.8,0.1,1.2,0.2
		c0.3,0.1,0.6,0.3,0.9,0.6c0.2,0.2,0.3,0.4,0.4,0.6c0.1,0.2,0.2,0.4,0.2,0.7c0.1,0.3,0.1,0.6,0.1,0.9s0,0.8,0,1.2V230.5z
		 M-254.3,229c-0.3,0-0.7,0.1-1.1,0.2c-0.4,0.1-0.7,0.2-1,0.3c-0.3,0.1-0.6,0.4-0.8,0.6c-0.2,0.3-0.3,0.6-0.3,1.1
		c0,0.5,0.1,0.9,0.4,1.1c0.2,0.2,0.5,0.3,0.8,0.3c0.2,0,0.4-0.1,0.7-0.2c0.2-0.1,0.5-0.3,0.6-0.5c0.2-0.2,0.4-0.5,0.5-0.9
		c0.1-0.4,0.2-0.8,0.2-1.3V229z"/>
	<path class="st8" d="M-246.6,227.6c-0.1,0.3-0.1,0.6-0.2,0.9v2.1c0,0.4,0,0.8,0.1,1.1c0.1,0.3,0.2,0.5,0.3,0.6
		c0.1,0.2,0.3,0.3,0.6,0.3c0.2,0.1,0.5,0.1,0.8,0.1c0.1,0.2,0.1,0.5,0.1,0.9c-0.3,0-0.7,0-1.1-0.1s-0.9,0-1.4,0h-0.7
		c-0.3,0-0.5,0-0.7,0c-0.2,0-0.5,0-0.7,0c-0.2,0-0.4,0-0.5,0c0-0.4,0-0.7,0.1-0.9c0.5,0,0.9-0.2,1.1-0.4c0.2-0.2,0.3-0.7,0.3-1.4v-4
		c0-0.2,0-0.4-0.1-0.6c0-0.2-0.1-0.3-0.2-0.4c-0.1-0.1-0.3-0.2-0.5-0.3s-0.5-0.1-0.8-0.1c0-0.1,0-0.3,0-0.4c0-0.1,0.1-0.2,0.1-0.3
		c0.2,0,0.4,0,0.7-0.1c0.2,0,0.5-0.1,0.7-0.2c0.2-0.1,0.5-0.1,0.7-0.2c0.2-0.1,0.4-0.1,0.6-0.2c0.1,0,0.2,0.1,0.3,0.2
		c0.1,0.1,0.1,0.3,0.1,0.6c0,0.5,0,0.9-0.1,1.2l-0.2,0.8c0.1-0.2,0.1-0.4,0.2-0.5c0.1-0.2,0.2-0.4,0.3-0.6c0.3-0.5,0.6-0.9,1-1.2
		c0.4-0.3,0.9-0.5,1.4-0.5c0.3,0,0.5,0,0.7,0.1c0.2,0.1,0.4,0.2,0.6,0.4c-0.1,0.3-0.1,0.7-0.1,1.2s0,0.8,0,1.2
		c-0.1,0-0.3,0.1-0.5,0.1c-0.2,0-0.4,0.1-0.6,0.1c0-0.6-0.1-1.1-0.3-1.3c-0.2-0.2-0.4-0.3-0.7-0.3c-0.2,0-0.4,0.1-0.6,0.2
		c-0.2,0.1-0.4,0.4-0.6,0.6C-246.4,226.9-246.5,227.2-246.6,227.6z"/>
	<path class="st8" d="M-240.6,224.6v-2.6c0.3-0.1,0.5-0.2,0.8-0.3c0.3-0.1,0.5-0.3,0.7-0.5c0.1,0,0.1,0.1,0.2,0.1
		c0,0,0.1,0.1,0.1,0.2c0,0.1,0,0.2,0,0.3c0,0.1,0,0.3,0,0.5v2.4h2.6c0,0.3-0.1,0.6-0.2,0.9c-1,0-1.8,0.1-2.4,0.3v5
		c0,0.7,0.1,1.2,0.3,1.5c0.2,0.3,0.5,0.5,0.8,0.5c0.3,0,0.5,0,0.7-0.1s0.4-0.2,0.6-0.4c0.2,0.2,0.3,0.4,0.3,0.7
		c-0.2,0.3-0.6,0.5-1,0.6c-0.4,0.2-0.9,0.3-1.3,0.3c-0.8,0-1.4-0.2-1.8-0.6c-0.4-0.4-0.6-1.1-0.6-2v-5.4c-0.2-0.1-0.4-0.1-0.6-0.2
		c-0.2,0-0.5-0.1-0.8-0.1c0-0.2,0-0.3,0-0.4c0-0.1,0.1-0.3,0.1-0.4H-240.6z"/>
	<path class="st8" d="M-231.4,231c0,0.7,0.1,1.1,0.3,1.4s0.5,0.4,0.9,0.4c0,0.1,0.1,0.3,0.1,0.5c0,0.2,0,0.3,0,0.4
		c-0.3,0-0.7,0-1.1-0.1c-0.4,0-0.8,0-1.2,0s-0.8,0-1.2,0c-0.4,0-0.8,0-1.1,0.1c0-0.1,0-0.3,0-0.4c0-0.2,0-0.3,0.1-0.4
		c0.5,0,0.9-0.1,1.1-0.4c0.2-0.2,0.3-0.7,0.3-1.4v-4c0-0.2,0-0.4,0-0.6c0-0.2-0.1-0.3-0.2-0.4c-0.1-0.1-0.3-0.2-0.5-0.3
		s-0.5-0.1-0.8-0.1c0-0.1,0-0.3,0-0.4c0-0.1,0.1-0.2,0.1-0.3c0.1,0,0.3,0,0.6-0.1c0.3,0,0.5-0.1,0.8-0.1s0.5-0.1,0.8-0.2
		c0.2-0.1,0.4-0.2,0.5-0.2c0.1,0,0.2,0.1,0.3,0.2c0.1,0.1,0.1,0.3,0.1,0.6V231z M-233.6,220.8c0-0.4,0.1-0.7,0.4-0.9
		c0.2-0.2,0.5-0.3,0.8-0.3c0.4,0,0.6,0.1,0.9,0.3c0.2,0.2,0.3,0.5,0.3,0.9c0,0.3-0.1,0.6-0.4,0.8c-0.2,0.2-0.5,0.4-0.9,0.4
		c-0.3,0-0.6-0.1-0.9-0.3C-233.5,221.4-233.6,221.1-233.6,220.8z"/>
	<path class="st8" d="M-221.1,232c-0.4,0.6-0.8,1-1.3,1.3c-0.5,0.3-1.2,0.4-1.9,0.4c-0.5,0-1-0.1-1.5-0.3c-0.5-0.2-0.9-0.5-1.3-0.9
		c-0.4-0.4-0.7-0.9-0.9-1.5c-0.2-0.6-0.4-1.3-0.4-2.1c0-0.6,0.1-1.2,0.3-1.8c0.2-0.6,0.4-1.1,0.8-1.5c0.4-0.5,0.8-0.8,1.3-1.1
		c0.5-0.3,1.1-0.4,1.8-0.4c1.3,0,2.3,0.3,3,0.9c-0.1,0.4-0.1,0.8-0.1,1.1c0,0.4,0,0.8,0,1.1c-0.1,0.1-0.2,0.1-0.4,0.1
		c-0.2,0-0.3,0-0.5,0c-0.1-0.8-0.3-1.4-0.7-1.8c-0.4-0.4-0.9-0.6-1.4-0.6c-0.7,0-1.2,0.3-1.6,0.9s-0.6,1.5-0.6,2.6
		c0,0.5,0.1,1,0.2,1.5c0.1,0.5,0.3,0.9,0.5,1.2c0.2,0.4,0.5,0.6,0.9,0.9c0.4,0.2,0.8,0.3,1.2,0.3c0.9,0,1.6-0.4,2.2-1.2
		c0.1,0.1,0.2,0.1,0.3,0.2S-221.2,231.8-221.1,232z"/>
	<path class="st8" d="M-219.6,228.9c0-0.7,0.1-1.3,0.3-1.9c0.2-0.6,0.5-1.1,0.9-1.5s0.9-0.8,1.4-1c0.6-0.2,1.2-0.4,1.8-0.4
		c0.7,0,1.3,0.1,1.9,0.3c0.6,0.2,1,0.5,1.4,1c0.4,0.4,0.7,0.9,0.9,1.5c0.2,0.6,0.3,1.2,0.3,1.9c0,0.7-0.1,1.3-0.3,1.9
		c-0.2,0.6-0.5,1.1-0.9,1.5s-0.9,0.8-1.4,1c-0.6,0.2-1.2,0.4-1.9,0.4c-0.7,0-1.3-0.1-1.9-0.3s-1-0.5-1.4-1c-0.4-0.4-0.7-0.9-0.9-1.5
		C-219.5,230.3-219.6,229.7-219.6,228.9z M-217.6,228.5c0,1.4,0.2,2.4,0.7,3.1c0.5,0.7,1.1,1.1,1.9,1.1c0.8,0,1.4-0.3,1.8-1
		s0.6-1.5,0.6-2.6c0-0.6-0.1-1.2-0.2-1.7c-0.1-0.5-0.3-0.9-0.6-1.3c-0.2-0.4-0.5-0.6-0.9-0.8c-0.3-0.2-0.7-0.3-1-0.3
		c-0.8,0-1.4,0.3-1.7,0.9C-217.4,226.7-217.6,227.5-217.6,228.5z"/>
	<path class="st8" d="M-208,222c0-0.2,0-0.4,0-0.6c0-0.2-0.1-0.3-0.2-0.4c-0.1-0.1-0.3-0.2-0.5-0.3s-0.5-0.1-0.8-0.1
		c0-0.1,0-0.3,0-0.4c0-0.1,0.1-0.2,0.1-0.3c0.1,0,0.3,0,0.6-0.1c0.3,0,0.5-0.1,0.8-0.1s0.5-0.1,0.8-0.2c0.2-0.1,0.4-0.2,0.5-0.2
		c0.1,0,0.2,0.1,0.3,0.2c0.1,0.1,0.1,0.3,0.1,0.6v11c0,0.7,0.1,1.1,0.3,1.4s0.5,0.4,0.9,0.4c0,0.1,0.1,0.3,0.1,0.5
		c0,0.2,0,0.3,0,0.4c-0.3,0-0.7,0-1.1-0.1c-0.4,0-0.8,0-1.2,0s-0.8,0-1.2,0c-0.4,0-0.8,0-1.1,0.1c0-0.1,0-0.3,0-0.4
		c0-0.2,0-0.3,0.1-0.4c0.5,0,0.9-0.1,1.1-0.4c0.2-0.2,0.3-0.7,0.3-1.4V222z"/>
	<path class="st8" d="M-200.2,231c0,0.7,0.1,1.1,0.3,1.4s0.5,0.4,0.9,0.4c0,0.1,0.1,0.3,0.1,0.5c0,0.2,0,0.3,0,0.4
		c-0.3,0-0.7,0-1.1-0.1c-0.4,0-0.8,0-1.2,0s-0.8,0-1.2,0c-0.4,0-0.8,0-1.1,0.1c0-0.1,0-0.3,0-0.4c0-0.2,0-0.3,0.1-0.4
		c0.5,0,0.9-0.1,1.1-0.4c0.2-0.2,0.3-0.7,0.3-1.4v-4c0-0.2,0-0.4,0-0.6c0-0.2-0.1-0.3-0.2-0.4c-0.1-0.1-0.3-0.2-0.5-0.3
		s-0.5-0.1-0.8-0.1c0-0.1,0-0.3,0-0.4c0-0.1,0.1-0.2,0.1-0.3c0.1,0,0.3,0,0.6-0.1c0.3,0,0.5-0.1,0.8-0.1s0.5-0.1,0.8-0.2
		c0.2-0.1,0.4-0.2,0.5-0.2c0.1,0,0.2,0.1,0.3,0.2c0.1,0.1,0.1,0.3,0.1,0.6V231z M-202.4,220.8c0-0.4,0.1-0.7,0.4-0.9
		c0.2-0.2,0.5-0.3,0.8-0.3c0.4,0,0.6,0.1,0.9,0.3c0.2,0.2,0.3,0.5,0.3,0.9c0,0.3-0.1,0.6-0.4,0.8c-0.2,0.2-0.5,0.4-0.9,0.4
		c-0.3,0-0.6-0.1-0.9-0.3C-202.3,221.4-202.4,221.1-202.4,220.8z"/>
</g>
<g>
	<rect x="-0.9" y="218.4" class="st1" width="88.3" height="35.9"/>
	<path class="st8" d="M1.9,226.7c0.3-0.2,0.7-0.5,1-0.7c-0.7-0.5-1.3-0.9-1.6-1.4c-0.5-0.5-0.7-1.1-0.7-1.8c0-0.4,0.1-0.7,0.2-1.1
		s0.4-0.7,0.7-0.9c0.3-0.3,0.6-0.5,1.1-0.7c0.4-0.2,0.9-0.2,1.5-0.2c1.1,0,2,0.2,2.7,0.7s1,1.1,1,2c0,0.4-0.1,0.8-0.2,1.1
		c-0.2,0.3-0.3,0.6-0.6,0.8s-0.5,0.5-0.8,0.7c-0.2,0.1-0.4,0.3-0.7,0.4c0.2,0.1,0.4,0.3,0.6,0.4c0.5,0.3,0.9,0.7,1.2,1.1
		c0.3,0.4,0.6,0.7,0.7,1.1c0.2,0.4,0.2,0.9,0.2,1.3c0,0.5-0.1,1-0.3,1.4s-0.5,0.8-0.8,1c-0.4,0.3-0.8,0.5-1.3,0.7
		c-0.5,0.2-1,0.2-1.6,0.2c-0.6,0-1.1-0.1-1.6-0.2c-0.5-0.2-0.9-0.4-1.2-0.6c-0.3-0.3-0.6-0.6-0.8-1s-0.3-0.8-0.3-1.1
		c0-0.5,0.1-0.9,0.2-1.3c0.1-0.4,0.3-0.7,0.6-1C1.2,227.3,1.5,227,1.9,226.7z M5.6,228.1c-0.5-0.5-1.1-1-1.9-1.6
		c-0.3,0.2-0.5,0.4-0.8,0.6c-0.2,0.2-0.4,0.5-0.6,0.7c-0.1,0.3-0.2,0.5-0.3,0.8C2,229,2,229.3,2,229.7c0,0.4,0.1,0.8,0.2,1.1
		s0.3,0.5,0.6,0.7c0.2,0.2,0.5,0.3,0.8,0.4c0.3,0.1,0.6,0.1,0.9,0.1c0.2,0,0.4,0,0.6-0.1c0.2-0.1,0.4-0.2,0.6-0.4s0.4-0.4,0.5-0.6
		c0.1-0.3,0.2-0.6,0.2-1C6.4,229.3,6.1,228.6,5.6,228.1z M4.4,225c0.1,0.1,0.2,0.1,0.3,0.2c0.4-0.3,0.7-0.6,0.9-0.9
		c0.2-0.4,0.3-0.8,0.3-1.4c0-0.7-0.2-1.2-0.5-1.6s-0.8-0.5-1.2-0.5c-0.5,0-0.9,0.1-1.2,0.4s-0.5,0.7-0.5,1.3c0,0.5,0.1,1,0.4,1.3
		C3.2,224.2,3.7,224.6,4.4,225z"/>
	<path class="st8" d="M14.1,230.2c0,0.3,0,0.6,0.1,0.8c0,0.2,0.1,0.4,0.2,0.5c0.1,0.1,0.2,0.2,0.4,0.3c0.2,0.1,0.4,0.1,0.7,0.1
		c0,0.1,0.1,0.3,0.1,0.4c0,0.1,0,0.3,0,0.4c-0.2,0-0.4,0-0.6,0l-0.7,0h-1.1c-0.4,0-0.8,0-1.2,0c-0.4,0-0.8,0-1.2,0.1
		c0-0.1,0-0.3,0-0.4c0-0.1,0-0.3,0.1-0.4c0.5,0,0.9-0.2,1.1-0.4s0.3-0.7,0.3-1.4v-4.9c0-0.3,0-0.6-0.1-0.8s-0.1-0.4-0.2-0.5
		s-0.2-0.2-0.4-0.3c-0.2-0.1-0.4-0.1-0.7-0.1c-0.1-0.3-0.1-0.6-0.1-0.9c0.2,0,0.3,0,0.5,0c0.2,0,0.4,0,0.6,0s0.4,0,0.6,0h0.6
		c0.4,0,0.9,0,1.3,0s0.8,0,1.1-0.1c0,0.3,0,0.6-0.1,0.9c-0.5,0-0.9,0.2-1.1,0.4c-0.2,0.2-0.3,0.7-0.3,1.3V230.2z"/>
	<path class="st8" d="M29,229.7c0,0.6,0.1,1.1,0.2,1.3c0.1,0.2,0.5,0.3,0.9,0.3c0,0.1,0,0.3,0,0.5c0,0.2-0.1,0.3-0.1,0.5
		c-0.3,0.1-0.7,0.1-1.1,0.2c-0.4,0.1-0.7,0.2-1,0.4c-0.1-0.1-0.2-0.2-0.3-0.3s-0.2-0.4-0.2-0.7c0-0.2,0-0.4,0-0.5c0-0.1,0-0.2,0-0.3
		c-0.1,0.2-0.1,0.3-0.2,0.5c-0.1,0.2-0.3,0.4-0.5,0.6c-0.2,0.2-0.5,0.4-0.8,0.5c-0.3,0.1-0.7,0.2-1.2,0.2c-0.9,0-1.5-0.2-2-0.6
		c-0.4-0.4-0.7-0.9-0.7-1.6c0-0.7,0.2-1.2,0.6-1.6s0.8-0.7,1.4-1s1.1-0.4,1.7-0.5s1.1-0.2,1.5-0.3c0-0.4,0-0.8,0-1
		c0-0.3,0-0.5-0.1-0.7c0-0.2-0.1-0.3-0.1-0.5c-0.1-0.1-0.1-0.2-0.2-0.3c-0.3-0.4-0.7-0.6-1.3-0.6c-0.3,0-0.6,0.1-0.8,0.2
		c-0.2,0.2-0.4,0.4-0.5,0.6s-0.2,0.5-0.3,0.8c-0.1,0.3-0.1,0.5-0.1,0.7c-0.1,0-0.3,0-0.5,0s-0.4-0.1-0.5-0.1c0-0.3,0-0.7,0-1.1
		c0-0.4-0.1-0.8-0.1-1.1c0.5-0.3,1.1-0.5,1.7-0.6s1.2-0.2,1.8-0.2c0.5,0,0.8,0.1,1.2,0.2c0.3,0.1,0.6,0.3,0.9,0.6
		c0.2,0.2,0.3,0.4,0.4,0.6s0.2,0.4,0.2,0.7c0.1,0.3,0.1,0.6,0.1,0.9c0,0.3,0,0.8,0,1.2V229.7z M27.2,228.2c-0.3,0-0.7,0.1-1.1,0.2
		c-0.4,0.1-0.7,0.2-1,0.3c-0.3,0.1-0.6,0.4-0.8,0.6c-0.2,0.3-0.3,0.6-0.3,1.1c0,0.5,0.1,0.9,0.4,1.1c0.2,0.2,0.5,0.3,0.8,0.3
		c0.2,0,0.4-0.1,0.7-0.2c0.2-0.1,0.5-0.3,0.7-0.5c0.2-0.2,0.4-0.5,0.5-0.9c0.1-0.4,0.2-0.8,0.2-1.3V228.2z"/>
	<path class="st8" d="M34.9,226.8c-0.1,0.3-0.1,0.6-0.2,0.9v2.1c0,0.4,0,0.8,0.1,1.1c0.1,0.3,0.2,0.5,0.3,0.6
		c0.1,0.2,0.3,0.3,0.6,0.3c0.2,0.1,0.5,0.1,0.8,0.1c0.1,0.2,0.1,0.5,0.1,0.9c-0.3,0-0.7,0-1.1-0.1s-0.9,0-1.4,0h-0.7
		c-0.3,0-0.5,0-0.7,0c-0.2,0-0.5,0-0.7,0c-0.2,0-0.4,0-0.5,0c0-0.4,0-0.7,0.1-0.9c0.5,0,0.9-0.2,1.1-0.4s0.3-0.7,0.3-1.4v-4
		c0-0.2,0-0.4,0-0.6c0-0.2-0.1-0.3-0.2-0.4c-0.1-0.1-0.3-0.2-0.5-0.3s-0.5-0.1-0.8-0.1c0-0.1,0-0.3,0-0.4c0-0.1,0.1-0.2,0.1-0.3
		c0.2,0,0.4,0,0.7-0.1c0.2,0,0.5-0.1,0.7-0.2s0.5-0.1,0.7-0.2s0.4-0.1,0.6-0.2c0.1,0,0.2,0.1,0.3,0.2s0.1,0.3,0.1,0.6
		c0,0.5,0,0.9-0.1,1.2l-0.2,0.8c0.1-0.2,0.1-0.4,0.2-0.5c0.1-0.2,0.2-0.4,0.3-0.6c0.3-0.5,0.6-0.9,1-1.2c0.4-0.3,0.9-0.5,1.4-0.5
		c0.3,0,0.5,0,0.7,0.1c0.2,0.1,0.4,0.2,0.6,0.4c-0.1,0.3-0.1,0.7-0.1,1.2c0,0.4,0,0.8,0,1.2c-0.1,0-0.3,0.1-0.5,0.1
		s-0.4,0.1-0.6,0.1c0-0.6-0.1-1.1-0.3-1.3c-0.2-0.2-0.4-0.3-0.7-0.3c-0.2,0-0.4,0.1-0.6,0.2c-0.2,0.1-0.4,0.4-0.6,0.6
		C35.2,226.1,35,226.4,34.9,226.8z"/>
	<path class="st8" d="M40.9,223.8v-2.6c0.3-0.1,0.5-0.2,0.8-0.3c0.3-0.1,0.5-0.3,0.7-0.5c0.1,0,0.1,0.1,0.2,0.1c0,0,0.1,0.1,0.1,0.2
		s0,0.2,0,0.3c0,0.1,0,0.3,0,0.5v2.4h2.6c0,0.3-0.1,0.6-0.2,0.9c-1,0-1.8,0.1-2.4,0.3v5c0,0.7,0.1,1.2,0.3,1.5
		c0.2,0.3,0.5,0.5,0.8,0.5c0.3,0,0.5,0,0.7-0.1c0.2-0.1,0.4-0.2,0.6-0.4c0.2,0.2,0.3,0.4,0.3,0.7c-0.2,0.3-0.6,0.5-1,0.6
		c-0.4,0.2-0.9,0.3-1.3,0.3c-0.8,0-1.4-0.2-1.8-0.6s-0.6-1.1-0.6-2v-5.4c-0.2-0.1-0.4-0.1-0.6-0.2c-0.2,0-0.5-0.1-0.8-0.1
		c0-0.2,0-0.3,0-0.4c0-0.1,0.1-0.3,0.1-0.4H40.9z"/>
	<path class="st8" d="M50.1,230.2c0,0.7,0.1,1.1,0.3,1.4c0.2,0.2,0.5,0.4,0.9,0.4c0,0.1,0.1,0.3,0.1,0.5c0,0.2,0,0.3,0,0.4
		c-0.3,0-0.7,0-1.1-0.1s-0.8,0-1.2,0s-0.8,0-1.2,0c-0.4,0-0.8,0-1.1,0.1c0-0.1,0-0.3,0-0.4c0-0.2,0-0.3,0.1-0.4
		c0.5,0,0.9-0.1,1.1-0.4c0.2-0.2,0.3-0.7,0.3-1.4v-4c0-0.2,0-0.4,0-0.6c0-0.2-0.1-0.3-0.2-0.4c-0.1-0.1-0.3-0.2-0.5-0.3
		s-0.5-0.1-0.8-0.1c0-0.1,0-0.3,0-0.4c0-0.1,0.1-0.2,0.1-0.3c0.1,0,0.3,0,0.6-0.1c0.3,0,0.5-0.1,0.8-0.1s0.5-0.1,0.8-0.2
		s0.4-0.2,0.5-0.2c0.1,0,0.2,0.1,0.3,0.2c0.1,0.1,0.1,0.3,0.1,0.6V230.2z M47.9,220c0-0.4,0.1-0.7,0.4-0.9c0.2-0.2,0.5-0.3,0.8-0.3
		c0.4,0,0.7,0.1,0.9,0.3c0.2,0.2,0.3,0.5,0.3,0.9c0,0.3-0.1,0.6-0.3,0.8c-0.2,0.2-0.5,0.4-0.9,0.4c-0.3,0-0.6-0.1-0.8-0.3
		C48,220.6,47.9,220.3,47.9,220z"/>
	<path class="st8" d="M60.4,231.2c-0.4,0.6-0.8,1-1.3,1.3c-0.5,0.3-1.2,0.4-1.9,0.4c-0.5,0-1-0.1-1.5-0.3c-0.5-0.2-0.9-0.5-1.3-0.9
		c-0.4-0.4-0.7-0.9-0.9-1.5c-0.2-0.6-0.4-1.3-0.4-2.1c0-0.6,0.1-1.2,0.3-1.8c0.2-0.6,0.4-1.1,0.8-1.5c0.4-0.5,0.8-0.8,1.3-1.1
		c0.5-0.3,1.1-0.4,1.8-0.4c1.3,0,2.3,0.3,3,0.9c-0.1,0.4-0.1,0.8-0.1,1.1c0,0.4,0,0.8,0,1.1c-0.1,0.1-0.2,0.1-0.4,0.1
		c-0.2,0-0.3,0-0.5,0c-0.1-0.8-0.3-1.4-0.7-1.8c-0.4-0.4-0.9-0.6-1.4-0.6c-0.7,0-1.2,0.3-1.6,0.9s-0.6,1.5-0.6,2.6
		c0,0.5,0.1,1,0.2,1.5s0.3,0.9,0.5,1.2c0.2,0.4,0.5,0.6,0.9,0.9c0.4,0.2,0.8,0.3,1.2,0.3c0.9,0,1.6-0.4,2.2-1.2
		c0.1,0.1,0.2,0.1,0.3,0.2C60.3,230.9,60.4,231,60.4,231.2z"/>
	<path class="st8" d="M61.9,228.1c0-0.7,0.1-1.3,0.3-1.9c0.2-0.6,0.5-1.1,0.9-1.5c0.4-0.4,0.9-0.8,1.4-1c0.6-0.2,1.2-0.4,1.8-0.4
		c0.7,0,1.3,0.1,1.9,0.3c0.6,0.2,1,0.5,1.4,1c0.4,0.4,0.7,0.9,0.9,1.5c0.2,0.6,0.3,1.2,0.3,1.9c0,0.7-0.1,1.3-0.3,1.9
		c-0.2,0.6-0.5,1.1-0.9,1.5c-0.4,0.4-0.9,0.8-1.4,1c-0.6,0.2-1.2,0.4-1.8,0.4s-1.3-0.1-1.9-0.3c-0.6-0.2-1-0.5-1.4-1
		c-0.4-0.4-0.7-0.9-0.9-1.5C62,229.5,61.9,228.9,61.9,228.1z M63.9,227.7c0,1.4,0.2,2.4,0.7,3.1c0.5,0.7,1.1,1.1,1.9,1.1
		c0.8,0,1.4-0.3,1.8-1s0.6-1.5,0.6-2.6c0-0.6-0.1-1.2-0.2-1.7s-0.3-0.9-0.6-1.3c-0.2-0.4-0.5-0.6-0.9-0.8c-0.3-0.2-0.7-0.3-1-0.3
		c-0.8,0-1.3,0.3-1.7,0.9C64.1,225.9,63.9,226.7,63.9,227.7z"/>
	<path class="st8" d="M73.5,221.2c0-0.2,0-0.4,0-0.6c0-0.2-0.1-0.3-0.2-0.4s-0.3-0.2-0.5-0.3s-0.5-0.1-0.8-0.1c0-0.1,0-0.3,0-0.4
		c0-0.1,0.1-0.2,0.1-0.3c0.1,0,0.3,0,0.6-0.1c0.3,0,0.5-0.1,0.8-0.1s0.5-0.1,0.8-0.2c0.2-0.1,0.4-0.2,0.5-0.2c0.1,0,0.2,0.1,0.3,0.2
		s0.1,0.3,0.1,0.6v11c0,0.7,0.1,1.1,0.3,1.4c0.2,0.2,0.5,0.4,0.9,0.4c0,0.1,0.1,0.3,0.1,0.5c0,0.2,0,0.3,0,0.4c-0.3,0-0.7,0-1.1-0.1
		c-0.4,0-0.8,0-1.2,0s-0.8,0-1.2,0s-0.8,0-1.1,0.1c0-0.1,0-0.3,0-0.4c0-0.2,0-0.3,0.1-0.4c0.5,0,0.9-0.1,1.1-0.4s0.3-0.7,0.3-1.4
		V221.2z"/>
	<path class="st8" d="M81.4,230.2c0,0.7,0.1,1.1,0.3,1.4c0.2,0.2,0.5,0.4,0.9,0.4c0,0.1,0.1,0.3,0.1,0.5c0,0.2,0,0.3,0,0.4
		c-0.3,0-0.7,0-1.1-0.1c-0.4,0-0.8,0-1.2,0s-0.8,0-1.2,0s-0.8,0-1.1,0.1c0-0.1,0-0.3,0-0.4c0-0.2,0-0.3,0.1-0.4
		c0.5,0,0.9-0.1,1.1-0.4s0.3-0.7,0.3-1.4v-4c0-0.2,0-0.4,0-0.6c0-0.2-0.1-0.3-0.2-0.4s-0.3-0.2-0.5-0.3s-0.5-0.1-0.8-0.1
		c0-0.1,0-0.3,0-0.4c0-0.1,0.1-0.2,0.1-0.3c0.1,0,0.3,0,0.6-0.1c0.3,0,0.5-0.1,0.8-0.1s0.5-0.1,0.8-0.2c0.2-0.1,0.4-0.2,0.5-0.2
		c0.1,0,0.2,0.1,0.3,0.2s0.1,0.3,0.1,0.6V230.2z M79.1,220c0-0.4,0.1-0.7,0.4-0.9c0.2-0.2,0.5-0.3,0.8-0.3c0.4,0,0.6,0.1,0.9,0.3
		c0.2,0.2,0.3,0.5,0.3,0.9c0,0.3-0.1,0.6-0.4,0.8c-0.2,0.2-0.5,0.4-0.8,0.4c-0.3,0-0.6-0.1-0.9-0.3C79.2,220.6,79.1,220.3,79.1,220z
		"/>
</g>
<line class="st9" x1="-196.9" y1="263.1" x2="-219.6" y2="240.3"/>
<line class="st9" x1="-27.2" y1="263.1" x2="-4.4" y2="240.3"/>
</svg>
