<?xml version="1.0" encoding="utf-8"?>
<!-- Generator: Adobe Illustrator 19.0.0, SVG Export Plug-In . SVG Version: 6.00 Build 0)  -->
<svg version="1.1" xmlns="http://www.w3.org/2000/svg" xmlns:xlink="http://www.w3.org/1999/xlink" x="0px" y="0px"
	 viewBox="0 0 1260.212 245.794" enable-background="new 0 0 1260.212 245.794" xml:space="preserve">
<g id="Livello_1">
</g>
<g id="Livello_3">
</g>
<g id="Livello_2">
</g>
<g id="Livello_4">
	<path opacity="0.7" fill="#E5DCD5" d="M192.043,233.452H1.457c-0.805,0-1.457-0.653-1.457-1.457v-95.899
		c0-0.805,0.653-1.457,1.457-1.457h190.585c0.805,0,1.457,0.653,1.457,1.457v95.899C193.5,232.799,192.847,233.452,192.043,233.452z
		"/>
	<g display="none">
		<rect x="1098.501" y="-258.032" display="inline" fill="none" width="48.833" height="11.378"/>
		
			<text transform="matrix(1 0 0 1 1098.5011 -249.3685)" display="inline" fill="#262625" font-family="'AkkuratPro-Regular'" font-size="12px">cons</text>
		<g display="inline">
			<circle opacity="0.75" fill="#AF1922" cx="1080.202" cy="-253.74" r="7.087"/>
			<circle fill="#F5F5F5" cx="1080.202" cy="-253.74" r="1.417"/>
		</g>
		<rect x="1098.501" y="-229.685" display="inline" fill="none" width="48.833" height="11.378"/>
		
			<text transform="matrix(1 0 0 1 1098.5011 -221.022)" display="inline" fill="#262625" font-family="'AkkuratPro-Regular'" font-size="12px">cons*</text>
		<g display="inline">
			<circle opacity="0.75" fill="#F08575" cx="1080.202" cy="-225.394" r="7.087"/>
			<circle fill="#FFFFFF" cx="1080.202" cy="-225.394" r="1.417"/>
		</g>
		<rect x="1098.501" y="-202.38" display="inline" fill="none" width="57.001" height="9.5"/>
		
			<text transform="matrix(1 0 0 1 1098.5011 -193.7166)" display="inline" fill="#262625" font-family="'AkkuratPro-Regular'" font-size="12px">neutral</text>
		<g display="inline">
			<circle opacity="0.75" fill="#F6A000" cx="1080.202" cy="-197.047" r="7.087"/>
			<circle fill="#F5F5F5" cx="1080.202" cy="-197.047" r="1.417"/>
		</g>
		<rect x="1098.501" y="-172.993" display="inline" fill="none" width="48.833" height="11.378"/>
		
			<text transform="matrix(1 0 0 1 1098.5011 -164.3281)" display="inline" fill="#262625" font-family="'AkkuratPro-Regular'" font-size="12px">pro</text>
		<g display="inline">
			<circle opacity="0.75" fill="#1F8E6C" cx="1080.202" cy="-168.701" r="7.087"/>
			<circle fill="#F5F5F5" cx="1080.202" cy="-168.701" r="1.417"/>
		</g>
		<rect x="1098.501" y="-144.646" display="inline" fill="none" width="48.833" height="11.378"/>
		
			<text transform="matrix(1 0 0 1 1098.5011 -135.9817)" display="inline" fill="#262625" font-family="'AkkuratPro-Regular'" font-size="12px">pro*</text>
		<g display="inline">
			<circle opacity="0.75" fill="#A7C8AF" cx="1080.202" cy="-140.354" r="7.087"/>
			<circle fill="#F5F5F5" cx="1080.202" cy="-140.354" r="1.417"/>
		</g>
	</g>
	<polygon display="none" fill="none" stroke="#262625" stroke-linejoin="round" stroke-miterlimit="10" points="196.042,-322.854 
		199.971,-319.453 196.042,-316.053 	"/>
	<g display="none">
		<rect x="518.773" y="-381.125" display="inline" fill="none" width="44.667" height="13.336"/>
		
			<text transform="matrix(1 0 0 1 518.7732 -369.0372)" display="inline" fill="#1D1D1B" font-family="'Merriweather-Bold'" font-size="15px">Cons</text>
		<g display="inline">
			<g>
				<rect x="269.777" y="-168.773" fill="none" width="70" height="13.336"/>
				<text transform="matrix(1 0 0 1 269.7767 -156.6851)" fill="#1D1D1B" font-family="'Merriweather-Bold'" font-size="15px">Health</text>
				<path fill="none" stroke="#BBA594" stroke-linejoin="round" stroke-miterlimit="10" d="M352.026-165.943v-8.488
					c0-0.884-0.716-1.6-1.6-1.6h-91.805c-0.884,0-1.6,0.716-1.6,1.6v24.652c0,0.884,0.716,1.6,1.6,1.6h91.805
					c0.883,0,1.6-0.716,1.6-1.6v-8.488l4.434-3.838L352.026-165.943z"/>
			</g>
			<g>
				<rect x="269.777" y="-16.833" fill="none" width="107.583" height="49.333"/>
				<text transform="matrix(1 0 0 1 269.7774 -4.7447)"><tspan x="0" y="0" fill="#1D1D1B" font-family="'Merriweather-Bold'" font-size="15px">etichal </tspan><tspan x="0" y="18" fill="#1D1D1B" font-family="'Merriweather-Bold'" font-size="15px">treatment </tspan><tspan x="0" y="36" fill="#1D1D1B" font-family="'Merriweather-Bold'" font-size="15px">of animals</tspan></text>
				<path fill="none" stroke="#BBA594" stroke-linejoin="round" stroke-miterlimit="10" d="M389.762,4.127v-27.821
					c0-0.853-0.692-1.545-1.545-1.545h-129.65c-0.853,0-1.545,0.692-1.545,1.545v63.056c0,0.853,0.692,1.545,1.545,1.545h129.65
					c0.853,0,1.545-0.692,1.545-1.545V11.542l4.283-3.707L389.762,4.127z"/>
			</g>
			<g>
				<rect x="269.777" y="135.676" fill="none" width="120" height="30.855"/>
				<text transform="matrix(1 0 0 1 269.7767 147.7641)"><tspan x="0" y="0" fill="#1D1D1B" font-family="'Merriweather-Bold'" font-size="15px">milk</tspan><tspan x="0" y="18" fill="#1D1D1B" font-family="'Merriweather-Bold'" font-size="15px">alternative</tspan></text>
				<path fill="none" stroke="#BBA594" stroke-linejoin="round" stroke-miterlimit="10" d="M402.21,147.424v-19.149
					c0-0.847-0.687-1.534-1.534-1.534H258.555c-0.847,0-1.534,0.687-1.534,1.534v45.658c0,0.847,0.687,1.534,1.534,1.534h142.121
					c0.847,0,1.534-0.687,1.534-1.534v-19.149l4.251-3.68L402.21,147.424z"/>
			</g>
		</g>
		<path display="inline" fill="none" stroke="#AF1922" stroke-width="0.75" stroke-miterlimit="10" d="M577.406-378.295v-8.488
			c0-0.884-0.716-1.6-1.6-1.6h-34.882h-13.491h-21.389c-0.883,0-1.6,0.716-1.6,1.6v8.488l-0.026,0.023v7.631l0.026,0.023v8.488
			c0,0.884,0.716,1.6,1.6,1.6h21.389h10.562l3.123,3.608l3.123-3.608h31.564c0.883,0,1.6-0.716,1.6-1.6v-8.488l0.026-0.023v-7.631
			L577.406-378.295z"/>
		<rect x="949.921" y="-381.125" display="inline" fill="none" width="44.667" height="13.336"/>
		
			<text transform="matrix(1 0 0 1 949.9215 -369.0372)" display="inline" fill="#1D1D1B" font-family="'Merriweather-Bold'" font-size="15px">pro</text>
		<rect x="713.997" y="-381.125" display="inline" fill="none" width="79.417" height="13.336"/>
		
			<text transform="matrix(1 0 0 1 713.9965 -369.0372)" display="inline" fill="#1D1D1B" font-family="'Merriweather-Bold'" font-size="15px">neutral</text>
		<path display="inline" fill="none" stroke="#F6A000" stroke-width="0.75" stroke-miterlimit="10" d="M807.559-378.295v-8.488
			c0-0.884-0.716-1.6-1.6-1.6h-34.747h-0.135h-13.491h-21.256h-0.134H722.84h-21.389c-0.883,0-1.6,0.716-1.6,1.6v8.488l-0.026,0.023
			v7.631l0.026,0.023v8.488c0,0.884,0.716,1.6,1.6,1.6h21.389h13.357h0.134h13.973l3.401,3.929l3.401-3.929h0.481h13.491h0.135
			h34.747c0.883,0,1.6-0.716,1.6-1.6v-8.488l0.026-0.023v-7.631L807.559-378.295z"/>
		<rect x="563.472" y="-328.588" display="inline" fill="none" width="97" height="24.75"/>
		<text transform="matrix(1 0 0 1 584.5048 -316.5002)" display="inline"><tspan x="0" y="0" fill="#1D1D1B" font-family="'Merriweather-Bold'" font-size="15px">Cons*</tspan><tspan x="-20.967" y="12" fill="#1D1D1B" font-family="'AkkuratPro-Bold'" font-size="10px" letter-spacing="1">(with criticism)</tspan></text>
		<path display="inline" fill="none" stroke="#F08575" stroke-width="0.75" stroke-miterlimit="10" d="M673.962-314.515v-3.396
			l0.026-0.023v-7.631l-0.026-0.023v-8.488c0-0.884-0.716-1.6-1.6-1.6h-34.882H623.99h-2.308H602.6h-15.8h-13.491h-21.389
			c-0.883,0-1.6,0.716-1.6,1.6v8.488l-0.026,0.023v7.631l0.026,0.023v3.396l-0.026,0.023v7.631l0.026,0.023v8.488
			c0,0.884,0.716,1.6,1.6,1.6h21.389H586.8h15.8h5.972l3.401,3.929l3.401-3.929h6.309h2.308h13.491h34.882
			c0.883,0,1.6-0.716,1.6-1.6v-8.488l0.026-0.023v-7.631L673.962-314.515z"/>
		<rect x="846.891" y="-328.588" display="inline" fill="none" width="97" height="24.75"/>
		<text transform="matrix(1 0 0 1 873.3992 -316.5002)" display="inline"><tspan x="0" y="0" fill="#1D1D1B" font-family="'Merriweather-Bold'" font-size="15px">pro*</tspan><tspan x="-26.443" y="12" fill="#1D1D1B" font-family="'AkkuratPro-Bold'" font-size="10px" letter-spacing="1">(with criticism)</tspan></text>
		<path display="inline" fill="none" stroke="#A7C8AF" stroke-width="0.75" stroke-miterlimit="10" d="M957.381-314.515v-3.396
			l0.026-0.023v-7.631l-0.026-0.023v-8.488c0-0.884-0.716-1.6-1.6-1.6h-34.882h-13.491H905.1h-19.082h-15.8h-13.491h-21.389
			c-0.883,0-1.6,0.716-1.6,1.6v8.488l-0.026,0.023v7.631l0.026,0.023v3.396l-0.026,0.023v7.631l0.026,0.023v8.488
			c0,0.884,0.716,1.6,1.6,1.6h21.389h13.491h15.8h6.14l3.401,3.929l3.401-3.929h6.14h2.308h13.491h34.882c0.883,0,1.6-0.716,1.6-1.6
			v-8.488l0.026-0.023v-7.631L957.381-314.515z"/>
		<path display="inline" fill="none" stroke="#1F8E6C" stroke-width="0.75" stroke-miterlimit="10" d="M997.077-378.295v-8.488
			c0-0.884-0.716-1.6-1.6-1.6h-11.166h-12.056h-7.61h-5.881h-21.389c-0.883,0-1.6,0.716-1.6,1.6v8.488l-0.026,0.023v7.631
			l0.026,0.023v8.488c0,0.884,0.716,1.6,1.6,1.6h21.389h4.261l3.401,3.929l3.401-3.929h2.429h12.056h11.166
			c0.883,0,1.6-0.716,1.6-1.6v-8.488l0.026-0.023v-7.631L997.077-378.295z"/>
	</g>
	<g>
		<g>
			<circle fill="#BBA594" cx="27.112" cy="157.896" r="7.087"/>
		</g>
		<g>
			<g>
				
					<line fill="none" stroke="#262625" stroke-width="0.75" stroke-miterlimit="10" x1="37.033" y1="150.809" x2="39.868" y2="150.809"/>
				
					<line fill="none" stroke="#262625" stroke-width="0.75" stroke-miterlimit="10" x1="37.033" y1="164.983" x2="39.868" y2="164.983"/>
			</g>
			
				<line fill="none" stroke="#262625" stroke-width="0.5" stroke-linecap="round" stroke-miterlimit="10" stroke-dasharray="0.75,1.5" x1="38.451" y1="150.809" x2="38.451" y2="164.983"/>
		</g>
		<g>
			<g>
				
					<line fill="none" stroke="#262625" stroke-width="0.75" stroke-miterlimit="10" x1="20.025" y1="147.975" x2="20.025" y2="145.14"/>
				
					<line fill="none" stroke="#262625" stroke-width="0.75" stroke-miterlimit="10" x1="34.199" y1="147.975" x2="34.199" y2="145.14"/>
			</g>
			
				<line fill="none" stroke="#262625" stroke-width="0.5" stroke-linecap="round" stroke-miterlimit="10" stroke-dasharray="0.75,1.5" x1="20.025" y1="146.557" x2="34.199" y2="146.557"/>
		</g>
	</g>
	<g>
		<path fill="#262625" d="M49.347,162.544v-8.376l-2.311,1.694v-1.33l2.381-1.724h1.148v9.735H49.347z"/>
		<path fill="#262625" d="M62.618,162.727c-2.227,0-3.628-1.345-3.628-3.824v-6.289h1.247v6.317c0,1.582,0.659,2.633,2.381,2.633
			c1.723,0,2.381-1.051,2.381-2.633v-6.317h1.247v6.289C66.246,161.382,64.846,162.727,62.618,162.727z"/>
		<path fill="#262625" d="M75.542,162.544l-4.875-7.984v7.984h-1.205v-9.931h1.401l4.875,8.012v-8.012h1.205v9.931H75.542z"/>
		<path fill="#262625" d="M80.438,162.544v-9.931h1.274v9.931H80.438z"/>
		<path fill="#262625" d="M88.21,153.776v8.769h-1.261v-8.769h-2.956v-1.162h7.172v1.162H88.21z"/>
	</g>
	<g>
		<path fill="#262625" d="M48.229,182.1c-1.307-1.476-2.015-3.622-2.015-5.565c0-1.942,0.708-4.09,2.015-5.564l0.636,0.443
			c-1.151,1.523-1.763,3.143-1.763,5.121c0,1.979,0.612,3.599,1.763,5.121L48.229,182.1z"/>
		<path fill="#262625" d="M53.017,180.397v-7.172l-1.979,1.451v-1.14l2.039-1.476h0.983v8.336H53.017z"/>
		<path fill="#262625" d="M64.392,180.552c-1.907,0-3.106-1.151-3.106-3.273v-5.386h1.067v5.409c0,1.355,0.564,2.255,2.039,2.255
			c1.475,0,2.039-0.899,2.039-2.255v-5.409h1.067v5.386C67.498,179.401,66.299,180.552,64.392,180.552z"/>
		<path fill="#262625" d="M75.466,180.397l-4.173-6.837v6.837h-1.032v-8.504h1.2l4.173,6.86v-6.86h1.032v8.504H75.466z"/>
		<path fill="#262625" d="M79.669,180.397v-8.504h1.091v8.504H79.669z"/>
		<path fill="#262625" d="M86.328,172.889v7.508h-1.08v-7.508h-2.531v-0.996h6.141v0.996H86.328z"/>
		<path fill="#262625" d="M93.937,176.271v-0.924h5.781v0.924H93.937z M93.937,178.79v-0.924h5.781v0.924H93.937z"/>
		<path fill="#262625" d="M111.671,180.397v-7.172l-1.979,1.451v-1.14l2.039-1.476h0.983v8.336H111.671z"/>
		<path fill="#262625" d="M125.325,180.397v-3.922h-4.078v3.922h-1.067v-8.504h1.067v3.551h4.078v-3.551h1.067v8.504H125.325z"/>
		<path fill="#262625" d="M134.445,180.397l-0.696-2.015h-3.694l-0.684,2.015h-1.08l2.999-8.504h1.248l3.01,8.504H134.445z
			 M131.89,172.96l-1.499,4.414h3.01L131.89,172.96z"/>
		<path fill="#262625" d="M142.484,179.701c-0.587,0.576-1.499,0.852-2.411,0.852c-1.031,0-1.859-0.287-2.435-0.815
			c-0.54-0.504-0.912-1.235-0.912-2.039h1.116c0,0.504,0.251,1.008,0.6,1.344c0.384,0.372,1.031,0.527,1.631,0.527
			c0.648,0,1.2-0.132,1.583-0.491c0.264-0.24,0.432-0.54,0.432-0.996c0-0.659-0.42-1.211-1.427-1.367l-1.343-0.203
			c-1.271-0.192-2.267-0.899-2.267-2.255c0-0.636,0.288-1.247,0.743-1.68c0.588-0.552,1.343-0.839,2.231-0.839
			c0.828,0,1.643,0.275,2.207,0.815c0.516,0.491,0.792,1.104,0.816,1.823h-1.116c-0.024-0.42-0.18-0.792-0.419-1.067
			c-0.324-0.372-0.84-0.588-1.5-0.588c-0.611,0-1.139,0.168-1.511,0.588c-0.216,0.251-0.348,0.539-0.348,0.923
			c0,0.768,0.636,1.115,1.271,1.199c0.479,0.061,0.947,0.145,1.415,0.216c1.416,0.204,2.363,1.067,2.363,2.411
			C143.204,178.766,142.904,179.293,142.484,179.701z"/>
		<path fill="#262625" d="M150.753,180.397v-3.922h-4.078v3.922h-1.067v-8.504h1.067v3.551h4.078v-3.551h1.067v8.504H150.753z"/>
		<path fill="#262625" d="M157.39,172.889v7.508h-1.08v-7.508h-2.531v-0.996h6.141v0.996H157.39z"/>
		<path fill="#262625" d="M166.088,180.397l-0.696-2.015h-3.694l-0.684,2.015h-1.08l2.999-8.504h1.248l3.01,8.504H166.088z
			 M163.534,172.96l-1.499,4.414h3.01L163.534,172.96z"/>
		<path fill="#262625" d="M174.236,180.397l-0.18-1.02c-0.42,0.695-1.355,1.188-2.315,1.188c-0.852,0-1.679-0.276-2.291-0.876
			c-0.864-0.84-1.104-2.015-1.104-3.538c0-1.355,0.18-2.603,1.104-3.502c0.611-0.6,1.439-0.911,2.291-0.911
			c0.959,0,1.847,0.336,2.435,0.959c0.408,0.432,0.696,0.972,0.731,1.655h-1.115c-0.036-0.396-0.168-0.672-0.384-0.936
			c-0.384-0.456-0.971-0.672-1.667-0.672c-0.576,0-1.139,0.229-1.547,0.648c-0.695,0.719-0.743,1.87-0.743,2.758
			c0,0.852,0.06,2.075,0.768,2.795c0.408,0.42,0.947,0.611,1.523,0.611c0.6,0,1.164-0.204,1.547-0.588
			c0.563-0.552,0.731-1.379,0.731-2.158h-2.279v-0.996h3.238v4.582H174.236z"/>
		<path fill="#262625" d="M177.287,182.1l-0.636-0.444c1.151-1.522,1.763-3.142,1.763-5.121c0-1.979-0.612-3.598-1.763-5.121
			l0.636-0.443c1.308,1.475,2.015,3.622,2.015,5.564C179.302,178.478,178.595,180.624,177.287,182.1z"/>
	</g>
	<g>
		<g>
			<g>
				<line fill="none" stroke="#BAA494" stroke-miterlimit="10" x1="20.025" y1="208.776" x2="34.199" y2="222.949"/>
				<line fill="none" stroke="#BAA494" stroke-miterlimit="10" x1="20.025" y1="222.949" x2="34.199" y2="208.776"/>
			</g>
		</g>
		<g>
			<path fill="#272725" d="M51.939,221.423l-4.875-7.984v7.984H45.86v-9.932h1.401l4.875,8.013v-8.013h1.205v9.932H51.939z"/>
			<path fill="#272725" d="M62.803,220.554c-0.714,0.701-1.681,1.065-2.676,1.065s-1.961-0.364-2.675-1.065
				c-1.079-1.05-1.275-2.507-1.275-4.09s0.196-3.04,1.275-4.09c0.714-0.7,1.681-1.064,2.675-1.064s1.961,0.364,2.676,1.064
				c1.079,1.05,1.274,2.507,1.274,4.09S63.882,219.504,62.803,220.554z M61.934,213.243c-0.476-0.49-1.135-0.742-1.807-0.742
				s-1.331,0.252-1.807,0.742c-0.812,0.841-0.854,2.186-0.854,3.222c0,1.037,0.042,2.382,0.854,3.222
				c0.476,0.49,1.134,0.742,1.807,0.742s1.331-0.252,1.807-0.742c0.812-0.84,0.854-2.185,0.854-3.222
				C62.789,215.428,62.747,214.083,61.934,213.243z"/>
			<path fill="#272725" d="M72.994,221.423l-4.875-7.984v7.984h-1.205v-9.932h1.401l4.875,8.013v-8.013h1.205v9.932H72.994z"/>
			<path fill="#272725" d="M77.891,221.423v-9.932h6.64v1.148h-5.393v3.025h4.734v1.177h-4.734v3.433h5.393v1.148H77.891z"/>
		</g>
	</g>
	<g>
		<path fill="#272725" d="M265.546,52.041l0.703-0.151l2.707-7.981h2.068l2.725,7.987l0.68,0.146v0.785h-3.709v-0.785l0.844-0.152
			l-0.422-1.447h-2.947l-0.41,1.471l0.932,0.129v0.785h-3.158L265.546,52.041z M270.878,49.539l-1.061-3.57l-0.182-0.813
			l-0.182,0.813l-1.008,3.57H270.878z"/>
		<path fill="#272725" d="M274.698,52.041l0.914-0.152v-6.984l-0.902-0.17v-0.826h4.008v0.826l-1.113,0.17v6.914h2.309l0.773-2.332
			l1.096,0.164l-0.346,3.176h-6.738V52.041z"/>
		<path fill="#272725" d="M281.899,52.041l1.014-0.146l0.814-6.996l-1.178-0.164v-0.826h3.879l1.529,5.186l0.217,1.137l0.193-1.137
			l1.283-5.186h3.92v0.826l-1.271,0.17l1.043,6.984l0.996,0.152v0.785h-4.014v-0.785l0.99-0.146l-0.604-5.162l-0.229-2.145
			l-0.346,1.658l-1.611,6.24h-1.436l-1.893-5.807l-0.516-2.127l-0.141,2.174l-0.381,5.162l1.189,0.152v0.785h-3.451V52.041z"/>
		<path fill="#272725" d="M298.598,52.832c-0.695,0-1.295-0.106-1.799-0.319s-0.918-0.515-1.242-0.904s-0.564-0.857-0.721-1.405
			s-0.234-1.154-0.234-1.819c0-0.684,0.099-1.302,0.296-1.853c0.197-0.552,0.477-1.022,0.838-1.414s0.796-0.692,1.304-0.901
			s1.072-0.313,1.693-0.313c0.695,0,1.294,0.102,1.796,0.306s0.914,0.494,1.236,0.872c0.322,0.377,0.561,0.831,0.715,1.363
			c0.154,0.531,0.231,1.127,0.231,1.786c0,0.687-0.099,1.312-0.296,1.875c-0.197,0.564-0.476,1.048-0.835,1.449
			c-0.359,0.402-0.792,0.716-1.298,0.94C299.777,52.719,299.216,52.832,298.598,52.832z M298.651,52.017
			c0.586,0,1.046-0.317,1.38-0.951s0.501-1.579,0.501-2.836c0-0.617-0.043-1.147-0.129-1.593c-0.086-0.444-0.209-0.81-0.369-1.096
			c-0.16-0.285-0.356-0.495-0.589-0.63c-0.232-0.134-0.495-0.201-0.788-0.201s-0.556,0.073-0.788,0.222
			c-0.232,0.147-0.429,0.371-0.589,0.672c-0.16,0.302-0.283,0.683-0.369,1.145s-0.129,1.005-0.129,1.629
			c0,0.621,0.042,1.159,0.126,1.615s0.207,0.834,0.369,1.133s0.358,0.522,0.589,0.67S298.358,52.017,298.651,52.017z"/>
		<path fill="#272725" d="M303.462,52.041l0.949-0.146v-6.996l-0.949-0.164v-0.826h2.924l3.41,5.174l0.639,1.359v-5.549
			l-1.031-0.158v-0.826h3.082v0.826l-0.926,0.164v7.928h-1.629l-3.592-5.49l-0.797-1.605v6.164l1.23,0.146v0.785h-3.311V52.041z"/>
		<path fill="#272725" d="M313.141,51.982l0.914-0.145v-6.887l-0.873-0.161v-0.882h1.822c0.188,0,0.366,0,0.536,0s0.338,0,0.504,0
			s0.335,0,0.507,0s0.354,0,0.545,0c0.75,0,1.402,0.093,1.957,0.278s1.014,0.455,1.377,0.812c0.363,0.355,0.635,0.789,0.814,1.302
			c0.18,0.512,0.27,1.095,0.27,1.749c0,0.699-0.105,1.343-0.316,1.93s-0.515,1.093-0.911,1.517
			c-0.396,0.425-0.876,0.753-1.438,0.983c-0.562,0.231-1.195,0.348-1.898,0.348c-0.156,0-0.321,0-0.495,0s-0.345,0-0.513,0
			s-0.329,0-0.483,0s-0.29,0-0.407,0h-1.91V51.982z M316.018,51.884c0.137,0.047,0.29,0.077,0.46,0.09s0.353,0.02,0.548,0.02
			c0.352,0,0.671-0.072,0.958-0.217s0.531-0.365,0.732-0.663c0.201-0.297,0.357-0.673,0.469-1.128s0.167-0.999,0.167-1.631
			c0-0.556-0.048-1.059-0.144-1.51s-0.245-0.836-0.448-1.154s-0.465-0.563-0.785-0.735c-0.32-0.171-0.705-0.257-1.154-0.257
			c-0.215,0-0.387,0.013-0.516,0.037c-0.129,0.025-0.225,0.044-0.287,0.055V51.884z"/>
	</g>
	<g>
		<path fill="#272725" d="M261.614,154.376c0-0.713,0.113-1.349,0.34-1.907s0.538-1.031,0.935-1.416
			c0.396-0.386,0.865-0.679,1.406-0.881s1.128-0.304,1.761-0.304c0.285,0,0.566,0.015,0.844,0.044s0.538,0.062,0.782,0.097
			s0.463,0.069,0.656,0.103s0.351,0.056,0.472,0.067l-0.141,2.553h-1.254l-0.41-1.718c-0.059-0.075-0.174-0.144-0.346-0.205
			c-0.172-0.061-0.422-0.091-0.75-0.091c-0.309,0-0.589,0.073-0.841,0.219c-0.252,0.146-0.467,0.364-0.645,0.654
			c-0.178,0.291-0.315,0.653-0.413,1.09s-0.146,0.944-0.146,1.524c0,0.52,0.042,1.006,0.126,1.459s0.214,0.849,0.39,1.187
			c0.176,0.337,0.397,0.604,0.665,0.799s0.587,0.293,0.958,0.293c0.168,0,0.313-0.011,0.437-0.034
			c0.123-0.022,0.229-0.052,0.316-0.088c0.088-0.035,0.16-0.075,0.217-0.119c0.057-0.043,0.104-0.088,0.144-0.133l0.562-1.258
			l1.137,0.105l-0.223,1.929c-0.188,0.019-0.362,0.053-0.524,0.101s-0.34,0.099-0.533,0.152c-0.193,0.053-0.413,0.1-0.659,0.141
			c-0.246,0.04-0.545,0.06-0.896,0.06c-0.723,0-1.356-0.102-1.901-0.306s-1-0.497-1.365-0.878c-0.365-0.382-0.64-0.846-0.823-1.394
			C261.705,155.674,261.614,155.059,261.614,154.376z"/>
		<path fill="#272725" d="M273.526,158.798c-0.695,0-1.295-0.106-1.799-0.319s-0.918-0.514-1.242-0.903s-0.564-0.858-0.721-1.406
			c-0.156-0.547-0.234-1.153-0.234-1.818c0-0.685,0.099-1.302,0.296-1.854c0.197-0.551,0.477-1.022,0.838-1.414
			s0.796-0.691,1.304-0.901c0.508-0.209,1.072-0.313,1.693-0.313c0.695,0,1.294,0.103,1.796,0.306
			c0.502,0.204,0.914,0.495,1.236,0.872c0.322,0.378,0.561,0.832,0.715,1.363c0.154,0.532,0.231,1.128,0.231,1.787
			c0,0.686-0.099,1.311-0.296,1.875c-0.197,0.563-0.476,1.047-0.835,1.449s-0.792,0.716-1.298,0.94S274.143,158.798,273.526,158.798
			z M273.578,157.984c0.586,0,1.046-0.316,1.38-0.951c0.334-0.634,0.501-1.579,0.501-2.835c0-0.617-0.043-1.148-0.129-1.593
			s-0.209-0.81-0.369-1.096s-0.356-0.496-0.589-0.63c-0.232-0.135-0.495-0.202-0.788-0.202s-0.556,0.074-0.788,0.222
			s-0.429,0.372-0.589,0.673s-0.283,0.683-0.369,1.144c-0.086,0.462-0.129,1.005-0.129,1.63c0,0.62,0.042,1.159,0.126,1.615
			s0.207,0.833,0.369,1.132c0.162,0.3,0.358,0.522,0.589,0.671C273.024,157.911,273.285,157.984,273.578,157.984z"/>
		<path fill="#272725" d="M278.284,154.376c0-0.713,0.113-1.349,0.34-1.907s0.538-1.031,0.935-1.416
			c0.396-0.386,0.865-0.679,1.406-0.881s1.128-0.304,1.761-0.304c0.285,0,0.566,0.015,0.844,0.044s0.538,0.062,0.782,0.097
			s0.463,0.069,0.656,0.103s0.351,0.056,0.472,0.067l-0.141,2.553h-1.254l-0.41-1.718c-0.059-0.075-0.174-0.144-0.346-0.205
			c-0.172-0.061-0.422-0.091-0.75-0.091c-0.309,0-0.589,0.073-0.841,0.219c-0.252,0.146-0.467,0.364-0.645,0.654
			c-0.178,0.291-0.315,0.653-0.413,1.09s-0.146,0.944-0.146,1.524c0,0.52,0.042,1.006,0.126,1.459s0.214,0.849,0.39,1.187
			c0.176,0.337,0.397,0.604,0.665,0.799s0.587,0.293,0.958,0.293c0.168,0,0.313-0.011,0.437-0.034
			c0.123-0.022,0.229-0.052,0.316-0.088c0.088-0.035,0.16-0.075,0.217-0.119c0.057-0.043,0.104-0.088,0.144-0.133l0.562-1.258
			l1.137,0.105l-0.223,1.929c-0.188,0.019-0.362,0.053-0.524,0.101s-0.34,0.099-0.533,0.152c-0.193,0.053-0.413,0.1-0.659,0.141
			c-0.246,0.04-0.545,0.06-0.896,0.06c-0.723,0-1.356-0.102-1.901-0.306s-1-0.497-1.365-0.878c-0.365-0.382-0.64-0.846-0.823-1.394
			C278.375,155.674,278.284,155.059,278.284,154.376z"/>
		<path fill="#272725" d="M290.196,158.798c-0.695,0-1.295-0.106-1.799-0.319s-0.918-0.514-1.242-0.903s-0.564-0.858-0.721-1.406
			c-0.156-0.547-0.234-1.153-0.234-1.818c0-0.685,0.099-1.302,0.296-1.854c0.197-0.551,0.477-1.022,0.838-1.414
			s0.796-0.691,1.304-0.901c0.508-0.209,1.072-0.313,1.693-0.313c0.695,0,1.294,0.103,1.796,0.306
			c0.502,0.204,0.914,0.495,1.236,0.872c0.322,0.378,0.561,0.832,0.715,1.363c0.154,0.532,0.231,1.128,0.231,1.787
			c0,0.686-0.099,1.311-0.296,1.875c-0.197,0.563-0.476,1.047-0.835,1.449s-0.792,0.716-1.298,0.94S290.813,158.798,290.196,158.798
			z M290.248,157.984c0.586,0,1.046-0.316,1.38-0.951c0.334-0.634,0.501-1.579,0.501-2.835c0-0.617-0.043-1.148-0.129-1.593
			s-0.209-0.81-0.369-1.096s-0.356-0.496-0.589-0.63c-0.232-0.135-0.495-0.202-0.788-0.202s-0.556,0.074-0.788,0.222
			s-0.429,0.372-0.589,0.673s-0.283,0.683-0.369,1.144c-0.086,0.462-0.129,1.005-0.129,1.63c0,0.62,0.042,1.159,0.126,1.615
			s0.207,0.833,0.369,1.132c0.162,0.3,0.358,0.522,0.589,0.671C289.694,157.911,289.955,157.984,290.248,157.984z"/>
		<path fill="#272725" d="M295.059,158.007l0.949-0.146v-6.996l-0.949-0.164v-0.826h2.924l3.41,5.174l0.639,1.359v-5.549
			L301,150.701v-0.826h3.082v0.826l-0.926,0.164v7.928h-1.629l-3.592-5.49l-0.797-1.605v6.164l1.23,0.146v0.785h-3.311V158.007z"/>
		<path fill="#272725" d="M305.225,150.895l-0.762-0.167v-0.854h3.809v0.854l-0.99,0.173v4.36c0,0.923,0.157,1.604,0.472,2.045
			s0.786,0.66,1.415,0.66c0.32,0,0.597-0.063,0.829-0.19s0.424-0.307,0.574-0.539s0.261-0.514,0.331-0.842
			c0.07-0.329,0.105-0.697,0.105-1.104v-4.396L310,150.728v-0.854h3.07v0.854l-0.791,0.167v4.305c0,0.646-0.086,1.198-0.258,1.655
			c-0.172,0.456-0.408,0.828-0.709,1.114c-0.301,0.287-0.657,0.497-1.069,0.63s-0.86,0.199-1.345,0.199
			c-0.621,0-1.162-0.069-1.623-0.208s-0.843-0.356-1.146-0.655s-0.529-0.682-0.68-1.15c-0.15-0.468-0.226-1.028-0.226-1.684V150.895
			z"/>
		<path fill="#272725" d="M314.993,158.007l1.506-0.152v-7.066h-1.512l-0.486,2.631h-1.113l0.176-3.545h7.775l0.17,3.545h-1.072
			l-0.516-2.631h-1.418v7.061l1.641,0.158v0.785h-5.15V158.007z"/>
	</g>
	<g>
		<path fill="#272725" d="M397.334,231.499l0.967-0.141v-7.336l-0.932-0.152v-0.65h3.316v0.65l-1.008,0.146v3.164h4.102v-3.164
			l-0.961-0.146v-0.65h3.275v0.65l-0.938,0.146v7.348l0.938,0.135v0.639h-3.27v-0.639l0.955-0.135v-3.41h-4.102v3.404l1.008,0.141
			v0.639h-3.352V231.499z"/>
		<path fill="#272725" d="M407.271,231.499l0.984-0.141v-7.323l-0.967-0.162v-0.653h6.105l0.164,1.859h-0.756l-0.363-1.15h-2.807
			v3.252h1.904l0.176-0.99h0.756v2.777h-0.756l-0.17-1.043h-1.91v3.422h3.223l0.662-1.535l0.75,0.223l-0.346,2.104h-6.65V231.499z"
			/>
		<path fill="#272725" d="M414.355,231.499l0.744-0.14l2.889-8.14h1.395l2.912,8.14l0.744,0.14v0.639h-3.217v-0.639l0.955-0.141
			l-0.557-1.711h-3.445l-0.533,1.711l1.002,0.141v0.639h-2.883L414.355,231.499z M419.98,228.904l-1.254-3.789l-0.258-0.969
			l-0.258,0.98l-1.201,3.777H419.98z"/>
		<path fill="#272725" d="M423.431,231.499l0.984-0.141v-7.342l-0.967-0.146v-0.65h3.486v0.65l-1.131,0.152v7.283h2.959l0.715-2.016
			l0.785,0.135l-0.398,2.713h-6.434V231.499z"/>
		<path fill="#272725" d="M432.379,231.499l1.529-0.141v-7.412h-1.951l-0.439,2.479h-0.85l0.205-3.205h7.418l0.188,3.205h-0.838
			l-0.445-2.479h-1.875v7.412l1.658,0.141v0.639h-4.6V231.499z"/>
		<path fill="#272725" d="M439.334,231.499l0.967-0.141v-7.336l-0.932-0.152v-0.65h3.316v0.65l-1.008,0.146v3.164h4.102v-3.164
			l-0.961-0.146v-0.65h3.275v0.65l-0.938,0.146v7.348l0.938,0.135v0.639h-3.27v-0.639l0.955-0.135v-3.41h-4.102v3.404l1.008,0.141
			v0.639h-3.352V231.499z"/>
	</g>
	<g>
		<path fill="#272725" d="M502.153,223.463l-0.744-0.149v-0.693h3.287v0.693l-1.078,0.144l1.928,5.497l0.398,1.344l0.346-1.361
			l1.775-5.474l-0.914-0.149v-0.693h2.707v0.693l-0.773,0.149l-2.824,8.075h-1.102L502.153,223.463z"/>
		<path fill="#272725" d="M510.18,230.9l0.984-0.141v-7.324l-0.967-0.161v-0.653h6.105l0.164,1.858h-0.756l-0.363-1.149h-2.807
			v3.252h1.904l0.176-0.99h0.756v2.777h-0.756l-0.17-1.043h-1.91v3.422h3.223l0.662-1.535l0.75,0.223l-0.346,2.104h-6.65V230.9z"/>
		<path fill="#272725" d="M517.973,227.194c0-0.725,0.117-1.369,0.352-1.936c0.234-0.565,0.557-1.045,0.967-1.438
			s0.894-0.691,1.45-0.897s1.155-0.309,1.796-0.309c0.312,0,0.615,0.015,0.908,0.044s0.563,0.064,0.812,0.105
			s0.466,0.083,0.653,0.126s0.334,0.076,0.439,0.1l-0.117,1.977h-0.902l-0.316-1.308c-0.035-0.033-0.089-0.07-0.161-0.113
			c-0.072-0.042-0.17-0.081-0.293-0.115c-0.123-0.035-0.276-0.065-0.46-0.092c-0.184-0.025-0.402-0.038-0.656-0.038
			c-0.422,0-0.81,0.075-1.163,0.225s-0.658,0.375-0.914,0.675s-0.455,0.673-0.598,1.121c-0.143,0.447-0.214,0.969-0.214,1.564
			c0,0.342,0.024,0.676,0.073,1.002s0.124,0.637,0.226,0.931s0.229,0.565,0.381,0.814c0.152,0.248,0.333,0.463,0.542,0.643
			c0.209,0.181,0.445,0.32,0.709,0.421s0.558,0.151,0.882,0.151c0.164,0,0.329-0.01,0.495-0.029s0.324-0.05,0.475-0.091
			s0.288-0.093,0.413-0.155s0.232-0.137,0.322-0.223v-2.566l-1.436-0.135v-0.756h3.498v0.756l-0.686,0.123v3.164
			c-0.152,0-0.331,0.032-0.536,0.098c-0.205,0.064-0.439,0.136-0.703,0.213s-0.558,0.146-0.882,0.207s-0.684,0.092-1.078,0.092
			c-0.676,0-1.278-0.11-1.808-0.332c-0.529-0.221-0.978-0.525-1.345-0.914s-0.646-0.849-0.838-1.378
			C518.069,228.39,517.973,227.815,517.973,227.194z"/>
		<path fill="#272725" d="M526.182,230.9l0.744-0.14l2.889-8.14h1.395l2.912,8.14l0.744,0.14v0.639h-3.217V230.9l0.955-0.141
			l-0.557-1.711h-3.445l-0.533,1.711l1.002,0.141v0.639h-2.883L526.182,230.9z M531.807,228.304l-1.254-3.79l-0.258-0.969
			l-0.258,0.98l-1.201,3.778H531.807z"/>
		<path fill="#272725" d="M535.258,230.9l0.967-0.135v-7.342l-0.967-0.152v-0.65h2.314l3.943,5.76l0.621,1.16v-6.123l-1.049-0.146
			v-0.65h2.906v0.65l-0.973,0.152v8.115h-0.961l-4.037-5.877l-0.914-1.594v6.691l1.119,0.141v0.639h-2.971V230.9z"/>
	</g>
	<g>
		<path fill="#272725" d="M597.187,231.582l0.967-0.141V224.1l-0.984-0.146v-0.65h6.398l0.123,2.051h-0.85l-0.387-1.342h-2.924
			v3.363h2.039l0.234-0.996h0.721v2.795h-0.721l-0.234-1.025h-2.039v3.293l1.781,0.141v0.639h-4.125V231.582z"/>
		<path fill="#272725" d="M604.704,231.582l1.072-0.141v-7.336l-1.072-0.152v-0.65h3.527v0.65l-1.072,0.146v7.342l1.09,0.158v0.621
			h-3.545V231.582z"/>
		<path fill="#272725" d="M610.792,231.582l1.529-0.141v-7.412h-1.951l-0.439,2.479h-0.85l0.205-3.205h7.418l0.188,3.205h-0.838
			l-0.445-2.479h-1.875v7.412l1.658,0.141v0.639h-4.6V231.582z"/>
		<path fill="#272725" d="M617.736,231.582l0.967-0.135v-7.342l-0.967-0.152v-0.65h2.314l3.943,5.76l0.621,1.16V224.1l-1.049-0.146
			v-0.65h2.906v0.65l-0.973,0.152v8.115h-0.961l-4.037-5.877l-0.914-1.594v6.691l1.119,0.141v0.639h-2.971V231.582z"/>
		<path fill="#272725" d="M627.322,231.582l0.984-0.141v-7.323l-0.967-0.162v-0.653h6.105l0.164,1.859h-0.756l-0.363-1.15h-2.807
			v3.252h1.904l0.176-0.99h0.756v2.777h-0.756l-0.17-1.043h-1.91v3.422h3.223l0.662-1.535l0.75,0.223l-0.346,2.104h-6.65V231.582z"
			/>
		<path fill="#272725" d="M635.39,229.572h0.814l0.234,1.457c0.062,0.064,0.147,0.127,0.255,0.188
			c0.107,0.061,0.231,0.113,0.372,0.159c0.141,0.045,0.294,0.081,0.46,0.107c0.166,0.027,0.341,0.04,0.524,0.04
			c0.594,0,1.035-0.128,1.324-0.385s0.434-0.605,0.434-1.047c0-0.229-0.049-0.43-0.146-0.604s-0.236-0.334-0.416-0.477
			s-0.396-0.276-0.647-0.402c-0.252-0.125-0.53-0.255-0.835-0.388c-0.242-0.106-0.501-0.234-0.776-0.383
			c-0.275-0.147-0.531-0.327-0.768-0.539c-0.236-0.211-0.433-0.46-0.589-0.747s-0.234-0.623-0.234-1.007
			c0-0.323,0.068-0.623,0.205-0.898c0.137-0.276,0.331-0.514,0.583-0.713c0.252-0.2,0.558-0.355,0.917-0.468
			s0.764-0.169,1.213-0.169c0.285,0,0.552,0.02,0.8,0.059s0.473,0.084,0.674,0.135s0.377,0.1,0.527,0.146s0.271,0.076,0.36,0.088
			l-0.076,1.96h-0.785l-0.27-1.383c-0.035-0.038-0.092-0.076-0.17-0.114s-0.173-0.072-0.284-0.103s-0.234-0.055-0.369-0.074
			c-0.135-0.019-0.274-0.028-0.419-0.028c-0.539,0-0.938,0.105-1.195,0.317c-0.258,0.211-0.387,0.52-0.387,0.927
			c0,0.229,0.048,0.427,0.144,0.596c0.096,0.17,0.233,0.325,0.413,0.468s0.396,0.28,0.65,0.411s0.537,0.271,0.85,0.419
			c0.281,0.138,0.567,0.283,0.858,0.437c0.291,0.154,0.556,0.333,0.794,0.537c0.238,0.203,0.433,0.437,0.583,0.698
			c0.15,0.263,0.226,0.568,0.226,0.919c0,0.3-0.065,0.6-0.196,0.898s-0.328,0.567-0.592,0.808c-0.264,0.239-0.596,0.435-0.996,0.585
			c-0.4,0.149-0.872,0.225-1.415,0.225c-0.348,0-0.669-0.026-0.964-0.079s-0.559-0.112-0.791-0.179s-0.433-0.129-0.601-0.188
			s-0.299-0.092-0.393-0.1L635.39,229.572z"/>
		<path fill="#272725" d="M642.509,229.572h0.814l0.234,1.457c0.062,0.064,0.147,0.127,0.255,0.188
			c0.107,0.061,0.231,0.113,0.372,0.159c0.141,0.045,0.294,0.081,0.46,0.107c0.166,0.027,0.341,0.04,0.524,0.04
			c0.594,0,1.035-0.128,1.324-0.385s0.434-0.605,0.434-1.047c0-0.229-0.049-0.43-0.146-0.604s-0.236-0.334-0.416-0.477
			s-0.396-0.276-0.647-0.402c-0.252-0.125-0.53-0.255-0.835-0.388c-0.242-0.106-0.501-0.234-0.776-0.383
			c-0.275-0.147-0.531-0.327-0.768-0.539c-0.236-0.211-0.433-0.46-0.589-0.747s-0.234-0.623-0.234-1.007
			c0-0.323,0.068-0.623,0.205-0.898c0.137-0.276,0.331-0.514,0.583-0.713c0.252-0.2,0.558-0.355,0.917-0.468
			s0.764-0.169,1.213-0.169c0.285,0,0.552,0.02,0.8,0.059s0.473,0.084,0.674,0.135s0.377,0.1,0.527,0.146s0.271,0.076,0.36,0.088
			l-0.076,1.96h-0.785l-0.27-1.383c-0.035-0.038-0.092-0.076-0.17-0.114s-0.173-0.072-0.284-0.103s-0.234-0.055-0.369-0.074
			c-0.135-0.019-0.274-0.028-0.419-0.028c-0.539,0-0.938,0.105-1.195,0.317c-0.258,0.211-0.387,0.52-0.387,0.927
			c0,0.229,0.048,0.427,0.144,0.596c0.096,0.17,0.233,0.325,0.413,0.468s0.396,0.28,0.65,0.411s0.537,0.271,0.85,0.419
			c0.281,0.138,0.567,0.283,0.858,0.437c0.291,0.154,0.556,0.333,0.794,0.537c0.238,0.203,0.433,0.437,0.583,0.698
			c0.15,0.263,0.226,0.568,0.226,0.919c0,0.3-0.065,0.6-0.196,0.898s-0.328,0.567-0.592,0.808c-0.264,0.239-0.596,0.435-0.996,0.585
			c-0.4,0.149-0.872,0.225-1.415,0.225c-0.348,0-0.669-0.026-0.964-0.079s-0.559-0.112-0.791-0.179s-0.433-0.129-0.601-0.188
			s-0.299-0.092-0.393-0.1L642.509,229.572z"/>
	</g>
	<g>
		<path fill="#272725" d="M981.387,230.759l1.072-0.141v-7.336l-1.072-0.152v-0.65h3.527v0.65l-1.072,0.146v7.342l1.09,0.158v0.621
			h-3.545V230.759z"/>
		<path fill="#272725" d="M986.151,230.759l0.967-0.135v-7.342l-0.967-0.152v-0.65h2.314l3.943,5.76l0.621,1.16v-6.123l-1.049-0.146
			v-0.65h2.906v0.65l-0.973,0.152v8.115h-0.961l-4.037-5.877l-0.914-1.594v6.691l1.119,0.141v0.639h-2.971V230.759z"/>
		<path fill="#272725" d="M997.073,230.759l1.529-0.141v-7.412h-1.951l-0.439,2.479h-0.85l0.205-3.205h7.418l0.188,3.205h-0.838
			l-0.445-2.479h-1.875v7.412l1.658,0.141v0.639h-4.6V230.759z"/>
		<path fill="#272725" d="M1007.701,231.404c-0.637,0-1.196-0.105-1.679-0.316s-0.887-0.512-1.213-0.901s-0.571-0.858-0.735-1.403
			c-0.164-0.546-0.246-1.148-0.246-1.807c0-0.688,0.103-1.31,0.308-1.862c0.205-0.554,0.489-1.026,0.853-1.418
			c0.363-0.393,0.792-0.693,1.286-0.904c0.494-0.212,1.03-0.317,1.608-0.317c0.637,0,1.195,0.104,1.676,0.312
			s0.881,0.502,1.201,0.882s0.561,0.839,0.721,1.378c0.16,0.538,0.24,1.136,0.24,1.793c0,0.69-0.102,1.316-0.305,1.876
			c-0.203,0.559-0.483,1.037-0.841,1.435c-0.357,0.396-0.781,0.705-1.271,0.925S1008.28,231.404,1007.701,231.404z
			 M1007.778,230.712c0.367,0,0.7-0.08,0.999-0.241c0.299-0.162,0.554-0.402,0.765-0.724c0.211-0.32,0.374-0.724,0.489-1.209
			s0.173-1.053,0.173-1.702c0-0.569-0.054-1.081-0.161-1.536c-0.107-0.456-0.265-0.842-0.472-1.158
			c-0.207-0.317-0.461-0.56-0.762-0.729s-0.643-0.254-1.025-0.254c-0.367,0-0.7,0.077-0.999,0.23
			c-0.299,0.154-0.555,0.389-0.768,0.703c-0.213,0.315-0.377,0.713-0.492,1.192c-0.115,0.48-0.173,1.045-0.173,1.693
			c0,0.569,0.054,1.084,0.161,1.545s0.265,0.854,0.472,1.179s0.461,0.574,0.762,0.748
			C1007.047,230.625,1007.391,230.712,1007.778,230.712z"/>
		<path fill="#272725" d="M1012.688,230.759l0.984-0.141v-7.342l-0.967-0.146v-0.65h3.486v0.65l-1.131,0.152v7.283h2.959
			l0.715-2.016l0.785,0.135l-0.398,2.713h-6.434V230.759z"/>
		<path fill="#272725" d="M1020.299,230.759l0.984-0.141v-7.323l-0.967-0.162v-0.653h6.106l0.164,1.859h-0.756l-0.363-1.15h-2.807
			v3.252h1.904l0.176-0.99h0.756v2.777h-0.756l-0.17-1.043h-1.91v3.422h3.223l0.662-1.535l0.75,0.223l-0.346,2.104h-6.65V230.759z"
			/>
		<path fill="#272725" d="M1028.145,230.759l0.984-0.129v-7.307l-0.926-0.15v-0.693h1.611c0.16,0,0.315,0,0.466,0s0.3,0,0.448,0
			s0.299,0,0.451,0s0.312,0,0.48,0c0.598,0,1.104,0.048,1.518,0.145c0.414,0.096,0.749,0.239,1.005,0.431
			c0.256,0.192,0.441,0.433,0.557,0.723c0.115,0.289,0.173,0.628,0.173,1.016c0,0.265-0.038,0.525-0.114,0.782
			s-0.189,0.496-0.34,0.716c-0.15,0.221-0.334,0.416-0.551,0.584c-0.217,0.169-0.466,0.296-0.747,0.38
			c0.168,0.098,0.331,0.245,0.489,0.442s0.311,0.416,0.457,0.656s0.286,0.489,0.419,0.747s0.261,0.495,0.384,0.712
			s0.24,0.4,0.352,0.551s0.218,0.237,0.319,0.261l0.457,0.141v0.633h-1.734c-0.078,0-0.159-0.049-0.243-0.146
			s-0.172-0.228-0.264-0.391c-0.092-0.162-0.187-0.349-0.284-0.56c-0.098-0.212-0.197-0.431-0.299-0.657
			c-0.102-0.228-0.205-0.455-0.311-0.685c-0.105-0.229-0.213-0.44-0.322-0.636c-0.109-0.196-0.22-0.367-0.331-0.514
			s-0.222-0.254-0.331-0.32c-0.113,0-0.242,0-0.387,0s-0.286,0-0.425,0s-0.264,0-0.375,0s-0.188-0.002-0.231-0.006v3.146
			l1.154,0.129v0.639h-3.51V230.759z M1030.5,226.798c0.066,0,0.16,0,0.281,0s0.248,0,0.381,0s0.26,0,0.381,0s0.215,0,0.281,0
			c0.246,0,0.467-0.039,0.662-0.118s0.362-0.197,0.501-0.354s0.245-0.357,0.319-0.6s0.111-0.529,0.111-0.859
			c0-0.254-0.029-0.486-0.088-0.698c-0.059-0.211-0.161-0.394-0.308-0.548c-0.146-0.153-0.343-0.273-0.589-0.36
			c-0.246-0.086-0.555-0.13-0.926-0.13c-0.145,0-0.27,0-0.375,0s-0.197,0.004-0.275,0.012s-0.146,0.016-0.202,0.023
			s-0.108,0.014-0.155,0.018V226.798z"/>
		<path fill="#272725" d="M1035.821,230.759l0.744-0.14l2.889-8.14h1.395l2.912,8.14l0.744,0.14v0.639h-3.217v-0.639l0.955-0.141
			l-0.557-1.711h-3.445l-0.533,1.711l1.002,0.141v0.639h-2.883L1035.821,230.759z M1041.446,228.164l-1.254-3.789l-0.258-0.969
			l-0.258,0.98l-1.201,3.777H1041.446z"/>
		<path fill="#272725" d="M1044.897,230.759l0.967-0.135v-7.342l-0.967-0.152v-0.65h2.314l3.943,5.76l0.621,1.16v-6.123
			l-1.049-0.146v-0.65h2.906v0.65l-0.973,0.152v8.115h-0.961l-4.037-5.877l-0.914-1.594v6.691l1.119,0.141v0.639h-2.971V230.759z"/>
		<path fill="#272725" d="M1054.307,226.914c0-0.69,0.112-1.311,0.337-1.859s0.532-1.015,0.923-1.396
			c0.391-0.382,0.851-0.674,1.38-0.878s1.099-0.307,1.708-0.307c0.266,0,0.529,0.015,0.791,0.044s0.507,0.064,0.735,0.105
			s0.435,0.082,0.618,0.123s0.332,0.071,0.445,0.091l-0.111,2.14h-0.873l-0.328-1.452c-0.078-0.099-0.238-0.182-0.48-0.248
			s-0.576-0.1-1.002-0.1c-0.371,0-0.713,0.078-1.025,0.233c-0.312,0.156-0.582,0.386-0.809,0.689s-0.403,0.68-0.53,1.128
			s-0.19,0.964-0.19,1.549c0,0.505,0.052,0.994,0.155,1.467s0.265,0.892,0.483,1.256s0.498,0.657,0.838,0.877
			c0.34,0.221,0.748,0.33,1.225,0.33c0.203,0,0.379-0.013,0.527-0.039c0.148-0.027,0.276-0.06,0.384-0.1s0.196-0.084,0.267-0.134
			c0.07-0.049,0.129-0.098,0.176-0.147l0.51-1.201l0.832,0.111l-0.258,1.754c-0.156,0.012-0.305,0.042-0.445,0.089
			c-0.141,0.048-0.298,0.099-0.472,0.152s-0.374,0.103-0.601,0.146s-0.502,0.065-0.826,0.065c-0.703,0-1.327-0.102-1.872-0.306
			s-1.004-0.499-1.377-0.884c-0.373-0.386-0.655-0.855-0.847-1.41S1054.307,227.619,1054.307,226.914z"/>
		<path fill="#272725" d="M1062.305,230.759l0.984-0.141v-7.323l-0.967-0.162v-0.653h6.105l0.164,1.859h-0.756l-0.363-1.15h-2.807
			v3.252h1.904l0.176-0.99h0.756v2.777h-0.756l-0.17-1.043h-1.91v3.422h3.223l0.662-1.535l0.75,0.223l-0.346,2.104h-6.65V230.759z"
			/>
	</g>
	<g>
		<path fill="#272725" d="M901.253,231.5c-0.637,0-1.196-0.105-1.679-0.316s-0.887-0.512-1.213-0.901s-0.571-0.858-0.735-1.403
			c-0.164-0.546-0.246-1.148-0.246-1.807c0-0.688,0.103-1.31,0.308-1.862c0.205-0.554,0.489-1.026,0.853-1.418
			c0.363-0.393,0.792-0.693,1.286-0.904c0.494-0.212,1.03-0.317,1.608-0.317c0.637,0,1.195,0.104,1.676,0.312
			s0.881,0.502,1.201,0.882s0.561,0.839,0.721,1.378c0.16,0.538,0.24,1.136,0.24,1.793c0,0.69-0.102,1.316-0.305,1.876
			c-0.203,0.559-0.483,1.037-0.841,1.435c-0.357,0.396-0.781,0.705-1.271,0.925S901.831,231.5,901.253,231.5z M901.329,230.809
			c0.367,0,0.7-0.08,0.999-0.241c0.299-0.162,0.554-0.402,0.765-0.724c0.211-0.32,0.374-0.724,0.489-1.209s0.173-1.053,0.173-1.702
			c0-0.569-0.054-1.081-0.161-1.536c-0.107-0.456-0.265-0.842-0.472-1.158c-0.207-0.317-0.461-0.56-0.762-0.729
			s-0.643-0.254-1.025-0.254c-0.367,0-0.7,0.077-0.999,0.23c-0.299,0.154-0.555,0.389-0.768,0.703
			c-0.213,0.315-0.377,0.713-0.492,1.192c-0.115,0.48-0.173,1.045-0.173,1.693c0,0.569,0.054,1.084,0.161,1.545
			s0.265,0.854,0.472,1.179s0.461,0.574,0.762,0.748C900.599,230.722,900.943,230.809,901.329,230.809z"/>
		<path fill="#272725" d="M906.228,230.856l0.984-0.129v-7.307l-0.926-0.15v-0.693h1.611c0.16,0,0.315,0,0.466,0s0.3,0,0.448,0
			s0.299,0,0.451,0s0.312,0,0.48,0c0.598,0,1.104,0.048,1.518,0.145c0.414,0.096,0.749,0.239,1.005,0.431
			c0.256,0.192,0.441,0.433,0.557,0.723c0.115,0.289,0.173,0.628,0.173,1.016c0,0.265-0.038,0.525-0.114,0.782
			s-0.189,0.496-0.34,0.716c-0.15,0.221-0.334,0.416-0.551,0.584c-0.217,0.169-0.466,0.296-0.747,0.38
			c0.168,0.098,0.331,0.245,0.489,0.442s0.311,0.416,0.457,0.656s0.286,0.489,0.419,0.747s0.261,0.495,0.384,0.712
			s0.24,0.4,0.352,0.551s0.218,0.237,0.319,0.261l0.457,0.141v0.633h-1.734c-0.078,0-0.159-0.049-0.243-0.146
			s-0.172-0.228-0.264-0.391c-0.092-0.162-0.187-0.349-0.284-0.56c-0.098-0.212-0.197-0.431-0.299-0.657
			c-0.102-0.228-0.205-0.455-0.311-0.685c-0.105-0.229-0.213-0.44-0.322-0.636c-0.109-0.196-0.22-0.367-0.331-0.514
			s-0.222-0.254-0.331-0.32c-0.113,0-0.242,0-0.387,0s-0.286,0-0.425,0s-0.264,0-0.375,0s-0.188-0.002-0.231-0.006v3.146
			l1.154,0.129v0.639h-3.51V230.856z M908.583,226.895c0.066,0,0.16,0,0.281,0s0.248,0,0.381,0s0.26,0,0.381,0s0.215,0,0.281,0
			c0.246,0,0.467-0.039,0.662-0.118s0.362-0.197,0.501-0.354s0.245-0.357,0.319-0.6s0.111-0.529,0.111-0.859
			c0-0.254-0.029-0.486-0.088-0.698c-0.059-0.211-0.161-0.394-0.308-0.548c-0.146-0.153-0.343-0.273-0.589-0.36
			c-0.246-0.086-0.555-0.13-0.926-0.13c-0.145,0-0.27,0-0.375,0s-0.197,0.004-0.275,0.012s-0.146,0.016-0.202,0.023
			s-0.108,0.014-0.155,0.018V226.895z"/>
		<path fill="#272725" d="M914.613,227.15c0-0.724,0.117-1.369,0.352-1.935c0.234-0.566,0.557-1.046,0.967-1.438
			s0.894-0.691,1.45-0.897c0.557-0.205,1.155-0.309,1.796-0.309c0.312,0,0.615,0.015,0.908,0.044s0.563,0.064,0.812,0.105
			s0.466,0.083,0.653,0.126s0.334,0.076,0.439,0.1l-0.117,1.977h-0.902l-0.316-1.308c-0.035-0.032-0.089-0.07-0.161-0.112
			c-0.072-0.043-0.17-0.081-0.293-0.116s-0.276-0.065-0.46-0.091c-0.184-0.026-0.402-0.039-0.656-0.039
			c-0.422,0-0.81,0.075-1.163,0.225c-0.354,0.15-0.658,0.375-0.914,0.675s-0.455,0.674-0.598,1.121
			c-0.143,0.448-0.214,0.97-0.214,1.565c0,0.342,0.024,0.676,0.073,1.002s0.124,0.636,0.226,0.931
			c0.102,0.294,0.229,0.565,0.381,0.813s0.333,0.463,0.542,0.643c0.209,0.181,0.445,0.321,0.709,0.422s0.558,0.15,0.882,0.15
			c0.164,0,0.329-0.01,0.495-0.029s0.324-0.05,0.475-0.091s0.288-0.093,0.413-0.155s0.232-0.137,0.322-0.223v-2.566l-1.436-0.135
			v-0.756h3.498v0.756l-0.686,0.123v3.164c-0.152,0-0.331,0.033-0.536,0.098c-0.205,0.065-0.439,0.137-0.703,0.213
			c-0.264,0.077-0.558,0.146-0.882,0.207c-0.324,0.062-0.684,0.092-1.078,0.092c-0.676,0-1.278-0.11-1.808-0.331
			c-0.529-0.222-0.978-0.526-1.345-0.915s-0.646-0.848-0.838-1.378C914.708,228.347,914.613,227.772,914.613,227.15z"/>
		<path fill="#272725" d="M922.822,230.856l0.744-0.14l2.889-8.14h1.395l2.912,8.14l0.744,0.14v0.639h-3.217v-0.639l0.955-0.141
			l-0.557-1.711h-3.445l-0.533,1.711l1.002,0.141v0.639h-2.883L922.822,230.856z M928.447,228.26l-1.254-3.789l-0.258-0.969
			l-0.258,0.98l-1.201,3.777H928.447z"/>
		<path fill="#272725" d="M931.898,230.856l0.967-0.135v-7.342l-0.967-0.152v-0.65h2.314l3.943,5.76l0.621,1.16v-6.123l-1.049-0.146
			v-0.65h2.906v0.65l-0.973,0.152v8.115h-0.961l-4.037-5.877l-0.914-1.594v6.691l1.119,0.141v0.639h-2.971V230.856z"/>
		<path fill="#272725" d="M941.577,230.856l1.072-0.141v-7.336l-1.072-0.152v-0.65h3.527v0.65l-1.072,0.146v7.342l1.09,0.158v0.621
			h-3.545V230.856z"/>
		<path fill="#272725" d="M946.154,227.01c0-0.69,0.112-1.311,0.337-1.859s0.532-1.015,0.923-1.396
			c0.391-0.382,0.851-0.674,1.38-0.878s1.099-0.307,1.708-0.307c0.266,0,0.529,0.015,0.791,0.044s0.507,0.064,0.735,0.105
			s0.435,0.082,0.618,0.123s0.332,0.071,0.445,0.091l-0.111,2.14h-0.873l-0.328-1.452c-0.078-0.099-0.238-0.182-0.48-0.248
			s-0.576-0.1-1.002-0.1c-0.371,0-0.713,0.078-1.025,0.233c-0.312,0.156-0.582,0.386-0.809,0.689s-0.403,0.68-0.53,1.128
			s-0.19,0.964-0.19,1.549c0,0.505,0.052,0.994,0.155,1.467s0.265,0.892,0.483,1.256s0.498,0.657,0.838,0.877
			c0.34,0.221,0.748,0.33,1.225,0.33c0.203,0,0.379-0.013,0.527-0.039c0.148-0.027,0.276-0.06,0.384-0.1s0.196-0.084,0.267-0.134
			c0.07-0.049,0.129-0.098,0.176-0.147l0.51-1.201l0.832,0.111l-0.258,1.754c-0.156,0.012-0.305,0.042-0.445,0.089
			c-0.141,0.048-0.298,0.099-0.472,0.152s-0.374,0.103-0.601,0.146s-0.502,0.065-0.826,0.065c-0.703,0-1.327-0.102-1.872-0.306
			s-1.004-0.499-1.377-0.884c-0.373-0.386-0.655-0.855-0.847-1.41S946.154,227.715,946.154,227.01z"/>
	</g>
	<g>
		<path fill="#272725" d="M787.969,230.999l0.967-0.135v-7.342l-0.967-0.152v-0.65h2.314l3.943,5.76l0.621,1.16v-6.123l-1.049-0.146
			v-0.65h2.906v0.65l-0.973,0.152v8.115h-0.961l-4.037-5.877l-0.914-1.594v6.691l1.119,0.141v0.639h-2.971V230.999z"/>
		<path fill="#272725" d="M798.071,223.552l-0.844-0.15v-0.682h3.27v0.682l-0.996,0.15v4.412c0,0.558,0.053,1.027,0.158,1.407
			c0.105,0.381,0.255,0.688,0.448,0.92c0.193,0.233,0.425,0.399,0.694,0.502s0.568,0.153,0.896,0.153
			c0.352,0,0.658-0.066,0.92-0.197c0.262-0.13,0.48-0.32,0.656-0.57s0.308-0.556,0.396-0.917c0.088-0.362,0.132-0.772,0.132-1.234
			v-4.476l-0.967-0.15v-0.682h2.807v0.682l-0.867,0.15v4.424c0,0.635-0.082,1.184-0.246,1.646c-0.164,0.461-0.391,0.843-0.68,1.143
			c-0.289,0.301-0.631,0.522-1.025,0.664c-0.395,0.143-0.822,0.215-1.283,0.215c-0.605,0-1.127-0.076-1.564-0.226
			c-0.438-0.15-0.797-0.38-1.078-0.69s-0.489-0.705-0.624-1.184c-0.135-0.479-0.202-1.049-0.202-1.707V223.552z"/>
		<path fill="#272725" d="M807.727,230.999l1.529-0.141v-7.412h-1.951l-0.439,2.479h-0.85l0.205-3.205h7.418l0.188,3.205h-0.838
			l-0.445-2.479h-1.875v7.412l1.658,0.141v0.639h-4.6V230.999z"/>
		<path fill="#272725" d="M814.659,230.999l0.984-0.129v-7.308l-0.926-0.149v-0.693h1.611c0.16,0,0.315,0,0.466,0s0.3,0,0.448,0
			s0.299,0,0.451,0s0.312,0,0.48,0c0.598,0,1.104,0.047,1.518,0.144c0.414,0.096,0.749,0.239,1.005,0.431
			c0.256,0.192,0.441,0.434,0.557,0.723s0.173,0.629,0.173,1.016c0,0.265-0.038,0.525-0.114,0.782s-0.189,0.496-0.34,0.716
			c-0.15,0.221-0.334,0.416-0.551,0.584c-0.217,0.17-0.466,0.296-0.747,0.381c0.168,0.098,0.331,0.244,0.489,0.441
			s0.311,0.416,0.457,0.656s0.286,0.49,0.419,0.748s0.261,0.494,0.384,0.711s0.24,0.4,0.352,0.551s0.218,0.238,0.319,0.262
			l0.457,0.141v0.633h-1.734c-0.078,0-0.159-0.049-0.243-0.146c-0.084-0.099-0.172-0.229-0.264-0.391s-0.187-0.35-0.284-0.561
			s-0.197-0.431-0.299-0.657c-0.102-0.228-0.205-0.455-0.311-0.685c-0.105-0.229-0.213-0.44-0.322-0.636
			c-0.109-0.196-0.22-0.366-0.331-0.514c-0.111-0.146-0.222-0.253-0.331-0.319c-0.113,0-0.242,0-0.387,0s-0.286,0-0.425,0
			s-0.264,0-0.375,0s-0.188-0.002-0.231-0.006v3.146l1.154,0.129v0.639h-3.51V230.999z M817.014,227.039c0.066,0,0.16,0,0.281,0
			s0.248,0,0.381,0s0.26,0,0.381,0s0.215,0,0.281,0c0.246,0,0.467-0.04,0.662-0.119c0.195-0.078,0.362-0.197,0.501-0.354
			c0.139-0.158,0.245-0.358,0.319-0.601s0.111-0.528,0.111-0.859c0-0.253-0.029-0.486-0.088-0.698
			c-0.059-0.211-0.161-0.394-0.308-0.547c-0.146-0.154-0.343-0.274-0.589-0.361c-0.246-0.086-0.555-0.129-0.926-0.129
			c-0.145,0-0.27,0-0.375,0s-0.197,0.004-0.275,0.012s-0.146,0.016-0.202,0.022c-0.057,0.008-0.108,0.014-0.155,0.018V227.039z"/>
		<path fill="#272725" d="M823.19,230.999l1.072-0.141v-7.336l-1.072-0.152v-0.65h3.527v0.65l-1.072,0.146v7.342l1.09,0.158v0.621
			h-3.545V230.999z"/>
		<path fill="#272725" d="M827.942,230.999l0.984-0.141v-7.324l-0.967-0.162v-0.652h6.105l0.164,1.858h-0.756l-0.363-1.149h-2.807
			v3.252h1.904l0.176-0.99h0.756v2.777h-0.756l-0.17-1.043h-1.91v3.422h3.223l0.662-1.535l0.75,0.223l-0.346,2.104h-6.65V230.999z"
			/>
		<path fill="#272725" d="M835.799,230.999l0.967-0.135v-7.342l-0.967-0.152v-0.65h2.314l3.943,5.76l0.621,1.16v-6.123l-1.049-0.146
			v-0.65h2.906v0.65l-0.973,0.152v8.115h-0.961l-4.037-5.877l-0.914-1.594v6.691l1.119,0.141v0.639h-2.971V230.999z"/>
		<path fill="#272725" d="M846.721,230.999l1.529-0.141v-7.412h-1.951l-0.439,2.479h-0.85l0.205-3.205h7.418l0.188,3.205h-0.838
			l-0.445-2.479h-1.875v7.412l1.658,0.141v0.639h-4.6V230.999z"/>
		<path fill="#272725" d="M853.875,228.988h0.814l0.234,1.457c0.062,0.064,0.147,0.127,0.255,0.188
			c0.107,0.061,0.231,0.114,0.372,0.159s0.294,0.082,0.46,0.107c0.166,0.027,0.341,0.041,0.524,0.041
			c0.594,0,1.035-0.129,1.324-0.386s0.434-0.605,0.434-1.047c0-0.228-0.049-0.43-0.146-0.604s-0.236-0.334-0.416-0.477
			s-0.396-0.276-0.647-0.402c-0.252-0.125-0.53-0.254-0.835-0.388c-0.242-0.106-0.501-0.233-0.776-0.382s-0.531-0.328-0.768-0.539
			s-0.433-0.461-0.589-0.748s-0.234-0.623-0.234-1.006c0-0.324,0.068-0.623,0.205-0.899s0.331-0.513,0.583-0.713
			s0.558-0.355,0.917-0.468s0.764-0.168,1.213-0.168c0.285,0,0.552,0.02,0.8,0.059s0.473,0.084,0.674,0.135s0.377,0.1,0.527,0.146
			s0.271,0.076,0.36,0.088l-0.076,1.959h-0.785l-0.27-1.383c-0.035-0.038-0.092-0.076-0.17-0.113
			c-0.078-0.039-0.173-0.072-0.284-0.104c-0.111-0.029-0.234-0.055-0.369-0.074c-0.135-0.018-0.274-0.027-0.419-0.027
			c-0.539,0-0.938,0.105-1.195,0.316s-0.387,0.52-0.387,0.927c0,0.229,0.048,0.427,0.144,0.597c0.096,0.169,0.233,0.324,0.413,0.467
			s0.396,0.28,0.65,0.412c0.254,0.131,0.537,0.271,0.85,0.418c0.281,0.138,0.567,0.283,0.858,0.438s0.556,0.332,0.794,0.536
			c0.238,0.203,0.433,0.437,0.583,0.698c0.15,0.264,0.226,0.568,0.226,0.919c0,0.3-0.065,0.601-0.196,0.898
			c-0.131,0.299-0.328,0.567-0.592,0.808s-0.596,0.435-0.996,0.585c-0.4,0.149-0.872,0.226-1.415,0.226
			c-0.348,0-0.669-0.027-0.964-0.08s-0.559-0.111-0.791-0.178s-0.433-0.129-0.601-0.188s-0.299-0.092-0.393-0.1L853.875,228.988z"/>
	</g>
	<g>
		<path fill="#272725" d="M1190.591,227.225c0-0.69,0.112-1.311,0.337-1.859s0.532-1.015,0.923-1.396
			c0.391-0.382,0.851-0.674,1.38-0.878s1.099-0.307,1.708-0.307c0.266,0,0.529,0.015,0.791,0.044s0.507,0.064,0.735,0.105
			s0.435,0.082,0.618,0.123s0.332,0.071,0.445,0.091l-0.111,2.14h-0.873l-0.328-1.452c-0.078-0.099-0.238-0.182-0.48-0.248
			s-0.576-0.1-1.002-0.1c-0.371,0-0.713,0.078-1.025,0.233c-0.312,0.156-0.582,0.386-0.809,0.689s-0.403,0.68-0.53,1.128
			s-0.19,0.964-0.19,1.549c0,0.505,0.052,0.994,0.155,1.467s0.265,0.892,0.483,1.256s0.498,0.657,0.838,0.877
			c0.34,0.221,0.748,0.33,1.225,0.33c0.203,0,0.379-0.013,0.527-0.039c0.148-0.027,0.276-0.06,0.384-0.1s0.196-0.084,0.267-0.134
			c0.07-0.049,0.129-0.098,0.176-0.147l0.51-1.201l0.832,0.111l-0.258,1.754c-0.156,0.012-0.305,0.042-0.445,0.089
			c-0.141,0.048-0.298,0.099-0.472,0.152s-0.374,0.103-0.601,0.146s-0.502,0.065-0.826,0.065c-0.703,0-1.327-0.102-1.872-0.306
			s-1.004-0.499-1.377-0.884c-0.373-0.386-0.655-0.855-0.847-1.41S1190.591,227.93,1190.591,227.225z"/>
		<path fill="#272725" d="M1202.286,231.715c-0.637,0-1.196-0.105-1.679-0.316s-0.887-0.512-1.213-0.901s-0.571-0.858-0.735-1.403
			c-0.164-0.546-0.246-1.148-0.246-1.807c0-0.688,0.103-1.31,0.308-1.862c0.205-0.554,0.489-1.026,0.853-1.418
			c0.363-0.393,0.792-0.693,1.286-0.904c0.494-0.212,1.03-0.317,1.608-0.317c0.637,0,1.195,0.104,1.676,0.312
			s0.881,0.502,1.201,0.882s0.561,0.839,0.721,1.378c0.16,0.538,0.24,1.136,0.24,1.793c0,0.69-0.102,1.316-0.305,1.876
			c-0.203,0.559-0.483,1.037-0.841,1.435c-0.357,0.396-0.781,0.705-1.271,0.925S1202.865,231.715,1202.286,231.715z
			 M1202.363,231.024c0.367,0,0.7-0.08,0.999-0.241c0.299-0.162,0.554-0.402,0.765-0.724c0.211-0.32,0.374-0.724,0.489-1.209
			s0.173-1.053,0.173-1.702c0-0.569-0.054-1.081-0.161-1.536c-0.107-0.456-0.265-0.842-0.472-1.158
			c-0.207-0.317-0.461-0.56-0.762-0.729s-0.643-0.254-1.025-0.254c-0.367,0-0.7,0.077-0.999,0.23
			c-0.299,0.154-0.555,0.389-0.768,0.703c-0.213,0.315-0.377,0.713-0.492,1.192c-0.115,0.48-0.173,1.045-0.173,1.693
			c0,0.569,0.054,1.084,0.161,1.545s0.265,0.854,0.472,1.179s0.461,0.574,0.762,0.748
			C1201.632,230.937,1201.976,231.024,1202.363,231.024z"/>
		<path fill="#272725" d="M1207.273,231.071l0.967-0.135v-7.342l-0.967-0.152v-0.65h2.314l3.943,5.76l0.621,1.16v-6.123
			l-1.049-0.146v-0.65h2.906v0.65l-0.973,0.152v8.115h-0.961l-4.037-5.877l-0.914-1.594v6.691l1.119,0.141v0.639h-2.971V231.071z"/>
		<path fill="#272725" d="M1217.081,229.06h0.814l0.234,1.457c0.062,0.064,0.147,0.127,0.255,0.188
			c0.107,0.061,0.231,0.113,0.372,0.159c0.141,0.045,0.294,0.081,0.46,0.107c0.166,0.027,0.341,0.04,0.524,0.04
			c0.594,0,1.035-0.128,1.324-0.385s0.434-0.605,0.434-1.047c0-0.229-0.049-0.43-0.146-0.604s-0.236-0.334-0.416-0.477
			s-0.396-0.276-0.647-0.402c-0.252-0.125-0.53-0.255-0.835-0.388c-0.242-0.106-0.501-0.234-0.776-0.383
			c-0.275-0.147-0.531-0.327-0.768-0.539c-0.236-0.211-0.433-0.46-0.589-0.747s-0.234-0.623-0.234-1.007
			c0-0.323,0.068-0.623,0.205-0.898c0.137-0.276,0.331-0.514,0.583-0.713c0.252-0.2,0.558-0.355,0.917-0.468
			s0.764-0.169,1.213-0.169c0.285,0,0.552,0.02,0.8,0.059s0.473,0.084,0.674,0.135s0.377,0.1,0.527,0.146s0.271,0.076,0.36,0.088
			l-0.076,1.96h-0.785l-0.27-1.383c-0.035-0.038-0.092-0.076-0.17-0.114s-0.173-0.072-0.284-0.103s-0.234-0.055-0.369-0.074
			c-0.135-0.019-0.274-0.028-0.419-0.028c-0.539,0-0.938,0.105-1.195,0.317c-0.258,0.211-0.387,0.52-0.387,0.927
			c0,0.229,0.048,0.427,0.144,0.596c0.096,0.17,0.233,0.325,0.413,0.468s0.396,0.28,0.65,0.411s0.537,0.271,0.85,0.419
			c0.281,0.138,0.567,0.283,0.858,0.437c0.291,0.154,0.556,0.333,0.794,0.537c0.238,0.203,0.433,0.437,0.583,0.698
			c0.15,0.263,0.226,0.568,0.226,0.919c0,0.3-0.065,0.6-0.196,0.898s-0.328,0.567-0.592,0.808c-0.264,0.239-0.596,0.435-0.996,0.585
			c-0.4,0.149-0.872,0.225-1.415,0.225c-0.348,0-0.669-0.026-0.964-0.079s-0.559-0.112-0.791-0.179s-0.433-0.129-0.601-0.188
			s-0.299-0.092-0.393-0.1L1217.081,229.06z"/>
		<path fill="#272725" d="M1227.031,231.071l1.043-0.135l0.879-7.348l-1.254-0.146v-0.65h3.199l1.84,5.373l0.305,1.348l0.264-1.348
			l1.623-5.373h3.199v0.65l-1.301,0.152l1.137,7.336l1.049,0.141v0.639h-3.48v-0.639l1.037-0.135l-0.738-5.32l-0.258-2.338
			l-0.404,1.605l-1.91,6.428h-0.756l-2.115-5.771l-0.65-2.256l-0.188,2.326l-0.475,5.32l1.154,0.141v0.639h-3.199V231.071z"/>
		<path fill="#272725" d="M1239.669,231.071l1.072-0.141v-7.336l-1.072-0.152v-0.65h3.527v0.65l-1.072,0.146v7.342l1.09,0.158v0.621
			h-3.545V231.071z"/>
		<path fill="#272725" d="M1244.433,231.071l0.984-0.141v-7.342l-0.967-0.146v-0.65h3.486v0.65l-1.131,0.152v7.283h2.959
			l0.715-2.016l0.785,0.135l-0.398,2.713h-6.434V231.071z"/>
		<path fill="#272725" d="M1252.05,231.071l0.99-0.141v-7.342l-0.967-0.146v-0.65h3.293v0.65l-0.949,0.152v4.102l3.387-4.107
			l-0.967-0.146l-0.006-0.65h2.988v0.645l-0.914,0.152l-2.514,2.848c0.141,0.125,0.29,0.283,0.448,0.475s0.318,0.402,0.48,0.633
			s0.325,0.473,0.489,0.727s0.324,0.504,0.48,0.75s0.306,0.482,0.448,0.709s0.274,0.427,0.396,0.601s0.229,0.314,0.322,0.422
			s0.17,0.167,0.229,0.179l0.527,0.146v0.633h-1.799c-0.098,0-0.212-0.082-0.343-0.246s-0.273-0.376-0.428-0.636
			s-0.317-0.552-0.489-0.876s-0.347-0.647-0.524-0.97s-0.355-0.626-0.533-0.911s-0.349-0.52-0.513-0.703l-1.166,1.342v2.227
			l1.102,0.141v0.633h-3.469V231.071z"/>
	</g>
	<g>
		<path fill="#272725" d="M1083.819,230.749l1.529-0.141v-7.412h-1.951l-0.439,2.479h-0.85l0.205-3.205h7.418l0.188,3.205h-0.838
			l-0.445-2.479h-1.875v7.412l1.658,0.141v0.639h-4.6V230.749z"/>
		<path fill="#272725" d="M1090.75,230.749l0.984-0.129v-7.307l-0.926-0.15v-0.693h1.611c0.16,0,0.315,0,0.466,0s0.3,0,0.448,0
			s0.299,0,0.451,0s0.312,0,0.48,0c0.598,0,1.104,0.048,1.518,0.145c0.414,0.096,0.749,0.239,1.005,0.431
			c0.256,0.192,0.441,0.433,0.557,0.723c0.115,0.289,0.173,0.628,0.173,1.016c0,0.265-0.038,0.525-0.114,0.782
			s-0.189,0.496-0.34,0.716c-0.15,0.221-0.334,0.416-0.551,0.584c-0.217,0.169-0.466,0.296-0.747,0.38
			c0.168,0.098,0.331,0.245,0.489,0.442s0.311,0.416,0.457,0.656s0.286,0.489,0.419,0.747s0.261,0.495,0.384,0.712
			s0.24,0.4,0.352,0.551s0.218,0.237,0.319,0.261l0.457,0.141v0.633h-1.734c-0.078,0-0.159-0.049-0.243-0.146
			s-0.172-0.228-0.264-0.391c-0.092-0.162-0.187-0.349-0.284-0.56c-0.098-0.212-0.197-0.431-0.299-0.657
			c-0.102-0.228-0.205-0.455-0.311-0.685c-0.105-0.229-0.213-0.44-0.322-0.636c-0.109-0.196-0.22-0.367-0.331-0.514
			s-0.222-0.254-0.331-0.32c-0.113,0-0.242,0-0.387,0s-0.286,0-0.425,0s-0.264,0-0.375,0s-0.188-0.002-0.231-0.006v3.146
			l1.154,0.129v0.639h-3.51V230.749z M1093.106,226.789c0.066,0,0.16,0,0.281,0s0.248,0,0.381,0s0.26,0,0.381,0s0.215,0,0.281,0
			c0.246,0,0.467-0.039,0.662-0.118s0.362-0.197,0.501-0.354s0.245-0.357,0.319-0.6s0.111-0.529,0.111-0.859
			c0-0.254-0.029-0.486-0.088-0.698c-0.059-0.211-0.161-0.394-0.308-0.548c-0.146-0.153-0.343-0.273-0.589-0.36
			c-0.246-0.086-0.555-0.13-0.926-0.13c-0.145,0-0.27,0-0.375,0s-0.197,0.004-0.275,0.012s-0.146,0.016-0.202,0.023
			s-0.108,0.014-0.155,0.018V226.789z"/>
		<path fill="#272725" d="M1098.426,230.749l0.744-0.14l2.889-8.14h1.395l2.912,8.14l0.744,0.14v0.639h-3.217v-0.639l0.955-0.141
			l-0.557-1.711h-3.445l-0.533,1.711l1.002,0.141v0.639h-2.883L1098.426,230.749z M1104.051,228.154l-1.254-3.789l-0.258-0.969
			l-0.258,0.98l-1.201,3.777H1104.051z"/>
		<path fill="#272725" d="M1107.485,230.695l0.99-0.139v-7.222l-0.926-0.149v-0.715h1.564c0.18,0,0.356,0,0.53,0s0.347,0,0.519,0
			s0.345,0,0.519,0s0.354,0,0.542,0c0.77,0,1.434,0.098,1.992,0.292c0.559,0.195,1.019,0.474,1.38,0.837
			c0.361,0.362,0.628,0.801,0.8,1.314s0.258,1.089,0.258,1.727c0,0.714-0.11,1.364-0.331,1.95s-0.531,1.088-0.932,1.504
			s-0.88,0.735-1.438,0.959s-1.178,0.335-1.857,0.335c-0.148,0-0.304,0-0.466,0s-0.326,0-0.492,0s-0.331,0-0.495,0s-0.32,0-0.469,0
			h-1.688V230.695z M1109.846,230.614c0.223,0.067,0.445,0.101,0.668,0.101s0.461,0,0.715,0c0.426,0,0.818-0.082,1.178-0.245
			c0.359-0.164,0.669-0.405,0.929-0.724c0.26-0.317,0.462-0.714,0.606-1.188c0.145-0.474,0.217-1.027,0.217-1.659
			c0-1.234-0.268-2.172-0.803-2.814c-0.535-0.642-1.35-0.963-2.443-0.963c-0.258,0-0.474,0.014-0.647,0.039
			c-0.174,0.026-0.313,0.044-0.419,0.054V230.614z"/>
		<path fill="#272725" d="M1116.731,230.749l1.072-0.141v-7.336l-1.072-0.152v-0.65h3.527v0.65l-1.072,0.146v7.342l1.09,0.158v0.621
			h-3.545V230.749z"/>
		<path fill="#272725" d="M1122.819,230.749l1.529-0.141v-7.412h-1.951l-0.439,2.479h-0.85l0.205-3.205h7.418l0.188,3.205h-0.838
			l-0.445-2.479h-1.875v7.412l1.658,0.141v0.639h-4.6V230.749z"/>
		<path fill="#272725" d="M1129.844,230.749l1.072-0.141v-7.336l-1.072-0.152v-0.65h3.527v0.65l-1.072,0.146v7.342l1.09,0.158v0.621
			h-3.545V230.749z"/>
		<path fill="#272725" d="M1138.293,231.394c-0.637,0-1.196-0.105-1.679-0.316s-0.887-0.512-1.213-0.901s-0.571-0.858-0.735-1.403
			c-0.164-0.546-0.246-1.148-0.246-1.807c0-0.688,0.103-1.31,0.308-1.862c0.205-0.554,0.489-1.026,0.853-1.418
			c0.363-0.393,0.792-0.693,1.286-0.904c0.494-0.212,1.03-0.317,1.608-0.317c0.637,0,1.195,0.104,1.676,0.312
			s0.881,0.502,1.201,0.882s0.561,0.839,0.721,1.378c0.16,0.538,0.24,1.136,0.24,1.793c0,0.69-0.102,1.316-0.305,1.876
			c-0.203,0.559-0.483,1.037-0.841,1.435c-0.357,0.396-0.781,0.705-1.271,0.925S1138.871,231.394,1138.293,231.394z
			 M1138.37,230.703c0.367,0,0.7-0.08,0.999-0.241c0.299-0.162,0.554-0.402,0.765-0.724c0.211-0.32,0.374-0.724,0.489-1.209
			s0.173-1.053,0.173-1.702c0-0.569-0.054-1.081-0.161-1.536c-0.107-0.456-0.265-0.842-0.472-1.158
			c-0.207-0.317-0.461-0.56-0.762-0.729s-0.643-0.254-1.025-0.254c-0.367,0-0.7,0.077-0.999,0.23
			c-0.299,0.154-0.555,0.389-0.768,0.703c-0.213,0.315-0.377,0.713-0.492,1.192c-0.115,0.48-0.173,1.045-0.173,1.693
			c0,0.569,0.054,1.084,0.161,1.545s0.265,0.854,0.472,1.179s0.461,0.574,0.762,0.748
			C1137.639,230.616,1137.983,230.703,1138.37,230.703z"/>
		<path fill="#272725" d="M1143.28,230.749l0.967-0.135v-7.342l-0.967-0.152v-0.65h2.314l3.943,5.76l0.621,1.16v-6.123l-1.049-0.146
			v-0.65h2.906v0.65l-0.973,0.152v8.115h-0.961l-4.037-5.877l-0.914-1.594v6.691l1.119,0.141v0.639h-2.971V230.749z"/>
		<path fill="#272725" d="M1152.104,230.749l0.744-0.14l2.889-8.14h1.395l2.912,8.14l0.744,0.14v0.639h-3.217v-0.639l0.955-0.141
			l-0.557-1.711h-3.445l-0.533,1.711l1.002,0.141v0.639h-2.883L1152.104,230.749z M1157.729,228.154l-1.254-3.789l-0.258-0.969
			l-0.258,0.98l-1.201,3.777H1157.729z"/>
		<path fill="#272725" d="M1161.18,230.749l0.984-0.141v-7.342l-0.967-0.146v-0.65h3.486v0.65l-1.131,0.152v7.283h2.959l0.715-2.016
			l0.785,0.135l-0.398,2.713h-6.434V230.749z"/>
		<path fill="#272725" d="M1106.884,245.15l0.967-0.141v-7.342l-0.984-0.146v-0.65h6.398l0.123,2.051h-0.85l-0.387-1.342h-2.924
			v3.363h2.039l0.234-0.996h0.721v2.795h-0.721l-0.234-1.025h-2.039v3.293l1.781,0.141v0.639h-4.125V245.15z"/>
		<path fill="#272725" d="M1118.005,245.794c-0.637,0-1.196-0.105-1.679-0.317c-0.482-0.211-0.887-0.511-1.213-0.901
			c-0.326-0.39-0.571-0.857-0.735-1.403s-0.246-1.147-0.246-1.806c0-0.688,0.103-1.31,0.308-1.863s0.489-1.026,0.853-1.418
			s0.792-0.693,1.286-0.904s1.03-0.316,1.608-0.316c0.637,0,1.195,0.104,1.676,0.312c0.48,0.209,0.881,0.503,1.201,0.883
			s0.561,0.839,0.721,1.377c0.16,0.539,0.24,1.137,0.24,1.793c0,0.691-0.102,1.316-0.305,1.876s-0.483,1.038-0.841,1.435
			c-0.357,0.397-0.781,0.706-1.271,0.926C1119.118,245.684,1118.583,245.794,1118.005,245.794z M1118.081,245.103
			c0.367,0,0.7-0.081,0.999-0.242s0.554-0.402,0.765-0.723s0.374-0.724,0.489-1.21c0.115-0.485,0.173-1.053,0.173-1.701
			c0-0.569-0.054-1.082-0.161-1.537s-0.265-0.841-0.472-1.158c-0.207-0.316-0.461-0.56-0.762-0.729s-0.643-0.253-1.025-0.253
			c-0.367,0-0.7,0.077-0.999,0.23s-0.555,0.388-0.768,0.703c-0.213,0.314-0.377,0.712-0.492,1.192
			c-0.115,0.479-0.173,1.044-0.173,1.692c0,0.569,0.054,1.085,0.161,1.546s0.265,0.854,0.472,1.178
			c0.207,0.325,0.461,0.574,0.762,0.749C1117.351,245.015,1117.695,245.103,1118.081,245.103z"/>
		<path fill="#272725" d="M1126.677,245.794c-0.637,0-1.196-0.105-1.679-0.317c-0.482-0.211-0.887-0.511-1.213-0.901
			c-0.326-0.39-0.571-0.857-0.735-1.403s-0.246-1.147-0.246-1.806c0-0.688,0.103-1.31,0.308-1.863s0.489-1.026,0.853-1.418
			s0.792-0.693,1.286-0.904s1.03-0.316,1.608-0.316c0.637,0,1.195,0.104,1.676,0.312c0.48,0.209,0.881,0.503,1.201,0.883
			s0.561,0.839,0.721,1.377c0.16,0.539,0.24,1.137,0.24,1.793c0,0.691-0.102,1.316-0.305,1.876s-0.483,1.038-0.841,1.435
			c-0.357,0.397-0.781,0.706-1.271,0.926C1127.789,245.684,1127.255,245.794,1126.677,245.794z M1126.753,245.103
			c0.367,0,0.7-0.081,0.999-0.242s0.554-0.402,0.765-0.723s0.374-0.724,0.489-1.21c0.115-0.485,0.173-1.053,0.173-1.701
			c0-0.569-0.054-1.082-0.161-1.537s-0.265-0.841-0.472-1.158c-0.207-0.316-0.461-0.56-0.762-0.729s-0.643-0.253-1.025-0.253
			c-0.367,0-0.7,0.077-0.999,0.23s-0.555,0.388-0.768,0.703c-0.213,0.314-0.377,0.712-0.492,1.192
			c-0.115,0.479-0.173,1.044-0.173,1.692c0,0.569,0.054,1.085,0.161,1.546s0.265,0.854,0.472,1.178
			c0.207,0.325,0.461,0.574,0.762,0.749C1126.023,245.015,1126.367,245.103,1126.753,245.103z"/>
		<path fill="#272725" d="M1131.646,245.094l0.99-0.139v-7.221l-0.926-0.15v-0.714h1.564c0.18,0,0.356,0,0.53,0s0.347,0,0.519,0
			s0.345,0,0.519,0s0.354,0,0.542,0c0.77,0,1.434,0.098,1.992,0.292s1.019,0.474,1.38,0.836c0.361,0.363,0.628,0.801,0.8,1.314
			s0.258,1.09,0.258,1.728c0,0.714-0.11,1.363-0.331,1.95c-0.221,0.586-0.531,1.087-0.932,1.503s-0.88,0.736-1.438,0.96
			c-0.559,0.223-1.178,0.335-1.857,0.335c-0.148,0-0.304,0-0.466,0s-0.326,0-0.492,0s-0.331,0-0.495,0s-0.32,0-0.469,0h-1.688
			V245.094z M1134.007,245.013c0.223,0.067,0.445,0.102,0.668,0.102s0.461,0,0.715,0c0.426,0,0.818-0.082,1.178-0.246
			s0.669-0.405,0.929-0.723c0.26-0.318,0.462-0.715,0.606-1.188c0.145-0.475,0.217-1.027,0.217-1.66
			c0-1.233-0.268-2.172-0.803-2.813c-0.535-0.643-1.35-0.963-2.443-0.963c-0.258,0-0.474,0.013-0.647,0.039
			s-0.313,0.044-0.419,0.054V245.013z"/>
	</g>
	<g>
		<path fill="#272725" d="M690.695,231.65l0.984-0.141v-7.342l-0.967-0.146v-0.65h3.486v0.65l-1.131,0.152v7.283h2.959l0.715-2.016
			l0.785,0.135l-0.398,2.713h-6.434V231.65z"/>
		<path fill="#272725" d="M698.4,231.65l1.072-0.141v-7.336l-1.072-0.152v-0.65h3.527v0.65l-1.072,0.146v7.342l1.09,0.158v0.621
			H698.4V231.65z"/>
		<path fill="#272725" d="M703.169,231.65l0.967-0.141v-7.342l-0.984-0.146v-0.65h6.398l0.123,2.051h-0.85l-0.387-1.342h-2.924
			v3.363h2.039l0.234-0.996h0.721v2.795h-0.721l-0.234-1.025h-2.039v3.293l1.781,0.141v0.639h-4.125V231.65z"/>
		<path fill="#272725" d="M710.593,231.65l0.984-0.141v-7.323l-0.967-0.162v-0.653h6.105l0.164,1.859h-0.756l-0.363-1.15h-2.807
			v3.252h1.904l0.176-0.99h0.756v2.777h-0.756l-0.17-1.043h-1.91v3.422h3.223l0.662-1.535l0.75,0.223l-0.346,2.104h-6.65V231.65z"/>
		<path fill="#272725" d="M718.661,229.639h0.814l0.234,1.457c0.062,0.064,0.147,0.127,0.255,0.188
			c0.107,0.061,0.231,0.113,0.372,0.159c0.141,0.045,0.294,0.081,0.46,0.107c0.166,0.027,0.341,0.04,0.524,0.04
			c0.594,0,1.035-0.128,1.324-0.385s0.434-0.605,0.434-1.047c0-0.229-0.049-0.43-0.146-0.604s-0.236-0.334-0.416-0.477
			s-0.396-0.276-0.647-0.402c-0.252-0.125-0.53-0.255-0.835-0.388c-0.242-0.106-0.501-0.234-0.776-0.383
			c-0.275-0.147-0.531-0.327-0.768-0.539c-0.236-0.211-0.433-0.46-0.589-0.747s-0.234-0.623-0.234-1.007
			c0-0.323,0.068-0.623,0.205-0.898c0.137-0.276,0.331-0.514,0.583-0.713c0.252-0.2,0.558-0.355,0.917-0.468
			s0.764-0.169,1.213-0.169c0.285,0,0.552,0.02,0.8,0.059s0.473,0.084,0.674,0.135s0.377,0.1,0.527,0.146s0.271,0.076,0.36,0.088
			l-0.076,1.96h-0.785l-0.27-1.383c-0.035-0.038-0.092-0.076-0.17-0.114s-0.173-0.072-0.284-0.103s-0.234-0.055-0.369-0.074
			c-0.135-0.019-0.274-0.028-0.419-0.028c-0.539,0-0.938,0.105-1.195,0.317c-0.258,0.211-0.387,0.52-0.387,0.927
			c0,0.229,0.048,0.427,0.144,0.596c0.096,0.17,0.233,0.325,0.413,0.468s0.396,0.28,0.65,0.411s0.537,0.271,0.85,0.419
			c0.281,0.138,0.567,0.283,0.858,0.437c0.291,0.154,0.556,0.333,0.794,0.537c0.238,0.203,0.433,0.437,0.583,0.698
			c0.15,0.263,0.226,0.568,0.226,0.919c0,0.3-0.065,0.6-0.196,0.898s-0.328,0.567-0.592,0.808c-0.264,0.239-0.596,0.435-0.996,0.585
			c-0.4,0.149-0.872,0.225-1.415,0.225c-0.348,0-0.669-0.026-0.964-0.079s-0.559-0.112-0.791-0.179s-0.433-0.129-0.601-0.188
			s-0.299-0.092-0.393-0.1L718.661,229.639z"/>
		<path fill="#272725" d="M726.894,231.65l1.529-0.141v-7.412h-1.951l-0.439,2.479h-0.85l0.205-3.205h7.418l0.188,3.205h-0.838
			l-0.445-2.479h-1.875v7.412l1.658,0.141v0.639h-4.6V231.65z"/>
		<path fill="#272725" d="M735.214,231.65l1.283-0.141v-2.689l-2.648-4.641l-0.75-0.158v-0.65h3.211v0.65l-0.908,0.152l1.652,3.182
			l0.334,0.85l0.381-0.838l1.57-3.199l-0.949-0.146v-0.65h2.771v0.65l-0.779,0.146l-2.461,4.623v2.725l1.312,0.135v0.639h-4.02
			V231.65z"/>
		<path fill="#272725" d="M741.554,231.65l0.984-0.141v-7.342l-0.967-0.146v-0.65h3.486v0.65l-1.131,0.152v7.283h2.959l0.715-2.016
			l0.785,0.135l-0.398,2.713h-6.434V231.65z"/>
		<path fill="#272725" d="M749.165,231.65l0.984-0.141v-7.323l-0.967-0.162v-0.653h6.105l0.164,1.859h-0.756l-0.363-1.15h-2.807
			v3.252h1.904l0.176-0.99h0.756v2.777h-0.756l-0.17-1.043h-1.91v3.422h3.223l0.662-1.535l0.75,0.223l-0.346,2.104h-6.65V231.65z"/>
	</g>
	<line opacity="0.5" fill="none" stroke="#BCAB9F" stroke-miterlimit="10" x1="347.235" y1="47.815" x2="1224.774" y2="47.815"/>
	<line opacity="0.5" fill="none" stroke="#BCAB9F" stroke-miterlimit="10" x1="346.967" y1="154.567" x2="1224.774" y2="154.567"/>
	<line opacity="0.5" fill="none" stroke="#BCAB9F" stroke-miterlimit="10" x1="347.235" y1="40.316" x2="347.235" y2="55.316"/>
	<line opacity="0.5" fill="none" stroke="#BCAB9F" stroke-miterlimit="10" x1="346.967" y1="147.483" x2="346.967" y2="161.651"/>
	<g opacity="0.5">
		<line fill="none" stroke="#BCAB9F" stroke-miterlimit="10" x1="422.713" y1="47.816" x2="422.713" y2="213.269"/>
		<line fill="none" stroke="#BCAB9F" stroke-miterlimit="10" x1="415.629" y1="213.269" x2="429.797" y2="213.269"/>
	</g>
	<g opacity="0.5">
		<line fill="none" stroke="#BCAB9F" stroke-miterlimit="10" x1="522.845" y1="47.717" x2="522.845" y2="213.27"/>
		<line fill="none" stroke="#BCAB9F" stroke-miterlimit="10" x1="515.761" y1="213.27" x2="529.928" y2="213.27"/>
	</g>
	<g opacity="0.5">
		<line fill="none" stroke="#BCAB9F" stroke-miterlimit="10" x1="622.724" y1="47.717" x2="622.724" y2="213.17"/>
		<line fill="none" stroke="#BCAB9F" stroke-miterlimit="10" x1="615.64" y1="213.17" x2="629.808" y2="213.17"/>
	</g>
	<g opacity="0.5">
		<line fill="none" stroke="#BCAB9F" stroke-miterlimit="10" x1="722.73" y1="47.815" x2="722.73" y2="213.489"/>
		<line fill="none" stroke="#BCAB9F" stroke-miterlimit="10" x1="715.646" y1="213.489" x2="729.814" y2="213.489"/>
	</g>
	<g opacity="0.5">
		<line fill="none" stroke="#BCAB9F" stroke-miterlimit="10" x1="823.634" y1="47.815" x2="823.634" y2="213.173"/>
		<line fill="none" stroke="#BCAB9F" stroke-miterlimit="10" x1="816.55" y1="213.173" x2="830.718" y2="213.173"/>
	</g>
	<g opacity="0.5">
		<line fill="none" stroke="#BCAB9F" stroke-miterlimit="10" x1="924.979" y1="47.815" x2="924.979" y2="212.973"/>
		<line fill="none" stroke="#BCAB9F" stroke-miterlimit="10" x1="917.895" y1="212.973" x2="932.063" y2="212.973"/>
	</g>
	<g opacity="0.5">
		<line fill="none" stroke="#BCAB9F" stroke-miterlimit="10" x1="1024.794" y1="47.826" x2="1024.794" y2="213.173"/>
		<line fill="none" stroke="#BCAB9F" stroke-miterlimit="10" x1="1017.71" y1="213.173" x2="1031.878" y2="213.173"/>
	</g>
	<g opacity="0.5">
		<line fill="none" stroke="#BCAB9F" stroke-miterlimit="10" x1="1125.074" y1="47.815" x2="1125.074" y2="213.223"/>
		<line fill="none" stroke="#BCAB9F" stroke-miterlimit="10" x1="1117.991" y1="213.223" x2="1132.158" y2="213.223"/>
	</g>
	<g opacity="0.5">
		<line fill="none" stroke="#BCAB9F" stroke-miterlimit="10" x1="1225.209" y1="47.815" x2="1225.209" y2="213.223"/>
		<line fill="none" stroke="#BCAB9F" stroke-miterlimit="10" x1="1218.125" y1="213.223" x2="1232.293" y2="213.223"/>
	</g>
	<circle opacity="0.75" fill="#F79152" cx="1225.209" cy="47.889" r="7.084"/>
	<circle opacity="0.75" fill="#005356" cx="622.724" cy="48.401" r="27.436"/>
	<circle opacity="0.75" fill="#005356" cx="622.724" cy="155.401" r="36.809"/>
	<circle opacity="0.75" fill="#A7D9E9" cx="422.721" cy="154.743" r="50.589"/>
	<circle opacity="0.75" fill="#858C3E" cx="1025.069" cy="154.578" r="15.84"/>
	<circle opacity="0.75" fill="#5B6C9E" cx="723.284" cy="48.715" r="23.495"/>
	<circle opacity="0.75" fill="#5B6C9E" cx="722.952" cy="154.894" r="20.036"/>
	<circle opacity="0.75" fill="#BFB0CF" cx="823.634" cy="47.922" r="26.505"/>
	<circle opacity="0.75" fill="#BFB0CF" cx="823.863" cy="154.817" r="14.168"/>
	<circle opacity="0.75" fill="#4FA7BC" cx="924.979" cy="47.922" r="22.401"/>
	<circle opacity="0.75" fill="#4FA7BC" cx="925.292" cy="154.674" r="17.352"/>
	<circle opacity="0.75" fill="#54626F" cx="1125.074" cy="154.567" r="10.018"/>
	<circle opacity="0.75" fill="#B55872" cx="522.844" cy="47.717" r="40.694"/>
	<circle opacity="0.75" fill="#B55872" cx="522.844" cy="154.717" r="43.668"/>
	<circle opacity="0.75" fill="#A7D9E9" cx="422.728" cy="48.565" r="48.565"/>
	<g opacity="0.75">
		<line fill="none" stroke="#F79152" stroke-miterlimit="10" x1="1220.199" y1="149.88" x2="1230.218" y2="159.898"/>
		<line fill="none" stroke="#F79152" stroke-miterlimit="10" x1="1220.199" y1="159.898" x2="1230.218" y2="149.88"/>
	</g>
	<g opacity="0.75">
		<line fill="none" stroke="#858C3E" stroke-miterlimit="10" x1="1019.784" y1="42.817" x2="1029.803" y2="52.835"/>
		<line fill="none" stroke="#858C3E" stroke-miterlimit="10" x1="1019.784" y1="52.835" x2="1029.803" y2="42.817"/>
	</g>
	<g opacity="0.75">
		<line fill="none" stroke="#54626F" stroke-miterlimit="10" x1="1120.065" y1="42.806" x2="1130.084" y2="52.825"/>
		<line fill="none" stroke="#54626F" stroke-miterlimit="10" x1="1120.065" y1="52.825" x2="1130.084" y2="42.806"/>
	</g>
</g>
</svg>
