<?xml version="1.0" encoding="utf-8"?>
<!-- Generator: Adobe Illustrator 17.0.0, SVG Export Plug-In . SVG Version: 6.00 Build 0)  -->
<!DOCTYPE svg PUBLIC "-//W3C//DTD SVG 1.1//EN" "http://www.w3.org/Graphics/SVG/1.1/DTD/svg11.dtd">
<svg version="1.1" xmlns="http://www.w3.org/2000/svg" xmlns:xlink="http://www.w3.org/1999/xlink" x="0px" y="0px" width="207px"
	 height="260.809px" viewBox="0 0 207 260.809" enable-background="new 0 0 207 260.809" xml:space="preserve">
<g id="Livello_1" display="none">
	<rect id="XMLID_355_" x="-198" y="-89" display="inline" fill="#ECE1D6" width="768" height="1024"/>
</g>
<g id="Livello_2">
	<g id="XMLID_5_">
		<g>
			<path fill="#1E2122" d="M7.546,13.469c0-0.895,0.142-1.692,0.426-2.393S8.647,9.783,9.144,9.3
				c0.498-0.483,1.085-0.852,1.764-1.105c0.679-0.253,1.415-0.38,2.208-0.38c0.357,0,0.71,0.019,1.058,0.055
				c0.348,0.037,0.675,0.077,0.981,0.121s0.581,0.087,0.823,0.128c0.243,0.042,0.44,0.07,0.592,0.085l-0.176,3.202h-1.573
				l-0.515-2.155c-0.073-0.095-0.218-0.181-0.434-0.257c-0.215-0.076-0.529-0.114-0.94-0.114c-0.387,0-0.739,0.092-1.055,0.275
				s-0.585,0.457-0.808,0.82c-0.223,0.364-0.396,0.819-0.519,1.366c-0.122,0.547-0.184,1.185-0.184,1.912
				c0,0.652,0.053,1.262,0.158,1.831c0.105,0.568,0.268,1.064,0.489,1.487c0.22,0.423,0.499,0.758,0.834,1.002
				c0.335,0.245,0.736,0.368,1.202,0.368c0.21,0,0.393-0.015,0.547-0.043s0.287-0.065,0.397-0.11
				c0.11-0.045,0.201-0.095,0.272-0.149c0.071-0.055,0.131-0.11,0.18-0.167l0.706-1.577l1.426,0.132l-0.279,2.419
				c-0.235,0.024-0.455,0.066-0.658,0.126s-0.426,0.124-0.669,0.191c-0.242,0.067-0.518,0.126-0.827,0.176
				c-0.309,0.051-0.683,0.076-1.124,0.076c-0.907,0-1.702-0.128-2.385-0.384c-0.684-0.256-1.254-0.623-1.712-1.102
				c-0.458-0.478-0.802-1.061-1.033-1.747C7.661,15.096,7.546,14.325,7.546,13.469z"/>
			<path fill="#1E2122" d="M23.238,19.015c-0.872,0-1.624-0.133-2.256-0.4c-0.632-0.267-1.151-0.645-1.558-1.134
				s-0.708-1.076-0.904-1.763c-0.196-0.687-0.294-1.447-0.294-2.282c0-0.858,0.124-1.633,0.371-2.324
				c0.247-0.691,0.598-1.282,1.051-1.773s0.998-0.868,1.635-1.13c0.637-0.263,1.345-0.394,2.124-0.394
				c0.872,0,1.623,0.128,2.252,0.384c0.63,0.255,1.146,0.62,1.551,1.093s0.703,1.043,0.896,1.71
				c0.194,0.667,0.291,1.414,0.291,2.241c0,0.86-0.124,1.645-0.371,2.352c-0.248,0.707-0.597,1.313-1.047,1.817
				s-0.993,0.897-1.628,1.18C24.717,18.874,24.013,19.015,23.238,19.015z M23.305,17.993c0.735,0,1.312-0.397,1.73-1.193
				c0.419-0.795,0.628-1.98,0.628-3.557c0-0.773-0.054-1.439-0.162-1.997c-0.108-0.558-0.262-1.016-0.463-1.375
				c-0.201-0.358-0.447-0.622-0.739-0.79c-0.292-0.169-0.621-0.253-0.988-0.253c-0.368,0-0.697,0.093-0.988,0.278
				c-0.292,0.185-0.538,0.466-0.739,0.844c-0.201,0.377-0.355,0.855-0.463,1.435c-0.108,0.579-0.162,1.26-0.162,2.043
				c0,0.779,0.052,1.454,0.158,2.026c0.105,0.572,0.26,1.045,0.463,1.42c0.204,0.375,0.45,0.655,0.739,0.84
				S22.937,17.993,23.305,17.993z"/>
			<path fill="#1E2122" d="M30.12,18.022l1.146-0.184V9.126l-1.095-0.203V7.822h2.286c0.215,0,0.42,0,0.614,0
				c0.193,0,0.388,0,0.584,0s0.401,0,0.614,0s0.447,0,0.702,0c0.794,0,1.465,0.057,2.014,0.17s0.993,0.291,1.334,0.532
				c0.34,0.241,0.585,0.547,0.735,0.919c0.149,0.371,0.224,0.812,0.224,1.324c0,0.304-0.043,0.614-0.128,0.93
				c-0.086,0.315-0.218,0.612-0.397,0.89c-0.179,0.277-0.403,0.524-0.672,0.741c-0.27,0.217-0.588,0.383-0.956,0.499
				c0.27,0.113,0.512,0.286,0.728,0.518c0.216,0.233,0.412,0.494,0.588,0.783s0.335,0.588,0.478,0.896
				c0.142,0.309,0.275,0.594,0.4,0.856s0.246,0.484,0.364,0.665s0.237,0.287,0.36,0.316l0.463,0.162v0.985h-2.858
				c-0.088,0-0.178-0.062-0.269-0.184c-0.09-0.123-0.183-0.285-0.275-0.486c-0.093-0.201-0.188-0.433-0.283-0.695
				c-0.096-0.263-0.195-0.535-0.298-0.817c-0.103-0.282-0.207-0.563-0.312-0.843s-0.217-0.538-0.334-0.773
				c-0.118-0.235-0.239-0.44-0.364-0.615c-0.125-0.174-0.256-0.295-0.394-0.364c-0.132,0-0.273,0-0.422,0s-0.289,0-0.419,0
				s-0.243,0-0.338,0c-0.096,0-0.158,0-0.188,0v3.616l1.337,0.176v0.985H30.12V18.022z M33.75,13.206
				c0.044,0.013,0.119,0.022,0.224,0.026s0.218,0.006,0.338,0.006s0.236,0,0.349,0s0.201,0,0.265,0c0.529,0,0.947-0.193,1.253-0.581
				c0.306-0.387,0.459-0.993,0.459-1.816c0-0.334-0.035-0.629-0.103-0.886c-0.069-0.257-0.179-0.472-0.331-0.646
				s-0.352-0.307-0.599-0.396c-0.248-0.09-0.547-0.134-0.9-0.134c-0.279,0-0.491,0.008-0.635,0.025
				c-0.145,0.017-0.251,0.033-0.32,0.047V13.206z"/>
			<path fill="#1E2122" d="M41.793,18.022l1.146-0.184V9.126l-1.095-0.203V7.822h2.286c0.215,0,0.42,0,0.614,0
				c0.193,0,0.388,0,0.584,0s0.401,0,0.614,0s0.447,0,0.702,0c0.794,0,1.465,0.057,2.014,0.17s0.993,0.291,1.334,0.532
				c0.34,0.241,0.585,0.547,0.735,0.919c0.149,0.371,0.224,0.812,0.224,1.324c0,0.304-0.043,0.614-0.128,0.93
				c-0.086,0.315-0.218,0.612-0.397,0.89c-0.179,0.277-0.403,0.524-0.672,0.741c-0.27,0.217-0.588,0.383-0.956,0.499
				c0.27,0.113,0.512,0.286,0.728,0.518c0.216,0.233,0.412,0.494,0.588,0.783s0.335,0.588,0.478,0.896
				c0.142,0.309,0.275,0.594,0.4,0.856s0.246,0.484,0.364,0.665s0.237,0.287,0.36,0.316l0.463,0.162v0.985h-2.858
				c-0.088,0-0.178-0.062-0.269-0.184c-0.09-0.123-0.183-0.285-0.275-0.486c-0.093-0.201-0.188-0.433-0.283-0.695
				c-0.096-0.263-0.195-0.535-0.298-0.817c-0.103-0.282-0.207-0.563-0.312-0.843s-0.217-0.538-0.334-0.773
				c-0.118-0.235-0.239-0.44-0.364-0.615c-0.125-0.174-0.256-0.295-0.394-0.364c-0.132,0-0.273,0-0.422,0s-0.289,0-0.419,0
				s-0.243,0-0.338,0c-0.096,0-0.158,0-0.188,0v3.616l1.337,0.176v0.985h-4.968V18.022z M45.424,13.206
				c0.044,0.013,0.119,0.022,0.224,0.026s0.218,0.006,0.338,0.006s0.236,0,0.349,0s0.201,0,0.265,0c0.529,0,0.947-0.193,1.253-0.581
				c0.306-0.387,0.459-0.993,0.459-1.816c0-0.334-0.035-0.629-0.103-0.886c-0.069-0.257-0.179-0.472-0.331-0.646
				s-0.352-0.307-0.599-0.396c-0.248-0.09-0.547-0.134-0.9-0.134c-0.279,0-0.491,0.008-0.635,0.025
				c-0.145,0.017-0.251,0.033-0.32,0.047V13.206z"/>
			<path fill="#1E2122" d="M53.466,18.022l1.146-0.188V9.072l-1.168-0.213V7.822h8.135l0.206,2.594h-1.198l-0.515-1.529h-2.969
				v3.814h1.867l0.272-1.235h1.073v3.741h-1.073l-0.257-1.315h-1.881v3.946h3.307l0.918-1.964l1.257,0.354l-0.382,2.778h-8.738
				V18.022z"/>
			<path fill="#1E2122" d="M64.118,18.022l1.146-0.191v-8.76l-1.132-0.213V7.822h5.027v1.036l-1.396,0.213v8.671h2.896l0.97-2.925
				l1.374,0.206l-0.434,3.983h-8.451V18.022z"/>
			<path fill="#1E2122" d="M73.63,18.022l0.882-0.19l3.395-10.01h2.594l3.417,10.018l0.853,0.183v0.985h-4.652v-0.985l1.058-0.191
				l-0.529-1.815h-3.696l-0.515,1.845l1.168,0.162v0.985h-3.961L73.63,18.022z M80.317,14.885l-1.33-4.478l-0.228-1.02l-0.228,1.02
				l-1.264,4.478H80.317z"/>
			<path fill="#1E2122" d="M87.559,18.022l1.889-0.191V8.969h-1.896l-0.61,3.3h-1.396l0.22-4.446h9.752l0.213,4.446h-1.345
				l-0.647-3.3h-1.778v8.855l2.058,0.198v0.985h-6.459V18.022z"/>
			<path fill="#1E2122" d="M97.395,18.022l1.146-0.188V9.072l-1.168-0.213V7.822h8.135l0.206,2.594h-1.198l-0.515-1.529h-2.969
				v3.814h1.867l0.272-1.235h1.073v3.741h-1.073l-0.257-1.315h-1.881v3.946h3.307l0.918-1.964l1.257,0.354l-0.382,2.778h-8.738
				V18.022z"/>
			<path fill="#1E2122" d="M108.046,17.949l1.146-0.181V9.131l-1.095-0.203V7.822h2.286c0.235,0,0.459,0,0.672,0
				c0.213,0,0.424,0,0.632,0c0.208,0,0.42,0,0.636,0c0.216,0,0.443,0,0.684,0c0.941,0,1.759,0.116,2.455,0.349
				c0.696,0.233,1.271,0.572,1.727,1.018s0.796,0.99,1.021,1.633c0.225,0.643,0.338,1.374,0.338,2.194
				c0,0.877-0.132,1.685-0.396,2.42c-0.265,0.736-0.646,1.37-1.143,1.902c-0.497,0.533-1.099,0.944-1.804,1.234
				s-1.499,0.435-2.381,0.435c-0.196,0-0.403,0-0.621,0c-0.218,0-0.433,0-0.643,0s-0.413,0-0.606,0c-0.193,0-0.364,0-0.511,0h-2.396
				V17.949z M111.655,17.826c0.171,0.06,0.364,0.098,0.577,0.114c0.213,0.016,0.442,0.024,0.687,0.024
				c0.441,0,0.842-0.091,1.202-0.272c0.36-0.182,0.667-0.458,0.919-0.831c0.252-0.373,0.448-0.844,0.588-1.415
				s0.209-1.253,0.209-2.046c0-0.696-0.06-1.328-0.18-1.894s-0.308-1.048-0.562-1.448c-0.254-0.399-0.583-0.706-0.984-0.921
				c-0.402-0.215-0.885-0.323-1.448-0.323c-0.27,0-0.485,0.016-0.647,0.047c-0.162,0.032-0.282,0.055-0.36,0.069V17.826z"/>
			<path fill="#1E2122" d="M125.285,18.022l1.146-0.184V9.126l-1.095-0.203V7.822h2.286c0.215,0,0.42,0,0.614,0
				c0.193,0,0.388,0,0.584,0s0.401,0,0.614,0s0.447,0,0.702,0c0.794,0,1.465,0.057,2.014,0.17s0.993,0.291,1.334,0.532
				c0.34,0.241,0.585,0.547,0.735,0.919c0.149,0.371,0.224,0.812,0.224,1.324c0,0.304-0.043,0.614-0.128,0.93
				c-0.086,0.315-0.218,0.612-0.397,0.89c-0.179,0.277-0.403,0.524-0.672,0.741c-0.27,0.217-0.588,0.383-0.956,0.499
				c0.27,0.113,0.512,0.286,0.728,0.518c0.216,0.233,0.412,0.494,0.588,0.783s0.335,0.588,0.478,0.896
				c0.142,0.309,0.275,0.594,0.4,0.856s0.246,0.484,0.364,0.665s0.237,0.287,0.36,0.316l0.463,0.162v0.985h-2.858
				c-0.088,0-0.178-0.062-0.269-0.184c-0.09-0.123-0.183-0.285-0.275-0.486c-0.093-0.201-0.188-0.433-0.283-0.695
				c-0.096-0.263-0.195-0.535-0.298-0.817c-0.103-0.282-0.207-0.563-0.312-0.843s-0.217-0.538-0.334-0.773
				c-0.118-0.235-0.239-0.44-0.364-0.615c-0.125-0.174-0.256-0.295-0.394-0.364c-0.132,0-0.273,0-0.422,0s-0.289,0-0.419,0
				s-0.243,0-0.338,0c-0.096,0-0.158,0-0.188,0v3.616l1.337,0.176v0.985h-4.968V18.022z M128.916,13.206
				c0.044,0.013,0.119,0.022,0.224,0.026s0.218,0.006,0.338,0.006s0.236,0,0.349,0s0.201,0,0.265,0c0.529,0,0.947-0.193,1.253-0.581
				c0.306-0.387,0.459-0.993,0.459-1.816c0-0.334-0.035-0.629-0.103-0.886c-0.069-0.257-0.179-0.472-0.331-0.646
				s-0.352-0.307-0.599-0.396c-0.248-0.09-0.547-0.134-0.9-0.134c-0.279,0-0.491,0.008-0.635,0.025
				c-0.145,0.017-0.251,0.033-0.32,0.047V13.206z"/>
			<path fill="#1E2122" d="M136.958,18.022l1.146-0.188V9.072l-1.168-0.213V7.822h8.135l0.206,2.594h-1.198l-0.515-1.529h-2.969
				v3.814h1.867l0.272-1.235h1.073v3.741h-1.073l-0.257-1.315h-1.881v3.946h3.307l0.918-1.964l1.257,0.354l-0.382,2.778h-8.738
				V18.022z"/>
			<path fill="#1E2122" d="M147.984,15.628h1.375l0.375,1.808c0.112,0.133,0.319,0.253,0.621,0.36
				c0.301,0.106,0.665,0.16,1.091,0.16c0.632,0,1.093-0.132,1.382-0.396s0.434-0.625,0.434-1.082c0-0.248-0.057-0.47-0.169-0.667
				c-0.113-0.198-0.276-0.381-0.489-0.55c-0.213-0.169-0.474-0.332-0.783-0.489c-0.309-0.157-0.657-0.324-1.043-0.5
				c-0.191-0.085-0.396-0.186-0.614-0.3c-0.218-0.114-0.433-0.245-0.643-0.393c-0.21-0.148-0.414-0.314-0.61-0.5
				c-0.196-0.186-0.368-0.394-0.515-0.625s-0.265-0.486-0.353-0.764c-0.088-0.279-0.132-0.584-0.132-0.918
				c0-0.395,0.08-0.771,0.239-1.128c0.159-0.357,0.4-0.671,0.724-0.942c0.323-0.271,0.73-0.487,1.22-0.646s1.068-0.239,1.734-0.239
				c0.417,0,0.795,0.026,1.135,0.077c0.341,0.051,0.643,0.109,0.908,0.173c0.265,0.063,0.491,0.125,0.68,0.184
				c0.188,0.059,0.339,0.093,0.452,0.103l-0.096,2.578h-1.337l-0.36-1.737c-0.034-0.042-0.09-0.085-0.169-0.128
				c-0.078-0.042-0.175-0.082-0.29-0.118c-0.115-0.035-0.245-0.064-0.39-0.085c-0.145-0.021-0.297-0.032-0.459-0.032
				c-0.294,0-0.543,0.035-0.75,0.104c-0.206,0.069-0.375,0.163-0.507,0.282s-0.228,0.262-0.287,0.429
				c-0.059,0.167-0.088,0.345-0.088,0.536c0,0.267,0.067,0.505,0.202,0.714c0.135,0.21,0.32,0.404,0.555,0.583
				c0.235,0.179,0.512,0.35,0.831,0.514c0.318,0.165,0.662,0.334,1.029,0.511c0.309,0.152,0.632,0.323,0.97,0.511
				s0.648,0.411,0.93,0.668c0.282,0.257,0.514,0.555,0.698,0.893c0.184,0.338,0.275,0.729,0.275,1.171
				c0,0.243-0.029,0.492-0.088,0.747c-0.059,0.255-0.155,0.503-0.29,0.747c-0.135,0.243-0.31,0.471-0.525,0.686
				c-0.216,0.214-0.48,0.402-0.794,0.564c-0.313,0.162-0.68,0.291-1.099,0.386s-0.897,0.143-1.437,0.143
				c-0.456,0-0.881-0.033-1.275-0.099c-0.395-0.066-0.749-0.14-1.062-0.22c-0.313-0.081-0.583-0.157-0.809-0.228
				c-0.225-0.071-0.399-0.111-0.521-0.121L147.984,15.628z"/>
			<path fill="#1E2122" d="M158.092,9.102l-0.955-0.21v-1.07h4.776v1.07l-1.242,0.217v5.469c0,1.158,0.197,2.013,0.591,2.565
				c0.395,0.552,0.986,0.828,1.775,0.828c0.402,0,0.749-0.08,1.04-0.239s0.531-0.385,0.72-0.676
				c0.188-0.292,0.327-0.644,0.415-1.056c0.088-0.413,0.132-0.875,0.132-1.386V9.102l-1.264-0.21v-1.07h3.851v1.07l-0.992,0.21V14.5
				c0,0.812-0.108,1.503-0.323,2.076c-0.216,0.572-0.512,1.039-0.889,1.398c-0.377,0.36-0.825,0.623-1.341,0.79
				c-0.517,0.167-1.079,0.25-1.687,0.25c-0.779,0-1.458-0.087-2.036-0.261s-1.057-0.448-1.437-0.823
				c-0.379-0.374-0.664-0.855-0.852-1.442c-0.189-0.587-0.283-1.291-0.283-2.112V9.102z"/>
			<path fill="#1E2122" d="M169.398,18.022l1.146-0.191v-8.76l-1.132-0.213V7.822h5.027v1.036l-1.396,0.213v8.671h2.896l0.97-2.925
				l1.374,0.206l-0.434,3.983h-8.451V18.022z"/>
			<path fill="#1E2122" d="M181.482,18.022l1.889-0.191V8.969h-1.896l-0.61,3.3h-1.396l0.22-4.446h9.751l0.214,4.446h-1.345
				l-0.647-3.3h-1.778v8.855l2.057,0.198v0.985h-6.459V18.022z"/>
			<path fill="#1E2122" d="M191.692,15.628h1.374l0.375,1.808c0.112,0.133,0.319,0.253,0.621,0.36
				c0.301,0.106,0.665,0.16,1.091,0.16c0.633,0,1.093-0.132,1.382-0.396s0.434-0.625,0.434-1.082c0-0.248-0.057-0.47-0.169-0.667
				c-0.112-0.198-0.275-0.381-0.488-0.55c-0.214-0.169-0.475-0.332-0.783-0.489c-0.309-0.157-0.656-0.324-1.043-0.5
				c-0.191-0.085-0.396-0.186-0.614-0.3s-0.433-0.245-0.643-0.393c-0.211-0.148-0.414-0.314-0.61-0.5s-0.367-0.394-0.515-0.625
				c-0.146-0.231-0.265-0.486-0.353-0.764c-0.088-0.279-0.132-0.584-0.132-0.918c0-0.395,0.079-0.771,0.238-1.128
				c0.159-0.357,0.4-0.671,0.725-0.942c0.323-0.271,0.729-0.487,1.22-0.646c0.489-0.16,1.067-0.239,1.734-0.239
				c0.416,0,0.795,0.026,1.135,0.077c0.341,0.051,0.644,0.109,0.908,0.173c0.265,0.063,0.491,0.125,0.68,0.184
				c0.188,0.059,0.339,0.093,0.452,0.103l-0.096,2.578h-1.338l-0.36-1.737c-0.034-0.042-0.09-0.085-0.169-0.128
				c-0.078-0.042-0.175-0.082-0.29-0.118c-0.115-0.035-0.245-0.064-0.39-0.085c-0.145-0.021-0.297-0.032-0.459-0.032
				c-0.294,0-0.544,0.035-0.75,0.104c-0.205,0.069-0.374,0.163-0.507,0.282c-0.132,0.119-0.228,0.262-0.286,0.429
				c-0.06,0.167-0.089,0.345-0.089,0.536c0,0.267,0.067,0.505,0.202,0.714c0.135,0.21,0.32,0.404,0.555,0.583
				c0.235,0.179,0.513,0.35,0.831,0.514c0.318,0.165,0.661,0.334,1.028,0.511c0.309,0.152,0.633,0.323,0.971,0.511
				s0.647,0.411,0.93,0.668c0.281,0.257,0.514,0.555,0.698,0.893c0.184,0.338,0.275,0.729,0.275,1.171
				c0,0.243-0.029,0.492-0.089,0.747c-0.059,0.255-0.155,0.503-0.29,0.747c-0.135,0.243-0.31,0.471-0.525,0.686
				s-0.48,0.402-0.794,0.564c-0.313,0.162-0.68,0.291-1.099,0.386s-0.897,0.143-1.437,0.143c-0.455,0-0.881-0.033-1.274-0.099
				c-0.395-0.066-0.749-0.14-1.062-0.22c-0.313-0.081-0.583-0.157-0.809-0.228c-0.225-0.071-0.399-0.111-0.521-0.121L191.692,15.628
				z"/>
		</g>
	</g>
	
		<rect id="XMLID_82_" x="0.5" y="0.5" fill="none" stroke="#B09C8E" stroke-linejoin="round" stroke-miterlimit="10" width="206" height="26"/>
	<g>
		<path fill="#2C292A" d="M7.883,77.072l0.896,1.163l-0.826,0.644l-0.911-1.176c-0.574,0.294-1.205,0.448-1.849,0.448
			c-0.995,0-1.961-0.364-2.675-1.065c-1.079-1.05-1.275-2.507-1.275-4.09c0-1.583,0.196-3.04,1.275-4.09
			c0.714-0.7,1.681-1.064,2.675-1.064s1.961,0.364,2.676,1.064c1.079,1.05,1.274,2.507,1.274,4.09
			C9.144,74.578,8.948,76.021,7.883,77.072z M7.001,69.773c-0.476-0.49-1.135-0.742-1.807-0.742s-1.331,0.252-1.807,0.742
			c-0.812,0.841-0.854,2.186-0.854,3.222s0.042,2.381,0.854,3.222c0.476,0.49,1.134,0.742,1.807,0.742
			c0.378,0,0.743-0.084,1.093-0.238L5.11,75.208l0.812-0.63l1.191,1.513c0.7-0.841,0.742-2.102,0.742-3.096
			C7.855,71.959,7.813,70.614,7.001,69.773z"/>
		<path fill="#2C292A" d="M15.33,78.136c-2.227,0-3.628-1.345-3.628-3.824v-6.289h1.247v6.317c0,1.583,0.659,2.633,2.381,2.633
			c1.723,0,2.381-1.051,2.381-2.633v-6.317h1.247v6.289C18.958,76.792,17.557,78.136,15.33,78.136z"/>
		<path fill="#2C292A" d="M22.174,77.954v-9.931h6.64v1.148H23.42v3.025h4.734v1.177H23.42v3.432h5.393v1.148H22.174z"/>
		<path fill="#2C292A" d="M37.493,77.954l-1.877-4.132h-2.746v4.132h-1.247v-9.931h3.894c1.163,0,1.975,0.322,2.521,0.882
			c0.476,0.504,0.784,1.148,0.784,2.017s-0.28,1.457-0.756,1.961c-0.294,0.308-0.714,0.546-1.19,0.701l1.989,4.37H37.493z
			 M35.518,69.171h-2.647v3.488h2.647c1.177,0,2.017-0.476,2.017-1.737S36.695,69.171,35.518,69.171z"/>
		<path fill="#2C292A" d="M44.505,73.92v4.034h-1.26V73.92l-3.334-5.897h1.401l2.605,4.72l2.591-4.72h1.331L44.505,73.92z"/>
	</g>
	<g>
		<path fill="#B09C8E" d="M7.771,45.112l-1.877-4.132H3.148v4.132H1.901v-9.931h3.894c1.163,0,1.975,0.322,2.521,0.882
			c0.476,0.504,0.784,1.148,0.784,2.017s-0.28,1.457-0.756,1.961c-0.294,0.308-0.714,0.546-1.19,0.701l1.989,4.37H7.771z
			 M5.795,36.329H3.148v3.488h2.647c1.177,0,2.017-0.476,2.017-1.737S6.972,36.329,5.795,36.329z"/>
		<path fill="#B09C8E" d="M11.687,36.399v-1.4h1.387v1.4H11.687z M11.771,45.112v-7.088h1.219v7.088H11.771z"/>
		<path fill="#B09C8E" d="M20.985,44.496c-0.546,0.56-1.387,0.798-2.311,0.798c-0.882,0-1.695-0.21-2.297-0.798
			c-0.434-0.42-0.687-1.022-0.687-1.625h1.191c0.014,0.49,0.238,0.854,0.574,1.106c0.322,0.238,0.827,0.322,1.275,0.322
			c0.49,0,0.938-0.084,1.303-0.392c0.196-0.154,0.35-0.448,0.35-0.771c0-0.532-0.378-0.911-1.107-1.008l-1.597-0.21
			c-1.064-0.168-1.737-0.826-1.737-1.905c0-0.546,0.266-1.064,0.588-1.387c0.462-0.477,1.205-0.785,2.087-0.785
			c0.938,0,1.779,0.294,2.255,0.896c0.308,0.378,0.504,0.785,0.504,1.359h-1.191c-0.014-0.364-0.196-0.7-0.406-0.882
			c-0.294-0.266-0.687-0.378-1.163-0.378c-0.28,0-0.49,0-0.826,0.14c-0.448,0.182-0.715,0.56-0.715,0.953
			c0,0.588,0.364,0.84,0.953,0.924c0.392,0.056,0.953,0.112,1.709,0.238c1.009,0.168,1.807,0.896,1.807,1.961
			C21.545,43.669,21.321,44.146,20.985,44.496z"/>
		<path fill="#B09C8E" d="M24.203,36.399v-1.4h1.387v1.4H24.203z M24.287,45.112v-7.088h1.219v7.088H24.287z"/>
		<path fill="#B09C8E" d="M33.347,45.112v-4.497c0-1.064-0.435-1.695-1.555-1.695c-0.686,0-1.232,0.448-1.541,1.093
			c-0.238,0.518-0.252,1.261-0.252,1.807v3.292h-1.19v-7.088h1.037l0.098,1.064c0.364-0.812,1.345-1.247,2.143-1.247
			c1.611,0,2.451,0.967,2.451,2.605v4.665H33.347z"/>
		<path fill="#B09C8E" d="M43.147,47.591c-0.686,0.672-1.863,0.826-2.857,0.826c-0.938,0-2.003-0.14-2.689-0.826
			c-0.294-0.294-0.504-0.701-0.504-1.261c0-0.743,0.448-1.289,1.009-1.569c-0.476-0.182-0.827-0.645-0.827-1.191
			c0-0.63,0.406-1.121,0.938-1.373c-0.518-0.462-0.812-1.163-0.812-1.835c0-0.771,0.267-1.303,0.673-1.723
			c0.49-0.504,1.163-0.798,2.101-0.798c0.672,0,1.19,0.154,1.625,0.42c0.238-0.63,0.785-0.995,1.457-0.995
			c0.112,0,0.238,0.014,0.35,0.028v0.967c-0.07-0.014-0.168-0.014-0.266-0.014c-0.462,0-0.798,0.252-0.869,0.645
			c0.294,0.378,0.462,0.84,0.462,1.471c0,0.672-0.252,1.261-0.645,1.695c-0.462,0.504-1.176,0.84-2.115,0.84
			c-0.477,0-0.743-0.042-1.191-0.196c-0.266,0.084-0.574,0.294-0.602,0.63c-0.042,0.616,0.616,0.686,1.064,0.7
			c0.462,0.014,1.401,0,1.401,0c0.84,0,1.779,0.168,2.339,0.743c0.336,0.336,0.561,0.798,0.561,1.387
			C43.75,46.779,43.483,47.255,43.147,47.591z M40.36,45.042h-1.289c-0.476,0.154-0.896,0.574-0.896,1.121
			c0,0.322,0.112,0.56,0.294,0.742c0.462,0.462,1.274,0.49,1.891,0.49c0.602,0,1.484-0.056,1.933-0.504
			c0.182-0.182,0.294-0.42,0.294-0.728C42.587,44.958,41.256,45.042,40.36,45.042z M40.164,38.809c-0.967,0-1.611,0.658-1.611,1.555
			s0.602,1.583,1.611,1.583c0.966,0,1.611-0.687,1.611-1.583S41.172,38.809,40.164,38.809z"/>
		<path fill="#B09C8E" d="M55.929,44.299c-0.687,0.672-1.751,0.995-2.815,0.995c-1.205,0-2.171-0.336-2.844-0.953
			c-0.63-0.588-1.064-1.443-1.064-2.381h1.303c0,0.588,0.294,1.177,0.7,1.569c0.448,0.435,1.205,0.617,1.905,0.617
			c0.756,0,1.4-0.154,1.849-0.575c0.309-0.28,0.504-0.63,0.504-1.163c0-0.77-0.49-1.415-1.667-1.597l-1.569-0.238
			c-1.484-0.224-2.647-1.05-2.647-2.633c0-0.742,0.336-1.457,0.869-1.961c0.687-0.645,1.569-0.98,2.605-0.98
			c0.966,0,1.919,0.322,2.578,0.952c0.602,0.575,0.924,1.289,0.952,2.129h-1.303c-0.028-0.49-0.21-0.924-0.49-1.247
			c-0.378-0.435-0.98-0.687-1.751-0.687c-0.714,0-1.331,0.196-1.765,0.687c-0.252,0.294-0.406,0.63-0.406,1.079
			c0,0.896,0.742,1.303,1.485,1.4c0.56,0.07,1.106,0.168,1.653,0.252c1.653,0.238,2.759,1.247,2.759,2.815
			C56.77,43.207,56.419,43.823,55.929,44.299z"/>
		<path fill="#B09C8E" d="M65.169,41.96h-5.015c0,0.645,0.252,1.345,0.686,1.779c0.322,0.322,0.756,0.504,1.303,0.504
			c0.561,0,1.022-0.154,1.317-0.462c0.196-0.196,0.322-0.393,0.42-0.771h1.163c-0.098,0.7-0.519,1.359-1.093,1.751
			c-0.504,0.336-1.135,0.532-1.807,0.532c-0.995,0-1.807-0.42-2.353-1.064c-0.588-0.687-0.883-1.625-0.883-2.634
			c0-0.854,0.154-1.611,0.546-2.269c0.504-0.854,1.443-1.485,2.676-1.485c0.91,0,1.639,0.35,2.157,0.911
			c0.575,0.63,0.911,1.541,0.896,2.493L65.169,41.96z M63.53,39.495c-0.294-0.392-0.77-0.644-1.4-0.644
			c-1.289,0-1.919,1.05-1.947,2.087h3.782C63.965,40.405,63.811,39.873,63.53,39.495z"/>
		<path fill="#B09C8E" d="M73.037,45.21c-0.63,0-1.022-0.477-1.022-1.079h-0.028c-0.406,0.714-1.289,1.163-2.283,1.163
			c-1.625,0-2.437-1.093-2.437-2.185c0-0.911,0.588-2.101,2.521-2.213l2.157-0.126v-0.519c0-0.35-0.042-0.784-0.364-1.079
			c-0.238-0.224-0.588-0.364-1.163-0.364c-0.644,0-1.05,0.182-1.289,0.42c-0.224,0.224-0.35,0.504-0.35,0.854h-1.163
			c0.014-0.644,0.252-1.106,0.616-1.485c0.477-0.504,1.317-0.756,2.185-0.756c1.373,0,2.157,0.588,2.494,1.359
			c0.14,0.322,0.21,0.687,0.21,1.093v3.432c0,0.378,0.154,0.476,0.392,0.476c0.126,0,0.308-0.042,0.308-0.042v0.883
			C73.569,45.168,73.331,45.21,73.037,45.21z M71.944,41.694l-1.905,0.112c-0.714,0.042-1.555,0.378-1.555,1.274
			c0,0.63,0.393,1.219,1.401,1.219c0.546,0,1.079-0.182,1.457-0.574c0.42-0.434,0.602-1.022,0.602-1.611V41.694z"/>
		<path fill="#B09C8E" d="M79.573,39.13c-0.56,0-1.022,0.252-1.345,0.561c-0.574,0.546-0.644,1.527-0.644,2.269v3.152h-1.177v-7.088
			h1.051l0.098,1.247c0.364-0.868,1.219-1.289,2.115-1.289c0.182,0,0.378,0.014,0.561,0.042v1.163
			C80.021,39.145,79.784,39.13,79.573,39.13z"/>
		<path fill="#B09C8E" d="M86.911,44.523c-0.504,0.49-1.177,0.771-2.045,0.771c-1.274,0-2.087-0.588-2.591-1.331
			c-0.378-0.561-0.588-1.331-0.588-2.396s0.21-1.835,0.588-2.396c0.504-0.742,1.303-1.331,2.577-1.331
			c0.841,0,1.527,0.28,2.018,0.756c0.476,0.462,0.784,1.051,0.84,1.821h-1.205c-0.056-0.49-0.238-0.841-0.504-1.107
			c-0.28-0.266-0.687-0.434-1.149-0.434c-0.546,0-0.924,0.196-1.232,0.462c-0.561,0.476-0.714,1.358-0.714,2.227
			s0.154,1.751,0.714,2.227c0.308,0.266,0.687,0.462,1.232,0.462c0.491,0,0.925-0.182,1.205-0.476
			c0.252-0.266,0.42-0.588,0.476-1.051h1.205C87.681,43.487,87.387,44.061,86.911,44.523z"/>
		<path fill="#B09C8E" d="M94.82,45.112v-4.497c0-1.064-0.435-1.695-1.555-1.695c-0.686,0-1.232,0.448-1.541,1.093
			c-0.238,0.518-0.252,1.261-0.252,1.807v3.292h-1.19V34.999h1.19v3.964c0.42-0.729,1.275-1.121,2.073-1.121
			c1.611,0,2.465,0.967,2.465,2.605v4.665H94.82z"/>
		<path fill="#B09C8E" d="M104.901,41.96h-5.015c0,0.645,0.252,1.345,0.686,1.779c0.322,0.322,0.756,0.504,1.303,0.504
			c0.561,0,1.022-0.154,1.317-0.462c0.196-0.196,0.322-0.393,0.42-0.771h1.163c-0.098,0.7-0.519,1.359-1.093,1.751
			c-0.504,0.336-1.135,0.532-1.807,0.532c-0.995,0-1.807-0.42-2.353-1.064c-0.588-0.687-0.883-1.625-0.883-2.634
			c0-0.854,0.154-1.611,0.546-2.269c0.504-0.854,1.443-1.485,2.676-1.485c0.91,0,1.639,0.35,2.157,0.911
			c0.575,0.63,0.911,1.541,0.896,2.493L104.901,41.96z M103.262,39.495c-0.294-0.392-0.77-0.644-1.4-0.644
			c-1.289,0-1.919,1.05-1.947,2.087h3.782C103.696,40.405,103.542,39.873,103.262,39.495z"/>
		<path fill="#B09C8E" d="M112.306,44.496c-0.546,0.56-1.387,0.798-2.311,0.798c-0.883,0-1.695-0.21-2.297-0.798
			c-0.434-0.42-0.687-1.022-0.687-1.625h1.191c0.014,0.49,0.238,0.854,0.574,1.106c0.322,0.238,0.827,0.322,1.275,0.322
			c0.49,0,0.938-0.084,1.302-0.392c0.196-0.154,0.351-0.448,0.351-0.771c0-0.532-0.378-0.911-1.107-1.008L109,41.918
			c-1.064-0.168-1.737-0.826-1.737-1.905c0-0.546,0.266-1.064,0.588-1.387c0.462-0.477,1.205-0.785,2.087-0.785
			c0.938,0,1.779,0.294,2.255,0.896c0.308,0.378,0.504,0.785,0.504,1.359h-1.19c-0.014-0.364-0.196-0.7-0.406-0.882
			c-0.294-0.266-0.687-0.378-1.163-0.378c-0.28,0-0.49,0-0.827,0.14c-0.448,0.182-0.714,0.56-0.714,0.953
			c0,0.588,0.364,0.84,0.953,0.924c0.392,0.056,0.953,0.112,1.709,0.238c1.009,0.168,1.807,0.896,1.807,1.961
			C112.866,43.669,112.642,44.146,112.306,44.496z"/>
	</g>
	<g>
		<path fill="#2C292A" d="M6.959,110.726c-0.63,0-1.022-0.477-1.022-1.079H5.908c-0.406,0.714-1.289,1.163-2.283,1.163
			c-1.625,0-2.437-1.093-2.437-2.185c0-0.911,0.588-2.101,2.521-2.213l2.157-0.126v-0.519c0-0.35-0.042-0.784-0.364-1.078
			c-0.238-0.225-0.588-0.364-1.163-0.364c-0.644,0-1.05,0.182-1.289,0.42c-0.224,0.224-0.35,0.504-0.35,0.854H1.538
			c0.014-0.644,0.252-1.106,0.616-1.485c0.477-0.504,1.317-0.756,2.185-0.756c1.373,0,2.157,0.588,2.494,1.359
			c0.14,0.322,0.21,0.687,0.21,1.092v3.432c0,0.378,0.154,0.476,0.392,0.476c0.126,0,0.308-0.042,0.308-0.042v0.883
			C7.491,110.684,7.253,110.726,6.959,110.726z M5.866,107.209l-1.905,0.112c-0.714,0.042-1.555,0.378-1.555,1.274
			c0,0.63,0.393,1.219,1.401,1.219c0.546,0,1.079-0.182,1.457-0.574c0.42-0.434,0.602-1.022,0.602-1.611V107.209z"/>
		<path fill="#2C292A" d="M11.773,110.711c-1.037,0-1.485-0.616-1.485-1.737v-8.46h1.19v8.39c0,0.477,0.154,0.729,0.645,0.729
			c0.392,0,0.49-0.014,0.49-0.014v1.008C12.613,110.627,12.347,110.711,11.773,110.711z"/>
		<path fill="#2C292A" d="M23.718,110.627v-4.51c0-0.995-0.322-1.681-1.443-1.681c-0.448,0-0.798,0.182-1.079,0.476
			c-0.476,0.491-0.603,1.205-0.603,1.947v3.768h-1.19v-4.51c0-0.995-0.294-1.681-1.429-1.681c-0.504,0-0.911,0.252-1.205,0.63
			c-0.35,0.448-0.477,1.205-0.477,1.793v3.768h-1.19v-7.088h1.037l0.112,1.009c0.378-0.799,1.191-1.191,1.989-1.191
			c1.051,0,1.807,0.477,2.115,1.345c0.378-0.882,1.289-1.345,2.185-1.345c1.611,0,2.367,1.037,2.367,2.605v4.665H23.718z"/>
		<path fill="#2C292A" d="M32.844,109.983c-0.518,0.504-1.247,0.827-2.143,0.827s-1.625-0.322-2.143-0.827
			c-0.771-0.756-1.009-1.779-1.009-2.899s0.238-2.143,1.009-2.899c0.518-0.504,1.247-0.827,2.143-0.827s1.625,0.322,2.143,0.827
			c0.771,0.756,1.008,1.779,1.008,2.899S33.615,109.227,32.844,109.983z M31.976,104.884c-0.294-0.294-0.714-0.504-1.274-0.504
			c-0.561,0-0.98,0.21-1.275,0.504c-0.504,0.519-0.658,1.373-0.658,2.199s0.154,1.681,0.658,2.199
			c0.294,0.294,0.714,0.504,1.275,0.504c0.56,0,0.98-0.21,1.274-0.504c0.504-0.518,0.659-1.373,0.659-2.199
			S32.48,105.403,31.976,104.884z"/>
		<path fill="#2C292A" d="M41.146,110.627v-4.497c0-1.064-0.435-1.695-1.555-1.695c-0.686,0-1.232,0.448-1.541,1.093
			c-0.238,0.518-0.252,1.261-0.252,1.807v3.292h-1.19v-7.088h1.037l0.098,1.064c0.364-0.812,1.345-1.247,2.143-1.247
			c1.611,0,2.451,0.967,2.451,2.605v4.665H41.146z"/>
		<path fill="#2C292A" d="M50.176,110.627l-0.084-0.924c-0.406,0.714-1.316,1.106-2.115,1.106c-0.869,0-1.541-0.294-2.003-0.771
			c-0.672-0.687-1.022-1.765-1.022-2.941c0-1.219,0.364-2.339,1.079-3.026c0.462-0.434,1.121-0.714,1.947-0.714
			c0.77,0,1.681,0.364,2.059,1.009v-3.852h1.19v10.113H50.176z M49.322,104.828c-0.28-0.252-0.63-0.462-1.149-0.462
			c-1.583,0-2.003,1.415-2.003,2.717s0.42,2.717,2.003,2.717c0.519,0,0.869-0.21,1.149-0.462c0.588-0.519,0.784-1.373,0.784-2.255
			S49.91,105.347,49.322,104.828z"/>
		<path fill="#2C292A" d="M67.062,110.627v-4.51c0-0.995-0.322-1.681-1.443-1.681c-0.448,0-0.798,0.182-1.079,0.476
			c-0.476,0.491-0.603,1.205-0.603,1.947v3.768h-1.19v-4.51c0-0.995-0.294-1.681-1.429-1.681c-0.504,0-0.911,0.252-1.205,0.63
			c-0.35,0.448-0.477,1.205-0.477,1.793v3.768h-1.19v-7.088h1.037l0.112,1.009c0.378-0.799,1.191-1.191,1.989-1.191
			c1.05,0,1.807,0.477,2.115,1.345c0.378-0.882,1.289-1.345,2.185-1.345c1.611,0,2.367,1.037,2.367,2.605v4.665H67.062z"/>
		<path fill="#2C292A" d="M71.355,101.915v-1.4h1.387v1.4H71.355z M71.439,110.627v-7.088h1.219v7.088H71.439z"/>
		<path fill="#2C292A" d="M77.403,110.711c-1.037,0-1.485-0.616-1.485-1.737v-8.46h1.19v8.39c0,0.477,0.154,0.729,0.645,0.729
			c0.392,0,0.49-0.014,0.49-0.014v1.008C78.244,110.627,77.978,110.711,77.403,110.711z"/>
		<path fill="#2C292A" d="M85.497,110.627l-2.213-3.418l-1.359,1.513v1.905h-1.19v-10.113h1.19v6.597l3.208-3.572h1.443
			l-2.521,2.802l2.788,4.286H85.497z"/>
		<path fill="#2C292A" d="M6.959,135.726c-0.63,0-1.022-0.477-1.022-1.079H5.908c-0.406,0.714-1.289,1.163-2.283,1.163
			c-1.625,0-2.437-1.093-2.437-2.185c0-0.911,0.588-2.101,2.521-2.213l2.157-0.126v-0.519c0-0.35-0.042-0.784-0.364-1.078
			c-0.238-0.225-0.588-0.364-1.163-0.364c-0.644,0-1.05,0.182-1.289,0.42c-0.224,0.224-0.35,0.504-0.35,0.854H1.538
			c0.014-0.644,0.252-1.106,0.616-1.485c0.477-0.504,1.317-0.756,2.185-0.756c1.373,0,2.157,0.588,2.494,1.359
			c0.14,0.322,0.21,0.687,0.21,1.092v3.432c0,0.378,0.154,0.476,0.392,0.476c0.126,0,0.308-0.042,0.308-0.042v0.883
			C7.491,135.684,7.253,135.726,6.959,135.726z M5.866,132.209l-1.905,0.112c-0.714,0.042-1.555,0.378-1.555,1.274
			c0,0.63,0.393,1.219,1.401,1.219c0.546,0,1.079-0.182,1.457-0.574c0.42-0.434,0.602-1.022,0.602-1.611V132.209z"/>
		<path fill="#2C292A" d="M11.773,135.711c-1.037,0-1.485-0.616-1.485-1.737v-8.46h1.19v8.39c0,0.477,0.154,0.729,0.645,0.729
			c0.392,0,0.49-0.014,0.49-0.014v1.008C12.613,135.627,12.347,135.711,11.773,135.711z"/>
		<path fill="#2C292A" d="M23.718,135.627v-4.51c0-0.995-0.322-1.681-1.443-1.681c-0.448,0-0.798,0.182-1.079,0.476
			c-0.476,0.491-0.603,1.205-0.603,1.947v3.768h-1.19v-4.51c0-0.995-0.294-1.681-1.429-1.681c-0.504,0-0.911,0.252-1.205,0.63
			c-0.35,0.448-0.477,1.205-0.477,1.793v3.768h-1.19v-7.088h1.037l0.112,1.009c0.378-0.799,1.191-1.191,1.989-1.191
			c1.051,0,1.807,0.477,2.115,1.345c0.378-0.882,1.289-1.345,2.185-1.345c1.611,0,2.367,1.037,2.367,2.605v4.665H23.718z"/>
		<path fill="#2C292A" d="M32.844,134.983c-0.518,0.504-1.247,0.827-2.143,0.827s-1.625-0.322-2.143-0.827
			c-0.771-0.756-1.009-1.779-1.009-2.899s0.238-2.143,1.009-2.899c0.518-0.504,1.247-0.827,2.143-0.827s1.625,0.322,2.143,0.827
			c0.771,0.756,1.008,1.779,1.008,2.899S33.615,134.227,32.844,134.983z M31.976,129.884c-0.294-0.294-0.714-0.504-1.274-0.504
			c-0.561,0-0.98,0.21-1.275,0.504c-0.504,0.519-0.658,1.373-0.658,2.199s0.154,1.681,0.658,2.199
			c0.294,0.294,0.714,0.504,1.275,0.504c0.56,0,0.98-0.21,1.274-0.504c0.504-0.518,0.659-1.373,0.659-2.199
			S32.48,130.403,31.976,129.884z"/>
		<path fill="#2C292A" d="M41.146,135.627v-4.497c0-1.064-0.435-1.695-1.555-1.695c-0.686,0-1.232,0.448-1.541,1.093
			c-0.238,0.518-0.252,1.261-0.252,1.807v3.292h-1.19v-7.088h1.037l0.098,1.064c0.364-0.812,1.345-1.247,2.143-1.247
			c1.611,0,2.451,0.967,2.451,2.605v4.665H41.146z"/>
		<path fill="#2C292A" d="M50.176,135.627l-0.084-0.924c-0.406,0.714-1.316,1.106-2.115,1.106c-0.869,0-1.541-0.294-2.003-0.771
			c-0.672-0.687-1.022-1.765-1.022-2.941c0-1.219,0.364-2.339,1.079-3.026c0.462-0.434,1.121-0.714,1.947-0.714
			c0.77,0,1.681,0.364,2.059,1.009v-3.852h1.19v10.113H50.176z M49.322,129.828c-0.28-0.252-0.63-0.462-1.149-0.462
			c-1.583,0-2.003,1.415-2.003,2.717s0.42,2.717,2.003,2.717c0.519,0,0.869-0.21,1.149-0.462c0.588-0.519,0.784-1.373,0.784-2.255
			S49.91,130.347,49.322,129.828z"/>
		<path fill="#2C292A" d="M67.062,135.627v-4.51c0-0.995-0.322-1.681-1.443-1.681c-0.448,0-0.798,0.182-1.079,0.476
			c-0.476,0.491-0.603,1.205-0.603,1.947v3.768h-1.19v-4.51c0-0.995-0.294-1.681-1.429-1.681c-0.504,0-0.911,0.252-1.205,0.63
			c-0.35,0.448-0.477,1.205-0.477,1.793v3.768h-1.19v-7.088h1.037l0.112,1.009c0.378-0.799,1.191-1.191,1.989-1.191
			c1.05,0,1.807,0.477,2.115,1.345c0.378-0.882,1.289-1.345,2.185-1.345c1.611,0,2.367,1.037,2.367,2.605v4.665H67.062z"/>
		<path fill="#2C292A" d="M71.355,126.915v-1.4h1.387v1.4H71.355z M71.439,135.627v-7.088h1.219v7.088H71.439z"/>
		<path fill="#2C292A" d="M77.403,135.711c-1.037,0-1.485-0.616-1.485-1.737v-8.46h1.19v8.39c0,0.477,0.154,0.729,0.645,0.729
			c0.392,0,0.49-0.014,0.49-0.014v1.008C78.244,135.627,77.978,135.711,77.403,135.711z"/>
		<path fill="#2C292A" d="M85.497,135.627l-2.213-3.418l-1.359,1.513v1.905h-1.19v-10.113h1.19v6.597l3.208-3.572h1.443
			l-2.521,2.802l2.788,4.286H85.497z"/>
		<path fill="#2C292A" d="M98.237,135.039c-0.462,0.477-1.135,0.771-2.003,0.771c-0.798,0-1.708-0.392-2.115-1.106l-0.084,0.924
			h-1.05v-10.113h1.19v3.852c0.378-0.645,1.289-1.009,2.059-1.009c0.827,0,1.485,0.28,1.947,0.714
			c0.714,0.687,1.079,1.807,1.079,3.026C99.259,133.274,98.909,134.353,98.237,135.039z M96.038,129.366
			c-0.519,0-0.869,0.21-1.149,0.462c-0.588,0.519-0.784,1.373-0.784,2.255s0.196,1.737,0.784,2.255
			c0.28,0.252,0.63,0.462,1.149,0.462c1.583,0,2.003-1.415,2.003-2.717S97.62,129.366,96.038,129.366z"/>
		<path fill="#2C292A" d="M107.715,132.476H102.7c0,0.645,0.252,1.345,0.686,1.779c0.322,0.322,0.756,0.504,1.303,0.504
			c0.561,0,1.022-0.154,1.317-0.462c0.196-0.196,0.322-0.393,0.42-0.771h1.163c-0.098,0.7-0.519,1.359-1.093,1.751
			c-0.504,0.336-1.135,0.532-1.807,0.532c-0.995,0-1.807-0.42-2.353-1.064c-0.588-0.687-0.883-1.625-0.883-2.634
			c0-0.854,0.154-1.611,0.546-2.269c0.504-0.854,1.443-1.485,2.676-1.485c0.91,0,1.639,0.35,2.157,0.911
			c0.575,0.63,0.911,1.541,0.896,2.493L107.715,132.476z M106.076,130.01c-0.294-0.392-0.77-0.644-1.4-0.644
			c-1.289,0-1.919,1.05-1.947,2.087h3.782C106.51,130.921,106.356,130.389,106.076,130.01z"/>
		<path fill="#2C292A" d="M114.966,135.627v-4.497c0-1.064-0.435-1.695-1.555-1.695c-0.686,0-1.232,0.448-1.541,1.093
			c-0.238,0.518-0.252,1.261-0.252,1.807v3.292h-1.19v-7.088h1.037l0.098,1.064c0.364-0.812,1.345-1.247,2.143-1.247
			c1.611,0,2.451,0.967,2.451,2.605v4.665H114.966z"/>
		<path fill="#2C292A" d="M125.019,132.476h-5.015c0,0.645,0.252,1.345,0.686,1.779c0.322,0.322,0.756,0.504,1.303,0.504
			c0.561,0,1.022-0.154,1.317-0.462c0.196-0.196,0.322-0.393,0.42-0.771h1.163c-0.098,0.7-0.519,1.359-1.093,1.751
			c-0.504,0.336-1.135,0.532-1.807,0.532c-0.995,0-1.807-0.42-2.353-1.064c-0.588-0.687-0.883-1.625-0.883-2.634
			c0-0.854,0.154-1.611,0.546-2.269c0.504-0.854,1.443-1.485,2.676-1.485c0.91,0,1.639,0.35,2.157,0.911
			c0.575,0.63,0.911,1.541,0.896,2.493L125.019,132.476z M123.379,130.01c-0.294-0.392-0.77-0.644-1.4-0.644
			c-1.289,0-1.919,1.05-1.947,2.087h3.782C123.814,130.921,123.66,130.389,123.379,130.01z"/>
		<path fill="#2C292A" d="M130.239,126.382c-0.63,0-1.008,0.392-1.008,0.967v1.19h2.045v1.009h-2.045v6.079h-1.19v-6.079h-1.289
			v-1.009h1.289v-1.261c0-1.064,0.826-1.905,2.059-1.905c0.49,0,0.924,0.056,1.316,0.126v0.995
			C131.038,126.453,130.743,126.382,130.239,126.382z M132.69,126.915v-1.4h1.387v1.4H132.69z M132.774,135.627v-7.088h1.219v7.088
			H132.774z"/>
		<path fill="#2C292A" d="M139.548,135.726c-1.527,0-1.947-0.967-1.947-1.919v-4.245h-1.373v-1.022h1.373v-1.807l1.191-0.28v2.087
			h2.101v1.022h-2.101v4.104c0,0.686,0.294,0.966,0.952,0.966c0.504,0,1.219-0.126,1.219-0.126v1.022
			C140.641,135.613,140.207,135.726,139.548,135.726z"/>
		<path fill="#2C292A" d="M148.076,135.011c-0.546,0.56-1.387,0.798-2.311,0.798c-0.883,0-1.695-0.21-2.297-0.798
			c-0.434-0.42-0.687-1.022-0.687-1.625h1.191c0.014,0.49,0.238,0.854,0.574,1.106c0.322,0.238,0.827,0.322,1.275,0.322
			c0.49,0,0.938-0.084,1.302-0.392c0.196-0.154,0.351-0.448,0.351-0.771c0-0.532-0.378-0.911-1.107-1.008l-1.597-0.21
			c-1.064-0.168-1.737-0.826-1.737-1.905c0-0.546,0.266-1.065,0.588-1.387c0.462-0.477,1.205-0.785,2.087-0.785
			c0.938,0,1.779,0.294,2.255,0.896c0.308,0.378,0.504,0.785,0.504,1.359h-1.19c-0.014-0.364-0.196-0.701-0.406-0.882
			c-0.294-0.267-0.687-0.378-1.163-0.378c-0.28,0-0.49,0-0.827,0.14c-0.448,0.182-0.714,0.56-0.714,0.953
			c0,0.588,0.364,0.84,0.953,0.924c0.392,0.056,0.953,0.112,1.709,0.238c1.009,0.168,1.807,0.896,1.807,1.961
			C148.636,134.185,148.412,134.661,148.076,135.011z"/>
		<path fill="#2C292A" d="M6.959,160.726c-0.63,0-1.022-0.477-1.022-1.079H5.908c-0.406,0.714-1.289,1.163-2.283,1.163
			c-1.625,0-2.437-1.093-2.437-2.185c0-0.911,0.588-2.101,2.521-2.213l2.157-0.126v-0.519c0-0.35-0.042-0.784-0.364-1.078
			c-0.238-0.225-0.588-0.364-1.163-0.364c-0.644,0-1.05,0.182-1.289,0.42c-0.224,0.224-0.35,0.504-0.35,0.854H1.538
			c0.014-0.644,0.252-1.106,0.616-1.485c0.477-0.504,1.317-0.756,2.185-0.756c1.373,0,2.157,0.588,2.494,1.359
			c0.14,0.322,0.21,0.687,0.21,1.092v3.432c0,0.378,0.154,0.476,0.392,0.476c0.126,0,0.308-0.042,0.308-0.042v0.883
			C7.491,160.684,7.253,160.726,6.959,160.726z M5.866,157.209l-1.905,0.112c-0.714,0.042-1.555,0.378-1.555,1.274
			c0,0.63,0.393,1.219,1.401,1.219c0.546,0,1.079-0.182,1.457-0.574c0.42-0.434,0.602-1.022,0.602-1.611V157.209z"/>
		<path fill="#2C292A" d="M11.773,160.711c-1.037,0-1.485-0.616-1.485-1.737v-8.46h1.19v8.39c0,0.477,0.154,0.729,0.645,0.729
			c0.392,0,0.49-0.014,0.49-0.014v1.008C12.613,160.627,12.347,160.711,11.773,160.711z"/>
		<path fill="#2C292A" d="M23.718,160.627v-4.51c0-0.995-0.322-1.681-1.443-1.681c-0.448,0-0.798,0.182-1.079,0.476
			c-0.476,0.491-0.603,1.205-0.603,1.947v3.768h-1.19v-4.51c0-0.995-0.294-1.681-1.429-1.681c-0.504,0-0.911,0.252-1.205,0.63
			c-0.35,0.448-0.477,1.205-0.477,1.793v3.768h-1.19v-7.088h1.037l0.112,1.009c0.378-0.799,1.191-1.191,1.989-1.191
			c1.051,0,1.807,0.477,2.115,1.345c0.378-0.882,1.289-1.345,2.185-1.345c1.611,0,2.367,1.037,2.367,2.605v4.665H23.718z"/>
		<path fill="#2C292A" d="M32.844,159.983c-0.518,0.504-1.247,0.827-2.143,0.827s-1.625-0.322-2.143-0.827
			c-0.771-0.756-1.009-1.779-1.009-2.899s0.238-2.143,1.009-2.899c0.518-0.504,1.247-0.827,2.143-0.827s1.625,0.322,2.143,0.827
			c0.771,0.756,1.008,1.779,1.008,2.899S33.615,159.227,32.844,159.983z M31.976,154.884c-0.294-0.294-0.714-0.504-1.274-0.504
			c-0.561,0-0.98,0.21-1.275,0.504c-0.504,0.519-0.658,1.373-0.658,2.199s0.154,1.681,0.658,2.199
			c0.294,0.294,0.714,0.504,1.275,0.504c0.56,0,0.98-0.21,1.274-0.504c0.504-0.518,0.659-1.373,0.659-2.199
			S32.48,155.403,31.976,154.884z"/>
		<path fill="#2C292A" d="M41.146,160.627v-4.497c0-1.064-0.435-1.695-1.555-1.695c-0.686,0-1.232,0.448-1.541,1.093
			c-0.238,0.518-0.252,1.261-0.252,1.807v3.292h-1.19v-7.088h1.037l0.098,1.064c0.364-0.812,1.345-1.247,2.143-1.247
			c1.611,0,2.451,0.967,2.451,2.605v4.665H41.146z"/>
		<path fill="#2C292A" d="M50.176,160.627l-0.084-0.924c-0.406,0.714-1.316,1.106-2.115,1.106c-0.869,0-1.541-0.294-2.003-0.771
			c-0.672-0.687-1.022-1.765-1.022-2.941c0-1.219,0.364-2.339,1.079-3.026c0.462-0.434,1.121-0.714,1.947-0.714
			c0.77,0,1.681,0.364,2.059,1.009v-3.852h1.19v10.113H50.176z M49.322,154.828c-0.28-0.252-0.63-0.462-1.149-0.462
			c-1.583,0-2.003,1.415-2.003,2.717s0.42,2.717,2.003,2.717c0.519,0,0.869-0.21,1.149-0.462c0.588-0.519,0.784-1.373,0.784-2.255
			S49.91,155.347,49.322,154.828z"/>
		<path fill="#2C292A" d="M67.062,160.627v-4.51c0-0.995-0.322-1.681-1.443-1.681c-0.448,0-0.798,0.182-1.079,0.476
			c-0.476,0.491-0.603,1.205-0.603,1.947v3.768h-1.19v-4.51c0-0.995-0.294-1.681-1.429-1.681c-0.504,0-0.911,0.252-1.205,0.63
			c-0.35,0.448-0.477,1.205-0.477,1.793v3.768h-1.19v-7.088h1.037l0.112,1.009c0.378-0.799,1.191-1.191,1.989-1.191
			c1.05,0,1.807,0.477,2.115,1.345c0.378-0.882,1.289-1.345,2.185-1.345c1.611,0,2.367,1.037,2.367,2.605v4.665H67.062z"/>
		<path fill="#2C292A" d="M71.355,151.915v-1.4h1.387v1.4H71.355z M71.439,160.627v-7.088h1.219v7.088H71.439z"/>
		<path fill="#2C292A" d="M77.403,160.711c-1.037,0-1.485-0.616-1.485-1.737v-8.46h1.19v8.39c0,0.477,0.154,0.729,0.645,0.729
			c0.392,0,0.49-0.014,0.49-0.014v1.008C78.244,160.627,77.978,160.711,77.403,160.711z"/>
		<path fill="#2C292A" d="M85.497,160.627l-2.213-3.418l-1.359,1.513v1.905h-1.19v-10.113h1.19v6.597l3.208-3.572h1.443
			l-2.521,2.802l2.788,4.286H85.497z"/>
		<path fill="#2C292A" d="M97.522,160.627v-4.497c0-1.064-0.435-1.695-1.555-1.695c-0.686,0-1.232,0.448-1.541,1.093
			c-0.238,0.518-0.252,1.261-0.252,1.807v3.292h-1.19v-10.113h1.19v3.964c0.42-0.729,1.275-1.121,2.073-1.121
			c1.611,0,2.465,0.967,2.465,2.605v4.665H97.522z"/>
		<path fill="#2C292A" d="M107.603,157.476h-5.015c0,0.645,0.252,1.345,0.686,1.779c0.322,0.322,0.756,0.504,1.303,0.504
			c0.561,0,1.022-0.154,1.317-0.462c0.196-0.196,0.322-0.393,0.42-0.771h1.163c-0.098,0.7-0.519,1.359-1.093,1.751
			c-0.504,0.336-1.135,0.532-1.807,0.532c-0.995,0-1.807-0.42-2.353-1.064c-0.588-0.687-0.883-1.625-0.883-2.634
			c0-0.854,0.154-1.611,0.546-2.269c0.504-0.854,1.443-1.485,2.676-1.485c0.91,0,1.639,0.35,2.157,0.911
			c0.575,0.63,0.911,1.541,0.896,2.493L107.603,157.476z M105.964,155.01c-0.294-0.392-0.771-0.644-1.4-0.644
			c-1.289,0-1.919,1.05-1.947,2.087h3.782C106.398,155.921,106.244,155.389,105.964,155.01z"/>
		<path fill="#2C292A" d="M115.47,160.726c-0.63,0-1.022-0.477-1.022-1.079h-0.028c-0.406,0.714-1.289,1.163-2.283,1.163
			c-1.625,0-2.437-1.093-2.437-2.185c0-0.911,0.588-2.101,2.521-2.213l2.157-0.126v-0.519c0-0.35-0.042-0.784-0.364-1.078
			c-0.238-0.225-0.588-0.364-1.163-0.364c-0.644,0-1.05,0.182-1.289,0.42c-0.224,0.224-0.35,0.504-0.35,0.854h-1.163
			c0.014-0.644,0.252-1.106,0.616-1.485c0.476-0.504,1.317-0.756,2.185-0.756c1.373,0,2.157,0.588,2.494,1.359
			c0.14,0.322,0.21,0.687,0.21,1.092v3.432c0,0.378,0.154,0.476,0.392,0.476c0.126,0,0.308-0.042,0.308-0.042v0.883
			C116.002,160.684,115.764,160.726,115.47,160.726z M114.377,157.209l-1.905,0.112c-0.714,0.042-1.555,0.378-1.555,1.274
			c0,0.63,0.392,1.219,1.4,1.219c0.546,0,1.079-0.182,1.457-0.574c0.42-0.434,0.602-1.022,0.602-1.611V157.209z"/>
		<path fill="#2C292A" d="M120.284,160.711c-1.037,0-1.485-0.616-1.485-1.737v-8.46h1.19v8.39c0,0.477,0.154,0.729,0.645,0.729
			c0.392,0,0.49-0.014,0.49-0.014v1.008C121.125,160.627,120.858,160.711,120.284,160.711z"/>
		<path fill="#2C292A" d="M125.871,160.726c-1.527,0-1.947-0.967-1.947-1.919v-4.245h-1.373v-1.022h1.373v-1.807l1.191-0.28v2.087
			h2.101v1.022h-2.101v4.104c0,0.686,0.294,0.966,0.952,0.966c0.504,0,1.219-0.126,1.219-0.126v1.022
			C126.963,160.613,126.529,160.726,125.871,160.726z"/>
		<path fill="#2C292A" d="M134.244,160.627v-4.497c0-1.064-0.435-1.695-1.555-1.695c-0.686,0-1.232,0.448-1.541,1.093
			c-0.238,0.518-0.252,1.261-0.252,1.807v3.292h-1.19v-10.113h1.19v3.964c0.42-0.729,1.275-1.121,2.073-1.121
			c1.611,0,2.465,0.967,2.465,2.605v4.665H134.244z"/>
		<path fill="#2C292A" d="M6.483,185.039c-0.504,0.49-1.177,0.771-2.045,0.771c-1.274,0-2.087-0.588-2.591-1.331
			c-0.378-0.561-0.588-1.331-0.588-2.396s0.21-1.835,0.588-2.395c0.504-0.743,1.303-1.331,2.578-1.331
			c0.84,0,1.526,0.28,2.017,0.756c0.477,0.462,0.785,1.051,0.841,1.821H6.077c-0.056-0.49-0.238-0.841-0.504-1.107
			c-0.28-0.266-0.687-0.434-1.148-0.434c-0.546,0-0.925,0.196-1.233,0.462c-0.56,0.476-0.714,1.358-0.714,2.227
			s0.154,1.751,0.714,2.227c0.308,0.266,0.687,0.462,1.233,0.462c0.49,0,0.924-0.182,1.205-0.476
			c0.252-0.266,0.42-0.588,0.476-1.051h1.205C7.253,184.002,6.959,184.577,6.483,185.039z"/>
		<path fill="#2C292A" d="M14.701,184.983c-0.518,0.504-1.247,0.827-2.143,0.827s-1.625-0.322-2.143-0.827
			c-0.771-0.756-1.009-1.779-1.009-2.899s0.238-2.143,1.009-2.899c0.518-0.504,1.247-0.827,2.143-0.827s1.625,0.322,2.143,0.827
			c0.771,0.756,1.008,1.779,1.008,2.899S15.471,184.227,14.701,184.983z M13.832,179.884c-0.294-0.294-0.714-0.504-1.274-0.504
			c-0.561,0-0.98,0.21-1.275,0.504c-0.504,0.519-0.658,1.373-0.658,2.199s0.154,1.681,0.658,2.199
			c0.294,0.294,0.714,0.504,1.275,0.504c0.56,0,0.98-0.21,1.274-0.504c0.504-0.518,0.659-1.373,0.659-2.199
			S14.336,180.403,13.832,179.884z"/>
		<path fill="#2C292A" d="M23.143,185.039c-0.504,0.49-1.177,0.771-2.045,0.771c-1.274,0-2.087-0.588-2.591-1.331
			c-0.378-0.561-0.588-1.331-0.588-2.396s0.21-1.835,0.588-2.395c0.504-0.743,1.303-1.331,2.577-1.331
			c0.841,0,1.527,0.28,2.018,0.756c0.476,0.462,0.784,1.051,0.84,1.821h-1.205c-0.056-0.49-0.238-0.841-0.504-1.107
			c-0.28-0.266-0.687-0.434-1.149-0.434c-0.546,0-0.924,0.196-1.232,0.462c-0.561,0.476-0.714,1.358-0.714,2.227
			s0.154,1.751,0.714,2.227c0.308,0.266,0.687,0.462,1.232,0.462c0.491,0,0.925-0.182,1.205-0.476
			c0.252-0.266,0.42-0.588,0.476-1.051h1.205C23.913,184.002,23.619,184.577,23.143,185.039z"/>
		<path fill="#2C292A" d="M31.36,184.983c-0.518,0.504-1.247,0.827-2.143,0.827s-1.625-0.322-2.143-0.827
			c-0.771-0.756-1.009-1.779-1.009-2.899s0.238-2.143,1.009-2.899c0.518-0.504,1.247-0.827,2.143-0.827s1.625,0.322,2.143,0.827
			c0.771,0.756,1.009,1.779,1.009,2.899S32.131,184.227,31.36,184.983z M30.492,179.884c-0.294-0.294-0.714-0.504-1.274-0.504
			c-0.561,0-0.98,0.21-1.275,0.504c-0.504,0.519-0.658,1.373-0.658,2.199s0.154,1.681,0.658,2.199
			c0.294,0.294,0.714,0.504,1.275,0.504c0.56,0,0.98-0.21,1.274-0.504c0.504-0.518,0.659-1.373,0.659-2.199
			S30.996,180.403,30.492,179.884z"/>
		<path fill="#2C292A" d="M39.662,185.627v-4.497c0-1.064-0.435-1.695-1.555-1.695c-0.686,0-1.232,0.448-1.541,1.093
			c-0.238,0.518-0.252,1.261-0.252,1.807v3.292h-1.19v-7.088h1.037l0.098,1.064c0.364-0.812,1.345-1.247,2.143-1.247
			c1.611,0,2.451,0.967,2.451,2.605v4.665H39.662z"/>
		<path fill="#2C292A" d="M48.524,185.627l-0.098-1.079c-0.364,0.812-1.274,1.247-2.101,1.247c-1.611,0-2.423-0.966-2.423-2.605
			v-4.65h1.191v4.482c0,1.064,0.392,1.695,1.513,1.695c0.476,0,0.869-0.21,1.177-0.532c0.448-0.462,0.588-1.232,0.588-1.961v-3.684
			h1.19v7.088H48.524z"/>
		<path fill="#2C292A" d="M55.117,185.726c-1.527,0-1.947-0.967-1.947-1.919v-4.245h-1.373v-1.022h1.373v-1.807l1.19-0.28v2.087
			h2.102v1.022H54.36v4.104c0,0.686,0.294,0.966,0.953,0.966c0.504,0,1.219-0.126,1.219-0.126v1.022
			C56.209,185.613,55.775,185.726,55.117,185.726z"/>
		<path fill="#2C292A" d="M67.41,185.627v-4.497c0-1.064-0.435-1.695-1.555-1.695c-0.686,0-1.232,0.448-1.541,1.093
			c-0.238,0.518-0.252,1.261-0.252,1.807v3.292h-1.19v-10.113h1.19v3.964c0.42-0.729,1.275-1.121,2.073-1.121
			c1.611,0,2.465,0.967,2.465,2.605v4.665H67.41z"/>
		<path fill="#2C292A" d="M77.49,182.476h-5.015c0,0.645,0.252,1.345,0.686,1.779c0.322,0.322,0.756,0.504,1.303,0.504
			c0.561,0,1.022-0.154,1.317-0.462c0.196-0.196,0.322-0.393,0.42-0.771h1.163c-0.098,0.7-0.519,1.359-1.093,1.751
			c-0.504,0.336-1.135,0.532-1.807,0.532c-0.995,0-1.807-0.42-2.353-1.064c-0.588-0.687-0.883-1.625-0.883-2.634
			c0-0.854,0.154-1.611,0.546-2.269c0.504-0.854,1.443-1.485,2.676-1.485c0.91,0,1.639,0.35,2.157,0.911
			c0.575,0.63,0.911,1.541,0.896,2.493L77.49,182.476z M75.851,180.01c-0.294-0.392-0.77-0.644-1.4-0.644
			c-1.289,0-1.919,1.05-1.947,2.087h3.782C76.286,180.921,76.131,180.389,75.851,180.01z"/>
		<path fill="#2C292A" d="M85.358,185.726c-0.63,0-1.022-0.477-1.022-1.079h-0.028c-0.406,0.714-1.289,1.163-2.283,1.163
			c-1.625,0-2.437-1.093-2.437-2.185c0-0.911,0.588-2.101,2.521-2.213l2.157-0.126v-0.519c0-0.35-0.042-0.784-0.364-1.078
			c-0.238-0.225-0.588-0.364-1.163-0.364c-0.644,0-1.05,0.182-1.289,0.42c-0.224,0.224-0.35,0.504-0.35,0.854h-1.163
			c0.014-0.644,0.252-1.106,0.616-1.485c0.476-0.504,1.317-0.756,2.185-0.756c1.373,0,2.157,0.588,2.494,1.359
			c0.14,0.322,0.21,0.687,0.21,1.092v3.432c0,0.378,0.154,0.476,0.392,0.476c0.126,0,0.308-0.042,0.308-0.042v0.883
			C85.89,185.684,85.652,185.726,85.358,185.726z M84.265,182.209l-1.905,0.112c-0.714,0.042-1.555,0.378-1.555,1.274
			c0,0.63,0.392,1.219,1.4,1.219c0.546,0,1.079-0.182,1.457-0.574c0.42-0.434,0.602-1.022,0.602-1.611V182.209z"/>
		<path fill="#2C292A" d="M90.172,185.711c-1.037,0-1.485-0.616-1.485-1.737v-8.46h1.19v8.39c0,0.477,0.154,0.729,0.645,0.729
			c0.392,0,0.49-0.014,0.49-0.014v1.008C91.012,185.627,90.746,185.711,90.172,185.711z"/>
		<path fill="#2C292A" d="M95.758,185.726c-1.527,0-1.947-0.967-1.947-1.919v-4.245h-1.373v-1.022h1.373v-1.807l1.19-0.28v2.087
			h2.102v1.022h-2.102v4.104c0,0.686,0.294,0.966,0.953,0.966c0.504,0,1.219-0.126,1.219-0.126v1.022
			C96.85,185.613,96.416,185.726,95.758,185.726z"/>
		<path fill="#2C292A" d="M104.131,185.627v-4.497c0-1.064-0.435-1.695-1.555-1.695c-0.686,0-1.232,0.448-1.541,1.093
			c-0.238,0.518-0.252,1.261-0.252,1.807v3.292h-1.19v-10.113h1.19v3.964c0.42-0.729,1.275-1.121,2.073-1.121
			c1.611,0,2.465,0.967,2.465,2.605v4.665H104.131z"/>
		<path fill="#2C292A" d="M117.683,185.039c-0.462,0.477-1.135,0.771-2.003,0.771c-0.798,0-1.708-0.392-2.115-1.106l-0.084,0.924
			h-1.05v-10.113h1.19v3.852c0.378-0.645,1.289-1.009,2.059-1.009c0.827,0,1.485,0.28,1.947,0.714
			c0.714,0.687,1.079,1.807,1.079,3.026C118.706,183.274,118.355,184.353,117.683,185.039z M115.484,179.366
			c-0.519,0-0.869,0.21-1.149,0.462c-0.588,0.519-0.784,1.373-0.784,2.255s0.196,1.737,0.784,2.255
			c0.28,0.252,0.63,0.462,1.149,0.462c1.583,0,2.003-1.415,2.003-2.717S117.066,179.366,115.484,179.366z"/>
		<path fill="#2C292A" d="M127.161,182.476h-5.015c0,0.645,0.252,1.345,0.686,1.779c0.322,0.322,0.756,0.504,1.303,0.504
			c0.561,0,1.022-0.154,1.317-0.462c0.196-0.196,0.322-0.393,0.42-0.771h1.163c-0.098,0.7-0.519,1.359-1.093,1.751
			c-0.504,0.336-1.135,0.532-1.807,0.532c-0.995,0-1.807-0.42-2.353-1.064c-0.588-0.687-0.883-1.625-0.883-2.634
			c0-0.854,0.154-1.611,0.546-2.269c0.504-0.854,1.443-1.485,2.676-1.485c0.91,0,1.639,0.35,2.157,0.911
			c0.575,0.63,0.911,1.541,0.896,2.493L127.161,182.476z M125.522,180.01c-0.294-0.392-0.77-0.644-1.4-0.644
			c-1.289,0-1.919,1.05-1.947,2.087h3.782C125.957,180.921,125.802,180.389,125.522,180.01z"/>
		<path fill="#2C292A" d="M134.412,185.627v-4.497c0-1.064-0.435-1.695-1.555-1.695c-0.686,0-1.232,0.448-1.541,1.093
			c-0.238,0.518-0.252,1.261-0.252,1.807v3.292h-1.19v-7.088h1.037l0.098,1.064c0.364-0.812,1.345-1.247,2.143-1.247
			c1.611,0,2.451,0.967,2.451,2.605v4.665H134.412z"/>
		<path fill="#2C292A" d="M144.465,182.476h-5.015c0,0.645,0.252,1.345,0.686,1.779c0.322,0.322,0.756,0.504,1.303,0.504
			c0.561,0,1.022-0.154,1.317-0.462c0.196-0.196,0.322-0.393,0.42-0.771h1.163c-0.098,0.7-0.519,1.359-1.093,1.751
			c-0.504,0.336-1.135,0.532-1.807,0.532c-0.995,0-1.807-0.42-2.353-1.064c-0.588-0.687-0.883-1.625-0.883-2.634
			c0-0.854,0.154-1.611,0.546-2.269c0.504-0.854,1.443-1.485,2.676-1.485c0.91,0,1.639,0.35,2.157,0.911
			c0.575,0.63,0.911,1.541,0.896,2.493L144.465,182.476z M142.826,180.01c-0.294-0.392-0.77-0.644-1.4-0.644
			c-1.289,0-1.919,1.05-1.947,2.087h3.782C143.26,180.921,143.106,180.389,142.826,180.01z"/>
		<path fill="#2C292A" d="M149.685,176.382c-0.63,0-1.008,0.392-1.008,0.967v1.19h2.045v1.009h-2.045v6.079h-1.191v-6.079h-1.289
			v-1.009h1.289v-1.261c0-1.064,0.827-1.905,2.06-1.905c0.49,0,0.924,0.056,1.316,0.126v0.995
			C150.483,176.453,150.189,176.382,149.685,176.382z M152.136,176.915v-1.4h1.387v1.4H152.136z M152.22,185.627v-7.088h1.219v7.088
			H152.22z"/>
		<path fill="#2C292A" d="M158.995,185.726c-1.527,0-1.947-0.967-1.947-1.919v-4.245h-1.373v-1.022h1.373v-1.807l1.191-0.28v2.087
			h2.101v1.022h-2.101v4.104c0,0.686,0.294,0.966,0.952,0.966c0.504,0,1.219-0.126,1.219-0.126v1.022
			C160.087,185.613,159.653,185.726,158.995,185.726z"/>
		<path fill="#2C292A" d="M167.522,185.011c-0.546,0.56-1.387,0.798-2.311,0.798c-0.883,0-1.695-0.21-2.297-0.798
			c-0.434-0.42-0.687-1.022-0.687-1.625h1.191c0.014,0.49,0.238,0.854,0.574,1.106c0.322,0.238,0.827,0.322,1.275,0.322
			c0.49,0,0.938-0.084,1.302-0.392c0.196-0.154,0.351-0.448,0.351-0.771c0-0.532-0.378-0.911-1.107-1.008l-1.597-0.21
			c-1.064-0.168-1.737-0.826-1.737-1.905c0-0.546,0.266-1.065,0.588-1.387c0.462-0.477,1.205-0.785,2.087-0.785
			c0.938,0,1.779,0.294,2.255,0.896c0.308,0.378,0.504,0.785,0.504,1.359h-1.19c-0.014-0.364-0.196-0.701-0.406-0.882
			c-0.294-0.267-0.687-0.378-1.163-0.378c-0.28,0-0.49,0-0.827,0.14c-0.448,0.182-0.714,0.56-0.714,0.953
			c0,0.588,0.364,0.84,0.953,0.924c0.392,0.056,0.953,0.112,1.709,0.238c1.009,0.168,1.807,0.896,1.807,1.961
			C168.083,184.185,167.858,184.661,167.522,185.011z"/>
		<path fill="#2C292A" d="M6.483,210.039c-0.504,0.49-1.177,0.771-2.045,0.771c-1.274,0-2.087-0.588-2.591-1.331
			c-0.378-0.561-0.588-1.331-0.588-2.396s0.21-1.835,0.588-2.395c0.504-0.743,1.303-1.331,2.578-1.331
			c0.84,0,1.526,0.28,2.017,0.756c0.477,0.462,0.785,1.051,0.841,1.821H6.077c-0.056-0.49-0.238-0.841-0.504-1.107
			c-0.28-0.266-0.687-0.434-1.148-0.434c-0.546,0-0.925,0.196-1.233,0.462c-0.56,0.476-0.714,1.358-0.714,2.227
			s0.154,1.751,0.714,2.227c0.308,0.266,0.687,0.462,1.233,0.462c0.49,0,0.924-0.182,1.205-0.476
			c0.252-0.266,0.42-0.588,0.476-1.051h1.205C7.253,209.002,6.959,209.577,6.483,210.039z"/>
		<path fill="#2C292A" d="M14.701,209.983c-0.518,0.504-1.247,0.827-2.143,0.827s-1.625-0.322-2.143-0.827
			c-0.771-0.756-1.009-1.779-1.009-2.899s0.238-2.143,1.009-2.899c0.518-0.504,1.247-0.827,2.143-0.827s1.625,0.322,2.143,0.827
			c0.771,0.756,1.008,1.779,1.008,2.899S15.471,209.227,14.701,209.983z M13.832,204.884c-0.294-0.294-0.714-0.504-1.274-0.504
			c-0.561,0-0.98,0.21-1.275,0.504c-0.504,0.519-0.658,1.373-0.658,2.199s0.154,1.681,0.658,2.199
			c0.294,0.294,0.714,0.504,1.275,0.504c0.56,0,0.98-0.21,1.274-0.504c0.504-0.518,0.659-1.373,0.659-2.199
			S14.336,205.403,13.832,204.884z"/>
		<path fill="#2C292A" d="M23.143,210.039c-0.504,0.49-1.177,0.771-2.045,0.771c-1.274,0-2.087-0.588-2.591-1.331
			c-0.378-0.561-0.588-1.331-0.588-2.396s0.21-1.835,0.588-2.395c0.504-0.743,1.303-1.331,2.577-1.331
			c0.841,0,1.527,0.28,2.018,0.756c0.476,0.462,0.784,1.051,0.84,1.821h-1.205c-0.056-0.49-0.238-0.841-0.504-1.107
			c-0.28-0.266-0.687-0.434-1.149-0.434c-0.546,0-0.924,0.196-1.232,0.462c-0.561,0.476-0.714,1.358-0.714,2.227
			s0.154,1.751,0.714,2.227c0.308,0.266,0.687,0.462,1.232,0.462c0.491,0,0.925-0.182,1.205-0.476
			c0.252-0.266,0.42-0.588,0.476-1.051h1.205C23.913,209.002,23.619,209.577,23.143,210.039z"/>
		<path fill="#2C292A" d="M31.36,209.983c-0.518,0.504-1.247,0.827-2.143,0.827s-1.625-0.322-2.143-0.827
			c-0.771-0.756-1.009-1.779-1.009-2.899s0.238-2.143,1.009-2.899c0.518-0.504,1.247-0.827,2.143-0.827s1.625,0.322,2.143,0.827
			c0.771,0.756,1.009,1.779,1.009,2.899S32.131,209.227,31.36,209.983z M30.492,204.884c-0.294-0.294-0.714-0.504-1.274-0.504
			c-0.561,0-0.98,0.21-1.275,0.504c-0.504,0.519-0.658,1.373-0.658,2.199s0.154,1.681,0.658,2.199
			c0.294,0.294,0.714,0.504,1.275,0.504c0.56,0,0.98-0.21,1.274-0.504c0.504-0.518,0.659-1.373,0.659-2.199
			S30.996,205.403,30.492,204.884z"/>
		<path fill="#2C292A" d="M39.662,210.627v-4.497c0-1.064-0.435-1.695-1.555-1.695c-0.686,0-1.232,0.448-1.541,1.093
			c-0.238,0.518-0.252,1.261-0.252,1.807v3.292h-1.19v-7.088h1.037l0.098,1.064c0.364-0.812,1.345-1.247,2.143-1.247
			c1.611,0,2.451,0.967,2.451,2.605v4.665H39.662z"/>
		<path fill="#2C292A" d="M48.524,210.627l-0.098-1.079c-0.364,0.812-1.274,1.247-2.101,1.247c-1.611,0-2.423-0.966-2.423-2.605
			v-4.65h1.191v4.482c0,1.064,0.392,1.695,1.513,1.695c0.476,0,0.869-0.21,1.177-0.532c0.448-0.462,0.588-1.232,0.588-1.961v-3.684
			h1.19v7.088H48.524z"/>
		<path fill="#2C292A" d="M55.117,210.726c-1.527,0-1.947-0.967-1.947-1.919v-4.245h-1.373v-1.022h1.373v-1.807l1.19-0.28v2.087
			h2.102v1.022H54.36v4.104c0,0.686,0.294,0.966,0.953,0.966c0.504,0,1.219-0.126,1.219-0.126v1.022
			C56.209,210.613,55.775,210.726,55.117,210.726z"/>
		<path fill="#2C292A" d="M71.486,210.627v-4.51c0-0.995-0.322-1.681-1.443-1.681c-0.448,0-0.798,0.182-1.079,0.476
			c-0.476,0.491-0.603,1.205-0.603,1.947v3.768h-1.19v-4.51c0-0.995-0.294-1.681-1.429-1.681c-0.504,0-0.911,0.252-1.205,0.63
			c-0.35,0.448-0.477,1.205-0.477,1.793v3.768h-1.19v-7.088h1.037l0.112,1.009c0.378-0.799,1.191-1.191,1.989-1.191
			c1.05,0,1.807,0.477,2.115,1.345c0.378-0.882,1.289-1.345,2.185-1.345c1.611,0,2.367,1.037,2.367,2.605v4.665H71.486z"/>
		<path fill="#2C292A" d="M75.779,201.915v-1.4h1.387v1.4H75.779z M75.863,210.627v-7.088h1.219v7.088H75.863z"/>
		<path fill="#2C292A" d="M81.828,210.711c-1.037,0-1.485-0.616-1.485-1.737v-8.46h1.19v8.39c0,0.477,0.154,0.729,0.645,0.729
			c0.392,0,0.49-0.014,0.49-0.014v1.008C82.668,210.627,82.402,210.711,81.828,210.711z"/>
		<path fill="#2C292A" d="M89.922,210.627l-2.213-3.418l-1.359,1.513v1.905h-1.19v-10.113h1.19v6.597l3.208-3.572H91l-2.521,2.802
			l2.788,4.286H89.922z"/>
		<path fill="#2C292A" d="M6.483,235.039c-0.504,0.49-1.177,0.77-2.045,0.77c-1.274,0-2.087-0.588-2.591-1.33
			c-0.378-0.561-0.588-1.331-0.588-2.396s0.21-1.835,0.588-2.396c0.504-0.742,1.303-1.33,2.578-1.33c0.84,0,1.526,0.279,2.017,0.756
			c0.477,0.463,0.785,1.051,0.841,1.821H6.077c-0.056-0.49-0.238-0.841-0.504-1.106c-0.28-0.267-0.687-0.435-1.148-0.435
			c-0.546,0-0.925,0.196-1.233,0.462c-0.56,0.477-0.714,1.359-0.714,2.228s0.154,1.751,0.714,2.228
			c0.308,0.266,0.687,0.462,1.233,0.462c0.49,0,0.924-0.182,1.205-0.477c0.252-0.266,0.42-0.588,0.476-1.05h1.205
			C7.253,234.002,6.959,234.576,6.483,235.039z"/>
		<path fill="#2C292A" d="M14.701,234.982c-0.518,0.505-1.247,0.826-2.143,0.826s-1.625-0.321-2.143-0.826
			c-0.771-0.756-1.009-1.778-1.009-2.899c0-1.12,0.238-2.144,1.009-2.899c0.518-0.504,1.247-0.826,2.143-0.826
			s1.625,0.322,2.143,0.826c0.771,0.756,1.008,1.779,1.008,2.899C15.709,233.204,15.471,234.227,14.701,234.982z M13.832,229.884
			c-0.294-0.294-0.714-0.504-1.274-0.504c-0.561,0-0.98,0.21-1.275,0.504c-0.504,0.519-0.658,1.373-0.658,2.199
			s0.154,1.681,0.658,2.199c0.294,0.294,0.714,0.504,1.275,0.504c0.56,0,0.98-0.21,1.274-0.504c0.504-0.519,0.659-1.373,0.659-2.199
			S14.336,230.402,13.832,229.884z"/>
		<path fill="#2C292A" d="M23.143,235.039c-0.504,0.49-1.177,0.77-2.045,0.77c-1.274,0-2.087-0.588-2.591-1.33
			c-0.378-0.561-0.588-1.331-0.588-2.396s0.21-1.835,0.588-2.396c0.504-0.742,1.303-1.33,2.577-1.33
			c0.841,0,1.527,0.279,2.018,0.756c0.476,0.463,0.784,1.051,0.84,1.821h-1.205c-0.056-0.49-0.238-0.841-0.504-1.106
			c-0.28-0.267-0.687-0.435-1.149-0.435c-0.546,0-0.924,0.196-1.232,0.462c-0.561,0.477-0.714,1.359-0.714,2.228
			s0.154,1.751,0.714,2.228c0.308,0.266,0.687,0.462,1.232,0.462c0.491,0,0.925-0.182,1.205-0.477
			c0.252-0.266,0.42-0.588,0.476-1.05h1.205C23.913,234.002,23.619,234.576,23.143,235.039z"/>
		<path fill="#2C292A" d="M31.36,234.982c-0.518,0.505-1.247,0.826-2.143,0.826s-1.625-0.321-2.143-0.826
			c-0.771-0.756-1.009-1.778-1.009-2.899c0-1.12,0.238-2.144,1.009-2.899c0.518-0.504,1.247-0.826,2.143-0.826
			s1.625,0.322,2.143,0.826c0.771,0.756,1.009,1.779,1.009,2.899C32.369,233.204,32.131,234.227,31.36,234.982z M30.492,229.884
			c-0.294-0.294-0.714-0.504-1.274-0.504c-0.561,0-0.98,0.21-1.275,0.504c-0.504,0.519-0.658,1.373-0.658,2.199
			s0.154,1.681,0.658,2.199c0.294,0.294,0.714,0.504,1.275,0.504c0.56,0,0.98-0.21,1.274-0.504c0.504-0.519,0.659-1.373,0.659-2.199
			S30.996,230.402,30.492,229.884z"/>
		<path fill="#2C292A" d="M39.662,235.627v-4.496c0-1.064-0.435-1.695-1.555-1.695c-0.686,0-1.232,0.448-1.541,1.093
			c-0.238,0.519-0.252,1.261-0.252,1.807v3.292h-1.19v-7.088h1.037l0.098,1.064c0.364-0.812,1.345-1.246,2.143-1.246
			c1.611,0,2.451,0.966,2.451,2.605v4.664H39.662z"/>
		<path fill="#2C292A" d="M48.524,235.627l-0.098-1.078c-0.364,0.812-1.274,1.246-2.101,1.246c-1.611,0-2.423-0.967-2.423-2.605
			v-4.65h1.191v4.482c0,1.064,0.392,1.695,1.513,1.695c0.476,0,0.869-0.211,1.177-0.532c0.448-0.463,0.588-1.233,0.588-1.962v-3.684
			h1.19v7.088H48.524z"/>
		<path fill="#2C292A" d="M55.117,235.725c-1.527,0-1.947-0.966-1.947-1.919v-4.244h-1.373v-1.022h1.373v-1.807l1.19-0.28v2.087
			h2.102v1.022H54.36v4.104c0,0.687,0.294,0.967,0.953,0.967c0.504,0,1.219-0.127,1.219-0.127v1.023
			C56.209,235.613,55.775,235.725,55.117,235.725z"/>
		<path fill="#2C292A" d="M71.486,235.627v-4.511c0-0.994-0.322-1.681-1.443-1.681c-0.448,0-0.798,0.183-1.079,0.477
			c-0.476,0.49-0.603,1.204-0.603,1.947v3.768h-1.19v-4.511c0-0.994-0.294-1.681-1.429-1.681c-0.504,0-0.911,0.252-1.205,0.631
			c-0.35,0.448-0.477,1.204-0.477,1.793v3.768h-1.19v-7.088h1.037l0.112,1.009c0.378-0.799,1.191-1.19,1.989-1.19
			c1.05,0,1.807,0.476,2.115,1.345c0.378-0.883,1.289-1.345,2.185-1.345c1.611,0,2.367,1.036,2.367,2.605v4.664H71.486z"/>
		<path fill="#2C292A" d="M75.779,226.914v-1.4h1.387v1.4H75.779z M75.863,235.627v-7.088h1.219v7.088H75.863z"/>
		<path fill="#2C292A" d="M81.828,235.711c-1.037,0-1.485-0.616-1.485-1.737v-8.46h1.19v8.391c0,0.476,0.154,0.729,0.645,0.729
			c0.392,0,0.49-0.015,0.49-0.015v1.009C82.668,235.627,82.402,235.711,81.828,235.711z"/>
		<path fill="#2C292A" d="M89.922,235.627l-2.213-3.418l-1.359,1.513v1.905h-1.19v-10.113h1.19v6.598l3.208-3.572H91l-2.521,2.802
			l2.788,4.286H89.922z"/>
		<path fill="#2C292A" d="M102.662,235.039c-0.462,0.476-1.135,0.77-2.003,0.77c-0.798,0-1.708-0.392-2.115-1.106l-0.084,0.925
			h-1.05v-10.113h1.19v3.852c0.378-0.644,1.289-1.008,2.059-1.008c0.827,0,1.485,0.279,1.947,0.714
			c0.714,0.687,1.079,1.807,1.079,3.025C103.684,233.273,103.334,234.353,102.662,235.039z M100.462,229.365
			c-0.519,0-0.869,0.211-1.149,0.463c-0.588,0.518-0.784,1.372-0.784,2.255s0.196,1.737,0.784,2.255
			c0.28,0.253,0.63,0.463,1.149,0.463c1.583,0,2.003-1.415,2.003-2.718S102.045,229.365,100.462,229.365z"/>
		<path fill="#2C292A" d="M112.139,232.476h-5.015c0,0.644,0.252,1.345,0.686,1.778c0.322,0.322,0.756,0.505,1.303,0.505
			c0.561,0,1.022-0.154,1.317-0.463c0.196-0.195,0.322-0.392,0.42-0.771h1.163c-0.098,0.701-0.519,1.359-1.093,1.751
			c-0.504,0.337-1.135,0.532-1.807,0.532c-0.995,0-1.807-0.42-2.353-1.064c-0.588-0.686-0.883-1.625-0.883-2.633
			c0-0.854,0.154-1.611,0.546-2.27c0.504-0.854,1.443-1.484,2.676-1.484c0.91,0,1.639,0.35,2.157,0.91
			c0.575,0.63,0.911,1.541,0.896,2.493L112.139,232.476z M110.5,230.01c-0.294-0.392-0.771-0.645-1.4-0.645
			c-1.289,0-1.919,1.051-1.947,2.088h3.782C110.935,230.92,110.78,230.388,110.5,230.01z"/>
		<path fill="#2C292A" d="M119.391,235.627v-4.496c0-1.064-0.435-1.695-1.555-1.695c-0.686,0-1.232,0.448-1.541,1.093
			c-0.238,0.519-0.252,1.261-0.252,1.807v3.292h-1.19v-7.088h1.037l0.098,1.064c0.364-0.812,1.345-1.246,2.143-1.246
			c1.611,0,2.451,0.966,2.451,2.605v4.664H119.391z"/>
		<path fill="#2C292A" d="M129.443,232.476h-5.015c0,0.644,0.252,1.345,0.686,1.778c0.322,0.322,0.756,0.505,1.303,0.505
			c0.561,0,1.022-0.154,1.317-0.463c0.196-0.195,0.322-0.392,0.42-0.771h1.163c-0.098,0.701-0.519,1.359-1.093,1.751
			c-0.504,0.337-1.135,0.532-1.807,0.532c-0.995,0-1.807-0.42-2.353-1.064c-0.588-0.686-0.883-1.625-0.883-2.633
			c0-0.854,0.154-1.611,0.546-2.27c0.504-0.854,1.443-1.484,2.676-1.484c0.91,0,1.639,0.35,2.157,0.91
			c0.575,0.63,0.911,1.541,0.896,2.493L129.443,232.476z M127.804,230.01c-0.294-0.392-0.77-0.645-1.4-0.645
			c-1.289,0-1.919,1.051-1.947,2.088h3.782C128.239,230.92,128.084,230.388,127.804,230.01z"/>
		<path fill="#2C292A" d="M134.663,226.382c-0.63,0-1.008,0.393-1.008,0.967v1.19h2.045v1.009h-2.045v6.079h-1.191v-6.079h-1.289
			v-1.009h1.289v-1.261c0-1.064,0.827-1.905,2.06-1.905c0.49,0,0.924,0.056,1.316,0.126v0.995
			C135.462,226.452,135.167,226.382,134.663,226.382z M137.115,226.914v-1.4h1.387v1.4H137.115z M137.199,235.627v-7.088h1.219
			v7.088H137.199z"/>
		<path fill="#2C292A" d="M143.973,235.725c-1.527,0-1.947-0.966-1.947-1.919v-4.244h-1.373v-1.022h1.373v-1.807l1.191-0.28v2.087
			h2.101v1.022h-2.101v4.104c0,0.687,0.294,0.967,0.952,0.967c0.504,0,1.219-0.127,1.219-0.127v1.023
			C145.065,235.613,144.631,235.725,143.973,235.725z"/>
		<path fill="#2C292A" d="M152.5,235.011c-0.546,0.561-1.387,0.798-2.311,0.798c-0.882,0-1.695-0.21-2.297-0.798
			c-0.434-0.42-0.687-1.022-0.687-1.625h1.191c0.014,0.49,0.238,0.854,0.574,1.106c0.322,0.238,0.827,0.322,1.275,0.322
			c0.49,0,0.938-0.084,1.303-0.393c0.196-0.153,0.35-0.448,0.35-0.77c0-0.533-0.378-0.911-1.107-1.009l-1.597-0.21
			c-1.064-0.168-1.737-0.827-1.737-1.905c0-0.547,0.266-1.064,0.588-1.387c0.462-0.477,1.205-0.784,2.087-0.784
			c0.938,0,1.779,0.294,2.255,0.896c0.308,0.378,0.504,0.784,0.504,1.358h-1.191c-0.014-0.364-0.196-0.7-0.406-0.883
			c-0.294-0.266-0.687-0.378-1.163-0.378c-0.28,0-0.49,0-0.826,0.14c-0.448,0.183-0.715,0.561-0.715,0.953
			c0,0.588,0.364,0.84,0.953,0.925c0.392,0.056,0.953,0.111,1.709,0.237c1.009,0.168,1.807,0.896,1.807,1.961
			C153.061,234.185,152.836,234.66,152.5,235.011z"/>
		<path fill="#2C292A" d="M6.343,260.627v-4.496c0-1.064-0.435-1.695-1.555-1.695c-0.686,0-1.232,0.448-1.541,1.093
			c-0.238,0.519-0.252,1.261-0.252,1.807v3.292h-1.19v-10.113h1.19v3.964c0.42-0.729,1.275-1.12,2.073-1.12
			c1.611,0,2.465,0.966,2.465,2.605v4.664H6.343z"/>
		<path fill="#2C292A" d="M16.423,257.476h-5.015c0,0.644,0.252,1.345,0.686,1.778c0.322,0.322,0.756,0.505,1.303,0.505
			c0.561,0,1.022-0.154,1.317-0.463c0.196-0.195,0.322-0.392,0.42-0.771h1.163c-0.098,0.701-0.519,1.359-1.093,1.751
			c-0.504,0.337-1.135,0.532-1.807,0.532c-0.995,0-1.807-0.42-2.353-1.064c-0.588-0.686-0.883-1.625-0.883-2.633
			c0-0.854,0.154-1.611,0.546-2.27c0.504-0.854,1.443-1.484,2.676-1.484c0.91,0,1.639,0.35,2.157,0.91
			c0.575,0.63,0.911,1.541,0.896,2.493L16.423,257.476z M14.784,255.01c-0.294-0.392-0.771-0.645-1.4-0.645
			c-1.289,0-1.919,1.051-1.947,2.088h3.782C15.219,255.92,15.064,255.388,14.784,255.01z"/>
		<path fill="#2C292A" d="M24.291,260.725c-0.63,0-1.022-0.476-1.022-1.078H23.24c-0.406,0.714-1.289,1.162-2.283,1.162
			c-1.625,0-2.437-1.092-2.437-2.185c0-0.911,0.588-2.102,2.521-2.213l2.157-0.127v-0.518c0-0.351-0.042-0.785-0.364-1.079
			c-0.238-0.224-0.588-0.364-1.163-0.364c-0.644,0-1.05,0.183-1.289,0.421c-0.224,0.224-0.35,0.504-0.35,0.854H18.87
			c0.014-0.645,0.252-1.107,0.616-1.485c0.476-0.504,1.317-0.756,2.185-0.756c1.373,0,2.157,0.588,2.494,1.358
			c0.14,0.322,0.21,0.687,0.21,1.093v3.432c0,0.378,0.154,0.477,0.392,0.477c0.126,0,0.308-0.042,0.308-0.042v0.882
			C24.823,260.683,24.584,260.725,24.291,260.725z M23.198,257.209l-1.905,0.112c-0.714,0.042-1.555,0.378-1.555,1.274
			c0,0.631,0.392,1.219,1.4,1.219c0.546,0,1.079-0.182,1.457-0.574c0.42-0.435,0.602-1.022,0.602-1.611V257.209z"/>
		<path fill="#2C292A" d="M29.104,260.711c-1.037,0-1.485-0.616-1.485-1.737v-8.46h1.19v8.391c0,0.476,0.154,0.729,0.645,0.729
			c0.392,0,0.49-0.015,0.49-0.015v1.009C29.945,260.627,29.679,260.711,29.104,260.711z"/>
		<path fill="#2C292A" d="M34.69,260.725c-1.527,0-1.947-0.966-1.947-1.919v-4.244h-1.373v-1.022h1.373v-1.807l1.19-0.28v2.087
			h2.102v1.022h-2.102v4.104c0,0.687,0.294,0.967,0.953,0.967c0.504,0,1.219-0.127,1.219-0.127v1.023
			C35.783,260.613,35.349,260.725,34.69,260.725z"/>
		<path fill="#2C292A" d="M43.064,260.627v-4.496c0-1.064-0.435-1.695-1.555-1.695c-0.686,0-1.232,0.448-1.541,1.093
			c-0.238,0.519-0.252,1.261-0.252,1.807v3.292h-1.19v-10.113h1.19v3.964c0.42-0.729,1.275-1.12,2.073-1.12
			c1.611,0,2.465,0.966,2.465,2.605v4.664H43.064z"/>
		<path fill="#2C292A" d="M56.042,260.039c-0.504,0.49-1.177,0.77-2.045,0.77c-1.274,0-2.087-0.588-2.591-1.33
			c-0.378-0.561-0.588-1.331-0.588-2.396s0.21-1.835,0.588-2.396c0.504-0.742,1.303-1.33,2.578-1.33c0.84,0,1.526,0.279,2.017,0.756
			c0.477,0.463,0.785,1.051,0.841,1.821h-1.205c-0.056-0.49-0.238-0.841-0.504-1.106c-0.28-0.267-0.687-0.435-1.148-0.435
			c-0.546,0-0.925,0.196-1.233,0.462c-0.56,0.477-0.714,1.359-0.714,2.228s0.154,1.751,0.714,2.228
			c0.308,0.266,0.687,0.462,1.233,0.462c0.49,0,0.924-0.182,1.205-0.477c0.252-0.266,0.42-0.588,0.476-1.05h1.205
			C56.812,259.002,56.518,259.576,56.042,260.039z"/>
		<path fill="#2C292A" d="M64.259,259.982c-0.518,0.505-1.247,0.826-2.143,0.826s-1.625-0.321-2.143-0.826
			c-0.771-0.756-1.009-1.778-1.009-2.899c0-1.12,0.238-2.144,1.009-2.899c0.518-0.504,1.247-0.826,2.143-0.826
			s1.625,0.322,2.143,0.826c0.771,0.756,1.008,1.779,1.008,2.899C65.268,258.204,65.03,259.227,64.259,259.982z M63.391,254.884
			c-0.294-0.294-0.714-0.504-1.274-0.504c-0.561,0-0.98,0.21-1.275,0.504c-0.504,0.519-0.658,1.373-0.658,2.199
			s0.154,1.681,0.658,2.199c0.294,0.294,0.714,0.504,1.275,0.504c0.56,0,0.98-0.21,1.274-0.504c0.504-0.519,0.659-1.373,0.659-2.199
			S63.895,255.402,63.391,254.884z"/>
		<path fill="#2C292A" d="M72.701,260.039c-0.504,0.49-1.177,0.77-2.045,0.77c-1.274,0-2.087-0.588-2.591-1.33
			c-0.378-0.561-0.588-1.331-0.588-2.396s0.21-1.835,0.588-2.396c0.504-0.742,1.303-1.33,2.577-1.33
			c0.841,0,1.527,0.279,2.018,0.756c0.476,0.463,0.784,1.051,0.84,1.821h-1.205c-0.056-0.49-0.238-0.841-0.504-1.106
			c-0.28-0.267-0.687-0.435-1.149-0.435c-0.546,0-0.924,0.196-1.232,0.462c-0.561,0.477-0.714,1.359-0.714,2.228
			s0.154,1.751,0.714,2.228c0.308,0.266,0.687,0.462,1.232,0.462c0.491,0,0.925-0.182,1.205-0.477
			c0.252-0.266,0.42-0.588,0.476-1.05h1.205C73.471,259.002,73.177,259.576,72.701,260.039z"/>
		<path fill="#2C292A" d="M80.919,259.982c-0.518,0.505-1.247,0.826-2.143,0.826s-1.625-0.321-2.143-0.826
			c-0.771-0.756-1.009-1.778-1.009-2.899c0-1.12,0.238-2.144,1.009-2.899c0.518-0.504,1.247-0.826,2.143-0.826
			s1.625,0.322,2.143,0.826c0.771,0.756,1.009,1.779,1.009,2.899C81.928,258.204,81.689,259.227,80.919,259.982z M80.05,254.884
			c-0.294-0.294-0.714-0.504-1.274-0.504c-0.561,0-0.98,0.21-1.275,0.504c-0.504,0.519-0.658,1.373-0.658,2.199
			s0.154,1.681,0.658,2.199c0.294,0.294,0.714,0.504,1.275,0.504c0.56,0,0.98-0.21,1.274-0.504c0.504-0.519,0.659-1.373,0.659-2.199
			S80.555,255.402,80.05,254.884z"/>
		<path fill="#2C292A" d="M89.221,260.627v-4.496c0-1.064-0.435-1.695-1.555-1.695c-0.686,0-1.232,0.448-1.541,1.093
			c-0.238,0.519-0.252,1.261-0.252,1.807v3.292h-1.19v-7.088h1.037l0.098,1.064c0.364-0.812,1.345-1.246,2.143-1.246
			c1.611,0,2.451,0.966,2.451,2.605v4.664H89.221z"/>
		<path fill="#2C292A" d="M98.083,260.627l-0.098-1.078c-0.364,0.812-1.274,1.246-2.101,1.246c-1.611,0-2.423-0.967-2.423-2.605
			v-4.65h1.191v4.482c0,1.064,0.392,1.695,1.513,1.695c0.476,0,0.869-0.211,1.177-0.532c0.448-0.463,0.588-1.233,0.588-1.962v-3.684
			h1.19v7.088H98.083z"/>
		<path fill="#2C292A" d="M104.676,260.725c-1.527,0-1.947-0.966-1.947-1.919v-4.244h-1.373v-1.022h1.373v-1.807l1.19-0.28v2.087
			h2.102v1.022h-2.102v4.104c0,0.687,0.294,0.967,0.953,0.967c0.504,0,1.219-0.127,1.219-0.127v1.023
			C105.768,260.613,105.334,260.725,104.676,260.725z"/>
		<path fill="#2C292A" d="M121.045,260.627v-4.511c0-0.994-0.322-1.681-1.443-1.681c-0.448,0-0.798,0.183-1.079,0.477
			c-0.476,0.49-0.603,1.204-0.603,1.947v3.768h-1.19v-4.511c0-0.994-0.294-1.681-1.429-1.681c-0.504,0-0.911,0.252-1.205,0.631
			c-0.35,0.448-0.477,1.204-0.477,1.793v3.768h-1.19v-7.088h1.037l0.112,1.009c0.378-0.799,1.191-1.19,1.989-1.19
			c1.05,0,1.807,0.476,2.115,1.345c0.378-0.883,1.289-1.345,2.185-1.345c1.611,0,2.367,1.036,2.367,2.605v4.664H121.045z"/>
		<path fill="#2C292A" d="M125.338,251.914v-1.4h1.387v1.4H125.338z M125.422,260.627v-7.088h1.219v7.088H125.422z"/>
		<path fill="#2C292A" d="M131.387,260.711c-1.037,0-1.485-0.616-1.485-1.737v-8.46h1.19v8.391c0,0.476,0.154,0.729,0.645,0.729
			c0.392,0,0.49-0.015,0.49-0.015v1.009C132.227,260.627,131.961,260.711,131.387,260.711z"/>
		<path fill="#2C292A" d="M139.48,260.627l-2.213-3.418l-1.359,1.513v1.905h-1.19v-10.113h1.19v6.598l3.208-3.572h1.443
			l-2.521,2.802l2.788,4.286H139.48z"/>
	</g>
	<line fill="none" stroke="#B09C8E" stroke-linejoin="round" stroke-miterlimit="10" x1="1" y1="89.5" x2="207" y2="89.5"/>
</g>
</svg>
