<?xml version="1.0" encoding="utf-8"?>
<!-- Generator: Adobe Illustrator 17.0.0, SVG Export Plug-In . SVG Version: 6.00 Build 0)  -->
<!DOCTYPE svg PUBLIC "-//W3C//DTD SVG 1.1//EN" "http://www.w3.org/Graphics/SVG/1.1/DTD/svg11.dtd">
<svg version="1.1" id="Livello_1" xmlns="http://www.w3.org/2000/svg" xmlns:xlink="http://www.w3.org/1999/xlink" x="0px" y="0px"
	 width="768px" height="91.793px" viewBox="0 -1.874 768 91.793" enable-background="new 0 -1.874 768 91.793" xml:space="preserve"
	>
<g>
	<path fill="#262625" d="M340.058,80.642c-1.391,0-2.301-0.352-3.172-1.223l0.676-0.676c0.767,0.768,1.482,1.015,2.522,1.015
		c1.352,0,2.184-0.638,2.184-1.717c0-0.48-0.143-0.896-0.442-1.156c-0.299-0.261-0.533-0.339-1.209-0.442l-1.079-0.169
		c-0.728-0.117-1.3-0.352-1.703-0.702c-0.468-0.416-0.702-0.988-0.702-1.729c0-1.572,1.131-2.612,2.964-2.612
		c1.183,0,1.963,0.299,2.756,1.014l-0.637,0.637c-0.572-0.52-1.183-0.793-2.158-0.793c-1.235,0-1.95,0.689-1.95,1.717
		c0,0.454,0.13,0.818,0.416,1.065s0.767,0.429,1.248,0.507l1.014,0.156c0.871,0.13,1.3,0.312,1.69,0.65
		c0.507,0.429,0.78,1.065,0.78,1.833C343.256,79.641,341.981,80.642,340.058,80.642z"/>
	<path fill="#262625" d="M345.972,80.564v-9.256h0.988v9.256H345.972z"/>
	<path fill="#262625" d="M351.9,80.564c-1.092,0-1.638-0.767-1.638-1.716v-3.927h-0.806v-0.715h0.806v-2.002h0.936v2.002h1.365
		v0.715h-1.365v3.9c0,0.585,0.273,0.937,0.871,0.937h0.494v0.806C352.563,80.564,351.9,80.564,351.9,80.564z"/>
	<path fill="#262625" d="M355.553,77.613c0,1.404,0.663,2.21,1.885,2.21c0.741,0,1.17-0.221,1.677-0.728l0.637,0.559
		c-0.65,0.65-1.248,0.988-2.34,0.988c-1.69,0-2.795-1.014-2.795-3.276c0-2.067,1.001-3.276,2.626-3.276
		c1.651,0,2.626,1.196,2.626,3.095v0.429L355.553,77.613L355.553,77.613z M358.738,75.845c-0.247-0.586-0.819-0.963-1.495-0.963
		s-1.248,0.377-1.495,0.963c-0.143,0.351-0.169,0.546-0.195,1.065h3.38C358.908,76.391,358.881,76.196,358.738,75.845z"/>
	<path fill="#262625" d="M362.482,73.426v-2.118h1.131V72.4L362.482,73.426z"/>
	<path fill="#262625" d="M367.825,80.642c-1.079,0-1.924-0.247-2.626-0.923l0.624-0.624c0.507,0.533,1.196,0.74,1.989,0.74
		c1.053,0,1.703-0.377,1.703-1.131c0-0.559-0.325-0.871-1.066-0.936l-1.053-0.091c-1.248-0.104-1.911-0.663-1.911-1.717
		c0-1.17,0.988-1.872,2.353-1.872c0.91,0,1.729,0.222,2.301,0.689l-0.611,0.611c-0.455-0.352-1.04-0.508-1.703-0.508
		c-0.936,0-1.43,0.403-1.43,1.054c0,0.546,0.312,0.871,1.118,0.936l1.027,0.091c1.118,0.104,1.885,0.533,1.885,1.729
		C370.425,79.927,369.372,80.642,367.825,80.642z"/>
	<path fill="#262625" d="M382.866,80.564l-4.914-7.423v7.423h-0.988v-9.256h0.936l4.915,7.396v-7.396h0.988v9.256
		C383.803,80.564,382.866,80.564,382.866,80.564z"/>
	<path fill="#262625" d="M387.532,77.613c0,1.404,0.663,2.21,1.885,2.21c0.741,0,1.17-0.221,1.678-0.728l0.637,0.559
		c-0.65,0.65-1.248,0.988-2.34,0.988c-1.69,0-2.796-1.014-2.796-3.276c0-2.067,1.002-3.276,2.627-3.276
		c1.65,0,2.626,1.196,2.626,3.095v0.429L387.532,77.613L387.532,77.613z M390.718,75.845c-0.247-0.586-0.819-0.963-1.495-0.963
		c-0.677,0-1.248,0.377-1.495,0.963c-0.144,0.351-0.169,0.546-0.195,1.065h3.38C390.887,76.391,390.86,76.196,390.718,75.845z"/>
	<path fill="#262625" d="M396.281,80.564c-1.092,0-1.638-0.767-1.638-1.716v-3.927h-0.807v-0.715h0.807v-2.002h0.936v2.002h1.365
		v0.715h-1.365v3.9c0,0.585,0.273,0.937,0.871,0.937h0.494v0.806C396.944,80.564,396.281,80.564,396.281,80.564z"/>
	<path fill="#262625" d="M405.537,80.564h-0.871l-1.677-4.966l-1.664,4.966h-0.871l-2.028-6.396h1.015l1.469,5.136l1.677-5.136
		h0.807l1.689,5.136l1.456-5.136h1.015L405.537,80.564z"/>
	<path fill="#262625" d="M413.559,79.913c-0.442,0.442-1.054,0.729-1.833,0.729c-0.78,0-1.392-0.286-1.833-0.729
		c-0.65-0.663-0.78-1.56-0.78-2.548s0.13-1.885,0.78-2.548c0.441-0.442,1.053-0.729,1.833-0.729c0.779,0,1.391,0.286,1.833,0.729
		c0.649,0.663,0.779,1.56,0.779,2.548S414.208,79.25,413.559,79.913z M412.896,75.39c-0.299-0.3-0.715-0.469-1.17-0.469
		s-0.858,0.169-1.157,0.469c-0.468,0.468-0.521,1.261-0.521,1.976s0.053,1.508,0.521,1.977c0.299,0.299,0.702,0.468,1.157,0.468
		s0.871-0.169,1.17-0.468c0.468-0.469,0.507-1.262,0.507-1.977S413.363,75.858,412.896,75.39z"/>
	<path fill="#262625" d="M420.552,75.39c-0.351-0.352-0.61-0.469-1.104-0.469c-0.937,0-1.534,0.741-1.534,1.717v3.926h-0.937v-6.396
		h0.937v0.78c0.351-0.533,1.053-0.858,1.794-0.858c0.611,0,1.079,0.144,1.534,0.599L420.552,75.39z"/>
	<path fill="#262625" d="M427.312,80.564l-2.028-3.276l-1.248,1.431v1.846H423.1v-9.256h0.937v6.188l2.886-3.328h1.17l-2.171,2.444
		l2.548,3.952h-1.158V80.564z"/>
</g>
<path fill="none" stroke="#AE1821" stroke-width="0.75" stroke-miterlimit="10" d="M318.092,62.705c0,0-2.835,0-2.835,2.835v20.115
	c0,0,0,2.835,2.835,2.835h129.581c0,0,2.834,0,2.834-2.835V65.54c0,0,0-2.835-2.834-2.835H318.092z"/>
<g>
	<path fill="#262625" d="M361.319,17.731h-0.923l-2.054-7.41l-2.054,7.41h-0.923l-2.366-9.257h1.053l1.807,7.463l2.042-7.463h0.884
		l2.041,7.463l1.807-7.463h1.053L361.319,17.731z"/>
	<path fill="#262625" d="M365.777,14.78c0,1.404,0.663,2.21,1.885,2.21c0.741,0,1.17-0.221,1.677-0.728l0.637,0.559
		c-0.65,0.65-1.248,0.988-2.34,0.988c-1.69,0-2.795-1.015-2.795-3.276c0-2.067,1.001-3.276,2.626-3.276
		c1.651,0,2.626,1.196,2.626,3.095v0.429h-4.316V14.78z M368.963,13.012c-0.247-0.585-0.819-0.963-1.495-0.963
		s-1.248,0.378-1.495,0.963c-0.143,0.351-0.169,0.546-0.195,1.065h3.38C369.132,13.558,369.105,13.363,368.963,13.012z"/>
	<path fill="#262625" d="M377.036,17.249c-0.338,0.339-0.91,0.56-1.56,0.56c-0.702,0-1.287-0.169-1.807-0.845v0.767h-0.936V8.474
		h0.936v3.602c0.52-0.663,1.105-0.819,1.807-0.819c0.65,0,1.222,0.222,1.56,0.56c0.65,0.649,0.78,1.716,0.78,2.717
		S377.686,16.6,377.036,17.249z M375.281,12.088c-1.391,0-1.612,1.196-1.612,2.444s0.221,2.444,1.612,2.444s1.599-1.196,1.599-2.444
		S376.672,12.088,375.281,12.088z"/>
	<path fill="#262625" d="M382.469,17.809c-1.079,0-1.924-0.247-2.626-0.923l0.624-0.624c0.507,0.532,1.196,0.741,1.989,0.741
		c1.053,0,1.703-0.378,1.703-1.132c0-0.559-0.325-0.871-1.066-0.936l-1.053-0.091c-1.248-0.104-1.911-0.663-1.911-1.717
		c0-1.17,0.988-1.872,2.353-1.872c0.91,0,1.729,0.222,2.301,0.689l-0.611,0.611c-0.455-0.352-1.04-0.508-1.703-0.508
		c-0.936,0-1.43,0.403-1.43,1.054c0,0.546,0.312,0.871,1.118,0.936l1.027,0.091c1.118,0.104,1.885,0.533,1.885,1.729
		C385.069,17.094,384.017,17.809,382.469,17.809z"/>
	<path fill="#262625" d="M387.5,9.515V8.461h1.053v1.054H387.5z M387.552,17.731v-6.396h0.937v6.396H387.552z"/>
	<path fill="#262625" d="M393.285,17.731c-1.092,0-1.638-0.767-1.638-1.716v-3.927h-0.807v-0.715h0.807V9.371h0.936v2.002h1.365
		v0.715h-1.365v3.9c0,0.585,0.273,0.937,0.871,0.937h0.494v0.806H393.285z"/>
	<path fill="#262625" d="M396.925,14.78c0,1.404,0.663,2.21,1.885,2.21c0.741,0,1.17-0.221,1.678-0.728l0.637,0.559
		c-0.65,0.65-1.248,0.988-2.34,0.988c-1.69,0-2.796-1.015-2.796-3.276c0-2.067,1.002-3.276,2.627-3.276
		c1.65,0,2.626,1.196,2.626,3.095v0.429h-4.317V14.78z M400.11,13.012c-0.247-0.585-0.819-0.963-1.495-0.963
		c-0.677,0-1.248,0.378-1.495,0.963c-0.144,0.351-0.169,0.546-0.195,1.065h3.38C400.279,13.558,400.253,13.363,400.11,13.012z"/>
	<path fill="#262625" d="M403.854,10.593V8.474h1.131v1.093L403.854,10.593z"/>
	<path fill="#262625" d="M409.196,17.809c-1.079,0-1.924-0.247-2.626-0.923l0.624-0.624c0.507,0.532,1.196,0.741,1.989,0.741
		c1.053,0,1.703-0.378,1.703-1.132c0-0.559-0.325-0.871-1.066-0.936l-1.053-0.091c-1.248-0.104-1.911-0.663-1.911-1.717
		c0-1.17,0.988-1.872,2.354-1.872c0.91,0,1.729,0.222,2.301,0.689l-0.611,0.611c-0.455-0.352-1.04-0.508-1.703-0.508
		c-0.936,0-1.43,0.403-1.43,1.054c0,0.546,0.312,0.871,1.118,0.936l1.027,0.091c1.117,0.104,1.885,0.533,1.885,1.729
		C411.797,17.094,410.744,17.809,409.196,17.809z"/>
</g>
<g>
	<path fill="#262625" d="M359.629,23.854v8.372h-0.988v-8.372h-2.678V22.97h6.344v0.884H359.629z"/>
	<path fill="#262625" d="M365.414,33.773c-0.13,0.352-0.273,0.585-0.455,0.754c-0.338,0.325-0.793,0.442-1.248,0.442h-0.403v-0.832
		h0.286c0.65,0,0.845-0.208,1.053-0.793l0.455-1.248l-2.301-6.267h1.014l1.755,5.136l1.742-5.136h1.014L365.414,33.773z"/>
	<path fill="#262625" d="M374.592,31.744c-0.338,0.339-0.91,0.56-1.56,0.56c-0.702,0-1.287-0.169-1.807-0.832v3.614h-0.936v-9.257
		h0.936v0.754c0.52-0.676,1.105-0.832,1.807-0.832c0.65,0,1.222,0.222,1.56,0.56c0.65,0.649,0.78,1.716,0.78,2.717
		S375.242,31.095,374.592,31.744z M372.837,26.583c-1.391,0-1.612,1.196-1.612,2.444s0.221,2.444,1.612,2.444
		s1.599-1.196,1.599-2.444S374.228,26.583,372.837,26.583z"/>
	<path fill="#262625" d="M382.132,31.575c-0.442,0.442-1.053,0.729-1.833,0.729s-1.391-0.286-1.833-0.729
		c-0.65-0.663-0.78-1.56-0.78-2.548s0.13-1.885,0.78-2.548c0.442-0.442,1.053-0.729,1.833-0.729s1.391,0.286,1.833,0.729
		c0.65,0.663,0.78,1.56,0.78,2.548S382.782,30.912,382.132,31.575z M381.469,27.052c-0.299-0.3-0.715-0.469-1.17-0.469
		s-0.858,0.169-1.157,0.469c-0.468,0.468-0.52,1.261-0.52,1.976s0.052,1.508,0.52,1.977c0.299,0.299,0.702,0.468,1.157,0.468
		s0.871-0.169,1.17-0.468c0.468-0.469,0.507-1.262,0.507-1.977S381.937,27.52,381.469,27.052z"/>
	<path fill="#262625" d="M387.149,32.226c-1.118,0-1.625-0.729-1.625-1.703V22.97h0.936v7.514c0,0.624,0.208,0.937,0.858,0.937
		h0.507v0.806L387.149,32.226L387.149,32.226z"/>
	<path fill="#262625" d="M393.896,31.575c-0.441,0.442-1.053,0.729-1.833,0.729s-1.391-0.286-1.833-0.729
		c-0.65-0.663-0.78-1.56-0.78-2.548s0.13-1.885,0.78-2.548c0.442-0.442,1.053-0.729,1.833-0.729s1.392,0.286,1.833,0.729
		c0.65,0.663,0.78,1.56,0.78,2.548S394.547,30.912,393.896,31.575z M393.233,27.052c-0.299-0.3-0.715-0.469-1.17-0.469
		s-0.858,0.169-1.157,0.469c-0.468,0.468-0.52,1.261-0.52,1.976s0.052,1.508,0.52,1.977c0.299,0.299,0.702,0.468,1.157,0.468
		s0.871-0.169,1.17-0.468c0.468-0.469,0.507-1.262,0.507-1.977S393.701,27.52,393.233,27.052z"/>
	<path fill="#262625" d="M399.382,35.164c-0.962,0-1.495-0.247-2.171-0.858l0.611-0.598c0.468,0.416,0.793,0.637,1.534,0.637
		c1.234,0,1.755-0.871,1.755-1.963v-1.001c-0.521,0.663-1.105,0.832-1.794,0.832c-0.65,0-1.209-0.234-1.547-0.572
		c-0.638-0.637-0.78-1.625-0.78-2.665s0.143-2.028,0.78-2.665c0.338-0.338,0.909-0.56,1.56-0.56c0.702,0,1.274,0.156,1.794,0.832
		v-0.754h0.923v6.592C402.047,34.007,401.06,35.164,399.382,35.164z M399.525,26.583c-1.392,0-1.6,1.196-1.6,2.393
		s0.208,2.392,1.6,2.392c1.391,0,1.586-1.195,1.586-2.392S400.916,26.583,399.525,26.583z"/>
	<path fill="#262625" d="M406.623,33.773c-0.13,0.352-0.273,0.585-0.455,0.754c-0.338,0.325-0.793,0.442-1.248,0.442h-0.403v-0.832
		h0.286c0.65,0,0.846-0.208,1.054-0.793l0.455-1.248l-2.302-6.267h1.015l1.755,5.136l1.742-5.136h1.014L406.623,33.773z"/>
</g>
<path fill="none" stroke="#AE1821" stroke-width="0.75" stroke-miterlimit="10" d="M318.092,0c0,0-2.835,0-2.835,2.835v34.36
	c0,0,0,2.834,2.835,2.834h129.581c0,0,2.834,0,2.834-2.834V2.835c0,0,0-2.835-2.834-2.835H318.092z"/>
<g>
	<path fill="#AE1821" d="M478.475,74.3v-3.575h-3.719V74.3h-0.836v-7.833h0.836v3.51h3.719v-3.51h0.836V74.3H478.475z"/>
	<path fill="#AE1821" d="M483.325,75.61c-0.11,0.297-0.231,0.495-0.385,0.638c-0.286,0.275-0.671,0.374-1.057,0.374h-0.341v-0.704
		h0.242c0.55,0,0.715-0.176,0.891-0.671l0.386-1.057l-1.947-5.303h0.857l1.485,4.346l1.475-4.346h0.858L483.325,75.61z"/>
	<path fill="#AE1821" d="M491.092,73.893c-0.286,0.286-0.771,0.474-1.32,0.474c-0.595,0-1.09-0.144-1.529-0.704v3.058h-0.792v-7.833
		h0.792v0.639c0.439-0.572,0.935-0.704,1.529-0.704c0.55,0,1.034,0.187,1.32,0.473c0.55,0.55,0.66,1.452,0.66,2.3
		C491.752,72.441,491.642,73.343,491.092,73.893z M489.606,69.526c-1.178,0-1.364,1.012-1.364,2.068s0.187,2.068,1.364,2.068
		s1.353-1.013,1.353-2.068C490.959,70.537,490.783,69.526,489.606,69.526z"/>
	<path fill="#AE1821" d="M497.449,74.3v-3.345c0-0.946-0.506-1.43-1.32-1.43c-0.813,0-1.353,0.495-1.353,1.43V74.3h-0.792v-7.833
		h0.792v3.015c0.396-0.451,0.913-0.66,1.518-0.66c1.222,0,1.947,0.781,1.947,2.002V74.3H497.449z"/>
	<path fill="#AE1821" d="M501.211,71.803c0,1.188,0.562,1.87,1.596,1.87c0.627,0,0.99-0.188,1.419-0.616l0.539,0.473
		c-0.55,0.551-1.057,0.837-1.98,0.837c-1.43,0-2.365-0.858-2.365-2.772c0-1.75,0.847-2.772,2.223-2.772
		c1.396,0,2.222,1.012,2.222,2.618v0.363L501.211,71.803L501.211,71.803z M503.906,70.307c-0.209-0.495-0.693-0.814-1.265-0.814
		c-0.572,0-1.057,0.319-1.266,0.814c-0.121,0.297-0.143,0.462-0.165,0.901h2.86C504.05,70.769,504.027,70.604,503.906,70.307z"/>
</g>
<g>
	<path fill="#AE1821" d="M478.453,86.663c-0.551,0.594-1.288,0.902-2.091,0.902c-0.771,0-1.475-0.286-2.002-0.814
		c-0.737-0.737-0.737-1.507-0.737-3.169c0-1.661,0-2.431,0.737-3.168c0.527-0.528,1.221-0.814,2.002-0.814
		c1.496,0,2.509,0.969,2.739,2.344h-0.836c-0.22-0.99-0.924-1.596-1.903-1.596c-0.517,0-1.012,0.209-1.354,0.562
		c-0.495,0.506-0.55,1.034-0.55,2.673c0,1.64,0.055,2.179,0.55,2.685c0.342,0.353,0.837,0.551,1.354,0.551
		c0.572,0,1.122-0.231,1.485-0.672c0.319-0.385,0.44-0.813,0.44-1.419v-0.594h-1.926v-0.737h2.762v1.243
		C479.124,85.541,478.937,86.146,478.453,86.663z"/>
	<path fill="#AE1821" d="M481.972,85.002c0,1.188,0.562,1.87,1.596,1.87c0.627,0,0.99-0.188,1.419-0.616l0.539,0.473
		c-0.55,0.551-1.057,0.837-1.98,0.837c-1.43,0-2.365-0.858-2.365-2.772c0-1.75,0.847-2.772,2.223-2.772
		c1.396,0,2.222,1.012,2.222,2.618v0.363L481.972,85.002L481.972,85.002z M484.667,83.506c-0.209-0.495-0.693-0.814-1.265-0.814
		c-0.572,0-1.057,0.319-1.266,0.814c-0.121,0.297-0.143,0.462-0.165,0.901h2.86C484.811,83.968,484.788,83.803,484.667,83.506z"/>
	<path fill="#AE1821" d="M491.499,87.092c-0.286,0.286-0.771,0.474-1.32,0.474c-0.595,0-1.09-0.144-1.529-0.704v3.058h-0.792v-7.833
		h0.792v0.639c0.439-0.572,0.935-0.704,1.529-0.704c0.55,0,1.034,0.187,1.32,0.473c0.55,0.55,0.66,1.452,0.66,2.3
		C492.159,85.64,492.049,86.542,491.499,87.092z M490.014,82.725c-1.178,0-1.364,1.012-1.364,2.068s0.187,2.068,1.364,2.068
		s1.353-1.013,1.353-2.068C491.366,83.737,491.19,82.725,490.014,82.725z"/>
	<path fill="#AE1821" d="M497.856,87.499v-3.345c0-0.946-0.506-1.43-1.32-1.43s-1.354,0.495-1.354,1.43v3.345h-0.792v-7.833h0.792
		v3.015c0.396-0.451,0.913-0.66,1.519-0.66c1.221,0,1.947,0.781,1.947,2.002V87.5L497.856,87.499L497.856,87.499z"/>
	<path fill="#AE1821" d="M501.079,80.546v-0.891h0.891v0.891H501.079z M501.123,87.499v-5.413h0.792v5.413H501.123z"/>
</g>
<g opacity="0.75">
	<g>
		<g>
			<defs>
				<rect id="SVGID_1_" x="461.882" y="64.863" width="12.235" height="23.669"/>
			</defs>
			<clipPath id="SVGID_2_">
				<use xlink:href="#SVGID_1_"  overflow="visible"/>
			</clipPath>
			<polygon clip-path="url(#SVGID_2_)" fill="#AE1821" points="467.117,76.698 462.882,73.863 462.882,79.533 			"/>
		</g>
	</g>
</g>
</svg>
