<?xml version="1.0" encoding="utf-8"?>
<!-- Generator: Adobe Illustrator 17.0.0, SVG Export Plug-In . SVG Version: 6.00 Build 0)  -->
<!DOCTYPE svg PUBLIC "-//W3C//DTD SVG 1.1//EN" "http://www.w3.org/Graphics/SVG/1.1/DTD/svg11.dtd">
<svg version="1.1" id="Livello_1" xmlns="http://www.w3.org/2000/svg" xmlns:xlink="http://www.w3.org/1999/xlink" x="0px" y="0px"
	 width="768px" height="145.493px" viewBox="0 0 768 145.493" enable-background="new 0 0 768 145.493" xml:space="preserve">
<g>
	<path fill="#BAA494" d="M472.832,14.042h-2.457v3.81h-0.988V8.595h3.445c1.689,0,2.859,1.054,2.859,2.718
		S474.521,14.042,472.832,14.042z M472.741,9.48h-2.366v3.679h2.366c1.156,0,1.963-0.624,1.963-1.846
		C474.704,10.09,473.897,9.48,472.741,9.48z"/>
	<path fill="#BAA494" d="M482.101,17.852v-0.715c-0.455,0.52-1.092,0.793-1.807,0.793c-0.689,0-1.262-0.208-1.651-0.599
		c-0.455-0.441-0.65-1.053-0.65-1.794v-4.082h0.937v3.939c0,1.131,0.598,1.703,1.56,1.703s1.6-0.585,1.6-1.703v-3.939h0.936v6.396
		H482.101z"/>
	<path fill="#BAA494" d="M490.316,17.37c-0.338,0.339-0.91,0.56-1.56,0.56c-0.702,0-1.287-0.169-1.808-0.845v0.767h-0.936V8.595
		h0.936v3.602c0.521-0.663,1.105-0.819,1.808-0.819c0.649,0,1.222,0.222,1.56,0.56c0.65,0.649,0.78,1.716,0.78,2.717
		S490.967,16.721,490.316,17.37z M488.562,12.209c-1.391,0-1.612,1.196-1.612,2.444s0.222,2.444,1.612,2.444
		c1.392,0,1.6-1.196,1.6-2.444S489.953,12.209,488.562,12.209z"/>
	<path fill="#BAA494" d="M501.965,17.852v-3.939c0-1.131-0.611-1.703-1.573-1.703c-0.936,0-1.599,0.585-1.599,1.6v4.043h-0.937
		v-3.939c0-1.131-0.611-1.703-1.573-1.703s-1.599,0.585-1.599,1.703v3.939h-0.937v-6.396h0.937v0.702
		c0.455-0.52,1.092-0.78,1.807-0.78c0.885,0,1.573,0.364,1.963,1.066c0.494-0.702,1.21-1.066,2.106-1.066
		c0.689,0,1.261,0.222,1.651,0.599c0.455,0.441,0.688,1.04,0.688,1.781v4.095H501.965z"/>
	<path fill="#BAA494" d="M506.397,14.901c0,1.404,0.663,2.21,1.885,2.21c0.741,0,1.17-0.221,1.678-0.728l0.637,0.559
		c-0.65,0.65-1.248,0.988-2.34,0.988c-1.69,0-2.796-1.015-2.796-3.276c0-2.067,1.001-3.276,2.627-3.276
		c1.65,0,2.626,1.196,2.626,3.095v0.429H506.397z M509.582,13.133c-0.246-0.585-0.818-0.963-1.494-0.963
		c-0.677,0-1.248,0.378-1.495,0.963c-0.144,0.351-0.169,0.546-0.195,1.065h3.38C509.752,13.679,509.726,13.484,509.582,13.133z"/>
	<path fill="#BAA494" d="M517.161,17.852v-0.767c-0.52,0.676-1.118,0.845-1.82,0.845c-0.649,0-1.222-0.221-1.56-0.56
		c-0.65-0.649-0.78-1.716-0.78-2.717s0.13-2.067,0.78-2.717c0.338-0.338,0.91-0.56,1.56-0.56c0.702,0,1.287,0.156,1.808,0.819V8.595
		h0.936v9.257H517.161z M515.549,12.209c-1.391,0-1.611,1.196-1.611,2.444s0.221,2.444,1.611,2.444c1.392,0,1.6-1.196,1.6-2.444
		S516.94,12.209,515.549,12.209z"/>
</g>
<path fill="none" stroke="#BAA494" stroke-width="0.75" stroke-miterlimit="10" d="M392.124,0c0,0-2.835,0-2.835,2.835v20.101
	c0,0,0,2.835,2.835,2.835h203.581c0,0,2.834,0,2.834-2.835V2.835c0,0,0-2.835-2.834-2.835H392.124z"/>
<g>
	<path fill="#BAA494" d="M211.729,9.48v8.372h-0.988V9.48h-2.678V8.595h6.344V9.48H211.729z"/>
	<path fill="#BAA494" d="M220.711,17.852V13.9c0-1.118-0.598-1.69-1.56-1.69s-1.599,0.585-1.599,1.69v3.952h-0.936V8.595h0.936
		v3.562c0.468-0.533,1.079-0.78,1.794-0.78c1.443,0,2.301,0.924,2.301,2.366v4.108H220.711z"/>
	<path fill="#BAA494" d="M225.157,14.901c0,1.404,0.663,2.21,1.885,2.21c0.741,0,1.17-0.221,1.677-0.728l0.637,0.559
		c-0.65,0.65-1.248,0.988-2.34,0.988c-1.69,0-2.795-1.015-2.795-3.276c0-2.067,1.001-3.276,2.626-3.276
		c1.651,0,2.626,1.196,2.626,3.095v0.429H225.157z M228.342,13.133c-0.247-0.585-0.819-0.963-1.495-0.963
		c-0.676,0-1.248,0.378-1.495,0.963c-0.143,0.351-0.169,0.546-0.195,1.065h3.38C228.512,13.679,228.485,13.484,228.342,13.133z"/>
	<path fill="#BAA494" d="M242.057,17.852l-4.914-7.423v7.423h-0.988V8.595h0.936l4.915,7.397V8.595h0.988v9.257H242.057z"/>
	<path fill="#BAA494" d="M246.737,14.901c0,1.404,0.663,2.21,1.885,2.21c0.741,0,1.17-0.221,1.677-0.728l0.637,0.559
		c-0.65,0.65-1.248,0.988-2.34,0.988c-1.69,0-2.795-1.015-2.795-3.276c0-2.067,1.001-3.276,2.626-3.276
		c1.651,0,2.626,1.196,2.626,3.095v0.429H246.737z M249.922,13.133c-0.247-0.585-0.819-0.963-1.495-0.963
		c-0.676,0-1.248,0.378-1.495,0.963c-0.143,0.351-0.169,0.546-0.195,1.065h3.38C250.091,13.679,250.065,13.484,249.922,13.133z"/>
	<path fill="#BAA494" d="M259.711,17.852h-0.871l-1.677-4.966l-1.664,4.966h-0.871l-2.028-6.396h1.014l1.469,5.136l1.677-5.136
		h0.806l1.69,5.136l1.456-5.136h1.014L259.711,17.852z"/>
	<path fill="#BAA494" d="M270.254,14.029v3.822h-0.988v-3.822l-2.756-5.435h1.066l2.184,4.434l2.158-4.434h1.066L270.254,14.029z"/>
	<path fill="#BAA494" d="M277.989,17.201c-0.442,0.442-1.053,0.729-1.833,0.729c-0.78,0-1.391-0.286-1.833-0.729
		c-0.65-0.663-0.78-1.56-0.78-2.548s0.13-1.885,0.78-2.548c0.442-0.442,1.053-0.729,1.833-0.729c0.78,0,1.391,0.286,1.833,0.729
		c0.65,0.663,0.78,1.56,0.78,2.548S278.639,16.538,277.989,17.201z M277.326,12.678c-0.299-0.3-0.715-0.469-1.17-0.469
		c-0.455,0-0.858,0.169-1.157,0.469c-0.468,0.468-0.52,1.261-0.52,1.976s0.052,1.508,0.52,1.977
		c0.299,0.299,0.702,0.468,1.157,0.468c0.455,0,0.871-0.169,1.17-0.468c0.468-0.469,0.507-1.262,0.507-1.977
		S277.794,13.146,277.326,12.678z"/>
	<path fill="#BAA494" d="M284.996,12.678c-0.351-0.352-0.611-0.469-1.105-0.469c-0.936,0-1.534,0.741-1.534,1.717v3.926h-0.936
		v-6.396h0.936v0.78c0.351-0.533,1.053-0.858,1.794-0.858c0.611,0,1.079,0.144,1.534,0.599L284.996,12.678z"/>
	<path fill="#BAA494" d="M291.756,17.852l-2.028-3.276l-1.248,1.431v1.846h-0.936V8.595h0.936v6.188l2.886-3.328h1.17l-2.171,2.444
		l2.548,3.952H291.756z"/>
	<path fill="#BAA494" d="M301.922,9.48v8.372h-0.988V9.48h-2.678V8.595h6.344V9.48H301.922z"/>
	<path fill="#BAA494" d="M306.757,9.636V8.582h1.053v1.054H306.757z M306.809,17.852v-6.396h0.936v6.396H306.809z"/>
	<path fill="#BAA494" d="M318.964,17.852v-3.939c0-1.131-0.611-1.703-1.573-1.703c-0.936,0-1.599,0.585-1.599,1.6v4.043h-0.936
		v-3.939c0-1.131-0.611-1.703-1.573-1.703s-1.599,0.585-1.599,1.703v3.939h-0.936v-6.396h0.936v0.702
		c0.455-0.52,1.092-0.78,1.807-0.78c0.884,0,1.573,0.364,1.963,1.066c0.494-0.702,1.209-1.066,2.106-1.066
		c0.689,0,1.261,0.222,1.651,0.599c0.455,0.441,0.689,1.04,0.689,1.781v4.095H318.964z"/>
	<path fill="#BAA494" d="M323.397,14.901c0,1.404,0.663,2.21,1.885,2.21c0.741,0,1.17-0.221,1.677-0.728l0.637,0.559
		c-0.65,0.65-1.248,0.988-2.34,0.988c-1.69,0-2.795-1.015-2.795-3.276c0-2.067,1.001-3.276,2.626-3.276
		c1.651,0,2.626,1.196,2.626,3.095v0.429H323.397z M326.583,13.133c-0.247-0.585-0.819-0.963-1.495-0.963
		c-0.676,0-1.248,0.378-1.495,0.963c-0.143,0.351-0.169,0.546-0.195,1.065h3.38C326.751,13.679,326.725,13.484,326.583,13.133z"/>
	<path fill="#BAA494" d="M332.354,17.93c-1.079,0-1.924-0.247-2.626-0.923l0.624-0.624c0.507,0.532,1.196,0.741,1.989,0.741
		c1.053,0,1.703-0.378,1.703-1.132c0-0.559-0.325-0.871-1.066-0.936l-1.053-0.091c-1.248-0.104-1.911-0.663-1.911-1.717
		c0-1.17,0.988-1.872,2.353-1.872c0.91,0,1.729,0.222,2.301,0.689l-0.611,0.611c-0.455-0.352-1.04-0.508-1.703-0.508
		c-0.936,0-1.43,0.403-1.43,1.054c0,0.546,0.312,0.871,1.118,0.936l1.027,0.091c1.118,0.104,1.885,0.533,1.885,1.729
		C334.954,17.215,333.901,17.93,332.354,17.93z"/>
</g>
<path fill="none" stroke="#BAA494" stroke-width="0.75" stroke-miterlimit="10" d="M170.124,0c0,0-2.835,0-2.835,2.835v20.101
	c0,0,0,2.835,2.835,2.835h203.581c0,0,2.834,0,2.834-2.835V2.835c0,0,0-2.835-2.834-2.835H170.124z"/>
<g opacity="0.75">
	<g>
		<defs>
			<rect id="SVGID_1_" x="429.039" y="95.27" width="18.75" height="19.339"/>
		</defs>
		<clipPath id="SVGID_2_">
			<use xlink:href="#SVGID_1_"  overflow="visible"/>
		</clipPath>
		
			<line clip-path="url(#SVGID_2_)" fill="none" stroke="#BAA494" stroke-width="0.75" x1="438.414" y1="102.27" x2="438.414" y2="113.609"/>
	</g>
</g>
<g opacity="0.75">
	<g>
		<defs>
			<rect id="SVGID_3_" x="207.039" y="95.27" width="18.75" height="19.339"/>
		</defs>
		<clipPath id="SVGID_4_">
			<use xlink:href="#SVGID_3_"  overflow="visible"/>
		</clipPath>
		
			<line clip-path="url(#SVGID_4_)" fill="none" stroke="#BAA494" stroke-width="0.75" x1="216.414" y1="102.27" x2="216.414" y2="113.609"/>
	</g>
</g>
<g opacity="0.75">
	<g>
		<defs>
			<rect id="SVGID_5_" x="540.039" y="95.27" width="18.75" height="19.339"/>
		</defs>
		<clipPath id="SVGID_6_">
			<use xlink:href="#SVGID_5_"  overflow="visible"/>
		</clipPath>
		
			<line clip-path="url(#SVGID_6_)" fill="none" stroke="#BAA494" stroke-width="0.75" x1="549.414" y1="102.27" x2="549.414" y2="113.609"/>
	</g>
</g>
<g opacity="0.75">
	<g>
		<defs>
			<rect id="SVGID_7_" x="318.039" y="95.27" width="18.75" height="19.339"/>
		</defs>
		<clipPath id="SVGID_8_">
			<use xlink:href="#SVGID_7_"  overflow="visible"/>
		</clipPath>
		
			<line clip-path="url(#SVGID_8_)" fill="none" stroke="#BAA494" stroke-width="0.75" x1="327.414" y1="102.27" x2="327.414" y2="113.609"/>
	</g>
</g>
<line fill="none" stroke="#BAA494" stroke-width="0.75" x1="272.664" y1="31.815" x2="272.664" y2="43.154"/>
<rect x="263.289" y="24.815" fill="none" width="18.75" height="19.339"/>
<line fill="none" stroke="#BAA494" stroke-width="0.75" x1="493.914" y1="31.815" x2="493.914" y2="43.154"/>
<rect x="484.539" y="24.815" fill="none" width="18.75" height="19.339"/>
<g>
	<path fill="#262625" d="M366.161,136.632c-0.559,0.56-1.378,0.858-2.34,0.858h-3.172v-9.257h3.172c0.962,0,1.781,0.3,2.34,0.858
		c0.962,0.962,0.91,2.379,0.91,3.666S367.124,135.67,366.161,136.632z M365.472,129.794c-0.481-0.494-1.105-0.676-1.82-0.676h-2.015
		v7.488h2.015c0.715,0,1.339-0.183,1.82-0.676c0.637-0.663,0.611-2.042,0.611-3.173S366.109,130.457,365.472,129.794z"/>
	<path fill="#262625" d="M370.464,134.539c0,1.404,0.663,2.21,1.885,2.21c0.741,0,1.17-0.221,1.677-0.728l0.637,0.559
		c-0.65,0.65-1.248,0.988-2.34,0.988c-1.69,0-2.795-1.015-2.795-3.276c0-2.067,1.001-3.276,2.626-3.276
		c1.651,0,2.626,1.196,2.626,3.095v0.429H370.464z M373.649,132.772c-0.247-0.585-0.819-0.963-1.495-0.963
		c-0.676,0-1.248,0.378-1.495,0.963c-0.143,0.351-0.169,0.546-0.195,1.065h3.38C373.818,133.318,373.792,133.122,373.649,132.772z"
		/>
	<path fill="#262625" d="M381.514,137.49v-3.939c0-1.131-0.611-1.703-1.573-1.703c-0.962,0-1.586,0.585-1.586,1.703v3.939h-0.936
		v-6.396h0.936v0.702c0.455-0.52,1.079-0.78,1.794-0.78c0.689,0,1.248,0.208,1.638,0.599c0.455,0.441,0.663,1.04,0.663,1.781v4.095
		H381.514z"/>
	<path fill="#262625" d="M387.377,137.568c-1.079,0-1.924-0.247-2.626-0.923l0.624-0.624c0.507,0.532,1.195,0.741,1.988,0.741
		c1.054,0,1.703-0.378,1.703-1.132c0-0.559-0.324-0.871-1.065-0.936l-1.054-0.091c-1.248-0.104-1.91-0.663-1.91-1.717
		c0-1.17,0.987-1.872,2.353-1.872c0.91,0,1.729,0.222,2.301,0.689l-0.61,0.611c-0.455-0.352-1.04-0.508-1.703-0.508
		c-0.937,0-1.431,0.403-1.431,1.054c0,0.546,0.312,0.871,1.118,0.936l1.027,0.091c1.118,0.104,1.885,0.533,1.885,1.729
		C389.977,136.854,388.924,137.568,387.377,137.568z"/>
	<path fill="#262625" d="M392.407,129.275v-1.054h1.053v1.054H392.407z M392.459,137.49v-6.396h0.937v6.396H392.459z"/>
	<path fill="#262625" d="M398.192,137.49c-1.092,0-1.638-0.767-1.638-1.716v-3.927h-0.807v-0.715h0.807v-2.002h0.936v2.002h1.365
		v0.715h-1.365v3.9c0,0.585,0.273,0.937,0.871,0.937h0.494v0.806H398.192z"/>
	<path fill="#262625" d="M402.95,139.037c-0.13,0.352-0.273,0.585-0.455,0.754c-0.338,0.325-0.793,0.442-1.248,0.442h-0.403v-0.832
		h0.286c0.65,0,0.846-0.208,1.054-0.793l0.454-1.248l-2.301-6.267h1.015l1.755,5.136l1.742-5.136h1.014L402.95,139.037z"/>
</g>
<path fill="none" stroke="#AE1821" stroke-width="0.75" stroke-miterlimit="10" d="M170.124,119.653c0,0-2.835,0-2.835,2.835v20.073
	c0,0,0,2.835,2.835,2.835H596.08c0,0,2.834,0,2.834-2.835v-20.073c0,0,0-2.835-2.834-2.835H170.124z"/>
<g>
	<path fill="#262625" d="M403.982,81.129c-1.391,0-2.301-0.352-3.172-1.222l0.676-0.677c0.768,0.768,1.482,1.015,2.522,1.015
		c1.352,0,2.184-0.638,2.184-1.717c0-0.48-0.143-0.896-0.441-1.156c-0.3-0.261-0.533-0.339-1.209-0.442l-1.079-0.169
		c-0.729-0.117-1.301-0.352-1.703-0.702c-0.469-0.416-0.702-0.988-0.702-1.729c0-1.572,1.131-2.612,2.964-2.612
		c1.183,0,1.963,0.299,2.756,1.014l-0.637,0.637c-0.572-0.52-1.183-0.793-2.158-0.793c-1.235,0-1.95,0.689-1.95,1.716
		c0,0.455,0.13,0.819,0.416,1.066s0.768,0.429,1.248,0.507l1.015,0.156c0.871,0.13,1.3,0.312,1.689,0.65
		c0.507,0.429,0.78,1.065,0.78,1.833C407.181,80.128,405.906,81.129,403.982,81.129z"/>
	<path fill="#262625" d="M409.663,72.835v-1.054h1.053v1.054H409.663z M409.715,81.051v-6.396h0.937v6.396H409.715z"/>
	<path fill="#262625" d="M417.749,81.051v-3.939c0-1.131-0.61-1.703-1.573-1.703c-0.962,0-1.586,0.585-1.586,1.703v3.939h-0.936
		v-6.396h0.936v0.702c0.455-0.52,1.079-0.78,1.794-0.78c0.689,0,1.248,0.208,1.639,0.599c0.455,0.441,0.663,1.04,0.663,1.781v4.095
		H417.749z"/>
	<path fill="#262625" d="M423.651,83.989c-0.962,0-1.495-0.247-2.171-0.858l0.61-0.598c0.468,0.416,0.793,0.637,1.534,0.637
		c1.235,0,1.755-0.871,1.755-1.963v-1.001c-0.52,0.663-1.104,0.832-1.794,0.832c-0.649,0-1.209-0.234-1.547-0.572
		c-0.637-0.637-0.78-1.625-0.78-2.665s0.144-2.028,0.78-2.665c0.338-0.338,0.91-0.56,1.56-0.56c0.702,0,1.274,0.156,1.795,0.832
		v-0.754h0.923v6.592C426.316,82.832,425.328,83.989,423.651,83.989z M423.794,75.408c-1.391,0-1.599,1.196-1.599,2.393
		s0.208,2.392,1.599,2.392c1.392,0,1.586-1.195,1.586-2.392S425.186,75.408,423.794,75.408z"/>
	<path fill="#262625" d="M430.893,81.051c-1.118,0-1.625-0.728-1.625-1.703v-7.554h0.936v7.515c0,0.624,0.208,0.937,0.858,0.937
		h0.507v0.806H430.893z"/>
	<path fill="#262625" d="M434.064,78.1c0,1.404,0.663,2.21,1.885,2.21c0.741,0,1.17-0.221,1.678-0.728l0.637,0.559
		c-0.65,0.65-1.248,0.988-2.34,0.988c-1.69,0-2.796-1.015-2.796-3.276c0-2.067,1.001-3.276,2.627-3.276
		c1.65,0,2.626,1.196,2.626,3.095V78.1H434.064z M437.249,76.332c-0.246-0.585-0.818-0.963-1.494-0.963
		c-0.677,0-1.248,0.378-1.495,0.963c-0.144,0.351-0.169,0.546-0.195,1.065h3.38C437.419,76.878,437.393,76.683,437.249,76.332z"/>
	<path fill="#262625" d="M452.238,81.051h-0.923l-2.054-7.41l-2.055,7.41h-0.923l-2.366-9.257h1.054l1.807,7.463l2.041-7.463h0.884
		l2.041,7.463l1.808-7.463h1.053L452.238,81.051z"/>
	<path fill="#262625" d="M460.221,80.401c-0.442,0.442-1.054,0.729-1.833,0.729c-0.78,0-1.392-0.286-1.834-0.729
		c-0.649-0.663-0.779-1.56-0.779-2.548s0.13-1.885,0.779-2.548c0.442-0.442,1.054-0.729,1.834-0.729
		c0.779,0,1.391,0.286,1.833,0.729c0.649,0.663,0.779,1.56,0.779,2.548S460.87,79.737,460.221,80.401z M459.558,75.877
		c-0.3-0.3-0.716-0.469-1.17-0.469c-0.455,0-0.858,0.169-1.157,0.469c-0.469,0.468-0.521,1.261-0.521,1.976s0.052,1.508,0.521,1.977
		c0.299,0.299,0.702,0.468,1.157,0.468c0.454,0,0.87-0.169,1.17-0.468c0.468-0.469,0.507-1.262,0.507-1.977
		S460.025,76.345,459.558,75.877z"/>
	<path fill="#262625" d="M467.214,75.877c-0.351-0.352-0.61-0.469-1.104-0.469c-0.937,0-1.534,0.741-1.534,1.717v3.926h-0.937
		v-6.396h0.937v0.78c0.351-0.533,1.053-0.858,1.794-0.858c0.611,0,1.079,0.144,1.534,0.599L467.214,75.877z"/>
	<path fill="#262625" d="M473.142,81.051v-0.767c-0.52,0.676-1.118,0.845-1.82,0.845c-0.649,0-1.222-0.221-1.56-0.56
		c-0.65-0.649-0.78-1.716-0.78-2.717s0.13-2.067,0.78-2.717c0.338-0.338,0.91-0.56,1.56-0.56c0.702,0,1.287,0.156,1.808,0.819
		v-3.602h0.936v9.257H473.142z M471.529,75.408c-1.391,0-1.611,1.196-1.611,2.444s0.221,2.444,1.611,2.444
		c1.392,0,1.6-1.196,1.6-2.444S472.921,75.408,471.529,75.408z"/>
</g>
<path fill="none" stroke="#AE1821" stroke-width="0.75" stroke-miterlimit="10" d="M391.749,55.944c0,0-2.835,0-2.835,2.835v34.612
	c0,0,0,2.835,2.835,2.835h92.956c0,0,2.834,0,2.834-2.835V58.78c0,0,0-2.835-2.834-2.835H391.749z"/>
<g>
	<path fill="#262625" d="M182.033,81.129c-1.391,0-2.301-0.352-3.172-1.222l0.676-0.677c0.767,0.768,1.482,1.015,2.522,1.015
		c1.352,0,2.184-0.638,2.184-1.717c0-0.48-0.143-0.896-0.442-1.156c-0.299-0.261-0.533-0.339-1.209-0.442l-1.079-0.169
		c-0.728-0.117-1.3-0.352-1.703-0.702c-0.468-0.416-0.702-0.988-0.702-1.729c0-1.572,1.131-2.612,2.964-2.612
		c1.183,0,1.963,0.299,2.756,1.014l-0.637,0.637c-0.572-0.52-1.183-0.793-2.158-0.793c-1.235,0-1.95,0.689-1.95,1.716
		c0,0.455,0.13,0.819,0.416,1.066s0.767,0.429,1.248,0.507l1.014,0.156c0.871,0.13,1.3,0.312,1.69,0.65
		c0.507,0.429,0.78,1.065,0.78,1.833C185.231,80.128,183.957,81.129,182.033,81.129z"/>
	<path fill="#262625" d="M187.727,72.835v-1.054h1.053v1.054H187.727z M187.779,81.051v-6.396h0.936v6.396H187.779z"/>
	<path fill="#262625" d="M195.813,81.051v-3.939c0-1.131-0.611-1.703-1.573-1.703c-0.962,0-1.586,0.585-1.586,1.703v3.939h-0.936
		v-6.396h0.936v0.702c0.455-0.52,1.079-0.78,1.794-0.78c0.689,0,1.248,0.208,1.638,0.599c0.455,0.441,0.663,1.04,0.663,1.781v4.095
		H195.813z"/>
	<path fill="#262625" d="M201.728,83.989c-0.962,0-1.495-0.247-2.171-0.858l0.611-0.598c0.468,0.416,0.793,0.637,1.534,0.637
		c1.235,0,1.755-0.871,1.755-1.963v-1.001c-0.52,0.663-1.105,0.832-1.794,0.832c-0.65,0-1.209-0.234-1.547-0.572
		c-0.637-0.637-0.78-1.625-0.78-2.665s0.143-2.028,0.78-2.665c0.338-0.338,0.91-0.56,1.561-0.56c0.702,0,1.274,0.156,1.794,0.832
		v-0.754h0.923v6.592C204.393,82.832,203.405,83.989,201.728,83.989z M201.871,75.408c-1.391,0-1.599,1.196-1.599,2.393
		s0.208,2.392,1.599,2.392s1.586-1.195,1.586-2.392S203.262,75.408,201.871,75.408z"/>
	<path fill="#262625" d="M208.969,81.051c-1.118,0-1.625-0.728-1.625-1.703v-7.554h0.936v7.515c0,0.624,0.208,0.937,0.858,0.937
		h0.507v0.806H208.969z"/>
	<path fill="#262625" d="M212.141,78.1c0,1.404,0.663,2.21,1.885,2.21c0.741,0,1.17-0.221,1.677-0.728l0.637,0.559
		c-0.65,0.65-1.248,0.988-2.34,0.988c-1.69,0-2.795-1.015-2.795-3.276c0-2.067,1.001-3.276,2.626-3.276
		c1.651,0,2.626,1.196,2.626,3.095V78.1H212.141z M215.326,76.332c-0.247-0.585-0.819-0.963-1.495-0.963
		c-0.676,0-1.248,0.378-1.495,0.963c-0.143,0.351-0.169,0.546-0.195,1.065h3.38C215.495,76.878,215.469,76.683,215.326,76.332z"/>
	<path fill="#262625" d="M230.315,81.051h-0.923l-2.054-7.41l-2.054,7.41h-0.923l-2.366-9.257h1.053l1.807,7.463l2.041-7.463h0.884
		l2.041,7.463l1.807-7.463h1.053L230.315,81.051z"/>
	<path fill="#262625" d="M238.297,80.401c-0.442,0.442-1.053,0.729-1.833,0.729c-0.78,0-1.391-0.286-1.833-0.729
		c-0.65-0.663-0.78-1.56-0.78-2.548s0.13-1.885,0.78-2.548c0.442-0.442,1.053-0.729,1.833-0.729c0.78,0,1.391,0.286,1.833,0.729
		c0.65,0.663,0.78,1.56,0.78,2.548S238.947,79.737,238.297,80.401z M237.634,75.877c-0.299-0.3-0.715-0.469-1.17-0.469
		c-0.455,0-0.858,0.169-1.157,0.469c-0.468,0.468-0.52,1.261-0.52,1.976s0.052,1.508,0.52,1.977
		c0.299,0.299,0.702,0.468,1.157,0.468c0.455,0,0.871-0.169,1.17-0.468c0.468-0.469,0.507-1.262,0.507-1.977
		S238.102,76.345,237.634,75.877z"/>
	<path fill="#262625" d="M245.304,75.877c-0.351-0.352-0.611-0.469-1.105-0.469c-0.936,0-1.534,0.741-1.534,1.717v3.926h-0.936
		v-6.396h0.936v0.78c0.351-0.533,1.053-0.858,1.794-0.858c0.611,0,1.079,0.144,1.534,0.599L245.304,75.877z"/>
	<path fill="#262625" d="M251.231,81.051v-0.767c-0.52,0.676-1.118,0.845-1.82,0.845c-0.65,0-1.222-0.221-1.561-0.56
		c-0.65-0.649-0.78-1.716-0.78-2.717s0.13-2.067,0.78-2.717c0.338-0.338,0.91-0.56,1.561-0.56c0.702,0,1.287,0.156,1.807,0.819
		v-3.602h0.936v9.257H251.231z M249.62,75.408c-1.391,0-1.612,1.196-1.612,2.444s0.221,2.444,1.612,2.444
		c1.391,0,1.599-1.196,1.599-2.444S251.01,75.408,249.62,75.408z"/>
</g>
<path fill="none" stroke="#AE1821" stroke-width="0.75" stroke-miterlimit="10" d="M169.799,55.944c0,0-2.835,0-2.835,2.835v34.612
	c0,0,0,2.835,2.835,2.835h92.956c0,0,2.834,0,2.834-2.835V58.78c0,0,0-2.835-2.834-2.835H169.799z"/>
<g>
	<path fill="#262625" d="M531.771,73.879c-0.91,0-1.742-0.338-2.366-0.962c-0.871-0.871-0.871-1.781-0.871-3.744
		s0-2.873,0.871-3.744c0.624-0.624,1.456-0.962,2.366-0.962c1.664,0,2.898,1.014,3.211,2.756h-1.014
		c-0.247-1.131-1.04-1.872-2.197-1.872c-0.611,0-1.196,0.234-1.6,0.65c-0.585,0.598-0.649,1.234-0.649,3.172
		c0,1.937,0.064,2.574,0.649,3.172c0.403,0.416,0.988,0.65,1.6,0.65c1.157,0,1.976-0.741,2.223-1.872h0.988
		C534.683,72.864,533.421,73.879,531.771,73.879z"/>
	<path fill="#262625" d="M541.741,73.151c-0.442,0.442-1.053,0.729-1.833,0.729s-1.391-0.286-1.833-0.729
		c-0.65-0.663-0.78-1.56-0.78-2.548s0.13-1.885,0.78-2.548c0.442-0.442,1.053-0.729,1.833-0.729s1.391,0.286,1.833,0.729
		c0.65,0.663,0.78,1.56,0.78,2.548S542.392,72.487,541.741,73.151z M541.078,68.627c-0.299-0.3-0.715-0.469-1.17-0.469
		s-0.858,0.169-1.157,0.469c-0.468,0.468-0.52,1.261-0.52,1.976s0.052,1.508,0.52,1.977c0.299,0.299,0.702,0.468,1.157,0.468
		s0.871-0.169,1.17-0.468c0.468-0.469,0.507-1.262,0.507-1.977S541.546,69.095,541.078,68.627z"/>
	<path fill="#262625" d="M549.203,73.801v-0.715c-0.455,0.52-1.092,0.793-1.807,0.793c-0.689,0-1.261-0.208-1.651-0.599
		c-0.455-0.441-0.649-1.053-0.649-1.794v-4.082h0.936v3.939c0,1.131,0.598,1.703,1.561,1.703c0.962,0,1.599-0.585,1.599-1.703
		v-3.939h0.936v6.396H549.203z"/>
	<path fill="#262625" d="M557.419,73.319c-0.339,0.339-0.91,0.56-1.561,0.56c-0.702,0-1.287-0.169-1.807-0.832v3.614h-0.937v-9.257
		h0.937v0.754c0.52-0.676,1.104-0.832,1.807-0.832c0.65,0,1.222,0.222,1.561,0.56c0.649,0.649,0.779,1.716,0.779,2.717
		S558.068,72.67,557.419,73.319z M555.663,68.158c-1.391,0-1.611,1.196-1.611,2.444s0.221,2.444,1.611,2.444
		c1.392,0,1.6-1.196,1.6-2.444S557.055,68.158,555.663,68.158z"/>
	<path fill="#262625" d="M562.45,73.801c-1.118,0-1.625-0.728-1.625-1.703v-7.554h0.936v7.515c0,0.624,0.208,0.937,0.858,0.937
		h0.507v0.806H562.45z"/>
	<path fill="#262625" d="M565.622,70.85c0,1.404,0.663,2.21,1.885,2.21c0.741,0,1.171-0.221,1.678-0.728l0.637,0.559
		c-0.65,0.65-1.248,0.988-2.34,0.988c-1.69,0-2.795-1.015-2.795-3.276c0-2.067,1.001-3.276,2.626-3.276
		c1.651,0,2.626,1.196,2.626,3.095v0.429H565.622z M568.808,69.082c-0.247-0.585-0.819-0.963-1.495-0.963s-1.248,0.378-1.495,0.963
		c-0.144,0.351-0.169,0.546-0.195,1.065h3.38C568.977,69.628,568.95,69.433,568.808,69.082z"/>
</g>
<g>
	<path fill="#262625" d="M527.052,87.646c-0.442,0.442-1.054,0.729-1.833,0.729c-0.78,0-1.392-0.286-1.834-0.729
		c-0.649-0.663-0.779-1.56-0.779-2.548s0.13-1.885,0.779-2.548c0.442-0.442,1.054-0.729,1.834-0.729
		c0.779,0,1.391,0.286,1.833,0.729c0.649,0.663,0.779,1.56,0.779,2.548S527.701,86.983,527.052,87.646z M526.389,83.122
		c-0.3-0.3-0.716-0.469-1.17-0.469c-0.455,0-0.858,0.169-1.157,0.469c-0.469,0.468-0.521,1.261-0.521,1.976s0.052,1.508,0.521,1.977
		c0.299,0.299,0.702,0.468,1.157,0.468c0.454,0,0.87-0.169,1.17-0.468c0.468-0.469,0.507-1.262,0.507-1.977
		S526.856,83.59,526.389,83.122z"/>
	<path fill="#262625" d="M531.614,82.653v5.643h-0.937v-5.643h-0.818v-0.715h0.818V80.73c0-0.949,0.533-1.716,1.625-1.716h0.677
		v0.806h-0.508c-0.598,0-0.857,0.352-0.857,0.937v1.183h1.365v0.715H531.614z"/>
	<path fill="#262625" d="M546.435,88.296h-0.924l-2.054-7.41l-2.054,7.41h-0.923l-2.366-9.256h1.053l1.807,7.462l2.041-7.462h0.885
		l2.041,7.462l1.807-7.462h1.053L546.435,88.296z"/>
	<path fill="#262625" d="M554.416,87.646c-0.442,0.442-1.053,0.729-1.833,0.729s-1.392-0.286-1.833-0.729
		c-0.65-0.663-0.78-1.56-0.78-2.548s0.13-1.885,0.78-2.548c0.441-0.442,1.053-0.729,1.833-0.729s1.391,0.286,1.833,0.729
		c0.649,0.663,0.78,1.56,0.78,2.548S555.065,86.983,554.416,87.646z M553.753,83.122c-0.299-0.3-0.715-0.469-1.17-0.469
		s-0.858,0.169-1.157,0.469c-0.468,0.468-0.521,1.261-0.521,1.976s0.053,1.508,0.521,1.977c0.299,0.299,0.702,0.468,1.157,0.468
		s0.871-0.169,1.17-0.468c0.468-0.469,0.507-1.262,0.507-1.977S554.221,83.59,553.753,83.122z"/>
	<path fill="#262625" d="M561.423,83.122c-0.351-0.352-0.611-0.469-1.105-0.469c-0.936,0-1.533,0.741-1.533,1.717v3.926h-0.937V81.9
		h0.937v0.78c0.351-0.533,1.053-0.858,1.794-0.858c0.61,0,1.079,0.144,1.534,0.599L561.423,83.122z"/>
	<path fill="#262625" d="M567.351,88.296v-0.767c-0.52,0.676-1.118,0.845-1.82,0.845c-0.649,0-1.222-0.221-1.56-0.56
		c-0.65-0.649-0.78-1.716-0.78-2.717s0.13-2.067,0.78-2.717c0.338-0.338,0.91-0.56,1.56-0.56c0.702,0,1.287,0.156,1.808,0.819V79.04
		h0.936v9.256H567.351z M565.738,82.653c-1.391,0-1.612,1.196-1.612,2.444s0.222,2.444,1.612,2.444c1.392,0,1.6-1.196,1.6-2.444
		S567.13,82.653,565.738,82.653z"/>
	<path fill="#262625" d="M573.279,88.374c-1.079,0-1.925-0.247-2.627-0.923l0.624-0.624c0.508,0.533,1.196,0.74,1.989,0.74
		c1.054,0,1.703-0.377,1.703-1.131c0-0.559-0.325-0.871-1.065-0.936l-1.054-0.091c-1.248-0.104-1.911-0.663-1.911-1.717
		c0-1.17,0.988-1.872,2.354-1.872c0.91,0,1.729,0.222,2.301,0.689l-0.611,0.611c-0.454-0.352-1.039-0.508-1.702-0.508
		c-0.937,0-1.431,0.403-1.431,1.054c0,0.546,0.312,0.871,1.118,0.936l1.027,0.091c1.118,0.104,1.885,0.533,1.885,1.729
		C575.879,87.659,574.826,88.374,573.279,88.374z"/>
</g>
<path fill="none" stroke="#AE1821" stroke-width="0.75" stroke-miterlimit="10" d="M503.124,55.944c0,0-2.835,0-2.835,2.835v34.612
	c0,0,0,2.835,2.835,2.835h92.956c0,0,2.834,0,2.834-2.835V58.78c0,0,0-2.835-2.834-2.835H503.124z"/>
<g>
	<path fill="#262625" d="M309.82,73.879c-0.91,0-1.742-0.338-2.366-0.962c-0.871-0.871-0.871-1.781-0.871-3.744s0-2.873,0.871-3.744
		c0.624-0.624,1.456-0.962,2.366-0.962c1.664,0,2.899,1.014,3.211,2.756h-1.014c-0.247-1.131-1.04-1.872-2.197-1.872
		c-0.611,0-1.196,0.234-1.599,0.65c-0.585,0.598-0.65,1.234-0.65,3.172c0,1.937,0.065,2.574,0.65,3.172
		c0.403,0.416,0.988,0.65,1.599,0.65c1.157,0,1.976-0.741,2.223-1.872h0.988C312.732,72.864,311.471,73.879,309.82,73.879z"/>
	<path fill="#262625" d="M319.792,73.151c-0.442,0.442-1.053,0.729-1.833,0.729c-0.78,0-1.391-0.286-1.833-0.729
		c-0.65-0.663-0.78-1.56-0.78-2.548s0.13-1.885,0.78-2.548c0.442-0.442,1.053-0.729,1.833-0.729c0.78,0,1.391,0.286,1.833,0.729
		c0.65,0.663,0.78,1.56,0.78,2.548S320.441,72.487,319.792,73.151z M319.128,68.627c-0.299-0.3-0.715-0.469-1.17-0.469
		s-0.858,0.169-1.157,0.469c-0.468,0.468-0.52,1.261-0.52,1.976s0.052,1.508,0.52,1.977c0.299,0.299,0.702,0.468,1.157,0.468
		s0.871-0.169,1.17-0.468c0.468-0.469,0.507-1.262,0.507-1.977S319.596,69.095,319.128,68.627z"/>
	<path fill="#262625" d="M327.267,73.801v-0.715c-0.455,0.52-1.092,0.793-1.807,0.793c-0.689,0-1.261-0.208-1.651-0.599
		c-0.455-0.441-0.65-1.053-0.65-1.794v-4.082h0.936v3.939c0,1.131,0.598,1.703,1.56,1.703s1.599-0.585,1.599-1.703v-3.939h0.936
		v6.396H327.267z"/>
	<path fill="#262625" d="M335.469,73.319c-0.338,0.339-0.91,0.56-1.56,0.56c-0.702,0-1.287-0.169-1.807-0.832v3.614h-0.936v-9.257
		h0.936v0.754c0.52-0.676,1.105-0.832,1.807-0.832c0.65,0,1.222,0.222,1.56,0.56c0.65,0.649,0.78,1.716,0.78,2.717
		S336.119,72.67,335.469,73.319z M333.714,68.158c-1.391,0-1.612,1.196-1.612,2.444s0.221,2.444,1.612,2.444
		s1.599-1.196,1.599-2.444S335.105,68.158,333.714,68.158z"/>
	<path fill="#262625" d="M340.5,73.801c-1.118,0-1.625-0.728-1.625-1.703v-7.554h0.936v7.515c0,0.624,0.208,0.937,0.858,0.937h0.507
		v0.806H340.5z"/>
	<path fill="#262625" d="M343.659,70.85c0,1.404,0.663,2.21,1.885,2.21c0.741,0,1.17-0.221,1.677-0.728l0.637,0.559
		c-0.65,0.65-1.248,0.988-2.34,0.988c-1.69,0-2.795-1.015-2.795-3.276c0-2.067,1.001-3.276,2.626-3.276
		c1.651,0,2.626,1.196,2.626,3.095v0.429H343.659z M346.844,69.082c-0.247-0.585-0.819-0.963-1.495-0.963
		c-0.676,0-1.248,0.378-1.495,0.963c-0.143,0.351-0.169,0.546-0.195,1.065h3.38C347.013,69.628,346.987,69.433,346.844,69.082z"/>
</g>
<g>
	<path fill="#262625" d="M305.102,87.646c-0.442,0.442-1.053,0.729-1.833,0.729c-0.78,0-1.391-0.286-1.833-0.729
		c-0.65-0.663-0.78-1.56-0.78-2.548s0.13-1.885,0.78-2.548c0.442-0.442,1.053-0.729,1.833-0.729c0.78,0,1.391,0.286,1.833,0.729
		c0.65,0.663,0.78,1.56,0.78,2.548S305.751,86.983,305.102,87.646z M304.438,83.122c-0.299-0.3-0.715-0.469-1.17-0.469
		c-0.455,0-0.858,0.169-1.157,0.469c-0.468,0.468-0.52,1.261-0.52,1.976s0.052,1.508,0.52,1.977
		c0.299,0.299,0.702,0.468,1.157,0.468c0.455,0,0.871-0.169,1.17-0.468c0.468-0.469,0.507-1.262,0.507-1.977
		S304.906,83.59,304.438,83.122z"/>
	<path fill="#262625" d="M309.664,82.653v5.643h-0.936v-5.643h-0.819v-0.715h0.819V80.73c0-0.949,0.533-1.716,1.625-1.716h0.676
		v0.806h-0.507c-0.598,0-0.858,0.352-0.858,0.937v1.183h1.365v0.715H309.664z"/>
	<path fill="#262625" d="M324.484,88.296h-0.923l-2.054-7.41l-2.054,7.41h-0.923l-2.366-9.256h1.053l1.807,7.462l2.042-7.462h0.884
		l2.041,7.462l1.807-7.462h1.053L324.484,88.296z"/>
	<path fill="#262625" d="M332.466,87.646c-0.442,0.442-1.053,0.729-1.833,0.729c-0.78,0-1.391-0.286-1.833-0.729
		c-0.65-0.663-0.78-1.56-0.78-2.548s0.13-1.885,0.78-2.548c0.442-0.442,1.053-0.729,1.833-0.729c0.78,0,1.391,0.286,1.833,0.729
		c0.65,0.663,0.78,1.56,0.78,2.548S333.116,86.983,332.466,87.646z M331.803,83.122c-0.299-0.3-0.715-0.469-1.17-0.469
		s-0.858,0.169-1.157,0.469c-0.468,0.468-0.52,1.261-0.52,1.976s0.052,1.508,0.52,1.977c0.299,0.299,0.702,0.468,1.157,0.468
		s0.871-0.169,1.17-0.468c0.468-0.469,0.507-1.262,0.507-1.977S332.271,83.59,331.803,83.122z"/>
	<path fill="#262625" d="M339.46,83.122c-0.351-0.352-0.611-0.469-1.105-0.469c-0.936,0-1.534,0.741-1.534,1.717v3.926h-0.936V81.9
		h0.936v0.78c0.351-0.533,1.053-0.858,1.794-0.858c0.611,0,1.079,0.144,1.534,0.599L339.46,83.122z"/>
	<path fill="#262625" d="M345.388,88.296v-0.767c-0.52,0.676-1.118,0.845-1.82,0.845c-0.65,0-1.222-0.221-1.56-0.56
		c-0.65-0.649-0.78-1.716-0.78-2.717s0.13-2.067,0.78-2.717c0.338-0.338,0.91-0.56,1.56-0.56c0.702,0,1.287,0.156,1.807,0.819V79.04
		h0.936v9.256H345.388z M343.776,82.653c-1.391,0-1.612,1.196-1.612,2.444s0.221,2.444,1.612,2.444c1.391,0,1.599-1.196,1.599-2.444
		S345.167,82.653,343.776,82.653z"/>
	<path fill="#262625" d="M351.303,88.374c-1.079,0-1.924-0.247-2.626-0.923l0.624-0.624c0.507,0.533,1.196,0.74,1.989,0.74
		c1.053,0,1.703-0.377,1.703-1.131c0-0.559-0.325-0.871-1.066-0.936l-1.053-0.091c-1.248-0.104-1.911-0.663-1.911-1.717
		c0-1.17,0.988-1.872,2.353-1.872c0.91,0,1.729,0.222,2.301,0.689l-0.611,0.611c-0.455-0.352-1.04-0.508-1.703-0.508
		c-0.936,0-1.43,0.403-1.43,1.054c0,0.546,0.312,0.871,1.118,0.936l1.027,0.091c1.118,0.104,1.885,0.533,1.885,1.729
		C353.903,87.659,352.85,88.374,351.303,88.374z"/>
</g>
<path fill="none" stroke="#AE1821" stroke-width="0.75" stroke-miterlimit="10" d="M281.174,55.944c0,0-2.835,0-2.835,2.835v34.612
	c0,0,0,2.835,2.835,2.835h92.956c0,0,2.834,0,2.834-2.835V58.78c0,0,0-2.835-2.834-2.835H281.174z"/>
<line fill="none" stroke="#BAA494" stroke-width="0.75" x1="217.47" y1="43.154" x2="328.607" y2="43.154"/>
<rect x="208.47" y="35.779" fill="none" width="129.137" height="8.75"/>
<line fill="none" stroke="#BAA494" stroke-width="0.75" x1="438.72" y1="43.154" x2="549.857" y2="43.154"/>
<rect x="429.72" y="35.779" fill="none" width="129.137" height="8.75"/>
<g>
	<path fill="#AE1821" d="M626.826,137.477l-2.388-4.17l-1.649,1.98v2.189h-0.837v-7.833h0.837v4.5l3.652-4.5h1.022L625,132.669
		l2.816,4.808H626.826z"/>
	<path fill="#AE1821" d="M629.993,134.98c0,1.188,0.561,1.87,1.595,1.87c0.628,0,0.99-0.188,1.42-0.616l0.539,0.473
		c-0.551,0.551-1.057,0.837-1.98,0.837c-1.431,0-2.365-0.858-2.365-2.772c0-1.75,0.847-2.772,2.222-2.772
		c1.397,0,2.223,1.012,2.223,2.618v0.363H629.993z M632.688,133.484c-0.209-0.495-0.693-0.814-1.266-0.814
		c-0.571,0-1.056,0.319-1.265,0.814c-0.121,0.297-0.144,0.462-0.165,0.901h2.86C632.831,133.945,632.81,133.78,632.688,133.484z"/>
	<path fill="#AE1821" d="M637.11,138.786c-0.109,0.297-0.23,0.495-0.385,0.638c-0.286,0.275-0.671,0.374-1.056,0.374h-0.342v-0.704
		h0.242c0.55,0,0.715-0.176,0.892-0.671l0.385-1.057l-1.947-5.303h0.858l1.485,4.346l1.474-4.346h0.858L637.11,138.786z"/>
	<path fill="#AE1821" d="M646.384,137.477h-0.737l-1.419-4.202l-1.408,4.202h-0.737l-1.716-5.413h0.858l1.243,4.346l1.419-4.346
		h0.682l1.431,4.346l1.232-4.346h0.857L646.384,137.477z"/>
	<path fill="#AE1821" d="M653.16,136.927c-0.374,0.374-0.892,0.616-1.552,0.616s-1.177-0.242-1.551-0.616
		c-0.55-0.562-0.66-1.32-0.66-2.156c0-0.837,0.11-1.596,0.66-2.156c0.374-0.374,0.891-0.616,1.551-0.616s1.178,0.242,1.552,0.616
		c0.55,0.561,0.66,1.319,0.66,2.156C653.82,135.607,653.71,136.365,653.16,136.927z M652.599,133.098
		c-0.253-0.253-0.604-0.396-0.99-0.396c-0.385,0-0.726,0.143-0.979,0.396c-0.396,0.396-0.44,1.067-0.44,1.673
		c0,0.604,0.044,1.275,0.44,1.672c0.253,0.253,0.594,0.396,0.979,0.396c0.386,0,0.737-0.144,0.99-0.396
		c0.396-0.396,0.43-1.067,0.43-1.672C653.028,134.165,652.995,133.494,652.599,133.098z"/>
	<path fill="#AE1821" d="M659.089,133.098c-0.297-0.297-0.518-0.396-0.936-0.396c-0.792,0-1.298,0.627-1.298,1.452v3.322h-0.792
		v-5.413h0.792v0.66c0.297-0.451,0.892-0.726,1.519-0.726c0.517,0,0.913,0.121,1.298,0.506L659.089,133.098z"/>
	<path fill="#AE1821" d="M664.104,137.477v-0.649c-0.44,0.572-0.946,0.716-1.54,0.716c-0.55,0-1.034-0.188-1.32-0.474
		c-0.55-0.55-0.66-1.452-0.66-2.299c0-0.848,0.11-1.75,0.66-2.3c0.286-0.286,0.771-0.473,1.32-0.473
		c0.594,0,1.089,0.132,1.529,0.692v-3.047h0.792v7.833H664.104z M662.74,132.702c-1.177,0-1.364,1.012-1.364,2.068
		c0,1.056,0.188,2.068,1.364,2.068s1.354-1.013,1.354-2.068C664.094,133.714,663.917,132.702,662.74,132.702z"/>
	<path fill="#AE1821" d="M675.512,136.75c-0.473,0.474-1.166,0.727-1.98,0.727h-2.685v-7.833h2.685c0.814,0,1.508,0.253,1.98,0.726
		c0.814,0.814,0.771,2.014,0.771,3.103C676.282,134.562,676.326,135.937,675.512,136.75z M674.929,130.964
		c-0.407-0.418-0.936-0.572-1.54-0.572h-1.705v6.337h1.705c0.604,0,1.133-0.154,1.54-0.572c0.539-0.561,0.517-1.728,0.517-2.685
		S675.468,131.525,674.929,130.964z"/>
	<path fill="#AE1821" d="M679.152,134.98c0,1.188,0.561,1.87,1.595,1.87c0.628,0,0.99-0.188,1.42-0.616l0.539,0.473
		c-0.551,0.551-1.057,0.837-1.98,0.837c-1.431,0-2.365-0.858-2.365-2.772c0-1.75,0.847-2.772,2.222-2.772
		c1.397,0,2.223,1.012,2.223,2.618v0.363H679.152z M681.848,133.484c-0.209-0.495-0.693-0.814-1.266-0.814
		c-0.571,0-1.056,0.319-1.265,0.814c-0.121,0.297-0.144,0.462-0.165,0.901h2.86C681.99,133.945,681.969,133.78,681.848,133.484z"/>
	<path fill="#AE1821" d="M688.492,137.477v-3.333c0-0.958-0.518-1.441-1.332-1.441c-0.813,0-1.342,0.495-1.342,1.441v3.333h-0.792
		v-5.413h0.792v0.595c0.385-0.44,0.913-0.66,1.519-0.66c0.583,0,1.056,0.176,1.386,0.506c0.385,0.374,0.562,0.88,0.562,1.507v3.466
		H688.492z"/>
	<path fill="#AE1821" d="M693.463,137.543c-0.913,0-1.628-0.209-2.223-0.781l0.528-0.528c0.43,0.451,1.013,0.627,1.684,0.627
		c0.891,0,1.441-0.319,1.441-0.957c0-0.473-0.275-0.737-0.902-0.792l-0.892-0.077c-1.056-0.088-1.617-0.562-1.617-1.452
		c0-0.99,0.836-1.584,1.991-1.584c0.771,0,1.464,0.187,1.947,0.583l-0.517,0.517c-0.385-0.297-0.88-0.429-1.441-0.429
		c-0.792,0-1.21,0.341-1.21,0.891c0,0.463,0.264,0.737,0.946,0.793l0.869,0.076c0.946,0.089,1.595,0.451,1.595,1.464
		C695.663,136.938,694.772,137.543,693.463,137.543z"/>
	<path fill="#AE1821" d="M697.72,130.524v-0.891h0.891v0.891H697.72z M697.764,137.477v-5.413h0.792v5.413H697.764z"/>
	<path fill="#AE1821" d="M702.615,137.477c-0.925,0-1.387-0.649-1.387-1.452v-3.322h-0.682v-0.605h0.682v-1.694h0.792v1.694h1.155
		v0.605h-1.155v3.3c0,0.495,0.231,0.793,0.737,0.793h0.418v0.682H702.615z"/>
	<path fill="#AE1821" d="M706.641,138.786c-0.109,0.297-0.23,0.495-0.385,0.638c-0.286,0.275-0.671,0.374-1.056,0.374h-0.342v-0.704
		h0.242c0.55,0,0.715-0.176,0.892-0.671l0.385-1.057l-1.947-5.303h0.858l1.484,4.346l1.475-4.346h0.858L706.641,138.786z"/>
	<path fill="#AE1821" d="M718.752,137.477l-0.628-1.771h-3.421l-0.627,1.771h-0.892l2.883-7.833h0.704l2.871,7.833H718.752z
		 M716.431,130.843l-1.475,4.137h2.927L716.431,130.843z"/>
	<path fill="#AE1821" d="M724.78,137.477v-3.333c0-0.958-0.518-1.441-1.332-1.441c-0.813,0-1.342,0.495-1.342,1.441v3.333h-0.792
		v-5.413h0.792v0.595c0.385-0.44,0.913-0.66,1.519-0.66c0.583,0,1.056,0.176,1.386,0.506c0.385,0.374,0.562,0.88,0.562,1.507v3.466
		H724.78z"/>
	<path fill="#AE1821" d="M731.115,137.477v-0.517c-0.44,0.439-0.836,0.583-1.562,0.583c-0.748,0-1.188-0.144-1.529-0.495
		c-0.264-0.265-0.406-0.672-0.406-1.101c0-0.946,0.659-1.562,1.87-1.562h1.628v-0.517c0-0.792-0.396-1.188-1.386-1.188
		c-0.693,0-1.046,0.165-1.364,0.616l-0.539-0.495c0.483-0.627,1.034-0.803,1.914-0.803c1.452,0,2.167,0.627,2.167,1.804v3.675
		H731.115z M731.115,134.98h-1.519c-0.813,0-1.21,0.33-1.21,0.957s0.385,0.924,1.243,0.924c0.462,0,0.869-0.033,1.21-0.363
		c0.188-0.176,0.275-0.483,0.275-0.935V134.98z"/>
	<path fill="#AE1821" d="M735.735,137.477c-0.946,0-1.376-0.616-1.376-1.441v-6.392h0.792v6.358c0,0.528,0.177,0.793,0.727,0.793
		h0.429v0.682H735.735z"/>
	<path fill="#AE1821" d="M739.277,138.786c-0.109,0.297-0.23,0.495-0.385,0.638c-0.286,0.275-0.671,0.374-1.056,0.374h-0.342v-0.704
		h0.242c0.55,0,0.715-0.176,0.892-0.671l0.385-1.057l-1.947-5.303h0.858l1.484,4.346l1.475-4.346h0.858L739.277,138.786z"/>
	<path fill="#AE1821" d="M742.962,137.477v-0.682l3.015-4.027h-2.85v-0.704h3.763v0.672l-3.025,4.037h3.025v0.704H742.962z"/>
	<path fill="#AE1821" d="M749.496,134.98c0,1.188,0.561,1.87,1.595,1.87c0.628,0,0.99-0.188,1.42-0.616l0.539,0.473
		c-0.551,0.551-1.057,0.837-1.98,0.837c-1.431,0-2.365-0.858-2.365-2.772c0-1.75,0.847-2.772,2.222-2.772
		c1.397,0,2.223,1.012,2.223,2.618v0.363H749.496z M752.191,133.484c-0.209-0.495-0.693-0.814-1.266-0.814
		c-0.571,0-1.056,0.319-1.265,0.814c-0.121,0.297-0.144,0.462-0.165,0.901h2.86C752.334,133.945,752.312,133.78,752.191,133.484z"/>
	<path fill="#AE1821" d="M758.396,133.098c-0.297-0.297-0.518-0.396-0.936-0.396c-0.792,0-1.298,0.627-1.298,1.452v3.322h-0.792
		v-5.413h0.792v0.66c0.297-0.451,0.892-0.726,1.519-0.726c0.517,0,0.913,0.121,1.298,0.506L758.396,133.098z"/>
</g>
<g>
	<path fill="#AE1821" d="M626.826,80.287l-2.388-4.17l-1.649,1.98v2.189h-0.837v-7.833h0.837v4.5l3.652-4.5h1.022L625,75.48
		l2.816,4.808H626.826z"/>
	<path fill="#AE1821" d="M629.993,77.79c0,1.188,0.561,1.87,1.595,1.87c0.628,0,0.99-0.188,1.42-0.616l0.539,0.473
		c-0.551,0.551-1.057,0.837-1.98,0.837c-1.431,0-2.365-0.858-2.365-2.772c0-1.75,0.847-2.772,2.222-2.772
		c1.397,0,2.223,1.012,2.223,2.618v0.363H629.993z M632.688,76.294c-0.209-0.495-0.693-0.814-1.266-0.814
		c-0.571,0-1.056,0.319-1.265,0.814c-0.121,0.297-0.144,0.462-0.165,0.901h2.86C632.831,76.756,632.81,76.591,632.688,76.294z"/>
	<path fill="#AE1821" d="M637.11,81.597c-0.109,0.297-0.23,0.495-0.385,0.638c-0.286,0.275-0.671,0.374-1.056,0.374h-0.342v-0.704
		h0.242c0.55,0,0.715-0.176,0.892-0.671l0.385-1.057l-1.947-5.303h0.858l1.485,4.346l1.474-4.346h0.858L637.11,81.597z"/>
	<path fill="#AE1821" d="M646.384,80.287h-0.737l-1.419-4.202l-1.408,4.202h-0.737l-1.716-5.413h0.858l1.243,4.346l1.419-4.346
		h0.682l1.431,4.346l1.232-4.346h0.857L646.384,80.287z"/>
	<path fill="#AE1821" d="M653.16,79.737c-0.374,0.374-0.892,0.616-1.552,0.616s-1.177-0.242-1.551-0.616
		c-0.55-0.562-0.66-1.32-0.66-2.156c0-0.837,0.11-1.596,0.66-2.156c0.374-0.374,0.891-0.616,1.551-0.616s1.178,0.242,1.552,0.616
		c0.55,0.561,0.66,1.319,0.66,2.156C653.82,78.417,653.71,79.176,653.16,79.737z M652.599,75.908
		c-0.253-0.253-0.604-0.396-0.99-0.396c-0.385,0-0.726,0.143-0.979,0.396c-0.396,0.396-0.44,1.067-0.44,1.673
		c0,0.604,0.044,1.275,0.44,1.672c0.253,0.253,0.594,0.396,0.979,0.396c0.386,0,0.737-0.144,0.99-0.396
		c0.396-0.396,0.43-1.067,0.43-1.672C653.028,76.976,652.995,76.305,652.599,75.908z"/>
	<path fill="#AE1821" d="M659.089,75.908c-0.297-0.297-0.518-0.396-0.936-0.396c-0.792,0-1.298,0.627-1.298,1.452v3.322h-0.792
		v-5.413h0.792v0.66c0.297-0.451,0.892-0.726,1.519-0.726c0.517,0,0.913,0.121,1.298,0.506L659.089,75.908z"/>
	<path fill="#AE1821" d="M664.104,80.287v-0.649c-0.44,0.572-0.946,0.716-1.54,0.716c-0.55,0-1.034-0.188-1.32-0.474
		c-0.55-0.55-0.66-1.452-0.66-2.299c0-0.848,0.11-1.75,0.66-2.3c0.286-0.286,0.771-0.473,1.32-0.473
		c0.594,0,1.089,0.132,1.529,0.692v-3.047h0.792v7.833H664.104z M662.74,75.513c-1.177,0-1.364,1.012-1.364,2.068
		c0,1.056,0.188,2.068,1.364,2.068s1.354-1.013,1.354-2.068C664.094,76.525,663.917,75.513,662.74,75.513z"/>
	<path fill="#AE1821" d="M675.512,79.561c-0.473,0.474-1.166,0.727-1.98,0.727h-2.685v-7.833h2.685c0.814,0,1.508,0.253,1.98,0.726
		c0.814,0.814,0.771,2.014,0.771,3.103C676.282,77.372,676.326,78.747,675.512,79.561z M674.929,73.775
		c-0.407-0.418-0.936-0.572-1.54-0.572h-1.705v6.337h1.705c0.604,0,1.133-0.154,1.54-0.572c0.539-0.561,0.517-1.728,0.517-2.685
		S675.468,74.335,674.929,73.775z"/>
	<path fill="#AE1821" d="M679.152,77.79c0,1.188,0.561,1.87,1.595,1.87c0.628,0,0.99-0.188,1.42-0.616l0.539,0.473
		c-0.551,0.551-1.057,0.837-1.98,0.837c-1.431,0-2.365-0.858-2.365-2.772c0-1.75,0.847-2.772,2.222-2.772
		c1.397,0,2.223,1.012,2.223,2.618v0.363H679.152z M681.848,76.294c-0.209-0.495-0.693-0.814-1.266-0.814
		c-0.571,0-1.056,0.319-1.265,0.814c-0.121,0.297-0.144,0.462-0.165,0.901h2.86C681.99,76.756,681.969,76.591,681.848,76.294z"/>
	<path fill="#AE1821" d="M688.492,80.287v-3.333c0-0.958-0.518-1.441-1.332-1.441c-0.813,0-1.342,0.495-1.342,1.441v3.333h-0.792
		v-5.413h0.792v0.595c0.385-0.44,0.913-0.66,1.519-0.66c0.583,0,1.056,0.176,1.386,0.506c0.385,0.374,0.562,0.88,0.562,1.507v3.466
		H688.492z"/>
	<path fill="#AE1821" d="M693.463,80.354c-0.913,0-1.628-0.209-2.223-0.781l0.528-0.528c0.43,0.451,1.013,0.627,1.684,0.627
		c0.891,0,1.441-0.319,1.441-0.957c0-0.473-0.275-0.737-0.902-0.792l-0.892-0.077c-1.056-0.088-1.617-0.562-1.617-1.452
		c0-0.99,0.836-1.584,1.991-1.584c0.771,0,1.464,0.187,1.947,0.583l-0.517,0.517c-0.385-0.297-0.88-0.429-1.441-0.429
		c-0.792,0-1.21,0.341-1.21,0.891c0,0.463,0.264,0.737,0.946,0.793l0.869,0.076c0.946,0.089,1.595,0.451,1.595,1.464
		C695.663,79.748,694.772,80.354,693.463,80.354z"/>
	<path fill="#AE1821" d="M697.72,73.334v-0.891h0.891v0.891H697.72z M697.764,80.287v-5.413h0.792v5.413H697.764z"/>
	<path fill="#AE1821" d="M702.615,80.287c-0.925,0-1.387-0.649-1.387-1.452v-3.322h-0.682v-0.605h0.682v-1.694h0.792v1.694h1.155
		v0.605h-1.155v3.3c0,0.495,0.231,0.793,0.737,0.793h0.418v0.682H702.615z"/>
	<path fill="#AE1821" d="M706.641,81.597c-0.109,0.297-0.23,0.495-0.385,0.638c-0.286,0.275-0.671,0.374-1.056,0.374h-0.342v-0.704
		h0.242c0.55,0,0.715-0.176,0.892-0.671l0.385-1.057l-1.947-5.303h0.858l1.484,4.346l1.475-4.346h0.858L706.641,81.597z"/>
	<path fill="#AE1821" d="M718.752,80.287l-0.628-1.771h-3.421l-0.627,1.771h-0.892l2.883-7.833h0.704l2.871,7.833H718.752z
		 M716.431,73.653l-1.475,4.137h2.927L716.431,73.653z"/>
	<path fill="#AE1821" d="M724.78,80.287v-3.333c0-0.958-0.518-1.441-1.332-1.441c-0.813,0-1.342,0.495-1.342,1.441v3.333h-0.792
		v-5.413h0.792v0.595c0.385-0.44,0.913-0.66,1.519-0.66c0.583,0,1.056,0.176,1.386,0.506c0.385,0.374,0.562,0.88,0.562,1.507v3.466
		H724.78z"/>
	<path fill="#AE1821" d="M731.115,80.287v-0.517c-0.44,0.439-0.836,0.583-1.562,0.583c-0.748,0-1.188-0.144-1.529-0.495
		c-0.264-0.265-0.406-0.672-0.406-1.101c0-0.946,0.659-1.562,1.87-1.562h1.628v-0.517c0-0.792-0.396-1.188-1.386-1.188
		c-0.693,0-1.046,0.165-1.364,0.616l-0.539-0.495c0.483-0.627,1.034-0.803,1.914-0.803c1.452,0,2.167,0.627,2.167,1.804v3.675
		H731.115z M731.115,77.79h-1.519c-0.813,0-1.21,0.33-1.21,0.957s0.385,0.924,1.243,0.924c0.462,0,0.869-0.033,1.21-0.363
		c0.188-0.176,0.275-0.483,0.275-0.935V77.79z"/>
	<path fill="#AE1821" d="M735.735,80.287c-0.946,0-1.376-0.616-1.376-1.441v-6.392h0.792v6.358c0,0.528,0.177,0.793,0.727,0.793
		h0.429v0.682H735.735z"/>
	<path fill="#AE1821" d="M739.277,81.597c-0.109,0.297-0.23,0.495-0.385,0.638c-0.286,0.275-0.671,0.374-1.056,0.374h-0.342v-0.704
		h0.242c0.55,0,0.715-0.176,0.892-0.671l0.385-1.057l-1.947-5.303h0.858l1.484,4.346l1.475-4.346h0.858L739.277,81.597z"/>
	<path fill="#AE1821" d="M742.962,80.287v-0.682l3.015-4.027h-2.85v-0.704h3.763v0.672l-3.025,4.037h3.025v0.704H742.962z"/>
	<path fill="#AE1821" d="M749.496,77.79c0,1.188,0.561,1.87,1.595,1.87c0.628,0,0.99-0.188,1.42-0.616l0.539,0.473
		c-0.551,0.551-1.057,0.837-1.98,0.837c-1.431,0-2.365-0.858-2.365-2.772c0-1.75,0.847-2.772,2.222-2.772
		c1.397,0,2.223,1.012,2.223,2.618v0.363H749.496z M752.191,76.294c-0.209-0.495-0.693-0.814-1.266-0.814
		c-0.571,0-1.056,0.319-1.265,0.814c-0.121,0.297-0.144,0.462-0.165,0.901h2.86C752.334,76.756,752.312,76.591,752.191,76.294z"/>
	<path fill="#AE1821" d="M758.396,75.908c-0.297-0.297-0.518-0.396-0.936-0.396c-0.792,0-1.298,0.627-1.298,1.452v3.322h-0.792
		v-5.413h0.792v0.66c0.297-0.451,0.892-0.726,1.519-0.726c0.517,0,0.913,0.121,1.298,0.506L758.396,75.908z"/>
</g>
<g opacity="0.75">
	<g>
		<defs>
			<rect id="SVGID_9_" x="609.914" y="121.824" width="12.235" height="23.669"/>
		</defs>
		<clipPath id="SVGID_10_">
			<use xlink:href="#SVGID_9_"  overflow="visible"/>
		</clipPath>
		<polygon clip-path="url(#SVGID_10_)" fill="#AE1821" points="615.149,133.658 610.914,130.823 610.914,136.493 		"/>
	</g>
</g>
<g opacity="0.75">
	<g>
		<defs>
			<rect id="SVGID_11_" x="609.914" y="64.634" width="12.235" height="23.669"/>
		</defs>
		<clipPath id="SVGID_12_">
			<use xlink:href="#SVGID_11_"  overflow="visible"/>
		</clipPath>
		<polygon clip-path="url(#SVGID_12_)" fill="#AE1821" points="615.149,76.469 610.914,73.634 610.914,79.304 		"/>
	</g>
</g>
</svg>
