<?xml version="1.0" encoding="utf-8"?>
<!-- Generator: Adobe Illustrator 17.0.0, SVG Export Plug-In . SVG Version: 6.00 Build 0)  -->
<!DOCTYPE svg PUBLIC "-//W3C//DTD SVG 1.1//EN" "http://www.w3.org/Graphics/SVG/1.1/DTD/svg11.dtd">
<svg version="1.1" id="Livello_1" xmlns="http://www.w3.org/2000/svg" xmlns:xlink="http://www.w3.org/1999/xlink" x="0px" y="0px"
	 width="768px" height="268.542px" viewBox="0 0 768 268.542" enable-background="new 0 0 768 268.542" xml:space="preserve">
<g>
	<path fill="#262625" d="M435.829,17.937c-1.392,0-2.302-0.352-3.173-1.223l0.677-0.676c0.767,0.768,1.481,1.015,2.521,1.015
		c1.353,0,2.185-0.638,2.185-1.717c0-0.48-0.144-0.896-0.442-1.156c-0.299-0.261-0.533-0.339-1.209-0.442l-1.079-0.169
		c-0.728-0.117-1.3-0.352-1.703-0.702c-0.468-0.416-0.702-0.988-0.702-1.729c0-1.572,1.131-2.612,2.965-2.612
		c1.183,0,1.963,0.299,2.756,1.014l-0.638,0.637c-0.571-0.52-1.183-0.793-2.157-0.793c-1.235,0-1.95,0.689-1.95,1.717
		c0,0.454,0.13,0.818,0.416,1.065s0.767,0.429,1.248,0.507l1.014,0.156c0.871,0.13,1.3,0.312,1.69,0.65
		c0.507,0.429,0.779,1.065,0.779,1.833C439.026,16.936,437.753,17.937,435.829,17.937z"/>
	<path fill="#262625" d="M441.522,9.642V8.589h1.053v1.053H441.522z M441.574,17.859v-6.396h0.937v6.396H441.574z"/>
	<path fill="#262625" d="M447.112,17.859c-1.118,0-1.625-0.729-1.625-1.703V8.603h0.937v7.514c0,0.624,0.208,0.937,0.857,0.937
		h0.508v0.806h-0.677V17.859z"/>
	<path fill="#262625" d="M454.236,17.859l-2.028-3.276l-1.248,1.431v1.846h-0.936V8.603h0.936v6.188l2.887-3.328h1.17l-2.171,2.444
		l2.548,3.952C455.394,17.859,454.236,17.859,454.236,17.859z"/>
</g>
<path fill="none" stroke="#AE1821" stroke-width="0.75" stroke-miterlimit="10" d="M391.926,0c0,0-2.835,0-2.835,2.835V22.95
	c0,0,0,2.835,2.835,2.835H496.84c0,0,2.835,0,2.835-2.835V2.835c0,0,0-2.835-2.835-2.835H391.926z"/>
<g>
	<path fill="#262625" d="M161.908,12.242l-0.299,1.833h1.157v0.832h-1.287l-0.468,2.951h-0.962l0.468-2.951h-2.08l-0.455,2.951
		h-0.962l0.468-2.951h-1.157v-0.832h1.3l0.299-1.833h-1.196v-0.858h1.313l0.442-2.795h0.975l-0.455,2.795h2.067l0.442-2.795h0.949
		l-0.442,2.795h1.131v0.858H161.908z M158.879,12.242l-0.299,1.833h2.067l0.299-1.833H158.879z"/>
	<path fill="#262625" d="M169.266,17.859v-0.611c-0.52,0.521-0.988,0.689-1.846,0.689c-0.884,0-1.404-0.169-1.807-0.585
		c-0.312-0.312-0.481-0.793-0.481-1.3c0-1.118,0.78-1.847,2.21-1.847h1.924v-0.61c0-0.937-0.468-1.404-1.638-1.404
		c-0.819,0-1.235,0.194-1.612,0.728l-0.637-0.585c0.572-0.741,1.222-0.949,2.262-0.949c1.716,0,2.562,0.741,2.562,2.133v4.342
		h-0.937V17.859z M169.266,14.907h-1.794c-0.962,0-1.43,0.39-1.43,1.131c0,0.741,0.455,1.092,1.469,1.092
		c0.546,0,1.027-0.038,1.43-0.429c0.221-0.208,0.325-0.572,0.325-1.104L169.266,14.907L169.266,14.907z"/>
	<path fill="#262625" d="M174.726,17.859c-1.118,0-1.625-0.729-1.625-1.703V8.603h0.936v7.514c0,0.624,0.208,0.937,0.858,0.937
		h0.507v0.806h-0.676L174.726,17.859L174.726,17.859z"/>
	<path fill="#262625" d="M185.841,17.859V13.92c0-1.131-0.611-1.703-1.573-1.703c-0.936,0-1.599,0.585-1.599,1.6v4.043h-0.936
		v-3.939c0-1.131-0.611-1.703-1.573-1.703s-1.599,0.585-1.599,1.703v3.939h-0.936v-6.396h0.936v0.702
		c0.455-0.52,1.092-0.78,1.807-0.78c0.884,0,1.573,0.364,1.963,1.066c0.494-0.702,1.209-1.066,2.106-1.066
		c0.689,0,1.261,0.222,1.651,0.599c0.455,0.441,0.689,1.04,0.689,1.781v4.095h-0.936V17.859z"/>
	<path fill="#262625" d="M193.81,17.208c-0.442,0.442-1.053,0.729-1.833,0.729s-1.391-0.286-1.833-0.729
		c-0.65-0.663-0.78-1.56-0.78-2.548s0.13-1.885,0.78-2.548c0.442-0.442,1.053-0.729,1.833-0.729s1.391,0.286,1.833,0.729
		c0.65,0.663,0.78,1.56,0.78,2.548S194.459,16.545,193.81,17.208z M193.146,12.685c-0.299-0.3-0.715-0.469-1.17-0.469
		s-0.858,0.169-1.157,0.469c-0.468,0.468-0.52,1.261-0.52,1.976s0.052,1.508,0.52,1.977c0.299,0.299,0.702,0.468,1.157,0.468
		s0.871-0.169,1.17-0.468c0.468-0.469,0.507-1.262,0.507-1.977S193.614,13.153,193.146,12.685z"/>
	<path fill="#262625" d="M201.323,17.859V13.92c0-1.131-0.611-1.703-1.573-1.703s-1.586,0.585-1.586,1.703v3.939h-0.936v-6.396
		h0.936v0.702c0.455-0.52,1.079-0.78,1.794-0.78c0.689,0,1.248,0.208,1.638,0.599c0.455,0.441,0.663,1.04,0.663,1.781v4.095
		L201.323,17.859L201.323,17.859z"/>
	<path fill="#262625" d="M208.994,17.859v-0.767c-0.52,0.676-1.118,0.845-1.82,0.845c-0.65,0-1.222-0.221-1.561-0.56
		c-0.65-0.649-0.78-1.716-0.78-2.717s0.13-2.067,0.78-2.717c0.338-0.338,0.91-0.56,1.561-0.56c0.702,0,1.287,0.156,1.807,0.819
		V8.603h0.936v9.256H208.994z M207.382,12.216c-1.391,0-1.612,1.196-1.612,2.444s0.221,2.444,1.612,2.444s1.599-1.196,1.599-2.444
		S208.772,12.216,207.382,12.216z"/>
	<path fill="#262625" d="M221.123,17.859V13.92c0-1.131-0.611-1.703-1.573-1.703c-0.936,0-1.599,0.585-1.599,1.6v4.043h-0.936
		v-3.939c0-1.131-0.611-1.703-1.573-1.703s-1.599,0.585-1.599,1.703v3.939h-0.936v-6.396h0.936v0.702
		c0.455-0.52,1.092-0.78,1.807-0.78c0.884,0,1.573,0.364,1.963,1.066c0.494-0.702,1.209-1.066,2.106-1.066
		c0.689,0,1.261,0.222,1.651,0.599c0.455,0.441,0.689,1.04,0.689,1.781v4.095h-0.936V17.859z"/>
	<path fill="#262625" d="M224.931,9.642V8.589h1.053v1.053H224.931z M224.983,17.859v-6.396h0.936v6.396H224.983z"/>
	<path fill="#262625" d="M230.521,17.859c-1.118,0-1.625-0.729-1.625-1.703V8.603h0.936v7.514c0,0.624,0.208,0.937,0.858,0.937
		h0.507v0.806h-0.676L230.521,17.859L230.521,17.859z"/>
	<path fill="#262625" d="M237.646,17.859l-2.028-3.276l-1.248,1.431v1.846h-0.936V8.603h0.936v6.188l2.886-3.328h1.17l-2.171,2.444
		l2.548,3.952C238.803,17.859,237.646,17.859,237.646,17.859z"/>
</g>
<path fill="none" stroke="#AE1821" stroke-width="0.75" stroke-miterlimit="10" d="M145.26,0c0,0-2.835,0-2.835,2.835V22.95
	c0,0,0,2.835,2.835,2.835h104.914c0,0,2.835,0,2.835-2.835V2.835c0,0,0-2.835-2.835-2.835H145.26z"/>
<g>
	<path fill="#262625" d="M532.012,17.937c-1.391,0-2.301-0.352-3.172-1.223l0.676-0.676c0.768,0.768,1.482,1.015,2.522,1.015
		c1.352,0,2.184-0.638,2.184-1.717c0-0.48-0.143-0.896-0.441-1.156c-0.299-0.261-0.533-0.339-1.209-0.442l-1.079-0.169
		c-0.729-0.117-1.3-0.352-1.703-0.702c-0.468-0.416-0.702-0.988-0.702-1.729c0-1.572,1.131-2.612,2.964-2.612
		c1.184,0,1.964,0.299,2.757,1.014l-0.638,0.637c-0.571-0.52-1.183-0.793-2.158-0.793c-1.234,0-1.95,0.689-1.95,1.717
		c0,0.454,0.131,0.818,0.416,1.065c0.286,0.247,0.768,0.429,1.248,0.507l1.015,0.156c0.871,0.13,1.3,0.312,1.69,0.65
		c0.507,0.429,0.779,1.065,0.779,1.833C535.21,16.936,533.937,17.937,532.012,17.937z"/>
	<path fill="#262625" d="M541.866,17.208c-0.442,0.442-1.053,0.729-1.833,0.729s-1.392-0.286-1.833-0.729
		c-0.65-0.663-0.78-1.56-0.78-2.548s0.13-1.885,0.78-2.548c0.441-0.442,1.053-0.729,1.833-0.729s1.391,0.286,1.833,0.729
		c0.65,0.663,0.78,1.56,0.78,2.548S542.517,16.545,541.866,17.208z M541.203,12.685c-0.299-0.3-0.715-0.469-1.17-0.469
		s-0.858,0.169-1.157,0.469c-0.468,0.468-0.52,1.261-0.52,1.976s0.052,1.508,0.52,1.977c0.299,0.299,0.702,0.468,1.157,0.468
		s0.871-0.169,1.17-0.468c0.468-0.469,0.507-1.262,0.507-1.977S541.671,13.153,541.203,12.685z"/>
	<path fill="#262625" d="M554.841,17c-0.56,0.56-1.378,0.858-2.341,0.858h-3.172V8.603h3.172c0.963,0,1.781,0.299,2.341,0.857
		c0.962,0.962,0.91,2.379,0.91,3.666S555.803,16.038,554.841,17z M554.151,10.162c-0.48-0.494-1.104-0.676-1.82-0.676h-2.015v7.488
		h2.015c0.716,0,1.34-0.183,1.82-0.677c0.637-0.662,0.611-2.041,0.611-3.172S554.788,10.825,554.151,10.162z"/>
	<path fill="#262625" d="M559.143,14.907c0,1.404,0.663,2.21,1.886,2.21c0.74,0,1.17-0.221,1.677-0.728l0.637,0.559
		c-0.649,0.65-1.248,0.988-2.34,0.988c-1.69,0-2.795-1.014-2.795-3.276c0-2.067,1.001-3.276,2.626-3.276
		c1.65,0,2.626,1.196,2.626,3.095v0.429h-4.317L559.143,14.907L559.143,14.907z M562.328,13.14
		c-0.247-0.586-0.819-0.963-1.495-0.963s-1.248,0.377-1.495,0.963c-0.144,0.351-0.169,0.546-0.195,1.065h3.38
		C562.497,13.686,562.471,13.49,562.328,13.14z"/>
	<path fill="#262625" d="M567.685,17.859c-1.118,0-1.625-0.729-1.625-1.703V8.603h0.936v7.514c0,0.624,0.208,0.937,0.858,0.937
		h0.507v0.806h-0.676L567.685,17.859L567.685,17.859z"/>
	<path fill="#262625" d="M570.544,9.642V8.589h1.053v1.053H570.544z M570.596,17.859v-6.396h0.937v6.396H570.596z"/>
	<path fill="#262625" d="M577.018,17.937c-1.612,0-2.834-1.092-2.834-3.276s1.222-3.276,2.834-3.276
		c0.884,0,1.442,0.234,2.105,0.949l-0.637,0.599c-0.48-0.533-0.858-0.716-1.469-0.716c-0.624,0-1.145,0.247-1.482,0.729
		c-0.299,0.416-0.416,0.91-0.416,1.716s0.117,1.3,0.416,1.716c0.338,0.481,0.858,0.729,1.482,0.729c0.61,0,0.988-0.195,1.469-0.729
		l0.637,0.611C578.46,17.702,577.901,17.937,577.018,17.937z"/>
	<path fill="#262625" d="M581.503,9.642V8.589h1.053v1.053H581.503z M581.555,17.859v-6.396h0.937v6.396H581.555z"/>
	<path fill="#262625" d="M589.602,17.208c-0.442,0.442-1.053,0.729-1.833,0.729s-1.392-0.286-1.833-0.729
		c-0.65-0.663-0.78-1.56-0.78-2.548s0.13-1.885,0.78-2.548c0.441-0.442,1.053-0.729,1.833-0.729s1.391,0.286,1.833,0.729
		c0.649,0.663,0.78,1.56,0.78,2.548S590.251,16.545,589.602,17.208z M588.938,12.685c-0.299-0.3-0.715-0.469-1.17-0.469
		s-0.858,0.169-1.157,0.469c-0.468,0.468-0.521,1.261-0.521,1.976s0.053,1.508,0.521,1.977c0.299,0.299,0.702,0.468,1.157,0.468
		s0.871-0.169,1.17-0.468c0.468-0.469,0.507-1.262,0.507-1.977S589.406,13.153,588.938,12.685z"/>
	<path fill="#262625" d="M597.063,17.859v-0.715c-0.455,0.52-1.092,0.793-1.807,0.793c-0.689,0-1.261-0.208-1.651-0.598
		c-0.455-0.442-0.649-1.054-0.649-1.795v-4.082h0.936v3.939c0,1.131,0.598,1.703,1.561,1.703c0.962,0,1.599-0.585,1.599-1.703
		v-3.939h0.937v6.396h-0.926L597.063,17.859L597.063,17.859z"/>
	<path fill="#262625" d="M602.992,17.937c-1.079,0-1.925-0.247-2.627-0.923l0.624-0.624c0.508,0.533,1.196,0.74,1.989,0.74
		c1.054,0,1.703-0.377,1.703-1.131c0-0.559-0.325-0.871-1.065-0.936l-1.054-0.091c-1.248-0.104-1.911-0.663-1.911-1.717
		c0-1.17,0.988-1.872,2.354-1.872c0.91,0,1.729,0.222,2.301,0.689l-0.611,0.611c-0.454-0.352-1.039-0.508-1.702-0.508
		c-0.937,0-1.431,0.403-1.431,1.054c0,0.546,0.312,0.871,1.118,0.936l1.027,0.091c1.118,0.104,1.885,0.533,1.885,1.729
		C605.592,17.222,604.539,17.937,602.992,17.937z"/>
</g>
<path fill="none" stroke="#AE1821" stroke-width="0.75" stroke-miterlimit="10" d="M515.26,0c0,0-2.835,0-2.835,2.835V22.95
	c0,0,0,2.835,2.835,2.835h104.914c0,0,2.835,0,2.835-2.835V2.835c0,0,0-2.835-2.835-2.835H515.26z"/>
<g>
	<path fill="#262625" d="M284.091,12.242l-0.299,1.833h1.157v0.832h-1.287l-0.468,2.951h-0.962l0.468-2.951h-2.08l-0.455,2.951
		h-0.962l0.468-2.951h-1.157v-0.832h1.3l0.299-1.833h-1.196v-0.858h1.313l0.442-2.795h0.975l-0.455,2.795h2.067l0.442-2.795h0.949
		l-0.442,2.795h1.131v0.858H284.091z M281.062,12.242l-0.299,1.833h2.067l0.299-1.833H281.062z"/>
	<path fill="#262625" d="M290.292,17.937c-1.612,0-2.834-1.092-2.834-3.276s1.222-3.276,2.834-3.276
		c0.884,0,1.443,0.234,2.106,0.949l-0.637,0.599c-0.481-0.533-0.858-0.716-1.469-0.716c-0.624,0-1.144,0.247-1.482,0.729
		c-0.299,0.416-0.416,0.91-0.416,1.716s0.117,1.3,0.416,1.716c0.338,0.481,0.858,0.729,1.482,0.729c0.611,0,0.988-0.195,1.469-0.729
		l0.637,0.611C291.735,17.702,291.176,17.937,290.292,17.937z"/>
	<path fill="#262625" d="M298.742,17.208c-0.442,0.442-1.053,0.729-1.833,0.729s-1.391-0.286-1.833-0.729
		c-0.65-0.663-0.78-1.56-0.78-2.548s0.13-1.885,0.78-2.548c0.442-0.442,1.053-0.729,1.833-0.729s1.391,0.286,1.833,0.729
		c0.65,0.663,0.78,1.56,0.78,2.548S299.392,16.545,298.742,17.208z M298.079,12.685c-0.299-0.3-0.715-0.469-1.17-0.469
		c-0.455,0-0.858,0.169-1.157,0.469c-0.468,0.468-0.52,1.261-0.52,1.976s0.052,1.508,0.52,1.977
		c0.299,0.299,0.702,0.468,1.157,0.468c0.455,0,0.871-0.169,1.17-0.468c0.468-0.469,0.507-1.262,0.507-1.977
		S298.546,13.153,298.079,12.685z"/>
	<path fill="#262625" d="M304.657,17.937c-1.612,0-2.834-1.092-2.834-3.276s1.222-3.276,2.834-3.276
		c0.884,0,1.443,0.234,2.106,0.949l-0.637,0.599c-0.481-0.533-0.858-0.716-1.469-0.716c-0.624,0-1.144,0.247-1.482,0.729
		c-0.299,0.416-0.416,0.91-0.416,1.716s0.117,1.3,0.416,1.716c0.338,0.481,0.858,0.729,1.482,0.729c0.611,0,0.988-0.195,1.469-0.729
		l0.637,0.611C306.1,17.702,305.541,17.937,304.657,17.937z"/>
	<path fill="#262625" d="M313.107,17.208c-0.442,0.442-1.053,0.729-1.833,0.729s-1.391-0.286-1.833-0.729
		c-0.65-0.663-0.78-1.56-0.78-2.548s0.13-1.885,0.78-2.548c0.442-0.442,1.053-0.729,1.833-0.729s1.391,0.286,1.833,0.729
		c0.65,0.663,0.78,1.56,0.78,2.548S313.757,16.545,313.107,17.208z M312.444,12.685c-0.299-0.3-0.715-0.469-1.17-0.469
		c-0.455,0-0.858,0.169-1.157,0.469c-0.468,0.468-0.52,1.261-0.52,1.976s0.052,1.508,0.52,1.977
		c0.299,0.299,0.702,0.468,1.157,0.468c0.455,0,0.871-0.169,1.17-0.468c0.468-0.469,0.507-1.262,0.507-1.977
		S312.912,13.153,312.444,12.685z"/>
	<path fill="#262625" d="M320.621,17.859V13.92c0-1.131-0.611-1.703-1.573-1.703s-1.586,0.585-1.586,1.703v3.939h-0.936v-6.396
		h0.936v0.702c0.455-0.52,1.079-0.78,1.794-0.78c0.689,0,1.248,0.208,1.638,0.599c0.455,0.441,0.663,1.04,0.663,1.781v4.095
		L320.621,17.859L320.621,17.859z"/>
	<path fill="#262625" d="M328.512,17.859v-0.715c-0.455,0.52-1.092,0.793-1.807,0.793c-0.689,0-1.261-0.208-1.651-0.598
		c-0.455-0.442-0.65-1.054-0.65-1.795v-4.082h0.936v3.939c0,1.131,0.598,1.703,1.56,1.703s1.599-0.585,1.599-1.703v-3.939h0.936
		v6.396h-0.923V17.859z"/>
	<path fill="#262625" d="M334.219,17.859c-1.092,0-1.638-0.767-1.638-1.716v-3.927h-0.806v-0.715h0.806V9.499h0.936v2.002h1.365
		v0.715h-1.365v3.9c0,0.585,0.273,0.937,0.871,0.937h0.494v0.806H334.219z"/>
	<path fill="#262625" d="M345.606,17.859V13.92c0-1.131-0.611-1.703-1.573-1.703c-0.936,0-1.599,0.585-1.599,1.6v4.043h-0.936
		v-3.939c0-1.131-0.611-1.703-1.573-1.703s-1.599,0.585-1.599,1.703v3.939h-0.936v-6.396h0.936v0.702
		c0.455-0.52,1.092-0.78,1.807-0.78c0.884,0,1.573,0.364,1.963,1.066c0.494-0.702,1.209-1.066,2.106-1.066
		c0.689,0,1.261,0.222,1.651,0.599c0.455,0.441,0.689,1.04,0.689,1.781v4.095h-0.936V17.859z"/>
	<path fill="#262625" d="M349.402,9.642V8.589h1.053v1.053H349.402z M349.454,17.859v-6.396h0.936v6.396H349.454z"/>
	<path fill="#262625" d="M354.992,17.859c-1.118,0-1.625-0.729-1.625-1.703V8.603h0.936v7.514c0,0.624,0.208,0.937,0.858,0.937
		h0.507v0.806h-0.676V17.859z"/>
	<path fill="#262625" d="M362.103,17.859l-2.028-3.276l-1.248,1.431v1.846h-0.936V8.603h0.936v6.188l2.886-3.328h1.17l-2.171,2.444
		l2.548,3.952C363.26,17.859,362.103,17.859,362.103,17.859z"/>
</g>
<path fill="none" stroke="#AE1821" stroke-width="0.75" stroke-miterlimit="10" d="M268.593,0c0,0-2.835,0-2.835,2.835V22.95
	c0,0,0,2.835,2.835,2.835h104.914c0,0,2.835,0,2.835-2.835V2.835c0,0,0-2.835-2.835-2.835H268.593z"/>
<g>
	<path fill="#BAA494" d="M395.31,43.068v-0.605c-0.363,0.463-0.804,0.683-1.475,0.683c-0.616,0-1.155-0.242-1.496-0.671
		c-0.374-0.463-0.484-1.023-0.484-2.024c0-0.969,0.11-1.562,0.451-2.014c0.319-0.429,0.88-0.682,1.519-0.682
		c0.638,0,1.1,0.23,1.474,0.692V37.59c0-0.583-0.109-0.925-0.429-1.255c-0.308-0.308-0.704-0.439-1.221-0.439h-1.431
		c-0.517,0-0.88,0.121-1.199,0.439c-0.33,0.33-0.44,0.649-0.44,1.255v3.707c0,0.693,0.121,0.957,0.628,1.331l-0.539,0.539
		c-0.672-0.495-0.858-0.88-0.858-1.858v-3.697c0-0.748,0.198-1.342,0.616-1.771c0.407-0.418,0.979-0.615,1.694-0.615h1.628
		c0.704,0,1.276,0.197,1.694,0.615c0.429,0.43,0.627,1.023,0.627,1.771v5.468L395.31,43.068z M393.967,38.436
		c-1.155,0-1.331,0.99-1.331,2.014c0,1.022,0.176,2.013,1.331,2.013s1.331-0.99,1.331-2.013
		C395.298,39.426,395.122,38.436,393.967,38.436z"/>
	<path fill="#BAA494" d="M399.753,43.068c-0.946,0-1.375-0.616-1.375-1.441v-6.392h0.792v6.358c0,0.528,0.176,0.793,0.726,0.793
		h0.43v0.682H399.753z"/>
	<path fill="#BAA494" d="M405.462,42.518c-0.374,0.374-0.891,0.616-1.551,0.616s-1.178-0.242-1.552-0.616
		c-0.55-0.562-0.66-1.32-0.66-2.156c0-0.837,0.11-1.596,0.66-2.156c0.374-0.374,0.892-0.616,1.552-0.616s1.177,0.242,1.551,0.616
		c0.55,0.561,0.66,1.319,0.66,2.156C406.122,41.197,406.012,41.956,405.462,42.518z M404.901,38.689
		c-0.254-0.253-0.605-0.396-0.99-0.396c-0.386,0-0.727,0.143-0.979,0.396c-0.396,0.396-0.44,1.067-0.44,1.673
		c0,0.604,0.044,1.275,0.44,1.672c0.253,0.253,0.594,0.396,0.979,0.396s0.736-0.144,0.99-0.396c0.396-0.396,0.429-1.067,0.429-1.672
		C405.33,39.756,405.297,39.085,404.901,38.689z"/>
	<path fill="#BAA494" d="M410.07,43.068h-0.704l-1.979-5.413h0.857L409.719,42l1.485-4.346h0.858L410.07,43.068z"/>
	<path fill="#BAA494" d="M414.107,40.57c0,1.188,0.562,1.87,1.596,1.87c0.627,0,0.99-0.188,1.419-0.616l0.539,0.473
		c-0.55,0.551-1.057,0.837-1.98,0.837c-1.43,0-2.365-0.858-2.365-2.772c0-1.75,0.847-2.772,2.223-2.772
		c1.396,0,2.222,1.012,2.222,2.618v0.363L414.107,40.57L414.107,40.57z M416.803,39.074c-0.209-0.495-0.693-0.814-1.265-0.814
		c-0.572,0-1.057,0.319-1.266,0.814c-0.121,0.297-0.143,0.462-0.165,0.901h2.86C416.946,39.536,416.924,39.371,416.803,39.074z"/>
	<path fill="#BAA494" d="M426.935,43.068v-3.333c0-0.958-0.518-1.441-1.332-1.441c-0.792,0-1.353,0.495-1.353,1.353v3.422h-0.792
		v-3.333c0-0.958-0.518-1.441-1.332-1.441c-0.813,0-1.353,0.495-1.353,1.441v3.333h-0.792v-5.413h0.792v0.595
		c0.385-0.44,0.924-0.66,1.529-0.66c0.748,0,1.331,0.308,1.661,0.902c0.418-0.595,1.023-0.902,1.782-0.902
		c0.583,0,1.067,0.187,1.397,0.506c0.385,0.374,0.583,0.88,0.583,1.507v3.466h-0.79L426.935,43.068L426.935,43.068z"/>
	<path fill="#BAA494" d="M431.543,44.377c-0.11,0.297-0.231,0.495-0.386,0.638c-0.286,0.275-0.671,0.374-1.056,0.374h-0.341v-0.704
		h0.241c0.551,0,0.716-0.176,0.892-0.671l0.385-1.057l-1.947-5.303h0.858L431.675,42l1.474-4.346h0.858L431.543,44.377z"/>
	<path fill="#BAA494" d="M437.372,43.134c-0.913,0-1.628-0.209-2.222-0.781l0.527-0.528c0.43,0.451,1.013,0.627,1.684,0.627
		c0.892,0,1.441-0.319,1.441-0.957c0-0.473-0.275-0.737-0.902-0.792l-0.891-0.077c-1.057-0.088-1.617-0.562-1.617-1.452
		c0-0.99,0.836-1.584,1.991-1.584c0.77,0,1.463,0.187,1.947,0.583l-0.518,0.517c-0.385-0.297-0.88-0.429-1.441-0.429
		c-0.792,0-1.21,0.341-1.21,0.891c0,0.463,0.264,0.737,0.946,0.793l0.869,0.076c0.946,0.089,1.595,0.451,1.595,1.464
		C439.572,42.528,438.682,43.134,437.372,43.134z"/>
	<path fill="#BAA494" d="M441.629,36.114v-0.891h0.892v0.891H441.629z M441.673,43.068v-5.413h0.792v5.413H441.673z"/>
	<path fill="#BAA494" d="M446.359,43.068c-0.946,0-1.375-0.616-1.375-1.441v-6.392h0.792v6.358c0,0.528,0.176,0.793,0.726,0.793
		h0.43v0.682H446.359z"/>
	<path fill="#BAA494" d="M452.376,43.068l-1.716-2.772l-1.057,1.21v1.562h-0.792v-7.833h0.792v5.236l2.442-2.816h0.99l-1.837,2.068
		l2.156,3.345H452.376z"/>
</g>
<g>
	<path fill="#BAA494" d="M518.344,43.068v-0.605c-0.362,0.463-0.803,0.683-1.474,0.683c-0.616,0-1.155-0.242-1.496-0.671
		c-0.374-0.463-0.484-1.023-0.484-2.024c0-0.969,0.11-1.562,0.451-2.014c0.319-0.429,0.88-0.682,1.519-0.682
		c0.638,0,1.1,0.23,1.474,0.692V37.59c0-0.583-0.109-0.925-0.429-1.255c-0.309-0.308-0.704-0.439-1.221-0.439h-1.431
		c-0.517,0-0.88,0.121-1.199,0.439c-0.33,0.33-0.44,0.649-0.44,1.255v3.707c0,0.693,0.121,0.957,0.628,1.331l-0.539,0.539
		c-0.672-0.495-0.858-0.88-0.858-1.858v-3.697c0-0.748,0.198-1.342,0.616-1.771c0.407-0.418,0.979-0.615,1.694-0.615h1.628
		c0.704,0,1.276,0.197,1.694,0.615c0.429,0.43,0.627,1.023,0.627,1.771v5.468L518.344,43.068z M517.002,38.436
		c-1.155,0-1.331,0.99-1.331,2.014c0,1.022,0.176,2.013,1.331,2.013s1.331-0.99,1.331-2.013
		C518.333,39.426,518.157,38.436,517.002,38.436z"/>
	<path fill="#BAA494" d="M523.14,43.134c-0.913,0-1.628-0.209-2.223-0.781l0.528-0.528c0.43,0.451,1.013,0.627,1.684,0.627
		c0.891,0,1.441-0.319,1.441-0.957c0-0.473-0.275-0.737-0.902-0.792l-0.892-0.077c-1.056-0.088-1.617-0.562-1.617-1.452
		c0-0.99,0.836-1.584,1.991-1.584c0.771,0,1.464,0.187,1.947,0.583l-0.517,0.517c-0.385-0.297-0.88-0.429-1.441-0.429
		c-0.792,0-1.21,0.341-1.21,0.891c0,0.463,0.264,0.737,0.946,0.793l0.869,0.076c0.946,0.089,1.595,0.451,1.595,1.464
		C525.34,42.528,524.449,43.134,523.14,43.134z"/>
	<path fill="#BAA494" d="M530.917,42.518c-0.374,0.374-0.892,0.616-1.552,0.616s-1.177-0.242-1.551-0.616
		c-0.55-0.562-0.66-1.32-0.66-2.156c0-0.837,0.11-1.596,0.66-2.156c0.374-0.374,0.891-0.616,1.551-0.616s1.178,0.242,1.552,0.616
		c0.55,0.561,0.66,1.319,0.66,2.156C531.577,41.197,531.467,41.956,530.917,42.518z M530.355,38.689
		c-0.253-0.253-0.604-0.396-0.99-0.396c-0.385,0-0.726,0.143-0.979,0.396c-0.396,0.396-0.44,1.067-0.44,1.673
		c0,0.604,0.044,1.275,0.44,1.672c0.253,0.253,0.594,0.396,0.979,0.396c0.386,0,0.737-0.144,0.99-0.396
		c0.396-0.396,0.43-1.067,0.43-1.672C530.785,39.756,530.752,39.085,530.355,38.689z"/>
	<path fill="#BAA494" d="M532.83,44.883v-0.562h5.908v0.562H532.83z"/>
	<path fill="#BAA494" d="M543.512,43.068v-0.649c-0.44,0.572-0.946,0.716-1.54,0.716c-0.55,0-1.034-0.188-1.32-0.474
		c-0.55-0.55-0.66-1.452-0.66-2.299c0-0.848,0.11-1.75,0.66-2.3c0.286-0.286,0.771-0.473,1.32-0.473
		c0.594,0,1.089,0.132,1.529,0.692v-3.047h0.792v7.833L543.512,43.068L543.512,43.068z M542.147,38.293
		c-1.177,0-1.364,1.012-1.364,2.068s0.188,2.068,1.364,2.068s1.354-1.013,1.354-2.068C543.501,39.305,543.324,38.293,542.147,38.293
		z"/>
	<path fill="#BAA494" d="M547.317,40.57c0,1.188,0.561,1.87,1.595,1.87c0.628,0,0.99-0.188,1.42-0.616l0.539,0.473
		c-0.551,0.551-1.057,0.837-1.98,0.837c-1.431,0-2.365-0.858-2.365-2.772c0-1.75,0.847-2.772,2.222-2.772
		c1.397,0,2.223,1.012,2.223,2.618v0.363L547.317,40.57L547.317,40.57z M550.013,39.074c-0.209-0.495-0.693-0.814-1.266-0.814
		c-0.571,0-1.056,0.319-1.265,0.814c-0.121,0.297-0.144,0.462-0.165,0.901h2.86C550.155,39.536,550.134,39.371,550.013,39.074z"/>
	<path fill="#BAA494" d="M554.545,43.068c-0.946,0-1.376-0.616-1.376-1.441v-6.392h0.793v6.358c0,0.528,0.176,0.793,0.726,0.793
		h0.429v0.682H554.545z"/>
	<path fill="#BAA494" d="M556.953,36.114v-0.891h0.891v0.891H556.953z M556.997,43.068v-5.413h0.792v5.413H556.997z"/>
	<path fill="#BAA494" d="M562.432,43.134c-1.364,0-2.398-0.925-2.398-2.772c0-1.849,1.034-2.772,2.398-2.772
		c0.748,0,1.221,0.197,1.782,0.803l-0.539,0.506c-0.407-0.451-0.727-0.604-1.243-0.604c-0.528,0-0.969,0.209-1.255,0.616
		c-0.253,0.352-0.352,0.77-0.352,1.452s0.099,1.1,0.352,1.452c0.286,0.407,0.727,0.616,1.255,0.616c0.517,0,0.836-0.165,1.243-0.616
		l0.539,0.517C563.652,42.936,563.18,43.134,562.432,43.134z"/>
	<path fill="#BAA494" d="M566.226,36.114v-0.891h0.891v0.891H566.226z M566.27,43.068v-5.413h0.792v5.413H566.27z"/>
	<path fill="#BAA494" d="M573.079,42.518c-0.374,0.374-0.892,0.616-1.552,0.616s-1.177-0.242-1.551-0.616
		c-0.55-0.562-0.66-1.32-0.66-2.156c0-0.837,0.11-1.596,0.66-2.156c0.374-0.374,0.891-0.616,1.551-0.616s1.178,0.242,1.552,0.616
		c0.55,0.561,0.66,1.319,0.66,2.156C573.739,41.197,573.629,41.956,573.079,42.518z M572.518,38.689
		c-0.253-0.253-0.604-0.396-0.99-0.396c-0.385,0-0.726,0.143-0.979,0.396c-0.396,0.396-0.44,1.067-0.44,1.673
		c0,0.604,0.044,1.275,0.44,1.672c0.253,0.253,0.594,0.396,0.979,0.396c0.386,0,0.737-0.144,0.99-0.396
		c0.396-0.396,0.43-1.067,0.43-1.672C572.947,39.756,572.914,39.085,572.518,38.689z"/>
	<path fill="#BAA494" d="M579.404,43.068v-0.605c-0.386,0.44-0.925,0.672-1.529,0.672c-0.583,0-1.067-0.177-1.397-0.507
		c-0.385-0.374-0.55-0.891-0.55-1.518v-3.455h0.792v3.334c0,0.957,0.506,1.441,1.32,1.441c0.813,0,1.353-0.495,1.353-1.441v-3.334
		h0.792v5.413H579.404z"/>
	<path fill="#BAA494" d="M584.42,43.134c-0.913,0-1.628-0.209-2.223-0.781l0.528-0.528c0.43,0.451,1.013,0.627,1.684,0.627
		c0.891,0,1.441-0.319,1.441-0.957c0-0.473-0.275-0.737-0.902-0.792l-0.892-0.077c-1.056-0.088-1.617-0.562-1.617-1.452
		c0-0.99,0.836-1.584,1.991-1.584c0.771,0,1.464,0.187,1.947,0.583l-0.517,0.517c-0.385-0.297-0.88-0.429-1.441-0.429
		c-0.792,0-1.21,0.341-1.21,0.891c0,0.463,0.264,0.737,0.946,0.793l0.869,0.076c0.946,0.089,1.595,0.451,1.595,1.464
		C586.62,42.528,585.729,43.134,584.42,43.134z"/>
</g>
<g opacity="0.75">
	<g>
		<g>
			<g>
				<defs>
					<rect id="SVGID_1_" x="434.653" y="41.738" width="18.75" height="19.339"/>
				</defs>
				<clipPath id="SVGID_2_">
					<use xlink:href="#SVGID_1_"  overflow="visible"/>
				</clipPath>
				
					<line clip-path="url(#SVGID_2_)" fill="none" stroke="#BAA494" stroke-width="0.75" x1="444.028" y1="48.738" x2="444.028" y2="60.077"/>
			</g>
		</g>
	</g>
</g>
<g opacity="0.75">
	<g>
		<g>
			<g>
				<defs>
					<rect id="SVGID_3_" x="188.351" y="41.738" width="18.75" height="19.339"/>
				</defs>
				<clipPath id="SVGID_4_">
					<use xlink:href="#SVGID_3_"  overflow="visible"/>
				</clipPath>
				
					<line clip-path="url(#SVGID_4_)" fill="none" stroke="#BAA494" stroke-width="0.75" x1="197.726" y1="48.738" x2="197.726" y2="60.077"/>
			</g>
		</g>
	</g>
</g>
<g opacity="0.75">
	<g>
		<g>
			<g>
				<defs>
					<rect id="SVGID_5_" x="557.967" y="41.738" width="18.75" height="19.339"/>
				</defs>
				<clipPath id="SVGID_6_">
					<use xlink:href="#SVGID_5_"  overflow="visible"/>
				</clipPath>
				
					<line clip-path="url(#SVGID_6_)" fill="none" stroke="#BAA494" stroke-width="0.75" x1="567.342" y1="48.738" x2="567.342" y2="60.077"/>
			</g>
		</g>
	</g>
</g>
<g opacity="0.75">
	<g>
		<g>
			<g>
				<defs>
					<rect id="SVGID_7_" x="311.665" y="41.738" width="18.75" height="19.339"/>
				</defs>
				<clipPath id="SVGID_8_">
					<use xlink:href="#SVGID_7_"  overflow="visible"/>
				</clipPath>
				
					<line clip-path="url(#SVGID_8_)" fill="none" stroke="#BAA494" stroke-width="0.75" x1="321.04" y1="48.738" x2="321.04" y2="60.077"/>
			</g>
		</g>
	</g>
</g>
<g opacity="0.75">
	<g>
		<g>
			<g>
				<defs>
					<rect id="SVGID_9_" x="433.903" y="74.347" width="18.75" height="19.339"/>
				</defs>
				<clipPath id="SVGID_10_">
					<use xlink:href="#SVGID_9_"  overflow="visible"/>
				</clipPath>
				
					<line clip-path="url(#SVGID_10_)" fill="none" stroke="#BAA494" stroke-width="0.75" x1="443.278" y1="81.347" x2="443.278" y2="92.686"/>
			</g>
		</g>
	</g>
</g>
<g opacity="0.75">
	<g>
		<g>
			<g>
				<defs>
					<rect id="SVGID_11_" x="187.601" y="74.347" width="18.75" height="19.339"/>
				</defs>
				<clipPath id="SVGID_12_">
					<use xlink:href="#SVGID_11_"  overflow="visible"/>
				</clipPath>
				
					<line clip-path="url(#SVGID_12_)" fill="none" stroke="#BAA494" stroke-width="0.75" x1="196.976" y1="81.347" x2="196.976" y2="92.686"/>
			</g>
		</g>
	</g>
</g>
<g opacity="0.75">
	<g>
		<g>
			<g>
				<defs>
					<rect id="SVGID_13_" x="557.967" y="74.347" width="18.75" height="19.339"/>
				</defs>
				<clipPath id="SVGID_14_">
					<use xlink:href="#SVGID_13_"  overflow="visible"/>
				</clipPath>
				
					<line clip-path="url(#SVGID_14_)" fill="none" stroke="#BAA494" stroke-width="0.75" x1="567.342" y1="81.347" x2="567.342" y2="92.686"/>
			</g>
		</g>
	</g>
</g>
<g opacity="0.75">
	<g>
		<g>
			<g>
				<defs>
					<rect id="SVGID_15_" x="311.665" y="74.347" width="18.75" height="19.339"/>
				</defs>
				<clipPath id="SVGID_16_">
					<use xlink:href="#SVGID_15_"  overflow="visible"/>
				</clipPath>
				
					<line clip-path="url(#SVGID_16_)" fill="none" stroke="#BAA494" stroke-width="0.75" x1="321.04" y1="81.347" x2="321.04" y2="92.686"/>
			</g>
		</g>
	</g>
</g>
<g opacity="0.75">
	<g>
		<g>
			<g>
				<defs>
					<rect id="SVGID_17_" x="373.717" y="217.388" width="18.75" height="19.339"/>
				</defs>
				<clipPath id="SVGID_18_">
					<use xlink:href="#SVGID_17_"  overflow="visible"/>
				</clipPath>
				
					<line clip-path="url(#SVGID_18_)" fill="none" stroke="#BAA494" stroke-width="0.75" x1="383.092" y1="224.388" x2="383.092" y2="235.727"/>
			</g>
		</g>
	</g>
</g>
<g>
	<path fill="#262625" d="M436.178,75.678v-8.216l-1.729,1.521v-1.066l1.729-1.495h0.937v9.257L436.178,75.678L436.178,75.678z"/>
	<path fill="#262625" d="M443.653,75.756c-1.443,0-2.535-1.015-2.535-2.548v-4.316c0-1.534,1.092-2.548,2.535-2.548
		c1.442,0,2.535,1.014,2.535,2.548v4.316C446.188,74.741,445.096,75.756,443.653,75.756z M445.252,68.944
		c0-1.014-0.572-1.768-1.599-1.768s-1.6,0.754-1.6,1.768v4.212c0,1.015,0.572,1.769,1.6,1.769c1.026,0,1.599-0.754,1.599-1.769
		V68.944z"/>
	<path fill="#262625" d="M451.089,75.756c-1.443,0-2.535-1.015-2.535-2.548v-4.316c0-1.534,1.092-2.548,2.535-2.548
		c1.442,0,2.535,1.014,2.535,2.548v4.316C453.624,74.741,452.531,75.756,451.089,75.756z M452.688,68.944
		c0-1.014-0.572-1.768-1.599-1.768s-1.6,0.754-1.6,1.768v4.212c0,1.015,0.572,1.769,1.6,1.769c1.026,0,1.599-0.754,1.599-1.769
		V68.944z"/>
</g>
<g>
	<path fill="#262625" d="M189.88,75.678v-8.216l-1.729,1.521v-1.066l1.729-1.495h0.936v9.257L189.88,75.678L189.88,75.678z"/>
	<path fill="#262625" d="M197.355,75.756c-1.443,0-2.535-1.015-2.535-2.548v-4.316c0-1.534,1.092-2.548,2.535-2.548
		s2.535,1.014,2.535,2.548v4.316C199.89,74.741,198.798,75.756,197.355,75.756z M198.954,68.944c0-1.014-0.572-1.768-1.599-1.768
		s-1.599,0.754-1.599,1.768v4.212c0,1.015,0.572,1.769,1.599,1.769s1.599-0.754,1.599-1.769V68.944z"/>
	<path fill="#262625" d="M204.791,75.756c-1.443,0-2.535-1.015-2.535-2.548v-4.316c0-1.534,1.092-2.548,2.535-2.548
		s2.535,1.014,2.535,2.548v4.316C207.326,74.741,206.233,75.756,204.791,75.756z M206.39,68.944c0-1.014-0.572-1.768-1.599-1.768
		s-1.599,0.754-1.599,1.768v4.212c0,1.015,0.572,1.769,1.599,1.769s1.599-0.754,1.599-1.769V68.944z"/>
</g>
<g>
	<path fill="#262625" d="M560.25,75.678v-8.216l-1.729,1.521v-1.066l1.729-1.495h0.936v9.257L560.25,75.678L560.25,75.678z"/>
	<path fill="#262625" d="M567.725,75.756c-1.443,0-2.535-1.015-2.535-2.548v-4.316c0-1.534,1.092-2.548,2.535-2.548
		c1.442,0,2.534,1.014,2.534,2.548v4.316C570.259,74.741,569.167,75.756,567.725,75.756z M569.323,68.944
		c0-1.014-0.572-1.768-1.599-1.768s-1.6,0.754-1.6,1.768v4.212c0,1.015,0.572,1.769,1.6,1.769c1.026,0,1.599-0.754,1.599-1.769
		V68.944z"/>
	<path fill="#262625" d="M575.161,75.756c-1.443,0-2.535-1.015-2.535-2.548v-4.316c0-1.534,1.092-2.548,2.535-2.548
		c1.442,0,2.535,1.014,2.535,2.548v4.316C577.696,74.741,576.604,75.756,575.161,75.756z M576.76,68.944
		c0-1.014-0.572-1.768-1.599-1.768s-1.6,0.754-1.6,1.768v4.212c0,1.015,0.572,1.769,1.6,1.769c1.026,0,1.599-0.754,1.599-1.769
		V68.944z"/>
</g>
<g>
	<path fill="#262625" d="M313.952,75.678v-8.216l-1.729,1.521v-1.066l1.729-1.495h0.936v9.257L313.952,75.678L313.952,75.678z"/>
	<path fill="#262625" d="M321.427,75.756c-1.443,0-2.535-1.015-2.535-2.548v-4.316c0-1.534,1.092-2.548,2.535-2.548
		s2.535,1.014,2.535,2.548v4.316C323.962,74.741,322.87,75.756,321.427,75.756z M323.026,68.944c0-1.014-0.572-1.768-1.599-1.768
		s-1.599,0.754-1.599,1.768v4.212c0,1.015,0.572,1.769,1.599,1.769s1.599-0.754,1.599-1.769V68.944z"/>
	<path fill="#262625" d="M328.862,75.756c-1.443,0-2.535-1.015-2.535-2.548v-4.316c0-1.534,1.092-2.548,2.535-2.548
		s2.535,1.014,2.535,2.548v4.316C331.397,74.741,330.306,75.756,328.862,75.756z M330.461,68.944c0-1.014-0.572-1.768-1.599-1.768
		s-1.599,0.754-1.599,1.768v4.212c0,1.015,0.572,1.769,1.599,1.769s1.599-0.754,1.599-1.769V68.944z"/>
</g>
<g>
	<path fill="#262625" d="M198.07,116.641c-0.91,0-1.742-0.338-2.366-0.962c-0.871-0.871-0.871-1.781-0.871-3.744
		s0-2.873,0.871-3.744c0.624-0.624,1.456-0.962,2.366-0.962c1.664,0,2.899,1.014,3.211,2.756h-1.014
		c-0.247-1.131-1.04-1.872-2.197-1.872c-0.611,0-1.196,0.234-1.599,0.65c-0.585,0.598-0.65,1.234-0.65,3.172
		c0,1.937,0.065,2.574,0.65,3.172c0.403,0.416,0.988,0.65,1.599,0.65c1.157,0,1.976-0.741,2.223-1.872h0.988
		C200.982,115.626,199.721,116.641,198.07,116.641z"/>
	<path fill="#262625" d="M207.573,116.563v-0.611c-0.52,0.521-0.988,0.689-1.846,0.689c-0.884,0-1.404-0.169-1.807-0.585
		c-0.312-0.312-0.481-0.793-0.481-1.3c0-1.118,0.78-1.847,2.21-1.847h1.924v-0.611c0-0.936-0.468-1.403-1.638-1.403
		c-0.819,0-1.235,0.194-1.612,0.728l-0.637-0.585c0.572-0.741,1.222-0.949,2.262-0.949c1.716,0,2.561,0.741,2.561,2.133v4.342
		h-0.936V116.563z M207.573,113.611h-1.794c-0.962,0-1.43,0.39-1.43,1.131s0.455,1.093,1.469,1.093c0.546,0,1.027-0.039,1.43-0.43
		c0.221-0.208,0.325-0.572,0.325-1.104L207.573,113.611L207.573,113.611z"/>
	<path fill="#262625" d="M213.228,116.563c-1.092,0-1.638-0.767-1.638-1.716v-3.927h-0.806v-0.715h0.806v-2.002h0.936v2.002h1.365
		v0.715h-1.365v3.9c0,0.585,0.273,0.937,0.871,0.937h0.494v0.806C213.891,116.563,213.228,116.563,213.228,116.563z"/>
	<path fill="#262625" d="M216.88,113.611c0,1.404,0.663,2.21,1.885,2.21c0.741,0,1.17-0.221,1.677-0.728l0.637,0.559
		c-0.65,0.65-1.248,0.988-2.34,0.988c-1.69,0-2.795-1.015-2.795-3.276c0-2.067,1.001-3.276,2.626-3.276
		c1.651,0,2.626,1.196,2.626,3.095v0.429L216.88,113.611L216.88,113.611z M220.065,111.844c-0.247-0.585-0.819-0.963-1.495-0.963
		s-1.248,0.378-1.495,0.963c-0.143,0.351-0.169,0.546-0.195,1.065h3.38C220.235,112.39,220.208,112.195,220.065,111.844z"/>
	<path fill="#262625" d="M225.889,119.501c-0.962,0-1.495-0.247-2.171-0.858l0.611-0.598c0.468,0.416,0.793,0.637,1.534,0.637
		c1.235,0,1.755-0.871,1.755-1.963v-1.001c-0.52,0.663-1.105,0.832-1.794,0.832c-0.65,0-1.209-0.234-1.547-0.572
		c-0.637-0.637-0.78-1.625-0.78-2.665s0.143-2.028,0.78-2.665c0.338-0.338,0.91-0.56,1.56-0.56c0.702,0,1.274,0.156,1.794,0.832
		v-0.754h0.923v6.592C228.554,118.344,227.566,119.501,225.889,119.501z M226.032,110.92c-1.391,0-1.599,1.196-1.599,2.393
		s0.208,2.392,1.599,2.392s1.586-1.195,1.586-2.392S227.423,110.92,226.032,110.92z"/>
	<path fill="#262625" d="M235.652,115.912c-0.442,0.442-1.053,0.729-1.833,0.729s-1.391-0.286-1.833-0.729
		c-0.65-0.663-0.78-1.56-0.78-2.548s0.13-1.885,0.78-2.548c0.442-0.442,1.053-0.729,1.833-0.729s1.391,0.286,1.833,0.729
		c0.65,0.663,0.78,1.56,0.78,2.548S236.302,115.249,235.652,115.912z M234.989,111.389c-0.299-0.3-0.715-0.469-1.17-0.469
		s-0.858,0.169-1.157,0.469c-0.468,0.468-0.52,1.261-0.52,1.976s0.052,1.508,0.52,1.977c0.299,0.299,0.702,0.468,1.157,0.468
		s0.871-0.169,1.17-0.468c0.468-0.469,0.507-1.262,0.507-1.977S235.457,111.857,234.989,111.389z"/>
	<path fill="#262625" d="M242.646,111.389c-0.351-0.352-0.611-0.469-1.105-0.469c-0.936,0-1.534,0.741-1.534,1.717v3.926h-0.936
		v-6.396h0.936v0.78c0.351-0.533,1.053-0.858,1.794-0.858c0.611,0,1.079,0.144,1.534,0.599L242.646,111.389z"/>
	<path fill="#262625" d="M245.142,108.347v-1.054h1.053v1.054H245.142z M245.194,116.563v-6.396h0.936v6.396H245.194z"/>
	<path fill="#262625" d="M248.613,116.563v-0.806l3.562-4.759h-3.367v-0.832h4.446v0.793l-3.575,4.771h3.575v0.832h-4.641
		L248.613,116.563L248.613,116.563z"/>
	<path fill="#262625" d="M256.335,113.611c0,1.404,0.663,2.21,1.885,2.21c0.741,0,1.17-0.221,1.677-0.728l0.637,0.559
		c-0.65,0.65-1.248,0.988-2.34,0.988c-1.69,0-2.795-1.015-2.795-3.276c0-2.067,1.001-3.276,2.626-3.276
		c1.651,0,2.626,1.196,2.626,3.095v0.429L256.335,113.611L256.335,113.611z M259.521,111.844c-0.247-0.585-0.819-0.963-1.495-0.963
		s-1.248,0.378-1.495,0.963c-0.143,0.351-0.169,0.546-0.195,1.065h3.38C259.689,112.39,259.663,112.195,259.521,111.844z"/>
	<path fill="#262625" d="M272.715,116.563v-4.226h-4.394v4.226h-0.988v-9.257h0.988v4.147h4.394v-4.147h0.988v9.257H272.715z"/>
	<path fill="#262625" d="M280.476,116.563v-0.611c-0.52,0.521-0.988,0.689-1.846,0.689c-0.884,0-1.404-0.169-1.807-0.585
		c-0.312-0.312-0.481-0.793-0.481-1.3c0-1.118,0.78-1.847,2.21-1.847h1.924v-0.611c0-0.936-0.468-1.403-1.638-1.403
		c-0.819,0-1.235,0.194-1.612,0.728l-0.637-0.585c0.572-0.741,1.222-0.949,2.262-0.949c1.716,0,2.562,0.741,2.562,2.133v4.342
		h-0.937V116.563z M280.476,113.611h-1.794c-0.962,0-1.43,0.39-1.43,1.131s0.455,1.093,1.469,1.093c0.546,0,1.027-0.039,1.43-0.43
		c0.221-0.208,0.325-0.572,0.325-1.104V113.611z"/>
	<path fill="#262625" d="M286.352,116.641c-1.079,0-1.924-0.247-2.626-0.923l0.624-0.624c0.507,0.532,1.196,0.741,1.989,0.741
		c1.053,0,1.703-0.378,1.703-1.132c0-0.559-0.325-0.871-1.066-0.936l-1.053-0.091c-1.248-0.104-1.911-0.663-1.911-1.717
		c0-1.17,0.988-1.872,2.353-1.872c0.91,0,1.729,0.222,2.301,0.689l-0.611,0.611c-0.455-0.352-1.04-0.508-1.703-0.508
		c-0.936,0-1.43,0.403-1.43,1.054c0,0.546,0.312,0.871,1.118,0.936l1.027,0.091c1.118,0.104,1.885,0.533,1.885,1.729
		C288.952,115.926,287.898,116.641,286.352,116.641z"/>
	<path fill="#262625" d="M295.53,116.563v-3.952c0-1.118-0.598-1.69-1.56-1.69s-1.599,0.585-1.599,1.69v3.952h-0.936v-9.257h0.936
		v3.562c0.468-0.533,1.079-0.78,1.794-0.78c1.443,0,2.301,0.924,2.301,2.366v4.108h-0.936V116.563z"/>
	<path fill="#262625" d="M301.172,116.563c-1.092,0-1.638-0.767-1.638-1.716v-3.927h-0.806v-0.715h0.806v-2.002h0.936v2.002h1.365
		v0.715h-1.365v3.9c0,0.585,0.273,0.937,0.871,0.937h0.494v0.806C301.835,116.563,301.172,116.563,301.172,116.563z"/>
	<path fill="#262625" d="M307.867,116.563v-0.611c-0.52,0.521-0.988,0.689-1.846,0.689c-0.884,0-1.404-0.169-1.807-0.585
		c-0.312-0.312-0.481-0.793-0.481-1.3c0-1.118,0.78-1.847,2.21-1.847h1.924v-0.611c0-0.936-0.468-1.403-1.638-1.403
		c-0.819,0-1.235,0.194-1.612,0.728l-0.637-0.585c0.572-0.741,1.222-0.949,2.262-0.949c1.716,0,2.562,0.741,2.562,2.133v4.342
		h-0.937V116.563z M307.867,113.611h-1.794c-0.962,0-1.43,0.39-1.43,1.131s0.455,1.093,1.469,1.093c0.546,0,1.027-0.039,1.43-0.43
		c0.221-0.208,0.325-0.572,0.325-1.104V113.611z"/>
	<path fill="#262625" d="M313.781,119.501c-0.962,0-1.495-0.247-2.171-0.858l0.611-0.598c0.468,0.416,0.793,0.637,1.534,0.637
		c1.235,0,1.755-0.871,1.755-1.963v-1.001c-0.52,0.663-1.105,0.832-1.794,0.832c-0.65,0-1.209-0.234-1.547-0.572
		c-0.637-0.637-0.78-1.625-0.78-2.665s0.143-2.028,0.78-2.665c0.338-0.338,0.91-0.56,1.561-0.56c0.702,0,1.274,0.156,1.794,0.832
		v-0.754h0.923v6.592C316.446,118.344,315.458,119.501,313.781,119.501z M313.924,110.92c-1.391,0-1.599,1.196-1.599,2.393
		s0.208,2.392,1.599,2.392s1.586-1.195,1.586-2.392S315.315,110.92,313.924,110.92z"/>
	<path fill="#262625" d="M321.438,116.641c-1.079,0-1.924-0.247-2.626-0.923l0.624-0.624c0.507,0.532,1.196,0.741,1.989,0.741
		c1.053,0,1.703-0.378,1.703-1.132c0-0.559-0.325-0.871-1.066-0.936l-1.053-0.091c-1.248-0.104-1.911-0.663-1.911-1.717
		c0-1.17,0.988-1.872,2.353-1.872c0.91,0,1.729,0.222,2.301,0.689l-0.611,0.611c-0.455-0.352-1.04-0.508-1.703-0.508
		c-0.936,0-1.43,0.403-1.43,1.054c0,0.546,0.312,0.871,1.118,0.936l1.027,0.091c1.118,0.104,1.885,0.533,1.885,1.729
		C324.038,115.926,322.985,116.641,321.438,116.641z"/>
</g>
<path fill="none" stroke="#AE1821" stroke-width="0.75" stroke-miterlimit="10" d="M145.26,98.731c0,0-2.835,0-2.835,2.835v20.073
	c0,0,0,2.835,2.835,2.835h228.247c0,0,2.835,0,2.835-2.835v-20.073c0,0,0-2.835-2.835-2.835H145.26z"/>
<g>
	<path fill="#262625" d="M444.731,116.646c-0.91,0-1.742-0.338-2.366-0.962c-0.871-0.871-0.871-1.781-0.871-3.744
		s0-2.873,0.871-3.744c0.624-0.624,1.456-0.962,2.366-0.962c1.664,0,2.898,1.014,3.211,2.756h-1.014
		c-0.247-1.131-1.04-1.872-2.197-1.872c-0.611,0-1.196,0.233-1.6,0.649c-0.585,0.599-0.649,1.235-0.649,3.173
		c0,1.937,0.064,2.574,0.649,3.172c0.403,0.416,0.988,0.65,1.6,0.65c1.157,0,1.976-0.741,2.223-1.872h0.988
		C447.644,115.632,446.382,116.646,444.731,116.646z"/>
	<path fill="#262625" d="M454.222,116.568v-0.611c-0.521,0.521-0.988,0.689-1.847,0.689c-0.884,0-1.404-0.169-1.807-0.585
		c-0.312-0.312-0.481-0.793-0.481-1.3c0-1.118,0.78-1.847,2.21-1.847h1.925v-0.61c0-0.937-0.469-1.404-1.639-1.404
		c-0.819,0-1.235,0.194-1.612,0.728l-0.637-0.585c0.572-0.741,1.222-0.949,2.262-0.949c1.717,0,2.562,0.741,2.562,2.133v4.342
		h-0.936V116.568z M454.222,113.616h-1.795c-0.962,0-1.43,0.39-1.43,1.131s0.455,1.092,1.469,1.092c0.546,0,1.027-0.038,1.431-0.429
		c0.221-0.208,0.325-0.572,0.325-1.104V113.616z"/>
	<path fill="#262625" d="M459.876,116.568c-1.092,0-1.638-0.767-1.638-1.716v-3.927h-0.807v-0.715h0.807v-2.002h0.936v2.002h1.365
		v0.715h-1.365v3.9c0,0.585,0.273,0.937,0.871,0.937h0.494v0.806C460.539,116.568,459.876,116.568,459.876,116.568z"/>
	<path fill="#262625" d="M463.528,113.616c0,1.404,0.663,2.21,1.886,2.21c0.741,0,1.17-0.221,1.677-0.728l0.637,0.559
		c-0.649,0.65-1.248,0.988-2.34,0.988c-1.69,0-2.795-1.014-2.795-3.276c0-2.067,1.001-3.276,2.626-3.276
		c1.651,0,2.626,1.196,2.626,3.095v0.429L463.528,113.616L463.528,113.616z M466.714,111.849c-0.247-0.586-0.819-0.963-1.495-0.963
		s-1.248,0.377-1.495,0.963c-0.143,0.351-0.169,0.546-0.195,1.065h3.381C466.883,112.395,466.856,112.199,466.714,111.849z"/>
	<path fill="#262625" d="M472.524,119.506c-0.962,0-1.495-0.247-2.171-0.858l0.611-0.598c0.468,0.416,0.793,0.637,1.534,0.637
		c1.234,0,1.755-0.871,1.755-1.963v-1.001c-0.521,0.663-1.105,0.832-1.794,0.832c-0.65,0-1.209-0.234-1.548-0.572
		c-0.637-0.637-0.779-1.625-0.779-2.665s0.143-2.028,0.779-2.665c0.339-0.338,0.91-0.56,1.561-0.56c0.702,0,1.274,0.156,1.794,0.832
		v-0.754h0.923v6.592C475.189,118.349,474.202,119.506,472.524,119.506z M472.668,110.925c-1.392,0-1.6,1.196-1.6,2.393
		s0.208,2.392,1.6,2.392c1.391,0,1.586-1.195,1.586-2.392S474.059,110.925,472.668,110.925z"/>
	<path fill="#262625" d="M482.275,115.917c-0.442,0.442-1.054,0.729-1.833,0.729c-0.78,0-1.392-0.286-1.834-0.729
		c-0.649-0.663-0.779-1.56-0.779-2.548s0.13-1.885,0.779-2.548c0.442-0.442,1.054-0.729,1.834-0.729
		c0.779,0,1.391,0.286,1.833,0.729c0.649,0.663,0.779,1.56,0.779,2.548S482.925,115.254,482.275,115.917z M481.612,111.394
		c-0.3-0.3-0.716-0.469-1.17-0.469c-0.455,0-0.858,0.169-1.157,0.469c-0.469,0.468-0.521,1.261-0.521,1.976s0.052,1.508,0.521,1.977
		c0.299,0.299,0.702,0.468,1.157,0.468c0.454,0,0.87-0.169,1.17-0.468c0.468-0.469,0.507-1.262,0.507-1.977
		S482.08,111.861,481.612,111.394z"/>
	<path fill="#262625" d="M489.269,111.394c-0.351-0.352-0.61-0.469-1.104-0.469c-0.937,0-1.534,0.741-1.534,1.717v3.926h-0.937
		v-6.396h0.937v0.78c0.351-0.533,1.053-0.858,1.794-0.858c0.611,0,1.079,0.144,1.534,0.599L489.269,111.394z"/>
	<path fill="#262625" d="M491.765,108.351v-1.053h1.053v1.053H491.765z M491.816,116.568v-6.396h0.936v6.396
		C492.752,116.568,491.816,116.568,491.816,116.568z"/>
	<path fill="#262625" d="M495.235,116.568v-0.806l3.562-4.759h-3.366v-0.832h4.445v0.793l-3.575,4.771h3.575v0.832L495.235,116.568
		L495.235,116.568z"/>
	<path fill="#262625" d="M502.957,113.616c0,1.404,0.663,2.21,1.886,2.21c0.741,0,1.17-0.221,1.677-0.728l0.637,0.559
		c-0.649,0.65-1.248,0.988-2.34,0.988c-1.69,0-2.795-1.014-2.795-3.276c0-2.067,1.001-3.276,2.626-3.276
		c1.651,0,2.626,1.196,2.626,3.095v0.429L502.957,113.616L502.957,113.616z M506.143,111.849c-0.247-0.586-0.819-0.963-1.495-0.963
		s-1.248,0.377-1.495,0.963c-0.143,0.351-0.169,0.546-0.195,1.065h3.381C506.312,112.395,506.285,112.199,506.143,111.849z"/>
	<path fill="#262625" d="M519.324,116.568v-4.226h-4.394v4.226h-0.988v-9.256h0.988v4.146h4.394v-4.146h0.988v9.256
		C520.312,116.568,519.324,116.568,519.324,116.568z"/>
	<path fill="#262625" d="M527.098,116.568v-0.611c-0.52,0.521-0.987,0.689-1.846,0.689c-0.884,0-1.404-0.169-1.808-0.585
		c-0.312-0.312-0.48-0.793-0.48-1.3c0-1.118,0.78-1.847,2.21-1.847h1.924v-0.61c0-0.937-0.468-1.404-1.638-1.404
		c-0.819,0-1.235,0.194-1.612,0.728l-0.637-0.585c0.572-0.741,1.222-0.949,2.262-0.949c1.716,0,2.562,0.741,2.562,2.133v4.342
		h-0.937L527.098,116.568L527.098,116.568z M527.098,113.616h-1.794c-0.962,0-1.43,0.39-1.43,1.131s0.455,1.092,1.469,1.092
		c0.546,0,1.027-0.038,1.43-0.429c0.222-0.208,0.325-0.572,0.325-1.104V113.616z"/>
	<path fill="#262625" d="M532.975,116.646c-1.079,0-1.925-0.247-2.627-0.923l0.624-0.624c0.508,0.533,1.196,0.74,1.989,0.74
		c1.054,0,1.703-0.377,1.703-1.131c0-0.559-0.325-0.871-1.065-0.936l-1.054-0.091c-1.248-0.104-1.911-0.663-1.911-1.717
		c0-1.17,0.988-1.872,2.354-1.872c0.91,0,1.729,0.222,2.301,0.689l-0.611,0.611c-0.454-0.352-1.039-0.508-1.702-0.508
		c-0.937,0-1.431,0.403-1.431,1.054c0,0.546,0.312,0.871,1.118,0.936l1.027,0.091c1.118,0.104,1.885,0.533,1.885,1.729
		C535.574,115.931,534.521,116.646,532.975,116.646z"/>
	<path fill="#262625" d="M542.152,116.568v-3.952c0-1.118-0.599-1.69-1.561-1.69s-1.599,0.585-1.599,1.69v3.952h-0.937v-9.256h0.937
		v3.562c0.468-0.533,1.079-0.78,1.794-0.78c1.442,0,2.301,0.924,2.301,2.366v4.108H542.152z"/>
	<path fill="#262625" d="M547.793,116.568c-1.092,0-1.638-0.767-1.638-1.716v-3.927h-0.807v-0.715h0.807v-2.002h0.936v2.002h1.365
		v0.715h-1.365v3.9c0,0.585,0.273,0.937,0.871,0.937h0.494v0.806C548.456,116.568,547.793,116.568,547.793,116.568z"/>
	<path fill="#262625" d="M554.488,116.568v-0.611c-0.52,0.521-0.987,0.689-1.846,0.689c-0.884,0-1.404-0.169-1.808-0.585
		c-0.312-0.312-0.48-0.793-0.48-1.3c0-1.118,0.78-1.847,2.21-1.847h1.924v-0.61c0-0.937-0.468-1.404-1.638-1.404
		c-0.819,0-1.235,0.194-1.612,0.728l-0.637-0.585c0.572-0.741,1.222-0.949,2.262-0.949c1.716,0,2.562,0.741,2.562,2.133v4.342
		h-0.937L554.488,116.568L554.488,116.568z M554.488,113.616h-1.794c-0.962,0-1.43,0.39-1.43,1.131s0.455,1.092,1.469,1.092
		c0.546,0,1.027-0.038,1.43-0.429c0.222-0.208,0.325-0.572,0.325-1.104V113.616z"/>
	<path fill="#262625" d="M560.403,119.506c-0.962,0-1.494-0.247-2.171-0.858l0.611-0.598c0.468,0.416,0.793,0.637,1.534,0.637
		c1.235,0,1.755-0.871,1.755-1.963v-1.001c-0.52,0.663-1.104,0.832-1.794,0.832c-0.65,0-1.209-0.234-1.547-0.572
		c-0.638-0.637-0.78-1.625-0.78-2.665s0.143-2.028,0.78-2.665c0.338-0.338,0.91-0.56,1.56-0.56c0.702,0,1.274,0.156,1.794,0.832
		v-0.754h0.924v6.592C563.069,118.349,562.081,119.506,560.403,119.506z M560.547,110.925c-1.392,0-1.599,1.196-1.599,2.393
		s0.207,2.392,1.599,2.392c1.391,0,1.586-1.195,1.586-2.392S561.938,110.925,560.547,110.925z"/>
	<path fill="#262625" d="M568.061,116.646c-1.079,0-1.925-0.247-2.627-0.923l0.624-0.624c0.508,0.533,1.196,0.74,1.989,0.74
		c1.054,0,1.703-0.377,1.703-1.131c0-0.559-0.325-0.871-1.065-0.936l-1.054-0.091c-1.248-0.104-1.911-0.663-1.911-1.717
		c0-1.17,0.988-1.872,2.354-1.872c0.91,0,1.729,0.222,2.301,0.689l-0.611,0.611c-0.454-0.352-1.039-0.508-1.702-0.508
		c-0.937,0-1.431,0.403-1.431,1.054c0,0.546,0.312,0.871,1.118,0.936l1.027,0.091c1.118,0.104,1.885,0.533,1.885,1.729
		C570.66,115.931,569.607,116.646,568.061,116.646z"/>
</g>
<path fill="none" stroke="#AE1821" stroke-width="0.75" stroke-miterlimit="10" d="M391.926,98.731c0,0-2.835,0-2.835,2.835v20.073
	c0,0,0,2.835,2.835,2.835h228.247c0,0,2.835,0,2.835-2.835v-20.073c0,0,0-2.835-2.835-2.835H391.926z"/>
<g>
	<path fill="#262625" d="M264.417,259.686c-0.91,0-1.742-0.338-2.366-0.962c-0.871-0.871-0.871-1.781-0.871-3.744
		s0-2.873,0.871-3.744c0.624-0.624,1.456-0.962,2.366-0.962c1.664,0,2.899,1.014,3.211,2.756h-1.014
		c-0.247-1.131-1.04-1.872-2.197-1.872c-0.611,0-1.196,0.234-1.599,0.65c-0.585,0.598-0.65,1.234-0.65,3.172
		c0,1.937,0.065,2.574,0.65,3.172c0.403,0.416,0.988,0.65,1.599,0.65c1.157,0,1.976-0.741,2.223-1.872h0.988
		C267.33,258.671,266.068,259.686,264.417,259.686z"/>
	<path fill="#262625" d="M274.389,258.957c-0.442,0.442-1.053,0.729-1.833,0.729s-1.391-0.286-1.833-0.729
		c-0.65-0.663-0.78-1.56-0.78-2.548s0.13-1.885,0.78-2.548c0.442-0.442,1.053-0.729,1.833-0.729s1.391,0.286,1.833,0.729
		c0.65,0.663,0.78,1.56,0.78,2.548C275.168,257.398,275.039,258.294,274.389,258.957z M273.726,254.434
		c-0.299-0.3-0.715-0.469-1.17-0.469s-0.858,0.169-1.157,0.469c-0.468,0.468-0.52,1.261-0.52,1.976s0.052,1.508,0.52,1.977
		c0.299,0.299,0.702,0.468,1.157,0.468s0.871-0.169,1.17-0.468c0.468-0.469,0.507-1.262,0.507-1.977
		C274.232,255.695,274.193,254.902,273.726,254.434z"/>
	<path fill="#262625" d="M286.037,259.608v-3.939c0-1.131-0.611-1.703-1.573-1.703c-0.936,0-1.599,0.585-1.599,1.6v4.043h-0.936
		v-3.939c0-1.131-0.611-1.703-1.573-1.703s-1.599,0.585-1.599,1.703v3.939h-0.936v-6.396h0.936v0.702
		c0.455-0.52,1.092-0.78,1.807-0.78c0.884,0,1.573,0.364,1.963,1.066c0.494-0.702,1.209-1.066,2.106-1.066
		c0.689,0,1.261,0.222,1.651,0.599c0.455,0.441,0.689,1.04,0.689,1.781v4.095h-0.936V259.608z"/>
	<path fill="#262625" d="M294.188,259.126c-0.338,0.339-0.91,0.56-1.56,0.56c-0.702,0-1.287-0.169-1.807-0.832v3.614h-0.936v-9.257
		h0.936v0.754c0.52-0.676,1.105-0.832,1.807-0.832c0.65,0,1.222,0.222,1.56,0.56c0.65,0.649,0.78,1.716,0.78,2.717
		C294.968,257.41,294.837,258.477,294.188,259.126z M292.433,253.965c-1.391,0-1.612,1.196-1.612,2.444
		c0,1.248,0.221,2.444,1.612,2.444s1.599-1.196,1.599-2.444C294.032,255.161,293.824,253.965,292.433,253.965z"/>
	<path fill="#262625" d="M301.247,259.608v-0.611c-0.52,0.521-0.988,0.689-1.846,0.689c-0.884,0-1.404-0.169-1.807-0.585
		c-0.312-0.312-0.481-0.793-0.481-1.3c0-1.118,0.78-1.847,2.21-1.847h1.924v-0.611c0-0.936-0.468-1.403-1.638-1.403
		c-0.819,0-1.235,0.194-1.612,0.728l-0.637-0.585c0.572-0.741,1.222-0.949,2.262-0.949c1.716,0,2.562,0.741,2.562,2.133v4.342
		h-0.937V259.608z M301.247,256.656h-1.794c-0.962,0-1.43,0.39-1.43,1.131s0.455,1.093,1.469,1.093c0.546,0,1.027-0.039,1.43-0.43
		c0.221-0.208,0.325-0.572,0.325-1.104V256.656z"/>
	<path fill="#262625" d="M308.682,254.434c-0.351-0.352-0.611-0.469-1.105-0.469c-0.936,0-1.534,0.741-1.534,1.717v3.926h-0.936
		v-6.396h0.936v0.78c0.351-0.533,1.053-0.858,1.794-0.858c0.611,0,1.079,0.144,1.534,0.599L308.682,254.434z"/>
	<path fill="#262625" d="M311.373,256.656c0,1.404,0.663,2.21,1.885,2.21c0.741,0,1.17-0.221,1.677-0.728l0.637,0.559
		c-0.65,0.65-1.248,0.988-2.34,0.988c-1.69,0-2.795-1.015-2.795-3.276c0-2.067,1.001-3.276,2.626-3.276
		c1.651,0,2.626,1.196,2.626,3.095v0.429L311.373,256.656L311.373,256.656z M314.558,254.889c-0.247-0.585-0.819-0.963-1.495-0.963
		s-1.248,0.378-1.495,0.963c-0.143,0.351-0.169,0.546-0.195,1.065h3.38C314.727,255.435,314.701,255.239,314.558,254.889z"/>
	<path fill="#262625" d="M325.465,259.686c-1.872,0-3.224-1.287-3.224-3.133v-6.202h0.988v6.124c0,1.403,0.884,2.327,2.236,2.327
		s2.249-0.924,2.249-2.327v-6.124h0.988v6.202C328.702,258.399,327.337,259.686,325.465,259.686z"/>
	<path fill="#262625" d="M333.733,259.686c-1.079,0-1.924-0.247-2.626-0.923l0.624-0.624c0.507,0.532,1.196,0.741,1.989,0.741
		c1.053,0,1.703-0.378,1.703-1.132c0-0.559-0.325-0.871-1.066-0.936l-1.053-0.091c-1.248-0.104-1.911-0.663-1.911-1.717
		c0-1.17,0.988-1.872,2.353-1.872c0.91,0,1.729,0.222,2.301,0.689l-0.611,0.611c-0.455-0.352-1.04-0.508-1.703-0.508
		c-0.936,0-1.43,0.403-1.43,1.054c0,0.546,0.312,0.871,1.118,0.936l1.027,0.091c1.118,0.104,1.885,0.533,1.885,1.729
		C336.333,258.971,335.28,259.686,333.733,259.686z"/>
	<path fill="#262625" d="M339.4,256.656c0,1.404,0.663,2.21,1.885,2.21c0.741,0,1.17-0.221,1.677-0.728l0.637,0.559
		c-0.65,0.65-1.248,0.988-2.34,0.988c-1.69,0-2.795-1.015-2.795-3.276c0-2.067,1.001-3.276,2.626-3.276
		c1.651,0,2.626,1.196,2.626,3.095v0.429L339.4,256.656L339.4,256.656z M342.586,254.889c-0.247-0.585-0.819-0.963-1.495-0.963
		s-1.248,0.378-1.495,0.963c-0.143,0.351-0.169,0.546-0.195,1.065h3.38C342.755,255.435,342.729,255.239,342.586,254.889z"/>
	<path fill="#262625" d="M349.931,254.434c-0.351-0.352-0.611-0.469-1.105-0.469c-0.936,0-1.534,0.741-1.534,1.717v3.926h-0.936
		v-6.396h0.936v0.78c0.351-0.533,1.053-0.858,1.794-0.858c0.611,0,1.079,0.144,1.534,0.599L349.931,254.434z"/>
	<path fill="#262625" d="M354.364,259.686c-1.079,0-1.924-0.247-2.626-0.923l0.624-0.624c0.507,0.532,1.196,0.741,1.989,0.741
		c1.053,0,1.703-0.378,1.703-1.132c0-0.559-0.325-0.871-1.066-0.936l-1.053-0.091c-1.248-0.104-1.911-0.663-1.911-1.717
		c0-1.17,0.988-1.872,2.353-1.872c0.91,0,1.729,0.222,2.301,0.689l-0.611,0.611c-0.455-0.352-1.04-0.508-1.703-0.508
		c-0.936,0-1.43,0.403-1.43,1.054c0,0.546,0.312,0.871,1.118,0.936l1.027,0.091c1.118,0.104,1.885,0.533,1.885,1.729
		C356.964,258.971,355.911,259.686,354.364,259.686z"/>
	<path fill="#262625" d="M358.796,252.47v-2.119h1.131v1.093L358.796,252.47z"/>
	<path fill="#262625" d="M370.393,259.608v-0.611c-0.52,0.521-0.988,0.689-1.846,0.689c-0.884,0-1.404-0.169-1.807-0.585
		c-0.312-0.312-0.481-0.793-0.481-1.3c0-1.118,0.78-1.847,2.21-1.847h1.924v-0.611c0-0.936-0.468-1.403-1.638-1.403
		c-0.819,0-1.235,0.194-1.612,0.728l-0.637-0.585c0.572-0.741,1.222-0.949,2.262-0.949c1.716,0,2.561,0.741,2.561,2.133v4.342
		h-0.936V259.608z M370.393,256.656h-1.794c-0.962,0-1.43,0.39-1.43,1.131s0.455,1.093,1.469,1.093c0.546,0,1.027-0.039,1.43-0.43
		c0.221-0.208,0.325-0.572,0.325-1.104V256.656z"/>
	<path fill="#262625" d="M378.348,259.608v-3.939c0-1.131-0.611-1.703-1.573-1.703s-1.586,0.585-1.586,1.703v3.939h-0.936v-6.396
		h0.936v0.702c0.455-0.52,1.079-0.78,1.794-0.78c0.689,0,1.248,0.208,1.638,0.599c0.455,0.441,0.663,1.04,0.663,1.781v4.095h-0.936
		V259.608z"/>
	<path fill="#262625" d="M386.031,259.608v-0.767c-0.521,0.676-1.119,0.845-1.82,0.845c-0.65,0-1.222-0.221-1.561-0.56
		c-0.65-0.649-0.78-1.716-0.78-2.717s0.13-2.067,0.78-2.717c0.338-0.338,0.91-0.56,1.561-0.56c0.702,0,1.287,0.156,1.807,0.819
		v-3.602h0.937v9.257h-0.924V259.608z M384.419,253.965c-1.391,0-1.612,1.196-1.612,2.444c0,1.248,0.221,2.444,1.612,2.444
		s1.599-1.196,1.599-2.444C386.018,255.161,385.81,253.965,384.419,253.965z"/>
	<path fill="#262625" d="M397.588,259.608h-3.602v-9.257h3.484c1.612,0,2.73,0.924,2.73,2.471c0,0.975-0.585,1.742-1.365,2.028
		c0.884,0.324,1.508,1.092,1.508,2.196C400.344,258.724,399.226,259.608,397.588,259.608z M397.393,251.236h-2.418v3.211h2.418
		c1.027,0,1.82-0.507,1.82-1.612S398.42,251.236,397.393,251.236z M397.497,255.33h-2.522v3.394h2.522
		c1.144,0,1.858-0.663,1.858-1.703C399.355,255.981,398.641,255.33,397.497,255.33z"/>
	<path fill="#262625" d="M406.727,254.434c-0.351-0.352-0.61-0.469-1.104-0.469c-0.937,0-1.534,0.741-1.534,1.717v3.926h-0.937
		v-6.396h0.937v0.78c0.351-0.533,1.053-0.858,1.794-0.858c0.611,0,1.079,0.144,1.534,0.599L406.727,254.434z"/>
	<path fill="#262625" d="M412.772,259.608v-0.611c-0.521,0.521-0.988,0.689-1.847,0.689c-0.884,0-1.404-0.169-1.807-0.585
		c-0.312-0.312-0.481-0.793-0.481-1.3c0-1.118,0.78-1.847,2.21-1.847h1.925v-0.611c0-0.936-0.469-1.403-1.639-1.403
		c-0.819,0-1.235,0.194-1.612,0.728l-0.637-0.585c0.572-0.741,1.222-0.949,2.262-0.949c1.717,0,2.562,0.741,2.562,2.133v4.342
		h-0.936V259.608z M412.772,256.656h-1.795c-0.962,0-1.43,0.39-1.43,1.131s0.455,1.093,1.469,1.093c0.546,0,1.027-0.039,1.431-0.43
		c0.221-0.208,0.325-0.572,0.325-1.104V256.656z"/>
	<path fill="#262625" d="M420.728,259.608v-3.939c0-1.131-0.61-1.703-1.573-1.703c-0.962,0-1.586,0.585-1.586,1.703v3.939h-0.936
		v-6.396h0.936v0.702c0.455-0.52,1.079-0.78,1.794-0.78c0.689,0,1.248,0.208,1.639,0.599c0.455,0.441,0.663,1.04,0.663,1.781v4.095
		h-0.937V259.608z"/>
	<path fill="#262625" d="M428.397,259.608v-0.767c-0.52,0.676-1.118,0.845-1.82,0.845c-0.649,0-1.222-0.221-1.56-0.56
		c-0.65-0.649-0.78-1.716-0.78-2.717s0.13-2.067,0.78-2.717c0.338-0.338,0.91-0.56,1.56-0.56c0.702,0,1.287,0.156,1.808,0.819
		v-3.602h0.936v9.257h-0.924V259.608z M426.785,253.965c-1.391,0-1.611,1.196-1.611,2.444c0,1.248,0.221,2.444,1.611,2.444
		c1.392,0,1.6-1.196,1.6-2.444C428.385,255.161,428.177,253.965,426.785,253.965z"/>
	<path fill="#262625" d="M434.325,259.686c-1.079,0-1.924-0.247-2.626-0.923l0.624-0.624c0.507,0.532,1.196,0.741,1.989,0.741
		c1.053,0,1.703-0.378,1.703-1.132c0-0.559-0.325-0.871-1.066-0.936l-1.053-0.091c-1.248-0.104-1.911-0.663-1.911-1.717
		c0-1.17,0.988-1.872,2.354-1.872c0.909,0,1.729,0.222,2.301,0.689l-0.611,0.611c-0.455-0.352-1.04-0.508-1.703-0.508
		c-0.936,0-1.43,0.403-1.43,1.054c0,0.546,0.312,0.871,1.118,0.936l1.026,0.091c1.118,0.104,1.886,0.533,1.886,1.729
		C436.926,258.971,435.872,259.686,434.325,259.686z"/>
	<path fill="#262625" d="M438.759,252.47v-2.119h1.131v1.093L438.759,252.47z"/>
	<path fill="#262625" d="M452.278,259.608v-4.226h-4.395v4.226h-0.988v-9.257h0.988v4.147h4.395v-4.147h0.988v9.257H452.278z"/>
	<path fill="#262625" d="M460.053,259.608v-0.611c-0.521,0.521-0.988,0.689-1.847,0.689c-0.884,0-1.404-0.169-1.807-0.585
		c-0.312-0.312-0.481-0.793-0.481-1.3c0-1.118,0.78-1.847,2.21-1.847h1.925v-0.611c0-0.936-0.469-1.403-1.639-1.403
		c-0.819,0-1.235,0.194-1.612,0.728l-0.637-0.585c0.572-0.741,1.222-0.949,2.262-0.949c1.717,0,2.562,0.741,2.562,2.133v4.342
		h-0.936V259.608z M460.053,256.656h-1.795c-0.962,0-1.43,0.39-1.43,1.131s0.455,1.093,1.469,1.093c0.546,0,1.027-0.039,1.431-0.43
		c0.221-0.208,0.325-0.572,0.325-1.104V256.656z"/>
	<path fill="#262625" d="M465.928,259.686c-1.079,0-1.924-0.247-2.626-0.923l0.624-0.624c0.507,0.532,1.196,0.741,1.989,0.741
		c1.053,0,1.703-0.378,1.703-1.132c0-0.559-0.325-0.871-1.066-0.936l-1.053-0.091c-1.248-0.104-1.911-0.663-1.911-1.717
		c0-1.17,0.988-1.872,2.354-1.872c0.909,0,1.729,0.222,2.301,0.689l-0.611,0.611c-0.455-0.352-1.04-0.508-1.703-0.508
		c-0.936,0-1.43,0.403-1.43,1.054c0,0.546,0.312,0.871,1.118,0.936l1.026,0.091c1.118,0.104,1.886,0.533,1.886,1.729
		C468.528,258.971,467.475,259.686,465.928,259.686z"/>
	<path fill="#262625" d="M475.105,259.608v-3.952c0-1.118-0.598-1.69-1.56-1.69s-1.6,0.585-1.6,1.69v3.952h-0.936v-9.257h0.936
		v3.562c0.469-0.533,1.079-0.78,1.794-0.78c1.443,0,2.302,0.924,2.302,2.366v4.108h-0.936V259.608z"/>
	<path fill="#262625" d="M480.747,259.608c-1.092,0-1.638-0.767-1.638-1.716v-3.927h-0.806v-0.715h0.806v-2.002h0.937v2.002h1.364
		v0.715h-1.364v3.9c0,0.585,0.272,0.937,0.871,0.937h0.493v0.806H480.747z"/>
	<path fill="#262625" d="M487.442,259.608v-0.611c-0.52,0.521-0.988,0.689-1.846,0.689c-0.885,0-1.404-0.169-1.808-0.585
		c-0.312-0.312-0.48-0.793-0.48-1.3c0-1.118,0.779-1.847,2.21-1.847h1.924v-0.611c0-0.936-0.468-1.403-1.638-1.403
		c-0.819,0-1.235,0.194-1.612,0.728l-0.637-0.585c0.571-0.741,1.222-0.949,2.262-0.949c1.716,0,2.562,0.741,2.562,2.133v4.342
		h-0.937L487.442,259.608L487.442,259.608z M487.442,256.656h-1.794c-0.962,0-1.43,0.39-1.43,1.131s0.454,1.093,1.469,1.093
		c0.546,0,1.027-0.039,1.43-0.43c0.222-0.208,0.325-0.572,0.325-1.104V256.656z"/>
	<path fill="#262625" d="M493.357,262.546c-0.962,0-1.495-0.247-2.171-0.858l0.61-0.598c0.468,0.416,0.793,0.637,1.534,0.637
		c1.235,0,1.755-0.871,1.755-1.963v-1.001c-0.52,0.663-1.104,0.832-1.794,0.832c-0.649,0-1.209-0.234-1.547-0.572
		c-0.637-0.637-0.78-1.625-0.78-2.665c0-1.04,0.144-2.028,0.78-2.665c0.338-0.338,0.91-0.56,1.56-0.56
		c0.702,0,1.274,0.156,1.795,0.832v-0.754h0.923v6.592C496.022,261.389,495.034,262.546,493.357,262.546z M493.5,253.965
		c-1.391,0-1.599,1.196-1.599,2.393c0,1.196,0.208,2.392,1.599,2.392c1.392,0,1.586-1.195,1.586-2.392
		C495.086,255.161,494.892,253.965,493.5,253.965z"/>
	<path fill="#262625" d="M501.015,259.686c-1.079,0-1.924-0.247-2.626-0.923l0.624-0.624c0.507,0.532,1.195,0.741,1.988,0.741
		c1.054,0,1.703-0.378,1.703-1.132c0-0.559-0.324-0.871-1.065-0.936l-1.054-0.091c-1.248-0.104-1.91-0.663-1.91-1.717
		c0-1.17,0.987-1.872,2.353-1.872c0.91,0,1.729,0.222,2.301,0.689l-0.61,0.611c-0.455-0.352-1.04-0.508-1.703-0.508
		c-0.937,0-1.431,0.403-1.431,1.054c0,0.546,0.312,0.871,1.118,0.936l1.027,0.091c1.118,0.104,1.885,0.533,1.885,1.729
		C503.614,258.971,502.562,259.686,501.015,259.686z"/>
</g>
<path fill="none" stroke="#AE1821" stroke-width="0.75" stroke-miterlimit="10" d="M145.26,241.77c0,0-2.835,0-2.835,2.835v20.073
	c0,0,0,2.835,2.835,2.835h474.914c0,0,2.835,0,2.835-2.835v-20.073c0,0,0-2.835-2.835-2.835H145.26z"/>
<g>
	<path fill="#BAA494" d="M147.738,141.756v-3.575h-3.719v3.575h-0.836v-7.833h0.836v3.51h3.719v-3.51h0.836v7.833L147.738,141.756
		L147.738,141.756z"/>
	<path fill="#BAA494" d="M151.73,139.259c0,1.188,0.561,1.87,1.595,1.87c0.627,0,0.99-0.188,1.419-0.616l0.539,0.473
		c-0.55,0.551-1.056,0.837-1.98,0.837c-1.43,0-2.366-0.858-2.366-2.772c0-1.75,0.847-2.772,2.223-2.772
		c1.397,0,2.222,1.012,2.222,2.618v0.363h-3.652L151.73,139.259L151.73,139.259z M154.425,137.763
		c-0.209-0.495-0.693-0.814-1.265-0.814s-1.056,0.319-1.265,0.814c-0.121,0.297-0.143,0.462-0.165,0.901h2.86
		C154.568,138.225,154.546,138.06,154.425,137.763z"/>
	<path fill="#BAA494" d="M160.685,141.756v-0.517c-0.44,0.439-0.836,0.583-1.562,0.583c-0.749,0-1.188-0.144-1.529-0.495
		c-0.264-0.265-0.407-0.672-0.407-1.101c0-0.946,0.66-1.562,1.87-1.562h1.628v-0.517c0-0.792-0.396-1.188-1.386-1.188
		c-0.693,0-1.045,0.165-1.364,0.616l-0.539-0.495c0.484-0.627,1.034-0.803,1.915-0.803c1.452,0,2.167,0.627,2.167,1.804v3.675
		L160.685,141.756L160.685,141.756z M160.685,139.259h-1.518c-0.814,0-1.21,0.33-1.21,0.957s0.385,0.924,1.243,0.924
		c0.462,0,0.869-0.033,1.21-0.363c0.187-0.176,0.275-0.483,0.275-0.935L160.685,139.259L160.685,139.259z"/>
	<path fill="#BAA494" d="M165.304,141.756c-0.946,0-1.375-0.616-1.375-1.441v-6.392h0.792v6.358c0,0.528,0.176,0.793,0.726,0.793
		h0.429v0.682L165.304,141.756L165.304,141.756z"/>
	<path fill="#BAA494" d="M169.275,141.756c-0.924,0-1.386-0.649-1.386-1.452v-3.322h-0.682v-0.605h0.682v-1.694h0.792v1.694h1.155
		v0.605h-1.155v3.3c0,0.495,0.231,0.793,0.737,0.793h0.418v0.682h-0.561V141.756z"/>
	<path fill="#BAA494" d="M175.424,141.756v-3.345c0-0.946-0.506-1.43-1.32-1.43c-0.814,0-1.353,0.495-1.353,1.43v3.345h-0.792
		v-7.833h0.792v3.015c0.396-0.451,0.913-0.66,1.518-0.66c1.221,0,1.947,0.781,1.947,2.002v3.477h-0.792V141.756z"/>
</g>
<g>
	<path fill="#BAA494" d="M143.183,154.956v-7.833h0.836v7.833H143.183z"/>
	<path fill="#BAA494" d="M150.157,154.956v-3.333c0-0.958-0.517-1.441-1.331-1.441s-1.342,0.495-1.342,1.441v3.333h-0.792v-5.413
		h0.792v0.595c0.385-0.44,0.913-0.66,1.518-0.66c0.583,0,1.056,0.176,1.386,0.506c0.385,0.374,0.561,0.88,0.561,1.507v3.466h-0.792
		L150.157,154.956L150.157,154.956z"/>
	<path fill="#BAA494" d="M154.942,154.956c-0.924,0-1.386-0.649-1.386-1.452v-3.322h-0.682v-0.605h0.682v-1.694h0.792v1.694h1.155
		v0.605h-1.155v3.3c0,0.495,0.231,0.793,0.737,0.793h0.418v0.682h-0.561V154.956z"/>
	<path fill="#BAA494" d="M161.014,154.406c-0.374,0.374-0.891,0.616-1.551,0.616s-1.177-0.242-1.551-0.616
		c-0.55-0.562-0.66-1.32-0.66-2.156c0-0.837,0.11-1.596,0.66-2.156c0.374-0.374,0.891-0.616,1.551-0.616s1.177,0.242,1.551,0.616
		c0.55,0.561,0.66,1.319,0.66,2.156C161.674,153.086,161.564,153.845,161.014,154.406z M160.453,150.577
		c-0.253-0.253-0.605-0.396-0.99-0.396c-0.385,0-0.726,0.143-0.979,0.396c-0.396,0.396-0.44,1.067-0.44,1.673
		c0,0.604,0.044,1.275,0.44,1.672c0.253,0.253,0.594,0.396,0.979,0.396c0.385,0,0.737-0.144,0.99-0.396
		c0.396-0.396,0.429-1.067,0.429-1.672S160.849,150.974,160.453,150.577z"/>
	<path fill="#BAA494" d="M165.271,154.956c-0.946,0-1.375-0.616-1.375-1.441v-6.392h0.792v6.358c0,0.528,0.176,0.793,0.726,0.793
		h0.429v0.682L165.271,154.956L165.271,154.956z"/>
	<path fill="#BAA494" d="M167.944,152.459c0,1.188,0.561,1.87,1.595,1.87c0.627,0,0.99-0.188,1.419-0.616l0.539,0.473
		c-0.55,0.551-1.056,0.837-1.98,0.837c-1.43,0-2.366-0.858-2.366-2.772c0-1.75,0.847-2.772,2.223-2.772
		c1.397,0,2.222,1.012,2.222,2.618v0.363h-3.652L167.944,152.459L167.944,152.459z M170.639,150.963
		c-0.209-0.495-0.693-0.814-1.265-0.814s-1.056,0.319-1.265,0.814c-0.121,0.297-0.143,0.462-0.165,0.901h2.86
		C170.782,151.425,170.76,151.26,170.639,150.963z"/>
	<path fill="#BAA494" d="M176.854,150.577c-0.297-0.297-0.517-0.396-0.935-0.396c-0.792,0-1.298,0.627-1.298,1.452v3.322h-0.792
		v-5.413h0.792v0.66c0.297-0.451,0.891-0.726,1.518-0.726c0.517,0,0.913,0.121,1.298,0.506L176.854,150.577z"/>
	<path fill="#BAA494" d="M181.969,154.956v-0.517c-0.44,0.439-0.836,0.583-1.562,0.583c-0.749,0-1.188-0.144-1.529-0.495
		c-0.264-0.265-0.407-0.672-0.407-1.101c0-0.946,0.66-1.562,1.87-1.562h1.628v-0.517c0-0.792-0.396-1.188-1.386-1.188
		c-0.693,0-1.045,0.165-1.364,0.616l-0.539-0.495c0.484-0.627,1.034-0.803,1.915-0.803c1.452,0,2.167,0.627,2.167,1.804v3.675
		L181.969,154.956L181.969,154.956z M181.969,152.459h-1.518c-0.814,0-1.21,0.33-1.21,0.957s0.385,0.924,1.243,0.924
		c0.462,0,0.869-0.033,1.21-0.363c0.187-0.176,0.275-0.483,0.275-0.935L181.969,152.459L181.969,152.459z"/>
	<path fill="#BAA494" d="M188.701,154.956v-3.333c0-0.958-0.517-1.441-1.331-1.441s-1.342,0.495-1.342,1.441v3.333h-0.792v-5.413
		h0.792v0.595c0.385-0.44,0.913-0.66,1.518-0.66c0.583,0,1.056,0.176,1.386,0.506c0.385,0.374,0.561,0.88,0.561,1.507v3.466h-0.792
		L188.701,154.956L188.701,154.956z"/>
	<path fill="#BAA494" d="M194.058,155.023c-1.364,0-2.398-0.925-2.398-2.772c0-1.849,1.034-2.772,2.398-2.772
		c0.748,0,1.221,0.197,1.782,0.803l-0.539,0.506c-0.407-0.451-0.726-0.604-1.243-0.604c-0.528,0-0.968,0.209-1.254,0.616
		c-0.253,0.352-0.352,0.77-0.352,1.452c0,0.682,0.099,1.1,0.352,1.452c0.286,0.407,0.726,0.616,1.254,0.616
		c0.517,0,0.836-0.165,1.243-0.616l0.539,0.517C195.279,154.824,194.806,155.023,194.058,155.023z"/>
	<path fill="#BAA494" d="M198.227,152.459c0,1.188,0.561,1.87,1.595,1.87c0.627,0,0.99-0.188,1.419-0.616l0.539,0.473
		c-0.55,0.551-1.056,0.837-1.98,0.837c-1.43,0-2.366-0.858-2.366-2.772c0-1.75,0.847-2.772,2.223-2.772
		c1.397,0,2.222,1.012,2.222,2.618v0.363h-3.652L198.227,152.459L198.227,152.459z M200.922,150.963
		c-0.209-0.495-0.693-0.814-1.265-0.814s-1.056,0.319-1.265,0.814c-0.121,0.297-0.143,0.462-0.165,0.901h2.86
		C201.065,151.425,201.043,151.26,200.922,150.963z"/>
</g>
<g>
	<path fill="#BAA494" d="M144.019,161.071v2.883h3.433v0.748h-3.433v3.454h-0.836v-7.833h4.863v0.748H144.019z"/>
	<path fill="#BAA494" d="M149.926,161.203v-0.891h0.891v0.891H149.926z M149.97,168.156v-5.413h0.792v5.413H149.97z"/>
	<path fill="#BAA494" d="M154.821,168.156c-0.924,0-1.386-0.649-1.386-1.452v-3.322h-0.682v-0.605h0.682v-1.694h0.792v1.694h1.155
		v0.605h-1.155v3.3c0,0.495,0.231,0.793,0.737,0.793h0.418v0.682h-0.561V168.156z"/>
	<path fill="#BAA494" d="M160.97,168.156v-3.333c0-0.958-0.517-1.441-1.331-1.441s-1.342,0.495-1.342,1.441v3.333h-0.792v-5.413
		h0.792v0.595c0.385-0.44,0.913-0.66,1.518-0.66c0.583,0,1.056,0.176,1.386,0.506c0.385,0.374,0.561,0.88,0.561,1.507v3.466h-0.792
		L160.97,168.156L160.97,168.156z"/>
	<path fill="#BAA494" d="M164.721,165.659c0,1.188,0.561,1.87,1.595,1.87c0.627,0,0.99-0.188,1.419-0.616l0.539,0.473
		c-0.55,0.551-1.056,0.837-1.98,0.837c-1.43,0-2.366-0.858-2.366-2.772c0-1.75,0.847-2.772,2.223-2.772
		c1.397,0,2.222,1.012,2.222,2.618v0.363h-3.652L164.721,165.659L164.721,165.659z M167.416,164.163
		c-0.209-0.495-0.693-0.814-1.265-0.814s-1.056,0.319-1.265,0.814c-0.121,0.297-0.143,0.462-0.165,0.901h2.86
		C167.559,164.625,167.537,164.46,167.416,164.163z"/>
	<path fill="#BAA494" d="M172.3,168.223c-0.913,0-1.628-0.209-2.222-0.781l0.528-0.528c0.429,0.451,1.012,0.627,1.684,0.627
		c0.891,0,1.441-0.319,1.441-0.957c0-0.473-0.275-0.737-0.902-0.792l-0.891-0.077c-1.056-0.088-1.617-0.562-1.617-1.452
		c0-0.99,0.836-1.584,1.991-1.584c0.77,0,1.463,0.187,1.947,0.583l-0.517,0.517c-0.385-0.297-0.88-0.429-1.441-0.429
		c-0.792,0-1.21,0.341-1.21,0.891c0,0.463,0.264,0.737,0.946,0.793l0.869,0.076c0.946,0.089,1.595,0.451,1.595,1.464
		C174.5,167.617,173.609,168.223,172.3,168.223z"/>
	<path fill="#BAA494" d="M178.129,168.223c-0.913,0-1.628-0.209-2.222-0.781l0.528-0.528c0.429,0.451,1.012,0.627,1.684,0.627
		c0.891,0,1.441-0.319,1.441-0.957c0-0.473-0.275-0.737-0.902-0.792l-0.891-0.077c-1.056-0.088-1.617-0.562-1.617-1.452
		c0-0.99,0.836-1.584,1.991-1.584c0.77,0,1.463,0.187,1.947,0.583l-0.517,0.517c-0.385-0.297-0.88-0.429-1.441-0.429
		c-0.792,0-1.21,0.341-1.21,0.891c0,0.463,0.264,0.737,0.946,0.793l0.869,0.076c0.946,0.089,1.595,0.451,1.595,1.464
		C180.33,167.617,179.438,168.223,178.129,168.223z"/>
</g>
<g>
	<path fill="#BAA494" d="M145.395,181.356h-0.682l-2.575-7.833h0.88l2.035,6.337l2.035-6.337h0.88L145.395,181.356z"/>
	<path fill="#BAA494" d="M149.651,178.859c0,1.188,0.561,1.87,1.595,1.87c0.627,0,0.99-0.188,1.419-0.616l0.539,0.473
		c-0.55,0.551-1.056,0.837-1.98,0.837c-1.43,0-2.366-0.858-2.366-2.772c0-1.75,0.847-2.772,2.223-2.772
		c1.397,0,2.222,1.012,2.222,2.618v0.363h-3.652L149.651,178.859L149.651,178.859z M152.346,177.362
		c-0.209-0.495-0.693-0.814-1.265-0.814s-1.056,0.319-1.265,0.814c-0.121,0.297-0.143,0.462-0.165,0.901h2.86
		C152.489,177.824,152.467,177.659,152.346,177.362z"/>
	<path fill="#BAA494" d="M157.274,183.842c-0.814,0-1.265-0.209-1.837-0.726l0.517-0.507c0.396,0.353,0.671,0.539,1.298,0.539
		c1.045,0,1.485-0.737,1.485-1.661v-0.847c-0.44,0.561-0.935,0.704-1.518,0.704c-0.55,0-1.023-0.198-1.309-0.484
		c-0.539-0.539-0.66-1.375-0.66-2.255c0-0.881,0.121-1.717,0.66-2.256c0.286-0.286,0.77-0.473,1.32-0.473
		c0.594,0,1.078,0.132,1.518,0.704v-0.639h0.781v5.578C159.53,182.862,158.693,183.842,157.274,183.842z M157.396,176.581
		c-1.177,0-1.354,1.012-1.354,2.024c0,1.012,0.176,2.023,1.354,2.023c1.177,0,1.342-1.012,1.342-2.023
		C158.737,177.593,158.572,176.581,157.396,176.581z"/>
	<path fill="#BAA494" d="M165.117,181.356v-0.517c-0.44,0.439-0.836,0.583-1.562,0.583c-0.749,0-1.188-0.144-1.529-0.495
		c-0.264-0.265-0.407-0.672-0.407-1.101c0-0.946,0.66-1.562,1.87-1.562h1.628v-0.517c0-0.792-0.396-1.188-1.386-1.188
		c-0.693,0-1.045,0.165-1.364,0.616l-0.539-0.495c0.484-0.627,1.034-0.803,1.915-0.803c1.452,0,2.167,0.627,2.167,1.804v3.675
		L165.117,181.356L165.117,181.356z M165.117,178.859h-1.518c-0.814,0-1.21,0.33-1.21,0.957s0.385,0.924,1.243,0.924
		c0.462,0,0.869-0.033,1.21-0.363c0.187-0.176,0.275-0.483,0.275-0.935L165.117,178.859L165.117,178.859z"/>
	<path fill="#BAA494" d="M171.849,181.356v-3.333c0-0.958-0.517-1.441-1.331-1.441s-1.342,0.495-1.342,1.441v3.333h-0.792v-5.413
		h0.792v0.595c0.385-0.44,0.913-0.66,1.518-0.66c0.583,0,1.056,0.176,1.386,0.506c0.385,0.374,0.561,0.88,0.561,1.507v3.466h-0.792
		L171.849,181.356L171.849,181.356z"/>
</g>
<g>
	<path fill="#BAA494" d="M148.178,194.556l-4.159-6.282v6.282h-0.836v-7.833h0.792l4.159,6.26v-6.26h0.836v7.833H148.178z"/>
	<path fill="#BAA494" d="M155.052,194.556v-0.605c-0.385,0.44-0.924,0.672-1.529,0.672c-0.583,0-1.067-0.177-1.397-0.507
		c-0.385-0.374-0.55-0.891-0.55-1.518v-3.455h0.792v3.334c0,0.957,0.506,1.441,1.32,1.441s1.353-0.495,1.353-1.441v-3.334h0.792
		v5.413L155.052,194.556L155.052,194.556z"/>
	<path fill="#BAA494" d="M159.881,194.556c-0.924,0-1.386-0.649-1.386-1.452v-3.322h-0.682v-0.605h0.682v-1.694h0.792v1.694h1.155
		v0.605h-1.155v3.3c0,0.495,0.231,0.793,0.737,0.793h0.418v0.682h-0.561V194.556z"/>
	<path fill="#BAA494" d="M165.59,190.177c-0.297-0.297-0.517-0.396-0.935-0.396c-0.792,0-1.298,0.627-1.298,1.452v3.322h-0.792
		v-5.413h0.792v0.66c0.297-0.451,0.891-0.726,1.518-0.726c0.517,0,0.913,0.121,1.298,0.506L165.59,190.177z"/>
	<path fill="#BAA494" d="M167.702,187.603v-0.891h0.891v0.891H167.702z M167.746,194.556v-5.413h0.792v5.413H167.746z"/>
	<path fill="#BAA494" d="M171.574,192.059c0,1.188,0.561,1.87,1.595,1.87c0.627,0,0.99-0.188,1.419-0.616l0.539,0.473
		c-0.55,0.551-1.056,0.837-1.98,0.837c-1.43,0-2.366-0.858-2.366-2.772c0-1.75,0.847-2.772,2.223-2.772
		c1.397,0,2.222,1.012,2.222,2.618v0.363h-3.652L171.574,192.059L171.574,192.059z M174.269,190.563
		c-0.209-0.495-0.693-0.814-1.265-0.814s-1.056,0.319-1.265,0.814c-0.121,0.297-0.143,0.462-0.165,0.901h2.86
		C174.412,191.025,174.39,190.86,174.269,190.563z"/>
	<path fill="#BAA494" d="M180.913,194.556v-3.333c0-0.958-0.517-1.441-1.331-1.441s-1.342,0.495-1.342,1.441v3.333h-0.792v-5.413
		h0.792v0.595c0.385-0.44,0.913-0.66,1.518-0.66c0.583,0,1.056,0.176,1.386,0.506c0.385,0.374,0.561,0.88,0.561,1.507v3.466h-0.792
		L180.913,194.556L180.913,194.556z"/>
	<path fill="#BAA494" d="M185.687,194.556c-0.924,0-1.386-0.649-1.386-1.452v-3.322h-0.682v-0.605h0.682v-1.694h0.792v1.694h1.155
		v0.605h-1.155v3.3c0,0.495,0.231,0.793,0.737,0.793h0.418v0.682h-0.561V194.556z"/>
	<path fill="#BAA494" d="M190.075,194.622c-0.913,0-1.628-0.209-2.222-0.781l0.528-0.528c0.429,0.451,1.012,0.627,1.684,0.627
		c0.891,0,1.441-0.319,1.441-0.957c0-0.473-0.275-0.737-0.902-0.792l-0.891-0.077c-1.056-0.088-1.617-0.562-1.617-1.452
		c0-0.99,0.836-1.584,1.991-1.584c0.77,0,1.463,0.187,1.947,0.583l-0.517,0.517c-0.385-0.297-0.88-0.429-1.441-0.429
		c-0.792,0-1.21,0.341-1.21,0.891c0,0.463,0.264,0.737,0.946,0.793l0.869,0.076c0.946,0.089,1.595,0.451,1.595,1.464
		C192.275,194.017,191.384,194.622,190.075,194.622z"/>
</g>
<g>
	<path fill="#BAA494" d="M145.482,200.671v7.085h-0.836v-7.085h-2.266v-0.748h5.369v0.748H145.482z"/>
	<path fill="#BAA494" d="M152.061,203.377c-0.297-0.297-0.517-0.396-0.935-0.396c-0.792,0-1.298,0.627-1.298,1.452v3.322h-0.792
		v-5.413h0.792v0.66c0.297-0.451,0.891-0.726,1.518-0.726c0.517,0,0.913,0.121,1.298,0.506L152.061,203.377z"/>
	<path fill="#BAA494" d="M157.175,207.756v-0.517c-0.44,0.439-0.836,0.583-1.562,0.583c-0.749,0-1.188-0.144-1.529-0.495
		c-0.264-0.265-0.407-0.672-0.407-1.101c0-0.946,0.66-1.562,1.87-1.562h1.628v-0.517c0-0.792-0.396-1.188-1.386-1.188
		c-0.693,0-1.045,0.165-1.364,0.616l-0.539-0.495c0.484-0.627,1.034-0.803,1.915-0.803c1.452,0,2.167,0.627,2.167,1.804v3.675
		L157.175,207.756L157.175,207.756z M157.175,205.259h-1.518c-0.814,0-1.21,0.33-1.21,0.957s0.385,0.924,1.243,0.924
		c0.462,0,0.869-0.033,1.21-0.363c0.187-0.176,0.275-0.483,0.275-0.935L157.175,205.259L157.175,205.259z"/>
	<path fill="#BAA494" d="M163.676,207.756v-0.649c-0.44,0.572-0.946,0.716-1.54,0.716c-0.55,0-1.034-0.188-1.32-0.474
		c-0.55-0.55-0.66-1.452-0.66-2.299c0-0.848,0.11-1.75,0.66-2.3c0.286-0.286,0.77-0.473,1.32-0.473c0.594,0,1.089,0.132,1.529,0.692
		v-3.047h0.792v7.833L163.676,207.756L163.676,207.756z M162.312,202.982c-1.177,0-1.364,1.012-1.364,2.068s0.187,2.068,1.364,2.068
		s1.353-1.013,1.353-2.068C163.665,203.993,163.489,202.982,162.312,202.982z"/>
	<path fill="#BAA494" d="M166.932,200.803v-0.891h0.891v0.891H166.932z M166.976,207.756v-5.413h0.792v5.413H166.976z"/>
	<path fill="#BAA494" d="M171.827,207.756c-0.924,0-1.386-0.649-1.386-1.452v-3.322h-0.682v-0.605h0.682v-1.694h0.792v1.694h1.155
		v0.605h-1.155v3.3c0,0.495,0.231,0.793,0.737,0.793h0.418v0.682h-0.561V207.756z"/>
	<path fill="#BAA494" d="M174.466,200.803v-0.891h0.891v0.891H174.466z M174.51,207.756v-5.413h0.792v5.413H174.51z"/>
	<path fill="#BAA494" d="M181.32,207.206c-0.374,0.374-0.891,0.616-1.551,0.616s-1.177-0.242-1.551-0.616
		c-0.55-0.562-0.66-1.32-0.66-2.156c0-0.837,0.11-1.596,0.66-2.156c0.374-0.374,0.891-0.616,1.551-0.616s1.177,0.242,1.551,0.616
		c0.55,0.561,0.66,1.319,0.66,2.156C181.98,205.886,181.87,206.645,181.32,207.206z M180.759,203.377
		c-0.253-0.253-0.605-0.396-0.99-0.396c-0.385,0-0.726,0.143-0.979,0.396c-0.396,0.396-0.44,1.067-0.44,1.673
		c0,0.604,0.044,1.275,0.44,1.672c0.253,0.253,0.594,0.396,0.979,0.396c0.385,0,0.737-0.144,0.99-0.396
		c0.396-0.396,0.429-1.067,0.429-1.672S181.155,203.774,180.759,203.377z"/>
	<path fill="#BAA494" d="M187.678,207.756v-3.333c0-0.958-0.517-1.441-1.331-1.441s-1.342,0.495-1.342,1.441v3.333h-0.792v-5.413
		h0.792v0.595c0.385-0.44,0.913-0.66,1.518-0.66c0.583,0,1.056,0.176,1.386,0.506c0.385,0.374,0.561,0.88,0.561,1.507v3.466h-0.792
		L187.678,207.756L187.678,207.756z"/>
	<path fill="#BAA494" d="M194.002,207.756v-0.517c-0.44,0.439-0.836,0.583-1.562,0.583c-0.749,0-1.188-0.144-1.529-0.495
		c-0.264-0.265-0.407-0.672-0.407-1.101c0-0.946,0.66-1.562,1.87-1.562h1.628v-0.517c0-0.792-0.396-1.188-1.386-1.188
		c-0.693,0-1.045,0.165-1.364,0.616l-0.539-0.495c0.484-0.627,1.034-0.803,1.915-0.803c1.452,0,2.167,0.627,2.167,1.804v3.675
		L194.002,207.756L194.002,207.756z M194.002,205.259h-1.518c-0.814,0-1.21,0.33-1.21,0.957s0.385,0.924,1.243,0.924
		c0.462,0,0.869-0.033,1.21-0.363c0.187-0.176,0.275-0.483,0.275-0.935L194.002,205.259L194.002,205.259z"/>
	<path fill="#BAA494" d="M198.622,207.756c-0.946,0-1.375-0.616-1.375-1.441v-6.392h0.792v6.358c0,0.528,0.176,0.793,0.726,0.793
		h0.429v0.682L198.622,207.756L198.622,207.756z"/>
	<path fill="#BAA494" d="M205.343,202.982v4.774h-0.792v-4.774h-0.693v-0.605h0.693v-1.023c0-0.803,0.451-1.452,1.375-1.452h0.572
		v0.683h-0.429c-0.506,0-0.726,0.297-0.726,0.792v1.001h1.155v0.605h-1.155V202.982z"/>
	<path fill="#BAA494" d="M211.646,207.206c-0.374,0.374-0.891,0.616-1.551,0.616s-1.177-0.242-1.551-0.616
		c-0.55-0.562-0.66-1.32-0.66-2.156c0-0.837,0.11-1.596,0.66-2.156c0.374-0.374,0.891-0.616,1.551-0.616s1.177,0.242,1.551,0.616
		c0.55,0.561,0.66,1.319,0.66,2.156C212.307,205.886,212.196,206.645,211.646,207.206z M211.085,203.377
		c-0.253-0.253-0.605-0.396-0.99-0.396c-0.385,0-0.726,0.143-0.979,0.396c-0.396,0.396-0.44,1.067-0.44,1.673
		c0,0.604,0.044,1.275,0.44,1.672c0.253,0.253,0.594,0.396,0.979,0.396c0.385,0,0.737-0.144,0.99-0.396
		c0.396-0.396,0.429-1.067,0.429-1.672S211.481,203.774,211.085,203.377z"/>
	<path fill="#BAA494" d="M218.016,207.206c-0.374,0.374-0.891,0.616-1.551,0.616s-1.177-0.242-1.551-0.616
		c-0.55-0.562-0.66-1.32-0.66-2.156c0-0.837,0.11-1.596,0.66-2.156c0.374-0.374,0.891-0.616,1.551-0.616s1.177,0.242,1.551,0.616
		c0.55,0.561,0.66,1.319,0.66,2.156C218.676,205.886,218.565,206.645,218.016,207.206z M217.455,203.377
		c-0.253-0.253-0.605-0.396-0.99-0.396c-0.385,0-0.726,0.143-0.979,0.396c-0.396,0.396-0.44,1.067-0.44,1.673
		c0,0.604,0.044,1.275,0.44,1.672c0.253,0.253,0.594,0.396,0.979,0.396c0.385,0,0.737-0.144,0.99-0.396
		c0.396-0.396,0.429-1.067,0.429-1.672C217.883,204.445,217.851,203.774,217.455,203.377z"/>
	<path fill="#BAA494" d="M224.153,207.756v-0.649c-0.44,0.572-0.946,0.716-1.54,0.716c-0.55,0-1.034-0.188-1.32-0.474
		c-0.55-0.55-0.66-1.452-0.66-2.299c0-0.848,0.11-1.75,0.66-2.3c0.286-0.286,0.77-0.473,1.32-0.473c0.594,0,1.089,0.132,1.529,0.692
		v-3.047h0.792v7.833L224.153,207.756L224.153,207.756z M222.789,202.982c-1.177,0-1.364,1.012-1.364,2.068s0.187,2.068,1.364,2.068
		s1.353-1.013,1.353-2.068C224.142,203.993,223.966,202.982,222.789,202.982z"/>
</g>
<g>
	<path fill="#BAA494" d="M394.402,141.756v-3.575h-3.719v3.575h-0.836v-7.833h0.836v3.51h3.719v-3.51h0.836v7.833L394.402,141.756
		L394.402,141.756z"/>
	<path fill="#BAA494" d="M398.405,139.259c0,1.188,0.562,1.87,1.596,1.87c0.627,0,0.99-0.188,1.419-0.616l0.539,0.473
		c-0.55,0.551-1.057,0.837-1.98,0.837c-1.43,0-2.365-0.858-2.365-2.772c0-1.75,0.847-2.772,2.223-2.772
		c1.396,0,2.222,1.012,2.222,2.618v0.363h-3.654V139.259z M401.101,137.763c-0.209-0.495-0.693-0.814-1.265-0.814
		c-0.572,0-1.057,0.319-1.266,0.814c-0.121,0.297-0.143,0.462-0.165,0.901h2.86C401.244,138.225,401.222,138.06,401.101,137.763z"/>
	<path fill="#BAA494" d="M407.349,141.756v-0.517c-0.439,0.439-0.836,0.583-1.562,0.583c-0.749,0-1.188-0.144-1.529-0.495
		c-0.265-0.265-0.407-0.672-0.407-1.101c0-0.946,0.66-1.562,1.87-1.562h1.628v-0.517c0-0.792-0.396-1.188-1.386-1.188
		c-0.693,0-1.045,0.165-1.364,0.616l-0.539-0.495c0.484-0.627,1.034-0.803,1.914-0.803c1.452,0,2.167,0.627,2.167,1.804v3.675
		L407.349,141.756L407.349,141.756z M407.349,139.259h-1.518c-0.814,0-1.211,0.33-1.211,0.957s0.386,0.924,1.243,0.924
		c0.463,0,0.869-0.033,1.211-0.363c0.187-0.176,0.274-0.483,0.274-0.935v-0.583H407.349z"/>
	<path fill="#BAA494" d="M411.968,141.756c-0.946,0-1.375-0.616-1.375-1.441v-6.392h0.792v6.358c0,0.528,0.176,0.793,0.727,0.793
		h0.429v0.682L411.968,141.756L411.968,141.756z"/>
	<path fill="#BAA494" d="M415.939,141.756c-0.925,0-1.387-0.649-1.387-1.452v-3.322h-0.682v-0.605h0.682v-1.694h0.792v1.694h1.155
		v0.605h-1.155v3.3c0,0.495,0.231,0.793,0.737,0.793h0.418v0.682h-0.56V141.756z"/>
	<path fill="#BAA494" d="M422.088,141.756v-3.345c0-0.946-0.506-1.43-1.32-1.43c-0.813,0-1.353,0.495-1.353,1.43v3.345h-0.792
		v-7.833h0.792v3.015c0.396-0.451,0.913-0.66,1.518-0.66c1.222,0,1.947,0.781,1.947,2.002v3.477h-0.792V141.756z"/>
</g>
<g>
	<path fill="#BAA494" d="M389.848,154.956v-7.833h0.836v7.833H389.848z"/>
	<path fill="#BAA494" d="M396.821,154.956v-3.333c0-0.958-0.517-1.441-1.331-1.441c-0.813,0-1.342,0.495-1.342,1.441v3.333h-0.792
		v-5.413h0.792v0.595c0.385-0.44,0.913-0.66,1.518-0.66c0.584,0,1.057,0.176,1.387,0.506c0.385,0.374,0.561,0.88,0.561,1.507v3.466
		h-0.793V154.956z"/>
	<path fill="#BAA494" d="M401.606,154.956c-0.925,0-1.387-0.649-1.387-1.452v-3.322h-0.682v-0.605h0.682v-1.694h0.792v1.694h1.155
		v0.605h-1.155v3.3c0,0.495,0.231,0.793,0.737,0.793h0.418v0.682h-0.56V154.956z"/>
	<path fill="#BAA494" d="M407.679,154.406c-0.374,0.374-0.892,0.616-1.552,0.616s-1.177-0.242-1.551-0.616
		c-0.551-0.562-0.66-1.32-0.66-2.156c0-0.837,0.109-1.596,0.66-2.156c0.374-0.374,0.891-0.616,1.551-0.616s1.178,0.242,1.552,0.616
		c0.55,0.561,0.66,1.319,0.66,2.156C408.339,153.086,408.229,153.845,407.679,154.406z M407.117,150.577
		c-0.253-0.253-0.605-0.396-0.99-0.396s-0.726,0.143-0.979,0.396c-0.396,0.396-0.439,1.067-0.439,1.673
		c0,0.604,0.044,1.275,0.439,1.672c0.254,0.253,0.595,0.396,0.979,0.396s0.737-0.144,0.99-0.396
		c0.396-0.396,0.429-1.067,0.429-1.672S407.514,150.974,407.117,150.577z"/>
	<path fill="#BAA494" d="M411.924,154.956c-0.946,0-1.375-0.616-1.375-1.441v-6.392h0.792v6.358c0,0.528,0.176,0.793,0.727,0.793
		h0.429v0.682L411.924,154.956L411.924,154.956z"/>
	<path fill="#BAA494" d="M414.598,152.459c0,1.188,0.561,1.87,1.595,1.87c0.627,0,0.99-0.188,1.419-0.616l0.539,0.473
		c-0.55,0.551-1.056,0.837-1.979,0.837c-1.431,0-2.366-0.858-2.366-2.772c0-1.75,0.848-2.772,2.223-2.772
		c1.397,0,2.223,1.012,2.223,2.618v0.363h-3.654V152.459z M417.293,150.963c-0.209-0.495-0.693-0.814-1.266-0.814
		s-1.056,0.319-1.265,0.814c-0.121,0.297-0.144,0.462-0.165,0.901h2.86C417.436,151.425,417.414,151.26,417.293,150.963z"/>
	<path fill="#BAA494" d="M423.508,150.577c-0.297-0.297-0.518-0.396-0.936-0.396c-0.792,0-1.298,0.627-1.298,1.452v3.322h-0.792
		v-5.413h0.792v0.66c0.297-0.451,0.891-0.726,1.518-0.726c0.518,0,0.913,0.121,1.299,0.506L423.508,150.577z"/>
	<path fill="#BAA494" d="M428.622,154.956v-0.517c-0.439,0.439-0.836,0.583-1.562,0.583c-0.749,0-1.188-0.144-1.529-0.495
		c-0.265-0.265-0.407-0.672-0.407-1.101c0-0.946,0.66-1.562,1.87-1.562h1.628v-0.517c0-0.792-0.396-1.188-1.386-1.188
		c-0.693,0-1.045,0.165-1.364,0.616l-0.539-0.495c0.484-0.627,1.034-0.803,1.914-0.803c1.452,0,2.167,0.627,2.167,1.804v3.675
		L428.622,154.956L428.622,154.956z M428.622,152.459h-1.518c-0.814,0-1.211,0.33-1.211,0.957s0.386,0.924,1.243,0.924
		c0.463,0,0.869-0.033,1.211-0.363c0.187-0.176,0.274-0.483,0.274-0.935v-0.583H428.622z"/>
	<path fill="#BAA494" d="M435.354,154.956v-3.333c0-0.958-0.518-1.441-1.331-1.441c-0.814,0-1.343,0.495-1.343,1.441v3.333h-0.792
		v-5.413h0.792v0.595c0.386-0.44,0.913-0.66,1.519-0.66c0.583,0,1.056,0.176,1.386,0.506c0.386,0.374,0.562,0.88,0.562,1.507v3.466
		h-0.793L435.354,154.956L435.354,154.956z"/>
	<path fill="#BAA494" d="M440.711,155.023c-1.364,0-2.398-0.925-2.398-2.772c0-1.849,1.034-2.772,2.398-2.772
		c0.748,0,1.221,0.197,1.782,0.803l-0.539,0.506c-0.407-0.451-0.727-0.604-1.243-0.604c-0.528,0-0.968,0.209-1.254,0.616
		c-0.254,0.352-0.353,0.77-0.353,1.452c0,0.682,0.099,1.1,0.353,1.452c0.286,0.407,0.726,0.616,1.254,0.616
		c0.517,0,0.836-0.165,1.243-0.616l0.539,0.517C441.932,154.824,441.459,155.023,440.711,155.023z"/>
	<path fill="#BAA494" d="M444.88,152.459c0,1.188,0.561,1.87,1.595,1.87c0.627,0,0.99-0.188,1.419-0.616l0.539,0.473
		c-0.55,0.551-1.056,0.837-1.979,0.837c-1.431,0-2.366-0.858-2.366-2.772c0-1.75,0.848-2.772,2.223-2.772
		c1.397,0,2.223,1.012,2.223,2.618v0.363h-3.654V152.459z M447.575,150.963c-0.209-0.495-0.693-0.814-1.266-0.814
		s-1.056,0.319-1.265,0.814c-0.121,0.297-0.144,0.462-0.165,0.901h2.86C447.718,151.425,447.696,151.26,447.575,150.963z"/>
</g>
<g>
	<path fill="#BAA494" d="M390.684,161.071v2.883h3.433v0.748h-3.433v3.454h-0.836v-7.833h4.862v0.748H390.684z"/>
	<path fill="#BAA494" d="M396.59,161.203v-0.891h0.892v0.891H396.59z M396.634,168.156v-5.413h0.792v5.413H396.634z"/>
	<path fill="#BAA494" d="M401.485,168.156c-0.925,0-1.387-0.649-1.387-1.452v-3.322h-0.682v-0.605h0.682v-1.694h0.792v1.694h1.155
		v0.605h-1.155v3.3c0,0.495,0.231,0.793,0.737,0.793h0.418v0.682h-0.56V168.156z"/>
	<path fill="#BAA494" d="M407.634,168.156v-3.333c0-0.958-0.517-1.441-1.331-1.441c-0.813,0-1.342,0.495-1.342,1.441v3.333h-0.792
		v-5.413h0.792v0.595c0.385-0.44,0.913-0.66,1.518-0.66c0.584,0,1.057,0.176,1.387,0.506c0.385,0.374,0.561,0.88,0.561,1.507v3.466
		h-0.793V168.156z"/>
	<path fill="#BAA494" d="M411.396,165.659c0,1.188,0.561,1.87,1.595,1.87c0.627,0,0.99-0.188,1.419-0.616l0.539,0.473
		c-0.55,0.551-1.056,0.837-1.979,0.837c-1.431,0-2.366-0.858-2.366-2.772c0-1.75,0.848-2.772,2.223-2.772
		c1.397,0,2.223,1.012,2.223,2.618v0.363h-3.654V165.659z M414.092,164.163c-0.209-0.495-0.693-0.814-1.266-0.814
		s-1.056,0.319-1.265,0.814c-0.121,0.297-0.144,0.462-0.165,0.901h2.86C414.234,164.625,414.213,164.46,414.092,164.163z"/>
	<path fill="#BAA494" d="M418.975,168.223c-0.913,0-1.628-0.209-2.222-0.781l0.527-0.528c0.43,0.451,1.013,0.627,1.684,0.627
		c0.892,0,1.441-0.319,1.441-0.957c0-0.473-0.275-0.737-0.902-0.792l-0.891-0.077c-1.057-0.088-1.617-0.562-1.617-1.452
		c0-0.99,0.836-1.584,1.991-1.584c0.77,0,1.463,0.187,1.947,0.583l-0.518,0.517c-0.385-0.297-0.88-0.429-1.441-0.429
		c-0.792,0-1.21,0.341-1.21,0.891c0,0.463,0.264,0.737,0.946,0.793l0.869,0.076c0.946,0.089,1.595,0.451,1.595,1.464
		C421.175,167.617,420.284,168.223,418.975,168.223z"/>
	<path fill="#BAA494" d="M424.805,168.223c-0.913,0-1.628-0.209-2.222-0.781l0.527-0.528c0.43,0.451,1.013,0.627,1.684,0.627
		c0.892,0,1.441-0.319,1.441-0.957c0-0.473-0.275-0.737-0.902-0.792l-0.891-0.077c-1.057-0.088-1.617-0.562-1.617-1.452
		c0-0.99,0.836-1.584,1.991-1.584c0.77,0,1.463,0.187,1.947,0.583l-0.518,0.517c-0.385-0.297-0.88-0.429-1.441-0.429
		c-0.792,0-1.21,0.341-1.21,0.891c0,0.463,0.264,0.737,0.946,0.793l0.869,0.076c0.946,0.089,1.595,0.451,1.595,1.464
		C427.005,167.617,426.114,168.223,424.805,168.223z"/>
</g>
<g>
	<path fill="#BAA494" d="M392.059,181.356h-0.682l-2.575-7.833h0.881l2.035,6.337l2.035-6.337h0.88L392.059,181.356z"/>
	<path fill="#BAA494" d="M396.315,178.859c0,1.188,0.561,1.87,1.595,1.87c0.627,0,0.99-0.188,1.419-0.616l0.539,0.473
		c-0.55,0.551-1.056,0.837-1.979,0.837c-1.431,0-2.366-0.858-2.366-2.772c0-1.75,0.848-2.772,2.223-2.772
		c1.397,0,2.223,1.012,2.223,2.618v0.363h-3.654V178.859z M399.011,177.362c-0.209-0.495-0.693-0.814-1.266-0.814
		s-1.056,0.319-1.265,0.814c-0.121,0.297-0.144,0.462-0.165,0.901h2.86C399.153,177.824,399.132,177.659,399.011,177.362z"/>
	<path fill="#BAA494" d="M403.928,183.842c-0.814,0-1.266-0.209-1.838-0.726l0.518-0.507c0.396,0.353,0.671,0.539,1.298,0.539
		c1.045,0,1.485-0.737,1.485-1.661v-0.847c-0.44,0.561-0.936,0.704-1.519,0.704c-0.55,0-1.022-0.198-1.309-0.484
		c-0.539-0.539-0.66-1.375-0.66-2.255c0-0.881,0.121-1.717,0.66-2.256c0.286-0.286,0.77-0.473,1.32-0.473
		c0.594,0,1.078,0.132,1.518,0.704v-0.639h0.781v5.578C406.183,182.862,405.347,183.842,403.928,183.842z M404.049,176.581
		c-1.178,0-1.354,1.012-1.354,2.024c0,1.012,0.176,2.023,1.354,2.023c1.177,0,1.342-1.012,1.342-2.023
		C405.391,177.593,405.226,176.581,404.049,176.581z"/>
	<path fill="#BAA494" d="M411.781,181.356v-0.517c-0.439,0.439-0.836,0.583-1.562,0.583c-0.749,0-1.188-0.144-1.529-0.495
		c-0.265-0.265-0.407-0.672-0.407-1.101c0-0.946,0.66-1.562,1.87-1.562h1.628v-0.517c0-0.792-0.396-1.188-1.386-1.188
		c-0.693,0-1.045,0.165-1.364,0.616l-0.539-0.495c0.484-0.627,1.034-0.803,1.914-0.803c1.452,0,2.167,0.627,2.167,1.804v3.675
		L411.781,181.356L411.781,181.356z M411.781,178.859h-1.518c-0.814,0-1.211,0.33-1.211,0.957s0.386,0.924,1.243,0.924
		c0.463,0,0.869-0.033,1.211-0.363c0.187-0.176,0.274-0.483,0.274-0.935v-0.583H411.781z"/>
	<path fill="#BAA494" d="M418.514,181.356v-3.333c0-0.958-0.518-1.441-1.331-1.441c-0.814,0-1.343,0.495-1.343,1.441v3.333h-0.792
		v-5.413h0.792v0.595c0.386-0.44,0.913-0.66,1.519-0.66c0.583,0,1.056,0.176,1.386,0.506c0.386,0.374,0.562,0.88,0.562,1.507v3.466
		h-0.793L418.514,181.356L418.514,181.356z"/>
</g>
<g>
	<path fill="#BAA494" d="M394.842,194.556l-4.158-6.282v6.282h-0.836v-7.833h0.792l4.158,6.26v-6.26h0.836v7.833H394.842z"/>
	<path fill="#BAA494" d="M401.717,194.556v-0.605c-0.386,0.44-0.925,0.672-1.529,0.672c-0.583,0-1.067-0.177-1.397-0.507
		c-0.385-0.374-0.55-0.891-0.55-1.518v-3.455h0.792v3.334c0,0.957,0.506,1.441,1.32,1.441c0.813,0,1.353-0.495,1.353-1.441v-3.334
		h0.793v5.413L401.717,194.556L401.717,194.556z"/>
	<path fill="#BAA494" d="M406.545,194.556c-0.924,0-1.386-0.649-1.386-1.452v-3.322h-0.683v-0.605h0.683v-1.694h0.792v1.694h1.155
		v0.605h-1.155v3.3c0,0.495,0.231,0.793,0.737,0.793h0.418v0.682h-0.561V194.556z"/>
	<path fill="#BAA494" d="M412.255,190.177c-0.297-0.297-0.518-0.396-0.936-0.396c-0.792,0-1.298,0.627-1.298,1.452v3.322h-0.792
		v-5.413h0.792v0.66c0.297-0.451,0.891-0.726,1.518-0.726c0.518,0,0.913,0.121,1.299,0.506L412.255,190.177z"/>
	<path fill="#BAA494" d="M414.366,187.603v-0.891h0.891v0.891H414.366z M414.41,194.556v-5.413h0.792v5.413H414.41z"/>
	<path fill="#BAA494" d="M418.238,192.059c0,1.188,0.561,1.87,1.595,1.87c0.627,0,0.99-0.188,1.419-0.616l0.539,0.473
		c-0.55,0.551-1.056,0.837-1.979,0.837c-1.431,0-2.366-0.858-2.366-2.772c0-1.75,0.848-2.772,2.223-2.772
		c1.397,0,2.223,1.012,2.223,2.618v0.363h-3.654V192.059z M420.934,190.563c-0.209-0.495-0.693-0.814-1.266-0.814
		s-1.056,0.319-1.265,0.814c-0.121,0.297-0.144,0.462-0.165,0.901h2.86C421.076,191.025,421.055,190.86,420.934,190.563z"/>
	<path fill="#BAA494" d="M427.577,194.556v-3.333c0-0.958-0.517-1.441-1.331-1.441c-0.813,0-1.342,0.495-1.342,1.441v3.333h-0.792
		v-5.413h0.792v0.595c0.385-0.44,0.913-0.66,1.518-0.66c0.584,0,1.057,0.176,1.387,0.506c0.385,0.374,0.561,0.88,0.561,1.507v3.466
		h-0.793V194.556z"/>
	<path fill="#BAA494" d="M432.362,194.556c-0.925,0-1.387-0.649-1.387-1.452v-3.322h-0.682v-0.605h0.682v-1.694h0.792v1.694h1.155
		v0.605h-1.155v3.3c0,0.495,0.231,0.793,0.737,0.793h0.418v0.682h-0.56V194.556z"/>
	<path fill="#BAA494" d="M436.751,194.622c-0.913,0-1.628-0.209-2.223-0.781l0.528-0.528c0.429,0.451,1.012,0.627,1.684,0.627
		c0.891,0,1.44-0.319,1.44-0.957c0-0.473-0.274-0.737-0.901-0.792l-0.892-0.077c-1.056-0.088-1.617-0.562-1.617-1.452
		c0-0.99,0.836-1.584,1.991-1.584c0.771,0,1.463,0.187,1.947,0.583l-0.517,0.517c-0.386-0.297-0.881-0.429-1.441-0.429
		c-0.792,0-1.21,0.341-1.21,0.891c0,0.463,0.264,0.737,0.945,0.793l0.869,0.076c0.946,0.089,1.596,0.451,1.596,1.464
		C438.951,194.017,438.06,194.622,436.751,194.622z"/>
</g>
<g>
	<path fill="#BAA494" d="M392.146,200.671v7.085h-0.836v-7.085h-2.267v-0.748h5.369v0.748H392.146z"/>
	<path fill="#BAA494" d="M398.725,203.377c-0.297-0.297-0.517-0.396-0.935-0.396c-0.793,0-1.299,0.627-1.299,1.452v3.322h-0.792
		v-5.413h0.792v0.66c0.297-0.451,0.892-0.726,1.519-0.726c0.517,0,0.913,0.121,1.298,0.506L398.725,203.377z"/>
	<path fill="#BAA494" d="M403.84,207.756v-0.517c-0.44,0.439-0.836,0.583-1.562,0.583c-0.748,0-1.188-0.144-1.529-0.495
		c-0.264-0.265-0.407-0.672-0.407-1.101c0-0.946,0.66-1.562,1.87-1.562h1.629v-0.517c0-0.792-0.396-1.188-1.387-1.188
		c-0.692,0-1.045,0.165-1.364,0.616l-0.539-0.495c0.484-0.627,1.034-0.803,1.915-0.803c1.452,0,2.167,0.627,2.167,1.804v3.675
		L403.84,207.756L403.84,207.756z M403.84,205.259h-1.519c-0.814,0-1.21,0.33-1.21,0.957s0.385,0.924,1.243,0.924
		c0.462,0,0.869-0.033,1.21-0.363c0.188-0.176,0.275-0.483,0.275-0.935v-0.583H403.84z"/>
	<path fill="#BAA494" d="M410.34,207.756v-0.649c-0.439,0.572-0.946,0.716-1.54,0.716c-0.55,0-1.034-0.188-1.32-0.474
		c-0.55-0.55-0.66-1.452-0.66-2.299c0-0.848,0.11-1.75,0.66-2.3c0.286-0.286,0.771-0.473,1.32-0.473
		c0.594,0,1.089,0.132,1.529,0.692v-3.047h0.792v7.833L410.34,207.756L410.34,207.756z M408.976,202.982
		c-1.177,0-1.364,1.012-1.364,2.068s0.188,2.068,1.364,2.068c1.178,0,1.354-1.013,1.354-2.068
		C410.329,203.993,410.153,202.982,408.976,202.982z"/>
	<path fill="#BAA494" d="M413.607,200.803v-0.891h0.891v0.891H413.607z M413.651,207.756v-5.413h0.792v5.413H413.651z"/>
	<path fill="#BAA494" d="M418.502,207.756c-0.925,0-1.387-0.649-1.387-1.452v-3.322h-0.682v-0.605h0.682v-1.694h0.792v1.694h1.155
		v0.605h-1.155v3.3c0,0.495,0.231,0.793,0.737,0.793h0.418v0.682h-0.56V207.756z"/>
	<path fill="#BAA494" d="M421.142,200.803v-0.891h0.892v0.891H421.142z M421.186,207.756v-5.413h0.792v5.413H421.186z"/>
	<path fill="#BAA494" d="M427.995,207.206c-0.374,0.374-0.891,0.616-1.551,0.616s-1.178-0.242-1.552-0.616
		c-0.55-0.562-0.66-1.32-0.66-2.156c0-0.837,0.11-1.596,0.66-2.156c0.374-0.374,0.892-0.616,1.552-0.616s1.177,0.242,1.551,0.616
		c0.55,0.561,0.66,1.319,0.66,2.156C428.655,205.886,428.545,206.645,427.995,207.206z M427.435,203.377
		c-0.254-0.253-0.605-0.396-0.99-0.396c-0.386,0-0.727,0.143-0.979,0.396c-0.396,0.396-0.44,1.067-0.44,1.673
		c0,0.604,0.044,1.275,0.44,1.672c0.253,0.253,0.594,0.396,0.979,0.396s0.736-0.144,0.99-0.396c0.396-0.396,0.429-1.067,0.429-1.672
		C427.863,204.445,427.83,203.774,427.435,203.377z"/>
	<path fill="#BAA494" d="M434.353,207.756v-3.333c0-0.958-0.517-1.441-1.331-1.441c-0.813,0-1.342,0.495-1.342,1.441v3.333h-0.792
		v-5.413h0.792v0.595c0.385-0.44,0.913-0.66,1.518-0.66c0.584,0,1.057,0.176,1.387,0.506c0.385,0.374,0.561,0.88,0.561,1.507v3.466
		h-0.793V207.756z"/>
	<path fill="#BAA494" d="M440.688,207.756v-0.517c-0.439,0.439-0.836,0.583-1.562,0.583c-0.749,0-1.188-0.144-1.529-0.495
		c-0.265-0.265-0.407-0.672-0.407-1.101c0-0.946,0.66-1.562,1.87-1.562h1.628v-0.517c0-0.792-0.396-1.188-1.386-1.188
		c-0.693,0-1.045,0.165-1.364,0.616l-0.539-0.495c0.484-0.627,1.034-0.803,1.914-0.803c1.452,0,2.167,0.627,2.167,1.804v3.675
		L440.688,207.756L440.688,207.756z M440.688,205.259h-1.518c-0.814,0-1.211,0.33-1.211,0.957s0.386,0.924,1.243,0.924
		c0.463,0,0.869-0.033,1.211-0.363c0.187-0.176,0.274-0.483,0.274-0.935v-0.583H440.688z"/>
	<path fill="#BAA494" d="M445.309,207.756c-0.946,0-1.375-0.616-1.375-1.441v-6.392h0.792v6.358c0,0.528,0.176,0.793,0.726,0.793
		h0.43v0.682L445.309,207.756L445.309,207.756z"/>
	<path fill="#BAA494" d="M452.019,202.982v4.774h-0.793v-4.774h-0.692v-0.605h0.692v-1.023c0-0.803,0.451-1.452,1.376-1.452h0.571
		v0.683h-0.429c-0.506,0-0.726,0.297-0.726,0.792v1.001h1.154v0.605h-1.153V202.982z"/>
	<path fill="#BAA494" d="M458.321,207.206c-0.374,0.374-0.891,0.616-1.551,0.616s-1.178-0.242-1.552-0.616
		c-0.55-0.562-0.66-1.32-0.66-2.156c0-0.837,0.11-1.596,0.66-2.156c0.374-0.374,0.892-0.616,1.552-0.616s1.177,0.242,1.551,0.616
		c0.55,0.561,0.66,1.319,0.66,2.156C458.981,205.886,458.871,206.645,458.321,207.206z M457.761,203.377
		c-0.254-0.253-0.605-0.396-0.99-0.396c-0.386,0-0.727,0.143-0.979,0.396c-0.396,0.396-0.44,1.067-0.44,1.673
		c0,0.604,0.044,1.275,0.44,1.672c0.253,0.253,0.594,0.396,0.979,0.396s0.736-0.144,0.99-0.396c0.396-0.396,0.429-1.067,0.429-1.672
		C458.189,204.445,458.156,203.774,457.761,203.377z"/>
	<path fill="#BAA494" d="M464.69,207.206c-0.374,0.374-0.891,0.616-1.551,0.616s-1.178-0.242-1.552-0.616
		c-0.55-0.562-0.66-1.32-0.66-2.156c0-0.837,0.11-1.596,0.66-2.156c0.374-0.374,0.892-0.616,1.552-0.616s1.177,0.242,1.551,0.616
		c0.55,0.561,0.66,1.319,0.66,2.156C465.351,205.886,465.24,206.645,464.69,207.206z M464.13,203.377
		c-0.254-0.253-0.605-0.396-0.99-0.396c-0.386,0-0.727,0.143-0.979,0.396c-0.396,0.396-0.44,1.067-0.44,1.673
		c0,0.604,0.044,1.275,0.44,1.672c0.253,0.253,0.594,0.396,0.979,0.396s0.736-0.144,0.99-0.396c0.396-0.396,0.429-1.067,0.429-1.672
		S464.525,203.774,464.13,203.377z"/>
	<path fill="#BAA494" d="M470.828,207.756v-0.649c-0.439,0.572-0.946,0.716-1.54,0.716c-0.55,0-1.034-0.188-1.32-0.474
		c-0.55-0.55-0.66-1.452-0.66-2.299c0-0.848,0.11-1.75,0.66-2.3c0.286-0.286,0.771-0.473,1.32-0.473
		c0.594,0,1.089,0.132,1.529,0.692v-3.047h0.792v7.833L470.828,207.756L470.828,207.756z M469.464,202.982
		c-1.177,0-1.364,1.012-1.364,2.068s0.188,2.068,1.364,2.068c1.178,0,1.354-1.013,1.354-2.068
		C470.817,203.993,470.642,202.982,469.464,202.982z"/>
</g>
<g opacity="0.75">
	<g>
		<g>
			<g>
				<defs>
					<rect id="SVGID_19_" x="250.383" y="217.013" width="264.667" height="8.75"/>
				</defs>
				<clipPath id="SVGID_20_">
					<use xlink:href="#SVGID_19_"  overflow="visible"/>
				</clipPath>
				
					<line clip-path="url(#SVGID_20_)" fill="none" stroke="#BAA494" stroke-width="0.75" x1="259.383" y1="224.388" x2="506.05" y2="224.388"/>
			</g>
		</g>
	</g>
</g>
</svg>
