<?xml version="1.0" encoding="utf-8"?>
<!-- Generator: Adobe Illustrator 19.1.0, SVG Export Plug-In . SVG Version: 6.00 Build 0)  -->
<svg version="1.1" xmlns="http://www.w3.org/2000/svg" xmlns:xlink="http://www.w3.org/1999/xlink" x="0px" y="0px"
	 viewBox="0 0 634.3 841.9" style="enable-background:new 0 0 634.3 841.9;" xml:space="preserve">
<style type="text/css">
	.st0{opacity:0.85;}
	.st1{clip-path:url(#SVGID_2_);fill:none;stroke:#F07E00;stroke-width:0.65;stroke-miterlimit:10;}
	.st2{clip-path:url(#SVGID_4_);fill:none;stroke:#F07E00;stroke-width:0.65;stroke-miterlimit:10;}
	.st3{clip-path:url(#SVGID_6_);fill:none;stroke:#F07E00;stroke-width:0.65;stroke-miterlimit:10;}
	.st4{fill:none;stroke:#000000;stroke-miterlimit:10;}
	.st5{font-family:'Ubuntu-Bold';}
	.st6{font-size:18px;}
	.st7{font-size:14px;}
	.st8{opacity:0.75;fill:#1D8196;}
	.st9{fill:#F07E00;}
	.st10{font-family:'Ubuntu-Light';}
	.st11{font-size:12px;}
</style>
<g id="Fondini">
	<g class="st0">
		<defs>
			<path id="SVGID_1_" class="st0" d="M83.1,539.1c-3.8,0-6.9,2.3-6.9,5.2v210.4c0,2.9,3.1,5.2,6.9,5.2h244.1c3.8,0,6.9-2.3,6.9-5.2
				V544.3c0-2.9-3.1-5.2-6.9-5.2H83.1z"/>
		</defs>
		<clipPath id="SVGID_2_">
			<use xlink:href="#SVGID_1_"  style="overflow:visible;"/>
		</clipPath>
		<path class="st1" d="M498.7,629.6L189.4,862 M496.1,627.6L186.8,860 M493.5,625.6L184.2,857.9 M490.9,623.5L181.6,855.9
			 M488.3,621.5L179,853.9 M485.7,619.5L176.4,851.9 M483.1,617.5L173.8,849.8 M480.5,615.4L171.2,847.8 M477.9,613.4L168.6,845.8
			 M475.3,611.4L166,843.8 M472.7,609.4L163.4,841.8 M470.1,607.3L160.8,839.7 M467.5,605.3L158.2,837.7 M464.9,603.3L155.6,835.7
			 M462.3,601.3L153,833.7 M459.7,599.3L150.4,831.6 M457.1,597.2L147.8,829.6 M454.5,595.2L145.2,827.6 M451.9,593.2L142.6,825.6
			 M449.3,591.2L140,823.5 M446.7,589.1L137.4,821.5 M444.1,587.1L134.8,819.5 M441.5,585.1L132.2,817.5 M438.8,583.1L129.6,815.4
			 M436.2,581L127,813.4 M433.6,579L124.4,811.4 M431,577L121.8,809.4 M428.4,575L119.2,807.3 M425.8,572.9L116.6,805.3
			 M423.2,570.9L114,803.3 M420.6,568.9L111.4,801.3 M418,566.9L108.8,799.2 M415.4,564.8L106.2,797.2 M412.8,562.8L103.6,795.2
			 M410.2,560.8L101,793.2 M407.6,558.8L98.4,791.1 M405,556.7L95.8,789.1 M402.4,554.7L93.2,787.1 M399.8,552.7L90.6,785.1
			 M397.2,550.7L88,783 M394.6,548.6L85.4,781 M392,546.6L82.8,779 M389.4,544.6L80.2,777 M386.8,542.6L77.6,774.9 M384.2,540.5
			L75,772.9 M381.6,538.5L72.4,770.9 M379,536.5L69.8,768.9 M376.4,534.5L67.2,766.8 M373.8,532.4L64.6,764.8 M371.2,530.4L62,762.8
			 M368.6,528.4L59.4,760.8 M366,526.4L56.8,758.7 M363.4,524.3L54.2,756.7 M360.8,522.3L51.5,754.7 M358.2,520.3L48.9,752.7
			 M355.6,518.3L46.3,750.6 M353,516.2L43.7,748.6 M350.4,514.2L41.1,746.6 M347.8,512.2L38.5,744.6 M345.2,510.2L35.9,742.6
			 M342.6,508.1L33.3,740.5 M340,506.1L30.7,738.5 M337.4,504.1L28.1,736.5 M334.8,502.1L25.5,734.5 M332.2,500L22.9,732.4
			 M329.6,498L20.3,730.4 M327,496L17.7,728.4 M324.4,494L15.1,726.4 M321.8,492L12.5,724.3 M319.2,489.9L9.9,722.3 M316.6,487.9
			L7.3,720.3 M314,485.9L4.7,718.3 M311.4,483.9L2.1,716.2 M308.8,481.8L-0.5,714.2 M306.2,479.8L-3.1,712.2 M303.6,477.8
			L-5.7,710.2 M301,475.8L-8.3,708.1 M298.4,473.7L-10.9,706.1 M295.8,471.7L-13.5,704.1 M293.2,469.7L-16.1,702.1 M290.6,467.7
			L-18.7,700 M288,465.6L-21.3,698 M285.4,463.6L-23.9,696 M282.8,461.6L-26.5,694 M280.2,459.6L-29.1,691.9 M277.6,457.5
			L-31.7,689.9 M275,455.5L-34.3,687.9 M272.4,453.5L-36.9,685.9 M269.8,451.5L-39.5,683.8 M267.2,449.4L-42.1,681.8 M264.5,447.4
			L-44.7,679.8 M261.9,445.4L-47.3,677.8 M259.3,443.4L-49.9,675.7 M256.7,441.3L-52.5,673.7 M254.1,439.3L-55.1,671.7 M251.5,437.3
			L-57.7,669.7 M248.9,435.3L-60.3,667.6 M246.3,433.2L-62.9,665.6 M243.7,431.2L-65.5,663.6 M241.1,429.2L-68.1,661.6 M238.5,427.2
			L-70.7,659.5 M235.9,425.1L-73.3,657.5"/>
	</g>
</g>
<g id="X-Y">
	<line class="st4" x1="75.6" y1="760" x2="556.2" y2="760"/>
	<line class="st4" x1="94.1" y1="760" x2="94.1" y2="769.3"/>
	<line class="st4" x1="186.1" y1="760" x2="186.1" y2="769.3"/>
	<line class="st4" x1="278.1" y1="760" x2="278.1" y2="769.3"/>
	<line class="st4" x1="370.1" y1="760" x2="370.1" y2="769.3"/>
	<line class="st4" x1="462.1" y1="760" x2="462.1" y2="769.3"/>
	<line class="st4" x1="554.1" y1="760" x2="554.1" y2="769.3"/>
	<line class="st4" x1="76.1" y1="138.1" x2="76.1" y2="760"/>
	<line class="st4" x1="66.7" y1="736.4" x2="76.1" y2="736.4"/>
	<line class="st4" x1="66.7" y1="571.1" x2="76.1" y2="571.1"/>
	<line class="st4" x1="66.6" y1="406.1" x2="75.9" y2="406.1"/>
	<line class="st4" x1="66.5" y1="240.6" x2="75.8" y2="240.6"/>
</g>
<g id="Valori">
	<text transform="matrix(0 -1 1 0 49.7363 171.8755)" class="st5 st6">IPP</text>
	<text transform="matrix(1 0 0 1 48.7365 241.4376)" class="st5 st7">15</text>
	<text transform="matrix(1 0 0 1 48.7365 406.7711)" class="st5 st7">10</text>
	<text transform="matrix(1 0 0 1 55.0698 572.1041)" class="st5 st7">5</text>
	<text transform="matrix(1 0 0 1 55.0698 737.4378)" class="st5 st7">0</text>
	<g>
		<text transform="matrix(1 0 0 1 89.7217 782.6665)" class="st5 st7">0</text>
	</g>
	<g>
		<text transform="matrix(1 0 0 1 181.7216 782.6665)" class="st5 st7">1</text>
	</g>
	<g>
		<text transform="matrix(1 0 0 1 273.7216 782.6665)" class="st5 st7">2</text>
	</g>
	<g>
		<text transform="matrix(1 0 0 1 365.7216 782.6665)" class="st5 st7">3</text>
	</g>
	<g>
		<text transform="matrix(1 0 0 1 457.7215 782.6665)" class="st5 st7">4</text>
	</g>
	<g>
		<text transform="matrix(1 0 0 1 549.7215 782.6665)" class="st5 st7">5</text>
	</g>
	<text transform="matrix(1 0 0 1 519.3391 740.6667)" class="st5 st6">SNIP</text>
</g>
<g id="Pallocchi_in_massa">
	<circle class="st8" cx="93.4" cy="736.3" r="4.2"/>
	<circle class="st8" cx="158.7" cy="733.4" r="4.2"/>
	<circle class="st8" cx="174.6" cy="731.3" r="4.2"/>
	<circle class="st8" cx="188.7" cy="727" r="4.2"/>
	<circle class="st8" cx="193.7" cy="723.6" r="4.2"/>
	<circle class="st8" cx="103" cy="712.6" r="4.2"/>
	<circle class="st8" cx="99.4" cy="736.3" r="4.2"/>
	<circle class="st8" cx="96.5" cy="732" r="4.2"/>
	<circle class="st8" cx="108.7" cy="716.5" r="4.2"/>
	<circle class="st8" cx="104.4" cy="721.9" r="4.2"/>
	<circle class="st8" cx="103.6" cy="727.8" r="4.2"/>
	<circle class="st8" cx="102.7" cy="731.3" r="4.2"/>
	<circle class="st8" cx="106.9" cy="735.5" r="4.2"/>
	<circle class="st8" cx="155.3" cy="624.4" r="4.2"/>
	<circle class="st8" cx="164.6" cy="624.4" r="4.2"/>
	<circle class="st8" cx="181.6" cy="622.3" r="4.2"/>
	<circle class="st8" cx="183.9" cy="627.3" r="4.2"/>
	<circle class="st8" cx="191.1" cy="628.7" r="4.2"/>
	<circle class="st8" cx="198.3" cy="624.4" r="4.2"/>
	<circle class="st8" cx="194.6" cy="600.7" r="4.2"/>
	<circle class="st8" cx="209.6" cy="620.2" r="4.2"/>
	<circle class="st8" cx="210.8" cy="616.9" r="4.2"/>
	<circle class="st8" cx="211.7" cy="606.3" r="4.2"/>
	<circle class="st8" cx="209.6" cy="597.3" r="4.2"/>
	<circle class="st8" cx="213.8" cy="590.5" r="4.2"/>
	<circle class="st8" cx="210.8" cy="584.5" r="4.2"/>
	<circle class="st8" cx="202.6" cy="582.9" r="4.2"/>
	<circle class="st8" cx="196.2" cy="582" r="4.2"/>
	<circle class="st8" cx="240.1" cy="557.1" r="4.2"/>
	<circle class="st8" cx="240.1" cy="566.6" r="4.2"/>
	<circle class="st8" cx="239" cy="570.1" r="4.2"/>
	<circle class="st8" cx="249.3" cy="575.9" r="4.2"/>
	<circle class="st8" cx="245.1" cy="598.3" r="4.2"/>
	<circle class="st8" cx="227" cy="606.8" r="4.2"/>
	<circle class="st8" cx="246.3" cy="613.8" r="4.2"/>
	<circle class="st8" cx="281" cy="615.9" r="4.2"/>
	<circle class="st8" cx="320.7" cy="547.2" r="4.2"/>
	<circle class="st8" cx="317" cy="560" r="4.2"/>
	<circle class="st8" cx="224.4" cy="725.8" r="4.2"/>
	<circle class="st8" cx="246.4" cy="696.5" r="4.2"/>
	<circle class="st8" cx="272.9" cy="721.5" r="4.2"/>
	<circle class="st8" cx="297" cy="703.3" r="4.2"/>
	<circle class="st8" cx="312.5" cy="720.8" r="4.2"/>
	<circle class="st8" cx="323.7" cy="661.9" r="4.2"/>
	<circle class="st8" cx="282.5" cy="663.7" r="4.2"/>
	<circle class="st8" cx="241.3" cy="665.4" r="4.2"/>
	<circle class="st8" cx="237.1" cy="640.9" r="4.2"/>
	<circle class="st8" cx="226.5" cy="628.7" r="4.2"/>
	<circle class="st8" cx="224.5" cy="634.9" r="4.2"/>
	<circle class="st8" cx="220.2" cy="640.3" r="4.2"/>
	<circle class="st8" cx="223" cy="647.8" r="4.2"/>
	<circle class="st8" cx="218.7" cy="648.8" r="4.2"/>
	<circle class="st8" cx="217" cy="657.3" r="4.2"/>
	<circle class="st8" cx="212.7" cy="660.4" r="4.2"/>
	<circle class="st8" cx="216" cy="661.5" r="4.2"/>
	<circle class="st8" cx="127.2" cy="703.8" r="4.2"/>
	<circle class="st8" cx="131" cy="699.5" r="4.2"/>
	<circle class="st8" cx="132" cy="692.3" r="4.2"/>
	<circle class="st8" cx="131" cy="686.9" r="4.2"/>
	<circle class="st8" cx="134.2" cy="674.9" r="4.2"/>
	<circle class="st8" cx="144" cy="670.7" r="4.2"/>
	<circle class="st8" cx="145.9" cy="663.7" r="4.2"/>
	<circle class="st8" cx="138.5" cy="691" r="4.2"/>
	<circle class="st8" cx="145.4" cy="689.7" r="4.2"/>
	<circle class="st8" cx="148.2" cy="686.8" r="4.2"/>
	<circle class="st8" cx="210.4" cy="715.1" r="4.2"/>
	<circle class="st8" cx="205" cy="716.1" r="4.2"/>
	<circle class="st8" cx="220.7" cy="695.3" r="4.2"/>
	<circle class="st8" cx="223.1" cy="699.5" r="4.2"/>
	<circle class="st8" cx="228.6" cy="700.8" r="4.2"/>
	<circle class="st8" cx="213.9" cy="693.9" r="4.2"/>
	<circle class="st8" cx="214.6" cy="686.8" r="4.2"/>
	<circle class="st8" cx="221.4" cy="688" r="4.2"/>
	<circle class="st8" cx="223.7" cy="681.2" r="4.2"/>
	<circle class="st8" cx="225.6" cy="683.8" r="4.2"/>
	<circle class="st8" cx="155.8" cy="652" r="4.2"/>
	<circle class="st8" cx="159.6" cy="653.5" r="4.2"/>
	<circle class="st8" cx="163.8" cy="650.6" r="4.2"/>
	<circle class="st8" cx="168.6" cy="651.5" r="4.2"/>
	<circle class="st8" cx="169.2" cy="648.3" r="4.2"/>
	<circle class="st8" cx="177.7" cy="650" r="4.2"/>
	<circle class="st8" cx="173.5" cy="635.5" r="4.2"/>
	<circle class="st8" cx="178.6" cy="642.1" r="4.2"/>
	<circle class="st8" cx="180.6" cy="643" r="4.2"/>
	<circle class="st8" cx="192.8" cy="638.2" r="4.2"/>
	<circle class="st8" cx="190.7" cy="645.8" r="4.2"/>
	<circle class="st8" cx="193.6" cy="652.5" r="4.2"/>
	<circle class="st8" cx="198.3" cy="650" r="4.2"/>
	<circle class="st8" cx="205.3" cy="645.5" r="4.2"/>
	<circle class="st8" cx="151.6" cy="664.8" r="4.2"/>
	<circle class="st8" cx="159" cy="671.5" r="4.2"/>
	<circle class="st8" cx="163.2" cy="665.4" r="4.2"/>
	<circle class="st8" cx="169.2" cy="664.7" r="4.2"/>
	<circle class="st8" cx="171.7" cy="673.3" r="4.2"/>
	<circle class="st8" cx="175" cy="658.5" r="4.2"/>
	<circle class="st8" cx="180.6" cy="657.3" r="4.2"/>
	<circle class="st8" cx="184.3" cy="656.8" r="4.2"/>
	<circle class="st8" cx="191.6" cy="658.5" r="4.2"/>
	<circle class="st8" cx="189.8" cy="661.2" r="4.2"/>
	<circle class="st8" cx="192.1" cy="667.3" r="4.2"/>
	<circle class="st8" cx="192.8" cy="667.9" r="4.2"/>
	<circle class="st8" cx="112.1" cy="735.5" r="4.2"/>
	<circle class="st8" cx="103.6" cy="735.5" r="4.2"/>
	<circle class="st8" cx="116.4" cy="734.5" r="4.2"/>
	<circle class="st8" cx="122.5" cy="734.5" r="4.2"/>
	<circle class="st8" cx="126.7" cy="734.5" r="4.2"/>
	<circle class="st8" cx="130" cy="732.9" r="4.2"/>
	<circle class="st8" cx="134.9" cy="733.4" r="4.2"/>
	<circle class="st8" cx="139.7" cy="733.4" r="4.2"/>
	<circle class="st8" cx="145.9" cy="732" r="4.2"/>
	<circle class="st8" cx="148.2" cy="732" r="4.2"/>
	<circle class="st8" cx="154.4" cy="732" r="4.2"/>
	<circle class="st8" cx="178.1" cy="723.6" r="4.2"/>
	<circle class="st8" cx="185.9" cy="721.5" r="4.2"/>
	<circle class="st8" cx="168.1" cy="722.8" r="4.2"/>
	<circle class="st8" cx="172.9" cy="720.4" r="4.2"/>
	<circle class="st8" cx="180.6" cy="662.8" r="4.2"/>
	<circle class="st8" cx="178.1" cy="666.4" r="4.2"/>
	<circle class="st8" cx="174.6" cy="670.7" r="4.2"/>
	<circle class="st8" cx="186.5" cy="667.9" r="4.2"/>
	<circle class="st8" cx="184.8" cy="663.7" r="4.2"/>
	<circle class="st8" cx="184.3" cy="670.7" r="4.2"/>
	<circle class="st8" cx="185.6" cy="678.4" r="4.2"/>
	<circle class="st8" cx="196.4" cy="680.3" r="4.2"/>
	<circle class="st8" cx="201.6" cy="674.2" r="4.2"/>
	<circle class="st8" cx="205.4" cy="671.5" r="4.2"/>
	<circle class="st8" cx="198.3" cy="682.5" r="4.2"/>
	<circle class="st8" cx="153.9" cy="683.8" r="4.2"/>
	<circle class="st8" cx="157.5" cy="680.3" r="4.2"/>
	<circle class="st8" cx="161.7" cy="675.8" r="4.2"/>
	<circle class="st8" cx="166.9" cy="677.5" r="4.2"/>
	<circle class="st8" cx="179.2" cy="674.9" r="4.2"/>
	<circle class="st8" cx="188.7" cy="716.1" r="4.2"/>
	<circle class="st8" cx="195.5" cy="710.8" r="4.2"/>
	<circle class="st8" cx="201.6" cy="707.1" r="4.2"/>
	<circle class="st8" cx="201.6" cy="693.9" r="4.2"/>
	<circle class="st8" cx="202.6" cy="691.2" r="4.2"/>
	<circle class="st8" cx="201.1" cy="696.5" r="4.2"/>
	<circle class="st8" cx="198.3" cy="701.9" r="4.2"/>
	<circle class="st8" cx="175" cy="707.1" r="4.2"/>
	<circle class="st8" cx="125.7" cy="727" r="4.2"/>
	<circle class="st8" cx="129.1" cy="720.8" r="4.2"/>
	<circle class="st8" cx="136.9" cy="713" r="4.2"/>
	<circle class="st8" cx="132" cy="718.5" r="4.2"/>
	<circle class="st8" cx="187" cy="706.1" r="4.2"/>
	<circle class="st8" cx="109.7" cy="722.5" r="4.2"/>
	<circle class="st8" cx="126.7" cy="714.3" r="4.2"/>
	<circle class="st8" cx="132.6" cy="710.4" r="4.2"/>
	<circle class="st8" cx="118.2" cy="718.9" r="4.2"/>
	<circle class="st8" cx="121.5" cy="718.5" r="4.2"/>
	<circle class="st8" cx="124.1" cy="719.3" r="4.2"/>
	<circle class="st8" cx="103.6" cy="726.2" r="4.2"/>
	<circle class="st8" cx="145" cy="721.1" r="4.2"/>
	<circle class="st8" cx="151.6" cy="716.9" r="4.2"/>
	<circle class="st8" cx="120.6" cy="724.6" r="4.2"/>
	<circle class="st8" cx="110.5" cy="724.7" r="4.2"/>
	<circle class="st8" cx="110.1" cy="727.8" r="4.2"/>
	<circle class="st8" cx="107.9" cy="728.9" r="4.2"/>
	<circle class="st8" cx="112.1" cy="728.6" r="4.2"/>
	<circle class="st8" cx="116.4" cy="728.6" r="4.2"/>
	<circle class="st8" cx="122.5" cy="728.6" r="4.2"/>
	<circle class="st8" cx="116.1" cy="723.1" r="4.2"/>
	<circle class="st8" cx="111.8" cy="723.1" r="4.2"/>
	<circle class="st8" cx="131.5" cy="724.4" r="4.2"/>
	<circle class="st8" cx="132.6" cy="726.7" r="4.2"/>
	<circle class="st8" cx="127.2" cy="723.6" r="4.2"/>
	<circle class="st8" cx="123.5" cy="727" r="4.2"/>
	<circle class="st8" cx="128.7" cy="727.8" r="4.2"/>
	<circle class="st8" cx="119.2" cy="724.7" r="4.2"/>
	<circle class="st8" cx="120.6" cy="727.8" r="4.2"/>
	<circle class="st8" cx="119.2" cy="729.6" r="4.2"/>
	<circle class="st8" cx="135.7" cy="718.2" r="4.2"/>
	<circle class="st8" cx="136.9" cy="723.5" r="4.2"/>
	<circle class="st8" cx="137.6" cy="726.2" r="4.2"/>
	<circle class="st8" cx="143.4" cy="725.4" r="4.2"/>
	<circle class="st8" cx="141.8" cy="727.8" r="4.2"/>
	<circle class="st8" cx="140" cy="717.7" r="4.2"/>
	<circle class="st8" cx="134.2" cy="704.6" r="4.2"/>
	<circle class="st8" cx="138.5" cy="708.4" r="4.2"/>
	<circle class="st8" cx="162.9" cy="727.4" r="4.2"/>
	<circle class="st8" cx="136.9" cy="696.5" r="4.2"/>
	<circle class="st8" cx="143.4" cy="695.4" r="4.2"/>
	<circle class="st8" cx="147.6" cy="693.4" r="4.2"/>
	<circle class="st8" cx="152.5" cy="691.8" r="4.2"/>
	<circle class="st8" cx="156.7" cy="688.8" r="4.2"/>
	<circle class="st8" cx="160.1" cy="684.5" r="4.2"/>
	<circle class="st8" cx="161.7" cy="681.2" r="4.2"/>
	<circle class="st8" cx="171.1" cy="679.2" r="4.2"/>
	<circle class="st8" cx="176" cy="678.4" r="4.2"/>
	<circle class="st8" cx="179.6" cy="680.3" r="4.2"/>
	<circle class="st8" cx="182.7" cy="683.8" r="4.2"/>
	<circle class="st8" cx="189.8" cy="681.8" r="4.2"/>
	<circle class="st8" cx="159" cy="716.9" r="4.2"/>
	<circle class="st8" cx="168.9" cy="708" r="4.2"/>
	<circle class="st8" cx="167.5" cy="700.8" r="4.2"/>
	<circle class="st8" cx="171.1" cy="700.8" r="4.2"/>
	<circle class="st8" cx="174.6" cy="698.6" r="4.2"/>
	<circle class="st8" cx="167.5" cy="694.4" r="4.2"/>
	<circle class="st8" cx="171.7" cy="695.3" r="4.2"/>
	<circle class="st8" cx="168.1" cy="688.8" r="4.2"/>
	<circle class="st8" cx="162.9" cy="691.2" r="4.2"/>
	<circle class="st8" cx="164.3" cy="686" r="4.2"/>
	<circle class="st8" cx="167.2" cy="683.8" r="4.2"/>
	<circle class="st8" cx="172.9" cy="683.8" r="4.2"/>
	<circle class="st8" cx="173.2" cy="689.1" r="4.2"/>
	<circle class="st8" cx="176" cy="684.5" r="4.2"/>
	<circle class="st8" cx="176" cy="693" r="4.2"/>
	<circle class="st8" cx="177.4" cy="687.5" r="4.2"/>
	<circle class="st8" cx="181.7" cy="688" r="4.2"/>
	<circle class="st8" cx="187.9" cy="686.8" r="4.2"/>
	<circle class="st8" cx="192.9" cy="689.7" r="4.2"/>
	<circle class="st8" cx="196.9" cy="690.1" r="4.2"/>
	<circle class="st8" cx="195.5" cy="695.4" r="4.2"/>
	<circle class="st8" cx="185.2" cy="692.3" r="4.2"/>
	<circle class="st8" cx="181.3" cy="696" r="4.2"/>
	<circle class="st8" cx="178.9" cy="700.3" r="4.2"/>
	<circle class="st8" cx="178.9" cy="704.5" r="4.2"/>
	<circle class="st8" cx="183.9" cy="700.8" r="4.2"/>
	<circle class="st8" cx="185.6" cy="697.6" r="4.2"/>
	<circle class="st8" cx="188.7" cy="695.3" r="4.2"/>
	<circle class="st8" cx="188.1" cy="700.8" r="4.2"/>
	<circle class="st8" cx="192.8" cy="698.6" r="4.2"/>
	<circle class="st8" cx="193.7" cy="705" r="4.2"/>
	<circle class="st8" cx="194.1" cy="706.9" r="4.2"/>
	<circle class="st8" cx="157.5" cy="692.3" r="4.2"/>
	<circle class="st8" cx="163.2" cy="696" r="4.2"/>
	<circle class="st8" cx="142.4" cy="711.1" r="4.2"/>
	<circle class="st8" cx="142.7" cy="714" r="4.2"/>
	<circle class="st8" cx="147.3" cy="714" r="4.2"/>
	<circle class="st8" cx="151.6" cy="710.4" r="4.2"/>
	<circle class="st8" cx="139.7" cy="700.3" r="4.2"/>
	<circle class="st8" cx="145" cy="700.3" r="4.2"/>
	<circle class="st8" cx="143.4" cy="702.9" r="4.2"/>
	<circle class="st8" cx="146.6" cy="706.6" r="4.2"/>
	<circle class="st8" cx="150.9" cy="697.3" r="4.2"/>
	<circle class="st8" cx="155.1" cy="698.2" r="4.2"/>
	<circle class="st8" cx="161" cy="699.5" r="4.2"/>
	<circle class="st8" cx="163.2" cy="704.1" r="4.2"/>
	<circle class="st8" cx="162.4" cy="706.1" r="4.2"/>
	<circle class="st8" cx="153.9" cy="705.8" r="4.2"/>
	<circle class="st8" cx="150.9" cy="702.6" r="4.2"/>
	<circle class="st8" cx="158.7" cy="702.4" r="4.2"/>
	<circle class="st8" cx="157.5" cy="708.4" r="4.2"/>
	<circle class="st8" cx="157.5" cy="712.3" r="4.2"/>
	<circle class="st8" cx="154.1" cy="709.5" r="4.2"/>
	<circle class="st8" cx="154.7" cy="721.9" r="4.2"/>
	<circle class="st8" cx="150.5" cy="720.1" r="4.2"/>
	<circle class="st8" cx="148.2" cy="725.8" r="4.2"/>
	<circle class="st8" cx="152.8" cy="726.2" r="4.2"/>
	<circle class="st8" cx="157.5" cy="726.2" r="4.2"/>
	<circle class="st8" cx="160.1" cy="721.5" r="4.2"/>
	<circle class="st8" cx="164.3" cy="717.7" r="4.2"/>
	<circle class="st8" cx="162.9" cy="713" r="4.2"/>
	<circle class="st8" cx="164.3" cy="712.6" r="4.2"/>
	<circle class="st8" cx="165.2" cy="713" r="4.2"/>
	<circle class="st8" cx="169.5" cy="713.8" r="4.2"/>
	<circle class="st8" cx="176" cy="713" r="4.2"/>
	<circle class="st8" cx="169.6" cy="717.3" r="4.2"/>
	<circle class="st8" cx="173.2" cy="711.4" r="4.2"/>
	<circle class="st8" cx="180.2" cy="708.8" r="4.2"/>
	<circle class="st8" cx="183.6" cy="712.3" r="4.2"/>
	<circle class="st8" cx="177.1" cy="714" r="4.2"/>
	<circle class="st8" cx="176" cy="717.7" r="4.2"/>
	<circle class="st8" cx="183.6" cy="716.5" r="4.2"/>
	<circle class="st8" cx="180.4" cy="720" r="4.2"/>
	<circle class="st8" cx="191.2" cy="710" r="4.2"/>
	<circle class="st8" cx="191.2" cy="711.4" r="4.2"/>
	<circle class="st8" cx="166" cy="705.8" r="4.2"/>
	<circle class="st8" cx="171.7" cy="708.9" r="4.2"/>
	<circle class="st8" cx="149.6" cy="707.1" r="4.2"/>
</g>
<g id="Pallocchi_arancioni">
	<circle class="st9" cx="242.3" cy="500.3" r="4.2"/>
	<circle class="st9" cx="238.6" cy="492.4" r="4.2"/>
	<circle class="st9" cx="259" cy="498.2" r="4.2"/>
	<circle class="st9" cx="286.3" cy="473.3" r="4.2"/>
	<circle class="st9" cx="389.6" cy="492.7" r="4.2"/>
	<circle class="st9" cx="540.1" cy="159.2" r="4.2"/>
</g>
<g id="Nome_giornali">
	<text transform="matrix(1 0 0 1 483.2255 179.3757)"><tspan x="0" y="0" class="st10 st11">Biology of Mood and </tspan><tspan x="9.8" y="14.4" class="st10 st11">Anxiety Disorders</tspan></text>
	<text transform="matrix(1 0 0 1 251.7921 462.4265)" class="st10 st11">PLoS Biology</text>
	<text transform="matrix(1 0 0 1 138.2142 489.0605)"><tspan x="0" y="0" class="st10 st11">EMBO  Molecular</tspan><tspan x="21.9" y="14.4" class="st10 st11">Medicine</tspan></text>
	<text transform="matrix(1 0 0 1 267.6049 502.0938)" class="st10 st11">PLoS Pathogens</text>
	<text transform="matrix(1 0 0 1 398.1039 496.5939)" class="st10 st11">PLoS Medicine</text>
	<text transform="matrix(1 0 0 1 204.7952 519.3846)" class="st10 st11">PLoS Genetics</text>
</g>
</svg>
