<?xml version="1.0" encoding="utf-8"?>
<!-- Generator: Adobe Illustrator 19.1.0, SVG Export Plug-In . SVG Version: 6.00 Build 0)  -->
<svg version="1.1" xmlns="http://www.w3.org/2000/svg" xmlns:xlink="http://www.w3.org/1999/xlink" x="0px" y="0px"
	 viewBox="-62 272.1 854 286.9" style="enable-background:new -62 272.1 854 286.9;" xml:space="preserve">
<style type="text/css">
	.st0{fill:none;stroke:#000000;}
	.st1{font-family:'Ubuntu-Bold';}
	.st2{font-size:12px;}
	.st3{font-size:10px;}
	.st4{fill:#F68212;}
	.st5{font-family:'Ubuntu-Light';}
	.st6{fill:#2B8394;}
	.st7{fill:none;stroke:#F68212;stroke-width:4;stroke-opacity:0.4;}
	.st8{fill:none;stroke:#2B8394;stroke-width:4;stroke-opacity:0.4;}
</style>
<g id="X-Y">
	<line class="st0" x1="-16" y1="521" x2="-22" y2="521"/>
	<line class="st0" x1="-16" y1="494" x2="-22" y2="494"/>
	<line class="st0" x1="-16" y1="467.1" x2="-22" y2="467.1"/>
	<line class="st0" x1="-16" y1="440.1" x2="-22" y2="440.1"/>
	<line class="st0" x1="-16" y1="413.2" x2="-22" y2="413.2"/>
	<line class="st0" x1="-16" y1="386.2" x2="-22" y2="386.2"/>
	<line class="st0" x1="-16" y1="359.2" x2="-22" y2="359.2"/>
	<line class="st0" x1="-16" y1="332.3" x2="-22" y2="332.3"/>
	<line class="st0" x1="-16" y1="305.3" x2="-22" y2="305.3"/>
	<path class="st0" d="M-22,305.3h6V521h-6"/>
	<line class="st0" x1="111.8" y1="521" x2="105.8" y2="521"/>
	<line class="st0" x1="111.8" y1="494" x2="105.8" y2="494"/>
	<line class="st0" x1="111.8" y1="467.1" x2="105.8" y2="467.1"/>
	<line class="st0" x1="111.8" y1="440.1" x2="105.8" y2="440.1"/>
	<line class="st0" x1="111.8" y1="413.2" x2="105.8" y2="413.2"/>
	<line class="st0" x1="111.8" y1="386.2" x2="105.8" y2="386.2"/>
	<line class="st0" x1="111.8" y1="359.2" x2="105.8" y2="359.2"/>
	<line class="st0" x1="111.8" y1="332.3" x2="105.8" y2="332.3"/>
	<line class="st0" x1="111.8" y1="305.3" x2="105.8" y2="305.3"/>
	<path class="st0" d="M105.8,305.3h6V521h-6"/>
	<line class="st0" x1="239.7" y1="521" x2="233.7" y2="521"/>
	<line class="st0" x1="239.7" y1="494" x2="233.7" y2="494"/>
	<line class="st0" x1="239.7" y1="467.1" x2="233.7" y2="467.1"/>
	<line class="st0" x1="239.7" y1="440.1" x2="233.7" y2="440.1"/>
	<line class="st0" x1="239.7" y1="413.2" x2="233.7" y2="413.2"/>
	<line class="st0" x1="239.7" y1="386.2" x2="233.7" y2="386.2"/>
	<line class="st0" x1="239.7" y1="359.2" x2="233.7" y2="359.2"/>
	<line class="st0" x1="239.7" y1="332.3" x2="233.7" y2="332.3"/>
	<line class="st0" x1="239.7" y1="305.3" x2="233.7" y2="305.3"/>
	<path class="st0" d="M233.7,305.3h6V521h-6"/>
	<line class="st0" x1="367.5" y1="521" x2="361.5" y2="521"/>
	<line class="st0" x1="367.5" y1="494" x2="361.5" y2="494"/>
	<line class="st0" x1="367.5" y1="467.1" x2="361.5" y2="467.1"/>
	<line class="st0" x1="367.5" y1="440.1" x2="361.5" y2="440.1"/>
	<line class="st0" x1="367.5" y1="413.2" x2="361.5" y2="413.2"/>
	<line class="st0" x1="367.5" y1="386.2" x2="361.5" y2="386.2"/>
	<line class="st0" x1="367.5" y1="359.2" x2="361.5" y2="359.2"/>
	<line class="st0" x1="367.5" y1="332.3" x2="361.5" y2="332.3"/>
	<line class="st0" x1="367.5" y1="305.3" x2="361.5" y2="305.3"/>
	<path class="st0" d="M361.5,305.3h6V521h-6"/>
	<line class="st0" x1="495.3" y1="521" x2="489.3" y2="521"/>
	<line class="st0" x1="495.3" y1="494" x2="489.3" y2="494"/>
	<line class="st0" x1="495.3" y1="467.1" x2="489.3" y2="467.1"/>
	<line class="st0" x1="495.3" y1="440.1" x2="489.3" y2="440.1"/>
	<line class="st0" x1="495.3" y1="413.2" x2="489.3" y2="413.2"/>
	<line class="st0" x1="495.3" y1="386.2" x2="489.3" y2="386.2"/>
	<line class="st0" x1="495.3" y1="359.2" x2="489.3" y2="359.2"/>
	<line class="st0" x1="495.3" y1="332.3" x2="489.3" y2="332.3"/>
	<line class="st0" x1="495.3" y1="305.3" x2="489.3" y2="305.3"/>
	<path class="st0" d="M489.3,305.3h6V521h-6"/>
	<line class="st0" x1="623.2" y1="521" x2="617.2" y2="521"/>
	<line class="st0" x1="623.2" y1="494" x2="617.2" y2="494"/>
	<line class="st0" x1="623.2" y1="467.1" x2="617.2" y2="467.1"/>
	<line class="st0" x1="623.2" y1="440.1" x2="617.2" y2="440.1"/>
	<line class="st0" x1="623.2" y1="413.2" x2="617.2" y2="413.2"/>
	<line class="st0" x1="623.2" y1="386.2" x2="617.2" y2="386.2"/>
	<line class="st0" x1="623.2" y1="359.2" x2="617.2" y2="359.2"/>
	<line class="st0" x1="623.2" y1="332.3" x2="617.2" y2="332.3"/>
	<line class="st0" x1="623.2" y1="305.3" x2="617.2" y2="305.3"/>
	<path class="st0" d="M617.2,305.3h6V521h-6"/>
	<line class="st0" x1="751" y1="521" x2="745" y2="521"/>
	<line class="st0" x1="751" y1="494" x2="745" y2="494"/>
	<line class="st0" x1="751" y1="467.1" x2="745" y2="467.1"/>
	<line class="st0" x1="751" y1="440.1" x2="745" y2="440.1"/>
	<line class="st0" x1="751" y1="413.2" x2="745" y2="413.2"/>
	<line class="st0" x1="751" y1="386.2" x2="745" y2="386.2"/>
	<line class="st0" x1="751" y1="359.2" x2="745" y2="359.2"/>
	<line class="st0" x1="751" y1="332.3" x2="745" y2="332.3"/>
	<line class="st0" x1="751" y1="305.3" x2="745" y2="305.3"/>
	<path class="st0" d="M745,305.3h6V521h-6"/>
</g>
<g id="Valori">
	<text transform="matrix(1 0 0 1 -32.6318 293.1195)" class="st1 st2">2008</text>
	<text transform="matrix(1 0 0 1 95.2013 293.1195)" class="st1 st2">2009</text>
	<text transform="matrix(1 0 0 1 223.035 293.1195)" class="st1 st2">2010</text>
	<text transform="matrix(1 0 0 1 350.8682 293.1195)" class="st1 st2">2011</text>
	<text transform="matrix(1 0 0 1 478.7018 293.1195)" class="st1 st2">2012</text>
	<text transform="matrix(1 0 0 1 606.5345 293.1195)" class="st1 st2">2013</text>
	<text transform="matrix(1 0 0 1 734.3682 293.1195)" class="st1 st2">2014</text>
	<text transform="matrix(1 0 0 1 -30.5615 524.2)" class="st1 st3">0</text>
	<text transform="matrix(1 0 0 1 -30.5615 493.7)" class="st1 st3">1</text>
	<text transform="matrix(1 0 0 1 -30.5615 467.0797)" class="st1 st3">2</text>
	<text transform="matrix(1 0 0 1 -30.5615 440.1197)" class="st1 st3">3</text>
	<text transform="matrix(1 0 0 1 -30.5615 412.1803)" class="st1 st3">4</text>
	<text transform="matrix(1 0 0 1 -30.5615 386.1996)" class="st1 st3">5</text>
	<text transform="matrix(1 0 0 1 -30.5615 359.2396)" class="st1 st3">6</text>
	<text transform="matrix(1 0 0 1 -30.5615 332.2795)" class="st1 st3">7</text>
	<text transform="matrix(1 0 0 1 -30.5615 305.3195)" class="st1 st3">8</text>
	<text transform="matrix(1 0 0 1 97.2718 524.2)" class="st1 st3">0</text>
	<text transform="matrix(1 0 0 1 97.2718 493.7)" class="st1 st3">1</text>
	<text transform="matrix(1 0 0 1 97.2718 467.0797)" class="st1 st3">2</text>
	<text transform="matrix(1 0 0 1 97.2718 440.1197)" class="st1 st3">3</text>
	<text transform="matrix(1 0 0 1 97.2718 412.1803)" class="st1 st3">4</text>
	<text transform="matrix(1 0 0 1 97.2718 386.1996)" class="st1 st3">5</text>
	<text transform="matrix(1 0 0 1 97.2718 359.2396)" class="st1 st3">6</text>
	<text transform="matrix(1 0 0 1 97.2718 332.2795)" class="st1 st3">7</text>
	<text transform="matrix(1 0 0 1 97.2718 305.3195)" class="st1 st3">8</text>
	<text transform="matrix(1 0 0 1 225.1052 524.2)" class="st1 st3">0</text>
	<text transform="matrix(1 0 0 1 225.1052 493.7)" class="st1 st3">1</text>
	<text transform="matrix(1 0 0 1 225.1052 467.0797)" class="st1 st3">2</text>
	<text transform="matrix(1 0 0 1 225.1052 412.1803)" class="st1 st3">4</text>
	<text transform="matrix(1 0 0 1 225.1052 386.1996)" class="st1 st3">5</text>
	<text transform="matrix(1 0 0 1 225.1052 359.2396)" class="st1 st3">6</text>
	<text transform="matrix(1 0 0 1 225.1052 332.2795)" class="st1 st3">7</text>
	<text transform="matrix(1 0 0 1 225.1052 305.3195)" class="st1 st3">8</text>
	<text transform="matrix(1 0 0 1 352.9385 524.2)" class="st1 st3">0</text>
	<text transform="matrix(1 0 0 1 352.9385 493.7)" class="st1 st3">1</text>
	<text transform="matrix(1 0 0 1 352.9385 467.0797)" class="st1 st3">2</text>
	<text transform="matrix(1 0 0 1 352.9385 440.1197)" class="st1 st3">3</text>
	<text transform="matrix(1 0 0 1 352.9385 412.1803)" class="st1 st3">4</text>
	<text transform="matrix(1 0 0 1 352.9385 386.1996)" class="st1 st3">5</text>
	<text transform="matrix(1 0 0 1 352.9385 359.2396)" class="st1 st3">6</text>
	<text transform="matrix(1 0 0 1 352.9385 332.2795)" class="st1 st3">7</text>
	<text transform="matrix(1 0 0 1 352.9385 305.3195)" class="st1 st3">8</text>
	<text transform="matrix(1 0 0 1 480.7719 524.2)" class="st1 st3">0</text>
	<text transform="matrix(1 0 0 1 480.7719 493.7)" class="st1 st3">1</text>
	<text transform="matrix(1 0 0 1 480.7719 467.0797)" class="st1 st3">2</text>
	<text transform="matrix(1 0 0 1 480.7719 440.1197)" class="st1 st3">3</text>
	<text transform="matrix(1 0 0 1 480.7719 412.1803)" class="st1 st3">4</text>
	<text transform="matrix(1 0 0 1 480.7719 386.1996)" class="st1 st3">5</text>
	<text transform="matrix(1 0 0 1 480.7719 359.2396)" class="st1 st3">6</text>
	<text transform="matrix(1 0 0 1 480.7719 332.2795)" class="st1 st3">7</text>
	<text transform="matrix(1 0 0 1 480.7719 305.3195)" class="st1 st3">8</text>
	<text transform="matrix(1 0 0 1 608.6052 524.2)" class="st1 st3">0</text>
	<text transform="matrix(1 0 0 1 608.6052 493.7)" class="st1 st3">1</text>
	<text transform="matrix(1 0 0 1 608.6052 467.0797)" class="st1 st3">2</text>
	<text transform="matrix(1 0 0 1 608.6052 440.1197)" class="st1 st3">3</text>
	<text transform="matrix(1 0 0 1 608.6052 412.1803)" class="st1 st3">4</text>
	<text transform="matrix(1 0 0 1 608.6052 386.1996)" class="st1 st3">5</text>
	<text transform="matrix(1 0 0 1 608.6052 359.2396)" class="st1 st3">6</text>
	<text transform="matrix(1 0 0 1 608.6052 332.2795)" class="st1 st3">7</text>
	<text transform="matrix(1 0 0 1 608.6052 305.3195)" class="st1 st3">8</text>
	<text transform="matrix(1 0 0 1 736.4385 524.2)" class="st1 st3">0</text>
	<text transform="matrix(1 0 0 1 736.4385 493.7)" class="st1 st3">1</text>
	<text transform="matrix(1 0 0 1 736.4385 467.0797)" class="st1 st3">2</text>
	<text transform="matrix(1 0 0 1 736.4385 440.1197)" class="st1 st3">3</text>
	<text transform="matrix(1 0 0 1 736.4385 412.1803)" class="st1 st3">4</text>
	<text transform="matrix(1 0 0 1 736.4385 386.1996)" class="st1 st3">5</text>
	<text transform="matrix(1 0 0 1 736.4385 359.2396)" class="st1 st3">6</text>
	<text transform="matrix(1 0 0 1 736.4385 332.2795)" class="st1 st3">7</text>
	<text transform="matrix(1 0 0 1 736.4385 305.3195)" class="st1 st3">8</text>
</g>
<g id="Riviste">
	<g>
		<text transform="matrix(1 0 0 1 140.6667 517.3333)" class="st4 st5 st2">Biology of Mood and Anxiety Disorders</text>
	</g>
	<g>
		<text transform="matrix(0.8241 -0.5664 0.5664 0.8241 115.7378 515.1284)" class="st4 st5 st2">EMBO Molecular Medicine</text>
	</g>
	<g>
		<text transform="matrix(0.9995 -3.081000e-02 3.081000e-02 0.9995 -1.4186 444.7975)" class="st4 st5 st2">PLoS Pathogens</text>
	</g>
	<g>
		<text transform="matrix(0.9945 -0.1049 0.1049 0.9945 122.6874 424.9158)" class="st6 st5 st2">PLoS Medicine</text>
	</g>
	<g>
		<text transform="matrix(0.9969 -7.882000e-02 7.882000e-02 0.9969 -2.2036 417.7501)" class="st4 st5 st2">PLoS Genetics</text>
	</g>
	<g>
		<text transform="matrix(0.9952 -9.752000e-02 9.752000e-02 0.9952 132.6061 373.2612)" class="st6 st5 st2">PLoS Biology</text>
	</g>
</g>
<g id="Linee">
	<path class="st7" d="M-16,521h127.8h127.8h127.8l127.8-32.1l127.8-66.3L751,328.9"/>
	<path class="st7" d="M-16,521h127.8l127.8-87l127.8-29.5l127.8,15.1l127.8-7.4l127.8-1.1"/>
	<path class="st8" d="M-16,398.8l127.8-18.1l127.8-13.4l127.8-21.8l127.8-1.7l127.8,8.1L751,372.6"/>
	<path class="st7" d="M-16,423.3L111.8,413l127.8-51l127.8,15.6l127.8-4.2l127.8,5L751,364.8"/>
	<path class="st8" d="M-16,441l127.8-11.3l127.8-12.4l127.8-0.7l127.8-9.7l127.8-5l127.8-0.6"/>
	<path class="st7" d="M-16,449.2l127.8-3.8l127.8-22.8l127.8-19.3L495.3,416l127.8-9.4l127.8-3.4"/>
</g>
</svg>
