<?xml version="1.0" encoding="utf-8"?>
<!-- Generator: Adobe Illustrator 19.1.0, SVG Export Plug-In . SVG Version: 6.00 Build 0)  -->
<svg version="1.1" xmlns="http://www.w3.org/2000/svg" xmlns:xlink="http://www.w3.org/1999/xlink" x="0px" y="0px"
	 viewBox="0 0 634.3 841.9" style="enable-background:new 0 0 634.3 841.9;" xml:space="preserve">
<style type="text/css">
	.st0{opacity:0.85;}
	.st1{clip-path:url(#SVGID_2_);fill:none;stroke:#F07E00;stroke-width:0.65;stroke-miterlimit:10;}
	.st2{clip-path:url(#SVGID_4_);fill:none;stroke:#F07E00;stroke-width:0.65;stroke-miterlimit:10;}
	.st3{clip-path:url(#SVGID_6_);fill:none;stroke:#F07E00;stroke-width:0.65;stroke-miterlimit:10;}
	.st4{fill:none;stroke:#000000;stroke-miterlimit:10;}
	.st5{font-family:'Ubuntu-Bold';}
	.st6{font-size:14px;}
	.st7{font-size:18px;}
	.st8{opacity:0.75;fill:#1D8196;}
	.st9{fill:#F07E00;}
	.st10{font-family:'Ubuntu-Light';}
</style>
<g id="Fondini">
	<g class="st0">
		<defs>
			<path id="SVGID_3_" class="st0" d="M786.2,538.5c-4.1,0-7.5,2.3-7.5,5.2v210.4c0,2.9,3.3,5.2,7.5,5.2H1050c4.1,0,7.5-2.3,7.5-5.2
				V543.7c0-2.9-3.3-5.2-7.5-5.2H786.2z"/>
		</defs>
		<clipPath id="SVGID_2_">
			<use xlink:href="#SVGID_3_"  style="overflow:visible;"/>
		</clipPath>
		<path class="st1" d="M1235.4,629L901.1,861.4 M1232.6,627L898.3,859.4 M1229.8,625L895.5,857.4 M1227,623L892.7,855.3
			 M1224.1,620.9L889.9,853.3 M1221.3,618.9L887.1,851.3 M1218.5,616.9L884.3,849.3 M1215.7,614.9L881.4,847.2 M1212.9,612.8
			L878.6,845.2 M1210.1,610.8L875.8,843.2 M1207.3,608.8L873,841.2 M1204.5,606.8L870.2,839.2 M1201.6,604.7L867.4,837.1
			 M1198.8,602.7L864.6,835.1 M1196,600.7L861.8,833.1 M1193.2,598.7L858.9,831.1 M1190.4,596.7L856.1,829 M1187.6,594.6L853.3,827
			 M1184.8,592.6L850.5,825 M1182,590.6L847.7,823 M1179.2,588.6L844.9,820.9 M1176.3,586.5L842.1,818.9 M1173.5,584.5L839.3,816.9
			 M1170.7,582.5L836.5,814.9 M1167.9,580.5L833.6,812.8 M1165.1,578.4L830.8,810.8 M1162.3,576.4L828,808.8 M1159.5,574.4
			L825.2,806.8 M1156.7,572.4L822.4,804.7 M1153.8,570.3L819.6,802.7 M1151,568.3L816.8,800.7 M1148.2,566.3L814,798.7
			 M1145.4,564.3L811.1,796.6 M1142.6,562.2L808.3,794.6 M1139.8,560.2L805.5,792.6 M1137,558.2L802.7,790.6 M1134.2,556.2
			L799.9,788.5 M1131.3,554.1L797.1,786.5 M1128.5,552.1L794.3,784.5 M1125.7,550.1L791.5,782.5 M1122.9,548.1L788.6,780.4
			 M1120.1,546L785.8,778.4 M1117.3,544L783,776.4 M1114.5,542L780.2,774.4 M1111.7,540L777.4,772.3 M1108.9,537.9L774.6,770.3
			 M1106,535.9L771.8,768.3 M1103.2,533.9L769,766.3 M1100.4,531.9L766.2,764.2 M1097.6,529.8L763.3,762.2 M1094.8,527.8
			L760.5,760.2 M1092,525.8L757.7,758.2 M1089.2,523.8L754.9,756.1 M1086.4,521.7L752.1,754.1 M1083.5,519.7L749.3,752.1
			 M1080.7,517.7L746.5,750.1 M1077.9,515.7L743.7,748 M1075.1,513.6L740.8,746 M1072.3,511.6L738,744 M1069.5,509.6L735.2,742
			 M1066.7,507.6L732.4,740 M1063.9,505.5L729.6,737.9 M1061.1,503.5L726.8,735.9 M1058.2,501.5L724,733.9 M1055.4,499.5
			L721.2,731.9 M1052.6,497.4L718.4,729.8 M1049.8,495.4L715.5,727.8 M1047,493.4L712.7,725.8 M1044.2,491.4L709.9,723.8
			 M1041.4,489.4L707.1,721.7 M1038.6,487.3L704.3,719.7 M1035.7,485.3L701.5,717.7 M1032.9,483.3L698.7,715.7 M1030.1,481.3
			L695.9,713.6 M1027.3,479.2L693,711.6 M1024.5,477.2L690.2,709.6 M1021.7,475.2L687.4,707.6 M1018.9,473.2L684.6,705.5
			 M1016.1,471.1L681.8,703.5 M1013.3,469.1L679,701.5 M1010.4,467.1L676.2,699.5 M1007.6,465.1L673.4,697.4 M1004.8,463
			L670.6,695.4 M1002,461L667.7,693.4 M999.2,459L664.9,691.4 M996.4,457L662.1,689.3 M993.6,454.9L659.3,687.3 M990.8,452.9
			L656.5,685.3 M987.9,450.9L653.7,683.3 M985.1,448.9L650.9,681.2 M982.3,446.8L648.1,679.2 M979.5,444.8L645.2,677.2 M976.7,442.8
			L642.4,675.2 M973.9,440.8L639.6,673.1 M971.1,438.7L636.8,671.1 M968.3,436.7L634,669.1 M965.4,434.7L631.2,667.1 M962.6,432.7
			L628.4,665 M959.8,430.6L625.6,663 M957,428.6L622.7,661 M954.2,426.6L619.9,659 M951.4,424.6L617.1,656.9"/>
	</g>
	<g class="st0">
		<defs>
			<path id="SVGID_5_" class="st0" d="M83.4,423.6c-4,0-7.3,3.5-7.3,7.9v320.9c0,4.4,3.3,7.9,7.3,7.9H341c4,0,7.3-3.5,7.3-7.9V431.6
				c0-4.4-3.3-7.9-7.3-7.9H83.4z"/>
		</defs>
		<clipPath id="SVGID_4_">
			<use xlink:href="#SVGID_5_"  style="overflow:visible;"/>
		</clipPath>
		<path class="st2" d="M522,561.7L195.6,916.1 M519.3,558.6L192.9,913 M516.5,555.5L190.1,909.9 M513.8,552.4L187.4,906.8
			 M511,549.3L184.6,903.7 M508.3,546.2L181.9,900.6 M505.5,543.1L179.1,897.6 M502.8,540.1L176.4,894.5 M500,537L173.6,891.4
			 M497.3,533.9L170.9,888.3 M494.5,530.8L168.2,885.2 M491.8,527.7L165.4,882.1 M489.1,524.6L162.7,879 M486.3,521.5L159.9,875.9
			 M483.6,518.4L157.2,872.9 M480.8,515.4L154.4,869.8 M478.1,512.3L151.7,866.7 M475.3,509.2L148.9,863.6 M472.6,506.1L146.2,860.5
			 M469.8,503L143.4,857.4 M467.1,499.9L140.7,854.3 M464.3,496.8L138,851.2 M461.6,493.7L135.2,848.2 M458.9,490.7L132.5,845.1
			 M456.1,487.6L129.7,842 M453.4,484.5L127,838.9 M450.6,481.4L124.2,835.8 M447.9,478.3L121.5,832.7 M445.1,475.2L118.7,829.6
			 M442.4,472.1L116,826.5 M439.6,469L113.2,823.5 M436.9,466L110.5,820.4 M434.1,462.9L107.7,817.3 M431.4,459.8L105,814.2
			 M428.7,456.7L102.3,811.1 M425.9,453.6L99.5,808 M423.2,450.5L96.8,804.9 M420.4,447.4L94,801.8 M417.7,444.3L91.3,798.8
			 M414.9,441.3L88.5,795.7 M412.2,438.2L85.8,792.6 M409.4,435.1L83,789.5 M406.7,432L80.3,786.4 M403.9,428.9L77.5,783.3
			 M401.2,425.8L74.8,780.2 M398.5,422.7L72.1,777.1 M395.7,419.6L69.3,774 M393,416.6L66.6,771 M390.2,413.5L63.8,767.9
			 M387.5,410.4L61.1,764.8 M384.7,407.3L58.3,761.7 M382,404.2L55.6,758.6 M379.2,401.1L52.8,755.5 M376.5,398L50.1,752.4
			 M373.7,394.9L47.3,749.3 M371,391.9L44.6,746.3 M368.2,388.8L41.9,743.2 M365.5,385.7L39.1,740.1 M362.8,382.6L36.4,737
			 M360,379.5L33.6,733.9 M357.3,376.4L30.9,730.8 M354.5,373.3L28.1,727.7 M351.8,370.2L25.4,724.6 M349,367.1L22.6,721.6
			 M346.3,364.1L19.9,718.5 M343.5,361L17.1,715.4 M340.8,357.9L14.4,712.3 M338,354.8L11.7,709.2 M335.3,351.7L8.9,706.1
			 M332.6,348.6L6.2,703 M329.8,345.5L3.4,699.9 M327.1,342.4L0.7,696.9 M324.3,339.4L-2.1,693.8 M321.6,336.3L-4.8,690.7
			 M318.8,333.2L-7.6,687.6 M316.1,330.1L-10.3,684.5 M313.3,327L-13.1,681.4 M310.6,323.9L-15.8,678.3 M307.8,320.8L-18.5,675.2
			 M305.1,317.7L-21.3,672.2 M302.4,314.7L-24,669.1 M299.6,311.6L-26.8,666 M296.9,308.5L-29.5,662.9 M294.1,305.4L-32.3,659.8
			 M291.4,302.3L-35,656.7 M288.6,299.2L-37.8,653.6 M285.9,296.1L-40.5,650.5 M283.1,293L-43.3,647.5 M280.4,290L-46,644.4
			 M277.6,286.9L-48.8,641.3 M274.9,283.8L-51.5,638.2 M272.2,280.7L-54.2,635.1 M269.4,277.6L-57,632 M266.7,274.5L-59.7,628.9
			 M263.9,271.4L-62.5,625.8 M261.2,268.3L-65.2,622.8 M258.4,265.3L-68,619.7 M255.7,262.2L-70.7,616.6 M252.9,259.1L-73.5,613.5
			 M250.2,256L-76.2,610.4 M247.4,252.9L-79,607.3 M244.7,249.8L-81.7,604.2"/>
	</g>
</g>
<g id="X-Y">
	<line class="st4" x1="66.7" y1="744.3" x2="76" y2="744.3"/>
	<line class="st4" x1="66.7" y1="662.3" x2="76" y2="662.3"/>
	<line class="st4" x1="66.7" y1="580" x2="76" y2="580"/>
	<line class="st4" x1="66.7" y1="497.7" x2="76" y2="497.7"/>
	<line class="st4" x1="66.7" y1="415.7" x2="76" y2="415.7"/>
	<line class="st4" x1="66.7" y1="333.7" x2="76" y2="333.7"/>
	<line class="st4" x1="75.5" y1="760" x2="556.5" y2="760"/>
	<line class="st4" x1="94.3" y1="760" x2="94.3" y2="769.3"/>
	<line class="st4" x1="186.3" y1="760" x2="186.3" y2="769.3"/>
	<line class="st4" x1="278.3" y1="760" x2="278.3" y2="769.3"/>
	<line class="st4" x1="370.3" y1="760" x2="370.3" y2="769.3"/>
	<line class="st4" x1="462.3" y1="760" x2="462.3" y2="769.3"/>
	<line class="st4" x1="554.3" y1="760" x2="554.3" y2="769.3"/>
	<line class="st4" x1="66.7" y1="251.3" x2="76" y2="251.3"/>
	<line class="st4" x1="66.7" y1="169.3" x2="76" y2="169.3"/>
	<line class="st4" x1="76" y1="140" x2="76" y2="760"/>
</g>
<g id="Valori">
	<g>
		<text transform="matrix(1 0 0 1 56.0002 170.3335)" class="st5 st6">7</text>
	</g>
	<g>
		<text transform="matrix(1 0 0 1 56.0002 252.3333)" class="st5 st6">6</text>
	</g>
	<g>
		<text transform="matrix(1 0 0 1 56.0002 334.6665)" class="st5 st6">5</text>
	</g>
	<g>
		<text transform="matrix(1 0 0 1 56.0002 416.6667)" class="st5 st6">4</text>
	</g>
	<g>
		<text transform="matrix(1 0 0 1 56.0002 498.6668)" class="st5 st6">3</text>
	</g>
	<g>
		<text transform="matrix(1 0 0 1 56.0002 580.9998)" class="st5 st6">2</text>
	</g>
	<g>
		<text transform="matrix(1 0 0 1 56.0002 663.3331)" class="st5 st6">1</text>
	</g>
	<g>
		<text transform="matrix(1 0 0 1 56.0002 745.3335)" class="st5 st6">0</text>
	</g>
	<text transform="matrix(0 -1 1 0 38.6293 173.3335)" class="st5 st7">SJR</text>
	<g>
		<text transform="matrix(1 0 0 1 89.9963 782.6668)" class="st5 st6">0</text>
	</g>
	<g>
		<text transform="matrix(1 0 0 1 181.9962 782.6668)" class="st5 st6">1</text>
	</g>
	<g>
		<text transform="matrix(1 0 0 1 273.9962 782.6668)" class="st5 st6">2</text>
	</g>
	<g>
		<text transform="matrix(1 0 0 1 365.9962 782.6668)" class="st5 st6">3</text>
	</g>
	<g>
		<text transform="matrix(1 0 0 1 457.9961 782.6668)" class="st5 st6">4</text>
	</g>
	<g>
		<text transform="matrix(1 0 0 1 549.9961 782.6668)" class="st5 st6">5</text>
	</g>
	<text transform="matrix(1 0 0 1 521.3496 747.6249)" class="st5 st7">SNIP</text>
</g>
<g id="Pallocchi_in_massa">
	<circle class="st8" cx="282.2" cy="428.8" r="4.2"/>
	<circle class="st8" cx="324.5" cy="504" r="4.2"/>
	<circle class="st8" cx="241.8" cy="457" r="4.2"/>
	<circle class="st8" cx="239.5" cy="496.7" r="4.2"/>
	<circle class="st8" cx="202" cy="535" r="4.2"/>
	<circle class="st8" cx="213" cy="512.5" r="4.2"/>
	<circle class="st8" cx="164.5" cy="530.8" r="4.2"/>
	<circle class="st8" cx="184" cy="575.8" r="4.2"/>
	<circle class="st8" cx="217.2" cy="544.5" r="4.2"/>
	<circle class="st8" cx="248.8" cy="557.5" r="4.2"/>
	<circle class="st8" cx="240.3" cy="567.2" r="4.2"/>
	<circle class="st8" cx="280" cy="576.8" r="4.2"/>
	<circle class="st8" cx="317.5" cy="587.2" r="4.2"/>
	<circle class="st8" cx="297.5" cy="726" r="4.2"/>
	<circle class="st8" cx="311" cy="726" r="4.2"/>
	<circle class="st8" cx="274" cy="682" r="4.2"/>
	<circle class="st8" cx="246" cy="686.2" r="4.2"/>
	<circle class="st8" cx="241.3" cy="678.8" r="4.2"/>
	<circle class="st8" cx="246" cy="659.1" r="4.2"/>
	<circle class="st8" cx="209.8" cy="584.2" r="4.2"/>
	<circle class="st8" cx="245.6" cy="572.5" r="4.2"/>
	<circle class="st8" cx="197.8" cy="544.5" r="4.2"/>
	<circle class="st8" cx="94.3" cy="735.9" r="4.2"/>
	<circle class="st8" cx="101.3" cy="735.9" r="4.2"/>
	<circle class="st8" cx="101.3" cy="729.3" r="4.2"/>
	<circle class="st8" cx="237.1" cy="613.8" r="4.2"/>
	<circle class="st8" cx="226.4" cy="627.4" r="4.2"/>
	<circle class="st8" cx="194.4" cy="608.1" r="4.2"/>
	<circle class="st8" cx="220.1" cy="603.1" r="4.2"/>
	<circle class="st8" cx="224.3" cy="591.5" r="4.2"/>
	<circle class="st8" cx="226.4" cy="593.6" r="4.2"/>
	<circle class="st8" cx="209.9" cy="637.9" r="4.2"/>
	<circle class="st8" cx="210.9" cy="641.4" r="4.2"/>
	<circle class="st8" cx="209.9" cy="649.9" r="4.2"/>
	<circle class="st8" cx="222.2" cy="646.8" r="4.2"/>
	<circle class="st8" cx="223.4" cy="652.8" r="4.2"/>
	<circle class="st8" cx="198.6" cy="641.4" r="4.2"/>
	<circle class="st8" cx="181.9" cy="635.9" r="4.2"/>
	<circle class="st8" cx="178.7" cy="645.7" r="4.2"/>
	<circle class="st8" cx="159.6" cy="628.6" r="4.2"/>
	<circle class="st8" cx="155.3" cy="638.9" r="4.2"/>
	<circle class="st8" cx="135.4" cy="667.6" r="4.2"/>
	<circle class="st8" cx="143.9" cy="658.4" r="4.2"/>
	<circle class="st8" cx="155.3" cy="654.8" r="4.2"/>
	<circle class="st8" cx="131.2" cy="683" r="4.2"/>
	<circle class="st8" cx="131.9" cy="696.1" r="4.2"/>
	<circle class="st8" cx="107.9" cy="710.2" r="4.2"/>
	<circle class="st8" cx="188.8" cy="730.9" r="4.2"/>
	<circle class="st8" cx="224.6" cy="725" r="4.2"/>
	<circle class="st8" cx="228.8" cy="706" r="4.2"/>
	<circle class="st8" cx="220.3" cy="711.7" r="4.2"/>
	<circle class="st8" cx="214.2" cy="720.8" r="4.2"/>
	<circle class="st8" cx="223.4" cy="697" r="4.2"/>
	<circle class="st8" cx="226.4" cy="689.4" r="4.2"/>
	<circle class="st8" cx="223.4" cy="670.2" r="4.2"/>
	<circle class="st8" cx="218.4" cy="676.9" r="4.2"/>
	<circle class="st8" cx="211.8" cy="680.1" r="4.2"/>
	<circle class="st8" cx="216.1" cy="688.5" r="4.2"/>
	<circle class="st8" cx="214.2" cy="698.8" r="4.2"/>
	<circle class="st8" cx="210.9" cy="701.2" r="4.2"/>
	<circle class="st8" cx="204.9" cy="709.8" r="4.2"/>
	<circle class="st8" cx="206.7" cy="663.3" r="4.2"/>
	<circle class="st8" cx="198.8" cy="662.3" r="4.2"/>
	<circle class="st8" cx="191.2" cy="658.1" r="4.2"/>
	<circle class="st8" cx="173.9" cy="659.1" r="4.2"/>
	<circle class="st8" cx="205.7" cy="672.7" r="4.2"/>
	<circle class="st8" cx="201.4" cy="683" r="4.2"/>
	<circle class="st8" cx="193" cy="668.4" r="4.2"/>
	<circle class="st8" cx="181.3" cy="666" r="4.2"/>
	<circle class="st8" cx="185.5" cy="667.6" r="4.2"/>
	<circle class="st8" cx="181.3" cy="670.2" r="4.2"/>
	<circle class="st8" cx="166.6" cy="666.6" r="4.2"/>
	<circle class="st8" cx="152.4" cy="666.6" r="4.2"/>
	<circle class="st8" cx="157.3" cy="670.2" r="4.2"/>
	<circle class="st8" cx="193" cy="723.9" r="4.2"/>
	<circle class="st8" cx="202.4" cy="723.1" r="4.2"/>
	<circle class="st8" cx="196.4" cy="721.8" r="4.2"/>
	<circle class="st8" cx="197.3" cy="716.5" r="4.2"/>
	<circle class="st8" cx="201.4" cy="691.8" r="4.2"/>
	<circle class="st8" cx="203.1" cy="697" r="4.2"/>
	<circle class="st8" cx="195.5" cy="680.1" r="4.2"/>
	<circle class="st8" cx="193" cy="672.7" r="4.2"/>
	<circle class="st8" cx="198.2" cy="675.8" r="4.2"/>
	<circle class="st8" cx="188.8" cy="680.1" r="4.2"/>
	<circle class="st8" cx="178.2" cy="681.2" r="4.2"/>
	<circle class="st8" cx="168.6" cy="680.1" r="4.2"/>
	<circle class="st8" cx="168.6" cy="682" r="4.2"/>
	<circle class="st8" cx="161.5" cy="683" r="4.2"/>
	<circle class="st8" cx="175.1" cy="691.8" r="4.2"/>
	<circle class="st8" cx="175.1" cy="685.2" r="4.2"/>
	<circle class="st8" cx="105.5" cy="735.2" r="4.2"/>
	<circle class="st8" cx="244.8" cy="715.1" r="4.2"/>
	<circle class="st8" cx="110.3" cy="735.9" r="4.2"/>
	<circle class="st8" cx="116.4" cy="735.9" r="4.2"/>
	<circle class="st8" cx="121.1" cy="735.9" r="4.2"/>
	<circle class="st8" cx="127.7" cy="735.2" r="4.2"/>
	<circle class="st8" cx="133.5" cy="735.2" r="4.2"/>
	<circle class="st8" cx="139.7" cy="735.2" r="4.2"/>
	<circle class="st8" cx="147.3" cy="733.5" r="4.2"/>
	<circle class="st8" cx="151.5" cy="733" r="4.2"/>
	<circle class="st8" cx="157.3" cy="733" r="4.2"/>
	<circle class="st8" cx="162.4" cy="729.3" r="4.2"/>
	<circle class="st8" cx="164.5" cy="730.2" r="4.2"/>
	<circle class="st8" cx="168.8" cy="728.7" r="4.2"/>
	<circle class="st8" cx="178.3" cy="730.2" r="4.2"/>
	<circle class="st8" cx="183.6" cy="723.9" r="4.2"/>
	<circle class="st8" cx="146.8" cy="677.8" r="4.2"/>
	<circle class="st8" cx="146.8" cy="692.8" r="4.2"/>
	<circle class="st8" cx="155.8" cy="690.5" r="4.2"/>
	<circle class="st8" cx="127.7" cy="709.8" r="4.2"/>
	<circle class="st8" cx="137.8" cy="705.5" r="4.2"/>
	<circle class="st8" cx="162.4" cy="691.8" r="4.2"/>
	<circle class="st8" cx="153" cy="677.8" r="4.2"/>
	<circle class="st8" cx="161.5" cy="675.8" r="4.2"/>
	<circle class="st8" cx="161.5" cy="662.3" r="4.2"/>
	<circle class="st8" cx="168.8" cy="661.2" r="4.2"/>
	<circle class="st8" cx="177" cy="661.2" r="4.2"/>
	<circle class="st8" cx="173" cy="662.7" r="4.2"/>
	<circle class="st8" cx="162.4" cy="670.8" r="4.2"/>
	<circle class="st8" cx="103.7" cy="725" r="4.2"/>
	<circle class="st8" cx="94.3" cy="731.7" r="4.2"/>
	<circle class="st8" cx="110.3" cy="723.9" r="4.2"/>
	<circle class="st8" cx="121.1" cy="719.7" r="4.2"/>
	<circle class="st8" cx="139.7" cy="698.8" r="4.2"/>
	<circle class="st8" cx="148.8" cy="703" r="4.2"/>
	<circle class="st8" cx="153" cy="700.3" r="4.2"/>
	<circle class="st8" cx="170.8" cy="697" r="4.2"/>
	<circle class="st8" cx="158.1" cy="697" r="4.2"/>
	<circle class="st8" cx="182.4" cy="683" r="4.2"/>
	<circle class="st8" cx="189.8" cy="687.2" r="4.2"/>
	<circle class="st8" cx="191.2" cy="691.5" r="4.2"/>
	<circle class="st8" cx="194" cy="697" r="4.2"/>
	<circle class="st8" cx="199.8" cy="700.3" r="4.2"/>
	<circle class="st8" cx="198.8" cy="704.6" r="4.2"/>
	<circle class="st8" cx="195.5" cy="710.8" r="4.2"/>
	<circle class="st8" cx="185.5" cy="716.5" r="4.2"/>
	<circle class="st8" cx="188.8" cy="714" r="4.2"/>
	<circle class="st8" cx="172.8" cy="725" r="4.2"/>
	<circle class="st8" cx="129.3" cy="718.8" r="4.2"/>
	<circle class="st8" cx="133.5" cy="718.2" r="4.2"/>
	<circle class="st8" cx="117.8" cy="726.7" r="4.2"/>
	<circle class="st8" cx="137.8" cy="715.1" r="4.2"/>
	<circle class="st8" cx="142" cy="710.2" r="4.2"/>
	<circle class="st8" cx="144.5" cy="708" r="4.2"/>
	<circle class="st8" cx="179.3" cy="689.4" r="4.2"/>
	<circle class="st8" cx="184.5" cy="686.2" r="4.2"/>
	<circle class="st8" cx="162.8" cy="698.8" r="4.2"/>
	<circle class="st8" cx="163.4" cy="691.5" r="4.2"/>
	<circle class="st8" cx="106.9" cy="729.3" r="4.2"/>
	<circle class="st8" cx="112.2" cy="729.3" r="4.2"/>
	<circle class="st8" cx="118.8" cy="729.3" r="4.2"/>
	<circle class="st8" cx="123.4" cy="724.5" r="4.2"/>
	<circle class="st8" cx="125" cy="730.2" r="4.2"/>
	<circle class="st8" cx="129.3" cy="725" r="4.2"/>
	<circle class="st8" cx="131.9" cy="728.2" r="4.2"/>
	<circle class="st8" cx="134.8" cy="722.5" r="4.2"/>
	<circle class="st8" cx="140.3" cy="718.8" r="4.2"/>
	<circle class="st8" cx="151.5" cy="719.7" r="4.2"/>
	<circle class="st8" cx="136" cy="728.2" r="4.2"/>
	<circle class="st8" cx="141.1" cy="723.9" r="4.2"/>
	<circle class="st8" cx="142" cy="728.2" r="4.2"/>
	<circle class="st8" cx="144.5" cy="714.5" r="4.2"/>
	<circle class="st8" cx="151.1" cy="707.4" r="4.2"/>
	<circle class="st8" cx="148.8" cy="711.7" r="4.2"/>
	<circle class="st8" cx="158.1" cy="704.6" r="4.2"/>
	<circle class="st8" cx="164.3" cy="704.6" r="4.2"/>
	<circle class="st8" cx="168.5" cy="701.2" r="4.2"/>
	<circle class="st8" cx="175.6" cy="698.8" r="4.2"/>
	<circle class="st8" cx="180.3" cy="694.8" r="4.2"/>
	<circle class="st8" cx="185.5" cy="691.8" r="4.2"/>
	<circle class="st8" cx="186.4" cy="696.7" r="4.2"/>
	<circle class="st8" cx="191.2" cy="701.8" r="4.2"/>
	<circle class="st8" cx="194.6" cy="703.8" r="4.2"/>
	<circle class="st8" cx="181.3" cy="699" r="4.2"/>
	<circle class="st8" cx="186.7" cy="703" r="4.2"/>
	<circle class="st8" cx="190.3" cy="707.4" r="4.2"/>
	<circle class="st8" cx="173" cy="703.8" r="4.2"/>
	<circle class="st8" cx="179.3" cy="703.8" r="4.2"/>
	<circle class="st8" cx="183.6" cy="708.8" r="4.2"/>
	<circle class="st8" cx="175.1" cy="708.8" r="4.2"/>
	<circle class="st8" cx="179.3" cy="713.1" r="4.2"/>
	<circle class="st8" cx="180.3" cy="718.8" r="4.2"/>
	<circle class="st8" cx="178.3" cy="723.9" r="4.2"/>
	<circle class="st8" cx="146.3" cy="720.8" r="4.2"/>
	<circle class="st8" cx="146.3" cy="726" r="4.2"/>
	<circle class="st8" cx="148.8" cy="715.1" r="4.2"/>
	<circle class="st8" cx="167.1" cy="716.8" r="4.2"/>
	<circle class="st8" cx="153.9" cy="713.1" r="4.2"/>
	<circle class="st8" cx="156.7" cy="708.8" r="4.2"/>
	<circle class="st8" cx="162.8" cy="709.8" r="4.2"/>
	<circle class="st8" cx="167.7" cy="708.8" r="4.2"/>
	<circle class="st8" cx="171.9" cy="713.1" r="4.2"/>
	<circle class="st8" cx="173" cy="716.8" r="4.2"/>
	<circle class="st8" cx="161.5" cy="714.5" r="4.2"/>
	<circle class="st8" cx="157.3" cy="716.5" r="4.2"/>
	<circle class="st8" cx="167.1" cy="722.5" r="4.2"/>
	<circle class="st8" cx="151.5" cy="726.7" r="4.2"/>
	<circle class="st8" cx="167.1" cy="716.8" r="4.2"/>
	<circle class="st8" cx="160.1" cy="720.8" r="4.2"/>
	<circle class="st8" cx="161.5" cy="725" r="4.2"/>
	<circle class="st8" cx="153.9" cy="721.8" r="4.2"/>
	<circle class="st8" cx="156.5" cy="725.7" r="4.2"/>
</g>
<g id="Pallocchi_arancioni">
	<g>
		<path class="st9" d="M389.8,376.6c-1.6,0-2.9,1.3-2.9,2.9v0c0,1.6,1.3,2.9,2.9,2.9c1.6,0,2.9-1.3,2.9-2.9v0
			C392.7,377.9,391.4,376.6,389.8,376.6z"/>
	</g>
	<g>
		<path class="st9" d="M258.8,383.2c-1.6,0-2.9,1.3-2.9,2.9v0c0,1.6,1.3,2.9,2.9,2.9c1.6,0,2.9-1.3,2.9-2.9c0,0,0,0,0,0
			C261.7,384.5,260.4,383.2,258.8,383.2z"/>
	</g>
	<g>
		<path class="st9" d="M286,288.9c-1.6,0-2.9,1.3-2.9,2.9c0,0,0,0,0,0c0,1.6,1.3,2.9,2.9,2.9c1.6,0,2.9-1.3,2.9-2.9v0
			C288.8,290.2,287.6,288.9,286,288.9z"/>
	</g>
	<g>
		<path class="st9" d="M540,155.7c-1.6,0-2.9,1.3-2.9,2.9v0c0,1.6,1.3,2.9,2.9,2.9c1.6,0,2.9-1.3,2.9-2.9c0,0,0,0,0,0
			C542.9,157,541.6,155.7,540,155.7z"/>
	</g>
	<g>
		<path class="st9" d="M241.8,265.3c-1.6,0-2.9,1.3-2.9,2.9c0,0,0,0,0,0c0,1.6,1.3,2.9,2.9,2.9c1.6,0,2.9-1.3,2.9-2.9v0
			C244.6,266.6,243.3,265.3,241.8,265.3z"/>
	</g>
	<g>
		<path class="st9" d="M238.9,406.6c-1.6,0-2.9,1.3-2.9,2.9v0c0,1.6,1.3,2.9,2.9,2.9c1.6,0,2.9-1.3,2.9-2.9c0,0,0,0,0,0
			C241.8,407.9,240.5,406.6,238.9,406.6z"/>
	</g>
</g>
<g id="Nome_giornali">
	<text transform="matrix(1 0 0 1 473.6684 179.2525)"><tspan x="0" y="0" class="st10 st6">Biology of Mood and </tspan><tspan x="11.5" y="16.8" class="st10 st6">Anxiety Disorders</tspan></text>
	<text transform="matrix(1 0 0 1 293.8438 296.3004)" class="st10 st6">PLoS Biology</text>
	<text transform="matrix(1 0 0 1 246.7569 414.0065)" class="st10 st6">EMBO Molecular Medicine</text>
	<text transform="matrix(1 0 0 1 266.4961 390.6313)" class="st10 st6">PLoS Pathogens</text>
	<text transform="matrix(1 0 0 1 397.6913 384.0745)" class="st10 st6">PLoS Medicine</text>
	<text transform="matrix(1 0 0 1 249.0069 272.6978)" class="st10 st6">PLoS Genetics</text>
</g>
</svg>
