<?xml version="1.0" encoding="utf-8"?>
<!-- Generator: Adobe Illustrator 19.1.0, SVG Export Plug-In . SVG Version: 6.00 Build 0)  -->
<svg version="1.1" xmlns="http://www.w3.org/2000/svg" xmlns:xlink="http://www.w3.org/1999/xlink" x="0px" y="0px"
	 viewBox="0 0 634.3 841.9" style="enable-background:new 0 0 634.3 841.9;" xml:space="preserve">
<style type="text/css">
	.st0{opacity:0.85;}
	.st1{clip-path:url(#SVGID_2_);fill:none;stroke:#F07E00;stroke-width:0.65;stroke-miterlimit:10;}
	.st2{clip-path:url(#SVGID_4_);fill:none;stroke:#F07E00;stroke-width:0.65;stroke-miterlimit:10;}
	.st3{clip-path:url(#SVGID_6_);fill:none;stroke:#F07E00;stroke-width:0.65;stroke-miterlimit:10;}
	.st4{fill:none;stroke:#000000;stroke-miterlimit:10;}
	.st5{font-family:'Ubuntu-Bold';}
	.st6{font-size:18px;}
	.st7{font-size:14px;}
	.st8{opacity:0.75;fill:#1D8196;}
	.st9{fill:#F07E00;}
	.st10{font-family:'Ubuntu-Light';}
	.st11{font-size:12px;}
</style>
<g id="Fondini">
	<g class="st0">
		<defs>
			<path id="SVGID_3_" class="st0" d="M72.3,538.5c-4.1,0-7.5,2.3-7.5,5.2v210.4c0,2.9,3.3,5.2,7.5,5.2h263.8c4.1,0,7.5-2.3,7.5-5.2
				V543.7c0-2.9-3.3-5.2-7.5-5.2H72.3z"/>
		</defs>
		<clipPath id="SVGID_2_">
			<use xlink:href="#SVGID_3_"  style="overflow:visible;"/>
		</clipPath>
		<path class="st1" d="M521.5,629L187.2,861.4 M518.7,627L184.4,859.4 M515.8,625L181.6,857.4 M513,623L178.8,855.3 M510.2,620.9
			L176,853.3 M507.4,618.9L173.1,851.3 M504.6,616.9L170.3,849.3 M501.8,614.9L167.5,847.2 M499,612.8L164.7,845.2 M496.2,610.8
			L161.9,843.2 M493.4,608.8L159.1,841.2 M490.5,606.8L156.3,839.2 M487.7,604.7L153.5,837.1 M484.9,602.7L150.7,835.1 M482.1,600.7
			L147.8,833.1 M479.3,598.7L145,831.1 M476.5,596.7L142.2,829 M473.7,594.6L139.4,827 M470.9,592.6L136.6,825 M468,590.6L133.8,823
			 M465.2,588.6L131,820.9 M462.4,586.5L128.2,818.9 M459.6,584.5L125.3,816.9 M456.8,582.5L122.5,814.9 M454,580.5L119.7,812.8
			 M451.2,578.4L116.9,810.8 M448.4,576.4L114.1,808.8 M445.6,574.4L111.3,806.8 M442.7,572.4L108.5,804.7 M439.9,570.3L105.7,802.7
			 M437.1,568.3L102.9,800.7 M434.3,566.3L100,798.7 M431.5,564.3L97.2,796.6 M428.7,562.2L94.4,794.6 M425.9,560.2L91.6,792.6
			 M423.1,558.2L88.8,790.6 M420.2,556.2L86,788.5 M417.4,554.1L83.2,786.5 M414.6,552.1L80.4,784.5 M411.8,550.1L77.5,782.5
			 M409,548.1L74.7,780.4 M406.2,546L71.9,778.4 M403.4,544L69.1,776.4 M400.6,542L66.3,774.4 M397.7,540L63.5,772.3 M394.9,537.9
			L60.7,770.3 M392.1,535.9L57.9,768.3 M389.3,533.9L55,766.3 M386.5,531.9L52.2,764.2 M383.7,529.8L49.4,762.2 M380.9,527.8
			L46.6,760.2 M378.1,525.8L43.8,758.2 M375.3,523.8L41,756.1 M372.4,521.7L38.2,754.1 M369.6,519.7L35.4,752.1 M366.8,517.7
			L32.6,750.1 M364,515.7L29.7,748 M361.2,513.6L26.9,746 M358.4,511.6L24.1,744 M355.6,509.6L21.3,742 M352.8,507.6L18.5,740
			 M349.9,505.5L15.7,737.9 M347.1,503.5L12.9,735.9 M344.3,501.5L10.1,733.9 M341.5,499.5L7.2,731.9 M338.7,497.4L4.4,729.8
			 M335.9,495.4L1.6,727.8 M333.1,493.4L-1.2,725.8 M330.3,491.4L-4,723.8 M327.5,489.4L-6.8,721.7 M324.6,487.3L-9.6,719.7
			 M321.8,485.3L-12.4,717.7 M319,483.3L-15.2,715.7 M316.2,481.3L-18.1,713.6 M313.4,479.2L-20.9,711.6 M310.6,477.2L-23.7,709.6
			 M307.8,475.2L-26.5,707.6 M305,473.2L-29.3,705.5 M302.1,471.1L-32.1,703.5 M299.3,469.1L-34.9,701.5 M296.5,467.1L-37.7,699.5
			 M293.7,465.1L-40.6,697.4 M290.9,463L-43.4,695.4 M288.1,461L-46.2,693.4 M285.3,459L-49,691.4 M282.5,457L-51.8,689.3
			 M279.7,454.9L-54.6,687.3 M276.8,452.9L-57.4,685.3 M274,450.9L-60.2,683.3 M271.2,448.9L-63,681.2 M268.4,446.8L-65.9,679.2
			 M265.6,444.8L-68.7,677.2 M262.8,442.8L-71.5,675.2 M260,440.8L-74.3,673.1 M257.2,438.7L-77.1,671.1 M254.3,436.7L-79.9,669.1
			 M251.5,434.7L-82.7,667.1 M248.7,432.7L-85.5,665 M245.9,430.6L-88.4,663 M243.1,428.6L-91.2,661 M240.3,426.6L-94,659
			 M237.5,424.6L-96.8,656.9"/>
	</g>
</g>
<g id="X-Y">
	<line class="st4" x1="330" y1="759.3" x2="330" y2="768.7"/>
	<line class="st4" x1="266.7" y1="759.3" x2="266.7" y2="768.7"/>
	<line class="st4" x1="202.7" y1="759.3" x2="202.7" y2="768.7"/>
	<line class="st4" x1="139.7" y1="759.2" x2="139.7" y2="768.5"/>
	<line class="st4" x1="393.7" y1="759.2" x2="393.7" y2="768.5"/>
	<line class="st4" x1="456.7" y1="759.3" x2="456.7" y2="768.7"/>
	<line class="st4" x1="519.8" y1="759.3" x2="519.8" y2="768.7"/>
	<line class="st4" x1="76.3" y1="759.3" x2="76.3" y2="768.7"/>
	<line class="st4" x1="64.7" y1="139.3" x2="64.7" y2="759.3"/>
	<line class="st4" x1="64.2" y1="759.3" x2="545.2" y2="759.3"/>
	<line class="st4" x1="55.3" y1="737.6" x2="64.7" y2="737.6"/>
	<line class="st4" x1="55.3" y1="572.3" x2="64.7" y2="572.3"/>
	<line class="st4" x1="55.2" y1="407.3" x2="64.5" y2="407.3"/>
	<line class="st4" x1="55.1" y1="241.8" x2="64.4" y2="241.8"/>
</g>
<g id="Valori">
	<text transform="matrix(0 -1 1 0 44.677 164.3755)" class="st5 st6">IPP</text>
	<g>
		<text transform="matrix(1 0 0 1 37.3435 242.6666)" class="st5 st7">15</text>
	</g>
	<g>
		<text transform="matrix(1 0 0 1 37.3435 408.0001)" class="st5 st7">10</text>
	</g>
	<g>
		<text transform="matrix(1 0 0 1 43.6768 573.3331)" class="st5 st7">5</text>
	</g>
	<g>
		<text transform="matrix(1 0 0 1 43.6768 738.6668)" class="st5 st7">0</text>
	</g>
	<text transform="matrix(1 0 0 1 507.839 747.6667)" class="st5 st6">SJR</text>
	<g>
		<text transform="matrix(1 0 0 1 326.6725 782.0001)" class="st5 st7">4</text>
	</g>
	<g>
		<text transform="matrix(1 0 0 1 263.3393 781.9999)" class="st5 st7">3</text>
	</g>
	<g>
		<text transform="matrix(1 0 0 1 199.339 781.9999)" class="st5 st7">2</text>
	</g>
	<g>
		<text transform="matrix(1 0 0 1 136.3393 781.8647)" class="st5 st7">1</text>
	</g>
	<g>
		<text transform="matrix(1 0 0 1 390.3392 781.8646)" class="st5 st7">5</text>
	</g>
	<g>
		<text transform="matrix(1 0 0 1 453.381 781.9999)" class="st5 st7">6</text>
	</g>
	<g>
		<text transform="matrix(1 0 0 1 516.4225 782.0001)" class="st5 st7">7</text>
	</g>
	<g>
		<text transform="matrix(1 0 0 1 72.9228 782.0001)" class="st5 st7">0</text>
	</g>
</g>
<g id="Pallocchi_in_massa">
	<circle class="st8" cx="82.5" cy="736.8" r="4.2"/>
	<circle class="st8" cx="88.7" cy="735.8" r="4.2"/>
	<circle class="st8" cx="98.5" cy="731.5" r="4.2"/>
	<circle class="st8" cx="92.9" cy="733.3" r="4.2"/>
	<circle class="st8" cx="88.7" cy="729.1" r="4.2"/>
	<circle class="st8" cx="82.5" cy="733.3" r="4.2"/>
	<circle class="st8" cx="82.5" cy="726.1" r="4.2"/>
	<circle class="st8" cx="86" cy="721.8" r="4.2"/>
	<circle class="st8" cx="90" cy="724.8" r="4.2"/>
	<circle class="st8" cx="94.3" cy="726.1" r="4.2"/>
	<circle class="st8" cx="97.2" cy="726.1" r="4.2"/>
	<circle class="st8" cx="102.8" cy="721.8" r="4.2"/>
	<circle class="st8" cx="97.2" cy="720.6" r="4.2"/>
	<circle class="st8" cx="94.3" cy="719.4" r="4.2"/>
	<circle class="st8" cx="90" cy="717.6" r="4.2"/>
	<circle class="st8" cx="88.7" cy="714.4" r="4.2"/>
	<circle class="st8" cx="87.5" cy="710.9" r="4.2"/>
	<circle class="st8" cx="94.3" cy="707.9" r="4.2"/>
	<circle class="st8" cx="94.3" cy="712.2" r="4.2"/>
	<circle class="st8" cx="99.5" cy="714.4" r="4.2"/>
	<circle class="st8" cx="107" cy="718.7" r="4.2"/>
	<circle class="st8" cx="113.2" cy="721.8" r="4.2"/>
	<circle class="st8" cx="124.9" cy="721.8" r="4.2"/>
	<circle class="st8" cx="123.4" cy="712.2" r="4.2"/>
	<circle class="st8" cx="135.4" cy="707.9" r="4.2"/>
	<circle class="st8" cx="107.4" cy="713.3" r="4.2"/>
	<circle class="st8" cx="113.2" cy="704.8" r="4.2"/>
	<circle class="st8" cx="108.9" cy="707.9" r="4.2"/>
	<circle class="st8" cx="101.4" cy="706.7" r="4.2"/>
	<circle class="st8" cx="102.8" cy="710.9" r="4.2"/>
	<circle class="st8" cx="101.4" cy="714.4" r="4.2"/>
	<circle class="st8" cx="151.4" cy="687.9" r="4.2"/>
	<circle class="st8" cx="147.2" cy="682.8" r="4.2"/>
	<circle class="st8" cx="91.8" cy="704.8" r="4.2"/>
	<circle class="st8" cx="90" cy="702.9" r="4.2"/>
	<circle class="st8" cx="94.3" cy="697.3" r="4.2"/>
	<circle class="st8" cx="96" cy="700.6" r="4.2"/>
	<circle class="st8" cx="95.3" cy="692.2" r="4.2"/>
	<circle class="st8" cx="101.4" cy="683.7" r="4.2"/>
	<circle class="st8" cx="101.4" cy="689.4" r="4.2"/>
	<circle class="st8" cx="119.9" cy="700.6" r="4.2"/>
	<circle class="st8" cx="122.1" cy="696.3" r="4.2"/>
	<circle class="st8" cx="123.4" cy="694.4" r="4.2"/>
	<circle class="st8" cx="123.4" cy="687" r="4.2"/>
	<circle class="st8" cx="133.4" cy="683.7" r="4.2"/>
	<circle class="st8" cx="137.4" cy="677.4" r="4.2"/>
	<circle class="st8" cx="141.7" cy="670.8" r="4.2"/>
	<circle class="st8" cx="137.6" cy="671.9" r="4.2"/>
	<circle class="st8" cx="135.4" cy="670.8" r="4.2"/>
	<circle class="st8" cx="129.9" cy="676.2" r="4.2"/>
	<circle class="st8" cx="125.7" cy="682.8" r="4.2"/>
	<circle class="st8" cx="117.8" cy="687" r="4.2"/>
	<circle class="st8" cx="116.4" cy="697.3" r="4.2"/>
	<circle class="st8" cx="109.9" cy="695.5" r="4.2"/>
	<circle class="st8" cx="111.3" cy="699.8" r="4.2"/>
	<circle class="st8" cx="105.7" cy="699.3" r="4.2"/>
	<circle class="st8" cx="107.4" cy="702.9" r="4.2"/>
	<circle class="st8" cx="100.3" cy="693" r="4.2"/>
	<circle class="st8" cx="100.3" cy="697.9" r="4.2"/>
	<circle class="st8" cx="102.8" cy="701.5" r="4.2"/>
	<circle class="st8" cx="105.7" cy="692.1" r="4.2"/>
	<circle class="st8" cx="111.7" cy="693" r="4.2"/>
	<circle class="st8" cx="116.4" cy="690.2" r="4.2"/>
	<circle class="st8" cx="110.4" cy="687" r="4.2"/>
	<circle class="st8" cx="105.7" cy="683.7" r="4.2"/>
	<circle class="st8" cx="107.4" cy="681.7" r="4.2"/>
	<circle class="st8" cx="113.6" cy="683.7" r="4.2"/>
	<circle class="st8" cx="107" cy="674.3" r="4.2"/>
	<circle class="st8" cx="113.6" cy="670" r="4.2"/>
	<circle class="st8" cx="113.2" cy="674.3" r="4.2"/>
	<circle class="st8" cx="113.2" cy="677.4" r="4.2"/>
	<circle class="st8" cx="117.8" cy="679.4" r="4.2"/>
	<circle class="st8" cx="121.4" cy="683.7" r="4.2"/>
	<circle class="st8" cx="119.9" cy="688.8" r="4.2"/>
	<circle class="st8" cx="165.1" cy="654" r="4.2"/>
	<circle class="st8" cx="177.2" cy="642.1" r="4.2"/>
	<circle class="st8" cx="184.7" cy="640.9" r="4.2"/>
	<circle class="st8" cx="194.3" cy="635.7" r="4.2"/>
	<circle class="st8" cx="206.1" cy="628" r="4.2"/>
	<circle class="st8" cx="206.1" cy="617.4" r="4.2"/>
	<circle class="st8" cx="240.9" cy="625.2" r="4.2"/>
	<circle class="st8" cx="262.4" cy="663.4" r="4.2"/>
	<circle class="st8" cx="166.3" cy="629.4" r="4.2"/>
	<circle class="st8" cx="155.7" cy="617.4" r="4.2"/>
	<circle class="st8" cx="159.9" cy="622.8" r="4.2"/>
	<circle class="st8" cx="157.8" cy="621.7" r="4.2"/>
	<circle class="st8" cx="157.8" cy="625.2" r="4.2"/>
	<circle class="st8" cx="154.8" cy="625.2" r="4.2"/>
	<circle class="st8" cx="141.8" cy="615" r="4.2"/>
	<circle class="st8" cx="125.7" cy="629.4" r="4.2"/>
	<circle class="st8" cx="112.1" cy="643.2" r="4.2"/>
	<circle class="st8" cx="122.1" cy="676.8" r="4.2"/>
	<circle class="st8" cx="126.9" cy="676.8" r="4.2"/>
	<circle class="st8" cx="129.1" cy="678.5" r="4.2"/>
	<circle class="st8" cx="117.4" cy="673.2" r="4.2"/>
	<circle class="st8" cx="118.4" cy="665.3" r="4.2"/>
	<circle class="st8" cx="121.7" cy="668.9" r="4.2"/>
	<circle class="st8" cx="125.7" cy="670.9" r="4.2"/>
	<circle class="st8" cx="131.2" cy="669.5" r="4.2"/>
	<circle class="st8" cx="119.1" cy="657.6" r="4.2"/>
	<circle class="st8" cx="122.7" cy="661.8" r="4.2"/>
	<circle class="st8" cx="126.9" cy="663.4" r="4.2"/>
	<circle class="st8" cx="133.8" cy="662.5" r="4.2"/>
	<circle class="st8" cx="136.4" cy="662.4" r="4.2"/>
	<circle class="st8" cx="136.3" cy="665.8" r="4.2"/>
	<circle class="st8" cx="142.9" cy="659.2" r="4.2"/>
	<circle class="st8" cx="145.2" cy="652.1" r="4.2"/>
	<circle class="st8" cx="141.8" cy="646.3" r="4.2"/>
	<circle class="st8" cx="138.7" cy="636.1" r="4.2"/>
	<circle class="st8" cx="134.4" cy="638.9" r="4.2"/>
	<circle class="st8" cx="131.2" cy="645.9" r="4.2"/>
	<circle class="st8" cx="136.3" cy="644.6" r="4.2"/>
	<circle class="st8" cx="124" cy="648.8" r="4.2"/>
	<circle class="st8" cx="125.7" cy="655.5" r="4.2"/>
	<circle class="st8" cx="130.2" cy="651.3" r="4.2"/>
	<circle class="st8" cx="134.4" cy="649.8" r="4.2"/>
	<circle class="st8" cx="139.1" cy="650.6" r="4.2"/>
	<circle class="st8" cx="137.8" cy="654.7" r="4.2"/>
	<circle class="st8" cx="133.5" cy="654.7" r="4.2"/>
	<circle class="st8" cx="129.9" cy="657.3" r="4.2"/>
	<circle class="st8" cx="131.2" cy="656.8" r="4.2"/>
	<circle class="st8" cx="152.9" cy="643.3" r="4.2"/>
	<circle class="st8" cx="149.3" cy="598.1" r="4.2"/>
	<circle class="st8" cx="156.4" cy="585.3" r="4.2"/>
	<circle class="st8" cx="180.9" cy="601.4" r="4.2"/>
	<circle class="st8" cx="192" cy="608" r="4.2"/>
	<circle class="st8" cx="198.8" cy="607.3" r="4.2"/>
	<circle class="st8" cx="209.5" cy="599.1" r="4.2"/>
	<circle class="st8" cx="219.8" cy="576.3" r="4.2"/>
	<circle class="st8" cx="231.3" cy="583.3" r="4.2"/>
	<circle class="st8" cx="238" cy="584.3" r="4.2"/>
	<circle class="st8" cx="320.4" cy="665.3" r="4.2"/>
	<circle class="st8" cx="255.4" cy="591.8" r="4.2"/>
	<circle class="st8" cx="267.6" cy="570" r="4.2"/>
	<circle class="st8" cx="300.2" cy="567.8" r="4.2"/>
	<circle class="st8" cx="336.7" cy="548.3" r="4.2"/>
	<circle class="st8" cx="212.5" cy="558" r="4.2"/>
	<circle class="st8" cx="198.8" cy="560.8" r="4.2"/>
</g>
<g id="Pallocchi_arancioni">
	<circle class="st9" cx="334.7" cy="493.6" r="4.2"/>
	<circle class="st9" cx="353.2" cy="498.9" r="4.2"/>
	<circle class="st9" cx="358" cy="493.6" r="4.2"/>
	<circle class="st9" cx="425.4" cy="474.5" r="4.2"/>
	<circle class="st9" cx="443.6" cy="500.4" r="4.2"/>
	<circle class="st9" cx="528.2" cy="160.1" r="4.2"/>
</g>
<g id="Nome_giornali">
	<text transform="matrix(1 0 0 1 471.3321 180.3932)"><tspan x="0" y="0" class="st10 st11">Biology of Mood and </tspan><tspan x="9.8" y="14.4" class="st10 st11">Anxiety Disorders</tspan></text>
	<text transform="matrix(1 0 0 1 434.0103 478.4029)" class="st10 st11">PLoS Biology</text>
	<text transform="matrix(1 0 0 1 184.6875 497.4865)" class="st10 st11">EMBO Molecular Medicine</text>
	<text transform="matrix(1 0 0 1 340.0297 518.9081)"><tspan x="0" y="0" class="st10 st11">PLoS</tspan><tspan x="-15.4" y="14.4" class="st10 st11">Pathogens</tspan></text>
	<text transform="matrix(1 0 0 1 348.4946 469.7054)"><tspan x="0" y="0" class="st10 st11">PLoS </tspan><tspan x="-9.8" y="14.4" class="st10 st11">Medicine</tspan></text>
	<text transform="matrix(1 0 0 1 452.8307 504.344)" class="st10 st11">PLoS Genetics</text>
</g>
</svg>
