<?xml version="1.0" encoding="utf-8"?>
<!-- Generator: Adobe Illustrator 19.1.0, SVG Export Plug-In . SVG Version: 6.00 Build 0)  -->
<svg version="1.1" id="Livello_1" xmlns="http://www.w3.org/2000/svg" xmlns:xlink="http://www.w3.org/1999/xlink" x="0px" y="0px"
	 viewBox="2972 -1.9 1926.4 563.9" style="enable-background:new 2972 -1.9 1926.4 563.9;" xml:space="preserve">
<style type="text/css">
	.st0{fill:none;stroke:#F6E9B7;stroke-width:249.185;stroke-opacity:0.4;}
	.st1{fill:none;stroke:#F6E9B7;stroke-width:30.8152;stroke-opacity:0.4;}
	.st2{fill:none;stroke:#F6E9B7;stroke-width:215.358;stroke-opacity:0.4;}
	.st3{fill:none;stroke:#EADC7E;stroke-width:19.7635;stroke-opacity:0.4;}
	.st4{fill:none;stroke:#EADC7E;stroke-width:7.5918;stroke-opacity:0.4;}
	.st5{fill:none;stroke:#EADC7E;stroke-width:2.9869;stroke-opacity:0.4;}
	.st6{fill:none;stroke:#EADC7E;stroke-opacity:0.4;}
	.st7{fill:none;stroke:#F68212;stroke-width:17.0006;stroke-opacity:0.4;}
	.st8{fill:none;stroke:#F68212;stroke-width:8.3883;stroke-opacity:0.4;}
	.st9{fill:none;stroke:#F68212;stroke-width:8.0647;stroke-opacity:0.4;}
	.st10{fill:none;stroke:#F68212;stroke-opacity:0.4;}
	.st11{fill:none;stroke:#F6E9B7;stroke-width:208.09;stroke-opacity:0.4;}
	.st12{fill:none;stroke:#F6E9B7;stroke-width:3.7088;stroke-opacity:0.4;}
	.st13{fill:none;stroke:#F6E9B7;stroke-width:1.7424;stroke-opacity:0.4;}
	.st14{fill:none;stroke:#F6E9B7;stroke-opacity:0.4;}
	.st15{fill:none;stroke:#F6E9B7;stroke-width:2.42;stroke-opacity:0.4;}
	.st16{fill:none;stroke:#2B8394;stroke-width:13.3167;stroke-opacity:0.4;}
	.st17{fill:none;stroke:#2B8394;stroke-width:7.1189;stroke-opacity:0.4;}
	.st18{fill:none;stroke:#2B8394;stroke-width:3.435;stroke-opacity:0.4;}
	.st19{fill:none;stroke:#2B8394;stroke-width:2.514;stroke-opacity:0.4;}
	.st20{fill:none;stroke:#2B8394;stroke-width:1.3192;stroke-opacity:0.4;}
	.st21{fill:none;stroke:#2B8394;stroke-opacity:0.4;}
	.st22{fill:none;stroke:#2B8394;stroke-width:3.507;stroke-opacity:0.4;}
	.st23{fill:none;stroke:#2B8394;stroke-width:1.631;stroke-opacity:0.4;}
	.st24{fill:none;stroke:#2B8394;stroke-width:1.436;stroke-opacity:0.4;}
	.st25{fill:none;stroke:#2B8394;stroke-width:0.19;stroke-opacity:0.4;}
	.st26{fill:none;stroke:#206774;stroke-width:15.4076;stroke-opacity:0.4;}
	.st27{fill:none;stroke:#206774;stroke-width:2.9372;stroke-opacity:0.4;}
	.st28{fill:none;stroke:#206774;stroke-opacity:0.4;}
	.st29{fill:none;stroke:#C96D26;stroke-opacity:0.4;}
	.st30{fill:none;stroke:#09224C;stroke-width:5.9739;stroke-opacity:0.4;}
	.st31{fill:none;stroke:#09224C;stroke-width:3.6839;stroke-opacity:0.4;}
	.st32{fill:none;stroke:#09224C;stroke-width:3.0865;stroke-opacity:0.4;}
	.st33{fill:none;stroke:#09224C;stroke-width:1.2694;stroke-opacity:0.4;}
	.st34{fill:none;stroke:#09224C;stroke-opacity:0.4;}
	.st35{font-family:'Ubuntu-Light';}
	.st36{font-size:16px;}
	.st37{font-size:14px;}
</style>
<g id="Livello_2">
	<path class="st0" d="M3045.2,279c243.3,0,243.3-5,486.7-5"/>
	<path class="st1" d="M3045.2,419c243.3,0,243.3,5,486.7,5"/>
</g>
<g id="Livello_3">
	<path class="st2" d="M3541.9,257.1c243.3,0,243.3-20,486.7-20"/>
</g>
<g id="Livello_4">
	<path class="st3" d="M3541.9,418.7c243.3,0,243.3-45.8,486.7-45.8"/>
	<path class="st4" d="M3541.9,435.4c243.3,0,243.3-0.4,486.7-0.4"/>
	<path class="st5" d="M3541.9,430.1c243.3,0,243.3-18.8,486.7-18.8"/>
	<path class="st6" d="M3541.9,439.3c243.3,0,243.3,9.8,486.7,9.8"/>
	<path class="st6" d="M3541.9,408.7c243.3,0,243.3-63.8,486.7-63.8"/>
	<path class="st6" d="M3541.9,439.4c243.3,0,243.3,20,486.7,20"/>
</g>
<g id="Livello_5">
	<path class="st7" d="M3541.9,381.3c243.3,0,243.3,20,486.7,20"/>
	<path class="st8" d="M3541.9,394c243.3,0,243.3,33,486.7,33"/>
	<path class="st9" d="M3541.9,368.8c243.3,0,243.3-9.8,486.7-9.8"/>
	<path class="st10" d="M3541.9,398.5c243.3,0,243.3,60.8,486.7,60.8"/>
	<path class="st10" d="M3541.9,398.3c243.3,0,243.3,50.6,486.7,50.6"/>
</g>
<g id="Livello_7">
	<path class="st11" d="M4038.5,233.4c243.3,0,243.3-5,486.7-5"/>
	<path class="st12" d="M4038.5,339.3c243.3,0,243.3,40.1,486.7,40.1"/>
	<path class="st13" d="M4038.5,342.1c243.3,0,243.3,63.4,486.7,63.4"/>
	<path class="st14" d="M4038.5,344.6c243.3,0,243.3,102.9,486.7,102.9"/>
	<path class="st14" d="M4038.5,343.3c243.3,0,243.3,77.6,486.7,77.6"/>
	<path class="st14" d="M4038.5,343.9c243.3,0,243.3,90.7,486.7,90.7"/>
	<path class="st15" d="M4525.2,125.8c150,0,180,33.8,294,33.8"/>
</g>
<g id="Livello_8">
	<path class="st16" d="M4038.5,361.6c243.3,0,243.3-22.5,486.7-22.5"/>
	<path class="st17" d="M4038.5,371.9c243.3,0,243.3,13,486.7,13"/>
	<path class="st18" d="M4038.5,379.6c243.3,0,243.3,43.3,486.7,43.3"/>
	<path class="st19" d="M4038.5,376.7c243.3,0,243.3,30.9,486.7,30.9"/>
	<path class="st20" d="M4038.5,382c243.3,0,243.3,53.6,486.7,53.6"/>
	<path class="st21" d="M4038.5,382.7c243.3,0,243.3,65.2,486.7,65.2"/>
	<path class="st22" d="M4530.2,379.4c164.3,0,156.3-235.8,289-235.8"/>
	<path class="st22" d="M4530.2,406.3c151.7,0,165-281.1,289-281.1"/>
	<path class="st23" d="M4530.2,421.8c151.7,0,165-251.5,289-251.5"/>
	<path class="st24" d="M4530.2,435c151.7,0,165-253.8,289-253.8"/>
	<path class="st25" d="M4530.2,447.3c151.7,0,165-252.8,289-252.8"/>
</g>
<g id="Livello_6">
	<path class="st26" d="M4038.5,400.5c243.3,0,243.3-47,486.7-47"/>
	<path class="st27" d="M4038.5,409.7c243.3,0,243.3-19.8,486.7-19.8"/>
	<path class="st28" d="M4038.5,412.4c243.3,0,243.3,36,486.7,36"/>
	<path class="st28" d="M4038.5,411.4c243.3,0,243.3-2.3,486.7-2.3"/>
	<path class="st28" d="M4038.5,411.8c243.3,0,243.3,13.1,486.7,13.1"/>
	<path class="st28" d="M4038.5,411.9c243.3,0,243.3,24.4,486.7,24.4"/>
</g>
<g id="Livello_9">
	<path class="st29" d="M4038.5,459.3c243.3,0,243.3-91.8,486.7-91.8"/>
	<path class="st29" d="M4038.5,459.4c243.3,0,243.3-64.8,486.7-64.8"/>
	<path class="st29" d="M4038.5,459.4c243.3,0,243.3-33.8,486.7-33.8"/>
	<path class="st29" d="M4038.5,459.4c243.3,0,243.3-48.8,486.7-48.8"/>
	<path class="st29" d="M4038.5,459.4c243.3,0,243.3-22,486.7-22"/>
	<path class="st29" d="M4038.5,459.4c243.3,0,243.3-10.2,486.7-10.2"/>
</g>
<g id="Livello_10">
	<path class="st10" d="M4038.5,448.9c243.3,0,243.3-81.6,486.7-81.6"/>
	<path class="st10" d="M4038.5,449c243.3,0,243.3-54.5,486.7-54.5"/>
	<path class="st10" d="M4038.5,449.1c243.3,0,243.3-23.6,486.7-23.6"/>
	<path class="st10" d="M4038.5,449.1c243.3,0,243.3-38.5,486.7-38.5"/>
	<path class="st10" d="M4038.5,449.2c243.3,0,243.3-11.8,486.7-11.8"/>
	<path class="st10" d="M4038.5,449.2c243.3,0,243.3,0.1,486.7,0.1"/>
</g>
<g id="Livello_11">
	<path class="st30" d="M4038.5,425.8c243.3,0,243.3-61.6,486.7-61.6"/>
	<path class="st31" d="M4038.5,435.6c243.3,0,243.3-66,486.7-66"/>
	<path class="st32" d="M4038.5,430.3c243.3,0,243.3-37.4,486.7-37.4"/>
	<path class="st33" d="M4038.5,432.5c243.3,0,243.3-22.5,486.7-22.5"/>
	<path class="st34" d="M4038.5,437.9c243.3,0,243.3-1,486.7-1"/>
	<path class="st34" d="M4038.5,433.4c243.3,0,243.3-8.2,486.7-8.2"/>
	<path class="st34" d="M4038.5,438.6c243.3,0,243.3,10.4,486.7,10.4"/>
</g>
<g transform="translate(1490,940.3748099637469)">
	<rect x="3329.2" y="-798.5" width="10" height="3.5">
	<title>DOAJ
129</title>
	</rect>
</g>
<rect x="4819.2" y="194.3" width="10" height="0.2">
<title>LatinIndex
7</title>
</rect>
<rect x="4819.2" y="158.5" width="10" height="2.4">
<title>None
89</title>
</rect>
<rect x="4819.2" y="169.4" width="10" height="1.6">
<title>PubMed Central
60</title>
</rect>
<g transform="translate(1490,926.812945854286)">
	<rect x="3329.2" y="-803.4" width="10" height="3.6">
	<title>Snip/sjr 2013
131</title>
	</rect>
</g>
<rect x="4819.2" y="180.4" width="10" height="1.5">
<title>The Keepers
54</title>
</rect>
<rect x="3035.2" y="154.4" width="10" height="280">
<title>Open Access
11,249</title>
</rect>
<text transform="matrix(1 0 0 1 3051.1692 298.2509)" class="st35 st36">Open Access</text>
<rect x="4525.2" y="377.6" width="10" height="17.5">
<title>DOAJ
683</title>
</rect>
<g>
	<text transform="matrix(1 0 0 1 4476.832 389.9374)" class="st35 st36">DOAJ</text>
</g>
<rect x="4525.2" y="447.1" width="10" height="2.6">
<title>LatinIndex
82</title>
</rect>
<g>
	<text transform="matrix(1 0 0 1 4452.4072 453.0531)" class="st35 st37">LatinIndex</text>
</g>
<rect x="4525.2" y="124.4" width="10" height="246.9">
<title>None
9,770</title>
</rect>
<g>
	<text transform="matrix(1 0 0 1 4480.8721 249.844)" class="st35 st36">None</text>
</g>
<g>
	<text transform="matrix(1 0 0 1 4759.8726 163.844)" class="st35 st36">Ranked</text>
</g>
<rect x="4525.2" y="420.6" width="10" height="5.6">
<title>PubMed Central
202</title>
</rect>
<g>
	<text transform="matrix(1 0 0 1 4416.6826 425.9504)" class="st35 st37">PubMed Central</text>
</g>
<rect x="4525.2" y="404.6" width="10" height="6.3">
<title>Snip/sjr 2013
241</title>
</rect>
<g>
	<text transform="matrix(1 0 0 1 4425.9629 411.437)" class="st35 st36">Snip/sjr 2013</text>
</g>
<rect x="4525.2" y="434" width="10" height="3.8">
<title>The Keepers
123</title>
</rect>
<g>
	<text transform="matrix(1 0 0 1 4441.1875 439.6791)" class="st35 st37">The Keepers</text>
</g>
<rect x="3531.9" y="408.6" width="10" height="30.8">
<title>APC
1,238</title>
</rect>
<g>
	<text transform="matrix(1 0 0 1 3547.8357 427.8434)" class="st35 st36">APC</text>
</g>
<rect x="3531.9" y="149.4" width="10" height="249.2">
<title>Free
10,011</title>
</rect>
<g>
	<text transform="matrix(1 0 0 1 3547.8357 277.8432)" class="st35 st36">Free</text>
</g>
<rect x="4028.5" y="355" width="10" height="27.8">
<title>Blind PR
1,118</title>
</rect>
<g>
	<text transform="matrix(1 0 0 1 3964.7056 373.7469)" class="st35 st36">Blind PR</text>
</g>
<rect x="4028.5" y="392.8" width="10" height="20">
<title>Double Blind PR
803</title>
</rect>
<g>
	<text transform="matrix(1 0 0 1 3909.791 407.6548)" class="st35 st36">Double Blind PR</text>
</g>
<rect x="4028.5" y="459.1" width="10" height="0.2">
<title>Editorial Review
10</title>
</rect>
<g>
	<text transform="matrix(1 0 0 1 3924.6387 465.1266)" class="st35 st37">Editorial Review</text>
</g>
<rect x="4028.5" y="129.4" width="10" height="215.6">
<title>None
8,661</title>
</rect>
<g>
	<text transform="matrix(1 0 0 1 3986.2056 241.042)" class="st35 st36">None</text>
</g>
<rect x="4028.5" y="448.8" width="10" height="0.4">
<title>Open PR
15</title>
</rect>
<g>
	<text transform="matrix(1 0 0 1 3969.2563 450.8155)" class="st35 st37">Open PR</text>
</g>
<rect x="4028.5" y="422.8" width="10" height="16">
<title>PR
642</title>
</rect>
<g>
	<text transform="matrix(1 0 0 1 4005.2217 434.6385)" class="st35 st36">PR</text>
</g>
</svg>
