<?xml version="1.0" encoding="utf-8"?>
<!-- Generator: Adobe Illustrator 19.1.0, SVG Export Plug-In . SVG Version: 6.00 Build 0)  -->
<svg version="1.1" xmlns="http://www.w3.org/2000/svg" xmlns:xlink="http://www.w3.org/1999/xlink" x="0px" y="0px"
	 viewBox="0 0 250 100" style="enable-background:new 0 0 250 100;" xml:space="preserve">
<style type="text/css">
	.st0{opacity:0.4;fill:#F29107;}
	.st1{fill:none;stroke:#F29107;stroke-width:3;}
	.st2{fill:#F29109;stroke:#F29107;stroke-width:3;stroke-miterlimit:10;}
	.st3{fill:#FCD2A7;}
	.st4{fill:none;}
	.st5{fill:#F9B96B;}
	.st6{font-family:'Ubuntu-Bold';}
	.st7{font-size:60px;}
	.st8{fill:#EF9000;}
	.st9{letter-spacing:-1;}
</style>
<g id="Livello_1">
	<g>
		<circle class="st0" cx="44.9" cy="49.9" r="29.8"/>
		<polygon class="st1" points="6.8,28 44.7,6.1 82.6,28 82.6,71.8 44.7,93.7 6.8,71.8 		"/>
		<circle class="st1" cx="44.9" cy="49.9" r="29.8"/>
		<line class="st1" x1="44.9" y1="79.7" x2="44.9" y2="20.1"/>
		<ellipse class="st1" cx="44.9" cy="49.9" rx="16.7" ry="29.8"/>
		<line class="st1" x1="15.1" y1="49.9" x2="74.7" y2="49.9"/>
		<path class="st1" d="M22.5,30.3c0,0,22.4,22.5,44.8,0"/>
		<path class="st1" d="M22.5,69.5c0,0,22.4-22.5,44.8,0"/>
		<circle class="st2" cx="44.6" cy="6.2" r="4.2"/>
		<circle class="st2" cx="44.6" cy="93.6" r="4.2"/>
		<circle class="st2" cx="82.6" cy="27.6" r="4.2"/>
		<circle class="st2" cx="82.6" cy="71.6" r="4.2"/>
		<circle class="st2" cx="6.7" cy="27.6" r="4.2"/>
		<circle class="st2" cx="6.7" cy="71.6" r="4.2"/>
		<polygon class="st3" points="88.2,47.3 88.2,80.1 57.3,80.1 57.3,38.2 80.2,38.2 		"/>
		<polygon class="st1" points="88.2,47.3 88.2,80.1 57.3,80.1 57.3,38.2 80.2,38.2 		"/>
		<polyline class="st1" points="80.2,38.2 80.2,47.6 88.2,47.6 		"/>
		<line class="st1" x1="63.6" y1="55.7" x2="82.2" y2="55.7"/>
		<line class="st1" x1="63.6" y1="63.6" x2="82.2" y2="63.6"/>
		<line class="st1" x1="63.6" y1="71.4" x2="82.2" y2="71.4"/>
	</g>
	<rect x="99.5" y="27.1" class="st4" width="162" height="46.8"/>
	<text transform="matrix(1 0 0 1 99.4865 73.6094)"><tspan x="0" y="0" class="st5 st6 st7">l</tspan><tspan x="19" y="0" class="st8 st6 st7 st9">O</tspan><tspan x="64.6" y="0" class="st8 st6 st7">A</tspan><tspan x="107.8" y="0" class="st5 st6 st7">d</tspan></text>
</g>
<g id="Livello_2">
</g>
</svg>
