<?xml version="1.0" encoding="utf-8"?>
<!-- Generator: Adobe Illustrator 19.1.0, SVG Export Plug-In . SVG Version: 6.00 Build 0)  -->
<svg version="1.1" id="Livello_1" xmlns="http://www.w3.org/2000/svg" xmlns:xlink="http://www.w3.org/1999/xlink" x="0px" y="0px"
	 viewBox="50 -210 1060.6 981" style="enable-background:new 50 -210 1060.6 981;" xml:space="preserve">
<style type="text/css">
	.st0{opacity:0.38;fill:none;stroke:#F49231;stroke-width:89;stroke-miterlimit:10;}
	.st1{font-family:'Ubuntu-Light';}
	.st2{font-size:9px;}
	.st3{fill:#F28445;}
	.st4{fill:#231F20;}
	.st5{font-family:'Ubuntu-Bold';}
	.st6{fill:#FFFFFF;}
	.st7{fill:#112547;}
	.st8{fill:none;stroke:#000000;stroke-miterlimit:10;}
	.st9{enable-background:new    ;}
	.st10{fill:none;stroke:#F28445;stroke-width:82;stroke-miterlimit:10;}
	.st11{fill:none;}
	.st12{fill:#F28445;stroke:#F28445;stroke-width:4;stroke-miterlimit:10;}
	.st13{fill:none;stroke:#231F20;stroke-miterlimit:10;}
</style>
<g>
	<path class="st0" d="M455.5,219.4"/>
	<g>
		<text transform="matrix(0.9648 -0.2629 0.2629 0.9648 816.4593 173.7635)" class="st1 st2">Arthropod Systematics and Phylogeny</text>
	</g>
	<g>
		<text transform="matrix(0.6818 0.7315 -0.7315 0.6818 765.8163 404.2992)" class="st1 st2">Global Health Action</text>
	</g>
	<path class="st0" d="M527,402.4c-2.3-1-4.5-2-6.7-3"/>
	<path class="st0" d="M496.2,387.4c-4.6-2.8-9.1-5.8-13.4-9"/>
	<path class="st0" d="M452,348.6c-1.6-1.9-3.1-3.8-4.6-5.7"/>
	<path class="st0" d="M463.9,361.5c-1.7-1.7-3.4-3.5-5.1-5.2"/>
	<path class="st0" d="M477,373.2c-1.9-1.5-3.8-3.1-5.6-4.7"/>
	<path class="st0" d="M513.9,396.7c-2.2-1.1-4.4-2.2-6.5-3.3"/>
	<path class="st0" d="M614.1,415.6c-5.4,0.4-10.7,0.6-16.1,0.5"/>
	<path class="st0" d="M545.2,408.7c-2.3-0.8-4.6-1.7-6.8-2.7"/>
	<path class="st0" d="M563.6,413.1c-2.4-0.5-4.8-1.1-7.1-1.7"/>
	<path class="st0" d="M588.6,416c-5.4-0.2-10.8-0.7-16.1-1.4"/>
	<path class="st3" d="M629.6,457.4L617,372.7c3.2-0.5,8-1.2,11.2-1.9c22.3-4.8,39.8-13.4,58.5-24.1l50.3,65.4
		c-26.5,20.2-57.7,35-92.5,42.5C639.6,455.7,634.6,456.6,629.6,457.4"/>
	<text transform="matrix(0.3772 0.9261 -0.9261 0.3772 654.7349 375.3477)" class="st4 st5 st2">Springer</text>
	<path class="st3" d="M598.1,393.7c6.7,0,7.8,0.3,14.5-0.3l-0.1-0.9l-1.6-20.4c-6.1,0.5-6.7,0.2-12.8,0.1l-0.1,20.2L598.1,393.7z"/>
	<text transform="matrix(0.5547 -0.832 0.832 0.5547 474.1478 416.1457)" class="st5 st2">OUP</text>
	<text transform="matrix(0.6468 -0.7627 0.7627 0.6468 452.2129 401.8578)" class="st5 st2">e-med</text>
	<text transform="matrix(0.698 -0.7161 0.7161 0.698 437.4705 388.8066)" class="st5 st2">Eu  Respiratory S</text>
	<text transform="matrix(0.7776 -0.6287 0.6287 0.7776 415.4841 377.0897)" class="st5 st2">Henry Stewart Pub</text>
	<text transform="matrix(0.8331 -0.5531 0.5531 0.8331 411.859 354.2693)" class="st5 st2">Macmillan</text>
	<text transform="matrix(0.4311 -0.9023 0.9023 0.4311 498.0233 429.8649)" class="st5 st2">TCo Biologists</text>
	<text transform="matrix(0.4085 -0.9128 0.9128 0.4085 511.8959 435.8319)" class="st5 st2">SAGE</text>
	<text transform="matrix(0.3565 -0.9343 0.9343 0.3565 531.4562 443.4956)" class="st5 st2">Strategic Med P</text>
	<path class="st3" d="M590.4,371.6c-6.9-0.3-5.4-0.4-12.2-1.3l-0.4,3.4c6.8,0.9,5.4,0.9,12.5,1.5L590.4,371.6z"/>
	<text transform="matrix(-3.413000e-02 -0.9994 0.9994 -3.413000e-02 611.4698 456.4279)" class="st5 st2">Wiley-Blackwell</text>
	<text transform="matrix(8.803000e-02 -0.9961 0.9961 8.803000e-02 582.551 453.877)" class="st5 st2">Taylor e Francis</text>
	<text transform="matrix(0.2004 -0.9797 0.9797 0.2004 555.6539 450.4517)" class="st5 st2">Caister Ac  Press</text>
	<path class="st6" d="M643.2,257.8c-10.1,7.6-22.7,12.1-36.3,12.1c-22.4,0-41.9-12-52.4-30.1l-1.5,0.9l-20.6,13l-67.9,41.9
		c29.1,46.1,80.5,76.6,139,76.6c38.1,0,73.1-12.9,101-34.7l-48.1-62.1L643.2,257.8"/>
	<path class="st0" d="M492.7,70.5c2-1.5,4.1-2.9,6.1-4.3"/>
	<path class="st0" d="M485.7,75.8c1.9-1.5,3.9-3,5.8-4.5"/>
	<path class="st0" d="M472.4,87.7c1.9-1.9,3.9-3.7,5.9-5.5"/>
	<path class="st0" d="M457,106.2c3.3-4.3,6.8-8.4,10.4-12.4"/>
	<path class="st0" d="M446.9,118.6c1.3-2.1,2.7-4.1,4.1-6.2"/>
	<path class="st0" d="M440.2,131.7c1.1-2.1,2.3-4.2,3.5-6.2"/>
	<path class="st0" d="M434.2,144.2c1-2.2,2-4.5,3-6.7"/>
	<path class="st0" d="M524.2,51.5c2.2-1.1,4.4-2.1,6.7-3"/>
	<path class="st0" d="M508.7,59.8c2.1-1.3,4.2-2.5,6.4-3.7"/>
	<path class="st0" d="M763.2,314.2c-5.3,10-11.4,19.5-18.3,28.3"/>
	<path class="st0" d="M761.3,268.1c-0.7,2.3-1.5,4.7-2.3,7"/>
	<path class="st0" d="M764.9,255.6c-0.5,2.4-1.1,4.9-1.7,7.3"/>
	<path class="st0" d="M767.7,240.2c-0.3,2.4-0.6,4.9-1,7.3"/>
	<path class="st0" d="M768.8,222.2c0,2.5,0,5-0.1,7.6"/>
	<path class="st0" d="M624.9,34.6c2.4,0.3,4.9,0.6,7.3,1"/>
	<path class="st0" d="M587.7,32.7c2.4-0.2,4.9-0.3,7.4-0.4"/>
	<path class="st0" d="M567.2,37.7c2.4-0.4,4.8-0.7,7.3-1"/>
	<path class="st0" d="M549.9,41.4c2.4-0.6,4.7-1.2,7.1-1.7"/>
	<path class="st0" d="M604.7,33.5c2.5,0,4.9,0,7.3,0.1"/>
	<path class="st0" d="M737,348.4c-3.7,4-7.7,7.8-11.7,11.4"/>
	<path class="st0" d="M441.3,334.7c-1.4-2-2.7-4-4.1-6.1"/>
	<path class="st0" d="M428,161.7c0.8-2.3,1.7-4.6,2.6-6.9"/>
	<path class="st0" d="M423.7,175.7c0.6-2.4,1.3-4.7,2-7.1"/>
	<path class="st0" d="M689.2,88.9c16.2,11.8,30.5,26.2,42.2,42.6"/>
	<path class="st0" d="M750.1,291.9c-1.1,2.4-2.3,4.8-3.6,7.2"/>
	<path class="st0" d="M755.4,281.1c-0.9,2.3-1.8,4.5-2.8,6.8"/>
	<path class="st0" d="M418.7,225c-0.6-14.1,0.4-28.3,3.1-42.4"/>
	<path class="st0" d="M422.5,246.2c-0.8-5.3-1.4-10.6-1.7-16"/>
	<path class="st0" d="M768.4,206.9c0.2,2.5,0.3,5.1,0.4,7.6"/>
	<g>
		<text transform="matrix(0.8331 0.5531 -0.5531 0.8331 257.0881 -7.2555)" class="st1 st2">Journal of the Medical Library Association</text>
	</g>
	<g>
		<text transform="matrix(0.7776 0.6287 -0.6287 0.7776 278.7477 -40.2822)" class="st1 st2">Oxidative Medicine and Cellular Longevity</text>
	</g>
	<g>
		<text transform="matrix(0.7473 0.6645 -0.6645 0.7473 345.1289 -8.3077)" class="st1 st2">Dermato-Endocrinology</text>
	</g>
	<g>
		<text transform="matrix(0.6818 0.7315 -0.7315 0.6818 386.0097 -8.7306)" class="st1 st2">Scientific Drilling</text>
	</g>
	<g>
		<text transform="matrix(0.8736 0.4867 -0.4867 0.8736 300.0019 54.9717)" class="st1 st2">Journal of Legal Analysis</text>
	</g>
	<g>
		<text transform="matrix(0.9106 0.4133 -0.4133 0.9106 291.4619 78.2528)" class="st1 st2">Quantitative Economics</text>
	</g>
	<g>
		<text transform="matrix(0.4953 0.8687 -0.8687 0.4953 416.1458 -102.7531)" class="st1 st2">Clinical Medicine and Research</text>
	</g>
	<text transform="matrix(0.4478 0.8941 -0.8941 0.4478 461.2397 -78.4696)" class="st1 st2">Philosophers Imprint</text>
	<g>
		<text transform="matrix(0.5823 -0.813 0.813 0.5823 317.6039 617.6003)" class="st1 st2">Evidence-based Complementary and Alternative Medicine</text>
	</g>
	<g>
		<text transform="matrix(0.5534 -0.8329 0.8329 0.5534 375.1664 568.0283)" class="st1 st2">Applied Mathematics Research eXpress</text>
	</g>
	<g>
		<text transform="matrix(0.4085 -0.9128 0.9128 0.4085 450.5849 563.7343)" class="st1 st2">Journal of Tissue Engineering</text>
	</g>
	<g>
		<text transform="matrix(0.9984 -5.658000e-02 5.658000e-02 0.9984 827.6049 209.3635)" class="st1 st2">Circulation Journal</text>
	</g>
	<g>
		<text transform="matrix(0.9999 1.586000e-02 -1.586000e-02 0.9999 827.4968 227.793)" class="st1 st2">Tropical Medicine and Health</text>
	</g>
	<g>
		<text transform="matrix(0.9911 0.1329 -0.1329 0.9911 827.3729 255.3376)" class="st1 st2">Plant Production Science</text>
	</g>
	<g>
		<text transform="matrix(0.967 0.2547 -0.2547 0.967 823.8891 278.618)" class="st1 st2">Endocrine Journal</text>
	</g>
	<g>
		<text transform="matrix(0.9589 0.2837 -0.2837 0.9589 819.5864 294.7359)" class="st1 st2">Tohoku Journal of Experimental Medicine</text>
	</g>
	<g>
		<text transform="matrix(0.1402 -0.9901 0.9901 0.1402 641.63 -28.7016)" class="st1 st2">Regional Euro-Asian Biological Invasions Centre</text>
	</g>
	<text transform="matrix(0.2323 0.9726 -0.9726 0.2323 502.9673 -149.9725)" class="st1 st2">American Society for Microbiology</text>
	<g>
		<text transform="matrix(0.1402 0.9901 -0.9901 0.1402 549.3254 -91.6216)" class="st1 st2">Epilepsy Currents</text>
	</g>
	<g>
		<text transform="matrix(4.687000e-02 0.9989 -0.9989 4.687000e-02 579.0142 -157.1804)" class="st1 st2">Journal of Endovascular Therapy</text>
	</g>
	<path class="st7" d="M625.6,120"/>
	<g>
		<text transform="matrix(4.687000e-02 -0.9989 0.9989 4.687000e-02 611.8694 -28.0679)" class="st1 st2">Archaea</text>
	</g>
	<g>
		<text transform="matrix(0.7153 0.6988 -0.6988 0.7153 772.6268 397.6418)" class="st1 st2">Food and Nutrition Research</text>
	</g>
	<g>
		<text transform="matrix(0.4505 -0.8928 0.8928 0.4505 416.9296 589.3884)" class="st1 st2">DMM Disease Models and Mechanisms</text>
	</g>
	<g>
		<text transform="matrix(0.6468 -0.7627 0.7627 0.6468 395.1972 469.7377)" class="st1 st2">Cancer Imaging</text>
	</g>
	<g>
		<text transform="matrix(0.7153 -0.6988 0.6988 0.7153 337.1296 486.1993)" class="st1 st2">European Respiratory Review</text>
	</g>
	<g>
		<text transform="matrix(0.7776 -0.6287 0.6287 0.7776 349.1848 430.1996)" class="st1 st2">Human Genomics</text>
	</g>
	<g>
		<text transform="matrix(0.8331 -0.5531 0.5531 0.8331 314.183 416.1731)" class="st1 st2">Nutrition and Diabetes</text>
	</g>
	<g>
		<text transform="matrix(0.9313 0.3643 -0.3643 0.9313 140.4674 49.0258)" class="st1 st2">The National Center for Geographic Information and Analysis</text>
	</g>
	<path class="st3" d="M470.1,176.6c0.8-2.6,1-3.2,1.7-5.5l-2.9-1.3c-1.2,3-1,2.9-2.1,5.8L470.1,176.6z"/>
	<g>
		<text transform="matrix(0.5916 0.8062 -0.8062 0.5916 736.5651 432.688)" class="st1 st2">Addiction Science e Clinical Practice</text>
	</g>
	<g>
		<text transform="matrix(0.5532 0.8331 -0.8331 0.5532 727.3335 438.942)" class="st1 st2">Biology of Mood and Anxiety Disorders</text>
	</g>
	<g>
		<text transform="matrix(0.5135 0.8581 -0.8581 0.5135 717.7783 444.7337)" class="st1 st2">Biology of Sex Differences</text>
	</g>
	<g>
		<text transform="matrix(0.4728 0.8812 -0.8812 0.4728 708.1483 450.0428)" class="st1 st2">Biotechnology for Biofuels</text>
	</g>
	<g>
		<text transform="matrix(0.4309 0.9024 -0.9024 0.4309 698.2961 454.8592)" class="st1 st2">Cilia</text>
	</g>
	<g>
		<text transform="matrix(0.3881 0.9216 -0.9216 0.3881 688.0099 459.2039)" class="st1 st2">Journal of Biology</text>
	</g>
	<g>
		<text transform="matrix(0.3445 0.9388 -0.9388 0.3445 677.5968 463.0611)" class="st1 st2">Journal of Biomedical Semantics</text>
	</g>
	<g>
		<text transform="matrix(0.3002 0.9539 -0.9539 0.3002 667.0256 466.6823)" class="st1 st2">Journal of Cardiovascular Magnetic Resonance</text>
	</g>
	<g>
		<text transform="matrix(0.2551 0.9669 -0.9669 0.2551 656.3427 469.4503)" class="st1 st2">Respiratory Research</text>
	</g>
	<g>
		<text transform="matrix(0.1848 0.9828 -0.9828 0.1848 635.1927 473.7144)" class="st1 st2">Translational Neurodegeneration</text>
	</g>
	<g>
		<text transform="matrix(0.2282 0.9736 -0.9736 0.2282 645.581 472.6593)" class="st1 st2">Veterinary Research</text>
	</g>
	<path class="st8" d="M533.3,12"/>
	<g>
		<text transform="matrix(0.9604 0.2787 -0.2787 0.9604 215.0991 113.4267)" class="st1 st2">Journal of Machine Learning Research</text>
	</g>
	<path class="st3" d="M453.9,184c0.8-3.1,0.8-3.1,1.7-6.2l12.5,3.9c-0.8,2.7-1.2,3.1-1.6,5.6L453.9,184z"/>
	<path class="st8" d="M595.5,459.7"/>
	<path class="st3" d="M727.1,134.6l-25.6,18.2c-16-22.3-18-21.4-34.7-34l18.9-24.7c19.6,13.8,25.6,19.1,41.9,41.2"/>
	<text transform="matrix(0.7096 -0.7046 0.7046 0.7096 699.6476 122.516)" class="st5 st2">Copernicus</text>
	<g>
		<text transform="matrix(0.8581 0.5135 -0.5135 0.8581 810.5602 351.7041)" class="st1 st2">Clinical interventions in aging</text>
	</g>
	<g>
		<text transform="matrix(0.8331 0.5531 -0.5531 0.8331 803.3845 362.5678)" class="st1 st2">Clinical Ophthalmology</text>
	</g>
	<g>
		<text transform="matrix(0.8062 0.5916 -0.5916 0.8062 796.3563 372.5923)" class="st1 st2">International journal of nanomedicine</text>
	</g>
	<g>
		<text transform="matrix(0.7776 0.6287 -0.6287 0.7776 788.4147 381.312)" class="st1 st2">Cancer Informatics</text>
	</g>
	<path class="st3" d="M736.4,300c-6.6,10.4-8.2,12.5-15.7,23.3l-11.2-8.4c8.3-10.8,8.5-12,14.5-21.1L736.4,300z"/>
	<text transform="matrix(0.8419 0.5396 -0.5396 0.8419 731.1041 312.3218)" class="st9"><tspan x="0" y="0" class="st5 st2">Dove Medical</tspan><tspan x="0" y="10.8" class="st5 st2">Press</tspan></text>
	<g>
		<text transform="matrix(-5.755000e-02 -0.9983 0.9983 -5.755000e-02 621.7837 541.3982)" class="st1 st2">Cancer Medicine</text>
	</g>
	<g>
		<text transform="matrix(-1.069000e-02 -0.9999 0.9999 -1.069000e-02 607.3646 581.0317)" class="st1 st2">EMBO Molecular Medicine</text>
	</g>
	<g>
		<text transform="matrix(0.9422 0.3351 -0.3351 0.9422 809.9611 313.1828)" class="st1 st2">Cell Structure and Function</text>
	</g>
	<g>
		<text transform="matrix(0.9066 0.4219 -0.4219 0.9066 805.4441 327.0659)" class="st1 st2">Acta Histochemica et Cytochemica</text>
	</g>
	<path class="st3" d="M714.3,264.4c-3.2,6.3-3.4,7-7.2,13.4l3.4,2.1c4-6.6,3.7-7.2,7.3-13.9L714.3,264.4z"/>
	<path class="st8" d="M786.5,322"/>
	<path class="st7" d="M1020.8,126.6"/>
	<g>
		<text transform="matrix(0.2665 -0.9638 0.9631 0.2691 660.6867 11.4911)" class="st1 st2">Nanoscale Research Letters</text>
	</g>
	<g>
		<text transform="matrix(0.3112 -0.9504 0.9494 0.3141 671.2576 14.7769)" class="st1 st2">Clinical Epigenetics</text>
	</g>
	<g>
		<text transform="matrix(0.3552 -0.9348 0.9335 0.3585 681.676 18.6109)" class="st1 st2">Environmental Sciences Europe</text>
	</g>
	<g>
		<text transform="matrix(0.3984 -0.9172 0.9156 0.402 691.8417 23.045)" class="st1 st2">Journal of Cachexia. Sarcopenia and Muscle</text>
	</g>
	<g>
		<text transform="matrix(0.4408 -0.8976 0.8957 0.4447 701.7236 27.9329)" class="st1 st2">Journal of Headache and Pain</text>
	</g>
	<g>
		<text transform="matrix(0.4822 -0.876 0.8738 0.4863 711.5221 33.1713)" class="st1 st2">Journal of Orthopaedics and Traumatology</text>
	</g>
	<path class="st10" d="M637.5,64.4c16.9,4.3,32.8,10.9,47.4,19.5"/>
	<text transform="matrix(0.3786 -0.9304 0.9248 0.3804 648.2603 98.4132)" class="st4 st5 st2">Springer</text>
	<path class="st3" d="M465.8,190.8l-13.4-2.9c-2.3,15.4-3.2,23.1-3.3,35.9l14-0.6C464.1,207.7,463.8,206.4,465.8,190.8"/>
	<g>
		<text transform="matrix(0.9923 -0.1235 0.1235 0.9923 289.64 262.3066)" class="st1 st2">Brain and Behavior</text>
	</g>
	<g>
		<text transform="matrix(0.9983 -5.843000e-02 5.843000e-02 0.9983 301.1582 246.083)" class="st1 st2">ChemistryOpen</text>
	</g>
	<path class="st3" d="M466.7,239.9l-21.6,3.3c0,0-1.7-9.9-1.8-14.2l21.6-1.7c0.4,5.9,1,9.8,1.8,15.6"/>
	<g>
		<text transform="matrix(0.8505 -0.5259 0.5259 0.8505 784.7845 108.0525)" class="st1 st2">Biogeosciences</text>
	</g>
	<g>
		<text transform="matrix(0.8742 -0.4855 0.4855 0.8742 790.3262 116.2844)" class="st1 st2">Climate of the Past</text>
	</g>
	<text transform="matrix(0.9972 7.485000e-02 -7.485000e-02 0.9972 380.4251 198.2722)" class="st9"><tspan x="0" y="0" class="st5 st2">Annals of</tspan><tspan x="0" y="10.8" class="st5 st2">Family Medicine</tspan></text>
	<text transform="matrix(0.9663 0.2574 -0.2574 0.9663 386.4998 165.4691)" class="st5 st2">MIT Press</text>
	<text transform="matrix(0.935 0.3547 -0.3547 0.935 393.7312 147.6552)" class="st5 st2">NCGIA</text>
	<text transform="matrix(0.9106 0.4133 -0.4133 0.9106 401.2089 128.6063)" class="st5 st2">The Economic S</text>
	<text transform="matrix(0.4953 0.8687 -0.8687 0.4953 489.556 24.2516)" class="st5 st2">Marshfield Clinic</text>
	<text transform="matrix(0.4117 0.9113 -0.9113 0.4117 505.9226 10.7304)" class="st5 st2">U  Michigan Press</text>
	<text transform="matrix(0.9947 -0.1025 0.1025 0.9947 382.2244 246.7412)" class="st5 st2">Wiley-Blackwell</text>
	<g>
		<text transform="matrix(0.3627 -0.9319 0.9319 0.3627 476.1201 588.7144)" class="st1 st2">Primary Care Respiratory Journal</text>
	</g>
	<g>
		<text transform="matrix(6.464000e-02 -0.9979 0.9979 6.464000e-02 572.4658 550.2916)" class="st1 st2">Acta Orthopaedica</text>
	</g>
	<g>
		<text transform="matrix(0.2207 -0.9753 0.9753 0.2207 520.3143 598.8602)" class="st1 st2">Experimental Diabesity Research</text>
	</g>
	<text transform="matrix(0.6743 0.7385 -0.7385 0.6743 702.0789 331.262)" class="st5 st2">Co-Action Pub</text>
	<text transform="matrix(0.9251 0.3797 -0.3797 0.9251 716.9392 272.6442)" class="st5 st2">JS Cell Biology</text>
	<text transform="matrix(0.8874 0.461 -0.461 0.8874 711.6982 280.6962)" class="st5 st2">JSo Histochemistry </text>
	<text transform="matrix(0.9424 0.3345 -0.3345 0.9424 721.928 262.3278)" class="st5 st2">Tohoku Univ</text>
	<text transform="matrix(0.9878 0.1559 -0.1559 0.9878 727.6049 240.694)" class="st5 st2">Crop Science SoJ</text>
	<text transform="matrix(0.9656 0.2601 -0.2601 0.9656 725.0981 252.4258)" class="st5 st2">J Endocrine Soc</text>
	<text transform="matrix(0.2323 0.9726 -0.9726 0.2323 539.5172 -0.7632)" class="st5 st2">mBio</text>
	<text transform="matrix(0.158 0.9874 -0.9874 0.158 559.8058 -6.1066)" class="st5 st2">A Epilepsy Society</text>
	<text transform="matrix(7.171000e-02 0.9974 -0.9974 7.171000e-02 585.2909 -9.8455)" class="st5 st2">Alliance Group</text>
	<g>
		<text transform="matrix(0.9526 -0.3044 0.3044 0.9526 811.1073 156.796)" class="st1 st2">Natural Hazards and Earth System Science</text>
	</g>
	<text transform="matrix(0.8331 0.5531 -0.5531 0.8331 417.2185 99.3583)" class="st5 st2">MLA</text>
	<text transform="matrix(0.7627 0.6468 -0.6468 0.7627 425.8589 75.1916)" class="st5 st2">Landes Bioscience</text>
	<text transform="matrix(0.6818 0.7315 -0.7315 0.6818 446.7412 60.2208)" class="st5 st2">IODP-MI</text>
	<text transform="matrix(0.8736 0.4867 -0.4867 0.8736 409.3559 115.4512)" class="st5 st2">OUP</text>
	<text transform="matrix(0.9999 1.586000e-02 -1.586000e-02 0.9999 729.1963 228.9826)" class="st5 st2">JSo Tropical Med</text>
	<g>
		<text transform="matrix(0.9045 -0.4265 0.4265 0.9045 800.0489 132.8345)" class="st1 st2">Atmospheric Chemistry and Physics</text>
	</g>
	<text transform="matrix(0.9988 -4.944000e-02 4.944000e-02 0.9988 730.793 216.7732)" class="st5 st2">N Junkanki Gakkai</text>
	<g>
		<path class="st3" d="M485.1,289.3c-6.7-14.4-15.6-27-17.3-41.9l-86.9,10.7c2.8,23.9,9.4,47.8,20.1,70.8"/>
		<text transform="matrix(0.9635 -0.2679 0.2679 0.9635 394.9533 290.4486)" class="st9"><tspan x="0" y="0" class="st4 st5 st2">Public Library </tspan><tspan x="0" y="10.8" class="st4 st5 st2">of Science</tspan></text>
		<g>
			<path class="st3" d="M384.3,338.7c-3.4-5.9-6.5-12-9.4-18.3"/>
			<text transform="matrix(0.9164 -0.4003 0.4003 0.9164 321.3878 361.6035)" class="st1 st2">Diabetes Therapy</text>
			<text transform="matrix(0.9341 -0.3569 0.3569 0.9341 321.7072 347.2588)" class="st1 st2">PLoS Pathogens</text>
			<text transform="matrix(0.9499 -0.3127 0.3127 0.9499 251.3813 355.3942)" class="st1 st2">PLoS Neglected Tropical Diseases</text>
			<text transform="matrix(0.9635 -0.2679 0.2679 0.9635 317.9416 316.7699)" class="st1 st2">PLoS Medicine</text>
			<text transform="matrix(0.975 -0.2224 0.2224 0.975 315.9557 303.4853)" class="st1 st2">PLoS Genetics</text>
			<text transform="matrix(0.9843 -0.1765 0.1765 0.9843 316.9604 287.7068)" class="st1 st2">PLoS Biology</text>
			<text transform="matrix(0.9915 -0.1301 0.1301 0.9915 253.634 281.2536)" class="st1 st2">PLoS Computational Biology</text>
			<g>
				<rect x="368.3" y="261.7" transform="matrix(0.9932 -0.1162 0.1162 0.9932 -28.119 44.806)" width="4" height="3.9"/>
				<rect x="369.9" y="272.8" transform="matrix(0.9853 -0.1709 0.1709 0.9853 -41.4806 67.5862)" width="4" height="3.9"/>
				<rect x="372.4" y="285" transform="matrix(0.9812 -0.1932 0.1932 0.9812 -48.3966 77.7596)" width="4" height="3.9"/>
				<rect x="379" y="308" transform="matrix(0.9586 -0.2849 0.2849 0.9586 -72.5057 121.4095)" width="4" height="3.9"/>
				<rect x="375.5" y="296.3" transform="matrix(0.9719 -0.2356 0.2356 0.9719 -59.6301 97.3068)" width="4" height="3.9"/>
				<rect x="383" y="318.8" transform="matrix(0.9466 -0.3223 0.3223 0.9466 -82.8376 141.1934)" width="4" height="3.9"/>
				<rect x="386.7" y="328" transform="matrix(0.9195 -0.3932 0.3932 0.9195 -98.4348 179.3861)" width="4" height="3.9"/>
			</g>
		</g>
	</g>
	<g>
		<g>
			<text transform="matrix(0.9996 2.860000e-02 -2.860000e-02 0.9996 247.2452 215.2016)" class="st1 st2">Journal of Thyroid Research</text>
		</g>
		<g>
			<text transform="matrix(0.9987 5.040000e-02 -5.040000e-02 0.9987 262.4521 199.7864)" class="st1 st2">Journal of Osteoporosis</text>
		</g>
		<g>
			<text transform="matrix(0.9972 7.485000e-02 -7.485000e-02 0.9972 228.7354 182.426)" class="st1 st2">International Journal of Peptides</text>
		</g>
		<g>
			<text transform="matrix(0.9926 0.1215 -0.1215 0.9926 210.8714 162.0319)" class="st1 st2">International Journal of Inflammation</text>
		</g>
		<rect x="363.6" y="177.4" transform="matrix(0.9828 0.1844 -0.1844 0.9828 39.3472 -64.3537)" width="4" height="3.9"/>
		<rect x="361.8" y="188.5" transform="matrix(0.9915 0.1298 -0.1298 0.9915 27.8098 -45.6273)" width="4" height="3.9"/>
		<rect x="360.6" y="200.9" transform="matrix(0.9942 0.1073 -0.1073 0.9942 23.8572 -37.7292)" width="4" height="3.9"/>
		<rect x="360.1" y="213.8" transform="matrix(0.9999 1.300744e-02 -1.300744e-02 0.9999 2.837 -4.6921)" width="4" height="3.9"/>
	</g>
	<g>
		
			<rect x="365.5" y="238.1" transform="matrix(0.9986 -5.195010e-02 5.195010e-02 0.9986 -11.9733 19.4154)" width="4" height="3.9"/>
		<rect x="366.5" y="248" transform="matrix(0.9918 -0.1275 0.1275 0.9918 -28.8625 49.0412)" width="4" height="3.9"/>
	</g>
	<g>
		<rect x="368.9" y="134.4" transform="matrix(0.9483 0.3174 -0.3174 0.9483 62.4437 -110.6464)" width="4" height="3.9"/>
		<rect x="362.9" y="152.5" transform="matrix(0.9592 0.2827 -0.2827 0.9592 58.5404 -96.8682)" width="4" height="3.9"/>
	</g>
	<rect x="388.5" y="100.7" transform="matrix(0.887 0.4618 -0.4618 0.887 91.5239 -168.7091)" width="4" height="3.9"/>
	<rect x="398.5" y="83.7" transform="matrix(0.833 0.5532 -0.5532 0.833 114.2527 -207.254)" width="4" height="3.9"/>
	<rect x="381.6" y="115.6" transform="matrix(0.912 0.4101 -0.4101 0.912 81.9366 -146.9723)" width="4" height="3.9"/>
	<rect x="418.9" y="54.5" transform="matrix(0.7153 0.6988 -0.6988 0.7153 159.2673 -278.0763)" width="4" height="3.9"/>
	<rect x="411.4" y="63" transform="matrix(0.7663 0.6425 -0.6425 0.7663 138.3373 -250.4362)" width="4" height="3.9"/>
	<rect x="433.9" y="39.5" transform="matrix(0.7153 0.6988 -0.6988 0.7153 153.0555 -292.8284)" width="4" height="3.9"/>
	<g>
		<text transform="matrix(0.5725 0.8199 -0.8199 0.5725 411.3767 -43.2825)" class="st1 st2">International Press</text>
	</g>
	<g>
		<text transform="matrix(0.6103 0.7922 -0.7922 0.6103 338.3533 -106.7202)" class="st1 st2">International Society on Aging and Disease</text>
	</g>
	<rect x="444.9" y="28" transform="matrix(0.6042 0.7968 -0.7968 0.6042 200.7609 -344.276)" width="4" height="3.9"/>
	<rect x="457.1" y="18.3" transform="matrix(0.6042 0.7968 -0.7968 0.6042 197.8685 -357.8123)" width="4" height="3.9"/>
	<rect x="480.1" y="4.8" transform="matrix(0.4364 0.8998 -0.8998 0.4364 277.7671 -429.98)" width="4" height="3.9"/>
	<rect x="501.3" y="-2.9" transform="matrix(0.4259 0.9048 -0.9048 0.4259 288.0832 -455.9042)" width="4" height="3.9"/>
	<rect x="536.3" y="-15.9" transform="matrix(0.2603 0.9655 -0.9655 0.2603 384.682 -530.0402)" width="4" height="3.9"/>
	<rect x="560.3" y="-20.9" transform="matrix(0.1536 0.9881 -0.9881 0.1536 457.1597 -571.6426)" width="4" height="3.9"/>
	
		<rect x="585.3" y="-25.9" transform="matrix(1.731656e-02 0.9999 -0.9999 1.731656e-02 553.1607 -610.7283)" width="4" height="3.9"/>
	<rect x="606.4" y="-26.2" transform="matrix(-2.669640e-03 1 -1 -2.669640e-03 585.788 -632.6816)" width="4" height="3.9"/>
	<rect x="635.6" y="-23.9" transform="matrix(-0.9936 -0.1126 0.1126 -0.9936 1273.6152 27.9984)" width="4" height="3.9"/>
	<rect x="686.1" y="23.3" transform="matrix(-0.413 0.9107 -0.9107 -0.413 995.2211 -590.9355)" width="4" height="3.9"/>
	<rect x="675.5" y="19" transform="matrix(-0.3613 0.9325 -0.9325 -0.3613 941.7698 -603.2587)" width="4" height="3.9"/>
	<rect x="705.7" y="33.7" transform="matrix(-0.4957 0.8685 -0.8685 -0.4957 1089.5133 -561.3115)" width="4" height="3.9"/>
	<rect x="695.5" y="28" transform="matrix(-0.4455 0.8953 -0.8953 -0.4455 1035.0265 -581.2029)" width="4" height="3.9"/>
	<rect x="664.8" y="15.4" transform="matrix(-0.3344 0.9424 -0.9424 -0.3344 906.2168 -605.3095)" width="4" height="3.9"/>
	<rect x="652.6" y="11.5" transform="matrix(-0.2822 0.9593 -0.9593 -0.2822 852.284 -610.7286)" width="4" height="3.9"/>
	<g>
		<g>
			<g>
				<text transform="matrix(0.5895 -0.8077 0.8077 0.5895 730.8164 47.837)" class="st1 st2">Earth System Dynamics</text>
				<text transform="matrix(0.6267 -0.7792 0.7792 0.6267 739.6651 54.6853)" class="st1 st2">Earth System Science Data</text>
				<text transform="matrix(0.6626 -0.749 0.749 0.6626 747.9412 61.9631)" class="st1 st2">eEarth</text>
				<text transform="matrix(0.697 -0.7171 0.7171 0.697 755.9741 69.6335)" class="st1 st2">Solid Earth</text>
				<text transform="matrix(0.7298 -0.6837 0.6837 0.7298 763.5443 77.6308)" class="st1 st2">Cryosphere</text>
				<text transform="matrix(0.761 -0.6487 0.6487 0.761 770.8676 86.077)" class="st1 st2">Atmospheric Measurement Techniques</text>
				<text transform="matrix(0.7906 -0.6123 0.6123 0.7906 777.7039 94.667)" class="st1 st2">Drinking Water Engineering and Science</text>
			</g>
		</g>
		<rect x="748.9" y="69.3" transform="matrix(-0.7144 0.6997 -0.6997 -0.7144 1337.1178 -403.3219)" width="4" height="3.9"/>
		<rect x="740.8" y="61.7" transform="matrix(-0.6741 0.7387 -0.7387 -0.6741 1290.5809 -442.1826)" width="4" height="3.9"/>
		<rect x="763" y="84.7" transform="matrix(-0.7763 0.6304 -0.6304 -0.7763 1413.4316 -328.3723)" width="4" height="3.9"/>
		<rect x="769.2" y="92.1" transform="matrix(-0.7763 0.6304 -0.6304 -0.7763 1429.1255 -319.1302)" width="4" height="3.9"/>
		<rect x="756.1" y="76.9" transform="matrix(-0.7391 0.6735 -0.6735 -0.7391 1371.5287 -373.4858)" width="4" height="3.9"/>
		<rect x="732.3" y="54.2" transform="matrix(-0.6527 0.7577 -0.7577 -0.6527 1256.1211 -463.5594)" width="4" height="3.9"/>
		<rect x="723.2" y="47" transform="matrix(-0.6101 0.7923 -0.7923 -0.6101 1206.3367 -495.8044)" width="4" height="3.9"/>
	</g>
	<rect x="784.4" y="114.3" transform="matrix(-0.8359 0.5489 -0.5489 -0.8359 1507.5314 -218.2067)" width="4" height="3.9"/>
	<rect x="779.2" y="106" transform="matrix(-0.8254 0.5646 -0.5646 -0.8254 1486.9274 -243.8938)" width="4" height="3.9"/>
	<rect x="794" y="131.3" transform="matrix(-0.8802 0.4746 -0.4746 -0.8802 1559.8645 -127.2532)" width="4" height="3.9"/>
	<rect x="804.4" y="153.5" transform="matrix(-0.9266 0.376 -0.376 -0.9266 1612.01 -3.6274)" width="4" height="3.9"/>
	<rect x="810.3" y="170.5" transform="matrix(-0.9693 0.2459 -0.2459 -0.9693 1642.1466 139.7632)" width="4" height="3.9"/>
	<rect x="821.5" y="205.3" transform="matrix(-0.9943 0.1065 -0.1065 -0.9943 1664.3525 325.6148)" width="4" height="3.9"/>
	
		<rect x="821.5" y="223.2" transform="matrix(-0.9998 2.176310e-02 -2.176310e-02 -0.9998 1651.7073 432.391)" width="4" height="3.9"/>
	<rect x="820.1" y="249.2" transform="matrix(-0.9936 -0.1133 0.1133 -0.9936 1610.5557 593.8719)" width="4" height="3.9"/>
	<rect x="815.8" y="272.3" transform="matrix(-0.9878 -0.1555 0.1555 -0.9878 1582.9963 672.2727)" width="4" height="3.9"/>
	<rect x="812.6" y="288.1" transform="matrix(-0.954 -0.2998 0.2998 -0.954 1504.8296 811.0176)" width="4" height="3.9"/>
	<rect x="806.4" y="306.3" transform="matrix(-0.9424 -0.3346 0.3346 -0.9424 1466.9912 869.2133)" width="4" height="3.9"/>
	<rect x="800.9" y="321.3" transform="matrix(-0.9148 -0.4039 0.4039 -0.9148 1406.7594 943.3311)" width="4" height="3.9"/>
	<rect x="785.7" y="374.1" transform="matrix(-0.7569 -0.6535 0.6535 -0.7569 1138.2472 1175.4418)" width="4" height="3.9"/>
	<rect x="792.9" y="365.4" transform="matrix(-0.7919 -0.6107 0.6107 -0.7919 1199.9962 1143.6198)" width="4" height="3.9"/>
	<rect x="800.2" y="355.2" transform="matrix(-0.8056 -0.5925 0.5925 -0.8056 1236.6951 1120.2023)" width="4" height="3.9"/>
	<rect x="807.1" y="344.4" transform="matrix(-0.8579 -0.5139 0.5139 -0.8579 1325.1384 1059.1875)" width="4" height="3.9"/>
	<rect x="763.8" y="397.5" transform="matrix(-0.6857 -0.7279 0.7279 -0.6857 1000.2335 1230.7101)" width="4" height="3.9"/>
	<rect x="770.6" y="390.9" transform="matrix(-0.6993 -0.7148 0.7148 -0.6993 1032.1057 1219.8608)" width="4" height="3.9"/>
	<rect x="675.4" y="456" transform="matrix(-0.3441 -0.9389 0.9389 -0.3441 480.5213 1251.6099)" width="4" height="3.9"/>
	<rect x="686" y="451.9" transform="matrix(-0.3899 -0.9209 0.9209 -0.3899 538.3298 1264.3713)" width="4" height="3.9"/>
	<rect x="696.5" y="447.4" transform="matrix(0.9026 -0.4305 0.4305 0.9026 -125.3832 344.4374)" width="4" height="3.9"/>
	<rect x="716.4" y="436.9" transform="matrix(-0.496 -0.8683 0.8683 -0.496 693.5561 1280.3535)" width="4" height="3.9"/>
	<rect x="706.1" y="442.5" transform="matrix(-0.4695 -0.8829 0.8829 -0.4695 648.1127 1278.3209)" width="4" height="3.9"/>
	<rect x="725.4" y="431.2" transform="matrix(-0.483 -0.8756 0.8756 -0.483 699.4166 1279.2174)" width="4" height="3.9"/>
	<rect x="733.8" y="425.9" transform="matrix(-0.548 -0.8365 0.8365 -0.548 781.1188 1277.798)" width="4" height="3.9"/>
	<rect x="633.5" y="466.8" transform="matrix(-0.143 -0.9897 0.9897 -0.143 262.4223 1164.6606)" width="4" height="3.9"/>
	<rect x="644.7" y="464.7" transform="matrix(-0.2058 -0.9786 0.9786 -0.2058 323.1433 1195.5121)" width="4" height="3.9"/>
	<rect x="655.5" y="462.1" transform="matrix(0.9638 -0.2667 0.2667 0.9638 -99.9338 192.1315)" width="4" height="3.9"/>
	<rect x="665.7" y="459.2" transform="matrix(-0.3181 -0.9481 0.9481 -0.3181 442.8369 1240.8538)" width="4" height="3.9"/>
	
		<rect x="601.4" y="469.5" transform="matrix(-4.783753e-02 -0.9989 0.9989 -4.783753e-02 161.3078 1096.7185)" width="4" height="3.9"/>
	
		<rect x="613" y="469.2" transform="matrix(-4.272181e-02 -0.9991 0.9991 -4.272181e-02 170.5839 1105.6914)" width="4" height="3.9"/>
	<rect x="545.3" y="465.4" transform="matrix(0.1938 -0.981 0.981 0.1938 -17.2174 913.6947)" width="4" height="3.9"/>
	<rect x="573.4" y="469.2" transform="matrix(0.1305 -0.9914 0.9914 0.1305 33.2323 980.1399)" width="4" height="3.9"/>
	<rect x="520.7" y="458.8" transform="matrix(0.3326 -0.9431 0.9431 0.3326 -85.6427 800.3895)" width="4" height="3.9"/>
	<rect x="497.4" y="450" transform="matrix(0.3841 -0.9233 0.9233 0.3841 -109.6702 739.4454)" width="4" height="3.9"/>
	<rect x="484.3" y="443.5" transform="matrix(0.3841 -0.9233 0.9233 0.3841 -111.7922 723.3447)" width="4" height="3.9"/>
	<rect x="460.5" y="430.7" transform="matrix(0.5533 -0.833 0.833 0.5533 -153.7986 578.5392)" width="4" height="3.9"/>
	<rect x="450.9" y="424.1" transform="matrix(0.5671 -0.8236 0.8236 0.5671 -154.8138 557.4285)" width="4" height="3.9"/>
	<rect x="420.3" y="397.7" transform="matrix(0.703 -0.7112 0.7112 0.703 -158.7896 419.0199)" width="4" height="3.9"/>
	<rect x="403" y="380.7" transform="matrix(0.7763 -0.6304 0.6304 0.7763 -150.6165 340.9139)" width="4" height="3.9"/>
	<rect x="389.6" y="360.5" transform="matrix(0.855 -0.5185 0.5185 0.855 -131.165 255.5974)" width="4" height="3.9"/>
	<rect x="436.7" y="412.8" transform="matrix(0.8221 0.5693 -0.5693 0.8221 314.1623 -176.0037)" width="4" height="3.9"/>
	<path class="st0" d="M761.3,184.3c0.8,2.3,1.5,4.6,2.2,7"/>
	<path class="st0" d="M756,169.4c1,2.2,1.9,4.5,2.8,6.8"/>
	<path class="st0" d="M736.4,133.6c2.9,4.5,5.6,9.1,8.1,13.9"/>
	<path class="st0" d="M749.2,152.9c1.1,2.2,2.2,4.4,3.2,6.6"/>
	<text transform="matrix(0.9371 -0.3491 0.3491 0.9371 723.9158 188.9486)" class="st5 st2">Copemicus Gesel</text>
	<text transform="matrix(0.8626 -0.5059 0.5059 0.8626 720.6588 156.2516)" class="st5 st2">EGU</text>
	<text transform="matrix(0.9539 -0.3001 0.3001 0.9539 728.6458 202.1248)" class="st5 st2">Sam Dresden</text>
	<text transform="matrix(0.8982 -0.4395 0.4395 0.8982 723.4584 173.4185)" class="st5 st2">EGS</text>
	<path class="st3" d="M714.1,147.5c3.7,5.9,1.9,2.5,6.9,12.5l-12.6,6.6c-3.2-7.2-2.3-5.1-6.7-11.5L714.1,147.5z"/>
	<path class="st11" d="M612.5,36"/>
	<path class="st3" d="M589.8,64.3c3.2-0.1,3-0.2,6.2-0.2l0.3,14.2c-2.6,0-2.8,0.1-5.4,0.4L589.8,64.3z"/>
	<rect x="525" y="703.5" class="st11" width="94" height="74"/>
	<text transform="matrix(1 0 0 1 525.0406 710.5168)"><tspan x="0" y="0" class="st4 st1 st2">MORE THAN 0,3</tspan><tspan x="0" y="10.8" class="st4 st1 st2">MORE THEN 0,8</tspan><tspan x="0" y="21.6" class="st4 st1 st2">MORE THEN 1,4</tspan><tspan x="0" y="32.4" class="st4 st1 st2">MORE THEN 2,0</tspan><tspan x="0" y="43.2" class="st4 st1 st2">MORE THEN 3,O</tspan></text>
	<rect x="523.9" y="679.9" class="st11" width="175" height="10.9"/>
	<text transform="matrix(1 0 0 1 523.8568 686.8551)" class="st4 st5 st2">MEDIA SJR</text>
	<g>
		<line class="st12" x1="601.5" y1="752.1" x2="699.1" y2="752.1"/>
		<line class="st12" x1="601.6" y1="719.5" x2="616.2" y2="719.4"/>
		<rect x="601.6" y="706.3" class="st3" width="4.9" height="4.9"/>
		<line class="st12" x1="601.3" y1="741.3" x2="686.2" y2="741.3"/>
		<line class="st12" x1="601.5" y1="730.9" x2="633.8" y2="730.9"/>
	</g>
	<path class="st4" d="M739.8,179.9"/>
	<path class="st7" d="M612.5,36"/>
	<path class="st7" d="M710.7,276.2"/>
	<path class="st13" d="M696.4,328.1"/>
	<path class="st13" d="M705.7,318.5"/>
	<path class="st13" d="M726.7,291.7"/>
	<path class="st13" d="M696.4,328.1"/>
	<path class="st6" d="M603.5,78.1c-77.7,0-140.6,63-140.6,140.6s63,140.6,140.6,140.6"/>
	<circle class="st6" cx="603.5" cy="218.8" r="118.4"/>
	<circle class="st6" cx="603.5" cy="218.8" r="88.2"/>
	<path class="st7" d="M642.7,260.1c6.6-7.5,8.4-10.6,14.1-19.7l11.3,7.2c-5.7,10.2-13.4,19.8-15,21.9L642.7,260.1z"/>
	<text transform="matrix(0.1375 -0.9905 0.9905 0.1375 625.4644 75.2134)" class="st5 st2">Aquatic Invasions</text>
	<text transform="matrix(1.932000e-02 -0.9998 0.9998 1.932000e-02 611.9094 70.2877)" class="st5 st2">Heron Publishing</text>
	<path class="st7" d="M633.8,266.3c2.2-1.9,5.3-4.9,7.8-7.6l9.9,9c-1.9,2.4-6.7,7.2-9,9.3L633.8,266.3z"/>
	<path class="st7" d="M613.6,157.9c-2.9-0.3-3.7-0.5-6.2-0.8l1.1-12.7c3.1,0.2,3.9,0.6,7,0.9L613.6,157.9z"/>
	<g>
		<text transform="matrix(0.7802 0.6255 -0.6255 0.7802 660.5901 264.4145)" class="st4 st5 st2">New Zealand</text>
	</g>
	<path class="st7" d="M624.8,110.3L624.8,110.3l-0.3,1l-12,47c0.5,0.2,0.9,0.3,1.4,0.5c25.8,9.6,45.3,33.2,51.4,62.2
		c0.1,0.3-0.1-0.3,0,0l8.6-2.1l36.1-9.6l2.2-1c-4.9-48.5-41.5-89.6-88.8-98.3"/>
	<g>
		<text transform="matrix(0.6798 0.7334 -0.7334 0.6798 662.5674 285.9895)" class="st4 st5 st2">Sweden</text>
	</g>
	<path class="st7" d="M656.1,182.8l0.2,0.6c2.9,7.1,4.5,13.9,5.4,21.4c1.7,15.5-1.8,30.7-8.6,43.2l9.1,4.1l9.7,4.3
		c8.4-14.8,12.2-31.9,10.1-50.3c-1-8.9-3.3-17.6-6.7-26"/>
	<g>
		<path class="st0" d="M602,127.1"/>
		<path class="st0" d="M602,127.1"/>
		<g>
			<path class="st7" d="M601.5,127.3c3-0.1,4.3-0.1,7.3,0l0.2-2.5c-2.3-0.1-4.1-0.1-7.4,0V127.3z"/>
			<path class="st7" d="M601.8,159.2c0.7,0-0.5-0.1,0.2-0.1c2-0.1,4-0.1,6,0l1-33.3l-7.4-0.6L601.8,159.2z"/>
		</g>
	</g>
	<path class="st7" d="M635.2,263.7c-8.9,6.7-20,10.6-32,10.6c-19.7,0-36.9-10.6-46.2-26.5l-1.3,0.8l-18.1,11.4l-59.8,36.9
		c25.6,40.6,70.9,67.5,122.5,67.5c33.5,0,64.4-11.4,89-30.6l-42.4-54.7L635.2,263.7"/>
	<g>
		<text transform="matrix(0.2794 -0.9602 0.9602 0.2794 570.2453 348.3787)" class="st6 st5 st2">United Kingdom</text>
	</g>
	<g>
		<text transform="matrix(0.9865 0.1637 -0.1637 0.9865 681.6868 239.9957)" class="st4 st5 st2">Japan</text>
	</g>
	<g>
		<text transform="matrix(0.7211 -0.6928 0.6928 0.7211 649.4685 175.3668)" class="st6 st5 st2">Germany</text>
	</g>
	<path class="st6" d="M701.1,338.3"/>
	<path class="st7" d="M602.8,159.2l-2.2-65.5c-67.8,0-122.8,55-122.8,122.8c0,23.4,6.6,45.3,17.9,63.9l4.3,8.9l54.5-33.7l2.5-3.6
		c-4.6-9.6-9.4-16.5-8.9-27.9c1.5-30.3,16.1-63.8,55.7-64.9l1.1,0"/>
	<g>
		<text transform="matrix(0.9461 0.3239 -0.3239 0.9461 490.9785 176.6696)" class="st6 st5 st2">United States</text>
	</g>
	<circle class="st6" cx="603.5" cy="215.8" r="58.9"/>
	<g>
		<text transform="matrix(0.1164 -0.9932 0.9932 0.1164 619.0344 118.9129)" class="st4 st5 st2">Finland</text>
	</g>
	<g>
		<text transform="matrix(-2.780000e-03 -1 1 -2.780000e-03 608.4329 119.9824)" class="st4 st5 st2">Canada</text>
	</g>
</g>
</svg>
