<?xml version="1.0" encoding="utf-8"?>
<!-- Generator: Adobe Illustrator 16.0.0, SVG Export Plug-In . SVG Version: 6.00 Build 0)  -->
<!DOCTYPE svg PUBLIC "-//W3C//DTD SVG 1.1//EN" "http://www.w3.org/Graphics/SVG/1.1/DTD/svg11.dtd">
<svg version="1.1" id="Capa_1" xmlns="http://www.w3.org/2000/svg" xmlns:xlink="http://www.w3.org/1999/xlink" x="0px" y="0px"
	 width="968.952px" height="523.474px" viewBox="0 0 968.952 523.474" enable-background="new 0 0 968.952 523.474"
	 xml:space="preserve">
<g>
	<path opacity="0.7" fill="#EF7F65" d="M709.604,188.546c30.412,25.029,61.859,50.911,101.581,70.526
		c27.646,13.652,57.048,23.014,88.845,28.244v-37.681c-71.267-13.701-115.418-50.024-161.578-88.015
		c-30.412-25.029-61.859-50.911-101.581-70.526c-37.789-18.661-78.854-29.415-124.843-32.436V95.11
		C605.367,102.073,656.137,144.542,709.604,188.546z"/>
	<path opacity="0.7" fill="#EF7F65" d="M711.493,245.399c50.381,33.43,102.169,67.784,188.536,79.286v-36.912
		c-72.444-11.008-116.939-40.522-163.468-71.395c-57.017-37.833-115.831-76.852-224.534-82.589v36.482
		C606.66,175.852,657.719,209.719,711.493,245.399z"/>
	<path opacity="0.7" fill="#EF7F65" d="M714.735,286.522c49.664,28.791,100.704,58.379,185.294,68.429v-29.811
		c-74.201-9.62-119.416-35.826-166.71-63.244c-56.338-32.66-114.447-66.345-221.292-71.372v29.57
		C608.513,224.953,660.246,254.933,714.735,286.522z"/>
	<path opacity="0.7" fill="#EF7F65" d="M717.711,321.737c49.009,23.917,99.375,48.491,182.419,56.947V355.44
		c-75.733-8.104-121.599-30.485-169.585-53.903c-55.715-27.188-113.178-55.23-218.417-59.47v23.14
		C610.216,269.288,662.567,294.827,717.711,321.737z"/>
	<path opacity="0.7" fill="#EF7F65" d="M726.932,489.943c48.845-9.811,95.527-19.184,173.098-22.525V444.63
		c-81.191,3.476-130.715,13.418-178.906,23.098c-55.966,11.241-109.091,21.909-209.096,23.586v22.788
		C615.347,512.354,672.002,500.977,726.932,489.943z"/>
	<path opacity="0.7" fill="#EF7F65" d="M719.668,351.846c48.53,19.227,98.402,38.98,180.361,45.838v-18.59
		c-76.808-6.586-123.152-24.943-171.643-44.153c-55.255-21.891-112.244-44.467-216.359-47.912v18.557
		C611.237,308.895,664.042,329.808,719.668,351.846z"/>
	<path opacity="0.7" fill="#EF7F65" d="M722.985,399.488c47.729,8.281,96.774,16.789,177.044,19.785v-9.414
		c-79.241-2.989-127.751-11.404-174.96-19.595c-54.477-9.453-110.663-19.2-213.042-20.71v9.405
		C613.358,380.468,669.02,390.124,722.985,399.488z"/>
	<path opacity="0.7" fill="#EF7F65" d="M724.155,442.48c47.437-1.078,96.182-2.186,175.874-2.577v-8.648
		c-79.817,0.392-128.629,1.5-176.13,2.579c-54.189,1.23-110.08,2.501-211.872,2.698v8.648
		C613.946,444.982,669.902,443.712,724.155,442.48z"/>
	<path opacity="0.7" fill="#EF7F65" d="M723.621,413.742c47.57,5.003,96.453,10.142,176.408,11.956v-5.985
		c-79.556-1.813-128.229-6.93-175.596-11.911c-54.32-5.712-110.348-11.604-212.406-12.518v5.983
		C613.679,402.183,669.5,408.051,723.621,413.742z"/>
	<path opacity="0.7" fill="#EF7F65" d="M723.225,383.768c47.669,10.781,96.652,21.855,176.805,25.76v-5.642
		c-79.357-3.897-127.93-14.879-175.199-25.57c-54.417-12.309-110.542-24.999-212.803-26.967v5.633
		C613.477,358.947,669.198,371.548,723.225,383.768z"/>
	<path opacity="0.7" fill="#EF7F65" d="M723.018,369.354c47.718,14.342,96.753,29.074,177.012,34.263v-5.477
		c-79.251-5.178-127.771-19.755-174.992-33.947c-54.465-16.369-110.64-33.25-213.01-35.864v5.461
		C613.367,336.402,669.039,353.131,723.018,369.354z"/>
	<path opacity="0.7" fill="#EF7F65" d="M723.93,427.278c47.493,1.515,96.297,3.07,176.1,3.62v-4.724
		c-79.707-0.55-128.46-2.104-175.904-3.616c-54.245-1.729-110.193-3.514-212.098-3.79v4.724
		C613.834,423.77,669.732,425.551,723.93,427.278z"/>
	<path opacity="0.7" fill="#EF7F65" d="M724.217,453.104c47.422-3.863,96.15-7.831,175.813-9.235v-3.584
		c-79.848,1.405-128.675,5.382-176.191,9.252c-54.175,4.414-110.05,8.964-211.811,9.672v3.584
		C613.977,462.084,669.949,457.525,724.217,453.104z"/>
	<rect x="959.363" y="255.348" opacity="0.7" fill="#EF7F65" width="4.664" height="210.781"/>
	<path opacity="0.7" fill="#B33A41" d="M717.419,82.046c49.112,9.971,99.584,20.217,182.61,23.744V53.322
		c-75.748-3.363-121.513-12.654-169.394-22.375C674.802,19.611,617.215,7.919,512.027,6.15v52.431
		C610.166,60.274,662.398,70.875,717.419,82.046z"/>
	<path opacity="0.7" fill="#B33A41" d="M723.827,135.316c47.52,0.496,96.349,1.005,176.202,1.186V106.99
		c-79.656-0.18-128.383-0.688-175.802-1.183c-54.271-0.566-110.245-1.15-212.2-1.241v29.511
		C613.782,134.168,669.655,134.751,723.827,135.316z"/>
	<path opacity="0.7" fill="#B33A41" d="M735.056,365.809c47.442-47.985,92.814-93.86,164.974-111.056v-20.536
		c-82.39,17.699-132.938,68.814-182.125,118.565c-55.803,56.441-108.781,110.008-205.877,118.648v19.99
		C619.563,482.617,678.204,423.311,735.056,365.809z"/>
	<path opacity="0.7" fill="#B33A41" d="M728.515,257.512c48.489-28.316,94.835-55.374,171.515-65.095v-14.263
		c-82.088,10.097-131.96,39.212-180.489,67.552c-55.638,32.489-108.454,63.323-207.513,68.21v14.195
		C616.294,323.041,673.271,289.771,728.515,257.512z"/>
	<path opacity="0.7" fill="#B33A41" d="M727.606,230.069c48.699-22.896,95.241-44.772,172.423-52.597v-13.296
		c-81.583,8.13-131.25,31.474-179.581,54.197c-55.833,26.249-108.832,51.159-208.421,55.089v13.274
		C615.763,282.649,672.549,255.954,727.606,230.069z"/>
	<path opacity="0.7" fill="#B33A41" d="M726.741,201.2c48.905-16.495,95.644-32.255,173.288-37.869v-13.24
		c-81.116,5.833-130.581,22.511-178.716,38.746c-56.028,18.897-109.211,36.83-209.286,39.647v13.243
		C615.276,238.794,671.87,219.708,726.741,201.2z"/>
	<path opacity="0.7" fill="#B33A41" d="M725.314,169.138c47.148-8.381,95.595-16.99,174.715-20.05v-11.365
		c-80.391,3.07-129.5,11.796-177.289,20.29c-53.906,9.582-109.506,19.463-210.713,21.008v11.354
		C614.53,188.828,670.778,178.832,725.314,169.138z"/>
	<path opacity="0.7" fill="#B33A41" d="M727.094,274.019c48.85-31.421,95.537-61.441,172.936-72.161v-9.108
		c-81.364,11.108-130.883,42.95-179.068,73.944c-55.987,36.012-109.133,70.186-208.934,75.566v9.085
		C615.551,345.76,672.185,309.337,727.094,274.019z"/>
	<path opacity="0.7" fill="#B33A41" d="M727.511,317.663c48.777-40.99,95.396-80.156,172.519-94.175v-8.9
		c-81.643,14.499-131.231,56.158-179.485,96.707c-55.93,47.001-109.021,91.604-208.517,98.645v8.831
		C615.856,411.485,672.547,363.853,727.511,317.663z"/>
	<path opacity="0.7" fill="#B33A41" d="M726.923,301.73c48.909-38.095,95.652-74.492,173.106-87.483v-7.67
		c-81.309,13.441-130.769,51.954-178.897,89.441c-56.051,43.657-109.257,85.087-209.104,91.607v7.642
		C615.503,388.509,672.074,344.451,726.923,301.73z"/>
	<path opacity="0.7" fill="#B33A41" d="M628.209,423.519c37.818-21.989,68.45-51.675,98.074-80.384
		c46.973-45.521,95.235-92.275,173.746-108.99v-5.526c-28.669,5.905-55.218,16.041-80.184,30.558
		c-37.818,21.99-68.45,51.676-98.074,80.384c-53.757,52.095-109.2,105.812-209.744,114.26v5.36
		C554.882,455.681,593.108,443.928,628.209,423.519z"/>
	<path opacity="0.7" fill="#B33A41" d="M627.822,403.618c37.762-20.313,68.373-47.757,97.976-74.297
		c47.073-42.203,95.442-85.552,174.231-101.011v-4.48c-28.525,5.453-54.947,14.793-79.797,28.16
		c-37.762,20.313-68.373,47.756-97.976,74.297c-53.85,48.277-109.389,98.059-210.229,105.867v4.362
		C554.736,433.281,592.836,422.438,627.822,403.618z"/>
	<path opacity="0.7" fill="#B33A41" d="M725.41,285.543c47.148-33.154,95.595-67.21,174.619-79.33v-3.949
		c-80.486,12.133-129.596,46.653-177.385,80.259c-53.915,37.912-109.522,77.006-210.617,83.126v3.887
		C614.644,363.426,670.883,323.886,725.41,285.543z"/>
	<rect x="959.363" y="54.19" opacity="0.7" fill="#B33A41" width="4.664" height="192.423"/>
	<path opacity="0.7" fill="#701B58" d="M407.175,8.141c-76.009,4.511-124.435,15.122-171.267,25.383
		C189.875,43.61,145.84,53.256,73.928,56.931v88.818c84.797-3.902,136.354-15.197,186.522-26.189
		c44.499-9.75,86.529-18.959,153.563-22.938c14.556-0.864,30.054-1.449,46.249-1.762V6.15C441.724,6.475,424.194,7.13,407.175,8.141
		z"/>
	<path opacity="0.7" fill="#701B58" d="M408.485,105.257c-14.575,0.719-28.881,1.673-42.521,2.835
		c-51.348,4.376-89.14,11.277-125.688,17.951c-47.181,8.615-92.305,16.852-166.349,19.938v65.81
		c82.34-3.247,132.676-12.434,181.65-21.376c36.18-6.606,70.354-12.846,117.649-16.877c12.629-1.077,25.909-1.961,39.469-2.63
		c14.984-0.738,30.925-1.24,47.565-1.501v-65.763C442.179,103.914,424.821,104.453,408.485,105.257z"/>
	<path opacity="0.7" fill="#701B58" d="M412.232,469.567c-13.67-0.808-27.065-1.878-39.815-3.183
		c-47.76-4.886-82.161-12.424-118.582-20.404c-48.539-10.635-98.414-21.56-179.908-25.446v42.738
		c74.892,3.713,120.451,13.692,168.092,24.132c36.316,7.957,73.869,16.186,124.75,21.391c13.534,1.384,27.728,2.52,42.185,3.373
		c16.192,0.957,33.392,1.6,51.307,1.922v-42.706C443.467,471.069,427.371,470.462,412.232,469.567z"/>
	<path opacity="0.7" fill="#701B58" d="M409.547,179.392c-14.314,0.565-28.363,1.313-41.757,2.227
		c-50.336,3.433-87.625,8.879-123.687,14.147c-48.18,7.038-94.247,13.766-170.176,16.247v40.784
		c80.454-2.586,129.798-9.792,177.825-16.808c36.688-5.358,71.342-10.421,119.646-13.715c12.89-0.878,26.43-1.6,40.24-2.145
		c15.33-0.604,31.625-1.015,48.624-1.225v-40.782C442.547,178.337,425.548,178.762,409.547,179.392z"/>
	<path opacity="0.7" fill="#701B58" d="M409.896,228.571c-14.238,0.421-28.203,0.979-41.506,1.66
		c-50.004,2.558-87.128,6.624-123.03,10.558c-46.428,5.087-94.117,10.311-171.432,12.235v36.314
		c79.834-1.938,128.855-7.307,176.568-12.533c35.234-3.86,71.668-7.853,120.306-10.34c12.966-0.663,26.589-1.207,40.489-1.619
		c15.444-0.456,31.854-0.766,48.97-0.924v-36.297C442.669,227.785,425.788,228.102,409.896,228.571z"/>
	<path opacity="0.7" fill="#701B58" d="M410.187,273.274c-14.147,0.278-28.041,0.649-41.295,1.101
		c-49.722,1.695-86.704,4.396-122.469,7.009c-46.694,3.41-94.656,6.913-172.495,8.198v31.756
		c79.312-1.289,128.055-4.85,175.503-8.314c35.372-2.584,71.948-5.256,120.868-6.924c13.057-0.444,26.751-0.81,40.702-1.084
		c15.531-0.306,32.039-0.514,49.26-0.619v-31.75C442.762,272.753,425.979,272.962,410.187,273.274z"/>
	<path opacity="0.7" fill="#701B58" d="M410.467,313.431c-14.114,0.14-27.938,0.323-41.089,0.548
		c-49.451,0.843-86.295,2.188-121.927,3.489c-46.953,1.715-95.182,3.476-173.524,4.119v19.599
		c78.797-0.645,127.269-2.415,174.455-4.138c35.51-1.297,72.229-2.638,121.431-3.476c13.09-0.223,26.853-0.407,40.906-0.547
		c15.596-0.153,32.2-0.257,49.542-0.311v-19.597C442.833,313.171,426.145,313.275,410.467,313.431z"/>
	<rect x="73.928" y="341.439" opacity="0.7" fill="#701B58" width="386.333" height="14.682"/>
	<path opacity="0.7" fill="#701B58" d="M410.683,364.532c-14.027-0.139-27.799-0.321-40.933-0.546
		c-49.238-0.839-85.976-2.18-121.503-3.478c-47.152-1.722-95.588-3.49-174.318-4.135v13.873
		c78.408,0.644,126.673,2.406,173.66,4.122c35.614,1.301,72.44,2.646,121.854,3.488c13.177,0.225,26.993,0.408,41.063,0.547
		c15.644,0.154,32.32,0.259,49.757,0.313v-13.873C442.885,364.79,426.269,364.686,410.683,364.532z"/>
	<path opacity="0.7" fill="#701B58" d="M410.769,386.819c-14.024-0.276-27.776-0.644-40.871-1.089
		c-49.15-1.676-85.843-4.356-121.326-6.948c-47.233-3.45-95.753-6.993-174.644-8.281v13.603
		c78.26,1.287,126.445,4.807,173.355,8.232c35.652,2.604,72.518,5.296,122.012,6.984c13.18,0.448,27.016,0.817,41.125,1.096
		c15.708,0.31,32.414,0.519,49.842,0.624v-13.6C442.951,387.334,426.365,387.127,410.769,386.819z"/>
	<path opacity="0.7" fill="#701B58" d="M410.854,408.834c-14.001-0.414-27.731-0.963-40.809-1.632
		c-49.065-2.511-85.714-6.525-121.156-10.408c-47.312-5.183-95.915-10.508-174.961-12.44v13.538
		c78.109,1.929,126.213,7.198,173.046,12.329c35.691,3.91,72.597,7.953,122.172,10.489c13.204,0.676,27.061,1.23,41.188,1.646
		c15.743,0.466,32.477,0.779,49.927,0.939v-13.532C442.988,409.604,426.431,409.293,410.854,408.834z"/>
	<path opacity="0.7" fill="#701B58" d="M410.926,430.777c-13.988-0.552-27.701-1.283-40.756-2.173
		c-49-3.342-85.616-8.69-121.027-13.862c-47.375-6.92-96.043-14.028-175.214-16.606v12.978
		c77.978,2.57,126.015,9.588,172.782,16.418c35.725,5.219,72.667,10.615,122.312,14.001c13.215,0.9,27.09,1.641,41.239,2.198
		c15.769,0.621,32.527,1.042,50,1.254v-12.968C443.015,431.806,426.481,431.391,410.926,430.777z"/>
	<path opacity="0.7" fill="#701B58" d="M410.88,452.157c-13.988-0.689-27.712-1.604-40.79-2.718
		c-49.045-4.18-85.687-10.871-121.121-17.342c-47.332-8.643-95.954-17.519-175.042-20.741v8.969
		c78.063,3.214,126.146,11.993,172.958,20.542c35.702,6.519,72.618,13.26,122.215,17.487c13.216,1.126,27.079,2.049,41.206,2.745
		c15.748,0.776,32.491,1.301,49.955,1.566v-8.958C442.994,453.443,426.445,452.924,410.88,452.157z"/>
	<rect x="8.179" y="58.494" opacity="0.7" fill="#701B58" width="6.416" height="403.269"/>
	<g>
		<text transform="matrix(1 0 0 1 917.8896 148.9385)" fill="#29313B" font-family="'Roboto-Regular'" font-size="13">EEA</text>
		<g>
			<text transform="matrix(1 0 0 1 903.6807 164.8174)" fill="#020303" font-family="'Roboto-Regular'" font-size="12">1,313,430</text>
		</g>
	</g>
	<g>
		<text transform="matrix(1 0 0 1 903.6846 373.3545)" fill="#020303" font-family="'Roboto-Regular'" font-size="12">1,445,157</text>
		<text transform="matrix(1 0 0 1 904.249 359.0742)" fill="#29313B" font-family="'Roboto-Regular'" font-size="13">Non EEA</text>
	</g>
	<g>
		<rect x="464.239" y="126.042" fill="none" width="43.812" height="19.076"/>
		<text transform="matrix(1 0 0 1 477.3159 133.7412)" fill="#020303" font-family="'Roboto-Light'" font-size="9">GBR</text>
		<text transform="matrix(1 0 0 1 471.897 145.1182)" fill="#020303" font-family="'Roboto-Regular'" font-size="10">449,</text>
		<text transform="matrix(0.583 0 0 0.583 490.7588 141.7881)" fill="#020303" font-family="'Roboto-Regular'" font-size="10">910</text>
	</g>
	<g>
		<text transform="matrix(1 0 0 1 475.0449 206.3945)" fill="#020303" font-family="'Roboto-Regular'" font-size="8">279,</text>
		<text transform="matrix(0.583 0 0 0.583 490.1348 203.7305)" fill="#020303" font-family="'Roboto-Regular'" font-size="8">021</text>
		<rect x="471.498" y="188.415" fill="none" width="28" height="13.334"/>
		<text transform="matrix(1 0 0 1 478.8062 195.2734)" fill="#020303" font-family="'Roboto-Light'" font-size="9">ITA</text>
	</g>
	<g>
		<text transform="matrix(1 0 0 1 471.7891 253.502)" fill="#020303" font-family="'Roboto-Regular'" font-size="10">248,</text>
		<text transform="matrix(0.583 0 0 0.583 490.6514 250.1719)" fill="#020303" font-family="'Roboto-Regular'" font-size="10">350</text>
		<text transform="matrix(1 0 0 1 477.0313 242.5781)" fill="#020303" font-family="'Roboto-Light'" font-size="9">ESP</text>
	</g>
	<g>
		<text transform="matrix(1 0 0 1 471.7905 295.3906)" fill="#020303" font-family="'Roboto-Regular'" font-size="10">217,</text>
		<text transform="matrix(0.583 0 0 0.583 490.6533 292.0605)" fill="#020303" font-family="'Roboto-Regular'" font-size="10">238</text>
		<text transform="matrix(1 0 0 1 477.7783 285.2754)" fill="#020303" font-family="'Roboto-Light'" font-size="9">FRA</text>
	</g>
	<g>
		<rect x="471.883" y="321.161" fill="none" width="31.502" height="8.989"/>
		<text transform="matrix(1 0 0 1 473.2788 329.7158)" fill="#020303" font-family="'Roboto-Regular'" font-size="10">134,</text>
		<text transform="matrix(0.583 0 0 0.583 492.1416 326.3857)" fill="#020303" font-family="'Roboto-Regular'" font-size="10">089</text>
		<text transform="matrix(1 0 0 1 477.4858 318.3311)" fill="#020303" font-family="'Roboto-Light'" font-size="9">CHE</text>
	</g>
	<g>
		<rect x="470.822" y="348.878" fill="none" width="32.564" height="9.197"/>
		<text transform="matrix(1 0 0 1 472.7432 357.4326)" fill="#020303" font-family="'Roboto-Regular'" font-size="10">100,</text>
		<text transform="matrix(0.583 0 0 0.583 491.6152 354.1025)" fill="#020303" font-family="'Roboto-Regular'" font-size="10">460</text>
		<text transform="matrix(1 0 0 1 478.3931 346.6445)" fill="#020303" font-family="'Roboto-Light'" font-size="9">BEL</text>
	</g>
	<g>
		<rect x="467.004" y="372.095" fill="none" width="38.506" height="8.806"/>
		<text transform="matrix(1 0 0 1 474.7183 380.6504)" fill="#020303" font-family="'Roboto-Regular'" font-size="10">94,</text>
		<text transform="matrix(0.583 0 0 0.583 487.9502 377.3203)" fill="#020303" font-family="'Roboto-Regular'" font-size="10">922</text>
		<text transform="matrix(1 0 0 1 476.8179 370.5029)" fill="#020303" font-family="'Roboto-Light'" font-size="9">SWE</text>
	</g>
	<g>
		<text transform="matrix(1 0 0 1 474.6035 403.1768)" fill="#020303" font-family="'Roboto-Regular'" font-size="10">93,</text>
		<text transform="matrix(0.583 0 0 0.583 487.8359 399.8467)" fill="#020303" font-family="'Roboto-Regular'" font-size="10">055</text>
		<text transform="matrix(1 0 0 1 477.626 393.4482)" fill="#020303" font-family="'Roboto-Light'" font-size="9">NDL</text>
	</g>
	<g>
		<rect x="470.011" y="416.25" fill="none" width="33.149" height="10.775"/>
		<text transform="matrix(1 0 0 1 475.0459 424.8047)" fill="#020303" font-family="'Roboto-Regular'" font-size="10">92,</text>
		<text transform="matrix(0.583 0 0 0.583 488.2783 421.4746)" fill="#020303" font-family="'Roboto-Regular'" font-size="10">585</text>
		<rect x="472.229" y="406.781" fill="none" width="27.83" height="8.469"/>
		<text transform="matrix(1 0 0 1 477.6494 414.4805)" fill="#020303" font-family="'Roboto-Light'" font-size="9">AUT</text>
	</g>
	<g>
		<g>
			<text transform="matrix(1 0 0 1 474.605 448.1807)" fill="#020303" font-family="'Roboto-Regular'" font-size="10">88,</text>
			<text transform="matrix(0.583 0 0 0.583 487.8369 444.8506)" fill="#020303" font-family="'Roboto-Regular'" font-size="10">724</text>
		</g>
		<text transform="matrix(1 0 0 1 477.9624 438.4365)" fill="#020303" font-family="'Roboto-Light'" font-size="9">POL</text>
	</g>
	<g>
		<g>
			<text transform="matrix(1 0 0 1 474.6045 469.0283)" fill="#020303" font-family="'Roboto-Regular'" font-size="10">61,</text>
			<text transform="matrix(0.583 0 0 0.583 487.8369 465.6982)" fill="#020303" font-family="'Roboto-Regular'" font-size="10">283</text>
		</g>
		<text transform="matrix(1 0 0 1 476.9595 458.8975)" fill="#020303" font-family="'Roboto-Light'" font-size="9">NOR</text>
	</g>
	<g>
		<rect x="465.052" y="499.447" fill="none" width="41.667" height="12.453"/>
		<text transform="matrix(1 0 0 1 471.5313 508.002)" fill="#020303" font-family="'Roboto-Regular'" font-size="10">292,</text>
		<text transform="matrix(0.583 0 0 0.583 490.3936 504.6719)" fill="#020303" font-family="'Roboto-Regular'" font-size="10">151</text>
		<text transform="matrix(1 0 0 1 471.7153 495.7656)" fill="#020303" font-family="'Roboto-Light'" font-size="9">OTHER</text>
	</g>
	<rect x="464.239" y="38.568" fill="none" width="43.812" height="9.71"/>
	<text transform="matrix(1 0 0 1 477.5796 46.2676)" fill="#020303" font-family="'Roboto-Light'" font-size="9">DEU</text>
	<rect x="464.239" y="49.456" fill="none" width="43.812" height="11.444"/>
	<text transform="matrix(1 0 0 1 471.7881 58.0117)" fill="#020303" font-family="'Roboto-Regular'" font-size="10">606,</text>
	<text transform="matrix(0.583 0 0 0.583 490.6553 54.6816)" fill="#020303" font-family="'Roboto-Regular'" font-size="10">799</text>
	<g>
		<text transform="matrix(1 0 0 1 20.416 271.9756)" fill="#020303" font-family="'Roboto-Regular'" font-size="11">2,758,587</text>
		<text transform="matrix(1 0 0 1 27.6836 240.2344)"><tspan x="0" y="0" fill="#29313B" font-family="'Roboto-Regular'" font-size="13">Total  </tspan><tspan x="-9.607" y="14" fill="#29313B" font-family="'Roboto-Regular'" font-size="13">Migrants</tspan></text>
	</g>
</g>
</svg>
