<?xml version="1.0" encoding="utf-8"?>
<!-- Generator: Adobe Illustrator 16.0.0, SVG Export Plug-In . SVG Version: 6.00 Build 0)  -->
<!DOCTYPE svg PUBLIC "-//W3C//DTD SVG 1.1//EN" "http://www.w3.org/Graphics/SVG/1.1/DTD/svg11.dtd">
<svg version="1.1" id="Capa_1" xmlns="http://www.w3.org/2000/svg" xmlns:xlink="http://www.w3.org/1999/xlink" x="0px" y="0px"
	 width="740px" height="570px" viewBox="0 0 740 570" enable-background="new 0 0 740 570" xml:space="preserve">
<g>
	<line opacity="0.4" fill="none" stroke="#27303A" stroke-miterlimit="10" x1="373" y1="546.5" x2="25" y2="546.5"/>
	<g opacity="0.4">
		<line fill="none" stroke="#27303A" stroke-miterlimit="10" x1="315.5" y1="546" x2="315.5" y2="0"/>
		<line fill="none" stroke="#27303A" stroke-miterlimit="10" x1="257.5" y1="546" x2="257.5" y2="0"/>
		<line fill="none" stroke="#27303A" stroke-miterlimit="10" x1="199.5" y1="546" x2="199.5" y2="0"/>
		<line fill="none" stroke="#27303A" stroke-miterlimit="10" x1="141.5" y1="546" x2="141.5" y2="0"/>
		<line fill="none" stroke="#27303A" stroke-miterlimit="10" x1="83.5" y1="546" x2="83.5" y2="0"/>
		<line fill="none" stroke="#27303A" stroke-miterlimit="10" x1="25.5" y1="546" x2="25.5" y2="0"/>
	</g>
	<line opacity="0.4" fill="none" stroke="#27303A" stroke-miterlimit="10" x1="379" y1="546.5" x2="727" y2="546.5"/>
	<g opacity="0.4">
		<line fill="none" stroke="#27303A" stroke-miterlimit="10" x1="448.5" y1="546" x2="448.5" y2="0"/>
		<line fill="none" stroke="#27303A" stroke-miterlimit="10" x1="518.5" y1="546" x2="518.5" y2="0"/>
		<line fill="none" stroke="#27303A" stroke-miterlimit="10" x1="587.5" y1="546" x2="587.5" y2="0"/>
		<line fill="none" stroke="#27303A" stroke-miterlimit="10" x1="657.5" y1="546" x2="657.5" y2="0"/>
		<line fill="none" stroke="#27303A" stroke-miterlimit="10" x1="726.5" y1="546" x2="726.5" y2="0"/>
	</g>
	<linearGradient id="SVGID_1_" gradientUnits="userSpaceOnUse" x1="72" y1="6.5" x2="372" y2="6.5">
		<stop  offset="0" style="stop-color:#C3C3C3"/>
		<stop  offset="1" style="stop-color:#C3C3C3;stop-opacity:0.5"/>
	</linearGradient>
	<rect x="72" fill="url(#SVGID_1_)" width="300" height="13"/>
	<linearGradient id="SVGID_2_" gradientUnits="userSpaceOnUse" x1="156" y1="24" x2="372" y2="24">
		<stop  offset="0" style="stop-color:#C3C3C3"/>
		<stop  offset="1" style="stop-color:#C3C3C3;stop-opacity:0.5"/>
	</linearGradient>
	<rect x="156" y="18" fill="url(#SVGID_2_)" width="216" height="12"/>
	<linearGradient id="SVGID_3_" gradientUnits="userSpaceOnUse" x1="184" y1="41.5" x2="372" y2="41.5">
		<stop  offset="0" style="stop-color:#C3C3C3"/>
		<stop  offset="1" style="stop-color:#C3C3C3;stop-opacity:0.5"/>
	</linearGradient>
	<rect x="184" y="35" fill="url(#SVGID_3_)" width="188" height="13"/>
	<linearGradient id="SVGID_4_" gradientUnits="userSpaceOnUse" x1="220" y1="59.5" x2="372" y2="59.5">
		<stop  offset="0" style="stop-color:#C3C3C3"/>
		<stop  offset="1" style="stop-color:#C3C3C3;stop-opacity:0.5"/>
	</linearGradient>
	<rect x="220" y="53" fill="url(#SVGID_4_)" width="152" height="13"/>
	<linearGradient id="SVGID_5_" gradientUnits="userSpaceOnUse" x1="221" y1="77.5" x2="372" y2="77.5">
		<stop  offset="0" style="stop-color:#C3C3C3"/>
		<stop  offset="1" style="stop-color:#C3C3C3;stop-opacity:0.5"/>
	</linearGradient>
	<rect x="221" y="71" fill="url(#SVGID_5_)" width="151" height="13"/>
	<linearGradient id="SVGID_6_" gradientUnits="userSpaceOnUse" x1="223" y1="95" x2="372" y2="95">
		<stop  offset="0" style="stop-color:#C3C3C3"/>
		<stop  offset="1" style="stop-color:#C3C3C3;stop-opacity:0.5"/>
	</linearGradient>
	<rect x="223" y="89" fill="url(#SVGID_6_)" width="149" height="12"/>
	<linearGradient id="SVGID_7_" gradientUnits="userSpaceOnUse" x1="224" y1="112.5" x2="372" y2="112.5">
		<stop  offset="0" style="stop-color:#C3C3C3"/>
		<stop  offset="1" style="stop-color:#C3C3C3;stop-opacity:0.5"/>
	</linearGradient>
	<rect x="224" y="106" fill="url(#SVGID_7_)" width="148" height="13"/>
	<linearGradient id="SVGID_8_" gradientUnits="userSpaceOnUse" x1="228" y1="130.5" x2="372" y2="130.5">
		<stop  offset="0" style="stop-color:#C3C3C3"/>
		<stop  offset="1" style="stop-color:#C3C3C3;stop-opacity:0.5"/>
	</linearGradient>
	<rect x="228" y="124" fill="url(#SVGID_8_)" width="144" height="13"/>
	<linearGradient id="SVGID_9_" gradientUnits="userSpaceOnUse" x1="230" y1="148" x2="372" y2="148">
		<stop  offset="0" style="stop-color:#C3C3C3"/>
		<stop  offset="1" style="stop-color:#C3C3C3;stop-opacity:0.5"/>
	</linearGradient>
	<rect x="230" y="142" fill="url(#SVGID_9_)" width="142" height="12"/>
	<linearGradient id="SVGID_10_" gradientUnits="userSpaceOnUse" x1="234" y1="165.5" x2="372" y2="165.5">
		<stop  offset="0" style="stop-color:#C3C3C3"/>
		<stop  offset="1" style="stop-color:#C3C3C3;stop-opacity:0.5"/>
	</linearGradient>
	<rect x="234" y="159" fill="url(#SVGID_10_)" width="138" height="13"/>
	<linearGradient id="SVGID_11_" gradientUnits="userSpaceOnUse" x1="234" y1="183.5" x2="372" y2="183.5">
		<stop  offset="0" style="stop-color:#C3C3C3"/>
		<stop  offset="1" style="stop-color:#C3C3C3;stop-opacity:0.5"/>
	</linearGradient>
	<rect x="234" y="177" fill="url(#SVGID_11_)" width="138" height="13"/>
	<linearGradient id="SVGID_12_" gradientUnits="userSpaceOnUse" x1="240" y1="201.5" x2="372" y2="201.5">
		<stop  offset="0" style="stop-color:#C3C3C3"/>
		<stop  offset="1" style="stop-color:#C3C3C3;stop-opacity:0.5"/>
	</linearGradient>
	<rect x="240" y="195" fill="url(#SVGID_12_)" width="132" height="13"/>
	<linearGradient id="SVGID_13_" gradientUnits="userSpaceOnUse" x1="245" y1="219" x2="372" y2="219">
		<stop  offset="0" style="stop-color:#C3C3C3"/>
		<stop  offset="1" style="stop-color:#C3C3C3;stop-opacity:0.5"/>
	</linearGradient>
	<rect x="245" y="213" fill="url(#SVGID_13_)" width="127" height="12"/>
	<linearGradient id="SVGID_14_" gradientUnits="userSpaceOnUse" x1="247" y1="236.5" x2="372" y2="236.5">
		<stop  offset="0" style="stop-color:#C3C3C3"/>
		<stop  offset="1" style="stop-color:#C3C3C3;stop-opacity:0.5"/>
	</linearGradient>
	<rect x="247" y="230" fill="url(#SVGID_14_)" width="125" height="13"/>
	<linearGradient id="SVGID_15_" gradientUnits="userSpaceOnUse" x1="257" y1="254.5" x2="372" y2="254.5">
		<stop  offset="0" style="stop-color:#C3C3C3"/>
		<stop  offset="1" style="stop-color:#C3C3C3;stop-opacity:0.5"/>
	</linearGradient>
	<rect x="257" y="248" fill="url(#SVGID_15_)" width="115" height="13"/>
	<linearGradient id="SVGID_16_" gradientUnits="userSpaceOnUse" x1="263" y1="272" x2="372" y2="272">
		<stop  offset="0" style="stop-color:#C3C3C3"/>
		<stop  offset="1" style="stop-color:#C3C3C3;stop-opacity:0.5"/>
	</linearGradient>
	<rect x="263" y="266" fill="url(#SVGID_16_)" width="109" height="12"/>
	<linearGradient id="SVGID_17_" gradientUnits="userSpaceOnUse" x1="268" y1="289.5" x2="372" y2="289.5">
		<stop  offset="0" style="stop-color:#C3C3C3"/>
		<stop  offset="1" style="stop-color:#C3C3C3;stop-opacity:0.5"/>
	</linearGradient>
	<rect x="268" y="283" fill="url(#SVGID_17_)" width="104" height="13"/>
	<linearGradient id="SVGID_18_" gradientUnits="userSpaceOnUse" x1="272" y1="307.5" x2="372" y2="307.5">
		<stop  offset="0" style="stop-color:#C3C3C3"/>
		<stop  offset="1" style="stop-color:#C3C3C3;stop-opacity:0.5"/>
	</linearGradient>
	<rect x="272" y="301" fill="url(#SVGID_18_)" width="100" height="13"/>
	<linearGradient id="SVGID_19_" gradientUnits="userSpaceOnUse" x1="276" y1="325.5" x2="372" y2="325.5">
		<stop  offset="0" style="stop-color:#C3C3C3"/>
		<stop  offset="1" style="stop-color:#C3C3C3;stop-opacity:0.5"/>
	</linearGradient>
	<rect x="276" y="319" fill="url(#SVGID_19_)" width="96" height="13"/>
	<linearGradient id="SVGID_20_" gradientUnits="userSpaceOnUse" x1="276" y1="343" x2="372" y2="343">
		<stop  offset="0" style="stop-color:#C3C3C3"/>
		<stop  offset="1" style="stop-color:#C3C3C3;stop-opacity:0.5"/>
	</linearGradient>
	<rect x="276" y="337" fill="url(#SVGID_20_)" width="96" height="12"/>
	<linearGradient id="SVGID_21_" gradientUnits="userSpaceOnUse" x1="281" y1="360.5" x2="372" y2="360.5">
		<stop  offset="0" style="stop-color:#C3C3C3"/>
		<stop  offset="1" style="stop-color:#C3C3C3;stop-opacity:0.5"/>
	</linearGradient>
	<rect x="281" y="354" fill="url(#SVGID_21_)" width="91" height="13"/>
	<linearGradient id="SVGID_22_" gradientUnits="userSpaceOnUse" x1="285" y1="378.5" x2="372" y2="378.5">
		<stop  offset="0" style="stop-color:#C3C3C3"/>
		<stop  offset="1" style="stop-color:#C3C3C3;stop-opacity:0.5"/>
	</linearGradient>
	<rect x="285" y="372" fill="url(#SVGID_22_)" width="87" height="13"/>
	<linearGradient id="SVGID_23_" gradientUnits="userSpaceOnUse" x1="287" y1="396" x2="372" y2="396">
		<stop  offset="0" style="stop-color:#C3C3C3"/>
		<stop  offset="1" style="stop-color:#C3C3C3;stop-opacity:0.5"/>
	</linearGradient>
	<rect x="287" y="390" fill="url(#SVGID_23_)" width="85" height="12"/>
	<linearGradient id="SVGID_24_" gradientUnits="userSpaceOnUse" x1="287" y1="413.5" x2="372" y2="413.5">
		<stop  offset="0" style="stop-color:#C3C3C3"/>
		<stop  offset="1" style="stop-color:#C3C3C3;stop-opacity:0.5"/>
	</linearGradient>
	<rect x="287" y="407" fill="url(#SVGID_24_)" width="85" height="13"/>
	<linearGradient id="SVGID_25_" gradientUnits="userSpaceOnUse" x1="287" y1="431.5" x2="372" y2="431.5">
		<stop  offset="0" style="stop-color:#C3C3C3"/>
		<stop  offset="1" style="stop-color:#C3C3C3;stop-opacity:0.5"/>
	</linearGradient>
	<rect x="287" y="425" fill="url(#SVGID_25_)" width="85" height="13"/>
	<linearGradient id="SVGID_26_" gradientUnits="userSpaceOnUse" x1="294" y1="449.5" x2="372" y2="449.5">
		<stop  offset="0" style="stop-color:#C3C3C3"/>
		<stop  offset="1" style="stop-color:#C3C3C3;stop-opacity:0.5"/>
	</linearGradient>
	<rect x="294" y="443" fill="url(#SVGID_26_)" width="78" height="13"/>
	<linearGradient id="SVGID_27_" gradientUnits="userSpaceOnUse" x1="295" y1="466.5" x2="372" y2="466.5">
		<stop  offset="0" style="stop-color:#C3C3C3"/>
		<stop  offset="1" style="stop-color:#C3C3C3;stop-opacity:0.5"/>
	</linearGradient>
	<rect x="295" y="460" fill="url(#SVGID_27_)" width="77" height="13"/>
	<linearGradient id="SVGID_28_" gradientUnits="userSpaceOnUse" x1="297" y1="484.5" x2="372" y2="484.5">
		<stop  offset="0" style="stop-color:#C3C3C3"/>
		<stop  offset="1" style="stop-color:#C3C3C3;stop-opacity:0.5"/>
	</linearGradient>
	<rect x="297" y="478" fill="url(#SVGID_28_)" width="75" height="13"/>
	<linearGradient id="SVGID_29_" gradientUnits="userSpaceOnUse" x1="301" y1="502.5" x2="372" y2="502.5">
		<stop  offset="0" style="stop-color:#C3C3C3"/>
		<stop  offset="1" style="stop-color:#C3C3C3;stop-opacity:0.5"/>
	</linearGradient>
	<rect x="301" y="496" fill="url(#SVGID_29_)" width="71" height="13"/>
	<linearGradient id="SVGID_30_" gradientUnits="userSpaceOnUse" x1="309" y1="520" x2="372" y2="520">
		<stop  offset="0" style="stop-color:#C3C3C3"/>
		<stop  offset="1" style="stop-color:#C3C3C3;stop-opacity:0.5"/>
	</linearGradient>
	<rect x="309" y="514" fill="url(#SVGID_30_)" width="63" height="12"/>
	<linearGradient id="SVGID_31_" gradientUnits="userSpaceOnUse" x1="319" y1="537.5" x2="372" y2="537.5">
		<stop  offset="0" style="stop-color:#C3C3C3"/>
		<stop  offset="1" style="stop-color:#C3C3C3;stop-opacity:0.5"/>
	</linearGradient>
	<rect x="319" y="531" fill="url(#SVGID_31_)" width="53" height="13"/>
	<g>
		<linearGradient id="SVGID_32_" gradientUnits="userSpaceOnUse" x1="378" y1="6.5" x2="643" y2="6.5">
			<stop  offset="0" style="stop-color:#C3C3C3;stop-opacity:0.5"/>
			<stop  offset="1" style="stop-color:#C3C3C3"/>
		</linearGradient>
		<rect x="378" fill="url(#SVGID_32_)" width="265" height="13"/>
		<linearGradient id="SVGID_33_" gradientUnits="userSpaceOnUse" x1="378" y1="24" x2="439" y2="24">
			<stop  offset="0" style="stop-color:#C3C3C3;stop-opacity:0.5"/>
			<stop  offset="1" style="stop-color:#C3C3C3"/>
		</linearGradient>
		<rect x="378" y="18" fill="url(#SVGID_33_)" width="61" height="12"/>
		<linearGradient id="SVGID_34_" gradientUnits="userSpaceOnUse" x1="378" y1="41.5" x2="525" y2="41.5">
			<stop  offset="0" style="stop-color:#C3C3C3;stop-opacity:0.5"/>
			<stop  offset="1" style="stop-color:#C3C3C3"/>
		</linearGradient>
		<rect x="378" y="35" fill="url(#SVGID_34_)" width="147" height="13"/>
		<linearGradient id="SVGID_35_" gradientUnits="userSpaceOnUse" x1="378" y1="59.5" x2="453" y2="59.5">
			<stop  offset="0" style="stop-color:#C3C3C3;stop-opacity:0.5"/>
			<stop  offset="1" style="stop-color:#C3C3C3"/>
		</linearGradient>
		<rect x="378" y="53" fill="url(#SVGID_35_)" width="75" height="13"/>
		<linearGradient id="SVGID_36_" gradientUnits="userSpaceOnUse" x1="378" y1="77.5" x2="631" y2="77.5">
			<stop  offset="0" style="stop-color:#C3C3C3;stop-opacity:0.5"/>
			<stop  offset="1" style="stop-color:#C3C3C3"/>
		</linearGradient>
		<rect x="378" y="71" fill="url(#SVGID_36_)" width="253" height="13"/>
		<linearGradient id="SVGID_37_" gradientUnits="userSpaceOnUse" x1="378" y1="95" x2="480" y2="95">
			<stop  offset="0" style="stop-color:#C3C3C3;stop-opacity:0.5"/>
			<stop  offset="1" style="stop-color:#C3C3C3"/>
		</linearGradient>
		<rect x="378" y="89" fill="url(#SVGID_37_)" width="102" height="12"/>
		<linearGradient id="SVGID_38_" gradientUnits="userSpaceOnUse" x1="378" y1="112.5" x2="439" y2="112.5">
			<stop  offset="0" style="stop-color:#C3C3C3;stop-opacity:0.5"/>
			<stop  offset="1" style="stop-color:#C3C3C3"/>
		</linearGradient>
		<rect x="378" y="106" fill="url(#SVGID_38_)" width="61" height="13"/>
		<linearGradient id="SVGID_39_" gradientUnits="userSpaceOnUse" x1="378" y1="130.5" x2="448" y2="130.5">
			<stop  offset="0" style="stop-color:#C3C3C3;stop-opacity:0.5"/>
			<stop  offset="1" style="stop-color:#C3C3C3"/>
		</linearGradient>
		<rect x="378" y="124" fill="url(#SVGID_39_)" width="70" height="13"/>
		<linearGradient id="SVGID_40_" gradientUnits="userSpaceOnUse" x1="378" y1="148" x2="439" y2="148">
			<stop  offset="0" style="stop-color:#C3C3C3;stop-opacity:0.5"/>
			<stop  offset="1" style="stop-color:#C3C3C3"/>
		</linearGradient>
		<rect x="378" y="142" fill="url(#SVGID_40_)" width="61" height="12"/>
		<linearGradient id="SVGID_41_" gradientUnits="userSpaceOnUse" x1="378" y1="165.5" x2="467" y2="165.5">
			<stop  offset="0" style="stop-color:#C3C3C3;stop-opacity:0.5"/>
			<stop  offset="1" style="stop-color:#C3C3C3"/>
		</linearGradient>
		<rect x="378" y="159" fill="url(#SVGID_41_)" width="89" height="13"/>
		<linearGradient id="SVGID_42_" gradientUnits="userSpaceOnUse" x1="378" y1="183.5" x2="580" y2="183.5">
			<stop  offset="0" style="stop-color:#C3C3C3;stop-opacity:0.5"/>
			<stop  offset="1" style="stop-color:#C3C3C3"/>
		</linearGradient>
		<rect x="378" y="177" fill="url(#SVGID_42_)" width="202" height="13"/>
		<linearGradient id="SVGID_43_" gradientUnits="userSpaceOnUse" x1="378" y1="201.5" x2="485" y2="201.5">
			<stop  offset="0" style="stop-color:#C3C3C3;stop-opacity:0.5"/>
			<stop  offset="1" style="stop-color:#C3C3C3"/>
		</linearGradient>
		<rect x="378" y="195" fill="url(#SVGID_43_)" width="107" height="13"/>
		<linearGradient id="SVGID_44_" gradientUnits="userSpaceOnUse" x1="378" y1="219" x2="425" y2="219">
			<stop  offset="0" style="stop-color:#C3C3C3;stop-opacity:0.5"/>
			<stop  offset="1" style="stop-color:#C3C3C3"/>
		</linearGradient>
		<rect x="378" y="213" fill="url(#SVGID_44_)" width="47" height="12"/>
		<linearGradient id="SVGID_45_" gradientUnits="userSpaceOnUse" x1="378" y1="236.5" x2="422" y2="236.5">
			<stop  offset="0" style="stop-color:#C3C3C3;stop-opacity:0.5"/>
			<stop  offset="1" style="stop-color:#C3C3C3"/>
		</linearGradient>
		<rect x="378" y="230" fill="url(#SVGID_45_)" width="44" height="13"/>
		<linearGradient id="SVGID_46_" gradientUnits="userSpaceOnUse" x1="378" y1="254.5" x2="439" y2="254.5">
			<stop  offset="0" style="stop-color:#C3C3C3;stop-opacity:0.5"/>
			<stop  offset="1" style="stop-color:#C3C3C3"/>
		</linearGradient>
		<rect x="378" y="248" fill="url(#SVGID_46_)" width="61" height="13"/>
		<linearGradient id="SVGID_47_" gradientUnits="userSpaceOnUse" x1="378" y1="272" x2="416" y2="272">
			<stop  offset="0" style="stop-color:#C3C3C3;stop-opacity:0.5"/>
			<stop  offset="1" style="stop-color:#C3C3C3"/>
		</linearGradient>
		<rect x="378" y="266" fill="url(#SVGID_47_)" width="38" height="12"/>
		<linearGradient id="SVGID_48_" gradientUnits="userSpaceOnUse" x1="378" y1="289.5" x2="610" y2="289.5">
			<stop  offset="0" style="stop-color:#C3C3C3;stop-opacity:0.5"/>
			<stop  offset="1" style="stop-color:#C3C3C3"/>
		</linearGradient>
		<rect x="378" y="283" fill="url(#SVGID_48_)" width="232" height="13"/>
		<linearGradient id="SVGID_49_" gradientUnits="userSpaceOnUse" x1="378" y1="307.5" x2="571" y2="307.5">
			<stop  offset="0" style="stop-color:#C3C3C3;stop-opacity:0.5"/>
			<stop  offset="1" style="stop-color:#C3C3C3"/>
		</linearGradient>
		<rect x="378" y="301" fill="url(#SVGID_49_)" width="193" height="13"/>
		<linearGradient id="SVGID_50_" gradientUnits="userSpaceOnUse" x1="378" y1="325.5" x2="464" y2="325.5">
			<stop  offset="0" style="stop-color:#C3C3C3;stop-opacity:0.5"/>
			<stop  offset="1" style="stop-color:#C3C3C3"/>
		</linearGradient>
		<rect x="378" y="319" fill="url(#SVGID_50_)" width="86" height="13"/>
		<linearGradient id="SVGID_51_" gradientUnits="userSpaceOnUse" x1="378" y1="343" x2="520" y2="343">
			<stop  offset="0" style="stop-color:#C3C3C3;stop-opacity:0.5"/>
			<stop  offset="1" style="stop-color:#C3C3C3"/>
		</linearGradient>
		<rect x="378" y="337" fill="url(#SVGID_51_)" width="142" height="12"/>
		<linearGradient id="SVGID_52_" gradientUnits="userSpaceOnUse" x1="378" y1="360.5" x2="680" y2="360.5">
			<stop  offset="0" style="stop-color:#C3C3C3;stop-opacity:0.5"/>
			<stop  offset="1" style="stop-color:#C3C3C3"/>
		</linearGradient>
		<rect x="378" y="354" fill="url(#SVGID_52_)" width="302" height="13"/>
		<linearGradient id="SVGID_53_" gradientUnits="userSpaceOnUse" x1="378" y1="378.5" x2="608" y2="378.5">
			<stop  offset="0" style="stop-color:#C3C3C3;stop-opacity:0.5"/>
			<stop  offset="1" style="stop-color:#C3C3C3"/>
		</linearGradient>
		<rect x="378" y="372" fill="url(#SVGID_53_)" width="230" height="13"/>
		<linearGradient id="SVGID_54_" gradientUnits="userSpaceOnUse" x1="378" y1="396" x2="534" y2="396">
			<stop  offset="0" style="stop-color:#C3C3C3;stop-opacity:0.5"/>
			<stop  offset="1" style="stop-color:#C3C3C3"/>
		</linearGradient>
		<rect x="378" y="390" fill="url(#SVGID_54_)" width="156" height="12"/>
		<linearGradient id="SVGID_55_" gradientUnits="userSpaceOnUse" x1="378" y1="413.5" x2="471" y2="413.5">
			<stop  offset="0" style="stop-color:#C3C3C3;stop-opacity:0.5"/>
			<stop  offset="1" style="stop-color:#C3C3C3"/>
		</linearGradient>
		<rect x="378" y="407" fill="url(#SVGID_55_)" width="93" height="13"/>
		<linearGradient id="SVGID_56_" gradientUnits="userSpaceOnUse" x1="378" y1="431.5" x2="671" y2="431.5">
			<stop  offset="0" style="stop-color:#C3C3C3;stop-opacity:0.5"/>
			<stop  offset="1" style="stop-color:#C3C3C3"/>
		</linearGradient>
		<rect x="378" y="425" fill="url(#SVGID_56_)" width="293" height="13"/>
		<linearGradient id="SVGID_57_" gradientUnits="userSpaceOnUse" x1="378" y1="449.5" x2="548" y2="449.5">
			<stop  offset="0" style="stop-color:#C3C3C3;stop-opacity:0.5"/>
			<stop  offset="1" style="stop-color:#C3C3C3"/>
		</linearGradient>
		<rect x="378" y="443" fill="url(#SVGID_57_)" width="170" height="13"/>
		<linearGradient id="SVGID_58_" gradientUnits="userSpaceOnUse" x1="378" y1="466.5" x2="462" y2="466.5">
			<stop  offset="0" style="stop-color:#C3C3C3;stop-opacity:0.5"/>
			<stop  offset="1" style="stop-color:#C3C3C3"/>
		</linearGradient>
		<rect x="378" y="460" fill="url(#SVGID_58_)" width="84" height="13"/>
		<linearGradient id="SVGID_59_" gradientUnits="userSpaceOnUse" x1="378" y1="484.5" x2="566" y2="484.5">
			<stop  offset="0" style="stop-color:#C3C3C3;stop-opacity:0.5"/>
			<stop  offset="1" style="stop-color:#C3C3C3"/>
		</linearGradient>
		<rect x="378" y="478" fill="url(#SVGID_59_)" width="188" height="13"/>
		<linearGradient id="SVGID_60_" gradientUnits="userSpaceOnUse" x1="378" y1="502.5" x2="613" y2="502.5">
			<stop  offset="0" style="stop-color:#C3C3C3;stop-opacity:0.5"/>
			<stop  offset="1" style="stop-color:#C3C3C3"/>
		</linearGradient>
		<rect x="378" y="496" fill="url(#SVGID_60_)" width="235" height="13"/>
		<linearGradient id="SVGID_61_" gradientUnits="userSpaceOnUse" x1="378" y1="520" x2="722" y2="520">
			<stop  offset="0" style="stop-color:#C3C3C3;stop-opacity:0.5"/>
			<stop  offset="1" style="stop-color:#C3C3C3"/>
		</linearGradient>
		<rect x="378" y="514" fill="url(#SVGID_61_)" width="344" height="12"/>
		<linearGradient id="SVGID_62_" gradientUnits="userSpaceOnUse" x1="378" y1="537.5" x2="559" y2="537.5">
			<stop  offset="0" style="stop-color:#C3C3C3;stop-opacity:0.5"/>
			<stop  offset="1" style="stop-color:#C3C3C3"/>
		</linearGradient>
		<rect x="378" y="531" fill="url(#SVGID_62_)" width="181" height="13"/>
	</g>
	<g>
		<text transform="matrix(-1 0 0 1 378.748 566.873)" fill="#27303A" font-family="'Roboto-Medium'" font-size="9">0</text>
	</g>
	<g>
		<text transform="matrix(1 0 0 1 315.373 566.873)" fill="#27303A" font-family="'Roboto-Medium'" font-size="9">50</text>
	</g>
	<g>
		<text transform="matrix(1 0 0 1 257.373 566.873)" fill="#27303A" font-family="'Roboto-Medium'" font-size="9">100</text>
	</g>
	<g>
		<text transform="matrix(1 0 0 1 199.373 566.873)" fill="#27303A" font-family="'Roboto-Medium'" font-size="9">150</text>
	</g>
	<g>
		<text transform="matrix(1 0 0 1 141.373 566.873)" fill="#27303A" font-family="'Roboto-Medium'" font-size="9">200</text>
	</g>
	<g>
		<text transform="matrix(1 0 0 1 83.373 566.873)" fill="#27303A" font-family="'Roboto-Medium'" font-size="9">250</text>
	</g>
	<g>
		<text transform="matrix(1 0 0 1 25.373 566.873)" fill="#27303A" font-family="'Roboto-Medium'" font-size="9">300</text>
	</g>
	<text transform="matrix(1 0 0 1 258.666 543.3232)" fill="#27303A" font-family="'Roboto-Light'" font-size="11">Bulgaria</text>
	<text transform="matrix(1 0 0 1 247.3057 525.6133)" fill="#27303A" font-family="'Roboto-Light'" font-size="11">Romania</text>
	<text transform="matrix(1 0 0 1 245.9688 507.9043)" fill="#27303A" font-family="'Roboto-Light'" font-size="11">Croatia</text>
	<text transform="matrix(1 0 0 1 251.7104 490.1943)" fill="#27303A" font-family="'Roboto-Light'" font-size="11">Latvia</text>
	<text transform="matrix(1 0 0 1 229.8486 472.4844)" fill="#27303A" font-family="'Roboto-Light'" font-size="11">Hungary</text>
	<text transform="matrix(1 0 0 1 236.2793 454.7754)" fill="#27303A" font-family="'Roboto-Light'" font-size="11">Poland</text>
	<text transform="matrix(1 0 0 1 225.2266 437.0654)" fill="#27303A" font-family="'Roboto-Light'" font-size="11">Lithuania</text>
	<text transform="matrix(1 0 0 1 235.332 419.3555)" fill="#27303A" font-family="'Roboto-Light'" font-size="11">Greece</text>
	<text transform="matrix(1 0 0 1 232.7026 401.6455)" fill="#27303A" font-family="'Roboto-Light'" font-size="11">Estonia</text>
	<text transform="matrix(1 0 0 1 225.5234 383.9365)" fill="#27303A" font-family="'Roboto-Light'" font-size="11">Slovakia</text>
	<text transform="matrix(1 0 0 1 223.3125 366.2266)" fill="#27303A" font-family="'Roboto-Light'" font-size="11">Portugal</text>
	<text transform="matrix(1 0 0 1 216.9844 348.5166)" fill="#27303A" font-family="'Roboto-Light'" font-size="11">Slovenia</text>
	<text transform="matrix(1 0 0 1 183.2319 330.8076)" fill="#27303A" font-family="'Roboto-Light'" font-size="11">Czech Republic</text>
	<text transform="matrix(1 0 0 1 229.3545 313.0977)" fill="#27303A" font-family="'Roboto-Light'" font-size="11">Malta</text>
	<text transform="matrix(1 0 0 1 219.0146 295.3877)" fill="#27303A" font-family="'Roboto-Light'" font-size="11">Cyprus</text>
	<text transform="matrix(1 0 0 1 214.0293 277.6777)" fill="#27303A" font-family="'Roboto-Light'" font-size="11">Spain</text>
	<text transform="matrix(1 0 0 1 220.4443 259.9688)" fill="#27303A" font-family="'Roboto-Light'" font-size="11">Italy</text>
	<text transform="matrix(1 0 0 1 197.8105 242.2588)" fill="#27303A" font-family="'Roboto-Light'" font-size="11">France</text>
	<text transform="matrix(1 0 0 1 153.0664 224.5488)" fill="#27303A" font-family="'Roboto-Light'" font-size="11">United Kingdom</text>
	<text transform="matrix(1 0 0 1 189.6777 206.8398)" fill="#27303A" font-family="'Roboto-Light'" font-size="11">Finland</text>
	<text transform="matrix(1 0 0 1 186.8672 189.1299)" fill="#27303A" font-family="'Roboto-Light'" font-size="11">Iceland</text>
	<text transform="matrix(1 0 0 1 175.3877 171.4199)" fill="#27303A" font-family="'Roboto-Light'" font-size="11">Belgium</text>
	<text transform="matrix(1 0 0 1 170.7637 153.7109)" fill="#27303A" font-family="'Roboto-Light'" font-size="11">Germany</text>
	<text transform="matrix(1 0 0 1 171.0479 136.001)" fill="#27303A" font-family="'Roboto-Light'" font-size="11">Denmark</text>
	<text transform="matrix(1 0 0 1 168.8232 118.291)" fill="#27303A" font-family="'Roboto-Light'" font-size="11">Sweden</text>
	<text transform="matrix(1 0 0 1 172.9365 100.5811)" fill="#27303A" font-family="'Roboto-Light'" font-size="11">Austria</text>
	<text transform="matrix(1 0 0 1 174.2959 82.8721)" fill="#27303A" font-family="'Roboto-Light'" font-size="11">Ireland</text>
	<text transform="matrix(1 0 0 1 148.418 65.1621)" fill="#27303A" font-family="'Roboto-Light'" font-size="11">Netherlands</text>
	<text transform="matrix(1 0 0 1 117.8027 47.4521)" fill="#27303A" font-family="'Roboto-Light'" font-size="11">Switzerland</text>
	<text transform="matrix(1 0 0 1 104.502 29.7432)" fill="#27303A" font-family="'Roboto-Light'" font-size="11">Norway</text>
	<text transform="matrix(1 0 0 1 -2.1177 12.0332)" fill="#27303A" font-family="'Roboto-Light'" font-size="11">Luxembourg</text>
	<g>
		<text transform="matrix(1 0 0 1 448.8047 566.8877)" fill="#27303A" font-family="'Roboto-Medium'" font-size="9">3</text>
	</g>
	<g>
		<text transform="matrix(1 0 0 1 518.4053 566.8877)" fill="#27303A" font-family="'Roboto-Medium'" font-size="9">6</text>
	</g>
	<g>
		<text transform="matrix(1 0 0 1 588.0049 566.8877)" fill="#27303A" font-family="'Roboto-Medium'" font-size="9">9</text>
	</g>
	<g>
		<text transform="matrix(1 0 0 1 657.6045 566.8877)" fill="#27303A" font-family="'Roboto-Medium'" font-size="9">12</text>
	</g>
	<g>
		<text transform="matrix(1 0 0 1 727.2051 566.8877)" fill="#27303A" font-family="'Roboto-Medium'" font-size="9">15</text>
	</g>
	<circle fill="#FF8062" cx="72.953" cy="6.586" r="7.087"/>
	<circle fill="#701657" cx="642.953" cy="6.586" r="7.087"/>
	<circle fill="#701657" cx="438.953" cy="23.586" r="7.087"/>
	<circle fill="#701657" cx="524.953" cy="41.586" r="7.087"/>
	<circle fill="#701657" cx="452.953" cy="59.586" r="7.087"/>
	<circle fill="#701657" cx="630.953" cy="77.586" r="7.087"/>
	<circle fill="#701657" cx="479.953" cy="94.586" r="7.087"/>
	<circle fill="#701657" cx="438.953" cy="112.586" r="7.087"/>
	<circle fill="#701657" cx="447.953" cy="130.586" r="7.087"/>
	<circle fill="#701657" cx="438.953" cy="147.586" r="7.087"/>
	<circle fill="#701657" cx="466.953" cy="165.586" r="7.087"/>
	<circle fill="#701657" cx="579.953" cy="183.586" r="7.087"/>
	<circle fill="#701657" cx="484.953" cy="201.586" r="7.087"/>
	<circle fill="#701657" cx="424.953" cy="218.586" r="7.087"/>
	<circle fill="#701657" cx="421.953" cy="236.586" r="7.087"/>
	<circle fill="#701657" cx="438.953" cy="254.586" r="7.087"/>
	<circle fill="#701657" cx="438.953" cy="254.586" r="7.087"/>
	<circle fill="#701657" cx="415.953" cy="271.586" r="7.087"/>
	<circle fill="#701657" cx="609.953" cy="289.586" r="7.087"/>
	<circle fill="#701657" cx="570.953" cy="307.586" r="7.087"/>
	<circle fill="#701657" cx="463.953" cy="325.586" r="7.087"/>
	<circle fill="#701657" cx="519.953" cy="342.586" r="7.087"/>
	<circle fill="#701657" cx="679.953" cy="360.586" r="7.087"/>
	<circle fill="#701657" cx="607.953" cy="378.586" r="7.087"/>
	<circle fill="#701657" cx="533.953" cy="395.586" r="7.087"/>
	<circle fill="#701657" cx="470.953" cy="413.586" r="7.087"/>
	<circle fill="#701657" cx="670.953" cy="431.586" r="7.087"/>
	<circle fill="#701657" cx="547.953" cy="449.586" r="7.087"/>
	<circle fill="#701657" cx="565.953" cy="484.586" r="7.087"/>
	<circle fill="#701657" cx="461.953" cy="466.586" r="7.087"/>
	<circle fill="#701657" cx="612.953" cy="502.586" r="7.087"/>
	<circle fill="#701657" cx="721.953" cy="519.586" r="7.087"/>
	<circle fill="#701657" cx="558.953" cy="537.586" r="7.087"/>
	<circle fill="#FF8062" cx="156.953" cy="23.586" r="7.087"/>
	<circle fill="#FF8062" cx="185.953" cy="41.586" r="7.087"/>
	<circle fill="#FF8062" cx="220.953" cy="59.586" r="7.087"/>
	<circle fill="#FF8062" cx="221.953" cy="77.586" r="7.087"/>
	<circle fill="#FF8062" cx="223.953" cy="94.586" r="7.087"/>
	<circle fill="#FF8062" cx="224.953" cy="112.586" r="7.087"/>
	<circle fill="#FF8062" cx="228.953" cy="130.586" r="7.087"/>
	<circle fill="#FF8062" cx="230.953" cy="147.586" r="7.087"/>
	<circle fill="#FF8062" cx="234.953" cy="165.586" r="7.087"/>
	<circle fill="#FF8062" cx="234.953" cy="183.586" r="7.087"/>
	<circle fill="#FF8062" cx="240.953" cy="201.586" r="7.087"/>
	<circle fill="#FF8062" cx="245.953" cy="218.586" r="7.087"/>
	<circle fill="#FF8062" cx="247.953" cy="236.586" r="7.087"/>
	<circle fill="#FF8062" cx="256.953" cy="254.586" r="7.087"/>
	<circle fill="#FF8062" cx="263.953" cy="271.586" r="7.087"/>
	<circle fill="#FF8062" cx="268.953" cy="289.586" r="7.087"/>
	<circle fill="#FF8062" cx="272.953" cy="307.586" r="7.087"/>
	<circle fill="#FF8062" cx="276.953" cy="325.586" r="7.087"/>
	<circle fill="#FF8062" cx="276.953" cy="342.586" r="7.087"/>
	<circle fill="#FF8062" cx="281.953" cy="360.586" r="7.087"/>
	<circle fill="#FF8062" cx="285.953" cy="378.586" r="7.087"/>
	<circle fill="#FF8062" cx="287.953" cy="395.586" r="7.087"/>
	<circle fill="#FF8062" cx="287.953" cy="413.586" r="7.087"/>
	<circle fill="#FF8062" cx="287.953" cy="431.586" r="7.087"/>
	<circle fill="#FF8062" cx="294.953" cy="449.586" r="7.087"/>
	<circle fill="#FF8062" cx="295.953" cy="465.586" r="7.087"/>
	<circle fill="#FF8062" cx="297.953" cy="484.586" r="7.087"/>
	<circle fill="#FF8062" cx="302.953" cy="502.586" r="7.087"/>
	<circle fill="#FF8062" cx="309.953" cy="519.586" r="7.087"/>
	<circle fill="#FF8062" cx="319.953" cy="537.586" r="7.087"/>
</g>
</svg>
