<?xml version="1.0" encoding="utf-8"?>
<!-- Generator: Adobe Illustrator 16.0.0, SVG Export Plug-In . SVG Version: 6.00 Build 0)  -->
<!DOCTYPE svg PUBLIC "-//W3C//DTD SVG 1.1//EN" "http://www.w3.org/Graphics/SVG/1.1/DTD/svg11.dtd">
<svg version="1.1" id="Capa_1" xmlns="http://www.w3.org/2000/svg" xmlns:xlink="http://www.w3.org/1999/xlink" x="0px" y="0px"
	 width="1061.947px" height="572.971px" viewBox="0 0 1061.947 572.971" enable-background="new 0 0 1061.947 572.971"
	 xml:space="preserve">
<g>
	<g>
		<text transform="matrix(1 0 0 1 170.7461 524.2241)" fill="#27303A" font-family="'Roboto-Regular'" font-size="9">20</text>
	</g>
	<g>
		<text transform="matrix(1 0 0 1 296.7568 524.2241)" fill="#27303A" font-family="'Roboto-Regular'" font-size="9">40</text>
	</g>
	<g>
		<text transform="matrix(1 0 0 1 422.7681 524.2241)" fill="#27303A" font-family="'Roboto-Regular'" font-size="9">60</text>
	</g>
	<g>
		<text transform="matrix(1 0 0 1 548.7793 524.2241)" fill="#27303A" font-family="'Roboto-Regular'" font-size="9">80</text>
	</g>
	<g>
		<text transform="matrix(1 0 0 1 672.0098 524.2241)" fill="#27303A" font-family="'Roboto-Regular'" font-size="9">100</text>
	</g>
	<g>
		<text transform="matrix(1 0 0 1 798.0205 524.2241)" fill="#27303A" font-family="'Roboto-Regular'" font-size="9">120</text>
	</g>
	<g>
		<text transform="matrix(1 0 0 1 924.0313 524.2241)" fill="#27303A" font-family="'Roboto-Regular'" font-size="9">140</text>
	</g>
	<g>
		<text transform="matrix(1 0 0 1 22.272 461.7251)" fill="#27303A" font-family="'Roboto-Regular'" font-size="9">5,000</text>
	</g>
	<g>
		<text transform="matrix(1 0 0 1 16.7104 406.1255)" fill="#27303A" font-family="'Roboto-Regular'" font-size="9">10,000</text>
	</g>
	<g>
		<text transform="matrix(1 0 0 1 16.7104 350.5259)" fill="#27303A" font-family="'Roboto-Regular'" font-size="9">15,000</text>
	</g>
	<g>
		<text transform="matrix(1 0 0 1 16.7104 294.9263)" fill="#27303A" font-family="'Roboto-Regular'" font-size="9">20,000</text>
	</g>
	<g>
		<text transform="matrix(1 0 0 1 16.7104 239.3267)" fill="#27303A" font-family="'Roboto-Regular'" font-size="9">25,000</text>
	</g>
	<g>
		<text transform="matrix(1 0 0 1 16.7104 183.7275)" fill="#27303A" font-family="'Roboto-Regular'" font-size="9">30,000</text>
	</g>
	<g>
		<text transform="matrix(1 0 0 1 16.7104 128.1284)" fill="#27303A" font-family="'Roboto-Regular'" font-size="9">35,000</text>
	</g>
	<g>
		
			<line fill="none" stroke="#27303A" stroke-width="0.9" stroke-linecap="round" stroke-linejoin="round" stroke-miterlimit="10" stroke-dasharray="0.2,3" x1="176.308" y1="514.124" x2="176.308" y2="22.124"/>
		
			<line fill="none" stroke="#27303A" stroke-width="0.9" stroke-linecap="round" stroke-linejoin="round" stroke-miterlimit="10" stroke-dasharray="0.2,3" x1="302.318" y1="514.124" x2="302.318" y2="22.124"/>
		
			<line fill="none" stroke="#27303A" stroke-width="0.9" stroke-linecap="round" stroke-linejoin="round" stroke-miterlimit="10" stroke-dasharray="0.2,3" x1="428.33" y1="514.124" x2="428.33" y2="22.124"/>
		
			<line fill="none" stroke="#27303A" stroke-width="0.9" stroke-linecap="round" stroke-linejoin="round" stroke-miterlimit="10" stroke-dasharray="0.2,3" x1="554.341" y1="514.124" x2="554.341" y2="22.124"/>
		
			<line fill="none" stroke="#27303A" stroke-width="0.9" stroke-linecap="round" stroke-linejoin="round" stroke-miterlimit="10" stroke-dasharray="0.2,3" x1="680.352" y1="514.124" x2="680.352" y2="22.124"/>
		
			<line fill="none" stroke="#27303A" stroke-width="0.9" stroke-linecap="round" stroke-linejoin="round" stroke-miterlimit="10" stroke-dasharray="0.2,3" x1="806.363" y1="514.124" x2="806.363" y2="22.124"/>
		
			<line fill="none" stroke="#27303A" stroke-width="0.9" stroke-linecap="round" stroke-linejoin="round" stroke-miterlimit="10" stroke-dasharray="0.2,3" x1="932.374" y1="514.124" x2="932.374" y2="22.124"/>
		
			<line fill="none" stroke="#27303A" stroke-width="0.9" stroke-linecap="round" stroke-linejoin="round" stroke-miterlimit="10" stroke-dasharray="0.2,3" x1="50.296" y1="458.524" x2="1039.483" y2="458.524"/>
		
			<line fill="none" stroke="#27303A" stroke-width="0.9" stroke-linecap="round" stroke-linejoin="round" stroke-miterlimit="10" stroke-dasharray="0.2,3" x1="50.296" y1="402.924" x2="1039.483" y2="402.924"/>
		
			<line fill="none" stroke="#27303A" stroke-width="0.9" stroke-linecap="round" stroke-linejoin="round" stroke-miterlimit="10" stroke-dasharray="0.2,3" x1="50.296" y1="347.326" x2="1039.483" y2="347.326"/>
		
			<line fill="none" stroke="#27303A" stroke-width="0.9" stroke-linecap="round" stroke-linejoin="round" stroke-miterlimit="10" stroke-dasharray="0.2,3" x1="50.296" y1="291.726" x2="1039.483" y2="291.726"/>
		
			<line fill="none" stroke="#27303A" stroke-width="0.9" stroke-linecap="round" stroke-linejoin="round" stroke-miterlimit="10" stroke-dasharray="0.2,3" x1="50.296" y1="236.126" x2="1039.483" y2="236.126"/>
		
			<line fill="none" stroke="#27303A" stroke-width="0.9" stroke-linecap="round" stroke-linejoin="round" stroke-miterlimit="10" stroke-dasharray="0.2,3" x1="50.296" y1="180.527" x2="1039.483" y2="180.527"/>
		
			<line fill="none" stroke="#27303A" stroke-width="0.9" stroke-linecap="round" stroke-linejoin="round" stroke-miterlimit="10" stroke-dasharray="0.2,3" x1="50.296" y1="124.928" x2="1039.483" y2="124.928"/>
		
			<line fill="none" stroke="#27303A" stroke-width="0.9" stroke-linecap="round" stroke-linejoin="round" stroke-miterlimit="10" stroke-dasharray="0.2,3" x1="50.296" y1="69.328" x2="1039.483" y2="69.328"/>
		
			<path fill="none" stroke="#27303A" stroke-width="0.9" stroke-linecap="round" stroke-linejoin="round" stroke-miterlimit="10" stroke-dasharray="0.2,3" d="
			M50.296,22.124v492h989.188v-492"/>
	</g>
	<g>
		<text transform="matrix(1 0 0 1 16.7104 72.5288)" fill="#27303A" font-family="'Roboto-Regular'" font-size="9">40,000</text>
	</g>
	<g>
		<text transform="matrix(1 0 0 1 998.0605 524.2231)" fill="#27303A" font-family="'Roboto-Bold'" font-size="9">cost of life</text>
	</g>
	<g>
		<text transform="matrix(1 0 0 1 17.501 27.7515)"><tspan x="0" y="0" fill="#27303A" font-family="'Roboto-Bold'" font-size="9">Median</tspan><tspan x="17.029" y="8.8" fill="#27303A" font-family="'Roboto-Bold'" font-size="9">net</tspan><tspan x="0.242" y="17.6" fill="#27303A" font-family="'Roboto-Bold'" font-size="9">income</tspan></text>
	</g>
	<text transform="matrix(1 0 0 1 240.2231 443.0005)" fill="#B2512C" font-family="'Roboto-Regular'" font-size="9">E.U. average</text>
	<g>
		<text transform="matrix(1 0 0 1 41.7349 517.3237)" fill="#27303A" font-family="'Roboto-Regular'" font-size="9">0</text>
	</g>
	<g>
		<text transform="matrix(1 0 0 1 708.8945 236.1265)" fill="#27303A" font-family="'Roboto-Regular'" font-size="9">Austria</text>
	</g>
	<g>
		<text transform="matrix(1 0 0 1 773.0488 170.4546)" fill="#27303A" font-family="'Roboto-Regular'" font-size="9">Belgium</text>
	</g>
	<g>
		<text transform="matrix(1 0 0 1 462.6157 467.9116)" fill="#27303A" font-family="'Roboto-Regular'" font-size="9">Croatia</text>
	</g>
	<g>
		<text transform="matrix(1 0 0 1 607.8096 323.9829)" fill="#27303A" font-family="'Roboto-Regular'" font-size="9">Cyprus</text>
	</g>
	<g>
		<text transform="matrix(1 0 0 1 450.0176 416.0366)" fill="#27303A" font-family="'Roboto-Regular'" font-size="9">Czech Republic</text>
	</g>
	<g>
		<text transform="matrix(1 0 0 1 905.79 231.7783)" fill="#27303A" font-family="'Roboto-Regular'" font-size="9">Denmark</text>
	</g>
	<g>
		<text transform="matrix(1 0 0 1 525.0625 449.5308)" fill="#27303A" font-family="'Roboto-Regular'" font-size="9">Estonia</text>
	</g>
	<g>
		<text transform="matrix(1 0 0 1 808.8652 268.2622)" fill="#27303A" font-family="'Roboto-Regular'" font-size="9">Finland</text>
	</g>
	<g>
		<text transform="matrix(1 0 0 1 777.1113 207.3276)" fill="#27303A" font-family="'Roboto-Regular'" font-size="9">France</text>
	</g>
	<g>
		<text transform="matrix(1 0 0 1 675.2158 258.189)" fill="#27303A" font-family="'Roboto-Regular'" font-size="9">Germany</text>
	</g>
	<g>
		<text transform="matrix(1 0 0 1 594.6494 432.0356)" fill="#27303A" font-family="'Roboto-Regular'" font-size="9">Greece</text>
	</g>
	<g>
		<text transform="matrix(1 0 0 1 409.4307 477.7612)" fill="#27303A" font-family="'Roboto-Regular'" font-size="9">Hungary</text>
	</g>
	<g>
		<text transform="matrix(1 0 0 1 773.0488 136.7046)" fill="#27303A" font-family="'Roboto-Regular'" font-size="9">Iceland</text>
	</g>
	<g>
		<text transform="matrix(1 0 0 1 792.7422 282.1147)" fill="#27303A" font-family="'Roboto-Regular'" font-size="9">Ireland</text>
	</g>
	<g>
		<text transform="matrix(1 0 0 1 690.084 359.0942)" fill="#27303A" font-family="'Roboto-Regular'" font-size="9">Italy</text>
	</g>
	<g>
		<text transform="matrix(1 0 0 1 485.0347 475.8267)" fill="#27303A" font-family="'Roboto-Regular'" font-size="9">Latvia</text>
	</g>
	<g>
		<text transform="matrix(1 0 0 1 433.2363 456.4224)" fill="#27303A" font-family="'Roboto-Regular'" font-size="9">Lithuania</text>
	</g>
	<g>
		<text transform="matrix(1 0 0 1 784.8682 100.8306)" fill="#27303A" font-family="'Roboto-Regular'" font-size="9">Luxembourg</text>
	</g>
	<g>
		<text transform="matrix(1 0 0 1 561.0156 394.1724)" fill="#27303A" font-family="'Roboto-Regular'" font-size="9">Malta</text>
	</g>
	<g>
		<text transform="matrix(1 0 0 1 779.3008 394.1714)" fill="#27303A" font-family="'Roboto-Regular'" font-size="9">Netherlands</text>
	</g>
	<g>
		<text transform="matrix(1 0 0 1 1022.5352 12.3745)" fill="#27303A" font-family="'Roboto-Regular'" font-size="9">Norway</text>
	</g>
	<g>
		<text transform="matrix(1 0 0 1 387.5586 470.4224)" fill="#27303A" font-family="'Roboto-Regular'" font-size="9">Poland</text>
	</g>
	<g>
		<text transform="matrix(1 0 0 1 543.4629 411.2065)" fill="#27303A" font-family="'Roboto-Regular'" font-size="9">Portugal</text>
	</g>
	<g>
		<text transform="matrix(1 0 0 1 370.5166 505.2056)" fill="#27303A" font-family="'Roboto-Regular'" font-size="9">Romania</text>
	</g>
	<g>
		<text transform="matrix(1 0 0 1 466.1357 447.8696)" fill="#27303A" font-family="'Roboto-Regular'" font-size="9">Slovakia</text>
	</g>
	<g>
		<text transform="matrix(1 0 0 1 557.0625 372.4302)" fill="#27303A" font-family="'Roboto-Regular'" font-size="9">Slovenia</text>
	</g>
	<g>
		<text transform="matrix(1 0 0 1 629.7598 383.7651)" fill="#27303A" font-family="'Roboto-Regular'" font-size="9">Spain</text>
	</g>
	<g>
		<text transform="matrix(1 0 0 1 863.9004 228.2979)" fill="#27303A" font-family="'Roboto-Regular'" font-size="9">Sweden</text>
	</g>
	<g>
		<text transform="matrix(1 0 0 1 1001.0371 62.4536)" fill="#27303A" font-family="'Roboto-Regular'" font-size="9">Switzerland</text>
	</g>
	<g>
		<text transform="matrix(1 0 0 1 739.2842 312.7417)" fill="#27303A" font-family="'Roboto-Regular'" font-size="9">United Kingdom</text>
	</g>
	
		<line fill="none" stroke="#B2512C" stroke-width="0.65" stroke-miterlimit="10" x1="50.296" y1="514.124" x2="1038.483" y2="239.327"/>
	<circle opacity="0.5" fill="#701657" cx="724.455" cy="251.338" r="11.681"/>
	<circle opacity="0.5" fill="#701657" cx="749.658" cy="268.229" r="13.885"/>
	<circle opacity="0.5" fill="#701657" cx="478.734" cy="456.412" r="3.892"/>
	<circle opacity="0.5" fill="#701657" cx="623.646" cy="331.09" r="4.611"/>
	<circle opacity="0.5" fill="#701657" cx="485.034" cy="427.912" r="9.39"/>
	<circle opacity="0.5" fill="#701657" cx="926.073" cy="216.778" r="6.878"/>
	<circle opacity="0.5" fill="#701657" cx="541.739" cy="438.364" r="1.723"/>
	<circle opacity="0.5" fill="#701657" cx="825.265" cy="253.262" r="4.926"/>
	<circle opacity="0.5" fill="#701657" cx="743.357" cy="273.279" r="21.679"/>
	<circle opacity="0.5" fill="#701657" cx="692.953" cy="293.983" r="30"/>
	<circle opacity="0.5" fill="#701657" cx="611.046" cy="417.036" r="5.83"/>
	<circle opacity="0.5" fill="#701657" cx="428.33" cy="462.761" r="8.611"/>
	<circle opacity="0.5" fill="#701657" cx="743.357" cy="268.519" r="2.358"/>
	<circle opacity="0.5" fill="#701657" cx="806.363" cy="294.317" r="10.96"/>
	<circle opacity="0.5" fill="#701657" cx="699.254" cy="329.578" r="21.212"/>
	<circle opacity="0.5" fill="#701657" cx="497.636" cy="460.826" r="2.695"/>
	<circle opacity="0.5" fill="#701657" cx="453.532" cy="461.215" r="2.33"/>
	<circle opacity="0.5" fill="#701657" cx="812.664" cy="85.83" r="6.638"/>
	<circle opacity="0.5" fill="#701657" cx="573.242" cy="377.171" r="2.034"/>
	<circle opacity="0.5" fill="#701657" cx="749.658" cy="278.004" r="10.393"/>
	<circle opacity="0.5" fill="#701657" cx="403.127" cy="455.422" r="7.552"/>
	<circle opacity="0.5" fill="#701657" cx="560.641" cy="420.772" r="6.988"/>
	<circle opacity="0.5" fill="#701657" cx="390.526" cy="490.206" r="4.529"/>
	<circle opacity="0.5" fill="#701657" cx="485.034" cy="437.586" r="5.415"/>
	<circle opacity="0.5" fill="#701657" cx="573.242" cy="380.93" r="5.18"/>
	<circle opacity="0.5" fill="#701657" cx="642.549" cy="352.085" r="22.874"/>
	<circle opacity="0.5" fill="#701657" cx="881.97" cy="213.297" r="10.974"/>
	<circle opacity="0.5" fill="#701657" cx="1026.883" cy="37.703" r="17.066"/>
	<circle opacity="0.5" fill="#701657" cx="1039.483" cy="22.124" r="4.267"/>
	<circle opacity="0.5" fill="#701657" cx="774.86" cy="297.742" r="24.272"/>
	<circle opacity="0.5" fill="#701657" cx="680.352" cy="338.096" r="0.564"/>
	<polyline fill="none" stroke="#27303A" stroke-width="0.5" stroke-miterlimit="10" points="743.357,268.262 743.357,134.302 
		770.888,134.302 	"/>
	<polyline fill="none" stroke="#27303A" stroke-width="0.5" stroke-miterlimit="10" points="749.778,268.262 749.778,167.291 
		770.888,167.291 	"/>
	<polyline fill="none" stroke="#27303A" stroke-width="0.5" stroke-miterlimit="10" points="749.778,278.124 749.778,390.792 
		777.309,390.792 	"/>
	<polyline fill="none" stroke="#27303A" stroke-width="0.5" stroke-miterlimit="10" points="743.357,273.278 791.746,273.278 
		791.746,209.9 	"/>
	<g opacity="0.5">
		<circle fill="#FFFFFF" cx="724.455" cy="251.338" r="1"/>
		<circle fill="#FFFFFF" cx="749.658" cy="268.229" r="1"/>
		<circle fill="#FFFFFF" cx="478.734" cy="456.412" r="1"/>
		<circle fill="#FFFFFF" cx="623.646" cy="331.09" r="1"/>
		<circle fill="#FFFFFF" cx="485.034" cy="427.912" r="1"/>
		<circle fill="#FFFFFF" cx="926.073" cy="216.778" r="1"/>
		<circle fill="#FFFFFF" cx="541.739" cy="438.364" r="1"/>
		<circle fill="#FFFFFF" cx="825.265" cy="253.262" r="1"/>
		<circle fill="#FFFFFF" cx="743.357" cy="273.278" r="1"/>
		<circle fill="#FFFFFF" cx="692.953" cy="293.983" r="1"/>
		<circle fill="#FFFFFF" cx="611.046" cy="417.036" r="1"/>
		<circle fill="#FFFFFF" cx="428.33" cy="462.761" r="1"/>
		<circle fill="#FFFFFF" cx="743.357" cy="268.519" r="1"/>
		<circle fill="#FFFFFF" cx="806.363" cy="294.317" r="1"/>
		<circle fill="#FFFFFF" cx="699.254" cy="329.579" r="1"/>
		<circle fill="#FFFFFF" cx="497.636" cy="460.827" r="1"/>
		<circle fill="#FFFFFF" cx="453.532" cy="461.215" r="1"/>
		<circle fill="#FFFFFF" cx="812.664" cy="85.83" r="1"/>
		<circle fill="#FFFFFF" cx="573.242" cy="377.171" r="1"/>
		<circle fill="#FFFFFF" cx="749.658" cy="278.004" r="1"/>
		<circle fill="#FFFFFF" cx="1039.483" cy="22.124" r="1"/>
		<circle fill="#FFFFFF" cx="403.127" cy="455.422" r="1"/>
		<circle fill="#FFFFFF" cx="560.641" cy="420.772" r="1"/>
		<circle fill="#FFFFFF" cx="390.526" cy="490.206" r="1"/>
		<circle fill="#FFFFFF" cx="485.034" cy="437.586" r="1"/>
		<circle fill="#FFFFFF" cx="573.242" cy="380.93" r="1"/>
		<circle fill="#FFFFFF" cx="642.549" cy="352.084" r="1"/>
		<circle fill="#FFFFFF" cx="881.97" cy="213.297" r="1"/>
		<circle fill="#FFFFFF" cx="1026.883" cy="37.703" r="1"/>
		<circle fill="#FFFFFF" cx="774.86" cy="297.742" r="1"/>
	</g>
</g>
<text transform="matrix(1 0 0 1 3.3452 568.7827)" fill="#27303A" font-family="'Roboto-Light'" font-size="11">Source: Eurostat, 2013.</text>
</svg>
