<?xml version="1.0" encoding="utf-8"?>
<!-- Generator: Adobe Illustrator 16.0.0, SVG Export Plug-In . SVG Version: 6.00 Build 0)  -->
<!DOCTYPE svg PUBLIC "-//W3C//DTD SVG 1.1//EN" "http://www.w3.org/Graphics/SVG/1.1/DTD/svg11.dtd">
<svg version="1.1" id="Capa_1" xmlns="http://www.w3.org/2000/svg" xmlns:xlink="http://www.w3.org/1999/xlink" x="0px" y="0px"
	 width="572px" height="532px" viewBox="0 0 572 532" enable-background="new 0 0 572 532" xml:space="preserve">
<g>
	<g>
		<text transform="matrix(1 0 0 1 138.9946 15.1182)" fill="#27303A" font-family="'Roboto-Medium'" font-size="13">Life saticfaction</text>
	</g>
	<g>
		<text transform="matrix(1 0 0 1 238.7017 15.1187)" fill="#27303A" font-family="'Roboto-Medium'" font-size="13">Emigration rates</text>
	</g>
	<g>
		<text transform="matrix(1 0 0 1 506.7012 523.9424)" font-family="'Roboto-Light'" font-size="9">Bulgaria</text>
		<text transform="matrix(1 0 0 1 506.7012 507.4902)" font-family="'Roboto-Light'" font-size="9">Portugal</text>
		<text transform="matrix(1 0 0 1 506.7012 491.0391)" font-family="'Roboto-Light'" font-size="9">Hungary</text>
		<text transform="matrix(1 0 0 1 506.7012 474.5869)" font-family="'Roboto-Light'" font-size="9">Cyprus</text>
		<text transform="matrix(1 0 0 1 506.7012 458.1357)" font-family="'Roboto-Light'" font-size="9">Greece</text>
		<text transform="matrix(1 0 0 1 506.7012 441.6836)" font-family="'Roboto-Light'" font-size="9">Croatia</text>
		<text transform="matrix(1 0 0 1 506.7012 425.2324)" font-family="'Roboto-Light'" font-size="9">Latvia</text>
		<text transform="matrix(1 0 0 1 506.7012 408.7803)" font-family="'Roboto-Light'" font-size="9">Estonia</text>
		<text transform="matrix(1 0 0 1 506.7012 392.3291)" font-family="'Roboto-Light'" font-size="9">Lithuania</text>
		<text transform="matrix(1 0 0 1 506.7012 375.8779)" font-family="'Roboto-Light'" font-size="9">Italy</text>
		<text transform="matrix(1 0 0 1 506.7012 359.4258)" font-family="'Roboto-Light'" font-size="9">Spain</text>
		<text transform="matrix(1 0 0 1 506.7012 342.9746)" font-family="'Roboto-Light'" font-size="9">Czech Republic</text>
		<text transform="matrix(1 0 0 1 506.7012 326.5225)" font-family="'Roboto-Light'" font-size="9">Slovakia</text>
		<text transform="matrix(1 0 0 1 506.7012 310.0713)" font-family="'Roboto-Light'" font-size="9">Slovenia</text>
		<text transform="matrix(1 0 0 1 506.7012 293.6191)" font-family="'Roboto-Light'" font-size="9">Malta</text>
		<text transform="matrix(1 0 0 1 506.7012 277.168)" font-family="'Roboto-Light'" font-size="9">France</text>
		<text transform="matrix(1 0 0 1 506.7012 260.7158)" font-family="'Roboto-Light'" font-size="9">Romania</text>
		<text transform="matrix(1 0 0 1 506.7012 244.2646)" font-family="'Roboto-Light'" font-size="9">United Kingdom</text>
		<text transform="matrix(1 0 0 1 506.7012 227.8125)" font-family="'Roboto-Light'" font-size="9">Poland</text>
		<text transform="matrix(1 0 0 1 506.7012 211.3613)" font-family="'Roboto-Light'" font-size="9">Germany</text>
		<text transform="matrix(1 0 0 1 506.7012 194.9102)" font-family="'Roboto-Light'" font-size="9">Ireland</text>
		<text transform="matrix(1 0 0 1 506.7012 178.458)" font-family="'Roboto-Light'" font-size="9">Luxembourg</text>
		<text transform="matrix(1 0 0 1 506.7012 162.0068)" font-family="'Roboto-Light'" font-size="9">Belgium</text>
		<text transform="matrix(1 0 0 1 506.7012 145.5547)" font-family="'Roboto-Light'" font-size="9">Austria</text>
		<text transform="matrix(1 0 0 1 506.7012 129.1035)" font-family="'Roboto-Light'" font-size="9">Netherlands</text>
		<text transform="matrix(1 0 0 1 506.7012 112.6514)" font-family="'Roboto-Light'" font-size="9">Norway</text>
		<text transform="matrix(1 0 0 1 506.7012 96.2002)" font-family="'Roboto-Light'" font-size="9">Iceland</text>
		<text transform="matrix(1 0 0 1 506.7012 79.748)" font-family="'Roboto-Light'" font-size="9">Switzerland</text>
		<text transform="matrix(1 0 0 1 506.7012 63.2969)" font-family="'Roboto-Light'" font-size="9">Sweden</text>
		<text transform="matrix(1 0 0 1 506.7012 46.8457)" font-family="'Roboto-Light'" font-size="9">Finland</text>
		<text transform="matrix(1 0 0 1 506.7012 30.3936)" font-family="'Roboto-Light'" font-size="9">Denmark</text>
	</g>
	<text transform="matrix(1 0 0 1 5.7109 55.6338)" font-family="'Roboto-Light'" font-size="9">8</text>
	<rect x="25" y="22" fill="#63C9C9" width="209" height="62"/>
	<rect x="28" y="88" fill="#63C9C9" width="206" height="28"/>
	<rect x="30" y="121" fill="#63C9C9" width="204" height="28"/>
	<rect x="44" y="203" fill="#63C9C9" width="190" height="45"/>
	<rect x="36" y="154" fill="#63C9C9" width="198" height="12"/>
	<rect x="38" y="170" fill="#63C9C9" width="196" height="12"/>
	<rect x="46" y="253" fill="#63C9C9" width="188" height="12"/>
	<rect x="70" y="434" fill="#63C9C9" width="164" height="12"/>
	<rect x="109" y="516" fill="#63C9C9" width="125" height="12"/>
	<rect x="40" y="187" fill="#63C9C9" width="194" height="12"/>
	<rect x="49" y="269" fill="#63C9C9" width="185" height="28"/>
	<rect x="52" y="302" fill="#63C9C9" width="182" height="28"/>
	<rect x="54" y="335" fill="#63C9C9" width="180" height="28"/>
	<rect x="59" y="368" fill="#63C9C9" width="175" height="28"/>
	<rect x="64" y="401" fill="#63C9C9" width="170" height="28"/>
	<rect x="72" y="450" fill="#63C9C9" width="162" height="61"/>
	<g>
		<text transform="matrix(1 0 0 1 455.8281 261.6343)" font-family="'Roboto-Light'" font-size="9">14.8%</text>
		<g>
			<text transform="matrix(1 0 0 1 294.8066 30.6338)" font-family="'Roboto-Light'" font-size="9">3%</text>
			<rect x="239" y="22" fill="#FF8062" width="42" height="12"/>
			<rect x="239" y="38" fill="#FF8062" width="65" height="12"/>
			<rect x="239" y="55" fill="#FF8062" width="37" height="12"/>
			<rect x="239" y="71" fill="#FF8062" width="88" height="12"/>
			<rect x="239" y="87" fill="#FF8062" width="122" height="11"/>
			<rect x="239" y="103" fill="#FF8062" width="37" height="12"/>
			<rect x="239" y="120" fill="#FF8062" width="45" height="11"/>
			<rect x="239" y="136" fill="#FF8062" width="62" height="12"/>
			<rect x="239" y="153" fill="#FF8062" width="53" height="12"/>
			<rect x="239" y="169" fill="#FF8062" width="159" height="12"/>
			<rect x="239" y="186" fill="#FF8062" width="152" height="12"/>
			<rect x="239" y="202" fill="#FF8062" width="37" height="12"/>
			<rect x="239" y="219" fill="#FF8062" width="102" height="12"/>
			<rect x="239" y="235" fill="#FF8062" width="28" height="12"/>
			<rect x="239" y="252" fill="#FF8062" width="207" height="12"/>
			<rect x="239" y="268" fill="#FF8062" width="27" height="11"/>
			<rect x="239" y="284" fill="#FF8062" width="116" height="12"/>
			<rect x="239" y="301" fill="#FF8062" width="85" height="12"/>
			<rect x="239" y="317" fill="#FF8062" width="138" height="12"/>
			<rect x="239" y="334" fill="#FF8062" width="52" height="12"/>
			<rect x="239" y="351" fill="#FF8062" width="23" height="12"/>
			<rect x="239" y="367" fill="#FF8062" width="37" height="12"/>
			<rect x="239" y="384" fill="#FF8062" width="176" height="12"/>
			<rect x="239" y="400" fill="#FF8062" width="94" height="12"/>
			<rect x="239" y="417" fill="#FF8062" width="113" height="11"/>
			<rect x="239" y="433" fill="#FF8062" width="141" height="12"/>
			<rect x="239" y="449" fill="#FF8062" width="56" height="11"/>
			<rect x="239" y="466" fill="#FF8062" width="140" height="12"/>
			<rect x="239" y="482" fill="#FF8062" width="51" height="12"/>
			<rect x="239" y="498" fill="#FF8062" width="182" height="12"/>
			<rect x="239" y="515" fill="#FF8062" width="109" height="12"/>
			<text transform="matrix(1 0 0 1 317.7012 47.6338)" font-family="'Roboto-Light'" font-size="9">4.6%</text>
			<text transform="matrix(1 0 0 1 289.7012 64.6338)" font-family="'Roboto-Light'" font-size="9">2.6%</text>
			<text transform="matrix(1 0 0 1 340.7012 80.6338)" font-family="'Roboto-Light'" font-size="9">6.3%</text>
			<text transform="matrix(1 0 0 1 374.7012 96.6338)" font-family="'Roboto-Light'" font-size="9">8.7%</text>
			<text transform="matrix(1 0 0 1 289.7012 112.6338)" font-family="'Roboto-Light'" font-size="9">2.6%</text>
			<text transform="matrix(1 0 0 1 297.7012 129.6338)" font-family="'Roboto-Light'" font-size="9">3.2%</text>
			<text transform="matrix(1 0 0 1 314.7012 145.6338)" font-family="'Roboto-Light'" font-size="9">4.4%</text>
			<text transform="matrix(1 0 0 1 305.7012 162.6338)" font-family="'Roboto-Light'" font-size="9">3.8%</text>
			<text transform="matrix(1 0 0 1 411.7012 178.6338)" font-family="'Roboto-Light'" font-size="9">11.4%</text>
			<text transform="matrix(1 0 0 1 404.7012 195.6338)" font-family="'Roboto-Light'" font-size="9">10.9%</text>
			<text transform="matrix(1 0 0 1 289.7012 211.6338)" font-family="'Roboto-Light'" font-size="9">2.6%</text>
			<text transform="matrix(1 0 0 1 354.7012 228.6338)" font-family="'Roboto-Light'" font-size="9">7.3%</text>
			<text transform="matrix(1 0 0 1 279.7012 277.6338)" font-family="'Roboto-Light'" font-size="9">1.9%</text>
			<text transform="matrix(1 0 0 1 368.7012 293.6338)" font-family="'Roboto-Light'" font-size="9">8.3%</text>
			<text transform="matrix(1 0 0 1 390.7012 326.6338)" font-family="'Roboto-Light'" font-size="9">9.9%</text>
			<text transform="matrix(1 0 0 1 304.7012 343.6338)" font-family="'Roboto-Light'" font-size="9">3.7%</text>
			<text transform="matrix(1 0 0 1 275.7012 360.6338)" font-family="'Roboto-Light'" font-size="9">1.6%</text>
			<text transform="matrix(1 0 0 1 289.7012 376.6338)" font-family="'Roboto-Light'" font-size="9">2.6%</text>
			<text transform="matrix(1 0 0 1 428.7012 393.6338)" font-family="'Roboto-Light'" font-size="9">12.6%</text>
			<text transform="matrix(1 0 0 1 346.7012 409.6338)" font-family="'Roboto-Light'" font-size="9">6.7%</text>
			<text transform="matrix(1 0 0 1 365.7012 426.6338)" font-family="'Roboto-Light'" font-size="9">8.1%</text>
			<text transform="matrix(1 0 0 1 393.7012 442.6338)" font-family="'Roboto-Light'" font-size="9">10.1%</text>
			<text transform="matrix(1 0 0 1 308.7012 458.6338)" font-family="'Roboto-Light'" font-size="9">4%</text>
			<text transform="matrix(1 0 0 1 303.7012 491.6338)" font-family="'Roboto-Light'" font-size="9">3.6%</text>
			<text transform="matrix(1 0 0 1 434.7012 507.6338)" font-family="'Roboto-Light'" font-size="9">13%</text>
			<text transform="matrix(1 0 0 1 361.7012 524.6338)" font-family="'Roboto-Light'" font-size="9">7.8%</text>
			<text transform="matrix(1 0 0 1 392.7012 475.6338)" font-family="'Roboto-Light'" font-size="9">10%</text>
			<text transform="matrix(1 0 0 1 337.7012 310.6338)" font-family="'Roboto-Light'" font-size="9">6.1%</text>
			<text transform="matrix(1 0 0 1 280.7012 244.6338)" font-family="'Roboto-Light'" font-size="9">2%</text>
		</g>
	</g>
	<text transform="matrix(1 0 0 1 1.5742 104.6338)" font-family="'Roboto-Light'" font-size="9">7.9</text>
	<text transform="matrix(1 0 0 1 2.6992 137.6338)" font-family="'Roboto-Light'" font-size="9">7.8</text>
	<text transform="matrix(1 0 0 1 7.6992 162.6343)" font-family="'Roboto-Light'" font-size="9">7.6</text>
	<text transform="matrix(1 0 0 1 10.4492 178.6338)" font-family="'Roboto-Light'" font-size="9">7.5</text>
	<text transform="matrix(1 0 0 1 15.3701 195.6343)" font-family="'Roboto-Light'" font-size="9">7.4</text>
	<text transform="matrix(1 0 0 1 16.5371 228.1338)" font-family="'Roboto-Light'" font-size="9">7.3</text>
	<text transform="matrix(1 0 0 1 19.7041 261.6343)" font-family="'Roboto-Light'" font-size="9">7.2</text>
	<text transform="matrix(1 0 0 1 21.7041 285.6338)" font-family="'Roboto-Light'" font-size="9">7.1</text>
	<text transform="matrix(1 0 0 1 30.1738 318.6348)" font-family="'Roboto-Light'" font-size="9">7</text>
	<text transform="matrix(1 0 0 1 26.2041 351.6338)" font-family="'Roboto-Light'" font-size="9">6.9</text>
	<text transform="matrix(1 0 0 1 29.0371 384.6338)" font-family="'Roboto-Light'" font-size="9">6.7</text>
	<text transform="matrix(1 0 0 1 31.3706 417.6338)" font-family="'Roboto-Light'" font-size="9">6.5</text>
	<text transform="matrix(1 0 0 1 35.0371 442.6338)" font-family="'Roboto-Light'" font-size="9">6.3</text>
	<text transform="matrix(1 0 0 1 36.8706 483.1338)" font-family="'Roboto-Light'" font-size="9">6.2</text>
	<text transform="matrix(1 0 0 1 82.5767 524.6348)" font-family="'Roboto-Light'" font-size="9">4.8</text>
</g>
</svg>
