<?xml version="1.0" encoding="utf-8"?>
<!-- Generator: Adobe Illustrator 19.0.0, SVG Export Plug-In . SVG Version: 6.00 Build 0)  -->
<svg version="1.1" id="Livello_1" xmlns="http://www.w3.org/2000/svg" xmlns:xlink="http://www.w3.org/1999/xlink" x="0px" y="0px"
	 viewBox="88.4 263.9 958 340.2" style="enable-background:new 88.4 263.9 958 340.2;" xml:space="preserve">
<style type="text/css">
	.st0{fill:#393839;}
	.st1{font-family:'SourceSansPro-Regular';}
	.st2{font-size:15px;}
	.st3{letter-spacing:1;}
	.st4{fill:none;stroke:#C7C6C7;stroke-width:0.5;stroke-miterlimit:10;}
	.st5{opacity:0.9;fill:#DADADA;}
	.st6{fill:#EC605E;fill-opacity:0.9;}
	.st7{fill:none;stroke:#EC605E;stroke-miterlimit:10;}
	.st8{fill:none;stroke:#DADADA;stroke-miterlimit:10;}
	.st9{clip-path:url(#SVGID_2_);}
	.st10{fill:#EC605E;}
	.st11{font-family:'SourceSansPro-Semibold';}
	.st12{font-size:34px;}
</style>
<g>
	<text transform="matrix(1 0 0 1 244.4097 599.2093)" class="st0 st1 st2">1965</text>
</g>
<g>
	<text transform="matrix(1 0 0 1 329.5946 599.2093)" class="st0 st1 st2">1970</text>
</g>
<g>
	<text transform="matrix(1 0 0 1 414.779 599.2093)" class="st0 st1 st2">1975</text>
</g>
<g>
	<text transform="matrix(1 0 0 1 499.9639 599.2093)" class="st0 st1 st2">1980</text>
</g>
<g>
	<text transform="matrix(1 0 0 1 585.1487 599.2093)" class="st0 st1 st2">1985</text>
</g>
<g>
	<text transform="matrix(1 0 0 1 755.5178 599.2093)" class="st0 st1 st2">1995</text>
</g>
<g>
	<text transform="matrix(1 0 0 1 840.7023 599.2093)" class="st0 st1 st2">2000</text>
</g>
<g>
	<text transform="matrix(1 0 0 1 925.887 599.2093)" class="st0 st1 st2">2005</text>
</g>
<g>
	<text transform="matrix(1 0 0 1 1011.0715 599.2093)" class="st0 st1 st2">2010</text>
</g>
<g>
	<text transform="matrix(1 0 0 1 139.5271 526.3759)" class="st0 st1 st2">850</text>
</g>
<g>
	<text transform="matrix(1 0 0 1 139.5271 480.8429)" class="st0 st1 st2">900</text>
</g>
<g>
	<text transform="matrix(1 0 0 1 139.5271 435.5265)" class="st0 st1 st2">950</text>
</g>
<text transform="matrix(4.489659e-11 -1 1 4.489659e-11 100.8905 470.406)" class="st0 st1 st2 st3">GR/CAPITA/DAY</text>
<g>
	<text transform="matrix(1 0 0 1 132.072 390.2111)" class="st0 st1 st2">1000</text>
</g>
<g>
	<text transform="matrix(1 0 0 1 132.072 344.8952)" class="st0 st1 st2">1050</text>
</g>
<text transform="matrix(1 0 0 1 132.0717 299.5793)" class="st0 st1 st2">1100</text>
<g>
	<line class="st4" x1="259.5" y1="558" x2="259.5" y2="266.9"/>
	<line class="st4" x1="344.7" y1="558" x2="344.7" y2="266.9"/>
	<line class="st4" x1="429.9" y1="558" x2="429.9" y2="266.9"/>
	<line class="st4" x1="515.1" y1="558" x2="515.1" y2="266.9"/>
	<line class="st4" x1="600.4" y1="558" x2="600.4" y2="266.9"/>
	<line class="st4" x1="685.6" y1="558" x2="685.6" y2="266.9"/>
	<line class="st4" x1="770.8" y1="558" x2="770.8" y2="266.9"/>
	<line class="st4" x1="856" y1="558" x2="856" y2="266.9"/>
	<line class="st4" x1="941.2" y1="558" x2="941.2" y2="266.9"/>
	<line class="st4" x1="1026.5" y1="558" x2="1026.5" y2="266.9"/>
	<g>
		<line class="st4" x1="191.3" y1="526.2" x2="1043.5" y2="526.2"/>
		<line class="st4" x1="191.3" y1="557.9" x2="1043.5" y2="557.9"/>
		<line class="st4" x1="191.3" y1="480.8" x2="1043.5" y2="480.8"/>
		<line class="st4" x1="191.3" y1="435.5" x2="1043.5" y2="435.5"/>
		<line class="st4" x1="191.3" y1="390.2" x2="1043.5" y2="390.2"/>
		<line class="st4" x1="191.3" y1="344.9" x2="1043.5" y2="344.9"/>
		<line class="st4" x1="191.3" y1="299.6" x2="1043.5" y2="299.6"/>
		<line class="st4" x1="191.3" y1="266.9" x2="1043.5" y2="266.9"/>
	</g>
</g>
<g>
	<g>
		<g>
			<g>
				<circle class="st5" cx="191.3" cy="552.9" r="3"/>
			</g>
		</g>
		<g>
			<g>
				<circle class="st5" cx="208.3" cy="550" r="3"/>
			</g>
		</g>
		<g>
			<g>
				<circle class="st5" cx="225.4" cy="554.9" r="3"/>
			</g>
		</g>
		<g>
			<g>
				<circle class="st5" cx="242.4" cy="558" r="3"/>
			</g>
		</g>
		<g>
			<g>
				<circle class="st5" cx="259.5" cy="546.3" r="3"/>
			</g>
		</g>
		<g>
			<g>
				<circle class="st5" cx="276.5" cy="533.1" r="3"/>
			</g>
		</g>
		<g>
			<g>
				<circle class="st5" cx="293.6" cy="532.4" r="3"/>
			</g>
		</g>
		<g>
			<g>
				<circle class="st5" cx="310.6" cy="529.1" r="3"/>
			</g>
		</g>
		<g>
			<g>
				<circle class="st5" cx="327.7" cy="522.8" r="3"/>
			</g>
		</g>
		<g>
			<g>
				<circle class="st5" cx="344.7" cy="522.7" r="3"/>
			</g>
		</g>
		<g>
			<g>
				<circle class="st5" cx="361.7" cy="526.4" r="3"/>
			</g>
		</g>
		<g>
			<g>
				<circle class="st5" cx="378.8" cy="532.9" r="3"/>
			</g>
		</g>
		<g>
			<g>
				<circle class="st5" cx="395.8" cy="518.2" r="3"/>
			</g>
		</g>
		<g>
			<g>
				<circle class="st5" cx="412.9" cy="513.4" r="3"/>
			</g>
		</g>
		<g>
			<g>
				<circle class="st5" cx="429.9" cy="516.1" r="3"/>
			</g>
		</g>
		<g>
			<g>
				<circle class="st5" cx="447" cy="520.4" r="3"/>
			</g>
		</g>
		<g>
			<g>
				<circle class="st5" cx="464" cy="509.3" r="3"/>
			</g>
		</g>
		<g>
			<g>
				<circle class="st5" cx="481.1" cy="491.7" r="3"/>
			</g>
		</g>
		<g>
			<g>
				<circle class="st5" cx="498.1" cy="492" r="3"/>
			</g>
		</g>
		<g>
			<g>
				<circle class="st5" cx="515.1" cy="495.4" r="3"/>
			</g>
		</g>
		<g>
			<g>
				<circle class="st5" cx="532.2" cy="493.1" r="3"/>
			</g>
		</g>
		<g>
			<g>
				<circle class="st5" cx="549.2" cy="488" r="3"/>
			</g>
		</g>
		<g>
			<g>
				<circle class="st5" cx="566.3" cy="481.4" r="3"/>
			</g>
		</g>
		<g>
			<g>
				<circle class="st5" cx="583.3" cy="470.6" r="3"/>
			</g>
		</g>
		<g>
			<g>
				<circle class="st5" cx="600.4" cy="468.5" r="3"/>
			</g>
		</g>
		<g>
			<g>
				<circle class="st5" cx="617.4" cy="463.1" r="3"/>
			</g>
		</g>
		<g>
			<g>
				<circle class="st5" cx="634.4" cy="455.2" r="3"/>
			</g>
		</g>
		<g>
			<g>
				<circle class="st5" cx="651.5" cy="459" r="3"/>
			</g>
		</g>
		<g>
			<g>
				<circle class="st5" cx="668.5" cy="459.4" r="3"/>
			</g>
		</g>
		<g>
			<g>
				<circle class="st5" cx="685.6" cy="461.1" r="3"/>
			</g>
		</g>
		<g>
			<g>
				<circle class="st5" cx="702.6" cy="463.4" r="3"/>
			</g>
		</g>
		<g>
			<g>
				<circle class="st5" cx="719.7" cy="462.7" r="3"/>
			</g>
		</g>
		<g>
			<g>
				<circle class="st5" cx="736.7" cy="453.4" r="3"/>
			</g>
		</g>
		<g>
			<g>
				<circle class="st5" cx="753.8" cy="438.8" r="3"/>
			</g>
		</g>
		<g>
			<g>
				<circle class="st5" cx="770.8" cy="419.2" r="3"/>
			</g>
		</g>
		<g>
			<g>
				<circle class="st5" cx="787.8" cy="412.1" r="3"/>
			</g>
		</g>
		<g>
			<g>
				<circle class="st5" cx="804.9" cy="408" r="3"/>
			</g>
		</g>
		<g>
			<g>
				<circle class="st5" cx="821.9" cy="389" r="3"/>
			</g>
		</g>
		<g>
			<g>
				<circle class="st5" cx="839" cy="367.1" r="3"/>
			</g>
		</g>
		<g>
			<g>
				<circle class="st5" cx="856" cy="351.7" r="3"/>
			</g>
		</g>
		<g>
			<g>
				<circle class="st5" cx="873.1" cy="347.3" r="3"/>
			</g>
		</g>
		<g>
			<g>
				<circle class="st5" cx="890.1" cy="339" r="3"/>
			</g>
		</g>
		<g>
			<g>
				<circle class="st5" cx="907.2" cy="332.6" r="3"/>
			</g>
		</g>
		<g>
			<g>
				<circle class="st5" cx="924.2" cy="332.4" r="3"/>
			</g>
		</g>
		<g>
			<g>
				<circle class="st5" cx="941.2" cy="324.8" r="3"/>
			</g>
		</g>
		<g>
			<g>
				<circle class="st5" cx="958.3" cy="312.6" r="3"/>
			</g>
		</g>
		<g>
			<g>
				<circle class="st5" cx="975.3" cy="301.3" r="3"/>
			</g>
		</g>
		<g>
			<g>
				<circle class="st5" cx="992.4" cy="293.6" r="3"/>
			</g>
		</g>
	</g>
</g>
<g>
	<circle class="st6" cx="1009.4" cy="287.7" r="3"/>
</g>
<g>
	<circle class="st6" cx="1026.5" cy="276.7" r="3"/>
</g>
<g>
	<circle class="st6" cx="1043.5" cy="266.9" r="3"/>
</g>
<polyline class="st7" points="1009.2,287.7 1026.4,276.7 1041.9,268.1 "/>
<line class="st7" x1="1006.4" y1="288.6" x2="1009.2" y2="287.7"/>
<polyline class="st8" points="191.1,552.6 208.1,550 225,554.8 242.3,558.3 259.4,546.4 276.5,533 293.3,532.5 310.5,529.1 
	327.5,522.8 344.6,522.6 361.5,526.3 378.7,532.9 395.8,518.1 412.7,513.4 429.9,515.9 446.8,520.5 464.1,509.3 481,491.6 
	497.8,491.9 515,495.4 532,492.9 549.1,488 566.2,481.4 583.5,470.5 600.3,468.4 617.2,463.1 634.4,455 651.2,458.9 668.3,459.3 
	685.4,461 702.5,463.3 719.5,462.7 736.6,453.3 753.7,438.8 770.8,419 787.6,412.1 804.8,408 821.9,388.8 839,366.9 856.1,351.4 
	873,347.1 890.1,338.9 907.2,332.5 924,332.4 941,324.6 958.3,312.3 975.3,301.3 992.3,293.5 1006.4,288.6 "/>
<g>
	<text transform="matrix(1 0 0 1 670.3329 599.2093)" class="st0 st1 st2">1990</text>
</g>
<g>
	<defs>
		<rect id="SVGID_1_" x="1006.4" y="266.9" width="37.1" height="291"/>
	</defs>
	<clipPath id="SVGID_2_">
		<use xlink:href="#SVGID_1_"  style="overflow:visible;"/>
	</clipPath>
	<g class="st9">
		<line class="st7" x1="1037.5" y1="178.7" x2="578.2" y2="596.9"/>
		<line class="st7" x1="1037.5" y1="178.7" x2="585.8" y2="596.9"/>
		<line class="st7" x1="1045.1" y1="178.7" x2="593.4" y2="596.9"/>
		<line class="st7" x1="1052.7" y1="178.7" x2="601" y2="596.9"/>
		<line class="st7" x1="1060.3" y1="178.7" x2="608.6" y2="596.9"/>
		<line class="st7" x1="1067.9" y1="178.7" x2="616.2" y2="596.9"/>
		<line class="st7" x1="1075.5" y1="178.7" x2="623.8" y2="596.9"/>
		<line class="st7" x1="1083.2" y1="178.7" x2="631.4" y2="596.9"/>
		<line class="st7" x1="1090.8" y1="178.7" x2="639" y2="596.9"/>
		<line class="st7" x1="1098.4" y1="178.7" x2="646.7" y2="596.9"/>
		<line class="st7" x1="1106" y1="178.7" x2="654.3" y2="596.9"/>
		<line class="st7" x1="1113.6" y1="178.7" x2="661.9" y2="596.9"/>
		<line class="st7" x1="1121.2" y1="178.7" x2="669.5" y2="596.9"/>
		<line class="st7" x1="1128.8" y1="178.7" x2="677.1" y2="596.9"/>
		<line class="st7" x1="1136.4" y1="178.7" x2="684.7" y2="596.9"/>
		<line class="st7" x1="1144" y1="178.7" x2="692.3" y2="596.9"/>
		<line class="st7" x1="1151.7" y1="178.7" x2="699.9" y2="596.9"/>
		<line class="st7" x1="1159.3" y1="178.7" x2="707.5" y2="596.9"/>
		<line class="st7" x1="1166.9" y1="178.7" x2="715.1" y2="596.9"/>
		<line class="st7" x1="1174.5" y1="178.7" x2="722.8" y2="596.9"/>
		<line class="st7" x1="1182.1" y1="178.7" x2="730.4" y2="596.9"/>
		<line class="st7" x1="1189.7" y1="178.7" x2="738" y2="596.9"/>
		<line class="st7" x1="1197.3" y1="178.7" x2="745.6" y2="596.9"/>
		<line class="st7" x1="1204.9" y1="178.7" x2="753.2" y2="596.9"/>
		<line class="st7" x1="1212.5" y1="178.7" x2="760.8" y2="596.9"/>
		<line class="st7" x1="1220.1" y1="178.7" x2="768.4" y2="596.9"/>
		<line class="st7" x1="1227.8" y1="178.7" x2="776" y2="596.9"/>
		<line class="st7" x1="1235.4" y1="178.7" x2="783.6" y2="596.9"/>
		<line class="st7" x1="1243" y1="178.7" x2="791.2" y2="596.9"/>
		<line class="st7" x1="1250.6" y1="178.7" x2="798.9" y2="596.9"/>
		<line class="st7" x1="1258.2" y1="178.7" x2="806.5" y2="596.9"/>
		<line class="st7" x1="1265.8" y1="178.7" x2="814.1" y2="596.9"/>
		<line class="st7" x1="1273.4" y1="178.7" x2="821.7" y2="596.9"/>
		<line class="st7" x1="1281" y1="178.7" x2="829.3" y2="596.9"/>
		<line class="st7" x1="1288.6" y1="178.7" x2="836.9" y2="596.9"/>
		<line class="st7" x1="1296.2" y1="178.7" x2="844.5" y2="596.9"/>
		<line class="st7" x1="1303.9" y1="178.7" x2="852.1" y2="596.9"/>
		<line class="st7" x1="1311.5" y1="178.7" x2="859.7" y2="596.9"/>
		<line class="st7" x1="1319.1" y1="178.7" x2="867.3" y2="596.9"/>
		<line class="st7" x1="1326.7" y1="178.7" x2="875" y2="596.9"/>
		<line class="st7" x1="1334.3" y1="178.7" x2="882.6" y2="596.9"/>
		<line class="st7" x1="1341.9" y1="178.7" x2="890.2" y2="596.9"/>
		<line class="st7" x1="1349.5" y1="178.7" x2="897.8" y2="596.9"/>
		<line class="st7" x1="1357.1" y1="178.7" x2="905.4" y2="596.9"/>
		<line class="st7" x1="1364.7" y1="178.7" x2="913" y2="596.9"/>
		<line class="st7" x1="1372.3" y1="178.7" x2="920.6" y2="596.9"/>
		<line class="st7" x1="1380" y1="178.7" x2="928.2" y2="596.9"/>
		<line class="st7" x1="1387.6" y1="178.7" x2="935.8" y2="596.9"/>
		<line class="st7" x1="1395.2" y1="178.7" x2="943.5" y2="596.9"/>
		<line class="st7" x1="1402.8" y1="178.7" x2="951.1" y2="596.9"/>
		<line class="st7" x1="1410.4" y1="178.7" x2="958.7" y2="596.9"/>
		<line class="st7" x1="1418" y1="178.7" x2="966.3" y2="596.9"/>
		<line class="st7" x1="1425.6" y1="178.7" x2="973.9" y2="596.9"/>
		<line class="st7" x1="1433.2" y1="178.7" x2="981.5" y2="596.9"/>
		<line class="st7" x1="1440.8" y1="178.7" x2="989.1" y2="596.9"/>
		<line class="st7" x1="1448.4" y1="178.7" x2="996.7" y2="596.9"/>
		<line class="st7" x1="1456.1" y1="178.7" x2="1004.3" y2="596.9"/>
		<line class="st7" x1="1463.7" y1="178.7" x2="1011.9" y2="596.9"/>
		<line class="st7" x1="1471.3" y1="178.7" x2="1019.6" y2="596.9"/>
		<line class="st7" x1="1478.9" y1="178.7" x2="1027.2" y2="596.9"/>
		<line class="st7" x1="1486.5" y1="178.7" x2="1034.8" y2="596.9"/>
		<line class="st7" x1="1494.1" y1="178.7" x2="1042.4" y2="596.9"/>
		<line class="st7" x1="1501.7" y1="178.7" x2="1050" y2="596.9"/>
		<line class="st7" x1="1509.3" y1="178.7" x2="1057.6" y2="596.9"/>
		<line class="st7" x1="1516.9" y1="178.7" x2="1065.2" y2="596.9"/>
	</g>
</g>
<g>
	<text transform="matrix(1 0 0 1 1006.9219 506.0196)"><tspan x="0" y="0" class="st10 st11 st12 st3">09</tspan><tspan x="0" y="26" class="st10 st11 st12 st3">10</tspan><tspan x="0" y="52" class="st10 st11 st12 st3">11</tspan></text>
</g>
</svg>
