<?xml version="1.0" encoding="utf-8"?>
<!-- Generator: Adobe Illustrator 19.0.0, SVG Export Plug-In . SVG Version: 6.00 Build 0)  -->
<svg version="1.1" xmlns="http://www.w3.org/2000/svg" xmlns:xlink="http://www.w3.org/1999/xlink" x="0px" y="0px"
	 viewBox="0 0 884.2 460.4" enable-background="new 0 0 884.2 460.4" xml:space="preserve">
<g id="Layer_2" display="none">
	<rect id="XMLID_1303_" x="-64.1" y="-176.6" display="inline" fill="#FFFCEC" width="1280" height="800"/>
</g>
<g id="Layer_6">
	
		<line id="XMLID_2958_" fill="none" stroke="#C7C8CA" stroke-width="0.5" stroke-linejoin="round" stroke-miterlimit="10" x1="64.7" y1="12.3" x2="880.8" y2="12.3"/>
	
		<line id="XMLID_2957_" fill="none" stroke="#C7C8CA" stroke-width="0.5" stroke-linejoin="round" stroke-miterlimit="10" x1="68.1" y1="56.4" x2="884.2" y2="56.4"/>
	
		<line id="XMLID_2956_" fill="none" stroke="#C7C8CA" stroke-width="0.5" stroke-linejoin="round" stroke-miterlimit="10" x1="68.1" y1="98.1" x2="884.2" y2="98.1"/>
	
		<line id="XMLID_76_" fill="none" stroke="#C7C8CA" stroke-width="0.5" stroke-linejoin="round" stroke-miterlimit="10" x1="68.1" y1="432" x2="884.2" y2="432"/>
	
		<line id="XMLID_2955_" fill="none" stroke="#C7C8CA" stroke-width="0.5" stroke-linejoin="round" stroke-miterlimit="10" x1="68.1" y1="139.8" x2="884.2" y2="139.8"/>
	
		<line id="XMLID_2954_" fill="none" stroke="#C7C8CA" stroke-width="0.5" stroke-linejoin="round" stroke-miterlimit="10" x1="68.1" y1="181.6" x2="884.2" y2="181.6"/>
	
		<line id="XMLID_2953_" fill="none" stroke="#C7C8CA" stroke-width="0.5" stroke-linejoin="round" stroke-miterlimit="10" x1="68.1" y1="223.3" x2="884.2" y2="223.3"/>
	
		<line id="XMLID_2952_" fill="none" stroke="#C7C8CA" stroke-width="0.5" stroke-linejoin="round" stroke-miterlimit="10" x1="68.1" y1="265" x2="884.2" y2="265"/>
	
		<line id="XMLID_2951_" fill="none" stroke="#C7C8CA" stroke-width="0.5" stroke-linejoin="round" stroke-miterlimit="10" x1="68.1" y1="306.7" x2="884.2" y2="306.7"/>
	
		<line id="XMLID_2950_" fill="none" stroke="#C7C8CA" stroke-width="0.5" stroke-linejoin="round" stroke-miterlimit="10" x1="68.1" y1="348.5" x2="884.2" y2="348.5"/>
	
		<line id="XMLID_2949_" fill="none" stroke="#C7C8CA" stroke-width="0.5" stroke-linejoin="round" stroke-miterlimit="10" x1="68.1" y1="390.2" x2="884.2" y2="390.2"/>
	
		<line id="XMLID_1549_" fill="none" stroke="#A9CBB7" stroke-width="2" stroke-miterlimit="10" x1="629.9" y1="432.4" x2="629.9" y2="288.4"/>
	
		<line id="XMLID_1550_" fill="none" stroke="#A9CBB7" stroke-width="2" stroke-miterlimit="10" x1="653.9" y1="432.4" x2="653.9" y2="311.4"/>
	
		<line id="XMLID_1551_" fill="none" stroke="#A9CBB7" stroke-width="2" stroke-miterlimit="10" x1="676.9" y1="432.4" x2="676.9" y2="319.4"/>
	
		<line id="XMLID_1552_" fill="none" stroke="#A9CBB7" stroke-width="2" stroke-miterlimit="10" x1="699.9" y1="432.4" x2="699.9" y2="364.4"/>
	
		<line id="XMLID_1553_" fill="none" stroke="#A9CBB7" stroke-width="2" stroke-miterlimit="10" x1="723.9" y1="432.4" x2="723.9" y2="401.4"/>
	
		<line id="XMLID_1544_" fill="none" stroke="#FE654F" stroke-width="2" stroke-miterlimit="10" x1="495.9" y1="432.4" x2="495.9" y2="211.4"/>
	
		<line id="XMLID_1545_" fill="none" stroke="#FE654F" stroke-width="2" stroke-miterlimit="10" x1="518.9" y1="432.4" x2="518.9" y2="322.4"/>
	
		<line id="XMLID_1546_" fill="none" stroke="#FE654F" stroke-width="2" stroke-miterlimit="10" x1="542.9" y1="432.4" x2="542.9" y2="338.4"/>
	
		<line id="XMLID_1547_" fill="none" stroke="#FE654F" stroke-width="2" stroke-miterlimit="10" x1="564.9" y1="432.4" x2="564.9" y2="383.4"/>
	
		<line id="XMLID_1548_" fill="none" stroke="#FE654F" stroke-width="2" stroke-miterlimit="10" x1="587.9" y1="432.4" x2="587.9" y2="366.4"/>
	
		<line id="XMLID_1539_" fill="none" stroke="#FF934F" stroke-width="2" stroke-miterlimit="10" x1="356.9" y1="432.4" x2="356.9" y2="271.4"/>
	
		<line id="XMLID_1540_" fill="none" stroke="#FF934F" stroke-width="2" stroke-miterlimit="10" x1="380.9" y1="432.4" x2="380.9" y2="346.4"/>
	
		<line id="XMLID_1541_" fill="none" stroke="#FF934F" stroke-width="2" stroke-miterlimit="10" x1="404.9" y1="432.4" x2="404.9" y2="358.4"/>
	
		<line id="XMLID_1542_" fill="none" stroke="#FF934F" stroke-width="2" stroke-miterlimit="10" x1="428.9" y1="432.4" x2="428.9" y2="357.4"/>
	
		<line id="XMLID_1535_" fill="none" stroke="#409282" stroke-width="2" stroke-miterlimit="10" x1="219.9" y1="432.4" x2="219.9" y2="349.4"/>
	
		<line id="XMLID_1536_" fill="none" stroke="#409282" stroke-width="2" stroke-miterlimit="10" x1="243.9" y1="432.4" x2="243.9" y2="357.4"/>
	
		<line id="XMLID_1537_" fill="none" stroke="#409282" stroke-width="2" stroke-miterlimit="10" x1="267.9" y1="432.4" x2="267.9" y2="391.4"/>
	
		<line id="XMLID_1538_" fill="none" stroke="#409282" stroke-width="2" stroke-miterlimit="10" x1="292.9" y1="432.4" x2="292.9" y2="396.4"/>
	
		<line id="XMLID_1568_" fill="none" stroke="#409282" stroke-width="2" stroke-miterlimit="10" x1="316.9" y1="432.4" x2="316.9" y2="403.4"/>
	
		<line id="XMLID_1530_" fill="none" stroke="#BF2E5E" stroke-width="2" stroke-miterlimit="10" x1="84.9" y1="432.4" x2="84.9" y2="48.4"/>
	
		<line id="XMLID_1531_" fill="none" stroke="#BF2E5E" stroke-width="2" stroke-miterlimit="10" x1="108.9" y1="432.4" x2="108.9" y2="342.4"/>
	
		<line id="XMLID_1532_" fill="none" stroke="#BF2E5E" stroke-width="2" stroke-miterlimit="10" x1="131.9" y1="432.4" x2="131.9" y2="335.4"/>
	
		<line id="XMLID_1533_" fill="none" stroke="#BF2E5E" stroke-width="2" stroke-miterlimit="10" x1="155.9" y1="432.4" x2="155.9" y2="342.4"/>
	
		<line id="XMLID_1534_" fill="none" stroke="#BF2E5E" stroke-width="2" stroke-miterlimit="10" x1="179.9" y1="432.4" x2="179.9" y2="347.4"/>
	
		<line id="XMLID_1554_" fill="none" stroke="#91CFDB" stroke-width="2" stroke-miterlimit="10" x1="765.9" y1="432.4" x2="765.9" y2="186.4"/>
	
		<line id="XMLID_1555_" fill="none" stroke="#91CFDB" stroke-width="2" stroke-miterlimit="10" x1="789.9" y1="432.4" x2="789.9" y2="287.4"/>
	
		<line id="XMLID_1556_" fill="none" stroke="#91CFDB" stroke-width="2" stroke-miterlimit="10" x1="814.9" y1="432.4" x2="814.9" y2="332.4"/>
	
		<line id="XMLID_1557_" fill="none" stroke="#91CFDB" stroke-width="2" stroke-miterlimit="10" x1="838.9" y1="432.4" x2="838.9" y2="335.4"/>
	
		<line id="XMLID_1558_" fill="none" stroke="#91CFDB" stroke-width="2" stroke-miterlimit="10" x1="862.9" y1="432.4" x2="862.9" y2="376.4"/>
	<g id="XMLID_249_">
		<path id="XMLID_251_" fill="#409282" d="M310,429.8c0.4,1.2,1.3,2.5,3.3,2.5h8c2.6,0,3.4-2.3,3.5-3.6v-17.1c0-2.6-0.9-4.2-1.1-4.5
			c-0.4-0.8-1.4-2.9-1.9-3.8c-0.3-0.6-0.4-1.5-0.4-2.1c0.8-0.2,1.3-0.8,1.3-1.7c0-0.9-0.8-1.7-1.7-1.7h-7.5c-0.9,0-1.7,0.8-1.7,1.7
			c0,0.8,0.6,1.5,1.3,1.7c0,0.6-0.1,1.5-0.4,2.1c-0.5,0.9-1.5,3-1.9,3.8c-0.2,0.3-1.1,1.9-1.1,4.5v6.8L310,429.8z"/>
		<line id="XMLID_250_" fill="#409282" x1="311.9" y1="400.4" x2="321.9" y2="400.4"/>
	</g>
	<g id="XMLID_141_">
		<path id="XMLID_158_" fill="#BF2E5E" d="M77.8,79.8c0.4,1.2,1.3,2.5,3.3,2.5h8c2.6,0,3.4-2.3,3.5-3.6V61.6c0-2.6-0.9-4.2-1.1-4.5
			c-0.4-0.8-1.4-2.9-1.9-3.8c-0.3-0.6-0.4-1.5-0.4-2.1c0.8-0.2,1.3-0.8,1.3-1.7c0-0.9-0.8-1.7-1.7-1.7h-7.5c-0.9,0-1.7,0.8-1.7,1.7
			c0,0.8,0.6,1.5,1.3,1.7c0,0.6-0.1,1.5-0.4,2.1c-0.5,0.9-1.5,3-1.9,3.8c-0.2,0.3-1.1,1.9-1.1,4.5v6.8L77.8,79.8z"/>
		<line id="XMLID_155_" fill="#BF2E5E" x1="79.9" y1="50.4" x2="89.9" y2="50.4"/>
	</g>
	<g id="XMLID_271_">
		<path id="XMLID_273_" fill="#FF934F" d="M350,302.8c0.4,1.2,1.3,2.5,3.3,2.5h8c2.6,0,3.4-2.3,3.5-3.6v-17.1c0-2.6-0.9-4.2-1.1-4.5
			c-0.4-0.8-1.4-2.9-1.9-3.8c-0.3-0.6-0.4-1.5-0.4-2.1c0.8-0.2,1.3-0.8,1.3-1.7c0-0.9-0.8-1.7-1.7-1.7h-7.5c-0.9,0-1.7,0.8-1.7,1.7
			c0,0.8,0.6,1.5,1.3,1.7c0,0.6-0.1,1.5-0.4,2.1c-0.5,0.9-1.5,3-1.9,3.8c-0.2,0.3-1.1,1.9-1.1,4.5v6.8L350,302.8z"/>
		<line id="XMLID_272_" fill="#FF934F" x1="351.9" y1="273.4" x2="361.9" y2="273.4"/>
	</g>
	<g id="XMLID_297_">
		<path id="XMLID_304_" fill="#FE654F" d="M488.6,237.8c0.4,1.2,1.3,2.5,3.3,2.5h8c2.6,0,3.4-2.3,3.5-3.6v-17.1
			c0-2.6-0.9-4.2-1.1-4.5c-0.4-0.8-1.4-2.9-1.9-3.8c-0.3-0.6-0.4-1.5-0.4-2.1c0.8-0.2,1.3-0.8,1.3-1.7c0-0.9-0.8-1.7-1.7-1.7h-7.5
			c-0.9,0-1.7,0.8-1.7,1.7c0,0.8,0.6,1.5,1.3,1.7c0,0.6-0.1,1.5-0.4,2.1c-0.5,0.9-1.5,3-1.9,3.8c-0.2,0.3-1.1,1.9-1.1,4.5v6.8
			L488.6,237.8z"/>
		<line id="XMLID_303_" fill="#FE654F" x1="490.9" y1="208.4" x2="500.9" y2="208.4"/>
	</g>
	<g id="XMLID_127_">
		<path id="XMLID_129_" fill="#A9CBB7" d="M623,319.8c0.4,1.2,1.3,2.5,3.3,2.5h8c2.6,0,3.4-2.3,3.5-3.6v-17.1c0-2.6-0.9-4.2-1.1-4.5
			c-0.4-0.8-1.4-2.9-1.9-3.8c-0.3-0.6-0.4-1.5-0.4-2.1c0.8-0.2,1.3-0.8,1.3-1.7c0-0.9-0.8-1.7-1.7-1.7h-7.5c-0.9,0-1.7,0.8-1.7,1.7
			c0,0.8,0.6,1.5,1.3,1.7c0,0.6-0.1,1.5-0.4,2.1c-0.5,0.9-1.5,3-1.9,3.8c-0.2,0.3-1.1,1.9-1.1,4.5v6.8L623,319.8z"/>
		<line id="XMLID_128_" fill="#A9CBB7" x1="624.9" y1="290.4" x2="634.9" y2="290.4"/>
	</g>
	<g id="XMLID_130_">
		<path id="XMLID_132_" fill="#91CFDB" d="M759,216.8c0.4,1.2,1.3,2.5,3.3,2.5h8c2.6,0,3.4-2.3,3.5-3.6v-17.1c0-2.6-0.9-4.2-1.1-4.5
			c-0.4-0.8-1.4-2.9-1.9-3.8c-0.3-0.6-0.4-1.5-0.4-2.1c0.8-0.2,1.3-0.8,1.3-1.7c0-0.9-0.8-1.7-1.7-1.7h-7.5c-0.9,0-1.7,0.8-1.7,1.7
			c0,0.8,0.6,1.5,1.3,1.7c0,0.6-0.1,1.5-0.4,2.1c-0.5,0.9-1.5,3-1.9,3.8c-0.2,0.3-1.1,1.9-1.1,4.5v6.8L759,216.8z"/>
		<line id="XMLID_131_" fill="#91CFDB" x1="760.9" y1="187.4" x2="770.9" y2="187.4"/>
	</g>
	<g id="XMLID_204_">
		<path id="XMLID_206_" fill="#BF2E5E" d="M113.9,336.5c3.9-0.7,6.5,4.7,6.6,8.2c0.2,4.5-1.8,9.7-6.1,11.7c-0.5,0.2-0.9,0.4-1.4,0.5
			c-2.1,0.6-3.3-2.4-5.5-1.1c-0.4,0.3-1.4,1-1.9,1.1c-2.1,0.7-5-2.5-6-4c-1.4-2-2.2-4.4-2.2-6.8c0-4.8,1.8-10.2,7.7-8.9
			c1.6,0.3,3.5,1.7,5.1,1.1c0.7-0.3,1.2-0.7,1.9-1.1C112.7,336.8,113.3,336.6,113.9,336.5z"/>
		<path id="XMLID_255_" fill="#BF2E5E" d="M109,339.3c-0.1-0.2-1.9-5.2-1.3-9.3l0.8,0.1c-0.6,3.9,1.3,8.9,1.3,9L109,339.3z"/>
		<path id="XMLID_203_" fill="#BF2E5E" d="M109,338.3c0,0,5.2-0.2,5.3-6.3C114.3,331.9,108.6,329.4,109,338.3z"/>
	</g>
	<g id="XMLID_256_">
		<path id="XMLID_259_" fill="#409282" d="M273.9,381.5c3.9-0.7,6.5,4.7,6.6,8.2c0.2,4.5-1.8,9.7-6.1,11.7c-0.5,0.2-0.9,0.4-1.4,0.5
			c-2.1,0.6-3.3-2.4-5.5-1.1c-0.4,0.3-1.4,1-1.9,1.1c-2.1,0.7-5-2.5-6-4c-1.4-2-2.2-4.4-2.2-6.8c0-4.8,1.8-10.2,7.7-8.9
			c1.6,0.3,3.5,1.7,5.1,1.1c0.7-0.3,1.2-0.7,1.9-1.1C272.7,381.8,273.3,381.6,273.9,381.5z"/>
		<path id="XMLID_258_" fill="#409282" d="M269,384.3c-0.1-0.2-1.9-5.2-1.3-9.3l0.8,0.1c-0.6,3.9,1.3,8.9,1.3,9L269,384.3z"/>
		<path id="XMLID_257_" fill="#409282" d="M269,383.3c0,0,5.2-0.2,5.3-6.3C274.3,376.9,268.6,374.4,269,383.3z"/>
	</g>
	<g id="XMLID_274_">
		<path id="XMLID_277_" fill="#FF934F" d="M385.9,331.5c3.9-0.7,6.5,4.7,6.6,8.2c0.2,4.5-1.8,9.7-6.1,11.7c-0.5,0.2-0.9,0.4-1.4,0.5
			c-2.1,0.6-3.3-2.4-5.5-1.1c-0.4,0.3-1.4,1-1.9,1.1c-2.1,0.7-5-2.5-6-4c-1.4-2-2.2-4.4-2.2-6.8c0-4.8,1.8-10.2,7.7-8.9
			c1.6,0.3,3.5,1.7,5.1,1.1c0.7-0.3,1.2-0.7,1.9-1.1C384.7,331.8,385.3,331.6,385.9,331.5z"/>
		<path id="XMLID_276_" fill="#FF934F" d="M381,334.3c-0.1-0.2-1.9-5.2-1.3-9.3l0.8,0.1c-0.6,3.9,1.3,8.9,1.3,9L381,334.3z"/>
		<path id="XMLID_275_" fill="#FF934F" d="M381,333.3c0,0,5.2-0.2,5.3-6.3C386.3,326.9,380.6,324.4,381,333.3z"/>
	</g>
	<g id="XMLID_88_">
		<path id="XMLID_92_" fill="#FE654F" d="M523.9,314.5c3.9-0.7,6.5,4.7,6.6,8.2c0.2,4.5-1.8,9.7-6.1,11.7c-0.5,0.2-0.9,0.4-1.4,0.5
			c-2.1,0.6-3.3-2.4-5.5-1.1c-0.4,0.3-1.4,1-1.9,1.1c-2.1,0.7-5-2.5-6-4c-1.4-2-2.2-4.4-2.2-6.8c0-4.8,1.8-10.2,7.7-8.9
			c1.6,0.3,3.5,1.7,5.1,1.1c0.7-0.3,1.2-0.7,1.9-1.1C522.7,314.8,523.3,314.6,523.9,314.5z"/>
		<path id="XMLID_91_" fill="#FE654F" d="M519,317.3c-0.1-0.2-1.9-5.2-1.3-9.3l0.8,0.1c-0.6,3.9,1.3,8.9,1.3,9L519,317.3z"/>
		<path id="XMLID_90_" fill="#FE654F" d="M519,316.3c0,0,5.2-0.2,5.3-6.3C524.3,309.9,518.6,307.4,519,316.3z"/>
	</g>
	<g id="XMLID_79_">
		<path id="XMLID_188_" fill="#91CFDB" d="M794.9,280.5c3.9-0.7,6.5,4.7,6.6,8.2c0.2,4.5-1.8,9.7-6.1,11.7c-0.5,0.2-0.9,0.4-1.4,0.5
			c-2.1,0.6-3.3-2.4-5.5-1.1c-0.4,0.3-1.4,1-1.9,1.1c-2.1,0.7-5-2.5-6-4c-1.4-2-2.2-4.4-2.2-6.8c0-4.8,1.8-10.2,7.7-8.9
			c1.6,0.3,3.5,1.7,5.1,1.1c0.7-0.3,1.2-0.7,1.9-1.1C793.7,280.8,794.3,280.6,794.9,280.5z"/>
		<path id="XMLID_187_" fill="#91CFDB" d="M790,283.3c-0.1-0.2-1.9-5.2-1.3-9.3l0.8,0.1c-0.6,3.9,1.3,8.9,1.3,9L790,283.3z"/>
		<path id="XMLID_186_" fill="#91CFDB" d="M790,282.3c0,0,5.2-0.2,5.3-6.3C795.3,275.9,789.6,273.4,790,282.3z"/>
	</g>
	<g id="XMLID_178_">
		<path id="XMLID_181_" fill="#A9CBB7" d="M704.8,357.5c3.9-0.7,6.5,4.7,6.6,8.2c0.2,4.5-1.8,9.7-6.1,11.7c-0.5,0.2-0.9,0.4-1.4,0.5
			c-2.1,0.6-3.3-2.4-5.5-1.1c-0.4,0.3-1.4,1-1.9,1.1c-2.1,0.7-5-2.5-6-4c-1.4-2-2.2-4.4-2.2-6.8c0-4.8,1.8-10.2,7.7-8.9
			c1.6,0.3,3.5,1.7,5.1,1.1c0.7-0.3,1.2-0.7,1.9-1.1C703.7,357.8,704.3,357.6,704.8,357.5z"/>
		<path id="XMLID_180_" fill="#A9CBB7" d="M700,360.3c-0.1-0.2-1.9-5.2-1.3-9.3l0.8,0.1c-0.6,3.9,1.3,8.9,1.3,9L700,360.3z"/>
		<path id="XMLID_179_" fill="#A9CBB7" d="M700,359.3c0,0,5.2-0.2,5.3-6.3C705.2,352.9,699.5,350.4,700,359.3z"/>
	</g>
	<g id="XMLID_2_">
		<path id="XMLID_236_" fill="#BF2E5E" d="M187.3,360.5c-2.9,1.3-6,2-9.2,2.2c-1.6,0.1-3.2,0-4.8-0.2c-1.4-0.2-3.2-0.3-4.4-1.1
			c-0.7-0.5-1.2-1.2-1.6-2c-0.6-1.5-0.4-3.2,0.5-4.5c0.5-0.6,1.1-1.1,1.8-1.4c1.1-0.4,2-0.5,2.9-1.3c0.9-0.7,1.8-1.6,2.4-2.6
			c0.7-1,1-2.2,1.8-3.1c0.9-1.1,2.1-1.9,3.4-2.5c4.6-2,9.9,0.1,11.8,4.7c1,2.4,1,5.2-0.2,7.5C190.9,358.2,189.3,359.6,187.3,360.5z"
			/>
		<circle id="XMLID_235_" fill="#FFFCE6" cx="188.3" cy="352.5" r="1.6"/>
		
			<line id="XMLID_234_" fill="none" stroke="#FFFCE6" stroke-width="0.4139" stroke-linecap="round" stroke-linejoin="round" stroke-miterlimit="10" x1="179" y1="358.1" x2="173.1" y2="355.8"/>
		
			<line id="XMLID_233_" fill="none" stroke="#FFFCE6" stroke-width="0.4139" stroke-linecap="round" stroke-linejoin="round" stroke-miterlimit="10" x1="182.6" y1="353.2" x2="176.7" y2="350.8"/>
		
			<line id="XMLID_232_" fill="none" stroke="#FFFCE6" stroke-width="0.4139" stroke-linecap="round" stroke-linejoin="round" stroke-miterlimit="10" x1="182.9" y1="356.5" x2="176.6" y2="354"/>
	</g>
	
		<line id="XMLID_1543_" fill="none" stroke="#FF934F" stroke-width="2" stroke-miterlimit="10" x1="451.9" y1="432.4" x2="451.9" y2="386.4"/>
	<path id="XMLID_302_" fill="#FF934F" d="M437.2,372.5c-2.9,1.3-6,2-9.2,2.2c-1.6,0.1-3.2,0-4.8-0.2c-1.4-0.2-3.2-0.3-4.4-1.1
		c-0.7-0.5-1.2-1.2-1.6-2c-0.6-1.5-0.4-3.2,0.5-4.5c0.5-0.6,1.1-1.1,1.8-1.4c1.1-0.4,2-0.5,2.9-1.3c0.9-0.7,1.8-1.6,2.4-2.6
		c0.7-1,1-2.2,1.8-3.1c0.9-1.1,2.1-1.9,3.4-2.5c4.6-2,9.9,0.1,11.8,4.7c1,2.4,1,5.2-0.2,7.5C440.8,370.2,439.2,371.6,437.2,372.5z"
		/>
	<circle id="XMLID_301_" fill="#FFFCE6" cx="438.2" cy="364.5" r="1.6"/>
	
		<line id="XMLID_300_" fill="none" stroke="#FFFCE6" stroke-width="0.4139" stroke-linecap="round" stroke-miterlimit="10" x1="428.9" y1="370.1" x2="423" y2="367.8"/>
	
		<line id="XMLID_299_" fill="none" stroke="#FFFCE6" stroke-width="0.4139" stroke-linecap="round" stroke-miterlimit="10" x1="432.5" y1="365.2" x2="426.5" y2="362.8"/>
	
		<line id="XMLID_298_" fill="none" stroke="#FFFCE6" stroke-width="0.4139" stroke-linecap="round" stroke-miterlimit="10" x1="432.8" y1="368.5" x2="426.5" y2="366"/>
	<path id="XMLID_126_" fill="#FE654F" d="M595.7,382c-2.8,1.5-5.9,2.4-9,2.8c-1.6,0.2-3.2,0.2-4.8,0.1c-1.4-0.1-3.2-0.1-4.5-0.9
		c-0.7-0.4-1.3-1.1-1.7-1.9c-0.7-1.4-0.6-3.2,0.2-4.5c0.4-0.6,1-1.2,1.7-1.5c1.1-0.5,2-0.6,2.9-1.5c0.9-0.8,1.7-1.7,2.3-2.8
		c0.6-1,0.8-2.3,1.6-3.3c0.8-1.1,2-2,3.2-2.7c4.4-2.3,9.8-0.5,12.1,3.9c1.2,2.3,1.3,5.1,0.3,7.5C599.1,379.5,597.5,381,595.7,382z"
		/>
	<circle id="XMLID_125_" fill="#FFFCE6" cx="596.3" cy="374.5" r="1.6"/>
	
		<line id="XMLID_124_" fill="none" stroke="#FFFCE6" stroke-width="0.4139" stroke-linecap="round" stroke-linejoin="round" stroke-miterlimit="10" x1="587" y1="380.1" x2="581" y2="377.8"/>
	
		<line id="XMLID_123_" fill="none" stroke="#FFFCE6" stroke-width="0.4139" stroke-linecap="round" stroke-linejoin="round" stroke-miterlimit="10" x1="590.5" y1="375.2" x2="584.6" y2="372.8"/>
	
		<line id="XMLID_122_" fill="none" stroke="#FFFCE6" stroke-width="0.4139" stroke-linecap="round" stroke-linejoin="round" stroke-miterlimit="10" x1="590.9" y1="378.5" x2="584.6" y2="376"/>
	<line id="XMLID_231_" fill="#BF2E5E" x1="155.9" y1="385.4" x2="155.9" y2="346.4"/>
	
		<ellipse id="XMLID_254_" transform="matrix(0.234 0.9722 -0.9722 0.234 622.5863 38.7398)" fill="#409282" cx="286.7" cy="414.5" rx="8.5" ry="2.6"/>
	
		<ellipse id="XMLID_253_" transform="matrix(-2.724334e-02 0.9996 -0.9996 -2.724334e-02 703.6161 122.3765)" fill="#409282" cx="292.3" cy="403.5" rx="8.5" ry="2.6"/>
	
		<ellipse id="XMLID_252_" transform="matrix(-0.4196 0.9077 -0.9077 -0.4196 797.9942 319.0305)" fill="#409282" cx="297" cy="414.7" rx="8.5" ry="2.6"/>
	<path id="XMLID_270_" fill="#409282" d="M214.3,348.7c0.3-0.1,0.5-0.1,0.8-0.1c0.5,0,1-0.1,1.6-0.1c0.8-0.1,1.6-0.1,2.4-0.1
		c1.6,0.1,3.3,0.5,4.5,1.6c1.2,1.1,1.9,2.9,1.3,4.4c-0.2,0.7-0.7,1.2-1.1,1.8c-0.6,0.9-1,1.8-1.6,2.7c-1.8,2.7-5,4.5-8.3,4.6
		c-1.7,0-3.5-0.4-4.6-1.7c-0.7-0.8-1-1.7-1.4-2.7c-0.7-2-1.2-4.4,0-6.2c0.4-0.7,1.1-1.2,1.7-1.7c0.7-0.6,1.4-1.2,2.2-1.6
		c0.4-0.2,0.8-0.4,1.3-0.6c0.2-0.1,0.4-0.1,0.5-0.1C213.8,348.9,214.1,348.8,214.3,348.7z"/>
	<path id="XMLID_269_" fill="#409282" stroke="#FFFCE6" stroke-width="0.7716" stroke-miterlimit="10" d="M226.8,352.7
		c0.1,0,0.1,0,0.2,0c0.2,0.1,0.4,0.2,0.6,0.3c0.3,0.1,0.7,0.3,1,0.4c0.6,0.3,1.3,0.6,1.9,1c1.2,0.8,2.2,1.8,2.7,3.1
		c0.4,1.3,0.2,3-0.9,3.9c-0.5,0.4-1.1,0.6-1.6,0.9c-0.8,0.4-1.5,0.9-2.4,1.4c-2.5,1.3-5.7,1.2-8.2-0.1c-1.3-0.7-2.4-1.8-2.7-3.2
		c-0.2-0.9,0-1.8,0.1-2.6c0.4-1.8,1-3.8,2.6-4.7c0.6-0.3,1.3-0.4,2-0.6c0.8-0.1,1.6-0.2,2.4-0.2c0.4,0,0.8,0,1.2,0.1
		c0.2,0,0.4,0.1,0.6,0.1C226.4,352.7,226.6,352.7,226.8,352.7z"/>
	<path id="XMLID_268_" fill="none" stroke="#FFFCE6" stroke-width="0.3858" stroke-miterlimit="10" d="M211,353.4
		c0,0-0.1-0.5,0.7-0.2"/>
	<path id="XMLID_267_" fill="none" stroke="#FFFCEC" stroke-width="0.3858" stroke-miterlimit="10" d="M224.2,352.6"/>
	<path id="XMLID_266_" fill="none" stroke="#FFFCE6" stroke-width="0.3858" stroke-miterlimit="10" d="M215.7,353.4c0,0,0-1.4,0.9-1
		"/>
	<path id="XMLID_265_" fill="none" stroke="#FFFCE6" stroke-width="0.3858" stroke-miterlimit="10" d="M218.8,350.4
		c0,0,0.8-0.7,1.5,0"/>
	<path id="XMLID_264_" fill="none" stroke="#FFFCE6" stroke-width="0.3858" stroke-miterlimit="10" d="M219.5,356.4
		c0,0-0.2-1,0.5-0.8"/>
	<path id="XMLID_263_" fill="none" stroke="#FFFCE6" stroke-width="0.3858" stroke-miterlimit="10" d="M222.4,354.8
		c0,0,0.8-0.8,1.5-0.3"/>
	<path id="XMLID_262_" fill="none" stroke="#FFFCE6" stroke-width="0.3858" stroke-miterlimit="10" d="M226.9,355.3c0,0,0-0.8,1.1,0
		"/>
	<path id="XMLID_261_" fill="none" stroke="#FFFCE6" stroke-width="0.3858" stroke-miterlimit="10" d="M223.9,356.6
		c0,0,1-0.8,1.3-0.2"/>
	<path id="XMLID_289_" fill="#91CFDB" d="M835.3,335.7c0.3-0.1,0.5-0.1,0.8-0.1c0.5,0,1-0.1,1.6-0.1c0.8-0.1,1.6-0.1,2.4-0.1
		c1.6,0.1,3.3,0.5,4.5,1.6c1.2,1.1,1.9,2.9,1.3,4.4c-0.2,0.7-0.7,1.2-1.1,1.8c-0.6,0.9-1,1.8-1.6,2.7c-1.8,2.7-5,4.5-8.3,4.6
		c-1.7,0-3.5-0.4-4.6-1.7c-0.7-0.8-1-1.7-1.4-2.7c-0.7-2-1.2-4.4,0-6.2c0.4-0.7,1.1-1.2,1.7-1.7c0.7-0.6,1.4-1.2,2.2-1.6
		c0.4-0.2,0.8-0.4,1.3-0.6c0.2-0.1,0.4-0.1,0.5-0.1C834.8,335.9,835.1,335.8,835.3,335.7z"/>
	<path id="XMLID_248_" fill="#91CFDB" stroke="#FFFCEC" stroke-width="0.7716" stroke-miterlimit="10" d="M847.8,339.7
		c0.1,0,0.1,0,0.2,0c0.2,0.1,0.4,0.2,0.6,0.3c0.3,0.1,0.7,0.3,1,0.4c0.6,0.3,1.3,0.6,1.9,1c1.2,0.8,2.2,1.8,2.7,3.1
		c0.4,1.3,0.2,3-0.9,3.9c-0.5,0.4-1.1,0.6-1.6,0.9c-0.8,0.4-1.5,0.9-2.4,1.4c-2.5,1.3-5.7,1.2-8.2-0.1c-1.3-0.7-2.4-1.8-2.7-3.2
		c-0.2-0.9,0-1.8,0.1-2.6c0.4-1.8,1-3.8,2.6-4.7c0.6-0.3,1.3-0.4,2-0.6c0.8-0.1,1.6-0.2,2.4-0.2c0.4,0,0.8,0,1.2,0.1
		c0.2,0,0.4,0.1,0.6,0.1C847.4,339.7,847.6,339.7,847.8,339.7z"/>
	<path id="XMLID_247_" fill="none" stroke="#FFFCEC" stroke-width="0.3858" stroke-miterlimit="10" d="M832,340.4
		c0,0-0.1-0.5,0.7-0.2"/>
	<path id="XMLID_209_" fill="none" stroke="#FFFCEC" stroke-width="0.3858" stroke-miterlimit="10" d="M845.2,339.6"/>
	<path id="XMLID_208_" fill="none" stroke="#FFFCEC" stroke-width="0.3858" stroke-miterlimit="10" d="M836.7,340.4c0,0,0-1.4,0.9-1
		"/>
	<path id="XMLID_207_" fill="none" stroke="#FFFCEC" stroke-width="0.3858" stroke-miterlimit="10" d="M840.5,343.4
		c0,0-0.2-1,0.5-0.8"/>
	<path id="XMLID_199_" fill="none" stroke="#FFFCEC" stroke-width="0.3858" stroke-miterlimit="10" d="M843.4,341.8
		c0,0,0.8-0.8,1.5-0.3"/>
	<path id="XMLID_197_" fill="none" stroke="#FFFCEC" stroke-width="0.3858" stroke-miterlimit="10" d="M847.9,342.3c0,0,0-0.8,1.1,0
		"/>
	<path id="XMLID_195_" fill="none" stroke="#FFFCEC" stroke-width="0.3858" stroke-miterlimit="10" d="M844.9,343.6
		c0,0,1-0.8,1.3-0.2"/>
	<path id="XMLID_177_" fill="#A9CBB7" d="M648.3,311.7c0.3-0.1,0.5-0.1,0.8-0.1c0.5,0,1-0.1,1.6-0.1c0.8-0.1,1.6-0.1,2.4-0.1
		c1.6,0.1,3.3,0.5,4.5,1.6c1.2,1.1,1.9,2.9,1.3,4.4c-0.2,0.7-0.7,1.2-1.1,1.8c-0.6,0.9-1,1.8-1.6,2.7c-1.8,2.7-5,4.5-8.3,4.6
		c-1.7,0-3.5-0.4-4.6-1.7c-0.7-0.8-1-1.7-1.4-2.7c-0.7-2-1.2-4.4,0-6.2c0.4-0.7,1.1-1.2,1.7-1.7c0.7-0.6,1.4-1.2,2.2-1.6
		c0.4-0.2,0.8-0.4,1.3-0.6c0.2-0.1,0.4-0.1,0.5-0.1C647.8,311.9,648.1,311.8,648.3,311.7z"/>
	<path id="XMLID_176_" fill="#A9CBB7" stroke="#FFFCE6" stroke-width="0.7716" stroke-miterlimit="10" d="M660.8,315.7
		c0.1,0,0.1,0,0.2,0c0.2,0.1,0.4,0.2,0.6,0.3c0.3,0.1,0.7,0.3,1,0.4c0.6,0.3,1.3,0.6,1.9,1c1.2,0.8,2.2,1.8,2.7,3.1
		c0.4,1.3,0.2,3-0.9,3.9c-0.5,0.4-1.1,0.6-1.6,0.9c-0.8,0.4-1.5,0.9-2.4,1.4c-2.5,1.3-5.7,1.2-8.2-0.1c-1.3-0.7-2.4-1.8-2.7-3.2
		c-0.2-0.9,0-1.8,0.1-2.6c0.4-1.8,1-3.8,2.6-4.7c0.6-0.3,1.3-0.4,2-0.6c0.8-0.1,1.6-0.2,2.4-0.2c0.4,0,0.8,0,1.2,0.1
		c0.2,0,0.4,0.1,0.6,0.1C660.4,315.7,660.6,315.7,660.8,315.7z"/>
	<path id="XMLID_175_" fill="none" stroke="#FFFCEC" stroke-width="0.3858" stroke-miterlimit="10" d="M645,316.4
		c0,0-0.1-0.5,0.7-0.2"/>
	<path id="XMLID_174_" fill="none" stroke="#FFFCEC" stroke-width="0.3858" stroke-miterlimit="10" d="M658.2,315.6"/>
	<path id="XMLID_173_" fill="none" stroke="#FFFCEC" stroke-width="0.3858" stroke-miterlimit="10" d="M649.7,316.4c0,0,0-1.4,0.9-1
		"/>
	<path id="XMLID_172_" fill="none" stroke="#FFFCEC" stroke-width="0.3858" stroke-miterlimit="10" d="M653.5,319.4
		c0,0-0.2-1,0.5-0.8"/>
	<path id="XMLID_171_" fill="none" stroke="#FFFCEC" stroke-width="0.3858" stroke-miterlimit="10" d="M656.4,317.8
		c0,0,0.8-0.8,1.5-0.3"/>
	<path id="XMLID_167_" fill="none" stroke="#FFFCEC" stroke-width="0.3858" stroke-miterlimit="10" d="M660.9,318.3c0,0,0-0.8,1.1,0
		"/>
	<path id="XMLID_159_" fill="none" stroke="#FFFCEC" stroke-width="0.3858" stroke-miterlimit="10" d="M657.9,319.6
		c0,0,1-0.8,1.3-0.2"/>
	<path id="XMLID_260_" fill="none" stroke="#FFFCE6" stroke-width="0.3858" stroke-miterlimit="10" d="M229.3,357.2
		c0,0,0.9-1.2,1.4,0"/>
	<rect id="XMLID_78_" x="27" y="425.8" fill="none" width="29.2" height="12.4"/>
	
		<text id="XMLID_290_" transform="matrix(1 0 0 1 48.7592 436.4857)" fill="#393839" font-family="'SourceSansPro-Regular'" font-size="15px">0</text>
	<rect id="XMLID_293_" x="27" y="384" fill="none" width="29.2" height="12.4"/>
	
		<text id="XMLID_292_" transform="matrix(1 0 0 1 41.3046 394.6748)" fill="#393839" font-family="'SourceSansPro-Regular'" font-size="15px">50</text>
	<rect id="XMLID_295_" x="27" y="342.3" fill="none" width="29.2" height="12.4"/>
	
		<text id="XMLID_294_" transform="matrix(1 0 0 1 33.8495 352.9501)" fill="#393839" font-family="'SourceSansPro-Regular'" font-size="15px">100</text>
	<rect id="XMLID_410_" x="81.4" y="443.4" fill="none" width="101.7" height="23.3"/>
	
		<text id="XMLID_409_" transform="matrix(1 0 0 1 85.8548 454.078)" fill="#393839" font-family="'SourceSansPro-Regular'" font-size="15px">Highest Access</text>
	<rect id="XMLID_412_" x="211.7" y="443.4" fill="none" width="122.5" height="34"/>
	
		<text id="XMLID_411_" transform="matrix(1 0 0 1 228.0708 454.078)" fill="#393839" font-family="'SourceSansPro-Regular'" font-size="15px">Lowest Access</text>
	<rect id="XMLID_414_" x="339" y="443.4" fill="none" width="130.5" height="47"/>
	
		<text id="XMLID_413_" transform="matrix(1 0 0 1 350.7939 454.078)" fill="#393839" font-family="'SourceSansPro-Regular'" font-size="15px">Well-fixed Access</text>
	<rect id="XMLID_416_" x="472.8" y="443.4" fill="none" width="140.9" height="59"/>
	
		<text id="XMLID_415_" transform="matrix(1 0 0 1 495.5521 454.078)" fill="#393839" font-family="'SourceSansPro-Regular'" font-size="15px">Average Access</text>
	<rect id="XMLID_460_" x="626.3" y="443.4" fill="none" width="104.6" height="37.3"/>
	
		<text id="XMLID_417_" transform="matrix(1 0 0 1 634.0597 454.078)" fill="#393839" font-family="'SourceSansPro-Regular'" font-size="15px">Lowish Access</text>
	<rect id="XMLID_462_" x="799.9" y="443.4" fill="none" width="29.2" height="12.4"/>
	
		<text id="XMLID_461_" transform="matrix(1 0 0 1 801.9033 454.078)" fill="#393839" font-family="'SourceSansPro-Regular'" font-size="15px">N.A.</text>
	<rect id="XMLID_334_" x="27" y="300.5" fill="none" width="29.2" height="12.4"/>
	
		<text id="XMLID_296_" transform="matrix(1 0 0 1 33.8495 311.2253)" fill="#393839" font-family="'SourceSansPro-Regular'" font-size="15px">150</text>
	<rect id="XMLID_336_" x="27" y="258.8" fill="none" width="29.2" height="12.4"/>
	
		<text id="XMLID_335_" transform="matrix(1 0 0 1 33.8495 269.5006)" fill="#393839" font-family="'SourceSansPro-Regular'" font-size="15px">200</text>
	<rect id="XMLID_346_" x="27" y="217.1" fill="none" width="29.2" height="12.4"/>
	
		<text id="XMLID_337_" transform="matrix(1 0 0 1 33.8495 227.7759)" fill="#393839" font-family="'SourceSansPro-Regular'" font-size="15px">250</text>
	<rect id="XMLID_358_" x="27" y="175.4" fill="none" width="29.2" height="12.4"/>
	
		<text id="XMLID_357_" transform="matrix(1 0 0 1 33.8495 186.0511)" fill="#393839" font-family="'SourceSansPro-Regular'" font-size="15px">300</text>
	<rect id="XMLID_360_" x="27" y="133.6" fill="none" width="29.2" height="12.4"/>
	
		<text id="XMLID_359_" transform="matrix(1 0 0 1 33.8495 144.3264)" fill="#393839" font-family="'SourceSansPro-Regular'" font-size="15px">350</text>
	<rect id="XMLID_362_" x="27" y="91.9" fill="none" width="29.2" height="12.4"/>
	
		<text id="XMLID_361_" transform="matrix(1 0 0 1 33.8495 102.6016)" fill="#393839" font-family="'SourceSansPro-Regular'" font-size="15px">400</text>
	<rect id="XMLID_457_" x="27" y="50.2" fill="none" width="29.2" height="12.4"/>
	
		<text id="XMLID_367_" transform="matrix(1 0 0 1 33.8495 60.8769)" fill="#393839" font-family="'SourceSansPro-Regular'" font-size="15px">450</text>
	<rect id="XMLID_459_" x="27" y="6.1" fill="none" width="29.2" height="12.4"/>
	
		<text id="XMLID_458_" transform="matrix(1 0 0 1 33.8495 16.828)" fill="#393839" font-family="'SourceSansPro-Regular'" font-size="15px">500</text>
	
		<text id="XMLID_483_" transform="matrix(0 -1 1 0 12.8415 352.582)" fill="#393839" font-family="'SourceSansPro-Regular'" font-size="15px"> Food supply quantity kg/capita/yr</text>
	<g id="XMLID_42_">
		<g id="XMLID_50_">
			<path id="XMLID_52_" fill="#91CFDB" d="M805,341.4c0,0,2,8.8,9.7,4.2C814.7,345.6,812.8,336.8,805,341.4z"/>
			<path id="XMLID_51_" fill="#91CFDB" d="M823.7,341.4c0,0-2,8.8-9.7,4.2C814,345.6,816,336.8,823.7,341.4z"/>
		</g>
		<g id="XMLID_47_">
			<path id="XMLID_49_" fill="#91CFDB" d="M805,349.9c0,0,2,8.8,9.7,4.2C814.7,354.1,812.8,345.3,805,349.9z"/>
			<path id="XMLID_48_" fill="#91CFDB" d="M823.7,349.9c0,0-2,8.8-9.7,4.2C814,354.1,816,345.3,823.7,349.9z"/>
		</g>
		<g id="XMLID_44_">
			<path id="XMLID_46_" fill="#91CFDB" d="M805,358.4c0,0,2,8.8,9.7,4.2C814.7,362.6,812.8,353.8,805,358.4z"/>
			<path id="XMLID_45_" fill="#91CFDB" d="M823.7,358.4c0,0-2,8.8-9.7,4.2C814,362.6,816,353.8,823.7,358.4z"/>
		</g>
		<path id="XMLID_43_" fill="#91CFDB" d="M814.4,330.7c-5.9,4.2-2.5,8.4-0.5,9.9v30.1c0,0.4,0.1,0.7,0.5,0.7c0.4,0,0.5-0.3,0.5-0.7
			v-30.1C820.9,335.1,814.4,330.7,814.4,330.7z"/>
	</g>
	<g id="XMLID_54_">
		<g id="XMLID_62_">
			<path id="XMLID_64_" fill="#A9CBB7" d="M667.5,327.4c0,0,2,8.8,9.7,4.2C677.2,331.6,675.3,322.8,667.5,327.4z"/>
			<path id="XMLID_63_" fill="#A9CBB7" d="M686.2,327.4c0,0-2,8.8-9.7,4.2C676.5,331.6,678.5,322.8,686.2,327.4z"/>
		</g>
		<g id="XMLID_59_">
			<path id="XMLID_61_" fill="#A9CBB7" d="M667.5,335.9c0,0,2,8.8,9.7,4.2C677.2,340.1,675.3,331.3,667.5,335.9z"/>
			<path id="XMLID_60_" fill="#A9CBB7" d="M686.2,335.9c0,0-2,8.8-9.7,4.2C676.5,340.1,678.5,331.3,686.2,335.9z"/>
		</g>
		<g id="XMLID_56_">
			<path id="XMLID_58_" fill="#A9CBB7" d="M667.5,344.4c0,0,2,8.8,9.7,4.2C677.2,348.6,675.3,339.8,667.5,344.4z"/>
			<path id="XMLID_57_" fill="#A9CBB7" d="M686.2,344.4c0,0-2,8.8-9.7,4.2C676.5,348.6,678.5,339.8,686.2,344.4z"/>
		</g>
		<path id="XMLID_55_" fill="#A9CBB7" d="M676.4,316.7c-5.9,4.2-2.5,8.4-0.5,9.9v30.1c0,0.4,0.1,0.7,0.5,0.7c0.4,0,0.5-0.3,0.5-0.7
			v-30.1C682.9,321.1,676.4,316.7,676.4,316.7z"/>
	</g>
	<g id="XMLID_65_">
		<g id="XMLID_73_">
			<path id="XMLID_77_" fill="#FE654F" d="M533.5,346.4c0,0,2,8.8,9.7,4.2C543.2,350.6,541.3,341.8,533.5,346.4z"/>
			<path id="XMLID_74_" fill="#FE654F" d="M552.2,346.4c0,0-2,8.8-9.7,4.2C542.5,350.6,544.5,341.8,552.2,346.4z"/>
		</g>
		<g id="XMLID_70_">
			<path id="XMLID_72_" fill="#FE654F" d="M533.5,354.9c0,0,2,8.8,9.7,4.2C543.2,359.1,541.3,350.3,533.5,354.9z"/>
			<path id="XMLID_71_" fill="#FE654F" d="M552.2,354.9c0,0-2,8.8-9.7,4.2C542.5,359.1,544.5,350.3,552.2,354.9z"/>
		</g>
		<g id="XMLID_67_">
			<path id="XMLID_69_" fill="#FE654F" d="M533.5,363.4c0,0,2,8.8,9.7,4.2C543.2,367.6,541.3,358.8,533.5,363.4z"/>
			<path id="XMLID_68_" fill="#FE654F" d="M552.2,363.4c0,0-2,8.8-9.7,4.2C542.5,367.6,544.5,358.8,552.2,363.4z"/>
		</g>
		<path id="XMLID_66_" fill="#FE654F" d="M542.4,335.7c-5.9,4.2-2.5,8.4-0.5,9.9v30.1c0,0.4,0.1,0.7,0.5,0.7c0.4,0,0.5-0.3,0.5-0.7
			v-30.1C548.9,340.1,542.4,335.7,542.4,335.7z"/>
	</g>
	<g id="XMLID_80_">
		<g id="XMLID_95_">
			<path id="XMLID_97_" fill="#FF934F" d="M395.5,363.4c0,0,2,8.8,9.7,4.2C405.2,367.6,403.3,358.8,395.5,363.4z"/>
			<path id="XMLID_96_" fill="#FF934F" d="M414.2,363.4c0,0-2,8.8-9.7,4.2C404.5,367.6,406.5,358.8,414.2,363.4z"/>
		</g>
		<g id="XMLID_89_">
			<path id="XMLID_94_" fill="#FF934F" d="M395.5,371.9c0,0,2,8.8,9.7,4.2C405.2,376.1,403.3,367.3,395.5,371.9z"/>
			<path id="XMLID_93_" fill="#FF934F" d="M414.2,371.9c0,0-2,8.8-9.7,4.2C404.5,376.1,406.5,367.3,414.2,371.9z"/>
		</g>
		<g id="XMLID_84_">
			<path id="XMLID_87_" fill="#FF934F" d="M395.5,380.4c0,0,2,8.8,9.7,4.2C405.2,384.6,403.3,375.8,395.5,380.4z"/>
			<path id="XMLID_85_" fill="#FF934F" d="M414.2,380.4c0,0-2,8.8-9.7,4.2C404.5,384.6,406.5,375.8,414.2,380.4z"/>
		</g>
		<path id="XMLID_83_" fill="#FF934F" d="M404.4,352.7c-5.9,4.2-2.5,8.4-0.5,9.9v30.1c0,0.4,0.1,0.7,0.5,0.7c0.4,0,0.5-0.3,0.5-0.7
			v-30.1C410.9,357.1,404.4,352.7,404.4,352.7z"/>
	</g>
	<g id="XMLID_98_">
		<g id="XMLID_106_">
			<path id="XMLID_108_" fill="#409282" d="M234.5,365.4c0,0,2,8.8,9.7,4.2C244.2,369.6,242.3,360.8,234.5,365.4z"/>
			<path id="XMLID_107_" fill="#409282" d="M253.2,365.4c0,0-2,8.8-9.7,4.2C243.5,369.6,245.5,360.8,253.2,365.4z"/>
		</g>
		<g id="XMLID_103_">
			<path id="XMLID_105_" fill="#409282" d="M234.5,373.9c0,0,2,8.8,9.7,4.2C244.2,378.1,242.3,369.3,234.5,373.9z"/>
			<path id="XMLID_104_" fill="#409282" d="M253.2,373.9c0,0-2,8.8-9.7,4.2C243.5,378.1,245.5,369.3,253.2,373.9z"/>
		</g>
		<g id="XMLID_100_">
			<path id="XMLID_102_" fill="#409282" d="M234.5,382.4c0,0,2,8.8,9.7,4.2C244.2,386.6,242.3,377.8,234.5,382.4z"/>
			<path id="XMLID_101_" fill="#409282" d="M253.2,382.4c0,0-2,8.8-9.7,4.2C243.5,386.6,245.5,377.8,253.2,382.4z"/>
		</g>
		<path id="XMLID_99_" fill="#409282" d="M243.4,354.7c-5.9,4.2-2.5,8.4-0.5,9.9v30.1c0,0.4,0.1,0.7,0.5,0.7c0.4,0,0.5-0.3,0.5-0.7
			v-30.1C249.9,359.1,243.4,354.7,243.4,354.7z"/>
	</g>
	<g id="XMLID_117_">
		<path id="XMLID_119_" fill="#BF2E5E" d="M146.5,351.4c0,0,2,8.8,9.7,4.2C156.2,355.6,154.3,346.8,146.5,351.4z"/>
		<path id="XMLID_118_" fill="#BF2E5E" d="M165.2,351.4c0,0-2,8.8-9.7,4.2C155.5,355.6,157.5,346.8,165.2,351.4z"/>
	</g>
	<g id="XMLID_114_">
		<path id="XMLID_116_" fill="#BF2E5E" d="M146.5,359.9c0,0,2,8.8,9.7,4.2C156.2,364.1,154.3,355.3,146.5,359.9z"/>
		<path id="XMLID_115_" fill="#BF2E5E" d="M165.2,359.9c0,0-2,8.8-9.7,4.2C155.5,364.1,157.5,355.3,165.2,359.9z"/>
	</g>
	<g id="XMLID_111_">
		<path id="XMLID_113_" fill="#BF2E5E" d="M146.5,368.4c0,0,2,8.8,9.7,4.2C156.2,372.6,154.3,363.8,146.5,368.4z"/>
		<path id="XMLID_112_" fill="#BF2E5E" d="M165.2,368.4c0,0-2,8.8-9.7,4.2C155.5,372.6,157.5,363.8,165.2,368.4z"/>
	</g>
	<path id="XMLID_110_" fill="#BF2E5E" d="M156.4,340.7c-5.9,4.2-2.5,8.4-0.5,9.9v30.1c0,0.4,0.1,0.7,0.5,0.7c0.4,0,0.5-0.3,0.5-0.7
		v-30.1C162.9,345.1,156.4,340.7,156.4,340.7z"/>
	<path id="XMLID_135_" fill="#91CFDB" d="M873,362.6c0-1.6-1-3-2.4-3.6c0.4-0.6,0.7-1.4,0.7-2.2c0-2.1-1.7-3.9-3.9-3.9
		c-0.3,0-0.6,0-0.8,0.1c0-0.1,0-0.1,0-0.2c0-2.1-1.7-3.9-3.9-3.9c-2.1,0-3.9,1.7-3.9,3.9c0,0.1,0,0.3,0,0.4c-0.5-0.2-1-0.3-1.5-0.3
		c-2.1,0-3.9,1.7-3.9,3.9c0,0.8,0.2,1.5,0.7,2.2c-1.4,0.6-2.4,2-2.4,3.6c0,1.5,0.8,2.7,2,3.4c-0.1,0.4-0.2,0.8-0.2,1.3
		c0,2.1,1.7,3.9,3.9,3.9c1,0,1.8-0.3,2.5-0.9l2.1,13.6l1.7-0.3l1.2-13.4c0.7,0.6,1.6,0.9,2.5,0.9c2.1,0,3.9-1.7,3.9-3.9
		c0-0.4-0.1-0.9-0.2-1.3C872.2,365.4,873,364.1,873,362.6z"/>
	<path id="XMLID_133_" fill="#FFFCE6" d="M870.8,361.7c-1-0.4-2-0.3-3,0.2c-2.3,1.2-3.9,4.5-4.8,6.7v-4.2c0,0,0,0,0,0c0,0,0,0,0,0
		c0-0.1,1.5-5.3,4-6.5c0.6-0.3,1.2-0.3,1.9-0.1c0.2,0.1,0.4,0,0.4-0.2c0.1-0.2,0-0.4-0.2-0.4c-0.8-0.3-1.6-0.3-2.4,0.1
		c-1.8,0.9-3,3.4-3.7,5.1v-7.4c0,0,0,0,0-0.1l0,0l0,0c0.1-0.4,0.4-1.6,1-1.9c0.1-0.1,0.3-0.1,0.6,0.1c0.2,0.1,0.4,0,0.5-0.1
		c0.1-0.2,0-0.4-0.1-0.5c-0.5-0.3-1-0.2-1.2-0.1c-0.5,0.2-0.9,0.8-1.1,1.3c-0.2-0.5-0.5-1-1-1.3c-0.3-0.2-0.7-0.1-1,0
		c-0.2,0.1-0.2,0.3-0.2,0.5c0.1,0.2,0.3,0.2,0.5,0.2c0.2-0.1,0.3-0.1,0.4,0c0.4,0.2,0.8,1.1,0.9,1.7v7.3c-0.7-1.7-1.8-3.9-3.4-4.7
		c-0.8-0.4-1.6-0.5-2.4-0.1c-0.2,0.1-0.3,0.3-0.2,0.4c0.1,0.2,0.3,0.3,0.4,0.2c0.6-0.2,1.3-0.2,1.9,0.1c2.2,1.1,3.4,5.5,3.7,6.4v4.3
		c-0.8-2.2-2.3-5.4-4.4-6.5c-1-0.5-2-0.6-3-0.2c-0.2,0.1-0.3,0.3-0.2,0.4c0.1,0.2,0.3,0.3,0.4,0.2c0.8-0.3,1.6-0.3,2.4,0.1
		c3,1.6,4.6,7.8,4.7,8.3v1.7c0,0.2,0.2,0.3,0.3,0.3s0.3-0.2,0.3-0.3v-1.7c0.1-0.5,2-6.7,5.1-8.3c0.8-0.4,1.6-0.5,2.4-0.1
		c0.2,0.1,0.4,0,0.4-0.2C871.1,361.9,871,361.7,870.8,361.7z"/>
	<path id="XMLID_30_" fill="#A9CBB7" d="M734,388.6c0-1.6-1-3-2.4-3.6c0.4-0.6,0.7-1.4,0.7-2.2c0-2.1-1.7-3.9-3.9-3.9
		c-0.3,0-0.6,0-0.8,0.1c0-0.1,0-0.1,0-0.2c0-2.1-1.7-3.9-3.9-3.9c-2.1,0-3.9,1.7-3.9,3.9c0,0.1,0,0.3,0,0.4c-0.5-0.2-1-0.3-1.5-0.3
		c-2.1,0-3.9,1.7-3.9,3.9c0,0.8,0.2,1.5,0.7,2.2c-1.4,0.6-2.4,2-2.4,3.6c0,1.5,0.8,2.7,2,3.4c-0.1,0.4-0.2,0.8-0.2,1.3
		c0,2.1,1.7,3.9,3.9,3.9c1,0,1.8-0.3,2.5-0.9l2.1,13.6l1.7-0.3l1.2-13.4c0.7,0.6,1.6,0.9,2.5,0.9c2.1,0,3.9-1.7,3.9-3.9
		c0-0.4-0.1-0.9-0.2-1.3C733.2,391.4,734,390.1,734,388.6z"/>
	<path id="XMLID_29_" fill="#FFFCE6" d="M731.8,387.7c-1-0.4-2-0.3-3,0.2c-2.3,1.2-3.9,4.5-4.8,6.7v-4.2c0,0,0,0,0,0c0,0,0,0,0,0
		c0-0.1,1.5-5.3,4-6.5c0.6-0.3,1.2-0.3,1.9-0.1c0.2,0.1,0.4,0,0.4-0.2c0.1-0.2,0-0.4-0.2-0.4c-0.8-0.3-1.6-0.3-2.4,0.1
		c-1.8,0.9-3,3.4-3.7,5.1v-7.4c0,0,0,0,0-0.1l0,0l0,0c0.1-0.4,0.4-1.6,1-1.9c0.1-0.1,0.3-0.1,0.6,0.1c0.2,0.1,0.4,0,0.5-0.1
		c0.1-0.2,0-0.4-0.1-0.5c-0.5-0.3-1-0.2-1.2-0.1c-0.5,0.2-0.9,0.8-1.1,1.3c-0.2-0.5-0.5-1-1-1.3c-0.3-0.2-0.7-0.1-1,0
		c-0.2,0.1-0.2,0.3-0.2,0.5c0.1,0.2,0.3,0.2,0.5,0.2c0.2-0.1,0.3-0.1,0.4,0c0.4,0.2,0.8,1.1,0.9,1.7v7.3c-0.7-1.7-1.8-3.9-3.4-4.7
		c-0.8-0.4-1.6-0.5-2.4-0.1c-0.2,0.1-0.3,0.3-0.2,0.4c0.1,0.2,0.3,0.3,0.4,0.2c0.6-0.2,1.3-0.2,1.9,0.1c2.2,1.1,3.4,5.5,3.7,6.4v4.3
		c-0.8-2.2-2.3-5.4-4.4-6.5c-1-0.5-2-0.6-3-0.2c-0.2,0.1-0.3,0.3-0.2,0.4c0.1,0.2,0.3,0.3,0.4,0.2c0.8-0.3,1.6-0.3,2.4,0.1
		c3,1.6,4.6,7.8,4.7,8.3v1.7c0,0.2,0.2,0.3,0.3,0.3c0.2,0,0.3-0.2,0.3-0.3v-1.7c0.1-0.5,2-6.7,5.1-8.3c0.8-0.4,1.6-0.5,2.4-0.1
		c0.2,0.1,0.4,0,0.4-0.2C732.1,387.9,732,387.7,731.8,387.7z"/>
	<path id="XMLID_39_" fill="#FE654F" d="M575,370.6c0-1.6-1-3-2.4-3.6c0.4-0.6,0.7-1.4,0.7-2.2c0-2.1-1.7-3.9-3.9-3.9
		c-0.3,0-0.6,0-0.8,0.1c0-0.1,0-0.1,0-0.2c0-2.1-1.7-3.9-3.9-3.9c-2.1,0-3.9,1.7-3.9,3.9c0,0.1,0,0.3,0,0.4c-0.5-0.2-1-0.3-1.5-0.3
		c-2.1,0-3.9,1.7-3.9,3.9c0,0.8,0.2,1.5,0.7,2.2c-1.4,0.6-2.4,2-2.4,3.6c0,1.5,0.8,2.7,2,3.4c-0.1,0.4-0.2,0.8-0.2,1.3
		c0,2.1,1.7,3.9,3.9,3.9c1,0,1.8-0.3,2.5-0.9l2.1,13.6l1.7-0.3l1.2-13.4c0.7,0.6,1.6,0.9,2.5,0.9c2.1,0,3.9-1.7,3.9-3.9
		c0-0.4-0.1-0.9-0.2-1.3C574.2,373.4,575,372.1,575,370.6z"/>
	<path id="XMLID_38_" fill="#FFFCE6" d="M572.8,369.7c-1-0.4-2-0.3-3,0.2c-2.3,1.2-3.9,4.5-4.8,6.7v-4.2c0,0,0,0,0,0c0,0,0,0,0,0
		c0-0.1,1.5-5.3,4-6.5c0.6-0.3,1.2-0.3,1.9-0.1c0.2,0.1,0.4,0,0.4-0.2c0.1-0.2,0-0.4-0.2-0.4c-0.8-0.3-1.6-0.3-2.4,0.1
		c-1.8,0.9-3,3.4-3.7,5.1v-7.4c0,0,0,0,0-0.1l0,0l0,0c0.1-0.4,0.4-1.6,1-1.9c0.1-0.1,0.3-0.1,0.6,0.1c0.2,0.1,0.4,0,0.5-0.1
		c0.1-0.2,0-0.4-0.1-0.5c-0.5-0.3-1-0.2-1.2-0.1c-0.5,0.2-0.9,0.8-1.1,1.3c-0.2-0.5-0.5-1-1-1.3c-0.3-0.2-0.7-0.1-1,0
		c-0.2,0.1-0.2,0.3-0.2,0.5c0.1,0.2,0.3,0.2,0.5,0.2c0.2-0.1,0.3-0.1,0.4,0c0.4,0.2,0.8,1.1,0.9,1.7v7.3c-0.7-1.7-1.8-3.9-3.4-4.7
		c-0.8-0.4-1.6-0.5-2.4-0.1c-0.2,0.1-0.3,0.3-0.2,0.4c0.1,0.2,0.3,0.3,0.4,0.2c0.6-0.2,1.3-0.2,1.9,0.1c2.2,1.1,3.4,5.5,3.7,6.4v4.3
		c-0.8-2.2-2.3-5.4-4.4-6.5c-1-0.5-2-0.6-3-0.2c-0.2,0.1-0.3,0.3-0.2,0.4c0.1,0.2,0.3,0.3,0.4,0.2c0.8-0.3,1.6-0.3,2.4,0.1
		c3,1.6,4.6,7.8,4.7,8.3v1.7c0,0.2,0.2,0.3,0.3,0.3c0.2,0,0.3-0.2,0.3-0.3v-1.7c0.1-0.5,2-6.7,5.1-8.3c0.8-0.4,1.6-0.5,2.4-0.1
		c0.2,0.1,0.4,0,0.4-0.2C573.1,369.9,573,369.7,572.8,369.7z"/>
	<path id="XMLID_28_" fill="#FF934F" d="M462,386.6c0-1.6-1-3-2.4-3.6c0.4-0.6,0.7-1.4,0.7-2.2c0-2.1-1.7-3.9-3.9-3.9
		c-0.3,0-0.6,0-0.8,0.1c0-0.1,0-0.1,0-0.2c0-2.1-1.7-3.9-3.9-3.9c-2.1,0-3.9,1.7-3.9,3.9c0,0.1,0,0.3,0,0.4c-0.5-0.2-1-0.3-1.5-0.3
		c-2.1,0-3.9,1.7-3.9,3.9c0,0.8,0.2,1.5,0.7,2.2c-1.4,0.6-2.4,2-2.4,3.6c0,1.5,0.8,2.7,2,3.4c-0.1,0.4-0.2,0.8-0.2,1.3
		c0,2.1,1.7,3.9,3.9,3.9c1,0,1.8-0.3,2.5-0.9l2.1,13.6l1.7-0.3l1.2-13.4c0.7,0.6,1.6,0.9,2.5,0.9c2.1,0,3.9-1.7,3.9-3.9
		c0-0.4-0.1-0.9-0.2-1.3C461.2,389.4,462,388.1,462,386.6z"/>
	<path id="XMLID_27_" fill="#FFFCE6" d="M459.8,385.7c-1-0.4-2-0.3-3,0.2c-2.3,1.2-3.9,4.5-4.8,6.7v-4.2c0,0,0,0,0,0c0,0,0,0,0,0
		c0-0.1,1.5-5.3,4-6.5c0.6-0.3,1.2-0.3,1.9-0.1c0.2,0.1,0.4,0,0.4-0.2c0.1-0.2,0-0.4-0.2-0.4c-0.8-0.3-1.6-0.3-2.4,0.1
		c-1.8,0.9-3,3.4-3.7,5.1v-7.4c0,0,0,0,0-0.1l0,0l0,0c0.1-0.4,0.4-1.6,1-1.9c0.1-0.1,0.3-0.1,0.6,0.1c0.2,0.1,0.4,0,0.5-0.1
		c0.1-0.2,0-0.4-0.1-0.5c-0.5-0.3-1-0.2-1.2-0.1c-0.5,0.2-0.9,0.8-1.1,1.3c-0.2-0.5-0.5-1-1-1.3c-0.3-0.2-0.7-0.1-1,0
		c-0.2,0.1-0.2,0.3-0.2,0.5c0.1,0.2,0.3,0.2,0.5,0.2c0.2-0.1,0.3-0.1,0.4,0c0.4,0.2,0.8,1.1,0.9,1.7v7.3c-0.7-1.7-1.8-3.9-3.4-4.7
		c-0.8-0.4-1.6-0.5-2.4-0.1c-0.2,0.1-0.3,0.3-0.2,0.4c0.1,0.2,0.3,0.3,0.4,0.2c0.6-0.2,1.3-0.2,1.9,0.1c2.2,1.1,3.4,5.5,3.7,6.4v4.3
		c-0.8-2.2-2.3-5.4-4.4-6.5c-1-0.5-2-0.6-3-0.2c-0.2,0.1-0.3,0.3-0.2,0.4c0.1,0.2,0.3,0.3,0.4,0.2c0.8-0.3,1.6-0.3,2.4,0.1
		c3,1.6,4.6,7.8,4.7,8.3v1.7c0,0.2,0.2,0.3,0.3,0.3c0.2,0,0.3-0.2,0.3-0.3v-1.7c0.1-0.5,2-6.7,5.1-8.3c0.8-0.4,1.6-0.5,2.4-0.1
		c0.2,0.1,0.4,0,0.4-0.2C460.1,385.9,460,385.7,459.8,385.7z"/>
	<path id="XMLID_34_" fill="#BF2E5E" d="M142,348.6c0-1.6-1-3-2.4-3.6c0.4-0.6,0.7-1.4,0.7-2.2c0-2.1-1.7-3.9-3.9-3.9
		c-0.3,0-0.6,0-0.8,0.1c0-0.1,0-0.1,0-0.2c0-2.1-1.7-3.9-3.9-3.9s-3.9,1.7-3.9,3.9c0,0.1,0,0.3,0,0.4c-0.5-0.2-1-0.3-1.5-0.3
		c-2.1,0-3.9,1.7-3.9,3.9c0,0.8,0.2,1.5,0.7,2.2c-1.4,0.6-2.4,2-2.4,3.6c0,1.5,0.8,2.7,2,3.4c-0.1,0.4-0.2,0.8-0.2,1.3
		c0,2.1,1.7,3.9,3.9,3.9c1,0,1.8-0.3,2.5-0.9l2.1,13.6l1.7-0.3l1.2-13.4c0.7,0.6,1.6,0.9,2.5,0.9c2.1,0,3.9-1.7,3.9-3.9
		c0-0.4-0.1-0.9-0.2-1.3C141.2,351.4,142,350.1,142,348.6z"/>
	<path id="XMLID_31_" fill="#FFFCE6" d="M139.8,347.7c-1-0.4-2-0.3-3,0.2c-2.3,1.2-3.9,4.5-4.8,6.7v-4.2c0,0,0,0,0,0c0,0,0,0,0,0
		c0-0.1,1.5-5.3,4-6.5c0.6-0.3,1.2-0.3,1.9-0.1c0.2,0.1,0.4,0,0.4-0.2c0.1-0.2,0-0.4-0.2-0.4c-0.8-0.3-1.6-0.3-2.4,0.1
		c-1.8,0.9-3,3.4-3.7,5.1v-7.4c0,0,0,0,0-0.1l0,0l0,0c0.1-0.4,0.4-1.6,1-1.9c0.1-0.1,0.3-0.1,0.6,0.1c0.2,0.1,0.4,0,0.5-0.1
		c0.1-0.2,0-0.4-0.1-0.5c-0.5-0.3-1-0.2-1.2-0.1c-0.5,0.2-0.9,0.8-1.1,1.3c-0.2-0.5-0.5-1-1-1.3c-0.3-0.2-0.7-0.1-1,0
		c-0.2,0.1-0.2,0.3-0.2,0.5c0.1,0.2,0.3,0.2,0.5,0.2c0.2-0.1,0.3-0.1,0.4,0c0.4,0.2,0.8,1.1,0.9,1.7v7.3c-0.7-1.7-1.8-3.9-3.4-4.7
		c-0.8-0.4-1.6-0.5-2.4-0.1c-0.2,0.1-0.3,0.3-0.2,0.4c0.1,0.2,0.3,0.3,0.4,0.2c0.6-0.2,1.3-0.2,1.9,0.1c2.2,1.1,3.4,5.5,3.7,6.4v4.3
		c-0.8-2.2-2.3-5.4-4.4-6.5c-1-0.5-2-0.6-3-0.2c-0.2,0.1-0.3,0.3-0.2,0.4c0.1,0.2,0.3,0.3,0.4,0.2c0.8-0.3,1.6-0.3,2.4,0.1
		c3,1.6,4.6,7.8,4.7,8.3v1.7c0,0.2,0.2,0.3,0.3,0.3s0.3-0.2,0.3-0.3v-1.7c0.1-0.5,2-6.7,5.1-8.3c0.8-0.4,1.6-0.5,2.4-0.1
		c0.2,0.1,0.4,0,0.4-0.2C140.1,347.9,140,347.7,139.8,347.7z"/>
</g>
</svg>
