<?xml version="1.0" encoding="utf-8"?>
<!-- Generator: Adobe Illustrator 19.0.0, SVG Export Plug-In . SVG Version: 6.00 Build 0)  -->
<svg version="1.1" id="Livello_1" xmlns="http://www.w3.org/2000/svg" xmlns:xlink="http://www.w3.org/1999/xlink" x="0px" y="0px"
	 viewBox="0 0 188.8 333.9" enable-background="new 0 0 188.8 333.9" xml:space="preserve">
<g id="XMLID_291_">
	<g id="XMLID_41_">
		<path id="XMLID_43_" fill="#393839" d="M7.3,32c0.4,1.2,1.3,2.5,3.3,2.5h8c2.6,0,3.4-2.3,3.5-3.6V13.7c0-2.6-0.9-4.2-1.1-4.5
			c-0.4-0.8-1.4-2.9-1.9-3.8c-0.3-0.6-0.4-1.5-0.4-2.1C19.5,3.2,20,2.5,20,1.7C20,0.8,19.3,0,18.3,0h-7.5C9.9,0,9.2,0.8,9.2,1.7
			c0,0.8,0.6,1.5,1.3,1.7c0,0.6-0.1,1.5-0.4,2.1c-0.5,0.9-1.5,3-1.9,3.8C8,9.5,7.1,11.2,7.1,13.7v6.8L7.3,32z"/>
		<line id="XMLID_42_" fill="#393839" x1="9.8" y1="2.5" x2="19.8" y2="2.5"/>
	</g>
</g>
<g id="XMLID_203_">
	<path id="XMLID_204_" fill="#393839" d="M40.2,8.6h1.5l1.9,5.3l0.7,2h0.1l0.7-2l1.9-5.3h1.5v9.8h-1.2V13c0-0.9,0.1-2,0.2-2.9h-0.1
		l-0.8,2.2l-1.9,5.1h-0.7L42,12.3l-0.8-2.2h-0.1c0.1,0.9,0.2,2,0.2,2.9v5.4h-1.2V8.6z"/>
	<path id="XMLID_206_" fill="#393839" d="M50.7,8.9c0-0.5,0.4-0.8,0.9-0.8c0.5,0,0.9,0.3,0.9,0.8c0,0.5-0.4,0.8-0.9,0.8
		C51.1,9.7,50.7,9.3,50.7,8.9z M50.9,11.2h1.2v7.3h-1.2V11.2z"/>
	<path id="XMLID_209_" fill="#393839" d="M54.6,7.8h1.2v9.3c0,0.4,0.2,0.5,0.3,0.5c0.1,0,0.1,0,0.3,0l0.2,0.9
		c-0.2,0.1-0.4,0.1-0.7,0.1c-0.9,0-1.3-0.6-1.3-1.6V7.8z"/>
	<path id="XMLID_211_" fill="#393839" d="M58.5,7.8h1.2V15h0l3.1-3.8h1.4l-2.4,2.9l2.8,4.4h-1.4L61,14.9l-1.4,1.6v1.9h-1.2V7.8z"/>
	<path id="XMLID_213_" fill="#393839" d="M68.3,14.2h3.4v0.9h-3.4V14.2z"/>
	<path id="XMLID_215_" fill="#393839" d="M76.7,8.6h5.7v1.1h-4.4v3.1h3.7v1.1h-3.7v3.6h4.6v1.1h-5.8V8.6z"/>
	<path id="XMLID_217_" fill="#393839" d="M85.8,14.6l-2.2-3.5h1.3l1,1.6c0.2,0.4,0.5,0.8,0.7,1.2h0.1c0.2-0.4,0.4-0.8,0.7-1.2
		l0.9-1.6h1.3l-2.2,3.6l2.4,3.7h-1.3l-1.1-1.7c-0.3-0.4-0.5-0.9-0.8-1.3h-0.1c-0.3,0.4-0.5,0.9-0.7,1.3l-1,1.7h-1.3L85.8,14.6z"/>
	<path id="XMLID_219_" fill="#393839" d="M94,11c1,0,1.6,0.4,2.1,0.9l-0.6,0.8C95,12.3,94.6,12,94,12c-1.3,0-2.3,1.1-2.3,2.8
		c0,1.7,0.9,2.8,2.2,2.8c0.7,0,1.3-0.3,1.7-0.7l0.6,0.8c-0.7,0.6-1.5,0.9-2.4,0.9c-1.9,0-3.4-1.4-3.4-3.8C90.4,12.4,92.1,11,94,11z"
		/>
	<path id="XMLID_221_" fill="#393839" d="M97.8,7.8h1.2v9.3c0,0.4,0.2,0.5,0.3,0.5c0.1,0,0.1,0,0.3,0l0.2,0.9
		c-0.2,0.1-0.4,0.1-0.7,0.1c-0.9,0-1.3-0.6-1.3-1.6V7.8z"/>
	<path id="XMLID_223_" fill="#393839" d="M101.6,11.2h1.2v4.5c0,1.4,0.4,2,1.4,2c0.8,0,1.3-0.4,2-1.2v-5.2h1.2v7.3h-1l-0.1-1.1h0
		c-0.7,0.8-1.4,1.3-2.4,1.3c-1.5,0-2.2-1-2.2-2.9V11.2z"/>
	<path id="XMLID_225_" fill="#393839" d="M112.5,11c0.8,0,1.4,0.3,2,0.8l-0.1-1.2V7.8h1.2v10.7h-1l-0.1-0.9h0c-0.6,0.6-1.3,1-2.2,1
		c-1.8,0-3-1.4-3-3.8C109.4,12.5,110.9,11,112.5,11z M112.6,17.6c0.7,0,1.3-0.3,1.9-1v-3.8c-0.6-0.6-1.2-0.8-1.8-0.8
		c-1.2,0-2.1,1.1-2.1,2.8C110.6,16.6,111.4,17.6,112.6,17.6z"/>
	<path id="XMLID_228_" fill="#393839" d="M118,8.9c0-0.5,0.4-0.8,0.9-0.8c0.5,0,0.9,0.3,0.9,0.8c0,0.5-0.4,0.8-0.9,0.8
		C118.4,9.7,118,9.3,118,8.9z M118.2,11.2h1.2v7.3h-1.2V11.2z"/>
	<path id="XMLID_231_" fill="#393839" d="M121.9,11.2h1l0.1,1h0c0.7-0.7,1.4-1.2,2.4-1.2c1.5,0,2.2,1,2.2,2.9v4.6h-1.2V14
		c0-1.4-0.4-2-1.4-2c-0.8,0-1.3,0.4-2,1.1v5.3h-1.2V11.2z"/>
	<path id="XMLID_233_" fill="#393839" d="M130.6,18.2L130.6,18.2c-0.4-0.3-0.6-0.7-0.6-1.2c0-0.6,0.4-1.1,0.8-1.4v-0.1
		c-0.5-0.4-0.9-1.1-0.9-2c0-1.6,1.3-2.6,2.7-2.6c0.4,0,0.8,0.1,1,0.2h2.5v0.9h-1.5c0.3,0.3,0.6,0.9,0.6,1.5c0,1.6-1.2,2.5-2.7,2.5
		c-0.4,0-0.8-0.1-1.1-0.3c-0.3,0.2-0.5,0.5-0.5,0.9c0,0.5,0.3,0.8,1.3,0.8h1.4c1.7,0,2.5,0.5,2.5,1.7c0,1.4-1.4,2.5-3.7,2.5
		c-1.8,0-3-0.7-3-2C129.6,19.2,130,18.7,130.6,18.2z M132.7,21c1.4,0,2.3-0.7,2.3-1.5c0-0.7-0.5-0.9-1.5-0.9h-1.3
		c-0.3,0-0.6,0-0.9-0.1c-0.5,0.4-0.8,0.8-0.8,1.2C130.6,20.5,131.4,21,132.7,21z M134.1,13.6c0-1.1-0.7-1.7-1.5-1.7
		c-0.9,0-1.5,0.6-1.5,1.7s0.7,1.7,1.5,1.7C133.4,15.3,134.1,14.6,134.1,13.6z"/>
	<path id="XMLID_237_" fill="#393839" d="M140.8,8.6h2.9c2,0,3.4,0.7,3.4,2.4c0,1-0.6,1.8-1.7,2.1v0.1c1.4,0.2,2.3,1,2.3,2.4
		c0,1.9-1.5,2.9-3.7,2.9h-3.2V8.6z M143.5,12.8c1.7,0,2.4-0.6,2.4-1.7c0-1.1-0.8-1.5-2.3-1.5H142v3.2H143.5z M143.7,17.5
		c1.7,0,2.7-0.6,2.7-2c0-1.2-0.9-1.8-2.7-1.8H142v3.7H143.7z"/>
	<path id="XMLID_241_" fill="#393839" d="M149.4,11.2h1.2v4.5c0,1.4,0.4,2,1.4,2c0.8,0,1.3-0.4,2-1.2v-5.2h1.2v7.3h-1l-0.1-1.1h0
		c-0.7,0.8-1.4,1.3-2.4,1.3c-1.5,0-2.2-1-2.2-2.9V11.2z"/>
	<path id="XMLID_243_" fill="#393839" d="M157.9,12.2h-1.1v-0.9l1.1-0.1l0.2-2h1v2h2v1h-2v4c0,0.9,0.3,1.4,1.1,1.4
		c0.3,0,0.6-0.1,0.8-0.2l0.2,0.9c-0.4,0.1-0.9,0.3-1.4,0.3c-1.6,0-2.1-1-2.1-2.4V12.2z"/>
	<path id="XMLID_245_" fill="#393839" d="M163,12.2h-1.1v-0.9l1.1-0.1l0.2-2h1v2h2v1h-2v4c0,0.9,0.3,1.4,1.1,1.4
		c0.3,0,0.6-0.1,0.8-0.2l0.2,0.9c-0.4,0.1-0.9,0.3-1.4,0.3c-1.6,0-2.1-1-2.1-2.4V12.2z"/>
	<path id="XMLID_247_" fill="#393839" d="M170.4,11c1.9,0,2.9,1.3,2.9,3.4c0,0.3,0,0.5,0,0.7h-4.9c0.1,1.6,1,2.6,2.4,2.6
		c0.7,0,1.3-0.2,1.8-0.6l0.4,0.8c-0.6,0.4-1.4,0.8-2.4,0.8c-1.9,0-3.5-1.4-3.5-3.8S168.7,11,170.4,11z M172.2,14.3
		c0-1.5-0.7-2.3-1.8-2.3c-1,0-2,0.8-2.1,2.3H172.2z"/>
	<path id="XMLID_250_" fill="#393839" d="M175.2,11.2h1l0.1,1.3h0c0.5-0.9,1.2-1.5,2.1-1.5c0.3,0,0.5,0,0.8,0.1l-0.2,1.1
		c-0.2-0.1-0.4-0.1-0.7-0.1c-0.6,0-1.3,0.5-1.8,1.7v4.7h-1.2V11.2z"/>
</g>
<g id="XMLID_370_">
	<path id="XMLID_373_" fill="#393839" d="M19.4,58.4c3.9-0.7,6.5,4.7,6.6,8.2c0.2,4.5-1.8,9.7-6.1,11.7c-0.5,0.2-0.9,0.4-1.4,0.5
		c-2.1,0.6-3.3-2.4-5.5-1.1c-0.4,0.3-1.4,1-1.9,1.1c-2.1,0.7-5-2.5-6-4c-1.4-2-2.2-4.4-2.2-6.8c0-4.8,1.8-10.2,7.7-8.9
		c1.6,0.3,3.5,1.7,5.1,1.1c0.7-0.3,1.2-0.7,1.9-1.1C18.2,58.8,18.8,58.5,19.4,58.4z"/>
	<path id="XMLID_372_" fill="#393839" d="M14.5,61.3c-0.1-0.2-1.9-5.2-1.3-9.3L14,52c-0.6,3.9,1.3,8.9,1.3,9L14.5,61.3z"/>
	<path id="XMLID_371_" fill="#393839" d="M14.6,60.2c0,0,5.2-0.2,5.3-6.3C19.8,53.8,14.1,51.3,14.6,60.2z"/>
</g>
<g id="XMLID_155_">
	<path id="XMLID_156_" fill="#393839" d="M40.2,59.2h5.7v1h-4.4v3.3h3.8v1.1h-3.8v4.4h-1.3V59.2z"/>
	<path id="XMLID_158_" fill="#393839" d="M47.2,61.8h1l0.1,1.3h0c0.5-0.9,1.2-1.5,2.1-1.5c0.3,0,0.5,0,0.8,0.1l-0.2,1.1
		c-0.2-0.1-0.4-0.1-0.7-0.1c-0.6,0-1.3,0.5-1.8,1.7v4.7h-1.2V61.8z"/>
	<path id="XMLID_160_" fill="#393839" d="M52.3,61.8h1.2v4.5c0,1.4,0.4,2,1.4,2c0.8,0,1.3-0.4,2-1.2v-5.2h1.2v7.3h-1L57,67.9h0
		c-0.7,0.8-1.4,1.3-2.4,1.3c-1.5,0-2.2-1-2.2-2.9V61.8z"/>
	<path id="XMLID_162_" fill="#393839" d="M60.4,59.5c0-0.5,0.4-0.8,0.9-0.8c0.5,0,0.9,0.3,0.9,0.8c0,0.5-0.4,0.8-0.9,0.8
		C60.7,60.3,60.4,60,60.4,59.5z M60.6,61.8h1.2v7.3h-1.2V61.8z"/>
	<path id="XMLID_165_" fill="#393839" d="M64.5,62.8h-1.1v-0.9l1.1-0.1l0.2-2h1v2h2v1h-2v4c0,0.9,0.3,1.4,1.1,1.4
		c0.3,0,0.6-0.1,0.8-0.2l0.2,0.9c-0.4,0.1-0.9,0.3-1.4,0.3c-1.6,0-2.1-1-2.1-2.4V62.8z"/>
	<path id="XMLID_167_" fill="#393839" d="M69.2,67.4c0.6,0.5,1.3,0.9,2.1,0.9c1,0,1.4-0.5,1.4-1.1c0-0.8-0.9-1.1-1.7-1.4
		c-1-0.4-2.2-0.9-2.2-2.1c0-1.2,0.9-2.1,2.5-2.1c0.9,0,1.7,0.4,2.3,0.8l-0.6,0.8c-0.5-0.4-1-0.6-1.7-0.6c-0.9,0-1.3,0.5-1.3,1
		c0,0.7,0.8,0.9,1.6,1.3c1,0.4,2.2,0.8,2.2,2.2c0,1.2-0.9,2.2-2.7,2.2c-1,0-2-0.4-2.7-1L69.2,67.4z"/>
	<path id="XMLID_169_" fill="#393839" d="M78.1,64.9h3.4v0.9h-3.4V64.9z"/>
	<path id="XMLID_171_" fill="#393839" d="M86.4,59.2h5.7v1h-4.4v3.1h3.7v1.1h-3.7V68h4.6v1.1h-5.8V59.2z"/>
	<path id="XMLID_173_" fill="#393839" d="M95.6,65.3l-2.2-3.5h1.3l1,1.6c0.2,0.4,0.5,0.8,0.7,1.2h0.1c0.2-0.4,0.4-0.8,0.7-1.2
		l0.9-1.6h1.3l-2.2,3.6l2.4,3.7h-1.3L97,67.4c-0.3-0.4-0.5-0.9-0.8-1.3h-0.1c-0.3,0.4-0.5,0.9-0.7,1.3l-1,1.7h-1.3L95.6,65.3z"/>
	<path id="XMLID_175_" fill="#393839" d="M103.7,61.6c1,0,1.6,0.4,2.1,0.9l-0.6,0.8c-0.4-0.4-0.9-0.6-1.5-0.6
		c-1.3,0-2.3,1.1-2.3,2.8c0,1.7,0.9,2.8,2.2,2.8c0.7,0,1.3-0.3,1.7-0.7l0.6,0.8c-0.7,0.6-1.5,0.9-2.4,0.9c-1.9,0-3.4-1.4-3.4-3.8
		C100.2,63,101.8,61.6,103.7,61.6z"/>
	<path id="XMLID_177_" fill="#393839" d="M107.6,58.4h1.2v9.3c0,0.4,0.2,0.5,0.3,0.5c0.1,0,0.1,0,0.3,0l0.2,0.9
		c-0.2,0.1-0.4,0.1-0.7,0.1c-0.9,0-1.3-0.6-1.3-1.6V58.4z"/>
	<path id="XMLID_179_" fill="#393839" d="M111.4,61.8h1.2v4.5c0,1.4,0.4,2,1.4,2c0.8,0,1.3-0.4,2-1.2v-5.2h1.2v7.3h-1l-0.1-1.1h0
		c-0.7,0.8-1.4,1.3-2.4,1.3c-1.5,0-2.2-1-2.2-2.9V61.8z"/>
	<path id="XMLID_181_" fill="#393839" d="M122.3,61.6c0.8,0,1.4,0.3,2,0.8l-0.1-1.2v-2.8h1.2v10.7h-1l-0.1-0.9h0
		c-0.6,0.6-1.3,1-2.2,1c-1.8,0-3-1.4-3-3.8C119.1,63.1,120.6,61.6,122.3,61.6z M122.4,68.2c0.7,0,1.3-0.3,1.9-1v-3.8
		c-0.6-0.6-1.2-0.8-1.8-0.8c-1.2,0-2.1,1.1-2.1,2.8C120.4,67.2,121.1,68.2,122.4,68.2z"/>
	<path id="XMLID_184_" fill="#393839" d="M127.7,59.5c0-0.5,0.4-0.8,0.9-0.8c0.5,0,0.9,0.3,0.9,0.8c0,0.5-0.4,0.8-0.9,0.8
		C128.1,60.3,127.7,60,127.7,59.5z M128,61.8h1.2v7.3H128V61.8z"/>
	<path id="XMLID_187_" fill="#393839" d="M131.6,61.8h1l0.1,1h0c0.7-0.7,1.4-1.2,2.4-1.2c1.5,0,2.2,1,2.2,2.9v4.6h-1.2v-4.5
		c0-1.4-0.4-2-1.4-2c-0.8,0-1.3,0.4-2,1.1v5.3h-1.2V61.8z"/>
	<path id="XMLID_189_" fill="#393839" d="M140.4,68.8L140.4,68.8c-0.4-0.3-0.6-0.7-0.6-1.2c0-0.6,0.4-1.1,0.8-1.4v-0.1
		c-0.5-0.4-0.9-1.1-0.9-2c0-1.6,1.3-2.6,2.7-2.6c0.4,0,0.8,0.1,1,0.2h2.5v0.9h-1.5c0.3,0.3,0.6,0.9,0.6,1.5c0,1.6-1.2,2.5-2.7,2.5
		c-0.4,0-0.8-0.1-1.1-0.3c-0.3,0.2-0.5,0.5-0.5,0.9c0,0.5,0.3,0.8,1.3,0.8h1.4c1.7,0,2.5,0.5,2.5,1.7c0,1.4-1.4,2.5-3.7,2.5
		c-1.8,0-3-0.7-3-2C139.3,69.9,139.7,69.3,140.4,68.8z M142.5,71.6c1.4,0,2.3-0.7,2.3-1.5c0-0.7-0.5-0.9-1.5-0.9h-1.3
		c-0.3,0-0.6,0-0.9-0.1c-0.5,0.4-0.8,0.8-0.8,1.2C140.4,71.1,141.2,71.6,142.5,71.6z M143.9,64.2c0-1.1-0.7-1.7-1.5-1.7
		c-0.9,0-1.5,0.6-1.5,1.7s0.7,1.7,1.5,1.7C143.2,65.9,143.9,65.3,143.9,64.2z"/>
	<path id="XMLID_193_" fill="#393839" d="M149.5,59.2h1.3l1,5.4c0.2,1.1,0.4,2.1,0.6,3.2h0.1c0.2-1.1,0.5-2.1,0.7-3.2l1.4-5.4h1.1
		l1.4,5.4c0.2,1,0.5,2.1,0.7,3.2h0.1c0.2-1.1,0.4-2.1,0.6-3.2l1-5.4h1.2l-2,9.8h-1.5l-1.5-5.9c-0.2-0.8-0.3-1.5-0.5-2.2H155
		c-0.2,0.8-0.3,1.5-0.5,2.2l-1.5,5.9h-1.5L149.5,59.2z"/>
	<path id="XMLID_195_" fill="#393839" d="M161.9,59.5c0-0.5,0.4-0.8,0.9-0.8c0.5,0,0.9,0.3,0.9,0.8c0,0.5-0.4,0.8-0.9,0.8
		C162.3,60.3,161.9,60,161.9,59.5z M162.2,61.8h1.2v7.3h-1.2V61.8z"/>
	<path id="XMLID_198_" fill="#393839" d="M165.8,61.8h1l0.1,1h0c0.7-0.7,1.4-1.2,2.4-1.2c1.5,0,2.2,1,2.2,2.9v4.6h-1.2v-4.5
		c0-1.4-0.4-2-1.4-2c-0.8,0-1.3,0.4-2,1.1v5.3h-1.2V61.8z"/>
	<path id="XMLID_200_" fill="#393839" d="M176.8,61.6c1.9,0,2.9,1.3,2.9,3.4c0,0.3,0,0.5,0,0.7h-4.9c0.1,1.6,1,2.6,2.4,2.6
		c0.7,0,1.3-0.2,1.8-0.6l0.4,0.8c-0.6,0.4-1.4,0.8-2.4,0.8c-1.9,0-3.5-1.4-3.5-3.8S175.1,61.6,176.8,61.6z M178.6,64.9
		c0-1.5-0.7-2.3-1.8-2.3c-1,0-2,0.8-2.1,2.3H178.6z"/>
</g>
<path id="XMLID_397_" fill="#393839" d="M22.2,224.5c-2.8,1.5-5.9,2.4-9,2.8c-1.6,0.2-3.2,0.2-4.8,0.1c-1.4-0.1-3.2-0.1-4.5-0.9
	c-0.7-0.4-1.3-1.1-1.7-1.9c-0.7-1.4-0.6-3.2,0.2-4.5c0.4-0.6,1-1.2,1.7-1.5c1.1-0.5,2-0.6,2.9-1.5c0.9-0.8,1.7-1.7,2.3-2.8
	c0.6-1,0.8-2.3,1.6-3.3c0.8-1.1,2-2,3.2-2.7c4.4-2.3,9.8-0.5,12.1,3.9c1.2,2.3,1.3,5.1,0.3,7.5C25.6,222,24.1,223.5,22.2,224.5z"/>
<circle id="XMLID_396_" fill="#FFFCE6" cx="22.8" cy="217" r="1.6"/>
<line id="XMLID_395_" fill="none" stroke="#FFFCE6" stroke-width="0.4139" stroke-linecap="round" stroke-linejoin="round" stroke-miterlimit="10" x1="13.5" y1="222.6" x2="7.6" y2="220.3"/>
<line id="XMLID_394_" fill="none" stroke="#FFFCE6" stroke-width="0.4139" stroke-linecap="round" stroke-linejoin="round" stroke-miterlimit="10" x1="17.1" y1="217.7" x2="11.2" y2="215.3"/>
<line id="XMLID_393_" fill="none" stroke="#FFFCE6" stroke-width="0.4139" stroke-linecap="round" stroke-linejoin="round" stroke-miterlimit="10" x1="17.4" y1="220.9" x2="11.2" y2="218.5"/>
<g id="XMLID_144_">
	<path id="XMLID_145_" fill="#393839" d="M40,212.2h1.3l1.7,4.6l0.6,1.7h0.1l0.6-1.7l1.6-4.6h1.3v8.5h-1v-4.7c0-0.8,0.1-1.8,0.1-2.5
		h-0.1l-0.7,1.9l-1.6,4.5h-0.6l-1.6-4.5l-0.7-1.9h-0.1c0.1,0.8,0.1,1.8,0.1,2.5v4.7h-1V212.2z"/>
	<path id="XMLID_147_" fill="#393839" d="M51.7,214.3c1.6,0,2.5,1.2,2.5,3c0,0.2,0,0.4,0,0.6h-4.3c0.1,1.4,0.9,2.2,2.1,2.2
		c0.6,0,1.1-0.2,1.6-0.5l0.4,0.7c-0.5,0.4-1.2,0.6-2.1,0.6c-1.7,0-3-1.2-3-3.3C48.9,215.5,50.3,214.3,51.7,214.3z M53.3,217.1
		c0-1.3-0.6-2-1.6-2c-0.9,0-1.7,0.7-1.8,2H53.3z"/>
	<path id="XMLID_150_" fill="#393839" d="M59.2,216.7c0-0.8-0.3-1.6-1.3-1.6c-0.7,0-1.4,0.3-1.9,0.7l-0.4-0.7
		c0.6-0.4,1.5-0.8,2.5-0.8c1.5,0,2.2,1,2.2,2.6v3.9h-0.9l-0.1-0.8h0c-0.6,0.5-1.3,0.9-2.1,0.9c-1.1,0-1.9-0.7-1.9-1.8
		C55.3,217.7,56.5,217,59.2,216.7z M57.5,220c0.6,0,1.1-0.3,1.7-0.8v-1.8c-2.1,0.3-2.8,0.8-2.8,1.6C56.4,219.7,56.9,220,57.5,220z"
		/>
	<path id="XMLID_153_" fill="#393839" d="M62.5,215.3h-0.9v-0.8l1-0.1l0.1-1.8h0.9v1.8h1.7v0.9h-1.7v3.5c0,0.8,0.2,1.2,1,1.2
		c0.2,0,0.5-0.1,0.7-0.2l0.2,0.8c-0.4,0.1-0.8,0.2-1.2,0.2c-1.4,0-1.8-0.9-1.8-2.1V215.3z"/>
</g>
<g id="XMLID_75_">
	
		<ellipse id="XMLID_407_" transform="matrix(0.234 0.9722 -0.9722 0.234 323.3178 240.9052)" fill="#393839" cx="8.8" cy="325.6" rx="8.5" ry="2.6"/>
	
		<ellipse id="XMLID_406_" transform="matrix(-2.724334e-02 0.9996 -0.9996 -2.724334e-02 329.3139 308.9482)" fill="#393839" cx="14.3" cy="314.7" rx="8.5" ry="2.6"/>
	
		<ellipse id="XMLID_405_" transform="matrix(-0.4196 0.9077 -0.9077 -0.4196 322.8195 445.2088)" fill="#393839" cx="19.1" cy="325.8" rx="8.5" ry="2.6"/>
</g>
<g id="XMLID_132_">
	<path id="XMLID_133_" fill="#393839" d="M45.6,323.6l-2.4-4.2h-1.8v4.2h-1.3v-9.8h3.1c2,0,3.4,0.7,3.4,2.8c0,1.5-0.9,2.4-2.2,2.8
		l2.5,4.3H45.6z M41.5,318.4h1.7c1.5,0,2.4-0.6,2.4-1.9c0-1.3-0.8-1.8-2.4-1.8h-1.7V318.4z"/>
	<path id="XMLID_136_" fill="#393839" d="M48.5,314c0-0.5,0.4-0.8,0.9-0.8c0.5,0,0.9,0.3,0.9,0.8c0,0.5-0.4,0.8-0.9,0.8
		C48.9,314.8,48.5,314.5,48.5,314z M48.8,316.3H50v7.3h-1.2V316.3z"/>
	<path id="XMLID_139_" fill="#393839" d="M55.4,316.1c1,0,1.6,0.4,2.1,0.9l-0.6,0.8c-0.4-0.4-0.9-0.6-1.5-0.6
		c-1.3,0-2.3,1.1-2.3,2.8c0,1.7,0.9,2.8,2.2,2.8c0.7,0,1.3-0.3,1.7-0.7l0.6,0.8c-0.7,0.6-1.5,0.9-2.4,0.9c-1.9,0-3.4-1.4-3.4-3.8
		C51.9,317.5,53.5,316.1,55.4,316.1z"/>
	<path id="XMLID_141_" fill="#393839" d="M61.7,316.1c1.9,0,2.9,1.3,2.9,3.4c0,0.3,0,0.5,0,0.7h-4.9c0.1,1.6,1,2.6,2.4,2.6
		c0.7,0,1.3-0.2,1.8-0.6l0.4,0.8c-0.6,0.4-1.4,0.8-2.4,0.8c-2,0-3.5-1.4-3.5-3.8S60.1,316.1,61.7,316.1z M63.5,319.4
		c0-1.5-0.7-2.3-1.8-2.3c-1,0-2,0.8-2.1,2.3H63.5z"/>
</g>
<path id="XMLID_404_" fill="#393839" d="M8.5,260.4c0.3-0.1,0.5-0.1,0.8-0.1c0.5,0,1-0.1,1.6-0.1c0.8-0.1,1.6-0.1,2.4-0.1
	c1.6,0.1,3.3,0.5,4.5,1.6c1.2,1.1,1.9,2.9,1.3,4.4c-0.2,0.7-0.7,1.2-1.1,1.8c-0.6,0.9-1,1.8-1.6,2.7c-1.8,2.7-5,4.5-8.3,4.6
	c-1.7,0-3.5-0.4-4.6-1.7c-0.7-0.8-1-1.7-1.4-2.7c-0.7-2-1.2-4.4,0-6.2c0.4-0.7,1.1-1.2,1.7-1.7c0.7-0.6,1.4-1.2,2.2-1.6
	c0.4-0.2,0.8-0.4,1.3-0.6c0.2-0.1,0.4-0.1,0.5-0.1C8,260.5,8.2,260.5,8.5,260.4z"/>
<path id="XMLID_403_" fill="#393839" stroke="#FFFCE6" stroke-width="0.7716" stroke-miterlimit="10" d="M20.9,264.4
	c0.1,0,0.1,0,0.2,0c0.2,0.1,0.4,0.2,0.6,0.3c0.3,0.1,0.7,0.3,1,0.4c0.6,0.3,1.3,0.6,1.9,1c1.2,0.8,2.2,1.8,2.7,3.1s0.2,3-0.9,3.9
	c-0.5,0.4-1.1,0.6-1.6,0.9c-0.8,0.4-1.5,0.9-2.4,1.4c-2.5,1.3-5.7,1.2-8.2-0.1c-1.3-0.7-2.4-1.8-2.7-3.2c-0.2-0.9,0-1.8,0.1-2.6
	c0.4-1.8,1-3.8,2.6-4.7c0.6-0.3,1.3-0.4,2-0.6c0.8-0.1,1.6-0.2,2.4-0.2c0.4,0,0.8,0,1.2,0.1c0.2,0,0.4,0.1,0.6,0.1
	C20.6,264.4,20.8,264.4,20.9,264.4z"/>
<path id="XMLID_402_" fill="none" stroke="#FFFCE6" stroke-width="0.3858" stroke-miterlimit="10" d="M5.2,265c0,0-0.1-0.5,0.7-0.2"
	/>
<path id="XMLID_401_" fill="none" stroke="#FFFCE6" stroke-width="0.3858" stroke-miterlimit="10" d="M9.9,265.1c0,0,0-1.4,0.9-1"/>
<path id="XMLID_400_" fill="none" stroke="#FFFCE6" stroke-width="0.3858" stroke-miterlimit="10" d="M13,262.1c0,0,0.8-0.7,1.5,0"
	/>
<path id="XMLID_399_" fill="none" stroke="#FFFCE6" stroke-width="0.3858" stroke-miterlimit="10" d="M13.7,268c0,0-0.2-1,0.5-0.8"
	/>
<path id="XMLID_398_" fill="none" stroke="#FFFCE6" stroke-width="0.3858" stroke-miterlimit="10" d="M16.6,266.5
	c0,0,0.8-0.8,1.5-0.3"/>
<g id="XMLID_103_">
	<path id="XMLID_104_" fill="#393839" d="M40.2,269.7c0.7,0.7,1.7,1.2,2.7,1.2c1.3,0,2.1-0.6,2.1-1.6c0-1-0.7-1.3-1.7-1.7l-1.4-0.6
		c-0.9-0.4-2-1.1-2-2.5c0-1.5,1.3-2.6,3.1-2.6c1.2,0,2.2,0.5,2.9,1.2l-0.7,0.8c-0.6-0.6-1.3-0.9-2.2-0.9c-1.1,0-1.8,0.6-1.8,1.4
		c0,0.9,0.9,1.3,1.6,1.6l1.4,0.6c1.1,0.5,2,1.2,2,2.6c0,1.6-1.3,2.8-3.4,2.8c-1.4,0-2.6-0.6-3.4-1.5L40.2,269.7z"/>
	<path id="XMLID_106_" fill="#393839" d="M48.3,265.5h-1.1v-0.9l1.1-0.1l0.1-2h1v2h2v1h-2v4c0,0.9,0.3,1.4,1.1,1.4
		c0.3,0,0.6-0.1,0.8-0.2l0.2,0.9c-0.4,0.1-0.9,0.3-1.4,0.3c-1.6,0-2.1-1-2.1-2.4V265.5z"/>
	<path id="XMLID_108_" fill="#393839" d="M57,267.2c0-0.9-0.3-1.8-1.5-1.8c-0.9,0-1.6,0.4-2.2,0.8l-0.5-0.9c0.7-0.4,1.7-0.9,2.9-0.9
		c1.8,0,2.5,1.2,2.5,3v4.5h-1l-0.1-0.9h0c-0.7,0.6-1.5,1-2.4,1c-1.2,0-2.1-0.8-2.1-2.1C52.5,268.3,53.9,267.5,57,267.2z M55,271
		c0.7,0,1.3-0.3,2-1v-2c-2.4,0.3-3.3,0.9-3.3,1.8C53.7,270.6,54.3,271,55,271z"/>
	<path id="XMLID_111_" fill="#393839" d="M60.5,264.5h1l0.1,1.3h0c0.5-0.9,1.2-1.5,2.1-1.5c0.3,0,0.5,0,0.8,0.1l-0.2,1.1
		c-0.2-0.1-0.4-0.1-0.7-0.1c-0.6,0-1.3,0.5-1.8,1.7v4.7h-1.2V264.5z"/>
	<path id="XMLID_113_" fill="#393839" d="M68.6,264.3c1,0,1.6,0.4,2.1,0.9l-0.6,0.8c-0.4-0.4-0.9-0.6-1.5-0.6
		c-1.3,0-2.3,1.1-2.3,2.8c0,1.7,0.9,2.8,2.2,2.8c0.7,0,1.3-0.3,1.7-0.7l0.6,0.8c-0.7,0.6-1.5,0.9-2.4,0.9c-1.9,0-3.4-1.4-3.4-3.8
		C65,265.7,66.7,264.3,68.6,264.3z"/>
	<path id="XMLID_115_" fill="#393839" d="M72.4,261.1h1.2v2.9l0,1.5c0.7-0.7,1.4-1.2,2.4-1.2c1.5,0,2.2,1,2.2,2.8v4.6H77v-4.5
		c0-1.4-0.4-2-1.4-2c-0.8,0-1.3,0.4-2,1.1v5.3h-1.2V261.1z"/>
	<path id="XMLID_117_" fill="#393839" d="M80.6,273.9c0.8,0,1.3-0.7,1.7-1.6l0.2-0.5l-2.9-7.3h1.3l1.5,4c0.2,0.6,0.5,1.4,0.7,2.1
		h0.1c0.2-0.7,0.4-1.4,0.6-2.1l1.3-4h1.2l-2.7,7.9c-0.5,1.4-1.3,2.5-2.7,2.5c-0.3,0-0.6-0.1-0.9-0.2l0.2-1
		C80.2,273.9,80.5,273.9,80.6,273.9z"/>
	<path id="XMLID_119_" fill="#393839" d="M96.1,271.8l-2.4-4.2H92v4.2h-1.3V262h3.1c2,0,3.4,0.7,3.4,2.8c0,1.5-0.9,2.4-2.2,2.8
		l2.5,4.3H96.1z M92,266.6h1.7c1.5,0,2.4-0.6,2.4-1.9c0-1.3-0.8-1.8-2.4-1.8H92V266.6z"/>
	<path id="XMLID_122_" fill="#393839" d="M101.9,264.3c1.8,0,3.4,1.4,3.4,3.8c0,2.4-1.6,3.8-3.4,3.8c-1.8,0-3.4-1.4-3.4-3.8
		C98.6,265.7,100.2,264.3,101.9,264.3z M101.9,271c1.3,0,2.1-1.1,2.1-2.8c0-1.7-0.8-2.8-2.1-2.8c-1.2,0-2.1,1.1-2.1,2.8
		C99.8,269.8,100.7,271,101.9,271z"/>
	<path id="XMLID_125_" fill="#393839" d="M110.1,264.3c1.8,0,3.4,1.4,3.4,3.8c0,2.4-1.6,3.8-3.4,3.8c-1.8,0-3.4-1.4-3.4-3.8
		C106.7,265.7,108.3,264.3,110.1,264.3z M110.1,271c1.3,0,2.1-1.1,2.1-2.8c0-1.7-0.8-2.8-2.1-2.8c-1.2,0-2.1,1.1-2.1,2.8
		C108,269.8,108.8,271,110.1,271z"/>
	<path id="XMLID_128_" fill="#393839" d="M115.6,265.5h-1.1v-0.9l1.1-0.1l0.2-2h1v2h2v1h-2v4c0,0.9,0.3,1.4,1.1,1.4
		c0.3,0,0.6-0.1,0.8-0.2l0.2,0.9c-0.4,0.1-0.9,0.3-1.3,0.3c-1.6,0-2.1-1-2.1-2.4V265.5z"/>
	<path id="XMLID_130_" fill="#393839" d="M120.2,270.1c0.6,0.5,1.3,0.9,2.1,0.9c1,0,1.4-0.5,1.4-1.1c0-0.8-0.9-1.1-1.7-1.4
		c-1-0.4-2.2-0.9-2.2-2.1c0-1.2,0.9-2.1,2.5-2.1c0.9,0,1.7,0.4,2.3,0.8l-0.6,0.8c-0.5-0.4-1-0.6-1.7-0.6c-0.9,0-1.3,0.5-1.3,1
		c0,0.7,0.8,0.9,1.6,1.3c1,0.4,2.2,0.8,2.2,2.2c0,1.2-0.9,2.2-2.7,2.2c-1,0-2-0.4-2.7-1L120.2,270.1z"/>
</g>
<g id="XMLID_46_">
	<path id="XMLID_47_" fill="#393839" d="M44,160.9c1.2,0,2.1,0.6,2.7,1.2l-0.7,0.8c-0.5-0.6-1.2-0.9-2-0.9c-1.9,0-3.1,1.5-3.1,4
		c0,2.5,1.2,4,3.1,4c0.9,0,1.6-0.4,2.2-1.1l0.7,0.8c-0.8,0.9-1.7,1.4-3,1.4c-2.5,0-4.3-1.9-4.3-5.1C39.6,162.8,41.5,160.9,44,160.9z
		"/>
	<path id="XMLID_49_" fill="#393839" d="M51.3,163.5c1.9,0,2.9,1.3,2.9,3.4c0,0.3,0,0.5,0,0.7h-4.9c0.1,1.6,1,2.6,2.4,2.6
		c0.7,0,1.3-0.2,1.8-0.6l0.4,0.8c-0.6,0.4-1.4,0.8-2.4,0.8c-1.9,0-3.5-1.4-3.5-3.8S49.7,163.5,51.3,163.5z M53.2,166.7
		c0-1.5-0.7-2.3-1.8-2.3c-1,0-2,0.8-2.1,2.3H53.2z"/>
	<path id="XMLID_52_" fill="#393839" d="M56.1,163.6h1l0.1,1.3h0c0.5-0.9,1.2-1.5,2.1-1.5c0.3,0,0.5,0,0.8,0.1l-0.2,1.1
		c-0.2-0.1-0.4-0.1-0.7-0.1c-0.6,0-1.3,0.5-1.8,1.7v4.7h-1.2V163.6z"/>
	<path id="XMLID_54_" fill="#393839" d="M63.9,163.5c1.9,0,2.9,1.3,2.9,3.4c0,0.3,0,0.5,0,0.7h-4.9c0.1,1.6,1,2.6,2.4,2.6
		c0.7,0,1.3-0.2,1.8-0.6l0.4,0.8c-0.6,0.4-1.4,0.8-2.4,0.8c-1.9,0-3.5-1.4-3.5-3.8S62.2,163.5,63.9,163.5z M65.7,166.7
		c0-1.5-0.7-2.3-1.8-2.3c-1,0-2,0.8-2.1,2.3H65.7z"/>
	<path id="XMLID_57_" fill="#393839" d="M72.6,166.3c0-0.9-0.3-1.8-1.5-1.8c-0.9,0-1.6,0.4-2.2,0.8l-0.5-0.9
		c0.7-0.4,1.7-0.9,2.9-0.9c1.8,0,2.5,1.2,2.5,3v4.5h-1l-0.1-0.9h0c-0.7,0.6-1.5,1.1-2.4,1.1c-1.2,0-2.1-0.8-2.1-2.1
		C68.1,167.5,69.4,166.7,72.6,166.3z M70.6,170.1c0.7,0,1.3-0.3,2-1v-2c-2.4,0.3-3.3,0.9-3.3,1.8C69.3,169.8,69.8,170.1,70.6,170.1z
		"/>
	<path id="XMLID_60_" fill="#393839" d="M76.1,160.3h1.2v9.3c0,0.4,0.2,0.5,0.3,0.5c0.1,0,0.1,0,0.3,0l0.2,0.9
		c-0.2,0.1-0.4,0.1-0.7,0.1c-0.9,0-1.3-0.6-1.3-1.6V160.3z"/>
	<path id="XMLID_63_" fill="#393839" d="M79.7,169.3c0.6,0.5,1.3,0.9,2.1,0.9c1,0,1.4-0.5,1.4-1.1c0-0.8-0.9-1.1-1.7-1.4
		c-1-0.4-2.2-0.9-2.2-2.1c0-1.2,0.9-2.1,2.5-2.1c0.9,0,1.7,0.4,2.3,0.8l-0.6,0.8c-0.5-0.4-1-0.6-1.7-0.6c-0.9,0-1.3,0.5-1.3,1
		c0,0.7,0.8,0.9,1.6,1.3c1,0.4,2.2,0.8,2.2,2.2c0,1.2-0.9,2.2-2.7,2.2c-1,0-2-0.4-2.7-1L79.7,169.3z"/>
	<path id="XMLID_65_" fill="#393839" d="M88.6,166.7h3.4v0.9h-3.4V166.7z"/>
	<path id="XMLID_67_" fill="#393839" d="M97,161.1h5.7v1h-4.4v3.1h3.7v1.1h-3.7v3.6h4.6v1.1H97V161.1z"/>
	<path id="XMLID_69_" fill="#393839" d="M106.1,167.1l-2.2-3.5h1.3l1,1.6c0.2,0.4,0.5,0.8,0.7,1.2h0.1c0.2-0.4,0.4-0.8,0.7-1.2
		l0.9-1.6h1.3l-2.2,3.6l2.4,3.7h-1.3l-1.1-1.7c-0.3-0.4-0.5-0.9-0.8-1.3h-0.1c-0.3,0.4-0.5,0.9-0.7,1.3l-1,1.7h-1.3L106.1,167.1z"/>
	<path id="XMLID_71_" fill="#393839" d="M114.3,163.5c1,0,1.6,0.4,2.1,0.9l-0.6,0.8c-0.4-0.4-0.9-0.6-1.5-0.6
		c-1.3,0-2.3,1.1-2.3,2.8c0,1.7,0.9,2.8,2.2,2.8c0.7,0,1.3-0.3,1.7-0.7l0.6,0.8c-0.7,0.6-1.5,0.9-2.4,0.9c-1.9,0-3.4-1.4-3.4-3.8
		C110.8,164.9,112.4,163.5,114.3,163.5z"/>
	<path id="XMLID_73_" fill="#393839" d="M118.2,160.3h1.2v9.3c0,0.4,0.2,0.5,0.3,0.5c0.1,0,0.1,0,0.3,0l0.2,0.9
		c-0.2,0.1-0.4,0.1-0.7,0.1c-0.9,0-1.3-0.6-1.3-1.6V160.3z"/>
	<path id="XMLID_76_" fill="#393839" d="M121.9,163.6h1.2v4.5c0,1.4,0.4,2,1.4,2c0.8,0,1.3-0.4,2-1.2v-5.2h1.2v7.3h-1l-0.1-1.1h0
		c-0.7,0.8-1.4,1.3-2.4,1.3c-1.5,0-2.2-1-2.2-2.9V163.6z"/>
	<path id="XMLID_78_" fill="#393839" d="M132.9,163.5c0.8,0,1.4,0.3,2,0.8l-0.1-1.2v-2.8h1.2v10.7h-1l-0.1-0.9h0
		c-0.6,0.6-1.3,1-2.2,1c-1.8,0-3-1.4-3-3.8C129.7,164.9,131.2,163.5,132.9,163.5z M133,170.1c0.7,0,1.3-0.3,1.9-1v-3.8
		c-0.6-0.6-1.2-0.8-1.8-0.8c-1.2,0-2.1,1.1-2.1,2.8C131,169,131.7,170.1,133,170.1z"/>
	<path id="XMLID_81_" fill="#393839" d="M138.3,161.3c0-0.5,0.4-0.8,0.9-0.8c0.5,0,0.9,0.3,0.9,0.8c0,0.5-0.4,0.8-0.9,0.8
		C138.7,162.1,138.3,161.8,138.3,161.3z M138.5,163.6h1.2v7.3h-1.2V163.6z"/>
	<path id="XMLID_84_" fill="#393839" d="M142.2,163.6h1l0.1,1h0c0.7-0.7,1.4-1.2,2.4-1.2c1.5,0,2.2,1,2.2,2.9v4.6h-1.2v-4.5
		c0-1.4-0.4-2-1.4-2c-0.8,0-1.3,0.4-2,1.1v5.3h-1.2V163.6z"/>
	<path id="XMLID_86_" fill="#393839" d="M150.9,170.7L150.9,170.7c-0.4-0.3-0.6-0.7-0.6-1.2c0-0.6,0.4-1.1,0.8-1.4V168
		c-0.5-0.4-0.9-1.1-0.9-2c0-1.6,1.3-2.6,2.7-2.6c0.4,0,0.8,0.1,1,0.2h2.5v0.9H155c0.3,0.3,0.6,0.9,0.6,1.5c0,1.6-1.2,2.5-2.7,2.5
		c-0.4,0-0.8-0.1-1.1-0.3c-0.3,0.2-0.5,0.5-0.5,0.9c0,0.5,0.3,0.8,1.3,0.8h1.4c1.7,0,2.5,0.5,2.5,1.7c0,1.4-1.4,2.5-3.7,2.5
		c-1.8,0-3-0.7-3-2C149.9,171.7,150.3,171.1,150.9,170.7z M153.1,173.4c1.4,0,2.3-0.7,2.3-1.5c0-0.7-0.5-0.9-1.5-0.9h-1.3
		c-0.3,0-0.6,0-0.9-0.1c-0.5,0.4-0.8,0.8-0.8,1.2C151,172.9,151.8,173.4,153.1,173.4z M154.4,166.1c0-1.1-0.7-1.7-1.5-1.7
		c-0.9,0-1.5,0.6-1.5,1.7s0.7,1.7,1.5,1.7C153.7,167.8,154.4,167.1,154.4,166.1z"/>
	<path id="XMLID_90_" fill="#393839" d="M161.1,161.1h2.9c2,0,3.4,0.7,3.4,2.4c0,1-0.6,1.8-1.7,2.1v0.1c1.4,0.2,2.3,1,2.3,2.4
		c0,1.9-1.5,2.9-3.7,2.9h-3.2V161.1z M163.8,165.3c1.7,0,2.4-0.6,2.4-1.7c0-1.1-0.8-1.5-2.3-1.5h-1.5v3.2H163.8z M164.1,169.9
		c1.7,0,2.7-0.6,2.7-2c0-1.2-0.9-1.8-2.7-1.8h-1.7v3.7H164.1z"/>
	<path id="XMLID_95_" fill="#393839" d="M172.5,163.5c1.9,0,2.9,1.3,2.9,3.4c0,0.3,0,0.5,0,0.7h-4.9c0.1,1.6,1,2.6,2.4,2.6
		c0.7,0,1.3-0.2,1.8-0.6l0.4,0.8c-0.6,0.4-1.4,0.8-2.4,0.8c-1.9,0-3.5-1.4-3.5-3.8S170.8,163.5,172.5,163.5z M174.3,166.7
		c0-1.5-0.7-2.3-1.8-2.3c-1,0-2,0.8-2.1,2.3H174.3z"/>
	<path id="XMLID_98_" fill="#393839" d="M180,163.5c1.9,0,2.9,1.3,2.9,3.4c0,0.3,0,0.5,0,0.7h-4.9c0.1,1.6,1,2.6,2.4,2.6
		c0.7,0,1.3-0.2,1.8-0.6l0.4,0.8c-0.6,0.4-1.4,0.8-2.4,0.8c-1.9,0-3.5-1.4-3.5-3.8S178.3,163.5,180,163.5z M181.8,166.7
		c0-1.5-0.7-2.3-1.8-2.3c-1,0-2,0.8-2.1,2.3H181.8z"/>
	<path id="XMLID_101_" fill="#393839" d="M184.7,163.6h1l0.1,1.3h0c0.5-0.9,1.2-1.5,2.1-1.5c0.3,0,0.5,0,0.8,0.1l-0.2,1.1
		c-0.2-0.1-0.4-0.1-0.7-0.1c-0.6,0-1.3,0.5-1.8,1.7v4.7h-1.2V163.6z"/>
</g>
<g id="XMLID_11_">
	<g id="XMLID_18_">
		<path id="XMLID_20_" fill="#393839" d="M4.2,158.6c0,0,2,8.8,9.7,4.2C13.8,162.7,11.9,154,4.2,158.6z"/>
		<path id="XMLID_19_" fill="#393839" d="M23.8,158.6c0,0-2,8.8-9.7,4.2C14.2,162.7,16.1,154,23.8,158.6z"/>
	</g>
	<g id="XMLID_15_">
		<path id="XMLID_17_" fill="#393839" d="M4.2,167.1c0,0,2,8.8,9.7,4.2C13.8,171.2,11.9,162.5,4.2,167.1z"/>
		<path id="XMLID_16_" fill="#393839" d="M23.8,167.1c0,0-2,8.8-9.7,4.2C14.2,171.2,16.1,162.5,23.8,167.1z"/>
	</g>
	<g id="XMLID_12_">
		<path id="XMLID_14_" fill="#393839" d="M4.2,175.6c0,0,2,8.8,9.7,4.2C13.8,179.7,11.9,171,4.2,175.6z"/>
		<path id="XMLID_13_" fill="#393839" d="M23.8,175.6c0,0-2,8.8-9.7,4.2C14.2,179.7,16.1,171,23.8,175.6z"/>
	</g>
	<path id="XMLID_5_" fill="#393839" d="M14.3,147.8c-5.9,4.2-2.5,8.4-0.5,9.9v30.1c0,0.4,0.1,0.7,0.5,0.7c0.4,0,0.5-0.3,0.5-0.7
		v-30.1C20.8,152.3,14.3,147.8,14.3,147.8z"/>
</g>
<g id="XMLID_1_">
	<path id="XMLID_2_" fill="#393839" d="M38.9,110.4h1.3l1.6,5.3c0.3,1.2,0.6,2.1,0.9,3.3h0.1c0.4-1.2,0.6-2.1,0.9-3.3l1.6-5.3h1.3
		l-3.1,9.8H42L38.9,110.4z"/>
	<path id="XMLID_4_" fill="#393839" d="M49.9,112.7c1.9,0,2.9,1.3,2.9,3.4c0,0.3,0,0.5,0,0.7h-4.9c0.1,1.6,1,2.6,2.4,2.6
		c0.7,0,1.3-0.2,1.8-0.6l0.4,0.8c-0.6,0.4-1.4,0.8-2.4,0.8c-1.9,0-3.5-1.4-3.5-3.8S48.2,112.7,49.9,112.7z M51.7,116
		c0-1.5-0.7-2.3-1.8-2.3c-1,0-2,0.8-2.1,2.3H51.7z"/>
	<path id="XMLID_10_" fill="#393839" d="M55,119.9L55,119.9c-0.4-0.3-0.6-0.7-0.6-1.2c0-0.6,0.4-1.1,0.8-1.4v-0.1
		c-0.5-0.4-0.9-1.1-0.9-2c0-1.6,1.3-2.6,2.7-2.6c0.4,0,0.8,0.1,1,0.2h2.5v0.9H59c0.3,0.3,0.6,0.9,0.6,1.5c0,1.6-1.2,2.5-2.7,2.5
		c-0.4,0-0.8-0.1-1.1-0.3c-0.3,0.2-0.5,0.5-0.5,0.9c0,0.5,0.3,0.8,1.3,0.8h1.4c1.7,0,2.5,0.5,2.5,1.7c0,1.4-1.4,2.5-3.7,2.5
		c-1.8,0-3-0.7-3-2C53.9,121,54.3,120.4,55,119.9z M57.1,122.7c1.4,0,2.3-0.7,2.3-1.5c0-0.7-0.5-0.9-1.5-0.9h-1.3
		c-0.3,0-0.6,0-0.9-0.1c-0.5,0.4-0.8,0.8-0.8,1.2C55,122.2,55.8,122.7,57.1,122.7z M58.5,115.3c0-1.1-0.7-1.7-1.5-1.7
		c-0.9,0-1.5,0.6-1.5,1.7s0.7,1.7,1.5,1.7C57.8,117.1,58.5,116.4,58.5,115.3z"/>
	<path id="XMLID_24_" fill="#393839" d="M64.6,112.7c1.9,0,2.9,1.3,2.9,3.4c0,0.3,0,0.5,0,0.7h-4.9c0.1,1.6,1,2.6,2.4,2.6
		c0.7,0,1.3-0.2,1.8-0.6l0.4,0.8c-0.6,0.4-1.4,0.8-2.4,0.8c-1.9,0-3.5-1.4-3.5-3.8S62.9,112.7,64.6,112.7z M66.4,116
		c0-1.5-0.7-2.3-1.8-2.3c-1,0-2,0.8-2.1,2.3H66.4z"/>
	<path id="XMLID_27_" fill="#393839" d="M69.3,113.9h-1.1V113l1.1-0.1l0.2-2h1v2h2v1h-2v4c0,0.9,0.3,1.4,1.1,1.4
		c0.3,0,0.6-0.1,0.8-0.2l0.2,0.9c-0.4,0.1-0.9,0.3-1.4,0.3c-1.6,0-2.1-1-2.1-2.4V113.9z"/>
	<path id="XMLID_29_" fill="#393839" d="M78,115.6c0-0.9-0.3-1.8-1.5-1.8c-0.9,0-1.6,0.4-2.2,0.8l-0.5-0.9c0.7-0.4,1.7-0.9,2.9-0.9
		c1.8,0,2.5,1.2,2.5,3v4.5h-1l-0.1-0.9h0c-0.7,0.6-1.5,1.1-2.4,1.1c-1.2,0-2.1-0.8-2.1-2.1C73.5,116.7,74.9,115.9,78,115.6z
		 M76,119.4c0.7,0,1.3-0.3,2-1v-2c-2.4,0.3-3.3,0.9-3.3,1.8C74.8,119,75.3,119.4,76,119.4z"/>
	<path id="XMLID_32_" fill="#393839" d="M81.6,109.5h1.2v2.9l0,1.3c0.7-0.6,1.5-1,2.3-1c1.9,0,2.9,1.5,2.9,3.7
		c0,2.5-1.5,3.9-3.1,3.9c-0.7,0-1.4-0.3-2.1-0.9h0l-0.1,0.7h-1V109.5z M84.6,119.3c1.2,0,2.1-1.1,2.1-2.9c0-1.6-0.5-2.7-1.9-2.7
		c-0.6,0-1.3,0.3-2,1v3.8C83.5,119.1,84.1,119.3,84.6,119.3z"/>
	<path id="XMLID_35_" fill="#393839" d="M89.9,109.5h1.2v9.3c0,0.4,0.2,0.5,0.3,0.5c0.1,0,0.1,0,0.3,0l0.2,0.9
		c-0.2,0.1-0.4,0.1-0.7,0.1c-0.9,0-1.3-0.6-1.3-1.6V109.5z"/>
	<path id="XMLID_38_" fill="#393839" d="M96.5,112.7c1.9,0,2.9,1.3,2.9,3.4c0,0.3,0,0.5,0,0.7h-4.9c0.1,1.6,1,2.6,2.4,2.6
		c0.7,0,1.3-0.2,1.8-0.6l0.4,0.8c-0.6,0.4-1.4,0.8-2.4,0.8c-1.9,0-3.5-1.4-3.5-3.8S94.8,112.7,96.5,112.7z M98.3,116
		c0-1.5-0.7-2.3-1.8-2.3c-1,0-2,0.8-2.1,2.3H98.3z"/>
	<path id="XMLID_44_" fill="#393839" d="M101,118.5c0.6,0.5,1.3,0.9,2.1,0.9c1,0,1.4-0.5,1.4-1.1c0-0.8-0.9-1.1-1.7-1.4
		c-1-0.4-2.2-0.9-2.2-2.1c0-1.2,0.9-2.1,2.5-2.1c0.9,0,1.7,0.4,2.3,0.8l-0.6,0.8c-0.5-0.4-1-0.6-1.7-0.6c-0.9,0-1.3,0.5-1.3,1
		c0,0.7,0.8,0.9,1.6,1.3c1,0.4,2.2,0.8,2.2,2.2c0,1.2-0.9,2.2-2.7,2.2c-1,0-2-0.4-2.7-1L101,118.5z"/>
</g>
<path id="XMLID_7_" fill="#393839" d="M28.6,115.5c0-2.2-1.4-4.1-3.3-4.8c0.6-0.8,0.9-1.8,0.9-2.9c0-2.9-2.3-5.2-5.2-5.2
	c-0.4,0-0.7,0-1.1,0.1c0-0.1,0-0.2,0-0.2c0-2.9-2.3-5.2-5.2-5.2s-5.2,2.3-5.2,5.2c0,0.2,0,0.4,0,0.6c-0.6-0.3-1.3-0.4-2.1-0.4
	c-2.9,0-5.2,2.3-5.2,5.2c0,1.1,0.3,2.1,0.9,2.9c-1.9,0.8-3.3,2.6-3.3,4.8c0,2,1.1,3.7,2.7,4.5c-0.2,0.5-0.3,1.1-0.3,1.7
	c0,2.9,2.3,5.2,5.2,5.2c1.3,0,2.5-0.3,3.4-1.1l1.3,9.7h4.3l1.1-9.7c0.9,0.8,2.1,1.2,3.4,1.2c2.9,0,5.2-2.4,5.2-5.2
	c0-0.6-0.1-1.2-0.3-1.7C27.5,119.1,28.6,117.4,28.6,115.5z"/>
<path id="XMLID_6_" fill="#FFFCE6" d="M24.6,114.3c-1.3-0.5-2.6-0.4-3.8,0.2c-2.9,1.5-5,5.8-6,8.6v-5.4c0,0,0,0,0,0c0,0,0,0,0,0
	c0-0.1,1.9-6.7,5.1-8.3c0.8-0.4,1.6-0.4,2.4-0.1c0.2,0.1,0.5,0,0.6-0.3c0.1-0.2,0-0.5-0.3-0.6c-1.1-0.4-2.1-0.3-3.1,0.2
	c-2.2,1.1-3.8,4.3-4.7,6.5v-9.4c0,0,0-0.1,0-0.1l0,0l0,0c0.1-0.5,0.6-2.1,1.3-2.4c0.1-0.1,0.4-0.1,0.8,0.1c0.2,0.1,0.5,0,0.6-0.2
	c0.1-0.2,0-0.5-0.2-0.6c-0.7-0.4-1.2-0.3-1.6-0.1c-0.6,0.3-1.1,1-1.4,1.7c-0.3-0.6-0.7-1.3-1.3-1.6c-0.4-0.2-0.8-0.2-1.3,0
	c-0.2,0.1-0.3,0.4-0.2,0.6c0.1,0.2,0.4,0.3,0.6,0.2c0.2-0.1,0.4-0.1,0.5,0c0.5,0.3,1,1.4,1.2,2.2v9.2c-0.8-2.2-2.3-5-4.3-6
	c-1-0.5-2-0.6-3.1-0.2c-0.2,0.1-0.3,0.3-0.3,0.6c0.1,0.2,0.3,0.3,0.6,0.3c0.8-0.3,1.6-0.3,2.4,0.1c2.8,1.5,4.4,6.9,4.7,8.1v5.4
	c-1-2.8-2.9-6.9-5.6-8.3c-1.2-0.6-2.5-0.7-3.8-0.2c-0.2,0.1-0.3,0.3-0.3,0.6c0.1,0.2,0.3,0.3,0.6,0.3c1.1-0.4,2.1-0.3,3.1,0.2
	c3.8,2,5.9,10,6,10.5v2.2c0,0.2,0.2,0.4,0.4,0.4s0.4-0.2,0.4-0.4v-2.1c0.2-0.6,2.5-8.5,6.4-10.5c1-0.5,2-0.6,3.1-0.2
	c0.2,0.1,0.5,0,0.6-0.3C25,114.7,24.8,114.4,24.6,114.3z"/>
</svg>
