<?xml version="1.0" encoding="utf-8"?>
<!-- Generator: Adobe Illustrator 19.0.0, SVG Export Plug-In . SVG Version: 6.00 Build 0)  -->
<svg version="1.1" xmlns="http://www.w3.org/2000/svg" xmlns:xlink="http://www.w3.org/1999/xlink" x="0px" y="0px"
	 viewBox="0 0 1306.404 883.402" enable-background="new 0 0 1306.404 883.402" xml:space="preserve">
<g id="Livello_1">
</g>
<g id="Livello_4">
	<path opacity="0.7" fill="#E5DCD6" d="M192.043,877.556H1.457c-0.805,0-1.457-0.653-1.457-1.458v-95.899
		c0-0.805,0.653-1.458,1.457-1.458h190.585c0.805,0,1.457,0.653,1.457,1.458v95.899C193.5,876.903,192.847,877.556,192.043,877.556z
		"/>
	<g>
		<g>
			<line fill="none" stroke="#BCAB9F" stroke-miterlimit="10" x1="1045.131" y1="27.105" x2="1045.131" y2="883.402"/>
			<line fill="none" stroke="#BCAB9F" stroke-miterlimit="10" x1="1217.387" y1="27.002" x2="1217.387" y2="876.883"/>
			<line fill="none" stroke="#BCAB9F" stroke-miterlimit="10" x1="875.21" y1="27.002" x2="875.21" y2="876.883"/>
			<line fill="none" stroke="#BCAB9F" stroke-miterlimit="10" x1="702.649" y1="27.002" x2="702.649" y2="876.883"/>
			<line fill="none" stroke="#BCAB9F" stroke-miterlimit="10" x1="531.576" y1="27.002" x2="531.576" y2="876.883"/>
		</g>
		<g>
			<g>
				<line fill="none" stroke="#BCA695" stroke-miterlimit="10" x1="355.531" y1="730.205" x2="1306.404" y2="730.205"/>
				<g>
					<g>
						<path fill="#272725" d="M307.637,735.097c-0.722,0.722-1.898,1.277-3.191,1.277c-1.193,0-2.369-0.437-3.226-1.277
							c-1.294-1.26-1.495-3.007-1.495-4.906s0.201-3.646,1.495-4.905c0.856-0.84,2.032-1.277,3.226-1.277
							c1.293,0,2.453,0.504,3.175,1.226c0.689,0.706,1.126,1.613,1.176,2.722h-1.545c-0.017-0.655-0.269-1.226-0.655-1.663
							c-0.471-0.521-1.243-0.874-2.15-0.874c-0.807,0-1.596,0.319-2.167,0.907c-0.975,1.008-1.009,2.621-1.009,3.864
							s0.034,2.856,1.009,3.864c0.571,0.588,1.36,0.907,2.167,0.907c0.907,0,1.696-0.387,2.167-0.907
							c0.387-0.437,0.639-1.059,0.655-1.714h1.546C308.763,733.45,308.326,734.391,307.637,735.097z"/>
						<path fill="#272725" d="M320.007,735.097c-0.857,0.84-2.017,1.277-3.209,1.277s-2.352-0.437-3.209-1.277
							c-1.293-1.26-1.528-3.007-1.528-4.906s0.235-3.646,1.528-4.905c0.857-0.84,2.017-1.277,3.209-1.277s2.352,0.437,3.209,1.277
							c1.293,1.26,1.528,3.007,1.528,4.905S321.3,733.837,320.007,735.097z M318.965,726.327c-0.571-0.588-1.36-0.891-2.167-0.891
							s-1.596,0.303-2.167,0.891c-0.975,1.008-1.025,2.621-1.025,3.864s0.051,2.856,1.025,3.864c0.571,0.588,1.36,0.89,2.167,0.89
							s1.596-0.302,2.167-0.89c0.975-1.008,1.025-2.621,1.025-3.864S319.939,727.335,318.965,726.327z"/>
						<path fill="#272725" d="M333.082,736.138l-5.846-9.576v9.576h-1.445v-11.911h1.681l5.846,9.609v-9.609h1.445v11.911H333.082z"
							/>
						<path fill="#272725" d="M346.948,735.164c-0.823,0.807-2.101,1.193-3.377,1.193c-1.445,0-2.604-0.403-3.41-1.142
							c-0.757-0.706-1.277-1.73-1.277-2.856h1.562c0,0.706,0.353,1.411,0.84,1.881c0.538,0.521,1.445,0.739,2.285,0.739
							c0.907,0,1.68-0.185,2.218-0.689c0.369-0.336,0.604-0.756,0.604-1.394c0-0.924-0.588-1.697-1.999-1.916l-1.882-0.286
							c-1.781-0.269-3.175-1.26-3.175-3.158c0-0.891,0.402-1.747,1.041-2.352c0.823-0.773,1.882-1.176,3.125-1.176
							c1.159,0,2.302,0.386,3.091,1.142c0.723,0.689,1.109,1.546,1.143,2.554h-1.562c-0.033-0.588-0.252-1.109-0.588-1.495
							c-0.453-0.521-1.176-0.823-2.1-0.823c-0.857,0-1.597,0.235-2.117,0.823c-0.302,0.353-0.487,0.756-0.487,1.293
							c0,1.075,0.891,1.562,1.781,1.68c0.672,0.084,1.327,0.202,1.982,0.302c1.982,0.286,3.31,1.495,3.31,3.377
							C347.956,733.854,347.536,734.593,346.948,735.164z"/>
					</g>
					<rect x="292.389" y="716.917" fill="none" stroke="#BCA695" stroke-miterlimit="10" width="63.142" height="26.575"/>
				</g>
			</g>
			<g>
				<line fill="none" stroke="#BCA695" stroke-miterlimit="10" x1="387.877" y1="445.011" x2="1301.896" y2="445.011"/>
				<g>
					<g>
						<path fill="#272725" d="M306.127,451.091l-5.863-9.602v9.602h-1.448v-11.943h1.685l5.862,9.636v-9.636h1.448v11.943H306.127z"
							/>
						<path fill="#272725" d="M312.87,451.091v-11.943h7.985v1.381h-6.486v3.639h5.694v1.415h-5.694v4.127h6.486v1.381H312.87z"/>
						<path fill="#272725" d="M329.114,451.31c-2.679,0-4.363-1.617-4.363-4.599v-7.563h1.499v7.597
							c0,1.904,0.792,3.167,2.864,3.167c2.071,0,2.863-1.263,2.863-3.167v-7.597h1.499v7.563
							C333.476,449.693,331.793,451.31,329.114,451.31z"/>
						<path fill="#272725" d="M341.805,440.546v10.545h-1.517v-10.545h-3.555v-1.398h8.625v1.398H341.805z"/>
						<path fill="#272725" d="M356.01,451.091l-2.258-4.97h-3.302v4.97h-1.499v-11.943h4.684c1.397,0,2.375,0.387,3.031,1.061
							c0.573,0.606,0.943,1.381,0.943,2.426s-0.336,1.752-0.909,2.358c-0.354,0.371-0.859,0.657-1.432,0.842l2.392,5.256H356.01z
							 M353.635,440.529h-3.185v4.195h3.185c1.414,0,2.426-0.573,2.426-2.089S355.049,440.529,353.635,440.529z"/>
						<path fill="#272725" d="M368.884,451.091l-0.977-2.83h-5.188l-0.961,2.83h-1.516l4.211-11.943h1.752l4.229,11.943H368.884z
							 M365.296,440.647l-2.105,6.199h4.228L365.296,440.647z"/>
						<path fill="#272725" d="M373.942,451.091v-11.943h1.499v10.545h5.744v1.398H373.942z"/>
					</g>
					<rect x="292.389" y="431.837" fill="none" stroke="#BCA695" stroke-miterlimit="10" width="95.939" height="26.348"/>
				</g>
			</g>
			<g>
				<line fill="none" stroke="#BCA695" stroke-miterlimit="10" x1="412.802" y1="587.475" x2="1301.896" y2="587.475"/>
				<g>
					<g>
						<path fill="#272725" d="M309.134,584.106c-0.792,0.792-2.082,1.4-3.502,1.4c-1.309,0-2.599-0.479-3.539-1.4
							c-1.419-1.383-1.641-3.3-1.641-5.383c0-2.083,0.222-4,1.641-5.382c0.94-0.922,2.23-1.401,3.539-1.401
							c1.42,0,2.691,0.553,3.484,1.346c0.756,0.774,1.234,1.77,1.29,2.986h-1.696c-0.018-0.719-0.295-1.346-0.719-1.825
							c-0.516-0.571-1.363-0.958-2.359-0.958c-0.885,0-1.751,0.35-2.378,0.995c-1.068,1.106-1.105,2.875-1.105,4.239
							c0,1.364,0.037,3.134,1.105,4.24c0.627,0.645,1.493,0.996,2.378,0.996c0.996,0,1.862-0.424,2.378-0.996
							c0.424-0.479,0.7-1.161,0.719-1.88h1.696C310.369,582.299,309.89,583.331,309.134,584.106z"/>
						<path fill="#272725" d="M322.699,584.106c-0.939,0.921-2.212,1.4-3.521,1.4s-2.58-0.479-3.521-1.4
							c-1.419-1.383-1.678-3.3-1.678-5.383c0-2.083,0.259-4,1.678-5.382c0.94-0.922,2.212-1.401,3.521-1.401
							s2.581,0.479,3.521,1.401c1.42,1.382,1.678,3.299,1.678,5.382C324.377,580.806,324.119,582.723,322.699,584.106z
							 M321.557,574.484c-0.627-0.645-1.493-0.977-2.378-0.977s-1.751,0.332-2.378,0.977c-1.069,1.106-1.124,2.875-1.124,4.239
							c0,1.364,0.055,3.134,1.124,4.24c0.627,0.645,1.493,0.977,2.378,0.977s1.751-0.332,2.378-0.977
							c1.069-1.106,1.124-2.875,1.124-4.24C322.681,577.359,322.626,575.59,321.557,574.484z"/>
						<path fill="#272725" d="M337.039,585.248l-6.414-10.507v10.507h-1.585v-13.069h1.843l6.415,10.543v-10.543h1.585v13.069
							H337.039z"/>
						<path fill="#272725" d="M352.244,584.179c-0.903,0.885-2.304,1.309-3.704,1.309c-1.586,0-2.857-0.442-3.742-1.253
							c-0.83-0.774-1.401-1.898-1.401-3.134h1.715c0,0.774,0.387,1.548,0.921,2.064c0.59,0.571,1.586,0.811,2.508,0.811
							c0.995,0,1.843-0.203,2.433-0.755c0.405-0.369,0.663-0.83,0.663-1.53c0-1.014-0.645-1.861-2.193-2.101l-2.064-0.313
							c-1.953-0.295-3.483-1.382-3.483-3.465c0-0.977,0.442-1.917,1.143-2.581c0.903-0.848,2.064-1.291,3.429-1.291
							c1.271,0,2.525,0.424,3.392,1.254c0.793,0.755,1.217,1.695,1.253,2.802h-1.714c-0.037-0.646-0.276-1.217-0.646-1.641
							c-0.497-0.571-1.29-0.903-2.304-0.903c-0.94,0-1.751,0.258-2.322,0.903c-0.332,0.387-0.534,0.829-0.534,1.419
							c0,1.18,0.977,1.714,1.953,1.844c0.737,0.092,1.456,0.221,2.176,0.332c2.175,0.313,3.631,1.641,3.631,3.705
							C353.35,582.741,352.89,583.552,352.244,584.179z"/>
						<path fill="#272725" d="M361.994,576.567l1.917,2.378l-1.234,0.885l-1.659-2.562l-1.641,2.562l-1.235-0.922l1.917-2.341
							l-2.931-0.756l0.479-1.456l2.82,1.106l-0.147-3.042h1.529l-0.184,3.042l2.838-1.106l0.461,1.456L361.994,576.567z"/>
						<path fill="#272725" d="M307.938,599.993h-1.167l-1.989-7.014l-2.015,7.014h-1.154l-1.745-8.709h1.02l1.389,7.1l2.015-6.977
							h0.982l2.015,6.964l1.388-7.087h0.995L307.938,599.993z"/>
						<path fill="#272725" d="M312.524,599.993v-8.709h1.117v8.709H312.524z"/>
						<path fill="#272725" d="M319.957,592.303v7.689h-1.106v-7.689h-2.591v-1.02h6.289v1.02H319.957z"/>
						<path fill="#272725" d="M330.437,599.993v-4.017h-4.177v4.017h-1.093v-8.709h1.093v3.636h4.177v-3.636h1.093v8.709H330.437z"
							/>
						<path fill="#272725" d="M344.481,599.231c-0.528,0.528-1.388,0.934-2.334,0.934c-0.872,0-1.731-0.319-2.358-0.934
							c-0.945-0.921-1.093-2.199-1.093-3.586c0-1.388,0.147-2.666,1.093-3.587c0.627-0.614,1.486-0.934,2.358-0.934
							c0.946,0,1.793,0.369,2.321,0.897c0.504,0.516,0.823,1.179,0.86,1.99h-1.13c-0.013-0.479-0.197-0.896-0.479-1.216
							c-0.344-0.38-0.909-0.639-1.572-0.639c-0.59,0-1.167,0.233-1.584,0.664c-0.713,0.737-0.737,1.916-0.737,2.825
							c0,0.909,0.024,2.088,0.737,2.825c0.417,0.43,0.994,0.663,1.584,0.663c0.663,0,1.24-0.283,1.585-0.663
							c0.282-0.319,0.467-0.774,0.479-1.253h1.13C345.305,598.028,344.985,598.716,344.481,599.231z"/>
						<path fill="#272725" d="M353.438,599.993l-1.646-3.624h-2.408v3.624h-1.093v-8.709h3.415c1.02,0,1.731,0.283,2.211,0.774
							c0.417,0.442,0.688,1.007,0.688,1.769c0,0.761-0.246,1.277-0.663,1.719c-0.258,0.271-0.627,0.479-1.044,0.614l1.744,3.833
							H353.438z M351.707,592.291h-2.322v3.059h2.322c1.031,0,1.769-0.417,1.769-1.523
							C353.475,592.721,352.738,592.291,351.707,592.291z"/>
						<path fill="#272725" d="M357.655,599.993v-8.709h1.117v8.709H357.655z"/>
						<path fill="#272725" d="M365.088,592.303v7.689h-1.106v-7.689h-2.591v-1.02h6.289v1.02H365.088z"/>
						<path fill="#272725" d="M370.298,599.993v-8.709h1.117v8.709H370.298z"/>
						<path fill="#272725" d="M380.309,599.231c-0.528,0.528-1.388,0.934-2.334,0.934c-0.872,0-1.731-0.319-2.358-0.934
							c-0.945-0.921-1.093-2.199-1.093-3.586c0-1.388,0.147-2.666,1.093-3.587c0.627-0.614,1.486-0.934,2.358-0.934
							c0.946,0,1.793,0.369,2.321,0.897c0.504,0.516,0.823,1.179,0.86,1.99h-1.13c-0.013-0.479-0.197-0.896-0.479-1.216
							c-0.344-0.38-0.909-0.639-1.572-0.639c-0.59,0-1.167,0.233-1.584,0.664c-0.713,0.737-0.737,1.916-0.737,2.825
							c0,0.909,0.024,2.088,0.737,2.825c0.417,0.43,0.994,0.663,1.584,0.663c0.663,0,1.24-0.283,1.585-0.663
							c0.282-0.319,0.467-0.774,0.479-1.253h1.13C381.133,598.028,380.813,598.716,380.309,599.231z"/>
						<path fill="#272725" d="M384.121,599.993v-8.709h1.117v8.709H384.121z"/>
						<path fill="#272725" d="M394.145,599.281c-0.603,0.589-1.536,0.872-2.47,0.872c-1.056,0-1.903-0.295-2.493-0.835
							c-0.553-0.516-0.934-1.265-0.934-2.088h1.143c0,0.516,0.258,1.032,0.614,1.375c0.393,0.381,1.056,0.541,1.67,0.541
							c0.664,0,1.229-0.135,1.622-0.503c0.27-0.246,0.441-0.553,0.441-1.02c0-0.676-0.43-1.241-1.461-1.4l-1.376-0.209
							c-1.302-0.196-2.321-0.921-2.321-2.309c0-0.651,0.295-1.277,0.761-1.72c0.603-0.565,1.376-0.86,2.285-0.86
							c0.848,0,1.683,0.283,2.26,0.835c0.528,0.503,0.812,1.13,0.836,1.867h-1.143c-0.024-0.43-0.185-0.811-0.43-1.093
							c-0.332-0.381-0.86-0.602-1.536-0.602c-0.626,0-1.166,0.172-1.547,0.602c-0.222,0.258-0.356,0.553-0.356,0.946
							c0,0.786,0.65,1.142,1.302,1.228c0.491,0.062,0.971,0.147,1.449,0.221c1.45,0.209,2.42,1.093,2.42,2.469
							C394.882,598.323,394.575,598.863,394.145,599.281z"/>
						<path fill="#272725" d="M405.265,599.993v-7.345l-2.702,7.222h-0.86L399,592.586v7.407h-1.044v-8.709h1.572l2.629,7.087
							l2.616-7.087h1.535v8.709H405.265z"/>
					</g>
					<rect x="292.389" y="564.854" fill="none" stroke="#BCA695" stroke-miterlimit="10" width="120.719" height="42.826"/>
				</g>
			</g>
			<g>
				<line fill="none" stroke="#BCA695" stroke-miterlimit="10" x1="340.47" y1="161.648" x2="1301.896" y2="161.648"/>
				<g>
					<g>
						<path fill="#272725" d="M305.927,162.774c-0.638,0.639-1.612,0.991-2.923,0.991h-2.94v4.62h-1.495v-11.911h4.419
							c1.395,0,2.386,0.386,3.023,1.075c0.571,0.622,0.907,1.479,0.907,2.52C306.918,161.228,306.565,162.135,305.927,162.774z
							 M302.953,157.835h-2.89v4.569h2.907c1.596,0,2.402-0.739,2.402-2.335C305.373,158.557,304.432,157.835,302.953,157.835z"/>
						<path fill="#272725" d="M317.826,168.385l-2.251-4.956h-3.293v4.956h-1.495v-11.911h4.671c1.395,0,2.368,0.386,3.023,1.059
							c0.571,0.604,0.941,1.377,0.941,2.419s-0.336,1.747-0.907,2.352c-0.354,0.37-0.857,0.655-1.429,0.84l2.386,5.242H317.826z
							 M315.458,157.851h-3.176v4.183h3.176c1.411,0,2.419-0.571,2.419-2.083C317.877,158.44,316.869,157.851,315.458,157.851z"/>
						<path fill="#272725" d="M330.751,167.343c-0.857,0.84-2.017,1.277-3.209,1.277s-2.352-0.437-3.209-1.277
							c-1.293-1.26-1.528-3.007-1.528-4.906s0.235-3.646,1.528-4.905c0.857-0.84,2.017-1.277,3.209-1.277s2.352,0.437,3.209,1.277
							c1.293,1.26,1.528,3.007,1.528,4.905S332.044,166.083,330.751,167.343z M329.709,158.574c-0.571-0.588-1.36-0.891-2.167-0.891
							s-1.596,0.303-2.167,0.891c-0.975,1.008-1.025,2.621-1.025,3.864s0.051,2.856,1.025,3.864c0.571,0.588,1.36,0.89,2.167,0.89
							s1.596-0.302,2.167-0.89c0.975-1.008,1.025-2.621,1.025-3.864S330.684,159.582,329.709,158.574z"/>
					</g>
					<rect x="292.389" y="149.165" fill="none" stroke="#BCA695" stroke-miterlimit="10" width="48.081" height="26.314"/>
				</g>
			</g>
			<g>
				<line fill="none" stroke="#BCA695" stroke-miterlimit="10" x1="412.802" y1="302.655" x2="1301.896" y2="302.655"/>
				<g>
					<g>
						<path fill="#272725" d="M307.349,295.004c-0.701,0.7-1.77,1.087-3.207,1.087h-3.227v5.069h-1.641v-13.069h4.849
							c1.529,0,2.617,0.424,3.317,1.18c0.627,0.682,0.995,1.622,0.995,2.765C308.435,293.307,308.049,294.303,307.349,295.004z
							 M304.086,289.584h-3.171v5.014h3.189c1.751,0,2.636-0.811,2.636-2.562C306.74,290.377,305.708,289.584,304.086,289.584z"/>
						<path fill="#272725" d="M320.397,301.16l-2.47-5.438h-3.613v5.438h-1.64v-13.069h5.124c1.529,0,2.599,0.424,3.317,1.162
							c0.627,0.663,1.032,1.511,1.032,2.654c0,1.143-0.368,1.917-0.995,2.58c-0.387,0.406-0.94,0.719-1.566,0.922l2.617,5.751
							H320.397z M317.799,289.603h-3.484v4.589h3.484c1.548,0,2.654-0.626,2.654-2.285
							C320.453,290.248,319.347,289.603,317.799,289.603z"/>
						<path fill="#272725" d="M334.571,300.017c-0.939,0.921-2.212,1.4-3.521,1.4s-2.58-0.479-3.521-1.4
							c-1.419-1.383-1.678-3.3-1.678-5.383c0-2.083,0.259-4,1.678-5.382c0.94-0.922,2.212-1.401,3.521-1.401
							s2.581,0.479,3.521,1.401c1.42,1.382,1.678,3.299,1.678,5.382C336.249,296.718,335.991,298.635,334.571,300.017z
							 M333.429,290.395c-0.627-0.645-1.493-0.977-2.378-0.977s-1.751,0.332-2.378,0.977c-1.068,1.106-1.124,2.875-1.124,4.239
							c0,1.364,0.056,3.134,1.124,4.24c0.627,0.645,1.493,0.977,2.378,0.977s1.751-0.332,2.378-0.977
							c1.069-1.106,1.124-2.875,1.124-4.24C334.553,293.271,334.498,291.501,333.429,290.395z"/>
						<path fill="#272725" d="M344.947,292.478l1.917,2.378l-1.234,0.885l-1.659-2.562l-1.641,2.562l-1.235-0.922l1.917-2.341
							l-2.931-0.756l0.479-1.456l2.82,1.106l-0.147-3.042h1.529l-0.184,3.042l2.838-1.106l0.461,1.456L344.947,292.478z"/>
						<path fill="#272725" d="M305.894,315.905h-1.167l-1.989-7.014l-2.015,7.014h-1.154l-1.744-8.709h1.019l1.389,7.1l2.015-6.977
							h0.982l2.015,6.964l1.388-7.087h0.995L305.894,315.905z"/>
						<path fill="#272725" d="M310.48,315.905v-8.709h1.117v8.709H310.48z"/>
						<path fill="#272725" d="M317.913,308.215v7.689h-1.105v-7.689h-2.592v-1.02h6.289v1.02H317.913z"/>
						<path fill="#272725" d="M328.393,315.905v-4.017h-4.177v4.017h-1.093v-8.709h1.093v3.636h4.177v-3.636h1.093v8.709H328.393z"
							/>
						<path fill="#272725" d="M342.437,315.143c-0.528,0.528-1.388,0.934-2.334,0.934c-0.872,0-1.731-0.319-2.358-0.934
							c-0.945-0.921-1.093-2.199-1.093-3.586c0-1.388,0.147-2.666,1.093-3.587c0.627-0.614,1.486-0.934,2.358-0.934
							c0.946,0,1.794,0.369,2.321,0.897c0.504,0.516,0.823,1.179,0.86,1.99h-1.13c-0.013-0.479-0.197-0.896-0.479-1.216
							c-0.344-0.38-0.909-0.639-1.572-0.639c-0.59,0-1.167,0.233-1.584,0.664c-0.713,0.737-0.737,1.916-0.737,2.825
							c0,0.909,0.024,2.088,0.737,2.825c0.417,0.43,0.994,0.663,1.584,0.663c0.663,0,1.24-0.283,1.585-0.663
							c0.282-0.319,0.467-0.774,0.479-1.253h1.13C343.261,313.939,342.941,314.627,342.437,315.143z"/>
						<path fill="#272725" d="M351.394,315.905l-1.646-3.624h-2.408v3.624h-1.093v-8.709h3.415c1.02,0,1.731,0.283,2.211,0.774
							c0.417,0.442,0.688,1.007,0.688,1.769c0,0.761-0.246,1.277-0.663,1.719c-0.258,0.271-0.627,0.479-1.044,0.614l1.744,3.833
							H351.394z M349.663,308.203h-2.322v3.059h2.322c1.031,0,1.769-0.417,1.769-1.523
							C351.432,308.633,350.694,308.203,349.663,308.203z"/>
						<path fill="#272725" d="M355.611,315.905v-8.709h1.117v8.709H355.611z"/>
						<path fill="#272725" d="M363.044,308.215v7.689h-1.105v-7.689h-2.592v-1.02h6.289v1.02H363.044z"/>
						<path fill="#272725" d="M368.254,315.905v-8.709h1.117v8.709H368.254z"/>
						<path fill="#272725" d="M378.266,315.143c-0.528,0.528-1.388,0.934-2.334,0.934c-0.872,0-1.731-0.319-2.358-0.934
							c-0.945-0.921-1.093-2.199-1.093-3.586c0-1.388,0.147-2.666,1.093-3.587c0.627-0.614,1.486-0.934,2.358-0.934
							c0.946,0,1.794,0.369,2.321,0.897c0.504,0.516,0.823,1.179,0.86,1.99h-1.13c-0.013-0.479-0.197-0.896-0.479-1.216
							c-0.344-0.38-0.909-0.639-1.572-0.639c-0.59,0-1.167,0.233-1.584,0.664c-0.713,0.737-0.737,1.916-0.737,2.825
							c0,0.909,0.024,2.088,0.737,2.825c0.417,0.43,0.994,0.663,1.584,0.663c0.663,0,1.24-0.283,1.585-0.663
							c0.282-0.319,0.467-0.774,0.479-1.253h1.13C379.089,313.939,378.769,314.627,378.266,315.143z"/>
						<path fill="#272725" d="M382.077,315.905v-8.709h1.117v8.709H382.077z"/>
						<path fill="#272725" d="M392.101,315.192c-0.603,0.589-1.536,0.872-2.47,0.872c-1.056,0-1.903-0.295-2.493-0.835
							c-0.553-0.516-0.934-1.265-0.934-2.088h1.143c0,0.516,0.258,1.032,0.614,1.375c0.393,0.381,1.056,0.541,1.67,0.541
							c0.664,0,1.229-0.135,1.622-0.503c0.27-0.246,0.441-0.553,0.441-1.02c0-0.676-0.43-1.241-1.461-1.4l-1.376-0.209
							c-1.302-0.196-2.321-0.921-2.321-2.309c0-0.651,0.294-1.277,0.761-1.72c0.603-0.565,1.376-0.86,2.285-0.86
							c0.848,0,1.683,0.283,2.26,0.835c0.528,0.503,0.812,1.13,0.836,1.867h-1.143c-0.024-0.43-0.185-0.811-0.43-1.093
							c-0.332-0.381-0.86-0.602-1.536-0.602c-0.626,0-1.167,0.172-1.547,0.602c-0.222,0.258-0.356,0.553-0.356,0.946
							c0,0.786,0.65,1.142,1.302,1.228c0.491,0.062,0.971,0.147,1.449,0.221c1.45,0.209,2.42,1.093,2.42,2.469
							C392.838,314.234,392.531,314.775,392.101,315.192z"/>
						<path fill="#272725" d="M403.221,315.905v-7.345l-2.702,7.222h-0.86l-2.702-7.284v7.407h-1.044v-8.709h1.572l2.629,7.087
							l2.616-7.087h1.535v8.709H403.221z"/>
					</g>
					<rect x="292.389" y="280.766" fill="none" stroke="#BCA695" stroke-miterlimit="10" width="120.413" height="42.826"/>
				</g>
			</g>
		</g>
		<g>
			<g>
				<rect x="805.134" y="0.5" fill="none" stroke="#BCA695" stroke-miterlimit="10" width="139.839" height="26.793"/>
				<g>
					<path fill="#272725" d="M812.072,19.721V7.81h1.529v11.911H812.072z"/>
					<path fill="#272725" d="M825.935,19.721l-5.846-9.576v9.576h-1.445V7.81h1.681l5.846,9.609V7.81h1.445v11.911H825.935z"/>
					<path fill="#272725" d="M836.256,9.205v10.517h-1.513V9.205h-3.544V7.81h8.602v1.395H836.256z"/>
					<path fill="#272725" d="M850.12,18.68c-0.857,0.84-2.017,1.277-3.209,1.277s-2.352-0.437-3.209-1.277
						c-1.293-1.26-1.528-3.007-1.528-4.906s0.235-3.646,1.528-4.905c0.857-0.84,2.017-1.277,3.209-1.277s2.352,0.437,3.209,1.277
						c1.293,1.26,1.528,3.007,1.528,4.905S851.413,17.42,850.12,18.68z M849.078,9.91c-0.571-0.588-1.36-0.891-2.167-0.891
						s-1.596,0.303-2.167,0.891c-0.975,1.008-1.025,2.621-1.025,3.864s0.051,2.856,1.025,3.864c0.571,0.588,1.36,0.89,2.167,0.89
						s1.596-0.302,2.167-0.89c0.975-1.008,1.025-2.621,1.025-3.864S850.053,10.918,849.078,9.91z"/>
					<path fill="#272725" d="M855.904,19.721V7.81h1.495v10.517h5.729v1.395H855.904z"/>
					<path fill="#272725" d="M866.727,19.721V7.81h7.964v1.377h-6.469v3.629h5.679v1.411h-5.679v4.116h6.469v1.377H866.727z"/>
					<path fill="#272725" d="M885.951,19.721l-2.251-4.956h-3.293v4.956h-1.495V7.81h4.671c1.395,0,2.368,0.386,3.023,1.059
						c0.571,0.604,0.941,1.377,0.941,2.419s-0.336,1.747-0.907,2.352c-0.354,0.37-0.857,0.655-1.429,0.84l2.386,5.242H885.951z
						 M883.583,9.188h-3.176v4.183h3.176c1.411,0,2.419-0.571,2.419-2.083C886.002,9.776,884.994,9.188,883.583,9.188z"/>
					<path fill="#272725" d="M898.792,19.721l-0.975-2.822h-5.175l-0.957,2.822h-1.512l4.199-11.911h1.748l4.217,11.911H898.792z
						 M895.214,9.305l-2.101,6.183h4.217L895.214,9.305z"/>
					<path fill="#272725" d="M911.127,19.721l-5.846-9.576v9.576h-1.445V7.81h1.681l5.846,9.609V7.81h1.445v11.911H911.127z"/>
					<path fill="#272725" d="M924.976,18.68c-0.722,0.722-1.898,1.277-3.191,1.277c-1.193,0-2.369-0.437-3.226-1.277
						c-1.294-1.26-1.495-3.007-1.495-4.906s0.201-3.646,1.495-4.905c0.856-0.84,2.032-1.277,3.226-1.277
						c1.293,0,2.453,0.504,3.175,1.226c0.689,0.706,1.126,1.613,1.176,2.722h-1.545c-0.017-0.655-0.269-1.227-0.655-1.663
						c-0.471-0.521-1.243-0.874-2.15-0.874c-0.807,0-1.596,0.319-2.167,0.907c-0.975,1.008-1.009,2.621-1.009,3.864
						s0.034,2.856,1.009,3.864c0.571,0.588,1.36,0.907,2.167,0.907c0.907,0,1.696-0.387,2.167-0.907
						c0.387-0.437,0.639-1.059,0.655-1.714h1.546C926.102,17.033,925.665,17.974,924.976,18.68z"/>
					<path fill="#272725" d="M930.188,19.721V7.81h7.964v1.377h-6.469v3.629h5.679v1.411h-5.679v4.116h6.469v1.377H930.188z"/>
				</g>
			</g>
			<g>
				<rect x="651.172" y="0.5" fill="none" stroke="#BCA695" stroke-miterlimit="10" width="102.674" height="26.793"/>
				<g>
					<path fill="#272725" d="M665.708,18.529c-0.84,0.807-1.965,1.193-3.125,1.193h-4.149V7.81h4.149
						c1.16,0,2.285,0.403,3.125,1.209c1.311,1.243,1.529,3.024,1.529,4.738C667.237,15.471,667.002,17.285,665.708,18.529z
						 M664.7,10.011c-0.555-0.554-1.344-0.823-2.117-0.823h-2.654v9.156h2.654c0.773,0,1.562-0.269,2.117-0.823
						c0.94-0.958,1.024-2.486,1.024-3.763S665.641,10.986,664.7,10.011z"/>
					<path fill="#272725" d="M671.492,19.721V7.81h1.529v11.911H671.492z"/>
					<path fill="#272725" d="M685.204,18.747c-0.823,0.807-2.101,1.193-3.377,1.193c-1.445,0-2.604-0.403-3.41-1.142
						c-0.757-0.706-1.277-1.73-1.277-2.856h1.562c0,0.706,0.353,1.411,0.84,1.881c0.538,0.521,1.445,0.739,2.285,0.739
						c0.907,0,1.68-0.185,2.218-0.689c0.369-0.336,0.604-0.756,0.604-1.394c0-0.924-0.588-1.697-1.999-1.916l-1.882-0.286
						c-1.781-0.269-3.175-1.26-3.175-3.158c0-0.891,0.403-1.747,1.041-2.352c0.823-0.773,1.882-1.176,3.125-1.176
						c1.159,0,2.302,0.386,3.091,1.142c0.723,0.689,1.109,1.546,1.143,2.554h-1.562c-0.033-0.588-0.252-1.109-0.588-1.495
						c-0.453-0.521-1.176-0.823-2.1-0.823c-0.857,0-1.596,0.235-2.117,0.823c-0.302,0.353-0.487,0.756-0.487,1.293
						c0,1.075,0.891,1.562,1.781,1.68c0.672,0.084,1.327,0.202,1.982,0.302c1.982,0.286,3.31,1.495,3.31,3.377
						C686.212,17.437,685.792,18.176,685.204,18.747z"/>
					<path fill="#272725" d="M690.416,19.721V7.81h7.964v1.377h-6.469v3.629h5.679v1.411h-5.679v4.116h6.469v1.377H690.416z"/>
					<path fill="#272725" d="M709.674,19.721l-0.975-2.822h-5.175l-0.957,2.822h-1.512l4.199-11.911h1.748l4.217,11.911H709.674z
						 M706.096,9.305l-2.101,6.183h4.217L706.096,9.305z"/>
					<path fill="#272725" d="M721.774,18.747c-0.823,0.807-2.101,1.193-3.377,1.193c-1.445,0-2.604-0.403-3.41-1.142
						c-0.757-0.706-1.277-1.73-1.277-2.856h1.562c0,0.706,0.353,1.411,0.84,1.881c0.538,0.521,1.445,0.739,2.285,0.739
						c0.907,0,1.68-0.185,2.218-0.689c0.369-0.336,0.604-0.756,0.604-1.394c0-0.924-0.588-1.697-1.999-1.916l-1.882-0.286
						c-1.781-0.269-3.175-1.26-3.175-3.158c0-0.891,0.403-1.747,1.041-2.352c0.823-0.773,1.882-1.176,3.125-1.176
						c1.159,0,2.302,0.386,3.091,1.142c0.723,0.689,1.109,1.546,1.143,2.554h-1.562c-0.033-0.588-0.252-1.109-0.588-1.495
						c-0.453-0.521-1.176-0.823-2.1-0.823c-0.857,0-1.596,0.235-2.117,0.823c-0.302,0.353-0.487,0.756-0.487,1.293
						c0,1.075,0.891,1.562,1.781,1.68c0.672,0.084,1.327,0.202,1.982,0.302c1.982,0.286,3.31,1.495,3.31,3.377
						C722.782,17.437,722.362,18.176,721.774,18.747z"/>
					<path fill="#272725" d="M726.986,19.721V7.81h7.964v1.377h-6.469v3.629h5.679v1.411h-5.679v4.116h6.469v1.377H726.986z"/>
					<path fill="#272725" d="M746.227,18.747c-0.823,0.807-2.101,1.193-3.377,1.193c-1.445,0-2.604-0.403-3.41-1.142
						c-0.757-0.706-1.277-1.73-1.277-2.856h1.562c0,0.706,0.353,1.411,0.84,1.881c0.538,0.521,1.445,0.739,2.285,0.739
						c0.907,0,1.68-0.185,2.218-0.689c0.369-0.336,0.604-0.756,0.604-1.394c0-0.924-0.588-1.697-1.999-1.916l-1.882-0.286
						c-1.781-0.269-3.175-1.26-3.175-3.158c0-0.891,0.403-1.747,1.041-2.352c0.823-0.773,1.882-1.176,3.125-1.176
						c1.159,0,2.302,0.386,3.091,1.142c0.723,0.689,1.109,1.546,1.143,2.554h-1.562c-0.033-0.588-0.252-1.109-0.588-1.495
						c-0.453-0.521-1.176-0.823-2.1-0.823c-0.857,0-1.596,0.235-2.117,0.823c-0.302,0.353-0.487,0.756-0.487,1.293
						c0,1.075,0.891,1.562,1.781,1.68c0.672,0.084,1.327,0.202,1.982,0.302c1.982,0.286,3.31,1.495,3.31,3.377
						C747.235,17.437,746.815,18.176,746.227,18.747z"/>
				</g>
			</g>
			<g>
				<rect x="473.615" y="0.5" fill="none" stroke="#BCA695" stroke-miterlimit="10" width="115.923" height="26.793"/>
				<g>
					<path fill="#272725" d="M487.904,19.721l-5.846-9.576v9.576h-1.445V7.81h1.681l5.846,9.609V7.81h1.445v11.911H487.904z"/>
					<path fill="#272725" d="M498.645,19.94c-2.671,0-4.352-1.613-4.352-4.586V7.81h1.495v7.577c0,1.898,0.79,3.159,2.856,3.159
						s2.855-1.26,2.855-3.159V7.81h1.495v7.543C502.996,18.327,501.316,19.94,498.645,19.94z"/>
					<path fill="#272725" d="M511.301,9.205v10.517h-1.513V9.205h-3.544V7.81h8.602v1.395H511.301z"/>
					<path fill="#272725" d="M525.467,19.721l-2.251-4.956h-3.293v4.956h-1.495V7.81h4.671c1.395,0,2.368,0.386,3.023,1.059
						c0.571,0.604,0.941,1.377,0.941,2.419s-0.336,1.747-0.907,2.352c-0.354,0.37-0.857,0.655-1.429,0.84l2.386,5.242H525.467z
						 M523.099,9.188h-3.176v4.183h3.176c1.411,0,2.419-0.571,2.419-2.083C525.518,9.776,524.51,9.188,523.099,9.188z"/>
					<path fill="#272725" d="M531.234,19.721V7.81h1.529v11.911H531.234z"/>
					<path fill="#272725" d="M537.806,19.721V7.81h7.964v1.377h-6.469v3.629h5.679v1.411h-5.679v4.116h6.469v1.377H537.806z"/>
					<path fill="#272725" d="M557.281,19.721l-5.846-9.576v9.576h-1.445V7.81h1.681l5.846,9.609V7.81h1.445v11.911H557.281z"/>
					<path fill="#272725" d="M567.602,9.205v10.517h-1.512V9.205h-3.545V7.81h8.602v1.395H567.602z"/>
					<path fill="#272725" d="M581.534,18.747c-0.823,0.807-2.101,1.193-3.377,1.193c-1.445,0-2.604-0.403-3.41-1.142
						c-0.757-0.706-1.277-1.73-1.277-2.856h1.562c0,0.706,0.353,1.411,0.84,1.881c0.538,0.521,1.445,0.739,2.285,0.739
						c0.907,0,1.68-0.185,2.218-0.689c0.369-0.336,0.604-0.756,0.604-1.394c0-0.924-0.588-1.697-1.999-1.916l-1.882-0.286
						c-1.781-0.269-3.175-1.26-3.175-3.158c0-0.891,0.403-1.747,1.041-2.352c0.823-0.773,1.882-1.176,3.125-1.176
						c1.159,0,2.302,0.386,3.091,1.142c0.723,0.689,1.109,1.546,1.143,2.554h-1.562c-0.033-0.588-0.252-1.109-0.588-1.495
						c-0.453-0.521-1.176-0.823-2.1-0.823c-0.857,0-1.596,0.235-2.117,0.823c-0.302,0.353-0.487,0.756-0.487,1.293
						c0,1.075,0.891,1.562,1.781,1.68c0.672,0.084,1.327,0.202,1.982,0.302c1.982,0.286,3.31,1.495,3.31,3.377
						C582.542,17.437,582.122,18.176,581.534,18.747z"/>
				</g>
			</g>
			<g>
				<rect x="1158.934" y="0.5" fill="none" stroke="#BCA695" stroke-miterlimit="10" width="117.295" height="26.793"/>
				<g>
					<path fill="#272725" d="M1173.327,18.63c-0.673,0.722-1.814,1.092-2.991,1.092h-4.805V7.81h4.755
						c1.108,0,2.251,0.37,2.906,1.092c0.471,0.521,0.772,1.126,0.772,1.982c0,1.143-0.604,2.234-1.713,2.638
						c1.226,0.403,1.982,1.613,1.982,2.873C1174.234,17.353,1173.848,18.075,1173.327,18.63z M1170.286,9.137h-3.293v3.747h3.343
						c1.243,0,2.101-0.555,2.101-1.882C1172.436,9.759,1171.429,9.137,1170.286,9.137z M1170.37,14.194h-3.377v4.15h3.343
						c1.311,0,2.369-0.639,2.369-2.05C1172.705,14.967,1171.63,14.194,1170.37,14.194z"/>
					<path fill="#272725" d="M1185.596,18.68c-0.857,0.84-2.017,1.277-3.209,1.277s-2.352-0.437-3.209-1.277
						c-1.293-1.26-1.528-3.007-1.528-4.906s0.235-3.646,1.528-4.905c0.857-0.84,2.017-1.277,3.209-1.277s2.352,0.437,3.209,1.277
						c1.293,1.26,1.528,3.007,1.528,4.905S1186.889,17.42,1185.596,18.68z M1184.554,9.91c-0.571-0.588-1.36-0.891-2.167-0.891
						s-1.596,0.303-2.167,0.891c-0.975,1.008-1.025,2.621-1.025,3.864s0.051,2.856,1.025,3.864c0.571,0.588,1.36,0.89,2.167,0.89
						s1.596-0.302,2.167-0.89c0.975-1.008,1.025-2.621,1.025-3.864S1185.528,10.918,1184.554,9.91z"/>
					<path fill="#272725" d="M1198.654,18.529c-0.84,0.807-1.966,1.193-3.125,1.193h-4.149V7.81h4.149
						c1.159,0,2.285,0.403,3.125,1.209c1.311,1.243,1.529,3.024,1.529,4.738C1200.183,15.471,1199.948,17.285,1198.654,18.529z
						 M1197.646,10.011c-0.555-0.554-1.344-0.823-2.117-0.823h-2.654v9.156h2.654c0.773,0,1.562-0.269,2.117-0.823
						c0.94-0.958,1.024-2.486,1.024-3.763S1198.587,10.986,1197.646,10.011z"/>
					<path fill="#272725" d="M1207.682,14.883v4.838h-1.513v-4.838l-3.998-7.073h1.68l3.125,5.662l3.108-5.662h1.596
						L1207.682,14.883z"/>
					<path fill="#272725" d="M1227.63,19.721l-0.253-1.428c-0.588,0.975-1.897,1.664-3.242,1.664c-1.192,0-2.352-0.387-3.209-1.227
						c-1.209-1.176-1.545-2.822-1.545-4.956c0-1.898,0.252-3.646,1.545-4.905c0.857-0.84,2.017-1.277,3.209-1.277
						c1.345,0,2.588,0.47,3.41,1.344c0.571,0.605,0.975,1.361,1.025,2.318h-1.562c-0.051-0.554-0.235-0.941-0.538-1.31
						c-0.537-0.639-1.36-0.941-2.335-0.941c-0.806,0-1.596,0.319-2.167,0.907c-0.975,1.008-1.042,2.621-1.042,3.864
						c0,1.193,0.084,2.906,1.075,3.915c0.571,0.588,1.328,0.857,2.134,0.857c0.84,0,1.63-0.286,2.167-0.823
						c0.79-0.773,1.025-1.932,1.025-3.024h-3.192v-1.395h4.536v6.417H1227.63z"/>
					<path fill="#272725" d="M1240.436,18.68c-0.857,0.84-2.017,1.277-3.209,1.277s-2.352-0.437-3.209-1.277
						c-1.293-1.26-1.528-3.007-1.528-4.906s0.235-3.646,1.528-4.905c0.857-0.84,2.017-1.277,3.209-1.277s2.352,0.437,3.209,1.277
						c1.293,1.26,1.528,3.007,1.528,4.905S1241.729,17.42,1240.436,18.68z M1239.394,9.91c-0.571-0.588-1.36-0.891-2.167-0.891
						s-1.596,0.303-2.167,0.891c-0.975,1.008-1.025,2.621-1.025,3.864s0.051,2.856,1.025,3.864c0.571,0.588,1.36,0.89,2.167,0.89
						s1.596-0.302,2.167-0.89c0.975-1.008,1.025-2.621,1.025-3.864S1240.369,10.918,1239.394,9.91z"/>
					<path fill="#272725" d="M1253.378,18.68c-0.857,0.84-2.017,1.277-3.209,1.277s-2.352-0.437-3.209-1.277
						c-1.293-1.26-1.528-3.007-1.528-4.906s0.235-3.646,1.528-4.905c0.857-0.84,2.017-1.277,3.209-1.277s2.352,0.437,3.209,1.277
						c1.293,1.26,1.528,3.007,1.528,4.905S1254.671,17.42,1253.378,18.68z M1252.336,9.91c-0.571-0.588-1.36-0.891-2.167-0.891
						s-1.596,0.303-2.167,0.891c-0.975,1.008-1.025,2.621-1.025,3.864s0.051,2.856,1.025,3.864c0.571,0.588,1.36,0.89,2.167,0.89
						s1.596-0.302,2.167-0.89c0.975-1.008,1.025-2.621,1.025-3.864S1253.31,10.918,1252.336,9.91z"/>
					<path fill="#272725" d="M1266.436,18.529c-0.84,0.807-1.965,1.193-3.125,1.193h-4.149V7.81h4.149
						c1.16,0,2.285,0.403,3.125,1.209c1.311,1.243,1.529,3.024,1.529,4.738C1267.966,15.471,1267.73,17.285,1266.436,18.529z
						 M1265.429,10.011c-0.555-0.554-1.344-0.823-2.117-0.823h-2.654v9.156h2.654c0.773,0,1.562-0.269,2.117-0.823
						c0.94-0.958,1.024-2.486,1.024-3.763S1266.369,10.986,1265.429,10.011z"/>
				</g>
			</g>
			<g>
				<rect x="991.711" y="0.5" fill="none" stroke="#BCA695" stroke-miterlimit="10" width="106.841" height="45.125"/>
				<g>
					<path fill="#272725" d="M998.763,19.721V7.81h7.964v1.377h-6.469v3.629h5.679v1.411h-5.679v4.116h6.469v1.377H998.763z"/>
					<path fill="#272725" d="M1017.163,19.721l-3.023-4.889l-2.99,4.889h-1.63l3.764-6.014l-3.696-5.897h1.663l2.99,4.822
						l2.94-4.822h1.596l-3.713,5.897l3.764,6.014H1017.163z"/>
					<path fill="#272725" d="M1026.039,9.205v10.517h-1.513V9.205h-3.544V7.81h8.602v1.395H1026.039z"/>
					<path fill="#272725" d="M1033.166,19.721V7.81h7.964v1.377h-6.469v3.629h5.679v1.411h-5.679v4.116h6.469v1.377H1033.166z"/>
					<path fill="#272725" d="M1052.39,19.721l-2.251-4.956h-3.293v4.956h-1.495V7.81h4.671c1.395,0,2.368,0.386,3.023,1.059
						c0.571,0.604,0.941,1.377,0.941,2.419s-0.336,1.747-0.907,2.352c-0.354,0.37-0.857,0.655-1.429,0.84l2.386,5.242H1052.39z
						 M1050.021,9.188h-3.176v4.183h3.176c1.411,0,2.419-0.571,2.419-2.083C1052.44,9.776,1051.432,9.188,1050.021,9.188z"/>
					<path fill="#272725" d="M1065.448,19.721l-5.846-9.576v9.576h-1.445V7.81h1.681l5.846,9.609V7.81h1.445v11.911H1065.448z"/>
					<path fill="#272725" d="M1079.247,19.721l-0.975-2.822h-5.175l-0.957,2.822h-1.512l4.199-11.911h1.748l4.217,11.911H1079.247z
						 M1075.669,9.305l-2.101,6.183h4.217L1075.669,9.305z"/>
					<path fill="#272725" d="M1084.291,19.721V7.81h1.495v10.517h5.729v1.395H1084.291z"/>
					<path fill="#272725" d="M1016.887,37.721l-0.975-2.822h-5.175l-0.957,2.822h-1.512l4.199-11.911h1.748l4.217,11.911H1016.887z
						 M1013.309,27.305l-2.101,6.183h4.217L1013.309,27.305z"/>
					<path fill="#272725" d="M1029.138,37.721l-0.252-1.428c-0.588,0.975-1.898,1.664-3.242,1.664c-1.192,0-2.352-0.387-3.209-1.227
						c-1.209-1.176-1.545-2.822-1.545-4.956c0-1.898,0.252-3.646,1.545-4.905c0.857-0.84,2.017-1.277,3.209-1.277
						c1.344,0,2.588,0.47,3.41,1.344c0.571,0.605,0.975,1.361,1.025,2.318h-1.562c-0.051-0.554-0.235-0.941-0.538-1.31
						c-0.537-0.639-1.36-0.941-2.335-0.941c-0.807,0-1.596,0.319-2.167,0.907c-0.975,1.008-1.042,2.621-1.042,3.864
						c0,1.193,0.084,2.906,1.075,3.915c0.571,0.588,1.327,0.857,2.134,0.857c0.84,0,1.63-0.286,2.167-0.823
						c0.79-0.773,1.025-1.932,1.025-3.024h-3.192v-1.395h4.536v6.417H1029.138z"/>
					<path fill="#272725" d="M1034.788,37.721V25.81h7.964v1.377h-6.469v3.629h5.679v1.411h-5.679v4.116h6.469v1.377H1034.788z"/>
					<path fill="#272725" d="M1054.264,37.721l-5.846-9.576v9.576h-1.445V25.81h1.681l5.846,9.609V25.81h1.445v11.911H1054.264z"/>
					<path fill="#272725" d="M1064.585,27.205v10.517h-1.512V27.205h-3.545V25.81h8.602v1.395H1064.585z"/>
					<path fill="#272725" d="M1078.516,36.747c-0.823,0.807-2.101,1.193-3.377,1.193c-1.445,0-2.604-0.403-3.41-1.142
						c-0.757-0.706-1.277-1.73-1.277-2.856h1.562c0,0.706,0.353,1.411,0.84,1.881c0.538,0.521,1.445,0.739,2.285,0.739
						c0.907,0,1.68-0.185,2.218-0.689c0.369-0.336,0.604-0.756,0.604-1.394c0-0.924-0.588-1.697-1.999-1.916l-1.882-0.286
						c-1.781-0.269-3.175-1.26-3.175-3.158c0-0.891,0.403-1.747,1.041-2.352c0.823-0.773,1.882-1.176,3.125-1.176
						c1.159,0,2.302,0.386,3.091,1.142c0.723,0.689,1.109,1.546,1.143,2.554h-1.562c-0.033-0.588-0.252-1.109-0.588-1.495
						c-0.453-0.521-1.176-0.823-2.1-0.823c-0.857,0-1.596,0.235-2.117,0.823c-0.302,0.353-0.487,0.756-0.487,1.293
						c0,1.075,0.891,1.562,1.781,1.68c0.672,0.084,1.327,0.202,1.982,0.302c1.982,0.286,3.31,1.495,3.31,3.377
						C1079.524,35.437,1079.104,36.176,1078.516,36.747z"/>
				</g>
			</g>
		</g>
	</g>
	<g>
		<g>
			<circle opacity="0.75" fill="#AF1922" cx="1217.113" cy="730.331" r="89.291"/>
			<circle fill="#F5F5F5" cx="1217.113" cy="730.331" r="1.417"/>
		</g>
		<g>
			<g>
				<circle opacity="0.75" fill="#AF1922" cx="1044.857" cy="730.331" r="153.071"/>
				<circle fill="#F6F6F6" cx="1044.857" cy="730.331" r="0.85"/>
			</g>
			<circle fill="#F5F5F5" cx="1044.742" cy="730.331" r="1.417"/>
		</g>
		<g>
			<g>
				<circle opacity="0.75" fill="#AF1922" cx="874.936" cy="730.331" r="59.528"/>
				<circle fill="#F6F6F6" cx="874.936" cy="730.331" r="0.85"/>
			</g>
			<circle fill="#F5F5F5" cx="874.936" cy="730.331" r="1.417"/>
		</g>
		<g>
			<g>
				<circle opacity="0.75" fill="#AF1922" cx="703.11" cy="730.331" r="59.528"/>
				<circle fill="#F6F6F6" cx="703.11" cy="730.331" r="0.85"/>
			</g>
			<circle fill="#F5F5F5" cx="702.634" cy="730.331" r="1.417"/>
		</g>
		<g>
			<circle opacity="0.75" fill="#AF1922" cx="531.847" cy="730.331" r="29.764"/>
			<circle fill="#F5F5F5" cx="531.847" cy="730.331" r="1.417"/>
		</g>
	</g>
	<g>
		<g>
			<circle opacity="0.75" fill="#F6A000" cx="531.317" cy="445.011" r="25.512"/>
			<circle fill="#F6F6F6" cx="531.317" cy="445.011" r="0.476"/>
			<circle fill="#F5F5F5" cx="531.317" cy="445.011" r="1.677"/>
		</g>
		<g>
			<circle opacity="0.75" fill="#F6A000" cx="702.58" cy="445.011" r="76.535"/>
			<circle fill="#F5F5F5" cx="702.58" cy="445.011" r="1.417"/>
		</g>
		<g>
			<circle opacity="0.75" fill="#F6A000" cx="874.406" cy="445.011" r="93.543"/>
			<circle fill="#F5F5F5" cx="874.406" cy="445.011" r="1.417"/>
		</g>
		<g>
			<circle opacity="0.75" fill="#F6A000" cx="1044.327" cy="445.011" r="21.26"/>
			<circle fill="#F5F5F5" cx="1044.327" cy="445.011" r="1.417"/>
		</g>
		<g>
			<circle opacity="0.75" fill="#F6A000" cx="1216.583" cy="445.011" r="29.764"/>
			<circle fill="#F5F5F5" cx="1216.777" cy="445.011" r="1.417"/>
		</g>
	</g>
	<g>
		<g>
			<circle opacity="0.75" fill="#1F8E6C" cx="531.659" cy="161.365" r="55.276"/>
			<circle fill="#F5F5F5" cx="531.659" cy="161.365" r="1.417"/>
		</g>
		<g>
			<circle opacity="0.75" fill="#1F8E6C" cx="703.103" cy="161.365" r="34.016"/>
			<circle fill="#F5F5F5" cx="702.627" cy="161.841" r="1.417"/>
		</g>
		<g>
			<circle opacity="0.75" fill="#1F8E6C" cx="874.929" cy="161.365" r="63.78"/>
			<circle fill="#F5F5F5" cx="874.929" cy="161.841" r="1.417"/>
		</g>
		<g>
			<circle opacity="0.75" fill="#1F8E6C" cx="1044.85" cy="161.365" r="51.024"/>
			<circle fill="#F5F5F5" cx="1044.85" cy="161.841" r="1.417"/>
		</g>
		<g>
			<circle opacity="0.75" fill="#1F8E6C" cx="1217.106" cy="161.365" r="38.268"/>
			<circle fill="#F6F6F6" cx="1217.301" cy="161.365" r="1.417"/>
		</g>
	</g>
	<g>
		<g>
			<circle opacity="0.75" fill="#F08575" cx="702.533" cy="587.601" r="17.008"/>
			<circle fill="#F5F5F5" cx="702.533" cy="587.601" r="1.417"/>
		</g>
		<g>
			<circle opacity="0.75" fill="#F08575" cx="1044.281" cy="587.401" r="25.512"/>
			<circle fill="#F5F5F5" cx="1044.281" cy="587.401" r="1.417"/>
		</g>
		<g>
			<g opacity="0.8">
				<line fill="none" stroke="#F08575" stroke-miterlimit="10" x1="523.639" y1="580.514" x2="537.812" y2="594.687"/>
				<line fill="none" stroke="#F08575" stroke-miterlimit="10" x1="523.639" y1="594.687" x2="537.812" y2="580.514"/>
			</g>
			<circle fill="#F6F6F6" cx="530.768" cy="587.656" r="1.417"/>
		</g>
		<g>
			<g opacity="0.8">
				<line fill="none" stroke="#F08575" stroke-miterlimit="10" x1="867.273" y1="580.57" x2="881.446" y2="594.743"/>
				<line fill="none" stroke="#F08575" stroke-miterlimit="10" x1="867.273" y1="594.743" x2="881.446" y2="580.57"/>
			</g>
			<circle fill="#F6F6F6" cx="874.402" cy="587.712" r="1.417"/>
		</g>
		<g>
			<circle opacity="0.75" fill="#F08575" cx="1216.536" cy="587.712" r="4.252"/>
			<circle fill="#F5F5F5" cx="1216.536" cy="587.712" r="1.417"/>
		</g>
	</g>
	<g>
		<g>
			<g>
				<circle opacity="0.75" fill="#A7C8AF" cx="1217.157" cy="302.802" r="17.008"/>
				<circle fill="#F5F5F5" cx="1217.352" cy="302.802" r="1.417"/>
			</g>
			<g>
				<circle opacity="0.75" fill="#A7C8AF" cx="1044.901" cy="302.802" r="8.504"/>
				<circle fill="#F5F5F5" cx="1045.096" cy="302.802" r="1.417"/>
			</g>
			<g>
				<circle opacity="0.75" fill="#A7C8AF" cx="703.154" cy="302.802" r="55.276"/>
				<circle fill="#F5F5F5" cx="702.678" cy="302.802" r="1.417"/>
			</g>
			<g>
				<circle opacity="0.75" fill="#A7C8AF" cx="531.891" cy="302.802" r="29.764"/>
				<circle fill="#F5F5F5" cx="531.346" cy="302.802" r="1.417"/>
			</g>
		</g>
		<g>
			<g opacity="0.8">
				<line fill="none" stroke="#A7C8AF" stroke-miterlimit="10" x1="868.133" y1="295.568" x2="882.306" y2="309.742"/>
				<line fill="none" stroke="#A7C8AF" stroke-miterlimit="10" x1="868.133" y1="309.742" x2="882.306" y2="295.568"/>
			</g>
			<circle fill="#F6F6F6" cx="875.28" cy="302.734" r="1.417"/>
		</g>
	</g>
	<g>
		<g>
			<circle fill="#BBA595" cx="27.112" cy="802" r="7.087"/>
			<circle fill="#F5F5F5" cx="27.112" cy="802" r="1.417"/>
		</g>
		<g>
			<g>
				
					<line fill="none" stroke="#262625" stroke-width="0.75" stroke-miterlimit="10" x1="37.033" y1="794.913" x2="39.868" y2="794.913"/>
				
					<line fill="none" stroke="#262625" stroke-width="0.75" stroke-miterlimit="10" x1="37.033" y1="809.086" x2="39.868" y2="809.086"/>
			</g>
			
				<line fill="none" stroke="#262625" stroke-width="0.5" stroke-linecap="round" stroke-miterlimit="10" stroke-dasharray="0.75,1.5" x1="38.451" y1="794.913" x2="38.451" y2="809.086"/>
		</g>
		<g>
			<g>
				
					<line fill="none" stroke="#262625" stroke-width="0.75" stroke-miterlimit="10" x1="20.025" y1="792.078" x2="20.025" y2="789.244"/>
				
					<line fill="none" stroke="#262625" stroke-width="0.75" stroke-miterlimit="10" x1="34.199" y1="792.078" x2="34.199" y2="789.244"/>
			</g>
			
				<line fill="none" stroke="#262625" stroke-width="0.5" stroke-linecap="round" stroke-miterlimit="10" stroke-dasharray="0.75,1.5" x1="20.025" y1="790.661" x2="34.199" y2="790.661"/>
		</g>
	</g>
	<g>
		<path fill="#262625" d="M49.347,806.648v-8.376l-2.312,1.695v-1.331l2.382-1.723h1.148v9.735H49.347z"/>
		<path fill="#262625" d="M62.618,806.83c-2.227,0-3.628-1.345-3.628-3.824v-6.289h1.247v6.317c0,1.583,0.658,2.633,2.381,2.633
			c1.724,0,2.382-1.051,2.382-2.633v-6.317h1.246v6.289C66.246,805.486,64.846,806.83,62.618,806.83z"/>
		<path fill="#262625" d="M75.542,806.648l-4.875-7.984v7.984h-1.204v-9.931h1.4l4.875,8.012v-8.012h1.204v9.931H75.542z"/>
		<path fill="#262625" d="M80.438,806.648v-9.931h1.274v9.931H80.438z"/>
		<path fill="#262625" d="M88.21,797.88v8.769h-1.261v-8.769h-2.956v-1.163h7.172v1.163H88.21z"/>
	</g>
	<g>
		<path fill="#262625" d="M48.229,826.204c-1.308-1.476-2.015-3.622-2.015-5.565c0-1.942,0.707-4.09,2.015-5.564l0.636,0.443
			c-1.151,1.523-1.764,3.143-1.764,5.121c0,1.979,0.612,3.599,1.764,5.121L48.229,826.204z"/>
		<path fill="#262625" d="M53.017,824.501v-7.172l-1.979,1.451v-1.14l2.039-1.476h0.983v8.336H53.017z"/>
		<path fill="#262625" d="M64.392,824.656c-1.907,0-3.106-1.151-3.106-3.273v-5.386h1.067v5.409c0,1.355,0.564,2.255,2.039,2.255
			c1.476,0,2.039-0.899,2.039-2.255v-5.409h1.067v5.386C67.498,823.505,66.299,824.656,64.392,824.656z"/>
		<path fill="#262625" d="M75.466,824.501l-4.173-6.837v6.837h-1.032v-8.504h1.2l4.173,6.86v-6.86h1.032v8.504H75.466z"/>
		<path fill="#262625" d="M79.669,824.501v-8.504h1.092v8.504H79.669z"/>
		<path fill="#262625" d="M86.328,816.993v7.508h-1.08v-7.508h-2.53v-0.996h6.141v0.996H86.328z"/>
		<path fill="#262625" d="M93.936,820.375v-0.924h5.781v0.924H93.936z M93.936,822.893v-0.924h5.781v0.924H93.936z"/>
		<path fill="#262625" d="M111.671,824.501v-7.172l-1.979,1.451v-1.14l2.039-1.476h0.983v8.336H111.671z"/>
		<path fill="#262625" d="M125.228,824.501l-0.695-2.015h-3.694l-0.684,2.015h-1.079l2.998-8.504h1.248l3.01,8.504H125.228z
			 M122.674,817.064l-1.499,4.414h3.011L122.674,817.064z"/>
		<path fill="#262625" d="M133.257,824.501l-1.607-3.538h-2.351v3.538h-1.067v-8.504h3.334c0.995,0,1.691,0.276,2.159,0.756
			c0.407,0.432,0.671,0.983,0.671,1.728c0,0.743-0.239,1.247-0.647,1.679c-0.252,0.264-0.611,0.468-1.02,0.6l1.703,3.742H133.257z
			 M131.565,816.98h-2.267v2.986h2.267c1.008,0,1.728-0.407,1.728-1.486C133.293,817.4,132.573,816.98,131.565,816.98z"/>
		<path fill="#262625" d="M139.222,816.993v7.508h-1.079v-7.508h-2.531v-0.996h6.141v0.996H139.222z"/>
		<path fill="#262625" d="M143.711,824.501v-8.504h1.092v8.504H143.711z"/>
		<path fill="#262625" d="M152.889,823.757c-0.516,0.516-1.355,0.912-2.279,0.912c-0.852,0-1.69-0.312-2.303-0.912
			c-0.923-0.899-1.067-2.146-1.067-3.502s0.145-2.603,1.067-3.502c0.612-0.6,1.451-0.911,2.303-0.911
			c0.924,0,1.751,0.359,2.267,0.875c0.492,0.504,0.804,1.151,0.84,1.943h-1.104c-0.012-0.468-0.191-0.876-0.468-1.188
			c-0.336-0.372-0.888-0.624-1.535-0.624c-0.575,0-1.14,0.229-1.547,0.648c-0.695,0.719-0.72,1.87-0.72,2.758
			s0.024,2.039,0.72,2.759c0.407,0.42,0.972,0.647,1.547,0.647c0.647,0,1.212-0.275,1.547-0.647
			c0.276-0.312,0.456-0.756,0.468-1.224h1.104C153.691,822.582,153.38,823.254,152.889,823.757z"/>
		<path fill="#262625" d="M156.011,824.501v-8.504h1.067v7.508h4.09v0.996H156.011z"/>
		<path fill="#262625" d="M163.139,824.501v-8.504h5.685v0.983h-4.617v2.591h4.054v1.008h-4.054v2.938h4.617v0.983H163.139z"/>
		<path fill="#262625" d="M170.854,826.204l-0.636-0.444c1.151-1.522,1.764-3.142,1.764-5.121c0-1.979-0.612-3.598-1.764-5.121
			l0.636-0.443c1.308,1.475,2.016,3.622,2.016,5.564C172.87,822.582,172.162,824.728,170.854,826.204z"/>
	</g>
	<g>
		<g>
			<g>
				<line fill="none" stroke="#BAA494" stroke-miterlimit="10" x1="20.025" y1="852.88" x2="34.199" y2="867.053"/>
				<line fill="none" stroke="#BAA494" stroke-miterlimit="10" x1="20.025" y1="867.053" x2="34.199" y2="852.88"/>
			</g>
			<g>
				<circle fill="#F4F4F4" cx="27.112" cy="859.966" r="1.417"/>
			</g>
		</g>
		<g>
			<path fill="#272825" d="M51.938,865.527l-4.874-7.984v7.984h-1.205v-9.931h1.401l4.874,8.012v-8.012h1.205v9.931H51.938z"/>
			<path fill="#272825" d="M62.803,864.658c-0.714,0.701-1.681,1.065-2.676,1.065c-0.994,0-1.961-0.364-2.675-1.065
				c-1.079-1.05-1.275-2.507-1.275-4.09c0-1.583,0.196-3.04,1.275-4.09c0.714-0.7,1.681-1.064,2.675-1.064
				c0.995,0,1.962,0.364,2.676,1.064c1.079,1.05,1.274,2.507,1.274,4.09C64.077,862.151,63.882,863.608,62.803,864.658z
				 M61.934,857.346c-0.477-0.49-1.135-0.742-1.808-0.742c-0.672,0-1.33,0.252-1.807,0.742c-0.812,0.841-0.854,2.186-0.854,3.222
				s0.042,2.381,0.854,3.222c0.477,0.49,1.135,0.742,1.807,0.742c0.673,0,1.331-0.252,1.808-0.742
				c0.812-0.84,0.854-2.185,0.854-3.222S62.747,858.187,61.934,857.346z"/>
			<path fill="#272825" d="M72.994,865.527l-4.874-7.984v7.984h-1.205v-9.931h1.401l4.874,8.012v-8.012h1.205v9.931H72.994z"/>
			<path fill="#272825" d="M77.892,865.527v-9.931h6.64v1.148h-5.394v3.025h4.734v1.177h-4.734v3.432h5.394v1.148H77.892z"/>
		</g>
	</g>
</g>
</svg>
