<?xml version="1.0" encoding="utf-8"?>
<!-- Generator: Adobe Illustrator 17.0.0, SVG Export Plug-In . SVG Version: 6.00 Build 0)  -->
<!DOCTYPE svg PUBLIC "-//W3C//DTD SVG 1.1//EN" "http://www.w3.org/Graphics/SVG/1.1/DTD/svg11.dtd">
<svg version="1.1" id="Layer_1" xmlns="http://www.w3.org/2000/svg" xmlns:xlink="http://www.w3.org/1999/xlink" x="0px" y="0px"
	 width="113.89px" height="79.26px" viewBox="531.739 223.676 113.89 79.26" enable-background="new 531.739 223.676 113.89 79.26"
	 xml:space="preserve">
<g id="Livello_1" display="none">
	
		<rect x="-115.68" y="-247" display="inline" opacity="0.9" fill="#EDE2D7" enable-background="new    " width="1408.819" height="996.142"/>
	<rect x="-115.68" y="-247" display="inline" fill="#EDE2D7" width="1408.819" height="996.142"/>
</g>
<g>
	<g>
		<polygon fill="#1B1B1A" points="539.146,235.354 538.736,234.999 539.146,234.645 		"/>
		<path fill="#1B1B1A" d="M539.146,235.406c-0.012,0-0.024-0.004-0.034-0.013l-0.41-0.355c-0.011-0.01-0.018-0.024-0.018-0.039
			s0.007-0.03,0.018-0.039l0.41-0.355c0.016-0.013,0.037-0.016,0.056-0.008c0.019,0.008,0.031,0.027,0.031,0.047v0.709
			c0,0.02-0.012,0.039-0.031,0.047C539.161,235.405,539.153,235.406,539.146,235.406z M538.816,234.999l0.278,0.24v-0.481
			L538.816,234.999z"/>
	</g>
	<g>
		<polygon fill="#1B1B1A" points="539.146,259.872 538.736,259.517 539.146,259.162 		"/>
		<path fill="#1B1B1A" d="M539.146,259.924c-0.012,0-0.024-0.004-0.034-0.013l-0.41-0.355c-0.011-0.01-0.018-0.024-0.018-0.039
			s0.007-0.03,0.018-0.039l0.41-0.355c0.015-0.013,0.037-0.016,0.056-0.008c0.019,0.009,0.031,0.027,0.031,0.048v0.71
			c0,0.02-0.012,0.039-0.031,0.048C539.161,259.922,539.153,259.924,539.146,259.924z M538.816,259.517l0.278,0.241v-0.481
			L538.816,259.517z"/>
	</g>
	<g>
		<polygon fill="#1B1B1A" points="539.146,269.492 538.736,269.137 539.146,268.782 		"/>
		<path fill="#1B1B1A" d="M539.146,269.544c-0.012,0-0.024-0.004-0.034-0.013l-0.41-0.355c-0.011-0.01-0.018-0.024-0.018-0.039
			s0.007-0.03,0.018-0.039l0.41-0.355c0.015-0.013,0.037-0.016,0.056-0.008c0.019,0.009,0.031,0.027,0.031,0.048v0.71
			c0,0.02-0.012,0.039-0.031,0.048C539.161,269.542,539.153,269.544,539.146,269.544z M538.816,269.137l0.278,0.241v-0.481
			L538.816,269.137z"/>
	</g>
	<g>
		<polygon fill="#1B1B1A" points="539.146,250.654 538.736,250.299 539.146,249.944 		"/>
		<path fill="#1B1B1A" d="M539.146,250.706c-0.012,0-0.024-0.004-0.034-0.013l-0.41-0.355c-0.011-0.01-0.018-0.024-0.018-0.039
			s0.007-0.03,0.018-0.039l0.41-0.355c0.016-0.013,0.037-0.017,0.056-0.008c0.019,0.008,0.031,0.027,0.031,0.047v0.71
			c0,0.02-0.012,0.039-0.031,0.047C539.161,250.704,539.153,250.706,539.146,250.706z M538.816,250.299l0.278,0.241v-0.481
			L538.816,250.299z"/>
	</g>
	<g id="Pro_x2A_">
		<path opacity="0.4" fill="#A7C8AF" enable-background="new    " d="M540.189,249.239v-3.962c10.727,0,20.001-0.952,28.352-2.911
			c7.443-1.746,13.542-4.13,19.44-6.435c12.096-4.728,24.605-9.618,49.235-9.618v3.962c-10.727,0-20.001,0.952-28.352,2.911
			c-7.443,1.746-13.542,4.13-19.44,6.435C577.328,244.35,564.819,249.239,540.189,249.239z"/>
		<path opacity="0.4" fill="#A7C8AF" enable-background="new    " d="M637.216,264.795c-24.326,0-36.692-2.62-48.65-5.154
			c-11.892-2.52-24.189-5.125-48.377-5.125v-1.321c24.326,0,36.692,2.62,48.65,5.154c11.892,2.52,24.189,5.125,48.377,5.125V264.795
			z"/>
		<path opacity="0.4" fill="#A7C8AF" enable-background="new    " d="M540.189,250.557v-1.321c24.207,0,36.513-1.868,48.414-3.675
			c11.95-1.814,24.306-3.69,48.613-3.69v1.321c-24.207,0-36.513,1.868-48.414,3.675
			C576.852,248.682,564.496,250.557,540.189,250.557z"/>
		<path opacity="0.4" fill="#A7C8AF" enable-background="new    " d="M637.216,259.794c-24.301,0-36.655-1.68-48.602-3.305
			c-11.904-1.619-24.212-3.293-48.424-3.293v-1.321c24.301,0,36.655,1.68,48.602,3.305c11.904,1.619,24.212,3.293,48.424,3.293
			V259.794z"/>
		<path opacity="0.4" fill="#A7C8AF" enable-background="new    " d="M637.216,253.472c-24.268,0-36.604-0.406-48.535-0.798
			c-11.92-0.392-24.246-0.797-48.492-0.797v-1.321c24.268,0,36.604,0.406,48.535,0.798c11.92,0.392,24.246,0.797,48.492,0.797
			V253.472z"/>
	</g>
	<g id="Neutral">
		<path opacity="0.4" fill="#F6A000" enable-background="new    " d="M540.189,259.519v-3.962c10.678,0,19.907-1.263,28.214-3.86
			c7.412-2.318,13.227-5.349,19.384-8.558c12.137-6.326,24.687-12.867,49.429-12.867v3.962c-10.678,0-19.907,1.263-28.214,3.86
			c-7.412,2.318-13.227,5.349-19.384,8.558C577.481,252.978,564.931,259.519,540.189,259.519z"/>
		<path opacity="0.4" fill="#F6A000" enable-background="new    " d="M637.216,273.479c-24.324,0-36.689-2.55-48.647-5.015
			c-11.893-2.452-24.191-4.988-48.38-4.988v-1.321c24.324,0,36.689,2.55,48.647,5.015c11.893,2.452,24.191,4.988,48.38,4.988
			V273.479z"/>
		<path opacity="0.4" fill="#F6A000" enable-background="new    " d="M540.189,260.837v-1.321c10.837,0,20.217-0.83,28.674-2.538
			c7.54-1.522,13.685-3.59,19.629-5.59c11.976-4.03,24.359-8.197,48.724-8.197v1.321c-10.837,0-20.217,0.83-28.674,2.538
			c-7.539,1.522-13.685,3.59-19.629,5.59C576.938,256.67,564.554,260.837,540.189,260.837z"/>
		<path opacity="0.4" fill="#F6A000" enable-background="new    " d="M540.189,262.156v-1.321c24.207,0,36.513-1.868,48.414-3.675
			c11.95-1.814,24.306-3.69,48.613-3.69v1.321c-24.207,0-36.513,1.868-48.414,3.675
			C576.852,260.281,564.496,262.156,540.189,262.156z"/>
	</g>
	<g id="Cons">
		<path opacity="0.4" fill="#AF1922" enable-background="new    " d="M540.189,272.437v-3.962c10.688,0,19.926-1.198,28.242-3.663
			c7.418-2.199,13.506-5.206,19.394-8.115c12.129-5.992,24.672-12.187,49.391-12.187v3.962c-10.688,0-19.926,1.198-28.242,3.663
			c-7.418,2.199-13.506,5.206-19.394,8.115C577.451,266.241,564.909,272.437,540.189,272.437z"/>
		<path opacity="0.4" fill="#AF1922" enable-background="new    " d="M540.189,268.479v-3.962c10.64,0,19.835-1.507,28.11-4.606
			c7.394-2.77,13.204-6.396,19.354-10.236c12.162-7.593,24.738-15.444,49.563-15.444v3.962c-10.64,0-19.835,1.507-28.11,4.606
			c-7.394,2.77-13.204,6.396-19.354,10.236C577.59,260.628,565.014,268.479,540.189,268.479z"/>
		<path opacity="0.4" fill="#AF1922" enable-background="new    " d="M540.189,273.755v-1.321c24.23,0,36.548-1.005,48.46-1.977
			c11.939-0.974,24.284-1.981,48.567-1.981v1.321c-24.23,0-36.548,1.005-48.46,1.977
			C576.818,272.748,564.473,273.755,540.189,273.755z"/>
	</g>
	<g id="Pro">
		<path opacity="0.4" fill="#1F8E6C" enable-background="new    " d="M637.216,263.477c-24.571,0-37.046-6.304-49.109-12.401
			c-5.912-2.988-12.026-6.078-19.496-8.343c-8.375-2.54-17.672-3.774-28.422-3.774v-2.641c24.571,0,37.046,6.304,49.109,12.401
			c5.912,2.988,12.026,6.078,19.496,8.343c8.375,2.54,17.672,3.774,28.422,3.774V263.477z"/>
		<path opacity="0.4" fill="#1F8E6C" enable-background="new    " d="M540.189,228.403v-2.641c24.228,0,36.545-0.53,48.457-1.042
			c11.939-0.514,24.285-1.044,48.57-1.044v2.641c-24.228,0-36.545,0.53-48.457,1.042
			C576.82,227.872,564.474,228.403,540.189,228.403z"/>
		<path opacity="0.4" fill="#1F8E6C" enable-background="new    " d="M637.216,268.478c-24.598,0-37.081-6.917-49.154-13.606
			c-5.91-3.275-12.021-6.661-19.485-9.142c-8.365-2.781-17.651-4.133-28.388-4.133v-2.641c24.598,0,37.081,6.917,49.154,13.606
			c5.91,3.275,12.021,6.661,19.485,9.142c8.365,2.781,17.651,4.133,28.388,4.133V268.478z"/>
		<path opacity="0.4" fill="#1F8E6C" enable-background="new    " d="M637.216,252.154c-24.5,0-36.946-4.739-48.983-9.323
			c-5.92-2.254-12.042-4.585-19.533-6.297c-8.404-1.92-17.729-2.853-28.511-2.853v-2.641c24.5,0,36.946,4.739,48.983,9.323
			c5.92,2.254,12.042,4.585,19.533,6.297c8.404,1.92,17.729,2.853,28.511,2.853V252.154z"/>
		<path opacity="0.4" fill="#1F8E6C" enable-background="new    " d="M637.216,258.475c-24.544,0-37.008-5.692-49.062-11.197
			c-5.915-2.701-12.031-5.494-19.509-7.543c-8.386-2.298-17.694-3.415-28.456-3.415v-2.641c24.544,0,37.008,5.692,49.062,11.197
			c5.915,2.701,12.031,5.494,19.509,7.543c8.386,2.298,17.694,3.415,28.456,3.415V258.475z"/>
		<path opacity="0.4" fill="#1F8E6C" enable-background="new    " d="M637.216,241.874c-24.402,0-36.806-2.769-48.801-5.448
			c-11.855-2.647-24.115-5.384-48.226-5.384v-2.641c24.402,0,36.806,2.769,48.801,5.448c11.855,2.647,24.115,5.384,48.226,5.384
			V241.874z"/>
		<path opacity="0.4" fill="#1F8E6C" enable-background="new    " d="M637.216,272.16c-10.959,0-20.455-1.508-29.029-4.609
			c-7.641-2.764-13.835-6.497-19.825-10.108c-5.935-3.578-12.073-7.277-19.592-9.997c-8.428-3.048-17.777-4.53-28.58-4.53v-1.321
			c10.959,0,20.455,1.507,29.029,4.609c7.641,2.764,13.835,6.497,19.825,10.108c5.935,3.578,12.073,7.277,19.592,9.997
			c8.428,3.048,17.777,4.53,28.58,4.53V272.16z"/>
		<path opacity="0.4" fill="#1F8E6C" enable-background="new    " d="M637.216,275.842c-10.965,0-20.466-1.63-29.045-4.984
			c-7.643-2.988-13.838-7.023-19.829-10.926c-5.935-3.866-12.071-7.864-19.589-10.803c-8.423-3.293-17.767-4.893-28.564-4.893
			v-1.321c10.965,0,20.466,1.63,29.045,4.984c7.643,2.988,13.838,7.023,19.829,10.926c5.935,3.866,12.071,7.864,19.588,10.803
			c8.423,3.292,17.767,4.893,28.565,4.893V275.842z"/>
	</g>
	<g>
		<polygon fill="#1B1B1A" points="638.222,230.626 638.632,230.98 638.222,231.335 		"/>
		<path fill="#1B1B1A" d="M638.222,231.387c-0.007,0-0.015-0.002-0.022-0.005c-0.019-0.008-0.031-0.027-0.031-0.047v-0.709
			c0-0.02,0.012-0.039,0.031-0.047c0.019-0.009,0.04-0.005,0.056,0.008l0.41,0.355c0.011,0.01,0.018,0.024,0.018,0.039
			s-0.007,0.03-0.018,0.039l-0.41,0.355C638.246,231.383,638.234,231.387,638.222,231.387z M638.274,230.74v0.481l0.278-0.241
			L638.274,230.74z"/>
	</g>
	<g>
		<polygon fill="#1B1B1A" points="638.222,243.497 638.632,243.852 638.222,244.207 		"/>
		<path fill="#1B1B1A" d="M638.222,244.259c-0.007,0-0.015-0.002-0.022-0.005c-0.019-0.008-0.031-0.027-0.031-0.047v-0.71
			c0-0.02,0.012-0.039,0.031-0.047c0.019-0.009,0.04-0.005,0.056,0.008l0.41,0.355c0.011,0.01,0.018,0.024,0.018,0.039
			s-0.007,0.03-0.018,0.039l-0.41,0.355C638.246,244.255,638.234,244.259,638.222,244.259z M638.274,243.612v0.481l0.278-0.241
			L638.274,243.612z"/>
	</g>
	<g>
		<polygon fill="#1B1B1A" points="638.222,251.826 638.632,252.181 638.222,252.536 		"/>
		<path fill="#1B1B1A" d="M638.222,252.588c-0.007,0-0.015-0.002-0.022-0.005c-0.019-0.009-0.031-0.027-0.031-0.048v-0.71
			c0-0.02,0.012-0.039,0.031-0.047c0.019-0.009,0.04-0.005,0.056,0.008l0.41,0.355c0.011,0.01,0.018,0.024,0.018,0.039
			s-0.007,0.03-0.018,0.039l-0.41,0.355C638.246,252.584,638.234,252.588,638.222,252.588z M638.274,251.941v0.481l0.278-0.241
			L638.274,251.941z"/>
	</g>
	<g>
		<polygon fill="#1B1B1A" points="638.222,257.459 638.632,257.814 638.222,258.169 		"/>
		<path fill="#1B1B1A" d="M638.222,258.221c-0.007,0-0.015-0.002-0.022-0.005c-0.019-0.009-0.031-0.027-0.031-0.048v-0.71
			c0-0.02,0.012-0.039,0.031-0.048c0.019-0.008,0.04-0.005,0.056,0.008l0.41,0.355c0.011,0.01,0.018,0.024,0.018,0.039
			s-0.007,0.03-0.018,0.039l-0.41,0.355C638.246,258.216,638.234,258.221,638.222,258.221z M638.274,257.573v0.481l0.278-0.24
			L638.274,257.573z"/>
	</g>
	<g>
		<polygon fill="#1B1B1A" points="638.222,262.461 638.632,262.816 638.222,263.17 		"/>
		<path fill="#1B1B1A" d="M638.222,263.223c-0.007,0-0.015-0.002-0.022-0.005c-0.019-0.009-0.031-0.027-0.031-0.048v-0.71
			c0-0.02,0.012-0.039,0.031-0.048c0.019-0.008,0.04-0.005,0.056,0.008l0.41,0.355c0.011,0.01,0.018,0.024,0.018,0.039
			s-0.007,0.03-0.018,0.039l-0.41,0.355C638.246,263.218,638.234,263.223,638.222,263.223z M638.274,262.575v0.481l0.278-0.241
			L638.274,262.575z"/>
	</g>
	<g>
		<polygon fill="#1B1B1A" points="638.222,267.462 638.632,267.817 638.222,268.172 		"/>
		<path fill="#1B1B1A" d="M638.222,268.224c-0.007,0-0.015-0.002-0.022-0.005c-0.019-0.009-0.031-0.027-0.031-0.048v-0.71
			c0-0.02,0.012-0.039,0.031-0.048c0.019-0.008,0.04-0.005,0.056,0.008l0.41,0.355c0.011,0.01,0.018,0.024,0.018,0.039
			s-0.007,0.03-0.018,0.039l-0.41,0.355C638.246,268.22,638.234,268.224,638.222,268.224z M638.274,267.577v0.481l0.278-0.241
			L638.274,267.577z"/>
	</g>
	<g>
		<polygon fill="#1B1B1A" points="638.222,271.804 638.632,272.159 638.222,272.514 		"/>
		<path fill="#1B1B1A" d="M638.222,272.566c-0.007,0-0.015-0.002-0.022-0.005c-0.019-0.009-0.031-0.027-0.031-0.048v-0.71
			c0-0.02,0.012-0.039,0.031-0.048c0.019-0.008,0.04-0.005,0.056,0.008l0.41,0.355c0.011,0.01,0.018,0.024,0.018,0.039
			s-0.007,0.03-0.018,0.039l-0.41,0.355C638.246,272.562,638.234,272.566,638.222,272.566z M638.274,271.919v0.481l0.278-0.24
			L638.274,271.919z"/>
	</g>
	<g>
		<polygon fill="#1B1B1A" points="638.222,274.827 638.632,275.182 638.222,275.536 		"/>
		<path fill="#1B1B1A" d="M638.222,275.589c-0.007,0-0.015-0.002-0.022-0.005c-0.019-0.009-0.031-0.027-0.031-0.048v-0.71
			c0-0.02,0.012-0.039,0.031-0.048c0.019-0.008,0.04-0.005,0.056,0.008l0.41,0.355c0.011,0.01,0.018,0.024,0.018,0.039
			s-0.007,0.03-0.018,0.039l-0.41,0.355C638.246,275.584,638.234,275.589,638.222,275.589z M638.274,274.941v0.481l0.278-0.241
			L638.274,274.941z"/>
	</g>
	<rect x="637.216" y="223.676" fill="#1B1B1A" width="1.043" height="14.514">
	<title>a_Expert
11</title>
	</rect>
	<rect x="637.216" y="239.234" fill="#1B1B1A" width="1.043" height="9.236">
	<title>b_MD
7</title>
	</rect>
	<rect x="637.216" y="249.513" fill="#1B1B1A" width="1.043" height="5.278">
	<title>c_Journalist
4</title>
	</rect>
	<rect x="637.216" y="255.835" fill="#1B1B1A" width="1.043" height="3.958">
	<title>d_Academics
3</title>
	</rect>
	<rect x="637.216" y="260.836" fill="#1B1B1A" width="1.043" height="3.958">
	<title>e_Organization
3</title>
	</rect>
	<rect x="637.216" y="265.838" fill="#1B1B1A" width="1.043" height="3.958">
	<title>f_Undefined
3</title>
	</rect>
	<rect x="637.216" y="270.84" fill="#1B1B1A" width="1.043" height="2.639">
	<title>g_Writer
2</title>
	</rect>
	<rect x="637.216" y="274.522" fill="#1B1B1A" width="1.043" height="1.319">
	<title>h_Industry
1</title>
	</rect>
	<rect x="539.146" y="225.763" fill="#1B1B1A" width="1.043" height="18.473">
	<title>a_Pro
14</title>
	</rect>
	<rect x="539.146" y="245.279" fill="#1B1B1A" width="1.043" height="9.236">
	<title>b_Pro*
7</title>
	</rect>
	<rect x="539.146" y="255.558" fill="#1B1B1A" width="1.043" height="7.917">
	<title>c_Neutral
6</title>
	</rect>
	<rect x="539.146" y="264.519" fill="#1B1B1A" width="1.043" height="9.236">
	<title>d_Cons
7</title>
	</rect>
</g>
<g id="Diseases" display="none">
	<g id="Barre_1_" display="inline">
		<rect x="1053.32" y="1" fill="#1B1B1A" width="10" height="110.526">
		<title>a_Academics
14</title>
		</rect>
		<rect x="1053.32" y="121.526" fill="#1B1B1A" width="10" height="102.632">
		<title>b_Expert
13</title>
		</rect>
		<rect x="1053.32" y="234.158" fill="#1B1B1A" width="10" height="71.053">
		<title>c_MD
9</title>
		</rect>
		<rect x="1053.32" y="315.211" fill="#1B1B1A" width="10" height="71.053">
		<title>d_Undefined
9</title>
		</rect>
		<rect x="1053.32" y="396.263" fill="#1B1B1A" width="10" height="55.263">
		<title>e_Writer
7</title>
		</rect>
		<rect x="1053.32" y="461.526" fill="#1B1B1A" width="10" height="39.474">
		<title>f_Journalist
5</title>
		</rect>
		<rect x="113.32" y="6" fill="#1B1B1A" width="10" height="63.158">
		<title>a_Pro
8</title>
		</rect>
		<rect x="113.32" y="79.158" fill="#1B1B1A" width="10" height="102.632">
		<title>b_Pro*
13</title>
		</rect>
		<rect x="113.32" y="191.789" fill="#1B1B1A" width="10" height="142.105">
		<title>c_Neutral
18</title>
		</rect>
		<rect x="113.32" y="343.895" fill="#1B1B1A" width="10" height="31.579">
		<title>d_Cons*
4</title>
		</rect>
		<rect x="113.32" y="385.474" fill="#1B1B1A" width="10" height="110.526">
		<title>e_Cons
14</title>
		</rect>
	</g>
	<g id="Livello_8" display="inline">
		<g id="Cons_1_">
			<path fill="none" stroke="#AF1922" stroke-width="31.5789" stroke-opacity="0.4" d="M123.32,424.947
				c465,0,465-135.526,930-135.526"/>
			<path fill="none" stroke="#AF1922" stroke-width="31.5789" stroke-opacity="0.4" d="M123.32,456.526c465,0,465-86.053,930-86.053
				"/>
			<path fill="none" stroke="#AF1922" stroke-width="15.7895" stroke-opacity="0.4" d="M123.32,480.211c465,0,465-36.579,930-36.579
				"/>
			<path fill="none" stroke="#AF1922" stroke-width="15.7895" stroke-opacity="0.4" d="M123.32,401.263c465,0,465-185,930-185"/>
			<path fill="none" stroke="#AF1922" stroke-width="7.8947" stroke-opacity="0.4" d="M123.32,492.053c465,0,465,5,930,5"/>
			<path fill="none" stroke="#AF1922" stroke-width="7.8947" stroke-opacity="0.4" d="M123.32,389.421
				c465,0,465-281.842,930-281.842"/>
		</g>
		<g id="Neutral_1_">
			<path fill="none" stroke="#F6A000" stroke-width="55.2632" stroke-opacity="0.4" d="M123.32,219.421
				c465,0,465-143.421,930-143.421"/>
			<path fill="none" stroke="#F6A000" stroke-width="39.4737" stroke-opacity="0.4" d="M123.32,266.789c465,0,465-78.158,930-78.158
				"/>
			<path fill="none" stroke="#F6A000" stroke-width="15.7895" stroke-opacity="0.4" d="M123.32,326c465,0,465,151.316,930,151.316"
				/>
			<path fill="none" stroke="#F6A000" stroke-width="15.7895" stroke-opacity="0.4" d="M123.32,310.211
				c465,0,465,117.632,930,117.632"/>
			<path fill="none" stroke="#F6A000" stroke-width="7.8947" stroke-opacity="0.4" d="M123.32,298.368c465,0,465,36.579,930,36.579"
				/>
			<path fill="none" stroke="#F6A000" stroke-width="7.8947" stroke-opacity="0.4" d="M123.32,290.474c465,0,465-28.684,930-28.684"
				/>
		</g>
		<g id="Cons_x2A_">
			<path fill="none" stroke="#F08575" stroke-width="15.7895" stroke-opacity="0.4" d="M123.32,359.684c465,0,465-12.895,930-12.895
				"/>
			<path fill="none" stroke="#F08575" stroke-width="7.8947" stroke-opacity="0.4" d="M123.32,347.842c465,0,465-78.158,930-78.158"
				/>
			<path fill="none" stroke="#F08575" stroke-width="7.8947" stroke-opacity="0.4" d="M123.32,371.526
				c465,0,465,117.632,930,117.632"/>
		</g>
		<g id="Pro_x2A__1_">
			<path fill="none" stroke="#A7C8AF" stroke-width="47.3684" stroke-opacity="0.4" d="M123.32,118.632c465,0,465,26.579,930,26.579
				"/>
			<path fill="none" stroke="#A7C8AF" stroke-width="15.7895" stroke-opacity="0.4" d="M123.32,166c465,0,465,246.053,930,246.053"
				/>
			<path fill="none" stroke="#A7C8AF" stroke-width="15.7895" stroke-opacity="0.4" d="M123.32,87.053c465,0,465-46.579,930-46.579"
				/>
			<path fill="none" stroke="#A7C8AF" stroke-width="7.8947" stroke-opacity="0.4" d="M123.32,146.263
				c465,0,465,107.632,930,107.632"/>
			<path fill="none" stroke="#A7C8AF" stroke-width="7.8947" stroke-opacity="0.4" d="M123.32,154.158
				c465,0,465,172.895,930,172.895"/>
			<path fill="none" stroke="#A7C8AF" stroke-width="7.8947" stroke-opacity="0.4" d="M123.32,177.842
				c465,0,465,287.632,930,287.632"/>
		</g>
		<g id="Pro_1_">
			<path fill="none" stroke="#1F8E6C" stroke-width="31.5789" stroke-opacity="0.4" d="M123.32,21.789c465,0,465-5,930-5"/>
			<path fill="none" stroke="#1F8E6C" stroke-width="15.7895" stroke-opacity="0.4" d="M123.32,45.474
				c465,0,465,196.579,930,196.579"/>
			<path fill="none" stroke="#1F8E6C" stroke-width="7.8947" stroke-opacity="0.4" d="M123.32,65.211c465,0,465,335,930,335"/>
			<path fill="none" stroke="#1F8E6C" stroke-width="7.8947" stroke-opacity="0.4" d="M123.32,57.316c465,0,465,261.842,930,261.842
				"/>
		</g>
	</g>
	<g id="Nomi_1_" display="inline">
		<polygon fill="#1B1B1A" stroke="#1B1B1A" stroke-linejoin="round" stroke-miterlimit="10" points="114.32,40.979 110.391,37.579 
			114.32,34.178 		"/>
		<polygon fill="#1B1B1A" stroke="#1B1B1A" stroke-linejoin="round" stroke-miterlimit="10" points="114.32,266.242 
			110.391,262.842 114.32,259.441 		"/>
		<polygon fill="#1B1B1A" stroke="#1B1B1A" stroke-linejoin="round" stroke-miterlimit="10" points="114.32,444.137 
			110.391,440.737 114.32,437.336 		"/>
		<polygon fill="#1B1B1A" stroke="#1B1B1A" stroke-linejoin="round" stroke-miterlimit="10" points="114.32,133.874 
			110.391,130.473 114.32,127.073 		"/>
		<polygon fill="#1B1B1A" stroke="#1B1B1A" stroke-linejoin="round" stroke-miterlimit="10" points="114.32,363.085 
			110.391,359.684 114.32,356.283 		"/>
		<polygon fill="#1B1B1A" stroke="#1B1B1A" stroke-linejoin="round" stroke-miterlimit="10" points="1063.037,52.863 
			1066.966,56.263 1063.037,59.664 		"/>
		<polygon fill="#1B1B1A" stroke="#1B1B1A" stroke-linejoin="round" stroke-miterlimit="10" points="1063.037,169.441 
			1066.966,172.842 1063.037,176.243 		"/>
		<polygon fill="#1B1B1A" stroke="#1B1B1A" stroke-linejoin="round" stroke-miterlimit="10" points="1063.037,266.284 
			1066.966,269.684 1063.037,273.085 		"/>
		<polygon fill="#1B1B1A" stroke="#1B1B1A" stroke-linejoin="round" stroke-miterlimit="10" points="1063.037,347.336 
			1066.966,350.737 1063.037,354.137 		"/>
		<polygon fill="#1B1B1A" stroke="#1B1B1A" stroke-linejoin="round" stroke-miterlimit="10" points="1063.037,420.494 
			1066.966,423.895 1063.037,427.295 		"/>
		<polygon fill="#1B1B1A" stroke="#1B1B1A" stroke-linejoin="round" stroke-miterlimit="10" points="1063.037,477.863 
			1066.966,481.263 1063.037,484.664 		"/>
	</g>
	<g display="inline">
		<line fill="none" stroke="#BCA695" stroke-miterlimit="10" x1="1053.345" y1="510.921" x2="1063.363" y2="520.94"/>
		<line fill="none" stroke="#BCA695" stroke-miterlimit="10" x1="1053.345" y1="520.94" x2="1063.363" y2="510.921"/>
	</g>
	<g display="inline">
		<circle fill="#1B1B1A" cx="1058.07" cy="515.931" r="1.417"/>
	</g>
	<g display="inline">
		<line fill="none" stroke="#BCA695" stroke-miterlimit="10" x1="1053.345" y1="534.18" x2="1063.363" y2="544.198"/>
		<line fill="none" stroke="#BCA695" stroke-miterlimit="10" x1="1053.345" y1="544.198" x2="1063.363" y2="534.18"/>
	</g>
	<g display="inline">
		<circle fill="#1B1B1A" cx="1058.071" cy="539.189" r="1.417"/>
	</g>
</g>
<g id="Intolerance" display="none">
	<g id="Nomi_2_" display="inline">
		<polygon fill="#1B1B1A" stroke="#1B1B1A" stroke-linejoin="round" stroke-miterlimit="10" points="114.32,83.577 110.391,80.176 
			114.32,76.775 		"/>
		<polygon fill="#1B1B1A" stroke="#1B1B1A" stroke-linejoin="round" stroke-miterlimit="10" points="114.32,256.812 
			110.391,253.411 114.32,250.011 		"/>
		<polygon fill="#1B1B1A" stroke="#1B1B1A" stroke-linejoin="round" stroke-miterlimit="10" points="114.32,425.636 
			110.391,422.235 114.32,418.834 		"/>
		<polygon fill="#1B1B1A" stroke="#1B1B1A" stroke-linejoin="round" stroke-miterlimit="10" points="1063.037,70.599 1066.966,74 
			1063.037,77.401 		"/>
		<polygon fill="#1B1B1A" stroke="#1B1B1A" stroke-linejoin="round" stroke-miterlimit="10" points="1063.037,212.952 
			1066.966,216.353 1063.037,219.754 		"/>
		<polygon fill="#1B1B1A" stroke="#1B1B1A" stroke-linejoin="round" stroke-miterlimit="10" points="1063.037,333.246 
			1066.966,336.647 1063.037,340.048 		"/>
		<polygon fill="#1B1B1A" stroke="#1B1B1A" stroke-linejoin="round" stroke-miterlimit="10" points="1063.037,418.246 
			1066.966,421.647 1063.037,425.048 		"/>
		<polygon fill="#1B1B1A" stroke="#1B1B1A" stroke-linejoin="round" stroke-miterlimit="10" points="1063.037,491.188 
			1066.966,494.588 1063.037,497.989 		"/>
		<polygon fill="#1B1B1A" stroke="#1B1B1A" stroke-linejoin="round" stroke-miterlimit="10" points="1063.037,463.541 
			1066.966,466.941 1063.037,470.342 		"/>
	</g>
	<g display="inline">
		<g id="Pro_2_">
			<path fill="none" stroke="#1F8E6C" stroke-width="35.2941" stroke-opacity="0.4" d="M123.32,66.941
				c465,0,465,109.706,930,109.706"/>
			<path fill="none" stroke="#1F8E6C" stroke-width="35.2941" stroke-opacity="0.4" d="M123.32,31.647c465,0,465-15,930-15"/>
			<path fill="none" stroke="#1F8E6C" stroke-width="26.4706" stroke-opacity="0.4" d="M123.32,97.824
				c465,0,465,199.118,930,199.118"/>
			<path fill="none" stroke="#1F8E6C" stroke-width="26.4706" stroke-opacity="0.4" d="M123.32,124.294
				c465,0,465,288.529,930,288.529"/>
			<path fill="none" stroke="#1F8E6C" stroke-width="8.8235" stroke-opacity="0.4" d="M123.32,141.941
				c465,0,465,316.176,930,316.176"/>
		</g>
		<g id="Neutral_2_">
			<path fill="none" stroke="#F6A000" stroke-width="70.5882" stroke-opacity="0.4" d="M123.32,191.647
				c465,0,465-122.059,930-122.059"/>
			<path fill="none" stroke="#F6A000" stroke-width="52.9412" stroke-opacity="0.4" d="M123.32,288.706c465,0,465,47.941,930,47.941
				"/>
			<path fill="none" stroke="#F6A000" stroke-width="35.2941" stroke-opacity="0.4" d="M123.32,244.588c465,0,465-32.647,930-32.647
				"/>
			<path fill="none" stroke="#F6A000" stroke-width="17.6471" stroke-opacity="0.4" d="M123.32,332.824
				c465,0,465,138.529,930,138.529"/>
			<path fill="none" stroke="#F6A000" stroke-width="8.8235" stroke-opacity="0.4" d="M123.32,346.059
				c465,0,465,148.529,930,148.529"/>
			<path fill="none" stroke="#F6A000" stroke-width="8.8235" stroke-opacity="0.4" d="M123.32,319.588
				c465,0,465,110.882,930,110.882"/>
		</g>
		<g id="Cons_2_">
			<path fill="none" stroke="#AF1922" stroke-width="44.1176" stroke-opacity="0.4" d="M123.32,382.529
				c465,0,465-255.588,930-255.588"/>
			<path fill="none" stroke="#AF1922" stroke-width="44.1176" stroke-opacity="0.4" d="M123.32,426.647c465,0,465-175,930-175"/>
			<path fill="none" stroke="#AF1922" stroke-width="26.4706" stroke-opacity="0.4" d="M123.32,461.941c465,0,465-85.588,930-85.588
				"/>
			<path fill="none" stroke="#AF1922" stroke-width="8.8235" stroke-opacity="0.4" d="M123.32,479.588c465,0,465-40.294,930-40.294"
				/>
		</g>
	</g>
	<g id="Barre_2_" display="inline">
		<g>
			<rect x="1053.32" y="-1" fill="#1B1B1A" width="10" height="150">
			<title>a_Writer
17</title>
			</rect>
			<rect x="1053.32" y="159" fill="#1B1B1A" width="10" height="114.706">
			<title>b_Expert
13</title>
			</rect>
			<rect x="1053.32" y="283.706" fill="#1B1B1A" width="10" height="105.882">
			<title>c_Undefined
12</title>
			</rect>
			<rect x="1053.32" y="399.588" fill="#1B1B1A" width="10" height="44.118">
			<title>d_Journalist
5</title>
			</rect>
			<rect x="1053.32" y="453.706" fill="#1B1B1A" width="10" height="26.471">
			<title>e_MD
3</title>
			</rect>
			<rect x="1053.32" y="490.176" fill="#1B1B1A" width="10" height="8.824">
			<title>f_Organization
1</title>
			</rect>
		</g>
		<g>
			<rect x="113.32" y="14" fill="#1B1B1A" width="10" height="132.353">
			<title>a_Pro
15</title>
			</rect>
			<g>
				<rect x="113.32" y="156.353" fill="#1B1B1A" width="10" height="194.118">
				<title>b_Neutral
22</title>
				</rect>
				<rect x="113.32" y="360.471" fill="#1B1B1A" width="10" height="123.529">
				<title>c_Cons
14</title>
				</rect>
			</g>
		</g>
	</g>
	<g display="inline">
		<line fill="none" stroke="#BCA695" stroke-miterlimit="10" x1="1053.345" y1="512.516" x2="1063.363" y2="522.534"/>
		<line fill="none" stroke="#BCA695" stroke-miterlimit="10" x1="1053.345" y1="522.534" x2="1063.363" y2="512.516"/>
	</g>
	<g display="inline">
		<circle fill="#1B1B1A" cx="1058.071" cy="517.525" r="1.417"/>
	</g>
	<g display="inline">
		<line fill="none" stroke="#BCA695" stroke-miterlimit="10" x1="1053.345" y1="535.774" x2="1063.364" y2="545.793"/>
		<line fill="none" stroke="#BCA695" stroke-miterlimit="10" x1="1053.345" y1="545.793" x2="1063.364" y2="535.774"/>
	</g>
	<g display="inline">
		<circle fill="#1B1B1A" cx="1058.071" cy="540.784" r="1.417"/>
	</g>
</g>
<g id="Hormones" display="none">
	<g display="inline">
		<g id="Neutral_3_">
			<path fill="none" stroke="#F6A000" stroke-width="27.7419" stroke-opacity="0.4" d="M124.32,143.968
				c465,0,465-104.355,930-104.355"/>
			<path fill="none" stroke="#F6A000" stroke-width="6.9355" stroke-opacity="0.4" d="M124.32,161.306
				c465,0,465,278.548,930,278.548"/>
		</g>
		<g id="Cons_3_">
			<path fill="none" stroke="#AF1922" stroke-width="152.581" stroke-opacity="0.4" d="M124.32,302.677
				c465,0,465-172.903,930-172.903"/>
			<path fill="none" stroke="#AF1922" stroke-width="27.7419" stroke-opacity="0.4" d="M124.32,392.839
				c465,0,465-128.226,930-128.226"/>
			<path fill="none" stroke="#AF1922" stroke-width="20.8065" stroke-opacity="0.4" d="M124.32,437.919c465,0,465-59.677,930-59.677
				"/>
			<path fill="none" stroke="#AF1922" stroke-width="20.8065" stroke-opacity="0.4" d="M124.32,417.113c465,0,465-83.548,930-83.548
				"/>
			<path fill="none" stroke="#AF1922" stroke-width="20.8065" stroke-opacity="0.4" d="M124.32,458.726c465,0,465-42.742,930-42.742
				"/>
			<path fill="none" stroke="#AF1922" stroke-width="6.9355" stroke-opacity="0.4" d="M124.32,472.597c465,0,465-11.935,930-11.935"
				/>
			<path fill="none" stroke="#AF1922" stroke-width="6.9355" stroke-opacity="0.4" d="M124.32,479.532c465,0,465-1.935,930-1.935"/>
		</g>
		<g id="Cons_x2A__1_">
			<path fill="none" stroke="#F08575" stroke-width="13.871" stroke-opacity="0.4" d="M124.32,202.516
				c465,0,465,247.742,930,247.742"/>
			<path fill="none" stroke="#F08575" stroke-width="6.9355" stroke-opacity="0.4" d="M124.32,178.242c465,0,465,69.032,930,69.032"
				/>
			<path fill="none" stroke="#F08575" stroke-width="6.9355" stroke-opacity="0.4" d="M124.32,192.113c465,0,465,210,930,210"/>
			<path fill="none" stroke="#F08575" stroke-width="6.9355" stroke-opacity="0.4" d="M124.32,212.919
				c465,0,465,281.613,930,281.613"/>
			<path fill="none" stroke="#F08575" stroke-width="6.9355" stroke-opacity="0.4" d="M124.32,185.177
				c465,0,465,179.194,930,179.194"/>
		</g>
		<g id="Pro_3_">
			<path fill="none" stroke="#1F8E6C" stroke-width="27.7419" stroke-opacity="0.4" d="M124.32,47.677
				c465,0,465,182.258,930,182.258"/>
			<path fill="none" stroke="#1F8E6C" stroke-width="27.7419" stroke-opacity="0.4" d="M124.32,75.419
				c465,0,465,226.935,930,226.935"/>
			<path fill="none" stroke="#1F8E6C" stroke-width="20.8065" stroke-opacity="0.4" d="M124.32,23.403c465,0,465-15,930-15"/>
			<path fill="none" stroke="#1F8E6C" stroke-width="6.9355" stroke-opacity="0.4" d="M124.32,92.758c465,0,465,264.677,930,264.677
				"/>
		</g>
		<g id="Pro_x2A__2_">
			<path fill="none" stroke="#A7C8AF" stroke-width="6.9355" stroke-opacity="0.4" d="M124.32,109.694c465,0,465-87.419,930-87.419"
				/>
			<path fill="none" stroke="#A7C8AF" stroke-width="6.9355" stroke-opacity="0.4" d="M124.32,116.629
				c465,0,465,203.065,930,203.065"/>
		</g>
	</g>
	<g id="Barre_3_" display="inline">
		<rect x="1054.32" y="-2" fill="#1B1B1A" width="10" height="208.065">
		<title>a_Writer
30</title>
		</rect>
		<rect x="1054.32" y="216.065" fill="#1B1B1A" width="10" height="62.419">
		<title>b_Organization
9</title>
		</rect>
		<rect x="1054.32" y="288.484" fill="#1B1B1A" width="10" height="55.484">
		<title>c_Industry
8</title>
		</rect>
		<rect x="1054.32" y="353.968" fill="#1B1B1A" width="10" height="34.677">
		<title>d_MD
5</title>
		</rect>
		<rect x="1054.32" y="398.645" fill="#1B1B1A" width="10" height="27.742">
		<title>e_Expert
4</title>
		</rect>
		<rect x="1054.32" y="436.387" fill="#1B1B1A" width="10" height="27.742">
		<title>f_Journalist
4</title>
		</rect>
		<rect x="1054.32" y="474.129" fill="#1B1B1A" width="10" height="6.935">
		<title>g_Academics
1</title>
		</rect>
		<rect x="1054.32" y="491.065" fill="#1B1B1A" width="10" height="6.935">
		<title>h_Undefined
1</title>
		</rect>
		<rect x="114.32" y="13" fill="#1B1B1A" width="10" height="83.226">
		<title>a_Pro
12</title>
		</rect>
		<rect x="114.32" y="106.226" fill="#1B1B1A" width="10" height="13.871">
		<title>b_Pro*
2</title>
		</rect>
		<rect x="114.32" y="130.097" fill="#1B1B1A" width="10" height="34.677">
		<title>c_Neutral
5</title>
		</rect>
		<rect x="114.32" y="174.774" fill="#1B1B1A" width="10" height="41.613">
		<title>d_Cons*
6</title>
		</rect>
		<rect x="114.32" y="226.387" fill="#1B1B1A" width="10" height="256.613">
		<title>e_Cons
37</title>
		</rect>
	</g>
	<g display="inline">
		<polygon fill="#1B1B1A" stroke="#1B1B1A" stroke-linejoin="round" stroke-miterlimit="10" points="114.32,58.013 110.391,54.613 
			114.32,51.212 		"/>
		<polygon fill="#1B1B1A" stroke="#1B1B1A" stroke-linejoin="round" stroke-miterlimit="10" points="114.32,358.094 
			110.391,354.693 114.32,351.293 		"/>
		<polygon fill="#1B1B1A" stroke="#1B1B1A" stroke-linejoin="round" stroke-miterlimit="10" points="114.32,150.836 
			110.391,147.435 114.32,144.034 		"/>
		<polygon fill="#1B1B1A" stroke="#1B1B1A" stroke-linejoin="round" stroke-miterlimit="10" points="114.32,116.562 
			110.391,113.161 114.32,109.761 		"/>
		<polygon fill="#1B1B1A" stroke="#1B1B1A" stroke-linejoin="round" stroke-miterlimit="10" points="1063.037,98.632 
			1066.966,102.032 1063.037,105.433 		"/>
		<polygon fill="#1B1B1A" stroke="#1B1B1A" stroke-linejoin="round" stroke-miterlimit="10" points="1063.037,243.874 
			1066.966,247.274 1063.037,250.675 		"/>
		<polygon fill="#1B1B1A" stroke="#1B1B1A" stroke-linejoin="round" stroke-miterlimit="10" points="1063.037,312.825 
			1066.966,316.226 1063.037,319.626 		"/>
		<polygon fill="#1B1B1A" stroke="#1B1B1A" stroke-linejoin="round" stroke-miterlimit="10" points="1063.037,409.116 
			1066.966,412.516 1063.037,415.917 		"/>
		<polygon fill="#1B1B1A" stroke="#1B1B1A" stroke-linejoin="round" stroke-miterlimit="10" points="1063.037,446.857 
			1066.966,450.258 1063.037,453.659 		"/>
		<polygon fill="#1B1B1A" stroke="#1B1B1A" stroke-linejoin="round" stroke-miterlimit="10" points="1063.037,474.639 
			1066.966,477.597 1063.037,480.554 		"/>
		<polygon fill="#1B1B1A" stroke="#1B1B1A" stroke-linejoin="round" stroke-miterlimit="10" points="1063.037,491.574 
			1066.966,494.532 1063.037,497.49 		"/>
		<polygon fill="#1B1B1A" stroke="#1B1B1A" stroke-linejoin="round" stroke-miterlimit="10" points="1063.037,367.906 
			1066.966,371.306 1063.037,374.707 		"/>
		<polygon fill="#1B1B1A" stroke="#1B1B1A" stroke-linejoin="round" stroke-miterlimit="10" points="114.32,198.981 
			110.391,195.581 114.32,192.18 		"/>
	</g>
</g>
<g id="Body" display="none">
	<g id="Nomi_3_" display="inline">
		<polygon fill="#1B1B1A" stroke="#1B1B1A" stroke-linejoin="round" stroke-miterlimit="10" points="114.32,38.615 110.391,35.214 
			114.32,31.813 		"/>
		<polygon fill="#1B1B1A" stroke="#1B1B1A" stroke-linejoin="round" stroke-miterlimit="10" points="114.32,367.9 110.391,364.5 
			114.32,361.099 		"/>
		<polygon fill="#1B1B1A" stroke="#1B1B1A" stroke-linejoin="round" stroke-miterlimit="10" points="114.32,187.186 
			110.391,183.785 114.32,180.385 		"/>
		<polygon fill="#1B1B1A" stroke="#1B1B1A" stroke-linejoin="round" stroke-miterlimit="10" points="114.32,118.258 
			110.391,114.857 114.32,111.457 		"/>
		<polygon fill="#1B1B1A" stroke="#1B1B1A" stroke-linejoin="round" stroke-miterlimit="10" points="1063.037,75.028 
			1066.966,78.429 1063.037,81.829 		"/>
		<polygon fill="#1B1B1A" stroke="#1B1B1A" stroke-linejoin="round" stroke-miterlimit="10" points="1063.037,256.457 
			1066.966,259.857 1063.037,263.258 		"/>
		<polygon fill="#1B1B1A" stroke="#1B1B1A" stroke-linejoin="round" stroke-miterlimit="10" points="1063.037,378.957 
			1066.966,382.357 1063.037,385.758 		"/>
		<polygon fill="#1B1B1A" stroke="#1B1B1A" stroke-linejoin="round" stroke-miterlimit="10" points="1063.037,431.814 
			1066.966,435.214 1063.037,438.615 		"/>
		<polygon fill="#1B1B1A" stroke="#1B1B1A" stroke-linejoin="round" stroke-miterlimit="10" points="1063.037,452.528 
			1066.966,455.929 1063.037,459.329 		"/>
		<polygon fill="#1B1B1A" stroke="#1B1B1A" stroke-linejoin="round" stroke-miterlimit="10" points="1063.037,473.242 
			1066.966,476.643 1063.037,480.043 		"/>
		<polygon fill="#1B1B1A" stroke="#1B1B1A" stroke-linejoin="round" stroke-miterlimit="10" points="114.32,240.043 
			110.391,236.643 114.32,233.242 		"/>
	</g>
	<g display="inline">
		<g id="Pro_x2A__3_">
			<path fill="none" stroke="#A7C8AF" stroke-width="32.1429" stroke-opacity="0.4" d="M124.32,109.5c465,0,465-79.286,930-79.286"
				/>
			<path fill="none" stroke="#A7C8AF" stroke-width="10.7143" stroke-opacity="0.4" d="M124.32,130.929c465,0,465,80.714,930,80.714
				"/>
		</g>
		<path id="Cons_x2A__2_" fill="none" stroke="#F08575" stroke-width="10.7143" stroke-opacity="0.4" d="M124.32,236.643
			c465,0,465,7.143,930,7.143"/>
		<g id="Neutral_4_">
			<path fill="none" stroke="#F6A000" stroke-width="42.8571" stroke-opacity="0.4" d="M124.32,167.714c465,0,465-100,930-100"/>
			<path fill="none" stroke="#F6A000" stroke-width="21.4286" stroke-opacity="0.4" d="M124.32,199.857c465,0,465,27.857,930,27.857
				"/>
			<path fill="none" stroke="#F6A000" stroke-width="10.7143" stroke-opacity="0.4" d="M124.32,215.929
				c465,0,465,166.429,930,166.429"/>
		</g>
		<g id="Pro_4_">
			<path fill="none" stroke="#1F8E6C" stroke-width="32.1429" stroke-opacity="0.4" d="M124.32,56.643
				c465,0,465,304.286,930,304.286"/>
			<path fill="none" stroke="#1F8E6C" stroke-width="32.1429" stroke-opacity="0.4" d="M124.32,3.071c465,0,465-5,930-5"/>
			<path fill="none" stroke="#1F8E6C" stroke-width="21.4286" stroke-opacity="0.4" d="M124.32,29.857
				c465,0,465,165.714,930,165.714"/>
			<path fill="none" stroke="#1F8E6C" stroke-width="10.7143" stroke-opacity="0.4" d="M124.32,78.071
				c465,0,465,398.571,930,398.571"/>
		</g>
		<g id="Cons_4_">
			<path fill="none" stroke="#AF1922" stroke-width="85.7143" stroke-opacity="0.4" d="M124.32,294.857
				c465,0,465-162.857,930-162.857"/>
			<path fill="none" stroke="#AF1922" stroke-width="85.7143" stroke-opacity="0.4" d="M124.32,380.571c465,0,465-88.571,930-88.571
				"/>
			<path fill="none" stroke="#AF1922" stroke-width="32.1429" stroke-opacity="0.4" d="M124.32,439.5c465,0,465-35.714,930-35.714"
				/>
			<path fill="none" stroke="#AF1922" stroke-width="10.7143" stroke-opacity="0.4" d="M124.32,471.643c465,0,465-15.714,930-15.714
				"/>
			<path fill="none" stroke="#AF1922" stroke-width="10.7143" stroke-opacity="0.4" d="M124.32,460.929c465,0,465-25.714,930-25.714
				"/>
		</g>
	</g>
	<g display="inline">
		<rect x="1054.32" y="-18" fill="#1B1B1A" width="10" height="192.857">
		<title>a_Expert
18</title>
		</rect>
		<rect x="1054.32" y="184.857" fill="#1B1B1A" width="10" height="150">
		<title>b_Writer
14</title>
		</rect>
		<rect x="1054.32" y="344.857" fill="#1B1B1A" width="10" height="75">
		<title>c_Undefined
7</title>
		</rect>
		<rect x="1054.32" y="429.857" fill="#1B1B1A" width="10" height="10.714">
		<title>d_Journalist
1</title>
		</rect>
		<rect x="1054.32" y="450.571" fill="#1B1B1A" width="10" height="10.714">
		<title>e_MD
1</title>
		</rect>
		<rect x="1054.32" y="471.286" fill="#1B1B1A" width="10" height="10.714">
		<title>f_Organization
1</title>
		</rect>
		<rect x="114.32" y="-13" fill="#1B1B1A" width="10" height="96.429">
		<title>a_Pro
9</title>
		</rect>
		<rect x="114.32" y="93.429" fill="#1B1B1A" width="10" height="42.857">
		<title>b_Pro*
4</title>
		</rect>
		<rect x="114.32" y="146.286" fill="#1B1B1A" width="10" height="75">
		<title>c_Neutral
7</title>
		</rect>
		<rect x="114.32" y="231.286" fill="#1B1B1A" width="10" height="10.714">
		<title>d_Cons*
1</title>
		</rect>
		<rect x="114.32" y="252" fill="#1B1B1A" width="10" height="225">
		<title>e_Cons
21</title>
		</rect>
	</g>
	<g display="inline">
		<line fill="none" stroke="#BCA695" stroke-miterlimit="10" x1="1053.345" y1="493.58" x2="1063.363" y2="503.599"/>
		<line fill="none" stroke="#BCA695" stroke-miterlimit="10" x1="1053.345" y1="503.599" x2="1063.363" y2="493.58"/>
	</g>
	<g display="inline">
		<circle fill="#1B1B1A" cx="1058.071" cy="498.59" r="1.417"/>
	</g>
	<g display="inline">
		<line fill="none" stroke="#BCA695" stroke-miterlimit="10" x1="1053.345" y1="516.839" x2="1063.364" y2="526.857"/>
		<line fill="none" stroke="#BCA695" stroke-miterlimit="10" x1="1053.345" y1="526.857" x2="1063.364" y2="516.839"/>
	</g>
	<g display="inline">
		<circle fill="#1B1B1A" cx="1058.071" cy="521.848" r="1.417"/>
	</g>
</g>
<g>
	<path fill="#2C292A" d="M559.898,302.78l-4.174-6.837v6.837h-1.031v-8.504h1.199l4.174,6.86v-6.86h1.031v8.504H559.898z"/>
	<path fill="#2C292A" d="M566.968,302.936c-1.907,0-3.106-1.151-3.106-3.273v-5.386h1.067v5.409c0,1.355,0.563,2.255,2.039,2.255
		c1.475,0,2.038-0.899,2.038-2.255v-5.409h1.067v5.386C570.073,301.784,568.874,302.936,566.968,302.936z"/>
	<path fill="#2C292A" d="M575.404,295.273v7.508h-1.08v-7.508h-2.53v-0.996h6.141v0.996H575.404z"/>
	<path fill="#2C292A" d="M584.918,302.78l-1.606-3.538h-2.352v3.538h-1.067v-8.504h3.335c0.995,0,1.69,0.276,2.158,0.756
		c0.408,0.432,0.672,0.983,0.672,1.728c0,0.743-0.24,1.247-0.647,1.679c-0.252,0.264-0.612,0.468-1.02,0.6l1.703,3.742h-1.176
		V302.78z M583.228,295.26h-2.268v2.986h2.268c1.007,0,1.727-0.407,1.727-1.486C584.954,295.68,584.234,295.26,583.228,295.26z"/>
	<path fill="#2C292A" d="M588.437,302.78v-8.504h1.092v8.504H588.437z"/>
	<path fill="#2C292A" d="M592.528,302.78v-8.504h5.686v0.983h-4.618v2.591h4.054v1.008h-4.054v2.938h4.618v0.983h-5.686V302.78z"/>
	<path fill="#2C292A" d="M605.834,302.78l-4.174-6.837v6.837h-1.031v-8.504h1.199l4.174,6.86v-6.86h1.031v8.504H605.834z"/>
	<path fill="#2C292A" d="M612.604,295.273v7.508h-1.08v-7.508h-2.53v-0.996h6.141v0.996H612.604z"/>
	<path fill="#2C292A" d="M621.95,302.084c-0.588,0.576-1.499,0.852-2.411,0.852c-1.031,0-1.858-0.287-2.435-0.815
		c-0.539-0.504-0.911-1.235-0.911-2.039h1.115c0,0.504,0.252,1.008,0.6,1.344c0.384,0.372,1.031,0.527,1.631,0.527
		c0.648,0,1.199-0.132,1.583-0.491c0.265-0.24,0.433-0.54,0.433-0.996c0-0.659-0.42-1.211-1.428-1.367l-1.343-0.203
		c-1.271-0.192-2.268-0.899-2.268-2.255c0-0.636,0.288-1.247,0.744-1.68c0.588-0.552,1.343-0.839,2.23-0.839
		c0.828,0,1.644,0.275,2.207,0.815c0.516,0.491,0.792,1.104,0.815,1.823h-1.115c-0.024-0.42-0.18-0.792-0.42-1.067
		c-0.323-0.372-0.84-0.588-1.499-0.588c-0.611,0-1.14,0.168-1.511,0.588c-0.217,0.251-0.349,0.539-0.349,0.923
		c0,0.768,0.636,1.115,1.271,1.199c0.479,0.061,0.947,0.145,1.415,0.216c1.416,0.204,2.363,1.067,2.363,2.411
		C622.67,301.15,622.37,301.677,621.95,302.084z"/>
</g>
</svg>
