<?xml version="1.0" encoding="utf-8"?>
<!-- Generator: Adobe Illustrator 17.0.0, SVG Export Plug-In . SVG Version: 6.00 Build 0)  -->
<!DOCTYPE svg PUBLIC "-//W3C//DTD SVG 1.1//EN" "http://www.w3.org/Graphics/SVG/1.1/DTD/svg11.dtd">
<svg version="1.1" id="Layer_1" xmlns="http://www.w3.org/2000/svg" xmlns:xlink="http://www.w3.org/1999/xlink" x="0px" y="0px"
	 width="113.89px" height="79.26px" viewBox="531.734 243.394 113.89 79.26" enable-background="new 531.734 243.394 113.89 79.26"
	 xml:space="preserve">
<g id="Livello_1" display="none">
	
		<rect x="-115.68" y="-248" display="inline" opacity="0.9" fill="#EDE2D7" enable-background="new    " width="1408.819" height="996.142"/>
	<rect x="-115.68" y="-248" display="inline" fill="#EDE2D7" width="1408.819" height="996.142"/>
</g>
<g id="Nutrients" display="none">
	<g id="Flussi" display="inline">
		<polygon fill="#1B1B1A" stroke="#1B1B1A" stroke-linejoin="round" stroke-miterlimit="10" points="114.32,110.93 110.391,107.529 
			114.32,104.129 		"/>
		<polygon fill="#1B1B1A" stroke="#1B1B1A" stroke-linejoin="round" stroke-miterlimit="10" points="114.32,345.93 110.391,342.529 
			114.32,339.128 		"/>
		<polygon fill="#1B1B1A" stroke="#1B1B1A" stroke-linejoin="round" stroke-miterlimit="10" points="114.32,438.136 
			110.391,434.735 114.32,431.334 		"/>
		<polygon fill="#1B1B1A" stroke="#1B1B1A" stroke-linejoin="round" stroke-miterlimit="10" points="114.32,257.574 
			110.391,254.173 114.32,250.773 		"/>
		<g id="Pro_x2A_">
			<path fill="none" stroke="#A7C8AF" stroke-width="37.9412" stroke-opacity="0.4" d="M124.32,225.029
				c465,0,465-181.765,930-181.765"/>
			<path fill="none" stroke="#A7C8AF" stroke-width="12.6471" stroke-opacity="0.4" d="M124.32,288.265c465,0,465,98.529,930,98.529
				"/>
			<path fill="none" stroke="#A7C8AF" stroke-width="12.6471" stroke-opacity="0.4" d="M124.32,250.324c465,0,465-70.588,930-70.588
				"/>
			<path fill="none" stroke="#A7C8AF" stroke-width="12.6471" stroke-opacity="0.4" d="M124.32,275.618c465,0,465,63.235,930,63.235
				"/>
			<path fill="none" stroke="#A7C8AF" stroke-width="12.6471" stroke-opacity="0.4" d="M124.32,262.971c465,0,465,15.294,930,15.294
				"/>
		</g>
		<g id="Neutral">
			<path fill="none" stroke="#F6A000" stroke-width="37.9412" stroke-opacity="0.4" d="M124.32,323.559
				c465,0,465-242.353,930-242.353"/>
			<path fill="none" stroke="#F6A000" stroke-width="12.6471" stroke-opacity="0.4" d="M124.32,374.147c465,0,465,95.882,930,95.882
				"/>
			<path fill="none" stroke="#F6A000" stroke-width="12.6471" stroke-opacity="0.4" d="M124.32,348.853
				c465,0,465-156.471,930-156.471"/>
			<path fill="none" stroke="#F6A000" stroke-width="12.6471" stroke-opacity="0.4" d="M124.32,361.5c465,0,465-70.588,930-70.588"
				/>
		</g>
		<g id="Cons">
			<path fill="none" stroke="#AF1922" stroke-width="37.9412" stroke-opacity="0.4" d="M124.32,447.382
				c465,0,465-229.706,930-229.706"/>
			<path fill="none" stroke="#AF1922" stroke-width="37.9412" stroke-opacity="0.4" d="M124.32,409.441
				c465,0,465-290.294,930-290.294"/>
			<path fill="none" stroke="#AF1922" stroke-width="12.6471" stroke-opacity="0.4" d="M124.32,472.676c465,0,465-37.941,930-37.941
				"/>
		</g>
		<g id="Pro">
			<path fill="none" stroke="#1F8E6C" stroke-width="25.2941" stroke-opacity="0.4" d="M124.32,132.824c465,0,465,235,930,235"/>
			<path fill="none" stroke="#1F8E6C" stroke-width="25.2941" stroke-opacity="0.4" d="M124.32,31.647c465,0,465-20,930-20"/>
			<path fill="none" stroke="#1F8E6C" stroke-width="25.2941" stroke-opacity="0.4" d="M124.32,158.118
				c465,0,465,257.647,930,257.647"/>
			<path fill="none" stroke="#1F8E6C" stroke-width="25.2941" stroke-opacity="0.4" d="M124.32,82.235
				c465,0,465,177.059,930,177.059"/>
			<path fill="none" stroke="#1F8E6C" stroke-width="25.2941" stroke-opacity="0.4" d="M124.32,107.529
				c465,0,465,212.353,930,212.353"/>
			<path fill="none" stroke="#1F8E6C" stroke-width="25.2941" stroke-opacity="0.4" d="M124.32,56.941
				c465,0,465,103.824,930,103.824"/>
			<path fill="none" stroke="#1F8E6C" stroke-width="12.6471" stroke-opacity="0.4" d="M124.32,177.088
				c465,0,465,280.294,930,280.294"/>
			<path fill="none" stroke="#1F8E6C" stroke-width="12.6471" stroke-opacity="0.4" d="M124.32,189.735
				c465,0,465,302.941,930,302.941"/>
		</g>
	</g>
	<g id="Nomi" display="inline">
		<polygon fill="#1B1B1A" stroke="#1B1B1A" stroke-linejoin="round" stroke-miterlimit="10" points="1063.959,65.608 
			1067.888,69.008 1063.959,72.409 		"/>
		<polygon fill="#1B1B1A" stroke="#1B1B1A" stroke-linejoin="round" stroke-miterlimit="10" points="1063.959,188.982 
			1067.888,192.382 1063.959,195.783 		"/>
		<polygon fill="#1B1B1A" stroke="#1B1B1A" stroke-linejoin="round" stroke-miterlimit="10" points="1063.959,268.816 
			1067.888,272.217 1063.959,275.618 		"/>
		<polygon fill="#1B1B1A" stroke="#1B1B1A" stroke-linejoin="round" stroke-miterlimit="10" points="1063.959,322.805 
			1067.888,326.206 1063.959,329.607 		"/>
		<polygon fill="#1B1B1A" stroke="#1B1B1A" stroke-linejoin="round" stroke-miterlimit="10" points="1063.959,370.746 
			1067.888,374.147 1063.959,377.548 		"/>
		<polygon fill="#1B1B1A" stroke="#1B1B1A" stroke-linejoin="round" stroke-miterlimit="10" points="1063.959,418.688 
			1067.888,422.088 1063.959,425.489 		"/>
		<polygon fill="#1B1B1A" stroke="#1B1B1A" stroke-linejoin="round" stroke-miterlimit="10" points="1063.959,460.305 
			1067.888,463.706 1063.959,467.107 		"/>
		<polygon fill="#1B1B1A" stroke="#1B1B1A" stroke-linejoin="round" stroke-miterlimit="10" points="1063.959,489.276 
			1067.888,492.676 1063.959,496.077 		"/>
	</g>
	<g id="Barre" display="inline">
		<rect x="1054.32" y="-1" fill="#1B1B1A" width="10" height="139.118">
		<title>a_Expert
11</title>
		</rect>
		<rect x="1054.32" y="148.118" fill="#1B1B1A" width="10" height="88.529">
		<title>b_MD
7</title>
		</rect>
		<rect x="1054.32" y="246.647" fill="#1B1B1A" width="10" height="50.588">
		<title>c_Journalist
4</title>
		</rect>
		<rect x="1054.32" y="307.235" fill="#1B1B1A" width="10" height="37.941">
		<title>d_Academics
3</title>
		</rect>
		<rect x="1054.32" y="355.176" fill="#1B1B1A" width="10" height="37.941">
		<title>e_Organization
3</title>
		</rect>
		<rect x="1054.32" y="403.118" fill="#1B1B1A" width="10" height="37.941">
		<title>f_Undefined
3</title>
		</rect>
		<rect x="1054.32" y="451.059" fill="#1B1B1A" width="10" height="25.294">
		<title>g_Writer
2</title>
		</rect>
		<rect x="1054.32" y="486.353" fill="#1B1B1A" width="10" height="12.647">
		<title>h_Industry
1</title>
		</rect>
		<rect x="114.32" y="19" fill="#1B1B1A" width="10" height="177.059">
		<title>a_Pro
14</title>
		</rect>
		<rect x="114.32" y="206.059" fill="#1B1B1A" width="10" height="88.529">
		<title>b_Pro*
7</title>
		</rect>
		<rect x="114.32" y="304.588" fill="#1B1B1A" width="10" height="75.882">
		<title>c_Neutral
6</title>
		</rect>
		<rect x="114.32" y="390.471" fill="#1B1B1A" width="10" height="88.529">
		<title>d_Cons
7</title>
		</rect>
	</g>
</g>
<g>
	<rect x="637.201" y="243.394" fill="#1B1B1A" width="1.044" height="11.542">
	<title>a_Academics
14</title>
	</rect>
	<rect x="637.201" y="255.98" fill="#1B1B1A" width="1.044" height="10.718">
	<title>b_Expert
13</title>
	</rect>
	<rect x="637.201" y="267.743" fill="#1B1B1A" width="1.044" height="7.42">
	<title>c_MD
9</title>
	</rect>
	<rect x="637.201" y="276.207" fill="#1B1B1A" width="1.044" height="7.42">
	<title>d_Undefined
9</title>
	</rect>
	<rect x="637.201" y="284.671" fill="#1B1B1A" width="1.044" height="5.771">
	<title>e_Writer
7</title>
	</rect>
	<rect x="637.201" y="291.487" fill="#1B1B1A" width="1.044" height="4.122">
	<title>f_Journalist
5</title>
	</rect>
	<rect x="539.037" y="243.916" fill="#1B1B1A" width="1.044" height="6.596">
	<title>a_Pro
8</title>
	</rect>
	<rect x="539.037" y="251.556" fill="#1B1B1A" width="1.044" height="10.718">
	<title>b_Pro*
13</title>
	</rect>
	<rect x="539.037" y="263.318" fill="#1B1B1A" width="1.044" height="14.84">
	<title>c_Neutral
18</title>
	</rect>
	<rect x="539.037" y="279.202" fill="#1B1B1A" width="1.044" height="3.298">
	<title>d_Cons*
4</title>
	</rect>
	<rect x="539.037" y="283.545" fill="#1B1B1A" width="1.044" height="11.542">
	<title>e_Cons
14</title>
	</rect>
	<g id="Cons_1_">
		<path opacity="0.4" fill="#AF1922" enable-background="new    " d="M540.081,289.316v-3.298c10.796,0,20.134-0.715,28.549-2.187
			c7.498-1.311,13.625-3.097,19.55-4.824c12.048-3.511,24.506-7.142,49.021-7.142v3.298c-10.796,0-20.134,0.715-28.549,2.187
			c-7.498,1.311-13.625,3.097-19.55,4.824C577.055,285.685,564.596,289.316,540.081,289.316z"/>
		<path opacity="0.4" fill="#AF1922" enable-background="new    " d="M540.081,292.613v-3.298c24.129,0,36.396-2.27,48.26-4.466
			c12.01-2.223,24.429-4.521,48.86-4.521v3.298c-24.129,0-36.396,2.27-48.26,4.466C576.931,290.315,564.512,292.613,540.081,292.613
			z"/>
		<path opacity="0.4" fill="#AF1922" enable-background="new    " d="M540.081,294.262v-1.649c24.248,0,36.574-0.97,48.495-1.908
			c11.952-0.94,24.315-1.912,48.624-1.912c0.002,0-0.001,0,0,0v1.649c-24.248,0-36.574,0.97-48.495,1.907
			C576.753,293.29,564.393,294.262,540.081,294.262z"/>
		<path opacity="0.4" fill="#AF1922" enable-background="new    " d="M540.081,286.018v-1.649c10.827,0,20.195-0.98,28.641-2.996
			c7.53-1.797,13.673-4.242,19.614-6.605c12.009-4.778,24.427-9.718,48.865-9.718v1.649c-10.827,0-20.195,0.98-28.641,2.996
			c-7.53,1.797-13.673,4.242-19.614,6.605C576.937,281.077,564.519,286.018,540.081,286.018z"/>
		<path opacity="0.4" fill="#AF1922" enable-background="new    " d="M637.201,295.609c-24.282,0-36.627-0.133-48.565-0.261
			c-11.936-0.128-24.278-0.261-48.556-0.261v-0.824c24.282,0,36.627,0.133,48.565,0.261c11.936,0.128,24.278,0.261,48.556,0.261
			L637.201,295.609L637.201,295.609z"/>
		<path opacity="0.4" fill="#AF1922" enable-background="new    " d="M540.081,284.369v-0.824c10.843,0,20.228-1.496,28.692-4.574
			c7.549-2.745,13.703-6.475,19.655-10.083c5.985-3.628,12.175-7.379,19.8-10.152c8.555-3.111,18.033-4.624,28.973-4.624v0.824
			c-10.843,0-20.228,1.496-28.692,4.574c-7.549,2.745-13.703,6.475-19.655,10.083c-5.985,3.628-12.175,7.379-19.8,10.152
			C560.499,282.857,551.022,284.369,540.081,284.369z"/>
	</g>
	<g id="Neutral_1_">
		<path opacity="0.4" fill="#F6A000" enable-background="new    " d="M540.081,269.089v-5.771c10.714,0,19.973-0.75,28.307-2.292
			c7.422-1.374,13.242-3.168,19.402-5.068c12.141-3.745,24.696-7.617,49.411-7.617v5.771c-10.714,0-19.973,0.75-28.307,2.292
			c-7.423,1.374-13.242,3.168-19.402,5.069C577.351,265.217,564.796,269.089,540.081,269.089z"/>
		<path opacity="0.4" fill="#F6A000" enable-background="new    " d="M540.081,273.211v-4.122c24.108,0,36.365-2.06,48.218-4.052
			c12.02-2.02,24.45-4.11,48.902-4.11v4.122c-24.108,0-36.365,2.06-48.219,4.053C576.963,271.122,564.533,273.211,540.081,273.211z"
			/>
		<path opacity="0.4" fill="#F6A000" enable-background="new    " d="M637.201,293.96c-24.411,0-36.817-4.037-48.815-7.942
			c-5.945-1.935-12.092-3.935-19.63-5.407c-8.457-1.651-17.836-2.454-28.675-2.454v-1.649c24.411,0,36.817,4.037,48.815,7.941
			c5.945,1.935,12.092,3.935,19.63,5.407c8.457,1.651,17.836,2.454,28.675,2.454V293.96z"/>
		<path opacity="0.4" fill="#F6A000" enable-background="new    " d="M637.201,288.794c-24.383,0-36.777-3.135-48.762-6.167
			c-11.888-3.007-24.18-6.117-48.358-6.117v-1.649c24.383,0,36.777,3.135,48.762,6.167c11.888,3.007,24.181,6.117,48.358,6.117
			L637.201,288.794L637.201,288.794z"/>
		<path opacity="0.4" fill="#F6A000" enable-background="new    " d="M637.201,278.68c-24.296,0-36.648-0.972-48.592-1.911
			c-11.929-0.938-24.264-1.909-48.528-1.909v-0.824c24.296,0,36.648,0.972,48.592,1.911c11.929,0.938,24.264,1.909,48.528,1.909
			V278.68z"/>
		<path opacity="0.4" fill="#F6A000" enable-background="new    " d="M540.081,274.036v-0.824c24.267,0,36.604-0.761,48.535-1.497
			c11.943-0.737,24.293-1.499,48.586-1.499v0.824c-24.267,0-36.604,0.761-48.535,1.497
			C576.724,273.274,564.374,274.036,540.081,274.036z"/>
	</g>
	<g id="Cons_x2A_">
		<path opacity="0.4" fill="#F08575" enable-background="new    " d="M540.081,281.676v-1.649c24.269,0,36.606-0.342,48.537-0.673
			c11.942-0.331,24.291-0.674,48.583-0.674v1.649c-24.269,0-36.606,0.342-48.537,0.673
			C576.722,281.333,564.373,281.676,540.081,281.676z"/>
		<path opacity="0.4" fill="#F08575" enable-background="new    " d="M540.081,280.027v-0.824c24.246,0,36.572-2.072,48.492-4.075
			c11.954-2.009,24.314-4.087,48.628-4.087v0.824c-24.246,0-36.572,2.072-48.492,4.075
			C576.756,277.949,564.396,280.027,540.081,280.027z"/>
		<path opacity="0.4" fill="#F08575" enable-background="new    " d="M637.201,294.785c-24.331,0-36.7-3.129-48.661-6.155
			c-11.912-3.013-24.23-6.13-48.459-6.13v-0.824c24.331,0,36.7,3.129,48.661,6.155c11.912,3.013,24.23,6.13,48.459,6.13V294.785z"/>
	</g>
	<g id="Pro_x2A__1_">
		<path opacity="0.4" fill="#A7C8AF" enable-background="new    " d="M637.201,260.927c-24.351,0-36.73-0.708-48.701-1.392
			c-11.902-0.68-24.21-1.384-48.419-1.384v-4.947c24.351,0,36.73,0.708,48.701,1.392c11.902,0.68,24.21,1.384,48.419,1.384V260.927z
			"/>
		<path opacity="0.4" fill="#A7C8AF" enable-background="new    " d="M637.201,287.145c-10.978,0-20.491-1.326-29.082-4.054
			c-7.658-2.431-13.863-5.715-19.864-8.89c-5.936-3.141-12.075-6.389-19.591-8.776c-8.427-2.676-17.777-3.976-28.583-3.976V259.8
			c10.978,0,20.491,1.326,29.082,4.054c7.658,2.431,13.863,5.715,19.864,8.89c5.936,3.141,12.075,6.389,19.591,8.776
			c8.427,2.676,17.777,3.976,28.583,3.976V287.145z"/>
		<path opacity="0.4" fill="#A7C8AF" enable-background="new    " d="M540.081,253.205v-1.649c24.239,0,36.561-1.234,48.478-2.428
			c11.957-1.198,24.321-2.436,48.642-2.436v1.649c-24.239,0-36.561,1.234-48.478,2.428
			C576.766,251.966,564.402,253.205,540.081,253.205z"/>
		<path opacity="0.4" fill="#A7C8AF" enable-background="new    " d="M637.201,270.216c-24.327,0-36.694-2.862-48.653-5.631
			c-11.914-2.758-24.234-5.609-48.467-5.609v-0.824c24.327,0,36.694,2.862,48.653,5.631c11.914,2.758,24.234,5.609,48.467,5.609
			V270.216z"/>
		<path opacity="0.4" fill="#A7C8AF" enable-background="new    " d="M637.201,277.856c-24.354,0-36.733-4.603-48.704-9.054
			c-5.955-2.214-12.114-4.504-19.674-6.191c-8.479-1.892-17.881-2.811-28.743-2.811v-0.824c24.354,0,36.733,4.603,48.704,9.054
			c5.955,2.214,12.114,4.504,19.674,6.191c8.48,1.892,17.881,2.811,28.743,2.811V277.856z"/>
		<path opacity="0.4" fill="#A7C8AF" enable-background="new    " d="M637.201,292.311c-10.942,0-20.42-1.544-28.976-4.719
			c-7.626-2.83-13.815-6.659-19.801-10.361c-5.951-3.681-12.105-7.488-19.654-10.29c-8.463-3.141-17.847-4.668-28.689-4.668v-0.824
			c10.942,0,20.42,1.544,28.976,4.719c7.626,2.83,13.815,6.659,19.801,10.361c5.951,3.681,12.105,7.488,19.654,10.289
			c8.463,3.141,17.847,4.668,28.689,4.668V292.311z"/>
	</g>
	<g id="Pro_1_">
		<path opacity="0.4" fill="#1F8E6C" enable-background="new    " d="M540.081,247.214v-3.298c24.271,0,36.61-0.133,48.542-0.261
			c11.941-0.128,24.289-0.261,48.578-0.261v3.298c-24.271,0-36.61,0.133-48.542,0.261
			C576.718,247.081,564.37,247.214,540.081,247.214z"/>
		<path opacity="0.4" fill="#1F8E6C" enable-background="new    " d="M637.201,269.392c-24.447,0-36.869-5.251-48.881-10.329
			c-5.94-2.511-12.082-5.108-19.609-7.017c-8.442-2.141-17.807-3.182-28.63-3.182v-1.649c24.447,0,36.869,5.251,48.881,10.329
			c5.94,2.511,12.082,5.108,19.609,7.017c8.442,2.141,17.807,3.182,28.63,3.182V269.392z"/>
		<path opacity="0.4" fill="#1F8E6C" enable-background="new    " d="M637.201,285.496c-10.949,0-20.434-1.799-28.996-5.5
			c-7.629-3.298-13.819-7.757-19.805-12.07c-5.951-4.287-12.104-8.72-19.65-11.982c-8.457-3.655-17.834-5.432-28.669-5.432v-0.824
			c10.949,0,20.434,1.799,28.996,5.5c7.629,3.298,13.819,7.757,19.805,12.07c5.951,4.287,12.104,8.72,19.65,11.982
			c8.457,3.655,17.834,5.432,28.669,5.432V285.496z"/>
		<path opacity="0.4" fill="#1F8E6C" enable-background="new    " d="M637.201,277.031c-10.938,0-20.412-1.405-28.965-4.294
			c-7.624-2.576-13.813-6.061-19.798-9.431c-5.952-3.352-12.106-6.817-19.657-9.368c-8.466-2.86-17.854-4.251-28.701-4.251v-0.824
			c10.938,0,20.412,1.405,28.965,4.294c7.624,2.576,13.813,6.061,19.798,9.431c5.952,3.351,12.106,6.817,19.657,9.368
			c8.466,2.86,17.854,4.251,28.701,4.251V277.031z"/>
	</g>
	<g>
		<polygon fill="#1B1B1A" points="539.141,247.569 538.731,247.214 539.141,246.859 		"/>
		<path fill="#1B1B1A" d="M539.141,247.621c-0.012,0-0.024-0.004-0.034-0.013l-0.41-0.355c-0.011-0.01-0.018-0.024-0.018-0.039
			s0.007-0.03,0.018-0.039l0.41-0.355c0.016-0.013,0.037-0.017,0.056-0.008c0.019,0.008,0.031,0.027,0.031,0.047v0.71
			c0,0.02-0.012,0.039-0.031,0.047C539.156,247.62,539.148,247.621,539.141,247.621z M538.811,247.214l0.278,0.241v-0.482
			L538.811,247.214z"/>
	</g>
	<g>
		<polygon fill="#1B1B1A" points="539.141,271.093 538.731,270.738 539.141,270.383 		"/>
		<path fill="#1B1B1A" d="M539.141,271.145c-0.012,0-0.024-0.004-0.034-0.013l-0.41-0.355c-0.011-0.01-0.018-0.024-0.018-0.039
			s0.007-0.03,0.018-0.039l0.41-0.355c0.016-0.013,0.037-0.017,0.056-0.008c0.019,0.008,0.031,0.027,0.031,0.047v0.71
			c0,0.02-0.012,0.039-0.031,0.047C539.156,271.144,539.148,271.145,539.141,271.145z M538.811,270.738l0.278,0.241v-0.482
			L538.811,270.738z"/>
	</g>
	<g>
		<polygon fill="#1B1B1A" points="539.141,289.671 538.731,289.316 539.141,288.961 		"/>
		<path fill="#1B1B1A" d="M539.141,289.723c-0.012,0-0.024-0.004-0.034-0.013l-0.41-0.355c-0.011-0.01-0.018-0.024-0.018-0.039
			s0.007-0.03,0.018-0.039l0.41-0.355c0.016-0.013,0.037-0.016,0.056-0.008c0.019,0.009,0.031,0.027,0.031,0.048v0.71
			c0,0.02-0.012,0.039-0.031,0.048C539.156,289.721,539.148,289.723,539.141,289.723z M538.811,289.316l0.278,0.241v-0.482
			L538.811,289.316z"/>
	</g>
	<g>
		<polygon fill="#1B1B1A" points="539.141,257.27 538.731,256.915 539.141,256.56 		"/>
		<path fill="#1B1B1A" d="M539.141,257.322c-0.012,0-0.024-0.004-0.034-0.013l-0.41-0.355c-0.011-0.01-0.018-0.024-0.018-0.039
			s0.007-0.03,0.018-0.039l0.41-0.355c0.016-0.013,0.037-0.016,0.056-0.008c0.019,0.008,0.031,0.027,0.031,0.047v0.71
			c0,0.02-0.012,0.039-0.031,0.047C539.156,257.321,539.148,257.322,539.141,257.322z M538.811,256.915l0.278,0.241v-0.482
			L538.811,256.915z"/>
	</g>
	<g>
		<polygon fill="#1B1B1A" points="539.141,281.207 538.731,280.851 539.141,280.496 		"/>
		<path fill="#1B1B1A" d="M539.141,281.259c-0.012,0-0.024-0.004-0.034-0.013l-0.41-0.355c-0.011-0.01-0.018-0.024-0.018-0.039
			s0.007-0.03,0.018-0.039l0.41-0.355c0.016-0.013,0.037-0.016,0.056-0.008c0.019,0.009,0.031,0.027,0.031,0.048v0.71
			c0,0.02-0.012,0.039-0.031,0.048C539.156,281.257,539.148,281.259,539.141,281.259z M538.811,280.851l0.278,0.241v-0.482
			L538.811,280.851z"/>
	</g>
	<g>
		<polygon fill="#1B1B1A" points="638.216,248.81 638.626,249.165 638.216,249.52 		"/>
		<path fill="#1B1B1A" d="M638.216,249.572c-0.007,0-0.015-0.002-0.022-0.005c-0.019-0.008-0.031-0.027-0.031-0.047v-0.71
			c0-0.02,0.012-0.039,0.031-0.047c0.019-0.009,0.04-0.005,0.056,0.008l0.41,0.355c0.011,0.01,0.018,0.024,0.018,0.039
			s-0.007,0.03-0.018,0.039l-0.41,0.355C638.241,249.568,638.228,249.572,638.216,249.572z M638.268,248.924v0.482l0.278-0.241
			L638.268,248.924z"/>
	</g>
	<g>
		<polygon fill="#1B1B1A" points="638.216,260.984 638.626,261.339 638.216,261.695 		"/>
		<path fill="#1B1B1A" d="M638.216,261.747c-0.007,0-0.015-0.002-0.022-0.005c-0.019-0.008-0.031-0.027-0.031-0.047v-0.71
			c0-0.02,0.012-0.039,0.031-0.047c0.019-0.009,0.04-0.005,0.056,0.008l0.41,0.355c0.011,0.01,0.018,0.024,0.018,0.039
			s-0.007,0.03-0.018,0.039l-0.41,0.355C638.241,261.742,638.228,261.747,638.216,261.747z M638.268,261.098v0.482l0.278-0.241
			L638.268,261.098z"/>
	</g>
	<g>
		<polygon fill="#1B1B1A" points="638.216,271.098 638.626,271.453 638.216,271.808 		"/>
		<path fill="#1B1B1A" d="M638.216,271.86c-0.007,0-0.015-0.002-0.022-0.005c-0.019-0.008-0.031-0.027-0.031-0.047v-0.71
			c0-0.02,0.012-0.039,0.031-0.047c0.019-0.009,0.04-0.005,0.056,0.008l0.41,0.355c0.011,0.01,0.018,0.024,0.018,0.039
			s-0.007,0.03-0.018,0.039l-0.41,0.355C638.241,271.856,638.228,271.86,638.216,271.86z M638.268,271.212v0.482l0.278-0.241
			L638.268,271.212z"/>
	</g>
	<g>
		<polygon fill="#1B1B1A" points="638.216,279.562 638.626,279.917 638.216,280.272 		"/>
		<path fill="#1B1B1A" d="M638.216,280.324c-0.007,0-0.015-0.002-0.022-0.005c-0.019-0.009-0.031-0.027-0.031-0.048v-0.71
			c0-0.02,0.012-0.039,0.031-0.048c0.019-0.008,0.04-0.005,0.056,0.008l0.41,0.355c0.011,0.01,0.018,0.024,0.018,0.039
			s-0.007,0.03-0.018,0.039l-0.41,0.355C638.241,280.32,638.228,280.324,638.216,280.324z M638.268,279.676v0.482l0.278-0.241
			L638.268,279.676z"/>
	</g>
	<g>
		<polygon fill="#1B1B1A" points="638.216,287.202 638.626,287.557 638.216,287.912 		"/>
		<path fill="#1B1B1A" d="M638.216,287.964c-0.007,0-0.015-0.002-0.022-0.005c-0.019-0.009-0.031-0.027-0.031-0.048v-0.71
			c0-0.02,0.012-0.039,0.031-0.048s0.04-0.005,0.056,0.008l0.41,0.355c0.011,0.01,0.018,0.024,0.018,0.039s-0.007,0.03-0.018,0.039
			l-0.41,0.355C638.241,287.96,638.228,287.964,638.216,287.964z M638.268,287.316v0.482l0.278-0.241L638.268,287.316z"/>
	</g>
	<g>
		<polygon fill="#1B1B1A" points="638.216,293.193 638.626,293.548 638.216,293.903 		"/>
		<path fill="#1B1B1A" d="M638.216,293.955c-0.007,0-0.015-0.002-0.022-0.005c-0.019-0.009-0.031-0.027-0.031-0.048v-0.71
			c0-0.02,0.012-0.039,0.031-0.048c0.019-0.008,0.04-0.005,0.056,0.008l0.41,0.355c0.011,0.01,0.018,0.024,0.018,0.039
			s-0.007,0.03-0.018,0.039l-0.41,0.355C638.241,293.951,638.228,293.955,638.216,293.955z M638.268,293.307v0.482l0.278-0.241
			L638.268,293.307z"/>
	</g>
	
		<rect x="636.956" y="297.12" transform="matrix(-0.707 -0.7072 0.7072 -0.707 878.3888 958.2579)" fill="#BCA695" width="1.48" height="0.104"/>
	
		<rect x="637.673" y="296.422" transform="matrix(-0.7071 -0.7071 0.7071 -0.7071 878.5394 958.2263)" fill="#BCA695" width="0.104" height="1.48"/>
	<circle fill="#1B1B1A" cx="637.697" cy="297.168" r="0.148"/>
	
		<rect x="636.985" y="299.538" transform="matrix(-0.7071 -0.7071 0.7071 -0.7071 876.8214 962.3719)" fill="#BCA695" width="1.479" height="0.104"/>
	
		<rect x="637.673" y="298.851" transform="matrix(-0.7071 -0.7071 0.7071 -0.7071 876.8226 962.3724)" fill="#BCA695" width="0.104" height="1.479"/>
	<circle fill="#1B1B1A" cx="637.698" cy="299.597" r="0.148"/>
</g>
<g id="Intolerance" display="none">
	<g id="Nomi_2_" display="inline">
		<polygon fill="#1B1B1A" stroke="#1B1B1A" stroke-linejoin="round" stroke-miterlimit="10" points="114.32,82.577 110.391,79.176 
			114.32,75.775 		"/>
		<polygon fill="#1B1B1A" stroke="#1B1B1A" stroke-linejoin="round" stroke-miterlimit="10" points="114.32,255.812 
			110.391,252.411 114.32,249.011 		"/>
		<polygon fill="#1B1B1A" stroke="#1B1B1A" stroke-linejoin="round" stroke-miterlimit="10" points="114.32,424.636 
			110.391,421.235 114.32,417.834 		"/>
		<polygon fill="#1B1B1A" stroke="#1B1B1A" stroke-linejoin="round" stroke-miterlimit="10" points="1063.037,69.599 1066.966,73 
			1063.037,76.401 		"/>
		<polygon fill="#1B1B1A" stroke="#1B1B1A" stroke-linejoin="round" stroke-miterlimit="10" points="1063.037,211.952 
			1066.966,215.353 1063.037,218.754 		"/>
		<polygon fill="#1B1B1A" stroke="#1B1B1A" stroke-linejoin="round" stroke-miterlimit="10" points="1063.037,332.246 
			1066.966,335.647 1063.037,339.048 		"/>
		<polygon fill="#1B1B1A" stroke="#1B1B1A" stroke-linejoin="round" stroke-miterlimit="10" points="1063.037,417.246 
			1066.966,420.647 1063.037,424.048 		"/>
		<polygon fill="#1B1B1A" stroke="#1B1B1A" stroke-linejoin="round" stroke-miterlimit="10" points="1063.037,490.188 
			1066.966,493.588 1063.037,496.989 		"/>
		<polygon fill="#1B1B1A" stroke="#1B1B1A" stroke-linejoin="round" stroke-miterlimit="10" points="1063.037,462.541 
			1066.966,465.941 1063.037,469.342 		"/>
	</g>
	<g display="inline">
		<g id="Pro_2_">
			<path fill="none" stroke="#1F8E6C" stroke-width="35.2941" stroke-opacity="0.4" d="M123.32,65.941
				c465,0,465,109.706,930,109.706"/>
			<path fill="none" stroke="#1F8E6C" stroke-width="35.2941" stroke-opacity="0.4" d="M123.32,30.647c465,0,465-15,930-15"/>
			<path fill="none" stroke="#1F8E6C" stroke-width="26.4706" stroke-opacity="0.4" d="M123.32,96.824
				c465,0,465,199.118,930,199.118"/>
			<path fill="none" stroke="#1F8E6C" stroke-width="26.4706" stroke-opacity="0.4" d="M123.32,123.294
				c465,0,465,288.529,930,288.529"/>
			<path fill="none" stroke="#1F8E6C" stroke-width="8.8235" stroke-opacity="0.4" d="M123.32,140.941
				c465,0,465,316.176,930,316.176"/>
		</g>
		<g id="Neutral_2_">
			<path fill="none" stroke="#F6A000" stroke-width="70.5882" stroke-opacity="0.4" d="M123.32,190.647
				c465,0,465-122.059,930-122.059"/>
			<path fill="none" stroke="#F6A000" stroke-width="52.9412" stroke-opacity="0.4" d="M123.32,287.706c465,0,465,47.941,930,47.941
				"/>
			<path fill="none" stroke="#F6A000" stroke-width="35.2941" stroke-opacity="0.4" d="M123.32,243.588c465,0,465-32.647,930-32.647
				"/>
			<path fill="none" stroke="#F6A000" stroke-width="17.6471" stroke-opacity="0.4" d="M123.32,331.824
				c465,0,465,138.529,930,138.529"/>
			<path fill="none" stroke="#F6A000" stroke-width="8.8235" stroke-opacity="0.4" d="M123.32,345.059
				c465,0,465,148.529,930,148.529"/>
			<path fill="none" stroke="#F6A000" stroke-width="8.8235" stroke-opacity="0.4" d="M123.32,318.588
				c465,0,465,110.882,930,110.882"/>
		</g>
		<g id="Cons_2_">
			<path fill="none" stroke="#AF1922" stroke-width="44.1176" stroke-opacity="0.4" d="M123.32,381.529
				c465,0,465-255.588,930-255.588"/>
			<path fill="none" stroke="#AF1922" stroke-width="44.1176" stroke-opacity="0.4" d="M123.32,425.647c465,0,465-175,930-175"/>
			<path fill="none" stroke="#AF1922" stroke-width="26.4706" stroke-opacity="0.4" d="M123.32,460.941c465,0,465-85.588,930-85.588
				"/>
			<path fill="none" stroke="#AF1922" stroke-width="8.8235" stroke-opacity="0.4" d="M123.32,478.588c465,0,465-40.294,930-40.294"
				/>
		</g>
	</g>
	<g id="Barre_2_" display="inline">
		<g>
			<rect x="1053.32" y="-2" fill="#1B1B1A" width="10" height="150">
			<title>a_Writer
17</title>
			</rect>
			<rect x="1053.32" y="158" fill="#1B1B1A" width="10" height="114.706">
			<title>b_Expert
13</title>
			</rect>
			<rect x="1053.32" y="282.706" fill="#1B1B1A" width="10" height="105.882">
			<title>c_Undefined
12</title>
			</rect>
			<rect x="1053.32" y="398.588" fill="#1B1B1A" width="10" height="44.118">
			<title>d_Journalist
5</title>
			</rect>
			<rect x="1053.32" y="452.706" fill="#1B1B1A" width="10" height="26.471">
			<title>e_MD
3</title>
			</rect>
			<rect x="1053.32" y="489.176" fill="#1B1B1A" width="10" height="8.824">
			<title>f_Organization
1</title>
			</rect>
		</g>
		<g>
			<rect x="113.32" y="13" fill="#1B1B1A" width="10" height="132.353">
			<title>a_Pro
15</title>
			</rect>
			<g>
				<rect x="113.32" y="155.353" fill="#1B1B1A" width="10" height="194.118">
				<title>b_Neutral
22</title>
				</rect>
				<rect x="113.32" y="359.471" fill="#1B1B1A" width="10" height="123.529">
				<title>c_Cons
14</title>
				</rect>
			</g>
		</g>
	</g>
	<g display="inline">
		<line fill="none" stroke="#BCA695" stroke-miterlimit="10" x1="1053.345" y1="511.516" x2="1063.363" y2="521.534"/>
		<line fill="none" stroke="#BCA695" stroke-miterlimit="10" x1="1053.345" y1="521.534" x2="1063.363" y2="511.516"/>
	</g>
	<g display="inline">
		<circle fill="#1B1B1A" cx="1058.071" cy="516.525" r="1.417"/>
	</g>
	<g display="inline">
		<line fill="none" stroke="#BCA695" stroke-miterlimit="10" x1="1053.345" y1="534.774" x2="1063.364" y2="544.793"/>
		<line fill="none" stroke="#BCA695" stroke-miterlimit="10" x1="1053.345" y1="544.793" x2="1063.364" y2="534.774"/>
	</g>
	<g display="inline">
		<circle fill="#1B1B1A" cx="1058.071" cy="539.784" r="1.417"/>
	</g>
</g>
<g id="Hormones" display="none">
	<g display="inline">
		<g id="Neutral_3_">
			<path fill="none" stroke="#F6A000" stroke-width="27.7419" stroke-opacity="0.4" d="M124.32,142.968
				c465,0,465-104.355,930-104.355"/>
			<path fill="none" stroke="#F6A000" stroke-width="6.9355" stroke-opacity="0.4" d="M124.32,160.306
				c465,0,465,278.548,930,278.548"/>
		</g>
		<g id="Cons_3_">
			<path fill="none" stroke="#AF1922" stroke-width="152.581" stroke-opacity="0.4" d="M124.32,301.677
				c465,0,465-172.903,930-172.903"/>
			<path fill="none" stroke="#AF1922" stroke-width="27.7419" stroke-opacity="0.4" d="M124.32,391.839
				c465,0,465-128.226,930-128.226"/>
			<path fill="none" stroke="#AF1922" stroke-width="20.8065" stroke-opacity="0.4" d="M124.32,436.919c465,0,465-59.677,930-59.677
				"/>
			<path fill="none" stroke="#AF1922" stroke-width="20.8065" stroke-opacity="0.4" d="M124.32,416.113c465,0,465-83.548,930-83.548
				"/>
			<path fill="none" stroke="#AF1922" stroke-width="20.8065" stroke-opacity="0.4" d="M124.32,457.726c465,0,465-42.742,930-42.742
				"/>
			<path fill="none" stroke="#AF1922" stroke-width="6.9355" stroke-opacity="0.4" d="M124.32,471.597c465,0,465-11.935,930-11.935"
				/>
			<path fill="none" stroke="#AF1922" stroke-width="6.9355" stroke-opacity="0.4" d="M124.32,478.532c465,0,465-1.935,930-1.935"/>
		</g>
		<g id="Cons_x2A__1_">
			<path fill="none" stroke="#F08575" stroke-width="13.871" stroke-opacity="0.4" d="M124.32,201.516
				c465,0,465,247.742,930,247.742"/>
			<path fill="none" stroke="#F08575" stroke-width="6.9355" stroke-opacity="0.4" d="M124.32,177.242c465,0,465,69.032,930,69.032"
				/>
			<path fill="none" stroke="#F08575" stroke-width="6.9355" stroke-opacity="0.4" d="M124.32,191.113c465,0,465,210,930,210"/>
			<path fill="none" stroke="#F08575" stroke-width="6.9355" stroke-opacity="0.4" d="M124.32,211.919
				c465,0,465,281.613,930,281.613"/>
			<path fill="none" stroke="#F08575" stroke-width="6.9355" stroke-opacity="0.4" d="M124.32,184.177
				c465,0,465,179.194,930,179.194"/>
		</g>
		<g id="Pro_3_">
			<path fill="none" stroke="#1F8E6C" stroke-width="27.7419" stroke-opacity="0.4" d="M124.32,46.677
				c465,0,465,182.258,930,182.258"/>
			<path fill="none" stroke="#1F8E6C" stroke-width="27.7419" stroke-opacity="0.4" d="M124.32,74.419
				c465,0,465,226.935,930,226.935"/>
			<path fill="none" stroke="#1F8E6C" stroke-width="20.8065" stroke-opacity="0.4" d="M124.32,22.403c465,0,465-15,930-15"/>
			<path fill="none" stroke="#1F8E6C" stroke-width="6.9355" stroke-opacity="0.4" d="M124.32,91.758c465,0,465,264.677,930,264.677
				"/>
		</g>
		<g id="Pro_x2A__2_">
			<path fill="none" stroke="#A7C8AF" stroke-width="6.9355" stroke-opacity="0.4" d="M124.32,108.694c465,0,465-87.419,930-87.419"
				/>
			<path fill="none" stroke="#A7C8AF" stroke-width="6.9355" stroke-opacity="0.4" d="M124.32,115.629
				c465,0,465,203.065,930,203.065"/>
		</g>
	</g>
	<g id="Barre_3_" display="inline">
		<rect x="1054.32" y="-3" fill="#1B1B1A" width="10" height="208.065">
		<title>a_Writer
30</title>
		</rect>
		<rect x="1054.32" y="215.065" fill="#1B1B1A" width="10" height="62.419">
		<title>b_Organization
9</title>
		</rect>
		<rect x="1054.32" y="287.484" fill="#1B1B1A" width="10" height="55.484">
		<title>c_Industry
8</title>
		</rect>
		<rect x="1054.32" y="352.968" fill="#1B1B1A" width="10" height="34.677">
		<title>d_MD
5</title>
		</rect>
		<rect x="1054.32" y="397.645" fill="#1B1B1A" width="10" height="27.742">
		<title>e_Expert
4</title>
		</rect>
		<rect x="1054.32" y="435.387" fill="#1B1B1A" width="10" height="27.742">
		<title>f_Journalist
4</title>
		</rect>
		<rect x="1054.32" y="473.129" fill="#1B1B1A" width="10" height="6.935">
		<title>g_Academics
1</title>
		</rect>
		<rect x="1054.32" y="490.065" fill="#1B1B1A" width="10" height="6.935">
		<title>h_Undefined
1</title>
		</rect>
		<rect x="114.32" y="12" fill="#1B1B1A" width="10" height="83.226">
		<title>a_Pro
12</title>
		</rect>
		<rect x="114.32" y="105.226" fill="#1B1B1A" width="10" height="13.871">
		<title>b_Pro*
2</title>
		</rect>
		<rect x="114.32" y="129.097" fill="#1B1B1A" width="10" height="34.677">
		<title>c_Neutral
5</title>
		</rect>
		<rect x="114.32" y="173.774" fill="#1B1B1A" width="10" height="41.613">
		<title>d_Cons*
6</title>
		</rect>
		<rect x="114.32" y="225.387" fill="#1B1B1A" width="10" height="256.613">
		<title>e_Cons
37</title>
		</rect>
	</g>
	<g display="inline">
		<polygon fill="#1B1B1A" stroke="#1B1B1A" stroke-linejoin="round" stroke-miterlimit="10" points="114.32,57.013 110.391,53.613 
			114.32,50.212 		"/>
		<polygon fill="#1B1B1A" stroke="#1B1B1A" stroke-linejoin="round" stroke-miterlimit="10" points="114.32,357.094 
			110.391,353.693 114.32,350.293 		"/>
		<polygon fill="#1B1B1A" stroke="#1B1B1A" stroke-linejoin="round" stroke-miterlimit="10" points="114.32,149.836 
			110.391,146.435 114.32,143.034 		"/>
		<polygon fill="#1B1B1A" stroke="#1B1B1A" stroke-linejoin="round" stroke-miterlimit="10" points="114.32,115.562 
			110.391,112.161 114.32,108.761 		"/>
		<polygon fill="#1B1B1A" stroke="#1B1B1A" stroke-linejoin="round" stroke-miterlimit="10" points="1063.037,97.632 
			1066.966,101.032 1063.037,104.433 		"/>
		<polygon fill="#1B1B1A" stroke="#1B1B1A" stroke-linejoin="round" stroke-miterlimit="10" points="1063.037,242.874 
			1066.966,246.274 1063.037,249.675 		"/>
		<polygon fill="#1B1B1A" stroke="#1B1B1A" stroke-linejoin="round" stroke-miterlimit="10" points="1063.037,311.825 
			1066.966,315.226 1063.037,318.626 		"/>
		<polygon fill="#1B1B1A" stroke="#1B1B1A" stroke-linejoin="round" stroke-miterlimit="10" points="1063.037,408.116 
			1066.966,411.516 1063.037,414.917 		"/>
		<polygon fill="#1B1B1A" stroke="#1B1B1A" stroke-linejoin="round" stroke-miterlimit="10" points="1063.037,445.857 
			1066.966,449.258 1063.037,452.659 		"/>
		<polygon fill="#1B1B1A" stroke="#1B1B1A" stroke-linejoin="round" stroke-miterlimit="10" points="1063.037,473.639 
			1066.966,476.597 1063.037,479.554 		"/>
		<polygon fill="#1B1B1A" stroke="#1B1B1A" stroke-linejoin="round" stroke-miterlimit="10" points="1063.037,490.574 
			1066.966,493.532 1063.037,496.49 		"/>
		<polygon fill="#1B1B1A" stroke="#1B1B1A" stroke-linejoin="round" stroke-miterlimit="10" points="1063.037,366.906 
			1066.966,370.306 1063.037,373.707 		"/>
		<polygon fill="#1B1B1A" stroke="#1B1B1A" stroke-linejoin="round" stroke-miterlimit="10" points="114.32,197.981 
			110.391,194.581 114.32,191.18 		"/>
	</g>
</g>
<g id="Body" display="none">
	<g id="Nomi_3_" display="inline">
		<polygon fill="#1B1B1A" stroke="#1B1B1A" stroke-linejoin="round" stroke-miterlimit="10" points="114.32,37.615 110.391,34.214 
			114.32,30.813 		"/>
		<polygon fill="#1B1B1A" stroke="#1B1B1A" stroke-linejoin="round" stroke-miterlimit="10" points="114.32,366.9 110.391,363.5 
			114.32,360.099 		"/>
		<polygon fill="#1B1B1A" stroke="#1B1B1A" stroke-linejoin="round" stroke-miterlimit="10" points="114.32,186.186 
			110.391,182.785 114.32,179.385 		"/>
		<polygon fill="#1B1B1A" stroke="#1B1B1A" stroke-linejoin="round" stroke-miterlimit="10" points="114.32,117.258 
			110.391,113.857 114.32,110.457 		"/>
		<polygon fill="#1B1B1A" stroke="#1B1B1A" stroke-linejoin="round" stroke-miterlimit="10" points="1063.037,74.028 
			1066.966,77.429 1063.037,80.829 		"/>
		<polygon fill="#1B1B1A" stroke="#1B1B1A" stroke-linejoin="round" stroke-miterlimit="10" points="1063.037,255.457 
			1066.966,258.857 1063.037,262.258 		"/>
		<polygon fill="#1B1B1A" stroke="#1B1B1A" stroke-linejoin="round" stroke-miterlimit="10" points="1063.037,377.957 
			1066.966,381.357 1063.037,384.758 		"/>
		<polygon fill="#1B1B1A" stroke="#1B1B1A" stroke-linejoin="round" stroke-miterlimit="10" points="1063.037,430.814 
			1066.966,434.214 1063.037,437.615 		"/>
		<polygon fill="#1B1B1A" stroke="#1B1B1A" stroke-linejoin="round" stroke-miterlimit="10" points="1063.037,451.528 
			1066.966,454.929 1063.037,458.329 		"/>
		<polygon fill="#1B1B1A" stroke="#1B1B1A" stroke-linejoin="round" stroke-miterlimit="10" points="1063.037,472.242 
			1066.966,475.643 1063.037,479.043 		"/>
		<polygon fill="#1B1B1A" stroke="#1B1B1A" stroke-linejoin="round" stroke-miterlimit="10" points="114.32,239.043 
			110.391,235.643 114.32,232.242 		"/>
	</g>
	<g display="inline">
		<g id="Pro_x2A__3_">
			<path fill="none" stroke="#A7C8AF" stroke-width="32.1429" stroke-opacity="0.4" d="M124.32,108.5c465,0,465-79.286,930-79.286"
				/>
			<path fill="none" stroke="#A7C8AF" stroke-width="10.7143" stroke-opacity="0.4" d="M124.32,129.929c465,0,465,80.714,930,80.714
				"/>
		</g>
		<path id="Cons_x2A__2_" fill="none" stroke="#F08575" stroke-width="10.7143" stroke-opacity="0.4" d="M124.32,235.643
			c465,0,465,7.143,930,7.143"/>
		<g id="Neutral_4_">
			<path fill="none" stroke="#F6A000" stroke-width="42.8571" stroke-opacity="0.4" d="M124.32,166.714c465,0,465-100,930-100"/>
			<path fill="none" stroke="#F6A000" stroke-width="21.4286" stroke-opacity="0.4" d="M124.32,198.857c465,0,465,27.857,930,27.857
				"/>
			<path fill="none" stroke="#F6A000" stroke-width="10.7143" stroke-opacity="0.4" d="M124.32,214.929
				c465,0,465,166.429,930,166.429"/>
		</g>
		<g id="Pro_4_">
			<path fill="none" stroke="#1F8E6C" stroke-width="32.1429" stroke-opacity="0.4" d="M124.32,55.643
				c465,0,465,304.286,930,304.286"/>
			<path fill="none" stroke="#1F8E6C" stroke-width="32.1429" stroke-opacity="0.4" d="M124.32,2.071c465,0,465-5,930-5"/>
			<path fill="none" stroke="#1F8E6C" stroke-width="21.4286" stroke-opacity="0.4" d="M124.32,28.857
				c465,0,465,165.714,930,165.714"/>
			<path fill="none" stroke="#1F8E6C" stroke-width="10.7143" stroke-opacity="0.4" d="M124.32,77.071
				c465,0,465,398.571,930,398.571"/>
		</g>
		<g id="Cons_4_">
			<path fill="none" stroke="#AF1922" stroke-width="85.7143" stroke-opacity="0.4" d="M124.32,293.857
				c465,0,465-162.857,930-162.857"/>
			<path fill="none" stroke="#AF1922" stroke-width="85.7143" stroke-opacity="0.4" d="M124.32,379.571c465,0,465-88.571,930-88.571
				"/>
			<path fill="none" stroke="#AF1922" stroke-width="32.1429" stroke-opacity="0.4" d="M124.32,438.5c465,0,465-35.714,930-35.714"
				/>
			<path fill="none" stroke="#AF1922" stroke-width="10.7143" stroke-opacity="0.4" d="M124.32,470.643c465,0,465-15.714,930-15.714
				"/>
			<path fill="none" stroke="#AF1922" stroke-width="10.7143" stroke-opacity="0.4" d="M124.32,459.929c465,0,465-25.714,930-25.714
				"/>
		</g>
	</g>
	<g display="inline">
		<rect x="1054.32" y="-19" fill="#1B1B1A" width="10" height="192.857">
		<title>a_Expert
18</title>
		</rect>
		<rect x="1054.32" y="183.857" fill="#1B1B1A" width="10" height="150">
		<title>b_Writer
14</title>
		</rect>
		<rect x="1054.32" y="343.857" fill="#1B1B1A" width="10" height="75">
		<title>c_Undefined
7</title>
		</rect>
		<rect x="1054.32" y="428.857" fill="#1B1B1A" width="10" height="10.714">
		<title>d_Journalist
1</title>
		</rect>
		<rect x="1054.32" y="449.571" fill="#1B1B1A" width="10" height="10.714">
		<title>e_MD
1</title>
		</rect>
		<rect x="1054.32" y="470.286" fill="#1B1B1A" width="10" height="10.714">
		<title>f_Organization
1</title>
		</rect>
		<rect x="114.32" y="-14" fill="#1B1B1A" width="10" height="96.429">
		<title>a_Pro
9</title>
		</rect>
		<rect x="114.32" y="92.429" fill="#1B1B1A" width="10" height="42.857">
		<title>b_Pro*
4</title>
		</rect>
		<rect x="114.32" y="145.286" fill="#1B1B1A" width="10" height="75">
		<title>c_Neutral
7</title>
		</rect>
		<rect x="114.32" y="230.286" fill="#1B1B1A" width="10" height="10.714">
		<title>d_Cons*
1</title>
		</rect>
		<rect x="114.32" y="251" fill="#1B1B1A" width="10" height="225">
		<title>e_Cons
21</title>
		</rect>
	</g>
	<g display="inline">
		<line fill="none" stroke="#BCA695" stroke-miterlimit="10" x1="1053.345" y1="492.58" x2="1063.363" y2="502.599"/>
		<line fill="none" stroke="#BCA695" stroke-miterlimit="10" x1="1053.345" y1="502.599" x2="1063.363" y2="492.58"/>
	</g>
	<g display="inline">
		<circle fill="#1B1B1A" cx="1058.071" cy="497.59" r="1.417"/>
	</g>
	<g display="inline">
		<line fill="none" stroke="#BCA695" stroke-miterlimit="10" x1="1053.345" y1="515.839" x2="1063.364" y2="525.857"/>
		<line fill="none" stroke="#BCA695" stroke-miterlimit="10" x1="1053.345" y1="525.857" x2="1063.364" y2="515.839"/>
	</g>
	<g display="inline">
		<circle fill="#1B1B1A" cx="1058.071" cy="520.848" r="1.417"/>
	</g>
</g>
<g>
	<path fill="#2C292A" d="M564.269,321.646c-0.6,0.576-1.403,0.852-2.23,0.852h-2.963v-8.503h2.963c0.827,0,1.631,0.288,2.23,0.863
		c0.936,0.888,1.092,2.159,1.092,3.382C565.361,319.463,565.193,320.758,564.269,321.646z M563.55,315.566
		c-0.396-0.396-0.959-0.588-1.511-0.588h-1.896v6.536h1.896c0.552,0,1.115-0.191,1.511-0.588c0.672-0.684,0.731-1.774,0.731-2.687
		C564.281,317.329,564.222,316.261,563.55,315.566z"/>
	<path fill="#2C292A" d="M567.8,322.498v-8.503h1.092v8.503H567.8z"/>
	<path fill="#2C292A" d="M576.989,321.802c-0.588,0.575-1.499,0.852-2.411,0.852c-1.031,0-1.858-0.288-2.435-0.815
		c-0.539-0.504-0.911-1.235-0.911-2.039h1.115c0,0.504,0.252,1.008,0.6,1.343c0.384,0.372,1.031,0.528,1.631,0.528
		c0.648,0,1.2-0.132,1.584-0.492c0.264-0.239,0.432-0.539,0.432-0.995c0-0.66-0.42-1.211-1.428-1.367l-1.343-0.204
		c-1.271-0.191-2.267-0.899-2.267-2.255c0-0.636,0.287-1.247,0.743-1.679c0.588-0.552,1.343-0.84,2.23-0.84
		c0.828,0,1.644,0.276,2.207,0.815c0.516,0.492,0.792,1.104,0.815,1.823h-1.115c-0.024-0.42-0.18-0.792-0.42-1.067
		c-0.323-0.372-0.84-0.588-1.499-0.588c-0.611,0-1.14,0.168-1.511,0.588c-0.217,0.252-0.349,0.54-0.349,0.924
		c0,0.768,0.636,1.115,1.271,1.199c0.479,0.06,0.947,0.144,1.415,0.216c1.416,0.204,2.363,1.067,2.363,2.41
		C577.709,320.867,577.409,321.394,576.989,321.802z"/>
	<path fill="#2C292A" d="M580.112,322.498v-8.503h5.685v0.983h-4.617v2.591h4.054v1.007h-4.054v2.938h4.617v0.983h-5.685V322.498z"
		/>
	<path fill="#2C292A" d="M593.262,322.498l-0.696-2.015h-3.693l-0.684,2.015h-1.079l2.998-8.503h1.247l3.011,8.503H593.262z
		 M590.707,315.062l-1.499,4.413h3.01L590.707,315.062z"/>
	<path fill="#2C292A" d="M601.301,321.802c-0.587,0.575-1.499,0.852-2.41,0.852c-1.031,0-1.859-0.288-2.435-0.815
		c-0.54-0.504-0.912-1.235-0.912-2.039h1.116c0,0.504,0.251,1.008,0.6,1.343c0.384,0.372,1.031,0.528,1.631,0.528
		c0.647,0,1.199-0.132,1.583-0.492c0.264-0.239,0.432-0.539,0.432-0.995c0-0.66-0.42-1.211-1.427-1.367l-1.344-0.204
		c-1.271-0.191-2.267-0.899-2.267-2.255c0-0.636,0.288-1.247,0.743-1.679c0.588-0.552,1.344-0.84,2.231-0.84
		c0.827,0,1.643,0.276,2.207,0.815c0.516,0.492,0.791,1.104,0.815,1.823h-1.116c-0.023-0.42-0.18-0.792-0.419-1.067
		c-0.324-0.372-0.84-0.588-1.5-0.588c-0.611,0-1.139,0.168-1.511,0.588c-0.216,0.252-0.348,0.54-0.348,0.924
		c0,0.768,0.636,1.115,1.271,1.199c0.479,0.06,0.947,0.144,1.415,0.216c1.415,0.204,2.362,1.067,2.362,2.41
		C602.02,320.867,601.721,321.394,601.301,321.802z"/>
	<path fill="#2C292A" d="M604.424,322.498v-8.503h5.686v0.983h-4.618v2.591h4.054v1.007h-4.054v2.938h4.618v0.983h-5.686V322.498z"
		/>
	<path fill="#2C292A" d="M617.561,321.802c-0.588,0.575-1.499,0.852-2.411,0.852c-1.031,0-1.858-0.288-2.435-0.815
		c-0.539-0.504-0.911-1.235-0.911-2.039h1.115c0,0.504,0.252,1.008,0.6,1.343c0.384,0.372,1.031,0.528,1.631,0.528
		c0.648,0,1.2-0.132,1.584-0.492c0.264-0.239,0.432-0.539,0.432-0.995c0-0.66-0.42-1.211-1.428-1.367l-1.343-0.204
		c-1.271-0.191-2.267-0.899-2.267-2.255c0-0.636,0.287-1.247,0.743-1.679c0.588-0.552,1.343-0.84,2.23-0.84
		c0.828,0,1.644,0.276,2.207,0.815c0.516,0.492,0.792,1.104,0.815,1.823h-1.115c-0.024-0.42-0.18-0.792-0.42-1.067
		c-0.323-0.372-0.84-0.588-1.499-0.588c-0.611,0-1.14,0.168-1.511,0.588c-0.217,0.252-0.349,0.54-0.349,0.924
		c0,0.768,0.636,1.115,1.271,1.199c0.479,0.06,0.947,0.144,1.415,0.216c1.416,0.204,2.363,1.067,2.363,2.41
		C618.281,320.867,617.981,321.394,617.561,321.802z"/>
</g>
</svg>
