<?xml version="1.0" encoding="utf-8"?>
<!-- Generator: Adobe Illustrator 17.0.0, SVG Export Plug-In . SVG Version: 6.00 Build 0)  -->
<!DOCTYPE svg PUBLIC "-//W3C//DTD SVG 1.1//EN" "http://www.w3.org/Graphics/SVG/1.1/DTD/svg11.dtd">
<svg version="1.1" id="Layer_1" xmlns="http://www.w3.org/2000/svg" xmlns:xlink="http://www.w3.org/1999/xlink" x="0px" y="0px"
	 width="113.89px" height="79.257px" viewBox="532.817 245.004 113.89 79.257"
	 enable-background="new 532.817 245.004 113.89 79.257" xml:space="preserve">
<g id="Livello_1" display="none">
	
		<rect x="-133.073" y="-246" display="inline" opacity="0.9" fill="#EDE2D7" enable-background="new    " width="1408.819" height="996.142"/>
	<rect x="-133.073" y="-246" display="inline" fill="#EDE2D7" width="1408.819" height="996.142"/>
</g>
<g id="Nutrients" display="none">
	<g id="Flussi" display="inline">
		<g id="Pro_x2A_">
			<path fill="none" stroke="#A7C8AF" stroke-width="37.9412" stroke-opacity="0.4" d="M106.927,227.029
				c465,0,465-181.765,930-181.765"/>
			<path fill="none" stroke="#A7C8AF" stroke-width="12.6471" stroke-opacity="0.4" d="M106.927,290.265
				c465,0,465,98.529,930,98.529"/>
			<path fill="none" stroke="#A7C8AF" stroke-width="12.6471" stroke-opacity="0.4" d="M106.927,252.324
				c465,0,465-70.588,930-70.588"/>
			<path fill="none" stroke="#A7C8AF" stroke-width="12.6471" stroke-opacity="0.4" d="M106.927,277.618
				c465,0,465,63.235,930,63.235"/>
			<path fill="none" stroke="#A7C8AF" stroke-width="12.6471" stroke-opacity="0.4" d="M106.927,264.971
				c465,0,465,15.294,930,15.294"/>
		</g>
		<g id="Neutral">
			<path fill="none" stroke="#F6A000" stroke-width="37.9412" stroke-opacity="0.4" d="M106.927,325.559
				c465,0,465-242.353,930-242.353"/>
			<path fill="none" stroke="#F6A000" stroke-width="12.6471" stroke-opacity="0.4" d="M106.927,376.147
				c465,0,465,95.882,930,95.882"/>
			<path fill="none" stroke="#F6A000" stroke-width="12.6471" stroke-opacity="0.4" d="M106.927,350.853
				c465,0,465-156.471,930-156.471"/>
			<path fill="none" stroke="#F6A000" stroke-width="12.6471" stroke-opacity="0.4" d="M106.927,363.5c465,0,465-70.588,930-70.588"
				/>
		</g>
		<g id="Cons">
			<path fill="none" stroke="#AF1922" stroke-width="37.9412" stroke-opacity="0.4" d="M106.927,449.382
				c465,0,465-229.706,930-229.706"/>
			<path fill="none" stroke="#AF1922" stroke-width="37.9412" stroke-opacity="0.4" d="M106.927,411.441
				c465,0,465-290.294,930-290.294"/>
			<path fill="none" stroke="#AF1922" stroke-width="12.6471" stroke-opacity="0.4" d="M106.927,474.676
				c465,0,465-37.941,930-37.941"/>
		</g>
		<g id="Pro">
			<path fill="none" stroke="#1F8E6C" stroke-width="25.2941" stroke-opacity="0.4" d="M106.927,134.824c465,0,465,235,930,235"/>
			<path fill="none" stroke="#1F8E6C" stroke-width="25.2941" stroke-opacity="0.4" d="M106.927,33.647c465,0,465-20,930-20"/>
			<path fill="none" stroke="#1F8E6C" stroke-width="25.2941" stroke-opacity="0.4" d="M106.927,160.118
				c465,0,465,257.647,930,257.647"/>
			<path fill="none" stroke="#1F8E6C" stroke-width="25.2941" stroke-opacity="0.4" d="M106.927,84.235
				c465,0,465,177.059,930,177.059"/>
			<path fill="none" stroke="#1F8E6C" stroke-width="25.2941" stroke-opacity="0.4" d="M106.927,109.529
				c465,0,465,212.353,930,212.353"/>
			<path fill="none" stroke="#1F8E6C" stroke-width="25.2941" stroke-opacity="0.4" d="M106.927,58.941
				c465,0,465,103.824,930,103.824"/>
			<path fill="none" stroke="#1F8E6C" stroke-width="12.6471" stroke-opacity="0.4" d="M106.927,179.088
				c465,0,465,280.294,930,280.294"/>
			<path fill="none" stroke="#1F8E6C" stroke-width="12.6471" stroke-opacity="0.4" d="M106.927,191.735
				c465,0,465,302.941,930,302.941"/>
		</g>
	</g>
	<g id="Nomi" display="inline">
		<polygon fill="#1B1B1A" stroke="#1B1B1A" stroke-linejoin="round" stroke-miterlimit="10" points="1046.565,67.608 
			1050.494,71.008 1046.565,74.409 		"/>
		<g>
			<path d="M1065.233,75.446l1.143-0.187v-8.734l-1.165-0.212V65.28h8.108l0.205,2.585h-1.194l-0.513-1.523h-2.959v3.801h1.86
				l0.271-1.23h1.07v3.728h-1.07l-0.256-1.311h-1.875v3.933h3.296l0.915-1.958l1.253,0.354l-0.381,2.769h-8.708L1065.233,75.446
				L1065.233,75.446z"/>
		</g>
		<polygon fill="#1B1B1A" stroke="#1B1B1A" stroke-linejoin="round" stroke-miterlimit="10" points="1046.565,190.982 
			1050.494,194.382 1046.565,197.783 		"/>
		<g>
			<path d="M1064.631,198.821l1.268-0.183l1.018-8.745l-1.472-0.205v-1.033h4.849l1.912,6.482l0.271,1.421l0.241-1.421l1.604-6.482
				h4.899v1.033l-1.589,0.212l1.304,8.73l1.245,0.19v0.981h-5.017v-0.981l1.237-0.183l-0.755-6.453l-0.285-2.681l-0.432,2.073
				l-2.015,7.8h-1.794l-2.366-7.258l-0.645-2.659l-0.176,2.717l-0.476,6.453l1.486,0.19v0.981h-4.314v-0.979L1064.631,198.821
				L1064.631,198.821z"/>
		</g>
		<polygon fill="#1B1B1A" stroke="#1B1B1A" stroke-linejoin="round" stroke-miterlimit="10" points="1046.565,270.816 
			1050.494,274.217 1046.565,277.618 		"/>
		<g>
			<path d="M1066.243,279.629c0.049-0.161,0.094-0.33,0.133-0.509c0.039-0.178,0.07-0.386,0.095-0.622
				c0.024-0.237,0.044-0.51,0.059-0.817s0.022-0.669,0.022-1.084v-6.862l-1.26-0.213v-1.032h4.914v1.032l-1.193,0.205v5.742
				c0,0.884-0.013,1.655-0.037,2.314s-0.08,1.177-0.168,1.553c-0.113,0.415-0.281,0.797-0.506,1.146s-0.502,0.658-0.831,0.927
				c-0.33,0.269-0.707,0.496-1.132,0.685c-0.425,0.188-0.891,0.328-1.398,0.421l-0.543-0.864c0.162-0.054,0.331-0.137,0.51-0.249
				c0.178-0.112,0.352-0.254,0.52-0.425c0.169-0.171,0.324-0.368,0.469-0.593S1066.155,279.907,1066.243,279.629z"/>
		</g>
		<polygon fill="#1B1B1A" stroke="#1B1B1A" stroke-linejoin="round" stroke-miterlimit="10" points="1046.565,324.805 
			1050.494,328.206 1046.565,331.607 		"/>
		<g>
			<path d="M1064.361,332.645l0.879-0.189l3.384-9.977h2.586l3.405,9.983l0.85,0.183v0.981h-4.636v-0.981l1.055-0.19l-0.527-1.81
				h-3.685l-0.513,1.839l1.164,0.161v0.981h-3.947L1064.361,332.645z M1071.026,329.517l-1.326-4.463l-0.227-1.017l-0.227,1.017
				l-1.26,4.463H1071.026z"/>
		</g>
		<polygon fill="#1B1B1A" stroke="#1B1B1A" stroke-linejoin="round" stroke-miterlimit="10" points="1046.565,372.746 
			1050.494,376.147 1046.565,379.548 		"/>
		<g>
			<path d="M1070.067,381.574c-0.869,0-1.619-0.133-2.249-0.399s-1.147-0.643-1.553-1.13s-0.706-1.072-0.901-1.757
				s-0.293-1.442-0.293-2.273c0-0.855,0.123-1.628,0.37-2.316c0.247-0.689,0.596-1.278,1.048-1.769
				c0.451-0.489,0.994-0.864,1.629-1.126c0.635-0.261,1.341-0.392,2.117-0.392c0.869,0,1.617,0.127,2.245,0.382
				c0.627,0.255,1.143,0.618,1.545,1.09c0.403,0.472,0.7,1.04,0.894,1.704c0.193,0.665,0.289,1.409,0.289,2.233
				c0,0.857-0.123,1.639-0.369,2.344c-0.247,0.705-0.595,1.31-1.044,1.812c-0.449,0.503-0.99,0.895-1.622,1.176
				C1071.54,381.434,1070.838,381.574,1070.067,381.574z M1070.132,380.556c0.732,0,1.308-0.396,1.725-1.188
				c0.418-0.792,0.626-1.974,0.626-3.545c0-0.771-0.053-1.435-0.16-1.99s-0.262-1.013-0.462-1.37
				c-0.2-0.356-0.446-0.619-0.736-0.787s-0.618-0.252-0.985-0.252c-0.365,0-0.694,0.092-0.984,0.276
				c-0.291,0.185-0.536,0.465-0.736,0.841c-0.2,0.377-0.354,0.854-0.461,1.431s-0.162,1.256-0.162,2.036
				c0,0.776,0.053,1.449,0.158,2.02c0.104,0.569,0.258,1.042,0.461,1.415c0.203,0.374,0.448,0.653,0.736,0.838
				S1069.766,380.556,1070.132,380.556z"/>
		</g>
		<polygon fill="#1B1B1A" stroke="#1B1B1A" stroke-linejoin="round" stroke-miterlimit="10" points="1046.565,420.688 
			1050.494,424.088 1046.565,427.489 		"/>
		<g>
			<path d="M1065.84,419.636l-0.952-0.209v-1.066h4.761v1.066l-1.238,0.217v5.45c0,1.153,0.197,2.006,0.59,2.556
				c0.393,0.551,0.982,0.826,1.77,0.826c0.4,0,0.745-0.079,1.036-0.238c0.29-0.158,0.529-0.383,0.718-0.674
				c0.188-0.291,0.326-0.642,0.414-1.053s0.131-0.871,0.131-1.381v-5.494l-1.26-0.209v-1.066h3.838v1.066l-0.988,0.209v5.381
				c0,0.809-0.107,1.498-0.322,2.068c-0.215,0.571-0.51,1.035-0.887,1.395c-0.375,0.358-0.821,0.621-1.336,0.787
				c-0.516,0.166-1.076,0.249-1.682,0.249c-0.775,0-1.452-0.087-2.028-0.26c-0.576-0.174-1.054-0.447-1.432-0.82
				c-0.379-0.373-0.662-0.852-0.85-1.437c-0.188-0.585-0.282-1.287-0.282-2.105L1065.84,419.636L1065.84,419.636z"/>
		</g>
		<polygon fill="#1B1B1A" stroke="#1B1B1A" stroke-linejoin="round" stroke-miterlimit="10" points="1046.565,462.305 
			1050.494,465.706 1046.565,469.107 		"/>
		<g>
			<path d="M1065.262,461.314l-0.879-0.217v-1.118h4.701v1.118l-1.23,0.217l1.81,6.539l0.271,1.428l0.257-1.428l1.53-5.277
				l-0.424-1.27l-0.938-0.209v-1.118h4.885v1.118l-1.392,0.209l1.816,6.547l0.315,1.536l0.256-1.536l1.67-6.547l-1.304-0.209v-1.118
				h3.685v1.118l-0.945,0.217l-2.834,9.812h-2.22l-1.94-6.561l-1.854,6.561h-2.176L1065.262,461.314z"/>
		</g>
		<polygon fill="#1B1B1A" stroke="#1B1B1A" stroke-linejoin="round" stroke-miterlimit="10" points="1046.565,491.276 
			1050.494,494.676 1046.565,498.077 		"/>
		<g>
			<path d="M1065.233,499.114l1.143-0.183v-8.667l-1.092-0.202v-1.114h2.241c0.186,0,0.366,0,0.542,0s0.361,0,0.557,0
				s0.408,0,0.637,0c0.23,0,0.491,0,0.784,0c0.835,0,1.529,0.073,2.084,0.221c0.554,0.146,0.996,0.358,1.325,0.636
				c0.33,0.276,0.562,0.617,0.699,1.021s0.205,0.867,0.205,1.387c0,0.626-0.1,1.186-0.3,1.679c-0.2,0.494-0.492,0.91-0.875,1.25
				c-0.384,0.339-0.853,0.6-1.406,0.779c-0.555,0.181-1.183,0.271-1.886,0.271c-0.23,0-0.445,0-0.645,0
				c-0.201,0-0.332-0.008-0.396-0.022v2.754l1.941,0.19v0.981h-5.559v-0.981L1065.233,499.114L1065.233,499.114z M1068.843,495.124
				c0.103,0.024,0.228,0.042,0.374,0.054c0.146,0.013,0.355,0.019,0.629,0.019c0.264,0,0.514-0.048,0.751-0.142
				c0.237-0.095,0.444-0.254,0.623-0.479c0.178-0.226,0.319-0.526,0.425-0.904c0.104-0.378,0.157-0.85,0.157-1.417
				c0-0.828-0.169-1.427-0.505-1.798c-0.338-0.37-0.836-0.556-1.494-0.556c-0.143,0-0.261,0.004-0.355,0.011
				c-0.096,0.008-0.179,0.017-0.249,0.025c-0.071,0.01-0.134,0.02-0.187,0.029c-0.055,0.01-0.11,0.018-0.169,0.022L1068.843,495.124
				L1068.843,495.124z"/>
		</g>
	</g>
	<g id="Barre" display="inline">
		<rect x="1036.927" y="1" fill="#1B1B1A" width="10" height="139.118">
		<title>a_Expert
11</title>
		</rect>
		<rect x="1036.927" y="150.118" fill="#1B1B1A" width="10" height="88.529">
		<title>b_MD
7</title>
		</rect>
		<rect x="1036.927" y="248.647" fill="#1B1B1A" width="10" height="50.588">
		<title>c_Journalist
4</title>
		</rect>
		<rect x="1036.927" y="309.235" fill="#1B1B1A" width="10" height="37.941">
		<title>d_Academics
3</title>
		</rect>
		<rect x="1036.927" y="357.176" fill="#1B1B1A" width="10" height="37.941">
		<title>e_Organization
3</title>
		</rect>
		<rect x="1036.927" y="405.118" fill="#1B1B1A" width="10" height="37.941">
		<title>f_Undefined
3</title>
		</rect>
		<rect x="1036.927" y="453.059" fill="#1B1B1A" width="10" height="25.294">
		<title>g_Writer
2</title>
		</rect>
		<rect x="1036.927" y="488.353" fill="#1B1B1A" width="10" height="12.647">
		<title>h_Industry
1</title>
		</rect>
	</g>
</g>
<g id="Diseases" display="none">
	<g id="Barre_1_" display="inline">
		<rect x="1035.927" y="2" fill="#1B1B1A" width="10" height="110.526">
		<title>a_Academics
14</title>
		</rect>
		<rect x="1035.927" y="122.526" fill="#1B1B1A" width="10" height="102.632">
		<title>b_Expert
13</title>
		</rect>
		<rect x="1035.927" y="235.158" fill="#1B1B1A" width="10" height="71.053">
		<title>c_MD
9</title>
		</rect>
		<rect x="1035.927" y="316.211" fill="#1B1B1A" width="10" height="71.053">
		<title>d_Undefined
9</title>
		</rect>
		<rect x="1035.927" y="397.263" fill="#1B1B1A" width="10" height="55.263">
		<title>e_Writer
7</title>
		</rect>
		<rect x="1035.927" y="462.526" fill="#1B1B1A" width="10" height="39.474">
		<title>f_Journalist
5</title>
		</rect>
	</g>
	<g id="Livello_8" display="inline">
		<g id="Cons_1_">
			<path fill="none" stroke="#AF1922" stroke-width="31.5789" stroke-opacity="0.4" d="M105.927,425.947
				c465,0,465-135.526,930-135.526"/>
			<path fill="none" stroke="#AF1922" stroke-width="31.5789" stroke-opacity="0.4" d="M105.927,457.526
				c465,0,465-86.053,930-86.053"/>
			<path fill="none" stroke="#AF1922" stroke-width="15.7895" stroke-opacity="0.4" d="M105.927,481.211
				c465,0,465-36.579,930-36.579"/>
			<path fill="none" stroke="#AF1922" stroke-width="15.7895" stroke-opacity="0.4" d="M105.927,402.263c465,0,465-185,930-185"/>
			<path fill="none" stroke="#AF1922" stroke-width="7.8947" stroke-opacity="0.4" d="M105.927,493.053c465,0,465,5,930,5"/>
			<path fill="none" stroke="#AF1922" stroke-width="7.8947" stroke-opacity="0.4" d="M105.927,390.421
				c465,0,465-281.842,930-281.842"/>
		</g>
		<g id="Neutral_1_">
			<path fill="none" stroke="#F6A000" stroke-width="55.2632" stroke-opacity="0.4" d="M105.927,220.421
				c465,0,465-143.421,930-143.421"/>
			<path fill="none" stroke="#F6A000" stroke-width="39.4737" stroke-opacity="0.4" d="M105.927,267.789
				c465,0,465-78.158,930-78.158"/>
			<path fill="none" stroke="#F6A000" stroke-width="15.7895" stroke-opacity="0.4" d="M105.927,327c465,0,465,151.316,930,151.316"
				/>
			<path fill="none" stroke="#F6A000" stroke-width="15.7895" stroke-opacity="0.4" d="M105.927,311.211
				c465,0,465,117.632,930,117.632"/>
			<path fill="none" stroke="#F6A000" stroke-width="7.8947" stroke-opacity="0.4" d="M105.927,299.368c465,0,465,36.579,930,36.579
				"/>
			<path fill="none" stroke="#F6A000" stroke-width="7.8947" stroke-opacity="0.4" d="M105.927,291.474c465,0,465-28.684,930-28.684
				"/>
		</g>
		<g id="Cons_x2A_">
			<path fill="none" stroke="#F08575" stroke-width="15.7895" stroke-opacity="0.4" d="M105.927,360.684
				c465,0,465-12.895,930-12.895"/>
			<path fill="none" stroke="#F08575" stroke-width="7.8947" stroke-opacity="0.4" d="M105.927,348.842c465,0,465-78.158,930-78.158
				"/>
			<path fill="none" stroke="#F08575" stroke-width="7.8947" stroke-opacity="0.4" d="M105.927,372.526
				c465,0,465,117.632,930,117.632"/>
		</g>
		<g id="Pro_x2A__1_">
			<path fill="none" stroke="#A7C8AF" stroke-width="47.3684" stroke-opacity="0.4" d="M105.927,119.632
				c465,0,465,26.579,930,26.579"/>
			<path fill="none" stroke="#A7C8AF" stroke-width="15.7895" stroke-opacity="0.4" d="M105.927,167c465,0,465,246.053,930,246.053"
				/>
			<path fill="none" stroke="#A7C8AF" stroke-width="15.7895" stroke-opacity="0.4" d="M105.927,88.053c465,0,465-46.579,930-46.579
				"/>
			<path fill="none" stroke="#A7C8AF" stroke-width="7.8947" stroke-opacity="0.4" d="M105.927,147.263
				c465,0,465,107.632,930,107.632"/>
			<path fill="none" stroke="#A7C8AF" stroke-width="7.8947" stroke-opacity="0.4" d="M105.927,155.158
				c465,0,465,172.895,930,172.895"/>
			<path fill="none" stroke="#A7C8AF" stroke-width="7.8947" stroke-opacity="0.4" d="M105.927,178.842
				c465,0,465,287.632,930,287.632"/>
		</g>
		<g id="Pro_1_">
			<path fill="none" stroke="#1F8E6C" stroke-width="31.5789" stroke-opacity="0.4" d="M105.927,22.789c465,0,465-5,930-5"/>
			<path fill="none" stroke="#1F8E6C" stroke-width="15.7895" stroke-opacity="0.4" d="M105.927,46.474
				c465,0,465,196.579,930,196.579"/>
			<path fill="none" stroke="#1F8E6C" stroke-width="7.8947" stroke-opacity="0.4" d="M105.927,66.211c465,0,465,335,930,335"/>
			<path fill="none" stroke="#1F8E6C" stroke-width="7.8947" stroke-opacity="0.4" d="M105.927,58.316
				c465,0,465,261.842,930,261.842"/>
		</g>
	</g>
	<g id="Nomi_1_" display="inline">
		<polygon fill="#1B1B1A" stroke="#1B1B1A" stroke-linejoin="round" stroke-miterlimit="10" points="1045.643,53.863 
			1049.572,57.263 1045.643,60.664 		"/>
		<g>
			<path d="M1063.439,61.701l0.879-0.189l3.384-9.977h2.585l3.406,9.984l0.85,0.182v0.981h-4.637v-0.981l1.055-0.19l-0.527-1.809
				h-3.684l-0.513,1.838l1.164,0.161v0.981h-3.947L1063.439,61.701z M1070.104,58.574l-1.326-4.463l-0.227-1.017l-0.228,1.017
				l-1.26,4.463H1070.104z"/>
		</g>
		<polygon fill="#1B1B1A" stroke="#1B1B1A" stroke-linejoin="round" stroke-miterlimit="10" points="1045.643,170.441 
			1049.572,173.842 1045.643,177.243 		"/>
		<g>
			<path d="M1064.31,178.28l1.143-0.187v-8.734l-1.164-0.212v-1.033h8.107l0.205,2.585h-1.193l-0.513-1.523h-2.959v3.801h1.86
				l0.271-1.23h1.069v3.728h-1.069l-0.256-1.311h-1.875v3.933h3.296l0.915-1.958l1.253,0.354l-0.381,2.769h-8.709L1064.31,178.28
				L1064.31,178.28z"/>
		</g>
		<polygon fill="#1B1B1A" stroke="#1B1B1A" stroke-linejoin="round" stroke-miterlimit="10" points="1045.643,267.284 
			1049.572,270.684 1045.643,274.085 		"/>
		<g>
			<path d="M1063.709,275.122l1.268-0.183l1.018-8.745l-1.472-0.205v-1.033h4.849l1.911,6.482l0.271,1.421l0.241-1.421l1.604-6.482
				h4.899v1.033l-1.589,0.212l1.304,8.73l1.245,0.19v0.981h-5.018v-0.981l1.238-0.183l-0.755-6.453l-0.285-2.681l-0.433,2.073
				l-2.014,7.8h-1.795l-2.365-7.258l-0.645-2.659l-0.176,2.718l-0.477,6.452l1.487,0.19v0.981h-4.314v-0.979L1063.709,275.122
				L1063.709,275.122z"/>
		</g>
		<polygon fill="#1B1B1A" stroke="#1B1B1A" stroke-linejoin="round" stroke-miterlimit="10" points="1045.643,348.336 
			1049.572,351.737 1045.643,355.137 		"/>
		<g>
			<path d="M1064.918,347.284l-0.952-0.209v-1.066h4.761v1.066l-1.238,0.217v5.45c0,1.153,0.196,2.006,0.59,2.556
				c0.393,0.551,0.982,0.826,1.769,0.826c0.4,0,0.746-0.079,1.037-0.238c0.29-0.158,0.529-0.383,0.718-0.674
				c0.188-0.291,0.325-0.642,0.413-1.053s0.132-0.871,0.132-1.381v-5.494l-1.26-0.209v-1.066h3.838v1.066l-0.988,0.209v5.381
				c0,0.809-0.107,1.498-0.322,2.068c-0.215,0.571-0.511,1.035-0.887,1.395c-0.376,0.358-0.821,0.621-1.336,0.787
				c-0.516,0.166-1.076,0.249-1.682,0.249c-0.776,0-1.452-0.087-2.028-0.26c-0.576-0.174-1.054-0.447-1.432-0.82
				c-0.379-0.373-0.662-0.852-0.85-1.437c-0.188-0.585-0.282-1.287-0.282-2.105L1064.918,347.284L1064.918,347.284z"/>
		</g>
		<polygon fill="#1B1B1A" stroke="#1B1B1A" stroke-linejoin="round" stroke-miterlimit="10" points="1045.643,421.494 
			1049.572,424.895 1045.643,428.295 		"/>
		<g>
			<path d="M1064.339,420.502l-0.879-0.217v-1.118h4.702v1.118l-1.23,0.217l1.81,6.539l0.271,1.428l0.257-1.428l1.53-5.277
				l-0.425-1.27l-0.938-0.209v-1.118h4.886v1.118l-1.392,0.209l1.816,6.547l0.314,1.536l0.257-1.536l1.67-6.547l-1.304-0.209v-1.118
				h3.684v1.118l-0.944,0.217l-2.835,9.812h-2.219l-1.941-6.561l-1.853,6.561h-2.176L1064.339,420.502z"/>
		</g>
		<polygon fill="#1B1B1A" stroke="#1B1B1A" stroke-linejoin="round" stroke-miterlimit="10" points="1045.643,478.863 
			1049.572,482.263 1045.643,485.664 		"/>
		<g>
			<path d="M1065.321,487.676c0.049-0.161,0.093-0.331,0.132-0.51c0.039-0.178,0.071-0.385,0.096-0.622
				c0.024-0.236,0.044-0.509,0.059-0.816s0.021-0.669,0.021-1.084v-6.863l-1.26-0.212v-1.033h4.915v1.033l-1.194,0.205v5.742
				c0,0.884-0.012,1.655-0.036,2.314s-0.081,1.177-0.169,1.553c-0.112,0.415-0.28,0.797-0.505,1.146
				c-0.225,0.35-0.502,0.658-0.831,0.927c-0.33,0.269-0.707,0.497-1.132,0.685c-0.425,0.188-0.892,0.329-1.399,0.422l-0.542-0.864
				c0.161-0.054,0.331-0.137,0.51-0.249c0.178-0.112,0.352-0.254,0.52-0.425c0.169-0.171,0.324-0.369,0.469-0.594
				C1065.117,488.205,1065.233,487.954,1065.321,487.676z"/>
		</g>
		<g>
			<path fill="#BCA695" d="M1069.144,522.358c-0.869,0-1.618-0.133-2.248-0.398c-0.63-0.267-1.147-0.644-1.553-1.13
				c-0.405-0.487-0.706-1.073-0.901-1.758c-0.195-0.684-0.293-1.441-0.293-2.273c0-0.855,0.123-1.627,0.37-2.316
				c0.246-0.688,0.596-1.278,1.048-1.768c0.451-0.489,0.994-0.865,1.629-1.126c0.635-0.262,1.341-0.393,2.117-0.393
				c0.869,0,1.617,0.128,2.245,0.383c0.627,0.255,1.143,0.618,1.545,1.09c0.403,0.472,0.7,1.039,0.894,1.704
				c0.192,0.665,0.289,1.409,0.289,2.233c0,0.857-0.123,1.639-0.369,2.344c-0.247,0.705-0.595,1.309-1.044,1.812
				c-0.449,0.502-0.99,0.895-1.622,1.176C1070.618,522.217,1069.916,522.358,1069.144,522.358z M1069.21,521.34
				c0.732,0,1.308-0.396,1.725-1.188c0.418-0.793,0.626-1.975,0.626-3.545c0-0.771-0.054-1.435-0.161-1.991
				s-0.261-1.012-0.461-1.369s-0.446-0.62-0.736-0.788c-0.291-0.168-0.619-0.252-0.985-0.252s-0.694,0.093-0.984,0.277
				c-0.291,0.185-0.536,0.465-0.736,0.841s-0.354,0.853-0.462,1.43s-0.161,1.256-0.161,2.037c0,0.775,0.053,1.448,0.158,2.019
				c0.104,0.57,0.258,1.042,0.461,1.416c0.202,0.374,0.448,0.652,0.736,0.837S1068.844,521.34,1069.21,521.34z"/>
		</g>
		<g>
			<path fill="#BCA695" d="M1064.31,544.627l1.143-0.183v-8.667l-1.091-0.202v-1.114h2.241c0.186,0,0.366,0,0.542,0s0.361,0,0.557,0
				s0.407,0,0.637,0s0.491,0,0.784,0c0.835,0,1.529,0.073,2.084,0.221c0.554,0.146,0.996,0.358,1.325,0.636
				c0.33,0.276,0.562,0.617,0.699,1.021s0.205,0.867,0.205,1.387c0,0.626-0.1,1.186-0.3,1.679c-0.2,0.494-0.492,0.91-0.875,1.25
				c-0.384,0.339-0.853,0.6-1.406,0.779c-0.555,0.181-1.184,0.271-1.887,0.271c-0.229,0-0.444,0-0.645,0s-0.332-0.008-0.396-0.022
				v2.754l1.941,0.19v0.981h-5.56v-0.981L1064.31,544.627L1064.31,544.627z M1067.921,540.637c0.103,0.024,0.227,0.042,0.373,0.054
				c0.146,0.013,0.356,0.019,0.63,0.019c0.264,0,0.514-0.048,0.751-0.142c0.236-0.095,0.444-0.254,0.623-0.479
				c0.178-0.226,0.319-0.526,0.425-0.904c0.104-0.378,0.157-0.85,0.157-1.417c0-0.828-0.169-1.427-0.506-1.798
				c-0.337-0.37-0.835-0.556-1.494-0.556c-0.142,0-0.26,0.004-0.354,0.011c-0.096,0.008-0.179,0.017-0.249,0.025
				c-0.071,0.01-0.134,0.02-0.188,0.029s-0.109,0.018-0.168,0.022L1067.921,540.637L1067.921,540.637z"/>
		</g>
	</g>
	<g display="inline">
		<line fill="none" stroke="#BCA695" stroke-miterlimit="10" x1="1035.951" y1="511.921" x2="1045.97" y2="521.94"/>
		<line fill="none" stroke="#BCA695" stroke-miterlimit="10" x1="1035.951" y1="521.94" x2="1045.97" y2="511.921"/>
	</g>
	<g display="inline">
		<circle fill="#1B1B1A" cx="1040.677" cy="516.931" r="1.417"/>
	</g>
	<g display="inline">
		<line fill="none" stroke="#BCA695" stroke-miterlimit="10" x1="1035.951" y1="535.18" x2="1045.97" y2="545.198"/>
		<line fill="none" stroke="#BCA695" stroke-miterlimit="10" x1="1035.951" y1="545.198" x2="1045.97" y2="535.18"/>
	</g>
	<g display="inline">
		<circle fill="#1B1B1A" cx="1040.677" cy="540.189" r="1.417"/>
	</g>
</g>
<g>
	<g>
		<polygon fill="#1B1B1A" points="540.224,253.836 539.814,253.481 540.224,253.126 		"/>
		<path fill="#1B1B1A" d="M540.224,253.889c-0.012,0-0.024-0.004-0.034-0.013l-0.41-0.355c-0.011-0.01-0.018-0.024-0.018-0.039
			s0.007-0.03,0.018-0.039l0.41-0.355c0.016-0.013,0.037-0.017,0.056-0.008c0.019,0.008,0.031,0.027,0.031,0.047v0.71
			c0,0.02-0.012,0.039-0.031,0.047C540.239,253.887,540.232,253.889,540.224,253.889z M539.894,253.481l0.278,0.241v-0.482
			L539.894,253.481z"/>
	</g>
	<g>
		<polygon fill="#1B1B1A" points="540.224,271.927 539.814,271.572 540.224,271.217 		"/>
		<path fill="#1B1B1A" d="M540.224,271.98c-0.012,0-0.024-0.004-0.034-0.013l-0.41-0.355c-0.011-0.01-0.018-0.024-0.018-0.039
			s0.007-0.03,0.018-0.039l0.41-0.355c0.016-0.013,0.037-0.017,0.056-0.008c0.019,0.008,0.031,0.027,0.031,0.047v0.71
			c0,0.02-0.012,0.039-0.031,0.047C540.239,271.978,540.232,271.98,540.224,271.98z M539.894,271.572l0.278,0.241v-0.482
			L539.894,271.572z"/>
	</g>
	<g>
		<polygon fill="#1B1B1A" points="540.224,289.558 539.814,289.203 540.224,288.847 		"/>
		<path fill="#1B1B1A" d="M540.224,289.61c-0.012,0-0.024-0.004-0.034-0.013l-0.41-0.355c-0.011-0.01-0.018-0.024-0.018-0.039
			s0.007-0.03,0.018-0.039l0.41-0.355c0.016-0.013,0.037-0.016,0.056-0.008c0.019,0.009,0.031,0.027,0.031,0.048v0.71
			c0,0.02-0.012,0.039-0.031,0.048C540.239,289.608,540.232,289.61,540.224,289.61z M539.894,289.203l0.278,0.241v-0.482
			L539.894,289.203z"/>
	</g>
	<g>
		<polygon fill="#1B1B1A" points="639.299,252.481 639.71,252.836 639.299,253.191 		"/>
		<path fill="#1B1B1A" d="M639.299,253.244c-0.007,0-0.015-0.002-0.022-0.005c-0.019-0.008-0.03-0.027-0.03-0.047v-0.71
			c0-0.02,0.012-0.039,0.03-0.047c0.019-0.009,0.041-0.005,0.056,0.008l0.41,0.355c0.011,0.01,0.018,0.024,0.018,0.039
			s-0.007,0.03-0.018,0.039l-0.41,0.355C639.324,253.239,639.312,253.244,639.299,253.244z M639.352,252.595v0.482l0.278-0.241
			L639.352,252.595z"/>
	</g>
	<g>
		<polygon fill="#1B1B1A" points="639.299,267.347 639.71,267.702 639.299,268.057 		"/>
		<path fill="#1B1B1A" d="M639.299,268.11c-0.007,0-0.015-0.002-0.022-0.005c-0.019-0.008-0.03-0.027-0.03-0.047v-0.71
			c0-0.02,0.012-0.039,0.03-0.047c0.019-0.009,0.041-0.005,0.056,0.008l0.41,0.355c0.011,0.01,0.018,0.024,0.018,0.039
			s-0.007,0.03-0.018,0.039l-0.41,0.355C639.324,268.105,639.312,268.11,639.299,268.11z M639.352,267.461v0.482l0.278-0.241
			L639.352,267.461z"/>
	</g>
	<g>
		<polygon fill="#1B1B1A" points="639.299,279.909 639.71,280.265 639.299,280.62 		"/>
		<path fill="#1B1B1A" d="M639.299,280.672c-0.007,0-0.015-0.002-0.022-0.005c-0.019-0.009-0.03-0.027-0.03-0.048v-0.71
			c0-0.02,0.012-0.039,0.03-0.048c0.019-0.008,0.041-0.005,0.056,0.008l0.41,0.355c0.011,0.01,0.018,0.024,0.018,0.039
			s-0.007,0.03-0.018,0.039l-0.41,0.355C639.324,280.668,639.312,280.672,639.299,280.672z M639.352,280.024v0.482l0.278-0.241
			L639.352,280.024z"/>
	</g>
	<g>
		<polygon fill="#1B1B1A" points="639.299,288.786 639.71,289.141 639.299,289.496 		"/>
		<path fill="#1B1B1A" d="M639.299,289.549c-0.007,0-0.015-0.002-0.022-0.005c-0.019-0.009-0.03-0.027-0.03-0.048v-0.71
			c0-0.02,0.012-0.039,0.03-0.048c0.019-0.009,0.041-0.005,0.056,0.008l0.41,0.355c0.011,0.01,0.018,0.024,0.018,0.039
			s-0.007,0.03-0.018,0.039l-0.41,0.355C639.324,289.544,639.312,289.549,639.299,289.549z M639.352,288.9v0.482l0.278-0.241
			L639.352,288.9z"/>
	</g>
	<g>
		<polygon fill="#1B1B1A" points="639.299,296.403 639.71,296.758 639.299,297.114 		"/>
		<path fill="#1B1B1A" d="M639.299,297.166c-0.007,0-0.015-0.002-0.022-0.005c-0.019-0.009-0.03-0.027-0.03-0.048v-0.71
			c0-0.02,0.012-0.039,0.03-0.048c0.019-0.008,0.041-0.005,0.056,0.008l0.41,0.355c0.011,0.01,0.018,0.024,0.018,0.039
			s-0.007,0.03-0.018,0.039l-0.41,0.355C639.324,297.162,639.312,297.166,639.299,297.166z M639.352,296.518V297l0.278-0.241
			L639.352,296.518z"/>
	</g>
	<g>
		<polygon fill="#1B1B1A" points="639.299,293.516 639.71,293.871 639.299,294.226 		"/>
		<path fill="#1B1B1A" d="M639.299,294.279c-0.007,0-0.015-0.002-0.022-0.005c-0.019-0.009-0.03-0.027-0.03-0.048v-0.71
			c0-0.02,0.012-0.039,0.03-0.048c0.019-0.008,0.041-0.005,0.056,0.008l0.41,0.355c0.011,0.01,0.018,0.024,0.018,0.039
			s-0.007,0.03-0.018,0.039l-0.41,0.355C639.324,294.274,639.312,294.279,639.299,294.279z M639.352,293.63v0.482l0.278-0.241
			L639.352,293.63z"/>
	</g>
	<g>
		<g id="Pro_2_">
			<path opacity="0.4" fill="#1F8E6C" enable-background="new    " d="M638.285,265.399c-24.495,0-36.944-2.937-48.983-5.778
				c-11.834-2.792-24.071-5.679-48.137-5.679v-3.686c24.495,0,36.944,2.937,48.983,5.778c11.834,2.792,24.071,5.679,48.137,5.679
				V265.399z"/>
			<path opacity="0.4" fill="#1F8E6C" enable-background="new    " d="M541.164,250.256v-3.686c24.25,0,36.579-0.398,48.501-0.782
				c11.951-0.386,24.31-0.784,48.62-0.784v3.686c-24.25,0-36.579,0.398-48.501,0.782
				C577.832,249.858,565.474,250.256,541.164,250.256z"/>
			<path opacity="0.4" fill="#1F8E6C" enable-background="new    " d="M638.285,277.5c-24.564,0-37.039-5.342-49.104-10.509
				c-5.921-2.535-12.043-5.157-19.527-7.08c-8.396-2.157-17.714-3.206-28.489-3.206v-2.764c24.564,0,37.039,5.342,49.104,10.509
				c5.921,2.535,12.043,5.157,19.528,7.08c8.395,2.157,17.714,3.206,28.489,3.206v2.764H638.285z"/>
			<path opacity="0.4" fill="#1F8E6C" enable-background="new    " d="M638.285,289.602c-24.674,0-37.188-7.764-49.289-15.273
				c-5.911-3.668-12.023-7.46-19.481-10.237c-8.352-3.11-17.626-4.621-28.35-4.621v-2.764c24.674,0,37.188,7.765,49.289,15.273
				c5.911,3.668,12.023,7.46,19.481,10.237c8.352,3.11,17.626,4.621,28.35,4.621V289.602z"/>
			<path opacity="0.4" fill="#1F8E6C" enable-background="new    " d="M638.285,293.411c-10.953,0-20.441-1.699-29.007-5.193
				c-7.633-3.114-13.825-7.324-19.813-11.396c-5.949-4.045-12.1-8.227-19.643-11.305c-8.453-3.449-17.827-5.125-28.659-5.125v-0.921
				c10.953,0,20.441,1.699,29.007,5.193c7.633,3.114,13.824,7.324,19.813,11.396c5.949,4.045,12.1,8.227,19.643,11.305
				c8.453,3.449,17.827,5.125,28.659,5.125V293.411z"/>
		</g>
		<g id="Neutral_2_">
			<path opacity="0.4" fill="#F6A000" enable-background="new    " d="M541.164,268.808v-7.372c23.804,0,35.375-3.037,47.624-6.253
				c12.163-3.193,24.74-6.494,49.496-6.494v7.372c-23.805,0-35.375,3.037-47.624,6.253
				C578.497,265.507,565.92,268.808,541.164,268.808z"/>
			<path opacity="0.4" fill="#F6A000" enable-background="new    " d="M638.285,283.029c-24.422,0-36.837-1.28-48.844-2.518
				c-11.867-1.224-24.139-2.489-48.277-2.489v-5.529c24.422,0,36.837,1.28,48.844,2.518c11.867,1.224,24.139,2.489,48.277,2.489
				V283.029z"/>
			<path opacity="0.4" fill="#F6A000" enable-background="new    " d="M541.164,272.494v-3.686c24.216,0,36.526-0.864,48.431-1.7
				c11.969-0.84,24.345-1.709,48.689-1.709v3.686c-24.215,0-36.526,0.864-48.431,1.7
				C577.885,271.625,565.509,272.494,541.164,272.494z"/>
			<path opacity="0.4" fill="#F6A000" enable-background="new    " d="M638.285,295.253c-24.414,0-36.823-3.697-48.823-7.272
				c-5.944-1.771-12.09-3.602-19.627-4.949c-8.455-1.511-17.833-2.246-28.67-2.246v-1.843c24.414,0,36.823,3.697,48.823,7.272
				c5.944,1.771,12.09,3.602,19.627,4.949c8.455,1.511,17.833,2.246,28.67,2.246V295.253z"/>
			<path opacity="0.4" fill="#F6A000" enable-background="new    " d="M638.285,297.219c-24.352,0-36.73-3.954-48.701-7.777
				c-5.955-1.902-12.114-3.869-19.674-5.318c-8.48-1.625-17.883-2.415-28.746-2.415v-0.922c24.352,0,36.73,3.954,48.7,7.777
				c5.955,1.902,12.114,3.869,19.674,5.318c8.481,1.625,17.883,2.415,28.746,2.415L638.285,297.219L638.285,297.219z"/>
			<path opacity="0.4" fill="#F6A000" enable-background="new    " d="M638.285,290.523c-24.334,0-36.704-2.95-48.667-5.802
				c-11.911-2.84-24.227-5.777-48.453-5.777v-0.922c24.334,0,36.704,2.95,48.667,5.802c11.911,2.84,24.227,5.777,48.453,5.777
				V290.523z"/>
		</g>
		<g id="Cons_2_">
			<path opacity="0.4" fill="#AF1922" enable-background="new    " d="M541.164,287.36v-4.607c10.643,0,19.838-1.326,28.111-4.055
				c7.386-2.436,13.192-5.627,19.34-9.006c12.192-6.701,24.798-13.63,49.67-13.63v4.607c-10.643,0-19.838,1.326-28.111,4.055
				c-7.386,2.436-13.192,5.627-19.34,9.006C578.642,280.43,566.036,287.36,541.164,287.36z"/>
			<path opacity="0.4" fill="#AF1922" enable-background="new    " d="M541.164,291.967v-4.607c10.719,0,19.984-0.916,28.325-2.799
				c7.432-1.678,13.257-3.87,19.424-6.191c12.13-4.565,24.672-9.285,49.372-9.285v4.607c-10.719,0-19.984,0.915-28.325,2.799
				c-7.432,1.678-13.257,3.87-19.424,6.191C578.406,287.247,565.864,291.967,541.164,291.967z"/>
			<path opacity="0.4" fill="#AF1922" enable-background="new    " d="M541.164,294.731v-2.764c24.154,0,36.434-2.26,48.31-4.446
				c11.998-2.208,24.404-4.492,48.81-4.492v2.764c-24.154,0-36.434,2.26-48.31,4.446
				C577.977,292.448,565.57,294.731,541.164,294.731z"/>
			<path opacity="0.4" fill="#AF1922" enable-background="new    " d="M541.164,295.653v-0.922c24.26,0,36.593-1.069,48.52-2.102
				c11.947-1.035,24.3-2.106,48.6-2.106v0.922c-24.26,0-36.593,1.069-48.52,2.102C577.818,294.582,565.464,295.653,541.164,295.653z
				"/>
		</g>
	</g>
	<g id="Barre_2_">
		<g>
			<rect x="638.285" y="245.004" fill="#1B1B1A" width="1.044" height="15.665">
			<title>a_Writer
17</title>
			</rect>
			<rect x="638.285" y="261.713" fill="#1B1B1A" width="1.044" height="11.979">
			<title>b_Expert
13</title>
			</rect>
			<rect x="638.285" y="274.736" fill="#1B1B1A" width="1.044" height="11.057">
			<title>c_Undefined
12</title>
			</rect>
			<rect x="638.285" y="286.838" fill="#1B1B1A" width="1.044" height="4.607">
			<title>d_Journalist
5</title>
			</rect>
			<rect x="638.285" y="292.489" fill="#1B1B1A" width="1.044" height="2.764">
			<title>e_MD
3</title>
			</rect>
			<rect x="638.285" y="296.298" fill="#1B1B1A" width="1.044" height="0.921">
			<title>f_Organization
1</title>
			</rect>
		</g>
		<g>
			<rect x="540.12" y="246.57" fill="#1B1B1A" width="1.044" height="13.822">
			<title>a_Pro
15</title>
			</rect>
			<g>
				<rect x="540.12" y="261.436" fill="#1B1B1A" width="1.044" height="20.272">
				<title>b_Neutral
22</title>
				</rect>
				<rect x="540.12" y="282.753" fill="#1B1B1A" width="1.044" height="12.9">
				<title>c_Cons
14</title>
				</rect>
			</g>
		</g>
	</g>
	<g>
		
			<rect x="638.035" y="299.107" transform="matrix(-0.7071 -0.7071 0.7071 -0.7071 878.9204 962.3788)" fill="#BCA695" width="1.48" height="0.104"/>
		
			<rect x="638.756" y="298.407" transform="matrix(-0.7071 -0.7071 0.7071 -0.7071 878.9837 962.3816)" fill="#BCA695" width="0.104" height="1.48"/>
	</g>
	<g>
		<circle fill="#1B1B1A" cx="638.781" cy="299.154" r="0.148"/>
	</g>
	<g>
		
			<rect x="638.068" y="301.524" transform="matrix(-0.7071 -0.7071 0.7071 -0.7071 877.2678 966.5273)" fill="#BCA695" width="1.48" height="0.104"/>
		
			<rect x="638.756" y="300.836" transform="matrix(-0.7071 -0.7071 0.7071 -0.7071 877.2662 966.5281)" fill="#BCA695" width="0.104" height="1.48"/>
	</g>
	<g>
		<circle fill="#1B1B1A" cx="638.781" cy="301.583" r="0.148"/>
	</g>
</g>
<g id="Hormones" display="none">
	<g display="inline">
		<g id="Neutral_3_">
			<path fill="none" stroke="#F6A000" stroke-width="27.7419" stroke-opacity="0.4" d="M106.927,144.968
				c465,0,465-104.355,930-104.355"/>
			<path fill="none" stroke="#F6A000" stroke-width="6.9355" stroke-opacity="0.4" d="M106.927,162.306
				c465,0,465,278.548,930,278.548"/>
		</g>
		<g id="Cons_3_">
			<path fill="none" stroke="#AF1922" stroke-width="152.581" stroke-opacity="0.4" d="M106.927,303.677
				c465,0,465-172.903,930-172.903"/>
			<path fill="none" stroke="#AF1922" stroke-width="27.7419" stroke-opacity="0.4" d="M106.927,393.839
				c465,0,465-128.226,930-128.226"/>
			<path fill="none" stroke="#AF1922" stroke-width="20.8065" stroke-opacity="0.4" d="M106.927,438.919
				c465,0,465-59.677,930-59.677"/>
			<path fill="none" stroke="#AF1922" stroke-width="20.8065" stroke-opacity="0.4" d="M106.927,418.113
				c465,0,465-83.548,930-83.548"/>
			<path fill="none" stroke="#AF1922" stroke-width="20.8065" stroke-opacity="0.4" d="M106.927,459.726
				c465,0,465-42.742,930-42.742"/>
			<path fill="none" stroke="#AF1922" stroke-width="6.9355" stroke-opacity="0.4" d="M106.927,473.597c465,0,465-11.935,930-11.935
				"/>
			<path fill="none" stroke="#AF1922" stroke-width="6.9355" stroke-opacity="0.4" d="M106.927,480.532c465,0,465-1.935,930-1.935"
				/>
		</g>
		<g id="Cons_x2A__1_">
			<path fill="none" stroke="#F08575" stroke-width="13.871" stroke-opacity="0.4" d="M106.927,203.516
				c465,0,465,247.742,930,247.742"/>
			<path fill="none" stroke="#F08575" stroke-width="6.9355" stroke-opacity="0.4" d="M106.927,179.242c465,0,465,69.032,930,69.032
				"/>
			<path fill="none" stroke="#F08575" stroke-width="6.9355" stroke-opacity="0.4" d="M106.927,193.113c465,0,465,210,930,210"/>
			<path fill="none" stroke="#F08575" stroke-width="6.9355" stroke-opacity="0.4" d="M106.927,213.919
				c465,0,465,281.613,930,281.613"/>
			<path fill="none" stroke="#F08575" stroke-width="6.9355" stroke-opacity="0.4" d="M106.927,186.177
				c465,0,465,179.194,930,179.194"/>
		</g>
		<g id="Pro_3_">
			<path fill="none" stroke="#1F8E6C" stroke-width="27.7419" stroke-opacity="0.4" d="M106.927,48.677
				c465,0,465,182.258,930,182.258"/>
			<path fill="none" stroke="#1F8E6C" stroke-width="27.7419" stroke-opacity="0.4" d="M106.927,76.419
				c465,0,465,226.935,930,226.935"/>
			<path fill="none" stroke="#1F8E6C" stroke-width="20.8065" stroke-opacity="0.4" d="M106.927,24.403c465,0,465-15,930-15"/>
			<path fill="none" stroke="#1F8E6C" stroke-width="6.9355" stroke-opacity="0.4" d="M106.927,93.758
				c465,0,465,264.677,930,264.677"/>
		</g>
		<g id="Pro_x2A__2_">
			<path fill="none" stroke="#A7C8AF" stroke-width="6.9355" stroke-opacity="0.4" d="M106.927,110.694c465,0,465-87.419,930-87.419
				"/>
			<path fill="none" stroke="#A7C8AF" stroke-width="6.9355" stroke-opacity="0.4" d="M106.927,117.629
				c465,0,465,203.065,930,203.065"/>
		</g>
	</g>
	<g id="Barre_3_" display="inline">
		<rect x="1036.927" y="-1" fill="#1B1B1A" width="10" height="208.065">
		<title>a_Writer
30</title>
		</rect>
		<rect x="1036.927" y="217.065" fill="#1B1B1A" width="10" height="62.419">
		<title>b_Organization
9</title>
		</rect>
		<rect x="1036.927" y="289.484" fill="#1B1B1A" width="10" height="55.484">
		<title>c_Industry
8</title>
		</rect>
		<rect x="1036.927" y="354.968" fill="#1B1B1A" width="10" height="34.677">
		<title>d_MD
5</title>
		</rect>
		<rect x="1036.927" y="399.645" fill="#1B1B1A" width="10" height="27.742">
		<title>e_Expert
4</title>
		</rect>
		<rect x="1036.927" y="437.387" fill="#1B1B1A" width="10" height="27.742">
		<title>f_Journalist
4</title>
		</rect>
		<rect x="1036.927" y="475.129" fill="#1B1B1A" width="10" height="6.935">
		<title>g_Academics
1</title>
		</rect>
		<rect x="1036.927" y="492.065" fill="#1B1B1A" width="10" height="6.935">
		<title>h_Undefined
1</title>
		</rect>
	</g>
	<g display="inline">
		<polygon fill="#1B1B1A" stroke="#1B1B1A" stroke-linejoin="round" stroke-miterlimit="10" points="1045.643,99.632 
			1049.572,103.032 1045.643,106.433 		"/>
		<g>
			<path d="M1064.339,98.64l-0.879-0.216v-1.119h4.702v1.119l-1.23,0.216l1.81,6.54l0.271,1.427l0.257-1.427l1.53-5.278
				l-0.425-1.269l-0.938-0.209v-1.119h4.886v1.119l-1.392,0.209l1.816,6.547l0.314,1.536l0.257-1.536l1.67-6.547l-1.304-0.209
				v-1.119h3.684v1.119l-0.944,0.216l-2.835,9.812h-2.219l-1.941-6.561l-1.853,6.561h-2.176L1064.339,98.64z"/>
		</g>
		<polygon fill="#1B1B1A" stroke="#1B1B1A" stroke-linejoin="round" stroke-miterlimit="10" points="1045.643,244.874 
			1049.572,248.274 1045.643,251.675 		"/>
		<g>
			<path d="M1069.144,253.701c-0.869,0-1.618-0.133-2.248-0.399s-1.147-0.643-1.553-1.13c-0.405-0.487-0.706-1.073-0.901-1.757
				s-0.293-1.442-0.293-2.273c0-0.855,0.123-1.627,0.37-2.316c0.246-0.689,0.596-1.278,1.048-1.768
				c0.451-0.489,0.994-0.865,1.629-1.126s1.341-0.392,2.117-0.392c0.869,0,1.617,0.127,2.245,0.382
				c0.627,0.255,1.143,0.618,1.545,1.09c0.403,0.472,0.7,1.04,0.894,1.704c0.192,0.665,0.289,1.409,0.289,2.233
				c0,0.857-0.123,1.639-0.369,2.344c-0.247,0.705-0.595,1.309-1.044,1.812s-0.99,0.895-1.622,1.176
				C1070.618,253.561,1069.916,253.701,1069.144,253.701z M1069.21,252.683c0.732,0,1.308-0.396,1.725-1.188
				c0.418-0.792,0.626-1.974,0.626-3.545c0-0.771-0.054-1.435-0.161-1.991s-0.261-1.012-0.461-1.37
				c-0.2-0.357-0.446-0.62-0.736-0.788c-0.291-0.168-0.619-0.252-0.985-0.252s-0.694,0.092-0.984,0.277
				c-0.291,0.185-0.536,0.465-0.736,0.841s-0.354,0.853-0.462,1.43s-0.161,1.256-0.161,2.037c0,0.776,0.053,1.449,0.158,2.019
				c0.104,0.57,0.258,1.042,0.461,1.416c0.202,0.374,0.448,0.653,0.736,0.837S1068.844,252.683,1069.21,252.683z"/>
		</g>
		<polygon fill="#1B1B1A" stroke="#1B1B1A" stroke-linejoin="round" stroke-miterlimit="10" points="1045.643,313.825 
			1049.572,317.226 1045.643,320.626 		"/>
		<g>
			<path d="M1064.31,321.664l1.143-0.184v-8.667l-1.091-0.201v-1.114h2.241c0.186,0,0.366,0,0.542,0s0.361,0,0.557,0
				s0.407,0,0.637,0s0.491,0,0.784,0c0.835,0,1.529,0.073,2.084,0.22c0.554,0.147,0.996,0.359,1.325,0.636
				c0.33,0.277,0.562,0.617,0.699,1.022c0.137,0.404,0.205,0.866,0.205,1.386c0,0.626-0.1,1.187-0.3,1.68s-0.492,0.91-0.875,1.249
				c-0.384,0.34-0.853,0.6-1.406,0.78c-0.555,0.181-1.184,0.271-1.887,0.271c-0.229,0-0.444,0-0.645,0s-0.332-0.007-0.396-0.021
				v2.754l1.941,0.19v0.981h-5.56v-0.982L1064.31,321.664L1064.31,321.664z M1067.921,317.673c0.103,0.024,0.227,0.043,0.373,0.055
				s0.356,0.018,0.63,0.018c0.264,0,0.514-0.047,0.751-0.142c0.236-0.094,0.444-0.254,0.623-0.479
				c0.178-0.225,0.319-0.526,0.425-0.904c0.104-0.377,0.157-0.85,0.157-1.416c0-0.828-0.169-1.428-0.506-1.798
				c-0.337-0.371-0.835-0.556-1.494-0.556c-0.142,0-0.26,0.004-0.354,0.011c-0.096,0.007-0.179,0.016-0.249,0.025
				c-0.071,0.01-0.134,0.02-0.188,0.029s-0.109,0.017-0.168,0.021L1067.921,317.673L1067.921,317.673z"/>
		</g>
		<polygon fill="#1B1B1A" stroke="#1B1B1A" stroke-linejoin="round" stroke-miterlimit="10" points="1045.643,410.116 
			1049.572,413.516 1045.643,416.917 		"/>
		<g>
			<path d="M1064.31,417.954l1.143-0.187v-8.734l-1.164-0.212v-1.033h8.107l0.205,2.586h-1.193l-0.513-1.523h-2.959v3.801h1.86
				l0.271-1.23h1.069v3.729h-1.069l-0.256-1.312h-1.875v3.934h3.296l0.915-1.958l1.253,0.354l-0.381,2.769h-8.709L1064.31,417.954
				L1064.31,417.954z"/>
		</g>
		<polygon fill="#1B1B1A" stroke="#1B1B1A" stroke-linejoin="round" stroke-miterlimit="10" points="1045.643,447.857 
			1049.572,451.258 1045.643,454.659 		"/>
		<g>
			<path d="M1065.321,456.67c0.049-0.161,0.093-0.33,0.132-0.509c0.039-0.178,0.071-0.386,0.096-0.622
				c0.024-0.237,0.044-0.51,0.059-0.817s0.021-0.669,0.021-1.084v-6.862l-1.26-0.213v-1.032h4.915v1.032l-1.194,0.205v5.742
				c0,0.884-0.012,1.655-0.036,2.314s-0.081,1.177-0.169,1.553c-0.112,0.415-0.28,0.797-0.505,1.146s-0.502,0.658-0.831,0.927
				c-0.33,0.269-0.707,0.496-1.132,0.685c-0.425,0.188-0.892,0.328-1.399,0.421l-0.542-0.864c0.161-0.054,0.331-0.137,0.51-0.249
				c0.178-0.112,0.352-0.254,0.52-0.425c0.169-0.171,0.324-0.368,0.469-0.593C1065.117,457.2,1065.233,456.948,1065.321,456.67z"/>
		</g>
		<g>
			<path d="M1063.439,483.035l0.879-0.189l3.384-9.977h2.585l3.406,9.983l0.85,0.183v0.981h-4.637v-0.981l1.055-0.19l-0.527-1.81
				h-3.684l-0.513,1.839l1.164,0.161v0.981h-3.947L1063.439,483.035z M1070.104,479.907l-1.326-4.463l-0.227-1.017l-0.228,1.017
				l-1.26,4.463H1070.104z"/>
		</g>
		<polygon fill="#1B1B1A" stroke="#1B1B1A" stroke-linejoin="round" stroke-miterlimit="10" points="1045.643,475.639 
			1049.572,478.597 1045.643,481.554 		"/>
		<polygon fill="#1B1B1A" stroke="#1B1B1A" stroke-linejoin="round" stroke-miterlimit="10" points="1045.643,492.574 
			1049.572,495.532 1045.643,498.49 		"/>
		<g>
			<path d="M1064.918,491.136l-0.952-0.209v-1.066h4.761v1.066l-1.238,0.217v5.45c0,1.153,0.196,2.006,0.59,2.556
				c0.393,0.551,0.982,0.826,1.769,0.826c0.4,0,0.746-0.079,1.037-0.238c0.29-0.158,0.529-0.383,0.718-0.674
				c0.188-0.291,0.325-0.642,0.413-1.053s0.132-0.871,0.132-1.381v-5.494l-1.26-0.209v-1.066h3.838v1.066l-0.988,0.209v5.381
				c0,0.809-0.107,1.498-0.322,2.068c-0.215,0.571-0.511,1.035-0.887,1.395c-0.376,0.358-0.821,0.621-1.336,0.787
				c-0.516,0.166-1.076,0.249-1.682,0.249c-0.776,0-1.452-0.087-2.028-0.26c-0.576-0.174-1.054-0.447-1.432-0.82
				c-0.379-0.373-0.662-0.852-0.85-1.437c-0.188-0.585-0.282-1.287-0.282-2.105L1064.918,491.136L1064.918,491.136z"/>
		</g>
		<polygon fill="#1B1B1A" stroke="#1B1B1A" stroke-linejoin="round" stroke-miterlimit="10" points="1045.643,368.906 
			1049.572,372.306 1045.643,375.707 		"/>
		<g>
			<path d="M1063.709,376.745l1.268-0.184l1.018-8.745l-1.472-0.205v-1.032h4.849l1.911,6.481l0.271,1.421l0.241-1.421l1.604-6.481
				h4.899v1.032l-1.589,0.213l1.304,8.73l1.245,0.19v0.981h-5.018v-0.981l1.238-0.184l-0.755-6.452l-0.285-2.681l-0.433,2.072
				l-2.014,7.801h-1.795l-2.365-7.259l-0.645-2.658l-0.176,2.717l-0.477,6.453l1.487,0.19v0.981h-4.314v-0.979L1063.709,376.745
				L1063.709,376.745z"/>
		</g>
	</g>
</g>
<g id="Body" display="none">
	<g id="Nomi_3_" display="inline">
		<polygon fill="#1B1B1A" stroke="#1B1B1A" stroke-linejoin="round" stroke-miterlimit="10" points="1045.643,76.028 
			1049.572,79.429 1045.643,82.829 		"/>
		<g>
			<path d="M1064.31,83.867l1.143-0.187v-8.734l-1.164-0.212v-1.033h8.107l0.205,2.585h-1.193l-0.513-1.523h-2.959v3.801h1.86
				l0.271-1.23h1.069v3.728h-1.069l-0.256-1.311h-1.875v3.933h3.296l0.915-1.958l1.253,0.354l-0.381,2.769h-8.709L1064.31,83.867
				L1064.31,83.867z"/>
		</g>
		<polygon fill="#1B1B1A" stroke="#1B1B1A" stroke-linejoin="round" stroke-miterlimit="10" points="1045.643,257.457 
			1049.572,260.857 1045.643,264.258 		"/>
		<g>
			<path d="M1064.339,256.464l-0.879-0.216v-1.119h4.702v1.119l-1.23,0.216l1.81,6.54l0.271,1.427l0.257-1.427l1.53-5.278
				l-0.425-1.269l-0.938-0.209v-1.119h4.886v1.119l-1.392,0.209l1.816,6.547l0.314,1.535l0.257-1.535l1.67-6.547l-1.304-0.209
				v-1.119h3.684v1.119l-0.944,0.216l-2.835,9.812h-2.219l-1.941-6.561l-1.853,6.561h-2.176L1064.339,256.464z"/>
		</g>
		<polygon fill="#1B1B1A" stroke="#1B1B1A" stroke-linejoin="round" stroke-miterlimit="10" points="1045.643,379.957 
			1049.572,383.357 1045.643,386.758 		"/>
		<g>
			<path d="M1064.918,378.904l-0.952-0.209v-1.066h4.761v1.066l-1.238,0.217v5.45c0,1.153,0.196,2.006,0.59,2.556
				c0.393,0.551,0.982,0.826,1.769,0.826c0.4,0,0.746-0.079,1.037-0.238c0.29-0.158,0.529-0.383,0.718-0.674
				c0.188-0.291,0.325-0.642,0.413-1.053s0.132-0.871,0.132-1.381v-5.494l-1.26-0.209v-1.066h3.838v1.066l-0.988,0.209v5.381
				c0,0.809-0.107,1.498-0.322,2.068c-0.215,0.571-0.511,1.035-0.887,1.395c-0.376,0.358-0.821,0.621-1.336,0.787
				c-0.516,0.166-1.076,0.249-1.682,0.249c-0.776,0-1.452-0.087-2.028-0.26c-0.576-0.174-1.054-0.447-1.432-0.82
				c-0.379-0.373-0.662-0.852-0.85-1.437c-0.188-0.585-0.282-1.287-0.282-2.105L1064.918,378.904L1064.918,378.904z"/>
		</g>
		<polygon fill="#1B1B1A" stroke="#1B1B1A" stroke-linejoin="round" stroke-miterlimit="10" points="1045.643,432.814 
			1049.572,436.214 1045.643,439.615 		"/>
		<g>
			<path d="M1065.321,441.627c0.049-0.161,0.093-0.331,0.132-0.51c0.039-0.178,0.071-0.385,0.096-0.622
				c0.024-0.236,0.044-0.509,0.059-0.816s0.021-0.669,0.021-1.084v-6.863l-1.26-0.212v-1.033h4.915v1.033l-1.194,0.205v5.742
				c0,0.884-0.012,1.655-0.036,2.314s-0.081,1.177-0.169,1.553c-0.112,0.415-0.28,0.797-0.505,1.146
				c-0.225,0.35-0.502,0.658-0.831,0.927c-0.33,0.269-0.707,0.497-1.132,0.685c-0.425,0.188-0.892,0.329-1.399,0.422l-0.542-0.864
				c0.161-0.054,0.331-0.137,0.51-0.249c0.178-0.112,0.352-0.254,0.52-0.425c0.169-0.171,0.324-0.369,0.469-0.594
				C1065.117,442.156,1065.233,441.905,1065.321,441.627z"/>
		</g>
		<polygon fill="#1B1B1A" stroke="#1B1B1A" stroke-linejoin="round" stroke-miterlimit="10" points="1045.643,453.528 
			1049.572,456.929 1045.643,460.329 		"/>
		<g>
			<path d="M1063.709,461.367l1.268-0.184l1.018-8.745l-1.472-0.205v-1.032h4.849l1.911,6.481l0.271,1.421l0.241-1.421l1.604-6.481
				h4.899v1.032l-1.589,0.213l1.304,8.73l1.245,0.19v0.981h-5.018v-0.981l1.238-0.184l-0.755-6.452l-0.285-2.681l-0.433,2.072
				l-2.014,7.801h-1.795l-2.365-7.259l-0.645-2.658l-0.176,2.717l-0.477,6.453l1.487,0.19v0.981h-4.314v-0.979L1063.709,461.367
				L1063.709,461.367z"/>
		</g>
		<polygon fill="#1B1B1A" stroke="#1B1B1A" stroke-linejoin="round" stroke-miterlimit="10" points="1045.643,474.242 
			1049.572,477.643 1045.643,481.043 		"/>
		<g>
			<path d="M1069.144,483.07c-0.869,0-1.618-0.133-2.248-0.398s-1.147-0.643-1.553-1.13s-0.706-1.073-0.901-1.757
				c-0.195-0.685-0.293-1.442-0.293-2.273c0-0.855,0.123-1.628,0.37-2.316c0.246-0.689,0.596-1.279,1.048-1.769
				c0.451-0.489,0.994-0.864,1.629-1.126s1.341-0.393,2.117-0.393c0.869,0,1.617,0.128,2.245,0.383
				c0.627,0.255,1.143,0.618,1.545,1.09c0.403,0.472,0.7,1.039,0.894,1.704c0.192,0.665,0.289,1.409,0.289,2.233
				c0,0.857-0.123,1.639-0.369,2.344c-0.247,0.705-0.595,1.309-1.044,1.812s-0.99,0.895-1.622,1.176
				C1070.618,482.929,1069.916,483.07,1069.144,483.07z M1069.21,482.052c0.732,0,1.308-0.396,1.725-1.188
				c0.418-0.792,0.626-1.974,0.626-3.545c0-0.771-0.054-1.435-0.161-1.991c-0.107-0.555-0.261-1.012-0.461-1.369
				s-0.446-0.619-0.736-0.787c-0.291-0.168-0.619-0.252-0.985-0.252s-0.694,0.092-0.984,0.276c-0.291,0.185-0.536,0.465-0.736,0.841
				c-0.2,0.377-0.354,0.854-0.462,1.43c-0.107,0.578-0.161,1.256-0.161,2.037c0,0.775,0.053,1.449,0.158,2.02
				c0.104,0.569,0.258,1.041,0.461,1.415c0.202,0.374,0.448,0.653,0.736,0.837C1068.517,481.96,1068.844,482.052,1069.21,482.052z"
				/>
		</g>
	</g>
	<g display="inline">
		<g id="Pro_x2A__3_">
			<path fill="none" stroke="#A7C8AF" stroke-width="32.1429" stroke-opacity="0.4" d="M106.927,110.5c465,0,465-79.286,930-79.286"
				/>
			<path fill="none" stroke="#A7C8AF" stroke-width="10.7143" stroke-opacity="0.4" d="M106.927,131.929
				c465,0,465,80.714,930,80.714"/>
		</g>
		<path id="Cons_x2A__2_" fill="none" stroke="#F08575" stroke-width="10.7143" stroke-opacity="0.4" d="M106.927,237.643
			c465,0,465,7.143,930,7.143"/>
		<g id="Neutral_4_">
			<path fill="none" stroke="#F6A000" stroke-width="42.8571" stroke-opacity="0.4" d="M106.927,168.714c465,0,465-100,930-100"/>
			<path fill="none" stroke="#F6A000" stroke-width="21.4286" stroke-opacity="0.4" d="M106.927,200.857
				c465,0,465,27.857,930,27.857"/>
			<path fill="none" stroke="#F6A000" stroke-width="10.7143" stroke-opacity="0.4" d="M106.927,216.929
				c465,0,465,166.429,930,166.429"/>
		</g>
		<g id="Pro_4_">
			<path fill="none" stroke="#1F8E6C" stroke-width="32.1429" stroke-opacity="0.4" d="M106.927,57.643
				c465,0,465,304.286,930,304.286"/>
			<path fill="none" stroke="#1F8E6C" stroke-width="32.1429" stroke-opacity="0.4" d="M106.927,4.071c465,0,465-5,930-5"/>
			<path fill="none" stroke="#1F8E6C" stroke-width="21.4286" stroke-opacity="0.4" d="M106.927,30.857
				c465,0,465,165.714,930,165.714"/>
			<path fill="none" stroke="#1F8E6C" stroke-width="10.7143" stroke-opacity="0.4" d="M106.927,79.071
				c465,0,465,398.571,930,398.571"/>
		</g>
		<g id="Cons_4_">
			<path fill="none" stroke="#AF1922" stroke-width="85.7143" stroke-opacity="0.4" d="M106.927,295.857
				c465,0,465-162.857,930-162.857"/>
			<path fill="none" stroke="#AF1922" stroke-width="85.7143" stroke-opacity="0.4" d="M106.927,381.571
				c465,0,465-88.571,930-88.571"/>
			<path fill="none" stroke="#AF1922" stroke-width="32.1429" stroke-opacity="0.4" d="M106.927,440.5c465,0,465-35.714,930-35.714"
				/>
			<path fill="none" stroke="#AF1922" stroke-width="10.7143" stroke-opacity="0.4" d="M106.927,472.643
				c465,0,465-15.714,930-15.714"/>
			<path fill="none" stroke="#AF1922" stroke-width="10.7143" stroke-opacity="0.4" d="M106.927,461.929
				c465,0,465-25.714,930-25.714"/>
		</g>
	</g>
	<g display="inline">
		<rect x="1036.927" y="-17" fill="#1B1B1A" width="10" height="192.857">
		<title>a_Expert
18</title>
		</rect>
		<rect x="1036.927" y="185.857" fill="#1B1B1A" width="10" height="150">
		<title>b_Writer
14</title>
		</rect>
		<rect x="1036.927" y="345.857" fill="#1B1B1A" width="10" height="75">
		<title>c_Undefined
7</title>
		</rect>
		<rect x="1036.927" y="430.857" fill="#1B1B1A" width="10" height="10.714">
		<title>d_Journalist
1</title>
		</rect>
		<rect x="1036.927" y="451.571" fill="#1B1B1A" width="10" height="10.714">
		<title>e_MD
1</title>
		</rect>
		<rect x="1036.927" y="472.286" fill="#1B1B1A" width="10" height="10.714">
		<title>f_Organization
1</title>
		</rect>
	</g>
	<g display="inline">
		<path fill="#BCA695" d="M1063.439,504.029l0.879-0.189l3.384-9.977h2.585l3.406,9.983l0.85,0.183v0.981h-4.637v-0.981l1.055-0.19
			l-0.527-1.81h-3.684l-0.513,1.839l1.164,0.161v0.981h-3.947L1063.439,504.029z M1070.104,500.901l-1.326-4.463l-0.227-1.017
			l-0.228,1.017l-1.26,4.463H1070.104z"/>
	</g>
	<g display="inline">
		<path fill="#BCA695" d="M1064.311,527.286l1.143-0.183v-8.667l-1.092-0.202v-1.114h2.241c0.186,0,0.366,0,0.542,0s0.361,0,0.557,0
			s0.408,0,0.637,0c0.23,0,0.491,0,0.784,0c0.835,0,1.529,0.073,2.084,0.221c0.554,0.146,0.996,0.358,1.325,0.636
			c0.33,0.276,0.562,0.617,0.699,1.021s0.205,0.867,0.205,1.387c0,0.626-0.1,1.186-0.3,1.679c-0.2,0.494-0.492,0.91-0.875,1.25
			c-0.384,0.339-0.853,0.6-1.406,0.779c-0.555,0.181-1.183,0.271-1.886,0.271c-0.23,0-0.445,0-0.645,0
			c-0.201,0-0.332-0.008-0.396-0.022v2.754l1.941,0.19v0.981h-5.559v-0.981L1064.311,527.286L1064.311,527.286z M1067.921,523.296
			c0.103,0.024,0.228,0.042,0.374,0.054c0.146,0.013,0.355,0.019,0.629,0.019c0.264,0,0.514-0.048,0.751-0.142
			c0.237-0.095,0.444-0.254,0.623-0.479c0.178-0.226,0.319-0.526,0.425-0.904c0.104-0.378,0.157-0.85,0.157-1.417
			c0-0.828-0.169-1.427-0.505-1.798c-0.338-0.37-0.836-0.556-1.494-0.556c-0.143,0-0.261,0.004-0.355,0.011
			c-0.096,0.008-0.179,0.017-0.249,0.025c-0.071,0.01-0.134,0.02-0.187,0.029c-0.055,0.01-0.11,0.018-0.169,0.022L1067.921,523.296
			L1067.921,523.296z"/>
	</g>
	<g display="inline">
		<line fill="none" stroke="#BCA695" stroke-miterlimit="10" x1="1035.951" y1="494.58" x2="1045.97" y2="504.599"/>
		<line fill="none" stroke="#BCA695" stroke-miterlimit="10" x1="1035.951" y1="504.599" x2="1045.97" y2="494.58"/>
	</g>
	<g display="inline">
		<circle fill="#1B1B1A" cx="1040.677" cy="499.59" r="1.417"/>
	</g>
	<g display="inline">
		<line fill="none" stroke="#BCA695" stroke-miterlimit="10" x1="1035.951" y1="517.839" x2="1045.97" y2="527.857"/>
		<line fill="none" stroke="#BCA695" stroke-miterlimit="10" x1="1035.951" y1="527.857" x2="1045.97" y2="517.839"/>
	</g>
	<g display="inline">
		<circle fill="#1B1B1A" cx="1040.677" cy="522.848" r="1.417"/>
	</g>
</g>
<g>
	<path fill="#2C292A" d="M543.666,324.093v-8.503h1.092v8.503H543.666z"/>
	<path fill="#2C292A" d="M552.963,324.093l-4.173-6.836v6.836h-1.032v-8.503h1.2l4.173,6.86v-6.86h1.032v8.503H552.963z"/>
	<path fill="#2C292A" d="M559.732,316.585v7.508h-1.079v-7.508h-2.531v-0.995h6.141v0.995H559.732z"/>
	<path fill="#2C292A" d="M569.031,323.35c-0.611,0.6-1.439,0.911-2.291,0.911c-0.851,0-1.679-0.312-2.29-0.911
		c-0.924-0.899-1.092-2.147-1.092-3.502s0.168-2.603,1.092-3.502c0.611-0.601,1.439-0.912,2.29-0.912
		c0.852,0,1.68,0.312,2.291,0.912c0.924,0.899,1.092,2.146,1.092,3.502C570.123,321.203,569.955,322.451,569.031,323.35z
		 M568.288,317.089c-0.408-0.42-0.972-0.636-1.548-0.636c-0.575,0-1.139,0.216-1.547,0.636c-0.695,0.72-0.731,1.871-0.731,2.759
		c0,0.887,0.036,2.038,0.731,2.758c0.408,0.42,0.972,0.636,1.547,0.636c0.576,0,1.14-0.216,1.548-0.636
		c0.695-0.72,0.731-1.871,0.731-2.758C569.019,318.96,568.983,317.809,568.288,317.089z"/>
	<path fill="#2C292A" d="M572.561,324.093v-8.503h1.067v7.508h4.09v0.995H572.561z"/>
	<path fill="#2C292A" d="M579.689,324.093v-8.503h5.686v0.983h-4.618v2.591h4.054v1.007h-4.054v2.938h4.618v0.983h-5.686V324.093z"
		/>
	<path fill="#2C292A" d="M592.815,324.093l-1.607-3.538h-2.351v3.538h-1.067v-8.503h3.334c0.995,0,1.691,0.275,2.159,0.756
		c0.407,0.432,0.671,0.983,0.671,1.727s-0.239,1.247-0.647,1.679c-0.252,0.265-0.611,0.468-1.02,0.6l1.703,3.742h-1.175V324.093z
		 M591.124,316.574h-2.267v2.986h2.267c1.008,0,1.728-0.408,1.728-1.487S592.131,316.574,591.124,316.574z"/>
	<path fill="#2C292A" d="M601.382,324.093l-0.695-2.015h-3.694l-0.684,2.015h-1.079l2.998-8.503h1.248l3.01,8.503H601.382z
		 M598.828,316.658l-1.499,4.413h3.011L598.828,316.658z"/>
	<path fill="#2C292A" d="M609.59,324.093l-4.174-6.836v6.836h-1.031v-8.503h1.199l4.174,6.86v-6.86h1.031v8.503H609.59z"/>
	<path fill="#2C292A" d="M618.879,323.35c-0.516,0.516-1.355,0.911-2.278,0.911c-0.852,0-1.691-0.312-2.303-0.911
		c-0.924-0.899-1.067-2.147-1.067-3.502s0.144-2.603,1.067-3.502c0.611-0.601,1.451-0.912,2.303-0.912
		c0.923,0,1.751,0.36,2.267,0.876c0.491,0.504,0.804,1.151,0.84,1.942h-1.104c-0.013-0.468-0.192-0.875-0.468-1.188
		c-0.336-0.371-0.888-0.623-1.535-0.623c-0.576,0-1.14,0.228-1.548,0.647c-0.695,0.72-0.719,1.871-0.719,2.759
		c0,0.887,0.023,2.038,0.719,2.758c0.408,0.42,0.972,0.648,1.548,0.648c0.647,0,1.211-0.276,1.547-0.648
		c0.275-0.312,0.456-0.755,0.468-1.223h1.104C619.682,322.174,619.371,322.846,618.879,323.35z"/>
	<path fill="#2C292A" d="M622.001,324.093v-8.503h5.686v0.983h-4.618v2.591h4.054v1.007h-4.054v2.938h4.618v0.983h-5.686V324.093z"
		/>
	<path fill="#2C292A" d="M635.138,323.398c-0.588,0.575-1.499,0.852-2.411,0.852c-1.031,0-1.858-0.288-2.435-0.815
		c-0.539-0.504-0.911-1.235-0.911-2.039h1.115c0,0.504,0.252,1.008,0.6,1.343c0.384,0.372,1.031,0.528,1.631,0.528
		c0.648,0,1.2-0.132,1.584-0.492c0.264-0.239,0.432-0.539,0.432-0.995c0-0.66-0.42-1.211-1.428-1.367l-1.343-0.204
		c-1.271-0.191-2.267-0.899-2.267-2.255c0-0.636,0.287-1.247,0.743-1.679c0.588-0.552,1.343-0.84,2.23-0.84
		c0.828,0,1.644,0.276,2.207,0.815c0.516,0.492,0.792,1.104,0.815,1.823h-1.115c-0.024-0.42-0.18-0.792-0.42-1.067
		c-0.323-0.372-0.84-0.588-1.499-0.588c-0.611,0-1.14,0.168-1.511,0.588c-0.217,0.252-0.349,0.54-0.349,0.924
		c0,0.768,0.636,1.115,1.271,1.199c0.479,0.06,0.947,0.144,1.415,0.216c1.416,0.204,2.363,1.067,2.363,2.41
		C635.858,322.462,635.558,322.99,635.138,323.398z"/>
</g>
</svg>
