<?xml version="1.0" encoding="utf-8"?>
<!-- Generator: Adobe Illustrator 17.0.0, SVG Export Plug-In . SVG Version: 6.00 Build 0)  -->
<!DOCTYPE svg PUBLIC "-//W3C//DTD SVG 1.1//EN" "http://www.w3.org/Graphics/SVG/1.1/DTD/svg11.dtd">
<svg version="1.1" id="Layer_1" xmlns="http://www.w3.org/2000/svg" xmlns:xlink="http://www.w3.org/1999/xlink" x="0px" y="0px"
	 width="113.886px" height="79.26px" viewBox="531.734 223.892 113.886 79.26"
	 enable-background="new 531.734 223.892 113.886 79.26" xml:space="preserve">
<g id="Livello_1" display="none">
	
		<rect x="-115.68" y="-245" display="inline" opacity="0.9" fill="#EDE2D7" enable-background="new    " width="1408.819" height="996.142"/>
	<rect x="-115.68" y="-245" display="inline" fill="#EDE2D7" width="1408.819" height="996.142"/>
</g>
<g id="Nutrients" display="none">
	<g id="Flussi" display="inline">
		<polygon fill="#1B1B1A" stroke="#1B1B1A" stroke-linejoin="round" stroke-miterlimit="10" points="114.32,113.93 110.391,110.529 
			114.32,107.129 		"/>
		<polygon fill="#1B1B1A" stroke="#1B1B1A" stroke-linejoin="round" stroke-miterlimit="10" points="114.32,348.93 110.391,345.529 
			114.32,342.128 		"/>
		<polygon fill="#1B1B1A" stroke="#1B1B1A" stroke-linejoin="round" stroke-miterlimit="10" points="114.32,441.136 
			110.391,437.735 114.32,434.334 		"/>
		<polygon fill="#1B1B1A" stroke="#1B1B1A" stroke-linejoin="round" stroke-miterlimit="10" points="114.32,260.574 
			110.391,257.173 114.32,253.773 		"/>
		<g id="Pro_x2A_">
			<path fill="none" stroke="#A7C8AF" stroke-width="37.9412" stroke-opacity="0.4" d="M124.32,228.029
				c465,0,465-181.765,930-181.765"/>
			<path fill="none" stroke="#A7C8AF" stroke-width="12.6471" stroke-opacity="0.4" d="M124.32,291.265c465,0,465,98.529,930,98.529
				"/>
			<path fill="none" stroke="#A7C8AF" stroke-width="12.6471" stroke-opacity="0.4" d="M124.32,253.324c465,0,465-70.588,930-70.588
				"/>
			<path fill="none" stroke="#A7C8AF" stroke-width="12.6471" stroke-opacity="0.4" d="M124.32,278.618c465,0,465,63.235,930,63.235
				"/>
			<path fill="none" stroke="#A7C8AF" stroke-width="12.6471" stroke-opacity="0.4" d="M124.32,265.971c465,0,465,15.294,930,15.294
				"/>
		</g>
		<g id="Neutral">
			<path fill="none" stroke="#F6A000" stroke-width="37.9412" stroke-opacity="0.4" d="M124.32,326.559
				c465,0,465-242.353,930-242.353"/>
			<path fill="none" stroke="#F6A000" stroke-width="12.6471" stroke-opacity="0.4" d="M124.32,377.147c465,0,465,95.882,930,95.882
				"/>
			<path fill="none" stroke="#F6A000" stroke-width="12.6471" stroke-opacity="0.4" d="M124.32,351.853
				c465,0,465-156.471,930-156.471"/>
			<path fill="none" stroke="#F6A000" stroke-width="12.6471" stroke-opacity="0.4" d="M124.32,364.5c465,0,465-70.588,930-70.588"
				/>
		</g>
		<g id="Cons">
			<path fill="none" stroke="#AF1922" stroke-width="37.9412" stroke-opacity="0.4" d="M124.32,450.382
				c465,0,465-229.706,930-229.706"/>
			<path fill="none" stroke="#AF1922" stroke-width="37.9412" stroke-opacity="0.4" d="M124.32,412.441
				c465,0,465-290.294,930-290.294"/>
			<path fill="none" stroke="#AF1922" stroke-width="12.6471" stroke-opacity="0.4" d="M124.32,475.677c465,0,465-37.941,930-37.941
				"/>
		</g>
		<g id="Pro">
			<path fill="none" stroke="#1F8E6C" stroke-width="25.2941" stroke-opacity="0.4" d="M124.32,135.824c465,0,465,235,930,235"/>
			<path fill="none" stroke="#1F8E6C" stroke-width="25.2941" stroke-opacity="0.4" d="M124.32,34.647c465,0,465-20,930-20"/>
			<path fill="none" stroke="#1F8E6C" stroke-width="25.2941" stroke-opacity="0.4" d="M124.32,161.118
				c465,0,465,257.647,930,257.647"/>
			<path fill="none" stroke="#1F8E6C" stroke-width="25.2941" stroke-opacity="0.4" d="M124.32,85.235
				c465,0,465,177.059,930,177.059"/>
			<path fill="none" stroke="#1F8E6C" stroke-width="25.2941" stroke-opacity="0.4" d="M124.32,110.529
				c465,0,465,212.353,930,212.353"/>
			<path fill="none" stroke="#1F8E6C" stroke-width="25.2941" stroke-opacity="0.4" d="M124.32,59.941
				c465,0,465,103.824,930,103.824"/>
			<path fill="none" stroke="#1F8E6C" stroke-width="12.6471" stroke-opacity="0.4" d="M124.32,180.088
				c465,0,465,280.294,930,280.294"/>
			<path fill="none" stroke="#1F8E6C" stroke-width="12.6471" stroke-opacity="0.4" d="M124.32,192.735
				c465,0,465,302.941,930,302.941"/>
		</g>
	</g>
	<g id="Nomi" display="inline">
		<polygon fill="#1B1B1A" stroke="#1B1B1A" stroke-linejoin="round" stroke-miterlimit="10" points="1063.959,68.608 
			1067.888,72.008 1063.959,75.409 		"/>
		<polygon fill="#1B1B1A" stroke="#1B1B1A" stroke-linejoin="round" stroke-miterlimit="10" points="1063.959,191.982 
			1067.888,195.382 1063.959,198.783 		"/>
		<polygon fill="#1B1B1A" stroke="#1B1B1A" stroke-linejoin="round" stroke-miterlimit="10" points="1063.959,271.816 
			1067.888,275.217 1063.959,278.618 		"/>
		<polygon fill="#1B1B1A" stroke="#1B1B1A" stroke-linejoin="round" stroke-miterlimit="10" points="1063.959,325.805 
			1067.888,329.206 1063.959,332.607 		"/>
		<polygon fill="#1B1B1A" stroke="#1B1B1A" stroke-linejoin="round" stroke-miterlimit="10" points="1063.959,373.746 
			1067.888,377.147 1063.959,380.548 		"/>
		<polygon fill="#1B1B1A" stroke="#1B1B1A" stroke-linejoin="round" stroke-miterlimit="10" points="1063.959,421.688 
			1067.888,425.088 1063.959,428.489 		"/>
		<polygon fill="#1B1B1A" stroke="#1B1B1A" stroke-linejoin="round" stroke-miterlimit="10" points="1063.959,463.305 
			1067.888,466.706 1063.959,470.107 		"/>
		<polygon fill="#1B1B1A" stroke="#1B1B1A" stroke-linejoin="round" stroke-miterlimit="10" points="1063.959,492.276 
			1067.888,495.677 1063.959,499.077 		"/>
	</g>
	<g id="Barre" display="inline">
		<rect x="1054.32" y="2" fill="#1B1B1A" width="10" height="139.118">
		<title>a_Expert
11</title>
		</rect>
		<rect x="1054.32" y="151.118" fill="#1B1B1A" width="10" height="88.529">
		<title>b_MD
7</title>
		</rect>
		<rect x="1054.32" y="249.647" fill="#1B1B1A" width="10" height="50.588">
		<title>c_Journalist
4</title>
		</rect>
		<rect x="1054.32" y="310.235" fill="#1B1B1A" width="10" height="37.941">
		<title>d_Academics
3</title>
		</rect>
		<rect x="1054.32" y="358.177" fill="#1B1B1A" width="10" height="37.941">
		<title>e_Organization
3</title>
		</rect>
		<rect x="1054.32" y="406.118" fill="#1B1B1A" width="10" height="37.941">
		<title>f_Undefined
3</title>
		</rect>
		<rect x="1054.32" y="454.059" fill="#1B1B1A" width="10" height="25.294">
		<title>g_Writer
2</title>
		</rect>
		<rect x="1054.32" y="489.353" fill="#1B1B1A" width="10" height="12.647">
		<title>h_Industry
1</title>
		</rect>
		<rect x="114.32" y="22" fill="#1B1B1A" width="10" height="177.059">
		<title>a_Pro
14</title>
		</rect>
		<rect x="114.32" y="209.059" fill="#1B1B1A" width="10" height="88.529">
		<title>b_Pro*
7</title>
		</rect>
		<rect x="114.32" y="307.588" fill="#1B1B1A" width="10" height="75.882">
		<title>c_Neutral
6</title>
		</rect>
		<rect x="114.32" y="393.471" fill="#1B1B1A" width="10" height="88.529">
		<title>d_Cons
7</title>
		</rect>
	</g>
</g>
<g id="Diseases" display="none">
	<g id="Barre_1_" display="inline">
		<rect x="1053.32" y="3" fill="#1B1B1A" width="10" height="110.526">
		<title>a_Academics
14</title>
		</rect>
		<rect x="1053.32" y="123.526" fill="#1B1B1A" width="10" height="102.632">
		<title>b_Expert
13</title>
		</rect>
		<rect x="1053.32" y="236.158" fill="#1B1B1A" width="10" height="71.053">
		<title>c_MD
9</title>
		</rect>
		<rect x="1053.32" y="317.211" fill="#1B1B1A" width="10" height="71.053">
		<title>d_Undefined
9</title>
		</rect>
		<rect x="1053.32" y="398.263" fill="#1B1B1A" width="10" height="55.263">
		<title>e_Writer
7</title>
		</rect>
		<rect x="1053.32" y="463.526" fill="#1B1B1A" width="10" height="39.474">
		<title>f_Journalist
5</title>
		</rect>
		<rect x="113.32" y="8" fill="#1B1B1A" width="10" height="63.158">
		<title>a_Pro
8</title>
		</rect>
		<rect x="113.32" y="81.158" fill="#1B1B1A" width="10" height="102.632">
		<title>b_Pro*
13</title>
		</rect>
		<rect x="113.32" y="193.79" fill="#1B1B1A" width="10" height="142.105">
		<title>c_Neutral
18</title>
		</rect>
		<rect x="113.32" y="345.895" fill="#1B1B1A" width="10" height="31.579">
		<title>d_Cons*
4</title>
		</rect>
		<rect x="113.32" y="387.474" fill="#1B1B1A" width="10" height="110.526">
		<title>e_Cons
14</title>
		</rect>
	</g>
	<g id="Livello_8" display="inline">
		<g id="Cons_1_">
			<path fill="none" stroke="#AF1922" stroke-width="31.5789" stroke-opacity="0.4" d="M123.32,426.947
				c465,0,465-135.526,930-135.526"/>
			<path fill="none" stroke="#AF1922" stroke-width="31.5789" stroke-opacity="0.4" d="M123.32,458.526c465,0,465-86.053,930-86.053
				"/>
			<path fill="none" stroke="#AF1922" stroke-width="15.7895" stroke-opacity="0.4" d="M123.32,482.211c465,0,465-36.579,930-36.579
				"/>
			<path fill="none" stroke="#AF1922" stroke-width="15.7895" stroke-opacity="0.4" d="M123.32,403.263c465,0,465-185,930-185"/>
			<path fill="none" stroke="#AF1922" stroke-width="7.8947" stroke-opacity="0.4" d="M123.32,494.053c465,0,465,5,930,5"/>
			<path fill="none" stroke="#AF1922" stroke-width="7.8947" stroke-opacity="0.4" d="M123.32,391.421
				c465,0,465-281.842,930-281.842"/>
		</g>
		<g id="Neutral_1_">
			<path fill="none" stroke="#F6A000" stroke-width="55.2632" stroke-opacity="0.4" d="M123.32,221.421
				c465,0,465-143.421,930-143.421"/>
			<path fill="none" stroke="#F6A000" stroke-width="39.4737" stroke-opacity="0.4" d="M123.32,268.789c465,0,465-78.158,930-78.158
				"/>
			<path fill="none" stroke="#F6A000" stroke-width="15.7895" stroke-opacity="0.4" d="M123.32,328c465,0,465,151.316,930,151.316"
				/>
			<path fill="none" stroke="#F6A000" stroke-width="15.7895" stroke-opacity="0.4" d="M123.32,312.211
				c465,0,465,117.632,930,117.632"/>
			<path fill="none" stroke="#F6A000" stroke-width="7.8947" stroke-opacity="0.4" d="M123.32,300.368c465,0,465,36.579,930,36.579"
				/>
			<path fill="none" stroke="#F6A000" stroke-width="7.8947" stroke-opacity="0.4" d="M123.32,292.474c465,0,465-28.684,930-28.684"
				/>
		</g>
		<g id="Cons_x2A_">
			<path fill="none" stroke="#F08575" stroke-width="15.7895" stroke-opacity="0.4" d="M123.32,361.684c465,0,465-12.895,930-12.895
				"/>
			<path fill="none" stroke="#F08575" stroke-width="7.8947" stroke-opacity="0.4" d="M123.32,349.842c465,0,465-78.158,930-78.158"
				/>
			<path fill="none" stroke="#F08575" stroke-width="7.8947" stroke-opacity="0.4" d="M123.32,373.526
				c465,0,465,117.632,930,117.632"/>
		</g>
		<g id="Pro_x2A__1_">
			<path fill="none" stroke="#A7C8AF" stroke-width="47.3684" stroke-opacity="0.4" d="M123.32,120.632c465,0,465,26.579,930,26.579
				"/>
			<path fill="none" stroke="#A7C8AF" stroke-width="15.7895" stroke-opacity="0.4" d="M123.32,168c465,0,465,246.053,930,246.053"
				/>
			<path fill="none" stroke="#A7C8AF" stroke-width="15.7895" stroke-opacity="0.4" d="M123.32,89.053c465,0,465-46.579,930-46.579"
				/>
			<path fill="none" stroke="#A7C8AF" stroke-width="7.8947" stroke-opacity="0.4" d="M123.32,148.263
				c465,0,465,107.632,930,107.632"/>
			<path fill="none" stroke="#A7C8AF" stroke-width="7.8947" stroke-opacity="0.4" d="M123.32,156.158
				c465,0,465,172.895,930,172.895"/>
			<path fill="none" stroke="#A7C8AF" stroke-width="7.8947" stroke-opacity="0.4" d="M123.32,179.842
				c465,0,465,287.632,930,287.632"/>
		</g>
		<g id="Pro_1_">
			<path fill="none" stroke="#1F8E6C" stroke-width="31.5789" stroke-opacity="0.4" d="M123.32,23.789c465,0,465-5,930-5"/>
			<path fill="none" stroke="#1F8E6C" stroke-width="15.7895" stroke-opacity="0.4" d="M123.32,47.474
				c465,0,465,196.579,930,196.579"/>
			<path fill="none" stroke="#1F8E6C" stroke-width="7.8947" stroke-opacity="0.4" d="M123.32,67.211c465,0,465,335,930,335"/>
			<path fill="none" stroke="#1F8E6C" stroke-width="7.8947" stroke-opacity="0.4" d="M123.32,59.316c465,0,465,261.842,930,261.842
				"/>
		</g>
	</g>
	<g id="Nomi_1_" display="inline">
		<polygon fill="#1B1B1A" stroke="#1B1B1A" stroke-linejoin="round" stroke-miterlimit="10" points="114.32,42.979 110.391,39.579 
			114.32,36.178 		"/>
		<polygon fill="#1B1B1A" stroke="#1B1B1A" stroke-linejoin="round" stroke-miterlimit="10" points="114.32,268.242 
			110.391,264.842 114.32,261.441 		"/>
		<polygon fill="#1B1B1A" stroke="#1B1B1A" stroke-linejoin="round" stroke-miterlimit="10" points="114.32,446.137 
			110.391,442.737 114.32,439.336 		"/>
		<polygon fill="#1B1B1A" stroke="#1B1B1A" stroke-linejoin="round" stroke-miterlimit="10" points="114.32,135.874 
			110.391,132.473 114.32,129.073 		"/>
		<polygon fill="#1B1B1A" stroke="#1B1B1A" stroke-linejoin="round" stroke-miterlimit="10" points="114.32,365.085 
			110.391,361.684 114.32,358.283 		"/>
		<polygon fill="#1B1B1A" stroke="#1B1B1A" stroke-linejoin="round" stroke-miterlimit="10" points="1063.037,54.863 
			1066.966,58.263 1063.037,61.664 		"/>
		<polygon fill="#1B1B1A" stroke="#1B1B1A" stroke-linejoin="round" stroke-miterlimit="10" points="1063.037,171.441 
			1066.966,174.842 1063.037,178.243 		"/>
		<polygon fill="#1B1B1A" stroke="#1B1B1A" stroke-linejoin="round" stroke-miterlimit="10" points="1063.037,268.284 
			1066.966,271.684 1063.037,275.085 		"/>
		<polygon fill="#1B1B1A" stroke="#1B1B1A" stroke-linejoin="round" stroke-miterlimit="10" points="1063.037,349.336 
			1066.966,352.737 1063.037,356.138 		"/>
		<polygon fill="#1B1B1A" stroke="#1B1B1A" stroke-linejoin="round" stroke-miterlimit="10" points="1063.037,422.494 
			1066.966,425.895 1063.037,429.295 		"/>
		<polygon fill="#1B1B1A" stroke="#1B1B1A" stroke-linejoin="round" stroke-miterlimit="10" points="1063.037,479.863 
			1066.966,483.263 1063.037,486.664 		"/>
	</g>
	<g display="inline">
		<line fill="none" stroke="#BCA695" stroke-miterlimit="10" x1="1053.345" y1="512.921" x2="1063.363" y2="522.94"/>
		<line fill="none" stroke="#BCA695" stroke-miterlimit="10" x1="1053.345" y1="522.94" x2="1063.363" y2="512.921"/>
	</g>
	<g display="inline">
		<circle fill="#1B1B1A" cx="1058.07" cy="517.931" r="1.417"/>
	</g>
	<g display="inline">
		<line fill="none" stroke="#BCA695" stroke-miterlimit="10" x1="1053.345" y1="536.18" x2="1063.363" y2="546.198"/>
		<line fill="none" stroke="#BCA695" stroke-miterlimit="10" x1="1053.345" y1="546.198" x2="1063.363" y2="536.18"/>
	</g>
	<g display="inline">
		<circle fill="#1B1B1A" cx="1058.071" cy="541.189" r="1.417"/>
	</g>
</g>
<g id="Intolerance" display="none">
	<g id="Nomi_2_" display="inline">
		<polygon fill="#1B1B1A" stroke="#1B1B1A" stroke-linejoin="round" stroke-miterlimit="10" points="114.32,85.577 110.391,82.176 
			114.32,78.776 		"/>
		<polygon fill="#1B1B1A" stroke="#1B1B1A" stroke-linejoin="round" stroke-miterlimit="10" points="114.32,258.812 
			110.391,255.411 114.32,252.011 		"/>
		<polygon fill="#1B1B1A" stroke="#1B1B1A" stroke-linejoin="round" stroke-miterlimit="10" points="114.32,427.636 
			110.391,424.235 114.32,420.834 		"/>
		<polygon fill="#1B1B1A" stroke="#1B1B1A" stroke-linejoin="round" stroke-miterlimit="10" points="1063.037,72.599 1066.966,76 
			1063.037,79.401 		"/>
		<polygon fill="#1B1B1A" stroke="#1B1B1A" stroke-linejoin="round" stroke-miterlimit="10" points="1063.037,214.952 
			1066.966,218.353 1063.037,221.754 		"/>
		<polygon fill="#1B1B1A" stroke="#1B1B1A" stroke-linejoin="round" stroke-miterlimit="10" points="1063.037,335.246 
			1066.966,338.647 1063.037,342.048 		"/>
		<polygon fill="#1B1B1A" stroke="#1B1B1A" stroke-linejoin="round" stroke-miterlimit="10" points="1063.037,420.246 
			1066.966,423.647 1063.037,427.048 		"/>
		<polygon fill="#1B1B1A" stroke="#1B1B1A" stroke-linejoin="round" stroke-miterlimit="10" points="1063.037,493.188 
			1066.966,496.588 1063.037,499.989 		"/>
		<polygon fill="#1B1B1A" stroke="#1B1B1A" stroke-linejoin="round" stroke-miterlimit="10" points="1063.037,465.541 
			1066.966,468.941 1063.037,472.342 		"/>
	</g>
	<g display="inline">
		<g id="Pro_2_">
			<path fill="none" stroke="#1F8E6C" stroke-width="35.2941" stroke-opacity="0.4" d="M123.32,68.941
				c465,0,465,109.706,930,109.706"/>
			<path fill="none" stroke="#1F8E6C" stroke-width="35.2941" stroke-opacity="0.4" d="M123.32,33.647c465,0,465-15,930-15"/>
			<path fill="none" stroke="#1F8E6C" stroke-width="26.4706" stroke-opacity="0.4" d="M123.32,99.824
				c465,0,465,199.118,930,199.118"/>
			<path fill="none" stroke="#1F8E6C" stroke-width="26.4706" stroke-opacity="0.4" d="M123.32,126.294
				c465,0,465,288.529,930,288.529"/>
			<path fill="none" stroke="#1F8E6C" stroke-width="8.8235" stroke-opacity="0.4" d="M123.32,143.941
				c465,0,465,316.176,930,316.176"/>
		</g>
		<g id="Neutral_2_">
			<path fill="none" stroke="#F6A000" stroke-width="70.5882" stroke-opacity="0.4" d="M123.32,193.647
				c465,0,465-122.059,930-122.059"/>
			<path fill="none" stroke="#F6A000" stroke-width="52.9412" stroke-opacity="0.4" d="M123.32,290.706c465,0,465,47.941,930,47.941
				"/>
			<path fill="none" stroke="#F6A000" stroke-width="35.2941" stroke-opacity="0.4" d="M123.32,246.588c465,0,465-32.647,930-32.647
				"/>
			<path fill="none" stroke="#F6A000" stroke-width="17.6471" stroke-opacity="0.4" d="M123.32,334.824
				c465,0,465,138.529,930,138.529"/>
			<path fill="none" stroke="#F6A000" stroke-width="8.8235" stroke-opacity="0.4" d="M123.32,348.059
				c465,0,465,148.529,930,148.529"/>
			<path fill="none" stroke="#F6A000" stroke-width="8.8235" stroke-opacity="0.4" d="M123.32,321.588
				c465,0,465,110.882,930,110.882"/>
		</g>
		<g id="Cons_2_">
			<path fill="none" stroke="#AF1922" stroke-width="44.1176" stroke-opacity="0.4" d="M123.32,384.529
				c465,0,465-255.588,930-255.588"/>
			<path fill="none" stroke="#AF1922" stroke-width="44.1176" stroke-opacity="0.4" d="M123.32,428.647c465,0,465-175,930-175"/>
			<path fill="none" stroke="#AF1922" stroke-width="26.4706" stroke-opacity="0.4" d="M123.32,463.941c465,0,465-85.588,930-85.588
				"/>
			<path fill="none" stroke="#AF1922" stroke-width="8.8235" stroke-opacity="0.4" d="M123.32,481.588c465,0,465-40.294,930-40.294"
				/>
		</g>
	</g>
	<g id="Barre_2_" display="inline">
		<g>
			<rect x="1053.32" y="1" fill="#1B1B1A" width="10" height="150">
			<title>a_Writer
17</title>
			</rect>
			<rect x="1053.32" y="161" fill="#1B1B1A" width="10" height="114.706">
			<title>b_Expert
13</title>
			</rect>
			<rect x="1053.32" y="285.706" fill="#1B1B1A" width="10" height="105.882">
			<title>c_Undefined
12</title>
			</rect>
			<rect x="1053.32" y="401.588" fill="#1B1B1A" width="10" height="44.118">
			<title>d_Journalist
5</title>
			</rect>
			<rect x="1053.32" y="455.706" fill="#1B1B1A" width="10" height="26.471">
			<title>e_MD
3</title>
			</rect>
			<rect x="1053.32" y="492.177" fill="#1B1B1A" width="10" height="8.824">
			<title>f_Organization
1</title>
			</rect>
		</g>
		<g>
			<rect x="113.32" y="16" fill="#1B1B1A" width="10" height="132.353">
			<title>a_Pro
15</title>
			</rect>
			<g>
				<rect x="113.32" y="158.353" fill="#1B1B1A" width="10" height="194.118">
				<title>b_Neutral
22</title>
				</rect>
				<rect x="113.32" y="362.471" fill="#1B1B1A" width="10" height="123.529">
				<title>c_Cons
14</title>
				</rect>
			</g>
		</g>
	</g>
	<g display="inline">
		<line fill="none" stroke="#BCA695" stroke-miterlimit="10" x1="1053.345" y1="514.516" x2="1063.363" y2="524.535"/>
		<line fill="none" stroke="#BCA695" stroke-miterlimit="10" x1="1053.345" y1="524.535" x2="1063.363" y2="514.516"/>
	</g>
	<g display="inline">
		<circle fill="#1B1B1A" cx="1058.071" cy="519.525" r="1.417"/>
	</g>
	<g display="inline">
		<line fill="none" stroke="#BCA695" stroke-miterlimit="10" x1="1053.345" y1="537.774" x2="1063.364" y2="547.793"/>
		<line fill="none" stroke="#BCA695" stroke-miterlimit="10" x1="1053.345" y1="547.793" x2="1063.364" y2="537.774"/>
	</g>
	<g display="inline">
		<circle fill="#1B1B1A" cx="1058.071" cy="542.784" r="1.417"/>
	</g>
</g>
<g>
	<g id="Neutral_3_">
		<path opacity="0.4" fill="#F6A000" enable-background="new    " d="M540.185,240.584v-2.897c24.12,0,36.383-2.752,48.243-5.414
			c12.014-2.696,24.437-5.484,48.877-5.484v2.897c-24.12,0-36.383,2.752-48.243,5.414
			C577.049,237.796,564.626,240.584,540.185,240.584z"/>
		<path opacity="0.4" fill="#F6A000" enable-background="new    " d="M637.306,270.397c-10.935,0-20.406-1.494-28.955-4.566
			c-7.621-2.739-13.808-6.445-19.791-10.029c-5.953-3.566-12.11-7.254-19.664-9.969c-8.469-3.044-17.861-4.524-28.71-4.524v-0.724
			c10.934,0,20.406,1.494,28.955,4.566c7.621,2.739,13.808,6.445,19.791,10.029c5.953,3.566,12.11,7.254,19.664,9.969
			c8.469,3.044,17.861,4.524,28.71,4.524V270.397z"/>
	</g>
	<g id="Cons_3_">
		<path opacity="0.4" fill="#AF1922" enable-background="new    " d="M540.185,263.677v-15.934c22.847,0,33.988-4.143,45.783-8.529
			c12.597-4.684,25.623-9.528,51.337-9.528v15.934c-22.847,0-33.988,4.143-45.784,8.529
			C578.925,258.833,565.899,263.677,540.185,263.677z"/>
		<path opacity="0.4" fill="#AF1922" enable-background="new    " d="M540.185,266.574v-2.897c10.812,0,20.166-0.678,28.596-2.073
			c7.512-1.243,13.647-2.935,19.579-4.57c12.03-3.317,24.469-6.747,48.945-6.747v2.897c-10.812,0-20.166,0.678-28.596,2.073
			c-7.512,1.243-13.647,2.935-19.579,4.57C577.101,263.144,564.661,266.574,540.185,266.574z"/>
		<path opacity="0.4" fill="#AF1922" enable-background="new    " d="M540.185,270.92v-2.173c24.211,0,36.519-1.58,48.422-3.107
			c11.971-1.536,24.349-3.125,48.698-3.125v2.173c-24.211,0-36.519,1.58-48.422,3.107
			C576.913,269.331,564.535,270.92,540.185,270.92z"/>
		<path opacity="0.4" fill="#AF1922" enable-background="new    " d="M540.185,268.747v-2.173c24.183,0,36.478-2.209,48.368-4.345
			c11.983-2.153,24.378-4.38,48.752-4.38c0.001,0-0.001,0,0,0v2.173c-24.183,0-36.478,2.209-48.368,4.345
			C576.954,266.52,564.562,268.747,540.185,268.747z"/>
		<path opacity="0.4" fill="#AF1922" enable-background="new    " d="M540.185,273.093v-2.173c24.23,0,36.548-1.132,48.461-2.227
			c11.961-1.099,24.33-2.236,48.66-2.236v2.173c-24.23,0-36.548,1.132-48.461,2.227
			C576.884,271.956,564.515,273.093,540.185,273.093z"/>
		<path opacity="0.4" fill="#AF1922" enable-background="new    " d="M540.185,273.817v-0.724c24.275,0,36.616-0.317,48.551-0.623
			c11.939-0.306,24.285-0.623,48.569-0.623v0.724c-24.275,0-36.616,0.317-48.551,0.623
			C576.816,273.5,564.47,273.817,540.185,273.817z"/>
		<path opacity="0.4" fill="#AF1922" enable-background="new    " d="M540.185,274.541v-0.724c24.279,0,36.622-0.051,48.559-0.101
			c11.937-0.05,24.281-0.101,48.562-0.101v0.724c-24.279,0-36.622,0.051-48.559,0.101S564.466,274.541,540.185,274.541z"/>
	</g>
	<g id="Cons_x2A__1_">
		<path opacity="0.4" fill="#F08575" enable-background="new    " d="M637.306,271.846c-10.968,0-20.471-1.334-29.053-4.077
			c-7.65-2.445-13.851-5.749-19.847-8.944c-5.94-3.165-12.082-6.437-19.608-8.843c-8.437-2.697-17.796-4.008-28.612-4.008v-1.449
			c10.968,0,20.471,1.334,29.053,4.077c7.65,2.445,13.851,5.749,19.848,8.944c5.94,3.165,12.082,6.437,19.608,8.843
			c8.437,2.697,17.796,4.008,28.612,4.008v1.449H637.306z"/>
		<path opacity="0.4" fill="#F08575" enable-background="new    " d="M637.306,250.286c-24.307,0-36.664-1.834-48.613-3.608
			c-11.924-1.77-24.254-3.601-48.507-3.601v-0.724c24.307,0,36.663,1.834,48.613,3.608c11.924,1.77,24.254,3.601,48.507,3.601
			V250.286z"/>
		<path opacity="0.4" fill="#F08575" enable-background="new    " d="M637.306,266.456c-10.924,0-20.387-1.125-28.927-3.439
			c-7.615-2.064-13.801-4.857-19.782-7.558c-5.955-2.689-12.114-5.471-19.673-7.519c-8.478-2.297-17.878-3.414-28.738-3.414v-0.724
			c10.924,0,20.387,1.125,28.927,3.439c7.615,2.064,13.801,4.857,19.782,7.558c5.955,2.689,12.114,5.471,19.673,7.519
			c8.478,2.297,17.878,3.414,28.738,3.414V266.456z"/>
		<path opacity="0.4" fill="#F08575" enable-background="new    " d="M637.306,276.108c-5.856,0-11.149-0.415-16.184-1.269
			c-4.489-0.761-8.667-1.856-12.772-3.348c-7.621-2.769-13.808-6.516-19.792-10.14c-5.953-3.605-12.11-7.334-19.664-10.079
			c-8.469-3.077-17.86-4.573-28.709-4.573v-0.724c5.856,0,11.149,0.415,16.184,1.269c4.489,0.761,8.667,1.856,12.772,3.348
			c7.621,2.769,13.808,6.516,19.791,10.14c5.953,3.605,12.11,7.334,19.664,10.079c8.469,3.077,17.86,4.573,28.709,4.573
			L637.306,276.108L637.306,276.108z"/>
		<path opacity="0.4" fill="#F08575" enable-background="new    " d="M637.306,262.515c-10.92,0-20.378-0.959-28.914-2.933
			c-7.612-1.76-13.796-4.143-19.776-6.448c-5.957-2.295-12.116-4.669-19.679-6.418c-8.482-1.961-17.887-2.915-28.751-2.915v-0.724
			c10.92,0,20.378,0.96,28.914,2.933c7.612,1.76,13.796,4.143,19.776,6.448c5.957,2.296,12.116,4.669,19.679,6.418
			c8.482,1.961,17.887,2.915,28.751,2.915V262.515z"/>
	</g>
	<g id="Pro_3_">
		<path opacity="0.4" fill="#1F8E6C" enable-background="new    " d="M637.306,249.562c-24.554,0-37.027-4.889-49.089-9.617
			c-5.921-2.321-12.044-4.721-19.531-6.481c-8.399-1.975-17.722-2.935-28.501-2.935v-2.897c24.554,0,37.027,4.889,49.089,9.617
			c5.921,2.321,12.044,4.721,19.531,6.481c8.399,1.975,17.722,2.935,28.501,2.935V249.562z"/>
		<path opacity="0.4" fill="#1F8E6C" enable-background="new    " d="M637.306,257.125c-24.615,0-37.111-6.099-49.196-11.996
			c-5.914-2.886-12.03-5.871-19.499-8.058c-8.375-2.452-17.673-3.645-28.425-3.645v-2.897c24.615,0,37.111,6.099,49.195,11.996
			c5.914,2.886,12.03,5.871,19.499,8.058c8.375,2.452,17.673,3.645,28.425,3.645L637.306,257.125L637.306,257.125z"/>
		<path opacity="0.4" fill="#1F8E6C" enable-background="new    " d="M540.185,227.632v-2.173c24.263,0,36.597-0.398,48.525-0.783
			c11.945-0.385,24.298-0.784,48.595-0.784v2.173c-24.263,0-36.597,0.398-48.525,0.783
			C576.835,227.233,564.483,227.632,540.185,227.632z"/>
		<path opacity="0.4" fill="#1F8E6C" enable-background="new    " d="M637.306,261.79c-10.932,0-20.402-1.419-28.95-4.338
			c-7.62-2.602-13.807-6.124-19.79-9.529c-5.954-3.389-12.11-6.893-19.665-9.473c-8.471-2.893-17.864-4.299-28.716-4.299v-0.724
			c10.932,0,20.402,1.419,28.95,4.338c7.62,2.602,13.807,6.124,19.79,9.529c5.954,3.389,12.11,6.893,19.665,9.473
			c8.471,2.893,17.864,4.299,28.716,4.299V261.79z"/>
	</g>
	<g id="Pro_x2A__2_">
		<path opacity="0.4" fill="#A7C8AF" enable-background="new    " d="M540.185,235.919v-0.724c24.246,0,36.573-2.317,48.493-4.558
			c11.953-2.247,24.313-4.571,48.627-4.571v0.724c-24.246,0-36.573,2.317-48.493,4.558
			C576.859,233.595,564.499,235.919,540.185,235.919z"/>
		<path opacity="0.4" fill="#A7C8AF" enable-background="new    " d="M637.306,257.849c-10.923,0-20.385-1.088-28.924-3.325
			c-7.615-1.995-13.8-4.696-19.781-7.308c-5.956-2.601-12.114-5.29-19.674-7.271c-8.479-2.222-17.88-3.302-28.741-3.302v-0.724
			c10.923,0,20.385,1.088,28.924,3.325c7.615,1.995,13.8,4.696,19.781,7.308c5.956,2.601,12.114,5.29,19.674,7.271
			c8.479,2.222,17.88,3.302,28.741,3.302V257.849z"/>
	</g>
	<rect x="637.306" y="223.892" fill="#1B1B1A" width="1.044" height="21.728">
	<title>a_Writer
30</title>
	</rect>
	<rect x="637.306" y="246.665" fill="#1B1B1A" width="1.044" height="6.518">
	<title>b_Organization
9</title>
	</rect>
	<rect x="637.306" y="254.228" fill="#1B1B1A" width="1.044" height="5.794">
	<title>c_Industry
8</title>
	</rect>
	<rect x="637.306" y="261.066" fill="#1B1B1A" width="1.044" height="3.621">
	<title>d_MD
5</title>
	</rect>
	<rect x="637.306" y="265.732" fill="#1B1B1A" width="1.044" height="2.897">
	<title>e_Expert
4</title>
	</rect>
	<rect x="637.306" y="269.673" fill="#1B1B1A" width="1.044" height="2.897">
	<title>f_Journalist
4</title>
	</rect>
	<rect x="637.306" y="273.615" fill="#1B1B1A" width="1.044" height="0.724">
	<title>g_Academics
1</title>
	</rect>
	<rect x="637.306" y="275.383" fill="#1B1B1A" width="1.044" height="0.724">
	<title>h_Undefined
1</title>
	</rect>
	<rect x="539.141" y="225.459" fill="#1B1B1A" width="1.044" height="8.691">
	<title>a_Pro
12</title>
	</rect>
	<rect x="539.141" y="235.194" fill="#1B1B1A" width="1.044" height="1.449">
	<title>b_Pro*
2</title>
	</rect>
	<rect x="539.141" y="237.687" fill="#1B1B1A" width="1.044" height="3.621">
	<title>c_Neutral
5</title>
	</rect>
	<rect x="539.141" y="242.353" fill="#1B1B1A" width="1.044" height="4.346">
	<title>d_Cons*
6</title>
	</rect>
	<rect x="539.141" y="247.743" fill="#1B1B1A" width="1.044" height="26.798">
	<title>e_Cons
37</title>
	</rect>
	<g>
		<polygon fill="#1B1B1A" points="539.141,230.159 538.731,229.804 539.141,229.449 		"/>
		<path fill="#1B1B1A" d="M539.141,230.212c-0.012,0-0.024-0.004-0.034-0.013l-0.41-0.355c-0.011-0.01-0.018-0.024-0.018-0.039
			s0.007-0.03,0.018-0.039l0.41-0.355c0.016-0.013,0.037-0.016,0.056-0.008c0.019,0.008,0.031,0.027,0.031,0.047v0.71
			c0,0.02-0.012,0.039-0.031,0.047C539.156,230.21,539.148,230.212,539.141,230.212z M538.811,229.804l0.278,0.241v-0.482
			L538.811,229.804z"/>
	</g>
	<g>
		<polygon fill="#1B1B1A" points="539.141,261.497 538.731,261.142 539.141,260.787 		"/>
		<path fill="#1B1B1A" d="M539.141,261.549c-0.012,0-0.024-0.004-0.034-0.013l-0.41-0.355c-0.011-0.01-0.018-0.024-0.018-0.039
			s0.007-0.03,0.018-0.039l0.41-0.355c0.016-0.013,0.037-0.016,0.056-0.008c0.019,0.009,0.031,0.027,0.031,0.048v0.71
			c0,0.02-0.012,0.039-0.031,0.048C539.156,261.548,539.148,261.549,539.141,261.549z M538.811,261.142l0.278,0.241v-0.482
			L538.811,261.142z"/>
	</g>
	<g>
		<polygon fill="#1B1B1A" points="539.141,239.853 538.731,239.498 539.141,239.143 		"/>
		<path fill="#1B1B1A" d="M539.141,239.905c-0.012,0-0.024-0.004-0.034-0.013l-0.41-0.355c-0.011-0.01-0.018-0.024-0.018-0.039
			s0.007-0.03,0.018-0.039l0.41-0.355c0.016-0.013,0.037-0.017,0.056-0.008c0.019,0.008,0.031,0.027,0.031,0.047v0.71
			c0,0.02-0.012,0.039-0.031,0.047C539.156,239.904,539.148,239.905,539.141,239.905z M538.811,239.498l0.278,0.241v-0.482
			L538.811,239.498z"/>
	</g>
	<g>
		<polygon fill="#1B1B1A" points="539.141,236.274 538.731,235.919 539.141,235.564 		"/>
		<path fill="#1B1B1A" d="M539.141,236.326c-0.012,0-0.024-0.004-0.034-0.013l-0.41-0.355c-0.011-0.01-0.018-0.024-0.018-0.039
			s0.007-0.03,0.018-0.039l0.41-0.355c0.016-0.013,0.037-0.017,0.056-0.008c0.019,0.008,0.031,0.027,0.031,0.047v0.71
			c0,0.02-0.012,0.039-0.031,0.047C539.156,236.324,539.148,236.326,539.141,236.326z M538.811,235.919l0.278,0.241v-0.482
			L538.811,235.919z"/>
	</g>
	<g>
		<polygon fill="#1B1B1A" points="638.216,234.401 638.626,234.756 638.216,235.112 		"/>
		<path fill="#1B1B1A" d="M638.216,235.164c-0.007,0-0.015-0.002-0.022-0.005c-0.019-0.008-0.031-0.027-0.031-0.047v-0.71
			c0-0.02,0.012-0.039,0.031-0.047c0.019-0.009,0.04-0.005,0.056,0.008l0.41,0.355c0.011,0.01,0.018,0.024,0.018,0.039
			s-0.007,0.03-0.018,0.039l-0.41,0.355C638.24,235.159,638.228,235.164,638.216,235.164z M638.268,234.516v0.482l0.278-0.241
			L638.268,234.516z"/>
	</g>
	<g>
		<polygon fill="#1B1B1A" points="638.216,249.569 638.626,249.924 638.216,250.279 		"/>
		<path fill="#1B1B1A" d="M638.216,250.331c-0.007,0-0.015-0.002-0.022-0.005c-0.019-0.008-0.031-0.027-0.031-0.047v-0.71
			c0-0.02,0.012-0.039,0.031-0.047c0.019-0.009,0.04-0.005,0.056,0.008l0.41,0.355c0.011,0.01,0.018,0.024,0.018,0.039
			s-0.007,0.03-0.018,0.039l-0.41,0.355C638.24,250.327,638.228,250.331,638.216,250.331z M638.268,249.683v0.482l0.278-0.241
			L638.268,249.683z"/>
	</g>
	<g>
		<polygon fill="#1B1B1A" points="638.216,256.77 638.626,257.125 638.216,257.48 		"/>
		<path fill="#1B1B1A" d="M638.216,257.532c-0.007,0-0.015-0.002-0.022-0.005c-0.019-0.009-0.031-0.027-0.031-0.048v-0.71
			c0-0.02,0.012-0.039,0.031-0.048c0.019-0.008,0.04-0.005,0.056,0.008l0.41,0.355c0.011,0.01,0.018,0.024,0.018,0.039
			s-0.007,0.03-0.018,0.039l-0.41,0.355C638.24,257.528,638.228,257.532,638.216,257.532z M638.268,256.884v0.482l0.278-0.241
			L638.268,256.884z"/>
	</g>
	<g>
		<polygon fill="#1B1B1A" points="638.216,266.825 638.626,267.18 638.216,267.536 		"/>
		<path fill="#1B1B1A" d="M638.216,267.588c-0.007,0-0.015-0.002-0.022-0.005c-0.019-0.009-0.031-0.027-0.031-0.048v-0.71
			c0-0.02,0.012-0.039,0.031-0.048s0.04-0.005,0.056,0.008l0.41,0.355c0.011,0.01,0.018,0.024,0.018,0.039s-0.007,0.03-0.018,0.039
			l-0.41,0.355C638.24,267.583,638.228,267.588,638.216,267.588z M638.268,266.94v0.482l0.278-0.241L638.268,266.94z"/>
	</g>
	<g>
		<polygon fill="#1B1B1A" points="638.216,270.767 638.626,271.122 638.216,271.477 		"/>
		<path fill="#1B1B1A" d="M638.216,271.529c-0.007,0-0.015-0.002-0.022-0.005c-0.019-0.009-0.031-0.027-0.031-0.048v-0.71
			c0-0.02,0.012-0.039,0.031-0.048c0.019-0.008,0.04-0.005,0.056,0.008l0.41,0.355c0.011,0.01,0.018,0.024,0.018,0.039
			s-0.007,0.03-0.018,0.039l-0.41,0.355C638.24,271.525,638.228,271.529,638.216,271.529z M638.268,270.881v0.482l0.278-0.241
			L638.268,270.881z"/>
	</g>
	<g>
		<polygon fill="#1B1B1A" points="638.216,273.668 638.626,273.977 638.216,274.286 		"/>
		<path fill="#1B1B1A" d="M638.216,274.338c-0.008,0-0.016-0.002-0.023-0.006c-0.018-0.009-0.029-0.027-0.029-0.047v-0.618
			c0-0.02,0.011-0.038,0.029-0.047s0.039-0.007,0.055,0.005l0.41,0.309c0.013,0.01,0.021,0.025,0.021,0.042
			s-0.008,0.032-0.021,0.042l-0.41,0.309C638.238,274.334,638.227,274.338,638.216,274.338z M638.268,273.773v0.409l0.271-0.204
			L638.268,273.773z"/>
	</g>
	<g>
		<polygon fill="#1B1B1A" points="638.216,275.436 638.626,275.745 638.216,276.054 		"/>
		<path fill="#1B1B1A" d="M638.216,276.106c-0.008,0-0.016-0.002-0.023-0.005c-0.018-0.009-0.029-0.027-0.029-0.047v-0.618
			c0-0.02,0.011-0.038,0.029-0.047s0.039-0.007,0.055,0.005l0.41,0.309c0.013,0.01,0.021,0.025,0.021,0.042
			s-0.008,0.032-0.021,0.042l-0.41,0.309C638.238,276.103,638.227,276.106,638.216,276.106z M638.268,275.541v0.409l0.271-0.204
			L638.268,275.541z"/>
	</g>
	<g>
		<polygon fill="#1B1B1A" points="638.216,262.522 638.626,262.877 638.216,263.232 		"/>
		<path fill="#1B1B1A" d="M638.216,263.284c-0.007,0-0.015-0.002-0.022-0.005c-0.019-0.009-0.031-0.027-0.031-0.048v-0.71
			c0-0.02,0.012-0.039,0.031-0.048c0.019-0.008,0.04-0.005,0.056,0.008l0.41,0.355c0.011,0.01,0.018,0.024,0.018,0.039
			s-0.007,0.03-0.018,0.039l-0.41,0.355C638.24,263.28,638.228,263.284,638.216,263.284z M638.268,262.636v0.482l0.278-0.241
			L638.268,262.636z"/>
	</g>
	<g>
		<polygon fill="#1B1B1A" points="539.141,244.881 538.731,244.526 539.141,244.171 		"/>
		<path fill="#1B1B1A" d="M539.141,244.933c-0.012,0-0.024-0.004-0.034-0.013l-0.41-0.355c-0.011-0.01-0.018-0.024-0.018-0.039
			s0.007-0.03,0.018-0.039l0.41-0.355c0.016-0.013,0.037-0.017,0.056-0.008c0.019,0.008,0.031,0.027,0.031,0.047v0.71
			c0,0.02-0.012,0.039-0.031,0.047C539.156,244.932,539.148,244.933,539.141,244.933z M538.811,244.526l0.278,0.241v-0.482
			L538.811,244.526z"/>
	</g>
</g>
<g id="Body" display="none">
	<g id="Nomi_3_" display="inline">
		<polygon fill="#1B1B1A" stroke="#1B1B1A" stroke-linejoin="round" stroke-miterlimit="10" points="114.32,40.615 110.391,37.214 
			114.32,33.813 		"/>
		<polygon fill="#1B1B1A" stroke="#1B1B1A" stroke-linejoin="round" stroke-miterlimit="10" points="114.32,369.9 110.391,366.5 
			114.32,363.099 		"/>
		<polygon fill="#1B1B1A" stroke="#1B1B1A" stroke-linejoin="round" stroke-miterlimit="10" points="114.32,189.186 
			110.391,185.785 114.32,182.385 		"/>
		<polygon fill="#1B1B1A" stroke="#1B1B1A" stroke-linejoin="round" stroke-miterlimit="10" points="114.32,120.258 
			110.391,116.857 114.32,113.457 		"/>
		<polygon fill="#1B1B1A" stroke="#1B1B1A" stroke-linejoin="round" stroke-miterlimit="10" points="1063.037,77.028 
			1066.966,80.429 1063.037,83.829 		"/>
		<polygon fill="#1B1B1A" stroke="#1B1B1A" stroke-linejoin="round" stroke-miterlimit="10" points="1063.037,258.457 
			1066.966,261.857 1063.037,265.258 		"/>
		<polygon fill="#1B1B1A" stroke="#1B1B1A" stroke-linejoin="round" stroke-miterlimit="10" points="1063.037,380.957 
			1066.966,384.357 1063.037,387.758 		"/>
		<polygon fill="#1B1B1A" stroke="#1B1B1A" stroke-linejoin="round" stroke-miterlimit="10" points="1063.037,433.814 
			1066.966,437.214 1063.037,440.615 		"/>
		<polygon fill="#1B1B1A" stroke="#1B1B1A" stroke-linejoin="round" stroke-miterlimit="10" points="1063.037,454.528 
			1066.966,457.929 1063.037,461.329 		"/>
		<polygon fill="#1B1B1A" stroke="#1B1B1A" stroke-linejoin="round" stroke-miterlimit="10" points="1063.037,475.242 
			1066.966,478.643 1063.037,482.044 		"/>
		<polygon fill="#1B1B1A" stroke="#1B1B1A" stroke-linejoin="round" stroke-miterlimit="10" points="114.32,242.044 
			110.391,238.643 114.32,235.242 		"/>
	</g>
	<g display="inline">
		<g id="Pro_x2A__3_">
			<path fill="none" stroke="#A7C8AF" stroke-width="32.1429" stroke-opacity="0.4" d="M124.32,111.5c465,0,465-79.286,930-79.286"
				/>
			<path fill="none" stroke="#A7C8AF" stroke-width="10.7143" stroke-opacity="0.4" d="M124.32,132.929c465,0,465,80.714,930,80.714
				"/>
		</g>
		<path id="Cons_x2A__2_" fill="none" stroke="#F08575" stroke-width="10.7143" stroke-opacity="0.4" d="M124.32,238.643
			c465,0,465,7.143,930,7.143"/>
		<g id="Neutral_4_">
			<path fill="none" stroke="#F6A000" stroke-width="42.8571" stroke-opacity="0.4" d="M124.32,169.714c465,0,465-100,930-100"/>
			<path fill="none" stroke="#F6A000" stroke-width="21.4286" stroke-opacity="0.4" d="M124.32,201.857c465,0,465,27.857,930,27.857
				"/>
			<path fill="none" stroke="#F6A000" stroke-width="10.7143" stroke-opacity="0.4" d="M124.32,217.929
				c465,0,465,166.429,930,166.429"/>
		</g>
		<g id="Pro_4_">
			<path fill="none" stroke="#1F8E6C" stroke-width="32.1429" stroke-opacity="0.4" d="M124.32,58.643
				c465,0,465,304.286,930,304.286"/>
			<path fill="none" stroke="#1F8E6C" stroke-width="32.1429" stroke-opacity="0.4" d="M124.32,5.071c465,0,465-5,930-5"/>
			<path fill="none" stroke="#1F8E6C" stroke-width="21.4286" stroke-opacity="0.4" d="M124.32,31.857
				c465,0,465,165.714,930,165.714"/>
			<path fill="none" stroke="#1F8E6C" stroke-width="10.7143" stroke-opacity="0.4" d="M124.32,80.071
				c465,0,465,398.571,930,398.571"/>
		</g>
		<g id="Cons_4_">
			<path fill="none" stroke="#AF1922" stroke-width="85.7143" stroke-opacity="0.4" d="M124.32,296.857
				c465,0,465-162.857,930-162.857"/>
			<path fill="none" stroke="#AF1922" stroke-width="85.7143" stroke-opacity="0.4" d="M124.32,382.571c465,0,465-88.571,930-88.571
				"/>
			<path fill="none" stroke="#AF1922" stroke-width="32.1429" stroke-opacity="0.4" d="M124.32,441.5c465,0,465-35.714,930-35.714"
				/>
			<path fill="none" stroke="#AF1922" stroke-width="10.7143" stroke-opacity="0.4" d="M124.32,473.643c465,0,465-15.714,930-15.714
				"/>
			<path fill="none" stroke="#AF1922" stroke-width="10.7143" stroke-opacity="0.4" d="M124.32,462.929c465,0,465-25.714,930-25.714
				"/>
		</g>
	</g>
	<g display="inline">
		<rect x="1054.32" y="-16" fill="#1B1B1A" width="10" height="192.857">
		<title>a_Expert
18</title>
		</rect>
		<rect x="1054.32" y="186.857" fill="#1B1B1A" width="10" height="150">
		<title>b_Writer
14</title>
		</rect>
		<rect x="1054.32" y="346.857" fill="#1B1B1A" width="10" height="75">
		<title>c_Undefined
7</title>
		</rect>
		<rect x="1054.32" y="431.857" fill="#1B1B1A" width="10" height="10.714">
		<title>d_Journalist
1</title>
		</rect>
		<rect x="1054.32" y="452.571" fill="#1B1B1A" width="10" height="10.714">
		<title>e_MD
1</title>
		</rect>
		<rect x="1054.32" y="473.286" fill="#1B1B1A" width="10" height="10.714">
		<title>f_Organization
1</title>
		</rect>
		<rect x="114.32" y="-11" fill="#1B1B1A" width="10" height="96.429">
		<title>a_Pro
9</title>
		</rect>
		<rect x="114.32" y="95.429" fill="#1B1B1A" width="10" height="42.857">
		<title>b_Pro*
4</title>
		</rect>
		<rect x="114.32" y="148.286" fill="#1B1B1A" width="10" height="75">
		<title>c_Neutral
7</title>
		</rect>
		<rect x="114.32" y="233.286" fill="#1B1B1A" width="10" height="10.714">
		<title>d_Cons*
1</title>
		</rect>
		<rect x="114.32" y="254" fill="#1B1B1A" width="10" height="225">
		<title>e_Cons
21</title>
		</rect>
	</g>
	<g display="inline">
		<line fill="none" stroke="#BCA695" stroke-miterlimit="10" x1="1053.345" y1="495.58" x2="1063.363" y2="505.599"/>
		<line fill="none" stroke="#BCA695" stroke-miterlimit="10" x1="1053.345" y1="505.599" x2="1063.363" y2="495.58"/>
	</g>
	<g display="inline">
		<circle fill="#1B1B1A" cx="1058.071" cy="500.59" r="1.417"/>
	</g>
	<g display="inline">
		<line fill="none" stroke="#BCA695" stroke-miterlimit="10" x1="1053.345" y1="518.839" x2="1063.364" y2="528.857"/>
		<line fill="none" stroke="#BCA695" stroke-miterlimit="10" x1="1053.345" y1="528.857" x2="1063.364" y2="518.839"/>
	</g>
	<g display="inline">
		<circle fill="#1B1B1A" cx="1058.071" cy="523.848" r="1.417"/>
	</g>
</g>
<g>
	<path fill="#2C292A" d="M531.734,302.984v-8.503h5.686v0.983h-4.618v2.591h4.054v1.007h-4.054V302h4.618v0.983h-5.686V302.984z"/>
	<path fill="#2C292A" d="M544.272,302.984l-2.159-3.49l-2.135,3.49h-1.163l2.687-4.293l-2.639-4.21h1.188l2.135,3.442l2.099-3.442
		h1.14l-2.65,4.21l2.687,4.293H544.272z"/>
	<path fill="#2C292A" d="M550.01,295.476v7.508h-1.08v-7.508h-2.53v-0.995h6.141v0.995H550.01z"/>
	<path fill="#2C292A" d="M554.499,302.984v-8.503h5.685v0.983h-4.617v2.591h4.054v1.007h-4.054V302h4.617v0.983h-5.685V302.984z"/>
	<path fill="#2C292A" d="M567.624,302.984l-1.607-3.538h-2.351v3.538h-1.067v-8.503h3.334c0.995,0,1.691,0.275,2.159,0.756
		c0.407,0.432,0.671,0.983,0.671,1.727s-0.239,1.247-0.647,1.679c-0.252,0.265-0.611,0.468-1.02,0.6l1.703,3.742h-1.175V302.984z
		 M565.932,295.464h-2.267v2.986h2.267c1.008,0,1.728-0.408,1.728-1.487S566.94,295.464,565.932,295.464z"/>
	<path fill="#2C292A" d="M576.348,302.984l-4.174-6.836v6.836h-1.031v-8.503h1.199l4.174,6.86v-6.86h1.031v8.503H576.348z"/>
	<path fill="#2C292A" d="M585.599,302.984l-0.695-2.015h-3.694l-0.684,2.015h-1.079l2.998-8.503h1.248l3.01,8.503H585.599z
		 M583.045,295.548l-1.499,4.413h3.011L583.045,295.548z"/>
	<path fill="#2C292A" d="M588.602,302.984v-8.503h1.067v7.508h4.09v0.995H588.602z"/>
	<path fill="#2C292A" d="M603.899,302.984l-0.695-2.015h-3.694l-0.684,2.015h-1.079l2.998-8.503h1.248l3.01,8.503H603.899z
		 M601.345,295.548l-1.499,4.413h3.011L601.345,295.548z"/>
	<path fill="#2C292A" d="M612.047,302.984l-0.18-1.02c-0.42,0.696-1.355,1.188-2.314,1.188c-0.852,0-1.68-0.275-2.291-0.875
		c-0.863-0.84-1.104-2.016-1.104-3.538c0-1.355,0.18-2.603,1.104-3.502c0.611-0.601,1.439-0.912,2.291-0.912
		c0.959,0,1.847,0.336,2.435,0.96c0.407,0.432,0.695,0.971,0.731,1.654h-1.115c-0.036-0.396-0.168-0.671-0.384-0.935
		c-0.384-0.456-0.972-0.672-1.667-0.672c-0.576,0-1.14,0.228-1.548,0.647c-0.695,0.72-0.743,1.871-0.743,2.759
		c0,0.852,0.06,2.074,0.768,2.794c0.408,0.42,0.947,0.612,1.523,0.612c0.6,0,1.163-0.204,1.547-0.588
		c0.563-0.552,0.731-1.38,0.731-2.159h-2.278v-0.995h3.238v4.581h-0.744V302.984z"/>
	<path fill="#2C292A" d="M615.481,302.984v-8.503h5.686v0.983h-4.618v2.591h4.054v1.007h-4.054V302h4.618v0.983h-5.686V302.984z"/>
	<path fill="#2C292A" d="M628.787,302.984l-4.174-6.836v6.836h-1.031v-8.503h1.199l4.174,6.86v-6.86h1.031v8.503H628.787z"/>
	<path fill="#2C292A" d="M635.557,295.476v7.508h-1.079v-7.508h-2.531v-0.995h6.141v0.995H635.557z"/>
	<path fill="#2C292A" d="M644.903,302.289c-0.588,0.575-1.499,0.852-2.411,0.852c-1.031,0-1.858-0.288-2.435-0.815
		c-0.539-0.504-0.911-1.235-0.911-2.039h1.115c0,0.504,0.252,1.008,0.6,1.343c0.384,0.372,1.031,0.528,1.631,0.528
		c0.648,0,1.2-0.132,1.584-0.492c0.264-0.239,0.432-0.539,0.432-0.995c0-0.66-0.42-1.211-1.428-1.367l-1.343-0.204
		c-1.271-0.191-2.267-0.899-2.267-2.255c0-0.636,0.287-1.247,0.743-1.679c0.588-0.552,1.343-0.84,2.23-0.84
		c0.828,0,1.644,0.276,2.207,0.815c0.516,0.492,0.792,1.104,0.815,1.823h-1.115c-0.024-0.42-0.18-0.792-0.42-1.067
		c-0.323-0.372-0.84-0.588-1.499-0.588c-0.611,0-1.14,0.168-1.511,0.588c-0.217,0.252-0.349,0.54-0.349,0.924
		c0,0.768,0.636,1.115,1.271,1.199c0.479,0.06,0.947,0.144,1.415,0.216c1.416,0.204,2.363,1.067,2.363,2.41
		C645.623,301.353,645.323,301.88,644.903,302.289z"/>
</g>
</svg>
