<?xml version="1.0" encoding="utf-8"?>
<!-- Generator: Adobe Illustrator 17.0.0, SVG Export Plug-In . SVG Version: 6.00 Build 0)  -->
<!DOCTYPE svg PUBLIC "-//W3C//DTD SVG 1.1//EN" "http://www.w3.org/Graphics/SVG/1.1/DTD/svg11.dtd">
<svg version="1.1" id="Layer_1" xmlns="http://www.w3.org/2000/svg" xmlns:xlink="http://www.w3.org/1999/xlink" x="0px" y="0px"
	 width="113.89px" height="79.26px" viewBox="531.734 244.137 113.89 79.26" enable-background="new 531.734 244.137 113.89 79.26"
	 xml:space="preserve">
<g id="Livello_1" display="none">
	
		<rect x="-115.68" y="-229" display="inline" opacity="0.9" fill="#EDE2D7" enable-background="new    " width="1408.819" height="996.142"/>
	<rect x="-115.68" y="-229" display="inline" fill="#EDE2D7" width="1408.819" height="996.142"/>
</g>
<g id="Nutrients" display="none">
	<g id="Flussi" display="inline">
		<polygon fill="#1B1B1A" stroke="#1B1B1A" stroke-linejoin="round" stroke-miterlimit="10" points="114.32,129.93 110.391,126.529 
			114.32,123.129 		"/>
		<polygon fill="#1B1B1A" stroke="#1B1B1A" stroke-linejoin="round" stroke-miterlimit="10" points="114.32,364.93 110.391,361.529 
			114.32,358.128 		"/>
		<polygon fill="#1B1B1A" stroke="#1B1B1A" stroke-linejoin="round" stroke-miterlimit="10" points="114.32,457.136 
			110.391,453.735 114.32,450.334 		"/>
		<polygon fill="#1B1B1A" stroke="#1B1B1A" stroke-linejoin="round" stroke-miterlimit="10" points="114.32,276.574 
			110.391,273.173 114.32,269.773 		"/>
		<g id="Pro_x2A_">
			<path fill="none" stroke="#A7C8AF" stroke-width="37.9412" stroke-opacity="0.4" d="M124.32,244.029
				c465,0,465-181.765,930-181.765"/>
			<path fill="none" stroke="#A7C8AF" stroke-width="12.6471" stroke-opacity="0.4" d="M124.32,307.265c465,0,465,98.529,930,98.529
				"/>
			<path fill="none" stroke="#A7C8AF" stroke-width="12.6471" stroke-opacity="0.4" d="M124.32,269.324c465,0,465-70.588,930-70.588
				"/>
			<path fill="none" stroke="#A7C8AF" stroke-width="12.6471" stroke-opacity="0.4" d="M124.32,294.618c465,0,465,63.235,930,63.235
				"/>
			<path fill="none" stroke="#A7C8AF" stroke-width="12.6471" stroke-opacity="0.4" d="M124.32,281.971c465,0,465,15.294,930,15.294
				"/>
		</g>
		<g id="Neutral">
			<path fill="none" stroke="#F6A000" stroke-width="37.9412" stroke-opacity="0.4" d="M124.32,342.559
				c465,0,465-242.353,930-242.353"/>
			<path fill="none" stroke="#F6A000" stroke-width="12.6471" stroke-opacity="0.4" d="M124.32,393.147c465,0,465,95.882,930,95.882
				"/>
			<path fill="none" stroke="#F6A000" stroke-width="12.6471" stroke-opacity="0.4" d="M124.32,367.853
				c465,0,465-156.471,930-156.471"/>
			<path fill="none" stroke="#F6A000" stroke-width="12.6471" stroke-opacity="0.4" d="M124.32,380.5c465,0,465-70.588,930-70.588"
				/>
		</g>
		<g id="Cons">
			<path fill="none" stroke="#AF1922" stroke-width="37.9412" stroke-opacity="0.4" d="M124.32,466.382
				c465,0,465-229.706,930-229.706"/>
			<path fill="none" stroke="#AF1922" stroke-width="37.9412" stroke-opacity="0.4" d="M124.32,428.441
				c465,0,465-290.294,930-290.294"/>
			<path fill="none" stroke="#AF1922" stroke-width="12.6471" stroke-opacity="0.4" d="M124.32,491.677c465,0,465-37.941,930-37.941
				"/>
		</g>
		<g id="Pro">
			<path fill="none" stroke="#1F8E6C" stroke-width="25.2941" stroke-opacity="0.4" d="M124.32,151.824c465,0,465,235,930,235"/>
			<path fill="none" stroke="#1F8E6C" stroke-width="25.2941" stroke-opacity="0.4" d="M124.32,50.647c465,0,465-20,930-20"/>
			<path fill="none" stroke="#1F8E6C" stroke-width="25.2941" stroke-opacity="0.4" d="M124.32,177.118
				c465,0,465,257.647,930,257.647"/>
			<path fill="none" stroke="#1F8E6C" stroke-width="25.2941" stroke-opacity="0.4" d="M124.32,101.235
				c465,0,465,177.059,930,177.059"/>
			<path fill="none" stroke="#1F8E6C" stroke-width="25.2941" stroke-opacity="0.4" d="M124.32,126.529
				c465,0,465,212.353,930,212.353"/>
			<path fill="none" stroke="#1F8E6C" stroke-width="25.2941" stroke-opacity="0.4" d="M124.32,75.941
				c465,0,465,103.824,930,103.824"/>
			<path fill="none" stroke="#1F8E6C" stroke-width="12.6471" stroke-opacity="0.4" d="M124.32,196.088
				c465,0,465,280.294,930,280.294"/>
			<path fill="none" stroke="#1F8E6C" stroke-width="12.6471" stroke-opacity="0.4" d="M124.32,208.735
				c465,0,465,302.941,930,302.941"/>
		</g>
	</g>
	<g id="Nomi" display="inline">
		<polygon fill="#1B1B1A" stroke="#1B1B1A" stroke-linejoin="round" stroke-miterlimit="10" points="1063.959,84.608 
			1067.888,88.008 1063.959,91.409 		"/>
		<polygon fill="#1B1B1A" stroke="#1B1B1A" stroke-linejoin="round" stroke-miterlimit="10" points="1063.959,207.982 
			1067.888,211.382 1063.959,214.783 		"/>
		<polygon fill="#1B1B1A" stroke="#1B1B1A" stroke-linejoin="round" stroke-miterlimit="10" points="1063.959,287.816 
			1067.888,291.217 1063.959,294.618 		"/>
		<polygon fill="#1B1B1A" stroke="#1B1B1A" stroke-linejoin="round" stroke-miterlimit="10" points="1063.959,341.805 
			1067.888,345.206 1063.959,348.607 		"/>
		<polygon fill="#1B1B1A" stroke="#1B1B1A" stroke-linejoin="round" stroke-miterlimit="10" points="1063.959,389.746 
			1067.888,393.147 1063.959,396.548 		"/>
		<polygon fill="#1B1B1A" stroke="#1B1B1A" stroke-linejoin="round" stroke-miterlimit="10" points="1063.959,437.688 
			1067.888,441.088 1063.959,444.489 		"/>
		<polygon fill="#1B1B1A" stroke="#1B1B1A" stroke-linejoin="round" stroke-miterlimit="10" points="1063.959,479.305 
			1067.888,482.706 1063.959,486.107 		"/>
		<polygon fill="#1B1B1A" stroke="#1B1B1A" stroke-linejoin="round" stroke-miterlimit="10" points="1063.959,508.276 
			1067.888,511.677 1063.959,515.077 		"/>
	</g>
	<g id="Barre" display="inline">
		<rect x="1054.32" y="18" fill="#1B1B1A" width="10" height="139.118">
		<title>a_Expert
11</title>
		</rect>
		<rect x="1054.32" y="167.118" fill="#1B1B1A" width="10" height="88.529">
		<title>b_MD
7</title>
		</rect>
		<rect x="1054.32" y="265.647" fill="#1B1B1A" width="10" height="50.588">
		<title>c_Journalist
4</title>
		</rect>
		<rect x="1054.32" y="326.235" fill="#1B1B1A" width="10" height="37.941">
		<title>d_Academics
3</title>
		</rect>
		<rect x="1054.32" y="374.177" fill="#1B1B1A" width="10" height="37.941">
		<title>e_Organization
3</title>
		</rect>
		<rect x="1054.32" y="422.118" fill="#1B1B1A" width="10" height="37.941">
		<title>f_Undefined
3</title>
		</rect>
		<rect x="1054.32" y="470.059" fill="#1B1B1A" width="10" height="25.294">
		<title>g_Writer
2</title>
		</rect>
		<rect x="1054.32" y="505.353" fill="#1B1B1A" width="10" height="12.647">
		<title>h_Industry
1</title>
		</rect>
		<rect x="114.32" y="38" fill="#1B1B1A" width="10" height="177.059">
		<title>a_Pro
14</title>
		</rect>
		<rect x="114.32" y="225.059" fill="#1B1B1A" width="10" height="88.529">
		<title>b_Pro*
7</title>
		</rect>
		<rect x="114.32" y="323.588" fill="#1B1B1A" width="10" height="75.882">
		<title>c_Neutral
6</title>
		</rect>
		<rect x="114.32" y="409.471" fill="#1B1B1A" width="10" height="88.529">
		<title>d_Cons
7</title>
		</rect>
	</g>
</g>
<g id="Diseases" display="none">
	<g id="Barre_1_" display="inline">
		<rect x="1053.32" y="19" fill="#1B1B1A" width="10" height="110.526">
		<title>a_Academics
14</title>
		</rect>
		<rect x="1053.32" y="139.526" fill="#1B1B1A" width="10" height="102.632">
		<title>b_Expert
13</title>
		</rect>
		<rect x="1053.32" y="252.158" fill="#1B1B1A" width="10" height="71.053">
		<title>c_MD
9</title>
		</rect>
		<rect x="1053.32" y="333.211" fill="#1B1B1A" width="10" height="71.053">
		<title>d_Undefined
9</title>
		</rect>
		<rect x="1053.32" y="414.263" fill="#1B1B1A" width="10" height="55.263">
		<title>e_Writer
7</title>
		</rect>
		<rect x="1053.32" y="479.526" fill="#1B1B1A" width="10" height="39.474">
		<title>f_Journalist
5</title>
		</rect>
		<rect x="113.32" y="24" fill="#1B1B1A" width="10" height="63.158">
		<title>a_Pro
8</title>
		</rect>
		<rect x="113.32" y="97.158" fill="#1B1B1A" width="10" height="102.632">
		<title>b_Pro*
13</title>
		</rect>
		<rect x="113.32" y="209.79" fill="#1B1B1A" width="10" height="142.105">
		<title>c_Neutral
18</title>
		</rect>
		<rect x="113.32" y="361.895" fill="#1B1B1A" width="10" height="31.579">
		<title>d_Cons*
4</title>
		</rect>
		<rect x="113.32" y="403.474" fill="#1B1B1A" width="10" height="110.526">
		<title>e_Cons
14</title>
		</rect>
	</g>
	<g id="Livello_8" display="inline">
		<g id="Cons_1_">
			<path fill="none" stroke="#AF1922" stroke-width="31.5789" stroke-opacity="0.4" d="M123.32,442.947
				c465,0,465-135.526,930-135.526"/>
			<path fill="none" stroke="#AF1922" stroke-width="31.5789" stroke-opacity="0.4" d="M123.32,474.526c465,0,465-86.053,930-86.053
				"/>
			<path fill="none" stroke="#AF1922" stroke-width="15.7895" stroke-opacity="0.4" d="M123.32,498.211c465,0,465-36.579,930-36.579
				"/>
			<path fill="none" stroke="#AF1922" stroke-width="15.7895" stroke-opacity="0.4" d="M123.32,419.263c465,0,465-185,930-185"/>
			<path fill="none" stroke="#AF1922" stroke-width="7.8947" stroke-opacity="0.4" d="M123.32,510.053c465,0,465,5,930,5"/>
			<path fill="none" stroke="#AF1922" stroke-width="7.8947" stroke-opacity="0.4" d="M123.32,407.421
				c465,0,465-281.842,930-281.842"/>
		</g>
		<g id="Neutral_1_">
			<path fill="none" stroke="#F6A000" stroke-width="55.2632" stroke-opacity="0.4" d="M123.32,237.421
				c465,0,465-143.421,930-143.421"/>
			<path fill="none" stroke="#F6A000" stroke-width="39.4737" stroke-opacity="0.4" d="M123.32,284.789c465,0,465-78.158,930-78.158
				"/>
			<path fill="none" stroke="#F6A000" stroke-width="15.7895" stroke-opacity="0.4" d="M123.32,344c465,0,465,151.316,930,151.316"
				/>
			<path fill="none" stroke="#F6A000" stroke-width="15.7895" stroke-opacity="0.4" d="M123.32,328.211
				c465,0,465,117.632,930,117.632"/>
			<path fill="none" stroke="#F6A000" stroke-width="7.8947" stroke-opacity="0.4" d="M123.32,316.368c465,0,465,36.579,930,36.579"
				/>
			<path fill="none" stroke="#F6A000" stroke-width="7.8947" stroke-opacity="0.4" d="M123.32,308.474c465,0,465-28.684,930-28.684"
				/>
		</g>
		<g id="Cons_x2A_">
			<path fill="none" stroke="#F08575" stroke-width="15.7895" stroke-opacity="0.4" d="M123.32,377.684c465,0,465-12.895,930-12.895
				"/>
			<path fill="none" stroke="#F08575" stroke-width="7.8947" stroke-opacity="0.4" d="M123.32,365.842c465,0,465-78.158,930-78.158"
				/>
			<path fill="none" stroke="#F08575" stroke-width="7.8947" stroke-opacity="0.4" d="M123.32,389.526
				c465,0,465,117.632,930,117.632"/>
		</g>
		<g id="Pro_x2A__1_">
			<path fill="none" stroke="#A7C8AF" stroke-width="47.3684" stroke-opacity="0.4" d="M123.32,136.632c465,0,465,26.579,930,26.579
				"/>
			<path fill="none" stroke="#A7C8AF" stroke-width="15.7895" stroke-opacity="0.4" d="M123.32,184c465,0,465,246.053,930,246.053"
				/>
			<path fill="none" stroke="#A7C8AF" stroke-width="15.7895" stroke-opacity="0.4" d="M123.32,105.053c465,0,465-46.579,930-46.579
				"/>
			<path fill="none" stroke="#A7C8AF" stroke-width="7.8947" stroke-opacity="0.4" d="M123.32,164.263
				c465,0,465,107.632,930,107.632"/>
			<path fill="none" stroke="#A7C8AF" stroke-width="7.8947" stroke-opacity="0.4" d="M123.32,172.158
				c465,0,465,172.895,930,172.895"/>
			<path fill="none" stroke="#A7C8AF" stroke-width="7.8947" stroke-opacity="0.4" d="M123.32,195.842
				c465,0,465,287.632,930,287.632"/>
		</g>
		<g id="Pro_1_">
			<path fill="none" stroke="#1F8E6C" stroke-width="31.5789" stroke-opacity="0.4" d="M123.32,39.789c465,0,465-5,930-5"/>
			<path fill="none" stroke="#1F8E6C" stroke-width="15.7895" stroke-opacity="0.4" d="M123.32,63.474
				c465,0,465,196.579,930,196.579"/>
			<path fill="none" stroke="#1F8E6C" stroke-width="7.8947" stroke-opacity="0.4" d="M123.32,83.211c465,0,465,335,930,335"/>
			<path fill="none" stroke="#1F8E6C" stroke-width="7.8947" stroke-opacity="0.4" d="M123.32,75.316c465,0,465,261.842,930,261.842
				"/>
		</g>
	</g>
	<g id="Nomi_1_" display="inline">
		<polygon fill="#1B1B1A" stroke="#1B1B1A" stroke-linejoin="round" stroke-miterlimit="10" points="114.32,58.979 110.391,55.579 
			114.32,52.178 		"/>
		<polygon fill="#1B1B1A" stroke="#1B1B1A" stroke-linejoin="round" stroke-miterlimit="10" points="114.32,284.242 
			110.391,280.842 114.32,277.441 		"/>
		<polygon fill="#1B1B1A" stroke="#1B1B1A" stroke-linejoin="round" stroke-miterlimit="10" points="114.32,462.137 
			110.391,458.737 114.32,455.336 		"/>
		<polygon fill="#1B1B1A" stroke="#1B1B1A" stroke-linejoin="round" stroke-miterlimit="10" points="114.32,151.874 
			110.391,148.473 114.32,145.073 		"/>
		<polygon fill="#1B1B1A" stroke="#1B1B1A" stroke-linejoin="round" stroke-miterlimit="10" points="114.32,381.085 
			110.391,377.684 114.32,374.283 		"/>
		<polygon fill="#1B1B1A" stroke="#1B1B1A" stroke-linejoin="round" stroke-miterlimit="10" points="1063.037,70.863 
			1066.966,74.263 1063.037,77.664 		"/>
		<polygon fill="#1B1B1A" stroke="#1B1B1A" stroke-linejoin="round" stroke-miterlimit="10" points="1063.037,187.441 
			1066.966,190.842 1063.037,194.243 		"/>
		<polygon fill="#1B1B1A" stroke="#1B1B1A" stroke-linejoin="round" stroke-miterlimit="10" points="1063.037,284.284 
			1066.966,287.684 1063.037,291.085 		"/>
		<polygon fill="#1B1B1A" stroke="#1B1B1A" stroke-linejoin="round" stroke-miterlimit="10" points="1063.037,365.336 
			1066.966,368.737 1063.037,372.138 		"/>
		<polygon fill="#1B1B1A" stroke="#1B1B1A" stroke-linejoin="round" stroke-miterlimit="10" points="1063.037,438.494 
			1066.966,441.895 1063.037,445.295 		"/>
		<polygon fill="#1B1B1A" stroke="#1B1B1A" stroke-linejoin="round" stroke-miterlimit="10" points="1063.037,495.863 
			1066.966,499.263 1063.037,502.664 		"/>
	</g>
	<g display="inline">
		<line fill="none" stroke="#BCA695" stroke-miterlimit="10" x1="1053.345" y1="528.921" x2="1063.363" y2="538.94"/>
		<line fill="none" stroke="#BCA695" stroke-miterlimit="10" x1="1053.345" y1="538.94" x2="1063.363" y2="528.921"/>
	</g>
	<g display="inline">
		<circle fill="#1B1B1A" cx="1058.07" cy="533.931" r="1.417"/>
	</g>
</g>
<g id="Intolerance" display="none">
	<g id="Nomi_2_" display="inline">
		<polygon fill="#1B1B1A" stroke="#1B1B1A" stroke-linejoin="round" stroke-miterlimit="10" points="114.32,101.577 110.391,98.176 
			114.32,94.776 		"/>
		<polygon fill="#1B1B1A" stroke="#1B1B1A" stroke-linejoin="round" stroke-miterlimit="10" points="114.32,274.812 
			110.391,271.411 114.32,268.011 		"/>
		<polygon fill="#1B1B1A" stroke="#1B1B1A" stroke-linejoin="round" stroke-miterlimit="10" points="114.32,443.636 
			110.391,440.235 114.32,436.834 		"/>
		<polygon fill="#1B1B1A" stroke="#1B1B1A" stroke-linejoin="round" stroke-miterlimit="10" points="1063.037,88.599 1066.966,92 
			1063.037,95.401 		"/>
		<polygon fill="#1B1B1A" stroke="#1B1B1A" stroke-linejoin="round" stroke-miterlimit="10" points="1063.037,230.952 
			1066.966,234.353 1063.037,237.754 		"/>
		<polygon fill="#1B1B1A" stroke="#1B1B1A" stroke-linejoin="round" stroke-miterlimit="10" points="1063.037,351.246 
			1066.966,354.647 1063.037,358.048 		"/>
		<polygon fill="#1B1B1A" stroke="#1B1B1A" stroke-linejoin="round" stroke-miterlimit="10" points="1063.037,436.246 
			1066.966,439.647 1063.037,443.048 		"/>
		<polygon fill="#1B1B1A" stroke="#1B1B1A" stroke-linejoin="round" stroke-miterlimit="10" points="1063.037,509.188 
			1066.966,512.588 1063.037,515.989 		"/>
		<polygon fill="#1B1B1A" stroke="#1B1B1A" stroke-linejoin="round" stroke-miterlimit="10" points="1063.037,481.541 
			1066.966,484.941 1063.037,488.342 		"/>
	</g>
	<g display="inline">
		<g id="Pro_2_">
			<path fill="none" stroke="#1F8E6C" stroke-width="35.2941" stroke-opacity="0.4" d="M123.32,84.941
				c465,0,465,109.706,930,109.706"/>
			<path fill="none" stroke="#1F8E6C" stroke-width="35.2941" stroke-opacity="0.4" d="M123.32,49.647c465,0,465-15,930-15"/>
			<path fill="none" stroke="#1F8E6C" stroke-width="26.4706" stroke-opacity="0.4" d="M123.32,115.824
				c465,0,465,199.118,930,199.118"/>
			<path fill="none" stroke="#1F8E6C" stroke-width="26.4706" stroke-opacity="0.4" d="M123.32,142.294
				c465,0,465,288.529,930,288.529"/>
			<path fill="none" stroke="#1F8E6C" stroke-width="8.8235" stroke-opacity="0.4" d="M123.32,159.941
				c465,0,465,316.176,930,316.176"/>
		</g>
		<g id="Neutral_2_">
			<path fill="none" stroke="#F6A000" stroke-width="70.5882" stroke-opacity="0.4" d="M123.32,209.647
				c465,0,465-122.059,930-122.059"/>
			<path fill="none" stroke="#F6A000" stroke-width="52.9412" stroke-opacity="0.4" d="M123.32,306.706c465,0,465,47.941,930,47.941
				"/>
			<path fill="none" stroke="#F6A000" stroke-width="35.2941" stroke-opacity="0.4" d="M123.32,262.588c465,0,465-32.647,930-32.647
				"/>
			<path fill="none" stroke="#F6A000" stroke-width="17.6471" stroke-opacity="0.4" d="M123.32,350.824
				c465,0,465,138.529,930,138.529"/>
			<path fill="none" stroke="#F6A000" stroke-width="8.8235" stroke-opacity="0.4" d="M123.32,364.059
				c465,0,465,148.529,930,148.529"/>
			<path fill="none" stroke="#F6A000" stroke-width="8.8235" stroke-opacity="0.4" d="M123.32,337.588
				c465,0,465,110.882,930,110.882"/>
		</g>
		<g id="Cons_2_">
			<path fill="none" stroke="#AF1922" stroke-width="44.1176" stroke-opacity="0.4" d="M123.32,400.529
				c465,0,465-255.588,930-255.588"/>
			<path fill="none" stroke="#AF1922" stroke-width="44.1176" stroke-opacity="0.4" d="M123.32,444.647c465,0,465-175,930-175"/>
			<path fill="none" stroke="#AF1922" stroke-width="26.4706" stroke-opacity="0.4" d="M123.32,479.941c465,0,465-85.588,930-85.588
				"/>
			<path fill="none" stroke="#AF1922" stroke-width="8.8235" stroke-opacity="0.4" d="M123.32,497.588c465,0,465-40.294,930-40.294"
				/>
		</g>
	</g>
	<g id="Barre_2_" display="inline">
		<g>
			<rect x="1053.32" y="17" fill="#1B1B1A" width="10" height="150">
			<title>a_Writer
17</title>
			</rect>
			<rect x="1053.32" y="177" fill="#1B1B1A" width="10" height="114.706">
			<title>b_Expert
13</title>
			</rect>
			<rect x="1053.32" y="301.706" fill="#1B1B1A" width="10" height="105.882">
			<title>c_Undefined
12</title>
			</rect>
			<rect x="1053.32" y="417.588" fill="#1B1B1A" width="10" height="44.118">
			<title>d_Journalist
5</title>
			</rect>
			<rect x="1053.32" y="471.706" fill="#1B1B1A" width="10" height="26.471">
			<title>e_MD
3</title>
			</rect>
			<rect x="1053.32" y="508.177" fill="#1B1B1A" width="10" height="8.824">
			<title>f_Organization
1</title>
			</rect>
		</g>
		<g>
			<rect x="113.32" y="32" fill="#1B1B1A" width="10" height="132.353">
			<title>a_Pro
15</title>
			</rect>
			<g>
				<rect x="113.32" y="174.353" fill="#1B1B1A" width="10" height="194.118">
				<title>b_Neutral
22</title>
				</rect>
				<rect x="113.32" y="378.471" fill="#1B1B1A" width="10" height="123.529">
				<title>c_Cons
14</title>
				</rect>
			</g>
		</g>
	</g>
	<g display="inline">
		<line fill="none" stroke="#BCA695" stroke-miterlimit="10" x1="1053.345" y1="530.516" x2="1063.363" y2="540.535"/>
		<line fill="none" stroke="#BCA695" stroke-miterlimit="10" x1="1053.345" y1="540.535" x2="1063.363" y2="530.516"/>
	</g>
	<g display="inline">
		<circle fill="#1B1B1A" cx="1058.071" cy="535.525" r="1.417"/>
	</g>
</g>
<g id="Hormones" display="none">
	<g display="inline">
		<g id="Neutral_3_">
			<path fill="none" stroke="#F6A000" stroke-width="27.7419" stroke-opacity="0.4" d="M124.32,161.968
				c465,0,465-104.355,930-104.355"/>
			<path fill="none" stroke="#F6A000" stroke-width="6.9355" stroke-opacity="0.4" d="M124.32,179.306
				c465,0,465,278.548,930,278.548"/>
		</g>
		<g id="Cons_3_">
			<path fill="none" stroke="#AF1922" stroke-width="152.581" stroke-opacity="0.4" d="M124.32,320.677
				c465,0,465-172.903,930-172.903"/>
			<path fill="none" stroke="#AF1922" stroke-width="27.7419" stroke-opacity="0.4" d="M124.32,410.839
				c465,0,465-128.226,930-128.226"/>
			<path fill="none" stroke="#AF1922" stroke-width="20.8065" stroke-opacity="0.4" d="M124.32,455.919c465,0,465-59.677,930-59.677
				"/>
			<path fill="none" stroke="#AF1922" stroke-width="20.8065" stroke-opacity="0.4" d="M124.32,435.113c465,0,465-83.548,930-83.548
				"/>
			<path fill="none" stroke="#AF1922" stroke-width="20.8065" stroke-opacity="0.4" d="M124.32,476.726c465,0,465-42.742,930-42.742
				"/>
			<path fill="none" stroke="#AF1922" stroke-width="6.9355" stroke-opacity="0.4" d="M124.32,490.597c465,0,465-11.935,930-11.935"
				/>
			<path fill="none" stroke="#AF1922" stroke-width="6.9355" stroke-opacity="0.4" d="M124.32,497.532c465,0,465-1.935,930-1.935"/>
		</g>
		<g id="Cons_x2A__1_">
			<path fill="none" stroke="#F08575" stroke-width="13.871" stroke-opacity="0.4" d="M124.32,220.516
				c465,0,465,247.742,930,247.742"/>
			<path fill="none" stroke="#F08575" stroke-width="6.9355" stroke-opacity="0.4" d="M124.32,196.242c465,0,465,69.032,930,69.032"
				/>
			<path fill="none" stroke="#F08575" stroke-width="6.9355" stroke-opacity="0.4" d="M124.32,210.113c465,0,465,210,930,210"/>
			<path fill="none" stroke="#F08575" stroke-width="6.9355" stroke-opacity="0.4" d="M124.32,230.919
				c465,0,465,281.613,930,281.613"/>
			<path fill="none" stroke="#F08575" stroke-width="6.9355" stroke-opacity="0.4" d="M124.32,203.177
				c465,0,465,179.194,930,179.194"/>
		</g>
		<g id="Pro_3_">
			<path fill="none" stroke="#1F8E6C" stroke-width="27.7419" stroke-opacity="0.4" d="M124.32,65.677
				c465,0,465,182.258,930,182.258"/>
			<path fill="none" stroke="#1F8E6C" stroke-width="27.7419" stroke-opacity="0.4" d="M124.32,93.419
				c465,0,465,226.935,930,226.935"/>
			<path fill="none" stroke="#1F8E6C" stroke-width="20.8065" stroke-opacity="0.4" d="M124.32,41.403c465,0,465-15,930-15"/>
			<path fill="none" stroke="#1F8E6C" stroke-width="6.9355" stroke-opacity="0.4" d="M124.32,110.758
				c465,0,465,264.677,930,264.677"/>
		</g>
		<g id="Pro_x2A__2_">
			<path fill="none" stroke="#A7C8AF" stroke-width="6.9355" stroke-opacity="0.4" d="M124.32,127.694c465,0,465-87.419,930-87.419"
				/>
			<path fill="none" stroke="#A7C8AF" stroke-width="6.9355" stroke-opacity="0.4" d="M124.32,134.629
				c465,0,465,203.065,930,203.065"/>
		</g>
	</g>
	<g id="Barre_3_" display="inline">
		<rect x="1054.32" y="16" fill="#1B1B1A" width="10" height="208.065">
		<title>a_Writer
30</title>
		</rect>
		<rect x="1054.32" y="234.065" fill="#1B1B1A" width="10" height="62.419">
		<title>b_Organization
9</title>
		</rect>
		<rect x="1054.32" y="306.484" fill="#1B1B1A" width="10" height="55.484">
		<title>c_Industry
8</title>
		</rect>
		<rect x="1054.32" y="371.968" fill="#1B1B1A" width="10" height="34.677">
		<title>d_MD
5</title>
		</rect>
		<rect x="1054.32" y="416.645" fill="#1B1B1A" width="10" height="27.742">
		<title>e_Expert
4</title>
		</rect>
		<rect x="1054.32" y="454.387" fill="#1B1B1A" width="10" height="27.742">
		<title>f_Journalist
4</title>
		</rect>
		<rect x="1054.32" y="492.129" fill="#1B1B1A" width="10" height="6.935">
		<title>g_Academics
1</title>
		</rect>
		<rect x="1054.32" y="509.065" fill="#1B1B1A" width="10" height="6.935">
		<title>h_Undefined
1</title>
		</rect>
		<rect x="114.32" y="31" fill="#1B1B1A" width="10" height="83.226">
		<title>a_Pro
12</title>
		</rect>
		<rect x="114.32" y="124.226" fill="#1B1B1A" width="10" height="13.871">
		<title>b_Pro*
2</title>
		</rect>
		<rect x="114.32" y="148.097" fill="#1B1B1A" width="10" height="34.677">
		<title>c_Neutral
5</title>
		</rect>
		<rect x="114.32" y="192.774" fill="#1B1B1A" width="10" height="41.613">
		<title>d_Cons*
6</title>
		</rect>
		<rect x="114.32" y="244.387" fill="#1B1B1A" width="10" height="256.613">
		<title>e_Cons
37</title>
		</rect>
	</g>
	<g display="inline">
		<polygon fill="#1B1B1A" stroke="#1B1B1A" stroke-linejoin="round" stroke-miterlimit="10" points="114.32,76.013 110.391,72.613 
			114.32,69.212 		"/>
		<polygon fill="#1B1B1A" stroke="#1B1B1A" stroke-linejoin="round" stroke-miterlimit="10" points="114.32,376.094 
			110.391,372.693 114.32,369.293 		"/>
		<polygon fill="#1B1B1A" stroke="#1B1B1A" stroke-linejoin="round" stroke-miterlimit="10" points="114.32,168.836 
			110.391,165.435 114.32,162.035 		"/>
		<polygon fill="#1B1B1A" stroke="#1B1B1A" stroke-linejoin="round" stroke-miterlimit="10" points="114.32,134.562 
			110.391,131.161 114.32,127.761 		"/>
		<polygon fill="#1B1B1A" stroke="#1B1B1A" stroke-linejoin="round" stroke-miterlimit="10" points="1063.037,116.632 
			1066.966,120.032 1063.037,123.433 		"/>
		<polygon fill="#1B1B1A" stroke="#1B1B1A" stroke-linejoin="round" stroke-miterlimit="10" points="1063.037,261.874 
			1066.966,265.274 1063.037,268.675 		"/>
		<polygon fill="#1B1B1A" stroke="#1B1B1A" stroke-linejoin="round" stroke-miterlimit="10" points="1063.037,330.825 
			1066.966,334.226 1063.037,337.626 		"/>
		<polygon fill="#1B1B1A" stroke="#1B1B1A" stroke-linejoin="round" stroke-miterlimit="10" points="1063.037,427.116 
			1066.966,430.516 1063.037,433.917 		"/>
		<polygon fill="#1B1B1A" stroke="#1B1B1A" stroke-linejoin="round" stroke-miterlimit="10" points="1063.037,464.857 
			1066.966,468.258 1063.037,471.659 		"/>
		<polygon fill="#1B1B1A" stroke="#1B1B1A" stroke-linejoin="round" stroke-miterlimit="10" points="1063.037,492.639 
			1066.966,495.597 1063.037,498.555 		"/>
		<polygon fill="#1B1B1A" stroke="#1B1B1A" stroke-linejoin="round" stroke-miterlimit="10" points="1063.037,509.574 
			1066.966,512.532 1063.037,515.49 		"/>
		<polygon fill="#1B1B1A" stroke="#1B1B1A" stroke-linejoin="round" stroke-miterlimit="10" points="1063.037,385.906 
			1066.966,389.306 1063.037,392.707 		"/>
		<polygon fill="#1B1B1A" stroke="#1B1B1A" stroke-linejoin="round" stroke-miterlimit="10" points="114.32,216.981 
			110.391,213.581 114.32,210.18 		"/>
	</g>
</g>
<g>
	<g>
		<polygon fill="#1B1B1A" points="539.141,250.049 538.731,249.694 539.141,249.339 		"/>
		<path fill="#1B1B1A" d="M539.141,250.102c-0.012,0-0.024-0.004-0.034-0.013l-0.41-0.355c-0.011-0.01-0.018-0.024-0.018-0.039
			s0.007-0.03,0.018-0.039l0.41-0.355c0.016-0.013,0.037-0.016,0.056-0.008c0.019,0.008,0.031,0.027,0.031,0.047v0.71
			c0,0.02-0.012,0.039-0.031,0.047C539.156,250.1,539.148,250.102,539.141,250.102z M538.811,249.694l0.278,0.241v-0.482
			L538.811,249.694z"/>
	</g>
	<g>
		<polygon fill="#1B1B1A" points="539.141,284.437 538.731,284.082 539.141,283.726 		"/>
		<path fill="#1B1B1A" d="M539.141,284.489c-0.012,0-0.024-0.004-0.034-0.013l-0.41-0.355c-0.011-0.01-0.018-0.024-0.018-0.039
			s0.007-0.03,0.018-0.039l0.41-0.355c0.016-0.013,0.037-0.016,0.056-0.008c0.019,0.009,0.031,0.027,0.031,0.048v0.71
			c0,0.02-0.012,0.039-0.031,0.048C539.156,284.487,539.148,284.489,539.141,284.489z M538.811,284.082l0.278,0.241v-0.482
			L538.811,284.082z"/>
	</g>
	<g>
		<polygon fill="#1B1B1A" points="539.141,265.565 538.731,265.21 539.141,264.854 		"/>
		<path fill="#1B1B1A" d="M539.141,265.617c-0.012,0-0.024-0.004-0.034-0.013l-0.41-0.355c-0.011-0.01-0.018-0.024-0.018-0.039
			s0.007-0.03,0.018-0.039l0.41-0.355c0.016-0.013,0.037-0.017,0.056-0.008c0.019,0.008,0.031,0.027,0.031,0.047v0.71
			c0,0.02-0.012,0.039-0.031,0.047C539.156,265.615,539.148,265.617,539.141,265.617z M538.811,265.21l0.278,0.241v-0.482
			L538.811,265.21z"/>
	</g>
	<g>
		<polygon fill="#1B1B1A" points="539.141,258.366 538.731,258.011 539.141,257.656 		"/>
		<path fill="#1B1B1A" d="M539.141,258.419c-0.012,0-0.024-0.004-0.034-0.013l-0.41-0.355c-0.011-0.01-0.018-0.024-0.018-0.039
			s0.007-0.03,0.018-0.039l0.41-0.355c0.016-0.013,0.037-0.016,0.056-0.008c0.019,0.008,0.031,0.027,0.031,0.047v0.71
			c0,0.02-0.012,0.039-0.031,0.047C539.156,258.417,539.148,258.419,539.141,258.419z M538.811,258.011l0.278,0.241v-0.482
			L538.811,258.011z"/>
	</g>
	<g>
		<polygon fill="#1B1B1A" points="638.216,253.852 638.626,254.207 638.216,254.562 		"/>
		<path fill="#1B1B1A" d="M638.216,254.614c-0.007,0-0.015-0.002-0.022-0.005c-0.019-0.008-0.031-0.027-0.031-0.047v-0.71
			c0-0.02,0.012-0.039,0.031-0.047c0.019-0.009,0.04-0.005,0.056,0.008l0.41,0.355c0.011,0.01,0.018,0.024,0.018,0.039
			s-0.007,0.03-0.018,0.039l-0.41,0.355C638.241,254.61,638.228,254.614,638.216,254.614z M638.268,253.966v0.482l0.278-0.241
			L638.268,253.966z"/>
	</g>
	<g>
		<polygon fill="#1B1B1A" points="638.216,272.799 638.626,273.154 638.216,273.509 		"/>
		<path fill="#1B1B1A" d="M638.216,273.561c-0.007,0-0.015-0.002-0.022-0.005c-0.019-0.009-0.031-0.027-0.031-0.048v-0.71
			c0-0.02,0.012-0.039,0.031-0.047c0.019-0.009,0.04-0.005,0.056,0.008l0.41,0.355c0.011,0.01,0.018,0.024,0.018,0.039
			s-0.007,0.03-0.018,0.039l-0.41,0.355C638.241,273.557,638.228,273.561,638.216,273.561z M638.268,272.913v0.482l0.278-0.241
			L638.268,272.913z"/>
	</g>
	<g>
		<polygon fill="#1B1B1A" points="638.216,285.591 638.626,285.946 638.216,286.302 		"/>
		<path fill="#1B1B1A" d="M638.216,286.354c-0.007,0-0.015-0.002-0.022-0.005c-0.019-0.009-0.031-0.027-0.031-0.048v-0.71
			c0-0.02,0.012-0.039,0.031-0.048c0.019-0.008,0.04-0.005,0.056,0.008l0.41,0.355c0.011,0.01,0.018,0.024,0.018,0.039
			s-0.007,0.03-0.018,0.039l-0.41,0.355C638.241,286.349,638.228,286.354,638.216,286.354z M638.268,285.706v0.482l0.278-0.241
			L638.268,285.706z"/>
	</g>
	<g>
		<polygon fill="#1B1B1A" points="638.216,291.111 638.626,291.466 638.216,291.822 		"/>
		<path fill="#1B1B1A" d="M638.216,291.874c-0.007,0-0.015-0.002-0.022-0.005c-0.019-0.009-0.031-0.027-0.031-0.048v-0.71
			c0-0.02,0.012-0.039,0.031-0.048c0.019-0.008,0.04-0.005,0.056,0.008l0.41,0.355c0.011,0.01,0.018,0.024,0.018,0.039
			s-0.007,0.03-0.018,0.039l-0.41,0.355C638.241,291.869,638.228,291.874,638.216,291.874z M638.268,291.226v0.482l0.278-0.241
			L638.268,291.226z"/>
	</g>
	<g>
		<polygon fill="#1B1B1A" points="638.216,293.274 638.626,293.63 638.216,293.985 		"/>
		<path fill="#1B1B1A" d="M638.216,294.037c-0.007,0-0.015-0.002-0.022-0.005c-0.019-0.009-0.031-0.027-0.031-0.048v-0.71
			c0-0.02,0.012-0.039,0.031-0.048c0.019-0.008,0.04-0.005,0.056,0.008l0.41,0.355c0.011,0.01,0.018,0.024,0.018,0.039
			s-0.007,0.03-0.018,0.039l-0.41,0.355C638.241,294.033,638.228,294.037,638.216,294.037z M638.268,293.389v0.482l0.278-0.241
			L638.268,293.389z"/>
	</g>
	<g>
		<polygon fill="#1B1B1A" points="638.216,295.438 638.626,295.793 638.216,296.148 		"/>
		<path fill="#1B1B1A" d="M638.216,296.2c-0.007,0-0.015-0.002-0.022-0.005c-0.019-0.009-0.031-0.027-0.031-0.048v-0.71
			c0-0.02,0.012-0.039,0.031-0.048s0.04-0.005,0.056,0.008l0.41,0.355c0.011,0.01,0.018,0.024,0.018,0.039s-0.007,0.03-0.018,0.039
			l-0.41,0.355C638.241,296.196,638.228,296.2,638.216,296.2z M638.268,295.552v0.482l0.278-0.241L638.268,295.552z"/>
	</g>
	<g>
		<polygon fill="#1B1B1A" points="539.141,271.085 538.731,270.729 539.141,270.374 		"/>
		<path fill="#1B1B1A" d="M539.141,271.137c-0.012,0-0.024-0.004-0.034-0.013l-0.41-0.355c-0.011-0.01-0.018-0.024-0.018-0.039
			s0.007-0.03,0.018-0.039l0.41-0.355c0.016-0.013,0.037-0.016,0.056-0.008c0.019,0.008,0.031,0.027,0.031,0.047v0.71
			c0,0.02-0.012,0.039-0.031,0.047C539.156,271.135,539.148,271.137,539.141,271.137z M538.811,270.729l0.278,0.241v-0.482
			L538.811,270.729z"/>
	</g>
	<g>
		<g id="Pro_x2A__3_">
			<path opacity="0.4" fill="#A7C8AF" enable-background="new    " d="M540.185,259.13v-3.357c24.138,0,36.41-2.092,48.278-4.116
				c12.006-2.047,24.42-4.164,48.842-4.164v3.357c-24.138,0-36.41,2.092-48.278,4.116
				C577.022,257.013,564.608,259.13,540.185,259.13z"/>
			<path opacity="0.4" fill="#A7C8AF" enable-background="new    " d="M637.306,268.678c-24.328,0-36.696-2.147-48.656-4.223
				c-11.914-2.068-24.233-4.206-48.464-4.206v-1.119c24.328,0,36.696,2.147,48.656,4.223c11.914,2.068,24.233,4.206,48.464,4.206
				V268.678z"/>
		</g>
		<path opacity="0.4" fill="#F08575" enable-background="new    " d="M637.306,272.035c-24.284,0-36.63-0.19-48.569-0.373
			c-11.935-0.183-24.276-0.373-48.552-0.373v-1.119c24.284,0,36.63,0.19,48.569,0.373c11.935,0.183,24.276,0.373,48.552,0.373
			V272.035z"/>
		<g id="Neutral_4_">
			<path opacity="0.4" fill="#F6A000" enable-background="new    " d="M540.185,265.769v-4.476c24.042,0,36.267-2.629,48.09-5.172
				c12.051-2.592,24.513-5.272,49.031-5.272v4.476c-24.042,0-36.267,2.629-48.09,5.171
				C577.165,263.089,564.703,265.769,540.185,265.769z"/>
			<path opacity="0.4" fill="#F6A000" enable-background="new    " d="M637.306,270.916c-24.313,0-36.674-0.741-48.627-1.457
				c-11.92-0.714-24.247-1.453-48.493-1.453v-2.238c24.314,0,36.674,0.74,48.627,1.457c11.92,0.714,24.247,1.453,48.493,1.453
				V270.916z"/>
			<path opacity="0.4" fill="#F6A000" enable-background="new    " d="M637.306,286.506c-24.377,0-36.767-4.434-48.749-8.723
				c-5.951-2.13-12.105-4.333-19.656-5.954c-8.47-1.819-17.863-2.703-28.715-2.703v-1.119c24.377,0,36.767,4.434,48.749,8.723
				c5.951,2.13,12.105,4.333,19.656,5.954c8.47,1.819,17.863,2.703,28.715,2.703V286.506z"/>
		</g>
		<g id="Pro_4_">
			<path opacity="0.4" fill="#1F8E6C" enable-background="new    " d="M637.306,285.387c-24.78,0-37.336-8.216-49.479-16.162
				c-5.897-3.859-11.995-7.85-19.422-10.765c-8.31-3.263-17.541-4.849-28.219-4.849v-3.357c24.78,0,37.336,8.216,49.479,16.162
				c5.897,3.859,11.995,7.85,19.422,10.765c8.31,3.263,17.541,4.849,28.219,4.849V285.387z"/>
			<path opacity="0.4" fill="#1F8E6C" enable-background="new    " d="M540.185,248.016v-3.357c24.271,0,36.61-0.133,48.542-0.261
				c11.941-0.128,24.289-0.261,48.578-0.261v3.357c-24.271,0-36.61,0.133-48.542,0.261
				C576.822,247.883,564.475,248.016,540.185,248.016z"/>
			<path opacity="0.4" fill="#1F8E6C" enable-background="new    " d="M637.306,267.559c-24.474,0-36.909-4.432-48.936-8.718
				c-5.934-2.115-12.071-4.302-19.586-5.909c-8.432-1.803-17.786-2.679-28.599-2.679v-2.238c24.473,0,36.909,4.432,48.936,8.718
				c5.934,2.115,12.07,4.302,19.586,5.909c8.432,1.803,17.786,2.679,28.599,2.679V267.559z"/>
			<path opacity="0.4" fill="#1F8E6C" enable-background="new    " d="M637.306,296.352c-5.88,0-11.196-0.59-16.254-1.804
				c-4.511-1.083-8.71-2.64-12.834-4.762c-7.646-3.932-13.843-9.244-19.836-14.381c-5.944-5.095-12.09-10.363-19.619-14.235
				c-4.044-2.08-8.16-3.607-12.584-4.669c-4.971-1.193-10.202-1.773-15.993-1.773v-1.119c5.88,0,11.196,0.59,16.254,1.804
				c4.511,1.083,8.71,2.64,12.834,4.762c7.646,3.932,13.843,9.244,19.836,14.381c5.944,5.095,12.09,10.363,19.619,14.235
				c4.044,2.08,8.16,3.607,12.584,4.669c4.971,1.193,10.202,1.773,15.993,1.773V296.352z"/>
		</g>
		<g id="Cons_4_">
			<path opacity="0.4" fill="#AF1922" enable-background="new    " d="M540.185,281.284v-8.951c23.519,0,34.964-4.008,47.081-8.252
				c12.29-4.304,24.998-8.755,50.039-8.755v8.951c-23.519,0-34.964,4.008-47.081,8.252
				C577.935,276.833,565.227,281.284,540.185,281.284z"/>
			<path opacity="0.4" fill="#AF1922" enable-background="new    " d="M540.185,290.236v-8.951c23.858,0,35.45-2.208,47.723-4.546
				c12.141-2.313,24.695-4.704,49.398-4.704v8.951c-23.858,0-35.45,2.208-47.723,4.546
				C577.442,287.844,564.888,290.236,540.185,290.236z"/>
			<path opacity="0.4" fill="#AF1922" enable-background="new    " d="M540.185,293.592v-3.357c24.216,0,36.526-0.945,48.432-1.86
				c11.968-0.919,24.344-1.87,48.689-1.87v3.357c-24.216,0-36.526,0.945-48.432,1.86
				C576.906,292.642,564.53,293.592,540.185,293.592z"/>
			<path opacity="0.4" fill="#AF1922" enable-background="new    " d="M540.185,295.83v-1.119c24.271,0,36.609-0.417,48.541-0.82
				c11.941-0.404,24.289-0.821,48.579-0.821v1.119c-24.271,0-36.609,0.417-48.541,0.82
				C576.823,295.413,564.475,295.83,540.185,295.83z"/>
			<path opacity="0.4" fill="#AF1922" enable-background="new    " d="M540.185,294.711v-1.119c24.265,0,36.6-0.682,48.529-1.342
				c11.944-0.661,24.295-1.344,48.591-1.344v1.119c-24.265,0-36.6,0.682-48.529,1.342
				C576.832,294.028,564.481,294.711,540.185,294.711z"/>
		</g>
	</g>
	<g>
		<rect x="637.306" y="244.137" fill="#1B1B1A" width="1.044" height="20.14">
		<title>a_Expert
18</title>
		</rect>
		<rect x="637.306" y="265.321" fill="#1B1B1A" width="1.044" height="15.665">
		<title>b_Writer
14</title>
		</rect>
		<rect x="637.306" y="282.03" fill="#1B1B1A" width="1.044" height="7.832">
		<title>c_Undefined
7</title>
		</rect>
		<rect x="637.306" y="290.907" fill="#1B1B1A" width="1.044" height="1.119">
		<title>d_Journalist
1</title>
		</rect>
		<rect x="637.306" y="293.07" fill="#1B1B1A" width="1.044" height="1.119">
		<title>e_MD
1</title>
		</rect>
		<rect x="637.306" y="295.233" fill="#1B1B1A" width="1.044" height="1.119">
		<title>f_Organization
1</title>
		</rect>
		<rect x="539.141" y="244.659" fill="#1B1B1A" width="1.044" height="10.07">
		<title>a_Pro
9</title>
		</rect>
		<rect x="539.141" y="255.774" fill="#1B1B1A" width="1.044" height="4.476">
		<title>b_Pro*
4</title>
		</rect>
		<rect x="539.141" y="261.293" fill="#1B1B1A" width="1.044" height="7.832">
		<title>c_Neutral
7</title>
		</rect>
		<rect x="539.141" y="270.17" fill="#1B1B1A" width="1.044" height="1.119">
		<title>d_Cons*
1</title>
		</rect>
		<rect x="539.141" y="272.333" fill="#1B1B1A" width="1.044" height="23.497">
		<title>e_Cons
21</title>
		</rect>
	</g>
	<g>
		
			<rect x="636.956" y="298.036" transform="matrix(-0.707 -0.7072 0.7072 -0.707 877.7415 959.822)" fill="#BCA695" width="1.48" height="0.104"/>
		
			<rect x="637.672" y="297.339" transform="matrix(-0.7071 -0.7071 0.7071 -0.7071 877.8903 959.7911)" fill="#BCA695" width="0.104" height="1.48"/>
	</g>
	<g>
		<circle fill="#1B1B1A" cx="637.698" cy="298.085" r="0.148"/>
	</g>
	<g>
		
			<rect x="636.985" y="300.455" transform="matrix(-0.7071 -0.7071 0.7071 -0.7071 876.1745 963.9367)" fill="#BCA695" width="1.48" height="0.104"/>
		
			<rect x="637.672" y="299.767" transform="matrix(-0.7071 -0.7071 0.7071 -0.7071 876.1729 963.9374)" fill="#BCA695" width="0.104" height="1.48"/>
	</g>
	<g>
		<circle fill="#1B1B1A" cx="637.698" cy="300.514" r="0.148"/>
	</g>
</g>
<g>
	<path fill="#2C292A" d="M560.076,322.449c-0.479,0.517-1.295,0.78-2.135,0.78h-3.431v-8.504h3.395c0.792,0,1.607,0.265,2.075,0.78
		c0.336,0.371,0.552,0.803,0.552,1.415c0,0.815-0.433,1.595-1.224,1.883c0.875,0.288,1.415,1.151,1.415,2.051
		C560.723,321.538,560.448,322.053,560.076,322.449z M557.905,315.673h-2.351v2.674h2.387c0.888,0,1.499-0.396,1.499-1.343
		C559.44,316.117,558.72,315.673,557.905,315.673z M557.964,319.283h-2.41v2.963h2.387c0.936,0,1.69-0.456,1.69-1.464
		C559.631,319.834,558.864,319.283,557.964,319.283z"/>
	<path fill="#2C292A" d="M568.236,322.485c-0.611,0.6-1.439,0.912-2.291,0.912c-0.851,0-1.679-0.312-2.29-0.912
		c-0.924-0.899-1.092-2.146-1.092-3.502s0.168-2.603,1.092-3.502c0.611-0.6,1.439-0.911,2.29-0.911c0.852,0,1.68,0.312,2.291,0.911
		c0.924,0.899,1.092,2.146,1.092,3.502S569.16,321.585,568.236,322.485z M567.493,316.225c-0.408-0.42-0.972-0.636-1.548-0.636
		c-0.575,0-1.139,0.216-1.547,0.636c-0.695,0.719-0.731,1.87-0.731,2.758s0.036,2.039,0.731,2.759
		c0.408,0.42,0.972,0.636,1.547,0.636c0.576,0,1.14-0.216,1.548-0.636c0.695-0.72,0.731-1.871,0.731-2.759
		S568.188,316.944,567.493,316.225z"/>
	<path fill="#2C292A" d="M576.959,322.377c-0.6,0.575-1.403,0.852-2.23,0.852h-2.963v-8.504h2.963c0.827,0,1.631,0.288,2.23,0.864
		c0.936,0.887,1.092,2.158,1.092,3.382S577.883,321.49,576.959,322.377z M576.24,316.296c-0.396-0.396-0.959-0.588-1.511-0.588
		h-1.896v6.537h1.896c0.552,0,1.115-0.192,1.511-0.588c0.672-0.684,0.731-1.775,0.731-2.687S576.912,316.993,576.24,316.296z"/>
	<path fill="#2C292A" d="M582.805,319.775v3.454h-1.079v-3.454l-2.854-5.05h1.199l2.23,4.042l2.219-4.042h1.14L582.805,319.775z"/>
	<path fill="#2C292A" d="M595.847,323.229l-0.18-1.02c-0.42,0.695-1.355,1.188-2.314,1.188c-0.852,0-1.68-0.276-2.291-0.876
		c-0.863-0.84-1.104-2.015-1.104-3.538c0-1.355,0.18-2.603,1.104-3.502c0.611-0.6,1.439-0.911,2.291-0.911
		c0.959,0,1.847,0.336,2.435,0.959c0.407,0.432,0.695,0.972,0.731,1.655h-1.115c-0.036-0.396-0.168-0.672-0.384-0.936
		c-0.384-0.456-0.972-0.672-1.667-0.672c-0.576,0-1.14,0.229-1.548,0.648c-0.695,0.719-0.743,1.87-0.743,2.758
		c0,0.852,0.06,2.075,0.768,2.795c0.408,0.42,0.947,0.611,1.523,0.611c0.6,0,1.163-0.204,1.547-0.588
		c0.563-0.552,0.731-1.379,0.731-2.158h-2.278v-0.996h3.238v4.582h-0.744V323.229z"/>
	<path fill="#2C292A" d="M604.392,322.485c-0.612,0.6-1.439,0.912-2.291,0.912s-1.679-0.312-2.291-0.912
		c-0.923-0.899-1.091-2.146-1.091-3.502s0.168-2.603,1.091-3.502c0.612-0.6,1.439-0.911,2.291-0.911s1.679,0.312,2.291,0.911
		c0.923,0.899,1.091,2.146,1.091,3.502S605.315,321.585,604.392,322.485z M603.648,316.225c-0.407-0.42-0.972-0.636-1.547-0.636
		c-0.576,0-1.14,0.216-1.547,0.636c-0.696,0.719-0.731,1.87-0.731,2.758s0.035,2.039,0.731,2.759
		c0.407,0.42,0.971,0.636,1.547,0.636c0.575,0,1.14-0.216,1.547-0.636c0.696-0.72,0.731-1.871,0.731-2.759
		S604.344,316.944,603.648,316.225z"/>
	<path fill="#2C292A" d="M613.032,322.485c-0.612,0.6-1.439,0.912-2.291,0.912s-1.679-0.312-2.291-0.912
		c-0.923-0.899-1.091-2.146-1.091-3.502s0.168-2.603,1.091-3.502c0.612-0.6,1.439-0.911,2.291-0.911s1.679,0.312,2.291,0.911
		c0.923,0.899,1.091,2.146,1.091,3.502S613.955,321.585,613.032,322.485z M612.288,316.225c-0.407-0.42-0.972-0.636-1.547-0.636
		c-0.576,0-1.14,0.216-1.547,0.636c-0.696,0.719-0.731,1.87-0.731,2.758s0.035,2.039,0.731,2.759
		c0.407,0.42,0.971,0.636,1.547,0.636c0.575,0,1.14-0.216,1.547-0.636c0.696-0.72,0.731-1.871,0.731-2.759
		S612.984,316.944,612.288,316.225z"/>
	<path fill="#2C292A" d="M621.755,322.377c-0.6,0.575-1.403,0.852-2.23,0.852h-2.963v-8.504h2.963c0.827,0,1.631,0.288,2.23,0.864
		c0.936,0.887,1.092,2.158,1.092,3.382S622.679,321.49,621.755,322.377z M621.036,316.296c-0.396-0.396-0.959-0.588-1.511-0.588
		h-1.896v6.537h1.896c0.552,0,1.115-0.192,1.511-0.588c0.672-0.684,0.731-1.775,0.731-2.687S621.707,316.993,621.036,316.296z"/>
</g>
</svg>
