<?xml version="1.0" encoding="utf-8"?>
<!-- Generator: Adobe Illustrator 17.0.0, SVG Export Plug-In . SVG Version: 6.00 Build 0)  -->
<!DOCTYPE svg PUBLIC "-//W3C//DTD SVG 1.1//EN" "http://www.w3.org/Graphics/SVG/1.1/DTD/svg11.dtd">
<svg version="1.1" id="LEEGGENDA" xmlns="http://www.w3.org/2000/svg" xmlns:xlink="http://www.w3.org/1999/xlink" x="0px" y="0px"
	 width="212.5px" height="255.819px" viewBox="0 0 212.5 255.819" enable-background="new 0 0 212.5 255.819" xml:space="preserve">
<path opacity="0.7" fill="#E4DBD4" d="M211.043,255.819H1.457c-0.805,0-1.457-0.653-1.457-1.457V0h212.5v254.362
	C212.5,255.167,211.847,255.819,211.043,255.819z"/>
<g id="regram">
	<rect x="21.48" y="201.181" fill="#F39149" width="14.531" height="14.531"/>
	<g>
		<rect x="59.013" y="203.287" fill="none" width="120.619" height="10.317"/>
		<text transform="matrix(1 0 0 1 59.0128 211.9507)" fill="#262625" font-family="'AkkuratPro-Regular'" font-size="12">REGRAM</text>
	</g>
</g>
<g id="self-produced">
	<rect x="21.48" y="230.31" fill="#5A6C9E" width="14.531" height="14.531"/>
	<g>
		<rect x="59.011" y="235.061" fill="none" width="128.132" height="9.99"/>
		<text transform="matrix(1 0 0 1 59.0109 243.7241)" fill="#262625" font-family="'AkkuratPro-Regular'" font-size="12">SELF-PRODUCED</text>
	</g>
</g>
<g>
	<rect x="21.48" y="173.776" fill="none" width="158.409" height="13.42"/>
	<text transform="matrix(1 0 0 1 21.48 183.4459)" fill="#1E2122" font-family="'Merriweather-Bold'" font-size="12">SOURCE</text>
</g>
<rect id="XMLID_318_" x="21.48" y="61.088" fill="none" width="88.399" height="9.128"/>
<text id="XMLID_1001_" transform="matrix(1 0 0 1 21.4806 69.7522)" fill="#2C292A" font-family="'AkkuratPro-Regular'" font-size="12">FABRIC</text>
<rect id="XMLID_317_" x="21.48" y="85.641" fill="none" width="117.531" height="9.128"/>
<text id="XMLID_976_" transform="matrix(1 0 0 1 21.4801 94.305)" fill="#2C292A" font-family="'AkkuratPro-Regular'" font-size="12">POTTERY</text>
<rect id="XMLID_316_" x="21.48" y="110.195" fill="none" width="88.399" height="9.128"/>
<text id="XMLID_973_" transform="matrix(1 0 0 1 21.4806 118.8597)" fill="#2C292A" font-family="'AkkuratPro-Regular'" font-size="12">GLASS</text>
<rect id="XMLID_315_" x="21.48" y="137.067" fill="none" width="165.318" height="9.128"/>
<text id="XMLID_970_" transform="matrix(1 0 0 1 21.4801 145.7317)" fill="#2C292A" font-family="'AkkuratPro-Regular'" font-size="12">pLANTS AND FRUITS</text>
<rect id="XMLID_313_" x="21.48" y="36.534" fill="none" width="88.399" height="9.128"/>
<text id="XMLID_954_" transform="matrix(1 0 0 1 21.4806 45.1985)" fill="#2C292A" font-family="'AkkuratPro-Regular'" font-size="12">WOOD</text>
<rect id="XMLID_310_" x="21.48" y="11.98" fill="none" width="88.399" height="9.128"/>
<text id="XMLID_312_" transform="matrix(1 0 0 1 21.4806 20.6447)" fill="#2C292A" font-family="'AkkuratPro-Regular'" font-size="12">ALL</text>
</svg>
