<?xml version="1.0" encoding="utf-8"?>
<!-- Generator: Adobe Illustrator 19.0.0, SVG Export Plug-In . SVG Version: 6.00 Build 0)  -->
<svg version="1.1" xmlns="http://www.w3.org/2000/svg" xmlns:xlink="http://www.w3.org/1999/xlink" x="0px" y="0px"
	 viewBox="0 0 810.82 374.684" enable-background="new 0 0 810.82 374.684" xml:space="preserve">
<g id="Livello_1" display="none">
	<rect x="-180.259" y="-300.341" display="inline" opacity="0.9" fill="#EDE2D7" width="1408.819" height="996.142"/>
	<rect x="-180.259" y="-300.341" display="inline" fill="#EDE2D7" width="1408.819" height="996.142"/>
</g>
<g id="Body">
	<g opacity="0.75">
		<line fill="#FFFFFF" stroke="#BCA796" stroke-miterlimit="10" x1="556.933" y1="31.642" x2="557.93" y2="199.657"/>
		<line fill="#FFFFFF" stroke="#BCA796" stroke-miterlimit="10" x1="393.638" y1="163.658" x2="557.93" y2="199.657"/>
		<line fill="none" stroke="#BCA796" stroke-miterlimit="10" x1="467.187" y1="341.247" x2="557.96" y2="199.67"/>
		<line fill="none" stroke="#BCA796" stroke-miterlimit="10" x1="557.93" y1="199.657" x2="650.382" y2="340.16"/>
		<g>
			<line fill="none" stroke="#BCA796" stroke-miterlimit="10" x1="695.696" y1="167.766" x2="557.619" y2="199.748"/>
			<line fill="none" stroke="#BCA796" stroke-miterlimit="10" x1="571.523" y1="196.964" x2="572.163" y2="199.726"/>
			<line fill="none" stroke="#BCA796" stroke-miterlimit="10" x1="585.331" y1="193.766" x2="585.97" y2="196.528"/>
			<line fill="none" stroke="#BCA796" stroke-miterlimit="10" x1="599.138" y1="190.568" x2="599.778" y2="193.329"/>
			<line fill="none" stroke="#BCA796" stroke-miterlimit="10" x1="612.946" y1="187.37" x2="613.586" y2="190.131"/>
			<line fill="none" stroke="#BCA796" stroke-miterlimit="10" x1="626.754" y1="184.171" x2="627.393" y2="186.933"/>
			<line fill="none" stroke="#BCA796" stroke-miterlimit="10" x1="640.561" y1="180.973" x2="641.201" y2="183.735"/>
			<line fill="none" stroke="#BCA796" stroke-miterlimit="10" x1="654.369" y1="177.775" x2="655.009" y2="180.536"/>
			<line fill="none" stroke="#BCA796" stroke-miterlimit="10" x1="668.177" y1="174.577" x2="668.816" y2="177.338"/>
			<line fill="none" stroke="#BCA796" stroke-miterlimit="10" x1="681.984" y1="171.378" x2="682.624" y2="174.14"/>
		</g>
		
			<text transform="matrix(0.9758 -0.2188 0.2188 0.9758 570.0138 209.9237)" display="none" fill="#BCA796" font-family="'AkkuratPro-Regular'" font-size="8px">10</text>
		
			<text transform="matrix(0.9758 -0.2188 0.2188 0.9758 583.7848 206.2437)" display="none" fill="#BCA796" font-family="'AkkuratPro-Regular'" font-size="8px">20</text>
		
			<text transform="matrix(0.9758 -0.2188 0.2188 0.9758 597.4713 202.8485)" display="none" fill="#BCA796" font-family="'AkkuratPro-Regular'" font-size="8px">30</text>
		
			<text transform="matrix(0.9758 -0.2188 0.2188 0.9758 611.1592 199.5477)" display="none" fill="#BCA796" font-family="'AkkuratPro-Regular'" font-size="8px">40</text>
		
			<text transform="matrix(0.9758 -0.2188 0.2188 0.9758 625.0009 196.0247)" display="none" fill="#BCA796" font-family="'AkkuratPro-Regular'" font-size="8px">50</text>
		
			<text transform="matrix(0.9758 -0.2188 0.2188 0.9758 638.7255 192.9119)" display="none" fill="#BCA796" font-family="'AkkuratPro-Regular'" font-size="8px">60</text>
		
			<text transform="matrix(0.9758 -0.2188 0.2188 0.9758 652.5636 189.1978)" display="none" fill="#BCA796" font-family="'AkkuratPro-Regular'" font-size="8px">70</text>
		
			<text transform="matrix(0.9758 -0.2188 0.2188 0.9758 666.2491 185.8028)" display="none" fill="#BCA796" font-family="'AkkuratPro-Regular'" font-size="8px">80</text>
		
			<text transform="matrix(0.9758 -0.2188 0.2188 0.9758 680.1331 182.6881)" display="none" fill="#BCA796" font-family="'AkkuratPro-Regular'" font-size="8px">90</text>
		<line fill="none" stroke="#BCA796" stroke-miterlimit="10" x1="695.696" y1="167.766" x2="721.354" y2="161.823"/>
	</g>
	<circle opacity="0.75" fill="none" stroke="#BCA796" stroke-miterlimit="10" cx="557.93" cy="199.659" r="141.732"/>
	<circle opacity="0.75" fill="none" stroke="#BCA796" stroke-miterlimit="10" cx="557.93" cy="199.659" r="70.569"/>
	<g>
		<circle fill="none" stroke="#BCA796" stroke-miterlimit="10" stroke-dasharray="1,3" cx="557.93" cy="199.659" r="150.236"/>
	</g>
	<g>
		<path fill="#12110C" d="M537.709,9.407l-0.703-0.173V8.339h3.762v0.895l-0.984,0.173l1.447,5.231l0.217,1.142l0.205-1.142
			l1.225-4.222l-0.34-1.015l-0.75-0.167V8.339h3.908v0.895l-1.113,0.167l1.453,5.237l0.252,1.229l0.205-1.229l1.336-5.237
			l-1.043-0.167V8.339h2.947v0.895l-0.756,0.173l-2.268,7.85h-1.775l-1.553-5.249l-1.482,5.249h-1.74L537.709,9.407z"/>
		<path fill="#12110C" d="M554.427,17.263c-0.695,0-1.295-0.106-1.799-0.319s-0.918-0.514-1.242-0.904
			c-0.324-0.39-0.564-0.858-0.721-1.406c-0.156-0.547-0.234-1.154-0.234-1.819c0-0.684,0.099-1.302,0.296-1.853
			s0.477-1.022,0.838-1.414s0.796-0.692,1.304-0.901c0.508-0.209,1.072-0.313,1.693-0.313c0.695,0,1.294,0.102,1.796,0.306
			c0.502,0.204,0.914,0.495,1.236,0.872s0.561,0.832,0.715,1.363s0.231,1.127,0.231,1.787c0,0.686-0.099,1.311-0.296,1.875
			s-0.476,1.047-0.835,1.449c-0.359,0.402-0.792,0.716-1.298,0.94C555.606,17.15,555.045,17.263,554.427,17.263z M554.48,16.448
			c0.586,0,1.046-0.317,1.38-0.951c0.334-0.634,0.501-1.579,0.501-2.835c0-0.617-0.043-1.148-0.129-1.593
			c-0.086-0.444-0.209-0.81-0.369-1.096c-0.16-0.286-0.356-0.496-0.589-0.63s-0.495-0.202-0.788-0.202s-0.556,0.074-0.788,0.222
			c-0.232,0.147-0.429,0.372-0.589,0.672c-0.16,0.301-0.283,0.683-0.369,1.144c-0.086,0.462-0.129,1.005-0.129,1.629
			c0,0.621,0.042,1.159,0.126,1.615s0.207,0.833,0.369,1.132c0.162,0.299,0.358,0.522,0.589,0.67
			C553.925,16.375,554.187,16.448,554.48,16.448z"/>
		<path fill="#12110C" d="M563.782,17.263c-0.695,0-1.295-0.106-1.799-0.319s-0.918-0.514-1.242-0.904
			c-0.324-0.39-0.564-0.858-0.721-1.406c-0.156-0.547-0.234-1.154-0.234-1.819c0-0.684,0.099-1.302,0.296-1.853
			s0.477-1.022,0.838-1.414s0.796-0.692,1.304-0.901c0.508-0.209,1.072-0.313,1.693-0.313c0.695,0,1.294,0.102,1.796,0.306
			c0.502,0.204,0.914,0.495,1.236,0.872s0.561,0.832,0.715,1.363s0.231,1.127,0.231,1.787c0,0.686-0.099,1.311-0.296,1.875
			s-0.476,1.047-0.835,1.449c-0.359,0.402-0.792,0.716-1.298,0.94C564.961,17.15,564.399,17.263,563.782,17.263z M563.835,16.448
			c0.586,0,1.046-0.317,1.38-0.951c0.334-0.634,0.501-1.579,0.501-2.835c0-0.617-0.043-1.148-0.129-1.593
			c-0.086-0.444-0.209-0.81-0.369-1.096c-0.16-0.286-0.356-0.496-0.589-0.63s-0.495-0.202-0.788-0.202s-0.556,0.074-0.788,0.222
			c-0.232,0.147-0.429,0.372-0.589,0.672c-0.16,0.301-0.283,0.683-0.369,1.144c-0.086,0.462-0.129,1.005-0.129,1.629
			c0,0.621,0.042,1.159,0.126,1.615s0.207,0.833,0.369,1.132c0.162,0.299,0.358,0.522,0.589,0.67
			C563.28,16.375,563.542,16.448,563.835,16.448z"/>
		<path fill="#12110C" d="M569.268,16.413l0.914-0.144V9.382l-0.873-0.162V8.339h1.822c0.188,0,0.366,0,0.536,0s0.338,0,0.504,0
			s0.335,0,0.507,0s0.354,0,0.545,0c0.75,0,1.402,0.093,1.957,0.278s1.014,0.456,1.377,0.812c0.363,0.355,0.635,0.79,0.814,1.302
			s0.27,1.095,0.27,1.749c0,0.7-0.105,1.343-0.316,1.93c-0.211,0.586-0.515,1.092-0.911,1.517c-0.396,0.424-0.876,0.752-1.438,0.983
			c-0.562,0.231-1.195,0.347-1.898,0.347c-0.156,0-0.321,0-0.495,0s-0.345,0-0.513,0s-0.329,0-0.483,0s-0.29,0-0.407,0h-1.91V16.413
			z M572.145,16.315c0.137,0.047,0.29,0.078,0.46,0.09s0.353,0.019,0.548,0.019c0.352,0,0.671-0.072,0.958-0.217
			s0.531-0.365,0.732-0.663c0.201-0.297,0.357-0.673,0.469-1.128s0.167-0.999,0.167-1.631c0-0.556-0.048-1.059-0.144-1.51
			s-0.245-0.836-0.448-1.154s-0.465-0.563-0.785-0.735c-0.32-0.171-0.705-0.257-1.154-0.257c-0.215,0-0.387,0.013-0.516,0.038
			s-0.225,0.043-0.287,0.055V16.315z"/>
	</g>
	<rect x="529.432" y="0.5" fill="none" stroke="#BCA796" stroke-miterlimit="10" width="56.375" height="24.426"/>
	<g>
		<path fill="#12110C" d="M745.05,166.521l0.914-0.146v-6.976l-0.938-0.181v-0.829h6.674l0.135,2.21h-1.061l-0.463-1.343h-2.361
			v3.211h1.582l0.252-1.055h0.873v3.123h-0.867l-0.258-1.09h-1.582v2.924l1.775,0.152v0.785h-4.676V166.521z"/>
		<path fill="#12110C" d="M752.435,166.521l0.703-0.151l2.707-7.981h2.068l2.725,7.987l0.68,0.146v0.785h-3.709v-0.785l0.844-0.152
			l-0.422-1.447h-2.947l-0.41,1.471l0.932,0.129v0.785h-3.158L752.435,166.521z M757.767,164.019l-1.061-3.57l-0.182-0.813
			l-0.182,0.813l-1.008,3.57H757.767z"/>
		<path fill="#12110C" d="M762.188,166.489l0.914-0.152v-6.904l-0.902-0.159v-0.885h1.84c0.188,0,0.363,0,0.527,0s0.322,0,0.475,0
			s0.302,0,0.448,0s0.296,0,0.448,0c0.648,0,1.188,0.045,1.617,0.134c0.43,0.09,0.773,0.22,1.031,0.391s0.439,0.378,0.545,0.622
			s0.158,0.519,0.158,0.827c0,0.296-0.048,0.565-0.144,0.807c-0.096,0.241-0.229,0.453-0.398,0.635
			c-0.17,0.183-0.372,0.333-0.606,0.451s-0.49,0.197-0.768,0.239c0.379,0,0.725,0.045,1.037,0.137
			c0.312,0.091,0.58,0.225,0.803,0.401s0.395,0.395,0.516,0.654c0.121,0.259,0.182,0.554,0.182,0.883
			c0,0.376-0.061,0.731-0.182,1.064c-0.121,0.333-0.328,0.624-0.621,0.872s-0.687,0.444-1.181,0.587
			c-0.494,0.143-1.112,0.215-1.854,0.215c-0.207,0-0.39,0-0.548,0s-0.311,0-0.457,0s-0.298,0-0.454,0s-0.336,0-0.539,0h-1.887
			V166.489z M765.059,166.418c0.039,0.024,0.095,0.043,0.167,0.057s0.151,0.025,0.237,0.033c0.086,0.008,0.177,0.012,0.272,0.012
			s0.187,0,0.272,0c0.316,0,0.585-0.041,0.806-0.123c0.221-0.082,0.4-0.2,0.539-0.354c0.139-0.154,0.239-0.341,0.302-0.562
			s0.094-0.469,0.094-0.746c0-0.296-0.032-0.548-0.097-0.754s-0.164-0.375-0.299-0.503c-0.135-0.129-0.306-0.222-0.513-0.281
			s-0.453-0.088-0.738-0.088c-0.09,0-0.185,0-0.284,0s-0.196,0-0.29,0s-0.182,0-0.264,0s-0.15,0.002-0.205,0.006V166.418z
			 M765.065,162.197c0.055,0,0.121,0,0.199,0s0.16,0,0.246,0s0.172,0,0.258,0s0.164,0,0.234,0c0.238,0,0.441-0.036,0.609-0.108
			s0.306-0.178,0.413-0.318s0.186-0.31,0.234-0.509s0.073-0.427,0.073-0.685c0-0.485-0.111-0.843-0.334-1.074
			c-0.223-0.231-0.596-0.347-1.119-0.347c-0.066,0-0.14,0-0.22,0s-0.158,0.003-0.234,0.009c-0.076,0.005-0.146,0.012-0.211,0.02
			s-0.114,0.013-0.149,0.017V162.197z"/>
		<path fill="#12110C" d="M771.313,166.521l0.914-0.146v-6.947l-0.873-0.161v-0.878h1.822c0.172,0,0.335,0,0.489,0s0.31,0,0.466,0
			s0.319,0,0.489,0s0.356,0,0.56,0c0.633,0,1.168,0.045,1.605,0.136s0.792,0.231,1.063,0.424s0.467,0.437,0.586,0.732
			s0.179,0.648,0.179,1.056c0,0.242-0.034,0.489-0.103,0.741c-0.068,0.251-0.174,0.488-0.316,0.709
			c-0.143,0.221-0.321,0.418-0.536,0.591s-0.469,0.306-0.762,0.398c0.215,0.09,0.408,0.228,0.58,0.413s0.328,0.394,0.469,0.624
			s0.268,0.469,0.381,0.715s0.22,0.474,0.319,0.683s0.196,0.386,0.29,0.53s0.189,0.229,0.287,0.252l0.369,0.129v0.785h-2.279
			c-0.07,0-0.142-0.049-0.214-0.146c-0.072-0.098-0.146-0.227-0.22-0.388c-0.074-0.16-0.149-0.345-0.226-0.554
			c-0.076-0.209-0.155-0.427-0.237-0.651c-0.082-0.225-0.165-0.449-0.249-0.672c-0.084-0.223-0.173-0.428-0.267-0.616
			c-0.094-0.188-0.19-0.351-0.29-0.49c-0.1-0.139-0.204-0.236-0.313-0.291c-0.105,0-0.218,0-0.337,0s-0.23,0-0.334,0
			s-0.193,0-0.27,0s-0.126,0-0.149,0v2.883l1.066,0.141v0.785h-3.961V166.521z M774.208,162.681c0.035,0.01,0.095,0.017,0.179,0.021
			s0.174,0.005,0.27,0.005s0.188,0,0.278,0s0.16,0,0.211,0c0.422,0,0.755-0.154,0.999-0.463s0.366-0.792,0.366-1.448
			c0-0.266-0.027-0.502-0.082-0.707s-0.143-0.376-0.264-0.516s-0.28-0.244-0.478-0.315c-0.197-0.072-0.437-0.107-0.718-0.107
			c-0.223,0-0.392,0.007-0.507,0.021c-0.115,0.013-0.2,0.026-0.255,0.037V162.681z"/>
		<path fill="#12110C" d="M780.703,166.521l0.967-0.152v-6.984l-0.979-0.17v-0.826h3.949v0.826l-0.984,0.164v6.99l0.996,0.164v0.773
			h-3.949V166.521z"/>
		<path fill="#12110C" d="M786.072,162.89c0-0.713,0.113-1.349,0.34-1.908s0.538-1.031,0.935-1.416s0.865-0.679,1.406-0.881
			s1.128-0.303,1.761-0.303c0.285,0,0.566,0.015,0.844,0.044s0.538,0.062,0.782,0.097s0.463,0.069,0.656,0.103
			s0.351,0.056,0.472,0.067l-0.141,2.553h-1.254l-0.41-1.718c-0.059-0.076-0.174-0.144-0.346-0.205
			c-0.172-0.061-0.422-0.091-0.75-0.091c-0.309,0-0.589,0.073-0.841,0.219c-0.252,0.146-0.467,0.364-0.645,0.654
			c-0.178,0.291-0.315,0.653-0.413,1.089c-0.098,0.437-0.146,0.944-0.146,1.525c0,0.52,0.042,1.006,0.126,1.459
			s0.214,0.849,0.39,1.186s0.397,0.604,0.665,0.799s0.587,0.293,0.958,0.293c0.168,0,0.313-0.011,0.437-0.034
			c0.123-0.022,0.229-0.052,0.316-0.088c0.088-0.036,0.16-0.076,0.217-0.119s0.104-0.088,0.144-0.133l0.562-1.258l1.137,0.105
			l-0.223,1.929c-0.188,0.019-0.362,0.053-0.524,0.101s-0.34,0.099-0.533,0.152c-0.193,0.053-0.413,0.1-0.659,0.141
			c-0.246,0.04-0.545,0.06-0.896,0.06c-0.723,0-1.356-0.102-1.901-0.306s-1-0.497-1.365-0.878s-0.64-0.846-0.823-1.393
			S786.072,163.573,786.072,162.89z"/>
	</g>
	
		<rect x="727.945" y="150.472" opacity="0.75" fill="none" stroke="#BCA796" stroke-miterlimit="10" width="82.375" height="24.426"/>
	<g>
		<path fill="#12110C" d="M615.403,362.099c0-0.713,0.113-1.349,0.34-1.907s0.538-1.031,0.935-1.416
			c0.396-0.386,0.865-0.679,1.406-0.881s1.128-0.304,1.761-0.304c0.285,0,0.566,0.015,0.844,0.044s0.538,0.062,0.782,0.097
			s0.463,0.069,0.656,0.103s0.351,0.056,0.472,0.067l-0.141,2.553h-1.254l-0.41-1.718c-0.059-0.075-0.174-0.144-0.346-0.205
			c-0.172-0.061-0.422-0.091-0.75-0.091c-0.309,0-0.589,0.073-0.841,0.219c-0.252,0.146-0.467,0.364-0.645,0.654
			c-0.178,0.291-0.315,0.653-0.413,1.09s-0.146,0.944-0.146,1.524c0,0.52,0.042,1.006,0.126,1.459s0.214,0.849,0.39,1.187
			c0.176,0.337,0.397,0.604,0.665,0.799s0.587,0.293,0.958,0.293c0.168,0,0.313-0.011,0.437-0.034
			c0.123-0.022,0.229-0.052,0.316-0.088c0.088-0.035,0.16-0.075,0.217-0.119c0.057-0.043,0.104-0.088,0.144-0.133l0.562-1.258
			l1.137,0.105l-0.223,1.929c-0.188,0.019-0.362,0.053-0.524,0.101s-0.34,0.099-0.533,0.152c-0.193,0.053-0.413,0.1-0.659,0.141
			c-0.246,0.04-0.545,0.06-0.896,0.06c-0.723,0-1.356-0.102-1.901-0.306s-1-0.497-1.365-0.878c-0.365-0.382-0.64-0.846-0.823-1.394
			C615.495,363.397,615.403,362.781,615.403,362.099z"/>
		<path fill="#12110C" d="M624.048,365.73l0.914-0.149v-6.987l-0.932-0.17v-0.826h6.486l0.164,2.068h-0.955l-0.41-1.219h-2.367
			v3.041h1.488l0.217-0.984h0.855v2.982h-0.855l-0.205-1.049h-1.5v3.146h2.637l0.732-1.565l1.002,0.282l-0.305,2.215h-6.967V365.73z
			"/>
		<path fill="#12110C" d="M632.541,365.73l0.914-0.146v-6.947l-0.873-0.161v-0.878h1.822c0.172,0,0.335,0,0.489,0s0.31,0,0.466,0
			s0.319,0,0.489,0s0.356,0,0.56,0c0.633,0,1.168,0.046,1.605,0.136c0.438,0.091,0.792,0.231,1.063,0.424s0.467,0.437,0.586,0.732
			s0.179,0.648,0.179,1.056c0,0.242-0.034,0.489-0.103,0.741s-0.174,0.488-0.316,0.709c-0.143,0.222-0.321,0.419-0.536,0.592
			s-0.469,0.306-0.762,0.397c0.215,0.09,0.408,0.228,0.58,0.413s0.328,0.394,0.469,0.624s0.268,0.469,0.381,0.715
			s0.22,0.474,0.319,0.683s0.196,0.386,0.29,0.53s0.189,0.229,0.287,0.252l0.369,0.129v0.785h-2.279
			c-0.07,0-0.142-0.049-0.214-0.146s-0.146-0.227-0.22-0.388c-0.074-0.16-0.149-0.345-0.226-0.554
			c-0.076-0.21-0.155-0.427-0.237-0.651c-0.082-0.226-0.165-0.449-0.249-0.673c-0.084-0.223-0.173-0.428-0.267-0.616
			c-0.094-0.188-0.19-0.351-0.29-0.489c-0.1-0.14-0.204-0.236-0.313-0.291c-0.105,0-0.218,0-0.337,0s-0.23,0-0.334,0
			s-0.193,0-0.27,0s-0.126,0-0.149,0v2.883l1.066,0.141v0.785h-3.961V365.73z M635.435,361.89c0.035,0.01,0.095,0.017,0.179,0.021
			c0.084,0.003,0.174,0.005,0.27,0.005s0.188,0,0.278,0s0.16,0,0.211,0c0.422,0,0.755-0.154,0.999-0.463
			c0.244-0.31,0.366-0.792,0.366-1.448c0-0.267-0.027-0.502-0.082-0.707c-0.055-0.204-0.143-0.376-0.264-0.516
			c-0.121-0.139-0.28-0.244-0.478-0.315s-0.437-0.107-0.718-0.107c-0.223,0-0.392,0.007-0.507,0.021s-0.2,0.026-0.255,0.037V361.89z
			"/>
		<path fill="#12110C" d="M641.15,365.73l0.703-0.151l2.707-7.981h2.068l2.725,7.987l0.68,0.146v0.785h-3.709v-0.785l0.844-0.152
			l-0.422-1.447h-2.947l-0.41,1.471l0.932,0.129v0.785h-3.158L641.15,365.73z M646.482,363.228l-1.061-3.57l-0.182-0.813
			l-0.182,0.813l-1.008,3.57H646.482z"/>
		<path fill="#12110C" d="M650.423,365.73l1.014-0.146l0.814-6.996l-1.178-0.164v-0.826h3.879l1.529,5.186l0.217,1.137l0.193-1.137
			l1.283-5.186h3.92v0.826l-1.271,0.17l1.043,6.984l0.996,0.152v0.785h-4.014v-0.785l0.99-0.146l-0.604-5.162l-0.229-2.145
			l-0.346,1.658l-1.611,6.24h-1.436l-1.893-5.807l-0.516-2.127l-0.141,2.174l-0.381,5.162l1.189,0.152v0.785h-3.451V365.73z"/>
		<path fill="#12110C" d="M663.936,365.73l0.967-0.152v-6.984l-0.979-0.17v-0.826h3.949v0.826l-0.984,0.164v6.99l0.996,0.164v0.773
			h-3.949V365.73z"/>
		<path fill="#12110C" d="M669.305,362.099c0-0.713,0.113-1.349,0.34-1.907s0.538-1.031,0.935-1.416
			c0.396-0.386,0.865-0.679,1.406-0.881s1.128-0.304,1.761-0.304c0.285,0,0.566,0.015,0.844,0.044s0.538,0.062,0.782,0.097
			s0.463,0.069,0.656,0.103s0.351,0.056,0.472,0.067l-0.141,2.553h-1.254l-0.41-1.718c-0.059-0.075-0.174-0.144-0.346-0.205
			c-0.172-0.061-0.422-0.091-0.75-0.091c-0.309,0-0.589,0.073-0.841,0.219c-0.252,0.146-0.467,0.364-0.645,0.654
			c-0.178,0.291-0.315,0.653-0.413,1.09s-0.146,0.944-0.146,1.524c0,0.52,0.042,1.006,0.126,1.459s0.214,0.849,0.39,1.187
			c0.176,0.337,0.397,0.604,0.665,0.799s0.587,0.293,0.958,0.293c0.168,0,0.313-0.011,0.437-0.034
			c0.123-0.022,0.229-0.052,0.316-0.088c0.088-0.035,0.16-0.075,0.217-0.119c0.057-0.043,0.104-0.088,0.144-0.133l0.562-1.258
			l1.137,0.105l-0.223,1.929c-0.188,0.019-0.362,0.053-0.524,0.101s-0.34,0.099-0.533,0.152c-0.193,0.053-0.413,0.1-0.659,0.141
			c-0.246,0.04-0.545,0.06-0.896,0.06c-0.723,0-1.356-0.102-1.901-0.306s-1-0.497-1.365-0.878c-0.365-0.382-0.64-0.846-0.823-1.394
			C669.397,363.397,669.305,362.781,669.305,362.099z"/>
		<path fill="#12110C" d="M678.25,363.82h1.096l0.299,1.442c0.09,0.105,0.255,0.201,0.495,0.286c0.24,0.086,0.53,0.128,0.87,0.128
			c0.504,0,0.871-0.105,1.102-0.315c0.23-0.211,0.346-0.499,0.346-0.863c0-0.197-0.045-0.375-0.135-0.532s-0.22-0.304-0.39-0.438
			s-0.378-0.265-0.624-0.39c-0.246-0.126-0.523-0.259-0.832-0.399c-0.152-0.068-0.315-0.147-0.489-0.238
			c-0.174-0.092-0.345-0.196-0.513-0.313c-0.168-0.118-0.33-0.251-0.486-0.398c-0.156-0.148-0.293-0.314-0.41-0.498
			c-0.117-0.185-0.211-0.388-0.281-0.609c-0.07-0.223-0.105-0.467-0.105-0.732c0-0.314,0.063-0.614,0.19-0.899
			s0.319-0.535,0.577-0.752c0.258-0.216,0.582-0.388,0.973-0.515c0.391-0.128,0.852-0.191,1.383-0.191
			c0.332,0,0.634,0.021,0.905,0.062s0.513,0.087,0.724,0.138s0.392,0.1,0.542,0.146s0.271,0.074,0.36,0.082l-0.076,2.056h-1.066
			l-0.287-1.385c-0.027-0.034-0.072-0.068-0.135-0.103s-0.14-0.065-0.231-0.094s-0.195-0.051-0.311-0.068
			c-0.115-0.017-0.237-0.025-0.366-0.025c-0.234,0-0.434,0.027-0.598,0.083c-0.164,0.055-0.299,0.13-0.404,0.225
			s-0.182,0.209-0.229,0.342s-0.07,0.275-0.07,0.427c0,0.213,0.054,0.403,0.161,0.57s0.255,0.321,0.442,0.464
			s0.408,0.279,0.662,0.41s0.527,0.267,0.82,0.407c0.246,0.121,0.504,0.257,0.773,0.407c0.27,0.149,0.517,0.327,0.741,0.532
			s0.41,0.442,0.557,0.712s0.22,0.581,0.22,0.934c0,0.194-0.023,0.393-0.07,0.596s-0.124,0.401-0.231,0.595
			s-0.247,0.376-0.419,0.547s-0.383,0.321-0.633,0.45s-0.542,0.231-0.876,0.308c-0.334,0.075-0.716,0.113-1.146,0.113
			c-0.363,0-0.702-0.026-1.017-0.079s-0.597-0.111-0.847-0.176s-0.465-0.125-0.645-0.182s-0.318-0.089-0.416-0.097L678.25,363.82z"
			/>
	</g>
	<polygon opacity="0.75" fill="none" stroke="#BCA796" stroke-miterlimit="10" points="659.037,349.758 640.056,349.758 
		602.662,349.758 602.662,374.184 640.056,374.184 659.037,374.184 696.432,374.184 696.432,349.758 	"/>
	<g>
		<path fill="#12110C" d="M440.722,362.136c0-0.723,0.111-1.366,0.334-1.93s0.537-1.039,0.943-1.428
			c0.406-0.388,0.896-0.683,1.468-0.885c0.572-0.201,1.208-0.303,1.907-0.303c0.316,0,0.631,0.015,0.943,0.044
			s0.604,0.064,0.873,0.105s0.508,0.083,0.715,0.126s0.363,0.076,0.469,0.1l-0.141,2.16h-1.371l-0.357-1.431
			c-0.027-0.025-0.067-0.056-0.12-0.09c-0.053-0.035-0.126-0.067-0.22-0.099s-0.21-0.057-0.349-0.077
			c-0.139-0.02-0.304-0.03-0.495-0.03c-0.363,0-0.688,0.075-0.973,0.225s-0.527,0.372-0.727,0.667s-0.352,0.662-0.457,1.102
			c-0.105,0.438-0.158,0.947-0.158,1.526c0,0.53,0.041,1.024,0.123,1.482c0.082,0.457,0.212,0.855,0.39,1.194
			s0.405,0.604,0.683,0.798c0.277,0.192,0.611,0.289,1.002,0.289c0.133,0,0.266-0.009,0.398-0.026s0.257-0.043,0.372-0.076
			s0.22-0.075,0.313-0.126s0.172-0.109,0.234-0.176v-2.467l-1.131-0.135v-0.879h3.68v0.879l-0.609,0.111v3.123
			c-0.156,0-0.348,0.033-0.574,0.098c-0.227,0.065-0.485,0.137-0.776,0.213c-0.291,0.077-0.612,0.146-0.964,0.207
			c-0.352,0.062-0.727,0.092-1.125,0.092c-0.691,0-1.305-0.112-1.84-0.337s-0.985-0.532-1.351-0.925
			c-0.365-0.392-0.642-0.855-0.829-1.391C440.816,363.334,440.722,362.756,440.722,362.136z"/>
		<path fill="#12110C" d="M450.357,365.73l0.914-0.152v-6.984l-0.902-0.17v-0.826h4.008v0.826l-1.113,0.17v6.914h2.309l0.773-2.332
			l1.096,0.164l-0.346,3.176h-6.738V365.73z"/>
		<path fill="#12110C" d="M457.942,365.73l0.703-0.151l2.707-7.981h2.068l2.725,7.987l0.68,0.146v0.785h-3.709v-0.785l0.844-0.152
			l-0.422-1.447h-2.947l-0.41,1.471l0.932,0.129v0.785h-3.158L457.942,365.73z M463.274,363.228l-1.061-3.57l-0.182-0.813
			l-0.182,0.813l-1.008,3.57H463.274z"/>
		<path fill="#12110C" d="M467.992,363.82h1.096l0.299,1.442c0.09,0.105,0.255,0.201,0.495,0.286c0.24,0.086,0.53,0.128,0.87,0.128
			c0.504,0,0.871-0.105,1.102-0.315c0.23-0.211,0.346-0.499,0.346-0.863c0-0.197-0.045-0.375-0.135-0.532s-0.22-0.304-0.39-0.438
			s-0.378-0.265-0.624-0.39c-0.246-0.126-0.523-0.259-0.832-0.399c-0.152-0.068-0.315-0.147-0.489-0.238
			c-0.174-0.092-0.345-0.196-0.513-0.313c-0.168-0.118-0.33-0.251-0.486-0.398c-0.156-0.148-0.293-0.314-0.41-0.498
			c-0.117-0.185-0.211-0.388-0.281-0.609c-0.07-0.223-0.105-0.467-0.105-0.732c0-0.314,0.063-0.614,0.19-0.899
			s0.319-0.535,0.577-0.752c0.258-0.216,0.582-0.388,0.973-0.515c0.391-0.128,0.852-0.191,1.383-0.191
			c0.332,0,0.634,0.021,0.905,0.062s0.513,0.087,0.724,0.138s0.392,0.1,0.542,0.146s0.271,0.074,0.36,0.082l-0.076,2.056h-1.066
			l-0.287-1.385c-0.027-0.034-0.072-0.068-0.135-0.103s-0.14-0.065-0.231-0.094s-0.195-0.051-0.311-0.068
			c-0.115-0.017-0.237-0.025-0.366-0.025c-0.234,0-0.434,0.027-0.598,0.083c-0.164,0.055-0.299,0.13-0.404,0.225
			s-0.182,0.209-0.229,0.342s-0.07,0.275-0.07,0.427c0,0.213,0.054,0.403,0.161,0.57s0.255,0.321,0.442,0.464
			s0.408,0.279,0.662,0.41s0.527,0.267,0.82,0.407c0.246,0.121,0.504,0.257,0.773,0.407c0.27,0.149,0.517,0.327,0.741,0.532
			s0.41,0.442,0.557,0.712s0.22,0.581,0.22,0.934c0,0.194-0.023,0.393-0.07,0.596s-0.124,0.401-0.231,0.595
			s-0.247,0.376-0.419,0.547s-0.383,0.321-0.633,0.45s-0.542,0.231-0.876,0.308c-0.334,0.075-0.716,0.113-1.146,0.113
			c-0.363,0-0.702-0.026-1.017-0.079s-0.597-0.111-0.847-0.176s-0.465-0.125-0.645-0.182s-0.318-0.089-0.416-0.097L467.992,363.82z"
			/>
		<path fill="#12110C" d="M475.864,363.82h1.096l0.299,1.442c0.09,0.105,0.255,0.201,0.495,0.286c0.24,0.086,0.53,0.128,0.87,0.128
			c0.504,0,0.871-0.105,1.102-0.315c0.23-0.211,0.346-0.499,0.346-0.863c0-0.197-0.045-0.375-0.135-0.532s-0.22-0.304-0.39-0.438
			s-0.378-0.265-0.624-0.39c-0.246-0.126-0.523-0.259-0.832-0.399c-0.152-0.068-0.315-0.147-0.489-0.238
			c-0.174-0.092-0.345-0.196-0.513-0.313c-0.168-0.118-0.33-0.251-0.486-0.398c-0.156-0.148-0.293-0.314-0.41-0.498
			c-0.117-0.185-0.211-0.388-0.281-0.609c-0.07-0.223-0.105-0.467-0.105-0.732c0-0.314,0.063-0.614,0.19-0.899
			s0.319-0.535,0.577-0.752c0.258-0.216,0.582-0.388,0.973-0.515c0.391-0.128,0.852-0.191,1.383-0.191
			c0.332,0,0.634,0.021,0.905,0.062s0.513,0.087,0.724,0.138s0.392,0.1,0.542,0.146s0.271,0.074,0.36,0.082l-0.076,2.056h-1.066
			l-0.287-1.385c-0.027-0.034-0.072-0.068-0.135-0.103s-0.14-0.065-0.231-0.094s-0.195-0.051-0.311-0.068
			c-0.115-0.017-0.237-0.025-0.366-0.025c-0.234,0-0.434,0.027-0.598,0.083c-0.164,0.055-0.299,0.13-0.404,0.225
			s-0.182,0.209-0.229,0.342s-0.07,0.275-0.07,0.427c0,0.213,0.054,0.403,0.161,0.57s0.255,0.321,0.442,0.464
			s0.408,0.279,0.662,0.41s0.527,0.267,0.82,0.407c0.246,0.121,0.504,0.257,0.773,0.407c0.27,0.149,0.517,0.327,0.741,0.532
			s0.41,0.442,0.557,0.712s0.22,0.581,0.22,0.934c0,0.194-0.023,0.393-0.07,0.596s-0.124,0.401-0.231,0.595
			s-0.247,0.376-0.419,0.547s-0.383,0.321-0.633,0.45s-0.542,0.231-0.876,0.308c-0.334,0.075-0.716,0.113-1.146,0.113
			c-0.363,0-0.702-0.026-1.017-0.079s-0.597-0.111-0.847-0.176s-0.465-0.125-0.645-0.182s-0.318-0.089-0.416-0.097L475.864,363.82z"
			/>
	</g>
	<polygon opacity="0.75" fill="none" stroke="#BCA796" stroke-miterlimit="10" points="467.009,349.758 455.712,349.758 
		433.456,349.758 433.456,374.184 455.712,374.184 467.009,374.184 489.265,374.184 489.265,349.758 	"/>
	<g>
		<path fill="#12110C" d="M313.512,166.444l0.914-0.146v-6.976l-0.938-0.181v-0.829h6.674l0.135,2.21h-1.061l-0.463-1.343h-2.361
			v3.211h1.582l0.252-1.055h0.873v3.123h-0.867l-0.258-1.09h-1.582v2.924l1.775,0.152v0.785h-4.676V166.444z"/>
		<path fill="#12110C" d="M321.594,166.444l0.914-0.146v-6.947l-0.873-0.161v-0.878h1.822c0.172,0,0.335,0,0.489,0s0.31,0,0.466,0
			s0.319,0,0.489,0s0.356,0,0.56,0c0.633,0,1.168,0.045,1.605,0.136s0.792,0.231,1.063,0.424s0.467,0.437,0.586,0.732
			s0.179,0.648,0.179,1.056c0,0.242-0.034,0.489-0.103,0.741c-0.068,0.251-0.174,0.488-0.316,0.709
			c-0.143,0.221-0.321,0.418-0.536,0.591s-0.469,0.306-0.762,0.398c0.215,0.09,0.408,0.228,0.58,0.413s0.328,0.394,0.469,0.624
			s0.268,0.469,0.381,0.715s0.22,0.474,0.319,0.683s0.196,0.386,0.29,0.53s0.189,0.229,0.287,0.252l0.369,0.129v0.785h-2.279
			c-0.07,0-0.142-0.049-0.214-0.146c-0.072-0.098-0.146-0.227-0.22-0.388c-0.074-0.16-0.149-0.345-0.226-0.554
			c-0.076-0.209-0.155-0.427-0.237-0.651c-0.082-0.225-0.165-0.449-0.249-0.672c-0.084-0.223-0.173-0.428-0.267-0.616
			c-0.094-0.188-0.19-0.351-0.29-0.49c-0.1-0.139-0.204-0.236-0.313-0.291c-0.105,0-0.218,0-0.337,0s-0.23,0-0.334,0
			s-0.193,0-0.27,0s-0.126,0-0.149,0v2.883l1.066,0.141v0.785h-3.961V166.444z M324.489,162.604c0.035,0.01,0.095,0.017,0.179,0.021
			s0.174,0.005,0.27,0.005s0.188,0,0.278,0s0.16,0,0.211,0c0.422,0,0.755-0.154,0.999-0.463s0.366-0.792,0.366-1.448
			c0-0.266-0.027-0.502-0.082-0.707s-0.143-0.376-0.264-0.516s-0.28-0.244-0.478-0.315c-0.197-0.072-0.437-0.107-0.718-0.107
			c-0.223,0-0.392,0.007-0.507,0.021c-0.115,0.013-0.2,0.026-0.255,0.037V162.604z"/>
		<path fill="#12110C" d="M331.388,159.332l-0.762-0.167v-0.853h3.809v0.853l-0.99,0.173v4.36c0,0.923,0.157,1.604,0.472,2.045
			c0.314,0.44,0.786,0.66,1.415,0.66c0.32,0,0.597-0.063,0.829-0.19s0.424-0.307,0.574-0.539c0.15-0.233,0.261-0.514,0.331-0.842
			s0.105-0.697,0.105-1.104v-4.395l-1.008-0.167v-0.853h3.07v0.853l-0.791,0.167v4.304c0,0.647-0.086,1.199-0.258,1.655
			c-0.172,0.456-0.408,0.828-0.709,1.115c-0.301,0.287-0.657,0.497-1.069,0.63s-0.86,0.199-1.345,0.199
			c-0.621,0-1.162-0.069-1.623-0.208s-0.843-0.357-1.146-0.656c-0.303-0.298-0.529-0.682-0.68-1.15
			c-0.15-0.468-0.226-1.029-0.226-1.684V159.332z"/>
		<path fill="#12110C" d="M340.484,166.444l0.967-0.152v-6.984l-0.979-0.17v-0.826h3.949v0.826l-0.984,0.164v6.99l0.996,0.164v0.773
			h-3.949V166.444z"/>
		<path fill="#12110C" d="M347.337,166.444l1.506-0.152v-7.066h-1.512l-0.486,2.631h-1.113l0.176-3.545h7.775l0.17,3.545h-1.072
			l-0.516-2.631h-1.418v7.061l1.641,0.158v0.785h-5.15V166.444z"/>
		<path fill="#12110C" d="M355.477,164.535h1.096l0.299,1.442c0.09,0.106,0.255,0.202,0.495,0.287c0.24,0.085,0.53,0.128,0.87,0.128
			c0.504,0,0.871-0.105,1.102-0.316c0.23-0.211,0.346-0.499,0.346-0.863c0-0.197-0.045-0.375-0.135-0.532
			c-0.09-0.158-0.22-0.304-0.39-0.438s-0.378-0.265-0.624-0.39c-0.246-0.125-0.523-0.258-0.832-0.399
			c-0.152-0.068-0.315-0.148-0.489-0.239c-0.174-0.091-0.345-0.196-0.513-0.313s-0.33-0.25-0.486-0.398s-0.293-0.314-0.41-0.498
			s-0.211-0.387-0.281-0.609s-0.105-0.466-0.105-0.732c0-0.315,0.063-0.615,0.19-0.899c0.127-0.285,0.319-0.536,0.577-0.752
			s0.582-0.388,0.973-0.515c0.391-0.127,0.852-0.191,1.383-0.191c0.332,0,0.634,0.021,0.905,0.062s0.513,0.087,0.724,0.138
			s0.392,0.1,0.542,0.146s0.271,0.074,0.36,0.082l-0.076,2.055h-1.066l-0.287-1.385c-0.027-0.034-0.072-0.068-0.135-0.102
			c-0.062-0.034-0.14-0.065-0.231-0.094s-0.195-0.051-0.311-0.068s-0.237-0.025-0.366-0.025c-0.234,0-0.434,0.027-0.598,0.083
			s-0.299,0.13-0.404,0.225s-0.182,0.209-0.229,0.342s-0.07,0.275-0.07,0.427c0,0.213,0.054,0.403,0.161,0.57
			s0.255,0.322,0.442,0.464c0.188,0.143,0.408,0.279,0.662,0.41s0.527,0.267,0.82,0.407c0.246,0.122,0.504,0.257,0.773,0.407
			s0.517,0.328,0.741,0.532c0.225,0.205,0.41,0.442,0.557,0.712s0.22,0.581,0.22,0.934c0,0.194-0.023,0.392-0.07,0.595
			s-0.124,0.401-0.231,0.595c-0.107,0.193-0.247,0.376-0.419,0.547c-0.172,0.17-0.383,0.321-0.633,0.45s-0.542,0.231-0.876,0.308
			c-0.334,0.076-0.716,0.114-1.146,0.114c-0.363,0-0.702-0.026-1.017-0.079s-0.597-0.111-0.847-0.176s-0.465-0.125-0.645-0.182
			s-0.318-0.089-0.416-0.097L355.477,164.535z"/>
		<path fill="#12110C" d="M294.438,180.844l0.703-0.151l2.707-7.981h2.068l2.725,7.987l0.68,0.146v0.785h-3.709v-0.785l0.844-0.152
			l-0.422-1.447h-2.947l-0.41,1.471l0.932,0.129v0.785h-3.158L294.438,180.844z M299.77,178.342l-1.061-3.57l-0.182-0.813
			l-0.182,0.813l-1.008,3.57H299.77z"/>
		<path fill="#12110C" d="M304.167,180.844l0.949-0.146v-6.996l-0.949-0.164v-0.826h2.924l3.41,5.174l0.639,1.359v-5.549
			l-1.031-0.158v-0.826h3.083v0.826l-0.926,0.164v7.928h-1.629l-3.592-5.49l-0.797-1.605v6.164l1.23,0.146v0.785h-3.311V180.844z"/>
		<path fill="#12110C" d="M314.447,180.785l0.914-0.144v-6.887l-0.873-0.162v-0.882h1.822c0.188,0,0.366,0,0.536,0s0.338,0,0.504,0
			s0.335,0,0.507,0s0.354,0,0.545,0c0.75,0,1.402,0.093,1.957,0.278s1.014,0.456,1.377,0.812c0.363,0.355,0.635,0.79,0.814,1.302
			s0.27,1.095,0.27,1.749c0,0.7-0.105,1.343-0.316,1.93c-0.211,0.586-0.515,1.092-0.911,1.517s-0.876,0.752-1.438,0.983
			c-0.562,0.231-1.195,0.347-1.898,0.347c-0.156,0-0.321,0-0.495,0s-0.345,0-0.513,0s-0.329,0-0.483,0s-0.29,0-0.407,0h-1.91
			V180.785z M317.324,180.688c0.137,0.047,0.29,0.078,0.46,0.09s0.353,0.019,0.548,0.019c0.352,0,0.671-0.072,0.958-0.217
			s0.531-0.365,0.732-0.663c0.201-0.297,0.357-0.673,0.469-1.128s0.167-0.999,0.167-1.631c0-0.556-0.048-1.059-0.144-1.51
			s-0.245-0.836-0.448-1.154s-0.465-0.563-0.785-0.735c-0.32-0.171-0.705-0.257-1.154-0.257c-0.215,0-0.387,0.013-0.516,0.038
			s-0.225,0.043-0.287,0.055V180.688z"/>
		<path fill="#12110C" d="M328.192,180.844l0.914-0.146v-6.934l-0.873-0.161v-0.892h1.793c0.148,0,0.293,0,0.434,0s0.289,0,0.445,0
			s0.326,0,0.51,0s0.393,0,0.627,0c0.668,0,1.224,0.059,1.667,0.176s0.797,0.287,1.061,0.508c0.264,0.222,0.45,0.494,0.56,0.817
			c0.109,0.324,0.164,0.693,0.164,1.109c0,0.501-0.08,0.949-0.24,1.343c-0.16,0.395-0.394,0.728-0.7,1s-0.682,0.479-1.125,0.624
			s-0.946,0.217-1.509,0.217c-0.184,0-0.355,0-0.516,0s-0.266-0.006-0.316-0.018v2.203l1.553,0.152v0.785h-4.447V180.844z
			 M331.081,177.651c0.082,0.019,0.182,0.034,0.299,0.043c0.117,0.009,0.285,0.014,0.504,0.014c0.211,0,0.411-0.038,0.601-0.113
			s0.355-0.203,0.498-0.383s0.256-0.421,0.34-0.724s0.126-0.68,0.126-1.133c0-0.663-0.135-1.142-0.404-1.438
			c-0.27-0.296-0.668-0.444-1.195-0.444c-0.113,0-0.208,0.003-0.284,0.009s-0.143,0.013-0.199,0.02
			c-0.057,0.008-0.106,0.016-0.149,0.023s-0.088,0.014-0.135,0.018V177.651z"/>
		<path fill="#12110C" d="M336.766,180.844l0.914-0.152v-6.984l-0.902-0.17v-0.826h4.008v0.826l-1.113,0.17v6.914h2.309l0.773-2.332
			l1.096,0.164l-0.346,3.176h-6.738V180.844z"/>
		<path fill="#12110C" d="M344.35,180.844l0.703-0.151l2.707-7.981h2.068l2.725,7.987l0.68,0.146v0.785h-3.709v-0.785l0.844-0.152
			l-0.422-1.447h-2.947l-0.41,1.471l0.932,0.129v0.785h-3.158L344.35,180.844z M349.682,178.342l-1.061-3.57l-0.182-0.813
			l-0.182,0.813l-1.008,3.57H349.682z"/>
		<path fill="#12110C" d="M354.08,180.844l0.949-0.146v-6.996l-0.949-0.164v-0.826h2.924l3.41,5.174l0.639,1.359v-5.549
			l-1.031-0.158v-0.826h3.082v0.826l-0.926,0.164v7.928h-1.629l-3.592-5.49l-0.797-1.605v6.164l1.23,0.146v0.785h-3.311V180.844z"/>
		<path fill="#12110C" d="M365.713,180.844l1.506-0.152v-7.066h-1.512l-0.486,2.631h-1.113l0.176-3.545h7.775l0.17,3.545h-1.072
			l-0.516-2.631h-1.418v7.061l1.641,0.158v0.785h-5.15V180.844z"/>
		<path fill="#12110C" d="M373.854,178.935h1.096l0.299,1.442c0.09,0.106,0.255,0.202,0.495,0.287c0.24,0.085,0.53,0.128,0.87,0.128
			c0.504,0,0.871-0.105,1.102-0.316c0.23-0.211,0.346-0.499,0.346-0.863c0-0.197-0.045-0.375-0.135-0.532
			c-0.09-0.158-0.22-0.304-0.39-0.438s-0.378-0.265-0.624-0.39c-0.246-0.125-0.523-0.258-0.832-0.399
			c-0.152-0.068-0.315-0.148-0.489-0.239c-0.174-0.091-0.345-0.196-0.513-0.313s-0.33-0.25-0.486-0.398s-0.293-0.314-0.41-0.498
			s-0.211-0.387-0.281-0.609s-0.105-0.466-0.105-0.732c0-0.315,0.063-0.615,0.19-0.899c0.127-0.285,0.319-0.536,0.577-0.752
			s0.582-0.388,0.973-0.515c0.391-0.127,0.852-0.191,1.383-0.191c0.332,0,0.634,0.021,0.905,0.062s0.513,0.087,0.724,0.138
			s0.392,0.1,0.542,0.146s0.271,0.074,0.36,0.082l-0.076,2.055h-1.066l-0.287-1.385c-0.027-0.034-0.072-0.068-0.135-0.102
			c-0.062-0.034-0.14-0.065-0.231-0.094s-0.195-0.051-0.311-0.068s-0.237-0.025-0.366-0.025c-0.234,0-0.434,0.027-0.598,0.083
			s-0.299,0.13-0.404,0.225s-0.182,0.209-0.229,0.342s-0.07,0.275-0.07,0.427c0,0.213,0.054,0.403,0.161,0.57
			s0.255,0.322,0.442,0.464c0.188,0.143,0.408,0.279,0.662,0.41s0.527,0.267,0.82,0.407c0.246,0.122,0.504,0.257,0.773,0.407
			s0.517,0.328,0.741,0.532c0.225,0.205,0.41,0.442,0.557,0.712s0.22,0.581,0.22,0.934c0,0.194-0.023,0.392-0.07,0.595
			s-0.124,0.401-0.231,0.595c-0.107,0.193-0.247,0.376-0.419,0.547c-0.172,0.17-0.383,0.321-0.633,0.45s-0.542,0.231-0.876,0.308
			c-0.334,0.076-0.716,0.114-1.146,0.114c-0.363,0-0.702-0.026-1.017-0.079s-0.597-0.111-0.847-0.176s-0.465-0.125-0.645-0.182
			s-0.318-0.089-0.416-0.097L373.854,178.935z"/>
	</g>
	<polygon fill="none" stroke="#BCA796" stroke-miterlimit="10" points="347.379,150.472 327.681,150.472 288.872,150.472 
		288.872,192.197 327.681,192.197 347.379,192.197 386.187,192.197 386.187,150.472 	"/>
	<polygon opacity="0.75" fill="#A7C8AF" points="557.93,49.423 635.381,182.254 622.788,299.511 513.205,268.638 442.706,174.467 	
		"/>
	<g>
		<path fill="#B9A596" d="M653.423,287.578h-23.372c-0.86,0-1.558,0.698-1.558,1.558v14.023c0,0.86,0.698,1.558,1.558,1.558h23.372
			c0.86,0,1.558-0.698,1.558-1.558v-14.023C654.981,288.276,654.283,287.578,653.423,287.578z"/>
		<path fill="#BBA696" d="M631.362,299.736l-2.423,2.423c-0.123,0.123-0.323,0.123-0.446,0l-2.423-2.423
			c-0.122-0.123-0.122-0.323,0-0.446l2.423-2.423c0.123-0.123,0.323-0.123,0.446,0l2.423,2.423
			C631.484,299.413,631.484,299.613,631.362,299.736z"/>
		<g>
			<g>
				<path fill="#12110C" d="M636.095,297.264c0-0.167,0.028-0.331,0.087-0.491c0.058-0.161,0.144-0.314,0.258-0.459
					s0.258-0.279,0.431-0.401c0.172-0.123,0.372-0.233,0.601-0.329c-0.152-0.1-0.295-0.208-0.428-0.328
					c-0.132-0.119-0.247-0.252-0.345-0.397c-0.098-0.145-0.176-0.307-0.233-0.486s-0.087-0.38-0.087-0.602
					c0-0.281,0.062-0.532,0.186-0.754c0.123-0.222,0.289-0.408,0.496-0.559c0.207-0.151,0.447-0.267,0.72-0.346
					c0.273-0.079,0.559-0.119,0.857-0.119c0.333,0,0.632,0.038,0.899,0.112c0.267,0.075,0.493,0.18,0.681,0.313
					s0.332,0.294,0.433,0.48s0.15,0.391,0.15,0.612c0,0.16-0.025,0.316-0.077,0.47c-0.052,0.152-0.128,0.3-0.227,0.439
					c-0.1,0.14-0.223,0.271-0.37,0.394c-0.148,0.124-0.318,0.234-0.51,0.334c0.204,0.114,0.401,0.235,0.592,0.364
					c0.19,0.128,0.359,0.271,0.505,0.43c0.146,0.157,0.264,0.334,0.353,0.53c0.088,0.195,0.133,0.417,0.133,0.662
					c0,0.28-0.068,0.532-0.204,0.756s-0.32,0.415-0.556,0.572c-0.234,0.158-0.511,0.278-0.827,0.362
					c-0.317,0.083-0.655,0.125-1.016,0.125c-0.201,0-0.403-0.014-0.605-0.04c-0.203-0.026-0.396-0.067-0.581-0.125
					c-0.185-0.057-0.356-0.13-0.517-0.22c-0.16-0.089-0.3-0.195-0.419-0.32c-0.118-0.124-0.212-0.268-0.278-0.43
					C636.129,297.652,636.095,297.469,636.095,297.264z M637.343,297.005c0,0.188,0.026,0.363,0.08,0.524s0.134,0.301,0.24,0.418
					s0.24,0.21,0.4,0.276s0.345,0.1,0.556,0.1c0.149,0,0.289-0.021,0.42-0.065c0.132-0.043,0.247-0.105,0.346-0.187
					s0.177-0.181,0.233-0.298c0.057-0.118,0.084-0.249,0.084-0.394c0-0.187-0.051-0.349-0.152-0.487
					c-0.103-0.14-0.236-0.268-0.4-0.384c-0.165-0.115-0.353-0.225-0.562-0.328c-0.211-0.103-0.423-0.211-0.636-0.324
					c-0.18,0.131-0.326,0.293-0.439,0.487C637.4,296.538,637.343,296.759,637.343,297.005z M639.086,294.896
					c0.092-0.073,0.173-0.154,0.245-0.244c0.071-0.09,0.133-0.183,0.183-0.278c0.051-0.096,0.089-0.194,0.114-0.295
					c0.026-0.101,0.039-0.199,0.039-0.297c0-0.393-0.092-0.689-0.274-0.892c-0.183-0.203-0.438-0.304-0.764-0.304
					c-0.137,0-0.265,0.018-0.382,0.055c-0.117,0.036-0.219,0.091-0.304,0.164c-0.086,0.073-0.153,0.163-0.201,0.27
					c-0.049,0.106-0.073,0.229-0.073,0.369c0,0.162,0.038,0.31,0.114,0.443s0.18,0.258,0.311,0.372s0.282,0.223,0.453,0.326
					S638.897,294.792,639.086,294.896z"/>
				<path fill="#12110C" d="M641.862,298.401c0.118-0.22,0.252-0.481,0.399-0.785c0.148-0.305,0.304-0.632,0.467-0.981
					c0.163-0.351,0.328-0.713,0.494-1.089s0.327-0.743,0.484-1.103s0.305-0.7,0.443-1.022s0.261-0.607,0.364-0.854h0.334
					l1.184,0.639l-2.392,4.286l-0.42,0.621h2.08l0.097-1.688l1.188-0.096v1.593h1.065v1.022h-1.065v1.497h-1.29v-1.497h-3.086
					L641.862,298.401z"/>
			</g>
		</g>
	</g>
	<path fill="#B9A596" d="M647.067,158.887h-23.372c-0.86,0-1.558,0.698-1.558,1.558v14.023c0,0.86,0.698,1.558,1.558,1.558h23.372
		c0.86,0,1.558-0.698,1.558-1.558v-14.023C648.625,159.585,647.927,158.887,647.067,158.887z"/>
	<path fill="#BBA696" d="M638.027,176.249l-2.423,2.423c-0.123,0.123-0.323,0.123-0.446,0l-2.423-2.423
		c-0.122-0.123-0.122-0.323,0-0.446l2.423-2.423c0.123-0.123,0.323-0.123,0.446,0l2.423,2.423
		C638.149,175.926,638.149,176.126,638.027,176.249z"/>
	<g>
		<g>
			<path fill="#12110C" d="M630.433,171.038c0.093,0,0.183,0,0.268,0c0.311,0,0.603-0.051,0.876-0.152
				c0.272-0.102,0.511-0.24,0.716-0.417c0.204-0.176,0.364-0.383,0.482-0.621c0.117-0.238,0.176-0.495,0.176-0.771
				c0-0.23-0.03-0.422-0.092-0.575c-0.061-0.153-0.146-0.275-0.258-0.367c-0.111-0.091-0.246-0.154-0.402-0.19
				c-0.157-0.037-0.33-0.055-0.52-0.055c-0.101,0-0.206,0.008-0.315,0.022c-0.109,0.016-0.217,0.036-0.322,0.062
				c-0.105,0.026-0.206,0.055-0.302,0.087s-0.181,0.066-0.254,0.103l-0.343-0.241l0.421-3.451h2.977l0.096-0.179h0.654l-0.206,1.283
				h-2.556l-0.344,1.785c0.076-0.04,0.165-0.081,0.266-0.124c0.101-0.042,0.212-0.082,0.334-0.118
				c0.122-0.037,0.254-0.067,0.396-0.092s0.29-0.036,0.445-0.036c0.644,0,1.133,0.153,1.469,0.461
				c0.335,0.308,0.503,0.763,0.503,1.365c0,0.426-0.096,0.818-0.286,1.178c-0.19,0.358-0.454,0.669-0.791,0.931
				s-0.736,0.466-1.198,0.611c-0.462,0.146-0.963,0.22-1.502,0.22c-0.104,0-0.212-0.005-0.325-0.014
				c-0.112-0.01-0.223-0.026-0.329-0.051l0.005-0.671C630.253,171.032,630.341,171.038,630.433,171.038z"/>
			<path fill="#12110C" d="M635.754,167.327c0-0.423,0.057-0.824,0.169-1.203c0.113-0.379,0.267-0.73,0.46-1.055
				s0.42-0.617,0.679-0.881c0.26-0.263,0.535-0.491,0.828-0.685s0.596-0.35,0.908-0.468c0.312-0.119,0.619-0.196,0.921-0.232
				l0.293,0.552c-0.332,0.101-0.633,0.236-0.901,0.408c-0.268,0.173-0.506,0.371-0.713,0.596c-0.208,0.226-0.385,0.473-0.53,0.742
				c-0.146,0.27-0.263,0.55-0.348,0.842c0.07-0.055,0.149-0.108,0.24-0.161c0.09-0.054,0.19-0.101,0.302-0.14
				c0.111-0.04,0.234-0.071,0.37-0.096s0.284-0.037,0.446-0.037c0.302,0,0.574,0.049,0.818,0.146
				c0.243,0.098,0.451,0.237,0.622,0.42c0.17,0.183,0.302,0.404,0.393,0.666c0.092,0.262,0.138,0.558,0.138,0.886
				c0,0.341-0.055,0.67-0.165,0.986c-0.109,0.316-0.271,0.597-0.484,0.84c-0.214,0.243-0.479,0.438-0.796,0.584
				c-0.317,0.146-0.683,0.22-1.098,0.22c-0.414,0-0.78-0.075-1.098-0.227c-0.316-0.15-0.583-0.358-0.798-0.623
				s-0.378-0.575-0.489-0.931C635.809,168.121,635.754,167.737,635.754,167.327z M638.356,169.637c0.164,0,0.308-0.048,0.43-0.144
				s0.224-0.224,0.307-0.382c0.082-0.158,0.143-0.34,0.183-0.545c0.039-0.206,0.06-0.418,0.06-0.637c0-0.299-0.024-0.552-0.073-0.76
				c-0.049-0.209-0.117-0.379-0.204-0.51c-0.086-0.131-0.19-0.226-0.311-0.285s-0.251-0.089-0.391-0.089
				c-0.11,0-0.215,0.011-0.315,0.032s-0.194,0.049-0.279,0.084c-0.086,0.035-0.162,0.075-0.229,0.119
				c-0.067,0.044-0.124,0.089-0.169,0.135c-0.016,0.1-0.027,0.201-0.035,0.303c-0.007,0.103-0.011,0.203-0.011,0.304
				c-0.007,0.348,0.007,0.666,0.038,0.957c0.032,0.29,0.09,0.541,0.172,0.751s0.191,0.373,0.327,0.49
				S638.158,169.637,638.356,169.637z"/>
		</g>
	</g>
	<path fill="#B9A596" d="M589.143,38.642h-23.372c-0.86,0-1.558,0.698-1.558,1.558v14.023c0,0.86,0.698,1.558,1.558,1.558h23.372
		c0.86,0,1.558-0.698,1.558-1.558V40.2C590.701,39.34,590.004,38.642,589.143,38.642z"/>
	<path fill="#BBA696" d="M566.859,49.813l-2.423,2.423c-0.123,0.123-0.323,0.123-0.446,0l-2.423-2.423
		c-0.122-0.123-0.122-0.323,0-0.446l2.423-2.423c0.123-0.123,0.323-0.123,0.446,0l2.423,2.423
		C566.982,49.49,566.982,49.69,566.859,49.813z"/>
	<g>
		<g>
			<path fill="#12110C" d="M569.601,49.401l1.102-0.128v-3.688c-0.055,0.019-0.136,0.038-0.242,0.06s-0.22,0.042-0.338,0.061
				c-0.119,0.019-0.234,0.035-0.346,0.051c-0.111,0.015-0.199,0.022-0.263,0.022l-0.119-0.724c0.18-0.036,0.364-0.088,0.554-0.155
				c0.188-0.066,0.372-0.142,0.549-0.226s0.342-0.174,0.496-0.27c0.153-0.096,0.287-0.19,0.399-0.285h0.005l0.851,0.096v5.058
				l0.965,0.128v0.607h-3.612V49.401z"/>
			<path fill="#12110C" d="M573.894,47.05c0.003-0.518,0.08-0.966,0.229-1.347c0.148-0.38,0.349-0.694,0.599-0.942
				s0.539-0.433,0.866-0.555c0.328-0.122,0.672-0.183,1.031-0.183c0.402,0,0.757,0.063,1.062,0.191s0.56,0.315,0.764,0.562
				c0.204,0.247,0.357,0.55,0.459,0.911c0.103,0.36,0.153,0.773,0.153,1.239c0,0.515-0.073,0.965-0.22,1.351
				c-0.146,0.387-0.343,0.709-0.59,0.966c-0.246,0.257-0.533,0.449-0.859,0.577s-0.672,0.192-1.038,0.192
				c-0.399,0-0.752-0.068-1.059-0.203c-0.307-0.136-0.563-0.331-0.771-0.587s-0.363-0.566-0.469-0.934
				C573.947,47.923,573.894,47.51,573.894,47.05z M576.497,49.397c0.351,0,0.602-0.195,0.752-0.585
				c0.151-0.39,0.227-0.979,0.227-1.771c0-0.423-0.018-0.787-0.053-1.091c-0.035-0.305-0.092-0.555-0.171-0.749
				c-0.08-0.194-0.182-0.338-0.307-0.429c-0.125-0.092-0.279-0.138-0.462-0.138c-0.354,0-0.61,0.189-0.771,0.568
				s-0.24,0.957-0.24,1.732c0,0.834,0.08,1.452,0.24,1.855S576.133,49.397,576.497,49.397z"/>
			<path fill="#12110C" d="M580.174,47.083c0-0.423,0.057-0.824,0.169-1.203c0.113-0.379,0.267-0.73,0.46-1.055
				s0.42-0.617,0.679-0.881c0.26-0.263,0.535-0.491,0.828-0.685s0.596-0.35,0.908-0.468c0.312-0.119,0.619-0.196,0.921-0.232
				l0.293,0.552c-0.332,0.101-0.633,0.236-0.901,0.408c-0.268,0.173-0.506,0.371-0.713,0.596c-0.208,0.226-0.385,0.473-0.53,0.742
				c-0.146,0.27-0.263,0.55-0.348,0.842c0.07-0.055,0.149-0.108,0.24-0.161c0.09-0.054,0.19-0.101,0.302-0.14
				c0.111-0.04,0.234-0.071,0.37-0.096s0.284-0.037,0.446-0.037c0.302,0,0.574,0.049,0.818,0.146
				c0.243,0.098,0.451,0.237,0.622,0.42c0.17,0.183,0.302,0.404,0.393,0.666c0.092,0.262,0.138,0.558,0.138,0.886
				c0,0.341-0.055,0.67-0.165,0.986c-0.109,0.316-0.271,0.597-0.484,0.84c-0.214,0.243-0.479,0.438-0.796,0.584
				c-0.317,0.146-0.683,0.22-1.098,0.22c-0.414,0-0.78-0.075-1.098-0.227c-0.316-0.15-0.583-0.358-0.798-0.623
				s-0.378-0.575-0.489-0.931C580.229,47.876,580.174,47.493,580.174,47.083z M582.776,49.392c0.164,0,0.308-0.048,0.43-0.144
				s0.224-0.224,0.307-0.382c0.082-0.158,0.143-0.34,0.183-0.545c0.039-0.206,0.06-0.418,0.06-0.637c0-0.299-0.024-0.552-0.073-0.76
				c-0.049-0.209-0.117-0.379-0.204-0.51c-0.086-0.131-0.19-0.226-0.311-0.285s-0.251-0.089-0.391-0.089
				c-0.11,0-0.215,0.011-0.315,0.032s-0.194,0.049-0.279,0.084c-0.086,0.035-0.162,0.075-0.229,0.119
				c-0.067,0.044-0.124,0.089-0.169,0.135c-0.016,0.1-0.027,0.201-0.035,0.303c-0.007,0.103-0.011,0.203-0.011,0.304
				c-0.007,0.348,0.007,0.666,0.038,0.957c0.032,0.29,0.09,0.541,0.172,0.751s0.191,0.373,0.327,0.49S582.578,49.392,582.776,49.392
				z"/>
		</g>
	</g>
	<path fill="#B9A596" d="M454.391,150.389H431.02c-0.86,0-1.558,0.698-1.558,1.558v14.023c0,0.86,0.698,1.558,1.558,1.558h23.372
		c0.86,0,1.558-0.698,1.558-1.558v-14.023C455.95,151.087,455.252,150.389,454.391,150.389z"/>
	<path fill="#BBA696" d="M445.351,167.751l-2.423,2.423c-0.123,0.123-0.323,0.123-0.446,0l-2.423-2.423
		c-0.123-0.123-0.123-0.323,0-0.446l2.423-2.423c0.123-0.123,0.323-0.123,0.446,0l2.423,2.423
		C445.474,167.428,445.474,167.628,445.351,167.751z"/>
	<g>
		<g>
			<path fill="#12110C" d="M437.541,160.075c0-0.167,0.028-0.331,0.087-0.491c0.058-0.161,0.144-0.314,0.258-0.459
				s0.258-0.279,0.431-0.401c0.172-0.123,0.372-0.233,0.601-0.329c-0.152-0.1-0.295-0.208-0.428-0.328
				c-0.132-0.119-0.247-0.252-0.345-0.397c-0.098-0.145-0.176-0.307-0.233-0.486s-0.087-0.38-0.087-0.602
				c0-0.281,0.062-0.532,0.186-0.754c0.123-0.222,0.289-0.408,0.496-0.559c0.207-0.151,0.447-0.267,0.72-0.346
				c0.273-0.079,0.559-0.119,0.857-0.119c0.333,0,0.632,0.038,0.899,0.112c0.267,0.075,0.493,0.18,0.681,0.313
				s0.332,0.294,0.433,0.48s0.15,0.391,0.15,0.612c0,0.16-0.025,0.316-0.077,0.47c-0.052,0.152-0.128,0.3-0.227,0.439
				c-0.1,0.14-0.223,0.271-0.37,0.394c-0.148,0.124-0.318,0.234-0.51,0.334c0.204,0.114,0.401,0.235,0.592,0.364
				c0.19,0.128,0.359,0.271,0.505,0.43c0.146,0.157,0.264,0.334,0.353,0.53c0.088,0.195,0.133,0.417,0.133,0.662
				c0,0.28-0.068,0.532-0.204,0.756s-0.32,0.415-0.556,0.572c-0.234,0.158-0.511,0.278-0.827,0.362
				c-0.317,0.083-0.655,0.125-1.016,0.125c-0.201,0-0.403-0.014-0.605-0.04c-0.203-0.026-0.396-0.067-0.581-0.125
				c-0.185-0.057-0.356-0.13-0.517-0.22c-0.16-0.089-0.3-0.195-0.419-0.32c-0.118-0.124-0.212-0.268-0.278-0.43
				C437.574,160.463,437.541,160.28,437.541,160.075z M438.789,159.816c0,0.188,0.026,0.363,0.08,0.524s0.134,0.301,0.24,0.418
				s0.24,0.21,0.4,0.276s0.345,0.1,0.556,0.1c0.149,0,0.289-0.021,0.42-0.065c0.132-0.043,0.247-0.105,0.346-0.187
				s0.177-0.181,0.233-0.298c0.057-0.118,0.084-0.249,0.084-0.394c0-0.187-0.051-0.349-0.152-0.487
				c-0.103-0.14-0.236-0.268-0.4-0.384c-0.165-0.115-0.353-0.225-0.562-0.328c-0.211-0.103-0.423-0.211-0.636-0.324
				c-0.18,0.131-0.326,0.293-0.439,0.487C438.846,159.349,438.789,159.57,438.789,159.816z M440.531,157.707
				c0.092-0.073,0.173-0.154,0.245-0.244c0.071-0.09,0.133-0.183,0.183-0.278c0.051-0.096,0.089-0.194,0.114-0.295
				c0.026-0.101,0.039-0.199,0.039-0.297c0-0.393-0.092-0.689-0.274-0.892c-0.183-0.203-0.438-0.304-0.764-0.304
				c-0.137,0-0.265,0.018-0.382,0.055c-0.117,0.036-0.219,0.091-0.304,0.164c-0.086,0.073-0.153,0.163-0.201,0.27
				c-0.049,0.106-0.073,0.229-0.073,0.369c0,0.162,0.038,0.31,0.114,0.443s0.18,0.258,0.311,0.372s0.282,0.223,0.453,0.326
				S440.343,157.603,440.531,157.707z"/>
			<path fill="#12110C" d="M443.906,162.413c0.146,0.021,0.307,0.032,0.48,0.032c0.305,0,0.58-0.038,0.825-0.112
				c0.245-0.075,0.453-0.18,0.624-0.312c0.171-0.134,0.303-0.292,0.396-0.476c0.094-0.185,0.14-0.384,0.14-0.598
				c0-0.393-0.106-0.693-0.32-0.903c-0.213-0.21-0.544-0.314-0.992-0.314l-0.553,0.109l-0.215-0.635
				c0.137-0.019,0.268-0.048,0.393-0.089s0.245-0.084,0.361-0.13c0.356-0.165,0.623-0.367,0.798-0.607
				c0.176-0.24,0.264-0.491,0.264-0.753c0-0.152-0.025-0.28-0.076-0.384c-0.05-0.104-0.118-0.187-0.205-0.249
				c-0.087-0.062-0.188-0.106-0.3-0.135c-0.113-0.027-0.229-0.041-0.348-0.041c-0.152,0-0.297,0.014-0.433,0.041
				c-0.135,0.028-0.26,0.062-0.375,0.105c-0.114,0.043-0.219,0.091-0.312,0.144c-0.095,0.054-0.177,0.106-0.247,0.158l-0.356-0.621
				c0.076-0.073,0.188-0.155,0.338-0.247c0.149-0.091,0.322-0.176,0.52-0.253c0.196-0.078,0.409-0.144,0.638-0.196
				c0.229-0.054,0.462-0.08,0.699-0.08c0.287,0,0.554,0.029,0.801,0.087s0.462,0.147,0.645,0.27
				c0.183,0.121,0.327,0.279,0.433,0.473c0.104,0.192,0.157,0.424,0.157,0.691c0,0.24-0.049,0.463-0.146,0.669
				c-0.098,0.205-0.229,0.391-0.396,0.557s-0.357,0.311-0.573,0.436c-0.217,0.125-0.444,0.229-0.682,0.311
				c0.311-0.027,0.598-0.011,0.862,0.05c0.264,0.062,0.491,0.159,0.684,0.293c0.191,0.134,0.342,0.301,0.45,0.502
				c0.108,0.2,0.162,0.428,0.162,0.68c0,0.335-0.075,0.646-0.227,0.934c-0.15,0.288-0.37,0.538-0.658,0.751s-0.64,0.38-1.054,0.5
				c-0.415,0.12-0.883,0.18-1.404,0.18c-0.101,0-0.207-0.004-0.32-0.014c-0.112-0.009-0.224-0.021-0.331-0.038
				c-0.108-0.017-0.211-0.035-0.307-0.055c-0.096-0.021-0.178-0.041-0.245-0.062v-0.758
				C443.624,162.361,443.76,162.391,443.906,162.413z"/>
		</g>
	</g>
	<path fill="#B9A596" d="M505.799,262.608h-23.372c-0.86,0-1.558,0.698-1.558,1.558v14.023c0,0.86,0.698,1.558,1.558,1.558h23.372
		c0.86,0,1.558-0.698,1.558-1.558v-14.023C507.358,263.306,506.66,262.608,505.799,262.608z"/>
	<path fill="#BBA696" d="M507.58,265.917l2.423,2.423c0.123,0.123,0.123,0.323,0,0.446l-2.423,2.423
		c-0.123,0.123-0.323,0.123-0.446,0l-2.423-2.423c-0.123-0.123-0.123-0.323,0-0.446l2.423-2.423
		C507.257,265.794,507.458,265.794,507.58,265.917z"/>
	<g>
		<g>
			<path fill="#12110C" d="M489.264,274.759c0.093,0,0.183,0,0.268,0c0.311,0,0.603-0.051,0.876-0.152
				c0.272-0.102,0.511-0.24,0.716-0.417c0.204-0.176,0.364-0.383,0.482-0.621c0.117-0.238,0.176-0.495,0.176-0.771
				c0-0.23-0.03-0.422-0.092-0.575c-0.061-0.153-0.146-0.275-0.258-0.367c-0.111-0.091-0.246-0.154-0.402-0.19
				c-0.157-0.037-0.33-0.055-0.52-0.055c-0.101,0-0.206,0.008-0.315,0.022c-0.109,0.016-0.217,0.036-0.322,0.062
				c-0.105,0.026-0.206,0.055-0.302,0.087s-0.181,0.066-0.254,0.103l-0.343-0.241l0.421-3.451h2.977l0.096-0.179h0.654l-0.206,1.283
				h-2.556l-0.344,1.785c0.076-0.04,0.165-0.081,0.266-0.124c0.101-0.042,0.212-0.082,0.334-0.118
				c0.122-0.037,0.254-0.067,0.396-0.092s0.29-0.036,0.445-0.036c0.644,0,1.133,0.153,1.469,0.461
				c0.335,0.308,0.503,0.763,0.503,1.365c0,0.426-0.096,0.818-0.286,1.178c-0.19,0.358-0.454,0.669-0.791,0.931
				s-0.736,0.466-1.198,0.611c-0.462,0.146-0.963,0.22-1.502,0.22c-0.104,0-0.212-0.005-0.325-0.014
				c-0.112-0.01-0.223-0.026-0.329-0.051l0.005-0.671C489.084,274.753,489.172,274.759,489.264,274.759z"/>
			<path fill="#12110C" d="M494.475,272.293c0-0.167,0.028-0.331,0.087-0.491c0.058-0.161,0.144-0.314,0.258-0.459
				s0.258-0.279,0.431-0.401c0.172-0.123,0.372-0.233,0.601-0.329c-0.152-0.1-0.295-0.208-0.428-0.328
				c-0.132-0.119-0.247-0.252-0.345-0.397c-0.098-0.145-0.176-0.307-0.233-0.486s-0.087-0.38-0.087-0.602
				c0-0.281,0.062-0.532,0.186-0.754c0.123-0.222,0.289-0.408,0.496-0.559c0.207-0.151,0.447-0.267,0.72-0.346
				c0.273-0.079,0.559-0.119,0.857-0.119c0.333,0,0.632,0.038,0.899,0.112c0.267,0.075,0.493,0.18,0.681,0.313
				s0.332,0.294,0.433,0.48s0.15,0.391,0.15,0.612c0,0.16-0.025,0.316-0.077,0.47c-0.052,0.152-0.128,0.3-0.227,0.439
				c-0.1,0.14-0.223,0.271-0.37,0.394c-0.148,0.124-0.318,0.234-0.51,0.334c0.204,0.114,0.401,0.235,0.592,0.364
				c0.19,0.128,0.359,0.271,0.505,0.43c0.146,0.157,0.264,0.334,0.353,0.53c0.088,0.195,0.133,0.417,0.133,0.662
				c0,0.28-0.068,0.532-0.204,0.756s-0.32,0.415-0.556,0.572c-0.234,0.158-0.511,0.278-0.827,0.362
				c-0.317,0.083-0.655,0.125-1.016,0.125c-0.201,0-0.403-0.014-0.605-0.04c-0.203-0.026-0.396-0.067-0.581-0.125
				c-0.185-0.057-0.356-0.13-0.517-0.22c-0.16-0.089-0.3-0.195-0.419-0.32c-0.118-0.124-0.212-0.268-0.278-0.43
				C494.508,272.682,494.475,272.498,494.475,272.293z M495.723,272.034c0,0.188,0.026,0.363,0.08,0.524s0.134,0.301,0.24,0.418
				s0.24,0.21,0.4,0.276s0.345,0.1,0.556,0.1c0.149,0,0.289-0.021,0.42-0.065c0.132-0.043,0.247-0.105,0.346-0.187
				s0.177-0.181,0.233-0.298c0.057-0.118,0.084-0.249,0.084-0.394c0-0.187-0.051-0.349-0.152-0.487
				c-0.103-0.14-0.236-0.268-0.4-0.384c-0.165-0.115-0.353-0.225-0.562-0.328c-0.211-0.103-0.423-0.211-0.636-0.324
				c-0.18,0.131-0.326,0.293-0.439,0.487C495.78,271.567,495.723,271.788,495.723,272.034z M497.465,269.925
				c0.092-0.073,0.173-0.154,0.245-0.244c0.071-0.09,0.133-0.183,0.183-0.278c0.051-0.096,0.089-0.194,0.114-0.295
				c0.026-0.101,0.039-0.199,0.039-0.297c0-0.393-0.092-0.689-0.274-0.892c-0.183-0.203-0.438-0.304-0.764-0.304
				c-0.137,0-0.265,0.018-0.382,0.055c-0.117,0.036-0.219,0.091-0.304,0.164c-0.086,0.073-0.153,0.163-0.201,0.27
				c-0.049,0.106-0.073,0.229-0.073,0.369c0,0.162,0.038,0.31,0.114,0.443s0.18,0.258,0.311,0.372s0.282,0.223,0.453,0.326
				S497.277,269.821,497.465,269.925z"/>
		</g>
	</g>
	<path opacity="0.7" fill="#E5DCD6" d="M208.043,374.527H1.457c-0.805,0-1.457-0.653-1.457-1.457v-57.424
		c0-0.805,0.653-1.457,1.457-1.457h206.585c0.805,0,1.457,0.653,1.457,1.457v57.424C209.5,373.874,208.847,374.527,208.043,374.527z
		"/>
	<g>
		<g>
			<g>
				<line fill="none" stroke="#BCA796" stroke-miterlimit="10" x1="20.025" y1="338.14" x2="20.025" y2="335.306"/>
				<line fill="none" stroke="#BCA796" stroke-miterlimit="10" x1="34.199" y1="338.14" x2="34.199" y2="335.306"/>
			</g>
			<line fill="none" stroke="#BCA796" stroke-miterlimit="10" x1="20.025" y1="336.723" x2="34.199" y2="336.723"/>
		</g>
	</g>
	<g>
		<path fill="#262625" d="M49.346,340.619v-8.376l-2.311,1.694v-1.33l2.381-1.724h1.148v9.735H49.346z"/>
		<path fill="#262625" d="M59.974,339.975c-0.477,0.477-1.135,0.827-2.102,0.827c-0.966,0-1.625-0.351-2.101-0.827
			c-0.98-0.994-1.148-2.353-1.148-4.229s0.168-3.25,1.148-4.245c0.477-0.476,1.135-0.812,2.101-0.812
			c0.967,0,1.625,0.336,2.102,0.812c0.98,0.995,1.148,2.368,1.148,4.245S60.954,338.98,59.974,339.975z M59.077,332.229
			c-0.28-0.266-0.687-0.448-1.205-0.448c-0.518,0-0.924,0.183-1.205,0.448c-0.826,0.785-0.798,2.199-0.798,3.517
			c0,1.316-0.028,2.731,0.798,3.516c0.28,0.266,0.687,0.448,1.205,0.448c0.519,0,0.925-0.183,1.205-0.448
			c0.826-0.784,0.798-2.199,0.798-3.516C59.876,334.428,59.903,333.014,59.077,332.229z"/>
		<path fill="#262625" d="M71.158,340.802c-2.227,0-3.628-1.345-3.628-3.824v-6.289h1.247v6.317c0,1.582,0.659,2.633,2.381,2.633
			c1.723,0,2.381-1.051,2.381-2.633v-6.317h1.247v6.289C74.786,339.457,73.385,340.802,71.158,340.802z"/>
		<path fill="#262625" d="M84.081,340.619l-4.875-7.984v7.984h-1.205v-9.931h1.4l4.875,8.012v-8.012h1.205v9.931H84.081z"/>
		<path fill="#262625" d="M88.978,340.619v-9.931h1.274v9.931H88.978z"/>
		<path fill="#262625" d="M96.75,331.851v8.769h-1.261v-8.769h-2.956v-1.162h7.172v1.162H96.75z"/>
		<path fill="#262625" d="M107.657,339.807c-0.687,0.673-1.751,0.995-2.815,0.995c-1.205,0-2.171-0.337-2.844-0.953
			c-0.63-0.588-1.064-1.442-1.064-2.381h1.303c0,0.588,0.294,1.177,0.7,1.568c0.448,0.435,1.205,0.617,1.905,0.617
			c0.756,0,1.401-0.154,1.849-0.575c0.308-0.279,0.504-0.63,0.504-1.162c0-0.771-0.49-1.415-1.667-1.597l-1.569-0.238
			c-1.484-0.225-2.647-1.051-2.647-2.634c0-0.742,0.336-1.456,0.868-1.961c0.687-0.645,1.569-0.98,2.605-0.98
			c0.966,0,1.919,0.322,2.577,0.952c0.603,0.575,0.925,1.289,0.953,2.13h-1.303c-0.028-0.49-0.21-0.925-0.49-1.247
			c-0.378-0.435-0.98-0.687-1.751-0.687c-0.714,0-1.331,0.196-1.765,0.687c-0.252,0.294-0.406,0.631-0.406,1.079
			c0,0.896,0.742,1.303,1.485,1.4c0.56,0.07,1.106,0.168,1.653,0.252c1.653,0.238,2.759,1.247,2.759,2.815
			C108.497,338.715,108.147,339.331,107.657,339.807z"/>
	</g>
	<g>
		<path fill="#262625" d="M48.229,360.175c-1.307-1.476-2.015-3.622-2.015-5.565c0-1.942,0.708-4.09,2.015-5.564l0.636,0.443
			c-1.151,1.523-1.763,3.143-1.763,5.121c0,1.979,0.612,3.599,1.763,5.121L48.229,360.175z"/>
		<path fill="#262625" d="M53.017,358.472V351.3l-1.979,1.451v-1.14l2.039-1.476h0.983v8.336H53.017z"/>
		<path fill="#262625" d="M62.124,357.92c-0.408,0.407-0.972,0.707-1.799,0.707c-0.828,0-1.392-0.3-1.799-0.707
			c-0.839-0.852-0.983-2.015-0.983-3.622s0.144-2.782,0.983-3.634c0.408-0.408,0.972-0.696,1.799-0.696
			c0.827,0,1.391,0.288,1.799,0.696c0.839,0.852,0.983,2.026,0.983,3.634S62.963,357.068,62.124,357.92z M61.356,351.287
			c-0.24-0.228-0.588-0.384-1.031-0.384c-0.444,0-0.792,0.156-1.032,0.384c-0.708,0.672-0.684,1.883-0.684,3.011
			c0,1.127-0.024,2.339,0.684,3.01c0.24,0.229,0.588,0.384,1.032,0.384c0.443,0,0.792-0.155,1.031-0.384
			c0.708-0.671,0.684-1.883,0.684-3.01C62.04,353.17,62.064,351.959,61.356,351.287z"/>
		<path fill="#262625" d="M71.712,358.627c-1.907,0-3.106-1.151-3.106-3.273v-5.386h1.067v5.409c0,1.355,0.563,2.255,2.039,2.255
			c1.475,0,2.039-0.899,2.039-2.255v-5.409h1.067v5.386C74.818,357.476,73.618,358.627,71.712,358.627z"/>
		<path fill="#262625" d="M82.786,358.472l-4.173-6.837v6.837h-1.032v-8.504h1.199l4.174,6.86v-6.86h1.032v8.504H82.786z"/>
		<path fill="#262625" d="M86.989,358.472v-8.504h1.091v8.504H86.989z"/>
		<path fill="#262625" d="M93.648,350.964v7.508h-1.08v-7.508h-2.531v-0.996h6.141v0.996H93.648z"/>
		<path fill="#262625" d="M102.994,357.775c-0.587,0.576-1.499,0.852-2.411,0.852c-1.031,0-1.859-0.287-2.435-0.815
			c-0.54-0.504-0.912-1.235-0.912-2.039h1.116c0,0.504,0.251,1.008,0.6,1.344c0.384,0.372,1.031,0.527,1.631,0.527
			c0.648,0,1.2-0.132,1.583-0.491c0.264-0.24,0.432-0.54,0.432-0.996c0-0.659-0.42-1.211-1.427-1.367l-1.343-0.203
			c-1.271-0.192-2.267-0.899-2.267-2.255c0-0.636,0.288-1.247,0.743-1.68c0.588-0.552,1.343-0.839,2.231-0.839
			c0.828,0,1.643,0.275,2.207,0.815c0.516,0.491,0.792,1.104,0.816,1.823h-1.116c-0.024-0.42-0.18-0.792-0.419-1.067
			c-0.324-0.372-0.84-0.588-1.5-0.588c-0.611,0-1.139,0.168-1.511,0.588c-0.216,0.251-0.348,0.539-0.348,0.923
			c0,0.768,0.636,1.115,1.271,1.199c0.479,0.061,0.947,0.145,1.415,0.216c1.416,0.204,2.363,1.067,2.363,2.411
			C103.714,356.841,103.414,357.368,102.994,357.775z"/>
		<path fill="#262625" d="M109.537,354.346v-0.924h5.781v0.924H109.537z M109.537,356.864v-0.924h5.781v0.924H109.537z"/>
		<path fill="#262625" d="M127.271,358.472V351.3l-1.979,1.451v-1.14l2.039-1.476h0.983v8.336H127.271z"/>
		<path fill="#262625" d="M136.378,357.92c-0.408,0.407-0.972,0.707-1.799,0.707c-0.828,0-1.392-0.3-1.799-0.707
			c-0.839-0.852-0.983-2.015-0.983-3.622s0.144-2.782,0.983-3.634c0.408-0.408,0.972-0.696,1.799-0.696
			c0.827,0,1.391,0.288,1.799,0.696c0.839,0.852,0.983,2.026,0.983,3.634S137.217,357.068,136.378,357.92z M135.61,351.287
			c-0.24-0.228-0.588-0.384-1.031-0.384c-0.444,0-0.792,0.156-1.032,0.384c-0.708,0.672-0.684,1.883-0.684,3.011
			c0,1.127-0.024,2.339,0.684,3.01c0.24,0.229,0.588,0.384,1.032,0.384c0.443,0,0.792-0.155,1.031-0.384
			c0.708-0.671,0.684-1.883,0.684-3.01C136.294,353.17,136.318,351.959,135.61,351.287z"/>
		<path fill="#262625" d="M143.099,358.472v-8.504h1.091v8.504H143.099z"/>
		<path fill="#262625" d="M154.327,358.472V351.3l-2.639,7.052h-0.839l-2.639-7.112v7.232h-1.02v-8.504h1.535l2.567,6.921
			l2.554-6.921h1.5v8.504H154.327z"/>
		<path fill="#262625" d="M163.4,358.472l-0.696-2.015h-3.694l-0.684,2.015h-1.079l2.998-8.504h1.248l3.01,8.504H163.4z
			 M160.845,351.035l-1.499,4.414h3.01L160.845,351.035z"/>
		<path fill="#262625" d="M171.548,358.472l-0.18-1.02c-0.42,0.695-1.355,1.188-2.315,1.188c-0.852,0-1.679-0.276-2.291-0.876
			c-0.864-0.84-1.104-2.015-1.104-3.538c0-1.355,0.18-2.603,1.104-3.502c0.611-0.6,1.439-0.911,2.291-0.911
			c0.959,0,1.847,0.336,2.435,0.959c0.408,0.432,0.696,0.972,0.732,1.655h-1.116c-0.036-0.396-0.168-0.672-0.384-0.936
			c-0.384-0.456-0.971-0.672-1.667-0.672c-0.576,0-1.139,0.229-1.547,0.648c-0.695,0.719-0.743,1.87-0.743,2.758
			c0,0.852,0.06,2.075,0.768,2.795c0.408,0.42,0.947,0.611,1.523,0.611c0.6,0,1.164-0.204,1.547-0.588
			c0.563-0.552,0.731-1.379,0.731-2.158h-2.279v-0.996h3.238v4.582H171.548z"/>
		<path fill="#262625" d="M174.982,358.472v-8.504h5.685v0.983h-4.618v2.591h4.054v1.008h-4.054v2.938h4.618v0.983H174.982z"/>
		<path fill="#262625" d="M188.12,357.775c-0.587,0.576-1.499,0.852-2.411,0.852c-1.031,0-1.859-0.287-2.435-0.815
			c-0.54-0.504-0.912-1.235-0.912-2.039h1.116c0,0.504,0.251,1.008,0.6,1.344c0.384,0.372,1.031,0.527,1.631,0.527
			c0.648,0,1.2-0.132,1.583-0.491c0.264-0.24,0.432-0.54,0.432-0.996c0-0.659-0.42-1.211-1.427-1.367l-1.343-0.203
			c-1.271-0.192-2.267-0.899-2.267-2.255c0-0.636,0.288-1.247,0.743-1.68c0.588-0.552,1.343-0.839,2.231-0.839
			c0.828,0,1.643,0.275,2.207,0.815c0.516,0.491,0.792,1.104,0.816,1.823h-1.116c-0.024-0.42-0.18-0.792-0.419-1.067
			c-0.324-0.372-0.84-0.588-1.5-0.588c-0.611,0-1.139,0.168-1.511,0.588c-0.216,0.251-0.348,0.539-0.348,0.923
			c0,0.768,0.636,1.115,1.271,1.199c0.479,0.061,0.947,0.145,1.415,0.216c1.416,0.204,2.363,1.067,2.363,2.411
			C188.84,356.841,188.54,357.368,188.12,357.775z"/>
		<path fill="#262625" d="M190.859,360.175l-0.636-0.444c1.151-1.522,1.763-3.142,1.763-5.121c0-1.979-0.612-3.598-1.763-5.121
			l0.636-0.443c1.308,1.475,2.015,3.622,2.015,5.564C192.874,356.553,192.167,358.699,190.859,360.175z"/>
	</g>
</g>
</svg>
