<?xml version="1.0" encoding="utf-8"?>
<!-- Generator: Adobe Illustrator 17.0.0, SVG Export Plug-In . SVG Version: 6.00 Build 0)  -->
<!DOCTYPE svg PUBLIC "-//W3C//DTD SVG 1.1//EN" "http://www.w3.org/Graphics/SVG/1.1/DTD/svg11.dtd">
<svg version="1.1" id="Livello_1" xmlns="http://www.w3.org/2000/svg" xmlns:xlink="http://www.w3.org/1999/xlink" x="0px" y="0px"
	 width="768px" height="415.789px" viewBox="0 0 768 415.789" enable-background="new 0 0 768 415.789" xml:space="preserve">
<g opacity="0.75">
	<g>
		<g>
			<defs>
				<rect id="SVGID_1_" x="373.341" y="24.83" width="18.75" height="19.339"/>
			</defs>
			<clipPath id="SVGID_2_">
				<use xlink:href="#SVGID_1_"  overflow="visible"/>
			</clipPath>
			
				<line clip-path="url(#SVGID_2_)" fill="none" stroke="#BAA494" stroke-width="0.75" x1="382.716" y1="31.83" x2="382.716" y2="43.169"/>
		</g>
	</g>
</g>
<g opacity="0.75">
	<g>
		<g>
			<defs>
				<rect id="SVGID_3_" x="373.341" y="89.883" width="18.75" height="19.339"/>
			</defs>
			<clipPath id="SVGID_4_">
				<use xlink:href="#SVGID_3_"  overflow="visible"/>
			</clipPath>
			
				<line clip-path="url(#SVGID_4_)" fill="none" stroke="#BAA494" stroke-width="0.75" x1="382.716" y1="102.221" x2="382.716" y2="90.883"/>
		</g>
	</g>
</g>
<g opacity="0.75">
	<g>
		<g>
			<defs>
				<rect id="SVGID_5_" x="373.041" y="122.163" width="18.75" height="19.338"/>
			</defs>
			<clipPath id="SVGID_6_">
				<use xlink:href="#SVGID_5_"  overflow="visible"/>
			</clipPath>
			
				<line clip-path="url(#SVGID_6_)" fill="none" stroke="#BAA494" stroke-width="0.75" x1="382.416" y1="129.163" x2="382.416" y2="140.502"/>
		</g>
	</g>
</g>
<g opacity="0.75">
	<g>
		<g>
			<defs>
				<rect id="SVGID_7_" x="373.041" y="275.733" width="18.75" height="19.339"/>
			</defs>
			<clipPath id="SVGID_8_">
				<use xlink:href="#SVGID_7_"  overflow="visible"/>
			</clipPath>
			
				<line clip-path="url(#SVGID_8_)" fill="none" stroke="#BAA494" stroke-width="0.75" x1="382.416" y1="282.733" x2="382.416" y2="294.072"/>
		</g>
	</g>
</g>
<g opacity="0.75">
	<g>
		<g>
			<defs>
				<rect id="SVGID_9_" x="483.741" y="345.283" width="18.75" height="19.339"/>
			</defs>
			<clipPath id="SVGID_10_">
				<use xlink:href="#SVGID_9_"  overflow="visible"/>
			</clipPath>
			
				<line clip-path="url(#SVGID_10_)" fill="none" stroke="#BAA494" stroke-width="0.75" x1="493.116" y1="352.283" x2="493.116" y2="363.622"/>
		</g>
	</g>
</g>
<path fill="none" stroke="#262625" stroke-width="0.6" d="M345.021,9.212c0,0-1.2,0-1.2,1.2v5.946c0,0,0,1.2,1.2,1.2h5.946
	c0,0,1.2,0,1.2-1.2v-5.946c0,0,0-1.2-1.2-1.2H345.021z"/>
<line fill="none" stroke="#262625" stroke-width="0.6" x1="343.68" y1="11.583" x2="352.338" y2="11.583"/>
<path fill="#EBE1D6" d="M347.995,15.758c1.311,0,2.373-1.062,2.373-2.373c0-1.31-1.062-2.373-2.373-2.373
	c-1.311,0-2.373,1.063-2.373,2.373C345.622,14.696,346.684,15.758,347.995,15.758"/>
<circle fill="none" stroke="#262625" stroke-width="0.6" cx="347.995" cy="13.385" r="2.373"/>
<polygon fill="#262625" points="350.425,9.992 350.425,9.992 350.425,10.814 351.247,10.814 351.247,9.992 "/>
<g>
	<path fill="#262625" d="M358.331,17.858V8.602h0.988v9.256H358.331z"/>
	<path fill="#262625" d="M366.573,17.858v-3.939c0-1.131-0.611-1.703-1.573-1.703s-1.586,0.585-1.586,1.703v3.939h-0.936v-6.396
		h0.936v0.702c0.455-0.52,1.079-0.78,1.794-0.78c0.689,0,1.248,0.208,1.638,0.599c0.455,0.441,0.663,1.04,0.663,1.781v4.095
		L366.573,17.858L366.573,17.858z"/>
	<path fill="#262625" d="M372.436,17.936c-1.079,0-1.924-0.247-2.626-0.923l0.624-0.624c0.507,0.533,1.196,0.74,1.989,0.74
		c1.053,0,1.703-0.377,1.703-1.131c0-0.559-0.325-0.871-1.066-0.936l-1.053-0.091c-1.248-0.104-1.911-0.663-1.911-1.717
		c0-1.17,0.988-1.872,2.353-1.872c0.91,0,1.729,0.222,2.301,0.689l-0.611,0.611c-0.455-0.352-1.04-0.508-1.703-0.508
		c-0.936,0-1.43,0.403-1.43,1.054c0,0.546,0.312,0.871,1.118,0.936l1.027,0.091c1.118,0.104,1.885,0.533,1.885,1.729
		C375.036,17.221,373.982,17.936,372.436,17.936z"/>
	<path fill="#262625" d="M379.183,17.858c-1.092,0-1.638-0.767-1.638-1.716v-3.927h-0.806V11.5h0.806V9.499h0.936v2.002h1.365v0.715
		h-1.365v3.9c0,0.585,0.273,0.937,0.871,0.937h0.494v0.806L379.183,17.858L379.183,17.858z"/>
	<path fill="#262625" d="M385.864,17.858v-0.611c-0.52,0.521-0.988,0.689-1.846,0.689c-0.884,0-1.404-0.169-1.807-0.585
		c-0.312-0.312-0.481-0.793-0.481-1.3c0-1.118,0.78-1.847,2.21-1.847h1.924v-0.61c0-0.937-0.468-1.404-1.638-1.404
		c-0.819,0-1.235,0.194-1.612,0.728l-0.637-0.585c0.572-0.741,1.222-0.949,2.262-0.949c1.716,0,2.562,0.741,2.562,2.133v4.342
		h-0.937V17.858z M385.864,14.907h-1.794c-0.962,0-1.43,0.39-1.43,1.131c0,0.741,0.455,1.092,1.469,1.092
		c0.546,0,1.027-0.038,1.43-0.429c0.222-0.208,0.325-0.572,0.325-1.104V14.907z"/>
	<path fill="#262625" d="M391.779,20.797c-0.962,0-1.495-0.247-2.171-0.858l0.61-0.598c0.469,0.416,0.793,0.637,1.534,0.637
		c1.235,0,1.755-0.871,1.755-1.963v-1.001c-0.52,0.663-1.104,0.832-1.794,0.832c-0.649,0-1.209-0.234-1.547-0.572
		c-0.637-0.637-0.78-1.625-0.78-2.665s0.144-2.028,0.78-2.665c0.338-0.338,0.91-0.56,1.561-0.56c0.701,0,1.273,0.156,1.794,0.832
		v-0.754h0.923v6.592C394.444,19.639,393.456,20.797,391.779,20.797z M391.922,12.216c-1.391,0-1.599,1.196-1.599,2.393
		S390.531,17,391.922,17c1.392,0,1.586-1.195,1.586-2.392S393.313,12.216,391.922,12.216z"/>
	<path fill="#262625" d="M400.996,12.684c-0.352-0.352-0.611-0.469-1.105-0.469c-0.936,0-1.534,0.741-1.534,1.717v3.926h-0.936
		v-6.396h0.936v0.78c0.352-0.533,1.054-0.858,1.795-0.858c0.61,0,1.078,0.144,1.533,0.599L400.996,12.684z"/>
	<path fill="#262625" d="M407.041,17.858v-0.611c-0.521,0.521-0.988,0.689-1.847,0.689c-0.884,0-1.404-0.169-1.807-0.585
		c-0.312-0.312-0.481-0.793-0.481-1.3c0-1.118,0.78-1.847,2.21-1.847h1.925v-0.61c0-0.937-0.469-1.404-1.639-1.404
		c-0.818,0-1.234,0.194-1.612,0.728l-0.637-0.585c0.572-0.741,1.223-0.949,2.263-0.949c1.716,0,2.561,0.741,2.561,2.133v4.342
		h-0.936V17.858z M407.041,14.907h-1.795c-0.962,0-1.43,0.39-1.43,1.131c0,0.741,0.455,1.092,1.469,1.092
		c0.547,0,1.027-0.038,1.431-0.429c0.221-0.208,0.325-0.572,0.325-1.104V14.907z"/>
	<path fill="#262625" d="M419.117,17.858v-3.939c0-1.131-0.61-1.703-1.572-1.703c-0.937,0-1.6,0.585-1.6,1.6v4.043h-0.936V13.92
		c0-1.131-0.611-1.703-1.573-1.703s-1.6,0.585-1.6,1.703v3.939H410.9v-6.396h0.936v0.702c0.455-0.52,1.093-0.78,1.808-0.78
		c0.884,0,1.573,0.364,1.963,1.066c0.494-0.702,1.209-1.066,2.106-1.066c0.688,0,1.261,0.222,1.65,0.599
		c0.455,0.441,0.689,1.04,0.689,1.781v4.095h-0.935V17.858z"/>
</g>
<path fill="none" stroke="#AE1821" stroke-width="0.75" stroke-miterlimit="10" d="M243.326,0c0,0-2.835,0-2.835,2.835v20.116
	c0,0,0,2.834,2.835,2.834h278.18c0,0,2.835,0,2.835-2.834V2.835c0,0,0-2.835-2.835-2.835H243.326z"/>
<g>
	<path fill="#262625" d="M272.974,66.376l-0.299,1.833h1.157v0.832h-1.287l-0.468,2.951h-0.962l0.468-2.951h-2.08l-0.455,2.951
		h-0.962l0.468-2.951h-1.157v-0.832h1.3l0.299-1.833H267.8v-0.858h1.313l0.442-2.795h0.975l-0.455,2.795h2.067l0.442-2.795h0.949
		l-0.442,2.795h1.131v0.858H272.974z M269.945,66.376l-0.299,1.833h2.067l0.299-1.833H269.945z"/>
	<path fill="#262625" d="M280.333,71.992v-0.611c-0.52,0.521-0.988,0.689-1.846,0.689c-0.884,0-1.404-0.169-1.807-0.585
		c-0.312-0.312-0.481-0.793-0.481-1.3c0-1.118,0.78-1.847,2.21-1.847h1.924v-0.611c0-0.936-0.468-1.403-1.638-1.403
		c-0.819,0-1.235,0.194-1.612,0.728l-0.637-0.585c0.572-0.741,1.222-0.949,2.262-0.949c1.716,0,2.562,0.741,2.562,2.133v4.342
		h-0.937V71.992z M280.333,69.041h-1.794c-0.962,0-1.43,0.39-1.43,1.131s0.455,1.093,1.469,1.093c0.546,0,1.027-0.039,1.43-0.43
		c0.221-0.208,0.325-0.572,0.325-1.104V69.041z"/>
	<path fill="#262625" d="M285.792,71.992c-1.118,0-1.625-0.728-1.625-1.703v-7.554h0.936v7.515c0,0.624,0.208,0.937,0.858,0.937
		h0.507v0.806L285.792,71.992L285.792,71.992z"/>
	<path fill="#262625" d="M296.907,71.992v-3.939c0-1.131-0.611-1.703-1.573-1.703c-0.936,0-1.599,0.585-1.599,1.6v4.043h-0.936
		v-3.939c0-1.131-0.611-1.703-1.573-1.703s-1.599,0.585-1.599,1.703v3.939h-0.936v-6.396h0.936v0.702
		c0.455-0.52,1.092-0.78,1.807-0.78c0.884,0,1.573,0.364,1.963,1.066c0.494-0.702,1.209-1.066,2.106-1.066
		c0.689,0,1.261,0.222,1.651,0.599c0.455,0.441,0.689,1.04,0.689,1.781v4.095h-0.936V71.992z"/>
	<path fill="#262625" d="M304.876,71.342c-0.442,0.442-1.053,0.729-1.833,0.729s-1.391-0.286-1.833-0.729
		c-0.65-0.663-0.78-1.56-0.78-2.548s0.13-1.885,0.78-2.548c0.442-0.442,1.053-0.729,1.833-0.729s1.391,0.286,1.833,0.729
		c0.65,0.663,0.78,1.56,0.78,2.548S305.526,70.678,304.876,71.342z M304.213,66.818c-0.299-0.3-0.715-0.469-1.17-0.469
		s-0.858,0.169-1.157,0.469c-0.468,0.468-0.52,1.261-0.52,1.976s0.052,1.508,0.52,1.977c0.299,0.299,0.702,0.468,1.157,0.468
		s0.871-0.169,1.17-0.468c0.468-0.469,0.507-1.262,0.507-1.977S304.681,67.286,304.213,66.818z"/>
	<path fill="#262625" d="M312.39,71.992v-3.939c0-1.131-0.611-1.703-1.573-1.703s-1.586,0.585-1.586,1.703v3.939h-0.936v-6.396
		h0.936v0.702c0.455-0.52,1.079-0.78,1.794-0.78c0.689,0,1.248,0.208,1.638,0.599c0.455,0.441,0.663,1.04,0.663,1.781v4.095
		L312.39,71.992L312.39,71.992z"/>
	<path fill="#262625" d="M320.06,71.992v-0.767c-0.52,0.676-1.118,0.845-1.82,0.845c-0.65,0-1.222-0.221-1.561-0.56
		c-0.65-0.649-0.78-1.716-0.78-2.717s0.13-2.067,0.78-2.717c0.338-0.338,0.91-0.56,1.561-0.56c0.702,0,1.287,0.156,1.807,0.819
		v-3.602h0.936v9.257h-0.923V71.992z M318.448,66.349c-1.391,0-1.612,1.196-1.612,2.444s0.221,2.444,1.612,2.444
		s1.599-1.196,1.599-2.444S319.839,66.349,318.448,66.349z"/>
	<path fill="#262625" d="M332.189,71.992v-3.939c0-1.131-0.611-1.703-1.573-1.703c-0.936,0-1.599,0.585-1.599,1.6v4.043h-0.936
		v-3.939c0-1.131-0.611-1.703-1.573-1.703s-1.599,0.585-1.599,1.703v3.939h-0.936v-6.396h0.936v0.702
		c0.455-0.52,1.092-0.78,1.807-0.78c0.884,0,1.573,0.364,1.963,1.066c0.494-0.702,1.209-1.066,2.106-1.066
		c0.689,0,1.261,0.222,1.651,0.599c0.455,0.441,0.689,1.04,0.689,1.781v4.095h-0.936V71.992z"/>
	<path fill="#262625" d="M335.998,63.776v-1.054h1.053v1.054H335.998z M336.049,71.992v-6.396h0.936v6.396
		C336.985,71.992,336.049,71.992,336.049,71.992z"/>
	<path fill="#262625" d="M341.587,71.992c-1.118,0-1.625-0.728-1.625-1.703v-7.554h0.936v7.515c0,0.624,0.208,0.937,0.858,0.937
		h0.507v0.806L341.587,71.992L341.587,71.992z"/>
	<path fill="#262625" d="M348.712,71.992l-2.028-3.276l-1.248,1.431v1.846H344.5v-9.257h0.936v6.188l2.886-3.328h1.17l-2.171,2.444
		l2.548,3.952H348.712z"/>
</g>
<path fill="none" stroke="#BAA494" stroke-width="0.75" stroke-miterlimit="10" d="M243.326,54.133c0,0-2.835,0-2.835,2.835v20.115
	c0,0,0,2.835,2.835,2.835h130.18c0,0,2.835,0,2.835-2.835V56.968c0,0,0-2.835-2.835-2.835H243.326z"/>
<g>
	<path fill="#262625" d="M263.229,170.151c-1.391,0-2.301-0.352-3.172-1.223l0.676-0.676c0.767,0.768,1.482,1.015,2.522,1.015
		c1.352,0,2.184-0.638,2.184-1.717c0-0.48-0.143-0.896-0.442-1.156c-0.299-0.261-0.533-0.339-1.209-0.442l-1.079-0.169
		c-0.728-0.117-1.3-0.352-1.703-0.702c-0.468-0.416-0.702-0.988-0.702-1.729c0-1.572,1.131-2.612,2.964-2.612
		c1.183,0,1.963,0.299,2.756,1.014l-0.637,0.637c-0.572-0.52-1.183-0.793-2.158-0.793c-1.235,0-1.95,0.689-1.95,1.717
		c0,0.454,0.13,0.818,0.416,1.065s0.767,0.429,1.248,0.507l1.014,0.156c0.871,0.13,1.3,0.312,1.69,0.65
		c0.507,0.429,0.78,1.065,0.78,1.833C266.427,169.15,265.152,170.151,263.229,170.151z"/>
	<path fill="#262625" d="M268.922,161.856v-1.053h1.053v1.053H268.922z M268.974,170.073v-6.396h0.936v6.396H268.974z"/>
	<path fill="#262625" d="M274.512,170.073c-1.118,0-1.625-0.729-1.625-1.703v-7.553h0.936v7.514c0,0.624,0.208,0.937,0.858,0.937
		h0.507v0.806L274.512,170.073L274.512,170.073z"/>
	<path fill="#262625" d="M281.636,170.073l-2.028-3.276l-1.248,1.431v1.846h-0.936v-9.256h0.936v6.188l2.886-3.328h1.17
		l-2.171,2.444l2.548,3.952L281.636,170.073L281.636,170.073z"/>
</g>
<path fill="none" stroke="#AE1821" stroke-width="0.75" stroke-miterlimit="10" d="M169.326,152.215c0,0-2.835,0-2.835,2.835v20.115
	c0,0,0,2.835,2.835,2.835h204.18c0,0,2.835,0,2.835-2.835V155.05c0,0,0-2.835-2.835-2.835H169.326z"/>
<g>
	<path fill="#262625" d="M233.881,323.257c-0.91,0-1.742-0.338-2.366-0.962c-0.871-0.871-0.871-1.781-0.871-3.744
		s0-2.873,0.871-3.744c0.624-0.624,1.456-0.962,2.366-0.962c1.664,0,2.899,1.014,3.211,2.756h-1.014
		c-0.247-1.131-1.04-1.872-2.197-1.872c-0.611,0-1.196,0.233-1.599,0.649c-0.585,0.599-0.65,1.235-0.65,3.173
		c0,1.937,0.065,2.574,0.65,3.172c0.403,0.416,0.988,0.65,1.599,0.65c1.157,0,1.976-0.741,2.223-1.872h0.988
		C236.793,322.243,235.532,323.257,233.881,323.257z"/>
	<path fill="#262625" d="M243.385,323.179v-0.611c-0.52,0.521-0.988,0.689-1.846,0.689c-0.884,0-1.404-0.169-1.807-0.585
		c-0.312-0.312-0.481-0.793-0.481-1.3c0-1.118,0.78-1.847,2.21-1.847h1.924v-0.61c0-0.937-0.468-1.404-1.638-1.404
		c-0.819,0-1.235,0.194-1.612,0.728l-0.637-0.585c0.572-0.741,1.222-0.949,2.262-0.949c1.716,0,2.561,0.741,2.561,2.133v4.342
		h-0.936V323.179z M243.385,320.228h-1.794c-0.962,0-1.43,0.39-1.43,1.131s0.455,1.092,1.469,1.092c0.546,0,1.027-0.038,1.43-0.429
		c0.221-0.208,0.325-0.572,0.325-1.104L243.385,320.228L243.385,320.228z"/>
	<path fill="#262625" d="M249.039,323.179c-1.092,0-1.638-0.767-1.638-1.716v-3.927h-0.806v-0.715h0.806v-2.002h0.936v2.002h1.365
		v0.715h-1.365v3.9c0,0.585,0.273,0.937,0.871,0.937h0.494v0.806H249.039z"/>
	<path fill="#262625" d="M252.692,320.228c0,1.404,0.663,2.21,1.885,2.21c0.741,0,1.17-0.221,1.677-0.728l0.637,0.559
		c-0.65,0.65-1.248,0.988-2.34,0.988c-1.69,0-2.795-1.014-2.795-3.276c0-2.067,1.001-3.276,2.626-3.276
		c1.651,0,2.626,1.196,2.626,3.095v0.429L252.692,320.228L252.692,320.228z M255.877,318.46c-0.247-0.586-0.819-0.963-1.495-0.963
		s-1.248,0.377-1.495,0.963c-0.143,0.351-0.169,0.546-0.195,1.065h3.38C256.046,319.006,256.02,318.811,255.877,318.46z"/>
	<path fill="#262625" d="M261.701,326.117c-0.962,0-1.495-0.247-2.171-0.858l0.611-0.598c0.468,0.416,0.793,0.637,1.534,0.637
		c1.235,0,1.755-0.871,1.755-1.963v-1.001c-0.52,0.663-1.105,0.832-1.794,0.832c-0.65,0-1.209-0.234-1.547-0.572
		c-0.637-0.637-0.78-1.625-0.78-2.665s0.143-2.028,0.78-2.665c0.338-0.338,0.91-0.56,1.56-0.56c0.702,0,1.274,0.156,1.794,0.832
		v-0.754h0.923v6.592C264.366,324.96,263.378,326.117,261.701,326.117z M261.844,317.536c-1.391,0-1.599,1.196-1.599,2.393
		s0.208,2.392,1.599,2.392s1.586-1.195,1.586-2.392S263.235,317.536,261.844,317.536z"/>
	<path fill="#262625" d="M271.464,322.529c-0.442,0.442-1.053,0.729-1.833,0.729s-1.391-0.286-1.833-0.729
		c-0.65-0.663-0.78-1.56-0.78-2.548s0.13-1.885,0.78-2.548c0.442-0.442,1.053-0.729,1.833-0.729s1.391,0.286,1.833,0.729
		c0.65,0.663,0.78,1.56,0.78,2.548S272.114,321.865,271.464,322.529z M270.801,318.005c-0.299-0.3-0.715-0.469-1.17-0.469
		s-0.858,0.169-1.157,0.469c-0.468,0.468-0.52,1.261-0.52,1.976s0.052,1.508,0.52,1.977c0.299,0.299,0.702,0.468,1.157,0.468
		s0.871-0.169,1.17-0.468c0.468-0.469,0.507-1.262,0.507-1.977S271.269,318.473,270.801,318.005z"/>
	<path fill="#262625" d="M278.458,318.005c-0.351-0.352-0.611-0.469-1.105-0.469c-0.936,0-1.534,0.741-1.534,1.717v3.926h-0.936
		v-6.396h0.936v0.78c0.351-0.533,1.053-0.858,1.794-0.858c0.611,0,1.079,0.144,1.534,0.599L278.458,318.005z"/>
	<path fill="#262625" d="M280.954,314.962v-1.053h1.053v1.053H280.954z M281.005,323.179v-6.396h0.936v6.396H281.005z"/>
	<path fill="#262625" d="M284.424,323.179v-0.806l3.562-4.759h-3.367v-0.832h4.446v0.793l-3.575,4.771h3.575v0.832h-4.641V323.179z"
		/>
	<path fill="#262625" d="M292.146,320.228c0,1.404,0.663,2.21,1.885,2.21c0.741,0,1.17-0.221,1.677-0.728l0.637,0.559
		c-0.65,0.65-1.248,0.988-2.34,0.988c-1.69,0-2.795-1.014-2.795-3.276c0-2.067,1.001-3.276,2.626-3.276
		c1.651,0,2.626,1.196,2.626,3.095v0.429L292.146,320.228L292.146,320.228z M295.332,318.46c-0.247-0.586-0.819-0.963-1.495-0.963
		s-1.248,0.377-1.495,0.963c-0.143,0.351-0.169,0.546-0.195,1.065h3.38C295.501,319.006,295.475,318.811,295.332,318.46z"/>
	<path fill="#262625" d="M302.923,314.962v-1.053h1.053v1.053H302.923z M302.975,323.179v-6.396h0.936v6.396H302.975z"/>
	<path fill="#262625" d="M311.009,323.179v-3.939c0-1.131-0.611-1.703-1.573-1.703s-1.586,0.585-1.586,1.703v3.939h-0.936v-6.396
		h0.936v0.702c0.455-0.52,1.079-0.78,1.794-0.78c0.689,0,1.248,0.208,1.638,0.599c0.455,0.441,0.663,1.04,0.663,1.781v4.095h-0.936
		V323.179z"/>
</g>
<g>
	<path fill="#262625" d="M183.857,338.857c-1.391,0-2.301-0.352-3.172-1.223l0.676-0.676c0.767,0.768,1.482,1.015,2.522,1.015
		c1.352,0,2.184-0.638,2.184-1.717c0-0.48-0.143-0.896-0.442-1.156c-0.299-0.261-0.533-0.339-1.209-0.442l-1.079-0.169
		c-0.728-0.117-1.3-0.352-1.703-0.702c-0.468-0.416-0.702-0.988-0.702-1.729c0-1.572,1.131-2.612,2.964-2.612
		c1.183,0,1.963,0.299,2.756,1.014l-0.637,0.637c-0.572-0.52-1.183-0.793-2.158-0.793c-1.235,0-1.95,0.689-1.95,1.717
		c0,0.454,0.13,0.818,0.416,1.065s0.767,0.429,1.248,0.507l1.014,0.156c0.871,0.13,1.3,0.312,1.69,0.65
		c0.507,0.429,0.78,1.065,0.78,1.833C187.056,337.856,185.781,338.857,183.857,338.857z"/>
	<path fill="#262625" d="M190.188,335.827c0,1.404,0.663,2.21,1.885,2.21c0.741,0,1.17-0.221,1.677-0.728l0.637,0.559
		c-0.65,0.65-1.248,0.988-2.34,0.988c-1.69,0-2.795-1.014-2.795-3.276c0-2.067,1.001-3.276,2.626-3.276
		c1.651,0,2.626,1.196,2.626,3.095v0.429L190.188,335.827L190.188,335.827z M193.373,334.06c-0.247-0.586-0.819-0.963-1.495-0.963
		s-1.248,0.377-1.495,0.963c-0.143,0.351-0.169,0.546-0.195,1.065h3.38C193.542,334.606,193.516,334.41,193.373,334.06z"/>
	<path fill="#262625" d="M198.729,338.779c-1.118,0-1.625-0.729-1.625-1.703v-7.553h0.936v7.514c0,0.624,0.208,0.937,0.858,0.937
		h0.507v0.806h-0.676V338.779z"/>
	<path fill="#262625" d="M202.785,333.136v5.643h-0.936v-5.643h-0.819v-0.715h0.819v-1.209c0-0.949,0.533-1.716,1.625-1.716h0.676
		v0.806h-0.507c-0.598,0-0.858,0.352-0.858,0.937v1.183h1.365v0.715h-1.365V333.136z"/>
	<path fill="#262625" d="M206.178,335.71v-0.871h3.562v0.871H206.178z"/>
	<path fill="#262625" d="M216.851,338.297c-0.338,0.339-0.91,0.56-1.56,0.56c-0.702,0-1.287-0.169-1.807-0.832v3.614h-0.936v-9.257
		h0.936v0.754c0.52-0.676,1.105-0.832,1.807-0.832c0.65,0,1.222,0.222,1.56,0.56c0.65,0.649,0.78,1.716,0.78,2.717
		S217.501,337.648,216.851,338.297z M215.096,333.136c-1.391,0-1.612,1.196-1.612,2.444s0.221,2.444,1.612,2.444
		s1.599-1.196,1.599-2.444S216.487,333.136,215.096,333.136z"/>
	<path fill="#262625" d="M223.845,333.605c-0.351-0.352-0.611-0.469-1.105-0.469c-0.936,0-1.534,0.741-1.534,1.717v3.926h-0.936
		v-6.396h0.936v0.78c0.351-0.533,1.053-0.858,1.794-0.858c0.611,0,1.079,0.144,1.534,0.599L223.845,333.605z"/>
	<path fill="#262625" d="M230.046,338.128c-0.442,0.442-1.053,0.729-1.833,0.729s-1.391-0.286-1.833-0.729
		c-0.65-0.663-0.78-1.56-0.78-2.548s0.13-1.885,0.78-2.548c0.442-0.442,1.053-0.729,1.833-0.729s1.391,0.286,1.833,0.729
		c0.65,0.663,0.78,1.56,0.78,2.548S230.696,337.465,230.046,338.128z M229.383,333.605c-0.299-0.3-0.715-0.469-1.17-0.469
		s-0.858,0.169-1.157,0.469c-0.468,0.468-0.52,1.261-0.52,1.976s0.052,1.508,0.52,1.977c0.299,0.299,0.702,0.468,1.157,0.468
		s0.871-0.169,1.17-0.468c0.468-0.469,0.507-1.262,0.507-1.977S229.851,334.073,229.383,333.605z"/>
	<path fill="#262625" d="M237.3,338.779v-0.767c-0.52,0.676-1.118,0.845-1.82,0.845c-0.65,0-1.222-0.221-1.56-0.56
		c-0.65-0.649-0.78-1.716-0.78-2.717s0.13-2.067,0.78-2.717c0.338-0.338,0.91-0.56,1.56-0.56c0.702,0,1.287,0.156,1.807,0.819
		v-3.601h0.936v9.256H237.3V338.779z M235.688,333.136c-1.391,0-1.612,1.196-1.612,2.444s0.221,2.444,1.612,2.444
		s1.599-1.196,1.599-2.444S237.079,333.136,235.688,333.136z"/>
	<path fill="#262625" d="M245.256,338.779v-0.715c-0.455,0.52-1.092,0.793-1.807,0.793c-0.689,0-1.261-0.208-1.651-0.598
		c-0.455-0.442-0.65-1.054-0.65-1.795v-4.082h0.936v3.939c0,1.131,0.598,1.703,1.56,1.703s1.599-0.585,1.599-1.703v-3.939h0.936
		v6.396h-0.923V338.779z"/>
	<path fill="#262625" d="M251.652,338.857c-1.612,0-2.834-1.092-2.834-3.276s1.222-3.276,2.834-3.276
		c0.884,0,1.443,0.234,2.106,0.949l-0.637,0.599c-0.481-0.533-0.858-0.716-1.469-0.716c-0.624,0-1.144,0.247-1.482,0.729
		c-0.299,0.416-0.416,0.91-0.416,1.716s0.117,1.3,0.416,1.716c0.338,0.481,0.858,0.729,1.482,0.729c0.611,0,0.988-0.195,1.469-0.729
		l0.637,0.611C253.095,338.622,252.536,338.857,251.652,338.857z"/>
	<path fill="#262625" d="M257.982,338.779c-1.092,0-1.638-0.767-1.638-1.716v-3.927h-0.806v-0.715h0.806v-2.002h0.936v2.002h1.365
		v0.715h-1.365v3.9c0,0.585,0.273,0.937,0.871,0.937h0.494v0.806H257.982z"/>
	<path fill="#262625" d="M261.635,335.827c0,1.404,0.663,2.21,1.885,2.21c0.741,0,1.17-0.221,1.677-0.728l0.637,0.559
		c-0.65,0.65-1.248,0.988-2.34,0.988c-1.69,0-2.795-1.014-2.795-3.276c0-2.067,1.001-3.276,2.626-3.276
		c1.651,0,2.626,1.196,2.626,3.095v0.429L261.635,335.827L261.635,335.827z M264.82,334.06c-0.247-0.586-0.819-0.963-1.495-0.963
		s-1.248,0.377-1.495,0.963c-0.143,0.351-0.169,0.546-0.195,1.065h3.38C264.99,334.606,264.963,334.41,264.82,334.06z"/>
	<path fill="#262625" d="M272.413,338.779v-0.767c-0.52,0.676-1.118,0.845-1.82,0.845c-0.65,0-1.222-0.221-1.561-0.56
		c-0.65-0.649-0.78-1.716-0.78-2.717s0.13-2.067,0.78-2.717c0.338-0.338,0.91-0.56,1.561-0.56c0.702,0,1.287,0.156,1.807,0.819
		v-3.601h0.936v9.256h-0.923V338.779z M270.801,333.136c-1.391,0-1.612,1.196-1.612,2.444s0.221,2.444,1.612,2.444
		s1.599-1.196,1.599-2.444S272.191,333.136,270.801,333.136z"/>
	<path fill="#262625" d="M283.84,338.779v-0.611c-0.52,0.521-0.988,0.689-1.846,0.689c-0.884,0-1.404-0.169-1.807-0.585
		c-0.312-0.312-0.481-0.793-0.481-1.3c0-1.118,0.78-1.847,2.21-1.847h1.924v-0.61c0-0.937-0.468-1.404-1.638-1.404
		c-0.819,0-1.235,0.194-1.612,0.728l-0.637-0.585c0.572-0.741,1.222-0.949,2.262-0.949c1.716,0,2.561,0.741,2.561,2.133v4.342
		h-0.936V338.779z M283.84,335.827h-1.794c-0.962,0-1.43,0.39-1.43,1.131s0.455,1.092,1.469,1.092c0.546,0,1.027-0.038,1.43-0.429
		c0.221-0.208,0.325-0.572,0.325-1.104V335.827z"/>
	<path fill="#262625" d="M291.795,338.779v-3.939c0-1.131-0.611-1.703-1.573-1.703s-1.586,0.585-1.586,1.703v3.939H287.7v-6.396
		h0.936v0.702c0.455-0.52,1.079-0.78,1.794-0.78c0.689,0,1.248,0.208,1.638,0.599c0.455,0.441,0.663,1.04,0.663,1.781v4.095h-0.936
		V338.779z"/>
	<path fill="#262625" d="M299.478,338.779v-0.767c-0.52,0.676-1.118,0.845-1.82,0.845c-0.65,0-1.222-0.221-1.561-0.56
		c-0.65-0.649-0.78-1.716-0.78-2.717s0.13-2.067,0.78-2.717c0.338-0.338,0.91-0.56,1.561-0.56c0.702,0,1.287,0.156,1.807,0.819
		v-3.601h0.936v9.256h-0.923V338.779z M297.866,333.136c-1.391,0-1.612,1.196-1.612,2.444s0.221,2.444,1.612,2.444
		s1.599-1.196,1.599-2.444S299.257,333.136,297.866,333.136z"/>
	<path fill="#262625" d="M312.751,338.779l-2.106-4.108h-2.223v4.108h-0.988v-9.256h3.549c1.612,0,2.743,0.975,2.743,2.573
		c0,1.353-0.819,2.236-2.015,2.483l2.197,4.199h-1.157V338.779z M310.892,330.406h-2.47v3.393h2.47c1.079,0,1.846-0.559,1.846-1.689
		C312.738,330.978,311.971,330.406,310.892,330.406z"/>
	<path fill="#262625" d="M317.028,335.827c0,1.404,0.663,2.21,1.885,2.21c0.741,0,1.17-0.221,1.677-0.728l0.637,0.559
		c-0.65,0.65-1.248,0.988-2.34,0.988c-1.69,0-2.795-1.014-2.795-3.276c0-2.067,1.001-3.276,2.626-3.276
		c1.651,0,2.626,1.196,2.626,3.095v0.429L317.028,335.827L317.028,335.827z M320.213,334.06c-0.247-0.586-0.819-0.963-1.495-0.963
		s-1.248,0.377-1.495,0.963c-0.143,0.351-0.169,0.546-0.195,1.065h3.38C320.382,334.606,320.356,334.41,320.213,334.06z"/>
	<path fill="#262625" d="M326.024,341.717c-0.962,0-1.495-0.247-2.171-0.858l0.611-0.598c0.468,0.416,0.793,0.637,1.534,0.637
		c1.235,0,1.755-0.871,1.755-1.963v-1.001c-0.52,0.663-1.105,0.832-1.794,0.832c-0.65,0-1.209-0.234-1.547-0.572
		c-0.637-0.637-0.78-1.625-0.78-2.665s0.143-2.028,0.78-2.665c0.338-0.338,0.91-0.56,1.56-0.56c0.702,0,1.274,0.156,1.794,0.832
		v-0.754h0.923v6.592C328.689,340.56,327.701,341.717,326.024,341.717z M326.167,333.136c-1.391,0-1.599,1.196-1.599,2.393
		s0.208,2.392,1.599,2.392s1.586-1.195,1.586-2.392S327.558,333.136,326.167,333.136z"/>
	<path fill="#262625" d="M335.254,333.605c-0.351-0.352-0.611-0.469-1.105-0.469c-0.936,0-1.534,0.741-1.534,1.717v3.926h-0.936
		v-6.396h0.936v0.78c0.351-0.533,1.053-0.858,1.794-0.858c0.611,0,1.079,0.144,1.534,0.599L335.254,333.605z"/>
	<path fill="#262625" d="M341.299,338.779v-0.611c-0.52,0.521-0.988,0.689-1.846,0.689c-0.884,0-1.404-0.169-1.807-0.585
		c-0.312-0.312-0.481-0.793-0.481-1.3c0-1.118,0.78-1.847,2.21-1.847h1.924v-0.61c0-0.937-0.468-1.404-1.638-1.404
		c-0.819,0-1.235,0.194-1.612,0.728l-0.637-0.585c0.572-0.741,1.222-0.949,2.262-0.949c1.716,0,2.561,0.741,2.561,2.133v4.342
		h-0.936V338.779z M341.299,335.827h-1.794c-0.962,0-1.43,0.39-1.43,1.131s0.455,1.092,1.469,1.092c0.546,0,1.027-0.038,1.43-0.429
		c0.221-0.208,0.325-0.572,0.325-1.104V335.827z"/>
	<path fill="#262625" d="M353.375,338.779v-3.939c0-1.131-0.611-1.703-1.573-1.703c-0.936,0-1.599,0.585-1.599,1.6v4.043h-0.936
		v-3.939c0-1.131-0.611-1.703-1.573-1.703s-1.599,0.585-1.599,1.703v3.939h-0.936v-6.396h0.936v0.702
		c0.455-0.52,1.092-0.78,1.807-0.78c0.884,0,1.573,0.364,1.963,1.066c0.494-0.702,1.209-1.066,2.106-1.066
		c0.689,0,1.261,0.222,1.651,0.599c0.455,0.441,0.689,1.04,0.689,1.781v4.095h-0.936V338.779z"/>
	<path fill="#262625" d="M359.238,338.857c-1.079,0-1.924-0.247-2.626-0.923l0.624-0.624c0.507,0.533,1.196,0.74,1.989,0.74
		c1.053,0,1.703-0.377,1.703-1.131c0-0.559-0.325-0.871-1.066-0.936l-1.053-0.091c-1.248-0.104-1.911-0.663-1.911-1.717
		c0-1.17,0.988-1.872,2.353-1.872c0.91,0,1.729,0.222,2.301,0.689l-0.611,0.611c-0.455-0.352-1.04-0.508-1.703-0.508
		c-0.936,0-1.43,0.403-1.43,1.054c0,0.546,0.312,0.871,1.118,0.936l1.027,0.091c1.118,0.104,1.885,0.533,1.885,1.729
		C361.838,338.142,360.785,338.857,359.238,338.857z"/>
</g>
<path fill="none" stroke="#AE1821" stroke-width="0.75" stroke-miterlimit="10" d="M169.326,305.785c0,0-2.835,0-2.835,2.835v34.785
	c0,0,0,2.834,2.835,2.834h204.18c0,0,2.835,0,2.835-2.834V308.62c0,0,0-2.835-2.835-2.835H169.326z"/>
<g>
	<path fill="#262625" d="M457.578,170.151c-1.391,0-2.301-0.352-3.172-1.223l0.676-0.676c0.768,0.768,1.482,1.015,2.522,1.015
		c1.352,0,2.184-0.638,2.184-1.717c0-0.48-0.143-0.896-0.441-1.156c-0.3-0.261-0.533-0.339-1.209-0.442l-1.079-0.169
		c-0.729-0.117-1.301-0.352-1.703-0.702c-0.469-0.416-0.702-0.988-0.702-1.729c0-1.572,1.131-2.612,2.964-2.612
		c1.184,0,1.963,0.299,2.756,1.014l-0.637,0.637c-0.572-0.52-1.183-0.793-2.158-0.793c-1.235,0-1.95,0.689-1.95,1.717
		c0,0.454,0.13,0.818,0.416,1.065s0.768,0.429,1.248,0.507l1.015,0.156c0.871,0.13,1.3,0.312,1.689,0.65
		c0.507,0.429,0.78,1.065,0.78,1.833C460.776,169.15,459.502,170.151,457.578,170.151z"/>
	<path fill="#262625" d="M467.433,169.423c-0.442,0.442-1.054,0.729-1.833,0.729c-0.78,0-1.392-0.286-1.833-0.729
		c-0.65-0.663-0.78-1.56-0.78-2.548s0.13-1.885,0.78-2.548c0.441-0.442,1.053-0.729,1.833-0.729c0.779,0,1.391,0.286,1.833,0.729
		c0.649,0.663,0.779,1.56,0.779,2.548S468.082,168.76,467.433,169.423z M466.77,164.899c-0.299-0.3-0.715-0.469-1.17-0.469
		s-0.858,0.169-1.157,0.469c-0.468,0.468-0.521,1.261-0.521,1.976s0.053,1.508,0.521,1.977c0.299,0.299,0.702,0.468,1.157,0.468
		s0.871-0.169,1.17-0.468c0.468-0.469,0.507-1.262,0.507-1.977S467.237,165.367,466.77,164.899z"/>
	<path fill="#262625" d="M480.406,169.215c-0.559,0.56-1.378,0.858-2.34,0.858h-3.173v-9.256h3.173c0.962,0,1.781,0.299,2.34,0.857
		c0.962,0.962,0.91,2.379,0.91,3.666S481.368,168.253,480.406,169.215z M479.717,162.377c-0.48-0.494-1.104-0.676-1.819-0.676
		h-2.016v7.488h2.016c0.715,0,1.339-0.183,1.819-0.677c0.638-0.662,0.611-2.041,0.611-3.172S480.354,163.04,479.717,162.377z"/>
	<path fill="#262625" d="M484.709,167.122c0,1.404,0.663,2.21,1.885,2.21c0.741,0,1.17-0.221,1.678-0.728l0.637,0.559
		c-0.65,0.65-1.248,0.988-2.34,0.988c-1.69,0-2.796-1.014-2.796-3.276c0-2.067,1.002-3.276,2.627-3.276
		c1.65,0,2.626,1.196,2.626,3.095v0.429h-4.317V167.122z M487.895,165.354c-0.247-0.586-0.819-0.963-1.495-0.963
		c-0.677,0-1.248,0.377-1.495,0.963c-0.144,0.351-0.169,0.546-0.195,1.065h3.38C488.063,165.9,488.037,165.705,487.895,165.354z"/>
	<path fill="#262625" d="M493.25,170.073c-1.118,0-1.625-0.729-1.625-1.703v-7.553h0.936v7.514c0,0.624,0.208,0.937,0.858,0.937
		h0.507v0.806L493.25,170.073L493.25,170.073z"/>
	<path fill="#262625" d="M496.11,161.856v-1.053h1.053v1.053H496.11z M496.162,170.073v-6.396h0.936v6.396H496.162z"/>
	<path fill="#262625" d="M502.584,170.151c-1.612,0-2.835-1.092-2.835-3.276s1.223-3.276,2.835-3.276
		c0.884,0,1.442,0.234,2.105,0.949l-0.637,0.599c-0.481-0.533-0.858-0.716-1.469-0.716c-0.624,0-1.145,0.247-1.482,0.729
		c-0.299,0.416-0.416,0.91-0.416,1.716s0.117,1.3,0.416,1.716c0.338,0.481,0.858,0.729,1.482,0.729c0.61,0,0.987-0.195,1.469-0.729
		l0.637,0.611C504.026,169.917,503.468,170.151,502.584,170.151z"/>
	<path fill="#262625" d="M507.068,161.856v-1.053h1.053v1.053H507.068z M507.12,170.073v-6.396h0.937v6.396H507.12z"/>
	<path fill="#262625" d="M515.168,169.423c-0.442,0.442-1.054,0.729-1.833,0.729c-0.78,0-1.392-0.286-1.833-0.729
		c-0.65-0.663-0.78-1.56-0.78-2.548s0.13-1.885,0.78-2.548c0.441-0.442,1.053-0.729,1.833-0.729c0.779,0,1.391,0.286,1.833,0.729
		c0.649,0.663,0.779,1.56,0.779,2.548S515.817,168.76,515.168,169.423z M514.505,164.899c-0.299-0.3-0.715-0.469-1.17-0.469
		s-0.858,0.169-1.157,0.469c-0.468,0.468-0.521,1.261-0.521,1.976s0.053,1.508,0.521,1.977c0.299,0.299,0.702,0.468,1.157,0.468
		s0.871-0.169,1.17-0.468c0.468-0.469,0.507-1.262,0.507-1.977S514.973,165.367,514.505,164.899z"/>
	<path fill="#262625" d="M522.63,170.073v-0.715c-0.455,0.52-1.093,0.793-1.808,0.793c-0.688,0-1.261-0.208-1.651-0.598
		c-0.454-0.442-0.649-1.054-0.649-1.795v-4.082h0.936v3.939c0,1.131,0.599,1.703,1.561,1.703s1.599-0.585,1.599-1.703v-3.939h0.937
		v6.396h-0.925V170.073z"/>
	<path fill="#262625" d="M528.558,170.151c-1.079,0-1.924-0.247-2.626-0.923l0.624-0.624c0.507,0.533,1.195,0.74,1.989,0.74
		c1.053,0,1.702-0.377,1.702-1.131c0-0.559-0.324-0.871-1.065-0.936l-1.053-0.091c-1.248-0.104-1.911-0.663-1.911-1.717
		c0-1.17,0.987-1.872,2.353-1.872c0.91,0,1.729,0.222,2.301,0.689l-0.61,0.611c-0.455-0.352-1.04-0.508-1.703-0.508
		c-0.937,0-1.431,0.403-1.431,1.054c0,0.546,0.312,0.871,1.118,0.936l1.027,0.091c1.118,0.104,1.885,0.533,1.885,1.729
		C531.157,169.436,530.104,170.151,528.558,170.151z"/>
</g>
<path fill="none" stroke="#AE1821" stroke-width="0.75" stroke-miterlimit="10" d="M391.326,152.215c0,0-2.835,0-2.835,2.835v20.115
	c0,0,0,2.835,2.835,2.835h203.581c0,0,2.834,0,2.834-2.835V155.05c0,0,0-2.835-2.834-2.835H391.326z"/>
<g>
	<path fill="#262625" d="M456.07,330.979v-7.033l-2.535,5.577h-0.845l-2.574-5.577v7.033h-0.988v-9.257h0.988l3.016,6.565
		l2.938-6.565h0.988v9.257H456.07z"/>
	<path fill="#262625" d="M464.325,330.328c-0.442,0.442-1.054,0.729-1.833,0.729c-0.78,0-1.392-0.286-1.833-0.729
		c-0.65-0.663-0.78-1.56-0.78-2.548s0.13-1.885,0.78-2.548c0.441-0.442,1.053-0.729,1.833-0.729c0.779,0,1.391,0.286,1.833,0.729
		c0.649,0.663,0.779,1.56,0.779,2.548S464.975,329.665,464.325,330.328z M463.662,325.805c-0.299-0.3-0.715-0.469-1.17-0.469
		s-0.858,0.169-1.157,0.469c-0.468,0.468-0.521,1.261-0.521,1.976s0.053,1.508,0.521,1.977c0.299,0.299,0.702,0.468,1.157,0.468
		s0.871-0.169,1.17-0.468c0.468-0.469,0.507-1.262,0.507-1.977S464.13,326.273,463.662,325.805z"/>
	<path fill="#262625" d="M471.852,330.328c-0.441,0.442-1.053,0.729-1.833,0.729s-1.391-0.286-1.833-0.729
		c-0.65-0.663-0.78-1.56-0.78-2.548s0.13-1.885,0.78-2.548c0.442-0.442,1.053-0.729,1.833-0.729s1.392,0.286,1.833,0.729
		c0.65,0.663,0.78,1.56,0.78,2.548S472.502,329.665,471.852,330.328z M471.188,325.805c-0.299-0.3-0.715-0.469-1.17-0.469
		s-0.858,0.169-1.157,0.469c-0.468,0.468-0.52,1.261-0.52,1.976s0.052,1.508,0.52,1.977c0.299,0.299,0.702,0.468,1.157,0.468
		s0.871-0.169,1.17-0.468c0.468-0.469,0.507-1.262,0.507-1.977S471.656,326.273,471.188,325.805z"/>
	<path fill="#262625" d="M479.093,330.979v-0.767c-0.52,0.676-1.118,0.845-1.819,0.845c-0.65,0-1.223-0.221-1.561-0.56
		c-0.65-0.649-0.78-1.716-0.78-2.717s0.13-2.067,0.78-2.717c0.338-0.338,0.91-0.56,1.561-0.56c0.701,0,1.286,0.156,1.807,0.819
		v-3.602h0.936v9.257h-0.924V330.979z M477.481,325.336c-1.392,0-1.612,1.196-1.612,2.444s0.221,2.444,1.612,2.444
		s1.599-1.196,1.599-2.444S478.872,325.336,477.481,325.336z"/>
	<path fill="#262625" d="M492.444,330.979l-0.741-2.093h-4.043l-0.741,2.093h-1.053l3.405-9.257h0.832l3.394,9.257H492.444z
		 M489.701,323.14l-1.742,4.888h3.458L489.701,323.14z"/>
	<path fill="#262625" d="M499.555,330.979v-3.939c0-1.131-0.611-1.703-1.573-1.703s-1.586,0.585-1.586,1.703v3.939h-0.937v-6.396
		h0.937v0.702c0.455-0.52,1.079-0.78,1.794-0.78c0.689,0,1.248,0.208,1.638,0.599c0.455,0.441,0.663,1.04,0.663,1.781v4.095h-0.936
		V330.979z"/>
	<path fill="#262625" d="M507.043,330.979v-0.611c-0.521,0.521-0.988,0.689-1.847,0.689c-0.884,0-1.404-0.169-1.807-0.585
		c-0.312-0.312-0.481-0.793-0.481-1.3c0-1.118,0.78-1.847,2.21-1.847h1.925v-0.611c0-0.936-0.469-1.403-1.639-1.403
		c-0.818,0-1.234,0.194-1.612,0.728l-0.637-0.585c0.572-0.741,1.223-0.949,2.263-0.949c1.716,0,2.561,0.741,2.561,2.133v4.342
		h-0.936V330.979z M507.043,328.028h-1.795c-0.962,0-1.43,0.39-1.43,1.131s0.455,1.093,1.469,1.093c0.547,0,1.027-0.039,1.431-0.43
		c0.221-0.208,0.325-0.572,0.325-1.104V328.028z"/>
	<path fill="#262625" d="M512.502,330.979c-1.118,0-1.625-0.728-1.625-1.703v-7.554h0.937v7.515c0,0.624,0.208,0.937,0.857,0.937
		h0.508v0.806h-0.677V330.979z"/>
	<path fill="#262625" d="M516.701,332.526c-0.13,0.352-0.273,0.585-0.455,0.754c-0.338,0.325-0.793,0.442-1.248,0.442h-0.403v-0.832
		h0.286c0.65,0,0.846-0.208,1.054-0.793l0.455-1.248l-2.302-6.267h1.015l1.755,5.136l1.742-5.136h1.014L516.701,332.526z"/>
	<path fill="#262625" d="M523.591,331.057c-1.079,0-1.924-0.247-2.626-0.923l0.624-0.624c0.507,0.532,1.196,0.741,1.989,0.741
		c1.053,0,1.703-0.378,1.703-1.132c0-0.559-0.325-0.871-1.066-0.936l-1.053-0.091c-1.248-0.104-1.911-0.663-1.911-1.717
		c0-1.17,0.988-1.872,2.354-1.872c0.91,0,1.729,0.222,2.301,0.689l-0.611,0.611c-0.455-0.352-1.04-0.508-1.703-0.508
		c-0.936,0-1.43,0.403-1.43,1.054c0,0.546,0.312,0.871,1.118,0.936l1.027,0.091c1.117,0.104,1.885,0.533,1.885,1.729
		C526.191,330.342,525.139,331.057,523.591,331.057z"/>
	<path fill="#262625" d="M528.622,322.763v-1.054h1.053v1.054H528.622z M528.674,330.979v-6.396h0.937v6.396H528.674z"/>
	<path fill="#262625" d="M534.628,331.057c-1.079,0-1.924-0.247-2.626-0.923l0.624-0.624c0.507,0.532,1.195,0.741,1.989,0.741
		c1.053,0,1.702-0.378,1.702-1.132c0-0.559-0.324-0.871-1.065-0.936l-1.053-0.091c-1.248-0.104-1.911-0.663-1.911-1.717
		c0-1.17,0.987-1.872,2.353-1.872c0.91,0,1.729,0.222,2.301,0.689l-0.61,0.611c-0.455-0.352-1.04-0.508-1.703-0.508
		c-0.937,0-1.431,0.403-1.431,1.054c0,0.546,0.312,0.871,1.118,0.936l1.027,0.091c1.118,0.104,1.885,0.533,1.885,1.729
		C537.228,330.342,536.175,331.057,534.628,331.057z"/>
</g>
<path fill="none" stroke="#AE1821" stroke-width="0.75" stroke-miterlimit="10" d="M391.326,305.785c0,0-2.835,0-2.835,2.835v34.785
	c0,0,0,2.834,2.835,2.834h203.581c0,0,2.834,0,2.834-2.834V308.62c0,0,0-2.835-2.834-2.835H391.326z"/>
<g>
	<path fill="#262625" d="M419.323,66.376l-0.299,1.833h1.157v0.832h-1.287l-0.468,2.951h-0.962l0.468-2.951h-2.08l-0.455,2.951
		h-0.962l0.468-2.951h-1.157v-0.832h1.301l0.299-1.833h-1.196v-0.858h1.313l0.441-2.795h0.976l-0.455,2.795h2.066l0.442-2.795h0.949
		l-0.442,2.795h1.131v0.858H419.323z M416.295,66.376l-0.3,1.833h2.067l0.299-1.833H416.295z"/>
	<path fill="#262625" d="M425.538,72.07c-1.612,0-2.835-1.092-2.835-3.276s1.223-3.276,2.835-3.276c0.884,0,1.442,0.234,2.105,0.949
		l-0.637,0.599c-0.481-0.533-0.858-0.716-1.469-0.716c-0.624,0-1.145,0.247-1.482,0.729c-0.299,0.416-0.416,0.91-0.416,1.716
		c0,0.807,0.117,1.3,0.416,1.716c0.338,0.481,0.858,0.729,1.482,0.729c0.61,0,0.987-0.195,1.469-0.729l0.637,0.611
		C426.98,71.836,426.422,72.07,425.538,72.07z"/>
	<path fill="#262625" d="M433.987,71.342c-0.441,0.442-1.053,0.729-1.833,0.729s-1.391-0.286-1.833-0.729
		c-0.65-0.663-0.78-1.56-0.78-2.548s0.13-1.885,0.78-2.548c0.442-0.442,1.053-0.729,1.833-0.729s1.392,0.286,1.833,0.729
		c0.65,0.663,0.78,1.56,0.78,2.548S434.638,70.678,433.987,71.342z M433.324,66.818c-0.299-0.3-0.715-0.469-1.17-0.469
		s-0.858,0.169-1.157,0.469c-0.468,0.468-0.52,1.261-0.52,1.976s0.052,1.508,0.52,1.977c0.299,0.299,0.702,0.468,1.157,0.468
		s0.871-0.169,1.17-0.468c0.468-0.469,0.507-1.262,0.507-1.977S433.792,67.286,433.324,66.818z"/>
	<path fill="#262625" d="M439.89,72.07c-1.612,0-2.835-1.092-2.835-3.276s1.223-3.276,2.835-3.276c0.884,0,1.442,0.234,2.105,0.949
		l-0.637,0.599c-0.481-0.533-0.858-0.716-1.469-0.716c-0.624,0-1.145,0.247-1.482,0.729c-0.299,0.416-0.416,0.91-0.416,1.716
		c0,0.807,0.117,1.3,0.416,1.716c0.338,0.481,0.858,0.729,1.482,0.729c0.61,0,0.987-0.195,1.469-0.729l0.637,0.611
		C441.332,71.836,440.773,72.07,439.89,72.07z"/>
	<path fill="#262625" d="M448.34,71.342c-0.442,0.442-1.054,0.729-1.833,0.729c-0.78,0-1.392-0.286-1.833-0.729
		c-0.65-0.663-0.78-1.56-0.78-2.548s0.13-1.885,0.78-2.548c0.441-0.442,1.053-0.729,1.833-0.729c0.779,0,1.391,0.286,1.833,0.729
		c0.649,0.663,0.779,1.56,0.779,2.548S448.989,70.678,448.34,71.342z M447.677,66.818c-0.299-0.3-0.715-0.469-1.17-0.469
		s-0.858,0.169-1.157,0.469c-0.468,0.468-0.521,1.261-0.521,1.976s0.053,1.508,0.521,1.977c0.299,0.299,0.702,0.468,1.157,0.468
		s0.871-0.169,1.17-0.468c0.468-0.469,0.507-1.262,0.507-1.977S448.145,67.286,447.677,66.818z"/>
	<path fill="#262625" d="M455.854,71.992v-3.939c0-1.131-0.611-1.703-1.573-1.703s-1.586,0.585-1.586,1.703v3.939h-0.937v-6.396
		h0.937v0.702c0.455-0.52,1.079-0.78,1.794-0.78c0.689,0,1.248,0.208,1.638,0.599c0.455,0.441,0.663,1.04,0.663,1.781v4.095
		L455.854,71.992L455.854,71.992z"/>
	<path fill="#262625" d="M463.758,71.992v-0.715c-0.455,0.52-1.093,0.793-1.808,0.793c-0.688,0-1.261-0.208-1.651-0.599
		c-0.454-0.441-0.649-1.053-0.649-1.794v-4.082h0.936v3.939c0,1.131,0.599,1.703,1.561,1.703s1.599-0.585,1.599-1.703v-3.939h0.937
		v6.396L463.758,71.992L463.758,71.992z"/>
	<path fill="#262625" d="M469.451,71.992c-1.092,0-1.638-0.767-1.638-1.716v-3.927h-0.807v-0.715h0.807v-2.002h0.936v2.002h1.365
		v0.715h-1.365v3.9c0,0.585,0.273,0.937,0.871,0.937h0.494v0.806C470.114,71.992,469.451,71.992,469.451,71.992z"/>
	<path fill="#262625" d="M480.839,71.992v-3.939c0-1.131-0.61-1.703-1.572-1.703c-0.937,0-1.6,0.585-1.6,1.6v4.043h-0.936v-3.939
		c0-1.131-0.611-1.703-1.573-1.703s-1.6,0.585-1.6,1.703v3.939h-0.936v-6.396h0.936v0.702c0.455-0.52,1.093-0.78,1.808-0.78
		c0.884,0,1.573,0.364,1.963,1.066c0.494-0.702,1.209-1.066,2.106-1.066c0.688,0,1.261,0.222,1.65,0.599
		c0.455,0.441,0.689,1.04,0.689,1.781v4.095h-0.935V71.992z"/>
	<path fill="#262625" d="M484.635,63.776v-1.054h1.053v1.054H484.635z M484.687,71.992v-6.396h0.937v6.396
		C485.624,71.992,484.687,71.992,484.687,71.992z"/>
	<path fill="#262625" d="M490.225,71.992c-1.118,0-1.625-0.728-1.625-1.703v-7.554h0.937v7.515c0,0.624,0.208,0.937,0.857,0.937
		h0.508v0.806L490.225,71.992L490.225,71.992z"/>
	<path fill="#262625" d="M497.336,71.992l-2.028-3.276l-1.248,1.431v1.846h-0.937v-9.257h0.937v6.188l2.886-3.328h1.17l-2.171,2.444
		l2.548,3.952H497.336z"/>
</g>
<path fill="none" stroke="#BAA494" stroke-width="0.75" stroke-miterlimit="10" d="M391.326,54.133c0,0-2.835,0-2.835,2.835v20.115
	c0,0,0,2.835,2.835,2.835h129.43c0,0,2.835,0,2.835-2.835V56.968c0,0,0-2.835-2.835-2.835H391.326z"/>
<g>
	<path fill="#262625" d="M415.819,400.155v-7.033l-2.535,5.577h-0.845l-2.574-5.577v7.033h-0.988v-9.257h0.988l3.016,6.565
		l2.938-6.565h0.988v9.257H415.819z"/>
	<path fill="#262625" d="M423.593,400.155v-0.611c-0.52,0.521-0.988,0.689-1.846,0.689c-0.885,0-1.404-0.169-1.808-0.585
		c-0.312-0.312-0.48-0.793-0.48-1.3c0-1.118,0.779-1.847,2.21-1.847h1.924v-0.611c0-0.936-0.468-1.403-1.638-1.403
		c-0.819,0-1.235,0.194-1.612,0.728l-0.637-0.585c0.571-0.741,1.222-0.949,2.262-0.949c1.716,0,2.562,0.741,2.562,2.133v4.342
		h-0.937V400.155z M423.593,397.203h-1.794c-0.962,0-1.43,0.39-1.43,1.131s0.455,1.093,1.469,1.093c0.546,0,1.027-0.039,1.43-0.43
		c0.222-0.208,0.325-0.572,0.325-1.104V397.203z"/>
	<path fill="#262625" d="M429.248,400.155c-1.093,0-1.639-0.767-1.639-1.716v-3.927h-0.806v-0.715h0.806v-2.002h0.937v2.002h1.364
		v0.715h-1.364v3.9c0,0.585,0.272,0.937,0.871,0.937h0.493v0.806H429.248z"/>
	<path fill="#262625" d="M432.9,397.203c0,1.404,0.663,2.21,1.885,2.21c0.741,0,1.17-0.221,1.678-0.728l0.637,0.559
		c-0.65,0.65-1.248,0.988-2.34,0.988c-1.69,0-2.796-1.015-2.796-3.276c0-2.067,1.002-3.276,2.627-3.276
		c1.65,0,2.626,1.196,2.626,3.095v0.429L432.9,397.203L432.9,397.203z M436.086,395.436c-0.247-0.585-0.819-0.963-1.495-0.963
		c-0.677,0-1.248,0.378-1.495,0.963c-0.144,0.351-0.169,0.546-0.195,1.065h3.38C436.255,395.982,436.229,395.786,436.086,395.436z"
		/>
	<path fill="#262625" d="M443.431,394.981c-0.352-0.352-0.611-0.469-1.105-0.469c-0.936,0-1.534,0.741-1.534,1.717v3.926h-0.936
		v-6.396h0.936v0.78c0.352-0.533,1.054-0.858,1.795-0.858c0.61,0,1.078,0.144,1.533,0.599L443.431,394.981z"/>
	<path fill="#262625" d="M445.927,391.939v-1.054h1.053v1.054H445.927z M445.979,400.155v-6.396h0.936v6.396H445.979z"/>
	<path fill="#262625" d="M453.545,400.155v-0.611c-0.521,0.521-0.988,0.689-1.847,0.689c-0.884,0-1.404-0.169-1.807-0.585
		c-0.312-0.312-0.481-0.793-0.481-1.3c0-1.118,0.78-1.847,2.21-1.847h1.925v-0.611c0-0.936-0.469-1.403-1.639-1.403
		c-0.818,0-1.234,0.194-1.612,0.728l-0.637-0.585c0.572-0.741,1.223-0.949,2.263-0.949c1.716,0,2.561,0.741,2.561,2.133v4.342
		h-0.936V400.155z M453.545,397.203h-1.795c-0.962,0-1.43,0.39-1.43,1.131s0.455,1.093,1.469,1.093c0.547,0,1.027-0.039,1.431-0.43
		c0.221-0.208,0.325-0.572,0.325-1.104V397.203z"/>
	<path fill="#262625" d="M459.004,400.155c-1.118,0-1.625-0.728-1.625-1.703v-7.554h0.937v7.515c0,0.624,0.208,0.937,0.857,0.937
		h0.508v0.806h-0.677V400.155z"/>
	<path fill="#262625" d="M463.918,400.233c-1.079,0-1.924-0.247-2.626-0.923l0.624-0.624c0.507,0.532,1.195,0.741,1.989,0.741
		c1.053,0,1.702-0.378,1.702-1.132c0-0.559-0.324-0.871-1.065-0.936l-1.053-0.091c-1.248-0.104-1.911-0.663-1.911-1.717
		c0-1.17,0.987-1.872,2.353-1.872c0.91,0,1.729,0.222,2.301,0.689l-0.61,0.611c-0.455-0.352-1.04-0.508-1.703-0.508
		c-0.937,0-1.431,0.403-1.431,1.054c0,0.546,0.312,0.871,1.118,0.936l1.027,0.091c1.118,0.104,1.885,0.533,1.885,1.729
		C466.518,399.518,465.465,400.233,463.918,400.233z"/>
</g>
<path fill="none" stroke="#AE1821" stroke-width="0.75" stroke-miterlimit="10" d="M391.326,375.335c0,0-2.835,0-2.835,2.889v34.678
	c0,0,0,2.888,2.835,2.888h92.581c0,0,2.834,0,2.834-2.888v-34.678c0,0,0-2.889-2.834-2.889H391.326z"/>
<g>
	<path fill="#262625" d="M534.532,392.729h-0.807l-3.042-9.257h1.04l2.405,7.488l2.405-7.488h1.04L534.532,392.729z"/>
	<path fill="#262625" d="M542.605,392.729v-0.611c-0.521,0.521-0.988,0.689-1.847,0.689c-0.884,0-1.404-0.169-1.807-0.585
		c-0.312-0.312-0.481-0.793-0.481-1.3c0-1.118,0.78-1.847,2.21-1.847h1.925v-0.611c0-0.936-0.468-1.403-1.639-1.403
		c-0.818,0-1.234,0.194-1.612,0.728l-0.637-0.585c0.572-0.741,1.223-0.949,2.263-0.949c1.716,0,2.561,0.741,2.561,2.133v4.342
		h-0.936V392.729z M542.605,389.778h-1.795c-0.962,0-1.43,0.39-1.43,1.131s0.455,1.093,1.469,1.093c0.547,0,1.027-0.039,1.431-0.43
		c0.221-0.208,0.325-0.572,0.325-1.104L542.605,389.778L542.605,389.778z"/>
	<path fill="#262625" d="M548.065,392.729c-1.118,0-1.625-0.728-1.625-1.703v-7.554h0.936v7.515c0,0.624,0.208,0.937,0.858,0.937
		h0.507v0.806h-0.676V392.729z"/>
	<path fill="#262625" d="M555.007,392.729v-0.715c-0.455,0.52-1.092,0.793-1.807,0.793c-0.689,0-1.261-0.208-1.651-0.599
		c-0.455-0.441-0.649-1.053-0.649-1.794v-4.082h0.936v3.939c0,1.131,0.598,1.703,1.561,1.703c0.962,0,1.599-0.585,1.599-1.703
		v-3.939h0.937v6.396h-0.926V392.729z"/>
	<path fill="#262625" d="M559.491,389.778c0,1.404,0.663,2.21,1.885,2.21c0.741,0,1.171-0.221,1.678-0.728l0.637,0.559
		c-0.65,0.65-1.248,0.988-2.34,0.988c-1.69,0-2.795-1.015-2.795-3.276c0-2.067,1.001-3.276,2.626-3.276
		c1.651,0,2.626,1.196,2.626,3.095v0.429L559.491,389.778L559.491,389.778z M562.677,388.01c-0.247-0.585-0.819-0.963-1.495-0.963
		s-1.248,0.378-1.495,0.963c-0.144,0.351-0.169,0.546-0.195,1.065h3.38C562.846,388.556,562.819,388.361,562.677,388.01z"/>
</g>
<g>
	<path fill="#262625" d="M510.391,407.679c-0.441,0.442-1.053,0.729-1.833,0.729s-1.391-0.286-1.833-0.729
		c-0.65-0.663-0.78-1.56-0.78-2.548s0.13-1.885,0.78-2.548c0.442-0.442,1.053-0.729,1.833-0.729s1.392,0.286,1.833,0.729
		c0.65,0.663,0.78,1.56,0.78,2.548S511.041,407.016,510.391,407.679z M509.728,403.156c-0.299-0.3-0.715-0.469-1.17-0.469
		s-0.858,0.169-1.157,0.469c-0.468,0.468-0.52,1.261-0.52,1.976s0.052,1.508,0.52,1.977c0.299,0.299,0.702,0.468,1.157,0.468
		s0.871-0.169,1.17-0.468c0.468-0.469,0.507-1.262,0.507-1.977S510.195,403.623,509.728,403.156z"/>
	<path fill="#262625" d="M514.953,402.687v5.643h-0.936v-5.643h-0.819v-0.715h0.819v-1.209c0-0.949,0.533-1.716,1.625-1.716h0.676
		v0.806h-0.507c-0.598,0-0.858,0.352-0.858,0.937v1.183h1.365v0.715h-1.365V402.687z"/>
	<path fill="#262625" d="M526.186,408.329h-3.602v-9.256h3.484c1.612,0,2.73,0.923,2.73,2.47c0,0.975-0.585,1.742-1.365,2.028
		c0.884,0.324,1.508,1.092,1.508,2.196C528.941,407.446,527.823,408.329,526.186,408.329z M525.99,399.957h-2.418v3.211h2.418
		c1.027,0,1.82-0.507,1.82-1.612C527.811,400.451,527.018,399.957,525.99,399.957z M526.095,404.052h-2.522v3.394h2.522
		c1.144,0,1.859-0.663,1.859-1.703S527.238,404.052,526.095,404.052z"/>
	<path fill="#262625" d="M535.312,403.156c-0.352-0.352-0.611-0.469-1.105-0.469c-0.936,0-1.534,0.741-1.534,1.717v3.926h-0.936
		v-6.396h0.936v0.78c0.352-0.533,1.054-0.858,1.795-0.858c0.61,0,1.078,0.144,1.533,0.599L535.312,403.156z"/>
	<path fill="#262625" d="M537.808,400.113v-1.053h1.053v1.053H537.808z M537.859,408.329v-6.396h0.936v6.396H537.859z"/>
	<path fill="#262625" d="M543.853,411.268c-0.962,0-1.495-0.247-2.171-0.858l0.61-0.598c0.469,0.416,0.794,0.637,1.534,0.637
		c1.235,0,1.756-0.871,1.756-1.963v-1.001c-0.521,0.663-1.105,0.832-1.795,0.832c-0.649,0-1.209-0.234-1.547-0.572
		c-0.637-0.637-0.78-1.625-0.78-2.665s0.144-2.028,0.78-2.665c0.338-0.338,0.91-0.56,1.561-0.56c0.702,0,1.273,0.156,1.794,0.832
		v-0.754h0.923v6.592C546.518,410.111,545.529,411.268,543.853,411.268z M543.995,402.687c-1.391,0-1.599,1.196-1.599,2.393
		s0.208,2.392,1.599,2.392c1.392,0,1.587-1.195,1.587-2.392S545.387,402.687,543.995,402.687z"/>
	<path fill="#262625" d="M553.59,408.329v-3.952c0-1.118-0.599-1.69-1.561-1.69s-1.599,0.585-1.599,1.69v3.952h-0.937v-9.256h0.937
		v3.562c0.468-0.533,1.079-0.78,1.794-0.78c1.442,0,2.301,0.924,2.301,2.366v4.108H553.59z"/>
	<path fill="#262625" d="M559.244,408.329c-1.092,0-1.638-0.767-1.638-1.716v-3.927H556.8v-0.715h0.807v-2.002h0.936v2.002h1.365
		v0.715h-1.365v3.9c0,0.585,0.273,0.937,0.871,0.937h0.494v0.806H559.244z"/>
	<path fill="#262625" d="M566.512,408.329v-3.939c0-1.131-0.611-1.703-1.573-1.703s-1.586,0.585-1.586,1.703v3.939h-0.937v-6.396
		h0.937v0.702c0.455-0.52,1.079-0.78,1.794-0.78c0.688,0,1.248,0.208,1.638,0.599c0.455,0.441,0.663,1.04,0.663,1.781v4.095h-0.936
		V408.329z"/>
	<path fill="#262625" d="M570.957,405.378c0,1.404,0.663,2.21,1.886,2.21c0.74,0,1.17-0.221,1.677-0.728l0.637,0.559
		c-0.649,0.65-1.248,0.988-2.34,0.988c-1.69,0-2.795-1.014-2.795-3.276c0-2.067,1.001-3.276,2.626-3.276
		c1.65,0,2.626,1.196,2.626,3.095v0.429L570.957,405.378L570.957,405.378z M574.143,403.611c-0.247-0.586-0.819-0.963-1.495-0.963
		s-1.248,0.377-1.495,0.963c-0.144,0.351-0.169,0.546-0.195,1.065h3.38C574.312,404.156,574.285,403.961,574.143,403.611z"/>
	<path fill="#262625" d="M579.915,408.407c-1.079,0-1.925-0.247-2.627-0.923l0.624-0.624c0.508,0.533,1.196,0.74,1.989,0.74
		c1.054,0,1.703-0.377,1.703-1.131c0-0.559-0.325-0.871-1.065-0.936l-1.054-0.091c-1.248-0.104-1.911-0.663-1.911-1.717
		c0-1.17,0.988-1.872,2.354-1.872c0.91,0,1.729,0.222,2.301,0.689l-0.61,0.611c-0.455-0.352-1.041-0.508-1.703-0.508
		c-0.937,0-1.431,0.403-1.431,1.054c0,0.546,0.312,0.871,1.118,0.936l1.027,0.091c1.118,0.104,1.885,0.533,1.885,1.729
		C582.515,407.693,581.462,408.407,579.915,408.407z"/>
	<path fill="#262625" d="M586.805,408.407c-1.079,0-1.925-0.247-2.627-0.923l0.624-0.624c0.508,0.533,1.196,0.74,1.989,0.74
		c1.054,0,1.703-0.377,1.703-1.131c0-0.559-0.325-0.871-1.065-0.936l-1.054-0.091c-1.248-0.104-1.911-0.663-1.911-1.717
		c0-1.17,0.988-1.872,2.354-1.872c0.91,0,1.729,0.222,2.301,0.689l-0.611,0.611c-0.454-0.352-1.039-0.508-1.702-0.508
		c-0.937,0-1.431,0.403-1.431,1.054c0,0.546,0.312,0.871,1.118,0.936l1.027,0.091c1.118,0.104,1.885,0.533,1.885,1.729
		C589.404,407.693,588.352,408.407,586.805,408.407z"/>
</g>
<path fill="none" stroke="#AE1821" stroke-width="0.75" stroke-miterlimit="10" d="M501.576,375.335c0,0-2.835,0-2.835,2.835v34.785
	c0,0,0,2.834,2.835,2.834h92.581c0,0,2.834,0,2.834-2.834V378.17c0,0,0-2.835-2.834-2.835H501.576z"/>
<g opacity="0.75">
	<g>
		<g>
			<defs>
				<rect id="SVGID_11_" x="262.716" y="35.419" width="240" height="8.75"/>
			</defs>
			<clipPath id="SVGID_12_">
				<use xlink:href="#SVGID_11_"  overflow="visible"/>
			</clipPath>
			
				<line clip-path="url(#SVGID_12_)" fill="none" stroke="#BAA494" stroke-width="0.75" x1="271.716" y1="42.794" x2="493.716" y2="42.794"/>
		</g>
	</g>
</g>
<g opacity="0.75">
	<g>
		<g>
			<defs>
				<rect id="SVGID_13_" x="262.716" y="89.883" width="240" height="8.75"/>
			</defs>
			<clipPath id="SVGID_14_">
				<use xlink:href="#SVGID_13_"  overflow="visible"/>
			</clipPath>
			
				<line clip-path="url(#SVGID_14_)" fill="none" stroke="#BAA494" stroke-width="0.75" x1="493.716" y1="91.258" x2="271.716" y2="91.258"/>
		</g>
	</g>
</g>
<g opacity="0.75">
	<g>
		<g>
			<defs>
				<rect id="SVGID_15_" x="262.416" y="132.751" width="240" height="8.75"/>
			</defs>
			<clipPath id="SVGID_16_">
				<use xlink:href="#SVGID_15_"  overflow="visible"/>
			</clipPath>
			
				<line clip-path="url(#SVGID_16_)" fill="none" stroke="#BAA494" stroke-width="0.75" x1="271.416" y1="140.126" x2="493.416" y2="140.126"/>
		</g>
	</g>
</g>
<g opacity="0.75">
	<g>
		<g>
			<defs>
				<rect id="SVGID_17_" x="262.416" y="286.322" width="240" height="8.75"/>
			</defs>
			<clipPath id="SVGID_18_">
				<use xlink:href="#SVGID_17_"  overflow="visible"/>
			</clipPath>
			
				<line clip-path="url(#SVGID_18_)" fill="none" stroke="#BAA494" stroke-width="0.75" x1="271.416" y1="293.697" x2="493.416" y2="293.697"/>
		</g>
	</g>
</g>
<g opacity="0.75">
	<g>
		<g>
			<defs>
				<rect id="SVGID_19_" x="428.616" y="355.872" width="129" height="8.75"/>
			</defs>
			<clipPath id="SVGID_20_">
				<use xlink:href="#SVGID_19_"  overflow="visible"/>
			</clipPath>
			
				<line clip-path="url(#SVGID_20_)" fill="none" stroke="#BAA494" stroke-width="0.75" x1="437.616" y1="363.247" x2="548.616" y2="363.247"/>
		</g>
	</g>
</g>
<g>
	<path fill="#262625" d="M308.519,112.286v3.406h4.056v0.884h-4.056v4.082h-0.988v-9.257h5.747v0.885H308.519z"/>
	<path fill="#262625" d="M315.5,112.442v-1.054h1.053v1.054H315.5z M315.551,120.658v-6.396h0.936v6.396
		C316.487,120.658,315.551,120.658,315.551,120.658z"/>
	<path fill="#262625" d="M323.585,120.658v-3.939c0-1.131-0.611-1.703-1.573-1.703s-1.586,0.585-1.586,1.703v3.939h-0.936v-6.396
		h0.936v0.702c0.455-0.52,1.079-0.78,1.794-0.78c0.689,0,1.248,0.208,1.638,0.599c0.455,0.441,0.663,1.04,0.663,1.781v4.095
		L323.585,120.658L323.585,120.658z"/>
	<path fill="#262625" d="M331.255,120.658v-0.767c-0.52,0.676-1.118,0.845-1.82,0.845c-0.65,0-1.222-0.221-1.561-0.56
		c-0.65-0.649-0.78-1.716-0.78-2.717s0.13-2.067,0.78-2.717c0.338-0.338,0.91-0.56,1.561-0.56c0.702,0,1.287,0.156,1.807,0.819
		v-3.602h0.936v9.257h-0.923V120.658z M329.644,115.015c-1.391,0-1.612,1.196-1.612,2.444s0.221,2.444,1.612,2.444
		s1.599-1.196,1.599-2.444S331.034,115.015,329.644,115.015z"/>
	<path fill="#262625" d="M342.812,120.658h-3.602v-9.257h3.484c1.612,0,2.73,0.924,2.73,2.471c0,0.975-0.585,1.742-1.365,2.028
		c0.884,0.324,1.508,1.092,1.508,2.196C345.568,119.774,344.45,120.658,342.812,120.658z M342.617,112.286h-2.418v3.211h2.418
		c1.027,0,1.82-0.507,1.82-1.612C344.438,112.78,343.645,112.286,342.617,112.286z M342.721,116.381h-2.522v3.394h2.522
		c1.144,0,1.859-0.663,1.859-1.703S343.865,116.381,342.721,116.381z"/>
	<path fill="#262625" d="M351.938,115.484c-0.351-0.352-0.611-0.469-1.105-0.469c-0.936,0-1.534,0.741-1.534,1.717v3.926h-0.936
		v-6.396h0.936v0.78c0.351-0.533,1.053-0.858,1.794-0.858c0.611,0,1.079,0.144,1.534,0.599L351.938,115.484z"/>
	<path fill="#262625" d="M357.983,120.658v-0.611c-0.52,0.521-0.988,0.689-1.846,0.689c-0.884,0-1.404-0.169-1.807-0.585
		c-0.312-0.312-0.481-0.793-0.481-1.3c0-1.118,0.78-1.847,2.21-1.847h1.924v-0.611c0-0.936-0.468-1.403-1.638-1.403
		c-0.819,0-1.235,0.194-1.612,0.728l-0.637-0.585c0.572-0.741,1.222-0.949,2.262-0.949c1.716,0,2.561,0.741,2.561,2.133v4.342
		h-0.936V120.658z M357.983,117.707h-1.794c-0.962,0-1.43,0.39-1.43,1.131s0.455,1.093,1.469,1.093c0.546,0,1.027-0.039,1.43-0.43
		c0.221-0.208,0.325-0.572,0.325-1.104V117.707z"/>
	<path fill="#262625" d="M365.939,120.658v-3.939c0-1.131-0.611-1.703-1.573-1.703s-1.586,0.585-1.586,1.703v3.939h-0.936v-6.396
		h0.936v0.702c0.455-0.52,1.079-0.78,1.794-0.78c0.689,0,1.248,0.208,1.638,0.599c0.455,0.441,0.663,1.04,0.663,1.781v4.095
		L365.939,120.658L365.939,120.658z"/>
	<path fill="#262625" d="M373.622,120.658v-0.767c-0.52,0.676-1.118,0.845-1.82,0.845c-0.65,0-1.222-0.221-1.561-0.56
		c-0.65-0.649-0.78-1.716-0.78-2.717s0.13-2.067,0.78-2.717c0.338-0.338,0.91-0.56,1.561-0.56c0.702,0,1.287,0.156,1.807,0.819
		v-3.602h0.936v9.257h-0.923V120.658z M372.01,115.015c-1.391,0-1.612,1.196-1.612,2.444s0.221,2.444,1.612,2.444
		s1.599-1.196,1.599-2.444S373.4,115.015,372.01,115.015z"/>
	<path fill="#262625" d="M379.55,120.736c-1.079,0-1.924-0.247-2.626-0.923l0.624-0.624c0.507,0.532,1.196,0.741,1.989,0.741
		c1.053,0,1.703-0.378,1.703-1.132c0-0.559-0.325-0.871-1.066-0.936l-1.053-0.091c-1.248-0.104-1.911-0.663-1.911-1.717
		c0-1.17,0.988-1.872,2.353-1.872c0.91,0,1.729,0.222,2.301,0.689l-0.611,0.611c-0.455-0.352-1.04-0.508-1.703-0.508
		c-0.936,0-1.43,0.403-1.43,1.054c0,0.546,0.312,0.871,1.118,0.936l1.027,0.091c1.118,0.104,1.885,0.533,1.885,1.729
		C382.15,120.021,381.097,120.736,379.55,120.736z"/>
	<path fill="#262625" d="M388.454,112.442v-1.054h1.053v1.054H388.454z M388.506,120.658v-6.396h0.937v6.396
		C389.443,120.658,388.506,120.658,388.506,120.658z"/>
	<path fill="#262625" d="M396.54,120.658v-3.939c0-1.131-0.61-1.703-1.572-1.703c-0.963,0-1.587,0.585-1.587,1.703v3.939h-0.936
		v-6.396h0.936v0.702c0.455-0.52,1.079-0.78,1.795-0.78c0.688,0,1.248,0.208,1.638,0.599c0.455,0.441,0.663,1.04,0.663,1.781v4.095
		L396.54,120.658L396.54,120.658z"/>
	<path fill="#262625" d="M407.33,120.736c-0.91,0-1.742-0.338-2.366-0.962c-0.871-0.871-0.871-1.781-0.871-3.744
		s0-2.873,0.871-3.744c0.624-0.624,1.456-0.962,2.366-0.962c1.664,0,2.899,1.014,3.211,2.756h-1.014
		c-0.247-1.131-1.04-1.872-2.197-1.872c-0.611,0-1.196,0.234-1.6,0.65c-0.585,0.598-0.649,1.234-0.649,3.172
		c0,1.937,0.064,2.574,0.649,3.172c0.403,0.416,0.988,0.65,1.6,0.65c1.157,0,1.976-0.741,2.223-1.872h0.988
		C410.242,119.721,408.981,120.736,407.33,120.736z"/>
	<path fill="#262625" d="M417.301,120.008c-0.441,0.442-1.053,0.729-1.833,0.729s-1.391-0.286-1.833-0.729
		c-0.65-0.663-0.78-1.56-0.78-2.548s0.13-1.885,0.78-2.548c0.442-0.442,1.053-0.729,1.833-0.729s1.392,0.286,1.833,0.729
		c0.65,0.663,0.78,1.56,0.78,2.548S417.951,119.344,417.301,120.008z M416.638,115.484c-0.299-0.3-0.715-0.469-1.17-0.469
		s-0.858,0.169-1.157,0.469c-0.468,0.468-0.52,1.261-0.52,1.976s0.052,1.508,0.52,1.977c0.299,0.299,0.702,0.468,1.157,0.468
		s0.871-0.169,1.17-0.468c0.468-0.469,0.507-1.262,0.507-1.977S417.105,115.952,416.638,115.484z"/>
	<path fill="#262625" d="M428.936,120.658v-3.939c0-1.131-0.61-1.703-1.572-1.703c-0.937,0-1.6,0.585-1.6,1.6v4.043h-0.936v-3.939
		c0-1.131-0.611-1.703-1.573-1.703s-1.6,0.585-1.6,1.703v3.939h-0.936v-6.396h0.936v0.702c0.455-0.52,1.093-0.78,1.808-0.78
		c0.884,0,1.573,0.364,1.963,1.066c0.494-0.702,1.209-1.066,2.106-1.066c0.688,0,1.261,0.222,1.65,0.599
		c0.455,0.441,0.689,1.04,0.689,1.781v4.095h-0.935V120.658z"/>
	<path fill="#262625" d="M441.013,120.658v-3.939c0-1.131-0.61-1.703-1.572-1.703c-0.937,0-1.6,0.585-1.6,1.6v4.043h-0.936v-3.939
		c0-1.131-0.611-1.703-1.573-1.703s-1.6,0.585-1.6,1.703v3.939h-0.936v-6.396h0.936v0.702c0.455-0.52,1.093-0.78,1.808-0.78
		c0.884,0,1.573,0.364,1.963,1.066c0.494-0.702,1.209-1.066,2.106-1.066c0.688,0,1.261,0.222,1.65,0.599
		c0.455,0.441,0.689,1.04,0.689,1.781v4.095h-0.935V120.658z"/>
	<path fill="#262625" d="M448.969,120.008c-0.441,0.442-1.053,0.729-1.833,0.729s-1.391-0.286-1.833-0.729
		c-0.65-0.663-0.78-1.56-0.78-2.548s0.13-1.885,0.78-2.548c0.442-0.442,1.053-0.729,1.833-0.729s1.392,0.286,1.833,0.729
		c0.65,0.663,0.78,1.56,0.78,2.548S449.619,119.344,448.969,120.008z M448.306,115.484c-0.299-0.3-0.715-0.469-1.17-0.469
		s-0.858,0.169-1.157,0.469c-0.468,0.468-0.52,1.261-0.52,1.976s0.052,1.508,0.52,1.977c0.299,0.299,0.702,0.468,1.157,0.468
		s0.871-0.169,1.17-0.468c0.468-0.469,0.507-1.262,0.507-1.977S448.773,115.952,448.306,115.484z"/>
	<path fill="#262625" d="M456.496,120.658v-3.939c0-1.131-0.611-1.703-1.573-1.703s-1.586,0.585-1.586,1.703v3.939H452.4v-6.396
		h0.937v0.702c0.455-0.52,1.079-0.78,1.794-0.78c0.689,0,1.248,0.208,1.638,0.599c0.455,0.441,0.663,1.04,0.663,1.781v4.095
		L456.496,120.658L456.496,120.658z"/>
</g>
<g>
	<path fill="#BAA494" d="M172.976,195.283v-0.605c-0.363,0.463-0.803,0.683-1.474,0.683c-0.616,0-1.155-0.242-1.497-0.671
		c-0.374-0.462-0.484-1.023-0.484-2.024c0-0.969,0.11-1.562,0.451-2.014c0.319-0.429,0.88-0.682,1.518-0.682s1.1,0.23,1.474,0.692
		v-0.857c0-0.583-0.11-0.925-0.429-1.255c-0.308-0.308-0.704-0.439-1.221-0.439h-1.43c-0.517,0-0.88,0.121-1.199,0.439
		c-0.33,0.33-0.44,0.649-0.44,1.255v3.707c0,0.693,0.121,0.957,0.627,1.331l-0.539,0.539c-0.671-0.495-0.858-0.88-0.858-1.859
		v-3.696c0-0.748,0.198-1.342,0.616-1.771c0.407-0.418,0.979-0.615,1.694-0.615h1.628c0.704,0,1.276,0.197,1.694,0.615
		c0.429,0.43,0.627,1.023,0.627,1.771v5.468L172.976,195.283z M171.634,190.652c-1.155,0-1.331,0.99-1.331,2.014
		c0,1.022,0.176,2.013,1.331,2.013s1.331-0.99,1.331-2.013C172.965,191.642,172.789,190.652,171.634,190.652z"/>
	<path fill="#BAA494" d="M177.419,195.283c-0.946,0-1.375-0.616-1.375-1.441v-6.392h0.792v6.358c0,0.528,0.176,0.793,0.726,0.793
		h0.429v0.682L177.419,195.283L177.419,195.283z"/>
	<path fill="#BAA494" d="M183.129,194.734c-0.374,0.374-0.891,0.616-1.551,0.616s-1.177-0.242-1.551-0.616
		c-0.55-0.562-0.66-1.32-0.66-2.156c0-0.837,0.11-1.596,0.66-2.156c0.374-0.374,0.891-0.616,1.551-0.616s1.177,0.242,1.551,0.616
		c0.55,0.561,0.66,1.319,0.66,2.156C183.789,193.413,183.679,194.172,183.129,194.734z M182.568,190.905
		c-0.253-0.253-0.605-0.396-0.99-0.396c-0.385,0-0.726,0.143-0.979,0.396c-0.396,0.396-0.44,1.067-0.44,1.673
		c0,0.604,0.044,1.275,0.44,1.672c0.253,0.253,0.594,0.396,0.979,0.396c0.385,0,0.737-0.144,0.99-0.396
		c0.396-0.396,0.429-1.067,0.429-1.672C182.997,191.972,182.964,191.301,182.568,190.905z"/>
	<path fill="#BAA494" d="M187.737,195.283h-0.704l-1.98-5.413h0.858l1.474,4.346l1.485-4.346h0.858L187.737,195.283z"/>
	<path fill="#BAA494" d="M191.774,192.786c0,1.188,0.561,1.87,1.595,1.87c0.627,0,0.99-0.188,1.419-0.616l0.539,0.473
		c-0.55,0.551-1.056,0.837-1.98,0.837c-1.43,0-2.366-0.858-2.366-2.772c0-1.75,0.847-2.772,2.223-2.772
		c1.397,0,2.222,1.012,2.222,2.618v0.363h-3.652V192.786z M194.47,191.29c-0.209-0.495-0.693-0.814-1.265-0.814
		s-1.056,0.319-1.265,0.814c-0.121,0.297-0.143,0.462-0.165,0.901h2.86C194.613,191.752,194.591,191.587,194.47,191.29z"/>
	<path fill="#BAA494" d="M204.601,195.283v-3.333c0-0.958-0.517-1.441-1.332-1.441c-0.792,0-1.353,0.495-1.353,1.353v3.422h-0.792
		v-3.333c0-0.958-0.517-1.441-1.332-1.441c-0.814,0-1.353,0.495-1.353,1.441v3.333h-0.792v-5.413h0.792v0.595
		c0.385-0.44,0.924-0.66,1.529-0.66c0.748,0,1.331,0.308,1.661,0.901c0.418-0.594,1.023-0.901,1.782-0.901
		c0.583,0,1.067,0.187,1.397,0.506c0.385,0.374,0.583,0.88,0.583,1.507v3.466h-0.79V195.283z"/>
	<path fill="#BAA494" d="M209.209,196.593c-0.11,0.297-0.231,0.495-0.385,0.638c-0.286,0.275-0.671,0.374-1.056,0.374h-0.341v-0.704
		h0.242c0.55,0,0.715-0.176,0.891-0.671l0.385-1.057l-1.947-5.303h0.858l1.485,4.346l1.474-4.346h0.858L209.209,196.593z"/>
	<path fill="#BAA494" d="M215.039,195.35c-0.913,0-1.628-0.209-2.222-0.781l0.528-0.528c0.429,0.451,1.012,0.627,1.684,0.627
		c0.891,0,1.441-0.319,1.441-0.957c0-0.473-0.275-0.737-0.902-0.792l-0.891-0.077c-1.056-0.088-1.617-0.562-1.617-1.452
		c0-0.99,0.836-1.584,1.991-1.584c0.77,0,1.463,0.187,1.947,0.583l-0.517,0.517c-0.385-0.297-0.88-0.429-1.441-0.429
		c-0.792,0-1.21,0.341-1.21,0.891c0,0.463,0.264,0.737,0.946,0.793l0.869,0.076c0.946,0.089,1.595,0.451,1.595,1.464
		C217.239,194.744,216.348,195.35,215.039,195.35z"/>
	<path fill="#BAA494" d="M219.296,188.33v-0.891h0.891v0.891H219.296z M219.34,195.283v-5.413h0.792v5.413H219.34z"/>
	<path fill="#BAA494" d="M224.026,195.283c-0.946,0-1.375-0.616-1.375-1.441v-6.392h0.792v6.358c0,0.528,0.176,0.793,0.726,0.793
		h0.429v0.682L224.026,195.283L224.026,195.283z"/>
	<path fill="#BAA494" d="M230.054,195.283l-1.716-2.772l-1.056,1.21v1.562h-0.792v-7.833h0.792v5.236l2.442-2.816h0.99l-1.837,2.068
		l2.156,3.345H230.054z"/>
</g>
<g>
	<path fill="#BAA494" d="M394.406,195.283v-0.605c-0.363,0.463-0.804,0.683-1.475,0.683c-0.616,0-1.155-0.242-1.496-0.671
		c-0.374-0.462-0.484-1.023-0.484-2.024c0-0.969,0.11-1.562,0.451-2.014c0.319-0.429,0.88-0.682,1.519-0.682
		c0.638,0,1.1,0.23,1.474,0.692v-0.857c0-0.583-0.109-0.925-0.429-1.255c-0.308-0.308-0.704-0.439-1.221-0.439h-1.431
		c-0.517,0-0.88,0.121-1.199,0.439c-0.33,0.33-0.44,0.649-0.44,1.255v3.707c0,0.693,0.121,0.957,0.628,1.331l-0.539,0.539
		c-0.672-0.495-0.858-0.88-0.858-1.859v-3.696c0-0.748,0.198-1.342,0.616-1.771c0.407-0.418,0.979-0.615,1.694-0.615h1.628
		c0.704,0,1.276,0.197,1.694,0.615c0.429,0.43,0.627,1.023,0.627,1.771v5.468L394.406,195.283z M393.063,190.652
		c-1.155,0-1.331,0.99-1.331,2.014c0,1.022,0.176,2.013,1.331,2.013s1.331-0.99,1.331-2.013
		C394.395,191.642,394.219,190.652,393.063,190.652z"/>
	<path fill="#BAA494" d="M399.201,195.35c-0.913,0-1.628-0.209-2.222-0.781l0.527-0.528c0.43,0.451,1.013,0.627,1.684,0.627
		c0.892,0,1.441-0.319,1.441-0.957c0-0.473-0.275-0.737-0.902-0.792l-0.891-0.077c-1.057-0.088-1.617-0.562-1.617-1.452
		c0-0.99,0.836-1.584,1.991-1.584c0.77,0,1.463,0.187,1.947,0.583l-0.518,0.517c-0.385-0.297-0.88-0.429-1.441-0.429
		c-0.792,0-1.21,0.341-1.21,0.891c0,0.463,0.264,0.737,0.946,0.793l0.869,0.076c0.946,0.089,1.595,0.451,1.595,1.464
		C401.401,194.744,400.511,195.35,399.201,195.35z"/>
	<path fill="#BAA494" d="M406.979,194.734c-0.374,0.374-0.891,0.616-1.551,0.616s-1.178-0.242-1.552-0.616
		c-0.55-0.562-0.66-1.32-0.66-2.156c0-0.837,0.11-1.596,0.66-2.156c0.374-0.374,0.892-0.616,1.552-0.616s1.177,0.242,1.551,0.616
		c0.55,0.561,0.66,1.319,0.66,2.156C407.639,193.413,407.528,194.172,406.979,194.734z M406.418,190.905
		c-0.254-0.253-0.605-0.396-0.99-0.396c-0.386,0-0.727,0.143-0.979,0.396c-0.396,0.396-0.44,1.067-0.44,1.673
		c0,0.604,0.044,1.275,0.44,1.672c0.253,0.253,0.594,0.396,0.979,0.396s0.736-0.144,0.99-0.396c0.396-0.396,0.429-1.067,0.429-1.672
		C406.847,191.972,406.813,191.301,406.418,190.905z"/>
	<path fill="#BAA494" d="M408.892,197.099v-0.562h5.908v0.562H408.892z"/>
	<path fill="#BAA494" d="M419.573,195.283v-0.649c-0.439,0.572-0.946,0.716-1.54,0.716c-0.55,0-1.034-0.188-1.32-0.474
		c-0.55-0.55-0.66-1.452-0.66-2.299c0-0.848,0.11-1.75,0.66-2.3c0.286-0.286,0.771-0.473,1.32-0.473
		c0.594,0,1.089,0.132,1.529,0.692v-3.047h0.792v7.833L419.573,195.283L419.573,195.283z M418.209,190.509
		c-1.177,0-1.364,1.012-1.364,2.068s0.188,2.068,1.364,2.068c1.178,0,1.354-1.013,1.354-2.068
		C419.562,191.521,419.387,190.509,418.209,190.509z"/>
	<path fill="#BAA494" d="M423.379,192.786c0,1.188,0.562,1.87,1.596,1.87c0.627,0,0.99-0.188,1.419-0.616l0.539,0.473
		c-0.55,0.551-1.057,0.837-1.98,0.837c-1.43,0-2.365-0.858-2.365-2.772c0-1.75,0.847-2.772,2.223-2.772
		c1.396,0,2.222,1.012,2.222,2.618v0.363h-3.654V192.786z M426.074,191.29c-0.209-0.495-0.693-0.814-1.265-0.814
		c-0.572,0-1.057,0.319-1.266,0.814c-0.121,0.297-0.143,0.462-0.165,0.901h2.86C426.218,191.752,426.195,191.587,426.074,191.29z"/>
	<path fill="#BAA494" d="M430.605,195.283c-0.946,0-1.375-0.616-1.375-1.441v-6.392h0.792v6.358c0,0.528,0.177,0.793,0.727,0.793
		h0.429v0.682L430.605,195.283L430.605,195.283z"/>
	<path fill="#BAA494" d="M433.015,188.33v-0.891h0.892v0.891H433.015z M433.059,195.283v-5.413h0.792v5.413H433.059z"/>
	<path fill="#BAA494" d="M438.493,195.35c-1.364,0-2.398-0.925-2.398-2.772c0-1.849,1.034-2.772,2.398-2.772
		c0.748,0,1.221,0.198,1.782,0.803l-0.539,0.506c-0.407-0.451-0.727-0.604-1.243-0.604c-0.528,0-0.968,0.209-1.254,0.616
		c-0.253,0.352-0.353,0.77-0.353,1.452c0,0.682,0.1,1.1,0.353,1.452c0.286,0.407,0.726,0.616,1.254,0.616
		c0.517,0,0.836-0.165,1.243-0.616l0.539,0.517C439.714,195.152,439.241,195.35,438.493,195.35z"/>
	<path fill="#BAA494" d="M442.288,188.33v-0.891h0.891v0.891H442.288z M442.332,195.283v-5.413h0.792v5.413H442.332z"/>
	<path fill="#BAA494" d="M449.142,194.734c-0.374,0.374-0.892,0.616-1.552,0.616s-1.177-0.242-1.551-0.616
		c-0.551-0.562-0.66-1.32-0.66-2.156c0-0.837,0.109-1.596,0.66-2.156c0.374-0.374,0.891-0.616,1.551-0.616s1.178,0.242,1.552,0.616
		c0.55,0.561,0.66,1.319,0.66,2.156C449.802,193.413,449.691,194.172,449.142,194.734z M448.58,190.905
		c-0.253-0.253-0.605-0.396-0.99-0.396s-0.726,0.143-0.979,0.396c-0.396,0.396-0.44,1.067-0.44,1.673
		c0,0.604,0.044,1.275,0.44,1.672c0.253,0.253,0.594,0.396,0.979,0.396s0.737-0.144,0.99-0.396c0.396-0.396,0.429-1.067,0.429-1.672
		C449.009,191.972,448.977,191.301,448.58,190.905z"/>
	<path fill="#BAA494" d="M455.466,195.283v-0.605c-0.385,0.44-0.924,0.672-1.529,0.672c-0.583,0-1.066-0.177-1.396-0.507
		c-0.386-0.374-0.551-0.891-0.551-1.518v-3.455h0.792v3.334c0,0.957,0.507,1.441,1.32,1.441c0.814,0,1.354-0.495,1.354-1.441v-3.334
		h0.792v5.413L455.466,195.283L455.466,195.283z"/>
	<path fill="#BAA494" d="M460.481,195.35c-0.913,0-1.628-0.209-2.222-0.781l0.527-0.528c0.43,0.451,1.013,0.627,1.684,0.627
		c0.892,0,1.441-0.319,1.441-0.957c0-0.473-0.275-0.737-0.902-0.792l-0.891-0.077c-1.057-0.088-1.617-0.562-1.617-1.452
		c0-0.99,0.836-1.584,1.991-1.584c0.77,0,1.463,0.187,1.947,0.583l-0.518,0.517c-0.385-0.297-0.88-0.429-1.441-0.429
		c-0.792,0-1.21,0.341-1.21,0.891c0,0.463,0.264,0.737,0.946,0.793l0.869,0.076c0.946,0.089,1.595,0.451,1.595,1.464
		C462.682,194.744,461.791,195.35,460.481,195.35z"/>
</g>
<g opacity="0.75">
	<g>
		<g>
			<defs>
				<rect id="SVGID_21_" x="261.366" y="193.953" width="18.75" height="19.339"/>
			</defs>
			<clipPath id="SVGID_22_">
				<use xlink:href="#SVGID_21_"  overflow="visible"/>
			</clipPath>
			
				<line clip-path="url(#SVGID_22_)" fill="none" stroke="#BAA494" stroke-width="0.75" x1="270.741" y1="200.953" x2="270.741" y2="212.292"/>
		</g>
	</g>
</g>
<g opacity="0.75">
	<g>
		<g>
			<defs>
				<rect id="SVGID_23_" x="483.366" y="193.953" width="18.75" height="19.339"/>
			</defs>
			<clipPath id="SVGID_24_">
				<use xlink:href="#SVGID_23_"  overflow="visible"/>
			</clipPath>
			
				<line clip-path="url(#SVGID_24_)" fill="none" stroke="#BAA494" stroke-width="0.75" x1="492.741" y1="200.953" x2="492.741" y2="212.292"/>
		</g>
	</g>
</g>
<g opacity="0.75">
	<g>
		<g>
			<defs>
				<rect id="SVGID_25_" x="261.366" y="226.562" width="18.75" height="19.339"/>
			</defs>
			<clipPath id="SVGID_26_">
				<use xlink:href="#SVGID_25_"  overflow="visible"/>
			</clipPath>
			
				<line clip-path="url(#SVGID_26_)" fill="none" stroke="#BAA494" stroke-width="0.75" x1="270.741" y1="233.562" x2="270.741" y2="244.901"/>
		</g>
	</g>
</g>
<g opacity="0.75">
	<g>
		<g>
			<defs>
				<rect id="SVGID_27_" x="483.366" y="226.562" width="18.75" height="19.339"/>
			</defs>
			<clipPath id="SVGID_28_">
				<use xlink:href="#SVGID_27_"  overflow="visible"/>
			</clipPath>
			
				<line clip-path="url(#SVGID_28_)" fill="none" stroke="#BAA494" stroke-width="0.75" x1="492.741" y1="233.562" x2="492.741" y2="244.901"/>
		</g>
	</g>
</g>
<g>
	<path fill="#262625" d="M263.642,227.893v-8.216l-1.729,1.521v-1.066l1.729-1.495h0.936v9.257h-0.936V227.893z"/>
	<path fill="#262625" d="M271.117,227.971c-1.443,0-2.535-1.015-2.535-2.548v-4.316c0-1.534,1.092-2.548,2.535-2.548
		s2.535,1.014,2.535,2.548v4.316C273.652,226.956,272.56,227.971,271.117,227.971z M272.716,221.158
		c0-1.014-0.572-1.768-1.599-1.768s-1.599,0.754-1.599,1.768v4.212c0,1.015,0.572,1.769,1.599,1.769s1.599-0.754,1.599-1.769
		V221.158z"/>
	<path fill="#262625" d="M278.552,227.971c-1.443,0-2.535-1.015-2.535-2.548v-4.316c0-1.534,1.092-2.548,2.535-2.548
		s2.535,1.014,2.535,2.548v4.316C281.087,226.956,279.995,227.971,278.552,227.971z M280.151,221.158
		c0-1.014-0.572-1.768-1.599-1.768s-1.599,0.754-1.599,1.768v4.212c0,1.015,0.572,1.769,1.599,1.769s1.599-0.754,1.599-1.769
		V221.158z"/>
</g>
<g>
	<path fill="#262625" d="M485.643,227.893v-8.216l-1.729,1.521v-1.066l1.729-1.495h0.936v9.257h-0.936V227.893z"/>
	<path fill="#262625" d="M493.117,227.971c-1.442,0-2.535-1.015-2.535-2.548v-4.316c0-1.534,1.093-2.548,2.535-2.548
		c1.443,0,2.535,1.014,2.535,2.548v4.316C495.652,226.956,494.561,227.971,493.117,227.971z M494.717,221.158
		c0-1.014-0.572-1.768-1.6-1.768c-1.026,0-1.599,0.754-1.599,1.768v4.212c0,1.015,0.572,1.769,1.599,1.769s1.6-0.754,1.6-1.769
		V221.158z"/>
	<path fill="#262625" d="M500.553,227.971c-1.442,0-2.535-1.015-2.535-2.548v-4.316c0-1.534,1.093-2.548,2.535-2.548
		c1.443,0,2.535,1.014,2.535,2.548v4.316C503.088,226.956,501.996,227.971,500.553,227.971z M502.152,221.158
		c0-1.014-0.572-1.768-1.6-1.768c-1.026,0-1.599,0.754-1.599,1.768v4.212c0,1.015,0.572,1.769,1.599,1.769s1.6-0.754,1.6-1.769
		V221.158z"/>
</g>
<g>
	<path fill="#AE1821" d="M533.091,213.929h-0.737l-1.419-4.202l-1.408,4.202h-0.737l-1.716-5.413h0.857l1.243,4.346l1.42-4.346
		h0.682l1.431,4.346l1.231-4.346h0.858L533.091,213.929z"/>
	<path fill="#AE1821" d="M536.885,211.432c0,1.188,0.562,1.87,1.596,1.87c0.627,0,0.99-0.188,1.419-0.616l0.539,0.473
		c-0.55,0.551-1.057,0.837-1.98,0.837c-1.43,0-2.365-0.858-2.365-2.772c0-1.75,0.847-2.772,2.223-2.772
		c1.396,0,2.222,1.012,2.222,2.618v0.363h-3.654V211.432z M539.58,209.936c-0.209-0.495-0.693-0.814-1.265-0.814
		s-1.057,0.319-1.266,0.814c-0.121,0.297-0.143,0.462-0.165,0.901h2.86C539.724,210.398,539.701,210.233,539.58,209.936z"/>
	<path fill="#AE1821" d="M546.412,213.522c-0.286,0.286-0.771,0.474-1.32,0.474c-0.594,0-1.089-0.144-1.529-0.716v0.649h-0.792
		v-7.833h0.792v3.047c0.44-0.561,0.936-0.692,1.529-0.692c0.55,0,1.034,0.187,1.32,0.473c0.55,0.55,0.66,1.452,0.66,2.3
		C547.072,212.07,546.962,212.972,546.412,213.522z M544.927,209.155c-1.177,0-1.364,1.012-1.364,2.068s0.188,2.068,1.364,2.068
		s1.354-1.013,1.354-2.068C546.28,210.166,546.104,209.155,544.927,209.155z"/>
	<path fill="#AE1821" d="M551.01,213.995c-0.913,0-1.628-0.209-2.223-0.781l0.528-0.528c0.43,0.451,1.013,0.627,1.684,0.627
		c0.891,0,1.441-0.319,1.441-0.957c0-0.473-0.275-0.737-0.902-0.792l-0.892-0.077c-1.056-0.088-1.617-0.562-1.617-1.452
		c0-0.99,0.836-1.584,1.991-1.584c0.771,0,1.464,0.187,1.947,0.583l-0.517,0.517c-0.385-0.297-0.88-0.429-1.441-0.429
		c-0.792,0-1.21,0.341-1.21,0.891c0,0.463,0.264,0.737,0.946,0.793l0.869,0.076c0.946,0.089,1.595,0.451,1.595,1.464
		C553.21,213.39,552.319,213.995,551.01,213.995z"/>
	<path fill="#AE1821" d="M556.719,213.929c-0.925,0-1.387-0.649-1.387-1.452v-3.322h-0.682v-0.605h0.682v-1.694h0.792v1.694h1.155
		v0.605h-1.155v3.3c0,0.495,0.231,0.793,0.737,0.793h0.418v0.682h-0.56V213.929z"/>
	<path fill="#AE1821" d="M562.384,213.929v-0.517c-0.44,0.439-0.836,0.583-1.562,0.583c-0.748,0-1.188-0.144-1.529-0.495
		c-0.264-0.265-0.406-0.672-0.406-1.101c0-0.946,0.659-1.562,1.87-1.562h1.628v-0.517c0-0.792-0.396-1.188-1.386-1.188
		c-0.693,0-1.046,0.165-1.364,0.616l-0.539-0.495c0.483-0.627,1.034-0.803,1.914-0.803c1.452,0,2.167,0.627,2.167,1.804v3.675
		L562.384,213.929L562.384,213.929z M562.384,211.432h-1.519c-0.813,0-1.21,0.33-1.21,0.957s0.385,0.924,1.243,0.924
		c0.462,0,0.869-0.033,1.21-0.363c0.188-0.176,0.275-0.483,0.275-0.935L562.384,211.432L562.384,211.432z"/>
	<path fill="#AE1821" d="M565.627,213.929v-1.034h1.034v1.034H565.627z"/>
	<path fill="#AE1821" d="M576.123,213.929v-3.333c0-0.958-0.518-1.441-1.331-1.441c-0.792,0-1.354,0.495-1.354,1.353v3.422h-0.792
		v-3.333c0-0.958-0.518-1.441-1.331-1.441c-0.814,0-1.354,0.495-1.354,1.441v3.333h-0.792v-5.413h0.792v0.595
		c0.385-0.44,0.924-0.66,1.529-0.66c0.748,0,1.331,0.308,1.661,0.902c0.418-0.595,1.023-0.902,1.782-0.902
		c0.583,0,1.067,0.187,1.397,0.506c0.385,0.374,0.583,0.88,0.583,1.507v3.466h-0.79V213.929z"/>
	<path fill="#AE1821" d="M579.884,211.432c0,1.188,0.561,1.87,1.595,1.87c0.628,0,0.99-0.188,1.42-0.616l0.539,0.473
		c-0.551,0.551-1.057,0.837-1.98,0.837c-1.431,0-2.365-0.858-2.365-2.772c0-1.75,0.847-2.772,2.222-2.772
		c1.397,0,2.223,1.012,2.223,2.618v0.363h-3.654V211.432z M582.579,209.936c-0.209-0.495-0.693-0.814-1.266-0.814
		c-0.571,0-1.056,0.319-1.265,0.814c-0.121,0.297-0.144,0.462-0.165,0.901h2.86C582.722,210.398,582.7,210.233,582.579,209.936z"/>
</g>
<g>
	<path fill="#AE1821" d="M527.898,220.176v-0.891h0.891v0.891H527.898z M527.942,227.129v-5.413h0.792v5.413H527.942z"/>
	<path fill="#AE1821" d="M538.229,227.129v-3.333c0-0.958-0.518-1.441-1.332-1.441c-0.792,0-1.353,0.495-1.353,1.353v3.422h-0.792
		v-3.333c0-0.958-0.518-1.441-1.332-1.441c-0.813,0-1.353,0.495-1.353,1.441v3.333h-0.792v-5.413h0.792v0.595
		c0.385-0.44,0.924-0.66,1.529-0.66c0.748,0,1.331,0.308,1.661,0.901c0.418-0.594,1.023-0.901,1.782-0.901
		c0.583,0,1.067,0.187,1.397,0.506c0.385,0.374,0.583,0.88,0.583,1.507v3.466h-0.79V227.129z"/>
	<path fill="#AE1821" d="M545.125,226.722c-0.286,0.286-0.771,0.474-1.32,0.474c-0.594,0-1.089-0.144-1.529-0.704v3.058h-0.792
		v-7.833h0.792v0.639c0.44-0.572,0.936-0.704,1.529-0.704c0.55,0,1.034,0.187,1.32,0.473c0.55,0.55,0.66,1.452,0.66,2.3
		C545.785,225.27,545.675,226.172,545.125,226.722z M543.64,222.355c-1.177,0-1.364,1.012-1.364,2.068s0.188,2.068,1.364,2.068
		s1.354-1.013,1.354-2.068C544.993,223.366,544.816,222.355,543.64,222.355z"/>
	<path fill="#AE1821" d="M551.505,226.579c-0.374,0.374-0.892,0.616-1.552,0.616s-1.177-0.242-1.551-0.616
		c-0.55-0.562-0.66-1.32-0.66-2.156c0-0.837,0.11-1.596,0.66-2.156c0.374-0.374,0.891-0.616,1.551-0.616s1.178,0.242,1.552,0.616
		c0.55,0.561,0.66,1.319,0.66,2.156C552.165,225.259,552.055,226.018,551.505,226.579z M550.943,222.75
		c-0.253-0.253-0.604-0.396-0.99-0.396c-0.385,0-0.726,0.143-0.979,0.396c-0.396,0.396-0.44,1.067-0.44,1.673
		c0,0.604,0.044,1.275,0.44,1.672c0.253,0.253,0.594,0.396,0.979,0.396c0.386,0,0.737-0.144,0.99-0.396
		c0.396-0.396,0.43-1.067,0.43-1.672C551.373,223.818,551.34,223.147,550.943,222.75z"/>
	<path fill="#AE1821" d="M557.434,222.75c-0.297-0.297-0.518-0.396-0.936-0.396c-0.792,0-1.298,0.627-1.298,1.452v3.322h-0.792
		v-5.413h0.792v0.66c0.297-0.451,0.892-0.726,1.519-0.726c0.517,0,0.913,0.121,1.298,0.506L557.434,222.75z"/>
	<path fill="#AE1821" d="M561.107,227.129c-0.925,0-1.387-0.649-1.387-1.452v-3.322h-0.682v-0.605h0.682v-1.694h0.792v1.694h1.155
		v0.605h-1.155v3.3c0,0.495,0.231,0.793,0.737,0.793h0.418v0.682h-0.56V227.129z"/>
	<path fill="#AE1821" d="M563.769,227.129v-1.034h1.034v1.034H563.769z"/>
	<path fill="#AE1821" d="M567.267,220.176v-0.891h0.891v0.891H567.267z M567.311,227.129v-5.413h0.792v5.413H567.311z"/>
	<path fill="#AE1821" d="M574.12,226.579c-0.374,0.374-0.892,0.616-1.552,0.616s-1.177-0.242-1.551-0.616
		c-0.55-0.562-0.66-1.32-0.66-2.156c0-0.837,0.11-1.596,0.66-2.156c0.374-0.374,0.891-0.616,1.551-0.616s1.178,0.242,1.552,0.616
		c0.55,0.561,0.66,1.319,0.66,2.156C574.78,225.259,574.67,226.018,574.12,226.579z M573.559,222.75
		c-0.253-0.253-0.604-0.396-0.99-0.396c-0.385,0-0.726,0.143-0.979,0.396c-0.396,0.396-0.44,1.067-0.44,1.673
		c0,0.604,0.044,1.275,0.44,1.672c0.253,0.253,0.594,0.396,0.979,0.396c0.386,0,0.737-0.144,0.99-0.396
		c0.396-0.396,0.43-1.067,0.43-1.672C573.988,223.818,573.955,223.147,573.559,222.75z"/>
</g>
<g>
	<path fill="#AE1821" d="M531.001,237.106h-2.08v3.224h-0.836v-7.833h2.916c1.43,0,2.42,0.891,2.42,2.299
		S532.431,237.106,531.001,237.106z M530.924,233.244h-2.003v3.113h2.003c0.979,0,1.661-0.528,1.661-1.562
		S531.902,233.244,530.924,233.244z"/>
	<path fill="#AE1821" d="M538.888,240.329v-3.345c0-0.946-0.506-1.43-1.32-1.43s-1.354,0.495-1.354,1.43v3.345h-0.792v-7.833h0.792
		v3.015c0.396-0.451,0.913-0.66,1.519-0.66c1.221,0,1.947,0.781,1.947,2.002v3.477h-0.792V240.329z"/>
	<path fill="#AE1821" d="M545.631,239.78c-0.374,0.374-0.892,0.616-1.552,0.616s-1.177-0.242-1.551-0.616
		c-0.55-0.562-0.66-1.32-0.66-2.156c0-0.837,0.11-1.596,0.66-2.156c0.374-0.374,0.891-0.616,1.551-0.616s1.178,0.242,1.552,0.616
		c0.55,0.561,0.66,1.319,0.66,2.156C546.291,238.459,546.181,239.218,545.631,239.78z M545.069,235.95
		c-0.253-0.253-0.604-0.396-0.99-0.396c-0.385,0-0.726,0.143-0.979,0.396c-0.396,0.396-0.44,1.067-0.44,1.673
		c0,0.604,0.044,1.275,0.44,1.672c0.253,0.253,0.594,0.396,0.979,0.396c0.386,0,0.737-0.144,0.99-0.396
		c0.396-0.396,0.43-1.067,0.43-1.672C545.499,237.018,545.466,236.347,545.069,235.95z"/>
	<path fill="#AE1821" d="M550.053,240.329c-0.925,0-1.387-0.649-1.387-1.452v-3.322h-0.682v-0.605h0.682v-1.694h0.792v1.694h1.155
		v0.605h-1.155v3.3c0,0.495,0.231,0.793,0.737,0.793h0.418v0.682h-0.56V240.329z"/>
	<path fill="#AE1821" d="M556.125,239.78c-0.374,0.374-0.892,0.616-1.552,0.616s-1.177-0.242-1.551-0.616
		c-0.55-0.562-0.66-1.32-0.66-2.156c0-0.837,0.11-1.596,0.66-2.156c0.374-0.374,0.891-0.616,1.551-0.616s1.178,0.242,1.552,0.616
		c0.55,0.561,0.66,1.319,0.66,2.156C556.785,238.459,556.675,239.218,556.125,239.78z M555.563,235.95
		c-0.253-0.253-0.604-0.396-0.99-0.396c-0.385,0-0.726,0.143-0.979,0.396c-0.396,0.396-0.44,1.067-0.44,1.673
		c0,0.604,0.044,1.275,0.44,1.672c0.253,0.253,0.594,0.396,0.979,0.396c0.386,0,0.737-0.144,0.99-0.396
		c0.396-0.396,0.43-1.067,0.43-1.672S555.96,236.347,555.563,235.95z"/>
	<path fill="#AE1821" d="M560.722,240.396c-0.913,0-1.628-0.209-2.223-0.781l0.528-0.528c0.43,0.451,1.013,0.627,1.684,0.627
		c0.891,0,1.441-0.319,1.441-0.957c0-0.473-0.275-0.737-0.902-0.792l-0.892-0.077c-1.056-0.088-1.617-0.562-1.617-1.452
		c0-0.99,0.836-1.584,1.991-1.584c0.771,0,1.464,0.187,1.947,0.583l-0.517,0.517c-0.385-0.297-0.88-0.429-1.441-0.429
		c-0.792,0-1.21,0.341-1.21,0.891c0,0.463,0.264,0.737,0.946,0.793l0.869,0.076c0.946,0.089,1.595,0.451,1.595,1.464
		C562.922,239.79,562.031,240.396,560.722,240.396z"/>
	<path fill="#AE1821" d="M568.488,240.329v-3.345c0-0.946-0.507-1.43-1.32-1.43c-0.814,0-1.354,0.495-1.354,1.43v3.345h-0.792
		v-7.833h0.792v3.015c0.396-0.451,0.913-0.66,1.519-0.66c1.221,0,1.947,0.781,1.947,2.002v3.477h-0.792V240.329z"/>
	<path fill="#AE1821" d="M575.231,239.78c-0.374,0.374-0.892,0.616-1.552,0.616s-1.177-0.242-1.551-0.616
		c-0.55-0.562-0.66-1.32-0.66-2.156c0-0.837,0.11-1.596,0.66-2.156c0.374-0.374,0.891-0.616,1.551-0.616s1.178,0.242,1.552,0.616
		c0.55,0.561,0.66,1.319,0.66,2.156C575.892,238.459,575.781,239.218,575.231,239.78z M574.67,235.95
		c-0.253-0.253-0.604-0.396-0.99-0.396c-0.385,0-0.726,0.143-0.979,0.396c-0.396,0.396-0.44,1.067-0.44,1.673
		c0,0.604,0.044,1.275,0.44,1.672c0.253,0.253,0.594,0.396,0.979,0.396c0.386,0,0.737-0.144,0.99-0.396
		c0.396-0.396,0.43-1.067,0.43-1.672S575.066,236.347,574.67,235.95z"/>
	<path fill="#AE1821" d="M581.776,239.922c-0.286,0.286-0.771,0.474-1.32,0.474c-0.594,0-1.089-0.144-1.529-0.704v3.058h-0.792
		v-7.833h0.792v0.639c0.44-0.572,0.936-0.704,1.529-0.704c0.55,0,1.034,0.187,1.32,0.473c0.55,0.55,0.66,1.452,0.66,2.3
		C582.437,238.47,582.326,239.372,581.776,239.922z M580.291,235.555c-1.177,0-1.364,1.012-1.364,2.068s0.188,2.068,1.364,2.068
		s1.354-1.013,1.354-2.068C581.645,236.567,581.468,235.555,580.291,235.555z"/>
</g>
<g opacity="0.75">
	<g>
		<g>
			<defs>
				<rect id="SVGID_29_" x="516.046" y="211.476" width="12.235" height="23.669"/>
			</defs>
			<clipPath id="SVGID_30_">
				<use xlink:href="#SVGID_29_"  overflow="visible"/>
			</clipPath>
			<polygon clip-path="url(#SVGID_30_)" fill="#AE1821" points="521.281,223.31 517.046,220.475 517.046,226.145 			"/>
		</g>
	</g>
</g>
<g>
	<path fill="#262625" d="M332.051,268.783v-9.257h0.988v9.257H332.051z"/>
	<path fill="#262625" d="M344.401,268.783v-3.939c0-1.131-0.611-1.703-1.573-1.703c-0.936,0-1.599,0.585-1.599,1.6v4.043h-0.936
		v-3.939c0-1.131-0.611-1.703-1.573-1.703s-1.599,0.585-1.599,1.703v3.939h-0.936v-6.396h0.936v0.702
		c0.455-0.52,1.092-0.78,1.807-0.78c0.884,0,1.573,0.364,1.963,1.066c0.494-0.702,1.209-1.066,2.106-1.066
		c0.689,0,1.261,0.222,1.651,0.599c0.455,0.441,0.689,1.04,0.689,1.781v4.095h-0.936V268.783z"/>
	<path fill="#262625" d="M351.889,268.783v-0.611c-0.52,0.521-0.988,0.689-1.846,0.689c-0.884,0-1.404-0.169-1.807-0.585
		c-0.312-0.312-0.481-0.793-0.481-1.3c0-1.118,0.78-1.847,2.21-1.847h1.924v-0.611c0-0.936-0.468-1.403-1.638-1.403
		c-0.819,0-1.235,0.194-1.612,0.728l-0.637-0.585c0.572-0.741,1.222-0.949,2.262-0.949c1.716,0,2.562,0.741,2.562,2.133v4.342
		h-0.937V268.783z M351.889,265.832h-1.794c-0.962,0-1.43,0.39-1.43,1.131s0.455,1.093,1.469,1.093c0.546,0,1.027-0.039,1.43-0.43
		c0.221-0.208,0.325-0.572,0.325-1.104V265.832z"/>
	<path fill="#262625" d="M357.804,271.722c-0.962,0-1.495-0.247-2.171-0.858l0.611-0.598c0.468,0.416,0.793,0.637,1.534,0.637
		c1.235,0,1.755-0.871,1.755-1.963v-1.001c-0.52,0.663-1.105,0.832-1.794,0.832c-0.65,0-1.209-0.234-1.547-0.572
		c-0.637-0.637-0.78-1.625-0.78-2.665s0.143-2.028,0.78-2.665c0.338-0.338,0.91-0.56,1.561-0.56c0.702,0,1.274,0.156,1.794,0.832
		v-0.754h0.923v6.592C360.469,270.565,359.481,271.722,357.804,271.722z M357.947,263.141c-1.391,0-1.599,1.196-1.599,2.393
		s0.208,2.392,1.599,2.392s1.586-1.195,1.586-2.392S359.338,263.141,357.947,263.141z"/>
	<path fill="#262625" d="M364.043,265.832c0,1.404,0.663,2.21,1.885,2.21c0.741,0,1.17-0.221,1.677-0.728l0.637,0.559
		c-0.65,0.65-1.248,0.988-2.34,0.988c-1.69,0-2.795-1.015-2.795-3.276c0-2.067,1.001-3.276,2.626-3.276
		c1.651,0,2.626,1.196,2.626,3.095v0.429L364.043,265.832L364.043,265.832z M367.229,264.065c-0.247-0.585-0.819-0.963-1.495-0.963
		s-1.248,0.378-1.495,0.963c-0.143,0.351-0.169,0.546-0.195,1.065h3.38C367.398,264.611,367.372,264.415,367.229,264.065z"/>
	<path fill="#262625" d="M373,268.862c-1.079,0-1.924-0.247-2.626-0.923l0.624-0.624c0.507,0.532,1.196,0.741,1.989,0.741
		c1.053,0,1.703-0.378,1.703-1.132c0-0.559-0.325-0.871-1.066-0.936l-1.053-0.091c-1.248-0.104-1.911-0.663-1.911-1.717
		c0-1.17,0.988-1.872,2.353-1.872c0.91,0,1.729,0.222,2.301,0.689l-0.611,0.611c-0.455-0.352-1.04-0.508-1.703-0.508
		c-0.936,0-1.43,0.403-1.43,1.054c0,0.546,0.312,0.871,1.118,0.936l1.027,0.091c1.118,0.104,1.885,0.533,1.885,1.729
		C375.601,268.147,374.548,268.862,373,268.862z"/>
	<path fill="#262625" d="M387.534,268.783l-0.741-2.093h-4.042l-0.741,2.093h-1.053l3.406-9.257h0.832l3.393,9.257H387.534z
		 M384.792,260.945l-1.742,4.888h3.458L384.792,260.945z"/>
	<path fill="#262625" d="M394.646,268.783v-3.939c0-1.131-0.611-1.703-1.573-1.703s-1.586,0.585-1.586,1.703v3.939h-0.937v-6.396
		h0.937v0.702c0.455-0.52,1.079-0.78,1.794-0.78c0.689,0,1.248,0.208,1.638,0.599c0.455,0.441,0.663,1.04,0.663,1.781v4.095h-0.936
		V268.783z"/>
	<path fill="#262625" d="M402.134,268.783v-0.611c-0.521,0.521-0.988,0.689-1.847,0.689c-0.884,0-1.404-0.169-1.807-0.585
		c-0.312-0.312-0.481-0.793-0.481-1.3c0-1.118,0.78-1.847,2.21-1.847h1.925v-0.611c0-0.936-0.469-1.403-1.639-1.403
		c-0.818,0-1.234,0.194-1.612,0.728l-0.637-0.585c0.572-0.741,1.223-0.949,2.263-0.949c1.716,0,2.561,0.741,2.561,2.133v4.342
		h-0.936V268.783z M402.134,265.832h-1.795c-0.962,0-1.43,0.39-1.43,1.131s0.455,1.093,1.469,1.093c0.547,0,1.027-0.039,1.431-0.43
		c0.221-0.208,0.325-0.572,0.325-1.104V265.832z"/>
	<path fill="#262625" d="M407.593,268.783c-1.118,0-1.625-0.728-1.625-1.703v-7.554h0.937v7.515c0,0.624,0.208,0.937,0.857,0.937
		h0.508v0.806h-0.677V268.783z"/>
	<path fill="#262625" d="M411.792,270.33c-0.13,0.352-0.273,0.585-0.455,0.754c-0.338,0.325-0.793,0.442-1.248,0.442h-0.403v-0.832
		h0.286c0.65,0,0.846-0.208,1.054-0.793l0.455-1.248l-2.302-6.267h1.015l1.755,5.136l1.742-5.136h1.014L411.792,270.33z"/>
	<path fill="#262625" d="M418.682,268.862c-1.079,0-1.924-0.247-2.626-0.923l0.624-0.624c0.507,0.532,1.196,0.741,1.989,0.741
		c1.053,0,1.703-0.378,1.703-1.132c0-0.559-0.325-0.871-1.066-0.936l-1.053-0.091c-1.248-0.104-1.911-0.663-1.911-1.717
		c0-1.17,0.988-1.872,2.354-1.872c0.91,0,1.729,0.222,2.301,0.689l-0.611,0.611c-0.455-0.352-1.04-0.508-1.703-0.508
		c-0.936,0-1.43,0.403-1.43,1.054c0,0.546,0.312,0.871,1.118,0.936l1.027,0.091c1.117,0.104,1.885,0.533,1.885,1.729
		C421.282,268.147,420.229,268.862,418.682,268.862z"/>
	<path fill="#262625" d="M423.713,260.568v-1.054h1.053v1.054H423.713z M423.765,268.783v-6.396h0.936v6.396H423.765z"/>
	<path fill="#262625" d="M429.719,268.862c-1.079,0-1.924-0.247-2.626-0.923l0.624-0.624c0.507,0.532,1.195,0.741,1.989,0.741
		c1.053,0,1.702-0.378,1.702-1.132c0-0.559-0.324-0.871-1.065-0.936l-1.053-0.091c-1.248-0.104-1.911-0.663-1.911-1.717
		c0-1.17,0.987-1.872,2.353-1.872c0.91,0,1.729,0.222,2.301,0.689l-0.61,0.611c-0.455-0.352-1.04-0.508-1.703-0.508
		c-0.937,0-1.431,0.403-1.431,1.054c0,0.546,0.312,0.871,1.118,0.936l1.027,0.091c1.118,0.104,1.885,0.533,1.885,1.729
		C432.318,268.147,431.266,268.862,429.719,268.862z"/>
</g>
<path fill="none" stroke="#AE1821" stroke-width="0.75" stroke-miterlimit="10" d="M169.326,250.946c0,0-2.835,0-2.835,2.835v20.073
	c0,0,0,2.835,2.835,2.835h425.956c0,0,2.834,0,2.834-2.835v-20.073c0,0,0-2.835-2.834-2.835H169.326z"/>
</svg>
