<?xml version="1.0" encoding="utf-8"?>
<!-- Generator: Adobe Illustrator 18.1.1, SVG Export Plug-In . SVG Version: 6.00 Build 0)  -->
<svg version="1.0" id="Layer_1" xmlns="http://www.w3.org/2000/svg" xmlns:xlink="http://www.w3.org/1999/xlink" x="0px" y="0px"
	 viewBox="0 0 142.54 61.96" enable-background="new 0 0 142.54 61.96" xml:space="preserve">
<g>
	<line fill="#FFFFFF" stroke="#5CC1A1" stroke-width="2" stroke-miterlimit="10" x1="10.73" y1="51.57" x2="2.11" y2="60.19"/>
	<polyline fill="#FFFFFF" stroke="#5CC1A1" stroke-width="2" stroke-miterlimit="10" points="10.51,1.27 1.77,10.43 1.77,60.54 
		133.38,60.54 142.54,51.75 	"/>
	
		<rect x="10.66" y="1.32" fill="#FFFFFF" stroke="#5CC1A1" stroke-width="2" stroke-miterlimit="10" width="131.62" height="50.11"/>
	<line fill="#FFFFFF" stroke="#5CC1A1" stroke-width="2" stroke-miterlimit="10" x1="10.73" y1="51.57" x2="1.77" y2="60.54"/>
	<line fill="#FFFFFF" stroke="#5CC1A1" stroke-width="2" stroke-miterlimit="10" x1="17.2" y1="51.57" x2="8.24" y2="60.54"/>
	<line fill="#FFFFFF" stroke="#5CC1A1" stroke-width="2" stroke-miterlimit="10" x1="24.67" y1="51.57" x2="15.71" y2="60.54"/>
	<line fill="#FFFFFF" stroke="#5CC1A1" stroke-width="2" stroke-miterlimit="10" x1="32.14" y1="51.57" x2="23.18" y2="60.54"/>
	<line fill="#FFFFFF" stroke="#5CC1A1" stroke-width="2" stroke-miterlimit="10" x1="39.61" y1="51.57" x2="30.65" y2="60.54"/>
	<line fill="#FFFFFF" stroke="#5CC1A1" stroke-width="2" stroke-miterlimit="10" x1="47.08" y1="51.57" x2="38.12" y2="60.54"/>
	<line fill="#FFFFFF" stroke="#5CC1A1" stroke-width="2" stroke-miterlimit="10" x1="54.55" y1="51.57" x2="45.59" y2="60.54"/>
	<line fill="#FFFFFF" stroke="#5CC1A1" stroke-width="2" stroke-miterlimit="10" x1="62.02" y1="51.57" x2="53.06" y2="60.54"/>
	<line fill="#FFFFFF" stroke="#5CC1A1" stroke-width="2" stroke-miterlimit="10" x1="69.49" y1="51.57" x2="60.53" y2="60.54"/>
	<line fill="#FFFFFF" stroke="#5CC1A1" stroke-width="2" stroke-miterlimit="10" x1="76.96" y1="51.57" x2="68" y2="60.54"/>
	<line fill="#FFFFFF" stroke="#5CC1A1" stroke-width="2" stroke-miterlimit="10" x1="84.43" y1="51.57" x2="75.47" y2="60.54"/>
	<line fill="#FFFFFF" stroke="#5CC1A1" stroke-width="2" stroke-miterlimit="10" x1="91.9" y1="51.57" x2="82.94" y2="60.54"/>
	<line fill="#FFFFFF" stroke="#5CC1A1" stroke-width="2" stroke-miterlimit="10" x1="99.37" y1="51.57" x2="90.41" y2="60.54"/>
	<line fill="#FFFFFF" stroke="#5CC1A1" stroke-width="2" stroke-miterlimit="10" x1="106.84" y1="51.57" x2="97.88" y2="60.54"/>
	<line fill="#FFFFFF" stroke="#5CC1A1" stroke-width="2" stroke-miterlimit="10" x1="114.31" y1="51.57" x2="105.35" y2="60.54"/>
	<line fill="#FFFFFF" stroke="#5CC1A1" stroke-width="2" stroke-miterlimit="10" x1="121.78" y1="51.57" x2="112.82" y2="60.54"/>
	<line fill="#FFFFFF" stroke="#5CC1A1" stroke-width="2" stroke-miterlimit="10" x1="129.25" y1="51.57" x2="120.29" y2="60.54"/>
	<line fill="#FFFFFF" stroke="#5CC1A1" stroke-width="2" stroke-miterlimit="10" x1="136.43" y1="51.57" x2="127.46" y2="60.54"/>
</g>
<g>
	
		<text transform="matrix(1 0 0 1 40.1169 30.9053)" fill="#1E4382" font-family="'Cabin-Medium'" font-size="16" letter-spacing="1">demand</text>
</g>
</svg>
