<?xml version="1.0" encoding="utf-8"?>
<!-- Generator: Adobe Illustrator 18.1.1, SVG Export Plug-In . SVG Version: 6.00 Build 0)  -->
<svg version="1.0" id="Layer_1" xmlns="http://www.w3.org/2000/svg" xmlns:xlink="http://www.w3.org/1999/xlink" x="0px" y="0px"
	 viewBox="0 0 250 200" enable-background="new 0 0 250 200" xml:space="preserve">
<line fill="#FFFFFF" stroke="#455770" stroke-width="1.9619" stroke-miterlimit="10" x1="7.09" y1="188.7" x2="0.73" y2="199.57"/>
<polyline fill="#FFFFFF" stroke="#455770" stroke-width="1.9532" stroke-miterlimit="10" points="7.47,-0.72 1.03,10.76 
	1.03,199.06 241.85,199.06 248.58,188.03 "/>
<rect x="7.09" y="0.98" fill="#FFFFFF" stroke="#455770" stroke-width="1.7911" stroke-miterlimit="10" width="241.46" height="187.72"/>
<line fill="#FFFFFF" stroke="#455770" stroke-width="1.9619" stroke-miterlimit="10" x1="7.09" y1="188.7" x2="0.47" y2="200"/>
<line fill="#FFFFFF" stroke="#455770" stroke-width="1.9619" stroke-miterlimit="10" x1="6.62" y1="188.7" x2="0" y2="200"/>
<line fill="#FFFFFF" stroke="#455770" stroke-width="1.9619" stroke-miterlimit="10" x1="12.42" y1="188.7" x2="5.79" y2="200"/>
<line fill="#FFFFFF" stroke="#455770" stroke-width="1.9619" stroke-miterlimit="10" x1="18.21" y1="188.7" x2="11.59" y2="200"/>
<line fill="#FFFFFF" stroke="#455770" stroke-width="1.9619" stroke-miterlimit="10" x1="24.01" y1="188.7" x2="17.38" y2="200"/>
<line fill="#FFFFFF" stroke="#455770" stroke-width="1.9619" stroke-miterlimit="10" x1="29.8" y1="188.7" x2="23.18" y2="200"/>
<line fill="#FFFFFF" stroke="#455770" stroke-width="1.9619" stroke-miterlimit="10" x1="35.6" y1="188.7" x2="28.97" y2="200"/>
<line fill="#FFFFFF" stroke="#455770" stroke-width="1.9619" stroke-miterlimit="10" x1="41.39" y1="188.7" x2="34.77" y2="200"/>
<line fill="#FFFFFF" stroke="#455770" stroke-width="1.9619" stroke-miterlimit="10" x1="47.18" y1="188.7" x2="40.56" y2="200"/>
<line fill="#FFFFFF" stroke="#455770" stroke-width="1.9619" stroke-miterlimit="10" x1="52.98" y1="188.7" x2="46.36" y2="200"/>
<line fill="#FFFFFF" stroke="#455770" stroke-width="1.9619" stroke-miterlimit="10" x1="58.77" y1="188.7" x2="52.15" y2="200"/>
<line fill="#FFFFFF" stroke="#455770" stroke-width="1.9619" stroke-miterlimit="10" x1="64.57" y1="188.7" x2="57.95" y2="200"/>
<line fill="#FFFFFF" stroke="#455770" stroke-width="1.9619" stroke-miterlimit="10" x1="70.36" y1="188.7" x2="63.74" y2="200"/>
<line fill="#FFFFFF" stroke="#455770" stroke-width="1.9619" stroke-miterlimit="10" x1="76.16" y1="188.7" x2="69.54" y2="200"/>
<line fill="#FFFFFF" stroke="#455770" stroke-width="1.9619" stroke-miterlimit="10" x1="81.95" y1="188.7" x2="75.33" y2="200"/>
<line fill="#FFFFFF" stroke="#455770" stroke-width="1.9619" stroke-miterlimit="10" x1="87.75" y1="188.7" x2="81.13" y2="200"/>
<line fill="#FFFFFF" stroke="#455770" stroke-width="1.9619" stroke-miterlimit="10" x1="93.54" y1="188.7" x2="86.92" y2="200"/>
<line fill="#FFFFFF" stroke="#455770" stroke-width="1.9619" stroke-miterlimit="10" x1="99.34" y1="188.7" x2="92.72" y2="200"/>
<line fill="#FFFFFF" stroke="#455770" stroke-width="1.9619" stroke-miterlimit="10" x1="105.13" y1="188.7" x2="98.51" y2="200"/>
<line fill="#FFFFFF" stroke="#455770" stroke-width="1.9619" stroke-miterlimit="10" x1="110.93" y1="188.7" x2="104.31" y2="200"/>
<line fill="#FFFFFF" stroke="#455770" stroke-width="1.9619" stroke-miterlimit="10" x1="116.72" y1="188.7" x2="110.1" y2="200"/>
<line fill="#FFFFFF" stroke="#455770" stroke-width="1.9619" stroke-miterlimit="10" x1="122.52" y1="188.7" x2="115.89" y2="200"/>
<line fill="#FFFFFF" stroke="#455770" stroke-width="1.9619" stroke-miterlimit="10" x1="128.31" y1="188.7" x2="121.69" y2="200"/>
<line fill="#FFFFFF" stroke="#455770" stroke-width="1.9619" stroke-miterlimit="10" x1="134.11" y1="188.7" x2="127.48" y2="200"/>
<line fill="#FFFFFF" stroke="#455770" stroke-width="1.9619" stroke-miterlimit="10" x1="139.9" y1="188.7" x2="133.28" y2="200"/>
<line fill="#FFFFFF" stroke="#455770" stroke-width="1.9619" stroke-miterlimit="10" x1="145.69" y1="188.7" x2="139.07" y2="200"/>
<line fill="#FFFFFF" stroke="#455770" stroke-width="1.9619" stroke-miterlimit="10" x1="151.49" y1="188.7" x2="144.87" y2="200"/>
<line fill="#FFFFFF" stroke="#455770" stroke-width="1.9619" stroke-miterlimit="10" x1="157.28" y1="188.7" x2="150.66" y2="200"/>
<line fill="#FFFFFF" stroke="#455770" stroke-width="1.9619" stroke-miterlimit="10" x1="163.08" y1="188.7" x2="156.46" y2="200"/>
<line fill="#FFFFFF" stroke="#455770" stroke-width="1.9619" stroke-miterlimit="10" x1="168.87" y1="188.7" x2="162.25" y2="200"/>
<line fill="#FFFFFF" stroke="#455770" stroke-width="1.9619" stroke-miterlimit="10" x1="174.67" y1="188.7" x2="168.05" y2="200"/>
<line fill="#FFFFFF" stroke="#455770" stroke-width="1.9619" stroke-miterlimit="10" x1="180.46" y1="188.7" x2="173.84" y2="200"/>
<line fill="#FFFFFF" stroke="#455770" stroke-width="1.9619" stroke-miterlimit="10" x1="186.26" y1="188.7" x2="179.64" y2="200"/>
<line fill="#FFFFFF" stroke="#455770" stroke-width="1.9619" stroke-miterlimit="10" x1="192.05" y1="188.7" x2="185.43" y2="200"/>
<line fill="#FFFFFF" stroke="#455770" stroke-width="1.9619" stroke-miterlimit="10" x1="197.85" y1="188.7" x2="191.23" y2="200"/>
<line fill="#FFFFFF" stroke="#455770" stroke-width="1.9619" stroke-miterlimit="10" x1="203.64" y1="188.7" x2="197.02" y2="200"/>
<line fill="#FFFFFF" stroke="#455770" stroke-width="1.9619" stroke-miterlimit="10" x1="209.44" y1="188.7" x2="202.82" y2="200"/>
<line fill="#FFFFFF" stroke="#455770" stroke-width="1.9619" stroke-miterlimit="10" x1="215.23" y1="188.7" x2="208.61" y2="200"/>
<line fill="#FFFFFF" stroke="#455770" stroke-width="1.9619" stroke-miterlimit="10" x1="221.03" y1="188.7" x2="214.4" y2="200"/>
<line fill="#FFFFFF" stroke="#455770" stroke-width="1.9619" stroke-miterlimit="10" x1="226.82" y1="188.7" x2="220.2" y2="200"/>
<line fill="#FFFFFF" stroke="#455770" stroke-width="1.9619" stroke-miterlimit="10" x1="232.62" y1="188.7" x2="225.99" y2="200"/>
<line fill="#FFFFFF" stroke="#455770" stroke-width="1.9619" stroke-miterlimit="10" x1="238.41" y1="188.7" x2="231.79" y2="200"/>
<line fill="#FFFFFF" stroke="#455770" stroke-width="1.9619" stroke-miterlimit="10" x1="243.59" y1="188.7" x2="236.97" y2="200"/>
</svg>
