<?xml version="1.0" encoding="utf-8"?>
<!-- Generator: Adobe Illustrator 18.0.0, SVG Export Plug-In . SVG Version: 6.00 Build 0)  -->
<!DOCTYPE svg PUBLIC "-//W3C//DTD SVG 1.1//EN" "http://www.w3.org/Graphics/SVG/1.1/DTD/svg11.dtd">
<svg version="1.1"
	 id="svg2" xmlns:cc="http://creativecommons.org/ns#" xmlns:rdf="http://www.w3.org/1999/02/22-rdf-syntax-ns#" xmlns:dc="http://purl.org/dc/elements/1.1/" xmlns:sodipodi="http://sodipodi.sourceforge.net/DTD/sodipodi-0.dtd" xmlns:svg="http://www.w3.org/2000/svg" xmlns:inkscape="http://www.inkscape.org/namespaces/inkscape" inkscape:version="0.91 r13725" sodipodi:docname="Uber logo.svg"
	 xmlns="http://www.w3.org/2000/svg" xmlns:xlink="http://www.w3.org/1999/xlink" x="0px" y="0px" width="167.69px"
	 height="35.01px" viewBox="0 0 167.69 35.01" style="enable-background:new 0 0 167.69 35.01;" xml:space="preserve">
<style type="text/css">
	.st0{clip-path:url(#SVGID_2_);}
	.st1{fill:#063F84;}
</style>
<image style="overflow:visible;enable-background:new    ;" width="107" height="40" id="image102" xlink:href="C109C2420A71062E.png"  transform="matrix(9.345794e-03 0 0 0.025 0 0)">
</image>
<g id="g88">
	<g>
		<defs>
			<rect id="SVGID_1_" x="991.01" y="181.14" width="107" height="40"/>
		</defs>
		<clipPath id="SVGID_2_">
			<use xlink:href="#SVGID_1_"  style="overflow:visible;"/>
		</clipPath>
		<g id="g90" class="st0">
			<g id="g92">
			</g>
			<g id="g94">
				<g id="g96" transform="matrix(107,0,0,40,991.0071,181.137)">
					
						<image style="overflow:visible;enable-background:new    ;" width="107" height="40" id="image98" xlink:href="C109C2420A710632.png"  transform="matrix(9.345794e-03 0 0 -0.025 7.301395e-10 1)">
					</image>
				</g>
			</g>
		</g>
	</g>
</g>
<sodipodi:namedview  id="namedview4" inkscape:pageopacity="0" fit-margin-bottom="0" inkscape:current-layer="g16" inkscape:window-y="0" inkscape:window-x="0" inkscape:window-maximized="0" fit-margin-right="0" inkscape:window-width="1408" inkscape:window-height="904" inkscape:pageshadow="2" borderopacity="1" inkscape:cy="-290.34162" gridtolerance="10" fit-margin-left="0" inkscape:cx="444.98602" pagecolor="#ffffff" objecttolerance="10" inkscape:zoom="0.54156394" bordercolor="#666666" fit-margin-top="0" guidetolerance="10" showgrid="false">
	</sodipodi:namedview>
<g id="g12">
</g>
<g id="g22">
</g>
<g id="g384">
</g>
<g id="g5160" transform="translate(-196.46803,-38.407284)">
	<path id="path466" inkscape:connector-curvature="0" class="st1" d="M222.85,39.25v19.3c0,6.45-2.85,9.12-9.54,9.12
		s-9.54-2.68-9.54-9.12V38.41h-6.45c-0.56,0-0.85,0.28-0.85,0.85v19.62c0,10.78,6.87,14.54,16.83,14.54
		c9.97,0,16.83-3.77,16.83-14.54V38.41h-6.45C223.13,38.41,222.85,38.69,222.85,39.25"/>
	<path id="path468" inkscape:connector-curvature="0" class="st1" d="M316.27,44.01c0.53,0,0.77-0.18,0.95-0.56l1.87-4.61
		c0.11-0.28,0-0.42-0.28-0.42h-25.95c-2.43,0-3.35,0.74-3.35,2.39v29.97c0,1.41,0.7,2.04,2.57,2.04h24.19
		c0.53,0,0.77-0.18,0.95-0.56l1.87-4.61c0.11-0.28,0-0.42-0.28-0.42h-22.15v-6.09c0-2.11,1.16-3.06,4.3-3.06h9.61
		c0.53,0,0.77-0.18,0.95-0.56l1.8-4.44c0.1-0.28,0-0.42-0.28-0.42h-16.37v-8.63L316.27,44.01L316.27,44.01z"/>
	<path id="path470" inkscape:connector-curvature="0" class="st1" d="M263.82,67.28H251.1v-6.3c0-2.11,1.16-3.06,4.3-3.06h8.42
		c4.05,0,5.18,1.55,5.18,4.72C268.99,65.81,267.87,67.28,263.82,67.28 M251.1,43.94h11.38c3.8,0,4.86,1.43,4.86,4.4
		c0,2.97-1.06,4.4-4.86,4.4H251.1V43.94L251.1,43.94z M270.58,54.68c2.82-1.48,3.98-4.26,3.98-7.54c0-7.61-6.2-8.73-12.61-8.73
		H247.3c-2.43,0-3.35,0.74-3.35,2.4v29.97c0,1.41,0.71,2.04,2.57,2.04h18.03c6.8,0,11.66-2.64,11.66-9.51
		C276.21,59.18,274.45,55.7,270.58,54.68"/>
	<path id="path472" inkscape:connector-curvature="0" class="st1" d="M350.62,54.36h-11.97V43.94h11.97c4.47,0,5.46,1.73,5.46,5.21
		C356.08,52.67,355.09,54.36,350.62,54.36 M364.07,72.22l-7.71-13.24c3.84-0.99,6.94-3.52,6.94-9.97c0-8.35-5.18-10.6-13.73-10.6
		h-14.72c-2.43,0-3.35,0.74-3.35,2.4v31.17c0,0.56,0.28,0.85,0.85,0.85h6.3V62.78c0-2.11,1.16-3.07,4.3-3.07h6.34l6.97,12.54
		c0.21,0.35,0.42,0.56,0.95,0.56h6.55C364.22,72.81,364.22,72.43,364.07,72.22"/>
</g>
</svg>
