<?xml version="1.0" encoding="utf-8"?>
<!-- Generator: Adobe Illustrator 18.1.1, SVG Export Plug-In . SVG Version: 6.00 Build 0)  -->
<svg version="1.0" id="Layer_1" xmlns="http://www.w3.org/2000/svg" xmlns:xlink="http://www.w3.org/1999/xlink" x="0px" y="0px"
	 viewBox="0 0 60.58 69.3" enable-background="new 0 0 60.58 69.3" xml:space="preserve">
<g>
	<path fill="#1E4382" d="M51.33,36.7c-0.01-1.29-0.32-2.56-0.78-3.75c-0.36-0.92-0.78-1.82-1.19-2.73
		c-3.27-7.12-6.7-14.16-10.28-21.13c-0.5-0.97-1-1.95-1.53-2.91c-0.52-0.93-1.13-1.83-1.92-2.57c-1.26-1.2-2.95-1.92-4.68-2.02h-0.8
		c-1.78,0.09-3.53,0.84-4.81,2.09c-0.76,0.72-1.35,1.6-1.86,2.51c-0.53,0.94-1.01,1.91-1.51,2.86c-2.41,4.67-4.74,9.38-7.01,14.12
		c-1.35,2.84-2.69,5.68-3.98,8.55c-0.53,1.19-1.02,2.43-1.2,3.73c-0.34,2.2,0.15,4.51,1.32,6.4c1.01,1.64,2.53,2.96,4.31,3.73
		c1.38,0.6,2.9,0.87,4.4,0.78c2.01-0.11,3.95-0.83,5.66-1.89c1.9-1.17,3.53-2.72,5.04-4.34c1.41,1.52,2.91,2.96,4.65,4.1
		c1.68,1.1,3.59,1.9,5.61,2.09c2.19,0.23,4.45-0.31,6.29-1.53c1.61-1.06,2.89-2.63,3.6-4.43C51.12,39.21,51.35,37.95,51.33,36.7z
		 M30.52,35.85c-0.55-0.65-1.03-1.35-1.52-2.04c-0.82-1.2-1.56-2.45-2.16-3.78c-0.49-1.1-0.88-2.25-1.04-3.45
		c-0.11-0.95-0.09-1.94,0.26-2.84c0.31-0.85,0.91-1.58,1.67-2.06c1.81-1.17,4.39-1.04,6.03,0.38c0.83,0.71,1.33,1.75,1.45,2.83
		c0.16,1.43-0.16,2.86-0.66,4.2C33.62,31.55,32.13,33.77,30.52,35.85z M48.29,38.88c-0.48,1.67-1.65,3.13-3.17,3.97
		c-1.35,0.75-2.96,1.01-4.48,0.76c-1.94-0.3-3.67-1.33-5.18-2.54c-1.11-0.89-2.1-1.91-3.06-2.95c1.51-1.91,2.93-3.9,4.01-6.08
		c0.95-1.91,1.67-3.98,1.73-6.13c0.04-1.36-0.22-2.75-0.85-3.96c-0.83-1.62-2.33-2.87-4.04-3.47c-1.6-0.57-3.38-0.62-5.01-0.16
		c-1.54,0.44-2.94,1.36-3.9,2.64c-0.85,1.12-1.33,2.49-1.44,3.88c-0.17,2.01,0.33,4.01,1.09,5.85c1.13,2.69,2.79,5.13,4.62,7.4
		c-0.82,0.96-1.73,1.84-2.68,2.67c-1.49,1.26-3.19,2.36-5.12,2.77c-1.56,0.35-3.24,0.18-4.67-0.55c-1.67-0.83-2.96-2.41-3.45-4.21
		c-0.37-1.33-0.29-2.76,0.15-4.06c0.37-1.08,0.86-2.1,1.33-3.14c3.23-7.04,6.62-14.01,10.17-20.9c0.53-1.03,1.05-2.06,1.61-3.06
		C26.41,6.8,26.94,6,27.69,5.43c0.8-0.63,1.83-0.97,2.85-0.95c1.06-0.01,2.11,0.38,2.92,1.06c0.8,0.66,1.34,1.57,1.82,2.48
		c1.1,2.06,2.15,4.14,3.2,6.22c3,5.95,5.89,11.95,8.66,18.01c0.42,0.94,0.87,1.88,1.15,2.87C48.63,36.34,48.64,37.66,48.29,38.88z"
		/>
	<path fill="#1E4382" d="M14.84,51.92c0.9-0.2,1.89,0.39,2.13,1.29c0.29,0.92-0.29,1.99-1.21,2.25c-0.9,0.32-1.97-0.23-2.27-1.14
		c-0.28-0.76,0.02-1.68,0.69-2.12C14.37,52.06,14.6,51.97,14.84,51.92L14.84,51.92z"/>
	<path fill="#1E4382" d="M20.95,57.85c0.54-0.59,1.31-0.96,2.1-1.08c0.53-0.05,1.06-0.02,1.58,0.1c-0.01,0.83,0,1.67,0,2.5
		c-0.81-0.21-1.69-0.25-2.49,0.04c-0.43,0.16-0.83,0.41-1.14,0.75c-0.07,0.06-0.05,0.15-0.06,0.23c0,2.33,0,4.66,0,6.99
		c-0.01,0.09,0.01,0.19-0.03,0.27c-0.9,0.02-1.8,0-2.7,0.01c0-3.55,0-7.1,0-10.66c0.76,0,1.52,0,2.27,0
		c0.17-0.01,0.34,0.08,0.41,0.24C20.96,57.44,20.95,57.65,20.95,57.85L20.95,57.85z"/>
	<path fill="#1E4382" d="M40.35,57.86c0.72-0.75,1.76-1.11,2.79-1.11c1.08-0.03,2.19,0.29,3.03,0.99c0.55,0.43,0.96,1.04,1.14,1.72
		c0.24,0.83,0.22,1.7,0.21,2.56c0,1.88,0,3.76,0,5.65c-0.91,0-1.81,0.01-2.72,0c0-1.88,0-3.76,0-5.64c0-0.7,0.03-1.45-0.34-2.07
		c-0.26-0.45-0.77-0.67-1.26-0.72c-0.94-0.15-1.92,0.22-2.57,0.91c-0.07,0.07-0.13,0.16-0.12,0.26c-0.01,0.29,0.04,0.58,0.01,0.87
		c-0.04,0.4,0.02,0.79,0.01,1.19c-0.01,0.75-0.01,1.5,0,2.24c-0.05,0.99,0.04,1.98-0.02,2.97c-0.9,0-1.81,0-2.71,0
		c0-3.55-0.01-7.11,0-10.66c0.7,0.01,1.4,0,2.1,0c0.18-0.01,0.38,0.09,0.42,0.27C40.36,57.47,40.34,57.66,40.35,57.86L40.35,57.86z"
		/>
	<path fill="#1E4382" d="M13.84,67.66c0-3.55-0.01-7.11,0-10.66c0.9,0,1.8,0,2.7,0c0.01,3.55,0,7.11,0,10.66
		C15.65,67.66,14.75,67.66,13.84,67.66L13.84,67.66z"/>
	<path fill="#1E4382" d="M12.17,57.01c-0.71,0-1.43,0-2.14,0c-0.19,0-0.43,0.01-0.52,0.21c-0.08,0.2-0.05,0.43-0.06,0.64
		c-0.59-0.63-1.43-1.01-2.29-1.09c-1.33-0.12-2.7,0.25-3.76,1.05c-0.88,0.65-1.52,1.58-1.86,2.62c-0.16,0.48-0.25,0.99-0.3,1.5v0.73
		c0.08,1.53,0.76,3.04,1.94,4.02c0.89,0.76,2.04,1.18,3.21,1.25h0.61c0.92-0.06,1.83-0.44,2.46-1.13c0.01,0.22-0.02,0.44,0.06,0.65
		c0.08,0.17,0.28,0.21,0.45,0.21c0.74,0,1.47,0,2.21,0C12.17,64.11,12.17,60.56,12.17,57.01z M9.36,64.34
		C8.81,65,7.95,65.39,7.09,65.37c-0.92,0.01-1.88-0.35-2.47-1.07c-0.58-0.69-0.76-1.65-0.63-2.53c0.1-0.71,0.46-1.39,1.03-1.83
		c0.52-0.41,1.17-0.62,1.83-0.67c0.97-0.09,2,0.34,2.59,1.13c0.03,1.16,0,2.32,0.02,3.48C9.44,64.04,9.49,64.22,9.36,64.34z"/>
	<path fill="#1E4382" d="M36.23,60.05c-0.42-1.03-1.16-1.92-2.11-2.5c-0.97-0.6-2.14-0.88-3.27-0.8c-0.9,0.06-1.78,0.44-2.4,1.1
		c0-1.99,0-3.98,0-5.97c-0.91,0-1.82,0-2.72,0c0,5.26-0.01,10.52,0.01,15.77c0.75,0,1.5,0,2.26,0c0.19,0.01,0.39-0.09,0.44-0.28
		c0.04-0.19,0.02-0.39,0.02-0.59c0.63,0.7,1.56,1.08,2.49,1.14h0.56c1.51-0.08,2.99-0.78,3.94-1.97
		C36.76,64.34,37.02,61.98,36.23,60.05z M33.06,64.54c-0.61,0.56-1.45,0.83-2.27,0.83c-0.86,0.02-1.71-0.37-2.26-1.04
		c-0.07-0.07-0.09-0.16-0.08-0.25c0-1.22,0-2.44,0-3.66c0.52-0.68,1.36-1.1,2.21-1.15c0.87-0.03,1.77,0.23,2.41,0.84
		c0.61,0.56,0.9,1.4,0.88,2.22C33.96,63.14,33.66,63.98,33.06,64.54z"/>
	<path fill="#1E4382" d="M58.63,58.74c-1.15-1.47-3.13-2.21-4.97-1.94c-0.77,0.12-1.5,0.49-2.03,1.06c-0.01-1.99,0-3.98,0-5.97
		c-0.91,0-1.81,0-2.72,0c0,5.26,0,10.52,0,15.78c0.71,0.01,1.43,0,2.14,0.01c0.19,0,0.42-0.01,0.52-0.2
		c0.08-0.21,0.05-0.44,0.06-0.66c0.63,0.69,1.53,1.06,2.45,1.13h0.61c1.49-0.08,2.95-0.78,3.9-1.95c0.77-0.93,1.19-2.12,1.26-3.32
		v-0.71C59.76,60.8,59.36,59.64,58.63,58.74z M56.51,64.23c-0.72,0.92-1.99,1.27-3.11,1.09c-0.68-0.14-1.35-0.51-1.75-1.08
		c-0.05-0.45,0-0.9-0.02-1.35c0.01-0.83-0.02-1.66,0.01-2.48c0.41-0.57,1.07-0.93,1.75-1.08c1.26-0.23,2.72,0.27,3.35,1.43
		C57.32,61.82,57.26,63.26,56.51,64.23z"/>
</g>
</svg>
