<?xml version="1.0" encoding="utf-8"?>
<!-- Generator: Adobe Illustrator 18.1.1, SVG Export Plug-In . SVG Version: 6.00 Build 0)  -->
<svg version="1.0" id="Layer_1" xmlns="http://www.w3.org/2000/svg" xmlns:xlink="http://www.w3.org/1999/xlink" x="0px" y="0px"
	 viewBox="0 0 421.94 365.28" enable-background="new 0 0 421.94 365.28" xml:space="preserve">
<g>
	<line fill="#FFFFFF" stroke="#27E0AD" stroke-width="2" stroke-miterlimit="10" x1="10.77" y1="348.03" x2="1.68" y2="363.53"/>
	<polyline fill="#FFFFFF" stroke="#27E0AD" stroke-width="2" stroke-miterlimit="10" points="10.54,0.8 1.32,17.26 1.32,364.15 
		411.48,364.15 421.13,348.35 	"/>
	
		<rect x="10.77" y="1.14" fill="#FFFFFF" stroke="#27E0AD" stroke-width="2" stroke-miterlimit="10" width="410.17" height="346.89"/>
	<line fill="#FFFFFF" stroke="#27E0AD" stroke-width="2" stroke-miterlimit="10" x1="10.77" y1="348.03" x2="1.32" y2="364.15"/>
	<line fill="#FFFFFF" stroke="#27E0AD" stroke-width="2" stroke-miterlimit="10" x1="18.64" y1="348.03" x2="9.19" y2="364.15"/>
	<line fill="#FFFFFF" stroke="#27E0AD" stroke-width="2" stroke-miterlimit="10" x1="26.51" y1="348.03" x2="17.06" y2="364.15"/>
	<line fill="#FFFFFF" stroke="#27E0AD" stroke-width="2" stroke-miterlimit="10" x1="34.38" y1="348.03" x2="24.94" y2="364.15"/>
	<line fill="#FFFFFF" stroke="#27E0AD" stroke-width="2" stroke-miterlimit="10" x1="42.26" y1="348.03" x2="32.81" y2="364.15"/>
	<line fill="#FFFFFF" stroke="#27E0AD" stroke-width="2" stroke-miterlimit="10" x1="50.13" y1="348.03" x2="40.68" y2="364.15"/>
	<line fill="#FFFFFF" stroke="#27E0AD" stroke-width="2" stroke-miterlimit="10" x1="58" y1="348.03" x2="48.56" y2="364.15"/>
	<line fill="#FFFFFF" stroke="#27E0AD" stroke-width="2" stroke-miterlimit="10" x1="65.88" y1="348.03" x2="56.43" y2="364.15"/>
	<line fill="#FFFFFF" stroke="#27E0AD" stroke-width="2" stroke-miterlimit="10" x1="73.75" y1="348.03" x2="64.3" y2="364.15"/>
	<line fill="#FFFFFF" stroke="#27E0AD" stroke-width="2" stroke-miterlimit="10" x1="81.62" y1="348.03" x2="72.17" y2="364.15"/>
	<line fill="#FFFFFF" stroke="#27E0AD" stroke-width="2" stroke-miterlimit="10" x1="89.49" y1="348.03" x2="80.05" y2="364.15"/>
	<line fill="#FFFFFF" stroke="#27E0AD" stroke-width="2" stroke-miterlimit="10" x1="97.37" y1="348.03" x2="87.92" y2="364.15"/>
	<line fill="#FFFFFF" stroke="#27E0AD" stroke-width="2" stroke-miterlimit="10" x1="105.24" y1="348.03" x2="95.79" y2="364.15"/>
	<line fill="#FFFFFF" stroke="#27E0AD" stroke-width="2" stroke-miterlimit="10" x1="113.11" y1="348.03" x2="103.66" y2="364.15"/>
	<line fill="#FFFFFF" stroke="#27E0AD" stroke-width="2" stroke-miterlimit="10" x1="120.98" y1="348.03" x2="111.54" y2="364.15"/>
	<line fill="#FFFFFF" stroke="#27E0AD" stroke-width="2" stroke-miterlimit="10" x1="128.86" y1="348.03" x2="119.41" y2="364.15"/>
	<line fill="#FFFFFF" stroke="#27E0AD" stroke-width="2" stroke-miterlimit="10" x1="136.73" y1="348.03" x2="127.28" y2="364.15"/>
	<line fill="#FFFFFF" stroke="#27E0AD" stroke-width="2" stroke-miterlimit="10" x1="144.6" y1="348.03" x2="135.16" y2="364.15"/>
	<line fill="#FFFFFF" stroke="#27E0AD" stroke-width="2" stroke-miterlimit="10" x1="152.48" y1="348.03" x2="143.03" y2="364.15"/>
	<line fill="#FFFFFF" stroke="#27E0AD" stroke-width="2" stroke-miterlimit="10" x1="160.35" y1="348.03" x2="150.9" y2="364.15"/>
	<line fill="#FFFFFF" stroke="#27E0AD" stroke-width="2" stroke-miterlimit="10" x1="168.22" y1="348.03" x2="158.77" y2="364.15"/>
	<line fill="#FFFFFF" stroke="#27E0AD" stroke-width="2" stroke-miterlimit="10" x1="176.43" y1="348.03" x2="166.98" y2="364.15"/>
	<line fill="#FFFFFF" stroke="#27E0AD" stroke-width="2" stroke-miterlimit="10" x1="184.3" y1="348.03" x2="174.85" y2="364.15"/>
	<line fill="#FFFFFF" stroke="#27E0AD" stroke-width="2" stroke-miterlimit="10" x1="192.17" y1="348.03" x2="182.72" y2="364.15"/>
	<line fill="#FFFFFF" stroke="#27E0AD" stroke-width="2" stroke-miterlimit="10" x1="200.04" y1="348.03" x2="190.6" y2="364.15"/>
	<line fill="#FFFFFF" stroke="#27E0AD" stroke-width="2" stroke-miterlimit="10" x1="207.92" y1="348.03" x2="198.47" y2="364.15"/>
	<line fill="#FFFFFF" stroke="#27E0AD" stroke-width="2" stroke-miterlimit="10" x1="215.79" y1="348.03" x2="206.34" y2="364.15"/>
	<line fill="#FFFFFF" stroke="#27E0AD" stroke-width="2" stroke-miterlimit="10" x1="223.66" y1="348.03" x2="214.22" y2="364.15"/>
	<line fill="#FFFFFF" stroke="#27E0AD" stroke-width="2" stroke-miterlimit="10" x1="231.54" y1="348.03" x2="222.09" y2="364.15"/>
	<line fill="#FFFFFF" stroke="#27E0AD" stroke-width="2" stroke-miterlimit="10" x1="239.41" y1="348.03" x2="229.96" y2="364.15"/>
	<line fill="#FFFFFF" stroke="#27E0AD" stroke-width="2" stroke-miterlimit="10" x1="247.28" y1="348.03" x2="237.83" y2="364.15"/>
	<line fill="#FFFFFF" stroke="#27E0AD" stroke-width="2" stroke-miterlimit="10" x1="255.15" y1="348.03" x2="245.71" y2="364.15"/>
	<line fill="#FFFFFF" stroke="#27E0AD" stroke-width="2" stroke-miterlimit="10" x1="263.03" y1="348.03" x2="253.58" y2="364.15"/>
	<line fill="#FFFFFF" stroke="#27E0AD" stroke-width="2" stroke-miterlimit="10" x1="270.9" y1="348.03" x2="261.45" y2="364.15"/>
	<line fill="#FFFFFF" stroke="#27E0AD" stroke-width="2" stroke-miterlimit="10" x1="278.77" y1="348.03" x2="269.32" y2="364.15"/>
	<line fill="#FFFFFF" stroke="#27E0AD" stroke-width="2" stroke-miterlimit="10" x1="286.64" y1="348.03" x2="277.2" y2="364.15"/>
	<line fill="#FFFFFF" stroke="#27E0AD" stroke-width="2" stroke-miterlimit="10" x1="294.52" y1="348.03" x2="285.07" y2="364.15"/>
	<line fill="#FFFFFF" stroke="#27E0AD" stroke-width="2" stroke-miterlimit="10" x1="302.39" y1="348.03" x2="292.94" y2="364.15"/>
	<line fill="#FFFFFF" stroke="#27E0AD" stroke-width="2" stroke-miterlimit="10" x1="310.26" y1="348.03" x2="300.82" y2="364.15"/>
	<line fill="#FFFFFF" stroke="#27E0AD" stroke-width="2" stroke-miterlimit="10" x1="318.14" y1="348.03" x2="308.69" y2="364.15"/>
	<line fill="#FFFFFF" stroke="#27E0AD" stroke-width="2" stroke-miterlimit="10" x1="326.01" y1="348.03" x2="316.56" y2="364.15"/>
	<line fill="#FFFFFF" stroke="#27E0AD" stroke-width="2" stroke-miterlimit="10" x1="333.88" y1="348.03" x2="324.43" y2="364.15"/>
	<line fill="#FFFFFF" stroke="#27E0AD" stroke-width="2" stroke-miterlimit="10" x1="342.09" y1="348.03" x2="332.64" y2="364.15"/>
	<line fill="#FFFFFF" stroke="#27E0AD" stroke-width="2" stroke-miterlimit="10" x1="349.96" y1="348.03" x2="340.51" y2="364.15"/>
	<line fill="#FFFFFF" stroke="#27E0AD" stroke-width="2" stroke-miterlimit="10" x1="357.83" y1="348.03" x2="348.38" y2="364.15"/>
	<line fill="#FFFFFF" stroke="#27E0AD" stroke-width="2" stroke-miterlimit="10" x1="365.7" y1="348.03" x2="356.26" y2="364.15"/>
	<line fill="#FFFFFF" stroke="#27E0AD" stroke-width="2" stroke-miterlimit="10" x1="373.58" y1="348.03" x2="364.13" y2="364.15"/>
	<line fill="#FFFFFF" stroke="#27E0AD" stroke-width="2" stroke-miterlimit="10" x1="381.45" y1="348.03" x2="372" y2="364.15"/>
	<line fill="#FFFFFF" stroke="#27E0AD" stroke-width="2" stroke-miterlimit="10" x1="389.32" y1="348.03" x2="379.88" y2="364.15"/>
	<line fill="#FFFFFF" stroke="#27E0AD" stroke-width="2" stroke-miterlimit="10" x1="397.2" y1="348.03" x2="387.75" y2="364.15"/>
	<line fill="#FFFFFF" stroke="#27E0AD" stroke-width="2" stroke-miterlimit="10" x1="405.07" y1="348.03" x2="395.62" y2="364.15"/>
	<line fill="#FFFFFF" stroke="#27E0AD" stroke-width="2" stroke-miterlimit="10" x1="412.94" y1="348.03" x2="403.49" y2="364.15"/>
</g>
<g>
	<rect x="36.24" y="24.14" fill="none" width="112.52" height="15.73"/>
	<text transform="matrix(1 0 0 1 36.2446 37.6367)" fill="#063F84" font-family="'Cabin-Medium'" font-size="18">sources</text>
</g>
<line fill="#FFFFFF" stroke="#27E0AD" stroke-width="2" stroke-miterlimit="10" x1="12.07" y1="58.45" x2="420.84" y2="58.45"/>
<g>
	<rect x="37.65" y="97.82" fill="none" width="356.6" height="230.25"/>
	<text transform="matrix(1 0 0 1 37.6511 108.3198)"><tspan x="0" y="0" fill="#063F84" font-family="'Cabin-Regular'" font-size="14" letter-spacing="1">Crowd Companies, Timeline of Large Brands </tspan><tspan x="0" y="22" fill="#063F84" font-family="'Cabin-Regular'" font-size="14" letter-spacing="1">in the Collaborative Economy, 2015</tspan><tspan x="0" y="66" fill="#063F84" font-family="'Cabin-Regular'" font-size="14" letter-spacing="1">CrunchBase Database</tspan></text>
</g>
</svg>
