<?xml version="1.0" encoding="utf-8"?>
<!-- Generator: Adobe Illustrator 19.0.0, SVG Export Plug-In . SVG Version: 6.00 Build 0)  -->
<svg version="1.1" id="Layer_1" xmlns="http://www.w3.org/2000/svg" xmlns:xlink="http://www.w3.org/1999/xlink" x="0px" y="0px"
	 viewBox="-236 41.6 468.8 455.4" style="enable-background:new -236 41.6 468.8 455.4;" xml:space="preserve">
<style type="text/css">
	.st0{fill:#FFFFFF;stroke:#27E0AD;stroke-width:2;}
	.st1{enable-background:new    ;}
	.st2{fill:#063F84;}
	.st3{fill:#455770;}
	.st4{fill:#27E0AD;}
	.st5{fill:none;}
</style>
<g>
	<rect x="-48.42" y="142.8" class="st0" width="122.4" height="122.4"/>
</g>
<g class="st1">
	<path class="st2" d="M-9.02,205.7v-5.8h1.7v5.1c0,1.9,0.4,3.5,2.8,3.5c2.3,0,2.8-1.6,2.8-3.5v-5.1h1.7v5.8c0,2.7-1.4,4.5-4.4,4.5
		C-7.52,210.2-9.02,208.4-9.02,205.7z"/>
	<path class="st2" d="M2.48,210v-10.1h2.6c2.5,0,4.1,0.4,4.1,2.6c0,0.9-0.1,1.5-0.9,2.1c1.3,0.5,1.8,1.2,1.8,2.4c0,2.4-2,3-3.7,3
		H2.48z M4.08,201.3v2.7h1.9c0.7,0,1.5-0.2,1.5-1.3s-0.8-1.3-1.8-1.3h-1.6V201.3z M4.08,205.4v3.2h1.7c1.5,0,2.5-0.3,2.5-1.5
		c0-1.3-0.9-1.6-2.1-1.6h-2.1C4.08,205.5,4.08,205.4,4.08,205.4z"/>
	<path class="st2" d="M12.08,210v-10.1h6.7v1.6h-5v2.4h3.9v1.6h-3.9v2.9h5.1v1.6H12.08z"/>
	<path class="st2" d="M26.98,210l-2.3-3.8h-2.1v3.8h-1.7v-10.1h3.7c2.2,0,3.7,0.7,3.7,2.9c0,1.5-0.8,2.3-1.9,2.9l2.5,4.2h-1.9
		C26.98,209.9,26.98,210,26.98,210z M22.58,201.3v3.3h1.9c1.2,0,2-0.6,2-1.7c0-1-0.6-1.6-2.2-1.6H22.58L22.58,201.3z"/>
</g>
<rect x="75.58" y="284.1" class="st0" width="65" height="65"/>
<g class="st1">
	<path class="st2" d="M96.08,315.9v6.6h-1.3v-6.6h-2.4v-1.2h6.1v1.2H96.08z"/>
	<path class="st2" d="M99.78,322.5v-7.8h5.2v1.2h-3.9v1.9h3v1.2h-3v2.2h4v1.2h-5.3C99.78,322.4,99.78,322.5,99.78,322.5z"/>
	<path class="st2" d="M105.98,318.6c0-2.5,1.8-4.1,4.1-4.1c0.9,0,1.7,0.2,2.3,0.5l-0.1,1.2c-0.7-0.2-1.3-0.4-2.2-0.4
		c-1.8,0-2.7,1.2-2.7,2.8s0.9,2.8,2.7,2.8c0.8,0,1.5-0.2,2.2-0.4l0.1,1.2c-0.6,0.3-1.5,0.4-2.3,0.4
		C107.78,322.7,105.98,321.1,105.98,318.6z"/>
	<path class="st2" d="M119.68,322.5V319h-4.4v3.5h-1.3v-7.8h1.3v3.1h4.4v-3.1h1.3v7.8H119.68z"/>
</g>
<rect x="-225.22" y="284.1" class="st0" width="93.7" height="93.7"/>
<g class="st1">
	<path class="st2" d="M-192.12,334.1h-1.3l-1.9-5.7l-2,5.7h-1.3l-2.3-7.8h1.4l1.8,6l2-5.9h1l2,5.8l1.7-5.9h1.4L-192.12,334.1z"/>
	<path class="st2" d="M-189.02,330.2c0-2.5,1.7-4.1,4.1-4.1s4.1,1.6,4.1,4.1s-1.7,4.1-4.1,4.1
		C-187.32,334.2-189.02,332.6-189.02,330.2z M-187.62,330.2c0,1.6,0.9,2.8,2.7,2.8s2.7-1.2,2.7-2.8s-0.9-2.8-2.7-2.8
		S-187.62,328.5-187.62,330.2z"/>
	<path class="st2" d="M-174.42,334.1l-1.8-3h-1.7v3h-1.3v-7.8h2.9c1.7,0,2.9,0.5,2.9,2.3c0,1.1-0.6,1.8-1.5,2.3l1.9,3.3h-1.4
		L-174.42,334.1L-174.42,334.1z M-177.82,327.3v2.6h1.5c1,0,1.5-0.4,1.5-1.3c0-0.8-0.5-1.3-1.7-1.3L-177.82,327.3L-177.82,327.3z"/>
	<path class="st2" d="M-171.72,334.1v-7.8h1.3v6.6h3.7v1.2L-171.72,334.1L-171.72,334.1z"/>
	<path class="st2" d="M-165.52,334.1v-7.8h3.1c2.4,0,4.1,1.5,4.1,3.9c0,2.5-1.7,3.9-4.1,3.9H-165.52z M-164.22,327.5v5.4h1.8
		c1.8,0,2.7-1.1,2.7-2.7s-0.9-2.7-2.7-2.7L-164.22,327.5L-164.22,327.5z"/>
</g>
<rect x="-118.62" y="284.1" class="st0" width="84.1" height="84.1"/>
<g class="st1">
	<path class="st2" d="M-104.42,328.2c0-2.5,1.8-4.1,4.1-4.1c0.9,0,1.7,0.2,2.3,0.5l-0.1,1.2c-0.7-0.2-1.3-0.4-2.2-0.4
		c-1.8,0-2.7,1.2-2.7,2.8s0.9,2.8,2.7,2.8c0.8,0,1.5-0.2,2.2-0.4l0.1,1.2c-0.6,0.3-1.5,0.4-2.3,0.4
		C-102.62,332.3-104.42,330.7-104.42,328.2z"/>
	<path class="st2" d="M-97.02,328.2c0-2.5,1.7-4.1,4.1-4.1s4.1,1.6,4.1,4.1s-1.7,4.1-4.1,4.1C-95.22,332.3-97.02,330.7-97.02,328.2z
		 M-95.52,328.2c0,1.6,0.9,2.8,2.7,2.8s2.7-1.2,2.7-2.8s-0.9-2.8-2.7-2.8S-95.52,326.6-95.52,328.2z"/>
	<path class="st2" d="M-80.32,332.1l-0.8-5.5l-2.2,3.8l-2.2-3.8l-0.8,5.5h-1.4l1.1-7.8h1.1l2.1,3.7l2.1-3.7h1.1l1.1,7.8H-80.32z"/>
	<path class="st2" d="M-76.02,329.5v2.6h-1.3v-7.8h2.5c1.9,0,3.2,0.3,3.2,2.5s-1.6,2.7-2.7,2.7L-76.02,329.5L-76.02,329.5z
		 M-76.02,325.4v2.9h1.5c1.1,0,1.6-0.4,1.6-1.5c0-1-0.4-1.4-1.8-1.4H-76.02z"/>
	<path class="st2" d="M-65.62,332.1l-0.8-2h-3l-0.8,2h-1.4l3-7.8h1.3l3,7.8H-65.62z M-67.92,326.3l-1.1,2.6h2.1L-67.92,326.3z"/>
	<path class="st2" d="M-57.72,332.1l-4.1-5.7v5.7h-1.3v-7.8h1.3l3.9,5.4v-5.4h1.3v7.8H-57.72z"/>
	<path class="st2" d="M-51.32,328.6v3.5h-1.3v-3.5l-2.8-4.3h1.4l2.1,3.2l2.1-3.2h1.4L-51.32,328.6z"/>
</g>
<g>
	<rect x="-225.72" y="115.5" class="st0" width="151.1" height="149.8"/>
</g>
<g class="st1">
	<path class="st2" d="M-190.62,197.1V187h2.6c2.5,0,4.1,0.4,4.1,2.6c0,0.9-0.1,1.5-0.9,2.1c1.3,0.5,1.8,1.2,1.8,2.4c0,2.4-2,3-3.7,3
		H-190.62z M-188.92,188.4v2.7h1.9c0.7,0,1.5-0.2,1.5-1.3s-0.8-1.3-1.8-1.3h-1.6L-188.92,188.4L-188.92,188.4z M-188.92,192.5v3.2
		h1.7c1.5,0,2.5-0.3,2.5-1.5c0-1.3-0.9-1.6-2.1-1.6h-2.1L-188.92,192.5L-188.92,192.5z"/>
	<path class="st2" d="M-181.12,192.8V187h1.7v5.1c0,1.9,0.4,3.5,2.8,3.5c2.3,0,2.8-1.6,2.8-3.5V187h1.7v5.8c0,2.7-1.4,4.5-4.4,4.5
		C-179.62,197.3-181.12,195.5-181.12,192.8z"/>
	<path class="st2" d="M-170.12,196.6l0.2-1.9c0.6,0.5,1.8,1,3.3,1c1.2,0,2.3-0.3,2.3-1.3c0-1.1-1.2-1.4-2.6-1.9
		c-1.7-0.5-3.3-1-3.3-2.8c0-1.3,1-3,3.9-3c1.4,0,2.8,0.4,3.4,0.7l-0.2,1.7c-1.1-0.5-2.1-0.9-3.1-0.9s-2.2,0.3-2.2,1.2
		c0,0.8,1,1.2,2.2,1.5c1.8,0.5,3.8,1.1,3.8,3.3c0,1.1-0.5,2.9-4.2,2.9C-168.22,197.3-169.52,196.9-170.12,196.6z"/>
	<path class="st2" d="M-160.52,197.1V187h1.7v10.1H-160.52z"/>
	<path class="st2" d="M-149.12,197.1l-5.3-7.3v7.3h-1.7V187h1.7l5,6.9V187h1.7v10.1H-149.12z"/>
	<path class="st2" d="M-145.12,197.1V187h6.7v1.6h-5v2.4h3.9v1.6h-3.9v2.9h5.1v1.6H-145.12z"/>
	<path class="st2" d="M-136.72,196.6l0.2-1.9c0.6,0.5,1.8,1,3.3,1c1.2,0,2.3-0.3,2.3-1.3c0-1.1-1.2-1.4-2.6-1.9
		c-1.7-0.5-3.3-1-3.3-2.8c0-1.3,1-3,3.9-3c1.4,0,2.8,0.4,3.4,0.7l-0.2,1.7c-1.1-0.5-2.1-0.9-3.1-0.9s-2.2,0.3-2.2,1.2
		c0,0.8,1,1.2,2.3,1.5c1.8,0.5,3.8,1.1,3.8,3.3c0,1.1-0.5,2.9-4.2,2.9C-134.82,197.3-136.12,196.9-136.72,196.6z"/>
	<path class="st2" d="M-127.52,196.6l0.2-1.9c0.6,0.5,1.8,1,3.3,1c1.2,0,2.3-0.3,2.3-1.3c0-1.1-1.2-1.4-2.6-1.9
		c-1.7-0.5-3.3-1-3.3-2.8c0-1.3,1-3,3.9-3c1.4,0,2.8,0.4,3.4,0.7l-0.2,1.7c-1.1-0.5-2.1-0.9-3.1-0.9s-2.2,0.3-2.2,1.2
		c0,0.8,1,1.2,2.3,1.5c1.8,0.5,3.8,1.1,3.8,3.3c0,1.1-0.5,2.9-4.2,2.9C-125.62,197.3-126.92,196.9-127.52,196.6z"/>
</g>
<g>
	<g class="st1">
		<path class="st2" d="M-118.92,450.4l0.2-1.5c0.5,0.4,1.4,0.8,2.6,0.8c1,0,1.8-0.3,1.8-1c0-0.8-0.9-1.1-2.1-1.5
			c-1.3-0.4-2.6-0.8-2.6-2.2c0-1,0.7-2.3,3-2.3c1.1,0,2.2,0.3,2.6,0.6l-0.1,1.3c-0.8-0.4-1.6-0.7-2.4-0.7s-1.7,0.2-1.7,1
			c0,0.7,0.8,0.9,1.8,1.2c1.4,0.4,3,0.8,3,2.5c0,0.9-0.4,2.2-3.2,2.2C-117.42,450.9-118.42,450.7-118.92,450.4z"/>
		<path class="st2" d="M-111.42,450.8V443h5.2v1.2h-3.9v1.9h3v1.2h-3v2.2h4v1.2h-5.3C-111.42,450.7-111.42,450.8-111.42,450.8z"/>
		<path class="st2" d="M-99.82,450.8l-1.8-3h-1.7v3h-1.3V443h2.9c1.7,0,2.9,0.5,2.9,2.3c0,1.1-0.6,1.8-1.5,2.3l1.9,3.3h-1.4V450.8z
			 M-103.22,444v2.6h1.5c1,0,1.5-0.4,1.5-1.3c0-0.8-0.5-1.3-1.7-1.3L-103.22,444L-103.22,444z"/>
		<path class="st2" d="M-93.52,450.8h-1.5l-3.1-7.8h1.4l2.5,6.2l2.5-6.2h1.4L-93.52,450.8z"/>
		<path class="st2" d="M-89.22,450.8V443h1.3v7.8H-89.22z"/>
		<path class="st2" d="M-86.42,446.9c0-2.5,1.8-4.1,4.1-4.1c0.9,0,1.7,0.2,2.3,0.5l-0.1,1.2c-0.7-0.2-1.3-0.4-2.2-0.4
			c-1.8,0-2.7,1.2-2.7,2.8s0.9,2.8,2.7,2.8c0.8,0,1.5-0.2,2.2-0.4l0.1,1.2c-0.6,0.3-1.5,0.4-2.3,0.4
			C-84.62,450.9-86.42,449.3-86.42,446.9z"/>
		<path class="st2" d="M-78.42,450.8V443h5.2v1.2h-3.9v1.9h3v1.2h-3v2.2h4v1.2h-5.3C-78.42,450.7-78.42,450.8-78.42,450.8z"/>
	</g>
</g>
<rect x="153.18" y="284.1" class="st0" width="55.4" height="55.4"/>
<g class="st1">
	<path class="st2" d="M171.58,317.7h-1.3l-1.9-5.7l-2,5.7h-1.3l-2.3-7.8h1.4l1.8,6l2-5.9h1l2,5.8l1.7-5.9h1.4L171.58,317.7z"/>
	<path class="st2" d="M174.68,313.8c0-2.5,1.7-4.1,4.1-4.1s4.1,1.6,4.1,4.1s-1.7,4.1-4.1,4.1S174.68,316.3,174.68,313.8z
		 M176.08,313.8c0,1.6,0.9,2.8,2.7,2.8s2.7-1.2,2.7-2.8s-0.9-2.8-2.7-2.8S176.08,312.2,176.08,313.8z"/>
	<path class="st2" d="M189.28,317.7l-1.8-3h-1.7v3h-1.3v-7.8h2.9c1.7,0,2.9,0.5,2.9,2.3c0,1.1-0.6,1.8-1.5,2.3l1.9,3.3h-1.4
		L189.28,317.7L189.28,317.7z M185.78,311v2.6h1.5c1,0,1.5-0.4,1.5-1.3c0-0.8-0.5-1.3-1.7-1.3L185.78,311L185.78,311z"/>
	<path class="st2" d="M191.98,317.7v-7.8h1.3v7.8H191.98z M196.68,317.7l-3-4.1l3-3.7h1.4l-3,3.7l3,4.1H196.68z"/>
</g>
<rect x="-57.22" y="387.9" class="st0" width="45.8" height="45.8"/>
<rect x="-118.22" y="387.9" class="st0" width="45.8" height="45.8"/>
<g>
	<g class="st1">
		<path class="st2" d="M-52.22,450.8l-0.8-2h-3l-0.8,2h-1.4l3-7.8h1.3l3,7.8H-52.22z M-54.42,444.9l-1.1,2.6h2.1L-54.42,444.9z"/>
		<path class="st2" d="M-48.32,448.1v2.6h-1.3v-7.8h2.5c1.9,0,3.2,0.3,3.2,2.5s-1.6,2.7-2.7,2.7L-48.32,448.1L-48.32,448.1z
			 M-48.32,444v2.9h1.5c1.1,0,1.6-0.4,1.6-1.5c0-1-0.4-1.4-1.8-1.4H-48.32z"/>
		<path class="st2" d="M-41.22,448.1v2.6h-1.3v-7.8h2.5c1.9,0,3.2,0.3,3.2,2.5s-1.6,2.7-2.7,2.7L-41.22,448.1L-41.22,448.1z
			 M-41.22,444v2.9h1.5c1.1,0,1.6-0.4,1.6-1.5c0-1-0.4-1.4-1.8-1.4H-41.22z"/>
	</g>
</g>
<rect x="-21.52" y="284.1" class="st0" width="84.1" height="84.1"/>
<g class="st1">
	<path class="st2" d="M8.28,327.5c0-2.5,1.8-4.1,4.1-4.1c0.9,0,1.7,0.2,2.3,0.5l-0.1,1.2c-0.7-0.2-1.3-0.4-2.2-0.4
		c-1.8,0-2.7,1.2-2.7,2.8s0.9,2.8,2.7,2.8c0.8,0,1.5-0.2,2.2-0.4l0.1,1.2c-0.6,0.3-1.5,0.4-2.3,0.4C10.08,331.6,8.28,330,8.28,327.5
		z"/>
	<path class="st2" d="M21.28,331.4l-0.8-2h-3l-0.8,2h-1.4l3-7.8h1.3l3,7.8H21.28z M19.08,325.6l-1.1,2.6h2.1L19.08,325.6z"/>
	<path class="st2" d="M28.58,331.4l-1.8-3h-1.7v3h-1.3v-7.8h2.9c1.7,0,2.9,0.5,2.9,2.3c0,1.1-0.6,1.8-1.5,2.3l1.9,3.3h-1.4V331.4z
		 M25.18,324.7v2.6h1.5c1,0,1.5-0.4,1.5-1.3c0-0.8-0.5-1.3-1.7-1.3L25.18,324.7L25.18,324.7z"/>
</g>
<rect x="1.78" y="387.9" class="st0" width="45.8" height="45.8"/>
<g>
	<g class="st1">
		<path class="st2" d="M8.68,451.8l-0.8-5.5l-2.2,3.8l-2.2-3.8l-0.8,5.5h-1.4l1.1-7.8h1.1l2.1,3.7l2.1-3.7h1.1l1.1,7.8H8.68z"/>
		<path class="st2" d="M11.18,447.9c0-2.5,1.7-4.1,4.1-4.1s4.1,1.6,4.1,4.1s-1.7,4.1-4.1,4.1C12.88,451.9,11.18,450.3,11.18,447.9z
			 M12.58,447.9c0,1.6,0.9,2.8,2.7,2.8s2.7-1.2,2.7-2.8s-0.9-2.8-2.7-2.8S12.58,446.2,12.58,447.9z"/>
		<path class="st2" d="M26.38,451.8l-4.1-5.7v5.7h-1.3V444h1.3l3.9,5.4V444h1.3v7.8H26.38z"/>
		<path class="st2" d="M29.58,451.8V444h5.2v1.2h-3.9v1.9h3v1.2h-3v2.2h4v1.2h-5.3C29.58,451.7,29.58,451.8,29.58,451.8z"/>
		<path class="st2" d="M39.58,448.2v3.5h-1.3v-3.5l-2.8-4.3h1.4l2.1,3.2l2.1-3.2h1.4L39.58,448.2z"/>
	</g>
</g>
<g>
	<rect x="99.68" y="162.1" class="st0" width="103.2" height="103.2"/>
</g>
<g class="st1">
	<path class="st2" d="M125.68,216.9v3.4h-1.7v-10.1h3.2c2.4,0,4.1,0.4,4.1,3.2s-2,3.5-3.5,3.5L125.68,216.9L125.68,216.9z
		 M125.68,211.7v3.7h1.9c1.5,0,2-0.6,2-1.9s-0.5-1.8-2.3-1.8H125.68L125.68,211.7z"/>
	<path class="st2" d="M133.08,220.3v-10.1h6.7v1.6h-5v2.4h3.9v1.6h-3.9v2.9h5.1v1.6H133.08z"/>
	<path class="st2" d="M141.18,215.3c0-3.2,2.2-5.2,5.3-5.2s5.3,2.1,5.3,5.2c0,3.2-2.2,5.2-5.3,5.2S141.18,218.5,141.18,215.3z
		 M142.98,215.3c0,2.1,1.2,3.7,3.4,3.7c2.3,0,3.4-1.6,3.4-3.7s-1.2-3.7-3.4-3.7C144.08,211.6,142.98,213.2,142.98,215.3z"/>
	<path class="st2" d="M155.48,216.9v3.4h-1.7v-10.1h3.2c2.4,0,4.1,0.4,4.1,3.2s-2,3.5-3.5,3.5L155.48,216.9L155.48,216.9z
		 M155.48,211.7v3.7h1.9c1.5,0,2-0.6,2-1.9s-0.5-1.8-2.3-1.8H155.48L155.48,211.7z"/>
	<path class="st2" d="M162.88,220.3v-10.1h1.7v8.5h4.7v1.6H162.88z"/>
	<path class="st2" d="M170.88,220.3v-10.1h6.7v1.6h-5v2.4h3.9v1.6h-3.9v2.9h5.1v1.6H170.88z"/>
</g>
<rect x="-187.12" y="398.6" class="st0" width="55.4" height="55.4"/>
<g>
	<g class="st1">
		<path class="st2" d="M-180.42,469.2l-0.8-2h-3l-0.8,2h-1.4l3-7.8h1.3l3,7.8H-180.42z M-182.72,463.3l-1.1,2.6h2.1L-182.72,463.3z"
			/>
		<path class="st2" d="M-177.92,469.2v-7.8h1.3v7.8H-177.92z"/>
		<path class="st2" d="M-169.82,469.2l-1.8-3h-1.7v3h-1.3v-7.8h2.9c1.7,0,2.9,0.5,2.9,2.3c0,1.1-0.6,1.8-1.5,2.3l1.9,3.3h-1.4
			L-169.82,469.2L-169.82,469.2z M-173.22,462.4v2.6h1.5c1,0,1.5-0.4,1.5-1.3c0-0.8-0.5-1.3-1.7-1.3L-173.22,462.4L-173.22,462.4z"
			/>
		<path class="st2" d="M-167.02,469.2v-7.8h2c1.9,0,3.2,0.3,3.2,2c0,0.7-0.1,1.2-0.7,1.7c1,0.4,1.4,0.9,1.4,1.9
			c0,1.9-1.5,2.3-2.9,2.3h-3V469.2z M-165.72,462.4v2.1h1.4c0.6,0,1.2-0.1,1.2-1s-0.6-1-1.4-1h-1.2V462.4z M-165.72,465.6v2.5h1.3
			c1.2,0,1.9-0.2,1.9-1.2s-0.7-1.3-1.6-1.3H-165.72z"/>
		<path class="st2" d="M-154.12,469.2l-4.1-5.7v5.7h-1.3v-7.8h1.3l3.9,5.4v-5.4h1.3v7.8H-154.12z"/>
		<path class="st2" d="M-151.02,469.2v-7.8h2c1.9,0,3.2,0.3,3.2,2c0,0.7-0.1,1.2-0.7,1.7c1,0.4,1.4,0.9,1.4,1.9
			c0,1.9-1.5,2.3-2.9,2.3h-3V469.2z M-149.72,462.4v2.1h1.4c0.6,0,1.2-0.1,1.2-1s-0.6-1-1.4-1h-1.2V462.4z M-149.72,465.6v2.5h1.3
			c1.2,0,1.9-0.2,1.9-1.2s-0.7-1.3-1.6-1.3H-149.72z"/>
	</g>
</g>
<rect x="121.88" y="366" class="st0" width="36.3" height="36.3"/>
<g>
	<g class="st1">
		<path class="st2" d="M121.48,419.6v-7.8h3.1c2.4,0,4.1,1.5,4.1,3.9c0,2.5-1.7,3.9-4.1,3.9H121.48z M122.78,413v5.4h1.8
			c1.8,0,2.7-1.1,2.7-2.7s-0.9-2.7-2.7-2.7L122.78,413L122.78,413z"/>
		<path class="st2" d="M135.08,419.6l-1.8-3h-1.7v3h-1.3v-7.8h2.9c1.7,0,2.9,0.5,2.9,2.3c0,1.1-0.6,1.8-1.5,2.3l1.9,3.3h-1.4
			L135.08,419.6L135.08,419.6z M131.68,412.8v2.6h1.5c1,0,1.5-0.4,1.5-1.3c0-0.8-0.5-1.3-1.7-1.3L131.68,412.8L131.68,412.8z"/>
		<path class="st2" d="M137.78,419.6v-7.8h1.3v7.8H137.78z"/>
		<path class="st2" d="M144.88,419.6h-1.5l-3.1-7.8h1.4l2.5,6.2l2.5-6.2h1.4L144.88,419.6z"/>
		<path class="st2" d="M149.08,419.6v-7.8h5.2v1.2h-3.9v1.9h3v1.2h-3v2.2h4v1.2h-5.3V419.6z"/>
		<path class="st2" d="M160.68,419.6l-1.8-3h-1.7v3h-1.3v-7.8h2.9c1.7,0,2.9,0.5,2.9,2.3c0,1.1-0.6,1.8-1.5,2.3l1.9,3.3h-1.4
			L160.68,419.6L160.68,419.6z M157.28,412.8v2.6h1.5c1,0,1.5-0.4,1.5-1.3c0-0.8-0.5-1.3-1.7-1.3L157.28,412.8L157.28,412.8z"/>
	</g>
</g>
<rect x="172.38" y="366" class="st0" width="36.3" height="36.3"/>
<g>
	<g class="st1">
		<path class="st2" d="M176.28,413v6.6h-1.3V413h-2.4v-1.2h6.1v1.2H176.28z"/>
		<path class="st2" d="M184.78,419.6l-1.8-3h-1.7v3h-1.3v-7.8h2.9c1.7,0,2.9,0.5,2.9,2.3c0,1.1-0.6,1.8-1.5,2.3l1.9,3.3h-1.4
			L184.78,419.6L184.78,419.6z M181.28,412.8v2.6h1.5c1,0,1.5-0.4,1.5-1.3c0-0.8-0.5-1.3-1.7-1.3L181.28,412.8L181.28,412.8z"/>
		<path class="st2" d="M192.48,419.6l-0.8-2h-3l-0.8,2h-1.4l3-7.8h1.3l3,7.8H192.48z M190.18,413.7l-1.1,2.6h2.1L190.18,413.7z"/>
		<path class="st2" d="M198.08,419.6h-1.5l-3.1-7.8h1.4l2.5,6.2l2.5-6.2h1.4L198.08,419.6z"/>
		<path class="st2" d="M202.28,419.6v-7.8h5.2v1.2h-3.9v1.9h3v1.2h-3v2.2h4v1.2h-5.3V419.6z"/>
		<path class="st2" d="M209.18,419.6v-7.8h1.3v6.6h3.7v1.2L209.18,419.6L209.18,419.6z"/>
	</g>
</g>
<rect x="61.88" y="387.9" class="st0" width="45.8" height="45.8"/>
<g>
	<g class="st1">
		<path class="st2" d="M70.98,451.8h-1.3l-1.9-5.7l-2,5.7h-1.3l-2.3-7.8h1.4l1.8,6l2-5.9h1l2,5.8l1.7-5.9h1.4L70.98,451.8z"/>
		<path class="st2" d="M73.98,447.9c0-2.5,1.7-4.1,4.1-4.1s4.1,1.6,4.1,4.1s-1.7,4.1-4.1,4.1C75.78,451.9,73.98,450.3,73.98,447.9z
			 M75.48,447.9c0,1.6,0.9,2.8,2.7,2.8s2.7-1.2,2.7-2.8s-0.9-2.8-2.7-2.8S75.48,446.2,75.48,447.9z"/>
		<path class="st2" d="M88.58,451.8l-1.8-3h-1.7v3h-1.3V444h2.9c1.7,0,2.9,0.5,2.9,2.3c0,1.1-0.6,1.8-1.5,2.3l1.9,3.3h-1.4V451.8z
			 M85.18,445v2.6h1.5c1,0,1.5-0.4,1.5-1.3c0-0.8-0.5-1.3-1.7-1.3L85.18,445L85.18,445z"/>
		<path class="st2" d="M91.28,451.8V444h1.3v7.8H91.28z M96.08,451.8l-3-4.1l3-3.7h1.4l-3,3.7l3,4.1H96.08z"/>
		<path class="st2" d="M98.68,451.8V444h5.2v1.2h-3.9v1.9h3v1.2h-3v2.2h4v1.2h-5.3C98.68,451.7,98.68,451.8,98.68,451.8z"/>
		<path class="st2" d="M110.28,451.8l-1.8-3h-1.7v3h-1.3V444h2.9c1.7,0,2.9,0.5,2.9,2.3c0,1.1-0.6,1.8-1.5,2.3l1.9,3.3h-1.4V451.8z
			 M106.88,445v2.6h1.5c1,0,1.5-0.4,1.5-1.3c0-0.8-0.5-1.3-1.7-1.3L106.88,445L106.88,445z"/>
	</g>
</g>
<g>
	<path class="st3" d="M-214.12,45.8v8.4h-2.1v-8.4h-3.1v-2h8.2v2C-211.12,45.8-214.12,45.8-214.12,45.8z"/>
	<path class="st3" d="M-209.32,49c0-3.2,2.3-5.4,5.4-5.4s5.4,2.1,5.4,5.4c0,3.3-2.3,5.4-5.4,5.4C-207.12,54.4-209.32,52.3-209.32,49
		z M-207.12,49c0,2,1.1,3.4,3.2,3.4s3.2-1.4,3.2-3.4s-1-3.4-3.2-3.4C-206.02,45.6-207.12,47-207.12,49z"/>
	<path class="st3" d="M-193.72,50.9v3.3h-2.1V43.9h3.1c3.1,0,4.8,0.4,4.8,3.3c0,3.1-2.3,3.7-3.9,3.7H-193.72z M-193.72,45.5v3.4h1.7
		c1.5,0,2.1-0.4,2.1-1.8c0-1.1-0.4-1.6-2.1-1.6L-193.72,45.5L-193.72,45.5z"/>
	<path class="st3" d="M-169.72,54.2h-1.8l-2.4-6.5l-2.4,6.5h-1.9l-3.1-10.3h2.1l2.2,7l2.4-7h1.4l2.5,6.8l2.1-6.7h2.1L-169.72,54.2z"
		/>
	<path class="st3" d="M-164.92,49c0-3.2,2.3-5.4,5.4-5.4s5.4,2.1,5.4,5.4c0,3.3-2.3,5.4-5.4,5.4C-162.72,54.4-164.92,52.3-164.92,49
		z M-162.72,49c0,2,1.1,3.4,3.2,3.4s3.2-1.4,3.2-3.4s-1-3.4-3.2-3.4C-161.62,45.6-162.72,47-162.72,49z"/>
	<path class="st3" d="M-145.02,54.2l-2.3-3.8h-2v3.8h-2.1V43.9h4.1c2.1,0,3.8,0.7,3.8,3c0,1.7-0.8,2.4-1.9,3.1l2.5,4.3h-2.1V54.2z
		 M-149.32,45.6v3h1.4c1.9,0,2.2-0.7,2.2-1.5c0-0.9-0.4-1.4-2.1-1.4h-1.5L-149.32,45.6L-149.32,45.6z"/>
	<path class="st3" d="M-140.42,54.2V43.9h4.1c3.1,0,5.4,1.9,5.4,5.1c0,3.3-2.3,5.2-5.4,5.2H-140.42z M-138.32,45.8v6.4h2.1
		c2.1,0,3.2-1.2,3.2-3.2s-1.1-3.2-3.2-3.2H-138.32z"/>
	<path class="st3" d="M-128.52,53.6l0.2-2.3c0.6,0.6,1.8,1.1,3.5,1.1c1.2,0,1.9-0.2,1.9-1c0-1-1.2-1.4-2.5-1.8
		c-1.5-0.5-3.2-1-3.2-2.9c0-1.4,1-3.1,4-3.1c1.5,0,2.9,0.5,3.5,0.8l-0.2,2.1c-1.2-0.6-2.2-0.9-3.2-0.9c-0.8,0-2,0.1-2,1
		c0,0.8,1,1.1,2.2,1.4c1.7,0.5,3.8,1.1,3.8,3.3c0,1.2-0.6,3.1-4.2,3.1C-126.52,54.4-127.82,54-128.52,53.6z"/>
	<path class="st3" d="M-112.92,54.2V43.9h2.1v10.3H-112.92z"/>
	<path class="st3" d="M-100.42,54.2l-5-6.8v6.8h-2.1V43.9h2l4.6,6.4v-6.4h2.1v10.3H-100.42z"/>
	<path class="st3" d="M-86.12,45.8v8.4h-2.1v-8.4h-3.1v-2h8.2v2C-83.12,45.8-86.12,45.8-86.12,45.8z"/>
	<path class="st3" d="M-73.42,54.2v-4.4h-5.1v4.4h-2.1V43.9h2.1v4h5.1v-4h2.1v10.3H-73.42z"/>
	<path class="st3" d="M-67.92,54.2V43.9h7.1v2h-5v2h3.8v2h-3.8v2.4h5.1v2h-7.2V54.2z"/>
	<path class="st3" d="M-48.72,45.8v8.4h-2.1v-8.4h-3.1v-2h8.2v2C-45.72,45.8-48.72,45.8-48.72,45.8z"/>
	<path class="st3" d="M-44.02,49c0-3.2,2.3-5.4,5.4-5.4s5.4,2.1,5.4,5.4c0,3.3-2.3,5.4-5.4,5.4S-44.02,52.3-44.02,49z M-41.72,49
		c0,2,1.1,3.4,3.2,3.4s3.2-1.4,3.2-3.4s-1-3.4-3.2-3.4S-41.72,47-41.72,49z"/>
	<path class="st3" d="M-28.32,50.9v3.3h-2.1V43.9h3.1c3.1,0,4.8,0.4,4.8,3.3c0,3.1-2.3,3.7-3.9,3.7H-28.32z M-28.32,45.5v3.4h1.7
		c1.5,0,2.1-0.4,2.1-1.8c0-1.1-0.4-1.6-2.1-1.6L-28.32,45.5L-28.32,45.5z"/>
	<path class="st3" d="M-19.02,54.2v-7.8c-0.4,0.3-0.8,0.5-1.3,0.5l-0.2-1.6c0.6-0.1,1.7-0.9,1.9-1.6h1.5v10.5L-19.02,54.2
		L-19.02,54.2z"/>
	<path class="st3" d="M-14.22,53.6l0.4-1.7c0.5,0.4,1.3,0.8,2.2,0.8c1,0,2-0.4,2-1.8c0-0.9-0.4-1.6-2.6-1.6h-1.6l0.7-5.5h4.8
		l-0.2,1.9h-3.2l-0.3,2.1c2.9,0,4.2,1,4.2,3.1c0,2.4-1.9,3.7-3.8,3.7C-12.72,54.4-14.12,53.8-14.22,53.6z"/>
	<path class="st3" d="M2.18,45.8v2h3.6v2h-3.6v4.4h-2.1V43.9h6.8v2h-4.7C2.18,45.9,2.18,45.8,2.18,45.8z"/>
	<path class="st3" d="M15.78,54.2l-2.2-3.8h-2v3.8h-2.1V43.9h4.1c2.1,0,3.8,0.7,3.8,3c0,1.7-0.8,2.4-1.9,3.1l2.5,4.3h-2.2
		C15.78,54.3,15.78,54.2,15.78,54.2z M11.48,45.6v3h1.4c1.9,0,2.2-0.7,2.2-1.5c0-0.9-0.4-1.4-2.1-1.4h-1.5V45.6z"/>
	<path class="st3" d="M20.38,54.2V43.9h7.1v2h-5v2h3.8v2h-3.8v2.4h5.1v2h-7.2C20.38,54.3,20.38,54.2,20.38,54.2z"/>
	<path class="st3" d="M30.38,54.2V43.9h7.1v2h-5v2h3.8v2h-3.8v2.4h5.1v2h-7.2C30.38,54.3,30.38,54.2,30.38,54.2z"/>
	<path class="st3" d="M44.88,53.6l0.2-2.3c0.6,0.6,1.8,1.1,3.5,1.1c1.2,0,1.9-0.2,1.9-1c0-1-1.2-1.4-2.5-1.8c-1.5-0.5-3.2-1-3.2-2.9
		c0-1.4,1-3.1,4-3.1c1.5,0,2.9,0.5,3.5,0.8l-0.2,2.1c-1.2-0.6-2.2-0.9-3.2-0.9c-0.8,0-2,0.1-2,1c0,0.8,1,1.1,2.2,1.4
		c1.7,0.5,3.8,1.1,3.8,3.3c0,1.2-0.6,3.1-4.2,3.1C46.88,54.4,45.58,54,44.88,53.6z"/>
	<path class="st3" d="M55.58,54.2V43.9h2.1v10.3H55.58z"/>
	<path class="st3" d="M65.28,45.8v8.4h-2.1v-8.4h-3.1v-2h8.2v2C68.28,45.8,65.28,45.8,65.28,45.8z"/>
	<path class="st3" d="M70.78,54.2V43.9h7.1v2h-5v2h3.8v2h-3.8v2.4h5.1v2h-7.2V54.2z"/>
	<path class="st3" d="M80.38,53.6l0.2-2.3c0.6,0.6,1.8,1.1,3.5,1.1c1.2,0,1.9-0.2,1.9-1c0-1-1.2-1.4-2.5-1.8c-1.5-0.5-3.2-1-3.2-2.9
		c0-1.4,1-3.1,4-3.1c1.5,0,2.9,0.5,3.5,0.8l-0.2,2.1c-1.2-0.6-2.2-0.9-3.2-0.9c-0.8,0-2,0.1-2,1c0,0.8,1,1.1,2.2,1.4
		c1.7,0.5,3.8,1.1,3.8,3.3c0,1.2-0.6,3.1-4.2,3.1C82.38,54.4,81.08,54,80.38,53.6z"/>
	<path class="st3" d="M95.38,49c0-3.2,2.3-5.4,5.4-5.4s5.4,2.1,5.4,5.4c0,3.3-2.3,5.4-5.4,5.4C97.58,54.4,95.38,52.3,95.38,49z
		 M97.58,49c0,2,1.1,3.4,3.2,3.4s3.2-1.4,3.2-3.4s-1-3.4-3.2-3.4C98.68,45.6,97.58,47,97.58,49z"/>
	<path class="st3" d="M110.98,45.8v2h3.6v2h-3.6v4.4h-2.1V43.9h6.8v2h-4.7C110.98,45.9,110.98,45.8,110.98,45.8z"/>
	<path class="st3" d="M130.18,54.2l-5-6.8v6.8h-2.1V43.9h2l4.6,6.4v-6.4h2.1v10.3H130.18z"/>
	<path class="st3" d="M135.38,54.2V43.9h7.1v2h-5v2h3.8v2h-3.8v2.4h5.1v2h-7.2L135.38,54.2L135.38,54.2z"/>
	<path class="st3" d="M155.98,54.2h-1.8l-2.4-6.5l-2.4,6.5h-1.9l-3.1-10.3h2.1l2.2,7l2.4-7h1.4l2.5,6.8l2.1-6.7h2.1L155.98,54.2z"/>
	<path class="st3" d="M161.08,53.6l0.2-2.3c0.6,0.6,1.8,1.1,3.5,1.1c1.2,0,1.9-0.2,1.9-1c0-1-1.2-1.4-2.5-1.8
		c-1.5-0.5-3.2-1-3.2-2.9c0-1.4,1-3.1,4-3.1c1.5,0,2.9,0.5,3.5,0.8l-0.2,2.1c-1.2-0.6-2.2-0.9-3.2-0.9c-0.8,0-2,0.1-2,1
		c0,0.8,1,1.1,2.2,1.4c1.7,0.5,3.8,1.1,3.8,3.3c0,1.2-0.6,3.1-4.2,3.1C163.08,54.4,161.68,54,161.08,53.6z"/>
	<path class="st3" d="M-211.92,76.2l-1-2.4h-3.6l-0.9,2.4h-2.1l3.9-10.3h1.9l3.9,10.3H-211.92z M-214.62,69.1l-1.1,2.7h2.2
		L-214.62,69.1z"/>
	<path class="st3" d="M-208.32,71c0-3.2,2.3-5.4,5.4-5.4c1.2,0,2.3,0.2,3.1,0.6l-0.2,1.9c-0.9-0.4-1.7-0.6-2.9-0.6
		c-2.1,0-3.2,1.4-3.2,3.4s1.1,3.4,3.2,3.4c1.2,0,2-0.2,2.9-0.6l0.2,1.9c-0.8,0.4-2,0.6-3.1,0.6C-206.02,76.4-208.32,74.3-208.32,71z
		"/>
	<path class="st3" d="M-197.82,71c0-3.2,2.3-5.4,5.4-5.4c1.2,0,2.3,0.2,3.1,0.6l-0.2,1.9c-0.9-0.4-1.7-0.6-2.9-0.6
		c-2.1,0-3.2,1.4-3.2,3.4s1.1,3.4,3.2,3.4c1.2,0,2-0.2,2.9-0.6l0.2,1.9c-0.8,0.4-2,0.6-3.1,0.6C-195.52,76.4-197.82,74.3-197.82,71z
		"/>
	<path class="st3" d="M-187.32,71c0-3.2,2.3-5.4,5.4-5.4s5.4,2.1,5.4,5.4s-2.3,5.4-5.4,5.4S-187.32,74.3-187.32,71z M-185.02,71
		c0,2,1.1,3.4,3.2,3.4s3.2-1.4,3.2-3.4s-1-3.4-3.2-3.4C-183.92,67.6-185.02,69-185.02,71z"/>
	<path class="st3" d="M-167.32,76.2l-2.3-3.8h-2v3.8h-2.1V65.9h4.1c2.1,0,3.8,0.7,3.8,3c0,1.7-0.8,2.4-1.9,3.1l2.5,4.3h-2.1V76.2z
		 M-171.62,67.6v3h1.4c1.9,0,2.2-0.7,2.2-1.5c0-0.9-0.4-1.4-2.1-1.4h-1.5L-171.62,67.6L-171.62,67.6z"/>
	<path class="st3" d="M-162.72,76.2V65.9h4.1c3.1,0,5.4,1.9,5.4,5.1c0,3.3-2.3,5.2-5.4,5.2H-162.72z M-160.62,67.8v6.4h2.1
		c2.1,0,3.2-1.2,3.2-3.2s-1.1-3.2-3.2-3.2C-158.52,67.8-160.62,67.8-160.62,67.8z"/>
	<path class="st3" d="M-150.32,76.2V65.9h2.1v10.3C-148.22,76.2-150.32,76.2-150.32,76.2z"/>
	<path class="st3" d="M-137.82,76.2l-5-6.8v6.8h-2.1V65.9h2l4.6,6.4v-6.4h2.1v10.3C-136.22,76.2-137.82,76.2-137.82,76.2z"/>
	<path class="st3" d="M-133.32,71c0-3.2,2.3-5.4,5.5-5.4c1.1,0,2.5,0.2,3.3,0.6l-0.2,2c-0.8-0.3-2.1-0.6-3-0.6
		c-2.2,0-3.3,1.4-3.3,3.4c0,2.1,1.1,3.5,3.3,3.5c0.5,0,1-0.1,1.5-0.1v-1.6h-1.2v-1.7h3.2v4.6c-0.8,0.4-2.5,0.8-3.7,0.8
		C-131.02,76.4-133.32,74.3-133.32,71z"/>
	<path class="st3" d="M-112.12,67.8v8.4h-2.1v-8.4h-3.1v-2h8.2v2H-112.12z"/>
	<path class="st3" d="M-107.32,71c0-3.2,2.3-5.4,5.4-5.4s5.4,2.1,5.4,5.4s-2.3,5.4-5.4,5.4C-105.12,76.4-107.32,74.3-107.32,71z
		 M-105.12,71c0,2,1.1,3.4,3.2,3.4s3.2-1.4,3.2-3.4s-1-3.4-3.2-3.4C-104.02,67.6-105.12,69-105.12,71z"/>
	<path class="st3" d="M-84.62,67.8v8.4h-2.1v-8.4h-3.1v-2h8.2v2H-84.62z"/>
	<path class="st3" d="M-71.92,76.2v-4.4h-5.1v4.4h-2.1V65.9h2.1v4h5.1v-4h2.1v10.3C-69.82,76.2-71.92,76.2-71.92,76.2z"/>
	<path class="st3" d="M-66.42,76.2V65.9h7.1v2h-5v2h3.8v2h-3.8v2.4h5.1v2h-7.2V76.2z"/>
	<path class="st4" d="M-50.32,62.7l0.5,0.3l-0.6,1.5l0.6,0.2v2.1h-2.1v-2.1L-50.32,62.7z M-46.52,62.7l0.5,0.3l-0.6,1.5l0.6,0.2v2.1
		h-2.1v-2.1L-46.52,62.7z"/>
	<path class="st4" d="M-37.32,76.2l-1-2.4h-3.6l-0.9,2.4h-2.1l3.9-10.3h1.9l3.9,10.3H-37.32z M-40.12,69.1l-1.1,2.7h2.2L-40.12,69.1
		z"/>
	<path class="st4" d="M-33.02,76.2V65.9h2.1v8.4h4.5v2h-6.6V76.2z"/>
	<path class="st4" d="M-24.12,76.2V65.9h7.1v2h-5v2h3.8v2h-3.8v2.4h5.1v2h-7.2C-24.12,76.3-24.12,76.2-24.12,76.2z"/>
	<path class="st4" d="M-7.72,76.2l-2.6-3.7l-2.6,3.7h-2.4l3.9-5.2l-3.7-5.2h2.4l2.5,3.5l2.3-3.5h2.4l-3.6,5l3.8,5.4
		C-5.32,76.2-7.72,76.2-7.72,76.2z"/>
	<path class="st4" d="M3.38,76.2l-1-2.4h-3.6l-0.9,2.4h-2.1l3.9-10.3h1.9l3.9,10.3H3.38z M0.58,69.1l-1.1,2.7h2.2L0.58,69.1z"/>
	<path class="st4" d="M16.88,67.8v8.4h-2.1v-8.4h-3.1v-2h8.2v2H16.88z"/>
	<path class="st4" d="M28.78,76.2l-2.3-3.8h-2v3.8h-2.1V65.9h4.1c2.1,0,3.8,0.7,3.8,3c0,1.7-0.8,2.4-1.9,3.1l2.5,4.3h-2.1V76.2z
		 M24.48,67.6v3h1.4c1.9,0,2.2-0.7,2.2-1.5c0-0.9-0.4-1.4-2.1-1.4h-1.5V67.6z"/>
	<path class="st4" d="M39.78,76.2l-1-2.4h-3.6l-0.9,2.4h-2.1l3.9-10.3h1.9l3.9,10.3H39.78z M37.08,69.1l-1.1,2.7h2.2L37.08,69.1z"/>
	<path class="st4" d="M46.28,67.8v2h3.6v2h-3.6v4.4h-2.1V65.9h6.8v2h-4.7V67.8z"/>
	<path class="st4" d="M55.58,67.8v2h3.6v2h-3.6v4.4h-2.1V65.9h6.8v2h-4.7V67.8z"/>
	<path class="st4" d="M62.78,76.2V65.9h2.1v10.3C64.88,76.2,62.78,76.2,62.78,76.2z"/>
	<path class="st4" d="M67.68,71c0-3.2,2.3-5.4,5.4-5.4c1.2,0,2.3,0.2,3.1,0.6l-0.2,1.9c-0.9-0.4-1.7-0.6-2.9-0.6
		c-2.1,0-3.2,1.4-3.2,3.4s1.1,3.4,3.2,3.4c1.2,0,2-0.2,2.9-0.6l0.2,1.9c-0.8,0.4-2,0.6-3.1,0.6C69.98,76.4,67.68,74.3,67.68,71z"/>
	<path class="st4" d="M90.18,76.2l-2.3-3.8h-2v3.8h-2.1V65.9h4.1c2.1,0,3.8,0.7,3.8,3c0,1.7-0.8,2.4-1.9,3.1l2.5,4.3h-2.1V76.2z
		 M85.98,67.6v3h1.4c1.9,0,2.2-0.7,2.2-1.5c0-0.9-0.4-1.4-2.1-1.4h-1.5V67.6z"/>
	<path class="st4" d="M101.28,76.2l-1-2.4h-3.6l-0.9,2.4h-2.1l3.9-10.3h1.9l3.9,10.3H101.28z M98.58,69.1l-1.1,2.7h2.2L98.58,69.1z"
		/>
	<path class="st4" d="M112.68,76.2l-5-6.8v6.8h-2.1V65.9h2l4.6,6.4v-6.4h2.1v10.3C114.28,76.2,112.68,76.2,112.68,76.2z"/>
	<path class="st4" d="M117.78,76.2V65.9h2.1v10.3C119.88,76.2,117.78,76.2,117.78,76.2z M124.08,76.2l-3.8-5.5l3.8-4.9h2.3l-3.8,4.9
		l3.8,5.5H124.08z"/>
	<path class="st4" d="M128.28,75.6l0.2-2.3c0.6,0.6,1.8,1.1,3.5,1.1c1.2,0,1.9-0.2,1.9-1c0-1-1.2-1.4-2.5-1.8
		c-1.5-0.5-3.2-1-3.2-2.9c0-1.4,1-3.1,4-3.1c1.5,0,2.9,0.5,3.5,0.8l-0.2,2.1c-1.2-0.6-2.2-0.9-3.2-0.9c-0.8,0-2,0.1-2,1
		c0,0.8,1,1.1,2.2,1.4c1.7,0.5,3.8,1.1,3.8,3.3c0,1.2-0.6,3.1-4.2,3.1C130.28,76.4,128.88,76,128.28,75.6z"/>
	<path class="st4" d="M138.78,66.8l-0.4-0.3l0.6-1.5l-0.6-0.2v-2.1h2.1v2.1L138.78,66.8z M142.58,66.8l-0.4-0.3l0.6-1.5l-0.6-0.2
		v-2.1h2.1v2.1L142.58,66.8z"/>
</g>
<g>
	<line class="st5" x1="-45.32" y1="80.5" x2="137.18" y2="80.5"/>
	<rect x="-45.32" y="80" class="st4" width="182.5" height="1"/>
</g>
</svg>
