<?xml version="1.0" encoding="utf-8"?>
<!-- Generator: Adobe Illustrator 19.0.0, SVG Export Plug-In . SVG Version: 6.00 Build 0)  -->
<svg version="1.1" id="Layer_1" xmlns="http://www.w3.org/2000/svg" xmlns:xlink="http://www.w3.org/1999/xlink" x="0px" y="0px"
	 viewBox="-382 252.34 174.01 42.03" style="enable-background:new -382 252.34 174.01 42.03;" xml:space="preserve">
<style type="text/css">
	.st0{fill:#27E0AD;}
</style>
<g>
	<path class="st0" d="M-362.99,261.21l0.21-1.87c0.54,0.48,1.6,0.96,3.03,0.96c1.06,0,1.84-0.26,1.84-1.01
		c0-0.93-1.07-1.25-2.29-1.62c-1.42-0.45-2.93-0.91-2.93-2.53c0-1.2,0.88-2.72,3.49-2.72c1.31,0,2.54,0.4,3.06,0.7l-0.16,1.68
		c-1.01-0.53-1.89-0.82-2.82-0.82c-0.8,0-1.86,0.19-1.86,0.98c0,0.74,0.91,1.02,1.99,1.31c1.54,0.43,3.38,0.96,3.38,2.96
		c0,1.02-0.48,2.62-3.75,2.62C-361.26,261.87-362.43,261.55-362.99,261.21z"/>
	<path class="st0" d="M-353.12,261.69v-9.08h6.1v1.58h-4.4v1.97h3.44v1.58h-3.44v2.35h4.54v1.58H-353.12z"/>
	<path class="st0" d="M-343.87,261.69v-9.08h1.65v7.49h4.08v1.58H-343.87z"/>
	<path class="st0" d="M-335.54,261.69v-9.08h6.1v1.58h-4.4v1.97h3.44v1.58h-3.44v2.35h4.54v1.58H-335.54z"/>
	<path class="st0" d="M-326.96,257.15c0-2.85,2.02-4.72,4.77-4.72c1.01,0,2.03,0.21,2.72,0.54l-0.18,1.55
		c-0.8-0.29-1.54-0.51-2.54-0.51c-1.95,0-2.95,1.33-2.95,3.14c0,1.82,0.99,3.15,2.96,3.15c0.99,0,1.73-0.22,2.53-0.51l0.18,1.55
		c-0.69,0.32-1.71,0.53-2.72,0.53C-324.94,261.87-326.96,260.01-326.96,257.15z"/>
	<path class="st0" d="M-312.96,254.2v7.49h-1.67v-7.49h-2.74v-1.58h7.15v1.58H-312.96z"/>
	<path class="st0" d="M-296.94,261.69l-0.85-2.21h-3.31l-0.85,2.21h-1.73l3.43-9.08h1.62l3.43,9.08H-296.94z M-299.46,255.2
		l-1.09,2.71h2.19L-299.46,255.2z"/>
	<path class="st0" d="M-284.03,257.66v4.03h-1.66v-4.03l-3.33-5.04h1.78l2.38,3.59l2.38-3.59h1.76L-284.03,257.66z"/>
	<path class="st0" d="M-278.34,261.69v-9.08h6.1v1.58h-4.4v1.97h3.44v1.58h-3.44v2.35h4.54v1.58H-278.34z"/>
	<path class="st0" d="M-263.41,261.69l-0.85-2.21h-3.31l-0.85,2.21h-1.73l3.43-9.08h1.62l3.43,9.08H-263.41z M-265.92,255.2
		l-1.09,2.71h2.19L-265.92,255.2z"/>
	<path class="st0" d="M-253.62,261.69l-2.03-3.38h-1.83v3.38h-1.68v-9.08h3.43c1.9,0,3.31,0.64,3.31,2.61
		c0,1.41-0.71,2.13-1.67,2.66l2.21,3.81H-253.62z M-257.47,253.98v2.79h1.46c1.41,0,1.87-0.58,1.87-1.41c0-0.86-0.42-1.38-1.9-1.38
		H-257.47z"/>
	<path class="st0" d="M-356.94,277.69l-0.85-2.21h-3.31l-0.85,2.21h-1.73l3.43-9.08h1.62l3.43,9.08H-356.94z M-359.45,271.2
		l-1.09,2.71h2.19L-359.45,271.2z"/>
	<path class="st0" d="M-346.48,277.69l-4.56-6.27v6.27h-1.65v-9.08h1.67l4.26,5.89v-5.89h1.66v9.08H-346.48z"/>
	<path class="st0" d="M-341.52,277.69v-9.08h3.6c2.77,0,4.75,1.68,4.75,4.53c0,2.87-1.98,4.55-4.75,4.55H-341.52z M-339.87,270.19
		v5.92h1.95c1.95,0,2.95-1.14,2.95-2.96s-0.99-2.96-2.95-2.96H-339.87z"/>
	<path class="st0" d="M-325.23,277.69v-9.08h1.65v9.08H-325.23z"/>
	<path class="st0" d="M-313.79,277.69l-4.56-6.27v6.27H-320v-9.08h1.67l4.26,5.89v-5.89h1.66v9.08H-313.79z"/>
	<path class="st0" d="M-305.31,270.2v7.49h-1.67v-7.49h-2.74v-1.58h7.15v1.58H-305.31z"/>
	<path class="st0" d="M-299.86,277.69v-9.08h6.1v1.58h-4.4v1.97h3.44v1.58h-3.44v2.35h4.54v1.58H-299.86z"/>
	<path class="st0" d="M-285.07,277.69l-2.03-3.38h-1.83v3.38h-1.68v-9.08h3.43c1.9,0,3.31,0.64,3.31,2.61
		c0,1.41-0.71,2.13-1.67,2.66l2.21,3.81H-285.07z M-288.93,269.98v2.79h1.46c1.41,0,1.87-0.58,1.87-1.41c0-0.86-0.42-1.38-1.9-1.38
		H-288.93z"/>
	<path class="st0" d="M-274.89,277.69l-0.85-2.21h-3.31l-0.85,2.21h-1.73l3.43-9.08h1.62l3.43,9.08H-274.89z M-277.41,271.2
		l-1.09,2.71h2.19L-277.41,271.2z"/>
	<path class="st0" d="M-271.31,273.15c0-2.85,2.02-4.72,4.77-4.72c1.01,0,2.03,0.21,2.72,0.54l-0.18,1.55
		c-0.8-0.29-1.54-0.51-2.54-0.51c-1.95,0-2.95,1.33-2.95,3.14c0,1.82,0.99,3.15,2.96,3.15c0.99,0,1.73-0.22,2.53-0.51l0.18,1.55
		c-0.69,0.32-1.71,0.53-2.72,0.53C-269.3,277.87-271.31,276.01-271.31,273.15z"/>
	<path class="st0" d="M-257.31,270.2v7.49h-1.67v-7.49h-2.74v-1.58h7.15v1.58H-257.31z"/>
	<path class="st0" d="M-237.68,277.69h-1.54l-2.16-6.11l-2.21,6.11h-1.6l-2.72-9.08h1.75l1.97,6.5l2.19-6.5h1.22l2.29,6.34
		l1.91-6.34h1.73L-237.68,277.69z"/>
	<path class="st0" d="M-232.26,277.69v-9.08h1.65v9.08H-232.26z"/>
	<path class="st0" d="M-223.5,270.2v7.49h-1.67v-7.49h-2.74v-1.58h7.15v1.58H-223.5z"/>
	<path class="st0" d="M-211.63,277.69v-3.94h-4.77v3.94h-1.65v-9.08h1.65v3.54h4.77v-3.54h1.65v9.08H-211.63z"/>
	<path class="st0" d="M-359.1,286.2v7.49h-1.67v-7.49h-2.74v-1.58h7.15v1.58H-359.1z"/>
	<path class="st0" d="M-347.23,293.69v-3.94H-352v3.94h-1.65v-9.08h1.65v3.54h4.77v-3.54h1.65v9.08H-347.23z"/>
	<path class="st0" d="M-342,293.69v-9.08h6.1v1.58h-4.4v1.97h3.44v1.58h-3.44v2.35h4.54v1.58H-342z"/>
	<path class="st0" d="M-323.47,293.69h-1.97l-3.52-9.08h1.73l2.77,6.91l2.72-6.91h1.73L-323.47,293.69z"/>
	<path class="st0" d="M-317.49,293.69v-9.08h1.65v9.08H-317.49z"/>
	<path class="st0" d="M-312.62,293.21l0.21-1.87c0.54,0.48,1.6,0.96,3.03,0.96c1.06,0,1.84-0.26,1.84-1.01
		c0-0.93-1.07-1.25-2.29-1.62c-1.42-0.45-2.93-0.91-2.93-2.53c0-1.2,0.88-2.72,3.49-2.72c1.31,0,2.54,0.4,3.06,0.7l-0.16,1.68
		c-1.01-0.53-1.89-0.82-2.82-0.82c-0.8,0-1.86,0.19-1.86,0.98c0,0.74,0.91,1.02,1.99,1.31c1.54,0.43,3.38,0.96,3.38,2.96
		c0,1.02-0.48,2.62-3.75,2.62C-310.9,293.87-312.06,293.55-312.62,293.21z"/>
	<path class="st0" d="M-302.85,289.8v-5.19h1.65v4.62c0,1.7,0.38,3.06,2.34,3.06c1.97,0,2.34-1.36,2.34-3.06v-4.62h1.67v5.19
		c0,2.46-1.28,4.07-4,4.07C-301.57,293.87-302.85,292.27-302.85,289.8z"/>
	<path class="st0" d="M-285.9,293.69l-0.85-2.21h-3.31l-0.85,2.21h-1.73l3.43-9.08h1.62l3.43,9.08H-285.9z M-288.42,287.2
		l-1.09,2.71h2.19L-288.42,287.2z"/>
	<path class="st0" d="M-281.65,293.69v-9.08h1.65v7.49h4.08v1.58H-281.65z"/>
	<path class="st0" d="M-273.31,293.69v-9.08h1.65v9.08H-273.31z"/>
	<path class="st0" d="M-266.27,292.11h3.99v1.58h-6.72l4.61-7.49h-3.99v-1.58h6.72L-266.27,292.11z"/>
	<path class="st0" d="M-253.34,293.69l-0.85-2.21h-3.31l-0.85,2.21h-1.73l3.43-9.08h1.62l3.43,9.08H-253.34z M-255.86,287.2
		l-1.09,2.71h2.19L-255.86,287.2z"/>
	<path class="st0" d="M-246.3,286.2v7.49h-1.67v-7.49h-2.74v-1.58h7.15v1.58H-246.3z"/>
	<path class="st0" d="M-240.85,293.69v-9.08h1.65v9.08H-240.85z"/>
	<path class="st0" d="M-236.16,289.15c0-2.85,2-4.72,4.75-4.72s4.75,1.87,4.75,4.72c0,2.87-2,4.72-4.75,4.72
		S-236.16,292.01-236.16,289.15z M-234.34,289.15c0,1.82,0.98,3.15,2.93,3.15s2.93-1.33,2.93-3.15c0-1.81-0.98-3.14-2.93-3.14
		S-234.34,287.34-234.34,289.15z"/>
	<path class="st0" d="M-217.41,293.69l-4.56-6.27v6.27h-1.65v-9.08h1.67l4.26,5.89v-5.89h1.66v9.08H-217.41z"/>
</g>
<polygon class="st0" points="-382,252.34 -379.98,262.01 -377.43,258.22 -373.68,262.44 -372.54,261.12 -376.29,257.07 
	-372.41,255.08 "/>
</svg>
