<?xml version="1.0" encoding="utf-8"?>
<!-- Generator: Adobe Illustrator 19.0.0, SVG Export Plug-In . SVG Version: 6.00 Build 0)  -->
<svg version="1.1" id="Layer_1" xmlns="http://www.w3.org/2000/svg" xmlns:xlink="http://www.w3.org/1999/xlink" x="0px" y="0px"
	 viewBox="-238 197.3 502.5 257.7" style="enable-background:new -238 197.3 502.5 257.7;" xml:space="preserve">
<style type="text/css">
	.st0{fill:none;stroke:#27E0AD;stroke-width:2;stroke-miterlimit:10;}
	.st1{fill:none;stroke:#FBF7F3;stroke-width:2;stroke-miterlimit:10;}
	.st2{fill:#455770;stroke:#FBF7F3;stroke-width:2;stroke-miterlimit:10;}
	.st3{fill:none;stroke:#27E0AD;stroke-miterlimit:10;}
	.st4{fill:none;}
	.st5{enable-background:new    ;}
	.st6{fill:#27E0AD;}
	.st7{fill:#FBF7F3;}
	.st8{fill:#455770;stroke:#FBF7F3;stroke-width:2;stroke-linecap:round;stroke-linejoin:round;stroke-miterlimit:10;}
</style>
<line class="st0" x1="-221.9" y1="239" x2="237.1" y2="239"/>
<g>
	<g>
		<polygon class="st1" points="-9.7,317.3 -25.7,322.5 -4.7,386.7 -1.6,368.5 11.6,381.8 		"/>
		<polygon class="st2" points="-23.3,316.9 -7.2,321.9 -27.2,386.5 -30.6,368.2 -43.6,381.8 		"/>
		<polygon class="st2" points="-16,282.6 -10.6,286 -4.2,285.1 -0.7,290.5 5.5,292.1 6.6,298.5 11.5,302.5 9.9,308.8 12.8,314.5 
			8.8,319.5 9.1,325.9 3.4,328.9 1,334.8 -5.4,335.2 -9.9,339.7 -16,337.5 -22,339.7 -26.5,335.2 -32.9,334.8 -35.3,328.9 
			-41,325.9 -40.7,319.5 -44.7,314.5 -41.8,308.8 -43.4,302.5 -38.5,298.5 -37.4,292.1 -31.2,290.5 -27.7,285.1 -21.4,286 		"/>
		<circle class="st2" cx="-15.9" cy="311.2" r="17.1"/>
	</g>
	<polyline class="st3" points="-44.3,338.3 -45.8,335 -49.1,333.4 -49,329.7 -51.3,326.9 	"/>
	<polyline class="st3" points="23.3,305.2 22.7,309.1 24.8,312.4 22.7,315.8 23.4,319.6 20.1,321.8 19.1,325.6 	"/>
	<polyline class="st3" points="-8.5,271 -5.5,272.5 -2.2,271.7 -0.1,274.3 3.2,274.9 4.1,278.1 6.9,280 	"/>
	<polyline class="st3" points="-52.6,297.2 -50.2,293.3 -51,288.7 -47.2,286 -46.1,281.5 -41.6,280.6 -38.7,277 	"/>
</g>
<g>
	<rect x="-71.9" y="426" class="st4" width="116" height="17"/>
</g>
<g class="st5">
	<path class="st6" d="M-68.3,431.6c0-3.1,2-5.1,4.9-5.1c1,0,2.2,0.2,2.9,0.6l-0.2,1.7c-0.8-0.3-1.8-0.6-2.7-0.6c-2,0-3,1.4-3,3.3
		c0,2,1,3.4,3.1,3.4c0.4,0,0.9-0.1,1.3-0.2V433H-63v-1.5h2.9v4.4c-0.7,0.4-2.2,0.7-3.4,0.7C-66.3,436.7-68.3,434.7-68.3,431.6z"/>
	<path class="st6" d="M-51.7,436.5l-0.8-2.4h-3.3l-0.8,2.4h-1.9l3.5-9.8h1.7l3.5,9.8H-51.7z M-54.1,429.5l-1,2.9h2L-54.1,429.5z"/>
	<path class="st6" d="M-39.6,436.5l-0.8-6.6l-2.5,4.5l-2.5-4.5l-0.8,6.6h-1.9l1.4-9.8h1.5l2.4,4.5l2.4-4.5h1.5l1.4,9.8H-39.6z"/>
	<path class="st6" d="M-35.1,436.5v-9.8h1.8v9.8H-35.1z"/>
	<path class="st6" d="M-28.4,428.4v2.1h3.3v1.7h-3.3v4.2h-1.8v-9.8h6v1.7H-28.4z"/>
	<path class="st6" d="M-21.8,436.5v-9.8h1.8v9.8H-21.8z"/>
	<path class="st6" d="M-17.5,431.6c0-3.1,2-5.1,4.8-5.1c1,0,2.1,0.2,2.8,0.6l-0.2,1.7c-0.8-0.3-1.6-0.6-2.6-0.6
		c-1.9,0-2.9,1.4-2.9,3.4s1,3.4,2.9,3.4c1,0,1.8-0.2,2.6-0.6l0.2,1.7c-0.7,0.3-1.8,0.6-2.8,0.6C-15.4,436.7-17.5,434.7-17.5,431.6z"
		/>
	<path class="st6" d="M-1.6,436.5l-0.8-2.4h-3.3l-0.8,2.4h-1.9l3.5-9.8h1.7l3.5,9.8H-1.6z M-4.1,429.5l-1,2.9h2L-4.1,429.5z"/>
	<path class="st6" d="M5.4,428.4v8.1H3.6v-8.1H0.8v-1.7h7.3v1.7H5.4z"/>
	<path class="st6" d="M10.4,436.5v-9.8h1.8v9.8H10.4z"/>
	<path class="st6" d="M14.8,431.6c0-3.1,2-5.1,4.8-5.1s4.8,2,4.8,5.1c0,3.1-2,5.1-4.8,5.1S14.8,434.7,14.8,431.6z M16.7,431.6
		c0,2,1,3.4,2.9,3.4s2.9-1.4,2.9-3.4s-1-3.4-2.9-3.4S16.7,429.6,16.7,431.6z"/>
	<path class="st6" d="M33.3,436.5l-4.5-6.7v6.7H27v-9.8h1.8l4.2,6.3v-6.3h1.8v9.8H33.3z"/>
</g>
<g>
	<rect x="-221.6" y="426" class="st4" width="93.2" height="17"/>
</g>
<g class="st5">
	<path class="st6" d="M-215.8,428.4v2.1h3.3v1.7h-3.3v4.2h-1.8v-9.8h6v1.7H-215.8z"/>
	<path class="st6" d="M-209.2,436.5v-9.8h6.3v1.7h-4.4v2.1h3.4v1.7h-3.4v2.5h4.6v1.7H-209.2z"/>
	<path class="st6" d="M-200.3,436.5v-9.8h6.3v1.7h-4.4v2.1h3.4v1.7h-3.4v2.5h4.6v1.7H-200.3z"/>
	<path class="st6" d="M-191.3,436.5v-9.8h3.7c2.8,0,4.8,1.8,4.8,4.9c0,3.1-2,4.9-4.8,4.9H-191.3z M-189.5,428.4v6.4h1.9
		c1.9,0,2.9-1.2,2.9-3.2s-1-3.2-2.9-3.2H-189.5z"/>
	<path class="st6" d="M-180.3,436.5v-9.8h2.6c2.3,0,3.8,0.4,3.8,2.5c0,0.9-0.3,1.6-0.8,2c1.1,0.4,1.7,1.1,1.7,2.4
		c0,2.3-1.9,2.9-3.5,2.9H-180.3z M-178.5,428.2v2.4h1.8c0.5,0,1.2-0.2,1.2-1.1c0-1-0.5-1.3-1.4-1.3H-178.5z M-178.5,432v2.9h1.8
		c1.1,0,1.9-0.4,1.9-1.5c0-1.1-0.8-1.5-1.8-1.5H-178.5z"/>
	<path class="st6" d="M-164.7,436.5l-0.8-2.4h-3.3l-0.8,2.4h-1.9l3.5-9.8h1.7l3.5,9.8H-164.7z M-167.2,429.5l-1,2.9h2L-167.2,429.5z
		"/>
	<path class="st6" d="M-161.5,431.6c0-3.1,2-5.1,4.8-5.1c1,0,2.1,0.2,2.8,0.6l-0.2,1.7c-0.8-0.3-1.6-0.6-2.6-0.6
		c-1.9,0-2.9,1.4-2.9,3.4s1,3.4,2.9,3.4c1,0,1.8-0.2,2.6-0.6l0.2,1.7c-0.7,0.3-1.8,0.6-2.8,0.6
		C-159.5,436.7-161.5,434.7-161.5,431.6z"/>
	<path class="st6" d="M-151.4,436.5v-9.8h1.8v9.8H-151.4z M-145.8,436.5l-3.4-5.2l3.4-4.6h2l-3.4,4.6l3.4,5.2H-145.8z"/>
	<path class="st6" d="M-142.2,436l0.2-2c0.5,0.5,1.6,1,3.1,1c1.1,0,1.8-0.3,1.8-1.1c0-1-1.1-1.3-2.3-1.8c-1.4-0.5-2.9-1-2.9-2.7
		c0-1.3,0.9-2.9,3.5-2.9c1.3,0,2.6,0.4,3.1,0.8l-0.2,1.8c-1.1-0.6-1.9-0.9-2.9-0.9c-0.8,0-1.8,0.2-1.8,1c0,0.8,0.9,1.1,2,1.4
		c1.5,0.5,3.4,1,3.4,3.2c0,1.1-0.5,2.9-3.8,2.9C-140.4,436.7-141.6,436.3-142.2,436z"/>
</g>
<g>
	<polygon class="st1" points="-172.8,284.4 -163,314.4 -131.6,314.4 -157,332.9 -147.3,362.8 -172.8,344.3 -198.2,362.8 
		-188.5,332.9 -214,314.4 -182.5,314.4 	"/>
	<g>
		<line class="st3" x1="-216" y1="347.8" x2="-218.7" y2="345.3"/>
		<line class="st3" x1="-214.9" y1="347.8" x2="-212.2" y2="345.3"/>
		<line class="st3" x1="-216" y1="349.2" x2="-218.7" y2="351.7"/>
		<line class="st3" x1="-215" y1="349.2" x2="-212.4" y2="351.7"/>
	</g>
	<g>
		<line class="st3" x1="-198.6" y1="298.8" x2="-201.3" y2="296.3"/>
		<line class="st3" x1="-197.5" y1="298.8" x2="-194.8" y2="296.3"/>
		<line class="st3" x1="-198.6" y1="300.2" x2="-201.3" y2="302.7"/>
		<line class="st3" x1="-197.6" y1="300.2" x2="-194.9" y2="302.7"/>
	</g>
	<g>
		<line class="st3" x1="-156.6" y1="285.3" x2="-159.3" y2="282.7"/>
		<line class="st3" x1="-155.5" y1="285.3" x2="-152.8" y2="282.7"/>
		<line class="st3" x1="-156.6" y1="286.6" x2="-159.3" y2="289.1"/>
		<line class="st3" x1="-155.6" y1="286.6" x2="-152.9" y2="289.1"/>
	</g>
	<g>
		<line class="st3" x1="-139.3" y1="333.4" x2="-142" y2="330.9"/>
		<line class="st3" x1="-138.2" y1="333.4" x2="-135.5" y2="330.9"/>
		<line class="st3" x1="-139.3" y1="334.8" x2="-142" y2="337.3"/>
		<line class="st3" x1="-138.3" y1="334.8" x2="-135.6" y2="337.3"/>
	</g>
	<g>
		<line class="st3" x1="-135" y1="351.3" x2="-137.7" y2="348.8"/>
		<line class="st3" x1="-133.9" y1="351.3" x2="-131.2" y2="348.8"/>
		<line class="st3" x1="-135" y1="352.7" x2="-137.7" y2="355.2"/>
		<line class="st3" x1="-134" y1="352.7" x2="-131.3" y2="355.2"/>
	</g>
	<g>
		<line class="st3" x1="-173.9" y1="371.1" x2="-176.6" y2="368.6"/>
		<line class="st3" x1="-172.8" y1="371.1" x2="-170.1" y2="368.6"/>
		<line class="st3" x1="-173.9" y1="372.4" x2="-176.6" y2="375"/>
		<line class="st3" x1="-172.9" y1="372.4" x2="-170.2" y2="375"/>
	</g>
</g>
<g>
	<rect x="100.6" y="426" class="st4" width="137.7" height="15.3"/>
</g>
<g class="st5">
	<path class="st6" d="M104.2,436l0.2-2c0.5,0.5,1.6,1,3.1,1c1,0,1.8-0.3,1.8-1.1c0-1-1.1-1.3-2.3-1.8c-1.4-0.5-2.9-1-2.9-2.7
		c0-1.3,0.9-2.9,3.5-2.9c1.3,0,2.6,0.4,3.1,0.8l-0.2,1.8c-1-0.6-1.9-0.9-2.9-0.9c-0.8,0-1.8,0.2-1.8,1c0,0.8,0.9,1.1,2,1.4
		c1.5,0.5,3.4,1,3.4,3.2c0,1.1-0.5,2.9-3.8,2.9C106,436.7,104.8,436.3,104.2,436z"/>
	<path class="st6" d="M113.1,431.6c0-3.1,2-5.1,4.8-5.1c2.8,0,4.8,2,4.8,5.1c0,3.1-2,5.1-4.8,5.1
		C115.2,436.7,113.1,434.7,113.1,431.6z M115.1,431.6c0,2,1,3.4,2.9,3.4c1.9,0,2.9-1.4,2.9-3.4s-1-3.4-2.9-3.4
		C116.1,428.2,115.1,429.6,115.1,431.6z"/>
	<path class="st6" d="M124.8,431.6c0-3.1,2-5.1,4.8-5.1c1,0,2.1,0.2,2.8,0.6l-0.2,1.7c-0.8-0.3-1.6-0.6-2.6-0.6
		c-1.9,0-2.9,1.4-2.9,3.4s1,3.4,2.9,3.4c1,0,1.8-0.2,2.6-0.6l0.2,1.7c-0.7,0.3-1.8,0.6-2.8,0.6C126.8,436.7,124.8,434.7,124.8,431.6
		z"/>
	<path class="st6" d="M134.9,436.5v-9.8h1.8v9.8H134.9z"/>
	<path class="st6" d="M145.6,436.5l-0.8-2.4h-3.3l-0.8,2.4h-1.9l3.5-9.8h1.7l3.5,9.8H145.6z M143.1,429.5l-1,2.9h2L143.1,429.5z"/>
	<path class="st6" d="M149.6,436.5v-9.8h1.8v8.1h4v1.7H149.6z"/>
	<path class="st6" d="M163.5,433.3v3.2h-1.8v-9.8h2.8c2.7,0,4.2,0.4,4.2,3.1c0,2.8-2,3.5-3.4,3.5H163.5z M163.5,428.2v3.4h1.5
		c1.3,0,1.8-0.4,1.8-1.8c0-1.1-0.4-1.6-1.9-1.6H163.5z"/>
	<path class="st6" d="M176.7,436.5l-2-3.6h-1.8v3.6H171v-9.8h3.6c1.9,0,3.4,0.7,3.4,2.8c0,1.5-0.7,2.3-1.7,2.9l2.2,4.1H176.7z
		 M172.8,428.2v3h1.3c1.6,0,2-0.6,2-1.5c0-0.9-0.4-1.5-1.9-1.5H172.8z"/>
	<path class="st6" d="M180.2,431.6c0-3.1,2-5.1,4.8-5.1s4.8,2,4.8,5.1c0,3.1-2,5.1-4.8,5.1S180.2,434.7,180.2,431.6z M182.2,431.6
		c0,2,1,3.4,2.9,3.4s2.9-1.4,2.9-3.4s-1-3.4-2.9-3.4S182.2,429.6,182.2,431.6z"/>
	<path class="st6" d="M194.2,428.4v2.1h3.3v1.7h-3.3v4.2h-1.8v-9.8h6v1.7H194.2z"/>
	<path class="st6" d="M200.8,436.5v-9.8h1.8v9.8H200.8z"/>
	<path class="st6" d="M205.7,436.5v-9.8h1.8v8.1h4v1.7H205.7z"/>
	<path class="st6" d="M213.7,436.5v-9.8h6.3v1.7h-4.4v2.1h3.4v1.7h-3.4v2.5h4.6v1.7H213.7z"/>
	<path class="st6" d="M222.3,436l0.2-2c0.5,0.5,1.6,1,3.1,1c1,0,1.8-0.3,1.8-1.1c0-1-1.1-1.3-2.3-1.8c-1.4-0.5-2.9-1-2.9-2.7
		c0-1.3,0.9-2.9,3.5-2.9c1.3,0,2.6,0.4,3.1,0.8l-0.2,1.8c-1-0.6-1.9-0.9-2.9-0.9c-0.8,0-1.8,0.2-1.8,1c0,0.8,0.9,1.1,2,1.4
		c1.5,0.5,3.4,1,3.4,3.2c0,1.1-0.5,2.9-3.8,2.9C224,436.7,222.8,436.3,222.3,436z"/>
</g>
<g>
	<path class="st4" d="M191.5,357.4h-0.2h-33.9c-2.5,0.1-4.5,2.2-4.5,4.7V379c6.5,3.3,13.8,5.2,21.5,5.2c7.8,0,15.1-1.9,21.6-5.2
		v-16.9C196,359.6,194,357.5,191.5,357.4z"/>
	<path class="st4" d="M174.3,348.8c6.5,0,11.8-5.3,11.8-11.8c0-6.5-5.3-11.8-11.8-11.8c-6.5,0-11.8,5.3-11.8,11.8
		S167.8,348.8,174.3,348.8z"/>
	<path class="st7" d="M152.9,362.1c0-2.5,2-4.6,4.5-4.7h33.9h0.2c2.5,0.1,4.5,2.2,4.5,4.7v17.4c0.5-0.2,0.9-0.5,1.4-0.7v-17.1h0
		c-0.2-3.1-2.9-5.6-6.1-5.6h-33.6c-3.2,0-5.8,2.5-6.1,5.6l0,17.4c0.5,0.2,0.9,0.5,1.4,0.7L152.9,362.1L152.9,362.1z"/>
	<circle class="st1" cx="174.2" cy="339.4" r="46"/>
	<path class="st1" d="M174.8,342.2c0,0-1.7-0.1-25.7-0.1c0.3-6.4,5.6-21.2,14-23.3c5.7-1.4,10,1.7,10,1.7s3.1-3.4,7.2-3.4
		c9.8,0,16.2,10.9,18,25.2C181.4,342.2,174.8,342.2,174.8,342.2z"/>
	<circle class="st8" cx="174.2" cy="339.4" r="12.1"/>
	<circle class="st7" cx="158.6" cy="362.6" r="1.4"/>
	<circle class="st7" cx="168.9" cy="362.6" r="1.4"/>
	<circle class="st7" cx="179.2" cy="362.6" r="1.4"/>
	<circle class="st7" cx="189.5" cy="362.6" r="1.4"/>
	<circle class="st7" cx="158.6" cy="369.5" r="1.4"/>
	<circle class="st7" cx="168.9" cy="369.5" r="1.4"/>
	<circle class="st7" cx="179.2" cy="369.5" r="1.4"/>
	<circle class="st6" cx="215.2" cy="375.3" r="1.4"/>
	<circle class="st6" cx="233.7" cy="338.9" r="1.4"/>
	<circle class="st6" cx="232.5" cy="305.5" r="1.4"/>
	<circle class="st6" cx="233.7" cy="323.4" r="1.4"/>
	<circle class="st6" cx="231.2" cy="358" r="1.4"/>
	<circle class="st6" cx="213.9" cy="295" r="1.4"/>
	<circle class="st6" cx="223.8" cy="312.2" r="1.4"/>
	<circle class="st6" cx="194.2" cy="287.2" r="1.4"/>
	<circle class="st6" cx="163.1" cy="285.8" r="1.4"/>
	<circle class="st6" cx="171.5" cy="273.3" r="1.4"/>
	<circle class="st6" cx="149.1" cy="279" r="1.4"/>
	<circle class="st6" cx="140.9" cy="295.5" r="1.4"/>
	<circle class="st6" cx="179.4" cy="284.5" r="1.4"/>
	<circle class="st6" cx="115.7" cy="306.8" r="1.4"/>
	<circle class="st6" cx="129.3" cy="291.3" r="1.4"/>
	<circle class="st6" cx="110.8" cy="346.9" r="1.4"/>
	<circle class="st6" cx="120.7" cy="327.1" r="1.4"/>
	<circle class="st6" cx="120.7" cy="359.9" r="1.4"/>
	<circle class="st6" cx="109.4" cy="365.3" r="1.4"/>
	<circle class="st6" cx="109.4" cy="329.7" r="1.4"/>
	<circle class="st6" cx="120.1" cy="372.8" r="1.4"/>
	<circle class="st6" cx="138" cy="384.4" r="1.4"/>
	<circle class="st7" cx="189.5" cy="369.5" r="1.4"/>
	<circle class="st7" cx="158.6" cy="376.4" r="1.4"/>
	<circle class="st7" cx="168.9" cy="376.4" r="1.4"/>
	<circle class="st7" cx="179.2" cy="376.4" r="1.4"/>
	<circle class="st7" cx="189.5" cy="376.4" r="1.4"/>
	<circle class="st7" cx="168.9" cy="383.3" r="1.4"/>
	<circle class="st7" cx="179.2" cy="383.3" r="1.4"/>
</g>
<g class="st5">
	<path class="st7" d="M-216.9,222.1v8.1h-1.9v-8.1h-2.9v-1.7h7.7v1.7H-216.9z"/>
	<path class="st7" d="M-204.9,230.2V226h-4.9v4.2h-1.9v-9.8h1.9v3.8h4.9v-3.8h1.9v9.8H-204.9z"/>
	<path class="st7" d="M-199.7,230.2v-9.8h6.6v1.7h-4.7v2.1h3.6v1.7h-3.6v2.5h4.8v1.7H-199.7z"/>
	<path class="st7" d="M-177.4,230.2l-0.9-6.6l-2.6,4.5l-2.6-4.5l-0.9,6.6h-2l1.4-9.8h1.5l2.5,4.5l2.5-4.5h1.5l1.4,9.8H-177.4z"/>
	<path class="st7" d="M-166.6,230.2l-0.9-2.4h-3.4l-0.9,2.4h-2l3.7-9.8h1.8l3.7,9.8H-166.6z M-169.2,223.2l-1.1,2.9h2.1
		L-169.2,223.2z"/>
	<path class="st7" d="M-162.4,230.2v-9.8h1.9v9.8H-162.4z"/>
	<path class="st7" d="M-150.6,230.2l-4.7-6.7v6.7h-1.9v-9.8h1.9l4.4,6.3v-6.3h1.9v9.8H-150.6z"/>
	<path class="st7" d="M-141.8,229.7l0.2-2c0.6,0.5,1.7,1,3.2,1c1.1,0,1.8-0.3,1.8-1.1c0-1-1.1-1.3-2.4-1.8c-1.5-0.5-3-1-3-2.7
		c0-1.3,0.9-2.9,3.7-2.9c1.4,0,2.8,0.4,3.3,0.8l-0.2,1.8c-1.1-0.6-2-0.9-3-0.9c-0.8,0-1.9,0.2-1.9,1c0,0.8,1,1.1,2.1,1.4
		c1.6,0.5,3.6,1,3.6,3.2c0,1.1-0.5,2.9-4,2.9C-139.9,230.4-141.2,230.1-141.8,229.7z"/>
	<path class="st7" d="M-127.6,225.9v4.3h-1.9v-4.3l-3.6-5.5h2l2.5,3.9l2.5-3.9h2L-127.6,225.9z"/>
	<path class="st7" d="M-122.4,229.7l0.2-2c0.6,0.5,1.7,1,3.2,1c1.1,0,1.8-0.3,1.8-1.1c0-1-1.1-1.3-2.4-1.8c-1.5-0.5-3-1-3-2.7
		c0-1.3,0.9-2.9,3.7-2.9c1.4,0,2.8,0.4,3.3,0.8l-0.2,1.8c-1.1-0.6-2-0.9-3-0.9c-0.8,0-1.9,0.2-1.9,1c0,0.8,1,1.1,2.1,1.4
		c1.6,0.5,3.6,1,3.6,3.2c0,1.1-0.5,2.9-4,2.9C-120.6,230.4-121.9,230.1-122.4,229.7z"/>
	<path class="st7" d="M-108.6,222.1v8.1h-1.9v-8.1h-2.9v-1.7h7.7v1.7H-108.6z"/>
	<path class="st7" d="M-103.2,230.2v-9.8h6.6v1.7h-4.7v2.1h3.6v1.7h-3.6v2.5h4.8v1.7H-103.2z"/>
	<path class="st7" d="M-85.3,230.2l-0.9-6.6l-2.6,4.5l-2.6-4.5l-0.9,6.6h-2l1.4-9.8h1.5l2.5,4.5l2.5-4.5h1.5l1.4,9.8H-85.3z"/>
	<path class="st7" d="M-81,229.7l0.2-2c0.6,0.5,1.7,1,3.2,1c1.1,0,1.8-0.3,1.8-1.1c0-1-1.1-1.3-2.4-1.8c-1.5-0.5-3-1-3-2.7
		c0-1.3,0.9-2.9,3.7-2.9c1.4,0,2.8,0.4,3.3,0.8l-0.2,1.8c-1.1-0.6-2-0.9-3-0.9c-0.8,0-1.9,0.2-1.9,1c0,0.8,1,1.1,2.1,1.4
		c1.6,0.5,3.6,1,3.6,3.2c0,1.1-0.5,2.9-4,2.9C-79.1,230.4-80.4,230.1-81,229.7z"/>
	<path class="st7" d="M-62.7,222.1v8.1h-1.9v-8.1h-2.9v-1.7h7.7v1.7H-62.7z"/>
	<path class="st7" d="M-58.2,225.3c0-3.1,2.1-5.1,5.1-5.1c2.9,0,5.1,2,5.1,5.1c0,3.1-2.1,5.1-5.1,5.1
		C-56.1,230.4-58.2,228.4-58.2,225.3z M-56.1,225.3c0,2,1,3.4,3,3.4c2,0,3-1.4,3-3.4c0-2-1-3.4-3-3.4
		C-55.1,221.9-56.1,223.3-56.1,225.3z"/>
	<path class="st7" d="M-41.6,225.3c0-3.1,2.1-5.1,5.1-5.1c1.1,0,2.2,0.2,2.9,0.6l-0.2,1.7c-0.9-0.3-1.6-0.6-2.7-0.6
		c-2,0-3,1.4-3,3.4c0,2,1,3.4,3,3.4c1.1,0,1.9-0.2,2.7-0.6l0.2,1.7c-0.8,0.4-1.9,0.6-2.9,0.6C-39.5,230.4-41.6,228.4-41.6,225.3z"/>
	<path class="st7" d="M-25.1,230.2l-2.1-3.6h-1.9v3.6H-31v-9.8h3.8c2,0,3.5,0.7,3.5,2.8c0,1.5-0.8,2.3-1.8,2.9l2.3,4.1H-25.1z
		 M-29.1,221.9v3h1.4c1.7,0,2.1-0.6,2.1-1.5c0-0.9-0.4-1.5-2-1.5H-29.1z"/>
	<path class="st7" d="M-20.7,230.2v-9.8h6.6v1.7h-4.7v2.1h3.6v1.7h-3.6v2.5h4.8v1.7H-20.7z"/>
	<path class="st7" d="M-5.3,230.2l-0.9-2.4h-3.4l-0.9,2.4h-2l3.7-9.8H-7l3.7,9.8H-5.3z M-7.9,223.2l-1.1,2.9h2.1L-7.9,223.2z"/>
	<path class="st7" d="M2,222.1v8.1H0.1v-8.1h-2.9v-1.7h7.7v1.7H2z"/>
	<path class="st7" d="M7.3,230.2v-9.8h6.6v1.7H9.3v2.1h3.6v1.7H9.3v2.5h4.8v1.7H7.3z"/>
	<path class="st7" d="M25,222.1v8.1h-1.9v-8.1h-2.9v-1.7h7.7v1.7H25z"/>
	<path class="st7" d="M36.2,230.2l-2.1-3.6h-1.9v3.6h-1.9v-9.8H34c2,0,3.5,0.7,3.5,2.8c0,1.5-0.8,2.3-1.8,2.9l2.3,4.1H36.2z
		 M32.2,221.9v3h1.4c1.7,0,2.1-0.6,2.1-1.5c0-0.9-0.4-1.5-2-1.5H32.2z"/>
	<path class="st7" d="M40.4,226v-5.6h1.9v5c0,1.8,0.4,3.3,2.4,3.3c2,0,2.4-1.5,2.4-3.3v-5H49v5.6c0,2.7-1.4,4.4-4.3,4.4
		C41.8,230.4,40.4,228.7,40.4,226z"/>
	<path class="st7" d="M51.7,229.7l0.2-2c0.6,0.5,1.7,1,3.2,1c1.1,0,1.8-0.3,1.8-1.1c0-1-1.1-1.3-2.4-1.8c-1.5-0.5-3-1-3-2.7
		c0-1.3,0.9-2.9,3.7-2.9c1.4,0,2.8,0.4,3.3,0.8l-0.2,1.8c-1.1-0.6-2-0.9-3-0.9c-0.8,0-1.9,0.2-1.9,1c0,0.8,1,1.1,2.1,1.4
		c1.6,0.5,3.6,1,3.6,3.2c0,1.1-0.5,2.9-4,2.9C53.6,230.4,52.3,230.1,51.7,229.7z"/>
	<path class="st7" d="M65.6,222.1v8.1h-1.9v-8.1h-2.9v-1.7h7.7v1.7H65.6z"/>
	<path class="st7" d="M75.3,230.2v-9.8h2.8c2.4,0,3.9,0.4,3.9,2.5c0,0.9-0.3,1.6-0.9,2c1.2,0.4,1.8,1.1,1.8,2.4c0,2.3-2,2.9-3.7,2.9
		H75.3z M77.2,221.9v2.4H79c0.5,0,1.2-0.2,1.2-1.1c0-1-0.6-1.3-1.4-1.3H77.2z M77.2,225.8v2.9H79c1.2,0,2-0.4,2-1.5
		c0-1.1-0.8-1.5-1.9-1.5H77.2z"/>
	<path class="st7" d="M85.5,230.2v-9.8h6.6v1.7h-4.7v2.1h3.6v1.7h-3.6v2.5h4.8v1.7H85.5z"/>
	<path class="st7" d="M98.8,222.1v8.1h-1.9v-8.1H94v-1.7h7.7v1.7H98.8z"/>
	<path class="st7" d="M114.1,230.2h-1.7l-2.3-6.5l-2.3,6.5h-1.8l-2.9-9.8h2l2.1,7l2.3-7h1.3l2.4,6.8l2-6.8h2L114.1,230.2z"/>
	<path class="st7" d="M119.4,230.2v-9.8h6.6v1.7h-4.7v2.1h3.6v1.7h-3.6v2.5h4.8v1.7H119.4z"/>
	<path class="st7" d="M128.8,230.2v-9.8h6.6v1.7h-4.7v2.1h3.6v1.7h-3.6v2.5h4.8v1.7H128.8z"/>
	<path class="st7" d="M144.8,230.2l-4.7-6.7v6.7h-1.9v-9.8h1.9l4.4,6.3v-6.3h1.9v9.8H144.8z"/>
	<path class="st7" d="M153.9,226v-5.6h1.9v5c0,1.8,0.4,3.3,2.4,3.3c2,0,2.4-1.5,2.4-3.3v-5h1.9v5.6c0,2.7-1.4,4.4-4.3,4.4
		C155.2,230.4,153.9,228.7,153.9,226z"/>
	<path class="st7" d="M165.2,229.7l0.2-2c0.6,0.5,1.7,1,3.2,1c1.1,0,1.8-0.3,1.8-1.1c0-1-1.1-1.3-2.4-1.8c-1.5-0.5-3-1-3-2.7
		c0-1.3,0.9-2.9,3.7-2.9c1.4,0,2.8,0.4,3.3,0.8l-0.2,1.8c-1.1-0.6-2-0.9-3-0.9c-0.8,0-1.9,0.2-1.9,1c0,0.8,1,1.1,2.1,1.4
		c1.6,0.5,3.6,1,3.6,3.2c0,1.1-0.5,2.9-4,2.9C167,230.4,165.7,230.1,165.2,229.7z"/>
	<path class="st7" d="M175.2,230.2v-9.8h6.6v1.7h-4.7v2.1h3.6v1.7h-3.6v2.5h4.8v1.7H175.2z"/>
	<path class="st7" d="M190.5,230.2l-2.1-3.6h-1.9v3.6h-1.9v-9.8h3.8c2,0,3.5,0.7,3.5,2.8c0,1.5-0.8,2.3-1.8,2.9l2.3,4.1H190.5z
		 M186.5,221.9v3h1.4c1.7,0,2.1-0.6,2.1-1.5c0-0.9-0.4-1.5-2-1.5H186.5z"/>
	<path class="st7" d="M194.4,229.7l0.2-2c0.6,0.5,1.7,1,3.2,1c1.1,0,1.8-0.3,1.8-1.1c0-1-1.1-1.3-2.4-1.8c-1.5-0.5-3-1-3-2.7
		c0-1.3,0.9-2.9,3.7-2.9c1.4,0,2.8,0.4,3.3,0.8l-0.2,1.8c-1.1-0.6-2-0.9-3-0.9c-0.8,0-1.9,0.2-1.9,1c0,0.8,1,1.1,2.1,1.4
		c1.6,0.5,3.6,1,3.6,3.2c0,1.1-0.5,2.9-4,2.9C196.3,230.4,195,230.1,194.4,229.7z"/>
	<path class="st7" d="M214.8,230.2l-0.9-2.4h-3.4l-0.9,2.4h-2l3.7-9.8h1.8l3.7,9.8H214.8z M212.2,223.2l-1.1,2.9h2.1L212.2,223.2z"
		/>
	<path class="st7" d="M224.9,230.2l-2.1-3.6h-1.9v3.6H219v-9.8h3.8c2,0,3.5,0.7,3.5,2.8c0,1.5-0.8,2.3-1.8,2.9l2.3,4.1H224.9z
		 M220.9,221.9v3h1.4c1.7,0,2.1-0.6,2.1-1.5c0-0.9-0.4-1.5-2-1.5H220.9z"/>
	<path class="st7" d="M229.3,230.2v-9.8h6.6v1.7h-4.7v2.1h3.6v1.7h-3.6v2.5h4.8v1.7H229.3z"/>
</g>
</svg>
