<?xml version="1.0" encoding="utf-8"?>
<!-- Generator: Adobe Illustrator 18.1.1, SVG Export Plug-In . SVG Version: 6.00 Build 0)  -->
<svg version="1.0" id="Layer_1" xmlns="http://www.w3.org/2000/svg" xmlns:xlink="http://www.w3.org/1999/xlink" x="0px" y="0px"
	 viewBox="0 0 233.12 117" enable-background="new 0 0 233.12 117" xml:space="preserve">
<g>
	<path fill="#27E0AD" d="M16.09,35.56h4.38c0,5.58,0.6,9.78,5.04,9.78c3.48,0,5.22-2.16,5.22-5.64c0-3.18-3.18-6.18-5.7-8.28
		l0.06,0.06c-4.02-2.88-8.64-7.56-8.64-13.08c0-5.58,3.54-9.9,9.36-9.9c8.1,0,8.94,6.06,8.94,13.62h-4.38c0-4.68-0.3-9.24-4.56-9.24
		c-3.3,0-4.98,2.64-4.98,5.82c0,3.3,3.24,6.06,6.48,8.94v-0.06c3.9,3.48,7.8,7.08,7.8,12.06c0,6.36-3.12,10.08-9.6,10.08
		C18.01,49.72,16.09,44.8,16.09,35.56z M33.49,39.64c0-8.76-14.34-12.78-14.34-20.94c0-4.08,2.28-7.5,6.66-7.5
		c5.82,0,6.18,5.16,6.24,9.3h1.02c0-6.24-1.26-10.38-7.26-10.38c-4.8,0-7.68,3.66-7.68,8.28c0,4.86,4.26,9.06,7.98,11.76h-0.06
		c2.82,2.34,6.36,6.18,6.36,9.54c0,4.56-2.28,7.32-6.9,7.32c-5.94,0-6.66-5.7-6.66-9.78h-1.14c0,6.6,1.74,10.8,7.8,10.8
		C30.91,48.04,33.49,44.98,33.49,39.64z"/>
	<path fill="#27E0AD" d="M58.33,8.92v40.44h-4.38V31.48h-9.42v17.88h-4.38V8.92h4.38V27.1h9.42V8.92H58.33z M55.57,28.78H42.85
		V10.54h-1.02v37.14h1.02V29.8h12.72v17.88h1.14V10.54h-1.14V28.78z"/>
	<path fill="#27E0AD" d="M63.01,49.36l9.24-40.44h3.48l9.18,40.44h-4.5l-2.52-11.58h-7.68l-2.7,11.58H63.01z M68.77,36.16h10.44
		l2.58,11.52h1.08l-8.46-37.14h-0.84l-8.52,37.14h1.14L68.77,36.16z M78.97,35.08h-9.96l4.98-21.78L78.97,35.08z M71.11,33.46h5.76
		l-2.88-12.84L71.11,33.46z"/>
	<path fill="#27E0AD" d="M105.31,29.14c1.86,1.74,2.52,4.74,2.52,7.44v12.78h-4.38v-12.6c0-3.72-1.26-5.28-5.04-5.28h-4.14v17.88
		h-4.38V8.92h8.64c7.74,0,9.54,4.62,9.54,11.34C108.07,23.32,107.53,26.92,105.31,29.14z M98.53,10.54h-7.02v37.14h1.14V29.8h5.76
		c5.04,0,6.66,2.1,6.66,6.96v10.92h1.14v-11.1c0-3.18-0.78-6.48-4.38-7.32c3.96-1.2,4.56-5.4,4.56-9
		C106.39,14.56,104.89,10.54,98.53,10.54z M92.65,28.72V11.68h5.64c5.88,0,7.02,3.48,7.02,8.58c0,5.7-1.5,8.46-7.56,8.46H92.65z
		 M103.63,20.26c0-4.14-0.84-6.96-5.34-6.96h-4.02v13.74h3.48C102.49,27.04,103.63,24.82,103.63,20.26z"/>
	<path fill="#27E0AD" d="M114.49,49.36V8.92h4.38v40.44H114.49z M117.25,10.54h-1.14v37.14h1.14V10.54z"/>
	<path fill="#27E0AD" d="M130.27,49.36h-4.38V8.92h3.66l10.8,26.76V8.92h4.38v40.44h-3.66c-2.34-5.64-4.98-12.3-10.8-26.76V49.36z
		 M142.15,47.68h0.9V10.54h-1.02v33.72l-13.56-33.72h-0.96v37.14h1.14V13.96C133.21,25.24,137.59,36.46,142.15,47.68z"/>
	<path fill="#27E0AD" d="M151.99,38.44V19.78c0-6.24,3.18-11.28,10.08-11.28c7.5,0,9.6,5.22,9.6,13.44h-4.38
		c0-4.62-0.78-9.06-5.22-9.06c-4.14,0-5.7,3.54-5.7,7.44v18.12c0,3.78,1.68,6.96,5.58,6.96c3.78,0,5.52-3.36,5.52-6.96v-7.02h-6.48
		v-4.38h10.86v11.4c0,6.06-3.06,11.28-9.9,11.28C155.05,49.72,151.99,44.62,151.99,38.44z M170.23,38.44v-9.72h-7.62v1.02h6.54v8.7
		c0,4.44-2.28,8.58-7.2,8.58c-5.04,0-7.2-3.96-7.2-8.58V20.32c0-4.8,1.98-9.12,7.32-9.12c5.28,0,6.9,4.62,6.9,9.3h1.08
		c0-5.88-2.28-10.32-7.98-10.32c-5.7,0-8.4,4.32-8.4,9.6v18.66c0,5.28,2.58,9.66,8.28,9.66C167.65,48.1,170.23,43.6,170.23,38.44z"
		/>
	<path fill="#27E0AD" d="M56.35,73.24v13.8h7.92v4.38h-7.92v13.56h11.88v4.38H52.09l-0.06-40.44h16.2v4.32H56.35z M66.55,70.54
		h-12.9l0.06,37.14h12.84v-1.02H54.73V89.74h7.92v-1.02h-7.92v-17.1h11.82V70.54z"/>
	<path fill="#27E0AD" d="M73.45,98.38V79.84c0-6.42,3.06-11.34,10.02-11.34c8.04,0,9.84,4.92,9.84,14.22h-4.44
		c0-4.98-0.24-9.84-5.4-9.84c-3.96,0-5.58,3.24-5.58,6.96v18.54c0,3.72,1.56,7.02,5.52,7.02c4.74,0,5.46-4.26,5.46-9.9h4.44
		c0,7.56-0.9,14.22-9.9,14.22C76.45,109.72,73.45,104.8,73.45,98.38z M91.63,97.18h-1.08c0,4.92-1.08,9.84-7.14,9.84
		c-5.1,0-7.2-4.08-7.2-8.64V79.84c0-4.56,2.16-8.64,7.26-8.64c6.06,0,7.08,4.86,7.08,9.84h1.08c0-6.66-2.28-10.86-8.16-10.86
		c-5.82,0-8.34,4.2-8.34,9.66v18.54c0,5.46,2.46,9.72,8.28,9.72C90.19,108.1,91.63,102.94,91.63,97.18z"/>
	<path fill="#27E0AD" d="M99.43,98.38V79.84c0-6.12,3.12-11.34,9.96-11.34c6.9,0,9.9,5.22,9.9,11.34v18.54
		c0,6.48-2.82,11.34-9.9,11.34C102.43,109.72,99.43,104.74,99.43,98.38z M117.61,98.38V79.84c0-5.22-2.46-9.78-8.22-9.78
		c-5.7,0-8.28,4.56-8.28,9.78v18.54c0,5.4,2.46,9.72,8.28,9.72C115.33,108.1,117.61,103.9,117.61,98.38z M116.53,80.44v17.64
		c0,4.8-1.74,8.88-7.14,8.88s-7.2-4.32-7.2-9.06V80.38c0-4.56,1.92-9.12,7.2-9.12C114.85,71.26,116.53,75.7,116.53,80.44z
		 M103.81,80.38V97.9c0,3.84,1.44,7.44,5.58,7.44c4.2,0,5.46-3.36,5.46-7.26V80.44c0-3.84-1.26-7.5-5.46-7.5
		C105.31,72.94,103.81,76.6,103.81,80.38z"/>
	<path fill="#27E0AD" d="M129.31,109.36h-4.38V68.92h3.66l10.8,26.76V68.92h4.38v40.44h-3.66c-2.34-5.64-4.98-12.3-10.8-26.76
		V109.36z M141.19,107.68h0.9V70.54h-1.02v33.72l-13.56-33.72h-0.96v37.14h1.14V73.96C132.25,85.24,136.63,96.46,141.19,107.68z"/>
	<path fill="#27E0AD" d="M151.03,98.38V79.84c0-6.12,3.12-11.34,9.96-11.34c6.9,0,9.9,5.22,9.9,11.34v18.54
		c0,6.48-2.82,11.34-9.9,11.34C154.03,109.72,151.03,104.74,151.03,98.38z M169.21,98.38V79.84c0-5.22-2.46-9.78-8.22-9.78
		c-5.7,0-8.28,4.56-8.28,9.78v18.54c0,5.4,2.46,9.72,8.28,9.72C166.93,108.1,169.21,103.9,169.21,98.38z M168.13,80.44v17.64
		c0,4.8-1.74,8.88-7.14,8.88s-7.2-4.32-7.2-9.06V80.38c0-4.56,1.92-9.12,7.2-9.12C166.45,71.26,168.13,75.7,168.13,80.44z
		 M155.41,80.38V97.9c0,3.84,1.44,7.44,5.58,7.44c4.2,0,5.46-3.36,5.46-7.26V80.44c0-3.84-1.26-7.5-5.46-7.5
		C156.91,72.94,155.41,76.6,155.41,80.38z"/>
	<path fill="#27E0AD" d="M177.31,109.36V68.92h3.9l7.5,29.28l7.56-29.28h3.9v40.44h-4.38V88.48l-5.22,20.88h-3.54l-5.28-20.58v20.58
		H177.31z M180.07,75.64l8.22,32.04h1.02l8.1-32.1v32.1h1.14V70.54h-1.02l-8.82,34.38l-8.76-34.38h-0.96v37.14h1.08V75.64z"/>
	<path fill="#27E0AD" d="M226.03,68.92l-8.4,22.02v18.42h-4.44V90.94c-4.68-12.3-6.96-18.36-8.28-22.02h4.68l5.88,15.48
		c1.98-5.16,4.08-10.56,5.88-15.48H226.03z M215.47,89.14l-7.02-18.6h-1.14c2.4,6.78,5.04,13.38,7.56,20.1v17.04h1.14V90.64
		l7.62-20.1h-1.14L215.47,89.14z"/>
</g>
<g>
	<g>
		<polygon fill="#27E0AD" points="22.94,96.38 21.54,94.95 26.71,89.91 21.54,84.88 22.94,83.45 29.58,89.91 		"/>
	</g>
	<g>
		<polygon fill="#27E0AD" points="15.48,96.38 14.09,94.95 19.25,89.91 14.09,84.88 15.48,83.45 22.12,89.91 		"/>
	</g>
	<g>
		<polygon fill="#27E0AD" points="8.02,96.38 6.63,94.95 11.8,89.91 6.63,84.88 8.02,83.45 14.66,89.91 		"/>
	</g>
</g>
</svg>
