<?xml version="1.0" encoding="utf-8"?>
<!-- Generator: Adobe Illustrator 18.1.1, SVG Export Plug-In . SVG Version: 6.00 Build 0)  -->
<svg version="1.0" id="Layer_1" xmlns="http://www.w3.org/2000/svg" xmlns:xlink="http://www.w3.org/1999/xlink" x="0px" y="0px"
	 viewBox="0 0 300.29 68.9" enable-background="new 0 0 300.29 68.9" xml:space="preserve">
<g>
	<path fill="#27E0AD" d="M10.23,44.48h5.26c0,6.7,0.72,11.74,6.05,11.74c4.18,0,6.26-2.59,6.26-6.77c0-3.82-3.82-7.42-6.84-9.94
		l0.07,0.07c-4.82-3.46-10.37-9.07-10.37-15.7c0-6.7,4.25-11.88,11.23-11.88c9.72,0,10.73,7.27,10.73,16.34h-5.26
		c0-5.62-0.36-11.09-5.47-11.09c-3.96,0-5.98,3.17-5.98,6.98c0,3.96,3.89,7.27,7.78,10.73V34.9c4.68,4.18,9.36,8.5,9.36,14.47
		c0,7.63-3.74,12.1-11.52,12.1C12.54,61.47,10.23,55.57,10.23,44.48z M31.12,49.37c0-10.51-17.21-15.34-17.21-25.13
		c0-4.9,2.74-9,7.99-9c6.98,0,7.42,6.19,7.49,11.16h1.22c0-7.49-1.51-12.46-8.71-12.46c-5.76,0-9.22,4.39-9.22,9.94
		c0,5.83,5.11,10.87,9.58,14.11h-0.07c3.38,2.81,7.63,7.42,7.63,11.45c0,5.47-2.74,8.78-8.28,8.78c-7.13,0-7.99-6.84-7.99-11.74
		h-1.37c0,7.92,2.09,12.96,9.36,12.96C28.02,59.46,31.12,55.78,31.12,49.37z"/>
	<path fill="#27E0AD" d="M64.53,12.51v48.53h-5.26V39.58h-11.3v21.46h-5.26V12.51h5.26v21.82h11.3V12.51H64.53z M61.21,36.34H45.95
		V14.45h-1.22v44.57h1.22V37.56h15.27v21.46h1.37V14.45h-1.37V36.34z"/>
	<path fill="#27E0AD" d="M73.74,61.04l11.09-48.53h4.18l11.02,48.53h-5.4l-3.02-13.9h-9.22l-3.24,13.9H73.74z M80.65,45.2h12.53
		l3.1,13.83h1.3L87.42,14.45h-1.01L76.19,59.02h1.37L80.65,45.2z M92.89,43.9H80.94l5.98-26.14L92.89,43.9z M83.46,41.96h6.91
		l-3.46-15.41L83.46,41.96z"/>
	<path fill="#27E0AD" d="M128.1,36.77c2.23,2.09,3.02,5.69,3.02,8.93v15.34h-5.26V45.92c0-4.46-1.51-6.34-6.05-6.34h-4.97v21.46
		h-5.26V12.51h10.37c9.29,0,11.45,5.54,11.45,13.61C131.41,29.79,130.77,34.11,128.1,36.77z M119.97,14.45h-8.42v44.57h1.37V37.56
		h6.91c6.05,0,7.99,2.52,7.99,8.35v13.1h1.37V45.7c0-3.82-0.94-7.78-5.26-8.78c4.75-1.44,5.47-6.48,5.47-10.8
		C129.4,19.28,127.6,14.45,119.97,14.45z M112.91,36.27V15.82h6.77c7.06,0,8.42,4.18,8.42,10.3c0,6.84-1.8,10.15-9.07,10.15H112.91z
		 M126.09,26.12c0-4.97-1.01-8.35-6.41-8.35h-4.83v16.49h4.18C124.72,34.25,126.09,31.59,126.09,26.12z"/>
	<path fill="#27E0AD" d="M147.54,17.69v16.56h9.5v5.26h-9.5v16.27h14.26v5.26h-19.37l-0.07-48.53h19.44v5.18H147.54z M159.78,14.45
		H144.3l0.07,44.57h15.41V57.8H145.6V37.49h9.5v-1.22h-9.5V15.75h14.18V14.45z"/>
	<path fill="#27E0AD" d="M172.45,61.04V12.51h5.18v43.28h11.02v5.26H172.45z M186.71,57.8h-11.02V14.45h-1.3v44.57h12.31V57.8z"/>
	<path fill="#27E0AD" d="M197.22,47.86V25.61c0-7.34,3.74-13.61,11.95-13.61c8.28,0,11.88,6.26,11.88,13.61v22.25
		c0,7.78-3.38,13.61-11.88,13.61C200.82,61.47,197.22,55.49,197.22,47.86z M219.04,47.86V25.61c0-6.26-2.95-11.74-9.87-11.74
		c-6.84,0-9.94,5.47-9.94,11.74v22.25c0,6.48,2.95,11.67,9.94,11.67C216.3,59.53,219.04,54.49,219.04,47.86z M217.74,26.33V47.5
		c0,5.76-2.09,10.66-8.57,10.66s-8.64-5.18-8.64-10.87V26.26c0-5.47,2.3-10.95,8.64-10.95C215.72,15.31,217.74,20.64,217.74,26.33z
		 M202.48,26.26v21.03c0,4.61,1.73,8.93,6.7,8.93c5.04,0,6.55-4.03,6.55-8.71V26.33c0-4.61-1.51-9-6.55-9
		C204.27,17.33,202.48,21.72,202.48,26.26z"/>
	<path fill="#27E0AD" d="M232.43,47.86V25.61c0-7.7,3.67-13.61,12.02-13.61c9.65,0,11.81,5.9,11.81,17.07h-5.33
		c0-5.98-0.29-11.81-6.48-11.81c-4.75,0-6.7,3.89-6.7,8.35v22.25c0,4.46,1.87,8.42,6.62,8.42c5.69,0,6.55-5.11,6.55-11.88h5.33
		c0,9.07-1.08,17.07-11.88,17.07C236.03,61.47,232.43,55.57,232.43,47.86z M254.24,46.42h-1.3c0,5.9-1.3,11.81-8.57,11.81
		c-6.12,0-8.64-4.9-8.64-10.37V25.61c0-5.47,2.59-10.37,8.71-10.37c7.27,0,8.5,5.83,8.5,11.81h1.3c0-7.99-2.74-13.03-9.79-13.03
		c-6.98,0-10.01,5.04-10.01,11.59v22.25c0,6.55,2.95,11.67,9.94,11.67C252.52,59.53,254.24,53.33,254.24,46.42z"/>
	<path fill="#27E0AD" d="M276.56,35.12l13.83,25.92h-6.12l-10.94-20.67l-0.79,1.37v19.3h-5.26v-48.6h5.26v19.23l10.58-19.23h6.26
		L276.56,35.12z M284.27,14.45l-13.68,24.48V14.45h-1.37v44.57h1.37V41.24l2.88-4.75l12.03,22.54H287l-12.67-23.98l11.52-20.59
		H284.27z"/>
</g>
</svg>
