<?xml version="1.0" encoding="utf-8"?>
<!-- Generator: Adobe Illustrator 18.0.0, SVG Export Plug-In . SVG Version: 6.00 Build 0)  -->
<!DOCTYPE svg PUBLIC "-//W3C//DTD SVG 1.1//EN" "http://www.w3.org/Graphics/SVG/1.1/DTD/svg11.dtd">
<svg version="1.1" xmlns="http://www.w3.org/2000/svg" xmlns:xlink="http://www.w3.org/1999/xlink" x="0px" y="0px"
	 viewBox="0 0 1577.8 809.7" enable-background="new 0 0 1577.8 809.7" xml:space="preserve">
<g id="NuovoPolitica">
	<g id="Base">
	</g>
	<g id="Testo">
	</g>
	<g id="BarreValori">
	</g>
	<g id="Linee">
	</g>
	<g id="Numeri">
	</g>
</g>
<g id="Guides" display="none">
</g>
<g id="Gruppo1">
</g>
<g id="Gruppo2">
</g>
<g id="Gruppo3">
</g>
<g id="Gruppo4">
	<g>
		<g>
			<text transform="matrix(1 0 0 1 141.2163 265.4417)" fill="#323234" font-family="'SourceSansPro-Regular'" font-size="15">Brazil</text>
		</g>
		<g>
			<text transform="matrix(1 0 0 1 145.1694 131.4529)" fill="#9C9E9F" font-family="'SourceSansPro-Regular'" font-size="15">Chile</text>
		</g>
		<g>
			<text transform="matrix(1 0 0 1 146.9009 87.3247)" fill="#9C9E9F" font-family="'SourceSansPro-Regular'" font-size="15">Haiti</text>
		</g>
		<g>
			<text transform="matrix(1 0 0 1 22.0876 64.4116)" fill="#9C9E9F" font-family="'SourceSansPro-Regular'" font-size="15">United States of America</text>
			<text transform="matrix(1 0 0 1 115.9856 712.0662)" fill="#9C9E9F" font-family="'SourceSansPro-Regular'" font-size="15">Suriname</text>
			<text transform="matrix(1 0 0 1 128.7139 41.9517)" fill="#9C9E9F" font-family="'SourceSansPro-Regular'" font-size="15">Canada</text>
			<g>
				<text transform="matrix(1 0 0 1 133.116 398.9414)" fill="#323234" font-family="'SourceSansPro-Regular'" font-size="15">Mexico</text>
			</g>
			<g>
				<text transform="matrix(1 0 0 1 124.5664 354.1914)" fill="#323234" font-family="'SourceSansPro-Regular'" font-size="15">Ecuador</text>
			</g>
			<text transform="matrix(1 0 0 1 134.3979 555.4414)" fill="#9C9E9F" font-family="'SourceSansPro-Regular'" font-size="15">Bolivia</text>
			<g>
				<text transform="matrix(1 0 0 1 112.521 533.1909)" fill="#323234" font-family="'SourceSansPro-Regular'" font-size="15">Venezuela</text>
			</g>
			<g>
				<text transform="matrix(1 0 0 1 60.7871 176.0667)" fill="#9C9E9F" font-family="'SourceSansPro-Regular'" font-size="15">Trinidad &amp; Tobago</text>
			</g>
			<g>
				<text transform="matrix(1 0 0 1 147.7925 443.6914)" fill="#323234" font-family="'SourceSansPro-Regular'" font-size="15">Peru</text>
			</g>
			<g>
				<text transform="matrix(1 0 0 1 116.1514 287.6917)" fill="#323234" font-family="'SourceSansPro-Regular'" font-size="15">Colombia</text>
			</g>
			<text transform="matrix(1 0 0 1 117.0325 689.5664)" fill="#9C9E9F" font-family="'SourceSansPro-Regular'" font-size="15">Paraguay</text>
			<g>
				<text transform="matrix(1 0 0 1 123.366 510.6914)" fill="#323234" font-family="'SourceSansPro-Regular'" font-size="15">Uruguay</text>
			</g>
			<g>
				<text transform="matrix(1 0 0 1 111.2019 309.7363)" fill="#323234" font-family="'SourceSansPro-Regular'" font-size="15">Costa Rica</text>
			</g>
			<text transform="matrix(1 0 0 1 114.873 622.3115)" fill="#9C9E9F" font-family="'SourceSansPro-Regular'" font-size="15">Honduras</text>
			<text transform="matrix(1 0 0 1 107.6245 600.1914)" fill="#9C9E9F" font-family="'SourceSansPro-Regular'" font-size="15">Guatemala</text>
			<text transform="matrix(1 0 0 1 116.8867 779.0662)" fill="#9C9E9F" font-family="'SourceSansPro-Regular'" font-size="15">Dominica</text>
			<text transform="matrix(1 0 0 1 106.3047 577.8159)" fill="#9C9E9F" font-family="'SourceSansPro-Regular'" font-size="15">El Salvador</text>
			<text transform="matrix(1 0 0 1 112.6108 667.1912)" fill="#9C9E9F" font-family="'SourceSansPro-Regular'" font-size="15">Nicaragua</text>
			<text transform="matrix(1 0 0 1 115.6116 734.8923)" fill="#9C9E9F" font-family="'SourceSansPro-Regular'" font-size="15">Argentina</text>
			<text transform="matrix(1 0 0 1 123.6594 644.9414)" fill="#9C9E9F" font-family="'SourceSansPro-Regular'" font-size="15">Jamaica</text>
			<g>
				<text transform="matrix(1 0 0 1 116.3616 221.0664)" fill="#323234" font-family="'SourceSansPro-Regular'" font-size="15">Barbados</text>
			</g>
			<g>
				<text transform="matrix(1 0 0 1 124.6106 421.9382)" fill="#323234" font-family="'SourceSansPro-Regular'" font-size="15">Panama</text>
			</g>
			<g>
				<text transform="matrix(1 0 0 1 -0.2551 489.3164)" fill="#323234" font-family="'SourceSansPro-Regular'" font-size="15">St. Vincent &amp; the Grenadines</text>
			</g>
			<g>
				<text transform="matrix(1 0 0 1 123.8079 466.4321)" fill="#323234" font-family="'SourceSansPro-Regular'" font-size="15">St. Lucia</text>
			</g>
			<g>
				<text transform="matrix(1 0 0 1 58.9875 199.0664)" fill="#323234" font-family="'SourceSansPro-Regular'" font-size="15">Antigua &amp; Barbuda</text>
			</g>
			<g>
				<text transform="matrix(1 0 0 1 139.3411 243.1914)" fill="#323234" font-family="'SourceSansPro-Regular'" font-size="15">Belize</text>
			</g>
			<g>
				<text transform="matrix(1 0 0 1 50.4072 332.1914)" fill="#323234" font-family="'SourceSansPro-Regular'" font-size="15">Dominican Republic</text>
			</g>
			<g>
				<text transform="matrix(1 0 0 1 123.021 374.3164)" fill="#323234" font-family="'SourceSansPro-Regular'" font-size="15">Grenada</text>
			</g>
			<text transform="matrix(1 0 0 1 128.8635 801.3164)" fill="#9C9E9F" font-family="'SourceSansPro-Regular'" font-size="15">Guyana</text>
			<g>
				<text transform="matrix(1 0 0 1 78.9973 154.4004)" fill="#9C9E9F" font-family="'SourceSansPro-Regular'" font-size="15">St. Kitts &amp; Nevis</text>
			</g>
			<g>
				<text transform="matrix(1 0 0 1 118.1909 109.6763)" fill="#9C9E9F" font-family="'SourceSansPro-Regular'" font-size="15">Bahamas</text>
			</g>
		</g>
		<text transform="matrix(1 0 0 1 144.0808 757.2454)" fill="#9C9E9F" font-family="'SourceSansPro-Regular'" font-size="15">Cuba</text>
	</g>
	<text transform="matrix(1 0 0 1 461.2899 12.5745)" fill="#323234" font-family="'SourceSansPro-Regular'" font-size="15">Imports over exports</text>
	<text transform="matrix(1 0 0 1 803.9731 12.5747)" fill="#323234" font-family="'SourceSansPro-Regular'" font-size="15">Political stability</text>
	<text transform="matrix(1 0 0 1 1124.8237 12.45)" fill="#323234" font-family="'SourceSansPro-Regular'" font-size="15">Economical Access</text>
	<text transform="matrix(1 0 0 1 1447.4834 12.575)" fill="#323234" font-family="'SourceSansPro-Regular'" font-size="15">Dietary Requirement</text>
	<g id="BarraImport_5_">
		<path fill="none" stroke="#CFD1D2" stroke-miterlimit="10" d="M526.4,37.7v761.1"/>
		<line fill="none" stroke="#CFD1D2" stroke-miterlimit="10" x1="521.4" y1="37.7" x2="531.4" y2="37.7"/>
		<line fill="none" stroke="#CFD1D2" stroke-miterlimit="10" x1="521.4" y1="106.8" x2="531.4" y2="106.8"/>
		<line fill="none" stroke="#CFD1D2" stroke-miterlimit="10" x1="521.4" y1="183.7" x2="531.4" y2="183.7"/>
		<line fill="none" stroke="#CFD1D2" stroke-miterlimit="10" x1="521.4" y1="260.6" x2="531.4" y2="260.6"/>
		<line fill="none" stroke="#CFD1D2" stroke-miterlimit="10" x1="521.4" y1="337.5" x2="531.4" y2="337.5"/>
		<line fill="none" stroke="#CFD1D2" stroke-miterlimit="10" x1="521.4" y1="414.3" x2="531.4" y2="414.3"/>
		<line fill="none" stroke="#CFD1D2" stroke-miterlimit="10" x1="521.7" y1="491.2" x2="531.7" y2="491.2"/>
		<line fill="none" stroke="#CFD1D2" stroke-miterlimit="10" x1="521.7" y1="568.1" x2="531.7" y2="568.1"/>
		<line fill="none" stroke="#CFD1D2" stroke-miterlimit="10" x1="521.4" y1="645" x2="531.4" y2="645"/>
		<line fill="none" stroke="#CFD1D2" stroke-miterlimit="10" x1="521.4" y1="721.8" x2="531.4" y2="721.8"/>
	</g>
	<g>
		<path fill="none" stroke="#CFD1D2" stroke-miterlimit="10" d="M855.3,37.7v760"/>
		<line fill="none" stroke="#CFD1D2" stroke-miterlimit="10" x1="850" y1="77" x2="860" y2="77"/>
		<line fill="none" stroke="#CFD1D2" stroke-miterlimit="10" x1="850.7" y1="133.1" x2="860.7" y2="133.1"/>
		<line fill="none" stroke="#CFD1D2" stroke-miterlimit="10" x1="850.3" y1="189.3" x2="860.3" y2="189.3"/>
		<line fill="none" stroke="#CFD1D2" stroke-miterlimit="10" x1="850.3" y1="245.4" x2="860.3" y2="245.4"/>
		<line fill="none" stroke="#CFD1D2" stroke-miterlimit="10" x1="850.7" y1="301.6" x2="860.7" y2="301.6"/>
		<line fill="none" stroke="#CFD1D2" stroke-miterlimit="10" x1="850.7" y1="357.7" x2="860.7" y2="357.7"/>
		<line fill="none" stroke="#CFD1D2" stroke-miterlimit="10" x1="849.7" y1="413.8" x2="859.7" y2="413.8"/>
		<line fill="none" stroke="#CFD1D2" stroke-miterlimit="10" x1="849.7" y1="470" x2="859.7" y2="470"/>
		<line fill="none" stroke="#CFD1D2" stroke-miterlimit="10" x1="850.3" y1="526.1" x2="860.3" y2="526.1"/>
		<line fill="none" stroke="#CFD1D2" stroke-miterlimit="10" x1="850" y1="582.3" x2="860" y2="582.3"/>
		<line fill="none" stroke="#CFD1D2" stroke-miterlimit="10" x1="850.3" y1="638.8" x2="860.3" y2="638.8"/>
		<line fill="none" stroke="#CFD1D2" stroke-miterlimit="10" x1="850.3" y1="694.6" x2="860.3" y2="694.6"/>
		<line fill="none" stroke="#CFD1D2" stroke-miterlimit="10" x1="850.3" y1="750.7" x2="860.3" y2="750.7"/>
	</g>
	<path fill="none" stroke="#CFD1D2" stroke-miterlimit="10" d="M1184.3,37.6v760.1"/>
	<line fill="none" stroke="#CFD1D2" stroke-miterlimit="10" x1="1179.8" y1="118.4" x2="1189.8" y2="118.4"/>
	<line fill="none" stroke="#CFD1D2" stroke-miterlimit="10" x1="1179.8" y1="217.6" x2="1189.8" y2="217.6"/>
	<line fill="none" stroke="#CFD1D2" stroke-miterlimit="10" x1="1179.8" y1="316.9" x2="1189.8" y2="316.9"/>
	<line fill="none" stroke="#CFD1D2" stroke-miterlimit="10" x1="1179.8" y1="416.2" x2="1189.8" y2="416.2"/>
	<line fill="none" stroke="#CFD1D2" stroke-miterlimit="10" x1="1179.8" y1="515.5" x2="1189.8" y2="515.5"/>
	<line fill="none" stroke="#CFD1D2" stroke-miterlimit="10" x1="1179.8" y1="614.7" x2="1189.8" y2="614.7"/>
	<line fill="none" stroke="#CFD1D2" stroke-miterlimit="10" x1="1179.8" y1="714" x2="1189.8" y2="714"/>
	<path fill="none" stroke="#CFD1D2" stroke-miterlimit="10" d="M1513.2,36.3v761.4"/>
	<line fill="none" stroke="#CFD1D2" stroke-miterlimit="10" x1="1508.2" y1="53.6" x2="1518.2" y2="53.6"/>
	<line fill="none" stroke="#CFD1D2" stroke-miterlimit="10" x1="1508.2" y1="159.9" x2="1518.2" y2="159.9"/>
	<line fill="none" stroke="#CFD1D2" stroke-miterlimit="10" x1="1508.2" y1="266.2" x2="1518.2" y2="266.2"/>
	<line fill="none" stroke="#CFD1D2" stroke-miterlimit="10" x1="1508.2" y1="372.5" x2="1518.2" y2="372.5"/>
	<line fill="none" stroke="#CFD1D2" stroke-miterlimit="10" x1="1507.9" y1="478.8" x2="1517.9" y2="478.8"/>
	<line fill="none" stroke="#CFD1D2" stroke-miterlimit="10" x1="1508.2" y1="585.1" x2="1518.2" y2="585.1"/>
	<line fill="none" stroke="#CFD1D2" stroke-miterlimit="10" x1="1508.2" y1="691.4" x2="1518.2" y2="691.4"/>
	<line fill="none" stroke="#CFD1D2" stroke-miterlimit="10" x1="1508.2" y1="797.7" x2="1518.2" y2="797.7"/>
	<g>
		<line fill="none" stroke="#CFD1D2" stroke-miterlimit="10" x1="187.8" y1="730.1" x2="197.8" y2="730.1"/>
		<line fill="none" stroke="#CFD1D2" stroke-miterlimit="10" x1="187.8" y1="707.8" x2="197.8" y2="707.8"/>
		<line fill="none" stroke="#CFD1D2" stroke-miterlimit="10" x1="187.8" y1="685.3" x2="197.8" y2="685.3"/>
		<line fill="none" stroke="#CFD1D2" stroke-miterlimit="10" x1="187.8" y1="662.9" x2="197.8" y2="662.9"/>
		<line fill="none" stroke="#CFD1D2" stroke-miterlimit="10" x1="188.4" y1="640.7" x2="198.4" y2="640.7"/>
		<line fill="none" stroke="#CFD1D2" stroke-miterlimit="10" x1="188.4" y1="618.1" x2="198.4" y2="618.1"/>
		<line fill="none" stroke="#CFD1D2" stroke-miterlimit="10" x1="188.4" y1="595.9" x2="198.4" y2="595.9"/>
		<line fill="none" stroke="#CFD1D2" stroke-miterlimit="10" x1="187.8" y1="573.6" x2="197.8" y2="573.6"/>
		<line fill="none" stroke="#CFD1D2" stroke-miterlimit="10" x1="188.8" y1="551.2" x2="198.8" y2="551.2"/>
		<line fill="none" stroke="#CFD1D2" stroke-miterlimit="10" x1="187.8" y1="528.9" x2="197.8" y2="528.9"/>
		<line fill="none" stroke="#CFD1D2" stroke-miterlimit="10" x1="187.8" y1="506.4" x2="197.8" y2="506.4"/>
		<line fill="none" stroke="#CFD1D2" stroke-miterlimit="10" x1="187.8" y1="485.1" x2="197.8" y2="485.1"/>
		<line fill="none" stroke="#CFD1D2" stroke-miterlimit="10" x1="187.8" y1="462.2" x2="197.8" y2="462.2"/>
		<line fill="none" stroke="#CFD1D2" stroke-miterlimit="10" x1="187.8" y1="439.4" x2="197.8" y2="439.4"/>
		<line fill="none" stroke="#CFD1D2" stroke-miterlimit="10" x1="187.8" y1="417.7" x2="197.8" y2="417.7"/>
		<line fill="none" stroke="#CFD1D2" stroke-miterlimit="10" x1="187.8" y1="394.7" x2="197.8" y2="394.7"/>
		<line fill="none" stroke="#CFD1D2" stroke-miterlimit="10" x1="187.8" y1="370.1" x2="197.8" y2="370.1"/>
		<line fill="none" stroke="#CFD1D2" stroke-miterlimit="10" x1="187.8" y1="349.9" x2="197.8" y2="349.9"/>
		<line fill="none" stroke="#CFD1D2" stroke-miterlimit="10" x1="187.8" y1="327.9" x2="197.8" y2="327.9"/>
		<line fill="none" stroke="#CFD1D2" stroke-miterlimit="10" x1="187.8" y1="305.5" x2="197.8" y2="305.5"/>
		<line fill="none" stroke="#CFD1D2" stroke-miterlimit="10" x1="187.8" y1="283.4" x2="197.8" y2="283.4"/>
		<line fill="none" stroke="#CFD1D2" stroke-miterlimit="10" x1="187.8" y1="261.2" x2="197.8" y2="261.2"/>
		<line fill="none" stroke="#CFD1D2" stroke-miterlimit="10" x1="187.8" y1="238.9" x2="197.8" y2="238.9"/>
		<line fill="none" stroke="#CFD1D2" stroke-miterlimit="10" x1="187.8" y1="216.8" x2="197.8" y2="216.8"/>
		<line fill="none" stroke="#CFD1D2" stroke-miterlimit="10" x1="187.8" y1="194.8" x2="197.8" y2="194.8"/>
		<line fill="none" stroke="#CFD1D2" stroke-miterlimit="10" x1="187.8" y1="171.8" x2="197.8" y2="171.8"/>
		<line fill="none" stroke="#CFD1D2" stroke-miterlimit="10" x1="187.8" y1="149.6" x2="197.8" y2="149.6"/>
		<line fill="none" stroke="#CFD1D2" stroke-miterlimit="10" x1="187.8" y1="127.2" x2="197.8" y2="127.2"/>
		<line fill="none" stroke="#CFD1D2" stroke-miterlimit="10" x1="187.8" y1="104.9" x2="197.8" y2="104.9"/>
		<line fill="none" stroke="#CFD1D2" stroke-miterlimit="10" x1="187.8" y1="83.1" x2="197.8" y2="83.1"/>
		<line fill="none" stroke="#CFD1D2" stroke-miterlimit="10" x1="187.8" y1="60.2" x2="197.8" y2="60.2"/>
		<line fill="none" stroke="#CFD1D2" stroke-miterlimit="10" x1="187.8" y1="37.7" x2="197.8" y2="37.7"/>
		<line fill="none" stroke="#CFD1D2" stroke-miterlimit="10" x1="187.8" y1="752.6" x2="197.8" y2="752.6"/>
		<line fill="none" stroke="#CFD1D2" stroke-miterlimit="10" x1="187.8" y1="774.8" x2="197.8" y2="774.8"/>
		<line fill="none" stroke="#CFD1D2" stroke-miterlimit="10" x1="187.8" y1="797.1" x2="197.8" y2="797.1"/>
	</g>
	<path fill="none" stroke="#CFD1D2" stroke-miterlimit="10" d="M197.8,37.7v760"/>
	<path fill="none" stroke="#9C9E9F" stroke-width="0.5" stroke-miterlimit="10" d="M197.8,82.4L526.5,503l328.7,144.4l328.7-45.2
		l328.7-293.5"/>
	<path fill="none" stroke="#AACBB7" stroke-width="2" stroke-miterlimit="10" d="M1512.7,797.7"/>
	<path fill="none" stroke="#AACBB7" stroke-width="2" stroke-miterlimit="10" d="M1512.7,797.7"/>
	<path fill="none" stroke="#F19155" stroke-width="2" stroke-miterlimit="10" d="M1512.7,797.7"/>
	<path fill="none" stroke="#F19155" stroke-width="2" stroke-miterlimit="10" d="M1512.7,797.7"/>
	<path fill="none" stroke="#F19155" stroke-width="2" stroke-miterlimit="10" d="M1512.7,797.7"/>
	<g>
		<path fill="none" stroke="#9C9E9F" stroke-width="0.5" stroke-miterlimit="10" d="M197.8,641.2l328.7-421.3l328.7,220.4
			L1184,797.7l328.7-611.2"/>
		<path fill="none" stroke="#9C9E9F" stroke-width="0.5" stroke-miterlimit="10" d="M197.8,574.2l328.7-443.4l328.7,216L1184,797.7
			l328.7-600.6"/>
		<path fill="none" stroke="#9C9E9F" stroke-width="0.5" stroke-miterlimit="10" d="M197.8,685.9L526.5,61l328.7,521.2L1184,797.7
			l328.7-589.9"/>
		<path fill="none" stroke="#9C9E9F" stroke-width="0.5" stroke-miterlimit="10" d="M197.8,618.9L526.5,88.1l328.7,394.8L1184,797.7
			l328.7-627.1"/>
		<path fill="none" stroke="#9C9E9F" stroke-width="0.5" stroke-miterlimit="10" d="M197.8,551.8L526.5,53.2l328.7,441.1L1184,797.7
			l328.7-526.2"/>
		<path fill="none" stroke="#9C9E9F" stroke-width="0.5" stroke-miterlimit="10" d="M197.8,708.3l328.7-659L855.3,327L1184,797.7
			l328.7-616.5"/>
		<path fill="none" stroke="#9C9E9F" stroke-width="0.5" stroke-miterlimit="10" d="M197.8,663.6l328.7-513.4l328.7,315.8
			L1184,797.7l328.7-600.6"/>
		<path fill="none" stroke="#9C9E9F" stroke-width="0.5" stroke-miterlimit="10" d="M197.8,596.5L526.5,95.9l328.7,509L1184,797.7
			l328.7-627.1"/>
	</g>
	<path fill="none" stroke="#93CFDB" stroke-width="2" stroke-miterlimit="10" d="M1512.7,797.7"/>
	<g>
		<path fill="none" stroke="#9C9E9F" stroke-width="0.5" stroke-miterlimit="10" d="M197.8,730.6L526.5,37.7L855.3,378L1184,707.4
			l328.7-600.6"/>
		<path fill="none" stroke="#9C9E9F" stroke-width="0.5" stroke-miterlimit="10" d="M197.8,775.3l328.7-388.7L855.3,85.9L1184,707.4
			"/>
		<path fill="none" stroke="#9C9E9F" stroke-width="0.5" stroke-miterlimit="10" d="M197.8,753l328.7-587.3l328.7,104.6L1184,707.4
			l328.7-605.9"/>
		<path fill="none" stroke="#9C9E9F" stroke-width="0.5" stroke-miterlimit="10" d="M197.8,797.7L526.5,95.9l328.7,406.9L1184,707.4
			l328.7-520.9"/>
	</g>
	<g>
		<circle fill="#FFFCE8" cx="553.3" cy="37.7" r="12"/>
		<text transform="matrix(1 0 0 1 549.5341 42.7)" fill="#323234" font-family="'SourceSansPro-Regular'" font-size="15">0</text>
	</g>
	<g>
		<circle fill="#FFFCE8" cx="553.3" cy="262.6" r="12"/>
		<text transform="matrix(1 0 0 1 545.9811 267.5979)" fill="#323234" font-family="'SourceSansPro-Regular'" font-size="15">60</text>
	</g>
	<g>
		<circle fill="#FFFCE8" cx="553.3" cy="340.1" r="12"/>
		<text transform="matrix(1 0 0 1 545.9811 345.1489)" fill="#323234" font-family="'SourceSansPro-Regular'" font-size="15">80</text>
	</g>
	<g>
		<circle fill="#FFFCE8" cx="553.3" cy="417.7" r="12"/>
		<text transform="matrix(1 0 0 1 541.3889 422.7)" fill="#323234" font-family="'SourceSansPro-Regular'" font-size="15">100</text>
	</g>
	<g>
		<circle fill="#FFFCE8" cx="553.3" cy="650.4" r="12"/>
		<text transform="matrix(1 0 0 1 541.5588 655.353)" fill="#323234" font-family="'SourceSansPro-Regular'" font-size="15">160</text>
	</g>
	<g>
		<circle fill="#FFFCE8" cx="553.3" cy="727.9" r="12"/>
		<text transform="matrix(1 0 0 1 541.5588 732.9041)" fill="#323234" font-family="'SourceSansPro-Regular'" font-size="15">180</text>
	</g>
	<g>
		<circle fill="#FFFCE8" cx="1206.8" cy="118.4" r="12"/>
		<text transform="matrix(1 0 0 1 1197.2554 123.3503)" fill="#323234" font-family="'SourceSansPro-Regular'" font-size="15">1,6</text>
	</g>
	<g>
		<circle fill="#FFFCE8" cx="1535.8" cy="53.6" r="12"/>
		<text transform="matrix(1 0 0 1 1524.8525 58.644)" fill="#323234" font-family="'SourceSansPro-Regular'" font-size="15">140</text>
	</g>
	<g>
		<circle fill="#FFFCE8" cx="1535.8" cy="159.9" r="12"/>
		<text transform="matrix(1 0 0 1 1524.8525 164.9377)" fill="#323234" font-family="'SourceSansPro-Regular'" font-size="15">120</text>
		<g>
			<circle fill="#FFFCE8" cx="1535.8" cy="266.2" r="12"/>
			<text transform="matrix(1 0 0 1 1524.8525 271.2314)" fill="#323234" font-family="'SourceSansPro-Regular'" font-size="15">100</text>
			<g>
				<circle fill="#FFFCE8" cx="1535.8" cy="372.5" r="12"/>
				<text transform="matrix(1 0 0 1 1528.5576 377.5251)" fill="#323234" font-family="'SourceSansPro-Regular'" font-size="15">80</text>
				<g>
					<circle fill="#FFFCE8" cx="1535.8" cy="478.8" r="12"/>
					<text transform="matrix(1 0 0 1 1528.5576 483.8188)" fill="#323234" font-family="'SourceSansPro-Regular'" font-size="15">60</text>
					<g>
						<circle fill="#FFFCE8" cx="1535.8" cy="585.1" r="12"/>
						<text transform="matrix(1 0 0 1 1528.5576 590.1125)" fill="#323234" font-family="'SourceSansPro-Regular'" font-size="15">40</text>
						<g>
							<circle fill="#FFFCE8" cx="1535.8" cy="691.4" r="12"/>
							<text transform="matrix(1 0 0 1 1528.5576 696.4062)" fill="#323234" font-family="'SourceSansPro-Regular'" font-size="15">20</text>
							<g>
								<circle fill="#FFFCE8" cx="1535.8" cy="797.7" r="12"/>
								<text transform="matrix(1 0 0 1 1531.814 802.7)" fill="#323234" font-family="'SourceSansPro-Regular'" font-size="15">0</text>
							</g>
						</g>
					</g>
				</g>
			</g>
		</g>
	</g>
	<g>
		<path fill="none" stroke="#9C9E9F" stroke-width="0.5" stroke-miterlimit="10" d="M197.8,37.7l328.7,11.6l328.7,22.4l328.7-34
			l328.7,42.5"/>
		<path fill="none" stroke="#9C9E9F" stroke-width="0.5" stroke-miterlimit="10" d="M197.8,60.1l328.7-10.7L855.3,222L1184,37.7
			h328.7"/>
	</g>
	<g>
		<path fill="none" stroke="#9C9E9F" stroke-width="0.5" stroke-miterlimit="10" d="M197.8,104.8l328.7,99.7L855.3,83.1L1184,615.9"
			/>
		<path fill="none" stroke="#9C9E9F" stroke-width="0.5" stroke-miterlimit="10" d="M197.8,127.1l328.7-81.7l328.7,153.9L1184,615.9
			l328.7-466.6"/>
		<path fill="none" stroke="#9C9E9F" stroke-width="0.5" stroke-miterlimit="10" d="M197.8,171.8L526.5,57.1l328.7,306.7L1184,615.9
			l328.7-440"/>
		<path fill="none" stroke="#9C9E9F" stroke-width="0.5" stroke-miterlimit="10" d="M197.8,149.5l328.7,159.7L855.3,60.4L1184,615.9
			"/>
	</g>
	<g>
		<path fill="none" stroke="#F19155" stroke-width="2" stroke-miterlimit="10" d="M197.8,194.2l328.7,343.7l328.7-429.3L1184,793.1"
			/>
		<path fill="none" stroke="#F19155" stroke-width="2" stroke-miterlimit="10" d="M197.8,216.5l328.7,11.2l328.7-190L1184,793.1
			L1512.7,144"/>
		<path fill="none" stroke="#F19155" stroke-width="2" stroke-miterlimit="10" d="M197.8,283.6L526.5,57.1l328.7,740.6l328.7-4.6
			l328.7-606.6"/>
		<path fill="none" stroke="#F19155" stroke-width="2" stroke-miterlimit="10" d="M197.8,305.9L526.5,72.6l328.7,121.1L1184,793.1
			l328.7-622.5"/>
		<path fill="none" stroke="#F19155" stroke-width="2" stroke-miterlimit="10" d="M197.8,238.9l328.7-123.6l328.7,223L1184,793.1
			l328.7-659.7"/>
		<path fill="none" stroke="#F19155" stroke-width="2" stroke-miterlimit="10" d="M197.8,507.1L526.5,64.8l328.7,55.1L1184,793.1
			l328.7-643.8"/>
		<path fill="none" stroke="#F19155" stroke-width="2" stroke-miterlimit="10" d="M197.8,328.3L526.5,95.9l328.7,273.6L1184,793.1
			l328.7-564"/>
		<path fill="none" stroke="#F19155" stroke-width="2" stroke-miterlimit="10" d="M197.8,350.6L526.5,53.2L855.3,551L1184,793.1
			l328.7-580"/>
		<path fill="none" stroke="#F19155" stroke-width="2" stroke-miterlimit="10" d="M197.8,484.8l328.7,107.4l328.7-466.6L1184,793.1
			l328.7-633.1"/>
		<path fill="none" stroke="#F19155" stroke-width="2" stroke-miterlimit="10" d="M197.8,369.3l328.7,428.4l328.7-204.2L1184,793.1"
			/>
		<path fill="none" stroke="#F19155" stroke-width="2" stroke-miterlimit="10" d="M197.8,462.4l328.7-242.5l328.7-88.7L1184,793.1"
			/>
		<path fill="none" stroke="#F19155" stroke-width="2" stroke-miterlimit="10" d="M197.8,261.2L526.5,41.6l328.7,316.6L1184,793.1
			l328.7-702.2"/>
		<path fill="none" stroke="#F19155" stroke-width="2" stroke-miterlimit="10" d="M197.8,529.5L526.5,57.1l328.7,644.2l328.7,91.8
			l328.7-654.4"/>
		<path fill="none" stroke="#F19155" stroke-width="2" stroke-miterlimit="10" d="M197.8,440.1l328.7-383l328.7,579l328.7,157
			l328.7-606.6"/>
		<path fill="none" stroke="#F19155" stroke-width="2" stroke-miterlimit="10" d="M197.8,417.7l328.7-27.1l328.7-21.1L1184,793.1
			l328.7-595.9"/>
		<path fill="none" stroke="#F19155" stroke-width="2" stroke-miterlimit="10" d="M197.8,395.3L526.5,53.2l328.7,509.1L1184,793.1
			l328.7-681"/>
	</g>
	<g>
		<circle fill="#FFFCE8" cx="553.3" cy="107.5" r="12"/>
		<text transform="matrix(1 0 0 1 545.9811 112.4958)" fill="#323234" font-family="'SourceSansPro-Regular'" font-size="15">20</text>
	</g>
	<g>
		<circle fill="#FFFCE8" cx="553.3" cy="185" r="12"/>
		<text transform="matrix(1 0 0 1 545.9811 190.0469)" fill="#323234" font-family="'SourceSansPro-Regular'" font-size="15">40</text>
	</g>
	<g>
		<circle fill="#FFFCE8" cx="553.3" cy="495.3" r="12"/>
		<text transform="matrix(1 0 0 1 541.5588 500.251)" fill="#323234" font-family="'SourceSansPro-Regular'" font-size="15">120</text>
	</g>
	<g>
		<circle fill="#FFFCE8" cx="553.3" cy="572.8" r="12"/>
		<text transform="matrix(1 0 0 1 541.5588 577.802)" fill="#323234" font-family="'SourceSansPro-Regular'" font-size="15">140</text>
	</g>
	<g>
		<circle fill="#FFFCE8" cx="882.6" cy="247.6" r="12"/>
		<text transform="matrix(1 0 0 1 873.4204 252.5505)" fill="#323234" font-family="'SourceSansPro-Regular'" font-size="15">0,4</text>
		<g>
			<circle fill="#FFFCE8" cx="882.9" cy="304.3" r="12"/>
			<text transform="matrix(1 0 0 1 873.6528 309.2671)" fill="#323234" font-family="'SourceSansPro-Regular'" font-size="15">0,2</text>
			<g>
				<circle fill="#FFFCE8" cx="882.6" cy="361" r="12"/>
				<text transform="matrix(1 0 0 1 878.4829 365.9834)" fill="#323234" font-family="'SourceSansPro-Regular'" font-size="15">0</text>
				<g>
					<circle fill="#FFFCE8" cx="882.6" cy="417.7" r="12"/>
					<text transform="matrix(1 0 0 1 870.7124 422.6997)" fill="#323234" font-family="'SourceSansPro-Regular'" font-size="15">-0,2</text>
					<g>
						<circle fill="#FFFCE8" cx="882.6" cy="474.4" r="12"/>
						<text transform="matrix(1 0 0 1 870.6895 479.416)" fill="#323234" font-family="'SourceSansPro-Regular'" font-size="15">-0,4</text>
						<g>
							<circle fill="#FFFCE8" cx="882.6" cy="530.7" r="12"/>
							<text transform="matrix(1 0 0 1 870.6895 535.667)" fill="#323234" font-family="'SourceSansPro-Regular'" font-size="15">-0,6</text>
							<g>
								<circle fill="#FFFCE8" cx="882.6" cy="586.3" r="12"/>
								<text transform="matrix(1 0 0 1 870.6895 591.292)" fill="#323234" font-family="'SourceSansPro-Regular'" font-size="15">-0,8</text>
								<g>
									<circle fill="#FFFCE8" cx="882.6" cy="701.1" r="12"/>
									
										<text transform="matrix(1 0 0 1 870.6895 706.1001)" fill="#323234" font-family="'SourceSansPro-Regular'" font-size="15">-1,2</text>
									<g>
										<circle fill="#FFFCE8" cx="882.6" cy="757.2" r="12"/>
										
											<text transform="matrix(1 0 0 1 870.6895 762.2454)" fill="#323234" font-family="'SourceSansPro-Regular'" font-size="15">-1,4</text>
									</g>
								</g>
							</g>
						</g>
					</g>
				</g>
			</g>
		</g>
	</g>
	<g>
		<circle fill="#FFFCE8" cx="882.6" cy="643.6" r="12"/>
		<text transform="matrix(1 0 0 1 876.0044 648.6396)" fill="#323234" font-family="'SourceSansPro-Regular'" font-size="15">-1</text>
	</g>
	<g>
		<circle fill="#FFFCE8" cx="882.6" cy="190.8" r="12"/>
		<text transform="matrix(1 0 0 1 873.3696 195.8342)" fill="#323234" font-family="'SourceSansPro-Regular'" font-size="15">0,6</text>
	</g>
	<g>
		<circle fill="#FFFCE8" cx="882.3" cy="134.1" r="12"/>
		<text transform="matrix(1 0 0 1 873.1089 139.1179)" fill="#323234" font-family="'SourceSansPro-Regular'" font-size="15">0,8</text>
	</g>
	<g>
		<circle fill="#FFFCE8" cx="882.3" cy="77.4" r="12"/>
		<text transform="matrix(1 0 0 1 878.606 82.4014)" fill="#323234" font-family="'SourceSansPro-Regular'" font-size="15">1</text>
	</g>
	<g>
		<circle fill="#FFFCE8" cx="1206.8" cy="217.6" r="12"/>
		<text transform="matrix(1 0 0 1 1197.2554 222.6296)" fill="#323234" font-family="'SourceSansPro-Regular'" font-size="15">1,5</text>
		<g>
			<circle fill="#FFFCE8" cx="1206.8" cy="316.9" r="12"/>
			<text transform="matrix(1 0 0 1 1197.2554 321.9089)" fill="#323234" font-family="'SourceSansPro-Regular'" font-size="15">1,4</text>
			<g>
				<circle fill="#FFFCE8" cx="1206.8" cy="416.2" r="12"/>
				<text transform="matrix(1 0 0 1 1197.2554 421.1882)" fill="#323234" font-family="'SourceSansPro-Regular'" font-size="15">1,3</text>
				<g>
					<circle fill="#FFFCE8" cx="1206.8" cy="515.5" r="12"/>
					<text transform="matrix(1 0 0 1 1197.2554 520.4675)" fill="#323234" font-family="'SourceSansPro-Regular'" font-size="15">1,2</text>
					<g>
						<circle fill="#FFFCE8" cx="1206.8" cy="614.7" r="12"/>
						<text transform="matrix(1 0 0 1 1197.2554 619.7466)" fill="#323234" font-family="'SourceSansPro-Regular'" font-size="15">1,1</text>
						<g>
							<circle fill="#FFFCE8" cx="1206.8" cy="713.8" r="12"/>
							<text transform="matrix(1 0 0 1 1202.7778 718.7812)" fill="#323234" font-family="'SourceSansPro-Regular'" font-size="15">1</text>
						</g>
					</g>
				</g>
			</g>
		</g>
	</g>
</g>
<g id="Gruppo5">
</g>
<g id="Gruppo6">
</g>
<g id="All">
</g>
</svg>
